<?xml version="1.0" encoding="utf-8" standalone="no"?>
<!DOCTYPE svg PUBLIC "-//W3C//DTD SVG 1.1//EN"
  "http://www.w3.org/Graphics/SVG/1.1/DTD/svg11.dtd">
<svg xmlns:xlink="http://www.w3.org/1999/xlink" width="392.765pt" height="399.83625pt" viewBox="0 0 392.765 399.83625" xmlns="http://www.w3.org/2000/svg" version="1.1">
 <metadata>
  <rdf:RDF xmlns:dc="http://purl.org/dc/elements/1.1/" xmlns:cc="http://creativecommons.org/ns#" xmlns:rdf="http://www.w3.org/1999/02/22-rdf-syntax-ns#">
   <cc:Work>
    <dc:type rdf:resource="http://purl.org/dc/dcmitype/StillImage"/>
    <dc:date>2023-11-01T17:07:54.237885</dc:date>
    <dc:format>image/svg+xml</dc:format>
    <dc:creator>
     <cc:Agent>
      <dc:title>Matplotlib v3.5.1, https://matplotlib.org/</dc:title>
     </cc:Agent>
    </dc:creator>
   </cc:Work>
  </rdf:RDF>
 </metadata>
 <defs>
  <style type="text/css">*{stroke-linejoin: round; stroke-linecap: butt}</style>
 </defs>
 <g id="figure_1">
  <g id="patch_1">
   <path d="M 0 399.83625 
L 392.765 399.83625 
L 392.765 0 
L 0 0 
z
" style="fill: #ffffff"/>
  </g>
  <g id="axes_1">
   <g id="patch_2">
    <path d="M 365.88375 207.477187 
C 365.88375 185.636245 361.581561 164.007679 353.223394 143.829279 
C 344.865227 123.650879 332.613628 105.315066 317.16975 89.871188 
C 301.725871 74.427309 283.390058 62.17571 263.211658 53.817544 
C 243.033259 45.459377 221.404692 41.157187 199.56375 41.157187 
C 177.722808 41.157187 156.094241 45.459377 135.915842 53.817544 
C 115.737442 62.17571 97.401629 74.427309 81.95775 89.871188 
C 66.513872 105.315066 54.262273 123.650879 45.904106 143.829279 
C 37.545939 164.007679 33.24375 185.636245 33.24375 207.477187 
C 33.24375 229.31813 37.545939 250.946696 45.904106 271.125096 
C 54.262273 291.303496 66.513872 309.639309 81.95775 325.083187 
C 97.401629 340.527066 115.737442 352.778665 135.915842 361.136831 
C 156.094241 369.494998 177.722808 373.797188 199.56375 373.797188 
C 221.404692 373.797188 243.033259 369.494998 263.211658 361.136831 
C 283.390058 352.778665 301.725871 340.527066 317.16975 325.083187 
C 332.613628 309.639309 344.865227 291.303496 353.223394 271.125096 
C 361.581561 250.946696 365.88375 229.31813 365.88375 207.477188 
M 199.56375 207.477187 
C 199.56375 207.477187 199.56375 207.477187 199.56375 207.477187 
C 199.56375 207.477187 199.56375 207.477187 199.56375 207.477187 
C 199.56375 207.477187 199.56375 207.477187 199.56375 207.477187 
C 199.56375 207.477187 199.56375 207.477187 199.56375 207.477187 
C 199.56375 207.477187 199.56375 207.477187 199.56375 207.477187 
C 199.56375 207.477187 199.56375 207.477187 199.56375 207.477187 
C 199.56375 207.477187 199.56375 207.477187 199.56375 207.477187 
C 199.56375 207.477187 199.56375 207.477187 199.56375 207.477187 
C 199.56375 207.477187 199.56375 207.477187 199.56375 207.477187 
C 199.56375 207.477187 199.56375 207.477187 199.56375 207.477187 
C 199.56375 207.477187 199.56375 207.477187 199.56375 207.477187 
C 199.56375 207.477187 199.56375 207.477187 199.56375 207.477187 
C 199.56375 207.477187 199.56375 207.477187 199.56375 207.477187 
C 199.56375 207.477187 199.56375 207.477187 199.56375 207.477187 
C 199.56375 207.477187 199.56375 207.477187 199.56375 207.477187 
C 199.56375 207.477187 199.56375 207.477187 199.56375 207.477187 
M 365.88375 207.477187 
z
" style="fill: #ffffff"/>
   </g>
   <g id="matplotlib.axis_1">
    <g id="xtick_1">
     <g id="line2d_1">
      <path d="M 199.56375 207.477187 
L 365.88375 207.477187 
" clip-path="url(#p1f69691cd3)" style="fill: none; stroke: #b0b0b0; stroke-width: 0.8; stroke-linecap: square"/>
     </g>
     <g id="text_1">
      <!-- 0° -->
      <g transform="translate(374.2025 210.236562)scale(0.1 -0.1)">
       <defs>
        <path id="DejaVuSans-30" d="M 2034 4250 
Q 1547 4250 1301 3770 
Q 1056 3291 1056 2328 
Q 1056 1369 1301 889 
Q 1547 409 2034 409 
Q 2525 409 2770 889 
Q 3016 1369 3016 2328 
Q 3016 3291 2770 3770 
Q 2525 4250 2034 4250 
z
M 2034 4750 
Q 2819 4750 3233 4129 
Q 3647 3509 3647 2328 
Q 3647 1150 3233 529 
Q 2819 -91 2034 -91 
Q 1250 -91 836 529 
Q 422 1150 422 2328 
Q 422 3509 836 4129 
Q 1250 4750 2034 4750 
z
" transform="scale(0.015625)"/>
        <path id="DejaVuSans-b0" d="M 1600 4347 
Q 1350 4347 1178 4173 
Q 1006 4000 1006 3750 
Q 1006 3503 1178 3333 
Q 1350 3163 1600 3163 
Q 1850 3163 2022 3333 
Q 2194 3503 2194 3750 
Q 2194 3997 2020 4172 
Q 1847 4347 1600 4347 
z
M 1600 4750 
Q 1800 4750 1984 4673 
Q 2169 4597 2303 4453 
Q 2447 4313 2519 4134 
Q 2591 3956 2591 3750 
Q 2591 3338 2302 3052 
Q 2013 2766 1594 2766 
Q 1172 2766 890 3047 
Q 609 3328 609 3750 
Q 609 4169 896 4459 
Q 1184 4750 1600 4750 
z
" transform="scale(0.015625)"/>
       </defs>
       <use xlink:href="#DejaVuSans-30"/>
       <use xlink:href="#DejaVuSans-b0" x="63.623047"/>
      </g>
     </g>
    </g>
    <g id="xtick_2">
     <g id="line2d_2">
      <path d="M 199.56375 207.477187 
L 317.16975 89.871188 
" clip-path="url(#p1f69691cd3)" style="fill: none; stroke: #b0b0b0; stroke-width: 0.8; stroke-linecap: square"/>
     </g>
     <g id="text_2">
      <!-- 45° -->
      <g transform="translate(318.206745 82.731068)scale(0.1 -0.1)">
       <defs>
        <path id="DejaVuSans-34" d="M 2419 4116 
L 825 1625 
L 2419 1625 
L 2419 4116 
z
M 2253 4666 
L 3047 4666 
L 3047 1625 
L 3713 1625 
L 3713 1100 
L 3047 1100 
L 3047 0 
L 2419 0 
L 2419 1100 
L 313 1100 
L 313 1709 
L 2253 4666 
z
" transform="scale(0.015625)"/>
        <path id="DejaVuSans-35" d="M 691 4666 
L 3169 4666 
L 3169 4134 
L 1269 4134 
L 1269 2991 
Q 1406 3038 1543 3061 
Q 1681 3084 1819 3084 
Q 2600 3084 3056 2656 
Q 3513 2228 3513 1497 
Q 3513 744 3044 326 
Q 2575 -91 1722 -91 
Q 1428 -91 1123 -41 
Q 819 9 494 109 
L 494 744 
Q 775 591 1075 516 
Q 1375 441 1709 441 
Q 2250 441 2565 725 
Q 2881 1009 2881 1497 
Q 2881 1984 2565 2268 
Q 2250 2553 1709 2553 
Q 1456 2553 1204 2497 
Q 953 2441 691 2322 
L 691 4666 
z
" transform="scale(0.015625)"/>
       </defs>
       <use xlink:href="#DejaVuSans-34"/>
       <use xlink:href="#DejaVuSans-35" x="63.623047"/>
       <use xlink:href="#DejaVuSans-b0" x="127.246094"/>
      </g>
     </g>
    </g>
    <g id="xtick_3">
     <g id="line2d_3">
      <path d="M 199.56375 207.477187 
L 199.56375 41.157187 
" clip-path="url(#p1f69691cd3)" style="fill: none; stroke: #b0b0b0; stroke-width: 0.8; stroke-linecap: square"/>
     </g>
     <g id="text_3">
      <!-- 90° -->
      <g transform="translate(190.70125 29.916562)scale(0.1 -0.1)">
       <defs>
        <path id="DejaVuSans-39" d="M 703 97 
L 703 672 
Q 941 559 1184 500 
Q 1428 441 1663 441 
Q 2288 441 2617 861 
Q 2947 1281 2994 2138 
Q 2813 1869 2534 1725 
Q 2256 1581 1919 1581 
Q 1219 1581 811 2004 
Q 403 2428 403 3163 
Q 403 3881 828 4315 
Q 1253 4750 1959 4750 
Q 2769 4750 3195 4129 
Q 3622 3509 3622 2328 
Q 3622 1225 3098 567 
Q 2575 -91 1691 -91 
Q 1453 -91 1209 -44 
Q 966 3 703 97 
z
M 1959 2075 
Q 2384 2075 2632 2365 
Q 2881 2656 2881 3163 
Q 2881 3666 2632 3958 
Q 2384 4250 1959 4250 
Q 1534 4250 1286 3958 
Q 1038 3666 1038 3163 
Q 1038 2656 1286 2365 
Q 1534 2075 1959 2075 
z
" transform="scale(0.015625)"/>
       </defs>
       <use xlink:href="#DejaVuSans-39"/>
       <use xlink:href="#DejaVuSans-30" x="63.623047"/>
       <use xlink:href="#DejaVuSans-b0" x="127.246094"/>
      </g>
     </g>
    </g>
    <g id="xtick_4">
     <g id="line2d_4">
      <path d="M 199.56375 207.477187 
L 81.95775 89.871188 
" clip-path="url(#p1f69691cd3)" style="fill: none; stroke: #b0b0b0; stroke-width: 0.8; stroke-linecap: square"/>
     </g>
     <g id="text_4">
      <!-- 135° -->
      <g transform="translate(60.014505 82.731068)scale(0.1 -0.1)">
       <defs>
        <path id="DejaVuSans-31" d="M 794 531 
L 1825 531 
L 1825 4091 
L 703 3866 
L 703 4441 
L 1819 4666 
L 2450 4666 
L 2450 531 
L 3481 531 
L 3481 0 
L 794 0 
L 794 531 
z
" transform="scale(0.015625)"/>
        <path id="DejaVuSans-33" d="M 2597 2516 
Q 3050 2419 3304 2112 
Q 3559 1806 3559 1356 
Q 3559 666 3084 287 
Q 2609 -91 1734 -91 
Q 1441 -91 1130 -33 
Q 819 25 488 141 
L 488 750 
Q 750 597 1062 519 
Q 1375 441 1716 441 
Q 2309 441 2620 675 
Q 2931 909 2931 1356 
Q 2931 1769 2642 2001 
Q 2353 2234 1838 2234 
L 1294 2234 
L 1294 2753 
L 1863 2753 
Q 2328 2753 2575 2939 
Q 2822 3125 2822 3475 
Q 2822 3834 2567 4026 
Q 2313 4219 1838 4219 
Q 1578 4219 1281 4162 
Q 984 4106 628 3988 
L 628 4550 
Q 988 4650 1302 4700 
Q 1616 4750 1894 4750 
Q 2613 4750 3031 4423 
Q 3450 4097 3450 3541 
Q 3450 3153 3228 2886 
Q 3006 2619 2597 2516 
z
" transform="scale(0.015625)"/>
       </defs>
       <use xlink:href="#DejaVuSans-31"/>
       <use xlink:href="#DejaVuSans-33" x="63.623047"/>
       <use xlink:href="#DejaVuSans-35" x="127.246094"/>
       <use xlink:href="#DejaVuSans-b0" x="190.869141"/>
      </g>
     </g>
    </g>
    <g id="xtick_5">
     <g id="line2d_5">
      <path d="M 199.56375 207.477187 
L 33.24375 207.477187 
" clip-path="url(#p1f69691cd3)" style="fill: none; stroke: #b0b0b0; stroke-width: 0.8; stroke-linecap: square"/>
     </g>
     <g id="text_5">
      <!-- 180° -->
      <g transform="translate(7.2 210.236562)scale(0.1 -0.1)">
       <defs>
        <path id="DejaVuSans-38" d="M 2034 2216 
Q 1584 2216 1326 1975 
Q 1069 1734 1069 1313 
Q 1069 891 1326 650 
Q 1584 409 2034 409 
Q 2484 409 2743 651 
Q 3003 894 3003 1313 
Q 3003 1734 2745 1975 
Q 2488 2216 2034 2216 
z
M 1403 2484 
Q 997 2584 770 2862 
Q 544 3141 544 3541 
Q 544 4100 942 4425 
Q 1341 4750 2034 4750 
Q 2731 4750 3128 4425 
Q 3525 4100 3525 3541 
Q 3525 3141 3298 2862 
Q 3072 2584 2669 2484 
Q 3125 2378 3379 2068 
Q 3634 1759 3634 1313 
Q 3634 634 3220 271 
Q 2806 -91 2034 -91 
Q 1263 -91 848 271 
Q 434 634 434 1313 
Q 434 1759 690 2068 
Q 947 2378 1403 2484 
z
M 1172 3481 
Q 1172 3119 1398 2916 
Q 1625 2713 2034 2713 
Q 2441 2713 2670 2916 
Q 2900 3119 2900 3481 
Q 2900 3844 2670 4047 
Q 2441 4250 2034 4250 
Q 1625 4250 1398 4047 
Q 1172 3844 1172 3481 
z
" transform="scale(0.015625)"/>
       </defs>
       <use xlink:href="#DejaVuSans-31"/>
       <use xlink:href="#DejaVuSans-38" x="63.623047"/>
       <use xlink:href="#DejaVuSans-30" x="127.246094"/>
       <use xlink:href="#DejaVuSans-b0" x="190.869141"/>
      </g>
     </g>
    </g>
    <g id="xtick_6">
     <g id="line2d_6">
      <path d="M 199.56375 207.477187 
L 81.95775 325.083187 
" clip-path="url(#p1f69691cd3)" style="fill: none; stroke: #b0b0b0; stroke-width: 0.8; stroke-linecap: square"/>
     </g>
     <g id="text_6">
      <!-- 225° -->
      <g transform="translate(60.014505 337.742057)scale(0.1 -0.1)">
       <defs>
        <path id="DejaVuSans-32" d="M 1228 531 
L 3431 531 
L 3431 0 
L 469 0 
L 469 531 
Q 828 903 1448 1529 
Q 2069 2156 2228 2338 
Q 2531 2678 2651 2914 
Q 2772 3150 2772 3378 
Q 2772 3750 2511 3984 
Q 2250 4219 1831 4219 
Q 1534 4219 1204 4116 
Q 875 4013 500 3803 
L 500 4441 
Q 881 4594 1212 4672 
Q 1544 4750 1819 4750 
Q 2544 4750 2975 4387 
Q 3406 4025 3406 3419 
Q 3406 3131 3298 2873 
Q 3191 2616 2906 2266 
Q 2828 2175 2409 1742 
Q 1991 1309 1228 531 
z
" transform="scale(0.015625)"/>
       </defs>
       <use xlink:href="#DejaVuSans-32"/>
       <use xlink:href="#DejaVuSans-32" x="63.623047"/>
       <use xlink:href="#DejaVuSans-35" x="127.246094"/>
       <use xlink:href="#DejaVuSans-b0" x="190.869141"/>
      </g>
     </g>
    </g>
    <g id="xtick_7">
     <g id="line2d_7">
      <path d="M 199.56375 207.477187 
L 199.56375 373.797188 
" clip-path="url(#p1f69691cd3)" style="fill: none; stroke: #b0b0b0; stroke-width: 0.8; stroke-linecap: square"/>
     </g>
     <g id="text_7">
      <!-- 270° -->
      <g transform="translate(187.52 390.556562)scale(0.1 -0.1)">
       <defs>
        <path id="DejaVuSans-37" d="M 525 4666 
L 3525 4666 
L 3525 4397 
L 1831 0 
L 1172 0 
L 2766 4134 
L 525 4134 
L 525 4666 
z
" transform="scale(0.015625)"/>
       </defs>
       <use xlink:href="#DejaVuSans-32"/>
       <use xlink:href="#DejaVuSans-37" x="63.623047"/>
       <use xlink:href="#DejaVuSans-30" x="127.246094"/>
       <use xlink:href="#DejaVuSans-b0" x="190.869141"/>
      </g>
     </g>
    </g>
    <g id="xtick_8">
     <g id="line2d_8">
      <path d="M 199.56375 207.477187 
L 317.16975 325.083187 
" clip-path="url(#p1f69691cd3)" style="fill: none; stroke: #b0b0b0; stroke-width: 0.8; stroke-linecap: square"/>
     </g>
     <g id="text_8">
      <!-- 315° -->
      <g transform="translate(315.025495 337.742057)scale(0.1 -0.1)">
       <use xlink:href="#DejaVuSans-33"/>
       <use xlink:href="#DejaVuSans-31" x="63.623047"/>
       <use xlink:href="#DejaVuSans-35" x="127.246094"/>
       <use xlink:href="#DejaVuSans-b0" x="190.869141"/>
      </g>
     </g>
    </g>
   </g>
   <g id="matplotlib.axis_2">
    <g id="ytick_1">
     <g id="line2d_9">
      <path d="M 212.539015 207.477187 
C 212.539015 205.773291 212.203384 204.085963 211.551332 202.511769 
C 210.899279 200.937574 209.943484 199.507126 208.738648 198.30229 
C 207.533811 197.097453 206.103364 196.141659 204.529169 195.489606 
C 202.954974 194.837553 201.267646 194.501923 199.56375 194.501923 
C 197.859854 194.501923 196.172526 194.837553 194.598331 195.489606 
C 193.024136 196.141659 191.593689 197.097453 190.388852 198.30229 
C 189.184016 199.507126 188.228221 200.937574 187.576168 202.511769 
C 186.924116 204.085963 186.588485 205.773291 186.588485 207.477187 
C 186.588485 209.181084 186.924116 210.868412 187.576168 212.442606 
C 188.228221 214.016801 189.184016 215.447249 190.388852 216.652085 
C 191.593689 217.856922 193.024136 218.812716 194.598331 219.464769 
C 196.172526 220.116822 197.859854 220.452452 199.56375 220.452452 
C 201.267646 220.452452 202.954974 220.116822 204.529169 219.464769 
C 206.103364 218.812716 207.533811 217.856922 208.738648 216.652085 
C 209.943484 215.447249 210.899279 214.016801 211.551332 212.442606 
C 212.203384 210.868412 212.539015 209.181084 212.539015 207.477187 
" clip-path="url(#p1f69691cd3)" style="fill: none; stroke: #b0b0b0; stroke-width: 0.8; stroke-linecap: square"/>
     </g>
     <g id="text_9">
      <!-- −30 -->
      <g transform="translate(211.551332 200.432081)scale(0.1 -0.1)">
       <defs>
        <path id="DejaVuSans-2212" d="M 678 2272 
L 4684 2272 
L 4684 1741 
L 678 1741 
L 678 2272 
z
" transform="scale(0.015625)"/>
       </defs>
       <use xlink:href="#DejaVuSans-2212"/>
       <use xlink:href="#DejaVuSans-33" x="83.789062"/>
       <use xlink:href="#DejaVuSans-30" x="147.412109"/>
      </g>
     </g>
    </g>
    <g id="ytick_2">
     <g id="line2d_10">
      <path d="M 227.873488 207.477187 
C 227.873488 203.759587 227.141202 200.078135 225.718538 196.64352 
C 224.295874 193.208904 222.210499 190.08792 219.581758 187.45918 
C 216.953017 184.830439 213.832033 182.745064 210.397418 181.3224 
C 206.962803 179.899735 203.281351 179.167449 199.56375 179.167449 
C 195.846149 179.167449 192.164697 179.899735 188.730082 181.3224 
C 185.295467 182.745064 182.174483 184.830439 179.545742 187.45918 
C 176.917001 190.08792 174.831626 193.208904 173.408962 196.64352 
C 171.986298 200.078135 171.254012 203.759587 171.254012 207.477187 
C 171.254012 211.194788 171.986298 214.87624 173.408962 218.310855 
C 174.831626 221.745471 176.917001 224.866455 179.545742 227.495195 
C 182.174483 230.123936 185.295467 232.209311 188.730082 233.631975 
C 192.164697 235.05464 195.846149 235.786926 199.56375 235.786926 
C 203.281351 235.786926 206.962803 235.05464 210.397418 233.631975 
C 213.832033 232.209311 216.953017 230.123936 219.581758 227.495195 
C 222.210499 224.866455 224.295874 221.745471 225.718538 218.310855 
C 227.141202 214.87624 227.873488 211.194788 227.873488 207.477187 
" clip-path="url(#p1f69691cd3)" style="fill: none; stroke: #b0b0b0; stroke-width: 0.8; stroke-linecap: square"/>
     </g>
     <g id="text_10">
      <!-- −27 -->
      <g transform="translate(225.718538 194.563832)scale(0.1 -0.1)">
       <use xlink:href="#DejaVuSans-2212"/>
       <use xlink:href="#DejaVuSans-32" x="83.789062"/>
       <use xlink:href="#DejaVuSans-37" x="147.412109"/>
      </g>
     </g>
    </g>
    <g id="ytick_3">
     <g id="line2d_11">
      <path d="M 243.207962 207.477187 
C 243.207962 201.745882 242.07902 196.070306 239.885744 190.775271 
C 237.692468 185.480235 234.477513 180.668714 230.424868 176.616069 
C 226.372223 172.563424 221.560703 169.348469 216.265667 167.155193 
C 210.970631 164.961918 205.295055 163.832976 199.56375 163.832976 
C 193.832445 163.832976 188.156869 164.961918 182.861833 167.155193 
C 177.566797 169.348469 172.755277 172.563424 168.702632 176.616069 
C 164.649987 180.668714 161.435032 185.480235 159.241756 190.775271 
C 157.04848 196.070306 155.919538 201.745882 155.919538 207.477187 
C 155.919538 213.208493 157.04848 218.884069 159.241756 224.179104 
C 161.435032 229.47414 164.649987 234.285661 168.702632 238.338306 
C 172.755277 242.390951 177.566797 245.605906 182.861833 247.799182 
C 188.156869 249.992457 193.832445 251.121399 199.56375 251.121399 
C 205.295055 251.121399 210.970631 249.992457 216.265667 247.799182 
C 221.560703 245.605906 226.372223 242.390951 230.424868 238.338306 
C 234.477513 234.285661 237.692468 229.47414 239.885744 224.179104 
C 242.07902 218.884069 243.207962 213.208493 243.207962 207.477187 
" clip-path="url(#p1f69691cd3)" style="fill: none; stroke: #b0b0b0; stroke-width: 0.8; stroke-linecap: square"/>
     </g>
     <g id="text_11">
      <!-- −24 -->
      <g transform="translate(239.885744 188.695583)scale(0.1 -0.1)">
       <use xlink:href="#DejaVuSans-2212"/>
       <use xlink:href="#DejaVuSans-32" x="83.789062"/>
       <use xlink:href="#DejaVuSans-34" x="147.412109"/>
      </g>
     </g>
    </g>
    <g id="ytick_4">
     <g id="line2d_12">
      <path d="M 258.542435 207.477187 
C 258.542435 199.732178 257.016837 192.062478 254.05295 184.907022 
C 251.089063 177.751566 246.744527 171.249508 241.267978 165.772959 
C 235.791429 160.29641 229.289372 155.951874 222.133916 152.987987 
C 214.97846 150.0241 207.30876 148.498502 199.56375 148.498502 
C 191.81874 148.498502 184.14904 150.0241 176.993584 152.987987 
C 169.838128 155.951874 163.336071 160.29641 157.859522 165.772959 
C 152.382973 171.249508 148.038437 177.751566 145.07455 184.907022 
C 142.110663 192.062478 140.585065 199.732178 140.585065 207.477187 
C 140.585065 215.222197 142.110663 222.891897 145.07455 230.047353 
C 148.038437 237.202809 152.382973 243.704867 157.859522 249.181416 
C 163.336071 254.657965 169.838128 259.002501 176.993584 261.966388 
C 184.14904 264.930275 191.81874 266.455873 199.56375 266.455873 
C 207.30876 266.455873 214.97846 264.930275 222.133916 261.966388 
C 229.289372 259.002501 235.791429 254.657965 241.267978 249.181416 
C 246.744527 243.704867 251.089063 237.202809 254.05295 230.047353 
C 257.016837 222.891897 258.542435 215.222197 258.542435 207.477188 
" clip-path="url(#p1f69691cd3)" style="fill: none; stroke: #b0b0b0; stroke-width: 0.8; stroke-linecap: square"/>
     </g>
     <g id="text_12">
      <!-- −21 -->
      <g transform="translate(254.05295 182.827334)scale(0.1 -0.1)">
       <use xlink:href="#DejaVuSans-2212"/>
       <use xlink:href="#DejaVuSans-32" x="83.789062"/>
       <use xlink:href="#DejaVuSans-31" x="147.412109"/>
      </g>
     </g>
    </g>
    <g id="ytick_5">
     <g id="line2d_13">
      <path d="M 273.876909 207.477187 
C 273.876909 197.718473 271.954655 188.054649 268.220156 179.038773 
C 264.485658 170.022896 259.011542 161.830302 252.111089 154.929849 
C 245.210635 148.029396 237.018041 142.555279 228.002165 138.820781 
C 218.986288 135.086283 209.322465 133.164029 199.56375 133.164029 
C 189.805035 133.164029 180.141212 135.086283 171.125335 138.820781 
C 162.109459 142.555279 153.916865 148.029396 147.016411 154.929849 
C 140.115958 161.830302 134.641842 170.022896 130.907344 179.038773 
C 127.172845 188.054649 125.250591 197.718473 125.250591 207.477187 
C 125.250591 217.235902 127.172845 226.899726 130.907344 235.915602 
C 134.641842 244.931479 140.115958 253.124073 147.016411 260.024526 
C 153.916865 266.924979 162.109459 272.399096 171.125335 276.133594 
C 180.141212 279.868092 189.805035 281.790346 199.56375 281.790346 
C 209.322465 281.790346 218.986288 279.868092 228.002165 276.133594 
C 237.018041 272.399096 245.210635 266.924979 252.111089 260.024526 
C 259.011542 253.124073 264.485658 244.931479 268.220156 235.915602 
C 271.954655 226.899726 273.876909 217.235902 273.876909 207.477188 
" clip-path="url(#p1f69691cd3)" style="fill: none; stroke: #b0b0b0; stroke-width: 0.8; stroke-linecap: square"/>
     </g>
     <g id="text_13">
      <!-- −18 -->
      <g transform="translate(268.220156 176.959085)scale(0.1 -0.1)">
       <use xlink:href="#DejaVuSans-2212"/>
       <use xlink:href="#DejaVuSans-31" x="83.789062"/>
       <use xlink:href="#DejaVuSans-38" x="147.412109"/>
      </g>
     </g>
    </g>
    <g id="ytick_6">
     <g id="line2d_14">
      <path d="M 289.211382 207.477187 
C 289.211382 195.704768 286.892472 184.046821 282.387363 173.170524 
C 277.882253 162.294227 271.278556 152.411096 262.954199 144.086739 
C 254.629841 135.762381 244.746711 129.158685 233.870414 124.653575 
C 222.994116 120.148465 211.336169 117.829555 199.56375 117.829555 
C 187.791331 117.829555 176.133384 120.148465 165.257086 124.653575 
C 154.380789 129.158685 144.497659 135.762381 136.173301 144.086739 
C 127.848944 152.411096 121.245247 162.294227 116.740137 173.170524 
C 112.235028 184.046821 109.916118 195.704768 109.916118 207.477187 
C 109.916118 219.249607 112.235028 230.907554 116.740137 241.783851 
C 121.245247 252.660148 127.848944 262.543279 136.173301 270.867636 
C 144.497659 279.191994 154.380789 285.79569 165.257086 290.3008 
C 176.133384 294.80591 187.791331 297.12482 199.56375 297.12482 
C 211.336169 297.12482 222.994116 294.80591 233.870414 290.3008 
C 244.746711 285.79569 254.629841 279.191994 262.954199 270.867636 
C 271.278556 262.543279 277.882253 252.660148 282.387363 241.783851 
C 286.892472 230.907554 289.211382 219.249607 289.211382 207.477188 
" clip-path="url(#p1f69691cd3)" style="fill: none; stroke: #b0b0b0; stroke-width: 0.8; stroke-linecap: square"/>
     </g>
     <g id="text_14">
      <!-- −15 -->
      <g transform="translate(282.387363 171.090836)scale(0.1 -0.1)">
       <use xlink:href="#DejaVuSans-2212"/>
       <use xlink:href="#DejaVuSans-31" x="83.789062"/>
       <use xlink:href="#DejaVuSans-35" x="147.412109"/>
      </g>
     </g>
    </g>
    <g id="ytick_7">
     <g id="line2d_15">
      <path d="M 304.545856 207.477187 
C 304.545856 193.691064 301.83029 180.038993 296.554569 167.302275 
C 291.278848 154.565557 283.545571 142.99189 273.797309 133.243629 
C 264.049047 123.495367 252.47538 115.76209 239.738663 110.486369 
C 227.001945 105.210647 213.349874 102.495082 199.56375 102.495082 
C 185.777626 102.495082 172.125555 105.210647 159.388837 110.486369 
C 146.65212 115.76209 135.078453 123.495367 125.330191 133.243629 
C 115.581929 142.99189 107.848652 154.565557 102.572931 167.302275 
C 97.29721 180.038993 94.581644 193.691064 94.581644 207.477187 
C 94.581644 221.263311 97.29721 234.915382 102.572931 247.6521 
C 107.848652 260.388818 115.581929 271.962485 125.330191 281.710746 
C 135.078453 291.459008 146.65212 299.192285 159.388837 304.468006 
C 172.125555 309.743728 185.777626 312.459293 199.56375 312.459293 
C 213.349874 312.459293 227.001945 309.743728 239.738663 304.468006 
C 252.47538 299.192285 264.049047 291.459008 273.797309 281.710746 
C 283.545571 271.962485 291.278848 260.388818 296.554569 247.6521 
C 301.83029 234.915382 304.545856 221.263311 304.545856 207.477188 
" clip-path="url(#p1f69691cd3)" style="fill: none; stroke: #b0b0b0; stroke-width: 0.8; stroke-linecap: square"/>
     </g>
     <g id="text_15">
      <!-- −12 -->
      <g transform="translate(296.554569 165.222587)scale(0.1 -0.1)">
       <use xlink:href="#DejaVuSans-2212"/>
       <use xlink:href="#DejaVuSans-31" x="83.789062"/>
       <use xlink:href="#DejaVuSans-32" x="147.412109"/>
      </g>
     </g>
    </g>
    <g id="ytick_8">
     <g id="line2d_16">
      <path d="M 319.880329 207.477187 
C 319.880329 191.677359 316.768108 176.031164 310.721775 161.434026 
C 304.675443 146.836888 295.812585 133.572684 284.640419 122.400518 
C 273.468253 111.228352 260.20405 102.365495 245.606912 96.319162 
C 231.009773 90.27283 215.363578 87.160608 199.56375 87.160608 
C 183.763922 87.160608 168.117727 90.27283 153.520588 96.319162 
C 138.92345 102.365495 125.659247 111.228352 114.487081 122.400518 
C 103.314915 133.572684 94.452057 146.836888 88.405725 161.434026 
C 82.359392 176.031164 79.247171 191.677359 79.247171 207.477187 
C 79.247171 223.277016 82.359392 238.923211 88.405725 253.520349 
C 94.452057 268.117487 103.314915 281.381691 114.487081 292.553857 
C 125.659247 303.726023 138.92345 312.58888 153.520588 318.635213 
C 168.117727 324.681545 183.763922 327.793767 199.56375 327.793767 
C 215.363578 327.793767 231.009773 324.681545 245.606912 318.635213 
C 260.20405 312.58888 273.468253 303.726023 284.640419 292.553857 
C 295.812585 281.381691 304.675443 268.117487 310.721775 253.520349 
C 316.768108 238.923211 319.880329 223.277016 319.880329 207.477188 
" clip-path="url(#p1f69691cd3)" style="fill: none; stroke: #b0b0b0; stroke-width: 0.8; stroke-linecap: square"/>
     </g>
     <g id="text_16">
      <!-- −9 -->
      <g transform="translate(310.721775 159.354338)scale(0.1 -0.1)">
       <use xlink:href="#DejaVuSans-2212"/>
       <use xlink:href="#DejaVuSans-39" x="83.789062"/>
      </g>
     </g>
    </g>
    <g id="ytick_9">
     <g id="line2d_17">
      <path d="M 335.214803 207.477187 
C 335.214803 189.663654 331.705925 172.023336 324.888981 155.565777 
C 318.072037 139.108218 308.079599 124.153478 295.483529 111.557408 
C 282.887459 98.961338 267.932719 88.9689 251.475161 82.151956 
C 235.017602 75.335012 217.377283 71.826135 199.56375 71.826135 
C 181.750217 71.826135 164.109898 75.335012 147.652339 82.151956 
C 131.194781 88.9689 116.240041 98.961338 103.643971 111.557408 
C 91.047901 124.153478 81.055463 139.108218 74.238519 155.565777 
C 67.421575 172.023336 63.912697 189.663654 63.912697 207.477187 
C 63.912697 225.290721 67.421575 242.931039 74.238519 259.388598 
C 81.055463 275.846157 91.047901 290.800897 103.643971 303.396967 
C 116.240041 315.993037 131.194781 325.985475 147.652339 332.802419 
C 164.109898 339.619363 181.750217 343.12824 199.56375 343.12824 
C 217.377283 343.12824 235.017602 339.619363 251.475161 332.802419 
C 267.932719 325.985475 282.887459 315.993037 295.483529 303.396967 
C 308.079599 290.800897 318.072037 275.846157 324.888981 259.388598 
C 331.705925 242.931039 335.214803 225.290721 335.214803 207.477188 
" clip-path="url(#p1f69691cd3)" style="fill: none; stroke: #b0b0b0; stroke-width: 0.8; stroke-linecap: square"/>
     </g>
     <g id="text_17">
      <!-- −6 -->
      <g transform="translate(324.888981 153.486089)scale(0.1 -0.1)">
       <defs>
        <path id="DejaVuSans-36" d="M 2113 2584 
Q 1688 2584 1439 2293 
Q 1191 2003 1191 1497 
Q 1191 994 1439 701 
Q 1688 409 2113 409 
Q 2538 409 2786 701 
Q 3034 994 3034 1497 
Q 3034 2003 2786 2293 
Q 2538 2584 2113 2584 
z
M 3366 4563 
L 3366 3988 
Q 3128 4100 2886 4159 
Q 2644 4219 2406 4219 
Q 1781 4219 1451 3797 
Q 1122 3375 1075 2522 
Q 1259 2794 1537 2939 
Q 1816 3084 2150 3084 
Q 2853 3084 3261 2657 
Q 3669 2231 3669 1497 
Q 3669 778 3244 343 
Q 2819 -91 2113 -91 
Q 1303 -91 875 529 
Q 447 1150 447 2328 
Q 447 3434 972 4092 
Q 1497 4750 2381 4750 
Q 2619 4750 2861 4703 
Q 3103 4656 3366 4563 
z
" transform="scale(0.015625)"/>
       </defs>
       <use xlink:href="#DejaVuSans-2212"/>
       <use xlink:href="#DejaVuSans-36" x="83.789062"/>
      </g>
     </g>
    </g>
    <g id="ytick_10">
     <g id="line2d_18">
      <path d="M 350.549276 207.477187 
C 350.549276 187.64995 346.643743 168.015507 339.056188 149.697528 
C 331.468632 131.379549 320.346614 114.734272 306.32664 100.714298 
C 292.306665 86.694324 275.661389 75.572305 257.34341 67.98475 
C 239.02543 60.397195 219.390988 56.491661 199.56375 56.491661 
C 179.736512 56.491661 160.10207 60.397195 141.78409 67.98475 
C 123.466111 75.572305 106.820835 86.694324 92.80086 100.714298 
C 78.780886 114.734272 67.658868 131.379549 60.071312 149.697528 
C 52.483757 168.015507 48.578224 187.64995 48.578224 207.477187 
C 48.578224 227.304425 52.483757 246.938868 60.071312 265.256847 
C 67.658868 283.574826 78.780886 300.220103 92.80086 314.240077 
C 106.820835 328.260051 123.466111 339.38207 141.78409 346.969625 
C 160.10207 354.55718 179.736512 358.462714 199.56375 358.462714 
C 219.390988 358.462714 239.02543 354.55718 257.34341 346.969625 
C 275.661389 339.38207 292.306665 328.260051 306.32664 314.240077 
C 320.346614 300.220103 331.468632 283.574826 339.056188 265.256847 
C 346.643743 246.938868 350.549276 227.304425 350.549276 207.477188 
" clip-path="url(#p1f69691cd3)" style="fill: none; stroke: #b0b0b0; stroke-width: 0.8; stroke-linecap: square"/>
     </g>
     <g id="text_18">
      <!-- −3 -->
      <g transform="translate(339.056188 147.61784)scale(0.1 -0.1)">
       <use xlink:href="#DejaVuSans-2212"/>
       <use xlink:href="#DejaVuSans-33" x="83.789062"/>
      </g>
     </g>
    </g>
   </g>
   <g id="line2d_19">
    <path d="M 307.040264 207.477187 
L 308.061898 201.791041 
L 307.808462 199.90798 
L 307.349261 198.047177 
L 306.466746 196.24123 
L 303.849583 194.672497 
L 301.681702 193.125445 
L 299.961691 191.575716 
L 297.59494 190.191644 
L 295.037044 187.183712 
L 294.165304 185.636698 
L 294.404563 183.830717 
L 294.505724 182.037562 
L 293.261124 180.609898 
L 291.858984 179.259703 
L 287.328551 177.257343 
L 284.073035 175.037112 
L 283.47031 173.576737 
L 283.642236 171.787988 
L 284.384094 169.712737 
L 284.629347 167.810448 
L 285.283987 165.668634 
L 286.599848 163.13008 
L 286.972515 161.001123 
L 287.498208 158.734322 
L 288.30742 156.241006 
L 287.785273 154.468349 
L 287.969415 152.235197 
L 287.373344 148.248868 
L 286.906928 144.018654 
L 285.936037 139.995761 
L 285.452251 137.92605 
L 284.153084 133.944801 
L 283.677377 131.740938 
L 282.458674 130.176421 
L 281.71836 128.141403 
L 280.856174 126.184764 
L 280.252367 123.921679 
L 279.715549 118.459596 
L 279.668879 115.326778 
L 279.809515 111.844008 
L 279.18658 109.151181 
L 279.094841 105.682033 
L 279.139556 101.876526 
L 278.513275 98.812489 
L 278.275933 95.06454 
L 277.768387 91.534046 
L 276.949561 88.313489 
L 276.334311 84.618608 
L 275.449992 81.181272 
L 274.202894 78.198397 
L 273.062836 74.881327 
L 271.632613 71.93537 
L 268.357418 66.429266 
L 262.291297 59.700348 
L 255.417083 54.021417 
L 252.931764 52.48522 
L 247.780037 49.76882 
L 239.585034 46.960583 
L 236.820082 46.102285 
L 231.179138 44.830117 
L 225.514763 43.628942 
L 219.789454 42.752049 
L 211.160655 41.633721 
L 208.268266 41.385123 
L 202.46465 41.284733 
L 199.56375 41.479211 
L 193.797976 42.367023 
L 188.142986 44.152647 
L 185.386982 45.435986 
L 180.023274 48.332779 
L 177.450118 50.13052 
L 172.515481 54.078834 
L 170.254015 56.691673 
L 165.812116 61.2828 
L 163.807436 64.066443 
L 161.771729 66.435444 
L 159.831631 68.914821 
L 158.076996 71.780129 
L 156.124175 73.783921 
L 154.353344 76.176634 
L 152.692838 78.700415 
L 150.851843 80.578332 
L 146.065195 87.317465 
L 143.132191 91.775346 
L 141.659882 93.834448 
L 140.626044 96.631485 
L 139.53066 99.174626 
L 138.311601 101.385354 
L 137.356563 103.947042 
L 136.612863 106.734709 
L 136.00009 109.597735 
L 136.170874 113.493383 
L 135.795109 116.40613 
L 135.690601 119.563341 
L 136.168609 123.348995 
L 136.600549 129.724109 
L 137.638508 133.677558 
L 138.066859 136.733107 
L 139.095519 140.320414 
L 140.439136 144.073802 
L 141.432986 147.281019 
L 143.926936 153.749341 
L 144.605202 156.227512 
L 146.252794 159.475787 
L 146.912242 161.70793 
L 147.272673 163.599764 
L 150.433519 169.092444 
L 151.599929 171.333856 
L 152.456878 173.252042 
L 152.009102 174.179065 
L 151.308084 174.92833 
L 149.812843 175.168571 
L 148.654021 175.665258 
L 146.976178 175.879387 
L 144.356617 175.603334 
L 142.722391 175.969508 
L 139.888469 175.747278 
L 136.233158 175.208639 
L 131.698649 177.261698 
L 130.664086 178.231015 
L 129.410616 179.133481 
L 128.602139 180.237577 
L 128.171173 181.492415 
L 128.376173 182.965339 
L 129.859999 184.829066 
L 132.325139 186.920281 
L 136.806564 189.481854 
L 147.847164 194.582794 
L 156.569971 197.551292 
L 169.094754 201.554615 
L 175.051737 203.155058 
L 176.075576 203.757026 
L 173.215082 203.774124 
L 172.332578 204.13362 
L 167.108463 204.065999 
L 154.536934 204.328606 
L 149.175071 204.836429 
L 145.683395 205.595644 
L 143.742246 206.50282 
L 142.604104 207.477187 
L 141.054012 208.498479 
L 140.043746 209.555672 
L 138.180008 210.694173 
L 137.072722 211.846986 
L 134.856901 213.138303 
L 133.328673 214.438775 
L 130.355342 215.974912 
L 128.064303 217.525779 
L 125.297157 219.23986 
L 121.592397 221.225641 
L 119.24511 223.08955 
L 116.429945 225.147823 
L 114.450018 227.127241 
L 113.375647 230.57122 
L 113.202203 232.240963 
L 113.349367 233.83557 
L 112.816222 235.663168 
L 111.649126 237.74862 
L 110.764448 241.564046 
L 110.661976 243.395836 
L 111.260037 244.95989 
L 112.614078 246.189676 
L 114.33138 247.221694 
L 115.547953 248.45443 
L 117.127568 249.48052 
L 118.374145 250.646466 
L 119.899922 251.635568 
L 121.638889 252.467127 
L 126.481569 253.144003 
L 129.608885 252.906408 
L 131.984545 253.059937 
L 135.809257 252.118564 
L 139.678853 250.986112 
L 142.500665 250.477307 
L 145.736976 249.531272 
L 151.897031 247.474314 
L 155.194706 246.046609 
L 164.491832 241.345745 
L 166.147272 240.893665 
L 165.886933 242.350553 
L 161.570016 249.673504 
L 154.901067 260.7041 
L 153.356681 264.538166 
L 151.231503 269.339642 
L 149.279255 274.206966 
L 146.774815 282.867599 
L 146.074916 286.777644 
L 145.746586 290.348353 
L 145.161449 294.539068 
L 144.864774 298.511571 
L 144.85431 302.236717 
L 144.432342 306.93688 
L 144.662339 310.731724 
L 145.098965 314.370347 
L 145.334829 318.662953 
L 146.356818 321.579822 
L 147.316771 324.825823 
L 148.14845 328.604044 
L 149.47368 331.454462 
L 152.059978 337.992729 
L 153.779216 340.445129 
L 155.411803 343.362908 
L 157.199751 346.043586 
L 159.176484 348.324322 
L 161.142004 350.869096 
L 163.276942 353.015625 
L 165.593647 354.617867 
L 167.849021 356.683255 
L 172.711641 359.763064 
L 177.770951 362.541007 
L 180.398903 363.562341 
L 183.062836 364.472893 
L 188.481717 365.95764 
L 191.234289 366.412762 
L 196.778909 367.020605 
L 202.34529 366.831508 
L 207.874484 366.055448 
L 213.342245 364.966105 
L 226.776225 361.806801 
L 229.444046 361.197986 
L 232.085097 360.478098 
L 234.658392 359.48878 
L 239.862764 357.875155 
L 242.415213 356.918 
L 247.070635 353.688345 
L 249.214078 351.672211 
L 251.174121 349.275518 
L 253.252643 347.341534 
L 255.061211 344.838223 
L 256.655146 341.976087 
L 258.280672 339.357554 
L 259.696314 336.431887 
L 260.842008 333.116236 
L 262.09019 330.192236 
L 263.096881 326.965628 
L 263.931037 323.598847 
L 264.629071 320.17363 
L 264.919542 316.247491 
L 264.919943 312.06896 
L 264.666916 307.727272 
L 261.356337 295.726148 
L 259.579173 290.081331 
L 256.059036 282.448965 
L 253.623442 276.670438 
L 250.335409 270.174965 
L 242.150593 256.467746 
L 236.408278 248.397181 
L 230.326035 240.465699 
L 228.163009 237.092587 
L 229.380315 237.293753 
L 235.301186 241.988429 
L 241.909247 246.965002 
L 249.041941 252.02755 
L 256.246545 256.75079 
L 261.851429 259.742756 
L 267.588482 262.56253 
L 272.635878 264.567391 
L 276.613376 265.538245 
L 280.071305 265.96935 
L 282.595598 265.616713 
L 284.928239 265.056262 
L 287.506268 264.587726 
L 292.385746 263.25027 
L 295.066962 262.615993 
L 297.311199 261.659483 
L 299.455968 260.590822 
L 303.495308 258.167995 
L 305.327733 256.795743 
L 306.886798 255.260487 
L 308.650121 253.781605 
L 311.259051 250.352996 
L 313.726451 246.786558 
L 314.774289 244.911361 
L 315.390506 242.88898 
L 315.365906 238.506282 
L 314.74908 236.196116 
L 313.853157 233.862976 
L 312.782653 229.484713 
L 311.941373 227.292394 
L 311.573379 225.21777 
L 310.216688 221.06366 
L 310.116692 219.09677 
L 308.955183 213.21015 
L 307.827891 211.257855 
L 307.120998 209.354606 
L 307.120998 209.354606 
" clip-path="url(#p1f69691cd3)" style="fill: none; stroke: #ff0000; stroke-width: 1.5; stroke-linecap: square"/>
   </g>
   <g id="line2d_20">
    <path d="M 329.903964 207.477187 
L 332.000733 202.852386 
L 333.874754 198.085247 
L 335.503641 193.189329 
L 336.881087 188.178494 
L 337.991475 183.068645 
L 338.82523 177.876246 
L 339.353944 172.623578 
L 339.580506 167.328029 
L 339.489224 162.012645 
L 339.075742 156.698975 
L 338.327616 151.412947 
L 337.243735 146.178109 
L 335.833726 141.013879 
L 334.085589 135.950657 
L 332.01647 131.005574 
L 329.63542 126.199387 
L 326.944223 121.557973 
L 323.963201 117.095696 
L 320.71704 112.821863 
L 317.218429 108.75319 
L 313.500014 104.888514 
L 309.585578 101.230344 
L 305.515883 97.760542 
L 301.324721 94.460179 
L 294.884397 89.765992 
L 281.840904 80.781481 
L 270.989493 73.144902 
L 259.898629 65.33712 
L 255.29143 62.301618 
L 250.548718 59.40609 
L 245.656416 56.714872 
L 240.608908 54.294571 
L 235.413833 52.193417 
L 230.083855 50.464857 
L 224.639986 49.152067 
L 221.882971 48.667675 
L 219.108587 48.297265 
L 216.320057 48.051573 
L 213.522225 47.931086 
L 210.719591 47.941233 
L 207.917287 48.082209 
L 205.120274 48.35915 
L 202.333871 48.777038 
L 199.56375 49.335573 
L 196.815574 50.034273 
L 194.09535 50.882688 
L 191.409244 51.879947 
L 188.763756 53.030075 
L 186.165263 54.331781 
L 183.621176 55.793729 
L 181.138326 57.414149 
L 178.724915 59.20117 
L 176.388995 61.157543 
L 174.138016 63.280686 
L 171.982279 65.582822 
L 169.929864 68.060714 
L 167.993354 70.730778 
L 166.182909 73.593946 
L 164.511561 76.660637 
L 162.994652 79.945586 
L 161.644261 83.448127 
L 160.480539 87.191434 
L 159.525487 91.197629 
L 158.795919 95.468493 
L 158.349379 100.11008 
L 158.166864 105.016299 
L 158.342254 110.365429 
L 158.919842 116.189476 
L 159.968298 122.564466 
L 161.584605 129.6084 
L 163.89789 137.478995 
L 167.097132 146.41636 
L 171.438677 156.738212 
L 177.100152 168.569094 
L 187.267843 187.799623 
L 183.836147 183.258802 
L 176.813178 173.748077 
L 169.865916 165.064284 
L 163.782294 158.228239 
L 158.43702 152.900173 
L 153.777385 148.873312 
L 149.576981 145.748669 
L 145.813089 143.419644 
L 142.389443 141.705672 
L 139.266532 140.510343 
L 136.433689 139.778486 
L 133.841503 139.419809 
L 131.434862 139.3483 
L 129.263463 139.588989 
L 127.304313 140.094172 
L 125.53155 140.818295 
L 123.955121 141.751609 
L 122.584629 142.884036 
L 121.3896 144.173009 
L 120.417534 145.641386 
L 119.595338 147.216666 
L 119.010707 148.951976 
L 118.587762 150.777191 
L 118.415691 152.742131 
L 118.458769 154.806997 
L 118.722294 156.961839 
L 119.255041 159.222847 
L 120.018723 161.551845 
L 121.062281 163.963113 
L 122.390874 166.443642 
L 124.009224 168.980234 
L 125.967548 171.581921 
L 128.270826 174.232751 
L 130.876803 176.895788 
L 133.88241 179.597113 
L 137.14988 182.260347 
L 140.632321 184.855532 
L 147.176581 189.438839 
L 149.300406 191.145637 
L 149.902902 192.294343 
L 148.613658 192.867484 
L 145.55217 193.004828 
L 136.264538 192.863413 
L 131.069338 192.918251 
L 125.908455 193.160048 
L 120.937998 193.613346 
L 116.164312 194.268014 
L 111.745232 195.1351 
L 107.53523 196.177506 
L 103.641092 197.39531 
L 99.96624 198.763534 
L 96.56595 200.27488 
L 93.393248 201.913027 
L 90.400535 203.665124 
L 87.641953 205.523585 
L 85.018044 207.477187 
L 82.633455 209.518213 
L 80.388115 211.638892 
L 78.335014 213.830516 
L 76.394148 216.090045 
L 74.623155 218.408073 
L 72.992731 220.780338 
L 71.504007 223.200947 
L 70.1478 225.665413 
L 68.924933 228.168343 
L 67.825993 230.706108 
L 66.851553 233.273825 
L 66.002034 235.866607 
L 65.267739 238.481865 
L 64.6489 241.115238 
L 63.757847 246.418904 
L 63.313431 251.7476 
L 63.298741 257.073595 
L 63.70507 262.367657 
L 64.522078 267.601614 
L 65.747065 272.743946 
L 67.361685 277.770272 
L 69.368637 282.645371 
L 70.511932 285.019343 
L 73.086673 289.612362 
L 76.030195 293.976314 
L 77.637198 296.062012 
L 79.3365 298.074919 
L 81.125271 300.011468 
L 83.000571 301.868189 
L 84.963262 303.638415 
L 87.013869 305.315307 
L 89.148768 306.895284 
L 91.367958 308.371396 
L 93.674757 309.733 
L 96.068251 310.972687 
L 98.540045 312.090297 
L 101.099304 313.067379 
L 103.743762 313.896066 
L 106.467395 314.572293 
L 109.280467 315.072614 
L 112.175647 315.392507 
L 115.158036 315.511574 
L 118.228373 315.412878 
L 121.39238 315.070847 
L 124.65122 314.463369 
L 128.013258 313.555154 
L 131.481792 312.31421 
L 135.071625 310.686162 
L 138.8045 308.597561 
L 142.674259 306.012677 
L 146.732019 302.788153 
L 151.019144 298.776313 
L 155.61346 293.734488 
L 160.598683 287.367413 
L 166.168099 279.094392 
L 172.641445 267.945674 
L 180.77102 251.750084 
L 191.790722 226.716107 
L 196.725476 214.871144 
L 186.505411 243.354678 
L 179.894545 264.600706 
L 176.140076 279.567845 
L 174.009385 291.06175 
L 172.907798 300.437539 
L 172.549813 308.294574 
L 172.718243 315.148636 
L 173.32514 321.129093 
L 174.260524 326.519505 
L 175.4905 331.323323 
L 176.95615 335.691259 
L 178.627113 339.665912 
L 180.476337 343.291185 
L 182.480749 346.607069 
L 184.622447 349.634186 
L 186.884293 352.404041 
L 189.252956 354.928417 
L 191.716084 357.219583 
L 194.261964 359.300462 
L 196.880874 361.17906 
L 199.56375 362.858596 
L 202.301935 364.347702 
L 205.087451 365.655284 
L 207.912739 366.78539 
L 210.770935 367.747403 
L 213.655428 368.545809 
L 216.559422 369.180205 
L 219.476741 369.655484 
L 222.401569 369.976713 
L 225.327653 370.14407 
L 228.25053 370.168003 
L 231.162558 370.03896 
L 234.060729 369.772713 
L 236.938515 369.36508 
L 239.790307 368.817095 
L 242.610534 368.129971 
L 245.396484 367.314925 
L 248.141695 366.368486 
L 250.839412 365.287447 
L 253.489251 364.088214 
L 256.081411 362.758186 
L 258.614305 361.309144 
L 261.081337 359.738557 
L 263.477645 358.048888 
L 265.798448 356.242754 
L 268.041204 354.32756 
L 270.197057 352.296929 
L 272.265883 350.163157 
L 274.236287 347.915804 
L 276.108421 345.567429 
L 277.875501 343.117118 
L 279.533174 340.568659 
L 281.071788 337.917315 
L 282.489557 335.171732 
L 283.78227 332.336278 
L 284.937053 329.4029 
L 285.95532 326.384982 
L 286.82691 323.279313 
L 287.544397 320.08728 
L 288.100238 316.810645 
L 288.486793 313.451544 
L 288.696339 310.012502 
L 288.721081 306.496435 
L 288.549685 302.90292 
L 288.174068 299.235858 
L 287.578902 295.49234 
L 286.777773 291.69879 
L 285.69231 287.793369 
L 284.421898 283.883807 
L 282.849185 279.876111 
L 281.045844 275.848783 
L 278.969336 271.778563 
L 276.696011 267.739515 
L 274.184456 263.707923 
L 269.067115 256.143968 
L 266.770045 252.808406 
L 264.935965 249.9304 
L 263.889655 247.672474 
L 263.836524 246.096166 
L 264.810596 245.147472 
L 266.709867 244.696888 
L 269.289881 244.551229 
L 278.91737 244.480388 
L 282.21274 244.274889 
L 285.430194 243.925331 
L 288.517656 243.416898 
L 291.469616 242.756544 
L 294.328847 241.968862 
L 296.994571 241.025309 
L 299.558367 239.967408 
L 301.967664 238.785206 
L 306.503415 236.131584 
L 310.575999 233.106385 
L 314.262839 229.772432 
L 316.04395 228.015789 
L 319.271271 224.300982 
L 322.281484 220.375341 
L 325.048316 216.251923 
L 327.587095 211.947861 
L 328.769977 209.732491 
L 328.769977 209.732491 
" clip-path="url(#p1f69691cd3)" style="fill: none; stroke-dasharray: 5.55,2.4; stroke-dashoffset: 0; stroke: #0000ff; stroke-width: 1.5"/>
   </g>
   <g id="patch_3">
    <path d="M 365.88375 207.477187 
C 365.88375 185.636245 361.581561 164.007679 353.223394 143.829279 
C 344.865227 123.650879 332.613628 105.315066 317.16975 89.871188 
C 301.725871 74.427309 283.390058 62.17571 263.211658 53.817544 
C 243.033259 45.459377 221.404692 41.157187 199.56375 41.157187 
C 177.722808 41.157187 156.094241 45.459377 135.915842 53.817544 
C 115.737442 62.17571 97.401629 74.427309 81.95775 89.871188 
C 66.513872 105.315066 54.262273 123.650879 45.904106 143.829279 
C 37.545939 164.007679 33.24375 185.636245 33.24375 207.477187 
C 33.24375 229.31813 37.545939 250.946696 45.904106 271.125096 
C 54.262273 291.303496 66.513872 309.639309 81.95775 325.083187 
C 97.401629 340.527066 115.737442 352.778665 135.915842 361.136831 
C 156.094241 369.494998 177.722808 373.797188 199.56375 373.797188 
C 221.404692 373.797188 243.033259 369.494998 263.211658 361.136831 
C 283.390058 352.778665 301.725871 340.527066 317.16975 325.083187 
C 332.613628 309.639309 344.865227 291.303496 353.223394 271.125096 
C 361.581561 250.946696 365.88375 229.31813 365.88375 207.477188 
" style="fill: none; stroke: #000000; stroke-width: 0.8; stroke-linejoin: miter; stroke-linecap: square"/>
   </g>
   <g id="text_19">
    <!-- Radiation Diagram - 1AVVF09 -->
    <g transform="translate(110.727187 16.318125)scale(0.12 -0.12)">
     <defs>
      <path id="DejaVuSans-52" d="M 2841 2188 
Q 3044 2119 3236 1894 
Q 3428 1669 3622 1275 
L 4263 0 
L 3584 0 
L 2988 1197 
Q 2756 1666 2539 1819 
Q 2322 1972 1947 1972 
L 1259 1972 
L 1259 0 
L 628 0 
L 628 4666 
L 2053 4666 
Q 2853 4666 3247 4331 
Q 3641 3997 3641 3322 
Q 3641 2881 3436 2590 
Q 3231 2300 2841 2188 
z
M 1259 4147 
L 1259 2491 
L 2053 2491 
Q 2509 2491 2742 2702 
Q 2975 2913 2975 3322 
Q 2975 3731 2742 3939 
Q 2509 4147 2053 4147 
L 1259 4147 
z
" transform="scale(0.015625)"/>
      <path id="DejaVuSans-61" d="M 2194 1759 
Q 1497 1759 1228 1600 
Q 959 1441 959 1056 
Q 959 750 1161 570 
Q 1363 391 1709 391 
Q 2188 391 2477 730 
Q 2766 1069 2766 1631 
L 2766 1759 
L 2194 1759 
z
M 3341 1997 
L 3341 0 
L 2766 0 
L 2766 531 
Q 2569 213 2275 61 
Q 1981 -91 1556 -91 
Q 1019 -91 701 211 
Q 384 513 384 1019 
Q 384 1609 779 1909 
Q 1175 2209 1959 2209 
L 2766 2209 
L 2766 2266 
Q 2766 2663 2505 2880 
Q 2244 3097 1772 3097 
Q 1472 3097 1187 3025 
Q 903 2953 641 2809 
L 641 3341 
Q 956 3463 1253 3523 
Q 1550 3584 1831 3584 
Q 2591 3584 2966 3190 
Q 3341 2797 3341 1997 
z
" transform="scale(0.015625)"/>
      <path id="DejaVuSans-64" d="M 2906 2969 
L 2906 4863 
L 3481 4863 
L 3481 0 
L 2906 0 
L 2906 525 
Q 2725 213 2448 61 
Q 2172 -91 1784 -91 
Q 1150 -91 751 415 
Q 353 922 353 1747 
Q 353 2572 751 3078 
Q 1150 3584 1784 3584 
Q 2172 3584 2448 3432 
Q 2725 3281 2906 2969 
z
M 947 1747 
Q 947 1113 1208 752 
Q 1469 391 1925 391 
Q 2381 391 2643 752 
Q 2906 1113 2906 1747 
Q 2906 2381 2643 2742 
Q 2381 3103 1925 3103 
Q 1469 3103 1208 2742 
Q 947 2381 947 1747 
z
" transform="scale(0.015625)"/>
      <path id="DejaVuSans-69" d="M 603 3500 
L 1178 3500 
L 1178 0 
L 603 0 
L 603 3500 
z
M 603 4863 
L 1178 4863 
L 1178 4134 
L 603 4134 
L 603 4863 
z
" transform="scale(0.015625)"/>
      <path id="DejaVuSans-74" d="M 1172 4494 
L 1172 3500 
L 2356 3500 
L 2356 3053 
L 1172 3053 
L 1172 1153 
Q 1172 725 1289 603 
Q 1406 481 1766 481 
L 2356 481 
L 2356 0 
L 1766 0 
Q 1100 0 847 248 
Q 594 497 594 1153 
L 594 3053 
L 172 3053 
L 172 3500 
L 594 3500 
L 594 4494 
L 1172 4494 
z
" transform="scale(0.015625)"/>
      <path id="DejaVuSans-6f" d="M 1959 3097 
Q 1497 3097 1228 2736 
Q 959 2375 959 1747 
Q 959 1119 1226 758 
Q 1494 397 1959 397 
Q 2419 397 2687 759 
Q 2956 1122 2956 1747 
Q 2956 2369 2687 2733 
Q 2419 3097 1959 3097 
z
M 1959 3584 
Q 2709 3584 3137 3096 
Q 3566 2609 3566 1747 
Q 3566 888 3137 398 
Q 2709 -91 1959 -91 
Q 1206 -91 779 398 
Q 353 888 353 1747 
Q 353 2609 779 3096 
Q 1206 3584 1959 3584 
z
" transform="scale(0.015625)"/>
      <path id="DejaVuSans-6e" d="M 3513 2113 
L 3513 0 
L 2938 0 
L 2938 2094 
Q 2938 2591 2744 2837 
Q 2550 3084 2163 3084 
Q 1697 3084 1428 2787 
Q 1159 2491 1159 1978 
L 1159 0 
L 581 0 
L 581 3500 
L 1159 3500 
L 1159 2956 
Q 1366 3272 1645 3428 
Q 1925 3584 2291 3584 
Q 2894 3584 3203 3211 
Q 3513 2838 3513 2113 
z
" transform="scale(0.015625)"/>
      <path id="DejaVuSans-20" transform="scale(0.015625)"/>
      <path id="DejaVuSans-44" d="M 1259 4147 
L 1259 519 
L 2022 519 
Q 2988 519 3436 956 
Q 3884 1394 3884 2338 
Q 3884 3275 3436 3711 
Q 2988 4147 2022 4147 
L 1259 4147 
z
M 628 4666 
L 1925 4666 
Q 3281 4666 3915 4102 
Q 4550 3538 4550 2338 
Q 4550 1131 3912 565 
Q 3275 0 1925 0 
L 628 0 
L 628 4666 
z
" transform="scale(0.015625)"/>
      <path id="DejaVuSans-67" d="M 2906 1791 
Q 2906 2416 2648 2759 
Q 2391 3103 1925 3103 
Q 1463 3103 1205 2759 
Q 947 2416 947 1791 
Q 947 1169 1205 825 
Q 1463 481 1925 481 
Q 2391 481 2648 825 
Q 2906 1169 2906 1791 
z
M 3481 434 
Q 3481 -459 3084 -895 
Q 2688 -1331 1869 -1331 
Q 1566 -1331 1297 -1286 
Q 1028 -1241 775 -1147 
L 775 -588 
Q 1028 -725 1275 -790 
Q 1522 -856 1778 -856 
Q 2344 -856 2625 -561 
Q 2906 -266 2906 331 
L 2906 616 
Q 2728 306 2450 153 
Q 2172 0 1784 0 
Q 1141 0 747 490 
Q 353 981 353 1791 
Q 353 2603 747 3093 
Q 1141 3584 1784 3584 
Q 2172 3584 2450 3431 
Q 2728 3278 2906 2969 
L 2906 3500 
L 3481 3500 
L 3481 434 
z
" transform="scale(0.015625)"/>
      <path id="DejaVuSans-72" d="M 2631 2963 
Q 2534 3019 2420 3045 
Q 2306 3072 2169 3072 
Q 1681 3072 1420 2755 
Q 1159 2438 1159 1844 
L 1159 0 
L 581 0 
L 581 3500 
L 1159 3500 
L 1159 2956 
Q 1341 3275 1631 3429 
Q 1922 3584 2338 3584 
Q 2397 3584 2469 3576 
Q 2541 3569 2628 3553 
L 2631 2963 
z
" transform="scale(0.015625)"/>
      <path id="DejaVuSans-6d" d="M 3328 2828 
Q 3544 3216 3844 3400 
Q 4144 3584 4550 3584 
Q 5097 3584 5394 3201 
Q 5691 2819 5691 2113 
L 5691 0 
L 5113 0 
L 5113 2094 
Q 5113 2597 4934 2840 
Q 4756 3084 4391 3084 
Q 3944 3084 3684 2787 
Q 3425 2491 3425 1978 
L 3425 0 
L 2847 0 
L 2847 2094 
Q 2847 2600 2669 2842 
Q 2491 3084 2119 3084 
Q 1678 3084 1418 2786 
Q 1159 2488 1159 1978 
L 1159 0 
L 581 0 
L 581 3500 
L 1159 3500 
L 1159 2956 
Q 1356 3278 1631 3431 
Q 1906 3584 2284 3584 
Q 2666 3584 2933 3390 
Q 3200 3197 3328 2828 
z
" transform="scale(0.015625)"/>
      <path id="DejaVuSans-2d" d="M 313 2009 
L 1997 2009 
L 1997 1497 
L 313 1497 
L 313 2009 
z
" transform="scale(0.015625)"/>
      <path id="DejaVuSans-41" d="M 2188 4044 
L 1331 1722 
L 3047 1722 
L 2188 4044 
z
M 1831 4666 
L 2547 4666 
L 4325 0 
L 3669 0 
L 3244 1197 
L 1141 1197 
L 716 0 
L 50 0 
L 1831 4666 
z
" transform="scale(0.015625)"/>
      <path id="DejaVuSans-56" d="M 1831 0 
L 50 4666 
L 709 4666 
L 2188 738 
L 3669 4666 
L 4325 4666 
L 2547 0 
L 1831 0 
z
" transform="scale(0.015625)"/>
      <path id="DejaVuSans-46" d="M 628 4666 
L 3309 4666 
L 3309 4134 
L 1259 4134 
L 1259 2759 
L 3109 2759 
L 3109 2228 
L 1259 2228 
L 1259 0 
L 628 0 
L 628 4666 
z
" transform="scale(0.015625)"/>
     </defs>
     <use xlink:href="#DejaVuSans-52"/>
     <use xlink:href="#DejaVuSans-61" x="67.232422"/>
     <use xlink:href="#DejaVuSans-64" x="128.511719"/>
     <use xlink:href="#DejaVuSans-69" x="191.988281"/>
     <use xlink:href="#DejaVuSans-61" x="219.771484"/>
     <use xlink:href="#DejaVuSans-74" x="281.050781"/>
     <use xlink:href="#DejaVuSans-69" x="320.259766"/>
     <use xlink:href="#DejaVuSans-6f" x="348.042969"/>
     <use xlink:href="#DejaVuSans-6e" x="409.224609"/>
     <use xlink:href="#DejaVuSans-20" x="472.603516"/>
     <use xlink:href="#DejaVuSans-44" x="504.390625"/>
     <use xlink:href="#DejaVuSans-69" x="581.392578"/>
     <use xlink:href="#DejaVuSans-61" x="609.175781"/>
     <use xlink:href="#DejaVuSans-67" x="670.455078"/>
     <use xlink:href="#DejaVuSans-72" x="733.931641"/>
     <use xlink:href="#DejaVuSans-61" x="775.044922"/>
     <use xlink:href="#DejaVuSans-6d" x="836.324219"/>
     <use xlink:href="#DejaVuSans-20" x="933.736328"/>
     <use xlink:href="#DejaVuSans-2d" x="965.523438"/>
     <use xlink:href="#DejaVuSans-20" x="1001.607422"/>
     <use xlink:href="#DejaVuSans-31" x="1033.394531"/>
     <use xlink:href="#DejaVuSans-41" x="1097.017578"/>
     <use xlink:href="#DejaVuSans-56" x="1159.050781"/>
     <use xlink:href="#DejaVuSans-56" x="1227.458984"/>
     <use xlink:href="#DejaVuSans-46" x="1295.867188"/>
     <use xlink:href="#DejaVuSans-30" x="1353.386719"/>
     <use xlink:href="#DejaVuSans-39" x="1417.009766"/>
    </g>
   </g>
   <g id="legend_1">
    <g id="patch_4">
     <path d="M 304.104062 78.513437 
L 358.88375 78.513437 
Q 360.88375 78.513437 360.88375 76.513437 
L 360.88375 48.157187 
Q 360.88375 46.157187 358.88375 46.157187 
L 304.104062 46.157187 
Q 302.104062 46.157187 302.104062 48.157187 
L 302.104062 76.513437 
Q 302.104062 78.513437 304.104062 78.513437 
z
" style="fill: #ffffff; opacity: 0.8; stroke: #cccccc; stroke-linejoin: miter"/>
    </g>
    <g id="line2d_21">
     <path d="M 306.104062 54.255625 
L 316.104062 54.255625 
L 326.104062 54.255625 
" style="fill: none; stroke: #ff0000; stroke-width: 1.5; stroke-linecap: square"/>
    </g>
    <g id="text_20">
     <!-- INPE -->
     <g transform="translate(334.104062 57.755625)scale(0.1 -0.1)">
      <defs>
       <path id="DejaVuSans-49" d="M 628 4666 
L 1259 4666 
L 1259 0 
L 628 0 
L 628 4666 
z
" transform="scale(0.015625)"/>
       <path id="DejaVuSans-4e" d="M 628 4666 
L 1478 4666 
L 3547 763 
L 3547 4666 
L 4159 4666 
L 4159 0 
L 3309 0 
L 1241 3903 
L 1241 0 
L 628 0 
L 628 4666 
z
" transform="scale(0.015625)"/>
       <path id="DejaVuSans-50" d="M 1259 4147 
L 1259 2394 
L 2053 2394 
Q 2494 2394 2734 2622 
Q 2975 2850 2975 3272 
Q 2975 3691 2734 3919 
Q 2494 4147 2053 4147 
L 1259 4147 
z
M 628 4666 
L 2053 4666 
Q 2838 4666 3239 4311 
Q 3641 3956 3641 3272 
Q 3641 2581 3239 2228 
Q 2838 1875 2053 1875 
L 1259 1875 
L 1259 0 
L 628 0 
L 628 4666 
z
" transform="scale(0.015625)"/>
       <path id="DejaVuSans-45" d="M 628 4666 
L 3578 4666 
L 3578 4134 
L 1259 4134 
L 1259 2753 
L 3481 2753 
L 3481 2222 
L 1259 2222 
L 1259 531 
L 3634 531 
L 3634 0 
L 628 0 
L 628 4666 
z
" transform="scale(0.015625)"/>
      </defs>
      <use xlink:href="#DejaVuSans-49"/>
      <use xlink:href="#DejaVuSans-4e" x="29.492188"/>
      <use xlink:href="#DejaVuSans-50" x="104.296875"/>
      <use xlink:href="#DejaVuSans-45" x="164.599609"/>
     </g>
    </g>
    <g id="line2d_22">
     <path d="M 306.104062 68.93375 
L 316.104062 68.93375 
L 326.104062 68.93375 
" style="fill: none; stroke-dasharray: 5.55,2.4; stroke-dashoffset: 0; stroke: #0000ff; stroke-width: 1.5"/>
    </g>
    <g id="text_21">
     <!-- CST -->
     <g transform="translate(334.104062 72.43375)scale(0.1 -0.1)">
      <defs>
       <path id="DejaVuSans-43" d="M 4122 4306 
L 4122 3641 
Q 3803 3938 3442 4084 
Q 3081 4231 2675 4231 
Q 1875 4231 1450 3742 
Q 1025 3253 1025 2328 
Q 1025 1406 1450 917 
Q 1875 428 2675 428 
Q 3081 428 3442 575 
Q 3803 722 4122 1019 
L 4122 359 
Q 3791 134 3420 21 
Q 3050 -91 2638 -91 
Q 1578 -91 968 557 
Q 359 1206 359 2328 
Q 359 3453 968 4101 
Q 1578 4750 2638 4750 
Q 3056 4750 3426 4639 
Q 3797 4528 4122 4306 
z
" transform="scale(0.015625)"/>
       <path id="DejaVuSans-53" d="M 3425 4513 
L 3425 3897 
Q 3066 4069 2747 4153 
Q 2428 4238 2131 4238 
Q 1616 4238 1336 4038 
Q 1056 3838 1056 3469 
Q 1056 3159 1242 3001 
Q 1428 2844 1947 2747 
L 2328 2669 
Q 3034 2534 3370 2195 
Q 3706 1856 3706 1288 
Q 3706 609 3251 259 
Q 2797 -91 1919 -91 
Q 1588 -91 1214 -16 
Q 841 59 441 206 
L 441 856 
Q 825 641 1194 531 
Q 1563 422 1919 422 
Q 2459 422 2753 634 
Q 3047 847 3047 1241 
Q 3047 1584 2836 1778 
Q 2625 1972 2144 2069 
L 1759 2144 
Q 1053 2284 737 2584 
Q 422 2884 422 3419 
Q 422 4038 858 4394 
Q 1294 4750 2059 4750 
Q 2388 4750 2728 4690 
Q 3069 4631 3425 4513 
z
" transform="scale(0.015625)"/>
       <path id="DejaVuSans-54" d="M -19 4666 
L 3928 4666 
L 3928 4134 
L 2272 4134 
L 2272 0 
L 1638 0 
L 1638 4134 
L -19 4134 
L -19 4666 
z
" transform="scale(0.015625)"/>
      </defs>
      <use xlink:href="#DejaVuSans-43"/>
      <use xlink:href="#DejaVuSans-53" x="69.824219"/>
      <use xlink:href="#DejaVuSans-54" x="133.300781"/>
     </g>
    </g>
   </g>
  </g>
 </g>
 <defs>
  <clipPath id="p1f69691cd3">
   <path d="M 365.88375 207.477187 
C 365.88375 185.636245 361.581561 164.007679 353.223394 143.829279 
C 344.865227 123.650879 332.613628 105.315066 317.16975 89.871188 
C 301.725871 74.427309 283.390058 62.17571 263.211658 53.817544 
C 243.033259 45.459377 221.404692 41.157187 199.56375 41.157187 
C 177.722808 41.157187 156.094241 45.459377 135.915842 53.817544 
C 115.737442 62.17571 97.401629 74.427309 81.95775 89.871188 
C 66.513872 105.315066 54.262273 123.650879 45.904106 143.829279 
C 37.545939 164.007679 33.24375 185.636245 33.24375 207.477187 
C 33.24375 229.31813 37.545939 250.946696 45.904106 271.125096 
C 54.262273 291.303496 66.513872 309.639309 81.95775 325.083187 
C 97.401629 340.527066 115.737442 352.778665 135.915842 361.136831 
C 156.094241 369.494998 177.722808 373.797188 199.56375 373.797188 
C 221.404692 373.797188 243.033259 369.494998 263.211658 361.136831 
C 283.390058 352.778665 301.725871 340.527066 317.16975 325.083187 
C 332.613628 309.639309 344.865227 291.303496 353.223394 271.125096 
C 361.581561 250.946696 365.88375 229.31813 365.88375 207.477188 
M 199.56375 207.477187 
C 199.56375 207.477187 199.56375 207.477187 199.56375 207.477187 
C 199.56375 207.477187 199.56375 207.477187 199.56375 207.477187 
C 199.56375 207.477187 199.56375 207.477187 199.56375 207.477187 
C 199.56375 207.477187 199.56375 207.477187 199.56375 207.477187 
C 199.56375 207.477187 199.56375 207.477187 199.56375 207.477187 
C 199.56375 207.477187 199.56375 207.477187 199.56375 207.477187 
C 199.56375 207.477187 199.56375 207.477187 199.56375 207.477187 
C 199.56375 207.477187 199.56375 207.477187 199.56375 207.477187 
C 199.56375 207.477187 199.56375 207.477187 199.56375 207.477187 
C 199.56375 207.477187 199.56375 207.477187 199.56375 207.477187 
C 199.56375 207.477187 199.56375 207.477187 199.56375 207.477187 
C 199.56375 207.477187 199.56375 207.477187 199.56375 207.477187 
C 199.56375 207.477187 199.56375 207.477187 199.56375 207.477187 
C 199.56375 207.477187 199.56375 207.477187 199.56375 207.477187 
C 199.56375 207.477187 199.56375 207.477187 199.56375 207.477187 
C 199.56375 207.477187 199.56375 207.477187 199.56375 207.477187 
M 365.88375 207.477187 
z
"/>
  </clipPath>
 </defs>
</svg>
