<?xml version="1.0" encoding="utf-8" standalone="no"?>
<!DOCTYPE svg PUBLIC "-//W3C//DTD SVG 1.1//EN"
  "http://www.w3.org/Graphics/SVG/1.1/DTD/svg11.dtd">
<svg xmlns:xlink="http://www.w3.org/1999/xlink" width="392.765pt" height="399.83625pt" viewBox="0 0 392.765 399.83625" xmlns="http://www.w3.org/2000/svg" version="1.1">
 <metadata>
  <rdf:RDF xmlns:dc="http://purl.org/dc/elements/1.1/" xmlns:cc="http://creativecommons.org/ns#" xmlns:rdf="http://www.w3.org/1999/02/22-rdf-syntax-ns#">
   <cc:Work>
    <dc:type rdf:resource="http://purl.org/dc/dcmitype/StillImage"/>
    <dc:date>2023-11-01T15:03:11.108355</dc:date>
    <dc:format>image/svg+xml</dc:format>
    <dc:creator>
     <cc:Agent>
      <dc:title>Matplotlib v3.5.1, https://matplotlib.org/</dc:title>
     </cc:Agent>
    </dc:creator>
   </cc:Work>
  </rdf:RDF>
 </metadata>
 <defs>
  <style type="text/css">*{stroke-linejoin: round; stroke-linecap: butt}</style>
 </defs>
 <g id="figure_1">
  <g id="patch_1">
   <path d="M 0 399.83625 
L 392.765 399.83625 
L 392.765 0 
L 0 0 
z
" style="fill: #ffffff"/>
  </g>
  <g id="axes_1">
   <g id="patch_2">
    <path d="M 365.88375 207.477187 
C 365.88375 185.636245 361.581561 164.007679 353.223394 143.829279 
C 344.865227 123.650879 332.613628 105.315066 317.16975 89.871188 
C 301.725871 74.427309 283.390058 62.17571 263.211658 53.817544 
C 243.033259 45.459377 221.404692 41.157187 199.56375 41.157187 
C 177.722808 41.157187 156.094241 45.459377 135.915842 53.817544 
C 115.737442 62.17571 97.401629 74.427309 81.95775 89.871188 
C 66.513872 105.315066 54.262273 123.650879 45.904106 143.829279 
C 37.545939 164.007679 33.24375 185.636245 33.24375 207.477187 
C 33.24375 229.31813 37.545939 250.946696 45.904106 271.125096 
C 54.262273 291.303496 66.513872 309.639309 81.95775 325.083187 
C 97.401629 340.527066 115.737442 352.778665 135.915842 361.136831 
C 156.094241 369.494998 177.722808 373.797188 199.56375 373.797188 
C 221.404692 373.797188 243.033259 369.494998 263.211658 361.136831 
C 283.390058 352.778665 301.725871 340.527066 317.16975 325.083187 
C 332.613628 309.639309 344.865227 291.303496 353.223394 271.125096 
C 361.581561 250.946696 365.88375 229.31813 365.88375 207.477188 
M 199.56375 207.477187 
C 199.56375 207.477187 199.56375 207.477187 199.56375 207.477187 
C 199.56375 207.477187 199.56375 207.477187 199.56375 207.477187 
C 199.56375 207.477187 199.56375 207.477187 199.56375 207.477187 
C 199.56375 207.477187 199.56375 207.477187 199.56375 207.477187 
C 199.56375 207.477187 199.56375 207.477187 199.56375 207.477187 
C 199.56375 207.477187 199.56375 207.477187 199.56375 207.477187 
C 199.56375 207.477187 199.56375 207.477187 199.56375 207.477187 
C 199.56375 207.477187 199.56375 207.477187 199.56375 207.477187 
C 199.56375 207.477187 199.56375 207.477187 199.56375 207.477187 
C 199.56375 207.477187 199.56375 207.477187 199.56375 207.477187 
C 199.56375 207.477187 199.56375 207.477187 199.56375 207.477187 
C 199.56375 207.477187 199.56375 207.477187 199.56375 207.477187 
C 199.56375 207.477187 199.56375 207.477187 199.56375 207.477187 
C 199.56375 207.477187 199.56375 207.477187 199.56375 207.477187 
C 199.56375 207.477187 199.56375 207.477187 199.56375 207.477187 
C 199.56375 207.477187 199.56375 207.477187 199.56375 207.477187 
M 365.88375 207.477187 
z
" style="fill: #ffffff"/>
   </g>
   <g id="matplotlib.axis_1">
    <g id="xtick_1">
     <g id="line2d_1">
      <path d="M 199.56375 207.477187 
L 365.88375 207.477187 
" clip-path="url(#pa9415164b8)" style="fill: none; stroke: #b0b0b0; stroke-width: 0.8; stroke-linecap: square"/>
     </g>
     <g id="text_1">
      <!-- 0° -->
      <g transform="translate(374.2025 210.236562)scale(0.1 -0.1)">
       <defs>
        <path id="DejaVuSans-30" d="M 2034 4250 
Q 1547 4250 1301 3770 
Q 1056 3291 1056 2328 
Q 1056 1369 1301 889 
Q 1547 409 2034 409 
Q 2525 409 2770 889 
Q 3016 1369 3016 2328 
Q 3016 3291 2770 3770 
Q 2525 4250 2034 4250 
z
M 2034 4750 
Q 2819 4750 3233 4129 
Q 3647 3509 3647 2328 
Q 3647 1150 3233 529 
Q 2819 -91 2034 -91 
Q 1250 -91 836 529 
Q 422 1150 422 2328 
Q 422 3509 836 4129 
Q 1250 4750 2034 4750 
z
" transform="scale(0.015625)"/>
        <path id="DejaVuSans-b0" d="M 1600 4347 
Q 1350 4347 1178 4173 
Q 1006 4000 1006 3750 
Q 1006 3503 1178 3333 
Q 1350 3163 1600 3163 
Q 1850 3163 2022 3333 
Q 2194 3503 2194 3750 
Q 2194 3997 2020 4172 
Q 1847 4347 1600 4347 
z
M 1600 4750 
Q 1800 4750 1984 4673 
Q 2169 4597 2303 4453 
Q 2447 4313 2519 4134 
Q 2591 3956 2591 3750 
Q 2591 3338 2302 3052 
Q 2013 2766 1594 2766 
Q 1172 2766 890 3047 
Q 609 3328 609 3750 
Q 609 4169 896 4459 
Q 1184 4750 1600 4750 
z
" transform="scale(0.015625)"/>
       </defs>
       <use xlink:href="#DejaVuSans-30"/>
       <use xlink:href="#DejaVuSans-b0" x="63.623047"/>
      </g>
     </g>
    </g>
    <g id="xtick_2">
     <g id="line2d_2">
      <path d="M 199.56375 207.477187 
L 317.16975 89.871188 
" clip-path="url(#pa9415164b8)" style="fill: none; stroke: #b0b0b0; stroke-width: 0.8; stroke-linecap: square"/>
     </g>
     <g id="text_2">
      <!-- 45° -->
      <g transform="translate(318.206745 82.731068)scale(0.1 -0.1)">
       <defs>
        <path id="DejaVuSans-34" d="M 2419 4116 
L 825 1625 
L 2419 1625 
L 2419 4116 
z
M 2253 4666 
L 3047 4666 
L 3047 1625 
L 3713 1625 
L 3713 1100 
L 3047 1100 
L 3047 0 
L 2419 0 
L 2419 1100 
L 313 1100 
L 313 1709 
L 2253 4666 
z
" transform="scale(0.015625)"/>
        <path id="DejaVuSans-35" d="M 691 4666 
L 3169 4666 
L 3169 4134 
L 1269 4134 
L 1269 2991 
Q 1406 3038 1543 3061 
Q 1681 3084 1819 3084 
Q 2600 3084 3056 2656 
Q 3513 2228 3513 1497 
Q 3513 744 3044 326 
Q 2575 -91 1722 -91 
Q 1428 -91 1123 -41 
Q 819 9 494 109 
L 494 744 
Q 775 591 1075 516 
Q 1375 441 1709 441 
Q 2250 441 2565 725 
Q 2881 1009 2881 1497 
Q 2881 1984 2565 2268 
Q 2250 2553 1709 2553 
Q 1456 2553 1204 2497 
Q 953 2441 691 2322 
L 691 4666 
z
" transform="scale(0.015625)"/>
       </defs>
       <use xlink:href="#DejaVuSans-34"/>
       <use xlink:href="#DejaVuSans-35" x="63.623047"/>
       <use xlink:href="#DejaVuSans-b0" x="127.246094"/>
      </g>
     </g>
    </g>
    <g id="xtick_3">
     <g id="line2d_3">
      <path d="M 199.56375 207.477187 
L 199.56375 41.157187 
" clip-path="url(#pa9415164b8)" style="fill: none; stroke: #b0b0b0; stroke-width: 0.8; stroke-linecap: square"/>
     </g>
     <g id="text_3">
      <!-- 90° -->
      <g transform="translate(190.70125 29.916562)scale(0.1 -0.1)">
       <defs>
        <path id="DejaVuSans-39" d="M 703 97 
L 703 672 
Q 941 559 1184 500 
Q 1428 441 1663 441 
Q 2288 441 2617 861 
Q 2947 1281 2994 2138 
Q 2813 1869 2534 1725 
Q 2256 1581 1919 1581 
Q 1219 1581 811 2004 
Q 403 2428 403 3163 
Q 403 3881 828 4315 
Q 1253 4750 1959 4750 
Q 2769 4750 3195 4129 
Q 3622 3509 3622 2328 
Q 3622 1225 3098 567 
Q 2575 -91 1691 -91 
Q 1453 -91 1209 -44 
Q 966 3 703 97 
z
M 1959 2075 
Q 2384 2075 2632 2365 
Q 2881 2656 2881 3163 
Q 2881 3666 2632 3958 
Q 2384 4250 1959 4250 
Q 1534 4250 1286 3958 
Q 1038 3666 1038 3163 
Q 1038 2656 1286 2365 
Q 1534 2075 1959 2075 
z
" transform="scale(0.015625)"/>
       </defs>
       <use xlink:href="#DejaVuSans-39"/>
       <use xlink:href="#DejaVuSans-30" x="63.623047"/>
       <use xlink:href="#DejaVuSans-b0" x="127.246094"/>
      </g>
     </g>
    </g>
    <g id="xtick_4">
     <g id="line2d_4">
      <path d="M 199.56375 207.477187 
L 81.95775 89.871188 
" clip-path="url(#pa9415164b8)" style="fill: none; stroke: #b0b0b0; stroke-width: 0.8; stroke-linecap: square"/>
     </g>
     <g id="text_4">
      <!-- 135° -->
      <g transform="translate(60.014505 82.731068)scale(0.1 -0.1)">
       <defs>
        <path id="DejaVuSans-31" d="M 794 531 
L 1825 531 
L 1825 4091 
L 703 3866 
L 703 4441 
L 1819 4666 
L 2450 4666 
L 2450 531 
L 3481 531 
L 3481 0 
L 794 0 
L 794 531 
z
" transform="scale(0.015625)"/>
        <path id="DejaVuSans-33" d="M 2597 2516 
Q 3050 2419 3304 2112 
Q 3559 1806 3559 1356 
Q 3559 666 3084 287 
Q 2609 -91 1734 -91 
Q 1441 -91 1130 -33 
Q 819 25 488 141 
L 488 750 
Q 750 597 1062 519 
Q 1375 441 1716 441 
Q 2309 441 2620 675 
Q 2931 909 2931 1356 
Q 2931 1769 2642 2001 
Q 2353 2234 1838 2234 
L 1294 2234 
L 1294 2753 
L 1863 2753 
Q 2328 2753 2575 2939 
Q 2822 3125 2822 3475 
Q 2822 3834 2567 4026 
Q 2313 4219 1838 4219 
Q 1578 4219 1281 4162 
Q 984 4106 628 3988 
L 628 4550 
Q 988 4650 1302 4700 
Q 1616 4750 1894 4750 
Q 2613 4750 3031 4423 
Q 3450 4097 3450 3541 
Q 3450 3153 3228 2886 
Q 3006 2619 2597 2516 
z
" transform="scale(0.015625)"/>
       </defs>
       <use xlink:href="#DejaVuSans-31"/>
       <use xlink:href="#DejaVuSans-33" x="63.623047"/>
       <use xlink:href="#DejaVuSans-35" x="127.246094"/>
       <use xlink:href="#DejaVuSans-b0" x="190.869141"/>
      </g>
     </g>
    </g>
    <g id="xtick_5">
     <g id="line2d_5">
      <path d="M 199.56375 207.477187 
L 33.24375 207.477187 
" clip-path="url(#pa9415164b8)" style="fill: none; stroke: #b0b0b0; stroke-width: 0.8; stroke-linecap: square"/>
     </g>
     <g id="text_5">
      <!-- 180° -->
      <g transform="translate(7.2 210.236562)scale(0.1 -0.1)">
       <defs>
        <path id="DejaVuSans-38" d="M 2034 2216 
Q 1584 2216 1326 1975 
Q 1069 1734 1069 1313 
Q 1069 891 1326 650 
Q 1584 409 2034 409 
Q 2484 409 2743 651 
Q 3003 894 3003 1313 
Q 3003 1734 2745 1975 
Q 2488 2216 2034 2216 
z
M 1403 2484 
Q 997 2584 770 2862 
Q 544 3141 544 3541 
Q 544 4100 942 4425 
Q 1341 4750 2034 4750 
Q 2731 4750 3128 4425 
Q 3525 4100 3525 3541 
Q 3525 3141 3298 2862 
Q 3072 2584 2669 2484 
Q 3125 2378 3379 2068 
Q 3634 1759 3634 1313 
Q 3634 634 3220 271 
Q 2806 -91 2034 -91 
Q 1263 -91 848 271 
Q 434 634 434 1313 
Q 434 1759 690 2068 
Q 947 2378 1403 2484 
z
M 1172 3481 
Q 1172 3119 1398 2916 
Q 1625 2713 2034 2713 
Q 2441 2713 2670 2916 
Q 2900 3119 2900 3481 
Q 2900 3844 2670 4047 
Q 2441 4250 2034 4250 
Q 1625 4250 1398 4047 
Q 1172 3844 1172 3481 
z
" transform="scale(0.015625)"/>
       </defs>
       <use xlink:href="#DejaVuSans-31"/>
       <use xlink:href="#DejaVuSans-38" x="63.623047"/>
       <use xlink:href="#DejaVuSans-30" x="127.246094"/>
       <use xlink:href="#DejaVuSans-b0" x="190.869141"/>
      </g>
     </g>
    </g>
    <g id="xtick_6">
     <g id="line2d_6">
      <path d="M 199.56375 207.477187 
L 81.95775 325.083187 
" clip-path="url(#pa9415164b8)" style="fill: none; stroke: #b0b0b0; stroke-width: 0.8; stroke-linecap: square"/>
     </g>
     <g id="text_6">
      <!-- 225° -->
      <g transform="translate(60.014505 337.742057)scale(0.1 -0.1)">
       <defs>
        <path id="DejaVuSans-32" d="M 1228 531 
L 3431 531 
L 3431 0 
L 469 0 
L 469 531 
Q 828 903 1448 1529 
Q 2069 2156 2228 2338 
Q 2531 2678 2651 2914 
Q 2772 3150 2772 3378 
Q 2772 3750 2511 3984 
Q 2250 4219 1831 4219 
Q 1534 4219 1204 4116 
Q 875 4013 500 3803 
L 500 4441 
Q 881 4594 1212 4672 
Q 1544 4750 1819 4750 
Q 2544 4750 2975 4387 
Q 3406 4025 3406 3419 
Q 3406 3131 3298 2873 
Q 3191 2616 2906 2266 
Q 2828 2175 2409 1742 
Q 1991 1309 1228 531 
z
" transform="scale(0.015625)"/>
       </defs>
       <use xlink:href="#DejaVuSans-32"/>
       <use xlink:href="#DejaVuSans-32" x="63.623047"/>
       <use xlink:href="#DejaVuSans-35" x="127.246094"/>
       <use xlink:href="#DejaVuSans-b0" x="190.869141"/>
      </g>
     </g>
    </g>
    <g id="xtick_7">
     <g id="line2d_7">
      <path d="M 199.56375 207.477187 
L 199.56375 373.797188 
" clip-path="url(#pa9415164b8)" style="fill: none; stroke: #b0b0b0; stroke-width: 0.8; stroke-linecap: square"/>
     </g>
     <g id="text_7">
      <!-- 270° -->
      <g transform="translate(187.52 390.556562)scale(0.1 -0.1)">
       <defs>
        <path id="DejaVuSans-37" d="M 525 4666 
L 3525 4666 
L 3525 4397 
L 1831 0 
L 1172 0 
L 2766 4134 
L 525 4134 
L 525 4666 
z
" transform="scale(0.015625)"/>
       </defs>
       <use xlink:href="#DejaVuSans-32"/>
       <use xlink:href="#DejaVuSans-37" x="63.623047"/>
       <use xlink:href="#DejaVuSans-30" x="127.246094"/>
       <use xlink:href="#DejaVuSans-b0" x="190.869141"/>
      </g>
     </g>
    </g>
    <g id="xtick_8">
     <g id="line2d_8">
      <path d="M 199.56375 207.477187 
L 317.16975 325.083187 
" clip-path="url(#pa9415164b8)" style="fill: none; stroke: #b0b0b0; stroke-width: 0.8; stroke-linecap: square"/>
     </g>
     <g id="text_8">
      <!-- 315° -->
      <g transform="translate(315.025495 337.742057)scale(0.1 -0.1)">
       <use xlink:href="#DejaVuSans-33"/>
       <use xlink:href="#DejaVuSans-31" x="63.623047"/>
       <use xlink:href="#DejaVuSans-35" x="127.246094"/>
       <use xlink:href="#DejaVuSans-b0" x="190.869141"/>
      </g>
     </g>
    </g>
   </g>
   <g id="matplotlib.axis_2">
    <g id="ytick_1">
     <g id="line2d_9">
      <path d="M 260.573937 207.477187 
C 260.573937 199.465403 258.99579 191.531523 255.929813 184.1296 
C 252.863836 176.727676 248.369654 170.001658 242.704467 164.336471 
C 237.03928 158.671283 230.313261 154.177102 222.911338 151.111124 
C 215.509414 148.045147 207.575534 146.467 199.56375 146.467 
C 191.551966 146.467 183.618086 148.045147 176.216162 151.111124 
C 168.814239 154.177102 162.08822 158.671283 156.423033 164.336471 
C 150.757846 170.001658 146.263664 176.727676 143.197687 184.1296 
C 140.13171 191.531523 138.553563 199.465403 138.553563 207.477187 
C 138.553563 215.488972 140.13171 223.422852 143.197687 230.824775 
C 146.263664 238.226699 150.757846 244.952717 156.423033 250.617904 
C 162.08822 256.283092 168.814239 260.777273 176.216162 263.843251 
C 183.618086 266.909228 191.551966 268.487375 199.56375 268.487375 
C 207.575534 268.487375 215.509414 266.909228 222.911338 263.843251 
C 230.313261 260.777273 237.03928 256.283092 242.704467 250.617904 
C 248.369654 244.952717 252.863836 238.226699 255.929813 230.824775 
C 258.99579 223.422852 260.573937 215.488972 260.573937 207.477188 
" clip-path="url(#pa9415164b8)" style="fill: none; stroke: #b0b0b0; stroke-width: 0.8; stroke-linecap: square"/>
     </g>
     <g id="text_9">
      <!-- −30 -->
      <g transform="translate(255.929813 182.049912)scale(0.1 -0.1)">
       <defs>
        <path id="DejaVuSans-2212" d="M 678 2272 
L 4684 2272 
L 4684 1741 
L 678 1741 
L 678 2272 
z
" transform="scale(0.015625)"/>
       </defs>
       <use xlink:href="#DejaVuSans-2212"/>
       <use xlink:href="#DejaVuSans-33" x="83.789062"/>
       <use xlink:href="#DejaVuSans-30" x="147.412109"/>
      </g>
     </g>
    </g>
    <g id="ytick_2">
     <g id="line2d_10">
      <path d="M 271.104918 207.477187 
C 271.104918 198.082487 269.254367 188.779139 265.659171 180.099568 
C 262.063975 171.419996 256.794051 163.532998 250.150995 156.889942 
C 243.507939 150.246886 235.620941 144.976962 226.94137 141.381766 
C 218.261799 137.78657 208.95845 135.936019 199.56375 135.936019 
C 190.16905 135.936019 180.865701 137.78657 172.18613 141.381766 
C 163.506559 144.976962 155.619561 150.246886 148.976505 156.889942 
C 142.333449 163.532998 137.063525 171.419996 133.468329 180.099568 
C 129.873133 188.779139 128.022582 198.082487 128.022582 207.477187 
C 128.022582 216.871888 129.873133 226.175236 133.468329 234.854807 
C 137.063525 243.534379 142.333449 251.421377 148.976505 258.064433 
C 155.619561 264.707489 163.506559 269.977413 172.18613 273.572609 
C 180.865701 277.167805 190.16905 279.018356 199.56375 279.018356 
C 208.95845 279.018356 218.261799 277.167805 226.94137 273.572609 
C 235.620941 269.977413 243.507939 264.707489 250.150995 258.064433 
C 256.794051 251.421377 262.063975 243.534379 265.659171 234.854807 
C 269.254367 226.175236 271.104918 216.871888 271.104918 207.477188 
" clip-path="url(#pa9415164b8)" style="fill: none; stroke: #b0b0b0; stroke-width: 0.8; stroke-linecap: square"/>
     </g>
     <g id="text_10">
      <!-- −27 -->
      <g transform="translate(265.659171 178.01988)scale(0.1 -0.1)">
       <use xlink:href="#DejaVuSans-2212"/>
       <use xlink:href="#DejaVuSans-32" x="83.789062"/>
       <use xlink:href="#DejaVuSans-37" x="147.412109"/>
      </g>
     </g>
    </g>
    <g id="ytick_3">
     <g id="line2d_11">
      <path d="M 281.6359 207.477187 
C 281.6359 196.699572 279.512944 186.026754 275.388529 176.069536 
C 271.264114 166.112317 265.218449 157.064339 257.597524 149.443414 
C 249.976598 141.822489 240.928621 135.776823 230.971402 131.652408 
C 221.014183 127.527993 210.341366 125.405038 199.56375 125.405038 
C 188.786134 125.405038 178.113317 127.527993 168.156098 131.652408 
C 158.198879 135.776823 149.150902 141.822489 141.529976 149.443414 
C 133.909051 157.064339 127.863386 166.112317 123.738971 176.069536 
C 119.614556 186.026754 117.4916 196.699572 117.4916 207.477187 
C 117.4916 218.254803 119.614556 228.927621 123.738971 238.884839 
C 127.863386 248.842058 133.909051 257.890036 141.529976 265.510961 
C 149.150902 273.131886 158.198879 279.177552 168.156098 283.301967 
C 178.113317 287.426382 188.786134 289.549337 199.56375 289.549337 
C 210.341366 289.549337 221.014183 287.426382 230.971402 283.301967 
C 240.928621 279.177552 249.976598 273.131886 257.597524 265.510961 
C 265.218449 257.890036 271.264114 248.842058 275.388529 238.884839 
C 279.512944 228.927621 281.6359 218.254803 281.6359 207.477188 
" clip-path="url(#pa9415164b8)" style="fill: none; stroke: #b0b0b0; stroke-width: 0.8; stroke-linecap: square"/>
     </g>
     <g id="text_11">
      <!-- −24 -->
      <g transform="translate(275.388529 173.989848)scale(0.1 -0.1)">
       <use xlink:href="#DejaVuSans-2212"/>
       <use xlink:href="#DejaVuSans-32" x="83.789062"/>
       <use xlink:href="#DejaVuSans-34" x="147.412109"/>
      </g>
     </g>
    </g>
    <g id="ytick_4">
     <g id="line2d_12">
      <path d="M 292.166881 207.477187 
C 292.166881 195.316656 289.771521 183.27437 285.117887 172.039504 
C 280.464253 160.804637 273.642846 150.59568 265.044052 141.996886 
C 256.445257 133.398091 246.2363 126.576684 235.001434 121.92305 
C 223.766568 117.269416 211.724282 114.874057 199.56375 114.874057 
C 187.403218 114.874057 175.360932 117.269416 164.126066 121.92305 
C 152.8912 126.576684 142.682243 133.398091 134.083448 141.996886 
C 125.484654 150.59568 118.663247 160.804637 114.009613 172.039504 
C 109.355979 183.27437 106.960619 195.316656 106.960619 207.477187 
C 106.960619 219.637719 109.355979 231.680005 114.009613 242.914871 
C 118.663247 254.149738 125.484654 264.358695 134.083448 272.957489 
C 142.682243 281.556284 152.8912 288.377691 164.126066 293.031325 
C 175.360932 297.684959 187.403218 300.080318 199.56375 300.080318 
C 211.724282 300.080318 223.766568 297.684959 235.001434 293.031325 
C 246.2363 288.377691 256.445257 281.556284 265.044052 272.957489 
C 273.642846 264.358695 280.464253 254.149738 285.117887 242.914871 
C 289.771521 231.680005 292.166881 219.637719 292.166881 207.477188 
" clip-path="url(#pa9415164b8)" style="fill: none; stroke: #b0b0b0; stroke-width: 0.8; stroke-linecap: square"/>
     </g>
     <g id="text_12">
      <!-- −21 -->
      <g transform="translate(285.117887 169.959816)scale(0.1 -0.1)">
       <use xlink:href="#DejaVuSans-2212"/>
       <use xlink:href="#DejaVuSans-32" x="83.789062"/>
       <use xlink:href="#DejaVuSans-31" x="147.412109"/>
      </g>
     </g>
    </g>
    <g id="ytick_5">
     <g id="line2d_13">
      <path d="M 302.697862 207.477187 
C 302.697862 193.93374 300.030098 180.521985 294.847245 168.009471 
C 289.664392 155.496957 282.067244 144.127021 272.49058 134.550357 
C 262.913917 124.973694 251.54398 117.376545 239.031466 112.193692 
C 226.518952 107.010839 213.107198 104.343075 199.56375 104.343075 
C 186.020302 104.343075 172.608548 107.010839 160.096034 112.193692 
C 147.58352 117.376545 136.213583 124.973694 126.63692 134.550357 
C 117.060256 144.127021 109.463108 155.496957 104.280255 168.009471 
C 99.097402 180.521985 96.429638 193.93374 96.429638 207.477187 
C 96.429638 221.020635 99.097402 234.43239 104.280255 246.944904 
C 109.463108 259.457418 117.060256 270.827354 126.63692 280.404018 
C 136.213583 289.980681 147.58352 297.57783 160.096034 302.760683 
C 172.608548 307.943536 186.020302 310.6113 199.56375 310.6113 
C 213.107198 310.6113 226.518952 307.943536 239.031466 302.760683 
C 251.54398 297.57783 262.913917 289.980681 272.49058 280.404018 
C 282.067244 270.827354 289.664392 259.457418 294.847245 246.944904 
C 300.030098 234.43239 302.697862 221.020635 302.697862 207.477188 
" clip-path="url(#pa9415164b8)" style="fill: none; stroke: #b0b0b0; stroke-width: 0.8; stroke-linecap: square"/>
     </g>
     <g id="text_13">
      <!-- −18 -->
      <g transform="translate(294.847245 165.929784)scale(0.1 -0.1)">
       <use xlink:href="#DejaVuSans-2212"/>
       <use xlink:href="#DejaVuSans-31" x="83.789062"/>
       <use xlink:href="#DejaVuSans-38" x="147.412109"/>
      </g>
     </g>
    </g>
    <g id="ytick_6">
     <g id="line2d_14">
      <path d="M 313.228844 207.477187 
C 313.228844 192.550824 310.288675 177.769601 304.576603 163.979439 
C 298.864532 150.189278 290.491641 137.658362 279.937108 127.103829 
C 269.382576 116.549296 256.85166 108.176406 243.061498 102.464334 
C 229.271337 96.752262 214.490113 93.812094 199.56375 93.812094 
C 184.637387 93.812094 169.856163 96.752262 156.066002 102.464334 
C 142.27584 108.176406 129.744924 116.549296 119.190392 127.103829 
C 108.635859 137.658362 100.262968 150.189278 94.550897 163.979439 
C 88.838825 177.769601 85.898656 192.550824 85.898656 207.477187 
C 85.898656 222.403551 88.838825 237.184774 94.550897 250.974936 
C 100.262968 264.765097 108.635859 277.296013 119.190392 287.850546 
C 129.744924 298.405079 142.27584 306.777969 156.066002 312.490041 
C 169.856163 318.202113 184.637387 321.142281 199.56375 321.142281 
C 214.490113 321.142281 229.271337 318.202113 243.061498 312.490041 
C 256.85166 306.777969 269.382576 298.405079 279.937108 287.850546 
C 290.491641 277.296013 298.864532 264.765097 304.576603 250.974936 
C 310.288675 237.184774 313.228844 222.403551 313.228844 207.477188 
" clip-path="url(#pa9415164b8)" style="fill: none; stroke: #b0b0b0; stroke-width: 0.8; stroke-linecap: square"/>
     </g>
     <g id="text_14">
      <!-- −15 -->
      <g transform="translate(304.576603 161.899752)scale(0.1 -0.1)">
       <use xlink:href="#DejaVuSans-2212"/>
       <use xlink:href="#DejaVuSans-31" x="83.789062"/>
       <use xlink:href="#DejaVuSans-35" x="147.412109"/>
      </g>
     </g>
    </g>
    <g id="ytick_7">
     <g id="line2d_15">
      <path d="M 323.759825 207.477187 
C 323.759825 191.167908 320.547252 175.017216 314.305962 159.949407 
C 308.064671 144.881598 298.916039 131.189703 287.383637 119.657301 
C 275.851235 108.124899 262.159339 98.976267 247.09153 92.734976 
C 232.023721 86.493685 215.873029 83.281113 199.56375 83.281113 
C 183.254471 83.281113 167.103779 86.493685 152.03597 92.734976 
C 136.968161 98.976267 123.276265 108.124899 111.743863 119.657301 
C 100.211461 131.189703 91.062829 144.881598 84.821538 159.949407 
C 78.580248 175.017216 75.367675 191.167908 75.367675 207.477187 
C 75.367675 223.786467 78.580248 239.937159 84.821538 255.004968 
C 91.062829 270.072777 100.211461 283.764672 111.743863 295.297074 
C 123.276265 306.829476 136.968161 315.978108 152.03597 322.219399 
C 167.103779 328.46069 183.254471 331.673262 199.56375 331.673262 
C 215.873029 331.673262 232.023721 328.46069 247.09153 322.219399 
C 262.159339 315.978108 275.851235 306.829476 287.383637 295.297074 
C 298.916039 283.764672 308.064671 270.072777 314.305962 255.004968 
C 320.547252 239.937159 323.759825 223.786467 323.759825 207.477188 
" clip-path="url(#pa9415164b8)" style="fill: none; stroke: #b0b0b0; stroke-width: 0.8; stroke-linecap: square"/>
     </g>
     <g id="text_15">
      <!-- −12 -->
      <g transform="translate(314.305962 157.86972)scale(0.1 -0.1)">
       <use xlink:href="#DejaVuSans-2212"/>
       <use xlink:href="#DejaVuSans-31" x="83.789062"/>
       <use xlink:href="#DejaVuSans-32" x="147.412109"/>
      </g>
     </g>
    </g>
    <g id="ytick_8">
     <g id="line2d_16">
      <path d="M 334.290806 207.477187 
C 334.290806 189.784993 330.805829 172.264832 324.03532 155.919375 
C 317.26481 139.573918 307.340436 124.721044 294.830165 112.210773 
C 282.319894 99.700502 267.467019 89.776128 251.121562 83.005618 
C 234.776106 76.235108 217.255945 72.750131 199.56375 72.750131 
C 181.871555 72.750131 164.351394 76.235108 148.005938 83.005618 
C 131.660481 89.776128 116.807606 99.700502 104.297335 112.210773 
C 91.787064 124.721044 81.86269 139.573918 75.09218 155.919375 
C 68.321671 172.264832 64.836694 189.784993 64.836694 207.477187 
C 64.836694 225.169382 68.321671 242.689543 75.09218 259.035 
C 81.86269 275.380457 91.787064 290.233331 104.297335 302.743602 
C 116.807606 315.253873 131.660481 325.178247 148.005938 331.948757 
C 164.351394 338.719267 181.871555 342.204244 199.56375 342.204244 
C 217.255945 342.204244 234.776106 338.719267 251.121562 331.948757 
C 267.467019 325.178247 282.319894 315.253873 294.830165 302.743602 
C 307.340436 290.233331 317.26481 275.380457 324.03532 259.035 
C 330.805829 242.689543 334.290806 225.169382 334.290806 207.477188 
" clip-path="url(#pa9415164b8)" style="fill: none; stroke: #b0b0b0; stroke-width: 0.8; stroke-linecap: square"/>
     </g>
     <g id="text_16">
      <!-- −9 -->
      <g transform="translate(324.03532 153.839688)scale(0.1 -0.1)">
       <use xlink:href="#DejaVuSans-2212"/>
       <use xlink:href="#DejaVuSans-39" x="83.789062"/>
      </g>
     </g>
    </g>
    <g id="ytick_9">
     <g id="line2d_17">
      <path d="M 344.821787 207.477187 
C 344.821787 188.402077 341.064407 169.512448 333.764678 151.889343 
C 326.464949 134.266239 315.764833 118.252384 302.276693 104.764244 
C 288.788553 91.276104 272.774699 80.575989 255.151594 73.27626 
C 237.52849 65.976531 218.638861 62.21915 199.56375 62.21915 
C 180.488639 62.21915 161.59901 65.976531 143.975906 73.27626 
C 126.352801 80.575989 110.338947 91.276104 96.850807 104.764244 
C 83.362667 118.252384 72.662551 134.266239 65.362822 151.889343 
C 58.063093 169.512448 54.305713 188.402077 54.305713 207.477187 
C 54.305713 226.552298 58.063093 245.441927 65.362822 263.065032 
C 72.662551 280.688136 83.362667 296.701991 96.850807 310.190131 
C 110.338947 323.678271 126.352801 334.378386 143.975906 341.678115 
C 161.59901 348.977844 180.488639 352.735225 199.56375 352.735225 
C 218.638861 352.735225 237.52849 348.977844 255.151594 341.678115 
C 272.774699 334.378386 288.788553 323.678271 302.276693 310.190131 
C 315.764833 296.701991 326.464949 280.688136 333.764678 263.065032 
C 341.064407 245.441927 344.821787 226.552298 344.821787 207.477188 
" clip-path="url(#pa9415164b8)" style="fill: none; stroke: #b0b0b0; stroke-width: 0.8; stroke-linecap: square"/>
     </g>
     <g id="text_17">
      <!-- −6 -->
      <g transform="translate(333.764678 149.809656)scale(0.1 -0.1)">
       <defs>
        <path id="DejaVuSans-36" d="M 2113 2584 
Q 1688 2584 1439 2293 
Q 1191 2003 1191 1497 
Q 1191 994 1439 701 
Q 1688 409 2113 409 
Q 2538 409 2786 701 
Q 3034 994 3034 1497 
Q 3034 2003 2786 2293 
Q 2538 2584 2113 2584 
z
M 3366 4563 
L 3366 3988 
Q 3128 4100 2886 4159 
Q 2644 4219 2406 4219 
Q 1781 4219 1451 3797 
Q 1122 3375 1075 2522 
Q 1259 2794 1537 2939 
Q 1816 3084 2150 3084 
Q 2853 3084 3261 2657 
Q 3669 2231 3669 1497 
Q 3669 778 3244 343 
Q 2819 -91 2113 -91 
Q 1303 -91 875 529 
Q 447 1150 447 2328 
Q 447 3434 972 4092 
Q 1497 4750 2381 4750 
Q 2619 4750 2861 4703 
Q 3103 4656 3366 4563 
z
" transform="scale(0.015625)"/>
       </defs>
       <use xlink:href="#DejaVuSans-2212"/>
       <use xlink:href="#DejaVuSans-36" x="83.789062"/>
      </g>
     </g>
    </g>
    <g id="ytick_10">
     <g id="line2d_18">
      <path d="M 355.352769 207.477187 
C 355.352769 187.019161 351.322984 166.760063 343.494036 147.859311 
C 335.665088 128.958559 324.189231 111.783725 309.723222 97.317716 
C 295.257212 82.851707 278.082378 71.37585 259.181626 63.546902 
C 240.280874 55.717954 220.021776 51.688169 199.56375 51.688169 
C 179.105724 51.688169 158.846626 55.717954 139.945874 63.546902 
C 121.045122 71.37585 103.870288 82.851707 89.404278 97.317716 
C 74.938269 111.783725 63.462412 128.958559 55.633464 147.859311 
C 47.804516 166.760063 43.774731 187.019161 43.774731 207.477187 
C 43.774731 227.935214 47.804516 248.194312 55.633464 267.095064 
C 63.462412 285.995816 74.938269 303.17065 89.404278 317.636659 
C 103.870288 332.102668 121.045122 343.578525 139.945874 351.407473 
C 158.846626 359.236421 179.105724 363.266206 199.56375 363.266206 
C 220.021776 363.266206 240.280874 359.236421 259.181626 351.407473 
C 278.082378 343.578525 295.257212 332.102668 309.723222 317.636659 
C 324.189231 303.17065 335.665088 285.995816 343.494036 267.095064 
C 351.322984 248.194312 355.352769 227.935214 355.352769 207.477188 
" clip-path="url(#pa9415164b8)" style="fill: none; stroke: #b0b0b0; stroke-width: 0.8; stroke-linecap: square"/>
     </g>
     <g id="text_18">
      <!-- −3 -->
      <g transform="translate(343.494036 145.779624)scale(0.1 -0.1)">
       <use xlink:href="#DejaVuSans-2212"/>
       <use xlink:href="#DejaVuSans-33" x="83.789062"/>
      </g>
     </g>
    </g>
   </g>
   <g id="line2d_19">
    <path d="M 325.437761 207.477187 
L 324.141025 205.302683 
L 322.41527 201.038812 
L 321.300195 198.964546 
L 319.511564 194.870164 
L 318.55902 192.866406 
L 316.283043 186.896427 
L 315.551161 184.931519 
L 312.4227 175.115404 
L 312.028709 173.093199 
L 311.76538 171.020668 
L 310.96569 166.930197 
L 310.853912 164.756897 
L 310.976674 162.463444 
L 310.901143 160.217268 
L 311.528691 155.267078 
L 311.377393 150.505291 
L 310.188099 143.60819 
L 308.629991 139.325036 
L 307.756634 137.215907 
L 306.740922 135.185272 
L 305.497436 133.301622 
L 304.365675 131.334132 
L 303.093723 129.461757 
L 298.38498 121.573203 
L 297.441999 119.347217 
L 296.286941 117.281352 
L 295.357131 114.970595 
L 291.744242 108.625712 
L 290.312708 106.690259 
L 288.795543 104.827752 
L 287.356009 102.850448 
L 285.660242 101.156874 
L 282.330345 97.642206 
L 280.54116 96.021344 
L 277.083001 92.550171 
L 275.388546 90.717241 
L 273.462028 89.215221 
L 271.784567 87.281564 
L 268.071674 83.885622 
L 266.009741 82.510453 
L 261.934219 79.598775 
L 259.765627 78.373846 
L 252.95925 75.318687 
L 250.652182 74.387273 
L 248.237619 73.746831 
L 245.910004 72.877894 
L 243.520236 72.193034 
L 238.589238 71.379137 
L 236.125379 71.027332 
L 231.135765 70.723764 
L 226.109476 70.911265 
L 223.592802 71.201661 
L 218.579411 72.173728 
L 216.122739 72.615046 
L 208.818342 75.130361 
L 206.422836 76.598035 
L 204.092797 77.782258 
L 201.799518 79.39012 
L 199.56375 81.448722 
L 197.387959 82.826206 
L 195.288051 85.037192 
L 193.306703 88.085612 
L 191.387802 90.555684 
L 189.602726 93.622163 
L 186.457973 100.739198 
L 184.063723 109.613871 
L 183.074369 113.961261 
L 182.409987 119.228728 
L 181.519818 122.587162 
L 180.491922 124.868026 
L 178.704067 123.813568 
L 176.435787 121.162453 
L 173.706989 117.303945 
L 170.197441 111.42432 
L 163.864294 103.798438 
L 160.479094 100.092977 
L 157.502645 97.904264 
L 150.888345 92.80512 
L 147.92071 91.485021 
L 144.512684 89.419795 
L 141.535848 88.502358 
L 138.547156 87.72538 
L 135.184349 86.397145 
L 129.318243 85.808401 
L 126.388335 85.692845 
L 123.563457 85.851295 
L 121.016464 86.524973 
L 118.293301 86.988793 
L 113.471373 88.981196 
L 111.150262 90.148525 
L 108.971261 91.52409 
L 106.864197 93.002773 
L 104.593899 94.296527 
L 100.842736 97.836394 
L 98.846121 99.470754 
L 96.966735 101.234868 
L 93.430011 104.985027 
L 91.849987 107.032479 
L 90.100347 108.915897 
L 88.53465 110.961063 
L 87.084936 113.096256 
L 83.793818 120.238287 
L 83.050019 122.825007 
L 82.467405 125.485444 
L 81.741092 128.004801 
L 81.555544 130.841762 
L 80.91776 133.338945 
L 80.54763 135.965088 
L 80.533712 138.755163 
L 80.089324 141.251432 
L 79.878453 143.839386 
L 80.034011 146.573743 
L 79.806465 149.067657 
L 79.950635 151.700676 
L 80.716878 157.029683 
L 81.420068 159.744042 
L 82.54509 162.557933 
L 83.286437 165.155707 
L 87.981667 173.363121 
L 90.48069 176.198123 
L 96.415341 183.663501 
L 97.92797 185.873835 
L 98.858606 187.90209 
L 99.614351 189.853412 
L 99.824728 191.680078 
L 99.623316 193.431475 
L 99.215713 195.155998 
L 98.352654 196.839473 
L 95.963003 200.232718 
L 94.011953 201.945452 
L 92.21949 203.728643 
L 90.197915 205.5682 
L 87.927626 207.477187 
L 86.084438 209.457976 
L 83.919116 211.515587 
L 81.963493 213.640356 
L 79.280542 215.888209 
L 77.291521 218.174621 
L 75.510405 220.515719 
L 73.220383 222.990202 
L 71.636713 225.45616 
L 70.302293 227.950191 
L 68.30087 230.622375 
L 66.957089 233.253311 
L 65.720632 235.92642 
L 64.267399 238.712811 
L 61.802149 246.979691 
L 60.784167 252.569408 
L 60.473742 255.369718 
L 60.469824 258.103237 
L 60.24393 260.957056 
L 60.352275 263.722274 
L 60.650672 266.442291 
L 60.764514 269.274589 
L 61.75636 274.690342 
L 62.024574 277.556898 
L 63.319885 282.998395 
L 63.913854 285.794691 
L 66.361518 293.979728 
L 69.668343 301.851725 
L 73.686143 309.410864 
L 76.740066 314.246187 
L 81.748815 321.249748 
L 87.13449 328.042808 
L 91.03297 332.327568 
L 93.041158 334.425869 
L 97.277153 338.398061 
L 99.497339 340.2698 
L 104.166517 343.718556 
L 109.00424 346.926604 
L 116.528367 351.29869 
L 121.685592 353.944701 
L 124.309441 355.172084 
L 132.449301 358.218709 
L 138.098146 359.609896 
L 140.95632 360.154763 
L 149.701881 360.936241 
L 152.66789 360.866633 
L 155.550401 360.969976 
L 164.172189 360.774881 
L 167.037642 360.500495 
L 172.59539 360.422355 
L 178.134686 359.952901 
L 180.864471 359.77059 
L 186.31351 358.928128 
L 189.000094 358.54451 
L 191.68559 357.801439 
L 196.959849 356.654598 
L 199.56375 355.775168 
L 202.141063 355.131348 
L 207.212816 353.43006 
L 209.733658 352.913654 
L 214.683871 351.335526 
L 217.163152 350.812811 
L 219.617077 350.164021 
L 224.56993 349.294281 
L 232.083348 348.33504 
L 237.210175 347.975557 
L 239.77452 347.708808 
L 242.425144 347.670492 
L 247.715708 347.320627 
L 250.459935 347.313305 
L 261.244074 346.013463 
L 266.618406 344.959606 
L 269.264171 344.271965 
L 274.456979 342.588148 
L 279.50633 340.523983 
L 284.357087 338.047476 
L 289.059588 335.29049 
L 291.361203 333.825542 
L 293.594556 332.260281 
L 297.850169 328.850806 
L 301.828117 325.118884 
L 303.687158 323.117948 
L 307.21573 318.954077 
L 311.957684 312.286226 
L 318.955204 300.756015 
L 325.491338 289.255519 
L 331.082689 277.407048 
L 333.725575 270.037874 
L 335.138923 265.025434 
L 336.248723 259.945633 
L 336.727979 257.400884 
L 337.198221 252.197338 
L 337.316557 249.592447 
L 337.062153 246.90422 
L 336.88296 241.714712 
L 336.262448 239.036569 
L 335.940878 236.465041 
L 335.381927 233.877567 
L 334.491048 231.268511 
L 334.005068 228.7706 
L 330.193736 218.90583 
L 329.193199 216.541762 
L 328.353615 214.226778 
L 327.111668 211.931259 
L 326.169686 209.687102 
L 326.169686 209.687102 
" clip-path="url(#pa9415164b8)" style="fill: none; stroke: #ff0000; stroke-width: 1.5; stroke-linecap: square"/>
   </g>
   <g id="line2d_20">
    <path d="M 297.102401 207.477187 
L 294.244613 205.824527 
L 291.079062 204.281402 
L 287.608999 202.862932 
L 283.803177 201.586593 
L 279.631057 200.472206 
L 275.132737 199.534567 
L 270.383517 198.781614 
L 262.062553 197.57835 
L 260.324627 196.763406 
L 261.299974 195.476881 
L 264.377411 193.700619 
L 272.712877 189.239062 
L 276.689645 186.811366 
L 280.332698 184.317064 
L 283.541695 181.802553 
L 286.385955 179.266943 
L 288.900757 176.715989 
L 291.121142 174.153022 
L 293.049033 171.59155 
L 294.751901 169.018678 
L 296.231163 166.444305 
L 297.488561 163.878253 
L 298.589788 161.300588 
L 299.504096 158.733024 
L 300.295866 156.151611 
L 300.934486 153.577411 
L 301.421361 151.016592 
L 301.788489 148.457707 
L 302.196854 143.344907 
L 302.239563 140.798735 
L 302.166098 138.27103 
L 301.733074 133.246829 
L 300.933571 128.278404 
L 299.801933 123.367365 
L 298.344602 118.534509 
L 296.569188 113.800125 
L 294.533206 109.133437 
L 292.194151 104.600705 
L 289.607891 100.166759 
L 286.76968 95.858687 
L 283.689785 91.687635 
L 280.38272 87.658137 
L 276.855015 83.785308 
L 273.12125 80.07186 
L 269.190379 76.528544 
L 265.071886 73.165606 
L 260.778618 69.986343 
L 256.319054 67.002881 
L 251.703759 64.223691 
L 246.945879 61.64999 
L 242.056067 59.288866 
L 237.044465 57.150252 
L 231.923455 55.236745 
L 226.704616 53.553689 
L 221.39977 52.105829 
L 216.02096 50.897291 
L 210.580412 49.93158 
L 205.090507 49.211569 
L 199.56375 48.735984 
L 194.012491 48.509931 
L 188.449386 48.534371 
L 182.887116 48.809614 
L 177.338361 49.335325 
L 171.815761 50.11052 
L 166.331159 51.130137 
L 160.898367 52.398805 
L 155.529114 53.910164 
L 150.236663 55.664024 
L 145.032141 57.652823 
L 139.928614 59.875048 
L 134.937919 62.325194 
L 130.073132 65.000307 
L 125.344149 67.890419 
L 120.763576 70.991283 
L 116.34406 74.297844 
L 112.096268 77.801313 
L 108.030402 81.492342 
L 104.16049 85.366583 
L 100.496287 89.413182 
L 97.049316 93.623374 
L 93.830852 97.987566 
L 90.85439 102.497779 
L 88.130793 107.142502 
L 85.673176 111.911649 
L 83.494473 116.793929 
L 81.610182 121.778904 
L 80.032809 126.852549 
L 78.783304 132.005189 
L 77.882803 137.22466 
L 77.333817 142.486379 
L 77.219059 145.139454 
L 77.281409 150.455996 
L 77.491409 153.127079 
L 77.821657 155.800735 
L 78.272755 158.472445 
L 78.845162 161.137663 
L 79.572181 163.803828 
L 80.421409 166.45319 
L 81.459618 169.102829 
L 82.654199 171.734351 
L 84.072812 174.360694 
L 85.682498 176.962798 
L 87.551532 179.549405 
L 89.680656 182.108676 
L 92.13889 184.643329 
L 94.961369 187.144544 
L 98.252294 189.613244 
L 102.081816 192.037566 
L 106.659073 194.420287 
L 112.229057 196.753836 
L 119.281782 199.039213 
L 128.623533 201.270723 
L 142.42807 203.481872 
L 168.518196 205.850159 
L 191.648575 207.200783 
L 150.545287 206.621567 
L 133.26701 207.477187 
L 122.256359 208.826593 
L 114.22285 210.457357 
L 107.907819 212.280671 
L 102.717929 214.249307 
L 98.374749 216.330078 
L 94.634636 218.505682 
L 91.39377 220.758791 
L 88.548255 223.079398 
L 86.063772 225.453818 
L 83.836616 227.883004 
L 81.867206 230.355078 
L 80.121227 232.86548 
L 78.598698 235.40417 
L 77.231184 237.978122 
L 76.052865 240.571829 
L 74.99583 243.196464 
L 74.093996 245.837141 
L 73.347016 248.487491 
L 72.721145 251.152599 
L 71.799241 256.521388 
L 71.359111 261.896828 
L 71.284401 267.29483 
L 71.601666 272.677126 
L 72.278732 278.032425 
L 73.290073 283.350067 
L 74.625349 288.613134 
L 76.267845 293.809909 
L 78.203695 298.928548 
L 80.421665 303.956546 
L 82.910234 308.882542 
L 85.657682 313.696314 
L 88.654661 318.386276 
L 91.891443 322.941601 
L 95.357969 327.352225 
L 99.043911 331.608851 
L 102.938711 335.702945 
L 107.033657 339.623855 
L 111.317592 343.364355 
L 115.779272 346.917976 
L 120.409113 350.275932 
L 125.197107 353.429942 
L 130.132844 356.372247 
L 135.202796 359.102094 
L 140.399031 361.606551 
L 145.707824 363.886153 
L 151.119173 365.932259 
L 156.62054 367.743429 
L 162.201218 369.312093 
L 167.847822 370.641492 
L 173.549963 371.721775 
L 179.294441 372.557463 
L 185.070148 373.139811 
L 190.864194 373.474603 
L 196.664742 373.561269 
L 202.459818 373.392799 
L 208.237218 372.976819 
L 213.985148 372.314526 
L 219.691885 371.40769 
L 225.345253 370.255188 
L 230.93339 368.859996 
L 236.446174 367.232516 
L 241.870982 365.369928 
L 247.19856 363.283631 
L 252.416253 360.972001 
L 257.51451 358.444079 
L 262.483159 355.706026 
L 267.313819 352.767679 
L 271.994102 349.629757 
L 276.516205 346.303092 
L 280.873142 342.79874 
L 285.053004 339.119095 
L 289.04952 335.276112 
L 292.855157 331.279066 
L 296.460632 327.134871 
L 299.86137 322.856401 
L 303.048886 318.45141 
L 306.019815 313.933252 
L 308.761407 309.30565 
L 311.273715 304.585178 
L 313.547118 299.779099 
L 315.577584 294.899882 
L 317.361715 289.96021 
L 318.887928 284.967215 
L 320.150535 279.933038 
L 321.162755 274.880617 
L 321.877164 269.798985 
L 322.323306 264.720909 
L 322.469101 259.647414 
L 322.346957 254.609245 
L 321.892407 249.598322 
L 321.105882 244.636346 
L 319.989084 239.745058 
L 318.510791 234.938276 
L 316.640044 230.234514 
L 314.346559 225.656998 
L 313.012561 223.421378 
L 311.566307 221.229372 
L 310.008798 219.08543 
L 308.271235 216.98786 
L 306.42465 214.94963 
L 304.365367 212.969608 
L 302.164938 211.0601 
L 299.754987 209.226032 
L 299.754987 209.226032 
" clip-path="url(#pa9415164b8)" style="fill: none; stroke-dasharray: 5.55,2.4; stroke-dashoffset: 0; stroke: #0000ff; stroke-width: 1.5"/>
   </g>
   <g id="patch_3">
    <path d="M 365.88375 207.477187 
C 365.88375 185.636245 361.581561 164.007679 353.223394 143.829279 
C 344.865227 123.650879 332.613628 105.315066 317.16975 89.871188 
C 301.725871 74.427309 283.390058 62.17571 263.211658 53.817544 
C 243.033259 45.459377 221.404692 41.157187 199.56375 41.157187 
C 177.722808 41.157187 156.094241 45.459377 135.915842 53.817544 
C 115.737442 62.17571 97.401629 74.427309 81.95775 89.871188 
C 66.513872 105.315066 54.262273 123.650879 45.904106 143.829279 
C 37.545939 164.007679 33.24375 185.636245 33.24375 207.477187 
C 33.24375 229.31813 37.545939 250.946696 45.904106 271.125096 
C 54.262273 291.303496 66.513872 309.639309 81.95775 325.083187 
C 97.401629 340.527066 115.737442 352.778665 135.915842 361.136831 
C 156.094241 369.494998 177.722808 373.797188 199.56375 373.797188 
C 221.404692 373.797188 243.033259 369.494998 263.211658 361.136831 
C 283.390058 352.778665 301.725871 340.527066 317.16975 325.083187 
C 332.613628 309.639309 344.865227 291.303496 353.223394 271.125096 
C 361.581561 250.946696 365.88375 229.31813 365.88375 207.477188 
" style="fill: none; stroke: #000000; stroke-width: 0.8; stroke-linejoin: miter; stroke-linecap: square"/>
   </g>
   <g id="text_19">
    <!-- Radiation Diagram - 1AVVF03 -->
    <g transform="translate(110.727187 16.318125)scale(0.12 -0.12)">
     <defs>
      <path id="DejaVuSans-52" d="M 2841 2188 
Q 3044 2119 3236 1894 
Q 3428 1669 3622 1275 
L 4263 0 
L 3584 0 
L 2988 1197 
Q 2756 1666 2539 1819 
Q 2322 1972 1947 1972 
L 1259 1972 
L 1259 0 
L 628 0 
L 628 4666 
L 2053 4666 
Q 2853 4666 3247 4331 
Q 3641 3997 3641 3322 
Q 3641 2881 3436 2590 
Q 3231 2300 2841 2188 
z
M 1259 4147 
L 1259 2491 
L 2053 2491 
Q 2509 2491 2742 2702 
Q 2975 2913 2975 3322 
Q 2975 3731 2742 3939 
Q 2509 4147 2053 4147 
L 1259 4147 
z
" transform="scale(0.015625)"/>
      <path id="DejaVuSans-61" d="M 2194 1759 
Q 1497 1759 1228 1600 
Q 959 1441 959 1056 
Q 959 750 1161 570 
Q 1363 391 1709 391 
Q 2188 391 2477 730 
Q 2766 1069 2766 1631 
L 2766 1759 
L 2194 1759 
z
M 3341 1997 
L 3341 0 
L 2766 0 
L 2766 531 
Q 2569 213 2275 61 
Q 1981 -91 1556 -91 
Q 1019 -91 701 211 
Q 384 513 384 1019 
Q 384 1609 779 1909 
Q 1175 2209 1959 2209 
L 2766 2209 
L 2766 2266 
Q 2766 2663 2505 2880 
Q 2244 3097 1772 3097 
Q 1472 3097 1187 3025 
Q 903 2953 641 2809 
L 641 3341 
Q 956 3463 1253 3523 
Q 1550 3584 1831 3584 
Q 2591 3584 2966 3190 
Q 3341 2797 3341 1997 
z
" transform="scale(0.015625)"/>
      <path id="DejaVuSans-64" d="M 2906 2969 
L 2906 4863 
L 3481 4863 
L 3481 0 
L 2906 0 
L 2906 525 
Q 2725 213 2448 61 
Q 2172 -91 1784 -91 
Q 1150 -91 751 415 
Q 353 922 353 1747 
Q 353 2572 751 3078 
Q 1150 3584 1784 3584 
Q 2172 3584 2448 3432 
Q 2725 3281 2906 2969 
z
M 947 1747 
Q 947 1113 1208 752 
Q 1469 391 1925 391 
Q 2381 391 2643 752 
Q 2906 1113 2906 1747 
Q 2906 2381 2643 2742 
Q 2381 3103 1925 3103 
Q 1469 3103 1208 2742 
Q 947 2381 947 1747 
z
" transform="scale(0.015625)"/>
      <path id="DejaVuSans-69" d="M 603 3500 
L 1178 3500 
L 1178 0 
L 603 0 
L 603 3500 
z
M 603 4863 
L 1178 4863 
L 1178 4134 
L 603 4134 
L 603 4863 
z
" transform="scale(0.015625)"/>
      <path id="DejaVuSans-74" d="M 1172 4494 
L 1172 3500 
L 2356 3500 
L 2356 3053 
L 1172 3053 
L 1172 1153 
Q 1172 725 1289 603 
Q 1406 481 1766 481 
L 2356 481 
L 2356 0 
L 1766 0 
Q 1100 0 847 248 
Q 594 497 594 1153 
L 594 3053 
L 172 3053 
L 172 3500 
L 594 3500 
L 594 4494 
L 1172 4494 
z
" transform="scale(0.015625)"/>
      <path id="DejaVuSans-6f" d="M 1959 3097 
Q 1497 3097 1228 2736 
Q 959 2375 959 1747 
Q 959 1119 1226 758 
Q 1494 397 1959 397 
Q 2419 397 2687 759 
Q 2956 1122 2956 1747 
Q 2956 2369 2687 2733 
Q 2419 3097 1959 3097 
z
M 1959 3584 
Q 2709 3584 3137 3096 
Q 3566 2609 3566 1747 
Q 3566 888 3137 398 
Q 2709 -91 1959 -91 
Q 1206 -91 779 398 
Q 353 888 353 1747 
Q 353 2609 779 3096 
Q 1206 3584 1959 3584 
z
" transform="scale(0.015625)"/>
      <path id="DejaVuSans-6e" d="M 3513 2113 
L 3513 0 
L 2938 0 
L 2938 2094 
Q 2938 2591 2744 2837 
Q 2550 3084 2163 3084 
Q 1697 3084 1428 2787 
Q 1159 2491 1159 1978 
L 1159 0 
L 581 0 
L 581 3500 
L 1159 3500 
L 1159 2956 
Q 1366 3272 1645 3428 
Q 1925 3584 2291 3584 
Q 2894 3584 3203 3211 
Q 3513 2838 3513 2113 
z
" transform="scale(0.015625)"/>
      <path id="DejaVuSans-20" transform="scale(0.015625)"/>
      <path id="DejaVuSans-44" d="M 1259 4147 
L 1259 519 
L 2022 519 
Q 2988 519 3436 956 
Q 3884 1394 3884 2338 
Q 3884 3275 3436 3711 
Q 2988 4147 2022 4147 
L 1259 4147 
z
M 628 4666 
L 1925 4666 
Q 3281 4666 3915 4102 
Q 4550 3538 4550 2338 
Q 4550 1131 3912 565 
Q 3275 0 1925 0 
L 628 0 
L 628 4666 
z
" transform="scale(0.015625)"/>
      <path id="DejaVuSans-67" d="M 2906 1791 
Q 2906 2416 2648 2759 
Q 2391 3103 1925 3103 
Q 1463 3103 1205 2759 
Q 947 2416 947 1791 
Q 947 1169 1205 825 
Q 1463 481 1925 481 
Q 2391 481 2648 825 
Q 2906 1169 2906 1791 
z
M 3481 434 
Q 3481 -459 3084 -895 
Q 2688 -1331 1869 -1331 
Q 1566 -1331 1297 -1286 
Q 1028 -1241 775 -1147 
L 775 -588 
Q 1028 -725 1275 -790 
Q 1522 -856 1778 -856 
Q 2344 -856 2625 -561 
Q 2906 -266 2906 331 
L 2906 616 
Q 2728 306 2450 153 
Q 2172 0 1784 0 
Q 1141 0 747 490 
Q 353 981 353 1791 
Q 353 2603 747 3093 
Q 1141 3584 1784 3584 
Q 2172 3584 2450 3431 
Q 2728 3278 2906 2969 
L 2906 3500 
L 3481 3500 
L 3481 434 
z
" transform="scale(0.015625)"/>
      <path id="DejaVuSans-72" d="M 2631 2963 
Q 2534 3019 2420 3045 
Q 2306 3072 2169 3072 
Q 1681 3072 1420 2755 
Q 1159 2438 1159 1844 
L 1159 0 
L 581 0 
L 581 3500 
L 1159 3500 
L 1159 2956 
Q 1341 3275 1631 3429 
Q 1922 3584 2338 3584 
Q 2397 3584 2469 3576 
Q 2541 3569 2628 3553 
L 2631 2963 
z
" transform="scale(0.015625)"/>
      <path id="DejaVuSans-6d" d="M 3328 2828 
Q 3544 3216 3844 3400 
Q 4144 3584 4550 3584 
Q 5097 3584 5394 3201 
Q 5691 2819 5691 2113 
L 5691 0 
L 5113 0 
L 5113 2094 
Q 5113 2597 4934 2840 
Q 4756 3084 4391 3084 
Q 3944 3084 3684 2787 
Q 3425 2491 3425 1978 
L 3425 0 
L 2847 0 
L 2847 2094 
Q 2847 2600 2669 2842 
Q 2491 3084 2119 3084 
Q 1678 3084 1418 2786 
Q 1159 2488 1159 1978 
L 1159 0 
L 581 0 
L 581 3500 
L 1159 3500 
L 1159 2956 
Q 1356 3278 1631 3431 
Q 1906 3584 2284 3584 
Q 2666 3584 2933 3390 
Q 3200 3197 3328 2828 
z
" transform="scale(0.015625)"/>
      <path id="DejaVuSans-2d" d="M 313 2009 
L 1997 2009 
L 1997 1497 
L 313 1497 
L 313 2009 
z
" transform="scale(0.015625)"/>
      <path id="DejaVuSans-41" d="M 2188 4044 
L 1331 1722 
L 3047 1722 
L 2188 4044 
z
M 1831 4666 
L 2547 4666 
L 4325 0 
L 3669 0 
L 3244 1197 
L 1141 1197 
L 716 0 
L 50 0 
L 1831 4666 
z
" transform="scale(0.015625)"/>
      <path id="DejaVuSans-56" d="M 1831 0 
L 50 4666 
L 709 4666 
L 2188 738 
L 3669 4666 
L 4325 4666 
L 2547 0 
L 1831 0 
z
" transform="scale(0.015625)"/>
      <path id="DejaVuSans-46" d="M 628 4666 
L 3309 4666 
L 3309 4134 
L 1259 4134 
L 1259 2759 
L 3109 2759 
L 3109 2228 
L 1259 2228 
L 1259 0 
L 628 0 
L 628 4666 
z
" transform="scale(0.015625)"/>
     </defs>
     <use xlink:href="#DejaVuSans-52"/>
     <use xlink:href="#DejaVuSans-61" x="67.232422"/>
     <use xlink:href="#DejaVuSans-64" x="128.511719"/>
     <use xlink:href="#DejaVuSans-69" x="191.988281"/>
     <use xlink:href="#DejaVuSans-61" x="219.771484"/>
     <use xlink:href="#DejaVuSans-74" x="281.050781"/>
     <use xlink:href="#DejaVuSans-69" x="320.259766"/>
     <use xlink:href="#DejaVuSans-6f" x="348.042969"/>
     <use xlink:href="#DejaVuSans-6e" x="409.224609"/>
     <use xlink:href="#DejaVuSans-20" x="472.603516"/>
     <use xlink:href="#DejaVuSans-44" x="504.390625"/>
     <use xlink:href="#DejaVuSans-69" x="581.392578"/>
     <use xlink:href="#DejaVuSans-61" x="609.175781"/>
     <use xlink:href="#DejaVuSans-67" x="670.455078"/>
     <use xlink:href="#DejaVuSans-72" x="733.931641"/>
     <use xlink:href="#DejaVuSans-61" x="775.044922"/>
     <use xlink:href="#DejaVuSans-6d" x="836.324219"/>
     <use xlink:href="#DejaVuSans-20" x="933.736328"/>
     <use xlink:href="#DejaVuSans-2d" x="965.523438"/>
     <use xlink:href="#DejaVuSans-20" x="1001.607422"/>
     <use xlink:href="#DejaVuSans-31" x="1033.394531"/>
     <use xlink:href="#DejaVuSans-41" x="1097.017578"/>
     <use xlink:href="#DejaVuSans-56" x="1159.050781"/>
     <use xlink:href="#DejaVuSans-56" x="1227.458984"/>
     <use xlink:href="#DejaVuSans-46" x="1295.867188"/>
     <use xlink:href="#DejaVuSans-30" x="1353.386719"/>
     <use xlink:href="#DejaVuSans-33" x="1417.009766"/>
    </g>
   </g>
   <g id="legend_1">
    <g id="patch_4">
     <path d="M 304.104062 78.513437 
L 358.88375 78.513437 
Q 360.88375 78.513437 360.88375 76.513437 
L 360.88375 48.157187 
Q 360.88375 46.157187 358.88375 46.157187 
L 304.104062 46.157187 
Q 302.104062 46.157187 302.104062 48.157187 
L 302.104062 76.513437 
Q 302.104062 78.513437 304.104062 78.513437 
z
" style="fill: #ffffff; opacity: 0.8; stroke: #cccccc; stroke-linejoin: miter"/>
    </g>
    <g id="line2d_21">
     <path d="M 306.104062 54.255625 
L 316.104062 54.255625 
L 326.104062 54.255625 
" style="fill: none; stroke: #ff0000; stroke-width: 1.5; stroke-linecap: square"/>
    </g>
    <g id="text_20">
     <!-- INPE -->
     <g transform="translate(334.104062 57.755625)scale(0.1 -0.1)">
      <defs>
       <path id="DejaVuSans-49" d="M 628 4666 
L 1259 4666 
L 1259 0 
L 628 0 
L 628 4666 
z
" transform="scale(0.015625)"/>
       <path id="DejaVuSans-4e" d="M 628 4666 
L 1478 4666 
L 3547 763 
L 3547 4666 
L 4159 4666 
L 4159 0 
L 3309 0 
L 1241 3903 
L 1241 0 
L 628 0 
L 628 4666 
z
" transform="scale(0.015625)"/>
       <path id="DejaVuSans-50" d="M 1259 4147 
L 1259 2394 
L 2053 2394 
Q 2494 2394 2734 2622 
Q 2975 2850 2975 3272 
Q 2975 3691 2734 3919 
Q 2494 4147 2053 4147 
L 1259 4147 
z
M 628 4666 
L 2053 4666 
Q 2838 4666 3239 4311 
Q 3641 3956 3641 3272 
Q 3641 2581 3239 2228 
Q 2838 1875 2053 1875 
L 1259 1875 
L 1259 0 
L 628 0 
L 628 4666 
z
" transform="scale(0.015625)"/>
       <path id="DejaVuSans-45" d="M 628 4666 
L 3578 4666 
L 3578 4134 
L 1259 4134 
L 1259 2753 
L 3481 2753 
L 3481 2222 
L 1259 2222 
L 1259 531 
L 3634 531 
L 3634 0 
L 628 0 
L 628 4666 
z
" transform="scale(0.015625)"/>
      </defs>
      <use xlink:href="#DejaVuSans-49"/>
      <use xlink:href="#DejaVuSans-4e" x="29.492188"/>
      <use xlink:href="#DejaVuSans-50" x="104.296875"/>
      <use xlink:href="#DejaVuSans-45" x="164.599609"/>
     </g>
    </g>
    <g id="line2d_22">
     <path d="M 306.104062 68.93375 
L 316.104062 68.93375 
L 326.104062 68.93375 
" style="fill: none; stroke-dasharray: 5.55,2.4; stroke-dashoffset: 0; stroke: #0000ff; stroke-width: 1.5"/>
    </g>
    <g id="text_21">
     <!-- CST -->
     <g transform="translate(334.104062 72.43375)scale(0.1 -0.1)">
      <defs>
       <path id="DejaVuSans-43" d="M 4122 4306 
L 4122 3641 
Q 3803 3938 3442 4084 
Q 3081 4231 2675 4231 
Q 1875 4231 1450 3742 
Q 1025 3253 1025 2328 
Q 1025 1406 1450 917 
Q 1875 428 2675 428 
Q 3081 428 3442 575 
Q 3803 722 4122 1019 
L 4122 359 
Q 3791 134 3420 21 
Q 3050 -91 2638 -91 
Q 1578 -91 968 557 
Q 359 1206 359 2328 
Q 359 3453 968 4101 
Q 1578 4750 2638 4750 
Q 3056 4750 3426 4639 
Q 3797 4528 4122 4306 
z
" transform="scale(0.015625)"/>
       <path id="DejaVuSans-53" d="M 3425 4513 
L 3425 3897 
Q 3066 4069 2747 4153 
Q 2428 4238 2131 4238 
Q 1616 4238 1336 4038 
Q 1056 3838 1056 3469 
Q 1056 3159 1242 3001 
Q 1428 2844 1947 2747 
L 2328 2669 
Q 3034 2534 3370 2195 
Q 3706 1856 3706 1288 
Q 3706 609 3251 259 
Q 2797 -91 1919 -91 
Q 1588 -91 1214 -16 
Q 841 59 441 206 
L 441 856 
Q 825 641 1194 531 
Q 1563 422 1919 422 
Q 2459 422 2753 634 
Q 3047 847 3047 1241 
Q 3047 1584 2836 1778 
Q 2625 1972 2144 2069 
L 1759 2144 
Q 1053 2284 737 2584 
Q 422 2884 422 3419 
Q 422 4038 858 4394 
Q 1294 4750 2059 4750 
Q 2388 4750 2728 4690 
Q 3069 4631 3425 4513 
z
" transform="scale(0.015625)"/>
       <path id="DejaVuSans-54" d="M -19 4666 
L 3928 4666 
L 3928 4134 
L 2272 4134 
L 2272 0 
L 1638 0 
L 1638 4134 
L -19 4134 
L -19 4666 
z
" transform="scale(0.015625)"/>
      </defs>
      <use xlink:href="#DejaVuSans-43"/>
      <use xlink:href="#DejaVuSans-53" x="69.824219"/>
      <use xlink:href="#DejaVuSans-54" x="133.300781"/>
     </g>
    </g>
   </g>
  </g>
 </g>
 <defs>
  <clipPath id="pa9415164b8">
   <path d="M 365.88375 207.477187 
C 365.88375 185.636245 361.581561 164.007679 353.223394 143.829279 
C 344.865227 123.650879 332.613628 105.315066 317.16975 89.871188 
C 301.725871 74.427309 283.390058 62.17571 263.211658 53.817544 
C 243.033259 45.459377 221.404692 41.157187 199.56375 41.157187 
C 177.722808 41.157187 156.094241 45.459377 135.915842 53.817544 
C 115.737442 62.17571 97.401629 74.427309 81.95775 89.871188 
C 66.513872 105.315066 54.262273 123.650879 45.904106 143.829279 
C 37.545939 164.007679 33.24375 185.636245 33.24375 207.477187 
C 33.24375 229.31813 37.545939 250.946696 45.904106 271.125096 
C 54.262273 291.303496 66.513872 309.639309 81.95775 325.083187 
C 97.401629 340.527066 115.737442 352.778665 135.915842 361.136831 
C 156.094241 369.494998 177.722808 373.797188 199.56375 373.797188 
C 221.404692 373.797188 243.033259 369.494998 263.211658 361.136831 
C 283.390058 352.778665 301.725871 340.527066 317.16975 325.083187 
C 332.613628 309.639309 344.865227 291.303496 353.223394 271.125096 
C 361.581561 250.946696 365.88375 229.31813 365.88375 207.477188 
M 199.56375 207.477187 
C 199.56375 207.477187 199.56375 207.477187 199.56375 207.477187 
C 199.56375 207.477187 199.56375 207.477187 199.56375 207.477187 
C 199.56375 207.477187 199.56375 207.477187 199.56375 207.477187 
C 199.56375 207.477187 199.56375 207.477187 199.56375 207.477187 
C 199.56375 207.477187 199.56375 207.477187 199.56375 207.477187 
C 199.56375 207.477187 199.56375 207.477187 199.56375 207.477187 
C 199.56375 207.477187 199.56375 207.477187 199.56375 207.477187 
C 199.56375 207.477187 199.56375 207.477187 199.56375 207.477187 
C 199.56375 207.477187 199.56375 207.477187 199.56375 207.477187 
C 199.56375 207.477187 199.56375 207.477187 199.56375 207.477187 
C 199.56375 207.477187 199.56375 207.477187 199.56375 207.477187 
C 199.56375 207.477187 199.56375 207.477187 199.56375 207.477187 
C 199.56375 207.477187 199.56375 207.477187 199.56375 207.477187 
C 199.56375 207.477187 199.56375 207.477187 199.56375 207.477187 
C 199.56375 207.477187 199.56375 207.477187 199.56375 207.477187 
C 199.56375 207.477187 199.56375 207.477187 199.56375 207.477187 
M 365.88375 207.477187 
z
"/>
  </clipPath>
 </defs>
</svg>
