<?xml version="1.0" encoding="utf-8" standalone="no"?>
<!DOCTYPE svg PUBLIC "-//W3C//DTD SVG 1.1//EN"
  "http://www.w3.org/Graphics/SVG/1.1/DTD/svg11.dtd">
<svg xmlns:xlink="http://www.w3.org/1999/xlink" width="392.765pt" height="399.83625pt" viewBox="0 0 392.765 399.83625" xmlns="http://www.w3.org/2000/svg" version="1.1">
 <metadata>
  <rdf:RDF xmlns:dc="http://purl.org/dc/elements/1.1/" xmlns:cc="http://creativecommons.org/ns#" xmlns:rdf="http://www.w3.org/1999/02/22-rdf-syntax-ns#">
   <cc:Work>
    <dc:type rdf:resource="http://purl.org/dc/dcmitype/StillImage"/>
    <dc:date>2023-11-01T17:31:48.766232</dc:date>
    <dc:format>image/svg+xml</dc:format>
    <dc:creator>
     <cc:Agent>
      <dc:title>Matplotlib v3.5.1, https://matplotlib.org/</dc:title>
     </cc:Agent>
    </dc:creator>
   </cc:Work>
  </rdf:RDF>
 </metadata>
 <defs>
  <style type="text/css">*{stroke-linejoin: round; stroke-linecap: butt}</style>
 </defs>
 <g id="figure_1">
  <g id="patch_1">
   <path d="M 0 399.83625 
L 392.765 399.83625 
L 392.765 0 
L 0 0 
z
" style="fill: #ffffff"/>
  </g>
  <g id="axes_1">
   <g id="patch_2">
    <path d="M 365.88375 207.477187 
C 365.88375 185.636245 361.581561 164.007679 353.223394 143.829279 
C 344.865227 123.650879 332.613628 105.315066 317.16975 89.871188 
C 301.725871 74.427309 283.390058 62.17571 263.211658 53.817544 
C 243.033259 45.459377 221.404692 41.157187 199.56375 41.157187 
C 177.722808 41.157187 156.094241 45.459377 135.915842 53.817544 
C 115.737442 62.17571 97.401629 74.427309 81.95775 89.871188 
C 66.513872 105.315066 54.262273 123.650879 45.904106 143.829279 
C 37.545939 164.007679 33.24375 185.636245 33.24375 207.477187 
C 33.24375 229.31813 37.545939 250.946696 45.904106 271.125096 
C 54.262273 291.303496 66.513872 309.639309 81.95775 325.083187 
C 97.401629 340.527066 115.737442 352.778665 135.915842 361.136831 
C 156.094241 369.494998 177.722808 373.797188 199.56375 373.797188 
C 221.404692 373.797188 243.033259 369.494998 263.211658 361.136831 
C 283.390058 352.778665 301.725871 340.527066 317.16975 325.083187 
C 332.613628 309.639309 344.865227 291.303496 353.223394 271.125096 
C 361.581561 250.946696 365.88375 229.31813 365.88375 207.477188 
M 199.56375 207.477187 
C 199.56375 207.477187 199.56375 207.477187 199.56375 207.477187 
C 199.56375 207.477187 199.56375 207.477187 199.56375 207.477187 
C 199.56375 207.477187 199.56375 207.477187 199.56375 207.477187 
C 199.56375 207.477187 199.56375 207.477187 199.56375 207.477187 
C 199.56375 207.477187 199.56375 207.477187 199.56375 207.477187 
C 199.56375 207.477187 199.56375 207.477187 199.56375 207.477187 
C 199.56375 207.477187 199.56375 207.477187 199.56375 207.477187 
C 199.56375 207.477187 199.56375 207.477187 199.56375 207.477187 
C 199.56375 207.477187 199.56375 207.477187 199.56375 207.477187 
C 199.56375 207.477187 199.56375 207.477187 199.56375 207.477187 
C 199.56375 207.477187 199.56375 207.477187 199.56375 207.477187 
C 199.56375 207.477187 199.56375 207.477187 199.56375 207.477187 
C 199.56375 207.477187 199.56375 207.477187 199.56375 207.477187 
C 199.56375 207.477187 199.56375 207.477187 199.56375 207.477187 
C 199.56375 207.477187 199.56375 207.477187 199.56375 207.477187 
C 199.56375 207.477187 199.56375 207.477187 199.56375 207.477187 
M 365.88375 207.477187 
z
" style="fill: #ffffff"/>
   </g>
   <g id="matplotlib.axis_1">
    <g id="xtick_1">
     <g id="line2d_1">
      <path d="M 199.56375 207.477187 
L 365.88375 207.477187 
" clip-path="url(#p673d7b5a88)" style="fill: none; stroke: #b0b0b0; stroke-width: 0.8; stroke-linecap: square"/>
     </g>
     <g id="text_1">
      <!-- 0° -->
      <g transform="translate(374.2025 210.236562)scale(0.1 -0.1)">
       <defs>
        <path id="DejaVuSans-30" d="M 2034 4250 
Q 1547 4250 1301 3770 
Q 1056 3291 1056 2328 
Q 1056 1369 1301 889 
Q 1547 409 2034 409 
Q 2525 409 2770 889 
Q 3016 1369 3016 2328 
Q 3016 3291 2770 3770 
Q 2525 4250 2034 4250 
z
M 2034 4750 
Q 2819 4750 3233 4129 
Q 3647 3509 3647 2328 
Q 3647 1150 3233 529 
Q 2819 -91 2034 -91 
Q 1250 -91 836 529 
Q 422 1150 422 2328 
Q 422 3509 836 4129 
Q 1250 4750 2034 4750 
z
" transform="scale(0.015625)"/>
        <path id="DejaVuSans-b0" d="M 1600 4347 
Q 1350 4347 1178 4173 
Q 1006 4000 1006 3750 
Q 1006 3503 1178 3333 
Q 1350 3163 1600 3163 
Q 1850 3163 2022 3333 
Q 2194 3503 2194 3750 
Q 2194 3997 2020 4172 
Q 1847 4347 1600 4347 
z
M 1600 4750 
Q 1800 4750 1984 4673 
Q 2169 4597 2303 4453 
Q 2447 4313 2519 4134 
Q 2591 3956 2591 3750 
Q 2591 3338 2302 3052 
Q 2013 2766 1594 2766 
Q 1172 2766 890 3047 
Q 609 3328 609 3750 
Q 609 4169 896 4459 
Q 1184 4750 1600 4750 
z
" transform="scale(0.015625)"/>
       </defs>
       <use xlink:href="#DejaVuSans-30"/>
       <use xlink:href="#DejaVuSans-b0" x="63.623047"/>
      </g>
     </g>
    </g>
    <g id="xtick_2">
     <g id="line2d_2">
      <path d="M 199.56375 207.477187 
L 317.16975 89.871188 
" clip-path="url(#p673d7b5a88)" style="fill: none; stroke: #b0b0b0; stroke-width: 0.8; stroke-linecap: square"/>
     </g>
     <g id="text_2">
      <!-- 45° -->
      <g transform="translate(318.206745 82.731068)scale(0.1 -0.1)">
       <defs>
        <path id="DejaVuSans-34" d="M 2419 4116 
L 825 1625 
L 2419 1625 
L 2419 4116 
z
M 2253 4666 
L 3047 4666 
L 3047 1625 
L 3713 1625 
L 3713 1100 
L 3047 1100 
L 3047 0 
L 2419 0 
L 2419 1100 
L 313 1100 
L 313 1709 
L 2253 4666 
z
" transform="scale(0.015625)"/>
        <path id="DejaVuSans-35" d="M 691 4666 
L 3169 4666 
L 3169 4134 
L 1269 4134 
L 1269 2991 
Q 1406 3038 1543 3061 
Q 1681 3084 1819 3084 
Q 2600 3084 3056 2656 
Q 3513 2228 3513 1497 
Q 3513 744 3044 326 
Q 2575 -91 1722 -91 
Q 1428 -91 1123 -41 
Q 819 9 494 109 
L 494 744 
Q 775 591 1075 516 
Q 1375 441 1709 441 
Q 2250 441 2565 725 
Q 2881 1009 2881 1497 
Q 2881 1984 2565 2268 
Q 2250 2553 1709 2553 
Q 1456 2553 1204 2497 
Q 953 2441 691 2322 
L 691 4666 
z
" transform="scale(0.015625)"/>
       </defs>
       <use xlink:href="#DejaVuSans-34"/>
       <use xlink:href="#DejaVuSans-35" x="63.623047"/>
       <use xlink:href="#DejaVuSans-b0" x="127.246094"/>
      </g>
     </g>
    </g>
    <g id="xtick_3">
     <g id="line2d_3">
      <path d="M 199.56375 207.477187 
L 199.56375 41.157187 
" clip-path="url(#p673d7b5a88)" style="fill: none; stroke: #b0b0b0; stroke-width: 0.8; stroke-linecap: square"/>
     </g>
     <g id="text_3">
      <!-- 90° -->
      <g transform="translate(190.70125 29.916562)scale(0.1 -0.1)">
       <defs>
        <path id="DejaVuSans-39" d="M 703 97 
L 703 672 
Q 941 559 1184 500 
Q 1428 441 1663 441 
Q 2288 441 2617 861 
Q 2947 1281 2994 2138 
Q 2813 1869 2534 1725 
Q 2256 1581 1919 1581 
Q 1219 1581 811 2004 
Q 403 2428 403 3163 
Q 403 3881 828 4315 
Q 1253 4750 1959 4750 
Q 2769 4750 3195 4129 
Q 3622 3509 3622 2328 
Q 3622 1225 3098 567 
Q 2575 -91 1691 -91 
Q 1453 -91 1209 -44 
Q 966 3 703 97 
z
M 1959 2075 
Q 2384 2075 2632 2365 
Q 2881 2656 2881 3163 
Q 2881 3666 2632 3958 
Q 2384 4250 1959 4250 
Q 1534 4250 1286 3958 
Q 1038 3666 1038 3163 
Q 1038 2656 1286 2365 
Q 1534 2075 1959 2075 
z
" transform="scale(0.015625)"/>
       </defs>
       <use xlink:href="#DejaVuSans-39"/>
       <use xlink:href="#DejaVuSans-30" x="63.623047"/>
       <use xlink:href="#DejaVuSans-b0" x="127.246094"/>
      </g>
     </g>
    </g>
    <g id="xtick_4">
     <g id="line2d_4">
      <path d="M 199.56375 207.477187 
L 81.95775 89.871188 
" clip-path="url(#p673d7b5a88)" style="fill: none; stroke: #b0b0b0; stroke-width: 0.8; stroke-linecap: square"/>
     </g>
     <g id="text_4">
      <!-- 135° -->
      <g transform="translate(60.014505 82.731068)scale(0.1 -0.1)">
       <defs>
        <path id="DejaVuSans-31" d="M 794 531 
L 1825 531 
L 1825 4091 
L 703 3866 
L 703 4441 
L 1819 4666 
L 2450 4666 
L 2450 531 
L 3481 531 
L 3481 0 
L 794 0 
L 794 531 
z
" transform="scale(0.015625)"/>
        <path id="DejaVuSans-33" d="M 2597 2516 
Q 3050 2419 3304 2112 
Q 3559 1806 3559 1356 
Q 3559 666 3084 287 
Q 2609 -91 1734 -91 
Q 1441 -91 1130 -33 
Q 819 25 488 141 
L 488 750 
Q 750 597 1062 519 
Q 1375 441 1716 441 
Q 2309 441 2620 675 
Q 2931 909 2931 1356 
Q 2931 1769 2642 2001 
Q 2353 2234 1838 2234 
L 1294 2234 
L 1294 2753 
L 1863 2753 
Q 2328 2753 2575 2939 
Q 2822 3125 2822 3475 
Q 2822 3834 2567 4026 
Q 2313 4219 1838 4219 
Q 1578 4219 1281 4162 
Q 984 4106 628 3988 
L 628 4550 
Q 988 4650 1302 4700 
Q 1616 4750 1894 4750 
Q 2613 4750 3031 4423 
Q 3450 4097 3450 3541 
Q 3450 3153 3228 2886 
Q 3006 2619 2597 2516 
z
" transform="scale(0.015625)"/>
       </defs>
       <use xlink:href="#DejaVuSans-31"/>
       <use xlink:href="#DejaVuSans-33" x="63.623047"/>
       <use xlink:href="#DejaVuSans-35" x="127.246094"/>
       <use xlink:href="#DejaVuSans-b0" x="190.869141"/>
      </g>
     </g>
    </g>
    <g id="xtick_5">
     <g id="line2d_5">
      <path d="M 199.56375 207.477187 
L 33.24375 207.477187 
" clip-path="url(#p673d7b5a88)" style="fill: none; stroke: #b0b0b0; stroke-width: 0.8; stroke-linecap: square"/>
     </g>
     <g id="text_5">
      <!-- 180° -->
      <g transform="translate(7.2 210.236562)scale(0.1 -0.1)">
       <defs>
        <path id="DejaVuSans-38" d="M 2034 2216 
Q 1584 2216 1326 1975 
Q 1069 1734 1069 1313 
Q 1069 891 1326 650 
Q 1584 409 2034 409 
Q 2484 409 2743 651 
Q 3003 894 3003 1313 
Q 3003 1734 2745 1975 
Q 2488 2216 2034 2216 
z
M 1403 2484 
Q 997 2584 770 2862 
Q 544 3141 544 3541 
Q 544 4100 942 4425 
Q 1341 4750 2034 4750 
Q 2731 4750 3128 4425 
Q 3525 4100 3525 3541 
Q 3525 3141 3298 2862 
Q 3072 2584 2669 2484 
Q 3125 2378 3379 2068 
Q 3634 1759 3634 1313 
Q 3634 634 3220 271 
Q 2806 -91 2034 -91 
Q 1263 -91 848 271 
Q 434 634 434 1313 
Q 434 1759 690 2068 
Q 947 2378 1403 2484 
z
M 1172 3481 
Q 1172 3119 1398 2916 
Q 1625 2713 2034 2713 
Q 2441 2713 2670 2916 
Q 2900 3119 2900 3481 
Q 2900 3844 2670 4047 
Q 2441 4250 2034 4250 
Q 1625 4250 1398 4047 
Q 1172 3844 1172 3481 
z
" transform="scale(0.015625)"/>
       </defs>
       <use xlink:href="#DejaVuSans-31"/>
       <use xlink:href="#DejaVuSans-38" x="63.623047"/>
       <use xlink:href="#DejaVuSans-30" x="127.246094"/>
       <use xlink:href="#DejaVuSans-b0" x="190.869141"/>
      </g>
     </g>
    </g>
    <g id="xtick_6">
     <g id="line2d_6">
      <path d="M 199.56375 207.477187 
L 81.95775 325.083187 
" clip-path="url(#p673d7b5a88)" style="fill: none; stroke: #b0b0b0; stroke-width: 0.8; stroke-linecap: square"/>
     </g>
     <g id="text_6">
      <!-- 225° -->
      <g transform="translate(60.014505 337.742057)scale(0.1 -0.1)">
       <defs>
        <path id="DejaVuSans-32" d="M 1228 531 
L 3431 531 
L 3431 0 
L 469 0 
L 469 531 
Q 828 903 1448 1529 
Q 2069 2156 2228 2338 
Q 2531 2678 2651 2914 
Q 2772 3150 2772 3378 
Q 2772 3750 2511 3984 
Q 2250 4219 1831 4219 
Q 1534 4219 1204 4116 
Q 875 4013 500 3803 
L 500 4441 
Q 881 4594 1212 4672 
Q 1544 4750 1819 4750 
Q 2544 4750 2975 4387 
Q 3406 4025 3406 3419 
Q 3406 3131 3298 2873 
Q 3191 2616 2906 2266 
Q 2828 2175 2409 1742 
Q 1991 1309 1228 531 
z
" transform="scale(0.015625)"/>
       </defs>
       <use xlink:href="#DejaVuSans-32"/>
       <use xlink:href="#DejaVuSans-32" x="63.623047"/>
       <use xlink:href="#DejaVuSans-35" x="127.246094"/>
       <use xlink:href="#DejaVuSans-b0" x="190.869141"/>
      </g>
     </g>
    </g>
    <g id="xtick_7">
     <g id="line2d_7">
      <path d="M 199.56375 207.477187 
L 199.56375 373.797188 
" clip-path="url(#p673d7b5a88)" style="fill: none; stroke: #b0b0b0; stroke-width: 0.8; stroke-linecap: square"/>
     </g>
     <g id="text_7">
      <!-- 270° -->
      <g transform="translate(187.52 390.556562)scale(0.1 -0.1)">
       <defs>
        <path id="DejaVuSans-37" d="M 525 4666 
L 3525 4666 
L 3525 4397 
L 1831 0 
L 1172 0 
L 2766 4134 
L 525 4134 
L 525 4666 
z
" transform="scale(0.015625)"/>
       </defs>
       <use xlink:href="#DejaVuSans-32"/>
       <use xlink:href="#DejaVuSans-37" x="63.623047"/>
       <use xlink:href="#DejaVuSans-30" x="127.246094"/>
       <use xlink:href="#DejaVuSans-b0" x="190.869141"/>
      </g>
     </g>
    </g>
    <g id="xtick_8">
     <g id="line2d_8">
      <path d="M 199.56375 207.477187 
L 317.16975 325.083187 
" clip-path="url(#p673d7b5a88)" style="fill: none; stroke: #b0b0b0; stroke-width: 0.8; stroke-linecap: square"/>
     </g>
     <g id="text_8">
      <!-- 315° -->
      <g transform="translate(315.025495 337.742057)scale(0.1 -0.1)">
       <use xlink:href="#DejaVuSans-33"/>
       <use xlink:href="#DejaVuSans-31" x="63.623047"/>
       <use xlink:href="#DejaVuSans-35" x="127.246094"/>
       <use xlink:href="#DejaVuSans-b0" x="190.869141"/>
      </g>
     </g>
    </g>
   </g>
   <g id="matplotlib.axis_2">
    <g id="ytick_1">
     <g id="line2d_9">
      <path d="M 265.700333 207.477187 
C 265.700333 198.792211 263.989582 190.191685 260.665986 182.167813 
C 257.342389 174.143941 252.470582 166.852767 246.329377 160.711561 
C 240.188171 154.570355 232.896997 149.698548 224.873125 146.374952 
C 216.849253 143.051355 208.248727 141.340604 199.56375 141.340604 
C 190.878773 141.340604 182.278247 143.051355 174.254375 146.374952 
C 166.230503 149.698548 158.939329 154.570355 152.798123 160.711561 
C 146.656918 166.852767 141.785111 174.143941 138.461514 182.167813 
C 135.137918 190.191685 133.427167 198.792211 133.427167 207.477187 
C 133.427167 216.162164 135.137918 224.76269 138.461514 232.786562 
C 141.785111 240.810434 146.656918 248.101608 152.798123 254.242814 
C 158.939329 260.38402 166.230503 265.255827 174.254375 268.579423 
C 182.278247 271.90302 190.878773 273.613771 199.56375 273.613771 
C 208.248727 273.613771 216.849253 271.90302 224.873125 268.579423 
C 232.896997 265.255827 240.188171 260.38402 246.329377 254.242814 
C 252.470582 248.101608 257.342389 240.810434 260.665986 232.786562 
C 263.989582 224.76269 265.700333 216.162164 265.700333 207.477188 
" clip-path="url(#p673d7b5a88)" style="fill: none; stroke: #b0b0b0; stroke-width: 0.8; stroke-linecap: square"/>
     </g>
     <g id="text_9">
      <!-- −30 -->
      <g transform="translate(260.665986 180.088125)scale(0.1 -0.1)">
       <defs>
        <path id="DejaVuSans-2212" d="M 678 2272 
L 4684 2272 
L 4684 1741 
L 678 1741 
L 678 2272 
z
" transform="scale(0.015625)"/>
       </defs>
       <use xlink:href="#DejaVuSans-2212"/>
       <use xlink:href="#DejaVuSans-33" x="83.789062"/>
       <use xlink:href="#DejaVuSans-30" x="147.412109"/>
      </g>
     </g>
    </g>
    <g id="ytick_2">
     <g id="line2d_10">
      <path d="M 275.718675 207.477187 
C 275.718675 197.476614 273.74878 187.573284 269.921727 178.333959 
C 266.094673 169.094635 260.484887 160.698997 253.413414 153.627524 
C 246.341941 146.55605 237.946303 140.946265 228.706978 137.119211 
C 219.467653 133.292157 209.564323 131.322262 199.56375 131.322262 
C 189.563177 131.322262 179.659847 133.292157 170.420522 137.119211 
C 161.181197 140.946265 152.785559 146.55605 145.714086 153.627524 
C 138.642613 160.698997 133.032827 169.094635 129.205773 178.333959 
C 125.37872 187.573284 123.408825 197.476614 123.408825 207.477187 
C 123.408825 217.477761 125.37872 227.381091 129.205773 236.620416 
C 133.032827 245.85974 138.642613 254.255378 145.714086 261.326851 
C 152.785559 268.398325 161.181197 274.00811 170.420522 277.835164 
C 179.659847 281.662218 189.563177 283.632113 199.56375 283.632113 
C 209.564323 283.632113 219.467653 281.662218 228.706978 277.835164 
C 237.946303 274.00811 246.341941 268.398325 253.413414 261.326851 
C 260.484887 254.255378 266.094673 245.85974 269.921727 236.620416 
C 273.74878 227.381091 275.718675 217.477761 275.718675 207.477188 
" clip-path="url(#p673d7b5a88)" style="fill: none; stroke: #b0b0b0; stroke-width: 0.8; stroke-linecap: square"/>
     </g>
     <g id="text_10">
      <!-- −27 -->
      <g transform="translate(269.921727 176.254272)scale(0.1 -0.1)">
       <use xlink:href="#DejaVuSans-2212"/>
       <use xlink:href="#DejaVuSans-32" x="83.789062"/>
       <use xlink:href="#DejaVuSans-37" x="147.412109"/>
      </g>
     </g>
    </g>
    <g id="ytick_3">
     <g id="line2d_11">
      <path d="M 285.737017 207.477187 
C 285.737017 196.161018 283.507978 184.954884 279.177467 174.500106 
C 274.846957 164.045328 268.499192 154.545227 260.497451 146.543486 
C 252.495711 138.541746 242.995609 132.193981 232.540831 127.86347 
C 222.086054 123.532959 210.87992 121.303921 199.56375 121.303921 
C 188.24758 121.303921 177.041446 123.532959 166.586669 127.86347 
C 156.131891 132.193981 146.631789 138.541746 138.630049 146.543486 
C 130.628308 154.545227 124.280543 164.045328 119.950033 174.500106 
C 115.619522 184.954884 113.390483 196.161018 113.390483 207.477187 
C 113.390483 218.793357 115.619522 229.999491 119.950033 240.454269 
C 124.280543 250.909047 130.628308 260.409148 138.630049 268.410889 
C 146.631789 276.412629 156.131891 282.760394 166.586669 287.090905 
C 177.041446 291.421416 188.24758 293.650454 199.56375 293.650454 
C 210.87992 293.650454 222.086054 291.421416 232.540831 287.090905 
C 242.995609 282.760394 252.495711 276.412629 260.497451 268.410889 
C 268.499192 260.409148 274.846957 250.909047 279.177467 240.454269 
C 283.507978 229.999491 285.737017 218.793357 285.737017 207.477188 
" clip-path="url(#p673d7b5a88)" style="fill: none; stroke: #b0b0b0; stroke-width: 0.8; stroke-linecap: square"/>
     </g>
     <g id="text_11">
      <!-- −24 -->
      <g transform="translate(279.177467 172.420419)scale(0.1 -0.1)">
       <use xlink:href="#DejaVuSans-2212"/>
       <use xlink:href="#DejaVuSans-32" x="83.789062"/>
       <use xlink:href="#DejaVuSans-34" x="147.412109"/>
      </g>
     </g>
    </g>
    <g id="ytick_4">
     <g id="line2d_12">
      <path d="M 295.755358 207.477187 
C 295.755358 194.845421 293.267176 182.336483 288.433208 170.666253 
C 283.599241 158.996022 276.513496 148.391457 267.581489 139.459449 
C 258.649481 130.527441 248.044915 123.441697 236.374685 118.607729 
C 224.704455 113.773762 212.195516 111.285579 199.56375 111.285579 
C 186.931984 111.285579 174.423045 113.773762 162.752815 118.607729 
C 151.082585 123.441697 140.478019 130.527441 131.546011 139.459449 
C 122.614004 148.391457 115.528259 158.996022 110.694292 170.666253 
C 105.860324 182.336483 103.372142 194.845421 103.372142 207.477187 
C 103.372142 220.108954 105.860324 232.617892 110.694292 244.288122 
C 115.528259 255.958353 122.614004 266.562918 131.546011 275.494926 
C 140.478019 284.426934 151.082585 291.512678 162.752815 296.346646 
C 174.423045 301.180613 186.931984 303.668796 199.56375 303.668796 
C 212.195516 303.668796 224.704455 301.180613 236.374685 296.346646 
C 248.044915 291.512678 258.649481 284.426934 267.581489 275.494926 
C 276.513496 266.562918 283.599241 255.958353 288.433208 244.288122 
C 293.267176 232.617892 295.755358 220.108954 295.755358 207.477188 
" clip-path="url(#p673d7b5a88)" style="fill: none; stroke: #b0b0b0; stroke-width: 0.8; stroke-linecap: square"/>
     </g>
     <g id="text_12">
      <!-- −21 -->
      <g transform="translate(288.433208 168.586565)scale(0.1 -0.1)">
       <use xlink:href="#DejaVuSans-2212"/>
       <use xlink:href="#DejaVuSans-32" x="83.789062"/>
       <use xlink:href="#DejaVuSans-31" x="147.412109"/>
      </g>
     </g>
    </g>
    <g id="ytick_5">
     <g id="line2d_13">
      <path d="M 305.7737 207.477187 
C 305.7737 193.529825 303.026374 179.718082 297.688949 166.832399 
C 292.351524 153.946716 284.527801 142.237686 274.665526 132.375412 
C 264.803251 122.513137 253.094221 114.689413 240.208538 109.351989 
C 227.322855 104.014564 213.511113 101.267237 199.56375 101.267237 
C 185.616387 101.267237 171.804645 104.014564 158.918962 109.351989 
C 146.033279 114.689413 134.324249 122.513137 124.461974 132.375412 
C 114.599699 142.237686 106.775976 153.946716 101.438551 166.832399 
C 96.101126 179.718082 93.3538 193.529825 93.3538 207.477187 
C 93.3538 221.42455 96.101126 235.236293 101.438551 248.121976 
C 106.775976 261.007659 114.599699 272.716689 124.461974 282.578963 
C 134.324249 292.441238 146.033279 300.264962 158.918962 305.602386 
C 171.804645 310.939811 185.616387 313.687138 199.56375 313.687138 
C 213.511113 313.687138 227.322855 310.939811 240.208538 305.602386 
C 253.094221 300.264962 264.803251 292.441238 274.665526 282.578963 
C 284.527801 272.716689 292.351524 261.007659 297.688949 248.121976 
C 303.026374 235.236293 305.7737 221.42455 305.7737 207.477188 
" clip-path="url(#p673d7b5a88)" style="fill: none; stroke: #b0b0b0; stroke-width: 0.8; stroke-linecap: square"/>
     </g>
     <g id="text_13">
      <!-- −18 -->
      <g transform="translate(297.688949 164.752712)scale(0.1 -0.1)">
       <use xlink:href="#DejaVuSans-2212"/>
       <use xlink:href="#DejaVuSans-31" x="83.789062"/>
       <use xlink:href="#DejaVuSans-38" x="147.412109"/>
      </g>
     </g>
    </g>
    <g id="ytick_6">
     <g id="line2d_14">
      <path d="M 315.792042 207.477187 
C 315.792042 192.214228 312.785571 177.099682 306.94469 162.998546 
C 301.103808 148.89741 292.542105 136.083916 281.749563 125.291374 
C 270.957021 114.498832 258.143527 105.937129 244.042392 100.096248 
C 229.941256 94.255366 214.826709 91.248896 199.56375 91.248896 
C 184.300791 91.248896 169.186244 94.255366 155.085108 100.096248 
C 140.983973 105.937129 128.170479 114.498832 117.377937 125.291374 
C 106.585395 136.083916 98.023692 148.89741 92.18281 162.998546 
C 86.341929 177.099682 83.335458 192.214228 83.335458 207.477187 
C 83.335458 222.740147 86.341929 237.854693 92.18281 251.955829 
C 98.023692 266.056965 106.585395 278.870459 117.377937 289.663001 
C 128.170479 300.455543 140.983973 309.017246 155.085108 314.858127 
C 169.186244 320.699009 184.300791 323.705479 199.56375 323.705479 
C 214.826709 323.705479 229.941256 320.699009 244.042392 314.858127 
C 258.143527 309.017246 270.957021 300.455543 281.749563 289.663001 
C 292.542105 278.870459 301.103808 266.056965 306.94469 251.955829 
C 312.785571 237.854693 315.792042 222.740147 315.792042 207.477188 
" clip-path="url(#p673d7b5a88)" style="fill: none; stroke: #b0b0b0; stroke-width: 0.8; stroke-linecap: square"/>
     </g>
     <g id="text_14">
      <!-- −15 -->
      <g transform="translate(306.94469 160.918858)scale(0.1 -0.1)">
       <use xlink:href="#DejaVuSans-2212"/>
       <use xlink:href="#DejaVuSans-31" x="83.789062"/>
       <use xlink:href="#DejaVuSans-35" x="147.412109"/>
      </g>
     </g>
    </g>
    <g id="ytick_7">
     <g id="line2d_15">
      <path d="M 325.810383 207.477187 
C 325.810383 190.898632 322.544769 174.481281 316.200431 159.164693 
C 309.856092 143.848104 300.55641 129.930146 288.833601 118.207337 
C 277.110791 106.484528 263.192834 97.184846 247.876245 90.840507 
C 232.559656 84.496168 216.142306 81.230554 199.56375 81.230554 
C 182.985194 81.230554 166.567844 84.496168 151.251255 90.840507 
C 135.934666 97.184846 122.016709 106.484528 110.293899 118.207337 
C 98.57109 129.930146 89.271408 143.848104 82.927069 159.164693 
C 76.582731 174.481281 73.317117 190.898632 73.317117 207.477187 
C 73.317117 224.055743 76.582731 240.473094 82.927069 255.789682 
C 89.271408 271.106271 98.57109 285.024229 110.293899 296.747038 
C 122.016709 308.469847 135.934666 317.769529 151.251255 324.113868 
C 166.567844 330.458207 182.985194 333.723821 199.56375 333.723821 
C 216.142306 333.723821 232.559656 330.458207 247.876245 324.113868 
C 263.192834 317.769529 277.110791 308.469847 288.833601 296.747038 
C 300.55641 285.024229 309.856092 271.106271 316.200431 255.789682 
C 322.544769 240.473094 325.810383 224.055743 325.810383 207.477188 
" clip-path="url(#p673d7b5a88)" style="fill: none; stroke: #b0b0b0; stroke-width: 0.8; stroke-linecap: square"/>
     </g>
     <g id="text_15">
      <!-- −12 -->
      <g transform="translate(316.200431 157.085005)scale(0.1 -0.1)">
       <use xlink:href="#DejaVuSans-2212"/>
       <use xlink:href="#DejaVuSans-31" x="83.789062"/>
       <use xlink:href="#DejaVuSans-32" x="147.412109"/>
      </g>
     </g>
    </g>
    <g id="ytick_8">
     <g id="line2d_16">
      <path d="M 335.828725 207.477187 
C 335.828725 189.583035 332.303967 171.86288 325.456171 155.330839 
C 318.608376 138.798798 308.570714 123.776376 295.917638 111.1233 
C 283.264561 98.470223 268.24214 88.432562 251.710098 81.584766 
C 235.178057 74.73697 217.457903 71.212212 199.56375 71.212212 
C 181.669597 71.212212 163.949443 74.73697 147.417402 81.584766 
C 130.88536 88.432562 115.862939 98.470223 103.209862 111.1233 
C 90.556786 123.776376 80.519124 138.798798 73.671329 155.330839 
C 66.823533 171.86288 63.298775 189.583035 63.298775 207.477187 
C 63.298775 225.37134 66.823533 243.091495 73.671329 259.623536 
C 80.519124 276.155577 90.556786 291.177999 103.209862 303.831075 
C 115.862939 316.484152 130.88536 326.521813 147.417402 333.369609 
C 163.949443 340.217405 181.669597 343.742163 199.56375 343.742163 
C 217.457903 343.742163 235.178057 340.217405 251.710098 333.369609 
C 268.24214 326.521813 283.264561 316.484152 295.917638 303.831075 
C 308.570714 291.177999 318.608376 276.155577 325.456171 259.623536 
C 332.303967 243.091495 335.828725 225.37134 335.828725 207.477188 
" clip-path="url(#p673d7b5a88)" style="fill: none; stroke: #b0b0b0; stroke-width: 0.8; stroke-linecap: square"/>
     </g>
     <g id="text_16">
      <!-- −9 -->
      <g transform="translate(325.456171 153.251152)scale(0.1 -0.1)">
       <use xlink:href="#DejaVuSans-2212"/>
       <use xlink:href="#DejaVuSans-39" x="83.789062"/>
      </g>
     </g>
    </g>
    <g id="ytick_9">
     <g id="line2d_17">
      <path d="M 345.847067 207.477187 
C 345.847067 188.267438 342.063165 169.24448 334.711912 151.496986 
C 327.360659 133.749492 316.585019 117.622606 303.001675 104.039262 
C 289.418331 90.455918 273.291446 79.680278 255.543952 72.329025 
C 237.796458 64.977773 218.773499 61.193871 199.56375 61.193871 
C 180.354001 61.193871 161.331042 64.977773 143.583548 72.329025 
C 125.836054 79.680278 109.709169 90.455918 96.125825 104.039262 
C 82.542481 117.622606 71.766841 133.749492 64.415588 151.496986 
C 57.064335 169.24448 53.280433 188.267438 53.280433 207.477187 
C 53.280433 226.686937 57.064335 245.709895 64.415588 263.457389 
C 71.766841 281.204883 82.542481 297.331769 96.125825 310.915113 
C 109.709169 324.498457 125.836054 335.274097 143.583548 342.62535 
C 161.331042 349.976602 180.354001 353.760504 199.56375 353.760504 
C 218.773499 353.760504 237.796458 349.976602 255.543952 342.62535 
C 273.291446 335.274097 289.418331 324.498457 303.001675 310.915113 
C 316.585019 297.331769 327.360659 281.204883 334.711912 263.457389 
C 342.063165 245.709895 345.847067 226.686937 345.847067 207.477188 
" clip-path="url(#p673d7b5a88)" style="fill: none; stroke: #b0b0b0; stroke-width: 0.8; stroke-linecap: square"/>
     </g>
     <g id="text_17">
      <!-- −6 -->
      <g transform="translate(334.711912 149.417298)scale(0.1 -0.1)">
       <defs>
        <path id="DejaVuSans-36" d="M 2113 2584 
Q 1688 2584 1439 2293 
Q 1191 2003 1191 1497 
Q 1191 994 1439 701 
Q 1688 409 2113 409 
Q 2538 409 2786 701 
Q 3034 994 3034 1497 
Q 3034 2003 2786 2293 
Q 2538 2584 2113 2584 
z
M 3366 4563 
L 3366 3988 
Q 3128 4100 2886 4159 
Q 2644 4219 2406 4219 
Q 1781 4219 1451 3797 
Q 1122 3375 1075 2522 
Q 1259 2794 1537 2939 
Q 1816 3084 2150 3084 
Q 2853 3084 3261 2657 
Q 3669 2231 3669 1497 
Q 3669 778 3244 343 
Q 2819 -91 2113 -91 
Q 1303 -91 875 529 
Q 447 1150 447 2328 
Q 447 3434 972 4092 
Q 1497 4750 2381 4750 
Q 2619 4750 2861 4703 
Q 3103 4656 3366 4563 
z
" transform="scale(0.015625)"/>
       </defs>
       <use xlink:href="#DejaVuSans-2212"/>
       <use xlink:href="#DejaVuSans-36" x="83.789062"/>
      </g>
     </g>
    </g>
    <g id="ytick_10">
     <g id="line2d_18">
      <path d="M 355.865408 207.477187 
C 355.865408 186.951842 351.822363 166.626079 343.967653 147.663132 
C 336.112943 128.700186 324.599324 111.468836 310.085713 96.955225 
C 295.572101 82.441614 278.340752 70.927994 259.377805 63.073284 
C 240.414858 55.218575 220.089096 51.175529 199.56375 51.175529 
C 179.038404 51.175529 158.712642 55.218575 139.749695 63.073284 
C 120.786748 70.927994 103.555399 82.441614 89.041787 96.955225 
C 74.528176 111.468836 63.014557 128.700186 55.159847 147.663132 
C 47.305137 166.626079 43.262092 186.951842 43.262092 207.477187 
C 43.262092 228.002533 47.305137 248.328296 55.159847 267.291243 
C 63.014557 286.254189 74.528176 303.485539 89.041787 317.99915 
C 103.555399 332.512761 120.786748 344.026381 139.749695 351.881091 
C 158.712642 359.7358 179.038404 363.778846 199.56375 363.778846 
C 220.089096 363.778846 240.414858 359.7358 259.377805 351.881091 
C 278.340752 344.026381 295.572101 332.512761 310.085713 317.99915 
C 324.599324 303.485539 336.112943 286.254189 343.967653 267.291243 
C 351.822363 248.328296 355.865408 228.002533 355.865408 207.477188 
" clip-path="url(#p673d7b5a88)" style="fill: none; stroke: #b0b0b0; stroke-width: 0.8; stroke-linecap: square"/>
     </g>
     <g id="text_18">
      <!-- −3 -->
      <g transform="translate(343.967653 145.583445)scale(0.1 -0.1)">
       <use xlink:href="#DejaVuSans-2212"/>
       <use xlink:href="#DejaVuSans-33" x="83.789062"/>
      </g>
     </g>
    </g>
   </g>
   <g id="line2d_19">
    <path d="M 333.771626 207.477187 
L 336.065069 205.094548 
L 338.803436 200.179945 
L 340.110658 197.64919 
L 340.932386 195.109035 
L 342.229373 192.482426 
L 343.374523 189.819445 
L 343.917484 187.189593 
L 344.709041 184.488432 
L 345.114482 181.812666 
L 345.336083 179.141916 
L 346.041023 176.342482 
L 346.776956 170.772813 
L 346.923596 167.992236 
L 346.582995 159.707739 
L 346.036347 157.042628 
L 345.353498 154.414059 
L 344.389626 151.883742 
L 343.214649 149.438457 
L 341.767941 147.115089 
L 340.464014 144.744348 
L 338.905836 142.500906 
L 337.120312 140.38637 
L 334.952511 138.493168 
L 332.554428 136.76479 
L 329.156243 135.642895 
L 326.341364 134.282098 
L 323.450232 133.038679 
L 315.508787 132.1816 
L 310.827121 132.429096 
L 298.684359 135.46185 
L 289.128716 139.985145 
L 271.079657 151.602838 
L 236.757792 177.358047 
L 262.808368 154.408652 
L 279.804587 137.724892 
L 285.124208 130.438205 
L 290.124013 123.028376 
L 293.868371 116.408274 
L 295.443007 111.59793 
L 297.427284 106.136531 
L 297.909851 102.013906 
L 297.569293 98.631005 
L 297.5367 94.772201 
L 296.671014 91.749257 
L 294.279466 86.246599 
L 292.669795 83.921292 
L 289.032733 79.702238 
L 286.861954 78.052278 
L 284.558962 76.596038 
L 279.246363 74.86305 
L 276.298654 74.568436 
L 273.156272 74.712764 
L 270.211869 74.607401 
L 266.805796 75.507241 
L 263.240713 76.920066 
L 259.957504 77.962364 
L 256.155825 80.369305 
L 252.794974 82.072282 
L 250.029054 82.571177 
L 247.927623 81.48499 
L 246.397548 78.802385 
L 244.989498 75.551236 
L 244.087728 70.446472 
L 242.623808 66.634084 
L 240.998673 62.976438 
L 239.244901 59.385118 
L 237.055005 57.107976 
L 234.770548 54.979791 
L 232.300923 53.460896 
L 229.661507 52.637651 
L 226.908209 52.399053 
L 221.247952 53.186074 
L 218.374456 54.276278 
L 215.535551 55.515656 
L 212.769842 56.530869 
L 207.293731 59.980362 
L 204.669081 61.279645 
L 202.082943 63.152735 
L 197.093397 65.950765 
L 194.662956 67.136805 
L 192.236971 67.673908 
L 187.397878 68.420636 
L 184.969369 68.620927 
L 182.517286 68.644876 
L 180.106219 69.029662 
L 175.328655 70.033135 
L 170.262023 69.623401 
L 167.477487 68.496315 
L 164.673078 67.538346 
L 161.898176 66.907353 
L 159.019848 66.083798 
L 153.242122 64.913875 
L 149.969609 63.445345 
L 147.021445 63.118392 
L 141.441204 63.618838 
L 135.718483 64.07837 
L 132.932 64.584938 
L 130.446871 65.766584 
L 128.120653 67.262215 
L 123.656064 70.536096 
L 116.425034 74.42743 
L 105.699619 78.284295 
L 103.091408 79.454066 
L 100.546946 80.741458 
L 97.908851 81.943842 
L 95.707716 83.706386 
L 93.819768 85.832652 
L 92.336316 88.389058 
L 91.10556 91.170018 
L 90.20805 94.236046 
L 90.052443 97.965881 
L 89.527139 101.216068 
L 89.535778 104.874444 
L 91.123133 113.211197 
L 93.055446 118.106109 
L 98.964281 128.880268 
L 107.605267 140.665439 
L 108.923417 144.010143 
L 108.759795 146.229146 
L 104.713556 145.880751 
L 99.818452 145.149408 
L 93.908308 143.992993 
L 90.089248 144.272054 
L 86.899903 145.026597 
L 83.232419 145.622721 
L 76.342234 147.378039 
L 72.203843 148.088287 
L 69.283101 149.472505 
L 63.405853 152.465826 
L 56.577043 158.242916 
L 55.164707 160.559094 
L 54.006998 162.976022 
L 53.265355 165.526798 
L 50.694405 173.107991 
L 50.257712 175.741209 
L 50.833171 183.920578 
L 51.377263 186.650935 
L 52.613839 192.032129 
L 53.757244 194.720771 
L 55.345102 199.919008 
L 55.952703 202.462179 
L 56.431298 204.978801 
L 57.736823 209.952786 
L 57.905089 212.424017 
L 57.599475 214.91722 
L 57.001398 217.446118 
L 55.966199 220.040345 
L 54.722771 222.700588 
L 53.707896 225.386035 
L 52.465249 228.150534 
L 51.377396 230.9476 
L 50.734171 233.719858 
L 49.838038 236.580918 
L 49.365965 239.402712 
L 48.762127 247.884361 
L 49.255026 253.431176 
L 50.811679 261.618514 
L 51.536055 264.299696 
L 53.283465 269.569485 
L 54.398556 272.108896 
L 55.636415 274.591606 
L 58.685248 279.258369 
L 60.112784 281.624581 
L 63.337821 286.127264 
L 65.15771 288.236484 
L 67.474044 290.015996 
L 69.556417 291.904936 
L 71.777808 293.669894 
L 74.710331 294.900493 
L 77.31685 296.294759 
L 80.301727 297.347568 
L 84.206715 297.603981 
L 87.398475 298.306836 
L 91.456593 298.189863 
L 96.435952 297.124814 
L 100.187707 296.955778 
L 105.860225 294.857138 
L 113.491459 290.596232 
L 119.82193 287.219008 
L 132.78056 276.633205 
L 150.937697 259.622245 
L 194.264236 213.362895 
L 143.874678 271.540137 
L 136.638233 282.468899 
L 133.778657 288.715012 
L 131.11715 295.084841 
L 130.900035 298.597015 
L 130.486841 302.553397 
L 129.237557 307.913399 
L 129.215892 311.772176 
L 129.384428 315.543867 
L 129.095638 320.24974 
L 129.607412 323.904085 
L 130.484529 327.125908 
L 131.213538 330.784235 
L 132.512108 333.582985 
L 133.727107 336.688874 
L 135.222169 339.396978 
L 138.858816 343.822701 
L 140.951424 345.559175 
L 143.291402 346.756137 
L 145.748677 347.670247 
L 150.982896 348.566231 
L 153.656964 348.763747 
L 156.239099 349.185737 
L 158.843117 349.486912 
L 163.902355 350.507229 
L 166.331138 351.423446 
L 171.201717 353.387201 
L 173.760636 353.813922 
L 176.360808 353.974795 
L 178.974061 353.980438 
L 181.607287 353.720845 
L 184.233186 353.33776 
L 186.852156 352.771376 
L 189.486032 351.595263 
L 192.062372 350.612002 
L 194.591397 349.866742 
L 197.100274 348.609615 
L 199.56375 348.317205 
L 202.022272 348.325805 
L 204.472469 348.044514 
L 209.341663 347.307864 
L 211.768914 346.982849 
L 221.620536 346.738253 
L 224.212886 347.269382 
L 226.922836 348.227484 
L 232.154827 348.644652 
L 234.866444 349.068558 
L 240.295429 349.525433 
L 242.954794 349.402897 
L 245.556188 349.027355 
L 247.945643 347.988407 
L 250.190655 346.573467 
L 252.608116 345.662485 
L 255.246887 345.297788 
L 257.724607 344.495579 
L 259.957639 343.124083 
L 262.109754 341.607525 
L 264.435269 340.483513 
L 266.945276 339.720877 
L 269.63336 339.258957 
L 274.426893 337.143955 
L 277.142873 336.59053 
L 280.023235 336.239279 
L 283.194867 336.257815 
L 286.566906 336.46467 
L 289.774003 336.310781 
L 293.404326 336.63766 
L 296.598816 336.24707 
L 299.583866 335.497099 
L 302.878898 335.060771 
L 305.652201 333.90848 
L 308.15806 332.40065 
L 310.58094 330.774268 
L 315.09933 327.117783 
L 317.051683 324.96512 
L 318.844016 322.664801 
L 320.408745 320.166968 
L 322.874213 314.669337 
L 323.861533 311.775412 
L 325.457393 305.836081 
L 325.434602 302.327678 
L 325.641617 299.07812 
L 326.249964 296.18383 
L 324.88778 285.788333 
L 323.072386 281.688663 
L 320.569249 274.551631 
L 316.682346 269.75025 
L 314.103398 265.838053 
L 311.445692 262.045657 
L 307.105697 257.624821 
L 303.925339 253.94196 
L 300.459833 250.305034 
L 297.668347 247.114018 
L 297.041989 244.895578 
L 294.551544 242.049917 
L 291.143047 239.010468 
L 290.123189 236.901733 
L 289.498803 234.973093 
L 291.213698 233.757387 
L 293.493791 232.645666 
L 297.71631 231.949369 
L 300.32156 230.738961 
L 301.976312 229.24565 
L 303.848549 227.748099 
L 305.228964 226.108816 
L 306.969514 224.488589 
L 310.074179 223.008415 
L 313.039712 221.410284 
L 316.855761 219.805075 
L 321.454325 218.141231 
L 323.613999 216.151626 
L 326.05756 214.106447 
L 328.793885 211.990003 
L 330.819597 209.768267 
L 330.819597 209.768267 
" clip-path="url(#p673d7b5a88)" style="fill: none; stroke: #ff0000; stroke-width: 1.5; stroke-linecap: square"/>
   </g>
   <g id="line2d_20">
    <path d="M 351.100017 207.477187 
L 352.025616 202.153102 
L 352.786302 196.762823 
L 353.351916 191.3134 
L 353.69613 185.815294 
L 353.799974 180.28118 
L 353.651904 174.724739 
L 353.231537 169.163505 
L 352.535907 163.613127 
L 351.550264 158.093776 
L 350.273967 152.623155 
L 348.695067 147.224224 
L 346.809547 141.919135 
L 344.605991 136.73536 
L 342.078266 131.700875 
L 339.219645 126.846819 
L 336.02325 122.207828 
L 334.293056 119.982953 
L 332.474236 117.827933 
L 330.563871 115.749915 
L 328.564824 113.752421 
L 326.472066 111.844912 
L 324.283735 110.035256 
L 321.998381 108.331578 
L 319.614979 106.742245 
L 317.13042 105.278041 
L 314.542196 103.95013 
L 311.845981 102.772313 
L 309.040649 101.756575 
L 306.118652 100.922286 
L 303.078256 100.284778 
L 299.911771 99.867109 
L 296.617385 99.688206 
L 293.185623 99.777542 
L 289.617433 100.155387 
L 285.902317 100.857936 
L 282.075234 101.867304 
L 278.169597 103.163706 
L 270.535442 106.119107 
L 267.299122 107.055369 
L 264.917813 106.840755 
L 263.540832 105.092454 
L 262.965387 101.959144 
L 262.372991 89.350185 
L 261.848224 85.237025 
L 261.081435 81.347242 
L 260.056296 77.750505 
L 258.807179 74.414267 
L 257.351426 71.337953 
L 255.709749 68.510963 
L 253.901804 65.921718 
L 251.94501 63.560857 
L 249.855884 61.418224 
L 247.648974 59.486085 
L 245.337112 57.759267 
L 242.934435 56.225634 
L 240.449752 54.88855 
L 237.896014 53.734875 
L 235.282875 52.760661 
L 232.619612 51.961585 
L 229.915111 51.332971 
L 227.179017 50.863224 
L 224.41958 50.543654 
L 221.644393 50.365248 
L 218.860793 50.315385 
L 213.2949 50.52943 
L 207.762822 51.029569 
L 199.56375 51.883492 
L 194.143398 52.258618 
L 188.717304 52.365781 
L 180.495021 52.17485 
L 174.947704 52.057589 
L 169.376148 52.17544 
L 166.59676 52.379694 
L 163.830352 52.698837 
L 161.086067 53.15163 
L 158.370917 53.743441 
L 155.695087 54.48898 
L 153.064953 55.386474 
L 150.490954 56.446651 
L 147.980001 57.667103 
L 145.541208 59.051474 
L 143.181646 60.596785 
L 140.908287 62.299822 
L 138.728 64.157142 
L 136.644827 66.158973 
L 134.660856 68.292483 
L 132.773035 70.535928 
L 129.257406 75.250186 
L 125.944551 79.964994 
L 124.272151 82.170923 
L 122.519665 84.180878 
L 120.632394 85.933559 
L 118.56427 87.39052 
L 116.287347 88.546159 
L 113.798453 89.431384 
L 111.122287 90.111402 
L 105.35896 91.143961 
L 99.338581 92.181319 
L 96.322711 92.816398 
L 93.337507 93.563489 
L 90.402911 94.43783 
L 87.530526 95.443964 
L 84.734756 96.588117 
L 82.020768 97.866584 
L 79.391121 99.273266 
L 76.855642 100.808657 
L 74.416656 102.466307 
L 72.071 104.235594 
L 69.828088 106.116579 
L 67.686811 108.100786 
L 65.645638 110.179984 
L 63.70809 112.35003 
L 61.872018 114.602941 
L 60.143278 116.936474 
L 58.519223 119.342785 
L 56.999685 121.816055 
L 55.584246 124.350582 
L 54.275166 126.94241 
L 53.07163 129.585946 
L 51.975565 132.277251 
L 50.985771 135.010865 
L 50.100824 137.78148 
L 48.647907 143.417213 
L 47.620296 149.15156 
L 47.009789 154.948646 
L 46.81517 160.77726 
L 47.029949 166.605879 
L 47.642287 172.403354 
L 48.634978 178.139606 
L 49.978902 183.785275 
L 51.626355 189.312759 
L 53.504412 194.698651 
L 59.185923 209.927492 
L 59.917549 212.35374 
L 60.490808 214.765692 
L 60.939009 217.170774 
L 61.195834 219.582812 
L 61.328545 222.006293 
L 61.304857 224.453245 
L 60.92607 229.435239 
L 60.203365 234.566102 
L 58.980098 242.528629 
L 58.295554 247.985191 
L 57.84843 253.523286 
L 57.712259 259.106908 
L 57.925434 264.702782 
L 58.517051 270.275224 
L 59.500957 275.790376 
L 60.879409 281.21696 
L 62.663975 286.51631 
L 64.854433 291.652911 
L 66.100358 294.149327 
L 67.4506 296.588632 
L 68.900097 298.968862 
L 70.451908 301.282432 
L 72.106032 303.523467 
L 73.859577 305.688051 
L 75.71731 307.766058 
L 77.678316 309.75121 
L 79.7414 311.637167 
L 81.910039 313.413065 
L 84.179776 315.074484 
L 86.558023 316.605549 
L 89.039426 318.001511 
L 91.630072 319.245783 
L 94.332774 320.323594 
L 97.147252 321.222232 
L 100.076906 321.92371 
L 103.126211 322.40697 
L 106.302571 322.645152 
L 109.611714 322.610544 
L 113.059666 322.271984 
L 116.666218 321.575852 
L 120.413179 320.515917 
L 124.321449 319.028486 
L 128.407736 317.047841 
L 132.578284 314.676341 
L 140.56799 309.660841 
L 143.526003 308.571959 
L 145.142108 309.829411 
L 145.632862 313.322514 
L 145.605576 323.190865 
L 145.853935 328.111407 
L 146.41473 332.688432 
L 147.282025 336.878998 
L 148.435382 340.671139 
L 149.827728 344.125785 
L 151.437353 347.246393 
L 153.233866 350.065908 
L 155.19537 352.59962 
L 157.299478 354.870221 
L 159.529096 356.888552 
L 161.868908 358.662942 
L 164.302865 360.208861 
L 166.819634 361.526144 
L 169.406097 362.624864 
L 172.051703 363.50576 
L 174.746056 364.169943 
L 177.478459 364.622197 
L 180.23944 364.861066 
L 183.019479 364.885411 
L 185.809025 364.694411 
L 188.598733 364.284232 
L 191.379009 363.651346 
L 194.139902 362.795879 
L 196.871636 361.708271 
L 199.56375 360.382628 
L 202.205392 358.81675 
L 204.78516 356.998793 
L 207.29076 354.91732 
L 209.709255 352.564675 
L 212.027368 349.936994 
L 214.228992 347.007642 
L 216.303761 343.813638 
L 218.239088 340.35912 
L 220.027724 336.681635 
L 224.741275 325.928129 
L 226.368991 323.583442 
L 228.229665 322.449893 
L 230.413355 322.609481 
L 232.905845 323.75489 
L 244.407908 330.6855 
L 247.389085 332.066446 
L 250.344301 333.163461 
L 253.299942 334.071722 
L 256.221023 334.731506 
L 259.110717 335.17607 
L 261.989063 335.468047 
L 264.834896 335.579024 
L 267.657963 335.543775 
L 270.457405 335.372727 
L 273.23638 335.081927 
L 278.726091 334.163415 
L 284.12622 332.846205 
L 289.421647 331.155972 
L 294.59403 329.110399 
L 299.616088 326.71492 
L 304.456104 323.971948 
L 309.084154 320.888886 
L 313.465496 317.470825 
L 317.572343 313.732602 
L 321.385229 309.697546 
L 324.875827 305.381712 
L 328.037998 300.819193 
L 330.854647 296.034016 
L 333.330007 291.063622 
L 335.462877 285.938585 
L 337.266222 280.69489 
L 338.76512 275.370232 
L 339.99115 269.999494 
L 340.991518 264.617715 
L 342.190501 256.587516 
L 344.352758 240.904364 
L 345.683429 233.242029 
L 347.249239 225.610685 
L 350.592791 210.113409 
L 350.592791 210.113409 
" clip-path="url(#p673d7b5a88)" style="fill: none; stroke-dasharray: 5.55,2.4; stroke-dashoffset: 0; stroke: #0000ff; stroke-width: 1.5"/>
   </g>
   <g id="patch_3">
    <path d="M 365.88375 207.477187 
C 365.88375 185.636245 361.581561 164.007679 353.223394 143.829279 
C 344.865227 123.650879 332.613628 105.315066 317.16975 89.871188 
C 301.725871 74.427309 283.390058 62.17571 263.211658 53.817544 
C 243.033259 45.459377 221.404692 41.157187 199.56375 41.157187 
C 177.722808 41.157187 156.094241 45.459377 135.915842 53.817544 
C 115.737442 62.17571 97.401629 74.427309 81.95775 89.871188 
C 66.513872 105.315066 54.262273 123.650879 45.904106 143.829279 
C 37.545939 164.007679 33.24375 185.636245 33.24375 207.477187 
C 33.24375 229.31813 37.545939 250.946696 45.904106 271.125096 
C 54.262273 291.303496 66.513872 309.639309 81.95775 325.083187 
C 97.401629 340.527066 115.737442 352.778665 135.915842 361.136831 
C 156.094241 369.494998 177.722808 373.797188 199.56375 373.797188 
C 221.404692 373.797188 243.033259 369.494998 263.211658 361.136831 
C 283.390058 352.778665 301.725871 340.527066 317.16975 325.083187 
C 332.613628 309.639309 344.865227 291.303496 353.223394 271.125096 
C 361.581561 250.946696 365.88375 229.31813 365.88375 207.477188 
" style="fill: none; stroke: #000000; stroke-width: 0.8; stroke-linejoin: miter; stroke-linecap: square"/>
   </g>
   <g id="text_19">
    <!-- Radiation Diagram - 1AVVF14 -->
    <g transform="translate(110.727187 16.318125)scale(0.12 -0.12)">
     <defs>
      <path id="DejaVuSans-52" d="M 2841 2188 
Q 3044 2119 3236 1894 
Q 3428 1669 3622 1275 
L 4263 0 
L 3584 0 
L 2988 1197 
Q 2756 1666 2539 1819 
Q 2322 1972 1947 1972 
L 1259 1972 
L 1259 0 
L 628 0 
L 628 4666 
L 2053 4666 
Q 2853 4666 3247 4331 
Q 3641 3997 3641 3322 
Q 3641 2881 3436 2590 
Q 3231 2300 2841 2188 
z
M 1259 4147 
L 1259 2491 
L 2053 2491 
Q 2509 2491 2742 2702 
Q 2975 2913 2975 3322 
Q 2975 3731 2742 3939 
Q 2509 4147 2053 4147 
L 1259 4147 
z
" transform="scale(0.015625)"/>
      <path id="DejaVuSans-61" d="M 2194 1759 
Q 1497 1759 1228 1600 
Q 959 1441 959 1056 
Q 959 750 1161 570 
Q 1363 391 1709 391 
Q 2188 391 2477 730 
Q 2766 1069 2766 1631 
L 2766 1759 
L 2194 1759 
z
M 3341 1997 
L 3341 0 
L 2766 0 
L 2766 531 
Q 2569 213 2275 61 
Q 1981 -91 1556 -91 
Q 1019 -91 701 211 
Q 384 513 384 1019 
Q 384 1609 779 1909 
Q 1175 2209 1959 2209 
L 2766 2209 
L 2766 2266 
Q 2766 2663 2505 2880 
Q 2244 3097 1772 3097 
Q 1472 3097 1187 3025 
Q 903 2953 641 2809 
L 641 3341 
Q 956 3463 1253 3523 
Q 1550 3584 1831 3584 
Q 2591 3584 2966 3190 
Q 3341 2797 3341 1997 
z
" transform="scale(0.015625)"/>
      <path id="DejaVuSans-64" d="M 2906 2969 
L 2906 4863 
L 3481 4863 
L 3481 0 
L 2906 0 
L 2906 525 
Q 2725 213 2448 61 
Q 2172 -91 1784 -91 
Q 1150 -91 751 415 
Q 353 922 353 1747 
Q 353 2572 751 3078 
Q 1150 3584 1784 3584 
Q 2172 3584 2448 3432 
Q 2725 3281 2906 2969 
z
M 947 1747 
Q 947 1113 1208 752 
Q 1469 391 1925 391 
Q 2381 391 2643 752 
Q 2906 1113 2906 1747 
Q 2906 2381 2643 2742 
Q 2381 3103 1925 3103 
Q 1469 3103 1208 2742 
Q 947 2381 947 1747 
z
" transform="scale(0.015625)"/>
      <path id="DejaVuSans-69" d="M 603 3500 
L 1178 3500 
L 1178 0 
L 603 0 
L 603 3500 
z
M 603 4863 
L 1178 4863 
L 1178 4134 
L 603 4134 
L 603 4863 
z
" transform="scale(0.015625)"/>
      <path id="DejaVuSans-74" d="M 1172 4494 
L 1172 3500 
L 2356 3500 
L 2356 3053 
L 1172 3053 
L 1172 1153 
Q 1172 725 1289 603 
Q 1406 481 1766 481 
L 2356 481 
L 2356 0 
L 1766 0 
Q 1100 0 847 248 
Q 594 497 594 1153 
L 594 3053 
L 172 3053 
L 172 3500 
L 594 3500 
L 594 4494 
L 1172 4494 
z
" transform="scale(0.015625)"/>
      <path id="DejaVuSans-6f" d="M 1959 3097 
Q 1497 3097 1228 2736 
Q 959 2375 959 1747 
Q 959 1119 1226 758 
Q 1494 397 1959 397 
Q 2419 397 2687 759 
Q 2956 1122 2956 1747 
Q 2956 2369 2687 2733 
Q 2419 3097 1959 3097 
z
M 1959 3584 
Q 2709 3584 3137 3096 
Q 3566 2609 3566 1747 
Q 3566 888 3137 398 
Q 2709 -91 1959 -91 
Q 1206 -91 779 398 
Q 353 888 353 1747 
Q 353 2609 779 3096 
Q 1206 3584 1959 3584 
z
" transform="scale(0.015625)"/>
      <path id="DejaVuSans-6e" d="M 3513 2113 
L 3513 0 
L 2938 0 
L 2938 2094 
Q 2938 2591 2744 2837 
Q 2550 3084 2163 3084 
Q 1697 3084 1428 2787 
Q 1159 2491 1159 1978 
L 1159 0 
L 581 0 
L 581 3500 
L 1159 3500 
L 1159 2956 
Q 1366 3272 1645 3428 
Q 1925 3584 2291 3584 
Q 2894 3584 3203 3211 
Q 3513 2838 3513 2113 
z
" transform="scale(0.015625)"/>
      <path id="DejaVuSans-20" transform="scale(0.015625)"/>
      <path id="DejaVuSans-44" d="M 1259 4147 
L 1259 519 
L 2022 519 
Q 2988 519 3436 956 
Q 3884 1394 3884 2338 
Q 3884 3275 3436 3711 
Q 2988 4147 2022 4147 
L 1259 4147 
z
M 628 4666 
L 1925 4666 
Q 3281 4666 3915 4102 
Q 4550 3538 4550 2338 
Q 4550 1131 3912 565 
Q 3275 0 1925 0 
L 628 0 
L 628 4666 
z
" transform="scale(0.015625)"/>
      <path id="DejaVuSans-67" d="M 2906 1791 
Q 2906 2416 2648 2759 
Q 2391 3103 1925 3103 
Q 1463 3103 1205 2759 
Q 947 2416 947 1791 
Q 947 1169 1205 825 
Q 1463 481 1925 481 
Q 2391 481 2648 825 
Q 2906 1169 2906 1791 
z
M 3481 434 
Q 3481 -459 3084 -895 
Q 2688 -1331 1869 -1331 
Q 1566 -1331 1297 -1286 
Q 1028 -1241 775 -1147 
L 775 -588 
Q 1028 -725 1275 -790 
Q 1522 -856 1778 -856 
Q 2344 -856 2625 -561 
Q 2906 -266 2906 331 
L 2906 616 
Q 2728 306 2450 153 
Q 2172 0 1784 0 
Q 1141 0 747 490 
Q 353 981 353 1791 
Q 353 2603 747 3093 
Q 1141 3584 1784 3584 
Q 2172 3584 2450 3431 
Q 2728 3278 2906 2969 
L 2906 3500 
L 3481 3500 
L 3481 434 
z
" transform="scale(0.015625)"/>
      <path id="DejaVuSans-72" d="M 2631 2963 
Q 2534 3019 2420 3045 
Q 2306 3072 2169 3072 
Q 1681 3072 1420 2755 
Q 1159 2438 1159 1844 
L 1159 0 
L 581 0 
L 581 3500 
L 1159 3500 
L 1159 2956 
Q 1341 3275 1631 3429 
Q 1922 3584 2338 3584 
Q 2397 3584 2469 3576 
Q 2541 3569 2628 3553 
L 2631 2963 
z
" transform="scale(0.015625)"/>
      <path id="DejaVuSans-6d" d="M 3328 2828 
Q 3544 3216 3844 3400 
Q 4144 3584 4550 3584 
Q 5097 3584 5394 3201 
Q 5691 2819 5691 2113 
L 5691 0 
L 5113 0 
L 5113 2094 
Q 5113 2597 4934 2840 
Q 4756 3084 4391 3084 
Q 3944 3084 3684 2787 
Q 3425 2491 3425 1978 
L 3425 0 
L 2847 0 
L 2847 2094 
Q 2847 2600 2669 2842 
Q 2491 3084 2119 3084 
Q 1678 3084 1418 2786 
Q 1159 2488 1159 1978 
L 1159 0 
L 581 0 
L 581 3500 
L 1159 3500 
L 1159 2956 
Q 1356 3278 1631 3431 
Q 1906 3584 2284 3584 
Q 2666 3584 2933 3390 
Q 3200 3197 3328 2828 
z
" transform="scale(0.015625)"/>
      <path id="DejaVuSans-2d" d="M 313 2009 
L 1997 2009 
L 1997 1497 
L 313 1497 
L 313 2009 
z
" transform="scale(0.015625)"/>
      <path id="DejaVuSans-41" d="M 2188 4044 
L 1331 1722 
L 3047 1722 
L 2188 4044 
z
M 1831 4666 
L 2547 4666 
L 4325 0 
L 3669 0 
L 3244 1197 
L 1141 1197 
L 716 0 
L 50 0 
L 1831 4666 
z
" transform="scale(0.015625)"/>
      <path id="DejaVuSans-56" d="M 1831 0 
L 50 4666 
L 709 4666 
L 2188 738 
L 3669 4666 
L 4325 4666 
L 2547 0 
L 1831 0 
z
" transform="scale(0.015625)"/>
      <path id="DejaVuSans-46" d="M 628 4666 
L 3309 4666 
L 3309 4134 
L 1259 4134 
L 1259 2759 
L 3109 2759 
L 3109 2228 
L 1259 2228 
L 1259 0 
L 628 0 
L 628 4666 
z
" transform="scale(0.015625)"/>
     </defs>
     <use xlink:href="#DejaVuSans-52"/>
     <use xlink:href="#DejaVuSans-61" x="67.232422"/>
     <use xlink:href="#DejaVuSans-64" x="128.511719"/>
     <use xlink:href="#DejaVuSans-69" x="191.988281"/>
     <use xlink:href="#DejaVuSans-61" x="219.771484"/>
     <use xlink:href="#DejaVuSans-74" x="281.050781"/>
     <use xlink:href="#DejaVuSans-69" x="320.259766"/>
     <use xlink:href="#DejaVuSans-6f" x="348.042969"/>
     <use xlink:href="#DejaVuSans-6e" x="409.224609"/>
     <use xlink:href="#DejaVuSans-20" x="472.603516"/>
     <use xlink:href="#DejaVuSans-44" x="504.390625"/>
     <use xlink:href="#DejaVuSans-69" x="581.392578"/>
     <use xlink:href="#DejaVuSans-61" x="609.175781"/>
     <use xlink:href="#DejaVuSans-67" x="670.455078"/>
     <use xlink:href="#DejaVuSans-72" x="733.931641"/>
     <use xlink:href="#DejaVuSans-61" x="775.044922"/>
     <use xlink:href="#DejaVuSans-6d" x="836.324219"/>
     <use xlink:href="#DejaVuSans-20" x="933.736328"/>
     <use xlink:href="#DejaVuSans-2d" x="965.523438"/>
     <use xlink:href="#DejaVuSans-20" x="1001.607422"/>
     <use xlink:href="#DejaVuSans-31" x="1033.394531"/>
     <use xlink:href="#DejaVuSans-41" x="1097.017578"/>
     <use xlink:href="#DejaVuSans-56" x="1159.050781"/>
     <use xlink:href="#DejaVuSans-56" x="1227.458984"/>
     <use xlink:href="#DejaVuSans-46" x="1295.867188"/>
     <use xlink:href="#DejaVuSans-31" x="1353.386719"/>
     <use xlink:href="#DejaVuSans-34" x="1417.009766"/>
    </g>
   </g>
   <g id="legend_1">
    <g id="patch_4">
     <path d="M 304.104062 78.513437 
L 358.88375 78.513437 
Q 360.88375 78.513437 360.88375 76.513437 
L 360.88375 48.157187 
Q 360.88375 46.157187 358.88375 46.157187 
L 304.104062 46.157187 
Q 302.104062 46.157187 302.104062 48.157187 
L 302.104062 76.513437 
Q 302.104062 78.513437 304.104062 78.513437 
z
" style="fill: #ffffff; opacity: 0.8; stroke: #cccccc; stroke-linejoin: miter"/>
    </g>
    <g id="line2d_21">
     <path d="M 306.104062 54.255625 
L 316.104062 54.255625 
L 326.104062 54.255625 
" style="fill: none; stroke: #ff0000; stroke-width: 1.5; stroke-linecap: square"/>
    </g>
    <g id="text_20">
     <!-- INPE -->
     <g transform="translate(334.104062 57.755625)scale(0.1 -0.1)">
      <defs>
       <path id="DejaVuSans-49" d="M 628 4666 
L 1259 4666 
L 1259 0 
L 628 0 
L 628 4666 
z
" transform="scale(0.015625)"/>
       <path id="DejaVuSans-4e" d="M 628 4666 
L 1478 4666 
L 3547 763 
L 3547 4666 
L 4159 4666 
L 4159 0 
L 3309 0 
L 1241 3903 
L 1241 0 
L 628 0 
L 628 4666 
z
" transform="scale(0.015625)"/>
       <path id="DejaVuSans-50" d="M 1259 4147 
L 1259 2394 
L 2053 2394 
Q 2494 2394 2734 2622 
Q 2975 2850 2975 3272 
Q 2975 3691 2734 3919 
Q 2494 4147 2053 4147 
L 1259 4147 
z
M 628 4666 
L 2053 4666 
Q 2838 4666 3239 4311 
Q 3641 3956 3641 3272 
Q 3641 2581 3239 2228 
Q 2838 1875 2053 1875 
L 1259 1875 
L 1259 0 
L 628 0 
L 628 4666 
z
" transform="scale(0.015625)"/>
       <path id="DejaVuSans-45" d="M 628 4666 
L 3578 4666 
L 3578 4134 
L 1259 4134 
L 1259 2753 
L 3481 2753 
L 3481 2222 
L 1259 2222 
L 1259 531 
L 3634 531 
L 3634 0 
L 628 0 
L 628 4666 
z
" transform="scale(0.015625)"/>
      </defs>
      <use xlink:href="#DejaVuSans-49"/>
      <use xlink:href="#DejaVuSans-4e" x="29.492188"/>
      <use xlink:href="#DejaVuSans-50" x="104.296875"/>
      <use xlink:href="#DejaVuSans-45" x="164.599609"/>
     </g>
    </g>
    <g id="line2d_22">
     <path d="M 306.104062 68.93375 
L 316.104062 68.93375 
L 326.104062 68.93375 
" style="fill: none; stroke-dasharray: 5.55,2.4; stroke-dashoffset: 0; stroke: #0000ff; stroke-width: 1.5"/>
    </g>
    <g id="text_21">
     <!-- CST -->
     <g transform="translate(334.104062 72.43375)scale(0.1 -0.1)">
      <defs>
       <path id="DejaVuSans-43" d="M 4122 4306 
L 4122 3641 
Q 3803 3938 3442 4084 
Q 3081 4231 2675 4231 
Q 1875 4231 1450 3742 
Q 1025 3253 1025 2328 
Q 1025 1406 1450 917 
Q 1875 428 2675 428 
Q 3081 428 3442 575 
Q 3803 722 4122 1019 
L 4122 359 
Q 3791 134 3420 21 
Q 3050 -91 2638 -91 
Q 1578 -91 968 557 
Q 359 1206 359 2328 
Q 359 3453 968 4101 
Q 1578 4750 2638 4750 
Q 3056 4750 3426 4639 
Q 3797 4528 4122 4306 
z
" transform="scale(0.015625)"/>
       <path id="DejaVuSans-53" d="M 3425 4513 
L 3425 3897 
Q 3066 4069 2747 4153 
Q 2428 4238 2131 4238 
Q 1616 4238 1336 4038 
Q 1056 3838 1056 3469 
Q 1056 3159 1242 3001 
Q 1428 2844 1947 2747 
L 2328 2669 
Q 3034 2534 3370 2195 
Q 3706 1856 3706 1288 
Q 3706 609 3251 259 
Q 2797 -91 1919 -91 
Q 1588 -91 1214 -16 
Q 841 59 441 206 
L 441 856 
Q 825 641 1194 531 
Q 1563 422 1919 422 
Q 2459 422 2753 634 
Q 3047 847 3047 1241 
Q 3047 1584 2836 1778 
Q 2625 1972 2144 2069 
L 1759 2144 
Q 1053 2284 737 2584 
Q 422 2884 422 3419 
Q 422 4038 858 4394 
Q 1294 4750 2059 4750 
Q 2388 4750 2728 4690 
Q 3069 4631 3425 4513 
z
" transform="scale(0.015625)"/>
       <path id="DejaVuSans-54" d="M -19 4666 
L 3928 4666 
L 3928 4134 
L 2272 4134 
L 2272 0 
L 1638 0 
L 1638 4134 
L -19 4134 
L -19 4666 
z
" transform="scale(0.015625)"/>
      </defs>
      <use xlink:href="#DejaVuSans-43"/>
      <use xlink:href="#DejaVuSans-53" x="69.824219"/>
      <use xlink:href="#DejaVuSans-54" x="133.300781"/>
     </g>
    </g>
   </g>
  </g>
 </g>
 <defs>
  <clipPath id="p673d7b5a88">
   <path d="M 365.88375 207.477187 
C 365.88375 185.636245 361.581561 164.007679 353.223394 143.829279 
C 344.865227 123.650879 332.613628 105.315066 317.16975 89.871188 
C 301.725871 74.427309 283.390058 62.17571 263.211658 53.817544 
C 243.033259 45.459377 221.404692 41.157187 199.56375 41.157187 
C 177.722808 41.157187 156.094241 45.459377 135.915842 53.817544 
C 115.737442 62.17571 97.401629 74.427309 81.95775 89.871188 
C 66.513872 105.315066 54.262273 123.650879 45.904106 143.829279 
C 37.545939 164.007679 33.24375 185.636245 33.24375 207.477187 
C 33.24375 229.31813 37.545939 250.946696 45.904106 271.125096 
C 54.262273 291.303496 66.513872 309.639309 81.95775 325.083187 
C 97.401629 340.527066 115.737442 352.778665 135.915842 361.136831 
C 156.094241 369.494998 177.722808 373.797188 199.56375 373.797188 
C 221.404692 373.797188 243.033259 369.494998 263.211658 361.136831 
C 283.390058 352.778665 301.725871 340.527066 317.16975 325.083187 
C 332.613628 309.639309 344.865227 291.303496 353.223394 271.125096 
C 361.581561 250.946696 365.88375 229.31813 365.88375 207.477188 
M 199.56375 207.477187 
C 199.56375 207.477187 199.56375 207.477187 199.56375 207.477187 
C 199.56375 207.477187 199.56375 207.477187 199.56375 207.477187 
C 199.56375 207.477187 199.56375 207.477187 199.56375 207.477187 
C 199.56375 207.477187 199.56375 207.477187 199.56375 207.477187 
C 199.56375 207.477187 199.56375 207.477187 199.56375 207.477187 
C 199.56375 207.477187 199.56375 207.477187 199.56375 207.477187 
C 199.56375 207.477187 199.56375 207.477187 199.56375 207.477187 
C 199.56375 207.477187 199.56375 207.477187 199.56375 207.477187 
C 199.56375 207.477187 199.56375 207.477187 199.56375 207.477187 
C 199.56375 207.477187 199.56375 207.477187 199.56375 207.477187 
C 199.56375 207.477187 199.56375 207.477187 199.56375 207.477187 
C 199.56375 207.477187 199.56375 207.477187 199.56375 207.477187 
C 199.56375 207.477187 199.56375 207.477187 199.56375 207.477187 
C 199.56375 207.477187 199.56375 207.477187 199.56375 207.477187 
C 199.56375 207.477187 199.56375 207.477187 199.56375 207.477187 
C 199.56375 207.477187 199.56375 207.477187 199.56375 207.477187 
M 365.88375 207.477187 
z
"/>
  </clipPath>
 </defs>
</svg>
