<?xml version="1.0" encoding="utf-8" standalone="no"?>
<!DOCTYPE svg PUBLIC "-//W3C//DTD SVG 1.1//EN"
  "http://www.w3.org/Graphics/SVG/1.1/DTD/svg11.dtd">
<svg xmlns:xlink="http://www.w3.org/1999/xlink" width="506.82625pt" height="514.053188pt" viewBox="0 0 506.82625 514.053188" xmlns="http://www.w3.org/2000/svg" version="1.1">
 <metadata>
  <rdf:RDF xmlns:dc="http://purl.org/dc/elements/1.1/" xmlns:cc="http://creativecommons.org/ns#" xmlns:rdf="http://www.w3.org/1999/02/22-rdf-syntax-ns#">
   <cc:Work>
    <dc:type rdf:resource="http://purl.org/dc/dcmitype/StillImage"/>
    <dc:date>2024-01-27T15:23:28.469946</dc:date>
    <dc:format>image/svg+xml</dc:format>
    <dc:creator>
     <cc:Agent>
      <dc:title>Matplotlib v3.5.1, https://matplotlib.org/</dc:title>
     </cc:Agent>
    </dc:creator>
   </cc:Work>
  </rdf:RDF>
 </metadata>
 <defs>
  <style type="text/css">*{stroke-linejoin: round; stroke-linecap: butt}</style>
 </defs>
 <g id="figure_1">
  <g id="patch_1">
   <path d="M 0 514.053188 
L 506.82625 514.053188 
L 506.82625 0 
L 0 0 
z
" style="fill: #ffffff"/>
  </g>
  <g id="axes_1">
   <g id="patch_2">
    <path d="M 473.5825 262.917188 
C 473.5825 233.795931 467.846247 204.957842 456.702025 178.05331 
C 445.557803 151.148777 429.222338 126.701026 408.6305 106.109188 
C 388.038662 85.51735 363.590911 69.181885 336.686378 58.037662 
C 309.781845 46.89344 280.943756 41.157188 251.8225 41.157188 
C 222.701244 41.157188 193.863155 46.89344 166.958622 58.037662 
C 140.054089 69.181885 115.606338 85.51735 95.0145 106.109188 
C 74.422662 126.701026 58.087197 151.148777 46.942975 178.05331 
C 35.798753 204.957842 30.0625 233.795931 30.0625 262.917188 
C 30.0625 292.038444 35.798753 320.876533 46.942975 347.781065 
C 58.087197 374.685598 74.422662 399.133349 95.0145 419.725187 
C 115.606338 440.317025 140.054089 456.65249 166.958622 467.796713 
C 193.863155 478.940935 222.701244 484.677188 251.8225 484.677188 
C 280.943756 484.677188 309.781845 478.940935 336.686378 467.796713 
C 363.590911 456.65249 388.038662 440.317025 408.6305 419.725187 
C 429.222338 399.133349 445.557803 374.685598 456.702025 347.781065 
C 467.846247 320.876533 473.5825 292.038444 473.5825 262.917188 
M 251.8225 262.917188 
C 251.8225 262.917188 251.8225 262.917188 251.8225 262.917188 
C 251.8225 262.917188 251.8225 262.917188 251.8225 262.917188 
C 251.8225 262.917188 251.8225 262.917188 251.8225 262.917188 
C 251.8225 262.917188 251.8225 262.917188 251.8225 262.917188 
C 251.8225 262.917188 251.8225 262.917188 251.8225 262.917188 
C 251.8225 262.917188 251.8225 262.917188 251.8225 262.917188 
C 251.8225 262.917188 251.8225 262.917188 251.8225 262.917188 
C 251.8225 262.917188 251.8225 262.917188 251.8225 262.917188 
C 251.8225 262.917188 251.8225 262.917188 251.8225 262.917188 
C 251.8225 262.917188 251.8225 262.917188 251.8225 262.917188 
C 251.8225 262.917188 251.8225 262.917188 251.8225 262.917188 
C 251.8225 262.917188 251.8225 262.917188 251.8225 262.917188 
C 251.8225 262.917188 251.8225 262.917188 251.8225 262.917188 
C 251.8225 262.917188 251.8225 262.917188 251.8225 262.917188 
C 251.8225 262.917188 251.8225 262.917188 251.8225 262.917188 
C 251.8225 262.917188 251.8225 262.917188 251.8225 262.917188 
M 473.5825 262.917188 
z
" style="fill: #ffffff"/>
   </g>
   <g id="matplotlib.axis_1">
    <g id="xtick_1">
     <g id="line2d_1">
      <path d="M 251.8225 262.917188 
L 251.8225 41.157188 
" clip-path="url(#p8cd856849c)" style="fill: none; stroke: #b0b0b0; stroke-width: 0.8; stroke-linecap: square"/>
     </g>
     <g id="text_1">
      <!-- 0° -->
      <g transform="translate(246.14125 29.916563)scale(0.1 -0.1)">
       <defs>
        <path id="DejaVuSans-30" d="M 2034 4250 
Q 1547 4250 1301 3770 
Q 1056 3291 1056 2328 
Q 1056 1369 1301 889 
Q 1547 409 2034 409 
Q 2525 409 2770 889 
Q 3016 1369 3016 2328 
Q 3016 3291 2770 3770 
Q 2525 4250 2034 4250 
z
M 2034 4750 
Q 2819 4750 3233 4129 
Q 3647 3509 3647 2328 
Q 3647 1150 3233 529 
Q 2819 -91 2034 -91 
Q 1250 -91 836 529 
Q 422 1150 422 2328 
Q 422 3509 836 4129 
Q 1250 4750 2034 4750 
z
" transform="scale(0.015625)"/>
        <path id="DejaVuSans-b0" d="M 1600 4347 
Q 1350 4347 1178 4173 
Q 1006 4000 1006 3750 
Q 1006 3503 1178 3333 
Q 1350 3163 1600 3163 
Q 1850 3163 2022 3333 
Q 2194 3503 2194 3750 
Q 2194 3997 2020 4172 
Q 1847 4347 1600 4347 
z
M 1600 4750 
Q 1800 4750 1984 4673 
Q 2169 4597 2303 4453 
Q 2447 4313 2519 4134 
Q 2591 3956 2591 3750 
Q 2591 3338 2302 3052 
Q 2013 2766 1594 2766 
Q 1172 2766 890 3047 
Q 609 3328 609 3750 
Q 609 4169 896 4459 
Q 1184 4750 1600 4750 
z
" transform="scale(0.015625)"/>
       </defs>
       <use xlink:href="#DejaVuSans-30"/>
       <use xlink:href="#DejaVuSans-b0" x="63.623047"/>
      </g>
     </g>
    </g>
    <g id="xtick_2">
     <g id="line2d_2">
      <path d="M 251.8225 262.917188 
L 95.0145 106.109188 
" clip-path="url(#p8cd856849c)" style="fill: none; stroke: #b0b0b0; stroke-width: 0.8; stroke-linecap: square"/>
     </g>
     <g id="text_2">
      <!-- 45° -->
      <g transform="translate(76.252505 98.969068)scale(0.1 -0.1)">
       <defs>
        <path id="DejaVuSans-34" d="M 2419 4116 
L 825 1625 
L 2419 1625 
L 2419 4116 
z
M 2253 4666 
L 3047 4666 
L 3047 1625 
L 3713 1625 
L 3713 1100 
L 3047 1100 
L 3047 0 
L 2419 0 
L 2419 1100 
L 313 1100 
L 313 1709 
L 2253 4666 
z
" transform="scale(0.015625)"/>
        <path id="DejaVuSans-35" d="M 691 4666 
L 3169 4666 
L 3169 4134 
L 1269 4134 
L 1269 2991 
Q 1406 3038 1543 3061 
Q 1681 3084 1819 3084 
Q 2600 3084 3056 2656 
Q 3513 2228 3513 1497 
Q 3513 744 3044 326 
Q 2575 -91 1722 -91 
Q 1428 -91 1123 -41 
Q 819 9 494 109 
L 494 744 
Q 775 591 1075 516 
Q 1375 441 1709 441 
Q 2250 441 2565 725 
Q 2881 1009 2881 1497 
Q 2881 1984 2565 2268 
Q 2250 2553 1709 2553 
Q 1456 2553 1204 2497 
Q 953 2441 691 2322 
L 691 4666 
z
" transform="scale(0.015625)"/>
       </defs>
       <use xlink:href="#DejaVuSans-34"/>
       <use xlink:href="#DejaVuSans-35" x="63.623047"/>
       <use xlink:href="#DejaVuSans-b0" x="127.246094"/>
      </g>
     </g>
    </g>
    <g id="xtick_3">
     <g id="line2d_3">
      <path d="M 251.8225 262.917188 
L 30.0625 262.917188 
" clip-path="url(#p8cd856849c)" style="fill: none; stroke: #b0b0b0; stroke-width: 0.8; stroke-linecap: square"/>
     </g>
     <g id="text_3">
      <!-- 90° -->
      <g transform="translate(7.2 265.676563)scale(0.1 -0.1)">
       <defs>
        <path id="DejaVuSans-39" d="M 703 97 
L 703 672 
Q 941 559 1184 500 
Q 1428 441 1663 441 
Q 2288 441 2617 861 
Q 2947 1281 2994 2138 
Q 2813 1869 2534 1725 
Q 2256 1581 1919 1581 
Q 1219 1581 811 2004 
Q 403 2428 403 3163 
Q 403 3881 828 4315 
Q 1253 4750 1959 4750 
Q 2769 4750 3195 4129 
Q 3622 3509 3622 2328 
Q 3622 1225 3098 567 
Q 2575 -91 1691 -91 
Q 1453 -91 1209 -44 
Q 966 3 703 97 
z
M 1959 2075 
Q 2384 2075 2632 2365 
Q 2881 2656 2881 3163 
Q 2881 3666 2632 3958 
Q 2384 4250 1959 4250 
Q 1534 4250 1286 3958 
Q 1038 3666 1038 3163 
Q 1038 2656 1286 2365 
Q 1534 2075 1959 2075 
z
" transform="scale(0.015625)"/>
       </defs>
       <use xlink:href="#DejaVuSans-39"/>
       <use xlink:href="#DejaVuSans-30" x="63.623047"/>
       <use xlink:href="#DejaVuSans-b0" x="127.246094"/>
      </g>
     </g>
    </g>
    <g id="xtick_4">
     <g id="line2d_4">
      <path d="M 251.8225 262.917188 
L 95.0145 419.725187 
" clip-path="url(#p8cd856849c)" style="fill: none; stroke: #b0b0b0; stroke-width: 0.8; stroke-linecap: square"/>
     </g>
     <g id="text_4">
      <!-- 135° -->
      <g transform="translate(73.071255 432.384057)scale(0.1 -0.1)">
       <defs>
        <path id="DejaVuSans-31" d="M 794 531 
L 1825 531 
L 1825 4091 
L 703 3866 
L 703 4441 
L 1819 4666 
L 2450 4666 
L 2450 531 
L 3481 531 
L 3481 0 
L 794 0 
L 794 531 
z
" transform="scale(0.015625)"/>
        <path id="DejaVuSans-33" d="M 2597 2516 
Q 3050 2419 3304 2112 
Q 3559 1806 3559 1356 
Q 3559 666 3084 287 
Q 2609 -91 1734 -91 
Q 1441 -91 1130 -33 
Q 819 25 488 141 
L 488 750 
Q 750 597 1062 519 
Q 1375 441 1716 441 
Q 2309 441 2620 675 
Q 2931 909 2931 1356 
Q 2931 1769 2642 2001 
Q 2353 2234 1838 2234 
L 1294 2234 
L 1294 2753 
L 1863 2753 
Q 2328 2753 2575 2939 
Q 2822 3125 2822 3475 
Q 2822 3834 2567 4026 
Q 2313 4219 1838 4219 
Q 1578 4219 1281 4162 
Q 984 4106 628 3988 
L 628 4550 
Q 988 4650 1302 4700 
Q 1616 4750 1894 4750 
Q 2613 4750 3031 4423 
Q 3450 4097 3450 3541 
Q 3450 3153 3228 2886 
Q 3006 2619 2597 2516 
z
" transform="scale(0.015625)"/>
       </defs>
       <use xlink:href="#DejaVuSans-31"/>
       <use xlink:href="#DejaVuSans-33" x="63.623047"/>
       <use xlink:href="#DejaVuSans-35" x="127.246094"/>
       <use xlink:href="#DejaVuSans-b0" x="190.869141"/>
      </g>
     </g>
    </g>
    <g id="xtick_5">
     <g id="line2d_5">
      <path d="M 251.8225 262.917188 
L 251.8225 484.677188 
" clip-path="url(#p8cd856849c)" style="fill: none; stroke: #b0b0b0; stroke-width: 0.8; stroke-linecap: square"/>
     </g>
     <g id="text_5">
      <!-- 180° -->
      <g transform="translate(239.77875 501.436563)scale(0.1 -0.1)">
       <defs>
        <path id="DejaVuSans-38" d="M 2034 2216 
Q 1584 2216 1326 1975 
Q 1069 1734 1069 1313 
Q 1069 891 1326 650 
Q 1584 409 2034 409 
Q 2484 409 2743 651 
Q 3003 894 3003 1313 
Q 3003 1734 2745 1975 
Q 2488 2216 2034 2216 
z
M 1403 2484 
Q 997 2584 770 2862 
Q 544 3141 544 3541 
Q 544 4100 942 4425 
Q 1341 4750 2034 4750 
Q 2731 4750 3128 4425 
Q 3525 4100 3525 3541 
Q 3525 3141 3298 2862 
Q 3072 2584 2669 2484 
Q 3125 2378 3379 2068 
Q 3634 1759 3634 1313 
Q 3634 634 3220 271 
Q 2806 -91 2034 -91 
Q 1263 -91 848 271 
Q 434 634 434 1313 
Q 434 1759 690 2068 
Q 947 2378 1403 2484 
z
M 1172 3481 
Q 1172 3119 1398 2916 
Q 1625 2713 2034 2713 
Q 2441 2713 2670 2916 
Q 2900 3119 2900 3481 
Q 2900 3844 2670 4047 
Q 2441 4250 2034 4250 
Q 1625 4250 1398 4047 
Q 1172 3844 1172 3481 
z
" transform="scale(0.015625)"/>
       </defs>
       <use xlink:href="#DejaVuSans-31"/>
       <use xlink:href="#DejaVuSans-38" x="63.623047"/>
       <use xlink:href="#DejaVuSans-30" x="127.246094"/>
       <use xlink:href="#DejaVuSans-b0" x="190.869141"/>
      </g>
     </g>
    </g>
    <g id="xtick_6">
     <g id="line2d_6">
      <path d="M 251.8225 262.917188 
L 408.6305 419.725187 
" clip-path="url(#p8cd856849c)" style="fill: none; stroke: #b0b0b0; stroke-width: 0.8; stroke-linecap: square"/>
     </g>
     <g id="text_6">
      <!-- 225° -->
      <g transform="translate(406.486245 432.384057)scale(0.1 -0.1)">
       <defs>
        <path id="DejaVuSans-32" d="M 1228 531 
L 3431 531 
L 3431 0 
L 469 0 
L 469 531 
Q 828 903 1448 1529 
Q 2069 2156 2228 2338 
Q 2531 2678 2651 2914 
Q 2772 3150 2772 3378 
Q 2772 3750 2511 3984 
Q 2250 4219 1831 4219 
Q 1534 4219 1204 4116 
Q 875 4013 500 3803 
L 500 4441 
Q 881 4594 1212 4672 
Q 1544 4750 1819 4750 
Q 2544 4750 2975 4387 
Q 3406 4025 3406 3419 
Q 3406 3131 3298 2873 
Q 3191 2616 2906 2266 
Q 2828 2175 2409 1742 
Q 1991 1309 1228 531 
z
" transform="scale(0.015625)"/>
       </defs>
       <use xlink:href="#DejaVuSans-32"/>
       <use xlink:href="#DejaVuSans-32" x="63.623047"/>
       <use xlink:href="#DejaVuSans-35" x="127.246094"/>
       <use xlink:href="#DejaVuSans-b0" x="190.869141"/>
      </g>
     </g>
    </g>
    <g id="xtick_7">
     <g id="line2d_7">
      <path d="M 251.8225 262.917188 
L 473.5825 262.917188 
" clip-path="url(#p8cd856849c)" style="fill: none; stroke: #b0b0b0; stroke-width: 0.8; stroke-linecap: square"/>
     </g>
     <g id="text_7">
      <!-- 270° -->
      <g transform="translate(475.53875 265.676563)scale(0.1 -0.1)">
       <defs>
        <path id="DejaVuSans-37" d="M 525 4666 
L 3525 4666 
L 3525 4397 
L 1831 0 
L 1172 0 
L 2766 4134 
L 525 4134 
L 525 4666 
z
" transform="scale(0.015625)"/>
       </defs>
       <use xlink:href="#DejaVuSans-32"/>
       <use xlink:href="#DejaVuSans-37" x="63.623047"/>
       <use xlink:href="#DejaVuSans-30" x="127.246094"/>
       <use xlink:href="#DejaVuSans-b0" x="190.869141"/>
      </g>
     </g>
    </g>
    <g id="xtick_8">
     <g id="line2d_8">
      <path d="M 251.8225 262.917188 
L 408.6305 106.109188 
" clip-path="url(#p8cd856849c)" style="fill: none; stroke: #b0b0b0; stroke-width: 0.8; stroke-linecap: square"/>
     </g>
     <g id="text_8">
      <!-- 315° -->
      <g transform="translate(406.486245 98.969068)scale(0.1 -0.1)">
       <use xlink:href="#DejaVuSans-33"/>
       <use xlink:href="#DejaVuSans-31" x="63.623047"/>
       <use xlink:href="#DejaVuSans-35" x="127.246094"/>
       <use xlink:href="#DejaVuSans-b0" x="190.869141"/>
      </g>
     </g>
    </g>
   </g>
   <g id="matplotlib.axis_2">
    <g id="ytick_1">
     <g id="line2d_9">
      <path d="M 251.8225 223.249699 
C 246.613413 223.249699 241.454978 224.275776 236.64241 226.269207 
C 231.829841 228.262638 227.456731 231.184657 223.77335 234.868038 
C 220.08997 238.551418 217.167951 242.924528 215.17452 247.737097 
C 213.181088 252.549666 212.155012 257.708101 212.155012 262.917188 
C 212.155012 268.126274 213.181088 273.284709 215.17452 278.097278 
C 217.167951 282.909847 220.08997 287.282957 223.77335 290.966337 
C 227.456731 294.649718 231.829841 297.571737 236.64241 299.565168 
C 241.454978 301.558599 246.613413 302.584676 251.8225 302.584676 
C 257.031587 302.584676 262.190022 301.558599 267.00259 299.565168 
C 271.815159 297.571737 276.188269 294.649718 279.87165 290.966337 
C 283.55503 287.282957 286.477049 282.909847 288.47048 278.097278 
C 290.463912 273.284709 291.489988 268.126274 291.489988 262.917188 
C 291.489988 257.708101 290.463912 252.549666 288.47048 247.737097 
C 286.477049 242.924528 283.55503 238.551418 279.87165 234.868038 
C 276.188269 231.184657 271.815159 228.262638 267.00259 226.269207 
C 262.190022 224.275776 257.031587 223.249699 251.8225 223.249699 
" clip-path="url(#p8cd856849c)" style="fill: none; stroke: #b0b0b0; stroke-width: 0.8; stroke-linecap: square"/>
     </g>
     <g id="text_9">
      <!-- −40 -->
      <g transform="translate(236.64241 224.18952)scale(0.1 -0.1)">
       <defs>
        <path id="DejaVuSans-2212" d="M 678 2272 
L 4684 2272 
L 4684 1741 
L 678 1741 
L 678 2272 
z
" transform="scale(0.015625)"/>
       </defs>
       <use xlink:href="#DejaVuSans-2212"/>
       <use xlink:href="#DejaVuSans-34" x="83.789062"/>
       <use xlink:href="#DejaVuSans-30" x="147.412109"/>
      </g>
     </g>
    </g>
    <g id="ytick_2">
     <g id="line2d_10">
      <path d="M 251.8225 177.726571 
C 240.635371 177.726571 229.557022 179.930192 219.221463 184.211321 
C 208.885903 188.49245 199.494133 194.76783 191.583638 202.678325 
C 183.673143 210.58882 177.397762 219.98059 173.116633 230.31615 
C 168.835504 240.65171 166.631884 251.730058 166.631884 262.917188 
C 166.631884 274.104317 168.835504 285.182665 173.116633 295.518225 
C 177.397762 305.853785 183.673143 315.245555 191.583638 323.15605 
C 199.494133 331.066545 208.885903 337.341925 219.221463 341.623054 
C 229.557022 345.904183 240.635371 348.107804 251.8225 348.107804 
C 263.009629 348.107804 274.087978 345.904183 284.423537 341.623054 
C 294.759097 337.341925 304.150867 331.066545 312.061362 323.15605 
C 319.971857 315.245555 326.247238 305.853785 330.528367 295.518225 
C 334.809496 285.182665 337.013116 274.104317 337.013116 262.917188 
C 337.013116 251.730058 334.809496 240.65171 330.528367 230.31615 
C 326.247238 219.98059 319.971857 210.58882 312.061362 202.678325 
C 304.150867 194.76783 294.759097 188.49245 284.423537 184.211321 
C 274.087978 179.930192 263.009629 177.726571 251.8225 177.726571 
" clip-path="url(#p8cd856849c)" style="fill: none; stroke: #b0b0b0; stroke-width: 0.8; stroke-linecap: square"/>
     </g>
     <g id="text_10">
      <!-- −30 -->
      <g transform="translate(219.221463 182.131633)scale(0.1 -0.1)">
       <use xlink:href="#DejaVuSans-2212"/>
       <use xlink:href="#DejaVuSans-33" x="83.789062"/>
       <use xlink:href="#DejaVuSans-30" x="147.412109"/>
      </g>
     </g>
    </g>
    <g id="ytick_3">
     <g id="line2d_11">
      <path d="M 251.8225 132.203443 
C 234.657328 132.203443 217.659066 135.584608 201.800516 142.153435 
C 185.941965 148.722262 171.531534 158.351003 159.393925 170.488613 
C 147.256316 182.626222 137.627574 197.036653 131.058747 212.895203 
C 124.489921 228.753754 121.108756 245.752016 121.108756 262.917188 
C 121.108756 280.082359 124.489921 297.080621 131.058747 312.939172 
C 137.627574 328.797722 147.256316 343.208153 159.393925 355.345762 
C 171.531534 367.483372 185.941965 377.112113 201.800516 383.68094 
C 217.659066 390.249767 234.657328 393.630932 251.8225 393.630932 
C 268.987672 393.630932 285.985934 390.249767 301.844484 383.68094 
C 317.703035 377.112113 332.113466 367.483372 344.251075 355.345762 
C 356.388684 343.208153 366.017426 328.797722 372.586253 312.939172 
C 379.155079 297.080621 382.536244 280.082359 382.536244 262.917188 
C 382.536244 245.752016 379.155079 228.753754 372.586253 212.895203 
C 366.017426 197.036653 356.388684 182.626222 344.251075 170.488613 
C 332.113466 158.351003 317.703035 148.722262 301.844484 142.153435 
C 285.985934 135.584608 268.987672 132.203443 251.8225 132.203443 
" clip-path="url(#p8cd856849c)" style="fill: none; stroke: #b0b0b0; stroke-width: 0.8; stroke-linecap: square"/>
     </g>
     <g id="text_11">
      <!-- −20 -->
      <g transform="translate(201.800516 140.073747)scale(0.1 -0.1)">
       <use xlink:href="#DejaVuSans-2212"/>
       <use xlink:href="#DejaVuSans-32" x="83.789062"/>
       <use xlink:href="#DejaVuSans-30" x="147.412109"/>
      </g>
     </g>
    </g>
    <g id="ytick_4">
     <g id="line2d_12">
      <path d="M 251.8225 86.680315 
C 228.679286 86.680315 205.761111 91.239024 184.379569 100.095549 
C 162.998027 108.952073 143.568936 121.934177 127.204213 138.2989 
C 110.839489 154.663624 97.857386 174.092715 89.000861 195.474256 
C 80.144337 216.855798 75.585628 239.773974 75.585628 262.917188 
C 75.585628 286.060401 80.144337 308.978577 89.000861 330.360119 
C 97.857386 351.74166 110.839489 371.170751 127.204213 387.535475 
C 143.568936 403.900198 162.998027 416.882302 184.379569 425.738826 
C 205.761111 434.595351 228.679286 439.15406 251.8225 439.15406 
C 274.965714 439.15406 297.883889 434.595351 319.265431 425.738826 
C 340.646973 416.882302 360.076064 403.900198 376.440787 387.535475 
C 392.805511 371.170751 405.787614 351.74166 414.644139 330.360119 
C 423.500663 308.978577 428.059372 286.060401 428.059372 262.917188 
C 428.059372 239.773974 423.500663 216.855798 414.644139 195.474256 
C 405.787614 174.092715 392.805511 154.663624 376.440787 138.2989 
C 360.076064 121.934177 340.646973 108.952073 319.265431 100.095549 
C 297.883889 91.239024 274.965714 86.680315 251.8225 86.680315 
" clip-path="url(#p8cd856849c)" style="fill: none; stroke: #b0b0b0; stroke-width: 0.8; stroke-linecap: square"/>
     </g>
     <g id="text_12">
      <!-- −10 -->
      <g transform="translate(184.379569 98.015861)scale(0.1 -0.1)">
       <use xlink:href="#DejaVuSans-2212"/>
       <use xlink:href="#DejaVuSans-31" x="83.789062"/>
       <use xlink:href="#DejaVuSans-30" x="147.412109"/>
      </g>
     </g>
    </g>
    <g id="ytick_5">
     <g id="line2d_13">
      <path d="M 251.8225 41.157188 
C 222.701244 41.157188 193.863155 46.89344 166.958622 58.037662 
C 140.054089 69.181885 115.606338 85.51735 95.0145 106.109188 
C 74.422662 126.701026 58.087197 151.148777 46.942975 178.05331 
C 35.798753 204.957842 30.0625 233.795931 30.0625 262.917188 
C 30.0625 292.038444 35.798753 320.876533 46.942975 347.781065 
C 58.087197 374.685598 74.422662 399.133349 95.0145 419.725187 
C 115.606338 440.317025 140.054089 456.65249 166.958622 467.796713 
C 193.863155 478.940935 222.701244 484.677188 251.8225 484.677188 
C 280.943756 484.677188 309.781845 478.940935 336.686378 467.796713 
C 363.590911 456.65249 388.038662 440.317025 408.6305 419.725187 
C 429.222338 399.133349 445.557803 374.685598 456.702025 347.781065 
C 467.846247 320.876533 473.5825 292.038444 473.5825 262.917188 
C 473.5825 233.795931 467.846247 204.957842 456.702025 178.05331 
C 445.557803 151.148777 429.222338 126.701026 408.6305 106.109188 
C 388.038662 85.51735 363.590911 69.181885 336.686378 58.037662 
C 309.781845 46.89344 280.943756 41.157188 251.8225 41.157188 
" clip-path="url(#p8cd856849c)" style="fill: none; stroke: #b0b0b0; stroke-width: 0.8; stroke-linecap: square"/>
     </g>
     <g id="text_13">
      <!-- 0 -->
      <g transform="translate(166.958622 55.957975)scale(0.1 -0.1)">
       <use xlink:href="#DejaVuSans-30"/>
      </g>
     </g>
    </g>
   </g>
   <g id="line2d_14">
    <path d="M 251.8225 457.650106 
L 255.21216 457.110666 
L 258.597768 456.935491 
L 262.023802 457.569621 
L 265.490533 458.379171 
L 269.020746 459.494033 
L 272.667754 461.246535 
L 280.008104 463.468184 
L 283.69405 464.146236 
L 287.26832 463.94042 
L 290.826852 463.577184 
L 294.317232 462.839185 
L 314.973541 457.276106 
L 318.329276 456.066889 
L 321.540603 454.466102 
L 324.636421 452.603936 
L 327.558944 450.371464 
L 330.023845 447.148011 
L 332.562484 444.26216 
L 334.743528 440.741906 
L 336.020365 435.548395 
L 337.131402 430.345334 
L 336.97144 423.059053 
L 334.723568 412.474673 
L 331.851476 401.53144 
L 322.373589 380.333918 
L 296.503476 334.421696 
L 298.989239 335.547596 
L 328.623122 376.778792 
L 341.165703 390.512505 
L 349.784764 397.750677 
L 358.711872 404.764175 
L 364.719361 407.418579 
L 369.725088 408.514759 
L 374.451566 409.060817 
L 377.85553 407.901603 
L 380.659086 406.004712 
L 382.643043 403.205044 
L 384.075354 399.869026 
L 384.874492 395.969179 
L 385.234432 391.751592 
L 387.064783 384.689887 
L 388.173067 381.444927 
L 389.833807 378.722424 
L 391.39164 375.938049 
L 393.260362 373.420556 
L 395.701809 371.338024 
L 398.953187 369.813889 
L 402.422243 368.368263 
L 405.503984 366.576657 
L 409.282623 365.172987 
L 411.888718 362.937662 
L 413.730902 360.20157 
L 414.359348 356.757881 
L 414.60667 353.149926 
L 414.540835 349.436061 
L 413.507152 345.299632 
L 412.858136 341.459515 
L 411.390569 337.325 
L 404.801126 327.852762 
L 398.668163 322.246686 
L 380.231459 309.654226 
L 367.034308 302.587794 
L 364.842975 299.639766 
L 373.241828 300.038801 
L 386.539613 301.546698 
L 396.35703 301.645098 
L 402.337922 300.444897 
L 409.077819 299.222439 
L 413.022655 297.181338 
L 415.49975 294.732822 
L 417.406409 292.114098 
L 417.814309 289.207707 
L 417.508547 286.202843 
L 415.766064 283.046926 
L 413.38051 279.897619 
L 409.003889 276.668777 
L 401.681516 273.396351 
L 396.427204 270.495599 
L 389.776826 267.734659 
L 385.98467 265.258997 
L 384.247914 262.917188 
L 388.37427 260.533667 
L 394.453753 257.936394 
L 401.996145 255.04692 
L 408.107348 251.988686 
L 412.572926 248.853348 
L 416.866588 245.570355 
L 419.453063 242.334742 
L 420.38015 239.227955 
L 420.99317 236.123186 
L 420.567032 233.162974 
L 419.27578 230.367567 
L 415.574129 228.110704 
L 409.587917 226.494171 
L 402.863556 225.258423 
L 389.80081 225.946011 
L 375.415912 227.477347 
L 359.245652 230.074634 
L 336.88302 235.279349 
L 363.612393 224.424841 
L 376.993183 217.358785 
L 392.256577 209.009596 
L 400.305845 202.926022 
L 404.491034 198.113239 
L 410.548061 192.248015 
L 412.851101 187.828318 
L 413.92195 183.856003 
L 415.494661 179.522056 
L 415.272376 176.009347 
L 414.491205 172.748452 
L 412.924308 169.905015 
L 410.855059 167.360786 
L 408.387172 165.084722 
L 401.677109 161.838978 
L 397.235153 161.098152 
L 390.987078 161.808203 
L 386.696332 161.282465 
L 382.333533 160.950793 
L 379.387846 159.616807 
L 378.113079 156.946809 
L 379.226571 152.166518 
L 382.237203 145.491262 
L 382.994594 140.597231 
L 384.458337 134.832248 
L 384.362676 130.377012 
L 383.237343 126.833133 
L 382.208389 123.09544 
L 380.193034 120.347266 
L 377.538952 118.296953 
L 373.939486 117.383831 
L 370.172007 116.767718 
L 366.056241 116.704667 
L 360.76113 118.350743 
L 356.166505 119.299986 
L 351.630989 120.375892 
L 347.931658 120.429502 
L 346.203829 117.582685 
L 345.925459 112.320973 
L 346.741167 104.945998 
L 345.438578 94.029313 
L 344.451575 88.707234 
L 342.52964 84.894402 
L 340.4067 81.292662 
L 337.629364 78.903774 
L 334.449257 77.334454 
L 324.129054 74.552173 
L 320.583059 73.999105 
L 317.256244 72.883797 
L 313.973347 71.636549 
L 310.722734 70.263202 
L 307.384112 69.150818 
L 300.53175 67.555054 
L 297.022628 67.133923 
L 293.428489 67.1764 
L 289.742812 67.834096 
L 286.138694 68.30038 
L 278.815112 70.854774 
L 275.321462 71.533498 
L 271.927338 71.632435 
L 268.618034 70.943357 
L 265.322548 69.857511 
L 262.030234 68.14201 
L 255.265232 65.683227 
L 251.8225 64.542418 
L 248.354901 64.25857 
L 241.4032 64.105097 
L 237.888039 63.645117 
L 234.313591 62.789445 
L 230.656049 61.531862 
L 226.958206 60.413764 
L 223.161092 58.980675 
L 219.258039 57.313272 
L 215.515034 57.007318 
L 211.80794 57.060123 
L 208.156973 57.487034 
L 201.096762 59.467363 
L 197.38649 59.759234 
L 193.614541 59.92191 
L 189.530961 59.170743 
L 185.64415 59.241171 
L 181.935081 59.949386 
L 178.347398 61.046003 
L 175.016536 62.830811 
L 171.841499 64.957262 
L 160.620069 75.924494 
L 157.477956 77.755595 
L 154.10907 79.144954 
L 147.074465 81.488269 
L 139.711286 83.501741 
L 136.148365 84.794639 
L 132.209624 85.583806 
L 128.318284 86.534888 
L 124.568447 87.767009 
L 120.63791 88.829357 
L 116.975021 90.320286 
L 113.602301 92.229457 
L 110.369381 94.339925 
L 100.930267 101.105078 
L 95.284894 106.379581 
L 92.544031 109.103758 
L 89.997073 112.012536 
L 87.871843 115.295353 
L 86.536686 119.236422 
L 85.501504 123.357301 
L 86.04879 128.676284 
L 87.350768 134.417787 
L 88.318013 139.707719 
L 96.457049 154.129127 
L 99.760079 160.349789 
L 108.041879 169.544961 
L 113.456603 176.456579 
L 117.423858 182.162336 
L 117.734144 185.501239 
L 112.609061 185.749918 
L 104.985026 184.842318 
L 93.058269 182.022771 
L 78.049313 181.88542 
L 69.928573 181.932793 
L 64.851138 183.552553 
L 59.98278 185.408909 
L 55.884074 187.703473 
L 53.292257 190.658089 
L 51.045585 193.784152 
L 49.497289 197.177742 
L 48.285018 200.689534 
L 47.352523 204.286365 
L 46.633042 207.936838 
L 46.137628 211.634189 
L 45.934853 215.384279 
L 45.559667 219.074669 
L 45.424726 222.797524 
L 46.190586 226.658733 
L 47.374125 230.535746 
L 49.360107 234.462954 
L 57.477242 242.490678 
L 63.172817 246.412479 
L 72.817911 250.399967 
L 81.864341 254.010058 
L 96.739157 257.501558 
L 121.187835 260.636951 
L 132.958426 262.917188 
L 112.043632 265.357037 
L 91.402547 268.519176 
L 80.755099 271.88245 
L 69.593642 275.659871 
L 62.057209 279.519499 
L 57.364058 283.355593 
L 51.632487 287.49743 
L 47.822876 291.587465 
L 42.021254 299.910808 
L 40.518122 303.990598 
L 38.256765 312.222722 
L 38.292877 316.156102 
L 38.801635 319.995956 
L 39.545803 323.786551 
L 40.723165 327.456731 
L 42.349274 330.979165 
L 46.884151 337.508646 
L 49.551649 340.561693 
L 52.427492 343.478 
L 55.146112 346.401361 
L 59.20317 348.676838 
L 67.857584 352.642872 
L 79.827266 354.368676 
L 86.032265 354.816215 
L 94.09146 353.983246 
L 99.770786 354.279074 
L 104.403543 355.034776 
L 105.804595 357.742324 
L 105.334334 361.724703 
L 103.083546 367.065324 
L 100.139751 373.121156 
L 97.782553 383.266384 
L 97.182283 388.142366 
L 97.86389 392.103801 
L 98.235157 396.428628 
L 99.259115 400.285877 
L 100.900697 403.654046 
L 102.430229 407.183627 
L 104.417115 410.322572 
L 106.917275 412.97094 
L 108.909268 416.172865 
L 111.139663 419.161307 
L 113.813261 421.678656 
L 118.607217 427.424361 
L 121.170639 430.143944 
L 123.61865 433.049443 
L 129.114669 438.162131 
L 131.843054 440.794031 
L 140.646277 447.945495 
L 143.714858 450.165115 
L 146.853588 452.286117 
L 166.239424 464.538279 
L 173.000122 468.256503 
L 176.388713 470.169813 
L 179.842373 471.962655 
L 183.383516 473.550722 
L 186.986151 474.98733 
L 190.717237 476.016566 
L 194.556393 476.637207 
L 202.446306 476.788981 
L 206.465615 476.304555 
L 210.462444 475.696228 
L 214.383037 475.246932 
L 218.374275 474.100969 
L 222.335564 472.727637 
L 226.194819 471.637903 
L 237.640665 465.726871 
L 241.349594 462.752145 
L 244.919497 460.593321 
L 248.400107 458.985933 
L 248.400107 458.985933 
" clip-path="url(#p8cd856849c)" style="fill: none; stroke: #ff0000; stroke-width: 1.5; stroke-linecap: square"/>
   </g>
   <g id="line2d_15">
    <path d="M 251.8225 64.642569 
L 244.845303 63.116419 
L 237.739393 61.519371 
L 234.142667 60.835771 
L 230.523621 60.271894 
L 226.887748 59.839929 
L 223.239527 59.538767 
L 215.914949 59.275345 
L 208.547206 59.322937 
L 197.361159 59.664694 
L 189.799816 60.050129 
L 182.198893 60.715551 
L 178.411234 61.221392 
L 174.651102 61.878822 
L 170.93597 62.716001 
L 167.28176 63.751686 
L 163.707624 65.007935 
L 160.228573 66.493378 
L 156.86235 68.220027 
L 153.625615 70.194949 
L 150.527154 72.40835 
L 147.573072 74.846241 
L 144.766443 77.490657 
L 142.097593 80.304276 
L 137.053334 86.18817 
L 134.581633 89.100455 
L 132.051895 91.867037 
L 129.388601 94.401383 
L 126.529528 96.647798 
L 123.444176 98.600426 
L 120.145076 100.309111 
L 109.613571 104.978171 
L 106.180263 106.73501 
L 102.932775 108.737363 
L 99.939526 111.034214 
L 97.269365 113.66696 
L 94.977782 116.657122 
L 93.129069 120.02898 
L 91.782961 123.796938 
L 91.014884 127.983576 
L 90.910097 132.612892 
L 91.583031 137.724393 
L 93.193405 143.38159 
L 95.974393 149.686909 
L 100.297956 156.81856 
L 106.806209 165.102464 
L 116.731399 175.188001 
L 132.570336 188.400165 
L 151.81301 202.825423 
L 115.256787 187.217577 
L 100.840969 182.638884 
L 89.999939 180.464475 
L 81.318921 179.757035 
L 74.092674 180.040409 
L 67.919899 181.038474 
L 62.551013 182.576208 
L 57.837331 184.542092 
L 53.6741 186.855143 
L 49.998371 189.459212 
L 46.767115 192.310956 
L 43.951191 195.375705 
L 41.545957 198.629197 
L 39.550179 202.049079 
L 37.974962 205.616912 
L 36.835238 209.314843 
L 36.158709 213.127278 
L 35.972715 217.036899 
L 36.326506 221.02901 
L 37.269112 225.085636 
L 38.871686 229.189092 
L 41.236673 233.32128 
L 44.485764 237.459437 
L 48.815016 241.580241 
L 54.515521 245.655064 
L 62.082458 249.649271 
L 72.426691 253.515452 
L 87.590033 257.182063 
L 113.955312 260.510707 
L 241.2625 262.917188 
L 116.595251 265.277588 
L 88.859354 268.607986 
L 73.2268 272.276992 
L 62.631946 276.14668 
L 54.900995 280.145587 
L 49.083037 284.225964 
L 44.662433 288.353245 
L 41.335849 292.499157 
L 38.912152 296.638874 
L 37.251179 300.751901 
L 36.255007 304.819263 
L 35.861395 308.821138 
L 36.003461 312.742939 
L 36.64972 316.565787 
L 37.755102 320.276374 
L 39.305125 323.855564 
L 41.276047 327.287698 
L 43.656785 330.554328 
L 46.452901 333.631611 
L 49.668982 336.495051 
L 53.325604 339.113007 
L 57.471807 341.439964 
L 62.164656 343.422166 
L 67.504856 344.98069 
L 73.642963 346.00367 
L 80.811563 346.324794 
L 89.39963 345.675773 
L 100.089331 343.595144 
L 114.221586 339.19062 
L 134.260762 330.791488 
L 151.578884 323.149629 
L 133.535481 336.831121 
L 117.433891 350.190171 
L 107.285511 360.408617 
L 100.641028 368.775594 
L 96.22483 375.965512 
L 93.371551 382.318542 
L 91.702846 388.016372 
L 90.977669 393.166764 
L 91.034064 397.834705 
L 91.758911 402.058343 
L 93.058025 405.869363 
L 94.864584 409.282812 
L 97.108906 412.322368 
L 99.736731 415.002956 
L 102.689277 417.34916 
L 105.897738 419.402336 
L 109.293731 421.211422 
L 116.324138 424.397848 
L 119.782671 425.972797 
L 123.098044 427.676977 
L 126.21529 429.603585 
L 129.118615 431.804597 
L 131.831518 434.282069 
L 134.410313 436.987913 
L 142.031944 445.639357 
L 144.72092 448.422566 
L 147.542174 451.043876 
L 150.505782 453.46622 
L 153.611148 455.667819 
L 156.856363 457.626623 
L 160.226649 459.345123 
L 163.711327 460.818123 
L 167.294211 462.053356 
L 170.95814 463.063503 
L 174.68373 463.870554 
L 178.456386 464.488928 
L 182.258177 464.946652 
L 189.88766 465.496922 
L 197.47686 465.737876 
L 208.685676 465.859988 
L 216.052148 465.780934 
L 223.363768 465.411587 
L 227.002034 465.063659 
L 230.626023 464.58819 
L 234.231462 463.983673 
L 241.364842 462.461196 
L 248.368169 460.815685 
L 251.8225 460.11746 
L 255.255857 459.614057 
L 258.682607 459.364945 
L 262.120293 459.410781 
L 265.586117 459.746079 
L 269.094543 460.337541 
L 276.261272 461.955014 
L 283.600618 463.556326 
L 287.304129 464.143507 
L 291.007004 464.503987 
L 294.689343 464.589826 
L 298.329518 464.361213 
L 301.904856 463.786548 
L 305.3911 462.837925 
L 308.762233 461.489635 
L 311.990122 459.71661 
L 315.043878 457.492581 
L 317.888947 454.788083 
L 320.486526 451.570048 
L 322.792935 447.801493 
L 324.755387 443.432418 
L 326.320528 438.423544 
L 327.424315 432.721644 
L 328.017607 426.318122 
L 328.097823 419.304776 
L 327.812621 412.056197 
L 327.676838 405.578449 
L 328.691823 401.593118 
L 331.714907 401.294895 
L 336.445965 403.754284 
L 341.930594 407.120282 
L 347.483183 410.221721 
L 352.806522 412.632157 
L 357.790573 414.255279 
L 362.414457 415.133957 
L 366.684254 415.343883 
L 370.607799 414.955437 
L 374.205735 414.047896 
L 377.486004 412.67712 
L 380.462819 410.900947 
L 383.141651 408.76188 
L 385.536595 406.307999 
L 387.658242 403.579216 
L 389.516249 400.610936 
L 391.125545 397.440574 
L 392.499891 394.100977 
L 393.665071 390.632812 
L 394.642441 387.068668 
L 395.458779 383.442337 
L 396.732841 376.133554 
L 397.71205 368.91215 
L 398.438984 361.811254 
L 398.638344 358.260511 
L 398.643068 354.66086 
L 398.364457 350.968479 
L 397.675033 347.125187 
L 396.426947 343.072741 
L 394.431509 338.743743 
L 391.433636 334.052614 
L 387.048376 328.871254 
L 380.62863 322.980472 
L 371.135637 316.038819 
L 356.246659 307.242613 
L 332.650146 295.573676 
L 335.035248 294.859569 
L 360.94725 302.635348 
L 378.496649 306.534595 
L 390.884958 308.101319 
L 400.272079 308.302778 
L 407.609879 307.5885 
L 413.413755 306.215434 
L 417.978836 304.344615 
L 421.47099 302.083627 
L 423.994437 299.513463 
L 425.594485 296.69504 
L 426.287535 293.68008 
L 426.051469 290.512345 
L 424.834064 287.232377 
L 422.53008 283.877443 
L 418.971818 280.485289 
L 413.888073 277.096088 
L 406.813099 273.755186 
L 396.795436 270.514897 
L 381.846978 267.457742 
L 355.871155 264.733364 
L 292.882996 262.917188 
L 354.73325 261.120874 
L 381.164547 258.400464 
L 396.249908 255.348068 
L 406.268152 252.117295 
L 413.357479 248.784708 
L 418.419478 245.40714 
L 421.933654 242.030164 
L 424.18491 238.693231 
L 425.345555 235.433835 
L 425.511949 232.291051 
L 424.740968 229.305242 
L 423.050437 226.521566 
L 420.428615 223.991399 
L 416.812725 221.780504 
L 412.103391 219.970052 
L 406.117675 218.673758 
L 398.530719 218.063984 
L 388.7635 218.422359 
L 375.7419 220.248316 
L 356.883364 224.67816 
L 327.937832 233.699249 
L 332.607938 230.277752 
L 357.000936 218.27159 
L 371.385162 209.684461 
L 380.504856 202.911619 
L 386.639217 197.162681 
L 390.825215 192.091767 
L 393.667813 187.496697 
L 395.519155 183.264831 
L 396.653947 179.298713 
L 397.248459 175.536456 
L 397.46173 171.911696 
L 397.405165 168.374699 
L 396.851062 161.367095 
L 396.036288 154.244304 
L 395.017897 146.959841 
L 394.381212 143.296225 
L 393.615174 139.658696 
L 392.687376 136.081884 
L 391.571002 132.599601 
L 390.238112 129.250785 
L 388.672878 126.066809 
L 386.855017 123.086923 
L 384.772846 120.345396 
L 382.413635 117.881039 
L 379.769931 115.730505 
L 376.827616 113.941892 
L 373.584059 112.554184 
L 370.019235 111.632265 
L 366.128105 111.228527 
L 361.890003 111.422266 
L 357.297075 112.283883 
L 352.338128 113.896641 
L 347.036897 116.299874 
L 341.491545 119.416719 
L 335.99111 122.837097 
L 331.214152 125.406812 
L 328.118002 125.276458 
L 327.050644 121.433626 
L 327.213276 114.954459 
L 327.54105 107.671153 
L 327.507776 100.609589 
L 326.957714 94.160735 
L 325.890076 88.424914 
L 324.359752 83.381189 
L 322.427501 78.984871 
L 320.150218 75.188326 
L 317.580673 71.941586 
L 314.762389 69.208128 
L 311.735334 66.951136 
L 308.534125 65.140247 
L 305.189908 63.747311 
L 301.731038 62.744976 
L 298.183499 62.10564 
L 294.571457 61.799158 
L 290.917276 61.792002 
L 287.242312 62.04145 
L 283.565652 62.498816 
L 276.272923 63.784475 
L 269.134616 65.0388 
L 265.630574 65.452524 
L 262.161748 65.632577 
L 258.714699 65.550423 
L 255.273574 65.205307 
L 255.273574 65.205307 
" clip-path="url(#p8cd856849c)" style="fill: none; stroke-dasharray: 5.55,2.4; stroke-dashoffset: 0; stroke: #0000ff; stroke-width: 1.5"/>
   </g>
   <g id="patch_3">
    <path d="M 251.8225 41.157188 
C 222.701244 41.157188 193.863155 46.89344 166.958622 58.037662 
C 140.054089 69.181885 115.606338 85.51735 95.0145 106.109188 
C 74.422662 126.701026 58.087197 151.148777 46.942975 178.05331 
C 35.798753 204.957842 30.0625 233.795931 30.0625 262.917188 
C 30.0625 292.038444 35.798753 320.876533 46.942975 347.781065 
C 58.087197 374.685598 74.422662 399.133349 95.0145 419.725187 
C 115.606338 440.317025 140.054089 456.65249 166.958622 467.796713 
C 193.863155 478.940935 222.701244 484.677188 251.8225 484.677188 
C 280.943756 484.677188 309.781845 478.940935 336.686378 467.796713 
C 363.590911 456.65249 388.038662 440.317025 408.6305 419.725187 
C 429.222338 399.133349 445.557803 374.685598 456.702025 347.781065 
C 467.846247 320.876533 473.5825 292.038444 473.5825 262.917188 
C 473.5825 233.795931 467.846247 204.957842 456.702025 178.05331 
C 445.557803 151.148777 429.222338 126.701026 408.6305 106.109188 
C 388.038662 85.51735 363.590911 69.181885 336.686378 58.037662 
C 309.781845 46.89344 280.943756 41.157188 251.8225 41.157188 
" style="fill: none; stroke: #000000; stroke-width: 0.8; stroke-linejoin: miter; stroke-linecap: square"/>
   </g>
   <g id="text_14">
    <g id="patch_4">
     <path d="M 384.8785 509.853188 
L 488.976938 509.853188 
Q 491.976938 509.853188 491.976938 506.853188 
L 491.976938 473.945063 
Q 491.976938 470.945063 488.976938 470.945063 
L 384.8785 470.945063 
Q 381.8785 470.945063 381.8785 473.945063 
L 381.8785 506.853188 
Q 381.8785 509.853188 384.8785 509.853188 
z
" style="fill: #ffffff; stroke: #808080; stroke-linejoin: miter"/>
    </g>
    <!-- G_cst: 3.4 dBi -->
    <g transform="translate(384.8785 481.821625)scale(0.1 -0.1)">
     <defs>
      <path id="DejaVuSans-47" d="M 3809 666 
L 3809 1919 
L 2778 1919 
L 2778 2438 
L 4434 2438 
L 4434 434 
Q 4069 175 3628 42 
Q 3188 -91 2688 -91 
Q 1594 -91 976 548 
Q 359 1188 359 2328 
Q 359 3472 976 4111 
Q 1594 4750 2688 4750 
Q 3144 4750 3555 4637 
Q 3966 4525 4313 4306 
L 4313 3634 
Q 3963 3931 3569 4081 
Q 3175 4231 2741 4231 
Q 1884 4231 1454 3753 
Q 1025 3275 1025 2328 
Q 1025 1384 1454 906 
Q 1884 428 2741 428 
Q 3075 428 3337 486 
Q 3600 544 3809 666 
z
" transform="scale(0.015625)"/>
      <path id="DejaVuSans-5f" d="M 3263 -1063 
L 3263 -1509 
L -63 -1509 
L -63 -1063 
L 3263 -1063 
z
" transform="scale(0.015625)"/>
      <path id="DejaVuSans-63" d="M 3122 3366 
L 3122 2828 
Q 2878 2963 2633 3030 
Q 2388 3097 2138 3097 
Q 1578 3097 1268 2742 
Q 959 2388 959 1747 
Q 959 1106 1268 751 
Q 1578 397 2138 397 
Q 2388 397 2633 464 
Q 2878 531 3122 666 
L 3122 134 
Q 2881 22 2623 -34 
Q 2366 -91 2075 -91 
Q 1284 -91 818 406 
Q 353 903 353 1747 
Q 353 2603 823 3093 
Q 1294 3584 2113 3584 
Q 2378 3584 2631 3529 
Q 2884 3475 3122 3366 
z
" transform="scale(0.015625)"/>
      <path id="DejaVuSans-73" d="M 2834 3397 
L 2834 2853 
Q 2591 2978 2328 3040 
Q 2066 3103 1784 3103 
Q 1356 3103 1142 2972 
Q 928 2841 928 2578 
Q 928 2378 1081 2264 
Q 1234 2150 1697 2047 
L 1894 2003 
Q 2506 1872 2764 1633 
Q 3022 1394 3022 966 
Q 3022 478 2636 193 
Q 2250 -91 1575 -91 
Q 1294 -91 989 -36 
Q 684 19 347 128 
L 347 722 
Q 666 556 975 473 
Q 1284 391 1588 391 
Q 1994 391 2212 530 
Q 2431 669 2431 922 
Q 2431 1156 2273 1281 
Q 2116 1406 1581 1522 
L 1381 1569 
Q 847 1681 609 1914 
Q 372 2147 372 2553 
Q 372 3047 722 3315 
Q 1072 3584 1716 3584 
Q 2034 3584 2315 3537 
Q 2597 3491 2834 3397 
z
" transform="scale(0.015625)"/>
      <path id="DejaVuSans-74" d="M 1172 4494 
L 1172 3500 
L 2356 3500 
L 2356 3053 
L 1172 3053 
L 1172 1153 
Q 1172 725 1289 603 
Q 1406 481 1766 481 
L 2356 481 
L 2356 0 
L 1766 0 
Q 1100 0 847 248 
Q 594 497 594 1153 
L 594 3053 
L 172 3053 
L 172 3500 
L 594 3500 
L 594 4494 
L 1172 4494 
z
" transform="scale(0.015625)"/>
      <path id="DejaVuSans-3a" d="M 750 794 
L 1409 794 
L 1409 0 
L 750 0 
L 750 794 
z
M 750 3309 
L 1409 3309 
L 1409 2516 
L 750 2516 
L 750 3309 
z
" transform="scale(0.015625)"/>
      <path id="DejaVuSans-20" transform="scale(0.015625)"/>
      <path id="DejaVuSans-2e" d="M 684 794 
L 1344 794 
L 1344 0 
L 684 0 
L 684 794 
z
" transform="scale(0.015625)"/>
      <path id="DejaVuSans-64" d="M 2906 2969 
L 2906 4863 
L 3481 4863 
L 3481 0 
L 2906 0 
L 2906 525 
Q 2725 213 2448 61 
Q 2172 -91 1784 -91 
Q 1150 -91 751 415 
Q 353 922 353 1747 
Q 353 2572 751 3078 
Q 1150 3584 1784 3584 
Q 2172 3584 2448 3432 
Q 2725 3281 2906 2969 
z
M 947 1747 
Q 947 1113 1208 752 
Q 1469 391 1925 391 
Q 2381 391 2643 752 
Q 2906 1113 2906 1747 
Q 2906 2381 2643 2742 
Q 2381 3103 1925 3103 
Q 1469 3103 1208 2742 
Q 947 2381 947 1747 
z
" transform="scale(0.015625)"/>
      <path id="DejaVuSans-42" d="M 1259 2228 
L 1259 519 
L 2272 519 
Q 2781 519 3026 730 
Q 3272 941 3272 1375 
Q 3272 1813 3026 2020 
Q 2781 2228 2272 2228 
L 1259 2228 
z
M 1259 4147 
L 1259 2741 
L 2194 2741 
Q 2656 2741 2882 2914 
Q 3109 3088 3109 3444 
Q 3109 3797 2882 3972 
Q 2656 4147 2194 4147 
L 1259 4147 
z
M 628 4666 
L 2241 4666 
Q 2963 4666 3353 4366 
Q 3744 4066 3744 3513 
Q 3744 3084 3544 2831 
Q 3344 2578 2956 2516 
Q 3422 2416 3680 2098 
Q 3938 1781 3938 1306 
Q 3938 681 3513 340 
Q 3088 0 2303 0 
L 628 0 
L 628 4666 
z
" transform="scale(0.015625)"/>
      <path id="DejaVuSans-69" d="M 603 3500 
L 1178 3500 
L 1178 0 
L 603 0 
L 603 3500 
z
M 603 4863 
L 1178 4863 
L 1178 4134 
L 603 4134 
L 603 4863 
z
" transform="scale(0.015625)"/>
     </defs>
     <use xlink:href="#DejaVuSans-47"/>
     <use xlink:href="#DejaVuSans-5f" x="77.490234"/>
     <use xlink:href="#DejaVuSans-63" x="127.490234"/>
     <use xlink:href="#DejaVuSans-73" x="182.470703"/>
     <use xlink:href="#DejaVuSans-74" x="234.570312"/>
     <use xlink:href="#DejaVuSans-3a" x="273.779297"/>
     <use xlink:href="#DejaVuSans-20" x="307.470703"/>
     <use xlink:href="#DejaVuSans-33" x="339.257812"/>
     <use xlink:href="#DejaVuSans-2e" x="402.880859"/>
     <use xlink:href="#DejaVuSans-34" x="434.667969"/>
     <use xlink:href="#DejaVuSans-20" x="498.291016"/>
     <use xlink:href="#DejaVuSans-64" x="530.078125"/>
     <use xlink:href="#DejaVuSans-42" x="593.554688"/>
     <use xlink:href="#DejaVuSans-69" x="662.158203"/>
    </g>
    <!-- G_inpe: 2.8 dBi -->
    <g transform="translate(384.8785 493.297563)scale(0.1 -0.1)">
     <defs>
      <path id="DejaVuSans-6e" d="M 3513 2113 
L 3513 0 
L 2938 0 
L 2938 2094 
Q 2938 2591 2744 2837 
Q 2550 3084 2163 3084 
Q 1697 3084 1428 2787 
Q 1159 2491 1159 1978 
L 1159 0 
L 581 0 
L 581 3500 
L 1159 3500 
L 1159 2956 
Q 1366 3272 1645 3428 
Q 1925 3584 2291 3584 
Q 2894 3584 3203 3211 
Q 3513 2838 3513 2113 
z
" transform="scale(0.015625)"/>
      <path id="DejaVuSans-70" d="M 1159 525 
L 1159 -1331 
L 581 -1331 
L 581 3500 
L 1159 3500 
L 1159 2969 
Q 1341 3281 1617 3432 
Q 1894 3584 2278 3584 
Q 2916 3584 3314 3078 
Q 3713 2572 3713 1747 
Q 3713 922 3314 415 
Q 2916 -91 2278 -91 
Q 1894 -91 1617 61 
Q 1341 213 1159 525 
z
M 3116 1747 
Q 3116 2381 2855 2742 
Q 2594 3103 2138 3103 
Q 1681 3103 1420 2742 
Q 1159 2381 1159 1747 
Q 1159 1113 1420 752 
Q 1681 391 2138 391 
Q 2594 391 2855 752 
Q 3116 1113 3116 1747 
z
" transform="scale(0.015625)"/>
      <path id="DejaVuSans-65" d="M 3597 1894 
L 3597 1613 
L 953 1613 
Q 991 1019 1311 708 
Q 1631 397 2203 397 
Q 2534 397 2845 478 
Q 3156 559 3463 722 
L 3463 178 
Q 3153 47 2828 -22 
Q 2503 -91 2169 -91 
Q 1331 -91 842 396 
Q 353 884 353 1716 
Q 353 2575 817 3079 
Q 1281 3584 2069 3584 
Q 2775 3584 3186 3129 
Q 3597 2675 3597 1894 
z
M 3022 2063 
Q 3016 2534 2758 2815 
Q 2500 3097 2075 3097 
Q 1594 3097 1305 2825 
Q 1016 2553 972 2059 
L 3022 2063 
z
" transform="scale(0.015625)"/>
     </defs>
     <use xlink:href="#DejaVuSans-47"/>
     <use xlink:href="#DejaVuSans-5f" x="77.490234"/>
     <use xlink:href="#DejaVuSans-69" x="127.490234"/>
     <use xlink:href="#DejaVuSans-6e" x="155.273438"/>
     <use xlink:href="#DejaVuSans-70" x="218.652344"/>
     <use xlink:href="#DejaVuSans-65" x="282.128906"/>
     <use xlink:href="#DejaVuSans-3a" x="343.652344"/>
     <use xlink:href="#DejaVuSans-20" x="377.34375"/>
     <use xlink:href="#DejaVuSans-32" x="409.130859"/>
     <use xlink:href="#DejaVuSans-2e" x="472.753906"/>
     <use xlink:href="#DejaVuSans-38" x="504.541016"/>
     <use xlink:href="#DejaVuSans-20" x="568.164062"/>
     <use xlink:href="#DejaVuSans-64" x="599.951172"/>
     <use xlink:href="#DejaVuSans-42" x="663.427734"/>
     <use xlink:href="#DejaVuSans-69" x="732.03125"/>
    </g>
    <!-- Pearson Coef: -0.077 -->
    <g transform="translate(384.8785 504.7735)scale(0.1 -0.1)">
     <defs>
      <path id="DejaVuSans-50" d="M 1259 4147 
L 1259 2394 
L 2053 2394 
Q 2494 2394 2734 2622 
Q 2975 2850 2975 3272 
Q 2975 3691 2734 3919 
Q 2494 4147 2053 4147 
L 1259 4147 
z
M 628 4666 
L 2053 4666 
Q 2838 4666 3239 4311 
Q 3641 3956 3641 3272 
Q 3641 2581 3239 2228 
Q 2838 1875 2053 1875 
L 1259 1875 
L 1259 0 
L 628 0 
L 628 4666 
z
" transform="scale(0.015625)"/>
      <path id="DejaVuSans-61" d="M 2194 1759 
Q 1497 1759 1228 1600 
Q 959 1441 959 1056 
Q 959 750 1161 570 
Q 1363 391 1709 391 
Q 2188 391 2477 730 
Q 2766 1069 2766 1631 
L 2766 1759 
L 2194 1759 
z
M 3341 1997 
L 3341 0 
L 2766 0 
L 2766 531 
Q 2569 213 2275 61 
Q 1981 -91 1556 -91 
Q 1019 -91 701 211 
Q 384 513 384 1019 
Q 384 1609 779 1909 
Q 1175 2209 1959 2209 
L 2766 2209 
L 2766 2266 
Q 2766 2663 2505 2880 
Q 2244 3097 1772 3097 
Q 1472 3097 1187 3025 
Q 903 2953 641 2809 
L 641 3341 
Q 956 3463 1253 3523 
Q 1550 3584 1831 3584 
Q 2591 3584 2966 3190 
Q 3341 2797 3341 1997 
z
" transform="scale(0.015625)"/>
      <path id="DejaVuSans-72" d="M 2631 2963 
Q 2534 3019 2420 3045 
Q 2306 3072 2169 3072 
Q 1681 3072 1420 2755 
Q 1159 2438 1159 1844 
L 1159 0 
L 581 0 
L 581 3500 
L 1159 3500 
L 1159 2956 
Q 1341 3275 1631 3429 
Q 1922 3584 2338 3584 
Q 2397 3584 2469 3576 
Q 2541 3569 2628 3553 
L 2631 2963 
z
" transform="scale(0.015625)"/>
      <path id="DejaVuSans-6f" d="M 1959 3097 
Q 1497 3097 1228 2736 
Q 959 2375 959 1747 
Q 959 1119 1226 758 
Q 1494 397 1959 397 
Q 2419 397 2687 759 
Q 2956 1122 2956 1747 
Q 2956 2369 2687 2733 
Q 2419 3097 1959 3097 
z
M 1959 3584 
Q 2709 3584 3137 3096 
Q 3566 2609 3566 1747 
Q 3566 888 3137 398 
Q 2709 -91 1959 -91 
Q 1206 -91 779 398 
Q 353 888 353 1747 
Q 353 2609 779 3096 
Q 1206 3584 1959 3584 
z
" transform="scale(0.015625)"/>
      <path id="DejaVuSans-43" d="M 4122 4306 
L 4122 3641 
Q 3803 3938 3442 4084 
Q 3081 4231 2675 4231 
Q 1875 4231 1450 3742 
Q 1025 3253 1025 2328 
Q 1025 1406 1450 917 
Q 1875 428 2675 428 
Q 3081 428 3442 575 
Q 3803 722 4122 1019 
L 4122 359 
Q 3791 134 3420 21 
Q 3050 -91 2638 -91 
Q 1578 -91 968 557 
Q 359 1206 359 2328 
Q 359 3453 968 4101 
Q 1578 4750 2638 4750 
Q 3056 4750 3426 4639 
Q 3797 4528 4122 4306 
z
" transform="scale(0.015625)"/>
      <path id="DejaVuSans-66" d="M 2375 4863 
L 2375 4384 
L 1825 4384 
Q 1516 4384 1395 4259 
Q 1275 4134 1275 3809 
L 1275 3500 
L 2222 3500 
L 2222 3053 
L 1275 3053 
L 1275 0 
L 697 0 
L 697 3053 
L 147 3053 
L 147 3500 
L 697 3500 
L 697 3744 
Q 697 4328 969 4595 
Q 1241 4863 1831 4863 
L 2375 4863 
z
" transform="scale(0.015625)"/>
      <path id="DejaVuSans-2d" d="M 313 2009 
L 1997 2009 
L 1997 1497 
L 313 1497 
L 313 2009 
z
" transform="scale(0.015625)"/>
     </defs>
     <use xlink:href="#DejaVuSans-50"/>
     <use xlink:href="#DejaVuSans-65" x="56.677734"/>
     <use xlink:href="#DejaVuSans-61" x="118.201172"/>
     <use xlink:href="#DejaVuSans-72" x="179.480469"/>
     <use xlink:href="#DejaVuSans-73" x="220.59375"/>
     <use xlink:href="#DejaVuSans-6f" x="272.693359"/>
     <use xlink:href="#DejaVuSans-6e" x="333.875"/>
     <use xlink:href="#DejaVuSans-20" x="397.253906"/>
     <use xlink:href="#DejaVuSans-43" x="429.041016"/>
     <use xlink:href="#DejaVuSans-6f" x="498.865234"/>
     <use xlink:href="#DejaVuSans-65" x="560.046875"/>
     <use xlink:href="#DejaVuSans-66" x="621.570312"/>
     <use xlink:href="#DejaVuSans-3a" x="653.150391"/>
     <use xlink:href="#DejaVuSans-20" x="686.841797"/>
     <use xlink:href="#DejaVuSans-2d" x="718.628906"/>
     <use xlink:href="#DejaVuSans-30" x="754.712891"/>
     <use xlink:href="#DejaVuSans-2e" x="818.335938"/>
     <use xlink:href="#DejaVuSans-30" x="850.123047"/>
     <use xlink:href="#DejaVuSans-37" x="913.746094"/>
     <use xlink:href="#DejaVuSans-37" x="977.369141"/>
    </g>
   </g>
   <g id="text_15">
    <g id="patch_5">
     <path d="M 52.2385 56.370938 
L 129.496 56.370938 
Q 133.096 56.370938 133.096 52.770938 
L 133.096 41.157188 
Q 133.096 37.557188 129.496 37.557188 
L 52.2385 37.557188 
Q 48.6385 37.557188 48.6385 41.157188 
L 48.6385 52.770938 
Q 48.6385 56.370938 52.2385 56.370938 
z
" style="fill: #ffffff; stroke: #808080; stroke-linejoin: miter"/>
    </g>
    <!-- Freq: 18 GHz -->
    <g transform="translate(52.2385 50.275313)scale(0.12 -0.12)">
     <defs>
      <path id="DejaVuSans-46" d="M 628 4666 
L 3309 4666 
L 3309 4134 
L 1259 4134 
L 1259 2759 
L 3109 2759 
L 3109 2228 
L 1259 2228 
L 1259 0 
L 628 0 
L 628 4666 
z
" transform="scale(0.015625)"/>
      <path id="DejaVuSans-71" d="M 947 1747 
Q 947 1113 1208 752 
Q 1469 391 1925 391 
Q 2381 391 2643 752 
Q 2906 1113 2906 1747 
Q 2906 2381 2643 2742 
Q 2381 3103 1925 3103 
Q 1469 3103 1208 2742 
Q 947 2381 947 1747 
z
M 2906 525 
Q 2725 213 2448 61 
Q 2172 -91 1784 -91 
Q 1150 -91 751 415 
Q 353 922 353 1747 
Q 353 2572 751 3078 
Q 1150 3584 1784 3584 
Q 2172 3584 2448 3432 
Q 2725 3281 2906 2969 
L 2906 3500 
L 3481 3500 
L 3481 -1331 
L 2906 -1331 
L 2906 525 
z
" transform="scale(0.015625)"/>
      <path id="DejaVuSans-48" d="M 628 4666 
L 1259 4666 
L 1259 2753 
L 3553 2753 
L 3553 4666 
L 4184 4666 
L 4184 0 
L 3553 0 
L 3553 2222 
L 1259 2222 
L 1259 0 
L 628 0 
L 628 4666 
z
" transform="scale(0.015625)"/>
      <path id="DejaVuSans-7a" d="M 353 3500 
L 3084 3500 
L 3084 2975 
L 922 459 
L 3084 459 
L 3084 0 
L 275 0 
L 275 525 
L 2438 3041 
L 353 3041 
L 353 3500 
z
" transform="scale(0.015625)"/>
     </defs>
     <use xlink:href="#DejaVuSans-46"/>
     <use xlink:href="#DejaVuSans-72" x="50.269531"/>
     <use xlink:href="#DejaVuSans-65" x="89.132812"/>
     <use xlink:href="#DejaVuSans-71" x="150.65625"/>
     <use xlink:href="#DejaVuSans-3a" x="214.132812"/>
     <use xlink:href="#DejaVuSans-20" x="247.824219"/>
     <use xlink:href="#DejaVuSans-31" x="279.611328"/>
     <use xlink:href="#DejaVuSans-38" x="343.234375"/>
     <use xlink:href="#DejaVuSans-20" x="406.857422"/>
     <use xlink:href="#DejaVuSans-47" x="438.644531"/>
     <use xlink:href="#DejaVuSans-48" x="516.134766"/>
     <use xlink:href="#DejaVuSans-7a" x="591.330078"/>
    </g>
   </g>
   <g id="text_16">
    <!-- Radiation Diagram - 4AVHF18 -->
    <g transform="translate(162.578125 16.318125)scale(0.12 -0.12)">
     <defs>
      <path id="DejaVuSans-52" d="M 2841 2188 
Q 3044 2119 3236 1894 
Q 3428 1669 3622 1275 
L 4263 0 
L 3584 0 
L 2988 1197 
Q 2756 1666 2539 1819 
Q 2322 1972 1947 1972 
L 1259 1972 
L 1259 0 
L 628 0 
L 628 4666 
L 2053 4666 
Q 2853 4666 3247 4331 
Q 3641 3997 3641 3322 
Q 3641 2881 3436 2590 
Q 3231 2300 2841 2188 
z
M 1259 4147 
L 1259 2491 
L 2053 2491 
Q 2509 2491 2742 2702 
Q 2975 2913 2975 3322 
Q 2975 3731 2742 3939 
Q 2509 4147 2053 4147 
L 1259 4147 
z
" transform="scale(0.015625)"/>
      <path id="DejaVuSans-44" d="M 1259 4147 
L 1259 519 
L 2022 519 
Q 2988 519 3436 956 
Q 3884 1394 3884 2338 
Q 3884 3275 3436 3711 
Q 2988 4147 2022 4147 
L 1259 4147 
z
M 628 4666 
L 1925 4666 
Q 3281 4666 3915 4102 
Q 4550 3538 4550 2338 
Q 4550 1131 3912 565 
Q 3275 0 1925 0 
L 628 0 
L 628 4666 
z
" transform="scale(0.015625)"/>
      <path id="DejaVuSans-67" d="M 2906 1791 
Q 2906 2416 2648 2759 
Q 2391 3103 1925 3103 
Q 1463 3103 1205 2759 
Q 947 2416 947 1791 
Q 947 1169 1205 825 
Q 1463 481 1925 481 
Q 2391 481 2648 825 
Q 2906 1169 2906 1791 
z
M 3481 434 
Q 3481 -459 3084 -895 
Q 2688 -1331 1869 -1331 
Q 1566 -1331 1297 -1286 
Q 1028 -1241 775 -1147 
L 775 -588 
Q 1028 -725 1275 -790 
Q 1522 -856 1778 -856 
Q 2344 -856 2625 -561 
Q 2906 -266 2906 331 
L 2906 616 
Q 2728 306 2450 153 
Q 2172 0 1784 0 
Q 1141 0 747 490 
Q 353 981 353 1791 
Q 353 2603 747 3093 
Q 1141 3584 1784 3584 
Q 2172 3584 2450 3431 
Q 2728 3278 2906 2969 
L 2906 3500 
L 3481 3500 
L 3481 434 
z
" transform="scale(0.015625)"/>
      <path id="DejaVuSans-6d" d="M 3328 2828 
Q 3544 3216 3844 3400 
Q 4144 3584 4550 3584 
Q 5097 3584 5394 3201 
Q 5691 2819 5691 2113 
L 5691 0 
L 5113 0 
L 5113 2094 
Q 5113 2597 4934 2840 
Q 4756 3084 4391 3084 
Q 3944 3084 3684 2787 
Q 3425 2491 3425 1978 
L 3425 0 
L 2847 0 
L 2847 2094 
Q 2847 2600 2669 2842 
Q 2491 3084 2119 3084 
Q 1678 3084 1418 2786 
Q 1159 2488 1159 1978 
L 1159 0 
L 581 0 
L 581 3500 
L 1159 3500 
L 1159 2956 
Q 1356 3278 1631 3431 
Q 1906 3584 2284 3584 
Q 2666 3584 2933 3390 
Q 3200 3197 3328 2828 
z
" transform="scale(0.015625)"/>
      <path id="DejaVuSans-41" d="M 2188 4044 
L 1331 1722 
L 3047 1722 
L 2188 4044 
z
M 1831 4666 
L 2547 4666 
L 4325 0 
L 3669 0 
L 3244 1197 
L 1141 1197 
L 716 0 
L 50 0 
L 1831 4666 
z
" transform="scale(0.015625)"/>
      <path id="DejaVuSans-56" d="M 1831 0 
L 50 4666 
L 709 4666 
L 2188 738 
L 3669 4666 
L 4325 4666 
L 2547 0 
L 1831 0 
z
" transform="scale(0.015625)"/>
     </defs>
     <use xlink:href="#DejaVuSans-52"/>
     <use xlink:href="#DejaVuSans-61" x="67.232422"/>
     <use xlink:href="#DejaVuSans-64" x="128.511719"/>
     <use xlink:href="#DejaVuSans-69" x="191.988281"/>
     <use xlink:href="#DejaVuSans-61" x="219.771484"/>
     <use xlink:href="#DejaVuSans-74" x="281.050781"/>
     <use xlink:href="#DejaVuSans-69" x="320.259766"/>
     <use xlink:href="#DejaVuSans-6f" x="348.042969"/>
     <use xlink:href="#DejaVuSans-6e" x="409.224609"/>
     <use xlink:href="#DejaVuSans-20" x="472.603516"/>
     <use xlink:href="#DejaVuSans-44" x="504.390625"/>
     <use xlink:href="#DejaVuSans-69" x="581.392578"/>
     <use xlink:href="#DejaVuSans-61" x="609.175781"/>
     <use xlink:href="#DejaVuSans-67" x="670.455078"/>
     <use xlink:href="#DejaVuSans-72" x="733.931641"/>
     <use xlink:href="#DejaVuSans-61" x="775.044922"/>
     <use xlink:href="#DejaVuSans-6d" x="836.324219"/>
     <use xlink:href="#DejaVuSans-20" x="933.736328"/>
     <use xlink:href="#DejaVuSans-2d" x="965.523438"/>
     <use xlink:href="#DejaVuSans-20" x="1001.607422"/>
     <use xlink:href="#DejaVuSans-34" x="1033.394531"/>
     <use xlink:href="#DejaVuSans-41" x="1097.017578"/>
     <use xlink:href="#DejaVuSans-56" x="1159.050781"/>
     <use xlink:href="#DejaVuSans-48" x="1227.458984"/>
     <use xlink:href="#DejaVuSans-46" x="1302.654297"/>
     <use xlink:href="#DejaVuSans-31" x="1360.173828"/>
     <use xlink:href="#DejaVuSans-38" x="1423.796875"/>
    </g>
   </g>
   <g id="legend_1">
    <g id="patch_6">
     <path d="M 411.802813 78.513438 
L 466.5825 78.513438 
Q 468.5825 78.513438 468.5825 76.513438 
L 468.5825 48.157188 
Q 468.5825 46.157188 466.5825 46.157188 
L 411.802813 46.157188 
Q 409.802813 46.157188 409.802813 48.157188 
L 409.802813 76.513438 
Q 409.802813 78.513438 411.802813 78.513438 
z
" style="fill: #ffffff; opacity: 0.8; stroke: #cccccc; stroke-linejoin: miter"/>
    </g>
    <g id="line2d_16">
     <path d="M 413.802813 54.255625 
L 423.802813 54.255625 
L 433.802813 54.255625 
" style="fill: none; stroke: #ff0000; stroke-width: 1.5; stroke-linecap: square"/>
    </g>
    <g id="text_17">
     <!-- INPE -->
     <g transform="translate(441.802813 57.755625)scale(0.1 -0.1)">
      <defs>
       <path id="DejaVuSans-49" d="M 628 4666 
L 1259 4666 
L 1259 0 
L 628 0 
L 628 4666 
z
" transform="scale(0.015625)"/>
       <path id="DejaVuSans-4e" d="M 628 4666 
L 1478 4666 
L 3547 763 
L 3547 4666 
L 4159 4666 
L 4159 0 
L 3309 0 
L 1241 3903 
L 1241 0 
L 628 0 
L 628 4666 
z
" transform="scale(0.015625)"/>
       <path id="DejaVuSans-45" d="M 628 4666 
L 3578 4666 
L 3578 4134 
L 1259 4134 
L 1259 2753 
L 3481 2753 
L 3481 2222 
L 1259 2222 
L 1259 531 
L 3634 531 
L 3634 0 
L 628 0 
L 628 4666 
z
" transform="scale(0.015625)"/>
      </defs>
      <use xlink:href="#DejaVuSans-49"/>
      <use xlink:href="#DejaVuSans-4e" x="29.492188"/>
      <use xlink:href="#DejaVuSans-50" x="104.296875"/>
      <use xlink:href="#DejaVuSans-45" x="164.599609"/>
     </g>
    </g>
    <g id="line2d_17">
     <path d="M 413.802813 68.93375 
L 423.802813 68.93375 
L 433.802813 68.93375 
" style="fill: none; stroke-dasharray: 5.55,2.4; stroke-dashoffset: 0; stroke: #0000ff; stroke-width: 1.5"/>
    </g>
    <g id="text_18">
     <!-- CST -->
     <g transform="translate(441.802813 72.43375)scale(0.1 -0.1)">
      <defs>
       <path id="DejaVuSans-53" d="M 3425 4513 
L 3425 3897 
Q 3066 4069 2747 4153 
Q 2428 4238 2131 4238 
Q 1616 4238 1336 4038 
Q 1056 3838 1056 3469 
Q 1056 3159 1242 3001 
Q 1428 2844 1947 2747 
L 2328 2669 
Q 3034 2534 3370 2195 
Q 3706 1856 3706 1288 
Q 3706 609 3251 259 
Q 2797 -91 1919 -91 
Q 1588 -91 1214 -16 
Q 841 59 441 206 
L 441 856 
Q 825 641 1194 531 
Q 1563 422 1919 422 
Q 2459 422 2753 634 
Q 3047 847 3047 1241 
Q 3047 1584 2836 1778 
Q 2625 1972 2144 2069 
L 1759 2144 
Q 1053 2284 737 2584 
Q 422 2884 422 3419 
Q 422 4038 858 4394 
Q 1294 4750 2059 4750 
Q 2388 4750 2728 4690 
Q 3069 4631 3425 4513 
z
" transform="scale(0.015625)"/>
       <path id="DejaVuSans-54" d="M -19 4666 
L 3928 4666 
L 3928 4134 
L 2272 4134 
L 2272 0 
L 1638 0 
L 1638 4134 
L -19 4134 
L -19 4666 
z
" transform="scale(0.015625)"/>
      </defs>
      <use xlink:href="#DejaVuSans-43"/>
      <use xlink:href="#DejaVuSans-53" x="69.824219"/>
      <use xlink:href="#DejaVuSans-54" x="133.300781"/>
     </g>
    </g>
   </g>
  </g>
 </g>
 <defs>
  <clipPath id="p8cd856849c">
   <path d="M 473.5825 262.917188 
C 473.5825 233.795931 467.846247 204.957842 456.702025 178.05331 
C 445.557803 151.148777 429.222338 126.701026 408.6305 106.109188 
C 388.038662 85.51735 363.590911 69.181885 336.686378 58.037662 
C 309.781845 46.89344 280.943756 41.157188 251.8225 41.157188 
C 222.701244 41.157188 193.863155 46.89344 166.958622 58.037662 
C 140.054089 69.181885 115.606338 85.51735 95.0145 106.109188 
C 74.422662 126.701026 58.087197 151.148777 46.942975 178.05331 
C 35.798753 204.957842 30.0625 233.795931 30.0625 262.917188 
C 30.0625 292.038444 35.798753 320.876533 46.942975 347.781065 
C 58.087197 374.685598 74.422662 399.133349 95.0145 419.725187 
C 115.606338 440.317025 140.054089 456.65249 166.958622 467.796713 
C 193.863155 478.940935 222.701244 484.677188 251.8225 484.677188 
C 280.943756 484.677188 309.781845 478.940935 336.686378 467.796713 
C 363.590911 456.65249 388.038662 440.317025 408.6305 419.725187 
C 429.222338 399.133349 445.557803 374.685598 456.702025 347.781065 
C 467.846247 320.876533 473.5825 292.038444 473.5825 262.917188 
M 251.8225 262.917188 
C 251.8225 262.917188 251.8225 262.917188 251.8225 262.917188 
C 251.8225 262.917188 251.8225 262.917188 251.8225 262.917188 
C 251.8225 262.917188 251.8225 262.917188 251.8225 262.917188 
C 251.8225 262.917188 251.8225 262.917188 251.8225 262.917188 
C 251.8225 262.917188 251.8225 262.917188 251.8225 262.917188 
C 251.8225 262.917188 251.8225 262.917188 251.8225 262.917188 
C 251.8225 262.917188 251.8225 262.917188 251.8225 262.917188 
C 251.8225 262.917188 251.8225 262.917188 251.8225 262.917188 
C 251.8225 262.917188 251.8225 262.917188 251.8225 262.917188 
C 251.8225 262.917188 251.8225 262.917188 251.8225 262.917188 
C 251.8225 262.917188 251.8225 262.917188 251.8225 262.917188 
C 251.8225 262.917188 251.8225 262.917188 251.8225 262.917188 
C 251.8225 262.917188 251.8225 262.917188 251.8225 262.917188 
C 251.8225 262.917188 251.8225 262.917188 251.8225 262.917188 
C 251.8225 262.917188 251.8225 262.917188 251.8225 262.917188 
C 251.8225 262.917188 251.8225 262.917188 251.8225 262.917188 
M 473.5825 262.917188 
z
"/>
  </clipPath>
 </defs>
</svg>
