<?xml version="1.0" encoding="utf-8" standalone="no"?>
<!DOCTYPE svg PUBLIC "-//W3C//DTD SVG 1.1//EN"
  "http://www.w3.org/Graphics/SVG/1.1/DTD/svg11.dtd">
<svg xmlns:xlink="http://www.w3.org/1999/xlink" width="506.82625pt" height="514.053188pt" viewBox="0 0 506.82625 514.053188" xmlns="http://www.w3.org/2000/svg" version="1.1">
 <metadata>
  <rdf:RDF xmlns:dc="http://purl.org/dc/elements/1.1/" xmlns:cc="http://creativecommons.org/ns#" xmlns:rdf="http://www.w3.org/1999/02/22-rdf-syntax-ns#">
   <cc:Work>
    <dc:type rdf:resource="http://purl.org/dc/dcmitype/StillImage"/>
    <dc:date>2024-01-27T14:45:42.242096</dc:date>
    <dc:format>image/svg+xml</dc:format>
    <dc:creator>
     <cc:Agent>
      <dc:title>Matplotlib v3.5.1, https://matplotlib.org/</dc:title>
     </cc:Agent>
    </dc:creator>
   </cc:Work>
  </rdf:RDF>
 </metadata>
 <defs>
  <style type="text/css">*{stroke-linejoin: round; stroke-linecap: butt}</style>
 </defs>
 <g id="figure_1">
  <g id="patch_1">
   <path d="M 0 514.053188 
L 506.82625 514.053188 
L 506.82625 0 
L 0 0 
z
" style="fill: #ffffff"/>
  </g>
  <g id="axes_1">
   <g id="patch_2">
    <path d="M 473.5825 262.917188 
C 473.5825 233.795931 467.846247 204.957842 456.702025 178.05331 
C 445.557803 151.148777 429.222338 126.701026 408.6305 106.109188 
C 388.038662 85.51735 363.590911 69.181885 336.686378 58.037662 
C 309.781845 46.89344 280.943756 41.157188 251.8225 41.157188 
C 222.701244 41.157188 193.863155 46.89344 166.958622 58.037662 
C 140.054089 69.181885 115.606338 85.51735 95.0145 106.109188 
C 74.422662 126.701026 58.087197 151.148777 46.942975 178.05331 
C 35.798753 204.957842 30.0625 233.795931 30.0625 262.917188 
C 30.0625 292.038444 35.798753 320.876533 46.942975 347.781065 
C 58.087197 374.685598 74.422662 399.133349 95.0145 419.725187 
C 115.606338 440.317025 140.054089 456.65249 166.958622 467.796713 
C 193.863155 478.940935 222.701244 484.677188 251.8225 484.677188 
C 280.943756 484.677188 309.781845 478.940935 336.686378 467.796713 
C 363.590911 456.65249 388.038662 440.317025 408.6305 419.725187 
C 429.222338 399.133349 445.557803 374.685598 456.702025 347.781065 
C 467.846247 320.876533 473.5825 292.038444 473.5825 262.917188 
M 251.8225 262.917188 
C 251.8225 262.917188 251.8225 262.917188 251.8225 262.917188 
C 251.8225 262.917188 251.8225 262.917188 251.8225 262.917188 
C 251.8225 262.917188 251.8225 262.917188 251.8225 262.917188 
C 251.8225 262.917188 251.8225 262.917188 251.8225 262.917188 
C 251.8225 262.917188 251.8225 262.917188 251.8225 262.917188 
C 251.8225 262.917188 251.8225 262.917188 251.8225 262.917188 
C 251.8225 262.917188 251.8225 262.917188 251.8225 262.917188 
C 251.8225 262.917188 251.8225 262.917188 251.8225 262.917188 
C 251.8225 262.917188 251.8225 262.917188 251.8225 262.917188 
C 251.8225 262.917188 251.8225 262.917188 251.8225 262.917188 
C 251.8225 262.917188 251.8225 262.917188 251.8225 262.917188 
C 251.8225 262.917188 251.8225 262.917188 251.8225 262.917188 
C 251.8225 262.917188 251.8225 262.917188 251.8225 262.917188 
C 251.8225 262.917188 251.8225 262.917188 251.8225 262.917188 
C 251.8225 262.917188 251.8225 262.917188 251.8225 262.917188 
C 251.8225 262.917188 251.8225 262.917188 251.8225 262.917188 
M 473.5825 262.917188 
z
" style="fill: #ffffff"/>
   </g>
   <g id="matplotlib.axis_1">
    <g id="xtick_1">
     <g id="line2d_1">
      <path d="M 251.8225 262.917188 
L 251.8225 41.157188 
" clip-path="url(#p4128c7f68a)" style="fill: none; stroke: #b0b0b0; stroke-width: 0.8; stroke-linecap: square"/>
     </g>
     <g id="text_1">
      <!-- 0° -->
      <g transform="translate(246.14125 29.916563)scale(0.1 -0.1)">
       <defs>
        <path id="DejaVuSans-30" d="M 2034 4250 
Q 1547 4250 1301 3770 
Q 1056 3291 1056 2328 
Q 1056 1369 1301 889 
Q 1547 409 2034 409 
Q 2525 409 2770 889 
Q 3016 1369 3016 2328 
Q 3016 3291 2770 3770 
Q 2525 4250 2034 4250 
z
M 2034 4750 
Q 2819 4750 3233 4129 
Q 3647 3509 3647 2328 
Q 3647 1150 3233 529 
Q 2819 -91 2034 -91 
Q 1250 -91 836 529 
Q 422 1150 422 2328 
Q 422 3509 836 4129 
Q 1250 4750 2034 4750 
z
" transform="scale(0.015625)"/>
        <path id="DejaVuSans-b0" d="M 1600 4347 
Q 1350 4347 1178 4173 
Q 1006 4000 1006 3750 
Q 1006 3503 1178 3333 
Q 1350 3163 1600 3163 
Q 1850 3163 2022 3333 
Q 2194 3503 2194 3750 
Q 2194 3997 2020 4172 
Q 1847 4347 1600 4347 
z
M 1600 4750 
Q 1800 4750 1984 4673 
Q 2169 4597 2303 4453 
Q 2447 4313 2519 4134 
Q 2591 3956 2591 3750 
Q 2591 3338 2302 3052 
Q 2013 2766 1594 2766 
Q 1172 2766 890 3047 
Q 609 3328 609 3750 
Q 609 4169 896 4459 
Q 1184 4750 1600 4750 
z
" transform="scale(0.015625)"/>
       </defs>
       <use xlink:href="#DejaVuSans-30"/>
       <use xlink:href="#DejaVuSans-b0" x="63.623047"/>
      </g>
     </g>
    </g>
    <g id="xtick_2">
     <g id="line2d_2">
      <path d="M 251.8225 262.917188 
L 95.0145 106.109188 
" clip-path="url(#p4128c7f68a)" style="fill: none; stroke: #b0b0b0; stroke-width: 0.8; stroke-linecap: square"/>
     </g>
     <g id="text_2">
      <!-- 45° -->
      <g transform="translate(76.252505 98.969068)scale(0.1 -0.1)">
       <defs>
        <path id="DejaVuSans-34" d="M 2419 4116 
L 825 1625 
L 2419 1625 
L 2419 4116 
z
M 2253 4666 
L 3047 4666 
L 3047 1625 
L 3713 1625 
L 3713 1100 
L 3047 1100 
L 3047 0 
L 2419 0 
L 2419 1100 
L 313 1100 
L 313 1709 
L 2253 4666 
z
" transform="scale(0.015625)"/>
        <path id="DejaVuSans-35" d="M 691 4666 
L 3169 4666 
L 3169 4134 
L 1269 4134 
L 1269 2991 
Q 1406 3038 1543 3061 
Q 1681 3084 1819 3084 
Q 2600 3084 3056 2656 
Q 3513 2228 3513 1497 
Q 3513 744 3044 326 
Q 2575 -91 1722 -91 
Q 1428 -91 1123 -41 
Q 819 9 494 109 
L 494 744 
Q 775 591 1075 516 
Q 1375 441 1709 441 
Q 2250 441 2565 725 
Q 2881 1009 2881 1497 
Q 2881 1984 2565 2268 
Q 2250 2553 1709 2553 
Q 1456 2553 1204 2497 
Q 953 2441 691 2322 
L 691 4666 
z
" transform="scale(0.015625)"/>
       </defs>
       <use xlink:href="#DejaVuSans-34"/>
       <use xlink:href="#DejaVuSans-35" x="63.623047"/>
       <use xlink:href="#DejaVuSans-b0" x="127.246094"/>
      </g>
     </g>
    </g>
    <g id="xtick_3">
     <g id="line2d_3">
      <path d="M 251.8225 262.917188 
L 30.0625 262.917188 
" clip-path="url(#p4128c7f68a)" style="fill: none; stroke: #b0b0b0; stroke-width: 0.8; stroke-linecap: square"/>
     </g>
     <g id="text_3">
      <!-- 90° -->
      <g transform="translate(7.2 265.676563)scale(0.1 -0.1)">
       <defs>
        <path id="DejaVuSans-39" d="M 703 97 
L 703 672 
Q 941 559 1184 500 
Q 1428 441 1663 441 
Q 2288 441 2617 861 
Q 2947 1281 2994 2138 
Q 2813 1869 2534 1725 
Q 2256 1581 1919 1581 
Q 1219 1581 811 2004 
Q 403 2428 403 3163 
Q 403 3881 828 4315 
Q 1253 4750 1959 4750 
Q 2769 4750 3195 4129 
Q 3622 3509 3622 2328 
Q 3622 1225 3098 567 
Q 2575 -91 1691 -91 
Q 1453 -91 1209 -44 
Q 966 3 703 97 
z
M 1959 2075 
Q 2384 2075 2632 2365 
Q 2881 2656 2881 3163 
Q 2881 3666 2632 3958 
Q 2384 4250 1959 4250 
Q 1534 4250 1286 3958 
Q 1038 3666 1038 3163 
Q 1038 2656 1286 2365 
Q 1534 2075 1959 2075 
z
" transform="scale(0.015625)"/>
       </defs>
       <use xlink:href="#DejaVuSans-39"/>
       <use xlink:href="#DejaVuSans-30" x="63.623047"/>
       <use xlink:href="#DejaVuSans-b0" x="127.246094"/>
      </g>
     </g>
    </g>
    <g id="xtick_4">
     <g id="line2d_4">
      <path d="M 251.8225 262.917188 
L 95.0145 419.725187 
" clip-path="url(#p4128c7f68a)" style="fill: none; stroke: #b0b0b0; stroke-width: 0.8; stroke-linecap: square"/>
     </g>
     <g id="text_4">
      <!-- 135° -->
      <g transform="translate(73.071255 432.384057)scale(0.1 -0.1)">
       <defs>
        <path id="DejaVuSans-31" d="M 794 531 
L 1825 531 
L 1825 4091 
L 703 3866 
L 703 4441 
L 1819 4666 
L 2450 4666 
L 2450 531 
L 3481 531 
L 3481 0 
L 794 0 
L 794 531 
z
" transform="scale(0.015625)"/>
        <path id="DejaVuSans-33" d="M 2597 2516 
Q 3050 2419 3304 2112 
Q 3559 1806 3559 1356 
Q 3559 666 3084 287 
Q 2609 -91 1734 -91 
Q 1441 -91 1130 -33 
Q 819 25 488 141 
L 488 750 
Q 750 597 1062 519 
Q 1375 441 1716 441 
Q 2309 441 2620 675 
Q 2931 909 2931 1356 
Q 2931 1769 2642 2001 
Q 2353 2234 1838 2234 
L 1294 2234 
L 1294 2753 
L 1863 2753 
Q 2328 2753 2575 2939 
Q 2822 3125 2822 3475 
Q 2822 3834 2567 4026 
Q 2313 4219 1838 4219 
Q 1578 4219 1281 4162 
Q 984 4106 628 3988 
L 628 4550 
Q 988 4650 1302 4700 
Q 1616 4750 1894 4750 
Q 2613 4750 3031 4423 
Q 3450 4097 3450 3541 
Q 3450 3153 3228 2886 
Q 3006 2619 2597 2516 
z
" transform="scale(0.015625)"/>
       </defs>
       <use xlink:href="#DejaVuSans-31"/>
       <use xlink:href="#DejaVuSans-33" x="63.623047"/>
       <use xlink:href="#DejaVuSans-35" x="127.246094"/>
       <use xlink:href="#DejaVuSans-b0" x="190.869141"/>
      </g>
     </g>
    </g>
    <g id="xtick_5">
     <g id="line2d_5">
      <path d="M 251.8225 262.917188 
L 251.8225 484.677188 
" clip-path="url(#p4128c7f68a)" style="fill: none; stroke: #b0b0b0; stroke-width: 0.8; stroke-linecap: square"/>
     </g>
     <g id="text_5">
      <!-- 180° -->
      <g transform="translate(239.77875 501.436563)scale(0.1 -0.1)">
       <defs>
        <path id="DejaVuSans-38" d="M 2034 2216 
Q 1584 2216 1326 1975 
Q 1069 1734 1069 1313 
Q 1069 891 1326 650 
Q 1584 409 2034 409 
Q 2484 409 2743 651 
Q 3003 894 3003 1313 
Q 3003 1734 2745 1975 
Q 2488 2216 2034 2216 
z
M 1403 2484 
Q 997 2584 770 2862 
Q 544 3141 544 3541 
Q 544 4100 942 4425 
Q 1341 4750 2034 4750 
Q 2731 4750 3128 4425 
Q 3525 4100 3525 3541 
Q 3525 3141 3298 2862 
Q 3072 2584 2669 2484 
Q 3125 2378 3379 2068 
Q 3634 1759 3634 1313 
Q 3634 634 3220 271 
Q 2806 -91 2034 -91 
Q 1263 -91 848 271 
Q 434 634 434 1313 
Q 434 1759 690 2068 
Q 947 2378 1403 2484 
z
M 1172 3481 
Q 1172 3119 1398 2916 
Q 1625 2713 2034 2713 
Q 2441 2713 2670 2916 
Q 2900 3119 2900 3481 
Q 2900 3844 2670 4047 
Q 2441 4250 2034 4250 
Q 1625 4250 1398 4047 
Q 1172 3844 1172 3481 
z
" transform="scale(0.015625)"/>
       </defs>
       <use xlink:href="#DejaVuSans-31"/>
       <use xlink:href="#DejaVuSans-38" x="63.623047"/>
       <use xlink:href="#DejaVuSans-30" x="127.246094"/>
       <use xlink:href="#DejaVuSans-b0" x="190.869141"/>
      </g>
     </g>
    </g>
    <g id="xtick_6">
     <g id="line2d_6">
      <path d="M 251.8225 262.917188 
L 408.6305 419.725187 
" clip-path="url(#p4128c7f68a)" style="fill: none; stroke: #b0b0b0; stroke-width: 0.8; stroke-linecap: square"/>
     </g>
     <g id="text_6">
      <!-- 225° -->
      <g transform="translate(406.486245 432.384057)scale(0.1 -0.1)">
       <defs>
        <path id="DejaVuSans-32" d="M 1228 531 
L 3431 531 
L 3431 0 
L 469 0 
L 469 531 
Q 828 903 1448 1529 
Q 2069 2156 2228 2338 
Q 2531 2678 2651 2914 
Q 2772 3150 2772 3378 
Q 2772 3750 2511 3984 
Q 2250 4219 1831 4219 
Q 1534 4219 1204 4116 
Q 875 4013 500 3803 
L 500 4441 
Q 881 4594 1212 4672 
Q 1544 4750 1819 4750 
Q 2544 4750 2975 4387 
Q 3406 4025 3406 3419 
Q 3406 3131 3298 2873 
Q 3191 2616 2906 2266 
Q 2828 2175 2409 1742 
Q 1991 1309 1228 531 
z
" transform="scale(0.015625)"/>
       </defs>
       <use xlink:href="#DejaVuSans-32"/>
       <use xlink:href="#DejaVuSans-32" x="63.623047"/>
       <use xlink:href="#DejaVuSans-35" x="127.246094"/>
       <use xlink:href="#DejaVuSans-b0" x="190.869141"/>
      </g>
     </g>
    </g>
    <g id="xtick_7">
     <g id="line2d_7">
      <path d="M 251.8225 262.917188 
L 473.5825 262.917188 
" clip-path="url(#p4128c7f68a)" style="fill: none; stroke: #b0b0b0; stroke-width: 0.8; stroke-linecap: square"/>
     </g>
     <g id="text_7">
      <!-- 270° -->
      <g transform="translate(475.53875 265.676563)scale(0.1 -0.1)">
       <defs>
        <path id="DejaVuSans-37" d="M 525 4666 
L 3525 4666 
L 3525 4397 
L 1831 0 
L 1172 0 
L 2766 4134 
L 525 4134 
L 525 4666 
z
" transform="scale(0.015625)"/>
       </defs>
       <use xlink:href="#DejaVuSans-32"/>
       <use xlink:href="#DejaVuSans-37" x="63.623047"/>
       <use xlink:href="#DejaVuSans-30" x="127.246094"/>
       <use xlink:href="#DejaVuSans-b0" x="190.869141"/>
      </g>
     </g>
    </g>
    <g id="xtick_8">
     <g id="line2d_8">
      <path d="M 251.8225 262.917188 
L 408.6305 106.109188 
" clip-path="url(#p4128c7f68a)" style="fill: none; stroke: #b0b0b0; stroke-width: 0.8; stroke-linecap: square"/>
     </g>
     <g id="text_8">
      <!-- 315° -->
      <g transform="translate(406.486245 98.969068)scale(0.1 -0.1)">
       <use xlink:href="#DejaVuSans-33"/>
       <use xlink:href="#DejaVuSans-31" x="63.623047"/>
       <use xlink:href="#DejaVuSans-35" x="127.246094"/>
       <use xlink:href="#DejaVuSans-b0" x="190.869141"/>
      </g>
     </g>
    </g>
   </g>
   <g id="matplotlib.axis_2">
    <g id="ytick_1">
     <g id="line2d_9">
      <path d="M 251.8225 247.122242 
C 249.748327 247.122242 247.694322 247.530809 245.778036 248.324561 
C 243.86175 249.118313 242.120449 250.281813 240.653787 251.748475 
C 239.187125 253.215137 238.023625 254.956438 237.229873 256.872724 
C 236.436122 258.78901 236.027555 260.843014 236.027555 262.917188 
C 236.027555 264.991361 236.436122 267.045365 237.229873 268.961651 
C 238.023625 270.877937 239.187125 272.619238 240.653787 274.0859 
C 242.120449 275.552562 243.86175 276.716062 245.778036 277.509814 
C 247.694322 278.303566 249.748327 278.712133 251.8225 278.712133 
C 253.896673 278.712133 255.950678 278.303566 257.866964 277.509814 
C 259.78325 276.716062 261.524551 275.552562 262.991213 274.0859 
C 264.457875 272.619238 265.621375 270.877937 266.415127 268.961651 
C 267.208878 267.045365 267.617445 264.991361 267.617445 262.917188 
C 267.617445 260.843014 267.208878 258.78901 266.415127 256.872724 
C 265.621375 254.956438 264.457875 253.215137 262.991213 251.748475 
C 261.524551 250.281813 259.78325 249.118313 257.866964 248.324561 
C 255.950678 247.530809 253.896673 247.122242 251.8225 247.122242 
" clip-path="url(#p4128c7f68a)" style="fill: none; stroke: #b0b0b0; stroke-width: 0.8; stroke-linecap: square"/>
     </g>
     <g id="text_9">
      <!-- −60 -->
      <g transform="translate(245.778036 246.244873)scale(0.1 -0.1)">
       <defs>
        <path id="DejaVuSans-2212" d="M 678 2272 
L 4684 2272 
L 4684 1741 
L 678 1741 
L 678 2272 
z
" transform="scale(0.015625)"/>
        <path id="DejaVuSans-36" d="M 2113 2584 
Q 1688 2584 1439 2293 
Q 1191 2003 1191 1497 
Q 1191 994 1439 701 
Q 1688 409 2113 409 
Q 2538 409 2786 701 
Q 3034 994 3034 1497 
Q 3034 2003 2786 2293 
Q 2538 2584 2113 2584 
z
M 3366 4563 
L 3366 3988 
Q 3128 4100 2886 4159 
Q 2644 4219 2406 4219 
Q 1781 4219 1451 3797 
Q 1122 3375 1075 2522 
Q 1259 2794 1537 2939 
Q 1816 3084 2150 3084 
Q 2853 3084 3261 2657 
Q 3669 2231 3669 1497 
Q 3669 778 3244 343 
Q 2819 -91 2113 -91 
Q 1303 -91 875 529 
Q 447 1150 447 2328 
Q 447 3434 972 4092 
Q 1497 4750 2381 4750 
Q 2619 4750 2861 4703 
Q 3103 4656 3366 4563 
z
" transform="scale(0.015625)"/>
       </defs>
       <use xlink:href="#DejaVuSans-2212"/>
       <use xlink:href="#DejaVuSans-36" x="83.789062"/>
       <use xlink:href="#DejaVuSans-30" x="147.412109"/>
      </g>
     </g>
    </g>
    <g id="ytick_2">
     <g id="line2d_10">
      <path d="M 251.8225 212.794733 
C 245.24048 212.794733 238.722461 214.091248 232.641467 216.610078 
C 226.560473 219.128908 221.034764 222.821069 216.380573 227.47526 
C 211.726381 232.129451 208.034221 237.655161 205.51539 243.736155 
C 202.99656 249.817149 201.700046 256.335167 201.700046 262.917188 
C 201.700046 269.499208 202.99656 276.017226 205.51539 282.09822 
C 208.034221 288.179214 211.726381 293.704924 216.380573 298.359115 
C 221.034764 303.013306 226.560473 306.705467 232.641467 309.224297 
C 238.722461 311.743127 245.24048 313.039642 251.8225 313.039642 
C 258.40452 313.039642 264.922539 311.743127 271.003533 309.224297 
C 277.084527 306.705467 282.610236 303.013306 287.264427 298.359115 
C 291.918619 293.704924 295.610779 288.179214 298.12961 282.09822 
C 300.64844 276.017226 301.944954 269.499208 301.944954 262.917188 
C 301.944954 256.335167 300.64844 249.817149 298.12961 243.736155 
C 295.610779 237.655161 291.918619 232.129451 287.264427 227.47526 
C 282.610236 222.821069 277.084527 219.128908 271.003533 216.610078 
C 264.922539 214.091248 258.40452 212.794733 251.8225 212.794733 
" clip-path="url(#p4128c7f68a)" style="fill: none; stroke: #b0b0b0; stroke-width: 0.8; stroke-linecap: square"/>
     </g>
     <g id="text_10">
      <!-- −50 -->
      <g transform="translate(232.641467 214.53039)scale(0.1 -0.1)">
       <use xlink:href="#DejaVuSans-2212"/>
       <use xlink:href="#DejaVuSans-35" x="83.789062"/>
       <use xlink:href="#DejaVuSans-30" x="147.412109"/>
      </g>
     </g>
    </g>
    <g id="ytick_3">
     <g id="line2d_11">
      <path d="M 251.8225 178.467224 
C 240.732632 178.467224 229.7506 180.651686 219.504898 184.895595 
C 209.259196 189.139503 199.949079 195.360325 192.107358 203.202046 
C 184.265638 211.043766 178.044816 220.353884 173.800907 230.599586 
C 169.556999 240.845287 167.372537 251.82732 167.372537 262.917188 
C 167.372537 274.007055 169.556999 284.989088 173.800907 295.234789 
C 178.044816 305.480491 184.265638 314.790609 192.107358 322.632329 
C 199.949079 330.47405 209.259196 336.694872 219.504898 340.93878 
C 229.7506 345.182689 240.732632 347.367151 251.8225 347.367151 
C 262.912368 347.367151 273.8944 345.182689 284.140102 340.93878 
C 294.385804 336.694872 303.695921 330.47405 311.537642 322.632329 
C 319.379362 314.790609 325.600184 305.480491 329.844093 295.234789 
C 334.088001 284.989088 336.272463 274.007055 336.272463 262.917188 
C 336.272463 251.82732 334.088001 240.845287 329.844093 230.599586 
C 325.600184 220.353884 319.379362 211.043766 311.537642 203.202046 
C 303.695921 195.360325 294.385804 189.139503 284.140102 184.895595 
C 273.8944 180.651686 262.912368 178.467224 251.8225 178.467224 
" clip-path="url(#p4128c7f68a)" style="fill: none; stroke: #b0b0b0; stroke-width: 0.8; stroke-linecap: square"/>
     </g>
     <g id="text_11">
      <!-- −40 -->
      <g transform="translate(219.504898 182.815907)scale(0.1 -0.1)">
       <use xlink:href="#DejaVuSans-2212"/>
       <use xlink:href="#DejaVuSans-34" x="83.789062"/>
       <use xlink:href="#DejaVuSans-30" x="147.412109"/>
      </g>
     </g>
    </g>
    <g id="ytick_4">
     <g id="line2d_12">
      <path d="M 251.8225 144.139715 
C 236.224785 144.139715 220.778739 147.212125 206.368329 153.181112 
C 191.95792 159.150099 178.863394 167.899581 167.834144 178.928831 
C 156.804894 189.958081 148.055411 203.052607 142.086424 217.463017 
C 136.117437 231.873426 133.045027 247.319473 133.045027 262.917188 
C 133.045027 278.514902 136.117437 293.960949 142.086424 308.371358 
C 148.055411 322.781768 156.804894 335.876294 167.834144 346.905544 
C 178.863394 357.934794 191.95792 366.684276 206.368329 372.653263 
C 220.778739 378.62225 236.224785 381.69466 251.8225 381.69466 
C 267.420215 381.69466 282.866261 378.62225 297.276671 372.653263 
C 311.68708 366.684276 324.781606 357.934794 335.810856 346.905544 
C 346.840106 335.876294 355.589589 322.781768 361.558576 308.371358 
C 367.527563 293.960949 370.599973 278.514902 370.599973 262.917188 
C 370.599973 247.319473 367.527563 231.873426 361.558576 217.463017 
C 355.589589 203.052607 346.840106 189.958081 335.810856 178.928831 
C 324.781606 167.899581 311.68708 159.150099 297.276671 153.181112 
C 282.866261 147.212125 267.420215 144.139715 251.8225 144.139715 
" clip-path="url(#p4128c7f68a)" style="fill: none; stroke: #b0b0b0; stroke-width: 0.8; stroke-linecap: square"/>
     </g>
     <g id="text_12">
      <!-- −30 -->
      <g transform="translate(206.368329 151.101424)scale(0.1 -0.1)">
       <use xlink:href="#DejaVuSans-2212"/>
       <use xlink:href="#DejaVuSans-33" x="83.789062"/>
       <use xlink:href="#DejaVuSans-30" x="147.412109"/>
      </g>
     </g>
    </g>
    <g id="ytick_5">
     <g id="line2d_13">
      <path d="M 251.8225 109.812206 
C 231.716938 109.812206 211.806877 113.772563 193.23176 121.466629 
C 174.656643 129.160694 157.777708 140.438837 143.560929 154.655617 
C 129.34415 168.872396 118.066007 185.75133 110.371941 204.326448 
C 102.677876 222.901565 98.717518 242.811626 98.717518 262.917188 
C 98.717518 283.022749 102.677876 302.93281 110.371941 321.507927 
C 118.066007 340.083045 129.34415 356.961979 143.560929 371.178758 
C 157.777708 385.395538 174.656643 396.673681 193.23176 404.367746 
C 211.806877 412.061812 231.716938 416.022169 251.8225 416.022169 
C 271.928062 416.022169 291.838123 412.061812 310.41324 404.367746 
C 328.988357 396.673681 345.867292 385.395538 360.084071 371.178758 
C 374.30085 356.961979 385.578993 340.083045 393.273059 321.507927 
C 400.967124 302.93281 404.927482 283.022749 404.927482 262.917188 
C 404.927482 242.811626 400.967124 222.901565 393.273059 204.326448 
C 385.578993 185.75133 374.30085 168.872396 360.084071 154.655617 
C 345.867292 140.438837 328.988357 129.160694 310.41324 121.466629 
C 291.838123 113.772563 271.928062 109.812206 251.8225 109.812206 
" clip-path="url(#p4128c7f68a)" style="fill: none; stroke: #b0b0b0; stroke-width: 0.8; stroke-linecap: square"/>
     </g>
     <g id="text_13">
      <!-- −20 -->
      <g transform="translate(193.23176 119.386941)scale(0.1 -0.1)">
       <use xlink:href="#DejaVuSans-2212"/>
       <use xlink:href="#DejaVuSans-32" x="83.789062"/>
       <use xlink:href="#DejaVuSans-30" x="147.412109"/>
      </g>
     </g>
    </g>
    <g id="ytick_6">
     <g id="line2d_14">
      <path d="M 251.8225 75.484697 
C 227.209091 75.484697 202.835016 80.333002 180.095191 89.752145 
C 157.355366 99.171289 136.692023 112.978094 119.287715 130.382402 
C 101.883406 147.786711 88.076602 168.450054 78.657458 191.189879 
C 69.238314 213.929704 64.390009 238.303778 64.390009 262.917188 
C 64.390009 287.530597 69.238314 311.904671 78.657458 334.644496 
C 88.076602 357.384321 101.883406 378.047664 119.287715 395.451973 
C 136.692023 412.856281 157.355366 426.663086 180.095191 436.08223 
C 202.835016 445.501373 227.209091 450.349678 251.8225 450.349678 
C 276.435909 450.349678 300.809984 445.501373 323.549809 436.08223 
C 346.289634 426.663086 366.952977 412.856281 384.357285 395.451973 
C 401.761594 378.047664 415.568398 357.384321 424.987542 334.644496 
C 434.406686 311.904671 439.254991 287.530597 439.254991 262.917188 
C 439.254991 238.303778 434.406686 213.929704 424.987542 191.189879 
C 415.568398 168.450054 401.761594 147.786711 384.357285 130.382402 
C 366.952977 112.978094 346.289634 99.171289 323.549809 89.752145 
C 300.809984 80.333002 276.435909 75.484697 251.8225 75.484697 
" clip-path="url(#p4128c7f68a)" style="fill: none; stroke: #b0b0b0; stroke-width: 0.8; stroke-linecap: square"/>
     </g>
     <g id="text_14">
      <!-- −10 -->
      <g transform="translate(180.095191 87.672458)scale(0.1 -0.1)">
       <use xlink:href="#DejaVuSans-2212"/>
       <use xlink:href="#DejaVuSans-31" x="83.789062"/>
       <use xlink:href="#DejaVuSans-30" x="147.412109"/>
      </g>
     </g>
    </g>
    <g id="ytick_7">
     <g id="line2d_15">
      <path d="M 251.8225 41.157188 
C 222.701244 41.157188 193.863155 46.89344 166.958622 58.037662 
C 140.054089 69.181885 115.606338 85.51735 95.0145 106.109188 
C 74.422662 126.701026 58.087197 151.148777 46.942975 178.05331 
C 35.798753 204.957842 30.0625 233.795931 30.0625 262.917188 
C 30.0625 292.038444 35.798753 320.876533 46.942975 347.781065 
C 58.087197 374.685598 74.422662 399.133349 95.0145 419.725187 
C 115.606338 440.317025 140.054089 456.65249 166.958622 467.796713 
C 193.863155 478.940935 222.701244 484.677188 251.8225 484.677188 
C 280.943756 484.677188 309.781845 478.940935 336.686378 467.796713 
C 363.590911 456.65249 388.038662 440.317025 408.6305 419.725187 
C 429.222338 399.133349 445.557803 374.685598 456.702025 347.781065 
C 467.846247 320.876533 473.5825 292.038444 473.5825 262.917188 
C 473.5825 233.795931 467.846247 204.957842 456.702025 178.05331 
C 445.557803 151.148777 429.222338 126.701026 408.6305 106.109188 
C 388.038662 85.51735 363.590911 69.181885 336.686378 58.037662 
C 309.781845 46.89344 280.943756 41.157188 251.8225 41.157188 
" clip-path="url(#p4128c7f68a)" style="fill: none; stroke: #b0b0b0; stroke-width: 0.8; stroke-linecap: square"/>
     </g>
     <g id="text_15">
      <!-- 0 -->
      <g transform="translate(166.958622 55.957975)scale(0.1 -0.1)">
       <use xlink:href="#DejaVuSans-30"/>
      </g>
     </g>
    </g>
   </g>
   <g id="line2d_16">
    <path d="M 251.8225 471.313488 
L 255.448254 470.63649 
L 259.04463 469.731939 
L 262.607672 468.710529 
L 266.159545 467.946481 
L 276.649413 465.11617 
L 280.092796 464.070797 
L 283.541646 463.183993 
L 290.326169 461.001394 
L 300.504963 458.171882 
L 310.520592 454.909994 
L 313.806167 453.683299 
L 320.244069 450.903902 
L 326.537992 447.844519 
L 329.610522 446.174283 
L 335.627947 442.638548 
L 341.294276 438.515435 
L 346.522634 433.760751 
L 349.074479 431.362556 
L 351.294013 428.465586 
L 353.584156 425.769879 
L 355.763943 422.972975 
L 357.562491 419.68317 
L 359.504596 416.703159 
L 361.328724 413.639574 
L 362.638943 409.975574 
L 365.32953 403.086697 
L 366.229413 399.262037 
L 367.415944 395.892234 
L 367.987167 391.93112 
L 368.046168 387.551812 
L 368.558274 383.80062 
L 368.300554 379.395241 
L 367.915463 375.026858 
L 367.901153 371.162282 
L 363.151586 356.333383 
L 357.384838 345.391525 
L 357.204349 342.328106 
L 354.533451 337.541062 
L 357.535461 336.938199 
L 362.482389 337.558225 
L 370.024153 339.678239 
L 380.922871 340.488516 
L 386.442787 340.640246 
L 393.695458 338.352377 
L 397.048816 336.913691 
L 399.382555 334.887035 
L 402.025469 332.957982 
L 404.193989 330.757345 
L 406.179481 328.437838 
L 407.977399 326.007862 
L 409.682831 323.514091 
L 411.167952 320.914189 
L 412.457723 318.22833 
L 413.535689 315.460988 
L 414.342723 312.604606 
L 414.82546 309.657534 
L 415.324835 303.682898 
L 415.288922 300.656385 
L 414.989215 297.599343 
L 414.828321 294.602309 
L 414.210452 291.550565 
L 413.315684 288.495195 
L 411.827055 285.404361 
L 408.985592 282.214389 
L 405.403126 279.059162 
L 400.497722 275.924584 
L 394.452578 272.890854 
L 386.381036 269.969102 
L 376.177913 267.259774 
L 362.804453 264.854385 
L 337.439599 262.917188 
L 331.516262 261.526128 
L 361.817171 259.076089 
L 374.334881 256.496586 
L 385.69984 253.555572 
L 391.592854 250.688866 
L 395.676794 247.797492 
L 399.58182 244.774624 
L 401.635822 241.862298 
L 404.120681 238.795525 
L 407.003014 235.554676 
L 410.88606 229.107184 
L 412.606417 225.797295 
L 414.243632 219.396576 
L 414.515282 216.265783 
L 414.497013 213.182598 
L 413.918301 207.103127 
L 413.406609 204.105382 
L 413.127936 200.997832 
L 412.541521 197.982488 
L 411.598647 195.096237 
L 410.249555 192.380918 
L 408.546395 189.835635 
L 406.401694 187.523877 
L 403.606461 185.579396 
L 401.081857 183.55458 
L 395.560516 179.930005 
L 393.304666 177.906125 
L 388.555936 174.121456 
L 382.999278 167.611679 
L 381.984919 164.83277 
L 381.070209 161.93781 
L 380.558039 158.669203 
L 379.881355 155.46305 
L 379.906248 151.575684 
L 379.586427 147.878031 
L 379.088186 144.240015 
L 379.195291 139.914713 
L 378.422484 136.317203 
L 377.741327 132.524426 
L 377.345138 128.310638 
L 375.012235 121.203609 
L 373.866212 117.471155 
L 368.654789 107.875504 
L 362.146424 99.355244 
L 359.654602 96.870311 
L 357.338739 94.055907 
L 354.84592 91.457424 
L 352.191417 89.073124 
L 349.643066 86.444215 
L 346.901225 84.100112 
L 341.114319 79.841829 
L 334.881517 76.363582 
L 331.728407 74.670667 
L 325.223199 71.701829 
L 321.838456 70.549931 
L 318.407935 69.539043 
L 314.931653 68.687187 
L 311.425874 67.963335 
L 307.895162 67.368576 
L 300.707595 66.849782 
L 286.487722 66.320947 
L 282.994442 66.105289 
L 276.109745 65.113447 
L 272.705206 64.231508 
L 269.270983 63.480113 
L 265.838673 62.476576 
L 262.393522 61.210077 
L 258.901588 60.198644 
L 255.385169 58.812022 
L 251.8225 57.143509 
L 248.212682 56.110858 
L 240.844377 53.442124 
L 237.121002 52.675975 
L 229.513842 50.664487 
L 225.695782 50.132148 
L 221.815117 49.403565 
L 217.94139 49.000277 
L 214.092775 48.941283 
L 210.183347 48.702315 
L 206.322656 48.857252 
L 198.638126 49.606315 
L 194.80705 50.132631 
L 187.208959 51.575817 
L 183.489014 52.608342 
L 176.104087 54.882557 
L 168.938774 57.772766 
L 165.403324 59.326368 
L 161.813072 60.752703 
L 147.804346 67.287493 
L 140.957947 70.89415 
L 137.607657 72.831767 
L 134.320338 74.87442 
L 131.131219 77.068913 
L 125.07314 81.900342 
L 122.175391 84.473251 
L 116.884811 90.204821 
L 114.435512 93.258386 
L 112.225843 96.552371 
L 109.85261 99.599511 
L 107.779646 102.941391 
L 105.99992 106.541615 
L 104.07276 109.917853 
L 100.687497 116.967812 
L 96.905398 123.429202 
L 94.797707 126.417617 
L 92.555081 129.275955 
L 90.19629 132.034863 
L 85.069057 137.259455 
L 82.29045 139.744944 
L 79.598606 142.324719 
L 74.38363 147.687038 
L 72.064831 150.592129 
L 69.840564 153.571409 
L 67.835074 156.691998 
L 66.111291 159.975784 
L 64.606692 163.372777 
L 62.58264 170.618741 
L 61.941626 178.376776 
L 61.680061 182.206511 
L 62.735095 190.333333 
L 63.368054 194.325379 
L 66.276708 202.629705 
L 68.016887 206.722172 
L 71.188858 211.121324 
L 73.721031 215.195043 
L 76.359321 219.169304 
L 80.010877 223.251349 
L 84.382178 230.370086 
L 87.392665 233.923771 
L 89.773276 237.251112 
L 93.334053 240.643089 
L 97.640676 243.98604 
L 101.239319 247.090257 
L 105.424791 250.109048 
L 108.713007 252.909997 
L 109.211483 255.443261 
L 109.243422 257.938216 
L 103.852914 262.917188 
L 100.000465 265.567251 
L 92.945402 271.243583 
L 88.245435 274.35561 
L 82.117808 280.753869 
L 78.216436 284.233332 
L 73.302285 291.192012 
L 70.736451 294.847544 
L 69.245569 298.406548 
L 67.411383 302.11498 
L 65.936086 305.832448 
L 65.04798 309.485305 
L 63.84663 313.28517 
L 63.219909 316.99811 
L 63.007401 320.643756 
L 62.434109 324.453206 
L 62.209402 328.206213 
L 62.564847 331.80134 
L 62.584471 335.558861 
L 63.11083 339.161651 
L 64.459813 346.33643 
L 67.491939 356.838299 
L 71.447086 367.056981 
L 74.347163 373.816087 
L 75.707946 377.287316 
L 77.671039 380.383831 
L 79.050277 383.893601 
L 80.868548 387.122504 
L 88.792066 399.715964 
L 90.743214 402.941274 
L 99.490481 415.249207 
L 106.762093 424.023091 
L 109.267067 426.908454 
L 111.859559 429.718525 
L 120.150988 437.651186 
L 125.915848 442.730521 
L 128.910037 445.142408 
L 135.066161 449.766389 
L 141.520919 453.965131 
L 144.810388 455.972148 
L 151.539851 459.732968 
L 158.452303 463.15022 
L 161.979223 464.708491 
L 169.197246 467.421868 
L 172.857661 468.627626 
L 180.29171 470.657686 
L 184.037436 471.538162 
L 187.829208 472.229815 
L 191.573336 473.030992 
L 199.177924 474.06305 
L 202.976737 474.491433 
L 214.437912 474.935724 
L 222.060201 474.686947 
L 225.83802 474.543792 
L 229.624359 474.118393 
L 237.090352 473.596722 
L 240.81132 473.023011 
L 244.496861 472.696029 
L 248.171105 472.105483 
L 248.171105 472.105483 
" clip-path="url(#p4128c7f68a)" style="fill: none; stroke: #ff0000; stroke-width: 1.5; stroke-linecap: square"/>
   </g>
   <g id="line2d_17">
    <path d="M 251.8225 47.164502 
L 244.249951 46.067756 
L 236.61096 45.382026 
L 228.929324 45.103169 
L 221.2294 45.23597 
L 213.53543 45.780423 
L 205.871592 46.735162 
L 198.261929 48.09747 
L 190.729331 49.859986 
L 183.295952 52.014159 
L 175.985506 54.556758 
L 168.817896 57.473584 
L 161.814469 60.755839 
L 154.991539 64.384295 
L 148.368399 68.348322 
L 141.956878 72.624348 
L 135.771964 77.197508 
L 129.821832 82.043759 
L 124.114421 87.142096 
L 118.651624 92.466239 
L 113.432815 97.990783 
L 108.459545 103.696496 
L 103.72461 109.557333 
L 99.220725 115.551366 
L 94.948757 121.667435 
L 90.898408 127.885841 
L 87.078384 134.204978 
L 83.491569 140.617608 
L 80.152362 147.124217 
L 77.081303 153.726769 
L 74.305779 160.427861 
L 71.860336 167.229608 
L 69.783814 174.130988 
L 68.122631 181.128736 
L 67.465772 184.662399 
L 66.930179 188.215841 
L 66.529518 191.789876 
L 66.264761 195.379694 
L 66.152964 198.986039 
L 66.198354 202.604247 
L 66.411619 206.231393 
L 66.81006 209.865724 
L 67.407781 213.503413 
L 68.218886 217.139665 
L 69.264132 220.770267 
L 70.571013 224.390995 
L 72.167082 227.995712 
L 74.093386 231.578749 
L 76.401191 235.133182 
L 79.15879 238.650886 
L 82.465169 242.122722 
L 86.429621 245.533695 
L 91.315157 248.874615 
L 97.429646 252.120987 
L 105.423491 255.244741 
L 116.735983 258.199862 
L 135.551483 260.887669 
L 199.897851 262.917188 
L 143.273996 264.811909 
L 120.578322 267.500335 
L 107.994526 270.454892 
L 99.347303 273.579292 
L 92.854017 276.825128 
L 87.726921 280.164328 
L 83.555461 283.577782 
L 80.117405 287.048765 
L 77.252203 290.566406 
L 74.860782 294.120313 
L 72.861237 297.703733 
L 71.205626 301.308489 
L 69.849467 304.928973 
L 68.758473 308.560176 
L 67.91178 312.195916 
L 67.281928 315.833345 
L 66.854791 319.467491 
L 66.612976 323.09541 
L 66.545697 326.713107 
L 66.63572 330.319663 
L 66.878835 333.910409 
L 67.264372 337.483511 
L 67.781758 341.037848 
L 68.423684 344.571601 
L 70.055324 351.570963 
L 72.106751 358.473746 
L 74.528742 365.277786 
L 77.282463 371.981907 
L 80.333075 378.588265 
L 83.6532 385.099336 
L 87.222022 391.517175 
L 91.02726 397.840414 
L 95.058451 404.068171 
L 99.317028 410.19001 
L 103.80807 416.190616 
L 108.530751 422.058797 
L 113.494598 427.769962 
L 118.702346 433.303215 
L 124.156793 438.633959 
L 129.858304 443.736544 
L 135.802888 448.587378 
L 141.982624 453.165434 
L 148.387738 457.449682 
L 155.008092 461.416141 
L 161.827035 465.050312 
L 168.828184 468.335329 
L 175.993724 471.255037 
L 183.301256 473.803892 
L 190.733115 475.96119 
L 198.26442 477.726912 
L 205.873019 479.092497 
L 213.536622 480.047191 
L 221.229878 480.595006 
L 228.929324 480.731206 
L 236.61072 480.455773 
L 244.249831 479.77005 
L 251.8225 478.680172 
L 259.304958 477.186763 
L 266.673658 475.298644 
L 273.90546 473.022516 
L 280.977105 470.362982 
L 287.866182 467.331065 
L 294.549727 463.932986 
L 301.004317 460.174682 
L 307.205386 456.060265 
L 310.202438 453.869361 
L 313.125147 451.587336 
L 315.970462 449.216395 
L 318.733041 446.752387 
L 321.409617 444.197824 
L 323.99442 441.548958 
L 326.479968 438.799161 
L 328.860992 435.948473 
L 331.130643 432.994048 
L 333.278726 429.927201 
L 335.294296 426.739812 
L 337.1689 423.430421 
L 338.885479 419.98296 
L 340.429096 416.388313 
L 341.778651 412.629364 
L 342.915247 408.696056 
L 343.800308 404.550592 
L 344.39616 400.163283 
L 344.650875 395.489846 
L 344.529184 390.516992 
L 343.93239 385.15114 
L 342.775848 379.332165 
L 340.991589 373.031842 
L 338.619106 366.357355 
L 336.177242 359.956218 
L 335.285366 355.612091 
L 337.850266 355.170672 
L 343.143322 357.482667 
L 349.221807 360.316495 
L 355.129353 362.679456 
L 360.595437 364.349593 
L 365.61443 365.375902 
L 370.26096 365.87417 
L 374.564223 365.909722 
L 378.583905 365.566549 
L 382.35781 364.902549 
L 385.899805 363.951684 
L 389.253429 362.766602 
L 392.381082 361.337366 
L 395.349452 359.727339 
L 398.139951 357.936851 
L 400.762864 355.985456 
L 403.22658 353.889937 
L 405.528481 351.659377 
L 407.675322 349.307817 
L 409.668507 346.845398 
L 411.500717 344.277303 
L 413.177093 341.615081 
L 414.697097 338.866859 
L 416.054243 336.03787 
L 417.245324 333.13501 
L 418.270546 330.166563 
L 419.124021 327.138225 
L 419.796781 324.054826 
L 420.286423 320.923968 
L 420.584263 317.751208 
L 420.678442 314.54163 
L 420.563764 311.302966 
L 420.221988 308.039694 
L 419.6382 304.758341 
L 418.780862 301.462563 
L 417.68212 298.171738 
L 416.21663 294.872169 
L 414.450475 291.592887 
L 412.24768 288.32604 
L 409.57329 285.087615 
L 406.324597 281.88766 
L 402.398853 278.7434 
L 397.522593 275.664294 
L 391.353506 272.674146 
L 383.206665 269.80274 
L 371.539661 267.097803 
L 351.687467 264.660337 
L 262.3825 262.917188 
L 348.87304 261.223164 
L 370.133091 258.785691 
L 382.246812 256.081939 
L 390.634385 253.210515 
L 396.941246 250.220942 
L 401.920901 247.14121 
L 405.949809 243.992733 
L 409.233355 240.794534 
L 411.942536 237.556665 
L 414.146221 234.295136 
L 415.980752 231.008056 
L 417.447078 227.712597 
L 418.580176 224.418145 
L 419.438353 221.125862 
L 420.036304 217.844434 
L 420.388876 214.581557 
L 420.517587 211.341923 
L 420.43082 208.133023 
L 420.140365 204.960699 
L 419.661301 201.82886 
L 418.992627 198.746588 
L 418.1496 195.716677 
L 417.128409 192.748992 
L 415.941348 189.846769 
L 414.591319 187.016841 
L 413.078362 184.267449 
L 411.4059 181.605384 
L 409.574548 179.038936 
L 407.588254 176.57482 
L 405.445241 174.223057 
L 403.147134 171.992174 
L 400.687174 169.896215 
L 398.065099 167.946134 
L 395.278305 166.155026 
L 392.324843 164.536388 
L 389.170114 163.128305 
L 385.844975 161.924009 
L 382.303709 160.974094 
L 378.53055 160.311032 
L 374.51163 159.968784 
L 370.183239 160.027767 
L 365.537899 160.527382 
L 360.495015 161.578428 
L 355.03058 163.250303 
L 349.076168 165.663519 
L 337.499097 171.040286 
L 334.871913 170.68147 
L 335.816908 166.292674 
L 338.354322 159.792577 
L 340.797162 153.04263 
L 342.627909 146.691563 
L 343.829096 140.820311 
L 344.448475 135.42847 
L 344.591807 130.428887 
L 344.319378 125.784927 
L 343.74422 121.370152 
L 342.860674 117.225654 
L 341.736219 113.27563 
L 340.391335 109.511465 
L 338.852195 105.911462 
L 337.139892 102.458511 
L 335.269361 99.143501 
L 333.254649 95.956539 
L 331.108881 92.886994 
L 328.842841 89.926669 
L 326.462532 87.076292 
L 323.978989 84.323611 
L 321.396085 81.671803 
L 318.7213 79.114246 
L 315.959286 76.650437 
L 313.1156 74.276422 
L 310.193405 71.994559 
L 307.197817 69.800508 
L 300.998338 65.683674 
L 294.545159 61.922879 
L 287.862784 58.522579 
L 280.974669 55.48873 
L 273.903666 52.828928 
L 266.6727 50.549429 
L 259.304599 48.657904 
L 255.576341 47.859782 
L 255.576341 47.859782 
" clip-path="url(#p4128c7f68a)" style="fill: none; stroke-dasharray: 5.55,2.4; stroke-dashoffset: 0; stroke: #0000ff; stroke-width: 1.5"/>
   </g>
   <g id="patch_3">
    <path d="M 251.8225 41.157188 
C 222.701244 41.157188 193.863155 46.89344 166.958622 58.037662 
C 140.054089 69.181885 115.606338 85.51735 95.0145 106.109188 
C 74.422662 126.701026 58.087197 151.148777 46.942975 178.05331 
C 35.798753 204.957842 30.0625 233.795931 30.0625 262.917188 
C 30.0625 292.038444 35.798753 320.876533 46.942975 347.781065 
C 58.087197 374.685598 74.422662 399.133349 95.0145 419.725187 
C 115.606338 440.317025 140.054089 456.65249 166.958622 467.796713 
C 193.863155 478.940935 222.701244 484.677188 251.8225 484.677188 
C 280.943756 484.677188 309.781845 478.940935 336.686378 467.796713 
C 363.590911 456.65249 388.038662 440.317025 408.6305 419.725187 
C 429.222338 399.133349 445.557803 374.685598 456.702025 347.781065 
C 467.846247 320.876533 473.5825 292.038444 473.5825 262.917188 
C 473.5825 233.795931 467.846247 204.957842 456.702025 178.05331 
C 445.557803 151.148777 429.222338 126.701026 408.6305 106.109188 
C 388.038662 85.51735 363.590911 69.181885 336.686378 58.037662 
C 309.781845 46.89344 280.943756 41.157188 251.8225 41.157188 
" style="fill: none; stroke: #000000; stroke-width: 0.8; stroke-linejoin: miter; stroke-linecap: square"/>
   </g>
   <g id="text_16">
    <g id="patch_4">
     <path d="M 384.8785 509.853188 
L 485.369125 509.853188 
Q 488.369125 509.853188 488.369125 506.853188 
L 488.369125 473.945063 
Q 488.369125 470.945063 485.369125 470.945063 
L 384.8785 470.945063 
Q 381.8785 470.945063 381.8785 473.945063 
L 381.8785 506.853188 
Q 381.8785 509.853188 384.8785 509.853188 
z
" style="fill: #ffffff; stroke: #808080; stroke-linejoin: miter"/>
    </g>
    <!-- G_cst: 4.5 dBi -->
    <g transform="translate(384.8785 481.821625)scale(0.1 -0.1)">
     <defs>
      <path id="DejaVuSans-47" d="M 3809 666 
L 3809 1919 
L 2778 1919 
L 2778 2438 
L 4434 2438 
L 4434 434 
Q 4069 175 3628 42 
Q 3188 -91 2688 -91 
Q 1594 -91 976 548 
Q 359 1188 359 2328 
Q 359 3472 976 4111 
Q 1594 4750 2688 4750 
Q 3144 4750 3555 4637 
Q 3966 4525 4313 4306 
L 4313 3634 
Q 3963 3931 3569 4081 
Q 3175 4231 2741 4231 
Q 1884 4231 1454 3753 
Q 1025 3275 1025 2328 
Q 1025 1384 1454 906 
Q 1884 428 2741 428 
Q 3075 428 3337 486 
Q 3600 544 3809 666 
z
" transform="scale(0.015625)"/>
      <path id="DejaVuSans-5f" d="M 3263 -1063 
L 3263 -1509 
L -63 -1509 
L -63 -1063 
L 3263 -1063 
z
" transform="scale(0.015625)"/>
      <path id="DejaVuSans-63" d="M 3122 3366 
L 3122 2828 
Q 2878 2963 2633 3030 
Q 2388 3097 2138 3097 
Q 1578 3097 1268 2742 
Q 959 2388 959 1747 
Q 959 1106 1268 751 
Q 1578 397 2138 397 
Q 2388 397 2633 464 
Q 2878 531 3122 666 
L 3122 134 
Q 2881 22 2623 -34 
Q 2366 -91 2075 -91 
Q 1284 -91 818 406 
Q 353 903 353 1747 
Q 353 2603 823 3093 
Q 1294 3584 2113 3584 
Q 2378 3584 2631 3529 
Q 2884 3475 3122 3366 
z
" transform="scale(0.015625)"/>
      <path id="DejaVuSans-73" d="M 2834 3397 
L 2834 2853 
Q 2591 2978 2328 3040 
Q 2066 3103 1784 3103 
Q 1356 3103 1142 2972 
Q 928 2841 928 2578 
Q 928 2378 1081 2264 
Q 1234 2150 1697 2047 
L 1894 2003 
Q 2506 1872 2764 1633 
Q 3022 1394 3022 966 
Q 3022 478 2636 193 
Q 2250 -91 1575 -91 
Q 1294 -91 989 -36 
Q 684 19 347 128 
L 347 722 
Q 666 556 975 473 
Q 1284 391 1588 391 
Q 1994 391 2212 530 
Q 2431 669 2431 922 
Q 2431 1156 2273 1281 
Q 2116 1406 1581 1522 
L 1381 1569 
Q 847 1681 609 1914 
Q 372 2147 372 2553 
Q 372 3047 722 3315 
Q 1072 3584 1716 3584 
Q 2034 3584 2315 3537 
Q 2597 3491 2834 3397 
z
" transform="scale(0.015625)"/>
      <path id="DejaVuSans-74" d="M 1172 4494 
L 1172 3500 
L 2356 3500 
L 2356 3053 
L 1172 3053 
L 1172 1153 
Q 1172 725 1289 603 
Q 1406 481 1766 481 
L 2356 481 
L 2356 0 
L 1766 0 
Q 1100 0 847 248 
Q 594 497 594 1153 
L 594 3053 
L 172 3053 
L 172 3500 
L 594 3500 
L 594 4494 
L 1172 4494 
z
" transform="scale(0.015625)"/>
      <path id="DejaVuSans-3a" d="M 750 794 
L 1409 794 
L 1409 0 
L 750 0 
L 750 794 
z
M 750 3309 
L 1409 3309 
L 1409 2516 
L 750 2516 
L 750 3309 
z
" transform="scale(0.015625)"/>
      <path id="DejaVuSans-20" transform="scale(0.015625)"/>
      <path id="DejaVuSans-2e" d="M 684 794 
L 1344 794 
L 1344 0 
L 684 0 
L 684 794 
z
" transform="scale(0.015625)"/>
      <path id="DejaVuSans-64" d="M 2906 2969 
L 2906 4863 
L 3481 4863 
L 3481 0 
L 2906 0 
L 2906 525 
Q 2725 213 2448 61 
Q 2172 -91 1784 -91 
Q 1150 -91 751 415 
Q 353 922 353 1747 
Q 353 2572 751 3078 
Q 1150 3584 1784 3584 
Q 2172 3584 2448 3432 
Q 2725 3281 2906 2969 
z
M 947 1747 
Q 947 1113 1208 752 
Q 1469 391 1925 391 
Q 2381 391 2643 752 
Q 2906 1113 2906 1747 
Q 2906 2381 2643 2742 
Q 2381 3103 1925 3103 
Q 1469 3103 1208 2742 
Q 947 2381 947 1747 
z
" transform="scale(0.015625)"/>
      <path id="DejaVuSans-42" d="M 1259 2228 
L 1259 519 
L 2272 519 
Q 2781 519 3026 730 
Q 3272 941 3272 1375 
Q 3272 1813 3026 2020 
Q 2781 2228 2272 2228 
L 1259 2228 
z
M 1259 4147 
L 1259 2741 
L 2194 2741 
Q 2656 2741 2882 2914 
Q 3109 3088 3109 3444 
Q 3109 3797 2882 3972 
Q 2656 4147 2194 4147 
L 1259 4147 
z
M 628 4666 
L 2241 4666 
Q 2963 4666 3353 4366 
Q 3744 4066 3744 3513 
Q 3744 3084 3544 2831 
Q 3344 2578 2956 2516 
Q 3422 2416 3680 2098 
Q 3938 1781 3938 1306 
Q 3938 681 3513 340 
Q 3088 0 2303 0 
L 628 0 
L 628 4666 
z
" transform="scale(0.015625)"/>
      <path id="DejaVuSans-69" d="M 603 3500 
L 1178 3500 
L 1178 0 
L 603 0 
L 603 3500 
z
M 603 4863 
L 1178 4863 
L 1178 4134 
L 603 4134 
L 603 4863 
z
" transform="scale(0.015625)"/>
     </defs>
     <use xlink:href="#DejaVuSans-47"/>
     <use xlink:href="#DejaVuSans-5f" x="77.490234"/>
     <use xlink:href="#DejaVuSans-63" x="127.490234"/>
     <use xlink:href="#DejaVuSans-73" x="182.470703"/>
     <use xlink:href="#DejaVuSans-74" x="234.570312"/>
     <use xlink:href="#DejaVuSans-3a" x="273.779297"/>
     <use xlink:href="#DejaVuSans-20" x="307.470703"/>
     <use xlink:href="#DejaVuSans-34" x="339.257812"/>
     <use xlink:href="#DejaVuSans-2e" x="402.880859"/>
     <use xlink:href="#DejaVuSans-35" x="434.667969"/>
     <use xlink:href="#DejaVuSans-20" x="498.291016"/>
     <use xlink:href="#DejaVuSans-64" x="530.078125"/>
     <use xlink:href="#DejaVuSans-42" x="593.554688"/>
     <use xlink:href="#DejaVuSans-69" x="662.158203"/>
    </g>
    <!-- G_inpe: 3.0 dBi -->
    <g transform="translate(384.8785 493.297563)scale(0.1 -0.1)">
     <defs>
      <path id="DejaVuSans-6e" d="M 3513 2113 
L 3513 0 
L 2938 0 
L 2938 2094 
Q 2938 2591 2744 2837 
Q 2550 3084 2163 3084 
Q 1697 3084 1428 2787 
Q 1159 2491 1159 1978 
L 1159 0 
L 581 0 
L 581 3500 
L 1159 3500 
L 1159 2956 
Q 1366 3272 1645 3428 
Q 1925 3584 2291 3584 
Q 2894 3584 3203 3211 
Q 3513 2838 3513 2113 
z
" transform="scale(0.015625)"/>
      <path id="DejaVuSans-70" d="M 1159 525 
L 1159 -1331 
L 581 -1331 
L 581 3500 
L 1159 3500 
L 1159 2969 
Q 1341 3281 1617 3432 
Q 1894 3584 2278 3584 
Q 2916 3584 3314 3078 
Q 3713 2572 3713 1747 
Q 3713 922 3314 415 
Q 2916 -91 2278 -91 
Q 1894 -91 1617 61 
Q 1341 213 1159 525 
z
M 3116 1747 
Q 3116 2381 2855 2742 
Q 2594 3103 2138 3103 
Q 1681 3103 1420 2742 
Q 1159 2381 1159 1747 
Q 1159 1113 1420 752 
Q 1681 391 2138 391 
Q 2594 391 2855 752 
Q 3116 1113 3116 1747 
z
" transform="scale(0.015625)"/>
      <path id="DejaVuSans-65" d="M 3597 1894 
L 3597 1613 
L 953 1613 
Q 991 1019 1311 708 
Q 1631 397 2203 397 
Q 2534 397 2845 478 
Q 3156 559 3463 722 
L 3463 178 
Q 3153 47 2828 -22 
Q 2503 -91 2169 -91 
Q 1331 -91 842 396 
Q 353 884 353 1716 
Q 353 2575 817 3079 
Q 1281 3584 2069 3584 
Q 2775 3584 3186 3129 
Q 3597 2675 3597 1894 
z
M 3022 2063 
Q 3016 2534 2758 2815 
Q 2500 3097 2075 3097 
Q 1594 3097 1305 2825 
Q 1016 2553 972 2059 
L 3022 2063 
z
" transform="scale(0.015625)"/>
     </defs>
     <use xlink:href="#DejaVuSans-47"/>
     <use xlink:href="#DejaVuSans-5f" x="77.490234"/>
     <use xlink:href="#DejaVuSans-69" x="127.490234"/>
     <use xlink:href="#DejaVuSans-6e" x="155.273438"/>
     <use xlink:href="#DejaVuSans-70" x="218.652344"/>
     <use xlink:href="#DejaVuSans-65" x="282.128906"/>
     <use xlink:href="#DejaVuSans-3a" x="343.652344"/>
     <use xlink:href="#DejaVuSans-20" x="377.34375"/>
     <use xlink:href="#DejaVuSans-33" x="409.130859"/>
     <use xlink:href="#DejaVuSans-2e" x="472.753906"/>
     <use xlink:href="#DejaVuSans-30" x="504.541016"/>
     <use xlink:href="#DejaVuSans-20" x="568.164062"/>
     <use xlink:href="#DejaVuSans-64" x="599.951172"/>
     <use xlink:href="#DejaVuSans-42" x="663.427734"/>
     <use xlink:href="#DejaVuSans-69" x="732.03125"/>
    </g>
    <!-- Pearson Coef: 0.179 -->
    <g transform="translate(384.8785 504.7735)scale(0.1 -0.1)">
     <defs>
      <path id="DejaVuSans-50" d="M 1259 4147 
L 1259 2394 
L 2053 2394 
Q 2494 2394 2734 2622 
Q 2975 2850 2975 3272 
Q 2975 3691 2734 3919 
Q 2494 4147 2053 4147 
L 1259 4147 
z
M 628 4666 
L 2053 4666 
Q 2838 4666 3239 4311 
Q 3641 3956 3641 3272 
Q 3641 2581 3239 2228 
Q 2838 1875 2053 1875 
L 1259 1875 
L 1259 0 
L 628 0 
L 628 4666 
z
" transform="scale(0.015625)"/>
      <path id="DejaVuSans-61" d="M 2194 1759 
Q 1497 1759 1228 1600 
Q 959 1441 959 1056 
Q 959 750 1161 570 
Q 1363 391 1709 391 
Q 2188 391 2477 730 
Q 2766 1069 2766 1631 
L 2766 1759 
L 2194 1759 
z
M 3341 1997 
L 3341 0 
L 2766 0 
L 2766 531 
Q 2569 213 2275 61 
Q 1981 -91 1556 -91 
Q 1019 -91 701 211 
Q 384 513 384 1019 
Q 384 1609 779 1909 
Q 1175 2209 1959 2209 
L 2766 2209 
L 2766 2266 
Q 2766 2663 2505 2880 
Q 2244 3097 1772 3097 
Q 1472 3097 1187 3025 
Q 903 2953 641 2809 
L 641 3341 
Q 956 3463 1253 3523 
Q 1550 3584 1831 3584 
Q 2591 3584 2966 3190 
Q 3341 2797 3341 1997 
z
" transform="scale(0.015625)"/>
      <path id="DejaVuSans-72" d="M 2631 2963 
Q 2534 3019 2420 3045 
Q 2306 3072 2169 3072 
Q 1681 3072 1420 2755 
Q 1159 2438 1159 1844 
L 1159 0 
L 581 0 
L 581 3500 
L 1159 3500 
L 1159 2956 
Q 1341 3275 1631 3429 
Q 1922 3584 2338 3584 
Q 2397 3584 2469 3576 
Q 2541 3569 2628 3553 
L 2631 2963 
z
" transform="scale(0.015625)"/>
      <path id="DejaVuSans-6f" d="M 1959 3097 
Q 1497 3097 1228 2736 
Q 959 2375 959 1747 
Q 959 1119 1226 758 
Q 1494 397 1959 397 
Q 2419 397 2687 759 
Q 2956 1122 2956 1747 
Q 2956 2369 2687 2733 
Q 2419 3097 1959 3097 
z
M 1959 3584 
Q 2709 3584 3137 3096 
Q 3566 2609 3566 1747 
Q 3566 888 3137 398 
Q 2709 -91 1959 -91 
Q 1206 -91 779 398 
Q 353 888 353 1747 
Q 353 2609 779 3096 
Q 1206 3584 1959 3584 
z
" transform="scale(0.015625)"/>
      <path id="DejaVuSans-43" d="M 4122 4306 
L 4122 3641 
Q 3803 3938 3442 4084 
Q 3081 4231 2675 4231 
Q 1875 4231 1450 3742 
Q 1025 3253 1025 2328 
Q 1025 1406 1450 917 
Q 1875 428 2675 428 
Q 3081 428 3442 575 
Q 3803 722 4122 1019 
L 4122 359 
Q 3791 134 3420 21 
Q 3050 -91 2638 -91 
Q 1578 -91 968 557 
Q 359 1206 359 2328 
Q 359 3453 968 4101 
Q 1578 4750 2638 4750 
Q 3056 4750 3426 4639 
Q 3797 4528 4122 4306 
z
" transform="scale(0.015625)"/>
      <path id="DejaVuSans-66" d="M 2375 4863 
L 2375 4384 
L 1825 4384 
Q 1516 4384 1395 4259 
Q 1275 4134 1275 3809 
L 1275 3500 
L 2222 3500 
L 2222 3053 
L 1275 3053 
L 1275 0 
L 697 0 
L 697 3053 
L 147 3053 
L 147 3500 
L 697 3500 
L 697 3744 
Q 697 4328 969 4595 
Q 1241 4863 1831 4863 
L 2375 4863 
z
" transform="scale(0.015625)"/>
     </defs>
     <use xlink:href="#DejaVuSans-50"/>
     <use xlink:href="#DejaVuSans-65" x="56.677734"/>
     <use xlink:href="#DejaVuSans-61" x="118.201172"/>
     <use xlink:href="#DejaVuSans-72" x="179.480469"/>
     <use xlink:href="#DejaVuSans-73" x="220.59375"/>
     <use xlink:href="#DejaVuSans-6f" x="272.693359"/>
     <use xlink:href="#DejaVuSans-6e" x="333.875"/>
     <use xlink:href="#DejaVuSans-20" x="397.253906"/>
     <use xlink:href="#DejaVuSans-43" x="429.041016"/>
     <use xlink:href="#DejaVuSans-6f" x="498.865234"/>
     <use xlink:href="#DejaVuSans-65" x="560.046875"/>
     <use xlink:href="#DejaVuSans-66" x="621.570312"/>
     <use xlink:href="#DejaVuSans-3a" x="653.150391"/>
     <use xlink:href="#DejaVuSans-20" x="686.841797"/>
     <use xlink:href="#DejaVuSans-30" x="718.628906"/>
     <use xlink:href="#DejaVuSans-2e" x="782.251953"/>
     <use xlink:href="#DejaVuSans-31" x="814.039062"/>
     <use xlink:href="#DejaVuSans-37" x="877.662109"/>
     <use xlink:href="#DejaVuSans-39" x="941.285156"/>
    </g>
   </g>
   <g id="text_17">
    <g id="patch_5">
     <path d="M 52.2385 56.370938 
L 133.30975 56.370938 
Q 136.90975 56.370938 136.90975 52.770938 
L 136.90975 41.157188 
Q 136.90975 37.557188 133.30975 37.557188 
L 52.2385 37.557188 
Q 48.6385 37.557188 48.6385 41.157188 
L 48.6385 52.770938 
Q 48.6385 56.370938 52.2385 56.370938 
z
" style="fill: #ffffff; stroke: #808080; stroke-linejoin: miter"/>
    </g>
    <!-- Freq: 6.3 GHz -->
    <g transform="translate(52.2385 50.275313)scale(0.12 -0.12)">
     <defs>
      <path id="DejaVuSans-46" d="M 628 4666 
L 3309 4666 
L 3309 4134 
L 1259 4134 
L 1259 2759 
L 3109 2759 
L 3109 2228 
L 1259 2228 
L 1259 0 
L 628 0 
L 628 4666 
z
" transform="scale(0.015625)"/>
      <path id="DejaVuSans-71" d="M 947 1747 
Q 947 1113 1208 752 
Q 1469 391 1925 391 
Q 2381 391 2643 752 
Q 2906 1113 2906 1747 
Q 2906 2381 2643 2742 
Q 2381 3103 1925 3103 
Q 1469 3103 1208 2742 
Q 947 2381 947 1747 
z
M 2906 525 
Q 2725 213 2448 61 
Q 2172 -91 1784 -91 
Q 1150 -91 751 415 
Q 353 922 353 1747 
Q 353 2572 751 3078 
Q 1150 3584 1784 3584 
Q 2172 3584 2448 3432 
Q 2725 3281 2906 2969 
L 2906 3500 
L 3481 3500 
L 3481 -1331 
L 2906 -1331 
L 2906 525 
z
" transform="scale(0.015625)"/>
      <path id="DejaVuSans-48" d="M 628 4666 
L 1259 4666 
L 1259 2753 
L 3553 2753 
L 3553 4666 
L 4184 4666 
L 4184 0 
L 3553 0 
L 3553 2222 
L 1259 2222 
L 1259 0 
L 628 0 
L 628 4666 
z
" transform="scale(0.015625)"/>
      <path id="DejaVuSans-7a" d="M 353 3500 
L 3084 3500 
L 3084 2975 
L 922 459 
L 3084 459 
L 3084 0 
L 275 0 
L 275 525 
L 2438 3041 
L 353 3041 
L 353 3500 
z
" transform="scale(0.015625)"/>
     </defs>
     <use xlink:href="#DejaVuSans-46"/>
     <use xlink:href="#DejaVuSans-72" x="50.269531"/>
     <use xlink:href="#DejaVuSans-65" x="89.132812"/>
     <use xlink:href="#DejaVuSans-71" x="150.65625"/>
     <use xlink:href="#DejaVuSans-3a" x="214.132812"/>
     <use xlink:href="#DejaVuSans-20" x="247.824219"/>
     <use xlink:href="#DejaVuSans-36" x="279.611328"/>
     <use xlink:href="#DejaVuSans-2e" x="343.234375"/>
     <use xlink:href="#DejaVuSans-33" x="375.021484"/>
     <use xlink:href="#DejaVuSans-20" x="438.644531"/>
     <use xlink:href="#DejaVuSans-47" x="470.431641"/>
     <use xlink:href="#DejaVuSans-48" x="547.921875"/>
     <use xlink:href="#DejaVuSans-7a" x="623.117188"/>
    </g>
   </g>
   <g id="text_18">
    <!-- Radiation Diagram - 4AVHF06 -->
    <g transform="translate(162.578125 16.318125)scale(0.12 -0.12)">
     <defs>
      <path id="DejaVuSans-52" d="M 2841 2188 
Q 3044 2119 3236 1894 
Q 3428 1669 3622 1275 
L 4263 0 
L 3584 0 
L 2988 1197 
Q 2756 1666 2539 1819 
Q 2322 1972 1947 1972 
L 1259 1972 
L 1259 0 
L 628 0 
L 628 4666 
L 2053 4666 
Q 2853 4666 3247 4331 
Q 3641 3997 3641 3322 
Q 3641 2881 3436 2590 
Q 3231 2300 2841 2188 
z
M 1259 4147 
L 1259 2491 
L 2053 2491 
Q 2509 2491 2742 2702 
Q 2975 2913 2975 3322 
Q 2975 3731 2742 3939 
Q 2509 4147 2053 4147 
L 1259 4147 
z
" transform="scale(0.015625)"/>
      <path id="DejaVuSans-44" d="M 1259 4147 
L 1259 519 
L 2022 519 
Q 2988 519 3436 956 
Q 3884 1394 3884 2338 
Q 3884 3275 3436 3711 
Q 2988 4147 2022 4147 
L 1259 4147 
z
M 628 4666 
L 1925 4666 
Q 3281 4666 3915 4102 
Q 4550 3538 4550 2338 
Q 4550 1131 3912 565 
Q 3275 0 1925 0 
L 628 0 
L 628 4666 
z
" transform="scale(0.015625)"/>
      <path id="DejaVuSans-67" d="M 2906 1791 
Q 2906 2416 2648 2759 
Q 2391 3103 1925 3103 
Q 1463 3103 1205 2759 
Q 947 2416 947 1791 
Q 947 1169 1205 825 
Q 1463 481 1925 481 
Q 2391 481 2648 825 
Q 2906 1169 2906 1791 
z
M 3481 434 
Q 3481 -459 3084 -895 
Q 2688 -1331 1869 -1331 
Q 1566 -1331 1297 -1286 
Q 1028 -1241 775 -1147 
L 775 -588 
Q 1028 -725 1275 -790 
Q 1522 -856 1778 -856 
Q 2344 -856 2625 -561 
Q 2906 -266 2906 331 
L 2906 616 
Q 2728 306 2450 153 
Q 2172 0 1784 0 
Q 1141 0 747 490 
Q 353 981 353 1791 
Q 353 2603 747 3093 
Q 1141 3584 1784 3584 
Q 2172 3584 2450 3431 
Q 2728 3278 2906 2969 
L 2906 3500 
L 3481 3500 
L 3481 434 
z
" transform="scale(0.015625)"/>
      <path id="DejaVuSans-6d" d="M 3328 2828 
Q 3544 3216 3844 3400 
Q 4144 3584 4550 3584 
Q 5097 3584 5394 3201 
Q 5691 2819 5691 2113 
L 5691 0 
L 5113 0 
L 5113 2094 
Q 5113 2597 4934 2840 
Q 4756 3084 4391 3084 
Q 3944 3084 3684 2787 
Q 3425 2491 3425 1978 
L 3425 0 
L 2847 0 
L 2847 2094 
Q 2847 2600 2669 2842 
Q 2491 3084 2119 3084 
Q 1678 3084 1418 2786 
Q 1159 2488 1159 1978 
L 1159 0 
L 581 0 
L 581 3500 
L 1159 3500 
L 1159 2956 
Q 1356 3278 1631 3431 
Q 1906 3584 2284 3584 
Q 2666 3584 2933 3390 
Q 3200 3197 3328 2828 
z
" transform="scale(0.015625)"/>
      <path id="DejaVuSans-2d" d="M 313 2009 
L 1997 2009 
L 1997 1497 
L 313 1497 
L 313 2009 
z
" transform="scale(0.015625)"/>
      <path id="DejaVuSans-41" d="M 2188 4044 
L 1331 1722 
L 3047 1722 
L 2188 4044 
z
M 1831 4666 
L 2547 4666 
L 4325 0 
L 3669 0 
L 3244 1197 
L 1141 1197 
L 716 0 
L 50 0 
L 1831 4666 
z
" transform="scale(0.015625)"/>
      <path id="DejaVuSans-56" d="M 1831 0 
L 50 4666 
L 709 4666 
L 2188 738 
L 3669 4666 
L 4325 4666 
L 2547 0 
L 1831 0 
z
" transform="scale(0.015625)"/>
     </defs>
     <use xlink:href="#DejaVuSans-52"/>
     <use xlink:href="#DejaVuSans-61" x="67.232422"/>
     <use xlink:href="#DejaVuSans-64" x="128.511719"/>
     <use xlink:href="#DejaVuSans-69" x="191.988281"/>
     <use xlink:href="#DejaVuSans-61" x="219.771484"/>
     <use xlink:href="#DejaVuSans-74" x="281.050781"/>
     <use xlink:href="#DejaVuSans-69" x="320.259766"/>
     <use xlink:href="#DejaVuSans-6f" x="348.042969"/>
     <use xlink:href="#DejaVuSans-6e" x="409.224609"/>
     <use xlink:href="#DejaVuSans-20" x="472.603516"/>
     <use xlink:href="#DejaVuSans-44" x="504.390625"/>
     <use xlink:href="#DejaVuSans-69" x="581.392578"/>
     <use xlink:href="#DejaVuSans-61" x="609.175781"/>
     <use xlink:href="#DejaVuSans-67" x="670.455078"/>
     <use xlink:href="#DejaVuSans-72" x="733.931641"/>
     <use xlink:href="#DejaVuSans-61" x="775.044922"/>
     <use xlink:href="#DejaVuSans-6d" x="836.324219"/>
     <use xlink:href="#DejaVuSans-20" x="933.736328"/>
     <use xlink:href="#DejaVuSans-2d" x="965.523438"/>
     <use xlink:href="#DejaVuSans-20" x="1001.607422"/>
     <use xlink:href="#DejaVuSans-34" x="1033.394531"/>
     <use xlink:href="#DejaVuSans-41" x="1097.017578"/>
     <use xlink:href="#DejaVuSans-56" x="1159.050781"/>
     <use xlink:href="#DejaVuSans-48" x="1227.458984"/>
     <use xlink:href="#DejaVuSans-46" x="1302.654297"/>
     <use xlink:href="#DejaVuSans-30" x="1360.173828"/>
     <use xlink:href="#DejaVuSans-36" x="1423.796875"/>
    </g>
   </g>
   <g id="legend_1">
    <g id="patch_6">
     <path d="M 411.802812 78.513438 
L 466.5825 78.513438 
Q 468.5825 78.513438 468.5825 76.513438 
L 468.5825 48.157188 
Q 468.5825 46.157188 466.5825 46.157188 
L 411.802812 46.157188 
Q 409.802812 46.157188 409.802812 48.157188 
L 409.802812 76.513438 
Q 409.802812 78.513438 411.802812 78.513438 
z
" style="fill: #ffffff; opacity: 0.8; stroke: #cccccc; stroke-linejoin: miter"/>
    </g>
    <g id="line2d_18">
     <path d="M 413.802812 54.255625 
L 423.802812 54.255625 
L 433.802812 54.255625 
" style="fill: none; stroke: #ff0000; stroke-width: 1.5; stroke-linecap: square"/>
    </g>
    <g id="text_19">
     <!-- INPE -->
     <g transform="translate(441.802812 57.755625)scale(0.1 -0.1)">
      <defs>
       <path id="DejaVuSans-49" d="M 628 4666 
L 1259 4666 
L 1259 0 
L 628 0 
L 628 4666 
z
" transform="scale(0.015625)"/>
       <path id="DejaVuSans-4e" d="M 628 4666 
L 1478 4666 
L 3547 763 
L 3547 4666 
L 4159 4666 
L 4159 0 
L 3309 0 
L 1241 3903 
L 1241 0 
L 628 0 
L 628 4666 
z
" transform="scale(0.015625)"/>
       <path id="DejaVuSans-45" d="M 628 4666 
L 3578 4666 
L 3578 4134 
L 1259 4134 
L 1259 2753 
L 3481 2753 
L 3481 2222 
L 1259 2222 
L 1259 531 
L 3634 531 
L 3634 0 
L 628 0 
L 628 4666 
z
" transform="scale(0.015625)"/>
      </defs>
      <use xlink:href="#DejaVuSans-49"/>
      <use xlink:href="#DejaVuSans-4e" x="29.492188"/>
      <use xlink:href="#DejaVuSans-50" x="104.296875"/>
      <use xlink:href="#DejaVuSans-45" x="164.599609"/>
     </g>
    </g>
    <g id="line2d_19">
     <path d="M 413.802812 68.93375 
L 423.802812 68.93375 
L 433.802812 68.93375 
" style="fill: none; stroke-dasharray: 5.55,2.4; stroke-dashoffset: 0; stroke: #0000ff; stroke-width: 1.5"/>
    </g>
    <g id="text_20">
     <!-- CST -->
     <g transform="translate(441.802812 72.43375)scale(0.1 -0.1)">
      <defs>
       <path id="DejaVuSans-53" d="M 3425 4513 
L 3425 3897 
Q 3066 4069 2747 4153 
Q 2428 4238 2131 4238 
Q 1616 4238 1336 4038 
Q 1056 3838 1056 3469 
Q 1056 3159 1242 3001 
Q 1428 2844 1947 2747 
L 2328 2669 
Q 3034 2534 3370 2195 
Q 3706 1856 3706 1288 
Q 3706 609 3251 259 
Q 2797 -91 1919 -91 
Q 1588 -91 1214 -16 
Q 841 59 441 206 
L 441 856 
Q 825 641 1194 531 
Q 1563 422 1919 422 
Q 2459 422 2753 634 
Q 3047 847 3047 1241 
Q 3047 1584 2836 1778 
Q 2625 1972 2144 2069 
L 1759 2144 
Q 1053 2284 737 2584 
Q 422 2884 422 3419 
Q 422 4038 858 4394 
Q 1294 4750 2059 4750 
Q 2388 4750 2728 4690 
Q 3069 4631 3425 4513 
z
" transform="scale(0.015625)"/>
       <path id="DejaVuSans-54" d="M -19 4666 
L 3928 4666 
L 3928 4134 
L 2272 4134 
L 2272 0 
L 1638 0 
L 1638 4134 
L -19 4134 
L -19 4666 
z
" transform="scale(0.015625)"/>
      </defs>
      <use xlink:href="#DejaVuSans-43"/>
      <use xlink:href="#DejaVuSans-53" x="69.824219"/>
      <use xlink:href="#DejaVuSans-54" x="133.300781"/>
     </g>
    </g>
   </g>
  </g>
 </g>
 <defs>
  <clipPath id="p4128c7f68a">
   <path d="M 473.5825 262.917188 
C 473.5825 233.795931 467.846247 204.957842 456.702025 178.05331 
C 445.557803 151.148777 429.222338 126.701026 408.6305 106.109188 
C 388.038662 85.51735 363.590911 69.181885 336.686378 58.037662 
C 309.781845 46.89344 280.943756 41.157188 251.8225 41.157188 
C 222.701244 41.157188 193.863155 46.89344 166.958622 58.037662 
C 140.054089 69.181885 115.606338 85.51735 95.0145 106.109188 
C 74.422662 126.701026 58.087197 151.148777 46.942975 178.05331 
C 35.798753 204.957842 30.0625 233.795931 30.0625 262.917188 
C 30.0625 292.038444 35.798753 320.876533 46.942975 347.781065 
C 58.087197 374.685598 74.422662 399.133349 95.0145 419.725187 
C 115.606338 440.317025 140.054089 456.65249 166.958622 467.796713 
C 193.863155 478.940935 222.701244 484.677188 251.8225 484.677188 
C 280.943756 484.677188 309.781845 478.940935 336.686378 467.796713 
C 363.590911 456.65249 388.038662 440.317025 408.6305 419.725187 
C 429.222338 399.133349 445.557803 374.685598 456.702025 347.781065 
C 467.846247 320.876533 473.5825 292.038444 473.5825 262.917188 
M 251.8225 262.917188 
C 251.8225 262.917188 251.8225 262.917188 251.8225 262.917188 
C 251.8225 262.917188 251.8225 262.917188 251.8225 262.917188 
C 251.8225 262.917188 251.8225 262.917188 251.8225 262.917188 
C 251.8225 262.917188 251.8225 262.917188 251.8225 262.917188 
C 251.8225 262.917188 251.8225 262.917188 251.8225 262.917188 
C 251.8225 262.917188 251.8225 262.917188 251.8225 262.917188 
C 251.8225 262.917188 251.8225 262.917188 251.8225 262.917188 
C 251.8225 262.917188 251.8225 262.917188 251.8225 262.917188 
C 251.8225 262.917188 251.8225 262.917188 251.8225 262.917188 
C 251.8225 262.917188 251.8225 262.917188 251.8225 262.917188 
C 251.8225 262.917188 251.8225 262.917188 251.8225 262.917188 
C 251.8225 262.917188 251.8225 262.917188 251.8225 262.917188 
C 251.8225 262.917188 251.8225 262.917188 251.8225 262.917188 
C 251.8225 262.917188 251.8225 262.917188 251.8225 262.917188 
C 251.8225 262.917188 251.8225 262.917188 251.8225 262.917188 
C 251.8225 262.917188 251.8225 262.917188 251.8225 262.917188 
M 473.5825 262.917188 
z
"/>
  </clipPath>
 </defs>
</svg>
