<?xml version="1.0" encoding="utf-8" standalone="no"?>
<!DOCTYPE svg PUBLIC "-//W3C//DTD SVG 1.1//EN"
  "http://www.w3.org/Graphics/SVG/1.1/DTD/svg11.dtd">
<svg xmlns:xlink="http://www.w3.org/1999/xlink" width="506.82625pt" height="514.053188pt" viewBox="0 0 506.82625 514.053188" xmlns="http://www.w3.org/2000/svg" version="1.1">
 <metadata>
  <rdf:RDF xmlns:dc="http://purl.org/dc/elements/1.1/" xmlns:cc="http://creativecommons.org/ns#" xmlns:rdf="http://www.w3.org/1999/02/22-rdf-syntax-ns#">
   <cc:Work>
    <dc:type rdf:resource="http://purl.org/dc/dcmitype/StillImage"/>
    <dc:date>2024-10-21T18:01:43.140074</dc:date>
    <dc:format>image/svg+xml</dc:format>
    <dc:creator>
     <cc:Agent>
      <dc:title>Matplotlib v3.8.3, https://matplotlib.org/</dc:title>
     </cc:Agent>
    </dc:creator>
   </cc:Work>
  </rdf:RDF>
 </metadata>
 <defs>
  <style type="text/css">*{stroke-linejoin: round; stroke-linecap: butt}</style>
 </defs>
 <g id="figure_1">
  <g id="patch_1">
   <path d="M 0 514.053188 
L 506.82625 514.053188 
L 506.82625 0 
L 0 0 
z
" style="fill: #ffffff"/>
  </g>
  <g id="axes_1">
   <g id="patch_2">
    <path d="M 473.5825 262.917188 
C 473.5825 233.795931 467.846247 204.957842 456.702025 178.05331 
C 445.557803 151.148777 429.222338 126.701026 408.6305 106.109188 
C 388.038662 85.51735 363.590911 69.181885 336.686378 58.037662 
C 309.781845 46.89344 280.943756 41.157188 251.8225 41.157188 
C 222.701244 41.157188 193.863155 46.89344 166.958622 58.037662 
C 140.054089 69.181885 115.606338 85.51735 95.0145 106.109188 
C 74.422662 126.701026 58.087197 151.148777 46.942975 178.05331 
C 35.798753 204.957842 30.0625 233.795931 30.0625 262.917188 
C 30.0625 292.038444 35.798753 320.876533 46.942975 347.781065 
C 58.087197 374.685598 74.422662 399.133349 95.0145 419.725187 
C 115.606338 440.317025 140.054089 456.65249 166.958622 467.796713 
C 193.863155 478.940935 222.701244 484.677188 251.8225 484.677188 
C 280.943756 484.677188 309.781845 478.940935 336.686378 467.796713 
C 363.590911 456.65249 388.038662 440.317025 408.6305 419.725187 
C 429.222338 399.133349 445.557803 374.685598 456.702025 347.781065 
C 467.846247 320.876533 473.5825 292.038444 473.5825 262.917188 
M 251.8225 262.917188 
C 251.8225 262.917188 251.8225 262.917188 251.8225 262.917188 
C 251.8225 262.917188 251.8225 262.917188 251.8225 262.917188 
C 251.8225 262.917188 251.8225 262.917188 251.8225 262.917188 
C 251.8225 262.917188 251.8225 262.917188 251.8225 262.917188 
C 251.8225 262.917188 251.8225 262.917188 251.8225 262.917188 
C 251.8225 262.917188 251.8225 262.917188 251.8225 262.917188 
C 251.8225 262.917188 251.8225 262.917188 251.8225 262.917188 
C 251.8225 262.917188 251.8225 262.917188 251.8225 262.917188 
C 251.8225 262.917188 251.8225 262.917188 251.8225 262.917188 
C 251.8225 262.917188 251.8225 262.917188 251.8225 262.917188 
C 251.8225 262.917188 251.8225 262.917188 251.8225 262.917188 
C 251.8225 262.917188 251.8225 262.917188 251.8225 262.917188 
C 251.8225 262.917188 251.8225 262.917188 251.8225 262.917188 
C 251.8225 262.917188 251.8225 262.917188 251.8225 262.917188 
C 251.8225 262.917188 251.8225 262.917188 251.8225 262.917188 
C 251.8225 262.917188 251.8225 262.917188 251.8225 262.917188 
z
" style="fill: #ffffff"/>
   </g>
   <g id="matplotlib.axis_1">
    <g id="xtick_1">
     <g id="line2d_1">
      <path d="M 251.8225 262.917188 
L 251.8225 41.157188 
" clip-path="url(#pf97ff18477)" style="fill: none; stroke: #b0b0b0; stroke-width: 0.8; stroke-linecap: square"/>
     </g>
     <g id="text_1">
      <!-- 0° -->
      <g transform="translate(246.14125 29.916563) scale(0.1 -0.1)">
       <defs>
        <path id="DejaVuSans-30" d="M 2034 4250 
Q 1547 4250 1301 3770 
Q 1056 3291 1056 2328 
Q 1056 1369 1301 889 
Q 1547 409 2034 409 
Q 2525 409 2770 889 
Q 3016 1369 3016 2328 
Q 3016 3291 2770 3770 
Q 2525 4250 2034 4250 
z
M 2034 4750 
Q 2819 4750 3233 4129 
Q 3647 3509 3647 2328 
Q 3647 1150 3233 529 
Q 2819 -91 2034 -91 
Q 1250 -91 836 529 
Q 422 1150 422 2328 
Q 422 3509 836 4129 
Q 1250 4750 2034 4750 
z
" transform="scale(0.015625)"/>
        <path id="DejaVuSans-b0" d="M 1600 4347 
Q 1350 4347 1178 4173 
Q 1006 4000 1006 3750 
Q 1006 3503 1178 3333 
Q 1350 3163 1600 3163 
Q 1850 3163 2022 3333 
Q 2194 3503 2194 3750 
Q 2194 3997 2020 4172 
Q 1847 4347 1600 4347 
z
M 1600 4750 
Q 1800 4750 1984 4673 
Q 2169 4597 2303 4453 
Q 2447 4313 2519 4134 
Q 2591 3956 2591 3750 
Q 2591 3338 2302 3052 
Q 2013 2766 1594 2766 
Q 1172 2766 890 3047 
Q 609 3328 609 3750 
Q 609 4169 896 4459 
Q 1184 4750 1600 4750 
z
" transform="scale(0.015625)"/>
       </defs>
       <use xlink:href="#DejaVuSans-30"/>
       <use xlink:href="#DejaVuSans-b0" x="63.623047"/>
      </g>
     </g>
    </g>
    <g id="xtick_2">
     <g id="line2d_2">
      <path d="M 251.8225 262.917188 
L 95.0145 106.109188 
" clip-path="url(#pf97ff18477)" style="fill: none; stroke: #b0b0b0; stroke-width: 0.8; stroke-linecap: square"/>
     </g>
     <g id="text_2">
      <!-- 45° -->
      <g transform="translate(76.252505 98.969068) scale(0.1 -0.1)">
       <defs>
        <path id="DejaVuSans-34" d="M 2419 4116 
L 825 1625 
L 2419 1625 
L 2419 4116 
z
M 2253 4666 
L 3047 4666 
L 3047 1625 
L 3713 1625 
L 3713 1100 
L 3047 1100 
L 3047 0 
L 2419 0 
L 2419 1100 
L 313 1100 
L 313 1709 
L 2253 4666 
z
" transform="scale(0.015625)"/>
        <path id="DejaVuSans-35" d="M 691 4666 
L 3169 4666 
L 3169 4134 
L 1269 4134 
L 1269 2991 
Q 1406 3038 1543 3061 
Q 1681 3084 1819 3084 
Q 2600 3084 3056 2656 
Q 3513 2228 3513 1497 
Q 3513 744 3044 326 
Q 2575 -91 1722 -91 
Q 1428 -91 1123 -41 
Q 819 9 494 109 
L 494 744 
Q 775 591 1075 516 
Q 1375 441 1709 441 
Q 2250 441 2565 725 
Q 2881 1009 2881 1497 
Q 2881 1984 2565 2268 
Q 2250 2553 1709 2553 
Q 1456 2553 1204 2497 
Q 953 2441 691 2322 
L 691 4666 
z
" transform="scale(0.015625)"/>
       </defs>
       <use xlink:href="#DejaVuSans-34"/>
       <use xlink:href="#DejaVuSans-35" x="63.623047"/>
       <use xlink:href="#DejaVuSans-b0" x="127.246094"/>
      </g>
     </g>
    </g>
    <g id="xtick_3">
     <g id="line2d_3">
      <path d="M 251.8225 262.917188 
L 30.0625 262.917188 
" clip-path="url(#pf97ff18477)" style="fill: none; stroke: #b0b0b0; stroke-width: 0.8; stroke-linecap: square"/>
     </g>
     <g id="text_3">
      <!-- 90° -->
      <g transform="translate(7.2 265.676563) scale(0.1 -0.1)">
       <defs>
        <path id="DejaVuSans-39" d="M 703 97 
L 703 672 
Q 941 559 1184 500 
Q 1428 441 1663 441 
Q 2288 441 2617 861 
Q 2947 1281 2994 2138 
Q 2813 1869 2534 1725 
Q 2256 1581 1919 1581 
Q 1219 1581 811 2004 
Q 403 2428 403 3163 
Q 403 3881 828 4315 
Q 1253 4750 1959 4750 
Q 2769 4750 3195 4129 
Q 3622 3509 3622 2328 
Q 3622 1225 3098 567 
Q 2575 -91 1691 -91 
Q 1453 -91 1209 -44 
Q 966 3 703 97 
z
M 1959 2075 
Q 2384 2075 2632 2365 
Q 2881 2656 2881 3163 
Q 2881 3666 2632 3958 
Q 2384 4250 1959 4250 
Q 1534 4250 1286 3958 
Q 1038 3666 1038 3163 
Q 1038 2656 1286 2365 
Q 1534 2075 1959 2075 
z
" transform="scale(0.015625)"/>
       </defs>
       <use xlink:href="#DejaVuSans-39"/>
       <use xlink:href="#DejaVuSans-30" x="63.623047"/>
       <use xlink:href="#DejaVuSans-b0" x="127.246094"/>
      </g>
     </g>
    </g>
    <g id="xtick_4">
     <g id="line2d_4">
      <path d="M 251.8225 262.917188 
L 95.0145 419.725187 
" clip-path="url(#pf97ff18477)" style="fill: none; stroke: #b0b0b0; stroke-width: 0.8; stroke-linecap: square"/>
     </g>
     <g id="text_4">
      <!-- 135° -->
      <g transform="translate(73.071255 432.384057) scale(0.1 -0.1)">
       <defs>
        <path id="DejaVuSans-31" d="M 794 531 
L 1825 531 
L 1825 4091 
L 703 3866 
L 703 4441 
L 1819 4666 
L 2450 4666 
L 2450 531 
L 3481 531 
L 3481 0 
L 794 0 
L 794 531 
z
" transform="scale(0.015625)"/>
        <path id="DejaVuSans-33" d="M 2597 2516 
Q 3050 2419 3304 2112 
Q 3559 1806 3559 1356 
Q 3559 666 3084 287 
Q 2609 -91 1734 -91 
Q 1441 -91 1130 -33 
Q 819 25 488 141 
L 488 750 
Q 750 597 1062 519 
Q 1375 441 1716 441 
Q 2309 441 2620 675 
Q 2931 909 2931 1356 
Q 2931 1769 2642 2001 
Q 2353 2234 1838 2234 
L 1294 2234 
L 1294 2753 
L 1863 2753 
Q 2328 2753 2575 2939 
Q 2822 3125 2822 3475 
Q 2822 3834 2567 4026 
Q 2313 4219 1838 4219 
Q 1578 4219 1281 4162 
Q 984 4106 628 3988 
L 628 4550 
Q 988 4650 1302 4700 
Q 1616 4750 1894 4750 
Q 2613 4750 3031 4423 
Q 3450 4097 3450 3541 
Q 3450 3153 3228 2886 
Q 3006 2619 2597 2516 
z
" transform="scale(0.015625)"/>
       </defs>
       <use xlink:href="#DejaVuSans-31"/>
       <use xlink:href="#DejaVuSans-33" x="63.623047"/>
       <use xlink:href="#DejaVuSans-35" x="127.246094"/>
       <use xlink:href="#DejaVuSans-b0" x="190.869141"/>
      </g>
     </g>
    </g>
    <g id="xtick_5">
     <g id="line2d_5">
      <path d="M 251.8225 262.917188 
L 251.8225 484.677188 
" clip-path="url(#pf97ff18477)" style="fill: none; stroke: #b0b0b0; stroke-width: 0.8; stroke-linecap: square"/>
     </g>
     <g id="text_5">
      <!-- 180° -->
      <g transform="translate(239.77875 501.436563) scale(0.1 -0.1)">
       <defs>
        <path id="DejaVuSans-38" d="M 2034 2216 
Q 1584 2216 1326 1975 
Q 1069 1734 1069 1313 
Q 1069 891 1326 650 
Q 1584 409 2034 409 
Q 2484 409 2743 651 
Q 3003 894 3003 1313 
Q 3003 1734 2745 1975 
Q 2488 2216 2034 2216 
z
M 1403 2484 
Q 997 2584 770 2862 
Q 544 3141 544 3541 
Q 544 4100 942 4425 
Q 1341 4750 2034 4750 
Q 2731 4750 3128 4425 
Q 3525 4100 3525 3541 
Q 3525 3141 3298 2862 
Q 3072 2584 2669 2484 
Q 3125 2378 3379 2068 
Q 3634 1759 3634 1313 
Q 3634 634 3220 271 
Q 2806 -91 2034 -91 
Q 1263 -91 848 271 
Q 434 634 434 1313 
Q 434 1759 690 2068 
Q 947 2378 1403 2484 
z
M 1172 3481 
Q 1172 3119 1398 2916 
Q 1625 2713 2034 2713 
Q 2441 2713 2670 2916 
Q 2900 3119 2900 3481 
Q 2900 3844 2670 4047 
Q 2441 4250 2034 4250 
Q 1625 4250 1398 4047 
Q 1172 3844 1172 3481 
z
" transform="scale(0.015625)"/>
       </defs>
       <use xlink:href="#DejaVuSans-31"/>
       <use xlink:href="#DejaVuSans-38" x="63.623047"/>
       <use xlink:href="#DejaVuSans-30" x="127.246094"/>
       <use xlink:href="#DejaVuSans-b0" x="190.869141"/>
      </g>
     </g>
    </g>
    <g id="xtick_6">
     <g id="line2d_6">
      <path d="M 251.8225 262.917188 
L 408.6305 419.725187 
" clip-path="url(#pf97ff18477)" style="fill: none; stroke: #b0b0b0; stroke-width: 0.8; stroke-linecap: square"/>
     </g>
     <g id="text_6">
      <!-- 225° -->
      <g transform="translate(406.486245 432.384057) scale(0.1 -0.1)">
       <defs>
        <path id="DejaVuSans-32" d="M 1228 531 
L 3431 531 
L 3431 0 
L 469 0 
L 469 531 
Q 828 903 1448 1529 
Q 2069 2156 2228 2338 
Q 2531 2678 2651 2914 
Q 2772 3150 2772 3378 
Q 2772 3750 2511 3984 
Q 2250 4219 1831 4219 
Q 1534 4219 1204 4116 
Q 875 4013 500 3803 
L 500 4441 
Q 881 4594 1212 4672 
Q 1544 4750 1819 4750 
Q 2544 4750 2975 4387 
Q 3406 4025 3406 3419 
Q 3406 3131 3298 2873 
Q 3191 2616 2906 2266 
Q 2828 2175 2409 1742 
Q 1991 1309 1228 531 
z
" transform="scale(0.015625)"/>
       </defs>
       <use xlink:href="#DejaVuSans-32"/>
       <use xlink:href="#DejaVuSans-32" x="63.623047"/>
       <use xlink:href="#DejaVuSans-35" x="127.246094"/>
       <use xlink:href="#DejaVuSans-b0" x="190.869141"/>
      </g>
     </g>
    </g>
    <g id="xtick_7">
     <g id="line2d_7">
      <path d="M 251.8225 262.917188 
L 473.5825 262.917188 
" clip-path="url(#pf97ff18477)" style="fill: none; stroke: #b0b0b0; stroke-width: 0.8; stroke-linecap: square"/>
     </g>
     <g id="text_7">
      <!-- 270° -->
      <g transform="translate(475.53875 265.676563) scale(0.1 -0.1)">
       <defs>
        <path id="DejaVuSans-37" d="M 525 4666 
L 3525 4666 
L 3525 4397 
L 1831 0 
L 1172 0 
L 2766 4134 
L 525 4134 
L 525 4666 
z
" transform="scale(0.015625)"/>
       </defs>
       <use xlink:href="#DejaVuSans-32"/>
       <use xlink:href="#DejaVuSans-37" x="63.623047"/>
       <use xlink:href="#DejaVuSans-30" x="127.246094"/>
       <use xlink:href="#DejaVuSans-b0" x="190.869141"/>
      </g>
     </g>
    </g>
    <g id="xtick_8">
     <g id="line2d_8">
      <path d="M 251.8225 262.917188 
L 408.6305 106.109188 
" clip-path="url(#pf97ff18477)" style="fill: none; stroke: #b0b0b0; stroke-width: 0.8; stroke-linecap: square"/>
     </g>
     <g id="text_8">
      <!-- 315° -->
      <g transform="translate(406.486245 98.969068) scale(0.1 -0.1)">
       <use xlink:href="#DejaVuSans-33"/>
       <use xlink:href="#DejaVuSans-31" x="63.623047"/>
       <use xlink:href="#DejaVuSans-35" x="127.246094"/>
       <use xlink:href="#DejaVuSans-b0" x="190.869141"/>
      </g>
     </g>
    </g>
   </g>
   <g id="matplotlib.axis_2">
    <g id="ytick_1">
     <g id="line2d_9">
      <path d="M 251.8225 235.197188 
C 248.182343 235.197188 244.577582 235.914219 241.214515 237.307247 
C 237.851449 238.700275 234.79548 240.742208 232.2215 243.316188 
C 229.64752 245.890167 227.605587 248.946136 226.212559 252.309203 
C 224.819532 255.672269 224.1025 259.27703 224.1025 262.917188 
C 224.1025 266.557345 224.819532 270.162106 226.212559 273.525172 
C 227.605587 276.888239 229.64752 279.944208 232.2215 282.518187 
C 234.79548 285.092167 237.851449 287.1341 241.214515 288.527128 
C 244.577582 289.920156 248.182343 290.637188 251.8225 290.637188 
C 255.462657 290.637188 259.067418 289.920156 262.430485 288.527128 
C 265.793551 287.1341 268.84952 285.092167 271.4235 282.518187 
C 273.99748 279.944208 276.039413 276.888239 277.432441 273.525172 
C 278.825468 270.162106 279.5425 266.557345 279.5425 262.917188 
C 279.5425 259.27703 278.825468 255.672269 277.432441 252.309203 
C 276.039413 248.946136 273.99748 245.890167 271.4235 243.316188 
C 268.84952 240.742208 265.793551 238.700275 262.430485 237.307247 
C 259.067418 235.914219 255.462657 235.197188 251.8225 235.197188 
" clip-path="url(#pf97ff18477)" style="fill: none; stroke: #b0b0b0; stroke-width: 0.8; stroke-linecap: square"/>
     </g>
     <g id="text_9">
      <!-- −35 -->
      <g transform="translate(241.214515 235.227559) scale(0.1 -0.1)">
       <defs>
        <path id="DejaVuSans-2212" d="M 678 2272 
L 4684 2272 
L 4684 1741 
L 678 1741 
L 678 2272 
z
" transform="scale(0.015625)"/>
       </defs>
       <use xlink:href="#DejaVuSans-2212"/>
       <use xlink:href="#DejaVuSans-33" x="83.789062"/>
       <use xlink:href="#DejaVuSans-35" x="147.412109"/>
      </g>
     </g>
    </g>
    <g id="ytick_2">
     <g id="line2d_10">
      <path d="M 251.8225 207.477188 
C 244.542186 207.477188 237.332664 208.911251 230.606531 211.697306 
C 223.880397 214.483362 217.76846 218.567228 212.6205 223.715188 
C 207.472541 228.863147 203.388674 234.975085 200.602619 241.701218 
C 197.816563 248.427351 196.3825 255.636873 196.3825 262.917188 
C 196.3825 270.197502 197.816563 277.407024 200.602619 284.133157 
C 203.388674 290.85929 207.472541 296.971228 212.6205 302.119187 
C 217.76846 307.267147 223.880397 311.351013 230.606531 314.137069 
C 237.332664 316.923124 244.542186 318.357188 251.8225 318.357188 
C 259.102814 318.357188 266.312336 316.923124 273.038469 314.137069 
C 279.764603 311.351013 285.87654 307.267147 291.0245 302.119187 
C 296.172459 296.971228 300.256326 290.85929 303.042381 284.133157 
C 305.828437 277.407024 307.2625 270.197502 307.2625 262.917188 
C 307.2625 255.636873 305.828437 248.427351 303.042381 241.701218 
C 300.256326 234.975085 296.172459 228.863147 291.0245 223.715188 
C 285.87654 218.567228 279.764603 214.483362 273.038469 211.697306 
C 266.312336 208.911251 259.102814 207.477188 251.8225 207.477188 
" clip-path="url(#pf97ff18477)" style="fill: none; stroke: #b0b0b0; stroke-width: 0.8; stroke-linecap: square"/>
     </g>
     <g id="text_10">
      <!-- −30 -->
      <g transform="translate(230.606531 209.617619) scale(0.1 -0.1)">
       <use xlink:href="#DejaVuSans-2212"/>
       <use xlink:href="#DejaVuSans-33" x="83.789062"/>
       <use xlink:href="#DejaVuSans-30" x="147.412109"/>
      </g>
     </g>
    </g>
    <g id="ytick_3">
     <g id="line2d_11">
      <path d="M 251.8225 179.757188 
C 240.902029 179.757188 230.087746 181.908282 219.998546 186.087366 
C 209.909346 190.266449 200.741439 196.392248 193.0195 204.114188 
C 185.297561 211.836127 179.171761 221.004033 174.992678 231.093233 
C 170.813595 241.182433 168.6625 251.996716 168.6625 262.917188 
C 168.6625 273.837659 170.813595 284.651942 174.992678 294.741142 
C 179.171761 304.830342 185.297561 313.998248 193.0195 321.720187 
C 200.741439 329.442127 209.909346 335.567926 219.998546 339.747009 
C 230.087746 343.926093 240.902029 346.077188 251.8225 346.077188 
C 262.742971 346.077188 273.557254 343.926093 283.646454 339.747009 
C 293.735654 335.567926 302.903561 329.442127 310.6255 321.720187 
C 318.347439 313.998248 324.473239 304.830342 328.652322 294.741142 
C 332.831405 284.651942 334.9825 273.837659 334.9825 262.917188 
C 334.9825 251.996716 332.831405 241.182433 328.652322 231.093233 
C 324.473239 221.004033 318.347439 211.836127 310.6255 204.114188 
C 302.903561 196.392248 293.735654 190.266449 283.646454 186.087366 
C 273.557254 181.908282 262.742971 179.757188 251.8225 179.757188 
" clip-path="url(#pf97ff18477)" style="fill: none; stroke: #b0b0b0; stroke-width: 0.8; stroke-linecap: square"/>
     </g>
     <g id="text_11">
      <!-- −25 -->
      <g transform="translate(219.998546 184.007678) scale(0.1 -0.1)">
       <use xlink:href="#DejaVuSans-2212"/>
       <use xlink:href="#DejaVuSans-32" x="83.789062"/>
       <use xlink:href="#DejaVuSans-35" x="147.412109"/>
      </g>
     </g>
    </g>
    <g id="ytick_4">
     <g id="line2d_12">
      <path d="M 251.8225 152.037188 
C 237.261872 152.037188 222.842827 154.905314 209.390561 160.477425 
C 195.938295 166.049536 183.714419 174.217269 173.4185 184.513188 
C 163.122581 194.809107 154.954849 207.032982 149.382737 220.485249 
C 143.810626 233.937515 140.9425 248.356559 140.9425 262.917188 
C 140.9425 277.477816 143.810626 291.89686 149.382737 305.349126 
C 154.954849 318.801393 163.122581 331.025268 173.4185 341.321187 
C 183.714419 351.617106 195.938295 359.784839 209.390561 365.35695 
C 222.842827 370.929061 237.261872 373.797188 251.8225 373.797188 
C 266.383128 373.797188 280.802173 370.929061 294.254439 365.35695 
C 307.706705 359.784839 319.930581 351.617106 330.2265 341.321187 
C 340.522419 331.025268 348.690151 318.801393 354.262263 305.349126 
C 359.834374 291.89686 362.7025 277.477816 362.7025 262.917188 
C 362.7025 248.356559 359.834374 233.937515 354.262263 220.485249 
C 348.690151 207.032982 340.522419 194.809107 330.2265 184.513188 
C 319.930581 174.217269 307.706705 166.049536 294.254439 160.477425 
C 280.802173 154.905314 266.383128 152.037188 251.8225 152.037188 
" clip-path="url(#pf97ff18477)" style="fill: none; stroke: #b0b0b0; stroke-width: 0.8; stroke-linecap: square"/>
     </g>
     <g id="text_12">
      <!-- −20 -->
      <g transform="translate(209.390561 158.397737) scale(0.1 -0.1)">
       <use xlink:href="#DejaVuSans-2212"/>
       <use xlink:href="#DejaVuSans-32" x="83.789062"/>
       <use xlink:href="#DejaVuSans-30" x="147.412109"/>
      </g>
     </g>
    </g>
    <g id="ytick_5">
     <g id="line2d_13">
      <path d="M 251.8225 124.317188 
C 233.621715 124.317188 215.597909 127.902345 198.782576 134.867484 
C 181.967243 141.832623 166.687399 152.042289 153.8175 164.912188 
C 140.947601 177.782086 130.737936 193.061931 123.772797 209.877264 
C 116.807658 226.692597 113.2225 244.716402 113.2225 262.917188 
C 113.2225 281.117973 116.807658 299.141778 123.772797 315.957111 
C 130.737936 332.772444 140.947601 348.052289 153.8175 360.922187 
C 166.687399 373.792086 181.967243 384.001752 198.782576 390.966891 
C 215.597909 397.93203 233.621715 401.517188 251.8225 401.517188 
C 270.023285 401.517188 288.047091 397.93203 304.862424 390.966891 
C 321.677757 384.001752 336.957601 373.792086 349.8275 360.922187 
C 362.697399 348.052289 372.907064 332.772444 379.872203 315.957111 
C 386.837342 299.141778 390.4225 281.117973 390.4225 262.917188 
C 390.4225 244.716402 386.837342 226.692597 379.872203 209.877264 
C 372.907064 193.061931 362.697399 177.782086 349.8275 164.912188 
C 336.957601 152.042289 321.677757 141.832623 304.862424 134.867484 
C 288.047091 127.902345 270.023285 124.317188 251.8225 124.317188 
" clip-path="url(#pf97ff18477)" style="fill: none; stroke: #b0b0b0; stroke-width: 0.8; stroke-linecap: square"/>
     </g>
     <g id="text_13">
      <!-- −15 -->
      <g transform="translate(198.782576 132.787797) scale(0.1 -0.1)">
       <use xlink:href="#DejaVuSans-2212"/>
       <use xlink:href="#DejaVuSans-31" x="83.789062"/>
       <use xlink:href="#DejaVuSans-35" x="147.412109"/>
      </g>
     </g>
    </g>
    <g id="ytick_6">
     <g id="line2d_14">
      <path d="M 251.8225 96.597188 
C 229.981558 96.597188 208.352991 100.899377 188.174592 109.257544 
C 167.996192 117.61571 149.660379 129.867309 134.2165 145.311188 
C 118.772622 160.755066 106.521023 179.090879 98.162856 199.269279 
C 89.804689 219.447679 85.5025 241.076245 85.5025 262.917188 
C 85.5025 284.75813 89.804689 306.386696 98.162856 326.565096 
C 106.521023 346.743496 118.772622 365.079309 134.2165 380.523187 
C 149.660379 395.967066 167.996192 408.218665 188.174592 416.576831 
C 208.352991 424.934998 229.981558 429.237188 251.8225 429.237188 
C 273.663442 429.237188 295.292009 424.934998 315.470408 416.576831 
C 335.648808 408.218665 353.984621 395.967066 369.4285 380.523187 
C 384.872378 365.079309 397.123977 346.743496 405.482144 326.565096 
C 413.840311 306.386696 418.1425 284.75813 418.1425 262.917188 
C 418.1425 241.076245 413.840311 219.447679 405.482144 199.269279 
C 397.123977 179.090879 384.872378 160.755066 369.4285 145.311188 
C 353.984621 129.867309 335.648808 117.61571 315.470408 109.257544 
C 295.292009 100.899377 273.663442 96.597188 251.8225 96.597188 
" clip-path="url(#pf97ff18477)" style="fill: none; stroke: #b0b0b0; stroke-width: 0.8; stroke-linecap: square"/>
     </g>
     <g id="text_14">
      <!-- −10 -->
      <g transform="translate(188.174592 107.177856) scale(0.1 -0.1)">
       <use xlink:href="#DejaVuSans-2212"/>
       <use xlink:href="#DejaVuSans-31" x="83.789062"/>
       <use xlink:href="#DejaVuSans-30" x="147.412109"/>
      </g>
     </g>
    </g>
    <g id="ytick_7">
     <g id="line2d_15">
      <path d="M 251.8225 68.877188 
C 226.341401 68.877188 201.108073 73.896408 177.566607 83.647603 
C 154.025141 93.398798 132.633358 107.69233 114.6155 125.710188 
C 96.597642 143.728046 82.30411 165.119828 72.552916 188.661294 
C 62.801721 212.20276 57.7825 237.436088 57.7825 262.917188 
C 57.7825 288.398287 62.801721 313.631615 72.552916 337.173081 
C 82.30411 360.714547 96.597642 382.106329 114.6155 400.124187 
C 132.633358 418.142045 154.025141 432.435577 177.566607 442.186772 
C 201.108073 451.937967 226.341401 456.957188 251.8225 456.957188 
C 277.303599 456.957188 302.536927 451.937967 326.078393 442.186772 
C 349.619859 432.435577 371.011642 418.142045 389.0295 400.124187 
C 407.047358 382.106329 421.34089 360.714547 431.092084 337.173081 
C 440.843279 313.631615 445.8625 288.398287 445.8625 262.917188 
C 445.8625 237.436088 440.843279 212.20276 431.092084 188.661294 
C 421.34089 165.119828 407.047358 143.728046 389.0295 125.710188 
C 371.011642 107.69233 349.619859 93.398798 326.078393 83.647603 
C 302.536927 73.896408 277.303599 68.877188 251.8225 68.877188 
" clip-path="url(#pf97ff18477)" style="fill: none; stroke: #b0b0b0; stroke-width: 0.8; stroke-linecap: square"/>
     </g>
     <g id="text_15">
      <!-- −5 -->
      <g transform="translate(177.566607 81.567916) scale(0.1 -0.1)">
       <use xlink:href="#DejaVuSans-2212"/>
       <use xlink:href="#DejaVuSans-35" x="83.789062"/>
      </g>
     </g>
    </g>
    <g id="ytick_8">
     <g id="line2d_16">
      <path d="M 251.8225 41.157188 
C 222.701244 41.157188 193.863155 46.89344 166.958622 58.037662 
C 140.054089 69.181885 115.606338 85.51735 95.0145 106.109188 
C 74.422662 126.701026 58.087197 151.148777 46.942975 178.05331 
C 35.798753 204.957842 30.0625 233.795931 30.0625 262.917188 
C 30.0625 292.038444 35.798753 320.876533 46.942975 347.781065 
C 58.087197 374.685598 74.422662 399.133349 95.0145 419.725187 
C 115.606338 440.317025 140.054089 456.65249 166.958622 467.796713 
C 193.863155 478.940935 222.701244 484.677188 251.8225 484.677188 
C 280.943756 484.677188 309.781845 478.940935 336.686378 467.796713 
C 363.590911 456.65249 388.038662 440.317025 408.6305 419.725187 
C 429.222338 399.133349 445.557803 374.685598 456.702025 347.781065 
C 467.846247 320.876533 473.5825 292.038444 473.5825 262.917188 
C 473.5825 233.795931 467.846247 204.957842 456.702025 178.05331 
C 445.557803 151.148777 429.222338 126.701026 408.6305 106.109188 
C 388.038662 85.51735 363.590911 69.181885 336.686378 58.037662 
C 309.781845 46.89344 280.943756 41.157188 251.8225 41.157188 
" clip-path="url(#pf97ff18477)" style="fill: none; stroke: #b0b0b0; stroke-width: 0.8; stroke-linecap: square"/>
     </g>
     <g id="text_16">
      <!-- 0 -->
      <g transform="translate(166.958622 55.957975) scale(0.1 -0.1)">
       <use xlink:href="#DejaVuSans-30"/>
      </g>
     </g>
    </g>
   </g>
   <g id="line2d_17">
    <path d="M 251.8225 436.998788 
L 254.888218 438.552073 
L 264.329345 441.773399 
L 273.922803 442.909715 
L 277.114751 442.880901 
L 280.296796 442.69682 
L 283.441599 442.238011 
L 286.531455 441.479279 
L 289.551446 440.417923 
L 292.500095 439.111209 
L 295.350291 437.497623 
L 298.001655 435.260138 
L 303.351189 431.459933 
L 305.895923 429.338071 
L 311.174194 425.984627 
L 313.800474 424.375329 
L 316.658711 423.392441 
L 319.752785 422.950911 
L 329.673249 422.534878 
L 332.834711 421.912604 
L 335.849692 420.949352 
L 338.715886 419.677006 
L 344.273705 416.781831 
L 350.130691 414.298527 
L 353.120406 413.09751 
L 356.365148 412.219561 
L 362.566363 409.879257 
L 365.834529 408.84593 
L 368.758224 407.32078 
L 371.620529 405.686919 
L 374.421306 403.95098 
L 377.086592 402.037056 
L 379.540862 399.878363 
L 381.715302 397.425121 
L 383.713709 394.808396 
L 385.393249 391.90496 
L 388.940051 386.378385 
L 390.588505 383.544636 
L 396.195974 375.714107 
L 398.142563 373.177263 
L 405.630925 362.801547 
L 407.538785 360.219521 
L 411.118201 354.886604 
L 412.73297 352.111317 
L 414.191688 349.250416 
L 415.298261 346.212248 
L 416.909784 339.898652 
L 417.422866 336.647221 
L 417.76582 333.355948 
L 418.286211 330.172893 
L 418.425357 326.870032 
L 418.302864 313.815343 
L 418.558271 310.7279 
L 418.527612 304.48144 
L 418.13103 301.312537 
L 416.818143 297.988094 
L 414.972448 294.630325 
L 412.820321 291.305447 
L 409.617019 287.909384 
L 405.955546 284.579174 
L 401.913487 281.346043 
L 396.996362 278.175575 
L 390.773227 275.073801 
L 383.558893 272.129093 
L 375.223367 269.384353 
L 362.751308 266.790907 
L 351.699078 264.66054 
L 330.098236 262.917188 
L 300.763021 262.062928 
L 264.333226 262.480303 
L 306.477862 260.052821 
L 332.661747 257.264357 
L 353.709022 254.003272 
L 364.372217 251.087736 
L 373.987407 247.917223 
L 382.952253 244.488103 
L 394.016859 237.844486 
L 399.054185 234.298247 
L 405.27449 227.490004 
L 407.704421 224.05146 
L 409.310424 220.718426 
L 411.198597 217.216827 
L 412.402012 213.823104 
L 414.081975 207.04677 
L 414.26478 203.793033 
L 414.331323 200.535895 
L 414.179106 197.320861 
L 413.591338 194.25039 
L 412.000779 188.224829 
L 407.753158 176.483412 
L 405.235691 170.737243 
L 403.86215 167.91227 
L 400.75266 162.462526 
L 399.058546 159.821398 
L 393.631528 152.123832 
L 391.762489 149.596018 
L 385.734695 142.342106 
L 381.800043 137.399333 
L 380.048322 134.691366 
L 376.145525 129.597065 
L 374.111445 127.101555 
L 371.846174 124.845744 
L 362.296109 116.313756 
L 359.935774 114.112032 
L 357.459036 112.052579 
L 354.847198 110.176791 
L 352.10845 108.490367 
L 349.30992 106.904703 
L 346.42951 105.464681 
L 338.06203 100.724221 
L 332.366055 97.778428 
L 329.478748 96.382827 
L 326.528926 95.123808 
L 323.489503 94.080308 
L 317.249544 92.473909 
L 314.014641 92.045684 
L 310.604302 92.20244 
L 307.317871 92.119999 
L 303.950925 92.412793 
L 300.667759 92.573525 
L 294.403393 92.134552 
L 291.311581 91.871184 
L 288.261617 91.484621 
L 282.137133 90.994358 
L 279.124244 90.540761 
L 276.182687 89.58545 
L 267.183639 87.338565 
L 264.115483 87.11934 
L 261.024915 87.324657 
L 257.930172 88.016349 
L 254.865964 88.557227 
L 251.8225 89.750348 
L 248.829446 91.445211 
L 245.881223 92.781285 
L 240.168395 96.255718 
L 237.359614 97.605643 
L 231.903174 100.687298 
L 226.450438 102.724292 
L 223.618117 102.962183 
L 220.711276 102.863818 
L 211.407669 100.822153 
L 208.075489 99.651119 
L 201.430068 98.090971 
L 197.795333 96.638666 
L 190.614466 94.749495 
L 186.759038 93.421075 
L 183.071485 92.752455 
L 179.217526 91.870588 
L 175.37751 91.218928 
L 167.808435 90.662827 
L 164.062417 90.678327 
L 160.374867 90.929203 
L 156.535163 91.01428 
L 148.843542 91.53142 
L 144.754678 91.572855 
L 136.97067 92.642348 
L 132.782653 92.910667 
L 128.97021 93.825516 
L 120.757988 95.162262 
L 113.372513 97.918918 
L 109.75381 99.485854 
L 106.559631 101.586427 
L 103.448541 103.805596 
L 100.467039 106.184019 
L 95.069392 111.54247 
L 92.475741 114.32393 
L 87.022963 119.659135 
L 78.64161 127.613447 
L 75.9524 130.389561 
L 68.250899 139.096579 
L 65.917958 142.189366 
L 63.759354 145.402291 
L 61.775096 148.725187 
L 60.079986 152.214595 
L 56.994159 159.325121 
L 55.695056 162.985264 
L 53.507732 170.441492 
L 52.997728 174.394696 
L 52.322034 182.313767 
L 52.798016 190.478199 
L 53.010873 194.460855 
L 53.987124 198.636577 
L 54.581362 202.61452 
L 55.360258 206.582546 
L 57.175588 210.761705 
L 58.425205 214.697826 
L 60.335678 218.708971 
L 63.486909 222.885222 
L 65.69039 226.73677 
L 69.362307 230.744532 
L 74.255068 234.793269 
L 78.424882 238.547741 
L 85.069411 242.442483 
L 92.495152 246.171208 
L 99.754878 249.612994 
L 111.690815 253.118226 
L 125.786305 256.31191 
L 143.154266 259.122409 
L 182.66609 261.710058 
L 231.952804 262.917188 
L 174.578626 264.265484 
L 138.910149 266.860174 
L 123.416725 269.646649 
L 110.822528 272.776866 
L 98.35206 276.344111 
L 91.342803 279.784283 
L 84.73925 283.432431 
L 78.309591 287.302837 
L 70.530698 294.883824 
L 66.827797 298.876515 
L 64.598593 302.712857 
L 61.961652 306.750018 
L 59.748518 310.80661 
L 58.326933 314.764169 
L 56.569994 318.904943 
L 55.419039 322.963751 
L 54.799114 326.933966 
L 53.964909 331.04502 
L 53.694077 335.030036 
L 53.76649 338.943767 
L 53.627672 342.993096 
L 54.034719 346.873119 
L 54.658949 350.700056 
L 55.11057 354.645467 
L 56.994208 362.187161 
L 58.041702 365.952265 
L 59.428177 369.563102 
L 60.939409 373.123592 
L 62.559199 376.638052 
L 64.450486 380.000216 
L 66.466609 383.28871 
L 70.834925 389.646052 
L 75.522919 395.768451 
L 77.960088 398.753391 
L 80.585587 401.582106 
L 83.303508 404.321411 
L 86.110827 406.968147 
L 95.081356 414.280351 
L 98.287867 416.45182 
L 104.405134 421.002959 
L 110.710391 425.2481 
L 114.0496 427.108537 
L 120.89793 430.492995 
L 124.519774 431.853611 
L 131.803241 434.322453 
L 135.6624 435.131617 
L 143.323934 436.551188 
L 155.411669 436.846931 
L 159.700754 436.172993 
L 163.697463 435.87231 
L 167.682058 435.43066 
L 172.022411 434.04903 
L 175.995365 433.22772 
L 180.066682 431.963301 
L 184.236581 430.198208 
L 187.945153 429.323365 
L 195.379913 426.838362 
L 198.775278 426.179749 
L 202.151373 425.384124 
L 205.408501 424.782037 
L 208.518871 424.528533 
L 211.626287 424.135393 
L 214.636865 423.985868 
L 217.560762 424.10599 
L 220.426716 424.434493 
L 223.243625 424.996044 
L 226.028076 425.77677 
L 228.772448 426.926827 
L 231.567379 427.881907 
L 234.36199 429.042841 
L 237.15619 430.553875 
L 240.011769 431.818508 
L 242.911687 432.945634 
L 245.832853 434.438246 
L 248.807482 435.64746 
L 248.807482 435.64746 
" clip-path="url(#pf97ff18477)" style="fill: none; stroke: #ff0000; stroke-width: 1.5; stroke-linecap: square"/>
   </g>
   <g id="line2d_18">
    <path d="M 251.8225 100.361564 
L 243.410165 102.40028 
L 237.914318 103.945936 
L 232.519361 105.705738 
L 216.806869 111.247827 
L 214.157159 111.849758 
L 211.446052 112.230232 
L 208.646616 112.344986 
L 205.733581 112.167127 
L 202.684778 111.68683 
L 199.486174 110.921461 
L 196.134187 109.914804 
L 188.975882 107.366349 
L 181.303513 104.528949 
L 173.259664 101.839503 
L 169.146602 100.656602 
L 164.992146 99.613042 
L 160.814116 98.733716 
L 156.62509 98.030437 
L 152.436741 97.511507 
L 148.260148 97.182779 
L 144.105613 97.047727 
L 139.977831 97.100646 
L 135.889423 97.347594 
L 131.847625 97.785939 
L 127.8529 98.403971 
L 123.918636 99.207708 
L 120.044774 100.185248 
L 116.241222 101.337713 
L 112.507163 102.653226 
L 108.8522 104.132584 
L 105.278544 105.768035 
L 101.791847 107.555898 
L 98.397633 109.49232 
L 95.09332 111.565577 
L 91.891875 113.779467 
L 88.786061 116.118519 
L 85.78865 118.586164 
L 82.900048 121.17442 
L 80.124578 123.878951 
L 77.466421 126.695289 
L 74.925188 129.615502 
L 72.50908 132.638362 
L 70.221839 135.759036 
L 68.062455 138.969472 
L 66.038847 142.267873 
L 64.149585 145.646135 
L 62.407131 149.104951 
L 60.814577 152.638711 
L 59.36999 156.239019 
L 58.080863 159.902932 
L 56.95963 163.629596 
L 55.998955 167.407663 
L 55.216086 171.238111 
L 54.613366 175.114024 
L 54.198024 179.030575 
L 53.982353 182.98458 
L 53.968345 186.968093 
L 54.168156 190.976889 
L 54.599186 195.007754 
L 55.263108 199.051169 
L 56.187793 203.105655 
L 57.385367 207.163237 
L 58.878507 211.218 
L 60.692588 215.263148 
L 62.856748 219.291006 
L 65.40931 223.293841 
L 68.398944 227.26326 
L 71.884722 231.189302 
L 75.952549 235.062124 
L 80.703251 238.867945 
L 86.285502 242.5918 
L 92.925215 246.21641 
L 100.958871 249.71833 
L 110.933137 253.065244 
L 123.854101 256.210648 
L 141.985195 259.081584 
L 171.75716 261.519642 
M 187.333427 264.042848 
L 149.68666 266.48385 
L 129.002955 269.353887 
L 114.732588 272.503448 
L 103.968853 275.852705 
L 95.406348 279.357188 
L 88.382021 282.985155 
L 82.498496 286.714124 
L 77.518612 290.524211 
L 73.266045 294.401508 
L 69.619616 298.33384 
L 66.497676 302.309195 
L 63.829632 306.318761 
L 61.565114 310.353682 
L 59.660351 314.40688 
L 58.088826 318.469425 
L 56.818702 322.535832 
L 55.832555 326.598181 
L 55.102413 330.653345 
L 54.621396 334.69252 
L 54.366879 338.713299 
L 54.331894 342.708572 
L 54.509324 346.671661 
L 54.881795 350.600839 
L 55.447216 354.488486 
L 56.193289 358.331929 
L 57.117701 362.124237 
L 58.213029 365.861169 
L 59.466968 369.5416 
L 60.881794 373.156856 
L 62.4499 376.703725 
L 64.168392 380.176489 
L 66.029548 383.572541 
L 68.030282 386.886604 
L 70.167343 390.113498 
L 72.432832 393.25141 
L 74.832208 396.288939 
L 77.352834 399.22783 
L 79.995323 402.060092 
L 82.751405 404.784681 
L 85.62547 407.390061 
L 88.604782 409.879081 
L 91.693198 412.240177 
L 94.885943 414.469059 
L 98.174181 416.565506 
L 101.556924 418.521746 
L 105.032779 420.329891 
L 108.596234 421.986071 
L 112.238011 423.490774 
L 115.96326 424.827924 
L 119.75868 426.002424 
L 123.625099 427.002378 
L 127.552618 427.828891 
L 131.541309 428.470044 
L 135.580972 428.927294 
L 139.664714 429.197943 
L 143.791587 429.270205 
L 147.946677 429.153254 
L 152.125505 428.84085 
L 156.318507 428.334956 
L 160.514696 427.640826 
L 164.70324 426.764685 
L 168.869741 425.721144 
L 173.002049 424.523061 
L 177.080939 423.200982 
L 185.014313 420.307412 
L 196.065925 416.107119 
L 199.460905 414.986302 
L 202.696771 414.110636 
L 205.778967 413.518799 
L 208.719966 413.233585 
L 211.53932 413.256062 
L 214.261774 413.56503 
L 216.916616 414.11118 
L 219.527204 414.854607 
L 224.7079 416.691727 
L 232.573413 419.688423 
L 237.946208 421.523928 
L 243.424963 423.151738 
L 251.8225 425.300948 
L 278.539702 431.602962 
L 284.859002 432.875254 
L 291.295369 433.892966 
L 297.806509 434.531846 
L 301.074243 434.678426 
L 304.341564 434.699305 
L 307.600547 434.584365 
L 310.842555 434.323873 
L 314.062045 433.918932 
L 317.249544 433.360466 
L 320.399062 432.650134 
L 323.502501 431.784687 
L 326.55373 430.766278 
L 329.546694 429.59726 
L 332.472989 428.275195 
L 335.328982 426.807887 
L 338.108879 425.198265 
L 340.806983 423.449444 
L 343.42324 421.574323 
L 345.949808 419.571335 
L 348.390366 417.458078 
L 350.737606 415.233094 
L 352.9964 412.913662 
L 355.169502 410.512003 
L 359.266602 405.500326 
L 363.088676 400.319472 
L 373.858326 384.953013 
L 377.617238 380.222679 
L 381.596853 375.728312 
L 385.799529 371.409647 
L 396.712614 360.646803 
L 400.895454 356.068308 
L 402.878632 353.680868 
L 404.766154 351.219248 
L 406.540935 348.679016 
L 408.195238 346.062047 
L 409.706475 343.363091 
L 411.071455 340.588092 
L 412.272106 337.736067 
L 413.295138 334.809438 
L 414.127182 331.811438 
L 414.75996 328.748195 
L 415.180149 325.624314 
L 415.374437 322.445224 
L 415.324318 319.215378 
L 415.016517 315.942138 
L 414.437885 312.6337 
L 413.559448 309.294511 
L 412.368182 305.935273 
L 410.824426 302.56082 
L 408.904572 299.182441 
L 406.563533 295.808409 
L 403.750753 292.449048 
L 400.404795 289.116255 
L 396.436903 285.821859 
L 391.730837 282.580022 
L 386.109802 279.405595 
L 379.374802 276.323475 
L 371.139305 273.356055 
L 360.74007 270.533446 
L 347.070762 267.908937 
L 327.418757 265.557067 
L 293.307477 263.64131 
M 298.628906 262.100179 
L 330.078256 260.184436 
L 348.787047 257.835491 
L 362.012084 255.211981 
L 372.133428 252.391345 
L 380.14671 249.42977 
L 386.715096 246.354459 
L 392.224941 243.184911 
L 396.831157 239.950073 
L 400.710542 236.664209 
L 403.984765 233.339839 
L 406.731642 229.990233 
L 409.01261 226.626991 
L 410.878219 223.260143 
L 412.368182 219.899102 
L 413.511485 216.553617 
L 414.342454 213.229851 
L 414.879428 209.93678 
L 415.146091 206.680365 
L 415.150422 203.470686 
L 414.916185 200.311388 
L 414.456682 197.208713 
L 413.785263 194.168074 
L 412.910222 191.196313 
L 411.845017 188.297462 
L 410.608044 185.472303 
L 409.202622 182.72801 
L 407.651886 180.061233 
L 405.959068 177.477893 
L 404.141993 174.975488 
L 402.213333 172.553259 
L 398.089291 167.930423 
L 393.726968 163.55461 
L 382.730499 153.072334 
L 378.631823 148.73756 
L 374.79708 144.162016 
L 371.19001 139.308512 
L 365.979385 131.594714 
L 360.605465 123.681342 
L 356.742266 118.507518 
L 354.695696 115.999038 
L 352.562377 113.564179 
L 350.339035 111.215027 
L 348.023132 108.963995 
L 345.618585 106.814288 
L 343.11832 104.788189 
L 340.532829 102.879518 
L 337.859015 101.106036 
L 335.104976 99.466125 
L 332.271272 97.972762 
L 329.363941 96.629031 
L 326.391374 95.432755 
L 323.359531 94.386505 
L 320.272376 93.4978 
L 317.138284 92.763753 
L 313.965341 92.181135 
L 310.757722 91.756873 
L 307.528593 91.471462 
L 304.279969 91.336537 
L 301.023814 91.331813 
L 297.763462 91.463182 
L 291.266685 92.065653 
L 284.843134 93.040753 
L 278.531897 94.280695 
L 269.32937 96.350444 
L 254.671194 99.7156 
L 254.671194 99.7156 
" clip-path="url(#pf97ff18477)" style="fill: none; stroke-dasharray: 5.55,2.4; stroke-dashoffset: 0; stroke: #0000ff; stroke-width: 1.5"/>
   </g>
   <g id="patch_3">
    <path d="M 251.8225 41.157188 
C 222.701244 41.157188 193.863155 46.89344 166.958622 58.037662 
C 140.054089 69.181885 115.606338 85.51735 95.0145 106.109188 
C 74.422662 126.701026 58.087197 151.148777 46.942975 178.05331 
C 35.798753 204.957842 30.0625 233.795931 30.0625 262.917188 
C 30.0625 292.038444 35.798753 320.876533 46.942975 347.781065 
C 58.087197 374.685598 74.422662 399.133349 95.0145 419.725187 
C 115.606338 440.317025 140.054089 456.65249 166.958622 467.796713 
C 193.863155 478.940935 222.701244 484.677188 251.8225 484.677188 
C 280.943756 484.677188 309.781845 478.940935 336.686378 467.796713 
C 363.590911 456.65249 388.038662 440.317025 408.6305 419.725187 
C 429.222338 399.133349 445.557803 374.685598 456.702025 347.781065 
C 467.846247 320.876533 473.5825 292.038444 473.5825 262.917188 
C 473.5825 233.795931 467.846247 204.957842 456.702025 178.05331 
C 445.557803 151.148777 429.222338 126.701026 408.6305 106.109188 
C 388.038662 85.51735 363.590911 69.181885 336.686378 58.037662 
C 309.781845 46.89344 280.943756 41.157188 251.8225 41.157188 
" style="fill: none; stroke: #000000; stroke-width: 0.8; stroke-linejoin: miter; stroke-linecap: square"/>
   </g>
   <g id="text_17">
    <g id="patch_4">
     <path d="M 384.8785 509.853188 
L 466.473813 509.853188 
Q 469.473813 509.853188 469.473813 506.853188 
L 469.473813 485.421 
Q 469.473813 482.421 466.473813 482.421 
L 384.8785 482.421 
Q 381.8785 482.421 381.8785 485.421 
L 381.8785 506.853188 
Q 381.8785 509.853188 384.8785 509.853188 
z
" style="fill: #ffffff; stroke: #808080; stroke-linejoin: miter"/>
    </g>
    <!-- G_simul: 5.3 dBi -->
    <g transform="translate(384.8785 493.019438) scale(0.1 -0.1)">
     <defs>
      <path id="DejaVuSans-47" d="M 3809 666 
L 3809 1919 
L 2778 1919 
L 2778 2438 
L 4434 2438 
L 4434 434 
Q 4069 175 3628 42 
Q 3188 -91 2688 -91 
Q 1594 -91 976 548 
Q 359 1188 359 2328 
Q 359 3472 976 4111 
Q 1594 4750 2688 4750 
Q 3144 4750 3555 4637 
Q 3966 4525 4313 4306 
L 4313 3634 
Q 3963 3931 3569 4081 
Q 3175 4231 2741 4231 
Q 1884 4231 1454 3753 
Q 1025 3275 1025 2328 
Q 1025 1384 1454 906 
Q 1884 428 2741 428 
Q 3075 428 3337 486 
Q 3600 544 3809 666 
z
" transform="scale(0.015625)"/>
      <path id="DejaVuSans-5f" d="M 3263 -1063 
L 3263 -1509 
L -63 -1509 
L -63 -1063 
L 3263 -1063 
z
" transform="scale(0.015625)"/>
      <path id="DejaVuSans-73" d="M 2834 3397 
L 2834 2853 
Q 2591 2978 2328 3040 
Q 2066 3103 1784 3103 
Q 1356 3103 1142 2972 
Q 928 2841 928 2578 
Q 928 2378 1081 2264 
Q 1234 2150 1697 2047 
L 1894 2003 
Q 2506 1872 2764 1633 
Q 3022 1394 3022 966 
Q 3022 478 2636 193 
Q 2250 -91 1575 -91 
Q 1294 -91 989 -36 
Q 684 19 347 128 
L 347 722 
Q 666 556 975 473 
Q 1284 391 1588 391 
Q 1994 391 2212 530 
Q 2431 669 2431 922 
Q 2431 1156 2273 1281 
Q 2116 1406 1581 1522 
L 1381 1569 
Q 847 1681 609 1914 
Q 372 2147 372 2553 
Q 372 3047 722 3315 
Q 1072 3584 1716 3584 
Q 2034 3584 2315 3537 
Q 2597 3491 2834 3397 
z
" transform="scale(0.015625)"/>
      <path id="DejaVuSans-69" d="M 603 3500 
L 1178 3500 
L 1178 0 
L 603 0 
L 603 3500 
z
M 603 4863 
L 1178 4863 
L 1178 4134 
L 603 4134 
L 603 4863 
z
" transform="scale(0.015625)"/>
      <path id="DejaVuSans-6d" d="M 3328 2828 
Q 3544 3216 3844 3400 
Q 4144 3584 4550 3584 
Q 5097 3584 5394 3201 
Q 5691 2819 5691 2113 
L 5691 0 
L 5113 0 
L 5113 2094 
Q 5113 2597 4934 2840 
Q 4756 3084 4391 3084 
Q 3944 3084 3684 2787 
Q 3425 2491 3425 1978 
L 3425 0 
L 2847 0 
L 2847 2094 
Q 2847 2600 2669 2842 
Q 2491 3084 2119 3084 
Q 1678 3084 1418 2786 
Q 1159 2488 1159 1978 
L 1159 0 
L 581 0 
L 581 3500 
L 1159 3500 
L 1159 2956 
Q 1356 3278 1631 3431 
Q 1906 3584 2284 3584 
Q 2666 3584 2933 3390 
Q 3200 3197 3328 2828 
z
" transform="scale(0.015625)"/>
      <path id="DejaVuSans-75" d="M 544 1381 
L 544 3500 
L 1119 3500 
L 1119 1403 
Q 1119 906 1312 657 
Q 1506 409 1894 409 
Q 2359 409 2629 706 
Q 2900 1003 2900 1516 
L 2900 3500 
L 3475 3500 
L 3475 0 
L 2900 0 
L 2900 538 
Q 2691 219 2414 64 
Q 2138 -91 1772 -91 
Q 1169 -91 856 284 
Q 544 659 544 1381 
z
M 1991 3584 
L 1991 3584 
z
" transform="scale(0.015625)"/>
      <path id="DejaVuSans-6c" d="M 603 4863 
L 1178 4863 
L 1178 0 
L 603 0 
L 603 4863 
z
" transform="scale(0.015625)"/>
      <path id="DejaVuSans-3a" d="M 750 794 
L 1409 794 
L 1409 0 
L 750 0 
L 750 794 
z
M 750 3309 
L 1409 3309 
L 1409 2516 
L 750 2516 
L 750 3309 
z
" transform="scale(0.015625)"/>
      <path id="DejaVuSans-20" transform="scale(0.015625)"/>
      <path id="DejaVuSans-2e" d="M 684 794 
L 1344 794 
L 1344 0 
L 684 0 
L 684 794 
z
" transform="scale(0.015625)"/>
      <path id="DejaVuSans-64" d="M 2906 2969 
L 2906 4863 
L 3481 4863 
L 3481 0 
L 2906 0 
L 2906 525 
Q 2725 213 2448 61 
Q 2172 -91 1784 -91 
Q 1150 -91 751 415 
Q 353 922 353 1747 
Q 353 2572 751 3078 
Q 1150 3584 1784 3584 
Q 2172 3584 2448 3432 
Q 2725 3281 2906 2969 
z
M 947 1747 
Q 947 1113 1208 752 
Q 1469 391 1925 391 
Q 2381 391 2643 752 
Q 2906 1113 2906 1747 
Q 2906 2381 2643 2742 
Q 2381 3103 1925 3103 
Q 1469 3103 1208 2742 
Q 947 2381 947 1747 
z
" transform="scale(0.015625)"/>
      <path id="DejaVuSans-42" d="M 1259 2228 
L 1259 519 
L 2272 519 
Q 2781 519 3026 730 
Q 3272 941 3272 1375 
Q 3272 1813 3026 2020 
Q 2781 2228 2272 2228 
L 1259 2228 
z
M 1259 4147 
L 1259 2741 
L 2194 2741 
Q 2656 2741 2882 2914 
Q 3109 3088 3109 3444 
Q 3109 3797 2882 3972 
Q 2656 4147 2194 4147 
L 1259 4147 
z
M 628 4666 
L 2241 4666 
Q 2963 4666 3353 4366 
Q 3744 4066 3744 3513 
Q 3744 3084 3544 2831 
Q 3344 2578 2956 2516 
Q 3422 2416 3680 2098 
Q 3938 1781 3938 1306 
Q 3938 681 3513 340 
Q 3088 0 2303 0 
L 628 0 
L 628 4666 
z
" transform="scale(0.015625)"/>
     </defs>
     <use xlink:href="#DejaVuSans-47"/>
     <use xlink:href="#DejaVuSans-5f" x="77.490234"/>
     <use xlink:href="#DejaVuSans-73" x="127.490234"/>
     <use xlink:href="#DejaVuSans-69" x="179.589844"/>
     <use xlink:href="#DejaVuSans-6d" x="207.373047"/>
     <use xlink:href="#DejaVuSans-75" x="304.785156"/>
     <use xlink:href="#DejaVuSans-6c" x="368.164062"/>
     <use xlink:href="#DejaVuSans-3a" x="395.947266"/>
     <use xlink:href="#DejaVuSans-20" x="429.638672"/>
     <use xlink:href="#DejaVuSans-35" x="461.425781"/>
     <use xlink:href="#DejaVuSans-2e" x="525.048828"/>
     <use xlink:href="#DejaVuSans-33" x="556.835938"/>
     <use xlink:href="#DejaVuSans-20" x="620.458984"/>
     <use xlink:href="#DejaVuSans-64" x="652.246094"/>
     <use xlink:href="#DejaVuSans-42" x="715.722656"/>
     <use xlink:href="#DejaVuSans-69" x="784.326172"/>
    </g>
    <!-- G_meas: 2.4 dBi -->
    <g transform="translate(384.8785 504.495375) scale(0.1 -0.1)">
     <defs>
      <path id="DejaVuSans-65" d="M 3597 1894 
L 3597 1613 
L 953 1613 
Q 991 1019 1311 708 
Q 1631 397 2203 397 
Q 2534 397 2845 478 
Q 3156 559 3463 722 
L 3463 178 
Q 3153 47 2828 -22 
Q 2503 -91 2169 -91 
Q 1331 -91 842 396 
Q 353 884 353 1716 
Q 353 2575 817 3079 
Q 1281 3584 2069 3584 
Q 2775 3584 3186 3129 
Q 3597 2675 3597 1894 
z
M 3022 2063 
Q 3016 2534 2758 2815 
Q 2500 3097 2075 3097 
Q 1594 3097 1305 2825 
Q 1016 2553 972 2059 
L 3022 2063 
z
" transform="scale(0.015625)"/>
      <path id="DejaVuSans-61" d="M 2194 1759 
Q 1497 1759 1228 1600 
Q 959 1441 959 1056 
Q 959 750 1161 570 
Q 1363 391 1709 391 
Q 2188 391 2477 730 
Q 2766 1069 2766 1631 
L 2766 1759 
L 2194 1759 
z
M 3341 1997 
L 3341 0 
L 2766 0 
L 2766 531 
Q 2569 213 2275 61 
Q 1981 -91 1556 -91 
Q 1019 -91 701 211 
Q 384 513 384 1019 
Q 384 1609 779 1909 
Q 1175 2209 1959 2209 
L 2766 2209 
L 2766 2266 
Q 2766 2663 2505 2880 
Q 2244 3097 1772 3097 
Q 1472 3097 1187 3025 
Q 903 2953 641 2809 
L 641 3341 
Q 956 3463 1253 3523 
Q 1550 3584 1831 3584 
Q 2591 3584 2966 3190 
Q 3341 2797 3341 1997 
z
" transform="scale(0.015625)"/>
     </defs>
     <use xlink:href="#DejaVuSans-47"/>
     <use xlink:href="#DejaVuSans-5f" x="77.490234"/>
     <use xlink:href="#DejaVuSans-6d" x="127.490234"/>
     <use xlink:href="#DejaVuSans-65" x="224.902344"/>
     <use xlink:href="#DejaVuSans-61" x="286.425781"/>
     <use xlink:href="#DejaVuSans-73" x="347.705078"/>
     <use xlink:href="#DejaVuSans-3a" x="399.804688"/>
     <use xlink:href="#DejaVuSans-20" x="433.496094"/>
     <use xlink:href="#DejaVuSans-32" x="465.283203"/>
     <use xlink:href="#DejaVuSans-2e" x="528.90625"/>
     <use xlink:href="#DejaVuSans-34" x="560.693359"/>
     <use xlink:href="#DejaVuSans-20" x="624.316406"/>
     <use xlink:href="#DejaVuSans-64" x="656.103516"/>
     <use xlink:href="#DejaVuSans-42" x="719.580078"/>
     <use xlink:href="#DejaVuSans-69" x="788.183594"/>
    </g>
   </g>
   <g id="text_18">
    <g id="patch_5">
     <path d="M 52.2385 56.370938 
L 140.94475 56.370938 
Q 144.54475 56.370938 144.54475 52.770938 
L 144.54475 41.157188 
Q 144.54475 37.557188 140.94475 37.557188 
L 52.2385 37.557188 
Q 48.6385 37.557188 48.6385 41.157188 
L 48.6385 52.770938 
Q 48.6385 56.370938 52.2385 56.370938 
z
" style="fill: #ffffff; stroke: #808080; stroke-linejoin: miter"/>
    </g>
    <!-- Freq: 8.45 GHz -->
    <g transform="translate(52.2385 50.275313) scale(0.12 -0.12)">
     <defs>
      <path id="DejaVuSans-46" d="M 628 4666 
L 3309 4666 
L 3309 4134 
L 1259 4134 
L 1259 2759 
L 3109 2759 
L 3109 2228 
L 1259 2228 
L 1259 0 
L 628 0 
L 628 4666 
z
" transform="scale(0.015625)"/>
      <path id="DejaVuSans-72" d="M 2631 2963 
Q 2534 3019 2420 3045 
Q 2306 3072 2169 3072 
Q 1681 3072 1420 2755 
Q 1159 2438 1159 1844 
L 1159 0 
L 581 0 
L 581 3500 
L 1159 3500 
L 1159 2956 
Q 1341 3275 1631 3429 
Q 1922 3584 2338 3584 
Q 2397 3584 2469 3576 
Q 2541 3569 2628 3553 
L 2631 2963 
z
" transform="scale(0.015625)"/>
      <path id="DejaVuSans-71" d="M 947 1747 
Q 947 1113 1208 752 
Q 1469 391 1925 391 
Q 2381 391 2643 752 
Q 2906 1113 2906 1747 
Q 2906 2381 2643 2742 
Q 2381 3103 1925 3103 
Q 1469 3103 1208 2742 
Q 947 2381 947 1747 
z
M 2906 525 
Q 2725 213 2448 61 
Q 2172 -91 1784 -91 
Q 1150 -91 751 415 
Q 353 922 353 1747 
Q 353 2572 751 3078 
Q 1150 3584 1784 3584 
Q 2172 3584 2448 3432 
Q 2725 3281 2906 2969 
L 2906 3500 
L 3481 3500 
L 3481 -1331 
L 2906 -1331 
L 2906 525 
z
" transform="scale(0.015625)"/>
      <path id="DejaVuSans-48" d="M 628 4666 
L 1259 4666 
L 1259 2753 
L 3553 2753 
L 3553 4666 
L 4184 4666 
L 4184 0 
L 3553 0 
L 3553 2222 
L 1259 2222 
L 1259 0 
L 628 0 
L 628 4666 
z
" transform="scale(0.015625)"/>
      <path id="DejaVuSans-7a" d="M 353 3500 
L 3084 3500 
L 3084 2975 
L 922 459 
L 3084 459 
L 3084 0 
L 275 0 
L 275 525 
L 2438 3041 
L 353 3041 
L 353 3500 
z
" transform="scale(0.015625)"/>
     </defs>
     <use xlink:href="#DejaVuSans-46"/>
     <use xlink:href="#DejaVuSans-72" x="50.269531"/>
     <use xlink:href="#DejaVuSans-65" x="89.132812"/>
     <use xlink:href="#DejaVuSans-71" x="150.65625"/>
     <use xlink:href="#DejaVuSans-3a" x="214.132812"/>
     <use xlink:href="#DejaVuSans-20" x="247.824219"/>
     <use xlink:href="#DejaVuSans-38" x="279.611328"/>
     <use xlink:href="#DejaVuSans-2e" x="343.234375"/>
     <use xlink:href="#DejaVuSans-34" x="375.021484"/>
     <use xlink:href="#DejaVuSans-35" x="438.644531"/>
     <use xlink:href="#DejaVuSans-20" x="502.267578"/>
     <use xlink:href="#DejaVuSans-47" x="534.054688"/>
     <use xlink:href="#DejaVuSans-48" x="611.544922"/>
     <use xlink:href="#DejaVuSans-7a" x="686.740234"/>
    </g>
   </g>
   <g id="text_19">
    <!-- Radiation Diagram -->
    <g transform="translate(195.798437 16.318125) scale(0.12 -0.12)">
     <defs>
      <path id="DejaVuSans-52" d="M 2841 2188 
Q 3044 2119 3236 1894 
Q 3428 1669 3622 1275 
L 4263 0 
L 3584 0 
L 2988 1197 
Q 2756 1666 2539 1819 
Q 2322 1972 1947 1972 
L 1259 1972 
L 1259 0 
L 628 0 
L 628 4666 
L 2053 4666 
Q 2853 4666 3247 4331 
Q 3641 3997 3641 3322 
Q 3641 2881 3436 2590 
Q 3231 2300 2841 2188 
z
M 1259 4147 
L 1259 2491 
L 2053 2491 
Q 2509 2491 2742 2702 
Q 2975 2913 2975 3322 
Q 2975 3731 2742 3939 
Q 2509 4147 2053 4147 
L 1259 4147 
z
" transform="scale(0.015625)"/>
      <path id="DejaVuSans-74" d="M 1172 4494 
L 1172 3500 
L 2356 3500 
L 2356 3053 
L 1172 3053 
L 1172 1153 
Q 1172 725 1289 603 
Q 1406 481 1766 481 
L 2356 481 
L 2356 0 
L 1766 0 
Q 1100 0 847 248 
Q 594 497 594 1153 
L 594 3053 
L 172 3053 
L 172 3500 
L 594 3500 
L 594 4494 
L 1172 4494 
z
" transform="scale(0.015625)"/>
      <path id="DejaVuSans-6f" d="M 1959 3097 
Q 1497 3097 1228 2736 
Q 959 2375 959 1747 
Q 959 1119 1226 758 
Q 1494 397 1959 397 
Q 2419 397 2687 759 
Q 2956 1122 2956 1747 
Q 2956 2369 2687 2733 
Q 2419 3097 1959 3097 
z
M 1959 3584 
Q 2709 3584 3137 3096 
Q 3566 2609 3566 1747 
Q 3566 888 3137 398 
Q 2709 -91 1959 -91 
Q 1206 -91 779 398 
Q 353 888 353 1747 
Q 353 2609 779 3096 
Q 1206 3584 1959 3584 
z
" transform="scale(0.015625)"/>
      <path id="DejaVuSans-6e" d="M 3513 2113 
L 3513 0 
L 2938 0 
L 2938 2094 
Q 2938 2591 2744 2837 
Q 2550 3084 2163 3084 
Q 1697 3084 1428 2787 
Q 1159 2491 1159 1978 
L 1159 0 
L 581 0 
L 581 3500 
L 1159 3500 
L 1159 2956 
Q 1366 3272 1645 3428 
Q 1925 3584 2291 3584 
Q 2894 3584 3203 3211 
Q 3513 2838 3513 2113 
z
" transform="scale(0.015625)"/>
      <path id="DejaVuSans-44" d="M 1259 4147 
L 1259 519 
L 2022 519 
Q 2988 519 3436 956 
Q 3884 1394 3884 2338 
Q 3884 3275 3436 3711 
Q 2988 4147 2022 4147 
L 1259 4147 
z
M 628 4666 
L 1925 4666 
Q 3281 4666 3915 4102 
Q 4550 3538 4550 2338 
Q 4550 1131 3912 565 
Q 3275 0 1925 0 
L 628 0 
L 628 4666 
z
" transform="scale(0.015625)"/>
      <path id="DejaVuSans-67" d="M 2906 1791 
Q 2906 2416 2648 2759 
Q 2391 3103 1925 3103 
Q 1463 3103 1205 2759 
Q 947 2416 947 1791 
Q 947 1169 1205 825 
Q 1463 481 1925 481 
Q 2391 481 2648 825 
Q 2906 1169 2906 1791 
z
M 3481 434 
Q 3481 -459 3084 -895 
Q 2688 -1331 1869 -1331 
Q 1566 -1331 1297 -1286 
Q 1028 -1241 775 -1147 
L 775 -588 
Q 1028 -725 1275 -790 
Q 1522 -856 1778 -856 
Q 2344 -856 2625 -561 
Q 2906 -266 2906 331 
L 2906 616 
Q 2728 306 2450 153 
Q 2172 0 1784 0 
Q 1141 0 747 490 
Q 353 981 353 1791 
Q 353 2603 747 3093 
Q 1141 3584 1784 3584 
Q 2172 3584 2450 3431 
Q 2728 3278 2906 2969 
L 2906 3500 
L 3481 3500 
L 3481 434 
z
" transform="scale(0.015625)"/>
     </defs>
     <use xlink:href="#DejaVuSans-52"/>
     <use xlink:href="#DejaVuSans-61" x="67.232422"/>
     <use xlink:href="#DejaVuSans-64" x="128.511719"/>
     <use xlink:href="#DejaVuSans-69" x="191.988281"/>
     <use xlink:href="#DejaVuSans-61" x="219.771484"/>
     <use xlink:href="#DejaVuSans-74" x="281.050781"/>
     <use xlink:href="#DejaVuSans-69" x="320.259766"/>
     <use xlink:href="#DejaVuSans-6f" x="348.042969"/>
     <use xlink:href="#DejaVuSans-6e" x="409.224609"/>
     <use xlink:href="#DejaVuSans-20" x="472.603516"/>
     <use xlink:href="#DejaVuSans-44" x="504.390625"/>
     <use xlink:href="#DejaVuSans-69" x="581.392578"/>
     <use xlink:href="#DejaVuSans-61" x="609.175781"/>
     <use xlink:href="#DejaVuSans-67" x="670.455078"/>
     <use xlink:href="#DejaVuSans-72" x="733.931641"/>
     <use xlink:href="#DejaVuSans-61" x="775.044922"/>
     <use xlink:href="#DejaVuSans-6d" x="836.324219"/>
    </g>
   </g>
   <g id="legend_1">
    <g id="patch_6">
     <path d="M 406.599687 78.513438 
L 466.5825 78.513438 
Q 468.5825 78.513438 468.5825 76.513438 
L 468.5825 48.157188 
Q 468.5825 46.157188 466.5825 46.157188 
L 406.599687 46.157188 
Q 404.599687 46.157188 404.599687 48.157188 
L 404.599687 76.513438 
Q 404.599687 78.513438 406.599687 78.513438 
z
" style="fill: #ffffff; opacity: 0.8; stroke: #cccccc; stroke-linejoin: miter"/>
    </g>
    <g id="line2d_19">
     <path d="M 408.599687 54.255625 
L 418.599687 54.255625 
L 428.599687 54.255625 
" style="fill: none; stroke: #ff0000; stroke-width: 1.5; stroke-linecap: square"/>
    </g>
    <g id="text_20">
     <!-- Meas -->
     <g transform="translate(436.599687 57.755625) scale(0.1 -0.1)">
      <defs>
       <path id="DejaVuSans-4d" d="M 628 4666 
L 1569 4666 
L 2759 1491 
L 3956 4666 
L 4897 4666 
L 4897 0 
L 4281 0 
L 4281 4097 
L 3078 897 
L 2444 897 
L 1241 4097 
L 1241 0 
L 628 0 
L 628 4666 
z
" transform="scale(0.015625)"/>
      </defs>
      <use xlink:href="#DejaVuSans-4d"/>
      <use xlink:href="#DejaVuSans-65" x="86.279297"/>
      <use xlink:href="#DejaVuSans-61" x="147.802734"/>
      <use xlink:href="#DejaVuSans-73" x="209.082031"/>
     </g>
    </g>
    <g id="line2d_20">
     <path d="M 408.599687 68.93375 
L 418.599687 68.93375 
L 428.599687 68.93375 
" style="fill: none; stroke-dasharray: 5.55,2.4; stroke-dashoffset: 0; stroke: #0000ff; stroke-width: 1.5"/>
    </g>
    <g id="text_21">
     <!-- Simul -->
     <g transform="translate(436.599687 72.43375) scale(0.1 -0.1)">
      <defs>
       <path id="DejaVuSans-53" d="M 3425 4513 
L 3425 3897 
Q 3066 4069 2747 4153 
Q 2428 4238 2131 4238 
Q 1616 4238 1336 4038 
Q 1056 3838 1056 3469 
Q 1056 3159 1242 3001 
Q 1428 2844 1947 2747 
L 2328 2669 
Q 3034 2534 3370 2195 
Q 3706 1856 3706 1288 
Q 3706 609 3251 259 
Q 2797 -91 1919 -91 
Q 1588 -91 1214 -16 
Q 841 59 441 206 
L 441 856 
Q 825 641 1194 531 
Q 1563 422 1919 422 
Q 2459 422 2753 634 
Q 3047 847 3047 1241 
Q 3047 1584 2836 1778 
Q 2625 1972 2144 2069 
L 1759 2144 
Q 1053 2284 737 2584 
Q 422 2884 422 3419 
Q 422 4038 858 4394 
Q 1294 4750 2059 4750 
Q 2388 4750 2728 4690 
Q 3069 4631 3425 4513 
z
" transform="scale(0.015625)"/>
      </defs>
      <use xlink:href="#DejaVuSans-53"/>
      <use xlink:href="#DejaVuSans-69" x="63.476562"/>
      <use xlink:href="#DejaVuSans-6d" x="91.259766"/>
      <use xlink:href="#DejaVuSans-75" x="188.671875"/>
      <use xlink:href="#DejaVuSans-6c" x="252.050781"/>
     </g>
    </g>
   </g>
  </g>
 </g>
 <defs>
  <clipPath id="pf97ff18477">
   <path d="M 473.5825 262.917188 
C 473.5825 233.795931 467.846247 204.957842 456.702025 178.05331 
C 445.557803 151.148777 429.222338 126.701026 408.6305 106.109188 
C 388.038662 85.51735 363.590911 69.181885 336.686378 58.037662 
C 309.781845 46.89344 280.943756 41.157188 251.8225 41.157188 
C 222.701244 41.157188 193.863155 46.89344 166.958622 58.037662 
C 140.054089 69.181885 115.606338 85.51735 95.0145 106.109188 
C 74.422662 126.701026 58.087197 151.148777 46.942975 178.05331 
C 35.798753 204.957842 30.0625 233.795931 30.0625 262.917188 
C 30.0625 292.038444 35.798753 320.876533 46.942975 347.781065 
C 58.087197 374.685598 74.422662 399.133349 95.0145 419.725187 
C 115.606338 440.317025 140.054089 456.65249 166.958622 467.796713 
C 193.863155 478.940935 222.701244 484.677188 251.8225 484.677188 
C 280.943756 484.677188 309.781845 478.940935 336.686378 467.796713 
C 363.590911 456.65249 388.038662 440.317025 408.6305 419.725187 
C 429.222338 399.133349 445.557803 374.685598 456.702025 347.781065 
C 467.846247 320.876533 473.5825 292.038444 473.5825 262.917188 
M 251.8225 262.917188 
C 251.8225 262.917188 251.8225 262.917188 251.8225 262.917188 
C 251.8225 262.917188 251.8225 262.917188 251.8225 262.917188 
C 251.8225 262.917188 251.8225 262.917188 251.8225 262.917188 
C 251.8225 262.917188 251.8225 262.917188 251.8225 262.917188 
C 251.8225 262.917188 251.8225 262.917188 251.8225 262.917188 
C 251.8225 262.917188 251.8225 262.917188 251.8225 262.917188 
C 251.8225 262.917188 251.8225 262.917188 251.8225 262.917188 
C 251.8225 262.917188 251.8225 262.917188 251.8225 262.917188 
C 251.8225 262.917188 251.8225 262.917188 251.8225 262.917188 
C 251.8225 262.917188 251.8225 262.917188 251.8225 262.917188 
C 251.8225 262.917188 251.8225 262.917188 251.8225 262.917188 
C 251.8225 262.917188 251.8225 262.917188 251.8225 262.917188 
C 251.8225 262.917188 251.8225 262.917188 251.8225 262.917188 
C 251.8225 262.917188 251.8225 262.917188 251.8225 262.917188 
C 251.8225 262.917188 251.8225 262.917188 251.8225 262.917188 
C 251.8225 262.917188 251.8225 262.917188 251.8225 262.917188 
z
"/>
  </clipPath>
 </defs>
</svg>
