<?xml version="1.0" encoding="utf-8" standalone="no"?>
<!DOCTYPE svg PUBLIC "-//W3C//DTD SVG 1.1//EN"
  "http://www.w3.org/Graphics/SVG/1.1/DTD/svg11.dtd">
<svg xmlns:xlink="http://www.w3.org/1999/xlink" width="506.82625pt" height="514.053187pt" viewBox="0 0 506.82625 514.053187" xmlns="http://www.w3.org/2000/svg" version="1.1">
 <metadata>
  <rdf:RDF xmlns:dc="http://purl.org/dc/elements/1.1/" xmlns:cc="http://creativecommons.org/ns#" xmlns:rdf="http://www.w3.org/1999/02/22-rdf-syntax-ns#">
   <cc:Work>
    <dc:type rdf:resource="http://purl.org/dc/dcmitype/StillImage"/>
    <dc:date>2024-01-27T15:07:09.157395</dc:date>
    <dc:format>image/svg+xml</dc:format>
    <dc:creator>
     <cc:Agent>
      <dc:title>Matplotlib v3.5.1, https://matplotlib.org/</dc:title>
     </cc:Agent>
    </dc:creator>
   </cc:Work>
  </rdf:RDF>
 </metadata>
 <defs>
  <style type="text/css">*{stroke-linejoin: round; stroke-linecap: butt}</style>
 </defs>
 <g id="figure_1">
  <g id="patch_1">
   <path d="M 0 514.053187 
L 506.82625 514.053187 
L 506.82625 0 
L 0 0 
z
" style="fill: #ffffff"/>
  </g>
  <g id="axes_1">
   <g id="patch_2">
    <path d="M 473.5825 262.917187 
C 473.5825 233.795931 467.846247 204.957842 456.702025 178.05331 
C 445.557803 151.148777 429.222338 126.701026 408.6305 106.109188 
C 388.038662 85.51735 363.590911 69.181885 336.686378 58.037662 
C 309.781845 46.89344 280.943756 41.157187 251.8225 41.157187 
C 222.701244 41.157187 193.863155 46.89344 166.958622 58.037662 
C 140.054089 69.181885 115.606338 85.51735 95.0145 106.109188 
C 74.422662 126.701026 58.087197 151.148777 46.942975 178.05331 
C 35.798753 204.957842 30.0625 233.795931 30.0625 262.917187 
C 30.0625 292.038444 35.798753 320.876533 46.942975 347.781065 
C 58.087197 374.685598 74.422662 399.133349 95.0145 419.725187 
C 115.606338 440.317025 140.054089 456.65249 166.958622 467.796713 
C 193.863155 478.940935 222.701244 484.677187 251.8225 484.677187 
C 280.943756 484.677187 309.781845 478.940935 336.686378 467.796713 
C 363.590911 456.65249 388.038662 440.317025 408.6305 419.725187 
C 429.222338 399.133349 445.557803 374.685598 456.702025 347.781065 
C 467.846247 320.876533 473.5825 292.038444 473.5825 262.917188 
M 251.8225 262.917187 
C 251.8225 262.917187 251.8225 262.917187 251.8225 262.917187 
C 251.8225 262.917187 251.8225 262.917187 251.8225 262.917187 
C 251.8225 262.917187 251.8225 262.917187 251.8225 262.917187 
C 251.8225 262.917187 251.8225 262.917187 251.8225 262.917187 
C 251.8225 262.917187 251.8225 262.917187 251.8225 262.917187 
C 251.8225 262.917187 251.8225 262.917187 251.8225 262.917187 
C 251.8225 262.917187 251.8225 262.917187 251.8225 262.917187 
C 251.8225 262.917187 251.8225 262.917187 251.8225 262.917187 
C 251.8225 262.917187 251.8225 262.917187 251.8225 262.917187 
C 251.8225 262.917187 251.8225 262.917187 251.8225 262.917187 
C 251.8225 262.917187 251.8225 262.917187 251.8225 262.917187 
C 251.8225 262.917187 251.8225 262.917187 251.8225 262.917187 
C 251.8225 262.917187 251.8225 262.917187 251.8225 262.917187 
C 251.8225 262.917187 251.8225 262.917187 251.8225 262.917187 
C 251.8225 262.917187 251.8225 262.917187 251.8225 262.917187 
C 251.8225 262.917187 251.8225 262.917187 251.8225 262.917187 
M 473.5825 262.917187 
z
" style="fill: #ffffff"/>
   </g>
   <g id="matplotlib.axis_1">
    <g id="xtick_1">
     <g id="line2d_1">
      <path d="M 251.8225 262.917187 
L 251.8225 41.157187 
" clip-path="url(#pa6b2c6a812)" style="fill: none; stroke: #b0b0b0; stroke-width: 0.8; stroke-linecap: square"/>
     </g>
     <g id="text_1">
      <!-- 0° -->
      <g transform="translate(246.14125 29.916562)scale(0.1 -0.1)">
       <defs>
        <path id="DejaVuSans-30" d="M 2034 4250 
Q 1547 4250 1301 3770 
Q 1056 3291 1056 2328 
Q 1056 1369 1301 889 
Q 1547 409 2034 409 
Q 2525 409 2770 889 
Q 3016 1369 3016 2328 
Q 3016 3291 2770 3770 
Q 2525 4250 2034 4250 
z
M 2034 4750 
Q 2819 4750 3233 4129 
Q 3647 3509 3647 2328 
Q 3647 1150 3233 529 
Q 2819 -91 2034 -91 
Q 1250 -91 836 529 
Q 422 1150 422 2328 
Q 422 3509 836 4129 
Q 1250 4750 2034 4750 
z
" transform="scale(0.015625)"/>
        <path id="DejaVuSans-b0" d="M 1600 4347 
Q 1350 4347 1178 4173 
Q 1006 4000 1006 3750 
Q 1006 3503 1178 3333 
Q 1350 3163 1600 3163 
Q 1850 3163 2022 3333 
Q 2194 3503 2194 3750 
Q 2194 3997 2020 4172 
Q 1847 4347 1600 4347 
z
M 1600 4750 
Q 1800 4750 1984 4673 
Q 2169 4597 2303 4453 
Q 2447 4313 2519 4134 
Q 2591 3956 2591 3750 
Q 2591 3338 2302 3052 
Q 2013 2766 1594 2766 
Q 1172 2766 890 3047 
Q 609 3328 609 3750 
Q 609 4169 896 4459 
Q 1184 4750 1600 4750 
z
" transform="scale(0.015625)"/>
       </defs>
       <use xlink:href="#DejaVuSans-30"/>
       <use xlink:href="#DejaVuSans-b0" x="63.623047"/>
      </g>
     </g>
    </g>
    <g id="xtick_2">
     <g id="line2d_2">
      <path d="M 251.8225 262.917187 
L 95.0145 106.109188 
" clip-path="url(#pa6b2c6a812)" style="fill: none; stroke: #b0b0b0; stroke-width: 0.8; stroke-linecap: square"/>
     </g>
     <g id="text_2">
      <!-- 45° -->
      <g transform="translate(76.252505 98.969068)scale(0.1 -0.1)">
       <defs>
        <path id="DejaVuSans-34" d="M 2419 4116 
L 825 1625 
L 2419 1625 
L 2419 4116 
z
M 2253 4666 
L 3047 4666 
L 3047 1625 
L 3713 1625 
L 3713 1100 
L 3047 1100 
L 3047 0 
L 2419 0 
L 2419 1100 
L 313 1100 
L 313 1709 
L 2253 4666 
z
" transform="scale(0.015625)"/>
        <path id="DejaVuSans-35" d="M 691 4666 
L 3169 4666 
L 3169 4134 
L 1269 4134 
L 1269 2991 
Q 1406 3038 1543 3061 
Q 1681 3084 1819 3084 
Q 2600 3084 3056 2656 
Q 3513 2228 3513 1497 
Q 3513 744 3044 326 
Q 2575 -91 1722 -91 
Q 1428 -91 1123 -41 
Q 819 9 494 109 
L 494 744 
Q 775 591 1075 516 
Q 1375 441 1709 441 
Q 2250 441 2565 725 
Q 2881 1009 2881 1497 
Q 2881 1984 2565 2268 
Q 2250 2553 1709 2553 
Q 1456 2553 1204 2497 
Q 953 2441 691 2322 
L 691 4666 
z
" transform="scale(0.015625)"/>
       </defs>
       <use xlink:href="#DejaVuSans-34"/>
       <use xlink:href="#DejaVuSans-35" x="63.623047"/>
       <use xlink:href="#DejaVuSans-b0" x="127.246094"/>
      </g>
     </g>
    </g>
    <g id="xtick_3">
     <g id="line2d_3">
      <path d="M 251.8225 262.917187 
L 30.0625 262.917187 
" clip-path="url(#pa6b2c6a812)" style="fill: none; stroke: #b0b0b0; stroke-width: 0.8; stroke-linecap: square"/>
     </g>
     <g id="text_3">
      <!-- 90° -->
      <g transform="translate(7.2 265.676562)scale(0.1 -0.1)">
       <defs>
        <path id="DejaVuSans-39" d="M 703 97 
L 703 672 
Q 941 559 1184 500 
Q 1428 441 1663 441 
Q 2288 441 2617 861 
Q 2947 1281 2994 2138 
Q 2813 1869 2534 1725 
Q 2256 1581 1919 1581 
Q 1219 1581 811 2004 
Q 403 2428 403 3163 
Q 403 3881 828 4315 
Q 1253 4750 1959 4750 
Q 2769 4750 3195 4129 
Q 3622 3509 3622 2328 
Q 3622 1225 3098 567 
Q 2575 -91 1691 -91 
Q 1453 -91 1209 -44 
Q 966 3 703 97 
z
M 1959 2075 
Q 2384 2075 2632 2365 
Q 2881 2656 2881 3163 
Q 2881 3666 2632 3958 
Q 2384 4250 1959 4250 
Q 1534 4250 1286 3958 
Q 1038 3666 1038 3163 
Q 1038 2656 1286 2365 
Q 1534 2075 1959 2075 
z
" transform="scale(0.015625)"/>
       </defs>
       <use xlink:href="#DejaVuSans-39"/>
       <use xlink:href="#DejaVuSans-30" x="63.623047"/>
       <use xlink:href="#DejaVuSans-b0" x="127.246094"/>
      </g>
     </g>
    </g>
    <g id="xtick_4">
     <g id="line2d_4">
      <path d="M 251.8225 262.917187 
L 95.0145 419.725187 
" clip-path="url(#pa6b2c6a812)" style="fill: none; stroke: #b0b0b0; stroke-width: 0.8; stroke-linecap: square"/>
     </g>
     <g id="text_4">
      <!-- 135° -->
      <g transform="translate(73.071255 432.384057)scale(0.1 -0.1)">
       <defs>
        <path id="DejaVuSans-31" d="M 794 531 
L 1825 531 
L 1825 4091 
L 703 3866 
L 703 4441 
L 1819 4666 
L 2450 4666 
L 2450 531 
L 3481 531 
L 3481 0 
L 794 0 
L 794 531 
z
" transform="scale(0.015625)"/>
        <path id="DejaVuSans-33" d="M 2597 2516 
Q 3050 2419 3304 2112 
Q 3559 1806 3559 1356 
Q 3559 666 3084 287 
Q 2609 -91 1734 -91 
Q 1441 -91 1130 -33 
Q 819 25 488 141 
L 488 750 
Q 750 597 1062 519 
Q 1375 441 1716 441 
Q 2309 441 2620 675 
Q 2931 909 2931 1356 
Q 2931 1769 2642 2001 
Q 2353 2234 1838 2234 
L 1294 2234 
L 1294 2753 
L 1863 2753 
Q 2328 2753 2575 2939 
Q 2822 3125 2822 3475 
Q 2822 3834 2567 4026 
Q 2313 4219 1838 4219 
Q 1578 4219 1281 4162 
Q 984 4106 628 3988 
L 628 4550 
Q 988 4650 1302 4700 
Q 1616 4750 1894 4750 
Q 2613 4750 3031 4423 
Q 3450 4097 3450 3541 
Q 3450 3153 3228 2886 
Q 3006 2619 2597 2516 
z
" transform="scale(0.015625)"/>
       </defs>
       <use xlink:href="#DejaVuSans-31"/>
       <use xlink:href="#DejaVuSans-33" x="63.623047"/>
       <use xlink:href="#DejaVuSans-35" x="127.246094"/>
       <use xlink:href="#DejaVuSans-b0" x="190.869141"/>
      </g>
     </g>
    </g>
    <g id="xtick_5">
     <g id="line2d_5">
      <path d="M 251.8225 262.917187 
L 251.8225 484.677187 
" clip-path="url(#pa6b2c6a812)" style="fill: none; stroke: #b0b0b0; stroke-width: 0.8; stroke-linecap: square"/>
     </g>
     <g id="text_5">
      <!-- 180° -->
      <g transform="translate(239.77875 501.436562)scale(0.1 -0.1)">
       <defs>
        <path id="DejaVuSans-38" d="M 2034 2216 
Q 1584 2216 1326 1975 
Q 1069 1734 1069 1313 
Q 1069 891 1326 650 
Q 1584 409 2034 409 
Q 2484 409 2743 651 
Q 3003 894 3003 1313 
Q 3003 1734 2745 1975 
Q 2488 2216 2034 2216 
z
M 1403 2484 
Q 997 2584 770 2862 
Q 544 3141 544 3541 
Q 544 4100 942 4425 
Q 1341 4750 2034 4750 
Q 2731 4750 3128 4425 
Q 3525 4100 3525 3541 
Q 3525 3141 3298 2862 
Q 3072 2584 2669 2484 
Q 3125 2378 3379 2068 
Q 3634 1759 3634 1313 
Q 3634 634 3220 271 
Q 2806 -91 2034 -91 
Q 1263 -91 848 271 
Q 434 634 434 1313 
Q 434 1759 690 2068 
Q 947 2378 1403 2484 
z
M 1172 3481 
Q 1172 3119 1398 2916 
Q 1625 2713 2034 2713 
Q 2441 2713 2670 2916 
Q 2900 3119 2900 3481 
Q 2900 3844 2670 4047 
Q 2441 4250 2034 4250 
Q 1625 4250 1398 4047 
Q 1172 3844 1172 3481 
z
" transform="scale(0.015625)"/>
       </defs>
       <use xlink:href="#DejaVuSans-31"/>
       <use xlink:href="#DejaVuSans-38" x="63.623047"/>
       <use xlink:href="#DejaVuSans-30" x="127.246094"/>
       <use xlink:href="#DejaVuSans-b0" x="190.869141"/>
      </g>
     </g>
    </g>
    <g id="xtick_6">
     <g id="line2d_6">
      <path d="M 251.8225 262.917187 
L 408.6305 419.725187 
" clip-path="url(#pa6b2c6a812)" style="fill: none; stroke: #b0b0b0; stroke-width: 0.8; stroke-linecap: square"/>
     </g>
     <g id="text_6">
      <!-- 225° -->
      <g transform="translate(406.486245 432.384057)scale(0.1 -0.1)">
       <defs>
        <path id="DejaVuSans-32" d="M 1228 531 
L 3431 531 
L 3431 0 
L 469 0 
L 469 531 
Q 828 903 1448 1529 
Q 2069 2156 2228 2338 
Q 2531 2678 2651 2914 
Q 2772 3150 2772 3378 
Q 2772 3750 2511 3984 
Q 2250 4219 1831 4219 
Q 1534 4219 1204 4116 
Q 875 4013 500 3803 
L 500 4441 
Q 881 4594 1212 4672 
Q 1544 4750 1819 4750 
Q 2544 4750 2975 4387 
Q 3406 4025 3406 3419 
Q 3406 3131 3298 2873 
Q 3191 2616 2906 2266 
Q 2828 2175 2409 1742 
Q 1991 1309 1228 531 
z
" transform="scale(0.015625)"/>
       </defs>
       <use xlink:href="#DejaVuSans-32"/>
       <use xlink:href="#DejaVuSans-32" x="63.623047"/>
       <use xlink:href="#DejaVuSans-35" x="127.246094"/>
       <use xlink:href="#DejaVuSans-b0" x="190.869141"/>
      </g>
     </g>
    </g>
    <g id="xtick_7">
     <g id="line2d_7">
      <path d="M 251.8225 262.917187 
L 473.5825 262.917188 
" clip-path="url(#pa6b2c6a812)" style="fill: none; stroke: #b0b0b0; stroke-width: 0.8; stroke-linecap: square"/>
     </g>
     <g id="text_7">
      <!-- 270° -->
      <g transform="translate(475.53875 265.676563)scale(0.1 -0.1)">
       <defs>
        <path id="DejaVuSans-37" d="M 525 4666 
L 3525 4666 
L 3525 4397 
L 1831 0 
L 1172 0 
L 2766 4134 
L 525 4134 
L 525 4666 
z
" transform="scale(0.015625)"/>
       </defs>
       <use xlink:href="#DejaVuSans-32"/>
       <use xlink:href="#DejaVuSans-37" x="63.623047"/>
       <use xlink:href="#DejaVuSans-30" x="127.246094"/>
       <use xlink:href="#DejaVuSans-b0" x="190.869141"/>
      </g>
     </g>
    </g>
    <g id="xtick_8">
     <g id="line2d_8">
      <path d="M 251.8225 262.917187 
L 408.6305 106.109188 
" clip-path="url(#pa6b2c6a812)" style="fill: none; stroke: #b0b0b0; stroke-width: 0.8; stroke-linecap: square"/>
     </g>
     <g id="text_8">
      <!-- 315° -->
      <g transform="translate(406.486245 98.969068)scale(0.1 -0.1)">
       <use xlink:href="#DejaVuSans-33"/>
       <use xlink:href="#DejaVuSans-31" x="63.623047"/>
       <use xlink:href="#DejaVuSans-35" x="127.246094"/>
       <use xlink:href="#DejaVuSans-b0" x="190.869141"/>
      </g>
     </g>
    </g>
   </g>
   <g id="matplotlib.axis_2">
    <g id="ytick_1">
     <g id="line2d_9">
      <path d="M 251.8225 240.259718 
C 248.847148 240.259718 245.900728 240.845797 243.151862 241.984415 
C 240.402995 243.123033 237.905141 244.792046 235.80125 246.895937 
C 233.697358 248.999828 232.028345 251.497683 230.889727 254.246549 
C 229.75111 256.995416 229.16503 259.941836 229.16503 262.917187 
C 229.16503 265.892539 229.75111 268.838959 230.889727 271.587826 
C 232.028345 274.336692 233.697358 276.834547 235.80125 278.938438 
C 237.905141 281.042329 240.402995 282.711342 243.151862 283.84996 
C 245.900728 284.988578 248.847148 285.574657 251.8225 285.574657 
C 254.797852 285.574657 257.744272 284.988578 260.493138 283.84996 
C 263.242005 282.711342 265.739859 281.042329 267.84375 278.938438 
C 269.947642 276.834547 271.616655 274.336692 272.755273 271.587826 
C 273.89389 268.838959 274.47997 265.892539 274.47997 262.917187 
C 274.47997 259.941836 273.89389 256.995416 272.755273 254.246549 
C 271.616655 251.497683 269.947642 248.999828 267.84375 246.895937 
C 265.739859 244.792046 263.242005 243.123033 260.493138 241.984415 
C 257.744272 240.845797 254.797852 240.259718 251.8225 240.259718 
" clip-path="url(#pa6b2c6a812)" style="fill: none; stroke: #b0b0b0; stroke-width: 0.8; stroke-linecap: square"/>
     </g>
     <g id="text_9">
      <!-- −50 -->
      <g transform="translate(243.151862 239.904727)scale(0.1 -0.1)">
       <defs>
        <path id="DejaVuSans-2212" d="M 678 2272 
L 4684 2272 
L 4684 1741 
L 678 1741 
L 678 2272 
z
" transform="scale(0.015625)"/>
       </defs>
       <use xlink:href="#DejaVuSans-2212"/>
       <use xlink:href="#DejaVuSans-35" x="83.789062"/>
       <use xlink:href="#DejaVuSans-30" x="147.412109"/>
      </g>
     </g>
    </g>
    <g id="ytick_2">
     <g id="line2d_10">
      <path d="M 251.8225 200.439212 
C 243.617967 200.439212 235.493214 202.055326 227.913214 205.195064 
C 220.333214 208.334803 213.44538 212.937106 207.6439 218.738587 
C 201.842419 224.540068 197.240116 231.427902 194.100377 239.007901 
C 190.960638 246.587901 189.344524 254.712655 189.344524 262.917187 
C 189.344524 271.12172 190.960638 279.246474 194.100377 286.826474 
C 197.240116 294.406473 201.842419 301.294307 207.6439 307.095788 
C 213.44538 312.897269 220.333214 317.499572 227.913214 320.639311 
C 235.493214 323.779049 243.617967 325.395163 251.8225 325.395163 
C 260.027033 325.395163 268.151786 323.779049 275.731786 320.639311 
C 283.311786 317.499572 290.19962 312.897269 296.0011 307.095788 
C 301.802581 301.294307 306.404884 294.406473 309.544623 286.826474 
C 312.684362 279.246474 314.300476 271.12172 314.300476 262.917187 
C 314.300476 254.712655 312.684362 246.587901 309.544623 239.007901 
C 306.404884 231.427902 301.802581 224.540068 296.0011 218.738587 
C 290.19962 212.937106 283.311786 208.334803 275.731786 205.195064 
C 268.151786 202.055326 260.027033 200.439212 251.8225 200.439212 
" clip-path="url(#pa6b2c6a812)" style="fill: none; stroke: #b0b0b0; stroke-width: 0.8; stroke-linecap: square"/>
     </g>
     <g id="text_10">
      <!-- −40 -->
      <g transform="translate(227.913214 203.115377)scale(0.1 -0.1)">
       <use xlink:href="#DejaVuSans-2212"/>
       <use xlink:href="#DejaVuSans-34" x="83.789062"/>
       <use xlink:href="#DejaVuSans-30" x="147.412109"/>
      </g>
     </g>
    </g>
    <g id="ytick_3">
     <g id="line2d_11">
      <path d="M 251.8225 160.618706 
C 238.388786 160.618706 225.085699 163.264854 212.674566 168.405714 
C 200.263433 173.546574 188.98562 181.082167 179.48655 190.581237 
C 169.98748 200.080307 162.451886 211.35812 157.311026 223.769253 
C 152.170167 236.180386 149.524018 249.483474 149.524018 262.917187 
C 149.524018 276.350901 152.170167 289.653989 157.311026 302.065122 
C 162.451886 314.476255 169.98748 325.754068 179.48655 335.253138 
C 188.98562 344.752208 200.263433 352.287801 212.674566 357.428661 
C 225.085699 362.569521 238.388786 365.215669 251.8225 365.215669 
C 265.256214 365.215669 278.559301 362.569521 290.970434 357.428661 
C 303.381567 352.287801 314.65938 344.752208 324.15845 335.253138 
C 333.65752 325.754068 341.193114 314.476255 346.333974 302.065122 
C 351.474833 289.653989 354.120982 276.350901 354.120982 262.917187 
C 354.120982 249.483474 351.474833 236.180386 346.333974 223.769253 
C 341.193114 211.35812 333.65752 200.080307 324.15845 190.581237 
C 314.65938 181.082167 303.381567 173.546574 290.970434 168.405714 
C 278.559301 163.264854 265.256214 160.618706 251.8225 160.618706 
" clip-path="url(#pa6b2c6a812)" style="fill: none; stroke: #b0b0b0; stroke-width: 0.8; stroke-linecap: square"/>
     </g>
     <g id="text_11">
      <!-- −30 -->
      <g transform="translate(212.674566 166.326026)scale(0.1 -0.1)">
       <use xlink:href="#DejaVuSans-2212"/>
       <use xlink:href="#DejaVuSans-33" x="83.789062"/>
       <use xlink:href="#DejaVuSans-30" x="147.412109"/>
      </g>
     </g>
    </g>
    <g id="ytick_4">
     <g id="line2d_12">
      <path d="M 251.8225 120.7982 
C 233.159606 120.7982 214.678184 124.474383 197.435918 131.616363 
C 180.193652 138.758344 164.525859 149.227228 151.3292 162.423887 
C 138.132541 175.620547 127.663656 191.288339 120.521676 208.530605 
C 113.379695 225.772872 109.703512 244.254293 109.703512 262.917187 
C 109.703512 281.580082 113.379695 300.061503 120.521676 317.30377 
C 127.663656 334.546036 138.132541 350.213828 151.3292 363.410488 
C 164.525859 376.607147 180.193652 387.076031 197.435918 394.218012 
C 214.678184 401.359992 233.159606 405.036175 251.8225 405.036175 
C 270.485394 405.036175 288.966816 401.359992 306.209082 394.218012 
C 323.451348 387.076031 339.119141 376.607147 352.3158 363.410488 
C 365.512459 350.213828 375.981344 334.546036 383.123324 317.30377 
C 390.265305 300.061503 393.941488 281.580082 393.941488 262.917188 
C 393.941488 244.254293 390.265305 225.772872 383.123324 208.530605 
C 375.981344 191.288339 365.512459 175.620547 352.3158 162.423887 
C 339.119141 149.227228 323.451348 138.758344 306.209082 131.616363 
C 288.966816 124.474383 270.485394 120.7982 251.8225 120.7982 
" clip-path="url(#pa6b2c6a812)" style="fill: none; stroke: #b0b0b0; stroke-width: 0.8; stroke-linecap: square"/>
     </g>
     <g id="text_12">
      <!-- −20 -->
      <g transform="translate(197.435918 129.536676)scale(0.1 -0.1)">
       <use xlink:href="#DejaVuSans-2212"/>
       <use xlink:href="#DejaVuSans-32" x="83.789062"/>
       <use xlink:href="#DejaVuSans-30" x="147.412109"/>
      </g>
     </g>
    </g>
    <g id="ytick_5">
     <g id="line2d_13">
      <path d="M 251.8225 80.977694 
C 227.930425 80.977694 204.270669 85.683911 182.19727 94.827013 
C 160.12387 103.970114 140.066099 117.372289 123.17185 134.266538 
C 106.277602 151.160786 92.875427 171.218558 83.732325 193.291957 
C 74.589224 215.365357 69.883006 239.025112 69.883006 262.917187 
C 69.883006 286.809263 74.589224 310.469018 83.732325 332.542418 
C 92.875427 354.615817 106.277602 374.673589 123.17185 391.567837 
C 140.066099 408.462086 160.12387 421.864261 182.19727 431.007362 
C 204.270669 440.150464 227.930425 444.856681 251.8225 444.856681 
C 275.714575 444.856681 299.374331 440.150464 321.44773 431.007362 
C 343.52113 421.864261 363.578901 408.462086 380.47315 391.567837 
C 397.367398 374.673589 410.769573 354.615817 419.912675 332.542418 
C 429.055776 310.469018 433.761994 286.809263 433.761994 262.917188 
C 433.761994 239.025112 429.055776 215.365357 419.912675 193.291957 
C 410.769573 171.218558 397.367398 151.160786 380.47315 134.266538 
C 363.578901 117.372289 343.52113 103.970114 321.44773 94.827013 
C 299.374331 85.683911 275.714575 80.977694 251.8225 80.977694 
" clip-path="url(#pa6b2c6a812)" style="fill: none; stroke: #b0b0b0; stroke-width: 0.8; stroke-linecap: square"/>
     </g>
     <g id="text_13">
      <!-- −10 -->
      <g transform="translate(182.19727 92.747325)scale(0.1 -0.1)">
       <use xlink:href="#DejaVuSans-2212"/>
       <use xlink:href="#DejaVuSans-31" x="83.789062"/>
       <use xlink:href="#DejaVuSans-30" x="147.412109"/>
      </g>
     </g>
    </g>
    <g id="ytick_6">
     <g id="line2d_14">
      <path d="M 251.8225 41.157187 
C 222.701244 41.157187 193.863155 46.89344 166.958622 58.037662 
C 140.054089 69.181885 115.606338 85.51735 95.0145 106.109188 
C 74.422662 126.701026 58.087197 151.148777 46.942975 178.05331 
C 35.798753 204.957842 30.0625 233.795931 30.0625 262.917187 
C 30.0625 292.038444 35.798753 320.876533 46.942975 347.781065 
C 58.087197 374.685598 74.422662 399.133349 95.0145 419.725187 
C 115.606338 440.317025 140.054089 456.65249 166.958622 467.796713 
C 193.863155 478.940935 222.701244 484.677187 251.8225 484.677187 
C 280.943756 484.677187 309.781845 478.940935 336.686378 467.796713 
C 363.590911 456.65249 388.038662 440.317025 408.6305 419.725187 
C 429.222338 399.133349 445.557803 374.685598 456.702025 347.781065 
C 467.846247 320.876533 473.5825 292.038444 473.5825 262.917188 
C 473.5825 233.795931 467.846247 204.957842 456.702025 178.05331 
C 445.557803 151.148777 429.222338 126.701026 408.6305 106.109188 
C 388.038662 85.51735 363.590911 69.181885 336.686378 58.037662 
C 309.781845 46.89344 280.943756 41.157187 251.8225 41.157187 
" clip-path="url(#pa6b2c6a812)" style="fill: none; stroke: #b0b0b0; stroke-width: 0.8; stroke-linecap: square"/>
     </g>
     <g id="text_14">
      <!-- 0 -->
      <g transform="translate(166.958622 55.957975)scale(0.1 -0.1)">
       <use xlink:href="#DejaVuSans-30"/>
      </g>
     </g>
    </g>
   </g>
   <g id="line2d_15">
    <path d="M 251.8225 461.648989 
L 255.261729 459.950496 
L 258.639319 458.125348 
L 261.941348 455.996303 
L 268.491689 453.446887 
L 271.771479 452.719047 
L 275.094043 452.448695 
L 278.481963 452.609122 
L 281.941101 453.078551 
L 285.38321 453.249434 
L 288.905763 453.694039 
L 292.442405 454.018814 
L 299.445375 453.922107 
L 302.87468 453.446519 
L 306.212955 452.599245 
L 309.487137 451.529718 
L 312.639662 450.093166 
L 315.733721 448.52885 
L 321.273506 443.843245 
L 323.853677 441.200606 
L 325.99574 437.65839 
L 328.277723 434.638429 
L 330.24488 431.094524 
L 331.747104 426.78691 
L 333.427005 423.075045 
L 334.732843 418.848863 
L 335.632685 414.114765 
L 338.421872 407.042745 
L 340.66658 405.097436 
L 343.50096 404.089636 
L 347.077523 404.138567 
L 350.831838 404.317177 
L 354.23949 403.88208 
L 358.085996 403.933609 
L 361.616944 403.447667 
L 364.990055 402.66748 
L 368.558505 402.03774 
L 371.851725 400.995016 
L 374.999956 399.719612 
L 378.050381 398.280017 
L 380.750398 396.425934 
L 383.286069 394.380757 
L 385.586182 392.091274 
L 387.712453 389.636619 
L 389.483104 386.867352 
L 390.916117 383.829424 
L 392.190678 380.700074 
L 392.90039 377.15981 
L 393.27866 373.434852 
L 393.777083 369.887638 
L 392.884039 365.404395 
L 391.549132 360.754828 
L 390.023218 356.134749 
L 380.694108 343.445106 
L 374.673061 336.733252 
L 360.099947 325.431201 
L 340.065347 311.830996 
L 261.146427 267.874807 
L 350.617126 313.255564 
L 367.536193 319.354527 
L 379.640798 322.519839 
L 389.679608 324.295126 
L 395.040429 323.709591 
L 399.863985 322.72983 
L 404.3538 321.468468 
L 409.756891 317.29836 
L 411.82564 314.905359 
L 413.245525 312.269159 
L 414.824842 309.657357 
L 415.784985 306.850803 
L 416.410847 303.953671 
L 417.127321 298.053812 
L 417.293203 295.081434 
L 415.129169 288.782423 
L 413.564342 285.648521 
L 410.920767 282.451998 
L 408.192043 279.352289 
L 404.309651 276.258085 
L 398.326363 273.161736 
L 393.253621 270.329278 
L 375.525571 265.076433 
L 366.72019 262.917187 
L 365.667515 260.930015 
L 371.541156 258.73652 
L 381.805009 256.105093 
L 391.037099 253.182354 
L 397.010559 250.214878 
L 402.398217 247.091042 
L 407.075112 243.854564 
L 413.331776 237.336631 
L 415.150923 234.11798 
L 415.803917 231.042429 
L 416.134088 227.991681 
L 416.221207 224.962755 
L 415.703778 222.056996 
L 414.407986 219.352538 
L 410.473262 214.412782 
L 401.026789 208.611268 
L 394.658392 208.087626 
L 382.317489 207.525351 
L 367.285408 211.509789 
L 350.361278 216.967801 
L 318.485404 230.403517 
L 342.790165 216.566847 
L 360.668681 205.042647 
L 371.173537 196.759827 
L 381.57756 188.003069 
L 385.240587 182.751513 
L 392.941514 171.273428 
L 394.047465 166.985237 
L 395.365561 162.407254 
L 396.44707 157.841287 
L 395.996867 154.274009 
L 395.688566 150.516698 
L 395.159473 146.845195 
L 393.734194 143.839137 
L 392.469853 140.654309 
L 390.811803 137.770657 
L 388.723017 135.25539 
L 386.431194 132.927082 
L 383.829506 130.910181 
L 381.140427 129.004554 
L 378.006929 127.600955 
L 372.32458 124.295401 
L 369.211206 123.018776 
L 363.244803 120.303143 
L 359.957629 119.417024 
L 356.893719 118.299061 
L 353.789632 117.293032 
L 350.497787 116.625058 
L 347.556579 115.499634 
L 344.781402 114.151847 
L 342.142218 112.599934 
L 339.702176 110.705124 
L 337.499514 108.351762 
L 335.581577 105.389274 
L 333.53005 102.557092 
L 329.701308 95.905546 
L 327.51325 92.91298 
L 325.440279 89.484568 
L 323.048158 86.627499 
L 320.437261 84.169623 
L 317.85746 81.487625 
L 312.199136 77.09701 
L 309.30668 74.894905 
L 303.142644 71.387801 
L 299.940535 69.926292 
L 296.625067 68.85595 
L 293.236375 68.080224 
L 286.281437 67.490842 
L 282.77209 67.509169 
L 275.770537 67.876077 
L 272.269299 68.378885 
L 268.81133 68.733975 
L 265.402834 68.709367 
L 262.02075 68.32299 
L 255.242201 67.002665 
L 251.8225 65.662727 
L 248.358252 64.450559 
L 244.842389 63.032968 
L 241.25204 61.220794 
L 233.975741 58.927804 
L 230.250194 57.670406 
L 222.829325 56.620027 
L 219.095068 56.284316 
L 215.431579 56.534019 
L 211.792689 56.981664 
L 208.22293 57.797336 
L 204.709751 58.849454 
L 201.309589 60.320968 
L 194.635356 63.481914 
L 185.087657 69.105131 
L 182.050372 71.219842 
L 175.729417 74.580199 
L 172.707687 76.534367 
L 169.63697 78.325465 
L 166.628181 80.217382 
L 161.065038 84.795638 
L 156.04878 90.136823 
L 153.37048 92.393287 
L 150.809349 94.803073 
L 148.365525 97.351419 
L 145.858285 99.746606 
L 141.153289 104.865174 
L 136.366192 109.701492 
L 133.773535 111.821403 
L 130.959063 113.663273 
L 124.831068 116.830257 
L 121.493494 118.172163 
L 117.906326 119.309672 
L 114.485461 120.700521 
L 106.71847 122.791855 
L 103.220412 124.343498 
L 99.339062 125.620483 
L 95.628773 127.140052 
L 92.331191 129.088089 
L 88.599405 130.741731 
L 85.081153 132.64457 
L 82.047466 134.982523 
L 78.600261 137.063864 
L 75.516867 139.466654 
L 72.676136 142.081439 
L 69.509167 144.521525 
L 66.825643 147.318322 
L 61.67631 153.136233 
L 57.22601 159.448398 
L 55.084421 162.674129 
L 53.218162 166.05138 
L 51.496516 169.503647 
L 48.80932 176.743205 
L 47.786732 180.481386 
L 46.298821 188.112686 
L 45.939524 192.025994 
L 45.722107 195.95111 
L 45.338772 199.788777 
L 46.0464 211.611444 
L 47.898424 219.571787 
L 48.713103 223.43672 
L 50.835391 227.477737 
L 52.520787 231.350897 
L 54.393815 235.170395 
L 57.836672 239.098723 
L 60.781087 242.837926 
L 64.744001 246.54994 
L 78.359919 253.826399 
L 88.638381 257.218672 
L 106.050285 260.372724 
L 128.693911 262.917187 
L 178.074609 264.204462 
L 114.53778 267.711276 
L 97.543006 271.002633 
L 83.037723 274.719769 
L 74.034476 278.471624 
L 68.440184 282.191446 
L 61.978755 286.227068 
L 58.017706 290.154675 
L 54.912066 294.104736 
L 51.443232 298.249459 
L 49.49879 302.244933 
L 46.15621 310.398992 
L 44.596096 318.443335 
L 43.981394 322.514666 
L 44.147335 334.425481 
L 45.665332 342.05351 
L 46.67172 345.803483 
L 49.314691 353.079473 
L 52.505932 360.130373 
L 54.36417 363.527232 
L 56.336477 366.85895 
L 58.431044 370.115822 
L 65.623442 379.267272 
L 68.346976 382.067586 
L 70.939668 384.924198 
L 73.748914 387.605655 
L 76.825189 390.060176 
L 79.716375 392.608455 
L 82.897175 394.896116 
L 86.386741 396.884423 
L 89.5431 399.085772 
L 93.140391 400.85744 
L 96.882892 402.425437 
L 100.299387 404.214776 
L 104.30947 405.368865 
L 108.138641 406.601047 
L 111.702699 408.015489 
L 115.766313 408.819585 
L 119.343233 410.050319 
L 122.780287 411.363273 
L 126.46572 412.311581 
L 129.698552 413.727703 
L 135.872522 416.788006 
L 138.70433 418.610992 
L 141.402246 420.613653 
L 148.694711 427.956149 
L 151.088273 430.567095 
L 153.671125 432.920356 
L 156.168473 435.481619 
L 158.747906 437.96504 
L 164.304466 442.355748 
L 167.183534 444.426035 
L 176.197812 450.094859 
L 182.42082 453.596735 
L 195.367456 459.799323 
L 201.980077 462.824226 
L 208.86622 465.010598 
L 212.348871 465.991404 
L 219.423352 467.477355 
L 223.011101 467.920947 
L 226.619503 468.179124 
L 230.263097 468.041202 
L 237.538565 467.186972 
L 248.317041 463.744812 
L 248.317041 463.744812 
" clip-path="url(#pa6b2c6a812)" style="fill: none; stroke: #ff0000; stroke-width: 1.5; stroke-linecap: square"/>
   </g>
   <g id="line2d_16">
    <path d="M 251.8225 66.087214 
L 244.873533 63.924802 
L 241.34403 62.976062 
L 237.78259 62.137113 
L 234.193833 61.420602 
L 230.583184 60.838595 
L 226.955809 60.394243 
L 223.318124 60.098015 
L 219.675639 59.949895 
L 216.035238 59.957536 
L 212.402818 60.120502 
L 208.785084 60.442064 
L 205.188091 60.921369 
L 201.61786 61.557373 
L 198.080374 62.348842 
L 194.582671 63.29818 
L 191.130841 64.403717 
L 187.732151 65.667376 
L 184.390179 67.079506 
L 181.113356 68.645412 
L 177.907715 70.362588 
L 174.777711 72.224644 
L 171.73213 74.236101 
L 168.775319 76.390164 
L 165.914637 78.687181 
L 163.15236 81.116458 
L 160.494853 83.676589 
L 157.944412 86.358183 
L 155.501898 89.150221 
L 153.164807 92.037051 
L 148.772787 98.003174 
L 142.560239 106.874507 
L 140.427005 109.594442 
L 138.168328 112.093008 
L 135.722554 114.316033 
L 133.039031 116.231819 
L 130.092691 117.84525 
L 126.879237 119.186405 
L 123.42793 120.320571 
L 115.988319 122.256775 
L 108.176187 124.199556 
L 104.242625 125.296727 
L 100.336326 126.518423 
L 96.482276 127.881991 
L 92.700292 129.397802 
L 89.007897 131.072521 
L 85.41377 132.904439 
L 81.926619 134.891458 
L 78.561602 137.035777 
L 75.31789 139.327329 
L 72.207355 141.765243 
L 69.231978 144.341516 
L 66.393391 147.04822 
L 63.703131 149.883667 
L 61.159026 152.83758 
L 58.772357 155.907746 
L 56.540401 159.083854 
L 54.470611 162.361378 
L 52.570355 165.735423 
L 50.839685 169.197362 
L 49.285588 172.741945 
L 47.914939 176.363563 
L 46.734486 180.056251 
L 45.747119 183.81226 
L 44.962961 187.626473 
L 44.392067 191.493162 
L 44.04061 195.404759 
L 43.922176 199.35568 
L 44.050294 203.339466 
L 44.442241 207.349815 
L 45.111369 211.378314 
L 46.08249 215.418364 
L 47.38428 219.462502 
L 49.049268 223.502064 
L 51.129507 227.529598 
L 53.676309 231.533914 
L 56.776356 235.50524 
L 60.540093 239.430661 
L 65.133386 243.295371 
L 70.813355 247.080939 
L 78.0127 250.763222 
L 87.53392 254.307188 
L 101.190118 257.656989 
L 124.611777 260.696716 
L 239.076354 262.917187 
L 126.124726 265.11125 
L 101.946247 268.150982 
L 88.042924 271.500511 
L 78.394045 275.044486 
L 71.118806 278.726712 
L 65.386842 282.512365 
L 60.757473 286.377023 
L 56.964845 290.302645 
L 53.843463 294.273986 
L 51.278526 298.278501 
L 49.186079 302.305718 
L 47.505026 306.346207 
L 46.19113 310.39093 
L 45.211827 314.431014 
L 44.534554 318.459825 
L 44.138333 322.469664 
L 44.002146 326.454246 
L 44.112566 330.406236 
L 44.456074 334.319174 
L 45.022832 338.186111 
L 45.799165 342.002136 
L 46.782483 345.758732 
L 47.958925 349.452141 
L 49.321966 353.076234 
L 50.872166 356.621867 
L 52.595408 360.086733 
L 54.4919 363.46215 
L 56.554465 366.743043 
L 58.782805 369.920838 
L 61.165923 372.992813 
L 63.703131 375.950708 
L 66.390014 378.788265 
L 69.218619 381.501534 
L 72.190849 384.080266 
L 75.298319 386.52075 
L 78.532608 388.819663 
L 81.894817 390.966882 
L 85.372977 392.961807 
L 88.964572 394.796937 
L 92.654536 396.474967 
L 96.431186 397.996796 
L 100.283059 399.363913 
L 104.187291 400.589247 
L 112.050823 402.688864 
L 119.736742 404.561821 
L 123.395956 405.549315 
L 126.86095 406.669007 
L 130.087572 407.995226 
L 133.051561 409.587082 
L 135.749521 411.483825 
L 138.209068 413.687304 
L 140.478498 416.169059 
L 142.617339 418.87832 
L 146.745316 424.721861 
L 150.982446 430.743221 
L 153.217171 433.706627 
L 155.550142 436.597119 
L 157.988344 439.393567 
L 160.534444 442.080085 
L 163.187796 444.645262 
L 165.944929 447.082233 
L 168.802853 449.382368 
L 171.757025 451.539626 
L 174.798595 453.558042 
L 177.924839 455.427176 
L 181.128338 457.147802 
L 184.403143 458.717218 
L 187.741995 460.136702 
L 191.140155 461.400194 
L 194.590354 462.5094 
L 198.085527 463.466301 
L 201.621713 464.261547 
L 205.190778 464.901366 
L 208.78674 465.384521 
L 212.404337 465.706055 
L 216.035929 465.872917 
L 219.675639 465.88448 
L 223.317016 465.744247 
L 226.954839 465.448037 
L 230.581519 465.011621 
L 234.19241 464.430037 
L 237.781117 463.718315 
L 241.342633 462.884956 
L 248.366578 460.906839 
L 255.238775 458.635425 
L 268.539583 453.994319 
L 275.043088 452.033697 
L 281.53059 450.486687 
L 288.057814 449.331719 
L 297.970494 448.00668 
L 304.637896 447.106363 
L 311.308238 445.995464 
L 317.931005 444.548813 
L 321.20929 443.675955 
L 324.456325 442.692212 
L 327.6699 441.602464 
L 330.840002 440.393404 
L 333.964061 439.070334 
L 337.038066 437.63499 
L 340.054448 436.082135 
L 343.007071 434.410423 
L 345.893487 432.62574 
L 348.705592 430.723625 
L 351.438983 428.706856 
L 354.085121 426.571591 
L 356.637261 424.317766 
L 359.088529 421.945615 
L 361.425078 419.445891 
L 363.641642 416.823033 
L 365.723507 414.068929 
L 367.660126 411.182587 
L 369.433168 408.154267 
L 371.028531 404.981403 
L 372.423854 401.653175 
L 373.595758 398.160092 
L 374.519903 394.494043 
L 375.157213 390.634021 
L 375.472405 386.567092 
L 375.411665 382.265857 
L 374.907126 377.695458 
L 373.867193 372.806722 
L 372.166102 367.530285 
L 369.60226 361.746141 
L 365.924461 355.315134 
L 360.584893 347.891682 
L 352.701529 338.934988 
L 340.417931 327.285536 
L 324.239724 313.624274 
L 333.036703 317.696859 
L 350.678513 327.115033 
L 363.333103 332.596746 
L 372.860607 335.64422 
L 380.560236 337.243954 
L 386.957496 337.823739 
L 392.46686 337.69912 
L 397.263117 337.022883 
L 401.486999 335.913441 
L 405.217523 334.446461 
L 408.519692 332.683272 
L 411.428865 330.66607 
L 413.982549 328.4341 
L 416.190525 326.012161 
L 418.071159 323.426751 
L 419.636521 320.700189 
L 420.880728 317.847536 
L 421.806031 314.886368 
L 422.411527 311.832804 
L 422.685365 308.699754 
L 422.612192 305.49984 
L 422.176993 302.246621 
L 421.357328 298.952928 
L 420.111512 295.629258 
L 418.401892 292.289629 
L 416.163554 288.946253 
L 413.319857 285.614161 
L 409.750865 282.308353 
L 405.285229 279.04677 
L 399.632679 275.848902 
L 392.367837 272.745075 
L 382.536702 269.767629 
L 368.150516 266.979451 
L 342.204865 264.494818 
L 271.736337 262.917187 
L 350.207567 261.19987 
L 372.130141 258.715952 
L 385.161254 255.9292 
L 394.274565 252.955969 
L 401.1401 249.85359 
L 406.512903 246.658571 
L 410.770577 243.400818 
L 414.179496 240.0994 
L 416.891164 236.77288 
L 419.017576 233.436185 
L 420.635304 230.103303 
L 421.797466 226.787893 
L 422.549472 223.50176 
L 422.913566 220.259394 
L 422.923839 217.070722 
L 422.587606 213.951081 
L 421.92408 210.911915 
L 420.937536 207.968381 
L 419.632756 205.135483 
L 418.007547 202.430777 
L 416.064128 199.870733 
L 413.786868 197.479335 
L 411.161284 195.281886 
L 408.170465 193.306589 
L 404.777229 191.593226 
L 400.939405 190.188013 
L 396.58899 189.154976 
L 391.619518 188.585794 
L 385.912662 188.589797 
L 379.215299 189.366921 
L 371.0857 191.256627 
L 360.766605 194.841355 
L 346.503978 201.430317 
L 325.278719 213.370342 
L 323.783058 212.529863 
L 343.059599 196.629555 
L 354.768663 185.341689 
L 362.185221 176.69238 
L 367.193261 169.491787 
L 370.639406 163.217966 
L 373.02261 157.559539 
L 374.589247 152.377512 
L 375.518706 147.568609 
L 375.932994 143.065076 
L 375.917291 138.822397 
L 375.533411 134.810789 
L 374.832214 131.005419 
L 373.85688 127.384278 
L 372.635463 123.937771 
L 371.194906 120.654694 
L 369.560973 117.522282 
L 367.750835 114.535686 
L 365.783418 111.685941 
L 363.669729 108.972683 
L 361.425078 106.388484 
L 359.061808 103.928375 
L 356.589548 101.590081 
L 354.017596 99.370847 
L 351.354895 97.267464 
L 348.606041 95.283177 
L 345.781516 93.410636 
L 342.883686 91.656004 
L 339.922477 90.011247 
L 336.900162 88.482129 
L 333.822699 87.067194 
L 330.695854 85.764734 
L 327.5252 84.572802 
L 324.314613 83.492912 
L 317.796173 81.656011 
L 311.185186 80.217626 
L 304.531429 79.099308 
L 284.739446 76.235908 
L 278.255297 74.838061 
L 271.781053 73.024243 
L 265.253391 70.846492 
L 255.237711 67.259866 
L 255.237711 67.259866 
" clip-path="url(#pa6b2c6a812)" style="fill: none; stroke-dasharray: 5.55,2.4; stroke-dashoffset: 0; stroke: #0000ff; stroke-width: 1.5"/>
   </g>
   <g id="patch_3">
    <path d="M 251.8225 41.157187 
C 222.701244 41.157187 193.863155 46.89344 166.958622 58.037662 
C 140.054089 69.181885 115.606338 85.51735 95.0145 106.109188 
C 74.422662 126.701026 58.087197 151.148777 46.942975 178.05331 
C 35.798753 204.957842 30.0625 233.795931 30.0625 262.917187 
C 30.0625 292.038444 35.798753 320.876533 46.942975 347.781065 
C 58.087197 374.685598 74.422662 399.133349 95.0145 419.725187 
C 115.606338 440.317025 140.054089 456.65249 166.958622 467.796713 
C 193.863155 478.940935 222.701244 484.677187 251.8225 484.677187 
C 280.943756 484.677187 309.781845 478.940935 336.686378 467.796713 
C 363.590911 456.65249 388.038662 440.317025 408.6305 419.725187 
C 429.222338 399.133349 445.557803 374.685598 456.702025 347.781065 
C 467.846247 320.876533 473.5825 292.038444 473.5825 262.917188 
C 473.5825 233.795931 467.846247 204.957842 456.702025 178.05331 
C 445.557803 151.148777 429.222338 126.701026 408.6305 106.109188 
C 388.038662 85.51735 363.590911 69.181885 336.686378 58.037662 
C 309.781845 46.89344 280.943756 41.157187 251.8225 41.157187 
" style="fill: none; stroke: #000000; stroke-width: 0.8; stroke-linejoin: miter; stroke-linecap: square"/>
   </g>
   <g id="text_15">
    <g id="patch_4">
     <path d="M 384.8785 509.853187 
L 488.976938 509.853187 
Q 491.976938 509.853187 491.976938 506.853187 
L 491.976938 473.945062 
Q 491.976938 470.945062 488.976938 470.945062 
L 384.8785 470.945062 
Q 381.8785 470.945062 381.8785 473.945062 
L 381.8785 506.853187 
Q 381.8785 509.853187 384.8785 509.853187 
z
" style="fill: #ffffff; stroke: #808080; stroke-linejoin: miter"/>
    </g>
    <!-- G_cst: 5.8 dBi -->
    <g transform="translate(384.8785 481.821625)scale(0.1 -0.1)">
     <defs>
      <path id="DejaVuSans-47" d="M 3809 666 
L 3809 1919 
L 2778 1919 
L 2778 2438 
L 4434 2438 
L 4434 434 
Q 4069 175 3628 42 
Q 3188 -91 2688 -91 
Q 1594 -91 976 548 
Q 359 1188 359 2328 
Q 359 3472 976 4111 
Q 1594 4750 2688 4750 
Q 3144 4750 3555 4637 
Q 3966 4525 4313 4306 
L 4313 3634 
Q 3963 3931 3569 4081 
Q 3175 4231 2741 4231 
Q 1884 4231 1454 3753 
Q 1025 3275 1025 2328 
Q 1025 1384 1454 906 
Q 1884 428 2741 428 
Q 3075 428 3337 486 
Q 3600 544 3809 666 
z
" transform="scale(0.015625)"/>
      <path id="DejaVuSans-5f" d="M 3263 -1063 
L 3263 -1509 
L -63 -1509 
L -63 -1063 
L 3263 -1063 
z
" transform="scale(0.015625)"/>
      <path id="DejaVuSans-63" d="M 3122 3366 
L 3122 2828 
Q 2878 2963 2633 3030 
Q 2388 3097 2138 3097 
Q 1578 3097 1268 2742 
Q 959 2388 959 1747 
Q 959 1106 1268 751 
Q 1578 397 2138 397 
Q 2388 397 2633 464 
Q 2878 531 3122 666 
L 3122 134 
Q 2881 22 2623 -34 
Q 2366 -91 2075 -91 
Q 1284 -91 818 406 
Q 353 903 353 1747 
Q 353 2603 823 3093 
Q 1294 3584 2113 3584 
Q 2378 3584 2631 3529 
Q 2884 3475 3122 3366 
z
" transform="scale(0.015625)"/>
      <path id="DejaVuSans-73" d="M 2834 3397 
L 2834 2853 
Q 2591 2978 2328 3040 
Q 2066 3103 1784 3103 
Q 1356 3103 1142 2972 
Q 928 2841 928 2578 
Q 928 2378 1081 2264 
Q 1234 2150 1697 2047 
L 1894 2003 
Q 2506 1872 2764 1633 
Q 3022 1394 3022 966 
Q 3022 478 2636 193 
Q 2250 -91 1575 -91 
Q 1294 -91 989 -36 
Q 684 19 347 128 
L 347 722 
Q 666 556 975 473 
Q 1284 391 1588 391 
Q 1994 391 2212 530 
Q 2431 669 2431 922 
Q 2431 1156 2273 1281 
Q 2116 1406 1581 1522 
L 1381 1569 
Q 847 1681 609 1914 
Q 372 2147 372 2553 
Q 372 3047 722 3315 
Q 1072 3584 1716 3584 
Q 2034 3584 2315 3537 
Q 2597 3491 2834 3397 
z
" transform="scale(0.015625)"/>
      <path id="DejaVuSans-74" d="M 1172 4494 
L 1172 3500 
L 2356 3500 
L 2356 3053 
L 1172 3053 
L 1172 1153 
Q 1172 725 1289 603 
Q 1406 481 1766 481 
L 2356 481 
L 2356 0 
L 1766 0 
Q 1100 0 847 248 
Q 594 497 594 1153 
L 594 3053 
L 172 3053 
L 172 3500 
L 594 3500 
L 594 4494 
L 1172 4494 
z
" transform="scale(0.015625)"/>
      <path id="DejaVuSans-3a" d="M 750 794 
L 1409 794 
L 1409 0 
L 750 0 
L 750 794 
z
M 750 3309 
L 1409 3309 
L 1409 2516 
L 750 2516 
L 750 3309 
z
" transform="scale(0.015625)"/>
      <path id="DejaVuSans-20" transform="scale(0.015625)"/>
      <path id="DejaVuSans-2e" d="M 684 794 
L 1344 794 
L 1344 0 
L 684 0 
L 684 794 
z
" transform="scale(0.015625)"/>
      <path id="DejaVuSans-64" d="M 2906 2969 
L 2906 4863 
L 3481 4863 
L 3481 0 
L 2906 0 
L 2906 525 
Q 2725 213 2448 61 
Q 2172 -91 1784 -91 
Q 1150 -91 751 415 
Q 353 922 353 1747 
Q 353 2572 751 3078 
Q 1150 3584 1784 3584 
Q 2172 3584 2448 3432 
Q 2725 3281 2906 2969 
z
M 947 1747 
Q 947 1113 1208 752 
Q 1469 391 1925 391 
Q 2381 391 2643 752 
Q 2906 1113 2906 1747 
Q 2906 2381 2643 2742 
Q 2381 3103 1925 3103 
Q 1469 3103 1208 2742 
Q 947 2381 947 1747 
z
" transform="scale(0.015625)"/>
      <path id="DejaVuSans-42" d="M 1259 2228 
L 1259 519 
L 2272 519 
Q 2781 519 3026 730 
Q 3272 941 3272 1375 
Q 3272 1813 3026 2020 
Q 2781 2228 2272 2228 
L 1259 2228 
z
M 1259 4147 
L 1259 2741 
L 2194 2741 
Q 2656 2741 2882 2914 
Q 3109 3088 3109 3444 
Q 3109 3797 2882 3972 
Q 2656 4147 2194 4147 
L 1259 4147 
z
M 628 4666 
L 2241 4666 
Q 2963 4666 3353 4366 
Q 3744 4066 3744 3513 
Q 3744 3084 3544 2831 
Q 3344 2578 2956 2516 
Q 3422 2416 3680 2098 
Q 3938 1781 3938 1306 
Q 3938 681 3513 340 
Q 3088 0 2303 0 
L 628 0 
L 628 4666 
z
" transform="scale(0.015625)"/>
      <path id="DejaVuSans-69" d="M 603 3500 
L 1178 3500 
L 1178 0 
L 603 0 
L 603 3500 
z
M 603 4863 
L 1178 4863 
L 1178 4134 
L 603 4134 
L 603 4863 
z
" transform="scale(0.015625)"/>
     </defs>
     <use xlink:href="#DejaVuSans-47"/>
     <use xlink:href="#DejaVuSans-5f" x="77.490234"/>
     <use xlink:href="#DejaVuSans-63" x="127.490234"/>
     <use xlink:href="#DejaVuSans-73" x="182.470703"/>
     <use xlink:href="#DejaVuSans-74" x="234.570312"/>
     <use xlink:href="#DejaVuSans-3a" x="273.779297"/>
     <use xlink:href="#DejaVuSans-20" x="307.470703"/>
     <use xlink:href="#DejaVuSans-35" x="339.257812"/>
     <use xlink:href="#DejaVuSans-2e" x="402.880859"/>
     <use xlink:href="#DejaVuSans-38" x="434.667969"/>
     <use xlink:href="#DejaVuSans-20" x="498.291016"/>
     <use xlink:href="#DejaVuSans-64" x="530.078125"/>
     <use xlink:href="#DejaVuSans-42" x="593.554688"/>
     <use xlink:href="#DejaVuSans-69" x="662.158203"/>
    </g>
    <!-- G_inpe: 2.9 dBi -->
    <g transform="translate(384.8785 493.297562)scale(0.1 -0.1)">
     <defs>
      <path id="DejaVuSans-6e" d="M 3513 2113 
L 3513 0 
L 2938 0 
L 2938 2094 
Q 2938 2591 2744 2837 
Q 2550 3084 2163 3084 
Q 1697 3084 1428 2787 
Q 1159 2491 1159 1978 
L 1159 0 
L 581 0 
L 581 3500 
L 1159 3500 
L 1159 2956 
Q 1366 3272 1645 3428 
Q 1925 3584 2291 3584 
Q 2894 3584 3203 3211 
Q 3513 2838 3513 2113 
z
" transform="scale(0.015625)"/>
      <path id="DejaVuSans-70" d="M 1159 525 
L 1159 -1331 
L 581 -1331 
L 581 3500 
L 1159 3500 
L 1159 2969 
Q 1341 3281 1617 3432 
Q 1894 3584 2278 3584 
Q 2916 3584 3314 3078 
Q 3713 2572 3713 1747 
Q 3713 922 3314 415 
Q 2916 -91 2278 -91 
Q 1894 -91 1617 61 
Q 1341 213 1159 525 
z
M 3116 1747 
Q 3116 2381 2855 2742 
Q 2594 3103 2138 3103 
Q 1681 3103 1420 2742 
Q 1159 2381 1159 1747 
Q 1159 1113 1420 752 
Q 1681 391 2138 391 
Q 2594 391 2855 752 
Q 3116 1113 3116 1747 
z
" transform="scale(0.015625)"/>
      <path id="DejaVuSans-65" d="M 3597 1894 
L 3597 1613 
L 953 1613 
Q 991 1019 1311 708 
Q 1631 397 2203 397 
Q 2534 397 2845 478 
Q 3156 559 3463 722 
L 3463 178 
Q 3153 47 2828 -22 
Q 2503 -91 2169 -91 
Q 1331 -91 842 396 
Q 353 884 353 1716 
Q 353 2575 817 3079 
Q 1281 3584 2069 3584 
Q 2775 3584 3186 3129 
Q 3597 2675 3597 1894 
z
M 3022 2063 
Q 3016 2534 2758 2815 
Q 2500 3097 2075 3097 
Q 1594 3097 1305 2825 
Q 1016 2553 972 2059 
L 3022 2063 
z
" transform="scale(0.015625)"/>
     </defs>
     <use xlink:href="#DejaVuSans-47"/>
     <use xlink:href="#DejaVuSans-5f" x="77.490234"/>
     <use xlink:href="#DejaVuSans-69" x="127.490234"/>
     <use xlink:href="#DejaVuSans-6e" x="155.273438"/>
     <use xlink:href="#DejaVuSans-70" x="218.652344"/>
     <use xlink:href="#DejaVuSans-65" x="282.128906"/>
     <use xlink:href="#DejaVuSans-3a" x="343.652344"/>
     <use xlink:href="#DejaVuSans-20" x="377.34375"/>
     <use xlink:href="#DejaVuSans-32" x="409.130859"/>
     <use xlink:href="#DejaVuSans-2e" x="472.753906"/>
     <use xlink:href="#DejaVuSans-39" x="504.541016"/>
     <use xlink:href="#DejaVuSans-20" x="568.164062"/>
     <use xlink:href="#DejaVuSans-64" x="599.951172"/>
     <use xlink:href="#DejaVuSans-42" x="663.427734"/>
     <use xlink:href="#DejaVuSans-69" x="732.03125"/>
    </g>
    <!-- Pearson Coef: -0.193 -->
    <g transform="translate(384.8785 504.7735)scale(0.1 -0.1)">
     <defs>
      <path id="DejaVuSans-50" d="M 1259 4147 
L 1259 2394 
L 2053 2394 
Q 2494 2394 2734 2622 
Q 2975 2850 2975 3272 
Q 2975 3691 2734 3919 
Q 2494 4147 2053 4147 
L 1259 4147 
z
M 628 4666 
L 2053 4666 
Q 2838 4666 3239 4311 
Q 3641 3956 3641 3272 
Q 3641 2581 3239 2228 
Q 2838 1875 2053 1875 
L 1259 1875 
L 1259 0 
L 628 0 
L 628 4666 
z
" transform="scale(0.015625)"/>
      <path id="DejaVuSans-61" d="M 2194 1759 
Q 1497 1759 1228 1600 
Q 959 1441 959 1056 
Q 959 750 1161 570 
Q 1363 391 1709 391 
Q 2188 391 2477 730 
Q 2766 1069 2766 1631 
L 2766 1759 
L 2194 1759 
z
M 3341 1997 
L 3341 0 
L 2766 0 
L 2766 531 
Q 2569 213 2275 61 
Q 1981 -91 1556 -91 
Q 1019 -91 701 211 
Q 384 513 384 1019 
Q 384 1609 779 1909 
Q 1175 2209 1959 2209 
L 2766 2209 
L 2766 2266 
Q 2766 2663 2505 2880 
Q 2244 3097 1772 3097 
Q 1472 3097 1187 3025 
Q 903 2953 641 2809 
L 641 3341 
Q 956 3463 1253 3523 
Q 1550 3584 1831 3584 
Q 2591 3584 2966 3190 
Q 3341 2797 3341 1997 
z
" transform="scale(0.015625)"/>
      <path id="DejaVuSans-72" d="M 2631 2963 
Q 2534 3019 2420 3045 
Q 2306 3072 2169 3072 
Q 1681 3072 1420 2755 
Q 1159 2438 1159 1844 
L 1159 0 
L 581 0 
L 581 3500 
L 1159 3500 
L 1159 2956 
Q 1341 3275 1631 3429 
Q 1922 3584 2338 3584 
Q 2397 3584 2469 3576 
Q 2541 3569 2628 3553 
L 2631 2963 
z
" transform="scale(0.015625)"/>
      <path id="DejaVuSans-6f" d="M 1959 3097 
Q 1497 3097 1228 2736 
Q 959 2375 959 1747 
Q 959 1119 1226 758 
Q 1494 397 1959 397 
Q 2419 397 2687 759 
Q 2956 1122 2956 1747 
Q 2956 2369 2687 2733 
Q 2419 3097 1959 3097 
z
M 1959 3584 
Q 2709 3584 3137 3096 
Q 3566 2609 3566 1747 
Q 3566 888 3137 398 
Q 2709 -91 1959 -91 
Q 1206 -91 779 398 
Q 353 888 353 1747 
Q 353 2609 779 3096 
Q 1206 3584 1959 3584 
z
" transform="scale(0.015625)"/>
      <path id="DejaVuSans-43" d="M 4122 4306 
L 4122 3641 
Q 3803 3938 3442 4084 
Q 3081 4231 2675 4231 
Q 1875 4231 1450 3742 
Q 1025 3253 1025 2328 
Q 1025 1406 1450 917 
Q 1875 428 2675 428 
Q 3081 428 3442 575 
Q 3803 722 4122 1019 
L 4122 359 
Q 3791 134 3420 21 
Q 3050 -91 2638 -91 
Q 1578 -91 968 557 
Q 359 1206 359 2328 
Q 359 3453 968 4101 
Q 1578 4750 2638 4750 
Q 3056 4750 3426 4639 
Q 3797 4528 4122 4306 
z
" transform="scale(0.015625)"/>
      <path id="DejaVuSans-66" d="M 2375 4863 
L 2375 4384 
L 1825 4384 
Q 1516 4384 1395 4259 
Q 1275 4134 1275 3809 
L 1275 3500 
L 2222 3500 
L 2222 3053 
L 1275 3053 
L 1275 0 
L 697 0 
L 697 3053 
L 147 3053 
L 147 3500 
L 697 3500 
L 697 3744 
Q 697 4328 969 4595 
Q 1241 4863 1831 4863 
L 2375 4863 
z
" transform="scale(0.015625)"/>
      <path id="DejaVuSans-2d" d="M 313 2009 
L 1997 2009 
L 1997 1497 
L 313 1497 
L 313 2009 
z
" transform="scale(0.015625)"/>
     </defs>
     <use xlink:href="#DejaVuSans-50"/>
     <use xlink:href="#DejaVuSans-65" x="56.677734"/>
     <use xlink:href="#DejaVuSans-61" x="118.201172"/>
     <use xlink:href="#DejaVuSans-72" x="179.480469"/>
     <use xlink:href="#DejaVuSans-73" x="220.59375"/>
     <use xlink:href="#DejaVuSans-6f" x="272.693359"/>
     <use xlink:href="#DejaVuSans-6e" x="333.875"/>
     <use xlink:href="#DejaVuSans-20" x="397.253906"/>
     <use xlink:href="#DejaVuSans-43" x="429.041016"/>
     <use xlink:href="#DejaVuSans-6f" x="498.865234"/>
     <use xlink:href="#DejaVuSans-65" x="560.046875"/>
     <use xlink:href="#DejaVuSans-66" x="621.570312"/>
     <use xlink:href="#DejaVuSans-3a" x="653.150391"/>
     <use xlink:href="#DejaVuSans-20" x="686.841797"/>
     <use xlink:href="#DejaVuSans-2d" x="718.628906"/>
     <use xlink:href="#DejaVuSans-30" x="754.712891"/>
     <use xlink:href="#DejaVuSans-2e" x="818.335938"/>
     <use xlink:href="#DejaVuSans-31" x="850.123047"/>
     <use xlink:href="#DejaVuSans-39" x="913.746094"/>
     <use xlink:href="#DejaVuSans-33" x="977.369141"/>
    </g>
   </g>
   <g id="text_16">
    <g id="patch_5">
     <path d="M 52.2385 56.370937 
L 140.94475 56.370937 
Q 144.54475 56.370937 144.54475 52.770937 
L 144.54475 41.157187 
Q 144.54475 37.557187 140.94475 37.557187 
L 52.2385 37.557187 
Q 48.6385 37.557187 48.6385 41.157187 
L 48.6385 52.770937 
Q 48.6385 56.370937 52.2385 56.370937 
z
" style="fill: #ffffff; stroke: #808080; stroke-linejoin: miter"/>
    </g>
    <!-- Freq: 10.5 GHz -->
    <g transform="translate(52.2385 50.275312)scale(0.12 -0.12)">
     <defs>
      <path id="DejaVuSans-46" d="M 628 4666 
L 3309 4666 
L 3309 4134 
L 1259 4134 
L 1259 2759 
L 3109 2759 
L 3109 2228 
L 1259 2228 
L 1259 0 
L 628 0 
L 628 4666 
z
" transform="scale(0.015625)"/>
      <path id="DejaVuSans-71" d="M 947 1747 
Q 947 1113 1208 752 
Q 1469 391 1925 391 
Q 2381 391 2643 752 
Q 2906 1113 2906 1747 
Q 2906 2381 2643 2742 
Q 2381 3103 1925 3103 
Q 1469 3103 1208 2742 
Q 947 2381 947 1747 
z
M 2906 525 
Q 2725 213 2448 61 
Q 2172 -91 1784 -91 
Q 1150 -91 751 415 
Q 353 922 353 1747 
Q 353 2572 751 3078 
Q 1150 3584 1784 3584 
Q 2172 3584 2448 3432 
Q 2725 3281 2906 2969 
L 2906 3500 
L 3481 3500 
L 3481 -1331 
L 2906 -1331 
L 2906 525 
z
" transform="scale(0.015625)"/>
      <path id="DejaVuSans-48" d="M 628 4666 
L 1259 4666 
L 1259 2753 
L 3553 2753 
L 3553 4666 
L 4184 4666 
L 4184 0 
L 3553 0 
L 3553 2222 
L 1259 2222 
L 1259 0 
L 628 0 
L 628 4666 
z
" transform="scale(0.015625)"/>
      <path id="DejaVuSans-7a" d="M 353 3500 
L 3084 3500 
L 3084 2975 
L 922 459 
L 3084 459 
L 3084 0 
L 275 0 
L 275 525 
L 2438 3041 
L 353 3041 
L 353 3500 
z
" transform="scale(0.015625)"/>
     </defs>
     <use xlink:href="#DejaVuSans-46"/>
     <use xlink:href="#DejaVuSans-72" x="50.269531"/>
     <use xlink:href="#DejaVuSans-65" x="89.132812"/>
     <use xlink:href="#DejaVuSans-71" x="150.65625"/>
     <use xlink:href="#DejaVuSans-3a" x="214.132812"/>
     <use xlink:href="#DejaVuSans-20" x="247.824219"/>
     <use xlink:href="#DejaVuSans-31" x="279.611328"/>
     <use xlink:href="#DejaVuSans-30" x="343.234375"/>
     <use xlink:href="#DejaVuSans-2e" x="406.857422"/>
     <use xlink:href="#DejaVuSans-35" x="438.644531"/>
     <use xlink:href="#DejaVuSans-20" x="502.267578"/>
     <use xlink:href="#DejaVuSans-47" x="534.054688"/>
     <use xlink:href="#DejaVuSans-48" x="611.544922"/>
     <use xlink:href="#DejaVuSans-7a" x="686.740234"/>
    </g>
   </g>
   <g id="text_17">
    <!-- Radiation Diagram - 4AVHF10 -->
    <g transform="translate(162.578125 16.318125)scale(0.12 -0.12)">
     <defs>
      <path id="DejaVuSans-52" d="M 2841 2188 
Q 3044 2119 3236 1894 
Q 3428 1669 3622 1275 
L 4263 0 
L 3584 0 
L 2988 1197 
Q 2756 1666 2539 1819 
Q 2322 1972 1947 1972 
L 1259 1972 
L 1259 0 
L 628 0 
L 628 4666 
L 2053 4666 
Q 2853 4666 3247 4331 
Q 3641 3997 3641 3322 
Q 3641 2881 3436 2590 
Q 3231 2300 2841 2188 
z
M 1259 4147 
L 1259 2491 
L 2053 2491 
Q 2509 2491 2742 2702 
Q 2975 2913 2975 3322 
Q 2975 3731 2742 3939 
Q 2509 4147 2053 4147 
L 1259 4147 
z
" transform="scale(0.015625)"/>
      <path id="DejaVuSans-44" d="M 1259 4147 
L 1259 519 
L 2022 519 
Q 2988 519 3436 956 
Q 3884 1394 3884 2338 
Q 3884 3275 3436 3711 
Q 2988 4147 2022 4147 
L 1259 4147 
z
M 628 4666 
L 1925 4666 
Q 3281 4666 3915 4102 
Q 4550 3538 4550 2338 
Q 4550 1131 3912 565 
Q 3275 0 1925 0 
L 628 0 
L 628 4666 
z
" transform="scale(0.015625)"/>
      <path id="DejaVuSans-67" d="M 2906 1791 
Q 2906 2416 2648 2759 
Q 2391 3103 1925 3103 
Q 1463 3103 1205 2759 
Q 947 2416 947 1791 
Q 947 1169 1205 825 
Q 1463 481 1925 481 
Q 2391 481 2648 825 
Q 2906 1169 2906 1791 
z
M 3481 434 
Q 3481 -459 3084 -895 
Q 2688 -1331 1869 -1331 
Q 1566 -1331 1297 -1286 
Q 1028 -1241 775 -1147 
L 775 -588 
Q 1028 -725 1275 -790 
Q 1522 -856 1778 -856 
Q 2344 -856 2625 -561 
Q 2906 -266 2906 331 
L 2906 616 
Q 2728 306 2450 153 
Q 2172 0 1784 0 
Q 1141 0 747 490 
Q 353 981 353 1791 
Q 353 2603 747 3093 
Q 1141 3584 1784 3584 
Q 2172 3584 2450 3431 
Q 2728 3278 2906 2969 
L 2906 3500 
L 3481 3500 
L 3481 434 
z
" transform="scale(0.015625)"/>
      <path id="DejaVuSans-6d" d="M 3328 2828 
Q 3544 3216 3844 3400 
Q 4144 3584 4550 3584 
Q 5097 3584 5394 3201 
Q 5691 2819 5691 2113 
L 5691 0 
L 5113 0 
L 5113 2094 
Q 5113 2597 4934 2840 
Q 4756 3084 4391 3084 
Q 3944 3084 3684 2787 
Q 3425 2491 3425 1978 
L 3425 0 
L 2847 0 
L 2847 2094 
Q 2847 2600 2669 2842 
Q 2491 3084 2119 3084 
Q 1678 3084 1418 2786 
Q 1159 2488 1159 1978 
L 1159 0 
L 581 0 
L 581 3500 
L 1159 3500 
L 1159 2956 
Q 1356 3278 1631 3431 
Q 1906 3584 2284 3584 
Q 2666 3584 2933 3390 
Q 3200 3197 3328 2828 
z
" transform="scale(0.015625)"/>
      <path id="DejaVuSans-41" d="M 2188 4044 
L 1331 1722 
L 3047 1722 
L 2188 4044 
z
M 1831 4666 
L 2547 4666 
L 4325 0 
L 3669 0 
L 3244 1197 
L 1141 1197 
L 716 0 
L 50 0 
L 1831 4666 
z
" transform="scale(0.015625)"/>
      <path id="DejaVuSans-56" d="M 1831 0 
L 50 4666 
L 709 4666 
L 2188 738 
L 3669 4666 
L 4325 4666 
L 2547 0 
L 1831 0 
z
" transform="scale(0.015625)"/>
     </defs>
     <use xlink:href="#DejaVuSans-52"/>
     <use xlink:href="#DejaVuSans-61" x="67.232422"/>
     <use xlink:href="#DejaVuSans-64" x="128.511719"/>
     <use xlink:href="#DejaVuSans-69" x="191.988281"/>
     <use xlink:href="#DejaVuSans-61" x="219.771484"/>
     <use xlink:href="#DejaVuSans-74" x="281.050781"/>
     <use xlink:href="#DejaVuSans-69" x="320.259766"/>
     <use xlink:href="#DejaVuSans-6f" x="348.042969"/>
     <use xlink:href="#DejaVuSans-6e" x="409.224609"/>
     <use xlink:href="#DejaVuSans-20" x="472.603516"/>
     <use xlink:href="#DejaVuSans-44" x="504.390625"/>
     <use xlink:href="#DejaVuSans-69" x="581.392578"/>
     <use xlink:href="#DejaVuSans-61" x="609.175781"/>
     <use xlink:href="#DejaVuSans-67" x="670.455078"/>
     <use xlink:href="#DejaVuSans-72" x="733.931641"/>
     <use xlink:href="#DejaVuSans-61" x="775.044922"/>
     <use xlink:href="#DejaVuSans-6d" x="836.324219"/>
     <use xlink:href="#DejaVuSans-20" x="933.736328"/>
     <use xlink:href="#DejaVuSans-2d" x="965.523438"/>
     <use xlink:href="#DejaVuSans-20" x="1001.607422"/>
     <use xlink:href="#DejaVuSans-34" x="1033.394531"/>
     <use xlink:href="#DejaVuSans-41" x="1097.017578"/>
     <use xlink:href="#DejaVuSans-56" x="1159.050781"/>
     <use xlink:href="#DejaVuSans-48" x="1227.458984"/>
     <use xlink:href="#DejaVuSans-46" x="1302.654297"/>
     <use xlink:href="#DejaVuSans-31" x="1360.173828"/>
     <use xlink:href="#DejaVuSans-30" x="1423.796875"/>
    </g>
   </g>
   <g id="legend_1">
    <g id="patch_6">
     <path d="M 411.802813 78.513437 
L 466.5825 78.513437 
Q 468.5825 78.513437 468.5825 76.513437 
L 468.5825 48.157187 
Q 468.5825 46.157187 466.5825 46.157187 
L 411.802813 46.157187 
Q 409.802813 46.157187 409.802813 48.157187 
L 409.802813 76.513437 
Q 409.802813 78.513437 411.802813 78.513437 
z
" style="fill: #ffffff; opacity: 0.8; stroke: #cccccc; stroke-linejoin: miter"/>
    </g>
    <g id="line2d_17">
     <path d="M 413.802813 54.255625 
L 423.802813 54.255625 
L 433.802813 54.255625 
" style="fill: none; stroke: #ff0000; stroke-width: 1.5; stroke-linecap: square"/>
    </g>
    <g id="text_18">
     <!-- INPE -->
     <g transform="translate(441.802813 57.755625)scale(0.1 -0.1)">
      <defs>
       <path id="DejaVuSans-49" d="M 628 4666 
L 1259 4666 
L 1259 0 
L 628 0 
L 628 4666 
z
" transform="scale(0.015625)"/>
       <path id="DejaVuSans-4e" d="M 628 4666 
L 1478 4666 
L 3547 763 
L 3547 4666 
L 4159 4666 
L 4159 0 
L 3309 0 
L 1241 3903 
L 1241 0 
L 628 0 
L 628 4666 
z
" transform="scale(0.015625)"/>
       <path id="DejaVuSans-45" d="M 628 4666 
L 3578 4666 
L 3578 4134 
L 1259 4134 
L 1259 2753 
L 3481 2753 
L 3481 2222 
L 1259 2222 
L 1259 531 
L 3634 531 
L 3634 0 
L 628 0 
L 628 4666 
z
" transform="scale(0.015625)"/>
      </defs>
      <use xlink:href="#DejaVuSans-49"/>
      <use xlink:href="#DejaVuSans-4e" x="29.492188"/>
      <use xlink:href="#DejaVuSans-50" x="104.296875"/>
      <use xlink:href="#DejaVuSans-45" x="164.599609"/>
     </g>
    </g>
    <g id="line2d_18">
     <path d="M 413.802813 68.93375 
L 423.802813 68.93375 
L 433.802813 68.93375 
" style="fill: none; stroke-dasharray: 5.55,2.4; stroke-dashoffset: 0; stroke: #0000ff; stroke-width: 1.5"/>
    </g>
    <g id="text_19">
     <!-- CST -->
     <g transform="translate(441.802813 72.43375)scale(0.1 -0.1)">
      <defs>
       <path id="DejaVuSans-53" d="M 3425 4513 
L 3425 3897 
Q 3066 4069 2747 4153 
Q 2428 4238 2131 4238 
Q 1616 4238 1336 4038 
Q 1056 3838 1056 3469 
Q 1056 3159 1242 3001 
Q 1428 2844 1947 2747 
L 2328 2669 
Q 3034 2534 3370 2195 
Q 3706 1856 3706 1288 
Q 3706 609 3251 259 
Q 2797 -91 1919 -91 
Q 1588 -91 1214 -16 
Q 841 59 441 206 
L 441 856 
Q 825 641 1194 531 
Q 1563 422 1919 422 
Q 2459 422 2753 634 
Q 3047 847 3047 1241 
Q 3047 1584 2836 1778 
Q 2625 1972 2144 2069 
L 1759 2144 
Q 1053 2284 737 2584 
Q 422 2884 422 3419 
Q 422 4038 858 4394 
Q 1294 4750 2059 4750 
Q 2388 4750 2728 4690 
Q 3069 4631 3425 4513 
z
" transform="scale(0.015625)"/>
       <path id="DejaVuSans-54" d="M -19 4666 
L 3928 4666 
L 3928 4134 
L 2272 4134 
L 2272 0 
L 1638 0 
L 1638 4134 
L -19 4134 
L -19 4666 
z
" transform="scale(0.015625)"/>
      </defs>
      <use xlink:href="#DejaVuSans-43"/>
      <use xlink:href="#DejaVuSans-53" x="69.824219"/>
      <use xlink:href="#DejaVuSans-54" x="133.300781"/>
     </g>
    </g>
   </g>
  </g>
 </g>
 <defs>
  <clipPath id="pa6b2c6a812">
   <path d="M 473.5825 262.917187 
C 473.5825 233.795931 467.846247 204.957842 456.702025 178.05331 
C 445.557803 151.148777 429.222338 126.701026 408.6305 106.109188 
C 388.038662 85.51735 363.590911 69.181885 336.686378 58.037662 
C 309.781845 46.89344 280.943756 41.157187 251.8225 41.157187 
C 222.701244 41.157187 193.863155 46.89344 166.958622 58.037662 
C 140.054089 69.181885 115.606338 85.51735 95.0145 106.109188 
C 74.422662 126.701026 58.087197 151.148777 46.942975 178.05331 
C 35.798753 204.957842 30.0625 233.795931 30.0625 262.917187 
C 30.0625 292.038444 35.798753 320.876533 46.942975 347.781065 
C 58.087197 374.685598 74.422662 399.133349 95.0145 419.725187 
C 115.606338 440.317025 140.054089 456.65249 166.958622 467.796713 
C 193.863155 478.940935 222.701244 484.677187 251.8225 484.677187 
C 280.943756 484.677187 309.781845 478.940935 336.686378 467.796713 
C 363.590911 456.65249 388.038662 440.317025 408.6305 419.725187 
C 429.222338 399.133349 445.557803 374.685598 456.702025 347.781065 
C 467.846247 320.876533 473.5825 292.038444 473.5825 262.917188 
M 251.8225 262.917187 
C 251.8225 262.917187 251.8225 262.917187 251.8225 262.917187 
C 251.8225 262.917187 251.8225 262.917187 251.8225 262.917187 
C 251.8225 262.917187 251.8225 262.917187 251.8225 262.917187 
C 251.8225 262.917187 251.8225 262.917187 251.8225 262.917187 
C 251.8225 262.917187 251.8225 262.917187 251.8225 262.917187 
C 251.8225 262.917187 251.8225 262.917187 251.8225 262.917187 
C 251.8225 262.917187 251.8225 262.917187 251.8225 262.917187 
C 251.8225 262.917187 251.8225 262.917187 251.8225 262.917187 
C 251.8225 262.917187 251.8225 262.917187 251.8225 262.917187 
C 251.8225 262.917187 251.8225 262.917187 251.8225 262.917187 
C 251.8225 262.917187 251.8225 262.917187 251.8225 262.917187 
C 251.8225 262.917187 251.8225 262.917187 251.8225 262.917187 
C 251.8225 262.917187 251.8225 262.917187 251.8225 262.917187 
C 251.8225 262.917187 251.8225 262.917187 251.8225 262.917187 
C 251.8225 262.917187 251.8225 262.917187 251.8225 262.917187 
C 251.8225 262.917187 251.8225 262.917187 251.8225 262.917187 
M 473.5825 262.917187 
z
"/>
  </clipPath>
 </defs>
</svg>
