<?xml version="1.0" encoding="utf-8" standalone="no"?>
<!DOCTYPE svg PUBLIC "-//W3C//DTD SVG 1.1//EN"
  "http://www.w3.org/Graphics/SVG/1.1/DTD/svg11.dtd">
<svg xmlns:xlink="http://www.w3.org/1999/xlink" width="506.82625pt" height="514.053188pt" viewBox="0 0 506.82625 514.053188" xmlns="http://www.w3.org/2000/svg" version="1.1">
 <metadata>
  <rdf:RDF xmlns:dc="http://purl.org/dc/elements/1.1/" xmlns:cc="http://creativecommons.org/ns#" xmlns:rdf="http://www.w3.org/1999/02/22-rdf-syntax-ns#">
   <cc:Work>
    <dc:type rdf:resource="http://purl.org/dc/dcmitype/StillImage"/>
    <dc:date>2024-10-21T18:07:17.877581</dc:date>
    <dc:format>image/svg+xml</dc:format>
    <dc:creator>
     <cc:Agent>
      <dc:title>Matplotlib v3.8.3, https://matplotlib.org/</dc:title>
     </cc:Agent>
    </dc:creator>
   </cc:Work>
  </rdf:RDF>
 </metadata>
 <defs>
  <style type="text/css">*{stroke-linejoin: round; stroke-linecap: butt}</style>
 </defs>
 <g id="figure_1">
  <g id="patch_1">
   <path d="M 0 514.053188 
L 506.82625 514.053188 
L 506.82625 0 
L 0 0 
z
" style="fill: #ffffff"/>
  </g>
  <g id="axes_1">
   <g id="patch_2">
    <path d="M 473.5825 262.917188 
C 473.5825 233.795931 467.846247 204.957842 456.702025 178.05331 
C 445.557803 151.148777 429.222338 126.701026 408.6305 106.109188 
C 388.038662 85.51735 363.590911 69.181885 336.686378 58.037662 
C 309.781845 46.89344 280.943756 41.157188 251.8225 41.157188 
C 222.701244 41.157188 193.863155 46.89344 166.958622 58.037662 
C 140.054089 69.181885 115.606338 85.51735 95.0145 106.109188 
C 74.422662 126.701026 58.087197 151.148777 46.942975 178.05331 
C 35.798753 204.957842 30.0625 233.795931 30.0625 262.917188 
C 30.0625 292.038444 35.798753 320.876533 46.942975 347.781065 
C 58.087197 374.685598 74.422662 399.133349 95.0145 419.725187 
C 115.606338 440.317025 140.054089 456.65249 166.958622 467.796713 
C 193.863155 478.940935 222.701244 484.677188 251.8225 484.677188 
C 280.943756 484.677188 309.781845 478.940935 336.686378 467.796713 
C 363.590911 456.65249 388.038662 440.317025 408.6305 419.725187 
C 429.222338 399.133349 445.557803 374.685598 456.702025 347.781065 
C 467.846247 320.876533 473.5825 292.038444 473.5825 262.917188 
M 251.8225 262.917188 
C 251.8225 262.917188 251.8225 262.917188 251.8225 262.917188 
C 251.8225 262.917188 251.8225 262.917188 251.8225 262.917188 
C 251.8225 262.917188 251.8225 262.917188 251.8225 262.917188 
C 251.8225 262.917188 251.8225 262.917188 251.8225 262.917188 
C 251.8225 262.917188 251.8225 262.917188 251.8225 262.917188 
C 251.8225 262.917188 251.8225 262.917188 251.8225 262.917188 
C 251.8225 262.917188 251.8225 262.917188 251.8225 262.917188 
C 251.8225 262.917188 251.8225 262.917188 251.8225 262.917188 
C 251.8225 262.917188 251.8225 262.917188 251.8225 262.917188 
C 251.8225 262.917188 251.8225 262.917188 251.8225 262.917188 
C 251.8225 262.917188 251.8225 262.917188 251.8225 262.917188 
C 251.8225 262.917188 251.8225 262.917188 251.8225 262.917188 
C 251.8225 262.917188 251.8225 262.917188 251.8225 262.917188 
C 251.8225 262.917188 251.8225 262.917188 251.8225 262.917188 
C 251.8225 262.917188 251.8225 262.917188 251.8225 262.917188 
C 251.8225 262.917188 251.8225 262.917188 251.8225 262.917188 
z
" style="fill: #ffffff"/>
   </g>
   <g id="matplotlib.axis_1">
    <g id="xtick_1">
     <g id="line2d_1">
      <path d="M 251.8225 262.917188 
L 251.8225 41.157188 
" clip-path="url(#pcfc202a8f3)" style="fill: none; stroke: #b0b0b0; stroke-width: 0.8; stroke-linecap: square"/>
     </g>
     <g id="text_1">
      <!-- 0° -->
      <g transform="translate(246.14125 29.916563) scale(0.1 -0.1)">
       <defs>
        <path id="DejaVuSans-30" d="M 2034 4250 
Q 1547 4250 1301 3770 
Q 1056 3291 1056 2328 
Q 1056 1369 1301 889 
Q 1547 409 2034 409 
Q 2525 409 2770 889 
Q 3016 1369 3016 2328 
Q 3016 3291 2770 3770 
Q 2525 4250 2034 4250 
z
M 2034 4750 
Q 2819 4750 3233 4129 
Q 3647 3509 3647 2328 
Q 3647 1150 3233 529 
Q 2819 -91 2034 -91 
Q 1250 -91 836 529 
Q 422 1150 422 2328 
Q 422 3509 836 4129 
Q 1250 4750 2034 4750 
z
" transform="scale(0.015625)"/>
        <path id="DejaVuSans-b0" d="M 1600 4347 
Q 1350 4347 1178 4173 
Q 1006 4000 1006 3750 
Q 1006 3503 1178 3333 
Q 1350 3163 1600 3163 
Q 1850 3163 2022 3333 
Q 2194 3503 2194 3750 
Q 2194 3997 2020 4172 
Q 1847 4347 1600 4347 
z
M 1600 4750 
Q 1800 4750 1984 4673 
Q 2169 4597 2303 4453 
Q 2447 4313 2519 4134 
Q 2591 3956 2591 3750 
Q 2591 3338 2302 3052 
Q 2013 2766 1594 2766 
Q 1172 2766 890 3047 
Q 609 3328 609 3750 
Q 609 4169 896 4459 
Q 1184 4750 1600 4750 
z
" transform="scale(0.015625)"/>
       </defs>
       <use xlink:href="#DejaVuSans-30"/>
       <use xlink:href="#DejaVuSans-b0" x="63.623047"/>
      </g>
     </g>
    </g>
    <g id="xtick_2">
     <g id="line2d_2">
      <path d="M 251.8225 262.917188 
L 95.0145 106.109188 
" clip-path="url(#pcfc202a8f3)" style="fill: none; stroke: #b0b0b0; stroke-width: 0.8; stroke-linecap: square"/>
     </g>
     <g id="text_2">
      <!-- 45° -->
      <g transform="translate(76.252505 98.969068) scale(0.1 -0.1)">
       <defs>
        <path id="DejaVuSans-34" d="M 2419 4116 
L 825 1625 
L 2419 1625 
L 2419 4116 
z
M 2253 4666 
L 3047 4666 
L 3047 1625 
L 3713 1625 
L 3713 1100 
L 3047 1100 
L 3047 0 
L 2419 0 
L 2419 1100 
L 313 1100 
L 313 1709 
L 2253 4666 
z
" transform="scale(0.015625)"/>
        <path id="DejaVuSans-35" d="M 691 4666 
L 3169 4666 
L 3169 4134 
L 1269 4134 
L 1269 2991 
Q 1406 3038 1543 3061 
Q 1681 3084 1819 3084 
Q 2600 3084 3056 2656 
Q 3513 2228 3513 1497 
Q 3513 744 3044 326 
Q 2575 -91 1722 -91 
Q 1428 -91 1123 -41 
Q 819 9 494 109 
L 494 744 
Q 775 591 1075 516 
Q 1375 441 1709 441 
Q 2250 441 2565 725 
Q 2881 1009 2881 1497 
Q 2881 1984 2565 2268 
Q 2250 2553 1709 2553 
Q 1456 2553 1204 2497 
Q 953 2441 691 2322 
L 691 4666 
z
" transform="scale(0.015625)"/>
       </defs>
       <use xlink:href="#DejaVuSans-34"/>
       <use xlink:href="#DejaVuSans-35" x="63.623047"/>
       <use xlink:href="#DejaVuSans-b0" x="127.246094"/>
      </g>
     </g>
    </g>
    <g id="xtick_3">
     <g id="line2d_3">
      <path d="M 251.8225 262.917188 
L 30.0625 262.917188 
" clip-path="url(#pcfc202a8f3)" style="fill: none; stroke: #b0b0b0; stroke-width: 0.8; stroke-linecap: square"/>
     </g>
     <g id="text_3">
      <!-- 90° -->
      <g transform="translate(7.2 265.676563) scale(0.1 -0.1)">
       <defs>
        <path id="DejaVuSans-39" d="M 703 97 
L 703 672 
Q 941 559 1184 500 
Q 1428 441 1663 441 
Q 2288 441 2617 861 
Q 2947 1281 2994 2138 
Q 2813 1869 2534 1725 
Q 2256 1581 1919 1581 
Q 1219 1581 811 2004 
Q 403 2428 403 3163 
Q 403 3881 828 4315 
Q 1253 4750 1959 4750 
Q 2769 4750 3195 4129 
Q 3622 3509 3622 2328 
Q 3622 1225 3098 567 
Q 2575 -91 1691 -91 
Q 1453 -91 1209 -44 
Q 966 3 703 97 
z
M 1959 2075 
Q 2384 2075 2632 2365 
Q 2881 2656 2881 3163 
Q 2881 3666 2632 3958 
Q 2384 4250 1959 4250 
Q 1534 4250 1286 3958 
Q 1038 3666 1038 3163 
Q 1038 2656 1286 2365 
Q 1534 2075 1959 2075 
z
" transform="scale(0.015625)"/>
       </defs>
       <use xlink:href="#DejaVuSans-39"/>
       <use xlink:href="#DejaVuSans-30" x="63.623047"/>
       <use xlink:href="#DejaVuSans-b0" x="127.246094"/>
      </g>
     </g>
    </g>
    <g id="xtick_4">
     <g id="line2d_4">
      <path d="M 251.8225 262.917188 
L 95.0145 419.725187 
" clip-path="url(#pcfc202a8f3)" style="fill: none; stroke: #b0b0b0; stroke-width: 0.8; stroke-linecap: square"/>
     </g>
     <g id="text_4">
      <!-- 135° -->
      <g transform="translate(73.071255 432.384057) scale(0.1 -0.1)">
       <defs>
        <path id="DejaVuSans-31" d="M 794 531 
L 1825 531 
L 1825 4091 
L 703 3866 
L 703 4441 
L 1819 4666 
L 2450 4666 
L 2450 531 
L 3481 531 
L 3481 0 
L 794 0 
L 794 531 
z
" transform="scale(0.015625)"/>
        <path id="DejaVuSans-33" d="M 2597 2516 
Q 3050 2419 3304 2112 
Q 3559 1806 3559 1356 
Q 3559 666 3084 287 
Q 2609 -91 1734 -91 
Q 1441 -91 1130 -33 
Q 819 25 488 141 
L 488 750 
Q 750 597 1062 519 
Q 1375 441 1716 441 
Q 2309 441 2620 675 
Q 2931 909 2931 1356 
Q 2931 1769 2642 2001 
Q 2353 2234 1838 2234 
L 1294 2234 
L 1294 2753 
L 1863 2753 
Q 2328 2753 2575 2939 
Q 2822 3125 2822 3475 
Q 2822 3834 2567 4026 
Q 2313 4219 1838 4219 
Q 1578 4219 1281 4162 
Q 984 4106 628 3988 
L 628 4550 
Q 988 4650 1302 4700 
Q 1616 4750 1894 4750 
Q 2613 4750 3031 4423 
Q 3450 4097 3450 3541 
Q 3450 3153 3228 2886 
Q 3006 2619 2597 2516 
z
" transform="scale(0.015625)"/>
       </defs>
       <use xlink:href="#DejaVuSans-31"/>
       <use xlink:href="#DejaVuSans-33" x="63.623047"/>
       <use xlink:href="#DejaVuSans-35" x="127.246094"/>
       <use xlink:href="#DejaVuSans-b0" x="190.869141"/>
      </g>
     </g>
    </g>
    <g id="xtick_5">
     <g id="line2d_5">
      <path d="M 251.8225 262.917188 
L 251.8225 484.677188 
" clip-path="url(#pcfc202a8f3)" style="fill: none; stroke: #b0b0b0; stroke-width: 0.8; stroke-linecap: square"/>
     </g>
     <g id="text_5">
      <!-- 180° -->
      <g transform="translate(239.77875 501.436563) scale(0.1 -0.1)">
       <defs>
        <path id="DejaVuSans-38" d="M 2034 2216 
Q 1584 2216 1326 1975 
Q 1069 1734 1069 1313 
Q 1069 891 1326 650 
Q 1584 409 2034 409 
Q 2484 409 2743 651 
Q 3003 894 3003 1313 
Q 3003 1734 2745 1975 
Q 2488 2216 2034 2216 
z
M 1403 2484 
Q 997 2584 770 2862 
Q 544 3141 544 3541 
Q 544 4100 942 4425 
Q 1341 4750 2034 4750 
Q 2731 4750 3128 4425 
Q 3525 4100 3525 3541 
Q 3525 3141 3298 2862 
Q 3072 2584 2669 2484 
Q 3125 2378 3379 2068 
Q 3634 1759 3634 1313 
Q 3634 634 3220 271 
Q 2806 -91 2034 -91 
Q 1263 -91 848 271 
Q 434 634 434 1313 
Q 434 1759 690 2068 
Q 947 2378 1403 2484 
z
M 1172 3481 
Q 1172 3119 1398 2916 
Q 1625 2713 2034 2713 
Q 2441 2713 2670 2916 
Q 2900 3119 2900 3481 
Q 2900 3844 2670 4047 
Q 2441 4250 2034 4250 
Q 1625 4250 1398 4047 
Q 1172 3844 1172 3481 
z
" transform="scale(0.015625)"/>
       </defs>
       <use xlink:href="#DejaVuSans-31"/>
       <use xlink:href="#DejaVuSans-38" x="63.623047"/>
       <use xlink:href="#DejaVuSans-30" x="127.246094"/>
       <use xlink:href="#DejaVuSans-b0" x="190.869141"/>
      </g>
     </g>
    </g>
    <g id="xtick_6">
     <g id="line2d_6">
      <path d="M 251.8225 262.917188 
L 408.6305 419.725187 
" clip-path="url(#pcfc202a8f3)" style="fill: none; stroke: #b0b0b0; stroke-width: 0.8; stroke-linecap: square"/>
     </g>
     <g id="text_6">
      <!-- 225° -->
      <g transform="translate(406.486245 432.384057) scale(0.1 -0.1)">
       <defs>
        <path id="DejaVuSans-32" d="M 1228 531 
L 3431 531 
L 3431 0 
L 469 0 
L 469 531 
Q 828 903 1448 1529 
Q 2069 2156 2228 2338 
Q 2531 2678 2651 2914 
Q 2772 3150 2772 3378 
Q 2772 3750 2511 3984 
Q 2250 4219 1831 4219 
Q 1534 4219 1204 4116 
Q 875 4013 500 3803 
L 500 4441 
Q 881 4594 1212 4672 
Q 1544 4750 1819 4750 
Q 2544 4750 2975 4387 
Q 3406 4025 3406 3419 
Q 3406 3131 3298 2873 
Q 3191 2616 2906 2266 
Q 2828 2175 2409 1742 
Q 1991 1309 1228 531 
z
" transform="scale(0.015625)"/>
       </defs>
       <use xlink:href="#DejaVuSans-32"/>
       <use xlink:href="#DejaVuSans-32" x="63.623047"/>
       <use xlink:href="#DejaVuSans-35" x="127.246094"/>
       <use xlink:href="#DejaVuSans-b0" x="190.869141"/>
      </g>
     </g>
    </g>
    <g id="xtick_7">
     <g id="line2d_7">
      <path d="M 251.8225 262.917188 
L 473.5825 262.917188 
" clip-path="url(#pcfc202a8f3)" style="fill: none; stroke: #b0b0b0; stroke-width: 0.8; stroke-linecap: square"/>
     </g>
     <g id="text_7">
      <!-- 270° -->
      <g transform="translate(475.53875 265.676563) scale(0.1 -0.1)">
       <defs>
        <path id="DejaVuSans-37" d="M 525 4666 
L 3525 4666 
L 3525 4397 
L 1831 0 
L 1172 0 
L 2766 4134 
L 525 4134 
L 525 4666 
z
" transform="scale(0.015625)"/>
       </defs>
       <use xlink:href="#DejaVuSans-32"/>
       <use xlink:href="#DejaVuSans-37" x="63.623047"/>
       <use xlink:href="#DejaVuSans-30" x="127.246094"/>
       <use xlink:href="#DejaVuSans-b0" x="190.869141"/>
      </g>
     </g>
    </g>
    <g id="xtick_8">
     <g id="line2d_8">
      <path d="M 251.8225 262.917188 
L 408.6305 106.109188 
" clip-path="url(#pcfc202a8f3)" style="fill: none; stroke: #b0b0b0; stroke-width: 0.8; stroke-linecap: square"/>
     </g>
     <g id="text_8">
      <!-- 315° -->
      <g transform="translate(406.486245 98.969068) scale(0.1 -0.1)">
       <use xlink:href="#DejaVuSans-33"/>
       <use xlink:href="#DejaVuSans-31" x="63.623047"/>
       <use xlink:href="#DejaVuSans-35" x="127.246094"/>
       <use xlink:href="#DejaVuSans-b0" x="190.869141"/>
      </g>
     </g>
    </g>
   </g>
   <g id="matplotlib.axis_2">
    <g id="ytick_1">
     <g id="line2d_9">
      <path d="M 251.8225 235.197188 
C 248.182343 235.197188 244.577582 235.914219 241.214515 237.307247 
C 237.851449 238.700275 234.79548 240.742208 232.2215 243.316188 
C 229.64752 245.890167 227.605587 248.946136 226.212559 252.309203 
C 224.819532 255.672269 224.1025 259.27703 224.1025 262.917188 
C 224.1025 266.557345 224.819532 270.162106 226.212559 273.525172 
C 227.605587 276.888239 229.64752 279.944208 232.2215 282.518187 
C 234.79548 285.092167 237.851449 287.1341 241.214515 288.527128 
C 244.577582 289.920156 248.182343 290.637188 251.8225 290.637188 
C 255.462657 290.637188 259.067418 289.920156 262.430485 288.527128 
C 265.793551 287.1341 268.84952 285.092167 271.4235 282.518187 
C 273.99748 279.944208 276.039413 276.888239 277.432441 273.525172 
C 278.825468 270.162106 279.5425 266.557345 279.5425 262.917188 
C 279.5425 259.27703 278.825468 255.672269 277.432441 252.309203 
C 276.039413 248.946136 273.99748 245.890167 271.4235 243.316188 
C 268.84952 240.742208 265.793551 238.700275 262.430485 237.307247 
C 259.067418 235.914219 255.462657 235.197188 251.8225 235.197188 
" clip-path="url(#pcfc202a8f3)" style="fill: none; stroke: #b0b0b0; stroke-width: 0.8; stroke-linecap: square"/>
     </g>
     <g id="text_9">
      <!-- −35 -->
      <g transform="translate(241.214515 235.227559) scale(0.1 -0.1)">
       <defs>
        <path id="DejaVuSans-2212" d="M 678 2272 
L 4684 2272 
L 4684 1741 
L 678 1741 
L 678 2272 
z
" transform="scale(0.015625)"/>
       </defs>
       <use xlink:href="#DejaVuSans-2212"/>
       <use xlink:href="#DejaVuSans-33" x="83.789062"/>
       <use xlink:href="#DejaVuSans-35" x="147.412109"/>
      </g>
     </g>
    </g>
    <g id="ytick_2">
     <g id="line2d_10">
      <path d="M 251.8225 207.477188 
C 244.542186 207.477188 237.332664 208.911251 230.606531 211.697306 
C 223.880397 214.483362 217.76846 218.567228 212.6205 223.715188 
C 207.472541 228.863147 203.388674 234.975085 200.602619 241.701218 
C 197.816563 248.427351 196.3825 255.636873 196.3825 262.917188 
C 196.3825 270.197502 197.816563 277.407024 200.602619 284.133157 
C 203.388674 290.85929 207.472541 296.971228 212.6205 302.119187 
C 217.76846 307.267147 223.880397 311.351013 230.606531 314.137069 
C 237.332664 316.923124 244.542186 318.357188 251.8225 318.357188 
C 259.102814 318.357188 266.312336 316.923124 273.038469 314.137069 
C 279.764603 311.351013 285.87654 307.267147 291.0245 302.119187 
C 296.172459 296.971228 300.256326 290.85929 303.042381 284.133157 
C 305.828437 277.407024 307.2625 270.197502 307.2625 262.917188 
C 307.2625 255.636873 305.828437 248.427351 303.042381 241.701218 
C 300.256326 234.975085 296.172459 228.863147 291.0245 223.715188 
C 285.87654 218.567228 279.764603 214.483362 273.038469 211.697306 
C 266.312336 208.911251 259.102814 207.477188 251.8225 207.477188 
" clip-path="url(#pcfc202a8f3)" style="fill: none; stroke: #b0b0b0; stroke-width: 0.8; stroke-linecap: square"/>
     </g>
     <g id="text_10">
      <!-- −30 -->
      <g transform="translate(230.606531 209.617619) scale(0.1 -0.1)">
       <use xlink:href="#DejaVuSans-2212"/>
       <use xlink:href="#DejaVuSans-33" x="83.789062"/>
       <use xlink:href="#DejaVuSans-30" x="147.412109"/>
      </g>
     </g>
    </g>
    <g id="ytick_3">
     <g id="line2d_11">
      <path d="M 251.8225 179.757188 
C 240.902029 179.757188 230.087746 181.908282 219.998546 186.087366 
C 209.909346 190.266449 200.741439 196.392248 193.0195 204.114188 
C 185.297561 211.836127 179.171761 221.004033 174.992678 231.093233 
C 170.813595 241.182433 168.6625 251.996716 168.6625 262.917188 
C 168.6625 273.837659 170.813595 284.651942 174.992678 294.741142 
C 179.171761 304.830342 185.297561 313.998248 193.0195 321.720187 
C 200.741439 329.442127 209.909346 335.567926 219.998546 339.747009 
C 230.087746 343.926093 240.902029 346.077188 251.8225 346.077188 
C 262.742971 346.077188 273.557254 343.926093 283.646454 339.747009 
C 293.735654 335.567926 302.903561 329.442127 310.6255 321.720187 
C 318.347439 313.998248 324.473239 304.830342 328.652322 294.741142 
C 332.831405 284.651942 334.9825 273.837659 334.9825 262.917188 
C 334.9825 251.996716 332.831405 241.182433 328.652322 231.093233 
C 324.473239 221.004033 318.347439 211.836127 310.6255 204.114188 
C 302.903561 196.392248 293.735654 190.266449 283.646454 186.087366 
C 273.557254 181.908282 262.742971 179.757188 251.8225 179.757188 
" clip-path="url(#pcfc202a8f3)" style="fill: none; stroke: #b0b0b0; stroke-width: 0.8; stroke-linecap: square"/>
     </g>
     <g id="text_11">
      <!-- −25 -->
      <g transform="translate(219.998546 184.007678) scale(0.1 -0.1)">
       <use xlink:href="#DejaVuSans-2212"/>
       <use xlink:href="#DejaVuSans-32" x="83.789062"/>
       <use xlink:href="#DejaVuSans-35" x="147.412109"/>
      </g>
     </g>
    </g>
    <g id="ytick_4">
     <g id="line2d_12">
      <path d="M 251.8225 152.037188 
C 237.261872 152.037188 222.842827 154.905314 209.390561 160.477425 
C 195.938295 166.049536 183.714419 174.217269 173.4185 184.513188 
C 163.122581 194.809107 154.954849 207.032982 149.382737 220.485249 
C 143.810626 233.937515 140.9425 248.356559 140.9425 262.917188 
C 140.9425 277.477816 143.810626 291.89686 149.382737 305.349126 
C 154.954849 318.801393 163.122581 331.025268 173.4185 341.321187 
C 183.714419 351.617106 195.938295 359.784839 209.390561 365.35695 
C 222.842827 370.929061 237.261872 373.797188 251.8225 373.797188 
C 266.383128 373.797188 280.802173 370.929061 294.254439 365.35695 
C 307.706705 359.784839 319.930581 351.617106 330.2265 341.321187 
C 340.522419 331.025268 348.690151 318.801393 354.262263 305.349126 
C 359.834374 291.89686 362.7025 277.477816 362.7025 262.917188 
C 362.7025 248.356559 359.834374 233.937515 354.262263 220.485249 
C 348.690151 207.032982 340.522419 194.809107 330.2265 184.513188 
C 319.930581 174.217269 307.706705 166.049536 294.254439 160.477425 
C 280.802173 154.905314 266.383128 152.037188 251.8225 152.037188 
" clip-path="url(#pcfc202a8f3)" style="fill: none; stroke: #b0b0b0; stroke-width: 0.8; stroke-linecap: square"/>
     </g>
     <g id="text_12">
      <!-- −20 -->
      <g transform="translate(209.390561 158.397737) scale(0.1 -0.1)">
       <use xlink:href="#DejaVuSans-2212"/>
       <use xlink:href="#DejaVuSans-32" x="83.789062"/>
       <use xlink:href="#DejaVuSans-30" x="147.412109"/>
      </g>
     </g>
    </g>
    <g id="ytick_5">
     <g id="line2d_13">
      <path d="M 251.8225 124.317188 
C 233.621715 124.317188 215.597909 127.902345 198.782576 134.867484 
C 181.967243 141.832623 166.687399 152.042289 153.8175 164.912188 
C 140.947601 177.782086 130.737936 193.061931 123.772797 209.877264 
C 116.807658 226.692597 113.2225 244.716402 113.2225 262.917188 
C 113.2225 281.117973 116.807658 299.141778 123.772797 315.957111 
C 130.737936 332.772444 140.947601 348.052289 153.8175 360.922187 
C 166.687399 373.792086 181.967243 384.001752 198.782576 390.966891 
C 215.597909 397.93203 233.621715 401.517188 251.8225 401.517188 
C 270.023285 401.517188 288.047091 397.93203 304.862424 390.966891 
C 321.677757 384.001752 336.957601 373.792086 349.8275 360.922187 
C 362.697399 348.052289 372.907064 332.772444 379.872203 315.957111 
C 386.837342 299.141778 390.4225 281.117973 390.4225 262.917188 
C 390.4225 244.716402 386.837342 226.692597 379.872203 209.877264 
C 372.907064 193.061931 362.697399 177.782086 349.8275 164.912188 
C 336.957601 152.042289 321.677757 141.832623 304.862424 134.867484 
C 288.047091 127.902345 270.023285 124.317188 251.8225 124.317188 
" clip-path="url(#pcfc202a8f3)" style="fill: none; stroke: #b0b0b0; stroke-width: 0.8; stroke-linecap: square"/>
     </g>
     <g id="text_13">
      <!-- −15 -->
      <g transform="translate(198.782576 132.787797) scale(0.1 -0.1)">
       <use xlink:href="#DejaVuSans-2212"/>
       <use xlink:href="#DejaVuSans-31" x="83.789062"/>
       <use xlink:href="#DejaVuSans-35" x="147.412109"/>
      </g>
     </g>
    </g>
    <g id="ytick_6">
     <g id="line2d_14">
      <path d="M 251.8225 96.597188 
C 229.981558 96.597188 208.352991 100.899377 188.174592 109.257544 
C 167.996192 117.61571 149.660379 129.867309 134.2165 145.311188 
C 118.772622 160.755066 106.521023 179.090879 98.162856 199.269279 
C 89.804689 219.447679 85.5025 241.076245 85.5025 262.917188 
C 85.5025 284.75813 89.804689 306.386696 98.162856 326.565096 
C 106.521023 346.743496 118.772622 365.079309 134.2165 380.523187 
C 149.660379 395.967066 167.996192 408.218665 188.174592 416.576831 
C 208.352991 424.934998 229.981558 429.237188 251.8225 429.237188 
C 273.663442 429.237188 295.292009 424.934998 315.470408 416.576831 
C 335.648808 408.218665 353.984621 395.967066 369.4285 380.523187 
C 384.872378 365.079309 397.123977 346.743496 405.482144 326.565096 
C 413.840311 306.386696 418.1425 284.75813 418.1425 262.917188 
C 418.1425 241.076245 413.840311 219.447679 405.482144 199.269279 
C 397.123977 179.090879 384.872378 160.755066 369.4285 145.311188 
C 353.984621 129.867309 335.648808 117.61571 315.470408 109.257544 
C 295.292009 100.899377 273.663442 96.597188 251.8225 96.597188 
" clip-path="url(#pcfc202a8f3)" style="fill: none; stroke: #b0b0b0; stroke-width: 0.8; stroke-linecap: square"/>
     </g>
     <g id="text_14">
      <!-- −10 -->
      <g transform="translate(188.174592 107.177856) scale(0.1 -0.1)">
       <use xlink:href="#DejaVuSans-2212"/>
       <use xlink:href="#DejaVuSans-31" x="83.789062"/>
       <use xlink:href="#DejaVuSans-30" x="147.412109"/>
      </g>
     </g>
    </g>
    <g id="ytick_7">
     <g id="line2d_15">
      <path d="M 251.8225 68.877188 
C 226.341401 68.877188 201.108073 73.896408 177.566607 83.647603 
C 154.025141 93.398798 132.633358 107.69233 114.6155 125.710188 
C 96.597642 143.728046 82.30411 165.119828 72.552916 188.661294 
C 62.801721 212.20276 57.7825 237.436088 57.7825 262.917188 
C 57.7825 288.398287 62.801721 313.631615 72.552916 337.173081 
C 82.30411 360.714547 96.597642 382.106329 114.6155 400.124187 
C 132.633358 418.142045 154.025141 432.435577 177.566607 442.186772 
C 201.108073 451.937967 226.341401 456.957188 251.8225 456.957188 
C 277.303599 456.957188 302.536927 451.937967 326.078393 442.186772 
C 349.619859 432.435577 371.011642 418.142045 389.0295 400.124187 
C 407.047358 382.106329 421.34089 360.714547 431.092084 337.173081 
C 440.843279 313.631615 445.8625 288.398287 445.8625 262.917188 
C 445.8625 237.436088 440.843279 212.20276 431.092084 188.661294 
C 421.34089 165.119828 407.047358 143.728046 389.0295 125.710188 
C 371.011642 107.69233 349.619859 93.398798 326.078393 83.647603 
C 302.536927 73.896408 277.303599 68.877188 251.8225 68.877188 
" clip-path="url(#pcfc202a8f3)" style="fill: none; stroke: #b0b0b0; stroke-width: 0.8; stroke-linecap: square"/>
     </g>
     <g id="text_15">
      <!-- −5 -->
      <g transform="translate(177.566607 81.567916) scale(0.1 -0.1)">
       <use xlink:href="#DejaVuSans-2212"/>
       <use xlink:href="#DejaVuSans-35" x="83.789062"/>
      </g>
     </g>
    </g>
    <g id="ytick_8">
     <g id="line2d_16">
      <path d="M 251.8225 41.157188 
C 222.701244 41.157188 193.863155 46.89344 166.958622 58.037662 
C 140.054089 69.181885 115.606338 85.51735 95.0145 106.109188 
C 74.422662 126.701026 58.087197 151.148777 46.942975 178.05331 
C 35.798753 204.957842 30.0625 233.795931 30.0625 262.917188 
C 30.0625 292.038444 35.798753 320.876533 46.942975 347.781065 
C 58.087197 374.685598 74.422662 399.133349 95.0145 419.725187 
C 115.606338 440.317025 140.054089 456.65249 166.958622 467.796713 
C 193.863155 478.940935 222.701244 484.677188 251.8225 484.677188 
C 280.943756 484.677188 309.781845 478.940935 336.686378 467.796713 
C 363.590911 456.65249 388.038662 440.317025 408.6305 419.725187 
C 429.222338 399.133349 445.557803 374.685598 456.702025 347.781065 
C 467.846247 320.876533 473.5825 292.038444 473.5825 262.917188 
C 473.5825 233.795931 467.846247 204.957842 456.702025 178.05331 
C 445.557803 151.148777 429.222338 126.701026 408.6305 106.109188 
C 388.038662 85.51735 363.590911 69.181885 336.686378 58.037662 
C 309.781845 46.89344 280.943756 41.157188 251.8225 41.157188 
" clip-path="url(#pcfc202a8f3)" style="fill: none; stroke: #b0b0b0; stroke-width: 0.8; stroke-linecap: square"/>
     </g>
     <g id="text_16">
      <!-- 0 -->
      <g transform="translate(166.958622 55.957975) scale(0.1 -0.1)">
       <use xlink:href="#DejaVuSans-30"/>
      </g>
     </g>
    </g>
   </g>
   <g id="line2d_17">
    <path d="M 251.8225 450.2933 
L 255.050478 447.847945 
L 258.181119 445.004213 
L 264.329345 441.773399 
L 267.399142 440.959025 
L 270.519675 440.808926 
L 273.723489 441.286426 
L 277.022161 442.222096 
L 280.308071 442.768004 
L 283.703455 443.723069 
L 287.125964 444.537763 
L 293.906856 445.204561 
L 297.215921 444.980256 
L 300.413709 444.262049 
L 303.534538 443.258495 
L 306.502235 441.766542 
L 309.399397 440.120655 
L 314.354054 434.721219 
L 316.587943 431.636934 
L 318.243324 427.314495 
L 320.090715 423.747022 
L 321.522941 419.466941 
L 322.337297 414.136657 
L 323.395708 409.66401 
L 323.957523 404.490141 
L 323.978548 398.622976 
L 325.37752 390.318219 
L 327.241417 388.435343 
L 329.917024 387.894551 
L 333.614142 388.865271 
L 337.569976 390.043049 
L 341.072971 390.38007 
L 345.190241 391.426858 
L 348.896876 391.739236 
L 352.406893 391.65934 
L 356.201484 391.814499 
L 359.639657 391.408672 
L 362.898684 390.69572 
L 366.042934 389.771831 
L 368.727205 388.282135 
L 371.205415 386.541815 
L 373.380061 384.474749 
L 375.335463 382.192269 
L 376.822532 379.481603 
L 377.865504 376.406818 
L 378.709817 373.21865 
L 378.797823 369.462134 
L 378.449233 365.457494 
L 378.284174 361.719876 
L 376.225768 356.661774 
L 373.577474 351.377354 
L 370.684011 346.144913 
L 356.308078 330.770915 
L 347.27395 322.561873 
L 326.469045 307.769357 
L 298.140109 289.658672 
M 311.321972 294.553618 
L 334.024716 304.801309 
L 350.120448 310.8603 
L 363.39811 314.945749 
L 370.245222 315.64238 
L 376.378228 315.787957 
L 382.077887 315.54378 
L 388.612435 312.704652 
L 391.043582 310.854851 
L 392.602451 308.659366 
L 394.40786 306.509907 
L 395.381428 304.082048 
L 395.917337 301.527283 
L 396.323529 296.277879 
L 396.298078 293.62642 
L 392.859387 287.785796 
L 390.506672 284.882603 
L 386.679994 281.870172 
L 382.758672 278.994128 
L 377.257569 276.100944 
L 361.746621 270.603831 
L 348.759365 267.997433 
L 337.037278 265.892953 
L 324.792601 264.190885 
L 323.362276 262.917188 
L 331.605139 261.524576 
L 345.996465 259.62856 
L 358.9851 257.301034 
L 367.465152 254.830665 
L 375.159979 252.126556 
L 381.894531 249.246066 
L 391.132422 243.338455 
L 393.967343 240.403656 
L 395.20163 237.635578 
L 396.012029 234.889582 
L 396.509569 232.163002 
L 396.188482 229.587674 
L 394.804812 227.267693 
L 390.233387 223.228504 
L 378.593939 219.26628 
L 370.248398 219.813686 
L 354.171158 221.565645 
L 333.730126 228.149463 
L 310.64388 236.728222 
L 266.574639 256.038152 
L 301.397513 238.737838 
L 327.242453 224.488802 
L 342.767847 214.560689 
L 358.187787 203.957946 
L 364.162027 198.057932 
L 376.724638 184.869669 
L 384.444389 170.054341 
L 384.785964 166.313576 
L 385.351124 162.296152 
L 385.628012 158.376864 
L 384.662086 155.345812 
L 383.945127 152.05314 
L 382.69309 149.153119 
L 380.852501 146.738053 
L 378.744424 144.560579 
L 376.216815 142.790994 
L 373.583912 141.155776 
L 370.338898 140.189865 
L 364.729714 137.521022 
L 361.563835 136.674223 
L 355.65023 134.700619 
L 352.284017 134.33231 
L 349.250541 133.62581 
L 346.174362 133.05299 
L 342.84418 132.924757 
L 340.028408 132.146552 
L 337.463977 131.040877 
L 335.108245 129.632134 
L 333.052097 127.728436 
L 331.35118 125.169473 
L 330.074659 121.746556 
L 328.621854 118.478609 
L 326.158993 110.504791 
L 324.556114 106.939449 
L 323.135229 102.746176 
L 321.266968 99.316272 
L 319.09482 96.412354 
L 316.981328 93.172638 
L 309.531312 85.307725 
L 303.939493 81.163633 
L 300.980492 79.457064 
L 297.861046 78.266666 
L 294.638921 77.458894 
L 291.293119 77.222525 
L 287.941562 77.100722 
L 284.548711 77.317624 
L 277.792194 78.133213 
L 274.411294 78.946225 
L 271.097442 79.52836 
L 267.864456 79.556794 
L 264.679335 79.055878 
L 258.307463 77.212135 
L 255.097308 75.303542 
L 251.8225 73.545236 
L 248.480833 71.473222 
L 245.044604 68.823632 
L 241.562487 67.144471 
L 234.361411 63.336027 
L 227.076376 61.376181 
L 223.39148 60.619966 
L 219.787182 60.65415 
L 216.208173 60.938301 
L 212.711852 61.710347 
L 209.283494 62.786897 
L 205.996758 64.424091 
L 199.575184 67.927549 
L 190.514275 74.229872 
L 187.674582 76.618107 
L 181.647023 80.103819 
L 178.805699 82.194264 
L 175.890223 84.031952 
L 173.048148 85.987097 
L 167.944533 90.94187 
L 165.756307 94.002772 
L 163.537208 96.876703 
L 161.08827 99.228303 
L 158.785864 101.773007 
L 156.630139 104.490494 
L 154.37621 106.970525 
L 150.248679 112.327805 
L 145.954457 117.202328 
L 143.514255 119.187291 
L 140.756086 120.758661 
L 134.50831 123.107581 
L 130.984095 123.908504 
L 127.100018 124.398839 
L 123.423558 125.22618 
L 114.744867 125.839554 
L 110.90183 126.831679 
L 106.512852 127.413749 
L 102.336725 128.319591 
L 98.704998 129.814173 
L 94.456 130.871016 
L 90.477896 132.262904 
L 87.143162 134.255587 
L 83.218149 135.864696 
L 79.770603 137.914168 
L 76.634266 140.249066 
L 73.026334 142.317651 
L 70.060742 144.879722 
L 67.294941 147.611572 
L 64.360258 150.278509 
L 59.530004 156.327716 
L 57.194857 159.431834 
L 55.215901 162.741122 
L 53.412823 166.146322 
L 50.779392 173.407029 
L 49.870444 177.193626 
L 49.366357 181.119596 
L 48.751169 184.965407 
L 48.687598 188.982129 
L 48.796342 193.009675 
L 48.651195 196.902829 
L 50.642374 209.011135 
L 53.761556 217.191216 
L 55.130297 221.108969 
L 58.289078 225.298101 
L 60.81776 229.237898 
L 63.582843 233.102955 
L 68.504368 237.153504 
L 72.710401 240.924987 
L 78.308583 244.68014 
L 88.178872 248.600225 
L 97.350242 252.115435 
L 111.66848 255.572027 
L 135.89605 258.868947 
L 167.394697 261.443495 
L 236.116348 262.917188 
L 147.572372 264.73688 
L 123.79533 267.387995 
L 103.446923 270.693222 
L 90.730239 274.181856 
L 82.733289 277.710577 
L 73.495185 281.660144 
L 67.713971 285.522872 
L 63.096673 289.440873 
L 57.942827 293.624711 
L 54.888445 297.641975 
L 49.457995 305.931091 
L 46.407805 314.132823 
L 45.073078 318.315528 
L 43.721261 330.533379 
L 44.131002 334.431105 
L 44.660534 338.317977 
L 45.438676 342.140515 
L 46.56489 345.846645 
L 47.803616 349.518066 
L 49.265047 353.101576 
L 50.839685 356.637013 
L 52.6903 360.040451 
L 54.67747 363.367598 
L 56.813042 366.605556 
L 64.360258 375.555866 
L 67.29024 378.225741 
L 70.014246 380.984848 
L 73.021738 383.519824 
L 76.38449 385.760204 
L 79.46561 388.141798 
L 82.93478 390.183213 
L 86.819876 391.831366 
L 90.215078 393.784297 
L 94.213924 395.166486 
L 98.399558 396.285717 
L 102.106005 397.722525 
L 106.634491 398.307196 
L 110.889866 399.01425 
L 114.752707 399.98698 
L 119.307041 400.140963 
L 123.155107 400.896074 
L 126.788407 401.781616 
L 130.758589 402.185286 
L 134.069986 403.249169 
L 140.230449 405.748499 
L 142.923701 407.430775 
L 145.410258 409.381074 
L 149.606945 414.45798 
L 153.618239 420.076857 
L 155.862044 422.622206 
L 157.968124 425.477735 
L 160.177111 428.249846 
L 165.124559 433.071477 
L 167.723373 435.34595 
L 170.464319 437.390369 
L 173.151876 439.614302 
L 181.752323 445.45624 
L 187.800929 448.849331 
L 190.786672 450.76615 
L 193.883117 452.428369 
L 200.09605 455.962927 
L 206.682679 458.439234 
L 210.024656 459.560585 
L 216.856074 461.221646 
L 220.342236 461.675749 
L 223.857511 461.898421 
L 227.427711 461.596802 
L 234.55662 460.267095 
L 245.098779 455.459369 
L 248.511795 452.587343 
L 248.511795 452.587343 
" clip-path="url(#pcfc202a8f3)" style="fill: none; stroke: #ff0000; stroke-width: 1.5; stroke-linecap: square"/>
   </g>
   <g id="line2d_18">
    <path d="M 251.8225 75.865954 
L 245.183544 72.802353 
L 241.786309 71.415252 
L 238.343223 70.154546 
L 234.860258 69.037873 
L 231.344504 68.082066 
L 227.802693 67.291558 
L 224.243299 66.680977 
L 220.673535 66.25036 
L 217.102526 66.010432 
L 213.538029 65.960659 
L 209.988923 66.105682 
L 206.463184 66.444405 
L 202.968744 66.975474 
L 199.513483 67.69728 
L 196.106753 68.613285 
L 192.756586 69.721288 
L 189.472655 71.024097 
L 186.259502 72.508415 
L 183.128427 74.181774 
L 180.087391 76.04084 
L 177.142167 78.076878 
L 174.304554 80.296352 
L 171.580177 82.68998 
L 168.97886 85.258428 
L 166.503348 87.987002 
L 164.162087 90.873941 
L 161.957859 93.90638 
L 159.891453 97.069188 
L 157.958976 100.340796 
L 156.150436 103.692135 
L 152.819829 110.466443 
L 149.594825 116.920938 
L 147.860786 119.826164 
L 145.936526 122.401755 
L 143.735834 124.572563 
L 141.187824 126.294741 
L 138.257233 127.575372 
L 134.937722 128.456631 
L 131.269676 129.029713 
L 127.310425 129.394334 
L 114.402913 130.212635 
L 109.971447 130.638941 
L 105.558561 131.220545 
L 101.198727 131.981939 
L 96.919231 132.937912 
L 92.744166 134.098093 
L 88.685324 135.460457 
L 84.754538 137.022448 
L 80.972634 138.787494 
L 77.33818 140.741951 
L 73.867436 142.884981 
L 70.562898 145.205826 
L 67.426586 147.693832 
L 64.474309 150.347038 
L 61.702807 153.151531 
L 59.127546 156.10463 
L 56.744511 159.192381 
L 54.563856 162.408888 
L 52.595625 165.747748 
L 50.839685 169.197362 
L 49.305565 172.750839 
L 48.002644 176.400791 
L 46.940132 180.139338 
L 46.121877 183.956117 
L 45.561804 187.844434 
L 45.273748 191.796749 
L 45.266149 195.802961 
L 45.557777 199.855733 
L 46.167327 203.946516 
L 47.118723 208.066976 
L 48.430429 212.205849 
L 50.136876 216.354392 
L 52.277878 220.502669 
L 54.898624 224.639064 
L 58.071494 228.753658 
L 61.86784 232.831325 
L 66.408269 236.858917 
L 71.84648 240.818911 
L 78.413342 244.691151 
L 86.466772 248.450436 
L 96.609155 252.063613 
L 109.957732 255.48237 
L 129.036759 258.629415 
L 161.685246 261.343836 
M 163.791646 264.453772 
L 130.089478 267.168198 
L 110.666391 270.314866 
L 97.140083 273.733636 
L 86.892036 277.346733 
L 78.766214 281.106136 
L 72.149128 284.978304 
L 66.670693 288.938577 
L 62.100559 292.966191 
L 58.278965 297.044135 
L 55.089099 301.158287 
L 52.445986 305.295974 
L 50.28813 309.445063 
L 48.570292 313.593655 
L 47.247246 317.732962 
L 46.2899 321.852712 
L 45.669114 325.944603 
L 45.36633 329.998864 
L 45.362861 334.006942 
L 45.645159 337.959603 
L 46.194338 341.850443 
L 47.006956 345.668039 
L 48.063883 349.407589 
L 49.356212 353.060987 
L 50.884906 356.615926 
L 52.630505 360.069615 
L 54.593494 363.410385 
L 56.764091 366.631583 
L 59.142092 369.721682 
L 61.712409 372.6773 
L 64.474309 375.487337 
L 67.421884 378.143481 
L 70.5443 380.640627 
L 73.844455 382.964894 
L 77.310932 385.111503 
L 80.932268 387.076209 
L 84.710262 388.845291 
L 88.62853 390.41829 
L 92.683847 391.785128 
L 96.855527 392.949917 
L 101.127597 393.914268 
L 105.484401 394.680604 
L 109.894409 395.267273 
L 114.325546 395.696453 
L 131.22516 396.854102 
L 134.912261 397.407032 
L 138.250106 398.267497 
L 141.205269 399.518092 
L 143.773379 401.213756 
L 145.993246 403.357351 
L 147.932477 405.909537 
L 149.674323 408.799903 
L 152.904374 415.237744 
L 156.228674 422.012032 
L 158.03188 425.367307 
L 159.958621 428.644013 
L 162.019024 431.812961 
L 164.217208 434.852254 
L 166.552683 437.74622 
L 169.021034 440.485504 
L 171.618511 443.058295 
L 174.339214 445.456371 
L 177.171243 447.685533 
L 180.111233 449.731426 
L 183.149285 451.595295 
L 186.277551 453.273541 
L 189.486361 454.768097 
L 192.769553 456.070673 
L 196.11745 457.183785 
L 199.520658 458.110319 
L 202.974109 458.837383 
L 206.466925 459.373765 
L 209.991228 459.717848 
L 213.540145 459.862832 
L 217.103489 459.818484 
L 220.673535 459.584015 
L 224.241756 459.164378 
L 227.801342 458.553823 
L 231.342186 457.774364 
L 234.858277 456.819146 
L 238.341173 455.70914 
L 241.784365 454.456217 
L 245.181957 453.077455 
L 251.8225 450.037721 
L 267.515592 442.290044 
L 270.539958 441.001903 
L 273.550524 439.877741 
L 276.558444 438.922578 
L 279.576093 438.146476 
L 282.611747 437.531685 
L 285.673542 437.065703 
L 291.881519 436.431863 
L 304.570112 435.446852 
L 310.945437 434.622665 
L 314.111345 434.054383 
L 317.253518 433.370817 
L 320.361679 432.557609 
L 323.433182 431.621382 
L 326.454512 430.543432 
L 329.422516 429.330958 
L 332.33203 427.986186 
L 335.172933 426.501623 
L 337.937098 424.875191 
L 340.621525 423.11487 
L 343.21534 421.21423 
L 345.712812 419.176908 
L 348.102454 416.997323 
L 350.375269 414.675143 
L 352.522074 412.210446 
L 354.523981 409.590103 
L 356.374035 406.82003 
L 358.052129 403.888667 
L 359.543951 400.794357 
L 360.824346 397.523257 
L 361.874043 394.07151 
L 362.662266 390.423753 
L 363.156818 386.566475 
L 363.324158 382.488076 
L 363.110222 378.158997 
L 362.466225 373.560912 
L 361.317573 368.65535 
L 359.570103 363.393452 
L 357.09661 357.706422 
L 353.722313 351.497343 
L 349.16685 344.598796 
L 343.080779 336.816685 
L 334.701708 327.669521 
L 322.801921 316.404018 
L 304.797082 301.405474 
L 281.391418 283.621567 
L 316.502941 304.921157 
L 333.305559 313.833454 
L 345.776971 319.370729 
L 355.72624 322.90604 
L 363.885235 325.034576 
L 370.831234 326.195254 
L 376.807806 326.600382 
L 382.011099 326.41441 
L 386.55133 325.742273 
L 390.5192 324.668937 
L 393.964127 323.252729 
L 396.938515 321.547863 
L 399.45616 319.58844 
L 401.542801 317.41092 
L 403.215402 315.045944 
L 404.46593 312.514044 
L 405.297662 309.839253 
L 405.709485 307.04357 
L 405.685026 304.144527 
L 405.203037 301.15925 
L 404.242726 298.106169 
L 402.772961 295.002698 
L 400.735807 291.863002 
L 398.078931 288.706142 
L 394.712044 285.548668 
L 390.528517 282.411047 
L 385.361438 279.313707 
L 378.972307 276.281171 
L 370.957049 273.34011 
L 360.723479 270.532286 
L 346.943425 267.902264 
L 326.848073 265.537138 
L 290.685564 263.595545 
M 301.827307 262.04435 
L 332.388695 260.103754 
L 350.597451 257.740612 
L 363.378117 255.116459 
L 373.055753 252.310652 
L 380.681532 249.373557 
L 386.781128 246.346352 
L 391.725347 243.255125 
L 395.725057 240.125262 
L 398.936115 236.977088 
L 401.465054 233.829622 
L 403.385743 230.701426 
L 404.761309 227.608481 
L 405.622624 224.57051 
L 406.017042 221.600885 
L 405.95463 218.72051 
L 405.462017 215.944873 
L 404.545019 213.294633 
L 403.21016 210.790236 
L 401.454236 208.455689 
L 399.280184 206.313486 
L 396.666079 204.396583 
L 393.591588 202.73978 
L 390.03299 201.381913 
L 385.938332 200.377948 
L 381.248713 199.791805 
L 375.869255 199.712209 
L 369.651524 200.266384 
L 362.430568 201.606134 
L 353.853754 204.009416 
L 343.305861 207.948439 
L 329.73236 214.233704 
L 310.690954 224.687566 
L 281.978065 242.577002 
L 280.755625 242.657995 
L 308.474938 221.756782 
L 325.679884 207.261657 
L 336.929761 196.424108 
L 344.847263 187.58722 
L 350.610813 180.02395 
L 354.914784 173.300432 
L 358.101889 167.222796 
L 360.421574 161.646913 
L 362.043393 156.478109 
L 363.085616 151.654071 
L 363.633983 147.133007 
L 363.758973 142.880017 
L 363.520365 138.864141 
L 362.956879 135.071709 
L 362.105678 131.486814 
L 361.002283 128.091384 
L 359.67024 124.878375 
L 358.135541 121.835017 
L 356.413139 118.960522 
L 354.523981 116.244272 
L 352.484872 113.679083 
L 350.30884 111.261523 
L 348.008442 108.987503 
L 345.595742 106.852305 
L 343.07674 104.860207 
L 340.465634 103.000741 
L 337.765316 101.282258 
L 334.989198 99.693353 
L 332.140034 98.241839 
L 329.225704 96.925481 
L 326.253822 95.741701 
L 323.231724 94.687598 
L 320.164381 93.765096 
L 317.058812 92.970783 
L 313.923626 92.295747 
L 307.590268 91.281646 
L 301.230112 90.612367 
L 288.669659 89.564932 
L 285.594204 89.176833 
L 282.546283 88.673954 
L 279.523189 88.021919 
L 276.517551 87.20277 
L 273.518769 86.21526 
L 270.517357 85.047503 
L 267.499163 83.732109 
L 261.370484 80.730802 
L 255.059225 77.485328 
L 255.059225 77.485328 
" clip-path="url(#pcfc202a8f3)" style="fill: none; stroke-dasharray: 5.55,2.4; stroke-dashoffset: 0; stroke: #0000ff; stroke-width: 1.5"/>
   </g>
   <g id="patch_3">
    <path d="M 251.8225 41.157188 
C 222.701244 41.157188 193.863155 46.89344 166.958622 58.037662 
C 140.054089 69.181885 115.606338 85.51735 95.0145 106.109188 
C 74.422662 126.701026 58.087197 151.148777 46.942975 178.05331 
C 35.798753 204.957842 30.0625 233.795931 30.0625 262.917188 
C 30.0625 292.038444 35.798753 320.876533 46.942975 347.781065 
C 58.087197 374.685598 74.422662 399.133349 95.0145 419.725187 
C 115.606338 440.317025 140.054089 456.65249 166.958622 467.796713 
C 193.863155 478.940935 222.701244 484.677188 251.8225 484.677188 
C 280.943756 484.677188 309.781845 478.940935 336.686378 467.796713 
C 363.590911 456.65249 388.038662 440.317025 408.6305 419.725187 
C 429.222338 399.133349 445.557803 374.685598 456.702025 347.781065 
C 467.846247 320.876533 473.5825 292.038444 473.5825 262.917188 
C 473.5825 233.795931 467.846247 204.957842 456.702025 178.05331 
C 445.557803 151.148777 429.222338 126.701026 408.6305 106.109188 
C 388.038662 85.51735 363.590911 69.181885 336.686378 58.037662 
C 309.781845 46.89344 280.943756 41.157188 251.8225 41.157188 
" style="fill: none; stroke: #000000; stroke-width: 0.8; stroke-linejoin: miter; stroke-linecap: square"/>
   </g>
   <g id="text_17">
    <g id="patch_4">
     <path d="M 384.8785 509.853188 
L 466.473813 509.853188 
Q 469.473813 509.853188 469.473813 506.853188 
L 469.473813 485.421 
Q 469.473813 482.421 466.473813 482.421 
L 384.8785 482.421 
Q 381.8785 482.421 381.8785 485.421 
L 381.8785 506.853188 
Q 381.8785 509.853188 384.8785 509.853188 
z
" style="fill: #ffffff; stroke: #808080; stroke-linejoin: miter"/>
    </g>
    <!-- G_simul: 5.8 dBi -->
    <g transform="translate(384.8785 493.019438) scale(0.1 -0.1)">
     <defs>
      <path id="DejaVuSans-47" d="M 3809 666 
L 3809 1919 
L 2778 1919 
L 2778 2438 
L 4434 2438 
L 4434 434 
Q 4069 175 3628 42 
Q 3188 -91 2688 -91 
Q 1594 -91 976 548 
Q 359 1188 359 2328 
Q 359 3472 976 4111 
Q 1594 4750 2688 4750 
Q 3144 4750 3555 4637 
Q 3966 4525 4313 4306 
L 4313 3634 
Q 3963 3931 3569 4081 
Q 3175 4231 2741 4231 
Q 1884 4231 1454 3753 
Q 1025 3275 1025 2328 
Q 1025 1384 1454 906 
Q 1884 428 2741 428 
Q 3075 428 3337 486 
Q 3600 544 3809 666 
z
" transform="scale(0.015625)"/>
      <path id="DejaVuSans-5f" d="M 3263 -1063 
L 3263 -1509 
L -63 -1509 
L -63 -1063 
L 3263 -1063 
z
" transform="scale(0.015625)"/>
      <path id="DejaVuSans-73" d="M 2834 3397 
L 2834 2853 
Q 2591 2978 2328 3040 
Q 2066 3103 1784 3103 
Q 1356 3103 1142 2972 
Q 928 2841 928 2578 
Q 928 2378 1081 2264 
Q 1234 2150 1697 2047 
L 1894 2003 
Q 2506 1872 2764 1633 
Q 3022 1394 3022 966 
Q 3022 478 2636 193 
Q 2250 -91 1575 -91 
Q 1294 -91 989 -36 
Q 684 19 347 128 
L 347 722 
Q 666 556 975 473 
Q 1284 391 1588 391 
Q 1994 391 2212 530 
Q 2431 669 2431 922 
Q 2431 1156 2273 1281 
Q 2116 1406 1581 1522 
L 1381 1569 
Q 847 1681 609 1914 
Q 372 2147 372 2553 
Q 372 3047 722 3315 
Q 1072 3584 1716 3584 
Q 2034 3584 2315 3537 
Q 2597 3491 2834 3397 
z
" transform="scale(0.015625)"/>
      <path id="DejaVuSans-69" d="M 603 3500 
L 1178 3500 
L 1178 0 
L 603 0 
L 603 3500 
z
M 603 4863 
L 1178 4863 
L 1178 4134 
L 603 4134 
L 603 4863 
z
" transform="scale(0.015625)"/>
      <path id="DejaVuSans-6d" d="M 3328 2828 
Q 3544 3216 3844 3400 
Q 4144 3584 4550 3584 
Q 5097 3584 5394 3201 
Q 5691 2819 5691 2113 
L 5691 0 
L 5113 0 
L 5113 2094 
Q 5113 2597 4934 2840 
Q 4756 3084 4391 3084 
Q 3944 3084 3684 2787 
Q 3425 2491 3425 1978 
L 3425 0 
L 2847 0 
L 2847 2094 
Q 2847 2600 2669 2842 
Q 2491 3084 2119 3084 
Q 1678 3084 1418 2786 
Q 1159 2488 1159 1978 
L 1159 0 
L 581 0 
L 581 3500 
L 1159 3500 
L 1159 2956 
Q 1356 3278 1631 3431 
Q 1906 3584 2284 3584 
Q 2666 3584 2933 3390 
Q 3200 3197 3328 2828 
z
" transform="scale(0.015625)"/>
      <path id="DejaVuSans-75" d="M 544 1381 
L 544 3500 
L 1119 3500 
L 1119 1403 
Q 1119 906 1312 657 
Q 1506 409 1894 409 
Q 2359 409 2629 706 
Q 2900 1003 2900 1516 
L 2900 3500 
L 3475 3500 
L 3475 0 
L 2900 0 
L 2900 538 
Q 2691 219 2414 64 
Q 2138 -91 1772 -91 
Q 1169 -91 856 284 
Q 544 659 544 1381 
z
M 1991 3584 
L 1991 3584 
z
" transform="scale(0.015625)"/>
      <path id="DejaVuSans-6c" d="M 603 4863 
L 1178 4863 
L 1178 0 
L 603 0 
L 603 4863 
z
" transform="scale(0.015625)"/>
      <path id="DejaVuSans-3a" d="M 750 794 
L 1409 794 
L 1409 0 
L 750 0 
L 750 794 
z
M 750 3309 
L 1409 3309 
L 1409 2516 
L 750 2516 
L 750 3309 
z
" transform="scale(0.015625)"/>
      <path id="DejaVuSans-20" transform="scale(0.015625)"/>
      <path id="DejaVuSans-2e" d="M 684 794 
L 1344 794 
L 1344 0 
L 684 0 
L 684 794 
z
" transform="scale(0.015625)"/>
      <path id="DejaVuSans-64" d="M 2906 2969 
L 2906 4863 
L 3481 4863 
L 3481 0 
L 2906 0 
L 2906 525 
Q 2725 213 2448 61 
Q 2172 -91 1784 -91 
Q 1150 -91 751 415 
Q 353 922 353 1747 
Q 353 2572 751 3078 
Q 1150 3584 1784 3584 
Q 2172 3584 2448 3432 
Q 2725 3281 2906 2969 
z
M 947 1747 
Q 947 1113 1208 752 
Q 1469 391 1925 391 
Q 2381 391 2643 752 
Q 2906 1113 2906 1747 
Q 2906 2381 2643 2742 
Q 2381 3103 1925 3103 
Q 1469 3103 1208 2742 
Q 947 2381 947 1747 
z
" transform="scale(0.015625)"/>
      <path id="DejaVuSans-42" d="M 1259 2228 
L 1259 519 
L 2272 519 
Q 2781 519 3026 730 
Q 3272 941 3272 1375 
Q 3272 1813 3026 2020 
Q 2781 2228 2272 2228 
L 1259 2228 
z
M 1259 4147 
L 1259 2741 
L 2194 2741 
Q 2656 2741 2882 2914 
Q 3109 3088 3109 3444 
Q 3109 3797 2882 3972 
Q 2656 4147 2194 4147 
L 1259 4147 
z
M 628 4666 
L 2241 4666 
Q 2963 4666 3353 4366 
Q 3744 4066 3744 3513 
Q 3744 3084 3544 2831 
Q 3344 2578 2956 2516 
Q 3422 2416 3680 2098 
Q 3938 1781 3938 1306 
Q 3938 681 3513 340 
Q 3088 0 2303 0 
L 628 0 
L 628 4666 
z
" transform="scale(0.015625)"/>
     </defs>
     <use xlink:href="#DejaVuSans-47"/>
     <use xlink:href="#DejaVuSans-5f" x="77.490234"/>
     <use xlink:href="#DejaVuSans-73" x="127.490234"/>
     <use xlink:href="#DejaVuSans-69" x="179.589844"/>
     <use xlink:href="#DejaVuSans-6d" x="207.373047"/>
     <use xlink:href="#DejaVuSans-75" x="304.785156"/>
     <use xlink:href="#DejaVuSans-6c" x="368.164062"/>
     <use xlink:href="#DejaVuSans-3a" x="395.947266"/>
     <use xlink:href="#DejaVuSans-20" x="429.638672"/>
     <use xlink:href="#DejaVuSans-35" x="461.425781"/>
     <use xlink:href="#DejaVuSans-2e" x="525.048828"/>
     <use xlink:href="#DejaVuSans-38" x="556.835938"/>
     <use xlink:href="#DejaVuSans-20" x="620.458984"/>
     <use xlink:href="#DejaVuSans-64" x="652.246094"/>
     <use xlink:href="#DejaVuSans-42" x="715.722656"/>
     <use xlink:href="#DejaVuSans-69" x="784.326172"/>
    </g>
    <!-- G_meas: 2.9 dBi -->
    <g transform="translate(384.8785 504.495375) scale(0.1 -0.1)">
     <defs>
      <path id="DejaVuSans-65" d="M 3597 1894 
L 3597 1613 
L 953 1613 
Q 991 1019 1311 708 
Q 1631 397 2203 397 
Q 2534 397 2845 478 
Q 3156 559 3463 722 
L 3463 178 
Q 3153 47 2828 -22 
Q 2503 -91 2169 -91 
Q 1331 -91 842 396 
Q 353 884 353 1716 
Q 353 2575 817 3079 
Q 1281 3584 2069 3584 
Q 2775 3584 3186 3129 
Q 3597 2675 3597 1894 
z
M 3022 2063 
Q 3016 2534 2758 2815 
Q 2500 3097 2075 3097 
Q 1594 3097 1305 2825 
Q 1016 2553 972 2059 
L 3022 2063 
z
" transform="scale(0.015625)"/>
      <path id="DejaVuSans-61" d="M 2194 1759 
Q 1497 1759 1228 1600 
Q 959 1441 959 1056 
Q 959 750 1161 570 
Q 1363 391 1709 391 
Q 2188 391 2477 730 
Q 2766 1069 2766 1631 
L 2766 1759 
L 2194 1759 
z
M 3341 1997 
L 3341 0 
L 2766 0 
L 2766 531 
Q 2569 213 2275 61 
Q 1981 -91 1556 -91 
Q 1019 -91 701 211 
Q 384 513 384 1019 
Q 384 1609 779 1909 
Q 1175 2209 1959 2209 
L 2766 2209 
L 2766 2266 
Q 2766 2663 2505 2880 
Q 2244 3097 1772 3097 
Q 1472 3097 1187 3025 
Q 903 2953 641 2809 
L 641 3341 
Q 956 3463 1253 3523 
Q 1550 3584 1831 3584 
Q 2591 3584 2966 3190 
Q 3341 2797 3341 1997 
z
" transform="scale(0.015625)"/>
     </defs>
     <use xlink:href="#DejaVuSans-47"/>
     <use xlink:href="#DejaVuSans-5f" x="77.490234"/>
     <use xlink:href="#DejaVuSans-6d" x="127.490234"/>
     <use xlink:href="#DejaVuSans-65" x="224.902344"/>
     <use xlink:href="#DejaVuSans-61" x="286.425781"/>
     <use xlink:href="#DejaVuSans-73" x="347.705078"/>
     <use xlink:href="#DejaVuSans-3a" x="399.804688"/>
     <use xlink:href="#DejaVuSans-20" x="433.496094"/>
     <use xlink:href="#DejaVuSans-32" x="465.283203"/>
     <use xlink:href="#DejaVuSans-2e" x="528.90625"/>
     <use xlink:href="#DejaVuSans-39" x="560.693359"/>
     <use xlink:href="#DejaVuSans-20" x="624.316406"/>
     <use xlink:href="#DejaVuSans-64" x="656.103516"/>
     <use xlink:href="#DejaVuSans-42" x="719.580078"/>
     <use xlink:href="#DejaVuSans-69" x="788.183594"/>
    </g>
   </g>
   <g id="text_18">
    <g id="patch_5">
     <path d="M 52.2385 56.370938 
L 140.94475 56.370938 
Q 144.54475 56.370938 144.54475 52.770938 
L 144.54475 41.157188 
Q 144.54475 37.557188 140.94475 37.557188 
L 52.2385 37.557188 
Q 48.6385 37.557188 48.6385 41.157188 
L 48.6385 52.770938 
Q 48.6385 56.370938 52.2385 56.370938 
z
" style="fill: #ffffff; stroke: #808080; stroke-linejoin: miter"/>
    </g>
    <!-- Freq: 10.5 GHz -->
    <g transform="translate(52.2385 50.275313) scale(0.12 -0.12)">
     <defs>
      <path id="DejaVuSans-46" d="M 628 4666 
L 3309 4666 
L 3309 4134 
L 1259 4134 
L 1259 2759 
L 3109 2759 
L 3109 2228 
L 1259 2228 
L 1259 0 
L 628 0 
L 628 4666 
z
" transform="scale(0.015625)"/>
      <path id="DejaVuSans-72" d="M 2631 2963 
Q 2534 3019 2420 3045 
Q 2306 3072 2169 3072 
Q 1681 3072 1420 2755 
Q 1159 2438 1159 1844 
L 1159 0 
L 581 0 
L 581 3500 
L 1159 3500 
L 1159 2956 
Q 1341 3275 1631 3429 
Q 1922 3584 2338 3584 
Q 2397 3584 2469 3576 
Q 2541 3569 2628 3553 
L 2631 2963 
z
" transform="scale(0.015625)"/>
      <path id="DejaVuSans-71" d="M 947 1747 
Q 947 1113 1208 752 
Q 1469 391 1925 391 
Q 2381 391 2643 752 
Q 2906 1113 2906 1747 
Q 2906 2381 2643 2742 
Q 2381 3103 1925 3103 
Q 1469 3103 1208 2742 
Q 947 2381 947 1747 
z
M 2906 525 
Q 2725 213 2448 61 
Q 2172 -91 1784 -91 
Q 1150 -91 751 415 
Q 353 922 353 1747 
Q 353 2572 751 3078 
Q 1150 3584 1784 3584 
Q 2172 3584 2448 3432 
Q 2725 3281 2906 2969 
L 2906 3500 
L 3481 3500 
L 3481 -1331 
L 2906 -1331 
L 2906 525 
z
" transform="scale(0.015625)"/>
      <path id="DejaVuSans-48" d="M 628 4666 
L 1259 4666 
L 1259 2753 
L 3553 2753 
L 3553 4666 
L 4184 4666 
L 4184 0 
L 3553 0 
L 3553 2222 
L 1259 2222 
L 1259 0 
L 628 0 
L 628 4666 
z
" transform="scale(0.015625)"/>
      <path id="DejaVuSans-7a" d="M 353 3500 
L 3084 3500 
L 3084 2975 
L 922 459 
L 3084 459 
L 3084 0 
L 275 0 
L 275 525 
L 2438 3041 
L 353 3041 
L 353 3500 
z
" transform="scale(0.015625)"/>
     </defs>
     <use xlink:href="#DejaVuSans-46"/>
     <use xlink:href="#DejaVuSans-72" x="50.269531"/>
     <use xlink:href="#DejaVuSans-65" x="89.132812"/>
     <use xlink:href="#DejaVuSans-71" x="150.65625"/>
     <use xlink:href="#DejaVuSans-3a" x="214.132812"/>
     <use xlink:href="#DejaVuSans-20" x="247.824219"/>
     <use xlink:href="#DejaVuSans-31" x="279.611328"/>
     <use xlink:href="#DejaVuSans-30" x="343.234375"/>
     <use xlink:href="#DejaVuSans-2e" x="406.857422"/>
     <use xlink:href="#DejaVuSans-35" x="438.644531"/>
     <use xlink:href="#DejaVuSans-20" x="502.267578"/>
     <use xlink:href="#DejaVuSans-47" x="534.054688"/>
     <use xlink:href="#DejaVuSans-48" x="611.544922"/>
     <use xlink:href="#DejaVuSans-7a" x="686.740234"/>
    </g>
   </g>
   <g id="text_19">
    <!-- Radiation Diagram -->
    <g transform="translate(195.798437 16.318125) scale(0.12 -0.12)">
     <defs>
      <path id="DejaVuSans-52" d="M 2841 2188 
Q 3044 2119 3236 1894 
Q 3428 1669 3622 1275 
L 4263 0 
L 3584 0 
L 2988 1197 
Q 2756 1666 2539 1819 
Q 2322 1972 1947 1972 
L 1259 1972 
L 1259 0 
L 628 0 
L 628 4666 
L 2053 4666 
Q 2853 4666 3247 4331 
Q 3641 3997 3641 3322 
Q 3641 2881 3436 2590 
Q 3231 2300 2841 2188 
z
M 1259 4147 
L 1259 2491 
L 2053 2491 
Q 2509 2491 2742 2702 
Q 2975 2913 2975 3322 
Q 2975 3731 2742 3939 
Q 2509 4147 2053 4147 
L 1259 4147 
z
" transform="scale(0.015625)"/>
      <path id="DejaVuSans-74" d="M 1172 4494 
L 1172 3500 
L 2356 3500 
L 2356 3053 
L 1172 3053 
L 1172 1153 
Q 1172 725 1289 603 
Q 1406 481 1766 481 
L 2356 481 
L 2356 0 
L 1766 0 
Q 1100 0 847 248 
Q 594 497 594 1153 
L 594 3053 
L 172 3053 
L 172 3500 
L 594 3500 
L 594 4494 
L 1172 4494 
z
" transform="scale(0.015625)"/>
      <path id="DejaVuSans-6f" d="M 1959 3097 
Q 1497 3097 1228 2736 
Q 959 2375 959 1747 
Q 959 1119 1226 758 
Q 1494 397 1959 397 
Q 2419 397 2687 759 
Q 2956 1122 2956 1747 
Q 2956 2369 2687 2733 
Q 2419 3097 1959 3097 
z
M 1959 3584 
Q 2709 3584 3137 3096 
Q 3566 2609 3566 1747 
Q 3566 888 3137 398 
Q 2709 -91 1959 -91 
Q 1206 -91 779 398 
Q 353 888 353 1747 
Q 353 2609 779 3096 
Q 1206 3584 1959 3584 
z
" transform="scale(0.015625)"/>
      <path id="DejaVuSans-6e" d="M 3513 2113 
L 3513 0 
L 2938 0 
L 2938 2094 
Q 2938 2591 2744 2837 
Q 2550 3084 2163 3084 
Q 1697 3084 1428 2787 
Q 1159 2491 1159 1978 
L 1159 0 
L 581 0 
L 581 3500 
L 1159 3500 
L 1159 2956 
Q 1366 3272 1645 3428 
Q 1925 3584 2291 3584 
Q 2894 3584 3203 3211 
Q 3513 2838 3513 2113 
z
" transform="scale(0.015625)"/>
      <path id="DejaVuSans-44" d="M 1259 4147 
L 1259 519 
L 2022 519 
Q 2988 519 3436 956 
Q 3884 1394 3884 2338 
Q 3884 3275 3436 3711 
Q 2988 4147 2022 4147 
L 1259 4147 
z
M 628 4666 
L 1925 4666 
Q 3281 4666 3915 4102 
Q 4550 3538 4550 2338 
Q 4550 1131 3912 565 
Q 3275 0 1925 0 
L 628 0 
L 628 4666 
z
" transform="scale(0.015625)"/>
      <path id="DejaVuSans-67" d="M 2906 1791 
Q 2906 2416 2648 2759 
Q 2391 3103 1925 3103 
Q 1463 3103 1205 2759 
Q 947 2416 947 1791 
Q 947 1169 1205 825 
Q 1463 481 1925 481 
Q 2391 481 2648 825 
Q 2906 1169 2906 1791 
z
M 3481 434 
Q 3481 -459 3084 -895 
Q 2688 -1331 1869 -1331 
Q 1566 -1331 1297 -1286 
Q 1028 -1241 775 -1147 
L 775 -588 
Q 1028 -725 1275 -790 
Q 1522 -856 1778 -856 
Q 2344 -856 2625 -561 
Q 2906 -266 2906 331 
L 2906 616 
Q 2728 306 2450 153 
Q 2172 0 1784 0 
Q 1141 0 747 490 
Q 353 981 353 1791 
Q 353 2603 747 3093 
Q 1141 3584 1784 3584 
Q 2172 3584 2450 3431 
Q 2728 3278 2906 2969 
L 2906 3500 
L 3481 3500 
L 3481 434 
z
" transform="scale(0.015625)"/>
     </defs>
     <use xlink:href="#DejaVuSans-52"/>
     <use xlink:href="#DejaVuSans-61" x="67.232422"/>
     <use xlink:href="#DejaVuSans-64" x="128.511719"/>
     <use xlink:href="#DejaVuSans-69" x="191.988281"/>
     <use xlink:href="#DejaVuSans-61" x="219.771484"/>
     <use xlink:href="#DejaVuSans-74" x="281.050781"/>
     <use xlink:href="#DejaVuSans-69" x="320.259766"/>
     <use xlink:href="#DejaVuSans-6f" x="348.042969"/>
     <use xlink:href="#DejaVuSans-6e" x="409.224609"/>
     <use xlink:href="#DejaVuSans-20" x="472.603516"/>
     <use xlink:href="#DejaVuSans-44" x="504.390625"/>
     <use xlink:href="#DejaVuSans-69" x="581.392578"/>
     <use xlink:href="#DejaVuSans-61" x="609.175781"/>
     <use xlink:href="#DejaVuSans-67" x="670.455078"/>
     <use xlink:href="#DejaVuSans-72" x="733.931641"/>
     <use xlink:href="#DejaVuSans-61" x="775.044922"/>
     <use xlink:href="#DejaVuSans-6d" x="836.324219"/>
    </g>
   </g>
   <g id="legend_1">
    <g id="patch_6">
     <path d="M 406.599687 78.513438 
L 466.5825 78.513438 
Q 468.5825 78.513438 468.5825 76.513438 
L 468.5825 48.157188 
Q 468.5825 46.157188 466.5825 46.157188 
L 406.599687 46.157188 
Q 404.599687 46.157188 404.599687 48.157188 
L 404.599687 76.513438 
Q 404.599687 78.513438 406.599687 78.513438 
z
" style="fill: #ffffff; opacity: 0.8; stroke: #cccccc; stroke-linejoin: miter"/>
    </g>
    <g id="line2d_19">
     <path d="M 408.599687 54.255625 
L 418.599687 54.255625 
L 428.599687 54.255625 
" style="fill: none; stroke: #ff0000; stroke-width: 1.5; stroke-linecap: square"/>
    </g>
    <g id="text_20">
     <!-- Meas -->
     <g transform="translate(436.599687 57.755625) scale(0.1 -0.1)">
      <defs>
       <path id="DejaVuSans-4d" d="M 628 4666 
L 1569 4666 
L 2759 1491 
L 3956 4666 
L 4897 4666 
L 4897 0 
L 4281 0 
L 4281 4097 
L 3078 897 
L 2444 897 
L 1241 4097 
L 1241 0 
L 628 0 
L 628 4666 
z
" transform="scale(0.015625)"/>
      </defs>
      <use xlink:href="#DejaVuSans-4d"/>
      <use xlink:href="#DejaVuSans-65" x="86.279297"/>
      <use xlink:href="#DejaVuSans-61" x="147.802734"/>
      <use xlink:href="#DejaVuSans-73" x="209.082031"/>
     </g>
    </g>
    <g id="line2d_20">
     <path d="M 408.599687 68.93375 
L 418.599687 68.93375 
L 428.599687 68.93375 
" style="fill: none; stroke-dasharray: 5.55,2.4; stroke-dashoffset: 0; stroke: #0000ff; stroke-width: 1.5"/>
    </g>
    <g id="text_21">
     <!-- Simul -->
     <g transform="translate(436.599687 72.43375) scale(0.1 -0.1)">
      <defs>
       <path id="DejaVuSans-53" d="M 3425 4513 
L 3425 3897 
Q 3066 4069 2747 4153 
Q 2428 4238 2131 4238 
Q 1616 4238 1336 4038 
Q 1056 3838 1056 3469 
Q 1056 3159 1242 3001 
Q 1428 2844 1947 2747 
L 2328 2669 
Q 3034 2534 3370 2195 
Q 3706 1856 3706 1288 
Q 3706 609 3251 259 
Q 2797 -91 1919 -91 
Q 1588 -91 1214 -16 
Q 841 59 441 206 
L 441 856 
Q 825 641 1194 531 
Q 1563 422 1919 422 
Q 2459 422 2753 634 
Q 3047 847 3047 1241 
Q 3047 1584 2836 1778 
Q 2625 1972 2144 2069 
L 1759 2144 
Q 1053 2284 737 2584 
Q 422 2884 422 3419 
Q 422 4038 858 4394 
Q 1294 4750 2059 4750 
Q 2388 4750 2728 4690 
Q 3069 4631 3425 4513 
z
" transform="scale(0.015625)"/>
      </defs>
      <use xlink:href="#DejaVuSans-53"/>
      <use xlink:href="#DejaVuSans-69" x="63.476562"/>
      <use xlink:href="#DejaVuSans-6d" x="91.259766"/>
      <use xlink:href="#DejaVuSans-75" x="188.671875"/>
      <use xlink:href="#DejaVuSans-6c" x="252.050781"/>
     </g>
    </g>
   </g>
  </g>
 </g>
 <defs>
  <clipPath id="pcfc202a8f3">
   <path d="M 473.5825 262.917188 
C 473.5825 233.795931 467.846247 204.957842 456.702025 178.05331 
C 445.557803 151.148777 429.222338 126.701026 408.6305 106.109188 
C 388.038662 85.51735 363.590911 69.181885 336.686378 58.037662 
C 309.781845 46.89344 280.943756 41.157188 251.8225 41.157188 
C 222.701244 41.157188 193.863155 46.89344 166.958622 58.037662 
C 140.054089 69.181885 115.606338 85.51735 95.0145 106.109188 
C 74.422662 126.701026 58.087197 151.148777 46.942975 178.05331 
C 35.798753 204.957842 30.0625 233.795931 30.0625 262.917188 
C 30.0625 292.038444 35.798753 320.876533 46.942975 347.781065 
C 58.087197 374.685598 74.422662 399.133349 95.0145 419.725187 
C 115.606338 440.317025 140.054089 456.65249 166.958622 467.796713 
C 193.863155 478.940935 222.701244 484.677188 251.8225 484.677188 
C 280.943756 484.677188 309.781845 478.940935 336.686378 467.796713 
C 363.590911 456.65249 388.038662 440.317025 408.6305 419.725187 
C 429.222338 399.133349 445.557803 374.685598 456.702025 347.781065 
C 467.846247 320.876533 473.5825 292.038444 473.5825 262.917188 
M 251.8225 262.917188 
C 251.8225 262.917188 251.8225 262.917188 251.8225 262.917188 
C 251.8225 262.917188 251.8225 262.917188 251.8225 262.917188 
C 251.8225 262.917188 251.8225 262.917188 251.8225 262.917188 
C 251.8225 262.917188 251.8225 262.917188 251.8225 262.917188 
C 251.8225 262.917188 251.8225 262.917188 251.8225 262.917188 
C 251.8225 262.917188 251.8225 262.917188 251.8225 262.917188 
C 251.8225 262.917188 251.8225 262.917188 251.8225 262.917188 
C 251.8225 262.917188 251.8225 262.917188 251.8225 262.917188 
C 251.8225 262.917188 251.8225 262.917188 251.8225 262.917188 
C 251.8225 262.917188 251.8225 262.917188 251.8225 262.917188 
C 251.8225 262.917188 251.8225 262.917188 251.8225 262.917188 
C 251.8225 262.917188 251.8225 262.917188 251.8225 262.917188 
C 251.8225 262.917188 251.8225 262.917188 251.8225 262.917188 
C 251.8225 262.917188 251.8225 262.917188 251.8225 262.917188 
C 251.8225 262.917188 251.8225 262.917188 251.8225 262.917188 
C 251.8225 262.917188 251.8225 262.917188 251.8225 262.917188 
z
"/>
  </clipPath>
 </defs>
</svg>
