<?xml version="1.0" encoding="utf-8" standalone="no"?>
<!DOCTYPE svg PUBLIC "-//W3C//DTD SVG 1.1//EN"
  "http://www.w3.org/Graphics/SVG/1.1/DTD/svg11.dtd">
<svg xmlns:xlink="http://www.w3.org/1999/xlink" width="506.82625pt" height="514.053188pt" viewBox="0 0 506.82625 514.053188" xmlns="http://www.w3.org/2000/svg" version="1.1">
 <metadata>
  <rdf:RDF xmlns:dc="http://purl.org/dc/elements/1.1/" xmlns:cc="http://creativecommons.org/ns#" xmlns:rdf="http://www.w3.org/1999/02/22-rdf-syntax-ns#">
   <cc:Work>
    <dc:type rdf:resource="http://purl.org/dc/dcmitype/StillImage"/>
    <dc:date>2023-11-04T18:22:24.763920</dc:date>
    <dc:format>image/svg+xml</dc:format>
    <dc:creator>
     <cc:Agent>
      <dc:title>Matplotlib v3.5.1, https://matplotlib.org/</dc:title>
     </cc:Agent>
    </dc:creator>
   </cc:Work>
  </rdf:RDF>
 </metadata>
 <defs>
  <style type="text/css">*{stroke-linejoin: round; stroke-linecap: butt}</style>
 </defs>
 <g id="figure_1">
  <g id="patch_1">
   <path d="M 0 514.053188 
L 506.82625 514.053188 
L 506.82625 0 
L 0 0 
z
" style="fill: #ffffff"/>
  </g>
  <g id="axes_1">
   <g id="patch_2">
    <path d="M 473.5825 262.917188 
C 473.5825 233.795931 467.846247 204.957842 456.702025 178.05331 
C 445.557803 151.148777 429.222338 126.701026 408.6305 106.109188 
C 388.038662 85.51735 363.590911 69.181885 336.686378 58.037662 
C 309.781845 46.89344 280.943756 41.157188 251.8225 41.157188 
C 222.701244 41.157188 193.863155 46.89344 166.958622 58.037662 
C 140.054089 69.181885 115.606338 85.51735 95.0145 106.109188 
C 74.422662 126.701026 58.087197 151.148777 46.942975 178.05331 
C 35.798753 204.957842 30.0625 233.795931 30.0625 262.917188 
C 30.0625 292.038444 35.798753 320.876533 46.942975 347.781065 
C 58.087197 374.685598 74.422662 399.133349 95.0145 419.725187 
C 115.606338 440.317025 140.054089 456.65249 166.958622 467.796713 
C 193.863155 478.940935 222.701244 484.677188 251.8225 484.677188 
C 280.943756 484.677188 309.781845 478.940935 336.686378 467.796713 
C 363.590911 456.65249 388.038662 440.317025 408.6305 419.725187 
C 429.222338 399.133349 445.557803 374.685598 456.702025 347.781065 
C 467.846247 320.876533 473.5825 292.038444 473.5825 262.917188 
M 251.8225 262.917188 
C 251.8225 262.917188 251.8225 262.917188 251.8225 262.917188 
C 251.8225 262.917188 251.8225 262.917188 251.8225 262.917188 
C 251.8225 262.917188 251.8225 262.917188 251.8225 262.917188 
C 251.8225 262.917188 251.8225 262.917188 251.8225 262.917188 
C 251.8225 262.917188 251.8225 262.917188 251.8225 262.917188 
C 251.8225 262.917188 251.8225 262.917188 251.8225 262.917188 
C 251.8225 262.917188 251.8225 262.917188 251.8225 262.917188 
C 251.8225 262.917188 251.8225 262.917188 251.8225 262.917188 
C 251.8225 262.917188 251.8225 262.917188 251.8225 262.917188 
C 251.8225 262.917188 251.8225 262.917188 251.8225 262.917188 
C 251.8225 262.917188 251.8225 262.917188 251.8225 262.917188 
C 251.8225 262.917188 251.8225 262.917188 251.8225 262.917188 
C 251.8225 262.917188 251.8225 262.917188 251.8225 262.917188 
C 251.8225 262.917188 251.8225 262.917188 251.8225 262.917188 
C 251.8225 262.917188 251.8225 262.917188 251.8225 262.917188 
C 251.8225 262.917188 251.8225 262.917188 251.8225 262.917188 
M 473.5825 262.917188 
z
" style="fill: #ffffff"/>
   </g>
   <g id="matplotlib.axis_1">
    <g id="xtick_1">
     <g id="line2d_1">
      <path d="M 251.8225 262.917188 
L 251.8225 41.157188 
" clip-path="url(#p735288b718)" style="fill: none; stroke: #b0b0b0; stroke-width: 0.8; stroke-linecap: square"/>
     </g>
     <g id="text_1">
      <!-- 0° -->
      <g transform="translate(246.14125 29.916563)scale(0.1 -0.1)">
       <defs>
        <path id="DejaVuSans-30" d="M 2034 4250 
Q 1547 4250 1301 3770 
Q 1056 3291 1056 2328 
Q 1056 1369 1301 889 
Q 1547 409 2034 409 
Q 2525 409 2770 889 
Q 3016 1369 3016 2328 
Q 3016 3291 2770 3770 
Q 2525 4250 2034 4250 
z
M 2034 4750 
Q 2819 4750 3233 4129 
Q 3647 3509 3647 2328 
Q 3647 1150 3233 529 
Q 2819 -91 2034 -91 
Q 1250 -91 836 529 
Q 422 1150 422 2328 
Q 422 3509 836 4129 
Q 1250 4750 2034 4750 
z
" transform="scale(0.015625)"/>
        <path id="DejaVuSans-b0" d="M 1600 4347 
Q 1350 4347 1178 4173 
Q 1006 4000 1006 3750 
Q 1006 3503 1178 3333 
Q 1350 3163 1600 3163 
Q 1850 3163 2022 3333 
Q 2194 3503 2194 3750 
Q 2194 3997 2020 4172 
Q 1847 4347 1600 4347 
z
M 1600 4750 
Q 1800 4750 1984 4673 
Q 2169 4597 2303 4453 
Q 2447 4313 2519 4134 
Q 2591 3956 2591 3750 
Q 2591 3338 2302 3052 
Q 2013 2766 1594 2766 
Q 1172 2766 890 3047 
Q 609 3328 609 3750 
Q 609 4169 896 4459 
Q 1184 4750 1600 4750 
z
" transform="scale(0.015625)"/>
       </defs>
       <use xlink:href="#DejaVuSans-30"/>
       <use xlink:href="#DejaVuSans-b0" x="63.623047"/>
      </g>
     </g>
    </g>
    <g id="xtick_2">
     <g id="line2d_2">
      <path d="M 251.8225 262.917188 
L 95.0145 106.109188 
" clip-path="url(#p735288b718)" style="fill: none; stroke: #b0b0b0; stroke-width: 0.8; stroke-linecap: square"/>
     </g>
     <g id="text_2">
      <!-- 45° -->
      <g transform="translate(76.252505 98.969068)scale(0.1 -0.1)">
       <defs>
        <path id="DejaVuSans-34" d="M 2419 4116 
L 825 1625 
L 2419 1625 
L 2419 4116 
z
M 2253 4666 
L 3047 4666 
L 3047 1625 
L 3713 1625 
L 3713 1100 
L 3047 1100 
L 3047 0 
L 2419 0 
L 2419 1100 
L 313 1100 
L 313 1709 
L 2253 4666 
z
" transform="scale(0.015625)"/>
        <path id="DejaVuSans-35" d="M 691 4666 
L 3169 4666 
L 3169 4134 
L 1269 4134 
L 1269 2991 
Q 1406 3038 1543 3061 
Q 1681 3084 1819 3084 
Q 2600 3084 3056 2656 
Q 3513 2228 3513 1497 
Q 3513 744 3044 326 
Q 2575 -91 1722 -91 
Q 1428 -91 1123 -41 
Q 819 9 494 109 
L 494 744 
Q 775 591 1075 516 
Q 1375 441 1709 441 
Q 2250 441 2565 725 
Q 2881 1009 2881 1497 
Q 2881 1984 2565 2268 
Q 2250 2553 1709 2553 
Q 1456 2553 1204 2497 
Q 953 2441 691 2322 
L 691 4666 
z
" transform="scale(0.015625)"/>
       </defs>
       <use xlink:href="#DejaVuSans-34"/>
       <use xlink:href="#DejaVuSans-35" x="63.623047"/>
       <use xlink:href="#DejaVuSans-b0" x="127.246094"/>
      </g>
     </g>
    </g>
    <g id="xtick_3">
     <g id="line2d_3">
      <path d="M 251.8225 262.917188 
L 30.0625 262.917188 
" clip-path="url(#p735288b718)" style="fill: none; stroke: #b0b0b0; stroke-width: 0.8; stroke-linecap: square"/>
     </g>
     <g id="text_3">
      <!-- 90° -->
      <g transform="translate(7.2 265.676563)scale(0.1 -0.1)">
       <defs>
        <path id="DejaVuSans-39" d="M 703 97 
L 703 672 
Q 941 559 1184 500 
Q 1428 441 1663 441 
Q 2288 441 2617 861 
Q 2947 1281 2994 2138 
Q 2813 1869 2534 1725 
Q 2256 1581 1919 1581 
Q 1219 1581 811 2004 
Q 403 2428 403 3163 
Q 403 3881 828 4315 
Q 1253 4750 1959 4750 
Q 2769 4750 3195 4129 
Q 3622 3509 3622 2328 
Q 3622 1225 3098 567 
Q 2575 -91 1691 -91 
Q 1453 -91 1209 -44 
Q 966 3 703 97 
z
M 1959 2075 
Q 2384 2075 2632 2365 
Q 2881 2656 2881 3163 
Q 2881 3666 2632 3958 
Q 2384 4250 1959 4250 
Q 1534 4250 1286 3958 
Q 1038 3666 1038 3163 
Q 1038 2656 1286 2365 
Q 1534 2075 1959 2075 
z
" transform="scale(0.015625)"/>
       </defs>
       <use xlink:href="#DejaVuSans-39"/>
       <use xlink:href="#DejaVuSans-30" x="63.623047"/>
       <use xlink:href="#DejaVuSans-b0" x="127.246094"/>
      </g>
     </g>
    </g>
    <g id="xtick_4">
     <g id="line2d_4">
      <path d="M 251.8225 262.917188 
L 95.0145 419.725187 
" clip-path="url(#p735288b718)" style="fill: none; stroke: #b0b0b0; stroke-width: 0.8; stroke-linecap: square"/>
     </g>
     <g id="text_4">
      <!-- 135° -->
      <g transform="translate(73.071255 432.384057)scale(0.1 -0.1)">
       <defs>
        <path id="DejaVuSans-31" d="M 794 531 
L 1825 531 
L 1825 4091 
L 703 3866 
L 703 4441 
L 1819 4666 
L 2450 4666 
L 2450 531 
L 3481 531 
L 3481 0 
L 794 0 
L 794 531 
z
" transform="scale(0.015625)"/>
        <path id="DejaVuSans-33" d="M 2597 2516 
Q 3050 2419 3304 2112 
Q 3559 1806 3559 1356 
Q 3559 666 3084 287 
Q 2609 -91 1734 -91 
Q 1441 -91 1130 -33 
Q 819 25 488 141 
L 488 750 
Q 750 597 1062 519 
Q 1375 441 1716 441 
Q 2309 441 2620 675 
Q 2931 909 2931 1356 
Q 2931 1769 2642 2001 
Q 2353 2234 1838 2234 
L 1294 2234 
L 1294 2753 
L 1863 2753 
Q 2328 2753 2575 2939 
Q 2822 3125 2822 3475 
Q 2822 3834 2567 4026 
Q 2313 4219 1838 4219 
Q 1578 4219 1281 4162 
Q 984 4106 628 3988 
L 628 4550 
Q 988 4650 1302 4700 
Q 1616 4750 1894 4750 
Q 2613 4750 3031 4423 
Q 3450 4097 3450 3541 
Q 3450 3153 3228 2886 
Q 3006 2619 2597 2516 
z
" transform="scale(0.015625)"/>
       </defs>
       <use xlink:href="#DejaVuSans-31"/>
       <use xlink:href="#DejaVuSans-33" x="63.623047"/>
       <use xlink:href="#DejaVuSans-35" x="127.246094"/>
       <use xlink:href="#DejaVuSans-b0" x="190.869141"/>
      </g>
     </g>
    </g>
    <g id="xtick_5">
     <g id="line2d_5">
      <path d="M 251.8225 262.917188 
L 251.8225 484.677188 
" clip-path="url(#p735288b718)" style="fill: none; stroke: #b0b0b0; stroke-width: 0.8; stroke-linecap: square"/>
     </g>
     <g id="text_5">
      <!-- 180° -->
      <g transform="translate(239.77875 501.436563)scale(0.1 -0.1)">
       <defs>
        <path id="DejaVuSans-38" d="M 2034 2216 
Q 1584 2216 1326 1975 
Q 1069 1734 1069 1313 
Q 1069 891 1326 650 
Q 1584 409 2034 409 
Q 2484 409 2743 651 
Q 3003 894 3003 1313 
Q 3003 1734 2745 1975 
Q 2488 2216 2034 2216 
z
M 1403 2484 
Q 997 2584 770 2862 
Q 544 3141 544 3541 
Q 544 4100 942 4425 
Q 1341 4750 2034 4750 
Q 2731 4750 3128 4425 
Q 3525 4100 3525 3541 
Q 3525 3141 3298 2862 
Q 3072 2584 2669 2484 
Q 3125 2378 3379 2068 
Q 3634 1759 3634 1313 
Q 3634 634 3220 271 
Q 2806 -91 2034 -91 
Q 1263 -91 848 271 
Q 434 634 434 1313 
Q 434 1759 690 2068 
Q 947 2378 1403 2484 
z
M 1172 3481 
Q 1172 3119 1398 2916 
Q 1625 2713 2034 2713 
Q 2441 2713 2670 2916 
Q 2900 3119 2900 3481 
Q 2900 3844 2670 4047 
Q 2441 4250 2034 4250 
Q 1625 4250 1398 4047 
Q 1172 3844 1172 3481 
z
" transform="scale(0.015625)"/>
       </defs>
       <use xlink:href="#DejaVuSans-31"/>
       <use xlink:href="#DejaVuSans-38" x="63.623047"/>
       <use xlink:href="#DejaVuSans-30" x="127.246094"/>
       <use xlink:href="#DejaVuSans-b0" x="190.869141"/>
      </g>
     </g>
    </g>
    <g id="xtick_6">
     <g id="line2d_6">
      <path d="M 251.8225 262.917188 
L 408.6305 419.725187 
" clip-path="url(#p735288b718)" style="fill: none; stroke: #b0b0b0; stroke-width: 0.8; stroke-linecap: square"/>
     </g>
     <g id="text_6">
      <!-- 225° -->
      <g transform="translate(406.486245 432.384057)scale(0.1 -0.1)">
       <defs>
        <path id="DejaVuSans-32" d="M 1228 531 
L 3431 531 
L 3431 0 
L 469 0 
L 469 531 
Q 828 903 1448 1529 
Q 2069 2156 2228 2338 
Q 2531 2678 2651 2914 
Q 2772 3150 2772 3378 
Q 2772 3750 2511 3984 
Q 2250 4219 1831 4219 
Q 1534 4219 1204 4116 
Q 875 4013 500 3803 
L 500 4441 
Q 881 4594 1212 4672 
Q 1544 4750 1819 4750 
Q 2544 4750 2975 4387 
Q 3406 4025 3406 3419 
Q 3406 3131 3298 2873 
Q 3191 2616 2906 2266 
Q 2828 2175 2409 1742 
Q 1991 1309 1228 531 
z
" transform="scale(0.015625)"/>
       </defs>
       <use xlink:href="#DejaVuSans-32"/>
       <use xlink:href="#DejaVuSans-32" x="63.623047"/>
       <use xlink:href="#DejaVuSans-35" x="127.246094"/>
       <use xlink:href="#DejaVuSans-b0" x="190.869141"/>
      </g>
     </g>
    </g>
    <g id="xtick_7">
     <g id="line2d_7">
      <path d="M 251.8225 262.917188 
L 473.5825 262.917188 
" clip-path="url(#p735288b718)" style="fill: none; stroke: #b0b0b0; stroke-width: 0.8; stroke-linecap: square"/>
     </g>
     <g id="text_7">
      <!-- 270° -->
      <g transform="translate(475.53875 265.676563)scale(0.1 -0.1)">
       <defs>
        <path id="DejaVuSans-37" d="M 525 4666 
L 3525 4666 
L 3525 4397 
L 1831 0 
L 1172 0 
L 2766 4134 
L 525 4134 
L 525 4666 
z
" transform="scale(0.015625)"/>
       </defs>
       <use xlink:href="#DejaVuSans-32"/>
       <use xlink:href="#DejaVuSans-37" x="63.623047"/>
       <use xlink:href="#DejaVuSans-30" x="127.246094"/>
       <use xlink:href="#DejaVuSans-b0" x="190.869141"/>
      </g>
     </g>
    </g>
    <g id="xtick_8">
     <g id="line2d_8">
      <path d="M 251.8225 262.917188 
L 408.6305 106.109188 
" clip-path="url(#p735288b718)" style="fill: none; stroke: #b0b0b0; stroke-width: 0.8; stroke-linecap: square"/>
     </g>
     <g id="text_8">
      <!-- 315° -->
      <g transform="translate(406.486245 98.969068)scale(0.1 -0.1)">
       <use xlink:href="#DejaVuSans-33"/>
       <use xlink:href="#DejaVuSans-31" x="63.623047"/>
       <use xlink:href="#DejaVuSans-35" x="127.246094"/>
       <use xlink:href="#DejaVuSans-b0" x="190.869141"/>
      </g>
     </g>
    </g>
   </g>
   <g id="matplotlib.axis_2">
    <g id="ytick_1">
     <g id="line2d_9">
      <path d="M 251.8225 243.345371 
C 249.252353 243.345371 246.707197 243.851634 244.33269 244.835187 
C 241.958184 245.81874 239.800505 247.260455 237.983136 249.077824 
C 236.165767 250.895192 234.724052 253.052871 233.7405 255.427378 
C 232.756947 257.801884 232.250684 260.34704 232.250684 262.917188 
C 232.250684 265.487335 232.756947 268.032491 233.7405 270.406997 
C 234.724052 272.781504 236.165767 274.939183 237.983136 276.756551 
C 239.800505 278.57392 241.958184 280.015635 244.33269 280.999188 
C 246.707197 281.982741 249.252353 282.489004 251.8225 282.489004 
C 254.392647 282.489004 256.937803 281.982741 259.31231 280.999188 
C 261.686816 280.015635 263.844495 278.57392 265.661864 276.756551 
C 267.479233 274.939183 268.920948 272.781504 269.9045 270.406997 
C 270.888053 268.032491 271.394316 265.487335 271.394316 262.917188 
C 271.394316 260.34704 270.888053 257.801884 269.9045 255.427378 
C 268.920948 253.052871 267.479233 250.895192 265.661864 249.077824 
C 263.844495 247.260455 261.686816 245.81874 259.31231 244.835187 
C 256.937803 243.851634 254.392647 243.345371 251.8225 243.345371 
" clip-path="url(#p735288b718)" style="fill: none; stroke: #b0b0b0; stroke-width: 0.8; stroke-linecap: square"/>
     </g>
     <g id="text_9">
      <!-- −35 -->
      <g transform="translate(244.33269 242.7555)scale(0.1 -0.1)">
       <defs>
        <path id="DejaVuSans-2212" d="M 678 2272 
L 4684 2272 
L 4684 1741 
L 678 1741 
L 678 2272 
z
" transform="scale(0.015625)"/>
       </defs>
       <use xlink:href="#DejaVuSans-2212"/>
       <use xlink:href="#DejaVuSans-33" x="83.789062"/>
       <use xlink:href="#DejaVuSans-35" x="147.412109"/>
      </g>
     </g>
    </g>
    <g id="ytick_2">
     <g id="line2d_10">
      <path d="M 251.8225 214.461345 
C 245.459337 214.461345 239.158048 215.714749 233.279252 218.149826 
C 227.400456 220.584903 222.058481 224.154297 217.559045 228.653733 
C 213.05961 233.153168 209.490216 238.495143 207.055139 244.373939 
C 204.620062 250.252735 203.366658 256.554025 203.366658 262.917188 
C 203.366658 269.28035 204.620062 275.58164 207.055139 281.460436 
C 209.490216 287.339232 213.05961 292.681207 217.559045 297.180642 
C 222.058481 301.680078 227.400456 305.249472 233.279252 307.684549 
C 239.158048 310.119626 245.459337 311.37303 251.8225 311.37303 
C 258.185663 311.37303 264.486952 310.119626 270.365748 307.684549 
C 276.244544 305.249472 281.586519 301.680078 286.085955 297.180642 
C 290.58539 292.681207 294.154784 287.339232 296.589861 281.460436 
C 299.024938 275.58164 300.278342 269.28035 300.278342 262.917188 
C 300.278342 256.554025 299.024938 250.252735 296.589861 244.373939 
C 294.154784 238.495143 290.58539 233.153168 286.085955 228.653733 
C 281.586519 224.154297 276.244544 220.584903 270.365748 218.149826 
C 264.486952 215.714749 258.185663 214.461345 251.8225 214.461345 
" clip-path="url(#p735288b718)" style="fill: none; stroke: #b0b0b0; stroke-width: 0.8; stroke-linecap: square"/>
     </g>
     <g id="text_10">
      <!-- −30 -->
      <g transform="translate(233.279252 216.070139)scale(0.1 -0.1)">
       <use xlink:href="#DejaVuSans-2212"/>
       <use xlink:href="#DejaVuSans-33" x="83.789062"/>
       <use xlink:href="#DejaVuSans-30" x="147.412109"/>
      </g>
     </g>
    </g>
    <g id="ytick_3">
     <g id="line2d_11">
      <path d="M 251.8225 185.577319 
C 241.666321 185.577319 231.608899 187.577865 222.225814 191.464466 
C 212.842728 195.351067 204.316457 201.048139 197.134954 208.229642 
C 189.953452 215.411145 184.25638 223.937416 180.369778 233.320501 
C 176.483177 242.703587 174.482631 252.761009 174.482631 262.917188 
C 174.482631 273.073366 176.483177 283.130788 180.369778 292.513874 
C 184.25638 301.896959 189.953452 310.42323 197.134954 317.604733 
C 204.316457 324.786236 212.842728 330.483308 222.225814 334.369909 
C 231.608899 338.25651 241.666321 340.257056 251.8225 340.257056 
C 261.978679 340.257056 272.036101 338.25651 281.419186 334.369909 
C 290.802272 330.483308 299.328543 324.786236 306.510046 317.604733 
C 313.691548 310.42323 319.38862 301.896959 323.275222 292.513874 
C 327.161823 283.130788 329.162369 273.073366 329.162369 262.917188 
C 329.162369 252.761009 327.161823 242.703587 323.275222 233.320501 
C 319.38862 223.937416 313.691548 215.411145 306.510046 208.229642 
C 299.328543 201.048139 290.802272 195.351067 281.419186 191.464466 
C 272.036101 187.577865 261.978679 185.577319 251.8225 185.577319 
" clip-path="url(#p735288b718)" style="fill: none; stroke: #b0b0b0; stroke-width: 0.8; stroke-linecap: square"/>
     </g>
     <g id="text_11">
      <!-- −25 -->
      <g transform="translate(222.225814 189.384778)scale(0.1 -0.1)">
       <use xlink:href="#DejaVuSans-2212"/>
       <use xlink:href="#DejaVuSans-32" x="83.789062"/>
       <use xlink:href="#DejaVuSans-35" x="147.412109"/>
      </g>
     </g>
    </g>
    <g id="ytick_4">
     <g id="line2d_12">
      <path d="M 251.8225 156.693293 
C 237.873306 156.693293 224.05975 159.44098 211.172375 164.779105 
C 198.285 170.117231 186.574433 177.941981 176.710864 187.805551 
C 166.847294 197.669121 159.022543 209.379688 153.684418 222.267063 
C 148.346292 235.154438 145.598605 248.967993 145.598605 262.917188 
C 145.598605 276.866382 148.346292 290.679937 153.684418 303.567312 
C 159.022543 316.454687 166.847294 328.165254 176.710864 338.028824 
C 186.574433 347.892394 198.285 355.717144 211.172375 361.05527 
C 224.05975 366.393395 237.873306 369.141082 251.8225 369.141082 
C 265.771694 369.141082 279.58525 366.393395 292.472625 361.05527 
C 305.36 355.717144 317.070567 347.892394 326.934136 338.028824 
C 336.797706 328.165254 344.622457 316.454687 349.960582 303.567312 
C 355.298708 290.679937 358.046395 276.866382 358.046395 262.917188 
C 358.046395 248.967993 355.298708 235.154438 349.960582 222.267063 
C 344.622457 209.379688 336.797706 197.669121 326.934136 187.805551 
C 317.070567 177.941981 305.36 170.117231 292.472625 164.779105 
C 279.58525 159.44098 265.771694 156.693293 251.8225 156.693293 
" clip-path="url(#p735288b718)" style="fill: none; stroke: #b0b0b0; stroke-width: 0.8; stroke-linecap: square"/>
     </g>
     <g id="text_12">
      <!-- −20 -->
      <g transform="translate(211.172375 162.699418)scale(0.1 -0.1)">
       <use xlink:href="#DejaVuSans-2212"/>
       <use xlink:href="#DejaVuSans-32" x="83.789062"/>
       <use xlink:href="#DejaVuSans-30" x="147.412109"/>
      </g>
     </g>
    </g>
    <g id="ytick_5">
     <g id="line2d_13">
      <path d="M 251.8225 127.809266 
C 234.08029 127.809266 216.510601 131.304095 200.118937 138.093744 
C 183.727273 144.883394 168.832409 154.835823 156.286773 167.38146 
C 143.741136 179.927097 133.788707 194.82196 126.999057 211.213624 
C 120.209407 227.605289 116.714579 245.174978 116.714579 262.917188 
C 116.714579 280.659397 120.209407 298.229086 126.999057 314.620751 
C 133.788707 331.012415 143.741136 345.907278 156.286773 358.452915 
C 168.832409 370.998552 183.727273 380.950981 200.118937 387.740631 
C 216.510601 394.53028 234.08029 398.025109 251.8225 398.025109 
C 269.56471 398.025109 287.134399 394.53028 303.526063 387.740631 
C 319.917727 380.950981 334.812591 370.998552 347.358227 358.452915 
C 359.903864 345.907278 369.856293 331.012415 376.645943 314.620751 
C 383.435593 298.229086 386.930421 280.659397 386.930421 262.917188 
C 386.930421 245.174978 383.435593 227.605289 376.645943 211.213624 
C 369.856293 194.82196 359.903864 179.927097 347.358227 167.38146 
C 334.812591 154.835823 319.917727 144.883394 303.526063 138.093744 
C 287.134399 131.304095 269.56471 127.809266 251.8225 127.809266 
" clip-path="url(#p735288b718)" style="fill: none; stroke: #b0b0b0; stroke-width: 0.8; stroke-linecap: square"/>
     </g>
     <g id="text_13">
      <!-- −15 -->
      <g transform="translate(200.118937 136.014057)scale(0.1 -0.1)">
       <use xlink:href="#DejaVuSans-2212"/>
       <use xlink:href="#DejaVuSans-31" x="83.789062"/>
       <use xlink:href="#DejaVuSans-35" x="147.412109"/>
      </g>
     </g>
    </g>
    <g id="ytick_6">
     <g id="line2d_14">
      <path d="M 251.8225 98.92524 
C 230.287275 98.92524 208.961452 103.16721 189.065499 111.408384 
C 169.169545 119.649558 151.090386 131.729666 135.862682 146.957369 
C 120.634978 162.185073 108.55487 180.264232 100.313696 200.160186 
C 92.072522 220.05614 87.830553 241.381962 87.830553 262.917188 
C 87.830553 284.452413 92.072522 305.778235 100.313696 325.674189 
C 108.55487 345.570143 120.634978 363.649302 135.862682 378.877006 
C 151.090386 394.104709 169.169545 406.184817 189.065499 414.425991 
C 208.961452 422.667165 230.287275 426.909135 251.8225 426.909135 
C 273.357725 426.909135 294.683548 422.667165 314.579501 414.425991 
C 334.475455 406.184817 352.554614 394.104709 367.782318 378.877006 
C 383.010022 363.649302 395.09013 345.570143 403.331304 325.674189 
C 411.572478 305.778235 415.814447 284.452413 415.814447 262.917188 
C 415.814447 241.381962 411.572478 220.05614 403.331304 200.160186 
C 395.09013 180.264232 383.010022 162.185073 367.782318 146.957369 
C 352.554614 131.729666 334.475455 119.649558 314.579501 111.408384 
C 294.683548 103.16721 273.357725 98.92524 251.8225 98.92524 
" clip-path="url(#p735288b718)" style="fill: none; stroke: #b0b0b0; stroke-width: 0.8; stroke-linecap: square"/>
     </g>
     <g id="text_14">
      <!-- −10 -->
      <g transform="translate(189.065499 109.328696)scale(0.1 -0.1)">
       <use xlink:href="#DejaVuSans-2212"/>
       <use xlink:href="#DejaVuSans-31" x="83.789062"/>
       <use xlink:href="#DejaVuSans-30" x="147.412109"/>
      </g>
     </g>
    </g>
    <g id="ytick_7">
     <g id="line2d_15">
      <path d="M 251.8225 70.041214 
C 226.494259 70.041214 201.412304 75.030325 178.01206 84.723023 
C 154.611817 94.415721 133.348362 108.623508 115.438591 126.533279 
C 97.52882 144.443049 83.321034 165.706505 73.628336 189.106748 
C 63.935637 212.506991 58.946526 237.588947 58.946526 262.917188 
C 58.946526 288.245428 63.935637 313.327384 73.628336 336.727627 
C 83.321034 360.12787 97.52882 381.391326 115.438591 399.301096 
C 133.348362 417.210867 154.611817 431.418654 178.01206 441.111352 
C 201.412304 450.80405 226.494259 455.793161 251.8225 455.793161 
C 277.150741 455.793161 302.232696 450.80405 325.63294 441.111352 
C 349.033183 431.418654 370.296638 417.210867 388.206409 399.301096 
C 406.11618 381.391326 420.323966 360.12787 430.016664 336.727627 
C 439.709363 313.327384 444.698474 288.245428 444.698474 262.917188 
C 444.698474 237.588947 439.709363 212.506991 430.016664 189.106748 
C 420.323966 165.706505 406.11618 144.443049 388.206409 126.533279 
C 370.296638 108.623508 349.033183 94.415721 325.63294 84.723023 
C 302.232696 75.030325 277.150741 70.041214 251.8225 70.041214 
" clip-path="url(#p735288b718)" style="fill: none; stroke: #b0b0b0; stroke-width: 0.8; stroke-linecap: square"/>
     </g>
     <g id="text_15">
      <!-- −5 -->
      <g transform="translate(178.01206 82.643336)scale(0.1 -0.1)">
       <use xlink:href="#DejaVuSans-2212"/>
       <use xlink:href="#DejaVuSans-35" x="83.789062"/>
      </g>
     </g>
    </g>
    <g id="ytick_8">
     <g id="line2d_16">
      <path d="M 251.8225 41.157188 
C 222.701244 41.157188 193.863155 46.89344 166.958622 58.037662 
C 140.054089 69.181885 115.606338 85.51735 95.0145 106.109188 
C 74.422662 126.701026 58.087197 151.148777 46.942975 178.05331 
C 35.798753 204.957842 30.0625 233.795931 30.0625 262.917188 
C 30.0625 292.038444 35.798753 320.876533 46.942975 347.781065 
C 58.087197 374.685598 74.422662 399.133349 95.0145 419.725187 
C 115.606338 440.317025 140.054089 456.65249 166.958622 467.796713 
C 193.863155 478.940935 222.701244 484.677188 251.8225 484.677188 
C 280.943756 484.677188 309.781845 478.940935 336.686378 467.796713 
C 363.590911 456.65249 388.038662 440.317025 408.6305 419.725187 
C 429.222338 399.133349 445.557803 374.685598 456.702025 347.781065 
C 467.846247 320.876533 473.5825 292.038444 473.5825 262.917188 
C 473.5825 233.795931 467.846247 204.957842 456.702025 178.05331 
C 445.557803 151.148777 429.222338 126.701026 408.6305 106.109188 
C 388.038662 85.51735 363.590911 69.181885 336.686378 58.037662 
C 309.781845 46.89344 280.943756 41.157188 251.8225 41.157188 
" clip-path="url(#p735288b718)" style="fill: none; stroke: #b0b0b0; stroke-width: 0.8; stroke-linecap: square"/>
     </g>
     <g id="text_16">
      <!-- 0 -->
      <g transform="translate(166.958622 55.957975)scale(0.1 -0.1)">
       <use xlink:href="#DejaVuSans-30"/>
      </g>
     </g>
    </g>
   </g>
   <g id="line2d_17">
    <path d="M 251.8225 454.268085 
L 255.124428 452.084521 
L 258.364868 450.266097 
L 261.599699 449.477268 
L 264.846476 449.168726 
L 268.181629 449.902889 
L 271.577748 450.875819 
L 275.069795 452.251208 
L 278.740417 454.44812 
L 286.091485 457.266261 
L 289.77243 458.152653 
L 293.276069 457.940898 
L 296.756557 457.54797 
L 300.138103 456.700489 
L 310.112384 453.574809 
L 320.117441 450.555997 
L 323.344525 449.238432 
L 326.377639 447.447631 
L 329.259493 445.347311 
L 331.912274 442.801764 
L 333.948196 439.036311 
L 336.100264 435.712211 
L 337.778697 431.615723 
L 338.244551 425.453426 
L 338.508242 419.302406 
L 337.076592 410.581606 
L 332.860056 397.786329 
L 327.845344 384.579169 
L 314.008598 358.675382 
L 278.298436 302.169377 
L 280.642796 304.076835 
L 319.203217 355.658789 
L 334.881191 373.139793 
L 345.306586 382.571361 
L 356.123886 391.718672 
L 363.056882 395.481162 
L 368.662105 397.325778 
L 373.900738 398.498806 
L 377.398783 397.581265 
L 380.115109 395.768073 
L 381.764651 392.859338 
L 382.703685 389.307679 
L 382.827824 385.081629 
L 382.394184 380.48446 
L 383.036761 373.019025 
L 383.636386 369.657968 
L 384.973901 366.946463 
L 386.192488 364.172236 
L 387.831675 361.733638 
L 390.231161 359.831976 
L 393.697423 358.613032 
L 397.458286 357.494173 
L 400.727869 355.963589 
L 404.913855 354.903754 
L 407.591552 352.850492 
L 409.294008 350.20507 
L 409.441745 346.724826 
L 409.114904 343.06167 
L 408.402414 339.286314 
L 406.460106 335.025887 
L 405.035228 331.131889 
L 402.575816 326.908173 
L 393.019573 317.117666 
L 384.628826 311.254737 
L 371.39282 304.088551 
L 360.011693 298.069987 
L 342.648936 290.685616 
L 339.443628 288.042142 
L 349.834592 289.179448 
L 366.505085 291.510767 
L 378.716952 292.21308 
L 394.309402 290.613835 
L 399.032166 288.874223 
L 401.893379 286.68608 
L 404.041567 284.310182 
L 404.294269 281.638367 
L 403.65557 278.875486 
L 401.206189 275.986567 
L 397.959652 273.136093 
L 392.202629 270.274198 
L 382.725991 267.488438 
L 375.906706 265.083085 
L 367.341275 262.917188 
L 362.431472 260.986501 
L 360.152442 259.134223 
L 365.325378 256.968754 
L 372.983966 254.444752 
L 382.503015 251.484124 
L 390.217643 248.371272 
L 395.859929 245.231615 
L 401.295686 241.910101 
L 404.586462 238.721753 
L 405.796438 235.767428 
L 406.626095 232.826417 
L 406.16212 230.111289 
L 404.626071 227.639704 
L 400.074685 225.953766 
L 392.671986 225.176681 
L 384.367573 224.910499 
L 368.127406 227.359209 
L 350.265215 230.93121 
L 330.2033 235.928514 
L 302.420815 244.500907 
L 336.203135 230.526496 
L 353.2414 221.941292 
L 372.62722 211.638626 
L 382.981081 204.521625 
L 388.507358 199.179991 
L 396.377376 192.413064 
L 399.566901 187.637655 
L 401.229752 183.475942 
L 403.529097 178.824848 
L 403.604273 175.28594 
L 402.997552 172.082052 
L 401.428428 169.433029 
L 399.250876 167.176081 
L 396.594882 165.266983 
L 389.135591 163.153387 
L 384.088703 163.247454 
L 376.830043 165.250591 
L 372.013276 165.588617 
L 367.127845 166.164515 
L 364.009138 165.394831 
L 362.964053 162.844884 
L 364.867826 157.500716 
L 369.106935 149.656925 
L 370.580419 144.159269 
L 372.923981 137.512933 
L 373.360517 132.583621 
L 372.543969 128.842413 
L 371.853222 124.837637 
L 369.967256 122.11775 
L 367.313836 120.297265 
L 363.523268 119.946724 
L 359.543965 119.965975 
L 355.158389 120.687539 
L 349.363528 123.614163 
L 344.436592 125.61115 
L 339.600388 127.751093 
L 335.789263 128.542278 
L 334.359594 125.552395 
L 334.670553 119.420151 
L 336.284526 110.54366 
L 335.987451 97.73417 
L 335.431715 91.492893 
L 333.765092 87.190731 
L 331.860582 83.148713 
L 329.187263 80.657227 
L 326.046542 79.206236 
L 315.760267 77.228429 
L 312.225978 77.014399 
L 308.95037 76.060344 
L 305.729929 74.919641 
L 302.549855 73.600122 
L 299.274426 72.597906 
L 292.542218 71.345974 
L 289.093434 71.174854 
L 285.560829 71.577618 
L 281.942536 72.746767 
L 278.422043 73.651607 
L 271.31387 77.46919 
L 267.949524 78.58446 
L 264.687303 78.941929 
L 261.499022 78.278147 
L 258.311644 77.092425 
L 255.101038 75.089869 
L 248.494762 72.271217 
L 245.118846 70.949649 
L 241.74871 70.697828 
L 235.002685 70.665823 
L 231.560629 70.138367 
L 228.023961 69.093644 
L 224.361899 67.52486 
L 220.652375 66.116763 
L 216.800163 64.295643 
L 212.800065 62.164161 
L 209.059769 61.734357 
L 205.377127 61.740173 
L 201.778145 62.200242 
L 194.923133 64.485513 
L 191.228854 64.724303 
L 187.445321 64.784603 
L 183.220488 63.682479 
L 179.275672 63.596415 
L 175.578299 64.294254 
L 172.045559 65.462328 
L 168.862193 67.474952 
L 165.884476 69.897226 
L 155.881168 82.477786 
L 152.892313 84.442405 
L 149.587489 85.840954 
L 142.554586 88.051971 
L 135.051862 89.797598 
L 131.448561 91.005387 
L 127.335912 91.576098 
L 123.279868 92.335353 
L 119.40479 93.430248 
L 115.281843 94.303518 
L 111.505875 95.694346 
L 108.104745 97.588822 
L 104.877905 99.718681 
L 95.472 106.566687 
L 89.992394 112.008172 
L 87.340386 114.816827 
L 84.928963 117.838849 
L 83.055232 121.304635 
L 82.198711 125.558552 
L 81.716464 130.015786 
L 83.27986 135.911199 
L 85.804565 142.298097 
L 87.870061 148.116454 
L 105.018805 171.184058 
L 116.473045 181.59103 
L 124.174525 189.219595 
L 129.971171 195.373893 
L 131.009303 198.679671 
L 125.00135 198.298584 
L 115.756803 196.553513 
L 100.9545 192.566284 
L 92.076383 191.793634 
L 82.760766 191.154739 
L 72.862463 190.612639 
L 66.8765 191.923069 
L 61.149203 193.517783 
L 56.400321 195.627935 
L 53.57454 198.502521 
L 51.176788 201.573637 
L 49.659195 204.947793 
L 48.555521 208.451965 
L 47.792876 212.046889 
L 47.285124 215.696013 
L 47.045909 219.390579 
L 47.162383 223.135291 
L 47.039723 226.808459 
L 47.205289 230.509005 
L 48.50144 234.342276 
L 50.310003 238.174564 
L 53.12042 242.032757 
L 63.951633 249.779977 
L 71.412055 253.462277 
L 83.866059 257.052019 
L 95.525958 260.189021 
L 114.554054 262.917188 
L 145.68987 264.769739 
L 160.691178 266.099563 
L 134.22948 269.079977 
L 108.128747 272.965234 
L 94.692819 276.664253 
L 80.605262 280.912844 
L 71.100565 285.107051 
L 65.182668 289.147705 
L 57.943385 293.624623 
L 53.121309 297.953569 
L 45.734977 306.722443 
L 43.784044 310.94665 
L 40.777049 319.466646 
L 40.71883 323.450191 
L 41.238417 327.299203 
L 42.036997 331.080629 
L 43.362344 334.695776 
L 45.233072 338.10959 
L 47.957462 341.173644 
L 50.527274 344.245738 
L 53.64703 347.037684 
L 57.008232 349.654088 
L 60.153753 352.293792 
L 64.951535 354.060247 
L 75.157554 356.851605 
L 89.404647 356.689179 
L 96.765324 356.084938 
L 106.405225 353.783986 
L 113.061537 353.029611 
L 118.395706 352.914697 
L 119.702775 355.428415 
L 118.678201 359.652183 
L 115.440999 365.68802 
L 111.342081 372.672519 
L 107.491681 384.025125 
L 106.270234 389.443842 
L 106.620262 393.65787 
L 106.579304 398.358659 
L 107.332099 402.449946 
L 108.83344 405.906247 
L 110.186978 409.585064 
L 112.090617 412.761287 
L 114.611076 415.305913 
L 116.499429 418.588573 
L 118.668751 421.603646 
L 121.367605 424.015566 
L 126.061122 429.808172 
L 128.59565 432.524396 
L 130.981366 435.496212 
L 136.451792 440.572499 
L 139.150486 443.230102 
L 147.940762 450.324804 
L 151.015758 452.507095 
L 154.166819 454.577253 
L 170.38142 464.490934 
L 173.590886 466.717509 
L 176.95215 468.621783 
L 180.373042 470.42148 
L 183.767951 472.367552 
L 187.23443 474.175245 
L 190.797475 475.736741 
L 194.426789 477.120899 
L 198.196261 478.000284 
L 202.080299 478.374331 
L 210.056524 477.784509 
L 214.10876 476.802433 
L 218.123846 475.682114 
L 222.046449 474.784802 
L 226.025261 473.018836 
L 229.95381 470.983877 
L 233.763617 469.33117 
L 244.900505 461.137195 
L 248.43175 457.173111 
L 248.43175 457.173111 
" clip-path="url(#p735288b718)" style="fill: none; stroke: #ff0000; stroke-width: 1.5; stroke-linecap: square"/>
   </g>
   <g id="line2d_18">
    <path d="M 251.8225 42.485853 
L 247.966369 41.999592 
L 244.0973 41.696408 
L 240.222525 41.57648 
L 236.353304 41.697384 
L 232.504912 42.116148 
L 228.690575 42.831625 
L 224.916437 43.78489 
L 221.208706 45.088722 
L 217.565365 46.626149 
L 214.006441 48.45166 
L 210.544828 50.561972 
L 207.157282 52.783857 
L 200.661514 57.72168 
L 191.326815 65.044718 
L 188.221853 67.174523 
L 185.097471 69.133631 
L 178.727107 72.497178 
L 169.002447 76.900302 
L 165.817446 78.478754 
L 162.73827 80.267448 
L 159.747743 82.210302 
L 156.933442 84.456825 
L 154.281435 86.948449 
L 151.831778 89.728177 
L 149.657519 92.886106 
L 147.746449 96.36069 
L 146.145461 100.188818 
L 144.904425 104.404623 
L 144.042944 108.99203 
L 143.614039 113.981018 
L 143.673417 119.398507 
L 144.279346 125.268228 
L 145.528881 131.6555 
L 147.524486 138.619654 
L 150.373781 146.213786 
L 154.343905 154.65624 
L 159.718517 164.147758 
L 166.877303 174.953861 
L 176.465774 187.560462 
L 188.667425 201.92904 
L 199.569086 214.190091 
L 196.837718 213.408668 
L 184.515749 204.408322 
L 172.751426 196.568679 
L 163.255205 191.196806 
L 155.598421 187.738697 
L 149.364519 185.709561 
L 144.293838 184.793042 
L 140.154833 184.726645 
L 136.84366 185.362981 
L 134.199558 186.531956 
L 132.296486 188.229044 
L 130.961686 190.296684 
L 130.263005 192.73478 
L 130.117694 195.455112 
L 130.540046 198.430163 
L 131.543404 201.631927 
L 132.984384 204.955966 
L 134.870481 208.381565 
L 140.853566 218.082828 
L 141.652002 220.626695 
L 141.147847 222.634908 
L 139.041541 224.083589 
L 135.469122 225.111683 
L 115.402912 228.903964 
L 110.495943 230.289381 
L 105.879625 231.896072 
L 101.617818 233.720355 
L 97.717714 235.744356 
L 94.185885 237.95 
L 90.971069 240.310993 
L 88.135524 242.818954 
L 85.626532 245.449287 
L 83.390347 248.181284 
L 81.545258 251.010243 
L 79.921165 253.90822 
L 78.577728 256.867347 
L 77.574382 259.875675 
L 76.796854 262.917188 
L 76.303678 265.98088 
L 76.095215 269.05372 
L 76.113699 272.125696 
L 76.416426 275.182775 
L 76.944946 278.216991 
L 77.755663 281.212349 
L 78.789519 284.162966 
L 80.159162 287.042896 
L 81.747495 289.854422 
L 83.608888 292.577786 
L 85.739944 295.200366 
L 88.13684 297.709648 
L 90.795331 300.093239 
L 93.710752 302.338874 
L 96.933821 304.419484 
L 100.347176 306.352038 
L 103.945727 308.127654 
L 111.294191 311.304965 
L 114.820004 312.782018 
L 117.868376 314.337358 
L 120.285909 316.06142 
L 121.712019 318.14581 
L 122.062423 320.690096 
L 121.362727 323.751579 
L 119.848224 327.285343 
L 117.800457 331.204829 
L 115.442222 335.431868 
L 113.141268 339.78945 
L 110.901937 344.277713 
L 108.926671 348.777664 
L 107.262551 353.248269 
L 105.954161 357.645194 
L 104.947664 361.985515 
L 104.285653 366.2236 
L 104.007979 370.310724 
L 104.013207 374.299479 
L 104.386343 378.106938 
L 105.072311 381.753148 
L 106.01806 385.26164 
L 107.303509 388.545629 
L 108.831158 391.66717 
L 110.677445 394.537081 
L 112.746697 397.22113 
L 115.030109 399.709578 
L 117.598816 401.909881 
L 120.360198 403.893247 
L 123.304444 405.650949 
L 126.421454 407.17459 
L 129.737976 408.411858 
L 133.131958 409.4878 
L 136.668315 410.307822 
L 140.301146 410.911023 
L 143.987546 411.339268 
L 147.720862 411.589734 
L 155.175266 411.740876 
L 162.540458 411.507458 
L 169.741028 410.996084 
L 183.322165 409.816631 
L 186.366274 409.934278 
L 189.167763 410.522497 
L 191.666813 411.807739 
L 193.839726 413.967477 
L 195.733951 417.01921 
L 197.43515 420.869521 
L 202.464282 435.049751 
L 204.414372 439.84673 
L 206.57309 444.402659 
L 208.941651 448.654552 
L 211.52916 452.482449 
L 214.325601 455.822008 
L 217.286682 458.779546 
L 220.411993 461.235324 
L 223.668872 463.24066 
L 227.035524 464.79091 
L 230.49002 465.882176 
L 234.005288 466.568855 
L 237.562213 466.848792 
L 241.138599 466.778164 
L 244.718252 466.356246 
L 248.283949 465.640618 
L 251.8225 464.631673 
L 255.321731 463.388007 
L 258.775543 462.026281 
L 262.176856 460.490075 
L 268.814002 457.130946 
L 275.236646 453.610106 
L 293.429841 443.13838 
L 296.359167 441.544002 
L 302.231639 438.714746 
L 308.157664 436.298994 
L 317.030348 432.789439 
L 319.920175 431.464848 
L 322.715935 429.931654 
L 325.408475 428.193993 
L 327.964365 426.203945 
L 330.346686 423.915628 
L 332.541335 421.336822 
L 334.480232 418.373771 
L 336.1725 415.088615 
L 337.602281 411.492127 
L 338.724322 407.546107 
L 339.551527 403.312979 
L 340.069183 398.805163 
L 340.295285 394.083485 
L 340.218436 389.159667 
L 339.861567 384.092567 
L 339.251237 378.93904 
L 338.453102 373.799301 
L 337.466698 368.678964 
L 336.291712 363.583674 
L 334.852182 358.431911 
L 333.066259 353.147523 
L 330.767645 347.575491 
L 327.6584 341.447561 
L 323.2578 334.352488 
L 316.847544 325.711143 
L 306.948837 314.323329 
L 290.19336 297.466465 
L 259.792233 269.845171 
L 274.957914 282.330105 
L 305.282524 306.208261 
L 324.967003 320.063936 
L 339.65549 329.104093 
L 351.593096 335.404768 
L 361.833938 339.948026 
L 370.776367 343.152584 
L 378.795976 345.374727 
L 386.09453 346.819664 
L 392.78717 347.617306 
L 398.94661 347.859332 
L 404.600228 347.603265 
L 409.880398 346.958062 
L 414.823117 345.97015 
L 419.414981 344.657502 
L 423.643226 343.038508 
L 427.654054 341.202439 
L 431.333274 339.11499 
L 434.831794 336.857742 
L 438.035882 334.397808 
L 440.992124 331.7693 
L 443.803571 329.021571 
L 446.35647 326.125106 
L 448.70058 323.108857 
L 450.887219 319.998077 
L 452.913293 316.799303 
L 454.719872 313.505184 
L 456.416164 310.151357 
L 457.887421 306.717639 
L 459.244233 303.235888 
L 460.428314 299.700021 
L 461.494946 296.126041 
L 462.443027 292.517972 
L 463.271578 288.87987 
L 463.922291 285.209774 
L 464.91685 277.818196 
L 465.422542 270.376265 
L 465.577948 266.648303 
L 465.462429 259.188089 
L 465.307076 255.462142 
L 464.686341 248.032298 
L 464.279047 244.329648 
L 463.156903 236.968586 
L 461.78023 229.66315 
L 460.038127 222.44417 
L 458.0485 215.306164 
L 455.703275 208.287498 
L 453.120089 201.374338 
L 451.685716 197.977692 
L 448.53763 191.318736 
L 445.062061 184.843337 
L 441.164131 178.616862 
L 439.088138 175.593786 
L 436.860633 172.66806 
L 434.536782 169.819611 
L 432.119085 167.051793 
L 429.610142 164.367889 
L 426.962626 161.799988 
L 424.230392 159.324075 
L 421.367393 156.97378 
L 418.426739 154.72313 
L 415.363712 152.607247 
L 408.984089 148.73261 
L 402.263099 145.38011 
L 398.79716 143.899454 
L 391.76369 141.268167 
L 388.159687 140.158633 
L 380.883582 138.284349 
L 377.218248 137.521439 
L 369.850181 136.347996 
L 362.556536 135.532251 
L 355.60765 134.7532 
L 352.394803 134.19051 
L 349.507113 133.285328 
L 347.026116 131.880652 
L 345.022923 129.81319 
L 343.49333 127.009593 
L 342.428888 123.395585 
L 341.663783 119.14108 
L 339.11783 98.73855 
L 338.101279 93.58555 
L 336.829591 88.626822 
L 335.312929 83.871384 
L 333.538223 79.380668 
L 331.518928 75.164169 
L 329.247142 71.284475 
L 326.739688 67.751239 
L 324.033445 64.519247 
L 321.124148 61.650586 
L 318.04729 59.098243 
L 314.834757 56.813382 
L 311.466998 54.912104 
L 308.007142 53.233248 
L 304.436923 51.892262 
L 300.797997 50.781004 
L 297.112272 49.845562 
L 293.386762 49.087598 
L 289.638559 48.45166 
L 270.81786 45.799234 
L 263.271308 44.460924 
L 255.660484 43.039259 
L 255.660484 43.039259 
" clip-path="url(#p735288b718)" style="fill: none; stroke-dasharray: 5.55,2.4; stroke-dashoffset: 0; stroke: #0000ff; stroke-width: 1.5"/>
   </g>
   <g id="patch_3">
    <path d="M 251.8225 41.157188 
C 222.701244 41.157188 193.863155 46.89344 166.958622 58.037662 
C 140.054089 69.181885 115.606338 85.51735 95.0145 106.109188 
C 74.422662 126.701026 58.087197 151.148777 46.942975 178.05331 
C 35.798753 204.957842 30.0625 233.795931 30.0625 262.917188 
C 30.0625 292.038444 35.798753 320.876533 46.942975 347.781065 
C 58.087197 374.685598 74.422662 399.133349 95.0145 419.725187 
C 115.606338 440.317025 140.054089 456.65249 166.958622 467.796713 
C 193.863155 478.940935 222.701244 484.677188 251.8225 484.677188 
C 280.943756 484.677188 309.781845 478.940935 336.686378 467.796713 
C 363.590911 456.65249 388.038662 440.317025 408.6305 419.725187 
C 429.222338 399.133349 445.557803 374.685598 456.702025 347.781065 
C 467.846247 320.876533 473.5825 292.038444 473.5825 262.917188 
C 473.5825 233.795931 467.846247 204.957842 456.702025 178.05331 
C 445.557803 151.148777 429.222338 126.701026 408.6305 106.109188 
C 388.038662 85.51735 363.590911 69.181885 336.686378 58.037662 
C 309.781845 46.89344 280.943756 41.157188 251.8225 41.157188 
" style="fill: none; stroke: #000000; stroke-width: 0.8; stroke-linejoin: miter; stroke-linecap: square"/>
   </g>
   <g id="text_17">
    <g id="patch_4">
     <path d="M 384.8785 509.853188 
L 485.369125 509.853188 
Q 488.369125 509.853188 488.369125 506.853188 
L 488.369125 473.945063 
Q 488.369125 470.945063 485.369125 470.945063 
L 384.8785 470.945063 
Q 381.8785 470.945063 381.8785 473.945063 
L 381.8785 506.853188 
Q 381.8785 509.853188 384.8785 509.853188 
z
" style="fill: #ffffff; stroke: #808080; stroke-linejoin: miter"/>
    </g>
    <!-- G_cst: -34.9 dBi -->
    <g transform="translate(384.8785 481.821625)scale(0.1 -0.1)">
     <defs>
      <path id="DejaVuSans-47" d="M 3809 666 
L 3809 1919 
L 2778 1919 
L 2778 2438 
L 4434 2438 
L 4434 434 
Q 4069 175 3628 42 
Q 3188 -91 2688 -91 
Q 1594 -91 976 548 
Q 359 1188 359 2328 
Q 359 3472 976 4111 
Q 1594 4750 2688 4750 
Q 3144 4750 3555 4637 
Q 3966 4525 4313 4306 
L 4313 3634 
Q 3963 3931 3569 4081 
Q 3175 4231 2741 4231 
Q 1884 4231 1454 3753 
Q 1025 3275 1025 2328 
Q 1025 1384 1454 906 
Q 1884 428 2741 428 
Q 3075 428 3337 486 
Q 3600 544 3809 666 
z
" transform="scale(0.015625)"/>
      <path id="DejaVuSans-5f" d="M 3263 -1063 
L 3263 -1509 
L -63 -1509 
L -63 -1063 
L 3263 -1063 
z
" transform="scale(0.015625)"/>
      <path id="DejaVuSans-63" d="M 3122 3366 
L 3122 2828 
Q 2878 2963 2633 3030 
Q 2388 3097 2138 3097 
Q 1578 3097 1268 2742 
Q 959 2388 959 1747 
Q 959 1106 1268 751 
Q 1578 397 2138 397 
Q 2388 397 2633 464 
Q 2878 531 3122 666 
L 3122 134 
Q 2881 22 2623 -34 
Q 2366 -91 2075 -91 
Q 1284 -91 818 406 
Q 353 903 353 1747 
Q 353 2603 823 3093 
Q 1294 3584 2113 3584 
Q 2378 3584 2631 3529 
Q 2884 3475 3122 3366 
z
" transform="scale(0.015625)"/>
      <path id="DejaVuSans-73" d="M 2834 3397 
L 2834 2853 
Q 2591 2978 2328 3040 
Q 2066 3103 1784 3103 
Q 1356 3103 1142 2972 
Q 928 2841 928 2578 
Q 928 2378 1081 2264 
Q 1234 2150 1697 2047 
L 1894 2003 
Q 2506 1872 2764 1633 
Q 3022 1394 3022 966 
Q 3022 478 2636 193 
Q 2250 -91 1575 -91 
Q 1294 -91 989 -36 
Q 684 19 347 128 
L 347 722 
Q 666 556 975 473 
Q 1284 391 1588 391 
Q 1994 391 2212 530 
Q 2431 669 2431 922 
Q 2431 1156 2273 1281 
Q 2116 1406 1581 1522 
L 1381 1569 
Q 847 1681 609 1914 
Q 372 2147 372 2553 
Q 372 3047 722 3315 
Q 1072 3584 1716 3584 
Q 2034 3584 2315 3537 
Q 2597 3491 2834 3397 
z
" transform="scale(0.015625)"/>
      <path id="DejaVuSans-74" d="M 1172 4494 
L 1172 3500 
L 2356 3500 
L 2356 3053 
L 1172 3053 
L 1172 1153 
Q 1172 725 1289 603 
Q 1406 481 1766 481 
L 2356 481 
L 2356 0 
L 1766 0 
Q 1100 0 847 248 
Q 594 497 594 1153 
L 594 3053 
L 172 3053 
L 172 3500 
L 594 3500 
L 594 4494 
L 1172 4494 
z
" transform="scale(0.015625)"/>
      <path id="DejaVuSans-3a" d="M 750 794 
L 1409 794 
L 1409 0 
L 750 0 
L 750 794 
z
M 750 3309 
L 1409 3309 
L 1409 2516 
L 750 2516 
L 750 3309 
z
" transform="scale(0.015625)"/>
      <path id="DejaVuSans-20" transform="scale(0.015625)"/>
      <path id="DejaVuSans-2d" d="M 313 2009 
L 1997 2009 
L 1997 1497 
L 313 1497 
L 313 2009 
z
" transform="scale(0.015625)"/>
      <path id="DejaVuSans-2e" d="M 684 794 
L 1344 794 
L 1344 0 
L 684 0 
L 684 794 
z
" transform="scale(0.015625)"/>
      <path id="DejaVuSans-64" d="M 2906 2969 
L 2906 4863 
L 3481 4863 
L 3481 0 
L 2906 0 
L 2906 525 
Q 2725 213 2448 61 
Q 2172 -91 1784 -91 
Q 1150 -91 751 415 
Q 353 922 353 1747 
Q 353 2572 751 3078 
Q 1150 3584 1784 3584 
Q 2172 3584 2448 3432 
Q 2725 3281 2906 2969 
z
M 947 1747 
Q 947 1113 1208 752 
Q 1469 391 1925 391 
Q 2381 391 2643 752 
Q 2906 1113 2906 1747 
Q 2906 2381 2643 2742 
Q 2381 3103 1925 3103 
Q 1469 3103 1208 2742 
Q 947 2381 947 1747 
z
" transform="scale(0.015625)"/>
      <path id="DejaVuSans-42" d="M 1259 2228 
L 1259 519 
L 2272 519 
Q 2781 519 3026 730 
Q 3272 941 3272 1375 
Q 3272 1813 3026 2020 
Q 2781 2228 2272 2228 
L 1259 2228 
z
M 1259 4147 
L 1259 2741 
L 2194 2741 
Q 2656 2741 2882 2914 
Q 3109 3088 3109 3444 
Q 3109 3797 2882 3972 
Q 2656 4147 2194 4147 
L 1259 4147 
z
M 628 4666 
L 2241 4666 
Q 2963 4666 3353 4366 
Q 3744 4066 3744 3513 
Q 3744 3084 3544 2831 
Q 3344 2578 2956 2516 
Q 3422 2416 3680 2098 
Q 3938 1781 3938 1306 
Q 3938 681 3513 340 
Q 3088 0 2303 0 
L 628 0 
L 628 4666 
z
" transform="scale(0.015625)"/>
      <path id="DejaVuSans-69" d="M 603 3500 
L 1178 3500 
L 1178 0 
L 603 0 
L 603 3500 
z
M 603 4863 
L 1178 4863 
L 1178 4134 
L 603 4134 
L 603 4863 
z
" transform="scale(0.015625)"/>
     </defs>
     <use xlink:href="#DejaVuSans-47"/>
     <use xlink:href="#DejaVuSans-5f" x="77.490234"/>
     <use xlink:href="#DejaVuSans-63" x="127.490234"/>
     <use xlink:href="#DejaVuSans-73" x="182.470703"/>
     <use xlink:href="#DejaVuSans-74" x="234.570312"/>
     <use xlink:href="#DejaVuSans-3a" x="273.779297"/>
     <use xlink:href="#DejaVuSans-20" x="307.470703"/>
     <use xlink:href="#DejaVuSans-2d" x="339.257812"/>
     <use xlink:href="#DejaVuSans-33" x="375.341797"/>
     <use xlink:href="#DejaVuSans-34" x="438.964844"/>
     <use xlink:href="#DejaVuSans-2e" x="502.587891"/>
     <use xlink:href="#DejaVuSans-39" x="534.375"/>
     <use xlink:href="#DejaVuSans-20" x="597.998047"/>
     <use xlink:href="#DejaVuSans-64" x="629.785156"/>
     <use xlink:href="#DejaVuSans-42" x="693.261719"/>
     <use xlink:href="#DejaVuSans-69" x="761.865234"/>
    </g>
    <!-- G_inpe: 1.7 dBi -->
    <g transform="translate(384.8785 493.297563)scale(0.1 -0.1)">
     <defs>
      <path id="DejaVuSans-6e" d="M 3513 2113 
L 3513 0 
L 2938 0 
L 2938 2094 
Q 2938 2591 2744 2837 
Q 2550 3084 2163 3084 
Q 1697 3084 1428 2787 
Q 1159 2491 1159 1978 
L 1159 0 
L 581 0 
L 581 3500 
L 1159 3500 
L 1159 2956 
Q 1366 3272 1645 3428 
Q 1925 3584 2291 3584 
Q 2894 3584 3203 3211 
Q 3513 2838 3513 2113 
z
" transform="scale(0.015625)"/>
      <path id="DejaVuSans-70" d="M 1159 525 
L 1159 -1331 
L 581 -1331 
L 581 3500 
L 1159 3500 
L 1159 2969 
Q 1341 3281 1617 3432 
Q 1894 3584 2278 3584 
Q 2916 3584 3314 3078 
Q 3713 2572 3713 1747 
Q 3713 922 3314 415 
Q 2916 -91 2278 -91 
Q 1894 -91 1617 61 
Q 1341 213 1159 525 
z
M 3116 1747 
Q 3116 2381 2855 2742 
Q 2594 3103 2138 3103 
Q 1681 3103 1420 2742 
Q 1159 2381 1159 1747 
Q 1159 1113 1420 752 
Q 1681 391 2138 391 
Q 2594 391 2855 752 
Q 3116 1113 3116 1747 
z
" transform="scale(0.015625)"/>
      <path id="DejaVuSans-65" d="M 3597 1894 
L 3597 1613 
L 953 1613 
Q 991 1019 1311 708 
Q 1631 397 2203 397 
Q 2534 397 2845 478 
Q 3156 559 3463 722 
L 3463 178 
Q 3153 47 2828 -22 
Q 2503 -91 2169 -91 
Q 1331 -91 842 396 
Q 353 884 353 1716 
Q 353 2575 817 3079 
Q 1281 3584 2069 3584 
Q 2775 3584 3186 3129 
Q 3597 2675 3597 1894 
z
M 3022 2063 
Q 3016 2534 2758 2815 
Q 2500 3097 2075 3097 
Q 1594 3097 1305 2825 
Q 1016 2553 972 2059 
L 3022 2063 
z
" transform="scale(0.015625)"/>
     </defs>
     <use xlink:href="#DejaVuSans-47"/>
     <use xlink:href="#DejaVuSans-5f" x="77.490234"/>
     <use xlink:href="#DejaVuSans-69" x="127.490234"/>
     <use xlink:href="#DejaVuSans-6e" x="155.273438"/>
     <use xlink:href="#DejaVuSans-70" x="218.652344"/>
     <use xlink:href="#DejaVuSans-65" x="282.128906"/>
     <use xlink:href="#DejaVuSans-3a" x="343.652344"/>
     <use xlink:href="#DejaVuSans-20" x="377.34375"/>
     <use xlink:href="#DejaVuSans-31" x="409.130859"/>
     <use xlink:href="#DejaVuSans-2e" x="472.753906"/>
     <use xlink:href="#DejaVuSans-37" x="504.541016"/>
     <use xlink:href="#DejaVuSans-20" x="568.164062"/>
     <use xlink:href="#DejaVuSans-64" x="599.951172"/>
     <use xlink:href="#DejaVuSans-42" x="663.427734"/>
     <use xlink:href="#DejaVuSans-69" x="732.03125"/>
    </g>
    <!-- Pearson Coef: 0.168 -->
    <g transform="translate(384.8785 504.7735)scale(0.1 -0.1)">
     <defs>
      <path id="DejaVuSans-50" d="M 1259 4147 
L 1259 2394 
L 2053 2394 
Q 2494 2394 2734 2622 
Q 2975 2850 2975 3272 
Q 2975 3691 2734 3919 
Q 2494 4147 2053 4147 
L 1259 4147 
z
M 628 4666 
L 2053 4666 
Q 2838 4666 3239 4311 
Q 3641 3956 3641 3272 
Q 3641 2581 3239 2228 
Q 2838 1875 2053 1875 
L 1259 1875 
L 1259 0 
L 628 0 
L 628 4666 
z
" transform="scale(0.015625)"/>
      <path id="DejaVuSans-61" d="M 2194 1759 
Q 1497 1759 1228 1600 
Q 959 1441 959 1056 
Q 959 750 1161 570 
Q 1363 391 1709 391 
Q 2188 391 2477 730 
Q 2766 1069 2766 1631 
L 2766 1759 
L 2194 1759 
z
M 3341 1997 
L 3341 0 
L 2766 0 
L 2766 531 
Q 2569 213 2275 61 
Q 1981 -91 1556 -91 
Q 1019 -91 701 211 
Q 384 513 384 1019 
Q 384 1609 779 1909 
Q 1175 2209 1959 2209 
L 2766 2209 
L 2766 2266 
Q 2766 2663 2505 2880 
Q 2244 3097 1772 3097 
Q 1472 3097 1187 3025 
Q 903 2953 641 2809 
L 641 3341 
Q 956 3463 1253 3523 
Q 1550 3584 1831 3584 
Q 2591 3584 2966 3190 
Q 3341 2797 3341 1997 
z
" transform="scale(0.015625)"/>
      <path id="DejaVuSans-72" d="M 2631 2963 
Q 2534 3019 2420 3045 
Q 2306 3072 2169 3072 
Q 1681 3072 1420 2755 
Q 1159 2438 1159 1844 
L 1159 0 
L 581 0 
L 581 3500 
L 1159 3500 
L 1159 2956 
Q 1341 3275 1631 3429 
Q 1922 3584 2338 3584 
Q 2397 3584 2469 3576 
Q 2541 3569 2628 3553 
L 2631 2963 
z
" transform="scale(0.015625)"/>
      <path id="DejaVuSans-6f" d="M 1959 3097 
Q 1497 3097 1228 2736 
Q 959 2375 959 1747 
Q 959 1119 1226 758 
Q 1494 397 1959 397 
Q 2419 397 2687 759 
Q 2956 1122 2956 1747 
Q 2956 2369 2687 2733 
Q 2419 3097 1959 3097 
z
M 1959 3584 
Q 2709 3584 3137 3096 
Q 3566 2609 3566 1747 
Q 3566 888 3137 398 
Q 2709 -91 1959 -91 
Q 1206 -91 779 398 
Q 353 888 353 1747 
Q 353 2609 779 3096 
Q 1206 3584 1959 3584 
z
" transform="scale(0.015625)"/>
      <path id="DejaVuSans-43" d="M 4122 4306 
L 4122 3641 
Q 3803 3938 3442 4084 
Q 3081 4231 2675 4231 
Q 1875 4231 1450 3742 
Q 1025 3253 1025 2328 
Q 1025 1406 1450 917 
Q 1875 428 2675 428 
Q 3081 428 3442 575 
Q 3803 722 4122 1019 
L 4122 359 
Q 3791 134 3420 21 
Q 3050 -91 2638 -91 
Q 1578 -91 968 557 
Q 359 1206 359 2328 
Q 359 3453 968 4101 
Q 1578 4750 2638 4750 
Q 3056 4750 3426 4639 
Q 3797 4528 4122 4306 
z
" transform="scale(0.015625)"/>
      <path id="DejaVuSans-66" d="M 2375 4863 
L 2375 4384 
L 1825 4384 
Q 1516 4384 1395 4259 
Q 1275 4134 1275 3809 
L 1275 3500 
L 2222 3500 
L 2222 3053 
L 1275 3053 
L 1275 0 
L 697 0 
L 697 3053 
L 147 3053 
L 147 3500 
L 697 3500 
L 697 3744 
Q 697 4328 969 4595 
Q 1241 4863 1831 4863 
L 2375 4863 
z
" transform="scale(0.015625)"/>
      <path id="DejaVuSans-36" d="M 2113 2584 
Q 1688 2584 1439 2293 
Q 1191 2003 1191 1497 
Q 1191 994 1439 701 
Q 1688 409 2113 409 
Q 2538 409 2786 701 
Q 3034 994 3034 1497 
Q 3034 2003 2786 2293 
Q 2538 2584 2113 2584 
z
M 3366 4563 
L 3366 3988 
Q 3128 4100 2886 4159 
Q 2644 4219 2406 4219 
Q 1781 4219 1451 3797 
Q 1122 3375 1075 2522 
Q 1259 2794 1537 2939 
Q 1816 3084 2150 3084 
Q 2853 3084 3261 2657 
Q 3669 2231 3669 1497 
Q 3669 778 3244 343 
Q 2819 -91 2113 -91 
Q 1303 -91 875 529 
Q 447 1150 447 2328 
Q 447 3434 972 4092 
Q 1497 4750 2381 4750 
Q 2619 4750 2861 4703 
Q 3103 4656 3366 4563 
z
" transform="scale(0.015625)"/>
     </defs>
     <use xlink:href="#DejaVuSans-50"/>
     <use xlink:href="#DejaVuSans-65" x="56.677734"/>
     <use xlink:href="#DejaVuSans-61" x="118.201172"/>
     <use xlink:href="#DejaVuSans-72" x="179.480469"/>
     <use xlink:href="#DejaVuSans-73" x="220.59375"/>
     <use xlink:href="#DejaVuSans-6f" x="272.693359"/>
     <use xlink:href="#DejaVuSans-6e" x="333.875"/>
     <use xlink:href="#DejaVuSans-20" x="397.253906"/>
     <use xlink:href="#DejaVuSans-43" x="429.041016"/>
     <use xlink:href="#DejaVuSans-6f" x="498.865234"/>
     <use xlink:href="#DejaVuSans-65" x="560.046875"/>
     <use xlink:href="#DejaVuSans-66" x="621.570312"/>
     <use xlink:href="#DejaVuSans-3a" x="653.150391"/>
     <use xlink:href="#DejaVuSans-20" x="686.841797"/>
     <use xlink:href="#DejaVuSans-30" x="718.628906"/>
     <use xlink:href="#DejaVuSans-2e" x="782.251953"/>
     <use xlink:href="#DejaVuSans-31" x="814.039062"/>
     <use xlink:href="#DejaVuSans-36" x="877.662109"/>
     <use xlink:href="#DejaVuSans-38" x="941.285156"/>
    </g>
   </g>
   <g id="text_18">
    <g id="patch_5">
     <path d="M 52.2385 56.370938 
L 129.496 56.370938 
Q 133.096 56.370938 133.096 52.770938 
L 133.096 41.157188 
Q 133.096 37.557188 129.496 37.557188 
L 52.2385 37.557188 
Q 48.6385 37.557188 48.6385 41.157188 
L 48.6385 52.770938 
Q 48.6385 56.370938 52.2385 56.370938 
z
" style="fill: #ffffff; stroke: #808080; stroke-linejoin: miter"/>
    </g>
    <!-- Freq: 18 GHz -->
    <g transform="translate(52.2385 50.275313)scale(0.12 -0.12)">
     <defs>
      <path id="DejaVuSans-46" d="M 628 4666 
L 3309 4666 
L 3309 4134 
L 1259 4134 
L 1259 2759 
L 3109 2759 
L 3109 2228 
L 1259 2228 
L 1259 0 
L 628 0 
L 628 4666 
z
" transform="scale(0.015625)"/>
      <path id="DejaVuSans-71" d="M 947 1747 
Q 947 1113 1208 752 
Q 1469 391 1925 391 
Q 2381 391 2643 752 
Q 2906 1113 2906 1747 
Q 2906 2381 2643 2742 
Q 2381 3103 1925 3103 
Q 1469 3103 1208 2742 
Q 947 2381 947 1747 
z
M 2906 525 
Q 2725 213 2448 61 
Q 2172 -91 1784 -91 
Q 1150 -91 751 415 
Q 353 922 353 1747 
Q 353 2572 751 3078 
Q 1150 3584 1784 3584 
Q 2172 3584 2448 3432 
Q 2725 3281 2906 2969 
L 2906 3500 
L 3481 3500 
L 3481 -1331 
L 2906 -1331 
L 2906 525 
z
" transform="scale(0.015625)"/>
      <path id="DejaVuSans-48" d="M 628 4666 
L 1259 4666 
L 1259 2753 
L 3553 2753 
L 3553 4666 
L 4184 4666 
L 4184 0 
L 3553 0 
L 3553 2222 
L 1259 2222 
L 1259 0 
L 628 0 
L 628 4666 
z
" transform="scale(0.015625)"/>
      <path id="DejaVuSans-7a" d="M 353 3500 
L 3084 3500 
L 3084 2975 
L 922 459 
L 3084 459 
L 3084 0 
L 275 0 
L 275 525 
L 2438 3041 
L 353 3041 
L 353 3500 
z
" transform="scale(0.015625)"/>
     </defs>
     <use xlink:href="#DejaVuSans-46"/>
     <use xlink:href="#DejaVuSans-72" x="50.269531"/>
     <use xlink:href="#DejaVuSans-65" x="89.132812"/>
     <use xlink:href="#DejaVuSans-71" x="150.65625"/>
     <use xlink:href="#DejaVuSans-3a" x="214.132812"/>
     <use xlink:href="#DejaVuSans-20" x="247.824219"/>
     <use xlink:href="#DejaVuSans-31" x="279.611328"/>
     <use xlink:href="#DejaVuSans-38" x="343.234375"/>
     <use xlink:href="#DejaVuSans-20" x="406.857422"/>
     <use xlink:href="#DejaVuSans-47" x="438.644531"/>
     <use xlink:href="#DejaVuSans-48" x="516.134766"/>
     <use xlink:href="#DejaVuSans-7a" x="591.330078"/>
    </g>
   </g>
   <g id="text_19">
    <!-- Radiation Diagram - 4AVHF18 -->
    <g transform="translate(162.578125 16.318125)scale(0.12 -0.12)">
     <defs>
      <path id="DejaVuSans-52" d="M 2841 2188 
Q 3044 2119 3236 1894 
Q 3428 1669 3622 1275 
L 4263 0 
L 3584 0 
L 2988 1197 
Q 2756 1666 2539 1819 
Q 2322 1972 1947 1972 
L 1259 1972 
L 1259 0 
L 628 0 
L 628 4666 
L 2053 4666 
Q 2853 4666 3247 4331 
Q 3641 3997 3641 3322 
Q 3641 2881 3436 2590 
Q 3231 2300 2841 2188 
z
M 1259 4147 
L 1259 2491 
L 2053 2491 
Q 2509 2491 2742 2702 
Q 2975 2913 2975 3322 
Q 2975 3731 2742 3939 
Q 2509 4147 2053 4147 
L 1259 4147 
z
" transform="scale(0.015625)"/>
      <path id="DejaVuSans-44" d="M 1259 4147 
L 1259 519 
L 2022 519 
Q 2988 519 3436 956 
Q 3884 1394 3884 2338 
Q 3884 3275 3436 3711 
Q 2988 4147 2022 4147 
L 1259 4147 
z
M 628 4666 
L 1925 4666 
Q 3281 4666 3915 4102 
Q 4550 3538 4550 2338 
Q 4550 1131 3912 565 
Q 3275 0 1925 0 
L 628 0 
L 628 4666 
z
" transform="scale(0.015625)"/>
      <path id="DejaVuSans-67" d="M 2906 1791 
Q 2906 2416 2648 2759 
Q 2391 3103 1925 3103 
Q 1463 3103 1205 2759 
Q 947 2416 947 1791 
Q 947 1169 1205 825 
Q 1463 481 1925 481 
Q 2391 481 2648 825 
Q 2906 1169 2906 1791 
z
M 3481 434 
Q 3481 -459 3084 -895 
Q 2688 -1331 1869 -1331 
Q 1566 -1331 1297 -1286 
Q 1028 -1241 775 -1147 
L 775 -588 
Q 1028 -725 1275 -790 
Q 1522 -856 1778 -856 
Q 2344 -856 2625 -561 
Q 2906 -266 2906 331 
L 2906 616 
Q 2728 306 2450 153 
Q 2172 0 1784 0 
Q 1141 0 747 490 
Q 353 981 353 1791 
Q 353 2603 747 3093 
Q 1141 3584 1784 3584 
Q 2172 3584 2450 3431 
Q 2728 3278 2906 2969 
L 2906 3500 
L 3481 3500 
L 3481 434 
z
" transform="scale(0.015625)"/>
      <path id="DejaVuSans-6d" d="M 3328 2828 
Q 3544 3216 3844 3400 
Q 4144 3584 4550 3584 
Q 5097 3584 5394 3201 
Q 5691 2819 5691 2113 
L 5691 0 
L 5113 0 
L 5113 2094 
Q 5113 2597 4934 2840 
Q 4756 3084 4391 3084 
Q 3944 3084 3684 2787 
Q 3425 2491 3425 1978 
L 3425 0 
L 2847 0 
L 2847 2094 
Q 2847 2600 2669 2842 
Q 2491 3084 2119 3084 
Q 1678 3084 1418 2786 
Q 1159 2488 1159 1978 
L 1159 0 
L 581 0 
L 581 3500 
L 1159 3500 
L 1159 2956 
Q 1356 3278 1631 3431 
Q 1906 3584 2284 3584 
Q 2666 3584 2933 3390 
Q 3200 3197 3328 2828 
z
" transform="scale(0.015625)"/>
      <path id="DejaVuSans-41" d="M 2188 4044 
L 1331 1722 
L 3047 1722 
L 2188 4044 
z
M 1831 4666 
L 2547 4666 
L 4325 0 
L 3669 0 
L 3244 1197 
L 1141 1197 
L 716 0 
L 50 0 
L 1831 4666 
z
" transform="scale(0.015625)"/>
      <path id="DejaVuSans-56" d="M 1831 0 
L 50 4666 
L 709 4666 
L 2188 738 
L 3669 4666 
L 4325 4666 
L 2547 0 
L 1831 0 
z
" transform="scale(0.015625)"/>
     </defs>
     <use xlink:href="#DejaVuSans-52"/>
     <use xlink:href="#DejaVuSans-61" x="67.232422"/>
     <use xlink:href="#DejaVuSans-64" x="128.511719"/>
     <use xlink:href="#DejaVuSans-69" x="191.988281"/>
     <use xlink:href="#DejaVuSans-61" x="219.771484"/>
     <use xlink:href="#DejaVuSans-74" x="281.050781"/>
     <use xlink:href="#DejaVuSans-69" x="320.259766"/>
     <use xlink:href="#DejaVuSans-6f" x="348.042969"/>
     <use xlink:href="#DejaVuSans-6e" x="409.224609"/>
     <use xlink:href="#DejaVuSans-20" x="472.603516"/>
     <use xlink:href="#DejaVuSans-44" x="504.390625"/>
     <use xlink:href="#DejaVuSans-69" x="581.392578"/>
     <use xlink:href="#DejaVuSans-61" x="609.175781"/>
     <use xlink:href="#DejaVuSans-67" x="670.455078"/>
     <use xlink:href="#DejaVuSans-72" x="733.931641"/>
     <use xlink:href="#DejaVuSans-61" x="775.044922"/>
     <use xlink:href="#DejaVuSans-6d" x="836.324219"/>
     <use xlink:href="#DejaVuSans-20" x="933.736328"/>
     <use xlink:href="#DejaVuSans-2d" x="965.523438"/>
     <use xlink:href="#DejaVuSans-20" x="1001.607422"/>
     <use xlink:href="#DejaVuSans-34" x="1033.394531"/>
     <use xlink:href="#DejaVuSans-41" x="1097.017578"/>
     <use xlink:href="#DejaVuSans-56" x="1159.050781"/>
     <use xlink:href="#DejaVuSans-48" x="1227.458984"/>
     <use xlink:href="#DejaVuSans-46" x="1302.654297"/>
     <use xlink:href="#DejaVuSans-31" x="1360.173828"/>
     <use xlink:href="#DejaVuSans-38" x="1423.796875"/>
    </g>
   </g>
   <g id="legend_1">
    <g id="patch_6">
     <path d="M 411.802812 78.513438 
L 466.5825 78.513438 
Q 468.5825 78.513438 468.5825 76.513438 
L 468.5825 48.157188 
Q 468.5825 46.157188 466.5825 46.157188 
L 411.802812 46.157188 
Q 409.802812 46.157188 409.802812 48.157188 
L 409.802812 76.513438 
Q 409.802812 78.513438 411.802812 78.513438 
z
" style="fill: #ffffff; opacity: 0.8; stroke: #cccccc; stroke-linejoin: miter"/>
    </g>
    <g id="line2d_19">
     <path d="M 413.802812 54.255625 
L 423.802812 54.255625 
L 433.802812 54.255625 
" style="fill: none; stroke: #ff0000; stroke-width: 1.5; stroke-linecap: square"/>
    </g>
    <g id="text_20">
     <!-- INPE -->
     <g transform="translate(441.802812 57.755625)scale(0.1 -0.1)">
      <defs>
       <path id="DejaVuSans-49" d="M 628 4666 
L 1259 4666 
L 1259 0 
L 628 0 
L 628 4666 
z
" transform="scale(0.015625)"/>
       <path id="DejaVuSans-4e" d="M 628 4666 
L 1478 4666 
L 3547 763 
L 3547 4666 
L 4159 4666 
L 4159 0 
L 3309 0 
L 1241 3903 
L 1241 0 
L 628 0 
L 628 4666 
z
" transform="scale(0.015625)"/>
       <path id="DejaVuSans-45" d="M 628 4666 
L 3578 4666 
L 3578 4134 
L 1259 4134 
L 1259 2753 
L 3481 2753 
L 3481 2222 
L 1259 2222 
L 1259 531 
L 3634 531 
L 3634 0 
L 628 0 
L 628 4666 
z
" transform="scale(0.015625)"/>
      </defs>
      <use xlink:href="#DejaVuSans-49"/>
      <use xlink:href="#DejaVuSans-4e" x="29.492188"/>
      <use xlink:href="#DejaVuSans-50" x="104.296875"/>
      <use xlink:href="#DejaVuSans-45" x="164.599609"/>
     </g>
    </g>
    <g id="line2d_20">
     <path d="M 413.802812 68.93375 
L 423.802812 68.93375 
L 433.802812 68.93375 
" style="fill: none; stroke-dasharray: 5.55,2.4; stroke-dashoffset: 0; stroke: #0000ff; stroke-width: 1.5"/>
    </g>
    <g id="text_21">
     <!-- CST -->
     <g transform="translate(441.802812 72.43375)scale(0.1 -0.1)">
      <defs>
       <path id="DejaVuSans-53" d="M 3425 4513 
L 3425 3897 
Q 3066 4069 2747 4153 
Q 2428 4238 2131 4238 
Q 1616 4238 1336 4038 
Q 1056 3838 1056 3469 
Q 1056 3159 1242 3001 
Q 1428 2844 1947 2747 
L 2328 2669 
Q 3034 2534 3370 2195 
Q 3706 1856 3706 1288 
Q 3706 609 3251 259 
Q 2797 -91 1919 -91 
Q 1588 -91 1214 -16 
Q 841 59 441 206 
L 441 856 
Q 825 641 1194 531 
Q 1563 422 1919 422 
Q 2459 422 2753 634 
Q 3047 847 3047 1241 
Q 3047 1584 2836 1778 
Q 2625 1972 2144 2069 
L 1759 2144 
Q 1053 2284 737 2584 
Q 422 2884 422 3419 
Q 422 4038 858 4394 
Q 1294 4750 2059 4750 
Q 2388 4750 2728 4690 
Q 3069 4631 3425 4513 
z
" transform="scale(0.015625)"/>
       <path id="DejaVuSans-54" d="M -19 4666 
L 3928 4666 
L 3928 4134 
L 2272 4134 
L 2272 0 
L 1638 0 
L 1638 4134 
L -19 4134 
L -19 4666 
z
" transform="scale(0.015625)"/>
      </defs>
      <use xlink:href="#DejaVuSans-43"/>
      <use xlink:href="#DejaVuSans-53" x="69.824219"/>
      <use xlink:href="#DejaVuSans-54" x="133.300781"/>
     </g>
    </g>
   </g>
  </g>
 </g>
 <defs>
  <clipPath id="p735288b718">
   <path d="M 473.5825 262.917188 
C 473.5825 233.795931 467.846247 204.957842 456.702025 178.05331 
C 445.557803 151.148777 429.222338 126.701026 408.6305 106.109188 
C 388.038662 85.51735 363.590911 69.181885 336.686378 58.037662 
C 309.781845 46.89344 280.943756 41.157188 251.8225 41.157188 
C 222.701244 41.157188 193.863155 46.89344 166.958622 58.037662 
C 140.054089 69.181885 115.606338 85.51735 95.0145 106.109188 
C 74.422662 126.701026 58.087197 151.148777 46.942975 178.05331 
C 35.798753 204.957842 30.0625 233.795931 30.0625 262.917188 
C 30.0625 292.038444 35.798753 320.876533 46.942975 347.781065 
C 58.087197 374.685598 74.422662 399.133349 95.0145 419.725187 
C 115.606338 440.317025 140.054089 456.65249 166.958622 467.796713 
C 193.863155 478.940935 222.701244 484.677188 251.8225 484.677188 
C 280.943756 484.677188 309.781845 478.940935 336.686378 467.796713 
C 363.590911 456.65249 388.038662 440.317025 408.6305 419.725187 
C 429.222338 399.133349 445.557803 374.685598 456.702025 347.781065 
C 467.846247 320.876533 473.5825 292.038444 473.5825 262.917188 
M 251.8225 262.917188 
C 251.8225 262.917188 251.8225 262.917188 251.8225 262.917188 
C 251.8225 262.917188 251.8225 262.917188 251.8225 262.917188 
C 251.8225 262.917188 251.8225 262.917188 251.8225 262.917188 
C 251.8225 262.917188 251.8225 262.917188 251.8225 262.917188 
C 251.8225 262.917188 251.8225 262.917188 251.8225 262.917188 
C 251.8225 262.917188 251.8225 262.917188 251.8225 262.917188 
C 251.8225 262.917188 251.8225 262.917188 251.8225 262.917188 
C 251.8225 262.917188 251.8225 262.917188 251.8225 262.917188 
C 251.8225 262.917188 251.8225 262.917188 251.8225 262.917188 
C 251.8225 262.917188 251.8225 262.917188 251.8225 262.917188 
C 251.8225 262.917188 251.8225 262.917188 251.8225 262.917188 
C 251.8225 262.917188 251.8225 262.917188 251.8225 262.917188 
C 251.8225 262.917188 251.8225 262.917188 251.8225 262.917188 
C 251.8225 262.917188 251.8225 262.917188 251.8225 262.917188 
C 251.8225 262.917188 251.8225 262.917188 251.8225 262.917188 
C 251.8225 262.917188 251.8225 262.917188 251.8225 262.917188 
M 473.5825 262.917188 
z
"/>
  </clipPath>
 </defs>
</svg>
