<?xml version="1.0" encoding="utf-8" standalone="no"?>
<!DOCTYPE svg PUBLIC "-//W3C//DTD SVG 1.1//EN"
  "http://www.w3.org/Graphics/SVG/1.1/DTD/svg11.dtd">
<svg xmlns:xlink="http://www.w3.org/1999/xlink" width="392.765pt" height="399.83625pt" viewBox="0 0 392.765 399.83625" xmlns="http://www.w3.org/2000/svg" version="1.1">
 <metadata>
  <rdf:RDF xmlns:dc="http://purl.org/dc/elements/1.1/" xmlns:cc="http://creativecommons.org/ns#" xmlns:rdf="http://www.w3.org/1999/02/22-rdf-syntax-ns#">
   <cc:Work>
    <dc:type rdf:resource="http://purl.org/dc/dcmitype/StillImage"/>
    <dc:date>2023-11-03T14:10:32.242048</dc:date>
    <dc:format>image/svg+xml</dc:format>
    <dc:creator>
     <cc:Agent>
      <dc:title>Matplotlib v3.5.1, https://matplotlib.org/</dc:title>
     </cc:Agent>
    </dc:creator>
   </cc:Work>
  </rdf:RDF>
 </metadata>
 <defs>
  <style type="text/css">*{stroke-linejoin: round; stroke-linecap: butt}</style>
 </defs>
 <g id="figure_1">
  <g id="patch_1">
   <path d="M 0 399.83625 
L 392.765 399.83625 
L 392.765 0 
L 0 0 
z
" style="fill: #ffffff"/>
  </g>
  <g id="axes_1">
   <g id="patch_2">
    <path d="M 365.88375 207.477187 
C 365.88375 185.636245 361.581561 164.007679 353.223394 143.829279 
C 344.865227 123.650879 332.613628 105.315066 317.16975 89.871188 
C 301.725871 74.427309 283.390058 62.17571 263.211658 53.817544 
C 243.033259 45.459377 221.404692 41.157187 199.56375 41.157187 
C 177.722808 41.157187 156.094241 45.459377 135.915842 53.817544 
C 115.737442 62.17571 97.401629 74.427309 81.95775 89.871188 
C 66.513872 105.315066 54.262273 123.650879 45.904106 143.829279 
C 37.545939 164.007679 33.24375 185.636245 33.24375 207.477187 
C 33.24375 229.31813 37.545939 250.946696 45.904106 271.125096 
C 54.262273 291.303496 66.513872 309.639309 81.95775 325.083187 
C 97.401629 340.527066 115.737442 352.778665 135.915842 361.136831 
C 156.094241 369.494998 177.722808 373.797188 199.56375 373.797188 
C 221.404692 373.797188 243.033259 369.494998 263.211658 361.136831 
C 283.390058 352.778665 301.725871 340.527066 317.16975 325.083187 
C 332.613628 309.639309 344.865227 291.303496 353.223394 271.125096 
C 361.581561 250.946696 365.88375 229.31813 365.88375 207.477188 
M 199.56375 207.477187 
C 199.56375 207.477187 199.56375 207.477187 199.56375 207.477187 
C 199.56375 207.477187 199.56375 207.477187 199.56375 207.477187 
C 199.56375 207.477187 199.56375 207.477187 199.56375 207.477187 
C 199.56375 207.477187 199.56375 207.477187 199.56375 207.477187 
C 199.56375 207.477187 199.56375 207.477187 199.56375 207.477187 
C 199.56375 207.477187 199.56375 207.477187 199.56375 207.477187 
C 199.56375 207.477187 199.56375 207.477187 199.56375 207.477187 
C 199.56375 207.477187 199.56375 207.477187 199.56375 207.477187 
C 199.56375 207.477187 199.56375 207.477187 199.56375 207.477187 
C 199.56375 207.477187 199.56375 207.477187 199.56375 207.477187 
C 199.56375 207.477187 199.56375 207.477187 199.56375 207.477187 
C 199.56375 207.477187 199.56375 207.477187 199.56375 207.477187 
C 199.56375 207.477187 199.56375 207.477187 199.56375 207.477187 
C 199.56375 207.477187 199.56375 207.477187 199.56375 207.477187 
C 199.56375 207.477187 199.56375 207.477187 199.56375 207.477187 
C 199.56375 207.477187 199.56375 207.477187 199.56375 207.477187 
M 365.88375 207.477187 
z
" style="fill: #ffffff"/>
   </g>
   <g id="matplotlib.axis_1">
    <g id="xtick_1">
     <g id="line2d_1">
      <path d="M 199.56375 207.477187 
L 365.88375 207.477187 
" clip-path="url(#p7e4a5d3f9a)" style="fill: none; stroke: #b0b0b0; stroke-width: 0.8; stroke-linecap: square"/>
     </g>
     <g id="text_1">
      <!-- 0° -->
      <g transform="translate(374.2025 210.236562)scale(0.1 -0.1)">
       <defs>
        <path id="DejaVuSans-30" d="M 2034 4250 
Q 1547 4250 1301 3770 
Q 1056 3291 1056 2328 
Q 1056 1369 1301 889 
Q 1547 409 2034 409 
Q 2525 409 2770 889 
Q 3016 1369 3016 2328 
Q 3016 3291 2770 3770 
Q 2525 4250 2034 4250 
z
M 2034 4750 
Q 2819 4750 3233 4129 
Q 3647 3509 3647 2328 
Q 3647 1150 3233 529 
Q 2819 -91 2034 -91 
Q 1250 -91 836 529 
Q 422 1150 422 2328 
Q 422 3509 836 4129 
Q 1250 4750 2034 4750 
z
" transform="scale(0.015625)"/>
        <path id="DejaVuSans-b0" d="M 1600 4347 
Q 1350 4347 1178 4173 
Q 1006 4000 1006 3750 
Q 1006 3503 1178 3333 
Q 1350 3163 1600 3163 
Q 1850 3163 2022 3333 
Q 2194 3503 2194 3750 
Q 2194 3997 2020 4172 
Q 1847 4347 1600 4347 
z
M 1600 4750 
Q 1800 4750 1984 4673 
Q 2169 4597 2303 4453 
Q 2447 4313 2519 4134 
Q 2591 3956 2591 3750 
Q 2591 3338 2302 3052 
Q 2013 2766 1594 2766 
Q 1172 2766 890 3047 
Q 609 3328 609 3750 
Q 609 4169 896 4459 
Q 1184 4750 1600 4750 
z
" transform="scale(0.015625)"/>
       </defs>
       <use xlink:href="#DejaVuSans-30"/>
       <use xlink:href="#DejaVuSans-b0" x="63.623047"/>
      </g>
     </g>
    </g>
    <g id="xtick_2">
     <g id="line2d_2">
      <path d="M 199.56375 207.477187 
L 317.16975 89.871188 
" clip-path="url(#p7e4a5d3f9a)" style="fill: none; stroke: #b0b0b0; stroke-width: 0.8; stroke-linecap: square"/>
     </g>
     <g id="text_2">
      <!-- 45° -->
      <g transform="translate(318.206745 82.731068)scale(0.1 -0.1)">
       <defs>
        <path id="DejaVuSans-34" d="M 2419 4116 
L 825 1625 
L 2419 1625 
L 2419 4116 
z
M 2253 4666 
L 3047 4666 
L 3047 1625 
L 3713 1625 
L 3713 1100 
L 3047 1100 
L 3047 0 
L 2419 0 
L 2419 1100 
L 313 1100 
L 313 1709 
L 2253 4666 
z
" transform="scale(0.015625)"/>
        <path id="DejaVuSans-35" d="M 691 4666 
L 3169 4666 
L 3169 4134 
L 1269 4134 
L 1269 2991 
Q 1406 3038 1543 3061 
Q 1681 3084 1819 3084 
Q 2600 3084 3056 2656 
Q 3513 2228 3513 1497 
Q 3513 744 3044 326 
Q 2575 -91 1722 -91 
Q 1428 -91 1123 -41 
Q 819 9 494 109 
L 494 744 
Q 775 591 1075 516 
Q 1375 441 1709 441 
Q 2250 441 2565 725 
Q 2881 1009 2881 1497 
Q 2881 1984 2565 2268 
Q 2250 2553 1709 2553 
Q 1456 2553 1204 2497 
Q 953 2441 691 2322 
L 691 4666 
z
" transform="scale(0.015625)"/>
       </defs>
       <use xlink:href="#DejaVuSans-34"/>
       <use xlink:href="#DejaVuSans-35" x="63.623047"/>
       <use xlink:href="#DejaVuSans-b0" x="127.246094"/>
      </g>
     </g>
    </g>
    <g id="xtick_3">
     <g id="line2d_3">
      <path d="M 199.56375 207.477187 
L 199.56375 41.157187 
" clip-path="url(#p7e4a5d3f9a)" style="fill: none; stroke: #b0b0b0; stroke-width: 0.8; stroke-linecap: square"/>
     </g>
     <g id="text_3">
      <!-- 90° -->
      <g transform="translate(190.70125 29.916562)scale(0.1 -0.1)">
       <defs>
        <path id="DejaVuSans-39" d="M 703 97 
L 703 672 
Q 941 559 1184 500 
Q 1428 441 1663 441 
Q 2288 441 2617 861 
Q 2947 1281 2994 2138 
Q 2813 1869 2534 1725 
Q 2256 1581 1919 1581 
Q 1219 1581 811 2004 
Q 403 2428 403 3163 
Q 403 3881 828 4315 
Q 1253 4750 1959 4750 
Q 2769 4750 3195 4129 
Q 3622 3509 3622 2328 
Q 3622 1225 3098 567 
Q 2575 -91 1691 -91 
Q 1453 -91 1209 -44 
Q 966 3 703 97 
z
M 1959 2075 
Q 2384 2075 2632 2365 
Q 2881 2656 2881 3163 
Q 2881 3666 2632 3958 
Q 2384 4250 1959 4250 
Q 1534 4250 1286 3958 
Q 1038 3666 1038 3163 
Q 1038 2656 1286 2365 
Q 1534 2075 1959 2075 
z
" transform="scale(0.015625)"/>
       </defs>
       <use xlink:href="#DejaVuSans-39"/>
       <use xlink:href="#DejaVuSans-30" x="63.623047"/>
       <use xlink:href="#DejaVuSans-b0" x="127.246094"/>
      </g>
     </g>
    </g>
    <g id="xtick_4">
     <g id="line2d_4">
      <path d="M 199.56375 207.477187 
L 81.95775 89.871188 
" clip-path="url(#p7e4a5d3f9a)" style="fill: none; stroke: #b0b0b0; stroke-width: 0.8; stroke-linecap: square"/>
     </g>
     <g id="text_4">
      <!-- 135° -->
      <g transform="translate(60.014505 82.731068)scale(0.1 -0.1)">
       <defs>
        <path id="DejaVuSans-31" d="M 794 531 
L 1825 531 
L 1825 4091 
L 703 3866 
L 703 4441 
L 1819 4666 
L 2450 4666 
L 2450 531 
L 3481 531 
L 3481 0 
L 794 0 
L 794 531 
z
" transform="scale(0.015625)"/>
        <path id="DejaVuSans-33" d="M 2597 2516 
Q 3050 2419 3304 2112 
Q 3559 1806 3559 1356 
Q 3559 666 3084 287 
Q 2609 -91 1734 -91 
Q 1441 -91 1130 -33 
Q 819 25 488 141 
L 488 750 
Q 750 597 1062 519 
Q 1375 441 1716 441 
Q 2309 441 2620 675 
Q 2931 909 2931 1356 
Q 2931 1769 2642 2001 
Q 2353 2234 1838 2234 
L 1294 2234 
L 1294 2753 
L 1863 2753 
Q 2328 2753 2575 2939 
Q 2822 3125 2822 3475 
Q 2822 3834 2567 4026 
Q 2313 4219 1838 4219 
Q 1578 4219 1281 4162 
Q 984 4106 628 3988 
L 628 4550 
Q 988 4650 1302 4700 
Q 1616 4750 1894 4750 
Q 2613 4750 3031 4423 
Q 3450 4097 3450 3541 
Q 3450 3153 3228 2886 
Q 3006 2619 2597 2516 
z
" transform="scale(0.015625)"/>
       </defs>
       <use xlink:href="#DejaVuSans-31"/>
       <use xlink:href="#DejaVuSans-33" x="63.623047"/>
       <use xlink:href="#DejaVuSans-35" x="127.246094"/>
       <use xlink:href="#DejaVuSans-b0" x="190.869141"/>
      </g>
     </g>
    </g>
    <g id="xtick_5">
     <g id="line2d_5">
      <path d="M 199.56375 207.477187 
L 33.24375 207.477187 
" clip-path="url(#p7e4a5d3f9a)" style="fill: none; stroke: #b0b0b0; stroke-width: 0.8; stroke-linecap: square"/>
     </g>
     <g id="text_5">
      <!-- 180° -->
      <g transform="translate(7.2 210.236562)scale(0.1 -0.1)">
       <defs>
        <path id="DejaVuSans-38" d="M 2034 2216 
Q 1584 2216 1326 1975 
Q 1069 1734 1069 1313 
Q 1069 891 1326 650 
Q 1584 409 2034 409 
Q 2484 409 2743 651 
Q 3003 894 3003 1313 
Q 3003 1734 2745 1975 
Q 2488 2216 2034 2216 
z
M 1403 2484 
Q 997 2584 770 2862 
Q 544 3141 544 3541 
Q 544 4100 942 4425 
Q 1341 4750 2034 4750 
Q 2731 4750 3128 4425 
Q 3525 4100 3525 3541 
Q 3525 3141 3298 2862 
Q 3072 2584 2669 2484 
Q 3125 2378 3379 2068 
Q 3634 1759 3634 1313 
Q 3634 634 3220 271 
Q 2806 -91 2034 -91 
Q 1263 -91 848 271 
Q 434 634 434 1313 
Q 434 1759 690 2068 
Q 947 2378 1403 2484 
z
M 1172 3481 
Q 1172 3119 1398 2916 
Q 1625 2713 2034 2713 
Q 2441 2713 2670 2916 
Q 2900 3119 2900 3481 
Q 2900 3844 2670 4047 
Q 2441 4250 2034 4250 
Q 1625 4250 1398 4047 
Q 1172 3844 1172 3481 
z
" transform="scale(0.015625)"/>
       </defs>
       <use xlink:href="#DejaVuSans-31"/>
       <use xlink:href="#DejaVuSans-38" x="63.623047"/>
       <use xlink:href="#DejaVuSans-30" x="127.246094"/>
       <use xlink:href="#DejaVuSans-b0" x="190.869141"/>
      </g>
     </g>
    </g>
    <g id="xtick_6">
     <g id="line2d_6">
      <path d="M 199.56375 207.477187 
L 81.95775 325.083187 
" clip-path="url(#p7e4a5d3f9a)" style="fill: none; stroke: #b0b0b0; stroke-width: 0.8; stroke-linecap: square"/>
     </g>
     <g id="text_6">
      <!-- 225° -->
      <g transform="translate(60.014505 337.742057)scale(0.1 -0.1)">
       <defs>
        <path id="DejaVuSans-32" d="M 1228 531 
L 3431 531 
L 3431 0 
L 469 0 
L 469 531 
Q 828 903 1448 1529 
Q 2069 2156 2228 2338 
Q 2531 2678 2651 2914 
Q 2772 3150 2772 3378 
Q 2772 3750 2511 3984 
Q 2250 4219 1831 4219 
Q 1534 4219 1204 4116 
Q 875 4013 500 3803 
L 500 4441 
Q 881 4594 1212 4672 
Q 1544 4750 1819 4750 
Q 2544 4750 2975 4387 
Q 3406 4025 3406 3419 
Q 3406 3131 3298 2873 
Q 3191 2616 2906 2266 
Q 2828 2175 2409 1742 
Q 1991 1309 1228 531 
z
" transform="scale(0.015625)"/>
       </defs>
       <use xlink:href="#DejaVuSans-32"/>
       <use xlink:href="#DejaVuSans-32" x="63.623047"/>
       <use xlink:href="#DejaVuSans-35" x="127.246094"/>
       <use xlink:href="#DejaVuSans-b0" x="190.869141"/>
      </g>
     </g>
    </g>
    <g id="xtick_7">
     <g id="line2d_7">
      <path d="M 199.56375 207.477187 
L 199.56375 373.797188 
" clip-path="url(#p7e4a5d3f9a)" style="fill: none; stroke: #b0b0b0; stroke-width: 0.8; stroke-linecap: square"/>
     </g>
     <g id="text_7">
      <!-- 270° -->
      <g transform="translate(187.52 390.556562)scale(0.1 -0.1)">
       <defs>
        <path id="DejaVuSans-37" d="M 525 4666 
L 3525 4666 
L 3525 4397 
L 1831 0 
L 1172 0 
L 2766 4134 
L 525 4134 
L 525 4666 
z
" transform="scale(0.015625)"/>
       </defs>
       <use xlink:href="#DejaVuSans-32"/>
       <use xlink:href="#DejaVuSans-37" x="63.623047"/>
       <use xlink:href="#DejaVuSans-30" x="127.246094"/>
       <use xlink:href="#DejaVuSans-b0" x="190.869141"/>
      </g>
     </g>
    </g>
    <g id="xtick_8">
     <g id="line2d_8">
      <path d="M 199.56375 207.477187 
L 317.16975 325.083187 
" clip-path="url(#p7e4a5d3f9a)" style="fill: none; stroke: #b0b0b0; stroke-width: 0.8; stroke-linecap: square"/>
     </g>
     <g id="text_8">
      <!-- 315° -->
      <g transform="translate(315.025495 337.742057)scale(0.1 -0.1)">
       <use xlink:href="#DejaVuSans-33"/>
       <use xlink:href="#DejaVuSans-31" x="63.623047"/>
       <use xlink:href="#DejaVuSans-35" x="127.246094"/>
       <use xlink:href="#DejaVuSans-b0" x="190.869141"/>
      </g>
     </g>
    </g>
   </g>
   <g id="matplotlib.axis_2">
    <g id="ytick_1">
     <g id="line2d_9">
      <path d="M 199.892413 207.477187 
C 199.892413 207.434028 199.883911 207.391288 199.867395 207.351414 
C 199.850878 207.311539 199.826668 207.275306 199.79615 207.244788 
C 199.765631 207.214269 199.729398 207.190059 199.689524 207.173543 
C 199.64965 207.157026 199.60691 207.148525 199.56375 207.148525 
C 199.52059 207.148525 199.47785 207.157026 199.437976 207.173543 
C 199.398102 207.190059 199.361869 207.214269 199.33135 207.244788 
C 199.300832 207.275306 199.276622 207.311539 199.260105 207.351414 
C 199.243589 207.391288 199.235087 207.434028 199.235087 207.477187 
C 199.235087 207.520347 199.243589 207.563087 199.260105 207.602961 
C 199.276622 207.642836 199.300832 207.679069 199.33135 207.709587 
C 199.361869 207.740106 199.398102 207.764316 199.437976 207.780832 
C 199.47785 207.797349 199.52059 207.80585 199.56375 207.80585 
C 199.60691 207.80585 199.64965 207.797349 199.689524 207.780832 
C 199.729398 207.764316 199.765631 207.740106 199.79615 207.709587 
C 199.826668 207.679069 199.850878 207.642836 199.867395 207.602961 
C 199.883911 207.563087 199.892413 207.520347 199.892413 207.477187 
" clip-path="url(#p7e4a5d3f9a)" style="fill: none; stroke: #b0b0b0; stroke-width: 0.8; stroke-linecap: square"/>
     </g>
     <g id="text_9">
      <!-- −30 -->
      <g transform="translate(199.867395 205.271726)scale(0.1 -0.1)">
       <defs>
        <path id="DejaVuSans-2212" d="M 678 2272 
L 4684 2272 
L 4684 1741 
L 678 1741 
L 678 2272 
z
" transform="scale(0.015625)"/>
       </defs>
       <use xlink:href="#DejaVuSans-2212"/>
       <use xlink:href="#DejaVuSans-33" x="83.789062"/>
       <use xlink:href="#DejaVuSans-30" x="147.412109"/>
      </g>
     </g>
    </g>
    <g id="ytick_2">
     <g id="line2d_10">
      <path d="M 216.491547 207.477187 
C 216.491547 205.25425 216.053676 203.052927 215.202995 200.9992 
C 214.352313 198.945473 213.105364 197.079282 211.53351 195.507428 
C 209.961655 193.935573 208.095464 192.688624 206.041737 191.837943 
C 203.98801 190.987261 201.786688 190.549391 199.56375 190.549391 
C 197.340812 190.549391 195.13949 190.987261 193.085763 191.837943 
C 191.032036 192.688624 189.165845 193.935573 187.59399 195.507428 
C 186.022136 197.079282 184.775187 198.945473 183.924505 200.9992 
C 183.073824 203.052927 182.635953 205.25425 182.635953 207.477187 
C 182.635953 209.700125 183.073824 211.901448 183.924505 213.955175 
C 184.775187 216.008902 186.022136 217.875093 187.59399 219.446947 
C 189.165845 221.018802 191.032036 222.265751 193.085763 223.116432 
C 195.13949 223.967114 197.340812 224.404984 199.56375 224.404984 
C 201.786688 224.404984 203.98801 223.967114 206.041737 223.116432 
C 208.095464 222.265751 209.961655 221.018802 211.53351 219.446947 
C 213.105364 217.875093 214.352313 216.008902 215.202995 213.955175 
C 216.053676 211.901448 216.491547 209.700125 216.491547 207.477187 
" clip-path="url(#p7e4a5d3f9a)" style="fill: none; stroke: #b0b0b0; stroke-width: 0.8; stroke-linecap: square"/>
     </g>
     <g id="text_10">
      <!-- −27 -->
      <g transform="translate(215.202995 198.919513)scale(0.1 -0.1)">
       <use xlink:href="#DejaVuSans-2212"/>
       <use xlink:href="#DejaVuSans-32" x="83.789062"/>
       <use xlink:href="#DejaVuSans-37" x="147.412109"/>
      </g>
     </g>
    </g>
    <g id="ytick_3">
     <g id="line2d_11">
      <path d="M 233.09068 207.477187 
C 233.09068 203.074471 232.223441 198.714566 230.538595 194.646987 
C 228.853748 190.579407 226.38406 186.883258 223.27087 183.770068 
C 220.157679 180.656877 216.46153 178.187189 212.393951 176.502343 
C 208.326371 174.817496 203.966466 173.950257 199.56375 173.950257 
C 195.161034 173.950257 190.801129 174.817496 186.733549 176.502343 
C 182.66597 178.187189 178.969821 180.656877 175.85663 183.770068 
C 172.74344 186.883258 170.273752 190.579407 168.588905 194.646987 
C 166.904059 198.714566 166.03682 203.074471 166.03682 207.477187 
C 166.03682 211.879904 166.904059 216.239809 168.588905 220.307388 
C 170.273752 224.374968 172.74344 228.071117 175.85663 231.184307 
C 178.969821 234.297498 182.66597 236.767186 186.733549 238.452032 
C 190.801129 240.136879 195.161034 241.004118 199.56375 241.004118 
C 203.966466 241.004118 208.326371 240.136879 212.393951 238.452032 
C 216.46153 236.767186 220.157679 234.297498 223.27087 231.184307 
C 226.38406 228.071117 228.853748 224.374968 230.538595 220.307388 
C 232.223441 216.239809 233.09068 211.879904 233.09068 207.477187 
" clip-path="url(#p7e4a5d3f9a)" style="fill: none; stroke: #b0b0b0; stroke-width: 0.8; stroke-linecap: square"/>
     </g>
     <g id="text_11">
      <!-- −24 -->
      <g transform="translate(230.538595 192.567299)scale(0.1 -0.1)">
       <use xlink:href="#DejaVuSans-2212"/>
       <use xlink:href="#DejaVuSans-32" x="83.789062"/>
       <use xlink:href="#DejaVuSans-34" x="147.412109"/>
      </g>
     </g>
    </g>
    <g id="ytick_4">
     <g id="line2d_12">
      <path d="M 249.689814 207.477187 
C 249.689814 200.894693 248.393206 194.376205 245.874195 188.294773 
C 243.355183 182.213341 239.662756 176.687234 235.00823 172.032708 
C 230.353703 167.378181 224.827596 163.685754 218.746164 161.166743 
C 212.664732 158.647731 206.146244 157.351124 199.56375 157.351124 
C 192.981256 157.351124 186.462768 158.647731 180.381336 161.166743 
C 174.299904 163.685754 168.773797 167.378181 164.11927 172.032708 
C 159.464744 176.687234 155.772317 182.213341 153.253305 188.294773 
C 150.734294 194.376205 149.437686 200.894693 149.437686 207.477187 
C 149.437686 214.059682 150.734294 220.57817 153.253305 226.659602 
C 155.772317 232.741034 159.464744 238.267141 164.11927 242.921667 
C 168.773797 247.576194 174.299904 251.268621 180.381336 253.787632 
C 186.462768 256.306644 192.981256 257.603251 199.56375 257.603251 
C 206.146244 257.603251 212.664732 256.306644 218.746164 253.787632 
C 224.827596 251.268621 230.353703 247.576194 235.00823 242.921667 
C 239.662756 238.267141 243.355183 232.741034 245.874195 226.659602 
C 248.393206 220.57817 249.689814 214.059682 249.689814 207.477187 
" clip-path="url(#p7e4a5d3f9a)" style="fill: none; stroke: #b0b0b0; stroke-width: 0.8; stroke-linecap: square"/>
     </g>
     <g id="text_12">
      <!-- −21 -->
      <g transform="translate(245.874195 186.215086)scale(0.1 -0.1)">
       <use xlink:href="#DejaVuSans-2212"/>
       <use xlink:href="#DejaVuSans-32" x="83.789062"/>
       <use xlink:href="#DejaVuSans-31" x="147.412109"/>
      </g>
     </g>
    </g>
    <g id="ytick_5">
     <g id="line2d_13">
      <path d="M 266.288948 207.477187 
C 266.288948 198.714915 264.562971 190.037844 261.209794 181.94256 
C 257.856618 173.847275 252.941452 166.49121 246.74559 160.295348 
C 240.549727 154.099485 233.193662 149.18432 225.098378 145.831143 
C 217.003093 142.477966 208.326023 140.75199 199.56375 140.75199 
C 190.801477 140.75199 182.124407 142.477966 174.029122 145.831143 
C 165.933838 149.18432 158.577773 154.099485 152.38191 160.295348 
C 146.186048 166.49121 141.270882 173.847275 137.917706 181.94256 
C 134.564529 190.037844 132.838552 198.714915 132.838552 207.477187 
C 132.838552 216.23946 134.564529 224.916531 137.917706 233.011815 
C 141.270882 241.1071 146.186048 248.463165 152.38191 254.659027 
C 158.577773 260.85489 165.933838 265.770055 174.029122 269.123232 
C 182.124407 272.476409 190.801477 274.202385 199.56375 274.202385 
C 208.326023 274.202385 217.003093 272.476409 225.098378 269.123232 
C 233.193662 265.770055 240.549727 260.85489 246.74559 254.659027 
C 252.941452 248.463165 257.856618 241.1071 261.209794 233.011815 
C 264.562971 224.916531 266.288948 216.23946 266.288948 207.477188 
" clip-path="url(#p7e4a5d3f9a)" style="fill: none; stroke: #b0b0b0; stroke-width: 0.8; stroke-linecap: square"/>
     </g>
     <g id="text_13">
      <!-- −18 -->
      <g transform="translate(261.209794 179.862872)scale(0.1 -0.1)">
       <use xlink:href="#DejaVuSans-2212"/>
       <use xlink:href="#DejaVuSans-31" x="83.789062"/>
       <use xlink:href="#DejaVuSans-38" x="147.412109"/>
      </g>
     </g>
    </g>
    <g id="ytick_6">
     <g id="line2d_14">
      <path d="M 282.888081 207.477187 
C 282.888081 196.535137 280.732736 185.699483 276.545394 175.590346 
C 272.358053 165.481209 266.220148 156.295186 258.48295 148.557988 
C 250.745751 140.820789 241.559728 134.682885 231.450591 130.495543 
C 221.341454 126.308202 210.505801 124.152856 199.56375 124.152856 
C 188.621699 124.152856 177.786046 126.308202 167.676909 130.495543 
C 157.567772 134.682885 148.381749 140.820789 140.64455 148.557988 
C 132.907352 156.295186 126.769447 165.481209 122.582106 175.590346 
C 118.394764 185.699483 116.239419 196.535137 116.239419 207.477187 
C 116.239419 218.419238 118.394764 229.254892 122.582106 239.364029 
C 126.769447 249.473166 132.907352 258.659189 140.64455 266.396387 
C 148.381749 274.133586 157.567772 280.27149 167.676909 284.458832 
C 177.786046 288.646173 188.621699 290.801519 199.56375 290.801519 
C 210.505801 290.801519 221.341454 288.646173 231.450591 284.458832 
C 241.559728 280.27149 250.745751 274.133586 258.48295 266.396387 
C 266.220148 258.659189 272.358053 249.473166 276.545394 239.364029 
C 280.732736 229.254892 282.888081 218.419238 282.888081 207.477188 
" clip-path="url(#p7e4a5d3f9a)" style="fill: none; stroke: #b0b0b0; stroke-width: 0.8; stroke-linecap: square"/>
     </g>
     <g id="text_14">
      <!-- −15 -->
      <g transform="translate(276.545394 173.510659)scale(0.1 -0.1)">
       <use xlink:href="#DejaVuSans-2212"/>
       <use xlink:href="#DejaVuSans-31" x="83.789062"/>
       <use xlink:href="#DejaVuSans-35" x="147.412109"/>
      </g>
     </g>
    </g>
    <g id="ytick_7">
     <g id="line2d_15">
      <path d="M 299.487215 207.477187 
C 299.487215 194.355358 296.902501 181.361122 291.880994 169.238133 
C 286.859488 157.115143 279.498844 146.099162 270.22031 136.820628 
C 260.941775 127.542093 249.925794 120.18145 237.802805 115.159943 
C 225.679815 110.138437 212.685579 107.553722 199.56375 107.553722 
C 186.441921 107.553722 173.447685 110.138437 161.324695 115.159943 
C 149.201706 120.18145 138.185725 127.542093 128.90719 136.820628 
C 119.628656 146.099162 112.268012 157.115143 107.246506 169.238133 
C 102.224999 181.361122 99.640285 194.355358 99.640285 207.477187 
C 99.640285 220.599017 102.224999 233.593253 107.246506 245.716242 
C 112.268012 257.839232 119.628656 268.855213 128.90719 278.133747 
C 138.185725 287.412282 149.201706 294.772925 161.324695 299.794432 
C 173.447685 304.815938 186.441921 307.400653 199.56375 307.400653 
C 212.685579 307.400653 225.679815 304.815938 237.802805 299.794432 
C 249.925794 294.772925 260.941775 287.412282 270.22031 278.133747 
C 279.498844 268.855213 286.859488 257.839232 291.880994 245.716242 
C 296.902501 233.593253 299.487215 220.599017 299.487215 207.477188 
" clip-path="url(#p7e4a5d3f9a)" style="fill: none; stroke: #b0b0b0; stroke-width: 0.8; stroke-linecap: square"/>
     </g>
     <g id="text_15">
      <!-- −12 -->
      <g transform="translate(291.880994 167.158445)scale(0.1 -0.1)">
       <use xlink:href="#DejaVuSans-2212"/>
       <use xlink:href="#DejaVuSans-31" x="83.789062"/>
       <use xlink:href="#DejaVuSans-32" x="147.412109"/>
      </g>
     </g>
    </g>
    <g id="ytick_8">
     <g id="line2d_16">
      <path d="M 316.086349 207.477187 
C 316.086349 192.17558 313.072266 177.022761 307.216594 162.885919 
C 301.360922 148.749077 292.77754 135.903138 281.95767 125.083268 
C 271.137799 114.263397 258.29186 105.680015 244.155018 99.824343 
C 230.018176 93.968672 214.865357 90.954589 199.56375 90.954589 
C 184.262143 90.954589 169.109324 93.968672 154.972482 99.824343 
C 140.83564 105.680015 127.989701 114.263397 117.16983 125.083268 
C 106.34996 135.903138 97.766578 148.749077 91.910906 162.885919 
C 86.055234 177.022761 83.041151 192.17558 83.041151 207.477187 
C 83.041151 222.778795 86.055234 237.931614 91.910906 252.068456 
C 97.766578 266.205298 106.34996 279.051237 117.16983 289.871107 
C 127.989701 300.690978 140.83564 309.27436 154.972482 315.130032 
C 169.109324 320.985703 184.262143 323.999786 199.56375 323.999786 
C 214.865357 323.999786 230.018176 320.985703 244.155018 315.130032 
C 258.29186 309.27436 271.137799 300.690978 281.95767 289.871107 
C 292.77754 279.051237 301.360922 266.205298 307.216594 252.068456 
C 313.072266 237.931614 316.086349 222.778795 316.086349 207.477188 
" clip-path="url(#p7e4a5d3f9a)" style="fill: none; stroke: #b0b0b0; stroke-width: 0.8; stroke-linecap: square"/>
     </g>
     <g id="text_16">
      <!-- −9 -->
      <g transform="translate(307.216594 160.806232)scale(0.1 -0.1)">
       <use xlink:href="#DejaVuSans-2212"/>
       <use xlink:href="#DejaVuSans-39" x="83.789062"/>
      </g>
     </g>
    </g>
    <g id="ytick_9">
     <g id="line2d_17">
      <path d="M 332.685483 207.477187 
C 332.685483 189.995802 329.242031 172.6844 322.552194 156.533706 
C 315.862357 140.383011 306.056236 125.707114 293.69503 113.345908 
C 281.333823 100.984701 266.657926 91.17858 250.507232 84.488743 
C 234.356537 77.798907 217.045136 74.355455 199.56375 74.355455 
C 182.082364 74.355455 164.770963 77.798907 148.620268 84.488743 
C 132.469574 91.17858 117.793677 100.984701 105.43247 113.345908 
C 93.071264 125.707114 83.265143 140.383011 76.575306 156.533706 
C 69.885469 172.6844 66.442017 189.995802 66.442017 207.477187 
C 66.442017 224.958573 69.885469 242.269975 76.575306 258.420669 
C 83.265143 274.571364 93.071264 289.247261 105.43247 301.608467 
C 117.793677 313.969674 132.469574 323.775795 148.620268 330.465632 
C 164.770963 337.155468 182.082364 340.59892 199.56375 340.59892 
C 217.045136 340.59892 234.356537 337.155468 250.507232 330.465632 
C 266.657926 323.775795 281.333823 313.969674 293.69503 301.608467 
C 306.056236 289.247261 315.862357 274.571364 322.552194 258.420669 
C 329.242031 242.269975 332.685483 224.958573 332.685483 207.477188 
" clip-path="url(#p7e4a5d3f9a)" style="fill: none; stroke: #b0b0b0; stroke-width: 0.8; stroke-linecap: square"/>
     </g>
     <g id="text_17">
      <!-- −6 -->
      <g transform="translate(322.552194 154.454018)scale(0.1 -0.1)">
       <defs>
        <path id="DejaVuSans-36" d="M 2113 2584 
Q 1688 2584 1439 2293 
Q 1191 2003 1191 1497 
Q 1191 994 1439 701 
Q 1688 409 2113 409 
Q 2538 409 2786 701 
Q 3034 994 3034 1497 
Q 3034 2003 2786 2293 
Q 2538 2584 2113 2584 
z
M 3366 4563 
L 3366 3988 
Q 3128 4100 2886 4159 
Q 2644 4219 2406 4219 
Q 1781 4219 1451 3797 
Q 1122 3375 1075 2522 
Q 1259 2794 1537 2939 
Q 1816 3084 2150 3084 
Q 2853 3084 3261 2657 
Q 3669 2231 3669 1497 
Q 3669 778 3244 343 
Q 2819 -91 2113 -91 
Q 1303 -91 875 529 
Q 447 1150 447 2328 
Q 447 3434 972 4092 
Q 1497 4750 2381 4750 
Q 2619 4750 2861 4703 
Q 3103 4656 3366 4563 
z
" transform="scale(0.015625)"/>
       </defs>
       <use xlink:href="#DejaVuSans-2212"/>
       <use xlink:href="#DejaVuSans-36" x="83.789062"/>
      </g>
     </g>
    </g>
    <g id="ytick_10">
     <g id="line2d_18">
      <path d="M 349.284616 207.477187 
C 349.284616 187.816023 345.411796 168.34604 337.887794 150.181492 
C 330.363792 132.016945 319.334932 115.51109 305.43239 101.608548 
C 291.529847 87.706005 275.023992 76.677145 256.859445 69.153144 
C 238.694898 61.629142 219.224914 57.756321 199.56375 57.756321 
C 179.902586 57.756321 160.432602 61.629142 142.268055 69.153144 
C 124.103508 76.677145 107.597653 87.706005 93.69511 101.608548 
C 79.792568 115.51109 68.763708 132.016945 61.239706 150.181492 
C 53.715704 168.34604 49.842884 187.816023 49.842884 207.477187 
C 49.842884 227.138352 53.715704 246.608335 61.239706 264.772883 
C 68.763708 282.93743 79.792568 299.443285 93.69511 313.345827 
C 107.597653 327.24837 124.103508 338.27723 142.268055 345.801231 
C 160.432602 353.325233 179.902586 357.198054 199.56375 357.198054 
C 219.224914 357.198054 238.694898 353.325233 256.859445 345.801231 
C 275.023992 338.27723 291.529847 327.24837 305.43239 313.345827 
C 319.334932 299.443285 330.363792 282.93743 337.887794 264.772883 
C 345.411796 246.608335 349.284616 227.138352 349.284616 207.477188 
" clip-path="url(#p7e4a5d3f9a)" style="fill: none; stroke: #b0b0b0; stroke-width: 0.8; stroke-linecap: square"/>
     </g>
     <g id="text_18">
      <!-- −3 -->
      <g transform="translate(337.887794 148.101805)scale(0.1 -0.1)">
       <use xlink:href="#DejaVuSans-2212"/>
       <use xlink:href="#DejaVuSans-33" x="83.789062"/>
      </g>
     </g>
    </g>
   </g>
   <g id="line2d_19">
    <path d="M 267.605812 207.477187 
L 279.674104 203.278782 
L 285.395215 201.475267 
L 293.871806 197.565011 
L 297.748385 195.42163 
L 300.399611 193.305631 
L 303.918652 190.948995 
L 306.382386 188.64218 
L 308.231681 186.354281 
L 310.438898 183.909947 
L 313.11368 179.16601 
L 314.339254 176.723184 
L 315.130674 174.338905 
L 315.77818 171.946871 
L 315.961299 169.657331 
L 315.932242 167.408302 
L 316.156304 165.040968 
L 315.8525 162.838119 
L 314.773844 158.573404 
L 313.342954 154.421073 
L 311.402291 150.492604 
L 310.332115 148.580603 
L 308.909891 146.865632 
L 307.801877 144.985875 
L 304.907491 141.651113 
L 301.31805 136.22806 
L 300.33214 134.264667 
L 298.687976 130.032854 
L 296.340203 126.272102 
L 293.681608 122.733087 
L 292.216611 121.076996 
L 290.833914 119.338615 
L 289.340469 117.700468 
L 287.487082 116.429912 
L 286.167711 114.605809 
L 284.926139 112.67265 
L 284.020872 110.320383 
L 283.475387 107.475192 
L 282.817662 104.667168 
L 282.874046 100.844872 
L 282.102553 97.944496 
L 281.167055 95.159874 
L 280.651112 91.672433 
L 277.722098 82.397684 
L 274.817029 77.134684 
L 273.338202 74.384553 
L 267.748712 67.677297 
L 265.581425 65.901826 
L 263.46737 63.947307 
L 261.214289 62.237619 
L 253.975157 57.983076 
L 251.402872 56.925445 
L 246.110642 55.229163 
L 243.382404 54.663381 
L 240.622838 54.242585 
L 232.278849 53.564748 
L 229.512765 53.402861 
L 223.911402 53.752165 
L 221.189399 53.602696 
L 215.69446 54.003736 
L 213.013522 53.745591 
L 210.342382 53.33557 
L 207.657548 53.038322 
L 204.977978 52.433976 
L 202.282961 51.693702 
L 199.56375 51.083469 
L 196.826868 50.681309 
L 191.275646 49.330737 
L 185.628848 48.200529 
L 179.952566 47.75691 
L 177.120306 47.783789 
L 174.315917 48.068645 
L 171.52617 48.468171 
L 166.105503 50.068509 
L 163.470479 51.140057 
L 160.908145 52.438025 
L 158.331383 53.595899 
L 151.214916 58.674776 
L 145.127341 65.665494 
L 143.717761 69.253515 
L 142.202486 72.342517 
L 140.87452 75.659019 
L 140.182357 80.133378 
L 139.230219 83.775117 
L 138.678109 87.982389 
L 138.578689 92.78097 
L 138.077708 96.553431 
L 138.148615 101.103054 
L 138.561319 105.952093 
L 138.323428 109.472185 
L 138.445955 116.86633 
L 137.223474 121.673159 
L 136.248282 123.454724 
L 134.215836 123.835672 
L 131.749282 123.733294 
L 127.180021 124.209233 
L 124.164329 123.737647 
L 121.589845 123.860412 
L 116.035219 123.948656 
L 108.928632 125.86896 
L 106.925206 126.94773 
L 103.134906 129.390649 
L 101.071738 130.526794 
L 99.231179 131.871172 
L 98.195533 133.828867 
L 96.880307 135.577467 
L 94.719115 136.758589 
L 94.49392 139.244042 
L 93.42232 141.152661 
L 92.660383 143.243164 
L 91.253746 144.944378 
L 91.862974 147.777673 
L 91.306475 149.915773 
L 92.344599 152.846301 
L 92.610971 155.312832 
L 93.371698 157.959021 
L 93.82777 160.400496 
L 94.769238 162.994556 
L 96.902274 165.999259 
L 98.358383 168.628087 
L 100.404654 171.386228 
L 103.342136 174.345429 
L 105.346534 176.864158 
L 111.457294 182.213068 
L 113.536369 184.42622 
L 116.765673 186.833308 
L 119.377785 188.964799 
L 120.917862 190.760488 
L 126.643251 194.619336 
L 130.260868 196.500689 
L 135.980952 198.541208 
L 142.584107 200.480967 
L 150.339594 202.30352 
L 164.03126 204.368497 
L 175.269931 205.778398 
L 184.477029 206.686526 
L 169.903403 206.959464 
L 159.109448 207.477187 
L 156.299719 208.232364 
L 146.587261 209.327167 
L 137.416672 210.734178 
L 131.295546 212.250965 
L 125.800099 213.930671 
L 121.587808 215.672789 
L 118.61239 217.416765 
L 111.450601 221.432939 
L 109.391763 223.376942 
L 106.950998 225.479283 
L 104.773465 227.625484 
L 102.329267 231.720467 
L 101.516564 233.748852 
L 100.704708 237.70143 
L 100.594733 239.63417 
L 100.76341 243.437571 
L 101.28208 245.203986 
L 102.093986 246.857528 
L 103.442948 248.278047 
L 104.978411 249.589294 
L 106.640439 250.808039 
L 108.853009 251.719772 
L 110.59538 252.808836 
L 112.186625 253.936429 
L 114.530301 254.611998 
L 118.119438 256.413867 
L 120.825282 256.678443 
L 123.153041 257.098882 
L 125.649943 257.33268 
L 129.649593 256.431607 
L 132.716967 256.044218 
L 136.265861 255.175568 
L 141.485492 252.852895 
L 145.382241 251.352508 
L 149.530115 249.460392 
L 155.673983 245.62998 
L 159.586666 243.472716 
L 169.798677 236.220984 
L 171.341659 235.699278 
L 169.993585 238.09799 
L 164.770319 244.788575 
L 160.780368 250.550497 
L 154.778941 258.996217 
L 150.175762 266.3355 
L 147.293188 272.025956 
L 142.779733 280.157415 
L 140.490536 285.86999 
L 138.995946 290.841617 
L 136.753288 297.179823 
L 135.82221 301.977907 
L 134.151097 312.159316 
L 134.397211 320.348944 
L 134.504654 324.846904 
L 135.261545 328.412046 
L 135.962692 332.301293 
L 136.816819 336.12746 
L 138.070812 339.349218 
L 139.159645 343.147028 
L 140.561579 346.477593 
L 142.206752 349.440739 
L 143.691746 353.028734 
L 145.568674 355.82744 
L 149.616248 361.199792 
L 154.402996 364.971453 
L 156.926535 366.601441 
L 159.574935 367.863565 
L 165.057502 369.81632 
L 167.84529 370.654518 
L 170.682585 371.270413 
L 173.546435 371.744047 
L 176.428801 372.090906 
L 179.334899 372.227955 
L 188.085362 371.625779 
L 193.858712 370.848088 
L 196.722964 370.225715 
L 199.56375 369.746999 
L 202.383292 369.00863 
L 207.934384 367.198394 
L 213.468271 366.40659 
L 218.97399 365.560908 
L 224.555377 365.268113 
L 235.740413 364.175531 
L 238.586122 363.987371 
L 244.157162 362.992896 
L 246.885523 362.259734 
L 249.514671 361.210316 
L 252.100008 360.053558 
L 254.563697 358.5883 
L 256.962561 357.006201 
L 259.248407 355.201897 
L 261.566684 353.546946 
L 263.717174 351.568138 
L 265.70302 349.31331 
L 267.785095 347.351674 
L 269.791332 345.306577 
L 274.908325 337.977819 
L 277.722098 332.556691 
L 279.750109 326.358354 
L 280.892308 323.626405 
L 281.375198 320.080986 
L 281.68632 316.457518 
L 282.117807 313.141562 
L 281.738224 308.954212 
L 281.522829 305.152215 
L 280.982558 301.138812 
L 277.52256 291.077776 
L 274.837874 285.425825 
L 270.654592 278.56803 
L 267.490397 273.073188 
L 263.113373 266.73817 
L 255.980024 258.274629 
L 247.308563 247.539843 
L 251.402707 247.978219 
L 258.84554 250.547929 
L 258.033585 248.418206 
L 267.688634 253.428002 
L 271.756334 254.3596 
L 274.271543 254.159798 
L 274.946834 252.771914 
L 273.607126 248.520101 
L 271.454194 245.702015 
L 267.988898 242.341542 
L 265.329584 239.553328 
L 254.370772 233.034121 
L 251.391485 230.552382 
L 239.460779 224.412471 
L 223.600553 217.188686 
L 207.006116 210.185987 
L 230.808936 218.235768 
L 242.095263 221.296514 
L 253.277618 223.899165 
L 258.68327 224.429437 
L 266.620829 224.196395 
L 269.943062 223.725532 
L 271.054796 222.673079 
L 270.342326 221.235149 
L 272.075576 220.262979 
L 273.205782 219.140939 
L 272.724185 217.759216 
L 271.233964 216.277183 
L 270.193542 214.900678 
L 269.717047 213.614806 
L 268.941387 212.328544 
L 267.435207 211.03418 
L 266.624318 209.818994 
L 266.544331 208.646338 
L 266.544331 208.646338 
" clip-path="url(#p7e4a5d3f9a)" style="fill: none; stroke: #ff0000; stroke-width: 1.5; stroke-linecap: square"/>
   </g>
   <g id="line2d_20">
    <path d="M 288.697778 207.477187 
L 291.574207 204.264112 
L 292.885483 202.586403 
L 295.193464 199.110672 
L 296.188457 197.321522 
L 297.873701 193.660625 
L 299.189726 189.91044 
L 300.117958 186.103731 
L 300.669058 182.268803 
L 300.844635 178.435361 
L 300.663973 174.627734 
L 300.137073 170.871492 
L 299.30104 167.180707 
L 298.18273 163.569189 
L 296.843913 160.030482 
L 294.54198 154.829895 
L 291.375952 147.853646 
L 289.946247 144.190682 
L 288.71654 140.295741 
L 287.719426 136.090128 
L 286.936557 131.525165 
L 286.017945 123.989342 
L 284.715106 112.907025 
L 283.788366 107.102199 
L 282.564056 101.241641 
L 280.981677 95.415025 
L 279.010634 89.692339 
L 276.631369 84.143215 
L 275.285029 81.455816 
L 273.840724 78.825695 
L 272.294452 76.267528 
L 270.649606 73.784137 
L 268.908482 71.380488 
L 267.073688 69.061302 
L 265.14836 66.830538 
L 263.135647 64.692368 
L 261.038956 62.650677 
L 258.86226 60.708225 
L 256.60961 58.86764 
L 254.28362 57.13558 
L 251.891047 55.507682 
L 249.434311 53.991384 
L 246.917878 52.588815 
L 244.344751 51.307279 
L 241.722658 50.138001 
L 239.054619 49.087962 
L 236.346565 48.153313 
L 233.600641 47.346206 
L 230.822957 46.66251 
L 228.018318 46.103311 
L 225.191563 45.669543 
L 222.347556 45.361983 
L 219.49051 45.186747 
L 216.626777 45.133329 
L 213.760506 45.207519 
L 210.896243 45.414992 
L 208.03979 45.744713 
L 205.195409 46.207563 
L 202.368517 46.792172 
L 199.56375 47.514656 
L 196.78631 48.357785 
L 194.040999 49.3263 
L 191.332866 50.422568 
L 188.666781 51.643271 
L 186.047622 52.987141 
L 183.480234 54.452759 
L 180.969511 56.039262 
L 178.520182 57.744422 
L 176.13688 59.565751 
L 173.824411 61.502144 
L 171.586885 63.548692 
L 169.430114 65.709578 
L 167.356321 67.971486 
L 165.372258 70.342604 
L 163.479629 72.809415 
L 161.683889 75.374414 
L 159.987551 78.029274 
L 158.394386 80.770914 
L 156.908079 83.596123 
L 155.532227 86.501572 
L 154.268353 89.478643 
L 153.115451 92.513613 
L 152.080356 95.613322 
L 151.159268 98.758942 
L 150.354247 101.947068 
L 149.664836 105.169253 
L 149.087629 108.412221 
L 148.257694 114.918612 
L 147.825787 121.370757 
L 147.733151 127.665064 
L 147.899056 133.692357 
L 148.400428 141.991122 
L 149.44757 157.361008 
L 150.030523 167.365971 
L 150.42839 170.451038 
L 151.024414 173.489579 
L 151.909609 176.530227 
L 152.455995 178.040995 
L 153.853262 181.086225 
L 155.549332 184.074306 
L 157.643775 187.031449 
L 160.039125 189.879691 
L 162.783656 192.617065 
L 165.823016 195.196565 
L 168.940682 197.527149 
L 173.378855 200.460966 
L 176.727791 202.623254 
L 177.40695 203.170342 
L 177.771079 203.634552 
L 177.816633 204.032783 
L 177.540664 204.382045 
L 176.94082 204.699441 
L 174.928463 205.321879 
L 166.258142 207.477187 
L 162.241768 208.7805 
L 158.115118 210.375558 
L 154.169496 212.248316 
L 150.363845 214.391783 
L 146.766353 216.786793 
L 143.443165 219.405986 
L 140.404013 222.227367 
L 137.604042 225.243848 
L 135.104491 228.42127 
L 132.91106 231.736783 
L 130.925427 235.20887 
L 129.306623 238.757676 
L 127.904831 242.427578 
L 126.774394 246.179974 
L 125.965235 249.96931 
L 125.381493 253.831406 
L 125.071968 257.722529 
L 125.108174 263.583488 
L 125.688226 269.466112 
L 126.79999 275.330492 
L 127.796053 279.244884 
L 128.982186 283.166649 
L 130.349015 287.099632 
L 132.699951 293.058947 
L 135.379109 299.142355 
L 138.367409 305.411805 
L 141.682952 311.896911 
L 145.366802 318.597397 
L 148.060341 323.155738 
L 150.972264 327.745336 
L 154.120487 332.331527 
L 157.522386 336.867203 
L 161.192802 341.292584 
L 165.133994 345.567398 
L 169.347287 349.634471 
L 173.824219 353.453321 
L 178.552986 356.97654 
L 183.515225 360.168701 
L 188.68882 362.995937 
L 194.047893 365.430666 
L 199.56375 367.450785 
L 202.370932 368.300509 
L 208.063535 369.66275 
L 210.940629 370.174133 
L 213.83236 370.568143 
L 216.734931 370.850058 
L 219.642904 371.008775 
L 222.55316 371.055337 
L 225.460752 370.984423 
L 228.360364 370.790902 
L 231.249482 370.486145 
L 234.121765 370.059866 
L 236.973875 369.518243 
L 239.8002 368.856773 
L 242.597645 368.08187 
L 245.360476 367.189353 
L 248.084243 366.18057 
L 250.766249 365.062274 
L 253.402408 363.836002 
L 255.984899 362.493021 
L 258.513162 361.045655 
L 260.981197 359.490702 
L 263.38487 357.830323 
L 265.720112 356.06681 
L 267.982927 354.202586 
L 270.169388 352.240199 
L 272.27565 350.182326 
L 274.295347 348.02688 
L 276.229372 345.78563 
L 278.070183 343.454318 
L 279.814958 341.037626 
L 281.459897 338.53842 
L 283.001058 335.959375 
L 284.435103 333.304143 
L 285.758108 330.575488 
L 286.966453 327.776687 
L 288.05636 324.910847 
L 289.026153 321.983842 
L 289.868829 318.994673 
L 290.584976 315.95206 
L 291.164719 312.852048 
L 291.612546 309.707733 
L 291.918567 306.515604 
L 292.083999 303.28471 
L 292.098749 300.012186 
L 291.968253 296.711179 
L 291.682459 293.379273 
L 291.239167 290.022104 
L 290.636353 286.645393 
L 289.867925 283.251387 
L 288.927722 279.842705 
L 287.82261 276.432567 
L 286.538029 273.017008 
L 285.081293 269.60932 
L 283.442246 266.209542 
L 281.62425 262.827693 
L 279.607894 259.458462 
L 277.452914 256.147739 
L 275.11283 252.871655 
L 272.587254 249.637327 
L 269.972804 246.505564 
L 267.223448 243.452487 
L 261.574918 237.722055 
L 252.29861 228.783454 
L 251.061106 227.24517 
L 250.51437 226.021696 
L 250.620992 225.057606 
L 251.341016 224.300641 
L 252.632082 223.701805 
L 254.396395 223.200195 
L 263.640173 221.097052 
L 268.544633 219.640378 
L 270.987023 218.789523 
L 275.566996 216.809213 
L 279.815012 214.498263 
L 281.801977 213.227845 
L 285.436269 210.475922 
L 287.135186 209.005753 
L 287.135186 209.005753 
" clip-path="url(#p7e4a5d3f9a)" style="fill: none; stroke-dasharray: 5.55,2.4; stroke-dashoffset: 0; stroke: #0000ff; stroke-width: 1.5"/>
   </g>
   <g id="patch_3">
    <path d="M 365.88375 207.477187 
C 365.88375 185.636245 361.581561 164.007679 353.223394 143.829279 
C 344.865227 123.650879 332.613628 105.315066 317.16975 89.871188 
C 301.725871 74.427309 283.390058 62.17571 263.211658 53.817544 
C 243.033259 45.459377 221.404692 41.157187 199.56375 41.157187 
C 177.722808 41.157187 156.094241 45.459377 135.915842 53.817544 
C 115.737442 62.17571 97.401629 74.427309 81.95775 89.871188 
C 66.513872 105.315066 54.262273 123.650879 45.904106 143.829279 
C 37.545939 164.007679 33.24375 185.636245 33.24375 207.477187 
C 33.24375 229.31813 37.545939 250.946696 45.904106 271.125096 
C 54.262273 291.303496 66.513872 309.639309 81.95775 325.083187 
C 97.401629 340.527066 115.737442 352.778665 135.915842 361.136831 
C 156.094241 369.494998 177.722808 373.797188 199.56375 373.797188 
C 221.404692 373.797188 243.033259 369.494998 263.211658 361.136831 
C 283.390058 352.778665 301.725871 340.527066 317.16975 325.083187 
C 332.613628 309.639309 344.865227 291.303496 353.223394 271.125096 
C 361.581561 250.946696 365.88375 229.31813 365.88375 207.477188 
" style="fill: none; stroke: #000000; stroke-width: 0.8; stroke-linejoin: miter; stroke-linecap: square"/>
   </g>
   <g id="text_19">
    <!-- Radiation Diagram - 4AVVF06 -->
    <g transform="translate(110.727187 16.318125)scale(0.12 -0.12)">
     <defs>
      <path id="DejaVuSans-52" d="M 2841 2188 
Q 3044 2119 3236 1894 
Q 3428 1669 3622 1275 
L 4263 0 
L 3584 0 
L 2988 1197 
Q 2756 1666 2539 1819 
Q 2322 1972 1947 1972 
L 1259 1972 
L 1259 0 
L 628 0 
L 628 4666 
L 2053 4666 
Q 2853 4666 3247 4331 
Q 3641 3997 3641 3322 
Q 3641 2881 3436 2590 
Q 3231 2300 2841 2188 
z
M 1259 4147 
L 1259 2491 
L 2053 2491 
Q 2509 2491 2742 2702 
Q 2975 2913 2975 3322 
Q 2975 3731 2742 3939 
Q 2509 4147 2053 4147 
L 1259 4147 
z
" transform="scale(0.015625)"/>
      <path id="DejaVuSans-61" d="M 2194 1759 
Q 1497 1759 1228 1600 
Q 959 1441 959 1056 
Q 959 750 1161 570 
Q 1363 391 1709 391 
Q 2188 391 2477 730 
Q 2766 1069 2766 1631 
L 2766 1759 
L 2194 1759 
z
M 3341 1997 
L 3341 0 
L 2766 0 
L 2766 531 
Q 2569 213 2275 61 
Q 1981 -91 1556 -91 
Q 1019 -91 701 211 
Q 384 513 384 1019 
Q 384 1609 779 1909 
Q 1175 2209 1959 2209 
L 2766 2209 
L 2766 2266 
Q 2766 2663 2505 2880 
Q 2244 3097 1772 3097 
Q 1472 3097 1187 3025 
Q 903 2953 641 2809 
L 641 3341 
Q 956 3463 1253 3523 
Q 1550 3584 1831 3584 
Q 2591 3584 2966 3190 
Q 3341 2797 3341 1997 
z
" transform="scale(0.015625)"/>
      <path id="DejaVuSans-64" d="M 2906 2969 
L 2906 4863 
L 3481 4863 
L 3481 0 
L 2906 0 
L 2906 525 
Q 2725 213 2448 61 
Q 2172 -91 1784 -91 
Q 1150 -91 751 415 
Q 353 922 353 1747 
Q 353 2572 751 3078 
Q 1150 3584 1784 3584 
Q 2172 3584 2448 3432 
Q 2725 3281 2906 2969 
z
M 947 1747 
Q 947 1113 1208 752 
Q 1469 391 1925 391 
Q 2381 391 2643 752 
Q 2906 1113 2906 1747 
Q 2906 2381 2643 2742 
Q 2381 3103 1925 3103 
Q 1469 3103 1208 2742 
Q 947 2381 947 1747 
z
" transform="scale(0.015625)"/>
      <path id="DejaVuSans-69" d="M 603 3500 
L 1178 3500 
L 1178 0 
L 603 0 
L 603 3500 
z
M 603 4863 
L 1178 4863 
L 1178 4134 
L 603 4134 
L 603 4863 
z
" transform="scale(0.015625)"/>
      <path id="DejaVuSans-74" d="M 1172 4494 
L 1172 3500 
L 2356 3500 
L 2356 3053 
L 1172 3053 
L 1172 1153 
Q 1172 725 1289 603 
Q 1406 481 1766 481 
L 2356 481 
L 2356 0 
L 1766 0 
Q 1100 0 847 248 
Q 594 497 594 1153 
L 594 3053 
L 172 3053 
L 172 3500 
L 594 3500 
L 594 4494 
L 1172 4494 
z
" transform="scale(0.015625)"/>
      <path id="DejaVuSans-6f" d="M 1959 3097 
Q 1497 3097 1228 2736 
Q 959 2375 959 1747 
Q 959 1119 1226 758 
Q 1494 397 1959 397 
Q 2419 397 2687 759 
Q 2956 1122 2956 1747 
Q 2956 2369 2687 2733 
Q 2419 3097 1959 3097 
z
M 1959 3584 
Q 2709 3584 3137 3096 
Q 3566 2609 3566 1747 
Q 3566 888 3137 398 
Q 2709 -91 1959 -91 
Q 1206 -91 779 398 
Q 353 888 353 1747 
Q 353 2609 779 3096 
Q 1206 3584 1959 3584 
z
" transform="scale(0.015625)"/>
      <path id="DejaVuSans-6e" d="M 3513 2113 
L 3513 0 
L 2938 0 
L 2938 2094 
Q 2938 2591 2744 2837 
Q 2550 3084 2163 3084 
Q 1697 3084 1428 2787 
Q 1159 2491 1159 1978 
L 1159 0 
L 581 0 
L 581 3500 
L 1159 3500 
L 1159 2956 
Q 1366 3272 1645 3428 
Q 1925 3584 2291 3584 
Q 2894 3584 3203 3211 
Q 3513 2838 3513 2113 
z
" transform="scale(0.015625)"/>
      <path id="DejaVuSans-20" transform="scale(0.015625)"/>
      <path id="DejaVuSans-44" d="M 1259 4147 
L 1259 519 
L 2022 519 
Q 2988 519 3436 956 
Q 3884 1394 3884 2338 
Q 3884 3275 3436 3711 
Q 2988 4147 2022 4147 
L 1259 4147 
z
M 628 4666 
L 1925 4666 
Q 3281 4666 3915 4102 
Q 4550 3538 4550 2338 
Q 4550 1131 3912 565 
Q 3275 0 1925 0 
L 628 0 
L 628 4666 
z
" transform="scale(0.015625)"/>
      <path id="DejaVuSans-67" d="M 2906 1791 
Q 2906 2416 2648 2759 
Q 2391 3103 1925 3103 
Q 1463 3103 1205 2759 
Q 947 2416 947 1791 
Q 947 1169 1205 825 
Q 1463 481 1925 481 
Q 2391 481 2648 825 
Q 2906 1169 2906 1791 
z
M 3481 434 
Q 3481 -459 3084 -895 
Q 2688 -1331 1869 -1331 
Q 1566 -1331 1297 -1286 
Q 1028 -1241 775 -1147 
L 775 -588 
Q 1028 -725 1275 -790 
Q 1522 -856 1778 -856 
Q 2344 -856 2625 -561 
Q 2906 -266 2906 331 
L 2906 616 
Q 2728 306 2450 153 
Q 2172 0 1784 0 
Q 1141 0 747 490 
Q 353 981 353 1791 
Q 353 2603 747 3093 
Q 1141 3584 1784 3584 
Q 2172 3584 2450 3431 
Q 2728 3278 2906 2969 
L 2906 3500 
L 3481 3500 
L 3481 434 
z
" transform="scale(0.015625)"/>
      <path id="DejaVuSans-72" d="M 2631 2963 
Q 2534 3019 2420 3045 
Q 2306 3072 2169 3072 
Q 1681 3072 1420 2755 
Q 1159 2438 1159 1844 
L 1159 0 
L 581 0 
L 581 3500 
L 1159 3500 
L 1159 2956 
Q 1341 3275 1631 3429 
Q 1922 3584 2338 3584 
Q 2397 3584 2469 3576 
Q 2541 3569 2628 3553 
L 2631 2963 
z
" transform="scale(0.015625)"/>
      <path id="DejaVuSans-6d" d="M 3328 2828 
Q 3544 3216 3844 3400 
Q 4144 3584 4550 3584 
Q 5097 3584 5394 3201 
Q 5691 2819 5691 2113 
L 5691 0 
L 5113 0 
L 5113 2094 
Q 5113 2597 4934 2840 
Q 4756 3084 4391 3084 
Q 3944 3084 3684 2787 
Q 3425 2491 3425 1978 
L 3425 0 
L 2847 0 
L 2847 2094 
Q 2847 2600 2669 2842 
Q 2491 3084 2119 3084 
Q 1678 3084 1418 2786 
Q 1159 2488 1159 1978 
L 1159 0 
L 581 0 
L 581 3500 
L 1159 3500 
L 1159 2956 
Q 1356 3278 1631 3431 
Q 1906 3584 2284 3584 
Q 2666 3584 2933 3390 
Q 3200 3197 3328 2828 
z
" transform="scale(0.015625)"/>
      <path id="DejaVuSans-2d" d="M 313 2009 
L 1997 2009 
L 1997 1497 
L 313 1497 
L 313 2009 
z
" transform="scale(0.015625)"/>
      <path id="DejaVuSans-41" d="M 2188 4044 
L 1331 1722 
L 3047 1722 
L 2188 4044 
z
M 1831 4666 
L 2547 4666 
L 4325 0 
L 3669 0 
L 3244 1197 
L 1141 1197 
L 716 0 
L 50 0 
L 1831 4666 
z
" transform="scale(0.015625)"/>
      <path id="DejaVuSans-56" d="M 1831 0 
L 50 4666 
L 709 4666 
L 2188 738 
L 3669 4666 
L 4325 4666 
L 2547 0 
L 1831 0 
z
" transform="scale(0.015625)"/>
      <path id="DejaVuSans-46" d="M 628 4666 
L 3309 4666 
L 3309 4134 
L 1259 4134 
L 1259 2759 
L 3109 2759 
L 3109 2228 
L 1259 2228 
L 1259 0 
L 628 0 
L 628 4666 
z
" transform="scale(0.015625)"/>
     </defs>
     <use xlink:href="#DejaVuSans-52"/>
     <use xlink:href="#DejaVuSans-61" x="67.232422"/>
     <use xlink:href="#DejaVuSans-64" x="128.511719"/>
     <use xlink:href="#DejaVuSans-69" x="191.988281"/>
     <use xlink:href="#DejaVuSans-61" x="219.771484"/>
     <use xlink:href="#DejaVuSans-74" x="281.050781"/>
     <use xlink:href="#DejaVuSans-69" x="320.259766"/>
     <use xlink:href="#DejaVuSans-6f" x="348.042969"/>
     <use xlink:href="#DejaVuSans-6e" x="409.224609"/>
     <use xlink:href="#DejaVuSans-20" x="472.603516"/>
     <use xlink:href="#DejaVuSans-44" x="504.390625"/>
     <use xlink:href="#DejaVuSans-69" x="581.392578"/>
     <use xlink:href="#DejaVuSans-61" x="609.175781"/>
     <use xlink:href="#DejaVuSans-67" x="670.455078"/>
     <use xlink:href="#DejaVuSans-72" x="733.931641"/>
     <use xlink:href="#DejaVuSans-61" x="775.044922"/>
     <use xlink:href="#DejaVuSans-6d" x="836.324219"/>
     <use xlink:href="#DejaVuSans-20" x="933.736328"/>
     <use xlink:href="#DejaVuSans-2d" x="965.523438"/>
     <use xlink:href="#DejaVuSans-20" x="1001.607422"/>
     <use xlink:href="#DejaVuSans-34" x="1033.394531"/>
     <use xlink:href="#DejaVuSans-41" x="1097.017578"/>
     <use xlink:href="#DejaVuSans-56" x="1159.050781"/>
     <use xlink:href="#DejaVuSans-56" x="1227.458984"/>
     <use xlink:href="#DejaVuSans-46" x="1295.867188"/>
     <use xlink:href="#DejaVuSans-30" x="1353.386719"/>
     <use xlink:href="#DejaVuSans-36" x="1417.009766"/>
    </g>
   </g>
   <g id="legend_1">
    <g id="patch_4">
     <path d="M 304.104062 78.513437 
L 358.88375 78.513437 
Q 360.88375 78.513437 360.88375 76.513437 
L 360.88375 48.157187 
Q 360.88375 46.157187 358.88375 46.157187 
L 304.104062 46.157187 
Q 302.104062 46.157187 302.104062 48.157187 
L 302.104062 76.513437 
Q 302.104062 78.513437 304.104062 78.513437 
z
" style="fill: #ffffff; opacity: 0.8; stroke: #cccccc; stroke-linejoin: miter"/>
    </g>
    <g id="line2d_21">
     <path d="M 306.104062 54.255625 
L 316.104062 54.255625 
L 326.104062 54.255625 
" style="fill: none; stroke: #ff0000; stroke-width: 1.5; stroke-linecap: square"/>
    </g>
    <g id="text_20">
     <!-- INPE -->
     <g transform="translate(334.104062 57.755625)scale(0.1 -0.1)">
      <defs>
       <path id="DejaVuSans-49" d="M 628 4666 
L 1259 4666 
L 1259 0 
L 628 0 
L 628 4666 
z
" transform="scale(0.015625)"/>
       <path id="DejaVuSans-4e" d="M 628 4666 
L 1478 4666 
L 3547 763 
L 3547 4666 
L 4159 4666 
L 4159 0 
L 3309 0 
L 1241 3903 
L 1241 0 
L 628 0 
L 628 4666 
z
" transform="scale(0.015625)"/>
       <path id="DejaVuSans-50" d="M 1259 4147 
L 1259 2394 
L 2053 2394 
Q 2494 2394 2734 2622 
Q 2975 2850 2975 3272 
Q 2975 3691 2734 3919 
Q 2494 4147 2053 4147 
L 1259 4147 
z
M 628 4666 
L 2053 4666 
Q 2838 4666 3239 4311 
Q 3641 3956 3641 3272 
Q 3641 2581 3239 2228 
Q 2838 1875 2053 1875 
L 1259 1875 
L 1259 0 
L 628 0 
L 628 4666 
z
" transform="scale(0.015625)"/>
       <path id="DejaVuSans-45" d="M 628 4666 
L 3578 4666 
L 3578 4134 
L 1259 4134 
L 1259 2753 
L 3481 2753 
L 3481 2222 
L 1259 2222 
L 1259 531 
L 3634 531 
L 3634 0 
L 628 0 
L 628 4666 
z
" transform="scale(0.015625)"/>
      </defs>
      <use xlink:href="#DejaVuSans-49"/>
      <use xlink:href="#DejaVuSans-4e" x="29.492188"/>
      <use xlink:href="#DejaVuSans-50" x="104.296875"/>
      <use xlink:href="#DejaVuSans-45" x="164.599609"/>
     </g>
    </g>
    <g id="line2d_22">
     <path d="M 306.104062 68.93375 
L 316.104062 68.93375 
L 326.104062 68.93375 
" style="fill: none; stroke-dasharray: 5.55,2.4; stroke-dashoffset: 0; stroke: #0000ff; stroke-width: 1.5"/>
    </g>
    <g id="text_21">
     <!-- CST -->
     <g transform="translate(334.104062 72.43375)scale(0.1 -0.1)">
      <defs>
       <path id="DejaVuSans-43" d="M 4122 4306 
L 4122 3641 
Q 3803 3938 3442 4084 
Q 3081 4231 2675 4231 
Q 1875 4231 1450 3742 
Q 1025 3253 1025 2328 
Q 1025 1406 1450 917 
Q 1875 428 2675 428 
Q 3081 428 3442 575 
Q 3803 722 4122 1019 
L 4122 359 
Q 3791 134 3420 21 
Q 3050 -91 2638 -91 
Q 1578 -91 968 557 
Q 359 1206 359 2328 
Q 359 3453 968 4101 
Q 1578 4750 2638 4750 
Q 3056 4750 3426 4639 
Q 3797 4528 4122 4306 
z
" transform="scale(0.015625)"/>
       <path id="DejaVuSans-53" d="M 3425 4513 
L 3425 3897 
Q 3066 4069 2747 4153 
Q 2428 4238 2131 4238 
Q 1616 4238 1336 4038 
Q 1056 3838 1056 3469 
Q 1056 3159 1242 3001 
Q 1428 2844 1947 2747 
L 2328 2669 
Q 3034 2534 3370 2195 
Q 3706 1856 3706 1288 
Q 3706 609 3251 259 
Q 2797 -91 1919 -91 
Q 1588 -91 1214 -16 
Q 841 59 441 206 
L 441 856 
Q 825 641 1194 531 
Q 1563 422 1919 422 
Q 2459 422 2753 634 
Q 3047 847 3047 1241 
Q 3047 1584 2836 1778 
Q 2625 1972 2144 2069 
L 1759 2144 
Q 1053 2284 737 2584 
Q 422 2884 422 3419 
Q 422 4038 858 4394 
Q 1294 4750 2059 4750 
Q 2388 4750 2728 4690 
Q 3069 4631 3425 4513 
z
" transform="scale(0.015625)"/>
       <path id="DejaVuSans-54" d="M -19 4666 
L 3928 4666 
L 3928 4134 
L 2272 4134 
L 2272 0 
L 1638 0 
L 1638 4134 
L -19 4134 
L -19 4666 
z
" transform="scale(0.015625)"/>
      </defs>
      <use xlink:href="#DejaVuSans-43"/>
      <use xlink:href="#DejaVuSans-53" x="69.824219"/>
      <use xlink:href="#DejaVuSans-54" x="133.300781"/>
     </g>
    </g>
   </g>
  </g>
 </g>
 <defs>
  <clipPath id="p7e4a5d3f9a">
   <path d="M 365.88375 207.477187 
C 365.88375 185.636245 361.581561 164.007679 353.223394 143.829279 
C 344.865227 123.650879 332.613628 105.315066 317.16975 89.871188 
C 301.725871 74.427309 283.390058 62.17571 263.211658 53.817544 
C 243.033259 45.459377 221.404692 41.157187 199.56375 41.157187 
C 177.722808 41.157187 156.094241 45.459377 135.915842 53.817544 
C 115.737442 62.17571 97.401629 74.427309 81.95775 89.871188 
C 66.513872 105.315066 54.262273 123.650879 45.904106 143.829279 
C 37.545939 164.007679 33.24375 185.636245 33.24375 207.477187 
C 33.24375 229.31813 37.545939 250.946696 45.904106 271.125096 
C 54.262273 291.303496 66.513872 309.639309 81.95775 325.083187 
C 97.401629 340.527066 115.737442 352.778665 135.915842 361.136831 
C 156.094241 369.494998 177.722808 373.797188 199.56375 373.797188 
C 221.404692 373.797188 243.033259 369.494998 263.211658 361.136831 
C 283.390058 352.778665 301.725871 340.527066 317.16975 325.083187 
C 332.613628 309.639309 344.865227 291.303496 353.223394 271.125096 
C 361.581561 250.946696 365.88375 229.31813 365.88375 207.477188 
M 199.56375 207.477187 
C 199.56375 207.477187 199.56375 207.477187 199.56375 207.477187 
C 199.56375 207.477187 199.56375 207.477187 199.56375 207.477187 
C 199.56375 207.477187 199.56375 207.477187 199.56375 207.477187 
C 199.56375 207.477187 199.56375 207.477187 199.56375 207.477187 
C 199.56375 207.477187 199.56375 207.477187 199.56375 207.477187 
C 199.56375 207.477187 199.56375 207.477187 199.56375 207.477187 
C 199.56375 207.477187 199.56375 207.477187 199.56375 207.477187 
C 199.56375 207.477187 199.56375 207.477187 199.56375 207.477187 
C 199.56375 207.477187 199.56375 207.477187 199.56375 207.477187 
C 199.56375 207.477187 199.56375 207.477187 199.56375 207.477187 
C 199.56375 207.477187 199.56375 207.477187 199.56375 207.477187 
C 199.56375 207.477187 199.56375 207.477187 199.56375 207.477187 
C 199.56375 207.477187 199.56375 207.477187 199.56375 207.477187 
C 199.56375 207.477187 199.56375 207.477187 199.56375 207.477187 
C 199.56375 207.477187 199.56375 207.477187 199.56375 207.477187 
C 199.56375 207.477187 199.56375 207.477187 199.56375 207.477187 
M 365.88375 207.477187 
z
"/>
  </clipPath>
 </defs>
</svg>
