<?xml version="1.0" encoding="utf-8" standalone="no"?>
<!DOCTYPE svg PUBLIC "-//W3C//DTD SVG 1.1//EN"
  "http://www.w3.org/Graphics/SVG/1.1/DTD/svg11.dtd">
<svg xmlns:xlink="http://www.w3.org/1999/xlink" width="506.82625pt" height="514.053188pt" viewBox="0 0 506.82625 514.053188" xmlns="http://www.w3.org/2000/svg" version="1.1">
 <metadata>
  <rdf:RDF xmlns:dc="http://purl.org/dc/elements/1.1/" xmlns:cc="http://creativecommons.org/ns#" xmlns:rdf="http://www.w3.org/1999/02/22-rdf-syntax-ns#">
   <cc:Work>
    <dc:type rdf:resource="http://purl.org/dc/dcmitype/StillImage"/>
    <dc:date>2023-11-04T18:21:18.110391</dc:date>
    <dc:format>image/svg+xml</dc:format>
    <dc:creator>
     <cc:Agent>
      <dc:title>Matplotlib v3.5.1, https://matplotlib.org/</dc:title>
     </cc:Agent>
    </dc:creator>
   </cc:Work>
  </rdf:RDF>
 </metadata>
 <defs>
  <style type="text/css">*{stroke-linejoin: round; stroke-linecap: butt}</style>
 </defs>
 <g id="figure_1">
  <g id="patch_1">
   <path d="M 0 514.053188 
L 506.82625 514.053188 
L 506.82625 0 
L 0 0 
z
" style="fill: #ffffff"/>
  </g>
  <g id="axes_1">
   <g id="patch_2">
    <path d="M 473.5825 262.917188 
C 473.5825 233.795931 467.846247 204.957842 456.702025 178.05331 
C 445.557803 151.148777 429.222338 126.701026 408.6305 106.109188 
C 388.038662 85.51735 363.590911 69.181885 336.686378 58.037662 
C 309.781845 46.89344 280.943756 41.157188 251.8225 41.157188 
C 222.701244 41.157188 193.863155 46.89344 166.958622 58.037662 
C 140.054089 69.181885 115.606338 85.51735 95.0145 106.109188 
C 74.422662 126.701026 58.087197 151.148777 46.942975 178.05331 
C 35.798753 204.957842 30.0625 233.795931 30.0625 262.917188 
C 30.0625 292.038444 35.798753 320.876533 46.942975 347.781065 
C 58.087197 374.685598 74.422662 399.133349 95.0145 419.725187 
C 115.606338 440.317025 140.054089 456.65249 166.958622 467.796713 
C 193.863155 478.940935 222.701244 484.677188 251.8225 484.677188 
C 280.943756 484.677188 309.781845 478.940935 336.686378 467.796713 
C 363.590911 456.65249 388.038662 440.317025 408.6305 419.725187 
C 429.222338 399.133349 445.557803 374.685598 456.702025 347.781065 
C 467.846247 320.876533 473.5825 292.038444 473.5825 262.917188 
M 251.8225 262.917188 
C 251.8225 262.917188 251.8225 262.917188 251.8225 262.917188 
C 251.8225 262.917188 251.8225 262.917188 251.8225 262.917188 
C 251.8225 262.917188 251.8225 262.917188 251.8225 262.917188 
C 251.8225 262.917188 251.8225 262.917188 251.8225 262.917188 
C 251.8225 262.917188 251.8225 262.917188 251.8225 262.917188 
C 251.8225 262.917188 251.8225 262.917188 251.8225 262.917188 
C 251.8225 262.917188 251.8225 262.917188 251.8225 262.917188 
C 251.8225 262.917188 251.8225 262.917188 251.8225 262.917188 
C 251.8225 262.917188 251.8225 262.917188 251.8225 262.917188 
C 251.8225 262.917188 251.8225 262.917188 251.8225 262.917188 
C 251.8225 262.917188 251.8225 262.917188 251.8225 262.917188 
C 251.8225 262.917188 251.8225 262.917188 251.8225 262.917188 
C 251.8225 262.917188 251.8225 262.917188 251.8225 262.917188 
C 251.8225 262.917188 251.8225 262.917188 251.8225 262.917188 
C 251.8225 262.917188 251.8225 262.917188 251.8225 262.917188 
C 251.8225 262.917188 251.8225 262.917188 251.8225 262.917188 
M 473.5825 262.917188 
z
" style="fill: #ffffff"/>
   </g>
   <g id="matplotlib.axis_1">
    <g id="xtick_1">
     <g id="line2d_1">
      <path d="M 251.8225 262.917188 
L 251.8225 41.157188 
" clip-path="url(#p4acb2eeba8)" style="fill: none; stroke: #b0b0b0; stroke-width: 0.8; stroke-linecap: square"/>
     </g>
     <g id="text_1">
      <!-- 0° -->
      <g transform="translate(246.14125 29.916563)scale(0.1 -0.1)">
       <defs>
        <path id="DejaVuSans-30" d="M 2034 4250 
Q 1547 4250 1301 3770 
Q 1056 3291 1056 2328 
Q 1056 1369 1301 889 
Q 1547 409 2034 409 
Q 2525 409 2770 889 
Q 3016 1369 3016 2328 
Q 3016 3291 2770 3770 
Q 2525 4250 2034 4250 
z
M 2034 4750 
Q 2819 4750 3233 4129 
Q 3647 3509 3647 2328 
Q 3647 1150 3233 529 
Q 2819 -91 2034 -91 
Q 1250 -91 836 529 
Q 422 1150 422 2328 
Q 422 3509 836 4129 
Q 1250 4750 2034 4750 
z
" transform="scale(0.015625)"/>
        <path id="DejaVuSans-b0" d="M 1600 4347 
Q 1350 4347 1178 4173 
Q 1006 4000 1006 3750 
Q 1006 3503 1178 3333 
Q 1350 3163 1600 3163 
Q 1850 3163 2022 3333 
Q 2194 3503 2194 3750 
Q 2194 3997 2020 4172 
Q 1847 4347 1600 4347 
z
M 1600 4750 
Q 1800 4750 1984 4673 
Q 2169 4597 2303 4453 
Q 2447 4313 2519 4134 
Q 2591 3956 2591 3750 
Q 2591 3338 2302 3052 
Q 2013 2766 1594 2766 
Q 1172 2766 890 3047 
Q 609 3328 609 3750 
Q 609 4169 896 4459 
Q 1184 4750 1600 4750 
z
" transform="scale(0.015625)"/>
       </defs>
       <use xlink:href="#DejaVuSans-30"/>
       <use xlink:href="#DejaVuSans-b0" x="63.623047"/>
      </g>
     </g>
    </g>
    <g id="xtick_2">
     <g id="line2d_2">
      <path d="M 251.8225 262.917188 
L 95.0145 106.109188 
" clip-path="url(#p4acb2eeba8)" style="fill: none; stroke: #b0b0b0; stroke-width: 0.8; stroke-linecap: square"/>
     </g>
     <g id="text_2">
      <!-- 45° -->
      <g transform="translate(76.252505 98.969068)scale(0.1 -0.1)">
       <defs>
        <path id="DejaVuSans-34" d="M 2419 4116 
L 825 1625 
L 2419 1625 
L 2419 4116 
z
M 2253 4666 
L 3047 4666 
L 3047 1625 
L 3713 1625 
L 3713 1100 
L 3047 1100 
L 3047 0 
L 2419 0 
L 2419 1100 
L 313 1100 
L 313 1709 
L 2253 4666 
z
" transform="scale(0.015625)"/>
        <path id="DejaVuSans-35" d="M 691 4666 
L 3169 4666 
L 3169 4134 
L 1269 4134 
L 1269 2991 
Q 1406 3038 1543 3061 
Q 1681 3084 1819 3084 
Q 2600 3084 3056 2656 
Q 3513 2228 3513 1497 
Q 3513 744 3044 326 
Q 2575 -91 1722 -91 
Q 1428 -91 1123 -41 
Q 819 9 494 109 
L 494 744 
Q 775 591 1075 516 
Q 1375 441 1709 441 
Q 2250 441 2565 725 
Q 2881 1009 2881 1497 
Q 2881 1984 2565 2268 
Q 2250 2553 1709 2553 
Q 1456 2553 1204 2497 
Q 953 2441 691 2322 
L 691 4666 
z
" transform="scale(0.015625)"/>
       </defs>
       <use xlink:href="#DejaVuSans-34"/>
       <use xlink:href="#DejaVuSans-35" x="63.623047"/>
       <use xlink:href="#DejaVuSans-b0" x="127.246094"/>
      </g>
     </g>
    </g>
    <g id="xtick_3">
     <g id="line2d_3">
      <path d="M 251.8225 262.917188 
L 30.0625 262.917188 
" clip-path="url(#p4acb2eeba8)" style="fill: none; stroke: #b0b0b0; stroke-width: 0.8; stroke-linecap: square"/>
     </g>
     <g id="text_3">
      <!-- 90° -->
      <g transform="translate(7.2 265.676563)scale(0.1 -0.1)">
       <defs>
        <path id="DejaVuSans-39" d="M 703 97 
L 703 672 
Q 941 559 1184 500 
Q 1428 441 1663 441 
Q 2288 441 2617 861 
Q 2947 1281 2994 2138 
Q 2813 1869 2534 1725 
Q 2256 1581 1919 1581 
Q 1219 1581 811 2004 
Q 403 2428 403 3163 
Q 403 3881 828 4315 
Q 1253 4750 1959 4750 
Q 2769 4750 3195 4129 
Q 3622 3509 3622 2328 
Q 3622 1225 3098 567 
Q 2575 -91 1691 -91 
Q 1453 -91 1209 -44 
Q 966 3 703 97 
z
M 1959 2075 
Q 2384 2075 2632 2365 
Q 2881 2656 2881 3163 
Q 2881 3666 2632 3958 
Q 2384 4250 1959 4250 
Q 1534 4250 1286 3958 
Q 1038 3666 1038 3163 
Q 1038 2656 1286 2365 
Q 1534 2075 1959 2075 
z
" transform="scale(0.015625)"/>
       </defs>
       <use xlink:href="#DejaVuSans-39"/>
       <use xlink:href="#DejaVuSans-30" x="63.623047"/>
       <use xlink:href="#DejaVuSans-b0" x="127.246094"/>
      </g>
     </g>
    </g>
    <g id="xtick_4">
     <g id="line2d_4">
      <path d="M 251.8225 262.917188 
L 95.0145 419.725187 
" clip-path="url(#p4acb2eeba8)" style="fill: none; stroke: #b0b0b0; stroke-width: 0.8; stroke-linecap: square"/>
     </g>
     <g id="text_4">
      <!-- 135° -->
      <g transform="translate(73.071255 432.384057)scale(0.1 -0.1)">
       <defs>
        <path id="DejaVuSans-31" d="M 794 531 
L 1825 531 
L 1825 4091 
L 703 3866 
L 703 4441 
L 1819 4666 
L 2450 4666 
L 2450 531 
L 3481 531 
L 3481 0 
L 794 0 
L 794 531 
z
" transform="scale(0.015625)"/>
        <path id="DejaVuSans-33" d="M 2597 2516 
Q 3050 2419 3304 2112 
Q 3559 1806 3559 1356 
Q 3559 666 3084 287 
Q 2609 -91 1734 -91 
Q 1441 -91 1130 -33 
Q 819 25 488 141 
L 488 750 
Q 750 597 1062 519 
Q 1375 441 1716 441 
Q 2309 441 2620 675 
Q 2931 909 2931 1356 
Q 2931 1769 2642 2001 
Q 2353 2234 1838 2234 
L 1294 2234 
L 1294 2753 
L 1863 2753 
Q 2328 2753 2575 2939 
Q 2822 3125 2822 3475 
Q 2822 3834 2567 4026 
Q 2313 4219 1838 4219 
Q 1578 4219 1281 4162 
Q 984 4106 628 3988 
L 628 4550 
Q 988 4650 1302 4700 
Q 1616 4750 1894 4750 
Q 2613 4750 3031 4423 
Q 3450 4097 3450 3541 
Q 3450 3153 3228 2886 
Q 3006 2619 2597 2516 
z
" transform="scale(0.015625)"/>
       </defs>
       <use xlink:href="#DejaVuSans-31"/>
       <use xlink:href="#DejaVuSans-33" x="63.623047"/>
       <use xlink:href="#DejaVuSans-35" x="127.246094"/>
       <use xlink:href="#DejaVuSans-b0" x="190.869141"/>
      </g>
     </g>
    </g>
    <g id="xtick_5">
     <g id="line2d_5">
      <path d="M 251.8225 262.917188 
L 251.8225 484.677188 
" clip-path="url(#p4acb2eeba8)" style="fill: none; stroke: #b0b0b0; stroke-width: 0.8; stroke-linecap: square"/>
     </g>
     <g id="text_5">
      <!-- 180° -->
      <g transform="translate(239.77875 501.436563)scale(0.1 -0.1)">
       <defs>
        <path id="DejaVuSans-38" d="M 2034 2216 
Q 1584 2216 1326 1975 
Q 1069 1734 1069 1313 
Q 1069 891 1326 650 
Q 1584 409 2034 409 
Q 2484 409 2743 651 
Q 3003 894 3003 1313 
Q 3003 1734 2745 1975 
Q 2488 2216 2034 2216 
z
M 1403 2484 
Q 997 2584 770 2862 
Q 544 3141 544 3541 
Q 544 4100 942 4425 
Q 1341 4750 2034 4750 
Q 2731 4750 3128 4425 
Q 3525 4100 3525 3541 
Q 3525 3141 3298 2862 
Q 3072 2584 2669 2484 
Q 3125 2378 3379 2068 
Q 3634 1759 3634 1313 
Q 3634 634 3220 271 
Q 2806 -91 2034 -91 
Q 1263 -91 848 271 
Q 434 634 434 1313 
Q 434 1759 690 2068 
Q 947 2378 1403 2484 
z
M 1172 3481 
Q 1172 3119 1398 2916 
Q 1625 2713 2034 2713 
Q 2441 2713 2670 2916 
Q 2900 3119 2900 3481 
Q 2900 3844 2670 4047 
Q 2441 4250 2034 4250 
Q 1625 4250 1398 4047 
Q 1172 3844 1172 3481 
z
" transform="scale(0.015625)"/>
       </defs>
       <use xlink:href="#DejaVuSans-31"/>
       <use xlink:href="#DejaVuSans-38" x="63.623047"/>
       <use xlink:href="#DejaVuSans-30" x="127.246094"/>
       <use xlink:href="#DejaVuSans-b0" x="190.869141"/>
      </g>
     </g>
    </g>
    <g id="xtick_6">
     <g id="line2d_6">
      <path d="M 251.8225 262.917188 
L 408.6305 419.725187 
" clip-path="url(#p4acb2eeba8)" style="fill: none; stroke: #b0b0b0; stroke-width: 0.8; stroke-linecap: square"/>
     </g>
     <g id="text_6">
      <!-- 225° -->
      <g transform="translate(406.486245 432.384057)scale(0.1 -0.1)">
       <defs>
        <path id="DejaVuSans-32" d="M 1228 531 
L 3431 531 
L 3431 0 
L 469 0 
L 469 531 
Q 828 903 1448 1529 
Q 2069 2156 2228 2338 
Q 2531 2678 2651 2914 
Q 2772 3150 2772 3378 
Q 2772 3750 2511 3984 
Q 2250 4219 1831 4219 
Q 1534 4219 1204 4116 
Q 875 4013 500 3803 
L 500 4441 
Q 881 4594 1212 4672 
Q 1544 4750 1819 4750 
Q 2544 4750 2975 4387 
Q 3406 4025 3406 3419 
Q 3406 3131 3298 2873 
Q 3191 2616 2906 2266 
Q 2828 2175 2409 1742 
Q 1991 1309 1228 531 
z
" transform="scale(0.015625)"/>
       </defs>
       <use xlink:href="#DejaVuSans-32"/>
       <use xlink:href="#DejaVuSans-32" x="63.623047"/>
       <use xlink:href="#DejaVuSans-35" x="127.246094"/>
       <use xlink:href="#DejaVuSans-b0" x="190.869141"/>
      </g>
     </g>
    </g>
    <g id="xtick_7">
     <g id="line2d_7">
      <path d="M 251.8225 262.917188 
L 473.5825 262.917188 
" clip-path="url(#p4acb2eeba8)" style="fill: none; stroke: #b0b0b0; stroke-width: 0.8; stroke-linecap: square"/>
     </g>
     <g id="text_7">
      <!-- 270° -->
      <g transform="translate(475.53875 265.676563)scale(0.1 -0.1)">
       <defs>
        <path id="DejaVuSans-37" d="M 525 4666 
L 3525 4666 
L 3525 4397 
L 1831 0 
L 1172 0 
L 2766 4134 
L 525 4134 
L 525 4666 
z
" transform="scale(0.015625)"/>
       </defs>
       <use xlink:href="#DejaVuSans-32"/>
       <use xlink:href="#DejaVuSans-37" x="63.623047"/>
       <use xlink:href="#DejaVuSans-30" x="127.246094"/>
       <use xlink:href="#DejaVuSans-b0" x="190.869141"/>
      </g>
     </g>
    </g>
    <g id="xtick_8">
     <g id="line2d_8">
      <path d="M 251.8225 262.917188 
L 408.6305 106.109188 
" clip-path="url(#p4acb2eeba8)" style="fill: none; stroke: #b0b0b0; stroke-width: 0.8; stroke-linecap: square"/>
     </g>
     <g id="text_8">
      <!-- 315° -->
      <g transform="translate(406.486245 98.969068)scale(0.1 -0.1)">
       <use xlink:href="#DejaVuSans-33"/>
       <use xlink:href="#DejaVuSans-31" x="63.623047"/>
       <use xlink:href="#DejaVuSans-35" x="127.246094"/>
       <use xlink:href="#DejaVuSans-b0" x="190.869141"/>
      </g>
     </g>
    </g>
   </g>
   <g id="matplotlib.axis_2">
    <g id="ytick_1">
     <g id="line2d_9">
      <path d="M 251.8225 260.869469 
C 251.553596 260.869469 251.287307 260.922437 251.038872 261.025342 
C 250.790437 261.128247 250.564688 261.279088 250.374544 261.469232 
C 250.184401 261.659376 250.03356 261.885125 249.930655 262.13356 
C 249.82775 262.381994 249.774782 262.648284 249.774782 262.917188 
C 249.774782 263.186091 249.82775 263.452381 249.930655 263.700815 
C 250.03356 263.94925 250.184401 264.174999 250.374544 264.365143 
C 250.564688 264.555287 250.790437 264.706128 251.038872 264.809033 
C 251.287307 264.911938 251.553596 264.964906 251.8225 264.964906 
C 252.091404 264.964906 252.357693 264.911938 252.606128 264.809033 
C 252.854563 264.706128 253.080312 264.555287 253.270456 264.365143 
C 253.460599 264.174999 253.61144 263.94925 253.714345 263.700815 
C 253.81725 263.452381 253.870218 263.186091 253.870218 262.917188 
C 253.870218 262.648284 253.81725 262.381994 253.714345 262.13356 
C 253.61144 261.885125 253.460599 261.659376 253.270456 261.469232 
C 253.080312 261.279088 252.854563 261.128247 252.606128 261.025342 
C 252.357693 260.922437 252.091404 260.869469 251.8225 260.869469 
" clip-path="url(#p4acb2eeba8)" style="fill: none; stroke: #b0b0b0; stroke-width: 0.8; stroke-linecap: square"/>
     </g>
     <g id="text_9">
      <!-- −35 -->
      <g transform="translate(251.038872 258.945655)scale(0.1 -0.1)">
       <defs>
        <path id="DejaVuSans-2212" d="M 678 2272 
L 4684 2272 
L 4684 1741 
L 678 1741 
L 678 2272 
z
" transform="scale(0.015625)"/>
       </defs>
       <use xlink:href="#DejaVuSans-2212"/>
       <use xlink:href="#DejaVuSans-33" x="83.789062"/>
       <use xlink:href="#DejaVuSans-35" x="147.412109"/>
      </g>
     </g>
    </g>
    <g id="ytick_2">
     <g id="line2d_10">
      <path d="M 251.8225 229.482 
C 247.431831 229.482 243.083857 230.346866 239.027408 232.027102 
C 234.970959 233.707338 231.284924 236.170268 228.180252 239.27494 
C 225.075581 242.379611 222.612651 246.065646 220.932415 250.122095 
C 219.252179 254.178544 218.387313 258.526519 218.387313 262.917188 
C 218.387313 267.307856 219.252179 271.655831 220.932415 275.71228 
C 222.612651 279.768729 225.075581 283.454764 228.180252 286.559435 
C 231.284924 289.664107 234.970959 292.127037 239.027408 293.807273 
C 243.083857 295.487509 247.431831 296.352375 251.8225 296.352375 
C 256.213169 296.352375 260.561143 295.487509 264.617592 293.807273 
C 268.674041 292.127037 272.360076 289.664107 275.464748 286.559435 
C 278.569419 283.454764 281.032349 279.768729 282.712585 275.71228 
C 284.392821 271.655831 285.257687 267.307856 285.257687 262.917188 
C 285.257687 258.526519 284.392821 254.178544 282.712585 250.122095 
C 281.032349 246.065646 278.569419 242.379611 275.464748 239.27494 
C 272.360076 236.170268 268.674041 233.707338 264.617592 232.027102 
C 260.561143 230.346866 256.213169 229.482 251.8225 229.482 
" clip-path="url(#p4acb2eeba8)" style="fill: none; stroke: #b0b0b0; stroke-width: 0.8; stroke-linecap: square"/>
     </g>
     <g id="text_10">
      <!-- −30 -->
      <g transform="translate(239.027408 229.947415)scale(0.1 -0.1)">
       <use xlink:href="#DejaVuSans-2212"/>
       <use xlink:href="#DejaVuSans-33" x="83.789062"/>
       <use xlink:href="#DejaVuSans-30" x="147.412109"/>
      </g>
     </g>
    </g>
    <g id="ytick_3">
     <g id="line2d_11">
      <path d="M 251.8225 198.094531 
C 243.310067 198.094531 234.880406 199.771295 227.015943 203.028862 
C 219.151481 206.286429 212.00516 211.061449 205.98596 217.080648 
C 199.966761 223.099847 195.191742 230.246168 191.934175 238.110631 
C 188.676608 245.975094 186.999844 254.404754 186.999844 262.917188 
C 186.999844 271.429621 188.676608 279.859281 191.934175 287.723744 
C 195.191742 295.588207 199.966761 302.734528 205.98596 308.753727 
C 212.00516 314.772926 219.151481 319.547946 227.015943 322.805513 
C 234.880406 326.06308 243.310067 327.739844 251.8225 327.739844 
C 260.334933 327.739844 268.764594 326.06308 276.629057 322.805513 
C 284.493519 319.547946 291.63984 314.772926 297.65904 308.753727 
C 303.678239 302.734528 308.453258 295.588207 311.710825 287.723744 
C 314.968392 279.859281 316.645156 271.429621 316.645156 262.917188 
C 316.645156 254.404754 314.968392 245.975094 311.710825 238.110631 
C 308.453258 230.246168 303.678239 223.099847 297.65904 217.080648 
C 291.63984 211.061449 284.493519 206.286429 276.629057 203.028862 
C 268.764594 199.771295 260.334933 198.094531 251.8225 198.094531 
" clip-path="url(#p4acb2eeba8)" style="fill: none; stroke: #b0b0b0; stroke-width: 0.8; stroke-linecap: square"/>
     </g>
     <g id="text_11">
      <!-- −25 -->
      <g transform="translate(227.015943 200.949175)scale(0.1 -0.1)">
       <use xlink:href="#DejaVuSans-2212"/>
       <use xlink:href="#DejaVuSans-32" x="83.789062"/>
       <use xlink:href="#DejaVuSans-35" x="147.412109"/>
      </g>
     </g>
    </g>
    <g id="ytick_4">
     <g id="line2d_12">
      <path d="M 251.8225 166.707063 
C 239.188302 166.707063 226.676956 169.195724 215.004479 174.030622 
C 203.332002 178.865521 192.725395 185.952629 183.791668 194.886356 
C 174.857941 203.820083 167.770833 214.42669 162.935935 226.099167 
C 158.101037 237.771643 155.612375 250.28299 155.612375 262.917188 
C 155.612375 275.551385 158.101037 288.062732 162.935935 299.735208 
C 167.770833 311.407685 174.857941 322.014292 183.791668 330.948019 
C 192.725395 339.881746 203.332002 346.968854 215.004479 351.803753 
C 226.676956 356.638651 239.188302 359.127312 251.8225 359.127312 
C 264.456698 359.127312 276.968044 356.638651 288.640521 351.803753 
C 300.312998 346.968854 310.919605 339.881746 319.853332 330.948019 
C 328.787059 322.014292 335.874167 311.407685 340.709065 299.735208 
C 345.543963 288.062732 348.032625 275.551385 348.032625 262.917188 
C 348.032625 250.28299 345.543963 237.771643 340.709065 226.099167 
C 335.874167 214.42669 328.787059 203.820083 319.853332 194.886356 
C 310.919605 185.952629 300.312998 178.865521 288.640521 174.030622 
C 276.968044 169.195724 264.456698 166.707063 251.8225 166.707063 
" clip-path="url(#p4acb2eeba8)" style="fill: none; stroke: #b0b0b0; stroke-width: 0.8; stroke-linecap: square"/>
     </g>
     <g id="text_12">
      <!-- −20 -->
      <g transform="translate(215.004479 171.950935)scale(0.1 -0.1)">
       <use xlink:href="#DejaVuSans-2212"/>
       <use xlink:href="#DejaVuSans-32" x="83.789062"/>
       <use xlink:href="#DejaVuSans-30" x="147.412109"/>
      </g>
     </g>
    </g>
    <g id="ytick_5">
     <g id="line2d_13">
      <path d="M 251.8225 135.319594 
C 235.066538 135.319594 218.473506 138.620153 202.993015 145.032382 
C 187.512524 151.444612 173.445631 160.843809 161.597376 172.692064 
C 149.749122 184.540318 140.349924 198.607212 133.937695 214.087702 
C 127.525466 229.568193 124.224906 246.161225 124.224906 262.917188 
C 124.224906 279.67315 127.525466 296.266182 133.937695 311.746673 
C 140.349924 327.227163 149.749122 341.294057 161.597376 353.142311 
C 173.445631 364.990566 187.512524 374.389763 202.993015 380.801993 
C 218.473506 387.214222 235.066538 390.514781 251.8225 390.514781 
C 268.578462 390.514781 285.171494 387.214222 300.651985 380.801993 
C 316.132476 374.389763 330.199369 364.990566 342.047624 353.142311 
C 353.895878 341.294057 363.295076 327.227163 369.707305 311.746673 
C 376.119534 296.266182 379.420094 279.67315 379.420094 262.917188 
C 379.420094 246.161225 376.119534 229.568193 369.707305 214.087702 
C 363.295076 198.607212 353.895878 184.540318 342.047624 172.692064 
C 330.199369 160.843809 316.132476 151.444612 300.651985 145.032382 
C 285.171494 138.620153 268.578462 135.319594 251.8225 135.319594 
" clip-path="url(#p4acb2eeba8)" style="fill: none; stroke: #b0b0b0; stroke-width: 0.8; stroke-linecap: square"/>
     </g>
     <g id="text_13">
      <!-- −15 -->
      <g transform="translate(202.993015 142.952695)scale(0.1 -0.1)">
       <use xlink:href="#DejaVuSans-2212"/>
       <use xlink:href="#DejaVuSans-31" x="83.789062"/>
       <use xlink:href="#DejaVuSans-35" x="147.412109"/>
      </g>
     </g>
    </g>
    <g id="ytick_6">
     <g id="line2d_14">
      <path d="M 251.8225 103.932125 
C 230.944773 103.932125 210.270055 108.044582 190.981551 116.034142 
C 171.693046 124.023703 154.165867 135.734989 139.403084 150.497772 
C 124.640302 165.260554 112.929015 182.787733 104.939455 202.076238 
C 96.949895 221.364743 92.837438 242.03946 92.837438 262.917188 
C 92.837438 283.794915 96.949895 304.469632 104.939455 323.758137 
C 112.929015 343.046642 124.640302 360.573821 139.403084 375.336603 
C 154.165867 390.099386 171.693046 401.810672 190.981551 409.800233 
C 210.270055 417.789793 230.944773 421.90225 251.8225 421.90225 
C 272.700227 421.90225 293.374945 417.789793 312.663449 409.800233 
C 331.951954 401.810672 349.479133 390.099386 364.241916 375.336603 
C 379.004698 360.573821 390.715985 343.046642 398.705545 323.758137 
C 406.695105 304.469632 410.807562 283.794915 410.807562 262.917188 
C 410.807562 242.03946 406.695105 221.364743 398.705545 202.076238 
C 390.715985 182.787733 379.004698 165.260554 364.241916 150.497772 
C 349.479133 135.734989 331.951954 124.023703 312.663449 116.034142 
C 293.374945 108.044582 272.700227 103.932125 251.8225 103.932125 
" clip-path="url(#p4acb2eeba8)" style="fill: none; stroke: #b0b0b0; stroke-width: 0.8; stroke-linecap: square"/>
     </g>
     <g id="text_14">
      <!-- −10 -->
      <g transform="translate(190.981551 113.954455)scale(0.1 -0.1)">
       <use xlink:href="#DejaVuSans-2212"/>
       <use xlink:href="#DejaVuSans-31" x="83.789062"/>
       <use xlink:href="#DejaVuSans-30" x="147.412109"/>
      </g>
     </g>
    </g>
    <g id="ytick_7">
     <g id="line2d_15">
      <path d="M 251.8225 72.544656 
C 226.823008 72.544656 202.066605 77.469011 178.970086 87.035902 
C 155.873568 96.602794 134.886102 110.62617 117.208792 128.30348 
C 99.531482 145.98079 85.508106 166.968255 75.941215 190.064774 
C 66.374324 213.161293 61.449969 237.917696 61.449969 262.917188 
C 61.449969 287.916679 66.374324 312.673082 75.941215 335.769601 
C 85.508106 358.86612 99.531482 379.853585 117.208792 397.530895 
C 134.886102 415.208205 155.873568 429.231581 178.970086 438.798473 
C 202.066605 448.365364 226.823008 453.289719 251.8225 453.289719 
C 276.821992 453.289719 301.578395 448.365364 324.674914 438.798473 
C 347.771432 429.231581 368.758898 415.208205 386.436208 397.530895 
C 404.113518 379.853585 418.136894 358.86612 427.703785 335.769601 
C 437.270676 312.673082 442.195031 287.916679 442.195031 262.917188 
C 442.195031 237.917696 437.270676 213.161293 427.703785 190.064774 
C 418.136894 166.968255 404.113518 145.98079 386.436208 128.30348 
C 368.758898 110.62617 347.771432 96.602794 324.674914 87.035902 
C 301.578395 77.469011 276.821992 72.544656 251.8225 72.544656 
" clip-path="url(#p4acb2eeba8)" style="fill: none; stroke: #b0b0b0; stroke-width: 0.8; stroke-linecap: square"/>
     </g>
     <g id="text_15">
      <!-- −5 -->
      <g transform="translate(178.970086 84.956215)scale(0.1 -0.1)">
       <use xlink:href="#DejaVuSans-2212"/>
       <use xlink:href="#DejaVuSans-35" x="83.789062"/>
      </g>
     </g>
    </g>
    <g id="ytick_8">
     <g id="line2d_16">
      <path d="M 251.8225 41.157188 
C 222.701244 41.157188 193.863155 46.89344 166.958622 58.037662 
C 140.054089 69.181885 115.606338 85.51735 95.0145 106.109188 
C 74.422662 126.701026 58.087197 151.148777 46.942975 178.05331 
C 35.798753 204.957842 30.0625 233.795931 30.0625 262.917188 
C 30.0625 292.038444 35.798753 320.876533 46.942975 347.781065 
C 58.087197 374.685598 74.422662 399.133349 95.0145 419.725187 
C 115.606338 440.317025 140.054089 456.65249 166.958622 467.796713 
C 193.863155 478.940935 222.701244 484.677188 251.8225 484.677188 
C 280.943756 484.677188 309.781845 478.940935 336.686378 467.796713 
C 363.590911 456.65249 388.038662 440.317025 408.6305 419.725187 
C 429.222338 399.133349 445.557803 374.685598 456.702025 347.781065 
C 467.846247 320.876533 473.5825 292.038444 473.5825 262.917188 
C 473.5825 233.795931 467.846247 204.957842 456.702025 178.05331 
C 445.557803 151.148777 429.222338 126.701026 408.6305 106.109188 
C 388.038662 85.51735 363.590911 69.181885 336.686378 58.037662 
C 309.781845 46.89344 280.943756 41.157188 251.8225 41.157188 
" clip-path="url(#p4acb2eeba8)" style="fill: none; stroke: #b0b0b0; stroke-width: 0.8; stroke-linecap: square"/>
     </g>
     <g id="text_16">
      <!-- 0 -->
      <g transform="translate(166.958622 55.957975)scale(0.1 -0.1)">
       <use xlink:href="#DejaVuSans-30"/>
      </g>
     </g>
    </g>
   </g>
   <g id="line2d_17">
    <path d="M 251.8225 422.147072 
L 254.582929 421.062086 
L 257.278765 419.164186 
L 259.841537 415.929525 
L 262.248011 412.008948 
L 264.277788 405.281779 
L 265.802477 395.927788 
L 267.032295 386.791026 
L 267.123926 371.792489 
L 265.890081 351.736398 
L 264.15147 332.838252 
L 265.702872 334.325513 
L 271.320611 354.648588 
L 276.758153 370.925369 
L 282.835425 387.303235 
L 287.844823 397.354328 
L 292.685889 405.424761 
L 297.782156 413.244448 
L 301.999106 417.344903 
L 306.225545 420.915102 
L 310.494799 424.118006 
L 314.392537 425.917706 
L 318.683393 428.403705 
L 323.270958 431.239206 
L 327.767971 433.493509 
L 332.823923 436.625299 
L 337.601657 438.790522 
L 342.125715 440.147226 
L 347.04994 442.013954 
L 351.658453 443.026015 
L 356.092299 443.517777 
L 360.534525 443.84438 
L 364.420733 443.112028 
L 368.068101 441.919715 
L 371.830852 440.836887 
L 375.4866 439.527825 
L 383.070934 437.089742 
L 386.48102 435.272234 
L 393.188833 431.391022 
L 402.934019 424.964452 
L 405.86994 422.437982 
L 408.488456 419.583144 
L 413.16274 413.369396 
L 421.742638 400.515802 
L 427.822369 390.788577 
L 434.462969 381.525295 
L 436.382706 378.243204 
L 437.888416 374.716869 
L 439.568502 366.986496 
L 439.84301 362.889466 
L 439.690972 358.640955 
L 440.052196 354.722944 
L 439.606043 350.482092 
L 438.662646 346.10378 
L 437.947964 341.92276 
L 436.044855 337.34785 
L 433.635369 332.708609 
L 431.770068 328.412746 
L 425.784878 319.44099 
L 423.521142 315.41073 
L 420.887091 311.395679 
L 419.554832 307.86093 
L 418.857907 304.563792 
L 416.212254 297.859308 
L 414.899095 294.616067 
L 413.121547 291.358562 
L 410.964463 288.122798 
L 408.079214 284.877637 
L 403.890266 281.588761 
L 397.37643 275.651506 
L 393.731514 272.840432 
L 388.987082 270.105679 
L 383.815491 267.526484 
L 377.141106 265.104632 
L 368.089217 262.917188 
L 358.62532 261.052937 
L 347.039239 259.592146 
L 338.998947 258.348463 
L 332.731404 257.259486 
L 329.61908 254.740437 
L 330.934973 253.203397 
L 333.637805 251.418796 
L 339.72408 248.994945 
L 348.363793 245.894353 
L 353.56097 243.141232 
L 360.003806 239.922541 
L 366.271463 236.494562 
L 371.469729 233.085783 
L 377.994963 229.109378 
L 383.039871 225.291212 
L 386.86562 221.630362 
L 391.39623 217.566934 
L 395.029181 213.607173 
L 397.768725 209.797106 
L 400.921805 205.683327 
L 403.20621 201.754199 
L 405.05695 197.873022 
L 407.281952 193.70218 
L 409.860923 185.836699 
L 411.545548 181.53423 
L 412.312429 177.583178 
L 414.651272 168.907952 
L 415.476864 160.654591 
L 415.488813 156.631041 
L 414.857964 152.948379 
L 414.384588 149.089988 
L 413.632763 145.35515 
L 412.333459 141.963504 
L 410.370787 134.527316 
L 409.159063 130.896135 
L 408.114927 127.054253 
L 406.606355 123.549179 
L 404.862089 120.205462 
L 403.273826 116.662342 
L 401.190973 113.548714 
L 398.90152 110.612404 
L 390.864844 102.967268 
L 388.088472 100.521726 
L 385.178219 98.236589 
L 379.474383 93.517418 
L 376.314016 91.569316 
L 373.081384 89.741554 
L 369.99846 87.714121 
L 366.847529 85.794175 
L 357.005674 80.734585 
L 343.688798 74.563364 
L 340.268195 73.244784 
L 336.752987 72.16019 
L 332.991453 71.695119 
L 329.216167 71.36114 
L 325.424833 71.176555 
L 321.463972 71.578815 
L 317.658294 71.716159 
L 313.760431 72.291838 
L 309.890036 72.986836 
L 306.185782 73.329894 
L 302.38945 74.198759 
L 294.788214 76.812232 
L 283.559172 82.929578 
L 279.869084 85.838024 
L 272.924587 91.054481 
L 269.519063 94.54564 
L 266.397329 96.326127 
L 263.396174 97.405934 
L 260.468389 97.943807 
L 257.572334 98.263472 
L 254.693035 98.464369 
L 251.8225 98.351433 
L 248.940571 97.811609 
L 246.048786 97.579642 
L 243.185811 98.119336 
L 240.359613 98.990271 
L 237.594545 100.290913 
L 234.980936 102.680406 
L 232.45857 105.210636 
L 230.187052 108.972974 
L 226.002757 116.48615 
L 224.757918 123.681983 
L 224.163196 132.790394 
L 224.064001 142.681919 
L 226.346621 160.739019 
L 230.776372 189.520616 
L 226.220675 179.17739 
L 219.302429 162.8307 
L 212.714896 149.340457 
L 205.345327 135.222204 
L 199.704349 127.144762 
L 194.170436 120.223321 
L 189.012847 114.946918 
L 184.966729 112.756668 
L 181.143836 111.346303 
L 177.279237 110.080849 
L 173.48041 109.162178 
L 169.75683 108.57411 
L 166.488297 108.97021 
L 163.651334 110.200248 
L 161.070614 111.880685 
L 158.601507 113.732414 
L 156.48389 116.108602 
L 154.564596 118.726415 
L 150.451385 123.391818 
L 148.436005 125.718675 
L 146.31625 127.875345 
L 144.062426 129.844578 
L 138.27721 132.298273 
L 134.973174 133.142864 
L 131.240507 133.608831 
L 127.515126 134.193134 
L 123.16574 134.260428 
L 118.849219 134.506382 
L 114.971018 135.301116 
L 111.164529 136.268181 
L 107.904905 137.811531 
L 105.022104 139.737029 
L 101.875059 141.492144 
L 98.853699 143.404862 
L 96.034191 145.522276 
L 93.282855 147.731393 
L 91.080759 150.364609 
L 89.130519 153.180061 
L 86.049337 159.330619 
L 84.686457 162.491722 
L 83.562695 165.772344 
L 82.27175 168.933672 
L 81.233775 172.213553 
L 79.740706 178.987289 
L 78.889186 185.922315 
L 78.39232 189.300444 
L 78.292203 192.806396 
L 78.683238 196.455252 
L 79.578914 200.225649 
L 81.502515 204.271313 
L 82.684085 207.960785 
L 83.76564 214.727658 
L 84.084105 217.97182 
L 84.665273 221.24021 
L 85.03989 224.412388 
L 84.295045 227.308128 
L 82.811746 230.064825 
L 81.441912 232.874493 
L 80.937344 235.851638 
L 80.925552 241.933681 
L 80.79139 244.941093 
L 80.997748 247.971958 
L 81.85882 251.032169 
L 83.231969 254.081732 
L 85.39961 257.105572 
L 87.344575 260.046215 
L 90.451461 265.733929 
L 91.604269 268.512131 
L 93.036514 271.238808 
L 98.038824 276.371516 
L 100.681923 278.802702 
L 103.761076 281.096844 
L 106.351242 283.361839 
L 109.117287 285.519473 
L 115.501997 289.415209 
L 119.460632 291.051571 
L 123.79468 292.474739 
L 127.546091 293.902776 
L 131.816711 295.072642 
L 135.226272 296.350618 
L 137.394359 297.901381 
L 138.60743 299.702994 
L 138.560351 301.916473 
L 137.636031 304.477663 
L 132.28227 313.659004 
L 126.786705 321.222336 
L 124.832961 324.854124 
L 122.057102 329.03596 
L 119.601113 336.208699 
L 118.035345 340.159237 
L 117.423624 343.672179 
L 116.266185 347.622174 
L 114.86426 351.858909 
L 114.516988 355.530925 
L 113.840233 359.533411 
L 113.648038 363.306811 
L 114.654068 366.281015 
L 115.207597 369.652448 
L 116.19842 372.743402 
L 117.414482 375.698906 
L 118.886858 378.476378 
L 120.07018 381.547509 
L 121.545428 384.402523 
L 123.391964 386.941115 
L 125.340781 389.398907 
L 127.528209 391.627694 
L 129.986103 393.570727 
L 132.133661 395.84511 
L 138.18005 403.253926 
L 140.148011 405.854015 
L 144.610403 410.48198 
L 146.201119 413.760152 
L 147.649246 417.360388 
L 149.355341 420.702776 
L 151.003633 424.261101 
L 154.928756 430.742075 
L 156.691627 434.537826 
L 158.805389 437.85693 
L 161.285591 440.605876 
L 163.737274 443.518664 
L 171.811275 451.411822 
L 174.852119 453.425565 
L 178.112184 454.939126 
L 181.597036 455.860065 
L 185.158987 456.522088 
L 188.870027 456.664978 
L 196.386425 456.245756 
L 200.326201 455.103991 
L 208.132363 452.15996 
L 219.702122 445.080905 
L 227.116143 438.712052 
L 230.583472 435.89519 
L 234.028823 432.212714 
L 237.207184 429.971015 
L 240.255394 428.334508 
L 243.26696 426.166623 
L 249.013427 423.848869 
L 249.013427 423.848869 
" clip-path="url(#p4acb2eeba8)" style="fill: none; stroke: #ff0000; stroke-width: 1.5; stroke-linecap: square"/>
   </g>
   <g id="line2d_18">
    <path d="M 251.8225 99.832922 
L 249.038954 103.44794 
L 246.388143 107.297556 
L 243.877384 111.315351 
L 237.129258 123.120332 
L 235.02832 126.139565 
L 232.888403 128.194088 
L 230.618606 129.041069 
L 228.132764 128.566021 
L 225.396347 126.966414 
L 222.414276 124.562372 
L 215.822285 118.528213 
L 212.313496 115.467575 
L 208.727009 112.625349 
L 205.097499 110.086594 
L 201.453848 107.898417 
L 197.822074 106.088564 
L 194.223715 104.665827 
L 190.676493 103.626394 
L 187.195618 102.960042 
L 183.79081 102.644569 
L 180.478051 102.674932 
L 177.265174 103.028486 
L 174.158614 103.682624 
L 171.171972 104.631615 
L 168.303908 105.84156 
L 165.563107 107.301122 
L 162.957671 108.998788 
L 160.478948 110.895987 
L 158.135788 112.987108 
L 155.923179 115.245183 
L 153.841468 117.654334 
L 151.882902 120.18865 
L 150.041815 122.828093 
L 148.311335 125.553232 
L 145.133026 131.16666 
L 142.255591 136.874877 
L 134.308598 153.333701 
L 131.579115 158.391208 
L 128.721604 163.232047 
L 125.728734 167.898719 
L 121.048357 174.708914 
L 111.485821 188.298852 
L 108.408592 192.969551 
L 105.458402 197.751693 
L 102.67382 202.657209 
L 100.083541 207.688723 
L 97.711208 212.843393 
L 95.568759 218.112148 
L 93.667808 223.484794 
L 92.001141 228.946109 
L 90.566728 234.483444 
L 89.361817 240.084827 
L 88.37052 245.737692 
L 87.594998 251.433282 
L 87.030764 257.162533 
L 86.679216 262.917188 
L 86.553965 268.688492 
L 86.668192 274.465902 
L 87.040738 280.236449 
L 87.689605 285.984562 
L 88.656451 291.687764 
L 89.956416 297.322886 
L 91.633406 302.856814 
L 92.61558 305.576553 
L 94.903729 310.89207 
L 96.218645 313.475945 
L 97.641104 316.0061 
L 99.181007 318.474147 
L 100.84196 320.873187 
L 102.627257 323.195978 
L 104.534089 325.437409 
L 106.565214 327.589898 
L 108.717356 329.648212 
L 110.987066 331.607218 
L 113.370726 333.46189 
L 115.859009 335.210258 
L 118.437144 336.853897 
L 123.778423 339.853831 
L 131.644267 343.978429 
L 134.054307 345.379364 
L 136.171625 346.942467 
L 137.956488 348.721382 
L 139.322918 350.811494 
L 140.288596 353.235562 
L 140.823912 356.056062 
L 140.931305 359.313433 
L 140.727185 362.947858 
L 139.743136 371.150971 
L 138.591339 380.171487 
L 138.137585 384.829333 
L 137.83789 389.509921 
L 137.717107 394.180427 
L 137.802008 398.801519 
L 138.104989 403.346618 
L 138.62914 407.798081 
L 139.384181 412.127877 
L 140.359732 416.332526 
L 141.559917 420.388476 
L 142.976997 424.287282 
L 144.602975 428.020777 
L 146.429606 431.581074 
L 148.448403 434.960577 
L 150.654411 438.145458 
L 153.034994 441.134566 
L 155.58273 443.917871 
L 158.287473 446.490015 
L 161.139507 448.844876 
L 164.128926 450.976663 
L 167.245234 452.880837 
L 170.478569 454.55148 
L 173.818398 455.984116 
L 177.254189 457.17428 
L 180.775282 458.117815 
L 184.370916 458.810812 
L 188.030265 459.2495 
L 191.742307 459.430645 
L 195.496007 459.351014 
L 199.280522 459.00652 
L 203.085257 458.391592 
L 206.898163 457.50587 
L 210.708257 456.344493 
L 214.50473 454.900469 
L 218.277393 453.160942 
L 222.014178 451.119523 
L 225.702564 448.77019 
L 229.332641 446.082388 
L 232.891013 443.038258 
L 236.364073 439.607822 
L 239.736488 435.755218 
L 242.991644 431.419954 
L 246.108376 426.548295 
L 249.062399 421.043256 
L 251.8225 414.821237 
L 254.35023 407.73072 
L 256.598956 399.696989 
L 258.515555 390.628282 
L 260.069042 380.84823 
L 261.310758 371.368473 
L 262.545872 364.943258 
L 264.393692 365.301333 
L 267.183334 372.215204 
L 270.708835 382.160816 
L 274.629275 392.260833 
L 278.763708 401.517689 
L 283.013578 409.659674 
L 287.330762 416.720368 
L 291.695306 422.838277 
L 296.090353 428.127065 
L 300.503438 432.687793 
L 304.927218 436.614894 
L 309.351146 439.972155 
L 313.769034 442.822984 
L 318.170429 445.206625 
L 322.552027 447.173904 
L 326.904553 448.751791 
L 331.22322 449.973562 
L 335.500345 450.860704 
L 339.730992 451.437557 
L 343.909223 451.722949 
L 348.0299 451.734841 
L 352.088016 451.489196 
L 356.077455 450.998105 
L 359.9969 450.280745 
L 363.838803 449.343622 
L 367.600929 448.201405 
L 371.278512 446.863315 
L 374.870798 445.343792 
L 378.367098 443.641603 
L 381.771257 441.776307 
L 385.073216 439.74686 
L 388.278157 437.572464 
L 391.376639 435.252197 
L 394.36708 432.795203 
L 397.248374 430.210519 
L 400.019882 427.507055 
L 402.672863 424.684397 
L 405.211472 421.756118 
L 407.627318 418.722005 
L 409.92538 415.595364 
L 412.097612 412.376148 
L 414.1498 409.077345 
L 416.0695 405.694926 
L 417.867871 402.245797 
L 419.537543 398.730151 
L 421.075945 395.152471 
L 422.488662 391.523365 
L 423.769139 387.843733 
L 424.919458 384.120982 
L 425.938913 380.360191 
L 426.827714 376.566902 
L 427.585962 372.746388 
L 428.213626 368.903669 
L 428.710525 365.043536 
L 429.077956 361.171491 
L 429.317427 357.292914 
L 429.421696 353.408498 
L 429.399771 349.52741 
L 429.251441 345.653662 
L 428.970875 341.788725 
L 428.557961 337.93694 
L 428.018536 334.105007 
L 427.347004 330.294732 
L 426.54363 326.510478 
L 425.60881 322.756613 
L 424.531125 319.033621 
L 423.323036 315.350163 
L 421.973267 311.707135 
L 420.476498 308.10789 
L 418.827452 304.556199 
L 417.027027 301.057658 
L 415.064015 297.615243 
L 412.933367 294.233968 
L 410.617787 290.917081 
L 408.112368 287.671071 
L 405.399945 284.50109 
L 402.463435 281.413569 
L 399.285888 278.416214 
L 395.856804 275.518556 
L 392.109604 272.727017 
L 388.059286 270.057055 
L 383.583365 267.518378 
L 378.685135 265.131583 
L 373.305815 262.917188 
L 367.324601 260.901091 
L 360.558998 259.120025 
L 352.890809 257.620422 
L 344.015892 256.470398 
L 333.508352 255.770601 
L 320.760114 255.671552 
L 304.797177 256.412715 
L 284.285793 258.354769 
L 262.252489 261.26524 
L 263.273031 260.89815 
L 285.481442 256.374552 
L 305.379559 251.533283 
L 320.708895 247.01351 
L 332.724717 242.745999 
L 342.425924 238.640073 
L 350.496814 234.622783 
L 357.311881 230.665847 
L 363.180822 226.734675 
L 368.230457 222.834713 
L 372.704237 218.919833 
L 376.547797 215.039632 
L 379.942108 211.153506 
L 382.948549 207.257482 
L 385.575825 203.36637 
L 387.855793 199.483821 
L 389.836847 195.603093 
L 391.538357 191.728403 
L 392.979499 187.86268 
L 394.179201 184.007579 
L 395.150658 180.166637 
L 395.906928 176.342529 
L 396.460905 172.537081 
L 396.820012 168.754702 
L 396.996881 164.995831 
L 396.988451 161.270894 
L 396.812442 157.575828 
L 396.470969 153.916748 
L 395.971277 150.29582 
L 395.315647 146.718728 
L 394.50653 143.191071 
L 393.556022 139.710116 
L 392.466476 136.280783 
L 391.240389 132.907903 
L 389.880404 129.596219 
L 388.389305 126.350382 
L 386.778736 123.165914 
L 385.051278 120.046815 
L 383.205428 117.001663 
L 381.244247 114.034499 
L 379.178982 111.139643 
L 377.008471 108.325387 
L 374.735859 105.595262 
L 372.368171 102.947679 
L 369.904802 100.390842 
L 367.352794 97.922829 
L 364.711903 95.551764 
L 361.986782 93.279069 
L 359.181726 91.106511 
L 356.299101 89.038924 
L 353.341815 87.080576 
L 350.313884 85.234027 
L 347.217335 83.505596 
L 344.055968 81.898815 
L 340.83318 80.418248 
L 337.552601 79.068393 
L 334.218084 77.853675 
L 330.833714 76.778433 
L 327.403091 75.848661 
L 323.933313 75.062096 
L 320.42481 74.43389 
L 316.885755 73.959773 
L 313.320084 73.647085 
L 309.735865 73.491104 
L 306.135603 73.504889 
L 302.525928 73.689417 
L 298.913512 74.045455 
L 295.303642 74.579672 
L 291.704668 75.28634 
L 288.12094 76.177903 
L 284.560951 77.248205 
L 281.028845 78.515579 
L 277.53269 79.979677 
L 274.079788 81.64612 
L 270.677215 83.52656 
L 267.333451 85.626207 
L 264.056521 87.962533 
L 260.856393 90.540247 
L 257.743218 93.37001 
L 254.727874 96.46843 
L 254.727874 96.46843 
" clip-path="url(#p4acb2eeba8)" style="fill: none; stroke-dasharray: 5.55,2.4; stroke-dashoffset: 0; stroke: #0000ff; stroke-width: 1.5"/>
   </g>
   <g id="patch_3">
    <path d="M 251.8225 41.157188 
C 222.701244 41.157188 193.863155 46.89344 166.958622 58.037662 
C 140.054089 69.181885 115.606338 85.51735 95.0145 106.109188 
C 74.422662 126.701026 58.087197 151.148777 46.942975 178.05331 
C 35.798753 204.957842 30.0625 233.795931 30.0625 262.917188 
C 30.0625 292.038444 35.798753 320.876533 46.942975 347.781065 
C 58.087197 374.685598 74.422662 399.133349 95.0145 419.725187 
C 115.606338 440.317025 140.054089 456.65249 166.958622 467.796713 
C 193.863155 478.940935 222.701244 484.677188 251.8225 484.677188 
C 280.943756 484.677188 309.781845 478.940935 336.686378 467.796713 
C 363.590911 456.65249 388.038662 440.317025 408.6305 419.725187 
C 429.222338 399.133349 445.557803 374.685598 456.702025 347.781065 
C 467.846247 320.876533 473.5825 292.038444 473.5825 262.917188 
C 473.5825 233.795931 467.846247 204.957842 456.702025 178.05331 
C 445.557803 151.148777 429.222338 126.701026 408.6305 106.109188 
C 388.038662 85.51735 363.590911 69.181885 336.686378 58.037662 
C 309.781845 46.89344 280.943756 41.157188 251.8225 41.157188 
" style="fill: none; stroke: #000000; stroke-width: 0.8; stroke-linejoin: miter; stroke-linecap: square"/>
   </g>
   <g id="text_17">
    <g id="patch_4">
     <path d="M 384.8785 509.853188 
L 485.369125 509.853188 
Q 488.369125 509.853188 488.369125 506.853188 
L 488.369125 473.945063 
Q 488.369125 470.945063 485.369125 470.945063 
L 384.8785 470.945063 
Q 381.8785 470.945063 381.8785 473.945063 
L 381.8785 506.853188 
Q 381.8785 509.853188 384.8785 509.853188 
z
" style="fill: #ffffff; stroke: #808080; stroke-linejoin: miter"/>
    </g>
    <!-- G_cst: 2.2 dBi -->
    <g transform="translate(384.8785 481.821625)scale(0.1 -0.1)">
     <defs>
      <path id="DejaVuSans-47" d="M 3809 666 
L 3809 1919 
L 2778 1919 
L 2778 2438 
L 4434 2438 
L 4434 434 
Q 4069 175 3628 42 
Q 3188 -91 2688 -91 
Q 1594 -91 976 548 
Q 359 1188 359 2328 
Q 359 3472 976 4111 
Q 1594 4750 2688 4750 
Q 3144 4750 3555 4637 
Q 3966 4525 4313 4306 
L 4313 3634 
Q 3963 3931 3569 4081 
Q 3175 4231 2741 4231 
Q 1884 4231 1454 3753 
Q 1025 3275 1025 2328 
Q 1025 1384 1454 906 
Q 1884 428 2741 428 
Q 3075 428 3337 486 
Q 3600 544 3809 666 
z
" transform="scale(0.015625)"/>
      <path id="DejaVuSans-5f" d="M 3263 -1063 
L 3263 -1509 
L -63 -1509 
L -63 -1063 
L 3263 -1063 
z
" transform="scale(0.015625)"/>
      <path id="DejaVuSans-63" d="M 3122 3366 
L 3122 2828 
Q 2878 2963 2633 3030 
Q 2388 3097 2138 3097 
Q 1578 3097 1268 2742 
Q 959 2388 959 1747 
Q 959 1106 1268 751 
Q 1578 397 2138 397 
Q 2388 397 2633 464 
Q 2878 531 3122 666 
L 3122 134 
Q 2881 22 2623 -34 
Q 2366 -91 2075 -91 
Q 1284 -91 818 406 
Q 353 903 353 1747 
Q 353 2603 823 3093 
Q 1294 3584 2113 3584 
Q 2378 3584 2631 3529 
Q 2884 3475 3122 3366 
z
" transform="scale(0.015625)"/>
      <path id="DejaVuSans-73" d="M 2834 3397 
L 2834 2853 
Q 2591 2978 2328 3040 
Q 2066 3103 1784 3103 
Q 1356 3103 1142 2972 
Q 928 2841 928 2578 
Q 928 2378 1081 2264 
Q 1234 2150 1697 2047 
L 1894 2003 
Q 2506 1872 2764 1633 
Q 3022 1394 3022 966 
Q 3022 478 2636 193 
Q 2250 -91 1575 -91 
Q 1294 -91 989 -36 
Q 684 19 347 128 
L 347 722 
Q 666 556 975 473 
Q 1284 391 1588 391 
Q 1994 391 2212 530 
Q 2431 669 2431 922 
Q 2431 1156 2273 1281 
Q 2116 1406 1581 1522 
L 1381 1569 
Q 847 1681 609 1914 
Q 372 2147 372 2553 
Q 372 3047 722 3315 
Q 1072 3584 1716 3584 
Q 2034 3584 2315 3537 
Q 2597 3491 2834 3397 
z
" transform="scale(0.015625)"/>
      <path id="DejaVuSans-74" d="M 1172 4494 
L 1172 3500 
L 2356 3500 
L 2356 3053 
L 1172 3053 
L 1172 1153 
Q 1172 725 1289 603 
Q 1406 481 1766 481 
L 2356 481 
L 2356 0 
L 1766 0 
Q 1100 0 847 248 
Q 594 497 594 1153 
L 594 3053 
L 172 3053 
L 172 3500 
L 594 3500 
L 594 4494 
L 1172 4494 
z
" transform="scale(0.015625)"/>
      <path id="DejaVuSans-3a" d="M 750 794 
L 1409 794 
L 1409 0 
L 750 0 
L 750 794 
z
M 750 3309 
L 1409 3309 
L 1409 2516 
L 750 2516 
L 750 3309 
z
" transform="scale(0.015625)"/>
      <path id="DejaVuSans-20" transform="scale(0.015625)"/>
      <path id="DejaVuSans-2e" d="M 684 794 
L 1344 794 
L 1344 0 
L 684 0 
L 684 794 
z
" transform="scale(0.015625)"/>
      <path id="DejaVuSans-64" d="M 2906 2969 
L 2906 4863 
L 3481 4863 
L 3481 0 
L 2906 0 
L 2906 525 
Q 2725 213 2448 61 
Q 2172 -91 1784 -91 
Q 1150 -91 751 415 
Q 353 922 353 1747 
Q 353 2572 751 3078 
Q 1150 3584 1784 3584 
Q 2172 3584 2448 3432 
Q 2725 3281 2906 2969 
z
M 947 1747 
Q 947 1113 1208 752 
Q 1469 391 1925 391 
Q 2381 391 2643 752 
Q 2906 1113 2906 1747 
Q 2906 2381 2643 2742 
Q 2381 3103 1925 3103 
Q 1469 3103 1208 2742 
Q 947 2381 947 1747 
z
" transform="scale(0.015625)"/>
      <path id="DejaVuSans-42" d="M 1259 2228 
L 1259 519 
L 2272 519 
Q 2781 519 3026 730 
Q 3272 941 3272 1375 
Q 3272 1813 3026 2020 
Q 2781 2228 2272 2228 
L 1259 2228 
z
M 1259 4147 
L 1259 2741 
L 2194 2741 
Q 2656 2741 2882 2914 
Q 3109 3088 3109 3444 
Q 3109 3797 2882 3972 
Q 2656 4147 2194 4147 
L 1259 4147 
z
M 628 4666 
L 2241 4666 
Q 2963 4666 3353 4366 
Q 3744 4066 3744 3513 
Q 3744 3084 3544 2831 
Q 3344 2578 2956 2516 
Q 3422 2416 3680 2098 
Q 3938 1781 3938 1306 
Q 3938 681 3513 340 
Q 3088 0 2303 0 
L 628 0 
L 628 4666 
z
" transform="scale(0.015625)"/>
      <path id="DejaVuSans-69" d="M 603 3500 
L 1178 3500 
L 1178 0 
L 603 0 
L 603 3500 
z
M 603 4863 
L 1178 4863 
L 1178 4134 
L 603 4134 
L 603 4863 
z
" transform="scale(0.015625)"/>
     </defs>
     <use xlink:href="#DejaVuSans-47"/>
     <use xlink:href="#DejaVuSans-5f" x="77.490234"/>
     <use xlink:href="#DejaVuSans-63" x="127.490234"/>
     <use xlink:href="#DejaVuSans-73" x="182.470703"/>
     <use xlink:href="#DejaVuSans-74" x="234.570312"/>
     <use xlink:href="#DejaVuSans-3a" x="273.779297"/>
     <use xlink:href="#DejaVuSans-20" x="307.470703"/>
     <use xlink:href="#DejaVuSans-32" x="339.257812"/>
     <use xlink:href="#DejaVuSans-2e" x="402.880859"/>
     <use xlink:href="#DejaVuSans-32" x="434.667969"/>
     <use xlink:href="#DejaVuSans-20" x="498.291016"/>
     <use xlink:href="#DejaVuSans-64" x="530.078125"/>
     <use xlink:href="#DejaVuSans-42" x="593.554688"/>
     <use xlink:href="#DejaVuSans-69" x="662.158203"/>
    </g>
    <!-- G_inpe: -0.3 dBi -->
    <g transform="translate(384.8785 493.297563)scale(0.1 -0.1)">
     <defs>
      <path id="DejaVuSans-6e" d="M 3513 2113 
L 3513 0 
L 2938 0 
L 2938 2094 
Q 2938 2591 2744 2837 
Q 2550 3084 2163 3084 
Q 1697 3084 1428 2787 
Q 1159 2491 1159 1978 
L 1159 0 
L 581 0 
L 581 3500 
L 1159 3500 
L 1159 2956 
Q 1366 3272 1645 3428 
Q 1925 3584 2291 3584 
Q 2894 3584 3203 3211 
Q 3513 2838 3513 2113 
z
" transform="scale(0.015625)"/>
      <path id="DejaVuSans-70" d="M 1159 525 
L 1159 -1331 
L 581 -1331 
L 581 3500 
L 1159 3500 
L 1159 2969 
Q 1341 3281 1617 3432 
Q 1894 3584 2278 3584 
Q 2916 3584 3314 3078 
Q 3713 2572 3713 1747 
Q 3713 922 3314 415 
Q 2916 -91 2278 -91 
Q 1894 -91 1617 61 
Q 1341 213 1159 525 
z
M 3116 1747 
Q 3116 2381 2855 2742 
Q 2594 3103 2138 3103 
Q 1681 3103 1420 2742 
Q 1159 2381 1159 1747 
Q 1159 1113 1420 752 
Q 1681 391 2138 391 
Q 2594 391 2855 752 
Q 3116 1113 3116 1747 
z
" transform="scale(0.015625)"/>
      <path id="DejaVuSans-65" d="M 3597 1894 
L 3597 1613 
L 953 1613 
Q 991 1019 1311 708 
Q 1631 397 2203 397 
Q 2534 397 2845 478 
Q 3156 559 3463 722 
L 3463 178 
Q 3153 47 2828 -22 
Q 2503 -91 2169 -91 
Q 1331 -91 842 396 
Q 353 884 353 1716 
Q 353 2575 817 3079 
Q 1281 3584 2069 3584 
Q 2775 3584 3186 3129 
Q 3597 2675 3597 1894 
z
M 3022 2063 
Q 3016 2534 2758 2815 
Q 2500 3097 2075 3097 
Q 1594 3097 1305 2825 
Q 1016 2553 972 2059 
L 3022 2063 
z
" transform="scale(0.015625)"/>
      <path id="DejaVuSans-2d" d="M 313 2009 
L 1997 2009 
L 1997 1497 
L 313 1497 
L 313 2009 
z
" transform="scale(0.015625)"/>
     </defs>
     <use xlink:href="#DejaVuSans-47"/>
     <use xlink:href="#DejaVuSans-5f" x="77.490234"/>
     <use xlink:href="#DejaVuSans-69" x="127.490234"/>
     <use xlink:href="#DejaVuSans-6e" x="155.273438"/>
     <use xlink:href="#DejaVuSans-70" x="218.652344"/>
     <use xlink:href="#DejaVuSans-65" x="282.128906"/>
     <use xlink:href="#DejaVuSans-3a" x="343.652344"/>
     <use xlink:href="#DejaVuSans-20" x="377.34375"/>
     <use xlink:href="#DejaVuSans-2d" x="409.130859"/>
     <use xlink:href="#DejaVuSans-30" x="445.214844"/>
     <use xlink:href="#DejaVuSans-2e" x="508.837891"/>
     <use xlink:href="#DejaVuSans-33" x="540.625"/>
     <use xlink:href="#DejaVuSans-20" x="604.248047"/>
     <use xlink:href="#DejaVuSans-64" x="636.035156"/>
     <use xlink:href="#DejaVuSans-42" x="699.511719"/>
     <use xlink:href="#DejaVuSans-69" x="768.115234"/>
    </g>
    <!-- Pearson Coef: 0.364 -->
    <g transform="translate(384.8785 504.7735)scale(0.1 -0.1)">
     <defs>
      <path id="DejaVuSans-50" d="M 1259 4147 
L 1259 2394 
L 2053 2394 
Q 2494 2394 2734 2622 
Q 2975 2850 2975 3272 
Q 2975 3691 2734 3919 
Q 2494 4147 2053 4147 
L 1259 4147 
z
M 628 4666 
L 2053 4666 
Q 2838 4666 3239 4311 
Q 3641 3956 3641 3272 
Q 3641 2581 3239 2228 
Q 2838 1875 2053 1875 
L 1259 1875 
L 1259 0 
L 628 0 
L 628 4666 
z
" transform="scale(0.015625)"/>
      <path id="DejaVuSans-61" d="M 2194 1759 
Q 1497 1759 1228 1600 
Q 959 1441 959 1056 
Q 959 750 1161 570 
Q 1363 391 1709 391 
Q 2188 391 2477 730 
Q 2766 1069 2766 1631 
L 2766 1759 
L 2194 1759 
z
M 3341 1997 
L 3341 0 
L 2766 0 
L 2766 531 
Q 2569 213 2275 61 
Q 1981 -91 1556 -91 
Q 1019 -91 701 211 
Q 384 513 384 1019 
Q 384 1609 779 1909 
Q 1175 2209 1959 2209 
L 2766 2209 
L 2766 2266 
Q 2766 2663 2505 2880 
Q 2244 3097 1772 3097 
Q 1472 3097 1187 3025 
Q 903 2953 641 2809 
L 641 3341 
Q 956 3463 1253 3523 
Q 1550 3584 1831 3584 
Q 2591 3584 2966 3190 
Q 3341 2797 3341 1997 
z
" transform="scale(0.015625)"/>
      <path id="DejaVuSans-72" d="M 2631 2963 
Q 2534 3019 2420 3045 
Q 2306 3072 2169 3072 
Q 1681 3072 1420 2755 
Q 1159 2438 1159 1844 
L 1159 0 
L 581 0 
L 581 3500 
L 1159 3500 
L 1159 2956 
Q 1341 3275 1631 3429 
Q 1922 3584 2338 3584 
Q 2397 3584 2469 3576 
Q 2541 3569 2628 3553 
L 2631 2963 
z
" transform="scale(0.015625)"/>
      <path id="DejaVuSans-6f" d="M 1959 3097 
Q 1497 3097 1228 2736 
Q 959 2375 959 1747 
Q 959 1119 1226 758 
Q 1494 397 1959 397 
Q 2419 397 2687 759 
Q 2956 1122 2956 1747 
Q 2956 2369 2687 2733 
Q 2419 3097 1959 3097 
z
M 1959 3584 
Q 2709 3584 3137 3096 
Q 3566 2609 3566 1747 
Q 3566 888 3137 398 
Q 2709 -91 1959 -91 
Q 1206 -91 779 398 
Q 353 888 353 1747 
Q 353 2609 779 3096 
Q 1206 3584 1959 3584 
z
" transform="scale(0.015625)"/>
      <path id="DejaVuSans-43" d="M 4122 4306 
L 4122 3641 
Q 3803 3938 3442 4084 
Q 3081 4231 2675 4231 
Q 1875 4231 1450 3742 
Q 1025 3253 1025 2328 
Q 1025 1406 1450 917 
Q 1875 428 2675 428 
Q 3081 428 3442 575 
Q 3803 722 4122 1019 
L 4122 359 
Q 3791 134 3420 21 
Q 3050 -91 2638 -91 
Q 1578 -91 968 557 
Q 359 1206 359 2328 
Q 359 3453 968 4101 
Q 1578 4750 2638 4750 
Q 3056 4750 3426 4639 
Q 3797 4528 4122 4306 
z
" transform="scale(0.015625)"/>
      <path id="DejaVuSans-66" d="M 2375 4863 
L 2375 4384 
L 1825 4384 
Q 1516 4384 1395 4259 
Q 1275 4134 1275 3809 
L 1275 3500 
L 2222 3500 
L 2222 3053 
L 1275 3053 
L 1275 0 
L 697 0 
L 697 3053 
L 147 3053 
L 147 3500 
L 697 3500 
L 697 3744 
Q 697 4328 969 4595 
Q 1241 4863 1831 4863 
L 2375 4863 
z
" transform="scale(0.015625)"/>
      <path id="DejaVuSans-36" d="M 2113 2584 
Q 1688 2584 1439 2293 
Q 1191 2003 1191 1497 
Q 1191 994 1439 701 
Q 1688 409 2113 409 
Q 2538 409 2786 701 
Q 3034 994 3034 1497 
Q 3034 2003 2786 2293 
Q 2538 2584 2113 2584 
z
M 3366 4563 
L 3366 3988 
Q 3128 4100 2886 4159 
Q 2644 4219 2406 4219 
Q 1781 4219 1451 3797 
Q 1122 3375 1075 2522 
Q 1259 2794 1537 2939 
Q 1816 3084 2150 3084 
Q 2853 3084 3261 2657 
Q 3669 2231 3669 1497 
Q 3669 778 3244 343 
Q 2819 -91 2113 -91 
Q 1303 -91 875 529 
Q 447 1150 447 2328 
Q 447 3434 972 4092 
Q 1497 4750 2381 4750 
Q 2619 4750 2861 4703 
Q 3103 4656 3366 4563 
z
" transform="scale(0.015625)"/>
     </defs>
     <use xlink:href="#DejaVuSans-50"/>
     <use xlink:href="#DejaVuSans-65" x="56.677734"/>
     <use xlink:href="#DejaVuSans-61" x="118.201172"/>
     <use xlink:href="#DejaVuSans-72" x="179.480469"/>
     <use xlink:href="#DejaVuSans-73" x="220.59375"/>
     <use xlink:href="#DejaVuSans-6f" x="272.693359"/>
     <use xlink:href="#DejaVuSans-6e" x="333.875"/>
     <use xlink:href="#DejaVuSans-20" x="397.253906"/>
     <use xlink:href="#DejaVuSans-43" x="429.041016"/>
     <use xlink:href="#DejaVuSans-6f" x="498.865234"/>
     <use xlink:href="#DejaVuSans-65" x="560.046875"/>
     <use xlink:href="#DejaVuSans-66" x="621.570312"/>
     <use xlink:href="#DejaVuSans-3a" x="653.150391"/>
     <use xlink:href="#DejaVuSans-20" x="686.841797"/>
     <use xlink:href="#DejaVuSans-30" x="718.628906"/>
     <use xlink:href="#DejaVuSans-2e" x="782.251953"/>
     <use xlink:href="#DejaVuSans-33" x="814.039062"/>
     <use xlink:href="#DejaVuSans-36" x="877.662109"/>
     <use xlink:href="#DejaVuSans-34" x="941.285156"/>
    </g>
   </g>
   <g id="text_18">
    <g id="patch_5">
     <path d="M 52.2385 56.370938 
L 129.496 56.370938 
Q 133.096 56.370938 133.096 52.770938 
L 133.096 41.157188 
Q 133.096 37.557188 129.496 37.557188 
L 52.2385 37.557188 
Q 48.6385 37.557188 48.6385 41.157188 
L 48.6385 52.770938 
Q 48.6385 56.370938 52.2385 56.370938 
z
" style="fill: #ffffff; stroke: #808080; stroke-linejoin: miter"/>
    </g>
    <!-- Freq: 13 GHz -->
    <g transform="translate(52.2385 50.275313)scale(0.12 -0.12)">
     <defs>
      <path id="DejaVuSans-46" d="M 628 4666 
L 3309 4666 
L 3309 4134 
L 1259 4134 
L 1259 2759 
L 3109 2759 
L 3109 2228 
L 1259 2228 
L 1259 0 
L 628 0 
L 628 4666 
z
" transform="scale(0.015625)"/>
      <path id="DejaVuSans-71" d="M 947 1747 
Q 947 1113 1208 752 
Q 1469 391 1925 391 
Q 2381 391 2643 752 
Q 2906 1113 2906 1747 
Q 2906 2381 2643 2742 
Q 2381 3103 1925 3103 
Q 1469 3103 1208 2742 
Q 947 2381 947 1747 
z
M 2906 525 
Q 2725 213 2448 61 
Q 2172 -91 1784 -91 
Q 1150 -91 751 415 
Q 353 922 353 1747 
Q 353 2572 751 3078 
Q 1150 3584 1784 3584 
Q 2172 3584 2448 3432 
Q 2725 3281 2906 2969 
L 2906 3500 
L 3481 3500 
L 3481 -1331 
L 2906 -1331 
L 2906 525 
z
" transform="scale(0.015625)"/>
      <path id="DejaVuSans-48" d="M 628 4666 
L 1259 4666 
L 1259 2753 
L 3553 2753 
L 3553 4666 
L 4184 4666 
L 4184 0 
L 3553 0 
L 3553 2222 
L 1259 2222 
L 1259 0 
L 628 0 
L 628 4666 
z
" transform="scale(0.015625)"/>
      <path id="DejaVuSans-7a" d="M 353 3500 
L 3084 3500 
L 3084 2975 
L 922 459 
L 3084 459 
L 3084 0 
L 275 0 
L 275 525 
L 2438 3041 
L 353 3041 
L 353 3500 
z
" transform="scale(0.015625)"/>
     </defs>
     <use xlink:href="#DejaVuSans-46"/>
     <use xlink:href="#DejaVuSans-72" x="50.269531"/>
     <use xlink:href="#DejaVuSans-65" x="89.132812"/>
     <use xlink:href="#DejaVuSans-71" x="150.65625"/>
     <use xlink:href="#DejaVuSans-3a" x="214.132812"/>
     <use xlink:href="#DejaVuSans-20" x="247.824219"/>
     <use xlink:href="#DejaVuSans-31" x="279.611328"/>
     <use xlink:href="#DejaVuSans-33" x="343.234375"/>
     <use xlink:href="#DejaVuSans-20" x="406.857422"/>
     <use xlink:href="#DejaVuSans-47" x="438.644531"/>
     <use xlink:href="#DejaVuSans-48" x="516.134766"/>
     <use xlink:href="#DejaVuSans-7a" x="591.330078"/>
    </g>
   </g>
   <g id="text_19">
    <!-- Radiation Diagram - 4AVVF13 -->
    <g transform="translate(162.985937 16.318125)scale(0.12 -0.12)">
     <defs>
      <path id="DejaVuSans-52" d="M 2841 2188 
Q 3044 2119 3236 1894 
Q 3428 1669 3622 1275 
L 4263 0 
L 3584 0 
L 2988 1197 
Q 2756 1666 2539 1819 
Q 2322 1972 1947 1972 
L 1259 1972 
L 1259 0 
L 628 0 
L 628 4666 
L 2053 4666 
Q 2853 4666 3247 4331 
Q 3641 3997 3641 3322 
Q 3641 2881 3436 2590 
Q 3231 2300 2841 2188 
z
M 1259 4147 
L 1259 2491 
L 2053 2491 
Q 2509 2491 2742 2702 
Q 2975 2913 2975 3322 
Q 2975 3731 2742 3939 
Q 2509 4147 2053 4147 
L 1259 4147 
z
" transform="scale(0.015625)"/>
      <path id="DejaVuSans-44" d="M 1259 4147 
L 1259 519 
L 2022 519 
Q 2988 519 3436 956 
Q 3884 1394 3884 2338 
Q 3884 3275 3436 3711 
Q 2988 4147 2022 4147 
L 1259 4147 
z
M 628 4666 
L 1925 4666 
Q 3281 4666 3915 4102 
Q 4550 3538 4550 2338 
Q 4550 1131 3912 565 
Q 3275 0 1925 0 
L 628 0 
L 628 4666 
z
" transform="scale(0.015625)"/>
      <path id="DejaVuSans-67" d="M 2906 1791 
Q 2906 2416 2648 2759 
Q 2391 3103 1925 3103 
Q 1463 3103 1205 2759 
Q 947 2416 947 1791 
Q 947 1169 1205 825 
Q 1463 481 1925 481 
Q 2391 481 2648 825 
Q 2906 1169 2906 1791 
z
M 3481 434 
Q 3481 -459 3084 -895 
Q 2688 -1331 1869 -1331 
Q 1566 -1331 1297 -1286 
Q 1028 -1241 775 -1147 
L 775 -588 
Q 1028 -725 1275 -790 
Q 1522 -856 1778 -856 
Q 2344 -856 2625 -561 
Q 2906 -266 2906 331 
L 2906 616 
Q 2728 306 2450 153 
Q 2172 0 1784 0 
Q 1141 0 747 490 
Q 353 981 353 1791 
Q 353 2603 747 3093 
Q 1141 3584 1784 3584 
Q 2172 3584 2450 3431 
Q 2728 3278 2906 2969 
L 2906 3500 
L 3481 3500 
L 3481 434 
z
" transform="scale(0.015625)"/>
      <path id="DejaVuSans-6d" d="M 3328 2828 
Q 3544 3216 3844 3400 
Q 4144 3584 4550 3584 
Q 5097 3584 5394 3201 
Q 5691 2819 5691 2113 
L 5691 0 
L 5113 0 
L 5113 2094 
Q 5113 2597 4934 2840 
Q 4756 3084 4391 3084 
Q 3944 3084 3684 2787 
Q 3425 2491 3425 1978 
L 3425 0 
L 2847 0 
L 2847 2094 
Q 2847 2600 2669 2842 
Q 2491 3084 2119 3084 
Q 1678 3084 1418 2786 
Q 1159 2488 1159 1978 
L 1159 0 
L 581 0 
L 581 3500 
L 1159 3500 
L 1159 2956 
Q 1356 3278 1631 3431 
Q 1906 3584 2284 3584 
Q 2666 3584 2933 3390 
Q 3200 3197 3328 2828 
z
" transform="scale(0.015625)"/>
      <path id="DejaVuSans-41" d="M 2188 4044 
L 1331 1722 
L 3047 1722 
L 2188 4044 
z
M 1831 4666 
L 2547 4666 
L 4325 0 
L 3669 0 
L 3244 1197 
L 1141 1197 
L 716 0 
L 50 0 
L 1831 4666 
z
" transform="scale(0.015625)"/>
      <path id="DejaVuSans-56" d="M 1831 0 
L 50 4666 
L 709 4666 
L 2188 738 
L 3669 4666 
L 4325 4666 
L 2547 0 
L 1831 0 
z
" transform="scale(0.015625)"/>
     </defs>
     <use xlink:href="#DejaVuSans-52"/>
     <use xlink:href="#DejaVuSans-61" x="67.232422"/>
     <use xlink:href="#DejaVuSans-64" x="128.511719"/>
     <use xlink:href="#DejaVuSans-69" x="191.988281"/>
     <use xlink:href="#DejaVuSans-61" x="219.771484"/>
     <use xlink:href="#DejaVuSans-74" x="281.050781"/>
     <use xlink:href="#DejaVuSans-69" x="320.259766"/>
     <use xlink:href="#DejaVuSans-6f" x="348.042969"/>
     <use xlink:href="#DejaVuSans-6e" x="409.224609"/>
     <use xlink:href="#DejaVuSans-20" x="472.603516"/>
     <use xlink:href="#DejaVuSans-44" x="504.390625"/>
     <use xlink:href="#DejaVuSans-69" x="581.392578"/>
     <use xlink:href="#DejaVuSans-61" x="609.175781"/>
     <use xlink:href="#DejaVuSans-67" x="670.455078"/>
     <use xlink:href="#DejaVuSans-72" x="733.931641"/>
     <use xlink:href="#DejaVuSans-61" x="775.044922"/>
     <use xlink:href="#DejaVuSans-6d" x="836.324219"/>
     <use xlink:href="#DejaVuSans-20" x="933.736328"/>
     <use xlink:href="#DejaVuSans-2d" x="965.523438"/>
     <use xlink:href="#DejaVuSans-20" x="1001.607422"/>
     <use xlink:href="#DejaVuSans-34" x="1033.394531"/>
     <use xlink:href="#DejaVuSans-41" x="1097.017578"/>
     <use xlink:href="#DejaVuSans-56" x="1159.050781"/>
     <use xlink:href="#DejaVuSans-56" x="1227.458984"/>
     <use xlink:href="#DejaVuSans-46" x="1295.867188"/>
     <use xlink:href="#DejaVuSans-31" x="1353.386719"/>
     <use xlink:href="#DejaVuSans-33" x="1417.009766"/>
    </g>
   </g>
   <g id="legend_1">
    <g id="patch_6">
     <path d="M 411.802812 78.513438 
L 466.5825 78.513438 
Q 468.5825 78.513438 468.5825 76.513438 
L 468.5825 48.157188 
Q 468.5825 46.157188 466.5825 46.157188 
L 411.802812 46.157188 
Q 409.802812 46.157188 409.802812 48.157188 
L 409.802812 76.513438 
Q 409.802812 78.513438 411.802812 78.513438 
z
" style="fill: #ffffff; opacity: 0.8; stroke: #cccccc; stroke-linejoin: miter"/>
    </g>
    <g id="line2d_19">
     <path d="M 413.802812 54.255625 
L 423.802812 54.255625 
L 433.802812 54.255625 
" style="fill: none; stroke: #ff0000; stroke-width: 1.5; stroke-linecap: square"/>
    </g>
    <g id="text_20">
     <!-- INPE -->
     <g transform="translate(441.802812 57.755625)scale(0.1 -0.1)">
      <defs>
       <path id="DejaVuSans-49" d="M 628 4666 
L 1259 4666 
L 1259 0 
L 628 0 
L 628 4666 
z
" transform="scale(0.015625)"/>
       <path id="DejaVuSans-4e" d="M 628 4666 
L 1478 4666 
L 3547 763 
L 3547 4666 
L 4159 4666 
L 4159 0 
L 3309 0 
L 1241 3903 
L 1241 0 
L 628 0 
L 628 4666 
z
" transform="scale(0.015625)"/>
       <path id="DejaVuSans-45" d="M 628 4666 
L 3578 4666 
L 3578 4134 
L 1259 4134 
L 1259 2753 
L 3481 2753 
L 3481 2222 
L 1259 2222 
L 1259 531 
L 3634 531 
L 3634 0 
L 628 0 
L 628 4666 
z
" transform="scale(0.015625)"/>
      </defs>
      <use xlink:href="#DejaVuSans-49"/>
      <use xlink:href="#DejaVuSans-4e" x="29.492188"/>
      <use xlink:href="#DejaVuSans-50" x="104.296875"/>
      <use xlink:href="#DejaVuSans-45" x="164.599609"/>
     </g>
    </g>
    <g id="line2d_20">
     <path d="M 413.802812 68.93375 
L 423.802812 68.93375 
L 433.802812 68.93375 
" style="fill: none; stroke-dasharray: 5.55,2.4; stroke-dashoffset: 0; stroke: #0000ff; stroke-width: 1.5"/>
    </g>
    <g id="text_21">
     <!-- CST -->
     <g transform="translate(441.802812 72.43375)scale(0.1 -0.1)">
      <defs>
       <path id="DejaVuSans-53" d="M 3425 4513 
L 3425 3897 
Q 3066 4069 2747 4153 
Q 2428 4238 2131 4238 
Q 1616 4238 1336 4038 
Q 1056 3838 1056 3469 
Q 1056 3159 1242 3001 
Q 1428 2844 1947 2747 
L 2328 2669 
Q 3034 2534 3370 2195 
Q 3706 1856 3706 1288 
Q 3706 609 3251 259 
Q 2797 -91 1919 -91 
Q 1588 -91 1214 -16 
Q 841 59 441 206 
L 441 856 
Q 825 641 1194 531 
Q 1563 422 1919 422 
Q 2459 422 2753 634 
Q 3047 847 3047 1241 
Q 3047 1584 2836 1778 
Q 2625 1972 2144 2069 
L 1759 2144 
Q 1053 2284 737 2584 
Q 422 2884 422 3419 
Q 422 4038 858 4394 
Q 1294 4750 2059 4750 
Q 2388 4750 2728 4690 
Q 3069 4631 3425 4513 
z
" transform="scale(0.015625)"/>
       <path id="DejaVuSans-54" d="M -19 4666 
L 3928 4666 
L 3928 4134 
L 2272 4134 
L 2272 0 
L 1638 0 
L 1638 4134 
L -19 4134 
L -19 4666 
z
" transform="scale(0.015625)"/>
      </defs>
      <use xlink:href="#DejaVuSans-43"/>
      <use xlink:href="#DejaVuSans-53" x="69.824219"/>
      <use xlink:href="#DejaVuSans-54" x="133.300781"/>
     </g>
    </g>
   </g>
  </g>
 </g>
 <defs>
  <clipPath id="p4acb2eeba8">
   <path d="M 473.5825 262.917188 
C 473.5825 233.795931 467.846247 204.957842 456.702025 178.05331 
C 445.557803 151.148777 429.222338 126.701026 408.6305 106.109188 
C 388.038662 85.51735 363.590911 69.181885 336.686378 58.037662 
C 309.781845 46.89344 280.943756 41.157188 251.8225 41.157188 
C 222.701244 41.157188 193.863155 46.89344 166.958622 58.037662 
C 140.054089 69.181885 115.606338 85.51735 95.0145 106.109188 
C 74.422662 126.701026 58.087197 151.148777 46.942975 178.05331 
C 35.798753 204.957842 30.0625 233.795931 30.0625 262.917188 
C 30.0625 292.038444 35.798753 320.876533 46.942975 347.781065 
C 58.087197 374.685598 74.422662 399.133349 95.0145 419.725187 
C 115.606338 440.317025 140.054089 456.65249 166.958622 467.796713 
C 193.863155 478.940935 222.701244 484.677188 251.8225 484.677188 
C 280.943756 484.677188 309.781845 478.940935 336.686378 467.796713 
C 363.590911 456.65249 388.038662 440.317025 408.6305 419.725187 
C 429.222338 399.133349 445.557803 374.685598 456.702025 347.781065 
C 467.846247 320.876533 473.5825 292.038444 473.5825 262.917188 
M 251.8225 262.917188 
C 251.8225 262.917188 251.8225 262.917188 251.8225 262.917188 
C 251.8225 262.917188 251.8225 262.917188 251.8225 262.917188 
C 251.8225 262.917188 251.8225 262.917188 251.8225 262.917188 
C 251.8225 262.917188 251.8225 262.917188 251.8225 262.917188 
C 251.8225 262.917188 251.8225 262.917188 251.8225 262.917188 
C 251.8225 262.917188 251.8225 262.917188 251.8225 262.917188 
C 251.8225 262.917188 251.8225 262.917188 251.8225 262.917188 
C 251.8225 262.917188 251.8225 262.917188 251.8225 262.917188 
C 251.8225 262.917188 251.8225 262.917188 251.8225 262.917188 
C 251.8225 262.917188 251.8225 262.917188 251.8225 262.917188 
C 251.8225 262.917188 251.8225 262.917188 251.8225 262.917188 
C 251.8225 262.917188 251.8225 262.917188 251.8225 262.917188 
C 251.8225 262.917188 251.8225 262.917188 251.8225 262.917188 
C 251.8225 262.917188 251.8225 262.917188 251.8225 262.917188 
C 251.8225 262.917188 251.8225 262.917188 251.8225 262.917188 
C 251.8225 262.917188 251.8225 262.917188 251.8225 262.917188 
M 473.5825 262.917188 
z
"/>
  </clipPath>
 </defs>
</svg>
