<?xml version="1.0" encoding="utf-8" standalone="no"?>
<!DOCTYPE svg PUBLIC "-//W3C//DTD SVG 1.1//EN"
  "http://www.w3.org/Graphics/SVG/1.1/DTD/svg11.dtd">
<svg xmlns:xlink="http://www.w3.org/1999/xlink" width="506.82625pt" height="514.053188pt" viewBox="0 0 506.82625 514.053188" xmlns="http://www.w3.org/2000/svg" version="1.1">
 <metadata>
  <rdf:RDF xmlns:dc="http://purl.org/dc/elements/1.1/" xmlns:cc="http://creativecommons.org/ns#" xmlns:rdf="http://www.w3.org/1999/02/22-rdf-syntax-ns#">
   <cc:Work>
    <dc:type rdf:resource="http://purl.org/dc/dcmitype/StillImage"/>
    <dc:date>2023-11-04T18:04:13.718496</dc:date>
    <dc:format>image/svg+xml</dc:format>
    <dc:creator>
     <cc:Agent>
      <dc:title>Matplotlib v3.5.1, https://matplotlib.org/</dc:title>
     </cc:Agent>
    </dc:creator>
   </cc:Work>
  </rdf:RDF>
 </metadata>
 <defs>
  <style type="text/css">*{stroke-linejoin: round; stroke-linecap: butt}</style>
 </defs>
 <g id="figure_1">
  <g id="patch_1">
   <path d="M 0 514.053188 
L 506.82625 514.053188 
L 506.82625 0 
L 0 0 
z
" style="fill: #ffffff"/>
  </g>
  <g id="axes_1">
   <g id="patch_2">
    <path d="M 473.5825 262.917188 
C 473.5825 233.795931 467.846247 204.957842 456.702025 178.05331 
C 445.557803 151.148777 429.222338 126.701026 408.6305 106.109188 
C 388.038662 85.51735 363.590911 69.181885 336.686378 58.037662 
C 309.781845 46.89344 280.943756 41.157188 251.8225 41.157188 
C 222.701244 41.157188 193.863155 46.89344 166.958622 58.037662 
C 140.054089 69.181885 115.606338 85.51735 95.0145 106.109188 
C 74.422662 126.701026 58.087197 151.148777 46.942975 178.05331 
C 35.798753 204.957842 30.0625 233.795931 30.0625 262.917188 
C 30.0625 292.038444 35.798753 320.876533 46.942975 347.781065 
C 58.087197 374.685598 74.422662 399.133349 95.0145 419.725187 
C 115.606338 440.317025 140.054089 456.65249 166.958622 467.796713 
C 193.863155 478.940935 222.701244 484.677188 251.8225 484.677188 
C 280.943756 484.677188 309.781845 478.940935 336.686378 467.796713 
C 363.590911 456.65249 388.038662 440.317025 408.6305 419.725187 
C 429.222338 399.133349 445.557803 374.685598 456.702025 347.781065 
C 467.846247 320.876533 473.5825 292.038444 473.5825 262.917188 
M 251.8225 262.917188 
C 251.8225 262.917188 251.8225 262.917188 251.8225 262.917188 
C 251.8225 262.917188 251.8225 262.917188 251.8225 262.917188 
C 251.8225 262.917188 251.8225 262.917188 251.8225 262.917188 
C 251.8225 262.917188 251.8225 262.917188 251.8225 262.917188 
C 251.8225 262.917188 251.8225 262.917188 251.8225 262.917188 
C 251.8225 262.917188 251.8225 262.917188 251.8225 262.917188 
C 251.8225 262.917188 251.8225 262.917188 251.8225 262.917188 
C 251.8225 262.917188 251.8225 262.917188 251.8225 262.917188 
C 251.8225 262.917188 251.8225 262.917188 251.8225 262.917188 
C 251.8225 262.917188 251.8225 262.917188 251.8225 262.917188 
C 251.8225 262.917188 251.8225 262.917188 251.8225 262.917188 
C 251.8225 262.917188 251.8225 262.917188 251.8225 262.917188 
C 251.8225 262.917188 251.8225 262.917188 251.8225 262.917188 
C 251.8225 262.917188 251.8225 262.917188 251.8225 262.917188 
C 251.8225 262.917188 251.8225 262.917188 251.8225 262.917188 
C 251.8225 262.917188 251.8225 262.917188 251.8225 262.917188 
M 473.5825 262.917188 
z
" style="fill: #ffffff"/>
   </g>
   <g id="matplotlib.axis_1">
    <g id="xtick_1">
     <g id="line2d_1">
      <path d="M 251.8225 262.917188 
L 251.8225 41.157188 
" clip-path="url(#pfe71579ed6)" style="fill: none; stroke: #b0b0b0; stroke-width: 0.8; stroke-linecap: square"/>
     </g>
     <g id="text_1">
      <!-- 0° -->
      <g transform="translate(246.14125 29.916563)scale(0.1 -0.1)">
       <defs>
        <path id="DejaVuSans-30" d="M 2034 4250 
Q 1547 4250 1301 3770 
Q 1056 3291 1056 2328 
Q 1056 1369 1301 889 
Q 1547 409 2034 409 
Q 2525 409 2770 889 
Q 3016 1369 3016 2328 
Q 3016 3291 2770 3770 
Q 2525 4250 2034 4250 
z
M 2034 4750 
Q 2819 4750 3233 4129 
Q 3647 3509 3647 2328 
Q 3647 1150 3233 529 
Q 2819 -91 2034 -91 
Q 1250 -91 836 529 
Q 422 1150 422 2328 
Q 422 3509 836 4129 
Q 1250 4750 2034 4750 
z
" transform="scale(0.015625)"/>
        <path id="DejaVuSans-b0" d="M 1600 4347 
Q 1350 4347 1178 4173 
Q 1006 4000 1006 3750 
Q 1006 3503 1178 3333 
Q 1350 3163 1600 3163 
Q 1850 3163 2022 3333 
Q 2194 3503 2194 3750 
Q 2194 3997 2020 4172 
Q 1847 4347 1600 4347 
z
M 1600 4750 
Q 1800 4750 1984 4673 
Q 2169 4597 2303 4453 
Q 2447 4313 2519 4134 
Q 2591 3956 2591 3750 
Q 2591 3338 2302 3052 
Q 2013 2766 1594 2766 
Q 1172 2766 890 3047 
Q 609 3328 609 3750 
Q 609 4169 896 4459 
Q 1184 4750 1600 4750 
z
" transform="scale(0.015625)"/>
       </defs>
       <use xlink:href="#DejaVuSans-30"/>
       <use xlink:href="#DejaVuSans-b0" x="63.623047"/>
      </g>
     </g>
    </g>
    <g id="xtick_2">
     <g id="line2d_2">
      <path d="M 251.8225 262.917188 
L 95.0145 106.109188 
" clip-path="url(#pfe71579ed6)" style="fill: none; stroke: #b0b0b0; stroke-width: 0.8; stroke-linecap: square"/>
     </g>
     <g id="text_2">
      <!-- 45° -->
      <g transform="translate(76.252505 98.969068)scale(0.1 -0.1)">
       <defs>
        <path id="DejaVuSans-34" d="M 2419 4116 
L 825 1625 
L 2419 1625 
L 2419 4116 
z
M 2253 4666 
L 3047 4666 
L 3047 1625 
L 3713 1625 
L 3713 1100 
L 3047 1100 
L 3047 0 
L 2419 0 
L 2419 1100 
L 313 1100 
L 313 1709 
L 2253 4666 
z
" transform="scale(0.015625)"/>
        <path id="DejaVuSans-35" d="M 691 4666 
L 3169 4666 
L 3169 4134 
L 1269 4134 
L 1269 2991 
Q 1406 3038 1543 3061 
Q 1681 3084 1819 3084 
Q 2600 3084 3056 2656 
Q 3513 2228 3513 1497 
Q 3513 744 3044 326 
Q 2575 -91 1722 -91 
Q 1428 -91 1123 -41 
Q 819 9 494 109 
L 494 744 
Q 775 591 1075 516 
Q 1375 441 1709 441 
Q 2250 441 2565 725 
Q 2881 1009 2881 1497 
Q 2881 1984 2565 2268 
Q 2250 2553 1709 2553 
Q 1456 2553 1204 2497 
Q 953 2441 691 2322 
L 691 4666 
z
" transform="scale(0.015625)"/>
       </defs>
       <use xlink:href="#DejaVuSans-34"/>
       <use xlink:href="#DejaVuSans-35" x="63.623047"/>
       <use xlink:href="#DejaVuSans-b0" x="127.246094"/>
      </g>
     </g>
    </g>
    <g id="xtick_3">
     <g id="line2d_3">
      <path d="M 251.8225 262.917188 
L 30.0625 262.917188 
" clip-path="url(#pfe71579ed6)" style="fill: none; stroke: #b0b0b0; stroke-width: 0.8; stroke-linecap: square"/>
     </g>
     <g id="text_3">
      <!-- 90° -->
      <g transform="translate(7.2 265.676563)scale(0.1 -0.1)">
       <defs>
        <path id="DejaVuSans-39" d="M 703 97 
L 703 672 
Q 941 559 1184 500 
Q 1428 441 1663 441 
Q 2288 441 2617 861 
Q 2947 1281 2994 2138 
Q 2813 1869 2534 1725 
Q 2256 1581 1919 1581 
Q 1219 1581 811 2004 
Q 403 2428 403 3163 
Q 403 3881 828 4315 
Q 1253 4750 1959 4750 
Q 2769 4750 3195 4129 
Q 3622 3509 3622 2328 
Q 3622 1225 3098 567 
Q 2575 -91 1691 -91 
Q 1453 -91 1209 -44 
Q 966 3 703 97 
z
M 1959 2075 
Q 2384 2075 2632 2365 
Q 2881 2656 2881 3163 
Q 2881 3666 2632 3958 
Q 2384 4250 1959 4250 
Q 1534 4250 1286 3958 
Q 1038 3666 1038 3163 
Q 1038 2656 1286 2365 
Q 1534 2075 1959 2075 
z
" transform="scale(0.015625)"/>
       </defs>
       <use xlink:href="#DejaVuSans-39"/>
       <use xlink:href="#DejaVuSans-30" x="63.623047"/>
       <use xlink:href="#DejaVuSans-b0" x="127.246094"/>
      </g>
     </g>
    </g>
    <g id="xtick_4">
     <g id="line2d_4">
      <path d="M 251.8225 262.917188 
L 95.0145 419.725187 
" clip-path="url(#pfe71579ed6)" style="fill: none; stroke: #b0b0b0; stroke-width: 0.8; stroke-linecap: square"/>
     </g>
     <g id="text_4">
      <!-- 135° -->
      <g transform="translate(73.071255 432.384057)scale(0.1 -0.1)">
       <defs>
        <path id="DejaVuSans-31" d="M 794 531 
L 1825 531 
L 1825 4091 
L 703 3866 
L 703 4441 
L 1819 4666 
L 2450 4666 
L 2450 531 
L 3481 531 
L 3481 0 
L 794 0 
L 794 531 
z
" transform="scale(0.015625)"/>
        <path id="DejaVuSans-33" d="M 2597 2516 
Q 3050 2419 3304 2112 
Q 3559 1806 3559 1356 
Q 3559 666 3084 287 
Q 2609 -91 1734 -91 
Q 1441 -91 1130 -33 
Q 819 25 488 141 
L 488 750 
Q 750 597 1062 519 
Q 1375 441 1716 441 
Q 2309 441 2620 675 
Q 2931 909 2931 1356 
Q 2931 1769 2642 2001 
Q 2353 2234 1838 2234 
L 1294 2234 
L 1294 2753 
L 1863 2753 
Q 2328 2753 2575 2939 
Q 2822 3125 2822 3475 
Q 2822 3834 2567 4026 
Q 2313 4219 1838 4219 
Q 1578 4219 1281 4162 
Q 984 4106 628 3988 
L 628 4550 
Q 988 4650 1302 4700 
Q 1616 4750 1894 4750 
Q 2613 4750 3031 4423 
Q 3450 4097 3450 3541 
Q 3450 3153 3228 2886 
Q 3006 2619 2597 2516 
z
" transform="scale(0.015625)"/>
       </defs>
       <use xlink:href="#DejaVuSans-31"/>
       <use xlink:href="#DejaVuSans-33" x="63.623047"/>
       <use xlink:href="#DejaVuSans-35" x="127.246094"/>
       <use xlink:href="#DejaVuSans-b0" x="190.869141"/>
      </g>
     </g>
    </g>
    <g id="xtick_5">
     <g id="line2d_5">
      <path d="M 251.8225 262.917188 
L 251.8225 484.677188 
" clip-path="url(#pfe71579ed6)" style="fill: none; stroke: #b0b0b0; stroke-width: 0.8; stroke-linecap: square"/>
     </g>
     <g id="text_5">
      <!-- 180° -->
      <g transform="translate(239.77875 501.436563)scale(0.1 -0.1)">
       <defs>
        <path id="DejaVuSans-38" d="M 2034 2216 
Q 1584 2216 1326 1975 
Q 1069 1734 1069 1313 
Q 1069 891 1326 650 
Q 1584 409 2034 409 
Q 2484 409 2743 651 
Q 3003 894 3003 1313 
Q 3003 1734 2745 1975 
Q 2488 2216 2034 2216 
z
M 1403 2484 
Q 997 2584 770 2862 
Q 544 3141 544 3541 
Q 544 4100 942 4425 
Q 1341 4750 2034 4750 
Q 2731 4750 3128 4425 
Q 3525 4100 3525 3541 
Q 3525 3141 3298 2862 
Q 3072 2584 2669 2484 
Q 3125 2378 3379 2068 
Q 3634 1759 3634 1313 
Q 3634 634 3220 271 
Q 2806 -91 2034 -91 
Q 1263 -91 848 271 
Q 434 634 434 1313 
Q 434 1759 690 2068 
Q 947 2378 1403 2484 
z
M 1172 3481 
Q 1172 3119 1398 2916 
Q 1625 2713 2034 2713 
Q 2441 2713 2670 2916 
Q 2900 3119 2900 3481 
Q 2900 3844 2670 4047 
Q 2441 4250 2034 4250 
Q 1625 4250 1398 4047 
Q 1172 3844 1172 3481 
z
" transform="scale(0.015625)"/>
       </defs>
       <use xlink:href="#DejaVuSans-31"/>
       <use xlink:href="#DejaVuSans-38" x="63.623047"/>
       <use xlink:href="#DejaVuSans-30" x="127.246094"/>
       <use xlink:href="#DejaVuSans-b0" x="190.869141"/>
      </g>
     </g>
    </g>
    <g id="xtick_6">
     <g id="line2d_6">
      <path d="M 251.8225 262.917188 
L 408.6305 419.725187 
" clip-path="url(#pfe71579ed6)" style="fill: none; stroke: #b0b0b0; stroke-width: 0.8; stroke-linecap: square"/>
     </g>
     <g id="text_6">
      <!-- 225° -->
      <g transform="translate(406.486245 432.384057)scale(0.1 -0.1)">
       <defs>
        <path id="DejaVuSans-32" d="M 1228 531 
L 3431 531 
L 3431 0 
L 469 0 
L 469 531 
Q 828 903 1448 1529 
Q 2069 2156 2228 2338 
Q 2531 2678 2651 2914 
Q 2772 3150 2772 3378 
Q 2772 3750 2511 3984 
Q 2250 4219 1831 4219 
Q 1534 4219 1204 4116 
Q 875 4013 500 3803 
L 500 4441 
Q 881 4594 1212 4672 
Q 1544 4750 1819 4750 
Q 2544 4750 2975 4387 
Q 3406 4025 3406 3419 
Q 3406 3131 3298 2873 
Q 3191 2616 2906 2266 
Q 2828 2175 2409 1742 
Q 1991 1309 1228 531 
z
" transform="scale(0.015625)"/>
       </defs>
       <use xlink:href="#DejaVuSans-32"/>
       <use xlink:href="#DejaVuSans-32" x="63.623047"/>
       <use xlink:href="#DejaVuSans-35" x="127.246094"/>
       <use xlink:href="#DejaVuSans-b0" x="190.869141"/>
      </g>
     </g>
    </g>
    <g id="xtick_7">
     <g id="line2d_7">
      <path d="M 251.8225 262.917188 
L 473.5825 262.917188 
" clip-path="url(#pfe71579ed6)" style="fill: none; stroke: #b0b0b0; stroke-width: 0.8; stroke-linecap: square"/>
     </g>
     <g id="text_7">
      <!-- 270° -->
      <g transform="translate(475.53875 265.676563)scale(0.1 -0.1)">
       <defs>
        <path id="DejaVuSans-37" d="M 525 4666 
L 3525 4666 
L 3525 4397 
L 1831 0 
L 1172 0 
L 2766 4134 
L 525 4134 
L 525 4666 
z
" transform="scale(0.015625)"/>
       </defs>
       <use xlink:href="#DejaVuSans-32"/>
       <use xlink:href="#DejaVuSans-37" x="63.623047"/>
       <use xlink:href="#DejaVuSans-30" x="127.246094"/>
       <use xlink:href="#DejaVuSans-b0" x="190.869141"/>
      </g>
     </g>
    </g>
    <g id="xtick_8">
     <g id="line2d_8">
      <path d="M 251.8225 262.917188 
L 408.6305 106.109188 
" clip-path="url(#pfe71579ed6)" style="fill: none; stroke: #b0b0b0; stroke-width: 0.8; stroke-linecap: square"/>
     </g>
     <g id="text_8">
      <!-- 315° -->
      <g transform="translate(406.486245 98.969068)scale(0.1 -0.1)">
       <use xlink:href="#DejaVuSans-33"/>
       <use xlink:href="#DejaVuSans-31" x="63.623047"/>
       <use xlink:href="#DejaVuSans-35" x="127.246094"/>
       <use xlink:href="#DejaVuSans-b0" x="190.869141"/>
      </g>
     </g>
    </g>
   </g>
   <g id="matplotlib.axis_2">
    <g id="ytick_1">
     <g id="line2d_9">
      <path d="M 251.8225 262.355344 
C 251.748719 262.355344 251.675656 262.369877 251.607492 262.398112 
C 251.539327 262.426347 251.477388 262.467734 251.425217 262.519904 
C 251.373046 262.572075 251.331659 262.634015 251.303424 262.702179 
C 251.27519 262.770344 251.260657 262.843407 251.260657 262.917188 
C 251.260657 262.990968 251.27519 263.064031 251.303424 263.132196 
C 251.331659 263.20036 251.373046 263.2623 251.425217 263.314471 
C 251.477388 263.366641 251.539327 263.408028 251.607492 263.436263 
C 251.675656 263.464498 251.748719 263.479031 251.8225 263.479031 
C 251.896281 263.479031 251.969344 263.464498 252.037508 263.436263 
C 252.105673 263.408028 252.167612 263.366641 252.219783 263.314471 
C 252.271954 263.2623 252.313341 263.20036 252.341576 263.132196 
C 252.36981 263.064031 252.384343 262.990968 252.384343 262.917188 
C 252.384343 262.843407 252.36981 262.770344 252.341576 262.702179 
C 252.313341 262.634015 252.271954 262.572075 252.219783 262.519904 
C 252.167612 262.467734 252.105673 262.426347 252.037508 262.398112 
C 251.969344 262.369877 251.896281 262.355344 251.8225 262.355344 
" clip-path="url(#pfe71579ed6)" style="fill: none; stroke: #b0b0b0; stroke-width: 0.8; stroke-linecap: square"/>
     </g>
     <g id="text_9">
      <!-- −40 -->
      <g transform="translate(251.607492 260.318424)scale(0.1 -0.1)">
       <defs>
        <path id="DejaVuSans-2212" d="M 678 2272 
L 4684 2272 
L 4684 1741 
L 678 1741 
L 678 2272 
z
" transform="scale(0.015625)"/>
       </defs>
       <use xlink:href="#DejaVuSans-2212"/>
       <use xlink:href="#DejaVuSans-34" x="83.789062"/>
       <use xlink:href="#DejaVuSans-30" x="147.412109"/>
      </g>
     </g>
    </g>
    <g id="ytick_2">
     <g id="line2d_10">
      <path d="M 251.8225 234.705575 
C 248.117785 234.705575 244.449094 235.435323 241.026383 236.853056 
C 237.603673 238.270789 234.493506 240.348936 231.873877 242.968565 
C 229.254248 245.588194 227.176101 248.69836 225.758368 252.121071 
C 224.340635 255.543781 223.610887 259.212472 223.610887 262.917188 
C 223.610887 266.621903 224.340635 270.290594 225.758368 273.713304 
C 227.176101 277.136015 229.254248 280.246181 231.873877 282.86581 
C 234.493506 285.485439 237.603673 287.563586 241.026383 288.981319 
C 244.449094 290.399052 248.117785 291.1288 251.8225 291.1288 
C 255.527215 291.1288 259.195906 290.399052 262.618617 288.981319 
C 266.041327 287.563586 269.151494 285.485439 271.771123 282.86581 
C 274.390752 280.246181 276.468899 277.136015 277.886632 273.713304 
C 279.304365 270.290594 280.034113 266.621903 280.034113 262.917188 
C 280.034113 259.212472 279.304365 255.543781 277.886632 252.121071 
C 276.468899 248.69836 274.390752 245.588194 271.771123 242.968565 
C 269.151494 240.348936 266.041327 238.270789 262.618617 236.853056 
C 259.195906 235.435323 255.527215 234.705575 251.8225 234.705575 
" clip-path="url(#pfe71579ed6)" style="fill: none; stroke: #b0b0b0; stroke-width: 0.8; stroke-linecap: square"/>
     </g>
     <g id="text_10">
      <!-- −35 -->
      <g transform="translate(241.026383 234.773368)scale(0.1 -0.1)">
       <use xlink:href="#DejaVuSans-2212"/>
       <use xlink:href="#DejaVuSans-33" x="83.789062"/>
       <use xlink:href="#DejaVuSans-35" x="147.412109"/>
      </g>
     </g>
    </g>
    <g id="ytick_3">
     <g id="line2d_11">
      <path d="M 251.8225 207.055805 
C 244.48685 207.055805 237.222531 208.500768 230.445274 211.308 
C 223.668018 214.115231 217.509625 218.230138 212.322538 223.417225 
C 207.13545 228.604313 203.020544 234.762705 200.213312 241.539962 
C 197.406081 248.317218 195.961118 255.581538 195.961118 262.917188 
C 195.961118 270.252837 197.406081 277.517157 200.213312 284.294413 
C 203.020544 291.07167 207.13545 297.230062 212.322538 302.41715 
C 217.509625 307.604237 223.668018 311.719144 230.445274 314.526375 
C 237.222531 317.333607 244.48685 318.77857 251.8225 318.77857 
C 259.15815 318.77857 266.422469 317.333607 273.199726 314.526375 
C 279.976982 311.719144 286.135375 307.604237 291.322462 302.41715 
C 296.50955 297.230062 300.624456 291.07167 303.431688 284.294413 
C 306.238919 277.517157 307.683882 270.252837 307.683882 262.917188 
C 307.683882 255.581538 306.238919 248.317218 303.431688 241.539962 
C 300.624456 234.762705 296.50955 228.604313 291.322462 223.417225 
C 286.135375 218.230138 279.976982 214.115231 273.199726 211.308 
C 266.422469 208.500768 259.15815 207.055805 251.8225 207.055805 
" clip-path="url(#pfe71579ed6)" style="fill: none; stroke: #b0b0b0; stroke-width: 0.8; stroke-linecap: square"/>
     </g>
     <g id="text_11">
      <!-- −30 -->
      <g transform="translate(230.445274 209.228312)scale(0.1 -0.1)">
       <use xlink:href="#DejaVuSans-2212"/>
       <use xlink:href="#DejaVuSans-33" x="83.789062"/>
       <use xlink:href="#DejaVuSans-30" x="147.412109"/>
      </g>
     </g>
    </g>
    <g id="ytick_4">
     <g id="line2d_12">
      <path d="M 251.8225 179.406035 
C 240.855916 179.406035 229.995968 181.566213 219.864166 185.762943 
C 209.732363 189.959673 200.525744 196.11134 192.771198 203.865886 
C 185.016652 211.620431 178.864986 220.827051 174.668256 230.958853 
C 170.471526 241.090656 168.311348 251.950603 168.311348 262.917188 
C 168.311348 273.883772 170.471526 284.743719 174.668256 294.875522 
C 178.864986 305.007324 185.016652 314.213944 192.771198 321.968489 
C 200.525744 329.723035 209.732363 335.874702 219.864166 340.071432 
C 229.995968 344.268162 240.855916 346.42834 251.8225 346.42834 
C 262.789084 346.42834 273.649032 344.268162 283.780834 340.071432 
C 293.912637 335.874702 303.119256 329.723035 310.873802 321.968489 
C 318.628348 314.213944 324.780014 305.007324 328.976744 294.875522 
C 333.173474 284.743719 335.333652 273.883772 335.333652 262.917188 
C 335.333652 251.950603 333.173474 241.090656 328.976744 230.958853 
C 324.780014 220.827051 318.628348 211.620431 310.873802 203.865886 
C 303.119256 196.11134 293.912637 189.959673 283.780834 185.762943 
C 273.649032 181.566213 262.789084 179.406035 251.8225 179.406035 
" clip-path="url(#pfe71579ed6)" style="fill: none; stroke: #b0b0b0; stroke-width: 0.8; stroke-linecap: square"/>
     </g>
     <g id="text_12">
      <!-- −25 -->
      <g transform="translate(219.864166 183.683256)scale(0.1 -0.1)">
       <use xlink:href="#DejaVuSans-2212"/>
       <use xlink:href="#DejaVuSans-32" x="83.789062"/>
       <use xlink:href="#DejaVuSans-35" x="147.412109"/>
      </g>
     </g>
    </g>
    <g id="ytick_5">
     <g id="line2d_13">
      <path d="M 251.8225 151.756266 
C 237.224982 151.756266 222.769406 154.631659 209.283057 160.217887 
C 195.796708 165.804116 183.541863 173.992542 173.219858 184.314546 
C 162.897854 194.63655 154.709428 206.891396 149.1232 220.377744 
C 143.536971 233.864093 140.661578 248.319669 140.661578 262.917188 
C 140.661578 277.514706 143.536971 291.970282 149.1232 305.456631 
C 154.709428 318.942979 162.897854 331.197825 173.219858 341.519829 
C 183.541863 351.841833 195.796708 360.030259 209.283057 365.616488 
C 222.769406 371.202716 237.224982 374.078109 251.8225 374.078109 
C 266.420018 374.078109 280.875594 371.202716 294.361943 365.616488 
C 307.848292 360.030259 320.103137 351.841833 330.425142 341.519829 
C 340.747146 331.197825 348.935572 318.942979 354.5218 305.456631 
C 360.108029 291.970282 362.983422 277.514706 362.983422 262.917188 
C 362.983422 248.319669 360.108029 233.864093 354.5218 220.377744 
C 348.935572 206.891396 340.747146 194.63655 330.425142 184.314546 
C 320.103137 173.992542 307.848292 165.804116 294.361943 160.217887 
C 280.875594 154.631659 266.420018 151.756266 251.8225 151.756266 
" clip-path="url(#pfe71579ed6)" style="fill: none; stroke: #b0b0b0; stroke-width: 0.8; stroke-linecap: square"/>
     </g>
     <g id="text_13">
      <!-- −20 -->
      <g transform="translate(209.283057 158.1382)scale(0.1 -0.1)">
       <use xlink:href="#DejaVuSans-2212"/>
       <use xlink:href="#DejaVuSans-32" x="83.789062"/>
       <use xlink:href="#DejaVuSans-30" x="147.412109"/>
      </g>
     </g>
    </g>
    <g id="ytick_6">
     <g id="line2d_14">
      <path d="M 251.8225 124.106496 
C 233.594047 124.106496 215.542843 127.697104 198.701948 134.672831 
C 181.861054 141.648558 166.557982 151.873744 153.668519 164.763206 
C 140.779056 177.652669 130.55387 192.955741 123.578143 209.796636 
C 116.602417 226.63753 113.011809 244.688735 113.011809 262.917188 
C 113.011809 281.14564 116.602417 299.196845 123.578143 316.037739 
C 130.55387 332.878634 140.779056 348.181706 153.668519 361.071169 
C 166.557982 373.960631 181.861054 384.185817 198.701948 391.161544 
C 215.542843 398.137271 233.594047 401.727879 251.8225 401.727879 
C 270.050953 401.727879 288.102157 398.137271 304.943052 391.161544 
C 321.783946 384.185817 337.087018 373.960631 349.976481 361.071169 
C 362.865944 348.181706 373.09113 332.878634 380.066857 316.037739 
C 387.042583 299.196845 390.633191 281.14564 390.633191 262.917188 
C 390.633191 244.688735 387.042583 226.63753 380.066857 209.796636 
C 373.09113 192.955741 362.865944 177.652669 349.976481 164.763206 
C 337.087018 151.873744 321.783946 141.648558 304.943052 134.672831 
C 288.102157 127.697104 270.050953 124.106496 251.8225 124.106496 
" clip-path="url(#pfe71579ed6)" style="fill: none; stroke: #b0b0b0; stroke-width: 0.8; stroke-linecap: square"/>
     </g>
     <g id="text_14">
      <!-- −15 -->
      <g transform="translate(198.701948 132.593143)scale(0.1 -0.1)">
       <use xlink:href="#DejaVuSans-2212"/>
       <use xlink:href="#DejaVuSans-31" x="83.789062"/>
       <use xlink:href="#DejaVuSans-35" x="147.412109"/>
      </g>
     </g>
    </g>
    <g id="ytick_7">
     <g id="line2d_15">
      <path d="M 251.8225 96.456727 
C 229.963113 96.456727 208.31628 100.762549 188.120839 109.127775 
C 167.925399 117.493 149.5741 129.754946 134.117179 145.211867 
C 118.660258 160.668788 106.398313 179.020086 98.033087 199.215527 
C 89.667862 219.410968 85.362039 241.0578 85.362039 262.917188 
C 85.362039 284.776575 89.667862 306.423407 98.033087 326.618848 
C 106.398313 346.814289 118.660258 365.165587 134.117179 380.622508 
C 149.5741 396.079429 167.925399 408.341375 188.120839 416.7066 
C 208.31628 425.071826 229.963113 429.377648 251.8225 429.377648 
C 273.681887 429.377648 295.32872 425.071826 315.524161 416.7066 
C 335.719601 408.341375 354.0709 396.079429 369.527821 380.622508 
C 384.984742 365.165587 397.246687 346.814289 405.611913 326.618848 
C 413.977138 306.423407 418.282961 284.776575 418.282961 262.917188 
C 418.282961 241.0578 413.977138 219.410968 405.611913 199.215527 
C 397.246687 179.020086 384.984742 160.668788 369.527821 145.211867 
C 354.0709 129.754946 335.719601 117.493 315.524161 109.127775 
C 295.32872 100.762549 273.681887 96.456727 251.8225 96.456727 
" clip-path="url(#pfe71579ed6)" style="fill: none; stroke: #b0b0b0; stroke-width: 0.8; stroke-linecap: square"/>
     </g>
     <g id="text_15">
      <!-- −10 -->
      <g transform="translate(188.120839 107.048087)scale(0.1 -0.1)">
       <use xlink:href="#DejaVuSans-2212"/>
       <use xlink:href="#DejaVuSans-31" x="83.789062"/>
       <use xlink:href="#DejaVuSans-30" x="147.412109"/>
      </g>
     </g>
    </g>
    <g id="ytick_8">
     <g id="line2d_16">
      <path d="M 251.8225 68.806957 
C 226.332178 68.806957 201.089717 73.827995 177.539731 83.582719 
C 153.989744 93.337442 132.590219 107.636148 114.56584 125.660527 
C 96.54146 143.684907 82.242755 165.084432 72.488031 188.634418 
C 62.733307 212.184405 57.71227 237.426866 57.71227 262.917188 
C 57.71227 288.407509 62.733307 313.64997 72.488031 337.199957 
C 82.242755 360.749943 96.54146 382.149468 114.56584 400.173848 
C 132.590219 418.198227 153.989744 432.496933 177.539731 442.251656 
C 201.089717 452.00638 226.332178 457.027418 251.8225 457.027418 
C 277.312822 457.027418 302.555283 452.00638 326.105269 442.251656 
C 349.655256 432.496933 371.054781 418.198227 389.07916 400.173848 
C 407.10354 382.149468 421.402245 360.749943 431.156969 337.199957 
C 440.911693 313.64997 445.93273 288.407509 445.93273 262.917188 
C 445.93273 237.426866 440.911693 212.184405 431.156969 188.634418 
C 421.402245 165.084432 407.10354 143.684907 389.07916 125.660527 
C 371.054781 107.636148 349.655256 93.337442 326.105269 83.582719 
C 302.555283 73.827995 277.312822 68.806957 251.8225 68.806957 
" clip-path="url(#pfe71579ed6)" style="fill: none; stroke: #b0b0b0; stroke-width: 0.8; stroke-linecap: square"/>
     </g>
     <g id="text_16">
      <!-- −5 -->
      <g transform="translate(177.539731 81.503031)scale(0.1 -0.1)">
       <use xlink:href="#DejaVuSans-2212"/>
       <use xlink:href="#DejaVuSans-35" x="83.789062"/>
      </g>
     </g>
    </g>
    <g id="ytick_9">
     <g id="line2d_17">
      <path d="M 251.8225 41.157188 
C 222.701244 41.157188 193.863155 46.89344 166.958622 58.037662 
C 140.054089 69.181885 115.606338 85.51735 95.0145 106.109188 
C 74.422662 126.701026 58.087197 151.148777 46.942975 178.05331 
C 35.798753 204.957842 30.0625 233.795931 30.0625 262.917188 
C 30.0625 292.038444 35.798753 320.876533 46.942975 347.781065 
C 58.087197 374.685598 74.422662 399.133349 95.0145 419.725187 
C 115.606338 440.317025 140.054089 456.65249 166.958622 467.796713 
C 193.863155 478.940935 222.701244 484.677188 251.8225 484.677188 
C 280.943756 484.677188 309.781845 478.940935 336.686378 467.796713 
C 363.590911 456.65249 388.038662 440.317025 408.6305 419.725187 
C 429.222338 399.133349 445.557803 374.685598 456.702025 347.781065 
C 467.846247 320.876533 473.5825 292.038444 473.5825 262.917188 
C 473.5825 233.795931 467.846247 204.957842 456.702025 178.05331 
C 445.557803 151.148777 429.222338 126.701026 408.6305 106.109188 
C 388.038662 85.51735 363.590911 69.181885 336.686378 58.037662 
C 309.781845 46.89344 280.943756 41.157188 251.8225 41.157188 
" clip-path="url(#pfe71579ed6)" style="fill: none; stroke: #b0b0b0; stroke-width: 0.8; stroke-linecap: square"/>
     </g>
     <g id="text_17">
      <!-- 0 -->
      <g transform="translate(166.958622 55.957975)scale(0.1 -0.1)">
       <use xlink:href="#DejaVuSans-30"/>
      </g>
     </g>
    </g>
   </g>
   <g id="line2d_18">
    <path d="M 251.8225 449.031105 
L 255.060309 448.411144 
L 258.238462 446.646302 
L 261.293504 443.63471 
L 264.245041 440.567807 
L 266.953187 435.861729 
L 269.306172 429.263211 
L 271.370972 422.126713 
L 272.364911 409.08404 
L 272.318385 392.323113 
L 271.218537 372.917581 
L 269.482374 353.769362 
L 274.187973 368.138463 
L 279.645856 383.433384 
L 285.555019 398.210931 
L 290.183919 406.083954 
L 294.313739 411.101747 
L 298.175568 414.531242 
L 301.115296 414.624814 
L 306.485704 413.103106 
L 309.062812 412.0333 
L 311.277435 410.073314 
L 313.704804 408.702759 
L 317.11464 409.565735 
L 327.555095 418.192019 
L 332.249365 420.763797 
L 337.286921 423.652385 
L 341.878054 425.381708 
L 345.968859 425.983465 
L 349.515302 425.505313 
L 352.08889 423.376954 
L 353.976503 420.220558 
L 355.073527 415.99313 
L 356.682634 412.672979 
L 358.867458 410.251933 
L 362.048166 409.191587 
L 365.598783 408.544189 
L 369.504601 408.24248 
L 374.493391 409.110662 
L 379.235573 409.489161 
L 384.279278 410.025343 
L 388.376549 409.353477 
L 391.237938 407.2861 
L 393.419558 404.514245 
L 395.065662 401.245501 
L 396.402431 397.740155 
L 397.244988 384.941144 
L 397.263827 380.693252 
L 398.874189 373.728583 
L 398.866446 369.750868 
L 399.74542 362.692457 
L 399.132441 354.966655 
L 397.900872 350.689929 
L 394.851265 345.494883 
L 392.396538 340.838649 
L 387.578012 335.099673 
L 380.499938 328.481617 
L 375.605576 323.290227 
L 368.826919 317.477244 
L 360.708362 311.396297 
L 352.762093 305.763503 
L 340.189189 298.619647 
L 324.386738 290.771989 
L 311.174352 284.519495 
L 299.380429 279.292696 
L 296.950438 277.580144 
L 303.645933 278.761201 
L 314.85965 280.992799 
L 324.449083 282.377422 
L 329.94481 282.395267 
L 338.791629 282.995593 
L 345.462869 282.821062 
L 349.639251 281.930838 
L 352.216253 280.619315 
L 353.375266 277.189498 
L 355.733026 275.675796 
L 364.549138 272.77949 
L 369.11176 271.118852 
L 375.885975 269.419079 
L 382.391392 267.476754 
L 394.33826 262.917188 
L 399.475216 260.3399 
L 406.000964 257.533157 
L 410.991715 254.575482 
L 416.746592 251.384572 
L 424.713119 244.745651 
L 429.529061 241.097565 
L 435.104321 233.888199 
L 438.784939 229.950665 
L 441.237281 226.098684 
L 446.766201 217.910888 
L 448.65535 213.841246 
L 451.240869 209.483197 
L 453.291966 205.146748 
L 454.278475 201.020184 
L 455.108069 196.865702 
L 455.252434 192.870644 
L 454.762849 189.052941 
L 454.434061 185.141896 
L 454.214857 181.145367 
L 453.92031 172.937445 
L 452.805315 169.197362 
L 451.124157 165.711275 
L 448.929239 162.486288 
L 446.594717 159.354963 
L 443.809667 156.496963 
L 440.721079 153.856542 
L 437.864619 151.131805 
L 434.717633 148.631624 
L 427.674435 144.30356 
L 416.173297 139.069979 
L 411.877725 137.868341 
L 408.076541 136.38516 
L 404.531236 134.779344 
L 400.806762 133.407144 
L 397.59094 131.666695 
L 394.50563 129.863016 
L 383.920016 126.126205 
L 380.135997 125.317808 
L 376.971262 123.925407 
L 370.391399 121.612277 
L 367.447854 120.131766 
L 364.236952 119.033251 
L 357.573789 117.363025 
L 353.583735 117.587082 
L 349.581583 117.983387 
L 345.883719 118.075611 
L 333.35227 121.703484 
L 328.435646 124.703413 
L 319.051422 130.973 
L 314.474262 134.462039 
L 311.470335 135.001992 
L 309.438001 133.510653 
L 306.831873 126.764212 
L 305.078535 116.597433 
L 303.377373 113.190966 
L 301.298143 110.646816 
L 299.014688 108.558494 
L 296.449229 107.285287 
L 293.684775 106.68505 
L 290.854112 106.369943 
L 287.913274 106.590871 
L 284.85298 107.520997 
L 278.76239 110.133477 
L 275.879035 111.030201 
L 273.166856 111.0442 
L 270.638408 109.673916 
L 268.133911 107.724475 
L 262.847469 105.252787 
L 260.185332 103.34484 
L 257.471895 101.139669 
L 254.706403 97.698484 
L 251.8225 92.41986 
L 248.776362 88.404047 
L 245.553019 83.382751 
L 242.149195 78.339524 
L 238.689407 75.105206 
L 235.059872 71.319474 
L 231.318004 67.829939 
L 227.554484 65.270054 
L 223.652376 62.476343 
L 219.802946 60.753679 
L 212.294333 59.562395 
L 208.558166 59.374498 
L 201.091679 59.446979 
L 197.438154 59.952046 
L 193.847809 60.735414 
L 190.315146 61.735698 
L 183.324281 63.983914 
L 179.870414 65.230457 
L 176.54026 66.800248 
L 173.423175 68.872049 
L 170.564974 71.486453 
L 167.670525 73.908758 
L 165.071786 76.87968 
L 162.899984 80.59901 
L 160.863892 84.400869 
L 157.423767 92.617364 
L 155.585818 96.230365 
L 153.69963 99.613307 
L 151.359771 102.143213 
L 148.680617 104.092615 
L 142.176043 106.325818 
L 139.027539 107.668243 
L 136.032402 109.258538 
L 130.441039 113.023566 
L 127.836412 115.156322 
L 125.385353 117.467888 
L 123.254697 120.128176 
L 119.433035 125.823883 
L 117.349951 128.444638 
L 115.166767 130.95028 
L 113.203944 133.653293 
L 111.840316 136.876663 
L 110.596792 140.151552 
L 109.509376 143.502297 
L 108.942532 147.215271 
L 108.605286 151.023637 
L 108.772085 155.120968 
L 110.15162 159.987268 
L 112.050891 168.640047 
L 113.817055 173.295404 
L 115.172172 177.528586 
L 116.798031 181.786301 
L 117.782839 185.529353 
L 117.342586 188.373754 
L 115.788677 190.586721 
L 111.702082 194.575893 
L 108.530979 196.099254 
L 100.478267 198.675372 
L 95.021952 199.565654 
L 90.217921 200.883002 
L 81.479616 204.263429 
L 78.16782 206.493362 
L 75.612464 209.044373 
L 73.194739 211.696501 
L 71.665671 214.644311 
L 70.356988 217.672754 
L 69.530344 220.831727 
L 68.221485 227.228765 
L 66.079607 236.812726 
L 64.790579 239.952555 
L 62.329191 246.338671 
L 61.495002 249.608192 
L 60.709867 256.243387 
L 60.00324 259.56897 
L 59.526094 262.917188 
L 59.616202 266.272161 
L 60.571703 269.595813 
L 62.081416 272.861096 
L 64.413222 276.022121 
L 67.784069 282.260406 
L 72.38264 288.135815 
L 75.231471 290.886459 
L 78.660077 293.450395 
L 81.406954 296.042614 
L 84.780493 298.423062 
L 87.882626 300.76569 
L 90.33882 303.179591 
L 93.208043 305.417803 
L 95.605868 307.711586 
L 97.426789 310.120694 
L 98.752715 312.652576 
L 99.05319 315.519879 
L 98.95521 318.556331 
L 98.447196 321.792451 
L 98.359814 324.920137 
L 98.106164 328.165901 
L 97.029787 338.414638 
L 95.897508 342.364939 
L 95.349864 346.115164 
L 94.982953 349.854768 
L 94.958081 353.482902 
L 96.544815 359.945454 
L 97.612548 363.062301 
L 99.182089 365.874445 
L 101.151674 368.418035 
L 103.57062 370.628483 
L 106.320973 372.560452 
L 109.877724 373.816601 
L 113.19284 375.177273 
L 116.562633 376.413692 
L 120.433753 377.131683 
L 124.033371 377.979036 
L 128.143781 378.249459 
L 133.803303 376.887001 
L 139.290464 375.449224 
L 146.031088 372.467402 
L 163.865066 360.603815 
L 174.479127 351.890561 
L 186.977612 340.196316 
L 191.666663 337.20346 
L 185.873751 347.327737 
L 174.078205 366.087352 
L 168.622662 377.43194 
L 163.202245 389.480029 
L 159.944993 399.131193 
L 157.170812 414.391552 
L 156.898087 420.89794 
L 157.560012 426.184607 
L 157.92779 432.307728 
L 159.254996 437.011342 
L 161.014525 441.137873 
L 162.914529 445.205543 
L 165.448052 448.147788 
L 170.956065 453.426569 
L 174.025998 455.470287 
L 177.267566 457.139432 
L 180.65911 458.436996 
L 184.186661 459.345927 
L 187.884862 459.697004 
L 195.515352 459.28355 
L 199.524927 458.094386 
L 207.551386 454.676449 
L 215.731005 448.591834 
L 219.554091 445.920427 
L 223.372247 442.545016 
L 226.855538 440.566351 
L 230.12486 439.630287 
L 233.28969 439.245095 
L 236.327928 440.020956 
L 239.345954 441.340114 
L 242.320528 444.225605 
L 245.414258 446.425239 
L 248.587586 448.24527 
L 248.587586 448.24527 
" clip-path="url(#pfe71579ed6)" style="fill: none; stroke: #ff0000; stroke-width: 1.5; stroke-linecap: square"/>
   </g>
   <g id="line2d_19">
    <path d="M 251.8225 69.470552 
L 248.398714 66.768633 
L 244.885651 64.271819 
L 241.293972 62.020905 
L 237.635036 60.027003 
L 233.921658 58.309631 
L 230.166576 56.874836 
L 226.382449 55.724596 
L 222.581757 54.858489 
L 218.77662 54.273715 
L 214.978806 53.966215 
L 211.199071 53.927765 
L 207.449814 54.160115 
L 203.739865 54.648415 
L 200.078952 55.385151 
L 196.476349 56.362541 
L 192.940873 57.572553 
L 189.47926 59.001636 
L 186.099114 60.641404 
L 182.803432 62.471258 
L 179.596735 64.478529 
L 176.480411 66.644336 
L 173.453212 68.946394 
L 170.511604 71.360721 
L 164.854439 76.413579 
L 154.047347 86.526142 
L 151.341578 88.879126 
L 148.595768 91.119056 
L 145.794886 93.237536 
L 142.934048 95.243675 
L 137.028128 98.973834 
L 121.774777 107.932347 
L 118.799488 109.891717 
L 115.898207 111.957967 
L 113.090834 114.145689 
L 110.394153 116.463847 
L 107.82532 118.920007 
L 105.398199 121.516883 
L 103.127036 124.256424 
L 101.02273 127.136465 
L 99.09627 130.154301 
L 97.357016 133.305257 
L 95.813421 136.583526 
L 94.469027 139.97918 
L 93.332289 143.486247 
L 92.408423 147.096081 
L 91.68877 150.790342 
L 91.177483 154.560755 
L 90.869173 158.392875 
L 90.743697 162.263981 
L 90.784386 166.155726 
L 91.25393 173.912576 
L 92.233458 185.080411 
L 92.382829 188.569248 
L 92.337165 191.909742 
L 92.033377 195.090729 
L 91.443108 198.119707 
L 90.553494 201.011816 
L 89.37814 203.792276 
L 87.957944 206.494096 
L 86.346029 209.150623 
L 77.407924 222.65041 
L 75.774323 225.496992 
L 74.252385 228.401054 
L 72.871041 231.363217 
L 71.63756 234.378697 
L 70.553611 237.441506 
L 69.615177 240.544941 
L 68.834504 243.684374 
L 68.20169 246.852448 
L 67.706562 250.042547 
L 67.349762 253.249381 
L 67.120706 256.467259 
L 67.014154 259.691346 
L 67.130265 266.141002 
L 67.631403 272.570234 
L 68.449591 278.960238 
L 69.543823 285.298195 
L 70.883822 291.575059 
L 72.461029 297.781526 
L 74.282755 303.905467 
L 76.387579 309.924833 
L 78.811898 315.811837 
L 80.155835 318.695068 
L 81.605104 321.527737 
L 83.157981 324.306052 
L 84.822945 327.022311 
L 86.613206 329.666075 
L 88.526127 332.232386 
L 90.574065 334.709616 
L 92.758717 337.089847 
L 95.091374 339.360065 
L 97.567837 341.513864 
L 100.203228 343.534585 
L 102.987537 345.417754 
L 105.925076 347.151105 
L 109.014794 348.724714 
L 112.241131 350.137307 
L 115.597974 351.382429 
L 119.056068 352.469277 
L 126.109759 354.25284 
L 132.860039 355.860848 
L 135.875474 356.809238 
L 138.463738 358.036483 
L 140.474944 359.710141 
L 141.934599 361.860698 
L 142.788381 364.593149 
L 143.107648 367.901899 
L 143.114706 371.624982 
L 142.24093 388.976363 
L 142.296468 393.44523 
L 142.558792 397.84663 
L 143.044139 402.14714 
L 143.756712 406.325332 
L 144.696281 410.363778 
L 145.861734 414.244845 
L 147.241779 417.964482 
L 148.831208 421.509869 
L 150.618372 424.877647 
L 152.591704 428.064965 
L 154.745265 431.059891 
L 157.067197 433.860279 
L 159.548362 436.459601 
L 162.176908 438.856568 
L 164.948409 441.03547 
L 167.85055 442.995616 
L 170.873436 444.731762 
L 174.013491 446.223724 
L 177.255556 447.476851 
L 180.59692 448.466168 
L 184.025723 449.187303 
L 187.533562 449.625821 
L 191.112879 449.762189 
L 194.754885 449.576947 
L 198.45108 449.045448 
L 202.189929 448.148465 
L 205.962671 446.850917 
L 209.759431 445.112356 
L 213.569892 442.881561 
L 217.381283 440.101889 
L 221.182703 436.68411 
L 224.95966 432.522483 
L 228.696471 427.467431 
L 232.375792 421.297914 
L 235.978721 413.660675 
L 239.474692 404.053278 
L 242.834677 391.44904 
L 246.019836 373.638603 
L 248.974006 344.487375 
L 251.638203 273.475579 
L 251.8225 330.048616 
L 253.624322 366.143491 
L 256.133878 386.378891 
L 259.017252 400.201229 
L 262.145018 410.536072 
L 265.445593 418.629856 
L 268.868597 425.099968 
L 272.379848 430.343349 
L 275.952114 434.608314 
L 279.560796 438.049897 
L 283.186338 440.79035 
L 286.810293 442.913776 
L 290.415432 444.482658 
L 293.983843 445.538025 
L 297.501724 446.126549 
L 300.9527 446.27359 
L 304.318994 445.994217 
L 307.586973 445.31456 
L 310.739538 444.245185 
L 313.756545 442.786715 
L 316.62337 440.956115 
L 319.318411 438.750048 
L 321.821661 436.17119 
L 324.108695 433.212791 
L 326.154315 429.869178 
L 327.932582 426.135786 
L 329.409587 421.99429 
L 330.554746 417.43792 
L 331.328742 412.446682 
L 331.695712 407.012276 
L 331.621394 401.132926 
L 331.093553 394.846374 
L 330.151698 388.270108 
L 327.706575 375.419955 
L 327.152699 370.499861 
L 327.978666 367.737157 
L 330.52859 367.363696 
L 334.586468 368.850236 
L 344.737953 373.649512 
L 349.957805 375.808942 
L 354.976908 377.481764 
L 359.713761 378.616399 
L 364.140499 379.225881 
L 368.253073 379.347761 
L 372.045462 379.015153 
L 375.529529 378.275859 
L 378.707527 377.164979 
L 381.583579 375.716772 
L 384.15516 373.957473 
L 386.429624 371.919887 
L 388.402993 369.625564 
L 390.072269 367.095861 
L 391.43542 364.351911 
L 392.486836 361.411416 
L 393.22162 358.292098 
L 393.630949 355.008671 
L 393.706496 351.576148 
L 393.440442 348.009832 
L 392.815906 344.319768 
L 391.820982 340.519613 
L 390.444133 336.623617 
L 388.66435 332.641592 
L 386.465659 328.587044 
L 383.832369 324.4744 
L 380.744056 320.316762 
L 377.19577 316.134983 
L 373.183261 311.950118 
L 368.702983 307.783401 
L 363.804067 303.675145 
L 358.589935 299.680163 
L 353.219675 295.863127 
L 343.623081 289.24058 
L 340.489683 286.675488 
L 339.120141 284.682934 
L 339.486709 283.156065 
L 341.395217 281.956456 
L 344.210898 280.875673 
L 354.990727 277.416536 
L 362.748447 274.575974 
L 370.976331 271.249235 
L 379.760737 267.384889 
L 384.353095 265.230518 
L 388.963145 262.917188 
L 393.586712 260.442684 
L 398.164266 257.80682 
L 402.636361 255.013368 
L 406.99345 252.066578 
L 411.187576 248.97455 
L 415.198707 245.745656 
L 419.007157 242.389493 
L 422.599111 238.9161 
L 425.961149 235.336335 
L 429.096609 231.658979 
L 431.992796 227.89563 
L 434.653703 224.055216 
L 437.07279 220.148788 
L 439.260025 216.183764 
L 441.204143 212.172529 
L 442.915655 208.122107 
L 444.389314 204.043604 
L 445.633969 199.944024 
L 446.647605 195.833524 
L 447.432207 191.721077 
L 447.991066 187.61513 
L 448.325659 183.524758 
L 448.440301 179.457883 
L 448.327896 175.427348 
L 448.003972 171.436265 
L 447.466024 167.495465 
L 446.70706 163.618544 
L 445.740252 159.80929 
L 444.564178 156.078731 
L 443.182666 152.435344 
L 441.590334 148.893169 
L 439.801232 145.455039 
L 437.806085 142.138035 
L 435.610273 138.950769 
L 433.219455 135.901672 
L 430.630616 133.005487 
L 427.850305 130.270722 
L 424.876634 127.71248 
L 421.717065 125.339282 
L 418.366634 123.170066 
L 414.833926 121.213516 
L 411.115491 119.489135 
L 407.214198 118.012085 
L 403.13566 116.795767 
L 398.882202 115.857486 
L 394.457439 115.214384 
L 389.867768 114.881761 
L 385.122937 114.872053 
L 380.229638 115.201672 
L 375.218526 115.85953 
L 370.110141 116.844116 
L 364.955318 118.113784 
L 354.817428 121.15683 
L 350.075668 122.597122 
L 345.759486 123.649878 
L 342.028579 124.012008 
L 338.963498 123.462439 
L 336.544887 121.915458 
L 334.629689 119.490929 
L 333.022794 116.427979 
L 328.357496 105.997191 
L 326.52801 102.710705 
L 324.49438 99.693473 
L 322.256954 96.984013 
L 319.818465 94.621269 
L 317.195948 92.613532 
L 314.408593 90.963311 
L 311.475468 89.67239 
L 308.420629 88.726059 
L 305.263628 88.119133 
L 302.029552 87.824388 
L 298.74427 87.802758 
L 295.432121 88.00855 
L 282.430608 89.329981 
L 279.340202 89.177255 
L 276.32615 88.564659 
L 273.369854 87.428075 
L 270.444328 85.742333 
L 267.513233 83.571292 
L 264.542455 81.01336 
L 255.149292 72.32539 
L 255.149292 72.32539 
" clip-path="url(#pfe71579ed6)" style="fill: none; stroke-dasharray: 5.55,2.4; stroke-dashoffset: 0; stroke: #0000ff; stroke-width: 1.5"/>
   </g>
   <g id="patch_3">
    <path d="M 251.8225 41.157188 
C 222.701244 41.157188 193.863155 46.89344 166.958622 58.037662 
C 140.054089 69.181885 115.606338 85.51735 95.0145 106.109188 
C 74.422662 126.701026 58.087197 151.148777 46.942975 178.05331 
C 35.798753 204.957842 30.0625 233.795931 30.0625 262.917188 
C 30.0625 292.038444 35.798753 320.876533 46.942975 347.781065 
C 58.087197 374.685598 74.422662 399.133349 95.0145 419.725187 
C 115.606338 440.317025 140.054089 456.65249 166.958622 467.796713 
C 193.863155 478.940935 222.701244 484.677188 251.8225 484.677188 
C 280.943756 484.677188 309.781845 478.940935 336.686378 467.796713 
C 363.590911 456.65249 388.038662 440.317025 408.6305 419.725187 
C 429.222338 399.133349 445.557803 374.685598 456.702025 347.781065 
C 467.846247 320.876533 473.5825 292.038444 473.5825 262.917188 
C 473.5825 233.795931 467.846247 204.957842 456.702025 178.05331 
C 445.557803 151.148777 429.222338 126.701026 408.6305 106.109188 
C 388.038662 85.51735 363.590911 69.181885 336.686378 58.037662 
C 309.781845 46.89344 280.943756 41.157188 251.8225 41.157188 
" style="fill: none; stroke: #000000; stroke-width: 0.8; stroke-linejoin: miter; stroke-linecap: square"/>
   </g>
   <g id="text_18">
    <g id="patch_4">
     <path d="M 384.8785 509.853188 
L 488.976938 509.853188 
Q 491.976938 509.853188 491.976938 506.853188 
L 491.976938 473.945063 
Q 491.976938 470.945063 488.976938 470.945063 
L 384.8785 470.945063 
Q 381.8785 470.945063 381.8785 473.945063 
L 381.8785 506.853188 
Q 381.8785 509.853188 384.8785 509.853188 
z
" style="fill: #ffffff; stroke: #808080; stroke-linejoin: miter"/>
    </g>
    <!-- G_cst: 2.7 dBi -->
    <g transform="translate(384.8785 481.821625)scale(0.1 -0.1)">
     <defs>
      <path id="DejaVuSans-47" d="M 3809 666 
L 3809 1919 
L 2778 1919 
L 2778 2438 
L 4434 2438 
L 4434 434 
Q 4069 175 3628 42 
Q 3188 -91 2688 -91 
Q 1594 -91 976 548 
Q 359 1188 359 2328 
Q 359 3472 976 4111 
Q 1594 4750 2688 4750 
Q 3144 4750 3555 4637 
Q 3966 4525 4313 4306 
L 4313 3634 
Q 3963 3931 3569 4081 
Q 3175 4231 2741 4231 
Q 1884 4231 1454 3753 
Q 1025 3275 1025 2328 
Q 1025 1384 1454 906 
Q 1884 428 2741 428 
Q 3075 428 3337 486 
Q 3600 544 3809 666 
z
" transform="scale(0.015625)"/>
      <path id="DejaVuSans-5f" d="M 3263 -1063 
L 3263 -1509 
L -63 -1509 
L -63 -1063 
L 3263 -1063 
z
" transform="scale(0.015625)"/>
      <path id="DejaVuSans-63" d="M 3122 3366 
L 3122 2828 
Q 2878 2963 2633 3030 
Q 2388 3097 2138 3097 
Q 1578 3097 1268 2742 
Q 959 2388 959 1747 
Q 959 1106 1268 751 
Q 1578 397 2138 397 
Q 2388 397 2633 464 
Q 2878 531 3122 666 
L 3122 134 
Q 2881 22 2623 -34 
Q 2366 -91 2075 -91 
Q 1284 -91 818 406 
Q 353 903 353 1747 
Q 353 2603 823 3093 
Q 1294 3584 2113 3584 
Q 2378 3584 2631 3529 
Q 2884 3475 3122 3366 
z
" transform="scale(0.015625)"/>
      <path id="DejaVuSans-73" d="M 2834 3397 
L 2834 2853 
Q 2591 2978 2328 3040 
Q 2066 3103 1784 3103 
Q 1356 3103 1142 2972 
Q 928 2841 928 2578 
Q 928 2378 1081 2264 
Q 1234 2150 1697 2047 
L 1894 2003 
Q 2506 1872 2764 1633 
Q 3022 1394 3022 966 
Q 3022 478 2636 193 
Q 2250 -91 1575 -91 
Q 1294 -91 989 -36 
Q 684 19 347 128 
L 347 722 
Q 666 556 975 473 
Q 1284 391 1588 391 
Q 1994 391 2212 530 
Q 2431 669 2431 922 
Q 2431 1156 2273 1281 
Q 2116 1406 1581 1522 
L 1381 1569 
Q 847 1681 609 1914 
Q 372 2147 372 2553 
Q 372 3047 722 3315 
Q 1072 3584 1716 3584 
Q 2034 3584 2315 3537 
Q 2597 3491 2834 3397 
z
" transform="scale(0.015625)"/>
      <path id="DejaVuSans-74" d="M 1172 4494 
L 1172 3500 
L 2356 3500 
L 2356 3053 
L 1172 3053 
L 1172 1153 
Q 1172 725 1289 603 
Q 1406 481 1766 481 
L 2356 481 
L 2356 0 
L 1766 0 
Q 1100 0 847 248 
Q 594 497 594 1153 
L 594 3053 
L 172 3053 
L 172 3500 
L 594 3500 
L 594 4494 
L 1172 4494 
z
" transform="scale(0.015625)"/>
      <path id="DejaVuSans-3a" d="M 750 794 
L 1409 794 
L 1409 0 
L 750 0 
L 750 794 
z
M 750 3309 
L 1409 3309 
L 1409 2516 
L 750 2516 
L 750 3309 
z
" transform="scale(0.015625)"/>
      <path id="DejaVuSans-20" transform="scale(0.015625)"/>
      <path id="DejaVuSans-2e" d="M 684 794 
L 1344 794 
L 1344 0 
L 684 0 
L 684 794 
z
" transform="scale(0.015625)"/>
      <path id="DejaVuSans-64" d="M 2906 2969 
L 2906 4863 
L 3481 4863 
L 3481 0 
L 2906 0 
L 2906 525 
Q 2725 213 2448 61 
Q 2172 -91 1784 -91 
Q 1150 -91 751 415 
Q 353 922 353 1747 
Q 353 2572 751 3078 
Q 1150 3584 1784 3584 
Q 2172 3584 2448 3432 
Q 2725 3281 2906 2969 
z
M 947 1747 
Q 947 1113 1208 752 
Q 1469 391 1925 391 
Q 2381 391 2643 752 
Q 2906 1113 2906 1747 
Q 2906 2381 2643 2742 
Q 2381 3103 1925 3103 
Q 1469 3103 1208 2742 
Q 947 2381 947 1747 
z
" transform="scale(0.015625)"/>
      <path id="DejaVuSans-42" d="M 1259 2228 
L 1259 519 
L 2272 519 
Q 2781 519 3026 730 
Q 3272 941 3272 1375 
Q 3272 1813 3026 2020 
Q 2781 2228 2272 2228 
L 1259 2228 
z
M 1259 4147 
L 1259 2741 
L 2194 2741 
Q 2656 2741 2882 2914 
Q 3109 3088 3109 3444 
Q 3109 3797 2882 3972 
Q 2656 4147 2194 4147 
L 1259 4147 
z
M 628 4666 
L 2241 4666 
Q 2963 4666 3353 4366 
Q 3744 4066 3744 3513 
Q 3744 3084 3544 2831 
Q 3344 2578 2956 2516 
Q 3422 2416 3680 2098 
Q 3938 1781 3938 1306 
Q 3938 681 3513 340 
Q 3088 0 2303 0 
L 628 0 
L 628 4666 
z
" transform="scale(0.015625)"/>
      <path id="DejaVuSans-69" d="M 603 3500 
L 1178 3500 
L 1178 0 
L 603 0 
L 603 3500 
z
M 603 4863 
L 1178 4863 
L 1178 4134 
L 603 4134 
L 603 4863 
z
" transform="scale(0.015625)"/>
     </defs>
     <use xlink:href="#DejaVuSans-47"/>
     <use xlink:href="#DejaVuSans-5f" x="77.490234"/>
     <use xlink:href="#DejaVuSans-63" x="127.490234"/>
     <use xlink:href="#DejaVuSans-73" x="182.470703"/>
     <use xlink:href="#DejaVuSans-74" x="234.570312"/>
     <use xlink:href="#DejaVuSans-3a" x="273.779297"/>
     <use xlink:href="#DejaVuSans-20" x="307.470703"/>
     <use xlink:href="#DejaVuSans-32" x="339.257812"/>
     <use xlink:href="#DejaVuSans-2e" x="402.880859"/>
     <use xlink:href="#DejaVuSans-37" x="434.667969"/>
     <use xlink:href="#DejaVuSans-20" x="498.291016"/>
     <use xlink:href="#DejaVuSans-64" x="530.078125"/>
     <use xlink:href="#DejaVuSans-42" x="593.554688"/>
     <use xlink:href="#DejaVuSans-69" x="662.158203"/>
    </g>
    <!-- G_inpe: 1.6 dBi -->
    <g transform="translate(384.8785 493.297563)scale(0.1 -0.1)">
     <defs>
      <path id="DejaVuSans-6e" d="M 3513 2113 
L 3513 0 
L 2938 0 
L 2938 2094 
Q 2938 2591 2744 2837 
Q 2550 3084 2163 3084 
Q 1697 3084 1428 2787 
Q 1159 2491 1159 1978 
L 1159 0 
L 581 0 
L 581 3500 
L 1159 3500 
L 1159 2956 
Q 1366 3272 1645 3428 
Q 1925 3584 2291 3584 
Q 2894 3584 3203 3211 
Q 3513 2838 3513 2113 
z
" transform="scale(0.015625)"/>
      <path id="DejaVuSans-70" d="M 1159 525 
L 1159 -1331 
L 581 -1331 
L 581 3500 
L 1159 3500 
L 1159 2969 
Q 1341 3281 1617 3432 
Q 1894 3584 2278 3584 
Q 2916 3584 3314 3078 
Q 3713 2572 3713 1747 
Q 3713 922 3314 415 
Q 2916 -91 2278 -91 
Q 1894 -91 1617 61 
Q 1341 213 1159 525 
z
M 3116 1747 
Q 3116 2381 2855 2742 
Q 2594 3103 2138 3103 
Q 1681 3103 1420 2742 
Q 1159 2381 1159 1747 
Q 1159 1113 1420 752 
Q 1681 391 2138 391 
Q 2594 391 2855 752 
Q 3116 1113 3116 1747 
z
" transform="scale(0.015625)"/>
      <path id="DejaVuSans-65" d="M 3597 1894 
L 3597 1613 
L 953 1613 
Q 991 1019 1311 708 
Q 1631 397 2203 397 
Q 2534 397 2845 478 
Q 3156 559 3463 722 
L 3463 178 
Q 3153 47 2828 -22 
Q 2503 -91 2169 -91 
Q 1331 -91 842 396 
Q 353 884 353 1716 
Q 353 2575 817 3079 
Q 1281 3584 2069 3584 
Q 2775 3584 3186 3129 
Q 3597 2675 3597 1894 
z
M 3022 2063 
Q 3016 2534 2758 2815 
Q 2500 3097 2075 3097 
Q 1594 3097 1305 2825 
Q 1016 2553 972 2059 
L 3022 2063 
z
" transform="scale(0.015625)"/>
      <path id="DejaVuSans-36" d="M 2113 2584 
Q 1688 2584 1439 2293 
Q 1191 2003 1191 1497 
Q 1191 994 1439 701 
Q 1688 409 2113 409 
Q 2538 409 2786 701 
Q 3034 994 3034 1497 
Q 3034 2003 2786 2293 
Q 2538 2584 2113 2584 
z
M 3366 4563 
L 3366 3988 
Q 3128 4100 2886 4159 
Q 2644 4219 2406 4219 
Q 1781 4219 1451 3797 
Q 1122 3375 1075 2522 
Q 1259 2794 1537 2939 
Q 1816 3084 2150 3084 
Q 2853 3084 3261 2657 
Q 3669 2231 3669 1497 
Q 3669 778 3244 343 
Q 2819 -91 2113 -91 
Q 1303 -91 875 529 
Q 447 1150 447 2328 
Q 447 3434 972 4092 
Q 1497 4750 2381 4750 
Q 2619 4750 2861 4703 
Q 3103 4656 3366 4563 
z
" transform="scale(0.015625)"/>
     </defs>
     <use xlink:href="#DejaVuSans-47"/>
     <use xlink:href="#DejaVuSans-5f" x="77.490234"/>
     <use xlink:href="#DejaVuSans-69" x="127.490234"/>
     <use xlink:href="#DejaVuSans-6e" x="155.273438"/>
     <use xlink:href="#DejaVuSans-70" x="218.652344"/>
     <use xlink:href="#DejaVuSans-65" x="282.128906"/>
     <use xlink:href="#DejaVuSans-3a" x="343.652344"/>
     <use xlink:href="#DejaVuSans-20" x="377.34375"/>
     <use xlink:href="#DejaVuSans-31" x="409.130859"/>
     <use xlink:href="#DejaVuSans-2e" x="472.753906"/>
     <use xlink:href="#DejaVuSans-36" x="504.541016"/>
     <use xlink:href="#DejaVuSans-20" x="568.164062"/>
     <use xlink:href="#DejaVuSans-64" x="599.951172"/>
     <use xlink:href="#DejaVuSans-42" x="663.427734"/>
     <use xlink:href="#DejaVuSans-69" x="732.03125"/>
    </g>
    <!-- Pearson Coef: -0.149 -->
    <g transform="translate(384.8785 504.7735)scale(0.1 -0.1)">
     <defs>
      <path id="DejaVuSans-50" d="M 1259 4147 
L 1259 2394 
L 2053 2394 
Q 2494 2394 2734 2622 
Q 2975 2850 2975 3272 
Q 2975 3691 2734 3919 
Q 2494 4147 2053 4147 
L 1259 4147 
z
M 628 4666 
L 2053 4666 
Q 2838 4666 3239 4311 
Q 3641 3956 3641 3272 
Q 3641 2581 3239 2228 
Q 2838 1875 2053 1875 
L 1259 1875 
L 1259 0 
L 628 0 
L 628 4666 
z
" transform="scale(0.015625)"/>
      <path id="DejaVuSans-61" d="M 2194 1759 
Q 1497 1759 1228 1600 
Q 959 1441 959 1056 
Q 959 750 1161 570 
Q 1363 391 1709 391 
Q 2188 391 2477 730 
Q 2766 1069 2766 1631 
L 2766 1759 
L 2194 1759 
z
M 3341 1997 
L 3341 0 
L 2766 0 
L 2766 531 
Q 2569 213 2275 61 
Q 1981 -91 1556 -91 
Q 1019 -91 701 211 
Q 384 513 384 1019 
Q 384 1609 779 1909 
Q 1175 2209 1959 2209 
L 2766 2209 
L 2766 2266 
Q 2766 2663 2505 2880 
Q 2244 3097 1772 3097 
Q 1472 3097 1187 3025 
Q 903 2953 641 2809 
L 641 3341 
Q 956 3463 1253 3523 
Q 1550 3584 1831 3584 
Q 2591 3584 2966 3190 
Q 3341 2797 3341 1997 
z
" transform="scale(0.015625)"/>
      <path id="DejaVuSans-72" d="M 2631 2963 
Q 2534 3019 2420 3045 
Q 2306 3072 2169 3072 
Q 1681 3072 1420 2755 
Q 1159 2438 1159 1844 
L 1159 0 
L 581 0 
L 581 3500 
L 1159 3500 
L 1159 2956 
Q 1341 3275 1631 3429 
Q 1922 3584 2338 3584 
Q 2397 3584 2469 3576 
Q 2541 3569 2628 3553 
L 2631 2963 
z
" transform="scale(0.015625)"/>
      <path id="DejaVuSans-6f" d="M 1959 3097 
Q 1497 3097 1228 2736 
Q 959 2375 959 1747 
Q 959 1119 1226 758 
Q 1494 397 1959 397 
Q 2419 397 2687 759 
Q 2956 1122 2956 1747 
Q 2956 2369 2687 2733 
Q 2419 3097 1959 3097 
z
M 1959 3584 
Q 2709 3584 3137 3096 
Q 3566 2609 3566 1747 
Q 3566 888 3137 398 
Q 2709 -91 1959 -91 
Q 1206 -91 779 398 
Q 353 888 353 1747 
Q 353 2609 779 3096 
Q 1206 3584 1959 3584 
z
" transform="scale(0.015625)"/>
      <path id="DejaVuSans-43" d="M 4122 4306 
L 4122 3641 
Q 3803 3938 3442 4084 
Q 3081 4231 2675 4231 
Q 1875 4231 1450 3742 
Q 1025 3253 1025 2328 
Q 1025 1406 1450 917 
Q 1875 428 2675 428 
Q 3081 428 3442 575 
Q 3803 722 4122 1019 
L 4122 359 
Q 3791 134 3420 21 
Q 3050 -91 2638 -91 
Q 1578 -91 968 557 
Q 359 1206 359 2328 
Q 359 3453 968 4101 
Q 1578 4750 2638 4750 
Q 3056 4750 3426 4639 
Q 3797 4528 4122 4306 
z
" transform="scale(0.015625)"/>
      <path id="DejaVuSans-66" d="M 2375 4863 
L 2375 4384 
L 1825 4384 
Q 1516 4384 1395 4259 
Q 1275 4134 1275 3809 
L 1275 3500 
L 2222 3500 
L 2222 3053 
L 1275 3053 
L 1275 0 
L 697 0 
L 697 3053 
L 147 3053 
L 147 3500 
L 697 3500 
L 697 3744 
Q 697 4328 969 4595 
Q 1241 4863 1831 4863 
L 2375 4863 
z
" transform="scale(0.015625)"/>
      <path id="DejaVuSans-2d" d="M 313 2009 
L 1997 2009 
L 1997 1497 
L 313 1497 
L 313 2009 
z
" transform="scale(0.015625)"/>
     </defs>
     <use xlink:href="#DejaVuSans-50"/>
     <use xlink:href="#DejaVuSans-65" x="56.677734"/>
     <use xlink:href="#DejaVuSans-61" x="118.201172"/>
     <use xlink:href="#DejaVuSans-72" x="179.480469"/>
     <use xlink:href="#DejaVuSans-73" x="220.59375"/>
     <use xlink:href="#DejaVuSans-6f" x="272.693359"/>
     <use xlink:href="#DejaVuSans-6e" x="333.875"/>
     <use xlink:href="#DejaVuSans-20" x="397.253906"/>
     <use xlink:href="#DejaVuSans-43" x="429.041016"/>
     <use xlink:href="#DejaVuSans-6f" x="498.865234"/>
     <use xlink:href="#DejaVuSans-65" x="560.046875"/>
     <use xlink:href="#DejaVuSans-66" x="621.570312"/>
     <use xlink:href="#DejaVuSans-3a" x="653.150391"/>
     <use xlink:href="#DejaVuSans-20" x="686.841797"/>
     <use xlink:href="#DejaVuSans-2d" x="718.628906"/>
     <use xlink:href="#DejaVuSans-30" x="754.712891"/>
     <use xlink:href="#DejaVuSans-2e" x="818.335938"/>
     <use xlink:href="#DejaVuSans-31" x="850.123047"/>
     <use xlink:href="#DejaVuSans-34" x="913.746094"/>
     <use xlink:href="#DejaVuSans-39" x="977.369141"/>
    </g>
   </g>
   <g id="text_19">
    <g id="patch_5">
     <path d="M 52.2385 56.370938 
L 140.94475 56.370938 
Q 144.54475 56.370938 144.54475 52.770938 
L 144.54475 41.157188 
Q 144.54475 37.557188 140.94475 37.557188 
L 52.2385 37.557188 
Q 48.6385 37.557188 48.6385 41.157188 
L 48.6385 52.770938 
Q 48.6385 56.370938 52.2385 56.370938 
z
" style="fill: #ffffff; stroke: #808080; stroke-linejoin: miter"/>
    </g>
    <!-- Freq: 12.5 GHz -->
    <g transform="translate(52.2385 50.275313)scale(0.12 -0.12)">
     <defs>
      <path id="DejaVuSans-46" d="M 628 4666 
L 3309 4666 
L 3309 4134 
L 1259 4134 
L 1259 2759 
L 3109 2759 
L 3109 2228 
L 1259 2228 
L 1259 0 
L 628 0 
L 628 4666 
z
" transform="scale(0.015625)"/>
      <path id="DejaVuSans-71" d="M 947 1747 
Q 947 1113 1208 752 
Q 1469 391 1925 391 
Q 2381 391 2643 752 
Q 2906 1113 2906 1747 
Q 2906 2381 2643 2742 
Q 2381 3103 1925 3103 
Q 1469 3103 1208 2742 
Q 947 2381 947 1747 
z
M 2906 525 
Q 2725 213 2448 61 
Q 2172 -91 1784 -91 
Q 1150 -91 751 415 
Q 353 922 353 1747 
Q 353 2572 751 3078 
Q 1150 3584 1784 3584 
Q 2172 3584 2448 3432 
Q 2725 3281 2906 2969 
L 2906 3500 
L 3481 3500 
L 3481 -1331 
L 2906 -1331 
L 2906 525 
z
" transform="scale(0.015625)"/>
      <path id="DejaVuSans-48" d="M 628 4666 
L 1259 4666 
L 1259 2753 
L 3553 2753 
L 3553 4666 
L 4184 4666 
L 4184 0 
L 3553 0 
L 3553 2222 
L 1259 2222 
L 1259 0 
L 628 0 
L 628 4666 
z
" transform="scale(0.015625)"/>
      <path id="DejaVuSans-7a" d="M 353 3500 
L 3084 3500 
L 3084 2975 
L 922 459 
L 3084 459 
L 3084 0 
L 275 0 
L 275 525 
L 2438 3041 
L 353 3041 
L 353 3500 
z
" transform="scale(0.015625)"/>
     </defs>
     <use xlink:href="#DejaVuSans-46"/>
     <use xlink:href="#DejaVuSans-72" x="50.269531"/>
     <use xlink:href="#DejaVuSans-65" x="89.132812"/>
     <use xlink:href="#DejaVuSans-71" x="150.65625"/>
     <use xlink:href="#DejaVuSans-3a" x="214.132812"/>
     <use xlink:href="#DejaVuSans-20" x="247.824219"/>
     <use xlink:href="#DejaVuSans-31" x="279.611328"/>
     <use xlink:href="#DejaVuSans-32" x="343.234375"/>
     <use xlink:href="#DejaVuSans-2e" x="406.857422"/>
     <use xlink:href="#DejaVuSans-35" x="438.644531"/>
     <use xlink:href="#DejaVuSans-20" x="502.267578"/>
     <use xlink:href="#DejaVuSans-47" x="534.054688"/>
     <use xlink:href="#DejaVuSans-48" x="611.544922"/>
     <use xlink:href="#DejaVuSans-7a" x="686.740234"/>
    </g>
   </g>
   <g id="text_20">
    <!-- Radiation Diagram - 1AVHF12 -->
    <g transform="translate(162.578125 16.318125)scale(0.12 -0.12)">
     <defs>
      <path id="DejaVuSans-52" d="M 2841 2188 
Q 3044 2119 3236 1894 
Q 3428 1669 3622 1275 
L 4263 0 
L 3584 0 
L 2988 1197 
Q 2756 1666 2539 1819 
Q 2322 1972 1947 1972 
L 1259 1972 
L 1259 0 
L 628 0 
L 628 4666 
L 2053 4666 
Q 2853 4666 3247 4331 
Q 3641 3997 3641 3322 
Q 3641 2881 3436 2590 
Q 3231 2300 2841 2188 
z
M 1259 4147 
L 1259 2491 
L 2053 2491 
Q 2509 2491 2742 2702 
Q 2975 2913 2975 3322 
Q 2975 3731 2742 3939 
Q 2509 4147 2053 4147 
L 1259 4147 
z
" transform="scale(0.015625)"/>
      <path id="DejaVuSans-44" d="M 1259 4147 
L 1259 519 
L 2022 519 
Q 2988 519 3436 956 
Q 3884 1394 3884 2338 
Q 3884 3275 3436 3711 
Q 2988 4147 2022 4147 
L 1259 4147 
z
M 628 4666 
L 1925 4666 
Q 3281 4666 3915 4102 
Q 4550 3538 4550 2338 
Q 4550 1131 3912 565 
Q 3275 0 1925 0 
L 628 0 
L 628 4666 
z
" transform="scale(0.015625)"/>
      <path id="DejaVuSans-67" d="M 2906 1791 
Q 2906 2416 2648 2759 
Q 2391 3103 1925 3103 
Q 1463 3103 1205 2759 
Q 947 2416 947 1791 
Q 947 1169 1205 825 
Q 1463 481 1925 481 
Q 2391 481 2648 825 
Q 2906 1169 2906 1791 
z
M 3481 434 
Q 3481 -459 3084 -895 
Q 2688 -1331 1869 -1331 
Q 1566 -1331 1297 -1286 
Q 1028 -1241 775 -1147 
L 775 -588 
Q 1028 -725 1275 -790 
Q 1522 -856 1778 -856 
Q 2344 -856 2625 -561 
Q 2906 -266 2906 331 
L 2906 616 
Q 2728 306 2450 153 
Q 2172 0 1784 0 
Q 1141 0 747 490 
Q 353 981 353 1791 
Q 353 2603 747 3093 
Q 1141 3584 1784 3584 
Q 2172 3584 2450 3431 
Q 2728 3278 2906 2969 
L 2906 3500 
L 3481 3500 
L 3481 434 
z
" transform="scale(0.015625)"/>
      <path id="DejaVuSans-6d" d="M 3328 2828 
Q 3544 3216 3844 3400 
Q 4144 3584 4550 3584 
Q 5097 3584 5394 3201 
Q 5691 2819 5691 2113 
L 5691 0 
L 5113 0 
L 5113 2094 
Q 5113 2597 4934 2840 
Q 4756 3084 4391 3084 
Q 3944 3084 3684 2787 
Q 3425 2491 3425 1978 
L 3425 0 
L 2847 0 
L 2847 2094 
Q 2847 2600 2669 2842 
Q 2491 3084 2119 3084 
Q 1678 3084 1418 2786 
Q 1159 2488 1159 1978 
L 1159 0 
L 581 0 
L 581 3500 
L 1159 3500 
L 1159 2956 
Q 1356 3278 1631 3431 
Q 1906 3584 2284 3584 
Q 2666 3584 2933 3390 
Q 3200 3197 3328 2828 
z
" transform="scale(0.015625)"/>
      <path id="DejaVuSans-41" d="M 2188 4044 
L 1331 1722 
L 3047 1722 
L 2188 4044 
z
M 1831 4666 
L 2547 4666 
L 4325 0 
L 3669 0 
L 3244 1197 
L 1141 1197 
L 716 0 
L 50 0 
L 1831 4666 
z
" transform="scale(0.015625)"/>
      <path id="DejaVuSans-56" d="M 1831 0 
L 50 4666 
L 709 4666 
L 2188 738 
L 3669 4666 
L 4325 4666 
L 2547 0 
L 1831 0 
z
" transform="scale(0.015625)"/>
     </defs>
     <use xlink:href="#DejaVuSans-52"/>
     <use xlink:href="#DejaVuSans-61" x="67.232422"/>
     <use xlink:href="#DejaVuSans-64" x="128.511719"/>
     <use xlink:href="#DejaVuSans-69" x="191.988281"/>
     <use xlink:href="#DejaVuSans-61" x="219.771484"/>
     <use xlink:href="#DejaVuSans-74" x="281.050781"/>
     <use xlink:href="#DejaVuSans-69" x="320.259766"/>
     <use xlink:href="#DejaVuSans-6f" x="348.042969"/>
     <use xlink:href="#DejaVuSans-6e" x="409.224609"/>
     <use xlink:href="#DejaVuSans-20" x="472.603516"/>
     <use xlink:href="#DejaVuSans-44" x="504.390625"/>
     <use xlink:href="#DejaVuSans-69" x="581.392578"/>
     <use xlink:href="#DejaVuSans-61" x="609.175781"/>
     <use xlink:href="#DejaVuSans-67" x="670.455078"/>
     <use xlink:href="#DejaVuSans-72" x="733.931641"/>
     <use xlink:href="#DejaVuSans-61" x="775.044922"/>
     <use xlink:href="#DejaVuSans-6d" x="836.324219"/>
     <use xlink:href="#DejaVuSans-20" x="933.736328"/>
     <use xlink:href="#DejaVuSans-2d" x="965.523438"/>
     <use xlink:href="#DejaVuSans-20" x="1001.607422"/>
     <use xlink:href="#DejaVuSans-31" x="1033.394531"/>
     <use xlink:href="#DejaVuSans-41" x="1097.017578"/>
     <use xlink:href="#DejaVuSans-56" x="1159.050781"/>
     <use xlink:href="#DejaVuSans-48" x="1227.458984"/>
     <use xlink:href="#DejaVuSans-46" x="1302.654297"/>
     <use xlink:href="#DejaVuSans-31" x="1360.173828"/>
     <use xlink:href="#DejaVuSans-32" x="1423.796875"/>
    </g>
   </g>
   <g id="legend_1">
    <g id="patch_6">
     <path d="M 411.802812 78.513438 
L 466.5825 78.513438 
Q 468.5825 78.513438 468.5825 76.513438 
L 468.5825 48.157188 
Q 468.5825 46.157188 466.5825 46.157188 
L 411.802812 46.157188 
Q 409.802812 46.157188 409.802812 48.157188 
L 409.802812 76.513438 
Q 409.802812 78.513438 411.802812 78.513438 
z
" style="fill: #ffffff; opacity: 0.8; stroke: #cccccc; stroke-linejoin: miter"/>
    </g>
    <g id="line2d_20">
     <path d="M 413.802812 54.255625 
L 423.802812 54.255625 
L 433.802812 54.255625 
" style="fill: none; stroke: #ff0000; stroke-width: 1.5; stroke-linecap: square"/>
    </g>
    <g id="text_21">
     <!-- INPE -->
     <g transform="translate(441.802812 57.755625)scale(0.1 -0.1)">
      <defs>
       <path id="DejaVuSans-49" d="M 628 4666 
L 1259 4666 
L 1259 0 
L 628 0 
L 628 4666 
z
" transform="scale(0.015625)"/>
       <path id="DejaVuSans-4e" d="M 628 4666 
L 1478 4666 
L 3547 763 
L 3547 4666 
L 4159 4666 
L 4159 0 
L 3309 0 
L 1241 3903 
L 1241 0 
L 628 0 
L 628 4666 
z
" transform="scale(0.015625)"/>
       <path id="DejaVuSans-45" d="M 628 4666 
L 3578 4666 
L 3578 4134 
L 1259 4134 
L 1259 2753 
L 3481 2753 
L 3481 2222 
L 1259 2222 
L 1259 531 
L 3634 531 
L 3634 0 
L 628 0 
L 628 4666 
z
" transform="scale(0.015625)"/>
      </defs>
      <use xlink:href="#DejaVuSans-49"/>
      <use xlink:href="#DejaVuSans-4e" x="29.492188"/>
      <use xlink:href="#DejaVuSans-50" x="104.296875"/>
      <use xlink:href="#DejaVuSans-45" x="164.599609"/>
     </g>
    </g>
    <g id="line2d_21">
     <path d="M 413.802812 68.93375 
L 423.802812 68.93375 
L 433.802812 68.93375 
" style="fill: none; stroke-dasharray: 5.55,2.4; stroke-dashoffset: 0; stroke: #0000ff; stroke-width: 1.5"/>
    </g>
    <g id="text_22">
     <!-- CST -->
     <g transform="translate(441.802812 72.43375)scale(0.1 -0.1)">
      <defs>
       <path id="DejaVuSans-53" d="M 3425 4513 
L 3425 3897 
Q 3066 4069 2747 4153 
Q 2428 4238 2131 4238 
Q 1616 4238 1336 4038 
Q 1056 3838 1056 3469 
Q 1056 3159 1242 3001 
Q 1428 2844 1947 2747 
L 2328 2669 
Q 3034 2534 3370 2195 
Q 3706 1856 3706 1288 
Q 3706 609 3251 259 
Q 2797 -91 1919 -91 
Q 1588 -91 1214 -16 
Q 841 59 441 206 
L 441 856 
Q 825 641 1194 531 
Q 1563 422 1919 422 
Q 2459 422 2753 634 
Q 3047 847 3047 1241 
Q 3047 1584 2836 1778 
Q 2625 1972 2144 2069 
L 1759 2144 
Q 1053 2284 737 2584 
Q 422 2884 422 3419 
Q 422 4038 858 4394 
Q 1294 4750 2059 4750 
Q 2388 4750 2728 4690 
Q 3069 4631 3425 4513 
z
" transform="scale(0.015625)"/>
       <path id="DejaVuSans-54" d="M -19 4666 
L 3928 4666 
L 3928 4134 
L 2272 4134 
L 2272 0 
L 1638 0 
L 1638 4134 
L -19 4134 
L -19 4666 
z
" transform="scale(0.015625)"/>
      </defs>
      <use xlink:href="#DejaVuSans-43"/>
      <use xlink:href="#DejaVuSans-53" x="69.824219"/>
      <use xlink:href="#DejaVuSans-54" x="133.300781"/>
     </g>
    </g>
   </g>
  </g>
 </g>
 <defs>
  <clipPath id="pfe71579ed6">
   <path d="M 473.5825 262.917188 
C 473.5825 233.795931 467.846247 204.957842 456.702025 178.05331 
C 445.557803 151.148777 429.222338 126.701026 408.6305 106.109188 
C 388.038662 85.51735 363.590911 69.181885 336.686378 58.037662 
C 309.781845 46.89344 280.943756 41.157188 251.8225 41.157188 
C 222.701244 41.157188 193.863155 46.89344 166.958622 58.037662 
C 140.054089 69.181885 115.606338 85.51735 95.0145 106.109188 
C 74.422662 126.701026 58.087197 151.148777 46.942975 178.05331 
C 35.798753 204.957842 30.0625 233.795931 30.0625 262.917188 
C 30.0625 292.038444 35.798753 320.876533 46.942975 347.781065 
C 58.087197 374.685598 74.422662 399.133349 95.0145 419.725187 
C 115.606338 440.317025 140.054089 456.65249 166.958622 467.796713 
C 193.863155 478.940935 222.701244 484.677188 251.8225 484.677188 
C 280.943756 484.677188 309.781845 478.940935 336.686378 467.796713 
C 363.590911 456.65249 388.038662 440.317025 408.6305 419.725187 
C 429.222338 399.133349 445.557803 374.685598 456.702025 347.781065 
C 467.846247 320.876533 473.5825 292.038444 473.5825 262.917188 
M 251.8225 262.917188 
C 251.8225 262.917188 251.8225 262.917188 251.8225 262.917188 
C 251.8225 262.917188 251.8225 262.917188 251.8225 262.917188 
C 251.8225 262.917188 251.8225 262.917188 251.8225 262.917188 
C 251.8225 262.917188 251.8225 262.917188 251.8225 262.917188 
C 251.8225 262.917188 251.8225 262.917188 251.8225 262.917188 
C 251.8225 262.917188 251.8225 262.917188 251.8225 262.917188 
C 251.8225 262.917188 251.8225 262.917188 251.8225 262.917188 
C 251.8225 262.917188 251.8225 262.917188 251.8225 262.917188 
C 251.8225 262.917188 251.8225 262.917188 251.8225 262.917188 
C 251.8225 262.917188 251.8225 262.917188 251.8225 262.917188 
C 251.8225 262.917188 251.8225 262.917188 251.8225 262.917188 
C 251.8225 262.917188 251.8225 262.917188 251.8225 262.917188 
C 251.8225 262.917188 251.8225 262.917188 251.8225 262.917188 
C 251.8225 262.917188 251.8225 262.917188 251.8225 262.917188 
C 251.8225 262.917188 251.8225 262.917188 251.8225 262.917188 
C 251.8225 262.917188 251.8225 262.917188 251.8225 262.917188 
M 473.5825 262.917188 
z
"/>
  </clipPath>
 </defs>
</svg>
