<?xml version="1.0" encoding="utf-8" standalone="no"?>
<!DOCTYPE svg PUBLIC "-//W3C//DTD SVG 1.1//EN"
  "http://www.w3.org/Graphics/SVG/1.1/DTD/svg11.dtd">
<svg xmlns:xlink="http://www.w3.org/1999/xlink" width="506.82625pt" height="514.053188pt" viewBox="0 0 506.82625 514.053188" xmlns="http://www.w3.org/2000/svg" version="1.1">
 <metadata>
  <rdf:RDF xmlns:dc="http://purl.org/dc/elements/1.1/" xmlns:cc="http://creativecommons.org/ns#" xmlns:rdf="http://www.w3.org/1999/02/22-rdf-syntax-ns#">
   <cc:Work>
    <dc:type rdf:resource="http://purl.org/dc/dcmitype/StillImage"/>
    <dc:date>2023-11-04T18:00:50.824780</dc:date>
    <dc:format>image/svg+xml</dc:format>
    <dc:creator>
     <cc:Agent>
      <dc:title>Matplotlib v3.5.1, https://matplotlib.org/</dc:title>
     </cc:Agent>
    </dc:creator>
   </cc:Work>
  </rdf:RDF>
 </metadata>
 <defs>
  <style type="text/css">*{stroke-linejoin: round; stroke-linecap: butt}</style>
 </defs>
 <g id="figure_1">
  <g id="patch_1">
   <path d="M 0 514.053188 
L 506.82625 514.053188 
L 506.82625 0 
L 0 0 
z
" style="fill: #ffffff"/>
  </g>
  <g id="axes_1">
   <g id="patch_2">
    <path d="M 473.5825 262.917188 
C 473.5825 233.795931 467.846247 204.957842 456.702025 178.05331 
C 445.557803 151.148777 429.222338 126.701026 408.6305 106.109188 
C 388.038662 85.51735 363.590911 69.181885 336.686378 58.037662 
C 309.781845 46.89344 280.943756 41.157188 251.8225 41.157188 
C 222.701244 41.157188 193.863155 46.89344 166.958622 58.037662 
C 140.054089 69.181885 115.606338 85.51735 95.0145 106.109188 
C 74.422662 126.701026 58.087197 151.148777 46.942975 178.05331 
C 35.798753 204.957842 30.0625 233.795931 30.0625 262.917188 
C 30.0625 292.038444 35.798753 320.876533 46.942975 347.781065 
C 58.087197 374.685598 74.422662 399.133349 95.0145 419.725187 
C 115.606338 440.317025 140.054089 456.65249 166.958622 467.796713 
C 193.863155 478.940935 222.701244 484.677188 251.8225 484.677188 
C 280.943756 484.677188 309.781845 478.940935 336.686378 467.796713 
C 363.590911 456.65249 388.038662 440.317025 408.6305 419.725187 
C 429.222338 399.133349 445.557803 374.685598 456.702025 347.781065 
C 467.846247 320.876533 473.5825 292.038444 473.5825 262.917188 
M 251.8225 262.917188 
C 251.8225 262.917188 251.8225 262.917188 251.8225 262.917188 
C 251.8225 262.917188 251.8225 262.917188 251.8225 262.917188 
C 251.8225 262.917188 251.8225 262.917188 251.8225 262.917188 
C 251.8225 262.917188 251.8225 262.917188 251.8225 262.917188 
C 251.8225 262.917188 251.8225 262.917188 251.8225 262.917188 
C 251.8225 262.917188 251.8225 262.917188 251.8225 262.917188 
C 251.8225 262.917188 251.8225 262.917188 251.8225 262.917188 
C 251.8225 262.917188 251.8225 262.917188 251.8225 262.917188 
C 251.8225 262.917188 251.8225 262.917188 251.8225 262.917188 
C 251.8225 262.917188 251.8225 262.917188 251.8225 262.917188 
C 251.8225 262.917188 251.8225 262.917188 251.8225 262.917188 
C 251.8225 262.917188 251.8225 262.917188 251.8225 262.917188 
C 251.8225 262.917188 251.8225 262.917188 251.8225 262.917188 
C 251.8225 262.917188 251.8225 262.917188 251.8225 262.917188 
C 251.8225 262.917188 251.8225 262.917188 251.8225 262.917188 
C 251.8225 262.917188 251.8225 262.917188 251.8225 262.917188 
M 473.5825 262.917188 
z
" style="fill: #ffffff"/>
   </g>
   <g id="matplotlib.axis_1">
    <g id="xtick_1">
     <g id="line2d_1">
      <path d="M 251.8225 262.917188 
L 251.8225 41.157188 
" clip-path="url(#p36f03e523c)" style="fill: none; stroke: #b0b0b0; stroke-width: 0.8; stroke-linecap: square"/>
     </g>
     <g id="text_1">
      <!-- 0° -->
      <g transform="translate(246.14125 29.916563)scale(0.1 -0.1)">
       <defs>
        <path id="DejaVuSans-30" d="M 2034 4250 
Q 1547 4250 1301 3770 
Q 1056 3291 1056 2328 
Q 1056 1369 1301 889 
Q 1547 409 2034 409 
Q 2525 409 2770 889 
Q 3016 1369 3016 2328 
Q 3016 3291 2770 3770 
Q 2525 4250 2034 4250 
z
M 2034 4750 
Q 2819 4750 3233 4129 
Q 3647 3509 3647 2328 
Q 3647 1150 3233 529 
Q 2819 -91 2034 -91 
Q 1250 -91 836 529 
Q 422 1150 422 2328 
Q 422 3509 836 4129 
Q 1250 4750 2034 4750 
z
" transform="scale(0.015625)"/>
        <path id="DejaVuSans-b0" d="M 1600 4347 
Q 1350 4347 1178 4173 
Q 1006 4000 1006 3750 
Q 1006 3503 1178 3333 
Q 1350 3163 1600 3163 
Q 1850 3163 2022 3333 
Q 2194 3503 2194 3750 
Q 2194 3997 2020 4172 
Q 1847 4347 1600 4347 
z
M 1600 4750 
Q 1800 4750 1984 4673 
Q 2169 4597 2303 4453 
Q 2447 4313 2519 4134 
Q 2591 3956 2591 3750 
Q 2591 3338 2302 3052 
Q 2013 2766 1594 2766 
Q 1172 2766 890 3047 
Q 609 3328 609 3750 
Q 609 4169 896 4459 
Q 1184 4750 1600 4750 
z
" transform="scale(0.015625)"/>
       </defs>
       <use xlink:href="#DejaVuSans-30"/>
       <use xlink:href="#DejaVuSans-b0" x="63.623047"/>
      </g>
     </g>
    </g>
    <g id="xtick_2">
     <g id="line2d_2">
      <path d="M 251.8225 262.917188 
L 95.0145 106.109188 
" clip-path="url(#p36f03e523c)" style="fill: none; stroke: #b0b0b0; stroke-width: 0.8; stroke-linecap: square"/>
     </g>
     <g id="text_2">
      <!-- 45° -->
      <g transform="translate(76.252505 98.969068)scale(0.1 -0.1)">
       <defs>
        <path id="DejaVuSans-34" d="M 2419 4116 
L 825 1625 
L 2419 1625 
L 2419 4116 
z
M 2253 4666 
L 3047 4666 
L 3047 1625 
L 3713 1625 
L 3713 1100 
L 3047 1100 
L 3047 0 
L 2419 0 
L 2419 1100 
L 313 1100 
L 313 1709 
L 2253 4666 
z
" transform="scale(0.015625)"/>
        <path id="DejaVuSans-35" d="M 691 4666 
L 3169 4666 
L 3169 4134 
L 1269 4134 
L 1269 2991 
Q 1406 3038 1543 3061 
Q 1681 3084 1819 3084 
Q 2600 3084 3056 2656 
Q 3513 2228 3513 1497 
Q 3513 744 3044 326 
Q 2575 -91 1722 -91 
Q 1428 -91 1123 -41 
Q 819 9 494 109 
L 494 744 
Q 775 591 1075 516 
Q 1375 441 1709 441 
Q 2250 441 2565 725 
Q 2881 1009 2881 1497 
Q 2881 1984 2565 2268 
Q 2250 2553 1709 2553 
Q 1456 2553 1204 2497 
Q 953 2441 691 2322 
L 691 4666 
z
" transform="scale(0.015625)"/>
       </defs>
       <use xlink:href="#DejaVuSans-34"/>
       <use xlink:href="#DejaVuSans-35" x="63.623047"/>
       <use xlink:href="#DejaVuSans-b0" x="127.246094"/>
      </g>
     </g>
    </g>
    <g id="xtick_3">
     <g id="line2d_3">
      <path d="M 251.8225 262.917188 
L 30.0625 262.917188 
" clip-path="url(#p36f03e523c)" style="fill: none; stroke: #b0b0b0; stroke-width: 0.8; stroke-linecap: square"/>
     </g>
     <g id="text_3">
      <!-- 90° -->
      <g transform="translate(7.2 265.676563)scale(0.1 -0.1)">
       <defs>
        <path id="DejaVuSans-39" d="M 703 97 
L 703 672 
Q 941 559 1184 500 
Q 1428 441 1663 441 
Q 2288 441 2617 861 
Q 2947 1281 2994 2138 
Q 2813 1869 2534 1725 
Q 2256 1581 1919 1581 
Q 1219 1581 811 2004 
Q 403 2428 403 3163 
Q 403 3881 828 4315 
Q 1253 4750 1959 4750 
Q 2769 4750 3195 4129 
Q 3622 3509 3622 2328 
Q 3622 1225 3098 567 
Q 2575 -91 1691 -91 
Q 1453 -91 1209 -44 
Q 966 3 703 97 
z
M 1959 2075 
Q 2384 2075 2632 2365 
Q 2881 2656 2881 3163 
Q 2881 3666 2632 3958 
Q 2384 4250 1959 4250 
Q 1534 4250 1286 3958 
Q 1038 3666 1038 3163 
Q 1038 2656 1286 2365 
Q 1534 2075 1959 2075 
z
" transform="scale(0.015625)"/>
       </defs>
       <use xlink:href="#DejaVuSans-39"/>
       <use xlink:href="#DejaVuSans-30" x="63.623047"/>
       <use xlink:href="#DejaVuSans-b0" x="127.246094"/>
      </g>
     </g>
    </g>
    <g id="xtick_4">
     <g id="line2d_4">
      <path d="M 251.8225 262.917188 
L 95.0145 419.725187 
" clip-path="url(#p36f03e523c)" style="fill: none; stroke: #b0b0b0; stroke-width: 0.8; stroke-linecap: square"/>
     </g>
     <g id="text_4">
      <!-- 135° -->
      <g transform="translate(73.071255 432.384057)scale(0.1 -0.1)">
       <defs>
        <path id="DejaVuSans-31" d="M 794 531 
L 1825 531 
L 1825 4091 
L 703 3866 
L 703 4441 
L 1819 4666 
L 2450 4666 
L 2450 531 
L 3481 531 
L 3481 0 
L 794 0 
L 794 531 
z
" transform="scale(0.015625)"/>
        <path id="DejaVuSans-33" d="M 2597 2516 
Q 3050 2419 3304 2112 
Q 3559 1806 3559 1356 
Q 3559 666 3084 287 
Q 2609 -91 1734 -91 
Q 1441 -91 1130 -33 
Q 819 25 488 141 
L 488 750 
Q 750 597 1062 519 
Q 1375 441 1716 441 
Q 2309 441 2620 675 
Q 2931 909 2931 1356 
Q 2931 1769 2642 2001 
Q 2353 2234 1838 2234 
L 1294 2234 
L 1294 2753 
L 1863 2753 
Q 2328 2753 2575 2939 
Q 2822 3125 2822 3475 
Q 2822 3834 2567 4026 
Q 2313 4219 1838 4219 
Q 1578 4219 1281 4162 
Q 984 4106 628 3988 
L 628 4550 
Q 988 4650 1302 4700 
Q 1616 4750 1894 4750 
Q 2613 4750 3031 4423 
Q 3450 4097 3450 3541 
Q 3450 3153 3228 2886 
Q 3006 2619 2597 2516 
z
" transform="scale(0.015625)"/>
       </defs>
       <use xlink:href="#DejaVuSans-31"/>
       <use xlink:href="#DejaVuSans-33" x="63.623047"/>
       <use xlink:href="#DejaVuSans-35" x="127.246094"/>
       <use xlink:href="#DejaVuSans-b0" x="190.869141"/>
      </g>
     </g>
    </g>
    <g id="xtick_5">
     <g id="line2d_5">
      <path d="M 251.8225 262.917188 
L 251.8225 484.677188 
" clip-path="url(#p36f03e523c)" style="fill: none; stroke: #b0b0b0; stroke-width: 0.8; stroke-linecap: square"/>
     </g>
     <g id="text_5">
      <!-- 180° -->
      <g transform="translate(239.77875 501.436563)scale(0.1 -0.1)">
       <defs>
        <path id="DejaVuSans-38" d="M 2034 2216 
Q 1584 2216 1326 1975 
Q 1069 1734 1069 1313 
Q 1069 891 1326 650 
Q 1584 409 2034 409 
Q 2484 409 2743 651 
Q 3003 894 3003 1313 
Q 3003 1734 2745 1975 
Q 2488 2216 2034 2216 
z
M 1403 2484 
Q 997 2584 770 2862 
Q 544 3141 544 3541 
Q 544 4100 942 4425 
Q 1341 4750 2034 4750 
Q 2731 4750 3128 4425 
Q 3525 4100 3525 3541 
Q 3525 3141 3298 2862 
Q 3072 2584 2669 2484 
Q 3125 2378 3379 2068 
Q 3634 1759 3634 1313 
Q 3634 634 3220 271 
Q 2806 -91 2034 -91 
Q 1263 -91 848 271 
Q 434 634 434 1313 
Q 434 1759 690 2068 
Q 947 2378 1403 2484 
z
M 1172 3481 
Q 1172 3119 1398 2916 
Q 1625 2713 2034 2713 
Q 2441 2713 2670 2916 
Q 2900 3119 2900 3481 
Q 2900 3844 2670 4047 
Q 2441 4250 2034 4250 
Q 1625 4250 1398 4047 
Q 1172 3844 1172 3481 
z
" transform="scale(0.015625)"/>
       </defs>
       <use xlink:href="#DejaVuSans-31"/>
       <use xlink:href="#DejaVuSans-38" x="63.623047"/>
       <use xlink:href="#DejaVuSans-30" x="127.246094"/>
       <use xlink:href="#DejaVuSans-b0" x="190.869141"/>
      </g>
     </g>
    </g>
    <g id="xtick_6">
     <g id="line2d_6">
      <path d="M 251.8225 262.917188 
L 408.6305 419.725187 
" clip-path="url(#p36f03e523c)" style="fill: none; stroke: #b0b0b0; stroke-width: 0.8; stroke-linecap: square"/>
     </g>
     <g id="text_6">
      <!-- 225° -->
      <g transform="translate(406.486245 432.384057)scale(0.1 -0.1)">
       <defs>
        <path id="DejaVuSans-32" d="M 1228 531 
L 3431 531 
L 3431 0 
L 469 0 
L 469 531 
Q 828 903 1448 1529 
Q 2069 2156 2228 2338 
Q 2531 2678 2651 2914 
Q 2772 3150 2772 3378 
Q 2772 3750 2511 3984 
Q 2250 4219 1831 4219 
Q 1534 4219 1204 4116 
Q 875 4013 500 3803 
L 500 4441 
Q 881 4594 1212 4672 
Q 1544 4750 1819 4750 
Q 2544 4750 2975 4387 
Q 3406 4025 3406 3419 
Q 3406 3131 3298 2873 
Q 3191 2616 2906 2266 
Q 2828 2175 2409 1742 
Q 1991 1309 1228 531 
z
" transform="scale(0.015625)"/>
       </defs>
       <use xlink:href="#DejaVuSans-32"/>
       <use xlink:href="#DejaVuSans-32" x="63.623047"/>
       <use xlink:href="#DejaVuSans-35" x="127.246094"/>
       <use xlink:href="#DejaVuSans-b0" x="190.869141"/>
      </g>
     </g>
    </g>
    <g id="xtick_7">
     <g id="line2d_7">
      <path d="M 251.8225 262.917188 
L 473.5825 262.917188 
" clip-path="url(#p36f03e523c)" style="fill: none; stroke: #b0b0b0; stroke-width: 0.8; stroke-linecap: square"/>
     </g>
     <g id="text_7">
      <!-- 270° -->
      <g transform="translate(475.53875 265.676563)scale(0.1 -0.1)">
       <defs>
        <path id="DejaVuSans-37" d="M 525 4666 
L 3525 4666 
L 3525 4397 
L 1831 0 
L 1172 0 
L 2766 4134 
L 525 4134 
L 525 4666 
z
" transform="scale(0.015625)"/>
       </defs>
       <use xlink:href="#DejaVuSans-32"/>
       <use xlink:href="#DejaVuSans-37" x="63.623047"/>
       <use xlink:href="#DejaVuSans-30" x="127.246094"/>
       <use xlink:href="#DejaVuSans-b0" x="190.869141"/>
      </g>
     </g>
    </g>
    <g id="xtick_8">
     <g id="line2d_8">
      <path d="M 251.8225 262.917188 
L 408.6305 106.109188 
" clip-path="url(#p36f03e523c)" style="fill: none; stroke: #b0b0b0; stroke-width: 0.8; stroke-linecap: square"/>
     </g>
     <g id="text_8">
      <!-- 315° -->
      <g transform="translate(406.486245 98.969068)scale(0.1 -0.1)">
       <use xlink:href="#DejaVuSans-33"/>
       <use xlink:href="#DejaVuSans-31" x="63.623047"/>
       <use xlink:href="#DejaVuSans-35" x="127.246094"/>
       <use xlink:href="#DejaVuSans-b0" x="190.869141"/>
      </g>
     </g>
    </g>
   </g>
   <g id="matplotlib.axis_2">
    <g id="ytick_1">
     <g id="line2d_9">
      <path d="M 251.8225 233.775902 
C 247.995701 233.775902 244.206114 234.529698 240.670613 235.99415 
C 237.135112 237.458603 233.922455 239.605232 231.2165 242.311187 
C 228.510544 245.017142 226.363915 248.2298 224.899463 251.7653 
C 223.435011 255.300801 222.681215 259.090389 222.681215 262.917188 
C 222.681215 266.743986 223.435011 270.533574 224.899463 274.069075 
C 226.363915 277.604575 228.510544 280.817233 231.2165 283.523188 
C 233.922455 286.229143 237.135112 288.375772 240.670613 289.840225 
C 244.206114 291.304677 247.995701 292.058473 251.8225 292.058473 
C 255.649299 292.058473 259.438886 291.304677 262.974387 289.840225 
C 266.509888 288.375772 269.722545 286.229143 272.4285 283.523188 
C 275.134456 280.817233 277.281085 277.604575 278.745537 274.069075 
C 280.209989 270.533574 280.963785 266.743986 280.963785 262.917188 
C 280.963785 259.090389 280.209989 255.300801 278.745537 251.7653 
C 277.281085 248.2298 275.134456 245.017142 272.4285 242.311187 
C 269.722545 239.605232 266.509888 237.458603 262.974387 235.99415 
C 259.438886 234.529698 255.649299 233.775902 251.8225 233.775902 
" clip-path="url(#p36f03e523c)" style="fill: none; stroke: #b0b0b0; stroke-width: 0.8; stroke-linecap: square"/>
     </g>
     <g id="text_9">
      <!-- −30 -->
      <g transform="translate(240.670613 233.914463)scale(0.1 -0.1)">
       <defs>
        <path id="DejaVuSans-2212" d="M 678 2272 
L 4684 2272 
L 4684 1741 
L 678 1741 
L 678 2272 
z
" transform="scale(0.015625)"/>
       </defs>
       <use xlink:href="#DejaVuSans-2212"/>
       <use xlink:href="#DejaVuSans-33" x="83.789062"/>
       <use xlink:href="#DejaVuSans-30" x="147.412109"/>
      </g>
     </g>
    </g>
    <g id="ytick_2">
     <g id="line2d_10">
      <path d="M 251.8225 201.672783 
C 243.779958 201.672783 235.815621 203.256988 228.385281 206.334736 
C 220.954942 209.412483 214.203102 213.923918 208.516166 219.610854 
C 202.829231 225.297789 198.317796 232.049629 195.240048 239.479969 
C 192.162301 246.910308 190.578096 254.874646 190.578096 262.917188 
C 190.578096 270.959729 192.162301 278.924067 195.240048 286.354406 
C 198.317796 293.784746 202.829231 300.536586 208.516166 306.223521 
C 214.203102 311.910457 220.954942 316.421892 228.385281 319.499639 
C 235.815621 322.577387 243.779958 324.161592 251.8225 324.161592 
C 259.865042 324.161592 267.829379 322.577387 275.259719 319.499639 
C 282.690058 316.421892 289.441898 311.910457 295.128834 306.223521 
C 300.815769 300.536586 305.327204 293.784746 308.404952 286.354406 
C 311.482699 278.924067 313.066904 270.959729 313.066904 262.917188 
C 313.066904 254.874646 311.482699 246.910308 308.404952 239.479969 
C 305.327204 232.049629 300.815769 225.297789 295.128834 219.610854 
C 289.441898 213.923918 282.690058 209.412483 275.259719 206.334736 
C 267.829379 203.256988 259.865042 201.672783 251.8225 201.672783 
" clip-path="url(#p36f03e523c)" style="fill: none; stroke: #b0b0b0; stroke-width: 0.8; stroke-linecap: square"/>
     </g>
     <g id="text_10">
      <!-- −25 -->
      <g transform="translate(228.385281 204.255048)scale(0.1 -0.1)">
       <use xlink:href="#DejaVuSans-2212"/>
       <use xlink:href="#DejaVuSans-32" x="83.789062"/>
       <use xlink:href="#DejaVuSans-35" x="147.412109"/>
      </g>
     </g>
    </g>
    <g id="ytick_3">
     <g id="line2d_11">
      <path d="M 251.8225 169.569664 
C 239.564216 169.569664 227.425127 171.984279 216.099949 176.675321 
C 204.774771 181.366363 194.483749 188.242605 185.815833 196.910521 
C 177.147917 205.578437 170.271676 215.869459 165.580634 227.194637 
C 160.889591 238.519815 158.474976 250.658903 158.474976 262.917188 
C 158.474976 275.175472 160.889591 287.31456 165.580634 298.639738 
C 170.271676 309.964916 177.147917 320.255938 185.815833 328.923854 
C 194.483749 337.59177 204.774771 344.468012 216.099949 349.159054 
C 227.425127 353.850096 239.564216 356.264711 251.8225 356.264711 
C 264.080784 356.264711 276.219873 353.850096 287.545051 349.159054 
C 298.870229 344.468012 309.161251 337.59177 317.829167 328.923854 
C 326.497083 320.255938 333.373324 309.964916 338.064366 298.639738 
C 342.755409 287.31456 345.170024 275.175472 345.170024 262.917188 
C 345.170024 250.658903 342.755409 238.519815 338.064366 227.194637 
C 333.373324 215.869459 326.497083 205.578437 317.829167 196.910521 
C 309.161251 188.242605 298.870229 181.366363 287.545051 176.675321 
C 276.219873 171.984279 264.080784 169.569664 251.8225 169.569664 
" clip-path="url(#p36f03e523c)" style="fill: none; stroke: #b0b0b0; stroke-width: 0.8; stroke-linecap: square"/>
     </g>
     <g id="text_11">
      <!-- −20 -->
      <g transform="translate(216.099949 174.595634)scale(0.1 -0.1)">
       <use xlink:href="#DejaVuSans-2212"/>
       <use xlink:href="#DejaVuSans-32" x="83.789062"/>
       <use xlink:href="#DejaVuSans-30" x="147.412109"/>
      </g>
     </g>
    </g>
    <g id="ytick_4">
     <g id="line2d_12">
      <path d="M 251.8225 137.466545 
C 235.348473 137.466545 219.034634 140.711569 203.814617 147.015906 
C 188.594601 153.320244 174.764396 162.561291 163.1155 174.210187 
C 151.466603 185.859084 142.225556 199.689288 135.921219 214.909305 
C 129.616882 230.129322 126.371857 246.44316 126.371857 262.917188 
C 126.371857 279.391215 129.616882 295.705053 135.921219 310.92507 
C 142.225556 326.145087 151.466603 339.975291 163.1155 351.624188 
C 174.764396 363.273084 188.594601 372.514131 203.814617 378.818469 
C 219.034634 385.122806 235.348473 388.36783 251.8225 388.36783 
C 268.296527 388.36783 284.610366 385.122806 299.830383 378.818469 
C 315.050399 372.514131 328.880604 363.273084 340.5295 351.624188 
C 352.178397 339.975291 361.419444 326.145087 367.723781 310.92507 
C 374.028118 295.705053 377.273143 279.391215 377.273143 262.917188 
C 377.273143 246.44316 374.028118 230.129322 367.723781 214.909305 
C 361.419444 199.689288 352.178397 185.859084 340.5295 174.210187 
C 328.880604 162.561291 315.050399 153.320244 299.830383 147.015906 
C 284.610366 140.711569 268.296527 137.466545 251.8225 137.466545 
" clip-path="url(#p36f03e523c)" style="fill: none; stroke: #b0b0b0; stroke-width: 0.8; stroke-linecap: square"/>
     </g>
     <g id="text_12">
      <!-- −15 -->
      <g transform="translate(203.814617 144.936219)scale(0.1 -0.1)">
       <use xlink:href="#DejaVuSans-2212"/>
       <use xlink:href="#DejaVuSans-31" x="83.789062"/>
       <use xlink:href="#DejaVuSans-35" x="147.412109"/>
      </g>
     </g>
    </g>
    <g id="ytick_5">
     <g id="line2d_13">
      <path d="M 251.8225 105.363426 
C 231.13273 105.363426 210.644141 109.438859 191.529286 117.356492 
C 172.41443 125.274124 155.045044 136.879977 140.415167 151.509854 
C 125.78529 166.139731 114.179437 183.509118 106.261804 202.623973 
C 98.344172 221.738829 94.268738 242.227417 94.268738 262.917188 
C 94.268738 283.606958 98.344172 304.095546 106.261804 323.210402 
C 114.179437 342.325257 125.78529 359.694644 140.415167 374.324521 
C 155.045044 388.954398 172.41443 400.560251 191.529286 408.477883 
C 210.644141 416.395516 231.13273 420.470949 251.8225 420.470949 
C 272.51227 420.470949 293.000859 416.395516 312.115714 408.477883 
C 331.23057 400.560251 348.599956 388.954398 363.229833 374.324521 
C 377.85971 359.694644 389.465563 342.325257 397.383196 323.210402 
C 405.300828 304.095546 409.376262 283.606958 409.376262 262.917188 
C 409.376262 242.227417 405.300828 221.738829 397.383196 202.623973 
C 389.465563 183.509118 377.85971 166.139731 363.229833 151.509854 
C 348.599956 136.879977 331.23057 125.274124 312.115714 117.356492 
C 293.000859 109.438859 272.51227 105.363426 251.8225 105.363426 
" clip-path="url(#p36f03e523c)" style="fill: none; stroke: #b0b0b0; stroke-width: 0.8; stroke-linecap: square"/>
     </g>
     <g id="text_13">
      <!-- −10 -->
      <g transform="translate(191.529286 115.276804)scale(0.1 -0.1)">
       <use xlink:href="#DejaVuSans-2212"/>
       <use xlink:href="#DejaVuSans-31" x="83.789062"/>
       <use xlink:href="#DejaVuSans-30" x="147.412109"/>
      </g>
     </g>
    </g>
    <g id="ytick_6">
     <g id="line2d_14">
      <path d="M 251.8225 73.260307 
C 226.916987 73.260307 202.253648 78.16615 179.243954 87.697077 
C 156.23426 97.228004 135.325691 111.198664 117.714833 128.809521 
C 100.103976 146.420378 86.133317 167.328947 76.60239 190.338641 
C 67.071462 213.348335 62.165619 238.011674 62.165619 262.917188 
C 62.165619 287.822701 67.071462 312.48604 76.60239 335.495734 
C 86.133317 358.505428 100.103976 379.413997 117.714833 397.024854 
C 135.325691 414.635711 156.23426 428.606371 179.243954 438.137298 
C 202.253648 447.668225 226.916987 452.574068 251.8225 452.574068 
C 276.728013 452.574068 301.391352 447.668225 324.401046 438.137298 
C 347.41074 428.606371 368.319309 414.635711 385.930167 397.024854 
C 403.541024 379.413997 417.511683 358.505428 427.04261 335.495734 
C 436.573538 312.48604 441.479381 287.822701 441.479381 262.917188 
C 441.479381 238.011674 436.573538 213.348335 427.04261 190.338641 
C 417.511683 167.328947 403.541024 146.420378 385.930167 128.809521 
C 368.319309 111.198664 347.41074 97.228004 324.401046 87.697077 
C 301.391352 78.16615 276.728013 73.260307 251.8225 73.260307 
" clip-path="url(#p36f03e523c)" style="fill: none; stroke: #b0b0b0; stroke-width: 0.8; stroke-linecap: square"/>
     </g>
     <g id="text_14">
      <!-- −5 -->
      <g transform="translate(179.243954 85.61739)scale(0.1 -0.1)">
       <use xlink:href="#DejaVuSans-2212"/>
       <use xlink:href="#DejaVuSans-35" x="83.789062"/>
      </g>
     </g>
    </g>
    <g id="ytick_7">
     <g id="line2d_15">
      <path d="M 251.8225 41.157188 
C 222.701244 41.157188 193.863155 46.89344 166.958622 58.037662 
C 140.054089 69.181885 115.606338 85.51735 95.0145 106.109188 
C 74.422662 126.701026 58.087197 151.148777 46.942975 178.05331 
C 35.798753 204.957842 30.0625 233.795931 30.0625 262.917188 
C 30.0625 292.038444 35.798753 320.876533 46.942975 347.781065 
C 58.087197 374.685598 74.422662 399.133349 95.0145 419.725187 
C 115.606338 440.317025 140.054089 456.65249 166.958622 467.796713 
C 193.863155 478.940935 222.701244 484.677188 251.8225 484.677188 
C 280.943756 484.677188 309.781845 478.940935 336.686378 467.796713 
C 363.590911 456.65249 388.038662 440.317025 408.6305 419.725187 
C 429.222338 399.133349 445.557803 374.685598 456.702025 347.781065 
C 467.846247 320.876533 473.5825 292.038444 473.5825 262.917188 
C 473.5825 233.795931 467.846247 204.957842 456.702025 178.05331 
C 445.557803 151.148777 429.222338 126.701026 408.6305 106.109188 
C 388.038662 85.51735 363.590911 69.181885 336.686378 58.037662 
C 309.781845 46.89344 280.943756 41.157188 251.8225 41.157188 
" clip-path="url(#p36f03e523c)" style="fill: none; stroke: #b0b0b0; stroke-width: 0.8; stroke-linecap: square"/>
     </g>
     <g id="text_15">
      <!-- 0 -->
      <g transform="translate(166.958622 55.957975)scale(0.1 -0.1)">
       <use xlink:href="#DejaVuSans-30"/>
      </g>
     </g>
    </g>
   </g>
   <g id="line2d_16">
    <path d="M 251.8225 460.465015 
L 262.211087 461.143233 
L 265.682463 461.123886 
L 269.140095 460.858204 
L 276.036023 460.120503 
L 279.533877 460.093879 
L 283.0703 460.208034 
L 286.741761 460.95416 
L 290.5749 462.281002 
L 294.350069 462.993667 
L 298.319257 464.316768 
L 302.27443 465.268826 
L 306.120654 465.560657 
L 310.160462 466.365839 
L 314.165916 466.833313 
L 318.036669 466.703446 
L 322.134998 467.119508 
L 326.122915 467.0559 
L 330.051666 466.711132 
L 334.178506 466.755456 
L 338.019462 465.984505 
L 341.811498 465.035786 
L 345.509764 463.830174 
L 349.035686 462.233755 
L 352.435305 460.380936 
L 358.845175 455.991204 
L 361.845347 453.482348 
L 364.70137 450.779174 
L 367.605568 448.208829 
L 370.220248 445.233732 
L 372.597788 441.973915 
L 375.063571 438.923677 
L 377.04851 435.276004 
L 378.92081 431.582341 
L 380.868691 428.08878 
L 382.022492 423.700787 
L 385.018635 416.141813 
L 386.022732 411.961645 
L 387.399292 408.305497 
L 388.475394 404.425402 
L 388.776788 399.871476 
L 389.28943 395.667459 
L 388.983861 390.822226 
L 387.817033 385.367215 
L 387.248846 380.641514 
L 385.195533 374.830451 
L 382.348184 368.614802 
L 380.575663 363.510183 
L 377.276204 357.453334 
L 374.985213 352.400136 
L 373.966787 348.443538 
L 371.123921 343.387012 
L 368.940029 338.9742 
L 367.412725 335.145976 
L 364.83072 330.819376 
L 364.324877 327.870465 
L 364.891004 325.592083 
L 366.727267 324.013136 
L 369.452238 322.852532 
L 373.042581 322.040172 
L 378.717026 322.089077 
L 383.273172 321.442797 
L 388.417625 320.898378 
L 395.367784 320.913247 
L 400.12243 319.844197 
L 405.727018 318.933851 
L 412.011382 318.074643 
L 416.363079 316.379662 
L 422.060325 314.964114 
L 427.559322 313.30891 
L 431.314477 311.011918 
L 435.839531 308.797786 
L 439.246034 306.18732 
L 444.058008 300.283985 
L 445.648301 297.093906 
L 446.925503 293.818467 
L 448.401527 290.544568 
L 449.656719 287.208175 
L 451.95741 280.426723 
L 452.591191 276.956302 
L 452.978749 273.45934 
L 453.151348 269.947746 
L 452.954501 266.42796 
L 452.144037 262.917188 
L 451.683411 259.428602 
L 450.238161 255.98836 
L 447.25584 249.251157 
L 442.990807 239.444671 
L 441.178681 236.304912 
L 436.302789 230.388335 
L 432.921209 227.715164 
L 429.063744 225.243398 
L 425.833034 222.74369 
L 420.943831 220.750504 
L 416.033128 218.917082 
L 412.117229 216.953414 
L 406.243496 215.705951 
L 400.962799 214.458567 
L 396.615785 213.060861 
L 390.028078 212.614471 
L 384.831306 211.859891 
L 380.74102 210.830724 
L 375.456523 210.437658 
L 371.987889 209.416109 
L 370.180462 207.725963 
L 370.28413 205.13959 
L 371.391595 201.993691 
L 372.827191 198.577852 
L 376.554614 193.777048 
L 378.798659 189.607468 
L 380.405763 185.656569 
L 383.323009 180.74655 
L 385.203093 172.950841 
L 386.747292 168.441831 
L 386.993268 161.058708 
L 387.653932 156.794042 
L 387.263099 153.239553 
L 386.880573 145.512996 
L 385.836879 142.250098 
L 383.968791 135.304998 
L 382.379834 132.359853 
L 380.946677 129.205187 
L 379.215212 126.305229 
L 377.181079 123.692381 
L 375.385086 120.774692 
L 371.500693 115.126928 
L 369.895355 111.790825 
L 365.964425 105.814306 
L 364.295302 102.28938 
L 362.228807 99.233106 
L 360.226044 95.990368 
L 358.279556 92.550285 
L 350.976067 84.039418 
L 345.29088 79.475163 
L 342.305938 77.398647 
L 336.06358 73.708625 
L 332.831393 72.072195 
L 329.507592 70.639837 
L 326.123951 69.355289 
L 322.651067 68.3173 
L 315.552599 66.776112 
L 308.406626 65.584889 
L 304.78126 65.272406 
L 301.224406 64.776964 
L 290.518545 63.843295 
L 286.893392 64.020276 
L 279.646468 64.93937 
L 276.015678 65.879564 
L 272.417509 66.968769 
L 268.900589 67.713741 
L 265.385966 68.950589 
L 261.931174 70.032192 
L 258.531284 70.802739 
L 255.157345 71.864031 
L 248.515781 73.475362 
L 245.252419 74.774684 
L 238.826946 77.072108 
L 235.702996 78.670417 
L 229.479098 80.944781 
L 226.392428 81.972824 
L 220.178902 83.457424 
L 217.127674 84.427779 
L 214.112668 85.506374 
L 211.198373 86.954762 
L 208.473763 89.0549 
L 205.713596 90.836417 
L 200.716055 95.755539 
L 198.137808 97.692694 
L 195.874892 100.433536 
L 193.583502 102.906856 
L 191.402655 105.518109 
L 189.412884 108.447967 
L 187.278452 110.860939 
L 185.23518 113.359619 
L 183.498067 116.394968 
L 181.674664 119.09281 
L 180.166333 122.284042 
L 178.895423 125.761303 
L 175.751912 131.159064 
L 174.485823 134.207343 
L 172.96241 136.714662 
L 171.275439 138.885591 
L 168.742478 139.74599 
L 165.747425 139.98924 
L 157.406138 137.622443 
L 153.20597 136.693785 
L 148.492694 135.315504 
L 144.659526 135.205328 
L 140.960023 135.384497 
L 137.290436 135.716444 
L 131.043245 137.846607 
L 127.920903 139.015591 
L 119.659445 143.917038 
L 117.278072 145.959501 
L 114.996691 148.106702 
L 112.978883 150.483843 
L 107.341995 157.945956 
L 105.279545 160.306706 
L 99.989242 164.315517 
L 97.670801 166.592515 
L 94.945493 168.655972 
L 92.623688 171.00371 
L 90.60019 173.550202 
L 88.441478 176.045957 
L 82.419731 183.923379 
L 77.041307 192.301002 
L 73.826565 198.131965 
L 72.073439 201.024622 
L 69.218568 207.089563 
L 67.926427 210.185837 
L 64.574136 219.687496 
L 63.628381 222.915293 
L 59.979067 232.532173 
L 58.12371 235.694598 
L 54.7247 242.201374 
L 52.723773 245.498306 
L 51.354843 248.899123 
L 48.921557 255.83173 
L 44.728901 273.770503 
L 43.720102 277.469125 
L 43.225428 281.167067 
L 42.47102 284.920915 
L 42.122191 288.665148 
L 42.075768 292.395168 
L 41.905577 296.164762 
L 42.431155 303.618742 
L 42.444869 307.421777 
L 43.491937 318.739194 
L 44.244847 322.439122 
L 45.161762 326.099716 
L 46.277605 329.702772 
L 47.523046 333.263131 
L 48.956837 336.75425 
L 52.222838 343.560686 
L 54.233952 346.78855 
L 58.654685 352.992819 
L 66.145009 361.643661 
L 69.131736 364.184332 
L 71.955594 366.763394 
L 74.945596 369.195553 
L 78.760323 371.058438 
L 82.122514 373.121647 
L 85.657929 374.996606 
L 89.501144 376.575825 
L 92.667833 378.549822 
L 99.350305 382.041522 
L 102.081243 384.175266 
L 104.94823 386.159333 
L 110.302624 390.342256 
L 113.111542 392.267248 
L 119.276616 395.463071 
L 126.373999 397.444235 
L 129.647432 398.606347 
L 133.626395 398.886253 
L 140.726604 400.109193 
L 144.754604 399.957845 
L 148.372041 400.200583 
L 152.112152 400.156707 
L 156.617965 398.883354 
L 160.793405 397.87337 
L 165.529996 395.795991 
L 171.393898 391.629857 
L 176.489784 388.291881 
L 182.692606 382.653676 
L 196.929982 366.155 
L 206.898901 351.084714 
L 220.558587 327.017708 
L 236.014621 296.817293 
L 247.527361 272.564228 
L 225.805135 324.210258 
L 217.544197 347.758965 
L 210.477495 370.624607 
L 207.767354 383.957706 
L 205.074158 406.79379 
L 205.546113 414.280427 
L 206.377267 421.403549 
L 207.491701 428.361983 
L 211.490127 437.615888 
L 213.690832 442.312581 
L 216.297047 445.679799 
L 218.94133 449.395569 
L 221.743829 452.82644 
L 227.932141 457.488551 
L 231.199304 459.133795 
L 234.579331 460.007511 
L 238.013148 460.400122 
L 241.465164 460.546933 
L 248.374703 460.441347 
L 248.374703 460.441347 
" clip-path="url(#p36f03e523c)" style="fill: none; stroke: #ff0000; stroke-width: 1.5; stroke-linecap: square"/>
   </g>
   <g id="line2d_17">
    <path d="M 251.8225 63.764204 
L 244.966945 66.599792 
L 238.306957 69.635922 
L 231.842925 72.824228 
L 225.568549 76.11062 
L 216.493065 81.163002 
L 207.779443 86.270133 
L 196.639826 93.08238 
L 185.944574 99.863599 
L 175.606352 106.650926 
L 165.565592 113.515841 
L 158.207441 118.762637 
L 150.99129 124.134933 
L 143.926783 129.677073 
L 137.041254 135.439699 
L 132.564152 139.421553 
L 128.183689 143.520576 
L 123.915581 147.74928 
L 119.757783 152.101732 
L 115.712794 156.576631 
L 109.844763 163.503306 
L 104.161238 170.64819 
L 94.799212 182.909826 
L 87.059288 192.979354 
L 76.693465 206.014315 
L 67.954987 217.073868 
L 63.584419 222.905948 
L 59.299253 228.970145 
L 55.179892 235.280871 
L 51.309761 241.842449 
L 47.757804 248.647594 
L 46.120716 252.136814 
L 44.586426 255.680344 
L 43.161539 259.274997 
L 41.851407 262.917188 
L 40.66237 266.603001 
L 39.599357 270.328183 
L 38.669727 274.088051 
L 37.865948 277.878487 
L 37.206612 281.693645 
L 36.685801 285.528966 
L 36.310229 289.378767 
L 36.086401 293.236919 
L 36.001571 297.099865 
L 36.07458 300.959367 
L 36.292365 304.812002 
L 36.666977 308.649906 
L 37.191345 312.468694 
L 37.877011 316.259789 
L 38.710314 320.020426 
L 39.702329 323.741668 
L 40.84529 327.419394 
L 42.143589 331.045996 
L 43.601297 334.613497 
L 45.204054 338.120152 
L 46.967588 341.553621 
L 48.877197 344.912412 
L 50.941962 348.185917 
L 53.152835 351.370621 
L 55.506572 354.460808 
L 58.011293 357.445229 
L 60.663092 360.317771 
L 63.457867 363.072439 
L 66.390198 365.703991 
L 69.463412 368.202256 
L 72.673732 370.560627 
L 76.019311 372.771212 
L 79.497969 374.826047 
L 83.107709 376.716751 
L 86.846691 378.434493 
L 90.714741 379.968826 
L 94.705013 381.313706 
L 98.819055 382.45658 
L 103.054247 383.387344 
L 107.41239 384.091657 
L 111.889647 384.558961 
L 116.481657 384.77863 
L 121.197619 384.72686 
L 126.031417 384.392225 
L 130.989988 383.749699 
L 136.069823 382.782594 
L 141.279621 381.459912 
L 146.626156 379.749563 
L 152.114216 377.618448 
L 157.76306 375.012863 
L 163.572323 371.89708 
L 169.598774 368.158758 
L 175.853007 363.73211 
L 182.303736 358.601557 
L 189.066398 352.542189 
L 196.13339 345.479688 
L 203.387677 337.500274 
L 210.548858 328.968822 
L 216.767408 321.258657 
L 220.455505 317.246416 
L 220.568008 319.301784 
L 215.063543 335.060703 
L 212.247026 344.058935 
L 210.087388 352.418425 
L 208.548068 360.113154 
L 207.5917 367.118422 
L 207.132051 373.529929 
L 207.090503 379.448023 
L 207.418193 384.917018 
L 208.069998 389.983681 
L 208.984783 394.758122 
L 210.135889 399.267949 
L 211.511352 403.498868 
L 213.081928 407.498971 
L 214.82827 411.292939 
L 216.737364 414.887609 
L 218.794242 418.302926 
L 220.989229 421.540615 
L 223.311854 424.609095 
L 225.752417 427.517213 
L 228.302005 430.274208 
L 230.95485 432.870558 
L 233.701977 435.322448 
L 236.537911 437.620841 
L 239.45577 439.769671 
L 242.448722 441.779522 
L 245.511451 443.641971 
L 248.637921 445.361599 
L 251.8225 446.943181 
L 255.059857 448.385252 
L 258.344629 449.686515 
L 261.672096 450.858666 
L 265.037067 451.894304 
L 268.435566 452.805399 
L 271.862478 453.584838 
L 275.313796 454.23844 
L 278.785058 454.765759 
L 282.273806 455.179165 
L 289.284856 455.644303 
L 296.318865 455.65212 
L 303.353791 455.234583 
L 310.36194 454.391069 
L 317.323429 453.145697 
L 324.214166 451.503926 
L 331.011053 449.473727 
L 337.687907 447.056147 
L 344.216447 444.250519 
L 350.56518 441.053697 
L 353.661941 439.308273 
L 356.700408 437.463338 
L 359.676246 435.519262 
L 362.584369 433.475508 
L 365.419566 431.331764 
L 368.177255 429.089 
L 370.852065 426.747329 
L 373.438527 424.307106 
L 375.93148 421.769438 
L 378.326528 419.136652 
L 380.618068 416.409768 
L 382.802961 413.592971 
L 384.875637 410.687667 
L 386.830041 407.69505 
L 388.66718 404.624002 
L 390.383972 401.478659 
L 391.98208 398.267721 
L 393.458908 394.995275 
L 394.821526 391.674089 
L 397.216306 384.917077 
L 399.250353 378.10045 
L 402.901863 364.821505 
L 403.908843 361.683214 
L 405.02677 358.64984 
L 406.288953 355.729996 
L 407.729542 352.93016 
L 409.366589 350.245302 
L 411.229501 347.675393 
L 413.302305 345.195258 
L 415.579284 342.786708 
L 418.048061 340.42944 
L 423.417921 335.755122 
L 432.032698 328.508335 
L 437.759821 323.331885 
L 440.535805 320.612635 
L 443.223603 317.800571 
L 445.803851 314.894334 
L 448.266943 311.896288 
L 450.597036 308.807905 
L 452.785133 305.633114 
L 454.822067 302.376306 
L 456.701045 299.042803 
L 458.415803 295.638352 
L 459.961894 292.169272 
L 461.334812 288.642065 
L 462.530888 285.063532 
L 463.54667 281.440652 
L 464.382766 277.780849 
L 465.026567 274.090739 
L 465.48427 270.378421 
L 465.755275 266.651398 
L 465.832807 262.917188 
L 465.716757 259.183649 
L 465.400852 255.458867 
L 464.885507 251.751028 
L 464.16884 248.068485 
L 463.247328 244.419912 
L 462.118388 240.814199 
L 460.777195 237.260777 
L 459.221807 233.769116 
L 457.446176 230.349597 
L 455.446609 227.012763 
L 453.217032 223.770056 
L 450.751566 220.633509 
L 448.042685 217.616188 
L 445.084708 214.731507 
L 441.863818 211.99577 
L 438.37249 209.424839 
L 434.592214 207.038878 
L 430.523765 204.853627 
L 426.144249 202.893396 
L 421.444058 201.179989 
L 416.408587 199.738508 
L 411.03634 198.590621 
L 405.326751 197.758499 
L 399.315401 197.249117 
L 393.084288 197.045734 
L 375.46898 197.173188 
L 371.607267 196.519407 
L 369.651763 194.888431 
L 369.767403 192.04874 
L 371.670713 188.027712 
L 381.214332 172.316051 
L 384.226039 166.720385 
L 386.844563 161.170765 
L 389.025062 155.722798 
L 390.770902 150.39899 
L 392.086328 145.221861 
L 393.010391 140.184426 
L 393.557091 135.298789 
L 393.759436 130.558854 
L 393.64478 125.961004 
L 393.230594 121.509094 
L 392.539474 117.200496 
L 391.592046 113.0327 
L 390.406654 109.003891 
L 388.998002 105.114823 
L 387.381555 101.364196 
L 385.569761 97.753076 
L 383.576448 94.279824 
L 381.409244 90.94977 
L 379.086442 87.753399 
L 376.610313 84.701722 
L 373.994441 81.789837 
L 371.248343 79.017515 
L 368.381318 76.384086 
L 365.395812 73.899455 
L 362.307632 71.551326 
L 359.1191 69.348998 
L 355.83907 67.290471 
L 352.476114 65.373347 
L 349.035686 63.60062 
L 345.526045 61.969287 
L 341.952519 60.481851 
L 338.320511 59.140644 
L 334.637901 57.941877 
L 330.909919 56.887418 
L 327.146243 55.966904 
L 323.347401 55.193792 
L 319.522747 54.557253 
L 315.677069 54.058303 
L 311.816961 53.691638 
L 307.945288 53.464091 
L 304.070032 53.363781 
L 300.195436 53.390981 
L 296.324419 53.552118 
L 292.465249 53.82837 
L 288.620418 54.225825 
L 284.794766 54.738491 
L 277.21725 56.093545 
L 269.762979 57.85657 
L 262.457699 59.985504 
L 255.321943 62.434213 
L 255.321943 62.434213 
" clip-path="url(#p36f03e523c)" style="fill: none; stroke-dasharray: 5.55,2.4; stroke-dashoffset: 0; stroke: #0000ff; stroke-width: 1.5"/>
   </g>
   <g id="patch_3">
    <path d="M 251.8225 41.157188 
C 222.701244 41.157188 193.863155 46.89344 166.958622 58.037662 
C 140.054089 69.181885 115.606338 85.51735 95.0145 106.109188 
C 74.422662 126.701026 58.087197 151.148777 46.942975 178.05331 
C 35.798753 204.957842 30.0625 233.795931 30.0625 262.917188 
C 30.0625 292.038444 35.798753 320.876533 46.942975 347.781065 
C 58.087197 374.685598 74.422662 399.133349 95.0145 419.725187 
C 115.606338 440.317025 140.054089 456.65249 166.958622 467.796713 
C 193.863155 478.940935 222.701244 484.677188 251.8225 484.677188 
C 280.943756 484.677188 309.781845 478.940935 336.686378 467.796713 
C 363.590911 456.65249 388.038662 440.317025 408.6305 419.725187 
C 429.222338 399.133349 445.557803 374.685598 456.702025 347.781065 
C 467.846247 320.876533 473.5825 292.038444 473.5825 262.917188 
C 473.5825 233.795931 467.846247 204.957842 456.702025 178.05331 
C 445.557803 151.148777 429.222338 126.701026 408.6305 106.109188 
C 388.038662 85.51735 363.590911 69.181885 336.686378 58.037662 
C 309.781845 46.89344 280.943756 41.157188 251.8225 41.157188 
" style="fill: none; stroke: #000000; stroke-width: 0.8; stroke-linejoin: miter; stroke-linecap: square"/>
   </g>
   <g id="text_16">
    <g id="patch_4">
     <path d="M 384.8785 509.853188 
L 488.976938 509.853188 
Q 491.976938 509.853188 491.976938 506.853188 
L 491.976938 473.945063 
Q 491.976938 470.945063 488.976938 470.945063 
L 384.8785 470.945063 
Q 381.8785 470.945063 381.8785 473.945063 
L 381.8785 506.853188 
Q 381.8785 509.853188 384.8785 509.853188 
z
" style="fill: #ffffff; stroke: #808080; stroke-linejoin: miter"/>
    </g>
    <!-- G_cst: 2.4 dBi -->
    <g transform="translate(384.8785 481.821625)scale(0.1 -0.1)">
     <defs>
      <path id="DejaVuSans-47" d="M 3809 666 
L 3809 1919 
L 2778 1919 
L 2778 2438 
L 4434 2438 
L 4434 434 
Q 4069 175 3628 42 
Q 3188 -91 2688 -91 
Q 1594 -91 976 548 
Q 359 1188 359 2328 
Q 359 3472 976 4111 
Q 1594 4750 2688 4750 
Q 3144 4750 3555 4637 
Q 3966 4525 4313 4306 
L 4313 3634 
Q 3963 3931 3569 4081 
Q 3175 4231 2741 4231 
Q 1884 4231 1454 3753 
Q 1025 3275 1025 2328 
Q 1025 1384 1454 906 
Q 1884 428 2741 428 
Q 3075 428 3337 486 
Q 3600 544 3809 666 
z
" transform="scale(0.015625)"/>
      <path id="DejaVuSans-5f" d="M 3263 -1063 
L 3263 -1509 
L -63 -1509 
L -63 -1063 
L 3263 -1063 
z
" transform="scale(0.015625)"/>
      <path id="DejaVuSans-63" d="M 3122 3366 
L 3122 2828 
Q 2878 2963 2633 3030 
Q 2388 3097 2138 3097 
Q 1578 3097 1268 2742 
Q 959 2388 959 1747 
Q 959 1106 1268 751 
Q 1578 397 2138 397 
Q 2388 397 2633 464 
Q 2878 531 3122 666 
L 3122 134 
Q 2881 22 2623 -34 
Q 2366 -91 2075 -91 
Q 1284 -91 818 406 
Q 353 903 353 1747 
Q 353 2603 823 3093 
Q 1294 3584 2113 3584 
Q 2378 3584 2631 3529 
Q 2884 3475 3122 3366 
z
" transform="scale(0.015625)"/>
      <path id="DejaVuSans-73" d="M 2834 3397 
L 2834 2853 
Q 2591 2978 2328 3040 
Q 2066 3103 1784 3103 
Q 1356 3103 1142 2972 
Q 928 2841 928 2578 
Q 928 2378 1081 2264 
Q 1234 2150 1697 2047 
L 1894 2003 
Q 2506 1872 2764 1633 
Q 3022 1394 3022 966 
Q 3022 478 2636 193 
Q 2250 -91 1575 -91 
Q 1294 -91 989 -36 
Q 684 19 347 128 
L 347 722 
Q 666 556 975 473 
Q 1284 391 1588 391 
Q 1994 391 2212 530 
Q 2431 669 2431 922 
Q 2431 1156 2273 1281 
Q 2116 1406 1581 1522 
L 1381 1569 
Q 847 1681 609 1914 
Q 372 2147 372 2553 
Q 372 3047 722 3315 
Q 1072 3584 1716 3584 
Q 2034 3584 2315 3537 
Q 2597 3491 2834 3397 
z
" transform="scale(0.015625)"/>
      <path id="DejaVuSans-74" d="M 1172 4494 
L 1172 3500 
L 2356 3500 
L 2356 3053 
L 1172 3053 
L 1172 1153 
Q 1172 725 1289 603 
Q 1406 481 1766 481 
L 2356 481 
L 2356 0 
L 1766 0 
Q 1100 0 847 248 
Q 594 497 594 1153 
L 594 3053 
L 172 3053 
L 172 3500 
L 594 3500 
L 594 4494 
L 1172 4494 
z
" transform="scale(0.015625)"/>
      <path id="DejaVuSans-3a" d="M 750 794 
L 1409 794 
L 1409 0 
L 750 0 
L 750 794 
z
M 750 3309 
L 1409 3309 
L 1409 2516 
L 750 2516 
L 750 3309 
z
" transform="scale(0.015625)"/>
      <path id="DejaVuSans-20" transform="scale(0.015625)"/>
      <path id="DejaVuSans-2e" d="M 684 794 
L 1344 794 
L 1344 0 
L 684 0 
L 684 794 
z
" transform="scale(0.015625)"/>
      <path id="DejaVuSans-64" d="M 2906 2969 
L 2906 4863 
L 3481 4863 
L 3481 0 
L 2906 0 
L 2906 525 
Q 2725 213 2448 61 
Q 2172 -91 1784 -91 
Q 1150 -91 751 415 
Q 353 922 353 1747 
Q 353 2572 751 3078 
Q 1150 3584 1784 3584 
Q 2172 3584 2448 3432 
Q 2725 3281 2906 2969 
z
M 947 1747 
Q 947 1113 1208 752 
Q 1469 391 1925 391 
Q 2381 391 2643 752 
Q 2906 1113 2906 1747 
Q 2906 2381 2643 2742 
Q 2381 3103 1925 3103 
Q 1469 3103 1208 2742 
Q 947 2381 947 1747 
z
" transform="scale(0.015625)"/>
      <path id="DejaVuSans-42" d="M 1259 2228 
L 1259 519 
L 2272 519 
Q 2781 519 3026 730 
Q 3272 941 3272 1375 
Q 3272 1813 3026 2020 
Q 2781 2228 2272 2228 
L 1259 2228 
z
M 1259 4147 
L 1259 2741 
L 2194 2741 
Q 2656 2741 2882 2914 
Q 3109 3088 3109 3444 
Q 3109 3797 2882 3972 
Q 2656 4147 2194 4147 
L 1259 4147 
z
M 628 4666 
L 2241 4666 
Q 2963 4666 3353 4366 
Q 3744 4066 3744 3513 
Q 3744 3084 3544 2831 
Q 3344 2578 2956 2516 
Q 3422 2416 3680 2098 
Q 3938 1781 3938 1306 
Q 3938 681 3513 340 
Q 3088 0 2303 0 
L 628 0 
L 628 4666 
z
" transform="scale(0.015625)"/>
      <path id="DejaVuSans-69" d="M 603 3500 
L 1178 3500 
L 1178 0 
L 603 0 
L 603 3500 
z
M 603 4863 
L 1178 4863 
L 1178 4134 
L 603 4134 
L 603 4863 
z
" transform="scale(0.015625)"/>
     </defs>
     <use xlink:href="#DejaVuSans-47"/>
     <use xlink:href="#DejaVuSans-5f" x="77.490234"/>
     <use xlink:href="#DejaVuSans-63" x="127.490234"/>
     <use xlink:href="#DejaVuSans-73" x="182.470703"/>
     <use xlink:href="#DejaVuSans-74" x="234.570312"/>
     <use xlink:href="#DejaVuSans-3a" x="273.779297"/>
     <use xlink:href="#DejaVuSans-20" x="307.470703"/>
     <use xlink:href="#DejaVuSans-32" x="339.257812"/>
     <use xlink:href="#DejaVuSans-2e" x="402.880859"/>
     <use xlink:href="#DejaVuSans-34" x="434.667969"/>
     <use xlink:href="#DejaVuSans-20" x="498.291016"/>
     <use xlink:href="#DejaVuSans-64" x="530.078125"/>
     <use xlink:href="#DejaVuSans-42" x="593.554688"/>
     <use xlink:href="#DejaVuSans-69" x="662.158203"/>
    </g>
    <!-- G_inpe: 0.9 dBi -->
    <g transform="translate(384.8785 493.297563)scale(0.1 -0.1)">
     <defs>
      <path id="DejaVuSans-6e" d="M 3513 2113 
L 3513 0 
L 2938 0 
L 2938 2094 
Q 2938 2591 2744 2837 
Q 2550 3084 2163 3084 
Q 1697 3084 1428 2787 
Q 1159 2491 1159 1978 
L 1159 0 
L 581 0 
L 581 3500 
L 1159 3500 
L 1159 2956 
Q 1366 3272 1645 3428 
Q 1925 3584 2291 3584 
Q 2894 3584 3203 3211 
Q 3513 2838 3513 2113 
z
" transform="scale(0.015625)"/>
      <path id="DejaVuSans-70" d="M 1159 525 
L 1159 -1331 
L 581 -1331 
L 581 3500 
L 1159 3500 
L 1159 2969 
Q 1341 3281 1617 3432 
Q 1894 3584 2278 3584 
Q 2916 3584 3314 3078 
Q 3713 2572 3713 1747 
Q 3713 922 3314 415 
Q 2916 -91 2278 -91 
Q 1894 -91 1617 61 
Q 1341 213 1159 525 
z
M 3116 1747 
Q 3116 2381 2855 2742 
Q 2594 3103 2138 3103 
Q 1681 3103 1420 2742 
Q 1159 2381 1159 1747 
Q 1159 1113 1420 752 
Q 1681 391 2138 391 
Q 2594 391 2855 752 
Q 3116 1113 3116 1747 
z
" transform="scale(0.015625)"/>
      <path id="DejaVuSans-65" d="M 3597 1894 
L 3597 1613 
L 953 1613 
Q 991 1019 1311 708 
Q 1631 397 2203 397 
Q 2534 397 2845 478 
Q 3156 559 3463 722 
L 3463 178 
Q 3153 47 2828 -22 
Q 2503 -91 2169 -91 
Q 1331 -91 842 396 
Q 353 884 353 1716 
Q 353 2575 817 3079 
Q 1281 3584 2069 3584 
Q 2775 3584 3186 3129 
Q 3597 2675 3597 1894 
z
M 3022 2063 
Q 3016 2534 2758 2815 
Q 2500 3097 2075 3097 
Q 1594 3097 1305 2825 
Q 1016 2553 972 2059 
L 3022 2063 
z
" transform="scale(0.015625)"/>
     </defs>
     <use xlink:href="#DejaVuSans-47"/>
     <use xlink:href="#DejaVuSans-5f" x="77.490234"/>
     <use xlink:href="#DejaVuSans-69" x="127.490234"/>
     <use xlink:href="#DejaVuSans-6e" x="155.273438"/>
     <use xlink:href="#DejaVuSans-70" x="218.652344"/>
     <use xlink:href="#DejaVuSans-65" x="282.128906"/>
     <use xlink:href="#DejaVuSans-3a" x="343.652344"/>
     <use xlink:href="#DejaVuSans-20" x="377.34375"/>
     <use xlink:href="#DejaVuSans-30" x="409.130859"/>
     <use xlink:href="#DejaVuSans-2e" x="472.753906"/>
     <use xlink:href="#DejaVuSans-39" x="504.541016"/>
     <use xlink:href="#DejaVuSans-20" x="568.164062"/>
     <use xlink:href="#DejaVuSans-64" x="599.951172"/>
     <use xlink:href="#DejaVuSans-42" x="663.427734"/>
     <use xlink:href="#DejaVuSans-69" x="732.03125"/>
    </g>
    <!-- Pearson Coef: -0.384 -->
    <g transform="translate(384.8785 504.7735)scale(0.1 -0.1)">
     <defs>
      <path id="DejaVuSans-50" d="M 1259 4147 
L 1259 2394 
L 2053 2394 
Q 2494 2394 2734 2622 
Q 2975 2850 2975 3272 
Q 2975 3691 2734 3919 
Q 2494 4147 2053 4147 
L 1259 4147 
z
M 628 4666 
L 2053 4666 
Q 2838 4666 3239 4311 
Q 3641 3956 3641 3272 
Q 3641 2581 3239 2228 
Q 2838 1875 2053 1875 
L 1259 1875 
L 1259 0 
L 628 0 
L 628 4666 
z
" transform="scale(0.015625)"/>
      <path id="DejaVuSans-61" d="M 2194 1759 
Q 1497 1759 1228 1600 
Q 959 1441 959 1056 
Q 959 750 1161 570 
Q 1363 391 1709 391 
Q 2188 391 2477 730 
Q 2766 1069 2766 1631 
L 2766 1759 
L 2194 1759 
z
M 3341 1997 
L 3341 0 
L 2766 0 
L 2766 531 
Q 2569 213 2275 61 
Q 1981 -91 1556 -91 
Q 1019 -91 701 211 
Q 384 513 384 1019 
Q 384 1609 779 1909 
Q 1175 2209 1959 2209 
L 2766 2209 
L 2766 2266 
Q 2766 2663 2505 2880 
Q 2244 3097 1772 3097 
Q 1472 3097 1187 3025 
Q 903 2953 641 2809 
L 641 3341 
Q 956 3463 1253 3523 
Q 1550 3584 1831 3584 
Q 2591 3584 2966 3190 
Q 3341 2797 3341 1997 
z
" transform="scale(0.015625)"/>
      <path id="DejaVuSans-72" d="M 2631 2963 
Q 2534 3019 2420 3045 
Q 2306 3072 2169 3072 
Q 1681 3072 1420 2755 
Q 1159 2438 1159 1844 
L 1159 0 
L 581 0 
L 581 3500 
L 1159 3500 
L 1159 2956 
Q 1341 3275 1631 3429 
Q 1922 3584 2338 3584 
Q 2397 3584 2469 3576 
Q 2541 3569 2628 3553 
L 2631 2963 
z
" transform="scale(0.015625)"/>
      <path id="DejaVuSans-6f" d="M 1959 3097 
Q 1497 3097 1228 2736 
Q 959 2375 959 1747 
Q 959 1119 1226 758 
Q 1494 397 1959 397 
Q 2419 397 2687 759 
Q 2956 1122 2956 1747 
Q 2956 2369 2687 2733 
Q 2419 3097 1959 3097 
z
M 1959 3584 
Q 2709 3584 3137 3096 
Q 3566 2609 3566 1747 
Q 3566 888 3137 398 
Q 2709 -91 1959 -91 
Q 1206 -91 779 398 
Q 353 888 353 1747 
Q 353 2609 779 3096 
Q 1206 3584 1959 3584 
z
" transform="scale(0.015625)"/>
      <path id="DejaVuSans-43" d="M 4122 4306 
L 4122 3641 
Q 3803 3938 3442 4084 
Q 3081 4231 2675 4231 
Q 1875 4231 1450 3742 
Q 1025 3253 1025 2328 
Q 1025 1406 1450 917 
Q 1875 428 2675 428 
Q 3081 428 3442 575 
Q 3803 722 4122 1019 
L 4122 359 
Q 3791 134 3420 21 
Q 3050 -91 2638 -91 
Q 1578 -91 968 557 
Q 359 1206 359 2328 
Q 359 3453 968 4101 
Q 1578 4750 2638 4750 
Q 3056 4750 3426 4639 
Q 3797 4528 4122 4306 
z
" transform="scale(0.015625)"/>
      <path id="DejaVuSans-66" d="M 2375 4863 
L 2375 4384 
L 1825 4384 
Q 1516 4384 1395 4259 
Q 1275 4134 1275 3809 
L 1275 3500 
L 2222 3500 
L 2222 3053 
L 1275 3053 
L 1275 0 
L 697 0 
L 697 3053 
L 147 3053 
L 147 3500 
L 697 3500 
L 697 3744 
Q 697 4328 969 4595 
Q 1241 4863 1831 4863 
L 2375 4863 
z
" transform="scale(0.015625)"/>
      <path id="DejaVuSans-2d" d="M 313 2009 
L 1997 2009 
L 1997 1497 
L 313 1497 
L 313 2009 
z
" transform="scale(0.015625)"/>
     </defs>
     <use xlink:href="#DejaVuSans-50"/>
     <use xlink:href="#DejaVuSans-65" x="56.677734"/>
     <use xlink:href="#DejaVuSans-61" x="118.201172"/>
     <use xlink:href="#DejaVuSans-72" x="179.480469"/>
     <use xlink:href="#DejaVuSans-73" x="220.59375"/>
     <use xlink:href="#DejaVuSans-6f" x="272.693359"/>
     <use xlink:href="#DejaVuSans-6e" x="333.875"/>
     <use xlink:href="#DejaVuSans-20" x="397.253906"/>
     <use xlink:href="#DejaVuSans-43" x="429.041016"/>
     <use xlink:href="#DejaVuSans-6f" x="498.865234"/>
     <use xlink:href="#DejaVuSans-65" x="560.046875"/>
     <use xlink:href="#DejaVuSans-66" x="621.570312"/>
     <use xlink:href="#DejaVuSans-3a" x="653.150391"/>
     <use xlink:href="#DejaVuSans-20" x="686.841797"/>
     <use xlink:href="#DejaVuSans-2d" x="718.628906"/>
     <use xlink:href="#DejaVuSans-30" x="754.712891"/>
     <use xlink:href="#DejaVuSans-2e" x="818.335938"/>
     <use xlink:href="#DejaVuSans-33" x="850.123047"/>
     <use xlink:href="#DejaVuSans-38" x="913.746094"/>
     <use xlink:href="#DejaVuSans-34" x="977.369141"/>
    </g>
   </g>
   <g id="text_17">
    <g id="patch_5">
     <path d="M 52.2385 56.370938 
L 121.861 56.370938 
Q 125.461 56.370938 125.461 52.770938 
L 125.461 41.157188 
Q 125.461 37.557188 121.861 37.557188 
L 52.2385 37.557188 
Q 48.6385 37.557188 48.6385 41.157188 
L 48.6385 52.770938 
Q 48.6385 56.370938 52.2385 56.370938 
z
" style="fill: #ffffff; stroke: #808080; stroke-linejoin: miter"/>
    </g>
    <!-- Freq: 8 GHz -->
    <g transform="translate(52.2385 50.275313)scale(0.12 -0.12)">
     <defs>
      <path id="DejaVuSans-46" d="M 628 4666 
L 3309 4666 
L 3309 4134 
L 1259 4134 
L 1259 2759 
L 3109 2759 
L 3109 2228 
L 1259 2228 
L 1259 0 
L 628 0 
L 628 4666 
z
" transform="scale(0.015625)"/>
      <path id="DejaVuSans-71" d="M 947 1747 
Q 947 1113 1208 752 
Q 1469 391 1925 391 
Q 2381 391 2643 752 
Q 2906 1113 2906 1747 
Q 2906 2381 2643 2742 
Q 2381 3103 1925 3103 
Q 1469 3103 1208 2742 
Q 947 2381 947 1747 
z
M 2906 525 
Q 2725 213 2448 61 
Q 2172 -91 1784 -91 
Q 1150 -91 751 415 
Q 353 922 353 1747 
Q 353 2572 751 3078 
Q 1150 3584 1784 3584 
Q 2172 3584 2448 3432 
Q 2725 3281 2906 2969 
L 2906 3500 
L 3481 3500 
L 3481 -1331 
L 2906 -1331 
L 2906 525 
z
" transform="scale(0.015625)"/>
      <path id="DejaVuSans-48" d="M 628 4666 
L 1259 4666 
L 1259 2753 
L 3553 2753 
L 3553 4666 
L 4184 4666 
L 4184 0 
L 3553 0 
L 3553 2222 
L 1259 2222 
L 1259 0 
L 628 0 
L 628 4666 
z
" transform="scale(0.015625)"/>
      <path id="DejaVuSans-7a" d="M 353 3500 
L 3084 3500 
L 3084 2975 
L 922 459 
L 3084 459 
L 3084 0 
L 275 0 
L 275 525 
L 2438 3041 
L 353 3041 
L 353 3500 
z
" transform="scale(0.015625)"/>
     </defs>
     <use xlink:href="#DejaVuSans-46"/>
     <use xlink:href="#DejaVuSans-72" x="50.269531"/>
     <use xlink:href="#DejaVuSans-65" x="89.132812"/>
     <use xlink:href="#DejaVuSans-71" x="150.65625"/>
     <use xlink:href="#DejaVuSans-3a" x="214.132812"/>
     <use xlink:href="#DejaVuSans-20" x="247.824219"/>
     <use xlink:href="#DejaVuSans-38" x="279.611328"/>
     <use xlink:href="#DejaVuSans-20" x="343.234375"/>
     <use xlink:href="#DejaVuSans-47" x="375.021484"/>
     <use xlink:href="#DejaVuSans-48" x="452.511719"/>
     <use xlink:href="#DejaVuSans-7a" x="527.707031"/>
    </g>
   </g>
   <g id="text_18">
    <!-- Radiation Diagram - 1AVHF08 -->
    <g transform="translate(162.578125 16.318125)scale(0.12 -0.12)">
     <defs>
      <path id="DejaVuSans-52" d="M 2841 2188 
Q 3044 2119 3236 1894 
Q 3428 1669 3622 1275 
L 4263 0 
L 3584 0 
L 2988 1197 
Q 2756 1666 2539 1819 
Q 2322 1972 1947 1972 
L 1259 1972 
L 1259 0 
L 628 0 
L 628 4666 
L 2053 4666 
Q 2853 4666 3247 4331 
Q 3641 3997 3641 3322 
Q 3641 2881 3436 2590 
Q 3231 2300 2841 2188 
z
M 1259 4147 
L 1259 2491 
L 2053 2491 
Q 2509 2491 2742 2702 
Q 2975 2913 2975 3322 
Q 2975 3731 2742 3939 
Q 2509 4147 2053 4147 
L 1259 4147 
z
" transform="scale(0.015625)"/>
      <path id="DejaVuSans-44" d="M 1259 4147 
L 1259 519 
L 2022 519 
Q 2988 519 3436 956 
Q 3884 1394 3884 2338 
Q 3884 3275 3436 3711 
Q 2988 4147 2022 4147 
L 1259 4147 
z
M 628 4666 
L 1925 4666 
Q 3281 4666 3915 4102 
Q 4550 3538 4550 2338 
Q 4550 1131 3912 565 
Q 3275 0 1925 0 
L 628 0 
L 628 4666 
z
" transform="scale(0.015625)"/>
      <path id="DejaVuSans-67" d="M 2906 1791 
Q 2906 2416 2648 2759 
Q 2391 3103 1925 3103 
Q 1463 3103 1205 2759 
Q 947 2416 947 1791 
Q 947 1169 1205 825 
Q 1463 481 1925 481 
Q 2391 481 2648 825 
Q 2906 1169 2906 1791 
z
M 3481 434 
Q 3481 -459 3084 -895 
Q 2688 -1331 1869 -1331 
Q 1566 -1331 1297 -1286 
Q 1028 -1241 775 -1147 
L 775 -588 
Q 1028 -725 1275 -790 
Q 1522 -856 1778 -856 
Q 2344 -856 2625 -561 
Q 2906 -266 2906 331 
L 2906 616 
Q 2728 306 2450 153 
Q 2172 0 1784 0 
Q 1141 0 747 490 
Q 353 981 353 1791 
Q 353 2603 747 3093 
Q 1141 3584 1784 3584 
Q 2172 3584 2450 3431 
Q 2728 3278 2906 2969 
L 2906 3500 
L 3481 3500 
L 3481 434 
z
" transform="scale(0.015625)"/>
      <path id="DejaVuSans-6d" d="M 3328 2828 
Q 3544 3216 3844 3400 
Q 4144 3584 4550 3584 
Q 5097 3584 5394 3201 
Q 5691 2819 5691 2113 
L 5691 0 
L 5113 0 
L 5113 2094 
Q 5113 2597 4934 2840 
Q 4756 3084 4391 3084 
Q 3944 3084 3684 2787 
Q 3425 2491 3425 1978 
L 3425 0 
L 2847 0 
L 2847 2094 
Q 2847 2600 2669 2842 
Q 2491 3084 2119 3084 
Q 1678 3084 1418 2786 
Q 1159 2488 1159 1978 
L 1159 0 
L 581 0 
L 581 3500 
L 1159 3500 
L 1159 2956 
Q 1356 3278 1631 3431 
Q 1906 3584 2284 3584 
Q 2666 3584 2933 3390 
Q 3200 3197 3328 2828 
z
" transform="scale(0.015625)"/>
      <path id="DejaVuSans-41" d="M 2188 4044 
L 1331 1722 
L 3047 1722 
L 2188 4044 
z
M 1831 4666 
L 2547 4666 
L 4325 0 
L 3669 0 
L 3244 1197 
L 1141 1197 
L 716 0 
L 50 0 
L 1831 4666 
z
" transform="scale(0.015625)"/>
      <path id="DejaVuSans-56" d="M 1831 0 
L 50 4666 
L 709 4666 
L 2188 738 
L 3669 4666 
L 4325 4666 
L 2547 0 
L 1831 0 
z
" transform="scale(0.015625)"/>
     </defs>
     <use xlink:href="#DejaVuSans-52"/>
     <use xlink:href="#DejaVuSans-61" x="67.232422"/>
     <use xlink:href="#DejaVuSans-64" x="128.511719"/>
     <use xlink:href="#DejaVuSans-69" x="191.988281"/>
     <use xlink:href="#DejaVuSans-61" x="219.771484"/>
     <use xlink:href="#DejaVuSans-74" x="281.050781"/>
     <use xlink:href="#DejaVuSans-69" x="320.259766"/>
     <use xlink:href="#DejaVuSans-6f" x="348.042969"/>
     <use xlink:href="#DejaVuSans-6e" x="409.224609"/>
     <use xlink:href="#DejaVuSans-20" x="472.603516"/>
     <use xlink:href="#DejaVuSans-44" x="504.390625"/>
     <use xlink:href="#DejaVuSans-69" x="581.392578"/>
     <use xlink:href="#DejaVuSans-61" x="609.175781"/>
     <use xlink:href="#DejaVuSans-67" x="670.455078"/>
     <use xlink:href="#DejaVuSans-72" x="733.931641"/>
     <use xlink:href="#DejaVuSans-61" x="775.044922"/>
     <use xlink:href="#DejaVuSans-6d" x="836.324219"/>
     <use xlink:href="#DejaVuSans-20" x="933.736328"/>
     <use xlink:href="#DejaVuSans-2d" x="965.523438"/>
     <use xlink:href="#DejaVuSans-20" x="1001.607422"/>
     <use xlink:href="#DejaVuSans-31" x="1033.394531"/>
     <use xlink:href="#DejaVuSans-41" x="1097.017578"/>
     <use xlink:href="#DejaVuSans-56" x="1159.050781"/>
     <use xlink:href="#DejaVuSans-48" x="1227.458984"/>
     <use xlink:href="#DejaVuSans-46" x="1302.654297"/>
     <use xlink:href="#DejaVuSans-30" x="1360.173828"/>
     <use xlink:href="#DejaVuSans-38" x="1423.796875"/>
    </g>
   </g>
   <g id="legend_1">
    <g id="patch_6">
     <path d="M 411.802812 78.513438 
L 466.5825 78.513438 
Q 468.5825 78.513438 468.5825 76.513438 
L 468.5825 48.157188 
Q 468.5825 46.157188 466.5825 46.157188 
L 411.802812 46.157188 
Q 409.802812 46.157188 409.802812 48.157188 
L 409.802812 76.513438 
Q 409.802812 78.513438 411.802812 78.513438 
z
" style="fill: #ffffff; opacity: 0.8; stroke: #cccccc; stroke-linejoin: miter"/>
    </g>
    <g id="line2d_18">
     <path d="M 413.802812 54.255625 
L 423.802812 54.255625 
L 433.802812 54.255625 
" style="fill: none; stroke: #ff0000; stroke-width: 1.5; stroke-linecap: square"/>
    </g>
    <g id="text_19">
     <!-- INPE -->
     <g transform="translate(441.802812 57.755625)scale(0.1 -0.1)">
      <defs>
       <path id="DejaVuSans-49" d="M 628 4666 
L 1259 4666 
L 1259 0 
L 628 0 
L 628 4666 
z
" transform="scale(0.015625)"/>
       <path id="DejaVuSans-4e" d="M 628 4666 
L 1478 4666 
L 3547 763 
L 3547 4666 
L 4159 4666 
L 4159 0 
L 3309 0 
L 1241 3903 
L 1241 0 
L 628 0 
L 628 4666 
z
" transform="scale(0.015625)"/>
       <path id="DejaVuSans-45" d="M 628 4666 
L 3578 4666 
L 3578 4134 
L 1259 4134 
L 1259 2753 
L 3481 2753 
L 3481 2222 
L 1259 2222 
L 1259 531 
L 3634 531 
L 3634 0 
L 628 0 
L 628 4666 
z
" transform="scale(0.015625)"/>
      </defs>
      <use xlink:href="#DejaVuSans-49"/>
      <use xlink:href="#DejaVuSans-4e" x="29.492188"/>
      <use xlink:href="#DejaVuSans-50" x="104.296875"/>
      <use xlink:href="#DejaVuSans-45" x="164.599609"/>
     </g>
    </g>
    <g id="line2d_19">
     <path d="M 413.802812 68.93375 
L 423.802812 68.93375 
L 433.802812 68.93375 
" style="fill: none; stroke-dasharray: 5.55,2.4; stroke-dashoffset: 0; stroke: #0000ff; stroke-width: 1.5"/>
    </g>
    <g id="text_20">
     <!-- CST -->
     <g transform="translate(441.802812 72.43375)scale(0.1 -0.1)">
      <defs>
       <path id="DejaVuSans-53" d="M 3425 4513 
L 3425 3897 
Q 3066 4069 2747 4153 
Q 2428 4238 2131 4238 
Q 1616 4238 1336 4038 
Q 1056 3838 1056 3469 
Q 1056 3159 1242 3001 
Q 1428 2844 1947 2747 
L 2328 2669 
Q 3034 2534 3370 2195 
Q 3706 1856 3706 1288 
Q 3706 609 3251 259 
Q 2797 -91 1919 -91 
Q 1588 -91 1214 -16 
Q 841 59 441 206 
L 441 856 
Q 825 641 1194 531 
Q 1563 422 1919 422 
Q 2459 422 2753 634 
Q 3047 847 3047 1241 
Q 3047 1584 2836 1778 
Q 2625 1972 2144 2069 
L 1759 2144 
Q 1053 2284 737 2584 
Q 422 2884 422 3419 
Q 422 4038 858 4394 
Q 1294 4750 2059 4750 
Q 2388 4750 2728 4690 
Q 3069 4631 3425 4513 
z
" transform="scale(0.015625)"/>
       <path id="DejaVuSans-54" d="M -19 4666 
L 3928 4666 
L 3928 4134 
L 2272 4134 
L 2272 0 
L 1638 0 
L 1638 4134 
L -19 4134 
L -19 4666 
z
" transform="scale(0.015625)"/>
      </defs>
      <use xlink:href="#DejaVuSans-43"/>
      <use xlink:href="#DejaVuSans-53" x="69.824219"/>
      <use xlink:href="#DejaVuSans-54" x="133.300781"/>
     </g>
    </g>
   </g>
  </g>
 </g>
 <defs>
  <clipPath id="p36f03e523c">
   <path d="M 473.5825 262.917188 
C 473.5825 233.795931 467.846247 204.957842 456.702025 178.05331 
C 445.557803 151.148777 429.222338 126.701026 408.6305 106.109188 
C 388.038662 85.51735 363.590911 69.181885 336.686378 58.037662 
C 309.781845 46.89344 280.943756 41.157188 251.8225 41.157188 
C 222.701244 41.157188 193.863155 46.89344 166.958622 58.037662 
C 140.054089 69.181885 115.606338 85.51735 95.0145 106.109188 
C 74.422662 126.701026 58.087197 151.148777 46.942975 178.05331 
C 35.798753 204.957842 30.0625 233.795931 30.0625 262.917188 
C 30.0625 292.038444 35.798753 320.876533 46.942975 347.781065 
C 58.087197 374.685598 74.422662 399.133349 95.0145 419.725187 
C 115.606338 440.317025 140.054089 456.65249 166.958622 467.796713 
C 193.863155 478.940935 222.701244 484.677188 251.8225 484.677188 
C 280.943756 484.677188 309.781845 478.940935 336.686378 467.796713 
C 363.590911 456.65249 388.038662 440.317025 408.6305 419.725187 
C 429.222338 399.133349 445.557803 374.685598 456.702025 347.781065 
C 467.846247 320.876533 473.5825 292.038444 473.5825 262.917188 
M 251.8225 262.917188 
C 251.8225 262.917188 251.8225 262.917188 251.8225 262.917188 
C 251.8225 262.917188 251.8225 262.917188 251.8225 262.917188 
C 251.8225 262.917188 251.8225 262.917188 251.8225 262.917188 
C 251.8225 262.917188 251.8225 262.917188 251.8225 262.917188 
C 251.8225 262.917188 251.8225 262.917188 251.8225 262.917188 
C 251.8225 262.917188 251.8225 262.917188 251.8225 262.917188 
C 251.8225 262.917188 251.8225 262.917188 251.8225 262.917188 
C 251.8225 262.917188 251.8225 262.917188 251.8225 262.917188 
C 251.8225 262.917188 251.8225 262.917188 251.8225 262.917188 
C 251.8225 262.917188 251.8225 262.917188 251.8225 262.917188 
C 251.8225 262.917188 251.8225 262.917188 251.8225 262.917188 
C 251.8225 262.917188 251.8225 262.917188 251.8225 262.917188 
C 251.8225 262.917188 251.8225 262.917188 251.8225 262.917188 
C 251.8225 262.917188 251.8225 262.917188 251.8225 262.917188 
C 251.8225 262.917188 251.8225 262.917188 251.8225 262.917188 
C 251.8225 262.917188 251.8225 262.917188 251.8225 262.917188 
M 473.5825 262.917188 
z
"/>
  </clipPath>
 </defs>
</svg>
