<?xml version="1.0" encoding="utf-8" standalone="no"?>
<!DOCTYPE svg PUBLIC "-//W3C//DTD SVG 1.1//EN"
  "http://www.w3.org/Graphics/SVG/1.1/DTD/svg11.dtd">
<svg xmlns:xlink="http://www.w3.org/1999/xlink" width="506.82625pt" height="514.053188pt" viewBox="0 0 506.82625 514.053188" xmlns="http://www.w3.org/2000/svg" version="1.1">
 <metadata>
  <rdf:RDF xmlns:dc="http://purl.org/dc/elements/1.1/" xmlns:cc="http://creativecommons.org/ns#" xmlns:rdf="http://www.w3.org/1999/02/22-rdf-syntax-ns#">
   <cc:Work>
    <dc:type rdf:resource="http://purl.org/dc/dcmitype/StillImage"/>
    <dc:date>2023-11-04T17:59:14.071195</dc:date>
    <dc:format>image/svg+xml</dc:format>
    <dc:creator>
     <cc:Agent>
      <dc:title>Matplotlib v3.5.1, https://matplotlib.org/</dc:title>
     </cc:Agent>
    </dc:creator>
   </cc:Work>
  </rdf:RDF>
 </metadata>
 <defs>
  <style type="text/css">*{stroke-linejoin: round; stroke-linecap: butt}</style>
 </defs>
 <g id="figure_1">
  <g id="patch_1">
   <path d="M 0 514.053188 
L 506.82625 514.053188 
L 506.82625 0 
L 0 0 
z
" style="fill: #ffffff"/>
  </g>
  <g id="axes_1">
   <g id="patch_2">
    <path d="M 473.5825 262.917188 
C 473.5825 233.795931 467.846247 204.957842 456.702025 178.05331 
C 445.557803 151.148777 429.222338 126.701026 408.6305 106.109188 
C 388.038662 85.51735 363.590911 69.181885 336.686378 58.037662 
C 309.781845 46.89344 280.943756 41.157188 251.8225 41.157188 
C 222.701244 41.157188 193.863155 46.89344 166.958622 58.037662 
C 140.054089 69.181885 115.606338 85.51735 95.0145 106.109188 
C 74.422662 126.701026 58.087197 151.148777 46.942975 178.05331 
C 35.798753 204.957842 30.0625 233.795931 30.0625 262.917188 
C 30.0625 292.038444 35.798753 320.876533 46.942975 347.781065 
C 58.087197 374.685598 74.422662 399.133349 95.0145 419.725187 
C 115.606338 440.317025 140.054089 456.65249 166.958622 467.796713 
C 193.863155 478.940935 222.701244 484.677188 251.8225 484.677188 
C 280.943756 484.677188 309.781845 478.940935 336.686378 467.796713 
C 363.590911 456.65249 388.038662 440.317025 408.6305 419.725187 
C 429.222338 399.133349 445.557803 374.685598 456.702025 347.781065 
C 467.846247 320.876533 473.5825 292.038444 473.5825 262.917188 
M 251.8225 262.917188 
C 251.8225 262.917188 251.8225 262.917188 251.8225 262.917188 
C 251.8225 262.917188 251.8225 262.917188 251.8225 262.917188 
C 251.8225 262.917188 251.8225 262.917188 251.8225 262.917188 
C 251.8225 262.917188 251.8225 262.917188 251.8225 262.917188 
C 251.8225 262.917188 251.8225 262.917188 251.8225 262.917188 
C 251.8225 262.917188 251.8225 262.917188 251.8225 262.917188 
C 251.8225 262.917188 251.8225 262.917188 251.8225 262.917188 
C 251.8225 262.917188 251.8225 262.917188 251.8225 262.917188 
C 251.8225 262.917188 251.8225 262.917188 251.8225 262.917188 
C 251.8225 262.917188 251.8225 262.917188 251.8225 262.917188 
C 251.8225 262.917188 251.8225 262.917188 251.8225 262.917188 
C 251.8225 262.917188 251.8225 262.917188 251.8225 262.917188 
C 251.8225 262.917188 251.8225 262.917188 251.8225 262.917188 
C 251.8225 262.917188 251.8225 262.917188 251.8225 262.917188 
C 251.8225 262.917188 251.8225 262.917188 251.8225 262.917188 
C 251.8225 262.917188 251.8225 262.917188 251.8225 262.917188 
M 473.5825 262.917188 
z
" style="fill: #ffffff"/>
   </g>
   <g id="matplotlib.axis_1">
    <g id="xtick_1">
     <g id="line2d_1">
      <path d="M 251.8225 262.917188 
L 251.8225 41.157188 
" clip-path="url(#p824b9cacee)" style="fill: none; stroke: #b0b0b0; stroke-width: 0.8; stroke-linecap: square"/>
     </g>
     <g id="text_1">
      <!-- 0° -->
      <g transform="translate(246.14125 29.916563)scale(0.1 -0.1)">
       <defs>
        <path id="DejaVuSans-30" d="M 2034 4250 
Q 1547 4250 1301 3770 
Q 1056 3291 1056 2328 
Q 1056 1369 1301 889 
Q 1547 409 2034 409 
Q 2525 409 2770 889 
Q 3016 1369 3016 2328 
Q 3016 3291 2770 3770 
Q 2525 4250 2034 4250 
z
M 2034 4750 
Q 2819 4750 3233 4129 
Q 3647 3509 3647 2328 
Q 3647 1150 3233 529 
Q 2819 -91 2034 -91 
Q 1250 -91 836 529 
Q 422 1150 422 2328 
Q 422 3509 836 4129 
Q 1250 4750 2034 4750 
z
" transform="scale(0.015625)"/>
        <path id="DejaVuSans-b0" d="M 1600 4347 
Q 1350 4347 1178 4173 
Q 1006 4000 1006 3750 
Q 1006 3503 1178 3333 
Q 1350 3163 1600 3163 
Q 1850 3163 2022 3333 
Q 2194 3503 2194 3750 
Q 2194 3997 2020 4172 
Q 1847 4347 1600 4347 
z
M 1600 4750 
Q 1800 4750 1984 4673 
Q 2169 4597 2303 4453 
Q 2447 4313 2519 4134 
Q 2591 3956 2591 3750 
Q 2591 3338 2302 3052 
Q 2013 2766 1594 2766 
Q 1172 2766 890 3047 
Q 609 3328 609 3750 
Q 609 4169 896 4459 
Q 1184 4750 1600 4750 
z
" transform="scale(0.015625)"/>
       </defs>
       <use xlink:href="#DejaVuSans-30"/>
       <use xlink:href="#DejaVuSans-b0" x="63.623047"/>
      </g>
     </g>
    </g>
    <g id="xtick_2">
     <g id="line2d_2">
      <path d="M 251.8225 262.917188 
L 95.0145 106.109188 
" clip-path="url(#p824b9cacee)" style="fill: none; stroke: #b0b0b0; stroke-width: 0.8; stroke-linecap: square"/>
     </g>
     <g id="text_2">
      <!-- 45° -->
      <g transform="translate(76.252505 98.969068)scale(0.1 -0.1)">
       <defs>
        <path id="DejaVuSans-34" d="M 2419 4116 
L 825 1625 
L 2419 1625 
L 2419 4116 
z
M 2253 4666 
L 3047 4666 
L 3047 1625 
L 3713 1625 
L 3713 1100 
L 3047 1100 
L 3047 0 
L 2419 0 
L 2419 1100 
L 313 1100 
L 313 1709 
L 2253 4666 
z
" transform="scale(0.015625)"/>
        <path id="DejaVuSans-35" d="M 691 4666 
L 3169 4666 
L 3169 4134 
L 1269 4134 
L 1269 2991 
Q 1406 3038 1543 3061 
Q 1681 3084 1819 3084 
Q 2600 3084 3056 2656 
Q 3513 2228 3513 1497 
Q 3513 744 3044 326 
Q 2575 -91 1722 -91 
Q 1428 -91 1123 -41 
Q 819 9 494 109 
L 494 744 
Q 775 591 1075 516 
Q 1375 441 1709 441 
Q 2250 441 2565 725 
Q 2881 1009 2881 1497 
Q 2881 1984 2565 2268 
Q 2250 2553 1709 2553 
Q 1456 2553 1204 2497 
Q 953 2441 691 2322 
L 691 4666 
z
" transform="scale(0.015625)"/>
       </defs>
       <use xlink:href="#DejaVuSans-34"/>
       <use xlink:href="#DejaVuSans-35" x="63.623047"/>
       <use xlink:href="#DejaVuSans-b0" x="127.246094"/>
      </g>
     </g>
    </g>
    <g id="xtick_3">
     <g id="line2d_3">
      <path d="M 251.8225 262.917188 
L 30.0625 262.917188 
" clip-path="url(#p824b9cacee)" style="fill: none; stroke: #b0b0b0; stroke-width: 0.8; stroke-linecap: square"/>
     </g>
     <g id="text_3">
      <!-- 90° -->
      <g transform="translate(7.2 265.676563)scale(0.1 -0.1)">
       <defs>
        <path id="DejaVuSans-39" d="M 703 97 
L 703 672 
Q 941 559 1184 500 
Q 1428 441 1663 441 
Q 2288 441 2617 861 
Q 2947 1281 2994 2138 
Q 2813 1869 2534 1725 
Q 2256 1581 1919 1581 
Q 1219 1581 811 2004 
Q 403 2428 403 3163 
Q 403 3881 828 4315 
Q 1253 4750 1959 4750 
Q 2769 4750 3195 4129 
Q 3622 3509 3622 2328 
Q 3622 1225 3098 567 
Q 2575 -91 1691 -91 
Q 1453 -91 1209 -44 
Q 966 3 703 97 
z
M 1959 2075 
Q 2384 2075 2632 2365 
Q 2881 2656 2881 3163 
Q 2881 3666 2632 3958 
Q 2384 4250 1959 4250 
Q 1534 4250 1286 3958 
Q 1038 3666 1038 3163 
Q 1038 2656 1286 2365 
Q 1534 2075 1959 2075 
z
" transform="scale(0.015625)"/>
       </defs>
       <use xlink:href="#DejaVuSans-39"/>
       <use xlink:href="#DejaVuSans-30" x="63.623047"/>
       <use xlink:href="#DejaVuSans-b0" x="127.246094"/>
      </g>
     </g>
    </g>
    <g id="xtick_4">
     <g id="line2d_4">
      <path d="M 251.8225 262.917188 
L 95.0145 419.725187 
" clip-path="url(#p824b9cacee)" style="fill: none; stroke: #b0b0b0; stroke-width: 0.8; stroke-linecap: square"/>
     </g>
     <g id="text_4">
      <!-- 135° -->
      <g transform="translate(73.071255 432.384057)scale(0.1 -0.1)">
       <defs>
        <path id="DejaVuSans-31" d="M 794 531 
L 1825 531 
L 1825 4091 
L 703 3866 
L 703 4441 
L 1819 4666 
L 2450 4666 
L 2450 531 
L 3481 531 
L 3481 0 
L 794 0 
L 794 531 
z
" transform="scale(0.015625)"/>
        <path id="DejaVuSans-33" d="M 2597 2516 
Q 3050 2419 3304 2112 
Q 3559 1806 3559 1356 
Q 3559 666 3084 287 
Q 2609 -91 1734 -91 
Q 1441 -91 1130 -33 
Q 819 25 488 141 
L 488 750 
Q 750 597 1062 519 
Q 1375 441 1716 441 
Q 2309 441 2620 675 
Q 2931 909 2931 1356 
Q 2931 1769 2642 2001 
Q 2353 2234 1838 2234 
L 1294 2234 
L 1294 2753 
L 1863 2753 
Q 2328 2753 2575 2939 
Q 2822 3125 2822 3475 
Q 2822 3834 2567 4026 
Q 2313 4219 1838 4219 
Q 1578 4219 1281 4162 
Q 984 4106 628 3988 
L 628 4550 
Q 988 4650 1302 4700 
Q 1616 4750 1894 4750 
Q 2613 4750 3031 4423 
Q 3450 4097 3450 3541 
Q 3450 3153 3228 2886 
Q 3006 2619 2597 2516 
z
" transform="scale(0.015625)"/>
       </defs>
       <use xlink:href="#DejaVuSans-31"/>
       <use xlink:href="#DejaVuSans-33" x="63.623047"/>
       <use xlink:href="#DejaVuSans-35" x="127.246094"/>
       <use xlink:href="#DejaVuSans-b0" x="190.869141"/>
      </g>
     </g>
    </g>
    <g id="xtick_5">
     <g id="line2d_5">
      <path d="M 251.8225 262.917188 
L 251.8225 484.677188 
" clip-path="url(#p824b9cacee)" style="fill: none; stroke: #b0b0b0; stroke-width: 0.8; stroke-linecap: square"/>
     </g>
     <g id="text_5">
      <!-- 180° -->
      <g transform="translate(239.77875 501.436563)scale(0.1 -0.1)">
       <defs>
        <path id="DejaVuSans-38" d="M 2034 2216 
Q 1584 2216 1326 1975 
Q 1069 1734 1069 1313 
Q 1069 891 1326 650 
Q 1584 409 2034 409 
Q 2484 409 2743 651 
Q 3003 894 3003 1313 
Q 3003 1734 2745 1975 
Q 2488 2216 2034 2216 
z
M 1403 2484 
Q 997 2584 770 2862 
Q 544 3141 544 3541 
Q 544 4100 942 4425 
Q 1341 4750 2034 4750 
Q 2731 4750 3128 4425 
Q 3525 4100 3525 3541 
Q 3525 3141 3298 2862 
Q 3072 2584 2669 2484 
Q 3125 2378 3379 2068 
Q 3634 1759 3634 1313 
Q 3634 634 3220 271 
Q 2806 -91 2034 -91 
Q 1263 -91 848 271 
Q 434 634 434 1313 
Q 434 1759 690 2068 
Q 947 2378 1403 2484 
z
M 1172 3481 
Q 1172 3119 1398 2916 
Q 1625 2713 2034 2713 
Q 2441 2713 2670 2916 
Q 2900 3119 2900 3481 
Q 2900 3844 2670 4047 
Q 2441 4250 2034 4250 
Q 1625 4250 1398 4047 
Q 1172 3844 1172 3481 
z
" transform="scale(0.015625)"/>
       </defs>
       <use xlink:href="#DejaVuSans-31"/>
       <use xlink:href="#DejaVuSans-38" x="63.623047"/>
       <use xlink:href="#DejaVuSans-30" x="127.246094"/>
       <use xlink:href="#DejaVuSans-b0" x="190.869141"/>
      </g>
     </g>
    </g>
    <g id="xtick_6">
     <g id="line2d_6">
      <path d="M 251.8225 262.917188 
L 408.6305 419.725187 
" clip-path="url(#p824b9cacee)" style="fill: none; stroke: #b0b0b0; stroke-width: 0.8; stroke-linecap: square"/>
     </g>
     <g id="text_6">
      <!-- 225° -->
      <g transform="translate(406.486245 432.384057)scale(0.1 -0.1)">
       <defs>
        <path id="DejaVuSans-32" d="M 1228 531 
L 3431 531 
L 3431 0 
L 469 0 
L 469 531 
Q 828 903 1448 1529 
Q 2069 2156 2228 2338 
Q 2531 2678 2651 2914 
Q 2772 3150 2772 3378 
Q 2772 3750 2511 3984 
Q 2250 4219 1831 4219 
Q 1534 4219 1204 4116 
Q 875 4013 500 3803 
L 500 4441 
Q 881 4594 1212 4672 
Q 1544 4750 1819 4750 
Q 2544 4750 2975 4387 
Q 3406 4025 3406 3419 
Q 3406 3131 3298 2873 
Q 3191 2616 2906 2266 
Q 2828 2175 2409 1742 
Q 1991 1309 1228 531 
z
" transform="scale(0.015625)"/>
       </defs>
       <use xlink:href="#DejaVuSans-32"/>
       <use xlink:href="#DejaVuSans-32" x="63.623047"/>
       <use xlink:href="#DejaVuSans-35" x="127.246094"/>
       <use xlink:href="#DejaVuSans-b0" x="190.869141"/>
      </g>
     </g>
    </g>
    <g id="xtick_7">
     <g id="line2d_7">
      <path d="M 251.8225 262.917188 
L 473.5825 262.917188 
" clip-path="url(#p824b9cacee)" style="fill: none; stroke: #b0b0b0; stroke-width: 0.8; stroke-linecap: square"/>
     </g>
     <g id="text_7">
      <!-- 270° -->
      <g transform="translate(475.53875 265.676563)scale(0.1 -0.1)">
       <defs>
        <path id="DejaVuSans-37" d="M 525 4666 
L 3525 4666 
L 3525 4397 
L 1831 0 
L 1172 0 
L 2766 4134 
L 525 4134 
L 525 4666 
z
" transform="scale(0.015625)"/>
       </defs>
       <use xlink:href="#DejaVuSans-32"/>
       <use xlink:href="#DejaVuSans-37" x="63.623047"/>
       <use xlink:href="#DejaVuSans-30" x="127.246094"/>
       <use xlink:href="#DejaVuSans-b0" x="190.869141"/>
      </g>
     </g>
    </g>
    <g id="xtick_8">
     <g id="line2d_8">
      <path d="M 251.8225 262.917188 
L 408.6305 106.109188 
" clip-path="url(#p824b9cacee)" style="fill: none; stroke: #b0b0b0; stroke-width: 0.8; stroke-linecap: square"/>
     </g>
     <g id="text_8">
      <!-- 315° -->
      <g transform="translate(406.486245 98.969068)scale(0.1 -0.1)">
       <use xlink:href="#DejaVuSans-33"/>
       <use xlink:href="#DejaVuSans-31" x="63.623047"/>
       <use xlink:href="#DejaVuSans-35" x="127.246094"/>
       <use xlink:href="#DejaVuSans-b0" x="190.869141"/>
      </g>
     </g>
    </g>
   </g>
   <g id="matplotlib.axis_2">
    <g id="ytick_1">
     <g id="line2d_9">
      <path d="M 251.8225 221.646868 
C 246.402931 221.646868 241.036061 222.714405 236.029033 224.788384 
C 231.022004 226.862363 226.472191 229.902451 222.639977 233.734665 
C 218.807764 237.566879 215.767676 242.116692 213.693697 247.12372 
C 211.619718 252.130749 210.552181 257.497619 210.552181 262.917188 
C 210.552181 268.336756 211.619718 273.703626 213.693697 278.710655 
C 215.767676 283.717683 218.807764 288.267496 222.639977 292.09971 
C 226.472191 295.931924 231.022004 298.972012 236.029033 301.045991 
C 241.036061 303.11997 246.402931 304.187507 251.8225 304.187507 
C 257.242069 304.187507 262.608939 303.11997 267.615967 301.045991 
C 272.622996 298.972012 277.172809 295.931924 281.005023 292.09971 
C 284.837236 288.267496 287.877324 283.717683 289.951303 278.710655 
C 292.025282 273.703626 293.092819 268.336756 293.092819 262.917188 
C 293.092819 257.497619 292.025282 252.130749 289.951303 247.12372 
C 287.877324 242.116692 284.837236 237.566879 281.005023 233.734665 
C 277.172809 229.902451 272.622996 226.862363 267.615967 224.788384 
C 262.608939 222.714405 257.242069 221.646868 251.8225 221.646868 
" clip-path="url(#p824b9cacee)" style="fill: none; stroke: #b0b0b0; stroke-width: 0.8; stroke-linecap: square"/>
     </g>
     <g id="text_9">
      <!-- −20 -->
      <g transform="translate(236.029033 222.708697)scale(0.1 -0.1)">
       <defs>
        <path id="DejaVuSans-2212" d="M 678 2272 
L 4684 2272 
L 4684 1741 
L 678 1741 
L 678 2272 
z
" transform="scale(0.015625)"/>
       </defs>
       <use xlink:href="#DejaVuSans-2212"/>
       <use xlink:href="#DejaVuSans-32" x="83.789062"/>
       <use xlink:href="#DejaVuSans-30" x="147.412109"/>
      </g>
     </g>
    </g>
    <g id="ytick_2">
     <g id="line2d_10">
      <path d="M 251.8225 176.524448 
C 240.477509 176.524448 229.242835 178.759164 218.76143 183.100704 
C 208.280025 187.442244 198.755728 193.806176 190.733608 201.828296 
C 182.711488 209.850415 176.347556 219.374713 172.006016 229.856117 
C 167.664476 240.337522 165.429761 251.572197 165.429761 262.917188 
C 165.429761 274.262178 167.664476 285.496853 172.006016 295.978258 
C 176.347556 306.459662 182.711488 315.98396 190.733608 324.006079 
C 198.755728 332.028199 208.280025 338.392131 218.76143 342.733671 
C 229.242835 347.075211 240.477509 349.309927 251.8225 349.309927 
C 263.167491 349.309927 274.402165 347.075211 284.88357 342.733671 
C 295.364975 338.392131 304.889272 332.028199 312.911392 324.006079 
C 320.933512 315.98396 327.297444 306.459662 331.638984 295.978258 
C 335.980524 285.496853 338.215239 274.262178 338.215239 262.917188 
C 338.215239 251.572197 335.980524 240.337522 331.638984 229.856117 
C 327.297444 219.374713 320.933512 209.850415 312.911392 201.828296 
C 304.889272 193.806176 295.364975 187.442244 284.88357 183.100704 
C 274.402165 178.759164 263.167491 176.524448 251.8225 176.524448 
" clip-path="url(#p824b9cacee)" style="fill: none; stroke: #b0b0b0; stroke-width: 0.8; stroke-linecap: square"/>
     </g>
     <g id="text_10">
      <!-- −15 -->
      <g transform="translate(218.76143 181.021016)scale(0.1 -0.1)">
       <use xlink:href="#DejaVuSans-2212"/>
       <use xlink:href="#DejaVuSans-31" x="83.789062"/>
       <use xlink:href="#DejaVuSans-35" x="147.412109"/>
      </g>
     </g>
    </g>
    <g id="ytick_3">
     <g id="line2d_11">
      <path d="M 251.8225 131.402028 
C 234.552087 131.402028 217.449608 134.803923 201.493827 141.413023 
C 185.538047 148.022124 171.039265 157.709901 158.827239 169.921926 
C 146.615213 182.133952 136.927437 196.632734 130.318336 212.588515 
C 123.709235 228.544295 120.30734 245.646775 120.30734 262.917188 
C 120.30734 280.1876 123.709235 297.29008 130.318336 313.24586 
C 136.927437 329.201641 146.615213 343.700423 158.827239 355.912449 
C 171.039265 368.124474 185.538047 377.812251 201.493827 384.421352 
C 217.449608 391.030452 234.552087 394.432347 251.8225 394.432347 
C 269.092913 394.432347 286.195392 391.030452 302.151173 384.421352 
C 318.106953 377.812251 332.605735 368.124474 344.817761 355.912449 
C 357.029787 343.700423 366.717563 329.201641 373.326664 313.24586 
C 379.935765 297.29008 383.33766 280.1876 383.33766 262.917188 
C 383.33766 245.646775 379.935765 228.544295 373.326664 212.588515 
C 366.717563 196.632734 357.029787 182.133952 344.817761 169.921926 
C 332.605735 157.709901 318.106953 148.022124 302.151173 141.413023 
C 286.195392 134.803923 269.092913 131.402028 251.8225 131.402028 
" clip-path="url(#p824b9cacee)" style="fill: none; stroke: #b0b0b0; stroke-width: 0.8; stroke-linecap: square"/>
     </g>
     <g id="text_11">
      <!-- −10 -->
      <g transform="translate(201.493827 139.333336)scale(0.1 -0.1)">
       <use xlink:href="#DejaVuSans-2212"/>
       <use xlink:href="#DejaVuSans-31" x="83.789062"/>
       <use xlink:href="#DejaVuSans-30" x="147.412109"/>
      </g>
     </g>
    </g>
    <g id="ytick_4">
     <g id="line2d_12">
      <path d="M 251.8225 86.279608 
C 228.626666 86.279608 205.656381 90.848681 184.226225 99.725343 
C 162.796068 108.602004 143.322801 121.613625 126.92087 138.015557 
C 110.518938 154.417489 97.507317 173.890755 88.630655 195.320912 
C 79.753994 216.751069 75.18492 239.721353 75.18492 262.917188 
C 75.18492 286.113022 79.753994 309.083306 88.630655 330.513463 
C 97.507317 351.94362 110.518938 371.416886 126.92087 387.818818 
C 143.322801 404.22075 162.796068 417.232371 184.226225 426.109032 
C 205.656381 434.985694 228.626666 439.554767 251.8225 439.554767 
C 275.018334 439.554767 297.988619 434.985694 319.418775 426.109032 
C 340.848932 417.232371 360.322199 404.22075 376.72413 387.818818 
C 393.126062 371.416886 406.137683 351.94362 415.014345 330.513463 
C 423.891006 309.083306 428.46008 286.113022 428.46008 262.917188 
C 428.46008 239.721353 423.891006 216.751069 415.014345 195.320912 
C 406.137683 173.890755 393.126062 154.417489 376.72413 138.015557 
C 360.322199 121.613625 340.848932 108.602004 319.418775 99.725343 
C 297.988619 90.848681 275.018334 86.279608 251.8225 86.279608 
" clip-path="url(#p824b9cacee)" style="fill: none; stroke: #b0b0b0; stroke-width: 0.8; stroke-linecap: square"/>
     </g>
     <g id="text_12">
      <!-- −5 -->
      <g transform="translate(184.226225 97.645655)scale(0.1 -0.1)">
       <use xlink:href="#DejaVuSans-2212"/>
       <use xlink:href="#DejaVuSans-35" x="83.789062"/>
      </g>
     </g>
    </g>
    <g id="ytick_5">
     <g id="line2d_13">
      <path d="M 251.8225 41.157188 
C 222.701244 41.157188 193.863155 46.89344 166.958622 58.037662 
C 140.054089 69.181885 115.606338 85.51735 95.0145 106.109188 
C 74.422662 126.701026 58.087197 151.148777 46.942975 178.05331 
C 35.798753 204.957842 30.0625 233.795931 30.0625 262.917188 
C 30.0625 292.038444 35.798753 320.876533 46.942975 347.781065 
C 58.087197 374.685598 74.422662 399.133349 95.0145 419.725187 
C 115.606338 440.317025 140.054089 456.65249 166.958622 467.796713 
C 193.863155 478.940935 222.701244 484.677188 251.8225 484.677188 
C 280.943756 484.677188 309.781845 478.940935 336.686378 467.796713 
C 363.590911 456.65249 388.038662 440.317025 408.6305 419.725187 
C 429.222338 399.133349 445.557803 374.685598 456.702025 347.781065 
C 467.846247 320.876533 473.5825 292.038444 473.5825 262.917188 
C 473.5825 233.795931 467.846247 204.957842 456.702025 178.05331 
C 445.557803 151.148777 429.222338 126.701026 408.6305 106.109188 
C 388.038662 85.51735 363.590911 69.181885 336.686378 58.037662 
C 309.781845 46.89344 280.943756 41.157188 251.8225 41.157188 
" clip-path="url(#p824b9cacee)" style="fill: none; stroke: #b0b0b0; stroke-width: 0.8; stroke-linecap: square"/>
     </g>
     <g id="text_13">
      <!-- 0 -->
      <g transform="translate(166.958622 55.957975)scale(0.1 -0.1)">
       <use xlink:href="#DejaVuSans-30"/>
      </g>
     </g>
    </g>
   </g>
   <g id="line2d_14">
    <path d="M 251.8225 423.473137 
L 254.600175 422.050101 
L 257.307716 419.99321 
L 259.908905 417.214982 
L 262.441273 414.772722 
L 264.769781 410.905282 
L 268.885085 401.880794 
L 270.429816 395.315122 
L 271.653428 388.124741 
L 272.66967 381.147361 
L 273.263213 363.787811 
L 273.353697 356.179049 
L 272.952033 347.663117 
L 273.295017 343.053712 
L 273.956514 340.107667 
L 275.136715 339.174549 
L 277.127754 340.798751 
L 279.796444 344.159421 
L 283.602137 350.231021 
L 287.20065 355.08042 
L 297.123437 369.639508 
L 301.85684 375.296156 
L 307.422278 382.151296 
L 312.588381 387.505707 
L 317.096997 391.025601 
L 322.131813 395.149773 
L 326.458954 397.564915 
L 330.345212 398.922515 
L 334.249994 400.099574 
L 337.592834 400.178415 
L 344.031579 399.622769 
L 350.072478 398.146681 
L 353.449498 397.780769 
L 356.565557 396.982187 
L 359.877558 396.354072 
L 363.564691 396.086346 
L 366.842772 395.232875 
L 373.969268 393.90356 
L 377.120612 392.66718 
L 380.444413 391.539101 
L 383.474552 390.052097 
L 386.240919 388.264391 
L 388.93787 386.376421 
L 391.514354 384.349463 
L 396.410597 380.00232 
L 398.688003 377.661094 
L 402.887778 372.672537 
L 404.772873 370.014192 
L 406.386747 367.172089 
L 408.828974 361.025721 
L 409.635445 357.740772 
L 409.750116 354.096739 
L 410.228132 350.722863 
L 410.270288 347.165371 
L 409.577616 343.297434 
L 409.407188 339.776375 
L 408.79433 336.114354 
L 407.681782 332.310211 
L 407.099711 328.828453 
L 405.57392 325.036793 
L 403.551059 321.160325 
L 402.068203 317.602151 
L 399.390322 313.728864 
L 396.598363 309.957717 
L 394.186865 306.442342 
L 390.552655 302.697419 
L 387.643107 299.31021 
L 385.359192 296.211624 
L 382.138852 293.003088 
L 379.96941 290.155654 
L 378.715545 287.582697 
L 377.695822 285.11205 
L 377.805517 282.870937 
L 378.894186 280.775948 
L 381.166056 278.798579 
L 384.250664 276.835948 
L 387.655921 274.801072 
L 396.270052 270.487363 
L 404.955046 265.590126 
L 409.463541 262.917188 
L 412.958544 260.104547 
L 416.997573 257.149147 
L 419.872784 254.110045 
L 423.438524 250.916626 
L 425.891 247.688167 
L 428.004018 244.399764 
L 430.672594 240.957157 
L 432.246037 237.560313 
L 434.066757 234.052533 
L 436.15702 230.414038 
L 437.297988 226.864405 
L 440.191473 219.428783 
L 440.962449 215.759302 
L 441.958623 211.970367 
L 442.61935 208.207071 
L 443.177188 200.742281 
L 443.035683 197.077209 
L 442.756399 193.422931 
L 442.356985 189.777851 
L 441.67906 186.210158 
L 440.80154 182.700344 
L 439.768506 179.238234 
L 438.434882 175.898405 
L 436.968884 172.615262 
L 435.27625 169.442833 
L 433.266358 166.441777 
L 431.089309 163.547973 
L 426.212606 158.13304 
L 423.515458 155.63152 
L 417.743871 151.001809 
L 414.442164 149.049673 
L 407.767356 145.40431 
L 403.744201 144.222946 
L 395.389045 142.450553 
L 380.254638 143.152282 
L 373.535805 145.380015 
L 368.058361 146.681327 
L 362.256971 148.558945 
L 354.686645 152.608897 
L 348.706038 155.317118 
L 341.425661 159.840542 
L 332.367846 166.926982 
L 325.449691 171.995179 
L 316.49549 180.139536 
L 305.009784 192.335278 
L 295.457772 202.858388 
L 282.016234 219.796066 
L 267.436903 239.767882 
L 257.573888 254.060826 
L 259.517854 250.602046 
L 271.953481 229.413609 
L 281.748366 211.084067 
L 292.078973 190.292588 
L 297.884958 176.286304 
L 301.83556 164.761031 
L 306.132069 151.566069 
L 307.59009 143.323205 
L 309.72236 126.513666 
L 309.266693 120.737821 
L 308.67498 114.811413 
L 307.896414 108.855376 
L 306.209825 104.964927 
L 304.515763 100.744001 
L 302.674779 96.586877 
L 300.381066 93.573342 
L 298.118925 90.136576 
L 295.602944 87.323418 
L 290.179895 82.459831 
L 287.25538 80.630824 
L 284.184612 79.382532 
L 281.066913 78.275232 
L 277.840012 77.792969 
L 274.58429 77.537283 
L 271.297389 77.625996 
L 264.695571 78.823697 
L 254.992348 81.316731 
L 251.8225 81.938831 
L 245.534792 82.860787 
L 239.322732 84.16218 
L 236.29145 85.396472 
L 233.344695 87.112621 
L 230.461865 88.948777 
L 227.741686 91.573296 
L 222.657242 97.512791 
L 220.474092 101.64361 
L 216.442184 109.668204 
L 215.039277 115.387739 
L 212.273604 124.993797 
L 211.695739 131.668465 
L 210.964561 137.16938 
L 210.559599 143.081021 
L 211.215315 151.349864 
L 211.61586 158.175309 
L 213.157714 167.218483 
L 216.373617 179.404853 
L 219.583172 190.506471 
L 225.965011 209.901478 
L 224.375881 209.050165 
L 213.372967 193.552393 
L 207.655998 186.418563 
L 202.037579 180.061166 
L 196.988528 175.164488 
L 192.889878 172.168908 
L 188.029854 168.3407 
L 183.940625 165.971823 
L 179.74472 163.710635 
L 174.640749 160.493544 
L 170.548101 158.890701 
L 160.847267 154.497127 
L 157.121707 153.976387 
L 152.541654 152.654638 
L 148.872189 152.516495 
L 146.215108 153.557532 
L 143.914202 155.008889 
L 142.294061 157.146803 
L 141.012602 159.585286 
L 140.151586 162.368244 
L 139.41497 165.202812 
L 138.521752 167.846571 
L 137.342678 170.213255 
L 135.585756 172.10309 
L 133.384295 173.667598 
L 130.311512 174.634287 
L 127.007695 175.52092 
L 123.44398 176.324782 
L 118.932427 176.617365 
L 110.138057 177.784585 
L 105.078768 178.194654 
L 91.381732 181.168533 
L 87.229776 182.639952 
L 82.623124 184.018223 
L 78.691459 185.834282 
L 75.237625 187.961355 
L 71.320643 189.989704 
L 68.162881 192.416865 
L 62.392676 197.691268 
L 60.09017 200.619577 
L 57.884317 203.624335 
L 55.517094 206.627518 
L 51.658221 213.010628 
L 49.243737 216.148195 
L 47.372604 219.460021 
L 45.263356 222.766157 
L 42.67441 226.038736 
L 40.823687 229.498259 
L 36.507576 236.479839 
L 34.876318 240.115225 
L 33.351683 243.803468 
L 32.115116 247.553751 
L 31.213553 251.355563 
L 30.549331 255.190158 
L 30.204552 259.048832 
L 30.0625 262.917188 
L 30.114321 266.787118 
L 30.314837 270.652406 
L 30.654802 274.508095 
L 32.736588 289.817555 
L 35.861834 308.821044 
L 36.634306 312.597297 
L 38.516638 320.072321 
L 41.236744 327.299714 
L 42.821587 330.825701 
L 46.472191 337.658588 
L 50.88756 344.100173 
L 53.190632 347.231413 
L 58.307076 353.154912 
L 60.844197 356.06353 
L 66.458314 361.477074 
L 69.398494 364.036465 
L 72.5822 366.401623 
L 75.506256 368.858675 
L 78.729007 371.078007 
L 85.527047 375.084887 
L 89.121519 376.841641 
L 96.439811 380.006442 
L 104.807787 381.967355 
L 108.636179 383.064777 
L 113.152276 383.461374 
L 121.608338 384.343858 
L 126.415435 384.021383 
L 134.423244 384.487676 
L 138.643105 384.287229 
L 142.119102 384.755154 
L 145.718643 384.975713 
L 149.674876 384.651986 
L 153.041725 384.901285 
L 156.808046 384.530143 
L 160.862124 383.625684 
L 164.552751 383.033692 
L 168.820853 381.455824 
L 173.112614 379.609392 
L 176.920763 378.255748 
L 181.073207 376.139725 
L 184.561277 374.858662 
L 187.585546 374.178856 
L 189.917752 374.596309 
L 191.727964 375.938572 
L 193.20158 377.967221 
L 194.395545 380.659894 
L 197.023736 385.997227 
L 198.28801 389.036543 
L 199.925923 391.365723 
L 201.447894 394.147523 
L 202.961866 397.160676 
L 204.756882 399.605668 
L 206.405005 402.697864 
L 208.012387 406.213609 
L 209.878156 409.194498 
L 211.66198 412.798287 
L 213.694413 415.84059 
L 218.088298 421.624132 
L 220.537804 423.862994 
L 223.144606 425.557608 
L 225.840619 426.960327 
L 231.486886 428.537472 
L 234.381399 428.858177 
L 237.3108 428.786677 
L 240.248121 428.438519 
L 243.201446 427.416698 
L 246.104851 426.649223 
L 248.98655 425.388652 
L 248.98655 425.388652 
" clip-path="url(#p824b9cacee)" style="fill: none; stroke: #ff0000; stroke-width: 1.5; stroke-linecap: square"/>
   </g>
   <g id="line2d_15">
    <path d="M 251.8225 105.64615 
L 249.035217 103.233864 
L 246.169731 101.043064 
L 243.236869 99.093586 
L 240.245603 97.359846 
L 237.206191 95.852009 
L 234.126704 94.552935 
L 231.017268 93.472172 
L 227.886122 92.601012 
L 224.740873 91.930527 
L 221.590057 91.460484 
L 218.442188 91.190369 
L 215.303875 91.110563 
L 212.183103 91.220097 
L 209.085635 91.508986 
L 206.021245 91.984576 
L 202.995285 92.636454 
L 200.015082 93.46276 
L 197.085106 94.452813 
L 194.212096 95.604426 
L 191.405803 96.923677 
L 188.666787 98.390929 
L 186.004484 100.01188 
L 183.421775 101.775177 
L 180.924536 103.677752 
L 178.518544 105.716346 
L 176.201563 107.87129 
L 173.982412 110.147413 
L 171.861896 112.533164 
L 169.840158 115.017127 
L 167.912171 117.580234 
L 166.085664 120.22713 
L 162.706333 125.690325 
L 159.648571 131.279175 
L 152.691305 144.77723 
L 151.248478 147.22001 
L 149.733725 149.536116 
L 148.109008 151.698084 
L 146.359293 153.70684 
L 144.45661 155.551298 
L 142.378452 157.228299 
L 140.12159 158.754404 
L 137.670181 160.133978 
L 135.028773 161.389949 
L 132.203127 162.544616 
L 126.056493 164.658014 
L 105.063656 171.212084 
L 97.771339 173.975708 
L 94.150916 175.518401 
L 90.569925 177.177672 
L 87.041268 178.956956 
L 83.571646 180.855763 
L 80.171072 182.874812 
L 76.849688 185.014272 
L 73.613923 187.272135 
L 70.47052 189.646232 
L 67.424001 192.133236 
L 64.480831 194.730396 
L 61.644348 197.433598 
L 58.922909 200.240311 
L 56.304998 203.141489 
L 53.808141 206.137484 
L 51.435206 209.223574 
L 49.180154 212.392776 
L 47.054233 215.642708 
L 45.05103 218.966555 
L 43.172708 222.359776 
L 41.421289 225.817777 
L 39.798648 229.335908 
L 38.306517 232.909473 
L 36.94648 236.53373 
L 35.719973 240.203897 
L 34.619293 243.914369 
L 33.654544 247.661398 
L 32.826722 251.440105 
L 32.127653 255.245274 
L 31.558019 259.072457 
L 31.127389 262.917188 
L 30.818124 266.774833 
L 30.64854 270.640752 
L 30.609742 274.510457 
L 30.701724 278.379458 
L 30.924344 282.243272 
L 31.277324 286.09742 
L 31.760251 289.937434 
L 32.372576 293.758863 
L 33.113615 297.557272 
L 33.98255 301.328248 
L 34.97843 305.067405 
L 36.091343 308.77226 
L 37.337761 312.434891 
L 38.698722 316.054914 
L 40.190299 319.623865 
L 41.793417 323.142058 
L 43.523736 326.600511 
L 45.370677 329.997451 
L 47.332254 333.328826 
L 49.406354 336.59064 
L 51.590746 339.778957 
L 53.891441 342.886526 
L 56.305787 345.909108 
L 58.822753 348.846211 
L 61.447796 351.69037 
L 64.177881 354.437583 
L 67.009842 357.08394 
L 69.940394 359.625619 
L 72.97402 362.054519 
L 76.099145 364.371114 
L 79.318307 366.568164 
L 82.630606 368.640017 
L 86.032614 370.582398 
L 89.521492 372.390599 
L 93.095169 374.059261 
L 96.751184 375.583093 
L 100.485975 376.957439 
L 104.297771 378.176137 
L 108.183308 379.233911 
L 112.141149 380.123758 
L 116.162678 380.844472 
L 120.253404 381.382534 
L 124.400176 381.740427 
L 128.603128 381.908752 
L 132.861835 381.877852 
L 137.162768 381.650816 
L 141.511188 381.211587 
L 145.887163 380.570299 
L 150.301183 379.704104 
L 154.727395 378.630627 
L 159.169681 377.33389 
L 163.608623 375.825801 
L 168.031136 374.112083 
L 172.424568 372.199066 
L 176.761192 370.115845 
L 181.01532 367.893149 
L 189.150423 363.213476 
L 199.770605 356.821292 
L 202.692643 355.317009 
L 205.238654 354.343133 
L 207.395202 354.006647 
L 209.144255 354.440979 
L 210.564536 355.584091 
L 211.659159 357.53609 
L 212.566103 360.080179 
L 213.316989 363.227473 
L 214.687608 370.764745 
L 216.265627 379.218478 
L 217.223699 383.577545 
L 218.323421 387.937454 
L 219.573826 392.259556 
L 220.983445 396.495812 
L 222.548252 400.641694 
L 224.269276 404.666237 
L 226.140873 408.564934 
L 228.158697 412.324561 
L 230.31516 415.949866 
L 232.606491 419.419025 
L 235.023797 422.74617 
L 237.560918 425.927812 
L 240.211609 428.960664 
L 242.969544 431.841647 
L 245.82801 434.576912 
L 248.780856 437.172833 
L 251.8225 439.617939 
L 254.946988 441.918989 
L 258.148632 444.073905 
L 261.42217 446.089803 
L 264.762174 447.963142 
L 268.163603 449.696851 
L 271.621323 451.29041 
L 275.130455 452.745246 
L 278.685993 454.060871 
L 282.283268 455.238909 
L 285.917651 456.280399 
L 289.584321 457.184914 
L 293.278598 457.952792 
L 296.996063 458.585385 
L 300.731983 459.082411 
L 304.481395 459.442859 
L 308.241519 459.673688 
L 312.007167 459.772363 
L 315.771032 459.730532 
L 319.534039 459.565775 
L 323.285978 459.261481 
L 327.025183 458.826875 
L 330.747224 458.262733 
L 334.447702 457.569964 
L 338.125924 456.757851 
L 341.770367 455.811011 
L 345.376318 454.730939 
L 348.947308 453.535356 
L 352.475335 452.217638 
L 355.951885 450.771571 
L 359.376978 449.207007 
L 362.746593 447.525879 
L 366.051992 445.722587 
L 369.293799 443.807126 
L 372.468198 441.78179 
L 375.561088 439.634205 
L 378.583944 437.389347 
L 381.517268 435.027958 
L 384.367917 432.567585 
L 387.1268 430.004083 
L 389.784427 427.33381 
L 392.348692 424.57408 
L 394.804393 421.714668 
L 397.15396 418.766098 
L 399.394132 415.732086 
L 401.515379 412.610067 
L 403.514339 409.404294 
L 405.38778 406.119127 
L 407.139307 402.765069 
L 408.752652 399.334487 
L 410.224677 395.832396 
L 411.566427 392.275269 
L 412.754333 388.650915 
L 413.799844 384.975871 
L 414.691972 381.248785 
L 415.427574 377.474694 
L 416.004391 373.659271 
L 416.419579 369.807781 
L 416.668909 365.924656 
L 416.749778 362.015494 
L 416.660521 358.086463 
L 416.399662 354.143798 
L 415.965122 350.193368 
L 415.359005 346.243199 
L 414.573992 342.296394 
L 413.619917 338.364562 
L 412.504684 334.457505 
L 411.220023 330.577422 
L 409.7827 326.737251 
L 408.201704 322.94554 
L 406.494889 319.213333 
L 402.769392 311.962806 
L 398.837176 305.072968 
L 393.27982 295.575183 
L 391.736171 292.656756 
L 390.444435 289.862562 
L 389.471603 287.188438 
L 388.858105 284.621495 
L 388.64408 282.146207 
L 388.842391 279.741115 
L 389.456192 277.383071 
L 390.469836 275.047258 
L 391.830744 272.707518 
L 393.503332 270.342365 
L 395.433176 267.932183 
L 399.816367 262.917188 
L 404.533333 257.584408 
L 409.223575 251.910632 
L 411.470811 248.94977 
L 413.625993 245.910955 
L 415.669255 242.799336 
L 417.572044 239.622608 
L 419.341857 236.384728 
L 420.959597 233.093754 
L 422.415407 229.757285 
L 423.70857 226.381675 
L 424.838568 222.973281 
L 425.805089 219.538456 
L 426.599301 216.085885 
L 427.221419 212.622357 
L 427.680504 209.152 
L 427.9762 205.681381 
L 428.101546 202.219444 
L 428.062686 198.771006 
L 427.86079 195.342419 
L 427.498902 191.939314 
L 426.977726 188.568205 
L 426.299831 185.234875 
L 425.468776 181.944599 
L 424.485009 178.704055 
L 423.352759 175.518155 
L 422.073662 172.393039 
L 420.65067 169.334205 
L 419.086275 166.347402 
L 417.383237 163.43826 
L 415.544348 160.612422 
L 413.572284 157.87565 
L 411.469921 155.233642 
L 409.240115 152.692187 
L 406.885784 150.257117 
L 404.410208 147.934102 
L 401.815592 145.72974 
L 399.105824 143.649503 
L 396.283607 141.699926 
L 393.352606 139.886943 
L 390.314714 138.218238 
L 387.174832 136.699096 
L 383.935461 135.337184 
L 380.597564 134.142124 
L 377.170763 133.115261 
L 373.655379 132.26742 
L 370.058381 131.602939 
L 366.375045 131.139558 
L 362.619157 130.874874 
L 358.792813 130.819852 
L 354.893193 130.992716 
L 350.934912 131.390574 
L 346.92163 132.024464 
L 342.852482 132.9129 
L 338.747969 134.044879 
L 334.598205 135.453779 
L 330.429027 137.120448 
L 326.241571 139.063055 
L 322.047199 141.28444 
L 317.870522 143.763403 
L 313.721887 146.501372 
L 309.628111 149.467288 
L 305.61778 152.620519 
L 301.724294 155.902446 
L 294.485879 162.408564 
L 291.241167 165.352563 
L 288.335814 167.796752 
L 285.775072 169.633264 
L 283.613016 170.590824 
L 281.857421 170.479205 
L 280.450662 169.278689 
L 279.284707 167.145091 
L 278.286426 164.152472 
L 276.44955 156.245716 
L 274.325237 147.150643 
L 273.053605 142.509605 
L 271.618135 137.932469 
L 270.012836 133.486224 
L 268.238398 129.220424 
L 266.302534 125.14887 
L 264.21134 121.312094 
L 261.97732 117.696496 
L 259.609936 114.324062 
L 257.12095 111.189424 
L 254.521426 108.295828 
L 254.521426 108.295828 
" clip-path="url(#p824b9cacee)" style="fill: none; stroke-dasharray: 5.55,2.4; stroke-dashoffset: 0; stroke: #0000ff; stroke-width: 1.5"/>
   </g>
   <g id="patch_3">
    <path d="M 251.8225 41.157188 
C 222.701244 41.157188 193.863155 46.89344 166.958622 58.037662 
C 140.054089 69.181885 115.606338 85.51735 95.0145 106.109188 
C 74.422662 126.701026 58.087197 151.148777 46.942975 178.05331 
C 35.798753 204.957842 30.0625 233.795931 30.0625 262.917188 
C 30.0625 292.038444 35.798753 320.876533 46.942975 347.781065 
C 58.087197 374.685598 74.422662 399.133349 95.0145 419.725187 
C 115.606338 440.317025 140.054089 456.65249 166.958622 467.796713 
C 193.863155 478.940935 222.701244 484.677188 251.8225 484.677188 
C 280.943756 484.677188 309.781845 478.940935 336.686378 467.796713 
C 363.590911 456.65249 388.038662 440.317025 408.6305 419.725187 
C 429.222338 399.133349 445.557803 374.685598 456.702025 347.781065 
C 467.846247 320.876533 473.5825 292.038444 473.5825 262.917188 
C 473.5825 233.795931 467.846247 204.957842 456.702025 178.05331 
C 445.557803 151.148777 429.222338 126.701026 408.6305 106.109188 
C 388.038662 85.51735 363.590911 69.181885 336.686378 58.037662 
C 309.781845 46.89344 280.943756 41.157188 251.8225 41.157188 
" style="fill: none; stroke: #000000; stroke-width: 0.8; stroke-linejoin: miter; stroke-linecap: square"/>
   </g>
   <g id="text_14">
    <g id="patch_4">
     <path d="M 384.8785 509.853188 
L 485.369125 509.853188 
Q 488.369125 509.853188 488.369125 506.853188 
L 488.369125 473.945063 
Q 488.369125 470.945063 485.369125 470.945063 
L 384.8785 470.945063 
Q 381.8785 470.945063 381.8785 473.945063 
L 381.8785 506.853188 
Q 381.8785 509.853188 384.8785 509.853188 
z
" style="fill: #ffffff; stroke: #808080; stroke-linejoin: miter"/>
    </g>
    <!-- G_cst: 3.1 dBi -->
    <g transform="translate(384.8785 481.821625)scale(0.1 -0.1)">
     <defs>
      <path id="DejaVuSans-47" d="M 3809 666 
L 3809 1919 
L 2778 1919 
L 2778 2438 
L 4434 2438 
L 4434 434 
Q 4069 175 3628 42 
Q 3188 -91 2688 -91 
Q 1594 -91 976 548 
Q 359 1188 359 2328 
Q 359 3472 976 4111 
Q 1594 4750 2688 4750 
Q 3144 4750 3555 4637 
Q 3966 4525 4313 4306 
L 4313 3634 
Q 3963 3931 3569 4081 
Q 3175 4231 2741 4231 
Q 1884 4231 1454 3753 
Q 1025 3275 1025 2328 
Q 1025 1384 1454 906 
Q 1884 428 2741 428 
Q 3075 428 3337 486 
Q 3600 544 3809 666 
z
" transform="scale(0.015625)"/>
      <path id="DejaVuSans-5f" d="M 3263 -1063 
L 3263 -1509 
L -63 -1509 
L -63 -1063 
L 3263 -1063 
z
" transform="scale(0.015625)"/>
      <path id="DejaVuSans-63" d="M 3122 3366 
L 3122 2828 
Q 2878 2963 2633 3030 
Q 2388 3097 2138 3097 
Q 1578 3097 1268 2742 
Q 959 2388 959 1747 
Q 959 1106 1268 751 
Q 1578 397 2138 397 
Q 2388 397 2633 464 
Q 2878 531 3122 666 
L 3122 134 
Q 2881 22 2623 -34 
Q 2366 -91 2075 -91 
Q 1284 -91 818 406 
Q 353 903 353 1747 
Q 353 2603 823 3093 
Q 1294 3584 2113 3584 
Q 2378 3584 2631 3529 
Q 2884 3475 3122 3366 
z
" transform="scale(0.015625)"/>
      <path id="DejaVuSans-73" d="M 2834 3397 
L 2834 2853 
Q 2591 2978 2328 3040 
Q 2066 3103 1784 3103 
Q 1356 3103 1142 2972 
Q 928 2841 928 2578 
Q 928 2378 1081 2264 
Q 1234 2150 1697 2047 
L 1894 2003 
Q 2506 1872 2764 1633 
Q 3022 1394 3022 966 
Q 3022 478 2636 193 
Q 2250 -91 1575 -91 
Q 1294 -91 989 -36 
Q 684 19 347 128 
L 347 722 
Q 666 556 975 473 
Q 1284 391 1588 391 
Q 1994 391 2212 530 
Q 2431 669 2431 922 
Q 2431 1156 2273 1281 
Q 2116 1406 1581 1522 
L 1381 1569 
Q 847 1681 609 1914 
Q 372 2147 372 2553 
Q 372 3047 722 3315 
Q 1072 3584 1716 3584 
Q 2034 3584 2315 3537 
Q 2597 3491 2834 3397 
z
" transform="scale(0.015625)"/>
      <path id="DejaVuSans-74" d="M 1172 4494 
L 1172 3500 
L 2356 3500 
L 2356 3053 
L 1172 3053 
L 1172 1153 
Q 1172 725 1289 603 
Q 1406 481 1766 481 
L 2356 481 
L 2356 0 
L 1766 0 
Q 1100 0 847 248 
Q 594 497 594 1153 
L 594 3053 
L 172 3053 
L 172 3500 
L 594 3500 
L 594 4494 
L 1172 4494 
z
" transform="scale(0.015625)"/>
      <path id="DejaVuSans-3a" d="M 750 794 
L 1409 794 
L 1409 0 
L 750 0 
L 750 794 
z
M 750 3309 
L 1409 3309 
L 1409 2516 
L 750 2516 
L 750 3309 
z
" transform="scale(0.015625)"/>
      <path id="DejaVuSans-20" transform="scale(0.015625)"/>
      <path id="DejaVuSans-2e" d="M 684 794 
L 1344 794 
L 1344 0 
L 684 0 
L 684 794 
z
" transform="scale(0.015625)"/>
      <path id="DejaVuSans-64" d="M 2906 2969 
L 2906 4863 
L 3481 4863 
L 3481 0 
L 2906 0 
L 2906 525 
Q 2725 213 2448 61 
Q 2172 -91 1784 -91 
Q 1150 -91 751 415 
Q 353 922 353 1747 
Q 353 2572 751 3078 
Q 1150 3584 1784 3584 
Q 2172 3584 2448 3432 
Q 2725 3281 2906 2969 
z
M 947 1747 
Q 947 1113 1208 752 
Q 1469 391 1925 391 
Q 2381 391 2643 752 
Q 2906 1113 2906 1747 
Q 2906 2381 2643 2742 
Q 2381 3103 1925 3103 
Q 1469 3103 1208 2742 
Q 947 2381 947 1747 
z
" transform="scale(0.015625)"/>
      <path id="DejaVuSans-42" d="M 1259 2228 
L 1259 519 
L 2272 519 
Q 2781 519 3026 730 
Q 3272 941 3272 1375 
Q 3272 1813 3026 2020 
Q 2781 2228 2272 2228 
L 1259 2228 
z
M 1259 4147 
L 1259 2741 
L 2194 2741 
Q 2656 2741 2882 2914 
Q 3109 3088 3109 3444 
Q 3109 3797 2882 3972 
Q 2656 4147 2194 4147 
L 1259 4147 
z
M 628 4666 
L 2241 4666 
Q 2963 4666 3353 4366 
Q 3744 4066 3744 3513 
Q 3744 3084 3544 2831 
Q 3344 2578 2956 2516 
Q 3422 2416 3680 2098 
Q 3938 1781 3938 1306 
Q 3938 681 3513 340 
Q 3088 0 2303 0 
L 628 0 
L 628 4666 
z
" transform="scale(0.015625)"/>
      <path id="DejaVuSans-69" d="M 603 3500 
L 1178 3500 
L 1178 0 
L 603 0 
L 603 3500 
z
M 603 4863 
L 1178 4863 
L 1178 4134 
L 603 4134 
L 603 4863 
z
" transform="scale(0.015625)"/>
     </defs>
     <use xlink:href="#DejaVuSans-47"/>
     <use xlink:href="#DejaVuSans-5f" x="77.490234"/>
     <use xlink:href="#DejaVuSans-63" x="127.490234"/>
     <use xlink:href="#DejaVuSans-73" x="182.470703"/>
     <use xlink:href="#DejaVuSans-74" x="234.570312"/>
     <use xlink:href="#DejaVuSans-3a" x="273.779297"/>
     <use xlink:href="#DejaVuSans-20" x="307.470703"/>
     <use xlink:href="#DejaVuSans-33" x="339.257812"/>
     <use xlink:href="#DejaVuSans-2e" x="402.880859"/>
     <use xlink:href="#DejaVuSans-31" x="434.667969"/>
     <use xlink:href="#DejaVuSans-20" x="498.291016"/>
     <use xlink:href="#DejaVuSans-64" x="530.078125"/>
     <use xlink:href="#DejaVuSans-42" x="593.554688"/>
     <use xlink:href="#DejaVuSans-69" x="662.158203"/>
    </g>
    <!-- G_inpe: 3.6 dBi -->
    <g transform="translate(384.8785 493.297563)scale(0.1 -0.1)">
     <defs>
      <path id="DejaVuSans-6e" d="M 3513 2113 
L 3513 0 
L 2938 0 
L 2938 2094 
Q 2938 2591 2744 2837 
Q 2550 3084 2163 3084 
Q 1697 3084 1428 2787 
Q 1159 2491 1159 1978 
L 1159 0 
L 581 0 
L 581 3500 
L 1159 3500 
L 1159 2956 
Q 1366 3272 1645 3428 
Q 1925 3584 2291 3584 
Q 2894 3584 3203 3211 
Q 3513 2838 3513 2113 
z
" transform="scale(0.015625)"/>
      <path id="DejaVuSans-70" d="M 1159 525 
L 1159 -1331 
L 581 -1331 
L 581 3500 
L 1159 3500 
L 1159 2969 
Q 1341 3281 1617 3432 
Q 1894 3584 2278 3584 
Q 2916 3584 3314 3078 
Q 3713 2572 3713 1747 
Q 3713 922 3314 415 
Q 2916 -91 2278 -91 
Q 1894 -91 1617 61 
Q 1341 213 1159 525 
z
M 3116 1747 
Q 3116 2381 2855 2742 
Q 2594 3103 2138 3103 
Q 1681 3103 1420 2742 
Q 1159 2381 1159 1747 
Q 1159 1113 1420 752 
Q 1681 391 2138 391 
Q 2594 391 2855 752 
Q 3116 1113 3116 1747 
z
" transform="scale(0.015625)"/>
      <path id="DejaVuSans-65" d="M 3597 1894 
L 3597 1613 
L 953 1613 
Q 991 1019 1311 708 
Q 1631 397 2203 397 
Q 2534 397 2845 478 
Q 3156 559 3463 722 
L 3463 178 
Q 3153 47 2828 -22 
Q 2503 -91 2169 -91 
Q 1331 -91 842 396 
Q 353 884 353 1716 
Q 353 2575 817 3079 
Q 1281 3584 2069 3584 
Q 2775 3584 3186 3129 
Q 3597 2675 3597 1894 
z
M 3022 2063 
Q 3016 2534 2758 2815 
Q 2500 3097 2075 3097 
Q 1594 3097 1305 2825 
Q 1016 2553 972 2059 
L 3022 2063 
z
" transform="scale(0.015625)"/>
      <path id="DejaVuSans-36" d="M 2113 2584 
Q 1688 2584 1439 2293 
Q 1191 2003 1191 1497 
Q 1191 994 1439 701 
Q 1688 409 2113 409 
Q 2538 409 2786 701 
Q 3034 994 3034 1497 
Q 3034 2003 2786 2293 
Q 2538 2584 2113 2584 
z
M 3366 4563 
L 3366 3988 
Q 3128 4100 2886 4159 
Q 2644 4219 2406 4219 
Q 1781 4219 1451 3797 
Q 1122 3375 1075 2522 
Q 1259 2794 1537 2939 
Q 1816 3084 2150 3084 
Q 2853 3084 3261 2657 
Q 3669 2231 3669 1497 
Q 3669 778 3244 343 
Q 2819 -91 2113 -91 
Q 1303 -91 875 529 
Q 447 1150 447 2328 
Q 447 3434 972 4092 
Q 1497 4750 2381 4750 
Q 2619 4750 2861 4703 
Q 3103 4656 3366 4563 
z
" transform="scale(0.015625)"/>
     </defs>
     <use xlink:href="#DejaVuSans-47"/>
     <use xlink:href="#DejaVuSans-5f" x="77.490234"/>
     <use xlink:href="#DejaVuSans-69" x="127.490234"/>
     <use xlink:href="#DejaVuSans-6e" x="155.273438"/>
     <use xlink:href="#DejaVuSans-70" x="218.652344"/>
     <use xlink:href="#DejaVuSans-65" x="282.128906"/>
     <use xlink:href="#DejaVuSans-3a" x="343.652344"/>
     <use xlink:href="#DejaVuSans-20" x="377.34375"/>
     <use xlink:href="#DejaVuSans-33" x="409.130859"/>
     <use xlink:href="#DejaVuSans-2e" x="472.753906"/>
     <use xlink:href="#DejaVuSans-36" x="504.541016"/>
     <use xlink:href="#DejaVuSans-20" x="568.164062"/>
     <use xlink:href="#DejaVuSans-64" x="599.951172"/>
     <use xlink:href="#DejaVuSans-42" x="663.427734"/>
     <use xlink:href="#DejaVuSans-69" x="732.03125"/>
    </g>
    <!-- Pearson Coef: 0.067 -->
    <g transform="translate(384.8785 504.7735)scale(0.1 -0.1)">
     <defs>
      <path id="DejaVuSans-50" d="M 1259 4147 
L 1259 2394 
L 2053 2394 
Q 2494 2394 2734 2622 
Q 2975 2850 2975 3272 
Q 2975 3691 2734 3919 
Q 2494 4147 2053 4147 
L 1259 4147 
z
M 628 4666 
L 2053 4666 
Q 2838 4666 3239 4311 
Q 3641 3956 3641 3272 
Q 3641 2581 3239 2228 
Q 2838 1875 2053 1875 
L 1259 1875 
L 1259 0 
L 628 0 
L 628 4666 
z
" transform="scale(0.015625)"/>
      <path id="DejaVuSans-61" d="M 2194 1759 
Q 1497 1759 1228 1600 
Q 959 1441 959 1056 
Q 959 750 1161 570 
Q 1363 391 1709 391 
Q 2188 391 2477 730 
Q 2766 1069 2766 1631 
L 2766 1759 
L 2194 1759 
z
M 3341 1997 
L 3341 0 
L 2766 0 
L 2766 531 
Q 2569 213 2275 61 
Q 1981 -91 1556 -91 
Q 1019 -91 701 211 
Q 384 513 384 1019 
Q 384 1609 779 1909 
Q 1175 2209 1959 2209 
L 2766 2209 
L 2766 2266 
Q 2766 2663 2505 2880 
Q 2244 3097 1772 3097 
Q 1472 3097 1187 3025 
Q 903 2953 641 2809 
L 641 3341 
Q 956 3463 1253 3523 
Q 1550 3584 1831 3584 
Q 2591 3584 2966 3190 
Q 3341 2797 3341 1997 
z
" transform="scale(0.015625)"/>
      <path id="DejaVuSans-72" d="M 2631 2963 
Q 2534 3019 2420 3045 
Q 2306 3072 2169 3072 
Q 1681 3072 1420 2755 
Q 1159 2438 1159 1844 
L 1159 0 
L 581 0 
L 581 3500 
L 1159 3500 
L 1159 2956 
Q 1341 3275 1631 3429 
Q 1922 3584 2338 3584 
Q 2397 3584 2469 3576 
Q 2541 3569 2628 3553 
L 2631 2963 
z
" transform="scale(0.015625)"/>
      <path id="DejaVuSans-6f" d="M 1959 3097 
Q 1497 3097 1228 2736 
Q 959 2375 959 1747 
Q 959 1119 1226 758 
Q 1494 397 1959 397 
Q 2419 397 2687 759 
Q 2956 1122 2956 1747 
Q 2956 2369 2687 2733 
Q 2419 3097 1959 3097 
z
M 1959 3584 
Q 2709 3584 3137 3096 
Q 3566 2609 3566 1747 
Q 3566 888 3137 398 
Q 2709 -91 1959 -91 
Q 1206 -91 779 398 
Q 353 888 353 1747 
Q 353 2609 779 3096 
Q 1206 3584 1959 3584 
z
" transform="scale(0.015625)"/>
      <path id="DejaVuSans-43" d="M 4122 4306 
L 4122 3641 
Q 3803 3938 3442 4084 
Q 3081 4231 2675 4231 
Q 1875 4231 1450 3742 
Q 1025 3253 1025 2328 
Q 1025 1406 1450 917 
Q 1875 428 2675 428 
Q 3081 428 3442 575 
Q 3803 722 4122 1019 
L 4122 359 
Q 3791 134 3420 21 
Q 3050 -91 2638 -91 
Q 1578 -91 968 557 
Q 359 1206 359 2328 
Q 359 3453 968 4101 
Q 1578 4750 2638 4750 
Q 3056 4750 3426 4639 
Q 3797 4528 4122 4306 
z
" transform="scale(0.015625)"/>
      <path id="DejaVuSans-66" d="M 2375 4863 
L 2375 4384 
L 1825 4384 
Q 1516 4384 1395 4259 
Q 1275 4134 1275 3809 
L 1275 3500 
L 2222 3500 
L 2222 3053 
L 1275 3053 
L 1275 0 
L 697 0 
L 697 3053 
L 147 3053 
L 147 3500 
L 697 3500 
L 697 3744 
Q 697 4328 969 4595 
Q 1241 4863 1831 4863 
L 2375 4863 
z
" transform="scale(0.015625)"/>
     </defs>
     <use xlink:href="#DejaVuSans-50"/>
     <use xlink:href="#DejaVuSans-65" x="56.677734"/>
     <use xlink:href="#DejaVuSans-61" x="118.201172"/>
     <use xlink:href="#DejaVuSans-72" x="179.480469"/>
     <use xlink:href="#DejaVuSans-73" x="220.59375"/>
     <use xlink:href="#DejaVuSans-6f" x="272.693359"/>
     <use xlink:href="#DejaVuSans-6e" x="333.875"/>
     <use xlink:href="#DejaVuSans-20" x="397.253906"/>
     <use xlink:href="#DejaVuSans-43" x="429.041016"/>
     <use xlink:href="#DejaVuSans-6f" x="498.865234"/>
     <use xlink:href="#DejaVuSans-65" x="560.046875"/>
     <use xlink:href="#DejaVuSans-66" x="621.570312"/>
     <use xlink:href="#DejaVuSans-3a" x="653.150391"/>
     <use xlink:href="#DejaVuSans-20" x="686.841797"/>
     <use xlink:href="#DejaVuSans-30" x="718.628906"/>
     <use xlink:href="#DejaVuSans-2e" x="782.251953"/>
     <use xlink:href="#DejaVuSans-30" x="814.039062"/>
     <use xlink:href="#DejaVuSans-36" x="877.662109"/>
     <use xlink:href="#DejaVuSans-37" x="941.285156"/>
    </g>
   </g>
   <g id="text_15">
    <g id="patch_5">
     <path d="M 52.2385 56.370938 
L 121.861 56.370938 
Q 125.461 56.370938 125.461 52.770938 
L 125.461 41.157188 
Q 125.461 37.557188 121.861 37.557188 
L 52.2385 37.557188 
Q 48.6385 37.557188 48.6385 41.157188 
L 48.6385 52.770938 
Q 48.6385 56.370938 52.2385 56.370938 
z
" style="fill: #ffffff; stroke: #808080; stroke-linejoin: miter"/>
    </g>
    <!-- Freq: 5 GHz -->
    <g transform="translate(52.2385 50.275313)scale(0.12 -0.12)">
     <defs>
      <path id="DejaVuSans-46" d="M 628 4666 
L 3309 4666 
L 3309 4134 
L 1259 4134 
L 1259 2759 
L 3109 2759 
L 3109 2228 
L 1259 2228 
L 1259 0 
L 628 0 
L 628 4666 
z
" transform="scale(0.015625)"/>
      <path id="DejaVuSans-71" d="M 947 1747 
Q 947 1113 1208 752 
Q 1469 391 1925 391 
Q 2381 391 2643 752 
Q 2906 1113 2906 1747 
Q 2906 2381 2643 2742 
Q 2381 3103 1925 3103 
Q 1469 3103 1208 2742 
Q 947 2381 947 1747 
z
M 2906 525 
Q 2725 213 2448 61 
Q 2172 -91 1784 -91 
Q 1150 -91 751 415 
Q 353 922 353 1747 
Q 353 2572 751 3078 
Q 1150 3584 1784 3584 
Q 2172 3584 2448 3432 
Q 2725 3281 2906 2969 
L 2906 3500 
L 3481 3500 
L 3481 -1331 
L 2906 -1331 
L 2906 525 
z
" transform="scale(0.015625)"/>
      <path id="DejaVuSans-48" d="M 628 4666 
L 1259 4666 
L 1259 2753 
L 3553 2753 
L 3553 4666 
L 4184 4666 
L 4184 0 
L 3553 0 
L 3553 2222 
L 1259 2222 
L 1259 0 
L 628 0 
L 628 4666 
z
" transform="scale(0.015625)"/>
      <path id="DejaVuSans-7a" d="M 353 3500 
L 3084 3500 
L 3084 2975 
L 922 459 
L 3084 459 
L 3084 0 
L 275 0 
L 275 525 
L 2438 3041 
L 353 3041 
L 353 3500 
z
" transform="scale(0.015625)"/>
     </defs>
     <use xlink:href="#DejaVuSans-46"/>
     <use xlink:href="#DejaVuSans-72" x="50.269531"/>
     <use xlink:href="#DejaVuSans-65" x="89.132812"/>
     <use xlink:href="#DejaVuSans-71" x="150.65625"/>
     <use xlink:href="#DejaVuSans-3a" x="214.132812"/>
     <use xlink:href="#DejaVuSans-20" x="247.824219"/>
     <use xlink:href="#DejaVuSans-35" x="279.611328"/>
     <use xlink:href="#DejaVuSans-20" x="343.234375"/>
     <use xlink:href="#DejaVuSans-47" x="375.021484"/>
     <use xlink:href="#DejaVuSans-48" x="452.511719"/>
     <use xlink:href="#DejaVuSans-7a" x="527.707031"/>
    </g>
   </g>
   <g id="text_16">
    <!-- Radiation Diagram - 1AVHF05 -->
    <g transform="translate(162.578125 16.318125)scale(0.12 -0.12)">
     <defs>
      <path id="DejaVuSans-52" d="M 2841 2188 
Q 3044 2119 3236 1894 
Q 3428 1669 3622 1275 
L 4263 0 
L 3584 0 
L 2988 1197 
Q 2756 1666 2539 1819 
Q 2322 1972 1947 1972 
L 1259 1972 
L 1259 0 
L 628 0 
L 628 4666 
L 2053 4666 
Q 2853 4666 3247 4331 
Q 3641 3997 3641 3322 
Q 3641 2881 3436 2590 
Q 3231 2300 2841 2188 
z
M 1259 4147 
L 1259 2491 
L 2053 2491 
Q 2509 2491 2742 2702 
Q 2975 2913 2975 3322 
Q 2975 3731 2742 3939 
Q 2509 4147 2053 4147 
L 1259 4147 
z
" transform="scale(0.015625)"/>
      <path id="DejaVuSans-44" d="M 1259 4147 
L 1259 519 
L 2022 519 
Q 2988 519 3436 956 
Q 3884 1394 3884 2338 
Q 3884 3275 3436 3711 
Q 2988 4147 2022 4147 
L 1259 4147 
z
M 628 4666 
L 1925 4666 
Q 3281 4666 3915 4102 
Q 4550 3538 4550 2338 
Q 4550 1131 3912 565 
Q 3275 0 1925 0 
L 628 0 
L 628 4666 
z
" transform="scale(0.015625)"/>
      <path id="DejaVuSans-67" d="M 2906 1791 
Q 2906 2416 2648 2759 
Q 2391 3103 1925 3103 
Q 1463 3103 1205 2759 
Q 947 2416 947 1791 
Q 947 1169 1205 825 
Q 1463 481 1925 481 
Q 2391 481 2648 825 
Q 2906 1169 2906 1791 
z
M 3481 434 
Q 3481 -459 3084 -895 
Q 2688 -1331 1869 -1331 
Q 1566 -1331 1297 -1286 
Q 1028 -1241 775 -1147 
L 775 -588 
Q 1028 -725 1275 -790 
Q 1522 -856 1778 -856 
Q 2344 -856 2625 -561 
Q 2906 -266 2906 331 
L 2906 616 
Q 2728 306 2450 153 
Q 2172 0 1784 0 
Q 1141 0 747 490 
Q 353 981 353 1791 
Q 353 2603 747 3093 
Q 1141 3584 1784 3584 
Q 2172 3584 2450 3431 
Q 2728 3278 2906 2969 
L 2906 3500 
L 3481 3500 
L 3481 434 
z
" transform="scale(0.015625)"/>
      <path id="DejaVuSans-6d" d="M 3328 2828 
Q 3544 3216 3844 3400 
Q 4144 3584 4550 3584 
Q 5097 3584 5394 3201 
Q 5691 2819 5691 2113 
L 5691 0 
L 5113 0 
L 5113 2094 
Q 5113 2597 4934 2840 
Q 4756 3084 4391 3084 
Q 3944 3084 3684 2787 
Q 3425 2491 3425 1978 
L 3425 0 
L 2847 0 
L 2847 2094 
Q 2847 2600 2669 2842 
Q 2491 3084 2119 3084 
Q 1678 3084 1418 2786 
Q 1159 2488 1159 1978 
L 1159 0 
L 581 0 
L 581 3500 
L 1159 3500 
L 1159 2956 
Q 1356 3278 1631 3431 
Q 1906 3584 2284 3584 
Q 2666 3584 2933 3390 
Q 3200 3197 3328 2828 
z
" transform="scale(0.015625)"/>
      <path id="DejaVuSans-2d" d="M 313 2009 
L 1997 2009 
L 1997 1497 
L 313 1497 
L 313 2009 
z
" transform="scale(0.015625)"/>
      <path id="DejaVuSans-41" d="M 2188 4044 
L 1331 1722 
L 3047 1722 
L 2188 4044 
z
M 1831 4666 
L 2547 4666 
L 4325 0 
L 3669 0 
L 3244 1197 
L 1141 1197 
L 716 0 
L 50 0 
L 1831 4666 
z
" transform="scale(0.015625)"/>
      <path id="DejaVuSans-56" d="M 1831 0 
L 50 4666 
L 709 4666 
L 2188 738 
L 3669 4666 
L 4325 4666 
L 2547 0 
L 1831 0 
z
" transform="scale(0.015625)"/>
     </defs>
     <use xlink:href="#DejaVuSans-52"/>
     <use xlink:href="#DejaVuSans-61" x="67.232422"/>
     <use xlink:href="#DejaVuSans-64" x="128.511719"/>
     <use xlink:href="#DejaVuSans-69" x="191.988281"/>
     <use xlink:href="#DejaVuSans-61" x="219.771484"/>
     <use xlink:href="#DejaVuSans-74" x="281.050781"/>
     <use xlink:href="#DejaVuSans-69" x="320.259766"/>
     <use xlink:href="#DejaVuSans-6f" x="348.042969"/>
     <use xlink:href="#DejaVuSans-6e" x="409.224609"/>
     <use xlink:href="#DejaVuSans-20" x="472.603516"/>
     <use xlink:href="#DejaVuSans-44" x="504.390625"/>
     <use xlink:href="#DejaVuSans-69" x="581.392578"/>
     <use xlink:href="#DejaVuSans-61" x="609.175781"/>
     <use xlink:href="#DejaVuSans-67" x="670.455078"/>
     <use xlink:href="#DejaVuSans-72" x="733.931641"/>
     <use xlink:href="#DejaVuSans-61" x="775.044922"/>
     <use xlink:href="#DejaVuSans-6d" x="836.324219"/>
     <use xlink:href="#DejaVuSans-20" x="933.736328"/>
     <use xlink:href="#DejaVuSans-2d" x="965.523438"/>
     <use xlink:href="#DejaVuSans-20" x="1001.607422"/>
     <use xlink:href="#DejaVuSans-31" x="1033.394531"/>
     <use xlink:href="#DejaVuSans-41" x="1097.017578"/>
     <use xlink:href="#DejaVuSans-56" x="1159.050781"/>
     <use xlink:href="#DejaVuSans-48" x="1227.458984"/>
     <use xlink:href="#DejaVuSans-46" x="1302.654297"/>
     <use xlink:href="#DejaVuSans-30" x="1360.173828"/>
     <use xlink:href="#DejaVuSans-35" x="1423.796875"/>
    </g>
   </g>
   <g id="legend_1">
    <g id="patch_6">
     <path d="M 411.802812 78.513438 
L 466.5825 78.513438 
Q 468.5825 78.513438 468.5825 76.513438 
L 468.5825 48.157188 
Q 468.5825 46.157188 466.5825 46.157188 
L 411.802812 46.157188 
Q 409.802812 46.157188 409.802812 48.157188 
L 409.802812 76.513438 
Q 409.802812 78.513438 411.802812 78.513438 
z
" style="fill: #ffffff; opacity: 0.8; stroke: #cccccc; stroke-linejoin: miter"/>
    </g>
    <g id="line2d_16">
     <path d="M 413.802812 54.255625 
L 423.802812 54.255625 
L 433.802812 54.255625 
" style="fill: none; stroke: #ff0000; stroke-width: 1.5; stroke-linecap: square"/>
    </g>
    <g id="text_17">
     <!-- INPE -->
     <g transform="translate(441.802812 57.755625)scale(0.1 -0.1)">
      <defs>
       <path id="DejaVuSans-49" d="M 628 4666 
L 1259 4666 
L 1259 0 
L 628 0 
L 628 4666 
z
" transform="scale(0.015625)"/>
       <path id="DejaVuSans-4e" d="M 628 4666 
L 1478 4666 
L 3547 763 
L 3547 4666 
L 4159 4666 
L 4159 0 
L 3309 0 
L 1241 3903 
L 1241 0 
L 628 0 
L 628 4666 
z
" transform="scale(0.015625)"/>
       <path id="DejaVuSans-45" d="M 628 4666 
L 3578 4666 
L 3578 4134 
L 1259 4134 
L 1259 2753 
L 3481 2753 
L 3481 2222 
L 1259 2222 
L 1259 531 
L 3634 531 
L 3634 0 
L 628 0 
L 628 4666 
z
" transform="scale(0.015625)"/>
      </defs>
      <use xlink:href="#DejaVuSans-49"/>
      <use xlink:href="#DejaVuSans-4e" x="29.492188"/>
      <use xlink:href="#DejaVuSans-50" x="104.296875"/>
      <use xlink:href="#DejaVuSans-45" x="164.599609"/>
     </g>
    </g>
    <g id="line2d_17">
     <path d="M 413.802812 68.93375 
L 423.802812 68.93375 
L 433.802812 68.93375 
" style="fill: none; stroke-dasharray: 5.55,2.4; stroke-dashoffset: 0; stroke: #0000ff; stroke-width: 1.5"/>
    </g>
    <g id="text_18">
     <!-- CST -->
     <g transform="translate(441.802812 72.43375)scale(0.1 -0.1)">
      <defs>
       <path id="DejaVuSans-53" d="M 3425 4513 
L 3425 3897 
Q 3066 4069 2747 4153 
Q 2428 4238 2131 4238 
Q 1616 4238 1336 4038 
Q 1056 3838 1056 3469 
Q 1056 3159 1242 3001 
Q 1428 2844 1947 2747 
L 2328 2669 
Q 3034 2534 3370 2195 
Q 3706 1856 3706 1288 
Q 3706 609 3251 259 
Q 2797 -91 1919 -91 
Q 1588 -91 1214 -16 
Q 841 59 441 206 
L 441 856 
Q 825 641 1194 531 
Q 1563 422 1919 422 
Q 2459 422 2753 634 
Q 3047 847 3047 1241 
Q 3047 1584 2836 1778 
Q 2625 1972 2144 2069 
L 1759 2144 
Q 1053 2284 737 2584 
Q 422 2884 422 3419 
Q 422 4038 858 4394 
Q 1294 4750 2059 4750 
Q 2388 4750 2728 4690 
Q 3069 4631 3425 4513 
z
" transform="scale(0.015625)"/>
       <path id="DejaVuSans-54" d="M -19 4666 
L 3928 4666 
L 3928 4134 
L 2272 4134 
L 2272 0 
L 1638 0 
L 1638 4134 
L -19 4134 
L -19 4666 
z
" transform="scale(0.015625)"/>
      </defs>
      <use xlink:href="#DejaVuSans-43"/>
      <use xlink:href="#DejaVuSans-53" x="69.824219"/>
      <use xlink:href="#DejaVuSans-54" x="133.300781"/>
     </g>
    </g>
   </g>
  </g>
 </g>
 <defs>
  <clipPath id="p824b9cacee">
   <path d="M 473.5825 262.917188 
C 473.5825 233.795931 467.846247 204.957842 456.702025 178.05331 
C 445.557803 151.148777 429.222338 126.701026 408.6305 106.109188 
C 388.038662 85.51735 363.590911 69.181885 336.686378 58.037662 
C 309.781845 46.89344 280.943756 41.157188 251.8225 41.157188 
C 222.701244 41.157188 193.863155 46.89344 166.958622 58.037662 
C 140.054089 69.181885 115.606338 85.51735 95.0145 106.109188 
C 74.422662 126.701026 58.087197 151.148777 46.942975 178.05331 
C 35.798753 204.957842 30.0625 233.795931 30.0625 262.917188 
C 30.0625 292.038444 35.798753 320.876533 46.942975 347.781065 
C 58.087197 374.685598 74.422662 399.133349 95.0145 419.725187 
C 115.606338 440.317025 140.054089 456.65249 166.958622 467.796713 
C 193.863155 478.940935 222.701244 484.677188 251.8225 484.677188 
C 280.943756 484.677188 309.781845 478.940935 336.686378 467.796713 
C 363.590911 456.65249 388.038662 440.317025 408.6305 419.725187 
C 429.222338 399.133349 445.557803 374.685598 456.702025 347.781065 
C 467.846247 320.876533 473.5825 292.038444 473.5825 262.917188 
M 251.8225 262.917188 
C 251.8225 262.917188 251.8225 262.917188 251.8225 262.917188 
C 251.8225 262.917188 251.8225 262.917188 251.8225 262.917188 
C 251.8225 262.917188 251.8225 262.917188 251.8225 262.917188 
C 251.8225 262.917188 251.8225 262.917188 251.8225 262.917188 
C 251.8225 262.917188 251.8225 262.917188 251.8225 262.917188 
C 251.8225 262.917188 251.8225 262.917188 251.8225 262.917188 
C 251.8225 262.917188 251.8225 262.917188 251.8225 262.917188 
C 251.8225 262.917188 251.8225 262.917188 251.8225 262.917188 
C 251.8225 262.917188 251.8225 262.917188 251.8225 262.917188 
C 251.8225 262.917188 251.8225 262.917188 251.8225 262.917188 
C 251.8225 262.917188 251.8225 262.917188 251.8225 262.917188 
C 251.8225 262.917188 251.8225 262.917188 251.8225 262.917188 
C 251.8225 262.917188 251.8225 262.917188 251.8225 262.917188 
C 251.8225 262.917188 251.8225 262.917188 251.8225 262.917188 
C 251.8225 262.917188 251.8225 262.917188 251.8225 262.917188 
C 251.8225 262.917188 251.8225 262.917188 251.8225 262.917188 
M 473.5825 262.917188 
z
"/>
  </clipPath>
 </defs>
</svg>
