<?xml version="1.0" encoding="utf-8" standalone="no"?>
<!DOCTYPE svg PUBLIC "-//W3C//DTD SVG 1.1//EN"
  "http://www.w3.org/Graphics/SVG/1.1/DTD/svg11.dtd">
<svg xmlns:xlink="http://www.w3.org/1999/xlink" width="506.82625pt" height="514.053188pt" viewBox="0 0 506.82625 514.053188" xmlns="http://www.w3.org/2000/svg" version="1.1">
 <metadata>
  <rdf:RDF xmlns:dc="http://purl.org/dc/elements/1.1/" xmlns:cc="http://creativecommons.org/ns#" xmlns:rdf="http://www.w3.org/1999/02/22-rdf-syntax-ns#">
   <cc:Work>
    <dc:type rdf:resource="http://purl.org/dc/dcmitype/StillImage"/>
    <dc:date>2023-11-04T18:05:21.713700</dc:date>
    <dc:format>image/svg+xml</dc:format>
    <dc:creator>
     <cc:Agent>
      <dc:title>Matplotlib v3.5.1, https://matplotlib.org/</dc:title>
     </cc:Agent>
    </dc:creator>
   </cc:Work>
  </rdf:RDF>
 </metadata>
 <defs>
  <style type="text/css">*{stroke-linejoin: round; stroke-linecap: butt}</style>
 </defs>
 <g id="figure_1">
  <g id="patch_1">
   <path d="M 0 514.053188 
L 506.82625 514.053188 
L 506.82625 0 
L 0 0 
z
" style="fill: #ffffff"/>
  </g>
  <g id="axes_1">
   <g id="patch_2">
    <path d="M 473.5825 262.917188 
C 473.5825 233.795931 467.846247 204.957842 456.702025 178.05331 
C 445.557803 151.148777 429.222338 126.701026 408.6305 106.109188 
C 388.038662 85.51735 363.590911 69.181885 336.686378 58.037662 
C 309.781845 46.89344 280.943756 41.157188 251.8225 41.157188 
C 222.701244 41.157188 193.863155 46.89344 166.958622 58.037662 
C 140.054089 69.181885 115.606338 85.51735 95.0145 106.109188 
C 74.422662 126.701026 58.087197 151.148777 46.942975 178.05331 
C 35.798753 204.957842 30.0625 233.795931 30.0625 262.917188 
C 30.0625 292.038444 35.798753 320.876533 46.942975 347.781065 
C 58.087197 374.685598 74.422662 399.133349 95.0145 419.725187 
C 115.606338 440.317025 140.054089 456.65249 166.958622 467.796713 
C 193.863155 478.940935 222.701244 484.677188 251.8225 484.677188 
C 280.943756 484.677188 309.781845 478.940935 336.686378 467.796713 
C 363.590911 456.65249 388.038662 440.317025 408.6305 419.725187 
C 429.222338 399.133349 445.557803 374.685598 456.702025 347.781065 
C 467.846247 320.876533 473.5825 292.038444 473.5825 262.917188 
M 251.8225 262.917188 
C 251.8225 262.917188 251.8225 262.917188 251.8225 262.917188 
C 251.8225 262.917188 251.8225 262.917188 251.8225 262.917188 
C 251.8225 262.917188 251.8225 262.917188 251.8225 262.917188 
C 251.8225 262.917188 251.8225 262.917188 251.8225 262.917188 
C 251.8225 262.917188 251.8225 262.917188 251.8225 262.917188 
C 251.8225 262.917188 251.8225 262.917188 251.8225 262.917188 
C 251.8225 262.917188 251.8225 262.917188 251.8225 262.917188 
C 251.8225 262.917188 251.8225 262.917188 251.8225 262.917188 
C 251.8225 262.917188 251.8225 262.917188 251.8225 262.917188 
C 251.8225 262.917188 251.8225 262.917188 251.8225 262.917188 
C 251.8225 262.917188 251.8225 262.917188 251.8225 262.917188 
C 251.8225 262.917188 251.8225 262.917188 251.8225 262.917188 
C 251.8225 262.917188 251.8225 262.917188 251.8225 262.917188 
C 251.8225 262.917188 251.8225 262.917188 251.8225 262.917188 
C 251.8225 262.917188 251.8225 262.917188 251.8225 262.917188 
C 251.8225 262.917188 251.8225 262.917188 251.8225 262.917188 
M 473.5825 262.917188 
z
" style="fill: #ffffff"/>
   </g>
   <g id="matplotlib.axis_1">
    <g id="xtick_1">
     <g id="line2d_1">
      <path d="M 251.8225 262.917188 
L 251.8225 41.157188 
" clip-path="url(#p3499a41a0d)" style="fill: none; stroke: #b0b0b0; stroke-width: 0.8; stroke-linecap: square"/>
     </g>
     <g id="text_1">
      <!-- 0° -->
      <g transform="translate(246.14125 29.916563)scale(0.1 -0.1)">
       <defs>
        <path id="DejaVuSans-30" d="M 2034 4250 
Q 1547 4250 1301 3770 
Q 1056 3291 1056 2328 
Q 1056 1369 1301 889 
Q 1547 409 2034 409 
Q 2525 409 2770 889 
Q 3016 1369 3016 2328 
Q 3016 3291 2770 3770 
Q 2525 4250 2034 4250 
z
M 2034 4750 
Q 2819 4750 3233 4129 
Q 3647 3509 3647 2328 
Q 3647 1150 3233 529 
Q 2819 -91 2034 -91 
Q 1250 -91 836 529 
Q 422 1150 422 2328 
Q 422 3509 836 4129 
Q 1250 4750 2034 4750 
z
" transform="scale(0.015625)"/>
        <path id="DejaVuSans-b0" d="M 1600 4347 
Q 1350 4347 1178 4173 
Q 1006 4000 1006 3750 
Q 1006 3503 1178 3333 
Q 1350 3163 1600 3163 
Q 1850 3163 2022 3333 
Q 2194 3503 2194 3750 
Q 2194 3997 2020 4172 
Q 1847 4347 1600 4347 
z
M 1600 4750 
Q 1800 4750 1984 4673 
Q 2169 4597 2303 4453 
Q 2447 4313 2519 4134 
Q 2591 3956 2591 3750 
Q 2591 3338 2302 3052 
Q 2013 2766 1594 2766 
Q 1172 2766 890 3047 
Q 609 3328 609 3750 
Q 609 4169 896 4459 
Q 1184 4750 1600 4750 
z
" transform="scale(0.015625)"/>
       </defs>
       <use xlink:href="#DejaVuSans-30"/>
       <use xlink:href="#DejaVuSans-b0" x="63.623047"/>
      </g>
     </g>
    </g>
    <g id="xtick_2">
     <g id="line2d_2">
      <path d="M 251.8225 262.917188 
L 95.0145 106.109188 
" clip-path="url(#p3499a41a0d)" style="fill: none; stroke: #b0b0b0; stroke-width: 0.8; stroke-linecap: square"/>
     </g>
     <g id="text_2">
      <!-- 45° -->
      <g transform="translate(76.252505 98.969068)scale(0.1 -0.1)">
       <defs>
        <path id="DejaVuSans-34" d="M 2419 4116 
L 825 1625 
L 2419 1625 
L 2419 4116 
z
M 2253 4666 
L 3047 4666 
L 3047 1625 
L 3713 1625 
L 3713 1100 
L 3047 1100 
L 3047 0 
L 2419 0 
L 2419 1100 
L 313 1100 
L 313 1709 
L 2253 4666 
z
" transform="scale(0.015625)"/>
        <path id="DejaVuSans-35" d="M 691 4666 
L 3169 4666 
L 3169 4134 
L 1269 4134 
L 1269 2991 
Q 1406 3038 1543 3061 
Q 1681 3084 1819 3084 
Q 2600 3084 3056 2656 
Q 3513 2228 3513 1497 
Q 3513 744 3044 326 
Q 2575 -91 1722 -91 
Q 1428 -91 1123 -41 
Q 819 9 494 109 
L 494 744 
Q 775 591 1075 516 
Q 1375 441 1709 441 
Q 2250 441 2565 725 
Q 2881 1009 2881 1497 
Q 2881 1984 2565 2268 
Q 2250 2553 1709 2553 
Q 1456 2553 1204 2497 
Q 953 2441 691 2322 
L 691 4666 
z
" transform="scale(0.015625)"/>
       </defs>
       <use xlink:href="#DejaVuSans-34"/>
       <use xlink:href="#DejaVuSans-35" x="63.623047"/>
       <use xlink:href="#DejaVuSans-b0" x="127.246094"/>
      </g>
     </g>
    </g>
    <g id="xtick_3">
     <g id="line2d_3">
      <path d="M 251.8225 262.917188 
L 30.0625 262.917188 
" clip-path="url(#p3499a41a0d)" style="fill: none; stroke: #b0b0b0; stroke-width: 0.8; stroke-linecap: square"/>
     </g>
     <g id="text_3">
      <!-- 90° -->
      <g transform="translate(7.2 265.676563)scale(0.1 -0.1)">
       <defs>
        <path id="DejaVuSans-39" d="M 703 97 
L 703 672 
Q 941 559 1184 500 
Q 1428 441 1663 441 
Q 2288 441 2617 861 
Q 2947 1281 2994 2138 
Q 2813 1869 2534 1725 
Q 2256 1581 1919 1581 
Q 1219 1581 811 2004 
Q 403 2428 403 3163 
Q 403 3881 828 4315 
Q 1253 4750 1959 4750 
Q 2769 4750 3195 4129 
Q 3622 3509 3622 2328 
Q 3622 1225 3098 567 
Q 2575 -91 1691 -91 
Q 1453 -91 1209 -44 
Q 966 3 703 97 
z
M 1959 2075 
Q 2384 2075 2632 2365 
Q 2881 2656 2881 3163 
Q 2881 3666 2632 3958 
Q 2384 4250 1959 4250 
Q 1534 4250 1286 3958 
Q 1038 3666 1038 3163 
Q 1038 2656 1286 2365 
Q 1534 2075 1959 2075 
z
" transform="scale(0.015625)"/>
       </defs>
       <use xlink:href="#DejaVuSans-39"/>
       <use xlink:href="#DejaVuSans-30" x="63.623047"/>
       <use xlink:href="#DejaVuSans-b0" x="127.246094"/>
      </g>
     </g>
    </g>
    <g id="xtick_4">
     <g id="line2d_4">
      <path d="M 251.8225 262.917188 
L 95.0145 419.725187 
" clip-path="url(#p3499a41a0d)" style="fill: none; stroke: #b0b0b0; stroke-width: 0.8; stroke-linecap: square"/>
     </g>
     <g id="text_4">
      <!-- 135° -->
      <g transform="translate(73.071255 432.384057)scale(0.1 -0.1)">
       <defs>
        <path id="DejaVuSans-31" d="M 794 531 
L 1825 531 
L 1825 4091 
L 703 3866 
L 703 4441 
L 1819 4666 
L 2450 4666 
L 2450 531 
L 3481 531 
L 3481 0 
L 794 0 
L 794 531 
z
" transform="scale(0.015625)"/>
        <path id="DejaVuSans-33" d="M 2597 2516 
Q 3050 2419 3304 2112 
Q 3559 1806 3559 1356 
Q 3559 666 3084 287 
Q 2609 -91 1734 -91 
Q 1441 -91 1130 -33 
Q 819 25 488 141 
L 488 750 
Q 750 597 1062 519 
Q 1375 441 1716 441 
Q 2309 441 2620 675 
Q 2931 909 2931 1356 
Q 2931 1769 2642 2001 
Q 2353 2234 1838 2234 
L 1294 2234 
L 1294 2753 
L 1863 2753 
Q 2328 2753 2575 2939 
Q 2822 3125 2822 3475 
Q 2822 3834 2567 4026 
Q 2313 4219 1838 4219 
Q 1578 4219 1281 4162 
Q 984 4106 628 3988 
L 628 4550 
Q 988 4650 1302 4700 
Q 1616 4750 1894 4750 
Q 2613 4750 3031 4423 
Q 3450 4097 3450 3541 
Q 3450 3153 3228 2886 
Q 3006 2619 2597 2516 
z
" transform="scale(0.015625)"/>
       </defs>
       <use xlink:href="#DejaVuSans-31"/>
       <use xlink:href="#DejaVuSans-33" x="63.623047"/>
       <use xlink:href="#DejaVuSans-35" x="127.246094"/>
       <use xlink:href="#DejaVuSans-b0" x="190.869141"/>
      </g>
     </g>
    </g>
    <g id="xtick_5">
     <g id="line2d_5">
      <path d="M 251.8225 262.917188 
L 251.8225 484.677188 
" clip-path="url(#p3499a41a0d)" style="fill: none; stroke: #b0b0b0; stroke-width: 0.8; stroke-linecap: square"/>
     </g>
     <g id="text_5">
      <!-- 180° -->
      <g transform="translate(239.77875 501.436563)scale(0.1 -0.1)">
       <defs>
        <path id="DejaVuSans-38" d="M 2034 2216 
Q 1584 2216 1326 1975 
Q 1069 1734 1069 1313 
Q 1069 891 1326 650 
Q 1584 409 2034 409 
Q 2484 409 2743 651 
Q 3003 894 3003 1313 
Q 3003 1734 2745 1975 
Q 2488 2216 2034 2216 
z
M 1403 2484 
Q 997 2584 770 2862 
Q 544 3141 544 3541 
Q 544 4100 942 4425 
Q 1341 4750 2034 4750 
Q 2731 4750 3128 4425 
Q 3525 4100 3525 3541 
Q 3525 3141 3298 2862 
Q 3072 2584 2669 2484 
Q 3125 2378 3379 2068 
Q 3634 1759 3634 1313 
Q 3634 634 3220 271 
Q 2806 -91 2034 -91 
Q 1263 -91 848 271 
Q 434 634 434 1313 
Q 434 1759 690 2068 
Q 947 2378 1403 2484 
z
M 1172 3481 
Q 1172 3119 1398 2916 
Q 1625 2713 2034 2713 
Q 2441 2713 2670 2916 
Q 2900 3119 2900 3481 
Q 2900 3844 2670 4047 
Q 2441 4250 2034 4250 
Q 1625 4250 1398 4047 
Q 1172 3844 1172 3481 
z
" transform="scale(0.015625)"/>
       </defs>
       <use xlink:href="#DejaVuSans-31"/>
       <use xlink:href="#DejaVuSans-38" x="63.623047"/>
       <use xlink:href="#DejaVuSans-30" x="127.246094"/>
       <use xlink:href="#DejaVuSans-b0" x="190.869141"/>
      </g>
     </g>
    </g>
    <g id="xtick_6">
     <g id="line2d_6">
      <path d="M 251.8225 262.917188 
L 408.6305 419.725187 
" clip-path="url(#p3499a41a0d)" style="fill: none; stroke: #b0b0b0; stroke-width: 0.8; stroke-linecap: square"/>
     </g>
     <g id="text_6">
      <!-- 225° -->
      <g transform="translate(406.486245 432.384057)scale(0.1 -0.1)">
       <defs>
        <path id="DejaVuSans-32" d="M 1228 531 
L 3431 531 
L 3431 0 
L 469 0 
L 469 531 
Q 828 903 1448 1529 
Q 2069 2156 2228 2338 
Q 2531 2678 2651 2914 
Q 2772 3150 2772 3378 
Q 2772 3750 2511 3984 
Q 2250 4219 1831 4219 
Q 1534 4219 1204 4116 
Q 875 4013 500 3803 
L 500 4441 
Q 881 4594 1212 4672 
Q 1544 4750 1819 4750 
Q 2544 4750 2975 4387 
Q 3406 4025 3406 3419 
Q 3406 3131 3298 2873 
Q 3191 2616 2906 2266 
Q 2828 2175 2409 1742 
Q 1991 1309 1228 531 
z
" transform="scale(0.015625)"/>
       </defs>
       <use xlink:href="#DejaVuSans-32"/>
       <use xlink:href="#DejaVuSans-32" x="63.623047"/>
       <use xlink:href="#DejaVuSans-35" x="127.246094"/>
       <use xlink:href="#DejaVuSans-b0" x="190.869141"/>
      </g>
     </g>
    </g>
    <g id="xtick_7">
     <g id="line2d_7">
      <path d="M 251.8225 262.917188 
L 473.5825 262.917188 
" clip-path="url(#p3499a41a0d)" style="fill: none; stroke: #b0b0b0; stroke-width: 0.8; stroke-linecap: square"/>
     </g>
     <g id="text_7">
      <!-- 270° -->
      <g transform="translate(475.53875 265.676563)scale(0.1 -0.1)">
       <defs>
        <path id="DejaVuSans-37" d="M 525 4666 
L 3525 4666 
L 3525 4397 
L 1831 0 
L 1172 0 
L 2766 4134 
L 525 4134 
L 525 4666 
z
" transform="scale(0.015625)"/>
       </defs>
       <use xlink:href="#DejaVuSans-32"/>
       <use xlink:href="#DejaVuSans-37" x="63.623047"/>
       <use xlink:href="#DejaVuSans-30" x="127.246094"/>
       <use xlink:href="#DejaVuSans-b0" x="190.869141"/>
      </g>
     </g>
    </g>
    <g id="xtick_8">
     <g id="line2d_8">
      <path d="M 251.8225 262.917188 
L 408.6305 106.109188 
" clip-path="url(#p3499a41a0d)" style="fill: none; stroke: #b0b0b0; stroke-width: 0.8; stroke-linecap: square"/>
     </g>
     <g id="text_8">
      <!-- 315° -->
      <g transform="translate(406.486245 98.969068)scale(0.1 -0.1)">
       <use xlink:href="#DejaVuSans-33"/>
       <use xlink:href="#DejaVuSans-31" x="63.623047"/>
       <use xlink:href="#DejaVuSans-35" x="127.246094"/>
       <use xlink:href="#DejaVuSans-b0" x="190.869141"/>
      </g>
     </g>
    </g>
   </g>
   <g id="matplotlib.axis_2">
    <g id="ytick_1">
     <g id="line2d_9">
      <path d="M 251.8225 219.261039 
C 246.089627 219.261039 240.412499 220.39029 235.116015 222.584166 
C 229.819531 224.778041 225.006695 227.993876 220.952942 232.047629 
C 216.899188 236.101382 213.683354 240.914219 211.489478 246.210703 
C 209.295603 251.507187 208.166352 257.184315 208.166352 262.917188 
C 208.166352 268.65006 209.295603 274.327188 211.489478 279.623672 
C 213.683354 284.920156 216.899188 289.732993 220.952942 293.786746 
C 225.006695 297.840499 229.819531 301.056334 235.116015 303.250209 
C 240.412499 305.444085 246.089627 306.573336 251.8225 306.573336 
C 257.555373 306.573336 263.232501 305.444085 268.528985 303.250209 
C 273.825469 301.056334 278.638305 297.840499 282.692058 293.786746 
C 286.745812 289.732993 289.961646 284.920156 292.155522 279.623672 
C 294.349397 274.327188 295.478648 268.65006 295.478648 262.917188 
C 295.478648 257.184315 294.349397 251.507187 292.155522 246.210703 
C 289.961646 240.914219 286.745812 236.101382 282.692058 232.047629 
C 278.638305 227.993876 273.825469 224.778041 268.528985 222.584166 
C 263.232501 220.39029 257.555373 219.261039 251.8225 219.261039 
" clip-path="url(#p3499a41a0d)" style="fill: none; stroke: #b0b0b0; stroke-width: 0.8; stroke-linecap: square"/>
     </g>
     <g id="text_9">
      <!-- −40 -->
      <g transform="translate(235.116015 220.504478)scale(0.1 -0.1)">
       <defs>
        <path id="DejaVuSans-2212" d="M 678 2272 
L 4684 2272 
L 4684 1741 
L 678 1741 
L 678 2272 
z
" transform="scale(0.015625)"/>
       </defs>
       <use xlink:href="#DejaVuSans-2212"/>
       <use xlink:href="#DejaVuSans-34" x="83.789062"/>
       <use xlink:href="#DejaVuSans-30" x="147.412109"/>
      </g>
     </g>
    </g>
    <g id="ytick_2">
     <g id="line2d_10">
      <path d="M 251.8225 174.735076 
C 240.242531 174.735076 228.775163 177.016078 218.076667 181.44754 
C 207.378171 185.879002 197.656606 192.374744 189.468331 200.563019 
C 181.280057 208.751293 174.784315 218.472858 170.352852 229.171355 
C 165.92139 239.869851 163.640389 251.337219 163.640389 262.917188 
C 163.640389 274.497156 165.92139 285.964524 170.352852 296.66302 
C 174.784315 307.361517 181.280057 317.083082 189.468331 325.271356 
C 197.656606 333.459631 207.378171 339.955373 218.076667 344.386835 
C 228.775163 348.818297 240.242531 351.099299 251.8225 351.099299 
C 263.402469 351.099299 274.869837 348.818297 285.568333 344.386835 
C 296.266829 339.955373 305.988394 333.459631 314.176669 325.271356 
C 322.364943 317.083082 328.860685 307.361517 333.292148 296.66302 
C 337.72361 285.964524 340.004611 274.497156 340.004611 262.917188 
C 340.004611 251.337219 337.72361 239.869851 333.292148 229.171355 
C 328.860685 218.472858 322.364943 208.751293 314.176669 200.563019 
C 305.988394 192.374744 296.266829 185.879002 285.568333 181.44754 
C 274.869837 177.016078 263.402469 174.735076 251.8225 174.735076 
" clip-path="url(#p3499a41a0d)" style="fill: none; stroke: #b0b0b0; stroke-width: 0.8; stroke-linecap: square"/>
     </g>
     <g id="text_10">
      <!-- −30 -->
      <g transform="translate(218.076667 179.367852)scale(0.1 -0.1)">
       <use xlink:href="#DejaVuSans-2212"/>
       <use xlink:href="#DejaVuSans-33" x="83.789062"/>
       <use xlink:href="#DejaVuSans-30" x="147.412109"/>
      </g>
     </g>
    </g>
    <g id="ytick_3">
     <g id="line2d_11">
      <path d="M 251.8225 130.209113 
C 234.395435 130.209113 217.137827 133.641865 201.037319 140.310914 
C 184.93681 146.979963 170.306516 156.755613 157.983721 169.078408 
C 145.660925 181.401204 135.885275 196.031498 129.216227 212.132006 
C 122.547178 228.232515 119.114426 245.490123 119.114426 262.917188 
C 119.114426 280.344252 122.547178 297.60186 129.216227 313.702369 
C 135.885275 329.802877 145.660925 344.433171 157.983721 356.755967 
C 170.306516 369.078762 184.93681 378.854412 201.037319 385.523461 
C 217.137827 392.19251 234.395435 395.625262 251.8225 395.625262 
C 269.249565 395.625262 286.507173 392.19251 302.607681 385.523461 
C 318.70819 378.854412 333.338484 369.078762 345.661279 356.755967 
C 357.984075 344.433171 367.759725 329.802877 374.428773 313.702369 
C 381.097822 297.60186 384.530574 280.344252 384.530574 262.917188 
C 384.530574 245.490123 381.097822 228.232515 374.428773 212.132006 
C 367.759725 196.031498 357.984075 181.401204 345.661279 169.078408 
C 333.338484 156.755613 318.70819 146.979963 302.607681 140.310914 
C 286.507173 133.641865 269.249565 130.209113 251.8225 130.209113 
" clip-path="url(#p3499a41a0d)" style="fill: none; stroke: #b0b0b0; stroke-width: 0.8; stroke-linecap: square"/>
     </g>
     <g id="text_11">
      <!-- −20 -->
      <g transform="translate(201.037319 138.231227)scale(0.1 -0.1)">
       <use xlink:href="#DejaVuSans-2212"/>
       <use xlink:href="#DejaVuSans-32" x="83.789062"/>
       <use xlink:href="#DejaVuSans-30" x="147.412109"/>
      </g>
     </g>
    </g>
    <g id="ytick_4">
     <g id="line2d_12">
      <path d="M 251.8225 85.68315 
C 228.548339 85.68315 205.500491 90.267653 183.99797 99.174288 
C 162.49545 108.080924 142.956427 121.136481 126.499111 137.593798 
C 110.041794 154.051115 96.986236 173.590137 88.079601 195.092658 
C 79.172965 216.595178 74.588463 239.643027 74.588463 262.917188 
C 74.588463 286.191348 79.172965 309.239197 88.079601 330.741717 
C 96.986236 352.244238 110.041794 371.78326 126.499111 388.240577 
C 142.956427 404.697894 162.49545 417.753451 183.99797 426.660087 
C 205.500491 435.566722 228.548339 440.151225 251.8225 440.151225 
C 275.096661 440.151225 298.144509 435.566722 319.64703 426.660087 
C 341.14955 417.753451 360.688573 404.697894 377.145889 388.240577 
C 393.603206 371.78326 406.658764 352.244238 415.565399 330.741717 
C 424.472035 309.239197 429.056537 286.191348 429.056537 262.917188 
C 429.056537 239.643027 424.472035 216.595178 415.565399 195.092658 
C 406.658764 173.590137 393.603206 154.051115 377.145889 137.593798 
C 360.688573 121.136481 341.14955 108.080924 319.64703 99.174288 
C 298.144509 90.267653 275.096661 85.68315 251.8225 85.68315 
" clip-path="url(#p3499a41a0d)" style="fill: none; stroke: #b0b0b0; stroke-width: 0.8; stroke-linecap: square"/>
     </g>
     <g id="text_12">
      <!-- −10 -->
      <g transform="translate(183.99797 97.094601)scale(0.1 -0.1)">
       <use xlink:href="#DejaVuSans-2212"/>
       <use xlink:href="#DejaVuSans-31" x="83.789062"/>
       <use xlink:href="#DejaVuSans-30" x="147.412109"/>
      </g>
     </g>
    </g>
    <g id="ytick_5">
     <g id="line2d_13">
      <path d="M 251.8225 41.157188 
C 222.701244 41.157188 193.863155 46.89344 166.958622 58.037662 
C 140.054089 69.181885 115.606338 85.51735 95.0145 106.109188 
C 74.422662 126.701026 58.087197 151.148777 46.942975 178.05331 
C 35.798753 204.957842 30.0625 233.795931 30.0625 262.917188 
C 30.0625 292.038444 35.798753 320.876533 46.942975 347.781065 
C 58.087197 374.685598 74.422662 399.133349 95.0145 419.725187 
C 115.606338 440.317025 140.054089 456.65249 166.958622 467.796713 
C 193.863155 478.940935 222.701244 484.677188 251.8225 484.677188 
C 280.943756 484.677188 309.781845 478.940935 336.686378 467.796713 
C 363.590911 456.65249 388.038662 440.317025 408.6305 419.725187 
C 429.222338 399.133349 445.557803 374.685598 456.702025 347.781065 
C 467.846247 320.876533 473.5825 292.038444 473.5825 262.917188 
C 473.5825 233.795931 467.846247 204.957842 456.702025 178.05331 
C 445.557803 151.148777 429.222338 126.701026 408.6305 106.109188 
C 388.038662 85.51735 363.590911 69.181885 336.686378 58.037662 
C 309.781845 46.89344 280.943756 41.157188 251.8225 41.157188 
" clip-path="url(#p3499a41a0d)" style="fill: none; stroke: #b0b0b0; stroke-width: 0.8; stroke-linecap: square"/>
     </g>
     <g id="text_13">
      <!-- 0 -->
      <g transform="translate(166.958622 55.957975)scale(0.1 -0.1)">
       <use xlink:href="#DejaVuSans-30"/>
      </g>
     </g>
    </g>
   </g>
   <g id="line2d_14">
    <path d="M 251.8225 453.406604 
L 255.116304 451.619084 
L 258.356892 450.037698 
L 261.591539 449.32156 
L 268.043662 448.325923 
L 271.281675 448.058868 
L 274.551119 448.026936 
L 277.765874 447.513888 
L 284.13596 446.175925 
L 287.510308 446.515044 
L 290.891469 446.722236 
L 294.604184 448.225017 
L 298.343396 449.50231 
L 302.043265 450.343634 
L 305.881036 451.441706 
L 313.584671 453.001605 
L 317.948021 454.959644 
L 321.878906 455.395582 
L 325.556155 454.999926 
L 336.949523 454.115611 
L 340.664834 453.440187 
L 343.978339 451.864659 
L 347.079962 449.870484 
L 350.031407 447.621278 
L 353.032748 445.505309 
L 362.674121 440.316865 
L 373.252095 436.336621 
L 376.974674 435.174377 
L 380.452289 433.614683 
L 383.844905 431.89816 
L 387.362365 430.294981 
L 390.297211 427.944922 
L 392.814476 425.109902 
L 394.792411 421.70136 
L 396.43342 417.993413 
L 397.6301 413.905377 
L 397.837575 408.932263 
L 398.537981 404.598681 
L 398.526463 399.720846 
L 396.40999 388.605175 
L 393.833572 382.078625 
L 385.955126 367.71308 
L 380.029334 359.527966 
L 374.43381 351.999519 
L 372.676277 347.539913 
L 372.89444 344.581242 
L 378.289426 345.04577 
L 384.816231 346.020894 
L 392.696423 347.56278 
L 397.788503 347.190698 
L 402.040963 346.184641 
L 406.930942 345.389809 
L 416.117854 343.049386 
L 421.63571 342.102388 
L 425.530032 340.256764 
L 433.366363 336.265669 
L 442.471443 328.562883 
L 444.354557 325.474645 
L 445.89817 322.252074 
L 446.887027 318.851041 
L 450.31496 308.742783 
L 450.897218 305.231825 
L 450.129939 294.326 
L 449.404483 290.685524 
L 447.755715 283.510598 
L 446.231175 279.925743 
L 444.11403 272.99476 
L 443.303896 269.603865 
L 442.665769 266.248369 
L 440.925069 259.61639 
L 440.700714 256.321415 
L 441.1082 252.997144 
L 441.905636 249.62528 
L 443.285902 246.16631 
L 444.943805 242.61932 
L 446.296972 239.038725 
L 447.953835 235.352726 
L 449.404306 231.623304 
L 450.261939 227.92696 
L 451.456783 224.112214 
L 452.086214 220.349821 
L 452.891331 209.040957 
L 452.234132 201.645203 
L 451.591609 198.008269 
L 450.815688 194.398338 
L 450.158595 190.728753 
L 449.19276 187.153843 
L 446.862881 180.127458 
L 445.376092 176.741576 
L 443.725614 173.431296 
L 439.660502 167.208945 
L 437.757121 164.053996 
L 435.656807 161.016167 
L 433.457071 158.050419 
L 431.030554 155.238125 
L 427.942108 152.865442 
L 425.16561 150.346856 
L 422.203756 147.993579 
L 418.293725 146.352781 
L 414.818367 144.493758 
L 410.838531 143.090013 
L 405.63188 142.748129 
L 401.376199 141.81099 
L 395.965376 141.966953 
L 389.32623 143.387018 
L 384.32389 143.6124 
L 376.760533 146.410587 
L 366.585554 152.091794 
L 358.144927 156.59476 
L 340.866753 170.709165 
L 316.657237 193.390444 
L 258.888519 255.069578 
L 326.074596 177.499922 
L 335.72319 162.928239 
L 339.535957 154.600088 
L 343.084634 146.106983 
L 343.37412 141.424084 
L 343.925046 136.148908 
L 345.590757 129.002238 
L 345.619644 123.857203 
L 345.39493 118.828282 
L 345.779983 112.553784 
L 345.097617 107.681324 
L 343.928128 103.385561 
L 342.956116 98.507791 
L 341.224689 94.776124 
L 339.60469 90.634939 
L 337.611275 87.024133 
L 332.762412 81.123169 
L 329.972268 78.80787 
L 326.852298 77.211922 
L 323.575931 75.993108 
L 316.596972 74.798462 
L 313.031548 74.535108 
L 309.588702 73.972455 
L 306.116678 73.570888 
L 299.371026 72.210465 
L 296.13265 70.988842 
L 292.910523 69.613237 
L 289.638545 68.370503 
L 286.226653 67.801542 
L 282.759755 67.587044 
L 279.275419 67.57952 
L 275.764451 67.925645 
L 272.263252 68.436424 
L 268.771292 69.191603 
L 265.259457 70.759754 
L 261.824337 72.070768 
L 258.452304 73.064449 
L 255.107134 74.740618 
L 251.8225 75.130497 
L 248.544471 75.119031 
L 245.277541 75.494085 
L 238.785282 76.476286 
L 235.548948 76.909639 
L 229.013571 77.153367 
L 225.731641 77.271082 
L 222.413452 77.235767 
L 218.956986 76.527595 
L 215.343719 75.250126 
L 208.36773 74.693901 
L 204.752242 74.128694 
L 201.173036 73.890815 
L 197.513595 73.519526 
L 193.967775 73.682908 
L 190.49925 74.18363 
L 187.313309 75.568895 
L 184.31996 77.455482 
L 181.096679 78.670124 
L 177.578317 79.156387 
L 174.274691 80.225999 
L 171.297315 82.054661 
L 168.427828 84.076737 
L 165.327141 85.575421 
L 161.980466 86.592268 
L 158.396354 87.208162 
L 152.004975 90.028164 
L 148.383669 90.766064 
L 144.543187 91.234398 
L 140.314343 91.209684 
L 135.818293 90.933877 
L 131.542162 91.139063 
L 126.701732 90.703224 
L 122.442412 91.224011 
L 118.462345 92.223973 
L 114.068969 92.805743 
L 110.371232 94.34213 
L 107.030087 96.35257 
L 103.79958 98.52108 
L 100.743487 100.904781 
L 97.77506 103.396393 
L 95.171923 106.266611 
L 92.782145 109.333702 
L 90.695841 112.664147 
L 87.40855 119.994321 
L 86.092122 123.852889 
L 85.081405 127.892911 
L 83.96431 131.771996 
L 83.994697 136.449867 
L 83.718677 140.782611 
L 82.907548 144.641665 
L 84.723794 158.502327 
L 87.144318 163.968553 
L 90.481835 173.484596 
L 95.664372 179.886438 
L 99.10297 185.1027 
L 102.646577 190.159229 
L 108.433238 196.053676 
L 112.673715 200.964157 
L 117.294389 205.813392 
L 121.016371 210.068081 
L 121.851515 213.026001 
L 125.172109 216.820215 
L 129.716771 220.872813 
L 131.076581 223.68446 
L 131.909096 226.255981 
L 129.62257 227.876921 
L 126.582445 229.359216 
L 120.95242 230.287612 
L 117.478754 231.90149 
L 115.272417 233.892571 
L 112.776102 235.889306 
L 110.935548 238.075017 
L 108.614815 240.235318 
L 104.475261 242.208884 
L 100.521218 244.339726 
L 95.433151 246.480005 
L 89.301733 248.698463 
L 86.422168 251.35127 
L 83.164086 254.078175 
L 79.515653 256.9001 
L 76.814704 259.862415 
L 72.878666 262.917188 
L 69.820741 266.09404 
L 67.937055 269.338609 
L 64.426622 276.021184 
L 63.330986 279.408058 
L 61.601669 282.910202 
L 60.074802 286.460844 
L 59.350854 289.967313 
L 58.295445 293.568862 
L 57.754858 297.136549 
L 57.459389 300.697549 
L 56.519469 304.430128 
L 55.967834 308.1338 
L 55.538225 311.856354 
L 55.342706 315.56379 
L 55.79684 326.609785 
L 56.525703 330.163267 
L 57.436169 333.668026 
L 58.721332 337.041781 
L 60.287969 340.302161 
L 62.216911 343.399985 
L 63.955481 346.560973 
L 66.033052 349.55223 
L 68.413751 352.371611 
L 71.304152 354.89588 
L 74.501596 357.200384 
L 79.032509 358.696244 
L 82.785682 360.51064 
L 86.640525 362.168532 
L 97.229117 363.311304 
L 103.471338 362.98131 
L 111.787292 360.970896 
L 119.661688 358.937638 
L 132.402546 352.906578 
L 156.467958 337.416321 
L 202.230445 303.076042 
L 167.496343 333.675235 
L 144.834717 355.920248 
L 137.741889 365.635831 
L 131.075483 375.515602 
L 126.083006 384.342406 
L 123.98349 390.756197 
L 121.337787 398.038063 
L 120.694365 403.534896 
L 121.148442 408.045431 
L 121.1919 413.190503 
L 122.346148 417.221095 
L 125.534878 424.557972 
L 127.681106 427.658381 
L 132.530523 433.283786 
L 135.424895 435.483734 
L 138.49555 437.425387 
L 142.020864 438.636538 
L 145.579017 439.736037 
L 149.509295 440.128856 
L 153.699138 439.936419 
L 157.625008 440.076903 
L 162.166438 438.877116 
L 166.919883 436.993349 
L 171.297495 435.603618 
L 176.366399 432.394364 
L 180.847535 430.123728 
L 184.535428 429.458534 
L 187.337336 430.906784 
L 189.377436 434.483591 
L 191.254836 438.818456 
L 192.457195 445.624808 
L 194.409089 450.707992 
L 196.575936 455.584853 
L 198.914299 460.373281 
L 201.83416 463.409469 
L 204.880103 466.247049 
L 208.172936 468.272243 
L 211.692157 469.369903 
L 215.363221 469.688034 
L 222.910231 468.638672 
L 226.741558 467.185066 
L 230.526766 465.532563 
L 234.214378 464.178946 
L 241.515859 459.579622 
L 245.015392 457.847244 
L 248.463576 455.349791 
L 248.463576 455.349791 
" clip-path="url(#p3499a41a0d)" style="fill: none; stroke: #ff0000; stroke-width: 1.5; stroke-linecap: square"/>
   </g>
   <g id="line2d_15">
    <path d="M 251.8225 59.043267 
L 248.300311 61.131104 
L 244.860621 63.555047 
L 241.51982 66.330344 
L 238.295159 69.467205 
L 235.204343 72.970779 
L 232.268844 76.876581 
L 229.502485 81.135253 
L 226.92205 85.741278 
L 224.537201 90.644591 
L 218.252467 104.982599 
L 216.082179 108.108848 
L 213.60128 109.620247 
L 210.689693 109.407463 
L 207.366374 107.880251 
L 203.74309 105.656523 
L 199.918853 103.174186 
L 195.993655 100.778449 
L 192.030289 98.639438 
L 188.055386 96.798176 
L 184.115099 95.33549 
L 180.174244 94.124475 
L 176.27947 93.244763 
L 172.426544 92.65201 
L 168.588749 92.262708 
L 164.794305 92.114739 
L 161.030217 92.161737 
L 157.297626 92.389801 
L 153.592326 92.777535 
L 149.917858 93.319383 
L 146.272712 94.002218 
L 142.656949 94.81698 
L 139.07254 95.758497 
L 135.523699 96.825287 
L 132.011971 98.012141 
L 128.541271 99.317471 
L 125.11546 100.739573 
L 121.738343 102.276632 
L 118.419383 103.933544 
L 115.159692 105.704611 
L 111.966029 107.59084 
L 108.842268 109.589661 
L 105.795295 111.70159 
L 102.832129 113.926816 
L 99.953505 116.259004 
L 97.166353 118.697997 
L 94.477709 121.243301 
L 91.884625 123.885314 
L 89.393861 126.623376 
L 87.012262 129.456488 
L 84.739731 132.377822 
L 82.575853 135.380691 
L 80.523502 138.461181 
L 78.589082 141.617842 
L 76.76797 144.841416 
L 75.058806 148.125503 
L 73.467491 151.468609 
L 71.992337 154.864325 
L 70.623664 158.30199 
L 68.219204 165.293584 
L 66.220673 172.393128 
L 64.585967 179.554112 
L 63.252142 186.729817 
L 62.147434 193.881109 
L 58.213679 221.764362 
L 56.996261 228.564065 
L 54.908515 238.73919 
L 50.450445 259.402225 
L 49.132677 266.455152 
L 48.005657 273.598776 
L 47.114239 280.82684 
L 46.502802 288.127276 
L 46.201557 295.484345 
L 46.230831 302.88016 
L 46.60974 310.294286 
L 47.351675 317.70498 
L 48.468563 325.088725 
L 49.974924 332.418882 
L 51.874989 339.669846 
L 54.183584 346.80993 
L 56.908961 353.806863 
L 58.432845 357.239624 
L 60.060846 360.624631 
L 61.803145 363.952271 
L 63.649912 367.222957 
L 65.61464 370.424346 
L 67.68719 373.556844 
L 69.8765 376.609667 
L 72.183425 379.576167 
L 74.608519 382.449527 
L 77.155672 385.220217 
L 79.821068 387.883543 
L 82.611413 390.426888 
L 85.529187 392.839763 
L 88.576325 395.111333 
L 91.754194 397.230444 
L 95.06694 399.182717 
L 98.517905 400.953265 
L 102.112859 402.523686 
L 105.853302 403.878004 
L 109.749298 404.99039 
L 113.803158 405.8404 
L 118.025138 406.397292 
L 122.417653 406.63583 
L 126.993336 406.516714 
L 131.750923 406.012921 
L 136.70441 405.076189 
L 141.807187 403.730366 
L 147.014704 402.00183 
L 157.193577 398.061295 
L 161.508671 396.812946 
L 164.683749 397.099098 
L 166.519724 399.430165 
L 167.286984 403.607913 
L 168.076845 420.419857 
L 168.776535 425.90407 
L 169.79892 431.090448 
L 171.165772 435.886098 
L 172.831261 440.334415 
L 174.772265 444.436166 
L 176.961168 448.205487 
L 179.371762 451.657813 
L 181.980819 454.805628 
L 184.766321 457.662472 
L 187.708868 460.238657 
L 190.791351 462.541082 
L 193.99492 464.585925 
L 197.30783 466.368704 
L 200.712815 467.906938 
L 204.197 469.20589 
L 207.748018 470.271324 
L 211.354018 471.109477 
L 215.002143 471.735806 
L 218.681393 472.161899 
L 222.381642 472.399774 
L 226.093109 472.466258 
L 229.806756 472.382995 
L 237.210553 471.877761 
L 255.438639 470.08564 
L 262.662549 469.757647 
L 269.920366 469.77674 
L 284.643895 470.143319 
L 292.072636 469.986184 
L 295.778487 469.713846 
L 299.46703 469.288321 
L 303.126078 468.684598 
L 306.746278 467.895516 
L 310.31405 466.901465 
L 313.820897 465.704805 
L 317.252895 464.291237 
L 320.600832 462.663967 
L 323.852556 460.818139 
L 326.998639 458.757725 
L 330.029784 456.487008 
L 332.936833 454.010581 
L 335.714397 451.341474 
L 338.359692 448.496794 
L 340.876786 445.505533 
L 343.271576 442.396105 
L 352.211299 429.992206 
L 354.547946 427.312266 
L 357.064307 424.975359 
L 359.821807 423.032744 
L 362.857704 421.491893 
L 366.176229 420.311593 
L 369.744451 419.404901 
L 377.428886 418.028156 
L 385.456059 416.645012 
L 389.477218 415.79824 
L 393.45749 414.802119 
L 397.370285 413.636331 
L 401.200132 412.294819 
L 404.927826 410.769282 
L 408.546476 409.064659 
L 412.052673 407.189083 
L 415.433311 405.141895 
L 418.685292 402.931695 
L 421.812833 400.572645 
L 424.803383 398.064665 
L 427.658418 395.419056 
L 430.379983 392.646793 
L 432.963381 389.753398 
L 435.411476 386.749516 
L 437.716463 383.638139 
L 439.88187 380.429724 
L 441.907921 377.132031 
L 443.795172 373.752662 
L 445.540612 370.296891 
L 447.145326 366.772176 
L 448.606746 363.183769 
L 449.926472 359.53895 
L 451.106402 355.844797 
L 452.14466 352.106359 
L 453.043624 348.330487 
L 453.797693 344.520462 
L 454.413772 340.684691 
L 454.89078 336.827997 
L 455.227781 332.955242 
L 455.428221 329.072696 
L 455.487274 325.183758 
L 455.413007 321.295826 
L 455.200902 317.412266 
L 454.855138 313.53891 
L 454.384451 309.682299 
L 453.780424 305.844669 
L 453.060863 302.033963 
L 451.268963 294.506404 
L 449.07236 287.136425 
L 446.568285 279.955236 
L 438.992936 259.650115 
L 438.017434 256.415117 
L 437.25309 253.199182 
L 436.655488 249.992406 
L 436.313055 246.776355 
L 436.136106 243.545047 
L 436.167691 240.282444 
L 436.36188 236.981869 
L 437.098315 230.248062 
L 439.75645 212.560437 
L 440.524525 205.225189 
L 440.922158 197.804954 
L 440.957821 194.07756 
L 440.87489 190.346774 
L 440.673587 186.616395 
L 440.34195 182.895429 
L 439.884766 179.186472 
L 439.29472 175.497456 
L 438.572891 171.832936 
L 437.720496 168.197427 
L 436.734955 164.597491 
L 435.610075 161.042071 
L 434.355534 157.531691 
L 432.961763 154.077738 
L 431.434922 150.68289 
L 429.773689 147.354334 
L 427.973366 144.101928 
L 426.040704 140.928288 
L 423.971623 137.843528 
L 421.766124 134.855482 
L 419.428064 131.969369 
L 416.951087 129.198694 
L 414.336411 126.551824 
L 411.585633 124.037215 
L 408.694115 121.669351 
L 405.667798 119.454126 
L 402.496802 117.412705 
L 399.188265 115.551422 
L 395.73407 113.892394 
L 392.130468 112.455313 
L 388.377831 111.257128 
L 384.471626 110.321824 
L 380.405885 109.677477 
L 376.170739 109.359901 
L 371.758548 109.406046 
L 367.161278 109.857459 
L 362.352543 110.785635 
L 357.356594 112.198881 
L 352.145568 114.182123 
L 346.697186 116.822983 
L 341.136454 119.984983 
L 330.483513 126.672316 
L 326.539496 128.124159 
L 324.38469 126.447557 
L 323.73035 121.790085 
L 323.766732 108.632284 
L 323.435586 102.071562 
L 322.68786 95.968862 
L 321.531467 90.38144 
L 319.993657 85.325252 
L 318.137196 80.719058 
L 315.991029 76.558247 
L 313.595678 72.798893 
L 310.98034 69.420611 
L 308.174863 66.393143 
L 305.202039 63.702035 
L 302.08229 61.336182 
L 298.837014 59.274956 
L 295.481322 57.518579 
L 292.032705 56.053618 
L 288.50523 54.87909 
L 284.912759 53.993514 
L 281.269554 53.390509 
L 277.588247 53.072017 
L 273.881528 53.039557 
L 270.162133 53.294223 
L 266.442522 53.841128 
L 262.735488 54.684976 
L 259.054298 55.825598 
L 255.411985 57.275743 
L 255.411985 57.275743 
" clip-path="url(#p3499a41a0d)" style="fill: none; stroke-dasharray: 5.55,2.4; stroke-dashoffset: 0; stroke: #0000ff; stroke-width: 1.5"/>
   </g>
   <g id="patch_3">
    <path d="M 251.8225 41.157188 
C 222.701244 41.157188 193.863155 46.89344 166.958622 58.037662 
C 140.054089 69.181885 115.606338 85.51735 95.0145 106.109188 
C 74.422662 126.701026 58.087197 151.148777 46.942975 178.05331 
C 35.798753 204.957842 30.0625 233.795931 30.0625 262.917188 
C 30.0625 292.038444 35.798753 320.876533 46.942975 347.781065 
C 58.087197 374.685598 74.422662 399.133349 95.0145 419.725187 
C 115.606338 440.317025 140.054089 456.65249 166.958622 467.796713 
C 193.863155 478.940935 222.701244 484.677188 251.8225 484.677188 
C 280.943756 484.677188 309.781845 478.940935 336.686378 467.796713 
C 363.590911 456.65249 388.038662 440.317025 408.6305 419.725187 
C 429.222338 399.133349 445.557803 374.685598 456.702025 347.781065 
C 467.846247 320.876533 473.5825 292.038444 473.5825 262.917188 
C 473.5825 233.795931 467.846247 204.957842 456.702025 178.05331 
C 445.557803 151.148777 429.222338 126.701026 408.6305 106.109188 
C 388.038662 85.51735 363.590911 69.181885 336.686378 58.037662 
C 309.781845 46.89344 280.943756 41.157188 251.8225 41.157188 
" style="fill: none; stroke: #000000; stroke-width: 0.8; stroke-linejoin: miter; stroke-linecap: square"/>
   </g>
   <g id="text_14">
    <g id="patch_4">
     <path d="M 384.8785 509.853188 
L 485.369125 509.853188 
Q 488.369125 509.853188 488.369125 506.853188 
L 488.369125 473.945063 
Q 488.369125 470.945063 485.369125 470.945063 
L 384.8785 470.945063 
Q 381.8785 470.945063 381.8785 473.945063 
L 381.8785 506.853188 
Q 381.8785 509.853188 384.8785 509.853188 
z
" style="fill: #ffffff; stroke: #808080; stroke-linejoin: miter"/>
    </g>
    <!-- G_cst: -3.3 dBi -->
    <g transform="translate(384.8785 481.821625)scale(0.1 -0.1)">
     <defs>
      <path id="DejaVuSans-47" d="M 3809 666 
L 3809 1919 
L 2778 1919 
L 2778 2438 
L 4434 2438 
L 4434 434 
Q 4069 175 3628 42 
Q 3188 -91 2688 -91 
Q 1594 -91 976 548 
Q 359 1188 359 2328 
Q 359 3472 976 4111 
Q 1594 4750 2688 4750 
Q 3144 4750 3555 4637 
Q 3966 4525 4313 4306 
L 4313 3634 
Q 3963 3931 3569 4081 
Q 3175 4231 2741 4231 
Q 1884 4231 1454 3753 
Q 1025 3275 1025 2328 
Q 1025 1384 1454 906 
Q 1884 428 2741 428 
Q 3075 428 3337 486 
Q 3600 544 3809 666 
z
" transform="scale(0.015625)"/>
      <path id="DejaVuSans-5f" d="M 3263 -1063 
L 3263 -1509 
L -63 -1509 
L -63 -1063 
L 3263 -1063 
z
" transform="scale(0.015625)"/>
      <path id="DejaVuSans-63" d="M 3122 3366 
L 3122 2828 
Q 2878 2963 2633 3030 
Q 2388 3097 2138 3097 
Q 1578 3097 1268 2742 
Q 959 2388 959 1747 
Q 959 1106 1268 751 
Q 1578 397 2138 397 
Q 2388 397 2633 464 
Q 2878 531 3122 666 
L 3122 134 
Q 2881 22 2623 -34 
Q 2366 -91 2075 -91 
Q 1284 -91 818 406 
Q 353 903 353 1747 
Q 353 2603 823 3093 
Q 1294 3584 2113 3584 
Q 2378 3584 2631 3529 
Q 2884 3475 3122 3366 
z
" transform="scale(0.015625)"/>
      <path id="DejaVuSans-73" d="M 2834 3397 
L 2834 2853 
Q 2591 2978 2328 3040 
Q 2066 3103 1784 3103 
Q 1356 3103 1142 2972 
Q 928 2841 928 2578 
Q 928 2378 1081 2264 
Q 1234 2150 1697 2047 
L 1894 2003 
Q 2506 1872 2764 1633 
Q 3022 1394 3022 966 
Q 3022 478 2636 193 
Q 2250 -91 1575 -91 
Q 1294 -91 989 -36 
Q 684 19 347 128 
L 347 722 
Q 666 556 975 473 
Q 1284 391 1588 391 
Q 1994 391 2212 530 
Q 2431 669 2431 922 
Q 2431 1156 2273 1281 
Q 2116 1406 1581 1522 
L 1381 1569 
Q 847 1681 609 1914 
Q 372 2147 372 2553 
Q 372 3047 722 3315 
Q 1072 3584 1716 3584 
Q 2034 3584 2315 3537 
Q 2597 3491 2834 3397 
z
" transform="scale(0.015625)"/>
      <path id="DejaVuSans-74" d="M 1172 4494 
L 1172 3500 
L 2356 3500 
L 2356 3053 
L 1172 3053 
L 1172 1153 
Q 1172 725 1289 603 
Q 1406 481 1766 481 
L 2356 481 
L 2356 0 
L 1766 0 
Q 1100 0 847 248 
Q 594 497 594 1153 
L 594 3053 
L 172 3053 
L 172 3500 
L 594 3500 
L 594 4494 
L 1172 4494 
z
" transform="scale(0.015625)"/>
      <path id="DejaVuSans-3a" d="M 750 794 
L 1409 794 
L 1409 0 
L 750 0 
L 750 794 
z
M 750 3309 
L 1409 3309 
L 1409 2516 
L 750 2516 
L 750 3309 
z
" transform="scale(0.015625)"/>
      <path id="DejaVuSans-20" transform="scale(0.015625)"/>
      <path id="DejaVuSans-2d" d="M 313 2009 
L 1997 2009 
L 1997 1497 
L 313 1497 
L 313 2009 
z
" transform="scale(0.015625)"/>
      <path id="DejaVuSans-2e" d="M 684 794 
L 1344 794 
L 1344 0 
L 684 0 
L 684 794 
z
" transform="scale(0.015625)"/>
      <path id="DejaVuSans-64" d="M 2906 2969 
L 2906 4863 
L 3481 4863 
L 3481 0 
L 2906 0 
L 2906 525 
Q 2725 213 2448 61 
Q 2172 -91 1784 -91 
Q 1150 -91 751 415 
Q 353 922 353 1747 
Q 353 2572 751 3078 
Q 1150 3584 1784 3584 
Q 2172 3584 2448 3432 
Q 2725 3281 2906 2969 
z
M 947 1747 
Q 947 1113 1208 752 
Q 1469 391 1925 391 
Q 2381 391 2643 752 
Q 2906 1113 2906 1747 
Q 2906 2381 2643 2742 
Q 2381 3103 1925 3103 
Q 1469 3103 1208 2742 
Q 947 2381 947 1747 
z
" transform="scale(0.015625)"/>
      <path id="DejaVuSans-42" d="M 1259 2228 
L 1259 519 
L 2272 519 
Q 2781 519 3026 730 
Q 3272 941 3272 1375 
Q 3272 1813 3026 2020 
Q 2781 2228 2272 2228 
L 1259 2228 
z
M 1259 4147 
L 1259 2741 
L 2194 2741 
Q 2656 2741 2882 2914 
Q 3109 3088 3109 3444 
Q 3109 3797 2882 3972 
Q 2656 4147 2194 4147 
L 1259 4147 
z
M 628 4666 
L 2241 4666 
Q 2963 4666 3353 4366 
Q 3744 4066 3744 3513 
Q 3744 3084 3544 2831 
Q 3344 2578 2956 2516 
Q 3422 2416 3680 2098 
Q 3938 1781 3938 1306 
Q 3938 681 3513 340 
Q 3088 0 2303 0 
L 628 0 
L 628 4666 
z
" transform="scale(0.015625)"/>
      <path id="DejaVuSans-69" d="M 603 3500 
L 1178 3500 
L 1178 0 
L 603 0 
L 603 3500 
z
M 603 4863 
L 1178 4863 
L 1178 4134 
L 603 4134 
L 603 4863 
z
" transform="scale(0.015625)"/>
     </defs>
     <use xlink:href="#DejaVuSans-47"/>
     <use xlink:href="#DejaVuSans-5f" x="77.490234"/>
     <use xlink:href="#DejaVuSans-63" x="127.490234"/>
     <use xlink:href="#DejaVuSans-73" x="182.470703"/>
     <use xlink:href="#DejaVuSans-74" x="234.570312"/>
     <use xlink:href="#DejaVuSans-3a" x="273.779297"/>
     <use xlink:href="#DejaVuSans-20" x="307.470703"/>
     <use xlink:href="#DejaVuSans-2d" x="339.257812"/>
     <use xlink:href="#DejaVuSans-33" x="375.341797"/>
     <use xlink:href="#DejaVuSans-2e" x="438.964844"/>
     <use xlink:href="#DejaVuSans-33" x="470.751953"/>
     <use xlink:href="#DejaVuSans-20" x="534.375"/>
     <use xlink:href="#DejaVuSans-64" x="566.162109"/>
     <use xlink:href="#DejaVuSans-42" x="629.638672"/>
     <use xlink:href="#DejaVuSans-69" x="698.242188"/>
    </g>
    <!-- G_inpe: -5.4 dBi -->
    <g transform="translate(384.8785 493.297563)scale(0.1 -0.1)">
     <defs>
      <path id="DejaVuSans-6e" d="M 3513 2113 
L 3513 0 
L 2938 0 
L 2938 2094 
Q 2938 2591 2744 2837 
Q 2550 3084 2163 3084 
Q 1697 3084 1428 2787 
Q 1159 2491 1159 1978 
L 1159 0 
L 581 0 
L 581 3500 
L 1159 3500 
L 1159 2956 
Q 1366 3272 1645 3428 
Q 1925 3584 2291 3584 
Q 2894 3584 3203 3211 
Q 3513 2838 3513 2113 
z
" transform="scale(0.015625)"/>
      <path id="DejaVuSans-70" d="M 1159 525 
L 1159 -1331 
L 581 -1331 
L 581 3500 
L 1159 3500 
L 1159 2969 
Q 1341 3281 1617 3432 
Q 1894 3584 2278 3584 
Q 2916 3584 3314 3078 
Q 3713 2572 3713 1747 
Q 3713 922 3314 415 
Q 2916 -91 2278 -91 
Q 1894 -91 1617 61 
Q 1341 213 1159 525 
z
M 3116 1747 
Q 3116 2381 2855 2742 
Q 2594 3103 2138 3103 
Q 1681 3103 1420 2742 
Q 1159 2381 1159 1747 
Q 1159 1113 1420 752 
Q 1681 391 2138 391 
Q 2594 391 2855 752 
Q 3116 1113 3116 1747 
z
" transform="scale(0.015625)"/>
      <path id="DejaVuSans-65" d="M 3597 1894 
L 3597 1613 
L 953 1613 
Q 991 1019 1311 708 
Q 1631 397 2203 397 
Q 2534 397 2845 478 
Q 3156 559 3463 722 
L 3463 178 
Q 3153 47 2828 -22 
Q 2503 -91 2169 -91 
Q 1331 -91 842 396 
Q 353 884 353 1716 
Q 353 2575 817 3079 
Q 1281 3584 2069 3584 
Q 2775 3584 3186 3129 
Q 3597 2675 3597 1894 
z
M 3022 2063 
Q 3016 2534 2758 2815 
Q 2500 3097 2075 3097 
Q 1594 3097 1305 2825 
Q 1016 2553 972 2059 
L 3022 2063 
z
" transform="scale(0.015625)"/>
     </defs>
     <use xlink:href="#DejaVuSans-47"/>
     <use xlink:href="#DejaVuSans-5f" x="77.490234"/>
     <use xlink:href="#DejaVuSans-69" x="127.490234"/>
     <use xlink:href="#DejaVuSans-6e" x="155.273438"/>
     <use xlink:href="#DejaVuSans-70" x="218.652344"/>
     <use xlink:href="#DejaVuSans-65" x="282.128906"/>
     <use xlink:href="#DejaVuSans-3a" x="343.652344"/>
     <use xlink:href="#DejaVuSans-20" x="377.34375"/>
     <use xlink:href="#DejaVuSans-2d" x="409.130859"/>
     <use xlink:href="#DejaVuSans-35" x="445.214844"/>
     <use xlink:href="#DejaVuSans-2e" x="508.837891"/>
     <use xlink:href="#DejaVuSans-34" x="540.625"/>
     <use xlink:href="#DejaVuSans-20" x="604.248047"/>
     <use xlink:href="#DejaVuSans-64" x="636.035156"/>
     <use xlink:href="#DejaVuSans-42" x="699.511719"/>
     <use xlink:href="#DejaVuSans-69" x="768.115234"/>
    </g>
    <!-- Pearson Coef: 0.001 -->
    <g transform="translate(384.8785 504.7735)scale(0.1 -0.1)">
     <defs>
      <path id="DejaVuSans-50" d="M 1259 4147 
L 1259 2394 
L 2053 2394 
Q 2494 2394 2734 2622 
Q 2975 2850 2975 3272 
Q 2975 3691 2734 3919 
Q 2494 4147 2053 4147 
L 1259 4147 
z
M 628 4666 
L 2053 4666 
Q 2838 4666 3239 4311 
Q 3641 3956 3641 3272 
Q 3641 2581 3239 2228 
Q 2838 1875 2053 1875 
L 1259 1875 
L 1259 0 
L 628 0 
L 628 4666 
z
" transform="scale(0.015625)"/>
      <path id="DejaVuSans-61" d="M 2194 1759 
Q 1497 1759 1228 1600 
Q 959 1441 959 1056 
Q 959 750 1161 570 
Q 1363 391 1709 391 
Q 2188 391 2477 730 
Q 2766 1069 2766 1631 
L 2766 1759 
L 2194 1759 
z
M 3341 1997 
L 3341 0 
L 2766 0 
L 2766 531 
Q 2569 213 2275 61 
Q 1981 -91 1556 -91 
Q 1019 -91 701 211 
Q 384 513 384 1019 
Q 384 1609 779 1909 
Q 1175 2209 1959 2209 
L 2766 2209 
L 2766 2266 
Q 2766 2663 2505 2880 
Q 2244 3097 1772 3097 
Q 1472 3097 1187 3025 
Q 903 2953 641 2809 
L 641 3341 
Q 956 3463 1253 3523 
Q 1550 3584 1831 3584 
Q 2591 3584 2966 3190 
Q 3341 2797 3341 1997 
z
" transform="scale(0.015625)"/>
      <path id="DejaVuSans-72" d="M 2631 2963 
Q 2534 3019 2420 3045 
Q 2306 3072 2169 3072 
Q 1681 3072 1420 2755 
Q 1159 2438 1159 1844 
L 1159 0 
L 581 0 
L 581 3500 
L 1159 3500 
L 1159 2956 
Q 1341 3275 1631 3429 
Q 1922 3584 2338 3584 
Q 2397 3584 2469 3576 
Q 2541 3569 2628 3553 
L 2631 2963 
z
" transform="scale(0.015625)"/>
      <path id="DejaVuSans-6f" d="M 1959 3097 
Q 1497 3097 1228 2736 
Q 959 2375 959 1747 
Q 959 1119 1226 758 
Q 1494 397 1959 397 
Q 2419 397 2687 759 
Q 2956 1122 2956 1747 
Q 2956 2369 2687 2733 
Q 2419 3097 1959 3097 
z
M 1959 3584 
Q 2709 3584 3137 3096 
Q 3566 2609 3566 1747 
Q 3566 888 3137 398 
Q 2709 -91 1959 -91 
Q 1206 -91 779 398 
Q 353 888 353 1747 
Q 353 2609 779 3096 
Q 1206 3584 1959 3584 
z
" transform="scale(0.015625)"/>
      <path id="DejaVuSans-43" d="M 4122 4306 
L 4122 3641 
Q 3803 3938 3442 4084 
Q 3081 4231 2675 4231 
Q 1875 4231 1450 3742 
Q 1025 3253 1025 2328 
Q 1025 1406 1450 917 
Q 1875 428 2675 428 
Q 3081 428 3442 575 
Q 3803 722 4122 1019 
L 4122 359 
Q 3791 134 3420 21 
Q 3050 -91 2638 -91 
Q 1578 -91 968 557 
Q 359 1206 359 2328 
Q 359 3453 968 4101 
Q 1578 4750 2638 4750 
Q 3056 4750 3426 4639 
Q 3797 4528 4122 4306 
z
" transform="scale(0.015625)"/>
      <path id="DejaVuSans-66" d="M 2375 4863 
L 2375 4384 
L 1825 4384 
Q 1516 4384 1395 4259 
Q 1275 4134 1275 3809 
L 1275 3500 
L 2222 3500 
L 2222 3053 
L 1275 3053 
L 1275 0 
L 697 0 
L 697 3053 
L 147 3053 
L 147 3500 
L 697 3500 
L 697 3744 
Q 697 4328 969 4595 
Q 1241 4863 1831 4863 
L 2375 4863 
z
" transform="scale(0.015625)"/>
     </defs>
     <use xlink:href="#DejaVuSans-50"/>
     <use xlink:href="#DejaVuSans-65" x="56.677734"/>
     <use xlink:href="#DejaVuSans-61" x="118.201172"/>
     <use xlink:href="#DejaVuSans-72" x="179.480469"/>
     <use xlink:href="#DejaVuSans-73" x="220.59375"/>
     <use xlink:href="#DejaVuSans-6f" x="272.693359"/>
     <use xlink:href="#DejaVuSans-6e" x="333.875"/>
     <use xlink:href="#DejaVuSans-20" x="397.253906"/>
     <use xlink:href="#DejaVuSans-43" x="429.041016"/>
     <use xlink:href="#DejaVuSans-6f" x="498.865234"/>
     <use xlink:href="#DejaVuSans-65" x="560.046875"/>
     <use xlink:href="#DejaVuSans-66" x="621.570312"/>
     <use xlink:href="#DejaVuSans-3a" x="653.150391"/>
     <use xlink:href="#DejaVuSans-20" x="686.841797"/>
     <use xlink:href="#DejaVuSans-30" x="718.628906"/>
     <use xlink:href="#DejaVuSans-2e" x="782.251953"/>
     <use xlink:href="#DejaVuSans-30" x="814.039062"/>
     <use xlink:href="#DejaVuSans-30" x="877.662109"/>
     <use xlink:href="#DejaVuSans-31" x="941.285156"/>
    </g>
   </g>
   <g id="text_15">
    <g id="patch_5">
     <path d="M 52.2385 56.370938 
L 129.496 56.370938 
Q 133.096 56.370938 133.096 52.770938 
L 133.096 41.157188 
Q 133.096 37.557188 129.496 37.557188 
L 52.2385 37.557188 
Q 48.6385 37.557188 48.6385 41.157188 
L 48.6385 52.770938 
Q 48.6385 56.370938 52.2385 56.370938 
z
" style="fill: #ffffff; stroke: #808080; stroke-linejoin: miter"/>
    </g>
    <!-- Freq: 14 GHz -->
    <g transform="translate(52.2385 50.275313)scale(0.12 -0.12)">
     <defs>
      <path id="DejaVuSans-46" d="M 628 4666 
L 3309 4666 
L 3309 4134 
L 1259 4134 
L 1259 2759 
L 3109 2759 
L 3109 2228 
L 1259 2228 
L 1259 0 
L 628 0 
L 628 4666 
z
" transform="scale(0.015625)"/>
      <path id="DejaVuSans-71" d="M 947 1747 
Q 947 1113 1208 752 
Q 1469 391 1925 391 
Q 2381 391 2643 752 
Q 2906 1113 2906 1747 
Q 2906 2381 2643 2742 
Q 2381 3103 1925 3103 
Q 1469 3103 1208 2742 
Q 947 2381 947 1747 
z
M 2906 525 
Q 2725 213 2448 61 
Q 2172 -91 1784 -91 
Q 1150 -91 751 415 
Q 353 922 353 1747 
Q 353 2572 751 3078 
Q 1150 3584 1784 3584 
Q 2172 3584 2448 3432 
Q 2725 3281 2906 2969 
L 2906 3500 
L 3481 3500 
L 3481 -1331 
L 2906 -1331 
L 2906 525 
z
" transform="scale(0.015625)"/>
      <path id="DejaVuSans-48" d="M 628 4666 
L 1259 4666 
L 1259 2753 
L 3553 2753 
L 3553 4666 
L 4184 4666 
L 4184 0 
L 3553 0 
L 3553 2222 
L 1259 2222 
L 1259 0 
L 628 0 
L 628 4666 
z
" transform="scale(0.015625)"/>
      <path id="DejaVuSans-7a" d="M 353 3500 
L 3084 3500 
L 3084 2975 
L 922 459 
L 3084 459 
L 3084 0 
L 275 0 
L 275 525 
L 2438 3041 
L 353 3041 
L 353 3500 
z
" transform="scale(0.015625)"/>
     </defs>
     <use xlink:href="#DejaVuSans-46"/>
     <use xlink:href="#DejaVuSans-72" x="50.269531"/>
     <use xlink:href="#DejaVuSans-65" x="89.132812"/>
     <use xlink:href="#DejaVuSans-71" x="150.65625"/>
     <use xlink:href="#DejaVuSans-3a" x="214.132812"/>
     <use xlink:href="#DejaVuSans-20" x="247.824219"/>
     <use xlink:href="#DejaVuSans-31" x="279.611328"/>
     <use xlink:href="#DejaVuSans-34" x="343.234375"/>
     <use xlink:href="#DejaVuSans-20" x="406.857422"/>
     <use xlink:href="#DejaVuSans-47" x="438.644531"/>
     <use xlink:href="#DejaVuSans-48" x="516.134766"/>
     <use xlink:href="#DejaVuSans-7a" x="591.330078"/>
    </g>
   </g>
   <g id="text_16">
    <!-- Radiation Diagram - 1AVVF14 -->
    <g transform="translate(162.985938 16.318125)scale(0.12 -0.12)">
     <defs>
      <path id="DejaVuSans-52" d="M 2841 2188 
Q 3044 2119 3236 1894 
Q 3428 1669 3622 1275 
L 4263 0 
L 3584 0 
L 2988 1197 
Q 2756 1666 2539 1819 
Q 2322 1972 1947 1972 
L 1259 1972 
L 1259 0 
L 628 0 
L 628 4666 
L 2053 4666 
Q 2853 4666 3247 4331 
Q 3641 3997 3641 3322 
Q 3641 2881 3436 2590 
Q 3231 2300 2841 2188 
z
M 1259 4147 
L 1259 2491 
L 2053 2491 
Q 2509 2491 2742 2702 
Q 2975 2913 2975 3322 
Q 2975 3731 2742 3939 
Q 2509 4147 2053 4147 
L 1259 4147 
z
" transform="scale(0.015625)"/>
      <path id="DejaVuSans-44" d="M 1259 4147 
L 1259 519 
L 2022 519 
Q 2988 519 3436 956 
Q 3884 1394 3884 2338 
Q 3884 3275 3436 3711 
Q 2988 4147 2022 4147 
L 1259 4147 
z
M 628 4666 
L 1925 4666 
Q 3281 4666 3915 4102 
Q 4550 3538 4550 2338 
Q 4550 1131 3912 565 
Q 3275 0 1925 0 
L 628 0 
L 628 4666 
z
" transform="scale(0.015625)"/>
      <path id="DejaVuSans-67" d="M 2906 1791 
Q 2906 2416 2648 2759 
Q 2391 3103 1925 3103 
Q 1463 3103 1205 2759 
Q 947 2416 947 1791 
Q 947 1169 1205 825 
Q 1463 481 1925 481 
Q 2391 481 2648 825 
Q 2906 1169 2906 1791 
z
M 3481 434 
Q 3481 -459 3084 -895 
Q 2688 -1331 1869 -1331 
Q 1566 -1331 1297 -1286 
Q 1028 -1241 775 -1147 
L 775 -588 
Q 1028 -725 1275 -790 
Q 1522 -856 1778 -856 
Q 2344 -856 2625 -561 
Q 2906 -266 2906 331 
L 2906 616 
Q 2728 306 2450 153 
Q 2172 0 1784 0 
Q 1141 0 747 490 
Q 353 981 353 1791 
Q 353 2603 747 3093 
Q 1141 3584 1784 3584 
Q 2172 3584 2450 3431 
Q 2728 3278 2906 2969 
L 2906 3500 
L 3481 3500 
L 3481 434 
z
" transform="scale(0.015625)"/>
      <path id="DejaVuSans-6d" d="M 3328 2828 
Q 3544 3216 3844 3400 
Q 4144 3584 4550 3584 
Q 5097 3584 5394 3201 
Q 5691 2819 5691 2113 
L 5691 0 
L 5113 0 
L 5113 2094 
Q 5113 2597 4934 2840 
Q 4756 3084 4391 3084 
Q 3944 3084 3684 2787 
Q 3425 2491 3425 1978 
L 3425 0 
L 2847 0 
L 2847 2094 
Q 2847 2600 2669 2842 
Q 2491 3084 2119 3084 
Q 1678 3084 1418 2786 
Q 1159 2488 1159 1978 
L 1159 0 
L 581 0 
L 581 3500 
L 1159 3500 
L 1159 2956 
Q 1356 3278 1631 3431 
Q 1906 3584 2284 3584 
Q 2666 3584 2933 3390 
Q 3200 3197 3328 2828 
z
" transform="scale(0.015625)"/>
      <path id="DejaVuSans-41" d="M 2188 4044 
L 1331 1722 
L 3047 1722 
L 2188 4044 
z
M 1831 4666 
L 2547 4666 
L 4325 0 
L 3669 0 
L 3244 1197 
L 1141 1197 
L 716 0 
L 50 0 
L 1831 4666 
z
" transform="scale(0.015625)"/>
      <path id="DejaVuSans-56" d="M 1831 0 
L 50 4666 
L 709 4666 
L 2188 738 
L 3669 4666 
L 4325 4666 
L 2547 0 
L 1831 0 
z
" transform="scale(0.015625)"/>
     </defs>
     <use xlink:href="#DejaVuSans-52"/>
     <use xlink:href="#DejaVuSans-61" x="67.232422"/>
     <use xlink:href="#DejaVuSans-64" x="128.511719"/>
     <use xlink:href="#DejaVuSans-69" x="191.988281"/>
     <use xlink:href="#DejaVuSans-61" x="219.771484"/>
     <use xlink:href="#DejaVuSans-74" x="281.050781"/>
     <use xlink:href="#DejaVuSans-69" x="320.259766"/>
     <use xlink:href="#DejaVuSans-6f" x="348.042969"/>
     <use xlink:href="#DejaVuSans-6e" x="409.224609"/>
     <use xlink:href="#DejaVuSans-20" x="472.603516"/>
     <use xlink:href="#DejaVuSans-44" x="504.390625"/>
     <use xlink:href="#DejaVuSans-69" x="581.392578"/>
     <use xlink:href="#DejaVuSans-61" x="609.175781"/>
     <use xlink:href="#DejaVuSans-67" x="670.455078"/>
     <use xlink:href="#DejaVuSans-72" x="733.931641"/>
     <use xlink:href="#DejaVuSans-61" x="775.044922"/>
     <use xlink:href="#DejaVuSans-6d" x="836.324219"/>
     <use xlink:href="#DejaVuSans-20" x="933.736328"/>
     <use xlink:href="#DejaVuSans-2d" x="965.523438"/>
     <use xlink:href="#DejaVuSans-20" x="1001.607422"/>
     <use xlink:href="#DejaVuSans-31" x="1033.394531"/>
     <use xlink:href="#DejaVuSans-41" x="1097.017578"/>
     <use xlink:href="#DejaVuSans-56" x="1159.050781"/>
     <use xlink:href="#DejaVuSans-56" x="1227.458984"/>
     <use xlink:href="#DejaVuSans-46" x="1295.867188"/>
     <use xlink:href="#DejaVuSans-31" x="1353.386719"/>
     <use xlink:href="#DejaVuSans-34" x="1417.009766"/>
    </g>
   </g>
   <g id="legend_1">
    <g id="patch_6">
     <path d="M 411.802813 78.513438 
L 466.5825 78.513438 
Q 468.5825 78.513438 468.5825 76.513438 
L 468.5825 48.157188 
Q 468.5825 46.157188 466.5825 46.157188 
L 411.802813 46.157188 
Q 409.802813 46.157188 409.802813 48.157188 
L 409.802813 76.513438 
Q 409.802813 78.513438 411.802813 78.513438 
z
" style="fill: #ffffff; opacity: 0.8; stroke: #cccccc; stroke-linejoin: miter"/>
    </g>
    <g id="line2d_16">
     <path d="M 413.802813 54.255625 
L 423.802813 54.255625 
L 433.802813 54.255625 
" style="fill: none; stroke: #ff0000; stroke-width: 1.5; stroke-linecap: square"/>
    </g>
    <g id="text_17">
     <!-- INPE -->
     <g transform="translate(441.802813 57.755625)scale(0.1 -0.1)">
      <defs>
       <path id="DejaVuSans-49" d="M 628 4666 
L 1259 4666 
L 1259 0 
L 628 0 
L 628 4666 
z
" transform="scale(0.015625)"/>
       <path id="DejaVuSans-4e" d="M 628 4666 
L 1478 4666 
L 3547 763 
L 3547 4666 
L 4159 4666 
L 4159 0 
L 3309 0 
L 1241 3903 
L 1241 0 
L 628 0 
L 628 4666 
z
" transform="scale(0.015625)"/>
       <path id="DejaVuSans-45" d="M 628 4666 
L 3578 4666 
L 3578 4134 
L 1259 4134 
L 1259 2753 
L 3481 2753 
L 3481 2222 
L 1259 2222 
L 1259 531 
L 3634 531 
L 3634 0 
L 628 0 
L 628 4666 
z
" transform="scale(0.015625)"/>
      </defs>
      <use xlink:href="#DejaVuSans-49"/>
      <use xlink:href="#DejaVuSans-4e" x="29.492188"/>
      <use xlink:href="#DejaVuSans-50" x="104.296875"/>
      <use xlink:href="#DejaVuSans-45" x="164.599609"/>
     </g>
    </g>
    <g id="line2d_17">
     <path d="M 413.802813 68.93375 
L 423.802813 68.93375 
L 433.802813 68.93375 
" style="fill: none; stroke-dasharray: 5.55,2.4; stroke-dashoffset: 0; stroke: #0000ff; stroke-width: 1.5"/>
    </g>
    <g id="text_18">
     <!-- CST -->
     <g transform="translate(441.802813 72.43375)scale(0.1 -0.1)">
      <defs>
       <path id="DejaVuSans-53" d="M 3425 4513 
L 3425 3897 
Q 3066 4069 2747 4153 
Q 2428 4238 2131 4238 
Q 1616 4238 1336 4038 
Q 1056 3838 1056 3469 
Q 1056 3159 1242 3001 
Q 1428 2844 1947 2747 
L 2328 2669 
Q 3034 2534 3370 2195 
Q 3706 1856 3706 1288 
Q 3706 609 3251 259 
Q 2797 -91 1919 -91 
Q 1588 -91 1214 -16 
Q 841 59 441 206 
L 441 856 
Q 825 641 1194 531 
Q 1563 422 1919 422 
Q 2459 422 2753 634 
Q 3047 847 3047 1241 
Q 3047 1584 2836 1778 
Q 2625 1972 2144 2069 
L 1759 2144 
Q 1053 2284 737 2584 
Q 422 2884 422 3419 
Q 422 4038 858 4394 
Q 1294 4750 2059 4750 
Q 2388 4750 2728 4690 
Q 3069 4631 3425 4513 
z
" transform="scale(0.015625)"/>
       <path id="DejaVuSans-54" d="M -19 4666 
L 3928 4666 
L 3928 4134 
L 2272 4134 
L 2272 0 
L 1638 0 
L 1638 4134 
L -19 4134 
L -19 4666 
z
" transform="scale(0.015625)"/>
      </defs>
      <use xlink:href="#DejaVuSans-43"/>
      <use xlink:href="#DejaVuSans-53" x="69.824219"/>
      <use xlink:href="#DejaVuSans-54" x="133.300781"/>
     </g>
    </g>
   </g>
  </g>
 </g>
 <defs>
  <clipPath id="p3499a41a0d">
   <path d="M 473.5825 262.917188 
C 473.5825 233.795931 467.846247 204.957842 456.702025 178.05331 
C 445.557803 151.148777 429.222338 126.701026 408.6305 106.109188 
C 388.038662 85.51735 363.590911 69.181885 336.686378 58.037662 
C 309.781845 46.89344 280.943756 41.157188 251.8225 41.157188 
C 222.701244 41.157188 193.863155 46.89344 166.958622 58.037662 
C 140.054089 69.181885 115.606338 85.51735 95.0145 106.109188 
C 74.422662 126.701026 58.087197 151.148777 46.942975 178.05331 
C 35.798753 204.957842 30.0625 233.795931 30.0625 262.917188 
C 30.0625 292.038444 35.798753 320.876533 46.942975 347.781065 
C 58.087197 374.685598 74.422662 399.133349 95.0145 419.725187 
C 115.606338 440.317025 140.054089 456.65249 166.958622 467.796713 
C 193.863155 478.940935 222.701244 484.677188 251.8225 484.677188 
C 280.943756 484.677188 309.781845 478.940935 336.686378 467.796713 
C 363.590911 456.65249 388.038662 440.317025 408.6305 419.725187 
C 429.222338 399.133349 445.557803 374.685598 456.702025 347.781065 
C 467.846247 320.876533 473.5825 292.038444 473.5825 262.917188 
M 251.8225 262.917188 
C 251.8225 262.917188 251.8225 262.917188 251.8225 262.917188 
C 251.8225 262.917188 251.8225 262.917188 251.8225 262.917188 
C 251.8225 262.917188 251.8225 262.917188 251.8225 262.917188 
C 251.8225 262.917188 251.8225 262.917188 251.8225 262.917188 
C 251.8225 262.917188 251.8225 262.917188 251.8225 262.917188 
C 251.8225 262.917188 251.8225 262.917188 251.8225 262.917188 
C 251.8225 262.917188 251.8225 262.917188 251.8225 262.917188 
C 251.8225 262.917188 251.8225 262.917188 251.8225 262.917188 
C 251.8225 262.917188 251.8225 262.917188 251.8225 262.917188 
C 251.8225 262.917188 251.8225 262.917188 251.8225 262.917188 
C 251.8225 262.917188 251.8225 262.917188 251.8225 262.917188 
C 251.8225 262.917188 251.8225 262.917188 251.8225 262.917188 
C 251.8225 262.917188 251.8225 262.917188 251.8225 262.917188 
C 251.8225 262.917188 251.8225 262.917188 251.8225 262.917188 
C 251.8225 262.917188 251.8225 262.917188 251.8225 262.917188 
C 251.8225 262.917188 251.8225 262.917188 251.8225 262.917188 
M 473.5825 262.917188 
z
"/>
  </clipPath>
 </defs>
</svg>
