<?xml version="1.0" encoding="utf-8" standalone="no"?>
<!DOCTYPE svg PUBLIC "-//W3C//DTD SVG 1.1//EN"
  "http://www.w3.org/Graphics/SVG/1.1/DTD/svg11.dtd">
<svg xmlns:xlink="http://www.w3.org/1999/xlink" width="506.82625pt" height="514.053188pt" viewBox="0 0 506.82625 514.053188" xmlns="http://www.w3.org/2000/svg" version="1.1">
 <metadata>
  <rdf:RDF xmlns:dc="http://purl.org/dc/elements/1.1/" xmlns:cc="http://creativecommons.org/ns#" xmlns:rdf="http://www.w3.org/1999/02/22-rdf-syntax-ns#">
   <cc:Work>
    <dc:type rdf:resource="http://purl.org/dc/dcmitype/StillImage"/>
    <dc:date>2023-11-04T17:59:37.093733</dc:date>
    <dc:format>image/svg+xml</dc:format>
    <dc:creator>
     <cc:Agent>
      <dc:title>Matplotlib v3.5.1, https://matplotlib.org/</dc:title>
     </cc:Agent>
    </dc:creator>
   </cc:Work>
  </rdf:RDF>
 </metadata>
 <defs>
  <style type="text/css">*{stroke-linejoin: round; stroke-linecap: butt}</style>
 </defs>
 <g id="figure_1">
  <g id="patch_1">
   <path d="M 0 514.053188 
L 506.82625 514.053188 
L 506.82625 0 
L 0 0 
z
" style="fill: #ffffff"/>
  </g>
  <g id="axes_1">
   <g id="patch_2">
    <path d="M 473.5825 262.917188 
C 473.5825 233.795931 467.846247 204.957842 456.702025 178.05331 
C 445.557803 151.148777 429.222338 126.701026 408.6305 106.109188 
C 388.038662 85.51735 363.590911 69.181885 336.686378 58.037662 
C 309.781845 46.89344 280.943756 41.157188 251.8225 41.157188 
C 222.701244 41.157188 193.863155 46.89344 166.958622 58.037662 
C 140.054089 69.181885 115.606338 85.51735 95.0145 106.109188 
C 74.422662 126.701026 58.087197 151.148777 46.942975 178.05331 
C 35.798753 204.957842 30.0625 233.795931 30.0625 262.917188 
C 30.0625 292.038444 35.798753 320.876533 46.942975 347.781065 
C 58.087197 374.685598 74.422662 399.133349 95.0145 419.725187 
C 115.606338 440.317025 140.054089 456.65249 166.958622 467.796713 
C 193.863155 478.940935 222.701244 484.677188 251.8225 484.677188 
C 280.943756 484.677188 309.781845 478.940935 336.686378 467.796713 
C 363.590911 456.65249 388.038662 440.317025 408.6305 419.725187 
C 429.222338 399.133349 445.557803 374.685598 456.702025 347.781065 
C 467.846247 320.876533 473.5825 292.038444 473.5825 262.917188 
M 251.8225 262.917188 
C 251.8225 262.917188 251.8225 262.917188 251.8225 262.917188 
C 251.8225 262.917188 251.8225 262.917188 251.8225 262.917188 
C 251.8225 262.917188 251.8225 262.917188 251.8225 262.917188 
C 251.8225 262.917188 251.8225 262.917188 251.8225 262.917188 
C 251.8225 262.917188 251.8225 262.917188 251.8225 262.917188 
C 251.8225 262.917188 251.8225 262.917188 251.8225 262.917188 
C 251.8225 262.917188 251.8225 262.917188 251.8225 262.917188 
C 251.8225 262.917188 251.8225 262.917188 251.8225 262.917188 
C 251.8225 262.917188 251.8225 262.917188 251.8225 262.917188 
C 251.8225 262.917188 251.8225 262.917188 251.8225 262.917188 
C 251.8225 262.917188 251.8225 262.917188 251.8225 262.917188 
C 251.8225 262.917188 251.8225 262.917188 251.8225 262.917188 
C 251.8225 262.917188 251.8225 262.917188 251.8225 262.917188 
C 251.8225 262.917188 251.8225 262.917188 251.8225 262.917188 
C 251.8225 262.917188 251.8225 262.917188 251.8225 262.917188 
C 251.8225 262.917188 251.8225 262.917188 251.8225 262.917188 
M 473.5825 262.917188 
z
" style="fill: #ffffff"/>
   </g>
   <g id="matplotlib.axis_1">
    <g id="xtick_1">
     <g id="line2d_1">
      <path d="M 251.8225 262.917188 
L 251.8225 41.157188 
" clip-path="url(#pcaee8e693a)" style="fill: none; stroke: #b0b0b0; stroke-width: 0.8; stroke-linecap: square"/>
     </g>
     <g id="text_1">
      <!-- 0° -->
      <g transform="translate(246.14125 29.916563)scale(0.1 -0.1)">
       <defs>
        <path id="DejaVuSans-30" d="M 2034 4250 
Q 1547 4250 1301 3770 
Q 1056 3291 1056 2328 
Q 1056 1369 1301 889 
Q 1547 409 2034 409 
Q 2525 409 2770 889 
Q 3016 1369 3016 2328 
Q 3016 3291 2770 3770 
Q 2525 4250 2034 4250 
z
M 2034 4750 
Q 2819 4750 3233 4129 
Q 3647 3509 3647 2328 
Q 3647 1150 3233 529 
Q 2819 -91 2034 -91 
Q 1250 -91 836 529 
Q 422 1150 422 2328 
Q 422 3509 836 4129 
Q 1250 4750 2034 4750 
z
" transform="scale(0.015625)"/>
        <path id="DejaVuSans-b0" d="M 1600 4347 
Q 1350 4347 1178 4173 
Q 1006 4000 1006 3750 
Q 1006 3503 1178 3333 
Q 1350 3163 1600 3163 
Q 1850 3163 2022 3333 
Q 2194 3503 2194 3750 
Q 2194 3997 2020 4172 
Q 1847 4347 1600 4347 
z
M 1600 4750 
Q 1800 4750 1984 4673 
Q 2169 4597 2303 4453 
Q 2447 4313 2519 4134 
Q 2591 3956 2591 3750 
Q 2591 3338 2302 3052 
Q 2013 2766 1594 2766 
Q 1172 2766 890 3047 
Q 609 3328 609 3750 
Q 609 4169 896 4459 
Q 1184 4750 1600 4750 
z
" transform="scale(0.015625)"/>
       </defs>
       <use xlink:href="#DejaVuSans-30"/>
       <use xlink:href="#DejaVuSans-b0" x="63.623047"/>
      </g>
     </g>
    </g>
    <g id="xtick_2">
     <g id="line2d_2">
      <path d="M 251.8225 262.917188 
L 95.0145 106.109188 
" clip-path="url(#pcaee8e693a)" style="fill: none; stroke: #b0b0b0; stroke-width: 0.8; stroke-linecap: square"/>
     </g>
     <g id="text_2">
      <!-- 45° -->
      <g transform="translate(76.252505 98.969068)scale(0.1 -0.1)">
       <defs>
        <path id="DejaVuSans-34" d="M 2419 4116 
L 825 1625 
L 2419 1625 
L 2419 4116 
z
M 2253 4666 
L 3047 4666 
L 3047 1625 
L 3713 1625 
L 3713 1100 
L 3047 1100 
L 3047 0 
L 2419 0 
L 2419 1100 
L 313 1100 
L 313 1709 
L 2253 4666 
z
" transform="scale(0.015625)"/>
        <path id="DejaVuSans-35" d="M 691 4666 
L 3169 4666 
L 3169 4134 
L 1269 4134 
L 1269 2991 
Q 1406 3038 1543 3061 
Q 1681 3084 1819 3084 
Q 2600 3084 3056 2656 
Q 3513 2228 3513 1497 
Q 3513 744 3044 326 
Q 2575 -91 1722 -91 
Q 1428 -91 1123 -41 
Q 819 9 494 109 
L 494 744 
Q 775 591 1075 516 
Q 1375 441 1709 441 
Q 2250 441 2565 725 
Q 2881 1009 2881 1497 
Q 2881 1984 2565 2268 
Q 2250 2553 1709 2553 
Q 1456 2553 1204 2497 
Q 953 2441 691 2322 
L 691 4666 
z
" transform="scale(0.015625)"/>
       </defs>
       <use xlink:href="#DejaVuSans-34"/>
       <use xlink:href="#DejaVuSans-35" x="63.623047"/>
       <use xlink:href="#DejaVuSans-b0" x="127.246094"/>
      </g>
     </g>
    </g>
    <g id="xtick_3">
     <g id="line2d_3">
      <path d="M 251.8225 262.917188 
L 30.0625 262.917188 
" clip-path="url(#pcaee8e693a)" style="fill: none; stroke: #b0b0b0; stroke-width: 0.8; stroke-linecap: square"/>
     </g>
     <g id="text_3">
      <!-- 90° -->
      <g transform="translate(7.2 265.676563)scale(0.1 -0.1)">
       <defs>
        <path id="DejaVuSans-39" d="M 703 97 
L 703 672 
Q 941 559 1184 500 
Q 1428 441 1663 441 
Q 2288 441 2617 861 
Q 2947 1281 2994 2138 
Q 2813 1869 2534 1725 
Q 2256 1581 1919 1581 
Q 1219 1581 811 2004 
Q 403 2428 403 3163 
Q 403 3881 828 4315 
Q 1253 4750 1959 4750 
Q 2769 4750 3195 4129 
Q 3622 3509 3622 2328 
Q 3622 1225 3098 567 
Q 2575 -91 1691 -91 
Q 1453 -91 1209 -44 
Q 966 3 703 97 
z
M 1959 2075 
Q 2384 2075 2632 2365 
Q 2881 2656 2881 3163 
Q 2881 3666 2632 3958 
Q 2384 4250 1959 4250 
Q 1534 4250 1286 3958 
Q 1038 3666 1038 3163 
Q 1038 2656 1286 2365 
Q 1534 2075 1959 2075 
z
" transform="scale(0.015625)"/>
       </defs>
       <use xlink:href="#DejaVuSans-39"/>
       <use xlink:href="#DejaVuSans-30" x="63.623047"/>
       <use xlink:href="#DejaVuSans-b0" x="127.246094"/>
      </g>
     </g>
    </g>
    <g id="xtick_4">
     <g id="line2d_4">
      <path d="M 251.8225 262.917188 
L 95.0145 419.725187 
" clip-path="url(#pcaee8e693a)" style="fill: none; stroke: #b0b0b0; stroke-width: 0.8; stroke-linecap: square"/>
     </g>
     <g id="text_4">
      <!-- 135° -->
      <g transform="translate(73.071255 432.384057)scale(0.1 -0.1)">
       <defs>
        <path id="DejaVuSans-31" d="M 794 531 
L 1825 531 
L 1825 4091 
L 703 3866 
L 703 4441 
L 1819 4666 
L 2450 4666 
L 2450 531 
L 3481 531 
L 3481 0 
L 794 0 
L 794 531 
z
" transform="scale(0.015625)"/>
        <path id="DejaVuSans-33" d="M 2597 2516 
Q 3050 2419 3304 2112 
Q 3559 1806 3559 1356 
Q 3559 666 3084 287 
Q 2609 -91 1734 -91 
Q 1441 -91 1130 -33 
Q 819 25 488 141 
L 488 750 
Q 750 597 1062 519 
Q 1375 441 1716 441 
Q 2309 441 2620 675 
Q 2931 909 2931 1356 
Q 2931 1769 2642 2001 
Q 2353 2234 1838 2234 
L 1294 2234 
L 1294 2753 
L 1863 2753 
Q 2328 2753 2575 2939 
Q 2822 3125 2822 3475 
Q 2822 3834 2567 4026 
Q 2313 4219 1838 4219 
Q 1578 4219 1281 4162 
Q 984 4106 628 3988 
L 628 4550 
Q 988 4650 1302 4700 
Q 1616 4750 1894 4750 
Q 2613 4750 3031 4423 
Q 3450 4097 3450 3541 
Q 3450 3153 3228 2886 
Q 3006 2619 2597 2516 
z
" transform="scale(0.015625)"/>
       </defs>
       <use xlink:href="#DejaVuSans-31"/>
       <use xlink:href="#DejaVuSans-33" x="63.623047"/>
       <use xlink:href="#DejaVuSans-35" x="127.246094"/>
       <use xlink:href="#DejaVuSans-b0" x="190.869141"/>
      </g>
     </g>
    </g>
    <g id="xtick_5">
     <g id="line2d_5">
      <path d="M 251.8225 262.917188 
L 251.8225 484.677188 
" clip-path="url(#pcaee8e693a)" style="fill: none; stroke: #b0b0b0; stroke-width: 0.8; stroke-linecap: square"/>
     </g>
     <g id="text_5">
      <!-- 180° -->
      <g transform="translate(239.77875 501.436563)scale(0.1 -0.1)">
       <defs>
        <path id="DejaVuSans-38" d="M 2034 2216 
Q 1584 2216 1326 1975 
Q 1069 1734 1069 1313 
Q 1069 891 1326 650 
Q 1584 409 2034 409 
Q 2484 409 2743 651 
Q 3003 894 3003 1313 
Q 3003 1734 2745 1975 
Q 2488 2216 2034 2216 
z
M 1403 2484 
Q 997 2584 770 2862 
Q 544 3141 544 3541 
Q 544 4100 942 4425 
Q 1341 4750 2034 4750 
Q 2731 4750 3128 4425 
Q 3525 4100 3525 3541 
Q 3525 3141 3298 2862 
Q 3072 2584 2669 2484 
Q 3125 2378 3379 2068 
Q 3634 1759 3634 1313 
Q 3634 634 3220 271 
Q 2806 -91 2034 -91 
Q 1263 -91 848 271 
Q 434 634 434 1313 
Q 434 1759 690 2068 
Q 947 2378 1403 2484 
z
M 1172 3481 
Q 1172 3119 1398 2916 
Q 1625 2713 2034 2713 
Q 2441 2713 2670 2916 
Q 2900 3119 2900 3481 
Q 2900 3844 2670 4047 
Q 2441 4250 2034 4250 
Q 1625 4250 1398 4047 
Q 1172 3844 1172 3481 
z
" transform="scale(0.015625)"/>
       </defs>
       <use xlink:href="#DejaVuSans-31"/>
       <use xlink:href="#DejaVuSans-38" x="63.623047"/>
       <use xlink:href="#DejaVuSans-30" x="127.246094"/>
       <use xlink:href="#DejaVuSans-b0" x="190.869141"/>
      </g>
     </g>
    </g>
    <g id="xtick_6">
     <g id="line2d_6">
      <path d="M 251.8225 262.917188 
L 408.6305 419.725187 
" clip-path="url(#pcaee8e693a)" style="fill: none; stroke: #b0b0b0; stroke-width: 0.8; stroke-linecap: square"/>
     </g>
     <g id="text_6">
      <!-- 225° -->
      <g transform="translate(406.486245 432.384057)scale(0.1 -0.1)">
       <defs>
        <path id="DejaVuSans-32" d="M 1228 531 
L 3431 531 
L 3431 0 
L 469 0 
L 469 531 
Q 828 903 1448 1529 
Q 2069 2156 2228 2338 
Q 2531 2678 2651 2914 
Q 2772 3150 2772 3378 
Q 2772 3750 2511 3984 
Q 2250 4219 1831 4219 
Q 1534 4219 1204 4116 
Q 875 4013 500 3803 
L 500 4441 
Q 881 4594 1212 4672 
Q 1544 4750 1819 4750 
Q 2544 4750 2975 4387 
Q 3406 4025 3406 3419 
Q 3406 3131 3298 2873 
Q 3191 2616 2906 2266 
Q 2828 2175 2409 1742 
Q 1991 1309 1228 531 
z
" transform="scale(0.015625)"/>
       </defs>
       <use xlink:href="#DejaVuSans-32"/>
       <use xlink:href="#DejaVuSans-32" x="63.623047"/>
       <use xlink:href="#DejaVuSans-35" x="127.246094"/>
       <use xlink:href="#DejaVuSans-b0" x="190.869141"/>
      </g>
     </g>
    </g>
    <g id="xtick_7">
     <g id="line2d_7">
      <path d="M 251.8225 262.917188 
L 473.5825 262.917188 
" clip-path="url(#pcaee8e693a)" style="fill: none; stroke: #b0b0b0; stroke-width: 0.8; stroke-linecap: square"/>
     </g>
     <g id="text_7">
      <!-- 270° -->
      <g transform="translate(475.53875 265.676563)scale(0.1 -0.1)">
       <defs>
        <path id="DejaVuSans-37" d="M 525 4666 
L 3525 4666 
L 3525 4397 
L 1831 0 
L 1172 0 
L 2766 4134 
L 525 4134 
L 525 4666 
z
" transform="scale(0.015625)"/>
       </defs>
       <use xlink:href="#DejaVuSans-32"/>
       <use xlink:href="#DejaVuSans-37" x="63.623047"/>
       <use xlink:href="#DejaVuSans-30" x="127.246094"/>
       <use xlink:href="#DejaVuSans-b0" x="190.869141"/>
      </g>
     </g>
    </g>
    <g id="xtick_8">
     <g id="line2d_8">
      <path d="M 251.8225 262.917188 
L 408.6305 106.109188 
" clip-path="url(#pcaee8e693a)" style="fill: none; stroke: #b0b0b0; stroke-width: 0.8; stroke-linecap: square"/>
     </g>
     <g id="text_8">
      <!-- 315° -->
      <g transform="translate(406.486245 98.969068)scale(0.1 -0.1)">
       <use xlink:href="#DejaVuSans-33"/>
       <use xlink:href="#DejaVuSans-31" x="63.623047"/>
       <use xlink:href="#DejaVuSans-35" x="127.246094"/>
       <use xlink:href="#DejaVuSans-b0" x="190.869141"/>
      </g>
     </g>
    </g>
   </g>
   <g id="matplotlib.axis_2">
    <g id="ytick_1">
     <g id="line2d_9">
      <path d="M 251.8225 238.105973 
C 248.564321 238.105973 245.337824 238.747764 242.327659 239.994615 
C 239.317495 241.241466 236.582203 243.069129 234.278322 245.37301 
C 231.974442 247.67689 230.146778 250.412182 228.899927 253.422347 
C 227.653076 256.432512 227.011286 259.659009 227.011286 262.917188 
C 227.011286 266.175366 227.653076 269.401863 228.899927 272.412028 
C 230.146778 275.422193 231.974442 278.157485 234.278322 280.461365 
C 236.582203 282.765246 239.317495 284.592909 242.327659 285.83976 
C 245.337824 287.086611 248.564321 287.728402 251.8225 287.728402 
C 255.080679 287.728402 258.307176 287.086611 261.317341 285.83976 
C 264.327505 284.592909 267.062797 282.765246 269.366678 280.461365 
C 271.670558 278.157485 273.498222 275.422193 274.745073 272.412028 
C 275.991924 269.401863 276.633714 266.175366 276.633714 262.917188 
C 276.633714 259.659009 275.991924 256.432512 274.745073 253.422347 
C 273.498222 250.412182 271.670558 247.67689 269.366678 245.37301 
C 267.062797 243.069129 264.327505 241.241466 261.317341 239.994615 
C 258.307176 238.747764 255.080679 238.105973 251.8225 238.105973 
" clip-path="url(#pcaee8e693a)" style="fill: none; stroke: #b0b0b0; stroke-width: 0.8; stroke-linecap: square"/>
     </g>
     <g id="text_9">
      <!-- −25 -->
      <g transform="translate(242.327659 237.914927)scale(0.1 -0.1)">
       <defs>
        <path id="DejaVuSans-2212" d="M 678 2272 
L 4684 2272 
L 4684 1741 
L 678 1741 
L 678 2272 
z
" transform="scale(0.015625)"/>
       </defs>
       <use xlink:href="#DejaVuSans-2212"/>
       <use xlink:href="#DejaVuSans-32" x="83.789062"/>
       <use xlink:href="#DejaVuSans-35" x="147.412109"/>
      </g>
     </g>
    </g>
    <g id="ytick_2">
     <g id="line2d_10">
      <path d="M 251.8225 198.716216 
C 243.391706 198.716216 235.04289 200.376899 227.253852 203.603224 
C 219.464814 206.829549 212.38703 211.558773 206.425558 217.520245 
C 200.464086 223.481717 195.734862 230.559501 192.508537 238.348539 
C 189.282211 246.137578 187.621529 254.486393 187.621529 262.917188 
C 187.621529 271.347982 189.282211 279.696797 192.508537 287.485836 
C 195.734862 295.274874 200.464086 302.352658 206.425558 308.31413 
C 212.38703 314.275602 219.464814 319.004826 227.253852 322.231151 
C 235.04289 325.457476 243.391706 327.118159 251.8225 327.118159 
C 260.253294 327.118159 268.60211 325.457476 276.391148 322.231151 
C 284.180186 319.004826 291.25797 314.275602 297.219442 308.31413 
C 303.180914 302.352658 307.910138 295.274874 311.136463 287.485836 
C 314.362789 279.696797 316.023471 271.347982 316.023471 262.917188 
C 316.023471 254.486393 314.362789 246.137578 311.136463 238.348539 
C 307.910138 230.559501 303.180914 223.481717 297.219442 217.520245 
C 291.25797 211.558773 284.180186 206.829549 276.391148 203.603224 
C 268.60211 200.376899 260.253294 198.716216 251.8225 198.716216 
" clip-path="url(#pcaee8e693a)" style="fill: none; stroke: #b0b0b0; stroke-width: 0.8; stroke-linecap: square"/>
     </g>
     <g id="text_10">
      <!-- −20 -->
      <g transform="translate(227.253852 201.523537)scale(0.1 -0.1)">
       <use xlink:href="#DejaVuSans-2212"/>
       <use xlink:href="#DejaVuSans-32" x="83.789062"/>
       <use xlink:href="#DejaVuSans-30" x="147.412109"/>
      </g>
     </g>
    </g>
    <g id="ytick_3">
     <g id="line2d_11">
      <path d="M 251.8225 159.326459 
C 238.21909 159.326459 224.747956 162.006034 212.180044 167.211834 
C 199.612133 172.417633 188.191857 180.048418 178.572793 189.667481 
C 168.95373 199.286544 161.322946 210.70682 156.117146 223.274732 
C 150.911347 235.842644 148.231772 249.313778 148.231772 262.917188 
C 148.231772 276.520597 150.911347 289.991731 156.117146 302.559643 
C 161.322946 315.127555 168.95373 326.547831 178.572793 336.166894 
C 188.191857 345.785957 199.612133 353.416742 212.180044 358.622541 
C 224.747956 363.828341 238.21909 366.507916 251.8225 366.507916 
C 265.42591 366.507916 278.897044 363.828341 291.464956 358.622541 
C 304.032867 353.416742 315.453143 345.785957 325.072207 336.166894 
C 334.69127 326.547831 342.322054 315.127555 347.527854 302.559643 
C 352.733653 289.991731 355.413228 276.520597 355.413228 262.917188 
C 355.413228 249.313778 352.733653 235.842644 347.527854 223.274732 
C 342.322054 210.70682 334.69127 199.286544 325.072207 189.667481 
C 315.453143 180.048418 304.032867 172.417633 291.464956 167.211834 
C 278.897044 162.006034 265.42591 159.326459 251.8225 159.326459 
" clip-path="url(#pcaee8e693a)" style="fill: none; stroke: #b0b0b0; stroke-width: 0.8; stroke-linecap: square"/>
     </g>
     <g id="text_11">
      <!-- −15 -->
      <g transform="translate(212.180044 165.132146)scale(0.1 -0.1)">
       <use xlink:href="#DejaVuSans-2212"/>
       <use xlink:href="#DejaVuSans-31" x="83.789062"/>
       <use xlink:href="#DejaVuSans-35" x="147.412109"/>
      </g>
     </g>
    </g>
    <g id="ytick_4">
     <g id="line2d_12">
      <path d="M 251.8225 119.936702 
C 233.046475 119.936702 214.453023 123.635169 197.106237 130.820443 
C 179.759451 138.005717 163.996684 148.538062 150.720029 161.814717 
C 137.443374 175.091371 126.91103 190.854139 119.725756 208.200924 
C 112.540482 225.54771 108.842014 244.141162 108.842014 262.917188 
C 108.842014 281.693213 112.540482 300.286665 119.725756 317.633451 
C 126.91103 334.980236 137.443374 350.743004 150.720029 364.019658 
C 163.996684 377.296313 179.759451 387.828658 197.106237 395.013932 
C 214.453023 402.199206 233.046475 405.897673 251.8225 405.897673 
C 270.598525 405.897673 289.191977 402.199206 306.538763 395.013932 
C 323.885549 387.828658 339.648316 377.296313 352.924971 364.019658 
C 366.201626 350.743004 376.73397 334.980236 383.919244 317.633451 
C 391.104518 300.286665 394.802986 281.693213 394.802986 262.917188 
C 394.802986 244.141162 391.104518 225.54771 383.919244 208.200924 
C 376.73397 190.854139 366.201626 175.091371 352.924971 161.814717 
C 339.648316 148.538062 323.885549 138.005717 306.538763 130.820443 
C 289.191977 123.635169 270.598525 119.936702 251.8225 119.936702 
" clip-path="url(#pcaee8e693a)" style="fill: none; stroke: #b0b0b0; stroke-width: 0.8; stroke-linecap: square"/>
     </g>
     <g id="text_12">
      <!-- −10 -->
      <g transform="translate(197.106237 128.740756)scale(0.1 -0.1)">
       <use xlink:href="#DejaVuSans-2212"/>
       <use xlink:href="#DejaVuSans-31" x="83.789062"/>
       <use xlink:href="#DejaVuSans-30" x="147.412109"/>
      </g>
     </g>
    </g>
    <g id="ytick_5">
     <g id="line2d_13">
      <path d="M 251.8225 80.546945 
C 227.873859 80.546945 204.158089 85.264305 182.03243 94.429053 
C 159.90677 103.593801 139.801511 117.027706 122.867265 133.961952 
C 105.933018 150.896198 92.499113 171.001458 83.334365 193.127117 
C 74.169617 215.252776 69.452257 238.968547 69.452257 262.917188 
C 69.452257 286.865828 74.169617 310.581599 83.334365 332.707258 
C 92.499113 354.832917 105.933018 374.938177 122.867265 391.872423 
C 139.801511 408.806669 159.90677 422.240574 182.03243 431.405322 
C 204.158089 440.57007 227.873859 445.28743 251.8225 445.28743 
C 275.771141 445.28743 299.486911 440.57007 321.61257 431.405322 
C 343.73823 422.240574 363.843489 408.806669 380.777735 391.872423 
C 397.711982 374.938177 411.145887 354.832917 420.310635 332.707258 
C 429.475383 310.581599 434.192743 286.865828 434.192743 262.917188 
C 434.192743 238.968547 429.475383 215.252776 420.310635 193.127117 
C 411.145887 171.001458 397.711982 150.896198 380.777735 133.961952 
C 363.843489 117.027706 343.73823 103.593801 321.61257 94.429053 
C 299.486911 85.264305 275.771141 80.546945 251.8225 80.546945 
" clip-path="url(#pcaee8e693a)" style="fill: none; stroke: #b0b0b0; stroke-width: 0.8; stroke-linecap: square"/>
     </g>
     <g id="text_13">
      <!-- −5 -->
      <g transform="translate(182.03243 92.349365)scale(0.1 -0.1)">
       <use xlink:href="#DejaVuSans-2212"/>
       <use xlink:href="#DejaVuSans-35" x="83.789062"/>
      </g>
     </g>
    </g>
    <g id="ytick_6">
     <g id="line2d_14">
      <path d="M 251.8225 41.157188 
C 222.701244 41.157188 193.863155 46.89344 166.958622 58.037662 
C 140.054089 69.181885 115.606338 85.51735 95.0145 106.109188 
C 74.422662 126.701026 58.087197 151.148777 46.942975 178.05331 
C 35.798753 204.957842 30.0625 233.795931 30.0625 262.917188 
C 30.0625 292.038444 35.798753 320.876533 46.942975 347.781065 
C 58.087197 374.685598 74.422662 399.133349 95.0145 419.725187 
C 115.606338 440.317025 140.054089 456.65249 166.958622 467.796713 
C 193.863155 478.940935 222.701244 484.677188 251.8225 484.677188 
C 280.943756 484.677188 309.781845 478.940935 336.686378 467.796713 
C 363.590911 456.65249 388.038662 440.317025 408.6305 419.725187 
C 429.222338 399.133349 445.557803 374.685598 456.702025 347.781065 
C 467.846247 320.876533 473.5825 292.038444 473.5825 262.917188 
C 473.5825 233.795931 467.846247 204.957842 456.702025 178.05331 
C 445.557803 151.148777 429.222338 126.701026 408.6305 106.109188 
C 388.038662 85.51735 363.590911 69.181885 336.686378 58.037662 
C 309.781845 46.89344 280.943756 41.157188 251.8225 41.157188 
" clip-path="url(#pcaee8e693a)" style="fill: none; stroke: #b0b0b0; stroke-width: 0.8; stroke-linecap: square"/>
     </g>
     <g id="text_14">
      <!-- 0 -->
      <g transform="translate(166.958622 55.957975)scale(0.1 -0.1)">
       <use xlink:href="#DejaVuSans-30"/>
      </g>
     </g>
    </g>
   </g>
   <g id="line2d_15">
    <path d="M 251.8225 482.747089 
L 255.648612 482.114975 
L 259.445789 481.219627 
L 263.191861 479.857526 
L 266.909767 478.675152 
L 270.553495 477.013435 
L 277.59534 472.820126 
L 280.920325 469.958968 
L 287.280098 464.007218 
L 292.866191 456.012574 
L 295.526374 452.219465 
L 297.77147 447.20844 
L 302.383698 439.245041 
L 304.18423 434.18469 
L 306.172042 430.187877 
L 307.977607 426.003459 
L 309.441149 421.223124 
L 313.198532 414.828197 
L 315.437157 412.783929 
L 318.264097 412.147458 
L 321.730699 412.835804 
L 329.53463 415.43583 
L 334.056039 417.575981 
L 338.167284 418.687301 
L 342.085901 419.257984 
L 345.981393 419.623901 
L 349.49515 419.226103 
L 352.899034 418.561401 
L 356.282826 417.78599 
L 362.485316 415.231487 
L 365.605561 413.912409 
L 379.914096 405.177317 
L 383.054335 403.646102 
L 394.873326 396.314241 
L 397.642141 394.213782 
L 405.458706 387.329334 
L 410.367656 382.389532 
L 413.053182 380.058134 
L 417.578676 374.72114 
L 419.78878 371.995765 
L 421.73369 369.089483 
L 423.567527 366.112011 
L 425.219562 363.028028 
L 426.69917 359.852909 
L 427.974772 356.579012 
L 429.875858 349.759613 
L 430.507567 346.239403 
L 430.725452 342.569914 
L 431.239888 339.07535 
L 431.248842 335.410135 
L 430.956914 331.680446 
L 430.886036 328.090984 
L 430.245747 324.353238 
L 427.617769 316.663195 
L 424.992507 312.572888 
L 419.297078 304.67329 
L 414.297018 300.427386 
L 409.309388 296.392059 
L 404.363572 292.568168 
L 389.821341 284.774057 
L 382.333686 281.259339 
L 371.890301 277.65966 
L 360.275261 274.316032 
L 346.794358 271.226148 
L 328.857613 268.304007 
L 302.78947 265.588253 
L 274.004713 263.691807 
L 262.380892 263.101485 
L 293.713113 262.917188 
L 321.109951 261.707771 
L 344.004911 259.698107 
L 358.410256 257.33116 
L 373.212461 254.428775 
L 382.91858 251.447767 
L 400.336661 244.681941 
L 406.29923 241.206899 
L 411.903708 237.562815 
L 417.457247 233.711313 
L 424.235521 226.269669 
L 427.384666 222.385468 
L 432.057328 214.623411 
L 433.913233 210.70351 
L 435.234363 206.842554 
L 436.767707 202.824847 
L 437.664701 198.926586 
L 439.172115 191.000408 
L 439.908654 179.175836 
L 439.603735 175.35336 
L 439.434744 171.412582 
L 439.514885 167.283141 
L 438.707599 163.548618 
L 438.288506 159.557392 
L 437.670636 155.617716 
L 436.580023 151.903668 
L 435.603201 148.07826 
L 434.370442 144.369168 
L 432.763525 140.870925 
L 430.902815 137.523801 
L 426.537098 131.260294 
L 424.045145 128.36211 
L 418.550318 123.015937 
L 415.423354 120.701135 
L 412.412941 118.320905 
L 409.13321 116.222578 
L 405.404358 114.604911 
L 401.87899 112.860698 
L 398.027869 111.517095 
L 393.584925 110.895598 
L 389.681961 109.808745 
L 385.360807 109.298938 
L 380.704814 109.321227 
L 376.571774 108.864663 
L 367.59681 109.279489 
L 363.642952 109.009539 
L 359.444204 109.217466 
L 355.476658 109.243579 
L 351.740561 109.056866 
L 347.720912 109.447647 
L 343.964843 109.566577 
L 340.384264 109.523713 
L 336.70067 109.792915 
L 329.978118 109.528151 
L 326.709024 109.37706 
L 320.718554 108.174117 
L 318.087454 106.806739 
L 315.615509 105.023949 
L 313.332944 102.677002 
L 311.464657 99.051709 
L 309.370299 95.786245 
L 307.493932 91.578138 
L 305.62609 86.933575 
L 303.358683 83.189159 
L 301.060317 79.159153 
L 298.589079 75.346684 
L 293.110241 68.673637 
L 290.151362 65.732286 
L 287.040699 63.184854 
L 283.840368 60.764325 
L 280.519043 58.730677 
L 273.615185 55.573642 
L 266.495964 53.07687 
L 262.875215 52.018824 
L 255.531333 50.438269 
L 251.8225 49.862324 
L 244.368572 49.46461 
L 240.6362 49.469866 
L 229.45668 50.120624 
L 222.018594 50.851381 
L 218.308519 51.318239 
L 210.993843 52.871956 
L 207.389956 53.878502 
L 203.872546 55.223118 
L 196.953065 58.141668 
L 193.591713 59.8423 
L 183.879526 65.596463 
L 177.666919 69.735295 
L 174.684469 71.993862 
L 171.9767 74.812272 
L 169.253905 77.465087 
L 166.902189 80.804993 
L 162.937337 88.470233 
L 161.293283 92.656494 
L 154.556054 113.139995 
L 153.525181 117.185419 
L 152.433699 120.975269 
L 151.476535 124.802815 
L 150.901961 128.991108 
L 150.083546 132.697264 
L 149.541774 136.611009 
L 148.859565 148.565263 
L 148.915431 156.353798 
L 148.541943 159.63663 
L 147.225533 161.909071 
L 145.51896 163.787533 
L 142.997185 164.930433 
L 133.175342 166.838613 
L 129.890137 167.653185 
L 126.786468 168.695779 
L 123.268223 169.517038 
L 116.945449 171.941468 
L 113.105436 172.833273 
L 109.890842 174.228445 
L 103.600485 177.341168 
L 101.130472 179.387233 
L 98.909617 181.611965 
L 97.099796 184.082032 
L 95.981159 186.908287 
L 95.228125 189.896031 
L 94.992338 193.091901 
L 95.102909 196.393668 
L 95.726122 199.850157 
L 96.818861 203.416865 
L 97.440076 206.72658 
L 99.296809 213.358586 
L 99.668052 216.398904 
L 99.91684 219.35894 
L 99.720055 222.16146 
L 99.200102 224.86415 
L 99.142609 227.668257 
L 98.596919 230.348085 
L 98.910233 233.194054 
L 100.385383 236.214738 
L 101.218503 239.063858 
L 103.820835 242.11691 
L 107.124123 245.150461 
L 109.891659 247.999655 
L 115.052335 250.951349 
L 119.257381 253.647331 
L 122.829087 256.156929 
L 127.084604 258.561244 
L 128.335121 260.761707 
L 129.214397 262.917188 
L 128.55567 265.068818 
L 124.551994 269.587152 
L 121.528563 272.028227 
L 119.627704 274.482734 
L 116.90598 279.482853 
L 116.302889 281.963227 
L 116.290224 284.383391 
L 116.47603 286.782422 
L 117.616872 289.004119 
L 119.47193 291.04917 
L 122.521771 295.15548 
L 124.656441 296.99123 
L 125.793005 299.055564 
L 126.796986 301.141323 
L 127.490624 303.315063 
L 127.410135 305.7558 
L 127.199544 308.276234 
L 126.671594 310.958119 
L 123.398371 320.095294 
L 122.580885 323.183542 
L 122.207854 328.959148 
L 122.128139 331.876903 
L 122.262751 334.733329 
L 122.812663 337.401052 
L 123.146337 340.233627 
L 123.259287 343.252399 
L 123.848428 346.024522 
L 124.561703 352.026157 
L 124.663997 355.303248 
L 125.07515 358.428167 
L 124.64083 365.906873 
L 125.09374 369.255243 
L 124.786874 373.347573 
L 124.953742 377.15033 
L 125.566647 380.652675 
L 125.572217 384.835669 
L 126.120467 388.61922 
L 126.976239 392.199275 
L 127.682694 396.040831 
L 128.749256 399.603873 
L 131.523411 406.284059 
L 133.443941 409.102533 
L 137.190788 415.038608 
L 139.335249 417.742606 
L 141.191404 420.914767 
L 143.375382 423.696652 
L 145.704464 426.324633 
L 147.841911 429.320915 
L 150.173563 432.089427 
L 152.597929 434.779186 
L 154.898237 437.773187 
L 157.310027 440.669297 
L 159.697014 443.723633 
L 162.258743 446.550103 
L 170.336041 454.887255 
L 176.413416 459.364568 
L 179.481551 461.672312 
L 189.383876 467.144725 
L 192.823017 468.672836 
L 196.184375 470.561495 
L 199.62044 472.288215 
L 203.112292 473.904279 
L 206.574273 475.793361 
L 210.135525 477.378083 
L 217.390393 480.312952 
L 221.108583 481.45806 
L 224.86204 482.492514 
L 228.661208 483.282163 
L 232.499649 483.778388 
L 236.353304 484.136991 
L 244.102433 483.990977 
L 247.970403 483.603681 
L 247.970403 483.603681 
" clip-path="url(#pcaee8e693a)" style="fill: none; stroke: #ff0000; stroke-width: 1.5; stroke-linecap: square"/>
   </g>
   <g id="line2d_16">
    <path d="M 251.8225 63.529939 
L 248.373923 65.34833 
L 244.991831 67.312417 
L 241.680935 69.404607 
L 238.447001 71.638635 
L 235.295464 74.012307 
L 232.230062 76.507588 
L 229.258173 79.145491 
L 226.383271 81.907667 
L 223.611365 84.79909 
L 220.947566 87.816733 
L 218.395401 90.94967 
L 215.961051 94.202334 
L 213.649375 97.571217 
L 211.461327 101.037364 
L 209.402815 104.604768 
L 207.473668 108.254432 
L 205.677166 111.9826 
L 204.014053 115.777916 
L 202.481889 119.621647 
L 201.079791 123.50274 
L 198.620869 131.238531 
L 196.589118 138.860981 
L 193.099865 152.475974 
L 191.211393 157.935671 
L 190.118784 160.22496 
L 188.920411 162.252802 
L 187.559313 163.960557 
L 186.062334 165.423732 
L 184.41604 166.650786 
L 182.60731 167.650651 
L 180.670757 168.495635 
L 176.427285 169.811851 
L 171.8801 170.953976 
L 169.496589 171.485001 
L 162.37318 173.467867 
L 157.692695 175.139724 
L 155.355479 176.057891 
L 150.934532 178.26213 
L 146.799989 180.864609 
L 144.817724 182.283305 
L 142.916895 183.792634 
L 141.100841 185.389047 
L 139.372784 187.068897 
L 137.735826 188.828435 
L 136.192939 190.663819 
L 134.746973 192.571114 
L 133.400646 194.546298 
L 130.94756 198.646842 
L 128.919804 202.973537 
L 128.035158 205.194202 
L 127.262513 207.459508 
L 125.987291 212.076463 
L 125.177973 216.822349 
L 124.695368 221.611078 
L 124.694347 226.463776 
L 124.762366 228.871527 
L 125.34032 233.716475 
L 125.697599 236.108512 
L 126.778388 240.868537 
L 128.269435 245.552937 
L 130.089135 250.122495 
L 131.061573 252.351975 
L 132.152979 254.549079 
L 134.610707 258.824062 
L 137.217765 262.917188 
L 140.121914 266.817858 
L 143.155245 270.515942 
L 147.846049 275.68389 
L 157.973765 286.316305 
L 160.28638 289.164748 
L 161.285765 290.597045 
L 162.157253 292.051192 
L 162.90283 293.534685 
L 163.524751 295.05494 
L 164.481001 298.205443 
L 164.974095 301.584589 
L 165.101955 305.213623 
L 165.031069 309.06501 
L 163.821635 326.853558 
L 163.849134 336.735607 
L 164.43373 344.408534 
L 165.102751 349.636937 
L 166.032954 354.915212 
L 167.228539 360.231408 
L 167.876382 362.960275 
L 169.430411 368.374252 
L 172.260986 376.542805 
L 173.28698 379.350885 
L 176.867169 387.663807 
L 179.566833 393.269862 
L 182.543507 398.884867 
L 185.802734 404.497032 
L 189.352672 410.086879 
L 193.202792 415.626748 
L 197.362528 421.080432 
L 201.835278 426.418024 
L 206.621668 431.608988 
L 211.723044 436.607014 
L 217.131223 441.388336 
L 222.839893 445.906166 
L 228.833817 450.144984 
L 235.099781 454.05874 
L 241.618266 457.625576 
L 248.368011 460.824746 
L 255.325935 463.628869 
L 258.875043 464.875592 
L 266.097044 467.052673 
L 273.460438 468.788418 
L 277.187383 469.497579 
L 284.710529 470.564031 
L 292.302539 471.168933 
L 299.93333 471.308088 
L 303.754082 471.203387 
L 307.573135 470.981388 
L 311.386736 470.642363 
L 315.191147 470.186692 
L 318.982646 469.614863 
L 322.757274 468.926729 
L 326.511311 468.123009 
L 330.241064 467.204532 
L 333.942869 466.172232 
L 337.61309 465.027152 
L 341.248129 463.770439 
L 344.844091 462.402633 
L 348.397761 460.925816 
L 351.905303 459.340747 
L 355.363614 457.649702 
L 358.76893 455.853654 
L 362.117877 453.954385 
L 365.407141 451.953775 
L 368.633044 449.853135 
L 371.792781 447.65522 
L 374.883213 445.362198 
L 377.900817 442.975684 
L 380.842551 440.498053 
L 383.704973 437.931141 
L 386.485639 435.278145 
L 389.18123 432.541093 
L 391.788467 429.722131 
L 394.304622 426.824119 
L 396.727052 423.849997 
L 399.052666 420.80221 
L 401.277869 417.682752 
L 403.40131 414.495998 
L 405.416145 411.240846 
L 407.330299 407.930556 
L 409.123203 404.551377 
L 410.81007 401.122974 
L 412.377138 397.638525 
L 413.822283 394.102025 
L 415.149706 390.522386 
L 416.345191 386.893927 
L 417.419468 383.230427 
L 418.351779 379.522244 
L 419.159729 375.787574 
L 419.822343 372.017561 
L 420.344601 368.221484 
L 420.718418 364.400093 
L 420.949219 360.562544 
L 421.022187 356.706106 
L 420.942996 352.84015 
L 420.696687 348.962884 
L 420.282136 345.080442 
L 419.698407 341.199009 
L 418.930363 337.318402 
L 417.984374 333.448719 
L 416.845329 329.590738 
L 415.505275 325.749118 
L 413.956303 321.929066 
L 412.190574 318.136344 
L 410.192845 314.374832 
L 407.96289 310.654095 
L 405.470504 306.975044 
L 402.715641 303.348883 
L 399.668045 299.779222 
L 396.320346 296.277144 
L 392.634655 292.847735 
L 388.603906 289.5048 
L 384.159383 286.251751 
L 379.333228 283.112903 
L 374.049347 280.095051 
L 368.309719 277.22002 
L 362.038716 274.501379 
L 355.239406 271.964994 
L 347.915738 269.636681 
L 340.22989 267.550422 
L 332.424134 265.731859 
L 319.001967 262.917188 
L 315.447197 261.806614 
L 315.260662 260.701878 
L 318.516542 259.421901 
L 331.617005 255.936073 
L 339.31781 253.72106 
L 346.96322 251.235376 
L 354.156074 248.535142 
L 360.892351 245.64222 
L 367.091194 242.592207 
L 372.750823 239.411103 
L 377.947401 236.108512 
L 382.680023 232.706348 
L 386.948525 229.226486 
L 390.867623 225.660159 
L 394.414256 222.02966 
L 397.626623 218.340394 
L 400.520186 214.602381 
L 403.125446 210.819405 
L 405.457828 206.998501 
L 407.532778 203.145612 
L 409.365716 199.265597 
L 410.964736 195.365316 
L 412.34523 191.447863 
L 413.515298 187.518597 
L 414.483079 183.582322 
L 415.256725 179.643291 
L 415.844381 175.705206 
L 416.254161 171.77123 
L 416.494122 167.843982 
L 416.558741 163.933668 
L 416.46969 160.034205 
L 416.214918 156.159503 
L 415.809266 152.306717 
L 415.254224 148.481063 
L 414.55144 144.687692 
L 413.709005 140.926956 
L 412.728621 137.203548 
L 411.612126 133.5221 
L 410.36753 129.882112 
L 408.990727 126.292932 
L 407.489809 122.753713 
L 405.872622 119.263124 
L 404.129753 115.835783 
L 402.274945 112.464743 
L 400.304861 109.159202 
L 398.228486 105.915989 
L 396.043882 102.743116 
L 393.754704 99.642864 
L 391.364623 96.617362 
L 388.876824 93.669192 
L 386.293573 90.802063 
L 383.618686 88.017742 
L 380.855054 85.319114 
L 378.005197 82.709621 
L 375.072641 80.191339 
L 372.060517 77.766878 
L 368.972195 75.438485 
L 365.810613 73.209109 
L 362.579131 71.081075 
L 359.281186 69.056585 
L 355.920128 67.138024 
L 352.499433 65.327581 
L 349.022576 63.627498 
L 345.493151 62.039828 
L 341.914774 60.566628 
L 338.291117 59.209893 
L 334.625967 57.971414 
L 330.923151 56.852947 
L 327.186263 55.856951 
L 323.419508 54.984379 
L 319.626794 54.23703 
L 315.812114 53.616592 
L 311.979761 53.123887 
L 308.133646 52.76113 
L 304.278191 52.528904 
L 300.417483 52.429193 
L 296.556061 52.462331 
L 292.698177 52.630061 
L 288.847926 52.935562 
L 285.011231 53.37179 
L 281.191223 53.947866 
L 277.3938 54.655661 
L 273.621838 55.510337 
L 269.882046 56.49563 
L 266.177826 57.626464 
L 262.514898 58.894088 
L 258.898138 60.297438 
L 255.33226 61.843175 
L 255.33226 61.843175 
" clip-path="url(#pcaee8e693a)" style="fill: none; stroke-dasharray: 5.55,2.4; stroke-dashoffset: 0; stroke: #0000ff; stroke-width: 1.5"/>
   </g>
   <g id="patch_3">
    <path d="M 251.8225 41.157188 
C 222.701244 41.157188 193.863155 46.89344 166.958622 58.037662 
C 140.054089 69.181885 115.606338 85.51735 95.0145 106.109188 
C 74.422662 126.701026 58.087197 151.148777 46.942975 178.05331 
C 35.798753 204.957842 30.0625 233.795931 30.0625 262.917188 
C 30.0625 292.038444 35.798753 320.876533 46.942975 347.781065 
C 58.087197 374.685598 74.422662 399.133349 95.0145 419.725187 
C 115.606338 440.317025 140.054089 456.65249 166.958622 467.796713 
C 193.863155 478.940935 222.701244 484.677188 251.8225 484.677188 
C 280.943756 484.677188 309.781845 478.940935 336.686378 467.796713 
C 363.590911 456.65249 388.038662 440.317025 408.6305 419.725187 
C 429.222338 399.133349 445.557803 374.685598 456.702025 347.781065 
C 467.846247 320.876533 473.5825 292.038444 473.5825 262.917188 
C 473.5825 233.795931 467.846247 204.957842 456.702025 178.05331 
C 445.557803 151.148777 429.222338 126.701026 408.6305 106.109188 
C 388.038662 85.51735 363.590911 69.181885 336.686378 58.037662 
C 309.781845 46.89344 280.943756 41.157188 251.8225 41.157188 
" style="fill: none; stroke: #000000; stroke-width: 0.8; stroke-linejoin: miter; stroke-linecap: square"/>
   </g>
   <g id="text_15">
    <g id="patch_4">
     <path d="M 384.8785 509.853188 
L 485.369125 509.853188 
Q 488.369125 509.853188 488.369125 506.853188 
L 488.369125 473.945063 
Q 488.369125 470.945063 485.369125 470.945063 
L 384.8785 470.945063 
Q 381.8785 470.945063 381.8785 473.945063 
L 381.8785 506.853188 
Q 381.8785 509.853188 384.8785 509.853188 
z
" style="fill: #ffffff; stroke: #808080; stroke-linejoin: miter"/>
    </g>
    <!-- G_cst: 0.0 dBi -->
    <g transform="translate(384.8785 481.821625)scale(0.1 -0.1)">
     <defs>
      <path id="DejaVuSans-47" d="M 3809 666 
L 3809 1919 
L 2778 1919 
L 2778 2438 
L 4434 2438 
L 4434 434 
Q 4069 175 3628 42 
Q 3188 -91 2688 -91 
Q 1594 -91 976 548 
Q 359 1188 359 2328 
Q 359 3472 976 4111 
Q 1594 4750 2688 4750 
Q 3144 4750 3555 4637 
Q 3966 4525 4313 4306 
L 4313 3634 
Q 3963 3931 3569 4081 
Q 3175 4231 2741 4231 
Q 1884 4231 1454 3753 
Q 1025 3275 1025 2328 
Q 1025 1384 1454 906 
Q 1884 428 2741 428 
Q 3075 428 3337 486 
Q 3600 544 3809 666 
z
" transform="scale(0.015625)"/>
      <path id="DejaVuSans-5f" d="M 3263 -1063 
L 3263 -1509 
L -63 -1509 
L -63 -1063 
L 3263 -1063 
z
" transform="scale(0.015625)"/>
      <path id="DejaVuSans-63" d="M 3122 3366 
L 3122 2828 
Q 2878 2963 2633 3030 
Q 2388 3097 2138 3097 
Q 1578 3097 1268 2742 
Q 959 2388 959 1747 
Q 959 1106 1268 751 
Q 1578 397 2138 397 
Q 2388 397 2633 464 
Q 2878 531 3122 666 
L 3122 134 
Q 2881 22 2623 -34 
Q 2366 -91 2075 -91 
Q 1284 -91 818 406 
Q 353 903 353 1747 
Q 353 2603 823 3093 
Q 1294 3584 2113 3584 
Q 2378 3584 2631 3529 
Q 2884 3475 3122 3366 
z
" transform="scale(0.015625)"/>
      <path id="DejaVuSans-73" d="M 2834 3397 
L 2834 2853 
Q 2591 2978 2328 3040 
Q 2066 3103 1784 3103 
Q 1356 3103 1142 2972 
Q 928 2841 928 2578 
Q 928 2378 1081 2264 
Q 1234 2150 1697 2047 
L 1894 2003 
Q 2506 1872 2764 1633 
Q 3022 1394 3022 966 
Q 3022 478 2636 193 
Q 2250 -91 1575 -91 
Q 1294 -91 989 -36 
Q 684 19 347 128 
L 347 722 
Q 666 556 975 473 
Q 1284 391 1588 391 
Q 1994 391 2212 530 
Q 2431 669 2431 922 
Q 2431 1156 2273 1281 
Q 2116 1406 1581 1522 
L 1381 1569 
Q 847 1681 609 1914 
Q 372 2147 372 2553 
Q 372 3047 722 3315 
Q 1072 3584 1716 3584 
Q 2034 3584 2315 3537 
Q 2597 3491 2834 3397 
z
" transform="scale(0.015625)"/>
      <path id="DejaVuSans-74" d="M 1172 4494 
L 1172 3500 
L 2356 3500 
L 2356 3053 
L 1172 3053 
L 1172 1153 
Q 1172 725 1289 603 
Q 1406 481 1766 481 
L 2356 481 
L 2356 0 
L 1766 0 
Q 1100 0 847 248 
Q 594 497 594 1153 
L 594 3053 
L 172 3053 
L 172 3500 
L 594 3500 
L 594 4494 
L 1172 4494 
z
" transform="scale(0.015625)"/>
      <path id="DejaVuSans-3a" d="M 750 794 
L 1409 794 
L 1409 0 
L 750 0 
L 750 794 
z
M 750 3309 
L 1409 3309 
L 1409 2516 
L 750 2516 
L 750 3309 
z
" transform="scale(0.015625)"/>
      <path id="DejaVuSans-20" transform="scale(0.015625)"/>
      <path id="DejaVuSans-2e" d="M 684 794 
L 1344 794 
L 1344 0 
L 684 0 
L 684 794 
z
" transform="scale(0.015625)"/>
      <path id="DejaVuSans-64" d="M 2906 2969 
L 2906 4863 
L 3481 4863 
L 3481 0 
L 2906 0 
L 2906 525 
Q 2725 213 2448 61 
Q 2172 -91 1784 -91 
Q 1150 -91 751 415 
Q 353 922 353 1747 
Q 353 2572 751 3078 
Q 1150 3584 1784 3584 
Q 2172 3584 2448 3432 
Q 2725 3281 2906 2969 
z
M 947 1747 
Q 947 1113 1208 752 
Q 1469 391 1925 391 
Q 2381 391 2643 752 
Q 2906 1113 2906 1747 
Q 2906 2381 2643 2742 
Q 2381 3103 1925 3103 
Q 1469 3103 1208 2742 
Q 947 2381 947 1747 
z
" transform="scale(0.015625)"/>
      <path id="DejaVuSans-42" d="M 1259 2228 
L 1259 519 
L 2272 519 
Q 2781 519 3026 730 
Q 3272 941 3272 1375 
Q 3272 1813 3026 2020 
Q 2781 2228 2272 2228 
L 1259 2228 
z
M 1259 4147 
L 1259 2741 
L 2194 2741 
Q 2656 2741 2882 2914 
Q 3109 3088 3109 3444 
Q 3109 3797 2882 3972 
Q 2656 4147 2194 4147 
L 1259 4147 
z
M 628 4666 
L 2241 4666 
Q 2963 4666 3353 4366 
Q 3744 4066 3744 3513 
Q 3744 3084 3544 2831 
Q 3344 2578 2956 2516 
Q 3422 2416 3680 2098 
Q 3938 1781 3938 1306 
Q 3938 681 3513 340 
Q 3088 0 2303 0 
L 628 0 
L 628 4666 
z
" transform="scale(0.015625)"/>
      <path id="DejaVuSans-69" d="M 603 3500 
L 1178 3500 
L 1178 0 
L 603 0 
L 603 3500 
z
M 603 4863 
L 1178 4863 
L 1178 4134 
L 603 4134 
L 603 4863 
z
" transform="scale(0.015625)"/>
     </defs>
     <use xlink:href="#DejaVuSans-47"/>
     <use xlink:href="#DejaVuSans-5f" x="77.490234"/>
     <use xlink:href="#DejaVuSans-63" x="127.490234"/>
     <use xlink:href="#DejaVuSans-73" x="182.470703"/>
     <use xlink:href="#DejaVuSans-74" x="234.570312"/>
     <use xlink:href="#DejaVuSans-3a" x="273.779297"/>
     <use xlink:href="#DejaVuSans-20" x="307.470703"/>
     <use xlink:href="#DejaVuSans-30" x="339.257812"/>
     <use xlink:href="#DejaVuSans-2e" x="402.880859"/>
     <use xlink:href="#DejaVuSans-30" x="434.667969"/>
     <use xlink:href="#DejaVuSans-20" x="498.291016"/>
     <use xlink:href="#DejaVuSans-64" x="530.078125"/>
     <use xlink:href="#DejaVuSans-42" x="593.554688"/>
     <use xlink:href="#DejaVuSans-69" x="662.158203"/>
    </g>
    <!-- G_inpe: -0.7 dBi -->
    <g transform="translate(384.8785 493.297563)scale(0.1 -0.1)">
     <defs>
      <path id="DejaVuSans-6e" d="M 3513 2113 
L 3513 0 
L 2938 0 
L 2938 2094 
Q 2938 2591 2744 2837 
Q 2550 3084 2163 3084 
Q 1697 3084 1428 2787 
Q 1159 2491 1159 1978 
L 1159 0 
L 581 0 
L 581 3500 
L 1159 3500 
L 1159 2956 
Q 1366 3272 1645 3428 
Q 1925 3584 2291 3584 
Q 2894 3584 3203 3211 
Q 3513 2838 3513 2113 
z
" transform="scale(0.015625)"/>
      <path id="DejaVuSans-70" d="M 1159 525 
L 1159 -1331 
L 581 -1331 
L 581 3500 
L 1159 3500 
L 1159 2969 
Q 1341 3281 1617 3432 
Q 1894 3584 2278 3584 
Q 2916 3584 3314 3078 
Q 3713 2572 3713 1747 
Q 3713 922 3314 415 
Q 2916 -91 2278 -91 
Q 1894 -91 1617 61 
Q 1341 213 1159 525 
z
M 3116 1747 
Q 3116 2381 2855 2742 
Q 2594 3103 2138 3103 
Q 1681 3103 1420 2742 
Q 1159 2381 1159 1747 
Q 1159 1113 1420 752 
Q 1681 391 2138 391 
Q 2594 391 2855 752 
Q 3116 1113 3116 1747 
z
" transform="scale(0.015625)"/>
      <path id="DejaVuSans-65" d="M 3597 1894 
L 3597 1613 
L 953 1613 
Q 991 1019 1311 708 
Q 1631 397 2203 397 
Q 2534 397 2845 478 
Q 3156 559 3463 722 
L 3463 178 
Q 3153 47 2828 -22 
Q 2503 -91 2169 -91 
Q 1331 -91 842 396 
Q 353 884 353 1716 
Q 353 2575 817 3079 
Q 1281 3584 2069 3584 
Q 2775 3584 3186 3129 
Q 3597 2675 3597 1894 
z
M 3022 2063 
Q 3016 2534 2758 2815 
Q 2500 3097 2075 3097 
Q 1594 3097 1305 2825 
Q 1016 2553 972 2059 
L 3022 2063 
z
" transform="scale(0.015625)"/>
      <path id="DejaVuSans-2d" d="M 313 2009 
L 1997 2009 
L 1997 1497 
L 313 1497 
L 313 2009 
z
" transform="scale(0.015625)"/>
     </defs>
     <use xlink:href="#DejaVuSans-47"/>
     <use xlink:href="#DejaVuSans-5f" x="77.490234"/>
     <use xlink:href="#DejaVuSans-69" x="127.490234"/>
     <use xlink:href="#DejaVuSans-6e" x="155.273438"/>
     <use xlink:href="#DejaVuSans-70" x="218.652344"/>
     <use xlink:href="#DejaVuSans-65" x="282.128906"/>
     <use xlink:href="#DejaVuSans-3a" x="343.652344"/>
     <use xlink:href="#DejaVuSans-20" x="377.34375"/>
     <use xlink:href="#DejaVuSans-2d" x="409.130859"/>
     <use xlink:href="#DejaVuSans-30" x="445.214844"/>
     <use xlink:href="#DejaVuSans-2e" x="508.837891"/>
     <use xlink:href="#DejaVuSans-37" x="540.625"/>
     <use xlink:href="#DejaVuSans-20" x="604.248047"/>
     <use xlink:href="#DejaVuSans-64" x="636.035156"/>
     <use xlink:href="#DejaVuSans-42" x="699.511719"/>
     <use xlink:href="#DejaVuSans-69" x="768.115234"/>
    </g>
    <!-- Pearson Coef: 0.297 -->
    <g transform="translate(384.8785 504.7735)scale(0.1 -0.1)">
     <defs>
      <path id="DejaVuSans-50" d="M 1259 4147 
L 1259 2394 
L 2053 2394 
Q 2494 2394 2734 2622 
Q 2975 2850 2975 3272 
Q 2975 3691 2734 3919 
Q 2494 4147 2053 4147 
L 1259 4147 
z
M 628 4666 
L 2053 4666 
Q 2838 4666 3239 4311 
Q 3641 3956 3641 3272 
Q 3641 2581 3239 2228 
Q 2838 1875 2053 1875 
L 1259 1875 
L 1259 0 
L 628 0 
L 628 4666 
z
" transform="scale(0.015625)"/>
      <path id="DejaVuSans-61" d="M 2194 1759 
Q 1497 1759 1228 1600 
Q 959 1441 959 1056 
Q 959 750 1161 570 
Q 1363 391 1709 391 
Q 2188 391 2477 730 
Q 2766 1069 2766 1631 
L 2766 1759 
L 2194 1759 
z
M 3341 1997 
L 3341 0 
L 2766 0 
L 2766 531 
Q 2569 213 2275 61 
Q 1981 -91 1556 -91 
Q 1019 -91 701 211 
Q 384 513 384 1019 
Q 384 1609 779 1909 
Q 1175 2209 1959 2209 
L 2766 2209 
L 2766 2266 
Q 2766 2663 2505 2880 
Q 2244 3097 1772 3097 
Q 1472 3097 1187 3025 
Q 903 2953 641 2809 
L 641 3341 
Q 956 3463 1253 3523 
Q 1550 3584 1831 3584 
Q 2591 3584 2966 3190 
Q 3341 2797 3341 1997 
z
" transform="scale(0.015625)"/>
      <path id="DejaVuSans-72" d="M 2631 2963 
Q 2534 3019 2420 3045 
Q 2306 3072 2169 3072 
Q 1681 3072 1420 2755 
Q 1159 2438 1159 1844 
L 1159 0 
L 581 0 
L 581 3500 
L 1159 3500 
L 1159 2956 
Q 1341 3275 1631 3429 
Q 1922 3584 2338 3584 
Q 2397 3584 2469 3576 
Q 2541 3569 2628 3553 
L 2631 2963 
z
" transform="scale(0.015625)"/>
      <path id="DejaVuSans-6f" d="M 1959 3097 
Q 1497 3097 1228 2736 
Q 959 2375 959 1747 
Q 959 1119 1226 758 
Q 1494 397 1959 397 
Q 2419 397 2687 759 
Q 2956 1122 2956 1747 
Q 2956 2369 2687 2733 
Q 2419 3097 1959 3097 
z
M 1959 3584 
Q 2709 3584 3137 3096 
Q 3566 2609 3566 1747 
Q 3566 888 3137 398 
Q 2709 -91 1959 -91 
Q 1206 -91 779 398 
Q 353 888 353 1747 
Q 353 2609 779 3096 
Q 1206 3584 1959 3584 
z
" transform="scale(0.015625)"/>
      <path id="DejaVuSans-43" d="M 4122 4306 
L 4122 3641 
Q 3803 3938 3442 4084 
Q 3081 4231 2675 4231 
Q 1875 4231 1450 3742 
Q 1025 3253 1025 2328 
Q 1025 1406 1450 917 
Q 1875 428 2675 428 
Q 3081 428 3442 575 
Q 3803 722 4122 1019 
L 4122 359 
Q 3791 134 3420 21 
Q 3050 -91 2638 -91 
Q 1578 -91 968 557 
Q 359 1206 359 2328 
Q 359 3453 968 4101 
Q 1578 4750 2638 4750 
Q 3056 4750 3426 4639 
Q 3797 4528 4122 4306 
z
" transform="scale(0.015625)"/>
      <path id="DejaVuSans-66" d="M 2375 4863 
L 2375 4384 
L 1825 4384 
Q 1516 4384 1395 4259 
Q 1275 4134 1275 3809 
L 1275 3500 
L 2222 3500 
L 2222 3053 
L 1275 3053 
L 1275 0 
L 697 0 
L 697 3053 
L 147 3053 
L 147 3500 
L 697 3500 
L 697 3744 
Q 697 4328 969 4595 
Q 1241 4863 1831 4863 
L 2375 4863 
z
" transform="scale(0.015625)"/>
     </defs>
     <use xlink:href="#DejaVuSans-50"/>
     <use xlink:href="#DejaVuSans-65" x="56.677734"/>
     <use xlink:href="#DejaVuSans-61" x="118.201172"/>
     <use xlink:href="#DejaVuSans-72" x="179.480469"/>
     <use xlink:href="#DejaVuSans-73" x="220.59375"/>
     <use xlink:href="#DejaVuSans-6f" x="272.693359"/>
     <use xlink:href="#DejaVuSans-6e" x="333.875"/>
     <use xlink:href="#DejaVuSans-20" x="397.253906"/>
     <use xlink:href="#DejaVuSans-43" x="429.041016"/>
     <use xlink:href="#DejaVuSans-6f" x="498.865234"/>
     <use xlink:href="#DejaVuSans-65" x="560.046875"/>
     <use xlink:href="#DejaVuSans-66" x="621.570312"/>
     <use xlink:href="#DejaVuSans-3a" x="653.150391"/>
     <use xlink:href="#DejaVuSans-20" x="686.841797"/>
     <use xlink:href="#DejaVuSans-30" x="718.628906"/>
     <use xlink:href="#DejaVuSans-2e" x="782.251953"/>
     <use xlink:href="#DejaVuSans-32" x="814.039062"/>
     <use xlink:href="#DejaVuSans-39" x="877.662109"/>
     <use xlink:href="#DejaVuSans-37" x="941.285156"/>
    </g>
   </g>
   <g id="text_16">
    <g id="patch_5">
     <path d="M 52.2385 56.370938 
L 121.861 56.370938 
Q 125.461 56.370938 125.461 52.770938 
L 125.461 41.157188 
Q 125.461 37.557188 121.861 37.557188 
L 52.2385 37.557188 
Q 48.6385 37.557188 48.6385 41.157188 
L 48.6385 52.770938 
Q 48.6385 56.370938 52.2385 56.370938 
z
" style="fill: #ffffff; stroke: #808080; stroke-linejoin: miter"/>
    </g>
    <!-- Freq: 5 GHz -->
    <g transform="translate(52.2385 50.275313)scale(0.12 -0.12)">
     <defs>
      <path id="DejaVuSans-46" d="M 628 4666 
L 3309 4666 
L 3309 4134 
L 1259 4134 
L 1259 2759 
L 3109 2759 
L 3109 2228 
L 1259 2228 
L 1259 0 
L 628 0 
L 628 4666 
z
" transform="scale(0.015625)"/>
      <path id="DejaVuSans-71" d="M 947 1747 
Q 947 1113 1208 752 
Q 1469 391 1925 391 
Q 2381 391 2643 752 
Q 2906 1113 2906 1747 
Q 2906 2381 2643 2742 
Q 2381 3103 1925 3103 
Q 1469 3103 1208 2742 
Q 947 2381 947 1747 
z
M 2906 525 
Q 2725 213 2448 61 
Q 2172 -91 1784 -91 
Q 1150 -91 751 415 
Q 353 922 353 1747 
Q 353 2572 751 3078 
Q 1150 3584 1784 3584 
Q 2172 3584 2448 3432 
Q 2725 3281 2906 2969 
L 2906 3500 
L 3481 3500 
L 3481 -1331 
L 2906 -1331 
L 2906 525 
z
" transform="scale(0.015625)"/>
      <path id="DejaVuSans-48" d="M 628 4666 
L 1259 4666 
L 1259 2753 
L 3553 2753 
L 3553 4666 
L 4184 4666 
L 4184 0 
L 3553 0 
L 3553 2222 
L 1259 2222 
L 1259 0 
L 628 0 
L 628 4666 
z
" transform="scale(0.015625)"/>
      <path id="DejaVuSans-7a" d="M 353 3500 
L 3084 3500 
L 3084 2975 
L 922 459 
L 3084 459 
L 3084 0 
L 275 0 
L 275 525 
L 2438 3041 
L 353 3041 
L 353 3500 
z
" transform="scale(0.015625)"/>
     </defs>
     <use xlink:href="#DejaVuSans-46"/>
     <use xlink:href="#DejaVuSans-72" x="50.269531"/>
     <use xlink:href="#DejaVuSans-65" x="89.132812"/>
     <use xlink:href="#DejaVuSans-71" x="150.65625"/>
     <use xlink:href="#DejaVuSans-3a" x="214.132812"/>
     <use xlink:href="#DejaVuSans-20" x="247.824219"/>
     <use xlink:href="#DejaVuSans-35" x="279.611328"/>
     <use xlink:href="#DejaVuSans-20" x="343.234375"/>
     <use xlink:href="#DejaVuSans-47" x="375.021484"/>
     <use xlink:href="#DejaVuSans-48" x="452.511719"/>
     <use xlink:href="#DejaVuSans-7a" x="527.707031"/>
    </g>
   </g>
   <g id="text_17">
    <!-- Radiation Diagram - 1AVVF05 -->
    <g transform="translate(162.985938 16.318125)scale(0.12 -0.12)">
     <defs>
      <path id="DejaVuSans-52" d="M 2841 2188 
Q 3044 2119 3236 1894 
Q 3428 1669 3622 1275 
L 4263 0 
L 3584 0 
L 2988 1197 
Q 2756 1666 2539 1819 
Q 2322 1972 1947 1972 
L 1259 1972 
L 1259 0 
L 628 0 
L 628 4666 
L 2053 4666 
Q 2853 4666 3247 4331 
Q 3641 3997 3641 3322 
Q 3641 2881 3436 2590 
Q 3231 2300 2841 2188 
z
M 1259 4147 
L 1259 2491 
L 2053 2491 
Q 2509 2491 2742 2702 
Q 2975 2913 2975 3322 
Q 2975 3731 2742 3939 
Q 2509 4147 2053 4147 
L 1259 4147 
z
" transform="scale(0.015625)"/>
      <path id="DejaVuSans-44" d="M 1259 4147 
L 1259 519 
L 2022 519 
Q 2988 519 3436 956 
Q 3884 1394 3884 2338 
Q 3884 3275 3436 3711 
Q 2988 4147 2022 4147 
L 1259 4147 
z
M 628 4666 
L 1925 4666 
Q 3281 4666 3915 4102 
Q 4550 3538 4550 2338 
Q 4550 1131 3912 565 
Q 3275 0 1925 0 
L 628 0 
L 628 4666 
z
" transform="scale(0.015625)"/>
      <path id="DejaVuSans-67" d="M 2906 1791 
Q 2906 2416 2648 2759 
Q 2391 3103 1925 3103 
Q 1463 3103 1205 2759 
Q 947 2416 947 1791 
Q 947 1169 1205 825 
Q 1463 481 1925 481 
Q 2391 481 2648 825 
Q 2906 1169 2906 1791 
z
M 3481 434 
Q 3481 -459 3084 -895 
Q 2688 -1331 1869 -1331 
Q 1566 -1331 1297 -1286 
Q 1028 -1241 775 -1147 
L 775 -588 
Q 1028 -725 1275 -790 
Q 1522 -856 1778 -856 
Q 2344 -856 2625 -561 
Q 2906 -266 2906 331 
L 2906 616 
Q 2728 306 2450 153 
Q 2172 0 1784 0 
Q 1141 0 747 490 
Q 353 981 353 1791 
Q 353 2603 747 3093 
Q 1141 3584 1784 3584 
Q 2172 3584 2450 3431 
Q 2728 3278 2906 2969 
L 2906 3500 
L 3481 3500 
L 3481 434 
z
" transform="scale(0.015625)"/>
      <path id="DejaVuSans-6d" d="M 3328 2828 
Q 3544 3216 3844 3400 
Q 4144 3584 4550 3584 
Q 5097 3584 5394 3201 
Q 5691 2819 5691 2113 
L 5691 0 
L 5113 0 
L 5113 2094 
Q 5113 2597 4934 2840 
Q 4756 3084 4391 3084 
Q 3944 3084 3684 2787 
Q 3425 2491 3425 1978 
L 3425 0 
L 2847 0 
L 2847 2094 
Q 2847 2600 2669 2842 
Q 2491 3084 2119 3084 
Q 1678 3084 1418 2786 
Q 1159 2488 1159 1978 
L 1159 0 
L 581 0 
L 581 3500 
L 1159 3500 
L 1159 2956 
Q 1356 3278 1631 3431 
Q 1906 3584 2284 3584 
Q 2666 3584 2933 3390 
Q 3200 3197 3328 2828 
z
" transform="scale(0.015625)"/>
      <path id="DejaVuSans-41" d="M 2188 4044 
L 1331 1722 
L 3047 1722 
L 2188 4044 
z
M 1831 4666 
L 2547 4666 
L 4325 0 
L 3669 0 
L 3244 1197 
L 1141 1197 
L 716 0 
L 50 0 
L 1831 4666 
z
" transform="scale(0.015625)"/>
      <path id="DejaVuSans-56" d="M 1831 0 
L 50 4666 
L 709 4666 
L 2188 738 
L 3669 4666 
L 4325 4666 
L 2547 0 
L 1831 0 
z
" transform="scale(0.015625)"/>
     </defs>
     <use xlink:href="#DejaVuSans-52"/>
     <use xlink:href="#DejaVuSans-61" x="67.232422"/>
     <use xlink:href="#DejaVuSans-64" x="128.511719"/>
     <use xlink:href="#DejaVuSans-69" x="191.988281"/>
     <use xlink:href="#DejaVuSans-61" x="219.771484"/>
     <use xlink:href="#DejaVuSans-74" x="281.050781"/>
     <use xlink:href="#DejaVuSans-69" x="320.259766"/>
     <use xlink:href="#DejaVuSans-6f" x="348.042969"/>
     <use xlink:href="#DejaVuSans-6e" x="409.224609"/>
     <use xlink:href="#DejaVuSans-20" x="472.603516"/>
     <use xlink:href="#DejaVuSans-44" x="504.390625"/>
     <use xlink:href="#DejaVuSans-69" x="581.392578"/>
     <use xlink:href="#DejaVuSans-61" x="609.175781"/>
     <use xlink:href="#DejaVuSans-67" x="670.455078"/>
     <use xlink:href="#DejaVuSans-72" x="733.931641"/>
     <use xlink:href="#DejaVuSans-61" x="775.044922"/>
     <use xlink:href="#DejaVuSans-6d" x="836.324219"/>
     <use xlink:href="#DejaVuSans-20" x="933.736328"/>
     <use xlink:href="#DejaVuSans-2d" x="965.523438"/>
     <use xlink:href="#DejaVuSans-20" x="1001.607422"/>
     <use xlink:href="#DejaVuSans-31" x="1033.394531"/>
     <use xlink:href="#DejaVuSans-41" x="1097.017578"/>
     <use xlink:href="#DejaVuSans-56" x="1159.050781"/>
     <use xlink:href="#DejaVuSans-56" x="1227.458984"/>
     <use xlink:href="#DejaVuSans-46" x="1295.867188"/>
     <use xlink:href="#DejaVuSans-30" x="1353.386719"/>
     <use xlink:href="#DejaVuSans-35" x="1417.009766"/>
    </g>
   </g>
   <g id="legend_1">
    <g id="patch_6">
     <path d="M 411.802813 78.513438 
L 466.5825 78.513438 
Q 468.5825 78.513438 468.5825 76.513438 
L 468.5825 48.157188 
Q 468.5825 46.157188 466.5825 46.157188 
L 411.802813 46.157188 
Q 409.802813 46.157188 409.802813 48.157188 
L 409.802813 76.513438 
Q 409.802813 78.513438 411.802813 78.513438 
z
" style="fill: #ffffff; opacity: 0.8; stroke: #cccccc; stroke-linejoin: miter"/>
    </g>
    <g id="line2d_17">
     <path d="M 413.802813 54.255625 
L 423.802813 54.255625 
L 433.802813 54.255625 
" style="fill: none; stroke: #ff0000; stroke-width: 1.5; stroke-linecap: square"/>
    </g>
    <g id="text_18">
     <!-- INPE -->
     <g transform="translate(441.802813 57.755625)scale(0.1 -0.1)">
      <defs>
       <path id="DejaVuSans-49" d="M 628 4666 
L 1259 4666 
L 1259 0 
L 628 0 
L 628 4666 
z
" transform="scale(0.015625)"/>
       <path id="DejaVuSans-4e" d="M 628 4666 
L 1478 4666 
L 3547 763 
L 3547 4666 
L 4159 4666 
L 4159 0 
L 3309 0 
L 1241 3903 
L 1241 0 
L 628 0 
L 628 4666 
z
" transform="scale(0.015625)"/>
       <path id="DejaVuSans-45" d="M 628 4666 
L 3578 4666 
L 3578 4134 
L 1259 4134 
L 1259 2753 
L 3481 2753 
L 3481 2222 
L 1259 2222 
L 1259 531 
L 3634 531 
L 3634 0 
L 628 0 
L 628 4666 
z
" transform="scale(0.015625)"/>
      </defs>
      <use xlink:href="#DejaVuSans-49"/>
      <use xlink:href="#DejaVuSans-4e" x="29.492188"/>
      <use xlink:href="#DejaVuSans-50" x="104.296875"/>
      <use xlink:href="#DejaVuSans-45" x="164.599609"/>
     </g>
    </g>
    <g id="line2d_18">
     <path d="M 413.802813 68.93375 
L 423.802813 68.93375 
L 433.802813 68.93375 
" style="fill: none; stroke-dasharray: 5.55,2.4; stroke-dashoffset: 0; stroke: #0000ff; stroke-width: 1.5"/>
    </g>
    <g id="text_19">
     <!-- CST -->
     <g transform="translate(441.802813 72.43375)scale(0.1 -0.1)">
      <defs>
       <path id="DejaVuSans-53" d="M 3425 4513 
L 3425 3897 
Q 3066 4069 2747 4153 
Q 2428 4238 2131 4238 
Q 1616 4238 1336 4038 
Q 1056 3838 1056 3469 
Q 1056 3159 1242 3001 
Q 1428 2844 1947 2747 
L 2328 2669 
Q 3034 2534 3370 2195 
Q 3706 1856 3706 1288 
Q 3706 609 3251 259 
Q 2797 -91 1919 -91 
Q 1588 -91 1214 -16 
Q 841 59 441 206 
L 441 856 
Q 825 641 1194 531 
Q 1563 422 1919 422 
Q 2459 422 2753 634 
Q 3047 847 3047 1241 
Q 3047 1584 2836 1778 
Q 2625 1972 2144 2069 
L 1759 2144 
Q 1053 2284 737 2584 
Q 422 2884 422 3419 
Q 422 4038 858 4394 
Q 1294 4750 2059 4750 
Q 2388 4750 2728 4690 
Q 3069 4631 3425 4513 
z
" transform="scale(0.015625)"/>
       <path id="DejaVuSans-54" d="M -19 4666 
L 3928 4666 
L 3928 4134 
L 2272 4134 
L 2272 0 
L 1638 0 
L 1638 4134 
L -19 4134 
L -19 4666 
z
" transform="scale(0.015625)"/>
      </defs>
      <use xlink:href="#DejaVuSans-43"/>
      <use xlink:href="#DejaVuSans-53" x="69.824219"/>
      <use xlink:href="#DejaVuSans-54" x="133.300781"/>
     </g>
    </g>
   </g>
  </g>
 </g>
 <defs>
  <clipPath id="pcaee8e693a">
   <path d="M 473.5825 262.917188 
C 473.5825 233.795931 467.846247 204.957842 456.702025 178.05331 
C 445.557803 151.148777 429.222338 126.701026 408.6305 106.109188 
C 388.038662 85.51735 363.590911 69.181885 336.686378 58.037662 
C 309.781845 46.89344 280.943756 41.157188 251.8225 41.157188 
C 222.701244 41.157188 193.863155 46.89344 166.958622 58.037662 
C 140.054089 69.181885 115.606338 85.51735 95.0145 106.109188 
C 74.422662 126.701026 58.087197 151.148777 46.942975 178.05331 
C 35.798753 204.957842 30.0625 233.795931 30.0625 262.917188 
C 30.0625 292.038444 35.798753 320.876533 46.942975 347.781065 
C 58.087197 374.685598 74.422662 399.133349 95.0145 419.725187 
C 115.606338 440.317025 140.054089 456.65249 166.958622 467.796713 
C 193.863155 478.940935 222.701244 484.677188 251.8225 484.677188 
C 280.943756 484.677188 309.781845 478.940935 336.686378 467.796713 
C 363.590911 456.65249 388.038662 440.317025 408.6305 419.725187 
C 429.222338 399.133349 445.557803 374.685598 456.702025 347.781065 
C 467.846247 320.876533 473.5825 292.038444 473.5825 262.917188 
M 251.8225 262.917188 
C 251.8225 262.917188 251.8225 262.917188 251.8225 262.917188 
C 251.8225 262.917188 251.8225 262.917188 251.8225 262.917188 
C 251.8225 262.917188 251.8225 262.917188 251.8225 262.917188 
C 251.8225 262.917188 251.8225 262.917188 251.8225 262.917188 
C 251.8225 262.917188 251.8225 262.917188 251.8225 262.917188 
C 251.8225 262.917188 251.8225 262.917188 251.8225 262.917188 
C 251.8225 262.917188 251.8225 262.917188 251.8225 262.917188 
C 251.8225 262.917188 251.8225 262.917188 251.8225 262.917188 
C 251.8225 262.917188 251.8225 262.917188 251.8225 262.917188 
C 251.8225 262.917188 251.8225 262.917188 251.8225 262.917188 
C 251.8225 262.917188 251.8225 262.917188 251.8225 262.917188 
C 251.8225 262.917188 251.8225 262.917188 251.8225 262.917188 
C 251.8225 262.917188 251.8225 262.917188 251.8225 262.917188 
C 251.8225 262.917188 251.8225 262.917188 251.8225 262.917188 
C 251.8225 262.917188 251.8225 262.917188 251.8225 262.917188 
C 251.8225 262.917188 251.8225 262.917188 251.8225 262.917188 
M 473.5825 262.917188 
z
"/>
  </clipPath>
 </defs>
</svg>
