<?xml version="1.0" encoding="utf-8" standalone="no"?>
<!DOCTYPE svg PUBLIC "-//W3C//DTD SVG 1.1//EN"
  "http://www.w3.org/Graphics/SVG/1.1/DTD/svg11.dtd">
<svg xmlns:xlink="http://www.w3.org/1999/xlink" width="392.765pt" height="399.83625pt" viewBox="0 0 392.765 399.83625" xmlns="http://www.w3.org/2000/svg" version="1.1">
 <metadata>
  <rdf:RDF xmlns:dc="http://purl.org/dc/elements/1.1/" xmlns:cc="http://creativecommons.org/ns#" xmlns:rdf="http://www.w3.org/1999/02/22-rdf-syntax-ns#">
   <cc:Work>
    <dc:type rdf:resource="http://purl.org/dc/dcmitype/StillImage"/>
    <dc:date>2023-11-01T17:05:59.277560</dc:date>
    <dc:format>image/svg+xml</dc:format>
    <dc:creator>
     <cc:Agent>
      <dc:title>Matplotlib v3.5.1, https://matplotlib.org/</dc:title>
     </cc:Agent>
    </dc:creator>
   </cc:Work>
  </rdf:RDF>
 </metadata>
 <defs>
  <style type="text/css">*{stroke-linejoin: round; stroke-linecap: butt}</style>
 </defs>
 <g id="figure_1">
  <g id="patch_1">
   <path d="M 0 399.83625 
L 392.765 399.83625 
L 392.765 0 
L 0 0 
z
" style="fill: #ffffff"/>
  </g>
  <g id="axes_1">
   <g id="patch_2">
    <path d="M 365.88375 207.477187 
C 365.88375 185.636245 361.581561 164.007679 353.223394 143.829279 
C 344.865227 123.650879 332.613628 105.315066 317.16975 89.871188 
C 301.725871 74.427309 283.390058 62.17571 263.211658 53.817544 
C 243.033259 45.459377 221.404692 41.157187 199.56375 41.157187 
C 177.722808 41.157187 156.094241 45.459377 135.915842 53.817544 
C 115.737442 62.17571 97.401629 74.427309 81.95775 89.871188 
C 66.513872 105.315066 54.262273 123.650879 45.904106 143.829279 
C 37.545939 164.007679 33.24375 185.636245 33.24375 207.477187 
C 33.24375 229.31813 37.545939 250.946696 45.904106 271.125096 
C 54.262273 291.303496 66.513872 309.639309 81.95775 325.083187 
C 97.401629 340.527066 115.737442 352.778665 135.915842 361.136831 
C 156.094241 369.494998 177.722808 373.797188 199.56375 373.797188 
C 221.404692 373.797188 243.033259 369.494998 263.211658 361.136831 
C 283.390058 352.778665 301.725871 340.527066 317.16975 325.083187 
C 332.613628 309.639309 344.865227 291.303496 353.223394 271.125096 
C 361.581561 250.946696 365.88375 229.31813 365.88375 207.477188 
M 199.56375 207.477187 
C 199.56375 207.477187 199.56375 207.477187 199.56375 207.477187 
C 199.56375 207.477187 199.56375 207.477187 199.56375 207.477187 
C 199.56375 207.477187 199.56375 207.477187 199.56375 207.477187 
C 199.56375 207.477187 199.56375 207.477187 199.56375 207.477187 
C 199.56375 207.477187 199.56375 207.477187 199.56375 207.477187 
C 199.56375 207.477187 199.56375 207.477187 199.56375 207.477187 
C 199.56375 207.477187 199.56375 207.477187 199.56375 207.477187 
C 199.56375 207.477187 199.56375 207.477187 199.56375 207.477187 
C 199.56375 207.477187 199.56375 207.477187 199.56375 207.477187 
C 199.56375 207.477187 199.56375 207.477187 199.56375 207.477187 
C 199.56375 207.477187 199.56375 207.477187 199.56375 207.477187 
C 199.56375 207.477187 199.56375 207.477187 199.56375 207.477187 
C 199.56375 207.477187 199.56375 207.477187 199.56375 207.477187 
C 199.56375 207.477187 199.56375 207.477187 199.56375 207.477187 
C 199.56375 207.477187 199.56375 207.477187 199.56375 207.477187 
C 199.56375 207.477187 199.56375 207.477187 199.56375 207.477187 
M 365.88375 207.477187 
z
" style="fill: #ffffff"/>
   </g>
   <g id="matplotlib.axis_1">
    <g id="xtick_1">
     <g id="line2d_1">
      <path d="M 199.56375 207.477187 
L 365.88375 207.477187 
" clip-path="url(#pa59ca14fe5)" style="fill: none; stroke: #b0b0b0; stroke-width: 0.8; stroke-linecap: square"/>
     </g>
     <g id="text_1">
      <!-- 0° -->
      <g transform="translate(374.2025 210.236562)scale(0.1 -0.1)">
       <defs>
        <path id="DejaVuSans-30" d="M 2034 4250 
Q 1547 4250 1301 3770 
Q 1056 3291 1056 2328 
Q 1056 1369 1301 889 
Q 1547 409 2034 409 
Q 2525 409 2770 889 
Q 3016 1369 3016 2328 
Q 3016 3291 2770 3770 
Q 2525 4250 2034 4250 
z
M 2034 4750 
Q 2819 4750 3233 4129 
Q 3647 3509 3647 2328 
Q 3647 1150 3233 529 
Q 2819 -91 2034 -91 
Q 1250 -91 836 529 
Q 422 1150 422 2328 
Q 422 3509 836 4129 
Q 1250 4750 2034 4750 
z
" transform="scale(0.015625)"/>
        <path id="DejaVuSans-b0" d="M 1600 4347 
Q 1350 4347 1178 4173 
Q 1006 4000 1006 3750 
Q 1006 3503 1178 3333 
Q 1350 3163 1600 3163 
Q 1850 3163 2022 3333 
Q 2194 3503 2194 3750 
Q 2194 3997 2020 4172 
Q 1847 4347 1600 4347 
z
M 1600 4750 
Q 1800 4750 1984 4673 
Q 2169 4597 2303 4453 
Q 2447 4313 2519 4134 
Q 2591 3956 2591 3750 
Q 2591 3338 2302 3052 
Q 2013 2766 1594 2766 
Q 1172 2766 890 3047 
Q 609 3328 609 3750 
Q 609 4169 896 4459 
Q 1184 4750 1600 4750 
z
" transform="scale(0.015625)"/>
       </defs>
       <use xlink:href="#DejaVuSans-30"/>
       <use xlink:href="#DejaVuSans-b0" x="63.623047"/>
      </g>
     </g>
    </g>
    <g id="xtick_2">
     <g id="line2d_2">
      <path d="M 199.56375 207.477187 
L 317.16975 89.871188 
" clip-path="url(#pa59ca14fe5)" style="fill: none; stroke: #b0b0b0; stroke-width: 0.8; stroke-linecap: square"/>
     </g>
     <g id="text_2">
      <!-- 45° -->
      <g transform="translate(318.206745 82.731068)scale(0.1 -0.1)">
       <defs>
        <path id="DejaVuSans-34" d="M 2419 4116 
L 825 1625 
L 2419 1625 
L 2419 4116 
z
M 2253 4666 
L 3047 4666 
L 3047 1625 
L 3713 1625 
L 3713 1100 
L 3047 1100 
L 3047 0 
L 2419 0 
L 2419 1100 
L 313 1100 
L 313 1709 
L 2253 4666 
z
" transform="scale(0.015625)"/>
        <path id="DejaVuSans-35" d="M 691 4666 
L 3169 4666 
L 3169 4134 
L 1269 4134 
L 1269 2991 
Q 1406 3038 1543 3061 
Q 1681 3084 1819 3084 
Q 2600 3084 3056 2656 
Q 3513 2228 3513 1497 
Q 3513 744 3044 326 
Q 2575 -91 1722 -91 
Q 1428 -91 1123 -41 
Q 819 9 494 109 
L 494 744 
Q 775 591 1075 516 
Q 1375 441 1709 441 
Q 2250 441 2565 725 
Q 2881 1009 2881 1497 
Q 2881 1984 2565 2268 
Q 2250 2553 1709 2553 
Q 1456 2553 1204 2497 
Q 953 2441 691 2322 
L 691 4666 
z
" transform="scale(0.015625)"/>
       </defs>
       <use xlink:href="#DejaVuSans-34"/>
       <use xlink:href="#DejaVuSans-35" x="63.623047"/>
       <use xlink:href="#DejaVuSans-b0" x="127.246094"/>
      </g>
     </g>
    </g>
    <g id="xtick_3">
     <g id="line2d_3">
      <path d="M 199.56375 207.477187 
L 199.56375 41.157187 
" clip-path="url(#pa59ca14fe5)" style="fill: none; stroke: #b0b0b0; stroke-width: 0.8; stroke-linecap: square"/>
     </g>
     <g id="text_3">
      <!-- 90° -->
      <g transform="translate(190.70125 29.916562)scale(0.1 -0.1)">
       <defs>
        <path id="DejaVuSans-39" d="M 703 97 
L 703 672 
Q 941 559 1184 500 
Q 1428 441 1663 441 
Q 2288 441 2617 861 
Q 2947 1281 2994 2138 
Q 2813 1869 2534 1725 
Q 2256 1581 1919 1581 
Q 1219 1581 811 2004 
Q 403 2428 403 3163 
Q 403 3881 828 4315 
Q 1253 4750 1959 4750 
Q 2769 4750 3195 4129 
Q 3622 3509 3622 2328 
Q 3622 1225 3098 567 
Q 2575 -91 1691 -91 
Q 1453 -91 1209 -44 
Q 966 3 703 97 
z
M 1959 2075 
Q 2384 2075 2632 2365 
Q 2881 2656 2881 3163 
Q 2881 3666 2632 3958 
Q 2384 4250 1959 4250 
Q 1534 4250 1286 3958 
Q 1038 3666 1038 3163 
Q 1038 2656 1286 2365 
Q 1534 2075 1959 2075 
z
" transform="scale(0.015625)"/>
       </defs>
       <use xlink:href="#DejaVuSans-39"/>
       <use xlink:href="#DejaVuSans-30" x="63.623047"/>
       <use xlink:href="#DejaVuSans-b0" x="127.246094"/>
      </g>
     </g>
    </g>
    <g id="xtick_4">
     <g id="line2d_4">
      <path d="M 199.56375 207.477187 
L 81.95775 89.871188 
" clip-path="url(#pa59ca14fe5)" style="fill: none; stroke: #b0b0b0; stroke-width: 0.8; stroke-linecap: square"/>
     </g>
     <g id="text_4">
      <!-- 135° -->
      <g transform="translate(60.014505 82.731068)scale(0.1 -0.1)">
       <defs>
        <path id="DejaVuSans-31" d="M 794 531 
L 1825 531 
L 1825 4091 
L 703 3866 
L 703 4441 
L 1819 4666 
L 2450 4666 
L 2450 531 
L 3481 531 
L 3481 0 
L 794 0 
L 794 531 
z
" transform="scale(0.015625)"/>
        <path id="DejaVuSans-33" d="M 2597 2516 
Q 3050 2419 3304 2112 
Q 3559 1806 3559 1356 
Q 3559 666 3084 287 
Q 2609 -91 1734 -91 
Q 1441 -91 1130 -33 
Q 819 25 488 141 
L 488 750 
Q 750 597 1062 519 
Q 1375 441 1716 441 
Q 2309 441 2620 675 
Q 2931 909 2931 1356 
Q 2931 1769 2642 2001 
Q 2353 2234 1838 2234 
L 1294 2234 
L 1294 2753 
L 1863 2753 
Q 2328 2753 2575 2939 
Q 2822 3125 2822 3475 
Q 2822 3834 2567 4026 
Q 2313 4219 1838 4219 
Q 1578 4219 1281 4162 
Q 984 4106 628 3988 
L 628 4550 
Q 988 4650 1302 4700 
Q 1616 4750 1894 4750 
Q 2613 4750 3031 4423 
Q 3450 4097 3450 3541 
Q 3450 3153 3228 2886 
Q 3006 2619 2597 2516 
z
" transform="scale(0.015625)"/>
       </defs>
       <use xlink:href="#DejaVuSans-31"/>
       <use xlink:href="#DejaVuSans-33" x="63.623047"/>
       <use xlink:href="#DejaVuSans-35" x="127.246094"/>
       <use xlink:href="#DejaVuSans-b0" x="190.869141"/>
      </g>
     </g>
    </g>
    <g id="xtick_5">
     <g id="line2d_5">
      <path d="M 199.56375 207.477187 
L 33.24375 207.477187 
" clip-path="url(#pa59ca14fe5)" style="fill: none; stroke: #b0b0b0; stroke-width: 0.8; stroke-linecap: square"/>
     </g>
     <g id="text_5">
      <!-- 180° -->
      <g transform="translate(7.2 210.236562)scale(0.1 -0.1)">
       <defs>
        <path id="DejaVuSans-38" d="M 2034 2216 
Q 1584 2216 1326 1975 
Q 1069 1734 1069 1313 
Q 1069 891 1326 650 
Q 1584 409 2034 409 
Q 2484 409 2743 651 
Q 3003 894 3003 1313 
Q 3003 1734 2745 1975 
Q 2488 2216 2034 2216 
z
M 1403 2484 
Q 997 2584 770 2862 
Q 544 3141 544 3541 
Q 544 4100 942 4425 
Q 1341 4750 2034 4750 
Q 2731 4750 3128 4425 
Q 3525 4100 3525 3541 
Q 3525 3141 3298 2862 
Q 3072 2584 2669 2484 
Q 3125 2378 3379 2068 
Q 3634 1759 3634 1313 
Q 3634 634 3220 271 
Q 2806 -91 2034 -91 
Q 1263 -91 848 271 
Q 434 634 434 1313 
Q 434 1759 690 2068 
Q 947 2378 1403 2484 
z
M 1172 3481 
Q 1172 3119 1398 2916 
Q 1625 2713 2034 2713 
Q 2441 2713 2670 2916 
Q 2900 3119 2900 3481 
Q 2900 3844 2670 4047 
Q 2441 4250 2034 4250 
Q 1625 4250 1398 4047 
Q 1172 3844 1172 3481 
z
" transform="scale(0.015625)"/>
       </defs>
       <use xlink:href="#DejaVuSans-31"/>
       <use xlink:href="#DejaVuSans-38" x="63.623047"/>
       <use xlink:href="#DejaVuSans-30" x="127.246094"/>
       <use xlink:href="#DejaVuSans-b0" x="190.869141"/>
      </g>
     </g>
    </g>
    <g id="xtick_6">
     <g id="line2d_6">
      <path d="M 199.56375 207.477187 
L 81.95775 325.083187 
" clip-path="url(#pa59ca14fe5)" style="fill: none; stroke: #b0b0b0; stroke-width: 0.8; stroke-linecap: square"/>
     </g>
     <g id="text_6">
      <!-- 225° -->
      <g transform="translate(60.014505 337.742057)scale(0.1 -0.1)">
       <defs>
        <path id="DejaVuSans-32" d="M 1228 531 
L 3431 531 
L 3431 0 
L 469 0 
L 469 531 
Q 828 903 1448 1529 
Q 2069 2156 2228 2338 
Q 2531 2678 2651 2914 
Q 2772 3150 2772 3378 
Q 2772 3750 2511 3984 
Q 2250 4219 1831 4219 
Q 1534 4219 1204 4116 
Q 875 4013 500 3803 
L 500 4441 
Q 881 4594 1212 4672 
Q 1544 4750 1819 4750 
Q 2544 4750 2975 4387 
Q 3406 4025 3406 3419 
Q 3406 3131 3298 2873 
Q 3191 2616 2906 2266 
Q 2828 2175 2409 1742 
Q 1991 1309 1228 531 
z
" transform="scale(0.015625)"/>
       </defs>
       <use xlink:href="#DejaVuSans-32"/>
       <use xlink:href="#DejaVuSans-32" x="63.623047"/>
       <use xlink:href="#DejaVuSans-35" x="127.246094"/>
       <use xlink:href="#DejaVuSans-b0" x="190.869141"/>
      </g>
     </g>
    </g>
    <g id="xtick_7">
     <g id="line2d_7">
      <path d="M 199.56375 207.477187 
L 199.56375 373.797188 
" clip-path="url(#pa59ca14fe5)" style="fill: none; stroke: #b0b0b0; stroke-width: 0.8; stroke-linecap: square"/>
     </g>
     <g id="text_7">
      <!-- 270° -->
      <g transform="translate(187.52 390.556562)scale(0.1 -0.1)">
       <defs>
        <path id="DejaVuSans-37" d="M 525 4666 
L 3525 4666 
L 3525 4397 
L 1831 0 
L 1172 0 
L 2766 4134 
L 525 4134 
L 525 4666 
z
" transform="scale(0.015625)"/>
       </defs>
       <use xlink:href="#DejaVuSans-32"/>
       <use xlink:href="#DejaVuSans-37" x="63.623047"/>
       <use xlink:href="#DejaVuSans-30" x="127.246094"/>
       <use xlink:href="#DejaVuSans-b0" x="190.869141"/>
      </g>
     </g>
    </g>
    <g id="xtick_8">
     <g id="line2d_8">
      <path d="M 199.56375 207.477187 
L 317.16975 325.083187 
" clip-path="url(#pa59ca14fe5)" style="fill: none; stroke: #b0b0b0; stroke-width: 0.8; stroke-linecap: square"/>
     </g>
     <g id="text_8">
      <!-- 315° -->
      <g transform="translate(315.025495 337.742057)scale(0.1 -0.1)">
       <use xlink:href="#DejaVuSans-33"/>
       <use xlink:href="#DejaVuSans-31" x="63.623047"/>
       <use xlink:href="#DejaVuSans-35" x="127.246094"/>
       <use xlink:href="#DejaVuSans-b0" x="190.869141"/>
      </g>
     </g>
    </g>
   </g>
   <g id="matplotlib.axis_2">
    <g id="ytick_1">
     <g id="line2d_9">
      <path d="M 221.419714 207.477187 
C 221.419714 204.607089 220.854367 201.764898 219.756028 199.113272 
C 218.657689 196.461647 217.047717 194.052154 215.01825 192.022687 
C 212.988784 189.993221 210.579291 188.383249 207.927665 187.28491 
C 205.27604 186.18657 202.433849 185.621223 199.56375 185.621223 
C 196.693651 185.621223 193.85146 186.18657 191.199835 187.28491 
C 188.548209 188.383249 186.138716 189.993221 184.10925 192.022687 
C 182.079783 194.052154 180.469811 196.461647 179.371472 199.113272 
C 178.273133 201.764898 177.707786 204.607089 177.707786 207.477187 
C 177.707786 210.347286 178.273133 213.189477 179.371472 215.841103 
C 180.469811 218.492728 182.079783 220.902221 184.10925 222.931688 
C 186.138716 224.961154 188.548209 226.571126 191.199835 227.669465 
C 193.85146 228.767805 196.693651 229.333152 199.56375 229.333152 
C 202.433849 229.333152 205.27604 228.767805 207.927665 227.669465 
C 210.579291 226.571126 212.988784 224.961154 215.01825 222.931688 
C 217.047717 220.902221 218.657689 218.492728 219.756028 215.841103 
C 220.854367 213.189477 221.419714 210.347286 221.419714 207.477187 
" clip-path="url(#pa59ca14fe5)" style="fill: none; stroke: #b0b0b0; stroke-width: 0.8; stroke-linecap: square"/>
     </g>
     <g id="text_9">
      <!-- −30 -->
      <g transform="translate(219.756028 197.033585)scale(0.1 -0.1)">
       <defs>
        <path id="DejaVuSans-2212" d="M 678 2272 
L 4684 2272 
L 4684 1741 
L 678 1741 
L 678 2272 
z
" transform="scale(0.015625)"/>
       </defs>
       <use xlink:href="#DejaVuSans-2212"/>
       <use xlink:href="#DejaVuSans-33" x="83.789062"/>
       <use xlink:href="#DejaVuSans-30" x="147.412109"/>
      </g>
     </g>
    </g>
    <g id="ytick_2">
     <g id="line2d_10">
      <path d="M 235.866118 207.477187 
C 235.866118 202.710004 234.927086 197.989176 233.102764 193.584873 
C 231.278442 189.18057 228.604308 185.178445 225.2334 181.807537 
C 221.862493 178.43663 217.860368 175.762495 213.456065 173.938173 
C 209.051762 172.113851 204.330933 171.17482 199.56375 171.17482 
C 194.796567 171.17482 190.075738 172.113851 185.671435 173.938173 
C 181.267132 175.762495 177.265007 178.43663 173.8941 181.807537 
C 170.523192 185.178445 167.849058 189.18057 166.024736 193.584873 
C 164.200414 197.989176 163.261382 202.710004 163.261382 207.477187 
C 163.261382 212.244371 164.200414 216.965199 166.024736 221.369502 
C 167.849058 225.773805 170.523192 229.77593 173.8941 233.146838 
C 177.265007 236.517745 181.267132 239.19188 185.671435 241.016202 
C 190.075738 242.840524 194.796567 243.779555 199.56375 243.779555 
C 204.330933 243.779555 209.051762 242.840524 213.456065 241.016202 
C 217.860368 239.19188 221.862493 236.517745 225.2334 233.146838 
C 228.604308 229.77593 231.278442 225.773805 233.102764 221.369502 
C 234.927086 216.965199 235.866118 212.244371 235.866118 207.477187 
" clip-path="url(#pa59ca14fe5)" style="fill: none; stroke: #b0b0b0; stroke-width: 0.8; stroke-linecap: square"/>
     </g>
     <g id="text_10">
      <!-- −27 -->
      <g transform="translate(233.102764 191.505185)scale(0.1 -0.1)">
       <use xlink:href="#DejaVuSans-2212"/>
       <use xlink:href="#DejaVuSans-32" x="83.789062"/>
       <use xlink:href="#DejaVuSans-37" x="147.412109"/>
      </g>
     </g>
    </g>
    <g id="ytick_3">
     <g id="line2d_11">
      <path d="M 250.312521 207.477187 
C 250.312521 200.81292 248.999806 194.213454 246.449501 188.056474 
C 243.899196 181.899493 240.160899 176.304736 235.44855 171.592387 
C 230.736201 166.880038 225.141444 163.141741 218.984464 160.591436 
C 212.827484 158.041132 206.228018 156.728416 199.56375 156.728416 
C 192.899482 156.728416 186.300016 158.041132 180.143036 160.591436 
C 173.986056 163.141741 168.391299 166.880038 163.67895 171.592387 
C 158.966601 176.304736 155.228304 181.899493 152.677999 188.056474 
C 150.127694 194.213454 148.814979 200.81292 148.814979 207.477187 
C 148.814979 214.141455 150.127694 220.740921 152.677999 226.897901 
C 155.228304 233.054882 158.966601 238.649639 163.67895 243.361988 
C 168.391299 248.074337 173.986056 251.812634 180.143036 254.362939 
C 186.300016 256.913243 192.899482 258.225959 199.56375 258.225959 
C 206.228018 258.225959 212.827484 256.913243 218.984464 254.362939 
C 225.141444 251.812634 230.736201 248.074337 235.44855 243.361988 
C 240.160899 238.649639 243.899196 233.054882 246.449501 226.897901 
C 248.999806 220.740921 250.312521 214.141455 250.312521 207.477187 
" clip-path="url(#pa59ca14fe5)" style="fill: none; stroke: #b0b0b0; stroke-width: 0.8; stroke-linecap: square"/>
     </g>
     <g id="text_11">
      <!-- −24 -->
      <g transform="translate(246.449501 185.976786)scale(0.1 -0.1)">
       <use xlink:href="#DejaVuSans-2212"/>
       <use xlink:href="#DejaVuSans-32" x="83.789062"/>
       <use xlink:href="#DejaVuSans-34" x="147.412109"/>
      </g>
     </g>
    </g>
    <g id="ytick_4">
     <g id="line2d_12">
      <path d="M 264.758925 207.477187 
C 264.758925 198.915836 263.072525 190.437732 259.796238 182.528074 
C 256.51995 174.618416 251.71749 167.431027 245.6637 161.377237 
C 239.60991 155.323447 232.422521 150.520987 224.512863 147.2447 
C 216.603205 143.968412 208.125102 142.282013 199.56375 142.282013 
C 191.002398 142.282013 182.524295 143.968412 174.614637 147.2447 
C 166.704979 150.520987 159.51759 155.323447 153.4638 161.377237 
C 147.41001 167.431027 142.60755 174.618416 139.331262 182.528074 
C 136.054975 190.437732 134.368575 198.915836 134.368575 207.477187 
C 134.368575 216.038539 136.054975 224.516643 139.331262 232.426301 
C 142.60755 240.335959 147.41001 247.523348 153.4638 253.577138 
C 159.51759 259.630928 166.704979 264.433388 174.614637 267.709675 
C 182.524295 270.985963 191.002398 272.672362 199.56375 272.672362 
C 208.125102 272.672362 216.603205 270.985963 224.512863 267.709675 
C 232.422521 264.433388 239.60991 259.630928 245.6637 253.577138 
C 251.71749 247.523348 256.51995 240.335959 259.796238 232.426301 
C 263.072525 224.516643 264.758925 216.038539 264.758925 207.477188 
" clip-path="url(#pa59ca14fe5)" style="fill: none; stroke: #b0b0b0; stroke-width: 0.8; stroke-linecap: square"/>
     </g>
     <g id="text_12">
      <!-- −21 -->
      <g transform="translate(259.796238 180.448387)scale(0.1 -0.1)">
       <use xlink:href="#DejaVuSans-2212"/>
       <use xlink:href="#DejaVuSans-32" x="83.789062"/>
       <use xlink:href="#DejaVuSans-31" x="147.412109"/>
      </g>
     </g>
    </g>
    <g id="ytick_5">
     <g id="line2d_13">
      <path d="M 279.205328 207.477187 
C 279.205328 197.018751 277.145245 186.66201 273.142974 176.999675 
C 269.140704 167.33734 263.274081 158.557319 255.87885 151.162087 
C 248.483619 143.766856 239.703598 137.900234 230.041263 133.897963 
C 220.378927 129.895693 210.022186 127.835609 199.56375 127.835609 
C 189.105314 127.835609 178.748573 129.895693 169.086237 133.897963 
C 159.423902 137.900234 150.643881 143.766856 143.24865 151.162087 
C 135.853419 158.557319 129.986796 167.33734 125.984526 176.999675 
C 121.982255 186.66201 119.922172 197.018751 119.922172 207.477187 
C 119.922172 217.935624 121.982255 228.292365 125.984526 237.9547 
C 129.986796 247.617035 135.853419 256.397056 143.24865 263.792288 
C 150.643881 271.187519 159.423902 277.054141 169.086237 281.056412 
C 178.748573 285.058682 189.105314 287.118766 199.56375 287.118766 
C 210.022186 287.118766 220.378927 285.058682 230.041263 281.056412 
C 239.703598 277.054141 248.483619 271.187519 255.87885 263.792288 
C 263.274081 256.397056 269.140704 247.617035 273.142974 237.9547 
C 277.145245 228.292365 279.205328 217.935624 279.205328 207.477188 
" clip-path="url(#pa59ca14fe5)" style="fill: none; stroke: #b0b0b0; stroke-width: 0.8; stroke-linecap: square"/>
     </g>
     <g id="text_13">
      <!-- −18 -->
      <g transform="translate(273.142974 174.919987)scale(0.1 -0.1)">
       <use xlink:href="#DejaVuSans-2212"/>
       <use xlink:href="#DejaVuSans-31" x="83.789062"/>
       <use xlink:href="#DejaVuSans-38" x="147.412109"/>
      </g>
     </g>
    </g>
    <g id="ytick_6">
     <g id="line2d_14">
      <path d="M 293.651732 207.477187 
C 293.651732 195.121667 291.217964 182.886288 286.489711 171.471276 
C 281.761458 160.056263 274.830672 149.68361 266.094 140.946937 
C 257.357328 132.210265 246.984674 125.27948 235.569662 120.551227 
C 224.154649 115.822974 211.919271 113.389205 199.56375 113.389205 
C 187.208229 113.389205 174.972851 115.822974 163.557838 120.551227 
C 152.142826 125.27948 141.770172 132.210265 133.0335 140.946937 
C 124.296828 149.68361 117.366042 160.056263 112.637789 171.471276 
C 107.909536 182.886288 105.475768 195.121667 105.475768 207.477187 
C 105.475768 219.832708 107.909536 232.068087 112.637789 243.483099 
C 117.366042 254.898112 124.296828 265.270765 133.0335 274.007438 
C 141.770172 282.74411 152.142826 289.674895 163.557838 294.403148 
C 174.972851 299.131401 187.208229 301.56517 199.56375 301.56517 
C 211.919271 301.56517 224.154649 299.131401 235.569662 294.403148 
C 246.984674 289.674895 257.357328 282.74411 266.094 274.007438 
C 274.830672 265.270765 281.761458 254.898112 286.489711 243.483099 
C 291.217964 232.068087 293.651732 219.832708 293.651732 207.477188 
" clip-path="url(#pa59ca14fe5)" style="fill: none; stroke: #b0b0b0; stroke-width: 0.8; stroke-linecap: square"/>
     </g>
     <g id="text_14">
      <!-- −15 -->
      <g transform="translate(286.489711 169.391588)scale(0.1 -0.1)">
       <use xlink:href="#DejaVuSans-2212"/>
       <use xlink:href="#DejaVuSans-31" x="83.789062"/>
       <use xlink:href="#DejaVuSans-35" x="147.412109"/>
      </g>
     </g>
    </g>
    <g id="ytick_7">
     <g id="line2d_15">
      <path d="M 308.098136 207.477187 
C 308.098136 193.224583 305.290683 179.110566 299.836447 165.942876 
C 294.382212 152.775186 286.387264 140.809901 276.30915 130.731787 
C 266.231036 120.653674 254.265751 112.658726 241.098061 107.20449 
C 227.930371 101.750254 213.816355 98.942802 199.56375 98.942802 
C 185.311145 98.942802 171.197129 101.750254 158.029439 107.20449 
C 144.861749 112.658726 132.896464 120.653674 122.81835 130.731787 
C 112.740236 140.809901 104.745288 152.775186 99.291053 165.942876 
C 93.836817 179.110566 91.029364 193.224583 91.029364 207.477187 
C 91.029364 221.729792 93.836817 235.843809 99.291053 249.011499 
C 104.745288 262.179189 112.740236 274.144474 122.81835 284.222588 
C 132.896464 294.300701 144.861749 302.295649 158.029439 307.749885 
C 171.197129 313.204121 185.311145 316.011573 199.56375 316.011573 
C 213.816355 316.011573 227.930371 313.204121 241.098061 307.749885 
C 254.265751 302.295649 266.231036 294.300701 276.30915 284.222588 
C 286.387264 274.144474 294.382212 262.179189 299.836447 249.011499 
C 305.290683 235.843809 308.098136 221.729792 308.098136 207.477188 
" clip-path="url(#pa59ca14fe5)" style="fill: none; stroke: #b0b0b0; stroke-width: 0.8; stroke-linecap: square"/>
     </g>
     <g id="text_15">
      <!-- −12 -->
      <g transform="translate(299.836447 163.863189)scale(0.1 -0.1)">
       <use xlink:href="#DejaVuSans-2212"/>
       <use xlink:href="#DejaVuSans-31" x="83.789062"/>
       <use xlink:href="#DejaVuSans-32" x="147.412109"/>
      </g>
     </g>
    </g>
    <g id="ytick_8">
     <g id="line2d_16">
      <path d="M 322.544539 207.477187 
C 322.544539 191.327498 319.363403 175.334844 313.183184 160.414477 
C 307.002966 145.49411 297.943855 131.936192 286.5243 120.516637 
C 275.104745 109.097083 261.546828 100.037972 246.626461 93.857753 
C 231.706093 87.677535 215.713439 84.496398 199.56375 84.496398 
C 183.414061 84.496398 167.421407 87.677535 152.501039 93.857753 
C 137.580672 100.037972 124.022755 109.097083 112.6032 120.516637 
C 101.183645 131.936192 92.124534 145.49411 85.944316 160.414477 
C 79.764097 175.334844 76.582961 191.327498 76.582961 207.477187 
C 76.582961 223.626877 79.764097 239.619531 85.944316 254.539898 
C 92.124534 269.460265 101.183645 283.018183 112.6032 294.437738 
C 124.022755 305.857292 137.580672 314.916403 152.501039 321.096622 
C 167.421407 327.27684 183.414061 330.457977 199.56375 330.457977 
C 215.713439 330.457977 231.706093 327.27684 246.626461 321.096622 
C 261.546828 314.916403 275.104745 305.857292 286.5243 294.437738 
C 297.943855 283.018183 307.002966 269.460265 313.183184 254.539898 
C 319.363403 239.619531 322.544539 223.626877 322.544539 207.477188 
" clip-path="url(#pa59ca14fe5)" style="fill: none; stroke: #b0b0b0; stroke-width: 0.8; stroke-linecap: square"/>
     </g>
     <g id="text_16">
      <!-- −9 -->
      <g transform="translate(313.183184 158.334789)scale(0.1 -0.1)">
       <use xlink:href="#DejaVuSans-2212"/>
       <use xlink:href="#DejaVuSans-39" x="83.789062"/>
      </g>
     </g>
    </g>
    <g id="ytick_9">
     <g id="line2d_17">
      <path d="M 336.990943 207.477187 
C 336.990943 189.430414 333.436122 171.559122 326.529921 154.886078 
C 319.623719 138.213033 309.500446 123.062484 296.73945 110.301488 
C 283.978454 97.540492 268.827905 87.417218 252.15486 80.511017 
C 235.481815 73.604816 217.610524 70.049995 199.56375 70.049995 
C 181.516976 70.049995 163.645685 73.604816 146.97264 80.511017 
C 130.299595 87.417218 115.149046 97.540492 102.38805 110.301488 
C 89.627054 123.062484 79.503781 138.213033 72.597579 154.886078 
C 65.691378 171.559122 62.136557 189.430414 62.136557 207.477187 
C 62.136557 225.523961 65.691378 243.395253 72.597579 260.068297 
C 79.503781 276.741342 89.627054 291.891891 102.38805 304.652887 
C 115.149046 317.413883 130.299595 327.537157 146.97264 334.443358 
C 163.645685 341.349559 181.516976 344.90438 199.56375 344.90438 
C 217.610524 344.90438 235.481815 341.349559 252.15486 334.443358 
C 268.827905 327.537157 283.978454 317.413883 296.73945 304.652887 
C 309.500446 291.891891 319.623719 276.741342 326.529921 260.068297 
C 333.436122 243.395253 336.990943 225.523961 336.990943 207.477188 
" clip-path="url(#pa59ca14fe5)" style="fill: none; stroke: #b0b0b0; stroke-width: 0.8; stroke-linecap: square"/>
     </g>
     <g id="text_17">
      <!-- −6 -->
      <g transform="translate(326.529921 152.80639)scale(0.1 -0.1)">
       <defs>
        <path id="DejaVuSans-36" d="M 2113 2584 
Q 1688 2584 1439 2293 
Q 1191 2003 1191 1497 
Q 1191 994 1439 701 
Q 1688 409 2113 409 
Q 2538 409 2786 701 
Q 3034 994 3034 1497 
Q 3034 2003 2786 2293 
Q 2538 2584 2113 2584 
z
M 3366 4563 
L 3366 3988 
Q 3128 4100 2886 4159 
Q 2644 4219 2406 4219 
Q 1781 4219 1451 3797 
Q 1122 3375 1075 2522 
Q 1259 2794 1537 2939 
Q 1816 3084 2150 3084 
Q 2853 3084 3261 2657 
Q 3669 2231 3669 1497 
Q 3669 778 3244 343 
Q 2819 -91 2113 -91 
Q 1303 -91 875 529 
Q 447 1150 447 2328 
Q 447 3434 972 4092 
Q 1497 4750 2381 4750 
Q 2619 4750 2861 4703 
Q 3103 4656 3366 4563 
z
" transform="scale(0.015625)"/>
       </defs>
       <use xlink:href="#DejaVuSans-2212"/>
       <use xlink:href="#DejaVuSans-36" x="83.789062"/>
      </g>
     </g>
    </g>
    <g id="ytick_10">
     <g id="line2d_18">
      <path d="M 351.437346 207.477187 
C 351.437346 187.53333 347.508841 167.7834 339.876657 149.357678 
C 332.244473 130.931956 321.057037 114.188775 306.9546 100.086338 
C 292.852163 85.9839 276.108981 74.796464 257.683259 67.16428 
C 239.257537 59.532096 219.507608 55.603591 199.56375 55.603591 
C 179.619892 55.603591 159.869963 59.532096 141.444241 67.16428 
C 123.018519 74.796464 106.275337 85.9839 92.1729 100.086338 
C 78.070463 114.188775 66.883027 130.931956 59.250843 149.357678 
C 51.618659 167.7834 47.690154 187.53333 47.690154 207.477187 
C 47.690154 227.421045 51.618659 247.170975 59.250843 265.596697 
C 66.883027 284.022419 78.070463 300.7656 92.1729 314.868037 
C 106.275337 328.970475 123.018519 340.157911 141.444241 347.790095 
C 159.869963 355.422279 179.619892 359.350784 199.56375 359.350784 
C 219.507608 359.350784 239.257537 355.422279 257.683259 347.790095 
C 276.108981 340.157911 292.852163 328.970475 306.9546 314.868037 
C 321.057037 300.7656 332.244473 284.022419 339.876657 265.596697 
C 347.508841 247.170975 351.437346 227.421045 351.437346 207.477188 
" clip-path="url(#pa59ca14fe5)" style="fill: none; stroke: #b0b0b0; stroke-width: 0.8; stroke-linecap: square"/>
     </g>
     <g id="text_18">
      <!-- −3 -->
      <g transform="translate(339.876657 147.277991)scale(0.1 -0.1)">
       <use xlink:href="#DejaVuSans-2212"/>
       <use xlink:href="#DejaVuSans-33" x="83.789062"/>
      </g>
     </g>
    </g>
   </g>
   <g id="line2d_19">
    <path d="M 352.973481 207.477187 
L 353.638623 204.787801 
L 354.174599 202.078058 
L 355.640548 196.563235 
L 356.011554 193.789778 
L 356.57736 190.974392 
L 356.838981 188.166217 
L 357.001442 182.541507 
L 356.069993 168.455799 
L 355.811672 165.610683 
L 355.246989 162.835737 
L 354.559304 160.090291 
L 352.78834 154.71773 
L 351.712997 152.09939 
L 349.263496 146.994564 
L 347.755161 144.573666 
L 344.439612 139.920464 
L 338.821869 133.432332 
L 332.221428 127.768413 
L 329.360383 126.37125 
L 326.838739 124.823843 
L 324.187178 123.417624 
L 321.304767 122.23321 
L 318.92975 120.752712 
L 313.917897 118.133936 
L 311.869693 116.533628 
L 309.719452 115.045578 
L 305.703657 111.908386 
L 303.596968 110.464642 
L 298.973163 108.067775 
L 293.650126 106.581902 
L 291.195051 105.710318 
L 288.210829 105.500389 
L 282.885672 104.583183 
L 279.864672 104.696694 
L 277.151594 104.514641 
L 274.346511 104.547548 
L 270.967151 105.502563 
L 267.835571 106.26005 
L 264.283128 107.818085 
L 259.885202 110.942685 
L 256.063287 113.446167 
L 251.41117 117.674821 
L 240.733139 130.048828 
L 233.256449 141.351543 
L 223.011685 159.401797 
L 211.419659 182.052108 
L 202.785104 200.241907 
L 219.076774 161.507384 
L 225.272477 143.845854 
L 230.572504 126.696623 
L 232.605109 116.696799 
L 234.625006 99.569736 
L 234.27104 93.954758 
L 233.647675 88.612416 
L 232.811849 83.393591 
L 228.162501 72.930642 
L 226.20784 70.405229 
L 224.224628 67.618401 
L 222.122753 65.045248 
L 217.48152 61.548665 
L 215.031147 60.314732 
L 212.496127 59.659445 
L 209.920764 59.364986 
L 207.331752 59.254878 
L 196.974961 59.165552 
L 191.77231 58.807654 
L 189.168778 58.822164 
L 186.575554 59.021425 
L 181.403608 59.574701 
L 176.1279 59.509053 
L 173.374304 58.949458 
L 170.49945 57.954326 
L 167.668074 57.419828 
L 164.691182 56.427502 
L 161.724803 55.713459 
L 158.840134 55.494585 
L 155.810278 54.890699 
L 152.806188 54.540093 
L 149.903123 54.637494 
L 146.829377 54.325447 
L 143.838439 54.373153 
L 140.891876 54.631729 
L 137.796745 54.598486 
L 134.916028 55.176699 
L 132.072002 55.888239 
L 129.298302 56.792448 
L 126.653861 57.989762 
L 124.104146 59.379376 
L 119.296744 62.671675 
L 117.046615 64.553317 
L 112.726449 68.508456 
L 110.765439 70.739779 
L 108.982284 73.184642 
L 107.132947 75.47232 
L 102.779107 83.598493 
L 101.913756 86.889488 
L 99.666649 92.558718 
L 98.913576 95.693844 
L 97.881156 98.435955 
L 97.07408 101.346027 
L 96.848034 104.761471 
L 96.463552 107.914484 
L 96.692729 111.548409 
L 97.567851 115.639667 
L 97.99399 119.183942 
L 99.533975 123.54224 
L 101.669487 128.203976 
L 102.998878 132.032441 
L 105.473472 136.575077 
L 107.191715 140.364976 
L 107.955535 143.332425 
L 110.087684 147.124819 
L 111.725604 150.434428 
L 112.871081 153.305596 
L 114.807585 156.550546 
L 115.186967 158.762229 
L 114.762372 160.471016 
L 113.385175 161.655226 
L 111.341447 162.525679 
L 108.648689 163.134949 
L 104.392856 163.098271 
L 100.975746 163.58298 
L 97.117406 163.991295 
L 91.904787 163.980143 
L 88.338802 164.78193 
L 84.135362 165.46469 
L 79.422088 166.109096 
L 76.158316 167.380331 
L 71.885381 168.441993 
L 67.761134 169.683395 
L 64.944767 171.40614 
L 61.550977 173.066738 
L 58.996099 175.024588 
L 55.387119 179.452089 
L 54.194399 181.844649 
L 53.236498 184.301228 
L 52.12948 186.756652 
L 50.341987 191.793348 
L 49.462567 194.345036 
L 48.987231 196.947852 
L 48.696563 199.570573 
L 48.567114 202.204269 
L 48.714749 204.844108 
L 49.322597 207.477187 
L 49.668067 210.093626 
L 52.988745 217.72671 
L 56.18752 225.081575 
L 57.546614 227.436394 
L 61.203534 231.873827 
L 63.739718 233.878705 
L 66.632817 235.73253 
L 69.05585 237.60731 
L 72.722752 239.1022 
L 76.405779 240.477266 
L 79.342704 241.950018 
L 87.708526 243.821153 
L 90.968786 244.869432 
L 95.909567 245.204225 
L 99.807146 245.77016 
L 102.87486 246.542035 
L 106.838233 246.836834 
L 109.439708 247.602996 
L 110.795278 248.870606 
L 110.717527 250.810386 
L 109.886929 253.16981 
L 108.810232 255.731689 
L 106.014664 259.332292 
L 104.331631 262.459477 
L 103.126303 265.422652 
L 100.938369 269.105166 
L 99.528305 274.951947 
L 98.370156 278.333705 
L 98.185674 283.871047 
L 97.690176 287.069547 
L 97.9833 289.735414 
L 98.270196 295.530331 
L 99.052965 297.977504 
L 100.454032 303.18633 
L 101.645749 305.395188 
L 102.720617 307.761188 
L 104.019216 309.936157 
L 105.544816 311.895792 
L 108.314554 316.223744 
L 109.805105 318.319882 
L 111.009109 320.82196 
L 113.957306 325.304349 
L 115.209149 327.948043 
L 116.75902 330.240249 
L 118.261092 332.672302 
L 119.720958 335.252365 
L 125.198575 341.635514 
L 129.462465 345.058706 
L 131.701171 346.616093 
L 136.38294 349.38361 
L 138.80708 350.610932 
L 141.299931 351.6852 
L 143.837662 352.648611 
L 146.442325 353.427103 
L 151.766176 354.582994 
L 157.125655 355.476412 
L 159.84468 355.710774 
L 162.51232 356.082355 
L 170.541716 356.782607 
L 173.260581 356.649871 
L 178.695774 355.96055 
L 181.418866 355.255405 
L 184.117494 354.438501 
L 186.755183 353.879773 
L 191.982244 352.140934 
L 194.532162 351.563024 
L 197.062616 350.767055 
L 202.04379 349.558557 
L 206.913395 347.716775 
L 209.310415 346.860997 
L 211.653378 345.662266 
L 218.636304 343.18546 
L 223.296449 342.07201 
L 227.846124 340.535297 
L 230.031845 339.449007 
L 232.075303 337.873903 
L 234.145428 336.537766 
L 237.893583 332.848424 
L 239.827269 331.395557 
L 241.524456 329.339926 
L 243.242998 327.484936 
L 244.878634 325.526496 
L 246.370962 323.329103 
L 249.50424 319.645364 
L 250.807075 317.368852 
L 252.174627 315.345471 
L 253.305875 312.952047 
L 254.259058 310.344101 
L 256.616691 306.29578 
L 257.566258 304.009571 
L 258.708818 302.129082 
L 259.974045 300.500885 
L 261.873766 299.855586 
L 264.120057 299.673148 
L 270.376021 301.448246 
L 273.526148 302.144739 
L 277.061104 303.17845 
L 279.93598 303.261082 
L 282.710607 303.126705 
L 285.462798 302.877745 
L 290.148192 301.280123 
L 292.489948 300.403385 
L 298.686042 296.7273 
L 302.183106 293.585052 
L 303.696463 291.802196 
L 307.924129 286.205611 
L 309.470966 284.435049 
L 313.438694 281.428441 
L 315.177525 279.720692 
L 317.221505 278.173099 
L 318.962859 276.412295 
L 326.615827 266.722544 
L 330.649645 260.439327 
L 333.060701 256.066104 
L 334.375546 253.896611 
L 336.516699 249.347906 
L 337.485805 247.0257 
L 340.000023 239.899456 
L 340.709339 237.478609 
L 343.446325 230.265949 
L 344.837842 227.89413 
L 347.3871 223.014048 
L 348.887796 220.541349 
L 349.914493 217.990736 
L 351.739457 212.79128 
L 352.348274 210.144051 
L 352.348274 210.144051 
" clip-path="url(#pa59ca14fe5)" style="fill: none; stroke: #ff0000; stroke-width: 1.5; stroke-linecap: square"/>
   </g>
   <g id="line2d_20">
    <path d="M 357.042069 207.477187 
L 358.731107 201.918941 
L 360.031164 196.256213 
L 360.916274 190.518354 
L 361.197953 187.631003 
L 361.429447 181.84018 
L 361.211351 176.056077 
L 360.930392 173.177649 
L 360.537116 170.313558 
L 360.022867 167.470236 
L 359.39789 164.649759 
L 358.653878 161.858827 
L 357.796657 159.100533 
L 356.822934 156.380581 
L 355.729652 153.704955 
L 354.527584 151.074964 
L 353.204934 148.499863 
L 351.772728 145.980769 
L 350.224153 143.52564 
L 348.565999 141.137112 
L 346.800696 138.819472 
L 344.922155 136.581156 
L 342.933306 134.42675 
L 340.837224 132.360749 
L 338.637977 130.387085 
L 336.333066 128.513386 
L 333.925326 126.744608 
L 331.416142 125.086669 
L 328.807148 123.545543 
L 326.099843 122.127515 
L 323.295607 120.839209 
L 320.39457 119.688458 
L 317.401865 118.679798 
L 314.316334 117.822643 
L 311.13994 117.12457 
L 307.871332 116.596335 
L 304.51339 116.245857 
L 301.069383 116.081105 
L 297.532411 116.119933 
L 293.907063 116.37091 
L 290.188134 116.852804 
L 286.378258 117.578133 
L 282.470909 118.570144 
L 278.461008 119.852906 
L 274.344963 121.451242 
L 270.10833 123.405431 
L 265.751382 125.742268 
L 261.231545 128.54601 
L 256.54087 131.865996 
L 251.702823 135.71391 
L 246.630826 140.258436 
L 241.330582 145.555312 
L 235.889867 151.539873 
L 230.518982 157.938461 
L 225.855069 163.721085 
L 223.088996 166.730266 
L 223.004619 165.18874 
L 227.132968 153.369551 
L 229.245356 146.620877 
L 230.865084 140.35126 
L 232.019574 134.580213 
L 232.73685 129.326262 
L 233.081586 124.517631 
L 233.112748 120.079061 
L 232.86698 115.977314 
L 232.378127 112.177318 
L 231.692037 108.596486 
L 230.828708 105.214117 
L 229.797111 102.040927 
L 228.619179 99.04085 
L 227.309422 96.195374 
L 225.877602 93.499371 
L 224.334944 90.937884 
L 222.688703 88.509617 
L 220.946734 86.208257 
L 219.116312 84.027168 
L 217.204122 81.959422 
L 215.214487 80.01216 
L 213.154142 78.173242 
L 211.027192 76.449448 
L 208.838798 74.837825 
L 206.594083 73.330436 
L 204.297036 71.9336 
L 201.952184 70.643879 
L 199.56375 69.457692 
L 194.672154 67.400192 
L 189.652825 65.74435 
L 184.533767 64.47645 
L 179.341831 63.590759 
L 174.100123 63.065783 
L 168.830458 62.888414 
L 163.552636 63.044498 
L 158.284408 63.519015 
L 153.043081 64.301292 
L 147.846382 65.384885 
L 142.711127 66.762007 
L 137.656048 68.430212 
L 132.701345 70.388942 
L 127.869145 72.639246 
L 123.18417 75.183873 
L 118.67344 78.025632 
L 114.36595 81.166255 
L 110.291576 84.604582 
L 106.482015 88.337999 
L 102.967074 92.357752 
L 99.773897 96.649328 
L 96.93024 101.197077 
L 94.444065 105.964288 
L 92.31448 110.909511 
L 90.518395 115.977271 
L 88.99286 121.08974 
L 86.254227 131.04895 
L 84.660548 135.677698 
L 83.71391 137.867581 
L 82.633469 139.967458 
L 81.405683 141.981102 
L 80.008499 143.908533 
L 78.453896 145.768635 
L 76.746162 147.575047 
L 72.926773 151.094773 
L 62.243188 160.193926 
L 58.028772 164.205602 
L 54.077737 168.494328 
L 52.230418 170.742862 
L 50.482848 173.059149 
L 48.841775 175.440243 
L 47.314075 177.882849 
L 45.904841 180.382976 
L 44.618773 182.936314 
L 43.459204 185.538124 
L 42.429516 188.18353 
L 41.532459 190.867429 
L 40.770623 193.584589 
L 40.14355 196.329441 
L 39.660699 199.097024 
L 39.317423 201.881262 
L 39.114169 204.67653 
L 39.05602 207.477187 
L 39.143057 210.277341 
L 39.379986 213.070928 
L 39.766495 215.851807 
L 40.303995 218.613714 
L 40.995129 221.350144 
L 41.841834 224.054429 
L 42.847729 226.719495 
L 44.01427 229.338241 
L 45.345993 231.902881 
L 46.845668 234.405506 
L 48.517851 236.837536 
L 50.366951 239.189946 
L 52.398611 241.452937 
L 54.617094 243.616448 
L 57.032762 245.668251 
L 59.651257 247.596449 
L 62.486465 249.385919 
L 65.537801 251.024858 
L 68.822438 252.495031 
L 72.347581 253.780086 
L 76.124185 254.861197 
L 80.15337 255.722113 
L 84.435562 256.346204 
L 88.944074 256.72824 
L 93.617409 256.880778 
L 106.82889 256.785187 
L 109.725175 257.275523 
L 111.191803 258.498755 
L 111.105073 260.628523 
L 109.67759 263.644294 
L 102.519876 275.42804 
L 100.261096 279.624789 
L 98.297202 283.787005 
L 96.661828 287.87298 
L 95.352449 291.865836 
L 94.365879 295.748682 
L 93.672832 299.526758 
L 93.262807 303.190987 
L 93.111048 306.745938 
L 93.19704 310.194325 
L 93.50768 313.533258 
L 94.02602 316.764706 
L 94.736591 319.890553 
L 95.625634 322.91216 
L 96.682123 325.828961 
L 97.894459 328.641931 
L 99.253305 331.350271 
L 100.748289 333.95521 
L 102.373692 336.45275 
L 104.115793 338.850029 
L 105.972891 341.138787 
L 107.934795 343.3227 
L 109.994367 345.401942 
L 112.144636 347.377014 
L 114.383766 349.240487 
L 116.699901 351.001584 
L 119.0913 352.65333 
L 121.551322 354.197225 
L 124.073539 355.635068 
L 126.653861 356.964613 
L 129.286091 358.188113 
L 131.966236 359.30369 
L 134.690242 360.309595 
L 137.452199 361.20867 
L 143.070943 362.6899 
L 148.788565 363.747138 
L 154.567904 364.39635 
L 160.378101 364.642243 
L 166.18731 364.50099 
L 171.965312 363.995709 
L 177.686344 363.143022 
L 183.325905 361.969965 
L 188.862898 360.506495 
L 194.279958 358.785194 
L 199.56375 356.841925 
L 204.705416 354.715234 
L 209.700407 352.438137 
L 216.918723 348.822098 
L 223.824089 345.064407 
L 232.596043 339.962479 
L 242.985611 333.583429 
L 252.878954 327.225097 
L 260.516745 322.113099 
L 267.946367 316.912251 
L 275.187158 311.563879 
L 280.485538 307.407273 
L 285.649684 303.085304 
L 290.661436 298.574873 
L 295.493939 293.853118 
L 300.141257 288.923247 
L 304.597119 283.788397 
L 308.899317 278.480535 
L 315.917391 269.343516 
L 324.644457 258.013073 
L 340.742311 237.485617 
L 343.956185 232.93747 
L 347.045706 228.204425 
L 349.948304 223.283241 
L 352.612272 218.179383 
L 354.990805 212.90482 
L 356.059471 210.20883 
L 356.059471 210.20883 
" clip-path="url(#pa59ca14fe5)" style="fill: none; stroke-dasharray: 5.55,2.4; stroke-dashoffset: 0; stroke: #0000ff; stroke-width: 1.5"/>
   </g>
   <g id="patch_3">
    <path d="M 365.88375 207.477187 
C 365.88375 185.636245 361.581561 164.007679 353.223394 143.829279 
C 344.865227 123.650879 332.613628 105.315066 317.16975 89.871188 
C 301.725871 74.427309 283.390058 62.17571 263.211658 53.817544 
C 243.033259 45.459377 221.404692 41.157187 199.56375 41.157187 
C 177.722808 41.157187 156.094241 45.459377 135.915842 53.817544 
C 115.737442 62.17571 97.401629 74.427309 81.95775 89.871188 
C 66.513872 105.315066 54.262273 123.650879 45.904106 143.829279 
C 37.545939 164.007679 33.24375 185.636245 33.24375 207.477187 
C 33.24375 229.31813 37.545939 250.946696 45.904106 271.125096 
C 54.262273 291.303496 66.513872 309.639309 81.95775 325.083187 
C 97.401629 340.527066 115.737442 352.778665 135.915842 361.136831 
C 156.094241 369.494998 177.722808 373.797188 199.56375 373.797188 
C 221.404692 373.797188 243.033259 369.494998 263.211658 361.136831 
C 283.390058 352.778665 301.725871 340.527066 317.16975 325.083187 
C 332.613628 309.639309 344.865227 291.303496 353.223394 271.125096 
C 361.581561 250.946696 365.88375 229.31813 365.88375 207.477188 
" style="fill: none; stroke: #000000; stroke-width: 0.8; stroke-linejoin: miter; stroke-linecap: square"/>
   </g>
   <g id="text_19">
    <!-- Radiation Diagram - 1AVHF08 -->
    <g transform="translate(110.319375 16.318125)scale(0.12 -0.12)">
     <defs>
      <path id="DejaVuSans-52" d="M 2841 2188 
Q 3044 2119 3236 1894 
Q 3428 1669 3622 1275 
L 4263 0 
L 3584 0 
L 2988 1197 
Q 2756 1666 2539 1819 
Q 2322 1972 1947 1972 
L 1259 1972 
L 1259 0 
L 628 0 
L 628 4666 
L 2053 4666 
Q 2853 4666 3247 4331 
Q 3641 3997 3641 3322 
Q 3641 2881 3436 2590 
Q 3231 2300 2841 2188 
z
M 1259 4147 
L 1259 2491 
L 2053 2491 
Q 2509 2491 2742 2702 
Q 2975 2913 2975 3322 
Q 2975 3731 2742 3939 
Q 2509 4147 2053 4147 
L 1259 4147 
z
" transform="scale(0.015625)"/>
      <path id="DejaVuSans-61" d="M 2194 1759 
Q 1497 1759 1228 1600 
Q 959 1441 959 1056 
Q 959 750 1161 570 
Q 1363 391 1709 391 
Q 2188 391 2477 730 
Q 2766 1069 2766 1631 
L 2766 1759 
L 2194 1759 
z
M 3341 1997 
L 3341 0 
L 2766 0 
L 2766 531 
Q 2569 213 2275 61 
Q 1981 -91 1556 -91 
Q 1019 -91 701 211 
Q 384 513 384 1019 
Q 384 1609 779 1909 
Q 1175 2209 1959 2209 
L 2766 2209 
L 2766 2266 
Q 2766 2663 2505 2880 
Q 2244 3097 1772 3097 
Q 1472 3097 1187 3025 
Q 903 2953 641 2809 
L 641 3341 
Q 956 3463 1253 3523 
Q 1550 3584 1831 3584 
Q 2591 3584 2966 3190 
Q 3341 2797 3341 1997 
z
" transform="scale(0.015625)"/>
      <path id="DejaVuSans-64" d="M 2906 2969 
L 2906 4863 
L 3481 4863 
L 3481 0 
L 2906 0 
L 2906 525 
Q 2725 213 2448 61 
Q 2172 -91 1784 -91 
Q 1150 -91 751 415 
Q 353 922 353 1747 
Q 353 2572 751 3078 
Q 1150 3584 1784 3584 
Q 2172 3584 2448 3432 
Q 2725 3281 2906 2969 
z
M 947 1747 
Q 947 1113 1208 752 
Q 1469 391 1925 391 
Q 2381 391 2643 752 
Q 2906 1113 2906 1747 
Q 2906 2381 2643 2742 
Q 2381 3103 1925 3103 
Q 1469 3103 1208 2742 
Q 947 2381 947 1747 
z
" transform="scale(0.015625)"/>
      <path id="DejaVuSans-69" d="M 603 3500 
L 1178 3500 
L 1178 0 
L 603 0 
L 603 3500 
z
M 603 4863 
L 1178 4863 
L 1178 4134 
L 603 4134 
L 603 4863 
z
" transform="scale(0.015625)"/>
      <path id="DejaVuSans-74" d="M 1172 4494 
L 1172 3500 
L 2356 3500 
L 2356 3053 
L 1172 3053 
L 1172 1153 
Q 1172 725 1289 603 
Q 1406 481 1766 481 
L 2356 481 
L 2356 0 
L 1766 0 
Q 1100 0 847 248 
Q 594 497 594 1153 
L 594 3053 
L 172 3053 
L 172 3500 
L 594 3500 
L 594 4494 
L 1172 4494 
z
" transform="scale(0.015625)"/>
      <path id="DejaVuSans-6f" d="M 1959 3097 
Q 1497 3097 1228 2736 
Q 959 2375 959 1747 
Q 959 1119 1226 758 
Q 1494 397 1959 397 
Q 2419 397 2687 759 
Q 2956 1122 2956 1747 
Q 2956 2369 2687 2733 
Q 2419 3097 1959 3097 
z
M 1959 3584 
Q 2709 3584 3137 3096 
Q 3566 2609 3566 1747 
Q 3566 888 3137 398 
Q 2709 -91 1959 -91 
Q 1206 -91 779 398 
Q 353 888 353 1747 
Q 353 2609 779 3096 
Q 1206 3584 1959 3584 
z
" transform="scale(0.015625)"/>
      <path id="DejaVuSans-6e" d="M 3513 2113 
L 3513 0 
L 2938 0 
L 2938 2094 
Q 2938 2591 2744 2837 
Q 2550 3084 2163 3084 
Q 1697 3084 1428 2787 
Q 1159 2491 1159 1978 
L 1159 0 
L 581 0 
L 581 3500 
L 1159 3500 
L 1159 2956 
Q 1366 3272 1645 3428 
Q 1925 3584 2291 3584 
Q 2894 3584 3203 3211 
Q 3513 2838 3513 2113 
z
" transform="scale(0.015625)"/>
      <path id="DejaVuSans-20" transform="scale(0.015625)"/>
      <path id="DejaVuSans-44" d="M 1259 4147 
L 1259 519 
L 2022 519 
Q 2988 519 3436 956 
Q 3884 1394 3884 2338 
Q 3884 3275 3436 3711 
Q 2988 4147 2022 4147 
L 1259 4147 
z
M 628 4666 
L 1925 4666 
Q 3281 4666 3915 4102 
Q 4550 3538 4550 2338 
Q 4550 1131 3912 565 
Q 3275 0 1925 0 
L 628 0 
L 628 4666 
z
" transform="scale(0.015625)"/>
      <path id="DejaVuSans-67" d="M 2906 1791 
Q 2906 2416 2648 2759 
Q 2391 3103 1925 3103 
Q 1463 3103 1205 2759 
Q 947 2416 947 1791 
Q 947 1169 1205 825 
Q 1463 481 1925 481 
Q 2391 481 2648 825 
Q 2906 1169 2906 1791 
z
M 3481 434 
Q 3481 -459 3084 -895 
Q 2688 -1331 1869 -1331 
Q 1566 -1331 1297 -1286 
Q 1028 -1241 775 -1147 
L 775 -588 
Q 1028 -725 1275 -790 
Q 1522 -856 1778 -856 
Q 2344 -856 2625 -561 
Q 2906 -266 2906 331 
L 2906 616 
Q 2728 306 2450 153 
Q 2172 0 1784 0 
Q 1141 0 747 490 
Q 353 981 353 1791 
Q 353 2603 747 3093 
Q 1141 3584 1784 3584 
Q 2172 3584 2450 3431 
Q 2728 3278 2906 2969 
L 2906 3500 
L 3481 3500 
L 3481 434 
z
" transform="scale(0.015625)"/>
      <path id="DejaVuSans-72" d="M 2631 2963 
Q 2534 3019 2420 3045 
Q 2306 3072 2169 3072 
Q 1681 3072 1420 2755 
Q 1159 2438 1159 1844 
L 1159 0 
L 581 0 
L 581 3500 
L 1159 3500 
L 1159 2956 
Q 1341 3275 1631 3429 
Q 1922 3584 2338 3584 
Q 2397 3584 2469 3576 
Q 2541 3569 2628 3553 
L 2631 2963 
z
" transform="scale(0.015625)"/>
      <path id="DejaVuSans-6d" d="M 3328 2828 
Q 3544 3216 3844 3400 
Q 4144 3584 4550 3584 
Q 5097 3584 5394 3201 
Q 5691 2819 5691 2113 
L 5691 0 
L 5113 0 
L 5113 2094 
Q 5113 2597 4934 2840 
Q 4756 3084 4391 3084 
Q 3944 3084 3684 2787 
Q 3425 2491 3425 1978 
L 3425 0 
L 2847 0 
L 2847 2094 
Q 2847 2600 2669 2842 
Q 2491 3084 2119 3084 
Q 1678 3084 1418 2786 
Q 1159 2488 1159 1978 
L 1159 0 
L 581 0 
L 581 3500 
L 1159 3500 
L 1159 2956 
Q 1356 3278 1631 3431 
Q 1906 3584 2284 3584 
Q 2666 3584 2933 3390 
Q 3200 3197 3328 2828 
z
" transform="scale(0.015625)"/>
      <path id="DejaVuSans-2d" d="M 313 2009 
L 1997 2009 
L 1997 1497 
L 313 1497 
L 313 2009 
z
" transform="scale(0.015625)"/>
      <path id="DejaVuSans-41" d="M 2188 4044 
L 1331 1722 
L 3047 1722 
L 2188 4044 
z
M 1831 4666 
L 2547 4666 
L 4325 0 
L 3669 0 
L 3244 1197 
L 1141 1197 
L 716 0 
L 50 0 
L 1831 4666 
z
" transform="scale(0.015625)"/>
      <path id="DejaVuSans-56" d="M 1831 0 
L 50 4666 
L 709 4666 
L 2188 738 
L 3669 4666 
L 4325 4666 
L 2547 0 
L 1831 0 
z
" transform="scale(0.015625)"/>
      <path id="DejaVuSans-48" d="M 628 4666 
L 1259 4666 
L 1259 2753 
L 3553 2753 
L 3553 4666 
L 4184 4666 
L 4184 0 
L 3553 0 
L 3553 2222 
L 1259 2222 
L 1259 0 
L 628 0 
L 628 4666 
z
" transform="scale(0.015625)"/>
      <path id="DejaVuSans-46" d="M 628 4666 
L 3309 4666 
L 3309 4134 
L 1259 4134 
L 1259 2759 
L 3109 2759 
L 3109 2228 
L 1259 2228 
L 1259 0 
L 628 0 
L 628 4666 
z
" transform="scale(0.015625)"/>
     </defs>
     <use xlink:href="#DejaVuSans-52"/>
     <use xlink:href="#DejaVuSans-61" x="67.232422"/>
     <use xlink:href="#DejaVuSans-64" x="128.511719"/>
     <use xlink:href="#DejaVuSans-69" x="191.988281"/>
     <use xlink:href="#DejaVuSans-61" x="219.771484"/>
     <use xlink:href="#DejaVuSans-74" x="281.050781"/>
     <use xlink:href="#DejaVuSans-69" x="320.259766"/>
     <use xlink:href="#DejaVuSans-6f" x="348.042969"/>
     <use xlink:href="#DejaVuSans-6e" x="409.224609"/>
     <use xlink:href="#DejaVuSans-20" x="472.603516"/>
     <use xlink:href="#DejaVuSans-44" x="504.390625"/>
     <use xlink:href="#DejaVuSans-69" x="581.392578"/>
     <use xlink:href="#DejaVuSans-61" x="609.175781"/>
     <use xlink:href="#DejaVuSans-67" x="670.455078"/>
     <use xlink:href="#DejaVuSans-72" x="733.931641"/>
     <use xlink:href="#DejaVuSans-61" x="775.044922"/>
     <use xlink:href="#DejaVuSans-6d" x="836.324219"/>
     <use xlink:href="#DejaVuSans-20" x="933.736328"/>
     <use xlink:href="#DejaVuSans-2d" x="965.523438"/>
     <use xlink:href="#DejaVuSans-20" x="1001.607422"/>
     <use xlink:href="#DejaVuSans-31" x="1033.394531"/>
     <use xlink:href="#DejaVuSans-41" x="1097.017578"/>
     <use xlink:href="#DejaVuSans-56" x="1159.050781"/>
     <use xlink:href="#DejaVuSans-48" x="1227.458984"/>
     <use xlink:href="#DejaVuSans-46" x="1302.654297"/>
     <use xlink:href="#DejaVuSans-30" x="1360.173828"/>
     <use xlink:href="#DejaVuSans-38" x="1423.796875"/>
    </g>
   </g>
   <g id="legend_1">
    <g id="patch_4">
     <path d="M 304.104062 78.513437 
L 358.88375 78.513437 
Q 360.88375 78.513437 360.88375 76.513437 
L 360.88375 48.157187 
Q 360.88375 46.157187 358.88375 46.157187 
L 304.104062 46.157187 
Q 302.104062 46.157187 302.104062 48.157187 
L 302.104062 76.513437 
Q 302.104062 78.513437 304.104062 78.513437 
z
" style="fill: #ffffff; opacity: 0.8; stroke: #cccccc; stroke-linejoin: miter"/>
    </g>
    <g id="line2d_21">
     <path d="M 306.104062 54.255625 
L 316.104062 54.255625 
L 326.104062 54.255625 
" style="fill: none; stroke: #ff0000; stroke-width: 1.5; stroke-linecap: square"/>
    </g>
    <g id="text_20">
     <!-- INPE -->
     <g transform="translate(334.104062 57.755625)scale(0.1 -0.1)">
      <defs>
       <path id="DejaVuSans-49" d="M 628 4666 
L 1259 4666 
L 1259 0 
L 628 0 
L 628 4666 
z
" transform="scale(0.015625)"/>
       <path id="DejaVuSans-4e" d="M 628 4666 
L 1478 4666 
L 3547 763 
L 3547 4666 
L 4159 4666 
L 4159 0 
L 3309 0 
L 1241 3903 
L 1241 0 
L 628 0 
L 628 4666 
z
" transform="scale(0.015625)"/>
       <path id="DejaVuSans-50" d="M 1259 4147 
L 1259 2394 
L 2053 2394 
Q 2494 2394 2734 2622 
Q 2975 2850 2975 3272 
Q 2975 3691 2734 3919 
Q 2494 4147 2053 4147 
L 1259 4147 
z
M 628 4666 
L 2053 4666 
Q 2838 4666 3239 4311 
Q 3641 3956 3641 3272 
Q 3641 2581 3239 2228 
Q 2838 1875 2053 1875 
L 1259 1875 
L 1259 0 
L 628 0 
L 628 4666 
z
" transform="scale(0.015625)"/>
       <path id="DejaVuSans-45" d="M 628 4666 
L 3578 4666 
L 3578 4134 
L 1259 4134 
L 1259 2753 
L 3481 2753 
L 3481 2222 
L 1259 2222 
L 1259 531 
L 3634 531 
L 3634 0 
L 628 0 
L 628 4666 
z
" transform="scale(0.015625)"/>
      </defs>
      <use xlink:href="#DejaVuSans-49"/>
      <use xlink:href="#DejaVuSans-4e" x="29.492188"/>
      <use xlink:href="#DejaVuSans-50" x="104.296875"/>
      <use xlink:href="#DejaVuSans-45" x="164.599609"/>
     </g>
    </g>
    <g id="line2d_22">
     <path d="M 306.104062 68.93375 
L 316.104062 68.93375 
L 326.104062 68.93375 
" style="fill: none; stroke-dasharray: 5.55,2.4; stroke-dashoffset: 0; stroke: #0000ff; stroke-width: 1.5"/>
    </g>
    <g id="text_21">
     <!-- CST -->
     <g transform="translate(334.104062 72.43375)scale(0.1 -0.1)">
      <defs>
       <path id="DejaVuSans-43" d="M 4122 4306 
L 4122 3641 
Q 3803 3938 3442 4084 
Q 3081 4231 2675 4231 
Q 1875 4231 1450 3742 
Q 1025 3253 1025 2328 
Q 1025 1406 1450 917 
Q 1875 428 2675 428 
Q 3081 428 3442 575 
Q 3803 722 4122 1019 
L 4122 359 
Q 3791 134 3420 21 
Q 3050 -91 2638 -91 
Q 1578 -91 968 557 
Q 359 1206 359 2328 
Q 359 3453 968 4101 
Q 1578 4750 2638 4750 
Q 3056 4750 3426 4639 
Q 3797 4528 4122 4306 
z
" transform="scale(0.015625)"/>
       <path id="DejaVuSans-53" d="M 3425 4513 
L 3425 3897 
Q 3066 4069 2747 4153 
Q 2428 4238 2131 4238 
Q 1616 4238 1336 4038 
Q 1056 3838 1056 3469 
Q 1056 3159 1242 3001 
Q 1428 2844 1947 2747 
L 2328 2669 
Q 3034 2534 3370 2195 
Q 3706 1856 3706 1288 
Q 3706 609 3251 259 
Q 2797 -91 1919 -91 
Q 1588 -91 1214 -16 
Q 841 59 441 206 
L 441 856 
Q 825 641 1194 531 
Q 1563 422 1919 422 
Q 2459 422 2753 634 
Q 3047 847 3047 1241 
Q 3047 1584 2836 1778 
Q 2625 1972 2144 2069 
L 1759 2144 
Q 1053 2284 737 2584 
Q 422 2884 422 3419 
Q 422 4038 858 4394 
Q 1294 4750 2059 4750 
Q 2388 4750 2728 4690 
Q 3069 4631 3425 4513 
z
" transform="scale(0.015625)"/>
       <path id="DejaVuSans-54" d="M -19 4666 
L 3928 4666 
L 3928 4134 
L 2272 4134 
L 2272 0 
L 1638 0 
L 1638 4134 
L -19 4134 
L -19 4666 
z
" transform="scale(0.015625)"/>
      </defs>
      <use xlink:href="#DejaVuSans-43"/>
      <use xlink:href="#DejaVuSans-53" x="69.824219"/>
      <use xlink:href="#DejaVuSans-54" x="133.300781"/>
     </g>
    </g>
   </g>
  </g>
 </g>
 <defs>
  <clipPath id="pa59ca14fe5">
   <path d="M 365.88375 207.477187 
C 365.88375 185.636245 361.581561 164.007679 353.223394 143.829279 
C 344.865227 123.650879 332.613628 105.315066 317.16975 89.871188 
C 301.725871 74.427309 283.390058 62.17571 263.211658 53.817544 
C 243.033259 45.459377 221.404692 41.157187 199.56375 41.157187 
C 177.722808 41.157187 156.094241 45.459377 135.915842 53.817544 
C 115.737442 62.17571 97.401629 74.427309 81.95775 89.871188 
C 66.513872 105.315066 54.262273 123.650879 45.904106 143.829279 
C 37.545939 164.007679 33.24375 185.636245 33.24375 207.477187 
C 33.24375 229.31813 37.545939 250.946696 45.904106 271.125096 
C 54.262273 291.303496 66.513872 309.639309 81.95775 325.083187 
C 97.401629 340.527066 115.737442 352.778665 135.915842 361.136831 
C 156.094241 369.494998 177.722808 373.797188 199.56375 373.797188 
C 221.404692 373.797188 243.033259 369.494998 263.211658 361.136831 
C 283.390058 352.778665 301.725871 340.527066 317.16975 325.083187 
C 332.613628 309.639309 344.865227 291.303496 353.223394 271.125096 
C 361.581561 250.946696 365.88375 229.31813 365.88375 207.477188 
M 199.56375 207.477187 
C 199.56375 207.477187 199.56375 207.477187 199.56375 207.477187 
C 199.56375 207.477187 199.56375 207.477187 199.56375 207.477187 
C 199.56375 207.477187 199.56375 207.477187 199.56375 207.477187 
C 199.56375 207.477187 199.56375 207.477187 199.56375 207.477187 
C 199.56375 207.477187 199.56375 207.477187 199.56375 207.477187 
C 199.56375 207.477187 199.56375 207.477187 199.56375 207.477187 
C 199.56375 207.477187 199.56375 207.477187 199.56375 207.477187 
C 199.56375 207.477187 199.56375 207.477187 199.56375 207.477187 
C 199.56375 207.477187 199.56375 207.477187 199.56375 207.477187 
C 199.56375 207.477187 199.56375 207.477187 199.56375 207.477187 
C 199.56375 207.477187 199.56375 207.477187 199.56375 207.477187 
C 199.56375 207.477187 199.56375 207.477187 199.56375 207.477187 
C 199.56375 207.477187 199.56375 207.477187 199.56375 207.477187 
C 199.56375 207.477187 199.56375 207.477187 199.56375 207.477187 
C 199.56375 207.477187 199.56375 207.477187 199.56375 207.477187 
C 199.56375 207.477187 199.56375 207.477187 199.56375 207.477187 
M 365.88375 207.477187 
z
"/>
  </clipPath>
 </defs>
</svg>
