<?xml version="1.0" encoding="utf-8" standalone="no"?>
<!DOCTYPE svg PUBLIC "-//W3C//DTD SVG 1.1//EN"
  "http://www.w3.org/Graphics/SVG/1.1/DTD/svg11.dtd">
<svg xmlns:xlink="http://www.w3.org/1999/xlink" width="392.765pt" height="399.83625pt" viewBox="0 0 392.765 399.83625" xmlns="http://www.w3.org/2000/svg" version="1.1">
 <metadata>
  <rdf:RDF xmlns:dc="http://purl.org/dc/elements/1.1/" xmlns:cc="http://creativecommons.org/ns#" xmlns:rdf="http://www.w3.org/1999/02/22-rdf-syntax-ns#">
   <cc:Work>
    <dc:type rdf:resource="http://purl.org/dc/dcmitype/StillImage"/>
    <dc:date>2023-11-01T15:05:46.767277</dc:date>
    <dc:format>image/svg+xml</dc:format>
    <dc:creator>
     <cc:Agent>
      <dc:title>Matplotlib v3.5.1, https://matplotlib.org/</dc:title>
     </cc:Agent>
    </dc:creator>
   </cc:Work>
  </rdf:RDF>
 </metadata>
 <defs>
  <style type="text/css">*{stroke-linejoin: round; stroke-linecap: butt}</style>
 </defs>
 <g id="figure_1">
  <g id="patch_1">
   <path d="M 0 399.83625 
L 392.765 399.83625 
L 392.765 0 
L 0 0 
z
" style="fill: #ffffff"/>
  </g>
  <g id="axes_1">
   <g id="patch_2">
    <path d="M 365.88375 207.477188 
C 365.88375 185.636245 361.581561 164.007679 353.223394 143.829279 
C 344.865227 123.650879 332.613628 105.315066 317.16975 89.871188 
C 301.725871 74.427309 283.390058 62.17571 263.211658 53.817544 
C 243.033259 45.459377 221.404692 41.157188 199.56375 41.157188 
C 177.722808 41.157188 156.094241 45.459377 135.915842 53.817544 
C 115.737442 62.17571 97.401629 74.427309 81.95775 89.871188 
C 66.513872 105.315066 54.262273 123.650879 45.904106 143.829279 
C 37.545939 164.007679 33.24375 185.636245 33.24375 207.477188 
C 33.24375 229.31813 37.545939 250.946696 45.904106 271.125096 
C 54.262273 291.303496 66.513872 309.639309 81.95775 325.083187 
C 97.401629 340.527066 115.737442 352.778665 135.915842 361.136831 
C 156.094241 369.494998 177.722808 373.797188 199.56375 373.797188 
C 221.404692 373.797188 243.033259 369.494998 263.211658 361.136831 
C 283.390058 352.778665 301.725871 340.527066 317.16975 325.083187 
C 332.613628 309.639309 344.865227 291.303496 353.223394 271.125096 
C 361.581561 250.946696 365.88375 229.31813 365.88375 207.477188 
M 199.56375 207.477188 
C 199.56375 207.477188 199.56375 207.477188 199.56375 207.477188 
C 199.56375 207.477188 199.56375 207.477188 199.56375 207.477188 
C 199.56375 207.477188 199.56375 207.477188 199.56375 207.477188 
C 199.56375 207.477188 199.56375 207.477188 199.56375 207.477188 
C 199.56375 207.477188 199.56375 207.477188 199.56375 207.477188 
C 199.56375 207.477188 199.56375 207.477188 199.56375 207.477188 
C 199.56375 207.477188 199.56375 207.477188 199.56375 207.477188 
C 199.56375 207.477188 199.56375 207.477188 199.56375 207.477188 
C 199.56375 207.477188 199.56375 207.477188 199.56375 207.477188 
C 199.56375 207.477188 199.56375 207.477188 199.56375 207.477188 
C 199.56375 207.477188 199.56375 207.477188 199.56375 207.477188 
C 199.56375 207.477188 199.56375 207.477188 199.56375 207.477188 
C 199.56375 207.477188 199.56375 207.477188 199.56375 207.477188 
C 199.56375 207.477188 199.56375 207.477188 199.56375 207.477188 
C 199.56375 207.477188 199.56375 207.477188 199.56375 207.477188 
C 199.56375 207.477188 199.56375 207.477188 199.56375 207.477188 
M 365.88375 207.477188 
z
" style="fill: #ffffff"/>
   </g>
   <g id="matplotlib.axis_1">
    <g id="xtick_1">
     <g id="line2d_1">
      <path d="M 199.56375 207.477188 
L 365.88375 207.477188 
" clip-path="url(#p629f4b694a)" style="fill: none; stroke: #b0b0b0; stroke-width: 0.8; stroke-linecap: square"/>
     </g>
     <g id="text_1">
      <!-- 0° -->
      <g transform="translate(374.2025 210.236563)scale(0.1 -0.1)">
       <defs>
        <path id="DejaVuSans-30" d="M 2034 4250 
Q 1547 4250 1301 3770 
Q 1056 3291 1056 2328 
Q 1056 1369 1301 889 
Q 1547 409 2034 409 
Q 2525 409 2770 889 
Q 3016 1369 3016 2328 
Q 3016 3291 2770 3770 
Q 2525 4250 2034 4250 
z
M 2034 4750 
Q 2819 4750 3233 4129 
Q 3647 3509 3647 2328 
Q 3647 1150 3233 529 
Q 2819 -91 2034 -91 
Q 1250 -91 836 529 
Q 422 1150 422 2328 
Q 422 3509 836 4129 
Q 1250 4750 2034 4750 
z
" transform="scale(0.015625)"/>
        <path id="DejaVuSans-b0" d="M 1600 4347 
Q 1350 4347 1178 4173 
Q 1006 4000 1006 3750 
Q 1006 3503 1178 3333 
Q 1350 3163 1600 3163 
Q 1850 3163 2022 3333 
Q 2194 3503 2194 3750 
Q 2194 3997 2020 4172 
Q 1847 4347 1600 4347 
z
M 1600 4750 
Q 1800 4750 1984 4673 
Q 2169 4597 2303 4453 
Q 2447 4313 2519 4134 
Q 2591 3956 2591 3750 
Q 2591 3338 2302 3052 
Q 2013 2766 1594 2766 
Q 1172 2766 890 3047 
Q 609 3328 609 3750 
Q 609 4169 896 4459 
Q 1184 4750 1600 4750 
z
" transform="scale(0.015625)"/>
       </defs>
       <use xlink:href="#DejaVuSans-30"/>
       <use xlink:href="#DejaVuSans-b0" x="63.623047"/>
      </g>
     </g>
    </g>
    <g id="xtick_2">
     <g id="line2d_2">
      <path d="M 199.56375 207.477188 
L 317.16975 89.871188 
" clip-path="url(#p629f4b694a)" style="fill: none; stroke: #b0b0b0; stroke-width: 0.8; stroke-linecap: square"/>
     </g>
     <g id="text_2">
      <!-- 45° -->
      <g transform="translate(318.206745 82.731068)scale(0.1 -0.1)">
       <defs>
        <path id="DejaVuSans-34" d="M 2419 4116 
L 825 1625 
L 2419 1625 
L 2419 4116 
z
M 2253 4666 
L 3047 4666 
L 3047 1625 
L 3713 1625 
L 3713 1100 
L 3047 1100 
L 3047 0 
L 2419 0 
L 2419 1100 
L 313 1100 
L 313 1709 
L 2253 4666 
z
" transform="scale(0.015625)"/>
        <path id="DejaVuSans-35" d="M 691 4666 
L 3169 4666 
L 3169 4134 
L 1269 4134 
L 1269 2991 
Q 1406 3038 1543 3061 
Q 1681 3084 1819 3084 
Q 2600 3084 3056 2656 
Q 3513 2228 3513 1497 
Q 3513 744 3044 326 
Q 2575 -91 1722 -91 
Q 1428 -91 1123 -41 
Q 819 9 494 109 
L 494 744 
Q 775 591 1075 516 
Q 1375 441 1709 441 
Q 2250 441 2565 725 
Q 2881 1009 2881 1497 
Q 2881 1984 2565 2268 
Q 2250 2553 1709 2553 
Q 1456 2553 1204 2497 
Q 953 2441 691 2322 
L 691 4666 
z
" transform="scale(0.015625)"/>
       </defs>
       <use xlink:href="#DejaVuSans-34"/>
       <use xlink:href="#DejaVuSans-35" x="63.623047"/>
       <use xlink:href="#DejaVuSans-b0" x="127.246094"/>
      </g>
     </g>
    </g>
    <g id="xtick_3">
     <g id="line2d_3">
      <path d="M 199.56375 207.477188 
L 199.56375 41.157187 
" clip-path="url(#p629f4b694a)" style="fill: none; stroke: #b0b0b0; stroke-width: 0.8; stroke-linecap: square"/>
     </g>
     <g id="text_3">
      <!-- 90° -->
      <g transform="translate(190.70125 29.916562)scale(0.1 -0.1)">
       <defs>
        <path id="DejaVuSans-39" d="M 703 97 
L 703 672 
Q 941 559 1184 500 
Q 1428 441 1663 441 
Q 2288 441 2617 861 
Q 2947 1281 2994 2138 
Q 2813 1869 2534 1725 
Q 2256 1581 1919 1581 
Q 1219 1581 811 2004 
Q 403 2428 403 3163 
Q 403 3881 828 4315 
Q 1253 4750 1959 4750 
Q 2769 4750 3195 4129 
Q 3622 3509 3622 2328 
Q 3622 1225 3098 567 
Q 2575 -91 1691 -91 
Q 1453 -91 1209 -44 
Q 966 3 703 97 
z
M 1959 2075 
Q 2384 2075 2632 2365 
Q 2881 2656 2881 3163 
Q 2881 3666 2632 3958 
Q 2384 4250 1959 4250 
Q 1534 4250 1286 3958 
Q 1038 3666 1038 3163 
Q 1038 2656 1286 2365 
Q 1534 2075 1959 2075 
z
" transform="scale(0.015625)"/>
       </defs>
       <use xlink:href="#DejaVuSans-39"/>
       <use xlink:href="#DejaVuSans-30" x="63.623047"/>
       <use xlink:href="#DejaVuSans-b0" x="127.246094"/>
      </g>
     </g>
    </g>
    <g id="xtick_4">
     <g id="line2d_4">
      <path d="M 199.56375 207.477188 
L 81.95775 89.871188 
" clip-path="url(#p629f4b694a)" style="fill: none; stroke: #b0b0b0; stroke-width: 0.8; stroke-linecap: square"/>
     </g>
     <g id="text_4">
      <!-- 135° -->
      <g transform="translate(60.014505 82.731068)scale(0.1 -0.1)">
       <defs>
        <path id="DejaVuSans-31" d="M 794 531 
L 1825 531 
L 1825 4091 
L 703 3866 
L 703 4441 
L 1819 4666 
L 2450 4666 
L 2450 531 
L 3481 531 
L 3481 0 
L 794 0 
L 794 531 
z
" transform="scale(0.015625)"/>
        <path id="DejaVuSans-33" d="M 2597 2516 
Q 3050 2419 3304 2112 
Q 3559 1806 3559 1356 
Q 3559 666 3084 287 
Q 2609 -91 1734 -91 
Q 1441 -91 1130 -33 
Q 819 25 488 141 
L 488 750 
Q 750 597 1062 519 
Q 1375 441 1716 441 
Q 2309 441 2620 675 
Q 2931 909 2931 1356 
Q 2931 1769 2642 2001 
Q 2353 2234 1838 2234 
L 1294 2234 
L 1294 2753 
L 1863 2753 
Q 2328 2753 2575 2939 
Q 2822 3125 2822 3475 
Q 2822 3834 2567 4026 
Q 2313 4219 1838 4219 
Q 1578 4219 1281 4162 
Q 984 4106 628 3988 
L 628 4550 
Q 988 4650 1302 4700 
Q 1616 4750 1894 4750 
Q 2613 4750 3031 4423 
Q 3450 4097 3450 3541 
Q 3450 3153 3228 2886 
Q 3006 2619 2597 2516 
z
" transform="scale(0.015625)"/>
       </defs>
       <use xlink:href="#DejaVuSans-31"/>
       <use xlink:href="#DejaVuSans-33" x="63.623047"/>
       <use xlink:href="#DejaVuSans-35" x="127.246094"/>
       <use xlink:href="#DejaVuSans-b0" x="190.869141"/>
      </g>
     </g>
    </g>
    <g id="xtick_5">
     <g id="line2d_5">
      <path d="M 199.56375 207.477188 
L 33.24375 207.477187 
" clip-path="url(#p629f4b694a)" style="fill: none; stroke: #b0b0b0; stroke-width: 0.8; stroke-linecap: square"/>
     </g>
     <g id="text_5">
      <!-- 180° -->
      <g transform="translate(7.2 210.236562)scale(0.1 -0.1)">
       <defs>
        <path id="DejaVuSans-38" d="M 2034 2216 
Q 1584 2216 1326 1975 
Q 1069 1734 1069 1313 
Q 1069 891 1326 650 
Q 1584 409 2034 409 
Q 2484 409 2743 651 
Q 3003 894 3003 1313 
Q 3003 1734 2745 1975 
Q 2488 2216 2034 2216 
z
M 1403 2484 
Q 997 2584 770 2862 
Q 544 3141 544 3541 
Q 544 4100 942 4425 
Q 1341 4750 2034 4750 
Q 2731 4750 3128 4425 
Q 3525 4100 3525 3541 
Q 3525 3141 3298 2862 
Q 3072 2584 2669 2484 
Q 3125 2378 3379 2068 
Q 3634 1759 3634 1313 
Q 3634 634 3220 271 
Q 2806 -91 2034 -91 
Q 1263 -91 848 271 
Q 434 634 434 1313 
Q 434 1759 690 2068 
Q 947 2378 1403 2484 
z
M 1172 3481 
Q 1172 3119 1398 2916 
Q 1625 2713 2034 2713 
Q 2441 2713 2670 2916 
Q 2900 3119 2900 3481 
Q 2900 3844 2670 4047 
Q 2441 4250 2034 4250 
Q 1625 4250 1398 4047 
Q 1172 3844 1172 3481 
z
" transform="scale(0.015625)"/>
       </defs>
       <use xlink:href="#DejaVuSans-31"/>
       <use xlink:href="#DejaVuSans-38" x="63.623047"/>
       <use xlink:href="#DejaVuSans-30" x="127.246094"/>
       <use xlink:href="#DejaVuSans-b0" x="190.869141"/>
      </g>
     </g>
    </g>
    <g id="xtick_6">
     <g id="line2d_6">
      <path d="M 199.56375 207.477188 
L 81.95775 325.083187 
" clip-path="url(#p629f4b694a)" style="fill: none; stroke: #b0b0b0; stroke-width: 0.8; stroke-linecap: square"/>
     </g>
     <g id="text_6">
      <!-- 225° -->
      <g transform="translate(60.014505 337.742057)scale(0.1 -0.1)">
       <defs>
        <path id="DejaVuSans-32" d="M 1228 531 
L 3431 531 
L 3431 0 
L 469 0 
L 469 531 
Q 828 903 1448 1529 
Q 2069 2156 2228 2338 
Q 2531 2678 2651 2914 
Q 2772 3150 2772 3378 
Q 2772 3750 2511 3984 
Q 2250 4219 1831 4219 
Q 1534 4219 1204 4116 
Q 875 4013 500 3803 
L 500 4441 
Q 881 4594 1212 4672 
Q 1544 4750 1819 4750 
Q 2544 4750 2975 4387 
Q 3406 4025 3406 3419 
Q 3406 3131 3298 2873 
Q 3191 2616 2906 2266 
Q 2828 2175 2409 1742 
Q 1991 1309 1228 531 
z
" transform="scale(0.015625)"/>
       </defs>
       <use xlink:href="#DejaVuSans-32"/>
       <use xlink:href="#DejaVuSans-32" x="63.623047"/>
       <use xlink:href="#DejaVuSans-35" x="127.246094"/>
       <use xlink:href="#DejaVuSans-b0" x="190.869141"/>
      </g>
     </g>
    </g>
    <g id="xtick_7">
     <g id="line2d_7">
      <path d="M 199.56375 207.477188 
L 199.56375 373.797188 
" clip-path="url(#p629f4b694a)" style="fill: none; stroke: #b0b0b0; stroke-width: 0.8; stroke-linecap: square"/>
     </g>
     <g id="text_7">
      <!-- 270° -->
      <g transform="translate(187.52 390.556563)scale(0.1 -0.1)">
       <defs>
        <path id="DejaVuSans-37" d="M 525 4666 
L 3525 4666 
L 3525 4397 
L 1831 0 
L 1172 0 
L 2766 4134 
L 525 4134 
L 525 4666 
z
" transform="scale(0.015625)"/>
       </defs>
       <use xlink:href="#DejaVuSans-32"/>
       <use xlink:href="#DejaVuSans-37" x="63.623047"/>
       <use xlink:href="#DejaVuSans-30" x="127.246094"/>
       <use xlink:href="#DejaVuSans-b0" x="190.869141"/>
      </g>
     </g>
    </g>
    <g id="xtick_8">
     <g id="line2d_8">
      <path d="M 199.56375 207.477188 
L 317.16975 325.083187 
" clip-path="url(#p629f4b694a)" style="fill: none; stroke: #b0b0b0; stroke-width: 0.8; stroke-linecap: square"/>
     </g>
     <g id="text_8">
      <!-- 315° -->
      <g transform="translate(315.025495 337.742057)scale(0.1 -0.1)">
       <use xlink:href="#DejaVuSans-33"/>
       <use xlink:href="#DejaVuSans-31" x="63.623047"/>
       <use xlink:href="#DejaVuSans-35" x="127.246094"/>
       <use xlink:href="#DejaVuSans-b0" x="190.869141"/>
      </g>
     </g>
    </g>
   </g>
   <g id="matplotlib.axis_2">
    <g id="ytick_1">
     <g id="line2d_9">
      <path d="M 219.973654 207.477188 
C 219.973654 204.796983 219.445712 202.142841 218.420043 199.666655 
C 217.394373 197.19047 215.890922 194.940396 213.995732 193.045206 
C 212.100541 191.150015 209.850468 189.646564 207.374282 188.620895 
C 204.898097 187.595225 202.243954 187.067283 199.56375 187.067283 
C 196.883546 187.067283 194.229403 187.595225 191.753218 188.620895 
C 189.277032 189.646564 187.026959 191.150015 185.131768 193.045206 
C 183.236578 194.940396 181.733127 197.19047 180.707457 199.666655 
C 179.681788 202.142841 179.153846 204.796983 179.153846 207.477188 
C 179.153846 210.157392 179.681788 212.811534 180.707457 215.28772 
C 181.733127 217.763905 183.236578 220.013979 185.131768 221.909169 
C 187.026959 223.80436 189.277032 225.307811 191.753218 226.33348 
C 194.229403 227.35915 196.883546 227.887092 199.56375 227.887092 
C 202.243954 227.887092 204.898097 227.35915 207.374282 226.33348 
C 209.850468 225.307811 212.100541 223.80436 213.995732 221.909169 
C 215.890922 220.013979 217.394373 217.763905 218.420043 215.28772 
C 219.445712 212.811534 219.973654 210.157392 219.973654 207.477188 
" clip-path="url(#p629f4b694a)" style="fill: none; stroke: #b0b0b0; stroke-width: 0.8; stroke-linecap: square"/>
     </g>
     <g id="text_9">
      <!-- −30 -->
      <g transform="translate(218.420043 197.586968)scale(0.1 -0.1)">
       <defs>
        <path id="DejaVuSans-2212" d="M 678 2272 
L 4684 2272 
L 4684 1741 
L 678 1741 
L 678 2272 
z
" transform="scale(0.015625)"/>
       </defs>
       <use xlink:href="#DejaVuSans-2212"/>
       <use xlink:href="#DejaVuSans-33" x="83.789062"/>
       <use xlink:href="#DejaVuSans-30" x="147.412109"/>
      </g>
     </g>
    </g>
    <g id="ytick_2">
     <g id="line2d_10">
      <path d="M 234.564664 207.477188 
C 234.564664 202.88091 233.659297 198.329325 231.900378 194.082918 
C 230.141458 189.836511 227.563193 185.977863 224.313133 182.727804 
C 221.063074 179.477745 217.204427 176.899479 212.95802 175.14056 
C 208.711613 173.38164 204.160028 172.476274 199.56375 172.476274 
C 194.967472 172.476274 190.415887 173.38164 186.16948 175.14056 
C 181.923073 176.899479 178.064426 179.477745 174.814367 182.727804 
C 171.564307 185.977863 168.986042 189.836511 167.227122 194.082918 
C 165.468203 198.329325 164.562836 202.88091 164.562836 207.477188 
C 164.562836 212.073465 165.468203 216.62505 167.227122 220.871457 
C 168.986042 225.117864 171.564307 228.976512 174.814367 232.226571 
C 178.064426 235.47663 181.923073 238.054896 186.16948 239.813815 
C 190.415887 241.572735 194.967472 242.478101 199.56375 242.478101 
C 204.160028 242.478101 208.711613 241.572735 212.95802 239.813815 
C 217.204427 238.054896 221.063074 235.47663 224.313133 232.226571 
C 227.563193 228.976512 230.141458 225.117864 231.900378 220.871457 
C 233.659297 216.62505 234.564664 212.073465 234.564664 207.477188 
" clip-path="url(#p629f4b694a)" style="fill: none; stroke: #b0b0b0; stroke-width: 0.8; stroke-linecap: square"/>
     </g>
     <g id="text_10">
      <!-- −27 -->
      <g transform="translate(231.900378 192.00323)scale(0.1 -0.1)">
       <use xlink:href="#DejaVuSans-2212"/>
       <use xlink:href="#DejaVuSans-32" x="83.789062"/>
       <use xlink:href="#DejaVuSans-37" x="147.412109"/>
      </g>
     </g>
    </g>
    <g id="ytick_3">
     <g id="line2d_11">
      <path d="M 249.155673 207.477188 
C 249.155673 200.964836 247.872882 194.515809 245.380713 188.49918 
C 242.888544 182.482552 239.235463 177.01533 234.630535 172.410402 
C 230.025607 167.805474 224.558386 164.152394 218.541757 161.660225 
C 212.525129 159.168055 206.076102 157.885264 199.56375 157.885264 
C 193.051398 157.885264 186.602371 159.168055 180.585743 161.660225 
C 174.569114 164.152394 169.101893 167.805474 164.496965 172.410402 
C 159.892037 177.01533 156.238956 182.482552 153.746787 188.49918 
C 151.254618 194.515809 149.971827 200.964836 149.971827 207.477188 
C 149.971827 213.989539 151.254618 220.438566 153.746787 226.455195 
C 156.238956 232.471823 159.892037 237.939045 164.496965 242.543973 
C 169.101893 247.148901 174.569114 250.801981 180.585743 253.29415 
C 186.602371 255.78632 193.051398 257.069111 199.56375 257.069111 
C 206.076102 257.069111 212.525129 255.78632 218.541757 253.29415 
C 224.558386 250.801981 230.025607 247.148901 234.630535 242.543973 
C 239.235463 237.939045 242.888544 232.471823 245.380713 226.455195 
C 247.872882 220.438566 249.155673 213.989539 249.155673 207.477188 
" clip-path="url(#p629f4b694a)" style="fill: none; stroke: #b0b0b0; stroke-width: 0.8; stroke-linecap: square"/>
     </g>
     <g id="text_11">
      <!-- −24 -->
      <g transform="translate(245.380713 186.419493)scale(0.1 -0.1)">
       <use xlink:href="#DejaVuSans-2212"/>
       <use xlink:href="#DejaVuSans-32" x="83.789062"/>
       <use xlink:href="#DejaVuSans-34" x="147.412109"/>
      </g>
     </g>
    </g>
    <g id="ytick_4">
     <g id="line2d_12">
      <path d="M 263.746683 207.477188 
C 263.746683 199.048762 262.086467 190.702292 258.861048 182.915442 
C 255.635629 175.128593 250.907734 168.052797 244.947937 162.093 
C 238.98814 156.133204 231.912345 151.405308 224.125495 148.179889 
C 216.338645 144.954471 207.992176 143.294255 199.56375 143.294255 
C 191.135324 143.294255 182.788855 144.954471 175.002005 148.179889 
C 167.215155 151.405308 160.13936 156.133204 154.179563 162.093 
C 148.219766 168.052797 143.491871 175.128593 140.266452 182.915442 
C 137.041033 190.702292 135.380817 199.048762 135.380817 207.477188 
C 135.380817 215.905613 137.041033 224.252083 140.266452 232.038933 
C 143.491871 239.825782 148.219766 246.901578 154.179563 252.861375 
C 160.13936 258.821171 167.215155 263.549067 175.002005 266.774486 
C 182.788855 269.999904 191.135324 271.66012 199.56375 271.66012 
C 207.992176 271.66012 216.338645 269.999904 224.125495 266.774486 
C 231.912345 263.549067 238.98814 258.821171 244.947937 252.861375 
C 250.907734 246.901578 255.635629 239.825782 258.861048 232.038933 
C 262.086467 224.252083 263.746683 215.905613 263.746683 207.477188 
" clip-path="url(#p629f4b694a)" style="fill: none; stroke: #b0b0b0; stroke-width: 0.8; stroke-linecap: square"/>
     </g>
     <g id="text_12">
      <!-- −21 -->
      <g transform="translate(258.861048 180.835755)scale(0.1 -0.1)">
       <use xlink:href="#DejaVuSans-2212"/>
       <use xlink:href="#DejaVuSans-32" x="83.789062"/>
       <use xlink:href="#DejaVuSans-31" x="147.412109"/>
      </g>
     </g>
    </g>
    <g id="ytick_5">
     <g id="line2d_13">
      <path d="M 278.337693 207.477188 
C 278.337693 197.132688 276.300052 186.888776 272.341383 177.331705 
C 268.382715 167.774634 262.580005 159.090264 255.265339 151.775599 
C 247.950673 144.460933 239.266304 138.658223 229.709233 134.699554 
C 220.152161 130.740886 209.908249 128.703245 199.56375 128.703245 
C 189.219251 128.703245 178.975339 130.740886 169.418267 134.699554 
C 159.861196 138.658223 151.176827 144.460933 143.862161 151.775599 
C 136.547495 159.090264 130.744785 167.774634 126.786117 177.331705 
C 122.827448 186.888776 120.789807 197.132688 120.789807 207.477188 
C 120.789807 217.821687 122.827448 228.065599 126.786117 237.62267 
C 130.744785 247.179741 136.547495 255.864111 143.862161 263.178776 
C 151.176827 270.493442 159.861196 276.296152 169.418267 280.254821 
C 178.975339 284.213489 189.219251 286.25113 199.56375 286.25113 
C 209.908249 286.25113 220.152161 284.213489 229.709233 280.254821 
C 239.266304 276.296152 247.950673 270.493442 255.265339 263.178776 
C 262.580005 255.864111 268.382715 247.179741 272.341383 237.62267 
C 276.300052 228.065599 278.337693 217.821687 278.337693 207.477188 
" clip-path="url(#p629f4b694a)" style="fill: none; stroke: #b0b0b0; stroke-width: 0.8; stroke-linecap: square"/>
     </g>
     <g id="text_13">
      <!-- −18 -->
      <g transform="translate(272.341383 175.252017)scale(0.1 -0.1)">
       <use xlink:href="#DejaVuSans-2212"/>
       <use xlink:href="#DejaVuSans-31" x="83.789062"/>
       <use xlink:href="#DejaVuSans-38" x="147.412109"/>
      </g>
     </g>
    </g>
    <g id="ytick_6">
     <g id="line2d_14">
      <path d="M 292.928702 207.477188 
C 292.928702 195.216614 290.513637 183.07526 285.821718 171.747967 
C 281.1298 160.420675 274.252275 150.127731 265.582741 141.458197 
C 256.913206 132.788662 246.620263 125.911137 235.29297 121.219219 
C 223.965678 116.527301 211.824323 114.112235 199.56375 114.112235 
C 187.303177 114.112235 175.161822 116.527301 163.83453 121.219219 
C 152.507237 125.911137 142.214294 132.788662 133.544759 141.458197 
C 124.875225 150.127731 117.9977 160.420675 113.305782 171.747967 
C 108.613863 183.07526 106.198798 195.216614 106.198798 207.477188 
C 106.198798 219.737761 108.613863 231.879115 113.305782 243.206408 
C 117.9977 254.5337 124.875225 264.826644 133.544759 273.496178 
C 142.214294 282.165713 152.507237 289.043238 163.83453 293.735156 
C 175.161822 298.427074 187.303177 300.84214 199.56375 300.84214 
C 211.824323 300.84214 223.965678 298.427074 235.29297 293.735156 
C 246.620263 289.043238 256.913206 282.165713 265.582741 273.496178 
C 274.252275 264.826644 281.1298 254.5337 285.821718 243.206408 
C 290.513637 231.879115 292.928702 219.737761 292.928702 207.477188 
" clip-path="url(#p629f4b694a)" style="fill: none; stroke: #b0b0b0; stroke-width: 0.8; stroke-linecap: square"/>
     </g>
     <g id="text_14">
      <!-- −15 -->
      <g transform="translate(285.821718 169.66828)scale(0.1 -0.1)">
       <use xlink:href="#DejaVuSans-2212"/>
       <use xlink:href="#DejaVuSans-31" x="83.789062"/>
       <use xlink:href="#DejaVuSans-35" x="147.412109"/>
      </g>
     </g>
    </g>
    <g id="ytick_7">
     <g id="line2d_15">
      <path d="M 307.519712 207.477188 
C 307.519712 193.300541 304.727221 179.261744 299.302053 166.16423 
C 293.876885 153.066716 285.924546 141.165198 275.900143 131.140795 
C 265.875739 121.116392 253.974222 113.164052 240.876708 107.738884 
C 227.779194 102.313716 213.740397 99.521226 199.56375 99.521226 
C 185.387103 99.521226 171.348306 102.313716 158.250792 107.738884 
C 145.153278 113.164052 133.251761 121.116392 123.227357 131.140795 
C 113.202954 141.165198 105.250615 153.066716 99.825447 166.16423 
C 94.400279 179.261744 91.607788 193.300541 91.607788 207.477188 
C 91.607788 221.653834 94.400279 235.692631 99.825447 248.790145 
C 105.250615 261.887659 113.202954 273.789177 123.227357 283.81358 
C 133.251761 293.837983 145.153278 301.790323 158.250792 307.215491 
C 171.348306 312.640659 185.387103 315.433149 199.56375 315.433149 
C 213.740397 315.433149 227.779194 312.640659 240.876708 307.215491 
C 253.974222 301.790323 265.875739 293.837983 275.900143 283.81358 
C 285.924546 273.789177 293.876885 261.887659 299.302053 248.790145 
C 304.727221 235.692631 307.519712 221.653834 307.519712 207.477188 
" clip-path="url(#p629f4b694a)" style="fill: none; stroke: #b0b0b0; stroke-width: 0.8; stroke-linecap: square"/>
     </g>
     <g id="text_15">
      <!-- −12 -->
      <g transform="translate(299.302053 164.084542)scale(0.1 -0.1)">
       <use xlink:href="#DejaVuSans-2212"/>
       <use xlink:href="#DejaVuSans-31" x="83.789062"/>
       <use xlink:href="#DejaVuSans-32" x="147.412109"/>
      </g>
     </g>
    </g>
    <g id="ytick_8">
     <g id="line2d_16">
      <path d="M 322.110721 207.477188 
C 322.110721 191.384467 318.940806 175.448227 312.782389 160.580492 
C 306.623971 145.712757 297.596816 132.202665 286.217544 120.823393 
C 274.838272 109.444121 261.328181 100.416967 246.460446 94.258549 
C 231.59271 88.100131 215.656471 84.930216 199.56375 84.930216 
C 183.471029 84.930216 167.53479 88.100131 152.667054 94.258549 
C 137.799319 100.416967 124.289228 109.444121 112.909956 120.823393 
C 101.530684 132.202665 92.503529 145.712757 86.345111 160.580492 
C 80.186694 175.448227 77.016779 191.384467 77.016779 207.477187 
C 77.016779 223.569908 80.186694 239.506148 86.345111 254.373883 
C 92.503529 269.241618 101.530684 282.75171 112.909956 294.130982 
C 124.289228 305.510254 137.799319 314.537408 152.667054 320.695826 
C 167.53479 326.854244 183.471029 330.024159 199.56375 330.024159 
C 215.656471 330.024159 231.59271 326.854244 246.460446 320.695826 
C 261.328181 314.537408 274.838272 305.510254 286.217544 294.130982 
C 297.596816 282.75171 306.623971 269.241618 312.782389 254.373883 
C 318.940806 239.506148 322.110721 223.569908 322.110721 207.477188 
" clip-path="url(#p629f4b694a)" style="fill: none; stroke: #b0b0b0; stroke-width: 0.8; stroke-linecap: square"/>
     </g>
     <g id="text_16">
      <!-- −9 -->
      <g transform="translate(312.782389 158.500804)scale(0.1 -0.1)">
       <use xlink:href="#DejaVuSans-2212"/>
       <use xlink:href="#DejaVuSans-39" x="83.789062"/>
      </g>
     </g>
    </g>
    <g id="ytick_9">
     <g id="line2d_17">
      <path d="M 336.701731 207.477188 
C 336.701731 189.468393 333.154391 171.634711 326.262724 154.996754 
C 319.371056 138.358798 309.269087 123.240132 296.534946 110.505991 
C 283.800805 97.77185 268.68214 87.669881 252.044183 80.778214 
C 235.406226 73.886547 217.572545 70.339207 199.56375 70.339207 
C 181.554955 70.339207 163.721274 73.886547 147.083317 80.778214 
C 130.44536 87.669881 115.326695 97.77185 102.592554 110.505991 
C 89.858413 123.240132 79.756444 138.358798 72.864776 154.996754 
C 65.973109 171.634711 62.425769 189.468393 62.425769 207.477187 
C 62.425769 225.485982 65.973109 243.319664 72.864776 259.957621 
C 79.756444 276.595577 89.858413 291.714243 102.592554 304.448384 
C 115.326695 317.182525 130.44536 327.284494 147.083317 334.176161 
C 163.721274 341.067828 181.554955 344.615168 199.56375 344.615168 
C 217.572545 344.615168 235.406226 341.067828 252.044183 334.176161 
C 268.68214 327.284494 283.800805 317.182525 296.534946 304.448384 
C 309.269087 291.714243 319.371056 276.595577 326.262724 259.957621 
C 333.154391 243.319664 336.701731 225.485982 336.701731 207.477188 
" clip-path="url(#p629f4b694a)" style="fill: none; stroke: #b0b0b0; stroke-width: 0.8; stroke-linecap: square"/>
     </g>
     <g id="text_17">
      <!-- −6 -->
      <g transform="translate(326.262724 152.917067)scale(0.1 -0.1)">
       <defs>
        <path id="DejaVuSans-36" d="M 2113 2584 
Q 1688 2584 1439 2293 
Q 1191 2003 1191 1497 
Q 1191 994 1439 701 
Q 1688 409 2113 409 
Q 2538 409 2786 701 
Q 3034 994 3034 1497 
Q 3034 2003 2786 2293 
Q 2538 2584 2113 2584 
z
M 3366 4563 
L 3366 3988 
Q 3128 4100 2886 4159 
Q 2644 4219 2406 4219 
Q 1781 4219 1451 3797 
Q 1122 3375 1075 2522 
Q 1259 2794 1537 2939 
Q 1816 3084 2150 3084 
Q 2853 3084 3261 2657 
Q 3669 2231 3669 1497 
Q 3669 778 3244 343 
Q 2819 -91 2113 -91 
Q 1303 -91 875 529 
Q 447 1150 447 2328 
Q 447 3434 972 4092 
Q 1497 4750 2381 4750 
Q 2619 4750 2861 4703 
Q 3103 4656 3366 4563 
z
" transform="scale(0.015625)"/>
       </defs>
       <use xlink:href="#DejaVuSans-2212"/>
       <use xlink:href="#DejaVuSans-36" x="83.789062"/>
      </g>
     </g>
    </g>
    <g id="ytick_10">
     <g id="line2d_18">
      <path d="M 351.29274 207.477188 
C 351.29274 187.552319 347.367976 167.821195 339.743059 149.413017 
C 332.118142 131.004838 320.941358 114.277599 306.852348 100.188589 
C 292.763338 86.09958 276.036099 74.922796 257.627921 67.297879 
C 239.219743 59.672962 219.488618 55.748197 199.56375 55.748197 
C 179.638882 55.748197 159.907757 59.672962 141.499579 67.297879 
C 123.091401 74.922796 106.364162 86.09958 92.275152 100.188589 
C 78.186142 114.277599 67.009358 131.004838 59.384441 149.413017 
C 51.759524 167.821195 47.83476 187.552319 47.83476 207.477187 
C 47.83476 227.402056 51.759524 247.13318 59.384441 265.541358 
C 67.009358 283.949537 78.186142 300.676776 92.275152 314.765786 
C 106.364162 328.854795 123.091401 340.031579 141.499579 347.656496 
C 159.907757 355.281413 179.638882 359.206178 199.56375 359.206178 
C 219.488618 359.206178 239.219743 355.281413 257.627921 347.656496 
C 276.036099 340.031579 292.763338 328.854795 306.852348 314.765786 
C 320.941358 300.676776 332.118142 283.949537 339.743059 265.541358 
C 347.367976 247.13318 351.29274 227.402056 351.29274 207.477188 
" clip-path="url(#p629f4b694a)" style="fill: none; stroke: #b0b0b0; stroke-width: 0.8; stroke-linecap: square"/>
     </g>
     <g id="text_18">
      <!-- −3 -->
      <g transform="translate(339.743059 147.333329)scale(0.1 -0.1)">
       <use xlink:href="#DejaVuSans-2212"/>
       <use xlink:href="#DejaVuSans-33" x="83.789062"/>
      </g>
     </g>
    </g>
   </g>
   <g id="line2d_19">
    <path d="M 362.727228 207.477188 
L 362.828814 204.627385 
L 362.761582 196.065283 
L 362.186871 187.509579 
L 361.07704 178.998037 
L 360.426505 176.208635 
L 359.322557 170.593961 
L 356.625665 159.458541 
L 354.936937 153.977909 
L 354.016144 151.261113 
L 352.988811 148.582824 
L 351.734667 145.996146 
L 349.43855 140.748627 
L 346.957257 135.588571 
L 345.831854 132.949866 
L 342.971631 127.984901 
L 341.225492 125.688742 
L 338.132209 120.890004 
L 334.921112 116.177494 
L 328.015681 107.11954 
L 324.360485 102.760293 
L 318.548929 96.521713 
L 312.376187 90.656489 
L 308.041725 87.000191 
L 303.599109 83.492674 
L 296.74523 78.513007 
L 292.05134 75.39122 
L 289.658603 73.906075 
L 287.207786 72.517207 
L 282.121218 70.078487 
L 279.42375 69.15561 
L 273.958642 67.560744 
L 265.590563 65.882231 
L 257.131215 64.992711 
L 254.198262 65.149418 
L 248.56918 65.155084 
L 245.605925 65.773944 
L 242.795946 66.071046 
L 239.947454 66.642474 
L 237.040298 67.612808 
L 234.255927 68.334464 
L 231.434961 69.427805 
L 228.595092 70.895461 
L 225.923013 71.870535 
L 223.24238 73.189006 
L 220.53372 75.078009 
L 217.978868 76.446814 
L 212.903141 80.56136 
L 210.536487 82.058228 
L 208.179371 84.268074 
L 205.939181 85.826713 
L 201.646891 88.134099 
L 199.56375 88.587696 
L 197.489861 88.664159 
L 195.395895 88.125442 
L 193.265955 87.3081 
L 191.091981 86.325246 
L 188.811863 84.582557 
L 184.122838 81.721049 
L 181.602826 79.678576 
L 179.127133 78.445466 
L 176.522769 76.805289 
L 173.80214 74.945191 
L 171.18363 73.959218 
L 165.603435 71.269805 
L 162.901653 70.652378 
L 160.029992 69.606589 
L 157.20324 68.922201 
L 154.447396 68.623329 
L 151.509977 67.918897 
L 148.697405 67.723054 
L 145.947141 67.801145 
L 143.109504 67.748025 
L 140.384932 68.060629 
L 134.922328 68.853211 
L 129.706475 70.374566 
L 127.143959 71.275371 
L 122.157471 73.40558 
L 119.766764 74.672701 
L 115.124937 77.452818 
L 110.752967 80.642244 
L 106.562068 84.059787 
L 104.548066 85.862657 
L 98.999502 91.791254 
L 93.910543 98.070088 
L 90.821391 102.465912 
L 89.389416 104.737959 
L 88.093866 107.109253 
L 86.68587 109.353944 
L 82.950795 116.369162 
L 80.727536 121.137624 
L 79.438006 123.364236 
L 77.424119 128.158784 
L 76.27703 130.439095 
L 74.930462 132.589953 
L 72.839514 137.232797 
L 71.980725 139.64009 
L 68.212582 148.99588 
L 66.301234 153.635636 
L 65.70425 156.09334 
L 64.773022 158.417375 
L 63.702806 160.696513 
L 61.794808 165.356995 
L 60.711347 167.661902 
L 59.751048 170.014487 
L 57.647332 174.713201 
L 56.716545 177.114077 
L 55.616377 179.496653 
L 49.744554 194.369706 
L 47.392511 202.163251 
L 46.890146 204.81226 
L 46.127611 207.477187 
L 44.453373 215.606178 
L 44.119129 218.346934 
L 43.600888 221.12217 
L 42.501914 232.353338 
L 42.349236 240.894164 
L 42.876032 249.461535 
L 44.011385 258.019215 
L 45.285029 263.63005 
L 46.034254 266.411639 
L 49.831659 277.298408 
L 51.991244 282.669135 
L 54.467086 287.905582 
L 57.187289 293.025596 
L 58.570011 295.579854 
L 61.678221 300.482151 
L 65.035587 305.217619 
L 68.685767 309.730274 
L 72.51664 314.082371 
L 78.565274 320.310092 
L 82.841608 324.19933 
L 85.058639 326.050701 
L 89.631045 329.569825 
L 97.166301 333.927506 
L 105.419681 337.055383 
L 108.41242 337.654778 
L 111.220403 338.451586 
L 114.099795 339.080137 
L 117.19827 339.289509 
L 120.034797 339.835593 
L 122.933227 340.205147 
L 125.982854 340.220637 
L 128.877026 340.419581 
L 131.982985 340.111907 
L 135.128929 339.588149 
L 138.102149 339.282017 
L 141.381155 338.157435 
L 147.817456 335.55376 
L 151.357361 333.059124 
L 154.627687 330.938007 
L 157.843801 328.640718 
L 161.38805 324.969911 
L 164.552133 321.995027 
L 167.757263 318.39959 
L 171.144343 313.539858 
L 174.003384 309.994215 
L 177.001037 305.207036 
L 180.159163 298.76859 
L 182.801266 293.712694 
L 185.747134 285.835111 
L 188.71607 275.966743 
L 191.2262 266.801936 
L 194.402 249.516264 
L 197.616914 226.000096 
L 198.873477 215.36705 
L 197.530015 236.560951 
L 197.035255 255.723755 
L 197.486578 266.959604 
L 198.286146 280.671079 
L 199.56375 287.929096 
L 201.068161 293.664825 
L 202.827572 300.940807 
L 204.692166 305.333197 
L 206.678768 309.226692 
L 208.86591 313.801363 
L 213.263808 319.055203 
L 215.666605 322.054954 
L 218.000865 323.884549 
L 222.978368 327.934952 
L 225.408757 329.068388 
L 227.972174 330.52759 
L 230.562491 331.806349 
L 238.28963 334.143833 
L 240.812996 334.429313 
L 243.462535 334.968515 
L 246.015237 335.1016 
L 248.503935 334.970728 
L 251.091409 335.012618 
L 256.001543 334.238547 
L 258.410786 333.675064 
L 263.006611 331.990812 
L 265.270478 331.05357 
L 267.440755 329.930546 
L 269.5505 328.697795 
L 273.555412 325.8886 
L 275.45177 324.334491 
L 279.098826 321.065048 
L 289.358864 310.774649 
L 291.12845 309.170089 
L 294.905504 306.206464 
L 296.964838 304.878275 
L 301.030394 302.096363 
L 303.150603 300.747209 
L 305.092972 299.212341 
L 309.428388 296.443817 
L 311.428084 294.875184 
L 315.74398 291.887065 
L 317.701435 290.198085 
L 319.893232 288.640448 
L 321.935885 286.946581 
L 323.852754 285.141577 
L 326.048064 283.476631 
L 327.911165 281.578602 
L 329.686821 279.605584 
L 331.707391 277.739208 
L 338.868217 269.499532 
L 340.605471 267.345846 
L 342.521726 265.235959 
L 347.408881 258.384348 
L 350.216379 253.536318 
L 351.707916 251.103825 
L 352.906532 248.565262 
L 354.256232 246.046355 
L 357.30888 238.139735 
L 358.926601 232.717784 
L 359.641452 229.974641 
L 360.246249 227.206518 
L 361.684478 218.813773 
L 362.389659 213.163194 
L 362.571079 210.322491 
L 362.571079 210.322491 
" clip-path="url(#p629f4b694a)" style="fill: none; stroke: #ff0000; stroke-width: 1.5; stroke-linecap: square"/>
   </g>
   <g id="line2d_20">
    <path d="M 360.236689 207.477188 
L 359.881194 201.878779 
L 359.287338 196.308226 
L 358.456819 190.776853 
L 357.401518 185.294536 
L 356.119283 179.872223 
L 354.627592 174.51735 
L 352.925087 169.239912 
L 351.020326 164.047713 
L 348.931331 158.944719 
L 346.657553 153.939422 
L 344.207969 149.03713 
L 341.600463 144.238368 
L 338.843563 139.545884 
L 335.941335 134.963939 
L 332.910588 130.489355 
L 329.754805 126.124787 
L 326.48554 121.867359 
L 323.113569 117.71299 
L 317.868375 111.675991 
L 312.421315 105.85978 
L 306.779885 100.261052 
L 300.950093 94.876246 
L 294.933373 89.705512 
L 288.716166 84.769414 
L 282.301755 80.071832 
L 277.907675 77.091001 
L 273.422719 74.23208 
L 268.842358 71.510263 
L 264.165974 68.937271 
L 259.399969 66.51189 
L 254.541507 64.255233 
L 249.596732 62.170856 
L 244.570502 60.266736 
L 239.467196 58.5555 
L 234.29483 57.040353 
L 229.059696 55.7337 
L 223.770304 54.643023 
L 218.436541 53.770643 
L 213.068393 53.118414 
L 207.675668 52.692569 
L 202.268906 52.498895 
L 196.859273 52.537799 
L 191.457941 52.809138 
L 186.076487 53.317065 
L 180.725338 54.050634 
L 175.416542 55.017719 
L 170.160607 56.211131 
L 164.968337 57.627991 
L 159.849126 59.260192 
L 154.811536 61.099292 
L 149.86646 63.145778 
L 145.021738 65.39039 
L 140.282444 67.819183 
L 135.654221 70.422761 
L 131.144077 73.196018 
L 126.751712 76.120794 
L 122.482333 79.192166 
L 118.330345 82.388713 
L 114.301643 85.71028 
L 110.387901 89.136838 
L 104.723078 94.450475 
L 99.292613 99.949558 
L 94.061368 105.594722 
L 89.013325 111.377169 
L 84.116181 117.279661 
L 79.358603 123.308638 
L 74.730584 129.472768 
L 70.236449 135.789894 
L 65.892491 142.281358 
L 61.732374 148.97124 
L 57.785269 155.874041 
L 55.298234 160.60248 
L 52.932042 165.431222 
L 50.709247 170.363592 
L 48.643592 175.398118 
L 46.739456 180.530141 
L 45.01554 185.756853 
L 43.476156 191.07172 
L 42.144777 196.469381 
L 41.015604 201.940564 
L 40.106729 207.477187 
L 39.421292 213.069485 
L 38.971686 218.706879 
L 38.754735 224.378896 
L 38.782237 230.073556 
L 39.055212 235.779173 
L 39.576964 241.483429 
L 40.349191 247.173835 
L 41.373866 252.837407 
L 42.65085 258.461279 
L 44.179323 264.032494 
L 45.959122 269.537486 
L 47.987344 274.963352 
L 50.261892 280.296569 
L 52.778809 285.524125 
L 55.534113 290.632737 
L 58.522949 295.609262 
L 61.739627 300.440732 
L 65.177908 305.114217 
L 68.830794 309.616967 
L 72.690522 313.936466 
L 76.748844 318.060225 
L 80.996779 321.97598 
L 85.424777 325.671554 
L 90.021804 329.135843 
L 94.777671 332.356374 
L 99.680022 335.32253 
L 104.716617 338.023066 
L 109.874327 340.447225 
L 115.139146 342.584797 
L 120.49913 344.421126 
L 125.933941 345.954718 
L 131.432029 347.167916 
L 136.973791 348.056537 
L 142.543001 348.608494 
L 148.120297 348.816914 
L 153.687005 348.671289 
L 159.221699 348.16664 
L 164.70222 347.299146 
L 170.105746 346.066198 
L 175.409688 344.46168 
L 180.588213 342.495151 
L 185.616358 340.17776 
L 190.468761 337.541586 
L 195.123814 334.620306 
L 199.56375 331.487783 
L 205.809091 326.645393 
L 211.613315 322.121141 
L 213.481892 320.831354 
L 215.336234 319.704244 
L 217.185946 318.739353 
L 219.040598 317.93588 
L 220.92828 317.388166 
L 222.853349 317.046138 
L 224.827689 316.907331 
L 226.86309 316.968859 
L 228.958647 317.180436 
L 233.352348 317.994712 
L 240.439159 319.781451 
L 247.988144 321.55791 
L 253.200011 322.500521 
L 258.502014 323.150043 
L 263.854142 323.460125 
L 269.225431 323.413694 
L 274.582731 322.996288 
L 279.90206 322.212185 
L 285.159842 321.067038 
L 290.336041 319.571632 
L 295.414882 317.741302 
L 300.37556 315.584619 
L 305.208201 313.121639 
L 309.897903 310.365449 
L 314.43087 307.329651 
L 318.794421 304.028282 
L 322.984763 300.481592 
L 326.984075 296.697859 
L 330.787065 292.694605 
L 334.38573 288.486406 
L 337.773114 284.087889 
L 340.938959 279.511455 
L 343.882531 274.77414 
L 346.595426 269.888431 
L 349.069932 264.867234 
L 351.308248 259.727008 
L 353.304417 254.480427 
L 355.053164 249.14045 
L 356.554641 243.721391 
L 357.805074 238.236185 
L 358.810974 232.69947 
L 359.560418 227.122308 
L 360.061344 221.518908 
L 360.317626 215.901941 
L 360.324065 210.283269 
L 360.324065 210.283269 
" clip-path="url(#p629f4b694a)" style="fill: none; stroke-dasharray: 5.55,2.4; stroke-dashoffset: 0; stroke: #0000ff; stroke-width: 1.5"/>
   </g>
   <g id="patch_3">
    <path d="M 365.88375 207.477188 
C 365.88375 185.636245 361.581561 164.007679 353.223394 143.829279 
C 344.865227 123.650879 332.613628 105.315066 317.16975 89.871188 
C 301.725871 74.427309 283.390058 62.17571 263.211658 53.817544 
C 243.033259 45.459377 221.404692 41.157187 199.56375 41.157187 
C 177.722808 41.157187 156.094241 45.459377 135.915842 53.817544 
C 115.737442 62.17571 97.401629 74.427309 81.95775 89.871188 
C 66.513872 105.315066 54.262273 123.650879 45.904106 143.829279 
C 37.545939 164.007679 33.24375 185.636245 33.24375 207.477187 
C 33.24375 229.31813 37.545939 250.946696 45.904106 271.125096 
C 54.262273 291.303496 66.513872 309.639309 81.95775 325.083187 
C 97.401629 340.527066 115.737442 352.778665 135.915842 361.136831 
C 156.094241 369.494998 177.722808 373.797188 199.56375 373.797188 
C 221.404692 373.797188 243.033259 369.494998 263.211658 361.136831 
C 283.390058 352.778665 301.725871 340.527066 317.16975 325.083187 
C 332.613628 309.639309 344.865227 291.303496 353.223394 271.125096 
C 361.581561 250.946696 365.88375 229.31813 365.88375 207.477188 
" style="fill: none; stroke: #000000; stroke-width: 0.8; stroke-linejoin: miter; stroke-linecap: square"/>
   </g>
   <g id="text_19">
    <!-- Radiation Diagram - 1AVHF03 -->
    <g transform="translate(110.319375 16.318125)scale(0.12 -0.12)">
     <defs>
      <path id="DejaVuSans-52" d="M 2841 2188 
Q 3044 2119 3236 1894 
Q 3428 1669 3622 1275 
L 4263 0 
L 3584 0 
L 2988 1197 
Q 2756 1666 2539 1819 
Q 2322 1972 1947 1972 
L 1259 1972 
L 1259 0 
L 628 0 
L 628 4666 
L 2053 4666 
Q 2853 4666 3247 4331 
Q 3641 3997 3641 3322 
Q 3641 2881 3436 2590 
Q 3231 2300 2841 2188 
z
M 1259 4147 
L 1259 2491 
L 2053 2491 
Q 2509 2491 2742 2702 
Q 2975 2913 2975 3322 
Q 2975 3731 2742 3939 
Q 2509 4147 2053 4147 
L 1259 4147 
z
" transform="scale(0.015625)"/>
      <path id="DejaVuSans-61" d="M 2194 1759 
Q 1497 1759 1228 1600 
Q 959 1441 959 1056 
Q 959 750 1161 570 
Q 1363 391 1709 391 
Q 2188 391 2477 730 
Q 2766 1069 2766 1631 
L 2766 1759 
L 2194 1759 
z
M 3341 1997 
L 3341 0 
L 2766 0 
L 2766 531 
Q 2569 213 2275 61 
Q 1981 -91 1556 -91 
Q 1019 -91 701 211 
Q 384 513 384 1019 
Q 384 1609 779 1909 
Q 1175 2209 1959 2209 
L 2766 2209 
L 2766 2266 
Q 2766 2663 2505 2880 
Q 2244 3097 1772 3097 
Q 1472 3097 1187 3025 
Q 903 2953 641 2809 
L 641 3341 
Q 956 3463 1253 3523 
Q 1550 3584 1831 3584 
Q 2591 3584 2966 3190 
Q 3341 2797 3341 1997 
z
" transform="scale(0.015625)"/>
      <path id="DejaVuSans-64" d="M 2906 2969 
L 2906 4863 
L 3481 4863 
L 3481 0 
L 2906 0 
L 2906 525 
Q 2725 213 2448 61 
Q 2172 -91 1784 -91 
Q 1150 -91 751 415 
Q 353 922 353 1747 
Q 353 2572 751 3078 
Q 1150 3584 1784 3584 
Q 2172 3584 2448 3432 
Q 2725 3281 2906 2969 
z
M 947 1747 
Q 947 1113 1208 752 
Q 1469 391 1925 391 
Q 2381 391 2643 752 
Q 2906 1113 2906 1747 
Q 2906 2381 2643 2742 
Q 2381 3103 1925 3103 
Q 1469 3103 1208 2742 
Q 947 2381 947 1747 
z
" transform="scale(0.015625)"/>
      <path id="DejaVuSans-69" d="M 603 3500 
L 1178 3500 
L 1178 0 
L 603 0 
L 603 3500 
z
M 603 4863 
L 1178 4863 
L 1178 4134 
L 603 4134 
L 603 4863 
z
" transform="scale(0.015625)"/>
      <path id="DejaVuSans-74" d="M 1172 4494 
L 1172 3500 
L 2356 3500 
L 2356 3053 
L 1172 3053 
L 1172 1153 
Q 1172 725 1289 603 
Q 1406 481 1766 481 
L 2356 481 
L 2356 0 
L 1766 0 
Q 1100 0 847 248 
Q 594 497 594 1153 
L 594 3053 
L 172 3053 
L 172 3500 
L 594 3500 
L 594 4494 
L 1172 4494 
z
" transform="scale(0.015625)"/>
      <path id="DejaVuSans-6f" d="M 1959 3097 
Q 1497 3097 1228 2736 
Q 959 2375 959 1747 
Q 959 1119 1226 758 
Q 1494 397 1959 397 
Q 2419 397 2687 759 
Q 2956 1122 2956 1747 
Q 2956 2369 2687 2733 
Q 2419 3097 1959 3097 
z
M 1959 3584 
Q 2709 3584 3137 3096 
Q 3566 2609 3566 1747 
Q 3566 888 3137 398 
Q 2709 -91 1959 -91 
Q 1206 -91 779 398 
Q 353 888 353 1747 
Q 353 2609 779 3096 
Q 1206 3584 1959 3584 
z
" transform="scale(0.015625)"/>
      <path id="DejaVuSans-6e" d="M 3513 2113 
L 3513 0 
L 2938 0 
L 2938 2094 
Q 2938 2591 2744 2837 
Q 2550 3084 2163 3084 
Q 1697 3084 1428 2787 
Q 1159 2491 1159 1978 
L 1159 0 
L 581 0 
L 581 3500 
L 1159 3500 
L 1159 2956 
Q 1366 3272 1645 3428 
Q 1925 3584 2291 3584 
Q 2894 3584 3203 3211 
Q 3513 2838 3513 2113 
z
" transform="scale(0.015625)"/>
      <path id="DejaVuSans-20" transform="scale(0.015625)"/>
      <path id="DejaVuSans-44" d="M 1259 4147 
L 1259 519 
L 2022 519 
Q 2988 519 3436 956 
Q 3884 1394 3884 2338 
Q 3884 3275 3436 3711 
Q 2988 4147 2022 4147 
L 1259 4147 
z
M 628 4666 
L 1925 4666 
Q 3281 4666 3915 4102 
Q 4550 3538 4550 2338 
Q 4550 1131 3912 565 
Q 3275 0 1925 0 
L 628 0 
L 628 4666 
z
" transform="scale(0.015625)"/>
      <path id="DejaVuSans-67" d="M 2906 1791 
Q 2906 2416 2648 2759 
Q 2391 3103 1925 3103 
Q 1463 3103 1205 2759 
Q 947 2416 947 1791 
Q 947 1169 1205 825 
Q 1463 481 1925 481 
Q 2391 481 2648 825 
Q 2906 1169 2906 1791 
z
M 3481 434 
Q 3481 -459 3084 -895 
Q 2688 -1331 1869 -1331 
Q 1566 -1331 1297 -1286 
Q 1028 -1241 775 -1147 
L 775 -588 
Q 1028 -725 1275 -790 
Q 1522 -856 1778 -856 
Q 2344 -856 2625 -561 
Q 2906 -266 2906 331 
L 2906 616 
Q 2728 306 2450 153 
Q 2172 0 1784 0 
Q 1141 0 747 490 
Q 353 981 353 1791 
Q 353 2603 747 3093 
Q 1141 3584 1784 3584 
Q 2172 3584 2450 3431 
Q 2728 3278 2906 2969 
L 2906 3500 
L 3481 3500 
L 3481 434 
z
" transform="scale(0.015625)"/>
      <path id="DejaVuSans-72" d="M 2631 2963 
Q 2534 3019 2420 3045 
Q 2306 3072 2169 3072 
Q 1681 3072 1420 2755 
Q 1159 2438 1159 1844 
L 1159 0 
L 581 0 
L 581 3500 
L 1159 3500 
L 1159 2956 
Q 1341 3275 1631 3429 
Q 1922 3584 2338 3584 
Q 2397 3584 2469 3576 
Q 2541 3569 2628 3553 
L 2631 2963 
z
" transform="scale(0.015625)"/>
      <path id="DejaVuSans-6d" d="M 3328 2828 
Q 3544 3216 3844 3400 
Q 4144 3584 4550 3584 
Q 5097 3584 5394 3201 
Q 5691 2819 5691 2113 
L 5691 0 
L 5113 0 
L 5113 2094 
Q 5113 2597 4934 2840 
Q 4756 3084 4391 3084 
Q 3944 3084 3684 2787 
Q 3425 2491 3425 1978 
L 3425 0 
L 2847 0 
L 2847 2094 
Q 2847 2600 2669 2842 
Q 2491 3084 2119 3084 
Q 1678 3084 1418 2786 
Q 1159 2488 1159 1978 
L 1159 0 
L 581 0 
L 581 3500 
L 1159 3500 
L 1159 2956 
Q 1356 3278 1631 3431 
Q 1906 3584 2284 3584 
Q 2666 3584 2933 3390 
Q 3200 3197 3328 2828 
z
" transform="scale(0.015625)"/>
      <path id="DejaVuSans-2d" d="M 313 2009 
L 1997 2009 
L 1997 1497 
L 313 1497 
L 313 2009 
z
" transform="scale(0.015625)"/>
      <path id="DejaVuSans-41" d="M 2188 4044 
L 1331 1722 
L 3047 1722 
L 2188 4044 
z
M 1831 4666 
L 2547 4666 
L 4325 0 
L 3669 0 
L 3244 1197 
L 1141 1197 
L 716 0 
L 50 0 
L 1831 4666 
z
" transform="scale(0.015625)"/>
      <path id="DejaVuSans-56" d="M 1831 0 
L 50 4666 
L 709 4666 
L 2188 738 
L 3669 4666 
L 4325 4666 
L 2547 0 
L 1831 0 
z
" transform="scale(0.015625)"/>
      <path id="DejaVuSans-48" d="M 628 4666 
L 1259 4666 
L 1259 2753 
L 3553 2753 
L 3553 4666 
L 4184 4666 
L 4184 0 
L 3553 0 
L 3553 2222 
L 1259 2222 
L 1259 0 
L 628 0 
L 628 4666 
z
" transform="scale(0.015625)"/>
      <path id="DejaVuSans-46" d="M 628 4666 
L 3309 4666 
L 3309 4134 
L 1259 4134 
L 1259 2759 
L 3109 2759 
L 3109 2228 
L 1259 2228 
L 1259 0 
L 628 0 
L 628 4666 
z
" transform="scale(0.015625)"/>
     </defs>
     <use xlink:href="#DejaVuSans-52"/>
     <use xlink:href="#DejaVuSans-61" x="67.232422"/>
     <use xlink:href="#DejaVuSans-64" x="128.511719"/>
     <use xlink:href="#DejaVuSans-69" x="191.988281"/>
     <use xlink:href="#DejaVuSans-61" x="219.771484"/>
     <use xlink:href="#DejaVuSans-74" x="281.050781"/>
     <use xlink:href="#DejaVuSans-69" x="320.259766"/>
     <use xlink:href="#DejaVuSans-6f" x="348.042969"/>
     <use xlink:href="#DejaVuSans-6e" x="409.224609"/>
     <use xlink:href="#DejaVuSans-20" x="472.603516"/>
     <use xlink:href="#DejaVuSans-44" x="504.390625"/>
     <use xlink:href="#DejaVuSans-69" x="581.392578"/>
     <use xlink:href="#DejaVuSans-61" x="609.175781"/>
     <use xlink:href="#DejaVuSans-67" x="670.455078"/>
     <use xlink:href="#DejaVuSans-72" x="733.931641"/>
     <use xlink:href="#DejaVuSans-61" x="775.044922"/>
     <use xlink:href="#DejaVuSans-6d" x="836.324219"/>
     <use xlink:href="#DejaVuSans-20" x="933.736328"/>
     <use xlink:href="#DejaVuSans-2d" x="965.523438"/>
     <use xlink:href="#DejaVuSans-20" x="1001.607422"/>
     <use xlink:href="#DejaVuSans-31" x="1033.394531"/>
     <use xlink:href="#DejaVuSans-41" x="1097.017578"/>
     <use xlink:href="#DejaVuSans-56" x="1159.050781"/>
     <use xlink:href="#DejaVuSans-48" x="1227.458984"/>
     <use xlink:href="#DejaVuSans-46" x="1302.654297"/>
     <use xlink:href="#DejaVuSans-30" x="1360.173828"/>
     <use xlink:href="#DejaVuSans-33" x="1423.796875"/>
    </g>
   </g>
   <g id="legend_1">
    <g id="patch_4">
     <path d="M 304.104062 78.513438 
L 358.88375 78.513438 
Q 360.88375 78.513438 360.88375 76.513438 
L 360.88375 48.157188 
Q 360.88375 46.157188 358.88375 46.157188 
L 304.104062 46.157188 
Q 302.104062 46.157188 302.104062 48.157188 
L 302.104062 76.513438 
Q 302.104062 78.513438 304.104062 78.513438 
z
" style="fill: #ffffff; opacity: 0.8; stroke: #cccccc; stroke-linejoin: miter"/>
    </g>
    <g id="line2d_21">
     <path d="M 306.104062 54.255625 
L 316.104062 54.255625 
L 326.104062 54.255625 
" style="fill: none; stroke: #ff0000; stroke-width: 1.5; stroke-linecap: square"/>
    </g>
    <g id="text_20">
     <!-- INPE -->
     <g transform="translate(334.104062 57.755625)scale(0.1 -0.1)">
      <defs>
       <path id="DejaVuSans-49" d="M 628 4666 
L 1259 4666 
L 1259 0 
L 628 0 
L 628 4666 
z
" transform="scale(0.015625)"/>
       <path id="DejaVuSans-4e" d="M 628 4666 
L 1478 4666 
L 3547 763 
L 3547 4666 
L 4159 4666 
L 4159 0 
L 3309 0 
L 1241 3903 
L 1241 0 
L 628 0 
L 628 4666 
z
" transform="scale(0.015625)"/>
       <path id="DejaVuSans-50" d="M 1259 4147 
L 1259 2394 
L 2053 2394 
Q 2494 2394 2734 2622 
Q 2975 2850 2975 3272 
Q 2975 3691 2734 3919 
Q 2494 4147 2053 4147 
L 1259 4147 
z
M 628 4666 
L 2053 4666 
Q 2838 4666 3239 4311 
Q 3641 3956 3641 3272 
Q 3641 2581 3239 2228 
Q 2838 1875 2053 1875 
L 1259 1875 
L 1259 0 
L 628 0 
L 628 4666 
z
" transform="scale(0.015625)"/>
       <path id="DejaVuSans-45" d="M 628 4666 
L 3578 4666 
L 3578 4134 
L 1259 4134 
L 1259 2753 
L 3481 2753 
L 3481 2222 
L 1259 2222 
L 1259 531 
L 3634 531 
L 3634 0 
L 628 0 
L 628 4666 
z
" transform="scale(0.015625)"/>
      </defs>
      <use xlink:href="#DejaVuSans-49"/>
      <use xlink:href="#DejaVuSans-4e" x="29.492188"/>
      <use xlink:href="#DejaVuSans-50" x="104.296875"/>
      <use xlink:href="#DejaVuSans-45" x="164.599609"/>
     </g>
    </g>
    <g id="line2d_22">
     <path d="M 306.104062 68.93375 
L 316.104062 68.93375 
L 326.104062 68.93375 
" style="fill: none; stroke-dasharray: 5.55,2.4; stroke-dashoffset: 0; stroke: #0000ff; stroke-width: 1.5"/>
    </g>
    <g id="text_21">
     <!-- CST -->
     <g transform="translate(334.104062 72.43375)scale(0.1 -0.1)">
      <defs>
       <path id="DejaVuSans-43" d="M 4122 4306 
L 4122 3641 
Q 3803 3938 3442 4084 
Q 3081 4231 2675 4231 
Q 1875 4231 1450 3742 
Q 1025 3253 1025 2328 
Q 1025 1406 1450 917 
Q 1875 428 2675 428 
Q 3081 428 3442 575 
Q 3803 722 4122 1019 
L 4122 359 
Q 3791 134 3420 21 
Q 3050 -91 2638 -91 
Q 1578 -91 968 557 
Q 359 1206 359 2328 
Q 359 3453 968 4101 
Q 1578 4750 2638 4750 
Q 3056 4750 3426 4639 
Q 3797 4528 4122 4306 
z
" transform="scale(0.015625)"/>
       <path id="DejaVuSans-53" d="M 3425 4513 
L 3425 3897 
Q 3066 4069 2747 4153 
Q 2428 4238 2131 4238 
Q 1616 4238 1336 4038 
Q 1056 3838 1056 3469 
Q 1056 3159 1242 3001 
Q 1428 2844 1947 2747 
L 2328 2669 
Q 3034 2534 3370 2195 
Q 3706 1856 3706 1288 
Q 3706 609 3251 259 
Q 2797 -91 1919 -91 
Q 1588 -91 1214 -16 
Q 841 59 441 206 
L 441 856 
Q 825 641 1194 531 
Q 1563 422 1919 422 
Q 2459 422 2753 634 
Q 3047 847 3047 1241 
Q 3047 1584 2836 1778 
Q 2625 1972 2144 2069 
L 1759 2144 
Q 1053 2284 737 2584 
Q 422 2884 422 3419 
Q 422 4038 858 4394 
Q 1294 4750 2059 4750 
Q 2388 4750 2728 4690 
Q 3069 4631 3425 4513 
z
" transform="scale(0.015625)"/>
       <path id="DejaVuSans-54" d="M -19 4666 
L 3928 4666 
L 3928 4134 
L 2272 4134 
L 2272 0 
L 1638 0 
L 1638 4134 
L -19 4134 
L -19 4666 
z
" transform="scale(0.015625)"/>
      </defs>
      <use xlink:href="#DejaVuSans-43"/>
      <use xlink:href="#DejaVuSans-53" x="69.824219"/>
      <use xlink:href="#DejaVuSans-54" x="133.300781"/>
     </g>
    </g>
   </g>
  </g>
 </g>
 <defs>
  <clipPath id="p629f4b694a">
   <path d="M 365.88375 207.477188 
C 365.88375 185.636245 361.581561 164.007679 353.223394 143.829279 
C 344.865227 123.650879 332.613628 105.315066 317.16975 89.871188 
C 301.725871 74.427309 283.390058 62.17571 263.211658 53.817544 
C 243.033259 45.459377 221.404692 41.157188 199.56375 41.157188 
C 177.722808 41.157188 156.094241 45.459377 135.915842 53.817544 
C 115.737442 62.17571 97.401629 74.427309 81.95775 89.871188 
C 66.513872 105.315066 54.262273 123.650879 45.904106 143.829279 
C 37.545939 164.007679 33.24375 185.636245 33.24375 207.477188 
C 33.24375 229.31813 37.545939 250.946696 45.904106 271.125096 
C 54.262273 291.303496 66.513872 309.639309 81.95775 325.083187 
C 97.401629 340.527066 115.737442 352.778665 135.915842 361.136831 
C 156.094241 369.494998 177.722808 373.797188 199.56375 373.797188 
C 221.404692 373.797188 243.033259 369.494998 263.211658 361.136831 
C 283.390058 352.778665 301.725871 340.527066 317.16975 325.083187 
C 332.613628 309.639309 344.865227 291.303496 353.223394 271.125096 
C 361.581561 250.946696 365.88375 229.31813 365.88375 207.477188 
M 199.56375 207.477188 
C 199.56375 207.477188 199.56375 207.477188 199.56375 207.477188 
C 199.56375 207.477188 199.56375 207.477188 199.56375 207.477188 
C 199.56375 207.477188 199.56375 207.477188 199.56375 207.477188 
C 199.56375 207.477188 199.56375 207.477188 199.56375 207.477188 
C 199.56375 207.477188 199.56375 207.477188 199.56375 207.477188 
C 199.56375 207.477188 199.56375 207.477188 199.56375 207.477188 
C 199.56375 207.477188 199.56375 207.477188 199.56375 207.477188 
C 199.56375 207.477188 199.56375 207.477188 199.56375 207.477188 
C 199.56375 207.477188 199.56375 207.477188 199.56375 207.477188 
C 199.56375 207.477188 199.56375 207.477188 199.56375 207.477188 
C 199.56375 207.477188 199.56375 207.477188 199.56375 207.477188 
C 199.56375 207.477188 199.56375 207.477188 199.56375 207.477188 
C 199.56375 207.477188 199.56375 207.477188 199.56375 207.477188 
C 199.56375 207.477188 199.56375 207.477188 199.56375 207.477188 
C 199.56375 207.477188 199.56375 207.477188 199.56375 207.477188 
C 199.56375 207.477188 199.56375 207.477188 199.56375 207.477188 
M 365.88375 207.477188 
z
"/>
  </clipPath>
 </defs>
</svg>
