<?xml version="1.0" encoding="utf-8" standalone="no"?>
<!DOCTYPE svg PUBLIC "-//W3C//DTD SVG 1.1//EN"
  "http://www.w3.org/Graphics/SVG/1.1/DTD/svg11.dtd">
<svg xmlns:xlink="http://www.w3.org/1999/xlink" width="392.765pt" height="399.83625pt" viewBox="0 0 392.765 399.83625" xmlns="http://www.w3.org/2000/svg" version="1.1">
 <metadata>
  <rdf:RDF xmlns:dc="http://purl.org/dc/elements/1.1/" xmlns:cc="http://creativecommons.org/ns#" xmlns:rdf="http://www.w3.org/1999/02/22-rdf-syntax-ns#">
   <cc:Work>
    <dc:type rdf:resource="http://purl.org/dc/dcmitype/StillImage"/>
    <dc:date>2023-11-01T17:29:46.695100</dc:date>
    <dc:format>image/svg+xml</dc:format>
    <dc:creator>
     <cc:Agent>
      <dc:title>Matplotlib v3.5.1, https://matplotlib.org/</dc:title>
     </cc:Agent>
    </dc:creator>
   </cc:Work>
  </rdf:RDF>
 </metadata>
 <defs>
  <style type="text/css">*{stroke-linejoin: round; stroke-linecap: butt}</style>
 </defs>
 <g id="figure_1">
  <g id="patch_1">
   <path d="M 0 399.83625 
L 392.765 399.83625 
L 392.765 0 
L 0 0 
z
" style="fill: #ffffff"/>
  </g>
  <g id="axes_1">
   <g id="patch_2">
    <path d="M 365.88375 207.477187 
C 365.88375 185.636245 361.581561 164.007679 353.223394 143.829279 
C 344.865227 123.650879 332.613628 105.315066 317.16975 89.871188 
C 301.725871 74.427309 283.390058 62.17571 263.211658 53.817544 
C 243.033259 45.459377 221.404692 41.157187 199.56375 41.157187 
C 177.722808 41.157187 156.094241 45.459377 135.915842 53.817544 
C 115.737442 62.17571 97.401629 74.427309 81.95775 89.871188 
C 66.513872 105.315066 54.262273 123.650879 45.904106 143.829279 
C 37.545939 164.007679 33.24375 185.636245 33.24375 207.477187 
C 33.24375 229.31813 37.545939 250.946696 45.904106 271.125096 
C 54.262273 291.303496 66.513872 309.639309 81.95775 325.083187 
C 97.401629 340.527066 115.737442 352.778665 135.915842 361.136831 
C 156.094241 369.494998 177.722808 373.797188 199.56375 373.797188 
C 221.404692 373.797188 243.033259 369.494998 263.211658 361.136831 
C 283.390058 352.778665 301.725871 340.527066 317.16975 325.083187 
C 332.613628 309.639309 344.865227 291.303496 353.223394 271.125096 
C 361.581561 250.946696 365.88375 229.31813 365.88375 207.477188 
M 199.56375 207.477187 
C 199.56375 207.477187 199.56375 207.477187 199.56375 207.477187 
C 199.56375 207.477187 199.56375 207.477187 199.56375 207.477187 
C 199.56375 207.477187 199.56375 207.477187 199.56375 207.477187 
C 199.56375 207.477187 199.56375 207.477187 199.56375 207.477187 
C 199.56375 207.477187 199.56375 207.477187 199.56375 207.477187 
C 199.56375 207.477187 199.56375 207.477187 199.56375 207.477187 
C 199.56375 207.477187 199.56375 207.477187 199.56375 207.477187 
C 199.56375 207.477187 199.56375 207.477187 199.56375 207.477187 
C 199.56375 207.477187 199.56375 207.477187 199.56375 207.477187 
C 199.56375 207.477187 199.56375 207.477187 199.56375 207.477187 
C 199.56375 207.477187 199.56375 207.477187 199.56375 207.477187 
C 199.56375 207.477187 199.56375 207.477187 199.56375 207.477187 
C 199.56375 207.477187 199.56375 207.477187 199.56375 207.477187 
C 199.56375 207.477187 199.56375 207.477187 199.56375 207.477187 
C 199.56375 207.477187 199.56375 207.477187 199.56375 207.477187 
C 199.56375 207.477187 199.56375 207.477187 199.56375 207.477187 
M 365.88375 207.477187 
z
" style="fill: #ffffff"/>
   </g>
   <g id="matplotlib.axis_1">
    <g id="xtick_1">
     <g id="line2d_1">
      <path d="M 199.56375 207.477187 
L 365.88375 207.477187 
" clip-path="url(#p2520003467)" style="fill: none; stroke: #b0b0b0; stroke-width: 0.8; stroke-linecap: square"/>
     </g>
     <g id="text_1">
      <!-- 0° -->
      <g transform="translate(374.2025 210.236562)scale(0.1 -0.1)">
       <defs>
        <path id="DejaVuSans-30" d="M 2034 4250 
Q 1547 4250 1301 3770 
Q 1056 3291 1056 2328 
Q 1056 1369 1301 889 
Q 1547 409 2034 409 
Q 2525 409 2770 889 
Q 3016 1369 3016 2328 
Q 3016 3291 2770 3770 
Q 2525 4250 2034 4250 
z
M 2034 4750 
Q 2819 4750 3233 4129 
Q 3647 3509 3647 2328 
Q 3647 1150 3233 529 
Q 2819 -91 2034 -91 
Q 1250 -91 836 529 
Q 422 1150 422 2328 
Q 422 3509 836 4129 
Q 1250 4750 2034 4750 
z
" transform="scale(0.015625)"/>
        <path id="DejaVuSans-b0" d="M 1600 4347 
Q 1350 4347 1178 4173 
Q 1006 4000 1006 3750 
Q 1006 3503 1178 3333 
Q 1350 3163 1600 3163 
Q 1850 3163 2022 3333 
Q 2194 3503 2194 3750 
Q 2194 3997 2020 4172 
Q 1847 4347 1600 4347 
z
M 1600 4750 
Q 1800 4750 1984 4673 
Q 2169 4597 2303 4453 
Q 2447 4313 2519 4134 
Q 2591 3956 2591 3750 
Q 2591 3338 2302 3052 
Q 2013 2766 1594 2766 
Q 1172 2766 890 3047 
Q 609 3328 609 3750 
Q 609 4169 896 4459 
Q 1184 4750 1600 4750 
z
" transform="scale(0.015625)"/>
       </defs>
       <use xlink:href="#DejaVuSans-30"/>
       <use xlink:href="#DejaVuSans-b0" x="63.623047"/>
      </g>
     </g>
    </g>
    <g id="xtick_2">
     <g id="line2d_2">
      <path d="M 199.56375 207.477187 
L 317.16975 89.871188 
" clip-path="url(#p2520003467)" style="fill: none; stroke: #b0b0b0; stroke-width: 0.8; stroke-linecap: square"/>
     </g>
     <g id="text_2">
      <!-- 45° -->
      <g transform="translate(318.206745 82.731068)scale(0.1 -0.1)">
       <defs>
        <path id="DejaVuSans-34" d="M 2419 4116 
L 825 1625 
L 2419 1625 
L 2419 4116 
z
M 2253 4666 
L 3047 4666 
L 3047 1625 
L 3713 1625 
L 3713 1100 
L 3047 1100 
L 3047 0 
L 2419 0 
L 2419 1100 
L 313 1100 
L 313 1709 
L 2253 4666 
z
" transform="scale(0.015625)"/>
        <path id="DejaVuSans-35" d="M 691 4666 
L 3169 4666 
L 3169 4134 
L 1269 4134 
L 1269 2991 
Q 1406 3038 1543 3061 
Q 1681 3084 1819 3084 
Q 2600 3084 3056 2656 
Q 3513 2228 3513 1497 
Q 3513 744 3044 326 
Q 2575 -91 1722 -91 
Q 1428 -91 1123 -41 
Q 819 9 494 109 
L 494 744 
Q 775 591 1075 516 
Q 1375 441 1709 441 
Q 2250 441 2565 725 
Q 2881 1009 2881 1497 
Q 2881 1984 2565 2268 
Q 2250 2553 1709 2553 
Q 1456 2553 1204 2497 
Q 953 2441 691 2322 
L 691 4666 
z
" transform="scale(0.015625)"/>
       </defs>
       <use xlink:href="#DejaVuSans-34"/>
       <use xlink:href="#DejaVuSans-35" x="63.623047"/>
       <use xlink:href="#DejaVuSans-b0" x="127.246094"/>
      </g>
     </g>
    </g>
    <g id="xtick_3">
     <g id="line2d_3">
      <path d="M 199.56375 207.477187 
L 199.56375 41.157187 
" clip-path="url(#p2520003467)" style="fill: none; stroke: #b0b0b0; stroke-width: 0.8; stroke-linecap: square"/>
     </g>
     <g id="text_3">
      <!-- 90° -->
      <g transform="translate(190.70125 29.916562)scale(0.1 -0.1)">
       <defs>
        <path id="DejaVuSans-39" d="M 703 97 
L 703 672 
Q 941 559 1184 500 
Q 1428 441 1663 441 
Q 2288 441 2617 861 
Q 2947 1281 2994 2138 
Q 2813 1869 2534 1725 
Q 2256 1581 1919 1581 
Q 1219 1581 811 2004 
Q 403 2428 403 3163 
Q 403 3881 828 4315 
Q 1253 4750 1959 4750 
Q 2769 4750 3195 4129 
Q 3622 3509 3622 2328 
Q 3622 1225 3098 567 
Q 2575 -91 1691 -91 
Q 1453 -91 1209 -44 
Q 966 3 703 97 
z
M 1959 2075 
Q 2384 2075 2632 2365 
Q 2881 2656 2881 3163 
Q 2881 3666 2632 3958 
Q 2384 4250 1959 4250 
Q 1534 4250 1286 3958 
Q 1038 3666 1038 3163 
Q 1038 2656 1286 2365 
Q 1534 2075 1959 2075 
z
" transform="scale(0.015625)"/>
       </defs>
       <use xlink:href="#DejaVuSans-39"/>
       <use xlink:href="#DejaVuSans-30" x="63.623047"/>
       <use xlink:href="#DejaVuSans-b0" x="127.246094"/>
      </g>
     </g>
    </g>
    <g id="xtick_4">
     <g id="line2d_4">
      <path d="M 199.56375 207.477187 
L 81.95775 89.871188 
" clip-path="url(#p2520003467)" style="fill: none; stroke: #b0b0b0; stroke-width: 0.8; stroke-linecap: square"/>
     </g>
     <g id="text_4">
      <!-- 135° -->
      <g transform="translate(60.014505 82.731068)scale(0.1 -0.1)">
       <defs>
        <path id="DejaVuSans-31" d="M 794 531 
L 1825 531 
L 1825 4091 
L 703 3866 
L 703 4441 
L 1819 4666 
L 2450 4666 
L 2450 531 
L 3481 531 
L 3481 0 
L 794 0 
L 794 531 
z
" transform="scale(0.015625)"/>
        <path id="DejaVuSans-33" d="M 2597 2516 
Q 3050 2419 3304 2112 
Q 3559 1806 3559 1356 
Q 3559 666 3084 287 
Q 2609 -91 1734 -91 
Q 1441 -91 1130 -33 
Q 819 25 488 141 
L 488 750 
Q 750 597 1062 519 
Q 1375 441 1716 441 
Q 2309 441 2620 675 
Q 2931 909 2931 1356 
Q 2931 1769 2642 2001 
Q 2353 2234 1838 2234 
L 1294 2234 
L 1294 2753 
L 1863 2753 
Q 2328 2753 2575 2939 
Q 2822 3125 2822 3475 
Q 2822 3834 2567 4026 
Q 2313 4219 1838 4219 
Q 1578 4219 1281 4162 
Q 984 4106 628 3988 
L 628 4550 
Q 988 4650 1302 4700 
Q 1616 4750 1894 4750 
Q 2613 4750 3031 4423 
Q 3450 4097 3450 3541 
Q 3450 3153 3228 2886 
Q 3006 2619 2597 2516 
z
" transform="scale(0.015625)"/>
       </defs>
       <use xlink:href="#DejaVuSans-31"/>
       <use xlink:href="#DejaVuSans-33" x="63.623047"/>
       <use xlink:href="#DejaVuSans-35" x="127.246094"/>
       <use xlink:href="#DejaVuSans-b0" x="190.869141"/>
      </g>
     </g>
    </g>
    <g id="xtick_5">
     <g id="line2d_5">
      <path d="M 199.56375 207.477187 
L 33.24375 207.477187 
" clip-path="url(#p2520003467)" style="fill: none; stroke: #b0b0b0; stroke-width: 0.8; stroke-linecap: square"/>
     </g>
     <g id="text_5">
      <!-- 180° -->
      <g transform="translate(7.2 210.236562)scale(0.1 -0.1)">
       <defs>
        <path id="DejaVuSans-38" d="M 2034 2216 
Q 1584 2216 1326 1975 
Q 1069 1734 1069 1313 
Q 1069 891 1326 650 
Q 1584 409 2034 409 
Q 2484 409 2743 651 
Q 3003 894 3003 1313 
Q 3003 1734 2745 1975 
Q 2488 2216 2034 2216 
z
M 1403 2484 
Q 997 2584 770 2862 
Q 544 3141 544 3541 
Q 544 4100 942 4425 
Q 1341 4750 2034 4750 
Q 2731 4750 3128 4425 
Q 3525 4100 3525 3541 
Q 3525 3141 3298 2862 
Q 3072 2584 2669 2484 
Q 3125 2378 3379 2068 
Q 3634 1759 3634 1313 
Q 3634 634 3220 271 
Q 2806 -91 2034 -91 
Q 1263 -91 848 271 
Q 434 634 434 1313 
Q 434 1759 690 2068 
Q 947 2378 1403 2484 
z
M 1172 3481 
Q 1172 3119 1398 2916 
Q 1625 2713 2034 2713 
Q 2441 2713 2670 2916 
Q 2900 3119 2900 3481 
Q 2900 3844 2670 4047 
Q 2441 4250 2034 4250 
Q 1625 4250 1398 4047 
Q 1172 3844 1172 3481 
z
" transform="scale(0.015625)"/>
       </defs>
       <use xlink:href="#DejaVuSans-31"/>
       <use xlink:href="#DejaVuSans-38" x="63.623047"/>
       <use xlink:href="#DejaVuSans-30" x="127.246094"/>
       <use xlink:href="#DejaVuSans-b0" x="190.869141"/>
      </g>
     </g>
    </g>
    <g id="xtick_6">
     <g id="line2d_6">
      <path d="M 199.56375 207.477187 
L 81.95775 325.083187 
" clip-path="url(#p2520003467)" style="fill: none; stroke: #b0b0b0; stroke-width: 0.8; stroke-linecap: square"/>
     </g>
     <g id="text_6">
      <!-- 225° -->
      <g transform="translate(60.014505 337.742057)scale(0.1 -0.1)">
       <defs>
        <path id="DejaVuSans-32" d="M 1228 531 
L 3431 531 
L 3431 0 
L 469 0 
L 469 531 
Q 828 903 1448 1529 
Q 2069 2156 2228 2338 
Q 2531 2678 2651 2914 
Q 2772 3150 2772 3378 
Q 2772 3750 2511 3984 
Q 2250 4219 1831 4219 
Q 1534 4219 1204 4116 
Q 875 4013 500 3803 
L 500 4441 
Q 881 4594 1212 4672 
Q 1544 4750 1819 4750 
Q 2544 4750 2975 4387 
Q 3406 4025 3406 3419 
Q 3406 3131 3298 2873 
Q 3191 2616 2906 2266 
Q 2828 2175 2409 1742 
Q 1991 1309 1228 531 
z
" transform="scale(0.015625)"/>
       </defs>
       <use xlink:href="#DejaVuSans-32"/>
       <use xlink:href="#DejaVuSans-32" x="63.623047"/>
       <use xlink:href="#DejaVuSans-35" x="127.246094"/>
       <use xlink:href="#DejaVuSans-b0" x="190.869141"/>
      </g>
     </g>
    </g>
    <g id="xtick_7">
     <g id="line2d_7">
      <path d="M 199.56375 207.477187 
L 199.56375 373.797188 
" clip-path="url(#p2520003467)" style="fill: none; stroke: #b0b0b0; stroke-width: 0.8; stroke-linecap: square"/>
     </g>
     <g id="text_7">
      <!-- 270° -->
      <g transform="translate(187.52 390.556562)scale(0.1 -0.1)">
       <defs>
        <path id="DejaVuSans-37" d="M 525 4666 
L 3525 4666 
L 3525 4397 
L 1831 0 
L 1172 0 
L 2766 4134 
L 525 4134 
L 525 4666 
z
" transform="scale(0.015625)"/>
       </defs>
       <use xlink:href="#DejaVuSans-32"/>
       <use xlink:href="#DejaVuSans-37" x="63.623047"/>
       <use xlink:href="#DejaVuSans-30" x="127.246094"/>
       <use xlink:href="#DejaVuSans-b0" x="190.869141"/>
      </g>
     </g>
    </g>
    <g id="xtick_8">
     <g id="line2d_8">
      <path d="M 199.56375 207.477187 
L 317.16975 325.083187 
" clip-path="url(#p2520003467)" style="fill: none; stroke: #b0b0b0; stroke-width: 0.8; stroke-linecap: square"/>
     </g>
     <g id="text_8">
      <!-- 315° -->
      <g transform="translate(315.025495 337.742057)scale(0.1 -0.1)">
       <use xlink:href="#DejaVuSans-33"/>
       <use xlink:href="#DejaVuSans-31" x="63.623047"/>
       <use xlink:href="#DejaVuSans-35" x="127.246094"/>
       <use xlink:href="#DejaVuSans-b0" x="190.869141"/>
      </g>
     </g>
    </g>
   </g>
   <g id="matplotlib.axis_2">
    <g id="ytick_1">
     <g id="line2d_9">
      <path d="M 243.336879 207.477187 
C 243.336879 201.728953 242.204603 196.036612 240.004848 190.725936 
C 237.805094 185.41526 234.580642 180.589527 230.516027 176.524911 
C 226.451411 172.460295 221.625678 169.235843 216.315001 167.036089 
C 211.004325 164.836335 205.311985 163.704058 199.56375 163.704058 
C 193.815515 163.704058 188.123175 164.836335 182.812499 167.036089 
C 177.501822 169.235843 172.676089 172.460295 168.611473 176.524911 
C 164.546858 180.589527 161.322406 185.41526 159.122652 190.725936 
C 156.922897 196.036612 155.790621 201.728953 155.790621 207.477187 
C 155.790621 213.225422 156.922897 218.917763 159.122652 224.228439 
C 161.322406 229.539115 164.546858 234.364848 168.611473 238.429464 
C 172.676089 242.49408 177.501822 245.718532 182.812499 247.918286 
C 188.123175 250.11804 193.815515 251.250317 199.56375 251.250317 
C 205.311985 251.250317 211.004325 250.11804 216.315001 247.918286 
C 221.625678 245.718532 226.451411 242.49408 230.516027 238.429464 
C 234.580642 234.364848 237.805094 229.539115 240.004848 224.228439 
C 242.204603 218.917763 243.336879 213.225422 243.336879 207.477187 
" clip-path="url(#p2520003467)" style="fill: none; stroke: #b0b0b0; stroke-width: 0.8; stroke-linecap: square"/>
     </g>
     <g id="text_9">
      <!-- −30 -->
      <g transform="translate(240.004848 188.646249)scale(0.1 -0.1)">
       <defs>
        <path id="DejaVuSans-2212" d="M 678 2272 
L 4684 2272 
L 4684 1741 
L 678 1741 
L 678 2272 
z
" transform="scale(0.015625)"/>
       </defs>
       <use xlink:href="#DejaVuSans-2212"/>
       <use xlink:href="#DejaVuSans-33" x="83.789062"/>
       <use xlink:href="#DejaVuSans-30" x="147.412109"/>
      </g>
     </g>
    </g>
    <g id="ytick_2">
     <g id="line2d_10">
      <path d="M 255.591566 207.477187 
C 255.591566 200.119682 254.142298 192.833719 251.326703 186.03627 
C 248.511107 179.238822 244.383941 173.062081 239.181399 167.859539 
C 233.978857 162.656997 227.802116 158.52983 221.004667 155.714235 
C 214.207218 152.898639 206.921255 151.449371 199.56375 151.449371 
C 192.206245 151.449371 184.920282 152.898639 178.122833 155.714235 
C 171.325384 158.52983 165.148643 162.656997 159.946101 167.859539 
C 154.743559 173.062081 150.616393 179.238822 147.800797 186.03627 
C 144.985202 192.833719 143.535934 200.119682 143.535934 207.477187 
C 143.535934 214.834693 144.985202 222.120656 147.800797 228.918105 
C 150.616393 235.715553 154.743559 241.892294 159.946101 247.094836 
C 165.148643 252.297378 171.325384 256.424545 178.122833 259.24014 
C 184.920282 262.055736 192.206245 263.505004 199.56375 263.505004 
C 206.921255 263.505004 214.207218 262.055736 221.004667 259.24014 
C 227.802116 256.424545 233.978857 252.297378 239.181399 247.094836 
C 244.383941 241.892294 248.511107 235.715553 251.326703 228.918105 
C 254.142298 222.120656 255.591566 214.834693 255.591566 207.477187 
" clip-path="url(#p2520003467)" style="fill: none; stroke: #b0b0b0; stroke-width: 0.8; stroke-linecap: square"/>
     </g>
     <g id="text_10">
      <!-- −27 -->
      <g transform="translate(251.326703 183.956583)scale(0.1 -0.1)">
       <use xlink:href="#DejaVuSans-2212"/>
       <use xlink:href="#DejaVuSans-32" x="83.789062"/>
       <use xlink:href="#DejaVuSans-37" x="147.412109"/>
      </g>
     </g>
    </g>
    <g id="ytick_3">
     <g id="line2d_11">
      <path d="M 267.846254 207.477187 
C 267.846254 198.510411 266.079994 189.630826 262.648557 181.346605 
C 259.217121 173.062384 254.18724 165.534634 247.846771 159.194166 
C 241.506303 152.853698 233.978554 147.823817 225.694333 144.39238 
C 217.410112 140.960943 208.530526 139.194684 199.56375 139.194684 
C 190.596974 139.194684 181.717388 140.960943 173.433167 144.39238 
C 165.148946 147.823817 157.621197 152.853698 151.280729 159.194166 
C 144.94026 165.534634 139.910379 173.062384 136.478943 181.346605 
C 133.047506 189.630826 131.281246 198.510411 131.281246 207.477187 
C 131.281246 216.443964 133.047506 225.323549 136.478943 233.60777 
C 139.910379 241.891991 144.94026 249.419741 151.280729 255.760209 
C 157.621197 262.100677 165.148946 267.130558 173.433167 270.561995 
C 181.717388 273.993432 190.596974 275.759691 199.56375 275.759691 
C 208.530526 275.759691 217.410112 273.993432 225.694333 270.561995 
C 233.978554 267.130558 241.506303 262.100677 247.846771 255.760209 
C 254.18724 249.419741 259.217121 241.891991 262.648557 233.60777 
C 266.079994 225.323549 267.846254 216.443964 267.846254 207.477188 
" clip-path="url(#p2520003467)" style="fill: none; stroke: #b0b0b0; stroke-width: 0.8; stroke-linecap: square"/>
     </g>
     <g id="text_11">
      <!-- −24 -->
      <g transform="translate(262.648557 179.266917)scale(0.1 -0.1)">
       <use xlink:href="#DejaVuSans-2212"/>
       <use xlink:href="#DejaVuSans-32" x="83.789062"/>
       <use xlink:href="#DejaVuSans-34" x="147.412109"/>
      </g>
     </g>
    </g>
    <g id="ytick_4">
     <g id="line2d_12">
      <path d="M 280.100941 207.477187 
C 280.100941 196.901141 278.01769 186.427932 273.970412 176.656939 
C 269.923134 166.885946 263.990538 158.007188 256.512144 150.528794 
C 249.033749 143.050399 240.154992 137.117803 230.383999 133.070525 
C 220.613005 129.023248 210.139797 126.939997 199.56375 126.939997 
C 188.987703 126.939997 178.514495 129.023248 168.743501 133.070525 
C 158.972508 137.117803 150.093751 143.050399 142.615356 150.528794 
C 135.136962 158.007188 129.204366 166.885946 125.157088 176.656939 
C 121.10981 186.427932 119.026559 196.901141 119.026559 207.477187 
C 119.026559 218.053234 121.10981 228.526443 125.157088 238.297436 
C 129.204366 248.068429 135.136962 256.947187 142.615356 264.425581 
C 150.093751 271.903976 158.972508 277.836572 168.743501 281.88385 
C 178.514495 285.931127 188.987703 288.014378 199.56375 288.014378 
C 210.139797 288.014378 220.613005 285.931127 230.383999 281.88385 
C 240.154992 277.836572 249.033749 271.903976 256.512144 264.425581 
C 263.990538 256.947187 269.923134 248.068429 273.970412 238.297436 
C 278.01769 228.526443 280.100941 218.053234 280.100941 207.477188 
" clip-path="url(#p2520003467)" style="fill: none; stroke: #b0b0b0; stroke-width: 0.8; stroke-linecap: square"/>
     </g>
     <g id="text_12">
      <!-- −21 -->
      <g transform="translate(273.970412 174.577251)scale(0.1 -0.1)">
       <use xlink:href="#DejaVuSans-2212"/>
       <use xlink:href="#DejaVuSans-32" x="83.789062"/>
       <use xlink:href="#DejaVuSans-31" x="147.412109"/>
      </g>
     </g>
    </g>
    <g id="ytick_5">
     <g id="line2d_13">
      <path d="M 292.355628 207.477187 
C 292.355628 195.29187 289.955386 183.225039 285.292267 171.967273 
C 280.629147 160.709508 273.793837 150.479742 265.177516 141.863422 
C 256.561195 133.247101 246.33143 126.41179 235.073664 121.748671 
C 223.815899 117.085552 211.749068 114.68531 199.56375 114.68531 
C 187.378432 114.68531 175.311601 117.085552 164.053836 121.748671 
C 152.79607 126.41179 142.566305 133.247101 133.949984 141.863422 
C 125.333663 150.479742 118.498353 160.709508 113.835233 171.967273 
C 109.172114 183.225039 106.771872 195.29187 106.771872 207.477187 
C 106.771872 219.662505 109.172114 231.729336 113.835233 242.987102 
C 118.498353 254.244867 125.333663 264.474633 133.949984 273.090953 
C 142.566305 281.707274 152.79607 288.542585 164.053836 293.205704 
C 175.311601 297.868823 187.378432 300.269065 199.56375 300.269065 
C 211.749068 300.269065 223.815899 297.868823 235.073664 293.205704 
C 246.33143 288.542585 256.561195 281.707274 265.177516 273.090953 
C 273.793837 264.474633 280.629147 254.244867 285.292267 242.987102 
C 289.955386 231.729336 292.355628 219.662505 292.355628 207.477188 
" clip-path="url(#p2520003467)" style="fill: none; stroke: #b0b0b0; stroke-width: 0.8; stroke-linecap: square"/>
     </g>
     <g id="text_13">
      <!-- −18 -->
      <g transform="translate(285.292267 169.887586)scale(0.1 -0.1)">
       <use xlink:href="#DejaVuSans-2212"/>
       <use xlink:href="#DejaVuSans-31" x="83.789062"/>
       <use xlink:href="#DejaVuSans-38" x="147.412109"/>
      </g>
     </g>
    </g>
    <g id="ytick_6">
     <g id="line2d_14">
      <path d="M 304.610315 207.477187 
C 304.610315 193.682599 301.893082 180.022146 296.614121 167.277608 
C 291.335161 154.53307 283.597135 142.952296 273.842888 133.198049 
C 264.088641 123.443802 252.507868 115.705777 239.76333 110.426816 
C 227.018792 105.147856 213.358338 102.430623 199.56375 102.430623 
C 185.769162 102.430623 172.108708 105.147856 159.36417 110.426816 
C 146.619632 115.705777 135.038859 123.443802 125.284612 133.198049 
C 115.530365 142.952296 107.792339 154.53307 102.513379 167.277608 
C 97.234418 180.022146 94.517185 193.682599 94.517185 207.477187 
C 94.517185 221.271776 97.234418 234.932229 102.513379 247.676767 
C 107.792339 260.421305 115.530365 272.002079 125.284612 281.756326 
C 135.038859 291.510573 146.619632 299.248598 159.36417 304.527559 
C 172.108708 309.806519 185.769162 312.523752 199.56375 312.523752 
C 213.358338 312.523752 227.018792 309.806519 239.76333 304.527559 
C 252.507868 299.248598 264.088641 291.510573 273.842888 281.756326 
C 283.597135 272.002079 291.335161 260.421305 296.614121 247.676767 
C 301.893082 234.932229 304.610315 221.271776 304.610315 207.477188 
" clip-path="url(#p2520003467)" style="fill: none; stroke: #b0b0b0; stroke-width: 0.8; stroke-linecap: square"/>
     </g>
     <g id="text_14">
      <!-- −15 -->
      <g transform="translate(296.614121 165.19792)scale(0.1 -0.1)">
       <use xlink:href="#DejaVuSans-2212"/>
       <use xlink:href="#DejaVuSans-31" x="83.789062"/>
       <use xlink:href="#DejaVuSans-35" x="147.412109"/>
      </g>
     </g>
    </g>
    <g id="ytick_7">
     <g id="line2d_15">
      <path d="M 316.865002 207.477187 
C 316.865002 192.073328 313.830777 176.819252 307.935976 162.587942 
C 302.041174 148.356632 293.400434 135.42485 282.508261 124.532677 
C 271.616087 113.640504 258.684306 104.999764 244.452996 99.104962 
C 230.221685 93.21016 214.967609 90.175936 199.56375 90.175936 
C 184.159891 90.175936 168.905815 93.21016 154.674504 99.104962 
C 140.443194 104.999764 127.511413 113.640504 116.619239 124.532677 
C 105.727066 135.42485 97.086326 148.356632 91.191524 162.587942 
C 85.296723 176.819252 82.262498 192.073328 82.262498 207.477187 
C 82.262498 222.881047 85.296723 238.135123 91.191524 252.366433 
C 97.086326 266.597743 105.727066 279.529525 116.619239 290.421698 
C 127.511413 301.313871 140.443194 309.954611 154.674504 315.849413 
C 168.905815 321.744215 184.159891 324.778439 199.56375 324.778439 
C 214.967609 324.778439 230.221685 321.744215 244.452996 315.849413 
C 258.684306 309.954611 271.616087 301.313871 282.508261 290.421698 
C 293.400434 279.529525 302.041174 266.597743 307.935976 252.366433 
C 313.830777 238.135123 316.865002 222.881047 316.865002 207.477188 
" clip-path="url(#p2520003467)" style="fill: none; stroke: #b0b0b0; stroke-width: 0.8; stroke-linecap: square"/>
     </g>
     <g id="text_15">
      <!-- −12 -->
      <g transform="translate(307.935976 160.508254)scale(0.1 -0.1)">
       <use xlink:href="#DejaVuSans-2212"/>
       <use xlink:href="#DejaVuSans-31" x="83.789062"/>
       <use xlink:href="#DejaVuSans-32" x="147.412109"/>
      </g>
     </g>
    </g>
    <g id="ytick_8">
     <g id="line2d_16">
      <path d="M 329.119689 207.477187 
C 329.119689 190.464057 325.768473 173.616359 319.25783 157.898276 
C 312.747187 142.180194 303.203732 127.897404 291.173633 115.867305 
C 279.143533 103.837205 264.860744 94.29375 249.142661 87.783107 
C 233.424579 81.272464 216.57688 77.921249 199.56375 77.921249 
C 182.55062 77.921249 165.702921 81.272464 149.984839 87.783107 
C 134.266756 94.29375 119.983967 103.837205 107.953867 115.867305 
C 95.923768 127.897404 86.380313 142.180194 79.86967 157.898276 
C 73.359027 173.616359 70.007811 190.464057 70.007811 207.477187 
C 70.007811 224.490318 73.359027 241.338016 79.86967 257.056099 
C 86.380313 272.774181 95.923768 287.056971 107.953867 299.08707 
C 119.983967 311.11717 134.266756 320.660625 149.984839 327.171268 
C 165.702921 333.681911 182.55062 337.033126 199.56375 337.033126 
C 216.57688 337.033126 233.424579 333.681911 249.142661 327.171268 
C 264.860744 320.660625 279.143533 311.11717 291.173633 299.08707 
C 303.203732 287.056971 312.747187 272.774181 319.25783 257.056099 
C 325.768473 241.338016 329.119689 224.490318 329.119689 207.477188 
" clip-path="url(#p2520003467)" style="fill: none; stroke: #b0b0b0; stroke-width: 0.8; stroke-linecap: square"/>
     </g>
     <g id="text_16">
      <!-- −9 -->
      <g transform="translate(319.25783 155.818589)scale(0.1 -0.1)">
       <use xlink:href="#DejaVuSans-2212"/>
       <use xlink:href="#DejaVuSans-39" x="83.789062"/>
      </g>
     </g>
    </g>
    <g id="ytick_9">
     <g id="line2d_17">
      <path d="M 341.374376 207.477187 
C 341.374376 188.854787 337.706169 170.413465 330.579685 153.20861 
C 323.453201 136.003756 313.007031 120.369958 299.839005 107.201932 
C 286.670979 94.033906 271.037182 83.587737 253.832327 76.461253 
C 236.627472 69.334769 218.186151 65.666562 199.56375 65.666562 
C 180.941349 65.666562 162.500028 69.334769 145.295173 76.461253 
C 128.090318 83.587737 112.456521 94.033906 99.288495 107.201932 
C 86.120469 120.369958 75.674299 136.003756 68.547815 153.20861 
C 61.421331 170.413465 57.753124 188.854787 57.753124 207.477187 
C 57.753124 226.099588 61.421331 244.54091 68.547815 261.745765 
C 75.674299 278.950619 86.120469 294.584417 99.288495 307.752443 
C 112.456521 320.920469 128.090318 331.366638 145.295173 338.493122 
C 162.500028 345.619606 180.941349 349.287813 199.56375 349.287813 
C 218.186151 349.287813 236.627472 345.619606 253.832327 338.493122 
C 271.037182 331.366638 286.670979 320.920469 299.839005 307.752443 
C 313.007031 294.584417 323.453201 278.950619 330.579685 261.745765 
C 337.706169 244.54091 341.374376 226.099588 341.374376 207.477188 
" clip-path="url(#p2520003467)" style="fill: none; stroke: #b0b0b0; stroke-width: 0.8; stroke-linecap: square"/>
     </g>
     <g id="text_17">
      <!-- −6 -->
      <g transform="translate(330.579685 151.128923)scale(0.1 -0.1)">
       <defs>
        <path id="DejaVuSans-36" d="M 2113 2584 
Q 1688 2584 1439 2293 
Q 1191 2003 1191 1497 
Q 1191 994 1439 701 
Q 1688 409 2113 409 
Q 2538 409 2786 701 
Q 3034 994 3034 1497 
Q 3034 2003 2786 2293 
Q 2538 2584 2113 2584 
z
M 3366 4563 
L 3366 3988 
Q 3128 4100 2886 4159 
Q 2644 4219 2406 4219 
Q 1781 4219 1451 3797 
Q 1122 3375 1075 2522 
Q 1259 2794 1537 2939 
Q 1816 3084 2150 3084 
Q 2853 3084 3261 2657 
Q 3669 2231 3669 1497 
Q 3669 778 3244 343 
Q 2819 -91 2113 -91 
Q 1303 -91 875 529 
Q 447 1150 447 2328 
Q 447 3434 972 4092 
Q 1497 4750 2381 4750 
Q 2619 4750 2861 4703 
Q 3103 4656 3366 4563 
z
" transform="scale(0.015625)"/>
       </defs>
       <use xlink:href="#DejaVuSans-2212"/>
       <use xlink:href="#DejaVuSans-36" x="83.789062"/>
      </g>
     </g>
    </g>
    <g id="ytick_10">
     <g id="line2d_18">
      <path d="M 353.629063 207.477187 
C 353.629063 187.245516 349.643865 167.210572 341.901539 148.518945 
C 334.159214 129.827318 322.81033 112.842512 308.504378 98.53656 
C 294.198425 84.230608 277.21362 72.881724 258.521993 65.139398 
C 239.830366 57.397073 219.795422 53.411875 199.56375 53.411875 
C 179.332078 53.411875 159.297134 57.397073 140.605507 65.139398 
C 121.91388 72.881724 104.929075 84.230608 90.623122 98.53656 
C 76.31717 112.842512 64.968286 129.827318 57.225961 148.518945 
C 49.483635 167.210572 45.498437 187.245516 45.498437 207.477187 
C 45.498437 227.708859 49.483635 247.743803 57.225961 266.43543 
C 64.968286 285.127057 76.31717 302.111863 90.623122 316.417815 
C 104.929075 330.723767 121.91388 342.072651 140.605507 349.814977 
C 159.297134 357.557302 179.332078 361.5425 199.56375 361.5425 
C 219.795422 361.5425 239.830366 357.557302 258.521993 349.814977 
C 277.21362 342.072651 294.198425 330.723767 308.504378 316.417815 
C 322.81033 302.111863 334.159214 285.127057 341.901539 266.43543 
C 349.643865 247.743803 353.629063 227.708859 353.629063 207.477188 
" clip-path="url(#p2520003467)" style="fill: none; stroke: #b0b0b0; stroke-width: 0.8; stroke-linecap: square"/>
     </g>
     <g id="text_18">
      <!-- −3 -->
      <g transform="translate(341.901539 146.439257)scale(0.1 -0.1)">
       <use xlink:href="#DejaVuSans-2212"/>
       <use xlink:href="#DejaVuSans-33" x="83.789062"/>
      </g>
     </g>
    </g>
   </g>
   <g id="line2d_19">
    <path d="M 336.987198 207.477187 
L 337.615667 205.067482 
L 338.030228 202.641832 
L 338.777323 200.181313 
L 340.07947 197.651371 
L 341.034142 195.100132 
L 342.604406 192.443009 
L 343.937963 189.750263 
L 344.71901 187.076946 
L 345.793326 184.316698 
L 346.320261 181.600055 
L 346.612171 178.89387 
L 347.205709 176.09492 
L 347.67731 170.548329 
L 348.122944 167.670871 
L 347.690142 162.190405 
L 347.106431 159.537664 
L 344.437218 151.865474 
L 342.389343 146.85132 
L 339.708945 142.12641 
L 336.196367 137.859392 
L 334.340199 135.815279 
L 327.019106 130.894283 
L 323.889474 129.789853 
L 321.16491 128.508471 
L 318.264575 127.41247 
L 314.600561 126.927545 
L 311.481919 126.163878 
L 308.091617 125.695574 
L 304.207844 125.720261 
L 301.273008 125.114655 
L 294.877613 124.62211 
L 292.494233 123.802205 
L 289.908398 123.229441 
L 287.889518 122.181985 
L 286.17949 120.861448 
L 283.440973 117.529878 
L 281.970468 115.955255 
L 279.864851 115.101337 
L 278.004125 113.995588 
L 275.856841 113.263067 
L 273.207567 113.2174 
L 270.476991 113.372138 
L 267.536873 113.92021 
L 260.701216 116.837166 
L 256.860752 119.247542 
L 247.321438 127.995047 
L 241.529619 134.790169 
L 234.131278 145.115717 
L 228.143577 153.726351 
L 226.01426 155.565139 
L 230.924018 143.17911 
L 234.340842 132.897472 
L 238.003427 121.140259 
L 239.501022 113.39087 
L 239.81007 107.864051 
L 240.532115 100.750947 
L 240.230811 95.745357 
L 239.572622 91.282987 
L 238.987783 86.142492 
L 234.979312 75.304512 
L 229.401145 67.103282 
L 227.203951 65.280678 
L 224.99613 63.242995 
L 222.662255 61.638968 
L 217.699885 59.770219 
L 207.427442 57.429 
L 202.195456 56.706843 
L 199.56375 56.573584 
L 196.92962 56.567977 
L 194.280896 56.196033 
L 191.622453 55.948215 
L 188.960596 55.845017 
L 186.315152 56.045023 
L 183.705912 56.599933 
L 175.998123 58.689672 
L 173.544041 59.912086 
L 171.217381 61.647759 
L 168.866866 63.059703 
L 166.657103 64.94284 
L 164.564897 67.104453 
L 162.465048 69.022947 
L 160.544127 71.399591 
L 158.449879 72.999775 
L 156.203859 74.029165 
L 153.860195 74.744427 
L 149.501665 77.060997 
L 147.444385 78.477232 
L 141.070041 82.037023 
L 138.766158 82.823652 
L 136.336574 83.386869 
L 133.74712 83.694109 
L 131.430478 84.561511 
L 129.21194 85.624279 
L 127.405299 87.385358 
L 125.781471 89.400859 
L 124.528468 91.932986 
L 123.622094 94.889052 
L 122.537979 97.472987 
L 121.98406 100.697905 
L 121.536439 107.606784 
L 122.535437 112.355142 
L 123.208197 116.480182 
L 123.644339 120.141895 
L 124.703753 124.336738 
L 125.166918 127.696353 
L 125.854497 131.149021 
L 127.809124 135.722561 
L 129.353391 139.675832 
L 132.841293 145.25749 
L 138.859931 152.819223 
L 145.224842 160.241096 
L 159.810715 174.12043 
L 193.408754 202.49297 
L 155.571547 174.326685 
L 142.223528 165.817078 
L 128.210029 159.348495 
L 122.732013 157.582074 
L 118.554233 156.856823 
L 113.432377 155.724237 
L 106.823354 156.070346 
L 103.325412 156.306356 
L 100.394243 156.9478 
L 97.941408 157.91266 
L 95.044564 158.739091 
L 92.963485 160.015692 
L 90.605975 161.227356 
L 87.993636 162.399935 
L 83.716997 165.312418 
L 81.225949 166.730215 
L 79.375119 168.425534 
L 74.311938 171.561808 
L 72.402121 173.404332 
L 69.944146 175.15939 
L 67.672457 177.027683 
L 65.946456 179.075955 
L 63.542401 181.037316 
L 61.428179 183.120159 
L 59.503083 185.293757 
L 57.171322 187.465237 
L 51.651575 194.536549 
L 49.148426 199.594254 
L 47.841696 202.178937 
L 46.828869 204.81119 
L 45.670003 207.477187 
L 44.45738 212.893621 
L 43.918767 215.634195 
L 43.234597 223.908044 
L 43.216754 226.674185 
L 43.473602 232.199438 
L 44.054556 237.705113 
L 46.189734 257.311426 
L 46.692724 260.114903 
L 46.840083 263.064056 
L 47.1966 265.965456 
L 47.801224 268.793228 
L 48.172498 271.738961 
L 48.858075 274.575677 
L 50.410429 280.224123 
L 51.42614 282.95707 
L 52.711906 285.559698 
L 54.129155 288.0929 
L 55.692673 290.541192 
L 57.430362 292.879543 
L 61.809557 296.935806 
L 64.224893 298.764399 
L 67.327724 300.06985 
L 69.994911 301.614459 
L 73.040801 302.819069 
L 76.729417 303.445887 
L 79.86426 304.407923 
L 83.601894 304.780738 
L 88.379067 304.128558 
L 92.071163 304.263948 
L 96.877725 303.233455 
L 102.322791 301.38169 
L 106.301669 300.739268 
L 111.757265 298.403464 
L 116.552939 296.495384 
L 120.16916 295.653812 
L 123.478183 295.00362 
L 125.479445 295.767425 
L 126.951913 297.145338 
L 129.574849 300.355596 
L 130.995169 301.853743 
L 132.830778 302.781748 
L 134.540784 303.8777 
L 136.675842 304.316074 
L 139.096325 304.245296 
L 141.383456 304.305457 
L 148.891531 302.77777 
L 151.393291 302.017036 
L 153.512576 301.896086 
L 155.186417 302.644685 
L 157.443019 306.707412 
L 158.383991 309.400668 
L 159.062368 312.986896 
L 161.125504 319.109958 
L 162.083663 322.829035 
L 163.486276 325.481289 
L 166.573517 330.598413 
L 168.514835 332.007585 
L 170.402546 333.78824 
L 172.40504 335.248874 
L 174.594672 335.931959 
L 176.878624 336.130932 
L 188.314217 336.059943 
L 190.598476 335.686573 
L 192.846597 335.648102 
L 199.56375 335.239857 
L 204.025739 335.251841 
L 206.275345 335.542041 
L 208.514776 335.482826 
L 210.703273 334.802514 
L 212.855391 333.938707 
L 214.889173 332.292745 
L 216.727478 329.603456 
L 218.569342 327.47377 
L 220.249971 324.794578 
L 221.646581 321.083505 
L 223.118041 318.291416 
L 224.618383 316.000726 
L 226.272378 314.599643 
L 228.018386 313.671333 
L 229.839247 313.060391 
L 231.788387 312.879226 
L 234.04082 313.586699 
L 236.661444 315.216715 
L 239.217901 316.426072 
L 241.637356 317.08268 
L 244.703742 319.202587 
L 247.511828 320.435779 
L 252.86632 321.784919 
L 255.290078 321.733092 
L 260.392332 321.879112 
L 267.758497 320.972306 
L 269.975646 320.159775 
L 272.274122 319.441342 
L 280.536111 318.926082 
L 282.972792 318.164725 
L 286.977724 315.424456 
L 288.761702 313.779167 
L 290.375547 311.94421 
L 292.943651 307.614872 
L 293.996047 305.264694 
L 294.847751 302.761188 
L 295.984887 300.589997 
L 297.958437 296.072162 
L 299.153609 294.049331 
L 301.203167 289.783165 
L 302.321544 287.760375 
L 303.100232 285.497523 
L 306.276252 279.455679 
L 307.832962 275.1313 
L 308.717084 273.063128 
L 309.696512 271.062367 
L 310.457189 268.946424 
L 310.712387 266.575966 
L 311.217321 264.367523 
L 312.405421 260.096123 
L 313.399855 258.160287 
L 314.73708 256.365366 
L 316.356757 254.664625 
L 319.179955 251.013926 
L 320.450699 249.101902 
L 321.415147 247.069106 
L 322.142252 244.953196 
L 323.051926 240.565745 
L 323.646265 238.414433 
L 326.438643 232.139168 
L 327.014667 229.950223 
L 327.870995 225.509595 
L 328.648641 223.326819 
L 329.677474 221.152691 
L 331.19445 218.993382 
L 331.93773 216.733678 
L 333.094862 214.475257 
L 334.678571 212.195501 
L 335.871682 209.856451 
L 335.871682 209.856451 
" clip-path="url(#p2520003467)" style="fill: none; stroke: #ff0000; stroke-width: 1.5; stroke-linecap: square"/>
   </g>
   <g id="line2d_20">
    <path d="M 345.006665 207.477187 
L 345.971326 202.364522 
L 346.710221 197.187704 
L 347.216177 191.958292 
L 347.478606 186.68911 
L 347.483665 181.394915 
L 347.210503 176.093901 
L 346.643615 170.806059 
L 345.768972 165.553515 
L 344.570325 160.361695 
L 343.03345 155.258487 
L 341.157732 150.269505 
L 338.92942 145.427593 
L 336.34859 140.762764 
L 333.421199 136.303919 
L 330.148221 132.084208 
L 326.550663 128.126957 
L 322.637265 124.463053 
L 318.429164 121.116409 
L 313.958662 118.102087 
L 309.252162 115.437681 
L 304.343056 113.133476 
L 299.276514 111.18569 
L 294.093093 109.589187 
L 288.828936 108.338155 
L 283.531792 107.407972 
L 278.227836 106.791748 
L 272.949301 106.470642 
L 267.734862 106.409357 
L 262.585913 106.620645 
L 248.224332 107.708209 
L 246.147706 107.577572 
L 244.214359 107.190277 
L 242.425389 106.501494 
L 240.794313 105.427963 
L 239.299808 103.961218 
L 237.920259 102.093545 
L 236.607184 99.895244 
L 234.072143 94.605321 
L 231.380648 88.734907 
L 228.357577 82.757419 
L 226.694603 79.836558 
L 224.92504 77.004662 
L 223.051276 74.27281 
L 221.075061 71.660117 
L 219.000485 69.177634 
L 216.833274 66.828201 
L 214.5788 64.618532 
L 212.242427 62.559241 
L 209.831578 60.640413 
L 207.351804 58.872256 
L 204.809852 57.248478 
L 202.211654 55.778896 
L 199.56375 54.452706 
L 196.872216 53.27932 
L 194.143153 52.251611 
L 191.382541 51.370428 
L 188.596375 50.636422 
L 185.790661 50.050055 
L 182.97098 49.607527 
L 180.14313 49.308934 
L 177.312903 49.154182 
L 174.485438 49.138958 
L 171.667 49.266855 
L 168.863331 49.537226 
L 166.079302 49.945243 
L 163.320387 50.489937 
L 160.59302 51.174126 
L 157.901751 51.99249 
L 155.251938 52.943533 
L 152.648887 54.025584 
L 150.099113 55.24069 
L 147.606683 56.58291 
L 145.178122 58.053902 
L 142.817224 59.647434 
L 140.530505 61.364778 
L 138.323067 63.203179 
L 136.201589 65.163444 
L 134.167742 67.234996 
L 132.231534 69.425687 
L 130.392519 71.721002 
L 128.660884 74.12829 
L 127.037562 76.636481 
L 125.531041 79.248774 
L 124.141765 81.953925 
L 122.878222 84.75469 
L 121.740357 87.639671 
L 120.734352 90.607799 
L 119.861805 93.651013 
L 119.126341 96.764592 
L 118.526525 99.937158 
L 118.060327 103.157563 
L 117.730269 106.421254 
L 117.528238 109.711072 
L 117.439758 113.004342 
L 117.470818 116.30375 
L 117.829177 122.838559 
L 119.087316 137.52009 
L 119.130338 139.985541 
L 119.044047 142.273617 
L 118.723087 144.317539 
L 118.220333 146.180526 
L 117.493423 147.849604 
L 116.5322 149.337871 
L 115.326984 150.658771 
L 113.868572 151.826088 
L 112.21754 152.897218 
L 110.367918 153.882924 
L 106.086657 155.661989 
L 90.390894 161.136059 
L 84.797723 163.422637 
L 82.011915 164.691819 
L 76.577166 167.516424 
L 71.334749 170.708113 
L 68.810739 172.442024 
L 66.360298 174.265837 
L 63.989976 176.177516 
L 61.702297 178.173831 
L 59.503686 180.252269 
L 57.396491 182.409264 
L 55.382945 184.641191 
L 53.465163 186.94437 
L 51.649194 189.315564 
L 49.932877 191.750349 
L 48.322031 194.245252 
L 46.818305 196.796185 
L 45.419132 199.39881 
L 44.129971 202.04932 
L 42.947993 204.743449 
L 41.878403 207.477187 
L 40.918109 210.246357 
L 39.33282 215.874535 
L 38.709164 218.725236 
L 38.197485 221.594906 
L 37.798135 224.479439 
L 37.334755 230.276986 
L 37.309662 236.086961 
L 37.716125 241.878962 
L 38.541281 247.624598 
L 39.76995 253.297322 
L 41.38403 258.872894 
L 43.363511 264.329425 
L 45.686691 269.647555 
L 48.332273 274.809779 
L 51.279835 279.800085 
L 54.511313 284.602936 
L 58.011585 289.202368 
L 61.772035 293.579007 
L 65.78202 297.714104 
L 70.040517 301.581325 
L 74.552768 305.146471 
L 79.317378 308.375874 
L 81.79952 309.848071 
L 84.341742 311.223549 
L 86.952641 312.488746 
L 89.628195 313.640719 
L 92.370062 314.670876 
L 95.17656 315.573287 
L 98.051272 316.335992 
L 100.988846 316.955709 
L 103.991856 317.420075 
L 107.056866 317.722599 
L 110.18524 317.850455 
L 113.372529 317.796919 
L 116.616386 317.552057 
L 119.911481 317.10913 
L 123.254469 316.458135 
L 126.63684 315.595778 
L 130.045512 314.525887 
L 133.467763 313.252877 
L 136.880739 311.799236 
L 143.510502 308.599924 
L 146.626294 307.038062 
L 149.503181 305.726587 
L 152.067123 304.859705 
L 154.257295 304.637195 
L 156.076174 305.151882 
L 157.564003 306.422392 
L 158.807558 308.352302 
L 159.930165 310.726207 
L 163.317942 319.030314 
L 164.613463 321.794424 
L 166.017144 324.468106 
L 167.535402 327.00861 
L 169.171807 329.372612 
L 170.907758 331.599926 
L 172.740342 333.671398 
L 174.662327 335.583905 
L 176.664263 337.346634 
L 178.738745 338.961094 
L 180.878582 340.429064 
L 183.076805 341.752582 
L 185.326245 342.937997 
L 187.620614 343.987854 
L 189.954152 344.900839 
L 192.320852 345.679911 
L 194.715107 346.324146 
L 197.131146 346.840973 
L 199.56375 347.225758 
L 202.007547 347.482204 
L 204.457299 347.610104 
L 206.907555 347.605339 
L 209.353435 347.476205 
L 211.789567 347.218919 
L 214.211163 346.838015 
L 216.613236 346.334108 
L 218.990252 345.703929 
L 221.338336 344.956515 
L 223.652792 344.092931 
L 225.929731 343.118403 
L 230.355269 340.849911 
L 234.594685 338.214415 
L 238.636787 335.279334 
L 242.489384 332.142282 
L 249.765834 325.745886 
L 255.064808 321.27122 
L 258.618804 318.543591 
L 262.213897 315.990426 
L 267.629198 312.288786 
L 271.151886 309.715642 
L 274.55343 306.991854 
L 277.697982 303.964928 
L 279.159967 302.336266 
L 281.848015 298.863122 
L 283.068221 297.024769 
L 284.192682 295.113012 
L 286.171125 291.112958 
L 287.853302 286.973457 
L 290.865974 278.810303 
L 291.705522 276.910993 
L 292.638895 275.100239 
L 293.70452 273.395264 
L 294.908341 271.787926 
L 296.324526 270.31437 
L 297.856794 268.897498 
L 301.39088 266.267108 
L 313.844678 258.358335 
L 317.955818 255.310688 
L 321.833158 251.979613 
L 325.432979 248.374579 
L 328.723368 244.513112 
L 331.708933 240.424682 
L 334.392519 236.135927 
L 336.786942 231.673339 
L 338.910996 227.061166 
L 340.785211 222.320161 
L 342.419304 217.466621 
L 343.82398 212.514866 
L 344.441305 210.006035 
L 344.441305 210.006035 
" clip-path="url(#p2520003467)" style="fill: none; stroke-dasharray: 5.55,2.4; stroke-dashoffset: 0; stroke: #0000ff; stroke-width: 1.5"/>
   </g>
   <g id="patch_3">
    <path d="M 365.88375 207.477187 
C 365.88375 185.636245 361.581561 164.007679 353.223394 143.829279 
C 344.865227 123.650879 332.613628 105.315066 317.16975 89.871188 
C 301.725871 74.427309 283.390058 62.17571 263.211658 53.817544 
C 243.033259 45.459377 221.404692 41.157187 199.56375 41.157187 
C 177.722808 41.157187 156.094241 45.459377 135.915842 53.817544 
C 115.737442 62.17571 97.401629 74.427309 81.95775 89.871188 
C 66.513872 105.315066 54.262273 123.650879 45.904106 143.829279 
C 37.545939 164.007679 33.24375 185.636245 33.24375 207.477187 
C 33.24375 229.31813 37.545939 250.946696 45.904106 271.125096 
C 54.262273 291.303496 66.513872 309.639309 81.95775 325.083187 
C 97.401629 340.527066 115.737442 352.778665 135.915842 361.136831 
C 156.094241 369.494998 177.722808 373.797188 199.56375 373.797188 
C 221.404692 373.797188 243.033259 369.494998 263.211658 361.136831 
C 283.390058 352.778665 301.725871 340.527066 317.16975 325.083187 
C 332.613628 309.639309 344.865227 291.303496 353.223394 271.125096 
C 361.581561 250.946696 365.88375 229.31813 365.88375 207.477188 
" style="fill: none; stroke: #000000; stroke-width: 0.8; stroke-linejoin: miter; stroke-linecap: square"/>
   </g>
   <g id="text_19">
    <!-- Radiation Diagram - 1AVHF11 -->
    <g transform="translate(110.319375 16.318125)scale(0.12 -0.12)">
     <defs>
      <path id="DejaVuSans-52" d="M 2841 2188 
Q 3044 2119 3236 1894 
Q 3428 1669 3622 1275 
L 4263 0 
L 3584 0 
L 2988 1197 
Q 2756 1666 2539 1819 
Q 2322 1972 1947 1972 
L 1259 1972 
L 1259 0 
L 628 0 
L 628 4666 
L 2053 4666 
Q 2853 4666 3247 4331 
Q 3641 3997 3641 3322 
Q 3641 2881 3436 2590 
Q 3231 2300 2841 2188 
z
M 1259 4147 
L 1259 2491 
L 2053 2491 
Q 2509 2491 2742 2702 
Q 2975 2913 2975 3322 
Q 2975 3731 2742 3939 
Q 2509 4147 2053 4147 
L 1259 4147 
z
" transform="scale(0.015625)"/>
      <path id="DejaVuSans-61" d="M 2194 1759 
Q 1497 1759 1228 1600 
Q 959 1441 959 1056 
Q 959 750 1161 570 
Q 1363 391 1709 391 
Q 2188 391 2477 730 
Q 2766 1069 2766 1631 
L 2766 1759 
L 2194 1759 
z
M 3341 1997 
L 3341 0 
L 2766 0 
L 2766 531 
Q 2569 213 2275 61 
Q 1981 -91 1556 -91 
Q 1019 -91 701 211 
Q 384 513 384 1019 
Q 384 1609 779 1909 
Q 1175 2209 1959 2209 
L 2766 2209 
L 2766 2266 
Q 2766 2663 2505 2880 
Q 2244 3097 1772 3097 
Q 1472 3097 1187 3025 
Q 903 2953 641 2809 
L 641 3341 
Q 956 3463 1253 3523 
Q 1550 3584 1831 3584 
Q 2591 3584 2966 3190 
Q 3341 2797 3341 1997 
z
" transform="scale(0.015625)"/>
      <path id="DejaVuSans-64" d="M 2906 2969 
L 2906 4863 
L 3481 4863 
L 3481 0 
L 2906 0 
L 2906 525 
Q 2725 213 2448 61 
Q 2172 -91 1784 -91 
Q 1150 -91 751 415 
Q 353 922 353 1747 
Q 353 2572 751 3078 
Q 1150 3584 1784 3584 
Q 2172 3584 2448 3432 
Q 2725 3281 2906 2969 
z
M 947 1747 
Q 947 1113 1208 752 
Q 1469 391 1925 391 
Q 2381 391 2643 752 
Q 2906 1113 2906 1747 
Q 2906 2381 2643 2742 
Q 2381 3103 1925 3103 
Q 1469 3103 1208 2742 
Q 947 2381 947 1747 
z
" transform="scale(0.015625)"/>
      <path id="DejaVuSans-69" d="M 603 3500 
L 1178 3500 
L 1178 0 
L 603 0 
L 603 3500 
z
M 603 4863 
L 1178 4863 
L 1178 4134 
L 603 4134 
L 603 4863 
z
" transform="scale(0.015625)"/>
      <path id="DejaVuSans-74" d="M 1172 4494 
L 1172 3500 
L 2356 3500 
L 2356 3053 
L 1172 3053 
L 1172 1153 
Q 1172 725 1289 603 
Q 1406 481 1766 481 
L 2356 481 
L 2356 0 
L 1766 0 
Q 1100 0 847 248 
Q 594 497 594 1153 
L 594 3053 
L 172 3053 
L 172 3500 
L 594 3500 
L 594 4494 
L 1172 4494 
z
" transform="scale(0.015625)"/>
      <path id="DejaVuSans-6f" d="M 1959 3097 
Q 1497 3097 1228 2736 
Q 959 2375 959 1747 
Q 959 1119 1226 758 
Q 1494 397 1959 397 
Q 2419 397 2687 759 
Q 2956 1122 2956 1747 
Q 2956 2369 2687 2733 
Q 2419 3097 1959 3097 
z
M 1959 3584 
Q 2709 3584 3137 3096 
Q 3566 2609 3566 1747 
Q 3566 888 3137 398 
Q 2709 -91 1959 -91 
Q 1206 -91 779 398 
Q 353 888 353 1747 
Q 353 2609 779 3096 
Q 1206 3584 1959 3584 
z
" transform="scale(0.015625)"/>
      <path id="DejaVuSans-6e" d="M 3513 2113 
L 3513 0 
L 2938 0 
L 2938 2094 
Q 2938 2591 2744 2837 
Q 2550 3084 2163 3084 
Q 1697 3084 1428 2787 
Q 1159 2491 1159 1978 
L 1159 0 
L 581 0 
L 581 3500 
L 1159 3500 
L 1159 2956 
Q 1366 3272 1645 3428 
Q 1925 3584 2291 3584 
Q 2894 3584 3203 3211 
Q 3513 2838 3513 2113 
z
" transform="scale(0.015625)"/>
      <path id="DejaVuSans-20" transform="scale(0.015625)"/>
      <path id="DejaVuSans-44" d="M 1259 4147 
L 1259 519 
L 2022 519 
Q 2988 519 3436 956 
Q 3884 1394 3884 2338 
Q 3884 3275 3436 3711 
Q 2988 4147 2022 4147 
L 1259 4147 
z
M 628 4666 
L 1925 4666 
Q 3281 4666 3915 4102 
Q 4550 3538 4550 2338 
Q 4550 1131 3912 565 
Q 3275 0 1925 0 
L 628 0 
L 628 4666 
z
" transform="scale(0.015625)"/>
      <path id="DejaVuSans-67" d="M 2906 1791 
Q 2906 2416 2648 2759 
Q 2391 3103 1925 3103 
Q 1463 3103 1205 2759 
Q 947 2416 947 1791 
Q 947 1169 1205 825 
Q 1463 481 1925 481 
Q 2391 481 2648 825 
Q 2906 1169 2906 1791 
z
M 3481 434 
Q 3481 -459 3084 -895 
Q 2688 -1331 1869 -1331 
Q 1566 -1331 1297 -1286 
Q 1028 -1241 775 -1147 
L 775 -588 
Q 1028 -725 1275 -790 
Q 1522 -856 1778 -856 
Q 2344 -856 2625 -561 
Q 2906 -266 2906 331 
L 2906 616 
Q 2728 306 2450 153 
Q 2172 0 1784 0 
Q 1141 0 747 490 
Q 353 981 353 1791 
Q 353 2603 747 3093 
Q 1141 3584 1784 3584 
Q 2172 3584 2450 3431 
Q 2728 3278 2906 2969 
L 2906 3500 
L 3481 3500 
L 3481 434 
z
" transform="scale(0.015625)"/>
      <path id="DejaVuSans-72" d="M 2631 2963 
Q 2534 3019 2420 3045 
Q 2306 3072 2169 3072 
Q 1681 3072 1420 2755 
Q 1159 2438 1159 1844 
L 1159 0 
L 581 0 
L 581 3500 
L 1159 3500 
L 1159 2956 
Q 1341 3275 1631 3429 
Q 1922 3584 2338 3584 
Q 2397 3584 2469 3576 
Q 2541 3569 2628 3553 
L 2631 2963 
z
" transform="scale(0.015625)"/>
      <path id="DejaVuSans-6d" d="M 3328 2828 
Q 3544 3216 3844 3400 
Q 4144 3584 4550 3584 
Q 5097 3584 5394 3201 
Q 5691 2819 5691 2113 
L 5691 0 
L 5113 0 
L 5113 2094 
Q 5113 2597 4934 2840 
Q 4756 3084 4391 3084 
Q 3944 3084 3684 2787 
Q 3425 2491 3425 1978 
L 3425 0 
L 2847 0 
L 2847 2094 
Q 2847 2600 2669 2842 
Q 2491 3084 2119 3084 
Q 1678 3084 1418 2786 
Q 1159 2488 1159 1978 
L 1159 0 
L 581 0 
L 581 3500 
L 1159 3500 
L 1159 2956 
Q 1356 3278 1631 3431 
Q 1906 3584 2284 3584 
Q 2666 3584 2933 3390 
Q 3200 3197 3328 2828 
z
" transform="scale(0.015625)"/>
      <path id="DejaVuSans-2d" d="M 313 2009 
L 1997 2009 
L 1997 1497 
L 313 1497 
L 313 2009 
z
" transform="scale(0.015625)"/>
      <path id="DejaVuSans-41" d="M 2188 4044 
L 1331 1722 
L 3047 1722 
L 2188 4044 
z
M 1831 4666 
L 2547 4666 
L 4325 0 
L 3669 0 
L 3244 1197 
L 1141 1197 
L 716 0 
L 50 0 
L 1831 4666 
z
" transform="scale(0.015625)"/>
      <path id="DejaVuSans-56" d="M 1831 0 
L 50 4666 
L 709 4666 
L 2188 738 
L 3669 4666 
L 4325 4666 
L 2547 0 
L 1831 0 
z
" transform="scale(0.015625)"/>
      <path id="DejaVuSans-48" d="M 628 4666 
L 1259 4666 
L 1259 2753 
L 3553 2753 
L 3553 4666 
L 4184 4666 
L 4184 0 
L 3553 0 
L 3553 2222 
L 1259 2222 
L 1259 0 
L 628 0 
L 628 4666 
z
" transform="scale(0.015625)"/>
      <path id="DejaVuSans-46" d="M 628 4666 
L 3309 4666 
L 3309 4134 
L 1259 4134 
L 1259 2759 
L 3109 2759 
L 3109 2228 
L 1259 2228 
L 1259 0 
L 628 0 
L 628 4666 
z
" transform="scale(0.015625)"/>
     </defs>
     <use xlink:href="#DejaVuSans-52"/>
     <use xlink:href="#DejaVuSans-61" x="67.232422"/>
     <use xlink:href="#DejaVuSans-64" x="128.511719"/>
     <use xlink:href="#DejaVuSans-69" x="191.988281"/>
     <use xlink:href="#DejaVuSans-61" x="219.771484"/>
     <use xlink:href="#DejaVuSans-74" x="281.050781"/>
     <use xlink:href="#DejaVuSans-69" x="320.259766"/>
     <use xlink:href="#DejaVuSans-6f" x="348.042969"/>
     <use xlink:href="#DejaVuSans-6e" x="409.224609"/>
     <use xlink:href="#DejaVuSans-20" x="472.603516"/>
     <use xlink:href="#DejaVuSans-44" x="504.390625"/>
     <use xlink:href="#DejaVuSans-69" x="581.392578"/>
     <use xlink:href="#DejaVuSans-61" x="609.175781"/>
     <use xlink:href="#DejaVuSans-67" x="670.455078"/>
     <use xlink:href="#DejaVuSans-72" x="733.931641"/>
     <use xlink:href="#DejaVuSans-61" x="775.044922"/>
     <use xlink:href="#DejaVuSans-6d" x="836.324219"/>
     <use xlink:href="#DejaVuSans-20" x="933.736328"/>
     <use xlink:href="#DejaVuSans-2d" x="965.523438"/>
     <use xlink:href="#DejaVuSans-20" x="1001.607422"/>
     <use xlink:href="#DejaVuSans-31" x="1033.394531"/>
     <use xlink:href="#DejaVuSans-41" x="1097.017578"/>
     <use xlink:href="#DejaVuSans-56" x="1159.050781"/>
     <use xlink:href="#DejaVuSans-48" x="1227.458984"/>
     <use xlink:href="#DejaVuSans-46" x="1302.654297"/>
     <use xlink:href="#DejaVuSans-31" x="1360.173828"/>
     <use xlink:href="#DejaVuSans-31" x="1423.796875"/>
    </g>
   </g>
   <g id="legend_1">
    <g id="patch_4">
     <path d="M 304.104062 78.513437 
L 358.88375 78.513437 
Q 360.88375 78.513437 360.88375 76.513437 
L 360.88375 48.157187 
Q 360.88375 46.157187 358.88375 46.157187 
L 304.104062 46.157187 
Q 302.104062 46.157187 302.104062 48.157187 
L 302.104062 76.513437 
Q 302.104062 78.513437 304.104062 78.513437 
z
" style="fill: #ffffff; opacity: 0.8; stroke: #cccccc; stroke-linejoin: miter"/>
    </g>
    <g id="line2d_21">
     <path d="M 306.104062 54.255625 
L 316.104062 54.255625 
L 326.104062 54.255625 
" style="fill: none; stroke: #ff0000; stroke-width: 1.5; stroke-linecap: square"/>
    </g>
    <g id="text_20">
     <!-- INPE -->
     <g transform="translate(334.104062 57.755625)scale(0.1 -0.1)">
      <defs>
       <path id="DejaVuSans-49" d="M 628 4666 
L 1259 4666 
L 1259 0 
L 628 0 
L 628 4666 
z
" transform="scale(0.015625)"/>
       <path id="DejaVuSans-4e" d="M 628 4666 
L 1478 4666 
L 3547 763 
L 3547 4666 
L 4159 4666 
L 4159 0 
L 3309 0 
L 1241 3903 
L 1241 0 
L 628 0 
L 628 4666 
z
" transform="scale(0.015625)"/>
       <path id="DejaVuSans-50" d="M 1259 4147 
L 1259 2394 
L 2053 2394 
Q 2494 2394 2734 2622 
Q 2975 2850 2975 3272 
Q 2975 3691 2734 3919 
Q 2494 4147 2053 4147 
L 1259 4147 
z
M 628 4666 
L 2053 4666 
Q 2838 4666 3239 4311 
Q 3641 3956 3641 3272 
Q 3641 2581 3239 2228 
Q 2838 1875 2053 1875 
L 1259 1875 
L 1259 0 
L 628 0 
L 628 4666 
z
" transform="scale(0.015625)"/>
       <path id="DejaVuSans-45" d="M 628 4666 
L 3578 4666 
L 3578 4134 
L 1259 4134 
L 1259 2753 
L 3481 2753 
L 3481 2222 
L 1259 2222 
L 1259 531 
L 3634 531 
L 3634 0 
L 628 0 
L 628 4666 
z
" transform="scale(0.015625)"/>
      </defs>
      <use xlink:href="#DejaVuSans-49"/>
      <use xlink:href="#DejaVuSans-4e" x="29.492188"/>
      <use xlink:href="#DejaVuSans-50" x="104.296875"/>
      <use xlink:href="#DejaVuSans-45" x="164.599609"/>
     </g>
    </g>
    <g id="line2d_22">
     <path d="M 306.104062 68.93375 
L 316.104062 68.93375 
L 326.104062 68.93375 
" style="fill: none; stroke-dasharray: 5.55,2.4; stroke-dashoffset: 0; stroke: #0000ff; stroke-width: 1.5"/>
    </g>
    <g id="text_21">
     <!-- CST -->
     <g transform="translate(334.104062 72.43375)scale(0.1 -0.1)">
      <defs>
       <path id="DejaVuSans-43" d="M 4122 4306 
L 4122 3641 
Q 3803 3938 3442 4084 
Q 3081 4231 2675 4231 
Q 1875 4231 1450 3742 
Q 1025 3253 1025 2328 
Q 1025 1406 1450 917 
Q 1875 428 2675 428 
Q 3081 428 3442 575 
Q 3803 722 4122 1019 
L 4122 359 
Q 3791 134 3420 21 
Q 3050 -91 2638 -91 
Q 1578 -91 968 557 
Q 359 1206 359 2328 
Q 359 3453 968 4101 
Q 1578 4750 2638 4750 
Q 3056 4750 3426 4639 
Q 3797 4528 4122 4306 
z
" transform="scale(0.015625)"/>
       <path id="DejaVuSans-53" d="M 3425 4513 
L 3425 3897 
Q 3066 4069 2747 4153 
Q 2428 4238 2131 4238 
Q 1616 4238 1336 4038 
Q 1056 3838 1056 3469 
Q 1056 3159 1242 3001 
Q 1428 2844 1947 2747 
L 2328 2669 
Q 3034 2534 3370 2195 
Q 3706 1856 3706 1288 
Q 3706 609 3251 259 
Q 2797 -91 1919 -91 
Q 1588 -91 1214 -16 
Q 841 59 441 206 
L 441 856 
Q 825 641 1194 531 
Q 1563 422 1919 422 
Q 2459 422 2753 634 
Q 3047 847 3047 1241 
Q 3047 1584 2836 1778 
Q 2625 1972 2144 2069 
L 1759 2144 
Q 1053 2284 737 2584 
Q 422 2884 422 3419 
Q 422 4038 858 4394 
Q 1294 4750 2059 4750 
Q 2388 4750 2728 4690 
Q 3069 4631 3425 4513 
z
" transform="scale(0.015625)"/>
       <path id="DejaVuSans-54" d="M -19 4666 
L 3928 4666 
L 3928 4134 
L 2272 4134 
L 2272 0 
L 1638 0 
L 1638 4134 
L -19 4134 
L -19 4666 
z
" transform="scale(0.015625)"/>
      </defs>
      <use xlink:href="#DejaVuSans-43"/>
      <use xlink:href="#DejaVuSans-53" x="69.824219"/>
      <use xlink:href="#DejaVuSans-54" x="133.300781"/>
     </g>
    </g>
   </g>
  </g>
 </g>
 <defs>
  <clipPath id="p2520003467">
   <path d="M 365.88375 207.477187 
C 365.88375 185.636245 361.581561 164.007679 353.223394 143.829279 
C 344.865227 123.650879 332.613628 105.315066 317.16975 89.871188 
C 301.725871 74.427309 283.390058 62.17571 263.211658 53.817544 
C 243.033259 45.459377 221.404692 41.157187 199.56375 41.157187 
C 177.722808 41.157187 156.094241 45.459377 135.915842 53.817544 
C 115.737442 62.17571 97.401629 74.427309 81.95775 89.871188 
C 66.513872 105.315066 54.262273 123.650879 45.904106 143.829279 
C 37.545939 164.007679 33.24375 185.636245 33.24375 207.477187 
C 33.24375 229.31813 37.545939 250.946696 45.904106 271.125096 
C 54.262273 291.303496 66.513872 309.639309 81.95775 325.083187 
C 97.401629 340.527066 115.737442 352.778665 135.915842 361.136831 
C 156.094241 369.494998 177.722808 373.797188 199.56375 373.797188 
C 221.404692 373.797188 243.033259 369.494998 263.211658 361.136831 
C 283.390058 352.778665 301.725871 340.527066 317.16975 325.083187 
C 332.613628 309.639309 344.865227 291.303496 353.223394 271.125096 
C 361.581561 250.946696 365.88375 229.31813 365.88375 207.477188 
M 199.56375 207.477187 
C 199.56375 207.477187 199.56375 207.477187 199.56375 207.477187 
C 199.56375 207.477187 199.56375 207.477187 199.56375 207.477187 
C 199.56375 207.477187 199.56375 207.477187 199.56375 207.477187 
C 199.56375 207.477187 199.56375 207.477187 199.56375 207.477187 
C 199.56375 207.477187 199.56375 207.477187 199.56375 207.477187 
C 199.56375 207.477187 199.56375 207.477187 199.56375 207.477187 
C 199.56375 207.477187 199.56375 207.477187 199.56375 207.477187 
C 199.56375 207.477187 199.56375 207.477187 199.56375 207.477187 
C 199.56375 207.477187 199.56375 207.477187 199.56375 207.477187 
C 199.56375 207.477187 199.56375 207.477187 199.56375 207.477187 
C 199.56375 207.477187 199.56375 207.477187 199.56375 207.477187 
C 199.56375 207.477187 199.56375 207.477187 199.56375 207.477187 
C 199.56375 207.477187 199.56375 207.477187 199.56375 207.477187 
C 199.56375 207.477187 199.56375 207.477187 199.56375 207.477187 
C 199.56375 207.477187 199.56375 207.477187 199.56375 207.477187 
C 199.56375 207.477187 199.56375 207.477187 199.56375 207.477187 
M 365.88375 207.477187 
z
"/>
  </clipPath>
 </defs>
</svg>
