<?xml version="1.0" encoding="utf-8" standalone="no"?>
<!DOCTYPE svg PUBLIC "-//W3C//DTD SVG 1.1//EN"
  "http://www.w3.org/Graphics/SVG/1.1/DTD/svg11.dtd">
<svg xmlns:xlink="http://www.w3.org/1999/xlink" width="392.765pt" height="399.83625pt" viewBox="0 0 392.765 399.83625" xmlns="http://www.w3.org/2000/svg" version="1.1">
 <metadata>
  <rdf:RDF xmlns:dc="http://purl.org/dc/elements/1.1/" xmlns:cc="http://creativecommons.org/ns#" xmlns:rdf="http://www.w3.org/1999/02/22-rdf-syntax-ns#">
   <cc:Work>
    <dc:type rdf:resource="http://purl.org/dc/dcmitype/StillImage"/>
    <dc:date>2023-11-01T17:06:58.261859</dc:date>
    <dc:format>image/svg+xml</dc:format>
    <dc:creator>
     <cc:Agent>
      <dc:title>Matplotlib v3.5.1, https://matplotlib.org/</dc:title>
     </cc:Agent>
    </dc:creator>
   </cc:Work>
  </rdf:RDF>
 </metadata>
 <defs>
  <style type="text/css">*{stroke-linejoin: round; stroke-linecap: butt}</style>
 </defs>
 <g id="figure_1">
  <g id="patch_1">
   <path d="M 0 399.83625 
L 392.765 399.83625 
L 392.765 0 
L 0 0 
z
" style="fill: #ffffff"/>
  </g>
  <g id="axes_1">
   <g id="patch_2">
    <path d="M 365.88375 207.477187 
C 365.88375 185.636245 361.581561 164.007679 353.223394 143.829279 
C 344.865227 123.650879 332.613628 105.315066 317.16975 89.871188 
C 301.725871 74.427309 283.390058 62.17571 263.211658 53.817544 
C 243.033259 45.459377 221.404692 41.157187 199.56375 41.157187 
C 177.722808 41.157187 156.094241 45.459377 135.915842 53.817544 
C 115.737442 62.17571 97.401629 74.427309 81.95775 89.871188 
C 66.513872 105.315066 54.262273 123.650879 45.904106 143.829279 
C 37.545939 164.007679 33.24375 185.636245 33.24375 207.477187 
C 33.24375 229.31813 37.545939 250.946696 45.904106 271.125096 
C 54.262273 291.303496 66.513872 309.639309 81.95775 325.083187 
C 97.401629 340.527066 115.737442 352.778665 135.915842 361.136831 
C 156.094241 369.494998 177.722808 373.797187 199.56375 373.797187 
C 221.404692 373.797187 243.033259 369.494998 263.211658 361.136831 
C 283.390058 352.778665 301.725871 340.527066 317.16975 325.083187 
C 332.613628 309.639309 344.865227 291.303496 353.223394 271.125096 
C 361.581561 250.946696 365.88375 229.31813 365.88375 207.477187 
M 199.56375 207.477187 
C 199.56375 207.477187 199.56375 207.477187 199.56375 207.477187 
C 199.56375 207.477187 199.56375 207.477187 199.56375 207.477187 
C 199.56375 207.477187 199.56375 207.477187 199.56375 207.477187 
C 199.56375 207.477187 199.56375 207.477187 199.56375 207.477187 
C 199.56375 207.477187 199.56375 207.477187 199.56375 207.477187 
C 199.56375 207.477187 199.56375 207.477187 199.56375 207.477187 
C 199.56375 207.477187 199.56375 207.477187 199.56375 207.477187 
C 199.56375 207.477187 199.56375 207.477187 199.56375 207.477187 
C 199.56375 207.477187 199.56375 207.477187 199.56375 207.477187 
C 199.56375 207.477187 199.56375 207.477187 199.56375 207.477187 
C 199.56375 207.477187 199.56375 207.477187 199.56375 207.477187 
C 199.56375 207.477187 199.56375 207.477187 199.56375 207.477187 
C 199.56375 207.477187 199.56375 207.477187 199.56375 207.477187 
C 199.56375 207.477187 199.56375 207.477187 199.56375 207.477187 
C 199.56375 207.477187 199.56375 207.477187 199.56375 207.477187 
C 199.56375 207.477187 199.56375 207.477187 199.56375 207.477187 
M 365.88375 207.477187 
z
" style="fill: #ffffff"/>
   </g>
   <g id="matplotlib.axis_1">
    <g id="xtick_1">
     <g id="line2d_1">
      <path d="M 199.56375 207.477187 
L 365.88375 207.477187 
" clip-path="url(#p11cae9f438)" style="fill: none; stroke: #b0b0b0; stroke-width: 0.8; stroke-linecap: square"/>
     </g>
     <g id="text_1">
      <!-- 0° -->
      <g transform="translate(374.2025 210.236562)scale(0.1 -0.1)">
       <defs>
        <path id="DejaVuSans-30" d="M 2034 4250 
Q 1547 4250 1301 3770 
Q 1056 3291 1056 2328 
Q 1056 1369 1301 889 
Q 1547 409 2034 409 
Q 2525 409 2770 889 
Q 3016 1369 3016 2328 
Q 3016 3291 2770 3770 
Q 2525 4250 2034 4250 
z
M 2034 4750 
Q 2819 4750 3233 4129 
Q 3647 3509 3647 2328 
Q 3647 1150 3233 529 
Q 2819 -91 2034 -91 
Q 1250 -91 836 529 
Q 422 1150 422 2328 
Q 422 3509 836 4129 
Q 1250 4750 2034 4750 
z
" transform="scale(0.015625)"/>
        <path id="DejaVuSans-b0" d="M 1600 4347 
Q 1350 4347 1178 4173 
Q 1006 4000 1006 3750 
Q 1006 3503 1178 3333 
Q 1350 3163 1600 3163 
Q 1850 3163 2022 3333 
Q 2194 3503 2194 3750 
Q 2194 3997 2020 4172 
Q 1847 4347 1600 4347 
z
M 1600 4750 
Q 1800 4750 1984 4673 
Q 2169 4597 2303 4453 
Q 2447 4313 2519 4134 
Q 2591 3956 2591 3750 
Q 2591 3338 2302 3052 
Q 2013 2766 1594 2766 
Q 1172 2766 890 3047 
Q 609 3328 609 3750 
Q 609 4169 896 4459 
Q 1184 4750 1600 4750 
z
" transform="scale(0.015625)"/>
       </defs>
       <use xlink:href="#DejaVuSans-30"/>
       <use xlink:href="#DejaVuSans-b0" x="63.623047"/>
      </g>
     </g>
    </g>
    <g id="xtick_2">
     <g id="line2d_2">
      <path d="M 199.56375 207.477187 
L 317.16975 89.871188 
" clip-path="url(#p11cae9f438)" style="fill: none; stroke: #b0b0b0; stroke-width: 0.8; stroke-linecap: square"/>
     </g>
     <g id="text_2">
      <!-- 45° -->
      <g transform="translate(318.206745 82.731068)scale(0.1 -0.1)">
       <defs>
        <path id="DejaVuSans-34" d="M 2419 4116 
L 825 1625 
L 2419 1625 
L 2419 4116 
z
M 2253 4666 
L 3047 4666 
L 3047 1625 
L 3713 1625 
L 3713 1100 
L 3047 1100 
L 3047 0 
L 2419 0 
L 2419 1100 
L 313 1100 
L 313 1709 
L 2253 4666 
z
" transform="scale(0.015625)"/>
        <path id="DejaVuSans-35" d="M 691 4666 
L 3169 4666 
L 3169 4134 
L 1269 4134 
L 1269 2991 
Q 1406 3038 1543 3061 
Q 1681 3084 1819 3084 
Q 2600 3084 3056 2656 
Q 3513 2228 3513 1497 
Q 3513 744 3044 326 
Q 2575 -91 1722 -91 
Q 1428 -91 1123 -41 
Q 819 9 494 109 
L 494 744 
Q 775 591 1075 516 
Q 1375 441 1709 441 
Q 2250 441 2565 725 
Q 2881 1009 2881 1497 
Q 2881 1984 2565 2268 
Q 2250 2553 1709 2553 
Q 1456 2553 1204 2497 
Q 953 2441 691 2322 
L 691 4666 
z
" transform="scale(0.015625)"/>
       </defs>
       <use xlink:href="#DejaVuSans-34"/>
       <use xlink:href="#DejaVuSans-35" x="63.623047"/>
       <use xlink:href="#DejaVuSans-b0" x="127.246094"/>
      </g>
     </g>
    </g>
    <g id="xtick_3">
     <g id="line2d_3">
      <path d="M 199.56375 207.477187 
L 199.56375 41.157187 
" clip-path="url(#p11cae9f438)" style="fill: none; stroke: #b0b0b0; stroke-width: 0.8; stroke-linecap: square"/>
     </g>
     <g id="text_3">
      <!-- 90° -->
      <g transform="translate(190.70125 29.916562)scale(0.1 -0.1)">
       <defs>
        <path id="DejaVuSans-39" d="M 703 97 
L 703 672 
Q 941 559 1184 500 
Q 1428 441 1663 441 
Q 2288 441 2617 861 
Q 2947 1281 2994 2138 
Q 2813 1869 2534 1725 
Q 2256 1581 1919 1581 
Q 1219 1581 811 2004 
Q 403 2428 403 3163 
Q 403 3881 828 4315 
Q 1253 4750 1959 4750 
Q 2769 4750 3195 4129 
Q 3622 3509 3622 2328 
Q 3622 1225 3098 567 
Q 2575 -91 1691 -91 
Q 1453 -91 1209 -44 
Q 966 3 703 97 
z
M 1959 2075 
Q 2384 2075 2632 2365 
Q 2881 2656 2881 3163 
Q 2881 3666 2632 3958 
Q 2384 4250 1959 4250 
Q 1534 4250 1286 3958 
Q 1038 3666 1038 3163 
Q 1038 2656 1286 2365 
Q 1534 2075 1959 2075 
z
" transform="scale(0.015625)"/>
       </defs>
       <use xlink:href="#DejaVuSans-39"/>
       <use xlink:href="#DejaVuSans-30" x="63.623047"/>
       <use xlink:href="#DejaVuSans-b0" x="127.246094"/>
      </g>
     </g>
    </g>
    <g id="xtick_4">
     <g id="line2d_4">
      <path d="M 199.56375 207.477187 
L 81.95775 89.871188 
" clip-path="url(#p11cae9f438)" style="fill: none; stroke: #b0b0b0; stroke-width: 0.8; stroke-linecap: square"/>
     </g>
     <g id="text_4">
      <!-- 135° -->
      <g transform="translate(60.014505 82.731068)scale(0.1 -0.1)">
       <defs>
        <path id="DejaVuSans-31" d="M 794 531 
L 1825 531 
L 1825 4091 
L 703 3866 
L 703 4441 
L 1819 4666 
L 2450 4666 
L 2450 531 
L 3481 531 
L 3481 0 
L 794 0 
L 794 531 
z
" transform="scale(0.015625)"/>
        <path id="DejaVuSans-33" d="M 2597 2516 
Q 3050 2419 3304 2112 
Q 3559 1806 3559 1356 
Q 3559 666 3084 287 
Q 2609 -91 1734 -91 
Q 1441 -91 1130 -33 
Q 819 25 488 141 
L 488 750 
Q 750 597 1062 519 
Q 1375 441 1716 441 
Q 2309 441 2620 675 
Q 2931 909 2931 1356 
Q 2931 1769 2642 2001 
Q 2353 2234 1838 2234 
L 1294 2234 
L 1294 2753 
L 1863 2753 
Q 2328 2753 2575 2939 
Q 2822 3125 2822 3475 
Q 2822 3834 2567 4026 
Q 2313 4219 1838 4219 
Q 1578 4219 1281 4162 
Q 984 4106 628 3988 
L 628 4550 
Q 988 4650 1302 4700 
Q 1616 4750 1894 4750 
Q 2613 4750 3031 4423 
Q 3450 4097 3450 3541 
Q 3450 3153 3228 2886 
Q 3006 2619 2597 2516 
z
" transform="scale(0.015625)"/>
       </defs>
       <use xlink:href="#DejaVuSans-31"/>
       <use xlink:href="#DejaVuSans-33" x="63.623047"/>
       <use xlink:href="#DejaVuSans-35" x="127.246094"/>
       <use xlink:href="#DejaVuSans-b0" x="190.869141"/>
      </g>
     </g>
    </g>
    <g id="xtick_5">
     <g id="line2d_5">
      <path d="M 199.56375 207.477187 
L 33.24375 207.477187 
" clip-path="url(#p11cae9f438)" style="fill: none; stroke: #b0b0b0; stroke-width: 0.8; stroke-linecap: square"/>
     </g>
     <g id="text_5">
      <!-- 180° -->
      <g transform="translate(7.2 210.236562)scale(0.1 -0.1)">
       <defs>
        <path id="DejaVuSans-38" d="M 2034 2216 
Q 1584 2216 1326 1975 
Q 1069 1734 1069 1313 
Q 1069 891 1326 650 
Q 1584 409 2034 409 
Q 2484 409 2743 651 
Q 3003 894 3003 1313 
Q 3003 1734 2745 1975 
Q 2488 2216 2034 2216 
z
M 1403 2484 
Q 997 2584 770 2862 
Q 544 3141 544 3541 
Q 544 4100 942 4425 
Q 1341 4750 2034 4750 
Q 2731 4750 3128 4425 
Q 3525 4100 3525 3541 
Q 3525 3141 3298 2862 
Q 3072 2584 2669 2484 
Q 3125 2378 3379 2068 
Q 3634 1759 3634 1313 
Q 3634 634 3220 271 
Q 2806 -91 2034 -91 
Q 1263 -91 848 271 
Q 434 634 434 1313 
Q 434 1759 690 2068 
Q 947 2378 1403 2484 
z
M 1172 3481 
Q 1172 3119 1398 2916 
Q 1625 2713 2034 2713 
Q 2441 2713 2670 2916 
Q 2900 3119 2900 3481 
Q 2900 3844 2670 4047 
Q 2441 4250 2034 4250 
Q 1625 4250 1398 4047 
Q 1172 3844 1172 3481 
z
" transform="scale(0.015625)"/>
       </defs>
       <use xlink:href="#DejaVuSans-31"/>
       <use xlink:href="#DejaVuSans-38" x="63.623047"/>
       <use xlink:href="#DejaVuSans-30" x="127.246094"/>
       <use xlink:href="#DejaVuSans-b0" x="190.869141"/>
      </g>
     </g>
    </g>
    <g id="xtick_6">
     <g id="line2d_6">
      <path d="M 199.56375 207.477187 
L 81.95775 325.083187 
" clip-path="url(#p11cae9f438)" style="fill: none; stroke: #b0b0b0; stroke-width: 0.8; stroke-linecap: square"/>
     </g>
     <g id="text_6">
      <!-- 225° -->
      <g transform="translate(60.014505 337.742057)scale(0.1 -0.1)">
       <defs>
        <path id="DejaVuSans-32" d="M 1228 531 
L 3431 531 
L 3431 0 
L 469 0 
L 469 531 
Q 828 903 1448 1529 
Q 2069 2156 2228 2338 
Q 2531 2678 2651 2914 
Q 2772 3150 2772 3378 
Q 2772 3750 2511 3984 
Q 2250 4219 1831 4219 
Q 1534 4219 1204 4116 
Q 875 4013 500 3803 
L 500 4441 
Q 881 4594 1212 4672 
Q 1544 4750 1819 4750 
Q 2544 4750 2975 4387 
Q 3406 4025 3406 3419 
Q 3406 3131 3298 2873 
Q 3191 2616 2906 2266 
Q 2828 2175 2409 1742 
Q 1991 1309 1228 531 
z
" transform="scale(0.015625)"/>
       </defs>
       <use xlink:href="#DejaVuSans-32"/>
       <use xlink:href="#DejaVuSans-32" x="63.623047"/>
       <use xlink:href="#DejaVuSans-35" x="127.246094"/>
       <use xlink:href="#DejaVuSans-b0" x="190.869141"/>
      </g>
     </g>
    </g>
    <g id="xtick_7">
     <g id="line2d_7">
      <path d="M 199.56375 207.477187 
L 199.56375 373.797187 
" clip-path="url(#p11cae9f438)" style="fill: none; stroke: #b0b0b0; stroke-width: 0.8; stroke-linecap: square"/>
     </g>
     <g id="text_7">
      <!-- 270° -->
      <g transform="translate(187.52 390.556562)scale(0.1 -0.1)">
       <defs>
        <path id="DejaVuSans-37" d="M 525 4666 
L 3525 4666 
L 3525 4397 
L 1831 0 
L 1172 0 
L 2766 4134 
L 525 4134 
L 525 4666 
z
" transform="scale(0.015625)"/>
       </defs>
       <use xlink:href="#DejaVuSans-32"/>
       <use xlink:href="#DejaVuSans-37" x="63.623047"/>
       <use xlink:href="#DejaVuSans-30" x="127.246094"/>
       <use xlink:href="#DejaVuSans-b0" x="190.869141"/>
      </g>
     </g>
    </g>
    <g id="xtick_8">
     <g id="line2d_8">
      <path d="M 199.56375 207.477187 
L 317.16975 325.083187 
" clip-path="url(#p11cae9f438)" style="fill: none; stroke: #b0b0b0; stroke-width: 0.8; stroke-linecap: square"/>
     </g>
     <g id="text_8">
      <!-- 315° -->
      <g transform="translate(315.025495 337.742057)scale(0.1 -0.1)">
       <use xlink:href="#DejaVuSans-33"/>
       <use xlink:href="#DejaVuSans-31" x="63.623047"/>
       <use xlink:href="#DejaVuSans-35" x="127.246094"/>
       <use xlink:href="#DejaVuSans-b0" x="190.869141"/>
      </g>
     </g>
    </g>
   </g>
   <g id="matplotlib.axis_2">
    <g id="ytick_1">
     <g id="line2d_9">
      <path d="M 209.485646 207.477187 
C 209.485646 206.174256 209.228997 204.883994 208.730386 203.680242 
C 208.231776 202.476491 207.500901 201.382659 206.57959 200.461348 
C 205.658278 199.540036 204.564447 198.809161 203.360695 198.310551 
C 202.156943 197.811941 200.866681 197.555292 199.56375 197.555292 
C 198.260819 197.555292 196.970557 197.811941 195.766805 198.310551 
C 194.563053 198.809161 193.469222 199.540036 192.54791 200.461348 
C 191.626599 201.382659 190.895724 202.476491 190.397114 203.680242 
C 189.898503 204.883994 189.641854 206.174256 189.641854 207.477187 
C 189.641854 208.780119 189.898503 210.070381 190.397114 211.274133 
C 190.895724 212.477884 191.626599 213.571716 192.54791 214.493027 
C 193.469222 215.414339 194.563053 216.145214 195.766805 216.643824 
C 196.970557 217.142434 198.260819 217.399083 199.56375 217.399083 
C 200.866681 217.399083 202.156943 217.142434 203.360695 216.643824 
C 204.564447 216.145214 205.658278 215.414339 206.57959 214.493027 
C 207.500901 213.571716 208.231776 212.477884 208.730386 211.274133 
C 209.228997 210.070381 209.485646 208.780119 209.485646 207.477187 
" clip-path="url(#p11cae9f438)" style="fill: none; stroke: #b0b0b0; stroke-width: 0.8; stroke-linecap: square"/>
     </g>
     <g id="text_9">
      <!-- −30 -->
      <g transform="translate(208.730386 201.600555)scale(0.1 -0.1)">
       <defs>
        <path id="DejaVuSans-2212" d="M 678 2272 
L 4684 2272 
L 4684 1741 
L 678 1741 
L 678 2272 
z
" transform="scale(0.015625)"/>
       </defs>
       <use xlink:href="#DejaVuSans-2212"/>
       <use xlink:href="#DejaVuSans-33" x="83.789062"/>
       <use xlink:href="#DejaVuSans-30" x="147.412109"/>
      </g>
     </g>
    </g>
    <g id="ytick_2">
     <g id="line2d_10">
      <path d="M 225.125456 207.477187 
C 225.125456 204.120455 224.464253 200.796362 223.179687 197.695146 
C 221.895121 194.59393 220.012174 191.7759 217.638606 189.402332 
C 215.265037 187.028763 212.447008 185.145816 209.345791 183.86125 
C 206.244575 182.576684 202.920482 181.915481 199.56375 181.915481 
C 196.207018 181.915481 192.882925 182.576684 189.781709 183.86125 
C 186.680492 185.145816 183.862463 187.028763 181.488894 189.402332 
C 179.115326 191.7759 177.232379 194.59393 175.947813 197.695146 
C 174.663247 200.796362 174.002044 204.120455 174.002044 207.477187 
C 174.002044 210.83392 174.663247 214.158013 175.947813 217.259229 
C 177.232379 220.360445 179.115326 223.178475 181.488894 225.552043 
C 183.862463 227.925612 186.680492 229.808559 189.781709 231.093125 
C 192.882925 232.377691 196.207018 233.038894 199.56375 233.038894 
C 202.920482 233.038894 206.244575 232.377691 209.345791 231.093125 
C 212.447008 229.808559 215.265037 227.925612 217.638606 225.552043 
C 220.012174 223.178475 221.895121 220.360445 223.179687 217.259229 
C 224.464253 214.158013 225.125456 210.83392 225.125456 207.477187 
" clip-path="url(#p11cae9f438)" style="fill: none; stroke: #b0b0b0; stroke-width: 0.8; stroke-linecap: square"/>
     </g>
     <g id="text_10">
      <!-- −27 -->
      <g transform="translate(223.179687 195.615459)scale(0.1 -0.1)">
       <use xlink:href="#DejaVuSans-2212"/>
       <use xlink:href="#DejaVuSans-32" x="83.789062"/>
       <use xlink:href="#DejaVuSans-37" x="147.412109"/>
      </g>
     </g>
    </g>
    <g id="ytick_3">
     <g id="line2d_11">
      <path d="M 240.765267 207.477187 
C 240.765267 202.066654 239.699509 196.708731 237.628988 191.71005 
C 235.558466 186.711368 232.523447 182.169141 228.697622 178.343316 
C 224.871797 174.517491 220.329569 171.482471 215.330888 169.41195 
C 210.332207 167.341428 204.974284 166.275671 199.56375 166.275671 
C 194.153216 166.275671 188.795293 167.341428 183.796612 169.41195 
C 178.797931 171.482471 174.255703 174.517491 170.429878 178.343316 
C 166.604053 182.169141 163.569034 186.711368 161.498512 191.71005 
C 159.427991 196.708731 158.362233 202.066654 158.362233 207.477187 
C 158.362233 212.887721 159.427991 218.245644 161.498512 223.244325 
C 163.569034 228.243007 166.604053 232.785234 170.429878 236.611059 
C 174.255703 240.436884 178.797931 243.471904 183.796612 245.542425 
C 188.795293 247.612947 194.153216 248.678704 199.56375 248.678704 
C 204.974284 248.678704 210.332207 247.612947 215.330888 245.542425 
C 220.329569 243.471904 224.871797 240.436884 228.697622 236.611059 
C 232.523447 232.785234 235.558466 228.243007 237.628988 223.244325 
C 239.699509 218.245644 240.765267 212.887721 240.765267 207.477187 
" clip-path="url(#p11cae9f438)" style="fill: none; stroke: #b0b0b0; stroke-width: 0.8; stroke-linecap: square"/>
     </g>
     <g id="text_11">
      <!-- −24 -->
      <g transform="translate(237.628988 189.630362)scale(0.1 -0.1)">
       <use xlink:href="#DejaVuSans-2212"/>
       <use xlink:href="#DejaVuSans-32" x="83.789062"/>
       <use xlink:href="#DejaVuSans-34" x="147.412109"/>
      </g>
     </g>
    </g>
    <g id="ytick_4">
     <g id="line2d_12">
      <path d="M 256.405077 207.477187 
C 256.405077 200.012853 254.934766 192.621099 252.078289 185.724953 
C 249.221811 178.828807 245.034719 172.562381 239.756638 167.2843 
C 234.478556 162.006218 228.21213 157.819126 221.315984 154.962649 
C 214.419838 152.106172 207.028085 150.63586 199.56375 150.63586 
C 192.099415 150.63586 184.707662 152.106172 177.811516 154.962649 
C 170.91537 157.819126 164.648944 162.006218 159.370862 167.2843 
C 154.092781 172.562381 149.905689 178.828807 147.049211 185.724953 
C 144.192734 192.621099 142.722423 200.012853 142.722423 207.477187 
C 142.722423 214.941522 144.192734 222.333276 147.049211 229.229422 
C 149.905689 236.125568 154.092781 242.391994 159.370862 247.670075 
C 164.648944 252.948157 170.91537 257.135249 177.811516 259.991726 
C 184.707662 262.848203 192.099415 264.318515 199.56375 264.318515 
C 207.028085 264.318515 214.419838 262.848203 221.315984 259.991726 
C 228.21213 257.135249 234.478556 252.948157 239.756638 247.670075 
C 245.034719 242.391994 249.221811 236.125568 252.078289 229.229422 
C 254.934766 222.333276 256.405077 214.941522 256.405077 207.477187 
" clip-path="url(#p11cae9f438)" style="fill: none; stroke: #b0b0b0; stroke-width: 0.8; stroke-linecap: square"/>
     </g>
     <g id="text_12">
      <!-- −21 -->
      <g transform="translate(252.078289 183.645266)scale(0.1 -0.1)">
       <use xlink:href="#DejaVuSans-2212"/>
       <use xlink:href="#DejaVuSans-32" x="83.789062"/>
       <use xlink:href="#DejaVuSans-31" x="147.412109"/>
      </g>
     </g>
    </g>
    <g id="ytick_5">
     <g id="line2d_13">
      <path d="M 272.044887 207.477187 
C 272.044887 197.959052 270.170022 188.533468 266.527589 179.739857 
C 262.885157 170.946246 257.545992 162.955622 250.815654 156.225284 
C 244.085315 149.494945 236.094691 144.155781 227.30108 140.513348 
C 218.50747 136.870915 209.081886 134.99605 199.56375 134.99605 
C 190.045614 134.99605 180.62003 136.870915 171.82642 140.513348 
C 163.032809 144.155781 155.042185 149.494945 148.311846 156.225284 
C 141.581508 162.955622 136.242343 170.946246 132.599911 179.739857 
C 128.957478 188.533468 127.082613 197.959052 127.082613 207.477187 
C 127.082613 216.995323 128.957478 226.420907 132.599911 235.214518 
C 136.242343 244.008129 141.581508 251.998753 148.311846 258.729091 
C 155.042185 265.45943 163.032809 270.798594 171.82642 274.441027 
C 180.62003 278.08346 190.045614 279.958325 199.56375 279.958325 
C 209.081886 279.958325 218.50747 278.08346 227.30108 274.441027 
C 236.094691 270.798594 244.085315 265.45943 250.815654 258.729091 
C 257.545992 251.998753 262.885157 244.008129 266.527589 235.214518 
C 270.170022 226.420907 272.044887 216.995323 272.044887 207.477187 
" clip-path="url(#p11cae9f438)" style="fill: none; stroke: #b0b0b0; stroke-width: 0.8; stroke-linecap: square"/>
     </g>
     <g id="text_13">
      <!-- −18 -->
      <g transform="translate(266.527589 177.66017)scale(0.1 -0.1)">
       <use xlink:href="#DejaVuSans-2212"/>
       <use xlink:href="#DejaVuSans-31" x="83.789062"/>
       <use xlink:href="#DejaVuSans-38" x="147.412109"/>
      </g>
     </g>
    </g>
    <g id="ytick_6">
     <g id="line2d_14">
      <path d="M 287.684698 207.477187 
C 287.684698 195.905251 285.405279 184.445836 280.97689 173.754761 
C 276.548502 163.063685 270.057265 153.348863 261.87467 145.166268 
C 253.692075 136.983673 243.977252 130.492436 233.286177 126.064047 
C 222.595101 121.635659 211.135687 119.35624 199.56375 119.35624 
C 187.991813 119.35624 176.532399 121.635659 165.841323 126.064047 
C 155.150248 130.492436 145.435425 136.983673 137.25283 145.166268 
C 129.070235 153.348863 122.578998 163.063685 118.15061 173.754761 
C 113.722221 184.445836 111.442802 195.905251 111.442802 207.477187 
C 111.442802 219.049124 113.722221 230.508539 118.15061 241.199614 
C 122.578998 251.89069 129.070235 261.605512 137.25283 269.788107 
C 145.435425 277.970702 155.150248 284.461939 165.841323 288.890328 
C 176.532399 293.318716 187.991813 295.598135 199.56375 295.598135 
C 211.135687 295.598135 222.595101 293.318716 233.286177 288.890328 
C 243.977252 284.461939 253.692075 277.970702 261.87467 269.788107 
C 270.057265 261.605512 276.548502 251.89069 280.97689 241.199614 
C 285.405279 230.508539 287.684698 219.049124 287.684698 207.477187 
" clip-path="url(#p11cae9f438)" style="fill: none; stroke: #b0b0b0; stroke-width: 0.8; stroke-linecap: square"/>
     </g>
     <g id="text_14">
      <!-- −15 -->
      <g transform="translate(280.97689 171.675073)scale(0.1 -0.1)">
       <use xlink:href="#DejaVuSans-2212"/>
       <use xlink:href="#DejaVuSans-31" x="83.789062"/>
       <use xlink:href="#DejaVuSans-35" x="147.412109"/>
      </g>
     </g>
    </g>
    <g id="ytick_7">
     <g id="line2d_15">
      <path d="M 303.324508 207.477187 
C 303.324508 193.85145 300.640535 180.358205 295.426191 167.769664 
C 290.211847 155.181124 282.568538 143.742103 272.933686 134.107252 
C 263.298834 124.4724 251.859814 116.829091 239.271273 111.614747 
C 226.682733 106.400402 213.189488 103.716429 199.56375 103.716429 
C 185.938012 103.716429 172.444767 106.400402 159.856227 111.614747 
C 147.267686 116.829091 135.828666 124.4724 126.193814 134.107252 
C 116.558962 143.742103 108.915653 155.181124 103.701309 167.769664 
C 98.486965 180.358205 95.802992 193.85145 95.802992 207.477187 
C 95.802992 221.102925 98.486965 234.59617 103.701309 247.184711 
C 108.915653 259.773251 116.558962 271.212272 126.193814 280.847123 
C 135.828666 290.481975 147.267686 298.125284 159.856227 303.339628 
C 172.444767 308.553973 185.938012 311.237946 199.56375 311.237946 
C 213.189488 311.237946 226.682733 308.553973 239.271273 303.339628 
C 251.859814 298.125284 263.298834 290.481975 272.933686 280.847123 
C 282.568538 271.212272 290.211847 259.773251 295.426191 247.184711 
C 300.640535 234.59617 303.324508 221.102925 303.324508 207.477187 
" clip-path="url(#p11cae9f438)" style="fill: none; stroke: #b0b0b0; stroke-width: 0.8; stroke-linecap: square"/>
     </g>
     <g id="text_15">
      <!-- −12 -->
      <g transform="translate(295.426191 165.689977)scale(0.1 -0.1)">
       <use xlink:href="#DejaVuSans-2212"/>
       <use xlink:href="#DejaVuSans-31" x="83.789062"/>
       <use xlink:href="#DejaVuSans-32" x="147.412109"/>
      </g>
     </g>
    </g>
    <g id="ytick_8">
     <g id="line2d_16">
      <path d="M 318.964319 207.477187 
C 318.964319 191.797648 315.875791 176.270573 309.875492 161.784568 
C 303.875192 147.298563 295.07981 134.135344 283.992702 123.048236 
C 272.905593 111.961127 259.742375 103.165746 245.256369 97.165446 
C 230.770364 91.165146 215.243289 88.076619 199.56375 88.076619 
C 183.884211 88.076619 168.357136 91.165146 153.871131 97.165446 
C 139.385125 103.165746 126.221907 111.961127 115.134798 123.048236 
C 104.04769 134.135344 95.252308 147.298563 89.252008 161.784568 
C 83.251709 176.270573 80.163181 191.797648 80.163181 207.477187 
C 80.163181 223.156727 83.251709 238.683802 89.252008 253.169807 
C 95.252308 267.655812 104.04769 280.819031 115.134798 291.906139 
C 126.221907 302.993248 139.385125 311.788629 153.871131 317.788929 
C 168.357136 323.789229 183.884211 326.877756 199.56375 326.877756 
C 215.243289 326.877756 230.770364 323.789229 245.256369 317.788929 
C 259.742375 311.788629 272.905593 302.993248 283.992702 291.906139 
C 295.07981 280.819031 303.875192 267.655812 309.875492 253.169807 
C 315.875791 238.683802 318.964319 223.156727 318.964319 207.477187 
" clip-path="url(#p11cae9f438)" style="fill: none; stroke: #b0b0b0; stroke-width: 0.8; stroke-linecap: square"/>
     </g>
     <g id="text_16">
      <!-- −9 -->
      <g transform="translate(309.875492 159.704881)scale(0.1 -0.1)">
       <use xlink:href="#DejaVuSans-2212"/>
       <use xlink:href="#DejaVuSans-39" x="83.789062"/>
      </g>
     </g>
    </g>
    <g id="ytick_9">
     <g id="line2d_17">
      <path d="M 334.604129 207.477187 
C 334.604129 189.743847 331.111048 172.182942 324.324792 155.799472 
C 317.538537 139.416002 307.591083 124.528585 295.051718 111.98922 
C 282.512353 99.449855 267.624936 89.502401 251.241466 82.716145 
C 234.857996 75.92989 217.29709 72.436808 199.56375 72.436808 
C 181.83041 72.436808 164.269504 75.92989 147.886034 82.716145 
C 131.502564 89.502401 116.615147 99.449855 104.075782 111.98922 
C 91.536417 124.528585 81.588963 139.416002 74.802708 155.799472 
C 68.016452 172.182942 64.523371 189.743847 64.523371 207.477187 
C 64.523371 225.210528 68.016452 242.771433 74.802708 259.154903 
C 81.588963 275.538373 91.536417 290.42579 104.075782 302.965155 
C 116.615147 315.50452 131.502564 325.451974 147.886034 332.23823 
C 164.269504 339.024485 181.83041 342.517567 199.56375 342.517567 
C 217.29709 342.517567 234.857996 339.024485 251.241466 332.23823 
C 267.624936 325.451974 282.512353 315.50452 295.051718 302.965155 
C 307.591083 290.42579 317.538537 275.538373 324.324792 259.154903 
C 331.111048 242.771433 334.604129 225.210528 334.604129 207.477187 
" clip-path="url(#p11cae9f438)" style="fill: none; stroke: #b0b0b0; stroke-width: 0.8; stroke-linecap: square"/>
     </g>
     <g id="text_17">
      <!-- −6 -->
      <g transform="translate(324.324792 153.719784)scale(0.1 -0.1)">
       <defs>
        <path id="DejaVuSans-36" d="M 2113 2584 
Q 1688 2584 1439 2293 
Q 1191 2003 1191 1497 
Q 1191 994 1439 701 
Q 1688 409 2113 409 
Q 2538 409 2786 701 
Q 3034 994 3034 1497 
Q 3034 2003 2786 2293 
Q 2538 2584 2113 2584 
z
M 3366 4563 
L 3366 3988 
Q 3128 4100 2886 4159 
Q 2644 4219 2406 4219 
Q 1781 4219 1451 3797 
Q 1122 3375 1075 2522 
Q 1259 2794 1537 2939 
Q 1816 3084 2150 3084 
Q 2853 3084 3261 2657 
Q 3669 2231 3669 1497 
Q 3669 778 3244 343 
Q 2819 -91 2113 -91 
Q 1303 -91 875 529 
Q 447 1150 447 2328 
Q 447 3434 972 4092 
Q 1497 4750 2381 4750 
Q 2619 4750 2861 4703 
Q 3103 4656 3366 4563 
z
" transform="scale(0.015625)"/>
       </defs>
       <use xlink:href="#DejaVuSans-2212"/>
       <use xlink:href="#DejaVuSans-36" x="83.789062"/>
      </g>
     </g>
    </g>
    <g id="ytick_10">
     <g id="line2d_18">
      <path d="M 350.24394 207.477187 
C 350.24394 187.690046 346.346304 168.09531 338.774093 149.814375 
C 331.201882 131.533441 320.102356 114.921825 306.110734 100.930204 
C 292.119112 86.938582 275.507497 75.839056 257.226562 68.266844 
C 238.945627 60.694633 219.350891 56.796998 199.56375 56.796998 
C 179.776609 56.796998 160.181873 60.694633 141.900938 68.266844 
C 123.620003 75.839056 107.008388 86.938582 93.016766 100.930204 
C 79.025144 114.921825 67.925618 131.533441 60.353407 149.814375 
C 52.781196 168.09531 48.88356 187.690046 48.88356 207.477187 
C 48.88356 227.264329 52.781196 246.859065 60.353407 265.14 
C 67.925618 283.420934 79.025144 300.03255 93.016766 314.024171 
C 107.008388 328.015793 123.620003 339.115319 141.900938 346.687531 
C 160.181873 354.259742 179.776609 358.157377 199.56375 358.157377 
C 219.350891 358.157377 238.945627 354.259742 257.226562 346.687531 
C 275.507497 339.115319 292.119112 328.015793 306.110734 314.024171 
C 320.102356 300.03255 331.201882 283.420934 338.774093 265.14 
C 346.346304 246.859065 350.24394 227.264329 350.24394 207.477187 
" clip-path="url(#p11cae9f438)" style="fill: none; stroke: #b0b0b0; stroke-width: 0.8; stroke-linecap: square"/>
     </g>
     <g id="text_18">
      <!-- −3 -->
      <g transform="translate(338.774093 147.734688)scale(0.1 -0.1)">
       <use xlink:href="#DejaVuSans-2212"/>
       <use xlink:href="#DejaVuSans-33" x="83.789062"/>
      </g>
     </g>
    </g>
   </g>
   <g id="line2d_19">
    <path d="M 350.118821 207.477187 
L 350.377365 204.844726 
L 350.490805 202.206699 
L 350.401866 199.572097 
L 349.934096 196.962269 
L 349.19276 194.386345 
L 348.148243 191.860328 
L 345.674847 186.942612 
L 344.295293 184.553963 
L 342.466449 182.279586 
L 340.966076 179.99136 
L 339.006432 177.83773 
L 336.710354 175.814399 
L 334.836862 173.749813 
L 332.298988 171.910888 
L 327.172966 168.463135 
L 318.048835 164.352143 
L 314.319014 163.426769 
L 307.624999 161.607909 
L 303.507558 161.198422 
L 300.260215 160.521655 
L 297.616728 159.653555 
L 294.421402 159.144799 
L 292.256174 158.191751 
L 287.766262 156.553443 
L 285.827361 155.644781 
L 277.874875 154.655667 
L 275.194467 154.51999 
L 272.251128 154.666716 
L 269.973576 154.419578 
L 267.504543 154.396022 
L 266.1505 153.556301 
L 265.870233 151.839442 
L 265.77832 149.91774 
L 265.801974 147.836023 
L 266.588747 144.975367 
L 268.157811 141.236672 
L 268.937695 138.103243 
L 269.581429 134.971758 
L 271.59771 130.230223 
L 271.947889 127.086457 
L 272.8938 123.120615 
L 273.357352 119.533398 
L 272.911083 110.14199 
L 272.028534 107.737968 
L 271.344313 104.96392 
L 270.439251 102.399936 
L 269.369748 99.985377 
L 268.129577 97.748928 
L 263.452973 92.217979 
L 261.730284 90.558941 
L 259.86492 89.129478 
L 258.057669 87.546881 
L 256.149571 86.128502 
L 248.152194 80.899964 
L 242.366441 75.744051 
L 240.420576 73.840532 
L 238.296181 72.40115 
L 236.201389 70.743657 
L 229.506699 66.606688 
L 227.150046 65.557995 
L 224.736004 64.718242 
L 222.344256 63.646735 
L 219.899526 62.780625 
L 217.414963 62.090721 
L 214.963725 60.956209 
L 212.499199 59.624331 
L 209.98339 58.469391 
L 207.472115 56.576598 
L 204.873902 55.414332 
L 202.240885 54.104247 
L 199.56375 52.569036 
L 196.843489 51.633533 
L 191.24776 48.798646 
L 188.408791 47.953836 
L 185.512832 46.874455 
L 182.625423 46.319769 
L 179.75379 46.138011 
L 176.888085 46.13145 
L 174.059357 46.448787 
L 171.289119 47.123788 
L 168.613247 48.250652 
L 165.985401 49.503476 
L 163.438722 51.002498 
L 161.04506 52.987162 
L 156.185589 56.199562 
L 153.896509 58.106373 
L 151.518901 59.610346 
L 149.08646 60.880492 
L 146.56956 61.876848 
L 144.006663 62.746028 
L 141.233385 63.104467 
L 138.168557 62.839176 
L 135.191373 62.894461 
L 131.924358 62.424044 
L 128.811229 62.413021 
L 122.731903 62.9775 
L 119.890642 63.743097 
L 117.203987 64.825893 
L 114.576561 66.034752 
L 112.173483 67.623526 
L 109.933407 69.458563 
L 107.97267 71.687827 
L 106.155006 74.075676 
L 104.466169 76.586596 
L 103.30067 79.731766 
L 101.830496 82.384327 
L 100.66614 85.34881 
L 99.803052 88.587017 
L 98.75913 91.514737 
L 97.212539 97.718951 
L 96.029628 100.264465 
L 94.477342 105.996423 
L 93.629697 108.692085 
L 92.979454 111.508256 
L 91.040957 116.415752 
L 90.06381 118.805885 
L 88.355761 123.675957 
L 87.377888 128.923801 
L 86.89275 131.479639 
L 87.266874 134.550743 
L 87.275671 137.311808 
L 87.860145 140.35889 
L 89.360499 143.851311 
L 90.127187 146.81551 
L 91.676677 150.112613 
L 94.426585 153.907126 
L 97.307738 157.603598 
L 102.41563 162.176275 
L 110.76488 167.941383 
L 118.4048 173.027257 
L 133.240136 180.680708 
L 150.970579 188.824017 
L 153.523176 190.719789 
L 133.673563 184.789377 
L 114.407141 179.808128 
L 102.206396 177.712057 
L 89.534274 175.926743 
L 80.233365 175.502707 
L 66.76025 176.817084 
L 61.304116 178.089195 
L 52.451114 181.537261 
L 49.008591 183.631593 
L 43.228229 188.281599 
L 41.231999 190.83585 
L 39.464781 193.470343 
L 37.897764 196.1724 
L 36.699484 198.941833 
L 35.6844 201.754394 
L 34.114366 207.477187 
L 34.077015 210.365769 
L 33.647253 213.271119 
L 33.565396 216.176793 
L 33.648897 219.079084 
L 33.944162 221.967024 
L 34.533352 224.822581 
L 36.411125 230.406794 
L 37.557023 233.136532 
L 39.333568 235.730092 
L 40.777319 238.342143 
L 42.793484 240.799736 
L 45.263153 243.100287 
L 47.532113 245.382932 
L 50.533206 247.409801 
L 57.16263 251.013579 
L 65.398608 253.673951 
L 69.678991 254.751374 
L 75.493035 255.103473 
L 81.220288 255.29105 
L 87.452279 255.065683 
L 103.370046 252.333049 
L 112.222182 250.076517 
L 124.373272 245.78865 
L 132.468855 243.152176 
L 135.500053 242.988274 
L 122.737917 253.638805 
L 114.032191 260.923237 
L 107.405302 267.325584 
L 98.899592 277.96299 
L 95.712347 282.929648 
L 93.805786 287.171529 
L 91.511342 291.896981 
L 90.375774 295.895867 
L 89.353546 303.281456 
L 89.469415 306.606572 
L 90.355968 312.937917 
L 92.509586 318.335019 
L 93.625098 321.082483 
L 95.0902 323.506819 
L 96.741204 325.760996 
L 98.301793 328.156489 
L 102.21244 332.081183 
L 104.298371 333.898615 
L 108.660801 337.300053 
L 115.502431 342.003419 
L 120.141665 345.040274 
L 122.4838 346.533099 
L 127.277231 349.347469 
L 129.789357 350.535893 
L 132.391441 351.528668 
L 135.072629 352.326617 
L 140.852564 352.792472 
L 143.842255 352.636644 
L 146.999274 351.896899 
L 149.9334 351.61419 
L 153.021954 350.718108 
L 156.236176 349.195298 
L 159.249213 348.070685 
L 165.282707 344.970943 
L 168.069835 343.892321 
L 170.820678 342.702709 
L 173.438725 341.87879 
L 175.890631 341.734115 
L 178.234081 342.147416 
L 180.545568 342.798586 
L 182.830096 343.761865 
L 185.102698 345.064908 
L 187.453885 345.893578 
L 189.836881 346.577897 
L 192.252362 346.986775 
L 194.683342 347.233801 
L 201.984855 346.18222 
L 204.384664 345.5301 
L 206.732987 344.274383 
L 209.009147 342.552655 
L 211.138826 339.780908 
L 215.024823 333.397519 
L 216.6157 328.808117 
L 219.393977 319.939993 
L 220.09138 313.082687 
L 220.581868 306.359658 
L 220.853736 299.694249 
L 219.743269 288.412819 
L 218.45548 277.982082 
L 216.133761 265.263685 
L 209.911935 241.324575 
L 202.14225 214.965695 
L 209.902192 235.881824 
L 215.889058 250.006068 
L 221.151778 260.909431 
L 225.690552 269.028075 
L 228.944824 273.468161 
L 232.017668 277.074839 
L 234.872821 279.871512 
L 237.160446 281.264858 
L 239.000518 281.646961 
L 241.252186 279.683677 
L 241.319229 276.969975 
L 241.163718 274.051053 
L 240.431088 270.40737 
L 238.030395 262.413251 
L 235.381213 255.008567 
L 235.431779 253.386171 
L 236.585147 253.194806 
L 240.480441 256.239801 
L 243.910915 258.492765 
L 248.977047 262.356214 
L 254.595588 266.491608 
L 263.529836 271.443273 
L 268.135311 273.695974 
L 276.204241 276.484595 
L 279.84811 277.267317 
L 283.378161 277.805829 
L 286.881881 278.186016 
L 290.058083 278.179109 
L 295.764383 277.371038 
L 298.182358 276.53068 
L 300.52646 275.577395 
L 303.186149 274.77036 
L 305.613652 273.744521 
L 315.229968 268.978007 
L 317.567725 267.603216 
L 322.018045 264.578563 
L 324.024664 262.890756 
L 325.606255 260.979057 
L 327.569698 259.194948 
L 331.929719 253.054446 
L 333.314839 250.935551 
L 335.757312 246.530063 
L 337.042554 244.314522 
L 337.973078 241.986509 
L 339.387332 239.758005 
L 341.503412 235.067463 
L 342.738555 232.722769 
L 343.63621 230.296023 
L 346.166203 225.477705 
L 348.122913 220.47443 
L 348.852378 217.916465 
L 349.313786 215.325254 
L 349.887392 210.101096 
L 349.887392 210.101096 
" clip-path="url(#p11cae9f438)" style="fill: none; stroke: #ff0000; stroke-width: 1.5; stroke-linecap: square"/>
   </g>
   <g id="line2d_20">
    <path d="M 342.903655 207.477187 
L 342.55865 204.981202 
L 342.060873 202.501078 
L 341.410888 200.043294 
L 340.609473 197.61431 
L 339.657619 195.220562 
L 338.556528 192.868458 
L 337.307611 190.564368 
L 335.907331 188.315347 
L 334.362706 186.12713 
L 332.665512 184.007756 
L 330.823215 181.962932 
L 328.833234 180.000111 
L 326.698355 178.125851 
L 324.421588 176.346632 
L 321.991049 174.672892 
L 319.420419 173.108841 
L 316.708454 171.662457 
L 313.849282 170.343567 
L 310.847343 169.159174 
L 307.707318 168.116148 
L 304.424388 167.22496 
L 301.003904 166.492705 
L 297.461055 165.922247 
L 293.768125 165.534698 
L 289.950642 165.329088 
L 286.015043 165.312074 
L 281.968003 165.490124 
L 277.816424 165.869503 
L 273.567437 166.456274 
L 269.273541 167.230221 
L 264.940916 168.194623 
L 260.620078 169.324959 
L 256.403435 170.565064 
L 248.461381 173.238697 
L 241.907405 175.568955 
L 239.413267 176.343333 
L 237.526851 176.735274 
L 236.305638 176.647083 
L 235.643947 176.113151 
L 235.517238 175.104522 
L 235.747457 173.735335 
L 237.091415 169.949523 
L 240.099175 162.458037 
L 242.189464 156.67784 
L 244.113773 150.455758 
L 245.712469 143.958924 
L 246.849261 137.373535 
L 247.467999 130.814363 
L 247.54582 127.621613 
L 247.50029 124.448664 
L 247.307664 121.344887 
L 246.971967 118.315298 
L 246.497374 115.364764 
L 245.865342 112.544856 
L 245.122439 109.776263 
L 244.245833 107.119586 
L 243.245305 104.569893 
L 242.128149 102.126603 
L 240.899574 99.793685 
L 239.564902 97.574925 
L 238.129566 95.473925 
L 236.5991 93.494101 
L 234.980661 91.633693 
L 233.278274 89.900668 
L 231.501799 88.282765 
L 229.652551 86.797599 
L 227.74001 85.432396 
L 225.767245 84.199437 
L 223.742071 83.090508 
L 221.668933 82.112467 
L 219.553495 81.266907 
L 217.402193 80.550071 
L 215.220507 79.963137 
L 213.013948 79.507106 
L 210.788055 79.182796 
L 208.54839 78.990843 
L 206.300534 78.931701 
L 204.050075 79.005639 
L 201.802614 79.212745 
L 199.56375 79.552922 
L 197.339079 80.025891 
L 195.13419 80.631188 
L 192.954929 81.373374 
L 190.806397 82.2412 
L 188.69476 83.24406 
L 186.624702 84.370365 
L 184.602688 85.629117 
L 182.632966 87.008402 
L 180.721463 88.511672 
L 178.872607 90.131883 
L 177.089416 91.856765 
L 173.736469 95.606943 
L 170.677803 99.673365 
L 167.900975 103.912918 
L 161.754724 113.896565 
L 159.296398 117.035235 
L 157.966456 118.271503 
L 156.598765 119.385914 
L 155.138908 120.288525 
L 153.599547 121.031095 
L 150.349959 122.2364 
L 145.246409 123.835817 
L 141.911924 125.141847 
L 140.361184 125.991846 
L 138.885337 126.954213 
L 137.553451 128.107624 
L 136.374554 129.44503 
L 135.323922 130.919142 
L 134.510616 132.642117 
L 133.947027 134.602434 
L 133.609596 136.750016 
L 133.616572 139.186885 
L 133.983048 141.896485 
L 134.761052 144.89795 
L 136.042665 148.242818 
L 137.924219 151.976704 
L 140.545389 156.173309 
L 144.012022 160.863753 
L 148.595424 166.203851 
L 154.455848 172.235032 
L 161.383598 178.706379 
L 167.846373 184.433164 
L 169.456147 186.395617 
L 153.086217 177.294325 
L 142.66326 171.921815 
L 133.11411 167.550215 
L 124.526466 164.154391 
L 116.851172 161.628857 
L 109.849496 159.775272 
L 103.489092 158.524704 
L 97.612306 157.752146 
L 92.172205 157.399688 
L 87.104486 157.407097 
L 82.375106 157.733559 
L 77.9479 158.341195 
L 73.79445 159.198876 
L 69.89944 160.283238 
L 66.246437 161.572355 
L 62.817959 163.045787 
L 59.605512 164.68766 
L 56.599899 166.482963 
L 53.79126 168.417567 
L 51.184288 170.482033 
L 48.758971 172.661161 
L 46.521108 174.94697 
L 44.46498 177.329041 
L 42.587028 179.797956 
L 40.885392 182.345005 
L 39.358416 184.961796 
L 38.003626 187.640099 
L 36.820847 190.372219 
L 35.808605 193.150469 
L 34.964642 195.967297 
L 34.289047 198.815507 
L 33.782716 201.687986 
L 33.446306 204.577597 
L 33.27503 207.477187 
L 33.269081 210.379872 
L 33.433639 213.278579 
L 33.768435 216.166152 
L 34.267765 219.035809 
L 34.930915 221.880694 
L 35.767314 224.692887 
L 36.770564 227.465677 
L 37.943366 230.191451 
L 39.284027 232.863002 
L 40.793697 235.472631 
L 42.472742 238.012586 
L 44.32132 240.474985 
L 46.339024 242.851903 
L 48.52508 245.135357 
L 50.879154 247.317105 
L 53.397668 249.389637 
L 56.080782 251.344333 
L 58.920881 253.174826 
L 61.913632 254.873924 
L 65.044658 256.438133 
L 68.299599 257.864774 
L 71.664142 259.151983 
L 75.104863 260.306851 
L 82.042175 262.278398 
L 88.643488 263.993884 
L 91.616837 264.873579 
L 94.249092 265.854056 
L 96.466832 267.000221 
L 98.222932 268.368894 
L 99.517707 269.992893 
L 100.392267 271.879902 
L 100.921952 274.01192 
L 101.20137 276.351267 
L 101.412506 281.439455 
L 101.675329 286.745668 
L 101.955456 289.380271 
L 102.380692 291.957131 
L 102.959431 294.460107 
L 103.70678 296.865258 
L 104.625147 299.158331 
L 105.716203 301.324735 
L 106.973625 303.357069 
L 108.397959 305.24053 
L 109.982003 306.967797 
L 111.718317 308.531799 
L 113.605926 309.917733 
L 115.633228 311.12275 
L 117.791885 312.140402 
L 120.082753 312.952033 
L 122.496412 313.551278 
L 125.023224 313.932091 
L 127.66209 314.075782 
L 130.405124 313.972133 
L 133.24669 313.606669 
L 136.183018 312.960439 
L 139.206594 312.018849 
L 142.316649 310.753692 
L 145.503276 309.150151 
L 148.765182 307.17499 
L 152.096631 304.799203 
L 155.498846 301.974679 
L 158.935925 298.728775 
L 162.449441 294.913021 
L 165.973043 290.617105 
L 169.484247 285.836973 
L 172.942555 280.618319 
L 181.410072 266.855192 
L 182.894587 265.609466 
L 183.601337 267.049724 
L 183.836281 270.556619 
L 184.139639 280.041925 
L 184.542995 284.752275 
L 185.169699 289.109909 
L 186.017548 293.004538 
L 187.069686 296.377072 
L 188.286377 299.324021 
L 189.651271 301.788123 
L 191.135162 303.816391 
L 192.712335 305.456983 
L 194.363337 306.706981 
L 196.068637 307.564142 
L 197.808648 308.026895 
L 199.56375 308.146477 
L 201.317032 307.922645 
L 203.049766 307.303637 
L 204.745064 306.342553 
L 206.382435 304.988932 
L 207.946902 303.297048 
L 209.410837 301.165958 
L 210.758529 298.651348 
L 211.963493 295.705942 
L 212.995777 292.283666 
L 213.840116 288.44248 
L 214.475084 284.189351 
L 214.879471 279.53199 
L 215.067483 274.631234 
L 215.175347 265.74046 
L 215.543166 263.204034 
L 216.5133 262.916667 
L 218.267655 265.041889 
L 226.766119 278.341782 
L 230.049306 282.931585 
L 233.35777 287.090911 
L 236.65046 290.775301 
L 239.905207 293.989721 
L 243.100071 296.739875 
L 246.237029 299.078655 
L 249.272601 300.965938 
L 252.261453 302.54636 
L 255.158584 303.770265 
L 257.966431 304.675572 
L 260.684337 305.290573 
L 263.307735 305.634316 
L 265.830282 305.721362 
L 268.246456 305.566258 
L 270.554614 305.18773 
L 272.747937 304.595883 
L 274.823318 303.805041 
L 276.771877 302.821285 
L 278.595004 301.662969 
L 280.28146 300.332291 
L 281.830409 298.843568 
L 283.238226 297.207077 
L 284.501769 295.433081 
L 285.614691 293.528128 
L 286.578365 291.506225 
L 287.394893 289.381053 
L 288.063212 287.162461 
L 288.594514 284.87045 
L 289.001145 282.524073 
L 289.507596 277.749022 
L 290.004425 270.80443 
L 290.300616 268.679976 
L 290.769055 266.706605 
L 291.466119 264.904161 
L 292.449892 263.288813 
L 293.748404 261.854723 
L 295.367023 260.581809 
L 297.296508 259.442617 
L 299.498451 258.396461 
L 304.50311 256.411215 
L 309.928443 254.32422 
L 315.389755 251.938625 
L 318.043937 250.600449 
L 320.612175 249.157503 
L 323.076333 247.608858 
L 325.423064 245.956241 
L 327.638978 244.202168 
L 329.72578 242.353998 
L 331.665236 240.413787 
L 333.459375 238.389428 
L 335.105431 236.287461 
L 336.600859 234.114503 
L 337.943335 231.877242 
L 339.13076 229.58243 
L 340.166422 227.237604 
L 341.048711 224.849356 
L 341.776233 222.424322 
L 342.347817 219.969175 
L 342.76771 217.490984 
L 343.029993 214.995935 
L 343.139362 212.490958 
L 343.100748 209.982635 
L 343.100748 209.982635 
" clip-path="url(#p11cae9f438)" style="fill: none; stroke-dasharray: 5.55,2.4; stroke-dashoffset: 0; stroke: #0000ff; stroke-width: 1.5"/>
   </g>
   <g id="patch_3">
    <path d="M 365.88375 207.477187 
C 365.88375 185.636245 361.581561 164.007679 353.223394 143.829279 
C 344.865227 123.650879 332.613628 105.315066 317.16975 89.871188 
C 301.725871 74.427309 283.390058 62.17571 263.211658 53.817544 
C 243.033259 45.459377 221.404692 41.157187 199.56375 41.157187 
C 177.722808 41.157187 156.094241 45.459377 135.915842 53.817544 
C 115.737442 62.17571 97.401629 74.427309 81.95775 89.871188 
C 66.513872 105.315066 54.262273 123.650879 45.904106 143.829279 
C 37.545939 164.007679 33.24375 185.636245 33.24375 207.477187 
C 33.24375 229.31813 37.545939 250.946696 45.904106 271.125096 
C 54.262273 291.303496 66.513872 309.639309 81.95775 325.083187 
C 97.401629 340.527066 115.737442 352.778665 135.915842 361.136831 
C 156.094241 369.494998 177.722808 373.797187 199.56375 373.797187 
C 221.404692 373.797187 243.033259 369.494998 263.211658 361.136831 
C 283.390058 352.778665 301.725871 340.527066 317.16975 325.083187 
C 332.613628 309.639309 344.865227 291.303496 353.223394 271.125096 
C 361.581561 250.946696 365.88375 229.31813 365.88375 207.477187 
" style="fill: none; stroke: #000000; stroke-width: 0.8; stroke-linejoin: miter; stroke-linecap: square"/>
   </g>
   <g id="text_19">
    <!-- Radiation Diagram - 1AVHF09 -->
    <g transform="translate(110.319375 16.318125)scale(0.12 -0.12)">
     <defs>
      <path id="DejaVuSans-52" d="M 2841 2188 
Q 3044 2119 3236 1894 
Q 3428 1669 3622 1275 
L 4263 0 
L 3584 0 
L 2988 1197 
Q 2756 1666 2539 1819 
Q 2322 1972 1947 1972 
L 1259 1972 
L 1259 0 
L 628 0 
L 628 4666 
L 2053 4666 
Q 2853 4666 3247 4331 
Q 3641 3997 3641 3322 
Q 3641 2881 3436 2590 
Q 3231 2300 2841 2188 
z
M 1259 4147 
L 1259 2491 
L 2053 2491 
Q 2509 2491 2742 2702 
Q 2975 2913 2975 3322 
Q 2975 3731 2742 3939 
Q 2509 4147 2053 4147 
L 1259 4147 
z
" transform="scale(0.015625)"/>
      <path id="DejaVuSans-61" d="M 2194 1759 
Q 1497 1759 1228 1600 
Q 959 1441 959 1056 
Q 959 750 1161 570 
Q 1363 391 1709 391 
Q 2188 391 2477 730 
Q 2766 1069 2766 1631 
L 2766 1759 
L 2194 1759 
z
M 3341 1997 
L 3341 0 
L 2766 0 
L 2766 531 
Q 2569 213 2275 61 
Q 1981 -91 1556 -91 
Q 1019 -91 701 211 
Q 384 513 384 1019 
Q 384 1609 779 1909 
Q 1175 2209 1959 2209 
L 2766 2209 
L 2766 2266 
Q 2766 2663 2505 2880 
Q 2244 3097 1772 3097 
Q 1472 3097 1187 3025 
Q 903 2953 641 2809 
L 641 3341 
Q 956 3463 1253 3523 
Q 1550 3584 1831 3584 
Q 2591 3584 2966 3190 
Q 3341 2797 3341 1997 
z
" transform="scale(0.015625)"/>
      <path id="DejaVuSans-64" d="M 2906 2969 
L 2906 4863 
L 3481 4863 
L 3481 0 
L 2906 0 
L 2906 525 
Q 2725 213 2448 61 
Q 2172 -91 1784 -91 
Q 1150 -91 751 415 
Q 353 922 353 1747 
Q 353 2572 751 3078 
Q 1150 3584 1784 3584 
Q 2172 3584 2448 3432 
Q 2725 3281 2906 2969 
z
M 947 1747 
Q 947 1113 1208 752 
Q 1469 391 1925 391 
Q 2381 391 2643 752 
Q 2906 1113 2906 1747 
Q 2906 2381 2643 2742 
Q 2381 3103 1925 3103 
Q 1469 3103 1208 2742 
Q 947 2381 947 1747 
z
" transform="scale(0.015625)"/>
      <path id="DejaVuSans-69" d="M 603 3500 
L 1178 3500 
L 1178 0 
L 603 0 
L 603 3500 
z
M 603 4863 
L 1178 4863 
L 1178 4134 
L 603 4134 
L 603 4863 
z
" transform="scale(0.015625)"/>
      <path id="DejaVuSans-74" d="M 1172 4494 
L 1172 3500 
L 2356 3500 
L 2356 3053 
L 1172 3053 
L 1172 1153 
Q 1172 725 1289 603 
Q 1406 481 1766 481 
L 2356 481 
L 2356 0 
L 1766 0 
Q 1100 0 847 248 
Q 594 497 594 1153 
L 594 3053 
L 172 3053 
L 172 3500 
L 594 3500 
L 594 4494 
L 1172 4494 
z
" transform="scale(0.015625)"/>
      <path id="DejaVuSans-6f" d="M 1959 3097 
Q 1497 3097 1228 2736 
Q 959 2375 959 1747 
Q 959 1119 1226 758 
Q 1494 397 1959 397 
Q 2419 397 2687 759 
Q 2956 1122 2956 1747 
Q 2956 2369 2687 2733 
Q 2419 3097 1959 3097 
z
M 1959 3584 
Q 2709 3584 3137 3096 
Q 3566 2609 3566 1747 
Q 3566 888 3137 398 
Q 2709 -91 1959 -91 
Q 1206 -91 779 398 
Q 353 888 353 1747 
Q 353 2609 779 3096 
Q 1206 3584 1959 3584 
z
" transform="scale(0.015625)"/>
      <path id="DejaVuSans-6e" d="M 3513 2113 
L 3513 0 
L 2938 0 
L 2938 2094 
Q 2938 2591 2744 2837 
Q 2550 3084 2163 3084 
Q 1697 3084 1428 2787 
Q 1159 2491 1159 1978 
L 1159 0 
L 581 0 
L 581 3500 
L 1159 3500 
L 1159 2956 
Q 1366 3272 1645 3428 
Q 1925 3584 2291 3584 
Q 2894 3584 3203 3211 
Q 3513 2838 3513 2113 
z
" transform="scale(0.015625)"/>
      <path id="DejaVuSans-20" transform="scale(0.015625)"/>
      <path id="DejaVuSans-44" d="M 1259 4147 
L 1259 519 
L 2022 519 
Q 2988 519 3436 956 
Q 3884 1394 3884 2338 
Q 3884 3275 3436 3711 
Q 2988 4147 2022 4147 
L 1259 4147 
z
M 628 4666 
L 1925 4666 
Q 3281 4666 3915 4102 
Q 4550 3538 4550 2338 
Q 4550 1131 3912 565 
Q 3275 0 1925 0 
L 628 0 
L 628 4666 
z
" transform="scale(0.015625)"/>
      <path id="DejaVuSans-67" d="M 2906 1791 
Q 2906 2416 2648 2759 
Q 2391 3103 1925 3103 
Q 1463 3103 1205 2759 
Q 947 2416 947 1791 
Q 947 1169 1205 825 
Q 1463 481 1925 481 
Q 2391 481 2648 825 
Q 2906 1169 2906 1791 
z
M 3481 434 
Q 3481 -459 3084 -895 
Q 2688 -1331 1869 -1331 
Q 1566 -1331 1297 -1286 
Q 1028 -1241 775 -1147 
L 775 -588 
Q 1028 -725 1275 -790 
Q 1522 -856 1778 -856 
Q 2344 -856 2625 -561 
Q 2906 -266 2906 331 
L 2906 616 
Q 2728 306 2450 153 
Q 2172 0 1784 0 
Q 1141 0 747 490 
Q 353 981 353 1791 
Q 353 2603 747 3093 
Q 1141 3584 1784 3584 
Q 2172 3584 2450 3431 
Q 2728 3278 2906 2969 
L 2906 3500 
L 3481 3500 
L 3481 434 
z
" transform="scale(0.015625)"/>
      <path id="DejaVuSans-72" d="M 2631 2963 
Q 2534 3019 2420 3045 
Q 2306 3072 2169 3072 
Q 1681 3072 1420 2755 
Q 1159 2438 1159 1844 
L 1159 0 
L 581 0 
L 581 3500 
L 1159 3500 
L 1159 2956 
Q 1341 3275 1631 3429 
Q 1922 3584 2338 3584 
Q 2397 3584 2469 3576 
Q 2541 3569 2628 3553 
L 2631 2963 
z
" transform="scale(0.015625)"/>
      <path id="DejaVuSans-6d" d="M 3328 2828 
Q 3544 3216 3844 3400 
Q 4144 3584 4550 3584 
Q 5097 3584 5394 3201 
Q 5691 2819 5691 2113 
L 5691 0 
L 5113 0 
L 5113 2094 
Q 5113 2597 4934 2840 
Q 4756 3084 4391 3084 
Q 3944 3084 3684 2787 
Q 3425 2491 3425 1978 
L 3425 0 
L 2847 0 
L 2847 2094 
Q 2847 2600 2669 2842 
Q 2491 3084 2119 3084 
Q 1678 3084 1418 2786 
Q 1159 2488 1159 1978 
L 1159 0 
L 581 0 
L 581 3500 
L 1159 3500 
L 1159 2956 
Q 1356 3278 1631 3431 
Q 1906 3584 2284 3584 
Q 2666 3584 2933 3390 
Q 3200 3197 3328 2828 
z
" transform="scale(0.015625)"/>
      <path id="DejaVuSans-2d" d="M 313 2009 
L 1997 2009 
L 1997 1497 
L 313 1497 
L 313 2009 
z
" transform="scale(0.015625)"/>
      <path id="DejaVuSans-41" d="M 2188 4044 
L 1331 1722 
L 3047 1722 
L 2188 4044 
z
M 1831 4666 
L 2547 4666 
L 4325 0 
L 3669 0 
L 3244 1197 
L 1141 1197 
L 716 0 
L 50 0 
L 1831 4666 
z
" transform="scale(0.015625)"/>
      <path id="DejaVuSans-56" d="M 1831 0 
L 50 4666 
L 709 4666 
L 2188 738 
L 3669 4666 
L 4325 4666 
L 2547 0 
L 1831 0 
z
" transform="scale(0.015625)"/>
      <path id="DejaVuSans-48" d="M 628 4666 
L 1259 4666 
L 1259 2753 
L 3553 2753 
L 3553 4666 
L 4184 4666 
L 4184 0 
L 3553 0 
L 3553 2222 
L 1259 2222 
L 1259 0 
L 628 0 
L 628 4666 
z
" transform="scale(0.015625)"/>
      <path id="DejaVuSans-46" d="M 628 4666 
L 3309 4666 
L 3309 4134 
L 1259 4134 
L 1259 2759 
L 3109 2759 
L 3109 2228 
L 1259 2228 
L 1259 0 
L 628 0 
L 628 4666 
z
" transform="scale(0.015625)"/>
     </defs>
     <use xlink:href="#DejaVuSans-52"/>
     <use xlink:href="#DejaVuSans-61" x="67.232422"/>
     <use xlink:href="#DejaVuSans-64" x="128.511719"/>
     <use xlink:href="#DejaVuSans-69" x="191.988281"/>
     <use xlink:href="#DejaVuSans-61" x="219.771484"/>
     <use xlink:href="#DejaVuSans-74" x="281.050781"/>
     <use xlink:href="#DejaVuSans-69" x="320.259766"/>
     <use xlink:href="#DejaVuSans-6f" x="348.042969"/>
     <use xlink:href="#DejaVuSans-6e" x="409.224609"/>
     <use xlink:href="#DejaVuSans-20" x="472.603516"/>
     <use xlink:href="#DejaVuSans-44" x="504.390625"/>
     <use xlink:href="#DejaVuSans-69" x="581.392578"/>
     <use xlink:href="#DejaVuSans-61" x="609.175781"/>
     <use xlink:href="#DejaVuSans-67" x="670.455078"/>
     <use xlink:href="#DejaVuSans-72" x="733.931641"/>
     <use xlink:href="#DejaVuSans-61" x="775.044922"/>
     <use xlink:href="#DejaVuSans-6d" x="836.324219"/>
     <use xlink:href="#DejaVuSans-20" x="933.736328"/>
     <use xlink:href="#DejaVuSans-2d" x="965.523438"/>
     <use xlink:href="#DejaVuSans-20" x="1001.607422"/>
     <use xlink:href="#DejaVuSans-31" x="1033.394531"/>
     <use xlink:href="#DejaVuSans-41" x="1097.017578"/>
     <use xlink:href="#DejaVuSans-56" x="1159.050781"/>
     <use xlink:href="#DejaVuSans-48" x="1227.458984"/>
     <use xlink:href="#DejaVuSans-46" x="1302.654297"/>
     <use xlink:href="#DejaVuSans-30" x="1360.173828"/>
     <use xlink:href="#DejaVuSans-39" x="1423.796875"/>
    </g>
   </g>
   <g id="legend_1">
    <g id="patch_4">
     <path d="M 304.104062 78.513437 
L 358.88375 78.513437 
Q 360.88375 78.513437 360.88375 76.513437 
L 360.88375 48.157187 
Q 360.88375 46.157187 358.88375 46.157187 
L 304.104062 46.157187 
Q 302.104062 46.157187 302.104062 48.157187 
L 302.104062 76.513437 
Q 302.104062 78.513437 304.104062 78.513437 
z
" style="fill: #ffffff; opacity: 0.8; stroke: #cccccc; stroke-linejoin: miter"/>
    </g>
    <g id="line2d_21">
     <path d="M 306.104062 54.255625 
L 316.104062 54.255625 
L 326.104062 54.255625 
" style="fill: none; stroke: #ff0000; stroke-width: 1.5; stroke-linecap: square"/>
    </g>
    <g id="text_20">
     <!-- INPE -->
     <g transform="translate(334.104062 57.755625)scale(0.1 -0.1)">
      <defs>
       <path id="DejaVuSans-49" d="M 628 4666 
L 1259 4666 
L 1259 0 
L 628 0 
L 628 4666 
z
" transform="scale(0.015625)"/>
       <path id="DejaVuSans-4e" d="M 628 4666 
L 1478 4666 
L 3547 763 
L 3547 4666 
L 4159 4666 
L 4159 0 
L 3309 0 
L 1241 3903 
L 1241 0 
L 628 0 
L 628 4666 
z
" transform="scale(0.015625)"/>
       <path id="DejaVuSans-50" d="M 1259 4147 
L 1259 2394 
L 2053 2394 
Q 2494 2394 2734 2622 
Q 2975 2850 2975 3272 
Q 2975 3691 2734 3919 
Q 2494 4147 2053 4147 
L 1259 4147 
z
M 628 4666 
L 2053 4666 
Q 2838 4666 3239 4311 
Q 3641 3956 3641 3272 
Q 3641 2581 3239 2228 
Q 2838 1875 2053 1875 
L 1259 1875 
L 1259 0 
L 628 0 
L 628 4666 
z
" transform="scale(0.015625)"/>
       <path id="DejaVuSans-45" d="M 628 4666 
L 3578 4666 
L 3578 4134 
L 1259 4134 
L 1259 2753 
L 3481 2753 
L 3481 2222 
L 1259 2222 
L 1259 531 
L 3634 531 
L 3634 0 
L 628 0 
L 628 4666 
z
" transform="scale(0.015625)"/>
      </defs>
      <use xlink:href="#DejaVuSans-49"/>
      <use xlink:href="#DejaVuSans-4e" x="29.492188"/>
      <use xlink:href="#DejaVuSans-50" x="104.296875"/>
      <use xlink:href="#DejaVuSans-45" x="164.599609"/>
     </g>
    </g>
    <g id="line2d_22">
     <path d="M 306.104062 68.93375 
L 316.104062 68.93375 
L 326.104062 68.93375 
" style="fill: none; stroke-dasharray: 5.55,2.4; stroke-dashoffset: 0; stroke: #0000ff; stroke-width: 1.5"/>
    </g>
    <g id="text_21">
     <!-- CST -->
     <g transform="translate(334.104062 72.43375)scale(0.1 -0.1)">
      <defs>
       <path id="DejaVuSans-43" d="M 4122 4306 
L 4122 3641 
Q 3803 3938 3442 4084 
Q 3081 4231 2675 4231 
Q 1875 4231 1450 3742 
Q 1025 3253 1025 2328 
Q 1025 1406 1450 917 
Q 1875 428 2675 428 
Q 3081 428 3442 575 
Q 3803 722 4122 1019 
L 4122 359 
Q 3791 134 3420 21 
Q 3050 -91 2638 -91 
Q 1578 -91 968 557 
Q 359 1206 359 2328 
Q 359 3453 968 4101 
Q 1578 4750 2638 4750 
Q 3056 4750 3426 4639 
Q 3797 4528 4122 4306 
z
" transform="scale(0.015625)"/>
       <path id="DejaVuSans-53" d="M 3425 4513 
L 3425 3897 
Q 3066 4069 2747 4153 
Q 2428 4238 2131 4238 
Q 1616 4238 1336 4038 
Q 1056 3838 1056 3469 
Q 1056 3159 1242 3001 
Q 1428 2844 1947 2747 
L 2328 2669 
Q 3034 2534 3370 2195 
Q 3706 1856 3706 1288 
Q 3706 609 3251 259 
Q 2797 -91 1919 -91 
Q 1588 -91 1214 -16 
Q 841 59 441 206 
L 441 856 
Q 825 641 1194 531 
Q 1563 422 1919 422 
Q 2459 422 2753 634 
Q 3047 847 3047 1241 
Q 3047 1584 2836 1778 
Q 2625 1972 2144 2069 
L 1759 2144 
Q 1053 2284 737 2584 
Q 422 2884 422 3419 
Q 422 4038 858 4394 
Q 1294 4750 2059 4750 
Q 2388 4750 2728 4690 
Q 3069 4631 3425 4513 
z
" transform="scale(0.015625)"/>
       <path id="DejaVuSans-54" d="M -19 4666 
L 3928 4666 
L 3928 4134 
L 2272 4134 
L 2272 0 
L 1638 0 
L 1638 4134 
L -19 4134 
L -19 4666 
z
" transform="scale(0.015625)"/>
      </defs>
      <use xlink:href="#DejaVuSans-43"/>
      <use xlink:href="#DejaVuSans-53" x="69.824219"/>
      <use xlink:href="#DejaVuSans-54" x="133.300781"/>
     </g>
    </g>
   </g>
  </g>
 </g>
 <defs>
  <clipPath id="p11cae9f438">
   <path d="M 365.88375 207.477187 
C 365.88375 185.636245 361.581561 164.007679 353.223394 143.829279 
C 344.865227 123.650879 332.613628 105.315066 317.16975 89.871188 
C 301.725871 74.427309 283.390058 62.17571 263.211658 53.817544 
C 243.033259 45.459377 221.404692 41.157187 199.56375 41.157187 
C 177.722808 41.157187 156.094241 45.459377 135.915842 53.817544 
C 115.737442 62.17571 97.401629 74.427309 81.95775 89.871188 
C 66.513872 105.315066 54.262273 123.650879 45.904106 143.829279 
C 37.545939 164.007679 33.24375 185.636245 33.24375 207.477187 
C 33.24375 229.31813 37.545939 250.946696 45.904106 271.125096 
C 54.262273 291.303496 66.513872 309.639309 81.95775 325.083187 
C 97.401629 340.527066 115.737442 352.778665 135.915842 361.136831 
C 156.094241 369.494998 177.722808 373.797187 199.56375 373.797187 
C 221.404692 373.797187 243.033259 369.494998 263.211658 361.136831 
C 283.390058 352.778665 301.725871 340.527066 317.16975 325.083187 
C 332.613628 309.639309 344.865227 291.303496 353.223394 271.125096 
C 361.581561 250.946696 365.88375 229.31813 365.88375 207.477187 
M 199.56375 207.477187 
C 199.56375 207.477187 199.56375 207.477187 199.56375 207.477187 
C 199.56375 207.477187 199.56375 207.477187 199.56375 207.477187 
C 199.56375 207.477187 199.56375 207.477187 199.56375 207.477187 
C 199.56375 207.477187 199.56375 207.477187 199.56375 207.477187 
C 199.56375 207.477187 199.56375 207.477187 199.56375 207.477187 
C 199.56375 207.477187 199.56375 207.477187 199.56375 207.477187 
C 199.56375 207.477187 199.56375 207.477187 199.56375 207.477187 
C 199.56375 207.477187 199.56375 207.477187 199.56375 207.477187 
C 199.56375 207.477187 199.56375 207.477187 199.56375 207.477187 
C 199.56375 207.477187 199.56375 207.477187 199.56375 207.477187 
C 199.56375 207.477187 199.56375 207.477187 199.56375 207.477187 
C 199.56375 207.477187 199.56375 207.477187 199.56375 207.477187 
C 199.56375 207.477187 199.56375 207.477187 199.56375 207.477187 
C 199.56375 207.477187 199.56375 207.477187 199.56375 207.477187 
C 199.56375 207.477187 199.56375 207.477187 199.56375 207.477187 
C 199.56375 207.477187 199.56375 207.477187 199.56375 207.477187 
M 365.88375 207.477187 
z
"/>
  </clipPath>
 </defs>
</svg>
