<?xml version="1.0" encoding="utf-8" standalone="no"?>
<!DOCTYPE svg PUBLIC "-//W3C//DTD SVG 1.1//EN"
  "http://www.w3.org/Graphics/SVG/1.1/DTD/svg11.dtd">
<svg xmlns:xlink="http://www.w3.org/1999/xlink" width="392.765pt" height="399.83625pt" viewBox="0 0 392.765 399.83625" xmlns="http://www.w3.org/2000/svg" version="1.1">
 <metadata>
  <rdf:RDF xmlns:dc="http://purl.org/dc/elements/1.1/" xmlns:cc="http://creativecommons.org/ns#" xmlns:rdf="http://www.w3.org/1999/02/22-rdf-syntax-ns#">
   <cc:Work>
    <dc:type rdf:resource="http://purl.org/dc/dcmitype/StillImage"/>
    <dc:date>2023-11-01T17:31:17.207946</dc:date>
    <dc:format>image/svg+xml</dc:format>
    <dc:creator>
     <cc:Agent>
      <dc:title>Matplotlib v3.5.1, https://matplotlib.org/</dc:title>
     </cc:Agent>
    </dc:creator>
   </cc:Work>
  </rdf:RDF>
 </metadata>
 <defs>
  <style type="text/css">*{stroke-linejoin: round; stroke-linecap: butt}</style>
 </defs>
 <g id="figure_1">
  <g id="patch_1">
   <path d="M 0 399.83625 
L 392.765 399.83625 
L 392.765 0 
L 0 0 
z
" style="fill: #ffffff"/>
  </g>
  <g id="axes_1">
   <g id="patch_2">
    <path d="M 365.88375 207.477187 
C 365.88375 185.636245 361.581561 164.007679 353.223394 143.829279 
C 344.865227 123.650879 332.613628 105.315066 317.16975 89.871188 
C 301.725871 74.427309 283.390058 62.17571 263.211658 53.817544 
C 243.033259 45.459377 221.404692 41.157187 199.56375 41.157187 
C 177.722808 41.157187 156.094241 45.459377 135.915842 53.817544 
C 115.737442 62.17571 97.401629 74.427309 81.95775 89.871188 
C 66.513872 105.315066 54.262273 123.650879 45.904106 143.829279 
C 37.545939 164.007679 33.24375 185.636245 33.24375 207.477187 
C 33.24375 229.31813 37.545939 250.946696 45.904106 271.125096 
C 54.262273 291.303496 66.513872 309.639309 81.95775 325.083187 
C 97.401629 340.527066 115.737442 352.778665 135.915842 361.136831 
C 156.094241 369.494998 177.722808 373.797188 199.56375 373.797188 
C 221.404692 373.797188 243.033259 369.494998 263.211658 361.136831 
C 283.390058 352.778665 301.725871 340.527066 317.16975 325.083187 
C 332.613628 309.639309 344.865227 291.303496 353.223394 271.125096 
C 361.581561 250.946696 365.88375 229.31813 365.88375 207.477188 
M 199.56375 207.477187 
C 199.56375 207.477187 199.56375 207.477187 199.56375 207.477187 
C 199.56375 207.477187 199.56375 207.477187 199.56375 207.477187 
C 199.56375 207.477187 199.56375 207.477187 199.56375 207.477187 
C 199.56375 207.477187 199.56375 207.477187 199.56375 207.477187 
C 199.56375 207.477187 199.56375 207.477187 199.56375 207.477187 
C 199.56375 207.477187 199.56375 207.477187 199.56375 207.477187 
C 199.56375 207.477187 199.56375 207.477187 199.56375 207.477187 
C 199.56375 207.477187 199.56375 207.477187 199.56375 207.477187 
C 199.56375 207.477187 199.56375 207.477187 199.56375 207.477187 
C 199.56375 207.477187 199.56375 207.477187 199.56375 207.477187 
C 199.56375 207.477187 199.56375 207.477187 199.56375 207.477187 
C 199.56375 207.477187 199.56375 207.477187 199.56375 207.477187 
C 199.56375 207.477187 199.56375 207.477187 199.56375 207.477187 
C 199.56375 207.477187 199.56375 207.477187 199.56375 207.477187 
C 199.56375 207.477187 199.56375 207.477187 199.56375 207.477187 
C 199.56375 207.477187 199.56375 207.477187 199.56375 207.477187 
M 365.88375 207.477187 
z
" style="fill: #ffffff"/>
   </g>
   <g id="matplotlib.axis_1">
    <g id="xtick_1">
     <g id="line2d_1">
      <path d="M 199.56375 207.477187 
L 365.88375 207.477187 
" clip-path="url(#pa0572cec04)" style="fill: none; stroke: #b0b0b0; stroke-width: 0.8; stroke-linecap: square"/>
     </g>
     <g id="text_1">
      <!-- 0° -->
      <g transform="translate(374.2025 210.236562)scale(0.1 -0.1)">
       <defs>
        <path id="DejaVuSans-30" d="M 2034 4250 
Q 1547 4250 1301 3770 
Q 1056 3291 1056 2328 
Q 1056 1369 1301 889 
Q 1547 409 2034 409 
Q 2525 409 2770 889 
Q 3016 1369 3016 2328 
Q 3016 3291 2770 3770 
Q 2525 4250 2034 4250 
z
M 2034 4750 
Q 2819 4750 3233 4129 
Q 3647 3509 3647 2328 
Q 3647 1150 3233 529 
Q 2819 -91 2034 -91 
Q 1250 -91 836 529 
Q 422 1150 422 2328 
Q 422 3509 836 4129 
Q 1250 4750 2034 4750 
z
" transform="scale(0.015625)"/>
        <path id="DejaVuSans-b0" d="M 1600 4347 
Q 1350 4347 1178 4173 
Q 1006 4000 1006 3750 
Q 1006 3503 1178 3333 
Q 1350 3163 1600 3163 
Q 1850 3163 2022 3333 
Q 2194 3503 2194 3750 
Q 2194 3997 2020 4172 
Q 1847 4347 1600 4347 
z
M 1600 4750 
Q 1800 4750 1984 4673 
Q 2169 4597 2303 4453 
Q 2447 4313 2519 4134 
Q 2591 3956 2591 3750 
Q 2591 3338 2302 3052 
Q 2013 2766 1594 2766 
Q 1172 2766 890 3047 
Q 609 3328 609 3750 
Q 609 4169 896 4459 
Q 1184 4750 1600 4750 
z
" transform="scale(0.015625)"/>
       </defs>
       <use xlink:href="#DejaVuSans-30"/>
       <use xlink:href="#DejaVuSans-b0" x="63.623047"/>
      </g>
     </g>
    </g>
    <g id="xtick_2">
     <g id="line2d_2">
      <path d="M 199.56375 207.477187 
L 317.16975 89.871188 
" clip-path="url(#pa0572cec04)" style="fill: none; stroke: #b0b0b0; stroke-width: 0.8; stroke-linecap: square"/>
     </g>
     <g id="text_2">
      <!-- 45° -->
      <g transform="translate(318.206745 82.731068)scale(0.1 -0.1)">
       <defs>
        <path id="DejaVuSans-34" d="M 2419 4116 
L 825 1625 
L 2419 1625 
L 2419 4116 
z
M 2253 4666 
L 3047 4666 
L 3047 1625 
L 3713 1625 
L 3713 1100 
L 3047 1100 
L 3047 0 
L 2419 0 
L 2419 1100 
L 313 1100 
L 313 1709 
L 2253 4666 
z
" transform="scale(0.015625)"/>
        <path id="DejaVuSans-35" d="M 691 4666 
L 3169 4666 
L 3169 4134 
L 1269 4134 
L 1269 2991 
Q 1406 3038 1543 3061 
Q 1681 3084 1819 3084 
Q 2600 3084 3056 2656 
Q 3513 2228 3513 1497 
Q 3513 744 3044 326 
Q 2575 -91 1722 -91 
Q 1428 -91 1123 -41 
Q 819 9 494 109 
L 494 744 
Q 775 591 1075 516 
Q 1375 441 1709 441 
Q 2250 441 2565 725 
Q 2881 1009 2881 1497 
Q 2881 1984 2565 2268 
Q 2250 2553 1709 2553 
Q 1456 2553 1204 2497 
Q 953 2441 691 2322 
L 691 4666 
z
" transform="scale(0.015625)"/>
       </defs>
       <use xlink:href="#DejaVuSans-34"/>
       <use xlink:href="#DejaVuSans-35" x="63.623047"/>
       <use xlink:href="#DejaVuSans-b0" x="127.246094"/>
      </g>
     </g>
    </g>
    <g id="xtick_3">
     <g id="line2d_3">
      <path d="M 199.56375 207.477187 
L 199.56375 41.157187 
" clip-path="url(#pa0572cec04)" style="fill: none; stroke: #b0b0b0; stroke-width: 0.8; stroke-linecap: square"/>
     </g>
     <g id="text_3">
      <!-- 90° -->
      <g transform="translate(190.70125 29.916562)scale(0.1 -0.1)">
       <defs>
        <path id="DejaVuSans-39" d="M 703 97 
L 703 672 
Q 941 559 1184 500 
Q 1428 441 1663 441 
Q 2288 441 2617 861 
Q 2947 1281 2994 2138 
Q 2813 1869 2534 1725 
Q 2256 1581 1919 1581 
Q 1219 1581 811 2004 
Q 403 2428 403 3163 
Q 403 3881 828 4315 
Q 1253 4750 1959 4750 
Q 2769 4750 3195 4129 
Q 3622 3509 3622 2328 
Q 3622 1225 3098 567 
Q 2575 -91 1691 -91 
Q 1453 -91 1209 -44 
Q 966 3 703 97 
z
M 1959 2075 
Q 2384 2075 2632 2365 
Q 2881 2656 2881 3163 
Q 2881 3666 2632 3958 
Q 2384 4250 1959 4250 
Q 1534 4250 1286 3958 
Q 1038 3666 1038 3163 
Q 1038 2656 1286 2365 
Q 1534 2075 1959 2075 
z
" transform="scale(0.015625)"/>
       </defs>
       <use xlink:href="#DejaVuSans-39"/>
       <use xlink:href="#DejaVuSans-30" x="63.623047"/>
       <use xlink:href="#DejaVuSans-b0" x="127.246094"/>
      </g>
     </g>
    </g>
    <g id="xtick_4">
     <g id="line2d_4">
      <path d="M 199.56375 207.477187 
L 81.95775 89.871188 
" clip-path="url(#pa0572cec04)" style="fill: none; stroke: #b0b0b0; stroke-width: 0.8; stroke-linecap: square"/>
     </g>
     <g id="text_4">
      <!-- 135° -->
      <g transform="translate(60.014505 82.731068)scale(0.1 -0.1)">
       <defs>
        <path id="DejaVuSans-31" d="M 794 531 
L 1825 531 
L 1825 4091 
L 703 3866 
L 703 4441 
L 1819 4666 
L 2450 4666 
L 2450 531 
L 3481 531 
L 3481 0 
L 794 0 
L 794 531 
z
" transform="scale(0.015625)"/>
        <path id="DejaVuSans-33" d="M 2597 2516 
Q 3050 2419 3304 2112 
Q 3559 1806 3559 1356 
Q 3559 666 3084 287 
Q 2609 -91 1734 -91 
Q 1441 -91 1130 -33 
Q 819 25 488 141 
L 488 750 
Q 750 597 1062 519 
Q 1375 441 1716 441 
Q 2309 441 2620 675 
Q 2931 909 2931 1356 
Q 2931 1769 2642 2001 
Q 2353 2234 1838 2234 
L 1294 2234 
L 1294 2753 
L 1863 2753 
Q 2328 2753 2575 2939 
Q 2822 3125 2822 3475 
Q 2822 3834 2567 4026 
Q 2313 4219 1838 4219 
Q 1578 4219 1281 4162 
Q 984 4106 628 3988 
L 628 4550 
Q 988 4650 1302 4700 
Q 1616 4750 1894 4750 
Q 2613 4750 3031 4423 
Q 3450 4097 3450 3541 
Q 3450 3153 3228 2886 
Q 3006 2619 2597 2516 
z
" transform="scale(0.015625)"/>
       </defs>
       <use xlink:href="#DejaVuSans-31"/>
       <use xlink:href="#DejaVuSans-33" x="63.623047"/>
       <use xlink:href="#DejaVuSans-35" x="127.246094"/>
       <use xlink:href="#DejaVuSans-b0" x="190.869141"/>
      </g>
     </g>
    </g>
    <g id="xtick_5">
     <g id="line2d_5">
      <path d="M 199.56375 207.477187 
L 33.24375 207.477187 
" clip-path="url(#pa0572cec04)" style="fill: none; stroke: #b0b0b0; stroke-width: 0.8; stroke-linecap: square"/>
     </g>
     <g id="text_5">
      <!-- 180° -->
      <g transform="translate(7.2 210.236562)scale(0.1 -0.1)">
       <defs>
        <path id="DejaVuSans-38" d="M 2034 2216 
Q 1584 2216 1326 1975 
Q 1069 1734 1069 1313 
Q 1069 891 1326 650 
Q 1584 409 2034 409 
Q 2484 409 2743 651 
Q 3003 894 3003 1313 
Q 3003 1734 2745 1975 
Q 2488 2216 2034 2216 
z
M 1403 2484 
Q 997 2584 770 2862 
Q 544 3141 544 3541 
Q 544 4100 942 4425 
Q 1341 4750 2034 4750 
Q 2731 4750 3128 4425 
Q 3525 4100 3525 3541 
Q 3525 3141 3298 2862 
Q 3072 2584 2669 2484 
Q 3125 2378 3379 2068 
Q 3634 1759 3634 1313 
Q 3634 634 3220 271 
Q 2806 -91 2034 -91 
Q 1263 -91 848 271 
Q 434 634 434 1313 
Q 434 1759 690 2068 
Q 947 2378 1403 2484 
z
M 1172 3481 
Q 1172 3119 1398 2916 
Q 1625 2713 2034 2713 
Q 2441 2713 2670 2916 
Q 2900 3119 2900 3481 
Q 2900 3844 2670 4047 
Q 2441 4250 2034 4250 
Q 1625 4250 1398 4047 
Q 1172 3844 1172 3481 
z
" transform="scale(0.015625)"/>
       </defs>
       <use xlink:href="#DejaVuSans-31"/>
       <use xlink:href="#DejaVuSans-38" x="63.623047"/>
       <use xlink:href="#DejaVuSans-30" x="127.246094"/>
       <use xlink:href="#DejaVuSans-b0" x="190.869141"/>
      </g>
     </g>
    </g>
    <g id="xtick_6">
     <g id="line2d_6">
      <path d="M 199.56375 207.477187 
L 81.95775 325.083187 
" clip-path="url(#pa0572cec04)" style="fill: none; stroke: #b0b0b0; stroke-width: 0.8; stroke-linecap: square"/>
     </g>
     <g id="text_6">
      <!-- 225° -->
      <g transform="translate(60.014505 337.742057)scale(0.1 -0.1)">
       <defs>
        <path id="DejaVuSans-32" d="M 1228 531 
L 3431 531 
L 3431 0 
L 469 0 
L 469 531 
Q 828 903 1448 1529 
Q 2069 2156 2228 2338 
Q 2531 2678 2651 2914 
Q 2772 3150 2772 3378 
Q 2772 3750 2511 3984 
Q 2250 4219 1831 4219 
Q 1534 4219 1204 4116 
Q 875 4013 500 3803 
L 500 4441 
Q 881 4594 1212 4672 
Q 1544 4750 1819 4750 
Q 2544 4750 2975 4387 
Q 3406 4025 3406 3419 
Q 3406 3131 3298 2873 
Q 3191 2616 2906 2266 
Q 2828 2175 2409 1742 
Q 1991 1309 1228 531 
z
" transform="scale(0.015625)"/>
       </defs>
       <use xlink:href="#DejaVuSans-32"/>
       <use xlink:href="#DejaVuSans-32" x="63.623047"/>
       <use xlink:href="#DejaVuSans-35" x="127.246094"/>
       <use xlink:href="#DejaVuSans-b0" x="190.869141"/>
      </g>
     </g>
    </g>
    <g id="xtick_7">
     <g id="line2d_7">
      <path d="M 199.56375 207.477187 
L 199.56375 373.797188 
" clip-path="url(#pa0572cec04)" style="fill: none; stroke: #b0b0b0; stroke-width: 0.8; stroke-linecap: square"/>
     </g>
     <g id="text_7">
      <!-- 270° -->
      <g transform="translate(187.52 390.556562)scale(0.1 -0.1)">
       <defs>
        <path id="DejaVuSans-37" d="M 525 4666 
L 3525 4666 
L 3525 4397 
L 1831 0 
L 1172 0 
L 2766 4134 
L 525 4134 
L 525 4666 
z
" transform="scale(0.015625)"/>
       </defs>
       <use xlink:href="#DejaVuSans-32"/>
       <use xlink:href="#DejaVuSans-37" x="63.623047"/>
       <use xlink:href="#DejaVuSans-30" x="127.246094"/>
       <use xlink:href="#DejaVuSans-b0" x="190.869141"/>
      </g>
     </g>
    </g>
    <g id="xtick_8">
     <g id="line2d_8">
      <path d="M 199.56375 207.477187 
L 317.16975 325.083187 
" clip-path="url(#pa0572cec04)" style="fill: none; stroke: #b0b0b0; stroke-width: 0.8; stroke-linecap: square"/>
     </g>
     <g id="text_8">
      <!-- 315° -->
      <g transform="translate(315.025495 337.742057)scale(0.1 -0.1)">
       <use xlink:href="#DejaVuSans-33"/>
       <use xlink:href="#DejaVuSans-31" x="63.623047"/>
       <use xlink:href="#DejaVuSans-35" x="127.246094"/>
       <use xlink:href="#DejaVuSans-b0" x="190.869141"/>
      </g>
     </g>
    </g>
   </g>
   <g id="matplotlib.axis_2">
    <g id="ytick_1">
     <g id="line2d_9">
      <path d="M 253.821493 207.477187 
C 253.821493 200.352126 252.418011 193.296347 249.691368 186.713648 
C 246.964725 180.13095 242.967947 174.149349 237.929768 169.111169 
C 232.891589 164.07299 226.909988 160.076212 220.327289 157.349569 
C 213.744591 154.622926 206.688812 153.219444 199.56375 153.219444 
C 192.438688 153.219444 185.382909 154.622926 178.800211 157.349569 
C 172.217512 160.076212 166.235911 164.07299 161.197732 169.111169 
C 156.159553 174.149349 152.162775 180.13095 149.436132 186.713648 
C 146.709489 193.296347 145.306007 200.352126 145.306007 207.477187 
C 145.306007 214.602249 146.709489 221.658028 149.436132 228.240727 
C 152.162775 234.823425 156.159553 240.805026 161.197732 245.843206 
C 166.235911 250.881385 172.217512 254.878163 178.800211 257.604806 
C 185.382909 260.331449 192.438688 261.734931 199.56375 261.734931 
C 206.688812 261.734931 213.744591 260.331449 220.327289 257.604806 
C 226.909988 254.878163 232.891589 250.881385 237.929768 245.843206 
C 242.967947 240.805026 246.964725 234.823425 249.691368 228.240727 
C 252.418011 221.658028 253.821493 214.602249 253.821493 207.477187 
" clip-path="url(#pa0572cec04)" style="fill: none; stroke: #b0b0b0; stroke-width: 0.8; stroke-linecap: square"/>
     </g>
     <g id="text_9">
      <!-- −30 -->
      <g transform="translate(249.691368 184.633961)scale(0.1 -0.1)">
       <defs>
        <path id="DejaVuSans-2212" d="M 678 2272 
L 4684 2272 
L 4684 1741 
L 678 1741 
L 678 2272 
z
" transform="scale(0.015625)"/>
       </defs>
       <use xlink:href="#DejaVuSans-2212"/>
       <use xlink:href="#DejaVuSans-33" x="83.789062"/>
       <use xlink:href="#DejaVuSans-30" x="147.412109"/>
      </g>
     </g>
    </g>
    <g id="ytick_2">
     <g id="line2d_10">
      <path d="M 265.027719 207.477187 
C 265.027719 198.880538 263.334366 190.36748 260.044571 182.425211 
C 256.754776 174.482943 251.932516 167.26592 245.853766 161.187171 
C 239.775017 155.108422 232.557995 150.286162 224.615726 146.996367 
C 216.673458 143.706571 208.1604 142.013219 199.56375 142.013219 
C 190.9671 142.013219 182.454042 143.706571 174.511774 146.996367 
C 166.569505 150.286162 159.352483 155.108422 153.273734 161.187171 
C 147.194984 167.26592 142.372724 174.482943 139.082929 182.425211 
C 135.793134 190.36748 134.099781 198.880538 134.099781 207.477187 
C 134.099781 216.073837 135.793134 224.586895 139.082929 232.529164 
C 142.372724 240.471432 147.194984 247.688455 153.273734 253.767204 
C 159.352483 259.845953 166.569505 264.668213 174.511774 267.958008 
C 182.454042 271.247804 190.9671 272.941156 199.56375 272.941156 
C 208.1604 272.941156 216.673458 271.247804 224.615726 267.958008 
C 232.557995 264.668213 239.775017 259.845953 245.853766 253.767204 
C 251.932516 247.688455 256.754776 240.471432 260.044571 232.529164 
C 263.334366 224.586895 265.027719 216.073837 265.027719 207.477188 
" clip-path="url(#pa0572cec04)" style="fill: none; stroke: #b0b0b0; stroke-width: 0.8; stroke-linecap: square"/>
     </g>
     <g id="text_10">
      <!-- −27 -->
      <g transform="translate(260.044571 180.345524)scale(0.1 -0.1)">
       <use xlink:href="#DejaVuSans-2212"/>
       <use xlink:href="#DejaVuSans-32" x="83.789062"/>
       <use xlink:href="#DejaVuSans-37" x="147.412109"/>
      </g>
     </g>
    </g>
    <g id="ytick_3">
     <g id="line2d_11">
      <path d="M 276.233945 207.477187 
C 276.233945 197.40895 274.250721 187.438613 270.397774 178.136774 
C 266.544826 168.834936 260.897084 160.382492 253.777764 153.263173 
C 246.658445 146.143854 238.206002 140.496112 228.904163 136.643164 
C 219.602324 132.790216 209.631988 130.806993 199.56375 130.806993 
C 189.495512 130.806993 179.525176 132.790216 170.223337 136.643164 
C 160.921498 140.496112 152.469055 146.143854 145.349736 153.263173 
C 138.230416 160.382492 132.582674 168.834936 128.729726 178.136774 
C 124.876779 187.438613 122.893555 197.40895 122.893555 207.477187 
C 122.893555 217.545425 124.876779 227.515762 128.729726 236.817601 
C 132.582674 246.119439 138.230416 254.571883 145.349736 261.691202 
C 152.469055 268.810521 160.921498 274.458263 170.223337 278.311211 
C 179.525176 282.164159 189.495512 284.147382 199.56375 284.147382 
C 209.631988 284.147382 219.602324 282.164159 228.904163 278.311211 
C 238.206002 274.458263 246.658445 268.810521 253.777764 261.691202 
C 260.897084 254.571883 266.544826 246.119439 270.397774 236.817601 
C 274.250721 227.515762 276.233945 217.545425 276.233945 207.477188 
" clip-path="url(#pa0572cec04)" style="fill: none; stroke: #b0b0b0; stroke-width: 0.8; stroke-linecap: square"/>
     </g>
     <g id="text_11">
      <!-- −24 -->
      <g transform="translate(270.397774 176.057087)scale(0.1 -0.1)">
       <use xlink:href="#DejaVuSans-2212"/>
       <use xlink:href="#DejaVuSans-32" x="83.789062"/>
       <use xlink:href="#DejaVuSans-34" x="147.412109"/>
      </g>
     </g>
    </g>
    <g id="ytick_4">
     <g id="line2d_12">
      <path d="M 287.44017 207.477187 
C 287.44017 195.937362 285.167076 184.509746 280.750976 173.848337 
C 276.334876 163.186929 269.861652 153.499064 261.701763 145.339175 
C 253.541874 137.179286 243.854009 130.706062 233.1926 126.289961 
C 222.531191 121.873861 211.103576 119.600767 199.56375 119.600767 
C 188.023924 119.600767 176.596309 121.873861 165.9349 126.289961 
C 155.273491 130.706062 145.585626 137.179286 137.425737 145.339175 
C 129.265848 153.499064 122.792624 163.186929 118.376524 173.848337 
C 113.960424 184.509746 111.68733 195.937362 111.68733 207.477187 
C 111.68733 219.017013 113.960424 230.444629 118.376524 241.106038 
C 122.792624 251.767446 129.265848 261.455311 137.425737 269.6152 
C 145.585626 277.775089 155.273491 284.248313 165.9349 288.664414 
C 176.596309 293.080514 188.023924 295.353608 199.56375 295.353608 
C 211.103576 295.353608 222.531191 293.080514 233.1926 288.664414 
C 243.854009 284.248313 253.541874 277.775089 261.701763 269.6152 
C 269.861652 261.455311 276.334876 251.767446 280.750976 241.106038 
C 285.167076 230.444629 287.44017 219.017013 287.44017 207.477188 
" clip-path="url(#pa0572cec04)" style="fill: none; stroke: #b0b0b0; stroke-width: 0.8; stroke-linecap: square"/>
     </g>
     <g id="text_12">
      <!-- −21 -->
      <g transform="translate(280.750976 171.76865)scale(0.1 -0.1)">
       <use xlink:href="#DejaVuSans-2212"/>
       <use xlink:href="#DejaVuSans-32" x="83.789062"/>
       <use xlink:href="#DejaVuSans-31" x="147.412109"/>
      </g>
     </g>
    </g>
    <g id="ytick_5">
     <g id="line2d_13">
      <path d="M 298.646396 207.477187 
C 298.646396 194.465774 296.083431 181.580879 291.104179 169.5599 
C 286.124926 157.538922 278.82622 146.615636 269.625761 137.415177 
C 260.425302 128.214718 249.502016 120.916011 237.481037 115.936759 
C 225.460058 110.957506 212.575164 108.394542 199.56375 108.394542 
C 186.552336 108.394542 173.667442 110.957506 161.646463 115.936759 
C 149.625484 120.916011 138.702198 128.214718 129.501739 137.415177 
C 120.30128 146.615636 113.002574 157.538922 108.023321 169.5599 
C 103.044069 181.580879 100.481104 194.465774 100.481104 207.477187 
C 100.481104 220.488601 103.044069 233.373496 108.023321 245.394475 
C 113.002574 257.415453 120.30128 268.338739 129.501739 277.539198 
C 138.702198 286.739657 149.625484 294.038364 161.646463 299.017616 
C 173.667442 303.996869 186.552336 306.559833 199.56375 306.559833 
C 212.575164 306.559833 225.460058 303.996869 237.481037 299.017616 
C 249.502016 294.038364 260.425302 286.739657 269.625761 277.539198 
C 278.82622 268.338739 286.124926 257.415453 291.104179 245.394475 
C 296.083431 233.373496 298.646396 220.488601 298.646396 207.477188 
" clip-path="url(#pa0572cec04)" style="fill: none; stroke: #b0b0b0; stroke-width: 0.8; stroke-linecap: square"/>
     </g>
     <g id="text_13">
      <!-- −18 -->
      <g transform="translate(291.104179 167.480213)scale(0.1 -0.1)">
       <use xlink:href="#DejaVuSans-2212"/>
       <use xlink:href="#DejaVuSans-31" x="83.789062"/>
       <use xlink:href="#DejaVuSans-38" x="147.412109"/>
      </g>
     </g>
    </g>
    <g id="ytick_6">
     <g id="line2d_14">
      <path d="M 309.852622 207.477187 
C 309.852622 192.994186 306.999786 178.652013 301.457381 165.271464 
C 295.914976 151.890915 287.790788 139.732207 277.549759 129.491179 
C 267.30873 119.25015 255.150023 111.125961 241.769474 105.583556 
C 228.388925 100.041151 214.046752 97.188316 199.56375 97.188316 
C 185.080748 97.188316 170.738575 100.041151 157.358026 105.583556 
C 143.977477 111.125961 131.81877 119.25015 121.577741 129.491179 
C 111.336712 139.732207 103.212524 151.890915 97.670119 165.271464 
C 92.127714 178.652013 89.274878 192.994186 89.274878 207.477187 
C 89.274878 221.960189 92.127714 236.302362 97.670119 249.682911 
C 103.212524 263.06346 111.336712 275.222168 121.577741 285.463196 
C 131.81877 295.704225 143.977477 303.828414 157.358026 309.370819 
C 170.738575 314.913224 185.080748 317.766059 199.56375 317.766059 
C 214.046752 317.766059 228.388925 314.913224 241.769474 309.370819 
C 255.150023 303.828414 267.30873 295.704225 277.549759 285.463196 
C 287.790788 275.222168 295.914976 263.06346 301.457381 249.682911 
C 306.999786 236.302362 309.852622 221.960189 309.852622 207.477188 
" clip-path="url(#pa0572cec04)" style="fill: none; stroke: #b0b0b0; stroke-width: 0.8; stroke-linecap: square"/>
     </g>
     <g id="text_14">
      <!-- −15 -->
      <g transform="translate(301.457381 163.191776)scale(0.1 -0.1)">
       <use xlink:href="#DejaVuSans-2212"/>
       <use xlink:href="#DejaVuSans-31" x="83.789062"/>
       <use xlink:href="#DejaVuSans-35" x="147.412109"/>
      </g>
     </g>
    </g>
    <g id="ytick_7">
     <g id="line2d_15">
      <path d="M 321.058847 207.477187 
C 321.058847 191.522598 317.916141 175.723146 311.810584 160.983027 
C 305.705026 146.242908 296.755356 132.848779 285.473757 121.56718 
C 274.192158 110.285582 260.79803 101.335911 246.057911 95.230354 
C 231.317792 89.124797 215.51834 85.98209 199.56375 85.98209 
C 183.60916 85.98209 167.809708 89.124797 153.069589 95.230354 
C 138.32947 101.335911 124.935342 110.285582 113.653743 121.56718 
C 102.372144 132.848779 93.422474 146.242908 87.316916 160.983027 
C 81.211359 175.723146 78.068653 191.522598 78.068653 207.477187 
C 78.068653 223.431777 81.211359 239.231229 87.316916 253.971348 
C 93.422474 268.711467 102.372144 282.105596 113.653743 293.387195 
C 124.935342 304.668793 138.32947 313.618464 153.069589 319.724021 
C 167.809708 325.829578 183.60916 328.972285 199.56375 328.972285 
C 215.51834 328.972285 231.317792 325.829578 246.057911 319.724021 
C 260.79803 313.618464 274.192158 304.668793 285.473757 293.387195 
C 296.755356 282.105596 305.705026 268.711467 311.810584 253.971348 
C 317.916141 239.231229 321.058847 223.431777 321.058847 207.477188 
" clip-path="url(#pa0572cec04)" style="fill: none; stroke: #b0b0b0; stroke-width: 0.8; stroke-linecap: square"/>
     </g>
     <g id="text_15">
      <!-- −12 -->
      <g transform="translate(311.810584 158.903339)scale(0.1 -0.1)">
       <use xlink:href="#DejaVuSans-2212"/>
       <use xlink:href="#DejaVuSans-31" x="83.789062"/>
       <use xlink:href="#DejaVuSans-32" x="147.412109"/>
      </g>
     </g>
    </g>
    <g id="ytick_8">
     <g id="line2d_16">
      <path d="M 332.265073 207.477187 
C 332.265073 190.051009 328.832496 172.794279 322.163786 156.69459 
C 315.495077 140.594901 305.719924 125.965351 293.397755 113.643182 
C 281.075587 101.321013 266.446037 91.545861 250.346348 84.877151 
C 234.246659 78.208442 216.989928 74.775865 199.56375 74.775865 
C 182.137572 74.775865 164.880841 78.208442 148.781152 84.877151 
C 132.681463 91.545861 118.051913 101.321013 105.729745 113.643182 
C 93.407576 125.965351 83.632423 140.594901 76.963714 156.69459 
C 70.295004 172.794279 66.862427 190.051009 66.862427 207.477187 
C 66.862427 224.903366 70.295004 242.160096 76.963714 258.259785 
C 83.632423 274.359474 93.407576 288.989024 105.729745 301.311193 
C 118.051913 313.633362 132.681463 323.408514 148.781152 330.077224 
C 164.880841 336.745933 182.137572 340.17851 199.56375 340.17851 
C 216.989928 340.17851 234.246659 336.745933 250.346348 330.077224 
C 266.446037 323.408514 281.075587 313.633362 293.397755 301.311193 
C 305.719924 288.989024 315.495077 274.359474 322.163786 258.259785 
C 328.832496 242.160096 332.265073 224.903366 332.265073 207.477188 
" clip-path="url(#pa0572cec04)" style="fill: none; stroke: #b0b0b0; stroke-width: 0.8; stroke-linecap: square"/>
     </g>
     <g id="text_16">
      <!-- −9 -->
      <g transform="translate(322.163786 154.614902)scale(0.1 -0.1)">
       <use xlink:href="#DejaVuSans-2212"/>
       <use xlink:href="#DejaVuSans-39" x="83.789062"/>
      </g>
     </g>
    </g>
    <g id="ytick_9">
     <g id="line2d_17">
      <path d="M 343.471299 207.477187 
C 343.471299 188.579421 339.748851 169.865412 332.516989 152.406153 
C 325.285127 134.946893 314.684492 119.081923 301.321754 105.719184 
C 287.959015 92.356445 272.094044 81.755811 254.634785 74.523949 
C 237.175525 67.292087 218.461516 63.569639 199.56375 63.569639 
C 180.665984 63.569639 161.951975 67.292087 144.492715 74.523949 
C 127.033456 81.755811 111.168485 92.356445 97.805746 105.719184 
C 84.443008 119.081923 73.842373 134.946893 66.610511 152.406153 
C 59.378649 169.865412 55.656201 188.579421 55.656201 207.477187 
C 55.656201 226.374954 59.378649 245.088963 66.610511 262.548222 
C 73.842373 280.007482 84.443008 295.872452 97.805746 309.235191 
C 111.168485 322.59793 127.033456 333.198564 144.492715 340.430426 
C 161.951975 347.662288 180.665984 351.384736 199.56375 351.384736 
C 218.461516 351.384736 237.175525 347.662288 254.634785 340.430426 
C 272.094044 333.198564 287.959015 322.59793 301.321754 309.235191 
C 314.684492 295.872452 325.285127 280.007482 332.516989 262.548222 
C 339.748851 245.088963 343.471299 226.374954 343.471299 207.477188 
" clip-path="url(#pa0572cec04)" style="fill: none; stroke: #b0b0b0; stroke-width: 0.8; stroke-linecap: square"/>
     </g>
     <g id="text_17">
      <!-- −6 -->
      <g transform="translate(332.516989 150.326465)scale(0.1 -0.1)">
       <defs>
        <path id="DejaVuSans-36" d="M 2113 2584 
Q 1688 2584 1439 2293 
Q 1191 2003 1191 1497 
Q 1191 994 1439 701 
Q 1688 409 2113 409 
Q 2538 409 2786 701 
Q 3034 994 3034 1497 
Q 3034 2003 2786 2293 
Q 2538 2584 2113 2584 
z
M 3366 4563 
L 3366 3988 
Q 3128 4100 2886 4159 
Q 2644 4219 2406 4219 
Q 1781 4219 1451 3797 
Q 1122 3375 1075 2522 
Q 1259 2794 1537 2939 
Q 1816 3084 2150 3084 
Q 2853 3084 3261 2657 
Q 3669 2231 3669 1497 
Q 3669 778 3244 343 
Q 2819 -91 2113 -91 
Q 1303 -91 875 529 
Q 447 1150 447 2328 
Q 447 3434 972 4092 
Q 1497 4750 2381 4750 
Q 2619 4750 2861 4703 
Q 3103 4656 3366 4563 
z
" transform="scale(0.015625)"/>
       </defs>
       <use xlink:href="#DejaVuSans-2212"/>
       <use xlink:href="#DejaVuSans-36" x="83.789062"/>
      </g>
     </g>
    </g>
    <g id="ytick_10">
     <g id="line2d_18">
      <path d="M 354.677524 207.477187 
C 354.677524 187.107833 350.665206 166.936545 342.870191 148.117716 
C 335.075177 129.298886 323.64906 112.198494 309.245752 97.795186 
C 294.842443 83.391877 277.742051 71.965761 258.923222 64.170746 
C 240.104392 56.375732 219.933104 52.363413 199.56375 52.363413 
C 179.194396 52.363413 159.023108 56.375732 140.204278 64.170746 
C 121.385449 71.965761 104.285057 83.391877 89.881748 97.795186 
C 75.47844 112.198494 64.052323 129.298886 56.257309 148.117716 
C 48.462294 166.936545 44.449976 187.107833 44.449976 207.477187 
C 44.449976 227.846542 48.462294 248.01783 56.257309 266.836659 
C 64.052323 285.655489 75.47844 302.755881 89.881748 317.159189 
C 104.285057 331.562498 121.385449 342.988614 140.204278 350.783629 
C 159.023108 358.578643 179.194396 362.590962 199.56375 362.590962 
C 219.933104 362.590962 240.104392 358.578643 258.923222 350.783629 
C 277.742051 342.988614 294.842443 331.562498 309.245752 317.159189 
C 323.64906 302.755881 335.075177 285.655489 342.870191 266.836659 
C 350.665206 248.01783 354.677524 227.846542 354.677524 207.477188 
" clip-path="url(#pa0572cec04)" style="fill: none; stroke: #b0b0b0; stroke-width: 0.8; stroke-linecap: square"/>
     </g>
     <g id="text_18">
      <!-- −3 -->
      <g transform="translate(342.870191 146.038028)scale(0.1 -0.1)">
       <use xlink:href="#DejaVuSans-2212"/>
       <use xlink:href="#DejaVuSans-33" x="83.789062"/>
      </g>
     </g>
    </g>
   </g>
   <g id="line2d_19">
    <path d="M 326.071766 207.477187 
L 326.616459 205.259474 
L 327.67461 203.003458 
L 328.949767 200.696354 
L 330.443843 198.32516 
L 332.936927 191.101021 
L 333.418709 188.6651 
L 334.751721 183.639901 
L 335.67013 176.054554 
L 335.78882 168.415277 
L 335.536444 165.906163 
L 335.461659 163.32128 
L 335.122417 160.800595 
L 332.684883 148.20784 
L 331.924748 145.756241 
L 322.093851 121.680687 
L 317.238768 112.185837 
L 314.512421 107.553832 
L 313.020278 105.320471 
L 309.780938 101.041686 
L 307.940933 99.100004 
L 304.049295 95.430158 
L 302.032901 93.673666 
L 299.906166 92.046442 
L 295.795408 88.640986 
L 289.235536 84.054562 
L 284.98423 80.836118 
L 282.919716 79.120256 
L 278.920336 75.40565 
L 276.861026 73.594378 
L 272.814905 69.711802 
L 270.718229 67.82866 
L 268.749975 65.624405 
L 266.563709 63.795312 
L 264.299638 62.078003 
L 261.927357 60.557736 
L 259.446115 59.263132 
L 256.901172 58.108097 
L 251.594963 56.367573 
L 248.843616 55.809355 
L 243.179661 55.370428 
L 240.260255 55.595762 
L 234.398777 56.590106 
L 228.485167 58.689396 
L 225.611625 59.752346 
L 222.699348 61.404769 
L 219.896973 62.798791 
L 217.1827 63.982357 
L 214.506228 65.309006 
L 211.945292 65.95552 
L 209.42661 66.431723 
L 206.915824 67.191265 
L 197.133576 68.252637 
L 194.720569 68.786628 
L 192.356148 69.947949 
L 190.040412 71.287104 
L 187.820962 73.256503 
L 183.68242 78.134134 
L 181.838187 81.353255 
L 178.59478 88.556248 
L 175.554103 103.479979 
L 174.886813 108.503399 
L 174.045924 112.243366 
L 173.179528 115.46447 
L 172.111753 117.685752 
L 170.621579 118.402344 
L 168.780762 118.076898 
L 166.645176 117.034149 
L 162.758783 116.381698 
L 160.631604 115.7588 
L 158.553681 115.367065 
L 156.235676 114.559833 
L 153.99512 114.047651 
L 147.662937 113.845643 
L 142.939703 113.238947 
L 141.087881 113.896235 
L 139.595813 115.134663 
L 138.674301 117.204867 
L 137.553754 118.917736 
L 136.202055 120.267296 
L 134.572786 121.231265 
L 130.965379 122.765254 
L 129.456581 123.926717 
L 128.349742 125.554843 
L 127.48573 127.426437 
L 124.792993 130.049803 
L 123.437239 131.350677 
L 122.173983 132.742759 
L 121.225695 134.425769 
L 117.881033 136.471485 
L 116.036172 137.389227 
L 113.829975 138.051346 
L 112.572514 139.512185 
L 112.282646 141.706158 
L 115.001918 150.439511 
L 117.083208 153.913697 
L 118.793405 157.006275 
L 119.919633 159.622174 
L 120.028246 161.557343 
L 118.709684 162.659047 
L 113.978712 161.970816 
L 105.948572 159.777872 
L 101.078025 159.44249 
L 97.018233 159.659428 
L 93.581955 160.291052 
L 90.732139 161.280909 
L 87.583896 162.23439 
L 84.9038 163.463356 
L 83.458109 165.21819 
L 82.702952 167.238788 
L 82.441251 169.421781 
L 82.648684 171.732665 
L 83.723113 174.260419 
L 85.297055 176.859519 
L 86.614079 179.315671 
L 88.84407 181.915535 
L 93.534264 186.867143 
L 96.405866 189.287669 
L 97.838154 191.365436 
L 97.864684 193.184316 
L 97.189528 194.907214 
L 95.393472 203.839481 
L 94.452155 207.477187 
L 94.669845 209.308117 
L 95.139619 211.123759 
L 96.06594 212.901278 
L 97.420954 214.619708 
L 99.521586 219.760821 
L 100.613082 221.383797 
L 101.900205 222.945573 
L 103.012738 224.501736 
L 103.214559 226.205573 
L 103.607242 227.873373 
L 106.570306 230.663057 
L 106.494805 232.414936 
L 105.568963 234.429759 
L 104.856983 236.431952 
L 105.351869 238.088483 
L 106.797561 239.419148 
L 108.948715 240.458363 
L 111.714195 241.199472 
L 112.4685 242.665953 
L 110.950294 245.091368 
L 106.450363 248.933939 
L 104.222428 251.935576 
L 103.700126 254.233001 
L 105.558484 257.460674 
L 106.311184 259.167929 
L 108.536985 262.171586 
L 109.008052 264.062668 
L 108.703029 266.48283 
L 109.204719 268.425123 
L 110.175074 270.067812 
L 111.791765 271.247267 
L 112.992655 272.713187 
L 113.838237 274.453299 
L 114.155106 276.639743 
L 114.26491 279.051413 
L 113.559278 282.239734 
L 113.544708 284.929081 
L 114.06264 287.208262 
L 114.738977 289.391519 
L 115.259673 291.781264 
L 115.547604 294.478453 
L 115.043295 298.114279 
L 115.403262 300.946879 
L 115.914522 307.166456 
L 116.910132 309.545905 
L 118.535375 315.005473 
L 119.651486 317.466983 
L 120.629812 320.206533 
L 121.834283 322.715862 
L 123.350736 324.834938 
L 124.820638 327.091171 
L 126.400126 329.241905 
L 129.962594 333.040996 
L 132.029553 334.490539 
L 134.175127 335.809585 
L 136.414971 336.951373 
L 138.827882 337.725677 
L 143.706774 339.067977 
L 148.301125 341.020891 
L 150.660033 341.839045 
L 153.11579 342.371858 
L 155.666407 342.579317 
L 160.835436 342.538869 
L 163.503026 342.057641 
L 168.778052 340.824697 
L 181.59125 335.358171 
L 184.044329 333.872726 
L 188.954895 328.736952 
L 191.260395 326.220691 
L 193.506643 323.053674 
L 195.59518 321.122157 
L 197.605826 319.64656 
L 199.56375 318.543024 
L 201.510265 318.992963 
L 203.492298 319.976085 
L 207.700862 323.843306 
L 212.576201 331.282393 
L 217.731201 336.745317 
L 220.32281 338.544737 
L 222.879525 339.707516 
L 228.457877 343.413366 
L 231.33006 345.072193 
L 234.44772 347.38915 
L 237.496189 349.042976 
L 240.564431 350.463556 
L 243.896766 352.483947 
L 247.078684 353.713118 
L 250.258436 354.705246 
L 253.584195 355.89714 
L 263.071637 357.092393 
L 269.293198 357.012471 
L 272.236202 356.477796 
L 274.952741 355.436413 
L 277.605926 354.253173 
L 280.195475 352.94067 
L 282.72375 351.514533 
L 285.14408 349.906774 
L 289.733087 346.32579 
L 291.944158 344.436775 
L 296.533771 340.944971 
L 300.916481 337.202768 
L 302.993462 335.202245 
L 304.973915 333.10013 
L 309.016437 329.036712 
L 310.629598 326.580727 
L 312.019264 323.928281 
L 313.85716 317.84905 
L 315.222358 315.330584 
L 316.468007 312.738253 
L 317.599389 310.084003 
L 318.822741 307.547363 
L 320.220106 305.182778 
L 322.104144 303.216236 
L 326.570478 299.752977 
L 328.449196 297.723749 
L 330.125361 295.542106 
L 331.62989 293.241941 
L 332.941851 290.821075 
L 333.902211 288.195878 
L 334.680447 282.373596 
L 334.732023 273.403159 
L 334.193193 267.418077 
L 334.163193 264.611261 
L 333.619383 261.639179 
L 333.212072 258.779972 
L 332.94277 256.023181 
L 332.80196 253.354782 
L 333.518157 248.43116 
L 333.720574 245.946038 
L 333.709211 240.923407 
L 333.184235 238.325907 
L 332.48539 233.314537 
L 331.772007 230.78907 
L 331.251122 228.334418 
L 330.344793 225.857264 
L 329.192286 223.39357 
L 327.54027 218.673682 
L 327.075259 216.393661 
L 326.775009 214.144047 
L 326.326949 211.903856 
L 326.052498 209.685057 
L 326.052498 209.685057 
" clip-path="url(#pa0572cec04)" style="fill: none; stroke: #ff0000; stroke-width: 1.5; stroke-linecap: square"/>
   </g>
   <g id="line2d_20">
    <path d="M 340.539003 207.477187 
L 341.330598 200.047502 
L 341.684529 195.04323 
L 341.861037 190.005278 
L 341.824998 184.945219 
L 341.553334 179.877208 
L 341.027725 174.817656 
L 340.234723 169.784514 
L 339.158644 164.798746 
L 337.796064 159.879985 
L 336.141408 155.049937 
L 334.190701 150.331437 
L 331.951831 145.743611 
L 329.430482 141.306783 
L 326.640208 137.037557 
L 323.595391 132.951459 
L 320.329962 129.050692 
L 316.885957 125.327294 
L 313.312069 121.761681 
L 300.814326 109.700643 
L 297.521933 106.03852 
L 294.399501 102.151416 
L 291.400642 98.030242 
L 282.262506 84.87124 
L 278.877447 80.54874 
L 275.226785 76.424967 
L 271.286934 72.585498 
L 269.206387 70.795816 
L 267.052875 69.103976 
L 264.828139 67.517254 
L 262.534316 66.042981 
L 260.174332 64.687604 
L 257.751441 63.4576 
L 255.26937 62.359086 
L 252.732199 61.398075 
L 250.144327 60.580527 
L 247.510493 59.912285 
L 244.835679 59.399381 
L 242.125126 59.048028 
L 239.384532 58.864004 
L 236.619527 58.854582 
L 233.836291 59.026502 
L 231.041742 59.38488 
L 228.241407 59.943434 
L 225.443626 60.705119 
L 222.654938 61.685165 
L 219.884496 62.887569 
L 217.139908 64.330868 
L 214.43126 66.022275 
L 211.768186 67.97985 
L 209.161611 70.221379 
L 206.623948 72.760587 
L 204.168496 75.614529 
L 201.809691 78.807293 
L 199.56375 82.340067 
L 197.447149 86.217215 
L 195.475506 90.405202 
L 193.657762 94.784215 
L 190.441413 103.208396 
L 188.927617 106.281141 
L 187.331558 107.853979 
L 185.547968 107.749718 
L 183.552506 106.386171 
L 176.714951 99.982039 
L 174.338211 98.213376 
L 171.965225 96.785549 
L 169.631539 95.768655 
L 167.346741 95.123125 
L 165.13961 94.880898 
L 163.015865 94.994364 
L 161.002394 95.486877 
L 159.113813 96.341899 
L 157.369145 97.556484 
L 155.793025 99.140841 
L 154.405205 101.090323 
L 153.239074 103.430261 
L 152.345878 106.218134 
L 151.748477 109.441349 
L 151.554096 113.252936 
L 151.810929 117.667194 
L 152.659381 122.859466 
L 154.252777 128.996281 
L 156.795469 136.298815 
L 160.29067 144.627122 
L 163.5128 151.963592 
L 162.445004 152.446383 
L 156.583815 146.095479 
L 149.722671 138.876828 
L 143.407524 132.955358 
L 137.745972 128.35404 
L 132.636775 124.829257 
L 127.939102 122.118256 
L 123.61754 120.111067 
L 119.572388 118.63778 
L 115.769345 117.618689 
L 112.176916 116.985472 
L 108.77256 116.685997 
L 105.535906 116.675554 
L 102.454776 116.921604 
L 99.52061 117.39794 
L 96.720503 118.076917 
L 94.054213 118.944174 
L 91.51494 119.980986 
L 89.094822 121.169402 
L 86.796913 122.501281 
L 84.611816 123.959719 
L 82.54447 125.539406 
L 80.590342 127.228611 
L 78.744281 129.016107 
L 77.013211 130.899111 
L 75.388024 132.864884 
L 73.871856 134.908938 
L 72.464423 137.02488 
L 71.165167 139.20645 
L 69.973265 141.447537 
L 68.887629 143.742185 
L 67.910307 146.086179 
L 67.036386 148.472203 
L 65.608556 153.355776 
L 64.601659 158.355004 
L 64.017547 163.435556 
L 63.852151 168.562513 
L 64.106238 173.703837 
L 64.778512 178.827701 
L 65.861958 183.901954 
L 67.351172 188.895921 
L 69.2351 193.779094 
L 71.489568 198.521368 
L 74.077282 203.095103 
L 76.940559 207.477187 
L 79.975633 211.653297 
L 87.223592 221.270825 
L 88.406198 223.099363 
L 90.269862 226.748649 
L 90.916184 228.596135 
L 91.410921 230.465781 
L 91.71941 232.375015 
L 91.968483 236.307252 
L 91.812969 242.487538 
L 91.696397 246.737693 
L 91.816183 251.01003 
L 92.007808 253.131976 
L 92.705195 257.30615 
L 93.221796 259.343624 
L 93.863611 261.334098 
L 94.638243 263.267069 
L 95.546215 265.135049 
L 96.594206 266.926682 
L 97.788307 268.630043 
L 99.134001 270.23266 
L 100.639261 271.719502 
L 102.323643 273.066468 
L 104.156315 274.282193 
L 106.182916 275.322335 
L 108.42533 276.154913 
L 110.87409 276.769144 
L 113.577418 277.107546 
L 116.55124 277.132954 
L 119.865714 276.757634 
L 123.585317 275.888476 
L 127.795926 274.401766 
L 132.65608 272.089174 
L 138.495477 268.54546 
L 145.850062 263.09934 
L 156.076562 254.111487 
L 173.943494 235.931364 
L 194.367762 213.454487 
L 164.387411 249.398716 
L 152.712341 265.33386 
L 145.979067 276.062455 
L 141.586624 284.415433 
L 138.568931 291.429353 
L 136.508194 297.529855 
L 135.144205 302.98309 
L 134.310314 307.958667 
L 133.924197 312.52243 
L 133.905173 316.75141 
L 134.197369 320.695081 
L 134.761644 324.383282 
L 135.563194 327.844726 
L 136.579828 331.090094 
L 137.788829 334.134545 
L 139.172028 336.987653 
L 140.713737 339.65648 
L 142.399026 342.148838 
L 144.216544 344.466329 
L 146.155268 346.61104 
L 148.204515 348.585527 
L 150.355175 350.389267 
L 152.599419 352.018535 
L 154.927014 353.477373 
L 157.330513 354.761989 
L 159.801942 355.870275 
L 162.333563 356.799312 
L 164.917534 357.546435 
L 167.546307 358.107412 
L 170.212331 358.477146 
L 172.907639 358.651508 
L 175.624383 358.624402 
L 178.354341 358.389972 
L 181.089147 357.940758 
L 183.820055 357.268438 
L 186.537595 356.366819 
L 189.232127 355.226283 
L 191.893213 353.839752 
L 194.510031 352.196757 
L 197.070862 350.294654 
L 199.56375 348.134931 
L 201.976974 345.73068 
L 204.300033 343.106578 
L 208.657931 337.53004 
L 210.711736 334.89925 
L 212.727308 332.720077 
L 214.769516 331.318214 
L 216.917607 330.956295 
L 219.234757 331.675038 
L 221.748284 333.291934 
L 227.291371 337.925387 
L 230.251135 340.398856 
L 233.29011 342.746228 
L 236.384375 344.893629 
L 239.512162 346.793855 
L 242.659385 348.436657 
L 245.81472 349.823037 
L 248.968487 350.958962 
L 252.112545 351.853814 
L 255.240268 352.519475 
L 258.346119 352.968656 
L 261.424983 353.213121 
L 264.472841 353.265393 
L 267.484063 353.132768 
L 270.454607 352.824985 
L 273.384089 352.357761 
L 276.266124 351.733371 
L 279.098032 350.960831 
L 281.87768 350.049096 
L 284.601546 349.003847 
L 287.268399 347.833965 
L 289.873464 346.541951 
L 292.418319 345.139747 
L 294.898849 343.629819 
L 297.311019 342.014762 
L 299.657625 340.306246 
L 304.138287 336.615986 
L 308.331496 332.600166 
L 312.229454 328.296364 
L 315.820029 323.733466 
L 319.104395 318.950642 
L 322.073378 313.973182 
L 324.734205 308.838223 
L 327.082659 303.569578 
L 329.123285 298.195751 
L 330.864552 292.744925 
L 332.316837 287.24329 
L 333.495157 281.716579 
L 334.419564 276.189657 
L 335.120594 270.688382 
L 335.627978 265.233026 
L 336.126463 257.18195 
L 337.096631 236.710704 
L 337.733432 229.361115 
L 338.589088 222.089339 
L 340.226214 209.93246 
L 340.226214 209.93246 
" clip-path="url(#pa0572cec04)" style="fill: none; stroke-dasharray: 5.55,2.4; stroke-dashoffset: 0; stroke: #0000ff; stroke-width: 1.5"/>
   </g>
   <g id="patch_3">
    <path d="M 365.88375 207.477187 
C 365.88375 185.636245 361.581561 164.007679 353.223394 143.829279 
C 344.865227 123.650879 332.613628 105.315066 317.16975 89.871188 
C 301.725871 74.427309 283.390058 62.17571 263.211658 53.817544 
C 243.033259 45.459377 221.404692 41.157187 199.56375 41.157187 
C 177.722808 41.157187 156.094241 45.459377 135.915842 53.817544 
C 115.737442 62.17571 97.401629 74.427309 81.95775 89.871188 
C 66.513872 105.315066 54.262273 123.650879 45.904106 143.829279 
C 37.545939 164.007679 33.24375 185.636245 33.24375 207.477187 
C 33.24375 229.31813 37.545939 250.946696 45.904106 271.125096 
C 54.262273 291.303496 66.513872 309.639309 81.95775 325.083187 
C 97.401629 340.527066 115.737442 352.778665 135.915842 361.136831 
C 156.094241 369.494998 177.722808 373.797188 199.56375 373.797188 
C 221.404692 373.797188 243.033259 369.494998 263.211658 361.136831 
C 283.390058 352.778665 301.725871 340.527066 317.16975 325.083187 
C 332.613628 309.639309 344.865227 291.303496 353.223394 271.125096 
C 361.581561 250.946696 365.88375 229.31813 365.88375 207.477188 
" style="fill: none; stroke: #000000; stroke-width: 0.8; stroke-linejoin: miter; stroke-linecap: square"/>
   </g>
   <g id="text_19">
    <!-- Radiation Diagram - 1AVVF12 -->
    <g transform="translate(110.727187 16.318125)scale(0.12 -0.12)">
     <defs>
      <path id="DejaVuSans-52" d="M 2841 2188 
Q 3044 2119 3236 1894 
Q 3428 1669 3622 1275 
L 4263 0 
L 3584 0 
L 2988 1197 
Q 2756 1666 2539 1819 
Q 2322 1972 1947 1972 
L 1259 1972 
L 1259 0 
L 628 0 
L 628 4666 
L 2053 4666 
Q 2853 4666 3247 4331 
Q 3641 3997 3641 3322 
Q 3641 2881 3436 2590 
Q 3231 2300 2841 2188 
z
M 1259 4147 
L 1259 2491 
L 2053 2491 
Q 2509 2491 2742 2702 
Q 2975 2913 2975 3322 
Q 2975 3731 2742 3939 
Q 2509 4147 2053 4147 
L 1259 4147 
z
" transform="scale(0.015625)"/>
      <path id="DejaVuSans-61" d="M 2194 1759 
Q 1497 1759 1228 1600 
Q 959 1441 959 1056 
Q 959 750 1161 570 
Q 1363 391 1709 391 
Q 2188 391 2477 730 
Q 2766 1069 2766 1631 
L 2766 1759 
L 2194 1759 
z
M 3341 1997 
L 3341 0 
L 2766 0 
L 2766 531 
Q 2569 213 2275 61 
Q 1981 -91 1556 -91 
Q 1019 -91 701 211 
Q 384 513 384 1019 
Q 384 1609 779 1909 
Q 1175 2209 1959 2209 
L 2766 2209 
L 2766 2266 
Q 2766 2663 2505 2880 
Q 2244 3097 1772 3097 
Q 1472 3097 1187 3025 
Q 903 2953 641 2809 
L 641 3341 
Q 956 3463 1253 3523 
Q 1550 3584 1831 3584 
Q 2591 3584 2966 3190 
Q 3341 2797 3341 1997 
z
" transform="scale(0.015625)"/>
      <path id="DejaVuSans-64" d="M 2906 2969 
L 2906 4863 
L 3481 4863 
L 3481 0 
L 2906 0 
L 2906 525 
Q 2725 213 2448 61 
Q 2172 -91 1784 -91 
Q 1150 -91 751 415 
Q 353 922 353 1747 
Q 353 2572 751 3078 
Q 1150 3584 1784 3584 
Q 2172 3584 2448 3432 
Q 2725 3281 2906 2969 
z
M 947 1747 
Q 947 1113 1208 752 
Q 1469 391 1925 391 
Q 2381 391 2643 752 
Q 2906 1113 2906 1747 
Q 2906 2381 2643 2742 
Q 2381 3103 1925 3103 
Q 1469 3103 1208 2742 
Q 947 2381 947 1747 
z
" transform="scale(0.015625)"/>
      <path id="DejaVuSans-69" d="M 603 3500 
L 1178 3500 
L 1178 0 
L 603 0 
L 603 3500 
z
M 603 4863 
L 1178 4863 
L 1178 4134 
L 603 4134 
L 603 4863 
z
" transform="scale(0.015625)"/>
      <path id="DejaVuSans-74" d="M 1172 4494 
L 1172 3500 
L 2356 3500 
L 2356 3053 
L 1172 3053 
L 1172 1153 
Q 1172 725 1289 603 
Q 1406 481 1766 481 
L 2356 481 
L 2356 0 
L 1766 0 
Q 1100 0 847 248 
Q 594 497 594 1153 
L 594 3053 
L 172 3053 
L 172 3500 
L 594 3500 
L 594 4494 
L 1172 4494 
z
" transform="scale(0.015625)"/>
      <path id="DejaVuSans-6f" d="M 1959 3097 
Q 1497 3097 1228 2736 
Q 959 2375 959 1747 
Q 959 1119 1226 758 
Q 1494 397 1959 397 
Q 2419 397 2687 759 
Q 2956 1122 2956 1747 
Q 2956 2369 2687 2733 
Q 2419 3097 1959 3097 
z
M 1959 3584 
Q 2709 3584 3137 3096 
Q 3566 2609 3566 1747 
Q 3566 888 3137 398 
Q 2709 -91 1959 -91 
Q 1206 -91 779 398 
Q 353 888 353 1747 
Q 353 2609 779 3096 
Q 1206 3584 1959 3584 
z
" transform="scale(0.015625)"/>
      <path id="DejaVuSans-6e" d="M 3513 2113 
L 3513 0 
L 2938 0 
L 2938 2094 
Q 2938 2591 2744 2837 
Q 2550 3084 2163 3084 
Q 1697 3084 1428 2787 
Q 1159 2491 1159 1978 
L 1159 0 
L 581 0 
L 581 3500 
L 1159 3500 
L 1159 2956 
Q 1366 3272 1645 3428 
Q 1925 3584 2291 3584 
Q 2894 3584 3203 3211 
Q 3513 2838 3513 2113 
z
" transform="scale(0.015625)"/>
      <path id="DejaVuSans-20" transform="scale(0.015625)"/>
      <path id="DejaVuSans-44" d="M 1259 4147 
L 1259 519 
L 2022 519 
Q 2988 519 3436 956 
Q 3884 1394 3884 2338 
Q 3884 3275 3436 3711 
Q 2988 4147 2022 4147 
L 1259 4147 
z
M 628 4666 
L 1925 4666 
Q 3281 4666 3915 4102 
Q 4550 3538 4550 2338 
Q 4550 1131 3912 565 
Q 3275 0 1925 0 
L 628 0 
L 628 4666 
z
" transform="scale(0.015625)"/>
      <path id="DejaVuSans-67" d="M 2906 1791 
Q 2906 2416 2648 2759 
Q 2391 3103 1925 3103 
Q 1463 3103 1205 2759 
Q 947 2416 947 1791 
Q 947 1169 1205 825 
Q 1463 481 1925 481 
Q 2391 481 2648 825 
Q 2906 1169 2906 1791 
z
M 3481 434 
Q 3481 -459 3084 -895 
Q 2688 -1331 1869 -1331 
Q 1566 -1331 1297 -1286 
Q 1028 -1241 775 -1147 
L 775 -588 
Q 1028 -725 1275 -790 
Q 1522 -856 1778 -856 
Q 2344 -856 2625 -561 
Q 2906 -266 2906 331 
L 2906 616 
Q 2728 306 2450 153 
Q 2172 0 1784 0 
Q 1141 0 747 490 
Q 353 981 353 1791 
Q 353 2603 747 3093 
Q 1141 3584 1784 3584 
Q 2172 3584 2450 3431 
Q 2728 3278 2906 2969 
L 2906 3500 
L 3481 3500 
L 3481 434 
z
" transform="scale(0.015625)"/>
      <path id="DejaVuSans-72" d="M 2631 2963 
Q 2534 3019 2420 3045 
Q 2306 3072 2169 3072 
Q 1681 3072 1420 2755 
Q 1159 2438 1159 1844 
L 1159 0 
L 581 0 
L 581 3500 
L 1159 3500 
L 1159 2956 
Q 1341 3275 1631 3429 
Q 1922 3584 2338 3584 
Q 2397 3584 2469 3576 
Q 2541 3569 2628 3553 
L 2631 2963 
z
" transform="scale(0.015625)"/>
      <path id="DejaVuSans-6d" d="M 3328 2828 
Q 3544 3216 3844 3400 
Q 4144 3584 4550 3584 
Q 5097 3584 5394 3201 
Q 5691 2819 5691 2113 
L 5691 0 
L 5113 0 
L 5113 2094 
Q 5113 2597 4934 2840 
Q 4756 3084 4391 3084 
Q 3944 3084 3684 2787 
Q 3425 2491 3425 1978 
L 3425 0 
L 2847 0 
L 2847 2094 
Q 2847 2600 2669 2842 
Q 2491 3084 2119 3084 
Q 1678 3084 1418 2786 
Q 1159 2488 1159 1978 
L 1159 0 
L 581 0 
L 581 3500 
L 1159 3500 
L 1159 2956 
Q 1356 3278 1631 3431 
Q 1906 3584 2284 3584 
Q 2666 3584 2933 3390 
Q 3200 3197 3328 2828 
z
" transform="scale(0.015625)"/>
      <path id="DejaVuSans-2d" d="M 313 2009 
L 1997 2009 
L 1997 1497 
L 313 1497 
L 313 2009 
z
" transform="scale(0.015625)"/>
      <path id="DejaVuSans-41" d="M 2188 4044 
L 1331 1722 
L 3047 1722 
L 2188 4044 
z
M 1831 4666 
L 2547 4666 
L 4325 0 
L 3669 0 
L 3244 1197 
L 1141 1197 
L 716 0 
L 50 0 
L 1831 4666 
z
" transform="scale(0.015625)"/>
      <path id="DejaVuSans-56" d="M 1831 0 
L 50 4666 
L 709 4666 
L 2188 738 
L 3669 4666 
L 4325 4666 
L 2547 0 
L 1831 0 
z
" transform="scale(0.015625)"/>
      <path id="DejaVuSans-46" d="M 628 4666 
L 3309 4666 
L 3309 4134 
L 1259 4134 
L 1259 2759 
L 3109 2759 
L 3109 2228 
L 1259 2228 
L 1259 0 
L 628 0 
L 628 4666 
z
" transform="scale(0.015625)"/>
     </defs>
     <use xlink:href="#DejaVuSans-52"/>
     <use xlink:href="#DejaVuSans-61" x="67.232422"/>
     <use xlink:href="#DejaVuSans-64" x="128.511719"/>
     <use xlink:href="#DejaVuSans-69" x="191.988281"/>
     <use xlink:href="#DejaVuSans-61" x="219.771484"/>
     <use xlink:href="#DejaVuSans-74" x="281.050781"/>
     <use xlink:href="#DejaVuSans-69" x="320.259766"/>
     <use xlink:href="#DejaVuSans-6f" x="348.042969"/>
     <use xlink:href="#DejaVuSans-6e" x="409.224609"/>
     <use xlink:href="#DejaVuSans-20" x="472.603516"/>
     <use xlink:href="#DejaVuSans-44" x="504.390625"/>
     <use xlink:href="#DejaVuSans-69" x="581.392578"/>
     <use xlink:href="#DejaVuSans-61" x="609.175781"/>
     <use xlink:href="#DejaVuSans-67" x="670.455078"/>
     <use xlink:href="#DejaVuSans-72" x="733.931641"/>
     <use xlink:href="#DejaVuSans-61" x="775.044922"/>
     <use xlink:href="#DejaVuSans-6d" x="836.324219"/>
     <use xlink:href="#DejaVuSans-20" x="933.736328"/>
     <use xlink:href="#DejaVuSans-2d" x="965.523438"/>
     <use xlink:href="#DejaVuSans-20" x="1001.607422"/>
     <use xlink:href="#DejaVuSans-31" x="1033.394531"/>
     <use xlink:href="#DejaVuSans-41" x="1097.017578"/>
     <use xlink:href="#DejaVuSans-56" x="1159.050781"/>
     <use xlink:href="#DejaVuSans-56" x="1227.458984"/>
     <use xlink:href="#DejaVuSans-46" x="1295.867188"/>
     <use xlink:href="#DejaVuSans-31" x="1353.386719"/>
     <use xlink:href="#DejaVuSans-32" x="1417.009766"/>
    </g>
   </g>
   <g id="legend_1">
    <g id="patch_4">
     <path d="M 304.104062 78.513437 
L 358.88375 78.513437 
Q 360.88375 78.513437 360.88375 76.513437 
L 360.88375 48.157187 
Q 360.88375 46.157187 358.88375 46.157187 
L 304.104062 46.157187 
Q 302.104062 46.157187 302.104062 48.157187 
L 302.104062 76.513437 
Q 302.104062 78.513437 304.104062 78.513437 
z
" style="fill: #ffffff; opacity: 0.8; stroke: #cccccc; stroke-linejoin: miter"/>
    </g>
    <g id="line2d_21">
     <path d="M 306.104062 54.255625 
L 316.104062 54.255625 
L 326.104062 54.255625 
" style="fill: none; stroke: #ff0000; stroke-width: 1.5; stroke-linecap: square"/>
    </g>
    <g id="text_20">
     <!-- INPE -->
     <g transform="translate(334.104062 57.755625)scale(0.1 -0.1)">
      <defs>
       <path id="DejaVuSans-49" d="M 628 4666 
L 1259 4666 
L 1259 0 
L 628 0 
L 628 4666 
z
" transform="scale(0.015625)"/>
       <path id="DejaVuSans-4e" d="M 628 4666 
L 1478 4666 
L 3547 763 
L 3547 4666 
L 4159 4666 
L 4159 0 
L 3309 0 
L 1241 3903 
L 1241 0 
L 628 0 
L 628 4666 
z
" transform="scale(0.015625)"/>
       <path id="DejaVuSans-50" d="M 1259 4147 
L 1259 2394 
L 2053 2394 
Q 2494 2394 2734 2622 
Q 2975 2850 2975 3272 
Q 2975 3691 2734 3919 
Q 2494 4147 2053 4147 
L 1259 4147 
z
M 628 4666 
L 2053 4666 
Q 2838 4666 3239 4311 
Q 3641 3956 3641 3272 
Q 3641 2581 3239 2228 
Q 2838 1875 2053 1875 
L 1259 1875 
L 1259 0 
L 628 0 
L 628 4666 
z
" transform="scale(0.015625)"/>
       <path id="DejaVuSans-45" d="M 628 4666 
L 3578 4666 
L 3578 4134 
L 1259 4134 
L 1259 2753 
L 3481 2753 
L 3481 2222 
L 1259 2222 
L 1259 531 
L 3634 531 
L 3634 0 
L 628 0 
L 628 4666 
z
" transform="scale(0.015625)"/>
      </defs>
      <use xlink:href="#DejaVuSans-49"/>
      <use xlink:href="#DejaVuSans-4e" x="29.492188"/>
      <use xlink:href="#DejaVuSans-50" x="104.296875"/>
      <use xlink:href="#DejaVuSans-45" x="164.599609"/>
     </g>
    </g>
    <g id="line2d_22">
     <path d="M 306.104062 68.93375 
L 316.104062 68.93375 
L 326.104062 68.93375 
" style="fill: none; stroke-dasharray: 5.55,2.4; stroke-dashoffset: 0; stroke: #0000ff; stroke-width: 1.5"/>
    </g>
    <g id="text_21">
     <!-- CST -->
     <g transform="translate(334.104062 72.43375)scale(0.1 -0.1)">
      <defs>
       <path id="DejaVuSans-43" d="M 4122 4306 
L 4122 3641 
Q 3803 3938 3442 4084 
Q 3081 4231 2675 4231 
Q 1875 4231 1450 3742 
Q 1025 3253 1025 2328 
Q 1025 1406 1450 917 
Q 1875 428 2675 428 
Q 3081 428 3442 575 
Q 3803 722 4122 1019 
L 4122 359 
Q 3791 134 3420 21 
Q 3050 -91 2638 -91 
Q 1578 -91 968 557 
Q 359 1206 359 2328 
Q 359 3453 968 4101 
Q 1578 4750 2638 4750 
Q 3056 4750 3426 4639 
Q 3797 4528 4122 4306 
z
" transform="scale(0.015625)"/>
       <path id="DejaVuSans-53" d="M 3425 4513 
L 3425 3897 
Q 3066 4069 2747 4153 
Q 2428 4238 2131 4238 
Q 1616 4238 1336 4038 
Q 1056 3838 1056 3469 
Q 1056 3159 1242 3001 
Q 1428 2844 1947 2747 
L 2328 2669 
Q 3034 2534 3370 2195 
Q 3706 1856 3706 1288 
Q 3706 609 3251 259 
Q 2797 -91 1919 -91 
Q 1588 -91 1214 -16 
Q 841 59 441 206 
L 441 856 
Q 825 641 1194 531 
Q 1563 422 1919 422 
Q 2459 422 2753 634 
Q 3047 847 3047 1241 
Q 3047 1584 2836 1778 
Q 2625 1972 2144 2069 
L 1759 2144 
Q 1053 2284 737 2584 
Q 422 2884 422 3419 
Q 422 4038 858 4394 
Q 1294 4750 2059 4750 
Q 2388 4750 2728 4690 
Q 3069 4631 3425 4513 
z
" transform="scale(0.015625)"/>
       <path id="DejaVuSans-54" d="M -19 4666 
L 3928 4666 
L 3928 4134 
L 2272 4134 
L 2272 0 
L 1638 0 
L 1638 4134 
L -19 4134 
L -19 4666 
z
" transform="scale(0.015625)"/>
      </defs>
      <use xlink:href="#DejaVuSans-43"/>
      <use xlink:href="#DejaVuSans-53" x="69.824219"/>
      <use xlink:href="#DejaVuSans-54" x="133.300781"/>
     </g>
    </g>
   </g>
  </g>
 </g>
 <defs>
  <clipPath id="pa0572cec04">
   <path d="M 365.88375 207.477187 
C 365.88375 185.636245 361.581561 164.007679 353.223394 143.829279 
C 344.865227 123.650879 332.613628 105.315066 317.16975 89.871188 
C 301.725871 74.427309 283.390058 62.17571 263.211658 53.817544 
C 243.033259 45.459377 221.404692 41.157187 199.56375 41.157187 
C 177.722808 41.157187 156.094241 45.459377 135.915842 53.817544 
C 115.737442 62.17571 97.401629 74.427309 81.95775 89.871188 
C 66.513872 105.315066 54.262273 123.650879 45.904106 143.829279 
C 37.545939 164.007679 33.24375 185.636245 33.24375 207.477187 
C 33.24375 229.31813 37.545939 250.946696 45.904106 271.125096 
C 54.262273 291.303496 66.513872 309.639309 81.95775 325.083187 
C 97.401629 340.527066 115.737442 352.778665 135.915842 361.136831 
C 156.094241 369.494998 177.722808 373.797188 199.56375 373.797188 
C 221.404692 373.797188 243.033259 369.494998 263.211658 361.136831 
C 283.390058 352.778665 301.725871 340.527066 317.16975 325.083187 
C 332.613628 309.639309 344.865227 291.303496 353.223394 271.125096 
C 361.581561 250.946696 365.88375 229.31813 365.88375 207.477188 
M 199.56375 207.477187 
C 199.56375 207.477187 199.56375 207.477187 199.56375 207.477187 
C 199.56375 207.477187 199.56375 207.477187 199.56375 207.477187 
C 199.56375 207.477187 199.56375 207.477187 199.56375 207.477187 
C 199.56375 207.477187 199.56375 207.477187 199.56375 207.477187 
C 199.56375 207.477187 199.56375 207.477187 199.56375 207.477187 
C 199.56375 207.477187 199.56375 207.477187 199.56375 207.477187 
C 199.56375 207.477187 199.56375 207.477187 199.56375 207.477187 
C 199.56375 207.477187 199.56375 207.477187 199.56375 207.477187 
C 199.56375 207.477187 199.56375 207.477187 199.56375 207.477187 
C 199.56375 207.477187 199.56375 207.477187 199.56375 207.477187 
C 199.56375 207.477187 199.56375 207.477187 199.56375 207.477187 
C 199.56375 207.477187 199.56375 207.477187 199.56375 207.477187 
C 199.56375 207.477187 199.56375 207.477187 199.56375 207.477187 
C 199.56375 207.477187 199.56375 207.477187 199.56375 207.477187 
C 199.56375 207.477187 199.56375 207.477187 199.56375 207.477187 
C 199.56375 207.477187 199.56375 207.477187 199.56375 207.477187 
M 365.88375 207.477187 
z
"/>
  </clipPath>
 </defs>
</svg>
