<?xml version="1.0" encoding="utf-8" standalone="no"?>
<!DOCTYPE svg PUBLIC "-//W3C//DTD SVG 1.1//EN"
  "http://www.w3.org/Graphics/SVG/1.1/DTD/svg11.dtd">
<svg xmlns:xlink="http://www.w3.org/1999/xlink" width="392.765pt" height="399.83625pt" viewBox="0 0 392.765 399.83625" xmlns="http://www.w3.org/2000/svg" version="1.1">
 <metadata>
  <rdf:RDF xmlns:dc="http://purl.org/dc/elements/1.1/" xmlns:cc="http://creativecommons.org/ns#" xmlns:rdf="http://www.w3.org/1999/02/22-rdf-syntax-ns#">
   <cc:Work>
    <dc:type rdf:resource="http://purl.org/dc/dcmitype/StillImage"/>
    <dc:date>2023-11-01T17:08:50.639655</dc:date>
    <dc:format>image/svg+xml</dc:format>
    <dc:creator>
     <cc:Agent>
      <dc:title>Matplotlib v3.5.1, https://matplotlib.org/</dc:title>
     </cc:Agent>
    </dc:creator>
   </cc:Work>
  </rdf:RDF>
 </metadata>
 <defs>
  <style type="text/css">*{stroke-linejoin: round; stroke-linecap: butt}</style>
 </defs>
 <g id="figure_1">
  <g id="patch_1">
   <path d="M 0 399.83625 
L 392.765 399.83625 
L 392.765 0 
L 0 0 
z
" style="fill: #ffffff"/>
  </g>
  <g id="axes_1">
   <g id="patch_2">
    <path d="M 365.88375 207.477187 
C 365.88375 185.636245 361.581561 164.007679 353.223394 143.829279 
C 344.865227 123.650879 332.613628 105.315066 317.16975 89.871188 
C 301.725871 74.427309 283.390058 62.17571 263.211658 53.817544 
C 243.033259 45.459377 221.404692 41.157187 199.56375 41.157187 
C 177.722808 41.157187 156.094241 45.459377 135.915842 53.817544 
C 115.737442 62.17571 97.401629 74.427309 81.95775 89.871188 
C 66.513872 105.315066 54.262273 123.650879 45.904106 143.829279 
C 37.545939 164.007679 33.24375 185.636245 33.24375 207.477187 
C 33.24375 229.31813 37.545939 250.946696 45.904106 271.125096 
C 54.262273 291.303496 66.513872 309.639309 81.95775 325.083187 
C 97.401629 340.527066 115.737442 352.778665 135.915842 361.136831 
C 156.094241 369.494998 177.722808 373.797188 199.56375 373.797188 
C 221.404692 373.797188 243.033259 369.494998 263.211658 361.136831 
C 283.390058 352.778665 301.725871 340.527066 317.16975 325.083187 
C 332.613628 309.639309 344.865227 291.303496 353.223394 271.125096 
C 361.581561 250.946696 365.88375 229.31813 365.88375 207.477188 
M 199.56375 207.477187 
C 199.56375 207.477187 199.56375 207.477187 199.56375 207.477187 
C 199.56375 207.477187 199.56375 207.477187 199.56375 207.477187 
C 199.56375 207.477187 199.56375 207.477187 199.56375 207.477187 
C 199.56375 207.477187 199.56375 207.477187 199.56375 207.477187 
C 199.56375 207.477187 199.56375 207.477187 199.56375 207.477187 
C 199.56375 207.477187 199.56375 207.477187 199.56375 207.477187 
C 199.56375 207.477187 199.56375 207.477187 199.56375 207.477187 
C 199.56375 207.477187 199.56375 207.477187 199.56375 207.477187 
C 199.56375 207.477187 199.56375 207.477187 199.56375 207.477187 
C 199.56375 207.477187 199.56375 207.477187 199.56375 207.477187 
C 199.56375 207.477187 199.56375 207.477187 199.56375 207.477187 
C 199.56375 207.477187 199.56375 207.477187 199.56375 207.477187 
C 199.56375 207.477187 199.56375 207.477187 199.56375 207.477187 
C 199.56375 207.477187 199.56375 207.477187 199.56375 207.477187 
C 199.56375 207.477187 199.56375 207.477187 199.56375 207.477187 
C 199.56375 207.477187 199.56375 207.477187 199.56375 207.477187 
M 365.88375 207.477187 
z
" style="fill: #ffffff"/>
   </g>
   <g id="matplotlib.axis_1">
    <g id="xtick_1">
     <g id="line2d_1">
      <path d="M 199.56375 207.477187 
L 365.88375 207.477187 
" clip-path="url(#p9f4ce47b7f)" style="fill: none; stroke: #b0b0b0; stroke-width: 0.8; stroke-linecap: square"/>
     </g>
     <g id="text_1">
      <!-- 0° -->
      <g transform="translate(374.2025 210.236562)scale(0.1 -0.1)">
       <defs>
        <path id="DejaVuSans-30" d="M 2034 4250 
Q 1547 4250 1301 3770 
Q 1056 3291 1056 2328 
Q 1056 1369 1301 889 
Q 1547 409 2034 409 
Q 2525 409 2770 889 
Q 3016 1369 3016 2328 
Q 3016 3291 2770 3770 
Q 2525 4250 2034 4250 
z
M 2034 4750 
Q 2819 4750 3233 4129 
Q 3647 3509 3647 2328 
Q 3647 1150 3233 529 
Q 2819 -91 2034 -91 
Q 1250 -91 836 529 
Q 422 1150 422 2328 
Q 422 3509 836 4129 
Q 1250 4750 2034 4750 
z
" transform="scale(0.015625)"/>
        <path id="DejaVuSans-b0" d="M 1600 4347 
Q 1350 4347 1178 4173 
Q 1006 4000 1006 3750 
Q 1006 3503 1178 3333 
Q 1350 3163 1600 3163 
Q 1850 3163 2022 3333 
Q 2194 3503 2194 3750 
Q 2194 3997 2020 4172 
Q 1847 4347 1600 4347 
z
M 1600 4750 
Q 1800 4750 1984 4673 
Q 2169 4597 2303 4453 
Q 2447 4313 2519 4134 
Q 2591 3956 2591 3750 
Q 2591 3338 2302 3052 
Q 2013 2766 1594 2766 
Q 1172 2766 890 3047 
Q 609 3328 609 3750 
Q 609 4169 896 4459 
Q 1184 4750 1600 4750 
z
" transform="scale(0.015625)"/>
       </defs>
       <use xlink:href="#DejaVuSans-30"/>
       <use xlink:href="#DejaVuSans-b0" x="63.623047"/>
      </g>
     </g>
    </g>
    <g id="xtick_2">
     <g id="line2d_2">
      <path d="M 199.56375 207.477187 
L 317.16975 89.871188 
" clip-path="url(#p9f4ce47b7f)" style="fill: none; stroke: #b0b0b0; stroke-width: 0.8; stroke-linecap: square"/>
     </g>
     <g id="text_2">
      <!-- 45° -->
      <g transform="translate(318.206745 82.731068)scale(0.1 -0.1)">
       <defs>
        <path id="DejaVuSans-34" d="M 2419 4116 
L 825 1625 
L 2419 1625 
L 2419 4116 
z
M 2253 4666 
L 3047 4666 
L 3047 1625 
L 3713 1625 
L 3713 1100 
L 3047 1100 
L 3047 0 
L 2419 0 
L 2419 1100 
L 313 1100 
L 313 1709 
L 2253 4666 
z
" transform="scale(0.015625)"/>
        <path id="DejaVuSans-35" d="M 691 4666 
L 3169 4666 
L 3169 4134 
L 1269 4134 
L 1269 2991 
Q 1406 3038 1543 3061 
Q 1681 3084 1819 3084 
Q 2600 3084 3056 2656 
Q 3513 2228 3513 1497 
Q 3513 744 3044 326 
Q 2575 -91 1722 -91 
Q 1428 -91 1123 -41 
Q 819 9 494 109 
L 494 744 
Q 775 591 1075 516 
Q 1375 441 1709 441 
Q 2250 441 2565 725 
Q 2881 1009 2881 1497 
Q 2881 1984 2565 2268 
Q 2250 2553 1709 2553 
Q 1456 2553 1204 2497 
Q 953 2441 691 2322 
L 691 4666 
z
" transform="scale(0.015625)"/>
       </defs>
       <use xlink:href="#DejaVuSans-34"/>
       <use xlink:href="#DejaVuSans-35" x="63.623047"/>
       <use xlink:href="#DejaVuSans-b0" x="127.246094"/>
      </g>
     </g>
    </g>
    <g id="xtick_3">
     <g id="line2d_3">
      <path d="M 199.56375 207.477187 
L 199.56375 41.157187 
" clip-path="url(#p9f4ce47b7f)" style="fill: none; stroke: #b0b0b0; stroke-width: 0.8; stroke-linecap: square"/>
     </g>
     <g id="text_3">
      <!-- 90° -->
      <g transform="translate(190.70125 29.916562)scale(0.1 -0.1)">
       <defs>
        <path id="DejaVuSans-39" d="M 703 97 
L 703 672 
Q 941 559 1184 500 
Q 1428 441 1663 441 
Q 2288 441 2617 861 
Q 2947 1281 2994 2138 
Q 2813 1869 2534 1725 
Q 2256 1581 1919 1581 
Q 1219 1581 811 2004 
Q 403 2428 403 3163 
Q 403 3881 828 4315 
Q 1253 4750 1959 4750 
Q 2769 4750 3195 4129 
Q 3622 3509 3622 2328 
Q 3622 1225 3098 567 
Q 2575 -91 1691 -91 
Q 1453 -91 1209 -44 
Q 966 3 703 97 
z
M 1959 2075 
Q 2384 2075 2632 2365 
Q 2881 2656 2881 3163 
Q 2881 3666 2632 3958 
Q 2384 4250 1959 4250 
Q 1534 4250 1286 3958 
Q 1038 3666 1038 3163 
Q 1038 2656 1286 2365 
Q 1534 2075 1959 2075 
z
" transform="scale(0.015625)"/>
       </defs>
       <use xlink:href="#DejaVuSans-39"/>
       <use xlink:href="#DejaVuSans-30" x="63.623047"/>
       <use xlink:href="#DejaVuSans-b0" x="127.246094"/>
      </g>
     </g>
    </g>
    <g id="xtick_4">
     <g id="line2d_4">
      <path d="M 199.56375 207.477187 
L 81.95775 89.871188 
" clip-path="url(#p9f4ce47b7f)" style="fill: none; stroke: #b0b0b0; stroke-width: 0.8; stroke-linecap: square"/>
     </g>
     <g id="text_4">
      <!-- 135° -->
      <g transform="translate(60.014505 82.731068)scale(0.1 -0.1)">
       <defs>
        <path id="DejaVuSans-31" d="M 794 531 
L 1825 531 
L 1825 4091 
L 703 3866 
L 703 4441 
L 1819 4666 
L 2450 4666 
L 2450 531 
L 3481 531 
L 3481 0 
L 794 0 
L 794 531 
z
" transform="scale(0.015625)"/>
        <path id="DejaVuSans-33" d="M 2597 2516 
Q 3050 2419 3304 2112 
Q 3559 1806 3559 1356 
Q 3559 666 3084 287 
Q 2609 -91 1734 -91 
Q 1441 -91 1130 -33 
Q 819 25 488 141 
L 488 750 
Q 750 597 1062 519 
Q 1375 441 1716 441 
Q 2309 441 2620 675 
Q 2931 909 2931 1356 
Q 2931 1769 2642 2001 
Q 2353 2234 1838 2234 
L 1294 2234 
L 1294 2753 
L 1863 2753 
Q 2328 2753 2575 2939 
Q 2822 3125 2822 3475 
Q 2822 3834 2567 4026 
Q 2313 4219 1838 4219 
Q 1578 4219 1281 4162 
Q 984 4106 628 3988 
L 628 4550 
Q 988 4650 1302 4700 
Q 1616 4750 1894 4750 
Q 2613 4750 3031 4423 
Q 3450 4097 3450 3541 
Q 3450 3153 3228 2886 
Q 3006 2619 2597 2516 
z
" transform="scale(0.015625)"/>
       </defs>
       <use xlink:href="#DejaVuSans-31"/>
       <use xlink:href="#DejaVuSans-33" x="63.623047"/>
       <use xlink:href="#DejaVuSans-35" x="127.246094"/>
       <use xlink:href="#DejaVuSans-b0" x="190.869141"/>
      </g>
     </g>
    </g>
    <g id="xtick_5">
     <g id="line2d_5">
      <path d="M 199.56375 207.477187 
L 33.24375 207.477187 
" clip-path="url(#p9f4ce47b7f)" style="fill: none; stroke: #b0b0b0; stroke-width: 0.8; stroke-linecap: square"/>
     </g>
     <g id="text_5">
      <!-- 180° -->
      <g transform="translate(7.2 210.236562)scale(0.1 -0.1)">
       <defs>
        <path id="DejaVuSans-38" d="M 2034 2216 
Q 1584 2216 1326 1975 
Q 1069 1734 1069 1313 
Q 1069 891 1326 650 
Q 1584 409 2034 409 
Q 2484 409 2743 651 
Q 3003 894 3003 1313 
Q 3003 1734 2745 1975 
Q 2488 2216 2034 2216 
z
M 1403 2484 
Q 997 2584 770 2862 
Q 544 3141 544 3541 
Q 544 4100 942 4425 
Q 1341 4750 2034 4750 
Q 2731 4750 3128 4425 
Q 3525 4100 3525 3541 
Q 3525 3141 3298 2862 
Q 3072 2584 2669 2484 
Q 3125 2378 3379 2068 
Q 3634 1759 3634 1313 
Q 3634 634 3220 271 
Q 2806 -91 2034 -91 
Q 1263 -91 848 271 
Q 434 634 434 1313 
Q 434 1759 690 2068 
Q 947 2378 1403 2484 
z
M 1172 3481 
Q 1172 3119 1398 2916 
Q 1625 2713 2034 2713 
Q 2441 2713 2670 2916 
Q 2900 3119 2900 3481 
Q 2900 3844 2670 4047 
Q 2441 4250 2034 4250 
Q 1625 4250 1398 4047 
Q 1172 3844 1172 3481 
z
" transform="scale(0.015625)"/>
       </defs>
       <use xlink:href="#DejaVuSans-31"/>
       <use xlink:href="#DejaVuSans-38" x="63.623047"/>
       <use xlink:href="#DejaVuSans-30" x="127.246094"/>
       <use xlink:href="#DejaVuSans-b0" x="190.869141"/>
      </g>
     </g>
    </g>
    <g id="xtick_6">
     <g id="line2d_6">
      <path d="M 199.56375 207.477187 
L 81.95775 325.083187 
" clip-path="url(#p9f4ce47b7f)" style="fill: none; stroke: #b0b0b0; stroke-width: 0.8; stroke-linecap: square"/>
     </g>
     <g id="text_6">
      <!-- 225° -->
      <g transform="translate(60.014505 337.742057)scale(0.1 -0.1)">
       <defs>
        <path id="DejaVuSans-32" d="M 1228 531 
L 3431 531 
L 3431 0 
L 469 0 
L 469 531 
Q 828 903 1448 1529 
Q 2069 2156 2228 2338 
Q 2531 2678 2651 2914 
Q 2772 3150 2772 3378 
Q 2772 3750 2511 3984 
Q 2250 4219 1831 4219 
Q 1534 4219 1204 4116 
Q 875 4013 500 3803 
L 500 4441 
Q 881 4594 1212 4672 
Q 1544 4750 1819 4750 
Q 2544 4750 2975 4387 
Q 3406 4025 3406 3419 
Q 3406 3131 3298 2873 
Q 3191 2616 2906 2266 
Q 2828 2175 2409 1742 
Q 1991 1309 1228 531 
z
" transform="scale(0.015625)"/>
       </defs>
       <use xlink:href="#DejaVuSans-32"/>
       <use xlink:href="#DejaVuSans-32" x="63.623047"/>
       <use xlink:href="#DejaVuSans-35" x="127.246094"/>
       <use xlink:href="#DejaVuSans-b0" x="190.869141"/>
      </g>
     </g>
    </g>
    <g id="xtick_7">
     <g id="line2d_7">
      <path d="M 199.56375 207.477187 
L 199.56375 373.797188 
" clip-path="url(#p9f4ce47b7f)" style="fill: none; stroke: #b0b0b0; stroke-width: 0.8; stroke-linecap: square"/>
     </g>
     <g id="text_7">
      <!-- 270° -->
      <g transform="translate(187.52 390.556562)scale(0.1 -0.1)">
       <defs>
        <path id="DejaVuSans-37" d="M 525 4666 
L 3525 4666 
L 3525 4397 
L 1831 0 
L 1172 0 
L 2766 4134 
L 525 4134 
L 525 4666 
z
" transform="scale(0.015625)"/>
       </defs>
       <use xlink:href="#DejaVuSans-32"/>
       <use xlink:href="#DejaVuSans-37" x="63.623047"/>
       <use xlink:href="#DejaVuSans-30" x="127.246094"/>
       <use xlink:href="#DejaVuSans-b0" x="190.869141"/>
      </g>
     </g>
    </g>
    <g id="xtick_8">
     <g id="line2d_8">
      <path d="M 199.56375 207.477187 
L 317.16975 325.083187 
" clip-path="url(#p9f4ce47b7f)" style="fill: none; stroke: #b0b0b0; stroke-width: 0.8; stroke-linecap: square"/>
     </g>
     <g id="text_8">
      <!-- 315° -->
      <g transform="translate(315.025495 337.742057)scale(0.1 -0.1)">
       <use xlink:href="#DejaVuSans-33"/>
       <use xlink:href="#DejaVuSans-31" x="63.623047"/>
       <use xlink:href="#DejaVuSans-35" x="127.246094"/>
       <use xlink:href="#DejaVuSans-b0" x="190.869141"/>
      </g>
     </g>
    </g>
   </g>
   <g id="matplotlib.axis_2">
    <g id="ytick_1">
     <g id="line2d_9">
      <path d="M 199.56375 207.477187 
C 199.56375 207.477187 199.56375 207.477187 199.56375 207.477187 
C 199.56375 207.477187 199.56375 207.477187 199.56375 207.477187 
C 199.56375 207.477187 199.56375 207.477187 199.56375 207.477187 
C 199.56375 207.477187 199.56375 207.477187 199.56375 207.477187 
C 199.56375 207.477187 199.56375 207.477187 199.56375 207.477187 
C 199.56375 207.477187 199.56375 207.477187 199.56375 207.477187 
C 199.56375 207.477187 199.56375 207.477187 199.56375 207.477187 
C 199.56375 207.477187 199.56375 207.477187 199.56375 207.477187 
C 199.56375 207.477187 199.56375 207.477187 199.56375 207.477187 
C 199.56375 207.477187 199.56375 207.477187 199.56375 207.477187 
C 199.56375 207.477187 199.56375 207.477187 199.56375 207.477187 
C 199.56375 207.477187 199.56375 207.477187 199.56375 207.477187 
C 199.56375 207.477187 199.56375 207.477187 199.56375 207.477187 
C 199.56375 207.477187 199.56375 207.477187 199.56375 207.477187 
C 199.56375 207.477187 199.56375 207.477187 199.56375 207.477187 
C 199.56375 207.477187 199.56375 207.477187 199.56375 207.477187 
" clip-path="url(#p9f4ce47b7f)" style="fill: none; stroke: #b0b0b0; stroke-width: 0.8; stroke-linecap: square"/>
     </g>
     <g id="text_9">
      <!-- −30 -->
      <g transform="translate(199.56375 205.3975)scale(0.1 -0.1)">
       <defs>
        <path id="DejaVuSans-2212" d="M 678 2272 
L 4684 2272 
L 4684 1741 
L 678 1741 
L 678 2272 
z
" transform="scale(0.015625)"/>
       </defs>
       <use xlink:href="#DejaVuSans-2212"/>
       <use xlink:href="#DejaVuSans-33" x="83.789062"/>
       <use xlink:href="#DejaVuSans-30" x="147.412109"/>
      </g>
     </g>
    </g>
    <g id="ytick_2">
     <g id="line2d_10">
      <path d="M 216.19575 207.477187 
C 216.19575 205.293093 215.765531 203.130237 214.929714 201.112397 
C 214.093898 199.094557 212.868738 197.260975 211.32435 195.716588 
C 209.779962 194.1722 207.946381 192.94704 205.928541 192.111223 
C 203.910701 191.275406 201.747844 190.845187 199.56375 190.845187 
C 197.379656 190.845187 195.216799 191.275406 193.198959 192.111223 
C 191.181119 192.94704 189.347538 194.1722 187.80315 195.716588 
C 186.258762 197.260975 185.033602 199.094557 184.197786 201.112397 
C 183.361969 203.130237 182.93175 205.293093 182.93175 207.477187 
C 182.93175 209.661282 183.361969 211.824138 184.197786 213.841978 
C 185.033602 215.859818 186.258762 217.6934 187.80315 219.237787 
C 189.347538 220.782175 191.181119 222.007335 193.198959 222.843152 
C 195.216799 223.678969 197.379656 224.109187 199.56375 224.109187 
C 201.747844 224.109187 203.910701 223.678969 205.928541 222.843152 
C 207.946381 222.007335 209.779962 220.782175 211.32435 219.237787 
C 212.868738 217.6934 214.093898 215.859818 214.929714 213.841978 
C 215.765531 211.824138 216.19575 209.661282 216.19575 207.477187 
" clip-path="url(#p9f4ce47b7f)" style="fill: none; stroke: #b0b0b0; stroke-width: 0.8; stroke-linecap: square"/>
     </g>
     <g id="text_10">
      <!-- −27 -->
      <g transform="translate(214.929714 199.032709)scale(0.1 -0.1)">
       <use xlink:href="#DejaVuSans-2212"/>
       <use xlink:href="#DejaVuSans-32" x="83.789062"/>
       <use xlink:href="#DejaVuSans-37" x="147.412109"/>
      </g>
     </g>
    </g>
    <g id="ytick_3">
     <g id="line2d_11">
      <path d="M 232.82775 207.477187 
C 232.82775 203.108999 231.967312 198.783286 230.295679 194.747606 
C 228.624045 190.711926 226.173726 187.044763 223.08495 183.955988 
C 219.996174 180.867212 216.329012 178.416892 212.293332 176.745259 
C 208.257652 175.073625 203.931938 174.213187 199.56375 174.213187 
C 195.195562 174.213187 190.869848 175.073625 186.834168 176.745259 
C 182.798488 178.416892 179.131326 180.867212 176.04255 183.955988 
C 172.953774 187.044763 170.503455 190.711926 168.831821 194.747606 
C 167.160188 198.783286 166.29975 203.108999 166.29975 207.477187 
C 166.29975 211.845376 167.160188 216.171089 168.831821 220.206769 
C 170.503455 224.242449 172.953774 227.909612 176.04255 230.998387 
C 179.131326 234.087163 182.798488 236.537483 186.834168 238.209116 
C 190.869848 239.88075 195.195562 240.741187 199.56375 240.741187 
C 203.931938 240.741187 208.257652 239.88075 212.293332 238.209116 
C 216.329012 236.537483 219.996174 234.087163 223.08495 230.998387 
C 226.173726 227.909612 228.624045 224.242449 230.295679 220.206769 
C 231.967312 216.171089 232.82775 211.845376 232.82775 207.477187 
" clip-path="url(#p9f4ce47b7f)" style="fill: none; stroke: #b0b0b0; stroke-width: 0.8; stroke-linecap: square"/>
     </g>
     <g id="text_11">
      <!-- −24 -->
      <g transform="translate(230.295679 192.667918)scale(0.1 -0.1)">
       <use xlink:href="#DejaVuSans-2212"/>
       <use xlink:href="#DejaVuSans-32" x="83.789062"/>
       <use xlink:href="#DejaVuSans-34" x="147.412109"/>
      </g>
     </g>
    </g>
    <g id="ytick_4">
     <g id="line2d_12">
      <path d="M 249.45975 207.477187 
C 249.45975 200.924905 248.169093 194.436335 245.661643 188.382815 
C 243.154193 182.329295 239.478713 176.828551 234.84555 172.195388 
C 230.212386 167.562224 224.711642 163.886744 218.658123 161.379294 
C 212.604603 158.871844 206.116033 157.581187 199.56375 157.581187 
C 193.011467 157.581187 186.522897 158.871844 180.469377 161.379294 
C 174.415858 163.886744 168.915114 167.562224 164.28195 172.195388 
C 159.648787 176.828551 155.973307 182.329295 153.465857 188.382815 
C 150.958407 194.436335 149.66775 200.924905 149.66775 207.477187 
C 149.66775 214.02947 150.958407 220.51804 153.465857 226.57156 
C 155.973307 232.62508 159.648787 238.125824 164.28195 242.758987 
C 168.915114 247.392151 174.415858 251.067631 180.469377 253.575081 
C 186.522897 256.082531 193.011467 257.373187 199.56375 257.373187 
C 206.116033 257.373187 212.604603 256.082531 218.658123 253.575081 
C 224.711642 251.067631 230.212386 247.392151 234.84555 242.758987 
C 239.478713 238.125824 243.154193 232.62508 245.661643 226.57156 
C 248.169093 220.51804 249.45975 214.02947 249.45975 207.477187 
" clip-path="url(#p9f4ce47b7f)" style="fill: none; stroke: #b0b0b0; stroke-width: 0.8; stroke-linecap: square"/>
     </g>
     <g id="text_12">
      <!-- −21 -->
      <g transform="translate(245.661643 186.303127)scale(0.1 -0.1)">
       <use xlink:href="#DejaVuSans-2212"/>
       <use xlink:href="#DejaVuSans-32" x="83.789062"/>
       <use xlink:href="#DejaVuSans-31" x="147.412109"/>
      </g>
     </g>
    </g>
    <g id="ytick_5">
     <g id="line2d_13">
      <path d="M 266.09175 207.477187 
C 266.09175 198.740811 264.370874 190.089384 261.027608 182.018024 
C 257.684341 173.946664 252.783701 166.612339 246.60615 160.434788 
C 240.428599 154.257236 233.094273 149.356597 225.022913 146.01333 
C 216.951554 142.670063 208.300127 140.949187 199.56375 140.949187 
C 190.827373 140.949187 182.175946 142.670063 174.104587 146.01333 
C 166.033227 149.356597 158.698901 154.257236 152.52135 160.434788 
C 146.343799 166.612339 141.443159 173.946664 138.099892 182.018024 
C 134.756626 190.089384 133.03575 198.740811 133.03575 207.477187 
C 133.03575 216.213564 134.756626 224.864991 138.099892 232.936351 
C 141.443159 241.007711 146.343799 248.342036 152.52135 254.519587 
C 158.698901 260.697139 166.033227 265.597778 174.104587 268.941045 
C 182.175946 272.284312 190.827373 274.005187 199.56375 274.005187 
C 208.300127 274.005187 216.951554 272.284312 225.022913 268.941045 
C 233.094273 265.597778 240.428599 260.697139 246.60615 254.519587 
C 252.783701 248.342036 257.684341 241.007711 261.027608 232.936351 
C 264.370874 224.864991 266.09175 216.213564 266.09175 207.477188 
" clip-path="url(#p9f4ce47b7f)" style="fill: none; stroke: #b0b0b0; stroke-width: 0.8; stroke-linecap: square"/>
     </g>
     <g id="text_13">
      <!-- −18 -->
      <g transform="translate(261.027608 179.938337)scale(0.1 -0.1)">
       <use xlink:href="#DejaVuSans-2212"/>
       <use xlink:href="#DejaVuSans-31" x="83.789062"/>
       <use xlink:href="#DejaVuSans-38" x="147.412109"/>
      </g>
     </g>
    </g>
    <g id="ytick_6">
     <g id="line2d_14">
      <path d="M 282.72375 207.477187 
C 282.72375 196.556716 280.572655 185.742433 276.393572 175.653233 
C 272.214489 165.564033 266.088689 156.396127 258.36675 148.674188 
C 250.644811 140.952248 241.476904 134.826449 231.387704 130.647366 
C 221.298504 126.468282 210.484221 124.317187 199.56375 124.317187 
C 188.643279 124.317187 177.828996 126.468282 167.739796 130.647366 
C 157.650596 134.826449 148.482689 140.952248 140.76075 148.674188 
C 133.038811 156.396127 126.913011 165.564033 122.733928 175.653233 
C 118.554845 185.742433 116.40375 196.556716 116.40375 207.477187 
C 116.40375 218.397659 118.554845 229.211942 122.733928 239.301142 
C 126.913011 249.390342 133.038811 258.558248 140.76075 266.280187 
C 148.482689 274.002127 157.650596 280.127926 167.739796 284.307009 
C 177.828996 288.486093 188.643279 290.637187 199.56375 290.637187 
C 210.484221 290.637187 221.298504 288.486093 231.387704 284.307009 
C 241.476904 280.127926 250.644811 274.002127 258.36675 266.280187 
C 266.088689 258.558248 272.214489 249.390342 276.393572 239.301142 
C 280.572655 229.211942 282.72375 218.397659 282.72375 207.477188 
" clip-path="url(#p9f4ce47b7f)" style="fill: none; stroke: #b0b0b0; stroke-width: 0.8; stroke-linecap: square"/>
     </g>
     <g id="text_14">
      <!-- −15 -->
      <g transform="translate(276.393572 173.573546)scale(0.1 -0.1)">
       <use xlink:href="#DejaVuSans-2212"/>
       <use xlink:href="#DejaVuSans-31" x="83.789062"/>
       <use xlink:href="#DejaVuSans-35" x="147.412109"/>
      </g>
     </g>
    </g>
    <g id="ytick_7">
     <g id="line2d_15">
      <path d="M 299.35575 207.477187 
C 299.35575 194.372622 296.774436 181.395482 291.759536 169.288442 
C 286.744636 157.181403 279.393677 146.179915 270.12735 136.913588 
C 260.861023 127.647261 249.859535 120.296301 237.752495 115.281401 
C 225.645455 110.266501 212.668315 107.685187 199.56375 107.685187 
C 186.459185 107.685187 173.482045 110.266501 161.375005 115.281401 
C 149.267965 120.296301 138.266477 127.647261 129.00015 136.913588 
C 119.733823 146.179915 112.382864 157.181403 107.367964 169.288442 
C 102.353064 181.395482 99.77175 194.372622 99.77175 207.477187 
C 99.77175 220.581753 102.353064 233.558893 107.367964 245.665933 
C 112.382864 257.772972 119.733823 268.77446 129.00015 278.040787 
C 138.266477 287.307114 149.267965 294.658074 161.375005 299.672974 
C 173.482045 304.687874 186.459185 307.269187 199.56375 307.269187 
C 212.668315 307.269187 225.645455 304.687874 237.752495 299.672974 
C 249.859535 294.658074 260.861023 287.307114 270.12735 278.040787 
C 279.393677 268.77446 286.744636 257.772972 291.759536 245.665933 
C 296.774436 233.558893 299.35575 220.581753 299.35575 207.477188 
" clip-path="url(#p9f4ce47b7f)" style="fill: none; stroke: #b0b0b0; stroke-width: 0.8; stroke-linecap: square"/>
     </g>
     <g id="text_15">
      <!-- −12 -->
      <g transform="translate(291.759536 167.208755)scale(0.1 -0.1)">
       <use xlink:href="#DejaVuSans-2212"/>
       <use xlink:href="#DejaVuSans-31" x="83.789062"/>
       <use xlink:href="#DejaVuSans-32" x="147.412109"/>
      </g>
     </g>
    </g>
    <g id="ytick_8">
     <g id="line2d_16">
      <path d="M 315.98775 207.477187 
C 315.98775 192.188528 312.976217 177.048531 307.125501 162.923652 
C 301.274784 148.798772 292.698665 135.963702 281.88795 125.152988 
C 271.077235 114.342273 258.242166 105.766154 244.117286 99.915437 
C 229.992406 94.06472 214.85241 91.053187 199.56375 91.053187 
C 184.27509 91.053187 169.135094 94.06472 155.010214 99.915437 
C 140.885334 105.766154 128.050265 114.342273 117.23955 125.152988 
C 106.428835 135.963702 97.852716 148.798772 92.001999 162.923652 
C 86.151283 177.048531 83.13975 192.188528 83.13975 207.477187 
C 83.13975 222.765847 86.151283 237.905844 92.001999 252.030723 
C 97.852716 266.155603 106.428835 278.990673 117.23955 289.801387 
C 128.050265 300.612102 140.885334 309.188221 155.010214 315.038938 
C 169.135094 320.889655 184.27509 323.901187 199.56375 323.901187 
C 214.85241 323.901187 229.992406 320.889655 244.117286 315.038938 
C 258.242166 309.188221 271.077235 300.612102 281.88795 289.801387 
C 292.698665 278.990673 301.274784 266.155603 307.125501 252.030723 
C 312.976217 237.905844 315.98775 222.765847 315.98775 207.477188 
" clip-path="url(#p9f4ce47b7f)" style="fill: none; stroke: #b0b0b0; stroke-width: 0.8; stroke-linecap: square"/>
     </g>
     <g id="text_16">
      <!-- −9 -->
      <g transform="translate(307.125501 160.843964)scale(0.1 -0.1)">
       <use xlink:href="#DejaVuSans-2212"/>
       <use xlink:href="#DejaVuSans-39" x="83.789062"/>
      </g>
     </g>
    </g>
    <g id="ytick_9">
     <g id="line2d_17">
      <path d="M 332.61975 207.477187 
C 332.61975 190.004434 329.177998 172.70158 322.491465 156.558861 
C 315.804932 140.416141 306.003653 125.74749 293.64855 113.392388 
C 281.293447 101.037285 266.624796 91.236006 250.482077 84.549472 
C 234.339357 77.862939 217.036504 74.421187 199.56375 74.421187 
C 182.090996 74.421187 164.788143 77.862939 148.645423 84.549472 
C 132.502704 91.236006 117.834053 101.037285 105.47895 113.392388 
C 93.123847 125.74749 83.322568 140.416141 76.636035 156.558861 
C 69.949502 172.70158 66.50775 190.004434 66.50775 207.477187 
C 66.50775 224.949941 69.949502 242.252795 76.636035 258.395514 
C 83.322568 274.538234 93.123847 289.206885 105.47895 301.561987 
C 117.834053 313.91709 132.502704 323.718369 148.645423 330.404903 
C 164.788143 337.091436 182.090996 340.533187 199.56375 340.533187 
C 217.036504 340.533187 234.339357 337.091436 250.482077 330.404903 
C 266.624796 323.718369 281.293447 313.91709 293.64855 301.561987 
C 306.003653 289.206885 315.804932 274.538234 322.491465 258.395514 
C 329.177998 242.252795 332.61975 224.949941 332.61975 207.477188 
" clip-path="url(#p9f4ce47b7f)" style="fill: none; stroke: #b0b0b0; stroke-width: 0.8; stroke-linecap: square"/>
     </g>
     <g id="text_17">
      <!-- −6 -->
      <g transform="translate(322.491465 154.479173)scale(0.1 -0.1)">
       <defs>
        <path id="DejaVuSans-36" d="M 2113 2584 
Q 1688 2584 1439 2293 
Q 1191 2003 1191 1497 
Q 1191 994 1439 701 
Q 1688 409 2113 409 
Q 2538 409 2786 701 
Q 3034 994 3034 1497 
Q 3034 2003 2786 2293 
Q 2538 2584 2113 2584 
z
M 3366 4563 
L 3366 3988 
Q 3128 4100 2886 4159 
Q 2644 4219 2406 4219 
Q 1781 4219 1451 3797 
Q 1122 3375 1075 2522 
Q 1259 2794 1537 2939 
Q 1816 3084 2150 3084 
Q 2853 3084 3261 2657 
Q 3669 2231 3669 1497 
Q 3669 778 3244 343 
Q 2819 -91 2113 -91 
Q 1303 -91 875 529 
Q 447 1150 447 2328 
Q 447 3434 972 4092 
Q 1497 4750 2381 4750 
Q 2619 4750 2861 4703 
Q 3103 4656 3366 4563 
z
" transform="scale(0.015625)"/>
       </defs>
       <use xlink:href="#DejaVuSans-2212"/>
       <use xlink:href="#DejaVuSans-36" x="83.789062"/>
      </g>
     </g>
    </g>
    <g id="ytick_10">
     <g id="line2d_18">
      <path d="M 349.25175 207.477187 
C 349.25175 187.820339 345.37978 168.354629 337.857429 150.19407 
C 330.335079 132.03351 319.30864 115.531278 305.40915 101.631788 
C 291.509659 87.732297 275.007427 76.705858 256.846868 69.183508 
C 238.686308 61.661158 219.220598 57.789187 199.56375 57.789187 
C 179.906902 57.789187 160.441192 61.661158 142.280632 69.183508 
C 124.120073 76.705858 107.617841 87.732297 93.71835 101.631788 
C 79.81886 115.531278 68.792421 132.03351 61.270071 150.19407 
C 53.74772 168.354629 49.87575 187.820339 49.87575 207.477187 
C 49.87575 227.134036 53.74772 246.599746 61.270071 264.760305 
C 68.792421 282.920865 79.81886 299.423097 93.71835 313.322587 
C 107.617841 327.222078 124.120073 338.248517 142.280632 345.770867 
C 160.441192 353.293217 179.906902 357.165188 199.56375 357.165188 
C 219.220598 357.165188 238.686308 353.293217 256.846868 345.770867 
C 275.007427 338.248517 291.509659 327.222078 305.40915 313.322587 
C 319.30864 299.423097 330.335079 282.920865 337.857429 264.760305 
C 345.37978 246.599746 349.25175 227.134036 349.25175 207.477188 
" clip-path="url(#p9f4ce47b7f)" style="fill: none; stroke: #b0b0b0; stroke-width: 0.8; stroke-linecap: square"/>
     </g>
     <g id="text_18">
      <!-- −3 -->
      <g transform="translate(337.857429 148.114382)scale(0.1 -0.1)">
       <use xlink:href="#DejaVuSans-2212"/>
       <use xlink:href="#DejaVuSans-33" x="83.789062"/>
      </g>
     </g>
    </g>
   </g>
   <g id="line2d_19">
    <path d="M 326.648862 207.477187 
L 326.280288 205.265342 
L 326.148049 200.843186 
L 326.1236 198.627261 
L 325.480425 196.460906 
L 323.715123 192.233316 
L 322.853717 190.149913 
L 321.848069 188.109254 
L 321.202059 186.029072 
L 320.787443 183.913689 
L 320.070329 181.862723 
L 319.57253 179.770978 
L 318.608091 177.7961 
L 317.847039 175.783276 
L 316.896858 171.604856 
L 316.988784 167.044506 
L 317.171732 164.671383 
L 317.47814 162.214094 
L 317.369312 159.880651 
L 317.148399 157.565465 
L 317.10015 155.14661 
L 316.435257 152.979109 
L 315.811669 145.667072 
L 316.300817 142.768775 
L 316.637304 139.884739 
L 316.737155 137.072303 
L 317.14553 134.003937 
L 316.619372 128.522174 
L 316.608709 125.521425 
L 316.093477 122.813385 
L 315.802459 119.885038 
L 315.863754 116.613666 
L 315.19089 113.844176 
L 313.430117 108.494665 
L 312.290931 105.977178 
L 310.398798 100.445026 
L 307.608773 95.593291 
L 305.877877 93.469244 
L 300.264369 87.466863 
L 298.060361 85.844003 
L 291.057749 81.546502 
L 281.054455 77.064799 
L 273.588024 73.933862 
L 271.09774 72.941318 
L 268.701117 71.787465 
L 261.73041 67.848583 
L 259.437888 66.422558 
L 257.054252 65.183201 
L 247.68555 59.373516 
L 245.164775 58.322954 
L 240.007638 56.538542 
L 237.386013 55.780377 
L 234.722801 55.186607 
L 232.003128 54.861912 
L 229.254288 54.732613 
L 223.73117 54.890101 
L 218.275025 55.086082 
L 215.598675 54.915062 
L 212.913363 54.890412 
L 210.254124 54.597712 
L 199.56375 52.672075 
L 196.849643 51.986129 
L 191.29591 49.717409 
L 185.589854 47.754821 
L 176.922633 46.377273 
L 174.035579 46.298658 
L 171.169714 46.446608 
L 168.3478 46.885046 
L 165.564819 47.524795 
L 162.853271 48.466634 
L 160.213843 49.653332 
L 157.630443 50.979956 
L 155.257047 52.961352 
L 152.957761 55.035867 
L 150.554517 56.642279 
L 148.274295 58.521795 
L 145.913808 60.075184 
L 143.637544 61.784441 
L 141.566504 63.928966 
L 139.475157 65.917334 
L 137.485033 68.046106 
L 135.649172 70.411932 
L 133.64835 72.330589 
L 129.453464 75.618917 
L 127.157522 76.852895 
L 124.631046 77.689937 
L 122.026148 78.432948 
L 117.156134 80.580587 
L 114.786625 81.789932 
L 110.253068 84.551579 
L 107.847733 85.765922 
L 105.53958 87.131738 
L 103.390781 88.713462 
L 101.46457 90.567137 
L 99.388228 92.238432 
L 96.97681 93.542848 
L 94.739336 95.066766 
L 90.58219 98.495628 
L 86.293748 101.851202 
L 84.352212 103.740253 
L 81.252206 108.202015 
L 79.826304 110.515716 
L 78.296498 112.732826 
L 76.913825 115.05384 
L 75.736618 117.51151 
L 74.739409 120.074243 
L 73.039567 128.416103 
L 73.161697 131.527172 
L 73.166178 134.501515 
L 73.031922 137.33945 
L 73.515918 140.456366 
L 73.570737 143.280541 
L 73.834859 146.15511 
L 76.030749 152.476752 
L 77.758689 155.774007 
L 80.730126 159.465287 
L 82.819084 162.663109 
L 85.446238 165.94181 
L 88.455272 169.219471 
L 90.55156 172.05698 
L 92.844752 174.849916 
L 94.641774 177.391295 
L 95.846313 179.686184 
L 97.66868 182.071893 
L 99.115277 184.28683 
L 100.000219 186.314306 
L 101.52902 188.421166 
L 103.307931 190.50469 
L 106.013363 194.329538 
L 107.072617 197.755978 
L 107.270511 199.402575 
L 106.463396 200.966977 
L 105.478132 202.546369 
L 104.852345 204.169792 
L 103.949859 205.808241 
L 100.736406 207.477187 
L 92.380403 211.220112 
L 88.564423 213.294416 
L 85.674265 215.441116 
L 82.975259 217.677359 
L 80.662332 219.97423 
L 79.110175 222.267027 
L 76.680047 224.747366 
L 74.415617 227.298704 
L 71.695203 232.332315 
L 70.944587 234.816035 
L 69.626287 239.874236 
L 69.258277 242.392434 
L 69.589041 244.746835 
L 69.755616 247.163517 
L 70.559238 251.897003 
L 70.598718 254.41662 
L 71.028681 256.817178 
L 71.667764 259.15052 
L 74.044958 266.007562 
L 74.363048 268.54165 
L 75.04772 270.921274 
L 75.875337 273.243483 
L 76.930431 275.453946 
L 78.087454 277.611559 
L 79.367986 279.698088 
L 80.543287 281.849427 
L 81.975628 283.839807 
L 83.243518 285.936175 
L 84.662322 287.932034 
L 87.916499 291.609426 
L 91.967649 294.606792 
L 93.916612 296.125662 
L 96.212051 297.319449 
L 98.253075 298.697729 
L 100.509263 299.846991 
L 103.029741 300.698996 
L 105.188855 301.852082 
L 112.383028 304.301188 
L 115.053611 304.694981 
L 121.72169 307.110481 
L 123.682584 308.174896 
L 125.533025 309.371739 
L 127.125451 310.9298 
L 130.088562 314.459595 
L 133.90893 321.194672 
L 135.056921 323.850587 
L 136.43404 326.206903 
L 138.88571 331.885606 
L 140.442941 334.262172 
L 143.207543 340.244092 
L 144.926797 342.708392 
L 146.462763 345.809989 
L 148.251773 348.455686 
L 150.153248 350.975705 
L 151.969613 353.956881 
L 158.504293 360.713167 
L 160.920664 362.466141 
L 165.940587 365.661731 
L 173.80315 370.123216 
L 176.571567 371.075073 
L 179.376194 371.89164 
L 182.212767 372.560765 
L 187.961853 373.39204 
L 193.767779 373.452082 
L 196.667935 373.378292 
L 202.45105 372.890494 
L 222.190978 368.478282 
L 230.551206 366.893827 
L 233.304484 366.214861 
L 236.006096 365.326331 
L 241.212948 362.914111 
L 245.963883 359.245185 
L 248.298872 357.46847 
L 252.222 352.154541 
L 254.047545 349.412325 
L 255.349184 345.550982 
L 256.758282 342.21906 
L 257.942097 338.597103 
L 258.600211 334.081287 
L 259.571019 330.510322 
L 260.261873 326.603961 
L 260.691945 322.442601 
L 262.477062 316.44624 
L 263.572604 314.005809 
L 264.872653 311.993281 
L 266.312349 310.261016 
L 268.433926 309.581422 
L 270.679207 309.040586 
L 272.453936 307.801922 
L 273.646563 305.788401 
L 275.598486 301.372267 
L 276.520005 299.190081 
L 277.043198 296.607097 
L 273.671329 286.947836 
L 270.537257 280.972405 
L 266.512926 274.426363 
L 264.63627 270.31699 
L 263.918757 267.489202 
L 264.35067 265.811592 
L 265.823315 265.075748 
L 267.069026 264.12084 
L 270.673595 263.034287 
L 272.969515 262.792399 
L 274.237682 261.730975 
L 273.924289 259.544997 
L 272.468425 256.652012 
L 270.767566 253.717486 
L 271.822312 252.629348 
L 284.307829 254.451598 
L 291.419578 256.317798 
L 297.09398 257.171322 
L 302.530689 257.697519 
L 309.074261 258.542778 
L 312.855935 257.918118 
L 319.723573 256.024907 
L 321.862017 254.423094 
L 323.574399 252.613372 
L 325.071878 250.693102 
L 326.139162 248.604032 
L 326.97019 246.429245 
L 327.716475 241.815607 
L 327.887417 239.471871 
L 327.902272 237.10647 
L 327.803314 234.735348 
L 327.00781 232.249803 
L 326.437982 229.848538 
L 326.360082 227.559754 
L 326.910861 225.374657 
L 327.721071 223.212928 
L 328.218778 220.999376 
L 328.19217 218.730716 
L 327.860175 216.448547 
L 327.753605 214.195333 
L 326.928837 209.700353 
L 326.928837 209.700353 
" clip-path="url(#p9f4ce47b7f)" style="fill: none; stroke: #ff0000; stroke-width: 1.5; stroke-linecap: square"/>
   </g>
   <g id="line2d_20">
    <path d="M 322.127176 207.477187 
L 322.833958 201.01687 
L 323.475206 192.262774 
L 324.166312 178.710419 
L 324.554201 166.865328 
L 324.591718 159.483447 
L 324.380145 151.905348 
L 324.053888 146.75929 
L 323.547825 141.553686 
L 322.837632 136.304979 
L 321.905409 131.029635 
L 320.730199 125.749386 
L 319.302182 120.482124 
L 317.599888 115.257249 
L 315.626109 110.089305 
L 313.363777 105.011183 
L 310.815147 100.042962 
L 307.976177 95.212833 
L 304.849097 90.545964 
L 301.438223 86.067918 
L 297.746596 81.808875 
L 293.78331 77.795089 
L 289.562793 74.048119 
L 285.098142 70.593546 
L 280.407467 67.451763 
L 275.507841 64.647126 
L 270.428274 62.183382 
L 265.190402 60.077313 
L 259.825559 58.323975 
L 254.361627 56.921258 
L 248.83236 55.843999 
L 243.267451 55.064269 
L 237.697711 54.530224 
L 232.144214 54.198155 
L 223.885025 53.918704 
L 210.328918 53.528114 
L 199.56375 52.974778 
L 185.983461 52.253778 
L 180.492762 52.156457 
L 174.980559 52.265029 
L 169.467635 52.646096 
L 163.980177 53.347798 
L 158.546766 54.399718 
L 153.20187 55.834311 
L 147.972147 57.644291 
L 142.891703 59.841457 
L 137.986102 62.40934 
L 133.281809 65.335106 
L 128.79441 68.584537 
L 124.541233 72.132984 
L 120.528792 75.940928 
L 116.765414 79.97893 
L 113.250242 84.208723 
L 109.971725 88.584554 
L 106.920205 93.071938 
L 104.082387 97.638445 
L 101.437754 102.24994 
L 98.97769 106.891128 
L 95.59815 113.866141 
L 93.532688 118.506562 
L 90.717421 125.455596 
L 88.242328 132.38994 
L 86.794506 137.011143 
L 85.51306 141.629991 
L 84.415261 146.25165 
L 83.504702 150.871408 
L 82.779963 155.481696 
L 82.254741 160.081271 
L 81.912007 164.655455 
L 81.744113 169.195267 
L 81.781697 175.917582 
L 82.080952 182.505448 
L 83.510027 205.451462 
L 83.546434 211.528601 
L 83.339751 219.692822 
L 83.083427 230.118669 
L 83.128872 234.358297 
L 83.345384 238.617805 
L 83.776633 242.876862 
L 84.458806 247.110998 
L 85.435954 251.286744 
L 86.738419 255.368699 
L 88.393121 259.316903 
L 90.413275 263.092132 
L 91.566946 264.900107 
L 94.169704 268.326468 
L 95.623141 269.931006 
L 97.17089 271.459348 
L 98.819232 272.901443 
L 100.564698 274.252891 
L 102.403673 275.509406 
L 104.341368 276.660298 
L 106.364684 277.707721 
L 108.46958 278.647754 
L 112.894535 280.201294 
L 117.545363 281.326875 
L 124.619719 282.421219 
L 129.057951 283.0854 
L 131.055973 283.562782 
L 132.903491 284.161044 
L 134.501414 285.01546 
L 135.829664 286.182229 
L 136.939905 287.632054 
L 137.814504 289.421204 
L 138.471946 291.562843 
L 138.962976 294.024062 
L 139.695336 299.666461 
L 140.884945 309.111859 
L 141.433959 312.346107 
L 142.093981 315.562102 
L 142.879113 318.727052 
L 143.789143 321.832078 
L 144.832778 324.848137 
L 146.003324 327.775873 
L 147.30082 330.600936 
L 148.722391 333.313966 
L 150.258727 335.921163 
L 151.908707 338.408343 
L 153.663153 340.7822 
L 155.515231 343.044589 
L 157.461618 345.187055 
L 159.49395 347.217186 
L 161.607392 349.132244 
L 163.794351 350.940411 
L 166.049163 352.644812 
L 168.366481 354.2488 
L 173.170794 357.159081 
L 178.169191 359.707384 
L 183.330402 361.927179 
L 188.629194 363.848618 
L 194.045736 365.492424 
L 199.56375 366.880493 
L 205.169605 368.007867 
L 210.849456 368.870308 
L 216.588703 369.458797 
L 222.369521 369.748678 
L 228.169004 369.705642 
L 233.960695 369.30209 
L 239.713423 368.508731 
L 245.391557 367.297743 
L 248.191012 366.529795 
L 250.957229 365.650053 
L 253.684991 364.656683 
L 256.368902 363.548059 
L 259.003597 362.323283 
L 261.583587 360.98167 
L 264.103045 359.522238 
L 266.556675 357.945761 
L 268.938679 356.252204 
L 271.242434 354.440269 
L 273.464143 352.514875 
L 275.596334 350.473681 
L 277.634215 348.320034 
L 279.573095 346.057438 
L 281.402683 343.680044 
L 283.123892 341.201368 
L 284.723319 338.611424 
L 286.202214 335.923992 
L 287.54989 333.134418 
L 288.76494 330.252093 
L 289.836414 327.273058 
L 290.763133 324.207075 
L 291.537416 321.055206 
L 292.158571 317.827398 
L 292.615469 314.520945 
L 292.907701 311.146147 
L 293.035336 307.713192 
L 292.991212 304.224156 
L 292.775913 300.689351 
L 292.394483 297.122785 
L 291.848635 293.534235 
L 291.152885 289.944415 
L 290.318768 286.369321 
L 288.33775 279.364955 
L 284.430315 266.901396 
L 283.84582 264.326162 
L 283.569746 262.031319 
L 283.615752 259.998708 
L 284.044364 258.238261 
L 284.869388 256.72842 
L 286.05537 255.420275 
L 287.466327 254.215817 
L 290.98727 252.067417 
L 296.972076 248.824569 
L 300.943625 246.393275 
L 304.651318 243.661739 
L 306.374079 242.181967 
L 309.502667 239.001665 
L 310.930402 237.317792 
L 313.486741 233.778382 
L 315.657681 230.043562 
L 317.469664 226.15165 
L 318.952007 222.136222 
L 320.147509 218.026899 
L 321.089992 213.846108 
L 321.825808 209.61128 
L 321.825808 209.61128 
" clip-path="url(#p9f4ce47b7f)" style="fill: none; stroke-dasharray: 5.55,2.4; stroke-dashoffset: 0; stroke: #0000ff; stroke-width: 1.5"/>
   </g>
   <g id="patch_3">
    <path d="M 365.88375 207.477187 
C 365.88375 185.636245 361.581561 164.007679 353.223394 143.829279 
C 344.865227 123.650879 332.613628 105.315066 317.16975 89.871188 
C 301.725871 74.427309 283.390058 62.17571 263.211658 53.817544 
C 243.033259 45.459377 221.404692 41.157187 199.56375 41.157187 
C 177.722808 41.157187 156.094241 45.459377 135.915842 53.817544 
C 115.737442 62.17571 97.401629 74.427309 81.95775 89.871188 
C 66.513872 105.315066 54.262273 123.650879 45.904106 143.829279 
C 37.545939 164.007679 33.24375 185.636245 33.24375 207.477187 
C 33.24375 229.31813 37.545939 250.946696 45.904106 271.125096 
C 54.262273 291.303496 66.513872 309.639309 81.95775 325.083187 
C 97.401629 340.527066 115.737442 352.778665 135.915842 361.136831 
C 156.094241 369.494998 177.722808 373.797188 199.56375 373.797188 
C 221.404692 373.797188 243.033259 369.494998 263.211658 361.136831 
C 283.390058 352.778665 301.725871 340.527066 317.16975 325.083187 
C 332.613628 309.639309 344.865227 291.303496 353.223394 271.125096 
C 361.581561 250.946696 365.88375 229.31813 365.88375 207.477188 
" style="fill: none; stroke: #000000; stroke-width: 0.8; stroke-linejoin: miter; stroke-linecap: square"/>
   </g>
   <g id="text_19">
    <!-- Radiation Diagram - 1AVVF11 -->
    <g transform="translate(110.727187 16.318125)scale(0.12 -0.12)">
     <defs>
      <path id="DejaVuSans-52" d="M 2841 2188 
Q 3044 2119 3236 1894 
Q 3428 1669 3622 1275 
L 4263 0 
L 3584 0 
L 2988 1197 
Q 2756 1666 2539 1819 
Q 2322 1972 1947 1972 
L 1259 1972 
L 1259 0 
L 628 0 
L 628 4666 
L 2053 4666 
Q 2853 4666 3247 4331 
Q 3641 3997 3641 3322 
Q 3641 2881 3436 2590 
Q 3231 2300 2841 2188 
z
M 1259 4147 
L 1259 2491 
L 2053 2491 
Q 2509 2491 2742 2702 
Q 2975 2913 2975 3322 
Q 2975 3731 2742 3939 
Q 2509 4147 2053 4147 
L 1259 4147 
z
" transform="scale(0.015625)"/>
      <path id="DejaVuSans-61" d="M 2194 1759 
Q 1497 1759 1228 1600 
Q 959 1441 959 1056 
Q 959 750 1161 570 
Q 1363 391 1709 391 
Q 2188 391 2477 730 
Q 2766 1069 2766 1631 
L 2766 1759 
L 2194 1759 
z
M 3341 1997 
L 3341 0 
L 2766 0 
L 2766 531 
Q 2569 213 2275 61 
Q 1981 -91 1556 -91 
Q 1019 -91 701 211 
Q 384 513 384 1019 
Q 384 1609 779 1909 
Q 1175 2209 1959 2209 
L 2766 2209 
L 2766 2266 
Q 2766 2663 2505 2880 
Q 2244 3097 1772 3097 
Q 1472 3097 1187 3025 
Q 903 2953 641 2809 
L 641 3341 
Q 956 3463 1253 3523 
Q 1550 3584 1831 3584 
Q 2591 3584 2966 3190 
Q 3341 2797 3341 1997 
z
" transform="scale(0.015625)"/>
      <path id="DejaVuSans-64" d="M 2906 2969 
L 2906 4863 
L 3481 4863 
L 3481 0 
L 2906 0 
L 2906 525 
Q 2725 213 2448 61 
Q 2172 -91 1784 -91 
Q 1150 -91 751 415 
Q 353 922 353 1747 
Q 353 2572 751 3078 
Q 1150 3584 1784 3584 
Q 2172 3584 2448 3432 
Q 2725 3281 2906 2969 
z
M 947 1747 
Q 947 1113 1208 752 
Q 1469 391 1925 391 
Q 2381 391 2643 752 
Q 2906 1113 2906 1747 
Q 2906 2381 2643 2742 
Q 2381 3103 1925 3103 
Q 1469 3103 1208 2742 
Q 947 2381 947 1747 
z
" transform="scale(0.015625)"/>
      <path id="DejaVuSans-69" d="M 603 3500 
L 1178 3500 
L 1178 0 
L 603 0 
L 603 3500 
z
M 603 4863 
L 1178 4863 
L 1178 4134 
L 603 4134 
L 603 4863 
z
" transform="scale(0.015625)"/>
      <path id="DejaVuSans-74" d="M 1172 4494 
L 1172 3500 
L 2356 3500 
L 2356 3053 
L 1172 3053 
L 1172 1153 
Q 1172 725 1289 603 
Q 1406 481 1766 481 
L 2356 481 
L 2356 0 
L 1766 0 
Q 1100 0 847 248 
Q 594 497 594 1153 
L 594 3053 
L 172 3053 
L 172 3500 
L 594 3500 
L 594 4494 
L 1172 4494 
z
" transform="scale(0.015625)"/>
      <path id="DejaVuSans-6f" d="M 1959 3097 
Q 1497 3097 1228 2736 
Q 959 2375 959 1747 
Q 959 1119 1226 758 
Q 1494 397 1959 397 
Q 2419 397 2687 759 
Q 2956 1122 2956 1747 
Q 2956 2369 2687 2733 
Q 2419 3097 1959 3097 
z
M 1959 3584 
Q 2709 3584 3137 3096 
Q 3566 2609 3566 1747 
Q 3566 888 3137 398 
Q 2709 -91 1959 -91 
Q 1206 -91 779 398 
Q 353 888 353 1747 
Q 353 2609 779 3096 
Q 1206 3584 1959 3584 
z
" transform="scale(0.015625)"/>
      <path id="DejaVuSans-6e" d="M 3513 2113 
L 3513 0 
L 2938 0 
L 2938 2094 
Q 2938 2591 2744 2837 
Q 2550 3084 2163 3084 
Q 1697 3084 1428 2787 
Q 1159 2491 1159 1978 
L 1159 0 
L 581 0 
L 581 3500 
L 1159 3500 
L 1159 2956 
Q 1366 3272 1645 3428 
Q 1925 3584 2291 3584 
Q 2894 3584 3203 3211 
Q 3513 2838 3513 2113 
z
" transform="scale(0.015625)"/>
      <path id="DejaVuSans-20" transform="scale(0.015625)"/>
      <path id="DejaVuSans-44" d="M 1259 4147 
L 1259 519 
L 2022 519 
Q 2988 519 3436 956 
Q 3884 1394 3884 2338 
Q 3884 3275 3436 3711 
Q 2988 4147 2022 4147 
L 1259 4147 
z
M 628 4666 
L 1925 4666 
Q 3281 4666 3915 4102 
Q 4550 3538 4550 2338 
Q 4550 1131 3912 565 
Q 3275 0 1925 0 
L 628 0 
L 628 4666 
z
" transform="scale(0.015625)"/>
      <path id="DejaVuSans-67" d="M 2906 1791 
Q 2906 2416 2648 2759 
Q 2391 3103 1925 3103 
Q 1463 3103 1205 2759 
Q 947 2416 947 1791 
Q 947 1169 1205 825 
Q 1463 481 1925 481 
Q 2391 481 2648 825 
Q 2906 1169 2906 1791 
z
M 3481 434 
Q 3481 -459 3084 -895 
Q 2688 -1331 1869 -1331 
Q 1566 -1331 1297 -1286 
Q 1028 -1241 775 -1147 
L 775 -588 
Q 1028 -725 1275 -790 
Q 1522 -856 1778 -856 
Q 2344 -856 2625 -561 
Q 2906 -266 2906 331 
L 2906 616 
Q 2728 306 2450 153 
Q 2172 0 1784 0 
Q 1141 0 747 490 
Q 353 981 353 1791 
Q 353 2603 747 3093 
Q 1141 3584 1784 3584 
Q 2172 3584 2450 3431 
Q 2728 3278 2906 2969 
L 2906 3500 
L 3481 3500 
L 3481 434 
z
" transform="scale(0.015625)"/>
      <path id="DejaVuSans-72" d="M 2631 2963 
Q 2534 3019 2420 3045 
Q 2306 3072 2169 3072 
Q 1681 3072 1420 2755 
Q 1159 2438 1159 1844 
L 1159 0 
L 581 0 
L 581 3500 
L 1159 3500 
L 1159 2956 
Q 1341 3275 1631 3429 
Q 1922 3584 2338 3584 
Q 2397 3584 2469 3576 
Q 2541 3569 2628 3553 
L 2631 2963 
z
" transform="scale(0.015625)"/>
      <path id="DejaVuSans-6d" d="M 3328 2828 
Q 3544 3216 3844 3400 
Q 4144 3584 4550 3584 
Q 5097 3584 5394 3201 
Q 5691 2819 5691 2113 
L 5691 0 
L 5113 0 
L 5113 2094 
Q 5113 2597 4934 2840 
Q 4756 3084 4391 3084 
Q 3944 3084 3684 2787 
Q 3425 2491 3425 1978 
L 3425 0 
L 2847 0 
L 2847 2094 
Q 2847 2600 2669 2842 
Q 2491 3084 2119 3084 
Q 1678 3084 1418 2786 
Q 1159 2488 1159 1978 
L 1159 0 
L 581 0 
L 581 3500 
L 1159 3500 
L 1159 2956 
Q 1356 3278 1631 3431 
Q 1906 3584 2284 3584 
Q 2666 3584 2933 3390 
Q 3200 3197 3328 2828 
z
" transform="scale(0.015625)"/>
      <path id="DejaVuSans-2d" d="M 313 2009 
L 1997 2009 
L 1997 1497 
L 313 1497 
L 313 2009 
z
" transform="scale(0.015625)"/>
      <path id="DejaVuSans-41" d="M 2188 4044 
L 1331 1722 
L 3047 1722 
L 2188 4044 
z
M 1831 4666 
L 2547 4666 
L 4325 0 
L 3669 0 
L 3244 1197 
L 1141 1197 
L 716 0 
L 50 0 
L 1831 4666 
z
" transform="scale(0.015625)"/>
      <path id="DejaVuSans-56" d="M 1831 0 
L 50 4666 
L 709 4666 
L 2188 738 
L 3669 4666 
L 4325 4666 
L 2547 0 
L 1831 0 
z
" transform="scale(0.015625)"/>
      <path id="DejaVuSans-46" d="M 628 4666 
L 3309 4666 
L 3309 4134 
L 1259 4134 
L 1259 2759 
L 3109 2759 
L 3109 2228 
L 1259 2228 
L 1259 0 
L 628 0 
L 628 4666 
z
" transform="scale(0.015625)"/>
     </defs>
     <use xlink:href="#DejaVuSans-52"/>
     <use xlink:href="#DejaVuSans-61" x="67.232422"/>
     <use xlink:href="#DejaVuSans-64" x="128.511719"/>
     <use xlink:href="#DejaVuSans-69" x="191.988281"/>
     <use xlink:href="#DejaVuSans-61" x="219.771484"/>
     <use xlink:href="#DejaVuSans-74" x="281.050781"/>
     <use xlink:href="#DejaVuSans-69" x="320.259766"/>
     <use xlink:href="#DejaVuSans-6f" x="348.042969"/>
     <use xlink:href="#DejaVuSans-6e" x="409.224609"/>
     <use xlink:href="#DejaVuSans-20" x="472.603516"/>
     <use xlink:href="#DejaVuSans-44" x="504.390625"/>
     <use xlink:href="#DejaVuSans-69" x="581.392578"/>
     <use xlink:href="#DejaVuSans-61" x="609.175781"/>
     <use xlink:href="#DejaVuSans-67" x="670.455078"/>
     <use xlink:href="#DejaVuSans-72" x="733.931641"/>
     <use xlink:href="#DejaVuSans-61" x="775.044922"/>
     <use xlink:href="#DejaVuSans-6d" x="836.324219"/>
     <use xlink:href="#DejaVuSans-20" x="933.736328"/>
     <use xlink:href="#DejaVuSans-2d" x="965.523438"/>
     <use xlink:href="#DejaVuSans-20" x="1001.607422"/>
     <use xlink:href="#DejaVuSans-31" x="1033.394531"/>
     <use xlink:href="#DejaVuSans-41" x="1097.017578"/>
     <use xlink:href="#DejaVuSans-56" x="1159.050781"/>
     <use xlink:href="#DejaVuSans-56" x="1227.458984"/>
     <use xlink:href="#DejaVuSans-46" x="1295.867188"/>
     <use xlink:href="#DejaVuSans-31" x="1353.386719"/>
     <use xlink:href="#DejaVuSans-31" x="1417.009766"/>
    </g>
   </g>
   <g id="legend_1">
    <g id="patch_4">
     <path d="M 304.104062 78.513437 
L 358.88375 78.513437 
Q 360.88375 78.513437 360.88375 76.513437 
L 360.88375 48.157187 
Q 360.88375 46.157187 358.88375 46.157187 
L 304.104062 46.157187 
Q 302.104062 46.157187 302.104062 48.157187 
L 302.104062 76.513437 
Q 302.104062 78.513437 304.104062 78.513437 
z
" style="fill: #ffffff; opacity: 0.8; stroke: #cccccc; stroke-linejoin: miter"/>
    </g>
    <g id="line2d_21">
     <path d="M 306.104062 54.255625 
L 316.104062 54.255625 
L 326.104062 54.255625 
" style="fill: none; stroke: #ff0000; stroke-width: 1.5; stroke-linecap: square"/>
    </g>
    <g id="text_20">
     <!-- INPE -->
     <g transform="translate(334.104062 57.755625)scale(0.1 -0.1)">
      <defs>
       <path id="DejaVuSans-49" d="M 628 4666 
L 1259 4666 
L 1259 0 
L 628 0 
L 628 4666 
z
" transform="scale(0.015625)"/>
       <path id="DejaVuSans-4e" d="M 628 4666 
L 1478 4666 
L 3547 763 
L 3547 4666 
L 4159 4666 
L 4159 0 
L 3309 0 
L 1241 3903 
L 1241 0 
L 628 0 
L 628 4666 
z
" transform="scale(0.015625)"/>
       <path id="DejaVuSans-50" d="M 1259 4147 
L 1259 2394 
L 2053 2394 
Q 2494 2394 2734 2622 
Q 2975 2850 2975 3272 
Q 2975 3691 2734 3919 
Q 2494 4147 2053 4147 
L 1259 4147 
z
M 628 4666 
L 2053 4666 
Q 2838 4666 3239 4311 
Q 3641 3956 3641 3272 
Q 3641 2581 3239 2228 
Q 2838 1875 2053 1875 
L 1259 1875 
L 1259 0 
L 628 0 
L 628 4666 
z
" transform="scale(0.015625)"/>
       <path id="DejaVuSans-45" d="M 628 4666 
L 3578 4666 
L 3578 4134 
L 1259 4134 
L 1259 2753 
L 3481 2753 
L 3481 2222 
L 1259 2222 
L 1259 531 
L 3634 531 
L 3634 0 
L 628 0 
L 628 4666 
z
" transform="scale(0.015625)"/>
      </defs>
      <use xlink:href="#DejaVuSans-49"/>
      <use xlink:href="#DejaVuSans-4e" x="29.492188"/>
      <use xlink:href="#DejaVuSans-50" x="104.296875"/>
      <use xlink:href="#DejaVuSans-45" x="164.599609"/>
     </g>
    </g>
    <g id="line2d_22">
     <path d="M 306.104062 68.93375 
L 316.104062 68.93375 
L 326.104062 68.93375 
" style="fill: none; stroke-dasharray: 5.55,2.4; stroke-dashoffset: 0; stroke: #0000ff; stroke-width: 1.5"/>
    </g>
    <g id="text_21">
     <!-- CST -->
     <g transform="translate(334.104062 72.43375)scale(0.1 -0.1)">
      <defs>
       <path id="DejaVuSans-43" d="M 4122 4306 
L 4122 3641 
Q 3803 3938 3442 4084 
Q 3081 4231 2675 4231 
Q 1875 4231 1450 3742 
Q 1025 3253 1025 2328 
Q 1025 1406 1450 917 
Q 1875 428 2675 428 
Q 3081 428 3442 575 
Q 3803 722 4122 1019 
L 4122 359 
Q 3791 134 3420 21 
Q 3050 -91 2638 -91 
Q 1578 -91 968 557 
Q 359 1206 359 2328 
Q 359 3453 968 4101 
Q 1578 4750 2638 4750 
Q 3056 4750 3426 4639 
Q 3797 4528 4122 4306 
z
" transform="scale(0.015625)"/>
       <path id="DejaVuSans-53" d="M 3425 4513 
L 3425 3897 
Q 3066 4069 2747 4153 
Q 2428 4238 2131 4238 
Q 1616 4238 1336 4038 
Q 1056 3838 1056 3469 
Q 1056 3159 1242 3001 
Q 1428 2844 1947 2747 
L 2328 2669 
Q 3034 2534 3370 2195 
Q 3706 1856 3706 1288 
Q 3706 609 3251 259 
Q 2797 -91 1919 -91 
Q 1588 -91 1214 -16 
Q 841 59 441 206 
L 441 856 
Q 825 641 1194 531 
Q 1563 422 1919 422 
Q 2459 422 2753 634 
Q 3047 847 3047 1241 
Q 3047 1584 2836 1778 
Q 2625 1972 2144 2069 
L 1759 2144 
Q 1053 2284 737 2584 
Q 422 2884 422 3419 
Q 422 4038 858 4394 
Q 1294 4750 2059 4750 
Q 2388 4750 2728 4690 
Q 3069 4631 3425 4513 
z
" transform="scale(0.015625)"/>
       <path id="DejaVuSans-54" d="M -19 4666 
L 3928 4666 
L 3928 4134 
L 2272 4134 
L 2272 0 
L 1638 0 
L 1638 4134 
L -19 4134 
L -19 4666 
z
" transform="scale(0.015625)"/>
      </defs>
      <use xlink:href="#DejaVuSans-43"/>
      <use xlink:href="#DejaVuSans-53" x="69.824219"/>
      <use xlink:href="#DejaVuSans-54" x="133.300781"/>
     </g>
    </g>
   </g>
  </g>
 </g>
 <defs>
  <clipPath id="p9f4ce47b7f">
   <path d="M 365.88375 207.477187 
C 365.88375 185.636245 361.581561 164.007679 353.223394 143.829279 
C 344.865227 123.650879 332.613628 105.315066 317.16975 89.871188 
C 301.725871 74.427309 283.390058 62.17571 263.211658 53.817544 
C 243.033259 45.459377 221.404692 41.157187 199.56375 41.157187 
C 177.722808 41.157187 156.094241 45.459377 135.915842 53.817544 
C 115.737442 62.17571 97.401629 74.427309 81.95775 89.871188 
C 66.513872 105.315066 54.262273 123.650879 45.904106 143.829279 
C 37.545939 164.007679 33.24375 185.636245 33.24375 207.477187 
C 33.24375 229.31813 37.545939 250.946696 45.904106 271.125096 
C 54.262273 291.303496 66.513872 309.639309 81.95775 325.083187 
C 97.401629 340.527066 115.737442 352.778665 135.915842 361.136831 
C 156.094241 369.494998 177.722808 373.797188 199.56375 373.797188 
C 221.404692 373.797188 243.033259 369.494998 263.211658 361.136831 
C 283.390058 352.778665 301.725871 340.527066 317.16975 325.083187 
C 332.613628 309.639309 344.865227 291.303496 353.223394 271.125096 
C 361.581561 250.946696 365.88375 229.31813 365.88375 207.477188 
M 199.56375 207.477187 
C 199.56375 207.477187 199.56375 207.477187 199.56375 207.477187 
C 199.56375 207.477187 199.56375 207.477187 199.56375 207.477187 
C 199.56375 207.477187 199.56375 207.477187 199.56375 207.477187 
C 199.56375 207.477187 199.56375 207.477187 199.56375 207.477187 
C 199.56375 207.477187 199.56375 207.477187 199.56375 207.477187 
C 199.56375 207.477187 199.56375 207.477187 199.56375 207.477187 
C 199.56375 207.477187 199.56375 207.477187 199.56375 207.477187 
C 199.56375 207.477187 199.56375 207.477187 199.56375 207.477187 
C 199.56375 207.477187 199.56375 207.477187 199.56375 207.477187 
C 199.56375 207.477187 199.56375 207.477187 199.56375 207.477187 
C 199.56375 207.477187 199.56375 207.477187 199.56375 207.477187 
C 199.56375 207.477187 199.56375 207.477187 199.56375 207.477187 
C 199.56375 207.477187 199.56375 207.477187 199.56375 207.477187 
C 199.56375 207.477187 199.56375 207.477187 199.56375 207.477187 
C 199.56375 207.477187 199.56375 207.477187 199.56375 207.477187 
C 199.56375 207.477187 199.56375 207.477187 199.56375 207.477187 
M 365.88375 207.477187 
z
"/>
  </clipPath>
 </defs>
</svg>
