<?xml version="1.0" encoding="utf-8" standalone="no"?>
<!DOCTYPE svg PUBLIC "-//W3C//DTD SVG 1.1//EN"
  "http://www.w3.org/Graphics/SVG/1.1/DTD/svg11.dtd">
<svg xmlns:xlink="http://www.w3.org/1999/xlink" width="506.82625pt" height="514.053188pt" viewBox="0 0 506.82625 514.053188" xmlns="http://www.w3.org/2000/svg" version="1.1">
 <metadata>
  <rdf:RDF xmlns:dc="http://purl.org/dc/elements/1.1/" xmlns:cc="http://creativecommons.org/ns#" xmlns:rdf="http://www.w3.org/1999/02/22-rdf-syntax-ns#">
   <cc:Work>
    <dc:type rdf:resource="http://purl.org/dc/dcmitype/StillImage"/>
    <dc:date>2023-11-04T18:28:46.290830</dc:date>
    <dc:format>image/svg+xml</dc:format>
    <dc:creator>
     <cc:Agent>
      <dc:title>Matplotlib v3.5.1, https://matplotlib.org/</dc:title>
     </cc:Agent>
    </dc:creator>
   </cc:Work>
  </rdf:RDF>
 </metadata>
 <defs>
  <style type="text/css">*{stroke-linejoin: round; stroke-linecap: butt}</style>
 </defs>
 <g id="figure_1">
  <g id="patch_1">
   <path d="M 0 514.053188 
L 506.82625 514.053188 
L 506.82625 0 
L 0 0 
z
" style="fill: #ffffff"/>
  </g>
  <g id="axes_1">
   <g id="patch_2">
    <path d="M 473.5825 262.917188 
C 473.5825 233.795931 467.846247 204.957842 456.702025 178.05331 
C 445.557803 151.148777 429.222338 126.701026 408.6305 106.109188 
C 388.038662 85.51735 363.590911 69.181885 336.686378 58.037662 
C 309.781845 46.89344 280.943756 41.157188 251.8225 41.157188 
C 222.701244 41.157188 193.863155 46.89344 166.958622 58.037662 
C 140.054089 69.181885 115.606338 85.51735 95.0145 106.109188 
C 74.422662 126.701026 58.087197 151.148777 46.942975 178.05331 
C 35.798753 204.957842 30.0625 233.795931 30.0625 262.917188 
C 30.0625 292.038444 35.798753 320.876533 46.942975 347.781065 
C 58.087197 374.685598 74.422662 399.133349 95.0145 419.725187 
C 115.606338 440.317025 140.054089 456.65249 166.958622 467.796713 
C 193.863155 478.940935 222.701244 484.677188 251.8225 484.677188 
C 280.943756 484.677188 309.781845 478.940935 336.686378 467.796713 
C 363.590911 456.65249 388.038662 440.317025 408.6305 419.725187 
C 429.222338 399.133349 445.557803 374.685598 456.702025 347.781065 
C 467.846247 320.876533 473.5825 292.038444 473.5825 262.917188 
M 251.8225 262.917188 
C 251.8225 262.917188 251.8225 262.917188 251.8225 262.917188 
C 251.8225 262.917188 251.8225 262.917188 251.8225 262.917188 
C 251.8225 262.917188 251.8225 262.917188 251.8225 262.917188 
C 251.8225 262.917188 251.8225 262.917188 251.8225 262.917188 
C 251.8225 262.917188 251.8225 262.917188 251.8225 262.917188 
C 251.8225 262.917188 251.8225 262.917188 251.8225 262.917188 
C 251.8225 262.917188 251.8225 262.917188 251.8225 262.917188 
C 251.8225 262.917188 251.8225 262.917188 251.8225 262.917188 
C 251.8225 262.917188 251.8225 262.917188 251.8225 262.917188 
C 251.8225 262.917188 251.8225 262.917188 251.8225 262.917188 
C 251.8225 262.917188 251.8225 262.917188 251.8225 262.917188 
C 251.8225 262.917188 251.8225 262.917188 251.8225 262.917188 
C 251.8225 262.917188 251.8225 262.917188 251.8225 262.917188 
C 251.8225 262.917188 251.8225 262.917188 251.8225 262.917188 
C 251.8225 262.917188 251.8225 262.917188 251.8225 262.917188 
C 251.8225 262.917188 251.8225 262.917188 251.8225 262.917188 
M 473.5825 262.917188 
z
" style="fill: #ffffff"/>
   </g>
   <g id="matplotlib.axis_1">
    <g id="xtick_1">
     <g id="line2d_1">
      <path d="M 251.8225 262.917188 
L 251.8225 41.157188 
" clip-path="url(#p9ad4356cb0)" style="fill: none; stroke: #b0b0b0; stroke-width: 0.8; stroke-linecap: square"/>
     </g>
     <g id="text_1">
      <!-- 0° -->
      <g transform="translate(246.14125 29.916563)scale(0.1 -0.1)">
       <defs>
        <path id="DejaVuSans-30" d="M 2034 4250 
Q 1547 4250 1301 3770 
Q 1056 3291 1056 2328 
Q 1056 1369 1301 889 
Q 1547 409 2034 409 
Q 2525 409 2770 889 
Q 3016 1369 3016 2328 
Q 3016 3291 2770 3770 
Q 2525 4250 2034 4250 
z
M 2034 4750 
Q 2819 4750 3233 4129 
Q 3647 3509 3647 2328 
Q 3647 1150 3233 529 
Q 2819 -91 2034 -91 
Q 1250 -91 836 529 
Q 422 1150 422 2328 
Q 422 3509 836 4129 
Q 1250 4750 2034 4750 
z
" transform="scale(0.015625)"/>
        <path id="DejaVuSans-b0" d="M 1600 4347 
Q 1350 4347 1178 4173 
Q 1006 4000 1006 3750 
Q 1006 3503 1178 3333 
Q 1350 3163 1600 3163 
Q 1850 3163 2022 3333 
Q 2194 3503 2194 3750 
Q 2194 3997 2020 4172 
Q 1847 4347 1600 4347 
z
M 1600 4750 
Q 1800 4750 1984 4673 
Q 2169 4597 2303 4453 
Q 2447 4313 2519 4134 
Q 2591 3956 2591 3750 
Q 2591 3338 2302 3052 
Q 2013 2766 1594 2766 
Q 1172 2766 890 3047 
Q 609 3328 609 3750 
Q 609 4169 896 4459 
Q 1184 4750 1600 4750 
z
" transform="scale(0.015625)"/>
       </defs>
       <use xlink:href="#DejaVuSans-30"/>
       <use xlink:href="#DejaVuSans-b0" x="63.623047"/>
      </g>
     </g>
    </g>
    <g id="xtick_2">
     <g id="line2d_2">
      <path d="M 251.8225 262.917188 
L 95.0145 106.109188 
" clip-path="url(#p9ad4356cb0)" style="fill: none; stroke: #b0b0b0; stroke-width: 0.8; stroke-linecap: square"/>
     </g>
     <g id="text_2">
      <!-- 45° -->
      <g transform="translate(76.252505 98.969068)scale(0.1 -0.1)">
       <defs>
        <path id="DejaVuSans-34" d="M 2419 4116 
L 825 1625 
L 2419 1625 
L 2419 4116 
z
M 2253 4666 
L 3047 4666 
L 3047 1625 
L 3713 1625 
L 3713 1100 
L 3047 1100 
L 3047 0 
L 2419 0 
L 2419 1100 
L 313 1100 
L 313 1709 
L 2253 4666 
z
" transform="scale(0.015625)"/>
        <path id="DejaVuSans-35" d="M 691 4666 
L 3169 4666 
L 3169 4134 
L 1269 4134 
L 1269 2991 
Q 1406 3038 1543 3061 
Q 1681 3084 1819 3084 
Q 2600 3084 3056 2656 
Q 3513 2228 3513 1497 
Q 3513 744 3044 326 
Q 2575 -91 1722 -91 
Q 1428 -91 1123 -41 
Q 819 9 494 109 
L 494 744 
Q 775 591 1075 516 
Q 1375 441 1709 441 
Q 2250 441 2565 725 
Q 2881 1009 2881 1497 
Q 2881 1984 2565 2268 
Q 2250 2553 1709 2553 
Q 1456 2553 1204 2497 
Q 953 2441 691 2322 
L 691 4666 
z
" transform="scale(0.015625)"/>
       </defs>
       <use xlink:href="#DejaVuSans-34"/>
       <use xlink:href="#DejaVuSans-35" x="63.623047"/>
       <use xlink:href="#DejaVuSans-b0" x="127.246094"/>
      </g>
     </g>
    </g>
    <g id="xtick_3">
     <g id="line2d_3">
      <path d="M 251.8225 262.917188 
L 30.0625 262.917188 
" clip-path="url(#p9ad4356cb0)" style="fill: none; stroke: #b0b0b0; stroke-width: 0.8; stroke-linecap: square"/>
     </g>
     <g id="text_3">
      <!-- 90° -->
      <g transform="translate(7.2 265.676563)scale(0.1 -0.1)">
       <defs>
        <path id="DejaVuSans-39" d="M 703 97 
L 703 672 
Q 941 559 1184 500 
Q 1428 441 1663 441 
Q 2288 441 2617 861 
Q 2947 1281 2994 2138 
Q 2813 1869 2534 1725 
Q 2256 1581 1919 1581 
Q 1219 1581 811 2004 
Q 403 2428 403 3163 
Q 403 3881 828 4315 
Q 1253 4750 1959 4750 
Q 2769 4750 3195 4129 
Q 3622 3509 3622 2328 
Q 3622 1225 3098 567 
Q 2575 -91 1691 -91 
Q 1453 -91 1209 -44 
Q 966 3 703 97 
z
M 1959 2075 
Q 2384 2075 2632 2365 
Q 2881 2656 2881 3163 
Q 2881 3666 2632 3958 
Q 2384 4250 1959 4250 
Q 1534 4250 1286 3958 
Q 1038 3666 1038 3163 
Q 1038 2656 1286 2365 
Q 1534 2075 1959 2075 
z
" transform="scale(0.015625)"/>
       </defs>
       <use xlink:href="#DejaVuSans-39"/>
       <use xlink:href="#DejaVuSans-30" x="63.623047"/>
       <use xlink:href="#DejaVuSans-b0" x="127.246094"/>
      </g>
     </g>
    </g>
    <g id="xtick_4">
     <g id="line2d_4">
      <path d="M 251.8225 262.917188 
L 95.0145 419.725187 
" clip-path="url(#p9ad4356cb0)" style="fill: none; stroke: #b0b0b0; stroke-width: 0.8; stroke-linecap: square"/>
     </g>
     <g id="text_4">
      <!-- 135° -->
      <g transform="translate(73.071255 432.384057)scale(0.1 -0.1)">
       <defs>
        <path id="DejaVuSans-31" d="M 794 531 
L 1825 531 
L 1825 4091 
L 703 3866 
L 703 4441 
L 1819 4666 
L 2450 4666 
L 2450 531 
L 3481 531 
L 3481 0 
L 794 0 
L 794 531 
z
" transform="scale(0.015625)"/>
        <path id="DejaVuSans-33" d="M 2597 2516 
Q 3050 2419 3304 2112 
Q 3559 1806 3559 1356 
Q 3559 666 3084 287 
Q 2609 -91 1734 -91 
Q 1441 -91 1130 -33 
Q 819 25 488 141 
L 488 750 
Q 750 597 1062 519 
Q 1375 441 1716 441 
Q 2309 441 2620 675 
Q 2931 909 2931 1356 
Q 2931 1769 2642 2001 
Q 2353 2234 1838 2234 
L 1294 2234 
L 1294 2753 
L 1863 2753 
Q 2328 2753 2575 2939 
Q 2822 3125 2822 3475 
Q 2822 3834 2567 4026 
Q 2313 4219 1838 4219 
Q 1578 4219 1281 4162 
Q 984 4106 628 3988 
L 628 4550 
Q 988 4650 1302 4700 
Q 1616 4750 1894 4750 
Q 2613 4750 3031 4423 
Q 3450 4097 3450 3541 
Q 3450 3153 3228 2886 
Q 3006 2619 2597 2516 
z
" transform="scale(0.015625)"/>
       </defs>
       <use xlink:href="#DejaVuSans-31"/>
       <use xlink:href="#DejaVuSans-33" x="63.623047"/>
       <use xlink:href="#DejaVuSans-35" x="127.246094"/>
       <use xlink:href="#DejaVuSans-b0" x="190.869141"/>
      </g>
     </g>
    </g>
    <g id="xtick_5">
     <g id="line2d_5">
      <path d="M 251.8225 262.917188 
L 251.8225 484.677188 
" clip-path="url(#p9ad4356cb0)" style="fill: none; stroke: #b0b0b0; stroke-width: 0.8; stroke-linecap: square"/>
     </g>
     <g id="text_5">
      <!-- 180° -->
      <g transform="translate(239.77875 501.436563)scale(0.1 -0.1)">
       <defs>
        <path id="DejaVuSans-38" d="M 2034 2216 
Q 1584 2216 1326 1975 
Q 1069 1734 1069 1313 
Q 1069 891 1326 650 
Q 1584 409 2034 409 
Q 2484 409 2743 651 
Q 3003 894 3003 1313 
Q 3003 1734 2745 1975 
Q 2488 2216 2034 2216 
z
M 1403 2484 
Q 997 2584 770 2862 
Q 544 3141 544 3541 
Q 544 4100 942 4425 
Q 1341 4750 2034 4750 
Q 2731 4750 3128 4425 
Q 3525 4100 3525 3541 
Q 3525 3141 3298 2862 
Q 3072 2584 2669 2484 
Q 3125 2378 3379 2068 
Q 3634 1759 3634 1313 
Q 3634 634 3220 271 
Q 2806 -91 2034 -91 
Q 1263 -91 848 271 
Q 434 634 434 1313 
Q 434 1759 690 2068 
Q 947 2378 1403 2484 
z
M 1172 3481 
Q 1172 3119 1398 2916 
Q 1625 2713 2034 2713 
Q 2441 2713 2670 2916 
Q 2900 3119 2900 3481 
Q 2900 3844 2670 4047 
Q 2441 4250 2034 4250 
Q 1625 4250 1398 4047 
Q 1172 3844 1172 3481 
z
" transform="scale(0.015625)"/>
       </defs>
       <use xlink:href="#DejaVuSans-31"/>
       <use xlink:href="#DejaVuSans-38" x="63.623047"/>
       <use xlink:href="#DejaVuSans-30" x="127.246094"/>
       <use xlink:href="#DejaVuSans-b0" x="190.869141"/>
      </g>
     </g>
    </g>
    <g id="xtick_6">
     <g id="line2d_6">
      <path d="M 251.8225 262.917188 
L 408.6305 419.725187 
" clip-path="url(#p9ad4356cb0)" style="fill: none; stroke: #b0b0b0; stroke-width: 0.8; stroke-linecap: square"/>
     </g>
     <g id="text_6">
      <!-- 225° -->
      <g transform="translate(406.486245 432.384057)scale(0.1 -0.1)">
       <defs>
        <path id="DejaVuSans-32" d="M 1228 531 
L 3431 531 
L 3431 0 
L 469 0 
L 469 531 
Q 828 903 1448 1529 
Q 2069 2156 2228 2338 
Q 2531 2678 2651 2914 
Q 2772 3150 2772 3378 
Q 2772 3750 2511 3984 
Q 2250 4219 1831 4219 
Q 1534 4219 1204 4116 
Q 875 4013 500 3803 
L 500 4441 
Q 881 4594 1212 4672 
Q 1544 4750 1819 4750 
Q 2544 4750 2975 4387 
Q 3406 4025 3406 3419 
Q 3406 3131 3298 2873 
Q 3191 2616 2906 2266 
Q 2828 2175 2409 1742 
Q 1991 1309 1228 531 
z
" transform="scale(0.015625)"/>
       </defs>
       <use xlink:href="#DejaVuSans-32"/>
       <use xlink:href="#DejaVuSans-32" x="63.623047"/>
       <use xlink:href="#DejaVuSans-35" x="127.246094"/>
       <use xlink:href="#DejaVuSans-b0" x="190.869141"/>
      </g>
     </g>
    </g>
    <g id="xtick_7">
     <g id="line2d_7">
      <path d="M 251.8225 262.917188 
L 473.5825 262.917188 
" clip-path="url(#p9ad4356cb0)" style="fill: none; stroke: #b0b0b0; stroke-width: 0.8; stroke-linecap: square"/>
     </g>
     <g id="text_7">
      <!-- 270° -->
      <g transform="translate(475.53875 265.676563)scale(0.1 -0.1)">
       <defs>
        <path id="DejaVuSans-37" d="M 525 4666 
L 3525 4666 
L 3525 4397 
L 1831 0 
L 1172 0 
L 2766 4134 
L 525 4134 
L 525 4666 
z
" transform="scale(0.015625)"/>
       </defs>
       <use xlink:href="#DejaVuSans-32"/>
       <use xlink:href="#DejaVuSans-37" x="63.623047"/>
       <use xlink:href="#DejaVuSans-30" x="127.246094"/>
       <use xlink:href="#DejaVuSans-b0" x="190.869141"/>
      </g>
     </g>
    </g>
    <g id="xtick_8">
     <g id="line2d_8">
      <path d="M 251.8225 262.917188 
L 408.6305 106.109188 
" clip-path="url(#p9ad4356cb0)" style="fill: none; stroke: #b0b0b0; stroke-width: 0.8; stroke-linecap: square"/>
     </g>
     <g id="text_8">
      <!-- 315° -->
      <g transform="translate(406.486245 98.969068)scale(0.1 -0.1)">
       <use xlink:href="#DejaVuSans-33"/>
       <use xlink:href="#DejaVuSans-31" x="63.623047"/>
       <use xlink:href="#DejaVuSans-35" x="127.246094"/>
       <use xlink:href="#DejaVuSans-b0" x="190.869141"/>
      </g>
     </g>
    </g>
   </g>
   <g id="matplotlib.axis_2">
    <g id="ytick_1">
     <g id="line2d_9">
      <path d="M 251.8225 236.510155 
C 248.35476 236.510155 244.92074 237.193224 241.716966 238.52027 
C 238.513192 239.847317 235.60197 241.792533 233.149908 244.244596 
C 230.697846 246.696658 228.75263 249.60788 227.425583 252.811654 
C 226.098536 256.015427 225.415467 259.449448 225.415467 262.917188 
C 225.415467 266.384927 226.098536 269.818948 227.425583 273.022721 
C 228.75263 276.226495 230.697846 279.137717 233.149908 281.589779 
C 235.60197 284.041842 238.513192 285.987058 241.716966 287.314105 
C 244.92074 288.641151 248.35476 289.32422 251.8225 289.32422 
C 255.29024 289.32422 258.72426 288.641151 261.928034 287.314105 
C 265.131808 285.987058 268.04303 284.041842 270.495092 281.589779 
C 272.947154 279.137717 274.89237 276.226495 276.219417 273.022721 
C 277.546464 269.818948 278.229533 266.384927 278.229533 262.917188 
C 278.229533 259.449448 277.546464 256.015427 276.219417 252.811654 
C 274.89237 249.60788 272.947154 246.696658 270.495092 244.244596 
C 268.04303 241.792533 265.131808 239.847317 261.928034 238.52027 
C 258.72426 237.193224 255.29024 236.510155 251.8225 236.510155 
" clip-path="url(#p9ad4356cb0)" style="fill: none; stroke: #b0b0b0; stroke-width: 0.8; stroke-linecap: square"/>
     </g>
     <g id="text_9">
      <!-- −50 -->
      <g transform="translate(241.716966 236.440583)scale(0.1 -0.1)">
       <defs>
        <path id="DejaVuSans-2212" d="M 678 2272 
L 4684 2272 
L 4684 1741 
L 678 1741 
L 678 2272 
z
" transform="scale(0.015625)"/>
       </defs>
       <use xlink:href="#DejaVuSans-2212"/>
       <use xlink:href="#DejaVuSans-35" x="83.789062"/>
       <use xlink:href="#DejaVuSans-30" x="147.412109"/>
      </g>
     </g>
    </g>
    <g id="ytick_2">
     <g id="line2d_10">
      <path d="M 251.8225 197.439561 
C 243.224057 197.439561 234.709223 199.133267 226.765297 202.423749 
C 218.821372 205.714231 211.602844 210.537497 205.522827 216.617514 
C 199.442809 222.697531 194.619543 229.916059 191.329061 237.859985 
C 188.03858 245.80391 186.344874 254.318744 186.344874 262.917188 
C 186.344874 271.515631 188.03858 280.030465 191.329061 287.97439 
C 194.619543 295.918316 199.442809 303.136844 205.522827 309.216861 
C 211.602844 315.296878 218.821372 320.120144 226.765297 323.410626 
C 234.709223 326.701108 243.224057 328.394814 251.8225 328.394814 
C 260.420943 328.394814 268.935777 326.701108 276.879703 323.410626 
C 284.823628 320.120144 292.042156 315.296878 298.122173 309.216861 
C 304.202191 303.136844 309.025457 295.918316 312.315939 287.97439 
C 315.60642 280.030465 317.300126 271.515631 317.300126 262.917188 
C 317.300126 254.318744 315.60642 245.80391 312.315939 237.859985 
C 309.025457 229.916059 304.202191 222.697531 298.122173 216.617514 
C 292.042156 210.537497 284.823628 205.714231 276.879703 202.423749 
C 268.935777 199.133267 260.420943 197.439561 251.8225 197.439561 
" clip-path="url(#p9ad4356cb0)" style="fill: none; stroke: #b0b0b0; stroke-width: 0.8; stroke-linecap: square"/>
     </g>
     <g id="text_10">
      <!-- −40 -->
      <g transform="translate(226.765297 200.344061)scale(0.1 -0.1)">
       <use xlink:href="#DejaVuSans-2212"/>
       <use xlink:href="#DejaVuSans-34" x="83.789062"/>
       <use xlink:href="#DejaVuSans-30" x="147.412109"/>
      </g>
     </g>
    </g>
    <g id="ytick_3">
     <g id="line2d_11">
      <path d="M 251.8225 158.368968 
C 238.093354 158.368968 224.497706 161.07331 211.813628 166.327227 
C 199.129551 171.581144 187.603717 179.28246 177.895745 188.990432 
C 168.187772 198.698405 160.486457 210.224239 155.23254 222.908316 
C 149.978623 235.592393 147.27428 249.188041 147.27428 262.917188 
C 147.27428 276.646334 149.978623 290.241982 155.23254 302.926059 
C 160.486457 315.610136 168.187772 327.13597 177.895745 336.843943 
C 187.603717 346.551915 199.129551 354.253231 211.813628 359.507148 
C 224.497706 364.761065 238.093354 367.465407 251.8225 367.465407 
C 265.551646 367.465407 279.147294 364.761065 291.831372 359.507148 
C 304.515449 354.253231 316.041283 346.551915 325.749255 336.843943 
C 335.457228 327.13597 343.158543 315.610136 348.41246 302.926059 
C 353.666377 290.241982 356.37072 276.646334 356.37072 262.917188 
C 356.37072 249.188041 353.666377 235.592393 348.41246 222.908316 
C 343.158543 210.224239 335.457228 198.698405 325.749255 188.990432 
C 316.041283 179.28246 304.515449 171.581144 291.831372 166.327227 
C 279.147294 161.07331 265.551646 158.368968 251.8225 158.368968 
" clip-path="url(#p9ad4356cb0)" style="fill: none; stroke: #b0b0b0; stroke-width: 0.8; stroke-linecap: square"/>
     </g>
     <g id="text_11">
      <!-- −30 -->
      <g transform="translate(211.813628 164.24754)scale(0.1 -0.1)">
       <use xlink:href="#DejaVuSans-2212"/>
       <use xlink:href="#DejaVuSans-33" x="83.789062"/>
       <use xlink:href="#DejaVuSans-30" x="147.412109"/>
      </g>
     </g>
    </g>
    <g id="ytick_4">
     <g id="line2d_12">
      <path d="M 251.8225 119.298374 
C 232.96265 119.298374 214.286189 123.013354 196.86196 130.230706 
C 179.437731 137.448058 163.604591 148.027423 150.268663 161.363351 
C 136.932736 174.699279 126.35337 190.532418 119.136018 207.956647 
C 111.918666 225.380876 108.203687 244.057338 108.203687 262.917188 
C 108.203687 281.777037 111.918666 300.453499 119.136018 317.877728 
C 126.35337 335.301957 136.932736 351.135096 150.268663 364.471024 
C 163.604591 377.806952 179.437731 388.386317 196.86196 395.603669 
C 214.286189 402.821021 232.96265 406.536001 251.8225 406.536001 
C 270.68235 406.536001 289.358811 402.821021 306.78304 395.603669 
C 324.207269 388.386317 340.040409 377.806952 353.376337 364.471024 
C 366.712264 351.135096 377.29163 335.301957 384.508982 317.877728 
C 391.726334 300.453499 395.441313 281.777037 395.441313 262.917188 
C 395.441313 244.057338 391.726334 225.380876 384.508982 207.956647 
C 377.29163 190.532418 366.712264 174.699279 353.376337 161.363351 
C 340.040409 148.027423 324.207269 137.448058 306.78304 130.230706 
C 289.358811 123.013354 270.68235 119.298374 251.8225 119.298374 
" clip-path="url(#p9ad4356cb0)" style="fill: none; stroke: #b0b0b0; stroke-width: 0.8; stroke-linecap: square"/>
     </g>
     <g id="text_12">
      <!-- −20 -->
      <g transform="translate(196.86196 128.151018)scale(0.1 -0.1)">
       <use xlink:href="#DejaVuSans-2212"/>
       <use xlink:href="#DejaVuSans-32" x="83.789062"/>
       <use xlink:href="#DejaVuSans-30" x="147.412109"/>
      </g>
     </g>
    </g>
    <g id="ytick_5">
     <g id="line2d_13">
      <path d="M 251.8225 80.227781 
C 227.831947 80.227781 204.074672 84.953397 181.910291 94.134184 
C 159.74591 103.314971 139.605465 116.772387 122.641582 133.736269 
C 105.677699 150.700152 92.220284 170.840597 83.039496 193.004978 
C 73.858709 215.169359 69.133093 238.926634 69.133093 262.917188 
C 69.133093 286.907741 73.858709 310.665016 83.039496 332.829397 
C 92.220284 354.993778 105.677699 375.134223 122.641582 392.098106 
C 139.605465 409.061988 159.74591 422.519404 181.910291 431.700191 
C 204.074672 440.880978 227.831947 445.606594 251.8225 445.606594 
C 275.813053 445.606594 299.570328 440.880978 321.734709 431.700191 
C 343.89909 422.519404 364.039535 409.061988 381.003418 392.098106 
C 397.967301 375.134223 411.424716 354.993778 420.605504 332.829397 
C 429.786291 310.665016 434.511907 286.907741 434.511907 262.917188 
C 434.511907 238.926634 429.786291 215.169359 420.605504 193.004978 
C 411.424716 170.840597 397.967301 150.700152 381.003418 133.736269 
C 364.039535 116.772387 343.89909 103.314971 321.734709 94.134184 
C 299.570328 84.953397 275.813053 80.227781 251.8225 80.227781 
" clip-path="url(#p9ad4356cb0)" style="fill: none; stroke: #b0b0b0; stroke-width: 0.8; stroke-linecap: square"/>
     </g>
     <g id="text_13">
      <!-- −10 -->
      <g transform="translate(181.910291 92.054496)scale(0.1 -0.1)">
       <use xlink:href="#DejaVuSans-2212"/>
       <use xlink:href="#DejaVuSans-31" x="83.789062"/>
       <use xlink:href="#DejaVuSans-30" x="147.412109"/>
      </g>
     </g>
    </g>
    <g id="ytick_6">
     <g id="line2d_14">
      <path d="M 251.8225 41.157188 
C 222.701244 41.157188 193.863155 46.89344 166.958622 58.037662 
C 140.054089 69.181885 115.606338 85.51735 95.0145 106.109188 
C 74.422662 126.701026 58.087197 151.148777 46.942975 178.05331 
C 35.798753 204.957842 30.0625 233.795931 30.0625 262.917188 
C 30.0625 292.038444 35.798753 320.876533 46.942975 347.781065 
C 58.087197 374.685598 74.422662 399.133349 95.0145 419.725187 
C 115.606338 440.317025 140.054089 456.65249 166.958622 467.796713 
C 193.863155 478.940935 222.701244 484.677188 251.8225 484.677188 
C 280.943756 484.677188 309.781845 478.940935 336.686378 467.796713 
C 363.590911 456.65249 388.038662 440.317025 408.6305 419.725187 
C 429.222338 399.133349 445.557803 374.685598 456.702025 347.781065 
C 467.846247 320.876533 473.5825 292.038444 473.5825 262.917188 
C 473.5825 233.795931 467.846247 204.957842 456.702025 178.05331 
C 445.557803 151.148777 429.222338 126.701026 408.6305 106.109188 
C 388.038662 85.51735 363.590911 69.181885 336.686378 58.037662 
C 309.781845 46.89344 280.943756 41.157188 251.8225 41.157188 
" clip-path="url(#p9ad4356cb0)" style="fill: none; stroke: #b0b0b0; stroke-width: 0.8; stroke-linecap: square"/>
     </g>
     <g id="text_14">
      <!-- 0 -->
      <g transform="translate(166.958622 55.957975)scale(0.1 -0.1)">
       <use xlink:href="#DejaVuSans-30"/>
      </g>
     </g>
    </g>
   </g>
   <g id="line2d_15">
    <path d="M 251.8225 476.644273 
L 259.305057 477.189586 
L 266.813111 477.292908 
L 270.569226 477.193245 
L 274.321523 476.981089 
L 281.786152 476.119649 
L 285.490871 475.490919 
L 289.172599 474.740127 
L 296.438383 472.818415 
L 300.037741 471.760342 
L 310.551667 467.730134 
L 317.188065 464.091711 
L 320.39271 462.059536 
L 329.181324 454.386996 
L 331.692888 451.08003 
L 334.308301 448.18333 
L 341.57125 439.059026 
L 343.987857 436.255013 
L 346.313288 433.383082 
L 348.709367 430.730164 
L 350.97942 427.942015 
L 355.32706 422.300232 
L 357.175297 419.109132 
L 359.347337 416.47857 
L 363.082121 410.563692 
L 367.402449 405.646538 
L 374.245962 398.882217 
L 378.012711 393.590976 
L 379.514319 390.609006 
L 383.397421 381.387778 
L 384.118065 377.919968 
L 385.228048 374.857734 
L 385.962001 371.541214 
L 387.976879 365.516871 
L 388.548781 362.254645 
L 389.381504 359.237039 
L 389.376669 355.698646 
L 388.199584 351.481501 
L 387.229502 347.528873 
L 384.616518 342.707883 
L 375.671074 331.567573 
L 369.323017 325.393321 
L 362.037082 319.074322 
L 356.293138 313.870922 
L 351.752305 309.515221 
L 350.89062 307.025156 
L 348.214292 303.833076 
L 342.831409 299.687174 
L 334.581126 294.685248 
L 341.555305 295.577257 
L 357.191348 299.198591 
L 367.889555 300.62966 
L 373.787081 300.205502 
L 378.543042 299.253718 
L 379.65606 297.170087 
L 379.802212 294.826113 
L 376.209097 291.634096 
L 374.295138 288.94955 
L 371.919555 286.26169 
L 377.971031 282.897152 
L 383.040086 281.358617 
L 386.26979 279.425239 
L 388.752243 277.309083 
L 389.687048 274.978773 
L 389.525775 272.546339 
L 388.4074 267.686837 
L 390.587143 265.339333 
L 393.085356 262.917188 
L 397.153909 260.380418 
L 399.613829 257.756201 
L 401.639383 255.065617 
L 402.025192 252.413992 
L 400.888776 249.875578 
L 398.617923 247.488367 
L 394.487138 245.400173 
L 392.051071 243.209347 
L 388.714367 241.235646 
L 386.599048 239.152446 
L 386.083228 236.819546 
L 385.970372 234.403177 
L 386.453523 231.835167 
L 385.867816 229.495936 
L 383.358285 227.67228 
L 379.726089 226.241423 
L 375.020073 225.25191 
L 368.498952 225.00671 
L 364.782923 224.021795 
L 362.636683 222.584123 
L 362.8059 220.314652 
L 362.690296 218.12369 
L 361.319818 216.438334 
L 355.876899 216.589184 
L 348.165274 217.991814 
L 334.131167 222.772568 
L 308.342816 234.118648 
L 307.196854 233.474121 
L 334.090692 217.315184 
L 346.617115 208.187491 
L 359.499873 195.632897 
L 366.864758 188.207872 
L 369.948553 183.240158 
L 374.35207 177.121059 
L 377.517319 171.594556 
L 379.714281 166.543818 
L 382.236976 161.026232 
L 383.463081 156.316747 
L 383.988954 152.016365 
L 384.224218 147.82213 
L 383.748746 144.130262 
L 381.38895 137.796321 
L 379.898335 134.841353 
L 376.408382 129.315186 
L 374.434194 126.743105 
L 370.727184 121.212103 
L 368.727738 118.551241 
L 366.863919 115.670886 
L 364.85267 112.921085 
L 360.463354 107.761969 
L 355.690937 102.973821 
L 351.267177 97.413453 
L 348.887138 94.796303 
L 346.695913 91.76102 
L 344.374884 88.851469 
L 341.885207 86.159173 
L 339.596764 82.953277 
L 334.45927 77.311964 
L 332.034849 73.948736 
L 329.378911 70.958333 
L 324.051542 64.469526 
L 321.019813 61.953599 
L 318.005439 59.227045 
L 314.888263 56.638371 
L 308.274742 52.234553 
L 304.877512 50.125157 
L 297.728353 46.947131 
L 294.043115 45.710953 
L 286.513407 43.887421 
L 278.843484 42.848932 
L 274.98272 42.562409 
L 271.113381 42.421408 
L 267.230374 42.574331 
L 255.634923 44.503644 
L 248.053786 47.007688 
L 244.340488 48.660407 
L 240.69721 50.63401 
L 237.080176 52.092128 
L 230.090451 56.150548 
L 226.652314 57.922472 
L 223.329169 60.1766 
L 219.984058 61.897173 
L 216.621064 63.279921 
L 213.20266 64.235334 
L 209.732942 64.901387 
L 206.177154 65.205472 
L 198.765939 64.907408 
L 194.943501 64.556545 
L 190.94084 63.782252 
L 179.358271 63.823353 
L 175.624409 64.414374 
L 168.228711 65.982562 
L 164.645545 67.114541 
L 161.117756 68.400236 
L 154.419942 71.753904 
L 151.338805 73.934843 
L 148.383606 76.308482 
L 145.570412 78.883172 
L 140.70315 85.089055 
L 138.54007 88.477542 
L 136.985487 92.664314 
L 135.21266 96.381077 
L 133.789139 100.458203 
L 133.240846 105.554018 
L 132.393584 110.055146 
L 132.244555 115.250723 
L 132.749551 121.011573 
L 132.64673 125.821146 
L 134.36627 132.468829 
L 137.279526 140.084886 
L 140.176998 147.304886 
L 147.185481 158.280169 
L 158.042188 172.354593 
L 177.443848 193.557972 
L 179.33693 197.650887 
L 154.309742 178.15064 
L 142.507457 171.190975 
L 131.106726 165.163481 
L 123.757152 162.861572 
L 117.864824 161.972838 
L 111.28104 160.80784 
L 106.863996 161.416151 
L 102.468293 162.176503 
L 97.760874 162.868398 
L 94.152936 164.394309 
L 91.010719 166.291721 
L 87.616455 168.112783 
L 82.151736 172.701642 
L 79.140989 174.931563 
L 76.729237 177.518497 
L 74.022601 180.007733 
L 71.663992 182.705452 
L 69.633389 185.582498 
L 67.80068 188.567546 
L 66.297684 191.700883 
L 63.777519 198.168108 
L 62.936241 201.544322 
L 62.349738 204.989551 
L 62.377904 208.594824 
L 62.915438 212.299693 
L 63.63787 215.99749 
L 65.181313 219.827674 
L 67.990834 227.183931 
L 72.547708 234.52285 
L 75.724095 238.168171 
L 80.534811 241.885704 
L 86.049532 245.493747 
L 93.430533 249.059686 
L 104.472809 252.613493 
L 122.290581 256.128707 
L 157.529181 259.624392 
L 168.592153 261.464396 
L 126.730962 262.917188 
L 112.495326 265.349152 
L 101.122184 268.179758 
L 85.031869 274.580325 
L 79.846784 277.963113 
L 70.378494 285.19571 
L 63.497479 296.12397 
L 61.400379 303.392659 
L 60.232315 307.149267 
L 59.664899 310.827458 
L 58.952812 314.596465 
L 58.520794 318.34556 
L 58.699335 321.960864 
L 59.112647 325.532414 
L 59.869059 329.012058 
L 61.975332 335.792687 
L 63.272477 339.096342 
L 64.709826 342.341805 
L 66.392171 345.476089 
L 68.360545 348.466902 
L 70.457445 351.374835 
L 75.552405 356.641659 
L 78.318722 359.091902 
L 81.745887 361.110966 
L 84.841855 363.249281 
L 88.709062 364.841776 
L 93.098079 365.994032 
L 97.020129 367.332705 
L 101.752837 367.997097 
L 106.650355 368.390925 
L 111.137422 368.930998 
L 116.65435 368.522121 
L 121.253753 368.649674 
L 124.932672 369.390396 
L 128.128278 370.442934 
L 129.41106 373.136943 
L 129.867433 376.642127 
L 128.835438 381.684413 
L 128.492998 386.24669 
L 128.009816 391.128975 
L 126.999468 396.773501 
L 127.315414 401.196315 
L 127.711664 410.826722 
L 131.115247 423.101123 
L 132.973877 426.498283 
L 134.706195 430.176605 
L 136.756083 433.510166 
L 139.140148 436.432793 
L 141.332559 439.738055 
L 143.720976 442.828335 
L 149.082558 448.264949 
L 151.960617 450.730074 
L 158.09817 455.080541 
L 161.378644 456.874662 
L 164.750429 458.484262 
L 171.685744 461.262619 
L 178.978763 463.053709 
L 182.66462 463.766256 
L 190.110378 464.768442 
L 193.759953 465.405352 
L 201.110647 466.311321 
L 208.338183 467.494814 
L 215.492795 468.953183 
L 219.047701 469.849124 
L 226.212827 471.491238 
L 229.790277 472.539784 
L 237.061098 474.015075 
L 240.712546 474.907737 
L 248.102199 476.053097 
L 248.102199 476.053097 
" clip-path="url(#p9ad4356cb0)" style="fill: none; stroke: #ff0000; stroke-width: 1.5; stroke-linecap: square"/>
   </g>
   <g id="line2d_16">
    <path d="M 251.8225 42.17693 
L 247.964733 41.905846 
L 244.099414 41.756935 
L 240.230383 41.726418 
L 236.362026 41.822105 
L 232.497907 42.036081 
L 228.642268 42.372012 
L 224.798659 42.825665 
L 220.970892 43.39659 
L 217.163375 44.088087 
L 213.379412 44.8956 
L 209.622759 45.81834 
L 205.897964 46.859232 
L 202.208055 48.013414 
L 198.557653 49.283554 
L 194.950601 50.668372 
L 191.391781 52.170224 
L 187.882867 53.780071 
L 184.431006 55.507494 
L 181.037714 57.343241 
L 177.709285 59.292803 
L 174.449671 61.354076 
L 171.262761 63.524835 
L 168.153907 65.806335 
L 165.128645 68.199601 
L 162.192353 70.704717 
L 159.349157 73.318737 
L 156.605224 76.042762 
L 153.966831 78.877442 
L 151.440433 81.823145 
L 149.032848 84.880287 
L 146.751476 88.049639 
L 144.605903 91.334765 
L 142.602302 94.732831 
L 140.752082 98.248521 
L 139.067175 101.885895 
L 137.557715 105.645203 
L 136.24114 109.535542 
L 135.133364 113.561905 
L 134.250929 117.728389 
L 133.62101 122.050138 
L 133.269602 126.537679 
L 133.234264 131.211609 
L 133.559733 136.095897 
L 134.295606 141.214526 
L 135.532378 146.627066 
L 137.370937 152.392597 
L 139.974207 158.616967 
L 143.571482 165.447534 
L 148.521454 173.118958 
L 155.440128 182.042775 
L 165.095688 192.6872 
L 175.490309 203.279944 
L 172.620135 203.233924 
L 160.27464 196.403774 
L 149.558342 191.311053 
L 141.133418 188.256459 
L 134.244049 186.560849 
L 128.4563 185.82943 
L 123.479308 185.800818 
L 119.17541 186.333354 
L 115.330319 187.258336 
L 111.960842 188.551425 
L 108.943674 190.116789 
L 106.290236 191.93636 
L 103.905086 193.942164 
L 101.831515 196.136899 
L 100.041519 198.489983 
L 98.505518 200.973106 
L 97.228943 203.574281 
L 96.180097 206.267986 
L 95.436789 209.069269 
L 94.892415 211.927512 
L 94.624238 214.856856 
L 94.635667 217.844589 
L 94.929683 220.877884 
L 95.546742 223.953265 
L 96.413298 227.038146 
L 97.683416 230.153914 
L 99.282848 233.266483 
L 101.328088 236.380962 
L 103.820695 239.476005 
L 106.877574 242.546507 
L 110.615966 245.579205 
L 115.153096 248.552654 
L 120.839348 251.457647 
L 128.025655 254.260469 
L 137.608674 256.931495 
L 151.46131 259.412498 
L 175.830832 261.590748 
L 241.2625 262.917188 
L 171.338398 264.322043 
L 149.196596 266.500963 
L 136.087009 268.982628 
L 126.856392 271.655669 
L 119.905222 274.458454 
L 114.375965 277.3634 
L 109.917937 280.340877 
L 106.258528 283.37487 
L 103.280441 286.443938 
L 100.78941 289.548396 
L 98.822615 292.657352 
L 97.224814 295.77794 
L 95.994537 298.892908 
L 95.129732 301.985082 
L 94.55229 305.057613 
L 94.260097 308.09748 
L 94.287968 311.080327 
L 94.520832 314.027598 
L 95.06737 316.892307 
L 95.849668 319.686656 
L 96.864187 322.400111 
L 98.143262 325.00763 
L 99.681872 327.497053 
L 101.474588 329.856391 
L 103.550986 332.05733 
L 105.903956 334.086417 
L 108.56074 335.9127 
L 111.546874 337.503061 
L 114.920256 338.80334 
L 118.701704 339.774515 
L 123.010448 340.315277 
L 127.92616 340.336213 
L 133.621469 339.677834 
L 140.420816 338.058572 
L 148.662208 335.150801 
L 159.041898 330.326241 
L 171.059976 323.776114 
L 174.966912 322.963354 
L 165.36896 332.925884 
L 155.769356 343.515345 
L 148.786836 352.484724 
L 143.774728 360.203838 
L 140.117079 367.084178 
L 137.483357 373.333215 
L 135.615259 379.124428 
L 134.377028 384.535534 
L 133.605031 389.689902 
L 133.26825 394.585021 
L 133.292672 399.270157 
L 133.633567 403.769272 
L 134.258306 408.096877 
L 135.133364 412.27247 
L 136.238788 416.301953 
L 137.550825 420.198654 
L 139.05597 423.964482 
L 140.738973 427.605289 
L 142.587406 431.124482 
L 144.58934 434.526117 
L 146.735378 437.811528 
L 149.01722 440.981157 
L 151.424901 444.039251 
L 153.951589 446.985601 
L 156.590502 449.820507 
L 159.335112 452.544433 
L 162.179309 455.157632 
L 165.117521 457.659759 
L 168.143221 460.053215 
L 171.253979 462.331275 
L 174.44127 464.502185 
L 177.702604 466.559929 
L 181.032626 468.505911 
L 184.426176 470.341744 
L 187.880582 472.061776 
L 191.390704 473.667906 
L 194.951612 475.162229 
L 198.559543 476.543239 
L 202.210691 477.80954 
L 205.901213 478.959856 
L 209.627232 479.993023 
L 213.384161 480.911841 
L 217.168876 481.711558 
L 220.976873 482.395225 
L 224.804849 482.958297 
L 228.648394 483.404078 
L 232.504037 483.728235 
L 236.367477 483.934319 
L 240.235086 484.018218 
L 244.102686 483.983728 
L 247.966574 483.823055 
L 251.8225 483.540233 
L 255.666357 483.131611 
L 259.493908 482.597567 
L 263.300926 481.938609 
L 267.082928 481.151474 
L 270.835515 480.236939 
L 274.553902 479.192027 
L 278.233059 478.013928 
L 281.868259 476.703873 
L 285.4542 475.259381 
L 288.984668 473.674313 
L 292.45445 471.95045 
L 295.856922 470.082856 
L 299.185475 468.06877 
L 302.432933 465.904547 
L 305.591365 463.585323 
L 308.652176 461.105819 
L 311.605254 458.457765 
L 314.441349 455.638188 
L 317.147802 452.635639 
L 319.709926 449.436357 
L 322.111895 446.027323 
L 324.338238 442.399937 
L 326.363493 438.524763 
L 328.161491 434.377369 
L 329.704067 429.934747 
L 330.947416 425.147307 
L 331.847454 419.975004 
L 332.347685 414.363035 
L 332.387277 408.259893 
L 331.903151 401.620944 
L 330.910908 394.542403 
L 329.69702 387.54247 
L 329.136411 381.97017 
L 330.699892 379.857731 
L 334.83531 381.471767 
L 346.28189 388.269032 
L 352.015225 391.158027 
L 357.483682 393.39788 
L 362.625378 394.966915 
L 367.499418 395.98826 
L 372.128353 396.530373 
L 376.536283 396.656346 
L 380.745781 396.421153 
L 384.774515 395.869202 
L 388.634428 395.03493 
L 392.336654 393.948756 
L 395.888325 392.634639 
L 399.297948 391.115639 
L 402.566388 389.406328 
L 405.698311 387.523363 
L 408.696224 385.480373 
L 411.56023 383.288201 
L 414.290967 380.957438 
L 416.892793 378.500651 
L 419.35777 375.921154 
L 421.691099 373.231146 
L 423.888675 370.436067 
L 425.949919 367.543496 
L 427.874573 364.560899 
L 429.655859 361.491828 
L 431.293943 358.343846 
L 432.785822 355.122606 
L 434.125164 351.832138 
L 435.312783 348.480112 
L 436.342664 345.070858 
L 437.20887 341.609033 
L 437.905558 338.099623 
L 438.426992 334.547941 
L 438.767556 330.959623 
L 438.918072 327.339359 
L 438.869421 323.692416 
L 438.608834 320.023501 
L 438.123569 316.33816 
L 437.397182 312.641774 
L 436.41705 308.941778 
L 435.151665 305.24206 
L 433.580871 301.551122 
L 431.661644 297.874376 
L 429.350869 294.220229 
L 426.582312 290.596423 
L 423.281931 287.014239 
L 419.321445 283.483472 
L 414.525799 280.017993 
L 408.610884 276.634394 
L 401.148245 273.359061 
L 391.202322 270.221774 
L 376.666029 267.27682 
L 350.159144 264.63366 
L 294.537598 262.917188 
L 361.136309 261.009108 
L 382.093534 258.368023 
L 394.830908 255.422434 
L 403.837549 252.28726 
L 410.790511 249.009289 
L 416.313201 245.628518 
L 420.83384 242.165204 
L 424.593534 238.635802 
L 427.739999 235.054593 
L 430.382053 231.432321 
L 432.585945 227.780333 
L 434.417819 224.105354 
L 435.916857 220.415656 
L 437.110804 216.719625 
L 438.03875 213.020694 
L 438.70946 209.328214 
L 439.146867 205.646381 
L 439.367343 201.980174 
L 439.379847 198.336014 
L 439.193443 194.719742 
L 438.820928 191.135216 
L 438.267814 187.588391 
L 437.543341 184.083368 
L 436.649622 180.626851 
L 435.596063 177.222168 
L 434.385025 173.875494 
L 433.019064 170.592927 
L 431.504376 167.378639 
L 429.843804 164.238367 
L 428.043754 161.175799 
L 426.100624 158.200326 
L 424.017897 155.317562 
L 421.799231 152.533007 
L 419.448464 149.852047 
L 416.960003 147.286663 
L 414.341541 144.840193 
L 411.591433 142.522661 
L 408.705461 140.346785 
L 405.686166 138.320848 
L 402.533465 136.455673 
L 399.241923 134.767438 
L 395.812834 133.267709 
L 392.233786 131.981545 
L 388.505144 130.924292 
L 384.61704 130.122647 
L 380.555796 129.609958 
L 376.312456 129.418054 
L 371.864305 129.597257 
L 367.191827 130.199959 
L 362.266246 131.295456 
L 357.065687 132.952675 
L 351.558194 135.261321 
L 345.764598 138.251813 
L 334.409521 144.970698 
L 330.656196 146.041426 
L 329.519439 143.274393 
L 330.297443 137.331026 
L 331.554839 130.220291 
L 332.469675 123.232183 
L 332.898706 116.65184 
L 332.793409 110.633056 
L 332.23591 105.096985 
L 331.288252 99.988251 
L 330.001282 95.262249 
L 328.425289 90.864506 
L 326.595538 86.762949 
L 324.543143 82.927279 
L 322.295317 79.329223 
L 319.871617 75.953774 
L 317.291539 72.781291 
L 314.569328 69.802309 
L 311.7188 67.005218 
L 308.752007 64.380402 
L 305.679341 61.92072 
L 302.510061 59.620482 
L 299.25271 57.474376 
L 295.915166 55.477504 
L 292.504399 53.626962 
L 289.02741 51.917656 
L 285.49026 50.347315 
L 281.898166 48.917705 
L 278.257819 47.618794 
L 274.573505 46.455837 
L 270.850838 45.422288 
L 267.094375 44.519204 
L 263.308901 43.743599 
L 259.498817 43.09624 
L 255.668607 42.573851 
L 255.668607 42.573851 
" clip-path="url(#p9ad4356cb0)" style="fill: none; stroke-dasharray: 5.55,2.4; stroke-dashoffset: 0; stroke: #0000ff; stroke-width: 1.5"/>
   </g>
   <g id="patch_3">
    <path d="M 251.8225 41.157188 
C 222.701244 41.157188 193.863155 46.89344 166.958622 58.037662 
C 140.054089 69.181885 115.606338 85.51735 95.0145 106.109188 
C 74.422662 126.701026 58.087197 151.148777 46.942975 178.05331 
C 35.798753 204.957842 30.0625 233.795931 30.0625 262.917188 
C 30.0625 292.038444 35.798753 320.876533 46.942975 347.781065 
C 58.087197 374.685598 74.422662 399.133349 95.0145 419.725187 
C 115.606338 440.317025 140.054089 456.65249 166.958622 467.796713 
C 193.863155 478.940935 222.701244 484.677188 251.8225 484.677188 
C 280.943756 484.677188 309.781845 478.940935 336.686378 467.796713 
C 363.590911 456.65249 388.038662 440.317025 408.6305 419.725187 
C 429.222338 399.133349 445.557803 374.685598 456.702025 347.781065 
C 467.846247 320.876533 473.5825 292.038444 473.5825 262.917188 
C 473.5825 233.795931 467.846247 204.957842 456.702025 178.05331 
C 445.557803 151.148777 429.222338 126.701026 408.6305 106.109188 
C 388.038662 85.51735 363.590911 69.181885 336.686378 58.037662 
C 309.781845 46.89344 280.943756 41.157188 251.8225 41.157188 
" style="fill: none; stroke: #000000; stroke-width: 0.8; stroke-linejoin: miter; stroke-linecap: square"/>
   </g>
   <g id="text_15">
    <g id="patch_4">
     <path d="M 384.8785 509.853188 
L 485.369125 509.853188 
Q 488.369125 509.853188 488.369125 506.853188 
L 488.369125 473.945063 
Q 488.369125 470.945063 485.369125 470.945063 
L 384.8785 470.945063 
Q 381.8785 470.945063 381.8785 473.945063 
L 381.8785 506.853188 
Q 381.8785 509.853188 384.8785 509.853188 
z
" style="fill: #ffffff; stroke: #808080; stroke-linejoin: miter"/>
    </g>
    <!-- G_cst: 3.4 dBi -->
    <g transform="translate(384.8785 481.821625)scale(0.1 -0.1)">
     <defs>
      <path id="DejaVuSans-47" d="M 3809 666 
L 3809 1919 
L 2778 1919 
L 2778 2438 
L 4434 2438 
L 4434 434 
Q 4069 175 3628 42 
Q 3188 -91 2688 -91 
Q 1594 -91 976 548 
Q 359 1188 359 2328 
Q 359 3472 976 4111 
Q 1594 4750 2688 4750 
Q 3144 4750 3555 4637 
Q 3966 4525 4313 4306 
L 4313 3634 
Q 3963 3931 3569 4081 
Q 3175 4231 2741 4231 
Q 1884 4231 1454 3753 
Q 1025 3275 1025 2328 
Q 1025 1384 1454 906 
Q 1884 428 2741 428 
Q 3075 428 3337 486 
Q 3600 544 3809 666 
z
" transform="scale(0.015625)"/>
      <path id="DejaVuSans-5f" d="M 3263 -1063 
L 3263 -1509 
L -63 -1509 
L -63 -1063 
L 3263 -1063 
z
" transform="scale(0.015625)"/>
      <path id="DejaVuSans-63" d="M 3122 3366 
L 3122 2828 
Q 2878 2963 2633 3030 
Q 2388 3097 2138 3097 
Q 1578 3097 1268 2742 
Q 959 2388 959 1747 
Q 959 1106 1268 751 
Q 1578 397 2138 397 
Q 2388 397 2633 464 
Q 2878 531 3122 666 
L 3122 134 
Q 2881 22 2623 -34 
Q 2366 -91 2075 -91 
Q 1284 -91 818 406 
Q 353 903 353 1747 
Q 353 2603 823 3093 
Q 1294 3584 2113 3584 
Q 2378 3584 2631 3529 
Q 2884 3475 3122 3366 
z
" transform="scale(0.015625)"/>
      <path id="DejaVuSans-73" d="M 2834 3397 
L 2834 2853 
Q 2591 2978 2328 3040 
Q 2066 3103 1784 3103 
Q 1356 3103 1142 2972 
Q 928 2841 928 2578 
Q 928 2378 1081 2264 
Q 1234 2150 1697 2047 
L 1894 2003 
Q 2506 1872 2764 1633 
Q 3022 1394 3022 966 
Q 3022 478 2636 193 
Q 2250 -91 1575 -91 
Q 1294 -91 989 -36 
Q 684 19 347 128 
L 347 722 
Q 666 556 975 473 
Q 1284 391 1588 391 
Q 1994 391 2212 530 
Q 2431 669 2431 922 
Q 2431 1156 2273 1281 
Q 2116 1406 1581 1522 
L 1381 1569 
Q 847 1681 609 1914 
Q 372 2147 372 2553 
Q 372 3047 722 3315 
Q 1072 3584 1716 3584 
Q 2034 3584 2315 3537 
Q 2597 3491 2834 3397 
z
" transform="scale(0.015625)"/>
      <path id="DejaVuSans-74" d="M 1172 4494 
L 1172 3500 
L 2356 3500 
L 2356 3053 
L 1172 3053 
L 1172 1153 
Q 1172 725 1289 603 
Q 1406 481 1766 481 
L 2356 481 
L 2356 0 
L 1766 0 
Q 1100 0 847 248 
Q 594 497 594 1153 
L 594 3053 
L 172 3053 
L 172 3500 
L 594 3500 
L 594 4494 
L 1172 4494 
z
" transform="scale(0.015625)"/>
      <path id="DejaVuSans-3a" d="M 750 794 
L 1409 794 
L 1409 0 
L 750 0 
L 750 794 
z
M 750 3309 
L 1409 3309 
L 1409 2516 
L 750 2516 
L 750 3309 
z
" transform="scale(0.015625)"/>
      <path id="DejaVuSans-20" transform="scale(0.015625)"/>
      <path id="DejaVuSans-2e" d="M 684 794 
L 1344 794 
L 1344 0 
L 684 0 
L 684 794 
z
" transform="scale(0.015625)"/>
      <path id="DejaVuSans-64" d="M 2906 2969 
L 2906 4863 
L 3481 4863 
L 3481 0 
L 2906 0 
L 2906 525 
Q 2725 213 2448 61 
Q 2172 -91 1784 -91 
Q 1150 -91 751 415 
Q 353 922 353 1747 
Q 353 2572 751 3078 
Q 1150 3584 1784 3584 
Q 2172 3584 2448 3432 
Q 2725 3281 2906 2969 
z
M 947 1747 
Q 947 1113 1208 752 
Q 1469 391 1925 391 
Q 2381 391 2643 752 
Q 2906 1113 2906 1747 
Q 2906 2381 2643 2742 
Q 2381 3103 1925 3103 
Q 1469 3103 1208 2742 
Q 947 2381 947 1747 
z
" transform="scale(0.015625)"/>
      <path id="DejaVuSans-42" d="M 1259 2228 
L 1259 519 
L 2272 519 
Q 2781 519 3026 730 
Q 3272 941 3272 1375 
Q 3272 1813 3026 2020 
Q 2781 2228 2272 2228 
L 1259 2228 
z
M 1259 4147 
L 1259 2741 
L 2194 2741 
Q 2656 2741 2882 2914 
Q 3109 3088 3109 3444 
Q 3109 3797 2882 3972 
Q 2656 4147 2194 4147 
L 1259 4147 
z
M 628 4666 
L 2241 4666 
Q 2963 4666 3353 4366 
Q 3744 4066 3744 3513 
Q 3744 3084 3544 2831 
Q 3344 2578 2956 2516 
Q 3422 2416 3680 2098 
Q 3938 1781 3938 1306 
Q 3938 681 3513 340 
Q 3088 0 2303 0 
L 628 0 
L 628 4666 
z
" transform="scale(0.015625)"/>
      <path id="DejaVuSans-69" d="M 603 3500 
L 1178 3500 
L 1178 0 
L 603 0 
L 603 3500 
z
M 603 4863 
L 1178 4863 
L 1178 4134 
L 603 4134 
L 603 4863 
z
" transform="scale(0.015625)"/>
     </defs>
     <use xlink:href="#DejaVuSans-47"/>
     <use xlink:href="#DejaVuSans-5f" x="77.490234"/>
     <use xlink:href="#DejaVuSans-63" x="127.490234"/>
     <use xlink:href="#DejaVuSans-73" x="182.470703"/>
     <use xlink:href="#DejaVuSans-74" x="234.570312"/>
     <use xlink:href="#DejaVuSans-3a" x="273.779297"/>
     <use xlink:href="#DejaVuSans-20" x="307.470703"/>
     <use xlink:href="#DejaVuSans-33" x="339.257812"/>
     <use xlink:href="#DejaVuSans-2e" x="402.880859"/>
     <use xlink:href="#DejaVuSans-34" x="434.667969"/>
     <use xlink:href="#DejaVuSans-20" x="498.291016"/>
     <use xlink:href="#DejaVuSans-64" x="530.078125"/>
     <use xlink:href="#DejaVuSans-42" x="593.554688"/>
     <use xlink:href="#DejaVuSans-69" x="662.158203"/>
    </g>
    <!-- G_inpe: 2.1 dBi -->
    <g transform="translate(384.8785 493.297563)scale(0.1 -0.1)">
     <defs>
      <path id="DejaVuSans-6e" d="M 3513 2113 
L 3513 0 
L 2938 0 
L 2938 2094 
Q 2938 2591 2744 2837 
Q 2550 3084 2163 3084 
Q 1697 3084 1428 2787 
Q 1159 2491 1159 1978 
L 1159 0 
L 581 0 
L 581 3500 
L 1159 3500 
L 1159 2956 
Q 1366 3272 1645 3428 
Q 1925 3584 2291 3584 
Q 2894 3584 3203 3211 
Q 3513 2838 3513 2113 
z
" transform="scale(0.015625)"/>
      <path id="DejaVuSans-70" d="M 1159 525 
L 1159 -1331 
L 581 -1331 
L 581 3500 
L 1159 3500 
L 1159 2969 
Q 1341 3281 1617 3432 
Q 1894 3584 2278 3584 
Q 2916 3584 3314 3078 
Q 3713 2572 3713 1747 
Q 3713 922 3314 415 
Q 2916 -91 2278 -91 
Q 1894 -91 1617 61 
Q 1341 213 1159 525 
z
M 3116 1747 
Q 3116 2381 2855 2742 
Q 2594 3103 2138 3103 
Q 1681 3103 1420 2742 
Q 1159 2381 1159 1747 
Q 1159 1113 1420 752 
Q 1681 391 2138 391 
Q 2594 391 2855 752 
Q 3116 1113 3116 1747 
z
" transform="scale(0.015625)"/>
      <path id="DejaVuSans-65" d="M 3597 1894 
L 3597 1613 
L 953 1613 
Q 991 1019 1311 708 
Q 1631 397 2203 397 
Q 2534 397 2845 478 
Q 3156 559 3463 722 
L 3463 178 
Q 3153 47 2828 -22 
Q 2503 -91 2169 -91 
Q 1331 -91 842 396 
Q 353 884 353 1716 
Q 353 2575 817 3079 
Q 1281 3584 2069 3584 
Q 2775 3584 3186 3129 
Q 3597 2675 3597 1894 
z
M 3022 2063 
Q 3016 2534 2758 2815 
Q 2500 3097 2075 3097 
Q 1594 3097 1305 2825 
Q 1016 2553 972 2059 
L 3022 2063 
z
" transform="scale(0.015625)"/>
     </defs>
     <use xlink:href="#DejaVuSans-47"/>
     <use xlink:href="#DejaVuSans-5f" x="77.490234"/>
     <use xlink:href="#DejaVuSans-69" x="127.490234"/>
     <use xlink:href="#DejaVuSans-6e" x="155.273438"/>
     <use xlink:href="#DejaVuSans-70" x="218.652344"/>
     <use xlink:href="#DejaVuSans-65" x="282.128906"/>
     <use xlink:href="#DejaVuSans-3a" x="343.652344"/>
     <use xlink:href="#DejaVuSans-20" x="377.34375"/>
     <use xlink:href="#DejaVuSans-32" x="409.130859"/>
     <use xlink:href="#DejaVuSans-2e" x="472.753906"/>
     <use xlink:href="#DejaVuSans-31" x="504.541016"/>
     <use xlink:href="#DejaVuSans-20" x="568.164062"/>
     <use xlink:href="#DejaVuSans-64" x="599.951172"/>
     <use xlink:href="#DejaVuSans-42" x="663.427734"/>
     <use xlink:href="#DejaVuSans-69" x="732.03125"/>
    </g>
    <!-- Pearson Coef: 0.616 -->
    <g transform="translate(384.8785 504.7735)scale(0.1 -0.1)">
     <defs>
      <path id="DejaVuSans-50" d="M 1259 4147 
L 1259 2394 
L 2053 2394 
Q 2494 2394 2734 2622 
Q 2975 2850 2975 3272 
Q 2975 3691 2734 3919 
Q 2494 4147 2053 4147 
L 1259 4147 
z
M 628 4666 
L 2053 4666 
Q 2838 4666 3239 4311 
Q 3641 3956 3641 3272 
Q 3641 2581 3239 2228 
Q 2838 1875 2053 1875 
L 1259 1875 
L 1259 0 
L 628 0 
L 628 4666 
z
" transform="scale(0.015625)"/>
      <path id="DejaVuSans-61" d="M 2194 1759 
Q 1497 1759 1228 1600 
Q 959 1441 959 1056 
Q 959 750 1161 570 
Q 1363 391 1709 391 
Q 2188 391 2477 730 
Q 2766 1069 2766 1631 
L 2766 1759 
L 2194 1759 
z
M 3341 1997 
L 3341 0 
L 2766 0 
L 2766 531 
Q 2569 213 2275 61 
Q 1981 -91 1556 -91 
Q 1019 -91 701 211 
Q 384 513 384 1019 
Q 384 1609 779 1909 
Q 1175 2209 1959 2209 
L 2766 2209 
L 2766 2266 
Q 2766 2663 2505 2880 
Q 2244 3097 1772 3097 
Q 1472 3097 1187 3025 
Q 903 2953 641 2809 
L 641 3341 
Q 956 3463 1253 3523 
Q 1550 3584 1831 3584 
Q 2591 3584 2966 3190 
Q 3341 2797 3341 1997 
z
" transform="scale(0.015625)"/>
      <path id="DejaVuSans-72" d="M 2631 2963 
Q 2534 3019 2420 3045 
Q 2306 3072 2169 3072 
Q 1681 3072 1420 2755 
Q 1159 2438 1159 1844 
L 1159 0 
L 581 0 
L 581 3500 
L 1159 3500 
L 1159 2956 
Q 1341 3275 1631 3429 
Q 1922 3584 2338 3584 
Q 2397 3584 2469 3576 
Q 2541 3569 2628 3553 
L 2631 2963 
z
" transform="scale(0.015625)"/>
      <path id="DejaVuSans-6f" d="M 1959 3097 
Q 1497 3097 1228 2736 
Q 959 2375 959 1747 
Q 959 1119 1226 758 
Q 1494 397 1959 397 
Q 2419 397 2687 759 
Q 2956 1122 2956 1747 
Q 2956 2369 2687 2733 
Q 2419 3097 1959 3097 
z
M 1959 3584 
Q 2709 3584 3137 3096 
Q 3566 2609 3566 1747 
Q 3566 888 3137 398 
Q 2709 -91 1959 -91 
Q 1206 -91 779 398 
Q 353 888 353 1747 
Q 353 2609 779 3096 
Q 1206 3584 1959 3584 
z
" transform="scale(0.015625)"/>
      <path id="DejaVuSans-43" d="M 4122 4306 
L 4122 3641 
Q 3803 3938 3442 4084 
Q 3081 4231 2675 4231 
Q 1875 4231 1450 3742 
Q 1025 3253 1025 2328 
Q 1025 1406 1450 917 
Q 1875 428 2675 428 
Q 3081 428 3442 575 
Q 3803 722 4122 1019 
L 4122 359 
Q 3791 134 3420 21 
Q 3050 -91 2638 -91 
Q 1578 -91 968 557 
Q 359 1206 359 2328 
Q 359 3453 968 4101 
Q 1578 4750 2638 4750 
Q 3056 4750 3426 4639 
Q 3797 4528 4122 4306 
z
" transform="scale(0.015625)"/>
      <path id="DejaVuSans-66" d="M 2375 4863 
L 2375 4384 
L 1825 4384 
Q 1516 4384 1395 4259 
Q 1275 4134 1275 3809 
L 1275 3500 
L 2222 3500 
L 2222 3053 
L 1275 3053 
L 1275 0 
L 697 0 
L 697 3053 
L 147 3053 
L 147 3500 
L 697 3500 
L 697 3744 
Q 697 4328 969 4595 
Q 1241 4863 1831 4863 
L 2375 4863 
z
" transform="scale(0.015625)"/>
      <path id="DejaVuSans-36" d="M 2113 2584 
Q 1688 2584 1439 2293 
Q 1191 2003 1191 1497 
Q 1191 994 1439 701 
Q 1688 409 2113 409 
Q 2538 409 2786 701 
Q 3034 994 3034 1497 
Q 3034 2003 2786 2293 
Q 2538 2584 2113 2584 
z
M 3366 4563 
L 3366 3988 
Q 3128 4100 2886 4159 
Q 2644 4219 2406 4219 
Q 1781 4219 1451 3797 
Q 1122 3375 1075 2522 
Q 1259 2794 1537 2939 
Q 1816 3084 2150 3084 
Q 2853 3084 3261 2657 
Q 3669 2231 3669 1497 
Q 3669 778 3244 343 
Q 2819 -91 2113 -91 
Q 1303 -91 875 529 
Q 447 1150 447 2328 
Q 447 3434 972 4092 
Q 1497 4750 2381 4750 
Q 2619 4750 2861 4703 
Q 3103 4656 3366 4563 
z
" transform="scale(0.015625)"/>
     </defs>
     <use xlink:href="#DejaVuSans-50"/>
     <use xlink:href="#DejaVuSans-65" x="56.677734"/>
     <use xlink:href="#DejaVuSans-61" x="118.201172"/>
     <use xlink:href="#DejaVuSans-72" x="179.480469"/>
     <use xlink:href="#DejaVuSans-73" x="220.59375"/>
     <use xlink:href="#DejaVuSans-6f" x="272.693359"/>
     <use xlink:href="#DejaVuSans-6e" x="333.875"/>
     <use xlink:href="#DejaVuSans-20" x="397.253906"/>
     <use xlink:href="#DejaVuSans-43" x="429.041016"/>
     <use xlink:href="#DejaVuSans-6f" x="498.865234"/>
     <use xlink:href="#DejaVuSans-65" x="560.046875"/>
     <use xlink:href="#DejaVuSans-66" x="621.570312"/>
     <use xlink:href="#DejaVuSans-3a" x="653.150391"/>
     <use xlink:href="#DejaVuSans-20" x="686.841797"/>
     <use xlink:href="#DejaVuSans-30" x="718.628906"/>
     <use xlink:href="#DejaVuSans-2e" x="782.251953"/>
     <use xlink:href="#DejaVuSans-36" x="814.039062"/>
     <use xlink:href="#DejaVuSans-31" x="877.662109"/>
     <use xlink:href="#DejaVuSans-36" x="941.285156"/>
    </g>
   </g>
   <g id="text_16">
    <g id="patch_5">
     <path d="M 52.2385 56.370938 
L 121.861 56.370938 
Q 125.461 56.370938 125.461 52.770938 
L 125.461 41.157188 
Q 125.461 37.557188 121.861 37.557188 
L 52.2385 37.557188 
Q 48.6385 37.557188 48.6385 41.157188 
L 48.6385 52.770938 
Q 48.6385 56.370938 52.2385 56.370938 
z
" style="fill: #ffffff; stroke: #808080; stroke-linejoin: miter"/>
    </g>
    <!-- Freq: 9 GHz -->
    <g transform="translate(52.2385 50.275313)scale(0.12 -0.12)">
     <defs>
      <path id="DejaVuSans-46" d="M 628 4666 
L 3309 4666 
L 3309 4134 
L 1259 4134 
L 1259 2759 
L 3109 2759 
L 3109 2228 
L 1259 2228 
L 1259 0 
L 628 0 
L 628 4666 
z
" transform="scale(0.015625)"/>
      <path id="DejaVuSans-71" d="M 947 1747 
Q 947 1113 1208 752 
Q 1469 391 1925 391 
Q 2381 391 2643 752 
Q 2906 1113 2906 1747 
Q 2906 2381 2643 2742 
Q 2381 3103 1925 3103 
Q 1469 3103 1208 2742 
Q 947 2381 947 1747 
z
M 2906 525 
Q 2725 213 2448 61 
Q 2172 -91 1784 -91 
Q 1150 -91 751 415 
Q 353 922 353 1747 
Q 353 2572 751 3078 
Q 1150 3584 1784 3584 
Q 2172 3584 2448 3432 
Q 2725 3281 2906 2969 
L 2906 3500 
L 3481 3500 
L 3481 -1331 
L 2906 -1331 
L 2906 525 
z
" transform="scale(0.015625)"/>
      <path id="DejaVuSans-48" d="M 628 4666 
L 1259 4666 
L 1259 2753 
L 3553 2753 
L 3553 4666 
L 4184 4666 
L 4184 0 
L 3553 0 
L 3553 2222 
L 1259 2222 
L 1259 0 
L 628 0 
L 628 4666 
z
" transform="scale(0.015625)"/>
      <path id="DejaVuSans-7a" d="M 353 3500 
L 3084 3500 
L 3084 2975 
L 922 459 
L 3084 459 
L 3084 0 
L 275 0 
L 275 525 
L 2438 3041 
L 353 3041 
L 353 3500 
z
" transform="scale(0.015625)"/>
     </defs>
     <use xlink:href="#DejaVuSans-46"/>
     <use xlink:href="#DejaVuSans-72" x="50.269531"/>
     <use xlink:href="#DejaVuSans-65" x="89.132812"/>
     <use xlink:href="#DejaVuSans-71" x="150.65625"/>
     <use xlink:href="#DejaVuSans-3a" x="214.132812"/>
     <use xlink:href="#DejaVuSans-20" x="247.824219"/>
     <use xlink:href="#DejaVuSans-39" x="279.611328"/>
     <use xlink:href="#DejaVuSans-20" x="343.234375"/>
     <use xlink:href="#DejaVuSans-47" x="375.021484"/>
     <use xlink:href="#DejaVuSans-48" x="452.511719"/>
     <use xlink:href="#DejaVuSans-7a" x="527.707031"/>
    </g>
   </g>
   <g id="text_17">
    <!-- Radiation Diagram - 2AVHF09 -->
    <g transform="translate(162.578125 16.318125)scale(0.12 -0.12)">
     <defs>
      <path id="DejaVuSans-52" d="M 2841 2188 
Q 3044 2119 3236 1894 
Q 3428 1669 3622 1275 
L 4263 0 
L 3584 0 
L 2988 1197 
Q 2756 1666 2539 1819 
Q 2322 1972 1947 1972 
L 1259 1972 
L 1259 0 
L 628 0 
L 628 4666 
L 2053 4666 
Q 2853 4666 3247 4331 
Q 3641 3997 3641 3322 
Q 3641 2881 3436 2590 
Q 3231 2300 2841 2188 
z
M 1259 4147 
L 1259 2491 
L 2053 2491 
Q 2509 2491 2742 2702 
Q 2975 2913 2975 3322 
Q 2975 3731 2742 3939 
Q 2509 4147 2053 4147 
L 1259 4147 
z
" transform="scale(0.015625)"/>
      <path id="DejaVuSans-44" d="M 1259 4147 
L 1259 519 
L 2022 519 
Q 2988 519 3436 956 
Q 3884 1394 3884 2338 
Q 3884 3275 3436 3711 
Q 2988 4147 2022 4147 
L 1259 4147 
z
M 628 4666 
L 1925 4666 
Q 3281 4666 3915 4102 
Q 4550 3538 4550 2338 
Q 4550 1131 3912 565 
Q 3275 0 1925 0 
L 628 0 
L 628 4666 
z
" transform="scale(0.015625)"/>
      <path id="DejaVuSans-67" d="M 2906 1791 
Q 2906 2416 2648 2759 
Q 2391 3103 1925 3103 
Q 1463 3103 1205 2759 
Q 947 2416 947 1791 
Q 947 1169 1205 825 
Q 1463 481 1925 481 
Q 2391 481 2648 825 
Q 2906 1169 2906 1791 
z
M 3481 434 
Q 3481 -459 3084 -895 
Q 2688 -1331 1869 -1331 
Q 1566 -1331 1297 -1286 
Q 1028 -1241 775 -1147 
L 775 -588 
Q 1028 -725 1275 -790 
Q 1522 -856 1778 -856 
Q 2344 -856 2625 -561 
Q 2906 -266 2906 331 
L 2906 616 
Q 2728 306 2450 153 
Q 2172 0 1784 0 
Q 1141 0 747 490 
Q 353 981 353 1791 
Q 353 2603 747 3093 
Q 1141 3584 1784 3584 
Q 2172 3584 2450 3431 
Q 2728 3278 2906 2969 
L 2906 3500 
L 3481 3500 
L 3481 434 
z
" transform="scale(0.015625)"/>
      <path id="DejaVuSans-6d" d="M 3328 2828 
Q 3544 3216 3844 3400 
Q 4144 3584 4550 3584 
Q 5097 3584 5394 3201 
Q 5691 2819 5691 2113 
L 5691 0 
L 5113 0 
L 5113 2094 
Q 5113 2597 4934 2840 
Q 4756 3084 4391 3084 
Q 3944 3084 3684 2787 
Q 3425 2491 3425 1978 
L 3425 0 
L 2847 0 
L 2847 2094 
Q 2847 2600 2669 2842 
Q 2491 3084 2119 3084 
Q 1678 3084 1418 2786 
Q 1159 2488 1159 1978 
L 1159 0 
L 581 0 
L 581 3500 
L 1159 3500 
L 1159 2956 
Q 1356 3278 1631 3431 
Q 1906 3584 2284 3584 
Q 2666 3584 2933 3390 
Q 3200 3197 3328 2828 
z
" transform="scale(0.015625)"/>
      <path id="DejaVuSans-2d" d="M 313 2009 
L 1997 2009 
L 1997 1497 
L 313 1497 
L 313 2009 
z
" transform="scale(0.015625)"/>
      <path id="DejaVuSans-41" d="M 2188 4044 
L 1331 1722 
L 3047 1722 
L 2188 4044 
z
M 1831 4666 
L 2547 4666 
L 4325 0 
L 3669 0 
L 3244 1197 
L 1141 1197 
L 716 0 
L 50 0 
L 1831 4666 
z
" transform="scale(0.015625)"/>
      <path id="DejaVuSans-56" d="M 1831 0 
L 50 4666 
L 709 4666 
L 2188 738 
L 3669 4666 
L 4325 4666 
L 2547 0 
L 1831 0 
z
" transform="scale(0.015625)"/>
     </defs>
     <use xlink:href="#DejaVuSans-52"/>
     <use xlink:href="#DejaVuSans-61" x="67.232422"/>
     <use xlink:href="#DejaVuSans-64" x="128.511719"/>
     <use xlink:href="#DejaVuSans-69" x="191.988281"/>
     <use xlink:href="#DejaVuSans-61" x="219.771484"/>
     <use xlink:href="#DejaVuSans-74" x="281.050781"/>
     <use xlink:href="#DejaVuSans-69" x="320.259766"/>
     <use xlink:href="#DejaVuSans-6f" x="348.042969"/>
     <use xlink:href="#DejaVuSans-6e" x="409.224609"/>
     <use xlink:href="#DejaVuSans-20" x="472.603516"/>
     <use xlink:href="#DejaVuSans-44" x="504.390625"/>
     <use xlink:href="#DejaVuSans-69" x="581.392578"/>
     <use xlink:href="#DejaVuSans-61" x="609.175781"/>
     <use xlink:href="#DejaVuSans-67" x="670.455078"/>
     <use xlink:href="#DejaVuSans-72" x="733.931641"/>
     <use xlink:href="#DejaVuSans-61" x="775.044922"/>
     <use xlink:href="#DejaVuSans-6d" x="836.324219"/>
     <use xlink:href="#DejaVuSans-20" x="933.736328"/>
     <use xlink:href="#DejaVuSans-2d" x="965.523438"/>
     <use xlink:href="#DejaVuSans-20" x="1001.607422"/>
     <use xlink:href="#DejaVuSans-32" x="1033.394531"/>
     <use xlink:href="#DejaVuSans-41" x="1097.017578"/>
     <use xlink:href="#DejaVuSans-56" x="1159.050781"/>
     <use xlink:href="#DejaVuSans-48" x="1227.458984"/>
     <use xlink:href="#DejaVuSans-46" x="1302.654297"/>
     <use xlink:href="#DejaVuSans-30" x="1360.173828"/>
     <use xlink:href="#DejaVuSans-39" x="1423.796875"/>
    </g>
   </g>
   <g id="legend_1">
    <g id="patch_6">
     <path d="M 411.802813 78.513438 
L 466.5825 78.513438 
Q 468.5825 78.513438 468.5825 76.513438 
L 468.5825 48.157188 
Q 468.5825 46.157188 466.5825 46.157188 
L 411.802813 46.157188 
Q 409.802813 46.157188 409.802813 48.157188 
L 409.802813 76.513438 
Q 409.802813 78.513438 411.802813 78.513438 
z
" style="fill: #ffffff; opacity: 0.8; stroke: #cccccc; stroke-linejoin: miter"/>
    </g>
    <g id="line2d_17">
     <path d="M 413.802813 54.255625 
L 423.802813 54.255625 
L 433.802813 54.255625 
" style="fill: none; stroke: #ff0000; stroke-width: 1.5; stroke-linecap: square"/>
    </g>
    <g id="text_18">
     <!-- INPE -->
     <g transform="translate(441.802813 57.755625)scale(0.1 -0.1)">
      <defs>
       <path id="DejaVuSans-49" d="M 628 4666 
L 1259 4666 
L 1259 0 
L 628 0 
L 628 4666 
z
" transform="scale(0.015625)"/>
       <path id="DejaVuSans-4e" d="M 628 4666 
L 1478 4666 
L 3547 763 
L 3547 4666 
L 4159 4666 
L 4159 0 
L 3309 0 
L 1241 3903 
L 1241 0 
L 628 0 
L 628 4666 
z
" transform="scale(0.015625)"/>
       <path id="DejaVuSans-45" d="M 628 4666 
L 3578 4666 
L 3578 4134 
L 1259 4134 
L 1259 2753 
L 3481 2753 
L 3481 2222 
L 1259 2222 
L 1259 531 
L 3634 531 
L 3634 0 
L 628 0 
L 628 4666 
z
" transform="scale(0.015625)"/>
      </defs>
      <use xlink:href="#DejaVuSans-49"/>
      <use xlink:href="#DejaVuSans-4e" x="29.492188"/>
      <use xlink:href="#DejaVuSans-50" x="104.296875"/>
      <use xlink:href="#DejaVuSans-45" x="164.599609"/>
     </g>
    </g>
    <g id="line2d_18">
     <path d="M 413.802813 68.93375 
L 423.802813 68.93375 
L 433.802813 68.93375 
" style="fill: none; stroke-dasharray: 5.55,2.4; stroke-dashoffset: 0; stroke: #0000ff; stroke-width: 1.5"/>
    </g>
    <g id="text_19">
     <!-- CST -->
     <g transform="translate(441.802813 72.43375)scale(0.1 -0.1)">
      <defs>
       <path id="DejaVuSans-53" d="M 3425 4513 
L 3425 3897 
Q 3066 4069 2747 4153 
Q 2428 4238 2131 4238 
Q 1616 4238 1336 4038 
Q 1056 3838 1056 3469 
Q 1056 3159 1242 3001 
Q 1428 2844 1947 2747 
L 2328 2669 
Q 3034 2534 3370 2195 
Q 3706 1856 3706 1288 
Q 3706 609 3251 259 
Q 2797 -91 1919 -91 
Q 1588 -91 1214 -16 
Q 841 59 441 206 
L 441 856 
Q 825 641 1194 531 
Q 1563 422 1919 422 
Q 2459 422 2753 634 
Q 3047 847 3047 1241 
Q 3047 1584 2836 1778 
Q 2625 1972 2144 2069 
L 1759 2144 
Q 1053 2284 737 2584 
Q 422 2884 422 3419 
Q 422 4038 858 4394 
Q 1294 4750 2059 4750 
Q 2388 4750 2728 4690 
Q 3069 4631 3425 4513 
z
" transform="scale(0.015625)"/>
       <path id="DejaVuSans-54" d="M -19 4666 
L 3928 4666 
L 3928 4134 
L 2272 4134 
L 2272 0 
L 1638 0 
L 1638 4134 
L -19 4134 
L -19 4666 
z
" transform="scale(0.015625)"/>
      </defs>
      <use xlink:href="#DejaVuSans-43"/>
      <use xlink:href="#DejaVuSans-53" x="69.824219"/>
      <use xlink:href="#DejaVuSans-54" x="133.300781"/>
     </g>
    </g>
   </g>
  </g>
 </g>
 <defs>
  <clipPath id="p9ad4356cb0">
   <path d="M 473.5825 262.917188 
C 473.5825 233.795931 467.846247 204.957842 456.702025 178.05331 
C 445.557803 151.148777 429.222338 126.701026 408.6305 106.109188 
C 388.038662 85.51735 363.590911 69.181885 336.686378 58.037662 
C 309.781845 46.89344 280.943756 41.157188 251.8225 41.157188 
C 222.701244 41.157188 193.863155 46.89344 166.958622 58.037662 
C 140.054089 69.181885 115.606338 85.51735 95.0145 106.109188 
C 74.422662 126.701026 58.087197 151.148777 46.942975 178.05331 
C 35.798753 204.957842 30.0625 233.795931 30.0625 262.917188 
C 30.0625 292.038444 35.798753 320.876533 46.942975 347.781065 
C 58.087197 374.685598 74.422662 399.133349 95.0145 419.725187 
C 115.606338 440.317025 140.054089 456.65249 166.958622 467.796713 
C 193.863155 478.940935 222.701244 484.677188 251.8225 484.677188 
C 280.943756 484.677188 309.781845 478.940935 336.686378 467.796713 
C 363.590911 456.65249 388.038662 440.317025 408.6305 419.725187 
C 429.222338 399.133349 445.557803 374.685598 456.702025 347.781065 
C 467.846247 320.876533 473.5825 292.038444 473.5825 262.917188 
M 251.8225 262.917188 
C 251.8225 262.917188 251.8225 262.917188 251.8225 262.917188 
C 251.8225 262.917188 251.8225 262.917188 251.8225 262.917188 
C 251.8225 262.917188 251.8225 262.917188 251.8225 262.917188 
C 251.8225 262.917188 251.8225 262.917188 251.8225 262.917188 
C 251.8225 262.917188 251.8225 262.917188 251.8225 262.917188 
C 251.8225 262.917188 251.8225 262.917188 251.8225 262.917188 
C 251.8225 262.917188 251.8225 262.917188 251.8225 262.917188 
C 251.8225 262.917188 251.8225 262.917188 251.8225 262.917188 
C 251.8225 262.917188 251.8225 262.917188 251.8225 262.917188 
C 251.8225 262.917188 251.8225 262.917188 251.8225 262.917188 
C 251.8225 262.917188 251.8225 262.917188 251.8225 262.917188 
C 251.8225 262.917188 251.8225 262.917188 251.8225 262.917188 
C 251.8225 262.917188 251.8225 262.917188 251.8225 262.917188 
C 251.8225 262.917188 251.8225 262.917188 251.8225 262.917188 
C 251.8225 262.917188 251.8225 262.917188 251.8225 262.917188 
C 251.8225 262.917188 251.8225 262.917188 251.8225 262.917188 
M 473.5825 262.917188 
z
"/>
  </clipPath>
 </defs>
</svg>
