<?xml version="1.0" encoding="utf-8" standalone="no"?>
<!DOCTYPE svg PUBLIC "-//W3C//DTD SVG 1.1//EN"
  "http://www.w3.org/Graphics/SVG/1.1/DTD/svg11.dtd">
<svg xmlns:xlink="http://www.w3.org/1999/xlink" width="506.82625pt" height="514.053188pt" viewBox="0 0 506.82625 514.053188" xmlns="http://www.w3.org/2000/svg" version="1.1">
 <metadata>
  <rdf:RDF xmlns:dc="http://purl.org/dc/elements/1.1/" xmlns:cc="http://creativecommons.org/ns#" xmlns:rdf="http://www.w3.org/1999/02/22-rdf-syntax-ns#">
   <cc:Work>
    <dc:type rdf:resource="http://purl.org/dc/dcmitype/StillImage"/>
    <dc:date>2023-11-04T18:10:15.954170</dc:date>
    <dc:format>image/svg+xml</dc:format>
    <dc:creator>
     <cc:Agent>
      <dc:title>Matplotlib v3.5.1, https://matplotlib.org/</dc:title>
     </cc:Agent>
    </dc:creator>
   </cc:Work>
  </rdf:RDF>
 </metadata>
 <defs>
  <style type="text/css">*{stroke-linejoin: round; stroke-linecap: butt}</style>
 </defs>
 <g id="figure_1">
  <g id="patch_1">
   <path d="M 0 514.053188 
L 506.82625 514.053188 
L 506.82625 0 
L 0 0 
z
" style="fill: #ffffff"/>
  </g>
  <g id="axes_1">
   <g id="patch_2">
    <path d="M 473.5825 262.917188 
C 473.5825 233.795931 467.846247 204.957842 456.702025 178.05331 
C 445.557803 151.148777 429.222338 126.701026 408.6305 106.109188 
C 388.038662 85.51735 363.590911 69.181885 336.686378 58.037662 
C 309.781845 46.89344 280.943756 41.157188 251.8225 41.157188 
C 222.701244 41.157188 193.863155 46.89344 166.958622 58.037662 
C 140.054089 69.181885 115.606338 85.51735 95.0145 106.109188 
C 74.422662 126.701026 58.087197 151.148777 46.942975 178.05331 
C 35.798753 204.957842 30.0625 233.795931 30.0625 262.917188 
C 30.0625 292.038444 35.798753 320.876533 46.942975 347.781065 
C 58.087197 374.685598 74.422662 399.133349 95.0145 419.725187 
C 115.606338 440.317025 140.054089 456.65249 166.958622 467.796713 
C 193.863155 478.940935 222.701244 484.677188 251.8225 484.677188 
C 280.943756 484.677188 309.781845 478.940935 336.686378 467.796713 
C 363.590911 456.65249 388.038662 440.317025 408.6305 419.725187 
C 429.222338 399.133349 445.557803 374.685598 456.702025 347.781065 
C 467.846247 320.876533 473.5825 292.038444 473.5825 262.917188 
M 251.8225 262.917188 
C 251.8225 262.917188 251.8225 262.917188 251.8225 262.917188 
C 251.8225 262.917188 251.8225 262.917188 251.8225 262.917188 
C 251.8225 262.917188 251.8225 262.917188 251.8225 262.917188 
C 251.8225 262.917188 251.8225 262.917188 251.8225 262.917188 
C 251.8225 262.917188 251.8225 262.917188 251.8225 262.917188 
C 251.8225 262.917188 251.8225 262.917188 251.8225 262.917188 
C 251.8225 262.917188 251.8225 262.917188 251.8225 262.917188 
C 251.8225 262.917188 251.8225 262.917188 251.8225 262.917188 
C 251.8225 262.917188 251.8225 262.917188 251.8225 262.917188 
C 251.8225 262.917188 251.8225 262.917188 251.8225 262.917188 
C 251.8225 262.917188 251.8225 262.917188 251.8225 262.917188 
C 251.8225 262.917188 251.8225 262.917188 251.8225 262.917188 
C 251.8225 262.917188 251.8225 262.917188 251.8225 262.917188 
C 251.8225 262.917188 251.8225 262.917188 251.8225 262.917188 
C 251.8225 262.917188 251.8225 262.917188 251.8225 262.917188 
C 251.8225 262.917188 251.8225 262.917188 251.8225 262.917188 
M 473.5825 262.917188 
z
" style="fill: #ffffff"/>
   </g>
   <g id="matplotlib.axis_1">
    <g id="xtick_1">
     <g id="line2d_1">
      <path d="M 251.8225 262.917188 
L 251.8225 41.157188 
" clip-path="url(#p16d4dbe0f9)" style="fill: none; stroke: #b0b0b0; stroke-width: 0.8; stroke-linecap: square"/>
     </g>
     <g id="text_1">
      <!-- 0° -->
      <g transform="translate(246.14125 29.916563)scale(0.1 -0.1)">
       <defs>
        <path id="DejaVuSans-30" d="M 2034 4250 
Q 1547 4250 1301 3770 
Q 1056 3291 1056 2328 
Q 1056 1369 1301 889 
Q 1547 409 2034 409 
Q 2525 409 2770 889 
Q 3016 1369 3016 2328 
Q 3016 3291 2770 3770 
Q 2525 4250 2034 4250 
z
M 2034 4750 
Q 2819 4750 3233 4129 
Q 3647 3509 3647 2328 
Q 3647 1150 3233 529 
Q 2819 -91 2034 -91 
Q 1250 -91 836 529 
Q 422 1150 422 2328 
Q 422 3509 836 4129 
Q 1250 4750 2034 4750 
z
" transform="scale(0.015625)"/>
        <path id="DejaVuSans-b0" d="M 1600 4347 
Q 1350 4347 1178 4173 
Q 1006 4000 1006 3750 
Q 1006 3503 1178 3333 
Q 1350 3163 1600 3163 
Q 1850 3163 2022 3333 
Q 2194 3503 2194 3750 
Q 2194 3997 2020 4172 
Q 1847 4347 1600 4347 
z
M 1600 4750 
Q 1800 4750 1984 4673 
Q 2169 4597 2303 4453 
Q 2447 4313 2519 4134 
Q 2591 3956 2591 3750 
Q 2591 3338 2302 3052 
Q 2013 2766 1594 2766 
Q 1172 2766 890 3047 
Q 609 3328 609 3750 
Q 609 4169 896 4459 
Q 1184 4750 1600 4750 
z
" transform="scale(0.015625)"/>
       </defs>
       <use xlink:href="#DejaVuSans-30"/>
       <use xlink:href="#DejaVuSans-b0" x="63.623047"/>
      </g>
     </g>
    </g>
    <g id="xtick_2">
     <g id="line2d_2">
      <path d="M 251.8225 262.917188 
L 95.0145 106.109188 
" clip-path="url(#p16d4dbe0f9)" style="fill: none; stroke: #b0b0b0; stroke-width: 0.8; stroke-linecap: square"/>
     </g>
     <g id="text_2">
      <!-- 45° -->
      <g transform="translate(76.252505 98.969068)scale(0.1 -0.1)">
       <defs>
        <path id="DejaVuSans-34" d="M 2419 4116 
L 825 1625 
L 2419 1625 
L 2419 4116 
z
M 2253 4666 
L 3047 4666 
L 3047 1625 
L 3713 1625 
L 3713 1100 
L 3047 1100 
L 3047 0 
L 2419 0 
L 2419 1100 
L 313 1100 
L 313 1709 
L 2253 4666 
z
" transform="scale(0.015625)"/>
        <path id="DejaVuSans-35" d="M 691 4666 
L 3169 4666 
L 3169 4134 
L 1269 4134 
L 1269 2991 
Q 1406 3038 1543 3061 
Q 1681 3084 1819 3084 
Q 2600 3084 3056 2656 
Q 3513 2228 3513 1497 
Q 3513 744 3044 326 
Q 2575 -91 1722 -91 
Q 1428 -91 1123 -41 
Q 819 9 494 109 
L 494 744 
Q 775 591 1075 516 
Q 1375 441 1709 441 
Q 2250 441 2565 725 
Q 2881 1009 2881 1497 
Q 2881 1984 2565 2268 
Q 2250 2553 1709 2553 
Q 1456 2553 1204 2497 
Q 953 2441 691 2322 
L 691 4666 
z
" transform="scale(0.015625)"/>
       </defs>
       <use xlink:href="#DejaVuSans-34"/>
       <use xlink:href="#DejaVuSans-35" x="63.623047"/>
       <use xlink:href="#DejaVuSans-b0" x="127.246094"/>
      </g>
     </g>
    </g>
    <g id="xtick_3">
     <g id="line2d_3">
      <path d="M 251.8225 262.917188 
L 30.0625 262.917188 
" clip-path="url(#p16d4dbe0f9)" style="fill: none; stroke: #b0b0b0; stroke-width: 0.8; stroke-linecap: square"/>
     </g>
     <g id="text_3">
      <!-- 90° -->
      <g transform="translate(7.2 265.676563)scale(0.1 -0.1)">
       <defs>
        <path id="DejaVuSans-39" d="M 703 97 
L 703 672 
Q 941 559 1184 500 
Q 1428 441 1663 441 
Q 2288 441 2617 861 
Q 2947 1281 2994 2138 
Q 2813 1869 2534 1725 
Q 2256 1581 1919 1581 
Q 1219 1581 811 2004 
Q 403 2428 403 3163 
Q 403 3881 828 4315 
Q 1253 4750 1959 4750 
Q 2769 4750 3195 4129 
Q 3622 3509 3622 2328 
Q 3622 1225 3098 567 
Q 2575 -91 1691 -91 
Q 1453 -91 1209 -44 
Q 966 3 703 97 
z
M 1959 2075 
Q 2384 2075 2632 2365 
Q 2881 2656 2881 3163 
Q 2881 3666 2632 3958 
Q 2384 4250 1959 4250 
Q 1534 4250 1286 3958 
Q 1038 3666 1038 3163 
Q 1038 2656 1286 2365 
Q 1534 2075 1959 2075 
z
" transform="scale(0.015625)"/>
       </defs>
       <use xlink:href="#DejaVuSans-39"/>
       <use xlink:href="#DejaVuSans-30" x="63.623047"/>
       <use xlink:href="#DejaVuSans-b0" x="127.246094"/>
      </g>
     </g>
    </g>
    <g id="xtick_4">
     <g id="line2d_4">
      <path d="M 251.8225 262.917188 
L 95.0145 419.725187 
" clip-path="url(#p16d4dbe0f9)" style="fill: none; stroke: #b0b0b0; stroke-width: 0.8; stroke-linecap: square"/>
     </g>
     <g id="text_4">
      <!-- 135° -->
      <g transform="translate(73.071255 432.384057)scale(0.1 -0.1)">
       <defs>
        <path id="DejaVuSans-31" d="M 794 531 
L 1825 531 
L 1825 4091 
L 703 3866 
L 703 4441 
L 1819 4666 
L 2450 4666 
L 2450 531 
L 3481 531 
L 3481 0 
L 794 0 
L 794 531 
z
" transform="scale(0.015625)"/>
        <path id="DejaVuSans-33" d="M 2597 2516 
Q 3050 2419 3304 2112 
Q 3559 1806 3559 1356 
Q 3559 666 3084 287 
Q 2609 -91 1734 -91 
Q 1441 -91 1130 -33 
Q 819 25 488 141 
L 488 750 
Q 750 597 1062 519 
Q 1375 441 1716 441 
Q 2309 441 2620 675 
Q 2931 909 2931 1356 
Q 2931 1769 2642 2001 
Q 2353 2234 1838 2234 
L 1294 2234 
L 1294 2753 
L 1863 2753 
Q 2328 2753 2575 2939 
Q 2822 3125 2822 3475 
Q 2822 3834 2567 4026 
Q 2313 4219 1838 4219 
Q 1578 4219 1281 4162 
Q 984 4106 628 3988 
L 628 4550 
Q 988 4650 1302 4700 
Q 1616 4750 1894 4750 
Q 2613 4750 3031 4423 
Q 3450 4097 3450 3541 
Q 3450 3153 3228 2886 
Q 3006 2619 2597 2516 
z
" transform="scale(0.015625)"/>
       </defs>
       <use xlink:href="#DejaVuSans-31"/>
       <use xlink:href="#DejaVuSans-33" x="63.623047"/>
       <use xlink:href="#DejaVuSans-35" x="127.246094"/>
       <use xlink:href="#DejaVuSans-b0" x="190.869141"/>
      </g>
     </g>
    </g>
    <g id="xtick_5">
     <g id="line2d_5">
      <path d="M 251.8225 262.917188 
L 251.8225 484.677188 
" clip-path="url(#p16d4dbe0f9)" style="fill: none; stroke: #b0b0b0; stroke-width: 0.8; stroke-linecap: square"/>
     </g>
     <g id="text_5">
      <!-- 180° -->
      <g transform="translate(239.77875 501.436563)scale(0.1 -0.1)">
       <defs>
        <path id="DejaVuSans-38" d="M 2034 2216 
Q 1584 2216 1326 1975 
Q 1069 1734 1069 1313 
Q 1069 891 1326 650 
Q 1584 409 2034 409 
Q 2484 409 2743 651 
Q 3003 894 3003 1313 
Q 3003 1734 2745 1975 
Q 2488 2216 2034 2216 
z
M 1403 2484 
Q 997 2584 770 2862 
Q 544 3141 544 3541 
Q 544 4100 942 4425 
Q 1341 4750 2034 4750 
Q 2731 4750 3128 4425 
Q 3525 4100 3525 3541 
Q 3525 3141 3298 2862 
Q 3072 2584 2669 2484 
Q 3125 2378 3379 2068 
Q 3634 1759 3634 1313 
Q 3634 634 3220 271 
Q 2806 -91 2034 -91 
Q 1263 -91 848 271 
Q 434 634 434 1313 
Q 434 1759 690 2068 
Q 947 2378 1403 2484 
z
M 1172 3481 
Q 1172 3119 1398 2916 
Q 1625 2713 2034 2713 
Q 2441 2713 2670 2916 
Q 2900 3119 2900 3481 
Q 2900 3844 2670 4047 
Q 2441 4250 2034 4250 
Q 1625 4250 1398 4047 
Q 1172 3844 1172 3481 
z
" transform="scale(0.015625)"/>
       </defs>
       <use xlink:href="#DejaVuSans-31"/>
       <use xlink:href="#DejaVuSans-38" x="63.623047"/>
       <use xlink:href="#DejaVuSans-30" x="127.246094"/>
       <use xlink:href="#DejaVuSans-b0" x="190.869141"/>
      </g>
     </g>
    </g>
    <g id="xtick_6">
     <g id="line2d_6">
      <path d="M 251.8225 262.917188 
L 408.6305 419.725187 
" clip-path="url(#p16d4dbe0f9)" style="fill: none; stroke: #b0b0b0; stroke-width: 0.8; stroke-linecap: square"/>
     </g>
     <g id="text_6">
      <!-- 225° -->
      <g transform="translate(406.486245 432.384057)scale(0.1 -0.1)">
       <defs>
        <path id="DejaVuSans-32" d="M 1228 531 
L 3431 531 
L 3431 0 
L 469 0 
L 469 531 
Q 828 903 1448 1529 
Q 2069 2156 2228 2338 
Q 2531 2678 2651 2914 
Q 2772 3150 2772 3378 
Q 2772 3750 2511 3984 
Q 2250 4219 1831 4219 
Q 1534 4219 1204 4116 
Q 875 4013 500 3803 
L 500 4441 
Q 881 4594 1212 4672 
Q 1544 4750 1819 4750 
Q 2544 4750 2975 4387 
Q 3406 4025 3406 3419 
Q 3406 3131 3298 2873 
Q 3191 2616 2906 2266 
Q 2828 2175 2409 1742 
Q 1991 1309 1228 531 
z
" transform="scale(0.015625)"/>
       </defs>
       <use xlink:href="#DejaVuSans-32"/>
       <use xlink:href="#DejaVuSans-32" x="63.623047"/>
       <use xlink:href="#DejaVuSans-35" x="127.246094"/>
       <use xlink:href="#DejaVuSans-b0" x="190.869141"/>
      </g>
     </g>
    </g>
    <g id="xtick_7">
     <g id="line2d_7">
      <path d="M 251.8225 262.917188 
L 473.5825 262.917188 
" clip-path="url(#p16d4dbe0f9)" style="fill: none; stroke: #b0b0b0; stroke-width: 0.8; stroke-linecap: square"/>
     </g>
     <g id="text_7">
      <!-- 270° -->
      <g transform="translate(475.53875 265.676563)scale(0.1 -0.1)">
       <defs>
        <path id="DejaVuSans-37" d="M 525 4666 
L 3525 4666 
L 3525 4397 
L 1831 0 
L 1172 0 
L 2766 4134 
L 525 4134 
L 525 4666 
z
" transform="scale(0.015625)"/>
       </defs>
       <use xlink:href="#DejaVuSans-32"/>
       <use xlink:href="#DejaVuSans-37" x="63.623047"/>
       <use xlink:href="#DejaVuSans-30" x="127.246094"/>
       <use xlink:href="#DejaVuSans-b0" x="190.869141"/>
      </g>
     </g>
    </g>
    <g id="xtick_8">
     <g id="line2d_8">
      <path d="M 251.8225 262.917188 
L 408.6305 106.109188 
" clip-path="url(#p16d4dbe0f9)" style="fill: none; stroke: #b0b0b0; stroke-width: 0.8; stroke-linecap: square"/>
     </g>
     <g id="text_8">
      <!-- 315° -->
      <g transform="translate(406.486245 98.969068)scale(0.1 -0.1)">
       <use xlink:href="#DejaVuSans-33"/>
       <use xlink:href="#DejaVuSans-31" x="63.623047"/>
       <use xlink:href="#DejaVuSans-35" x="127.246094"/>
       <use xlink:href="#DejaVuSans-b0" x="190.869141"/>
      </g>
     </g>
    </g>
   </g>
   <g id="matplotlib.axis_2">
    <g id="ytick_1">
     <g id="line2d_9">
      <path d="M 251.8225 253.318988 
C 250.562076 253.318988 249.313908 253.567264 248.149428 254.049607 
C 246.984948 254.531951 245.926802 255.238981 245.035548 256.130235 
C 244.144293 257.02149 243.437263 258.079635 242.95492 259.244115 
C 242.472576 260.408595 242.2243 261.656763 242.2243 262.917188 
C 242.2243 264.177612 242.472576 265.42578 242.95492 266.59026 
C 243.437263 267.75474 244.144293 268.812885 245.035548 269.70414 
C 245.926802 270.595394 246.984948 271.302424 248.149428 271.784768 
C 249.313908 272.267111 250.562076 272.515387 251.8225 272.515387 
C 253.082924 272.515387 254.331092 272.267111 255.495572 271.784768 
C 256.660052 271.302424 257.718198 270.595394 258.609452 269.70414 
C 259.500707 268.812885 260.207737 267.75474 260.69008 266.59026 
C 261.172424 265.42578 261.4207 264.177612 261.4207 262.917188 
C 261.4207 261.656763 261.172424 260.408595 260.69008 259.244115 
C 260.207737 258.079635 259.500707 257.02149 258.609452 256.130235 
C 257.718198 255.238981 256.660052 254.531951 255.495572 254.049607 
C 254.331092 253.567264 253.082924 253.318988 251.8225 253.318988 
" clip-path="url(#p16d4dbe0f9)" style="fill: none; stroke: #b0b0b0; stroke-width: 0.8; stroke-linecap: square"/>
     </g>
     <g id="text_9">
      <!-- −30 -->
      <g transform="translate(248.149428 251.96992)scale(0.1 -0.1)">
       <defs>
        <path id="DejaVuSans-2212" d="M 678 2272 
L 4684 2272 
L 4684 1741 
L 678 1741 
L 678 2272 
z
" transform="scale(0.015625)"/>
       </defs>
       <use xlink:href="#DejaVuSans-2212"/>
       <use xlink:href="#DejaVuSans-33" x="83.789062"/>
       <use xlink:href="#DejaVuSans-30" x="147.412109"/>
      </g>
     </g>
    </g>
    <g id="ytick_2">
     <g id="line2d_10">
      <path d="M 251.8225 217.958688 
C 245.918604 217.958688 240.072116 219.121626 234.617627 221.38095 
C 229.163138 223.640273 224.206725 226.952042 220.03204 231.126727 
C 215.857355 235.301412 212.545585 240.257826 210.286262 245.712314 
C 208.026939 251.166803 206.864 257.013291 206.864 262.917188 
C 206.864 268.821084 208.026939 274.667572 210.286262 280.122061 
C 212.545585 285.576549 215.857355 290.532963 220.03204 294.707648 
C 224.206725 298.882333 229.163138 302.194102 234.617627 304.453425 
C 240.072116 306.712749 245.918604 307.875687 251.8225 307.875687 
C 257.726396 307.875687 263.572884 306.712749 269.027373 304.453425 
C 274.481862 302.194102 279.438275 298.882333 283.61296 294.707648 
C 287.787645 290.532963 291.099415 285.576549 293.358738 280.122061 
C 295.618061 274.667572 296.781 268.821084 296.781 262.917188 
C 296.781 257.013291 295.618061 251.166803 293.358738 245.712314 
C 291.099415 240.257826 287.787645 235.301412 283.61296 231.126727 
C 279.438275 226.952042 274.481862 223.640273 269.027373 221.38095 
C 263.572884 219.121626 257.726396 217.958688 251.8225 217.958688 
" clip-path="url(#p16d4dbe0f9)" style="fill: none; stroke: #b0b0b0; stroke-width: 0.8; stroke-linecap: square"/>
     </g>
     <g id="text_10">
      <!-- −25 -->
      <g transform="translate(234.617627 219.301262)scale(0.1 -0.1)">
       <use xlink:href="#DejaVuSans-2212"/>
       <use xlink:href="#DejaVuSans-32" x="83.789062"/>
       <use xlink:href="#DejaVuSans-35" x="147.412109"/>
      </g>
     </g>
    </g>
    <g id="ytick_3">
     <g id="line2d_11">
      <path d="M 251.8225 182.598388 
C 241.275132 182.598388 230.830324 184.675989 221.085826 188.712292 
C 211.341328 192.748595 202.486647 198.665104 195.028532 206.123219 
C 187.570416 213.581335 181.653908 222.436016 177.617605 232.180513 
C 173.581302 241.925011 171.5037 252.369819 171.5037 262.917188 
C 171.5037 273.464556 173.581302 283.909364 177.617605 293.653862 
C 181.653908 303.398359 187.570416 312.25304 195.028532 319.711156 
C 202.486647 327.169271 211.341328 333.08578 221.085826 337.122083 
C 230.830324 341.158386 241.275132 343.235987 251.8225 343.235987 
C 262.369868 343.235987 272.814676 341.158386 282.559174 337.122083 
C 292.303672 333.08578 301.158353 327.169271 308.616468 319.711156 
C 316.074584 312.25304 321.991092 303.398359 326.027395 293.653862 
C 330.063698 283.909364 332.1413 273.464556 332.1413 262.917188 
C 332.1413 252.369819 330.063698 241.925011 326.027395 232.180513 
C 321.991092 222.436016 316.074584 213.581335 308.616468 206.123219 
C 301.158353 198.665104 292.303672 192.748595 282.559174 188.712292 
C 272.814676 184.675989 262.369868 182.598388 251.8225 182.598388 
" clip-path="url(#p16d4dbe0f9)" style="fill: none; stroke: #b0b0b0; stroke-width: 0.8; stroke-linecap: square"/>
     </g>
     <g id="text_11">
      <!-- −20 -->
      <g transform="translate(221.085826 186.632605)scale(0.1 -0.1)">
       <use xlink:href="#DejaVuSans-2212"/>
       <use xlink:href="#DejaVuSans-32" x="83.789062"/>
       <use xlink:href="#DejaVuSans-30" x="147.412109"/>
      </g>
     </g>
    </g>
    <g id="ytick_4">
     <g id="line2d_12">
      <path d="M 251.8225 147.238088 
C 236.63166 147.238088 221.588531 150.230352 207.554025 156.043635 
C 193.519519 161.856918 180.76657 170.378165 170.025024 181.119712 
C 159.283478 191.861258 150.76223 204.614206 144.948947 218.648712 
C 139.135664 232.683219 136.1434 247.726347 136.1434 262.917188 
C 136.1434 278.108028 139.135664 293.151156 144.948947 307.185663 
C 150.76223 321.220169 159.283478 333.973117 170.025024 344.714663 
C 180.76657 355.45621 193.519519 363.977457 207.554025 369.79074 
C 221.588531 375.604023 236.63166 378.596287 251.8225 378.596287 
C 267.01334 378.596287 282.056469 375.604023 296.090975 369.79074 
C 310.125481 363.977457 322.87843 355.45621 333.619976 344.714663 
C 344.361522 333.973117 352.88277 321.220169 358.696053 307.185663 
C 364.509336 293.151156 367.5016 278.108028 367.5016 262.917188 
C 367.5016 247.726347 364.509336 232.683219 358.696053 218.648712 
C 352.88277 204.614206 344.361522 191.861258 333.619976 181.119712 
C 322.87843 170.378165 310.125481 161.856918 296.090975 156.043635 
C 282.056469 150.230352 267.01334 147.238088 251.8225 147.238088 
" clip-path="url(#p16d4dbe0f9)" style="fill: none; stroke: #b0b0b0; stroke-width: 0.8; stroke-linecap: square"/>
     </g>
     <g id="text_12">
      <!-- −15 -->
      <g transform="translate(207.554025 153.963947)scale(0.1 -0.1)">
       <use xlink:href="#DejaVuSans-2212"/>
       <use xlink:href="#DejaVuSans-31" x="83.789062"/>
       <use xlink:href="#DejaVuSans-35" x="147.412109"/>
      </g>
     </g>
    </g>
    <g id="ytick_5">
     <g id="line2d_13">
      <path d="M 251.8225 111.877788 
C 231.988188 111.877788 212.346739 115.784715 194.022224 123.374977 
C 175.697709 130.96524 159.046493 142.091227 145.021516 156.116204 
C 130.996539 170.14118 119.870552 186.792396 112.28029 205.116912 
C 104.690027 223.441427 100.7831 243.082875 100.7831 262.917188 
C 100.7831 282.7515 104.690027 302.392948 112.28029 320.717463 
C 119.870552 339.041979 130.996539 355.693195 145.021516 369.718171 
C 159.046493 383.743148 175.697709 394.869135 194.022224 402.459398 
C 212.346739 410.04966 231.988188 413.956587 251.8225 413.956587 
C 271.656812 413.956587 291.298261 410.04966 309.622776 402.459398 
C 327.947291 394.869135 344.598507 383.743148 358.623484 369.718171 
C 372.648461 355.693195 383.774448 339.041979 391.36471 320.717463 
C 398.954973 302.392948 402.8619 282.7515 402.8619 262.917188 
C 402.8619 243.082875 398.954973 223.441427 391.36471 205.116912 
C 383.774448 186.792396 372.648461 170.14118 358.623484 156.116204 
C 344.598507 142.091227 327.947291 130.96524 309.622776 123.374977 
C 291.298261 115.784715 271.656812 111.877788 251.8225 111.877788 
" clip-path="url(#p16d4dbe0f9)" style="fill: none; stroke: #b0b0b0; stroke-width: 0.8; stroke-linecap: square"/>
     </g>
     <g id="text_13">
      <!-- −10 -->
      <g transform="translate(194.022224 121.29529)scale(0.1 -0.1)">
       <use xlink:href="#DejaVuSans-2212"/>
       <use xlink:href="#DejaVuSans-31" x="83.789062"/>
       <use xlink:href="#DejaVuSans-30" x="147.412109"/>
      </g>
     </g>
    </g>
    <g id="ytick_6">
     <g id="line2d_14">
      <path d="M 251.8225 76.517488 
C 227.344716 76.517488 203.104947 81.339077 180.490423 90.70632 
C 157.875899 100.073562 137.326415 113.804288 120.018008 131.112696 
C 102.709601 148.421103 88.978875 168.970587 79.611632 191.585111 
C 70.24439 214.199634 65.4228 238.439403 65.4228 262.917188 
C 65.4228 287.394972 70.24439 311.634741 79.611632 334.249264 
C 88.978875 356.863788 102.709601 377.413272 120.018008 394.721679 
C 137.326415 412.030087 157.875899 425.760813 180.490423 435.128055 
C 203.104947 444.495298 227.344716 449.316887 251.8225 449.316887 
C 276.300284 449.316887 300.540053 444.495298 323.154577 435.128055 
C 345.769101 425.760813 366.318585 412.030087 383.626992 394.721679 
C 400.935399 377.413272 414.666125 356.863788 424.033368 334.249264 
C 433.40061 311.634741 438.2222 287.394972 438.2222 262.917188 
C 438.2222 238.439403 433.40061 214.199634 424.033368 191.585111 
C 414.666125 168.970587 400.935399 148.421103 383.626992 131.112696 
C 366.318585 113.804288 345.769101 100.073562 323.154577 90.70632 
C 300.540053 81.339077 276.300284 76.517488 251.8225 76.517488 
" clip-path="url(#p16d4dbe0f9)" style="fill: none; stroke: #b0b0b0; stroke-width: 0.8; stroke-linecap: square"/>
     </g>
     <g id="text_14">
      <!-- −5 -->
      <g transform="translate(180.490423 88.626632)scale(0.1 -0.1)">
       <use xlink:href="#DejaVuSans-2212"/>
       <use xlink:href="#DejaVuSans-35" x="83.789062"/>
      </g>
     </g>
    </g>
    <g id="ytick_7">
     <g id="line2d_15">
      <path d="M 251.8225 41.157188 
C 222.701244 41.157188 193.863155 46.89344 166.958622 58.037662 
C 140.054089 69.181885 115.606338 85.51735 95.0145 106.109188 
C 74.422662 126.701026 58.087197 151.148777 46.942975 178.05331 
C 35.798753 204.957842 30.0625 233.795931 30.0625 262.917188 
C 30.0625 292.038444 35.798753 320.876533 46.942975 347.781065 
C 58.087197 374.685598 74.422662 399.133349 95.0145 419.725187 
C 115.606338 440.317025 140.054089 456.65249 166.958622 467.796713 
C 193.863155 478.940935 222.701244 484.677188 251.8225 484.677188 
C 280.943756 484.677188 309.781845 478.940935 336.686378 467.796713 
C 363.590911 456.65249 388.038662 440.317025 408.6305 419.725187 
C 429.222338 399.133349 445.557803 374.685598 456.702025 347.781065 
C 467.846247 320.876533 473.5825 292.038444 473.5825 262.917188 
C 473.5825 233.795931 467.846247 204.957842 456.702025 178.05331 
C 445.557803 151.148777 429.222338 126.701026 408.6305 106.109188 
C 388.038662 85.51735 363.590911 69.181885 336.686378 58.037662 
C 309.781845 46.89344 280.943756 41.157188 251.8225 41.157188 
" clip-path="url(#p16d4dbe0f9)" style="fill: none; stroke: #b0b0b0; stroke-width: 0.8; stroke-linecap: square"/>
     </g>
     <g id="text_15">
      <!-- 0 -->
      <g transform="translate(166.958622 55.957975)scale(0.1 -0.1)">
       <use xlink:href="#DejaVuSans-30"/>
      </g>
     </g>
    </g>
   </g>
   <g id="line2d_16">
    <path d="M 251.8225 459.00561 
L 258.672798 459.084055 
L 262.132351 459.64086 
L 265.603548 459.995353 
L 269.156815 461.049313 
L 272.726638 461.806775 
L 276.360035 462.75937 
L 280.127486 464.317626 
L 283.871529 465.266795 
L 287.776375 466.821746 
L 291.731649 468.231963 
L 295.613173 468.936108 
L 299.653836 470.097466 
L 303.727707 471.0976 
L 307.706314 471.478422 
L 311.828928 472.184472 
L 315.887608 472.464715 
L 319.832172 472.229435 
L 323.767226 471.859843 
L 327.581811 471.064183 
L 331.294176 469.947983 
L 338.468272 467.041834 
L 341.879471 465.188456 
L 348.331943 460.790869 
L 351.298651 458.150126 
L 353.957036 455.004312 
L 356.663 452.054456 
L 359.032101 448.609663 
L 361.101918 444.788681 
L 363.303726 441.324444 
L 366.385424 432.763707 
L 368.159916 429.064236 
L 371.127185 415.620221 
L 371.090343 410.200708 
L 371.597005 405.658884 
L 371.782582 400.915476 
L 370.831829 395.090438 
L 370.487014 390.169299 
L 369.624293 384.904515 
L 367.35971 378.454397 
L 365.965343 373.14365 
L 363.651179 367.199118 
L 360.019864 360.338531 
L 358.191644 355.382474 
L 354.962182 349.461657 
L 351.180701 343.375872 
L 349.014281 338.851729 
L 346.619632 334.35195 
L 345.340201 330.861774 
L 345.300998 328.371536 
L 346.476 326.76178 
L 351.927088 325.469476 
L 356.016313 325.523146 
L 359.867505 325.297 
L 362.640701 324.34472 
L 366.137387 323.699491 
L 368.667869 322.452877 
L 371.068436 321.077317 
L 373.968919 319.874998 
L 376.352788 318.361644 
L 380.651152 314.967342 
L 382.252984 312.984759 
L 383.545525 310.860448 
L 385.1646 308.830555 
L 385.286449 306.282253 
L 386.699251 304.153149 
L 387.996609 301.964485 
L 389.565872 299.825413 
L 390.56644 297.509937 
L 390.542645 294.943256 
L 390.852171 292.468856 
L 390.58311 289.889518 
L 389.765147 287.240198 
L 389.274554 284.687454 
L 387.95979 282.050036 
L 386.33563 279.433323 
L 384.92946 276.907293 
L 381.588503 274.270242 
L 379.022547 271.811881 
L 374.836238 269.364064 
L 369.834167 267.038246 
L 364.924286 264.891387 
L 357.841166 262.917188 
L 353.561216 261.141332 
L 347.75451 259.567168 
L 343.006146 258.138455 
L 340.961724 256.683966 
L 340.923904 255.121825 
L 342.996815 253.334381 
L 350.709582 249.019514 
L 355.697701 246.464972 
L 359.552628 243.921459 
L 364.362699 241.041589 
L 369.013565 238.007458 
L 372.316469 235.098963 
L 376.602291 231.806091 
L 380.494191 228.439712 
L 383.251535 225.230518 
L 386.388151 221.776339 
L 388.535073 218.49658 
L 389.357201 215.560192 
L 390.350582 212.497089 
L 390.935057 209.51688 
L 391.044156 206.667987 
L 391.727323 203.531114 
L 391.651603 200.66126 
L 391.261651 197.895644 
L 390.060618 192.481348 
L 388.579251 190.202333 
L 386.553315 188.234677 
L 382.294817 184.521511 
L 379.011559 183.440643 
L 376.18759 182.153554 
L 373.070584 181.134322 
L 369.220676 180.714099 
L 366.034565 179.937265 
L 361.999131 179.893141 
L 356.186551 181.379054 
L 351.988616 181.804266 
L 346.554203 183.42785 
L 339.366806 186.816084 
L 334.067885 188.863111 
L 327.001131 192.81198 
L 318.176053 198.840307 
L 312.817057 201.92263 
L 305.995447 206.819459 
L 303.199481 207.822121 
L 303.034577 206.040414 
L 308.15389 198.115336 
L 312.914853 190.110157 
L 316.29466 183.300701 
L 322.584496 172.345963 
L 325.483189 165.166152 
L 327.602754 158.614616 
L 330.581732 150.437347 
L 333.382722 132.393548 
L 332.56138 123.073345 
L 332.350778 117.640328 
L 331.247339 113.54079 
L 330.378068 108.743204 
L 329.355698 103.950574 
L 327.624579 100.359104 
L 326.145202 95.985665 
L 324.190435 92.429016 
L 321.980212 89.270758 
L 319.820949 85.775171 
L 317.299547 83.020479 
L 311.894847 78.033513 
L 308.942304 76.086727 
L 305.885439 74.377312 
L 302.700215 73.038971 
L 296.050521 71.344579 
L 285.746408 70.525145 
L 282.204314 71.093962 
L 278.746596 71.342288 
L 271.780422 73.030247 
L 268.386352 73.591498 
L 264.985415 74.678727 
L 261.653412 75.332219 
L 258.359348 75.726365 
L 255.07587 76.531735 
L 248.57851 77.06913 
L 245.352785 77.648793 
L 242.133345 78.037106 
L 232.465574 78.748335 
L 229.225029 78.875552 
L 226.028312 79.382002 
L 219.598214 80.164178 
L 216.446028 80.921015 
L 213.328078 81.815169 
L 210.243273 82.817767 
L 207.251862 84.154124 
L 204.204699 85.205134 
L 195.460939 89.45414 
L 190.109085 93.360974 
L 187.483724 95.308945 
L 185.206823 98.0376 
L 182.825759 100.371052 
L 180.675416 103.11822 
L 179.021157 106.794205 
L 177.265481 110.052646 
L 176.034511 114.174883 
L 175.495343 119.366683 
L 174.575395 123.559721 
L 174.241295 128.542598 
L 174.257286 133.826993 
L 174.137318 138.594909 
L 174.6063 144.014667 
L 175.275586 149.43172 
L 175.351059 153.704651 
L 176.482873 159.221086 
L 177.26378 163.974425 
L 177.790654 168.160746 
L 178.809655 172.753833 
L 179.586257 179.818895 
L 179.325294 182.400884 
L 178.71248 184.51629 
L 176.280902 187.375589 
L 175.370827 189.088665 
L 173.633662 190.004916 
L 172.362565 191.37114 
L 169.003906 193.424136 
L 167.320049 194.488452 
L 165.876749 195.769007 
L 164.876085 197.398365 
L 163.499846 198.747023 
L 162.231167 200.184661 
L 160.499186 201.318834 
L 157.712097 201.801177 
L 155.502301 202.729647 
L 151.659876 202.733411 
L 148.156573 203.065636 
L 142.715325 204.903873 
L 140.692366 206.293556 
L 139.479533 208.123861 
L 137.963516 209.823872 
L 135.44578 215.897941 
L 134.035491 217.702991 
L 131.782374 219.226155 
L 129.279524 220.722257 
L 127.203147 222.425905 
L 122.609646 225.865998 
L 121.067328 227.881445 
L 119.830758 230.00795 
L 118.416772 234.560925 
L 114.531101 241.172366 
L 111.903463 243.252849 
L 108.376562 247.840412 
L 106.951699 250.242635 
L 106.41393 252.74923 
L 106.378681 255.2948 
L 107.257289 257.868859 
L 107.904664 262.917188 
L 107.870016 265.429887 
L 108.105419 267.935899 
L 108.836385 270.410772 
L 110.089498 272.828125 
L 111.53809 275.190483 
L 119.326893 281.538231 
L 122.94103 283.330007 
L 125.371475 285.213915 
L 128.091594 286.968039 
L 131.394036 288.515048 
L 133.409553 290.25497 
L 135.70254 291.869145 
L 138.787164 293.204915 
L 141.27723 294.615534 
L 145.424929 295.446189 
L 151.41649 295.541078 
L 155.438145 296.104982 
L 161.574431 295.764798 
L 170.440776 294.156704 
L 173.890057 294.403938 
L 180.245226 293.299938 
L 186.846468 291.846381 
L 191.75814 290.925659 
L 200.710016 287.846412 
L 210.890138 284.681311 
L 218.513083 281.380899 
L 222.796873 279.675141 
L 228.755611 276.777173 
L 235.100418 273.366304 
L 242.966139 268.668576 
L 232.580231 276.897514 
L 224.089699 283.815352 
L 214.823172 291.82423 
L 209.194247 297.436866 
L 204.141891 302.925969 
L 199.515388 308.387066 
L 195.455078 315.480659 
L 195.053259 317.738606 
L 195.643618 319.096069 
L 197.633632 321.027633 
L 199.678193 320.829307 
L 201.810366 320.449566 
L 203.585762 320.403494 
L 205.068145 320.654007 
L 207.450067 319.711312 
L 209.56311 318.997292 
L 210.789377 319.394436 
L 211.533852 320.45534 
L 212.022154 321.923627 
L 210.084492 327.188083 
L 206.726629 335.085667 
L 198.387041 359.317308 
L 196.900228 366.210958 
L 194.986966 374.463204 
L 193.281048 382.944952 
L 193.002678 389.056702 
L 192.17265 396.892943 
L 191.944563 403.980766 
L 192.571711 409.568037 
L 192.696984 416.944423 
L 193.756616 422.451892 
L 195.357062 426.904728 
L 196.787469 432.297596 
L 198.829766 436.248611 
L 203.238256 444.236054 
L 208.688995 449.748923 
L 211.563641 452.320228 
L 217.84333 455.622638 
L 221.092197 456.940685 
L 224.48207 457.454456 
L 227.818461 458.414395 
L 231.205184 459.077848 
L 238.070558 459.579118 
L 241.51598 459.577299 
L 248.395595 459.244442 
L 248.395595 459.244442 
" clip-path="url(#p16d4dbe0f9)" style="fill: none; stroke: #ff0000; stroke-width: 1.5; stroke-linecap: square"/>
   </g>
   <g id="line2d_17">
    <path d="M 251.8225 73.202106 
L 248.49916 72.523195 
L 245.154077 71.958546 
L 241.791426 71.51289 
L 238.415785 71.192229 
L 235.031947 71.000292 
L 231.645101 70.942055 
L 228.260341 71.018798 
L 224.883148 71.233738 
L 221.519013 71.588499 
L 218.173552 72.084523 
L 214.852101 72.720975 
L 211.560553 73.49962 
L 208.304324 74.419256 
L 205.08896 75.479197 
L 201.919831 76.677891 
L 198.802644 78.014975 
L 195.742527 79.487862 
L 192.744722 81.094483 
L 189.814404 82.8326 
L 186.95668 84.699812 
L 184.175825 86.691575 
L 181.476692 88.805204 
L 178.863224 91.035905 
L 176.343458 93.388484 
L 173.91333 95.840432 
L 171.585939 98.407858 
L 169.356363 101.06828 
L 167.231537 103.824724 
L 165.215309 106.67368 
L 163.304354 109.599261 
L 161.505313 112.604146 
L 159.817659 115.678664 
L 158.244194 118.819232 
L 156.779707 122.010453 
L 154.177202 128.519964 
L 151.997588 135.147127 
L 150.194958 141.8022 
L 148.722598 148.413146 
L 147.501062 154.889176 
L 143.934472 175.551185 
L 142.752876 180.727331 
L 141.387621 185.589853 
L 139.835675 190.192093 
L 138.105382 194.589049 
L 135.253436 200.936317 
L 130.19087 211.287624 
L 126.176865 219.653926 
L 122.372065 228.231048 
L 119.67576 234.828531 
L 117.143487 241.586127 
L 114.805015 248.51607 
L 113.37705 253.236139 
L 112.091631 258.037678 
L 110.966866 262.917188 
L 110.041983 267.868272 
L 109.355795 272.87943 
L 108.946261 277.934085 
L 108.857056 283.00967 
L 109.116053 288.080184 
L 109.762956 293.112876 
L 110.841551 298.067686 
L 111.551626 300.502655 
L 112.385303 302.90016 
L 113.341046 305.255217 
L 114.430608 307.558519 
L 115.651898 309.804486 
L 117.009288 311.985184 
L 118.513397 314.089758 
L 120.167738 316.109164 
L 121.97542 318.034003 
L 123.939136 319.85453 
L 126.073962 321.554694 
L 128.375033 323.12654 
L 130.849811 324.555851 
L 133.517532 325.821055 
L 136.371462 326.912743 
L 139.422916 327.811117 
L 142.682145 328.495329 
L 146.152281 328.947269 
L 149.829627 329.152134 
L 153.756732 329.063384 
L 157.880555 328.696046 
L 162.189641 328.039271 
L 166.672149 327.08258 
L 171.204402 325.902948 
L 183.898298 321.962795 
L 186.831135 321.435676 
L 188.482983 321.982243 
L 188.658631 323.913827 
L 187.482473 327.257214 
L 185.225422 331.880481 
L 179.391544 343.359913 
L 176.445187 349.628866 
L 173.696913 356.023637 
L 171.346013 362.297372 
L 169.33955 368.490549 
L 167.713155 374.534059 
L 166.456544 380.413346 
L 165.558989 386.114249 
L 164.997461 391.640601 
L 164.7536 396.991535 
L 164.80949 402.167112 
L 165.144051 407.174352 
L 165.744214 412.009152 
L 166.590179 416.680365 
L 167.666474 421.191653 
L 168.961453 425.541149 
L 170.460571 429.733863 
L 172.153535 433.767835 
L 174.028478 437.645421 
L 176.074804 441.367575 
L 178.282503 444.935067 
L 180.642365 448.347778 
L 183.145156 451.60664 
L 185.783526 454.708293 
L 188.546376 457.661074 
L 191.427506 460.46031 
L 194.420369 463.102209 
L 197.516476 465.590027 
L 200.709434 467.920499 
L 203.991164 470.097466 
L 207.353989 472.125084 
L 210.793338 473.993927 
L 214.301633 475.708601 
L 217.871717 477.273995 
L 221.498837 478.681262 
L 225.175114 479.942729 
L 228.896564 481.042901 
L 232.655099 482.001585 
L 236.446542 482.803628 
L 240.264594 483.455165 
L 244.103426 483.962542 
L 247.957932 484.318147 
L 251.8225 484.535746 
L 255.692129 484.608057 
L 259.561812 484.542097 
L 263.426671 484.337961 
L 267.281829 483.995895 
L 271.123654 483.530382 
L 274.94655 482.927831 
L 278.747407 482.202959 
L 282.522143 481.356497 
L 286.267805 480.396286 
L 293.655912 478.131435 
L 297.29527 476.849749 
L 304.446279 473.979636 
L 311.421519 470.763669 
L 318.2128 467.245522 
L 324.8123 463.455014 
L 331.22871 459.454453 
L 337.466972 455.277822 
L 343.532853 450.951278 
L 349.441658 446.512121 
L 355.199044 441.970615 
L 360.811559 437.336141 
L 366.282603 432.611269 
L 371.603038 427.780955 
L 376.761254 422.831501 
L 381.74103 417.748063 
L 386.518373 412.512109 
L 391.065622 407.107662 
L 395.350619 401.520681 
L 399.341474 395.743868 
L 403.004139 389.773645 
L 406.303275 383.610797 
L 407.805809 380.459042 
L 409.204828 377.262142 
L 410.49588 374.021485 
L 411.674358 370.738627 
L 412.736984 367.416275 
L 413.678002 364.05573 
L 414.494016 360.660095 
L 415.181069 357.232301 
L 415.735858 353.775845 
L 416.147652 350.290421 
L 416.418753 346.783168 
L 416.541588 343.256055 
L 416.508526 339.711542 
L 416.318358 336.155462 
L 415.957042 332.588167 
L 415.43001 329.018912 
L 414.729879 325.451471 
L 413.836 321.885279 
L 412.754189 318.330412 
L 411.47049 314.789964 
L 409.970888 311.268002 
L 408.24815 307.771521 
L 406.2952 304.308023 
L 404.08456 300.880383 
L 401.616166 297.49978 
L 398.85574 294.170067 
L 395.789705 290.901577 
L 392.390809 287.703173 
L 388.62495 284.584567 
L 384.465175 281.5589 
L 379.856774 278.63782 
L 374.738181 275.836146 
L 369.097454 273.177416 
L 362.83876 270.680201 
L 355.894967 268.371394 
L 348.199778 266.282756 
L 339.758657 264.452119 
L 330.719816 262.917188 
L 321.515522 261.700691 
L 313.214407 260.773335 
L 307.941489 259.976116 
L 307.740516 259.007019 
L 312.52491 257.606415 
L 320.440962 255.705097 
L 329.359599 253.396829 
L 338.145778 250.785242 
L 346.302888 247.952964 
L 353.618772 244.967758 
L 360.232133 241.844489 
L 366.073619 238.632362 
L 371.351757 235.321684 
L 376.01216 231.953228 
L 380.179961 228.523909 
L 383.883758 225.049231 
L 387.179428 221.534422 
L 390.102214 217.987385 
L 392.673836 214.418183 
L 394.93602 210.828126 
L 396.896967 207.228317 
L 398.58482 203.621361 
L 400.014382 200.013466 
L 401.200441 196.409843 
L 402.164147 192.811726 
L 402.900914 189.231322 
L 403.431874 185.668353 
L 403.765287 182.127774 
L 403.909444 178.614018 
L 403.866513 175.134535 
L 403.651026 171.689405 
L 403.265234 168.285264 
L 402.717528 164.92481 
L 402.010369 161.614191 
L 401.152202 158.355405 
L 400.145652 155.15411 
L 398.999168 152.011613 
L 397.715499 148.933084 
L 396.292056 145.928047 
L 394.748392 142.988124 
L 393.071236 140.131535 
L 391.279963 137.349124 
L 389.373968 134.648368 
L 387.356062 132.033948 
L 385.231217 129.508471 
L 383.004429 127.074323 
L 380.680706 124.733679 
L 378.264588 122.489022 
L 375.760652 120.342653 
L 373.173954 118.296156 
L 370.509986 116.350349 
L 367.773738 114.506371 
L 364.971024 112.764024 
L 362.108787 111.121136 
L 356.221985 108.138587 
L 350.16082 105.542978 
L 343.982757 103.29094 
L 337.738196 101.333265 
L 331.473126 99.609203 
L 309.968718 94.048309 
L 304.01091 92.216589 
L 298.111442 90.164502 
L 292.229258 87.89629 
L 280.330218 82.926537 
L 271.132855 79.191434 
L 264.830512 76.893945 
L 258.389236 74.87046 
L 255.120291 73.986888 
L 255.120291 73.986888 
" clip-path="url(#p16d4dbe0f9)" style="fill: none; stroke-dasharray: 5.55,2.4; stroke-dashoffset: 0; stroke: #0000ff; stroke-width: 1.5"/>
   </g>
   <g id="patch_3">
    <path d="M 251.8225 41.157188 
C 222.701244 41.157188 193.863155 46.89344 166.958622 58.037662 
C 140.054089 69.181885 115.606338 85.51735 95.0145 106.109188 
C 74.422662 126.701026 58.087197 151.148777 46.942975 178.05331 
C 35.798753 204.957842 30.0625 233.795931 30.0625 262.917188 
C 30.0625 292.038444 35.798753 320.876533 46.942975 347.781065 
C 58.087197 374.685598 74.422662 399.133349 95.0145 419.725187 
C 115.606338 440.317025 140.054089 456.65249 166.958622 467.796713 
C 193.863155 478.940935 222.701244 484.677188 251.8225 484.677188 
C 280.943756 484.677188 309.781845 478.940935 336.686378 467.796713 
C 363.590911 456.65249 388.038662 440.317025 408.6305 419.725187 
C 429.222338 399.133349 445.557803 374.685598 456.702025 347.781065 
C 467.846247 320.876533 473.5825 292.038444 473.5825 262.917188 
C 473.5825 233.795931 467.846247 204.957842 456.702025 178.05331 
C 445.557803 151.148777 429.222338 126.701026 408.6305 106.109188 
C 388.038662 85.51735 363.590911 69.181885 336.686378 58.037662 
C 309.781845 46.89344 280.943756 41.157188 251.8225 41.157188 
" style="fill: none; stroke: #000000; stroke-width: 0.8; stroke-linejoin: miter; stroke-linecap: square"/>
   </g>
   <g id="text_16">
    <g id="patch_4">
     <path d="M 384.8785 509.853188 
L 485.369125 509.853188 
Q 488.369125 509.853188 488.369125 506.853188 
L 488.369125 473.945063 
Q 488.369125 470.945063 485.369125 470.945063 
L 384.8785 470.945063 
Q 381.8785 470.945063 381.8785 473.945063 
L 381.8785 506.853188 
Q 381.8785 509.853188 384.8785 509.853188 
z
" style="fill: #ffffff; stroke: #808080; stroke-linejoin: miter"/>
    </g>
    <!-- G_cst: 3.8 dBi -->
    <g transform="translate(384.8785 481.821625)scale(0.1 -0.1)">
     <defs>
      <path id="DejaVuSans-47" d="M 3809 666 
L 3809 1919 
L 2778 1919 
L 2778 2438 
L 4434 2438 
L 4434 434 
Q 4069 175 3628 42 
Q 3188 -91 2688 -91 
Q 1594 -91 976 548 
Q 359 1188 359 2328 
Q 359 3472 976 4111 
Q 1594 4750 2688 4750 
Q 3144 4750 3555 4637 
Q 3966 4525 4313 4306 
L 4313 3634 
Q 3963 3931 3569 4081 
Q 3175 4231 2741 4231 
Q 1884 4231 1454 3753 
Q 1025 3275 1025 2328 
Q 1025 1384 1454 906 
Q 1884 428 2741 428 
Q 3075 428 3337 486 
Q 3600 544 3809 666 
z
" transform="scale(0.015625)"/>
      <path id="DejaVuSans-5f" d="M 3263 -1063 
L 3263 -1509 
L -63 -1509 
L -63 -1063 
L 3263 -1063 
z
" transform="scale(0.015625)"/>
      <path id="DejaVuSans-63" d="M 3122 3366 
L 3122 2828 
Q 2878 2963 2633 3030 
Q 2388 3097 2138 3097 
Q 1578 3097 1268 2742 
Q 959 2388 959 1747 
Q 959 1106 1268 751 
Q 1578 397 2138 397 
Q 2388 397 2633 464 
Q 2878 531 3122 666 
L 3122 134 
Q 2881 22 2623 -34 
Q 2366 -91 2075 -91 
Q 1284 -91 818 406 
Q 353 903 353 1747 
Q 353 2603 823 3093 
Q 1294 3584 2113 3584 
Q 2378 3584 2631 3529 
Q 2884 3475 3122 3366 
z
" transform="scale(0.015625)"/>
      <path id="DejaVuSans-73" d="M 2834 3397 
L 2834 2853 
Q 2591 2978 2328 3040 
Q 2066 3103 1784 3103 
Q 1356 3103 1142 2972 
Q 928 2841 928 2578 
Q 928 2378 1081 2264 
Q 1234 2150 1697 2047 
L 1894 2003 
Q 2506 1872 2764 1633 
Q 3022 1394 3022 966 
Q 3022 478 2636 193 
Q 2250 -91 1575 -91 
Q 1294 -91 989 -36 
Q 684 19 347 128 
L 347 722 
Q 666 556 975 473 
Q 1284 391 1588 391 
Q 1994 391 2212 530 
Q 2431 669 2431 922 
Q 2431 1156 2273 1281 
Q 2116 1406 1581 1522 
L 1381 1569 
Q 847 1681 609 1914 
Q 372 2147 372 2553 
Q 372 3047 722 3315 
Q 1072 3584 1716 3584 
Q 2034 3584 2315 3537 
Q 2597 3491 2834 3397 
z
" transform="scale(0.015625)"/>
      <path id="DejaVuSans-74" d="M 1172 4494 
L 1172 3500 
L 2356 3500 
L 2356 3053 
L 1172 3053 
L 1172 1153 
Q 1172 725 1289 603 
Q 1406 481 1766 481 
L 2356 481 
L 2356 0 
L 1766 0 
Q 1100 0 847 248 
Q 594 497 594 1153 
L 594 3053 
L 172 3053 
L 172 3500 
L 594 3500 
L 594 4494 
L 1172 4494 
z
" transform="scale(0.015625)"/>
      <path id="DejaVuSans-3a" d="M 750 794 
L 1409 794 
L 1409 0 
L 750 0 
L 750 794 
z
M 750 3309 
L 1409 3309 
L 1409 2516 
L 750 2516 
L 750 3309 
z
" transform="scale(0.015625)"/>
      <path id="DejaVuSans-20" transform="scale(0.015625)"/>
      <path id="DejaVuSans-2e" d="M 684 794 
L 1344 794 
L 1344 0 
L 684 0 
L 684 794 
z
" transform="scale(0.015625)"/>
      <path id="DejaVuSans-64" d="M 2906 2969 
L 2906 4863 
L 3481 4863 
L 3481 0 
L 2906 0 
L 2906 525 
Q 2725 213 2448 61 
Q 2172 -91 1784 -91 
Q 1150 -91 751 415 
Q 353 922 353 1747 
Q 353 2572 751 3078 
Q 1150 3584 1784 3584 
Q 2172 3584 2448 3432 
Q 2725 3281 2906 2969 
z
M 947 1747 
Q 947 1113 1208 752 
Q 1469 391 1925 391 
Q 2381 391 2643 752 
Q 2906 1113 2906 1747 
Q 2906 2381 2643 2742 
Q 2381 3103 1925 3103 
Q 1469 3103 1208 2742 
Q 947 2381 947 1747 
z
" transform="scale(0.015625)"/>
      <path id="DejaVuSans-42" d="M 1259 2228 
L 1259 519 
L 2272 519 
Q 2781 519 3026 730 
Q 3272 941 3272 1375 
Q 3272 1813 3026 2020 
Q 2781 2228 2272 2228 
L 1259 2228 
z
M 1259 4147 
L 1259 2741 
L 2194 2741 
Q 2656 2741 2882 2914 
Q 3109 3088 3109 3444 
Q 3109 3797 2882 3972 
Q 2656 4147 2194 4147 
L 1259 4147 
z
M 628 4666 
L 2241 4666 
Q 2963 4666 3353 4366 
Q 3744 4066 3744 3513 
Q 3744 3084 3544 2831 
Q 3344 2578 2956 2516 
Q 3422 2416 3680 2098 
Q 3938 1781 3938 1306 
Q 3938 681 3513 340 
Q 3088 0 2303 0 
L 628 0 
L 628 4666 
z
" transform="scale(0.015625)"/>
      <path id="DejaVuSans-69" d="M 603 3500 
L 1178 3500 
L 1178 0 
L 603 0 
L 603 3500 
z
M 603 4863 
L 1178 4863 
L 1178 4134 
L 603 4134 
L 603 4863 
z
" transform="scale(0.015625)"/>
     </defs>
     <use xlink:href="#DejaVuSans-47"/>
     <use xlink:href="#DejaVuSans-5f" x="77.490234"/>
     <use xlink:href="#DejaVuSans-63" x="127.490234"/>
     <use xlink:href="#DejaVuSans-73" x="182.470703"/>
     <use xlink:href="#DejaVuSans-74" x="234.570312"/>
     <use xlink:href="#DejaVuSans-3a" x="273.779297"/>
     <use xlink:href="#DejaVuSans-20" x="307.470703"/>
     <use xlink:href="#DejaVuSans-33" x="339.257812"/>
     <use xlink:href="#DejaVuSans-2e" x="402.880859"/>
     <use xlink:href="#DejaVuSans-38" x="434.667969"/>
     <use xlink:href="#DejaVuSans-20" x="498.291016"/>
     <use xlink:href="#DejaVuSans-64" x="530.078125"/>
     <use xlink:href="#DejaVuSans-42" x="593.554688"/>
     <use xlink:href="#DejaVuSans-69" x="662.158203"/>
    </g>
    <!-- G_inpe: 5.4 dBi -->
    <g transform="translate(384.8785 493.297563)scale(0.1 -0.1)">
     <defs>
      <path id="DejaVuSans-6e" d="M 3513 2113 
L 3513 0 
L 2938 0 
L 2938 2094 
Q 2938 2591 2744 2837 
Q 2550 3084 2163 3084 
Q 1697 3084 1428 2787 
Q 1159 2491 1159 1978 
L 1159 0 
L 581 0 
L 581 3500 
L 1159 3500 
L 1159 2956 
Q 1366 3272 1645 3428 
Q 1925 3584 2291 3584 
Q 2894 3584 3203 3211 
Q 3513 2838 3513 2113 
z
" transform="scale(0.015625)"/>
      <path id="DejaVuSans-70" d="M 1159 525 
L 1159 -1331 
L 581 -1331 
L 581 3500 
L 1159 3500 
L 1159 2969 
Q 1341 3281 1617 3432 
Q 1894 3584 2278 3584 
Q 2916 3584 3314 3078 
Q 3713 2572 3713 1747 
Q 3713 922 3314 415 
Q 2916 -91 2278 -91 
Q 1894 -91 1617 61 
Q 1341 213 1159 525 
z
M 3116 1747 
Q 3116 2381 2855 2742 
Q 2594 3103 2138 3103 
Q 1681 3103 1420 2742 
Q 1159 2381 1159 1747 
Q 1159 1113 1420 752 
Q 1681 391 2138 391 
Q 2594 391 2855 752 
Q 3116 1113 3116 1747 
z
" transform="scale(0.015625)"/>
      <path id="DejaVuSans-65" d="M 3597 1894 
L 3597 1613 
L 953 1613 
Q 991 1019 1311 708 
Q 1631 397 2203 397 
Q 2534 397 2845 478 
Q 3156 559 3463 722 
L 3463 178 
Q 3153 47 2828 -22 
Q 2503 -91 2169 -91 
Q 1331 -91 842 396 
Q 353 884 353 1716 
Q 353 2575 817 3079 
Q 1281 3584 2069 3584 
Q 2775 3584 3186 3129 
Q 3597 2675 3597 1894 
z
M 3022 2063 
Q 3016 2534 2758 2815 
Q 2500 3097 2075 3097 
Q 1594 3097 1305 2825 
Q 1016 2553 972 2059 
L 3022 2063 
z
" transform="scale(0.015625)"/>
     </defs>
     <use xlink:href="#DejaVuSans-47"/>
     <use xlink:href="#DejaVuSans-5f" x="77.490234"/>
     <use xlink:href="#DejaVuSans-69" x="127.490234"/>
     <use xlink:href="#DejaVuSans-6e" x="155.273438"/>
     <use xlink:href="#DejaVuSans-70" x="218.652344"/>
     <use xlink:href="#DejaVuSans-65" x="282.128906"/>
     <use xlink:href="#DejaVuSans-3a" x="343.652344"/>
     <use xlink:href="#DejaVuSans-20" x="377.34375"/>
     <use xlink:href="#DejaVuSans-35" x="409.130859"/>
     <use xlink:href="#DejaVuSans-2e" x="472.753906"/>
     <use xlink:href="#DejaVuSans-34" x="504.541016"/>
     <use xlink:href="#DejaVuSans-20" x="568.164062"/>
     <use xlink:href="#DejaVuSans-64" x="599.951172"/>
     <use xlink:href="#DejaVuSans-42" x="663.427734"/>
     <use xlink:href="#DejaVuSans-69" x="732.03125"/>
    </g>
    <!-- Pearson Coef: 0.297 -->
    <g transform="translate(384.8785 504.7735)scale(0.1 -0.1)">
     <defs>
      <path id="DejaVuSans-50" d="M 1259 4147 
L 1259 2394 
L 2053 2394 
Q 2494 2394 2734 2622 
Q 2975 2850 2975 3272 
Q 2975 3691 2734 3919 
Q 2494 4147 2053 4147 
L 1259 4147 
z
M 628 4666 
L 2053 4666 
Q 2838 4666 3239 4311 
Q 3641 3956 3641 3272 
Q 3641 2581 3239 2228 
Q 2838 1875 2053 1875 
L 1259 1875 
L 1259 0 
L 628 0 
L 628 4666 
z
" transform="scale(0.015625)"/>
      <path id="DejaVuSans-61" d="M 2194 1759 
Q 1497 1759 1228 1600 
Q 959 1441 959 1056 
Q 959 750 1161 570 
Q 1363 391 1709 391 
Q 2188 391 2477 730 
Q 2766 1069 2766 1631 
L 2766 1759 
L 2194 1759 
z
M 3341 1997 
L 3341 0 
L 2766 0 
L 2766 531 
Q 2569 213 2275 61 
Q 1981 -91 1556 -91 
Q 1019 -91 701 211 
Q 384 513 384 1019 
Q 384 1609 779 1909 
Q 1175 2209 1959 2209 
L 2766 2209 
L 2766 2266 
Q 2766 2663 2505 2880 
Q 2244 3097 1772 3097 
Q 1472 3097 1187 3025 
Q 903 2953 641 2809 
L 641 3341 
Q 956 3463 1253 3523 
Q 1550 3584 1831 3584 
Q 2591 3584 2966 3190 
Q 3341 2797 3341 1997 
z
" transform="scale(0.015625)"/>
      <path id="DejaVuSans-72" d="M 2631 2963 
Q 2534 3019 2420 3045 
Q 2306 3072 2169 3072 
Q 1681 3072 1420 2755 
Q 1159 2438 1159 1844 
L 1159 0 
L 581 0 
L 581 3500 
L 1159 3500 
L 1159 2956 
Q 1341 3275 1631 3429 
Q 1922 3584 2338 3584 
Q 2397 3584 2469 3576 
Q 2541 3569 2628 3553 
L 2631 2963 
z
" transform="scale(0.015625)"/>
      <path id="DejaVuSans-6f" d="M 1959 3097 
Q 1497 3097 1228 2736 
Q 959 2375 959 1747 
Q 959 1119 1226 758 
Q 1494 397 1959 397 
Q 2419 397 2687 759 
Q 2956 1122 2956 1747 
Q 2956 2369 2687 2733 
Q 2419 3097 1959 3097 
z
M 1959 3584 
Q 2709 3584 3137 3096 
Q 3566 2609 3566 1747 
Q 3566 888 3137 398 
Q 2709 -91 1959 -91 
Q 1206 -91 779 398 
Q 353 888 353 1747 
Q 353 2609 779 3096 
Q 1206 3584 1959 3584 
z
" transform="scale(0.015625)"/>
      <path id="DejaVuSans-43" d="M 4122 4306 
L 4122 3641 
Q 3803 3938 3442 4084 
Q 3081 4231 2675 4231 
Q 1875 4231 1450 3742 
Q 1025 3253 1025 2328 
Q 1025 1406 1450 917 
Q 1875 428 2675 428 
Q 3081 428 3442 575 
Q 3803 722 4122 1019 
L 4122 359 
Q 3791 134 3420 21 
Q 3050 -91 2638 -91 
Q 1578 -91 968 557 
Q 359 1206 359 2328 
Q 359 3453 968 4101 
Q 1578 4750 2638 4750 
Q 3056 4750 3426 4639 
Q 3797 4528 4122 4306 
z
" transform="scale(0.015625)"/>
      <path id="DejaVuSans-66" d="M 2375 4863 
L 2375 4384 
L 1825 4384 
Q 1516 4384 1395 4259 
Q 1275 4134 1275 3809 
L 1275 3500 
L 2222 3500 
L 2222 3053 
L 1275 3053 
L 1275 0 
L 697 0 
L 697 3053 
L 147 3053 
L 147 3500 
L 697 3500 
L 697 3744 
Q 697 4328 969 4595 
Q 1241 4863 1831 4863 
L 2375 4863 
z
" transform="scale(0.015625)"/>
     </defs>
     <use xlink:href="#DejaVuSans-50"/>
     <use xlink:href="#DejaVuSans-65" x="56.677734"/>
     <use xlink:href="#DejaVuSans-61" x="118.201172"/>
     <use xlink:href="#DejaVuSans-72" x="179.480469"/>
     <use xlink:href="#DejaVuSans-73" x="220.59375"/>
     <use xlink:href="#DejaVuSans-6f" x="272.693359"/>
     <use xlink:href="#DejaVuSans-6e" x="333.875"/>
     <use xlink:href="#DejaVuSans-20" x="397.253906"/>
     <use xlink:href="#DejaVuSans-43" x="429.041016"/>
     <use xlink:href="#DejaVuSans-6f" x="498.865234"/>
     <use xlink:href="#DejaVuSans-65" x="560.046875"/>
     <use xlink:href="#DejaVuSans-66" x="621.570312"/>
     <use xlink:href="#DejaVuSans-3a" x="653.150391"/>
     <use xlink:href="#DejaVuSans-20" x="686.841797"/>
     <use xlink:href="#DejaVuSans-30" x="718.628906"/>
     <use xlink:href="#DejaVuSans-2e" x="782.251953"/>
     <use xlink:href="#DejaVuSans-32" x="814.039062"/>
     <use xlink:href="#DejaVuSans-39" x="877.662109"/>
     <use xlink:href="#DejaVuSans-37" x="941.285156"/>
    </g>
   </g>
   <g id="text_17">
    <g id="patch_5">
     <path d="M 52.2385 56.370938 
L 121.861 56.370938 
Q 125.461 56.370938 125.461 52.770938 
L 125.461 41.157188 
Q 125.461 37.557188 121.861 37.557188 
L 52.2385 37.557188 
Q 48.6385 37.557188 48.6385 41.157188 
L 48.6385 52.770938 
Q 48.6385 56.370938 52.2385 56.370938 
z
" style="fill: #ffffff; stroke: #808080; stroke-linejoin: miter"/>
    </g>
    <!-- Freq: 9 GHz -->
    <g transform="translate(52.2385 50.275313)scale(0.12 -0.12)">
     <defs>
      <path id="DejaVuSans-46" d="M 628 4666 
L 3309 4666 
L 3309 4134 
L 1259 4134 
L 1259 2759 
L 3109 2759 
L 3109 2228 
L 1259 2228 
L 1259 0 
L 628 0 
L 628 4666 
z
" transform="scale(0.015625)"/>
      <path id="DejaVuSans-71" d="M 947 1747 
Q 947 1113 1208 752 
Q 1469 391 1925 391 
Q 2381 391 2643 752 
Q 2906 1113 2906 1747 
Q 2906 2381 2643 2742 
Q 2381 3103 1925 3103 
Q 1469 3103 1208 2742 
Q 947 2381 947 1747 
z
M 2906 525 
Q 2725 213 2448 61 
Q 2172 -91 1784 -91 
Q 1150 -91 751 415 
Q 353 922 353 1747 
Q 353 2572 751 3078 
Q 1150 3584 1784 3584 
Q 2172 3584 2448 3432 
Q 2725 3281 2906 2969 
L 2906 3500 
L 3481 3500 
L 3481 -1331 
L 2906 -1331 
L 2906 525 
z
" transform="scale(0.015625)"/>
      <path id="DejaVuSans-48" d="M 628 4666 
L 1259 4666 
L 1259 2753 
L 3553 2753 
L 3553 4666 
L 4184 4666 
L 4184 0 
L 3553 0 
L 3553 2222 
L 1259 2222 
L 1259 0 
L 628 0 
L 628 4666 
z
" transform="scale(0.015625)"/>
      <path id="DejaVuSans-7a" d="M 353 3500 
L 3084 3500 
L 3084 2975 
L 922 459 
L 3084 459 
L 3084 0 
L 275 0 
L 275 525 
L 2438 3041 
L 353 3041 
L 353 3500 
z
" transform="scale(0.015625)"/>
     </defs>
     <use xlink:href="#DejaVuSans-46"/>
     <use xlink:href="#DejaVuSans-72" x="50.269531"/>
     <use xlink:href="#DejaVuSans-65" x="89.132812"/>
     <use xlink:href="#DejaVuSans-71" x="150.65625"/>
     <use xlink:href="#DejaVuSans-3a" x="214.132812"/>
     <use xlink:href="#DejaVuSans-20" x="247.824219"/>
     <use xlink:href="#DejaVuSans-39" x="279.611328"/>
     <use xlink:href="#DejaVuSans-20" x="343.234375"/>
     <use xlink:href="#DejaVuSans-47" x="375.021484"/>
     <use xlink:href="#DejaVuSans-48" x="452.511719"/>
     <use xlink:href="#DejaVuSans-7a" x="527.707031"/>
    </g>
   </g>
   <g id="text_18">
    <!-- Radiation Diagram - 2AVVF09 -->
    <g transform="translate(162.985937 16.318125)scale(0.12 -0.12)">
     <defs>
      <path id="DejaVuSans-52" d="M 2841 2188 
Q 3044 2119 3236 1894 
Q 3428 1669 3622 1275 
L 4263 0 
L 3584 0 
L 2988 1197 
Q 2756 1666 2539 1819 
Q 2322 1972 1947 1972 
L 1259 1972 
L 1259 0 
L 628 0 
L 628 4666 
L 2053 4666 
Q 2853 4666 3247 4331 
Q 3641 3997 3641 3322 
Q 3641 2881 3436 2590 
Q 3231 2300 2841 2188 
z
M 1259 4147 
L 1259 2491 
L 2053 2491 
Q 2509 2491 2742 2702 
Q 2975 2913 2975 3322 
Q 2975 3731 2742 3939 
Q 2509 4147 2053 4147 
L 1259 4147 
z
" transform="scale(0.015625)"/>
      <path id="DejaVuSans-44" d="M 1259 4147 
L 1259 519 
L 2022 519 
Q 2988 519 3436 956 
Q 3884 1394 3884 2338 
Q 3884 3275 3436 3711 
Q 2988 4147 2022 4147 
L 1259 4147 
z
M 628 4666 
L 1925 4666 
Q 3281 4666 3915 4102 
Q 4550 3538 4550 2338 
Q 4550 1131 3912 565 
Q 3275 0 1925 0 
L 628 0 
L 628 4666 
z
" transform="scale(0.015625)"/>
      <path id="DejaVuSans-67" d="M 2906 1791 
Q 2906 2416 2648 2759 
Q 2391 3103 1925 3103 
Q 1463 3103 1205 2759 
Q 947 2416 947 1791 
Q 947 1169 1205 825 
Q 1463 481 1925 481 
Q 2391 481 2648 825 
Q 2906 1169 2906 1791 
z
M 3481 434 
Q 3481 -459 3084 -895 
Q 2688 -1331 1869 -1331 
Q 1566 -1331 1297 -1286 
Q 1028 -1241 775 -1147 
L 775 -588 
Q 1028 -725 1275 -790 
Q 1522 -856 1778 -856 
Q 2344 -856 2625 -561 
Q 2906 -266 2906 331 
L 2906 616 
Q 2728 306 2450 153 
Q 2172 0 1784 0 
Q 1141 0 747 490 
Q 353 981 353 1791 
Q 353 2603 747 3093 
Q 1141 3584 1784 3584 
Q 2172 3584 2450 3431 
Q 2728 3278 2906 2969 
L 2906 3500 
L 3481 3500 
L 3481 434 
z
" transform="scale(0.015625)"/>
      <path id="DejaVuSans-6d" d="M 3328 2828 
Q 3544 3216 3844 3400 
Q 4144 3584 4550 3584 
Q 5097 3584 5394 3201 
Q 5691 2819 5691 2113 
L 5691 0 
L 5113 0 
L 5113 2094 
Q 5113 2597 4934 2840 
Q 4756 3084 4391 3084 
Q 3944 3084 3684 2787 
Q 3425 2491 3425 1978 
L 3425 0 
L 2847 0 
L 2847 2094 
Q 2847 2600 2669 2842 
Q 2491 3084 2119 3084 
Q 1678 3084 1418 2786 
Q 1159 2488 1159 1978 
L 1159 0 
L 581 0 
L 581 3500 
L 1159 3500 
L 1159 2956 
Q 1356 3278 1631 3431 
Q 1906 3584 2284 3584 
Q 2666 3584 2933 3390 
Q 3200 3197 3328 2828 
z
" transform="scale(0.015625)"/>
      <path id="DejaVuSans-2d" d="M 313 2009 
L 1997 2009 
L 1997 1497 
L 313 1497 
L 313 2009 
z
" transform="scale(0.015625)"/>
      <path id="DejaVuSans-41" d="M 2188 4044 
L 1331 1722 
L 3047 1722 
L 2188 4044 
z
M 1831 4666 
L 2547 4666 
L 4325 0 
L 3669 0 
L 3244 1197 
L 1141 1197 
L 716 0 
L 50 0 
L 1831 4666 
z
" transform="scale(0.015625)"/>
      <path id="DejaVuSans-56" d="M 1831 0 
L 50 4666 
L 709 4666 
L 2188 738 
L 3669 4666 
L 4325 4666 
L 2547 0 
L 1831 0 
z
" transform="scale(0.015625)"/>
     </defs>
     <use xlink:href="#DejaVuSans-52"/>
     <use xlink:href="#DejaVuSans-61" x="67.232422"/>
     <use xlink:href="#DejaVuSans-64" x="128.511719"/>
     <use xlink:href="#DejaVuSans-69" x="191.988281"/>
     <use xlink:href="#DejaVuSans-61" x="219.771484"/>
     <use xlink:href="#DejaVuSans-74" x="281.050781"/>
     <use xlink:href="#DejaVuSans-69" x="320.259766"/>
     <use xlink:href="#DejaVuSans-6f" x="348.042969"/>
     <use xlink:href="#DejaVuSans-6e" x="409.224609"/>
     <use xlink:href="#DejaVuSans-20" x="472.603516"/>
     <use xlink:href="#DejaVuSans-44" x="504.390625"/>
     <use xlink:href="#DejaVuSans-69" x="581.392578"/>
     <use xlink:href="#DejaVuSans-61" x="609.175781"/>
     <use xlink:href="#DejaVuSans-67" x="670.455078"/>
     <use xlink:href="#DejaVuSans-72" x="733.931641"/>
     <use xlink:href="#DejaVuSans-61" x="775.044922"/>
     <use xlink:href="#DejaVuSans-6d" x="836.324219"/>
     <use xlink:href="#DejaVuSans-20" x="933.736328"/>
     <use xlink:href="#DejaVuSans-2d" x="965.523438"/>
     <use xlink:href="#DejaVuSans-20" x="1001.607422"/>
     <use xlink:href="#DejaVuSans-32" x="1033.394531"/>
     <use xlink:href="#DejaVuSans-41" x="1097.017578"/>
     <use xlink:href="#DejaVuSans-56" x="1159.050781"/>
     <use xlink:href="#DejaVuSans-56" x="1227.458984"/>
     <use xlink:href="#DejaVuSans-46" x="1295.867188"/>
     <use xlink:href="#DejaVuSans-30" x="1353.386719"/>
     <use xlink:href="#DejaVuSans-39" x="1417.009766"/>
    </g>
   </g>
   <g id="legend_1">
    <g id="patch_6">
     <path d="M 411.802812 78.513438 
L 466.5825 78.513438 
Q 468.5825 78.513438 468.5825 76.513438 
L 468.5825 48.157188 
Q 468.5825 46.157188 466.5825 46.157188 
L 411.802812 46.157188 
Q 409.802812 46.157188 409.802812 48.157188 
L 409.802812 76.513438 
Q 409.802812 78.513438 411.802812 78.513438 
z
" style="fill: #ffffff; opacity: 0.8; stroke: #cccccc; stroke-linejoin: miter"/>
    </g>
    <g id="line2d_18">
     <path d="M 413.802812 54.255625 
L 423.802812 54.255625 
L 433.802812 54.255625 
" style="fill: none; stroke: #ff0000; stroke-width: 1.5; stroke-linecap: square"/>
    </g>
    <g id="text_19">
     <!-- INPE -->
     <g transform="translate(441.802812 57.755625)scale(0.1 -0.1)">
      <defs>
       <path id="DejaVuSans-49" d="M 628 4666 
L 1259 4666 
L 1259 0 
L 628 0 
L 628 4666 
z
" transform="scale(0.015625)"/>
       <path id="DejaVuSans-4e" d="M 628 4666 
L 1478 4666 
L 3547 763 
L 3547 4666 
L 4159 4666 
L 4159 0 
L 3309 0 
L 1241 3903 
L 1241 0 
L 628 0 
L 628 4666 
z
" transform="scale(0.015625)"/>
       <path id="DejaVuSans-45" d="M 628 4666 
L 3578 4666 
L 3578 4134 
L 1259 4134 
L 1259 2753 
L 3481 2753 
L 3481 2222 
L 1259 2222 
L 1259 531 
L 3634 531 
L 3634 0 
L 628 0 
L 628 4666 
z
" transform="scale(0.015625)"/>
      </defs>
      <use xlink:href="#DejaVuSans-49"/>
      <use xlink:href="#DejaVuSans-4e" x="29.492188"/>
      <use xlink:href="#DejaVuSans-50" x="104.296875"/>
      <use xlink:href="#DejaVuSans-45" x="164.599609"/>
     </g>
    </g>
    <g id="line2d_19">
     <path d="M 413.802812 68.93375 
L 423.802812 68.93375 
L 433.802812 68.93375 
" style="fill: none; stroke-dasharray: 5.55,2.4; stroke-dashoffset: 0; stroke: #0000ff; stroke-width: 1.5"/>
    </g>
    <g id="text_20">
     <!-- CST -->
     <g transform="translate(441.802812 72.43375)scale(0.1 -0.1)">
      <defs>
       <path id="DejaVuSans-53" d="M 3425 4513 
L 3425 3897 
Q 3066 4069 2747 4153 
Q 2428 4238 2131 4238 
Q 1616 4238 1336 4038 
Q 1056 3838 1056 3469 
Q 1056 3159 1242 3001 
Q 1428 2844 1947 2747 
L 2328 2669 
Q 3034 2534 3370 2195 
Q 3706 1856 3706 1288 
Q 3706 609 3251 259 
Q 2797 -91 1919 -91 
Q 1588 -91 1214 -16 
Q 841 59 441 206 
L 441 856 
Q 825 641 1194 531 
Q 1563 422 1919 422 
Q 2459 422 2753 634 
Q 3047 847 3047 1241 
Q 3047 1584 2836 1778 
Q 2625 1972 2144 2069 
L 1759 2144 
Q 1053 2284 737 2584 
Q 422 2884 422 3419 
Q 422 4038 858 4394 
Q 1294 4750 2059 4750 
Q 2388 4750 2728 4690 
Q 3069 4631 3425 4513 
z
" transform="scale(0.015625)"/>
       <path id="DejaVuSans-54" d="M -19 4666 
L 3928 4666 
L 3928 4134 
L 2272 4134 
L 2272 0 
L 1638 0 
L 1638 4134 
L -19 4134 
L -19 4666 
z
" transform="scale(0.015625)"/>
      </defs>
      <use xlink:href="#DejaVuSans-43"/>
      <use xlink:href="#DejaVuSans-53" x="69.824219"/>
      <use xlink:href="#DejaVuSans-54" x="133.300781"/>
     </g>
    </g>
   </g>
  </g>
 </g>
 <defs>
  <clipPath id="p16d4dbe0f9">
   <path d="M 473.5825 262.917188 
C 473.5825 233.795931 467.846247 204.957842 456.702025 178.05331 
C 445.557803 151.148777 429.222338 126.701026 408.6305 106.109188 
C 388.038662 85.51735 363.590911 69.181885 336.686378 58.037662 
C 309.781845 46.89344 280.943756 41.157188 251.8225 41.157188 
C 222.701244 41.157188 193.863155 46.89344 166.958622 58.037662 
C 140.054089 69.181885 115.606338 85.51735 95.0145 106.109188 
C 74.422662 126.701026 58.087197 151.148777 46.942975 178.05331 
C 35.798753 204.957842 30.0625 233.795931 30.0625 262.917188 
C 30.0625 292.038444 35.798753 320.876533 46.942975 347.781065 
C 58.087197 374.685598 74.422662 399.133349 95.0145 419.725187 
C 115.606338 440.317025 140.054089 456.65249 166.958622 467.796713 
C 193.863155 478.940935 222.701244 484.677188 251.8225 484.677188 
C 280.943756 484.677188 309.781845 478.940935 336.686378 467.796713 
C 363.590911 456.65249 388.038662 440.317025 408.6305 419.725187 
C 429.222338 399.133349 445.557803 374.685598 456.702025 347.781065 
C 467.846247 320.876533 473.5825 292.038444 473.5825 262.917188 
M 251.8225 262.917188 
C 251.8225 262.917188 251.8225 262.917188 251.8225 262.917188 
C 251.8225 262.917188 251.8225 262.917188 251.8225 262.917188 
C 251.8225 262.917188 251.8225 262.917188 251.8225 262.917188 
C 251.8225 262.917188 251.8225 262.917188 251.8225 262.917188 
C 251.8225 262.917188 251.8225 262.917188 251.8225 262.917188 
C 251.8225 262.917188 251.8225 262.917188 251.8225 262.917188 
C 251.8225 262.917188 251.8225 262.917188 251.8225 262.917188 
C 251.8225 262.917188 251.8225 262.917188 251.8225 262.917188 
C 251.8225 262.917188 251.8225 262.917188 251.8225 262.917188 
C 251.8225 262.917188 251.8225 262.917188 251.8225 262.917188 
C 251.8225 262.917188 251.8225 262.917188 251.8225 262.917188 
C 251.8225 262.917188 251.8225 262.917188 251.8225 262.917188 
C 251.8225 262.917188 251.8225 262.917188 251.8225 262.917188 
C 251.8225 262.917188 251.8225 262.917188 251.8225 262.917188 
C 251.8225 262.917188 251.8225 262.917188 251.8225 262.917188 
C 251.8225 262.917188 251.8225 262.917188 251.8225 262.917188 
M 473.5825 262.917188 
z
"/>
  </clipPath>
 </defs>
</svg>
