<?xml version="1.0" encoding="utf-8" standalone="no"?>
<!DOCTYPE svg PUBLIC "-//W3C//DTD SVG 1.1//EN"
  "http://www.w3.org/Graphics/SVG/1.1/DTD/svg11.dtd">
<svg xmlns:xlink="http://www.w3.org/1999/xlink" width="506.82625pt" height="514.053188pt" viewBox="0 0 506.82625 514.053188" xmlns="http://www.w3.org/2000/svg" version="1.1">
 <metadata>
  <rdf:RDF xmlns:dc="http://purl.org/dc/elements/1.1/" xmlns:cc="http://creativecommons.org/ns#" xmlns:rdf="http://www.w3.org/1999/02/22-rdf-syntax-ns#">
   <cc:Work>
    <dc:type rdf:resource="http://purl.org/dc/dcmitype/StillImage"/>
    <dc:date>2023-11-04T18:08:09.157749</dc:date>
    <dc:format>image/svg+xml</dc:format>
    <dc:creator>
     <cc:Agent>
      <dc:title>Matplotlib v3.5.1, https://matplotlib.org/</dc:title>
     </cc:Agent>
    </dc:creator>
   </cc:Work>
  </rdf:RDF>
 </metadata>
 <defs>
  <style type="text/css">*{stroke-linejoin: round; stroke-linecap: butt}</style>
 </defs>
 <g id="figure_1">
  <g id="patch_1">
   <path d="M 0 514.053188 
L 506.82625 514.053188 
L 506.82625 0 
L 0 0 
z
" style="fill: #ffffff"/>
  </g>
  <g id="axes_1">
   <g id="patch_2">
    <path d="M 473.5825 262.917188 
C 473.5825 233.795931 467.846247 204.957842 456.702025 178.05331 
C 445.557803 151.148777 429.222338 126.701026 408.6305 106.109188 
C 388.038662 85.51735 363.590911 69.181885 336.686378 58.037662 
C 309.781845 46.89344 280.943756 41.157188 251.8225 41.157188 
C 222.701244 41.157188 193.863155 46.89344 166.958622 58.037662 
C 140.054089 69.181885 115.606338 85.51735 95.0145 106.109188 
C 74.422662 126.701026 58.087197 151.148777 46.942975 178.05331 
C 35.798753 204.957842 30.0625 233.795931 30.0625 262.917188 
C 30.0625 292.038444 35.798753 320.876533 46.942975 347.781065 
C 58.087197 374.685598 74.422662 399.133349 95.0145 419.725187 
C 115.606338 440.317025 140.054089 456.65249 166.958622 467.796713 
C 193.863155 478.940935 222.701244 484.677188 251.8225 484.677188 
C 280.943756 484.677188 309.781845 478.940935 336.686378 467.796713 
C 363.590911 456.65249 388.038662 440.317025 408.6305 419.725187 
C 429.222338 399.133349 445.557803 374.685598 456.702025 347.781065 
C 467.846247 320.876533 473.5825 292.038444 473.5825 262.917188 
M 251.8225 262.917188 
C 251.8225 262.917188 251.8225 262.917188 251.8225 262.917188 
C 251.8225 262.917188 251.8225 262.917188 251.8225 262.917188 
C 251.8225 262.917188 251.8225 262.917188 251.8225 262.917188 
C 251.8225 262.917188 251.8225 262.917188 251.8225 262.917188 
C 251.8225 262.917188 251.8225 262.917188 251.8225 262.917188 
C 251.8225 262.917188 251.8225 262.917188 251.8225 262.917188 
C 251.8225 262.917188 251.8225 262.917188 251.8225 262.917188 
C 251.8225 262.917188 251.8225 262.917188 251.8225 262.917188 
C 251.8225 262.917188 251.8225 262.917188 251.8225 262.917188 
C 251.8225 262.917188 251.8225 262.917188 251.8225 262.917188 
C 251.8225 262.917188 251.8225 262.917188 251.8225 262.917188 
C 251.8225 262.917188 251.8225 262.917188 251.8225 262.917188 
C 251.8225 262.917188 251.8225 262.917188 251.8225 262.917188 
C 251.8225 262.917188 251.8225 262.917188 251.8225 262.917188 
C 251.8225 262.917188 251.8225 262.917188 251.8225 262.917188 
C 251.8225 262.917188 251.8225 262.917188 251.8225 262.917188 
M 473.5825 262.917188 
z
" style="fill: #ffffff"/>
   </g>
   <g id="matplotlib.axis_1">
    <g id="xtick_1">
     <g id="line2d_1">
      <path d="M 251.8225 262.917188 
L 251.8225 41.157188 
" clip-path="url(#p42719c0ef0)" style="fill: none; stroke: #b0b0b0; stroke-width: 0.8; stroke-linecap: square"/>
     </g>
     <g id="text_1">
      <!-- 0° -->
      <g transform="translate(246.14125 29.916563)scale(0.1 -0.1)">
       <defs>
        <path id="DejaVuSans-30" d="M 2034 4250 
Q 1547 4250 1301 3770 
Q 1056 3291 1056 2328 
Q 1056 1369 1301 889 
Q 1547 409 2034 409 
Q 2525 409 2770 889 
Q 3016 1369 3016 2328 
Q 3016 3291 2770 3770 
Q 2525 4250 2034 4250 
z
M 2034 4750 
Q 2819 4750 3233 4129 
Q 3647 3509 3647 2328 
Q 3647 1150 3233 529 
Q 2819 -91 2034 -91 
Q 1250 -91 836 529 
Q 422 1150 422 2328 
Q 422 3509 836 4129 
Q 1250 4750 2034 4750 
z
" transform="scale(0.015625)"/>
        <path id="DejaVuSans-b0" d="M 1600 4347 
Q 1350 4347 1178 4173 
Q 1006 4000 1006 3750 
Q 1006 3503 1178 3333 
Q 1350 3163 1600 3163 
Q 1850 3163 2022 3333 
Q 2194 3503 2194 3750 
Q 2194 3997 2020 4172 
Q 1847 4347 1600 4347 
z
M 1600 4750 
Q 1800 4750 1984 4673 
Q 2169 4597 2303 4453 
Q 2447 4313 2519 4134 
Q 2591 3956 2591 3750 
Q 2591 3338 2302 3052 
Q 2013 2766 1594 2766 
Q 1172 2766 890 3047 
Q 609 3328 609 3750 
Q 609 4169 896 4459 
Q 1184 4750 1600 4750 
z
" transform="scale(0.015625)"/>
       </defs>
       <use xlink:href="#DejaVuSans-30"/>
       <use xlink:href="#DejaVuSans-b0" x="63.623047"/>
      </g>
     </g>
    </g>
    <g id="xtick_2">
     <g id="line2d_2">
      <path d="M 251.8225 262.917188 
L 95.0145 106.109188 
" clip-path="url(#p42719c0ef0)" style="fill: none; stroke: #b0b0b0; stroke-width: 0.8; stroke-linecap: square"/>
     </g>
     <g id="text_2">
      <!-- 45° -->
      <g transform="translate(76.252505 98.969068)scale(0.1 -0.1)">
       <defs>
        <path id="DejaVuSans-34" d="M 2419 4116 
L 825 1625 
L 2419 1625 
L 2419 4116 
z
M 2253 4666 
L 3047 4666 
L 3047 1625 
L 3713 1625 
L 3713 1100 
L 3047 1100 
L 3047 0 
L 2419 0 
L 2419 1100 
L 313 1100 
L 313 1709 
L 2253 4666 
z
" transform="scale(0.015625)"/>
        <path id="DejaVuSans-35" d="M 691 4666 
L 3169 4666 
L 3169 4134 
L 1269 4134 
L 1269 2991 
Q 1406 3038 1543 3061 
Q 1681 3084 1819 3084 
Q 2600 3084 3056 2656 
Q 3513 2228 3513 1497 
Q 3513 744 3044 326 
Q 2575 -91 1722 -91 
Q 1428 -91 1123 -41 
Q 819 9 494 109 
L 494 744 
Q 775 591 1075 516 
Q 1375 441 1709 441 
Q 2250 441 2565 725 
Q 2881 1009 2881 1497 
Q 2881 1984 2565 2268 
Q 2250 2553 1709 2553 
Q 1456 2553 1204 2497 
Q 953 2441 691 2322 
L 691 4666 
z
" transform="scale(0.015625)"/>
       </defs>
       <use xlink:href="#DejaVuSans-34"/>
       <use xlink:href="#DejaVuSans-35" x="63.623047"/>
       <use xlink:href="#DejaVuSans-b0" x="127.246094"/>
      </g>
     </g>
    </g>
    <g id="xtick_3">
     <g id="line2d_3">
      <path d="M 251.8225 262.917188 
L 30.0625 262.917188 
" clip-path="url(#p42719c0ef0)" style="fill: none; stroke: #b0b0b0; stroke-width: 0.8; stroke-linecap: square"/>
     </g>
     <g id="text_3">
      <!-- 90° -->
      <g transform="translate(7.2 265.676563)scale(0.1 -0.1)">
       <defs>
        <path id="DejaVuSans-39" d="M 703 97 
L 703 672 
Q 941 559 1184 500 
Q 1428 441 1663 441 
Q 2288 441 2617 861 
Q 2947 1281 2994 2138 
Q 2813 1869 2534 1725 
Q 2256 1581 1919 1581 
Q 1219 1581 811 2004 
Q 403 2428 403 3163 
Q 403 3881 828 4315 
Q 1253 4750 1959 4750 
Q 2769 4750 3195 4129 
Q 3622 3509 3622 2328 
Q 3622 1225 3098 567 
Q 2575 -91 1691 -91 
Q 1453 -91 1209 -44 
Q 966 3 703 97 
z
M 1959 2075 
Q 2384 2075 2632 2365 
Q 2881 2656 2881 3163 
Q 2881 3666 2632 3958 
Q 2384 4250 1959 4250 
Q 1534 4250 1286 3958 
Q 1038 3666 1038 3163 
Q 1038 2656 1286 2365 
Q 1534 2075 1959 2075 
z
" transform="scale(0.015625)"/>
       </defs>
       <use xlink:href="#DejaVuSans-39"/>
       <use xlink:href="#DejaVuSans-30" x="63.623047"/>
       <use xlink:href="#DejaVuSans-b0" x="127.246094"/>
      </g>
     </g>
    </g>
    <g id="xtick_4">
     <g id="line2d_4">
      <path d="M 251.8225 262.917188 
L 95.0145 419.725187 
" clip-path="url(#p42719c0ef0)" style="fill: none; stroke: #b0b0b0; stroke-width: 0.8; stroke-linecap: square"/>
     </g>
     <g id="text_4">
      <!-- 135° -->
      <g transform="translate(73.071255 432.384057)scale(0.1 -0.1)">
       <defs>
        <path id="DejaVuSans-31" d="M 794 531 
L 1825 531 
L 1825 4091 
L 703 3866 
L 703 4441 
L 1819 4666 
L 2450 4666 
L 2450 531 
L 3481 531 
L 3481 0 
L 794 0 
L 794 531 
z
" transform="scale(0.015625)"/>
        <path id="DejaVuSans-33" d="M 2597 2516 
Q 3050 2419 3304 2112 
Q 3559 1806 3559 1356 
Q 3559 666 3084 287 
Q 2609 -91 1734 -91 
Q 1441 -91 1130 -33 
Q 819 25 488 141 
L 488 750 
Q 750 597 1062 519 
Q 1375 441 1716 441 
Q 2309 441 2620 675 
Q 2931 909 2931 1356 
Q 2931 1769 2642 2001 
Q 2353 2234 1838 2234 
L 1294 2234 
L 1294 2753 
L 1863 2753 
Q 2328 2753 2575 2939 
Q 2822 3125 2822 3475 
Q 2822 3834 2567 4026 
Q 2313 4219 1838 4219 
Q 1578 4219 1281 4162 
Q 984 4106 628 3988 
L 628 4550 
Q 988 4650 1302 4700 
Q 1616 4750 1894 4750 
Q 2613 4750 3031 4423 
Q 3450 4097 3450 3541 
Q 3450 3153 3228 2886 
Q 3006 2619 2597 2516 
z
" transform="scale(0.015625)"/>
       </defs>
       <use xlink:href="#DejaVuSans-31"/>
       <use xlink:href="#DejaVuSans-33" x="63.623047"/>
       <use xlink:href="#DejaVuSans-35" x="127.246094"/>
       <use xlink:href="#DejaVuSans-b0" x="190.869141"/>
      </g>
     </g>
    </g>
    <g id="xtick_5">
     <g id="line2d_5">
      <path d="M 251.8225 262.917188 
L 251.8225 484.677188 
" clip-path="url(#p42719c0ef0)" style="fill: none; stroke: #b0b0b0; stroke-width: 0.8; stroke-linecap: square"/>
     </g>
     <g id="text_5">
      <!-- 180° -->
      <g transform="translate(239.77875 501.436563)scale(0.1 -0.1)">
       <defs>
        <path id="DejaVuSans-38" d="M 2034 2216 
Q 1584 2216 1326 1975 
Q 1069 1734 1069 1313 
Q 1069 891 1326 650 
Q 1584 409 2034 409 
Q 2484 409 2743 651 
Q 3003 894 3003 1313 
Q 3003 1734 2745 1975 
Q 2488 2216 2034 2216 
z
M 1403 2484 
Q 997 2584 770 2862 
Q 544 3141 544 3541 
Q 544 4100 942 4425 
Q 1341 4750 2034 4750 
Q 2731 4750 3128 4425 
Q 3525 4100 3525 3541 
Q 3525 3141 3298 2862 
Q 3072 2584 2669 2484 
Q 3125 2378 3379 2068 
Q 3634 1759 3634 1313 
Q 3634 634 3220 271 
Q 2806 -91 2034 -91 
Q 1263 -91 848 271 
Q 434 634 434 1313 
Q 434 1759 690 2068 
Q 947 2378 1403 2484 
z
M 1172 3481 
Q 1172 3119 1398 2916 
Q 1625 2713 2034 2713 
Q 2441 2713 2670 2916 
Q 2900 3119 2900 3481 
Q 2900 3844 2670 4047 
Q 2441 4250 2034 4250 
Q 1625 4250 1398 4047 
Q 1172 3844 1172 3481 
z
" transform="scale(0.015625)"/>
       </defs>
       <use xlink:href="#DejaVuSans-31"/>
       <use xlink:href="#DejaVuSans-38" x="63.623047"/>
       <use xlink:href="#DejaVuSans-30" x="127.246094"/>
       <use xlink:href="#DejaVuSans-b0" x="190.869141"/>
      </g>
     </g>
    </g>
    <g id="xtick_6">
     <g id="line2d_6">
      <path d="M 251.8225 262.917188 
L 408.6305 419.725187 
" clip-path="url(#p42719c0ef0)" style="fill: none; stroke: #b0b0b0; stroke-width: 0.8; stroke-linecap: square"/>
     </g>
     <g id="text_6">
      <!-- 225° -->
      <g transform="translate(406.486245 432.384057)scale(0.1 -0.1)">
       <defs>
        <path id="DejaVuSans-32" d="M 1228 531 
L 3431 531 
L 3431 0 
L 469 0 
L 469 531 
Q 828 903 1448 1529 
Q 2069 2156 2228 2338 
Q 2531 2678 2651 2914 
Q 2772 3150 2772 3378 
Q 2772 3750 2511 3984 
Q 2250 4219 1831 4219 
Q 1534 4219 1204 4116 
Q 875 4013 500 3803 
L 500 4441 
Q 881 4594 1212 4672 
Q 1544 4750 1819 4750 
Q 2544 4750 2975 4387 
Q 3406 4025 3406 3419 
Q 3406 3131 3298 2873 
Q 3191 2616 2906 2266 
Q 2828 2175 2409 1742 
Q 1991 1309 1228 531 
z
" transform="scale(0.015625)"/>
       </defs>
       <use xlink:href="#DejaVuSans-32"/>
       <use xlink:href="#DejaVuSans-32" x="63.623047"/>
       <use xlink:href="#DejaVuSans-35" x="127.246094"/>
       <use xlink:href="#DejaVuSans-b0" x="190.869141"/>
      </g>
     </g>
    </g>
    <g id="xtick_7">
     <g id="line2d_7">
      <path d="M 251.8225 262.917188 
L 473.5825 262.917188 
" clip-path="url(#p42719c0ef0)" style="fill: none; stroke: #b0b0b0; stroke-width: 0.8; stroke-linecap: square"/>
     </g>
     <g id="text_7">
      <!-- 270° -->
      <g transform="translate(475.53875 265.676563)scale(0.1 -0.1)">
       <defs>
        <path id="DejaVuSans-37" d="M 525 4666 
L 3525 4666 
L 3525 4397 
L 1831 0 
L 1172 0 
L 2766 4134 
L 525 4134 
L 525 4666 
z
" transform="scale(0.015625)"/>
       </defs>
       <use xlink:href="#DejaVuSans-32"/>
       <use xlink:href="#DejaVuSans-37" x="63.623047"/>
       <use xlink:href="#DejaVuSans-30" x="127.246094"/>
       <use xlink:href="#DejaVuSans-b0" x="190.869141"/>
      </g>
     </g>
    </g>
    <g id="xtick_8">
     <g id="line2d_8">
      <path d="M 251.8225 262.917188 
L 408.6305 106.109188 
" clip-path="url(#p42719c0ef0)" style="fill: none; stroke: #b0b0b0; stroke-width: 0.8; stroke-linecap: square"/>
     </g>
     <g id="text_8">
      <!-- 315° -->
      <g transform="translate(406.486245 98.969068)scale(0.1 -0.1)">
       <use xlink:href="#DejaVuSans-33"/>
       <use xlink:href="#DejaVuSans-31" x="63.623047"/>
       <use xlink:href="#DejaVuSans-35" x="127.246094"/>
       <use xlink:href="#DejaVuSans-b0" x="190.869141"/>
      </g>
     </g>
    </g>
   </g>
   <g id="matplotlib.axis_2">
    <g id="ytick_1">
     <g id="line2d_9">
      <path d="M 251.8225 255.682327 
C 250.872427 255.682327 249.931592 255.869471 249.053839 256.233048 
C 248.176086 256.596625 247.378484 257.129566 246.706681 257.801369 
C 246.034878 258.473172 245.501938 259.270773 245.138361 260.148526 
C 244.774783 261.026279 244.58764 261.967114 244.58764 262.917188 
C 244.58764 263.867261 244.774783 264.808096 245.138361 265.685849 
C 245.501938 266.563602 246.034878 267.361203 246.706681 268.033006 
C 247.378484 268.704809 248.176086 269.23775 249.053839 269.601327 
C 249.931592 269.964904 250.872427 270.152048 251.8225 270.152048 
C 252.772573 270.152048 253.713408 269.964904 254.591161 269.601327 
C 255.468914 269.23775 256.266516 268.704809 256.938319 268.033006 
C 257.610122 267.361203 258.143062 266.563602 258.506639 265.685849 
C 258.870217 264.808096 259.05736 263.867261 259.05736 262.917188 
C 259.05736 261.967114 258.870217 261.026279 258.506639 260.148526 
C 258.143062 259.270773 257.610122 258.473172 256.938319 257.801369 
C 256.266516 257.129566 255.468914 256.596625 254.591161 256.233048 
C 253.713408 255.869471 252.772573 255.682327 251.8225 255.682327 
" clip-path="url(#p42719c0ef0)" style="fill: none; stroke: #b0b0b0; stroke-width: 0.8; stroke-linecap: square"/>
     </g>
     <g id="text_9">
      <!-- −30 -->
      <g transform="translate(249.053839 254.153361)scale(0.1 -0.1)">
       <defs>
        <path id="DejaVuSans-2212" d="M 678 2272 
L 4684 2272 
L 4684 1741 
L 678 1741 
L 678 2272 
z
" transform="scale(0.015625)"/>
       </defs>
       <use xlink:href="#DejaVuSans-2212"/>
       <use xlink:href="#DejaVuSans-33" x="83.789062"/>
       <use xlink:href="#DejaVuSans-30" x="147.412109"/>
      </g>
     </g>
    </g>
    <g id="ytick_2">
     <g id="line2d_10">
      <path d="M 251.8225 219.928137 
C 246.17723 219.928137 240.586852 221.040132 235.371303 223.200484 
C 230.155753 225.360835 225.41646 228.52753 221.424651 232.519339 
C 217.432842 236.511147 214.266148 241.25044 212.105796 246.46599 
C 209.945445 251.68154 208.83345 257.271917 208.83345 262.917188 
C 208.83345 268.562458 209.945445 274.152835 212.105796 279.368385 
C 214.266148 284.583935 217.432842 289.323228 221.424651 293.315036 
C 225.41646 297.306845 230.155753 300.47354 235.371303 302.633891 
C 240.586852 304.794243 246.17723 305.906238 251.8225 305.906238 
C 257.46777 305.906238 263.058148 304.794243 268.273697 302.633891 
C 273.489247 300.47354 278.22854 297.306845 282.220349 293.315036 
C 286.212158 289.323228 289.378852 284.583935 291.539204 279.368385 
C 293.699555 274.152835 294.81155 268.562458 294.81155 262.917188 
C 294.81155 257.271917 293.699555 251.68154 291.539204 246.46599 
C 289.378852 241.25044 286.212158 236.511147 282.220349 232.519339 
C 278.22854 228.52753 273.489247 225.360835 268.273697 223.200484 
C 263.058148 221.040132 257.46777 219.928137 251.8225 219.928137 
" clip-path="url(#p42719c0ef0)" style="fill: none; stroke: #b0b0b0; stroke-width: 0.8; stroke-linecap: square"/>
     </g>
     <g id="text_10">
      <!-- −25 -->
      <g transform="translate(235.371303 221.120796)scale(0.1 -0.1)">
       <use xlink:href="#DejaVuSans-2212"/>
       <use xlink:href="#DejaVuSans-32" x="83.789062"/>
       <use xlink:href="#DejaVuSans-35" x="147.412109"/>
      </g>
     </g>
    </g>
    <g id="ytick_3">
     <g id="line2d_11">
      <path d="M 251.8225 184.173947 
C 241.482032 184.173947 231.242113 186.210794 221.688767 190.16792 
C 212.13542 194.125045 203.454436 199.925494 196.142621 207.237308 
C 188.830806 214.549123 183.030358 223.230108 179.073232 232.783454 
C 175.116106 242.3368 173.07926 252.57672 173.07926 262.917188 
C 173.07926 273.257655 175.116106 283.497575 179.073232 293.050921 
C 183.030358 302.604267 188.830806 311.285252 196.142621 318.597067 
C 203.454436 325.908881 212.13542 331.70933 221.688767 335.666455 
C 231.242113 339.623581 241.482032 341.660428 251.8225 341.660428 
C 262.162968 341.660428 272.402887 339.623581 281.956233 335.666455 
C 291.50958 331.70933 300.190564 325.908881 307.502379 318.597067 
C 314.814194 311.285252 320.614642 302.604267 324.571768 293.050921 
C 328.528894 283.497575 330.56574 273.257655 330.56574 262.917188 
C 330.56574 252.57672 328.528894 242.3368 324.571768 232.783454 
C 320.614642 223.230108 314.814194 214.549123 307.502379 207.237308 
C 300.190564 199.925494 291.50958 194.125045 281.956233 190.16792 
C 272.402887 186.210794 262.162968 184.173947 251.8225 184.173947 
" clip-path="url(#p42719c0ef0)" style="fill: none; stroke: #b0b0b0; stroke-width: 0.8; stroke-linecap: square"/>
     </g>
     <g id="text_11">
      <!-- −20 -->
      <g transform="translate(221.688767 188.088232)scale(0.1 -0.1)">
       <use xlink:href="#DejaVuSans-2212"/>
       <use xlink:href="#DejaVuSans-32" x="83.789062"/>
       <use xlink:href="#DejaVuSans-30" x="147.412109"/>
      </g>
     </g>
    </g>
    <g id="ytick_4">
     <g id="line2d_12">
      <path d="M 251.8225 148.419757 
C 236.786835 148.419757 221.897373 151.381455 208.00623 157.135355 
C 194.115087 162.889255 181.492411 171.323458 170.860591 181.955278 
C 160.22877 192.587099 151.794568 205.209775 146.040668 219.100918 
C 140.286768 232.992061 137.32507 247.881523 137.32507 262.917188 
C 137.32507 277.952852 140.286768 292.842314 146.040668 306.733457 
C 151.794568 320.6246 160.22877 333.247276 170.860591 343.879097 
C 181.492411 354.510917 194.115087 362.94512 208.00623 368.69902 
C 221.897373 374.45292 236.786835 377.414618 251.8225 377.414618 
C 266.858165 377.414618 281.747627 374.45292 295.63877 368.69902 
C 309.529913 362.94512 322.152589 354.510917 332.784409 343.879097 
C 343.41623 333.247276 351.850432 320.6246 357.604332 306.733457 
C 363.358232 292.842314 366.31993 277.952852 366.31993 262.917188 
C 366.31993 247.881523 363.358232 232.992061 357.604332 219.100918 
C 351.850432 205.209775 343.41623 192.587099 332.784409 181.955278 
C 322.152589 171.323458 309.529913 162.889255 295.63877 157.135355 
C 281.747627 151.381455 266.858165 148.419757 251.8225 148.419757 
" clip-path="url(#p42719c0ef0)" style="fill: none; stroke: #b0b0b0; stroke-width: 0.8; stroke-linecap: square"/>
     </g>
     <g id="text_12">
      <!-- −15 -->
      <g transform="translate(208.00623 155.055668)scale(0.1 -0.1)">
       <use xlink:href="#DejaVuSans-2212"/>
       <use xlink:href="#DejaVuSans-31" x="83.789062"/>
       <use xlink:href="#DejaVuSans-35" x="147.412109"/>
      </g>
     </g>
    </g>
    <g id="ytick_5">
     <g id="line2d_13">
      <path d="M 251.8225 112.665567 
C 232.091638 112.665567 212.552634 116.552117 194.323694 124.102791 
C 176.094755 131.653465 159.530387 142.721422 145.578561 156.673248 
C 131.626734 170.625074 120.558777 187.189442 113.008103 205.418382 
C 105.457429 223.647321 101.57088 243.186326 101.57088 262.917188 
C 101.57088 282.648049 105.457429 302.187054 113.008103 320.415993 
C 120.558777 338.644933 131.626734 355.209301 145.578561 369.161127 
C 159.530387 383.112953 176.094755 394.18091 194.323694 401.731584 
C 212.552634 409.282258 232.091638 413.168808 251.8225 413.168808 
C 271.553362 413.168808 291.092366 409.282258 309.321306 401.731584 
C 327.550245 394.18091 344.114613 383.112953 358.066439 369.161127 
C 372.018266 355.209301 383.086223 338.644933 390.636897 320.415993 
C 398.187571 302.187054 402.07412 282.648049 402.07412 262.917188 
C 402.07412 243.186326 398.187571 223.647321 390.636897 205.418382 
C 383.086223 187.189442 372.018266 170.625074 358.066439 156.673248 
C 344.114613 142.721422 327.550245 131.653465 309.321306 124.102791 
C 291.092366 116.552117 271.553362 112.665567 251.8225 112.665567 
" clip-path="url(#p42719c0ef0)" style="fill: none; stroke: #b0b0b0; stroke-width: 0.8; stroke-linecap: square"/>
     </g>
     <g id="text_13">
      <!-- −10 -->
      <g transform="translate(194.323694 122.023103)scale(0.1 -0.1)">
       <use xlink:href="#DejaVuSans-2212"/>
       <use xlink:href="#DejaVuSans-31" x="83.789062"/>
       <use xlink:href="#DejaVuSans-30" x="147.412109"/>
      </g>
     </g>
    </g>
    <g id="ytick_6">
     <g id="line2d_14">
      <path d="M 251.8225 76.911377 
C 227.396441 76.911377 203.207894 81.722778 180.641158 91.070227 
C 158.074422 100.417675 137.568362 114.119386 120.29653 131.391218 
C 103.024698 148.66305 89.322987 169.16911 79.975539 191.735846 
C 70.628091 214.302582 65.81669 238.491128 65.81669 262.917188 
C 65.81669 287.343247 70.628091 311.531793 79.975539 334.098529 
C 89.322987 356.665265 103.024698 377.171325 120.29653 394.443157 
C 137.568362 411.714989 158.074422 425.4167 180.641158 434.764148 
C 203.207894 444.111597 227.396441 448.922998 251.8225 448.922998 
C 276.248559 448.922998 300.437106 444.111597 323.003842 434.764148 
C 345.570578 425.4167 366.076638 411.714989 383.34847 394.443157 
C 400.620302 377.171325 414.322013 356.665265 423.669461 334.098529 
C 433.016909 311.531793 437.82831 287.343247 437.82831 262.917188 
C 437.82831 238.491128 433.016909 214.302582 423.669461 191.735846 
C 414.322013 169.16911 400.620302 148.66305 383.34847 131.391218 
C 366.076638 114.119386 345.570578 100.417675 323.003842 91.070227 
C 300.437106 81.722778 276.248559 76.911377 251.8225 76.911377 
" clip-path="url(#p42719c0ef0)" style="fill: none; stroke: #b0b0b0; stroke-width: 0.8; stroke-linecap: square"/>
     </g>
     <g id="text_14">
      <!-- −5 -->
      <g transform="translate(180.641158 88.990539)scale(0.1 -0.1)">
       <use xlink:href="#DejaVuSans-2212"/>
       <use xlink:href="#DejaVuSans-35" x="83.789062"/>
      </g>
     </g>
    </g>
    <g id="ytick_7">
     <g id="line2d_15">
      <path d="M 251.8225 41.157188 
C 222.701244 41.157188 193.863155 46.89344 166.958622 58.037662 
C 140.054089 69.181885 115.606338 85.51735 95.0145 106.109188 
C 74.422662 126.701026 58.087197 151.148777 46.942975 178.05331 
C 35.798753 204.957842 30.0625 233.795931 30.0625 262.917188 
C 30.0625 292.038444 35.798753 320.876533 46.942975 347.781065 
C 58.087197 374.685598 74.422662 399.133349 95.0145 419.725187 
C 115.606338 440.317025 140.054089 456.65249 166.958622 467.796713 
C 193.863155 478.940935 222.701244 484.677188 251.8225 484.677188 
C 280.943756 484.677188 309.781845 478.940935 336.686378 467.796713 
C 363.590911 456.65249 388.038662 440.317025 408.6305 419.725187 
C 429.222338 399.133349 445.557803 374.685598 456.702025 347.781065 
C 467.846247 320.876533 473.5825 292.038444 473.5825 262.917188 
C 473.5825 233.795931 467.846247 204.957842 456.702025 178.05331 
C 445.557803 151.148777 429.222338 126.701026 408.6305 106.109188 
C 388.038662 85.51735 363.590911 69.181885 336.686378 58.037662 
C 309.781845 46.89344 280.943756 41.157188 251.8225 41.157188 
" clip-path="url(#p42719c0ef0)" style="fill: none; stroke: #b0b0b0; stroke-width: 0.8; stroke-linecap: square"/>
     </g>
     <g id="text_15">
      <!-- 0 -->
      <g transform="translate(166.958622 55.957975)scale(0.1 -0.1)">
       <use xlink:href="#DejaVuSans-30"/>
      </g>
     </g>
    </g>
   </g>
   <g id="line2d_16">
    <path d="M 251.8225 484.648584 
L 255.687629 484.350273 
L 259.532614 483.705959 
L 263.33758 482.638001 
L 267.1211 481.697362 
L 270.827944 480.150409 
L 278.070896 476.693219 
L 281.518152 474.212732 
L 288.094364 468.625151 
L 294.053058 461.596342 
L 296.946224 458.369508 
L 299.412835 453.791595 
L 301.950226 449.996406 
L 304.330462 446.034211 
L 306.155159 440.631307 
L 308.068427 436.02435 
L 309.465306 430.324051 
L 310.216153 423.352431 
L 311.262089 417.76261 
L 311.579409 410.820727 
L 311.161942 402.712151 
L 311.225137 396.337695 
L 310.61923 389.007182 
L 310.234108 382.678733 
L 310.533059 378.143147 
L 310.950529 374.120836 
L 312.705488 372.753005 
L 315.592779 373.370551 
L 319.948859 376.298489 
L 324.285614 378.882411 
L 329.172683 382.026025 
L 335.882127 387.540709 
L 347.195287 394.186568 
L 354.248593 398.841204 
L 371.430695 405.460683 
L 376.184903 405.979767 
L 381.280058 406.694372 
L 386.383596 407.216296 
L 390.49587 406.517666 
L 395.261362 406.35605 
L 399.224307 405.261458 
L 403.045853 403.935246 
L 406.812453 402.470768 
L 410.238992 400.626543 
L 416.83794 396.544056 
L 419.742221 394.110452 
L 422.366072 391.430987 
L 424.90694 388.670394 
L 427.145566 385.67972 
L 429.130942 382.513242 
L 432.117336 375.577905 
L 433.308282 371.964847 
L 433.877102 368.026461 
L 434.758153 364.320076 
L 434.997328 360.312971 
L 434.732301 356.114386 
L 434.807729 352.165047 
L 434.23117 347.975747 
L 433.362253 343.743893 
L 432.856081 339.761384 
L 431.491048 335.507993 
L 429.906669 331.277295 
L 428.673701 327.285761 
L 426.612649 323.102262 
L 424.385595 318.986336 
L 422.486249 315.094332 
L 419.370306 310.960748 
L 413.243282 303.163909 
L 408.193763 299.018338 
L 403.092425 295.070603 
L 397.734197 291.279548 
L 382.440145 283.60499 
L 374.744088 280.19269 
L 363.897928 276.67832 
L 352.14498 273.461505 
L 338.956923 270.540462 
L 322.320296 267.846874 
L 300.279799 265.456727 
L 282.750687 263.997224 
L 287.354965 263.537409 
L 312.252444 262.917188 
L 331.61906 261.524333 
L 347.269126 259.584118 
L 357.493795 257.37919 
L 368.701785 254.744192 
L 376.028278 252.05059 
L 383.066499 249.122887 
L 391.471858 245.770402 
L 408.819562 235.23437 
L 412.453998 231.693587 
L 417.179499 227.769472 
L 421.926828 223.645509 
L 424.740257 219.803949 
L 428.167963 215.665563 
L 430.746489 211.611559 
L 432.586537 207.652075 
L 434.661681 203.509136 
L 435.990503 199.503059 
L 436.965675 195.530583 
L 438.324957 191.325602 
L 438.870395 187.344932 
L 439.260738 183.354376 
L 440.032054 179.120895 
L 439.886799 167.093641 
L 438.205875 155.308696 
L 434.879453 144.038612 
L 433.340045 140.482057 
L 429.980516 133.477812 
L 427.928501 130.211797 
L 425.681445 127.083693 
L 423.323244 124.038623 
L 420.76928 121.154007 
L 418.123726 118.353737 
L 415.315026 115.707856 
L 412.276436 113.291472 
L 405.925323 108.814365 
L 402.611333 106.77078 
L 398.86348 105.235041 
L 395.309222 103.559038 
L 391.417787 102.331179 
L 387.178201 101.606544 
L 383.244286 100.624798 
L 378.776161 100.423911 
L 374.031698 100.740104 
L 369.606521 100.801391 
L 364.646972 101.787143 
L 354.546169 104.736609 
L 348.583034 108.067964 
L 343.133054 110.950907 
L 337.856913 113.901212 
L 331.398447 119.358379 
L 325.694978 123.983263 
L 320.233339 128.653356 
L 314.428365 134.556142 
L 310.477193 137.131793 
L 307.67094 137.479537 
L 306.322638 134.522908 
L 305.645975 129.699411 
L 305.503857 123.072472 
L 305.627963 115.087894 
L 304.741621 109.228901 
L 304.090912 102.051557 
L 303.24281 94.728932 
L 301.598603 89.327288 
L 299.971749 83.221743 
L 297.861075 78.26655 
L 295.442193 73.979538 
L 292.973683 69.316094 
L 290.229899 65.328249 
L 287.247504 62.012005 
L 284.225793 58.330846 
L 280.961833 55.58006 
L 277.578517 53.151264 
L 274.149126 50.493533 
L 270.548111 48.882475 
L 263.177403 46.252738 
L 255.620861 45.309218 
L 251.8225 45.197411 
L 248.025512 45.387865 
L 244.242906 45.866026 
L 240.481819 46.524098 
L 236.744876 47.297118 
L 233.058248 48.44081 
L 225.794585 50.936832 
L 218.883379 54.947765 
L 215.5109 56.983873 
L 209.251478 62.636275 
L 206.24998 65.520917 
L 203.579976 69.426993 
L 200.935957 73.006025 
L 198.466992 76.844418 
L 196.659832 82.488231 
L 194.652906 86.967269 
L 193.02962 92.170267 
L 192.130164 98.913842 
L 190.98884 104.440085 
L 190.412802 110.92285 
L 190.781479 119.113554 
L 190.817275 125.897209 
L 191.702101 133.988576 
L 195.293531 151.972838 
L 198.04907 161.784074 
L 204.402612 180.783532 
L 205.757034 186.251378 
L 203.584808 185.720743 
L 199.522548 182.382323 
L 190.827363 172.488177 
L 184.221743 166.3733 
L 170.220955 154.62828 
L 165.261735 152.12446 
L 155.044972 147.582221 
L 151.184364 147.146256 
L 147.293982 146.826507 
L 143.494033 146.749129 
L 137.301224 148.395911 
L 134.404383 149.52783 
L 131.805315 150.999352 
L 129.434601 152.718629 
L 127.438266 154.791622 
L 125.816663 157.185736 
L 124.70747 159.981466 
L 123.860119 162.942019 
L 123.288406 166.0598 
L 123.600492 176.430351 
L 124.623443 180.313154 
L 125.299409 183.856786 
L 126.274211 187.480165 
L 128.091757 191.48121 
L 129.415612 195.065941 
L 131.975239 199.193268 
L 138.160302 207.480429 
L 142.602184 211.986918 
L 147.903285 216.649372 
L 151.666635 220.403545 
L 156.482722 224.397417 
L 160.411312 227.82772 
L 162.73586 230.492302 
L 163.346471 232.452448 
L 162.984683 234.052031 
L 161.605457 235.33507 
L 159.391871 236.413131 
L 158.694731 237.963677 
L 157.635081 239.433626 
L 156.431344 240.894404 
L 154.921406 242.320224 
L 154.232745 243.947661 
L 153.768658 245.62765 
L 153.503037 247.344914 
L 153.614462 249.114948 
L 155.077188 252.748845 
L 157.984158 256.355371 
L 159.348811 259.687935 
L 159.678324 261.308805 
L 159.700042 262.917188 
L 159.20644 264.533807 
L 157.912368 266.196602 
L 155.605939 267.959684 
L 151.093275 269.960861 
L 147.334922 272.058666 
L 142.133958 274.445918 
L 134.423919 277.331921 
L 123.38726 283.259331 
L 117.395692 286.620261 
L 113.70942 289.763651 
L 109.547598 293.158651 
L 104.773836 296.866047 
L 102.259491 300.207434 
L 96.352007 307.497634 
L 94.16535 311.117815 
L 91.473734 315.01766 
L 89.763785 318.718478 
L 88.356721 322.413865 
L 86.415831 326.410859 
L 85.268372 330.209423 
L 84.374953 333.994454 
L 83.20426 337.990865 
L 82.636321 345.434801 
L 81.9869 349.452748 
L 82.252597 360.818417 
L 82.752599 368.563787 
L 83.518653 372.214984 
L 84.515122 375.767439 
L 85.637326 379.281299 
L 86.929831 382.718724 
L 90.022321 389.329342 
L 91.897497 392.421902 
L 94.017687 395.331148 
L 96.001871 398.369993 
L 98.240786 401.202784 
L 102.45573 407.159001 
L 105.000902 409.738785 
L 107.769447 412.08849 
L 113.814425 416.190683 
L 118.774227 421.477945 
L 121.867769 423.397915 
L 125.216636 424.965304 
L 128.924745 426.008017 
L 132.479108 427.179275 
L 136.221277 428.012843 
L 140.291819 428.268222 
L 144.199393 428.64224 
L 148.612464 428.087772 
L 153.171819 427.099491 
L 157.010433 427.136505 
L 161.00027 426.764828 
L 164.628989 426.904331 
L 168.134043 427.165032 
L 171.674736 427.244456 
L 174.974917 427.71736 
L 178.185626 428.308315 
L 180.764792 430.318657 
L 183.654313 431.639372 
L 186.15828 433.978329 
L 188.40287 437.161188 
L 190.913391 439.810085 
L 193.269615 443.124439 
L 195.608209 446.78585 
L 198.222583 449.842311 
L 200.662043 453.850612 
L 203.332594 457.399577 
L 206.229068 460.404036 
L 209.110237 463.862585 
L 212.180279 466.858735 
L 215.39542 469.505426 
L 218.598127 472.687624 
L 222.018371 474.984588 
L 229.076546 479.330486 
L 236.481999 482.296569 
L 240.253903 483.659169 
L 244.09292 484.263385 
L 247.952254 484.643412 
L 247.952254 484.643412 
" clip-path="url(#p42719c0ef0)" style="fill: none; stroke: #ff0000; stroke-width: 1.5; stroke-linecap: square"/>
   </g>
   <g id="line2d_17">
    <path d="M 251.8225 69.660428 
L 248.489515 71.970632 
L 245.241648 74.466247 
L 242.08696 77.15201 
L 239.033449 80.025244 
L 236.090294 83.097255 
L 233.266841 86.371883 
L 230.573715 89.859724 
L 228.021443 93.563866 
L 225.624289 97.508193 
L 223.393402 101.687763 
L 221.345251 106.125332 
L 219.498109 110.842886 
L 217.868815 115.847621 
L 216.481901 121.173786 
L 215.360883 126.840579 
L 214.538837 132.893601 
L 214.050297 139.369879 
L 213.932804 146.304694 
L 214.231491 153.744972 
L 215.022203 161.809201 
L 216.364013 170.544672 
L 218.293243 179.929364 
L 220.845511 189.939974 
L 223.939362 200.290635 
L 229.67021 217.498262 
L 230.082087 220.249225 
L 227.762895 217.667652 
L 223.37138 211.590008 
L 218.046411 204.415285 
L 212.500523 197.474427 
L 207.082393 191.31805 
L 201.867112 185.992636 
L 196.893387 181.481429 
L 192.199261 177.766378 
L 187.695983 174.654609 
L 183.411127 172.132229 
L 179.327708 170.128085 
L 175.42427 168.573231 
L 171.720965 167.455896 
L 168.143674 166.655709 
L 164.706031 166.164547 
L 161.426246 165.979074 
L 158.287798 166.059168 
L 155.28686 166.381548 
L 152.418259 166.923628 
L 149.680743 167.668458 
L 147.066813 168.594743 
L 144.583918 169.696111 
L 142.22833 170.95676 
L 139.989894 172.356929 
L 137.879843 173.895427 
L 135.898102 175.561888 
L 134.032518 177.337756 
L 132.293298 179.221939 
L 130.67297 181.200798 
L 129.175316 183.269175 
L 127.803946 185.421794 
L 126.550037 187.645898 
L 125.410272 189.933053 
L 124.399692 192.285572 
L 123.502099 194.68802 
L 122.719537 197.135942 
L 122.053913 199.624818 
L 121.060767 204.698313 
L 120.507574 209.862514 
L 120.348688 215.064633 
L 120.560974 220.267732 
L 121.084036 225.428536 
L 121.839733 230.508844 
L 123.234823 237.922275 
L 124.595514 245.036601 
L 125.257977 249.61472 
L 125.655503 254.094732 
L 125.567391 258.508262 
L 125.061383 262.917188 
L 124.138095 267.376025 
L 121.960563 274.278635 
L 118.302045 284.06475 
L 115.499981 291.893433 
L 113.811972 297.327077 
L 112.354276 302.909057 
L 111.196202 308.609442 
L 110.383537 314.39676 
L 109.959019 320.233754 
L 109.935723 326.089251 
L 110.337254 331.924153 
L 111.171217 337.702801 
L 112.43634 343.391824 
L 113.230711 346.191536 
L 114.135117 348.953813 
L 116.26124 354.354412 
L 117.485226 356.98116 
L 118.81179 359.555125 
L 120.238778 362.072634 
L 121.769557 364.525682 
L 123.401518 366.910448 
L 125.126452 369.227794 
L 126.952553 371.464976 
L 128.865992 373.627725 
L 130.874412 375.703104 
L 132.96924 377.692447 
L 135.152251 379.587436 
L 137.419795 381.384656 
L 139.763235 383.086037 
L 142.183768 384.683335 
L 144.682123 386.168092 
L 147.244762 387.548082 
L 149.872315 388.815181 
L 152.564938 389.961074 
L 155.309391 390.994409 
L 158.101554 391.913004 
L 160.937231 392.714803 
L 163.81216 393.397883 
L 169.643449 394.43116 
L 175.523953 395.070148 
L 181.374279 395.411021 
L 192.62055 395.886944 
L 195.271525 396.142935 
L 197.835621 396.539402 
L 200.314255 397.100754 
L 202.700612 397.878467 
L 205.002962 398.890999 
L 207.228482 400.163463 
L 209.38803 401.714084 
L 211.501467 403.533341 
L 213.587842 405.610874 
L 215.668827 407.92165 
L 219.898043 413.109948 
L 226.664622 421.757778 
L 231.59159 427.684728 
L 236.901748 433.462158 
L 239.701865 436.25035 
L 242.597431 438.941989 
L 245.585044 441.534569 
L 248.661614 444.00424 
L 251.8225 446.362998 
L 255.063258 448.580079 
L 258.379144 450.67492 
L 261.764624 452.624218 
L 265.214621 454.433435 
L 268.72396 456.101757 
L 272.287038 457.624262 
L 275.898588 459.00119 
L 279.55332 460.232227 
L 283.245951 461.317047 
L 286.971219 462.255481 
L 290.724101 463.048574 
L 294.499378 463.696114 
L 298.292291 464.199964 
L 302.097708 464.560034 
L 305.91088 464.77777 
L 309.727164 464.854748 
L 313.541612 464.791305 
L 317.351504 464.594726 
L 321.149965 464.258765 
L 324.93456 463.790922 
L 328.698231 463.185314 
L 332.438843 462.449639 
L 336.154763 461.59155 
L 339.836129 460.599034 
L 343.484293 459.486537 
L 347.092158 458.248934 
L 350.655471 456.887815 
L 354.173385 455.411207 
L 357.642085 453.820773 
L 361.054232 452.112097 
L 364.413161 450.299514 
L 367.707968 448.372704 
L 370.938647 446.339969 
L 374.101681 444.203528 
L 377.19362 441.965702 
L 380.211086 439.628917 
L 383.150776 437.195696 
L 386.009461 434.668666 
L 388.788493 432.056103 
L 391.475901 429.349629 
L 394.077795 426.563185 
L 396.586776 423.694204 
L 399.000032 420.745768 
L 401.314844 417.721041 
L 403.528586 414.623274 
L 405.638729 411.455793 
L 407.64284 408.222005 
L 409.533276 404.920608 
L 411.318353 401.564818 
L 412.985241 398.148784 
L 414.531683 394.676486 
L 415.955543 391.151975 
L 417.259373 387.582813 
L 418.434515 383.967902 
L 419.478523 380.311198 
L 420.389052 376.616762 
L 421.162663 372.887975 
L 421.79464 369.127569 
L 422.281988 365.339581 
L 422.620437 361.527422 
L 422.80563 357.694684 
L 422.830606 353.84381 
L 422.696645 349.981913 
L 422.390512 346.108766 
L 421.911055 342.230783 
L 421.250784 338.35152 
L 420.402216 334.475032 
L 419.357889 330.605878 
L 418.103709 326.746563 
L 416.632196 322.903011 
L 414.93597 319.081659 
L 412.987368 315.282828 
L 410.785781 311.51714 
L 408.303445 307.787377 
L 405.519322 304.100127 
L 402.405458 300.461736 
L 398.926905 296.878915 
L 395.048664 293.360848 
L 390.71474 289.915104 
L 385.876072 286.554449 
L 380.43431 283.287297 
L 374.305051 280.130987 
L 367.347331 277.101853 
L 359.327761 274.216446 
L 350.034163 271.509595 
L 339.04103 269.016101 
L 325.851856 266.796902 
L 309.542848 264.932826 
L 289.406942 263.573226 
L 262.380892 262.73289 
L 280.599596 261.912269 
L 302.000789 260.287455 
L 319.709464 258.170069 
L 334.006003 255.727063 
L 345.744481 253.04559 
L 355.636395 250.170444 
L 364.037243 247.146434 
L 371.30211 243.993476 
L 377.714161 240.719091 
L 383.337291 237.353302 
L 388.340867 233.899313 
L 392.79545 230.371018 
L 396.778394 226.775624 
L 400.338938 223.122328 
L 403.519262 219.418841 
L 406.361349 215.66992 
L 408.893256 211.881805 
L 411.129386 208.063428 
L 413.104412 204.215372 
L 414.832527 200.343501 
L 416.321284 196.455365 
L 417.591539 192.552405 
L 418.650803 188.640441 
L 419.506655 184.724782 
L 420.17958 180.803953 
L 420.664155 176.888068 
L 420.96803 172.980914 
L 421.11135 169.078846 
L 421.08462 165.193657 
L 420.90102 161.324563 
L 420.563718 157.475972 
L 420.07747 153.651132 
L 419.445857 149.853806 
L 418.673685 146.08673 
L 417.763438 142.354039 
L 416.719692 138.658241 
L 415.545883 135.002462 
L 414.242706 131.391898 
L 412.820905 127.823485 
L 411.275179 124.307088 
L 409.607674 120.846779 
L 407.831113 117.436803 
L 405.937074 114.090474 
L 403.933099 110.806589 
L 401.826485 107.583514 
L 399.614516 104.429653 
L 397.304503 101.343055 
L 394.889402 98.337543 
L 392.386002 95.400129 
L 389.78303 92.550121 
L 387.096878 89.77388 
L 384.321323 87.08531 
L 381.459424 84.487269 
L 378.518421 81.97666 
L 375.497226 79.561865 
L 372.403027 77.239459 
L 369.235083 75.017777 
L 366.000514 72.893062 
L 362.698925 70.873587 
L 359.333881 68.961521 
L 355.912371 67.152612 
L 352.431259 65.461381 
L 348.900893 63.876986 
L 345.318692 62.413956 
L 341.694665 61.061 
L 338.02678 59.83263 
L 334.319327 58.730376 
L 330.581765 57.742287 
L 326.810436 56.889528 
L 323.014761 56.159848 
L 319.19442 55.56774 
L 315.358432 55.100517 
L 311.507011 54.772561 
L 307.645054 54.584578 
L 303.779214 54.530189 
L 299.910852 54.623649 
L 296.04678 54.858308 
L 292.19197 55.234269 
L 288.350161 55.75853 
L 284.525588 56.438015 
L 280.724775 57.266812 
L 276.952629 58.248715 
L 273.21427 59.388093 
L 269.515408 60.686325 
L 265.861776 62.146185 
L 262.25934 63.770419 
L 258.714304 65.56173 
L 255.233097 67.524203 
L 255.233097 67.524203 
" clip-path="url(#p42719c0ef0)" style="fill: none; stroke-dasharray: 5.55,2.4; stroke-dashoffset: 0; stroke: #0000ff; stroke-width: 1.5"/>
   </g>
   <g id="patch_3">
    <path d="M 251.8225 41.157188 
C 222.701244 41.157188 193.863155 46.89344 166.958622 58.037662 
C 140.054089 69.181885 115.606338 85.51735 95.0145 106.109188 
C 74.422662 126.701026 58.087197 151.148777 46.942975 178.05331 
C 35.798753 204.957842 30.0625 233.795931 30.0625 262.917188 
C 30.0625 292.038444 35.798753 320.876533 46.942975 347.781065 
C 58.087197 374.685598 74.422662 399.133349 95.0145 419.725187 
C 115.606338 440.317025 140.054089 456.65249 166.958622 467.796713 
C 193.863155 478.940935 222.701244 484.677188 251.8225 484.677188 
C 280.943756 484.677188 309.781845 478.940935 336.686378 467.796713 
C 363.590911 456.65249 388.038662 440.317025 408.6305 419.725187 
C 429.222338 399.133349 445.557803 374.685598 456.702025 347.781065 
C 467.846247 320.876533 473.5825 292.038444 473.5825 262.917188 
C 473.5825 233.795931 467.846247 204.957842 456.702025 178.05331 
C 445.557803 151.148777 429.222338 126.701026 408.6305 106.109188 
C 388.038662 85.51735 363.590911 69.181885 336.686378 58.037662 
C 309.781845 46.89344 280.943756 41.157188 251.8225 41.157188 
" style="fill: none; stroke: #000000; stroke-width: 0.8; stroke-linejoin: miter; stroke-linecap: square"/>
   </g>
   <g id="text_16">
    <g id="patch_4">
     <path d="M 384.8785 509.853188 
L 485.369125 509.853188 
Q 488.369125 509.853188 488.369125 506.853188 
L 488.369125 473.945063 
Q 488.369125 470.945063 485.369125 470.945063 
L 384.8785 470.945063 
Q 381.8785 470.945063 381.8785 473.945063 
L 381.8785 506.853188 
Q 381.8785 509.853188 384.8785 509.853188 
z
" style="fill: #ffffff; stroke: #808080; stroke-linejoin: miter"/>
    </g>
    <!-- G_cst: 2.9 dBi -->
    <g transform="translate(384.8785 481.821625)scale(0.1 -0.1)">
     <defs>
      <path id="DejaVuSans-47" d="M 3809 666 
L 3809 1919 
L 2778 1919 
L 2778 2438 
L 4434 2438 
L 4434 434 
Q 4069 175 3628 42 
Q 3188 -91 2688 -91 
Q 1594 -91 976 548 
Q 359 1188 359 2328 
Q 359 3472 976 4111 
Q 1594 4750 2688 4750 
Q 3144 4750 3555 4637 
Q 3966 4525 4313 4306 
L 4313 3634 
Q 3963 3931 3569 4081 
Q 3175 4231 2741 4231 
Q 1884 4231 1454 3753 
Q 1025 3275 1025 2328 
Q 1025 1384 1454 906 
Q 1884 428 2741 428 
Q 3075 428 3337 486 
Q 3600 544 3809 666 
z
" transform="scale(0.015625)"/>
      <path id="DejaVuSans-5f" d="M 3263 -1063 
L 3263 -1509 
L -63 -1509 
L -63 -1063 
L 3263 -1063 
z
" transform="scale(0.015625)"/>
      <path id="DejaVuSans-63" d="M 3122 3366 
L 3122 2828 
Q 2878 2963 2633 3030 
Q 2388 3097 2138 3097 
Q 1578 3097 1268 2742 
Q 959 2388 959 1747 
Q 959 1106 1268 751 
Q 1578 397 2138 397 
Q 2388 397 2633 464 
Q 2878 531 3122 666 
L 3122 134 
Q 2881 22 2623 -34 
Q 2366 -91 2075 -91 
Q 1284 -91 818 406 
Q 353 903 353 1747 
Q 353 2603 823 3093 
Q 1294 3584 2113 3584 
Q 2378 3584 2631 3529 
Q 2884 3475 3122 3366 
z
" transform="scale(0.015625)"/>
      <path id="DejaVuSans-73" d="M 2834 3397 
L 2834 2853 
Q 2591 2978 2328 3040 
Q 2066 3103 1784 3103 
Q 1356 3103 1142 2972 
Q 928 2841 928 2578 
Q 928 2378 1081 2264 
Q 1234 2150 1697 2047 
L 1894 2003 
Q 2506 1872 2764 1633 
Q 3022 1394 3022 966 
Q 3022 478 2636 193 
Q 2250 -91 1575 -91 
Q 1294 -91 989 -36 
Q 684 19 347 128 
L 347 722 
Q 666 556 975 473 
Q 1284 391 1588 391 
Q 1994 391 2212 530 
Q 2431 669 2431 922 
Q 2431 1156 2273 1281 
Q 2116 1406 1581 1522 
L 1381 1569 
Q 847 1681 609 1914 
Q 372 2147 372 2553 
Q 372 3047 722 3315 
Q 1072 3584 1716 3584 
Q 2034 3584 2315 3537 
Q 2597 3491 2834 3397 
z
" transform="scale(0.015625)"/>
      <path id="DejaVuSans-74" d="M 1172 4494 
L 1172 3500 
L 2356 3500 
L 2356 3053 
L 1172 3053 
L 1172 1153 
Q 1172 725 1289 603 
Q 1406 481 1766 481 
L 2356 481 
L 2356 0 
L 1766 0 
Q 1100 0 847 248 
Q 594 497 594 1153 
L 594 3053 
L 172 3053 
L 172 3500 
L 594 3500 
L 594 4494 
L 1172 4494 
z
" transform="scale(0.015625)"/>
      <path id="DejaVuSans-3a" d="M 750 794 
L 1409 794 
L 1409 0 
L 750 0 
L 750 794 
z
M 750 3309 
L 1409 3309 
L 1409 2516 
L 750 2516 
L 750 3309 
z
" transform="scale(0.015625)"/>
      <path id="DejaVuSans-20" transform="scale(0.015625)"/>
      <path id="DejaVuSans-2e" d="M 684 794 
L 1344 794 
L 1344 0 
L 684 0 
L 684 794 
z
" transform="scale(0.015625)"/>
      <path id="DejaVuSans-64" d="M 2906 2969 
L 2906 4863 
L 3481 4863 
L 3481 0 
L 2906 0 
L 2906 525 
Q 2725 213 2448 61 
Q 2172 -91 1784 -91 
Q 1150 -91 751 415 
Q 353 922 353 1747 
Q 353 2572 751 3078 
Q 1150 3584 1784 3584 
Q 2172 3584 2448 3432 
Q 2725 3281 2906 2969 
z
M 947 1747 
Q 947 1113 1208 752 
Q 1469 391 1925 391 
Q 2381 391 2643 752 
Q 2906 1113 2906 1747 
Q 2906 2381 2643 2742 
Q 2381 3103 1925 3103 
Q 1469 3103 1208 2742 
Q 947 2381 947 1747 
z
" transform="scale(0.015625)"/>
      <path id="DejaVuSans-42" d="M 1259 2228 
L 1259 519 
L 2272 519 
Q 2781 519 3026 730 
Q 3272 941 3272 1375 
Q 3272 1813 3026 2020 
Q 2781 2228 2272 2228 
L 1259 2228 
z
M 1259 4147 
L 1259 2741 
L 2194 2741 
Q 2656 2741 2882 2914 
Q 3109 3088 3109 3444 
Q 3109 3797 2882 3972 
Q 2656 4147 2194 4147 
L 1259 4147 
z
M 628 4666 
L 2241 4666 
Q 2963 4666 3353 4366 
Q 3744 4066 3744 3513 
Q 3744 3084 3544 2831 
Q 3344 2578 2956 2516 
Q 3422 2416 3680 2098 
Q 3938 1781 3938 1306 
Q 3938 681 3513 340 
Q 3088 0 2303 0 
L 628 0 
L 628 4666 
z
" transform="scale(0.015625)"/>
      <path id="DejaVuSans-69" d="M 603 3500 
L 1178 3500 
L 1178 0 
L 603 0 
L 603 3500 
z
M 603 4863 
L 1178 4863 
L 1178 4134 
L 603 4134 
L 603 4863 
z
" transform="scale(0.015625)"/>
     </defs>
     <use xlink:href="#DejaVuSans-47"/>
     <use xlink:href="#DejaVuSans-5f" x="77.490234"/>
     <use xlink:href="#DejaVuSans-63" x="127.490234"/>
     <use xlink:href="#DejaVuSans-73" x="182.470703"/>
     <use xlink:href="#DejaVuSans-74" x="234.570312"/>
     <use xlink:href="#DejaVuSans-3a" x="273.779297"/>
     <use xlink:href="#DejaVuSans-20" x="307.470703"/>
     <use xlink:href="#DejaVuSans-32" x="339.257812"/>
     <use xlink:href="#DejaVuSans-2e" x="402.880859"/>
     <use xlink:href="#DejaVuSans-39" x="434.667969"/>
     <use xlink:href="#DejaVuSans-20" x="498.291016"/>
     <use xlink:href="#DejaVuSans-64" x="530.078125"/>
     <use xlink:href="#DejaVuSans-42" x="593.554688"/>
     <use xlink:href="#DejaVuSans-69" x="662.158203"/>
    </g>
    <!-- G_inpe: 1.1 dBi -->
    <g transform="translate(384.8785 493.297563)scale(0.1 -0.1)">
     <defs>
      <path id="DejaVuSans-6e" d="M 3513 2113 
L 3513 0 
L 2938 0 
L 2938 2094 
Q 2938 2591 2744 2837 
Q 2550 3084 2163 3084 
Q 1697 3084 1428 2787 
Q 1159 2491 1159 1978 
L 1159 0 
L 581 0 
L 581 3500 
L 1159 3500 
L 1159 2956 
Q 1366 3272 1645 3428 
Q 1925 3584 2291 3584 
Q 2894 3584 3203 3211 
Q 3513 2838 3513 2113 
z
" transform="scale(0.015625)"/>
      <path id="DejaVuSans-70" d="M 1159 525 
L 1159 -1331 
L 581 -1331 
L 581 3500 
L 1159 3500 
L 1159 2969 
Q 1341 3281 1617 3432 
Q 1894 3584 2278 3584 
Q 2916 3584 3314 3078 
Q 3713 2572 3713 1747 
Q 3713 922 3314 415 
Q 2916 -91 2278 -91 
Q 1894 -91 1617 61 
Q 1341 213 1159 525 
z
M 3116 1747 
Q 3116 2381 2855 2742 
Q 2594 3103 2138 3103 
Q 1681 3103 1420 2742 
Q 1159 2381 1159 1747 
Q 1159 1113 1420 752 
Q 1681 391 2138 391 
Q 2594 391 2855 752 
Q 3116 1113 3116 1747 
z
" transform="scale(0.015625)"/>
      <path id="DejaVuSans-65" d="M 3597 1894 
L 3597 1613 
L 953 1613 
Q 991 1019 1311 708 
Q 1631 397 2203 397 
Q 2534 397 2845 478 
Q 3156 559 3463 722 
L 3463 178 
Q 3153 47 2828 -22 
Q 2503 -91 2169 -91 
Q 1331 -91 842 396 
Q 353 884 353 1716 
Q 353 2575 817 3079 
Q 1281 3584 2069 3584 
Q 2775 3584 3186 3129 
Q 3597 2675 3597 1894 
z
M 3022 2063 
Q 3016 2534 2758 2815 
Q 2500 3097 2075 3097 
Q 1594 3097 1305 2825 
Q 1016 2553 972 2059 
L 3022 2063 
z
" transform="scale(0.015625)"/>
     </defs>
     <use xlink:href="#DejaVuSans-47"/>
     <use xlink:href="#DejaVuSans-5f" x="77.490234"/>
     <use xlink:href="#DejaVuSans-69" x="127.490234"/>
     <use xlink:href="#DejaVuSans-6e" x="155.273438"/>
     <use xlink:href="#DejaVuSans-70" x="218.652344"/>
     <use xlink:href="#DejaVuSans-65" x="282.128906"/>
     <use xlink:href="#DejaVuSans-3a" x="343.652344"/>
     <use xlink:href="#DejaVuSans-20" x="377.34375"/>
     <use xlink:href="#DejaVuSans-31" x="409.130859"/>
     <use xlink:href="#DejaVuSans-2e" x="472.753906"/>
     <use xlink:href="#DejaVuSans-31" x="504.541016"/>
     <use xlink:href="#DejaVuSans-20" x="568.164062"/>
     <use xlink:href="#DejaVuSans-64" x="599.951172"/>
     <use xlink:href="#DejaVuSans-42" x="663.427734"/>
     <use xlink:href="#DejaVuSans-69" x="732.03125"/>
    </g>
    <!-- Pearson Coef: 0.378 -->
    <g transform="translate(384.8785 504.7735)scale(0.1 -0.1)">
     <defs>
      <path id="DejaVuSans-50" d="M 1259 4147 
L 1259 2394 
L 2053 2394 
Q 2494 2394 2734 2622 
Q 2975 2850 2975 3272 
Q 2975 3691 2734 3919 
Q 2494 4147 2053 4147 
L 1259 4147 
z
M 628 4666 
L 2053 4666 
Q 2838 4666 3239 4311 
Q 3641 3956 3641 3272 
Q 3641 2581 3239 2228 
Q 2838 1875 2053 1875 
L 1259 1875 
L 1259 0 
L 628 0 
L 628 4666 
z
" transform="scale(0.015625)"/>
      <path id="DejaVuSans-61" d="M 2194 1759 
Q 1497 1759 1228 1600 
Q 959 1441 959 1056 
Q 959 750 1161 570 
Q 1363 391 1709 391 
Q 2188 391 2477 730 
Q 2766 1069 2766 1631 
L 2766 1759 
L 2194 1759 
z
M 3341 1997 
L 3341 0 
L 2766 0 
L 2766 531 
Q 2569 213 2275 61 
Q 1981 -91 1556 -91 
Q 1019 -91 701 211 
Q 384 513 384 1019 
Q 384 1609 779 1909 
Q 1175 2209 1959 2209 
L 2766 2209 
L 2766 2266 
Q 2766 2663 2505 2880 
Q 2244 3097 1772 3097 
Q 1472 3097 1187 3025 
Q 903 2953 641 2809 
L 641 3341 
Q 956 3463 1253 3523 
Q 1550 3584 1831 3584 
Q 2591 3584 2966 3190 
Q 3341 2797 3341 1997 
z
" transform="scale(0.015625)"/>
      <path id="DejaVuSans-72" d="M 2631 2963 
Q 2534 3019 2420 3045 
Q 2306 3072 2169 3072 
Q 1681 3072 1420 2755 
Q 1159 2438 1159 1844 
L 1159 0 
L 581 0 
L 581 3500 
L 1159 3500 
L 1159 2956 
Q 1341 3275 1631 3429 
Q 1922 3584 2338 3584 
Q 2397 3584 2469 3576 
Q 2541 3569 2628 3553 
L 2631 2963 
z
" transform="scale(0.015625)"/>
      <path id="DejaVuSans-6f" d="M 1959 3097 
Q 1497 3097 1228 2736 
Q 959 2375 959 1747 
Q 959 1119 1226 758 
Q 1494 397 1959 397 
Q 2419 397 2687 759 
Q 2956 1122 2956 1747 
Q 2956 2369 2687 2733 
Q 2419 3097 1959 3097 
z
M 1959 3584 
Q 2709 3584 3137 3096 
Q 3566 2609 3566 1747 
Q 3566 888 3137 398 
Q 2709 -91 1959 -91 
Q 1206 -91 779 398 
Q 353 888 353 1747 
Q 353 2609 779 3096 
Q 1206 3584 1959 3584 
z
" transform="scale(0.015625)"/>
      <path id="DejaVuSans-43" d="M 4122 4306 
L 4122 3641 
Q 3803 3938 3442 4084 
Q 3081 4231 2675 4231 
Q 1875 4231 1450 3742 
Q 1025 3253 1025 2328 
Q 1025 1406 1450 917 
Q 1875 428 2675 428 
Q 3081 428 3442 575 
Q 3803 722 4122 1019 
L 4122 359 
Q 3791 134 3420 21 
Q 3050 -91 2638 -91 
Q 1578 -91 968 557 
Q 359 1206 359 2328 
Q 359 3453 968 4101 
Q 1578 4750 2638 4750 
Q 3056 4750 3426 4639 
Q 3797 4528 4122 4306 
z
" transform="scale(0.015625)"/>
      <path id="DejaVuSans-66" d="M 2375 4863 
L 2375 4384 
L 1825 4384 
Q 1516 4384 1395 4259 
Q 1275 4134 1275 3809 
L 1275 3500 
L 2222 3500 
L 2222 3053 
L 1275 3053 
L 1275 0 
L 697 0 
L 697 3053 
L 147 3053 
L 147 3500 
L 697 3500 
L 697 3744 
Q 697 4328 969 4595 
Q 1241 4863 1831 4863 
L 2375 4863 
z
" transform="scale(0.015625)"/>
     </defs>
     <use xlink:href="#DejaVuSans-50"/>
     <use xlink:href="#DejaVuSans-65" x="56.677734"/>
     <use xlink:href="#DejaVuSans-61" x="118.201172"/>
     <use xlink:href="#DejaVuSans-72" x="179.480469"/>
     <use xlink:href="#DejaVuSans-73" x="220.59375"/>
     <use xlink:href="#DejaVuSans-6f" x="272.693359"/>
     <use xlink:href="#DejaVuSans-6e" x="333.875"/>
     <use xlink:href="#DejaVuSans-20" x="397.253906"/>
     <use xlink:href="#DejaVuSans-43" x="429.041016"/>
     <use xlink:href="#DejaVuSans-6f" x="498.865234"/>
     <use xlink:href="#DejaVuSans-65" x="560.046875"/>
     <use xlink:href="#DejaVuSans-66" x="621.570312"/>
     <use xlink:href="#DejaVuSans-3a" x="653.150391"/>
     <use xlink:href="#DejaVuSans-20" x="686.841797"/>
     <use xlink:href="#DejaVuSans-30" x="718.628906"/>
     <use xlink:href="#DejaVuSans-2e" x="782.251953"/>
     <use xlink:href="#DejaVuSans-33" x="814.039062"/>
     <use xlink:href="#DejaVuSans-37" x="877.662109"/>
     <use xlink:href="#DejaVuSans-38" x="941.285156"/>
    </g>
   </g>
   <g id="text_17">
    <g id="patch_5">
     <path d="M 52.2385 56.370938 
L 121.861 56.370938 
Q 125.461 56.370938 125.461 52.770938 
L 125.461 41.157188 
Q 125.461 37.557188 121.861 37.557188 
L 52.2385 37.557188 
Q 48.6385 37.557188 48.6385 41.157188 
L 48.6385 52.770938 
Q 48.6385 56.370938 52.2385 56.370938 
z
" style="fill: #ffffff; stroke: #808080; stroke-linejoin: miter"/>
    </g>
    <!-- Freq: 6 GHz -->
    <g transform="translate(52.2385 50.275313)scale(0.12 -0.12)">
     <defs>
      <path id="DejaVuSans-46" d="M 628 4666 
L 3309 4666 
L 3309 4134 
L 1259 4134 
L 1259 2759 
L 3109 2759 
L 3109 2228 
L 1259 2228 
L 1259 0 
L 628 0 
L 628 4666 
z
" transform="scale(0.015625)"/>
      <path id="DejaVuSans-71" d="M 947 1747 
Q 947 1113 1208 752 
Q 1469 391 1925 391 
Q 2381 391 2643 752 
Q 2906 1113 2906 1747 
Q 2906 2381 2643 2742 
Q 2381 3103 1925 3103 
Q 1469 3103 1208 2742 
Q 947 2381 947 1747 
z
M 2906 525 
Q 2725 213 2448 61 
Q 2172 -91 1784 -91 
Q 1150 -91 751 415 
Q 353 922 353 1747 
Q 353 2572 751 3078 
Q 1150 3584 1784 3584 
Q 2172 3584 2448 3432 
Q 2725 3281 2906 2969 
L 2906 3500 
L 3481 3500 
L 3481 -1331 
L 2906 -1331 
L 2906 525 
z
" transform="scale(0.015625)"/>
      <path id="DejaVuSans-36" d="M 2113 2584 
Q 1688 2584 1439 2293 
Q 1191 2003 1191 1497 
Q 1191 994 1439 701 
Q 1688 409 2113 409 
Q 2538 409 2786 701 
Q 3034 994 3034 1497 
Q 3034 2003 2786 2293 
Q 2538 2584 2113 2584 
z
M 3366 4563 
L 3366 3988 
Q 3128 4100 2886 4159 
Q 2644 4219 2406 4219 
Q 1781 4219 1451 3797 
Q 1122 3375 1075 2522 
Q 1259 2794 1537 2939 
Q 1816 3084 2150 3084 
Q 2853 3084 3261 2657 
Q 3669 2231 3669 1497 
Q 3669 778 3244 343 
Q 2819 -91 2113 -91 
Q 1303 -91 875 529 
Q 447 1150 447 2328 
Q 447 3434 972 4092 
Q 1497 4750 2381 4750 
Q 2619 4750 2861 4703 
Q 3103 4656 3366 4563 
z
" transform="scale(0.015625)"/>
      <path id="DejaVuSans-48" d="M 628 4666 
L 1259 4666 
L 1259 2753 
L 3553 2753 
L 3553 4666 
L 4184 4666 
L 4184 0 
L 3553 0 
L 3553 2222 
L 1259 2222 
L 1259 0 
L 628 0 
L 628 4666 
z
" transform="scale(0.015625)"/>
      <path id="DejaVuSans-7a" d="M 353 3500 
L 3084 3500 
L 3084 2975 
L 922 459 
L 3084 459 
L 3084 0 
L 275 0 
L 275 525 
L 2438 3041 
L 353 3041 
L 353 3500 
z
" transform="scale(0.015625)"/>
     </defs>
     <use xlink:href="#DejaVuSans-46"/>
     <use xlink:href="#DejaVuSans-72" x="50.269531"/>
     <use xlink:href="#DejaVuSans-65" x="89.132812"/>
     <use xlink:href="#DejaVuSans-71" x="150.65625"/>
     <use xlink:href="#DejaVuSans-3a" x="214.132812"/>
     <use xlink:href="#DejaVuSans-20" x="247.824219"/>
     <use xlink:href="#DejaVuSans-36" x="279.611328"/>
     <use xlink:href="#DejaVuSans-20" x="343.234375"/>
     <use xlink:href="#DejaVuSans-47" x="375.021484"/>
     <use xlink:href="#DejaVuSans-48" x="452.511719"/>
     <use xlink:href="#DejaVuSans-7a" x="527.707031"/>
    </g>
   </g>
   <g id="text_18">
    <!-- Radiation Diagram - 2AVVF06 -->
    <g transform="translate(162.985937 16.318125)scale(0.12 -0.12)">
     <defs>
      <path id="DejaVuSans-52" d="M 2841 2188 
Q 3044 2119 3236 1894 
Q 3428 1669 3622 1275 
L 4263 0 
L 3584 0 
L 2988 1197 
Q 2756 1666 2539 1819 
Q 2322 1972 1947 1972 
L 1259 1972 
L 1259 0 
L 628 0 
L 628 4666 
L 2053 4666 
Q 2853 4666 3247 4331 
Q 3641 3997 3641 3322 
Q 3641 2881 3436 2590 
Q 3231 2300 2841 2188 
z
M 1259 4147 
L 1259 2491 
L 2053 2491 
Q 2509 2491 2742 2702 
Q 2975 2913 2975 3322 
Q 2975 3731 2742 3939 
Q 2509 4147 2053 4147 
L 1259 4147 
z
" transform="scale(0.015625)"/>
      <path id="DejaVuSans-44" d="M 1259 4147 
L 1259 519 
L 2022 519 
Q 2988 519 3436 956 
Q 3884 1394 3884 2338 
Q 3884 3275 3436 3711 
Q 2988 4147 2022 4147 
L 1259 4147 
z
M 628 4666 
L 1925 4666 
Q 3281 4666 3915 4102 
Q 4550 3538 4550 2338 
Q 4550 1131 3912 565 
Q 3275 0 1925 0 
L 628 0 
L 628 4666 
z
" transform="scale(0.015625)"/>
      <path id="DejaVuSans-67" d="M 2906 1791 
Q 2906 2416 2648 2759 
Q 2391 3103 1925 3103 
Q 1463 3103 1205 2759 
Q 947 2416 947 1791 
Q 947 1169 1205 825 
Q 1463 481 1925 481 
Q 2391 481 2648 825 
Q 2906 1169 2906 1791 
z
M 3481 434 
Q 3481 -459 3084 -895 
Q 2688 -1331 1869 -1331 
Q 1566 -1331 1297 -1286 
Q 1028 -1241 775 -1147 
L 775 -588 
Q 1028 -725 1275 -790 
Q 1522 -856 1778 -856 
Q 2344 -856 2625 -561 
Q 2906 -266 2906 331 
L 2906 616 
Q 2728 306 2450 153 
Q 2172 0 1784 0 
Q 1141 0 747 490 
Q 353 981 353 1791 
Q 353 2603 747 3093 
Q 1141 3584 1784 3584 
Q 2172 3584 2450 3431 
Q 2728 3278 2906 2969 
L 2906 3500 
L 3481 3500 
L 3481 434 
z
" transform="scale(0.015625)"/>
      <path id="DejaVuSans-6d" d="M 3328 2828 
Q 3544 3216 3844 3400 
Q 4144 3584 4550 3584 
Q 5097 3584 5394 3201 
Q 5691 2819 5691 2113 
L 5691 0 
L 5113 0 
L 5113 2094 
Q 5113 2597 4934 2840 
Q 4756 3084 4391 3084 
Q 3944 3084 3684 2787 
Q 3425 2491 3425 1978 
L 3425 0 
L 2847 0 
L 2847 2094 
Q 2847 2600 2669 2842 
Q 2491 3084 2119 3084 
Q 1678 3084 1418 2786 
Q 1159 2488 1159 1978 
L 1159 0 
L 581 0 
L 581 3500 
L 1159 3500 
L 1159 2956 
Q 1356 3278 1631 3431 
Q 1906 3584 2284 3584 
Q 2666 3584 2933 3390 
Q 3200 3197 3328 2828 
z
" transform="scale(0.015625)"/>
      <path id="DejaVuSans-2d" d="M 313 2009 
L 1997 2009 
L 1997 1497 
L 313 1497 
L 313 2009 
z
" transform="scale(0.015625)"/>
      <path id="DejaVuSans-41" d="M 2188 4044 
L 1331 1722 
L 3047 1722 
L 2188 4044 
z
M 1831 4666 
L 2547 4666 
L 4325 0 
L 3669 0 
L 3244 1197 
L 1141 1197 
L 716 0 
L 50 0 
L 1831 4666 
z
" transform="scale(0.015625)"/>
      <path id="DejaVuSans-56" d="M 1831 0 
L 50 4666 
L 709 4666 
L 2188 738 
L 3669 4666 
L 4325 4666 
L 2547 0 
L 1831 0 
z
" transform="scale(0.015625)"/>
     </defs>
     <use xlink:href="#DejaVuSans-52"/>
     <use xlink:href="#DejaVuSans-61" x="67.232422"/>
     <use xlink:href="#DejaVuSans-64" x="128.511719"/>
     <use xlink:href="#DejaVuSans-69" x="191.988281"/>
     <use xlink:href="#DejaVuSans-61" x="219.771484"/>
     <use xlink:href="#DejaVuSans-74" x="281.050781"/>
     <use xlink:href="#DejaVuSans-69" x="320.259766"/>
     <use xlink:href="#DejaVuSans-6f" x="348.042969"/>
     <use xlink:href="#DejaVuSans-6e" x="409.224609"/>
     <use xlink:href="#DejaVuSans-20" x="472.603516"/>
     <use xlink:href="#DejaVuSans-44" x="504.390625"/>
     <use xlink:href="#DejaVuSans-69" x="581.392578"/>
     <use xlink:href="#DejaVuSans-61" x="609.175781"/>
     <use xlink:href="#DejaVuSans-67" x="670.455078"/>
     <use xlink:href="#DejaVuSans-72" x="733.931641"/>
     <use xlink:href="#DejaVuSans-61" x="775.044922"/>
     <use xlink:href="#DejaVuSans-6d" x="836.324219"/>
     <use xlink:href="#DejaVuSans-20" x="933.736328"/>
     <use xlink:href="#DejaVuSans-2d" x="965.523438"/>
     <use xlink:href="#DejaVuSans-20" x="1001.607422"/>
     <use xlink:href="#DejaVuSans-32" x="1033.394531"/>
     <use xlink:href="#DejaVuSans-41" x="1097.017578"/>
     <use xlink:href="#DejaVuSans-56" x="1159.050781"/>
     <use xlink:href="#DejaVuSans-56" x="1227.458984"/>
     <use xlink:href="#DejaVuSans-46" x="1295.867188"/>
     <use xlink:href="#DejaVuSans-30" x="1353.386719"/>
     <use xlink:href="#DejaVuSans-36" x="1417.009766"/>
    </g>
   </g>
   <g id="legend_1">
    <g id="patch_6">
     <path d="M 411.802812 78.513438 
L 466.5825 78.513438 
Q 468.5825 78.513438 468.5825 76.513438 
L 468.5825 48.157188 
Q 468.5825 46.157188 466.5825 46.157188 
L 411.802812 46.157188 
Q 409.802812 46.157188 409.802812 48.157188 
L 409.802812 76.513438 
Q 409.802812 78.513438 411.802812 78.513438 
z
" style="fill: #ffffff; opacity: 0.8; stroke: #cccccc; stroke-linejoin: miter"/>
    </g>
    <g id="line2d_18">
     <path d="M 413.802812 54.255625 
L 423.802812 54.255625 
L 433.802812 54.255625 
" style="fill: none; stroke: #ff0000; stroke-width: 1.5; stroke-linecap: square"/>
    </g>
    <g id="text_19">
     <!-- INPE -->
     <g transform="translate(441.802812 57.755625)scale(0.1 -0.1)">
      <defs>
       <path id="DejaVuSans-49" d="M 628 4666 
L 1259 4666 
L 1259 0 
L 628 0 
L 628 4666 
z
" transform="scale(0.015625)"/>
       <path id="DejaVuSans-4e" d="M 628 4666 
L 1478 4666 
L 3547 763 
L 3547 4666 
L 4159 4666 
L 4159 0 
L 3309 0 
L 1241 3903 
L 1241 0 
L 628 0 
L 628 4666 
z
" transform="scale(0.015625)"/>
       <path id="DejaVuSans-45" d="M 628 4666 
L 3578 4666 
L 3578 4134 
L 1259 4134 
L 1259 2753 
L 3481 2753 
L 3481 2222 
L 1259 2222 
L 1259 531 
L 3634 531 
L 3634 0 
L 628 0 
L 628 4666 
z
" transform="scale(0.015625)"/>
      </defs>
      <use xlink:href="#DejaVuSans-49"/>
      <use xlink:href="#DejaVuSans-4e" x="29.492188"/>
      <use xlink:href="#DejaVuSans-50" x="104.296875"/>
      <use xlink:href="#DejaVuSans-45" x="164.599609"/>
     </g>
    </g>
    <g id="line2d_19">
     <path d="M 413.802812 68.93375 
L 423.802812 68.93375 
L 433.802812 68.93375 
" style="fill: none; stroke-dasharray: 5.55,2.4; stroke-dashoffset: 0; stroke: #0000ff; stroke-width: 1.5"/>
    </g>
    <g id="text_20">
     <!-- CST -->
     <g transform="translate(441.802812 72.43375)scale(0.1 -0.1)">
      <defs>
       <path id="DejaVuSans-53" d="M 3425 4513 
L 3425 3897 
Q 3066 4069 2747 4153 
Q 2428 4238 2131 4238 
Q 1616 4238 1336 4038 
Q 1056 3838 1056 3469 
Q 1056 3159 1242 3001 
Q 1428 2844 1947 2747 
L 2328 2669 
Q 3034 2534 3370 2195 
Q 3706 1856 3706 1288 
Q 3706 609 3251 259 
Q 2797 -91 1919 -91 
Q 1588 -91 1214 -16 
Q 841 59 441 206 
L 441 856 
Q 825 641 1194 531 
Q 1563 422 1919 422 
Q 2459 422 2753 634 
Q 3047 847 3047 1241 
Q 3047 1584 2836 1778 
Q 2625 1972 2144 2069 
L 1759 2144 
Q 1053 2284 737 2584 
Q 422 2884 422 3419 
Q 422 4038 858 4394 
Q 1294 4750 2059 4750 
Q 2388 4750 2728 4690 
Q 3069 4631 3425 4513 
z
" transform="scale(0.015625)"/>
       <path id="DejaVuSans-54" d="M -19 4666 
L 3928 4666 
L 3928 4134 
L 2272 4134 
L 2272 0 
L 1638 0 
L 1638 4134 
L -19 4134 
L -19 4666 
z
" transform="scale(0.015625)"/>
      </defs>
      <use xlink:href="#DejaVuSans-43"/>
      <use xlink:href="#DejaVuSans-53" x="69.824219"/>
      <use xlink:href="#DejaVuSans-54" x="133.300781"/>
     </g>
    </g>
   </g>
  </g>
 </g>
 <defs>
  <clipPath id="p42719c0ef0">
   <path d="M 473.5825 262.917188 
C 473.5825 233.795931 467.846247 204.957842 456.702025 178.05331 
C 445.557803 151.148777 429.222338 126.701026 408.6305 106.109188 
C 388.038662 85.51735 363.590911 69.181885 336.686378 58.037662 
C 309.781845 46.89344 280.943756 41.157188 251.8225 41.157188 
C 222.701244 41.157188 193.863155 46.89344 166.958622 58.037662 
C 140.054089 69.181885 115.606338 85.51735 95.0145 106.109188 
C 74.422662 126.701026 58.087197 151.148777 46.942975 178.05331 
C 35.798753 204.957842 30.0625 233.795931 30.0625 262.917188 
C 30.0625 292.038444 35.798753 320.876533 46.942975 347.781065 
C 58.087197 374.685598 74.422662 399.133349 95.0145 419.725187 
C 115.606338 440.317025 140.054089 456.65249 166.958622 467.796713 
C 193.863155 478.940935 222.701244 484.677188 251.8225 484.677188 
C 280.943756 484.677188 309.781845 478.940935 336.686378 467.796713 
C 363.590911 456.65249 388.038662 440.317025 408.6305 419.725187 
C 429.222338 399.133349 445.557803 374.685598 456.702025 347.781065 
C 467.846247 320.876533 473.5825 292.038444 473.5825 262.917188 
M 251.8225 262.917188 
C 251.8225 262.917188 251.8225 262.917188 251.8225 262.917188 
C 251.8225 262.917188 251.8225 262.917188 251.8225 262.917188 
C 251.8225 262.917188 251.8225 262.917188 251.8225 262.917188 
C 251.8225 262.917188 251.8225 262.917188 251.8225 262.917188 
C 251.8225 262.917188 251.8225 262.917188 251.8225 262.917188 
C 251.8225 262.917188 251.8225 262.917188 251.8225 262.917188 
C 251.8225 262.917188 251.8225 262.917188 251.8225 262.917188 
C 251.8225 262.917188 251.8225 262.917188 251.8225 262.917188 
C 251.8225 262.917188 251.8225 262.917188 251.8225 262.917188 
C 251.8225 262.917188 251.8225 262.917188 251.8225 262.917188 
C 251.8225 262.917188 251.8225 262.917188 251.8225 262.917188 
C 251.8225 262.917188 251.8225 262.917188 251.8225 262.917188 
C 251.8225 262.917188 251.8225 262.917188 251.8225 262.917188 
C 251.8225 262.917188 251.8225 262.917188 251.8225 262.917188 
C 251.8225 262.917188 251.8225 262.917188 251.8225 262.917188 
C 251.8225 262.917188 251.8225 262.917188 251.8225 262.917188 
M 473.5825 262.917188 
z
"/>
  </clipPath>
 </defs>
</svg>
