<?xml version="1.0" encoding="utf-8" standalone="no"?>
<!DOCTYPE svg PUBLIC "-//W3C//DTD SVG 1.1//EN"
  "http://www.w3.org/Graphics/SVG/1.1/DTD/svg11.dtd">
<svg xmlns:xlink="http://www.w3.org/1999/xlink" width="506.82625pt" height="514.053188pt" viewBox="0 0 506.82625 514.053188" xmlns="http://www.w3.org/2000/svg" version="1.1">
 <metadata>
  <rdf:RDF xmlns:dc="http://purl.org/dc/elements/1.1/" xmlns:cc="http://creativecommons.org/ns#" xmlns:rdf="http://www.w3.org/1999/02/22-rdf-syntax-ns#">
   <cc:Work>
    <dc:type rdf:resource="http://purl.org/dc/dcmitype/StillImage"/>
    <dc:date>2024-01-27T16:33:52.253695</dc:date>
    <dc:format>image/svg+xml</dc:format>
    <dc:creator>
     <cc:Agent>
      <dc:title>Matplotlib v3.5.1, https://matplotlib.org/</dc:title>
     </cc:Agent>
    </dc:creator>
   </cc:Work>
  </rdf:RDF>
 </metadata>
 <defs>
  <style type="text/css">*{stroke-linejoin: round; stroke-linecap: butt}</style>
 </defs>
 <g id="figure_1">
  <g id="patch_1">
   <path d="M 0 514.053188 
L 506.82625 514.053188 
L 506.82625 0 
L 0 0 
z
" style="fill: #ffffff"/>
  </g>
  <g id="axes_1">
   <g id="patch_2">
    <path d="M 473.5825 262.917188 
C 473.5825 233.795931 467.846247 204.957842 456.702025 178.05331 
C 445.557803 151.148777 429.222338 126.701026 408.6305 106.109188 
C 388.038662 85.51735 363.590911 69.181885 336.686378 58.037662 
C 309.781845 46.89344 280.943756 41.157188 251.8225 41.157188 
C 222.701244 41.157188 193.863155 46.89344 166.958622 58.037662 
C 140.054089 69.181885 115.606338 85.51735 95.0145 106.109188 
C 74.422662 126.701026 58.087197 151.148777 46.942975 178.05331 
C 35.798753 204.957842 30.0625 233.795931 30.0625 262.917188 
C 30.0625 292.038444 35.798753 320.876533 46.942975 347.781065 
C 58.087197 374.685598 74.422662 399.133349 95.0145 419.725187 
C 115.606338 440.317025 140.054089 456.65249 166.958622 467.796713 
C 193.863155 478.940935 222.701244 484.677188 251.8225 484.677188 
C 280.943756 484.677188 309.781845 478.940935 336.686378 467.796713 
C 363.590911 456.65249 388.038662 440.317025 408.6305 419.725187 
C 429.222338 399.133349 445.557803 374.685598 456.702025 347.781065 
C 467.846247 320.876533 473.5825 292.038444 473.5825 262.917188 
M 251.8225 262.917188 
C 251.8225 262.917188 251.8225 262.917188 251.8225 262.917188 
C 251.8225 262.917188 251.8225 262.917188 251.8225 262.917188 
C 251.8225 262.917188 251.8225 262.917188 251.8225 262.917188 
C 251.8225 262.917188 251.8225 262.917188 251.8225 262.917188 
C 251.8225 262.917188 251.8225 262.917188 251.8225 262.917188 
C 251.8225 262.917188 251.8225 262.917188 251.8225 262.917188 
C 251.8225 262.917188 251.8225 262.917188 251.8225 262.917188 
C 251.8225 262.917188 251.8225 262.917188 251.8225 262.917188 
C 251.8225 262.917188 251.8225 262.917188 251.8225 262.917188 
C 251.8225 262.917188 251.8225 262.917188 251.8225 262.917188 
C 251.8225 262.917188 251.8225 262.917188 251.8225 262.917188 
C 251.8225 262.917188 251.8225 262.917188 251.8225 262.917188 
C 251.8225 262.917188 251.8225 262.917188 251.8225 262.917188 
C 251.8225 262.917188 251.8225 262.917188 251.8225 262.917188 
C 251.8225 262.917188 251.8225 262.917188 251.8225 262.917188 
C 251.8225 262.917188 251.8225 262.917188 251.8225 262.917188 
M 473.5825 262.917188 
z
" style="fill: #ffffff"/>
   </g>
   <g id="matplotlib.axis_1">
    <g id="xtick_1">
     <g id="line2d_1">
      <path d="M 251.8225 262.917188 
L 251.8225 41.157188 
" clip-path="url(#pb0cbf9ec84)" style="fill: none; stroke: #b0b0b0; stroke-width: 0.8; stroke-linecap: square"/>
     </g>
     <g id="text_1">
      <!-- 0° -->
      <g transform="translate(246.14125 29.916563)scale(0.1 -0.1)">
       <defs>
        <path id="DejaVuSans-30" d="M 2034 4250 
Q 1547 4250 1301 3770 
Q 1056 3291 1056 2328 
Q 1056 1369 1301 889 
Q 1547 409 2034 409 
Q 2525 409 2770 889 
Q 3016 1369 3016 2328 
Q 3016 3291 2770 3770 
Q 2525 4250 2034 4250 
z
M 2034 4750 
Q 2819 4750 3233 4129 
Q 3647 3509 3647 2328 
Q 3647 1150 3233 529 
Q 2819 -91 2034 -91 
Q 1250 -91 836 529 
Q 422 1150 422 2328 
Q 422 3509 836 4129 
Q 1250 4750 2034 4750 
z
" transform="scale(0.015625)"/>
        <path id="DejaVuSans-b0" d="M 1600 4347 
Q 1350 4347 1178 4173 
Q 1006 4000 1006 3750 
Q 1006 3503 1178 3333 
Q 1350 3163 1600 3163 
Q 1850 3163 2022 3333 
Q 2194 3503 2194 3750 
Q 2194 3997 2020 4172 
Q 1847 4347 1600 4347 
z
M 1600 4750 
Q 1800 4750 1984 4673 
Q 2169 4597 2303 4453 
Q 2447 4313 2519 4134 
Q 2591 3956 2591 3750 
Q 2591 3338 2302 3052 
Q 2013 2766 1594 2766 
Q 1172 2766 890 3047 
Q 609 3328 609 3750 
Q 609 4169 896 4459 
Q 1184 4750 1600 4750 
z
" transform="scale(0.015625)"/>
       </defs>
       <use xlink:href="#DejaVuSans-30"/>
       <use xlink:href="#DejaVuSans-b0" x="63.623047"/>
      </g>
     </g>
    </g>
    <g id="xtick_2">
     <g id="line2d_2">
      <path d="M 251.8225 262.917188 
L 95.0145 106.109188 
" clip-path="url(#pb0cbf9ec84)" style="fill: none; stroke: #b0b0b0; stroke-width: 0.8; stroke-linecap: square"/>
     </g>
     <g id="text_2">
      <!-- 45° -->
      <g transform="translate(76.252505 98.969068)scale(0.1 -0.1)">
       <defs>
        <path id="DejaVuSans-34" d="M 2419 4116 
L 825 1625 
L 2419 1625 
L 2419 4116 
z
M 2253 4666 
L 3047 4666 
L 3047 1625 
L 3713 1625 
L 3713 1100 
L 3047 1100 
L 3047 0 
L 2419 0 
L 2419 1100 
L 313 1100 
L 313 1709 
L 2253 4666 
z
" transform="scale(0.015625)"/>
        <path id="DejaVuSans-35" d="M 691 4666 
L 3169 4666 
L 3169 4134 
L 1269 4134 
L 1269 2991 
Q 1406 3038 1543 3061 
Q 1681 3084 1819 3084 
Q 2600 3084 3056 2656 
Q 3513 2228 3513 1497 
Q 3513 744 3044 326 
Q 2575 -91 1722 -91 
Q 1428 -91 1123 -41 
Q 819 9 494 109 
L 494 744 
Q 775 591 1075 516 
Q 1375 441 1709 441 
Q 2250 441 2565 725 
Q 2881 1009 2881 1497 
Q 2881 1984 2565 2268 
Q 2250 2553 1709 2553 
Q 1456 2553 1204 2497 
Q 953 2441 691 2322 
L 691 4666 
z
" transform="scale(0.015625)"/>
       </defs>
       <use xlink:href="#DejaVuSans-34"/>
       <use xlink:href="#DejaVuSans-35" x="63.623047"/>
       <use xlink:href="#DejaVuSans-b0" x="127.246094"/>
      </g>
     </g>
    </g>
    <g id="xtick_3">
     <g id="line2d_3">
      <path d="M 251.8225 262.917188 
L 30.0625 262.917188 
" clip-path="url(#pb0cbf9ec84)" style="fill: none; stroke: #b0b0b0; stroke-width: 0.8; stroke-linecap: square"/>
     </g>
     <g id="text_3">
      <!-- 90° -->
      <g transform="translate(7.2 265.676563)scale(0.1 -0.1)">
       <defs>
        <path id="DejaVuSans-39" d="M 703 97 
L 703 672 
Q 941 559 1184 500 
Q 1428 441 1663 441 
Q 2288 441 2617 861 
Q 2947 1281 2994 2138 
Q 2813 1869 2534 1725 
Q 2256 1581 1919 1581 
Q 1219 1581 811 2004 
Q 403 2428 403 3163 
Q 403 3881 828 4315 
Q 1253 4750 1959 4750 
Q 2769 4750 3195 4129 
Q 3622 3509 3622 2328 
Q 3622 1225 3098 567 
Q 2575 -91 1691 -91 
Q 1453 -91 1209 -44 
Q 966 3 703 97 
z
M 1959 2075 
Q 2384 2075 2632 2365 
Q 2881 2656 2881 3163 
Q 2881 3666 2632 3958 
Q 2384 4250 1959 4250 
Q 1534 4250 1286 3958 
Q 1038 3666 1038 3163 
Q 1038 2656 1286 2365 
Q 1534 2075 1959 2075 
z
" transform="scale(0.015625)"/>
       </defs>
       <use xlink:href="#DejaVuSans-39"/>
       <use xlink:href="#DejaVuSans-30" x="63.623047"/>
       <use xlink:href="#DejaVuSans-b0" x="127.246094"/>
      </g>
     </g>
    </g>
    <g id="xtick_4">
     <g id="line2d_4">
      <path d="M 251.8225 262.917188 
L 95.0145 419.725187 
" clip-path="url(#pb0cbf9ec84)" style="fill: none; stroke: #b0b0b0; stroke-width: 0.8; stroke-linecap: square"/>
     </g>
     <g id="text_4">
      <!-- 135° -->
      <g transform="translate(73.071255 432.384057)scale(0.1 -0.1)">
       <defs>
        <path id="DejaVuSans-31" d="M 794 531 
L 1825 531 
L 1825 4091 
L 703 3866 
L 703 4441 
L 1819 4666 
L 2450 4666 
L 2450 531 
L 3481 531 
L 3481 0 
L 794 0 
L 794 531 
z
" transform="scale(0.015625)"/>
        <path id="DejaVuSans-33" d="M 2597 2516 
Q 3050 2419 3304 2112 
Q 3559 1806 3559 1356 
Q 3559 666 3084 287 
Q 2609 -91 1734 -91 
Q 1441 -91 1130 -33 
Q 819 25 488 141 
L 488 750 
Q 750 597 1062 519 
Q 1375 441 1716 441 
Q 2309 441 2620 675 
Q 2931 909 2931 1356 
Q 2931 1769 2642 2001 
Q 2353 2234 1838 2234 
L 1294 2234 
L 1294 2753 
L 1863 2753 
Q 2328 2753 2575 2939 
Q 2822 3125 2822 3475 
Q 2822 3834 2567 4026 
Q 2313 4219 1838 4219 
Q 1578 4219 1281 4162 
Q 984 4106 628 3988 
L 628 4550 
Q 988 4650 1302 4700 
Q 1616 4750 1894 4750 
Q 2613 4750 3031 4423 
Q 3450 4097 3450 3541 
Q 3450 3153 3228 2886 
Q 3006 2619 2597 2516 
z
" transform="scale(0.015625)"/>
       </defs>
       <use xlink:href="#DejaVuSans-31"/>
       <use xlink:href="#DejaVuSans-33" x="63.623047"/>
       <use xlink:href="#DejaVuSans-35" x="127.246094"/>
       <use xlink:href="#DejaVuSans-b0" x="190.869141"/>
      </g>
     </g>
    </g>
    <g id="xtick_5">
     <g id="line2d_5">
      <path d="M 251.8225 262.917188 
L 251.8225 484.677188 
" clip-path="url(#pb0cbf9ec84)" style="fill: none; stroke: #b0b0b0; stroke-width: 0.8; stroke-linecap: square"/>
     </g>
     <g id="text_5">
      <!-- 180° -->
      <g transform="translate(239.77875 501.436563)scale(0.1 -0.1)">
       <defs>
        <path id="DejaVuSans-38" d="M 2034 2216 
Q 1584 2216 1326 1975 
Q 1069 1734 1069 1313 
Q 1069 891 1326 650 
Q 1584 409 2034 409 
Q 2484 409 2743 651 
Q 3003 894 3003 1313 
Q 3003 1734 2745 1975 
Q 2488 2216 2034 2216 
z
M 1403 2484 
Q 997 2584 770 2862 
Q 544 3141 544 3541 
Q 544 4100 942 4425 
Q 1341 4750 2034 4750 
Q 2731 4750 3128 4425 
Q 3525 4100 3525 3541 
Q 3525 3141 3298 2862 
Q 3072 2584 2669 2484 
Q 3125 2378 3379 2068 
Q 3634 1759 3634 1313 
Q 3634 634 3220 271 
Q 2806 -91 2034 -91 
Q 1263 -91 848 271 
Q 434 634 434 1313 
Q 434 1759 690 2068 
Q 947 2378 1403 2484 
z
M 1172 3481 
Q 1172 3119 1398 2916 
Q 1625 2713 2034 2713 
Q 2441 2713 2670 2916 
Q 2900 3119 2900 3481 
Q 2900 3844 2670 4047 
Q 2441 4250 2034 4250 
Q 1625 4250 1398 4047 
Q 1172 3844 1172 3481 
z
" transform="scale(0.015625)"/>
       </defs>
       <use xlink:href="#DejaVuSans-31"/>
       <use xlink:href="#DejaVuSans-38" x="63.623047"/>
       <use xlink:href="#DejaVuSans-30" x="127.246094"/>
       <use xlink:href="#DejaVuSans-b0" x="190.869141"/>
      </g>
     </g>
    </g>
    <g id="xtick_6">
     <g id="line2d_6">
      <path d="M 251.8225 262.917188 
L 408.6305 419.725187 
" clip-path="url(#pb0cbf9ec84)" style="fill: none; stroke: #b0b0b0; stroke-width: 0.8; stroke-linecap: square"/>
     </g>
     <g id="text_6">
      <!-- 225° -->
      <g transform="translate(406.486245 432.384057)scale(0.1 -0.1)">
       <defs>
        <path id="DejaVuSans-32" d="M 1228 531 
L 3431 531 
L 3431 0 
L 469 0 
L 469 531 
Q 828 903 1448 1529 
Q 2069 2156 2228 2338 
Q 2531 2678 2651 2914 
Q 2772 3150 2772 3378 
Q 2772 3750 2511 3984 
Q 2250 4219 1831 4219 
Q 1534 4219 1204 4116 
Q 875 4013 500 3803 
L 500 4441 
Q 881 4594 1212 4672 
Q 1544 4750 1819 4750 
Q 2544 4750 2975 4387 
Q 3406 4025 3406 3419 
Q 3406 3131 3298 2873 
Q 3191 2616 2906 2266 
Q 2828 2175 2409 1742 
Q 1991 1309 1228 531 
z
" transform="scale(0.015625)"/>
       </defs>
       <use xlink:href="#DejaVuSans-32"/>
       <use xlink:href="#DejaVuSans-32" x="63.623047"/>
       <use xlink:href="#DejaVuSans-35" x="127.246094"/>
       <use xlink:href="#DejaVuSans-b0" x="190.869141"/>
      </g>
     </g>
    </g>
    <g id="xtick_7">
     <g id="line2d_7">
      <path d="M 251.8225 262.917188 
L 473.5825 262.917188 
" clip-path="url(#pb0cbf9ec84)" style="fill: none; stroke: #b0b0b0; stroke-width: 0.8; stroke-linecap: square"/>
     </g>
     <g id="text_7">
      <!-- 270° -->
      <g transform="translate(475.53875 265.676563)scale(0.1 -0.1)">
       <defs>
        <path id="DejaVuSans-37" d="M 525 4666 
L 3525 4666 
L 3525 4397 
L 1831 0 
L 1172 0 
L 2766 4134 
L 525 4134 
L 525 4666 
z
" transform="scale(0.015625)"/>
       </defs>
       <use xlink:href="#DejaVuSans-32"/>
       <use xlink:href="#DejaVuSans-37" x="63.623047"/>
       <use xlink:href="#DejaVuSans-30" x="127.246094"/>
       <use xlink:href="#DejaVuSans-b0" x="190.869141"/>
      </g>
     </g>
    </g>
    <g id="xtick_8">
     <g id="line2d_8">
      <path d="M 251.8225 262.917188 
L 408.6305 106.109188 
" clip-path="url(#pb0cbf9ec84)" style="fill: none; stroke: #b0b0b0; stroke-width: 0.8; stroke-linecap: square"/>
     </g>
     <g id="text_8">
      <!-- 315° -->
      <g transform="translate(406.486245 98.969068)scale(0.1 -0.1)">
       <use xlink:href="#DejaVuSans-33"/>
       <use xlink:href="#DejaVuSans-31" x="63.623047"/>
       <use xlink:href="#DejaVuSans-35" x="127.246094"/>
       <use xlink:href="#DejaVuSans-b0" x="190.869141"/>
      </g>
     </g>
    </g>
   </g>
   <g id="matplotlib.axis_2">
    <g id="ytick_1">
     <g id="line2d_9">
      <path d="M 251.8225 257.222989 
C 251.074745 257.222989 250.33426 257.370281 249.643425 257.656434 
C 248.952589 257.942588 248.324837 258.362039 247.796094 258.890781 
C 247.267351 259.419524 246.8479 260.047276 246.561747 260.738112 
C 246.275593 261.428948 246.128302 262.169432 246.128302 262.917188 
C 246.128302 263.664943 246.275593 264.405427 246.561747 265.096263 
C 246.8479 265.787099 247.267351 266.414851 247.796094 266.943594 
C 248.324837 267.472336 248.952589 267.891787 249.643425 268.177941 
C 250.33426 268.464094 251.074745 268.611386 251.8225 268.611386 
C 252.570255 268.611386 253.31074 268.464094 254.001575 268.177941 
C 254.692411 267.891787 255.320163 267.472336 255.848906 266.943594 
C 256.377649 266.414851 256.7971 265.787099 257.083253 265.096263 
C 257.369407 264.405427 257.516698 263.664943 257.516698 262.917188 
C 257.516698 262.169432 257.369407 261.428948 257.083253 260.738112 
C 256.7971 260.047276 256.377649 259.419524 255.848906 258.890781 
C 255.320163 258.362039 254.692411 257.942588 254.001575 257.656434 
C 253.31074 257.370281 252.570255 257.222989 251.8225 257.222989 
" clip-path="url(#pb0cbf9ec84)" style="fill: none; stroke: #b0b0b0; stroke-width: 0.8; stroke-linecap: square"/>
     </g>
     <g id="text_9">
      <!-- −50 -->
      <g transform="translate(249.643425 255.576747)scale(0.1 -0.1)">
       <defs>
        <path id="DejaVuSans-2212" d="M 678 2272 
L 4684 2272 
L 4684 1741 
L 678 1741 
L 678 2272 
z
" transform="scale(0.015625)"/>
       </defs>
       <use xlink:href="#DejaVuSans-2212"/>
       <use xlink:href="#DejaVuSans-35" x="83.789062"/>
       <use xlink:href="#DejaVuSans-30" x="147.412109"/>
      </g>
     </g>
    </g>
    <g id="ytick_2">
     <g id="line2d_10">
      <path d="M 251.8225 214.009829 
C 245.400045 214.009829 239.040039 215.274913 233.106464 217.73268 
C 227.172889 220.190447 221.781137 223.793101 217.239775 228.334463 
C 212.698413 232.875824 209.09576 238.267577 206.637992 244.201152 
C 204.180225 250.134727 202.915141 256.494732 202.915141 262.917188 
C 202.915141 269.339643 204.180225 275.699648 206.637992 281.633223 
C 209.09576 287.566798 212.698413 292.958551 217.239775 297.499912 
C 221.781137 302.041274 227.172889 305.643928 233.106464 308.101695 
C 239.040039 310.559462 245.400045 311.824546 251.8225 311.824546 
C 258.244955 311.824546 264.604961 310.559462 270.538536 308.101695 
C 276.472111 305.643928 281.863863 302.041274 286.405225 297.499912 
C 290.946587 292.958551 294.54924 287.566798 297.007008 281.633223 
C 299.464775 275.699648 300.729859 269.339643 300.729859 262.917188 
C 300.729859 256.494732 299.464775 250.134727 297.007008 244.201152 
C 294.54924 238.267577 290.946587 232.875824 286.405225 228.334463 
C 281.863863 223.793101 276.472111 220.190447 270.538536 217.73268 
C 264.604961 215.274913 258.244955 214.009829 251.8225 214.009829 
" clip-path="url(#pb0cbf9ec84)" style="fill: none; stroke: #b0b0b0; stroke-width: 0.8; stroke-linecap: square"/>
     </g>
     <g id="text_10">
      <!-- −40 -->
      <g transform="translate(233.106464 215.652992)scale(0.1 -0.1)">
       <use xlink:href="#DejaVuSans-2212"/>
       <use xlink:href="#DejaVuSans-34" x="83.789062"/>
       <use xlink:href="#DejaVuSans-30" x="147.412109"/>
      </g>
     </g>
    </g>
    <g id="ytick_3">
     <g id="line2d_11">
      <path d="M 251.8225 170.796669 
C 239.725344 170.796669 227.745818 173.179545 216.569504 177.808926 
C 205.393189 182.438307 195.237437 189.224163 186.683456 197.778144 
C 178.129476 206.332125 171.343619 216.487877 166.714238 227.664191 
C 162.084857 238.840506 159.701981 250.820032 159.701981 262.917188 
C 159.701981 275.014343 162.084857 286.993869 166.714238 298.170184 
C 171.343619 309.346498 178.129476 319.50225 186.683456 328.056231 
C 195.237437 336.610212 205.393189 343.396068 216.569504 348.025449 
C 227.745818 352.65483 239.725344 355.037706 251.8225 355.037706 
C 263.919656 355.037706 275.899182 352.65483 287.075496 348.025449 
C 298.251811 343.396068 308.407563 336.610212 316.961544 328.056231 
C 325.515524 319.50225 332.301381 309.346498 336.930762 298.170184 
C 341.560143 286.993869 343.943019 275.014343 343.943019 262.917188 
C 343.943019 250.820032 341.560143 238.840506 336.930762 227.664191 
C 332.301381 216.487877 325.515524 206.332125 316.961544 197.778144 
C 308.407563 189.224163 298.251811 182.438307 287.075496 177.808926 
C 275.899182 173.179545 263.919656 170.796669 251.8225 170.796669 
" clip-path="url(#pb0cbf9ec84)" style="fill: none; stroke: #b0b0b0; stroke-width: 0.8; stroke-linecap: square"/>
     </g>
     <g id="text_11">
      <!-- −30 -->
      <g transform="translate(216.569504 175.729238)scale(0.1 -0.1)">
       <use xlink:href="#DejaVuSans-2212"/>
       <use xlink:href="#DejaVuSans-33" x="83.789062"/>
       <use xlink:href="#DejaVuSans-30" x="147.412109"/>
      </g>
     </g>
    </g>
    <g id="ytick_4">
     <g id="line2d_12">
      <path d="M 251.8225 127.583508 
C 234.050644 127.583508 216.451597 131.084176 200.032543 137.885171 
C 183.613489 144.686166 168.693738 154.655225 156.127138 167.221825 
C 143.560538 179.788425 133.591479 194.708177 126.790484 211.127231 
C 119.989489 227.546285 116.488821 245.145332 116.488821 262.917188 
C 116.488821 280.689043 119.989489 298.28809 126.790484 314.707144 
C 133.591479 331.126198 143.560538 346.04595 156.127138 358.61255 
C 168.693738 371.17915 183.613489 381.148209 200.032543 387.949204 
C 216.451597 394.750199 234.050644 398.250867 251.8225 398.250867 
C 269.594356 398.250867 287.193403 394.750199 303.612457 387.949204 
C 320.031511 381.148209 334.951262 371.17915 347.517862 358.61255 
C 360.084462 346.04595 370.053521 331.126198 376.854516 314.707144 
C 383.655511 298.28809 387.156179 280.689043 387.156179 262.917188 
C 387.156179 245.145332 383.655511 227.546285 376.854516 211.127231 
C 370.053521 194.708177 360.084462 179.788425 347.517862 167.221825 
C 334.951262 154.655225 320.031511 144.686166 303.612457 137.885171 
C 287.193403 131.084176 269.594356 127.583508 251.8225 127.583508 
" clip-path="url(#pb0cbf9ec84)" style="fill: none; stroke: #b0b0b0; stroke-width: 0.8; stroke-linecap: square"/>
     </g>
     <g id="text_12">
      <!-- −20 -->
      <g transform="translate(200.032543 135.805484)scale(0.1 -0.1)">
       <use xlink:href="#DejaVuSans-2212"/>
       <use xlink:href="#DejaVuSans-32" x="83.789062"/>
       <use xlink:href="#DejaVuSans-30" x="147.412109"/>
      </g>
     </g>
    </g>
    <g id="ytick_5">
     <g id="line2d_13">
      <path d="M 251.8225 84.370348 
C 228.375944 84.370348 205.157376 88.988808 183.495583 97.961417 
C 161.833789 106.934025 142.150038 120.086288 125.570819 136.665506 
C 108.9916 153.244725 95.839338 172.928477 86.866729 194.59027 
C 77.894121 216.252063 73.27566 239.470631 73.27566 262.917188 
C 73.27566 286.363744 77.894121 309.582312 86.866729 331.244105 
C 95.839338 352.905898 108.9916 372.58965 125.570819 389.168869 
C 142.150038 405.748087 161.833789 418.90035 183.495583 427.872958 
C 205.157376 436.845567 228.375944 441.464027 251.8225 441.464027 
C 275.269056 441.464027 298.487624 436.845567 320.149417 427.872958 
C 341.811211 418.90035 361.494962 405.748087 378.074181 389.168869 
C 394.6534 372.58965 407.805662 352.905898 416.778271 331.244105 
C 425.750879 309.582312 430.36934 286.363744 430.36934 262.917188 
C 430.36934 239.470631 425.750879 216.252063 416.778271 194.59027 
C 407.805662 172.928477 394.6534 153.244725 378.074181 136.665506 
C 361.494962 120.086288 341.811211 106.934025 320.149417 97.961417 
C 298.487624 88.988808 275.269056 84.370348 251.8225 84.370348 
" clip-path="url(#pb0cbf9ec84)" style="fill: none; stroke: #b0b0b0; stroke-width: 0.8; stroke-linecap: square"/>
     </g>
     <g id="text_13">
      <!-- −10 -->
      <g transform="translate(183.495583 95.881729)scale(0.1 -0.1)">
       <use xlink:href="#DejaVuSans-2212"/>
       <use xlink:href="#DejaVuSans-31" x="83.789062"/>
       <use xlink:href="#DejaVuSans-30" x="147.412109"/>
      </g>
     </g>
    </g>
    <g id="ytick_6">
     <g id="line2d_14">
      <path d="M 251.8225 41.157188 
C 222.701244 41.157188 193.863155 46.89344 166.958622 58.037662 
C 140.054089 69.181885 115.606338 85.51735 95.0145 106.109188 
C 74.422662 126.701026 58.087197 151.148777 46.942975 178.05331 
C 35.798753 204.957842 30.0625 233.795931 30.0625 262.917188 
C 30.0625 292.038444 35.798753 320.876533 46.942975 347.781065 
C 58.087197 374.685598 74.422662 399.133349 95.0145 419.725187 
C 115.606338 440.317025 140.054089 456.65249 166.958622 467.796713 
C 193.863155 478.940935 222.701244 484.677188 251.8225 484.677188 
C 280.943756 484.677188 309.781845 478.940935 336.686378 467.796713 
C 363.590911 456.65249 388.038662 440.317025 408.6305 419.725187 
C 429.222338 399.133349 445.557803 374.685598 456.702025 347.781065 
C 467.846247 320.876533 473.5825 292.038444 473.5825 262.917188 
C 473.5825 233.795931 467.846247 204.957842 456.702025 178.05331 
C 445.557803 151.148777 429.222338 126.701026 408.6305 106.109188 
C 388.038662 85.51735 363.590911 69.181885 336.686378 58.037662 
C 309.781845 46.89344 280.943756 41.157188 251.8225 41.157188 
" clip-path="url(#pb0cbf9ec84)" style="fill: none; stroke: #b0b0b0; stroke-width: 0.8; stroke-linecap: square"/>
     </g>
     <g id="text_14">
      <!-- 0 -->
      <g transform="translate(166.958622 55.957975)scale(0.1 -0.1)">
       <use xlink:href="#DejaVuSans-30"/>
      </g>
     </g>
    </g>
   </g>
   <g id="line2d_15">
    <path d="M 251.8225 480.896036 
L 255.638822 481.554142 
L 259.487613 482.417305 
L 263.345747 482.793839 
L 271.093663 483.187593 
L 278.819281 482.788321 
L 282.68252 482.497638 
L 290.33072 481.308155 
L 297.815792 479.298612 
L 301.453932 477.894537 
L 305.034114 476.337313 
L 308.629913 474.925338 
L 318.8732 469.278024 
L 328.113309 461.661539 
L 330.63945 457.995985 
L 333.243524 454.733099 
L 335.685892 451.27745 
L 337.563365 446.789066 
L 339.57535 442.837193 
L 341.081545 438.097927 
L 341.471691 431.522793 
L 342.165229 425.899784 
L 341.461071 418.175747 
L 339.245062 408.412763 
L 338.210125 401.166286 
L 337.008804 394.092592 
L 340.014924 393.667833 
L 345.156108 396.211394 
L 352.62949 401.666106 
L 359.316281 405.566252 
L 364.867639 407.608368 
L 371.030629 410.126967 
L 376.020448 410.930539 
L 380.702495 411.176662 
L 386.046215 411.987725 
L 390.460527 411.588269 
L 399.161097 410.255784 
L 410.141765 405.468494 
L 416.635726 401.211905 
L 419.974597 399.084071 
L 428.845824 391.532161 
L 431.502441 388.730436 
L 433.925178 385.746995 
L 436.113602 382.597229 
L 438.133927 379.337488 
L 439.889191 375.919056 
L 442.98133 368.878257 
L 446.423924 357.830644 
L 447.06381 353.959706 
L 447.837389 350.188639 
L 448.332206 346.330609 
L 448.267566 342.286146 
L 448.473052 338.404262 
L 448.099702 334.356247 
L 447.39214 330.257215 
L 447.012858 326.338379 
L 446.007204 322.285409 
L 444.41755 318.142929 
L 443.248307 314.209578 
L 438.749092 306.072592 
L 436.823531 302.240371 
L 433.456055 298.223174 
L 430.759192 294.468554 
L 428.499776 290.900119 
L 425.139857 287.275353 
L 422.720626 283.900839 
L 420.602561 280.656687 
L 418.346577 277.486156 
L 417.717631 274.517705 
L 417.972498 271.62474 
L 422.74643 265.900676 
L 426.977107 262.917188 
L 430.069945 259.805867 
L 433.879631 256.559612 
L 437.249363 253.199377 
L 439.71559 249.778423 
L 444.398612 242.676623 
L 446.087673 239.064423 
L 450.292764 231.482586 
L 451.628976 227.685915 
L 453.304005 223.75315 
L 454.804699 219.771989 
L 455.410282 215.915245 
L 456.273896 211.941729 
L 456.784819 207.9977 
L 456.684063 204.17408 
L 456.879799 200.22488 
L 456.720242 196.341875 
L 456.046043 192.597382 
L 455.599831 188.748305 
L 454.907754 184.960063 
L 453.997082 181.233354 
L 453.268646 177.408372 
L 452.219357 173.694758 
L 450.97242 170.052055 
L 449.573827 166.467421 
L 447.89123 163.01518 
L 445.991926 159.675472 
L 438.959464 150.473955 
L 436.209968 147.69911 
L 433.634676 144.84698 
L 430.976753 142.076118 
L 427.668821 139.788268 
L 424.804427 137.238461 
L 421.608008 134.97463 
L 417.820289 133.225501 
L 414.466996 131.210272 
L 410.607633 129.680641 
L 406.16111 128.752681 
L 402.408801 127.328673 
L 398.009499 126.595606 
L 393.211445 126.37947 
L 389.126402 125.613286 
L 379.243748 126.274628 
L 375.090227 126.014507 
L 370.065431 126.894255 
L 366.095768 126.73161 
L 362.700824 125.99386 
L 360.142649 124.27372 
L 358.226615 121.714157 
L 356.9475 118.225039 
L 356.562649 113.332753 
L 355.349711 109.431786 
L 354.340401 105.053464 
L 353.58026 100.070731 
L 348.353905 88.769924 
L 346.070833 85.661853 
L 343.839887 82.322897 
L 341.462113 79.128744 
L 338.743133 76.515288 
L 336.146393 73.522622 
L 333.361717 70.822831 
L 330.34483 68.567602 
L 327.357581 66.141573 
L 324.157213 64.179196 
L 317.483091 60.834669 
L 314.005645 59.525284 
L 310.473892 58.375476 
L 306.85495 57.533288 
L 303.211945 56.805382 
L 299.50393 56.386224 
L 295.734078 56.329455 
L 292.015571 56.141765 
L 280.801306 56.722266 
L 273.385644 57.757575 
L 269.742324 58.092663 
L 266.102817 58.699138 
L 258.925387 59.517123 
L 241.318783 62.494331 
L 237.827948 62.785766 
L 234.319226 62.853852 
L 230.787845 62.785818 
L 227.217173 62.522882 
L 223.519078 61.527877 
L 219.824112 60.887317 
L 216.029937 59.927474 
L 212.149718 58.818417 
L 208.332296 58.311864 
L 204.415198 57.573602 
L 200.490553 57.035994 
L 196.696101 57.182666 
L 192.834022 57.199918 
L 189.030381 57.533422 
L 181.557563 58.852994 
L 177.927043 59.891088 
L 174.37642 61.163251 
L 170.905975 62.64176 
L 167.52263 64.31914 
L 164.255765 66.239082 
L 158.093006 70.743246 
L 155.151637 73.189936 
L 152.447554 76.020096 
L 149.609413 78.519897 
L 144.324645 84.010713 
L 141.60109 86.52606 
L 139.0172 89.212258 
L 131.160285 96.839896 
L 126.219953 102.153258 
L 123.963666 105.024677 
L 121.627522 107.756855 
L 119.432727 110.620175 
L 117.639267 113.891609 
L 115.64238 116.881888 
L 113.987989 120.185373 
L 112.697442 123.792129 
L 111.080122 127.003853 
L 109.914697 130.58602 
L 108.924204 134.250984 
L 107.476631 137.439238 
L 106.434233 140.921946 
L 105.297812 144.263835 
L 104.039359 147.456343 
L 103.265055 150.971123 
L 102.630976 154.5232 
L 101.802668 157.87217 
L 103.45521 170.207015 
L 105.493504 174.993856 
L 105.646671 178.522533 
L 105.224071 181.656351 
L 103.923589 184.277942 
L 102.115482 186.637652 
L 99.937012 188.837685 
L 97.930988 191.156397 
L 95.436786 196.53539 
L 94.778874 199.467444 
L 93.840676 202.273647 
L 93.25304 205.202624 
L 92.940018 208.209562 
L 92.173829 211.04419 
L 91.871385 214.015224 
L 91.71107 217.005974 
L 91.439257 219.942627 
L 91.835077 225.981181 
L 91.671326 228.876005 
L 92.465228 237.677475 
L 93.842016 240.714478 
L 95.47302 243.719885 
L 97.817737 246.730635 
L 102.263924 249.832508 
L 106.106175 252.727709 
L 111.245525 255.54986 
L 118.730604 258.269516 
L 123.634198 260.679652 
L 129.634264 262.917188 
L 131.839127 265.011505 
L 131.285017 267.126449 
L 128.420793 269.384397 
L 124.280463 271.835796 
L 121.252715 274.340563 
L 116.099913 277.182206 
L 111.63437 280.130125 
L 107.723939 283.16892 
L 101.274614 286.76163 
L 97.240982 290.17408 
L 93.693431 293.654365 
L 89.397261 297.441738 
L 87.077143 300.95165 
L 85.187361 304.463994 
L 83.70053 307.965334 
L 82.569139 314.663133 
L 81.989706 318.099207 
L 81.773295 321.469824 
L 80.835392 325.151405 
L 79.672228 328.999485 
L 79.233054 332.64785 
L 77.779365 336.794115 
L 76.766049 340.857341 
L 76.641208 344.605566 
L 75.961246 348.690452 
L 76.172021 352.415577 
L 76.829755 355.962481 
L 77.319962 359.645524 
L 78.409706 363.037111 
L 80.829452 369.765503 
L 83.723945 376.301095 
L 84.832796 379.844637 
L 86.231155 383.226342 
L 87.548489 386.706534 
L 88.719168 390.347476 
L 93.27024 400.744564 
L 97.054987 407.240229 
L 98.919691 410.573714 
L 103.283433 416.733894 
L 105.701709 419.612551 
L 108.325665 422.286568 
L 119.297415 432.541561 
L 127.511286 440.452 
L 133.283934 445.450572 
L 136.290699 447.806717 
L 142.71424 451.898238 
L 146.096072 453.652713 
L 149.552549 455.258991 
L 153.083861 456.702677 
L 160.343504 459.094528 
L 167.775901 460.918566 
L 171.445033 461.858399 
L 182.677442 463.729017 
L 186.482396 464.01335 
L 193.876249 464.999781 
L 197.607629 465.249841 
L 204.816669 466.521811 
L 211.871021 468.449727 
L 215.385353 469.562518 
L 218.880412 470.905344 
L 222.435937 472.013448 
L 225.969573 473.472384 
L 229.5538 474.789719 
L 233.200642 475.765993 
L 236.835307 477.244039 
L 240.534007 478.31446 
L 244.274417 479.066006 
L 248.030764 480.145608 
L 248.030764 480.145608 
" clip-path="url(#pb0cbf9ec84)" style="fill: none; stroke: #ff0000; stroke-width: 1.5; stroke-linecap: square"/>
   </g>
   <g id="line2d_16">
    <path d="M 251.8225 55.08911 
L 244.501389 53.267987 
L 237.062291 51.836361 
L 229.52986 50.816881 
L 221.92991 50.220357 
L 214.28911 50.054755 
L 206.633993 50.321978 
L 198.990792 51.020782 
L 191.385268 52.147511 
L 183.842523 53.69633 
L 176.386991 55.659829 
L 169.042582 58.0297 
L 161.832159 60.795572 
L 154.778669 63.947847 
L 147.903593 67.474149 
L 141.228355 71.362509 
L 134.77338 75.599438 
L 128.558698 80.171086 
L 122.603513 85.06251 
L 116.926406 90.258061 
L 111.545347 95.741386 
L 106.477836 101.495585 
L 101.740488 107.502715 
L 97.34959 113.744433 
L 93.32083 120.201643 
L 89.670771 126.855732 
L 87.989169 130.247572 
L 84.932512 137.156561 
L 83.560197 140.667469 
L 81.133773 147.786187 
L 80.081866 151.387516 
L 78.320294 158.666545 
L 77.616324 162.339205 
L 77.025161 166.02544 
L 76.558855 169.727854 
L 76.218225 173.44234 
L 76.00397 177.164761 
L 75.920582 180.892776 
L 75.972558 184.623749 
L 76.164382 188.35474 
L 76.500516 192.082508 
L 76.985387 195.803508 
L 77.627432 199.515368 
L 78.435128 203.215127 
L 79.416961 206.899232 
L 80.577276 210.562269 
L 81.936907 214.203278 
L 83.508523 217.817593 
L 85.304764 221.399653 
L 87.342409 224.943966 
L 89.705824 228.458224 
L 92.352984 231.919454 
L 95.368489 235.330124 
L 98.79484 238.679987 
L 102.717204 241.961805 
L 107.263771 245.167607 
L 112.605928 248.284936 
L 119.001267 251.296835 
L 126.836762 254.177333 
L 136.930749 256.895966 
L 150.965259 259.395175 
L 173.732226 261.554117 
L 241.2625 262.917188 
L 188.552082 264.021577 
L 158.263834 266.184328 
L 141.807144 268.682848 
L 130.457825 271.403832 
L 121.885531 274.285199 
L 114.969632 277.301003 
L 109.279651 280.419249 
L 104.428908 283.632006 
L 100.28868 286.917787 
L 96.687745 290.27163 
L 93.498302 293.692294 
L 90.762545 297.151538 
L 88.310838 300.666829 
L 86.143354 304.225638 
L 84.259855 307.815463 
L 82.630611 311.432181 
L 81.201283 315.081328 
L 79.980006 318.752198 
L 78.945863 322.443387 
L 78.086293 326.151996 
L 77.40092 329.871359 
L 76.873135 333.601319 
L 76.494538 337.339492 
L 76.268637 341.078803 
L 76.182984 344.819239 
L 76.233124 348.557848 
L 76.418442 352.290019 
L 76.730552 356.015228 
L 77.172561 359.727229 
L 77.73608 363.426029 
L 78.420304 367.107738 
L 79.220655 370.77079 
L 80.139852 374.409202 
L 81.169598 378.024023 
L 82.312447 381.609404 
L 84.918708 388.688216 
L 87.948869 395.619437 
L 91.378664 402.388886 
L 95.198245 408.971668 
L 99.390776 415.348911 
L 103.940799 421.500897 
L 108.831668 427.409323 
L 114.047037 433.055715 
L 119.569654 438.422642 
L 125.381916 443.493055 
L 131.46487 448.251685 
L 137.800175 452.682204 
L 144.367475 456.771185 
L 151.147529 460.502944 
L 158.117284 463.868671 
L 165.257375 466.851841 
L 172.544246 469.444099 
L 179.955264 471.634795 
L 187.466886 473.414916 
L 195.054904 474.776741 
L 202.694511 475.713887 
L 210.360206 476.2222 
L 218.02608 476.299386 
L 225.665809 475.94634 
L 233.252956 475.168047 
L 240.761524 473.973174 
L 248.166213 472.385706 
L 255.444547 470.424127 
L 262.577933 468.143077 
L 269.55401 465.589276 
L 276.371477 462.852558 
L 296.085108 454.639608 
L 302.565737 452.293526 
L 309.102271 450.270877 
L 315.746616 448.5663 
L 322.525883 447.105799 
L 343.563268 442.968583 
L 350.687752 441.274824 
L 357.789113 439.275248 
L 364.820792 436.919298 
L 371.741626 434.179448 
L 378.514153 431.042689 
L 381.833443 429.323606 
L 388.317275 425.585326 
L 391.472806 423.566488 
L 394.566093 421.450008 
L 397.59435 419.238359 
L 400.553685 416.932838 
L 403.440509 414.535197 
L 406.251269 412.047316 
L 408.983076 409.471796 
L 411.63248 406.81074 
L 414.196722 404.066946 
L 416.671808 401.242181 
L 419.055432 398.339745 
L 421.343694 395.36166 
L 423.534098 392.311158 
L 425.622845 389.19053 
L 427.606874 386.002732 
L 429.483553 382.751081 
L 431.248529 379.437813 
L 432.89856 376.066068 
L 434.429361 372.638459 
L 435.841169 369.160415 
L 437.123093 365.630983 
L 438.276994 362.056801 
L 439.297314 358.440376 
L 440.178496 354.784545 
L 440.911079 351.09064 
L 441.497353 347.365873 
L 441.92796 343.612168 
L 442.197485 339.833674 
L 442.29251 336.031774 
L 442.215735 332.214658 
L 441.945656 328.38184 
L 441.481045 324.540984 
L 440.804393 320.69475 
L 439.89809 316.846995 
L 438.752833 313.005019 
L 437.338513 309.171525 
L 435.637487 305.354221 
L 433.615325 301.558445 
L 431.224805 297.789463 
L 428.422832 294.056591 
L 425.136503 290.367429 
L 421.254288 286.729272 
L 416.668698 283.157756 
L 411.195019 279.667914 
L 404.489194 276.273792 
L 396.03436 273.001463 
L 384.795751 269.88602 
L 368.442937 266.989663 
L 339.072569 264.440143 
L 306.071005 262.917188 
L 354.84297 261.118959 
L 376.648435 258.55817 
L 390.276301 255.661131 
L 400.12961 252.546544 
L 407.760896 249.274346 
L 413.902534 245.881889 
L 418.984815 242.392236 
L 423.26554 238.822439 
L 426.890698 235.189109 
L 429.980405 231.503142 
L 432.624639 227.772812 
L 434.874937 224.008191 
L 436.78276 220.215747 
L 438.382559 216.402541 
L 439.704521 212.574352 
L 440.774566 208.736054 
L 441.606097 204.894519 
L 442.216703 201.054361 
L 442.623913 197.218993 
L 442.841084 193.392109 
L 442.869414 189.581148 
L 442.726363 185.78702 
L 442.417229 182.014525 
L 441.943445 178.269889 
L 441.322306 174.551977 
L 440.551357 170.867974 
L 439.636142 167.221357 
L 438.586049 163.613247 
L 437.402776 160.048361 
L 436.088165 156.531356 
L 434.652348 153.061932 
L 433.094254 149.646024 
L 431.418865 146.285945 
L 429.629721 142.984703 
L 427.73006 139.745388 
L 425.723181 136.570947 
L 423.61244 133.464183 
L 421.401243 130.427753 
L 419.092373 127.464715 
L 416.689353 124.577472 
L 414.194765 121.769131 
L 411.611927 119.042141 
L 408.944519 116.398534 
L 406.194694 113.841692 
L 403.366563 111.373125 
L 400.462729 108.995725 
L 397.487075 106.711055 
L 394.442335 104.521814 
L 391.333889 102.427693 
L 388.161724 100.434427 
L 384.932674 98.539813 
L 378.313904 95.057425 
L 371.511116 91.984129 
L 364.5619 89.313735 
L 357.502005 87.036955 
L 350.37769 85.118919 
L 343.231718 83.516496 
L 336.118788 82.143215 
L 318.765553 78.992662 
L 312.073547 77.483533 
L 305.518849 75.655765 
L 299.057442 73.468183 
L 292.627231 70.946023 
L 282.891384 66.755973 
L 272.891032 62.463495 
L 266.029567 59.746659 
L 259.00396 57.267088 
L 255.431877 56.136118 
L 255.431877 56.136118 
" clip-path="url(#pb0cbf9ec84)" style="fill: none; stroke-dasharray: 5.55,2.4; stroke-dashoffset: 0; stroke: #0000ff; stroke-width: 1.5"/>
   </g>
   <g id="patch_3">
    <path d="M 251.8225 41.157188 
C 222.701244 41.157188 193.863155 46.89344 166.958622 58.037662 
C 140.054089 69.181885 115.606338 85.51735 95.0145 106.109188 
C 74.422662 126.701026 58.087197 151.148777 46.942975 178.05331 
C 35.798753 204.957842 30.0625 233.795931 30.0625 262.917188 
C 30.0625 292.038444 35.798753 320.876533 46.942975 347.781065 
C 58.087197 374.685598 74.422662 399.133349 95.0145 419.725187 
C 115.606338 440.317025 140.054089 456.65249 166.958622 467.796713 
C 193.863155 478.940935 222.701244 484.677188 251.8225 484.677188 
C 280.943756 484.677188 309.781845 478.940935 336.686378 467.796713 
C 363.590911 456.65249 388.038662 440.317025 408.6305 419.725187 
C 429.222338 399.133349 445.557803 374.685598 456.702025 347.781065 
C 467.846247 320.876533 473.5825 292.038444 473.5825 262.917188 
C 473.5825 233.795931 467.846247 204.957842 456.702025 178.05331 
C 445.557803 151.148777 429.222338 126.701026 408.6305 106.109188 
C 388.038662 85.51735 363.590911 69.181885 336.686378 58.037662 
C 309.781845 46.89344 280.943756 41.157188 251.8225 41.157188 
" style="fill: none; stroke: #000000; stroke-width: 0.8; stroke-linejoin: miter; stroke-linecap: square"/>
   </g>
   <g id="text_15">
    <g id="patch_4">
     <path d="M 384.8785 509.853188 
L 485.369125 509.853188 
Q 488.369125 509.853188 488.369125 506.853188 
L 488.369125 473.945063 
Q 488.369125 470.945063 485.369125 470.945063 
L 384.8785 470.945063 
Q 381.8785 470.945063 381.8785 473.945063 
L 381.8785 506.853188 
Q 381.8785 509.853188 384.8785 509.853188 
z
" style="fill: #ffffff; stroke: #808080; stroke-linejoin: miter"/>
    </g>
    <!-- G_cst: 1.0 dBi -->
    <g transform="translate(384.8785 481.821625)scale(0.1 -0.1)">
     <defs>
      <path id="DejaVuSans-47" d="M 3809 666 
L 3809 1919 
L 2778 1919 
L 2778 2438 
L 4434 2438 
L 4434 434 
Q 4069 175 3628 42 
Q 3188 -91 2688 -91 
Q 1594 -91 976 548 
Q 359 1188 359 2328 
Q 359 3472 976 4111 
Q 1594 4750 2688 4750 
Q 3144 4750 3555 4637 
Q 3966 4525 4313 4306 
L 4313 3634 
Q 3963 3931 3569 4081 
Q 3175 4231 2741 4231 
Q 1884 4231 1454 3753 
Q 1025 3275 1025 2328 
Q 1025 1384 1454 906 
Q 1884 428 2741 428 
Q 3075 428 3337 486 
Q 3600 544 3809 666 
z
" transform="scale(0.015625)"/>
      <path id="DejaVuSans-5f" d="M 3263 -1063 
L 3263 -1509 
L -63 -1509 
L -63 -1063 
L 3263 -1063 
z
" transform="scale(0.015625)"/>
      <path id="DejaVuSans-63" d="M 3122 3366 
L 3122 2828 
Q 2878 2963 2633 3030 
Q 2388 3097 2138 3097 
Q 1578 3097 1268 2742 
Q 959 2388 959 1747 
Q 959 1106 1268 751 
Q 1578 397 2138 397 
Q 2388 397 2633 464 
Q 2878 531 3122 666 
L 3122 134 
Q 2881 22 2623 -34 
Q 2366 -91 2075 -91 
Q 1284 -91 818 406 
Q 353 903 353 1747 
Q 353 2603 823 3093 
Q 1294 3584 2113 3584 
Q 2378 3584 2631 3529 
Q 2884 3475 3122 3366 
z
" transform="scale(0.015625)"/>
      <path id="DejaVuSans-73" d="M 2834 3397 
L 2834 2853 
Q 2591 2978 2328 3040 
Q 2066 3103 1784 3103 
Q 1356 3103 1142 2972 
Q 928 2841 928 2578 
Q 928 2378 1081 2264 
Q 1234 2150 1697 2047 
L 1894 2003 
Q 2506 1872 2764 1633 
Q 3022 1394 3022 966 
Q 3022 478 2636 193 
Q 2250 -91 1575 -91 
Q 1294 -91 989 -36 
Q 684 19 347 128 
L 347 722 
Q 666 556 975 473 
Q 1284 391 1588 391 
Q 1994 391 2212 530 
Q 2431 669 2431 922 
Q 2431 1156 2273 1281 
Q 2116 1406 1581 1522 
L 1381 1569 
Q 847 1681 609 1914 
Q 372 2147 372 2553 
Q 372 3047 722 3315 
Q 1072 3584 1716 3584 
Q 2034 3584 2315 3537 
Q 2597 3491 2834 3397 
z
" transform="scale(0.015625)"/>
      <path id="DejaVuSans-74" d="M 1172 4494 
L 1172 3500 
L 2356 3500 
L 2356 3053 
L 1172 3053 
L 1172 1153 
Q 1172 725 1289 603 
Q 1406 481 1766 481 
L 2356 481 
L 2356 0 
L 1766 0 
Q 1100 0 847 248 
Q 594 497 594 1153 
L 594 3053 
L 172 3053 
L 172 3500 
L 594 3500 
L 594 4494 
L 1172 4494 
z
" transform="scale(0.015625)"/>
      <path id="DejaVuSans-3a" d="M 750 794 
L 1409 794 
L 1409 0 
L 750 0 
L 750 794 
z
M 750 3309 
L 1409 3309 
L 1409 2516 
L 750 2516 
L 750 3309 
z
" transform="scale(0.015625)"/>
      <path id="DejaVuSans-20" transform="scale(0.015625)"/>
      <path id="DejaVuSans-2e" d="M 684 794 
L 1344 794 
L 1344 0 
L 684 0 
L 684 794 
z
" transform="scale(0.015625)"/>
      <path id="DejaVuSans-64" d="M 2906 2969 
L 2906 4863 
L 3481 4863 
L 3481 0 
L 2906 0 
L 2906 525 
Q 2725 213 2448 61 
Q 2172 -91 1784 -91 
Q 1150 -91 751 415 
Q 353 922 353 1747 
Q 353 2572 751 3078 
Q 1150 3584 1784 3584 
Q 2172 3584 2448 3432 
Q 2725 3281 2906 2969 
z
M 947 1747 
Q 947 1113 1208 752 
Q 1469 391 1925 391 
Q 2381 391 2643 752 
Q 2906 1113 2906 1747 
Q 2906 2381 2643 2742 
Q 2381 3103 1925 3103 
Q 1469 3103 1208 2742 
Q 947 2381 947 1747 
z
" transform="scale(0.015625)"/>
      <path id="DejaVuSans-42" d="M 1259 2228 
L 1259 519 
L 2272 519 
Q 2781 519 3026 730 
Q 3272 941 3272 1375 
Q 3272 1813 3026 2020 
Q 2781 2228 2272 2228 
L 1259 2228 
z
M 1259 4147 
L 1259 2741 
L 2194 2741 
Q 2656 2741 2882 2914 
Q 3109 3088 3109 3444 
Q 3109 3797 2882 3972 
Q 2656 4147 2194 4147 
L 1259 4147 
z
M 628 4666 
L 2241 4666 
Q 2963 4666 3353 4366 
Q 3744 4066 3744 3513 
Q 3744 3084 3544 2831 
Q 3344 2578 2956 2516 
Q 3422 2416 3680 2098 
Q 3938 1781 3938 1306 
Q 3938 681 3513 340 
Q 3088 0 2303 0 
L 628 0 
L 628 4666 
z
" transform="scale(0.015625)"/>
      <path id="DejaVuSans-69" d="M 603 3500 
L 1178 3500 
L 1178 0 
L 603 0 
L 603 3500 
z
M 603 4863 
L 1178 4863 
L 1178 4134 
L 603 4134 
L 603 4863 
z
" transform="scale(0.015625)"/>
     </defs>
     <use xlink:href="#DejaVuSans-47"/>
     <use xlink:href="#DejaVuSans-5f" x="77.490234"/>
     <use xlink:href="#DejaVuSans-63" x="127.490234"/>
     <use xlink:href="#DejaVuSans-73" x="182.470703"/>
     <use xlink:href="#DejaVuSans-74" x="234.570312"/>
     <use xlink:href="#DejaVuSans-3a" x="273.779297"/>
     <use xlink:href="#DejaVuSans-20" x="307.470703"/>
     <use xlink:href="#DejaVuSans-31" x="339.257812"/>
     <use xlink:href="#DejaVuSans-2e" x="402.880859"/>
     <use xlink:href="#DejaVuSans-30" x="434.667969"/>
     <use xlink:href="#DejaVuSans-20" x="498.291016"/>
     <use xlink:href="#DejaVuSans-64" x="530.078125"/>
     <use xlink:href="#DejaVuSans-42" x="593.554688"/>
     <use xlink:href="#DejaVuSans-69" x="662.158203"/>
    </g>
    <!-- G_inpe: 0.1 dBi -->
    <g transform="translate(384.8785 493.297563)scale(0.1 -0.1)">
     <defs>
      <path id="DejaVuSans-6e" d="M 3513 2113 
L 3513 0 
L 2938 0 
L 2938 2094 
Q 2938 2591 2744 2837 
Q 2550 3084 2163 3084 
Q 1697 3084 1428 2787 
Q 1159 2491 1159 1978 
L 1159 0 
L 581 0 
L 581 3500 
L 1159 3500 
L 1159 2956 
Q 1366 3272 1645 3428 
Q 1925 3584 2291 3584 
Q 2894 3584 3203 3211 
Q 3513 2838 3513 2113 
z
" transform="scale(0.015625)"/>
      <path id="DejaVuSans-70" d="M 1159 525 
L 1159 -1331 
L 581 -1331 
L 581 3500 
L 1159 3500 
L 1159 2969 
Q 1341 3281 1617 3432 
Q 1894 3584 2278 3584 
Q 2916 3584 3314 3078 
Q 3713 2572 3713 1747 
Q 3713 922 3314 415 
Q 2916 -91 2278 -91 
Q 1894 -91 1617 61 
Q 1341 213 1159 525 
z
M 3116 1747 
Q 3116 2381 2855 2742 
Q 2594 3103 2138 3103 
Q 1681 3103 1420 2742 
Q 1159 2381 1159 1747 
Q 1159 1113 1420 752 
Q 1681 391 2138 391 
Q 2594 391 2855 752 
Q 3116 1113 3116 1747 
z
" transform="scale(0.015625)"/>
      <path id="DejaVuSans-65" d="M 3597 1894 
L 3597 1613 
L 953 1613 
Q 991 1019 1311 708 
Q 1631 397 2203 397 
Q 2534 397 2845 478 
Q 3156 559 3463 722 
L 3463 178 
Q 3153 47 2828 -22 
Q 2503 -91 2169 -91 
Q 1331 -91 842 396 
Q 353 884 353 1716 
Q 353 2575 817 3079 
Q 1281 3584 2069 3584 
Q 2775 3584 3186 3129 
Q 3597 2675 3597 1894 
z
M 3022 2063 
Q 3016 2534 2758 2815 
Q 2500 3097 2075 3097 
Q 1594 3097 1305 2825 
Q 1016 2553 972 2059 
L 3022 2063 
z
" transform="scale(0.015625)"/>
     </defs>
     <use xlink:href="#DejaVuSans-47"/>
     <use xlink:href="#DejaVuSans-5f" x="77.490234"/>
     <use xlink:href="#DejaVuSans-69" x="127.490234"/>
     <use xlink:href="#DejaVuSans-6e" x="155.273438"/>
     <use xlink:href="#DejaVuSans-70" x="218.652344"/>
     <use xlink:href="#DejaVuSans-65" x="282.128906"/>
     <use xlink:href="#DejaVuSans-3a" x="343.652344"/>
     <use xlink:href="#DejaVuSans-20" x="377.34375"/>
     <use xlink:href="#DejaVuSans-30" x="409.130859"/>
     <use xlink:href="#DejaVuSans-2e" x="472.753906"/>
     <use xlink:href="#DejaVuSans-31" x="504.541016"/>
     <use xlink:href="#DejaVuSans-20" x="568.164062"/>
     <use xlink:href="#DejaVuSans-64" x="599.951172"/>
     <use xlink:href="#DejaVuSans-42" x="663.427734"/>
     <use xlink:href="#DejaVuSans-69" x="732.03125"/>
    </g>
    <!-- Pearson Coef: 0.472 -->
    <g transform="translate(384.8785 504.7735)scale(0.1 -0.1)">
     <defs>
      <path id="DejaVuSans-50" d="M 1259 4147 
L 1259 2394 
L 2053 2394 
Q 2494 2394 2734 2622 
Q 2975 2850 2975 3272 
Q 2975 3691 2734 3919 
Q 2494 4147 2053 4147 
L 1259 4147 
z
M 628 4666 
L 2053 4666 
Q 2838 4666 3239 4311 
Q 3641 3956 3641 3272 
Q 3641 2581 3239 2228 
Q 2838 1875 2053 1875 
L 1259 1875 
L 1259 0 
L 628 0 
L 628 4666 
z
" transform="scale(0.015625)"/>
      <path id="DejaVuSans-61" d="M 2194 1759 
Q 1497 1759 1228 1600 
Q 959 1441 959 1056 
Q 959 750 1161 570 
Q 1363 391 1709 391 
Q 2188 391 2477 730 
Q 2766 1069 2766 1631 
L 2766 1759 
L 2194 1759 
z
M 3341 1997 
L 3341 0 
L 2766 0 
L 2766 531 
Q 2569 213 2275 61 
Q 1981 -91 1556 -91 
Q 1019 -91 701 211 
Q 384 513 384 1019 
Q 384 1609 779 1909 
Q 1175 2209 1959 2209 
L 2766 2209 
L 2766 2266 
Q 2766 2663 2505 2880 
Q 2244 3097 1772 3097 
Q 1472 3097 1187 3025 
Q 903 2953 641 2809 
L 641 3341 
Q 956 3463 1253 3523 
Q 1550 3584 1831 3584 
Q 2591 3584 2966 3190 
Q 3341 2797 3341 1997 
z
" transform="scale(0.015625)"/>
      <path id="DejaVuSans-72" d="M 2631 2963 
Q 2534 3019 2420 3045 
Q 2306 3072 2169 3072 
Q 1681 3072 1420 2755 
Q 1159 2438 1159 1844 
L 1159 0 
L 581 0 
L 581 3500 
L 1159 3500 
L 1159 2956 
Q 1341 3275 1631 3429 
Q 1922 3584 2338 3584 
Q 2397 3584 2469 3576 
Q 2541 3569 2628 3553 
L 2631 2963 
z
" transform="scale(0.015625)"/>
      <path id="DejaVuSans-6f" d="M 1959 3097 
Q 1497 3097 1228 2736 
Q 959 2375 959 1747 
Q 959 1119 1226 758 
Q 1494 397 1959 397 
Q 2419 397 2687 759 
Q 2956 1122 2956 1747 
Q 2956 2369 2687 2733 
Q 2419 3097 1959 3097 
z
M 1959 3584 
Q 2709 3584 3137 3096 
Q 3566 2609 3566 1747 
Q 3566 888 3137 398 
Q 2709 -91 1959 -91 
Q 1206 -91 779 398 
Q 353 888 353 1747 
Q 353 2609 779 3096 
Q 1206 3584 1959 3584 
z
" transform="scale(0.015625)"/>
      <path id="DejaVuSans-43" d="M 4122 4306 
L 4122 3641 
Q 3803 3938 3442 4084 
Q 3081 4231 2675 4231 
Q 1875 4231 1450 3742 
Q 1025 3253 1025 2328 
Q 1025 1406 1450 917 
Q 1875 428 2675 428 
Q 3081 428 3442 575 
Q 3803 722 4122 1019 
L 4122 359 
Q 3791 134 3420 21 
Q 3050 -91 2638 -91 
Q 1578 -91 968 557 
Q 359 1206 359 2328 
Q 359 3453 968 4101 
Q 1578 4750 2638 4750 
Q 3056 4750 3426 4639 
Q 3797 4528 4122 4306 
z
" transform="scale(0.015625)"/>
      <path id="DejaVuSans-66" d="M 2375 4863 
L 2375 4384 
L 1825 4384 
Q 1516 4384 1395 4259 
Q 1275 4134 1275 3809 
L 1275 3500 
L 2222 3500 
L 2222 3053 
L 1275 3053 
L 1275 0 
L 697 0 
L 697 3053 
L 147 3053 
L 147 3500 
L 697 3500 
L 697 3744 
Q 697 4328 969 4595 
Q 1241 4863 1831 4863 
L 2375 4863 
z
" transform="scale(0.015625)"/>
     </defs>
     <use xlink:href="#DejaVuSans-50"/>
     <use xlink:href="#DejaVuSans-65" x="56.677734"/>
     <use xlink:href="#DejaVuSans-61" x="118.201172"/>
     <use xlink:href="#DejaVuSans-72" x="179.480469"/>
     <use xlink:href="#DejaVuSans-73" x="220.59375"/>
     <use xlink:href="#DejaVuSans-6f" x="272.693359"/>
     <use xlink:href="#DejaVuSans-6e" x="333.875"/>
     <use xlink:href="#DejaVuSans-20" x="397.253906"/>
     <use xlink:href="#DejaVuSans-43" x="429.041016"/>
     <use xlink:href="#DejaVuSans-6f" x="498.865234"/>
     <use xlink:href="#DejaVuSans-65" x="560.046875"/>
     <use xlink:href="#DejaVuSans-66" x="621.570312"/>
     <use xlink:href="#DejaVuSans-3a" x="653.150391"/>
     <use xlink:href="#DejaVuSans-20" x="686.841797"/>
     <use xlink:href="#DejaVuSans-30" x="718.628906"/>
     <use xlink:href="#DejaVuSans-2e" x="782.251953"/>
     <use xlink:href="#DejaVuSans-34" x="814.039062"/>
     <use xlink:href="#DejaVuSans-37" x="877.662109"/>
     <use xlink:href="#DejaVuSans-32" x="941.285156"/>
    </g>
   </g>
   <g id="text_16">
    <g id="patch_5">
     <path d="M 52.2385 56.370938 
L 133.30975 56.370938 
Q 136.90975 56.370938 136.90975 52.770938 
L 136.90975 41.157188 
Q 136.90975 37.557188 133.30975 37.557188 
L 52.2385 37.557188 
Q 48.6385 37.557188 48.6385 41.157188 
L 48.6385 52.770938 
Q 48.6385 56.370938 52.2385 56.370938 
z
" style="fill: #ffffff; stroke: #808080; stroke-linejoin: miter"/>
    </g>
    <!-- Freq: 7.5 GHz -->
    <g transform="translate(52.2385 50.275313)scale(0.12 -0.12)">
     <defs>
      <path id="DejaVuSans-46" d="M 628 4666 
L 3309 4666 
L 3309 4134 
L 1259 4134 
L 1259 2759 
L 3109 2759 
L 3109 2228 
L 1259 2228 
L 1259 0 
L 628 0 
L 628 4666 
z
" transform="scale(0.015625)"/>
      <path id="DejaVuSans-71" d="M 947 1747 
Q 947 1113 1208 752 
Q 1469 391 1925 391 
Q 2381 391 2643 752 
Q 2906 1113 2906 1747 
Q 2906 2381 2643 2742 
Q 2381 3103 1925 3103 
Q 1469 3103 1208 2742 
Q 947 2381 947 1747 
z
M 2906 525 
Q 2725 213 2448 61 
Q 2172 -91 1784 -91 
Q 1150 -91 751 415 
Q 353 922 353 1747 
Q 353 2572 751 3078 
Q 1150 3584 1784 3584 
Q 2172 3584 2448 3432 
Q 2725 3281 2906 2969 
L 2906 3500 
L 3481 3500 
L 3481 -1331 
L 2906 -1331 
L 2906 525 
z
" transform="scale(0.015625)"/>
      <path id="DejaVuSans-48" d="M 628 4666 
L 1259 4666 
L 1259 2753 
L 3553 2753 
L 3553 4666 
L 4184 4666 
L 4184 0 
L 3553 0 
L 3553 2222 
L 1259 2222 
L 1259 0 
L 628 0 
L 628 4666 
z
" transform="scale(0.015625)"/>
      <path id="DejaVuSans-7a" d="M 353 3500 
L 3084 3500 
L 3084 2975 
L 922 459 
L 3084 459 
L 3084 0 
L 275 0 
L 275 525 
L 2438 3041 
L 353 3041 
L 353 3500 
z
" transform="scale(0.015625)"/>
     </defs>
     <use xlink:href="#DejaVuSans-46"/>
     <use xlink:href="#DejaVuSans-72" x="50.269531"/>
     <use xlink:href="#DejaVuSans-65" x="89.132812"/>
     <use xlink:href="#DejaVuSans-71" x="150.65625"/>
     <use xlink:href="#DejaVuSans-3a" x="214.132812"/>
     <use xlink:href="#DejaVuSans-20" x="247.824219"/>
     <use xlink:href="#DejaVuSans-37" x="279.611328"/>
     <use xlink:href="#DejaVuSans-2e" x="343.234375"/>
     <use xlink:href="#DejaVuSans-35" x="375.021484"/>
     <use xlink:href="#DejaVuSans-20" x="438.644531"/>
     <use xlink:href="#DejaVuSans-47" x="470.431641"/>
     <use xlink:href="#DejaVuSans-48" x="547.921875"/>
     <use xlink:href="#DejaVuSans-7a" x="623.117188"/>
    </g>
   </g>
   <g id="text_17">
    <!-- Radiation Diagram - 2AVHF07 -->
    <g transform="translate(162.578125 16.318125)scale(0.12 -0.12)">
     <defs>
      <path id="DejaVuSans-52" d="M 2841 2188 
Q 3044 2119 3236 1894 
Q 3428 1669 3622 1275 
L 4263 0 
L 3584 0 
L 2988 1197 
Q 2756 1666 2539 1819 
Q 2322 1972 1947 1972 
L 1259 1972 
L 1259 0 
L 628 0 
L 628 4666 
L 2053 4666 
Q 2853 4666 3247 4331 
Q 3641 3997 3641 3322 
Q 3641 2881 3436 2590 
Q 3231 2300 2841 2188 
z
M 1259 4147 
L 1259 2491 
L 2053 2491 
Q 2509 2491 2742 2702 
Q 2975 2913 2975 3322 
Q 2975 3731 2742 3939 
Q 2509 4147 2053 4147 
L 1259 4147 
z
" transform="scale(0.015625)"/>
      <path id="DejaVuSans-44" d="M 1259 4147 
L 1259 519 
L 2022 519 
Q 2988 519 3436 956 
Q 3884 1394 3884 2338 
Q 3884 3275 3436 3711 
Q 2988 4147 2022 4147 
L 1259 4147 
z
M 628 4666 
L 1925 4666 
Q 3281 4666 3915 4102 
Q 4550 3538 4550 2338 
Q 4550 1131 3912 565 
Q 3275 0 1925 0 
L 628 0 
L 628 4666 
z
" transform="scale(0.015625)"/>
      <path id="DejaVuSans-67" d="M 2906 1791 
Q 2906 2416 2648 2759 
Q 2391 3103 1925 3103 
Q 1463 3103 1205 2759 
Q 947 2416 947 1791 
Q 947 1169 1205 825 
Q 1463 481 1925 481 
Q 2391 481 2648 825 
Q 2906 1169 2906 1791 
z
M 3481 434 
Q 3481 -459 3084 -895 
Q 2688 -1331 1869 -1331 
Q 1566 -1331 1297 -1286 
Q 1028 -1241 775 -1147 
L 775 -588 
Q 1028 -725 1275 -790 
Q 1522 -856 1778 -856 
Q 2344 -856 2625 -561 
Q 2906 -266 2906 331 
L 2906 616 
Q 2728 306 2450 153 
Q 2172 0 1784 0 
Q 1141 0 747 490 
Q 353 981 353 1791 
Q 353 2603 747 3093 
Q 1141 3584 1784 3584 
Q 2172 3584 2450 3431 
Q 2728 3278 2906 2969 
L 2906 3500 
L 3481 3500 
L 3481 434 
z
" transform="scale(0.015625)"/>
      <path id="DejaVuSans-6d" d="M 3328 2828 
Q 3544 3216 3844 3400 
Q 4144 3584 4550 3584 
Q 5097 3584 5394 3201 
Q 5691 2819 5691 2113 
L 5691 0 
L 5113 0 
L 5113 2094 
Q 5113 2597 4934 2840 
Q 4756 3084 4391 3084 
Q 3944 3084 3684 2787 
Q 3425 2491 3425 1978 
L 3425 0 
L 2847 0 
L 2847 2094 
Q 2847 2600 2669 2842 
Q 2491 3084 2119 3084 
Q 1678 3084 1418 2786 
Q 1159 2488 1159 1978 
L 1159 0 
L 581 0 
L 581 3500 
L 1159 3500 
L 1159 2956 
Q 1356 3278 1631 3431 
Q 1906 3584 2284 3584 
Q 2666 3584 2933 3390 
Q 3200 3197 3328 2828 
z
" transform="scale(0.015625)"/>
      <path id="DejaVuSans-2d" d="M 313 2009 
L 1997 2009 
L 1997 1497 
L 313 1497 
L 313 2009 
z
" transform="scale(0.015625)"/>
      <path id="DejaVuSans-41" d="M 2188 4044 
L 1331 1722 
L 3047 1722 
L 2188 4044 
z
M 1831 4666 
L 2547 4666 
L 4325 0 
L 3669 0 
L 3244 1197 
L 1141 1197 
L 716 0 
L 50 0 
L 1831 4666 
z
" transform="scale(0.015625)"/>
      <path id="DejaVuSans-56" d="M 1831 0 
L 50 4666 
L 709 4666 
L 2188 738 
L 3669 4666 
L 4325 4666 
L 2547 0 
L 1831 0 
z
" transform="scale(0.015625)"/>
     </defs>
     <use xlink:href="#DejaVuSans-52"/>
     <use xlink:href="#DejaVuSans-61" x="67.232422"/>
     <use xlink:href="#DejaVuSans-64" x="128.511719"/>
     <use xlink:href="#DejaVuSans-69" x="191.988281"/>
     <use xlink:href="#DejaVuSans-61" x="219.771484"/>
     <use xlink:href="#DejaVuSans-74" x="281.050781"/>
     <use xlink:href="#DejaVuSans-69" x="320.259766"/>
     <use xlink:href="#DejaVuSans-6f" x="348.042969"/>
     <use xlink:href="#DejaVuSans-6e" x="409.224609"/>
     <use xlink:href="#DejaVuSans-20" x="472.603516"/>
     <use xlink:href="#DejaVuSans-44" x="504.390625"/>
     <use xlink:href="#DejaVuSans-69" x="581.392578"/>
     <use xlink:href="#DejaVuSans-61" x="609.175781"/>
     <use xlink:href="#DejaVuSans-67" x="670.455078"/>
     <use xlink:href="#DejaVuSans-72" x="733.931641"/>
     <use xlink:href="#DejaVuSans-61" x="775.044922"/>
     <use xlink:href="#DejaVuSans-6d" x="836.324219"/>
     <use xlink:href="#DejaVuSans-20" x="933.736328"/>
     <use xlink:href="#DejaVuSans-2d" x="965.523438"/>
     <use xlink:href="#DejaVuSans-20" x="1001.607422"/>
     <use xlink:href="#DejaVuSans-32" x="1033.394531"/>
     <use xlink:href="#DejaVuSans-41" x="1097.017578"/>
     <use xlink:href="#DejaVuSans-56" x="1159.050781"/>
     <use xlink:href="#DejaVuSans-48" x="1227.458984"/>
     <use xlink:href="#DejaVuSans-46" x="1302.654297"/>
     <use xlink:href="#DejaVuSans-30" x="1360.173828"/>
     <use xlink:href="#DejaVuSans-37" x="1423.796875"/>
    </g>
   </g>
   <g id="legend_1">
    <g id="patch_6">
     <path d="M 411.802813 78.513438 
L 466.5825 78.513438 
Q 468.5825 78.513438 468.5825 76.513438 
L 468.5825 48.157188 
Q 468.5825 46.157188 466.5825 46.157188 
L 411.802813 46.157188 
Q 409.802813 46.157188 409.802813 48.157188 
L 409.802813 76.513438 
Q 409.802813 78.513438 411.802813 78.513438 
z
" style="fill: #ffffff; opacity: 0.8; stroke: #cccccc; stroke-linejoin: miter"/>
    </g>
    <g id="line2d_17">
     <path d="M 413.802813 54.255625 
L 423.802813 54.255625 
L 433.802813 54.255625 
" style="fill: none; stroke: #ff0000; stroke-width: 1.5; stroke-linecap: square"/>
    </g>
    <g id="text_18">
     <!-- INPE -->
     <g transform="translate(441.802813 57.755625)scale(0.1 -0.1)">
      <defs>
       <path id="DejaVuSans-49" d="M 628 4666 
L 1259 4666 
L 1259 0 
L 628 0 
L 628 4666 
z
" transform="scale(0.015625)"/>
       <path id="DejaVuSans-4e" d="M 628 4666 
L 1478 4666 
L 3547 763 
L 3547 4666 
L 4159 4666 
L 4159 0 
L 3309 0 
L 1241 3903 
L 1241 0 
L 628 0 
L 628 4666 
z
" transform="scale(0.015625)"/>
       <path id="DejaVuSans-45" d="M 628 4666 
L 3578 4666 
L 3578 4134 
L 1259 4134 
L 1259 2753 
L 3481 2753 
L 3481 2222 
L 1259 2222 
L 1259 531 
L 3634 531 
L 3634 0 
L 628 0 
L 628 4666 
z
" transform="scale(0.015625)"/>
      </defs>
      <use xlink:href="#DejaVuSans-49"/>
      <use xlink:href="#DejaVuSans-4e" x="29.492188"/>
      <use xlink:href="#DejaVuSans-50" x="104.296875"/>
      <use xlink:href="#DejaVuSans-45" x="164.599609"/>
     </g>
    </g>
    <g id="line2d_18">
     <path d="M 413.802813 68.93375 
L 423.802813 68.93375 
L 433.802813 68.93375 
" style="fill: none; stroke-dasharray: 5.55,2.4; stroke-dashoffset: 0; stroke: #0000ff; stroke-width: 1.5"/>
    </g>
    <g id="text_19">
     <!-- CST -->
     <g transform="translate(441.802813 72.43375)scale(0.1 -0.1)">
      <defs>
       <path id="DejaVuSans-53" d="M 3425 4513 
L 3425 3897 
Q 3066 4069 2747 4153 
Q 2428 4238 2131 4238 
Q 1616 4238 1336 4038 
Q 1056 3838 1056 3469 
Q 1056 3159 1242 3001 
Q 1428 2844 1947 2747 
L 2328 2669 
Q 3034 2534 3370 2195 
Q 3706 1856 3706 1288 
Q 3706 609 3251 259 
Q 2797 -91 1919 -91 
Q 1588 -91 1214 -16 
Q 841 59 441 206 
L 441 856 
Q 825 641 1194 531 
Q 1563 422 1919 422 
Q 2459 422 2753 634 
Q 3047 847 3047 1241 
Q 3047 1584 2836 1778 
Q 2625 1972 2144 2069 
L 1759 2144 
Q 1053 2284 737 2584 
Q 422 2884 422 3419 
Q 422 4038 858 4394 
Q 1294 4750 2059 4750 
Q 2388 4750 2728 4690 
Q 3069 4631 3425 4513 
z
" transform="scale(0.015625)"/>
       <path id="DejaVuSans-54" d="M -19 4666 
L 3928 4666 
L 3928 4134 
L 2272 4134 
L 2272 0 
L 1638 0 
L 1638 4134 
L -19 4134 
L -19 4666 
z
" transform="scale(0.015625)"/>
      </defs>
      <use xlink:href="#DejaVuSans-43"/>
      <use xlink:href="#DejaVuSans-53" x="69.824219"/>
      <use xlink:href="#DejaVuSans-54" x="133.300781"/>
     </g>
    </g>
   </g>
  </g>
 </g>
 <defs>
  <clipPath id="pb0cbf9ec84">
   <path d="M 473.5825 262.917188 
C 473.5825 233.795931 467.846247 204.957842 456.702025 178.05331 
C 445.557803 151.148777 429.222338 126.701026 408.6305 106.109188 
C 388.038662 85.51735 363.590911 69.181885 336.686378 58.037662 
C 309.781845 46.89344 280.943756 41.157188 251.8225 41.157188 
C 222.701244 41.157188 193.863155 46.89344 166.958622 58.037662 
C 140.054089 69.181885 115.606338 85.51735 95.0145 106.109188 
C 74.422662 126.701026 58.087197 151.148777 46.942975 178.05331 
C 35.798753 204.957842 30.0625 233.795931 30.0625 262.917188 
C 30.0625 292.038444 35.798753 320.876533 46.942975 347.781065 
C 58.087197 374.685598 74.422662 399.133349 95.0145 419.725187 
C 115.606338 440.317025 140.054089 456.65249 166.958622 467.796713 
C 193.863155 478.940935 222.701244 484.677188 251.8225 484.677188 
C 280.943756 484.677188 309.781845 478.940935 336.686378 467.796713 
C 363.590911 456.65249 388.038662 440.317025 408.6305 419.725187 
C 429.222338 399.133349 445.557803 374.685598 456.702025 347.781065 
C 467.846247 320.876533 473.5825 292.038444 473.5825 262.917188 
M 251.8225 262.917188 
C 251.8225 262.917188 251.8225 262.917188 251.8225 262.917188 
C 251.8225 262.917188 251.8225 262.917188 251.8225 262.917188 
C 251.8225 262.917188 251.8225 262.917188 251.8225 262.917188 
C 251.8225 262.917188 251.8225 262.917188 251.8225 262.917188 
C 251.8225 262.917188 251.8225 262.917188 251.8225 262.917188 
C 251.8225 262.917188 251.8225 262.917188 251.8225 262.917188 
C 251.8225 262.917188 251.8225 262.917188 251.8225 262.917188 
C 251.8225 262.917188 251.8225 262.917188 251.8225 262.917188 
C 251.8225 262.917188 251.8225 262.917188 251.8225 262.917188 
C 251.8225 262.917188 251.8225 262.917188 251.8225 262.917188 
C 251.8225 262.917188 251.8225 262.917188 251.8225 262.917188 
C 251.8225 262.917188 251.8225 262.917188 251.8225 262.917188 
C 251.8225 262.917188 251.8225 262.917188 251.8225 262.917188 
C 251.8225 262.917188 251.8225 262.917188 251.8225 262.917188 
C 251.8225 262.917188 251.8225 262.917188 251.8225 262.917188 
C 251.8225 262.917188 251.8225 262.917188 251.8225 262.917188 
M 473.5825 262.917188 
z
"/>
  </clipPath>
 </defs>
</svg>
