<?xml version="1.0" encoding="utf-8" standalone="no"?>
<!DOCTYPE svg PUBLIC "-//W3C//DTD SVG 1.1//EN"
  "http://www.w3.org/Graphics/SVG/1.1/DTD/svg11.dtd">
<svg xmlns:xlink="http://www.w3.org/1999/xlink" width="392.765pt" height="399.83625pt" viewBox="0 0 392.765 399.83625" xmlns="http://www.w3.org/2000/svg" version="1.1">
 <metadata>
  <rdf:RDF xmlns:dc="http://purl.org/dc/elements/1.1/" xmlns:cc="http://creativecommons.org/ns#" xmlns:rdf="http://www.w3.org/1999/02/22-rdf-syntax-ns#">
   <cc:Work>
    <dc:type rdf:resource="http://purl.org/dc/dcmitype/StillImage"/>
    <dc:date>2023-10-31T22:40:57.502356</dc:date>
    <dc:format>image/svg+xml</dc:format>
    <dc:creator>
     <cc:Agent>
      <dc:title>Matplotlib v3.5.1, https://matplotlib.org/</dc:title>
     </cc:Agent>
    </dc:creator>
   </cc:Work>
  </rdf:RDF>
 </metadata>
 <defs>
  <style type="text/css">*{stroke-linejoin: round; stroke-linecap: butt}</style>
 </defs>
 <g id="figure_1">
  <g id="patch_1">
   <path d="M 0 399.83625 
L 392.765 399.83625 
L 392.765 0 
L 0 0 
z
" style="fill: #ffffff"/>
  </g>
  <g id="axes_1">
   <g id="patch_2">
    <path d="M 365.88375 207.477188 
C 365.88375 185.636245 361.581561 164.007679 353.223394 143.829279 
C 344.865227 123.650879 332.613628 105.315066 317.16975 89.871188 
C 301.725871 74.427309 283.390058 62.17571 263.211658 53.817544 
C 243.033259 45.459377 221.404692 41.157188 199.56375 41.157188 
C 177.722808 41.157188 156.094241 45.459377 135.915842 53.817544 
C 115.737442 62.17571 97.401629 74.427309 81.95775 89.871188 
C 66.513872 105.315066 54.262273 123.650879 45.904106 143.829279 
C 37.545939 164.007679 33.24375 185.636245 33.24375 207.477188 
C 33.24375 229.31813 37.545939 250.946696 45.904106 271.125096 
C 54.262273 291.303496 66.513872 309.639309 81.95775 325.083187 
C 97.401629 340.527066 115.737442 352.778665 135.915842 361.136831 
C 156.094241 369.494998 177.722808 373.797188 199.56375 373.797188 
C 221.404692 373.797188 243.033259 369.494998 263.211658 361.136831 
C 283.390058 352.778665 301.725871 340.527066 317.16975 325.083187 
C 332.613628 309.639309 344.865227 291.303496 353.223394 271.125096 
C 361.581561 250.946696 365.88375 229.31813 365.88375 207.477188 
M 199.56375 207.477188 
C 199.56375 207.477188 199.56375 207.477188 199.56375 207.477188 
C 199.56375 207.477188 199.56375 207.477188 199.56375 207.477188 
C 199.56375 207.477188 199.56375 207.477188 199.56375 207.477188 
C 199.56375 207.477188 199.56375 207.477188 199.56375 207.477188 
C 199.56375 207.477188 199.56375 207.477188 199.56375 207.477188 
C 199.56375 207.477188 199.56375 207.477188 199.56375 207.477188 
C 199.56375 207.477188 199.56375 207.477188 199.56375 207.477188 
C 199.56375 207.477188 199.56375 207.477188 199.56375 207.477188 
C 199.56375 207.477188 199.56375 207.477188 199.56375 207.477188 
C 199.56375 207.477188 199.56375 207.477188 199.56375 207.477188 
C 199.56375 207.477188 199.56375 207.477188 199.56375 207.477188 
C 199.56375 207.477188 199.56375 207.477188 199.56375 207.477188 
C 199.56375 207.477188 199.56375 207.477188 199.56375 207.477188 
C 199.56375 207.477188 199.56375 207.477188 199.56375 207.477188 
C 199.56375 207.477188 199.56375 207.477188 199.56375 207.477188 
C 199.56375 207.477188 199.56375 207.477188 199.56375 207.477188 
M 365.88375 207.477188 
z
" style="fill: #ffffff"/>
   </g>
   <g id="matplotlib.axis_1">
    <g id="xtick_1">
     <g id="line2d_1">
      <path d="M 199.56375 207.477188 
L 365.88375 207.477188 
" clip-path="url(#pf9432d0dd7)" style="fill: none; stroke: #b0b0b0; stroke-width: 0.8; stroke-linecap: square"/>
     </g>
     <g id="text_1">
      <!-- 0° -->
      <g transform="translate(374.2025 210.236563)scale(0.1 -0.1)">
       <defs>
        <path id="DejaVuSans-30" d="M 2034 4250 
Q 1547 4250 1301 3770 
Q 1056 3291 1056 2328 
Q 1056 1369 1301 889 
Q 1547 409 2034 409 
Q 2525 409 2770 889 
Q 3016 1369 3016 2328 
Q 3016 3291 2770 3770 
Q 2525 4250 2034 4250 
z
M 2034 4750 
Q 2819 4750 3233 4129 
Q 3647 3509 3647 2328 
Q 3647 1150 3233 529 
Q 2819 -91 2034 -91 
Q 1250 -91 836 529 
Q 422 1150 422 2328 
Q 422 3509 836 4129 
Q 1250 4750 2034 4750 
z
" transform="scale(0.015625)"/>
        <path id="DejaVuSans-b0" d="M 1600 4347 
Q 1350 4347 1178 4173 
Q 1006 4000 1006 3750 
Q 1006 3503 1178 3333 
Q 1350 3163 1600 3163 
Q 1850 3163 2022 3333 
Q 2194 3503 2194 3750 
Q 2194 3997 2020 4172 
Q 1847 4347 1600 4347 
z
M 1600 4750 
Q 1800 4750 1984 4673 
Q 2169 4597 2303 4453 
Q 2447 4313 2519 4134 
Q 2591 3956 2591 3750 
Q 2591 3338 2302 3052 
Q 2013 2766 1594 2766 
Q 1172 2766 890 3047 
Q 609 3328 609 3750 
Q 609 4169 896 4459 
Q 1184 4750 1600 4750 
z
" transform="scale(0.015625)"/>
       </defs>
       <use xlink:href="#DejaVuSans-30"/>
       <use xlink:href="#DejaVuSans-b0" x="63.623047"/>
      </g>
     </g>
    </g>
    <g id="xtick_2">
     <g id="line2d_2">
      <path d="M 199.56375 207.477188 
L 317.16975 89.871188 
" clip-path="url(#pf9432d0dd7)" style="fill: none; stroke: #b0b0b0; stroke-width: 0.8; stroke-linecap: square"/>
     </g>
     <g id="text_2">
      <!-- 45° -->
      <g transform="translate(318.206745 82.731068)scale(0.1 -0.1)">
       <defs>
        <path id="DejaVuSans-34" d="M 2419 4116 
L 825 1625 
L 2419 1625 
L 2419 4116 
z
M 2253 4666 
L 3047 4666 
L 3047 1625 
L 3713 1625 
L 3713 1100 
L 3047 1100 
L 3047 0 
L 2419 0 
L 2419 1100 
L 313 1100 
L 313 1709 
L 2253 4666 
z
" transform="scale(0.015625)"/>
        <path id="DejaVuSans-35" d="M 691 4666 
L 3169 4666 
L 3169 4134 
L 1269 4134 
L 1269 2991 
Q 1406 3038 1543 3061 
Q 1681 3084 1819 3084 
Q 2600 3084 3056 2656 
Q 3513 2228 3513 1497 
Q 3513 744 3044 326 
Q 2575 -91 1722 -91 
Q 1428 -91 1123 -41 
Q 819 9 494 109 
L 494 744 
Q 775 591 1075 516 
Q 1375 441 1709 441 
Q 2250 441 2565 725 
Q 2881 1009 2881 1497 
Q 2881 1984 2565 2268 
Q 2250 2553 1709 2553 
Q 1456 2553 1204 2497 
Q 953 2441 691 2322 
L 691 4666 
z
" transform="scale(0.015625)"/>
       </defs>
       <use xlink:href="#DejaVuSans-34"/>
       <use xlink:href="#DejaVuSans-35" x="63.623047"/>
       <use xlink:href="#DejaVuSans-b0" x="127.246094"/>
      </g>
     </g>
    </g>
    <g id="xtick_3">
     <g id="line2d_3">
      <path d="M 199.56375 207.477188 
L 199.56375 41.157187 
" clip-path="url(#pf9432d0dd7)" style="fill: none; stroke: #b0b0b0; stroke-width: 0.8; stroke-linecap: square"/>
     </g>
     <g id="text_3">
      <!-- 90° -->
      <g transform="translate(190.70125 29.916562)scale(0.1 -0.1)">
       <defs>
        <path id="DejaVuSans-39" d="M 703 97 
L 703 672 
Q 941 559 1184 500 
Q 1428 441 1663 441 
Q 2288 441 2617 861 
Q 2947 1281 2994 2138 
Q 2813 1869 2534 1725 
Q 2256 1581 1919 1581 
Q 1219 1581 811 2004 
Q 403 2428 403 3163 
Q 403 3881 828 4315 
Q 1253 4750 1959 4750 
Q 2769 4750 3195 4129 
Q 3622 3509 3622 2328 
Q 3622 1225 3098 567 
Q 2575 -91 1691 -91 
Q 1453 -91 1209 -44 
Q 966 3 703 97 
z
M 1959 2075 
Q 2384 2075 2632 2365 
Q 2881 2656 2881 3163 
Q 2881 3666 2632 3958 
Q 2384 4250 1959 4250 
Q 1534 4250 1286 3958 
Q 1038 3666 1038 3163 
Q 1038 2656 1286 2365 
Q 1534 2075 1959 2075 
z
" transform="scale(0.015625)"/>
       </defs>
       <use xlink:href="#DejaVuSans-39"/>
       <use xlink:href="#DejaVuSans-30" x="63.623047"/>
       <use xlink:href="#DejaVuSans-b0" x="127.246094"/>
      </g>
     </g>
    </g>
    <g id="xtick_4">
     <g id="line2d_4">
      <path d="M 199.56375 207.477188 
L 81.95775 89.871188 
" clip-path="url(#pf9432d0dd7)" style="fill: none; stroke: #b0b0b0; stroke-width: 0.8; stroke-linecap: square"/>
     </g>
     <g id="text_4">
      <!-- 135° -->
      <g transform="translate(60.014505 82.731068)scale(0.1 -0.1)">
       <defs>
        <path id="DejaVuSans-31" d="M 794 531 
L 1825 531 
L 1825 4091 
L 703 3866 
L 703 4441 
L 1819 4666 
L 2450 4666 
L 2450 531 
L 3481 531 
L 3481 0 
L 794 0 
L 794 531 
z
" transform="scale(0.015625)"/>
        <path id="DejaVuSans-33" d="M 2597 2516 
Q 3050 2419 3304 2112 
Q 3559 1806 3559 1356 
Q 3559 666 3084 287 
Q 2609 -91 1734 -91 
Q 1441 -91 1130 -33 
Q 819 25 488 141 
L 488 750 
Q 750 597 1062 519 
Q 1375 441 1716 441 
Q 2309 441 2620 675 
Q 2931 909 2931 1356 
Q 2931 1769 2642 2001 
Q 2353 2234 1838 2234 
L 1294 2234 
L 1294 2753 
L 1863 2753 
Q 2328 2753 2575 2939 
Q 2822 3125 2822 3475 
Q 2822 3834 2567 4026 
Q 2313 4219 1838 4219 
Q 1578 4219 1281 4162 
Q 984 4106 628 3988 
L 628 4550 
Q 988 4650 1302 4700 
Q 1616 4750 1894 4750 
Q 2613 4750 3031 4423 
Q 3450 4097 3450 3541 
Q 3450 3153 3228 2886 
Q 3006 2619 2597 2516 
z
" transform="scale(0.015625)"/>
       </defs>
       <use xlink:href="#DejaVuSans-31"/>
       <use xlink:href="#DejaVuSans-33" x="63.623047"/>
       <use xlink:href="#DejaVuSans-35" x="127.246094"/>
       <use xlink:href="#DejaVuSans-b0" x="190.869141"/>
      </g>
     </g>
    </g>
    <g id="xtick_5">
     <g id="line2d_5">
      <path d="M 199.56375 207.477188 
L 33.24375 207.477187 
" clip-path="url(#pf9432d0dd7)" style="fill: none; stroke: #b0b0b0; stroke-width: 0.8; stroke-linecap: square"/>
     </g>
     <g id="text_5">
      <!-- 180° -->
      <g transform="translate(7.2 210.236562)scale(0.1 -0.1)">
       <defs>
        <path id="DejaVuSans-38" d="M 2034 2216 
Q 1584 2216 1326 1975 
Q 1069 1734 1069 1313 
Q 1069 891 1326 650 
Q 1584 409 2034 409 
Q 2484 409 2743 651 
Q 3003 894 3003 1313 
Q 3003 1734 2745 1975 
Q 2488 2216 2034 2216 
z
M 1403 2484 
Q 997 2584 770 2862 
Q 544 3141 544 3541 
Q 544 4100 942 4425 
Q 1341 4750 2034 4750 
Q 2731 4750 3128 4425 
Q 3525 4100 3525 3541 
Q 3525 3141 3298 2862 
Q 3072 2584 2669 2484 
Q 3125 2378 3379 2068 
Q 3634 1759 3634 1313 
Q 3634 634 3220 271 
Q 2806 -91 2034 -91 
Q 1263 -91 848 271 
Q 434 634 434 1313 
Q 434 1759 690 2068 
Q 947 2378 1403 2484 
z
M 1172 3481 
Q 1172 3119 1398 2916 
Q 1625 2713 2034 2713 
Q 2441 2713 2670 2916 
Q 2900 3119 2900 3481 
Q 2900 3844 2670 4047 
Q 2441 4250 2034 4250 
Q 1625 4250 1398 4047 
Q 1172 3844 1172 3481 
z
" transform="scale(0.015625)"/>
       </defs>
       <use xlink:href="#DejaVuSans-31"/>
       <use xlink:href="#DejaVuSans-38" x="63.623047"/>
       <use xlink:href="#DejaVuSans-30" x="127.246094"/>
       <use xlink:href="#DejaVuSans-b0" x="190.869141"/>
      </g>
     </g>
    </g>
    <g id="xtick_6">
     <g id="line2d_6">
      <path d="M 199.56375 207.477188 
L 81.95775 325.083187 
" clip-path="url(#pf9432d0dd7)" style="fill: none; stroke: #b0b0b0; stroke-width: 0.8; stroke-linecap: square"/>
     </g>
     <g id="text_6">
      <!-- 225° -->
      <g transform="translate(60.014505 337.742057)scale(0.1 -0.1)">
       <defs>
        <path id="DejaVuSans-32" d="M 1228 531 
L 3431 531 
L 3431 0 
L 469 0 
L 469 531 
Q 828 903 1448 1529 
Q 2069 2156 2228 2338 
Q 2531 2678 2651 2914 
Q 2772 3150 2772 3378 
Q 2772 3750 2511 3984 
Q 2250 4219 1831 4219 
Q 1534 4219 1204 4116 
Q 875 4013 500 3803 
L 500 4441 
Q 881 4594 1212 4672 
Q 1544 4750 1819 4750 
Q 2544 4750 2975 4387 
Q 3406 4025 3406 3419 
Q 3406 3131 3298 2873 
Q 3191 2616 2906 2266 
Q 2828 2175 2409 1742 
Q 1991 1309 1228 531 
z
" transform="scale(0.015625)"/>
       </defs>
       <use xlink:href="#DejaVuSans-32"/>
       <use xlink:href="#DejaVuSans-32" x="63.623047"/>
       <use xlink:href="#DejaVuSans-35" x="127.246094"/>
       <use xlink:href="#DejaVuSans-b0" x="190.869141"/>
      </g>
     </g>
    </g>
    <g id="xtick_7">
     <g id="line2d_7">
      <path d="M 199.56375 207.477188 
L 199.56375 373.797188 
" clip-path="url(#pf9432d0dd7)" style="fill: none; stroke: #b0b0b0; stroke-width: 0.8; stroke-linecap: square"/>
     </g>
     <g id="text_7">
      <!-- 270° -->
      <g transform="translate(187.52 390.556563)scale(0.1 -0.1)">
       <defs>
        <path id="DejaVuSans-37" d="M 525 4666 
L 3525 4666 
L 3525 4397 
L 1831 0 
L 1172 0 
L 2766 4134 
L 525 4134 
L 525 4666 
z
" transform="scale(0.015625)"/>
       </defs>
       <use xlink:href="#DejaVuSans-32"/>
       <use xlink:href="#DejaVuSans-37" x="63.623047"/>
       <use xlink:href="#DejaVuSans-30" x="127.246094"/>
       <use xlink:href="#DejaVuSans-b0" x="190.869141"/>
      </g>
     </g>
    </g>
    <g id="xtick_8">
     <g id="line2d_8">
      <path d="M 199.56375 207.477188 
L 317.16975 325.083187 
" clip-path="url(#pf9432d0dd7)" style="fill: none; stroke: #b0b0b0; stroke-width: 0.8; stroke-linecap: square"/>
     </g>
     <g id="text_8">
      <!-- 315° -->
      <g transform="translate(315.025495 337.742057)scale(0.1 -0.1)">
       <use xlink:href="#DejaVuSans-33"/>
       <use xlink:href="#DejaVuSans-31" x="63.623047"/>
       <use xlink:href="#DejaVuSans-35" x="127.246094"/>
       <use xlink:href="#DejaVuSans-b0" x="190.869141"/>
      </g>
     </g>
    </g>
   </g>
   <g id="matplotlib.axis_2">
    <g id="ytick_1">
     <g id="line2d_9">
      <path d="M 277.974915 207.477188 
C 277.974915 197.180328 275.946658 186.983592 272.00622 177.470534 
C 268.065783 167.957476 262.289796 159.313101 255.008816 152.032121 
C 247.727837 144.751142 239.083462 138.975155 229.570404 135.034717 
C 220.057346 131.09428 209.86061 129.066023 199.56375 129.066023 
C 189.26689 129.066023 179.070154 131.09428 169.557096 135.034717 
C 160.044038 138.975155 151.399663 144.751142 144.118684 152.032121 
C 136.837704 159.313101 131.061717 167.957476 127.12128 177.470534 
C 123.180842 186.983592 121.152585 197.180328 121.152585 207.477188 
C 121.152585 217.774047 123.180842 227.970783 127.12128 237.483841 
C 131.061717 246.996899 136.837704 255.641274 144.118684 262.922254 
C 151.399663 270.203233 160.044038 275.97922 169.557096 279.919658 
C 179.070154 283.860095 189.26689 285.888352 199.56375 285.888352 
C 209.86061 285.888352 220.057346 283.860095 229.570404 279.919658 
C 239.083462 275.97922 247.727837 270.203233 255.008816 262.922254 
C 262.289796 255.641274 268.065783 246.996899 272.00622 237.483841 
C 275.946658 227.970783 277.974915 217.774047 277.974915 207.477188 
" clip-path="url(#pf9432d0dd7)" style="fill: none; stroke: #b0b0b0; stroke-width: 0.8; stroke-linecap: square"/>
     </g>
     <g id="text_9">
      <!-- −30 -->
      <g transform="translate(272.00622 175.390846)scale(0.1 -0.1)">
       <defs>
        <path id="DejaVuSans-2212" d="M 678 2272 
L 4684 2272 
L 4684 1741 
L 678 1741 
L 678 2272 
z
" transform="scale(0.015625)"/>
       </defs>
       <use xlink:href="#DejaVuSans-2212"/>
       <use xlink:href="#DejaVuSans-33" x="83.789062"/>
       <use xlink:href="#DejaVuSans-30" x="147.412109"/>
      </g>
     </g>
    </g>
    <g id="ytick_2">
     <g id="line2d_10">
      <path d="M 286.765798 207.477188 
C 286.765798 196.025919 284.510148 184.686001 280.127938 174.106408 
C 275.745727 163.526816 269.322179 153.913297 261.22491 145.816028 
C 253.12764 137.718759 243.514121 131.29521 232.934529 126.913 
C 222.354937 122.530789 211.015018 120.275139 199.56375 120.275139 
C 188.112482 120.275139 176.772563 122.530789 166.192971 126.913 
C 155.613379 131.29521 145.99986 137.718759 137.90259 145.816028 
C 129.805321 153.913297 123.381773 163.526816 118.999562 174.106408 
C 114.617352 184.686001 112.361702 196.025919 112.361702 207.477188 
C 112.361702 218.928456 114.617352 230.268374 118.999562 240.847967 
C 123.381773 251.427559 129.805321 261.041078 137.90259 269.138347 
C 145.99986 277.235616 155.613379 283.659165 166.192971 288.041375 
C 176.772563 292.423586 188.112482 294.679236 199.56375 294.679236 
C 211.015018 294.679236 222.354937 292.423586 232.934529 288.041375 
C 243.514121 283.659165 253.12764 277.235616 261.22491 269.138347 
C 269.322179 261.041078 275.745727 251.427559 280.127938 240.847967 
C 284.510148 230.268374 286.765798 218.928456 286.765798 207.477188 
" clip-path="url(#pf9432d0dd7)" style="fill: none; stroke: #b0b0b0; stroke-width: 0.8; stroke-linecap: square"/>
     </g>
     <g id="text_10">
      <!-- −27 -->
      <g transform="translate(280.127938 172.026721)scale(0.1 -0.1)">
       <use xlink:href="#DejaVuSans-2212"/>
       <use xlink:href="#DejaVuSans-32" x="83.789062"/>
       <use xlink:href="#DejaVuSans-37" x="147.412109"/>
      </g>
     </g>
    </g>
    <g id="ytick_3">
     <g id="line2d_11">
      <path d="M 295.556682 207.477188 
C 295.556682 194.871511 293.073638 182.388409 288.249655 170.742283 
C 283.425671 159.096157 276.354562 148.513494 267.441003 139.599934 
C 258.527444 130.686375 247.944781 123.615266 236.298655 118.791283 
C 224.652528 113.967299 212.169426 111.484256 199.56375 111.484256 
C 186.958074 111.484256 174.474972 113.967299 162.828845 118.791283 
C 151.182719 123.615266 140.600056 130.686375 131.686497 139.599934 
C 122.772938 148.513494 115.701829 159.096157 110.877845 170.742283 
C 106.053862 182.388409 103.570818 194.871511 103.570818 207.477188 
C 103.570818 220.082864 106.053862 232.565966 110.877845 244.212092 
C 115.701829 255.858218 122.772938 266.440881 131.686497 275.354441 
C 140.600056 284.268 151.182719 291.339109 162.828845 296.163092 
C 174.474972 300.987076 186.958074 303.470119 199.56375 303.470119 
C 212.169426 303.470119 224.652528 300.987076 236.298655 296.163092 
C 247.944781 291.339109 258.527444 284.268 267.441003 275.354441 
C 276.354562 266.440881 283.425671 255.858218 288.249655 244.212092 
C 293.073638 232.565966 295.556682 220.082864 295.556682 207.477188 
" clip-path="url(#pf9432d0dd7)" style="fill: none; stroke: #b0b0b0; stroke-width: 0.8; stroke-linecap: square"/>
     </g>
     <g id="text_11">
      <!-- −24 -->
      <g transform="translate(288.249655 168.662595)scale(0.1 -0.1)">
       <use xlink:href="#DejaVuSans-2212"/>
       <use xlink:href="#DejaVuSans-32" x="83.789062"/>
       <use xlink:href="#DejaVuSans-34" x="147.412109"/>
      </g>
     </g>
    </g>
    <g id="ytick_4">
     <g id="line2d_12">
      <path d="M 304.347565 207.477188 
C 304.347565 193.717103 301.637129 180.090818 296.371372 167.378157 
C 291.105616 154.665497 283.386945 143.11369 273.657096 133.383841 
C 263.927247 123.653992 252.375441 115.935322 239.66278 110.669565 
C 226.95012 105.403809 213.323835 102.693372 199.56375 102.693372 
C 185.803665 102.693372 172.17738 105.403809 159.46472 110.669565 
C 146.752059 115.935322 135.200253 123.653992 125.470404 133.383841 
C 115.740555 143.11369 108.021884 154.665497 102.756128 167.378157 
C 97.490371 180.090818 94.779935 193.717103 94.779935 207.477188 
C 94.779935 221.237272 97.490371 234.863557 102.756128 247.576218 
C 108.021884 260.288878 115.740555 271.840685 125.470404 281.570534 
C 135.200253 291.300383 146.752059 299.019053 159.46472 304.28481 
C 172.17738 309.550566 185.803665 312.261003 199.56375 312.261003 
C 213.323835 312.261003 226.95012 309.550566 239.66278 304.28481 
C 252.375441 299.019053 263.927247 291.300383 273.657096 281.570534 
C 283.386945 271.840685 291.105616 260.288878 296.371372 247.576218 
C 301.637129 234.863557 304.347565 221.237272 304.347565 207.477188 
" clip-path="url(#pf9432d0dd7)" style="fill: none; stroke: #b0b0b0; stroke-width: 0.8; stroke-linecap: square"/>
     </g>
     <g id="text_12">
      <!-- −21 -->
      <g transform="translate(296.371372 165.29847)scale(0.1 -0.1)">
       <use xlink:href="#DejaVuSans-2212"/>
       <use xlink:href="#DejaVuSans-32" x="83.789062"/>
       <use xlink:href="#DejaVuSans-31" x="147.412109"/>
      </g>
     </g>
    </g>
    <g id="ytick_5">
     <g id="line2d_13">
      <path d="M 313.138449 207.477188 
C 313.138449 192.562695 310.200619 177.793227 304.49309 164.014032 
C 298.78556 150.234837 290.419329 137.713887 279.87319 127.167748 
C 269.327051 116.621609 256.8061 108.255377 243.026906 102.547848 
C 229.247711 96.840319 214.478243 93.902489 199.56375 93.902489 
C 184.649257 93.902489 169.879789 96.840319 156.100594 102.547848 
C 142.3214 108.255377 129.800449 116.621609 119.25431 127.167748 
C 108.708171 137.713887 100.34194 150.234837 94.63441 164.014032 
C 88.926881 177.793227 85.989051 192.562695 85.989051 207.477188 
C 85.989051 222.39168 88.926881 237.161148 94.63441 250.940343 
C 100.34194 264.719538 108.708171 277.240488 119.25431 287.786627 
C 129.800449 298.332766 142.3214 306.698998 156.100594 312.406527 
C 169.879789 318.114056 184.649257 321.051886 199.56375 321.051886 
C 214.478243 321.051886 229.247711 318.114056 243.026906 312.406527 
C 256.8061 306.698998 269.327051 298.332766 279.87319 287.786627 
C 290.419329 277.240488 298.78556 264.719538 304.49309 250.940343 
C 310.200619 237.161148 313.138449 222.39168 313.138449 207.477188 
" clip-path="url(#pf9432d0dd7)" style="fill: none; stroke: #b0b0b0; stroke-width: 0.8; stroke-linecap: square"/>
     </g>
     <g id="text_13">
      <!-- −18 -->
      <g transform="translate(304.49309 161.934344)scale(0.1 -0.1)">
       <use xlink:href="#DejaVuSans-2212"/>
       <use xlink:href="#DejaVuSans-31" x="83.789062"/>
       <use xlink:href="#DejaVuSans-38" x="147.412109"/>
      </g>
     </g>
    </g>
    <g id="ytick_6">
     <g id="line2d_14">
      <path d="M 321.929332 207.477188 
C 321.929332 191.408286 318.764109 175.495635 312.614807 160.649906 
C 306.465505 145.804178 297.451712 132.314083 286.089283 120.951654 
C 274.726854 109.589226 261.23676 100.575433 246.391031 94.42613 
C 231.545302 88.276828 215.632651 85.111605 199.56375 85.111605 
C 183.494849 85.111605 167.582198 88.276828 152.736469 94.42613 
C 137.89074 100.575433 124.400646 109.589226 113.038217 120.951654 
C 101.675788 132.314083 92.661995 145.804178 86.512693 160.649906 
C 80.363391 175.495635 77.198168 191.408286 77.198168 207.477187 
C 77.198168 223.546089 80.363391 239.45874 86.512693 254.304469 
C 92.661995 269.150197 101.675788 282.640292 113.038217 294.002721 
C 124.400646 305.365149 137.89074 314.378942 152.736469 320.528245 
C 167.582198 326.677547 183.494849 329.84277 199.56375 329.84277 
C 215.632651 329.84277 231.545302 326.677547 246.391031 320.528245 
C 261.23676 314.378942 274.726854 305.365149 286.089283 294.002721 
C 297.451712 282.640292 306.465505 269.150197 312.614807 254.304469 
C 318.764109 239.45874 321.929332 223.546089 321.929332 207.477188 
" clip-path="url(#pf9432d0dd7)" style="fill: none; stroke: #b0b0b0; stroke-width: 0.8; stroke-linecap: square"/>
     </g>
     <g id="text_14">
      <!-- −15 -->
      <g transform="translate(312.614807 158.570219)scale(0.1 -0.1)">
       <use xlink:href="#DejaVuSans-2212"/>
       <use xlink:href="#DejaVuSans-31" x="83.789062"/>
       <use xlink:href="#DejaVuSans-35" x="147.412109"/>
      </g>
     </g>
    </g>
    <g id="ytick_7">
     <g id="line2d_15">
      <path d="M 330.720216 207.477188 
C 330.720216 190.253878 327.3276 173.198044 320.736524 157.285781 
C 314.145449 141.373518 304.484095 126.91428 292.305376 114.735561 
C 280.126658 102.556842 265.667419 92.895488 249.755157 86.304413 
C 233.842894 79.713338 216.787059 76.320722 199.56375 76.320722 
C 182.340441 76.320722 165.284606 79.713338 149.372343 86.304413 
C 133.460081 92.895488 119.000842 102.556842 106.822124 114.735561 
C 94.643405 126.91428 84.982051 141.373518 78.390976 157.285781 
C 71.7999 173.198044 68.407284 190.253878 68.407284 207.477187 
C 68.407284 224.700497 71.7999 241.756331 78.390976 257.668594 
C 84.982051 273.580857 94.643405 288.040095 106.822124 300.218814 
C 119.000842 312.397533 133.460081 322.058887 149.372343 328.649962 
C 165.284606 335.241037 182.340441 338.633653 199.56375 338.633653 
C 216.787059 338.633653 233.842894 335.241037 249.755157 328.649962 
C 265.667419 322.058887 280.126658 312.397533 292.305376 300.218814 
C 304.484095 288.040095 314.145449 273.580857 320.736524 257.668594 
C 327.3276 241.756331 330.720216 224.700497 330.720216 207.477188 
" clip-path="url(#pf9432d0dd7)" style="fill: none; stroke: #b0b0b0; stroke-width: 0.8; stroke-linecap: square"/>
     </g>
     <g id="text_15">
      <!-- −12 -->
      <g transform="translate(320.736524 155.206093)scale(0.1 -0.1)">
       <use xlink:href="#DejaVuSans-2212"/>
       <use xlink:href="#DejaVuSans-31" x="83.789062"/>
       <use xlink:href="#DejaVuSans-32" x="147.412109"/>
      </g>
     </g>
    </g>
    <g id="ytick_8">
     <g id="line2d_16">
      <path d="M 339.511099 207.477188 
C 339.511099 189.09947 335.89109 170.900453 328.858242 153.921655 
C 321.825394 136.942858 311.516478 121.514476 298.52147 108.519468 
C 285.526461 95.524459 270.098079 85.215544 253.119282 78.182696 
C 236.140485 71.149848 217.941468 67.529838 199.56375 67.529838 
C 181.186032 67.529838 162.987015 71.149848 146.008218 78.182696 
C 129.029421 85.215544 113.601039 95.524459 100.60603 108.519468 
C 87.611022 121.514476 77.302106 136.942858 70.269258 153.921655 
C 63.23641 170.900453 59.616401 189.09947 59.616401 207.477187 
C 59.616401 225.854905 63.23641 244.053922 70.269258 261.03272 
C 77.302106 278.011517 87.611022 293.439899 100.60603 306.434907 
C 113.601039 319.429916 129.029421 329.738831 146.008218 336.771679 
C 162.987015 343.804527 181.186032 347.424537 199.56375 347.424537 
C 217.941468 347.424537 236.140485 343.804527 253.119282 336.771679 
C 270.098079 329.738831 285.526461 319.429916 298.52147 306.434907 
C 311.516478 293.439899 321.825394 278.011517 328.858242 261.03272 
C 335.89109 244.053922 339.511099 225.854905 339.511099 207.477188 
" clip-path="url(#pf9432d0dd7)" style="fill: none; stroke: #b0b0b0; stroke-width: 0.8; stroke-linecap: square"/>
     </g>
     <g id="text_16">
      <!-- −9 -->
      <g transform="translate(328.858242 151.841968)scale(0.1 -0.1)">
       <use xlink:href="#DejaVuSans-2212"/>
       <use xlink:href="#DejaVuSans-39" x="83.789062"/>
      </g>
     </g>
    </g>
    <g id="ytick_9">
     <g id="line2d_17">
      <path d="M 348.301983 207.477188 
C 348.301983 187.945062 344.45458 168.602861 336.979959 150.55753 
C 329.505338 132.512199 318.548862 116.114673 304.737563 102.303374 
C 290.926265 88.492076 274.528739 77.535599 256.483408 70.060978 
C 238.438076 62.586357 219.095876 58.738955 199.56375 58.738955 
C 180.031624 58.738955 160.689424 62.586357 142.644092 70.060978 
C 124.598761 77.535599 108.201235 88.492076 94.389937 102.303374 
C 80.578638 116.114673 69.622162 132.512199 62.147541 150.55753 
C 54.67292 168.602861 50.825517 187.945062 50.825517 207.477187 
C 50.825517 227.009313 54.67292 246.351514 62.147541 264.396845 
C 69.622162 282.442176 80.578638 298.839702 94.389937 312.651001 
C 108.201235 326.462299 124.598761 337.418776 142.644092 344.893397 
C 160.689424 352.368018 180.031624 356.21542 199.56375 356.21542 
C 219.095876 356.21542 238.438076 352.368018 256.483408 344.893397 
C 274.528739 337.418776 290.926265 326.462299 304.737563 312.651001 
C 318.548862 298.839702 329.505338 282.442176 336.979959 264.396845 
C 344.45458 246.351514 348.301983 227.009313 348.301983 207.477188 
" clip-path="url(#pf9432d0dd7)" style="fill: none; stroke: #b0b0b0; stroke-width: 0.8; stroke-linecap: square"/>
     </g>
     <g id="text_17">
      <!-- −6 -->
      <g transform="translate(336.979959 148.477842)scale(0.1 -0.1)">
       <defs>
        <path id="DejaVuSans-36" d="M 2113 2584 
Q 1688 2584 1439 2293 
Q 1191 2003 1191 1497 
Q 1191 994 1439 701 
Q 1688 409 2113 409 
Q 2538 409 2786 701 
Q 3034 994 3034 1497 
Q 3034 2003 2786 2293 
Q 2538 2584 2113 2584 
z
M 3366 4563 
L 3366 3988 
Q 3128 4100 2886 4159 
Q 2644 4219 2406 4219 
Q 1781 4219 1451 3797 
Q 1122 3375 1075 2522 
Q 1259 2794 1537 2939 
Q 1816 3084 2150 3084 
Q 2853 3084 3261 2657 
Q 3669 2231 3669 1497 
Q 3669 778 3244 343 
Q 2819 -91 2113 -91 
Q 1303 -91 875 529 
Q 447 1150 447 2328 
Q 447 3434 972 4092 
Q 1497 4750 2381 4750 
Q 2619 4750 2861 4703 
Q 3103 4656 3366 4563 
z
" transform="scale(0.015625)"/>
       </defs>
       <use xlink:href="#DejaVuSans-2212"/>
       <use xlink:href="#DejaVuSans-36" x="83.789062"/>
      </g>
     </g>
    </g>
    <g id="ytick_10">
     <g id="line2d_18">
      <path d="M 357.092866 207.477188 
C 357.092866 186.790653 353.01807 166.30527 345.101676 147.193405 
C 337.185283 128.081539 325.581245 110.71487 310.953656 96.087281 
C 296.326068 81.459693 278.959398 69.855655 259.847533 61.939261 
C 240.735668 54.022867 220.250284 49.948071 199.56375 49.948071 
C 178.877216 49.948071 158.391832 54.022867 139.279967 61.939261 
C 120.168102 69.855655 102.801432 81.459693 88.173844 96.087281 
C 73.546255 110.71487 61.942217 128.081539 54.025824 147.193405 
C 46.10943 166.30527 42.034634 186.790653 42.034634 207.477187 
C 42.034634 228.163722 46.10943 248.649105 54.025824 267.76097 
C 61.942217 286.872836 73.546255 304.239505 88.173844 318.867094 
C 102.801432 333.494682 120.168102 345.09872 139.279967 353.015114 
C 158.391832 360.931508 178.877216 365.006304 199.56375 365.006304 
C 220.250284 365.006304 240.735668 360.931508 259.847533 353.015114 
C 278.959398 345.09872 296.326068 333.494682 310.953656 318.867094 
C 325.581245 304.239505 337.185283 286.872836 345.101676 267.76097 
C 353.01807 248.649105 357.092866 228.163722 357.092866 207.477188 
" clip-path="url(#pf9432d0dd7)" style="fill: none; stroke: #b0b0b0; stroke-width: 0.8; stroke-linecap: square"/>
     </g>
     <g id="text_18">
      <!-- −3 -->
      <g transform="translate(345.101676 145.113717)scale(0.1 -0.1)">
       <use xlink:href="#DejaVuSans-2212"/>
       <use xlink:href="#DejaVuSans-33" x="83.789062"/>
      </g>
     </g>
    </g>
   </g>
   <g id="line2d_19">
    <path d="M 305.510892 207.477188 
L 308.562307 205.574611 
L 310.407247 203.606447 
L 311.926412 201.58851 
L 312.215769 199.599791 
L 311.363457 197.695981 
L 309.660318 195.905572 
L 306.562229 194.339426 
L 304.735178 192.696307 
L 302.232651 191.216031 
L 300.646161 189.653631 
L 300.259296 187.903956 
L 300.174654 186.09168 
L 300.537018 184.165672 
L 300.097737 182.411249 
L 298.215589 181.043507 
L 295.491442 179.970364 
L 291.96193 179.228229 
L 287.071089 179.044329 
L 284.284067 178.305643 
L 282.674388 177.227389 
L 282.8013 175.525286 
L 282.714597 173.882065 
L 281.686738 172.618047 
L 277.604549 172.731185 
L 271.82083 173.783158 
L 261.29525 177.368723 
L 241.953987 185.878283 
L 241.094516 185.394888 
L 261.264894 173.275685 
L 270.659711 166.429915 
L 280.32178 157.01397 
L 285.845443 151.445201 
L 288.15829 147.719416 
L 291.460928 143.130091 
L 293.834864 138.985214 
L 297.374607 131.058971 
L 298.294186 127.526857 
L 298.68859 124.30157 
L 298.865039 121.155894 
L 298.508434 118.386994 
L 296.738588 113.636538 
L 295.620626 111.420311 
L 293.003161 107.275686 
L 291.522521 105.346626 
L 288.742263 101.198374 
L 287.242679 99.202728 
L 285.844814 97.042461 
L 284.336378 94.980111 
L 281.04439 91.110773 
L 277.465078 87.519662 
L 274.147257 83.349386 
L 272.362229 81.386524 
L 270.71881 79.110062 
L 268.978038 76.927899 
L 267.11078 74.908677 
L 265.394448 72.504255 
L 261.541327 68.27327 
L 259.723011 65.750849 
L 255.742004 61.127832 
L 253.735531 58.641441 
L 251.461735 56.754496 
L 249.200955 54.70958 
L 246.863072 52.768075 
L 239.355009 47.883165 
L 233.99314 45.499645 
L 231.229211 44.572511 
L 225.58193 43.204863 
L 219.829488 42.425996 
L 214.031911 42.105353 
L 211.119655 42.220045 
L 202.423067 43.66703 
L 196.737214 45.545063 
L 193.952241 46.784602 
L 191.219783 48.264804 
L 188.507007 49.358393 
L 183.264713 52.402208 
L 180.68611 53.731151 
L 178.193751 55.421747 
L 175.684918 56.712177 
L 173.162673 57.749238 
L 170.59887 58.465798 
L 167.996582 58.965337 
L 165.32974 59.193401 
L 156.904501 58.706705 
L 153.902505 58.125986 
L 145.215578 58.156812 
L 139.634621 59.147387 
L 136.868408 59.776218 
L 134.181034 60.625203 
L 131.535192 61.589474 
L 126.511832 64.104725 
L 124.200979 65.740429 
L 121.984579 67.520658 
L 119.874684 69.451676 
L 116.224237 74.106088 
L 114.601927 76.647453 
L 113.43599 79.787532 
L 112.10637 82.575105 
L 111.038729 85.632949 
L 110.62751 89.454811 
L 109.992063 92.830656 
L 109.880291 96.727339 
L 110.259039 101.047977 
L 110.181922 104.655157 
L 111.471578 109.640919 
L 115.829624 120.767962 
L 121.085986 128.999423 
L 129.228516 139.555242 
L 143.779761 155.457776 
L 145.199573 158.527462 
L 126.429182 143.902277 
L 117.577468 138.682528 
L 109.026919 134.161908 
L 103.514739 132.435476 
L 99.095493 131.768925 
L 94.157655 130.895177 
L 90.844872 131.35141 
L 84.01753 132.440595 
L 81.311577 133.585029 
L 78.954914 135.008088 
L 76.409216 136.373884 
L 72.310677 139.815528 
L 70.052617 141.487969 
L 68.243802 143.42817 
L 66.213826 145.295097 
L 64.444869 147.318386 
L 62.921917 149.476171 
L 61.547385 151.714956 
L 60.420138 154.064959 
L 58.530015 158.915378 
L 57.899056 161.447538 
L 57.459179 164.03146 
L 57.480303 166.735415 
L 57.883454 169.514067 
L 58.425277 172.287414 
L 61.690001 180.677245 
L 65.107656 186.181434 
L 67.489946 188.915425 
L 71.097983 191.703575 
L 75.234024 194.409607 
L 80.769775 197.084061 
L 89.051482 199.749417 
L 102.414811 202.385827 
L 128.843761 205.007591 
L 137.14099 206.387594 
L 105.745097 207.477188 
L 95.06837 209.301161 
L 86.538513 211.424116 
L 74.470777 216.22454 
L 70.581963 218.761632 
L 63.480746 224.186079 
L 58.319984 232.382274 
L 55.871111 240.651247 
L 54.58747 249.048467 
L 54.721376 251.759945 
L 55.03136 254.438608 
L 55.598669 257.04834 
L 57.178374 262.133812 
L 58.151233 264.611553 
L 59.229244 267.045651 
L 60.491003 269.396364 
L 61.967284 271.639474 
L 63.539958 273.820423 
L 67.361179 277.770541 
L 69.435917 279.608223 
L 72.00629 281.122521 
L 74.328266 282.726258 
L 77.228672 283.920629 
L 80.520434 284.784821 
L 83.461971 285.788826 
L 87.011503 286.28712 
L 90.684641 286.582491 
L 94.049941 286.987545 
L 98.187637 286.680887 
L 101.63719 286.776553 
L 104.396379 287.332094 
L 106.793084 288.121497 
L 107.75517 290.142004 
L 108.09745 292.770892 
L 107.323454 296.552606 
L 106.704237 303.636028 
L 105.946476 307.869423 
L 106.183436 311.186533 
L 106.480623 318.409338 
L 109.03331 327.615139 
L 110.427283 330.163009 
L 111.726521 332.921751 
L 113.263937 335.421922 
L 115.051986 337.613892 
L 116.696295 340.092838 
L 118.487607 342.410548 
L 122.508793 346.488009 
L 124.667338 348.336852 
L 129.270503 351.599703 
L 131.730858 352.945293 
L 134.259697 354.152493 
L 139.461183 356.236261 
L 144.930948 357.579579 
L 147.69534 358.113989 
L 153.279659 358.865628 
L 156.01684 359.343311 
L 161.52986 360.022788 
L 169.637731 361.433207 
L 177.670521 363.255608 
L 180.356495 363.907726 
L 183.039583 364.694135 
L 188.492698 365.800603 
L 191.231285 366.4701 
L 199.56375 367.772502 
L 205.175668 368.181487 
L 210.806708 368.258978 
L 216.438017 368.025113 
L 222.036489 367.379033 
L 227.576325 366.344392 
L 233.025662 364.903108 
L 235.725181 364.109553 
L 243.610626 361.086898 
L 248.587924 358.35808 
L 250.991407 356.833949 
L 257.582868 351.079544 
L 259.466541 348.599319 
L 261.428101 346.426795 
L 266.875312 339.583567 
L 273.93144 331.245808 
L 277.19217 327.014471 
L 278.578348 324.621146 
L 280.207378 322.648224 
L 283.008466 318.212066 
L 286.248712 314.5242 
L 291.381347 309.45096 
L 294.206408 305.482529 
L 295.332614 303.246051 
L 298.244941 296.330131 
L 298.785424 293.729273 
L 299.617911 291.432597 
L 300.168376 288.945207 
L 301.679534 284.42695 
L 302.108461 281.980281 
L 302.733003 279.717076 
L 302.729377 277.063282 
L 301.119002 270.935952 
L 299.159263 267.320209 
L 292.45018 258.964977 
L 287.689138 254.334288 
L 282.224687 249.595038 
L 277.916728 245.692488 
L 274.511104 242.425713 
L 273.86484 240.558164 
L 271.857594 238.164104 
L 267.820432 235.054677 
L 261.63272 231.303233 
L 266.863353 231.97224 
L 278.590386 234.68824 
L 286.614042 235.761542 
L 291.037186 235.443423 
L 294.604156 234.729585 
L 295.43892 233.166862 
L 295.548534 231.408882 
L 292.853698 229.014869 
L 291.418228 227.00146 
L 289.636541 224.985565 
L 294.175148 222.462161 
L 297.976939 221.308259 
L 300.399218 219.858226 
L 302.261057 218.271109 
L 302.962161 216.523376 
L 302.841206 214.699051 
L 302.002425 211.054425 
L 303.637232 209.293797 
L 303.637232 209.293797 
" clip-path="url(#pf9432d0dd7)" style="fill: none; stroke: #ff0000; stroke-width: 1.5; stroke-linecap: square"/>
   </g>
   <g id="line2d_20">
    <path d="M 207.48375 207.477188 
L 259.926827 206.423546 
L 276.533178 204.789356 
L 286.365368 202.928107 
L 293.288331 200.923326 
L 298.501709 198.821238 
L 302.648651 196.642528 
L 305.992172 194.40942 
L 308.736729 192.133926 
L 310.970294 189.832124 
L 312.838568 187.503781 
L 314.313664 185.172064 
L 315.512015 182.831623 
L 316.434722 180.495397 
L 317.083326 178.176266 
L 317.516408 175.871868 
L 317.735553 173.591968 
L 317.714649 171.354833 
L 317.540001 169.14438 
L 317.130098 166.995848 
L 316.543374 164.900086 
L 315.782484 162.864995 
L 314.823178 160.909356 
L 313.669221 159.042289 
L 312.324684 157.272785 
L 310.767386 155.622081 
L 309.002658 154.100265 
L 307.01007 152.730553 
L 304.770469 151.537782 
L 302.240433 150.562573 
L 299.404347 149.834192 
L 296.172789 149.42862 
L 292.486005 149.412918 
L 288.214523 149.906702 
L 283.115013 151.121149 
L 276.933969 153.301977 
L 269.149202 156.920397 
L 260.135643 161.832992 
L 257.205441 162.442563 
L 264.403905 154.970665 
L 271.603608 147.028569 
L 276.840498 140.301535 
L 280.599579 134.5122 
L 283.342816 129.351945 
L 285.318107 124.665167 
L 286.719181 120.321757 
L 287.647854 116.263427 
L 288.226851 112.397652 
L 288.479437 108.726313 
L 288.461121 105.21246 
L 288.205449 101.838124 
L 287.736896 98.59242 
L 287.080602 95.460725 
L 286.251534 92.438613 
L 285.267506 89.516087 
L 284.138647 86.691717 
L 282.876395 83.961111 
L 281.490071 81.321717 
L 279.98862 78.770491 
L 278.379091 76.306432 
L 276.66771 73.929211 
L 274.861949 71.63564 
L 272.966934 69.425878 
L 270.987749 67.299698 
L 268.929291 65.256753 
L 264.592484 61.420259 
L 259.990141 57.916622 
L 255.153672 54.745131 
L 250.110993 51.90877 
L 244.887597 49.414148 
L 239.510967 47.257649 
L 234.004715 45.445186 
L 228.392504 43.981197 
L 222.69797 42.868659 
L 216.94433 42.112019 
L 211.155018 41.714339 
L 205.35361 41.677282 
L 199.56375 42.009903 
L 193.810194 42.716903 
L 188.118429 43.801473 
L 182.515199 45.271058 
L 177.029431 47.137173 
L 174.339975 48.220542 
L 171.692124 49.409343 
L 169.089787 50.702241 
L 166.537933 52.102936 
L 164.041519 53.613501 
L 161.605925 55.236668 
L 159.237101 56.976086 
L 156.941493 58.835714 
L 154.726685 60.821755 
L 152.599613 62.936437 
L 150.569774 65.188349 
L 148.648181 67.58781 
L 146.846703 70.144586 
L 145.176947 72.865125 
L 143.658005 75.771506 
L 142.309506 78.882051 
L 141.152575 82.214018 
L 140.220063 85.804598 
L 139.545034 89.683825 
L 139.169861 93.892802 
L 139.140167 98.470158 
L 139.503262 103.44937 
L 140.247444 108.758276 
L 141.15786 114.008226 
L 141.578317 118.187451 
L 140.405706 119.77178 
L 137.304142 118.561253 
L 128.719208 113.463304 
L 124.419206 111.296558 
L 120.317864 109.616668 
L 116.461592 108.439892 
L 112.806061 107.673883 
L 109.334361 107.267298 
L 106.028413 107.172819 
L 102.87129 107.349214 
L 99.849739 107.763176 
L 96.954804 108.38888 
L 94.178134 109.203511 
L 91.514381 110.189099 
L 88.957164 111.328349 
L 86.505834 112.610332 
L 84.156892 114.022556 
L 81.908457 115.554798 
L 79.760453 117.198927 
L 77.7124 118.947 
L 75.761031 120.78959 
L 73.912298 122.724213 
L 72.162301 124.741719 
L 70.514119 126.838028 
L 68.968186 129.007456 
L 67.524695 131.244404 
L 66.188731 133.546207 
L 64.960168 135.907193 
L 63.841258 138.323124 
L 62.836752 140.790975 
L 61.946038 143.304994 
L 61.173627 145.861935 
L 60.523973 148.458304 
L 60.001457 151.090361 
L 59.610381 153.754122 
L 59.354958 156.445361 
L 59.242071 159.160559 
L 59.278559 161.895766 
L 59.474 164.647453 
L 59.837948 167.411458 
L 60.382739 170.183748 
L 61.117837 172.958745 
L 62.066876 175.733533 
L 63.244972 178.501737 
L 64.684392 181.259296 
L 66.417474 183.999907 
L 68.493891 186.717761 
L 70.969177 189.404399 
L 73.939541 192.052474 
L 77.536276 194.651583 
L 81.972462 197.189283 
L 87.569441 199.645783 
L 95.028883 201.998747 
L 105.931103 204.207463 
L 125.811267 206.189833 
L 167.527426 207.477188 
L 117.578393 208.908247 
L 101.860475 210.889061 
L 92.307444 213.098252 
L 85.552463 215.449633 
L 80.337741 217.908112 
L 76.195724 220.44369 
L 72.805245 223.041175 
L 69.985475 225.688226 
L 67.625626 228.374133 
L 65.644085 231.090838 
L 63.991166 233.829828 
L 62.617261 236.586062 
L 61.492983 239.353336 
L 60.597522 242.12536 
L 59.901563 244.899558 
L 59.39853 247.668918 
L 59.070475 250.430292 
L 58.905118 253.179948 
L 58.89574 255.913068 
L 59.035543 258.625272 
L 59.314929 261.313666 
L 59.729764 263.973785 
L 60.273119 266.602552 
L 60.943409 269.19494 
L 61.733578 271.748452 
L 62.641856 274.258457 
L 63.666327 276.720383 
L 64.802343 279.131099 
L 66.047772 281.486303 
L 67.39781 283.783229 
L 68.855157 286.014834 
L 70.417203 288.176907 
L 72.081201 290.265323 
L 73.844277 292.276043 
L 75.710623 294.200081 
L 77.674469 296.034933 
L 79.73705 297.773082 
L 81.90153 299.404989 
L 84.166001 300.924442 
L 86.530526 302.323324 
L 88.999183 303.589499 
L 91.571 304.714297 
L 94.255285 305.67892 
L 97.051767 306.471859 
L 99.967845 307.073093 
L 103.013778 307.45761 
L 106.196283 307.601538 
L 109.532396 307.467136 
L 113.036755 307.015109 
L 116.73094 306.193486 
L 120.63136 304.950572 
L 124.76198 303.219088 
L 129.107177 300.976218 
L 137.623484 295.937054 
L 140.438478 295.134008 
L 141.291046 297.209283 
L 140.707543 301.666808 
L 139.764496 306.99986 
L 139.078369 312.240941 
L 138.756596 317.176198 
L 138.835568 321.690286 
L 139.253693 325.842339 
L 139.964436 329.67389 
L 140.929664 333.218392 
L 142.111658 336.516699 
L 143.483971 339.592867 
L 145.023268 342.469619 
L 146.709137 345.168161 
L 148.526912 347.699747 
L 150.46197 350.07911 
L 152.503629 352.313346 
L 154.641525 354.411164 
L 156.86662 356.379777 
L 159.171119 358.224538 
L 161.548079 359.949716 
L 163.991092 361.559296 
L 166.494251 363.05695 
L 169.052326 364.444857 
L 171.660067 365.726836 
L 174.31293 366.904592 
L 179.737261 368.950982 
L 185.292496 370.598362 
L 190.948949 371.857379 
L 196.67917 372.73469 
L 202.457075 373.235694 
L 208.257838 373.370265 
L 214.057195 373.138017 
L 219.831631 372.54583 
L 225.558093 371.599013 
L 231.213556 370.301323 
L 236.774584 368.655018 
L 242.217674 366.663799 
L 247.518475 364.330025 
L 252.65234 361.657647 
L 257.593372 358.649521 
L 262.315195 355.310327 
L 266.78636 351.63654 
L 268.918757 349.676025 
L 270.976707 347.633007 
L 272.955502 345.506997 
L 274.8503 343.297719 
L 276.655989 341.004863 
L 278.367018 338.627849 
L 279.976198 336.164004 
L 281.478899 333.615455 
L 282.866564 330.978688 
L 284.130244 328.250657 
L 285.262339 325.431176 
L 286.24977 322.513422 
L 287.080602 319.49365 
L 287.742428 316.368786 
L 288.214867 313.127475 
L 288.478423 309.761819 
L 288.504927 306.256372 
L 288.260825 302.593156 
L 287.708921 298.754184 
L 286.781341 294.694779 
L 285.402423 290.37063 
L 283.44997 285.702353 
L 280.752013 280.579428 
L 277.039535 274.82586 
L 271.850529 268.132997 
L 264.608859 260.149678 
L 256.812893 252.20512 
L 258.965524 252.239635 
L 268.224645 257.362248 
L 276.261869 261.181788 
L 282.580562 263.472734 
L 287.747588 264.744442 
L 292.0884 265.293006 
L 295.821144 265.314465 
L 299.049067 264.915062 
L 301.932886 264.221326 
L 304.459994 263.25151 
L 306.72287 262.077486 
L 308.712948 260.712808 
L 310.501811 259.208455 
L 312.056989 257.562404 
L 313.399486 255.797591 
L 314.551486 253.935249 
L 315.508918 251.984367 
L 316.295552 249.964089 
L 316.853033 247.863126 
L 317.261314 245.719444 
L 317.462446 243.522436 
L 317.453875 241.281637 
L 317.233363 239.006665 
L 316.770568 236.700129 
L 316.120651 234.386468 
L 315.168063 232.049643 
L 313.968489 229.715216 
L 312.434559 227.379356 
L 310.565103 225.058075 
L 308.272445 222.755198 
L 305.468651 220.480674 
L 302.065803 218.250587 
L 297.801114 216.071843 
L 292.411384 213.969727 
L 285.224119 211.966457 
L 274.834643 210.105705 
L 256.557501 208.472017 
L 256.557501 208.472017 
" clip-path="url(#pf9432d0dd7)" style="fill: none; stroke-dasharray: 5.55,2.4; stroke-dashoffset: 0; stroke: #0000ff; stroke-width: 1.5"/>
   </g>
   <g id="patch_3">
    <path d="M 365.88375 207.477188 
C 365.88375 185.636245 361.581561 164.007679 353.223394 143.829279 
C 344.865227 123.650879 332.613628 105.315066 317.16975 89.871188 
C 301.725871 74.427309 283.390058 62.17571 263.211658 53.817544 
C 243.033259 45.459377 221.404692 41.157187 199.56375 41.157187 
C 177.722808 41.157187 156.094241 45.459377 135.915842 53.817544 
C 115.737442 62.17571 97.401629 74.427309 81.95775 89.871188 
C 66.513872 105.315066 54.262273 123.650879 45.904106 143.829279 
C 37.545939 164.007679 33.24375 185.636245 33.24375 207.477187 
C 33.24375 229.31813 37.545939 250.946696 45.904106 271.125096 
C 54.262273 291.303496 66.513872 309.639309 81.95775 325.083187 
C 97.401629 340.527066 115.737442 352.778665 135.915842 361.136831 
C 156.094241 369.494998 177.722808 373.797188 199.56375 373.797188 
C 221.404692 373.797188 243.033259 369.494998 263.211658 361.136831 
C 283.390058 352.778665 301.725871 340.527066 317.16975 325.083187 
C 332.613628 309.639309 344.865227 291.303496 353.223394 271.125096 
C 361.581561 250.946696 365.88375 229.31813 365.88375 207.477188 
" style="fill: none; stroke: #000000; stroke-width: 0.8; stroke-linejoin: miter; stroke-linecap: square"/>
   </g>
   <g id="text_19">
    <!-- Radiation Diagram - 2AVHF09 -->
    <g transform="translate(110.319375 16.318125)scale(0.12 -0.12)">
     <defs>
      <path id="DejaVuSans-52" d="M 2841 2188 
Q 3044 2119 3236 1894 
Q 3428 1669 3622 1275 
L 4263 0 
L 3584 0 
L 2988 1197 
Q 2756 1666 2539 1819 
Q 2322 1972 1947 1972 
L 1259 1972 
L 1259 0 
L 628 0 
L 628 4666 
L 2053 4666 
Q 2853 4666 3247 4331 
Q 3641 3997 3641 3322 
Q 3641 2881 3436 2590 
Q 3231 2300 2841 2188 
z
M 1259 4147 
L 1259 2491 
L 2053 2491 
Q 2509 2491 2742 2702 
Q 2975 2913 2975 3322 
Q 2975 3731 2742 3939 
Q 2509 4147 2053 4147 
L 1259 4147 
z
" transform="scale(0.015625)"/>
      <path id="DejaVuSans-61" d="M 2194 1759 
Q 1497 1759 1228 1600 
Q 959 1441 959 1056 
Q 959 750 1161 570 
Q 1363 391 1709 391 
Q 2188 391 2477 730 
Q 2766 1069 2766 1631 
L 2766 1759 
L 2194 1759 
z
M 3341 1997 
L 3341 0 
L 2766 0 
L 2766 531 
Q 2569 213 2275 61 
Q 1981 -91 1556 -91 
Q 1019 -91 701 211 
Q 384 513 384 1019 
Q 384 1609 779 1909 
Q 1175 2209 1959 2209 
L 2766 2209 
L 2766 2266 
Q 2766 2663 2505 2880 
Q 2244 3097 1772 3097 
Q 1472 3097 1187 3025 
Q 903 2953 641 2809 
L 641 3341 
Q 956 3463 1253 3523 
Q 1550 3584 1831 3584 
Q 2591 3584 2966 3190 
Q 3341 2797 3341 1997 
z
" transform="scale(0.015625)"/>
      <path id="DejaVuSans-64" d="M 2906 2969 
L 2906 4863 
L 3481 4863 
L 3481 0 
L 2906 0 
L 2906 525 
Q 2725 213 2448 61 
Q 2172 -91 1784 -91 
Q 1150 -91 751 415 
Q 353 922 353 1747 
Q 353 2572 751 3078 
Q 1150 3584 1784 3584 
Q 2172 3584 2448 3432 
Q 2725 3281 2906 2969 
z
M 947 1747 
Q 947 1113 1208 752 
Q 1469 391 1925 391 
Q 2381 391 2643 752 
Q 2906 1113 2906 1747 
Q 2906 2381 2643 2742 
Q 2381 3103 1925 3103 
Q 1469 3103 1208 2742 
Q 947 2381 947 1747 
z
" transform="scale(0.015625)"/>
      <path id="DejaVuSans-69" d="M 603 3500 
L 1178 3500 
L 1178 0 
L 603 0 
L 603 3500 
z
M 603 4863 
L 1178 4863 
L 1178 4134 
L 603 4134 
L 603 4863 
z
" transform="scale(0.015625)"/>
      <path id="DejaVuSans-74" d="M 1172 4494 
L 1172 3500 
L 2356 3500 
L 2356 3053 
L 1172 3053 
L 1172 1153 
Q 1172 725 1289 603 
Q 1406 481 1766 481 
L 2356 481 
L 2356 0 
L 1766 0 
Q 1100 0 847 248 
Q 594 497 594 1153 
L 594 3053 
L 172 3053 
L 172 3500 
L 594 3500 
L 594 4494 
L 1172 4494 
z
" transform="scale(0.015625)"/>
      <path id="DejaVuSans-6f" d="M 1959 3097 
Q 1497 3097 1228 2736 
Q 959 2375 959 1747 
Q 959 1119 1226 758 
Q 1494 397 1959 397 
Q 2419 397 2687 759 
Q 2956 1122 2956 1747 
Q 2956 2369 2687 2733 
Q 2419 3097 1959 3097 
z
M 1959 3584 
Q 2709 3584 3137 3096 
Q 3566 2609 3566 1747 
Q 3566 888 3137 398 
Q 2709 -91 1959 -91 
Q 1206 -91 779 398 
Q 353 888 353 1747 
Q 353 2609 779 3096 
Q 1206 3584 1959 3584 
z
" transform="scale(0.015625)"/>
      <path id="DejaVuSans-6e" d="M 3513 2113 
L 3513 0 
L 2938 0 
L 2938 2094 
Q 2938 2591 2744 2837 
Q 2550 3084 2163 3084 
Q 1697 3084 1428 2787 
Q 1159 2491 1159 1978 
L 1159 0 
L 581 0 
L 581 3500 
L 1159 3500 
L 1159 2956 
Q 1366 3272 1645 3428 
Q 1925 3584 2291 3584 
Q 2894 3584 3203 3211 
Q 3513 2838 3513 2113 
z
" transform="scale(0.015625)"/>
      <path id="DejaVuSans-20" transform="scale(0.015625)"/>
      <path id="DejaVuSans-44" d="M 1259 4147 
L 1259 519 
L 2022 519 
Q 2988 519 3436 956 
Q 3884 1394 3884 2338 
Q 3884 3275 3436 3711 
Q 2988 4147 2022 4147 
L 1259 4147 
z
M 628 4666 
L 1925 4666 
Q 3281 4666 3915 4102 
Q 4550 3538 4550 2338 
Q 4550 1131 3912 565 
Q 3275 0 1925 0 
L 628 0 
L 628 4666 
z
" transform="scale(0.015625)"/>
      <path id="DejaVuSans-67" d="M 2906 1791 
Q 2906 2416 2648 2759 
Q 2391 3103 1925 3103 
Q 1463 3103 1205 2759 
Q 947 2416 947 1791 
Q 947 1169 1205 825 
Q 1463 481 1925 481 
Q 2391 481 2648 825 
Q 2906 1169 2906 1791 
z
M 3481 434 
Q 3481 -459 3084 -895 
Q 2688 -1331 1869 -1331 
Q 1566 -1331 1297 -1286 
Q 1028 -1241 775 -1147 
L 775 -588 
Q 1028 -725 1275 -790 
Q 1522 -856 1778 -856 
Q 2344 -856 2625 -561 
Q 2906 -266 2906 331 
L 2906 616 
Q 2728 306 2450 153 
Q 2172 0 1784 0 
Q 1141 0 747 490 
Q 353 981 353 1791 
Q 353 2603 747 3093 
Q 1141 3584 1784 3584 
Q 2172 3584 2450 3431 
Q 2728 3278 2906 2969 
L 2906 3500 
L 3481 3500 
L 3481 434 
z
" transform="scale(0.015625)"/>
      <path id="DejaVuSans-72" d="M 2631 2963 
Q 2534 3019 2420 3045 
Q 2306 3072 2169 3072 
Q 1681 3072 1420 2755 
Q 1159 2438 1159 1844 
L 1159 0 
L 581 0 
L 581 3500 
L 1159 3500 
L 1159 2956 
Q 1341 3275 1631 3429 
Q 1922 3584 2338 3584 
Q 2397 3584 2469 3576 
Q 2541 3569 2628 3553 
L 2631 2963 
z
" transform="scale(0.015625)"/>
      <path id="DejaVuSans-6d" d="M 3328 2828 
Q 3544 3216 3844 3400 
Q 4144 3584 4550 3584 
Q 5097 3584 5394 3201 
Q 5691 2819 5691 2113 
L 5691 0 
L 5113 0 
L 5113 2094 
Q 5113 2597 4934 2840 
Q 4756 3084 4391 3084 
Q 3944 3084 3684 2787 
Q 3425 2491 3425 1978 
L 3425 0 
L 2847 0 
L 2847 2094 
Q 2847 2600 2669 2842 
Q 2491 3084 2119 3084 
Q 1678 3084 1418 2786 
Q 1159 2488 1159 1978 
L 1159 0 
L 581 0 
L 581 3500 
L 1159 3500 
L 1159 2956 
Q 1356 3278 1631 3431 
Q 1906 3584 2284 3584 
Q 2666 3584 2933 3390 
Q 3200 3197 3328 2828 
z
" transform="scale(0.015625)"/>
      <path id="DejaVuSans-2d" d="M 313 2009 
L 1997 2009 
L 1997 1497 
L 313 1497 
L 313 2009 
z
" transform="scale(0.015625)"/>
      <path id="DejaVuSans-41" d="M 2188 4044 
L 1331 1722 
L 3047 1722 
L 2188 4044 
z
M 1831 4666 
L 2547 4666 
L 4325 0 
L 3669 0 
L 3244 1197 
L 1141 1197 
L 716 0 
L 50 0 
L 1831 4666 
z
" transform="scale(0.015625)"/>
      <path id="DejaVuSans-56" d="M 1831 0 
L 50 4666 
L 709 4666 
L 2188 738 
L 3669 4666 
L 4325 4666 
L 2547 0 
L 1831 0 
z
" transform="scale(0.015625)"/>
      <path id="DejaVuSans-48" d="M 628 4666 
L 1259 4666 
L 1259 2753 
L 3553 2753 
L 3553 4666 
L 4184 4666 
L 4184 0 
L 3553 0 
L 3553 2222 
L 1259 2222 
L 1259 0 
L 628 0 
L 628 4666 
z
" transform="scale(0.015625)"/>
      <path id="DejaVuSans-46" d="M 628 4666 
L 3309 4666 
L 3309 4134 
L 1259 4134 
L 1259 2759 
L 3109 2759 
L 3109 2228 
L 1259 2228 
L 1259 0 
L 628 0 
L 628 4666 
z
" transform="scale(0.015625)"/>
     </defs>
     <use xlink:href="#DejaVuSans-52"/>
     <use xlink:href="#DejaVuSans-61" x="67.232422"/>
     <use xlink:href="#DejaVuSans-64" x="128.511719"/>
     <use xlink:href="#DejaVuSans-69" x="191.988281"/>
     <use xlink:href="#DejaVuSans-61" x="219.771484"/>
     <use xlink:href="#DejaVuSans-74" x="281.050781"/>
     <use xlink:href="#DejaVuSans-69" x="320.259766"/>
     <use xlink:href="#DejaVuSans-6f" x="348.042969"/>
     <use xlink:href="#DejaVuSans-6e" x="409.224609"/>
     <use xlink:href="#DejaVuSans-20" x="472.603516"/>
     <use xlink:href="#DejaVuSans-44" x="504.390625"/>
     <use xlink:href="#DejaVuSans-69" x="581.392578"/>
     <use xlink:href="#DejaVuSans-61" x="609.175781"/>
     <use xlink:href="#DejaVuSans-67" x="670.455078"/>
     <use xlink:href="#DejaVuSans-72" x="733.931641"/>
     <use xlink:href="#DejaVuSans-61" x="775.044922"/>
     <use xlink:href="#DejaVuSans-6d" x="836.324219"/>
     <use xlink:href="#DejaVuSans-20" x="933.736328"/>
     <use xlink:href="#DejaVuSans-2d" x="965.523438"/>
     <use xlink:href="#DejaVuSans-20" x="1001.607422"/>
     <use xlink:href="#DejaVuSans-32" x="1033.394531"/>
     <use xlink:href="#DejaVuSans-41" x="1097.017578"/>
     <use xlink:href="#DejaVuSans-56" x="1159.050781"/>
     <use xlink:href="#DejaVuSans-48" x="1227.458984"/>
     <use xlink:href="#DejaVuSans-46" x="1302.654297"/>
     <use xlink:href="#DejaVuSans-30" x="1360.173828"/>
     <use xlink:href="#DejaVuSans-39" x="1423.796875"/>
    </g>
   </g>
   <g id="legend_1">
    <g id="patch_4">
     <path d="M 304.104062 78.513438 
L 358.88375 78.513438 
Q 360.88375 78.513438 360.88375 76.513438 
L 360.88375 48.157188 
Q 360.88375 46.157188 358.88375 46.157188 
L 304.104062 46.157188 
Q 302.104062 46.157188 302.104062 48.157188 
L 302.104062 76.513438 
Q 302.104062 78.513438 304.104062 78.513438 
z
" style="fill: #ffffff; opacity: 0.8; stroke: #cccccc; stroke-linejoin: miter"/>
    </g>
    <g id="line2d_21">
     <path d="M 306.104062 54.255625 
L 316.104062 54.255625 
L 326.104062 54.255625 
" style="fill: none; stroke: #ff0000; stroke-width: 1.5; stroke-linecap: square"/>
    </g>
    <g id="text_20">
     <!-- INPE -->
     <g transform="translate(334.104062 57.755625)scale(0.1 -0.1)">
      <defs>
       <path id="DejaVuSans-49" d="M 628 4666 
L 1259 4666 
L 1259 0 
L 628 0 
L 628 4666 
z
" transform="scale(0.015625)"/>
       <path id="DejaVuSans-4e" d="M 628 4666 
L 1478 4666 
L 3547 763 
L 3547 4666 
L 4159 4666 
L 4159 0 
L 3309 0 
L 1241 3903 
L 1241 0 
L 628 0 
L 628 4666 
z
" transform="scale(0.015625)"/>
       <path id="DejaVuSans-50" d="M 1259 4147 
L 1259 2394 
L 2053 2394 
Q 2494 2394 2734 2622 
Q 2975 2850 2975 3272 
Q 2975 3691 2734 3919 
Q 2494 4147 2053 4147 
L 1259 4147 
z
M 628 4666 
L 2053 4666 
Q 2838 4666 3239 4311 
Q 3641 3956 3641 3272 
Q 3641 2581 3239 2228 
Q 2838 1875 2053 1875 
L 1259 1875 
L 1259 0 
L 628 0 
L 628 4666 
z
" transform="scale(0.015625)"/>
       <path id="DejaVuSans-45" d="M 628 4666 
L 3578 4666 
L 3578 4134 
L 1259 4134 
L 1259 2753 
L 3481 2753 
L 3481 2222 
L 1259 2222 
L 1259 531 
L 3634 531 
L 3634 0 
L 628 0 
L 628 4666 
z
" transform="scale(0.015625)"/>
      </defs>
      <use xlink:href="#DejaVuSans-49"/>
      <use xlink:href="#DejaVuSans-4e" x="29.492188"/>
      <use xlink:href="#DejaVuSans-50" x="104.296875"/>
      <use xlink:href="#DejaVuSans-45" x="164.599609"/>
     </g>
    </g>
    <g id="line2d_22">
     <path d="M 306.104062 68.93375 
L 316.104062 68.93375 
L 326.104062 68.93375 
" style="fill: none; stroke-dasharray: 5.55,2.4; stroke-dashoffset: 0; stroke: #0000ff; stroke-width: 1.5"/>
    </g>
    <g id="text_21">
     <!-- CST -->
     <g transform="translate(334.104062 72.43375)scale(0.1 -0.1)">
      <defs>
       <path id="DejaVuSans-43" d="M 4122 4306 
L 4122 3641 
Q 3803 3938 3442 4084 
Q 3081 4231 2675 4231 
Q 1875 4231 1450 3742 
Q 1025 3253 1025 2328 
Q 1025 1406 1450 917 
Q 1875 428 2675 428 
Q 3081 428 3442 575 
Q 3803 722 4122 1019 
L 4122 359 
Q 3791 134 3420 21 
Q 3050 -91 2638 -91 
Q 1578 -91 968 557 
Q 359 1206 359 2328 
Q 359 3453 968 4101 
Q 1578 4750 2638 4750 
Q 3056 4750 3426 4639 
Q 3797 4528 4122 4306 
z
" transform="scale(0.015625)"/>
       <path id="DejaVuSans-53" d="M 3425 4513 
L 3425 3897 
Q 3066 4069 2747 4153 
Q 2428 4238 2131 4238 
Q 1616 4238 1336 4038 
Q 1056 3838 1056 3469 
Q 1056 3159 1242 3001 
Q 1428 2844 1947 2747 
L 2328 2669 
Q 3034 2534 3370 2195 
Q 3706 1856 3706 1288 
Q 3706 609 3251 259 
Q 2797 -91 1919 -91 
Q 1588 -91 1214 -16 
Q 841 59 441 206 
L 441 856 
Q 825 641 1194 531 
Q 1563 422 1919 422 
Q 2459 422 2753 634 
Q 3047 847 3047 1241 
Q 3047 1584 2836 1778 
Q 2625 1972 2144 2069 
L 1759 2144 
Q 1053 2284 737 2584 
Q 422 2884 422 3419 
Q 422 4038 858 4394 
Q 1294 4750 2059 4750 
Q 2388 4750 2728 4690 
Q 3069 4631 3425 4513 
z
" transform="scale(0.015625)"/>
       <path id="DejaVuSans-54" d="M -19 4666 
L 3928 4666 
L 3928 4134 
L 2272 4134 
L 2272 0 
L 1638 0 
L 1638 4134 
L -19 4134 
L -19 4666 
z
" transform="scale(0.015625)"/>
      </defs>
      <use xlink:href="#DejaVuSans-43"/>
      <use xlink:href="#DejaVuSans-53" x="69.824219"/>
      <use xlink:href="#DejaVuSans-54" x="133.300781"/>
     </g>
    </g>
   </g>
  </g>
 </g>
 <defs>
  <clipPath id="pf9432d0dd7">
   <path d="M 365.88375 207.477188 
C 365.88375 185.636245 361.581561 164.007679 353.223394 143.829279 
C 344.865227 123.650879 332.613628 105.315066 317.16975 89.871188 
C 301.725871 74.427309 283.390058 62.17571 263.211658 53.817544 
C 243.033259 45.459377 221.404692 41.157188 199.56375 41.157188 
C 177.722808 41.157188 156.094241 45.459377 135.915842 53.817544 
C 115.737442 62.17571 97.401629 74.427309 81.95775 89.871188 
C 66.513872 105.315066 54.262273 123.650879 45.904106 143.829279 
C 37.545939 164.007679 33.24375 185.636245 33.24375 207.477188 
C 33.24375 229.31813 37.545939 250.946696 45.904106 271.125096 
C 54.262273 291.303496 66.513872 309.639309 81.95775 325.083187 
C 97.401629 340.527066 115.737442 352.778665 135.915842 361.136831 
C 156.094241 369.494998 177.722808 373.797188 199.56375 373.797188 
C 221.404692 373.797188 243.033259 369.494998 263.211658 361.136831 
C 283.390058 352.778665 301.725871 340.527066 317.16975 325.083187 
C 332.613628 309.639309 344.865227 291.303496 353.223394 271.125096 
C 361.581561 250.946696 365.88375 229.31813 365.88375 207.477188 
M 199.56375 207.477188 
C 199.56375 207.477188 199.56375 207.477188 199.56375 207.477188 
C 199.56375 207.477188 199.56375 207.477188 199.56375 207.477188 
C 199.56375 207.477188 199.56375 207.477188 199.56375 207.477188 
C 199.56375 207.477188 199.56375 207.477188 199.56375 207.477188 
C 199.56375 207.477188 199.56375 207.477188 199.56375 207.477188 
C 199.56375 207.477188 199.56375 207.477188 199.56375 207.477188 
C 199.56375 207.477188 199.56375 207.477188 199.56375 207.477188 
C 199.56375 207.477188 199.56375 207.477188 199.56375 207.477188 
C 199.56375 207.477188 199.56375 207.477188 199.56375 207.477188 
C 199.56375 207.477188 199.56375 207.477188 199.56375 207.477188 
C 199.56375 207.477188 199.56375 207.477188 199.56375 207.477188 
C 199.56375 207.477188 199.56375 207.477188 199.56375 207.477188 
C 199.56375 207.477188 199.56375 207.477188 199.56375 207.477188 
C 199.56375 207.477188 199.56375 207.477188 199.56375 207.477188 
C 199.56375 207.477188 199.56375 207.477188 199.56375 207.477188 
C 199.56375 207.477188 199.56375 207.477188 199.56375 207.477188 
M 365.88375 207.477188 
z
"/>
  </clipPath>
 </defs>
</svg>
