<?xml version="1.0" encoding="utf-8" standalone="no"?>
<!DOCTYPE svg PUBLIC "-//W3C//DTD SVG 1.1//EN"
  "http://www.w3.org/Graphics/SVG/1.1/DTD/svg11.dtd">
<svg xmlns:xlink="http://www.w3.org/1999/xlink" width="506.82625pt" height="514.053188pt" viewBox="0 0 506.82625 514.053188" xmlns="http://www.w3.org/2000/svg" version="1.1">
 <metadata>
  <rdf:RDF xmlns:dc="http://purl.org/dc/elements/1.1/" xmlns:cc="http://creativecommons.org/ns#" xmlns:rdf="http://www.w3.org/1999/02/22-rdf-syntax-ns#">
   <cc:Work>
    <dc:type rdf:resource="http://purl.org/dc/dcmitype/StillImage"/>
    <dc:date>2023-11-04T18:36:38.704333</dc:date>
    <dc:format>image/svg+xml</dc:format>
    <dc:creator>
     <cc:Agent>
      <dc:title>Matplotlib v3.5.1, https://matplotlib.org/</dc:title>
     </cc:Agent>
    </dc:creator>
   </cc:Work>
  </rdf:RDF>
 </metadata>
 <defs>
  <style type="text/css">*{stroke-linejoin: round; stroke-linecap: butt}</style>
 </defs>
 <g id="figure_1">
  <g id="patch_1">
   <path d="M 0 514.053188 
L 506.82625 514.053188 
L 506.82625 0 
L 0 0 
z
" style="fill: #ffffff"/>
  </g>
  <g id="axes_1">
   <g id="patch_2">
    <path d="M 473.5825 262.917188 
C 473.5825 233.795931 467.846247 204.957842 456.702025 178.05331 
C 445.557803 151.148777 429.222338 126.701026 408.6305 106.109188 
C 388.038662 85.51735 363.590911 69.181885 336.686378 58.037662 
C 309.781845 46.89344 280.943756 41.157188 251.8225 41.157188 
C 222.701244 41.157188 193.863155 46.89344 166.958622 58.037662 
C 140.054089 69.181885 115.606338 85.51735 95.0145 106.109188 
C 74.422662 126.701026 58.087197 151.148777 46.942975 178.05331 
C 35.798753 204.957842 30.0625 233.795931 30.0625 262.917188 
C 30.0625 292.038444 35.798753 320.876533 46.942975 347.781065 
C 58.087197 374.685598 74.422662 399.133349 95.0145 419.725187 
C 115.606338 440.317025 140.054089 456.65249 166.958622 467.796713 
C 193.863155 478.940935 222.701244 484.677188 251.8225 484.677188 
C 280.943756 484.677188 309.781845 478.940935 336.686378 467.796713 
C 363.590911 456.65249 388.038662 440.317025 408.6305 419.725187 
C 429.222338 399.133349 445.557803 374.685598 456.702025 347.781065 
C 467.846247 320.876533 473.5825 292.038444 473.5825 262.917188 
M 251.8225 262.917188 
C 251.8225 262.917188 251.8225 262.917188 251.8225 262.917188 
C 251.8225 262.917188 251.8225 262.917188 251.8225 262.917188 
C 251.8225 262.917188 251.8225 262.917188 251.8225 262.917188 
C 251.8225 262.917188 251.8225 262.917188 251.8225 262.917188 
C 251.8225 262.917188 251.8225 262.917188 251.8225 262.917188 
C 251.8225 262.917188 251.8225 262.917188 251.8225 262.917188 
C 251.8225 262.917188 251.8225 262.917188 251.8225 262.917188 
C 251.8225 262.917188 251.8225 262.917188 251.8225 262.917188 
C 251.8225 262.917188 251.8225 262.917188 251.8225 262.917188 
C 251.8225 262.917188 251.8225 262.917188 251.8225 262.917188 
C 251.8225 262.917188 251.8225 262.917188 251.8225 262.917188 
C 251.8225 262.917188 251.8225 262.917188 251.8225 262.917188 
C 251.8225 262.917188 251.8225 262.917188 251.8225 262.917188 
C 251.8225 262.917188 251.8225 262.917188 251.8225 262.917188 
C 251.8225 262.917188 251.8225 262.917188 251.8225 262.917188 
C 251.8225 262.917188 251.8225 262.917188 251.8225 262.917188 
M 473.5825 262.917188 
z
" style="fill: #ffffff"/>
   </g>
   <g id="matplotlib.axis_1">
    <g id="xtick_1">
     <g id="line2d_1">
      <path d="M 251.8225 262.917188 
L 251.8225 41.157188 
" clip-path="url(#p5c7e8408f4)" style="fill: none; stroke: #b0b0b0; stroke-width: 0.8; stroke-linecap: square"/>
     </g>
     <g id="text_1">
      <!-- 0° -->
      <g transform="translate(246.14125 29.916563)scale(0.1 -0.1)">
       <defs>
        <path id="DejaVuSans-30" d="M 2034 4250 
Q 1547 4250 1301 3770 
Q 1056 3291 1056 2328 
Q 1056 1369 1301 889 
Q 1547 409 2034 409 
Q 2525 409 2770 889 
Q 3016 1369 3016 2328 
Q 3016 3291 2770 3770 
Q 2525 4250 2034 4250 
z
M 2034 4750 
Q 2819 4750 3233 4129 
Q 3647 3509 3647 2328 
Q 3647 1150 3233 529 
Q 2819 -91 2034 -91 
Q 1250 -91 836 529 
Q 422 1150 422 2328 
Q 422 3509 836 4129 
Q 1250 4750 2034 4750 
z
" transform="scale(0.015625)"/>
        <path id="DejaVuSans-b0" d="M 1600 4347 
Q 1350 4347 1178 4173 
Q 1006 4000 1006 3750 
Q 1006 3503 1178 3333 
Q 1350 3163 1600 3163 
Q 1850 3163 2022 3333 
Q 2194 3503 2194 3750 
Q 2194 3997 2020 4172 
Q 1847 4347 1600 4347 
z
M 1600 4750 
Q 1800 4750 1984 4673 
Q 2169 4597 2303 4453 
Q 2447 4313 2519 4134 
Q 2591 3956 2591 3750 
Q 2591 3338 2302 3052 
Q 2013 2766 1594 2766 
Q 1172 2766 890 3047 
Q 609 3328 609 3750 
Q 609 4169 896 4459 
Q 1184 4750 1600 4750 
z
" transform="scale(0.015625)"/>
       </defs>
       <use xlink:href="#DejaVuSans-30"/>
       <use xlink:href="#DejaVuSans-b0" x="63.623047"/>
      </g>
     </g>
    </g>
    <g id="xtick_2">
     <g id="line2d_2">
      <path d="M 251.8225 262.917188 
L 95.0145 106.109188 
" clip-path="url(#p5c7e8408f4)" style="fill: none; stroke: #b0b0b0; stroke-width: 0.8; stroke-linecap: square"/>
     </g>
     <g id="text_2">
      <!-- 45° -->
      <g transform="translate(76.252505 98.969068)scale(0.1 -0.1)">
       <defs>
        <path id="DejaVuSans-34" d="M 2419 4116 
L 825 1625 
L 2419 1625 
L 2419 4116 
z
M 2253 4666 
L 3047 4666 
L 3047 1625 
L 3713 1625 
L 3713 1100 
L 3047 1100 
L 3047 0 
L 2419 0 
L 2419 1100 
L 313 1100 
L 313 1709 
L 2253 4666 
z
" transform="scale(0.015625)"/>
        <path id="DejaVuSans-35" d="M 691 4666 
L 3169 4666 
L 3169 4134 
L 1269 4134 
L 1269 2991 
Q 1406 3038 1543 3061 
Q 1681 3084 1819 3084 
Q 2600 3084 3056 2656 
Q 3513 2228 3513 1497 
Q 3513 744 3044 326 
Q 2575 -91 1722 -91 
Q 1428 -91 1123 -41 
Q 819 9 494 109 
L 494 744 
Q 775 591 1075 516 
Q 1375 441 1709 441 
Q 2250 441 2565 725 
Q 2881 1009 2881 1497 
Q 2881 1984 2565 2268 
Q 2250 2553 1709 2553 
Q 1456 2553 1204 2497 
Q 953 2441 691 2322 
L 691 4666 
z
" transform="scale(0.015625)"/>
       </defs>
       <use xlink:href="#DejaVuSans-34"/>
       <use xlink:href="#DejaVuSans-35" x="63.623047"/>
       <use xlink:href="#DejaVuSans-b0" x="127.246094"/>
      </g>
     </g>
    </g>
    <g id="xtick_3">
     <g id="line2d_3">
      <path d="M 251.8225 262.917188 
L 30.0625 262.917188 
" clip-path="url(#p5c7e8408f4)" style="fill: none; stroke: #b0b0b0; stroke-width: 0.8; stroke-linecap: square"/>
     </g>
     <g id="text_3">
      <!-- 90° -->
      <g transform="translate(7.2 265.676563)scale(0.1 -0.1)">
       <defs>
        <path id="DejaVuSans-39" d="M 703 97 
L 703 672 
Q 941 559 1184 500 
Q 1428 441 1663 441 
Q 2288 441 2617 861 
Q 2947 1281 2994 2138 
Q 2813 1869 2534 1725 
Q 2256 1581 1919 1581 
Q 1219 1581 811 2004 
Q 403 2428 403 3163 
Q 403 3881 828 4315 
Q 1253 4750 1959 4750 
Q 2769 4750 3195 4129 
Q 3622 3509 3622 2328 
Q 3622 1225 3098 567 
Q 2575 -91 1691 -91 
Q 1453 -91 1209 -44 
Q 966 3 703 97 
z
M 1959 2075 
Q 2384 2075 2632 2365 
Q 2881 2656 2881 3163 
Q 2881 3666 2632 3958 
Q 2384 4250 1959 4250 
Q 1534 4250 1286 3958 
Q 1038 3666 1038 3163 
Q 1038 2656 1286 2365 
Q 1534 2075 1959 2075 
z
" transform="scale(0.015625)"/>
       </defs>
       <use xlink:href="#DejaVuSans-39"/>
       <use xlink:href="#DejaVuSans-30" x="63.623047"/>
       <use xlink:href="#DejaVuSans-b0" x="127.246094"/>
      </g>
     </g>
    </g>
    <g id="xtick_4">
     <g id="line2d_4">
      <path d="M 251.8225 262.917188 
L 95.0145 419.725187 
" clip-path="url(#p5c7e8408f4)" style="fill: none; stroke: #b0b0b0; stroke-width: 0.8; stroke-linecap: square"/>
     </g>
     <g id="text_4">
      <!-- 135° -->
      <g transform="translate(73.071255 432.384057)scale(0.1 -0.1)">
       <defs>
        <path id="DejaVuSans-31" d="M 794 531 
L 1825 531 
L 1825 4091 
L 703 3866 
L 703 4441 
L 1819 4666 
L 2450 4666 
L 2450 531 
L 3481 531 
L 3481 0 
L 794 0 
L 794 531 
z
" transform="scale(0.015625)"/>
        <path id="DejaVuSans-33" d="M 2597 2516 
Q 3050 2419 3304 2112 
Q 3559 1806 3559 1356 
Q 3559 666 3084 287 
Q 2609 -91 1734 -91 
Q 1441 -91 1130 -33 
Q 819 25 488 141 
L 488 750 
Q 750 597 1062 519 
Q 1375 441 1716 441 
Q 2309 441 2620 675 
Q 2931 909 2931 1356 
Q 2931 1769 2642 2001 
Q 2353 2234 1838 2234 
L 1294 2234 
L 1294 2753 
L 1863 2753 
Q 2328 2753 2575 2939 
Q 2822 3125 2822 3475 
Q 2822 3834 2567 4026 
Q 2313 4219 1838 4219 
Q 1578 4219 1281 4162 
Q 984 4106 628 3988 
L 628 4550 
Q 988 4650 1302 4700 
Q 1616 4750 1894 4750 
Q 2613 4750 3031 4423 
Q 3450 4097 3450 3541 
Q 3450 3153 3228 2886 
Q 3006 2619 2597 2516 
z
" transform="scale(0.015625)"/>
       </defs>
       <use xlink:href="#DejaVuSans-31"/>
       <use xlink:href="#DejaVuSans-33" x="63.623047"/>
       <use xlink:href="#DejaVuSans-35" x="127.246094"/>
       <use xlink:href="#DejaVuSans-b0" x="190.869141"/>
      </g>
     </g>
    </g>
    <g id="xtick_5">
     <g id="line2d_5">
      <path d="M 251.8225 262.917188 
L 251.8225 484.677188 
" clip-path="url(#p5c7e8408f4)" style="fill: none; stroke: #b0b0b0; stroke-width: 0.8; stroke-linecap: square"/>
     </g>
     <g id="text_5">
      <!-- 180° -->
      <g transform="translate(239.77875 501.436563)scale(0.1 -0.1)">
       <defs>
        <path id="DejaVuSans-38" d="M 2034 2216 
Q 1584 2216 1326 1975 
Q 1069 1734 1069 1313 
Q 1069 891 1326 650 
Q 1584 409 2034 409 
Q 2484 409 2743 651 
Q 3003 894 3003 1313 
Q 3003 1734 2745 1975 
Q 2488 2216 2034 2216 
z
M 1403 2484 
Q 997 2584 770 2862 
Q 544 3141 544 3541 
Q 544 4100 942 4425 
Q 1341 4750 2034 4750 
Q 2731 4750 3128 4425 
Q 3525 4100 3525 3541 
Q 3525 3141 3298 2862 
Q 3072 2584 2669 2484 
Q 3125 2378 3379 2068 
Q 3634 1759 3634 1313 
Q 3634 634 3220 271 
Q 2806 -91 2034 -91 
Q 1263 -91 848 271 
Q 434 634 434 1313 
Q 434 1759 690 2068 
Q 947 2378 1403 2484 
z
M 1172 3481 
Q 1172 3119 1398 2916 
Q 1625 2713 2034 2713 
Q 2441 2713 2670 2916 
Q 2900 3119 2900 3481 
Q 2900 3844 2670 4047 
Q 2441 4250 2034 4250 
Q 1625 4250 1398 4047 
Q 1172 3844 1172 3481 
z
" transform="scale(0.015625)"/>
       </defs>
       <use xlink:href="#DejaVuSans-31"/>
       <use xlink:href="#DejaVuSans-38" x="63.623047"/>
       <use xlink:href="#DejaVuSans-30" x="127.246094"/>
       <use xlink:href="#DejaVuSans-b0" x="190.869141"/>
      </g>
     </g>
    </g>
    <g id="xtick_6">
     <g id="line2d_6">
      <path d="M 251.8225 262.917188 
L 408.6305 419.725187 
" clip-path="url(#p5c7e8408f4)" style="fill: none; stroke: #b0b0b0; stroke-width: 0.8; stroke-linecap: square"/>
     </g>
     <g id="text_6">
      <!-- 225° -->
      <g transform="translate(406.486245 432.384057)scale(0.1 -0.1)">
       <defs>
        <path id="DejaVuSans-32" d="M 1228 531 
L 3431 531 
L 3431 0 
L 469 0 
L 469 531 
Q 828 903 1448 1529 
Q 2069 2156 2228 2338 
Q 2531 2678 2651 2914 
Q 2772 3150 2772 3378 
Q 2772 3750 2511 3984 
Q 2250 4219 1831 4219 
Q 1534 4219 1204 4116 
Q 875 4013 500 3803 
L 500 4441 
Q 881 4594 1212 4672 
Q 1544 4750 1819 4750 
Q 2544 4750 2975 4387 
Q 3406 4025 3406 3419 
Q 3406 3131 3298 2873 
Q 3191 2616 2906 2266 
Q 2828 2175 2409 1742 
Q 1991 1309 1228 531 
z
" transform="scale(0.015625)"/>
       </defs>
       <use xlink:href="#DejaVuSans-32"/>
       <use xlink:href="#DejaVuSans-32" x="63.623047"/>
       <use xlink:href="#DejaVuSans-35" x="127.246094"/>
       <use xlink:href="#DejaVuSans-b0" x="190.869141"/>
      </g>
     </g>
    </g>
    <g id="xtick_7">
     <g id="line2d_7">
      <path d="M 251.8225 262.917188 
L 473.5825 262.917188 
" clip-path="url(#p5c7e8408f4)" style="fill: none; stroke: #b0b0b0; stroke-width: 0.8; stroke-linecap: square"/>
     </g>
     <g id="text_7">
      <!-- 270° -->
      <g transform="translate(475.53875 265.676563)scale(0.1 -0.1)">
       <defs>
        <path id="DejaVuSans-37" d="M 525 4666 
L 3525 4666 
L 3525 4397 
L 1831 0 
L 1172 0 
L 2766 4134 
L 525 4134 
L 525 4666 
z
" transform="scale(0.015625)"/>
       </defs>
       <use xlink:href="#DejaVuSans-32"/>
       <use xlink:href="#DejaVuSans-37" x="63.623047"/>
       <use xlink:href="#DejaVuSans-30" x="127.246094"/>
       <use xlink:href="#DejaVuSans-b0" x="190.869141"/>
      </g>
     </g>
    </g>
    <g id="xtick_8">
     <g id="line2d_8">
      <path d="M 251.8225 262.917188 
L 408.6305 106.109188 
" clip-path="url(#p5c7e8408f4)" style="fill: none; stroke: #b0b0b0; stroke-width: 0.8; stroke-linecap: square"/>
     </g>
     <g id="text_8">
      <!-- 315° -->
      <g transform="translate(406.486245 98.969068)scale(0.1 -0.1)">
       <use xlink:href="#DejaVuSans-33"/>
       <use xlink:href="#DejaVuSans-31" x="63.623047"/>
       <use xlink:href="#DejaVuSans-35" x="127.246094"/>
       <use xlink:href="#DejaVuSans-b0" x="190.869141"/>
      </g>
     </g>
    </g>
   </g>
   <g id="matplotlib.axis_2">
    <g id="ytick_1">
     <g id="line2d_9">
      <path d="M 251.8225 241.325077 
C 248.98705 241.325077 246.179171 241.883599 243.559557 242.968679 
C 240.939943 244.053758 238.559538 245.644294 236.554572 247.64926 
C 234.549607 249.654226 232.959071 252.03463 231.873991 254.654245 
C 230.788912 257.273859 230.23039 260.081738 230.23039 262.917188 
C 230.23039 265.752637 230.788912 268.560516 231.873991 271.18013 
C 232.959071 273.799745 234.549607 276.180149 236.554572 278.185115 
C 238.559538 280.190081 240.939943 281.780617 243.559557 282.865696 
C 246.179171 283.950776 248.98705 284.509298 251.8225 284.509298 
C 254.65795 284.509298 257.465829 283.950776 260.085443 282.865696 
C 262.705057 281.780617 265.085462 280.190081 267.090428 278.185115 
C 269.095393 276.180149 270.685929 273.799745 271.771009 271.18013 
C 272.856088 268.560516 273.41461 265.752637 273.41461 262.917188 
C 273.41461 260.081738 272.856088 257.273859 271.771009 254.654245 
C 270.685929 252.03463 269.095393 249.654226 267.090428 247.64926 
C 265.085462 245.644294 262.705057 244.053758 260.085443 242.968679 
C 257.465829 241.883599 254.65795 241.325077 251.8225 241.325077 
" clip-path="url(#p5c7e8408f4)" style="fill: none; stroke: #b0b0b0; stroke-width: 0.8; stroke-linecap: square"/>
     </g>
     <g id="text_9">
      <!-- −35 -->
      <g transform="translate(243.559557 240.888991)scale(0.1 -0.1)">
       <defs>
        <path id="DejaVuSans-2212" d="M 678 2272 
L 4684 2272 
L 4684 1741 
L 678 1741 
L 678 2272 
z
" transform="scale(0.015625)"/>
       </defs>
       <use xlink:href="#DejaVuSans-2212"/>
       <use xlink:href="#DejaVuSans-33" x="83.789062"/>
       <use xlink:href="#DejaVuSans-35" x="147.412109"/>
      </g>
     </g>
    </g>
    <g id="ytick_2">
     <g id="line2d_10">
      <path d="M 251.8225 212.729664 
C 245.231935 212.729664 238.705455 214.027862 232.616566 216.549962 
C 226.527678 219.072062 220.994795 222.769016 216.334562 227.42925 
C 211.674329 232.089483 207.977375 237.622366 205.455275 243.711254 
C 202.933175 249.800142 201.634977 256.326622 201.634977 262.917188 
C 201.634977 269.507753 202.933175 276.034233 205.455275 282.123121 
C 207.977375 288.212009 211.674329 293.744892 216.334562 298.405125 
C 220.994795 303.065359 226.527678 306.762313 232.616566 309.284413 
C 238.705455 311.806513 245.231935 313.104711 251.8225 313.104711 
C 258.413065 313.104711 264.939545 311.806513 271.028434 309.284413 
C 277.117322 306.762313 282.650205 303.065359 287.310438 298.405125 
C 291.970671 293.744892 295.667625 288.212009 298.189725 282.123121 
C 300.711825 276.034233 302.010023 269.507753 302.010023 262.917188 
C 302.010023 256.326622 300.711825 249.800142 298.189725 243.711254 
C 295.667625 237.622366 291.970671 232.089483 287.310438 227.42925 
C 282.650205 222.769016 277.117322 219.072062 271.028434 216.549962 
C 264.939545 214.027862 258.413065 212.729664 251.8225 212.729664 
" clip-path="url(#p5c7e8408f4)" style="fill: none; stroke: #b0b0b0; stroke-width: 0.8; stroke-linecap: square"/>
     </g>
     <g id="text_10">
      <!-- −30 -->
      <g transform="translate(232.616566 214.470275)scale(0.1 -0.1)">
       <use xlink:href="#DejaVuSans-2212"/>
       <use xlink:href="#DejaVuSans-33" x="83.789062"/>
       <use xlink:href="#DejaVuSans-30" x="147.412109"/>
      </g>
     </g>
    </g>
    <g id="ytick_3">
     <g id="line2d_11">
      <path d="M 251.8225 184.134252 
C 241.47682 184.134252 231.231738 186.172125 221.673576 190.131246 
C 212.115413 194.090366 203.430053 199.893739 196.114552 207.209239 
C 188.799051 214.52474 182.995678 223.210101 179.036558 232.768263 
C 175.077438 242.326426 173.039564 252.571507 173.039564 262.917188 
C 173.039564 273.262868 175.077438 283.507949 179.036558 293.066112 
C 182.995678 302.624274 188.799051 311.309635 196.114552 318.625136 
C 203.430053 325.940636 212.115413 331.744009 221.673576 335.703129 
C 231.231738 339.66225 241.47682 341.700123 251.8225 341.700123 
C 262.16818 341.700123 272.413262 339.66225 281.971424 335.703129 
C 291.529587 331.744009 300.214947 325.940636 307.530448 318.625136 
C 314.845949 311.309635 320.649322 302.624274 324.608442 293.066112 
C 328.567562 283.507949 330.605436 273.262868 330.605436 262.917188 
C 330.605436 252.571507 328.567562 242.326426 324.608442 232.768263 
C 320.649322 223.210101 314.845949 214.52474 307.530448 207.209239 
C 300.214947 199.893739 291.529587 194.090366 281.971424 190.131246 
C 272.413262 186.172125 262.16818 184.134252 251.8225 184.134252 
" clip-path="url(#p5c7e8408f4)" style="fill: none; stroke: #b0b0b0; stroke-width: 0.8; stroke-linecap: square"/>
     </g>
     <g id="text_11">
      <!-- −25 -->
      <g transform="translate(221.673576 188.051558)scale(0.1 -0.1)">
       <use xlink:href="#DejaVuSans-2212"/>
       <use xlink:href="#DejaVuSans-32" x="83.789062"/>
       <use xlink:href="#DejaVuSans-35" x="147.412109"/>
      </g>
     </g>
    </g>
    <g id="ytick_4">
     <g id="line2d_12">
      <path d="M 251.8225 155.538839 
C 237.721704 155.538839 223.758021 158.316388 210.730585 163.712529 
C 197.703149 169.10867 185.86531 177.018461 175.894541 186.989229 
C 165.923773 196.959997 158.013982 208.797836 152.617841 221.825272 
C 147.221701 234.852709 144.444151 248.816392 144.444151 262.917188 
C 144.444151 277.017983 147.221701 290.981666 152.617841 304.009103 
C 158.013982 317.036539 165.923773 328.874378 175.894541 338.845146 
C 185.86531 348.815914 197.703149 356.725705 210.730585 362.121846 
C 223.758021 367.517987 237.721704 370.295536 251.8225 370.295536 
C 265.923296 370.295536 279.886979 367.517987 292.914415 362.121846 
C 305.941851 356.725705 317.77969 348.815914 327.750459 338.845146 
C 337.721227 328.874378 345.631018 317.036539 351.027159 304.009103 
C 356.423299 290.981666 359.200849 277.017983 359.200849 262.917188 
C 359.200849 248.816392 356.423299 234.852709 351.027159 221.825272 
C 345.631018 208.797836 337.721227 196.959997 327.750459 186.989229 
C 317.77969 177.018461 305.941851 169.10867 292.914415 163.712529 
C 279.886979 158.316388 265.923296 155.538839 251.8225 155.538839 
" clip-path="url(#p5c7e8408f4)" style="fill: none; stroke: #b0b0b0; stroke-width: 0.8; stroke-linecap: square"/>
     </g>
     <g id="text_12">
      <!-- −20 -->
      <g transform="translate(210.730585 161.632841)scale(0.1 -0.1)">
       <use xlink:href="#DejaVuSans-2212"/>
       <use xlink:href="#DejaVuSans-32" x="83.789062"/>
       <use xlink:href="#DejaVuSans-30" x="147.412109"/>
      </g>
     </g>
    </g>
    <g id="ytick_5">
     <g id="line2d_13">
      <path d="M 251.8225 126.943426 
C 233.966589 126.943426 216.284305 130.460651 199.787594 137.293812 
C 183.290884 144.126973 168.300567 154.143183 155.674531 166.769219 
C 143.048496 179.395254 133.032286 194.385571 126.199125 210.882282 
C 119.365964 227.378992 115.848738 245.061277 115.848738 262.917188 
C 115.848738 280.773098 119.365964 298.455383 126.199125 314.952093 
C 133.032286 331.448804 143.048496 346.439121 155.674531 359.065156 
C 168.300567 371.691192 183.290884 381.707402 199.787594 388.540563 
C 216.284305 395.373724 233.966589 398.890949 251.8225 398.890949 
C 269.678411 398.890949 287.360695 395.373724 303.857406 388.540563 
C 320.354116 381.707402 335.344433 371.691192 347.970469 359.065156 
C 360.596504 346.439121 370.612714 331.448804 377.445875 314.952093 
C 384.279036 298.455383 387.796262 280.773098 387.796262 262.917188 
C 387.796262 245.061277 384.279036 227.378992 377.445875 210.882282 
C 370.612714 194.385571 360.596504 179.395254 347.970469 166.769219 
C 335.344433 154.143183 320.354116 144.126973 303.857406 137.293812 
C 287.360695 130.460651 269.678411 126.943426 251.8225 126.943426 
" clip-path="url(#p5c7e8408f4)" style="fill: none; stroke: #b0b0b0; stroke-width: 0.8; stroke-linecap: square"/>
     </g>
     <g id="text_13">
      <!-- −15 -->
      <g transform="translate(199.787594 135.214125)scale(0.1 -0.1)">
       <use xlink:href="#DejaVuSans-2212"/>
       <use xlink:href="#DejaVuSans-31" x="83.789062"/>
       <use xlink:href="#DejaVuSans-35" x="147.412109"/>
      </g>
     </g>
    </g>
    <g id="ytick_6">
     <g id="line2d_14">
      <path d="M 251.8225 98.348013 
C 230.211474 98.348013 208.810588 102.604914 188.844603 110.875096 
C 168.878619 119.145277 150.735824 131.267905 135.454521 146.549208 
C 120.173218 161.830511 108.05059 179.973306 99.780408 199.939291 
C 91.510227 219.905276 87.253326 241.306162 87.253326 262.917188 
C 87.253326 284.528213 91.510227 305.929099 99.780408 325.895084 
C 108.05059 345.861069 120.173218 364.003864 135.454521 379.285167 
C 150.735824 394.56647 168.878619 406.689098 188.844603 414.959279 
C 208.810588 423.229461 230.211474 427.486362 251.8225 427.486362 
C 273.433526 427.486362 294.834412 423.229461 314.800397 414.959279 
C 334.766381 406.689098 352.909176 394.56647 368.190479 379.285167 
C 383.471782 364.003864 395.59441 345.861069 403.864592 325.895084 
C 412.134773 305.929099 416.391674 284.528213 416.391674 262.917188 
C 416.391674 241.306162 412.134773 219.905276 403.864592 199.939291 
C 395.59441 179.973306 383.471782 161.830511 368.190479 146.549208 
C 352.909176 131.267905 334.766381 119.145277 314.800397 110.875096 
C 294.834412 102.604914 273.433526 98.348013 251.8225 98.348013 
" clip-path="url(#p5c7e8408f4)" style="fill: none; stroke: #b0b0b0; stroke-width: 0.8; stroke-linecap: square"/>
     </g>
     <g id="text_14">
      <!-- −10 -->
      <g transform="translate(188.844603 108.795408)scale(0.1 -0.1)">
       <use xlink:href="#DejaVuSans-2212"/>
       <use xlink:href="#DejaVuSans-31" x="83.789062"/>
       <use xlink:href="#DejaVuSans-30" x="147.412109"/>
      </g>
     </g>
    </g>
    <g id="ytick_7">
     <g id="line2d_15">
      <path d="M 251.8225 69.7526 
C 226.456359 69.7526 201.336871 74.749177 177.901613 84.456379 
C 154.466354 94.163581 133.171081 108.392628 115.234511 126.329198 
C 97.29794 144.265768 83.068893 165.561042 73.361691 188.9963 
C 63.65449 212.431559 58.657913 237.551046 58.657913 262.917188 
C 58.657913 288.283329 63.65449 313.402816 73.361691 336.838075 
C 83.068893 360.273333 97.29794 381.568607 115.234511 399.505177 
C 133.171081 417.441747 154.466354 431.670794 177.901613 441.377996 
C 201.336871 451.085198 226.456359 456.081775 251.8225 456.081775 
C 277.188641 456.081775 302.308129 451.085198 325.743387 441.377996 
C 349.178646 431.670794 370.473919 417.441747 388.410489 399.505177 
C 406.34706 381.568607 420.576107 360.273333 430.283309 336.838075 
C 439.99051 313.402816 444.987087 288.283329 444.987087 262.917188 
C 444.987087 237.551046 439.99051 212.431559 430.283309 188.9963 
C 420.576107 165.561042 406.34706 144.265768 388.410489 126.329198 
C 370.473919 108.392628 349.178646 94.163581 325.743387 84.456379 
C 302.308129 74.749177 277.188641 69.7526 251.8225 69.7526 
" clip-path="url(#p5c7e8408f4)" style="fill: none; stroke: #b0b0b0; stroke-width: 0.8; stroke-linecap: square"/>
     </g>
     <g id="text_15">
      <!-- −5 -->
      <g transform="translate(177.901613 82.376691)scale(0.1 -0.1)">
       <use xlink:href="#DejaVuSans-2212"/>
       <use xlink:href="#DejaVuSans-35" x="83.789062"/>
      </g>
     </g>
    </g>
    <g id="ytick_8">
     <g id="line2d_16">
      <path d="M 251.8225 41.157188 
C 222.701244 41.157188 193.863155 46.89344 166.958622 58.037662 
C 140.054089 69.181885 115.606338 85.51735 95.0145 106.109188 
C 74.422662 126.701026 58.087197 151.148777 46.942975 178.05331 
C 35.798753 204.957842 30.0625 233.795931 30.0625 262.917188 
C 30.0625 292.038444 35.798753 320.876533 46.942975 347.781065 
C 58.087197 374.685598 74.422662 399.133349 95.0145 419.725187 
C 115.606338 440.317025 140.054089 456.65249 166.958622 467.796713 
C 193.863155 478.940935 222.701244 484.677188 251.8225 484.677188 
C 280.943756 484.677188 309.781845 478.940935 336.686378 467.796713 
C 363.590911 456.65249 388.038662 440.317025 408.6305 419.725187 
C 429.222338 399.133349 445.557803 374.685598 456.702025 347.781065 
C 467.846247 320.876533 473.5825 292.038444 473.5825 262.917188 
C 473.5825 233.795931 467.846247 204.957842 456.702025 178.05331 
C 445.557803 151.148777 429.222338 126.701026 408.6305 106.109188 
C 388.038662 85.51735 363.590911 69.181885 336.686378 58.037662 
C 309.781845 46.89344 280.943756 41.157188 251.8225 41.157188 
" clip-path="url(#p5c7e8408f4)" style="fill: none; stroke: #b0b0b0; stroke-width: 0.8; stroke-linecap: square"/>
     </g>
     <g id="text_16">
      <!-- 0 -->
      <g transform="translate(166.958622 55.957975)scale(0.1 -0.1)">
       <use xlink:href="#DejaVuSans-30"/>
      </g>
     </g>
    </g>
   </g>
   <g id="line2d_17">
    <path d="M 251.8225 448.978674 
L 255.111741 451.357703 
L 258.528519 454.952443 
L 262.034917 457.781718 
L 265.626906 460.329395 
L 269.339285 463.134961 
L 273.025187 464.647277 
L 276.698757 465.51804 
L 280.216513 464.951091 
L 283.586969 463.470151 
L 286.748578 460.992821 
L 292.330883 453.494144 
L 294.285749 446.845724 
L 295.454043 437.91375 
L 296.707498 430.43028 
L 296.19709 417.669774 
L 294.664073 403.045659 
L 292.969427 389.554408 
L 285.703401 361.314469 
L 275.900294 329.070384 
L 261.230792 287.426626 
L 262.413377 289.130528 
L 285.356267 341.917792 
L 297.995505 366.623456 
L 308.60107 384.679224 
L 315.972304 394.443777 
L 324.232327 405.029474 
L 332.847343 415.302753 
L 346.420272 426.765335 
L 353.227167 431.682894 
L 358.984689 434.412538 
L 365.235066 437.557225 
L 370.766573 439.259027 
L 380.243565 439.67362 
L 384.306962 438.730006 
L 388.087512 437.32845 
L 391.38059 435.257076 
L 394.275176 432.685676 
L 396.946201 429.862908 
L 400.932835 422.818445 
L 402.699639 419.155039 
L 405.28754 411.116654 
L 405.725806 406.434342 
L 405.737773 401.503122 
L 406.268371 397.174935 
L 405.56503 391.922487 
L 403.726293 385.926453 
L 402.600635 380.717977 
L 399.065841 373.873004 
L 395.117662 367.027216 
L 392.181161 361.19738 
L 387.175505 354.213942 
L 384.733629 349.230684 
L 384.866598 346.052367 
L 388.267933 344.901875 
L 393.219284 344.552659 
L 398.023859 343.957924 
L 405.546223 344.653541 
L 411.851408 344.455989 
L 417.752966 343.846883 
L 424.40111 343.391915 
L 428.621508 341.633178 
L 432.811164 339.742317 
L 436.367399 337.478166 
L 438.628317 334.625222 
L 440.619851 331.633803 
L 442.385191 328.533184 
L 443.392541 325.162067 
L 444.077782 321.695526 
L 445.046837 318.323374 
L 446.188775 314.997474 
L 447.073647 311.598766 
L 447.191385 308.021649 
L 447.601976 304.5314 
L 447.490009 300.951098 
L 446.997552 297.331815 
L 445.907735 293.657269 
L 443.339423 289.833136 
L 441.202892 286.170176 
L 438.889562 282.578728 
L 435.700361 279.004416 
L 433.414324 275.615325 
L 430.301469 272.270874 
L 426.699528 269.024028 
L 424.046168 265.923363 
L 420.234898 262.917188 
L 415.760479 260.055639 
L 411.7761 257.331485 
L 404.515199 254.914902 
L 390.520615 250.782675 
L 379.116968 249.538 
L 367.72688 248.685919 
L 355.04663 248.409982 
L 330.60141 250.439834 
L 309.707122 252.710567 
L 288.473263 255.793001 
L 275.051749 257.979658 
L 289.890775 254.128434 
L 304.675591 249.739432 
L 319.844578 244.690727 
L 330.879527 240.24795 
L 340.398426 235.836809 
L 348.212492 231.59818 
L 353.177683 228.017799 
L 369.827082 217.619472 
L 380.535242 208.28187 
L 385.131589 203.564157 
L 387.734806 199.540238 
L 391.840828 194.625686 
L 395.213817 189.855662 
L 398.333985 181.704545 
L 398.132532 178.445051 
L 397.268391 175.524479 
L 396.05083 172.793324 
L 394.134624 170.498613 
L 391.120295 168.959639 
L 386.254892 168.786613 
L 381.42223 168.757472 
L 374.748671 170.285673 
L 362.630726 176.344314 
L 350.39155 183.097545 
L 329.540297 197.704212 
L 259.792233 255.989204 
L 307.105549 213.140106 
L 340.957127 179.797803 
L 355.62377 162.677467 
L 361.671548 153.06814 
L 367.635631 142.98918 
L 370.462872 135.690965 
L 370.723308 130.864462 
L 371.435974 125.317626 
L 370.104455 121.954243 
L 367.73787 119.773626 
L 364.641048 118.516031 
L 360.878426 118.195085 
L 356.117417 119.36755 
L 342.777061 128.071506 
L 334.47295 135.646656 
L 323.026002 148.967764 
L 317.4005 153.777068 
L 319.68642 145.373429 
L 325.518444 129.966185 
L 327.898986 119.838127 
L 330.131368 109.22738 
L 331.210341 100.147992 
L 330.351552 94.511093 
L 329.217231 89.085776 
L 327.259929 85.197743 
L 324.699548 82.540165 
L 322.04872 79.97163 
L 319.02514 78.279452 
L 315.844666 76.983315 
L 312.54574 76.030272 
L 309.299946 74.916932 
L 306.136247 73.502643 
L 303.128638 71.440074 
L 299.947883 69.896819 
L 296.632349 68.824406 
L 293.345154 67.568458 
L 289.982996 66.598454 
L 286.532081 66.069373 
L 283.008123 66.018915 
L 279.477083 66.144606 
L 275.858895 67.156462 
L 272.170323 69.320585 
L 268.554724 71.666995 
L 261.413841 79.90349 
L 258.088416 83.484827 
L 254.861114 88.835101 
L 251.8225 92.57174 
L 248.906455 95.857065 
L 246.111054 99.36276 
L 243.291328 100.132719 
L 240.369065 99.125435 
L 237.270002 96.581374 
L 234.16421 94.909785 
L 227.679615 91.131637 
L 224.518814 90.528499 
L 221.353492 90.118854 
L 218.309648 90.508509 
L 215.424712 91.679058 
L 212.835411 94.045554 
L 210.482151 97.110103 
L 208.115747 99.801366 
L 206.2199 103.882021 
L 204.218792 107.212474 
L 201.89389 109.252727 
L 199.545521 111.093818 
L 196.524328 110.986709 
L 193.102374 109.94603 
L 188.588422 106.407352 
L 184.711279 104.813059 
L 177.501426 103.53513 
L 174.726131 104.846205 
L 172.295916 106.837478 
L 170.354641 109.698429 
L 168.377862 112.379075 
L 166.518237 115.16587 
L 163.831846 116.476148 
L 160.543959 116.840986 
L 156.117774 115.544833 
L 151.123419 113.62466 
L 146.351822 112.289448 
L 140.051402 109.077469 
L 134.416695 107.114422 
L 129.711983 106.622853 
L 124.587849 105.795479 
L 119.927742 105.731136 
L 111.376734 106.936362 
L 107.989413 108.675085 
L 105.196266 111.081278 
L 103.086328 114.181016 
L 101.623948 117.872131 
L 101.194226 122.45405 
L 102.229585 128.223122 
L 103.030912 133.574633 
L 105.488362 140.128266 
L 109.02117 147.278951 
L 111.472865 153.264035 
L 119.997262 167.140546 
L 121.259752 171.496167 
L 123.150035 176.126514 
L 122.662176 179.039493 
L 121.504134 181.485234 
L 120.627335 184.087179 
L 120.034285 186.829226 
L 119.971943 189.83123 
L 120.458628 193.069778 
L 120.569235 196.040309 
L 120.969286 199.095811 
L 122.446271 202.588061 
L 122.964806 205.546046 
L 123.630938 208.503098 
L 124.721111 211.564893 
L 125.120323 214.280778 
L 126.418973 217.274036 
L 127.323222 220.048648 
L 127.823277 222.627398 
L 129.868133 225.631996 
L 133.353644 228.94679 
L 135.231572 231.676742 
L 136.607484 234.190858 
L 136.597351 236.315366 
L 137.744955 238.669257 
L 141.364388 241.446305 
L 143.439602 243.806358 
L 144.037664 245.845747 
L 143.665527 247.716716 
L 143.439421 249.609419 
L 142.512707 251.428265 
L 139.787841 253.115425 
L 135.891261 254.810486 
L 130.96428 256.583277 
L 124.373509 258.466571 
L 120.449735 260.624067 
L 115.700042 262.917188 
L 113.462081 265.332278 
L 109.210026 267.897325 
L 105.297946 270.596214 
L 102.213754 273.37885 
L 98.345537 276.344682 
L 94.900528 279.410351 
L 92.215106 282.514511 
L 89.602474 285.715725 
L 87.714763 288.9093 
L 86.695218 292.033583 
L 85.005372 295.343152 
L 82.788449 298.846484 
L 81.463008 302.247775 
L 79.489554 305.884617 
L 78.017333 309.488142 
L 76.976423 313.053493 
L 75.389572 316.858147 
L 74.513965 320.528223 
L 74.080989 324.118498 
L 72.876021 328.048379 
L 72.726522 331.665692 
L 73.062783 335.140801 
L 72.976465 338.832825 
L 73.419527 342.347309 
L 74.195405 345.746062 
L 74.506319 349.400067 
L 75.344544 352.837198 
L 76.466075 356.155852 
L 77.444749 359.576353 
L 78.970034 362.713605 
L 80.640003 365.774008 
L 84.333934 371.685534 
L 86.480556 374.441737 
L 88.737883 377.110266 
L 90.820441 379.892031 
L 93.069153 382.546415 
L 101.058387 393.974431 
L 103.517367 396.451729 
L 106.079588 398.824652 
L 108.395532 401.423001 
L 110.842724 403.896963 
L 113.086264 406.582765 
L 115.127154 409.505 
L 117.338909 412.276347 
L 119.301954 415.364636 
L 121.412909 418.333286 
L 123.767246 421.052256 
L 126.578277 423.222483 
L 129.539622 425.192048 
L 132.810532 426.723109 
L 140.592173 427.822929 
L 144.820265 427.686179 
L 149.451772 426.744598 
L 153.740408 426.153201 
L 158.4 424.729705 
L 163.143068 422.899118 
L 166.934019 422.5692 
L 174.513029 421.425093 
L 178.037997 421.148564 
L 185.077757 420.157948 
L 188.605561 419.384602 
L 192.262065 418.077426 
L 195.657802 417.228427 
L 198.804465 416.892742 
L 202.404638 415.009727 
L 205.944397 412.977701 
L 209.724221 409.731334 
L 213.240226 406.908195 
L 216.027504 406.483073 
L 218.685189 406.450651 
L 220.96694 408.081184 
L 223.168995 410.326693 
L 226.868195 420.472466 
L 229.109128 424.531227 
L 231.35395 429.620149 
L 233.808515 434.308803 
L 236.558214 437.388773 
L 239.41599 440.338546 
L 242.403563 442.641208 
L 245.482734 444.46432 
L 248.611212 446.89178 
L 248.611212 446.89178 
" clip-path="url(#p5c7e8408f4)" style="fill: none; stroke: #ff0000; stroke-width: 1.5; stroke-linecap: square"/>
   </g>
   <g id="line2d_18">
    <path d="M 251.8225 65.629142 
L 241.587634 67.624314 
L 211.643488 73.889798 
L 205.039181 75.279544 
L 198.508186 76.98808 
L 195.299822 78.039837 
L 192.156102 79.282897 
L 189.092528 80.73612 
L 186.13188 82.433693 
L 183.297395 84.403185 
L 180.607959 86.655014 
L 178.090089 89.214513 
L 175.756007 92.069046 
L 173.624576 95.221198 
L 171.697577 98.63675 
L 169.966937 102.266599 
L 166.952711 109.808035 
L 165.511679 113.42246 
L 163.952613 116.677138 
L 162.116867 119.358165 
L 159.852462 121.295748 
L 157.078226 122.453024 
L 153.778491 122.895832 
L 150.028608 122.809915 
L 141.637674 121.887041 
L 137.224413 121.400336 
L 132.775905 121.04298 
L 128.348161 120.876209 
L 123.970776 120.923463 
L 119.651623 121.181275 
L 115.406384 121.654164 
L 111.230948 122.325636 
L 107.120203 123.179804 
L 103.076429 124.209232 
L 99.097256 125.40276 
L 95.183976 126.753396 
L 91.350645 128.265313 
L 87.599271 129.931838 
L 83.9455 131.7573 
L 80.40221 133.742734 
L 76.985927 135.890982 
L 73.712329 138.203103 
L 70.597086 140.679102 
L 67.655801 143.317935 
L 64.902998 146.116919 
L 62.351817 149.071715 
L 60.014407 152.176733 
L 57.901848 155.425215 
L 56.025091 158.809859 
L 54.389332 162.319964 
L 53.007109 165.948442 
L 51.88411 169.684385 
L 51.025667 173.516677 
L 50.440436 177.435573 
L 50.133102 181.429381 
L 50.10861 185.48648 
L 50.371643 189.595072 
L 50.926619 193.743188 
L 51.775511 197.917981 
L 52.922157 202.10725 
L 54.359564 206.295602 
L 56.091746 210.47129 
L 58.108481 214.618858 
L 60.40452 218.724865 
L 62.95734 222.772658 
L 65.743715 226.747136 
L 68.72851 230.632777 
L 71.870241 234.41555 
L 78.353206 241.617836 
L 84.529537 248.28095 
L 87.214911 251.406704 
L 89.477798 254.409062 
L 91.183028 257.307534 
L 92.241798 260.131696 
L 92.583511 262.917188 
L 92.184616 265.703677 
L 91.074431 268.530634 
L 89.323594 271.433394 
L 87.026641 274.440837 
L 84.301644 277.573363 
L 71.582158 291.464453 
L 68.441268 295.252246 
L 65.4574 299.142893 
L 62.677635 303.12117 
L 60.131467 307.17255 
L 57.853218 311.279161 
L 55.843156 315.429694 
L 54.128667 319.604982 
L 52.703389 323.794009 
L 51.574806 327.981607 
L 50.743846 332.154121 
L 50.207731 336.298962 
L 49.964131 340.403356 
L 50.00849 344.45534 
L 50.336726 348.442824 
L 50.942595 352.354684 
L 51.821393 356.179236 
L 52.965473 359.90624 
L 54.36793 363.525316 
L 56.020042 367.027201 
L 57.917854 370.400288 
L 60.048086 373.638197 
L 62.401329 376.73291 
L 64.966533 379.677754 
L 67.731105 382.467537 
L 70.681956 385.098027 
L 73.80462 387.566649 
L 77.082965 389.872891 
L 80.501324 392.016954 
L 84.043746 394.000316 
L 87.695273 395.824795 
L 91.442647 397.491863 
L 95.270301 399.005938 
L 99.173758 400.362732 
L 103.143352 401.562736 
L 107.181913 402.594979 
L 111.283521 403.456167 
L 115.454058 404.130843 
L 119.690627 404.611273 
L 124.001391 404.876911 
L 128.370673 404.932269 
L 132.783257 404.782633 
L 137.206418 404.456262 
L 149.850444 403.269682 
L 153.509504 403.322697 
L 156.700853 403.940828 
L 159.375892 405.27248 
L 161.550135 407.38317 
L 163.331103 410.191603 
L 164.868282 413.526311 
L 169.382745 424.714317 
L 171.156048 428.307925 
L 173.129093 431.675743 
L 175.307058 434.773685 
L 177.685622 437.572726 
L 180.250177 440.064902 
L 182.979717 442.25877 
L 185.854122 444.163816 
L 188.850474 445.80123 
L 191.949329 447.187861 
L 195.125923 448.363333 
L 198.361582 449.357566 
L 201.638359 450.20695 
L 208.260569 451.604642 
L 228.18896 455.396923 
L 248.390628 459.529027 
L 258.750666 461.313904 
L 269.314861 462.855793 
L 280.101898 464.135557 
L 287.414954 464.772025 
L 294.805325 465.135481 
L 302.239077 465.127033 
L 305.958795 464.956589 
L 309.672096 464.662703 
L 313.371839 464.236005 
L 317.049688 463.665829 
L 320.698214 462.946787 
L 324.30919 462.072732 
L 327.873706 461.037353 
L 331.382783 459.835799 
L 334.826141 458.46151 
L 338.193419 456.909447 
L 341.47405 455.175558 
L 344.655815 453.253691 
L 347.726714 451.139805 
L 350.67324 448.828391 
L 353.480783 446.313585 
L 356.139853 443.600143 
L 358.629297 440.673549 
L 360.939459 437.540825 
L 363.051566 434.19493 
L 364.949283 430.63454 
L 366.62244 426.868493 
L 368.05107 422.892089 
L 369.21798 418.706251 
L 370.105669 414.31274 
L 370.699959 409.718623 
L 370.975703 404.918446 
L 370.914438 399.916791 
L 370.486045 394.706406 
L 369.659389 389.28178 
L 368.390464 383.626848 
L 366.62545 377.720138 
L 364.296005 371.531589 
L 361.280731 364.988639 
L 357.477813 358.049659 
L 352.60448 350.525626 
L 346.407422 342.283361 
L 338.266785 332.918389 
L 327.262155 321.857106 
L 311.425372 307.831173 
L 287.261511 288.665136 
L 273.323147 277.972103 
L 299.043582 294.76821 
L 319.161686 306.647766 
L 333.20379 313.769862 
L 343.68723 318.115086 
L 351.917295 320.706944 
L 358.562905 322.08436 
L 364.02295 322.575225 
L 368.410226 322.321601 
L 371.947955 321.506286 
L 374.714484 320.222661 
L 376.740814 318.534404 
L 378.008309 316.479886 
L 378.60573 314.140938 
L 378.465946 311.531052 
L 377.629091 308.707042 
L 376.029773 305.685181 
L 373.765716 302.53894 
L 370.828976 299.301119 
L 367.432638 296.067861 
L 360.528303 290.020588 
L 358.47714 287.540351 
L 358.443101 285.580096 
L 360.731146 284.086884 
L 364.857593 282.848324 
L 375.282047 280.268295 
L 380.334283 278.69645 
L 384.799033 276.893584 
L 388.668986 274.889704 
L 391.76672 272.703041 
L 394.200691 270.378912 
L 395.852442 267.946824 
L 396.833199 265.448359 
L 397.084052 262.917188 
L 396.604471 260.390009 
L 395.452351 257.901523 
L 393.515341 255.49138 
L 390.910948 253.191176 
L 387.529522 251.044361 
L 383.49085 249.078286 
L 378.80164 247.32611 
L 373.583019 245.804862 
L 363.449544 243.234328 
L 359.889045 241.911179 
L 358.443101 240.254279 
L 359.313015 238.101047 
L 362.026587 235.440223 
L 369.246824 229.246304 
L 372.579116 225.998185 
L 375.343076 222.782919 
L 377.381648 219.683706 
L 378.703927 216.736125 
L 379.320222 213.975398 
L 379.189021 211.457773 
L 378.324176 209.220412 
L 376.740814 207.299971 
L 374.455322 205.732563 
L 371.382524 204.603867 
L 367.492993 203.980128 
L 362.659544 203.984086 
L 356.712157 204.775901 
L 349.440859 206.557202 
L 340.353727 209.72226 
L 328.693237 214.88302 
L 312.974296 223.204747 
L 280.069256 243.138596 
L 301.419626 226.882766 
L 320.1949 211.394888 
L 333.210997 199.329524 
L 342.666901 189.352842 
L 349.824658 180.683613 
L 355.323715 172.944954 
L 359.687868 165.794774 
L 363.121107 159.129558 
L 365.818172 152.832847 
L 367.931663 146.808024 
L 369.498878 141.059731 
L 370.607187 135.536206 
L 371.301156 130.222696 
L 371.619825 125.10613 
L 371.589621 120.18429 
L 371.23623 115.453512 
L 370.577486 110.917737 
L 369.630999 106.580028 
L 368.414121 102.442588 
L 366.943912 98.506772 
L 365.233911 94.777856 
L 363.297638 91.260527 
L 361.157666 87.944346 
L 358.820758 84.842183 
L 356.302847 81.951919 
L 353.622189 79.265687 
L 350.791915 76.78279 
L 347.824858 74.501951 
L 344.73529 72.417738 
L 341.536167 70.525608 
L 338.240175 68.819912 
L 334.858766 67.296004 
L 331.403136 65.948201 
L 327.883544 64.771394 
L 324.310559 63.757881 
L 320.692815 62.90327 
L 317.039261 62.200637 
L 313.358295 61.642671 
L 309.657908 61.221149 
L 305.943992 60.933028 
L 302.225241 60.762834 
L 294.795813 60.743647 
L 287.410982 61.084879 
L 280.10349 61.687491 
L 272.889485 62.478218 
L 262.25162 63.917716 
L 255.27673 65.024468 
L 255.27673 65.024468 
" clip-path="url(#p5c7e8408f4)" style="fill: none; stroke-dasharray: 5.55,2.4; stroke-dashoffset: 0; stroke: #0000ff; stroke-width: 1.5"/>
   </g>
   <g id="patch_3">
    <path d="M 251.8225 41.157188 
C 222.701244 41.157188 193.863155 46.89344 166.958622 58.037662 
C 140.054089 69.181885 115.606338 85.51735 95.0145 106.109188 
C 74.422662 126.701026 58.087197 151.148777 46.942975 178.05331 
C 35.798753 204.957842 30.0625 233.795931 30.0625 262.917188 
C 30.0625 292.038444 35.798753 320.876533 46.942975 347.781065 
C 58.087197 374.685598 74.422662 399.133349 95.0145 419.725187 
C 115.606338 440.317025 140.054089 456.65249 166.958622 467.796713 
C 193.863155 478.940935 222.701244 484.677188 251.8225 484.677188 
C 280.943756 484.677188 309.781845 478.940935 336.686378 467.796713 
C 363.590911 456.65249 388.038662 440.317025 408.6305 419.725187 
C 429.222338 399.133349 445.557803 374.685598 456.702025 347.781065 
C 467.846247 320.876533 473.5825 292.038444 473.5825 262.917188 
C 473.5825 233.795931 467.846247 204.957842 456.702025 178.05331 
C 445.557803 151.148777 429.222338 126.701026 408.6305 106.109188 
C 388.038662 85.51735 363.590911 69.181885 336.686378 58.037662 
C 309.781845 46.89344 280.943756 41.157188 251.8225 41.157188 
" style="fill: none; stroke: #000000; stroke-width: 0.8; stroke-linejoin: miter; stroke-linecap: square"/>
   </g>
   <g id="text_17">
    <g id="patch_4">
     <path d="M 384.8785 509.853188 
L 485.369125 509.853188 
Q 488.369125 509.853188 488.369125 506.853188 
L 488.369125 473.945063 
Q 488.369125 470.945063 485.369125 470.945063 
L 384.8785 470.945063 
Q 381.8785 470.945063 381.8785 473.945063 
L 381.8785 506.853188 
Q 381.8785 509.853188 384.8785 509.853188 
z
" style="fill: #ffffff; stroke: #808080; stroke-linejoin: miter"/>
    </g>
    <!-- G_cst: 1.0 dBi -->
    <g transform="translate(384.8785 481.821625)scale(0.1 -0.1)">
     <defs>
      <path id="DejaVuSans-47" d="M 3809 666 
L 3809 1919 
L 2778 1919 
L 2778 2438 
L 4434 2438 
L 4434 434 
Q 4069 175 3628 42 
Q 3188 -91 2688 -91 
Q 1594 -91 976 548 
Q 359 1188 359 2328 
Q 359 3472 976 4111 
Q 1594 4750 2688 4750 
Q 3144 4750 3555 4637 
Q 3966 4525 4313 4306 
L 4313 3634 
Q 3963 3931 3569 4081 
Q 3175 4231 2741 4231 
Q 1884 4231 1454 3753 
Q 1025 3275 1025 2328 
Q 1025 1384 1454 906 
Q 1884 428 2741 428 
Q 3075 428 3337 486 
Q 3600 544 3809 666 
z
" transform="scale(0.015625)"/>
      <path id="DejaVuSans-5f" d="M 3263 -1063 
L 3263 -1509 
L -63 -1509 
L -63 -1063 
L 3263 -1063 
z
" transform="scale(0.015625)"/>
      <path id="DejaVuSans-63" d="M 3122 3366 
L 3122 2828 
Q 2878 2963 2633 3030 
Q 2388 3097 2138 3097 
Q 1578 3097 1268 2742 
Q 959 2388 959 1747 
Q 959 1106 1268 751 
Q 1578 397 2138 397 
Q 2388 397 2633 464 
Q 2878 531 3122 666 
L 3122 134 
Q 2881 22 2623 -34 
Q 2366 -91 2075 -91 
Q 1284 -91 818 406 
Q 353 903 353 1747 
Q 353 2603 823 3093 
Q 1294 3584 2113 3584 
Q 2378 3584 2631 3529 
Q 2884 3475 3122 3366 
z
" transform="scale(0.015625)"/>
      <path id="DejaVuSans-73" d="M 2834 3397 
L 2834 2853 
Q 2591 2978 2328 3040 
Q 2066 3103 1784 3103 
Q 1356 3103 1142 2972 
Q 928 2841 928 2578 
Q 928 2378 1081 2264 
Q 1234 2150 1697 2047 
L 1894 2003 
Q 2506 1872 2764 1633 
Q 3022 1394 3022 966 
Q 3022 478 2636 193 
Q 2250 -91 1575 -91 
Q 1294 -91 989 -36 
Q 684 19 347 128 
L 347 722 
Q 666 556 975 473 
Q 1284 391 1588 391 
Q 1994 391 2212 530 
Q 2431 669 2431 922 
Q 2431 1156 2273 1281 
Q 2116 1406 1581 1522 
L 1381 1569 
Q 847 1681 609 1914 
Q 372 2147 372 2553 
Q 372 3047 722 3315 
Q 1072 3584 1716 3584 
Q 2034 3584 2315 3537 
Q 2597 3491 2834 3397 
z
" transform="scale(0.015625)"/>
      <path id="DejaVuSans-74" d="M 1172 4494 
L 1172 3500 
L 2356 3500 
L 2356 3053 
L 1172 3053 
L 1172 1153 
Q 1172 725 1289 603 
Q 1406 481 1766 481 
L 2356 481 
L 2356 0 
L 1766 0 
Q 1100 0 847 248 
Q 594 497 594 1153 
L 594 3053 
L 172 3053 
L 172 3500 
L 594 3500 
L 594 4494 
L 1172 4494 
z
" transform="scale(0.015625)"/>
      <path id="DejaVuSans-3a" d="M 750 794 
L 1409 794 
L 1409 0 
L 750 0 
L 750 794 
z
M 750 3309 
L 1409 3309 
L 1409 2516 
L 750 2516 
L 750 3309 
z
" transform="scale(0.015625)"/>
      <path id="DejaVuSans-20" transform="scale(0.015625)"/>
      <path id="DejaVuSans-2e" d="M 684 794 
L 1344 794 
L 1344 0 
L 684 0 
L 684 794 
z
" transform="scale(0.015625)"/>
      <path id="DejaVuSans-64" d="M 2906 2969 
L 2906 4863 
L 3481 4863 
L 3481 0 
L 2906 0 
L 2906 525 
Q 2725 213 2448 61 
Q 2172 -91 1784 -91 
Q 1150 -91 751 415 
Q 353 922 353 1747 
Q 353 2572 751 3078 
Q 1150 3584 1784 3584 
Q 2172 3584 2448 3432 
Q 2725 3281 2906 2969 
z
M 947 1747 
Q 947 1113 1208 752 
Q 1469 391 1925 391 
Q 2381 391 2643 752 
Q 2906 1113 2906 1747 
Q 2906 2381 2643 2742 
Q 2381 3103 1925 3103 
Q 1469 3103 1208 2742 
Q 947 2381 947 1747 
z
" transform="scale(0.015625)"/>
      <path id="DejaVuSans-42" d="M 1259 2228 
L 1259 519 
L 2272 519 
Q 2781 519 3026 730 
Q 3272 941 3272 1375 
Q 3272 1813 3026 2020 
Q 2781 2228 2272 2228 
L 1259 2228 
z
M 1259 4147 
L 1259 2741 
L 2194 2741 
Q 2656 2741 2882 2914 
Q 3109 3088 3109 3444 
Q 3109 3797 2882 3972 
Q 2656 4147 2194 4147 
L 1259 4147 
z
M 628 4666 
L 2241 4666 
Q 2963 4666 3353 4366 
Q 3744 4066 3744 3513 
Q 3744 3084 3544 2831 
Q 3344 2578 2956 2516 
Q 3422 2416 3680 2098 
Q 3938 1781 3938 1306 
Q 3938 681 3513 340 
Q 3088 0 2303 0 
L 628 0 
L 628 4666 
z
" transform="scale(0.015625)"/>
      <path id="DejaVuSans-69" d="M 603 3500 
L 1178 3500 
L 1178 0 
L 603 0 
L 603 3500 
z
M 603 4863 
L 1178 4863 
L 1178 4134 
L 603 4134 
L 603 4863 
z
" transform="scale(0.015625)"/>
     </defs>
     <use xlink:href="#DejaVuSans-47"/>
     <use xlink:href="#DejaVuSans-5f" x="77.490234"/>
     <use xlink:href="#DejaVuSans-63" x="127.490234"/>
     <use xlink:href="#DejaVuSans-73" x="182.470703"/>
     <use xlink:href="#DejaVuSans-74" x="234.570312"/>
     <use xlink:href="#DejaVuSans-3a" x="273.779297"/>
     <use xlink:href="#DejaVuSans-20" x="307.470703"/>
     <use xlink:href="#DejaVuSans-31" x="339.257812"/>
     <use xlink:href="#DejaVuSans-2e" x="402.880859"/>
     <use xlink:href="#DejaVuSans-30" x="434.667969"/>
     <use xlink:href="#DejaVuSans-20" x="498.291016"/>
     <use xlink:href="#DejaVuSans-64" x="530.078125"/>
     <use xlink:href="#DejaVuSans-42" x="593.554688"/>
     <use xlink:href="#DejaVuSans-69" x="662.158203"/>
    </g>
    <!-- G_inpe: -0.7 dBi -->
    <g transform="translate(384.8785 493.297563)scale(0.1 -0.1)">
     <defs>
      <path id="DejaVuSans-6e" d="M 3513 2113 
L 3513 0 
L 2938 0 
L 2938 2094 
Q 2938 2591 2744 2837 
Q 2550 3084 2163 3084 
Q 1697 3084 1428 2787 
Q 1159 2491 1159 1978 
L 1159 0 
L 581 0 
L 581 3500 
L 1159 3500 
L 1159 2956 
Q 1366 3272 1645 3428 
Q 1925 3584 2291 3584 
Q 2894 3584 3203 3211 
Q 3513 2838 3513 2113 
z
" transform="scale(0.015625)"/>
      <path id="DejaVuSans-70" d="M 1159 525 
L 1159 -1331 
L 581 -1331 
L 581 3500 
L 1159 3500 
L 1159 2969 
Q 1341 3281 1617 3432 
Q 1894 3584 2278 3584 
Q 2916 3584 3314 3078 
Q 3713 2572 3713 1747 
Q 3713 922 3314 415 
Q 2916 -91 2278 -91 
Q 1894 -91 1617 61 
Q 1341 213 1159 525 
z
M 3116 1747 
Q 3116 2381 2855 2742 
Q 2594 3103 2138 3103 
Q 1681 3103 1420 2742 
Q 1159 2381 1159 1747 
Q 1159 1113 1420 752 
Q 1681 391 2138 391 
Q 2594 391 2855 752 
Q 3116 1113 3116 1747 
z
" transform="scale(0.015625)"/>
      <path id="DejaVuSans-65" d="M 3597 1894 
L 3597 1613 
L 953 1613 
Q 991 1019 1311 708 
Q 1631 397 2203 397 
Q 2534 397 2845 478 
Q 3156 559 3463 722 
L 3463 178 
Q 3153 47 2828 -22 
Q 2503 -91 2169 -91 
Q 1331 -91 842 396 
Q 353 884 353 1716 
Q 353 2575 817 3079 
Q 1281 3584 2069 3584 
Q 2775 3584 3186 3129 
Q 3597 2675 3597 1894 
z
M 3022 2063 
Q 3016 2534 2758 2815 
Q 2500 3097 2075 3097 
Q 1594 3097 1305 2825 
Q 1016 2553 972 2059 
L 3022 2063 
z
" transform="scale(0.015625)"/>
      <path id="DejaVuSans-2d" d="M 313 2009 
L 1997 2009 
L 1997 1497 
L 313 1497 
L 313 2009 
z
" transform="scale(0.015625)"/>
     </defs>
     <use xlink:href="#DejaVuSans-47"/>
     <use xlink:href="#DejaVuSans-5f" x="77.490234"/>
     <use xlink:href="#DejaVuSans-69" x="127.490234"/>
     <use xlink:href="#DejaVuSans-6e" x="155.273438"/>
     <use xlink:href="#DejaVuSans-70" x="218.652344"/>
     <use xlink:href="#DejaVuSans-65" x="282.128906"/>
     <use xlink:href="#DejaVuSans-3a" x="343.652344"/>
     <use xlink:href="#DejaVuSans-20" x="377.34375"/>
     <use xlink:href="#DejaVuSans-2d" x="409.130859"/>
     <use xlink:href="#DejaVuSans-30" x="445.214844"/>
     <use xlink:href="#DejaVuSans-2e" x="508.837891"/>
     <use xlink:href="#DejaVuSans-37" x="540.625"/>
     <use xlink:href="#DejaVuSans-20" x="604.248047"/>
     <use xlink:href="#DejaVuSans-64" x="636.035156"/>
     <use xlink:href="#DejaVuSans-42" x="699.511719"/>
     <use xlink:href="#DejaVuSans-69" x="768.115234"/>
    </g>
    <!-- Pearson Coef: 0.024 -->
    <g transform="translate(384.8785 504.7735)scale(0.1 -0.1)">
     <defs>
      <path id="DejaVuSans-50" d="M 1259 4147 
L 1259 2394 
L 2053 2394 
Q 2494 2394 2734 2622 
Q 2975 2850 2975 3272 
Q 2975 3691 2734 3919 
Q 2494 4147 2053 4147 
L 1259 4147 
z
M 628 4666 
L 2053 4666 
Q 2838 4666 3239 4311 
Q 3641 3956 3641 3272 
Q 3641 2581 3239 2228 
Q 2838 1875 2053 1875 
L 1259 1875 
L 1259 0 
L 628 0 
L 628 4666 
z
" transform="scale(0.015625)"/>
      <path id="DejaVuSans-61" d="M 2194 1759 
Q 1497 1759 1228 1600 
Q 959 1441 959 1056 
Q 959 750 1161 570 
Q 1363 391 1709 391 
Q 2188 391 2477 730 
Q 2766 1069 2766 1631 
L 2766 1759 
L 2194 1759 
z
M 3341 1997 
L 3341 0 
L 2766 0 
L 2766 531 
Q 2569 213 2275 61 
Q 1981 -91 1556 -91 
Q 1019 -91 701 211 
Q 384 513 384 1019 
Q 384 1609 779 1909 
Q 1175 2209 1959 2209 
L 2766 2209 
L 2766 2266 
Q 2766 2663 2505 2880 
Q 2244 3097 1772 3097 
Q 1472 3097 1187 3025 
Q 903 2953 641 2809 
L 641 3341 
Q 956 3463 1253 3523 
Q 1550 3584 1831 3584 
Q 2591 3584 2966 3190 
Q 3341 2797 3341 1997 
z
" transform="scale(0.015625)"/>
      <path id="DejaVuSans-72" d="M 2631 2963 
Q 2534 3019 2420 3045 
Q 2306 3072 2169 3072 
Q 1681 3072 1420 2755 
Q 1159 2438 1159 1844 
L 1159 0 
L 581 0 
L 581 3500 
L 1159 3500 
L 1159 2956 
Q 1341 3275 1631 3429 
Q 1922 3584 2338 3584 
Q 2397 3584 2469 3576 
Q 2541 3569 2628 3553 
L 2631 2963 
z
" transform="scale(0.015625)"/>
      <path id="DejaVuSans-6f" d="M 1959 3097 
Q 1497 3097 1228 2736 
Q 959 2375 959 1747 
Q 959 1119 1226 758 
Q 1494 397 1959 397 
Q 2419 397 2687 759 
Q 2956 1122 2956 1747 
Q 2956 2369 2687 2733 
Q 2419 3097 1959 3097 
z
M 1959 3584 
Q 2709 3584 3137 3096 
Q 3566 2609 3566 1747 
Q 3566 888 3137 398 
Q 2709 -91 1959 -91 
Q 1206 -91 779 398 
Q 353 888 353 1747 
Q 353 2609 779 3096 
Q 1206 3584 1959 3584 
z
" transform="scale(0.015625)"/>
      <path id="DejaVuSans-43" d="M 4122 4306 
L 4122 3641 
Q 3803 3938 3442 4084 
Q 3081 4231 2675 4231 
Q 1875 4231 1450 3742 
Q 1025 3253 1025 2328 
Q 1025 1406 1450 917 
Q 1875 428 2675 428 
Q 3081 428 3442 575 
Q 3803 722 4122 1019 
L 4122 359 
Q 3791 134 3420 21 
Q 3050 -91 2638 -91 
Q 1578 -91 968 557 
Q 359 1206 359 2328 
Q 359 3453 968 4101 
Q 1578 4750 2638 4750 
Q 3056 4750 3426 4639 
Q 3797 4528 4122 4306 
z
" transform="scale(0.015625)"/>
      <path id="DejaVuSans-66" d="M 2375 4863 
L 2375 4384 
L 1825 4384 
Q 1516 4384 1395 4259 
Q 1275 4134 1275 3809 
L 1275 3500 
L 2222 3500 
L 2222 3053 
L 1275 3053 
L 1275 0 
L 697 0 
L 697 3053 
L 147 3053 
L 147 3500 
L 697 3500 
L 697 3744 
Q 697 4328 969 4595 
Q 1241 4863 1831 4863 
L 2375 4863 
z
" transform="scale(0.015625)"/>
     </defs>
     <use xlink:href="#DejaVuSans-50"/>
     <use xlink:href="#DejaVuSans-65" x="56.677734"/>
     <use xlink:href="#DejaVuSans-61" x="118.201172"/>
     <use xlink:href="#DejaVuSans-72" x="179.480469"/>
     <use xlink:href="#DejaVuSans-73" x="220.59375"/>
     <use xlink:href="#DejaVuSans-6f" x="272.693359"/>
     <use xlink:href="#DejaVuSans-6e" x="333.875"/>
     <use xlink:href="#DejaVuSans-20" x="397.253906"/>
     <use xlink:href="#DejaVuSans-43" x="429.041016"/>
     <use xlink:href="#DejaVuSans-6f" x="498.865234"/>
     <use xlink:href="#DejaVuSans-65" x="560.046875"/>
     <use xlink:href="#DejaVuSans-66" x="621.570312"/>
     <use xlink:href="#DejaVuSans-3a" x="653.150391"/>
     <use xlink:href="#DejaVuSans-20" x="686.841797"/>
     <use xlink:href="#DejaVuSans-30" x="718.628906"/>
     <use xlink:href="#DejaVuSans-2e" x="782.251953"/>
     <use xlink:href="#DejaVuSans-30" x="814.039062"/>
     <use xlink:href="#DejaVuSans-32" x="877.662109"/>
     <use xlink:href="#DejaVuSans-34" x="941.285156"/>
    </g>
   </g>
   <g id="text_18">
    <g id="patch_5">
     <path d="M 52.2385 56.370938 
L 129.496 56.370938 
Q 133.096 56.370938 133.096 52.770938 
L 133.096 41.157188 
Q 133.096 37.557188 129.496 37.557188 
L 52.2385 37.557188 
Q 48.6385 37.557188 48.6385 41.157188 
L 48.6385 52.770938 
Q 48.6385 56.370938 52.2385 56.370938 
z
" style="fill: #ffffff; stroke: #808080; stroke-linejoin: miter"/>
    </g>
    <!-- Freq: 18 GHz -->
    <g transform="translate(52.2385 50.275313)scale(0.12 -0.12)">
     <defs>
      <path id="DejaVuSans-46" d="M 628 4666 
L 3309 4666 
L 3309 4134 
L 1259 4134 
L 1259 2759 
L 3109 2759 
L 3109 2228 
L 1259 2228 
L 1259 0 
L 628 0 
L 628 4666 
z
" transform="scale(0.015625)"/>
      <path id="DejaVuSans-71" d="M 947 1747 
Q 947 1113 1208 752 
Q 1469 391 1925 391 
Q 2381 391 2643 752 
Q 2906 1113 2906 1747 
Q 2906 2381 2643 2742 
Q 2381 3103 1925 3103 
Q 1469 3103 1208 2742 
Q 947 2381 947 1747 
z
M 2906 525 
Q 2725 213 2448 61 
Q 2172 -91 1784 -91 
Q 1150 -91 751 415 
Q 353 922 353 1747 
Q 353 2572 751 3078 
Q 1150 3584 1784 3584 
Q 2172 3584 2448 3432 
Q 2725 3281 2906 2969 
L 2906 3500 
L 3481 3500 
L 3481 -1331 
L 2906 -1331 
L 2906 525 
z
" transform="scale(0.015625)"/>
      <path id="DejaVuSans-48" d="M 628 4666 
L 1259 4666 
L 1259 2753 
L 3553 2753 
L 3553 4666 
L 4184 4666 
L 4184 0 
L 3553 0 
L 3553 2222 
L 1259 2222 
L 1259 0 
L 628 0 
L 628 4666 
z
" transform="scale(0.015625)"/>
      <path id="DejaVuSans-7a" d="M 353 3500 
L 3084 3500 
L 3084 2975 
L 922 459 
L 3084 459 
L 3084 0 
L 275 0 
L 275 525 
L 2438 3041 
L 353 3041 
L 353 3500 
z
" transform="scale(0.015625)"/>
     </defs>
     <use xlink:href="#DejaVuSans-46"/>
     <use xlink:href="#DejaVuSans-72" x="50.269531"/>
     <use xlink:href="#DejaVuSans-65" x="89.132812"/>
     <use xlink:href="#DejaVuSans-71" x="150.65625"/>
     <use xlink:href="#DejaVuSans-3a" x="214.132812"/>
     <use xlink:href="#DejaVuSans-20" x="247.824219"/>
     <use xlink:href="#DejaVuSans-31" x="279.611328"/>
     <use xlink:href="#DejaVuSans-38" x="343.234375"/>
     <use xlink:href="#DejaVuSans-20" x="406.857422"/>
     <use xlink:href="#DejaVuSans-47" x="438.644531"/>
     <use xlink:href="#DejaVuSans-48" x="516.134766"/>
     <use xlink:href="#DejaVuSans-7a" x="591.330078"/>
    </g>
   </g>
   <g id="text_19">
    <!-- Radiation Diagram - 4AVVF18 -->
    <g transform="translate(162.985937 16.318125)scale(0.12 -0.12)">
     <defs>
      <path id="DejaVuSans-52" d="M 2841 2188 
Q 3044 2119 3236 1894 
Q 3428 1669 3622 1275 
L 4263 0 
L 3584 0 
L 2988 1197 
Q 2756 1666 2539 1819 
Q 2322 1972 1947 1972 
L 1259 1972 
L 1259 0 
L 628 0 
L 628 4666 
L 2053 4666 
Q 2853 4666 3247 4331 
Q 3641 3997 3641 3322 
Q 3641 2881 3436 2590 
Q 3231 2300 2841 2188 
z
M 1259 4147 
L 1259 2491 
L 2053 2491 
Q 2509 2491 2742 2702 
Q 2975 2913 2975 3322 
Q 2975 3731 2742 3939 
Q 2509 4147 2053 4147 
L 1259 4147 
z
" transform="scale(0.015625)"/>
      <path id="DejaVuSans-44" d="M 1259 4147 
L 1259 519 
L 2022 519 
Q 2988 519 3436 956 
Q 3884 1394 3884 2338 
Q 3884 3275 3436 3711 
Q 2988 4147 2022 4147 
L 1259 4147 
z
M 628 4666 
L 1925 4666 
Q 3281 4666 3915 4102 
Q 4550 3538 4550 2338 
Q 4550 1131 3912 565 
Q 3275 0 1925 0 
L 628 0 
L 628 4666 
z
" transform="scale(0.015625)"/>
      <path id="DejaVuSans-67" d="M 2906 1791 
Q 2906 2416 2648 2759 
Q 2391 3103 1925 3103 
Q 1463 3103 1205 2759 
Q 947 2416 947 1791 
Q 947 1169 1205 825 
Q 1463 481 1925 481 
Q 2391 481 2648 825 
Q 2906 1169 2906 1791 
z
M 3481 434 
Q 3481 -459 3084 -895 
Q 2688 -1331 1869 -1331 
Q 1566 -1331 1297 -1286 
Q 1028 -1241 775 -1147 
L 775 -588 
Q 1028 -725 1275 -790 
Q 1522 -856 1778 -856 
Q 2344 -856 2625 -561 
Q 2906 -266 2906 331 
L 2906 616 
Q 2728 306 2450 153 
Q 2172 0 1784 0 
Q 1141 0 747 490 
Q 353 981 353 1791 
Q 353 2603 747 3093 
Q 1141 3584 1784 3584 
Q 2172 3584 2450 3431 
Q 2728 3278 2906 2969 
L 2906 3500 
L 3481 3500 
L 3481 434 
z
" transform="scale(0.015625)"/>
      <path id="DejaVuSans-6d" d="M 3328 2828 
Q 3544 3216 3844 3400 
Q 4144 3584 4550 3584 
Q 5097 3584 5394 3201 
Q 5691 2819 5691 2113 
L 5691 0 
L 5113 0 
L 5113 2094 
Q 5113 2597 4934 2840 
Q 4756 3084 4391 3084 
Q 3944 3084 3684 2787 
Q 3425 2491 3425 1978 
L 3425 0 
L 2847 0 
L 2847 2094 
Q 2847 2600 2669 2842 
Q 2491 3084 2119 3084 
Q 1678 3084 1418 2786 
Q 1159 2488 1159 1978 
L 1159 0 
L 581 0 
L 581 3500 
L 1159 3500 
L 1159 2956 
Q 1356 3278 1631 3431 
Q 1906 3584 2284 3584 
Q 2666 3584 2933 3390 
Q 3200 3197 3328 2828 
z
" transform="scale(0.015625)"/>
      <path id="DejaVuSans-41" d="M 2188 4044 
L 1331 1722 
L 3047 1722 
L 2188 4044 
z
M 1831 4666 
L 2547 4666 
L 4325 0 
L 3669 0 
L 3244 1197 
L 1141 1197 
L 716 0 
L 50 0 
L 1831 4666 
z
" transform="scale(0.015625)"/>
      <path id="DejaVuSans-56" d="M 1831 0 
L 50 4666 
L 709 4666 
L 2188 738 
L 3669 4666 
L 4325 4666 
L 2547 0 
L 1831 0 
z
" transform="scale(0.015625)"/>
     </defs>
     <use xlink:href="#DejaVuSans-52"/>
     <use xlink:href="#DejaVuSans-61" x="67.232422"/>
     <use xlink:href="#DejaVuSans-64" x="128.511719"/>
     <use xlink:href="#DejaVuSans-69" x="191.988281"/>
     <use xlink:href="#DejaVuSans-61" x="219.771484"/>
     <use xlink:href="#DejaVuSans-74" x="281.050781"/>
     <use xlink:href="#DejaVuSans-69" x="320.259766"/>
     <use xlink:href="#DejaVuSans-6f" x="348.042969"/>
     <use xlink:href="#DejaVuSans-6e" x="409.224609"/>
     <use xlink:href="#DejaVuSans-20" x="472.603516"/>
     <use xlink:href="#DejaVuSans-44" x="504.390625"/>
     <use xlink:href="#DejaVuSans-69" x="581.392578"/>
     <use xlink:href="#DejaVuSans-61" x="609.175781"/>
     <use xlink:href="#DejaVuSans-67" x="670.455078"/>
     <use xlink:href="#DejaVuSans-72" x="733.931641"/>
     <use xlink:href="#DejaVuSans-61" x="775.044922"/>
     <use xlink:href="#DejaVuSans-6d" x="836.324219"/>
     <use xlink:href="#DejaVuSans-20" x="933.736328"/>
     <use xlink:href="#DejaVuSans-2d" x="965.523438"/>
     <use xlink:href="#DejaVuSans-20" x="1001.607422"/>
     <use xlink:href="#DejaVuSans-34" x="1033.394531"/>
     <use xlink:href="#DejaVuSans-41" x="1097.017578"/>
     <use xlink:href="#DejaVuSans-56" x="1159.050781"/>
     <use xlink:href="#DejaVuSans-56" x="1227.458984"/>
     <use xlink:href="#DejaVuSans-46" x="1295.867188"/>
     <use xlink:href="#DejaVuSans-31" x="1353.386719"/>
     <use xlink:href="#DejaVuSans-38" x="1417.009766"/>
    </g>
   </g>
   <g id="legend_1">
    <g id="patch_6">
     <path d="M 411.802812 78.513438 
L 466.5825 78.513438 
Q 468.5825 78.513438 468.5825 76.513438 
L 468.5825 48.157188 
Q 468.5825 46.157188 466.5825 46.157188 
L 411.802812 46.157188 
Q 409.802812 46.157188 409.802812 48.157188 
L 409.802812 76.513438 
Q 409.802812 78.513438 411.802812 78.513438 
z
" style="fill: #ffffff; opacity: 0.8; stroke: #cccccc; stroke-linejoin: miter"/>
    </g>
    <g id="line2d_19">
     <path d="M 413.802812 54.255625 
L 423.802812 54.255625 
L 433.802812 54.255625 
" style="fill: none; stroke: #ff0000; stroke-width: 1.5; stroke-linecap: square"/>
    </g>
    <g id="text_20">
     <!-- INPE -->
     <g transform="translate(441.802812 57.755625)scale(0.1 -0.1)">
      <defs>
       <path id="DejaVuSans-49" d="M 628 4666 
L 1259 4666 
L 1259 0 
L 628 0 
L 628 4666 
z
" transform="scale(0.015625)"/>
       <path id="DejaVuSans-4e" d="M 628 4666 
L 1478 4666 
L 3547 763 
L 3547 4666 
L 4159 4666 
L 4159 0 
L 3309 0 
L 1241 3903 
L 1241 0 
L 628 0 
L 628 4666 
z
" transform="scale(0.015625)"/>
       <path id="DejaVuSans-45" d="M 628 4666 
L 3578 4666 
L 3578 4134 
L 1259 4134 
L 1259 2753 
L 3481 2753 
L 3481 2222 
L 1259 2222 
L 1259 531 
L 3634 531 
L 3634 0 
L 628 0 
L 628 4666 
z
" transform="scale(0.015625)"/>
      </defs>
      <use xlink:href="#DejaVuSans-49"/>
      <use xlink:href="#DejaVuSans-4e" x="29.492188"/>
      <use xlink:href="#DejaVuSans-50" x="104.296875"/>
      <use xlink:href="#DejaVuSans-45" x="164.599609"/>
     </g>
    </g>
    <g id="line2d_20">
     <path d="M 413.802812 68.93375 
L 423.802812 68.93375 
L 433.802812 68.93375 
" style="fill: none; stroke-dasharray: 5.55,2.4; stroke-dashoffset: 0; stroke: #0000ff; stroke-width: 1.5"/>
    </g>
    <g id="text_21">
     <!-- CST -->
     <g transform="translate(441.802812 72.43375)scale(0.1 -0.1)">
      <defs>
       <path id="DejaVuSans-53" d="M 3425 4513 
L 3425 3897 
Q 3066 4069 2747 4153 
Q 2428 4238 2131 4238 
Q 1616 4238 1336 4038 
Q 1056 3838 1056 3469 
Q 1056 3159 1242 3001 
Q 1428 2844 1947 2747 
L 2328 2669 
Q 3034 2534 3370 2195 
Q 3706 1856 3706 1288 
Q 3706 609 3251 259 
Q 2797 -91 1919 -91 
Q 1588 -91 1214 -16 
Q 841 59 441 206 
L 441 856 
Q 825 641 1194 531 
Q 1563 422 1919 422 
Q 2459 422 2753 634 
Q 3047 847 3047 1241 
Q 3047 1584 2836 1778 
Q 2625 1972 2144 2069 
L 1759 2144 
Q 1053 2284 737 2584 
Q 422 2884 422 3419 
Q 422 4038 858 4394 
Q 1294 4750 2059 4750 
Q 2388 4750 2728 4690 
Q 3069 4631 3425 4513 
z
" transform="scale(0.015625)"/>
       <path id="DejaVuSans-54" d="M -19 4666 
L 3928 4666 
L 3928 4134 
L 2272 4134 
L 2272 0 
L 1638 0 
L 1638 4134 
L -19 4134 
L -19 4666 
z
" transform="scale(0.015625)"/>
      </defs>
      <use xlink:href="#DejaVuSans-43"/>
      <use xlink:href="#DejaVuSans-53" x="69.824219"/>
      <use xlink:href="#DejaVuSans-54" x="133.300781"/>
     </g>
    </g>
   </g>
  </g>
 </g>
 <defs>
  <clipPath id="p5c7e8408f4">
   <path d="M 473.5825 262.917188 
C 473.5825 233.795931 467.846247 204.957842 456.702025 178.05331 
C 445.557803 151.148777 429.222338 126.701026 408.6305 106.109188 
C 388.038662 85.51735 363.590911 69.181885 336.686378 58.037662 
C 309.781845 46.89344 280.943756 41.157188 251.8225 41.157188 
C 222.701244 41.157188 193.863155 46.89344 166.958622 58.037662 
C 140.054089 69.181885 115.606338 85.51735 95.0145 106.109188 
C 74.422662 126.701026 58.087197 151.148777 46.942975 178.05331 
C 35.798753 204.957842 30.0625 233.795931 30.0625 262.917188 
C 30.0625 292.038444 35.798753 320.876533 46.942975 347.781065 
C 58.087197 374.685598 74.422662 399.133349 95.0145 419.725187 
C 115.606338 440.317025 140.054089 456.65249 166.958622 467.796713 
C 193.863155 478.940935 222.701244 484.677188 251.8225 484.677188 
C 280.943756 484.677188 309.781845 478.940935 336.686378 467.796713 
C 363.590911 456.65249 388.038662 440.317025 408.6305 419.725187 
C 429.222338 399.133349 445.557803 374.685598 456.702025 347.781065 
C 467.846247 320.876533 473.5825 292.038444 473.5825 262.917188 
M 251.8225 262.917188 
C 251.8225 262.917188 251.8225 262.917188 251.8225 262.917188 
C 251.8225 262.917188 251.8225 262.917188 251.8225 262.917188 
C 251.8225 262.917188 251.8225 262.917188 251.8225 262.917188 
C 251.8225 262.917188 251.8225 262.917188 251.8225 262.917188 
C 251.8225 262.917188 251.8225 262.917188 251.8225 262.917188 
C 251.8225 262.917188 251.8225 262.917188 251.8225 262.917188 
C 251.8225 262.917188 251.8225 262.917188 251.8225 262.917188 
C 251.8225 262.917188 251.8225 262.917188 251.8225 262.917188 
C 251.8225 262.917188 251.8225 262.917188 251.8225 262.917188 
C 251.8225 262.917188 251.8225 262.917188 251.8225 262.917188 
C 251.8225 262.917188 251.8225 262.917188 251.8225 262.917188 
C 251.8225 262.917188 251.8225 262.917188 251.8225 262.917188 
C 251.8225 262.917188 251.8225 262.917188 251.8225 262.917188 
C 251.8225 262.917188 251.8225 262.917188 251.8225 262.917188 
C 251.8225 262.917188 251.8225 262.917188 251.8225 262.917188 
C 251.8225 262.917188 251.8225 262.917188 251.8225 262.917188 
M 473.5825 262.917188 
z
"/>
  </clipPath>
 </defs>
</svg>
