<?xml version="1.0" encoding="utf-8" standalone="no"?>
<!DOCTYPE svg PUBLIC "-//W3C//DTD SVG 1.1//EN"
  "http://www.w3.org/Graphics/SVG/1.1/DTD/svg11.dtd">
<svg xmlns:xlink="http://www.w3.org/1999/xlink" width="506.82625pt" height="514.053188pt" viewBox="0 0 506.82625 514.053188" xmlns="http://www.w3.org/2000/svg" version="1.1">
 <metadata>
  <rdf:RDF xmlns:dc="http://purl.org/dc/elements/1.1/" xmlns:cc="http://creativecommons.org/ns#" xmlns:rdf="http://www.w3.org/1999/02/22-rdf-syntax-ns#">
   <cc:Work>
    <dc:type rdf:resource="http://purl.org/dc/dcmitype/StillImage"/>
    <dc:date>2024-01-27T15:47:56.808489</dc:date>
    <dc:format>image/svg+xml</dc:format>
    <dc:creator>
     <cc:Agent>
      <dc:title>Matplotlib v3.5.1, https://matplotlib.org/</dc:title>
     </cc:Agent>
    </dc:creator>
   </cc:Work>
  </rdf:RDF>
 </metadata>
 <defs>
  <style type="text/css">*{stroke-linejoin: round; stroke-linecap: butt}</style>
 </defs>
 <g id="figure_1">
  <g id="patch_1">
   <path d="M 0 514.053188 
L 506.82625 514.053188 
L 506.82625 0 
L 0 0 
z
" style="fill: #ffffff"/>
  </g>
  <g id="axes_1">
   <g id="patch_2">
    <path d="M 473.5825 262.917188 
C 473.5825 233.795931 467.846247 204.957842 456.702025 178.05331 
C 445.557803 151.148777 429.222338 126.701026 408.6305 106.109188 
C 388.038662 85.51735 363.590911 69.181885 336.686378 58.037662 
C 309.781845 46.89344 280.943756 41.157188 251.8225 41.157188 
C 222.701244 41.157188 193.863155 46.89344 166.958622 58.037662 
C 140.054089 69.181885 115.606338 85.51735 95.0145 106.109188 
C 74.422662 126.701026 58.087197 151.148777 46.942975 178.05331 
C 35.798753 204.957842 30.0625 233.795931 30.0625 262.917188 
C 30.0625 292.038444 35.798753 320.876533 46.942975 347.781065 
C 58.087197 374.685598 74.422662 399.133349 95.0145 419.725187 
C 115.606338 440.317025 140.054089 456.65249 166.958622 467.796713 
C 193.863155 478.940935 222.701244 484.677188 251.8225 484.677188 
C 280.943756 484.677188 309.781845 478.940935 336.686378 467.796713 
C 363.590911 456.65249 388.038662 440.317025 408.6305 419.725187 
C 429.222338 399.133349 445.557803 374.685598 456.702025 347.781065 
C 467.846247 320.876533 473.5825 292.038444 473.5825 262.917188 
M 251.8225 262.917188 
C 251.8225 262.917188 251.8225 262.917188 251.8225 262.917188 
C 251.8225 262.917188 251.8225 262.917188 251.8225 262.917188 
C 251.8225 262.917188 251.8225 262.917188 251.8225 262.917188 
C 251.8225 262.917188 251.8225 262.917188 251.8225 262.917188 
C 251.8225 262.917188 251.8225 262.917188 251.8225 262.917188 
C 251.8225 262.917188 251.8225 262.917188 251.8225 262.917188 
C 251.8225 262.917188 251.8225 262.917188 251.8225 262.917188 
C 251.8225 262.917188 251.8225 262.917188 251.8225 262.917188 
C 251.8225 262.917188 251.8225 262.917188 251.8225 262.917188 
C 251.8225 262.917188 251.8225 262.917188 251.8225 262.917188 
C 251.8225 262.917188 251.8225 262.917188 251.8225 262.917188 
C 251.8225 262.917188 251.8225 262.917188 251.8225 262.917188 
C 251.8225 262.917188 251.8225 262.917188 251.8225 262.917188 
C 251.8225 262.917188 251.8225 262.917188 251.8225 262.917188 
C 251.8225 262.917188 251.8225 262.917188 251.8225 262.917188 
C 251.8225 262.917188 251.8225 262.917188 251.8225 262.917188 
M 473.5825 262.917188 
z
" style="fill: #ffffff"/>
   </g>
   <g id="matplotlib.axis_1">
    <g id="xtick_1">
     <g id="line2d_1">
      <path d="M 251.8225 262.917188 
L 251.8225 41.157188 
" clip-path="url(#p1c546535a2)" style="fill: none; stroke: #b0b0b0; stroke-width: 0.8; stroke-linecap: square"/>
     </g>
     <g id="text_1">
      <!-- 0° -->
      <g transform="translate(246.14125 29.916563)scale(0.1 -0.1)">
       <defs>
        <path id="DejaVuSans-30" d="M 2034 4250 
Q 1547 4250 1301 3770 
Q 1056 3291 1056 2328 
Q 1056 1369 1301 889 
Q 1547 409 2034 409 
Q 2525 409 2770 889 
Q 3016 1369 3016 2328 
Q 3016 3291 2770 3770 
Q 2525 4250 2034 4250 
z
M 2034 4750 
Q 2819 4750 3233 4129 
Q 3647 3509 3647 2328 
Q 3647 1150 3233 529 
Q 2819 -91 2034 -91 
Q 1250 -91 836 529 
Q 422 1150 422 2328 
Q 422 3509 836 4129 
Q 1250 4750 2034 4750 
z
" transform="scale(0.015625)"/>
        <path id="DejaVuSans-b0" d="M 1600 4347 
Q 1350 4347 1178 4173 
Q 1006 4000 1006 3750 
Q 1006 3503 1178 3333 
Q 1350 3163 1600 3163 
Q 1850 3163 2022 3333 
Q 2194 3503 2194 3750 
Q 2194 3997 2020 4172 
Q 1847 4347 1600 4347 
z
M 1600 4750 
Q 1800 4750 1984 4673 
Q 2169 4597 2303 4453 
Q 2447 4313 2519 4134 
Q 2591 3956 2591 3750 
Q 2591 3338 2302 3052 
Q 2013 2766 1594 2766 
Q 1172 2766 890 3047 
Q 609 3328 609 3750 
Q 609 4169 896 4459 
Q 1184 4750 1600 4750 
z
" transform="scale(0.015625)"/>
       </defs>
       <use xlink:href="#DejaVuSans-30"/>
       <use xlink:href="#DejaVuSans-b0" x="63.623047"/>
      </g>
     </g>
    </g>
    <g id="xtick_2">
     <g id="line2d_2">
      <path d="M 251.8225 262.917188 
L 95.0145 106.109188 
" clip-path="url(#p1c546535a2)" style="fill: none; stroke: #b0b0b0; stroke-width: 0.8; stroke-linecap: square"/>
     </g>
     <g id="text_2">
      <!-- 45° -->
      <g transform="translate(76.252505 98.969068)scale(0.1 -0.1)">
       <defs>
        <path id="DejaVuSans-34" d="M 2419 4116 
L 825 1625 
L 2419 1625 
L 2419 4116 
z
M 2253 4666 
L 3047 4666 
L 3047 1625 
L 3713 1625 
L 3713 1100 
L 3047 1100 
L 3047 0 
L 2419 0 
L 2419 1100 
L 313 1100 
L 313 1709 
L 2253 4666 
z
" transform="scale(0.015625)"/>
        <path id="DejaVuSans-35" d="M 691 4666 
L 3169 4666 
L 3169 4134 
L 1269 4134 
L 1269 2991 
Q 1406 3038 1543 3061 
Q 1681 3084 1819 3084 
Q 2600 3084 3056 2656 
Q 3513 2228 3513 1497 
Q 3513 744 3044 326 
Q 2575 -91 1722 -91 
Q 1428 -91 1123 -41 
Q 819 9 494 109 
L 494 744 
Q 775 591 1075 516 
Q 1375 441 1709 441 
Q 2250 441 2565 725 
Q 2881 1009 2881 1497 
Q 2881 1984 2565 2268 
Q 2250 2553 1709 2553 
Q 1456 2553 1204 2497 
Q 953 2441 691 2322 
L 691 4666 
z
" transform="scale(0.015625)"/>
       </defs>
       <use xlink:href="#DejaVuSans-34"/>
       <use xlink:href="#DejaVuSans-35" x="63.623047"/>
       <use xlink:href="#DejaVuSans-b0" x="127.246094"/>
      </g>
     </g>
    </g>
    <g id="xtick_3">
     <g id="line2d_3">
      <path d="M 251.8225 262.917188 
L 30.0625 262.917188 
" clip-path="url(#p1c546535a2)" style="fill: none; stroke: #b0b0b0; stroke-width: 0.8; stroke-linecap: square"/>
     </g>
     <g id="text_3">
      <!-- 90° -->
      <g transform="translate(7.2 265.676563)scale(0.1 -0.1)">
       <defs>
        <path id="DejaVuSans-39" d="M 703 97 
L 703 672 
Q 941 559 1184 500 
Q 1428 441 1663 441 
Q 2288 441 2617 861 
Q 2947 1281 2994 2138 
Q 2813 1869 2534 1725 
Q 2256 1581 1919 1581 
Q 1219 1581 811 2004 
Q 403 2428 403 3163 
Q 403 3881 828 4315 
Q 1253 4750 1959 4750 
Q 2769 4750 3195 4129 
Q 3622 3509 3622 2328 
Q 3622 1225 3098 567 
Q 2575 -91 1691 -91 
Q 1453 -91 1209 -44 
Q 966 3 703 97 
z
M 1959 2075 
Q 2384 2075 2632 2365 
Q 2881 2656 2881 3163 
Q 2881 3666 2632 3958 
Q 2384 4250 1959 4250 
Q 1534 4250 1286 3958 
Q 1038 3666 1038 3163 
Q 1038 2656 1286 2365 
Q 1534 2075 1959 2075 
z
" transform="scale(0.015625)"/>
       </defs>
       <use xlink:href="#DejaVuSans-39"/>
       <use xlink:href="#DejaVuSans-30" x="63.623047"/>
       <use xlink:href="#DejaVuSans-b0" x="127.246094"/>
      </g>
     </g>
    </g>
    <g id="xtick_4">
     <g id="line2d_4">
      <path d="M 251.8225 262.917188 
L 95.0145 419.725187 
" clip-path="url(#p1c546535a2)" style="fill: none; stroke: #b0b0b0; stroke-width: 0.8; stroke-linecap: square"/>
     </g>
     <g id="text_4">
      <!-- 135° -->
      <g transform="translate(73.071255 432.384057)scale(0.1 -0.1)">
       <defs>
        <path id="DejaVuSans-31" d="M 794 531 
L 1825 531 
L 1825 4091 
L 703 3866 
L 703 4441 
L 1819 4666 
L 2450 4666 
L 2450 531 
L 3481 531 
L 3481 0 
L 794 0 
L 794 531 
z
" transform="scale(0.015625)"/>
        <path id="DejaVuSans-33" d="M 2597 2516 
Q 3050 2419 3304 2112 
Q 3559 1806 3559 1356 
Q 3559 666 3084 287 
Q 2609 -91 1734 -91 
Q 1441 -91 1130 -33 
Q 819 25 488 141 
L 488 750 
Q 750 597 1062 519 
Q 1375 441 1716 441 
Q 2309 441 2620 675 
Q 2931 909 2931 1356 
Q 2931 1769 2642 2001 
Q 2353 2234 1838 2234 
L 1294 2234 
L 1294 2753 
L 1863 2753 
Q 2328 2753 2575 2939 
Q 2822 3125 2822 3475 
Q 2822 3834 2567 4026 
Q 2313 4219 1838 4219 
Q 1578 4219 1281 4162 
Q 984 4106 628 3988 
L 628 4550 
Q 988 4650 1302 4700 
Q 1616 4750 1894 4750 
Q 2613 4750 3031 4423 
Q 3450 4097 3450 3541 
Q 3450 3153 3228 2886 
Q 3006 2619 2597 2516 
z
" transform="scale(0.015625)"/>
       </defs>
       <use xlink:href="#DejaVuSans-31"/>
       <use xlink:href="#DejaVuSans-33" x="63.623047"/>
       <use xlink:href="#DejaVuSans-35" x="127.246094"/>
       <use xlink:href="#DejaVuSans-b0" x="190.869141"/>
      </g>
     </g>
    </g>
    <g id="xtick_5">
     <g id="line2d_5">
      <path d="M 251.8225 262.917188 
L 251.8225 484.677188 
" clip-path="url(#p1c546535a2)" style="fill: none; stroke: #b0b0b0; stroke-width: 0.8; stroke-linecap: square"/>
     </g>
     <g id="text_5">
      <!-- 180° -->
      <g transform="translate(239.77875 501.436563)scale(0.1 -0.1)">
       <defs>
        <path id="DejaVuSans-38" d="M 2034 2216 
Q 1584 2216 1326 1975 
Q 1069 1734 1069 1313 
Q 1069 891 1326 650 
Q 1584 409 2034 409 
Q 2484 409 2743 651 
Q 3003 894 3003 1313 
Q 3003 1734 2745 1975 
Q 2488 2216 2034 2216 
z
M 1403 2484 
Q 997 2584 770 2862 
Q 544 3141 544 3541 
Q 544 4100 942 4425 
Q 1341 4750 2034 4750 
Q 2731 4750 3128 4425 
Q 3525 4100 3525 3541 
Q 3525 3141 3298 2862 
Q 3072 2584 2669 2484 
Q 3125 2378 3379 2068 
Q 3634 1759 3634 1313 
Q 3634 634 3220 271 
Q 2806 -91 2034 -91 
Q 1263 -91 848 271 
Q 434 634 434 1313 
Q 434 1759 690 2068 
Q 947 2378 1403 2484 
z
M 1172 3481 
Q 1172 3119 1398 2916 
Q 1625 2713 2034 2713 
Q 2441 2713 2670 2916 
Q 2900 3119 2900 3481 
Q 2900 3844 2670 4047 
Q 2441 4250 2034 4250 
Q 1625 4250 1398 4047 
Q 1172 3844 1172 3481 
z
" transform="scale(0.015625)"/>
       </defs>
       <use xlink:href="#DejaVuSans-31"/>
       <use xlink:href="#DejaVuSans-38" x="63.623047"/>
       <use xlink:href="#DejaVuSans-30" x="127.246094"/>
       <use xlink:href="#DejaVuSans-b0" x="190.869141"/>
      </g>
     </g>
    </g>
    <g id="xtick_6">
     <g id="line2d_6">
      <path d="M 251.8225 262.917188 
L 408.6305 419.725187 
" clip-path="url(#p1c546535a2)" style="fill: none; stroke: #b0b0b0; stroke-width: 0.8; stroke-linecap: square"/>
     </g>
     <g id="text_6">
      <!-- 225° -->
      <g transform="translate(406.486245 432.384057)scale(0.1 -0.1)">
       <defs>
        <path id="DejaVuSans-32" d="M 1228 531 
L 3431 531 
L 3431 0 
L 469 0 
L 469 531 
Q 828 903 1448 1529 
Q 2069 2156 2228 2338 
Q 2531 2678 2651 2914 
Q 2772 3150 2772 3378 
Q 2772 3750 2511 3984 
Q 2250 4219 1831 4219 
Q 1534 4219 1204 4116 
Q 875 4013 500 3803 
L 500 4441 
Q 881 4594 1212 4672 
Q 1544 4750 1819 4750 
Q 2544 4750 2975 4387 
Q 3406 4025 3406 3419 
Q 3406 3131 3298 2873 
Q 3191 2616 2906 2266 
Q 2828 2175 2409 1742 
Q 1991 1309 1228 531 
z
" transform="scale(0.015625)"/>
       </defs>
       <use xlink:href="#DejaVuSans-32"/>
       <use xlink:href="#DejaVuSans-32" x="63.623047"/>
       <use xlink:href="#DejaVuSans-35" x="127.246094"/>
       <use xlink:href="#DejaVuSans-b0" x="190.869141"/>
      </g>
     </g>
    </g>
    <g id="xtick_7">
     <g id="line2d_7">
      <path d="M 251.8225 262.917188 
L 473.5825 262.917188 
" clip-path="url(#p1c546535a2)" style="fill: none; stroke: #b0b0b0; stroke-width: 0.8; stroke-linecap: square"/>
     </g>
     <g id="text_7">
      <!-- 270° -->
      <g transform="translate(475.53875 265.676563)scale(0.1 -0.1)">
       <defs>
        <path id="DejaVuSans-37" d="M 525 4666 
L 3525 4666 
L 3525 4397 
L 1831 0 
L 1172 0 
L 2766 4134 
L 525 4134 
L 525 4666 
z
" transform="scale(0.015625)"/>
       </defs>
       <use xlink:href="#DejaVuSans-32"/>
       <use xlink:href="#DejaVuSans-37" x="63.623047"/>
       <use xlink:href="#DejaVuSans-30" x="127.246094"/>
       <use xlink:href="#DejaVuSans-b0" x="190.869141"/>
      </g>
     </g>
    </g>
    <g id="xtick_8">
     <g id="line2d_8">
      <path d="M 251.8225 262.917188 
L 408.6305 106.109188 
" clip-path="url(#p1c546535a2)" style="fill: none; stroke: #b0b0b0; stroke-width: 0.8; stroke-linecap: square"/>
     </g>
     <g id="text_8">
      <!-- 315° -->
      <g transform="translate(406.486245 98.969068)scale(0.1 -0.1)">
       <use xlink:href="#DejaVuSans-33"/>
       <use xlink:href="#DejaVuSans-31" x="63.623047"/>
       <use xlink:href="#DejaVuSans-35" x="127.246094"/>
       <use xlink:href="#DejaVuSans-b0" x="190.869141"/>
      </g>
     </g>
    </g>
   </g>
   <g id="matplotlib.axis_2">
    <g id="ytick_1">
     <g id="line2d_9">
      <path d="M 251.8225 240.979316 
C 248.941645 240.979316 246.088803 241.546781 243.42724 242.649237 
C 240.765677 243.751692 238.347154 245.367697 236.310082 247.404769 
C 234.27301 249.441842 232.657005 251.860364 231.554549 254.521927 
C 230.452094 257.18349 229.884628 260.036333 229.884628 262.917188 
C 229.884628 265.798042 230.452094 268.650885 231.554549 271.312448 
C 232.657005 273.974011 234.27301 276.392533 236.310082 278.429606 
C 238.347154 280.466678 240.765677 282.082683 243.42724 283.185138 
C 246.088803 284.287594 248.941645 284.855059 251.8225 284.855059 
C 254.703355 284.855059 257.556197 284.287594 260.21776 283.185138 
C 262.879323 282.082683 265.297846 280.466678 267.334918 278.429606 
C 269.37199 276.392533 270.987995 273.974011 272.090451 271.312448 
C 273.192906 268.650885 273.760372 265.798042 273.760372 262.917188 
C 273.760372 260.036333 273.192906 257.18349 272.090451 254.521927 
C 270.987995 251.860364 269.37199 249.441842 267.334918 247.404769 
C 265.297846 245.367697 262.879323 243.751692 260.21776 242.649237 
C 257.556197 241.546781 254.703355 240.979316 251.8225 240.979316 
" clip-path="url(#p1c546535a2)" style="fill: none; stroke: #b0b0b0; stroke-width: 0.8; stroke-linecap: square"/>
     </g>
     <g id="text_9">
      <!-- −50 -->
      <g transform="translate(243.42724 240.569549)scale(0.1 -0.1)">
       <defs>
        <path id="DejaVuSans-2212" d="M 678 2272 
L 4684 2272 
L 4684 1741 
L 678 1741 
L 678 2272 
z
" transform="scale(0.015625)"/>
       </defs>
       <use xlink:href="#DejaVuSans-2212"/>
       <use xlink:href="#DejaVuSans-35" x="83.789062"/>
       <use xlink:href="#DejaVuSans-30" x="147.412109"/>
      </g>
     </g>
    </g>
    <g id="ytick_2">
     <g id="line2d_10">
      <path d="M 251.8225 201.01489 
C 243.693565 201.01489 235.643673 202.616113 228.133516 205.726922 
C 220.623359 208.837731 213.798991 213.397628 208.050966 219.145653 
C 202.30294 224.893678 197.743043 231.718047 194.632234 239.228204 
C 191.521425 246.738361 189.920202 254.788252 189.920202 262.917188 
C 189.920202 271.046123 191.521425 279.096014 194.632234 286.606171 
C 197.743043 294.116328 202.30294 300.940697 208.050966 306.688722 
C 213.798991 312.436747 220.623359 316.996644 228.133516 320.107453 
C 235.643673 323.218262 243.693565 324.819485 251.8225 324.819485 
C 259.951435 324.819485 268.001327 323.218262 275.511484 320.107453 
C 283.021641 316.996644 289.846009 312.436747 295.594034 306.688722 
C 301.34206 300.940697 305.901957 294.116328 309.012766 286.606171 
C 312.123575 279.096014 313.724798 271.046123 313.724798 262.917188 
C 313.724798 254.788252 312.123575 246.738361 309.012766 239.228204 
C 305.901957 231.718047 301.34206 224.893678 295.594034 219.145653 
C 289.846009 213.397628 283.021641 208.837731 275.511484 205.726922 
C 268.001327 202.616113 259.951435 201.01489 251.8225 201.01489 
" clip-path="url(#p1c546535a2)" style="fill: none; stroke: #b0b0b0; stroke-width: 0.8; stroke-linecap: square"/>
     </g>
     <g id="text_10">
      <!-- −40 -->
      <g transform="translate(228.133516 203.647234)scale(0.1 -0.1)">
       <use xlink:href="#DejaVuSans-2212"/>
       <use xlink:href="#DejaVuSans-34" x="83.789062"/>
       <use xlink:href="#DejaVuSans-30" x="147.412109"/>
      </g>
     </g>
    </g>
    <g id="ytick_3">
     <g id="line2d_11">
      <path d="M 251.8225 161.050464 
C 238.445484 161.050464 225.198544 163.685445 212.839793 168.804607 
C 200.481042 173.923769 189.250828 181.427558 179.791849 190.886537 
C 170.332871 200.345515 162.829082 211.575729 157.709919 223.93448 
C 152.590757 236.293231 149.955777 249.540172 149.955777 262.917188 
C 149.955777 276.294203 152.590757 289.541144 157.709919 301.899895 
C 162.829082 314.258646 170.332871 325.48886 179.791849 334.947838 
C 189.250828 344.406817 200.481042 351.910606 212.839793 357.029768 
C 225.198544 362.14893 238.445484 364.783911 251.8225 364.783911 
C 265.199516 364.783911 278.446456 362.14893 290.805207 357.029768 
C 303.163958 351.910606 314.394172 344.406817 323.853151 334.947838 
C 333.312129 325.48886 340.815918 314.258646 345.935081 301.899895 
C 351.054243 289.541144 353.689223 276.294203 353.689223 262.917188 
C 353.689223 249.540172 351.054243 236.293231 345.935081 223.93448 
C 340.815918 211.575729 333.312129 200.345515 323.853151 190.886537 
C 314.394172 181.427558 303.163958 173.923769 290.805207 168.804607 
C 278.446456 163.685445 265.199516 161.050464 251.8225 161.050464 
" clip-path="url(#p1c546535a2)" style="fill: none; stroke: #b0b0b0; stroke-width: 0.8; stroke-linecap: square"/>
     </g>
     <g id="text_11">
      <!-- −30 -->
      <g transform="translate(212.839793 166.724919)scale(0.1 -0.1)">
       <use xlink:href="#DejaVuSans-2212"/>
       <use xlink:href="#DejaVuSans-33" x="83.789062"/>
       <use xlink:href="#DejaVuSans-30" x="147.412109"/>
      </g>
     </g>
    </g>
    <g id="ytick_4">
     <g id="line2d_12">
      <path d="M 251.8225 121.086039 
C 233.197404 121.086039 214.753414 124.754776 197.546069 131.882292 
C 180.338724 139.009808 164.702664 149.457489 151.532733 162.62742 
C 138.362801 175.797352 127.91512 191.433412 120.787605 208.640757 
C 113.660089 225.848101 109.991351 244.292092 109.991351 262.917188 
C 109.991351 281.542283 113.660089 299.986274 120.787605 317.193618 
C 127.91512 334.400963 138.362801 350.037023 151.532733 363.206955 
C 164.702664 376.376886 180.338724 386.824567 197.546069 393.952083 
C 214.753414 401.079599 233.197404 404.748336 251.8225 404.748336 
C 270.447596 404.748336 288.891586 401.079599 306.098931 393.952083 
C 323.306276 386.824567 338.942336 376.376886 352.112267 363.206955 
C 365.282199 350.037023 375.72988 334.400963 382.857395 317.193618 
C 389.984911 299.986274 393.653649 281.542283 393.653649 262.917188 
C 393.653649 244.292092 389.984911 225.848101 382.857395 208.640757 
C 375.72988 191.433412 365.282199 175.797352 352.112267 162.62742 
C 338.942336 149.457489 323.306276 139.009808 306.098931 131.882292 
C 288.891586 124.754776 270.447596 121.086039 251.8225 121.086039 
" clip-path="url(#p1c546535a2)" style="fill: none; stroke: #b0b0b0; stroke-width: 0.8; stroke-linecap: square"/>
     </g>
     <g id="text_12">
      <!-- −20 -->
      <g transform="translate(197.546069 129.802605)scale(0.1 -0.1)">
       <use xlink:href="#DejaVuSans-2212"/>
       <use xlink:href="#DejaVuSans-32" x="83.789062"/>
       <use xlink:href="#DejaVuSans-30" x="147.412109"/>
      </g>
     </g>
    </g>
    <g id="ytick_5">
     <g id="line2d_13">
      <path d="M 251.8225 81.121613 
C 227.949324 81.121613 204.308284 85.824108 182.252346 94.959977 
C 160.196407 104.095846 140.154501 117.487419 123.273617 134.368304 
C 106.392732 151.249189 93.001159 171.291094 83.86529 193.347033 
C 74.729421 215.402972 70.026926 239.044011 70.026926 262.917188 
C 70.026926 286.790364 74.729421 310.431403 83.86529 332.487342 
C 93.001159 354.543281 106.392732 374.585186 123.273617 391.466071 
C 140.154501 408.346956 160.196407 421.738529 182.252346 430.874398 
C 204.308284 440.010267 227.949324 444.712762 251.8225 444.712762 
C 275.695676 444.712762 299.336716 440.010267 321.392654 430.874398 
C 343.448593 421.738529 363.490499 408.346956 380.371383 391.466071 
C 397.252268 374.585186 410.643841 354.543281 419.77971 332.487342 
C 428.915579 310.431403 433.618074 286.790364 433.618074 262.917188 
C 433.618074 239.044011 428.915579 215.402972 419.77971 193.347033 
C 410.643841 171.291094 397.252268 151.249189 380.371383 134.368304 
C 363.490499 117.487419 343.448593 104.095846 321.392654 94.959977 
C 299.336716 85.824108 275.695676 81.121613 251.8225 81.121613 
" clip-path="url(#p1c546535a2)" style="fill: none; stroke: #b0b0b0; stroke-width: 0.8; stroke-linecap: square"/>
     </g>
     <g id="text_13">
      <!-- −10 -->
      <g transform="translate(182.252346 92.88029)scale(0.1 -0.1)">
       <use xlink:href="#DejaVuSans-2212"/>
       <use xlink:href="#DejaVuSans-31" x="83.789062"/>
       <use xlink:href="#DejaVuSans-30" x="147.412109"/>
      </g>
     </g>
    </g>
    <g id="ytick_6">
     <g id="line2d_14">
      <path d="M 251.8225 41.157188 
C 222.701244 41.157188 193.863155 46.89344 166.958622 58.037662 
C 140.054089 69.181885 115.606338 85.51735 95.0145 106.109188 
C 74.422662 126.701026 58.087197 151.148777 46.942975 178.05331 
C 35.798753 204.957842 30.0625 233.795931 30.0625 262.917188 
C 30.0625 292.038444 35.798753 320.876533 46.942975 347.781065 
C 58.087197 374.685598 74.422662 399.133349 95.0145 419.725187 
C 115.606338 440.317025 140.054089 456.65249 166.958622 467.796713 
C 193.863155 478.940935 222.701244 484.677188 251.8225 484.677188 
C 280.943756 484.677188 309.781845 478.940935 336.686378 467.796713 
C 363.590911 456.65249 388.038662 440.317025 408.6305 419.725187 
C 429.222338 399.133349 445.557803 374.685598 456.702025 347.781065 
C 467.846247 320.876533 473.5825 292.038444 473.5825 262.917188 
C 473.5825 233.795931 467.846247 204.957842 456.702025 178.05331 
C 445.557803 151.148777 429.222338 126.701026 408.6305 106.109188 
C 388.038662 85.51735 363.590911 69.181885 336.686378 58.037662 
C 309.781845 46.89344 280.943756 41.157188 251.8225 41.157188 
" clip-path="url(#p1c546535a2)" style="fill: none; stroke: #b0b0b0; stroke-width: 0.8; stroke-linecap: square"/>
     </g>
     <g id="text_14">
      <!-- 0 -->
      <g transform="translate(166.958622 55.957975)scale(0.1 -0.1)">
       <use xlink:href="#DejaVuSans-30"/>
      </g>
     </g>
    </g>
   </g>
   <g id="line2d_15">
    <path d="M 251.8225 469.658556 
L 255.444933 470.446215 
L 259.11717 471.8092 
L 266.576631 473.911087 
L 270.390835 475.154232 
L 278.062157 476.622043 
L 281.986387 477.544395 
L 285.888226 477.999714 
L 293.737485 478.551094 
L 305.348313 477.597496 
L 312.944535 476.075056 
L 316.658849 474.98733 
L 320.31553 473.717057 
L 323.851349 472.104154 
L 330.76856 468.578706 
L 333.983528 466.272868 
L 337.2343 464.134778 
L 340.403046 461.872351 
L 346.269396 456.562021 
L 349.037659 453.71268 
L 351.408957 450.212072 
L 353.91078 447.08932 
L 356.106372 443.542151 
L 357.863754 439.399472 
L 359.906869 435.888335 
L 361.407303 431.662986 
L 362.659546 427.239866 
L 364.270376 423.509397 
L 365.602314 413.908101 
L 366.419086 409.594129 
L 366.071714 404.003217 
L 366.371704 394.690973 
L 365.616202 389.297897 
L 365.727636 385.065491 
L 366.204134 381.362836 
L 367.366538 378.461226 
L 369.540825 376.596452 
L 372.760759 375.693938 
L 376.869708 375.5102 
L 380.39313 374.681931 
L 384.255889 374.041995 
L 388.501372 373.597556 
L 392.00256 372.437854 
L 395.842739 371.444222 
L 399.215062 370.004152 
L 407.935746 364.298315 
L 412.83811 359.665127 
L 414.941621 357.094056 
L 416.881964 354.411142 
L 422.306254 346.06767 
L 425.462101 340.226519 
L 426.711314 337.153085 
L 428.598612 330.775179 
L 429.260257 327.499249 
L 430.372219 320.931508 
L 430.623725 317.582208 
L 430.797414 310.873371 
L 429.433735 303.921972 
L 428.750219 300.524335 
L 427.096411 296.986985 
L 425.853881 293.603616 
L 424.480094 290.263464 
L 419.28014 283.4784 
L 416.342424 280.208928 
L 411.523169 276.889186 
L 408.070933 273.843142 
L 403.85973 270.885121 
L 398.863304 268.051966 
L 396.345218 265.439841 
L 394.720699 262.917188 
L 395.558039 260.408274 
L 399.270693 257.768183 
L 403.98345 254.94277 
L 408.453657 251.96447 
L 413.454068 248.776258 
L 417.872626 245.464616 
L 421.049268 242.138753 
L 424.004989 238.718517 
L 426.426083 235.262697 
L 430.152441 228.253358 
L 431.619506 224.700154 
L 432.619039 221.177018 
L 433.968644 217.503053 
L 434.746467 213.902858 
L 435.173184 210.342225 
L 435.737317 206.688785 
L 435.556568 203.21837 
L 434.480301 196.435185 
L 433.687697 193.105679 
L 432.712116 189.833039 
L 431.563578 186.621626 
L 428.780542 180.400297 
L 426.943499 177.50497 
L 424.998875 174.679417 
L 422.90677 171.950068 
L 420.136151 169.619407 
L 417.727743 167.131751 
L 415.016805 164.860157 
L 411.487744 163.14727 
L 408.197178 161.366284 
L 404.814031 159.723097 
L 400.328231 158.932355 
L 396.660842 157.685973 
L 392.568054 156.857806 
L 386.686644 157.54977 
L 381.851814 157.621526 
L 376.27162 158.491977 
L 367.357315 162.484305 
L 360.561792 165.007889 
L 351.622975 169.851739 
L 342.98917 174.878558 
L 341.1336 173.606087 
L 345.43844 165.975044 
L 351.851773 155.648925 
L 354.831387 148.514228 
L 358.461425 140.243137 
L 360.126695 133.845274 
L 360.526045 128.679489 
L 361.461268 122.585964 
L 361.085501 117.920288 
L 359.472664 109.17682 
L 357.968738 105.548918 
L 354.724632 98.239353 
L 348.243552 88.969004 
L 340.770103 80.547576 
L 337.958852 78.197184 
L 335.232332 75.575639 
L 332.218651 73.515725 
L 325.992183 69.698556 
L 322.6771 68.245773 
L 319.314363 66.906585 
L 312.425567 64.693488 
L 308.902879 63.854249 
L 301.725612 62.766738 
L 298.067579 62.607745 
L 287.139129 62.626632 
L 283.475651 63.067059 
L 279.867275 63.368244 
L 272.660453 64.657312 
L 262.155797 65.746127 
L 251.8225 66.346765 
L 244.97847 66.929815 
L 234.701405 67.222174 
L 224.46741 68.275605 
L 221.070236 68.755031 
L 214.320433 69.985778 
L 210.973984 70.740028 
L 207.673 71.684691 
L 201.176992 73.905579 
L 194.886019 76.68635 
L 191.787771 78.14929 
L 182.98775 83.596533 
L 180.398628 86.136901 
L 177.792725 88.513968 
L 175.322667 91.09575 
L 173.185173 94.278895 
L 171.000326 97.207173 
L 169.127559 100.619228 
L 167.692312 104.691316 
L 166.046148 108.172553 
L 164.877194 112.323501 
L 163.974737 116.713958 
L 162.760138 120.387615 
L 162.153758 124.839433 
L 161.431477 128.906985 
L 160.532233 132.541174 
L 159.992615 136.524194 
L 159.137986 139.920683 
L 157.861756 142.652919 
L 157.082473 145.922997 
L 155.414713 148.022861 
L 153.678538 150.015475 
L 151.217667 151.1842 
L 148.631569 152.258462 
L 145.705501 153.029819 
L 142.543508 153.638195 
L 136.648028 155.515255 
L 133.359639 156.252748 
L 130.81035 157.722931 
L 127.569313 158.656384 
L 124.939381 160.169264 
L 119.991367 163.575303 
L 117.582555 165.386158 
L 115.409795 167.399983 
L 112.468105 168.921461 
L 109.695893 170.61909 
L 107.150968 172.516381 
L 103.635836 173.877657 
L 101.04884 175.867974 
L 96.229001 180.186657 
L 94.356623 182.684316 
L 91.409786 188.11551 
L 90.172559 190.945997 
L 87.914902 196.694219 
L 85.391901 202.341404 
L 83.698782 205.027549 
L 82.451816 207.885316 
L 79.17459 213.411196 
L 76.838525 219.288783 
L 76.092073 222.346622 
L 74.900922 228.527116 
L 72.687031 240.922118 
L 72.48943 244.068522 
L 72.905649 250.406102 
L 73.812066 253.588056 
L 75.210061 256.749745 
L 76.344056 259.8542 
L 79.352919 265.927655 
L 80.781702 268.890064 
L 86.627727 277.369857 
L 92.615499 282.465349 
L 95.026963 284.953363 
L 99.26425 287.08004 
L 102.003715 289.334282 
L 104.892384 291.477509 
L 108.110495 293.464117 
L 110.020617 295.654732 
L 113.355119 297.440983 
L 117.205915 298.987593 
L 120.087919 300.691471 
L 123.832332 302.047709 
L 129.251593 302.742889 
L 133.502189 303.658138 
L 139.026918 303.971422 
L 143.566213 304.472883 
L 145.449223 305.894781 
L 151.30319 305.585103 
L 163.614496 304.049256 
L 178.390421 298.732406 
L 192.283735 293.253704 
L 192.172977 294.633402 
L 177.562196 304.080346 
L 170.068517 310.117872 
L 164.279585 315.518278 
L 158.103833 321.47911 
L 155.50356 325.467439 
L 152.408743 329.972613 
L 150.421953 333.918615 
L 150.438231 336.57717 
L 150.178475 339.511454 
L 149.307347 343.010803 
L 150.015766 345.358656 
L 150.392442 348.027112 
L 151.00953 350.552565 
L 152.533543 352.317366 
L 154.98868 353.216185 
L 160.711294 354.028394 
L 164.858245 352.97131 
L 168.222947 352.566733 
L 171.271058 352.378627 
L 172.244228 354.461518 
L 170.838171 359.430553 
L 169.866435 364.124499 
L 166.490574 372.137072 
L 164.821282 378.371703 
L 163.469209 384.525059 
L 161.465185 391.960807 
L 161.042625 397.503887 
L 160.841256 403.016017 
L 160.265379 409.439209 
L 161.815919 418.813158 
L 162.684562 423.726284 
L 164.301989 427.519328 
L 165.843591 431.660297 
L 167.580568 435.638744 
L 169.856214 438.694456 
L 172.026154 442.142715 
L 174.351103 445.428361 
L 176.988249 448.138459 
L 179.587715 451.095237 
L 182.435912 453.555272 
L 188.559563 457.620488 
L 191.803657 459.229979 
L 198.450431 462.10446 
L 205.366155 464.141724 
L 208.90087 464.847578 
L 212.465131 465.393296 
L 216.052705 465.777774 
L 226.826753 466.49121 
L 233.978307 466.877244 
L 241.096195 467.587272 
L 244.657401 468.098766 
L 248.227408 468.879848 
L 248.227408 468.879848 
" clip-path="url(#p1c546535a2)" style="fill: none; stroke: #ff0000; stroke-width: 1.5; stroke-linecap: square"/>
   </g>
   <g id="line2d_16">
    <path d="M 251.8225 42.587914 
L 247.97011 42.213896 
L 244.107177 41.979247 
L 240.238231 41.876162 
L 236.368358 41.912666 
L 232.50146 42.076695 
L 228.643103 42.379961 
L 224.796754 42.810153 
L 220.96726 43.370746 
L 217.158476 44.057152 
L 213.376044 44.8765 
L 209.623081 45.819996 
L 205.904619 46.890544 
L 202.225035 48.086966 
L 198.588669 49.407954 
L 194.999821 50.852064 
L 191.46275 52.417725 
L 187.982836 54.107055 
L 184.564439 55.918161 
L 181.211866 57.849015 
L 177.930728 59.901213 
L 174.726838 62.076122 
L 171.603202 64.367459 
L 168.565618 66.776265 
L 165.621686 69.306988 
L 162.774364 71.952844 
L 160.032048 74.718872 
L 157.400528 77.603633 
L 154.886574 80.607226 
L 152.497696 83.730497 
L 150.241622 86.973946 
L 148.125672 90.336684 
L 146.163003 93.826646 
L 144.357724 97.435944 
L 142.726349 101.175493 
L 141.274912 105.03887 
L 140.020992 109.035613 
L 138.978277 113.167846 
L 138.158426 117.433807 
L 137.583346 121.843581 
L 137.260553 126.387575 
L 137.212992 131.074031 
L 137.443161 135.886062 
L 137.947345 140.801035 
L 138.715125 145.791072 
L 141.333298 159.88434 
L 141.482413 163.566527 
L 140.760641 166.372586 
L 138.970162 168.222832 
L 136.247669 169.326535 
L 132.868315 169.979993 
L 125.332511 171.016831 
L 121.587256 171.725488 
L 117.994524 172.649078 
L 114.56256 173.77954 
L 111.367103 175.150914 
L 108.366617 176.720197 
L 105.586239 178.487643 
L 103.016495 180.432672 
L 100.660985 182.543184 
L 98.515703 184.803473 
L 96.57592 187.198371 
L 94.839826 189.714965 
L 93.316012 192.345552 
L 91.990788 195.072651 
L 90.879252 197.891894 
L 89.974121 200.789416 
L 89.28628 203.758841 
L 88.818935 206.790559 
L 88.578775 209.876086 
L 88.57607 213.007745 
L 88.820915 216.177235 
L 89.327066 219.376667 
L 90.111999 222.598231 
L 91.185272 225.831161 
L 92.595235 229.072387 
L 94.382623 232.313975 
L 96.548797 235.538244 
L 99.212936 238.746207 
L 102.415708 241.919432 
L 106.236988 245.041534 
L 110.915375 248.107252 
L 116.690032 251.094628 
L 123.959424 253.97613 
L 133.560811 256.719355 
L 147.249984 259.265435 
L 170.697682 261.501149 
L 241.2625 262.917188 
L 171.736599 264.315092 
L 147.769205 266.550809 
L 133.880088 269.098287 
L 124.198626 271.841518 
L 116.849281 274.725814 
L 111.034612 277.714591 
L 106.355988 280.778229 
L 102.455283 283.909381 
L 99.252409 287.081916 
L 96.588154 290.289191 
L 94.382623 293.5204 
L 92.595235 296.761988 
L 91.185272 300.003214 
L 90.084855 303.242912 
L 89.284603 306.469086 
L 88.767133 309.672562 
L 88.511099 312.846493 
L 88.502758 315.982988 
L 88.732025 319.073742 
L 89.188639 322.111072 
L 89.865922 325.086493 
L 90.756972 327.991885 
L 91.858353 330.817939 
L 93.169974 333.553843 
L 94.68408 336.192036 
L 96.403505 338.720096 
L 98.326978 341.127062 
L 100.459852 343.398135 
L 102.796287 345.523766 
L 105.343967 347.486608 
L 108.10627 349.27061 
L 111.079023 350.863473 
L 114.260907 352.250731 
L 117.663204 353.408775 
L 121.227149 354.361036 
L 124.912197 355.12292 
L 132.364437 356.248055 
L 135.688622 356.960548 
L 138.449715 358.048249 
L 140.278056 359.881293 
L 141.066622 362.642228 
L 141.011788 366.249848 
L 140.359741 370.555523 
L 138.576317 380.187043 
L 137.854676 385.132716 
L 137.370959 390.028501 
L 137.15531 394.8267 
L 137.214313 399.501906 
L 137.543105 404.040487 
L 138.12398 408.444657 
L 138.944605 412.711213 
L 139.990455 416.840793 
L 141.245113 420.838063 
L 142.697297 424.701954 
L 144.329428 428.442003 
L 146.135472 432.051788 
L 148.100972 435.538798 
L 150.215845 438.905076 
L 152.472895 442.148618 
L 154.862558 445.272316 
L 157.377849 448.275253 
L 160.010324 451.160044 
L 162.754097 453.924995 
L 165.60218 456.571198 
L 168.548441 459.098576 
L 171.586734 461.507676 
L 174.711084 463.799294 
L 177.918427 465.96696 
L 181.201457 468.015589 
L 184.554559 469.946621 
L 187.974657 471.754073 
L 191.456141 473.4397 
L 194.99465 475.001612 
L 198.584802 476.441932 
L 202.222338 477.759091 
L 205.903788 478.94774 
L 209.623081 480.014379 
L 213.377432 480.950004 
L 217.160977 481.761434 
L 220.970041 482.443841 
L 224.800164 482.996456 
L 228.646863 483.418643 
L 232.50564 483.709905 
L 236.371982 483.869882 
L 240.241577 483.894357 
L 244.109688 483.783236 
L 247.971574 483.536566 
L 251.8225 483.150546 
L 255.657523 482.625516 
L 259.471712 481.961968 
L 263.259522 481.148573 
L 267.015984 480.194138 
L 270.735317 479.091673 
L 274.411209 477.834401 
L 278.038292 476.427677 
L 281.609285 474.861176 
L 285.117377 473.132768 
L 288.554838 471.236628 
L 291.914211 469.171161 
L 295.186089 466.926834 
L 298.360744 464.496468 
L 301.427442 461.871745 
L 304.374015 459.04211 
L 307.186635 455.994871 
L 309.85031 452.717602 
L 312.345042 449.186418 
L 314.65247 445.38867 
L 316.746278 441.293801 
L 318.599183 436.876394 
L 320.17733 432.101328 
L 321.447186 426.942668 
L 322.376255 421.383516 
L 322.955735 415.462903 
L 323.439038 403.472557 
L 324.06123 398.778479 
L 325.820705 396.413483 
L 329.118395 396.797605 
L 333.604394 399.025116 
L 338.678123 401.91524 
L 343.911642 404.722031 
L 349.076539 407.10223 
L 354.097302 408.980743 
L 358.951747 410.367947 
L 363.642142 411.306865 
L 368.170931 411.836388 
L 372.55298 412.006913 
L 376.793483 411.851806 
L 380.899664 411.403479 
L 384.878047 410.690343 
L 388.734149 409.736956 
L 392.469127 408.561034 
L 396.086843 407.181531 
L 399.588782 405.613428 
L 402.975924 403.870035 
L 406.248905 401.963347 
L 409.40732 399.903582 
L 412.450949 397.70046 
L 415.379132 395.362736 
L 418.191638 392.899004 
L 420.884824 390.314787 
L 423.45752 387.617329 
L 425.908877 384.813781 
L 428.238362 381.911189 
L 430.442403 378.914309 
L 432.520967 375.830122 
L 434.464049 372.659301 
L 436.278814 369.41309 
L 437.952039 366.090475 
L 439.487893 362.700647 
L 440.880295 359.246945 
L 442.126793 355.734793 
L 443.221484 352.168 
L 444.158524 348.550703 
L 444.935816 344.888927 
L 445.543303 341.185472 
L 445.977986 337.446496 
L 446.230659 333.675971 
L 446.293407 329.878891 
L 446.155978 326.059962 
L 445.80704 322.224213 
L 445.234405 318.377159 
L 444.416436 314.522577 
L 443.34112 310.668143 
L 441.980248 306.818563 
L 440.309459 302.981327 
L 438.284855 299.161798 
L 435.858501 295.3677 
L 432.970607 291.608229 
L 429.533686 287.892866 
L 425.42052 284.232344 
L 420.456083 280.641291 
L 414.345864 277.136139 
L 406.595851 273.739995 
L 396.264923 270.487094 
L 381.157866 267.433678 
L 353.326071 264.688939 
L 310.859348 262.917188 
L 367.471323 260.89853 
L 388.18732 258.155223 
L 400.974262 255.100475 
L 410.104154 251.849056 
L 417.132729 248.454417 
L 422.765296 244.950376 
L 427.384014 241.360944 
L 431.235432 237.702344 
L 434.466611 233.989202 
L 437.188777 230.232112 
L 439.477452 226.44076 
L 441.384464 222.624548 
L 442.957646 218.790162 
L 444.232998 214.943862 
L 445.230952 211.093549 
L 445.980065 207.243402 
L 446.493056 203.400426 
L 446.786918 199.569408 
L 446.874066 195.755547 
L 446.765056 191.9639 
L 446.469731 188.199116 
L 445.995366 184.466257 
L 445.351514 180.768995 
L 444.538221 177.114621 
L 443.569197 173.504234 
L 442.442887 169.945413 
L 441.168724 166.440467 
L 439.749013 162.994888 
L 438.186228 159.614086 
L 436.483014 156.30339 
L 434.645606 153.065983 
L 432.67687 149.906835 
L 430.576471 146.833001 
L 428.347698 143.849438 
L 425.997266 140.958703 
L 423.522184 138.170065 
L 420.926316 135.488322 
L 418.210533 132.920609 
L 415.379132 130.471639 
L 412.427682 128.153439 
L 409.362078 125.970122 
L 406.181191 123.931998 
L 402.885316 122.048832 
L 399.474394 120.331411 
L 395.947808 118.791879 
L 392.304223 117.444105 
L 388.540634 116.304939 
L 384.656093 115.390537 
L 380.647962 114.720446 
L 376.505771 114.325452 
L 372.226024 114.231218 
L 367.799402 114.473522 
L 363.218841 115.08925 
L 358.470192 116.129232 
L 353.544866 117.642593 
L 348.444096 119.669781 
L 343.191182 122.221756 
L 337.873362 125.207022 
L 332.760483 128.213764 
L 328.319106 130.421179 
L 325.278201 130.399594 
L 323.854847 127.444047 
L 323.511612 122.219383 
L 323.445315 116.068654 
L 323.21077 109.824549 
L 322.63796 103.863059 
L 321.693908 98.310465 
L 320.403391 93.173526 
L 318.802555 88.428179 
L 316.926704 84.044857 
L 314.812507 79.980924 
L 312.485828 76.214661 
L 309.972997 72.715482 
L 307.294589 69.463024 
L 304.46752 66.443297 
L 301.508347 63.638141 
L 298.430327 61.03651 
L 295.245582 58.627649 
L 291.96454 56.404295 
L 288.59717 54.357668 
L 285.152387 52.480562 
L 281.638207 50.767406 
L 278.061183 49.220265 
L 274.42959 47.825094 
L 270.748901 46.587434 
L 267.02602 45.496716 
L 263.266424 44.5541 
L 259.475757 43.756581 
L 255.659406 43.100971 
L 255.659406 43.100971 
" clip-path="url(#p1c546535a2)" style="fill: none; stroke-dasharray: 5.55,2.4; stroke-dashoffset: 0; stroke: #0000ff; stroke-width: 1.5"/>
   </g>
   <g id="patch_3">
    <path d="M 251.8225 41.157188 
C 222.701244 41.157188 193.863155 46.89344 166.958622 58.037662 
C 140.054089 69.181885 115.606338 85.51735 95.0145 106.109188 
C 74.422662 126.701026 58.087197 151.148777 46.942975 178.05331 
C 35.798753 204.957842 30.0625 233.795931 30.0625 262.917188 
C 30.0625 292.038444 35.798753 320.876533 46.942975 347.781065 
C 58.087197 374.685598 74.422662 399.133349 95.0145 419.725187 
C 115.606338 440.317025 140.054089 456.65249 166.958622 467.796713 
C 193.863155 478.940935 222.701244 484.677188 251.8225 484.677188 
C 280.943756 484.677188 309.781845 478.940935 336.686378 467.796713 
C 363.590911 456.65249 388.038662 440.317025 408.6305 419.725187 
C 429.222338 399.133349 445.557803 374.685598 456.702025 347.781065 
C 467.846247 320.876533 473.5825 292.038444 473.5825 262.917188 
C 473.5825 233.795931 467.846247 204.957842 456.702025 178.05331 
C 445.557803 151.148777 429.222338 126.701026 408.6305 106.109188 
C 388.038662 85.51735 363.590911 69.181885 336.686378 58.037662 
C 309.781845 46.89344 280.943756 41.157188 251.8225 41.157188 
" style="fill: none; stroke: #000000; stroke-width: 0.8; stroke-linejoin: miter; stroke-linecap: square"/>
   </g>
   <g id="text_15">
    <g id="patch_4">
     <path d="M 384.8785 509.853188 
L 485.369125 509.853188 
Q 488.369125 509.853188 488.369125 506.853188 
L 488.369125 473.945063 
Q 488.369125 470.945063 485.369125 470.945063 
L 384.8785 470.945063 
Q 381.8785 470.945063 381.8785 473.945063 
L 381.8785 506.853188 
Q 381.8785 509.853188 384.8785 509.853188 
z
" style="fill: #ffffff; stroke: #808080; stroke-linejoin: miter"/>
    </g>
    <!-- G_cst: 4.0 dBi -->
    <g transform="translate(384.8785 481.821625)scale(0.1 -0.1)">
     <defs>
      <path id="DejaVuSans-47" d="M 3809 666 
L 3809 1919 
L 2778 1919 
L 2778 2438 
L 4434 2438 
L 4434 434 
Q 4069 175 3628 42 
Q 3188 -91 2688 -91 
Q 1594 -91 976 548 
Q 359 1188 359 2328 
Q 359 3472 976 4111 
Q 1594 4750 2688 4750 
Q 3144 4750 3555 4637 
Q 3966 4525 4313 4306 
L 4313 3634 
Q 3963 3931 3569 4081 
Q 3175 4231 2741 4231 
Q 1884 4231 1454 3753 
Q 1025 3275 1025 2328 
Q 1025 1384 1454 906 
Q 1884 428 2741 428 
Q 3075 428 3337 486 
Q 3600 544 3809 666 
z
" transform="scale(0.015625)"/>
      <path id="DejaVuSans-5f" d="M 3263 -1063 
L 3263 -1509 
L -63 -1509 
L -63 -1063 
L 3263 -1063 
z
" transform="scale(0.015625)"/>
      <path id="DejaVuSans-63" d="M 3122 3366 
L 3122 2828 
Q 2878 2963 2633 3030 
Q 2388 3097 2138 3097 
Q 1578 3097 1268 2742 
Q 959 2388 959 1747 
Q 959 1106 1268 751 
Q 1578 397 2138 397 
Q 2388 397 2633 464 
Q 2878 531 3122 666 
L 3122 134 
Q 2881 22 2623 -34 
Q 2366 -91 2075 -91 
Q 1284 -91 818 406 
Q 353 903 353 1747 
Q 353 2603 823 3093 
Q 1294 3584 2113 3584 
Q 2378 3584 2631 3529 
Q 2884 3475 3122 3366 
z
" transform="scale(0.015625)"/>
      <path id="DejaVuSans-73" d="M 2834 3397 
L 2834 2853 
Q 2591 2978 2328 3040 
Q 2066 3103 1784 3103 
Q 1356 3103 1142 2972 
Q 928 2841 928 2578 
Q 928 2378 1081 2264 
Q 1234 2150 1697 2047 
L 1894 2003 
Q 2506 1872 2764 1633 
Q 3022 1394 3022 966 
Q 3022 478 2636 193 
Q 2250 -91 1575 -91 
Q 1294 -91 989 -36 
Q 684 19 347 128 
L 347 722 
Q 666 556 975 473 
Q 1284 391 1588 391 
Q 1994 391 2212 530 
Q 2431 669 2431 922 
Q 2431 1156 2273 1281 
Q 2116 1406 1581 1522 
L 1381 1569 
Q 847 1681 609 1914 
Q 372 2147 372 2553 
Q 372 3047 722 3315 
Q 1072 3584 1716 3584 
Q 2034 3584 2315 3537 
Q 2597 3491 2834 3397 
z
" transform="scale(0.015625)"/>
      <path id="DejaVuSans-74" d="M 1172 4494 
L 1172 3500 
L 2356 3500 
L 2356 3053 
L 1172 3053 
L 1172 1153 
Q 1172 725 1289 603 
Q 1406 481 1766 481 
L 2356 481 
L 2356 0 
L 1766 0 
Q 1100 0 847 248 
Q 594 497 594 1153 
L 594 3053 
L 172 3053 
L 172 3500 
L 594 3500 
L 594 4494 
L 1172 4494 
z
" transform="scale(0.015625)"/>
      <path id="DejaVuSans-3a" d="M 750 794 
L 1409 794 
L 1409 0 
L 750 0 
L 750 794 
z
M 750 3309 
L 1409 3309 
L 1409 2516 
L 750 2516 
L 750 3309 
z
" transform="scale(0.015625)"/>
      <path id="DejaVuSans-20" transform="scale(0.015625)"/>
      <path id="DejaVuSans-2e" d="M 684 794 
L 1344 794 
L 1344 0 
L 684 0 
L 684 794 
z
" transform="scale(0.015625)"/>
      <path id="DejaVuSans-64" d="M 2906 2969 
L 2906 4863 
L 3481 4863 
L 3481 0 
L 2906 0 
L 2906 525 
Q 2725 213 2448 61 
Q 2172 -91 1784 -91 
Q 1150 -91 751 415 
Q 353 922 353 1747 
Q 353 2572 751 3078 
Q 1150 3584 1784 3584 
Q 2172 3584 2448 3432 
Q 2725 3281 2906 2969 
z
M 947 1747 
Q 947 1113 1208 752 
Q 1469 391 1925 391 
Q 2381 391 2643 752 
Q 2906 1113 2906 1747 
Q 2906 2381 2643 2742 
Q 2381 3103 1925 3103 
Q 1469 3103 1208 2742 
Q 947 2381 947 1747 
z
" transform="scale(0.015625)"/>
      <path id="DejaVuSans-42" d="M 1259 2228 
L 1259 519 
L 2272 519 
Q 2781 519 3026 730 
Q 3272 941 3272 1375 
Q 3272 1813 3026 2020 
Q 2781 2228 2272 2228 
L 1259 2228 
z
M 1259 4147 
L 1259 2741 
L 2194 2741 
Q 2656 2741 2882 2914 
Q 3109 3088 3109 3444 
Q 3109 3797 2882 3972 
Q 2656 4147 2194 4147 
L 1259 4147 
z
M 628 4666 
L 2241 4666 
Q 2963 4666 3353 4366 
Q 3744 4066 3744 3513 
Q 3744 3084 3544 2831 
Q 3344 2578 2956 2516 
Q 3422 2416 3680 2098 
Q 3938 1781 3938 1306 
Q 3938 681 3513 340 
Q 3088 0 2303 0 
L 628 0 
L 628 4666 
z
" transform="scale(0.015625)"/>
      <path id="DejaVuSans-69" d="M 603 3500 
L 1178 3500 
L 1178 0 
L 603 0 
L 603 3500 
z
M 603 4863 
L 1178 4863 
L 1178 4134 
L 603 4134 
L 603 4863 
z
" transform="scale(0.015625)"/>
     </defs>
     <use xlink:href="#DejaVuSans-47"/>
     <use xlink:href="#DejaVuSans-5f" x="77.490234"/>
     <use xlink:href="#DejaVuSans-63" x="127.490234"/>
     <use xlink:href="#DejaVuSans-73" x="182.470703"/>
     <use xlink:href="#DejaVuSans-74" x="234.570312"/>
     <use xlink:href="#DejaVuSans-3a" x="273.779297"/>
     <use xlink:href="#DejaVuSans-20" x="307.470703"/>
     <use xlink:href="#DejaVuSans-34" x="339.257812"/>
     <use xlink:href="#DejaVuSans-2e" x="402.880859"/>
     <use xlink:href="#DejaVuSans-30" x="434.667969"/>
     <use xlink:href="#DejaVuSans-20" x="498.291016"/>
     <use xlink:href="#DejaVuSans-64" x="530.078125"/>
     <use xlink:href="#DejaVuSans-42" x="593.554688"/>
     <use xlink:href="#DejaVuSans-69" x="662.158203"/>
    </g>
    <!-- G_inpe: 5.5 dBi -->
    <g transform="translate(384.8785 493.297563)scale(0.1 -0.1)">
     <defs>
      <path id="DejaVuSans-6e" d="M 3513 2113 
L 3513 0 
L 2938 0 
L 2938 2094 
Q 2938 2591 2744 2837 
Q 2550 3084 2163 3084 
Q 1697 3084 1428 2787 
Q 1159 2491 1159 1978 
L 1159 0 
L 581 0 
L 581 3500 
L 1159 3500 
L 1159 2956 
Q 1366 3272 1645 3428 
Q 1925 3584 2291 3584 
Q 2894 3584 3203 3211 
Q 3513 2838 3513 2113 
z
" transform="scale(0.015625)"/>
      <path id="DejaVuSans-70" d="M 1159 525 
L 1159 -1331 
L 581 -1331 
L 581 3500 
L 1159 3500 
L 1159 2969 
Q 1341 3281 1617 3432 
Q 1894 3584 2278 3584 
Q 2916 3584 3314 3078 
Q 3713 2572 3713 1747 
Q 3713 922 3314 415 
Q 2916 -91 2278 -91 
Q 1894 -91 1617 61 
Q 1341 213 1159 525 
z
M 3116 1747 
Q 3116 2381 2855 2742 
Q 2594 3103 2138 3103 
Q 1681 3103 1420 2742 
Q 1159 2381 1159 1747 
Q 1159 1113 1420 752 
Q 1681 391 2138 391 
Q 2594 391 2855 752 
Q 3116 1113 3116 1747 
z
" transform="scale(0.015625)"/>
      <path id="DejaVuSans-65" d="M 3597 1894 
L 3597 1613 
L 953 1613 
Q 991 1019 1311 708 
Q 1631 397 2203 397 
Q 2534 397 2845 478 
Q 3156 559 3463 722 
L 3463 178 
Q 3153 47 2828 -22 
Q 2503 -91 2169 -91 
Q 1331 -91 842 396 
Q 353 884 353 1716 
Q 353 2575 817 3079 
Q 1281 3584 2069 3584 
Q 2775 3584 3186 3129 
Q 3597 2675 3597 1894 
z
M 3022 2063 
Q 3016 2534 2758 2815 
Q 2500 3097 2075 3097 
Q 1594 3097 1305 2825 
Q 1016 2553 972 2059 
L 3022 2063 
z
" transform="scale(0.015625)"/>
     </defs>
     <use xlink:href="#DejaVuSans-47"/>
     <use xlink:href="#DejaVuSans-5f" x="77.490234"/>
     <use xlink:href="#DejaVuSans-69" x="127.490234"/>
     <use xlink:href="#DejaVuSans-6e" x="155.273438"/>
     <use xlink:href="#DejaVuSans-70" x="218.652344"/>
     <use xlink:href="#DejaVuSans-65" x="282.128906"/>
     <use xlink:href="#DejaVuSans-3a" x="343.652344"/>
     <use xlink:href="#DejaVuSans-20" x="377.34375"/>
     <use xlink:href="#DejaVuSans-35" x="409.130859"/>
     <use xlink:href="#DejaVuSans-2e" x="472.753906"/>
     <use xlink:href="#DejaVuSans-35" x="504.541016"/>
     <use xlink:href="#DejaVuSans-20" x="568.164062"/>
     <use xlink:href="#DejaVuSans-64" x="599.951172"/>
     <use xlink:href="#DejaVuSans-42" x="663.427734"/>
     <use xlink:href="#DejaVuSans-69" x="732.03125"/>
    </g>
    <!-- Pearson Coef: 0.195 -->
    <g transform="translate(384.8785 504.7735)scale(0.1 -0.1)">
     <defs>
      <path id="DejaVuSans-50" d="M 1259 4147 
L 1259 2394 
L 2053 2394 
Q 2494 2394 2734 2622 
Q 2975 2850 2975 3272 
Q 2975 3691 2734 3919 
Q 2494 4147 2053 4147 
L 1259 4147 
z
M 628 4666 
L 2053 4666 
Q 2838 4666 3239 4311 
Q 3641 3956 3641 3272 
Q 3641 2581 3239 2228 
Q 2838 1875 2053 1875 
L 1259 1875 
L 1259 0 
L 628 0 
L 628 4666 
z
" transform="scale(0.015625)"/>
      <path id="DejaVuSans-61" d="M 2194 1759 
Q 1497 1759 1228 1600 
Q 959 1441 959 1056 
Q 959 750 1161 570 
Q 1363 391 1709 391 
Q 2188 391 2477 730 
Q 2766 1069 2766 1631 
L 2766 1759 
L 2194 1759 
z
M 3341 1997 
L 3341 0 
L 2766 0 
L 2766 531 
Q 2569 213 2275 61 
Q 1981 -91 1556 -91 
Q 1019 -91 701 211 
Q 384 513 384 1019 
Q 384 1609 779 1909 
Q 1175 2209 1959 2209 
L 2766 2209 
L 2766 2266 
Q 2766 2663 2505 2880 
Q 2244 3097 1772 3097 
Q 1472 3097 1187 3025 
Q 903 2953 641 2809 
L 641 3341 
Q 956 3463 1253 3523 
Q 1550 3584 1831 3584 
Q 2591 3584 2966 3190 
Q 3341 2797 3341 1997 
z
" transform="scale(0.015625)"/>
      <path id="DejaVuSans-72" d="M 2631 2963 
Q 2534 3019 2420 3045 
Q 2306 3072 2169 3072 
Q 1681 3072 1420 2755 
Q 1159 2438 1159 1844 
L 1159 0 
L 581 0 
L 581 3500 
L 1159 3500 
L 1159 2956 
Q 1341 3275 1631 3429 
Q 1922 3584 2338 3584 
Q 2397 3584 2469 3576 
Q 2541 3569 2628 3553 
L 2631 2963 
z
" transform="scale(0.015625)"/>
      <path id="DejaVuSans-6f" d="M 1959 3097 
Q 1497 3097 1228 2736 
Q 959 2375 959 1747 
Q 959 1119 1226 758 
Q 1494 397 1959 397 
Q 2419 397 2687 759 
Q 2956 1122 2956 1747 
Q 2956 2369 2687 2733 
Q 2419 3097 1959 3097 
z
M 1959 3584 
Q 2709 3584 3137 3096 
Q 3566 2609 3566 1747 
Q 3566 888 3137 398 
Q 2709 -91 1959 -91 
Q 1206 -91 779 398 
Q 353 888 353 1747 
Q 353 2609 779 3096 
Q 1206 3584 1959 3584 
z
" transform="scale(0.015625)"/>
      <path id="DejaVuSans-43" d="M 4122 4306 
L 4122 3641 
Q 3803 3938 3442 4084 
Q 3081 4231 2675 4231 
Q 1875 4231 1450 3742 
Q 1025 3253 1025 2328 
Q 1025 1406 1450 917 
Q 1875 428 2675 428 
Q 3081 428 3442 575 
Q 3803 722 4122 1019 
L 4122 359 
Q 3791 134 3420 21 
Q 3050 -91 2638 -91 
Q 1578 -91 968 557 
Q 359 1206 359 2328 
Q 359 3453 968 4101 
Q 1578 4750 2638 4750 
Q 3056 4750 3426 4639 
Q 3797 4528 4122 4306 
z
" transform="scale(0.015625)"/>
      <path id="DejaVuSans-66" d="M 2375 4863 
L 2375 4384 
L 1825 4384 
Q 1516 4384 1395 4259 
Q 1275 4134 1275 3809 
L 1275 3500 
L 2222 3500 
L 2222 3053 
L 1275 3053 
L 1275 0 
L 697 0 
L 697 3053 
L 147 3053 
L 147 3500 
L 697 3500 
L 697 3744 
Q 697 4328 969 4595 
Q 1241 4863 1831 4863 
L 2375 4863 
z
" transform="scale(0.015625)"/>
     </defs>
     <use xlink:href="#DejaVuSans-50"/>
     <use xlink:href="#DejaVuSans-65" x="56.677734"/>
     <use xlink:href="#DejaVuSans-61" x="118.201172"/>
     <use xlink:href="#DejaVuSans-72" x="179.480469"/>
     <use xlink:href="#DejaVuSans-73" x="220.59375"/>
     <use xlink:href="#DejaVuSans-6f" x="272.693359"/>
     <use xlink:href="#DejaVuSans-6e" x="333.875"/>
     <use xlink:href="#DejaVuSans-20" x="397.253906"/>
     <use xlink:href="#DejaVuSans-43" x="429.041016"/>
     <use xlink:href="#DejaVuSans-6f" x="498.865234"/>
     <use xlink:href="#DejaVuSans-65" x="560.046875"/>
     <use xlink:href="#DejaVuSans-66" x="621.570312"/>
     <use xlink:href="#DejaVuSans-3a" x="653.150391"/>
     <use xlink:href="#DejaVuSans-20" x="686.841797"/>
     <use xlink:href="#DejaVuSans-30" x="718.628906"/>
     <use xlink:href="#DejaVuSans-2e" x="782.251953"/>
     <use xlink:href="#DejaVuSans-31" x="814.039062"/>
     <use xlink:href="#DejaVuSans-39" x="877.662109"/>
     <use xlink:href="#DejaVuSans-35" x="941.285156"/>
    </g>
   </g>
   <g id="text_16">
    <g id="patch_5">
     <path d="M 52.2385 56.370938 
L 121.861 56.370938 
Q 125.461 56.370938 125.461 52.770938 
L 125.461 41.157188 
Q 125.461 37.557188 121.861 37.557188 
L 52.2385 37.557188 
Q 48.6385 37.557188 48.6385 41.157188 
L 48.6385 52.770938 
Q 48.6385 56.370938 52.2385 56.370938 
z
" style="fill: #ffffff; stroke: #808080; stroke-linejoin: miter"/>
    </g>
    <!-- Freq: 9 GHz -->
    <g transform="translate(52.2385 50.275313)scale(0.12 -0.12)">
     <defs>
      <path id="DejaVuSans-46" d="M 628 4666 
L 3309 4666 
L 3309 4134 
L 1259 4134 
L 1259 2759 
L 3109 2759 
L 3109 2228 
L 1259 2228 
L 1259 0 
L 628 0 
L 628 4666 
z
" transform="scale(0.015625)"/>
      <path id="DejaVuSans-71" d="M 947 1747 
Q 947 1113 1208 752 
Q 1469 391 1925 391 
Q 2381 391 2643 752 
Q 2906 1113 2906 1747 
Q 2906 2381 2643 2742 
Q 2381 3103 1925 3103 
Q 1469 3103 1208 2742 
Q 947 2381 947 1747 
z
M 2906 525 
Q 2725 213 2448 61 
Q 2172 -91 1784 -91 
Q 1150 -91 751 415 
Q 353 922 353 1747 
Q 353 2572 751 3078 
Q 1150 3584 1784 3584 
Q 2172 3584 2448 3432 
Q 2725 3281 2906 2969 
L 2906 3500 
L 3481 3500 
L 3481 -1331 
L 2906 -1331 
L 2906 525 
z
" transform="scale(0.015625)"/>
      <path id="DejaVuSans-48" d="M 628 4666 
L 1259 4666 
L 1259 2753 
L 3553 2753 
L 3553 4666 
L 4184 4666 
L 4184 0 
L 3553 0 
L 3553 2222 
L 1259 2222 
L 1259 0 
L 628 0 
L 628 4666 
z
" transform="scale(0.015625)"/>
      <path id="DejaVuSans-7a" d="M 353 3500 
L 3084 3500 
L 3084 2975 
L 922 459 
L 3084 459 
L 3084 0 
L 275 0 
L 275 525 
L 2438 3041 
L 353 3041 
L 353 3500 
z
" transform="scale(0.015625)"/>
     </defs>
     <use xlink:href="#DejaVuSans-46"/>
     <use xlink:href="#DejaVuSans-72" x="50.269531"/>
     <use xlink:href="#DejaVuSans-65" x="89.132812"/>
     <use xlink:href="#DejaVuSans-71" x="150.65625"/>
     <use xlink:href="#DejaVuSans-3a" x="214.132812"/>
     <use xlink:href="#DejaVuSans-20" x="247.824219"/>
     <use xlink:href="#DejaVuSans-39" x="279.611328"/>
     <use xlink:href="#DejaVuSans-20" x="343.234375"/>
     <use xlink:href="#DejaVuSans-47" x="375.021484"/>
     <use xlink:href="#DejaVuSans-48" x="452.511719"/>
     <use xlink:href="#DejaVuSans-7a" x="527.707031"/>
    </g>
   </g>
   <g id="text_17">
    <!-- Radiation Diagram - 3AVHF09 -->
    <g transform="translate(162.578125 16.318125)scale(0.12 -0.12)">
     <defs>
      <path id="DejaVuSans-52" d="M 2841 2188 
Q 3044 2119 3236 1894 
Q 3428 1669 3622 1275 
L 4263 0 
L 3584 0 
L 2988 1197 
Q 2756 1666 2539 1819 
Q 2322 1972 1947 1972 
L 1259 1972 
L 1259 0 
L 628 0 
L 628 4666 
L 2053 4666 
Q 2853 4666 3247 4331 
Q 3641 3997 3641 3322 
Q 3641 2881 3436 2590 
Q 3231 2300 2841 2188 
z
M 1259 4147 
L 1259 2491 
L 2053 2491 
Q 2509 2491 2742 2702 
Q 2975 2913 2975 3322 
Q 2975 3731 2742 3939 
Q 2509 4147 2053 4147 
L 1259 4147 
z
" transform="scale(0.015625)"/>
      <path id="DejaVuSans-44" d="M 1259 4147 
L 1259 519 
L 2022 519 
Q 2988 519 3436 956 
Q 3884 1394 3884 2338 
Q 3884 3275 3436 3711 
Q 2988 4147 2022 4147 
L 1259 4147 
z
M 628 4666 
L 1925 4666 
Q 3281 4666 3915 4102 
Q 4550 3538 4550 2338 
Q 4550 1131 3912 565 
Q 3275 0 1925 0 
L 628 0 
L 628 4666 
z
" transform="scale(0.015625)"/>
      <path id="DejaVuSans-67" d="M 2906 1791 
Q 2906 2416 2648 2759 
Q 2391 3103 1925 3103 
Q 1463 3103 1205 2759 
Q 947 2416 947 1791 
Q 947 1169 1205 825 
Q 1463 481 1925 481 
Q 2391 481 2648 825 
Q 2906 1169 2906 1791 
z
M 3481 434 
Q 3481 -459 3084 -895 
Q 2688 -1331 1869 -1331 
Q 1566 -1331 1297 -1286 
Q 1028 -1241 775 -1147 
L 775 -588 
Q 1028 -725 1275 -790 
Q 1522 -856 1778 -856 
Q 2344 -856 2625 -561 
Q 2906 -266 2906 331 
L 2906 616 
Q 2728 306 2450 153 
Q 2172 0 1784 0 
Q 1141 0 747 490 
Q 353 981 353 1791 
Q 353 2603 747 3093 
Q 1141 3584 1784 3584 
Q 2172 3584 2450 3431 
Q 2728 3278 2906 2969 
L 2906 3500 
L 3481 3500 
L 3481 434 
z
" transform="scale(0.015625)"/>
      <path id="DejaVuSans-6d" d="M 3328 2828 
Q 3544 3216 3844 3400 
Q 4144 3584 4550 3584 
Q 5097 3584 5394 3201 
Q 5691 2819 5691 2113 
L 5691 0 
L 5113 0 
L 5113 2094 
Q 5113 2597 4934 2840 
Q 4756 3084 4391 3084 
Q 3944 3084 3684 2787 
Q 3425 2491 3425 1978 
L 3425 0 
L 2847 0 
L 2847 2094 
Q 2847 2600 2669 2842 
Q 2491 3084 2119 3084 
Q 1678 3084 1418 2786 
Q 1159 2488 1159 1978 
L 1159 0 
L 581 0 
L 581 3500 
L 1159 3500 
L 1159 2956 
Q 1356 3278 1631 3431 
Q 1906 3584 2284 3584 
Q 2666 3584 2933 3390 
Q 3200 3197 3328 2828 
z
" transform="scale(0.015625)"/>
      <path id="DejaVuSans-2d" d="M 313 2009 
L 1997 2009 
L 1997 1497 
L 313 1497 
L 313 2009 
z
" transform="scale(0.015625)"/>
      <path id="DejaVuSans-41" d="M 2188 4044 
L 1331 1722 
L 3047 1722 
L 2188 4044 
z
M 1831 4666 
L 2547 4666 
L 4325 0 
L 3669 0 
L 3244 1197 
L 1141 1197 
L 716 0 
L 50 0 
L 1831 4666 
z
" transform="scale(0.015625)"/>
      <path id="DejaVuSans-56" d="M 1831 0 
L 50 4666 
L 709 4666 
L 2188 738 
L 3669 4666 
L 4325 4666 
L 2547 0 
L 1831 0 
z
" transform="scale(0.015625)"/>
     </defs>
     <use xlink:href="#DejaVuSans-52"/>
     <use xlink:href="#DejaVuSans-61" x="67.232422"/>
     <use xlink:href="#DejaVuSans-64" x="128.511719"/>
     <use xlink:href="#DejaVuSans-69" x="191.988281"/>
     <use xlink:href="#DejaVuSans-61" x="219.771484"/>
     <use xlink:href="#DejaVuSans-74" x="281.050781"/>
     <use xlink:href="#DejaVuSans-69" x="320.259766"/>
     <use xlink:href="#DejaVuSans-6f" x="348.042969"/>
     <use xlink:href="#DejaVuSans-6e" x="409.224609"/>
     <use xlink:href="#DejaVuSans-20" x="472.603516"/>
     <use xlink:href="#DejaVuSans-44" x="504.390625"/>
     <use xlink:href="#DejaVuSans-69" x="581.392578"/>
     <use xlink:href="#DejaVuSans-61" x="609.175781"/>
     <use xlink:href="#DejaVuSans-67" x="670.455078"/>
     <use xlink:href="#DejaVuSans-72" x="733.931641"/>
     <use xlink:href="#DejaVuSans-61" x="775.044922"/>
     <use xlink:href="#DejaVuSans-6d" x="836.324219"/>
     <use xlink:href="#DejaVuSans-20" x="933.736328"/>
     <use xlink:href="#DejaVuSans-2d" x="965.523438"/>
     <use xlink:href="#DejaVuSans-20" x="1001.607422"/>
     <use xlink:href="#DejaVuSans-33" x="1033.394531"/>
     <use xlink:href="#DejaVuSans-41" x="1097.017578"/>
     <use xlink:href="#DejaVuSans-56" x="1159.050781"/>
     <use xlink:href="#DejaVuSans-48" x="1227.458984"/>
     <use xlink:href="#DejaVuSans-46" x="1302.654297"/>
     <use xlink:href="#DejaVuSans-30" x="1360.173828"/>
     <use xlink:href="#DejaVuSans-39" x="1423.796875"/>
    </g>
   </g>
   <g id="legend_1">
    <g id="patch_6">
     <path d="M 411.802812 78.513438 
L 466.5825 78.513438 
Q 468.5825 78.513438 468.5825 76.513438 
L 468.5825 48.157188 
Q 468.5825 46.157188 466.5825 46.157188 
L 411.802812 46.157188 
Q 409.802812 46.157188 409.802812 48.157188 
L 409.802812 76.513438 
Q 409.802812 78.513438 411.802812 78.513438 
z
" style="fill: #ffffff; opacity: 0.8; stroke: #cccccc; stroke-linejoin: miter"/>
    </g>
    <g id="line2d_17">
     <path d="M 413.802812 54.255625 
L 423.802812 54.255625 
L 433.802812 54.255625 
" style="fill: none; stroke: #ff0000; stroke-width: 1.5; stroke-linecap: square"/>
    </g>
    <g id="text_18">
     <!-- INPE -->
     <g transform="translate(441.802812 57.755625)scale(0.1 -0.1)">
      <defs>
       <path id="DejaVuSans-49" d="M 628 4666 
L 1259 4666 
L 1259 0 
L 628 0 
L 628 4666 
z
" transform="scale(0.015625)"/>
       <path id="DejaVuSans-4e" d="M 628 4666 
L 1478 4666 
L 3547 763 
L 3547 4666 
L 4159 4666 
L 4159 0 
L 3309 0 
L 1241 3903 
L 1241 0 
L 628 0 
L 628 4666 
z
" transform="scale(0.015625)"/>
       <path id="DejaVuSans-45" d="M 628 4666 
L 3578 4666 
L 3578 4134 
L 1259 4134 
L 1259 2753 
L 3481 2753 
L 3481 2222 
L 1259 2222 
L 1259 531 
L 3634 531 
L 3634 0 
L 628 0 
L 628 4666 
z
" transform="scale(0.015625)"/>
      </defs>
      <use xlink:href="#DejaVuSans-49"/>
      <use xlink:href="#DejaVuSans-4e" x="29.492188"/>
      <use xlink:href="#DejaVuSans-50" x="104.296875"/>
      <use xlink:href="#DejaVuSans-45" x="164.599609"/>
     </g>
    </g>
    <g id="line2d_18">
     <path d="M 413.802812 68.93375 
L 423.802812 68.93375 
L 433.802812 68.93375 
" style="fill: none; stroke-dasharray: 5.55,2.4; stroke-dashoffset: 0; stroke: #0000ff; stroke-width: 1.5"/>
    </g>
    <g id="text_19">
     <!-- CST -->
     <g transform="translate(441.802812 72.43375)scale(0.1 -0.1)">
      <defs>
       <path id="DejaVuSans-53" d="M 3425 4513 
L 3425 3897 
Q 3066 4069 2747 4153 
Q 2428 4238 2131 4238 
Q 1616 4238 1336 4038 
Q 1056 3838 1056 3469 
Q 1056 3159 1242 3001 
Q 1428 2844 1947 2747 
L 2328 2669 
Q 3034 2534 3370 2195 
Q 3706 1856 3706 1288 
Q 3706 609 3251 259 
Q 2797 -91 1919 -91 
Q 1588 -91 1214 -16 
Q 841 59 441 206 
L 441 856 
Q 825 641 1194 531 
Q 1563 422 1919 422 
Q 2459 422 2753 634 
Q 3047 847 3047 1241 
Q 3047 1584 2836 1778 
Q 2625 1972 2144 2069 
L 1759 2144 
Q 1053 2284 737 2584 
Q 422 2884 422 3419 
Q 422 4038 858 4394 
Q 1294 4750 2059 4750 
Q 2388 4750 2728 4690 
Q 3069 4631 3425 4513 
z
" transform="scale(0.015625)"/>
       <path id="DejaVuSans-54" d="M -19 4666 
L 3928 4666 
L 3928 4134 
L 2272 4134 
L 2272 0 
L 1638 0 
L 1638 4134 
L -19 4134 
L -19 4666 
z
" transform="scale(0.015625)"/>
      </defs>
      <use xlink:href="#DejaVuSans-43"/>
      <use xlink:href="#DejaVuSans-53" x="69.824219"/>
      <use xlink:href="#DejaVuSans-54" x="133.300781"/>
     </g>
    </g>
   </g>
  </g>
 </g>
 <defs>
  <clipPath id="p1c546535a2">
   <path d="M 473.5825 262.917188 
C 473.5825 233.795931 467.846247 204.957842 456.702025 178.05331 
C 445.557803 151.148777 429.222338 126.701026 408.6305 106.109188 
C 388.038662 85.51735 363.590911 69.181885 336.686378 58.037662 
C 309.781845 46.89344 280.943756 41.157188 251.8225 41.157188 
C 222.701244 41.157188 193.863155 46.89344 166.958622 58.037662 
C 140.054089 69.181885 115.606338 85.51735 95.0145 106.109188 
C 74.422662 126.701026 58.087197 151.148777 46.942975 178.05331 
C 35.798753 204.957842 30.0625 233.795931 30.0625 262.917188 
C 30.0625 292.038444 35.798753 320.876533 46.942975 347.781065 
C 58.087197 374.685598 74.422662 399.133349 95.0145 419.725187 
C 115.606338 440.317025 140.054089 456.65249 166.958622 467.796713 
C 193.863155 478.940935 222.701244 484.677188 251.8225 484.677188 
C 280.943756 484.677188 309.781845 478.940935 336.686378 467.796713 
C 363.590911 456.65249 388.038662 440.317025 408.6305 419.725187 
C 429.222338 399.133349 445.557803 374.685598 456.702025 347.781065 
C 467.846247 320.876533 473.5825 292.038444 473.5825 262.917188 
M 251.8225 262.917188 
C 251.8225 262.917188 251.8225 262.917188 251.8225 262.917188 
C 251.8225 262.917188 251.8225 262.917188 251.8225 262.917188 
C 251.8225 262.917188 251.8225 262.917188 251.8225 262.917188 
C 251.8225 262.917188 251.8225 262.917188 251.8225 262.917188 
C 251.8225 262.917188 251.8225 262.917188 251.8225 262.917188 
C 251.8225 262.917188 251.8225 262.917188 251.8225 262.917188 
C 251.8225 262.917188 251.8225 262.917188 251.8225 262.917188 
C 251.8225 262.917188 251.8225 262.917188 251.8225 262.917188 
C 251.8225 262.917188 251.8225 262.917188 251.8225 262.917188 
C 251.8225 262.917188 251.8225 262.917188 251.8225 262.917188 
C 251.8225 262.917188 251.8225 262.917188 251.8225 262.917188 
C 251.8225 262.917188 251.8225 262.917188 251.8225 262.917188 
C 251.8225 262.917188 251.8225 262.917188 251.8225 262.917188 
C 251.8225 262.917188 251.8225 262.917188 251.8225 262.917188 
C 251.8225 262.917188 251.8225 262.917188 251.8225 262.917188 
C 251.8225 262.917188 251.8225 262.917188 251.8225 262.917188 
M 473.5825 262.917188 
z
"/>
  </clipPath>
 </defs>
</svg>
