<?xml version="1.0" encoding="utf-8" standalone="no"?>
<!DOCTYPE svg PUBLIC "-//W3C//DTD SVG 1.1//EN"
  "http://www.w3.org/Graphics/SVG/1.1/DTD/svg11.dtd">
<svg xmlns:xlink="http://www.w3.org/1999/xlink" width="506.82625pt" height="514.053188pt" viewBox="0 0 506.82625 514.053188" xmlns="http://www.w3.org/2000/svg" version="1.1">
 <metadata>
  <rdf:RDF xmlns:dc="http://purl.org/dc/elements/1.1/" xmlns:cc="http://creativecommons.org/ns#" xmlns:rdf="http://www.w3.org/1999/02/22-rdf-syntax-ns#">
   <cc:Work>
    <dc:type rdf:resource="http://purl.org/dc/dcmitype/StillImage"/>
    <dc:date>2024-01-27T15:44:17.673382</dc:date>
    <dc:format>image/svg+xml</dc:format>
    <dc:creator>
     <cc:Agent>
      <dc:title>Matplotlib v3.5.1, https://matplotlib.org/</dc:title>
     </cc:Agent>
    </dc:creator>
   </cc:Work>
  </rdf:RDF>
 </metadata>
 <defs>
  <style type="text/css">*{stroke-linejoin: round; stroke-linecap: butt}</style>
 </defs>
 <g id="figure_1">
  <g id="patch_1">
   <path d="M 0 514.053188 
L 506.82625 514.053188 
L 506.82625 0 
L 0 0 
z
" style="fill: #ffffff"/>
  </g>
  <g id="axes_1">
   <g id="patch_2">
    <path d="M 473.5825 262.917188 
C 473.5825 233.795931 467.846247 204.957842 456.702025 178.05331 
C 445.557803 151.148777 429.222338 126.701026 408.6305 106.109188 
C 388.038662 85.51735 363.590911 69.181885 336.686378 58.037662 
C 309.781845 46.89344 280.943756 41.157188 251.8225 41.157188 
C 222.701244 41.157188 193.863155 46.89344 166.958622 58.037662 
C 140.054089 69.181885 115.606338 85.51735 95.0145 106.109188 
C 74.422662 126.701026 58.087197 151.148777 46.942975 178.05331 
C 35.798753 204.957842 30.0625 233.795931 30.0625 262.917188 
C 30.0625 292.038444 35.798753 320.876533 46.942975 347.781065 
C 58.087197 374.685598 74.422662 399.133349 95.0145 419.725187 
C 115.606338 440.317025 140.054089 456.65249 166.958622 467.796713 
C 193.863155 478.940935 222.701244 484.677188 251.8225 484.677188 
C 280.943756 484.677188 309.781845 478.940935 336.686378 467.796713 
C 363.590911 456.65249 388.038662 440.317025 408.6305 419.725187 
C 429.222338 399.133349 445.557803 374.685598 456.702025 347.781065 
C 467.846247 320.876533 473.5825 292.038444 473.5825 262.917188 
M 251.8225 262.917188 
C 251.8225 262.917188 251.8225 262.917188 251.8225 262.917188 
C 251.8225 262.917188 251.8225 262.917188 251.8225 262.917188 
C 251.8225 262.917188 251.8225 262.917188 251.8225 262.917188 
C 251.8225 262.917188 251.8225 262.917188 251.8225 262.917188 
C 251.8225 262.917188 251.8225 262.917188 251.8225 262.917188 
C 251.8225 262.917188 251.8225 262.917188 251.8225 262.917188 
C 251.8225 262.917188 251.8225 262.917188 251.8225 262.917188 
C 251.8225 262.917188 251.8225 262.917188 251.8225 262.917188 
C 251.8225 262.917188 251.8225 262.917188 251.8225 262.917188 
C 251.8225 262.917188 251.8225 262.917188 251.8225 262.917188 
C 251.8225 262.917188 251.8225 262.917188 251.8225 262.917188 
C 251.8225 262.917188 251.8225 262.917188 251.8225 262.917188 
C 251.8225 262.917188 251.8225 262.917188 251.8225 262.917188 
C 251.8225 262.917188 251.8225 262.917188 251.8225 262.917188 
C 251.8225 262.917188 251.8225 262.917188 251.8225 262.917188 
C 251.8225 262.917188 251.8225 262.917188 251.8225 262.917188 
M 473.5825 262.917188 
z
" style="fill: #ffffff"/>
   </g>
   <g id="matplotlib.axis_1">
    <g id="xtick_1">
     <g id="line2d_1">
      <path d="M 251.8225 262.917188 
L 251.8225 41.157188 
" clip-path="url(#pebde70d4a9)" style="fill: none; stroke: #b0b0b0; stroke-width: 0.8; stroke-linecap: square"/>
     </g>
     <g id="text_1">
      <!-- 0° -->
      <g transform="translate(246.14125 29.916563)scale(0.1 -0.1)">
       <defs>
        <path id="DejaVuSans-30" d="M 2034 4250 
Q 1547 4250 1301 3770 
Q 1056 3291 1056 2328 
Q 1056 1369 1301 889 
Q 1547 409 2034 409 
Q 2525 409 2770 889 
Q 3016 1369 3016 2328 
Q 3016 3291 2770 3770 
Q 2525 4250 2034 4250 
z
M 2034 4750 
Q 2819 4750 3233 4129 
Q 3647 3509 3647 2328 
Q 3647 1150 3233 529 
Q 2819 -91 2034 -91 
Q 1250 -91 836 529 
Q 422 1150 422 2328 
Q 422 3509 836 4129 
Q 1250 4750 2034 4750 
z
" transform="scale(0.015625)"/>
        <path id="DejaVuSans-b0" d="M 1600 4347 
Q 1350 4347 1178 4173 
Q 1006 4000 1006 3750 
Q 1006 3503 1178 3333 
Q 1350 3163 1600 3163 
Q 1850 3163 2022 3333 
Q 2194 3503 2194 3750 
Q 2194 3997 2020 4172 
Q 1847 4347 1600 4347 
z
M 1600 4750 
Q 1800 4750 1984 4673 
Q 2169 4597 2303 4453 
Q 2447 4313 2519 4134 
Q 2591 3956 2591 3750 
Q 2591 3338 2302 3052 
Q 2013 2766 1594 2766 
Q 1172 2766 890 3047 
Q 609 3328 609 3750 
Q 609 4169 896 4459 
Q 1184 4750 1600 4750 
z
" transform="scale(0.015625)"/>
       </defs>
       <use xlink:href="#DejaVuSans-30"/>
       <use xlink:href="#DejaVuSans-b0" x="63.623047"/>
      </g>
     </g>
    </g>
    <g id="xtick_2">
     <g id="line2d_2">
      <path d="M 251.8225 262.917188 
L 95.0145 106.109188 
" clip-path="url(#pebde70d4a9)" style="fill: none; stroke: #b0b0b0; stroke-width: 0.8; stroke-linecap: square"/>
     </g>
     <g id="text_2">
      <!-- 45° -->
      <g transform="translate(76.252505 98.969068)scale(0.1 -0.1)">
       <defs>
        <path id="DejaVuSans-34" d="M 2419 4116 
L 825 1625 
L 2419 1625 
L 2419 4116 
z
M 2253 4666 
L 3047 4666 
L 3047 1625 
L 3713 1625 
L 3713 1100 
L 3047 1100 
L 3047 0 
L 2419 0 
L 2419 1100 
L 313 1100 
L 313 1709 
L 2253 4666 
z
" transform="scale(0.015625)"/>
        <path id="DejaVuSans-35" d="M 691 4666 
L 3169 4666 
L 3169 4134 
L 1269 4134 
L 1269 2991 
Q 1406 3038 1543 3061 
Q 1681 3084 1819 3084 
Q 2600 3084 3056 2656 
Q 3513 2228 3513 1497 
Q 3513 744 3044 326 
Q 2575 -91 1722 -91 
Q 1428 -91 1123 -41 
Q 819 9 494 109 
L 494 744 
Q 775 591 1075 516 
Q 1375 441 1709 441 
Q 2250 441 2565 725 
Q 2881 1009 2881 1497 
Q 2881 1984 2565 2268 
Q 2250 2553 1709 2553 
Q 1456 2553 1204 2497 
Q 953 2441 691 2322 
L 691 4666 
z
" transform="scale(0.015625)"/>
       </defs>
       <use xlink:href="#DejaVuSans-34"/>
       <use xlink:href="#DejaVuSans-35" x="63.623047"/>
       <use xlink:href="#DejaVuSans-b0" x="127.246094"/>
      </g>
     </g>
    </g>
    <g id="xtick_3">
     <g id="line2d_3">
      <path d="M 251.8225 262.917188 
L 30.0625 262.917188 
" clip-path="url(#pebde70d4a9)" style="fill: none; stroke: #b0b0b0; stroke-width: 0.8; stroke-linecap: square"/>
     </g>
     <g id="text_3">
      <!-- 90° -->
      <g transform="translate(7.2 265.676563)scale(0.1 -0.1)">
       <defs>
        <path id="DejaVuSans-39" d="M 703 97 
L 703 672 
Q 941 559 1184 500 
Q 1428 441 1663 441 
Q 2288 441 2617 861 
Q 2947 1281 2994 2138 
Q 2813 1869 2534 1725 
Q 2256 1581 1919 1581 
Q 1219 1581 811 2004 
Q 403 2428 403 3163 
Q 403 3881 828 4315 
Q 1253 4750 1959 4750 
Q 2769 4750 3195 4129 
Q 3622 3509 3622 2328 
Q 3622 1225 3098 567 
Q 2575 -91 1691 -91 
Q 1453 -91 1209 -44 
Q 966 3 703 97 
z
M 1959 2075 
Q 2384 2075 2632 2365 
Q 2881 2656 2881 3163 
Q 2881 3666 2632 3958 
Q 2384 4250 1959 4250 
Q 1534 4250 1286 3958 
Q 1038 3666 1038 3163 
Q 1038 2656 1286 2365 
Q 1534 2075 1959 2075 
z
" transform="scale(0.015625)"/>
       </defs>
       <use xlink:href="#DejaVuSans-39"/>
       <use xlink:href="#DejaVuSans-30" x="63.623047"/>
       <use xlink:href="#DejaVuSans-b0" x="127.246094"/>
      </g>
     </g>
    </g>
    <g id="xtick_4">
     <g id="line2d_4">
      <path d="M 251.8225 262.917188 
L 95.0145 419.725187 
" clip-path="url(#pebde70d4a9)" style="fill: none; stroke: #b0b0b0; stroke-width: 0.8; stroke-linecap: square"/>
     </g>
     <g id="text_4">
      <!-- 135° -->
      <g transform="translate(73.071255 432.384057)scale(0.1 -0.1)">
       <defs>
        <path id="DejaVuSans-31" d="M 794 531 
L 1825 531 
L 1825 4091 
L 703 3866 
L 703 4441 
L 1819 4666 
L 2450 4666 
L 2450 531 
L 3481 531 
L 3481 0 
L 794 0 
L 794 531 
z
" transform="scale(0.015625)"/>
        <path id="DejaVuSans-33" d="M 2597 2516 
Q 3050 2419 3304 2112 
Q 3559 1806 3559 1356 
Q 3559 666 3084 287 
Q 2609 -91 1734 -91 
Q 1441 -91 1130 -33 
Q 819 25 488 141 
L 488 750 
Q 750 597 1062 519 
Q 1375 441 1716 441 
Q 2309 441 2620 675 
Q 2931 909 2931 1356 
Q 2931 1769 2642 2001 
Q 2353 2234 1838 2234 
L 1294 2234 
L 1294 2753 
L 1863 2753 
Q 2328 2753 2575 2939 
Q 2822 3125 2822 3475 
Q 2822 3834 2567 4026 
Q 2313 4219 1838 4219 
Q 1578 4219 1281 4162 
Q 984 4106 628 3988 
L 628 4550 
Q 988 4650 1302 4700 
Q 1616 4750 1894 4750 
Q 2613 4750 3031 4423 
Q 3450 4097 3450 3541 
Q 3450 3153 3228 2886 
Q 3006 2619 2597 2516 
z
" transform="scale(0.015625)"/>
       </defs>
       <use xlink:href="#DejaVuSans-31"/>
       <use xlink:href="#DejaVuSans-33" x="63.623047"/>
       <use xlink:href="#DejaVuSans-35" x="127.246094"/>
       <use xlink:href="#DejaVuSans-b0" x="190.869141"/>
      </g>
     </g>
    </g>
    <g id="xtick_5">
     <g id="line2d_5">
      <path d="M 251.8225 262.917188 
L 251.8225 484.677188 
" clip-path="url(#pebde70d4a9)" style="fill: none; stroke: #b0b0b0; stroke-width: 0.8; stroke-linecap: square"/>
     </g>
     <g id="text_5">
      <!-- 180° -->
      <g transform="translate(239.77875 501.436563)scale(0.1 -0.1)">
       <defs>
        <path id="DejaVuSans-38" d="M 2034 2216 
Q 1584 2216 1326 1975 
Q 1069 1734 1069 1313 
Q 1069 891 1326 650 
Q 1584 409 2034 409 
Q 2484 409 2743 651 
Q 3003 894 3003 1313 
Q 3003 1734 2745 1975 
Q 2488 2216 2034 2216 
z
M 1403 2484 
Q 997 2584 770 2862 
Q 544 3141 544 3541 
Q 544 4100 942 4425 
Q 1341 4750 2034 4750 
Q 2731 4750 3128 4425 
Q 3525 4100 3525 3541 
Q 3525 3141 3298 2862 
Q 3072 2584 2669 2484 
Q 3125 2378 3379 2068 
Q 3634 1759 3634 1313 
Q 3634 634 3220 271 
Q 2806 -91 2034 -91 
Q 1263 -91 848 271 
Q 434 634 434 1313 
Q 434 1759 690 2068 
Q 947 2378 1403 2484 
z
M 1172 3481 
Q 1172 3119 1398 2916 
Q 1625 2713 2034 2713 
Q 2441 2713 2670 2916 
Q 2900 3119 2900 3481 
Q 2900 3844 2670 4047 
Q 2441 4250 2034 4250 
Q 1625 4250 1398 4047 
Q 1172 3844 1172 3481 
z
" transform="scale(0.015625)"/>
       </defs>
       <use xlink:href="#DejaVuSans-31"/>
       <use xlink:href="#DejaVuSans-38" x="63.623047"/>
       <use xlink:href="#DejaVuSans-30" x="127.246094"/>
       <use xlink:href="#DejaVuSans-b0" x="190.869141"/>
      </g>
     </g>
    </g>
    <g id="xtick_6">
     <g id="line2d_6">
      <path d="M 251.8225 262.917188 
L 408.6305 419.725187 
" clip-path="url(#pebde70d4a9)" style="fill: none; stroke: #b0b0b0; stroke-width: 0.8; stroke-linecap: square"/>
     </g>
     <g id="text_6">
      <!-- 225° -->
      <g transform="translate(406.486245 432.384057)scale(0.1 -0.1)">
       <defs>
        <path id="DejaVuSans-32" d="M 1228 531 
L 3431 531 
L 3431 0 
L 469 0 
L 469 531 
Q 828 903 1448 1529 
Q 2069 2156 2228 2338 
Q 2531 2678 2651 2914 
Q 2772 3150 2772 3378 
Q 2772 3750 2511 3984 
Q 2250 4219 1831 4219 
Q 1534 4219 1204 4116 
Q 875 4013 500 3803 
L 500 4441 
Q 881 4594 1212 4672 
Q 1544 4750 1819 4750 
Q 2544 4750 2975 4387 
Q 3406 4025 3406 3419 
Q 3406 3131 3298 2873 
Q 3191 2616 2906 2266 
Q 2828 2175 2409 1742 
Q 1991 1309 1228 531 
z
" transform="scale(0.015625)"/>
       </defs>
       <use xlink:href="#DejaVuSans-32"/>
       <use xlink:href="#DejaVuSans-32" x="63.623047"/>
       <use xlink:href="#DejaVuSans-35" x="127.246094"/>
       <use xlink:href="#DejaVuSans-b0" x="190.869141"/>
      </g>
     </g>
    </g>
    <g id="xtick_7">
     <g id="line2d_7">
      <path d="M 251.8225 262.917188 
L 473.5825 262.917188 
" clip-path="url(#pebde70d4a9)" style="fill: none; stroke: #b0b0b0; stroke-width: 0.8; stroke-linecap: square"/>
     </g>
     <g id="text_7">
      <!-- 270° -->
      <g transform="translate(475.53875 265.676563)scale(0.1 -0.1)">
       <defs>
        <path id="DejaVuSans-37" d="M 525 4666 
L 3525 4666 
L 3525 4397 
L 1831 0 
L 1172 0 
L 2766 4134 
L 525 4134 
L 525 4666 
z
" transform="scale(0.015625)"/>
       </defs>
       <use xlink:href="#DejaVuSans-32"/>
       <use xlink:href="#DejaVuSans-37" x="63.623047"/>
       <use xlink:href="#DejaVuSans-30" x="127.246094"/>
       <use xlink:href="#DejaVuSans-b0" x="190.869141"/>
      </g>
     </g>
    </g>
    <g id="xtick_8">
     <g id="line2d_8">
      <path d="M 251.8225 262.917188 
L 408.6305 106.109188 
" clip-path="url(#pebde70d4a9)" style="fill: none; stroke: #b0b0b0; stroke-width: 0.8; stroke-linecap: square"/>
     </g>
     <g id="text_8">
      <!-- 315° -->
      <g transform="translate(406.486245 98.969068)scale(0.1 -0.1)">
       <use xlink:href="#DejaVuSans-33"/>
       <use xlink:href="#DejaVuSans-31" x="63.623047"/>
       <use xlink:href="#DejaVuSans-35" x="127.246094"/>
       <use xlink:href="#DejaVuSans-b0" x="190.869141"/>
      </g>
     </g>
    </g>
   </g>
   <g id="matplotlib.axis_2">
    <g id="ytick_1">
     <g id="line2d_9">
      <path d="M 251.8225 252.647231 
C 250.473862 252.647231 249.138337 252.912883 247.892358 253.428985 
C 246.646378 253.945086 245.514175 254.7016 244.560544 255.655232 
C 243.606913 256.608863 242.850399 257.741066 242.334297 258.987045 
C 241.818196 260.233025 241.552543 261.568549 241.552543 262.917188 
C 241.552543 264.265826 241.818196 265.60135 242.334297 266.84733 
C 242.850399 268.093309 243.606913 269.225512 244.560544 270.179143 
C 245.514175 271.132775 246.646378 271.889289 247.892358 272.40539 
C 249.138337 272.921492 250.473862 273.187144 251.8225 273.187144 
C 253.171138 273.187144 254.506663 272.921492 255.752642 272.40539 
C 256.998622 271.889289 258.130825 271.132775 259.084456 270.179143 
C 260.038087 269.225512 260.794601 268.093309 261.310703 266.84733 
C 261.826804 265.60135 262.092457 264.265826 262.092457 262.917188 
C 262.092457 261.568549 261.826804 260.233025 261.310703 258.987045 
C 260.794601 257.741066 260.038087 256.608863 259.084456 255.655232 
C 258.130825 254.7016 256.998622 253.945086 255.752642 253.428985 
C 254.506663 252.912883 253.171138 252.647231 251.8225 252.647231 
" clip-path="url(#pebde70d4a9)" style="fill: none; stroke: #b0b0b0; stroke-width: 0.8; stroke-linecap: square"/>
     </g>
     <g id="text_9">
      <!-- −17.5 -->
      <g transform="translate(247.892358 251.349297)scale(0.1 -0.1)">
       <defs>
        <path id="DejaVuSans-2212" d="M 678 2272 
L 4684 2272 
L 4684 1741 
L 678 1741 
L 678 2272 
z
" transform="scale(0.015625)"/>
        <path id="DejaVuSans-2e" d="M 684 794 
L 1344 794 
L 1344 0 
L 684 0 
L 684 794 
z
" transform="scale(0.015625)"/>
       </defs>
       <use xlink:href="#DejaVuSans-2212"/>
       <use xlink:href="#DejaVuSans-31" x="83.789062"/>
       <use xlink:href="#DejaVuSans-37" x="147.412109"/>
       <use xlink:href="#DejaVuSans-2e" x="211.035156"/>
       <use xlink:href="#DejaVuSans-35" x="242.822266"/>
      </g>
     </g>
    </g>
    <g id="ytick_2">
     <g id="line2d_10">
      <path d="M 251.8225 222.434368 
C 246.506345 222.434368 241.241883 223.481534 236.330396 225.515939 
C 231.418909 227.550343 226.955913 230.532422 223.196824 234.291511 
C 219.437734 238.0506 216.455656 242.513596 214.421251 247.425083 
C 212.386847 252.33657 211.33968 257.601032 211.33968 262.917188 
C 211.33968 268.233343 212.386847 273.497805 214.421251 278.409292 
C 216.455656 283.320779 219.437734 287.783775 223.196824 291.542864 
C 226.955913 295.301953 231.418909 298.284032 236.330396 300.318436 
C 241.241883 302.352841 246.506345 303.400007 251.8225 303.400007 
C 257.138655 303.400007 262.403117 302.352841 267.314604 300.318436 
C 272.226091 298.284032 276.689087 295.301953 280.448176 291.542864 
C 284.207266 287.783775 287.189344 283.320779 289.223749 278.409292 
C 291.258153 273.497805 292.30532 268.233343 292.30532 262.917188 
C 292.30532 257.601032 291.258153 252.33657 289.223749 247.425083 
C 287.189344 242.513596 284.207266 238.0506 280.448176 234.291511 
C 276.689087 230.532422 272.226091 227.550343 267.314604 225.515939 
C 262.403117 223.481534 257.138655 222.434368 251.8225 222.434368 
" clip-path="url(#pebde70d4a9)" style="fill: none; stroke: #b0b0b0; stroke-width: 0.8; stroke-linecap: square"/>
     </g>
     <g id="text_10">
      <!-- −15.0 -->
      <g transform="translate(236.330396 223.436251)scale(0.1 -0.1)">
       <use xlink:href="#DejaVuSans-2212"/>
       <use xlink:href="#DejaVuSans-31" x="83.789062"/>
       <use xlink:href="#DejaVuSans-35" x="147.412109"/>
       <use xlink:href="#DejaVuSans-2e" x="211.035156"/>
       <use xlink:href="#DejaVuSans-30" x="242.822266"/>
      </g>
     </g>
    </g>
    <g id="ytick_3">
     <g id="line2d_11">
      <path d="M 251.8225 192.221504 
C 242.538828 192.221504 233.345428 194.050185 224.768433 197.602893 
C 216.191439 201.1556 208.39765 206.363243 201.833103 212.92779 
C 195.268556 219.492338 190.060913 227.286126 186.508205 235.863121 
C 182.955498 244.440115 181.126817 253.633515 181.126817 262.917188 
C 181.126817 272.20086 182.955498 281.39426 186.508205 289.971254 
C 190.060913 298.548249 195.268556 306.342037 201.833103 312.906585 
C 208.39765 319.471132 216.191439 324.678775 224.768433 328.231482 
C 233.345428 331.78419 242.538828 333.612871 251.8225 333.612871 
C 261.106172 333.612871 270.299572 331.78419 278.876567 328.231482 
C 287.453561 324.678775 295.24735 319.471132 301.811897 312.906585 
C 308.376444 306.342037 313.584087 298.548249 317.136795 289.971254 
C 320.689502 281.39426 322.518183 272.20086 322.518183 262.917188 
C 322.518183 253.633515 320.689502 244.440115 317.136795 235.863121 
C 313.584087 227.286126 308.376444 219.492338 301.811897 212.92779 
C 295.24735 206.363243 287.453561 201.1556 278.876567 197.602893 
C 270.299572 194.050185 261.106172 192.221504 251.8225 192.221504 
" clip-path="url(#pebde70d4a9)" style="fill: none; stroke: #b0b0b0; stroke-width: 0.8; stroke-linecap: square"/>
     </g>
     <g id="text_11">
      <!-- −12.5 -->
      <g transform="translate(224.768433 195.523205)scale(0.1 -0.1)">
       <use xlink:href="#DejaVuSans-2212"/>
       <use xlink:href="#DejaVuSans-31" x="83.789062"/>
       <use xlink:href="#DejaVuSans-32" x="147.412109"/>
       <use xlink:href="#DejaVuSans-2e" x="211.035156"/>
       <use xlink:href="#DejaVuSans-35" x="242.822266"/>
      </g>
     </g>
    </g>
    <g id="ytick_4">
     <g id="line2d_12">
      <path d="M 251.8225 162.008641 
C 238.571311 162.008641 225.448973 164.618836 213.206471 169.689847 
C 200.963969 174.760857 189.839388 182.194064 180.469382 191.56407 
C 171.099377 200.934075 163.66617 212.058656 158.595159 224.301159 
C 153.524149 236.543661 150.913953 249.665999 150.913953 262.917188 
C 150.913953 276.168376 153.524149 289.290714 158.595159 301.533216 
C 163.66617 313.775719 171.099377 324.9003 180.469382 334.270305 
C 189.839388 343.640311 200.963969 351.073518 213.206471 356.144528 
C 225.448973 361.215539 238.571311 363.825734 251.8225 363.825734 
C 265.073689 363.825734 278.196027 361.215539 290.438529 356.144528 
C 302.681031 351.073518 313.805612 343.640311 323.175618 334.270305 
C 332.545623 324.9003 339.97883 313.775719 345.049841 301.533216 
C 350.120851 289.290714 352.731047 276.168376 352.731047 262.917188 
C 352.731047 249.665999 350.120851 236.543661 345.049841 224.301159 
C 339.97883 212.058656 332.545623 200.934075 323.175618 191.56407 
C 313.805612 182.194064 302.681031 174.760857 290.438529 169.689847 
C 278.196027 164.618836 265.073689 162.008641 251.8225 162.008641 
" clip-path="url(#pebde70d4a9)" style="fill: none; stroke: #b0b0b0; stroke-width: 0.8; stroke-linecap: square"/>
     </g>
     <g id="text_12">
      <!-- −10.0 -->
      <g transform="translate(213.206471 167.610159)scale(0.1 -0.1)">
       <use xlink:href="#DejaVuSans-2212"/>
       <use xlink:href="#DejaVuSans-31" x="83.789062"/>
       <use xlink:href="#DejaVuSans-30" x="147.412109"/>
       <use xlink:href="#DejaVuSans-2e" x="211.035156"/>
       <use xlink:href="#DejaVuSans-30" x="242.822266"/>
      </g>
     </g>
    </g>
    <g id="ytick_5">
     <g id="line2d_13">
      <path d="M 251.8225 131.795778 
C 234.603794 131.795778 217.552519 135.187487 201.644509 141.776801 
C 185.736499 148.366114 171.281126 158.024886 159.105662 170.200349 
C 146.930198 182.375813 137.271427 196.831186 130.682113 212.739196 
C 124.0928 228.647206 120.70109 245.698482 120.70109 262.917188 
C 120.70109 280.135893 124.0928 297.187169 130.682113 313.095179 
C 137.271427 329.003189 146.930198 343.458562 159.105662 355.634026 
C 171.281126 367.809489 185.736499 377.468261 201.644509 384.057574 
C 217.552519 390.646888 234.603794 394.038597 251.8225 394.038597 
C 269.041206 394.038597 286.092481 390.646888 302.000491 384.057574 
C 317.908501 377.468261 332.363874 367.809489 344.539338 355.634026 
C 356.714802 343.458562 366.373573 329.003189 372.962887 313.095179 
C 379.5522 297.187169 382.94391 280.135893 382.94391 262.917188 
C 382.94391 245.698482 379.5522 228.647206 372.962887 212.739196 
C 366.373573 196.831186 356.714802 182.375813 344.539338 170.200349 
C 332.363874 158.024886 317.908501 148.366114 302.000491 141.776801 
C 286.092481 135.187487 269.041206 131.795778 251.8225 131.795778 
" clip-path="url(#pebde70d4a9)" style="fill: none; stroke: #b0b0b0; stroke-width: 0.8; stroke-linecap: square"/>
     </g>
     <g id="text_13">
      <!-- −7.5 -->
      <g transform="translate(201.644509 139.697113)scale(0.1 -0.1)">
       <use xlink:href="#DejaVuSans-2212"/>
       <use xlink:href="#DejaVuSans-37" x="83.789062"/>
       <use xlink:href="#DejaVuSans-2e" x="147.412109"/>
       <use xlink:href="#DejaVuSans-35" x="179.199219"/>
      </g>
     </g>
    </g>
    <g id="ytick_6">
     <g id="line2d_14">
      <path d="M 251.8225 101.582914 
C 230.636277 101.582914 209.656064 105.756138 190.082547 113.863755 
C 170.509029 121.971371 152.722863 133.855707 137.741941 148.836629 
C 122.76102 163.817551 110.876683 181.603717 102.769067 201.177234 
C 94.661451 220.750752 90.488227 241.730965 90.488227 262.917188 
C 90.488227 284.10341 94.661451 305.083623 102.769067 324.657141 
C 110.876683 344.230658 122.76102 362.016824 137.741941 376.997746 
C 152.722863 391.978668 170.509029 403.863004 190.082547 411.97062 
C 209.656064 420.078237 230.636277 424.251461 251.8225 424.251461 
C 273.008723 424.251461 293.988936 420.078237 313.562453 411.97062 
C 333.135971 403.863004 350.922137 391.978668 365.903059 376.997746 
C 380.88398 362.016824 392.768317 344.230658 400.875933 324.657141 
C 408.983549 305.083623 413.156773 284.10341 413.156773 262.917188 
C 413.156773 241.730965 408.983549 220.750752 400.875933 201.177234 
C 392.768317 181.603717 380.88398 163.817551 365.903059 148.836629 
C 350.922137 133.855707 333.135971 121.971371 313.562453 113.863755 
C 293.988936 105.756138 273.008723 101.582914 251.8225 101.582914 
" clip-path="url(#pebde70d4a9)" style="fill: none; stroke: #b0b0b0; stroke-width: 0.8; stroke-linecap: square"/>
     </g>
     <g id="text_14">
      <!-- −5.0 -->
      <g transform="translate(190.082547 111.784067)scale(0.1 -0.1)">
       <use xlink:href="#DejaVuSans-2212"/>
       <use xlink:href="#DejaVuSans-35" x="83.789062"/>
       <use xlink:href="#DejaVuSans-2e" x="147.412109"/>
       <use xlink:href="#DejaVuSans-30" x="179.199219"/>
      </g>
     </g>
    </g>
    <g id="ytick_7">
     <g id="line2d_15">
      <path d="M 251.8225 71.370051 
C 226.66876 71.370051 201.759609 76.324789 178.520584 85.950708 
C 155.281559 95.576628 134.164601 109.686528 116.378221 127.472908 
C 98.591841 145.259288 84.48194 166.376247 74.856021 189.615272 
C 65.230102 212.854297 60.275363 237.763448 60.275363 262.917188 
C 60.275363 288.070927 65.230102 312.980078 74.856021 336.219103 
C 84.48194 359.458128 98.591841 380.575087 116.378221 398.361467 
C 134.164601 416.147847 155.281559 430.257747 178.520584 439.883667 
C 201.759609 449.509586 226.66876 454.464324 251.8225 454.464324 
C 276.97624 454.464324 301.885391 449.509586 325.124416 439.883667 
C 348.363441 430.257747 369.480399 416.147847 387.266779 398.361467 
C 405.053159 380.575087 419.16306 359.458128 428.788979 336.219103 
C 438.414898 312.980078 443.369637 288.070927 443.369637 262.917188 
C 443.369637 237.763448 438.414898 212.854297 428.788979 189.615272 
C 419.16306 166.376247 405.053159 145.259288 387.266779 127.472908 
C 369.480399 109.686528 348.363441 95.576628 325.124416 85.950708 
C 301.885391 76.324789 276.97624 71.370051 251.8225 71.370051 
" clip-path="url(#pebde70d4a9)" style="fill: none; stroke: #b0b0b0; stroke-width: 0.8; stroke-linecap: square"/>
     </g>
     <g id="text_15">
      <!-- −2.5 -->
      <g transform="translate(178.520584 83.871021)scale(0.1 -0.1)">
       <use xlink:href="#DejaVuSans-2212"/>
       <use xlink:href="#DejaVuSans-32" x="83.789062"/>
       <use xlink:href="#DejaVuSans-2e" x="147.412109"/>
       <use xlink:href="#DejaVuSans-35" x="179.199219"/>
      </g>
     </g>
    </g>
    <g id="ytick_8">
     <g id="line2d_16">
      <path d="M 251.8225 41.157188 
C 222.701244 41.157188 193.863155 46.89344 166.958622 58.037662 
C 140.054089 69.181885 115.606338 85.51735 95.0145 106.109188 
C 74.422662 126.701026 58.087197 151.148777 46.942975 178.05331 
C 35.798753 204.957842 30.0625 233.795931 30.0625 262.917188 
C 30.0625 292.038444 35.798753 320.876533 46.942975 347.781065 
C 58.087197 374.685598 74.422662 399.133349 95.0145 419.725187 
C 115.606338 440.317025 140.054089 456.65249 166.958622 467.796713 
C 193.863155 478.940935 222.701244 484.677188 251.8225 484.677188 
C 280.943756 484.677188 309.781845 478.940935 336.686378 467.796713 
C 363.590911 456.65249 388.038662 440.317025 408.6305 419.725187 
C 429.222338 399.133349 445.557803 374.685598 456.702025 347.781065 
C 467.846247 320.876533 473.5825 292.038444 473.5825 262.917188 
C 473.5825 233.795931 467.846247 204.957842 456.702025 178.05331 
C 445.557803 151.148777 429.222338 126.701026 408.6305 106.109188 
C 388.038662 85.51735 363.590911 69.181885 336.686378 58.037662 
C 309.781845 46.89344 280.943756 41.157188 251.8225 41.157188 
" clip-path="url(#pebde70d4a9)" style="fill: none; stroke: #b0b0b0; stroke-width: 0.8; stroke-linecap: square"/>
     </g>
     <g id="text_16">
      <!-- 0.0 -->
      <g transform="translate(166.958622 55.957975)scale(0.1 -0.1)">
       <use xlink:href="#DejaVuSans-30"/>
       <use xlink:href="#DejaVuSans-2e" x="63.623047"/>
       <use xlink:href="#DejaVuSans-30" x="95.410156"/>
      </g>
     </g>
    </g>
   </g>
   <g id="line2d_17">
    <path d="M 251.8225 472.060296 
L 255.5025 473.744272 
L 259.225665 474.916104 
L 263.020567 476.589037 
L 266.824664 477.45813 
L 270.641419 478.018411 
L 274.472171 478.414408 
L 278.260595 478.238191 
L 282.078351 478.198755 
L 285.874407 477.912465 
L 289.583631 477.071205 
L 293.220839 475.893178 
L 296.743029 474.251661 
L 300.166219 472.316839 
L 303.368987 469.658855 
L 306.346831 466.40476 
L 309.476816 463.98168 
L 314.83423 456.84735 
L 317.528505 453.741283 
L 319.637762 449.23809 
L 321.757471 445.104017 
L 323.704081 440.830344 
L 324.550454 434.25351 
L 325.784616 429.038819 
L 326.609182 423.297745 
L 326.562507 416.156911 
L 327.1571 410.769664 
L 326.911886 404.139782 
L 325.293122 395.461698 
L 324.362376 388.559939 
L 321.732705 379.267307 
L 317.988911 368.805579 
L 316.173807 362.009511 
L 313.493995 354.348939 
L 312.480898 349.546358 
L 313.678098 348.054114 
L 317.038234 349.461389 
L 325.578423 353.998168 
L 331.623477 358.020288 
L 342.26884 363.368024 
L 349.818818 368.005372 
L 355.743112 370.530132 
L 368.372184 375.467909 
L 373.014461 375.930519 
L 381.764357 375.87392 
L 388.219503 373.369303 
L 391.831042 372.303849 
L 394.983141 370.796469 
L 398.535527 369.510441 
L 401.98712 368.063587 
L 404.660945 366.00802 
L 406.9943 363.686933 
L 408.852326 361.040313 
L 410.199048 358.079418 
L 411.103113 354.877892 
L 411.732498 351.556747 
L 412.241414 348.213437 
L 412.079647 344.572282 
L 412.969758 338.061388 
L 412.744137 334.564116 
L 412.356996 331.060038 
L 411.818619 327.559816 
L 409.808463 323.562317 
L 408.401195 319.907172 
L 406.40101 316.142837 
L 403.858286 312.316609 
L 402.420524 308.959624 
L 399.681191 305.314985 
L 396.686488 301.733376 
L 394.222701 298.421545 
L 389.816103 294.775521 
L 385.256215 291.279399 
L 381.436436 288.111585 
L 375.179632 284.668378 
L 369.894558 281.617964 
L 365.43987 278.885068 
L 358.756101 276.046983 
L 353.680627 273.622908 
L 348.530646 271.378054 
L 335.045035 267.278696 
L 326.798964 265.535423 
L 317.674094 264.066631 
L 312.511683 262.917188 
L 306.484954 261.963051 
L 305.155576 261.054755 
L 306.176984 260.06859 
L 310.181764 258.83631 
L 321.674185 255.57548 
L 327.952775 253.569565 
L 332.58899 251.566198 
L 342.557497 246.918159 
L 347.187646 244.380081 
L 361.449155 237.60788 
L 367.369783 234.108014 
L 375.195844 229.8594 
L 381.279883 225.79588 
L 384.738188 222.280784 
L 389.916481 218.047733 
L 393.317405 214.196585 
L 395.17108 210.742571 
L 398.311641 206.685275 
L 400.411775 202.883224 
L 401.788783 199.260277 
L 405.004866 194.716004 
L 407.537139 190.306259 
L 408.918253 186.296469 
L 411.239748 181.690043 
L 412.081356 177.706042 
L 411.710144 170.606013 
L 410.302638 167.692714 
L 408.544863 164.986186 
L 406.538204 162.443634 
L 402.284108 157.562836 
L 399.845656 155.372069 
L 397.733855 152.965095 
L 395.211786 150.889199 
L 392.286205 149.171922 
L 389.529805 147.367039 
L 385.905189 146.360884 
L 382.08132 145.631619 
L 378.55621 144.736091 
L 374.283645 144.657834 
L 369.218708 145.520979 
L 364.969269 145.750278 
L 358.819136 148.177343 
L 353.363573 150.144401 
L 348.67631 151.499625 
L 342.413481 154.95506 
L 337.503735 157.109674 
L 333.419423 158.477889 
L 329.13327 160.322331 
L 326.272551 160.445484 
L 324.327267 159.369649 
L 323.543033 156.587124 
L 323.150772 153.081281 
L 323.483673 148.235339 
L 324.925776 141.252905 
L 325.172081 135.871986 
L 325.89074 129.294546 
L 327.0594 121.417158 
L 327.12418 115.129319 
L 327.505512 107.744018 
L 327.594911 100.422727 
L 326.56126 95.051184 
L 326.023731 88.110042 
L 324.817766 82.247563 
L 322.996117 77.503576 
L 321.60111 71.202032 
L 319.350197 66.802516 
L 316.783647 62.987336 
L 314.337435 58.440048 
L 311.362228 55.27748 
L 308.242317 52.355563 
L 305.023779 49.53851 
L 301.473849 47.853567 
L 297.851105 46.369628 
L 294.136303 45.231543 
L 290.309734 44.645236 
L 286.420771 44.472303 
L 282.471922 44.835217 
L 278.53601 45.353107 
L 274.590915 46.290187 
L 270.639312 47.840043 
L 266.785885 48.930808 
L 262.906087 51.429751 
L 259.131612 53.611617 
L 255.442601 55.521762 
L 251.8225 58.82567 
L 248.305537 61.430498 
L 244.885807 64.2763 
L 241.662978 69.061951 
L 238.510585 72.547937 
L 235.530424 76.697904 
L 232.737697 81.337421 
L 229.902982 84.397042 
L 227.228016 87.918338 
L 224.684273 91.573168 
L 221.983446 93.691502 
L 219.244437 95.317582 
L 216.487704 96.680042 
L 213.591847 97.322038 
L 210.587766 97.533703 
L 207.444966 97.297976 
L 204.354742 97.377442 
L 201.161969 97.214058 
L 197.990209 97.238432 
L 194.827563 97.391871 
L 191.538225 97.287504 
L 188.349274 97.563781 
L 182.041101 98.522513 
L 179.099083 99.577719 
L 176.203311 100.751313 
L 173.538279 102.410748 
L 170.995873 104.286 
L 168.61982 106.435706 
L 166.581158 109.137735 
L 164.460193 111.601233 
L 161.179423 117.857941 
L 159.615991 120.931616 
L 158.34144 124.325817 
L 157.267822 127.879112 
L 155.96259 130.977341 
L 155.12909 139.155267 
L 154.710306 142.993615 
L 154.838305 147.335925 
L 154.588119 151.061827 
L 154.227658 154.527135 
L 154.683355 158.748208 
L 155.157646 166.252334 
L 156.110719 170.489395 
L 156.385974 173.921188 
L 157.254227 177.767532 
L 159.047801 182.269372 
L 160.107739 185.959365 
L 162.178484 190.324895 
L 164.724993 194.869158 
L 165.915305 198.181473 
L 168.220576 202.176834 
L 169.133359 205.017628 
L 169.24758 207.219701 
L 169.960451 209.755352 
L 169.998254 211.787724 
L 170.59972 214.113618 
L 173.808136 219.673119 
L 177.771017 223.543316 
L 184.664991 228.698728 
L 193.248788 235.603817 
L 198.555118 239.201021 
L 197.949086 240.04928 
L 199.306195 241.699223 
L 206.89802 245.672295 
L 210.760311 247.971773 
L 217.818839 251.208788 
L 225.492832 254.36216 
L 227.081099 255.352982 
L 227.998382 256.085732 
L 233.661096 258.050854 
L 234.880537 258.693082 
L 238.966114 259.949057 
L 239.259082 260.246751 
L 237.61287 260.155115 
L 241.365269 261.44752 
L 240.705474 261.552188 
L 226.013643 261.112456 
L 219.203534 261.2077 
L 211.605897 261.512793 
L 204.01128 262.08264 
L 196.604214 263.881026 
L 194.950634 264.903197 
L 194.53535 265.91948 
L 193.764628 266.976989 
L 193.808207 267.99278 
L 193.49698 269.047447 
L 192.137458 270.245589 
L 186.735932 273.225887 
L 180.24899 275.537528 
L 174.963801 277.857005 
L 162.838128 283.460848 
L 159.01225 286.057382 
L 156.803733 288.377389 
L 155.682636 290.48485 
L 156.513556 292.056056 
L 159.325411 294.766489 
L 160.213323 296.260201 
L 159.65838 298.295678 
L 156.950722 301.247874 
L 154.719532 304.134952 
L 150.717369 307.932092 
L 146.808656 311.885947 
L 144.681345 315.17342 
L 141.507074 319.125705 
L 140.125317 322.307633 
L 139.392521 325.238143 
L 138.84366 328.145551 
L 139.087668 330.655108 
L 139.877077 332.868452 
L 140.527088 335.193273 
L 141.564973 337.286828 
L 142.30552 339.601802 
L 142.934783 344.969967 
L 143.088227 347.869712 
L 142.765381 351.229901 
L 142.943855 354.277219 
L 143.073207 360.835491 
L 143.870636 363.583929 
L 144.148702 366.896565 
L 144.253603 370.486084 
L 145.282633 373.24245 
L 146.235255 376.145645 
L 147.402618 378.887215 
L 150.612414 383.534671 
L 152.466705 385.611377 
L 154.191605 387.879035 
L 158.827467 395.727859 
L 160.044438 398.98376 
L 161.524784 401.963477 
L 163.235156 404.686574 
L 164.86391 407.640585 
L 171.099198 414.735639 
L 173.431897 416.767408 
L 175.916982 418.546563 
L 178.593576 419.957123 
L 184.151854 422.33924 
L 189.267431 425.878713 
L 191.579559 428.433308 
L 196.79143 432.285407 
L 199.317558 434.653114 
L 202.072926 436.41457 
L 204.814431 438.35369 
L 207.553006 440.472431 
L 210.373065 442.454415 
L 213.173528 444.746305 
L 215.960758 447.409858 
L 218.896459 449.650046 
L 224.839679 454.909935 
L 228.013369 456.827001 
L 231.161172 459.496593 
L 234.419203 461.837783 
L 237.778003 463.762847 
L 241.172167 466.137644 
L 244.655523 468.152545 
L 248.210414 469.853447 
L 248.210414 469.853447 
" clip-path="url(#pebde70d4a9)" style="fill: none; stroke: #ff0000; stroke-width: 1.5; stroke-linecap: square"/>
   </g>
   <g id="line2d_18">
    <path d="M 251.8225 52.009648 
L 244.499892 53.225128 
L 237.259548 54.657268 
L 230.107628 56.313984 
L 223.046745 58.16705 
L 216.088581 60.260062 
L 209.241242 62.588117 
L 202.518461 65.169488 
L 195.937008 68.021315 
L 189.517714 71.162774 
L 183.281006 74.60098 
L 177.252682 78.350412 
L 171.459457 82.418838 
L 165.928019 86.807404 
L 160.687515 91.51721 
L 158.184632 93.990002 
L 155.764931 96.540597 
L 153.43172 99.167431 
L 151.187858 101.868095 
L 149.036676 104.640898 
L 146.980688 107.48281 
L 145.024264 110.393499 
L 143.16853 113.367828 
L 141.416571 116.403571 
L 139.770702 119.497427 
L 138.233145 122.646016 
L 136.806025 125.84589 
L 135.488197 129.089881 
L 134.286249 132.379956 
L 132.228334 139.073803 
L 131.375553 142.47024 
L 130.639274 145.891906 
L 129.511877 152.788208 
L 128.862804 159.741752 
L 128.705674 163.219148 
L 128.660542 166.69252 
L 128.916683 173.620884 
L 129.60224 180.478581 
L 130.704415 187.234208 
L 132.187257 193.845748 
L 134.021762 200.281424 
L 136.176355 206.512794 
L 138.595087 212.505095 
L 141.241099 218.239402 
L 144.053276 223.692398 
L 146.956679 228.844217 
L 151.36395 235.9994 
L 161.502063 251.827232 
L 163.204668 255.164132 
L 163.890588 256.768389 
L 164.436304 258.337471 
L 164.84072 259.879717 
L 165.115122 261.403705 
L 165.222766 262.917188 
L 165.187622 264.429405 
L 165.009808 265.948753 
L 164.665607 267.484887 
L 164.167869 269.046596 
L 163.517686 270.642858 
L 161.80194 273.970322 
L 159.568783 277.528741 
L 155.400511 283.412314 
L 148.851848 292.443547 
L 145.382048 297.501787 
L 141.906932 302.923183 
L 138.529453 308.69055 
L 135.316109 314.789175 
L 132.342049 321.191697 
L 129.689519 327.856445 
L 128.484378 331.284625 
L 127.383343 334.762168 
L 125.487783 341.85988 
L 124.705642 345.467841 
L 124.031654 349.113201 
L 123.476535 352.786 
L 123.040653 356.482676 
L 122.724278 360.199675 
L 122.537109 363.926005 
L 122.469438 367.665232 
L 122.530497 371.406059 
L 122.728875 375.136563 
L 123.045548 378.868476 
L 123.497857 382.581853 
L 124.084506 386.272335 
L 124.791254 389.948434 
L 125.632345 393.590918 
L 126.601869 397.199874 
L 127.698953 400.770352 
L 128.923342 404.296496 
L 130.272984 407.774259 
L 131.746095 411.199198 
L 133.341489 414.565967 
L 135.056313 417.871151 
L 136.889062 421.109493 
L 138.83698 424.277233 
L 140.897878 427.369703 
L 143.068738 430.383295 
L 145.345799 433.315528 
L 147.72714 436.16096 
L 150.211806 438.912071 
L 152.789084 441.578199 
L 155.462668 444.143674 
L 158.223205 446.616147 
L 161.072605 448.982046 
L 164.001725 451.249448 
L 167.011939 453.404827 
L 170.094333 455.456683 
L 173.245227 457.402764 
L 176.465206 459.22965 
L 179.741607 460.957814 
L 183.079031 462.562718 
L 186.469229 464.053873 
L 189.904702 465.44118 
L 193.385372 466.711672 
L 200.460204 468.920107 
L 207.660789 470.681702 
L 214.953258 472.013048 
L 222.308379 472.921073 
L 229.694548 473.450585 
L 237.088415 473.624415 
L 244.47079 473.442614 
L 251.8225 472.966682 
L 259.13119 472.21068 
L 266.387981 471.213274 
L 273.587901 470.001148 
L 280.727764 468.588825 
L 287.808247 467.002498 
L 294.830908 465.255837 
L 305.252078 462.319086 
L 312.122022 460.148037 
L 318.921332 457.786346 
L 325.646645 455.235661 
L 332.275715 452.453085 
L 338.795446 449.431273 
L 345.180387 446.142358 
L 351.400803 442.561201 
L 357.429123 438.676123 
L 363.241989 434.488155 
L 368.787541 429.960577 
L 371.457724 427.580948 
L 376.553412 422.565475 
L 378.973855 419.936034 
L 381.303329 417.226431 
L 383.537434 414.437886 
L 385.670921 411.570918 
L 387.699276 408.627191 
L 389.617968 405.608572 
L 391.423305 402.517992 
L 393.110781 399.357695 
L 394.675011 396.129309 
L 396.112357 392.836358 
L 397.417431 389.48093 
L 398.586948 386.067182 
L 399.616037 382.598034 
L 400.500033 379.076807 
L 401.235465 375.507932 
L 401.816717 371.894365 
L 402.239559 368.240346 
L 402.498836 364.549659 
L 402.591458 360.827694 
L 402.508329 357.076144 
L 402.253701 353.305372 
L 401.809267 349.512088 
L 401.183732 345.70947 
L 400.365092 341.898685 
L 399.34117 338.081704 
L 398.121369 334.271914 
L 396.682853 330.46668 
L 395.024408 326.674785 
L 393.145097 322.905071 
L 391.033063 319.161906 
L 388.676424 315.450487 
L 386.074666 311.78098 
L 383.216176 308.159658 
L 380.089405 304.593631 
L 376.671345 301.08731 
L 372.985354 297.660077 
L 368.985619 294.310951 
L 364.684492 291.056842 
L 360.047882 287.902986 
L 355.100701 284.869647 
L 349.809393 281.96391 
L 344.188009 279.203719 
L 338.227402 276.60238 
L 331.966679 274.180717 
L 325.409822 271.952574 
L 318.585317 269.934242 
L 311.714902 268.157094 
L 304.925476 266.630509 
L 298.223788 265.348976 
L 281.001264 262.40787 
L 280.746376 261.907144 
L 282.53463 261.307633 
L 297.31179 258.13607 
L 304.058607 256.5034 
L 311.119235 254.583575 
L 318.24594 252.396748 
L 325.359765 249.950584 
L 332.204542 247.292501 
L 338.775823 244.434688 
L 345.022466 241.40028 
L 350.9297 238.206987 
L 356.495131 234.870241 
L 361.70526 231.408813 
L 366.570455 227.835217 
L 371.101366 224.161135 
L 375.297453 220.401352 
L 379.192735 216.558213 
L 382.7757 212.648964 
L 386.069181 208.678008 
L 389.084678 204.65285 
L 391.822712 200.585077 
L 394.29513 196.481109 
L 396.513785 192.346533 
L 398.479735 188.191594 
L 400.215705 184.015121 
L 401.712227 179.831955 
L 402.99193 175.639476 
L 404.056166 171.445973 
L 404.89732 167.265424 
L 405.535808 163.094598 
L 405.974441 158.940391 
L 406.218197 154.808156 
L 406.270767 150.703953 
L 406.138491 146.631748 
L 405.82542 142.59692 
L 405.336281 138.604179 
L 404.676424 134.657516 
L 403.850313 130.761426 
L 402.863384 126.919364 
L 401.713121 123.141922 
L 400.415783 119.422322 
L 398.965553 115.774135 
L 397.374152 112.194039 
L 395.63637 108.695693 
L 393.76393 105.275259 
L 391.768081 101.928213 
L 389.636258 98.677147 
L 387.38774 95.508058 
L 385.010868 92.443851 
L 382.531797 89.460092 
L 379.939268 86.579584 
L 377.23735 83.80622 
L 374.443743 81.123719 
L 371.548526 78.555275 
L 368.562494 76.094145 
L 365.495829 73.732999 
L 362.345988 71.48489 
L 359.117099 69.352608 
L 355.819041 67.32814 
L 352.450054 65.424492 
L 349.02509 63.622344 
L 345.542326 61.934373 
L 342.005672 60.362468 
L 338.419093 58.9084 
L 334.791133 57.562614 
L 331.12527 56.326408 
L 327.425019 55.200975 
L 319.939312 53.275197 
L 312.368226 51.76915 
L 304.743108 50.664222 
L 297.094799 49.927766 
L 289.445126 49.548672 
L 281.817652 49.490588 
L 274.229628 49.727604 
L 266.693996 50.24488 
L 259.222291 51.014893 
L 255.513046 51.485938 
L 255.513046 51.485938 
" clip-path="url(#pebde70d4a9)" style="fill: none; stroke-dasharray: 5.55,2.4; stroke-dashoffset: 0; stroke: #0000ff; stroke-width: 1.5"/>
   </g>
   <g id="patch_3">
    <path d="M 251.8225 41.157188 
C 222.701244 41.157188 193.863155 46.89344 166.958622 58.037662 
C 140.054089 69.181885 115.606338 85.51735 95.0145 106.109188 
C 74.422662 126.701026 58.087197 151.148777 46.942975 178.05331 
C 35.798753 204.957842 30.0625 233.795931 30.0625 262.917188 
C 30.0625 292.038444 35.798753 320.876533 46.942975 347.781065 
C 58.087197 374.685598 74.422662 399.133349 95.0145 419.725187 
C 115.606338 440.317025 140.054089 456.65249 166.958622 467.796713 
C 193.863155 478.940935 222.701244 484.677188 251.8225 484.677188 
C 280.943756 484.677188 309.781845 478.940935 336.686378 467.796713 
C 363.590911 456.65249 388.038662 440.317025 408.6305 419.725187 
C 429.222338 399.133349 445.557803 374.685598 456.702025 347.781065 
C 467.846247 320.876533 473.5825 292.038444 473.5825 262.917188 
C 473.5825 233.795931 467.846247 204.957842 456.702025 178.05331 
C 445.557803 151.148777 429.222338 126.701026 408.6305 106.109188 
C 388.038662 85.51735 363.590911 69.181885 336.686378 58.037662 
C 309.781845 46.89344 280.943756 41.157188 251.8225 41.157188 
" style="fill: none; stroke: #000000; stroke-width: 0.8; stroke-linejoin: miter; stroke-linecap: square"/>
   </g>
   <g id="text_17">
    <g id="patch_4">
     <path d="M 384.8785 509.853188 
L 485.369125 509.853188 
Q 488.369125 509.853188 488.369125 506.853188 
L 488.369125 473.945063 
Q 488.369125 470.945063 485.369125 470.945063 
L 384.8785 470.945063 
Q 381.8785 470.945063 381.8785 473.945063 
L 381.8785 506.853188 
Q 381.8785 509.853188 384.8785 509.853188 
z
" style="fill: #ffffff; stroke: #808080; stroke-linejoin: miter"/>
    </g>
    <!-- G_cst: 2.6 dBi -->
    <g transform="translate(384.8785 481.821625)scale(0.1 -0.1)">
     <defs>
      <path id="DejaVuSans-47" d="M 3809 666 
L 3809 1919 
L 2778 1919 
L 2778 2438 
L 4434 2438 
L 4434 434 
Q 4069 175 3628 42 
Q 3188 -91 2688 -91 
Q 1594 -91 976 548 
Q 359 1188 359 2328 
Q 359 3472 976 4111 
Q 1594 4750 2688 4750 
Q 3144 4750 3555 4637 
Q 3966 4525 4313 4306 
L 4313 3634 
Q 3963 3931 3569 4081 
Q 3175 4231 2741 4231 
Q 1884 4231 1454 3753 
Q 1025 3275 1025 2328 
Q 1025 1384 1454 906 
Q 1884 428 2741 428 
Q 3075 428 3337 486 
Q 3600 544 3809 666 
z
" transform="scale(0.015625)"/>
      <path id="DejaVuSans-5f" d="M 3263 -1063 
L 3263 -1509 
L -63 -1509 
L -63 -1063 
L 3263 -1063 
z
" transform="scale(0.015625)"/>
      <path id="DejaVuSans-63" d="M 3122 3366 
L 3122 2828 
Q 2878 2963 2633 3030 
Q 2388 3097 2138 3097 
Q 1578 3097 1268 2742 
Q 959 2388 959 1747 
Q 959 1106 1268 751 
Q 1578 397 2138 397 
Q 2388 397 2633 464 
Q 2878 531 3122 666 
L 3122 134 
Q 2881 22 2623 -34 
Q 2366 -91 2075 -91 
Q 1284 -91 818 406 
Q 353 903 353 1747 
Q 353 2603 823 3093 
Q 1294 3584 2113 3584 
Q 2378 3584 2631 3529 
Q 2884 3475 3122 3366 
z
" transform="scale(0.015625)"/>
      <path id="DejaVuSans-73" d="M 2834 3397 
L 2834 2853 
Q 2591 2978 2328 3040 
Q 2066 3103 1784 3103 
Q 1356 3103 1142 2972 
Q 928 2841 928 2578 
Q 928 2378 1081 2264 
Q 1234 2150 1697 2047 
L 1894 2003 
Q 2506 1872 2764 1633 
Q 3022 1394 3022 966 
Q 3022 478 2636 193 
Q 2250 -91 1575 -91 
Q 1294 -91 989 -36 
Q 684 19 347 128 
L 347 722 
Q 666 556 975 473 
Q 1284 391 1588 391 
Q 1994 391 2212 530 
Q 2431 669 2431 922 
Q 2431 1156 2273 1281 
Q 2116 1406 1581 1522 
L 1381 1569 
Q 847 1681 609 1914 
Q 372 2147 372 2553 
Q 372 3047 722 3315 
Q 1072 3584 1716 3584 
Q 2034 3584 2315 3537 
Q 2597 3491 2834 3397 
z
" transform="scale(0.015625)"/>
      <path id="DejaVuSans-74" d="M 1172 4494 
L 1172 3500 
L 2356 3500 
L 2356 3053 
L 1172 3053 
L 1172 1153 
Q 1172 725 1289 603 
Q 1406 481 1766 481 
L 2356 481 
L 2356 0 
L 1766 0 
Q 1100 0 847 248 
Q 594 497 594 1153 
L 594 3053 
L 172 3053 
L 172 3500 
L 594 3500 
L 594 4494 
L 1172 4494 
z
" transform="scale(0.015625)"/>
      <path id="DejaVuSans-3a" d="M 750 794 
L 1409 794 
L 1409 0 
L 750 0 
L 750 794 
z
M 750 3309 
L 1409 3309 
L 1409 2516 
L 750 2516 
L 750 3309 
z
" transform="scale(0.015625)"/>
      <path id="DejaVuSans-20" transform="scale(0.015625)"/>
      <path id="DejaVuSans-36" d="M 2113 2584 
Q 1688 2584 1439 2293 
Q 1191 2003 1191 1497 
Q 1191 994 1439 701 
Q 1688 409 2113 409 
Q 2538 409 2786 701 
Q 3034 994 3034 1497 
Q 3034 2003 2786 2293 
Q 2538 2584 2113 2584 
z
M 3366 4563 
L 3366 3988 
Q 3128 4100 2886 4159 
Q 2644 4219 2406 4219 
Q 1781 4219 1451 3797 
Q 1122 3375 1075 2522 
Q 1259 2794 1537 2939 
Q 1816 3084 2150 3084 
Q 2853 3084 3261 2657 
Q 3669 2231 3669 1497 
Q 3669 778 3244 343 
Q 2819 -91 2113 -91 
Q 1303 -91 875 529 
Q 447 1150 447 2328 
Q 447 3434 972 4092 
Q 1497 4750 2381 4750 
Q 2619 4750 2861 4703 
Q 3103 4656 3366 4563 
z
" transform="scale(0.015625)"/>
      <path id="DejaVuSans-64" d="M 2906 2969 
L 2906 4863 
L 3481 4863 
L 3481 0 
L 2906 0 
L 2906 525 
Q 2725 213 2448 61 
Q 2172 -91 1784 -91 
Q 1150 -91 751 415 
Q 353 922 353 1747 
Q 353 2572 751 3078 
Q 1150 3584 1784 3584 
Q 2172 3584 2448 3432 
Q 2725 3281 2906 2969 
z
M 947 1747 
Q 947 1113 1208 752 
Q 1469 391 1925 391 
Q 2381 391 2643 752 
Q 2906 1113 2906 1747 
Q 2906 2381 2643 2742 
Q 2381 3103 1925 3103 
Q 1469 3103 1208 2742 
Q 947 2381 947 1747 
z
" transform="scale(0.015625)"/>
      <path id="DejaVuSans-42" d="M 1259 2228 
L 1259 519 
L 2272 519 
Q 2781 519 3026 730 
Q 3272 941 3272 1375 
Q 3272 1813 3026 2020 
Q 2781 2228 2272 2228 
L 1259 2228 
z
M 1259 4147 
L 1259 2741 
L 2194 2741 
Q 2656 2741 2882 2914 
Q 3109 3088 3109 3444 
Q 3109 3797 2882 3972 
Q 2656 4147 2194 4147 
L 1259 4147 
z
M 628 4666 
L 2241 4666 
Q 2963 4666 3353 4366 
Q 3744 4066 3744 3513 
Q 3744 3084 3544 2831 
Q 3344 2578 2956 2516 
Q 3422 2416 3680 2098 
Q 3938 1781 3938 1306 
Q 3938 681 3513 340 
Q 3088 0 2303 0 
L 628 0 
L 628 4666 
z
" transform="scale(0.015625)"/>
      <path id="DejaVuSans-69" d="M 603 3500 
L 1178 3500 
L 1178 0 
L 603 0 
L 603 3500 
z
M 603 4863 
L 1178 4863 
L 1178 4134 
L 603 4134 
L 603 4863 
z
" transform="scale(0.015625)"/>
     </defs>
     <use xlink:href="#DejaVuSans-47"/>
     <use xlink:href="#DejaVuSans-5f" x="77.490234"/>
     <use xlink:href="#DejaVuSans-63" x="127.490234"/>
     <use xlink:href="#DejaVuSans-73" x="182.470703"/>
     <use xlink:href="#DejaVuSans-74" x="234.570312"/>
     <use xlink:href="#DejaVuSans-3a" x="273.779297"/>
     <use xlink:href="#DejaVuSans-20" x="307.470703"/>
     <use xlink:href="#DejaVuSans-32" x="339.257812"/>
     <use xlink:href="#DejaVuSans-2e" x="402.880859"/>
     <use xlink:href="#DejaVuSans-36" x="434.667969"/>
     <use xlink:href="#DejaVuSans-20" x="498.291016"/>
     <use xlink:href="#DejaVuSans-64" x="530.078125"/>
     <use xlink:href="#DejaVuSans-42" x="593.554688"/>
     <use xlink:href="#DejaVuSans-69" x="662.158203"/>
    </g>
    <!-- G_inpe: 2.1 dBi -->
    <g transform="translate(384.8785 493.297563)scale(0.1 -0.1)">
     <defs>
      <path id="DejaVuSans-6e" d="M 3513 2113 
L 3513 0 
L 2938 0 
L 2938 2094 
Q 2938 2591 2744 2837 
Q 2550 3084 2163 3084 
Q 1697 3084 1428 2787 
Q 1159 2491 1159 1978 
L 1159 0 
L 581 0 
L 581 3500 
L 1159 3500 
L 1159 2956 
Q 1366 3272 1645 3428 
Q 1925 3584 2291 3584 
Q 2894 3584 3203 3211 
Q 3513 2838 3513 2113 
z
" transform="scale(0.015625)"/>
      <path id="DejaVuSans-70" d="M 1159 525 
L 1159 -1331 
L 581 -1331 
L 581 3500 
L 1159 3500 
L 1159 2969 
Q 1341 3281 1617 3432 
Q 1894 3584 2278 3584 
Q 2916 3584 3314 3078 
Q 3713 2572 3713 1747 
Q 3713 922 3314 415 
Q 2916 -91 2278 -91 
Q 1894 -91 1617 61 
Q 1341 213 1159 525 
z
M 3116 1747 
Q 3116 2381 2855 2742 
Q 2594 3103 2138 3103 
Q 1681 3103 1420 2742 
Q 1159 2381 1159 1747 
Q 1159 1113 1420 752 
Q 1681 391 2138 391 
Q 2594 391 2855 752 
Q 3116 1113 3116 1747 
z
" transform="scale(0.015625)"/>
      <path id="DejaVuSans-65" d="M 3597 1894 
L 3597 1613 
L 953 1613 
Q 991 1019 1311 708 
Q 1631 397 2203 397 
Q 2534 397 2845 478 
Q 3156 559 3463 722 
L 3463 178 
Q 3153 47 2828 -22 
Q 2503 -91 2169 -91 
Q 1331 -91 842 396 
Q 353 884 353 1716 
Q 353 2575 817 3079 
Q 1281 3584 2069 3584 
Q 2775 3584 3186 3129 
Q 3597 2675 3597 1894 
z
M 3022 2063 
Q 3016 2534 2758 2815 
Q 2500 3097 2075 3097 
Q 1594 3097 1305 2825 
Q 1016 2553 972 2059 
L 3022 2063 
z
" transform="scale(0.015625)"/>
     </defs>
     <use xlink:href="#DejaVuSans-47"/>
     <use xlink:href="#DejaVuSans-5f" x="77.490234"/>
     <use xlink:href="#DejaVuSans-69" x="127.490234"/>
     <use xlink:href="#DejaVuSans-6e" x="155.273438"/>
     <use xlink:href="#DejaVuSans-70" x="218.652344"/>
     <use xlink:href="#DejaVuSans-65" x="282.128906"/>
     <use xlink:href="#DejaVuSans-3a" x="343.652344"/>
     <use xlink:href="#DejaVuSans-20" x="377.34375"/>
     <use xlink:href="#DejaVuSans-32" x="409.130859"/>
     <use xlink:href="#DejaVuSans-2e" x="472.753906"/>
     <use xlink:href="#DejaVuSans-31" x="504.541016"/>
     <use xlink:href="#DejaVuSans-20" x="568.164062"/>
     <use xlink:href="#DejaVuSans-64" x="599.951172"/>
     <use xlink:href="#DejaVuSans-42" x="663.427734"/>
     <use xlink:href="#DejaVuSans-69" x="732.03125"/>
    </g>
    <!-- Pearson Coef: 0.706 -->
    <g transform="translate(384.8785 504.7735)scale(0.1 -0.1)">
     <defs>
      <path id="DejaVuSans-50" d="M 1259 4147 
L 1259 2394 
L 2053 2394 
Q 2494 2394 2734 2622 
Q 2975 2850 2975 3272 
Q 2975 3691 2734 3919 
Q 2494 4147 2053 4147 
L 1259 4147 
z
M 628 4666 
L 2053 4666 
Q 2838 4666 3239 4311 
Q 3641 3956 3641 3272 
Q 3641 2581 3239 2228 
Q 2838 1875 2053 1875 
L 1259 1875 
L 1259 0 
L 628 0 
L 628 4666 
z
" transform="scale(0.015625)"/>
      <path id="DejaVuSans-61" d="M 2194 1759 
Q 1497 1759 1228 1600 
Q 959 1441 959 1056 
Q 959 750 1161 570 
Q 1363 391 1709 391 
Q 2188 391 2477 730 
Q 2766 1069 2766 1631 
L 2766 1759 
L 2194 1759 
z
M 3341 1997 
L 3341 0 
L 2766 0 
L 2766 531 
Q 2569 213 2275 61 
Q 1981 -91 1556 -91 
Q 1019 -91 701 211 
Q 384 513 384 1019 
Q 384 1609 779 1909 
Q 1175 2209 1959 2209 
L 2766 2209 
L 2766 2266 
Q 2766 2663 2505 2880 
Q 2244 3097 1772 3097 
Q 1472 3097 1187 3025 
Q 903 2953 641 2809 
L 641 3341 
Q 956 3463 1253 3523 
Q 1550 3584 1831 3584 
Q 2591 3584 2966 3190 
Q 3341 2797 3341 1997 
z
" transform="scale(0.015625)"/>
      <path id="DejaVuSans-72" d="M 2631 2963 
Q 2534 3019 2420 3045 
Q 2306 3072 2169 3072 
Q 1681 3072 1420 2755 
Q 1159 2438 1159 1844 
L 1159 0 
L 581 0 
L 581 3500 
L 1159 3500 
L 1159 2956 
Q 1341 3275 1631 3429 
Q 1922 3584 2338 3584 
Q 2397 3584 2469 3576 
Q 2541 3569 2628 3553 
L 2631 2963 
z
" transform="scale(0.015625)"/>
      <path id="DejaVuSans-6f" d="M 1959 3097 
Q 1497 3097 1228 2736 
Q 959 2375 959 1747 
Q 959 1119 1226 758 
Q 1494 397 1959 397 
Q 2419 397 2687 759 
Q 2956 1122 2956 1747 
Q 2956 2369 2687 2733 
Q 2419 3097 1959 3097 
z
M 1959 3584 
Q 2709 3584 3137 3096 
Q 3566 2609 3566 1747 
Q 3566 888 3137 398 
Q 2709 -91 1959 -91 
Q 1206 -91 779 398 
Q 353 888 353 1747 
Q 353 2609 779 3096 
Q 1206 3584 1959 3584 
z
" transform="scale(0.015625)"/>
      <path id="DejaVuSans-43" d="M 4122 4306 
L 4122 3641 
Q 3803 3938 3442 4084 
Q 3081 4231 2675 4231 
Q 1875 4231 1450 3742 
Q 1025 3253 1025 2328 
Q 1025 1406 1450 917 
Q 1875 428 2675 428 
Q 3081 428 3442 575 
Q 3803 722 4122 1019 
L 4122 359 
Q 3791 134 3420 21 
Q 3050 -91 2638 -91 
Q 1578 -91 968 557 
Q 359 1206 359 2328 
Q 359 3453 968 4101 
Q 1578 4750 2638 4750 
Q 3056 4750 3426 4639 
Q 3797 4528 4122 4306 
z
" transform="scale(0.015625)"/>
      <path id="DejaVuSans-66" d="M 2375 4863 
L 2375 4384 
L 1825 4384 
Q 1516 4384 1395 4259 
Q 1275 4134 1275 3809 
L 1275 3500 
L 2222 3500 
L 2222 3053 
L 1275 3053 
L 1275 0 
L 697 0 
L 697 3053 
L 147 3053 
L 147 3500 
L 697 3500 
L 697 3744 
Q 697 4328 969 4595 
Q 1241 4863 1831 4863 
L 2375 4863 
z
" transform="scale(0.015625)"/>
     </defs>
     <use xlink:href="#DejaVuSans-50"/>
     <use xlink:href="#DejaVuSans-65" x="56.677734"/>
     <use xlink:href="#DejaVuSans-61" x="118.201172"/>
     <use xlink:href="#DejaVuSans-72" x="179.480469"/>
     <use xlink:href="#DejaVuSans-73" x="220.59375"/>
     <use xlink:href="#DejaVuSans-6f" x="272.693359"/>
     <use xlink:href="#DejaVuSans-6e" x="333.875"/>
     <use xlink:href="#DejaVuSans-20" x="397.253906"/>
     <use xlink:href="#DejaVuSans-43" x="429.041016"/>
     <use xlink:href="#DejaVuSans-6f" x="498.865234"/>
     <use xlink:href="#DejaVuSans-65" x="560.046875"/>
     <use xlink:href="#DejaVuSans-66" x="621.570312"/>
     <use xlink:href="#DejaVuSans-3a" x="653.150391"/>
     <use xlink:href="#DejaVuSans-20" x="686.841797"/>
     <use xlink:href="#DejaVuSans-30" x="718.628906"/>
     <use xlink:href="#DejaVuSans-2e" x="782.251953"/>
     <use xlink:href="#DejaVuSans-37" x="814.039062"/>
     <use xlink:href="#DejaVuSans-30" x="877.662109"/>
     <use xlink:href="#DejaVuSans-36" x="941.285156"/>
    </g>
   </g>
   <g id="text_18">
    <g id="patch_5">
     <path d="M 52.2385 56.370938 
L 133.30975 56.370938 
Q 136.90975 56.370938 136.90975 52.770938 
L 136.90975 41.157188 
Q 136.90975 37.557188 133.30975 37.557188 
L 52.2385 37.557188 
Q 48.6385 37.557188 48.6385 41.157188 
L 48.6385 52.770938 
Q 48.6385 56.370938 52.2385 56.370938 
z
" style="fill: #ffffff; stroke: #808080; stroke-linejoin: miter"/>
    </g>
    <!-- Freq: 7.5 GHz -->
    <g transform="translate(52.2385 50.275313)scale(0.12 -0.12)">
     <defs>
      <path id="DejaVuSans-46" d="M 628 4666 
L 3309 4666 
L 3309 4134 
L 1259 4134 
L 1259 2759 
L 3109 2759 
L 3109 2228 
L 1259 2228 
L 1259 0 
L 628 0 
L 628 4666 
z
" transform="scale(0.015625)"/>
      <path id="DejaVuSans-71" d="M 947 1747 
Q 947 1113 1208 752 
Q 1469 391 1925 391 
Q 2381 391 2643 752 
Q 2906 1113 2906 1747 
Q 2906 2381 2643 2742 
Q 2381 3103 1925 3103 
Q 1469 3103 1208 2742 
Q 947 2381 947 1747 
z
M 2906 525 
Q 2725 213 2448 61 
Q 2172 -91 1784 -91 
Q 1150 -91 751 415 
Q 353 922 353 1747 
Q 353 2572 751 3078 
Q 1150 3584 1784 3584 
Q 2172 3584 2448 3432 
Q 2725 3281 2906 2969 
L 2906 3500 
L 3481 3500 
L 3481 -1331 
L 2906 -1331 
L 2906 525 
z
" transform="scale(0.015625)"/>
      <path id="DejaVuSans-48" d="M 628 4666 
L 1259 4666 
L 1259 2753 
L 3553 2753 
L 3553 4666 
L 4184 4666 
L 4184 0 
L 3553 0 
L 3553 2222 
L 1259 2222 
L 1259 0 
L 628 0 
L 628 4666 
z
" transform="scale(0.015625)"/>
      <path id="DejaVuSans-7a" d="M 353 3500 
L 3084 3500 
L 3084 2975 
L 922 459 
L 3084 459 
L 3084 0 
L 275 0 
L 275 525 
L 2438 3041 
L 353 3041 
L 353 3500 
z
" transform="scale(0.015625)"/>
     </defs>
     <use xlink:href="#DejaVuSans-46"/>
     <use xlink:href="#DejaVuSans-72" x="50.269531"/>
     <use xlink:href="#DejaVuSans-65" x="89.132812"/>
     <use xlink:href="#DejaVuSans-71" x="150.65625"/>
     <use xlink:href="#DejaVuSans-3a" x="214.132812"/>
     <use xlink:href="#DejaVuSans-20" x="247.824219"/>
     <use xlink:href="#DejaVuSans-37" x="279.611328"/>
     <use xlink:href="#DejaVuSans-2e" x="343.234375"/>
     <use xlink:href="#DejaVuSans-35" x="375.021484"/>
     <use xlink:href="#DejaVuSans-20" x="438.644531"/>
     <use xlink:href="#DejaVuSans-47" x="470.431641"/>
     <use xlink:href="#DejaVuSans-48" x="547.921875"/>
     <use xlink:href="#DejaVuSans-7a" x="623.117188"/>
    </g>
   </g>
   <g id="text_19">
    <!-- Radiation Diagram - 3AVVF07 -->
    <g transform="translate(162.985938 16.318125)scale(0.12 -0.12)">
     <defs>
      <path id="DejaVuSans-52" d="M 2841 2188 
Q 3044 2119 3236 1894 
Q 3428 1669 3622 1275 
L 4263 0 
L 3584 0 
L 2988 1197 
Q 2756 1666 2539 1819 
Q 2322 1972 1947 1972 
L 1259 1972 
L 1259 0 
L 628 0 
L 628 4666 
L 2053 4666 
Q 2853 4666 3247 4331 
Q 3641 3997 3641 3322 
Q 3641 2881 3436 2590 
Q 3231 2300 2841 2188 
z
M 1259 4147 
L 1259 2491 
L 2053 2491 
Q 2509 2491 2742 2702 
Q 2975 2913 2975 3322 
Q 2975 3731 2742 3939 
Q 2509 4147 2053 4147 
L 1259 4147 
z
" transform="scale(0.015625)"/>
      <path id="DejaVuSans-44" d="M 1259 4147 
L 1259 519 
L 2022 519 
Q 2988 519 3436 956 
Q 3884 1394 3884 2338 
Q 3884 3275 3436 3711 
Q 2988 4147 2022 4147 
L 1259 4147 
z
M 628 4666 
L 1925 4666 
Q 3281 4666 3915 4102 
Q 4550 3538 4550 2338 
Q 4550 1131 3912 565 
Q 3275 0 1925 0 
L 628 0 
L 628 4666 
z
" transform="scale(0.015625)"/>
      <path id="DejaVuSans-67" d="M 2906 1791 
Q 2906 2416 2648 2759 
Q 2391 3103 1925 3103 
Q 1463 3103 1205 2759 
Q 947 2416 947 1791 
Q 947 1169 1205 825 
Q 1463 481 1925 481 
Q 2391 481 2648 825 
Q 2906 1169 2906 1791 
z
M 3481 434 
Q 3481 -459 3084 -895 
Q 2688 -1331 1869 -1331 
Q 1566 -1331 1297 -1286 
Q 1028 -1241 775 -1147 
L 775 -588 
Q 1028 -725 1275 -790 
Q 1522 -856 1778 -856 
Q 2344 -856 2625 -561 
Q 2906 -266 2906 331 
L 2906 616 
Q 2728 306 2450 153 
Q 2172 0 1784 0 
Q 1141 0 747 490 
Q 353 981 353 1791 
Q 353 2603 747 3093 
Q 1141 3584 1784 3584 
Q 2172 3584 2450 3431 
Q 2728 3278 2906 2969 
L 2906 3500 
L 3481 3500 
L 3481 434 
z
" transform="scale(0.015625)"/>
      <path id="DejaVuSans-6d" d="M 3328 2828 
Q 3544 3216 3844 3400 
Q 4144 3584 4550 3584 
Q 5097 3584 5394 3201 
Q 5691 2819 5691 2113 
L 5691 0 
L 5113 0 
L 5113 2094 
Q 5113 2597 4934 2840 
Q 4756 3084 4391 3084 
Q 3944 3084 3684 2787 
Q 3425 2491 3425 1978 
L 3425 0 
L 2847 0 
L 2847 2094 
Q 2847 2600 2669 2842 
Q 2491 3084 2119 3084 
Q 1678 3084 1418 2786 
Q 1159 2488 1159 1978 
L 1159 0 
L 581 0 
L 581 3500 
L 1159 3500 
L 1159 2956 
Q 1356 3278 1631 3431 
Q 1906 3584 2284 3584 
Q 2666 3584 2933 3390 
Q 3200 3197 3328 2828 
z
" transform="scale(0.015625)"/>
      <path id="DejaVuSans-2d" d="M 313 2009 
L 1997 2009 
L 1997 1497 
L 313 1497 
L 313 2009 
z
" transform="scale(0.015625)"/>
      <path id="DejaVuSans-41" d="M 2188 4044 
L 1331 1722 
L 3047 1722 
L 2188 4044 
z
M 1831 4666 
L 2547 4666 
L 4325 0 
L 3669 0 
L 3244 1197 
L 1141 1197 
L 716 0 
L 50 0 
L 1831 4666 
z
" transform="scale(0.015625)"/>
      <path id="DejaVuSans-56" d="M 1831 0 
L 50 4666 
L 709 4666 
L 2188 738 
L 3669 4666 
L 4325 4666 
L 2547 0 
L 1831 0 
z
" transform="scale(0.015625)"/>
     </defs>
     <use xlink:href="#DejaVuSans-52"/>
     <use xlink:href="#DejaVuSans-61" x="67.232422"/>
     <use xlink:href="#DejaVuSans-64" x="128.511719"/>
     <use xlink:href="#DejaVuSans-69" x="191.988281"/>
     <use xlink:href="#DejaVuSans-61" x="219.771484"/>
     <use xlink:href="#DejaVuSans-74" x="281.050781"/>
     <use xlink:href="#DejaVuSans-69" x="320.259766"/>
     <use xlink:href="#DejaVuSans-6f" x="348.042969"/>
     <use xlink:href="#DejaVuSans-6e" x="409.224609"/>
     <use xlink:href="#DejaVuSans-20" x="472.603516"/>
     <use xlink:href="#DejaVuSans-44" x="504.390625"/>
     <use xlink:href="#DejaVuSans-69" x="581.392578"/>
     <use xlink:href="#DejaVuSans-61" x="609.175781"/>
     <use xlink:href="#DejaVuSans-67" x="670.455078"/>
     <use xlink:href="#DejaVuSans-72" x="733.931641"/>
     <use xlink:href="#DejaVuSans-61" x="775.044922"/>
     <use xlink:href="#DejaVuSans-6d" x="836.324219"/>
     <use xlink:href="#DejaVuSans-20" x="933.736328"/>
     <use xlink:href="#DejaVuSans-2d" x="965.523438"/>
     <use xlink:href="#DejaVuSans-20" x="1001.607422"/>
     <use xlink:href="#DejaVuSans-33" x="1033.394531"/>
     <use xlink:href="#DejaVuSans-41" x="1097.017578"/>
     <use xlink:href="#DejaVuSans-56" x="1159.050781"/>
     <use xlink:href="#DejaVuSans-56" x="1227.458984"/>
     <use xlink:href="#DejaVuSans-46" x="1295.867188"/>
     <use xlink:href="#DejaVuSans-30" x="1353.386719"/>
     <use xlink:href="#DejaVuSans-37" x="1417.009766"/>
    </g>
   </g>
   <g id="legend_1">
    <g id="patch_6">
     <path d="M 411.802813 78.513438 
L 466.5825 78.513438 
Q 468.5825 78.513438 468.5825 76.513438 
L 468.5825 48.157188 
Q 468.5825 46.157188 466.5825 46.157188 
L 411.802813 46.157188 
Q 409.802813 46.157188 409.802813 48.157188 
L 409.802813 76.513438 
Q 409.802813 78.513438 411.802813 78.513438 
z
" style="fill: #ffffff; opacity: 0.8; stroke: #cccccc; stroke-linejoin: miter"/>
    </g>
    <g id="line2d_19">
     <path d="M 413.802813 54.255625 
L 423.802813 54.255625 
L 433.802813 54.255625 
" style="fill: none; stroke: #ff0000; stroke-width: 1.5; stroke-linecap: square"/>
    </g>
    <g id="text_20">
     <!-- INPE -->
     <g transform="translate(441.802813 57.755625)scale(0.1 -0.1)">
      <defs>
       <path id="DejaVuSans-49" d="M 628 4666 
L 1259 4666 
L 1259 0 
L 628 0 
L 628 4666 
z
" transform="scale(0.015625)"/>
       <path id="DejaVuSans-4e" d="M 628 4666 
L 1478 4666 
L 3547 763 
L 3547 4666 
L 4159 4666 
L 4159 0 
L 3309 0 
L 1241 3903 
L 1241 0 
L 628 0 
L 628 4666 
z
" transform="scale(0.015625)"/>
       <path id="DejaVuSans-45" d="M 628 4666 
L 3578 4666 
L 3578 4134 
L 1259 4134 
L 1259 2753 
L 3481 2753 
L 3481 2222 
L 1259 2222 
L 1259 531 
L 3634 531 
L 3634 0 
L 628 0 
L 628 4666 
z
" transform="scale(0.015625)"/>
      </defs>
      <use xlink:href="#DejaVuSans-49"/>
      <use xlink:href="#DejaVuSans-4e" x="29.492188"/>
      <use xlink:href="#DejaVuSans-50" x="104.296875"/>
      <use xlink:href="#DejaVuSans-45" x="164.599609"/>
     </g>
    </g>
    <g id="line2d_20">
     <path d="M 413.802813 68.93375 
L 423.802813 68.93375 
L 433.802813 68.93375 
" style="fill: none; stroke-dasharray: 5.55,2.4; stroke-dashoffset: 0; stroke: #0000ff; stroke-width: 1.5"/>
    </g>
    <g id="text_21">
     <!-- CST -->
     <g transform="translate(441.802813 72.43375)scale(0.1 -0.1)">
      <defs>
       <path id="DejaVuSans-53" d="M 3425 4513 
L 3425 3897 
Q 3066 4069 2747 4153 
Q 2428 4238 2131 4238 
Q 1616 4238 1336 4038 
Q 1056 3838 1056 3469 
Q 1056 3159 1242 3001 
Q 1428 2844 1947 2747 
L 2328 2669 
Q 3034 2534 3370 2195 
Q 3706 1856 3706 1288 
Q 3706 609 3251 259 
Q 2797 -91 1919 -91 
Q 1588 -91 1214 -16 
Q 841 59 441 206 
L 441 856 
Q 825 641 1194 531 
Q 1563 422 1919 422 
Q 2459 422 2753 634 
Q 3047 847 3047 1241 
Q 3047 1584 2836 1778 
Q 2625 1972 2144 2069 
L 1759 2144 
Q 1053 2284 737 2584 
Q 422 2884 422 3419 
Q 422 4038 858 4394 
Q 1294 4750 2059 4750 
Q 2388 4750 2728 4690 
Q 3069 4631 3425 4513 
z
" transform="scale(0.015625)"/>
       <path id="DejaVuSans-54" d="M -19 4666 
L 3928 4666 
L 3928 4134 
L 2272 4134 
L 2272 0 
L 1638 0 
L 1638 4134 
L -19 4134 
L -19 4666 
z
" transform="scale(0.015625)"/>
      </defs>
      <use xlink:href="#DejaVuSans-43"/>
      <use xlink:href="#DejaVuSans-53" x="69.824219"/>
      <use xlink:href="#DejaVuSans-54" x="133.300781"/>
     </g>
    </g>
   </g>
  </g>
 </g>
 <defs>
  <clipPath id="pebde70d4a9">
   <path d="M 473.5825 262.917188 
C 473.5825 233.795931 467.846247 204.957842 456.702025 178.05331 
C 445.557803 151.148777 429.222338 126.701026 408.6305 106.109188 
C 388.038662 85.51735 363.590911 69.181885 336.686378 58.037662 
C 309.781845 46.89344 280.943756 41.157188 251.8225 41.157188 
C 222.701244 41.157188 193.863155 46.89344 166.958622 58.037662 
C 140.054089 69.181885 115.606338 85.51735 95.0145 106.109188 
C 74.422662 126.701026 58.087197 151.148777 46.942975 178.05331 
C 35.798753 204.957842 30.0625 233.795931 30.0625 262.917188 
C 30.0625 292.038444 35.798753 320.876533 46.942975 347.781065 
C 58.087197 374.685598 74.422662 399.133349 95.0145 419.725187 
C 115.606338 440.317025 140.054089 456.65249 166.958622 467.796713 
C 193.863155 478.940935 222.701244 484.677188 251.8225 484.677188 
C 280.943756 484.677188 309.781845 478.940935 336.686378 467.796713 
C 363.590911 456.65249 388.038662 440.317025 408.6305 419.725187 
C 429.222338 399.133349 445.557803 374.685598 456.702025 347.781065 
C 467.846247 320.876533 473.5825 292.038444 473.5825 262.917188 
M 251.8225 262.917188 
C 251.8225 262.917188 251.8225 262.917188 251.8225 262.917188 
C 251.8225 262.917188 251.8225 262.917188 251.8225 262.917188 
C 251.8225 262.917188 251.8225 262.917188 251.8225 262.917188 
C 251.8225 262.917188 251.8225 262.917188 251.8225 262.917188 
C 251.8225 262.917188 251.8225 262.917188 251.8225 262.917188 
C 251.8225 262.917188 251.8225 262.917188 251.8225 262.917188 
C 251.8225 262.917188 251.8225 262.917188 251.8225 262.917188 
C 251.8225 262.917188 251.8225 262.917188 251.8225 262.917188 
C 251.8225 262.917188 251.8225 262.917188 251.8225 262.917188 
C 251.8225 262.917188 251.8225 262.917188 251.8225 262.917188 
C 251.8225 262.917188 251.8225 262.917188 251.8225 262.917188 
C 251.8225 262.917188 251.8225 262.917188 251.8225 262.917188 
C 251.8225 262.917188 251.8225 262.917188 251.8225 262.917188 
C 251.8225 262.917188 251.8225 262.917188 251.8225 262.917188 
C 251.8225 262.917188 251.8225 262.917188 251.8225 262.917188 
C 251.8225 262.917188 251.8225 262.917188 251.8225 262.917188 
M 473.5825 262.917188 
z
"/>
  </clipPath>
 </defs>
</svg>
