<?xml version="1.0" encoding="utf-8" standalone="no"?>
<!DOCTYPE svg PUBLIC "-//W3C//DTD SVG 1.1//EN"
  "http://www.w3.org/Graphics/SVG/1.1/DTD/svg11.dtd">
<svg xmlns:xlink="http://www.w3.org/1999/xlink" width="506.82625pt" height="514.053188pt" viewBox="0 0 506.82625 514.053188" xmlns="http://www.w3.org/2000/svg" version="1.1">
 <metadata>
  <rdf:RDF xmlns:dc="http://purl.org/dc/elements/1.1/" xmlns:cc="http://creativecommons.org/ns#" xmlns:rdf="http://www.w3.org/1999/02/22-rdf-syntax-ns#">
   <cc:Work>
    <dc:type rdf:resource="http://purl.org/dc/dcmitype/StillImage"/>
    <dc:date>2023-11-04T18:13:47.451574</dc:date>
    <dc:format>image/svg+xml</dc:format>
    <dc:creator>
     <cc:Agent>
      <dc:title>Matplotlib v3.5.1, https://matplotlib.org/</dc:title>
     </cc:Agent>
    </dc:creator>
   </cc:Work>
  </rdf:RDF>
 </metadata>
 <defs>
  <style type="text/css">*{stroke-linejoin: round; stroke-linecap: butt}</style>
 </defs>
 <g id="figure_1">
  <g id="patch_1">
   <path d="M 0 514.053188 
L 506.82625 514.053188 
L 506.82625 0 
L 0 0 
z
" style="fill: #ffffff"/>
  </g>
  <g id="axes_1">
   <g id="patch_2">
    <path d="M 473.5825 262.917188 
C 473.5825 233.795931 467.846247 204.957842 456.702025 178.05331 
C 445.557803 151.148777 429.222338 126.701026 408.6305 106.109188 
C 388.038662 85.51735 363.590911 69.181885 336.686378 58.037662 
C 309.781845 46.89344 280.943756 41.157188 251.8225 41.157188 
C 222.701244 41.157188 193.863155 46.89344 166.958622 58.037662 
C 140.054089 69.181885 115.606338 85.51735 95.0145 106.109188 
C 74.422662 126.701026 58.087197 151.148777 46.942975 178.05331 
C 35.798753 204.957842 30.0625 233.795931 30.0625 262.917188 
C 30.0625 292.038444 35.798753 320.876533 46.942975 347.781065 
C 58.087197 374.685598 74.422662 399.133349 95.0145 419.725187 
C 115.606338 440.317025 140.054089 456.65249 166.958622 467.796713 
C 193.863155 478.940935 222.701244 484.677188 251.8225 484.677188 
C 280.943756 484.677188 309.781845 478.940935 336.686378 467.796713 
C 363.590911 456.65249 388.038662 440.317025 408.6305 419.725187 
C 429.222338 399.133349 445.557803 374.685598 456.702025 347.781065 
C 467.846247 320.876533 473.5825 292.038444 473.5825 262.917188 
M 251.8225 262.917188 
C 251.8225 262.917188 251.8225 262.917188 251.8225 262.917188 
C 251.8225 262.917188 251.8225 262.917188 251.8225 262.917188 
C 251.8225 262.917188 251.8225 262.917188 251.8225 262.917188 
C 251.8225 262.917188 251.8225 262.917188 251.8225 262.917188 
C 251.8225 262.917188 251.8225 262.917188 251.8225 262.917188 
C 251.8225 262.917188 251.8225 262.917188 251.8225 262.917188 
C 251.8225 262.917188 251.8225 262.917188 251.8225 262.917188 
C 251.8225 262.917188 251.8225 262.917188 251.8225 262.917188 
C 251.8225 262.917188 251.8225 262.917188 251.8225 262.917188 
C 251.8225 262.917188 251.8225 262.917188 251.8225 262.917188 
C 251.8225 262.917188 251.8225 262.917188 251.8225 262.917188 
C 251.8225 262.917188 251.8225 262.917188 251.8225 262.917188 
C 251.8225 262.917188 251.8225 262.917188 251.8225 262.917188 
C 251.8225 262.917188 251.8225 262.917188 251.8225 262.917188 
C 251.8225 262.917188 251.8225 262.917188 251.8225 262.917188 
C 251.8225 262.917188 251.8225 262.917188 251.8225 262.917188 
M 473.5825 262.917188 
z
" style="fill: #ffffff"/>
   </g>
   <g id="matplotlib.axis_1">
    <g id="xtick_1">
     <g id="line2d_1">
      <path d="M 251.8225 262.917188 
L 251.8225 41.157188 
" clip-path="url(#p45dcbf2c34)" style="fill: none; stroke: #b0b0b0; stroke-width: 0.8; stroke-linecap: square"/>
     </g>
     <g id="text_1">
      <!-- 0° -->
      <g transform="translate(246.14125 29.916563)scale(0.1 -0.1)">
       <defs>
        <path id="DejaVuSans-30" d="M 2034 4250 
Q 1547 4250 1301 3770 
Q 1056 3291 1056 2328 
Q 1056 1369 1301 889 
Q 1547 409 2034 409 
Q 2525 409 2770 889 
Q 3016 1369 3016 2328 
Q 3016 3291 2770 3770 
Q 2525 4250 2034 4250 
z
M 2034 4750 
Q 2819 4750 3233 4129 
Q 3647 3509 3647 2328 
Q 3647 1150 3233 529 
Q 2819 -91 2034 -91 
Q 1250 -91 836 529 
Q 422 1150 422 2328 
Q 422 3509 836 4129 
Q 1250 4750 2034 4750 
z
" transform="scale(0.015625)"/>
        <path id="DejaVuSans-b0" d="M 1600 4347 
Q 1350 4347 1178 4173 
Q 1006 4000 1006 3750 
Q 1006 3503 1178 3333 
Q 1350 3163 1600 3163 
Q 1850 3163 2022 3333 
Q 2194 3503 2194 3750 
Q 2194 3997 2020 4172 
Q 1847 4347 1600 4347 
z
M 1600 4750 
Q 1800 4750 1984 4673 
Q 2169 4597 2303 4453 
Q 2447 4313 2519 4134 
Q 2591 3956 2591 3750 
Q 2591 3338 2302 3052 
Q 2013 2766 1594 2766 
Q 1172 2766 890 3047 
Q 609 3328 609 3750 
Q 609 4169 896 4459 
Q 1184 4750 1600 4750 
z
" transform="scale(0.015625)"/>
       </defs>
       <use xlink:href="#DejaVuSans-30"/>
       <use xlink:href="#DejaVuSans-b0" x="63.623047"/>
      </g>
     </g>
    </g>
    <g id="xtick_2">
     <g id="line2d_2">
      <path d="M 251.8225 262.917188 
L 95.0145 106.109188 
" clip-path="url(#p45dcbf2c34)" style="fill: none; stroke: #b0b0b0; stroke-width: 0.8; stroke-linecap: square"/>
     </g>
     <g id="text_2">
      <!-- 45° -->
      <g transform="translate(76.252505 98.969068)scale(0.1 -0.1)">
       <defs>
        <path id="DejaVuSans-34" d="M 2419 4116 
L 825 1625 
L 2419 1625 
L 2419 4116 
z
M 2253 4666 
L 3047 4666 
L 3047 1625 
L 3713 1625 
L 3713 1100 
L 3047 1100 
L 3047 0 
L 2419 0 
L 2419 1100 
L 313 1100 
L 313 1709 
L 2253 4666 
z
" transform="scale(0.015625)"/>
        <path id="DejaVuSans-35" d="M 691 4666 
L 3169 4666 
L 3169 4134 
L 1269 4134 
L 1269 2991 
Q 1406 3038 1543 3061 
Q 1681 3084 1819 3084 
Q 2600 3084 3056 2656 
Q 3513 2228 3513 1497 
Q 3513 744 3044 326 
Q 2575 -91 1722 -91 
Q 1428 -91 1123 -41 
Q 819 9 494 109 
L 494 744 
Q 775 591 1075 516 
Q 1375 441 1709 441 
Q 2250 441 2565 725 
Q 2881 1009 2881 1497 
Q 2881 1984 2565 2268 
Q 2250 2553 1709 2553 
Q 1456 2553 1204 2497 
Q 953 2441 691 2322 
L 691 4666 
z
" transform="scale(0.015625)"/>
       </defs>
       <use xlink:href="#DejaVuSans-34"/>
       <use xlink:href="#DejaVuSans-35" x="63.623047"/>
       <use xlink:href="#DejaVuSans-b0" x="127.246094"/>
      </g>
     </g>
    </g>
    <g id="xtick_3">
     <g id="line2d_3">
      <path d="M 251.8225 262.917188 
L 30.0625 262.917188 
" clip-path="url(#p45dcbf2c34)" style="fill: none; stroke: #b0b0b0; stroke-width: 0.8; stroke-linecap: square"/>
     </g>
     <g id="text_3">
      <!-- 90° -->
      <g transform="translate(7.2 265.676563)scale(0.1 -0.1)">
       <defs>
        <path id="DejaVuSans-39" d="M 703 97 
L 703 672 
Q 941 559 1184 500 
Q 1428 441 1663 441 
Q 2288 441 2617 861 
Q 2947 1281 2994 2138 
Q 2813 1869 2534 1725 
Q 2256 1581 1919 1581 
Q 1219 1581 811 2004 
Q 403 2428 403 3163 
Q 403 3881 828 4315 
Q 1253 4750 1959 4750 
Q 2769 4750 3195 4129 
Q 3622 3509 3622 2328 
Q 3622 1225 3098 567 
Q 2575 -91 1691 -91 
Q 1453 -91 1209 -44 
Q 966 3 703 97 
z
M 1959 2075 
Q 2384 2075 2632 2365 
Q 2881 2656 2881 3163 
Q 2881 3666 2632 3958 
Q 2384 4250 1959 4250 
Q 1534 4250 1286 3958 
Q 1038 3666 1038 3163 
Q 1038 2656 1286 2365 
Q 1534 2075 1959 2075 
z
" transform="scale(0.015625)"/>
       </defs>
       <use xlink:href="#DejaVuSans-39"/>
       <use xlink:href="#DejaVuSans-30" x="63.623047"/>
       <use xlink:href="#DejaVuSans-b0" x="127.246094"/>
      </g>
     </g>
    </g>
    <g id="xtick_4">
     <g id="line2d_4">
      <path d="M 251.8225 262.917188 
L 95.0145 419.725187 
" clip-path="url(#p45dcbf2c34)" style="fill: none; stroke: #b0b0b0; stroke-width: 0.8; stroke-linecap: square"/>
     </g>
     <g id="text_4">
      <!-- 135° -->
      <g transform="translate(73.071255 432.384057)scale(0.1 -0.1)">
       <defs>
        <path id="DejaVuSans-31" d="M 794 531 
L 1825 531 
L 1825 4091 
L 703 3866 
L 703 4441 
L 1819 4666 
L 2450 4666 
L 2450 531 
L 3481 531 
L 3481 0 
L 794 0 
L 794 531 
z
" transform="scale(0.015625)"/>
        <path id="DejaVuSans-33" d="M 2597 2516 
Q 3050 2419 3304 2112 
Q 3559 1806 3559 1356 
Q 3559 666 3084 287 
Q 2609 -91 1734 -91 
Q 1441 -91 1130 -33 
Q 819 25 488 141 
L 488 750 
Q 750 597 1062 519 
Q 1375 441 1716 441 
Q 2309 441 2620 675 
Q 2931 909 2931 1356 
Q 2931 1769 2642 2001 
Q 2353 2234 1838 2234 
L 1294 2234 
L 1294 2753 
L 1863 2753 
Q 2328 2753 2575 2939 
Q 2822 3125 2822 3475 
Q 2822 3834 2567 4026 
Q 2313 4219 1838 4219 
Q 1578 4219 1281 4162 
Q 984 4106 628 3988 
L 628 4550 
Q 988 4650 1302 4700 
Q 1616 4750 1894 4750 
Q 2613 4750 3031 4423 
Q 3450 4097 3450 3541 
Q 3450 3153 3228 2886 
Q 3006 2619 2597 2516 
z
" transform="scale(0.015625)"/>
       </defs>
       <use xlink:href="#DejaVuSans-31"/>
       <use xlink:href="#DejaVuSans-33" x="63.623047"/>
       <use xlink:href="#DejaVuSans-35" x="127.246094"/>
       <use xlink:href="#DejaVuSans-b0" x="190.869141"/>
      </g>
     </g>
    </g>
    <g id="xtick_5">
     <g id="line2d_5">
      <path d="M 251.8225 262.917188 
L 251.8225 484.677188 
" clip-path="url(#p45dcbf2c34)" style="fill: none; stroke: #b0b0b0; stroke-width: 0.8; stroke-linecap: square"/>
     </g>
     <g id="text_5">
      <!-- 180° -->
      <g transform="translate(239.77875 501.436563)scale(0.1 -0.1)">
       <defs>
        <path id="DejaVuSans-38" d="M 2034 2216 
Q 1584 2216 1326 1975 
Q 1069 1734 1069 1313 
Q 1069 891 1326 650 
Q 1584 409 2034 409 
Q 2484 409 2743 651 
Q 3003 894 3003 1313 
Q 3003 1734 2745 1975 
Q 2488 2216 2034 2216 
z
M 1403 2484 
Q 997 2584 770 2862 
Q 544 3141 544 3541 
Q 544 4100 942 4425 
Q 1341 4750 2034 4750 
Q 2731 4750 3128 4425 
Q 3525 4100 3525 3541 
Q 3525 3141 3298 2862 
Q 3072 2584 2669 2484 
Q 3125 2378 3379 2068 
Q 3634 1759 3634 1313 
Q 3634 634 3220 271 
Q 2806 -91 2034 -91 
Q 1263 -91 848 271 
Q 434 634 434 1313 
Q 434 1759 690 2068 
Q 947 2378 1403 2484 
z
M 1172 3481 
Q 1172 3119 1398 2916 
Q 1625 2713 2034 2713 
Q 2441 2713 2670 2916 
Q 2900 3119 2900 3481 
Q 2900 3844 2670 4047 
Q 2441 4250 2034 4250 
Q 1625 4250 1398 4047 
Q 1172 3844 1172 3481 
z
" transform="scale(0.015625)"/>
       </defs>
       <use xlink:href="#DejaVuSans-31"/>
       <use xlink:href="#DejaVuSans-38" x="63.623047"/>
       <use xlink:href="#DejaVuSans-30" x="127.246094"/>
       <use xlink:href="#DejaVuSans-b0" x="190.869141"/>
      </g>
     </g>
    </g>
    <g id="xtick_6">
     <g id="line2d_6">
      <path d="M 251.8225 262.917188 
L 408.6305 419.725187 
" clip-path="url(#p45dcbf2c34)" style="fill: none; stroke: #b0b0b0; stroke-width: 0.8; stroke-linecap: square"/>
     </g>
     <g id="text_6">
      <!-- 225° -->
      <g transform="translate(406.486245 432.384057)scale(0.1 -0.1)">
       <defs>
        <path id="DejaVuSans-32" d="M 1228 531 
L 3431 531 
L 3431 0 
L 469 0 
L 469 531 
Q 828 903 1448 1529 
Q 2069 2156 2228 2338 
Q 2531 2678 2651 2914 
Q 2772 3150 2772 3378 
Q 2772 3750 2511 3984 
Q 2250 4219 1831 4219 
Q 1534 4219 1204 4116 
Q 875 4013 500 3803 
L 500 4441 
Q 881 4594 1212 4672 
Q 1544 4750 1819 4750 
Q 2544 4750 2975 4387 
Q 3406 4025 3406 3419 
Q 3406 3131 3298 2873 
Q 3191 2616 2906 2266 
Q 2828 2175 2409 1742 
Q 1991 1309 1228 531 
z
" transform="scale(0.015625)"/>
       </defs>
       <use xlink:href="#DejaVuSans-32"/>
       <use xlink:href="#DejaVuSans-32" x="63.623047"/>
       <use xlink:href="#DejaVuSans-35" x="127.246094"/>
       <use xlink:href="#DejaVuSans-b0" x="190.869141"/>
      </g>
     </g>
    </g>
    <g id="xtick_7">
     <g id="line2d_7">
      <path d="M 251.8225 262.917188 
L 473.5825 262.917188 
" clip-path="url(#p45dcbf2c34)" style="fill: none; stroke: #b0b0b0; stroke-width: 0.8; stroke-linecap: square"/>
     </g>
     <g id="text_7">
      <!-- 270° -->
      <g transform="translate(475.53875 265.676563)scale(0.1 -0.1)">
       <defs>
        <path id="DejaVuSans-37" d="M 525 4666 
L 3525 4666 
L 3525 4397 
L 1831 0 
L 1172 0 
L 2766 4134 
L 525 4134 
L 525 4666 
z
" transform="scale(0.015625)"/>
       </defs>
       <use xlink:href="#DejaVuSans-32"/>
       <use xlink:href="#DejaVuSans-37" x="63.623047"/>
       <use xlink:href="#DejaVuSans-30" x="127.246094"/>
       <use xlink:href="#DejaVuSans-b0" x="190.869141"/>
      </g>
     </g>
    </g>
    <g id="xtick_8">
     <g id="line2d_8">
      <path d="M 251.8225 262.917188 
L 408.6305 106.109188 
" clip-path="url(#p45dcbf2c34)" style="fill: none; stroke: #b0b0b0; stroke-width: 0.8; stroke-linecap: square"/>
     </g>
     <g id="text_8">
      <!-- 315° -->
      <g transform="translate(406.486245 98.969068)scale(0.1 -0.1)">
       <use xlink:href="#DejaVuSans-33"/>
       <use xlink:href="#DejaVuSans-31" x="63.623047"/>
       <use xlink:href="#DejaVuSans-35" x="127.246094"/>
       <use xlink:href="#DejaVuSans-b0" x="190.869141"/>
      </g>
     </g>
    </g>
   </g>
   <g id="matplotlib.axis_2">
    <g id="ytick_1">
     <g id="line2d_9">
      <path d="M 251.8225 220.931703 
C 246.309017 220.931703 240.849145 222.017739 235.755351 224.127658 
C 230.661556 226.237577 226.032901 229.330345 222.134279 233.228967 
C 218.235658 237.127588 215.142889 241.756244 213.03297 246.850038 
C 210.923052 251.943833 209.837016 257.403704 209.837016 262.917188 
C 209.837016 268.430671 210.923052 273.890542 213.03297 278.984337 
C 215.142889 284.078131 218.235658 288.706787 222.134279 292.605408 
C 226.032901 296.50403 230.661556 299.596798 235.755351 301.706717 
C 240.849145 303.816636 246.309017 304.902672 251.8225 304.902672 
C 257.335983 304.902672 262.795855 303.816636 267.889649 301.706717 
C 272.983444 299.596798 277.612099 296.50403 281.510721 292.605408 
C 285.409342 288.706787 288.502111 284.078131 290.61203 278.984337 
C 292.721948 273.890542 293.807984 268.430671 293.807984 262.917188 
C 293.807984 257.403704 292.721948 251.943833 290.61203 246.850038 
C 288.502111 241.756244 285.409342 237.127588 281.510721 233.228967 
C 277.612099 229.330345 272.983444 226.237577 267.889649 224.127658 
C 262.795855 222.017739 257.335983 220.931703 251.8225 220.931703 
" clip-path="url(#p45dcbf2c34)" style="fill: none; stroke: #b0b0b0; stroke-width: 0.8; stroke-linecap: square"/>
     </g>
     <g id="text_9">
      <!-- −40 -->
      <g transform="translate(235.755351 222.04797)scale(0.1 -0.1)">
       <defs>
        <path id="DejaVuSans-2212" d="M 678 2272 
L 4684 2272 
L 4684 1741 
L 678 1741 
L 678 2272 
z
" transform="scale(0.015625)"/>
       </defs>
       <use xlink:href="#DejaVuSans-2212"/>
       <use xlink:href="#DejaVuSans-34" x="83.789062"/>
       <use xlink:href="#DejaVuSans-30" x="147.412109"/>
      </g>
     </g>
    </g>
    <g id="ytick_2">
     <g id="line2d_10">
      <path d="M 251.8225 175.988074 
C 240.407073 175.988074 229.102648 178.236664 218.556169 182.605159 
C 208.00969 186.973654 198.42626 193.377097 190.354335 201.449022 
C 182.282409 209.520948 175.878966 219.104377 171.510472 229.650856 
C 167.141977 240.197335 164.893387 251.501761 164.893387 262.917188 
C 164.893387 274.332614 167.141977 285.63704 171.510472 296.183519 
C 175.878966 306.729998 182.282409 316.313427 190.354335 324.385353 
C 198.42626 332.457278 208.00969 338.860721 218.556169 343.229216 
C 229.102648 347.597711 240.407073 349.846301 251.8225 349.846301 
C 263.237927 349.846301 274.542352 347.597711 285.088831 343.229216 
C 295.63531 338.860721 305.21874 332.457278 313.290665 324.385353 
C 321.362591 316.313427 327.766034 306.729998 332.134528 296.183519 
C 336.503023 285.63704 338.751613 274.332614 338.751613 262.917188 
C 338.751613 251.501761 336.503023 240.197335 332.134528 229.650856 
C 327.766034 219.104377 321.362591 209.520948 313.290665 201.449022 
C 305.21874 193.377097 295.63531 186.973654 285.088831 182.605159 
C 274.542352 178.236664 263.237927 175.988074 251.8225 175.988074 
" clip-path="url(#p45dcbf2c34)" style="fill: none; stroke: #b0b0b0; stroke-width: 0.8; stroke-linecap: square"/>
     </g>
     <g id="text_10">
      <!-- −30 -->
      <g transform="translate(218.556169 180.525472)scale(0.1 -0.1)">
       <use xlink:href="#DejaVuSans-2212"/>
       <use xlink:href="#DejaVuSans-33" x="83.789062"/>
       <use xlink:href="#DejaVuSans-30" x="147.412109"/>
      </g>
     </g>
    </g>
    <g id="ytick_3">
     <g id="line2d_11">
      <path d="M 251.8225 131.044445 
C 234.50513 131.044445 217.35615 134.45559 201.356986 141.08266 
C 185.357823 147.709731 170.819619 157.423848 158.57439 169.669077 
C 146.32916 181.914307 136.615043 196.45251 129.987973 212.451674 
C 123.360902 228.450837 119.949758 245.599818 119.949758 262.917188 
C 119.949758 280.234557 123.360902 297.383538 129.987973 313.382701 
C 136.615043 329.381865 146.32916 343.920068 158.57439 356.165298 
C 170.819619 368.410527 185.357823 378.124644 201.356986 384.751715 
C 217.35615 391.378785 234.50513 394.78993 251.8225 394.78993 
C 269.13987 394.78993 286.28885 391.378785 302.288014 384.751715 
C 318.287177 378.124644 332.825381 368.410527 345.07061 356.165298 
C 357.31584 343.920068 367.029957 329.381865 373.657027 313.382701 
C 380.284098 297.383538 383.695242 280.234557 383.695242 262.917188 
C 383.695242 245.599818 380.284098 228.450837 373.657027 212.451674 
C 367.029957 196.45251 357.31584 181.914307 345.07061 169.669077 
C 332.825381 157.423848 318.287177 147.709731 302.288014 141.08266 
C 286.28885 134.45559 269.13987 131.044445 251.8225 131.044445 
" clip-path="url(#p45dcbf2c34)" style="fill: none; stroke: #b0b0b0; stroke-width: 0.8; stroke-linecap: square"/>
     </g>
     <g id="text_11">
      <!-- −20 -->
      <g transform="translate(201.356986 139.002973)scale(0.1 -0.1)">
       <use xlink:href="#DejaVuSans-2212"/>
       <use xlink:href="#DejaVuSans-32" x="83.789062"/>
       <use xlink:href="#DejaVuSans-30" x="147.412109"/>
      </g>
     </g>
    </g>
    <g id="ytick_4">
     <g id="line2d_12">
      <path d="M 251.8225 86.100816 
C 228.603187 86.100816 205.609652 90.674515 184.157804 99.560161 
C 162.705956 108.445808 143.212979 121.470599 126.794445 137.889133 
C 110.375911 154.307666 97.35112 173.800644 88.465474 195.252492 
C 79.579827 216.70434 75.006129 239.697874 75.006129 262.917188 
C 75.006129 286.136501 79.579827 309.130035 88.465474 330.581883 
C 97.35112 352.033731 110.375911 371.526709 126.794445 387.945242 
C 143.212979 404.363776 162.705956 417.388567 184.157804 426.274214 
C 205.609652 435.15986 228.603187 439.733559 251.8225 439.733559 
C 275.041813 439.733559 298.035348 435.15986 319.487196 426.274214 
C 340.939044 417.388567 360.432021 404.363776 376.850555 387.945242 
C 393.269089 371.526709 406.29388 352.033731 415.179526 330.581883 
C 424.065173 309.130035 428.638871 286.136501 428.638871 262.917188 
C 428.638871 239.697874 424.065173 216.70434 415.179526 195.252492 
C 406.29388 173.800644 393.269089 154.307666 376.850555 137.889133 
C 360.432021 121.470599 340.939044 108.445808 319.487196 99.560161 
C 298.035348 90.674515 275.041813 86.100816 251.8225 86.100816 
" clip-path="url(#p45dcbf2c34)" style="fill: none; stroke: #b0b0b0; stroke-width: 0.8; stroke-linecap: square"/>
     </g>
     <g id="text_12">
      <!-- −10 -->
      <g transform="translate(184.157804 97.480474)scale(0.1 -0.1)">
       <use xlink:href="#DejaVuSans-2212"/>
       <use xlink:href="#DejaVuSans-31" x="83.789062"/>
       <use xlink:href="#DejaVuSans-30" x="147.412109"/>
      </g>
     </g>
    </g>
    <g id="ytick_5">
     <g id="line2d_13">
      <path d="M 251.8225 41.157188 
C 222.701244 41.157188 193.863155 46.89344 166.958622 58.037662 
C 140.054089 69.181885 115.606338 85.51735 95.0145 106.109188 
C 74.422662 126.701026 58.087197 151.148777 46.942975 178.05331 
C 35.798753 204.957842 30.0625 233.795931 30.0625 262.917188 
C 30.0625 292.038444 35.798753 320.876533 46.942975 347.781065 
C 58.087197 374.685598 74.422662 399.133349 95.0145 419.725187 
C 115.606338 440.317025 140.054089 456.65249 166.958622 467.796713 
C 193.863155 478.940935 222.701244 484.677188 251.8225 484.677188 
C 280.943756 484.677188 309.781845 478.940935 336.686378 467.796713 
C 363.590911 456.65249 388.038662 440.317025 408.6305 419.725187 
C 429.222338 399.133349 445.557803 374.685598 456.702025 347.781065 
C 467.846247 320.876533 473.5825 292.038444 473.5825 262.917188 
C 473.5825 233.795931 467.846247 204.957842 456.702025 178.05331 
C 445.557803 151.148777 429.222338 126.701026 408.6305 106.109188 
C 388.038662 85.51735 363.590911 69.181885 336.686378 58.037662 
C 309.781845 46.89344 280.943756 41.157188 251.8225 41.157188 
" clip-path="url(#p45dcbf2c34)" style="fill: none; stroke: #b0b0b0; stroke-width: 0.8; stroke-linecap: square"/>
     </g>
     <g id="text_13">
      <!-- 0 -->
      <g transform="translate(166.958622 55.957975)scale(0.1 -0.1)">
       <use xlink:href="#DejaVuSans-30"/>
      </g>
     </g>
    </g>
   </g>
   <g id="line2d_14">
    <path d="M 251.8225 476.578346 
L 255.572423 477.75011 
L 259.373748 479.156639 
L 263.192599 479.871605 
L 270.89868 480.958923 
L 278.590267 480.923156 
L 282.452217 480.858952 
L 286.274362 480.437684 
L 290.056786 479.7546 
L 297.412256 477.400128 
L 300.928156 475.617151 
L 304.338149 473.54595 
L 307.809544 471.86368 
L 314.267325 467.165005 
L 317.498831 465.048151 
L 323.27875 459.241622 
L 326.095045 456.403782 
L 328.233182 452.040262 
L 330.472057 448.203931 
L 332.483627 444.085045 
L 333.843922 438.812695 
L 335.431461 434.340962 
L 336.516995 429.139494 
L 336.109293 421.43759 
L 336.087087 414.934526 
L 334.44644 406.02605 
L 330.667688 394.137617 
L 329.36141 387.005382 
L 332.692632 387.44627 
L 341.194491 395.416613 
L 356.526579 407.029989 
L 363.285768 410.833941 
L 368.683709 412.492715 
L 374.653467 414.600799 
L 379.546917 415.13322 
L 384.203768 415.204416 
L 389.487823 415.810018 
L 393.934445 415.313591 
L 398.208437 414.504263 
L 402.468368 413.563056 
L 406.073546 411.875691 
L 409.619393 410.065171 
L 413.105316 408.136887 
L 422.297246 400.964915 
L 428.062875 395.723836 
L 430.826511 392.971214 
L 433.348803 390.023273 
L 435.669872 386.923806 
L 437.772162 383.67431 
L 439.729377 380.334436 
L 442.840852 373.201684 
L 444.28444 369.600583 
L 447.442919 358.327641 
L 447.897017 354.348236 
L 448.526722 350.49555 
L 448.891656 346.568081 
L 448.621374 342.429094 
L 448.837803 338.544277 
L 448.56082 334.52408 
L 447.609072 330.331911 
L 447.375173 326.456103 
L 446.309604 322.377862 
L 444.604592 318.196563 
L 443.521321 314.282732 
L 441.248756 310.146458 
L 438.821099 306.089216 
L 436.864422 302.249062 
L 432.868238 298.108914 
L 429.776769 294.295326 
L 427.007969 290.66384 
L 422.293908 286.875381 
L 418.907722 283.432673 
L 414.721409 280.038553 
L 409.430173 276.706072 
L 405.822465 273.685914 
L 403.294028 270.855474 
L 404.339267 268.24319 
L 407.347855 265.631893 
L 413.16478 262.917188 
L 418.573064 260.006546 
L 423.72512 256.914216 
L 428.109305 253.678388 
L 434.493877 246.935513 
L 437.378533 243.414463 
L 439.628429 239.857519 
L 444.977162 232.324495 
L 447.02079 228.498462 
L 449.37274 224.517311 
L 451.428868 220.489544 
L 452.47098 216.593836 
L 453.960666 212.518482 
L 454.830202 208.521438 
L 454.904089 204.684479 
L 455.481495 200.652384 
L 455.56491 196.717265 
L 455.088198 192.927195 
L 454.938033 188.989179 
L 454.48122 185.123793 
L 453.655231 181.371471 
L 453.045287 177.503182 
L 452.250687 173.680809 
L 449.923176 166.297032 
L 448.314872 162.799323 
L 446.521774 159.393747 
L 442.167496 153.021453 
L 439.846875 149.940745 
L 437.225264 147.064683 
L 432.33138 141.162411 
L 429.380074 138.590036 
L 426.663273 135.887931 
L 423.762825 133.350859 
L 420.249997 131.327205 
L 417.134923 129.049827 
L 413.668273 127.112459 
L 409.496128 125.853594 
L 405.977836 124.1151 
L 401.835851 123.027475 
L 397.260459 122.469383 
L 393.366592 121.373095 
L 388.433309 121.452554 
L 383.531332 121.676757 
L 379.217839 121.430329 
L 373.88968 122.49496 
L 369.17858 123.057658 
L 365.031269 123.116 
L 360.570848 123.72565 
L 357.346082 122.882664 
L 354.645674 121.393229 
L 352.876726 118.596797 
L 351.214682 115.562217 
L 350.00596 111.727917 
L 349.150535 107.159772 
L 347.61642 103.489333 
L 344.69814 95.365097 
L 342.648108 92.099064 
L 338.6882 84.816109 
L 336.210574 81.946378 
L 333.869268 78.63713 
L 331.218394 75.872183 
L 325.589305 70.74809 
L 322.510169 68.704413 
L 316.057221 65.223044 
L 312.714148 63.749583 
L 309.303248 62.457995 
L 305.797162 61.481008 
L 302.238602 60.709247 
L 298.619005 60.219254 
L 291.287472 59.887506 
L 287.591383 60.061773 
L 280.247975 60.659423 
L 272.941768 61.980771 
L 269.374538 62.296473 
L 265.796562 63.078789 
L 258.76548 64.096258 
L 255.2804 64.81423 
L 251.8225 65.33686 
L 248.384994 65.982586 
L 241.591556 67.69914 
L 238.207094 68.207816 
L 234.847842 68.895955 
L 231.474155 69.315619 
L 228.081462 69.561946 
L 224.604855 69.253578 
L 221.118018 69.05672 
L 217.572349 68.674931 
L 213.925156 67.952256 
L 202.981874 67.028135 
L 195.814702 67.594783 
L 192.271157 68.133523 
L 185.250592 69.57833 
L 181.814257 70.57112 
L 178.47446 71.839011 
L 175.228304 73.339899 
L 172.036755 74.953751 
L 168.951295 76.785412 
L 163.167859 81.148237 
L 160.423257 83.536072 
L 157.928988 86.329174 
L 155.292827 88.773047 
L 150.461563 94.22426 
L 147.952074 96.689758 
L 143.350069 102.100195 
L 140.900224 104.50376 
L 134.189296 112.353552 
L 128.304625 120.826126 
L 127.067584 124.362817 
L 125.686107 127.652466 
L 124.521635 131.093283 
L 122.756322 138.279428 
L 122.563071 142.38082 
L 122.9774 146.904538 
L 122.556359 150.547846 
L 122.766733 154.626541 
L 122.786048 158.425529 
L 122.278298 161.706164 
L 122.344278 165.348349 
L 122.991873 169.316258 
L 123.192946 172.849804 
L 129.087599 183.212211 
L 131.904017 187.983802 
L 139.448114 195.395844 
L 145.253915 201.389786 
L 149.145296 206.002284 
L 150.052568 208.805155 
L 147.922331 209.977407 
L 143.152461 209.915268 
L 137.372362 209.548212 
L 134.627188 210.738473 
L 131.293514 211.755668 
L 130.539826 213.915806 
L 127.999794 217.849408 
L 126.250476 219.679272 
L 125.224337 221.782951 
L 125.222 224.21153 
L 126.604937 227.011629 
L 127.156476 229.513027 
L 128.903736 232.270098 
L 129.018193 234.565579 
L 128.155232 236.630898 
L 126.603537 238.577087 
L 125.215225 240.592909 
L 124.516407 242.753883 
L 124.931603 245.083835 
L 126.343744 247.510333 
L 128.400355 249.944997 
L 134.205718 252.627052 
L 138.724729 255.008621 
L 146.153089 257.379288 
L 170.402395 261.495994 
L 183.302297 262.917188 
L 186.440333 264.058437 
L 176.296678 265.554607 
L 164.509841 267.49305 
L 155.761705 269.634413 
L 152.16401 271.636176 
L 149.077383 273.716134 
L 143.188063 278.184762 
L 135.281054 281.375539 
L 127.870875 284.773203 
L 121.935864 288.164592 
L 114.259001 292.157212 
L 109.868071 295.68995 
L 107.04274 299.014836 
L 104.647244 302.352678 
L 103.880375 305.338909 
L 103.422642 308.287577 
L 103.125724 311.231699 
L 103.422143 314.015528 
L 103.103324 317.046541 
L 101.913996 320.461671 
L 101.307614 323.729149 
L 97.354692 331.690687 
L 96.647748 335.276363 
L 94.900554 339.453134 
L 94.334023 343.161575 
L 94.616429 350.057936 
L 97.19327 359.540254 
L 98.522427 362.471419 
L 99.642365 365.563984 
L 100.499769 368.874504 
L 101.484839 372.143892 
L 102.251053 375.627357 
L 102.68259 379.438055 
L 103.680564 382.880162 
L 104.56766 386.478669 
L 105.369406 390.22692 
L 106.838701 393.461186 
L 108.12999 396.91262 
L 109.342712 400.508319 
L 112.701566 406.981132 
L 114.596401 410.074162 
L 121.486499 418.245585 
L 123.911737 420.873824 
L 128.636736 426.390217 
L 131.059403 429.13333 
L 133.408961 432.029248 
L 141.307272 439.778523 
L 144.246411 441.953865 
L 147.32899 443.905256 
L 150.590738 445.54412 
L 153.987554 446.91796 
L 157.548336 447.940652 
L 161.241004 448.636776 
L 164.832248 449.468385 
L 172.407289 450.0077 
L 176.05496 450.448429 
L 187.141075 450.765687 
L 190.905704 450.399806 
L 194.514197 450.364199 
L 198.143673 450.117505 
L 201.68067 450.049043 
L 205.036842 450.564212 
L 208.323915 451.330259 
L 211.499194 452.623425 
L 214.654086 454.132099 
L 217.738583 456.216688 
L 220.850147 458.468925 
L 224.067555 460.403883 
L 227.254944 463.003871 
L 230.55149 465.29733 
L 233.958269 467.106279 
L 237.370647 469.58831 
L 240.891786 471.487641 
L 244.484256 473.057012 
L 248.118071 475.143776 
L 248.118071 475.143776 
" clip-path="url(#p45dcbf2c34)" style="fill: none; stroke: #ff0000; stroke-width: 1.5; stroke-linecap: square"/>
   </g>
   <g id="line2d_15">
    <path d="M 251.8225 59.607446 
L 244.650235 57.530401 
L 237.339986 55.807587 
L 229.91596 54.490377 
L 226.169463 53.989967 
L 222.405741 53.606074 
L 218.627874 53.334564 
L 214.839412 53.175672 
L 211.044253 53.131292 
L 207.246601 53.20407 
L 203.449828 53.392124 
L 199.657718 53.695674 
L 195.873843 54.113955 
L 192.101728 54.646103 
L 188.344852 55.291157 
L 184.606646 56.048059 
L 180.890485 56.915659 
L 177.199658 57.892613 
L 173.537395 58.977516 
L 166.311207 61.465206 
L 159.236426 64.365711 
L 152.336547 67.665011 
L 145.634371 71.348732 
L 139.151375 75.400946 
L 132.908502 79.805688 
L 126.925641 84.545988 
L 121.221866 89.604292 
L 115.815459 94.962479 
L 110.723497 100.601353 
L 105.962798 106.501807 
L 101.549092 112.64378 
L 97.497303 119.006613 
L 93.827317 125.57407 
L 90.544932 132.317188 
L 87.66821 139.218058 
L 85.214641 146.257109 
L 84.15042 149.820942 
L 83.197249 153.410669 
L 82.356112 157.022836 
L 81.631751 160.656269 
L 81.021182 164.305 
L 80.532949 167.969839 
L 80.167861 171.646797 
L 79.926609 175.331856 
L 79.817844 179.024912 
L 79.838152 182.719569 
L 79.992064 186.413349 
L 80.288247 190.105217 
L 80.731304 193.791857 
L 81.325803 197.469637 
L 82.076261 201.134609 
L 82.995629 204.785434 
L 84.088432 208.417085 
L 85.367685 212.026844 
L 86.833498 215.607352 
L 88.550864 219.168684 
L 90.47234 222.688074 
L 92.641282 226.167308 
L 95.101457 229.605101 
L 97.89691 232.997084 
L 101.071825 236.335776 
L 104.626002 239.603553 
L 108.736672 242.807786 
L 113.492891 245.932447 
L 119.028199 248.959944 
L 125.610273 251.875048 
L 133.731101 254.659432 
L 144.107366 257.272077 
L 158.353534 259.653179 
L 181.228565 261.684966 
L 241.2625 262.917188 
L 200.461509 263.813697 
L 167.920696 265.847103 
L 150.435733 268.230643 
L 138.438687 270.845756 
L 129.371172 273.630291 
L 122.157019 276.545579 
L 116.1248 279.57877 
L 111.050997 282.701332 
L 106.667956 285.907409 
L 102.842258 289.186424 
L 99.485154 292.528568 
L 96.552187 295.920911 
L 93.955033 299.363764 
L 91.649772 302.852734 
L 89.636169 306.374884 
L 87.87036 309.929707 
L 86.308943 313.51976 
L 84.943311 317.139523 
L 83.781787 320.778245 
L 82.802672 324.435374 
L 81.997139 328.107036 
L 81.352202 331.791659 
L 80.859164 335.486818 
L 80.517607 339.18704 
L 80.318799 342.890677 
L 80.26219 346.592742 
L 80.335069 350.294398 
L 80.54088 353.98924 
L 80.874934 357.674971 
L 81.33256 361.3496 
L 81.909126 365.011443 
L 82.607667 368.654351 
L 83.423406 372.276838 
L 84.351624 375.87772 
L 85.391357 379.453529 
L 87.804606 386.513536 
L 89.168529 389.996397 
L 92.211846 396.846428 
L 95.657175 403.529078 
L 97.523599 406.80324 
L 101.545914 413.193773 
L 105.933986 419.363465 
L 110.671603 425.292721 
L 115.743618 430.960612 
L 121.132608 436.348532 
L 126.821599 441.436976 
L 132.792084 446.207954 
L 139.024989 450.643771 
L 145.50015 454.727784 
L 152.19678 458.443672 
L 159.093401 461.775382 
L 166.166857 464.709237 
L 173.394032 467.230331 
L 177.057384 468.332656 
L 180.74987 469.327094 
L 184.468179 470.212473 
L 188.208982 470.987629 
L 191.969051 471.650971 
L 195.744841 472.201861 
L 199.533006 472.638891 
L 203.329821 472.962059 
L 207.131759 473.170592 
L 210.935256 473.263821 
L 214.736394 473.242946 
L 218.531552 473.107958 
L 222.317547 472.855839 
L 229.845021 472.018929 
L 233.579173 471.439371 
L 240.971571 469.965242 
L 248.240841 468.110271 
L 255.366352 465.944318 
L 262.337539 463.556088 
L 279.170123 457.505637 
L 285.775928 455.476647 
L 289.086789 454.625337 
L 292.414735 453.888637 
L 295.768761 453.269357 
L 302.587587 452.37507 
L 309.58125 451.837547 
L 331.523602 450.681217 
L 339.030803 449.935997 
L 346.555346 448.840865 
L 354.04523 447.331874 
L 357.764993 446.414968 
L 361.460584 445.385601 
L 365.128069 444.244002 
L 368.761535 442.987511 
L 372.356859 441.616724 
L 375.910168 440.132744 
L 379.417613 438.536795 
L 382.874859 436.829541 
L 386.278326 435.012797 
L 389.62444 433.088411 
L 392.909331 431.057925 
L 396.130134 428.92413 
L 399.282951 426.68861 
L 402.364829 424.35407 
L 405.372598 421.922969 
L 408.302531 419.397218 
L 411.152225 416.780115 
L 413.918091 414.073772 
L 416.597581 411.281337 
L 419.186897 408.404838 
L 421.68399 405.447901 
L 424.084849 402.412487 
L 426.386893 399.301839 
L 428.587281 396.119004 
L 430.682161 392.866338 
L 432.669185 389.5474 
L 434.544621 386.164815 
L 436.305531 382.721869 
L 437.948293 379.221491 
L 439.468953 375.666551 
L 440.864571 372.060678 
L 442.130723 368.406758 
L 443.263414 364.708127 
L 444.258707 360.968332 
L 445.111316 357.190442 
L 445.816388 353.378023 
L 446.370354 349.535473 
L 446.760231 345.663345 
L 446.991204 341.770462 
L 447.045336 337.856213 
L 446.917104 333.925816 
L 446.59684 329.983371 
L 446.079177 326.035008 
L 445.341699 322.081944 
L 444.379074 318.131897 
L 443.168813 314.188278 
L 441.688331 310.256056 
L 439.915016 306.341767 
L 437.817508 302.451647 
L 435.351193 298.591552 
L 432.466943 294.769677 
L 429.093425 290.994144 
L 425.145868 287.276198 
L 420.485975 283.626458 
L 414.921653 280.059599 
L 408.16669 276.595532 
L 399.728607 273.25979 
L 388.621193 270.086503 
L 372.870043 267.144261 
L 346.008246 264.561206 
L 294.921687 262.917188 
L 349.423442 261.213557 
L 374.666693 258.627374 
L 389.833008 255.684363 
L 400.62529 252.511883 
L 408.883052 249.17617 
L 415.50272 245.713703 
L 420.97667 242.147667 
L 425.559776 238.500006 
L 429.452986 234.783282 
L 432.776768 231.010068 
L 435.620312 227.190512 
L 438.0549 223.332269 
L 440.125217 219.44408 
L 441.871487 215.532653 
L 443.329439 211.603058 
L 444.521643 207.661597 
L 445.46634 203.714324 
L 446.181762 199.766035 
L 446.68608 195.820276 
L 446.993124 191.88089 
L 447.104078 187.955613 
L 447.037042 184.045393 
L 446.797465 180.155225 
L 446.394989 176.287934 
L 445.831052 172.449514 
L 445.115759 168.641766 
L 444.253902 164.868491 
L 443.249525 161.133633 
L 442.108317 157.440037 
L 440.833783 153.791472 
L 439.430429 150.190971 
L 437.902175 146.641702 
L 436.252007 143.147265 
L 434.484633 139.710023 
L 432.602549 136.333634 
L 430.609077 133.021136 
L 428.507956 129.775147 
L 426.301894 126.598945 
L 423.994386 123.495143 
L 421.587933 120.467075 
L 419.085817 117.517405 
L 416.49137 114.648671 
L 413.80732 111.863899 
L 411.036808 109.165717 
L 408.18272 106.556967 
L 405.248341 104.040079 
L 402.236399 101.618029 
L 399.150629 99.292724 
L 395.993615 97.067292 
L 392.769218 94.94343 
L 389.480192 92.924095 
L 386.130292 91.011053 
L 382.723094 89.206232 
L 379.261752 87.512105 
L 375.750599 85.92952 
L 372.193249 84.460213 
L 368.593861 83.105061 
L 364.957066 81.864035 
L 361.284662 80.741558 
L 357.585218 79.730786 
L 350.116999 78.052122 
L 342.594711 76.806575 
L 335.0626 75.956861 
L 327.571183 75.432617 
L 316.519728 75.022794 
L 305.826888 74.581506 
L 298.931951 73.971498 
L 295.551394 73.50654 
L 292.208226 72.917287 
L 288.893837 72.201691 
L 285.598769 71.362449 
L 279.028136 69.33903 
L 272.415981 66.983307 
L 258.840266 61.954651 
L 255.351292 60.752843 
L 255.351292 60.752843 
" clip-path="url(#p45dcbf2c34)" style="fill: none; stroke-dasharray: 5.55,2.4; stroke-dashoffset: 0; stroke: #0000ff; stroke-width: 1.5"/>
   </g>
   <g id="patch_3">
    <path d="M 251.8225 41.157188 
C 222.701244 41.157188 193.863155 46.89344 166.958622 58.037662 
C 140.054089 69.181885 115.606338 85.51735 95.0145 106.109188 
C 74.422662 126.701026 58.087197 151.148777 46.942975 178.05331 
C 35.798753 204.957842 30.0625 233.795931 30.0625 262.917188 
C 30.0625 292.038444 35.798753 320.876533 46.942975 347.781065 
C 58.087197 374.685598 74.422662 399.133349 95.0145 419.725187 
C 115.606338 440.317025 140.054089 456.65249 166.958622 467.796713 
C 193.863155 478.940935 222.701244 484.677188 251.8225 484.677188 
C 280.943756 484.677188 309.781845 478.940935 336.686378 467.796713 
C 363.590911 456.65249 388.038662 440.317025 408.6305 419.725187 
C 429.222338 399.133349 445.557803 374.685598 456.702025 347.781065 
C 467.846247 320.876533 473.5825 292.038444 473.5825 262.917188 
C 473.5825 233.795931 467.846247 204.957842 456.702025 178.05331 
C 445.557803 151.148777 429.222338 126.701026 408.6305 106.109188 
C 388.038662 85.51735 363.590911 69.181885 336.686378 58.037662 
C 309.781845 46.89344 280.943756 41.157188 251.8225 41.157188 
" style="fill: none; stroke: #000000; stroke-width: 0.8; stroke-linejoin: miter; stroke-linecap: square"/>
   </g>
   <g id="text_14">
    <g id="patch_4">
     <path d="M 384.8785 509.853188 
L 485.369125 509.853188 
Q 488.369125 509.853188 488.369125 506.853188 
L 488.369125 473.945063 
Q 488.369125 470.945063 485.369125 470.945063 
L 384.8785 470.945063 
Q 381.8785 470.945063 381.8785 473.945063 
L 381.8785 506.853188 
Q 381.8785 509.853188 384.8785 509.853188 
z
" style="fill: #ffffff; stroke: #808080; stroke-linejoin: miter"/>
    </g>
    <!-- G_cst: 0.8 dBi -->
    <g transform="translate(384.8785 481.821625)scale(0.1 -0.1)">
     <defs>
      <path id="DejaVuSans-47" d="M 3809 666 
L 3809 1919 
L 2778 1919 
L 2778 2438 
L 4434 2438 
L 4434 434 
Q 4069 175 3628 42 
Q 3188 -91 2688 -91 
Q 1594 -91 976 548 
Q 359 1188 359 2328 
Q 359 3472 976 4111 
Q 1594 4750 2688 4750 
Q 3144 4750 3555 4637 
Q 3966 4525 4313 4306 
L 4313 3634 
Q 3963 3931 3569 4081 
Q 3175 4231 2741 4231 
Q 1884 4231 1454 3753 
Q 1025 3275 1025 2328 
Q 1025 1384 1454 906 
Q 1884 428 2741 428 
Q 3075 428 3337 486 
Q 3600 544 3809 666 
z
" transform="scale(0.015625)"/>
      <path id="DejaVuSans-5f" d="M 3263 -1063 
L 3263 -1509 
L -63 -1509 
L -63 -1063 
L 3263 -1063 
z
" transform="scale(0.015625)"/>
      <path id="DejaVuSans-63" d="M 3122 3366 
L 3122 2828 
Q 2878 2963 2633 3030 
Q 2388 3097 2138 3097 
Q 1578 3097 1268 2742 
Q 959 2388 959 1747 
Q 959 1106 1268 751 
Q 1578 397 2138 397 
Q 2388 397 2633 464 
Q 2878 531 3122 666 
L 3122 134 
Q 2881 22 2623 -34 
Q 2366 -91 2075 -91 
Q 1284 -91 818 406 
Q 353 903 353 1747 
Q 353 2603 823 3093 
Q 1294 3584 2113 3584 
Q 2378 3584 2631 3529 
Q 2884 3475 3122 3366 
z
" transform="scale(0.015625)"/>
      <path id="DejaVuSans-73" d="M 2834 3397 
L 2834 2853 
Q 2591 2978 2328 3040 
Q 2066 3103 1784 3103 
Q 1356 3103 1142 2972 
Q 928 2841 928 2578 
Q 928 2378 1081 2264 
Q 1234 2150 1697 2047 
L 1894 2003 
Q 2506 1872 2764 1633 
Q 3022 1394 3022 966 
Q 3022 478 2636 193 
Q 2250 -91 1575 -91 
Q 1294 -91 989 -36 
Q 684 19 347 128 
L 347 722 
Q 666 556 975 473 
Q 1284 391 1588 391 
Q 1994 391 2212 530 
Q 2431 669 2431 922 
Q 2431 1156 2273 1281 
Q 2116 1406 1581 1522 
L 1381 1569 
Q 847 1681 609 1914 
Q 372 2147 372 2553 
Q 372 3047 722 3315 
Q 1072 3584 1716 3584 
Q 2034 3584 2315 3537 
Q 2597 3491 2834 3397 
z
" transform="scale(0.015625)"/>
      <path id="DejaVuSans-74" d="M 1172 4494 
L 1172 3500 
L 2356 3500 
L 2356 3053 
L 1172 3053 
L 1172 1153 
Q 1172 725 1289 603 
Q 1406 481 1766 481 
L 2356 481 
L 2356 0 
L 1766 0 
Q 1100 0 847 248 
Q 594 497 594 1153 
L 594 3053 
L 172 3053 
L 172 3500 
L 594 3500 
L 594 4494 
L 1172 4494 
z
" transform="scale(0.015625)"/>
      <path id="DejaVuSans-3a" d="M 750 794 
L 1409 794 
L 1409 0 
L 750 0 
L 750 794 
z
M 750 3309 
L 1409 3309 
L 1409 2516 
L 750 2516 
L 750 3309 
z
" transform="scale(0.015625)"/>
      <path id="DejaVuSans-20" transform="scale(0.015625)"/>
      <path id="DejaVuSans-2e" d="M 684 794 
L 1344 794 
L 1344 0 
L 684 0 
L 684 794 
z
" transform="scale(0.015625)"/>
      <path id="DejaVuSans-64" d="M 2906 2969 
L 2906 4863 
L 3481 4863 
L 3481 0 
L 2906 0 
L 2906 525 
Q 2725 213 2448 61 
Q 2172 -91 1784 -91 
Q 1150 -91 751 415 
Q 353 922 353 1747 
Q 353 2572 751 3078 
Q 1150 3584 1784 3584 
Q 2172 3584 2448 3432 
Q 2725 3281 2906 2969 
z
M 947 1747 
Q 947 1113 1208 752 
Q 1469 391 1925 391 
Q 2381 391 2643 752 
Q 2906 1113 2906 1747 
Q 2906 2381 2643 2742 
Q 2381 3103 1925 3103 
Q 1469 3103 1208 2742 
Q 947 2381 947 1747 
z
" transform="scale(0.015625)"/>
      <path id="DejaVuSans-42" d="M 1259 2228 
L 1259 519 
L 2272 519 
Q 2781 519 3026 730 
Q 3272 941 3272 1375 
Q 3272 1813 3026 2020 
Q 2781 2228 2272 2228 
L 1259 2228 
z
M 1259 4147 
L 1259 2741 
L 2194 2741 
Q 2656 2741 2882 2914 
Q 3109 3088 3109 3444 
Q 3109 3797 2882 3972 
Q 2656 4147 2194 4147 
L 1259 4147 
z
M 628 4666 
L 2241 4666 
Q 2963 4666 3353 4366 
Q 3744 4066 3744 3513 
Q 3744 3084 3544 2831 
Q 3344 2578 2956 2516 
Q 3422 2416 3680 2098 
Q 3938 1781 3938 1306 
Q 3938 681 3513 340 
Q 3088 0 2303 0 
L 628 0 
L 628 4666 
z
" transform="scale(0.015625)"/>
      <path id="DejaVuSans-69" d="M 603 3500 
L 1178 3500 
L 1178 0 
L 603 0 
L 603 3500 
z
M 603 4863 
L 1178 4863 
L 1178 4134 
L 603 4134 
L 603 4863 
z
" transform="scale(0.015625)"/>
     </defs>
     <use xlink:href="#DejaVuSans-47"/>
     <use xlink:href="#DejaVuSans-5f" x="77.490234"/>
     <use xlink:href="#DejaVuSans-63" x="127.490234"/>
     <use xlink:href="#DejaVuSans-73" x="182.470703"/>
     <use xlink:href="#DejaVuSans-74" x="234.570312"/>
     <use xlink:href="#DejaVuSans-3a" x="273.779297"/>
     <use xlink:href="#DejaVuSans-20" x="307.470703"/>
     <use xlink:href="#DejaVuSans-30" x="339.257812"/>
     <use xlink:href="#DejaVuSans-2e" x="402.880859"/>
     <use xlink:href="#DejaVuSans-38" x="434.667969"/>
     <use xlink:href="#DejaVuSans-20" x="498.291016"/>
     <use xlink:href="#DejaVuSans-64" x="530.078125"/>
     <use xlink:href="#DejaVuSans-42" x="593.554688"/>
     <use xlink:href="#DejaVuSans-69" x="662.158203"/>
    </g>
    <!-- G_inpe: 0.6 dBi -->
    <g transform="translate(384.8785 493.297563)scale(0.1 -0.1)">
     <defs>
      <path id="DejaVuSans-6e" d="M 3513 2113 
L 3513 0 
L 2938 0 
L 2938 2094 
Q 2938 2591 2744 2837 
Q 2550 3084 2163 3084 
Q 1697 3084 1428 2787 
Q 1159 2491 1159 1978 
L 1159 0 
L 581 0 
L 581 3500 
L 1159 3500 
L 1159 2956 
Q 1366 3272 1645 3428 
Q 1925 3584 2291 3584 
Q 2894 3584 3203 3211 
Q 3513 2838 3513 2113 
z
" transform="scale(0.015625)"/>
      <path id="DejaVuSans-70" d="M 1159 525 
L 1159 -1331 
L 581 -1331 
L 581 3500 
L 1159 3500 
L 1159 2969 
Q 1341 3281 1617 3432 
Q 1894 3584 2278 3584 
Q 2916 3584 3314 3078 
Q 3713 2572 3713 1747 
Q 3713 922 3314 415 
Q 2916 -91 2278 -91 
Q 1894 -91 1617 61 
Q 1341 213 1159 525 
z
M 3116 1747 
Q 3116 2381 2855 2742 
Q 2594 3103 2138 3103 
Q 1681 3103 1420 2742 
Q 1159 2381 1159 1747 
Q 1159 1113 1420 752 
Q 1681 391 2138 391 
Q 2594 391 2855 752 
Q 3116 1113 3116 1747 
z
" transform="scale(0.015625)"/>
      <path id="DejaVuSans-65" d="M 3597 1894 
L 3597 1613 
L 953 1613 
Q 991 1019 1311 708 
Q 1631 397 2203 397 
Q 2534 397 2845 478 
Q 3156 559 3463 722 
L 3463 178 
Q 3153 47 2828 -22 
Q 2503 -91 2169 -91 
Q 1331 -91 842 396 
Q 353 884 353 1716 
Q 353 2575 817 3079 
Q 1281 3584 2069 3584 
Q 2775 3584 3186 3129 
Q 3597 2675 3597 1894 
z
M 3022 2063 
Q 3016 2534 2758 2815 
Q 2500 3097 2075 3097 
Q 1594 3097 1305 2825 
Q 1016 2553 972 2059 
L 3022 2063 
z
" transform="scale(0.015625)"/>
      <path id="DejaVuSans-36" d="M 2113 2584 
Q 1688 2584 1439 2293 
Q 1191 2003 1191 1497 
Q 1191 994 1439 701 
Q 1688 409 2113 409 
Q 2538 409 2786 701 
Q 3034 994 3034 1497 
Q 3034 2003 2786 2293 
Q 2538 2584 2113 2584 
z
M 3366 4563 
L 3366 3988 
Q 3128 4100 2886 4159 
Q 2644 4219 2406 4219 
Q 1781 4219 1451 3797 
Q 1122 3375 1075 2522 
Q 1259 2794 1537 2939 
Q 1816 3084 2150 3084 
Q 2853 3084 3261 2657 
Q 3669 2231 3669 1497 
Q 3669 778 3244 343 
Q 2819 -91 2113 -91 
Q 1303 -91 875 529 
Q 447 1150 447 2328 
Q 447 3434 972 4092 
Q 1497 4750 2381 4750 
Q 2619 4750 2861 4703 
Q 3103 4656 3366 4563 
z
" transform="scale(0.015625)"/>
     </defs>
     <use xlink:href="#DejaVuSans-47"/>
     <use xlink:href="#DejaVuSans-5f" x="77.490234"/>
     <use xlink:href="#DejaVuSans-69" x="127.490234"/>
     <use xlink:href="#DejaVuSans-6e" x="155.273438"/>
     <use xlink:href="#DejaVuSans-70" x="218.652344"/>
     <use xlink:href="#DejaVuSans-65" x="282.128906"/>
     <use xlink:href="#DejaVuSans-3a" x="343.652344"/>
     <use xlink:href="#DejaVuSans-20" x="377.34375"/>
     <use xlink:href="#DejaVuSans-30" x="409.130859"/>
     <use xlink:href="#DejaVuSans-2e" x="472.753906"/>
     <use xlink:href="#DejaVuSans-36" x="504.541016"/>
     <use xlink:href="#DejaVuSans-20" x="568.164062"/>
     <use xlink:href="#DejaVuSans-64" x="599.951172"/>
     <use xlink:href="#DejaVuSans-42" x="663.427734"/>
     <use xlink:href="#DejaVuSans-69" x="732.03125"/>
    </g>
    <!-- Pearson Coef: 0.354 -->
    <g transform="translate(384.8785 504.7735)scale(0.1 -0.1)">
     <defs>
      <path id="DejaVuSans-50" d="M 1259 4147 
L 1259 2394 
L 2053 2394 
Q 2494 2394 2734 2622 
Q 2975 2850 2975 3272 
Q 2975 3691 2734 3919 
Q 2494 4147 2053 4147 
L 1259 4147 
z
M 628 4666 
L 2053 4666 
Q 2838 4666 3239 4311 
Q 3641 3956 3641 3272 
Q 3641 2581 3239 2228 
Q 2838 1875 2053 1875 
L 1259 1875 
L 1259 0 
L 628 0 
L 628 4666 
z
" transform="scale(0.015625)"/>
      <path id="DejaVuSans-61" d="M 2194 1759 
Q 1497 1759 1228 1600 
Q 959 1441 959 1056 
Q 959 750 1161 570 
Q 1363 391 1709 391 
Q 2188 391 2477 730 
Q 2766 1069 2766 1631 
L 2766 1759 
L 2194 1759 
z
M 3341 1997 
L 3341 0 
L 2766 0 
L 2766 531 
Q 2569 213 2275 61 
Q 1981 -91 1556 -91 
Q 1019 -91 701 211 
Q 384 513 384 1019 
Q 384 1609 779 1909 
Q 1175 2209 1959 2209 
L 2766 2209 
L 2766 2266 
Q 2766 2663 2505 2880 
Q 2244 3097 1772 3097 
Q 1472 3097 1187 3025 
Q 903 2953 641 2809 
L 641 3341 
Q 956 3463 1253 3523 
Q 1550 3584 1831 3584 
Q 2591 3584 2966 3190 
Q 3341 2797 3341 1997 
z
" transform="scale(0.015625)"/>
      <path id="DejaVuSans-72" d="M 2631 2963 
Q 2534 3019 2420 3045 
Q 2306 3072 2169 3072 
Q 1681 3072 1420 2755 
Q 1159 2438 1159 1844 
L 1159 0 
L 581 0 
L 581 3500 
L 1159 3500 
L 1159 2956 
Q 1341 3275 1631 3429 
Q 1922 3584 2338 3584 
Q 2397 3584 2469 3576 
Q 2541 3569 2628 3553 
L 2631 2963 
z
" transform="scale(0.015625)"/>
      <path id="DejaVuSans-6f" d="M 1959 3097 
Q 1497 3097 1228 2736 
Q 959 2375 959 1747 
Q 959 1119 1226 758 
Q 1494 397 1959 397 
Q 2419 397 2687 759 
Q 2956 1122 2956 1747 
Q 2956 2369 2687 2733 
Q 2419 3097 1959 3097 
z
M 1959 3584 
Q 2709 3584 3137 3096 
Q 3566 2609 3566 1747 
Q 3566 888 3137 398 
Q 2709 -91 1959 -91 
Q 1206 -91 779 398 
Q 353 888 353 1747 
Q 353 2609 779 3096 
Q 1206 3584 1959 3584 
z
" transform="scale(0.015625)"/>
      <path id="DejaVuSans-43" d="M 4122 4306 
L 4122 3641 
Q 3803 3938 3442 4084 
Q 3081 4231 2675 4231 
Q 1875 4231 1450 3742 
Q 1025 3253 1025 2328 
Q 1025 1406 1450 917 
Q 1875 428 2675 428 
Q 3081 428 3442 575 
Q 3803 722 4122 1019 
L 4122 359 
Q 3791 134 3420 21 
Q 3050 -91 2638 -91 
Q 1578 -91 968 557 
Q 359 1206 359 2328 
Q 359 3453 968 4101 
Q 1578 4750 2638 4750 
Q 3056 4750 3426 4639 
Q 3797 4528 4122 4306 
z
" transform="scale(0.015625)"/>
      <path id="DejaVuSans-66" d="M 2375 4863 
L 2375 4384 
L 1825 4384 
Q 1516 4384 1395 4259 
Q 1275 4134 1275 3809 
L 1275 3500 
L 2222 3500 
L 2222 3053 
L 1275 3053 
L 1275 0 
L 697 0 
L 697 3053 
L 147 3053 
L 147 3500 
L 697 3500 
L 697 3744 
Q 697 4328 969 4595 
Q 1241 4863 1831 4863 
L 2375 4863 
z
" transform="scale(0.015625)"/>
     </defs>
     <use xlink:href="#DejaVuSans-50"/>
     <use xlink:href="#DejaVuSans-65" x="56.677734"/>
     <use xlink:href="#DejaVuSans-61" x="118.201172"/>
     <use xlink:href="#DejaVuSans-72" x="179.480469"/>
     <use xlink:href="#DejaVuSans-73" x="220.59375"/>
     <use xlink:href="#DejaVuSans-6f" x="272.693359"/>
     <use xlink:href="#DejaVuSans-6e" x="333.875"/>
     <use xlink:href="#DejaVuSans-20" x="397.253906"/>
     <use xlink:href="#DejaVuSans-43" x="429.041016"/>
     <use xlink:href="#DejaVuSans-6f" x="498.865234"/>
     <use xlink:href="#DejaVuSans-65" x="560.046875"/>
     <use xlink:href="#DejaVuSans-66" x="621.570312"/>
     <use xlink:href="#DejaVuSans-3a" x="653.150391"/>
     <use xlink:href="#DejaVuSans-20" x="686.841797"/>
     <use xlink:href="#DejaVuSans-30" x="718.628906"/>
     <use xlink:href="#DejaVuSans-2e" x="782.251953"/>
     <use xlink:href="#DejaVuSans-33" x="814.039062"/>
     <use xlink:href="#DejaVuSans-35" x="877.662109"/>
     <use xlink:href="#DejaVuSans-34" x="941.285156"/>
    </g>
   </g>
   <g id="text_15">
    <g id="patch_5">
     <path d="M 52.2385 56.370938 
L 133.30975 56.370938 
Q 136.90975 56.370938 136.90975 52.770938 
L 136.90975 41.157188 
Q 136.90975 37.557188 133.30975 37.557188 
L 52.2385 37.557188 
Q 48.6385 37.557188 48.6385 41.157188 
L 48.6385 52.770938 
Q 48.6385 56.370938 52.2385 56.370938 
z
" style="fill: #ffffff; stroke: #808080; stroke-linejoin: miter"/>
    </g>
    <!-- Freq: 7.5 GHz -->
    <g transform="translate(52.2385 50.275313)scale(0.12 -0.12)">
     <defs>
      <path id="DejaVuSans-46" d="M 628 4666 
L 3309 4666 
L 3309 4134 
L 1259 4134 
L 1259 2759 
L 3109 2759 
L 3109 2228 
L 1259 2228 
L 1259 0 
L 628 0 
L 628 4666 
z
" transform="scale(0.015625)"/>
      <path id="DejaVuSans-71" d="M 947 1747 
Q 947 1113 1208 752 
Q 1469 391 1925 391 
Q 2381 391 2643 752 
Q 2906 1113 2906 1747 
Q 2906 2381 2643 2742 
Q 2381 3103 1925 3103 
Q 1469 3103 1208 2742 
Q 947 2381 947 1747 
z
M 2906 525 
Q 2725 213 2448 61 
Q 2172 -91 1784 -91 
Q 1150 -91 751 415 
Q 353 922 353 1747 
Q 353 2572 751 3078 
Q 1150 3584 1784 3584 
Q 2172 3584 2448 3432 
Q 2725 3281 2906 2969 
L 2906 3500 
L 3481 3500 
L 3481 -1331 
L 2906 -1331 
L 2906 525 
z
" transform="scale(0.015625)"/>
      <path id="DejaVuSans-48" d="M 628 4666 
L 1259 4666 
L 1259 2753 
L 3553 2753 
L 3553 4666 
L 4184 4666 
L 4184 0 
L 3553 0 
L 3553 2222 
L 1259 2222 
L 1259 0 
L 628 0 
L 628 4666 
z
" transform="scale(0.015625)"/>
      <path id="DejaVuSans-7a" d="M 353 3500 
L 3084 3500 
L 3084 2975 
L 922 459 
L 3084 459 
L 3084 0 
L 275 0 
L 275 525 
L 2438 3041 
L 353 3041 
L 353 3500 
z
" transform="scale(0.015625)"/>
     </defs>
     <use xlink:href="#DejaVuSans-46"/>
     <use xlink:href="#DejaVuSans-72" x="50.269531"/>
     <use xlink:href="#DejaVuSans-65" x="89.132812"/>
     <use xlink:href="#DejaVuSans-71" x="150.65625"/>
     <use xlink:href="#DejaVuSans-3a" x="214.132812"/>
     <use xlink:href="#DejaVuSans-20" x="247.824219"/>
     <use xlink:href="#DejaVuSans-37" x="279.611328"/>
     <use xlink:href="#DejaVuSans-2e" x="343.234375"/>
     <use xlink:href="#DejaVuSans-35" x="375.021484"/>
     <use xlink:href="#DejaVuSans-20" x="438.644531"/>
     <use xlink:href="#DejaVuSans-47" x="470.431641"/>
     <use xlink:href="#DejaVuSans-48" x="547.921875"/>
     <use xlink:href="#DejaVuSans-7a" x="623.117188"/>
    </g>
   </g>
   <g id="text_16">
    <!-- Radiation Diagram - 3AVHF07 -->
    <g transform="translate(162.578125 16.318125)scale(0.12 -0.12)">
     <defs>
      <path id="DejaVuSans-52" d="M 2841 2188 
Q 3044 2119 3236 1894 
Q 3428 1669 3622 1275 
L 4263 0 
L 3584 0 
L 2988 1197 
Q 2756 1666 2539 1819 
Q 2322 1972 1947 1972 
L 1259 1972 
L 1259 0 
L 628 0 
L 628 4666 
L 2053 4666 
Q 2853 4666 3247 4331 
Q 3641 3997 3641 3322 
Q 3641 2881 3436 2590 
Q 3231 2300 2841 2188 
z
M 1259 4147 
L 1259 2491 
L 2053 2491 
Q 2509 2491 2742 2702 
Q 2975 2913 2975 3322 
Q 2975 3731 2742 3939 
Q 2509 4147 2053 4147 
L 1259 4147 
z
" transform="scale(0.015625)"/>
      <path id="DejaVuSans-44" d="M 1259 4147 
L 1259 519 
L 2022 519 
Q 2988 519 3436 956 
Q 3884 1394 3884 2338 
Q 3884 3275 3436 3711 
Q 2988 4147 2022 4147 
L 1259 4147 
z
M 628 4666 
L 1925 4666 
Q 3281 4666 3915 4102 
Q 4550 3538 4550 2338 
Q 4550 1131 3912 565 
Q 3275 0 1925 0 
L 628 0 
L 628 4666 
z
" transform="scale(0.015625)"/>
      <path id="DejaVuSans-67" d="M 2906 1791 
Q 2906 2416 2648 2759 
Q 2391 3103 1925 3103 
Q 1463 3103 1205 2759 
Q 947 2416 947 1791 
Q 947 1169 1205 825 
Q 1463 481 1925 481 
Q 2391 481 2648 825 
Q 2906 1169 2906 1791 
z
M 3481 434 
Q 3481 -459 3084 -895 
Q 2688 -1331 1869 -1331 
Q 1566 -1331 1297 -1286 
Q 1028 -1241 775 -1147 
L 775 -588 
Q 1028 -725 1275 -790 
Q 1522 -856 1778 -856 
Q 2344 -856 2625 -561 
Q 2906 -266 2906 331 
L 2906 616 
Q 2728 306 2450 153 
Q 2172 0 1784 0 
Q 1141 0 747 490 
Q 353 981 353 1791 
Q 353 2603 747 3093 
Q 1141 3584 1784 3584 
Q 2172 3584 2450 3431 
Q 2728 3278 2906 2969 
L 2906 3500 
L 3481 3500 
L 3481 434 
z
" transform="scale(0.015625)"/>
      <path id="DejaVuSans-6d" d="M 3328 2828 
Q 3544 3216 3844 3400 
Q 4144 3584 4550 3584 
Q 5097 3584 5394 3201 
Q 5691 2819 5691 2113 
L 5691 0 
L 5113 0 
L 5113 2094 
Q 5113 2597 4934 2840 
Q 4756 3084 4391 3084 
Q 3944 3084 3684 2787 
Q 3425 2491 3425 1978 
L 3425 0 
L 2847 0 
L 2847 2094 
Q 2847 2600 2669 2842 
Q 2491 3084 2119 3084 
Q 1678 3084 1418 2786 
Q 1159 2488 1159 1978 
L 1159 0 
L 581 0 
L 581 3500 
L 1159 3500 
L 1159 2956 
Q 1356 3278 1631 3431 
Q 1906 3584 2284 3584 
Q 2666 3584 2933 3390 
Q 3200 3197 3328 2828 
z
" transform="scale(0.015625)"/>
      <path id="DejaVuSans-2d" d="M 313 2009 
L 1997 2009 
L 1997 1497 
L 313 1497 
L 313 2009 
z
" transform="scale(0.015625)"/>
      <path id="DejaVuSans-41" d="M 2188 4044 
L 1331 1722 
L 3047 1722 
L 2188 4044 
z
M 1831 4666 
L 2547 4666 
L 4325 0 
L 3669 0 
L 3244 1197 
L 1141 1197 
L 716 0 
L 50 0 
L 1831 4666 
z
" transform="scale(0.015625)"/>
      <path id="DejaVuSans-56" d="M 1831 0 
L 50 4666 
L 709 4666 
L 2188 738 
L 3669 4666 
L 4325 4666 
L 2547 0 
L 1831 0 
z
" transform="scale(0.015625)"/>
     </defs>
     <use xlink:href="#DejaVuSans-52"/>
     <use xlink:href="#DejaVuSans-61" x="67.232422"/>
     <use xlink:href="#DejaVuSans-64" x="128.511719"/>
     <use xlink:href="#DejaVuSans-69" x="191.988281"/>
     <use xlink:href="#DejaVuSans-61" x="219.771484"/>
     <use xlink:href="#DejaVuSans-74" x="281.050781"/>
     <use xlink:href="#DejaVuSans-69" x="320.259766"/>
     <use xlink:href="#DejaVuSans-6f" x="348.042969"/>
     <use xlink:href="#DejaVuSans-6e" x="409.224609"/>
     <use xlink:href="#DejaVuSans-20" x="472.603516"/>
     <use xlink:href="#DejaVuSans-44" x="504.390625"/>
     <use xlink:href="#DejaVuSans-69" x="581.392578"/>
     <use xlink:href="#DejaVuSans-61" x="609.175781"/>
     <use xlink:href="#DejaVuSans-67" x="670.455078"/>
     <use xlink:href="#DejaVuSans-72" x="733.931641"/>
     <use xlink:href="#DejaVuSans-61" x="775.044922"/>
     <use xlink:href="#DejaVuSans-6d" x="836.324219"/>
     <use xlink:href="#DejaVuSans-20" x="933.736328"/>
     <use xlink:href="#DejaVuSans-2d" x="965.523438"/>
     <use xlink:href="#DejaVuSans-20" x="1001.607422"/>
     <use xlink:href="#DejaVuSans-33" x="1033.394531"/>
     <use xlink:href="#DejaVuSans-41" x="1097.017578"/>
     <use xlink:href="#DejaVuSans-56" x="1159.050781"/>
     <use xlink:href="#DejaVuSans-48" x="1227.458984"/>
     <use xlink:href="#DejaVuSans-46" x="1302.654297"/>
     <use xlink:href="#DejaVuSans-30" x="1360.173828"/>
     <use xlink:href="#DejaVuSans-37" x="1423.796875"/>
    </g>
   </g>
   <g id="legend_1">
    <g id="patch_6">
     <path d="M 411.802812 78.513438 
L 466.5825 78.513438 
Q 468.5825 78.513438 468.5825 76.513438 
L 468.5825 48.157188 
Q 468.5825 46.157188 466.5825 46.157188 
L 411.802812 46.157188 
Q 409.802812 46.157188 409.802812 48.157188 
L 409.802812 76.513438 
Q 409.802812 78.513438 411.802812 78.513438 
z
" style="fill: #ffffff; opacity: 0.8; stroke: #cccccc; stroke-linejoin: miter"/>
    </g>
    <g id="line2d_16">
     <path d="M 413.802812 54.255625 
L 423.802812 54.255625 
L 433.802812 54.255625 
" style="fill: none; stroke: #ff0000; stroke-width: 1.5; stroke-linecap: square"/>
    </g>
    <g id="text_17">
     <!-- INPE -->
     <g transform="translate(441.802812 57.755625)scale(0.1 -0.1)">
      <defs>
       <path id="DejaVuSans-49" d="M 628 4666 
L 1259 4666 
L 1259 0 
L 628 0 
L 628 4666 
z
" transform="scale(0.015625)"/>
       <path id="DejaVuSans-4e" d="M 628 4666 
L 1478 4666 
L 3547 763 
L 3547 4666 
L 4159 4666 
L 4159 0 
L 3309 0 
L 1241 3903 
L 1241 0 
L 628 0 
L 628 4666 
z
" transform="scale(0.015625)"/>
       <path id="DejaVuSans-45" d="M 628 4666 
L 3578 4666 
L 3578 4134 
L 1259 4134 
L 1259 2753 
L 3481 2753 
L 3481 2222 
L 1259 2222 
L 1259 531 
L 3634 531 
L 3634 0 
L 628 0 
L 628 4666 
z
" transform="scale(0.015625)"/>
      </defs>
      <use xlink:href="#DejaVuSans-49"/>
      <use xlink:href="#DejaVuSans-4e" x="29.492188"/>
      <use xlink:href="#DejaVuSans-50" x="104.296875"/>
      <use xlink:href="#DejaVuSans-45" x="164.599609"/>
     </g>
    </g>
    <g id="line2d_17">
     <path d="M 413.802812 68.93375 
L 423.802812 68.93375 
L 433.802812 68.93375 
" style="fill: none; stroke-dasharray: 5.55,2.4; stroke-dashoffset: 0; stroke: #0000ff; stroke-width: 1.5"/>
    </g>
    <g id="text_18">
     <!-- CST -->
     <g transform="translate(441.802812 72.43375)scale(0.1 -0.1)">
      <defs>
       <path id="DejaVuSans-53" d="M 3425 4513 
L 3425 3897 
Q 3066 4069 2747 4153 
Q 2428 4238 2131 4238 
Q 1616 4238 1336 4038 
Q 1056 3838 1056 3469 
Q 1056 3159 1242 3001 
Q 1428 2844 1947 2747 
L 2328 2669 
Q 3034 2534 3370 2195 
Q 3706 1856 3706 1288 
Q 3706 609 3251 259 
Q 2797 -91 1919 -91 
Q 1588 -91 1214 -16 
Q 841 59 441 206 
L 441 856 
Q 825 641 1194 531 
Q 1563 422 1919 422 
Q 2459 422 2753 634 
Q 3047 847 3047 1241 
Q 3047 1584 2836 1778 
Q 2625 1972 2144 2069 
L 1759 2144 
Q 1053 2284 737 2584 
Q 422 2884 422 3419 
Q 422 4038 858 4394 
Q 1294 4750 2059 4750 
Q 2388 4750 2728 4690 
Q 3069 4631 3425 4513 
z
" transform="scale(0.015625)"/>
       <path id="DejaVuSans-54" d="M -19 4666 
L 3928 4666 
L 3928 4134 
L 2272 4134 
L 2272 0 
L 1638 0 
L 1638 4134 
L -19 4134 
L -19 4666 
z
" transform="scale(0.015625)"/>
      </defs>
      <use xlink:href="#DejaVuSans-43"/>
      <use xlink:href="#DejaVuSans-53" x="69.824219"/>
      <use xlink:href="#DejaVuSans-54" x="133.300781"/>
     </g>
    </g>
   </g>
  </g>
 </g>
 <defs>
  <clipPath id="p45dcbf2c34">
   <path d="M 473.5825 262.917188 
C 473.5825 233.795931 467.846247 204.957842 456.702025 178.05331 
C 445.557803 151.148777 429.222338 126.701026 408.6305 106.109188 
C 388.038662 85.51735 363.590911 69.181885 336.686378 58.037662 
C 309.781845 46.89344 280.943756 41.157188 251.8225 41.157188 
C 222.701244 41.157188 193.863155 46.89344 166.958622 58.037662 
C 140.054089 69.181885 115.606338 85.51735 95.0145 106.109188 
C 74.422662 126.701026 58.087197 151.148777 46.942975 178.05331 
C 35.798753 204.957842 30.0625 233.795931 30.0625 262.917188 
C 30.0625 292.038444 35.798753 320.876533 46.942975 347.781065 
C 58.087197 374.685598 74.422662 399.133349 95.0145 419.725187 
C 115.606338 440.317025 140.054089 456.65249 166.958622 467.796713 
C 193.863155 478.940935 222.701244 484.677188 251.8225 484.677188 
C 280.943756 484.677188 309.781845 478.940935 336.686378 467.796713 
C 363.590911 456.65249 388.038662 440.317025 408.6305 419.725187 
C 429.222338 399.133349 445.557803 374.685598 456.702025 347.781065 
C 467.846247 320.876533 473.5825 292.038444 473.5825 262.917188 
M 251.8225 262.917188 
C 251.8225 262.917188 251.8225 262.917188 251.8225 262.917188 
C 251.8225 262.917188 251.8225 262.917188 251.8225 262.917188 
C 251.8225 262.917188 251.8225 262.917188 251.8225 262.917188 
C 251.8225 262.917188 251.8225 262.917188 251.8225 262.917188 
C 251.8225 262.917188 251.8225 262.917188 251.8225 262.917188 
C 251.8225 262.917188 251.8225 262.917188 251.8225 262.917188 
C 251.8225 262.917188 251.8225 262.917188 251.8225 262.917188 
C 251.8225 262.917188 251.8225 262.917188 251.8225 262.917188 
C 251.8225 262.917188 251.8225 262.917188 251.8225 262.917188 
C 251.8225 262.917188 251.8225 262.917188 251.8225 262.917188 
C 251.8225 262.917188 251.8225 262.917188 251.8225 262.917188 
C 251.8225 262.917188 251.8225 262.917188 251.8225 262.917188 
C 251.8225 262.917188 251.8225 262.917188 251.8225 262.917188 
C 251.8225 262.917188 251.8225 262.917188 251.8225 262.917188 
C 251.8225 262.917188 251.8225 262.917188 251.8225 262.917188 
C 251.8225 262.917188 251.8225 262.917188 251.8225 262.917188 
M 473.5825 262.917188 
z
"/>
  </clipPath>
 </defs>
</svg>
