<?xml version="1.0" encoding="utf-8" standalone="no"?>
<!DOCTYPE svg PUBLIC "-//W3C//DTD SVG 1.1//EN"
  "http://www.w3.org/Graphics/SVG/1.1/DTD/svg11.dtd">
<svg xmlns:xlink="http://www.w3.org/1999/xlink" width="392.765pt" height="399.83625pt" viewBox="0 0 392.765 399.83625" xmlns="http://www.w3.org/2000/svg" version="1.1">
 <metadata>
  <rdf:RDF xmlns:dc="http://purl.org/dc/elements/1.1/" xmlns:cc="http://creativecommons.org/ns#" xmlns:rdf="http://www.w3.org/1999/02/22-rdf-syntax-ns#">
   <cc:Work>
    <dc:type rdf:resource="http://purl.org/dc/dcmitype/StillImage"/>
    <dc:date>2023-11-03T15:36:05.820935</dc:date>
    <dc:format>image/svg+xml</dc:format>
    <dc:creator>
     <cc:Agent>
      <dc:title>Matplotlib v3.5.1, https://matplotlib.org/</dc:title>
     </cc:Agent>
    </dc:creator>
   </cc:Work>
  </rdf:RDF>
 </metadata>
 <defs>
  <style type="text/css">*{stroke-linejoin: round; stroke-linecap: butt}</style>
 </defs>
 <g id="figure_1">
  <g id="patch_1">
   <path d="M 0 399.83625 
L 392.765 399.83625 
L 392.765 0 
L 0 0 
z
" style="fill: #ffffff"/>
  </g>
  <g id="axes_1">
   <g id="patch_2">
    <path d="M 365.88375 207.477187 
C 365.88375 185.636245 361.581561 164.007679 353.223394 143.829279 
C 344.865227 123.650879 332.613628 105.315066 317.16975 89.871188 
C 301.725871 74.427309 283.390058 62.17571 263.211658 53.817544 
C 243.033259 45.459377 221.404692 41.157187 199.56375 41.157187 
C 177.722808 41.157187 156.094241 45.459377 135.915842 53.817544 
C 115.737442 62.17571 97.401629 74.427309 81.95775 89.871188 
C 66.513872 105.315066 54.262273 123.650879 45.904106 143.829279 
C 37.545939 164.007679 33.24375 185.636245 33.24375 207.477187 
C 33.24375 229.31813 37.545939 250.946696 45.904106 271.125096 
C 54.262273 291.303496 66.513872 309.639309 81.95775 325.083187 
C 97.401629 340.527066 115.737442 352.778665 135.915842 361.136831 
C 156.094241 369.494998 177.722808 373.797188 199.56375 373.797188 
C 221.404692 373.797188 243.033259 369.494998 263.211658 361.136831 
C 283.390058 352.778665 301.725871 340.527066 317.16975 325.083187 
C 332.613628 309.639309 344.865227 291.303496 353.223394 271.125096 
C 361.581561 250.946696 365.88375 229.31813 365.88375 207.477188 
M 199.56375 207.477187 
C 199.56375 207.477187 199.56375 207.477187 199.56375 207.477187 
C 199.56375 207.477187 199.56375 207.477187 199.56375 207.477187 
C 199.56375 207.477187 199.56375 207.477187 199.56375 207.477187 
C 199.56375 207.477187 199.56375 207.477187 199.56375 207.477187 
C 199.56375 207.477187 199.56375 207.477187 199.56375 207.477187 
C 199.56375 207.477187 199.56375 207.477187 199.56375 207.477187 
C 199.56375 207.477187 199.56375 207.477187 199.56375 207.477187 
C 199.56375 207.477187 199.56375 207.477187 199.56375 207.477187 
C 199.56375 207.477187 199.56375 207.477187 199.56375 207.477187 
C 199.56375 207.477187 199.56375 207.477187 199.56375 207.477187 
C 199.56375 207.477187 199.56375 207.477187 199.56375 207.477187 
C 199.56375 207.477187 199.56375 207.477187 199.56375 207.477187 
C 199.56375 207.477187 199.56375 207.477187 199.56375 207.477187 
C 199.56375 207.477187 199.56375 207.477187 199.56375 207.477187 
C 199.56375 207.477187 199.56375 207.477187 199.56375 207.477187 
C 199.56375 207.477187 199.56375 207.477187 199.56375 207.477187 
M 365.88375 207.477187 
z
" style="fill: #ffffff"/>
   </g>
   <g id="matplotlib.axis_1">
    <g id="xtick_1">
     <g id="line2d_1">
      <path d="M 199.56375 207.477187 
L 365.88375 207.477187 
" clip-path="url(#p777308b00c)" style="fill: none; stroke: #b0b0b0; stroke-width: 0.8; stroke-linecap: square"/>
     </g>
     <g id="text_1">
      <!-- 0° -->
      <g transform="translate(374.2025 210.236562)scale(0.1 -0.1)">
       <defs>
        <path id="DejaVuSans-30" d="M 2034 4250 
Q 1547 4250 1301 3770 
Q 1056 3291 1056 2328 
Q 1056 1369 1301 889 
Q 1547 409 2034 409 
Q 2525 409 2770 889 
Q 3016 1369 3016 2328 
Q 3016 3291 2770 3770 
Q 2525 4250 2034 4250 
z
M 2034 4750 
Q 2819 4750 3233 4129 
Q 3647 3509 3647 2328 
Q 3647 1150 3233 529 
Q 2819 -91 2034 -91 
Q 1250 -91 836 529 
Q 422 1150 422 2328 
Q 422 3509 836 4129 
Q 1250 4750 2034 4750 
z
" transform="scale(0.015625)"/>
        <path id="DejaVuSans-b0" d="M 1600 4347 
Q 1350 4347 1178 4173 
Q 1006 4000 1006 3750 
Q 1006 3503 1178 3333 
Q 1350 3163 1600 3163 
Q 1850 3163 2022 3333 
Q 2194 3503 2194 3750 
Q 2194 3997 2020 4172 
Q 1847 4347 1600 4347 
z
M 1600 4750 
Q 1800 4750 1984 4673 
Q 2169 4597 2303 4453 
Q 2447 4313 2519 4134 
Q 2591 3956 2591 3750 
Q 2591 3338 2302 3052 
Q 2013 2766 1594 2766 
Q 1172 2766 890 3047 
Q 609 3328 609 3750 
Q 609 4169 896 4459 
Q 1184 4750 1600 4750 
z
" transform="scale(0.015625)"/>
       </defs>
       <use xlink:href="#DejaVuSans-30"/>
       <use xlink:href="#DejaVuSans-b0" x="63.623047"/>
      </g>
     </g>
    </g>
    <g id="xtick_2">
     <g id="line2d_2">
      <path d="M 199.56375 207.477187 
L 317.16975 89.871188 
" clip-path="url(#p777308b00c)" style="fill: none; stroke: #b0b0b0; stroke-width: 0.8; stroke-linecap: square"/>
     </g>
     <g id="text_2">
      <!-- 45° -->
      <g transform="translate(318.206745 82.731068)scale(0.1 -0.1)">
       <defs>
        <path id="DejaVuSans-34" d="M 2419 4116 
L 825 1625 
L 2419 1625 
L 2419 4116 
z
M 2253 4666 
L 3047 4666 
L 3047 1625 
L 3713 1625 
L 3713 1100 
L 3047 1100 
L 3047 0 
L 2419 0 
L 2419 1100 
L 313 1100 
L 313 1709 
L 2253 4666 
z
" transform="scale(0.015625)"/>
        <path id="DejaVuSans-35" d="M 691 4666 
L 3169 4666 
L 3169 4134 
L 1269 4134 
L 1269 2991 
Q 1406 3038 1543 3061 
Q 1681 3084 1819 3084 
Q 2600 3084 3056 2656 
Q 3513 2228 3513 1497 
Q 3513 744 3044 326 
Q 2575 -91 1722 -91 
Q 1428 -91 1123 -41 
Q 819 9 494 109 
L 494 744 
Q 775 591 1075 516 
Q 1375 441 1709 441 
Q 2250 441 2565 725 
Q 2881 1009 2881 1497 
Q 2881 1984 2565 2268 
Q 2250 2553 1709 2553 
Q 1456 2553 1204 2497 
Q 953 2441 691 2322 
L 691 4666 
z
" transform="scale(0.015625)"/>
       </defs>
       <use xlink:href="#DejaVuSans-34"/>
       <use xlink:href="#DejaVuSans-35" x="63.623047"/>
       <use xlink:href="#DejaVuSans-b0" x="127.246094"/>
      </g>
     </g>
    </g>
    <g id="xtick_3">
     <g id="line2d_3">
      <path d="M 199.56375 207.477187 
L 199.56375 41.157187 
" clip-path="url(#p777308b00c)" style="fill: none; stroke: #b0b0b0; stroke-width: 0.8; stroke-linecap: square"/>
     </g>
     <g id="text_3">
      <!-- 90° -->
      <g transform="translate(190.70125 29.916562)scale(0.1 -0.1)">
       <defs>
        <path id="DejaVuSans-39" d="M 703 97 
L 703 672 
Q 941 559 1184 500 
Q 1428 441 1663 441 
Q 2288 441 2617 861 
Q 2947 1281 2994 2138 
Q 2813 1869 2534 1725 
Q 2256 1581 1919 1581 
Q 1219 1581 811 2004 
Q 403 2428 403 3163 
Q 403 3881 828 4315 
Q 1253 4750 1959 4750 
Q 2769 4750 3195 4129 
Q 3622 3509 3622 2328 
Q 3622 1225 3098 567 
Q 2575 -91 1691 -91 
Q 1453 -91 1209 -44 
Q 966 3 703 97 
z
M 1959 2075 
Q 2384 2075 2632 2365 
Q 2881 2656 2881 3163 
Q 2881 3666 2632 3958 
Q 2384 4250 1959 4250 
Q 1534 4250 1286 3958 
Q 1038 3666 1038 3163 
Q 1038 2656 1286 2365 
Q 1534 2075 1959 2075 
z
" transform="scale(0.015625)"/>
       </defs>
       <use xlink:href="#DejaVuSans-39"/>
       <use xlink:href="#DejaVuSans-30" x="63.623047"/>
       <use xlink:href="#DejaVuSans-b0" x="127.246094"/>
      </g>
     </g>
    </g>
    <g id="xtick_4">
     <g id="line2d_4">
      <path d="M 199.56375 207.477187 
L 81.95775 89.871188 
" clip-path="url(#p777308b00c)" style="fill: none; stroke: #b0b0b0; stroke-width: 0.8; stroke-linecap: square"/>
     </g>
     <g id="text_4">
      <!-- 135° -->
      <g transform="translate(60.014505 82.731068)scale(0.1 -0.1)">
       <defs>
        <path id="DejaVuSans-31" d="M 794 531 
L 1825 531 
L 1825 4091 
L 703 3866 
L 703 4441 
L 1819 4666 
L 2450 4666 
L 2450 531 
L 3481 531 
L 3481 0 
L 794 0 
L 794 531 
z
" transform="scale(0.015625)"/>
        <path id="DejaVuSans-33" d="M 2597 2516 
Q 3050 2419 3304 2112 
Q 3559 1806 3559 1356 
Q 3559 666 3084 287 
Q 2609 -91 1734 -91 
Q 1441 -91 1130 -33 
Q 819 25 488 141 
L 488 750 
Q 750 597 1062 519 
Q 1375 441 1716 441 
Q 2309 441 2620 675 
Q 2931 909 2931 1356 
Q 2931 1769 2642 2001 
Q 2353 2234 1838 2234 
L 1294 2234 
L 1294 2753 
L 1863 2753 
Q 2328 2753 2575 2939 
Q 2822 3125 2822 3475 
Q 2822 3834 2567 4026 
Q 2313 4219 1838 4219 
Q 1578 4219 1281 4162 
Q 984 4106 628 3988 
L 628 4550 
Q 988 4650 1302 4700 
Q 1616 4750 1894 4750 
Q 2613 4750 3031 4423 
Q 3450 4097 3450 3541 
Q 3450 3153 3228 2886 
Q 3006 2619 2597 2516 
z
" transform="scale(0.015625)"/>
       </defs>
       <use xlink:href="#DejaVuSans-31"/>
       <use xlink:href="#DejaVuSans-33" x="63.623047"/>
       <use xlink:href="#DejaVuSans-35" x="127.246094"/>
       <use xlink:href="#DejaVuSans-b0" x="190.869141"/>
      </g>
     </g>
    </g>
    <g id="xtick_5">
     <g id="line2d_5">
      <path d="M 199.56375 207.477187 
L 33.24375 207.477187 
" clip-path="url(#p777308b00c)" style="fill: none; stroke: #b0b0b0; stroke-width: 0.8; stroke-linecap: square"/>
     </g>
     <g id="text_5">
      <!-- 180° -->
      <g transform="translate(7.2 210.236562)scale(0.1 -0.1)">
       <defs>
        <path id="DejaVuSans-38" d="M 2034 2216 
Q 1584 2216 1326 1975 
Q 1069 1734 1069 1313 
Q 1069 891 1326 650 
Q 1584 409 2034 409 
Q 2484 409 2743 651 
Q 3003 894 3003 1313 
Q 3003 1734 2745 1975 
Q 2488 2216 2034 2216 
z
M 1403 2484 
Q 997 2584 770 2862 
Q 544 3141 544 3541 
Q 544 4100 942 4425 
Q 1341 4750 2034 4750 
Q 2731 4750 3128 4425 
Q 3525 4100 3525 3541 
Q 3525 3141 3298 2862 
Q 3072 2584 2669 2484 
Q 3125 2378 3379 2068 
Q 3634 1759 3634 1313 
Q 3634 634 3220 271 
Q 2806 -91 2034 -91 
Q 1263 -91 848 271 
Q 434 634 434 1313 
Q 434 1759 690 2068 
Q 947 2378 1403 2484 
z
M 1172 3481 
Q 1172 3119 1398 2916 
Q 1625 2713 2034 2713 
Q 2441 2713 2670 2916 
Q 2900 3119 2900 3481 
Q 2900 3844 2670 4047 
Q 2441 4250 2034 4250 
Q 1625 4250 1398 4047 
Q 1172 3844 1172 3481 
z
" transform="scale(0.015625)"/>
       </defs>
       <use xlink:href="#DejaVuSans-31"/>
       <use xlink:href="#DejaVuSans-38" x="63.623047"/>
       <use xlink:href="#DejaVuSans-30" x="127.246094"/>
       <use xlink:href="#DejaVuSans-b0" x="190.869141"/>
      </g>
     </g>
    </g>
    <g id="xtick_6">
     <g id="line2d_6">
      <path d="M 199.56375 207.477187 
L 81.95775 325.083187 
" clip-path="url(#p777308b00c)" style="fill: none; stroke: #b0b0b0; stroke-width: 0.8; stroke-linecap: square"/>
     </g>
     <g id="text_6">
      <!-- 225° -->
      <g transform="translate(60.014505 337.742057)scale(0.1 -0.1)">
       <defs>
        <path id="DejaVuSans-32" d="M 1228 531 
L 3431 531 
L 3431 0 
L 469 0 
L 469 531 
Q 828 903 1448 1529 
Q 2069 2156 2228 2338 
Q 2531 2678 2651 2914 
Q 2772 3150 2772 3378 
Q 2772 3750 2511 3984 
Q 2250 4219 1831 4219 
Q 1534 4219 1204 4116 
Q 875 4013 500 3803 
L 500 4441 
Q 881 4594 1212 4672 
Q 1544 4750 1819 4750 
Q 2544 4750 2975 4387 
Q 3406 4025 3406 3419 
Q 3406 3131 3298 2873 
Q 3191 2616 2906 2266 
Q 2828 2175 2409 1742 
Q 1991 1309 1228 531 
z
" transform="scale(0.015625)"/>
       </defs>
       <use xlink:href="#DejaVuSans-32"/>
       <use xlink:href="#DejaVuSans-32" x="63.623047"/>
       <use xlink:href="#DejaVuSans-35" x="127.246094"/>
       <use xlink:href="#DejaVuSans-b0" x="190.869141"/>
      </g>
     </g>
    </g>
    <g id="xtick_7">
     <g id="line2d_7">
      <path d="M 199.56375 207.477187 
L 199.56375 373.797188 
" clip-path="url(#p777308b00c)" style="fill: none; stroke: #b0b0b0; stroke-width: 0.8; stroke-linecap: square"/>
     </g>
     <g id="text_7">
      <!-- 270° -->
      <g transform="translate(187.52 390.556562)scale(0.1 -0.1)">
       <defs>
        <path id="DejaVuSans-37" d="M 525 4666 
L 3525 4666 
L 3525 4397 
L 1831 0 
L 1172 0 
L 2766 4134 
L 525 4134 
L 525 4666 
z
" transform="scale(0.015625)"/>
       </defs>
       <use xlink:href="#DejaVuSans-32"/>
       <use xlink:href="#DejaVuSans-37" x="63.623047"/>
       <use xlink:href="#DejaVuSans-30" x="127.246094"/>
       <use xlink:href="#DejaVuSans-b0" x="190.869141"/>
      </g>
     </g>
    </g>
    <g id="xtick_8">
     <g id="line2d_8">
      <path d="M 199.56375 207.477187 
L 317.16975 325.083187 
" clip-path="url(#p777308b00c)" style="fill: none; stroke: #b0b0b0; stroke-width: 0.8; stroke-linecap: square"/>
     </g>
     <g id="text_8">
      <!-- 315° -->
      <g transform="translate(315.025495 337.742057)scale(0.1 -0.1)">
       <use xlink:href="#DejaVuSans-33"/>
       <use xlink:href="#DejaVuSans-31" x="63.623047"/>
       <use xlink:href="#DejaVuSans-35" x="127.246094"/>
       <use xlink:href="#DejaVuSans-b0" x="190.869141"/>
      </g>
     </g>
    </g>
   </g>
   <g id="matplotlib.axis_2">
    <g id="ytick_1">
     <g id="line2d_9">
      <path d="M 275.963792 207.477187 
C 275.963792 197.444426 273.987557 187.50922 270.148185 178.240157 
C 266.308814 168.971094 260.680972 160.548433 253.586738 153.454199 
C 246.492504 146.359966 238.069844 140.732124 228.80078 136.892752 
C 219.531717 133.05338 209.596512 131.077145 199.56375 131.077145 
C 189.530988 131.077145 179.595783 133.05338 170.32672 136.892752 
C 161.057656 140.732124 152.634996 146.359966 145.540762 153.454199 
C 138.446528 160.548433 132.818686 168.971094 128.979315 178.240157 
C 125.139943 187.50922 123.163708 197.444426 123.163708 207.477187 
C 123.163708 217.509949 125.139943 227.445155 128.979315 236.714218 
C 132.818686 245.983281 138.446528 254.405942 145.540762 261.500176 
C 152.634996 268.594409 161.057656 274.222251 170.32672 278.061623 
C 179.595783 281.900995 189.530988 283.87723 199.56375 283.87723 
C 209.596512 283.87723 219.531717 281.900995 228.80078 278.061623 
C 238.069844 274.222251 246.492504 268.594409 253.586738 261.500176 
C 260.680972 254.405942 266.308814 245.983281 270.148185 236.714218 
C 273.987557 227.445155 275.963792 217.509949 275.963792 207.477188 
" clip-path="url(#p777308b00c)" style="fill: none; stroke: #b0b0b0; stroke-width: 0.8; stroke-linecap: square"/>
     </g>
     <g id="text_9">
      <!-- −30 -->
      <g transform="translate(270.148185 176.16047)scale(0.1 -0.1)">
       <defs>
        <path id="DejaVuSans-2212" d="M 678 2272 
L 4684 2272 
L 4684 1741 
L 678 1741 
L 678 2272 
z
" transform="scale(0.015625)"/>
       </defs>
       <use xlink:href="#DejaVuSans-2212"/>
       <use xlink:href="#DejaVuSans-33" x="83.789062"/>
       <use xlink:href="#DejaVuSans-30" x="147.412109"/>
      </g>
     </g>
    </g>
    <g id="ytick_2">
     <g id="line2d_10">
      <path d="M 284.955788 207.477187 
C 284.955788 196.263608 282.746957 185.159066 278.455706 174.799069 
C 274.164455 164.439072 267.874237 155.025097 259.945039 147.095898 
C 252.015841 139.1667 242.601865 132.876482 232.241868 128.585231 
C 221.881871 124.29398 210.77733 122.085149 199.56375 122.085149 
C 188.35017 122.085149 177.245629 124.29398 166.885632 128.585231 
C 156.525635 132.876482 147.111659 139.1667 139.182461 147.095898 
C 131.253263 155.025097 124.963045 164.439072 120.671794 174.799069 
C 116.380543 185.159066 114.171712 196.263608 114.171712 207.477187 
C 114.171712 218.690767 116.380543 229.795309 120.671794 240.155306 
C 124.963045 250.515303 131.253263 259.929278 139.182461 267.858477 
C 147.111659 275.787675 156.525635 282.077893 166.885632 286.369144 
C 177.245629 290.660395 188.35017 292.869226 199.56375 292.869226 
C 210.77733 292.869226 221.881871 290.660395 232.241868 286.369144 
C 242.601865 282.077893 252.015841 275.787675 259.945039 267.858477 
C 267.874237 259.929278 274.164455 250.515303 278.455706 240.155306 
C 282.746957 229.795309 284.955788 218.690767 284.955788 207.477188 
" clip-path="url(#p777308b00c)" style="fill: none; stroke: #b0b0b0; stroke-width: 0.8; stroke-linecap: square"/>
     </g>
     <g id="text_10">
      <!-- −27 -->
      <g transform="translate(278.455706 172.719382)scale(0.1 -0.1)">
       <use xlink:href="#DejaVuSans-2212"/>
       <use xlink:href="#DejaVuSans-32" x="83.789062"/>
       <use xlink:href="#DejaVuSans-37" x="147.412109"/>
      </g>
     </g>
    </g>
    <g id="ytick_3">
     <g id="line2d_11">
      <path d="M 293.947784 207.477187 
C 293.947784 195.08279 291.506358 182.808912 286.763227 171.357981 
C 282.020096 159.907051 275.067503 149.50176 266.30334 140.737597 
C 257.539178 131.973434 247.133886 125.020841 235.682956 120.27771 
C 224.232026 115.53458 211.958148 113.093154 199.56375 113.093154 
C 187.169352 113.093154 174.895474 115.53458 163.444544 120.27771 
C 151.993614 125.020841 141.588322 131.973434 132.82416 140.737597 
C 124.059997 149.50176 117.107404 159.907051 112.364273 171.357981 
C 107.621142 182.808912 105.179716 195.08279 105.179716 207.477187 
C 105.179716 219.871585 107.621142 232.145463 112.364273 243.596394 
C 117.107404 255.047324 124.059997 265.452615 132.82416 274.216778 
C 141.588322 282.980941 151.993614 289.933534 163.444544 294.676665 
C 174.895474 299.419795 187.169352 301.861221 199.56375 301.861221 
C 211.958148 301.861221 224.232026 299.419795 235.682956 294.676665 
C 247.133886 289.933534 257.539178 282.980941 266.30334 274.216778 
C 275.067503 265.452615 282.020096 255.047324 286.763227 243.596394 
C 291.506358 232.145463 293.947784 219.871585 293.947784 207.477188 
" clip-path="url(#p777308b00c)" style="fill: none; stroke: #b0b0b0; stroke-width: 0.8; stroke-linecap: square"/>
     </g>
     <g id="text_11">
      <!-- −24 -->
      <g transform="translate(286.763227 169.278294)scale(0.1 -0.1)">
       <use xlink:href="#DejaVuSans-2212"/>
       <use xlink:href="#DejaVuSans-32" x="83.789062"/>
       <use xlink:href="#DejaVuSans-34" x="147.412109"/>
      </g>
     </g>
    </g>
    <g id="ytick_4">
     <g id="line2d_12">
      <path d="M 302.93978 207.477187 
C 302.93978 193.901972 300.265758 180.458758 295.070748 167.916894 
C 289.875738 155.37503 282.260769 143.978423 272.661642 134.379296 
C 263.062514 124.780169 251.665908 117.1652 239.124044 111.97019 
C 226.58218 106.775179 213.138966 104.101158 199.56375 104.101158 
C 185.988534 104.101158 172.54532 106.775179 160.003456 111.97019 
C 147.461592 117.1652 136.064986 124.780169 126.465858 134.379296 
C 116.866731 143.978423 109.251762 155.37503 104.056752 167.916894 
C 98.861742 180.458758 96.18772 193.901972 96.18772 207.477187 
C 96.18772 221.052403 98.861742 234.495617 104.056752 247.037481 
C 109.251762 259.579345 116.866731 270.975952 126.465858 280.575079 
C 136.064986 290.174206 147.461592 297.789175 160.003456 302.984185 
C 172.54532 308.179196 185.988534 310.853217 199.56375 310.853217 
C 213.138966 310.853217 226.58218 308.179196 239.124044 302.984185 
C 251.665908 297.789175 263.062514 290.174206 272.661642 280.575079 
C 282.260769 270.975952 289.875738 259.579345 295.070748 247.037481 
C 300.265758 234.495617 302.93978 221.052403 302.93978 207.477188 
" clip-path="url(#p777308b00c)" style="fill: none; stroke: #b0b0b0; stroke-width: 0.8; stroke-linecap: square"/>
     </g>
     <g id="text_12">
      <!-- −21 -->
      <g transform="translate(295.070748 165.837206)scale(0.1 -0.1)">
       <use xlink:href="#DejaVuSans-2212"/>
       <use xlink:href="#DejaVuSans-32" x="83.789062"/>
       <use xlink:href="#DejaVuSans-31" x="147.412109"/>
      </g>
     </g>
    </g>
    <g id="ytick_5">
     <g id="line2d_13">
      <path d="M 311.931775 207.477187 
C 311.931775 192.721154 309.025159 178.108604 303.378269 164.475806 
C 297.731379 150.843008 289.454034 138.455086 279.019943 128.020995 
C 268.585851 117.586903 256.197929 109.309558 242.565132 103.662669 
C 228.932334 98.015779 214.319784 95.109162 199.56375 95.109162 
C 184.807716 95.109162 170.195166 98.015779 156.562368 103.662669 
C 142.929571 109.309558 130.541649 117.586903 120.107557 128.020995 
C 109.673466 138.455086 101.396121 150.843008 95.749231 164.475806 
C 90.102341 178.108604 87.195725 192.721154 87.195725 207.477187 
C 87.195725 222.233221 90.102341 236.845771 95.749231 250.478569 
C 101.396121 264.111367 109.673466 276.499289 120.107557 286.93338 
C 130.541649 297.367472 142.929571 305.644817 156.562368 311.291706 
C 170.195166 316.938596 184.807716 319.845213 199.56375 319.845213 
C 214.319784 319.845213 228.932334 316.938596 242.565132 311.291706 
C 256.197929 305.644817 268.585851 297.367472 279.019943 286.93338 
C 289.454034 276.499289 297.731379 264.111367 303.378269 250.478569 
C 309.025159 236.845771 311.931775 222.233221 311.931775 207.477188 
" clip-path="url(#p777308b00c)" style="fill: none; stroke: #b0b0b0; stroke-width: 0.8; stroke-linecap: square"/>
     </g>
     <g id="text_13">
      <!-- −18 -->
      <g transform="translate(303.378269 162.396118)scale(0.1 -0.1)">
       <use xlink:href="#DejaVuSans-2212"/>
       <use xlink:href="#DejaVuSans-31" x="83.789062"/>
       <use xlink:href="#DejaVuSans-38" x="147.412109"/>
      </g>
     </g>
    </g>
    <g id="ytick_6">
     <g id="line2d_14">
      <path d="M 320.923771 207.477187 
C 320.923771 191.540336 317.784559 175.758449 311.68579 161.034718 
C 305.58702 146.310987 296.6473 132.93175 285.378244 121.662694 
C 274.109188 110.393637 260.729951 101.453917 246.006219 95.355148 
C 231.282488 89.256379 215.500602 86.117166 199.56375 86.117166 
C 183.626898 86.117166 167.845012 89.256379 153.121281 95.355148 
C 138.397549 101.453917 125.018312 110.393637 113.749256 121.662694 
C 102.4802 132.93175 93.54048 146.310987 87.44171 161.034718 
C 81.342941 175.758449 78.203729 191.540336 78.203729 207.477187 
C 78.203729 223.414039 81.342941 239.195926 87.44171 253.919657 
C 93.54048 268.643388 102.4802 282.022625 113.749256 293.291681 
C 125.018312 304.560738 138.397549 313.500458 153.121281 319.599227 
C 167.845012 325.697996 183.626898 328.837209 199.56375 328.837209 
C 215.500602 328.837209 231.282488 325.697996 246.006219 319.599227 
C 260.729951 313.500458 274.109188 304.560738 285.378244 293.291681 
C 296.6473 282.022625 305.58702 268.643388 311.68579 253.919657 
C 317.784559 239.195926 320.923771 223.414039 320.923771 207.477188 
" clip-path="url(#p777308b00c)" style="fill: none; stroke: #b0b0b0; stroke-width: 0.8; stroke-linecap: square"/>
     </g>
     <g id="text_14">
      <!-- −15 -->
      <g transform="translate(311.68579 158.955031)scale(0.1 -0.1)">
       <use xlink:href="#DejaVuSans-2212"/>
       <use xlink:href="#DejaVuSans-31" x="83.789062"/>
       <use xlink:href="#DejaVuSans-35" x="147.412109"/>
      </g>
     </g>
    </g>
    <g id="ytick_7">
     <g id="line2d_15">
      <path d="M 329.915767 207.477187 
C 329.915767 190.359517 326.543959 173.408295 319.99331 157.59363 
C 313.442662 141.778965 303.840566 127.408413 291.736545 115.304392 
C 279.632525 103.200372 265.261972 93.598276 249.447307 87.047627 
C 233.632642 80.496978 216.68142 77.125171 199.56375 77.125171 
C 182.44608 77.125171 165.494858 80.496978 149.680193 87.047627 
C 133.865528 93.598276 119.494975 103.200372 107.390955 115.304392 
C 95.286934 127.408413 85.684838 141.778965 79.13419 157.59363 
C 72.583541 173.408295 69.211733 190.359517 69.211733 207.477187 
C 69.211733 224.594858 72.583541 241.54608 79.13419 257.360745 
C 85.684838 273.17541 95.286934 287.545962 107.390955 299.649983 
C 119.494975 311.754003 133.865528 321.356099 149.680193 327.906748 
C 165.494858 334.457397 182.44608 337.829204 199.56375 337.829204 
C 216.68142 337.829204 233.632642 334.457397 249.447307 327.906748 
C 265.261972 321.356099 279.632525 311.754003 291.736545 299.649983 
C 303.840566 287.545962 313.442662 273.17541 319.99331 257.360745 
C 326.543959 241.54608 329.915767 224.594858 329.915767 207.477188 
" clip-path="url(#p777308b00c)" style="fill: none; stroke: #b0b0b0; stroke-width: 0.8; stroke-linecap: square"/>
     </g>
     <g id="text_15">
      <!-- −12 -->
      <g transform="translate(319.99331 155.513943)scale(0.1 -0.1)">
       <use xlink:href="#DejaVuSans-2212"/>
       <use xlink:href="#DejaVuSans-31" x="83.789062"/>
       <use xlink:href="#DejaVuSans-32" x="147.412109"/>
      </g>
     </g>
    </g>
    <g id="ytick_8">
     <g id="line2d_16">
      <path d="M 338.907763 207.477187 
C 338.907763 189.178699 335.30336 171.058141 328.300831 154.152542 
C 321.298303 137.246944 311.033831 121.885076 298.094846 108.946091 
C 285.155861 96.007106 269.793994 85.742634 252.888395 78.740106 
C 235.982796 71.737578 217.862238 68.133175 199.56375 68.133175 
C 181.265262 68.133175 163.144704 71.737578 146.239105 78.740106 
C 129.333506 85.742634 113.971639 96.007106 101.032654 108.946091 
C 88.093669 121.885076 77.829197 137.246944 70.826669 154.152542 
C 63.82414 171.058141 60.219737 189.178699 60.219737 207.477187 
C 60.219737 225.775676 63.82414 243.896234 70.826669 260.801833 
C 77.829197 277.707431 88.093669 293.069299 101.032654 306.008284 
C 113.971639 318.947269 129.333506 329.211741 146.239105 336.214269 
C 163.144704 343.216797 181.265262 346.8212 199.56375 346.8212 
C 217.862238 346.8212 235.982796 343.216797 252.888395 336.214269 
C 269.793994 329.211741 285.155861 318.947269 298.094846 306.008284 
C 311.033831 293.069299 321.298303 277.707431 328.300831 260.801833 
C 335.30336 243.896234 338.907763 225.775676 338.907763 207.477188 
" clip-path="url(#p777308b00c)" style="fill: none; stroke: #b0b0b0; stroke-width: 0.8; stroke-linecap: square"/>
     </g>
     <g id="text_16">
      <!-- −9 -->
      <g transform="translate(328.300831 152.072855)scale(0.1 -0.1)">
       <use xlink:href="#DejaVuSans-2212"/>
       <use xlink:href="#DejaVuSans-39" x="83.789062"/>
      </g>
     </g>
    </g>
    <g id="ytick_9">
     <g id="line2d_17">
      <path d="M 347.899758 207.477187 
C 347.899758 187.997881 344.06276 168.707987 336.608352 150.711455 
C 329.153944 132.714922 318.227097 116.361739 304.453147 102.58779 
C 290.679198 88.813841 274.326015 77.886993 256.329483 70.432585 
C 238.332951 62.978178 219.043056 59.141179 199.56375 59.141179 
C 180.084444 59.141179 160.794549 62.978178 142.798017 70.432585 
C 124.801485 77.886993 108.448302 88.813841 94.674353 102.58779 
C 80.900403 116.361739 69.973556 132.714922 62.519148 150.711455 
C 55.06474 168.707987 51.227742 187.997881 51.227742 207.477187 
C 51.227742 226.956494 55.06474 246.246388 62.519148 264.24292 
C 69.973556 282.239453 80.900403 298.592636 94.674353 312.366585 
C 108.448302 326.140534 124.801485 337.067382 142.798017 344.52179 
C 160.794549 351.976197 180.084444 355.813196 199.56375 355.813196 
C 219.043056 355.813196 238.332951 351.976197 256.329483 344.52179 
C 274.326015 337.067382 290.679198 326.140534 304.453147 312.366585 
C 318.227097 298.592636 329.153944 282.239453 336.608352 264.24292 
C 344.06276 246.246388 347.899758 226.956494 347.899758 207.477188 
" clip-path="url(#p777308b00c)" style="fill: none; stroke: #b0b0b0; stroke-width: 0.8; stroke-linecap: square"/>
     </g>
     <g id="text_17">
      <!-- −6 -->
      <g transform="translate(336.608352 148.631767)scale(0.1 -0.1)">
       <defs>
        <path id="DejaVuSans-36" d="M 2113 2584 
Q 1688 2584 1439 2293 
Q 1191 2003 1191 1497 
Q 1191 994 1439 701 
Q 1688 409 2113 409 
Q 2538 409 2786 701 
Q 3034 994 3034 1497 
Q 3034 2003 2786 2293 
Q 2538 2584 2113 2584 
z
M 3366 4563 
L 3366 3988 
Q 3128 4100 2886 4159 
Q 2644 4219 2406 4219 
Q 1781 4219 1451 3797 
Q 1122 3375 1075 2522 
Q 1259 2794 1537 2939 
Q 1816 3084 2150 3084 
Q 2853 3084 3261 2657 
Q 3669 2231 3669 1497 
Q 3669 778 3244 343 
Q 2819 -91 2113 -91 
Q 1303 -91 875 529 
Q 447 1150 447 2328 
Q 447 3434 972 4092 
Q 1497 4750 2381 4750 
Q 2619 4750 2861 4703 
Q 3103 4656 3366 4563 
z
" transform="scale(0.015625)"/>
       </defs>
       <use xlink:href="#DejaVuSans-2212"/>
       <use xlink:href="#DejaVuSans-36" x="83.789062"/>
      </g>
     </g>
    </g>
    <g id="ytick_10">
     <g id="line2d_18">
      <path d="M 356.891754 207.477187 
C 356.891754 186.817063 352.82216 166.357833 344.915873 147.270367 
C 337.009586 128.182901 325.420363 110.838403 310.811449 96.229489 
C 296.202535 81.620575 278.858037 70.031352 259.770571 62.125064 
C 240.683105 54.218777 220.223874 50.149183 199.56375 50.149183 
C 178.903626 50.149183 158.444395 54.218777 139.356929 62.125064 
C 120.269463 70.031352 102.924965 81.620575 88.316051 96.229489 
C 73.707137 110.838403 62.117914 128.182901 54.211627 147.270367 
C 46.30534 166.357833 42.235746 186.817063 42.235746 207.477187 
C 42.235746 228.137312 46.30534 248.596542 54.211627 267.684008 
C 62.117914 286.771474 73.707137 304.115972 88.316051 318.724886 
C 102.924965 333.3338 120.269463 344.923023 139.356929 352.829311 
C 158.444395 360.735598 178.903626 364.805192 199.56375 364.805192 
C 220.223874 364.805192 240.683105 360.735598 259.770571 352.829311 
C 278.858037 344.923023 296.202535 333.3338 310.811449 318.724886 
C 325.420363 304.115972 337.009586 286.771474 344.915873 267.684008 
C 352.82216 248.596542 356.891754 228.137312 356.891754 207.477188 
" clip-path="url(#p777308b00c)" style="fill: none; stroke: #b0b0b0; stroke-width: 0.8; stroke-linecap: square"/>
     </g>
     <g id="text_18">
      <!-- −3 -->
      <g transform="translate(344.915873 145.190679)scale(0.1 -0.1)">
       <use xlink:href="#DejaVuSans-2212"/>
       <use xlink:href="#DejaVuSans-33" x="83.789062"/>
      </g>
     </g>
    </g>
   </g>
   <g id="line2d_19">
    <path d="M 330.08062 207.477187 
L 327.844349 202.99753 
L 323.45983 196.637685 
L 318.969 192.816066 
L 317.160403 190.950056 
L 313.982437 189.355048 
L 311.927839 187.664367 
L 309.761337 186.056946 
L 307.347754 184.56699 
L 305.915162 182.924029 
L 303.414285 181.584341 
L 300.526189 180.424384 
L 298.364686 179.146475 
L 295.556376 178.129297 
L 291.49193 177.607911 
L 288.303983 176.921475 
L 284.160436 176.686512 
L 280.755965 176.310416 
L 279.343708 175.243992 
L 274.953232 175.476251 
L 265.719753 176.628136 
L 254.63781 180.615774 
L 244.217824 184.7248 
L 244.300893 183.690027 
L 255.258978 176.604818 
L 260.879237 172.076674 
L 269.85275 163.555745 
L 274.124068 157.185618 
L 275.61416 154.226117 
L 275.601952 152.2322 
L 275.796769 150.031487 
L 276.450115 147.406976 
L 275.918801 145.646086 
L 275.636294 143.644744 
L 275.173477 141.750654 
L 274.030468 140.427054 
L 272.189115 139.752939 
L 267.897155 139.143783 
L 264.786941 139.936596 
L 262.263415 140.240029 
L 259.977332 140.381108 
L 259.247454 138.81894 
L 260.301997 135.092164 
L 261.030799 131.571704 
L 263.562695 125.562274 
L 264.814663 120.886301 
L 265.828718 116.271284 
L 267.331736 110.694473 
L 267.648656 106.537163 
L 267.799683 102.403066 
L 268.231591 97.585671 
L 267.068685 90.55521 
L 266.417204 86.870365 
L 265.204133 84.025582 
L 264.047931 80.919856 
L 262.745199 77.93602 
L 261.038465 75.644236 
L 259.411009 73.058042 
L 257.667298 70.593808 
L 255.689439 68.561234 
L 253.739839 66.34365 
L 251.603691 64.498624 
L 247.010953 61.449712 
L 244.577883 60.242594 
L 239.592802 58.086733 
L 234.406009 56.558785 
L 231.754972 56.029395 
L 229.081776 55.620106 
L 223.690913 55.144276 
L 221.006971 54.900744 
L 212.946895 54.507145 
L 207.608478 53.974624 
L 204.937574 53.591003 
L 196.846926 51.830417 
L 194.092748 50.808178 
L 188.498152 49.231763 
L 185.637498 48.299404 
L 179.884007 47.198546 
L 176.940835 46.506782 
L 174.014456 46.165292 
L 168.127511 45.751758 
L 159.419391 46.466956 
L 153.722224 47.608786 
L 150.936488 48.42458 
L 148.193978 49.377285 
L 142.936272 51.89447 
L 140.354205 53.231049 
L 137.942979 54.960427 
L 135.5049 56.563995 
L 133.128341 58.260815 
L 128.728578 62.243563 
L 126.652381 64.380568 
L 124.873908 67.006024 
L 122.99754 69.348088 
L 121.350846 72.008465 
L 120.032809 75.115474 
L 118.500473 77.748827 
L 117.375148 80.917839 
L 116.435965 84.235179 
L 115.227843 87.03303 
L 113.61631 97.469481 
L 113.876839 101.662665 
L 113.651847 108.646848 
L 114.218474 112.691655 
L 114.134898 115.86596 
L 113.777525 118.642951 
L 112.905721 120.819159 
L 111.275007 122.217739 
L 108.860056 122.894624 
L 105.778344 123.032428 
L 103.135777 123.65363 
L 100.238708 124.133582 
L 97.054596 124.466911 
L 94.428705 125.336688 
L 91.548571 126.081912 
L 89.019329 127.161964 
L 82.478816 131.441342 
L 78.802042 134.916233 
L 77.224409 136.844536 
L 75.769152 138.856721 
L 71.700934 145.114325 
L 69.334049 149.495189 
L 68.397139 151.800265 
L 66.981666 156.583694 
L 66.485432 159.040641 
L 65.651461 163.966447 
L 65.462831 166.478422 
L 65.332565 171.51005 
L 66.355324 176.723599 
L 66.867961 179.271827 
L 68.108317 181.92484 
L 70.070554 186.96748 
L 73.97052 192.056278 
L 76.173807 194.508382 
L 79.788249 196.998189 
L 82.377425 199.282721 
L 85.535827 201.501237 
L 89.283147 203.626104 
L 91.171711 205.585197 
L 92.390101 207.477187 
L 91.762096 209.358872 
L 88.977606 211.338941 
L 85.443037 213.458001 
L 78.340074 218.082885 
L 75.026156 220.566616 
L 72.643674 223.061013 
L 70.426883 225.626191 
L 68.611062 228.218056 
L 65.816294 233.475059 
L 64.715996 236.139963 
L 63.966346 238.782315 
L 62.954142 241.537788 
L 62.370775 244.237934 
L 61.627638 249.648489 
L 61.763199 252.251301 
L 62.570399 257.33869 
L 63.164852 259.835819 
L 63.896538 262.290299 
L 64.757941 264.698858 
L 66.845218 269.364855 
L 69.681468 273.655515 
L 71.250548 275.702527 
L 73.328512 277.450523 
L 75.134818 279.316265 
L 77.168022 281.019961 
L 79.814817 282.304626 
L 82.282741 283.640365 
L 84.820102 284.872755 
L 88.184452 285.465812 
L 90.934994 286.400599 
L 94.004585 287.021724 
L 98.415642 286.50275 
L 102.041765 286.448934 
L 106.22691 285.796096 
L 112.912639 282.801849 
L 118.009281 280.909161 
L 124.713394 277.276274 
L 131.188748 273.50616 
L 132.580425 274.460513 
L 129.351795 280.183795 
L 124.541795 287.928384 
L 122.307085 293.279407 
L 119.584556 299.482725 
L 118.335604 304.281123 
L 118.036091 308.155461 
L 117.334674 312.725605 
L 117.6165 316.224862 
L 118.826127 322.782463 
L 121.168994 328.194525 
L 122.387151 330.985564 
L 127.247961 337.938325 
L 132.853048 344.254396 
L 134.961486 346.01719 
L 137.006376 347.983349 
L 139.266637 349.528284 
L 143.936487 352.391161 
L 148.944853 354.48514 
L 154.11145 356.144962 
L 156.753466 356.774392 
L 162.136416 357.590025 
L 164.879941 357.70927 
L 173.076278 357.695104 
L 181.252357 356.611516 
L 183.935286 356.172094 
L 191.813777 355.355483 
L 202.132745 354.654788 
L 207.26227 354.373705 
L 212.404571 354.248447 
L 222.627948 353.098805 
L 230.200137 351.610057 
L 232.675875 350.90156 
L 237.547881 349.235894 
L 242.266111 347.150316 
L 244.589797 346.053111 
L 251.189812 341.967678 
L 256.938624 336.343265 
L 258.541745 333.955907 
L 260.180381 331.759698 
L 261.584955 329.200657 
L 262.661391 326.146591 
L 263.896014 323.535663 
L 264.772729 320.422452 
L 265.449572 317.12961 
L 266.360521 314.374367 
L 266.815307 311.035504 
L 267.357017 307.984839 
L 268.03145 305.259197 
L 268.436164 302.271932 
L 269.077136 299.724566 
L 270.034308 297.675389 
L 270.61877 295.22283 
L 273.171721 292.153472 
L 276.956948 290.471232 
L 279.151499 289.892714 
L 281.522994 289.436432 
L 285.944604 288.028637 
L 288.410896 287.475517 
L 290.322862 286.37288 
L 292.753641 285.67279 
L 294.726089 284.53813 
L 300.243709 280.625459 
L 301.873279 279.115091 
L 304.079546 277.973982 
L 306.158705 276.700761 
L 308.067399 275.277792 
L 310.703748 274.256835 
L 312.643995 272.764097 
L 316.258874 269.525086 
L 317.663158 267.651841 
L 319.873286 263.578445 
L 320.801206 261.45558 
L 322.494448 257.144414 
L 324.386699 252.909025 
L 325.656539 250.894416 
L 326.591763 248.751091 
L 329.049683 244.606681 
L 330.801731 240.198491 
L 331.837355 235.59281 
L 333.915352 223.97349 
L 334.063553 221.613686 
L 333.751388 216.860501 
L 333.071576 214.474036 
L 332.023079 212.102769 
L 331.172583 209.774428 
L 331.172583 209.774428 
" clip-path="url(#p777308b00c)" style="fill: none; stroke: #ff0000; stroke-width: 1.5; stroke-linecap: square"/>
   </g>
   <g id="line2d_20">
    <path d="M 207.48375 207.477187 
L 259.628176 206.428759 
L 277.603721 204.751972 
L 288.020559 202.841363 
L 295.281655 200.78394 
L 300.793664 198.620718 
L 305.154666 196.379135 
L 308.663634 194.081406 
L 311.589163 191.733043 
L 313.991318 189.353641 
L 315.98951 186.948185 
L 317.643658 184.524778 
L 318.984199 182.093587 
L 320.041671 179.662668 
L 320.866984 177.232894 
L 321.467172 174.813264 
L 321.855276 172.410657 
L 322.047301 170.030208 
L 322.053556 167.677837 
L 321.881607 165.359772 
L 321.539146 163.081774 
L 321.031183 160.850208 
L 320.362896 158.671165 
L 319.53686 156.551624 
L 318.553144 154.499696 
L 317.417565 152.521051 
L 316.127996 150.625006 
L 314.685392 148.819781 
L 313.085736 147.116477 
L 311.33341 145.522253 
L 309.42265 144.050122 
L 307.350922 142.71212 
L 305.121358 141.517473 
L 302.734945 140.47703 
L 300.183222 139.608497 
L 297.510263 138.894301 
L 294.746478 138.322888 
L 289.157297 137.479037 
L 286.664159 136.944667 
L 284.593339 136.128891 
L 283.222083 134.754108 
L 282.630659 132.683407 
L 282.671784 129.977692 
L 283.160819 126.748436 
L 284.498387 119.524796 
L 285.039618 115.815541 
L 285.402406 112.143702 
L 285.564142 108.545053 
L 285.51989 105.038649 
L 285.273296 101.634713 
L 284.83764 98.331585 
L 284.222171 95.131668 
L 283.437784 92.034483 
L 282.49679 89.036531 
L 281.407652 86.138613 
L 280.183554 83.333576 
L 278.829021 80.626237 
L 277.354896 78.01098 
L 275.768741 75.486271 
L 274.075953 73.053614 
L 272.283706 70.710841 
L 270.397239 68.458639 
L 268.422882 66.295045 
L 266.365053 64.221332 
L 264.22899 62.23668 
L 262.019294 60.341146 
L 257.397312 56.815608 
L 252.529532 53.653386 
L 247.449632 50.849523 
L 242.184638 48.413869 
L 236.763871 46.34576 
L 231.213314 44.654294 
L 225.559893 43.344003 
L 219.830502 42.417736 
L 214.051395 41.882649 
L 208.249442 41.74431 
L 202.451944 42.012653 
L 196.687483 42.695941 
L 193.826841 43.193602 
L 188.168637 44.519475 
L 185.379137 45.346323 
L 182.622218 46.289278 
L 179.901906 47.34432 
L 177.223661 48.519196 
L 174.592592 49.815502 
L 172.014497 51.237607 
L 169.494967 52.786707 
L 167.041058 54.469953 
L 164.660067 56.292727 
L 162.360043 58.261269 
L 160.150114 60.383496 
L 158.040649 62.668925 
L 156.042892 65.126876 
L 154.171844 67.775265 
L 152.441272 70.623576 
L 150.870917 73.694727 
L 149.481238 77.007783 
L 148.297628 80.589082 
L 147.345236 84.458077 
L 146.648434 88.627441 
L 146.213824 93.067901 
L 145.851346 102.06066 
L 145.384702 105.581219 
L 144.065096 107.354966 
L 141.591829 107.066875 
L 138.22733 105.396241 
L 134.422033 103.228648 
L 130.496893 101.123555 
L 126.623221 99.338406 
L 122.857648 97.929521 
L 119.216814 96.889118 
L 115.699018 96.18493 
L 112.302427 95.787787 
L 109.01589 95.659893 
L 105.835512 95.776224 
L 102.755877 96.112469 
L 99.77209 96.647321 
L 96.880013 97.362361 
L 94.07878 98.244303 
L 91.365493 99.27893 
L 88.739038 100.455007 
L 86.198682 101.762552 
L 83.743946 103.192568 
L 81.375135 104.737392 
L 79.092413 106.389733 
L 76.896276 108.143026 
L 74.786897 109.990825 
L 72.767007 111.928988 
L 70.837485 113.952081 
L 68.998968 116.054743 
L 67.251853 118.231686 
L 65.598823 120.479347 
L 64.039899 122.792487 
L 62.582589 125.170602 
L 61.221515 127.605261 
L 59.966596 130.097222 
L 58.814705 132.639593 
L 57.770404 135.229869 
L 56.83553 137.863983 
L 56.014512 140.539078 
L 55.311732 143.252051 
L 54.728763 145.998383 
L 54.273148 148.775974 
L 53.947136 151.580206 
L 53.757631 154.4081 
L 53.71057 157.25591 
L 53.813641 160.120106 
L 54.075345 162.996918 
L 54.504821 165.882209 
L 55.118298 168.773145 
L 55.924785 171.663971 
L 56.945439 174.551156 
L 58.198531 177.429083 
L 59.716984 180.29373 
L 61.536749 183.139303 
L 63.70267 185.958906 
L 66.280361 188.745429 
L 69.365235 191.49082 
L 73.088563 194.18411 
L 77.671227 196.812974 
L 83.483737 199.360082 
L 91.231933 201.799758 
L 102.562225 204.08982 
L 123.436072 206.148374 
L 155.286114 207.477187 
L 112.827133 208.991181 
L 97.290135 211.048661 
L 87.699928 213.339722 
L 80.85251 215.778286 
L 75.581079 218.324266 
L 71.356653 220.952296 
L 67.892615 223.64437 
L 65.004051 226.38832 
L 62.580667 229.173176 
L 60.539042 231.990994 
L 58.822536 234.834508 
L 57.392277 237.696667 
L 56.212391 240.572457 
L 55.255876 243.457181 
L 54.507411 246.344916 
L 53.945576 249.232527 
L 53.560833 252.114759 
L 53.340436 254.988022 
L 53.275075 257.848418 
L 53.356833 260.692153 
L 53.578326 263.515741 
L 53.9341 266.315385 
L 54.41699 269.088332 
L 55.026959 271.829113 
L 55.753727 274.536902 
L 56.59846 277.206019 
L 57.554082 279.834728 
L 58.618865 282.418912 
L 59.790954 284.954514 
L 61.068364 287.437536 
L 62.44642 289.865591 
L 63.922973 292.234952 
L 65.498272 294.540327 
L 67.169852 296.778 
L 68.932675 298.946051 
L 70.788987 301.037529 
L 72.735888 303.048837 
L 74.772725 304.974622 
L 76.896276 306.811349 
L 79.109864 308.549999 
L 81.409066 310.187487 
L 83.794732 311.71608 
L 86.266638 313.128454 
L 88.824829 314.41652 
L 91.469769 315.571169 
L 94.202458 316.582 
L 97.02515 317.436374 
L 99.938555 318.122176 
L 102.944654 318.624743 
L 106.051297 318.920989 
L 109.261107 318.991665 
L 112.581073 318.809937 
L 116.016494 318.348141 
L 119.577981 317.568154 
L 123.271975 316.433134 
L 127.097553 314.912742 
L 131.037239 312.998761 
L 142.191295 306.849194 
L 144.471974 306.865382 
L 145.53949 309.082043 
L 145.796916 313.000541 
L 145.846638 317.613588 
L 146.022548 322.296666 
L 146.452155 326.767784 
L 147.160194 330.932229 
L 148.128082 334.784933 
L 149.328709 338.343944 
L 150.735597 341.631435 
L 152.321245 344.679385 
L 154.066254 347.504082 
L 155.950877 350.128467 
L 157.959684 352.56781 
L 160.079985 354.832605 
L 162.299365 356.936472 
L 164.60788 358.887696 
L 166.996439 360.694342 
L 169.45722 362.361857 
L 171.982747 363.896827 
L 174.566335 365.304657 
L 177.201969 366.589523 
L 179.884738 367.749879 
L 182.608433 368.796258 
L 185.368949 369.724503 
L 188.16111 370.542541 
L 190.980807 371.249503 
L 196.68607 372.33935 
L 202.453043 373.004656 
L 208.251952 373.257956 
L 214.05453 373.107557 
L 219.833059 372.557463 
L 225.561768 371.622214 
L 231.213314 370.300081 
L 236.761848 368.599853 
L 242.180759 366.52603 
L 247.443498 364.084787 
L 252.521726 361.278317 
L 257.385496 358.107987 
L 262.006412 354.582879 
L 264.214361 352.684837 
L 266.349852 350.700445 
L 268.406589 348.625924 
L 270.380229 346.462353 
L 272.265695 344.209659 
L 274.057353 341.867205 
L 275.749408 339.434618 
L 277.336371 336.912565 
L 278.808373 334.295093 
L 280.162332 331.58812 
L 281.385863 328.783459 
L 282.474441 325.885925 
L 283.414881 322.888368 
L 284.196917 319.789194 
L 284.811805 316.589723 
L 285.243116 313.282392 
L 285.485211 309.874397 
L 285.520881 306.359555 
L 285.348254 302.750532 
L 284.970116 299.064302 
L 284.394281 295.321774 
L 282.430652 284.751823 
L 282.318815 281.990183 
L 282.860145 279.885639 
L 284.203003 278.497954 
L 286.244873 277.670177 
L 288.779389 277.180084 
L 294.431242 276.402455 
L 297.240183 275.870962 
L 299.934732 275.17827 
L 302.508705 274.330423 
L 304.905298 273.301892 
L 307.155662 272.12493 
L 309.240946 270.799346 
L 311.168254 269.340574 
L 312.934887 267.75769 
L 314.543848 266.062473 
L 315.998685 264.2663 
L 317.300755 262.378855 
L 318.443616 260.405914 
L 319.437534 258.36059 
L 320.271186 256.246157 
L 320.950034 254.073016 
L 321.465915 251.845947 
L 321.816424 249.572159 
L 321.996544 247.258014 
L 321.998573 244.909269 
L 321.814939 242.532152 
L 321.435325 240.132578 
L 320.846626 237.716405 
L 320.041671 235.291707 
L 318.984199 232.860788 
L 317.643658 230.429597 
L 316.019028 228.011395 
L 314.020923 225.605423 
L 311.618844 223.225504 
L 308.752884 220.883927 
L 305.244093 218.584639 
L 300.913101 216.344107 
L 295.461057 214.18298 
L 288.260017 212.125562 
L 277.993137 210.216002 
L 260.407364 208.539217 
L 260.407364 208.539217 
" clip-path="url(#p777308b00c)" style="fill: none; stroke-dasharray: 5.55,2.4; stroke-dashoffset: 0; stroke: #0000ff; stroke-width: 1.5"/>
   </g>
   <g id="patch_3">
    <path d="M 365.88375 207.477187 
C 365.88375 185.636245 361.581561 164.007679 353.223394 143.829279 
C 344.865227 123.650879 332.613628 105.315066 317.16975 89.871188 
C 301.725871 74.427309 283.390058 62.17571 263.211658 53.817544 
C 243.033259 45.459377 221.404692 41.157187 199.56375 41.157187 
C 177.722808 41.157187 156.094241 45.459377 135.915842 53.817544 
C 115.737442 62.17571 97.401629 74.427309 81.95775 89.871188 
C 66.513872 105.315066 54.262273 123.650879 45.904106 143.829279 
C 37.545939 164.007679 33.24375 185.636245 33.24375 207.477187 
C 33.24375 229.31813 37.545939 250.946696 45.904106 271.125096 
C 54.262273 291.303496 66.513872 309.639309 81.95775 325.083187 
C 97.401629 340.527066 115.737442 352.778665 135.915842 361.136831 
C 156.094241 369.494998 177.722808 373.797188 199.56375 373.797188 
C 221.404692 373.797188 243.033259 369.494998 263.211658 361.136831 
C 283.390058 352.778665 301.725871 340.527066 317.16975 325.083187 
C 332.613628 309.639309 344.865227 291.303496 353.223394 271.125096 
C 361.581561 250.946696 365.88375 229.31813 365.88375 207.477188 
" style="fill: none; stroke: #000000; stroke-width: 0.8; stroke-linejoin: miter; stroke-linecap: square"/>
   </g>
   <g id="text_19">
    <!-- Radiation Diagram - 3AVHF09 -->
    <g transform="translate(110.319375 16.318125)scale(0.12 -0.12)">
     <defs>
      <path id="DejaVuSans-52" d="M 2841 2188 
Q 3044 2119 3236 1894 
Q 3428 1669 3622 1275 
L 4263 0 
L 3584 0 
L 2988 1197 
Q 2756 1666 2539 1819 
Q 2322 1972 1947 1972 
L 1259 1972 
L 1259 0 
L 628 0 
L 628 4666 
L 2053 4666 
Q 2853 4666 3247 4331 
Q 3641 3997 3641 3322 
Q 3641 2881 3436 2590 
Q 3231 2300 2841 2188 
z
M 1259 4147 
L 1259 2491 
L 2053 2491 
Q 2509 2491 2742 2702 
Q 2975 2913 2975 3322 
Q 2975 3731 2742 3939 
Q 2509 4147 2053 4147 
L 1259 4147 
z
" transform="scale(0.015625)"/>
      <path id="DejaVuSans-61" d="M 2194 1759 
Q 1497 1759 1228 1600 
Q 959 1441 959 1056 
Q 959 750 1161 570 
Q 1363 391 1709 391 
Q 2188 391 2477 730 
Q 2766 1069 2766 1631 
L 2766 1759 
L 2194 1759 
z
M 3341 1997 
L 3341 0 
L 2766 0 
L 2766 531 
Q 2569 213 2275 61 
Q 1981 -91 1556 -91 
Q 1019 -91 701 211 
Q 384 513 384 1019 
Q 384 1609 779 1909 
Q 1175 2209 1959 2209 
L 2766 2209 
L 2766 2266 
Q 2766 2663 2505 2880 
Q 2244 3097 1772 3097 
Q 1472 3097 1187 3025 
Q 903 2953 641 2809 
L 641 3341 
Q 956 3463 1253 3523 
Q 1550 3584 1831 3584 
Q 2591 3584 2966 3190 
Q 3341 2797 3341 1997 
z
" transform="scale(0.015625)"/>
      <path id="DejaVuSans-64" d="M 2906 2969 
L 2906 4863 
L 3481 4863 
L 3481 0 
L 2906 0 
L 2906 525 
Q 2725 213 2448 61 
Q 2172 -91 1784 -91 
Q 1150 -91 751 415 
Q 353 922 353 1747 
Q 353 2572 751 3078 
Q 1150 3584 1784 3584 
Q 2172 3584 2448 3432 
Q 2725 3281 2906 2969 
z
M 947 1747 
Q 947 1113 1208 752 
Q 1469 391 1925 391 
Q 2381 391 2643 752 
Q 2906 1113 2906 1747 
Q 2906 2381 2643 2742 
Q 2381 3103 1925 3103 
Q 1469 3103 1208 2742 
Q 947 2381 947 1747 
z
" transform="scale(0.015625)"/>
      <path id="DejaVuSans-69" d="M 603 3500 
L 1178 3500 
L 1178 0 
L 603 0 
L 603 3500 
z
M 603 4863 
L 1178 4863 
L 1178 4134 
L 603 4134 
L 603 4863 
z
" transform="scale(0.015625)"/>
      <path id="DejaVuSans-74" d="M 1172 4494 
L 1172 3500 
L 2356 3500 
L 2356 3053 
L 1172 3053 
L 1172 1153 
Q 1172 725 1289 603 
Q 1406 481 1766 481 
L 2356 481 
L 2356 0 
L 1766 0 
Q 1100 0 847 248 
Q 594 497 594 1153 
L 594 3053 
L 172 3053 
L 172 3500 
L 594 3500 
L 594 4494 
L 1172 4494 
z
" transform="scale(0.015625)"/>
      <path id="DejaVuSans-6f" d="M 1959 3097 
Q 1497 3097 1228 2736 
Q 959 2375 959 1747 
Q 959 1119 1226 758 
Q 1494 397 1959 397 
Q 2419 397 2687 759 
Q 2956 1122 2956 1747 
Q 2956 2369 2687 2733 
Q 2419 3097 1959 3097 
z
M 1959 3584 
Q 2709 3584 3137 3096 
Q 3566 2609 3566 1747 
Q 3566 888 3137 398 
Q 2709 -91 1959 -91 
Q 1206 -91 779 398 
Q 353 888 353 1747 
Q 353 2609 779 3096 
Q 1206 3584 1959 3584 
z
" transform="scale(0.015625)"/>
      <path id="DejaVuSans-6e" d="M 3513 2113 
L 3513 0 
L 2938 0 
L 2938 2094 
Q 2938 2591 2744 2837 
Q 2550 3084 2163 3084 
Q 1697 3084 1428 2787 
Q 1159 2491 1159 1978 
L 1159 0 
L 581 0 
L 581 3500 
L 1159 3500 
L 1159 2956 
Q 1366 3272 1645 3428 
Q 1925 3584 2291 3584 
Q 2894 3584 3203 3211 
Q 3513 2838 3513 2113 
z
" transform="scale(0.015625)"/>
      <path id="DejaVuSans-20" transform="scale(0.015625)"/>
      <path id="DejaVuSans-44" d="M 1259 4147 
L 1259 519 
L 2022 519 
Q 2988 519 3436 956 
Q 3884 1394 3884 2338 
Q 3884 3275 3436 3711 
Q 2988 4147 2022 4147 
L 1259 4147 
z
M 628 4666 
L 1925 4666 
Q 3281 4666 3915 4102 
Q 4550 3538 4550 2338 
Q 4550 1131 3912 565 
Q 3275 0 1925 0 
L 628 0 
L 628 4666 
z
" transform="scale(0.015625)"/>
      <path id="DejaVuSans-67" d="M 2906 1791 
Q 2906 2416 2648 2759 
Q 2391 3103 1925 3103 
Q 1463 3103 1205 2759 
Q 947 2416 947 1791 
Q 947 1169 1205 825 
Q 1463 481 1925 481 
Q 2391 481 2648 825 
Q 2906 1169 2906 1791 
z
M 3481 434 
Q 3481 -459 3084 -895 
Q 2688 -1331 1869 -1331 
Q 1566 -1331 1297 -1286 
Q 1028 -1241 775 -1147 
L 775 -588 
Q 1028 -725 1275 -790 
Q 1522 -856 1778 -856 
Q 2344 -856 2625 -561 
Q 2906 -266 2906 331 
L 2906 616 
Q 2728 306 2450 153 
Q 2172 0 1784 0 
Q 1141 0 747 490 
Q 353 981 353 1791 
Q 353 2603 747 3093 
Q 1141 3584 1784 3584 
Q 2172 3584 2450 3431 
Q 2728 3278 2906 2969 
L 2906 3500 
L 3481 3500 
L 3481 434 
z
" transform="scale(0.015625)"/>
      <path id="DejaVuSans-72" d="M 2631 2963 
Q 2534 3019 2420 3045 
Q 2306 3072 2169 3072 
Q 1681 3072 1420 2755 
Q 1159 2438 1159 1844 
L 1159 0 
L 581 0 
L 581 3500 
L 1159 3500 
L 1159 2956 
Q 1341 3275 1631 3429 
Q 1922 3584 2338 3584 
Q 2397 3584 2469 3576 
Q 2541 3569 2628 3553 
L 2631 2963 
z
" transform="scale(0.015625)"/>
      <path id="DejaVuSans-6d" d="M 3328 2828 
Q 3544 3216 3844 3400 
Q 4144 3584 4550 3584 
Q 5097 3584 5394 3201 
Q 5691 2819 5691 2113 
L 5691 0 
L 5113 0 
L 5113 2094 
Q 5113 2597 4934 2840 
Q 4756 3084 4391 3084 
Q 3944 3084 3684 2787 
Q 3425 2491 3425 1978 
L 3425 0 
L 2847 0 
L 2847 2094 
Q 2847 2600 2669 2842 
Q 2491 3084 2119 3084 
Q 1678 3084 1418 2786 
Q 1159 2488 1159 1978 
L 1159 0 
L 581 0 
L 581 3500 
L 1159 3500 
L 1159 2956 
Q 1356 3278 1631 3431 
Q 1906 3584 2284 3584 
Q 2666 3584 2933 3390 
Q 3200 3197 3328 2828 
z
" transform="scale(0.015625)"/>
      <path id="DejaVuSans-2d" d="M 313 2009 
L 1997 2009 
L 1997 1497 
L 313 1497 
L 313 2009 
z
" transform="scale(0.015625)"/>
      <path id="DejaVuSans-41" d="M 2188 4044 
L 1331 1722 
L 3047 1722 
L 2188 4044 
z
M 1831 4666 
L 2547 4666 
L 4325 0 
L 3669 0 
L 3244 1197 
L 1141 1197 
L 716 0 
L 50 0 
L 1831 4666 
z
" transform="scale(0.015625)"/>
      <path id="DejaVuSans-56" d="M 1831 0 
L 50 4666 
L 709 4666 
L 2188 738 
L 3669 4666 
L 4325 4666 
L 2547 0 
L 1831 0 
z
" transform="scale(0.015625)"/>
      <path id="DejaVuSans-48" d="M 628 4666 
L 1259 4666 
L 1259 2753 
L 3553 2753 
L 3553 4666 
L 4184 4666 
L 4184 0 
L 3553 0 
L 3553 2222 
L 1259 2222 
L 1259 0 
L 628 0 
L 628 4666 
z
" transform="scale(0.015625)"/>
      <path id="DejaVuSans-46" d="M 628 4666 
L 3309 4666 
L 3309 4134 
L 1259 4134 
L 1259 2759 
L 3109 2759 
L 3109 2228 
L 1259 2228 
L 1259 0 
L 628 0 
L 628 4666 
z
" transform="scale(0.015625)"/>
     </defs>
     <use xlink:href="#DejaVuSans-52"/>
     <use xlink:href="#DejaVuSans-61" x="67.232422"/>
     <use xlink:href="#DejaVuSans-64" x="128.511719"/>
     <use xlink:href="#DejaVuSans-69" x="191.988281"/>
     <use xlink:href="#DejaVuSans-61" x="219.771484"/>
     <use xlink:href="#DejaVuSans-74" x="281.050781"/>
     <use xlink:href="#DejaVuSans-69" x="320.259766"/>
     <use xlink:href="#DejaVuSans-6f" x="348.042969"/>
     <use xlink:href="#DejaVuSans-6e" x="409.224609"/>
     <use xlink:href="#DejaVuSans-20" x="472.603516"/>
     <use xlink:href="#DejaVuSans-44" x="504.390625"/>
     <use xlink:href="#DejaVuSans-69" x="581.392578"/>
     <use xlink:href="#DejaVuSans-61" x="609.175781"/>
     <use xlink:href="#DejaVuSans-67" x="670.455078"/>
     <use xlink:href="#DejaVuSans-72" x="733.931641"/>
     <use xlink:href="#DejaVuSans-61" x="775.044922"/>
     <use xlink:href="#DejaVuSans-6d" x="836.324219"/>
     <use xlink:href="#DejaVuSans-20" x="933.736328"/>
     <use xlink:href="#DejaVuSans-2d" x="965.523438"/>
     <use xlink:href="#DejaVuSans-20" x="1001.607422"/>
     <use xlink:href="#DejaVuSans-33" x="1033.394531"/>
     <use xlink:href="#DejaVuSans-41" x="1097.017578"/>
     <use xlink:href="#DejaVuSans-56" x="1159.050781"/>
     <use xlink:href="#DejaVuSans-48" x="1227.458984"/>
     <use xlink:href="#DejaVuSans-46" x="1302.654297"/>
     <use xlink:href="#DejaVuSans-30" x="1360.173828"/>
     <use xlink:href="#DejaVuSans-39" x="1423.796875"/>
    </g>
   </g>
   <g id="legend_1">
    <g id="patch_4">
     <path d="M 304.104062 78.513437 
L 358.88375 78.513437 
Q 360.88375 78.513437 360.88375 76.513437 
L 360.88375 48.157187 
Q 360.88375 46.157187 358.88375 46.157187 
L 304.104062 46.157187 
Q 302.104062 46.157187 302.104062 48.157187 
L 302.104062 76.513437 
Q 302.104062 78.513437 304.104062 78.513437 
z
" style="fill: #ffffff; opacity: 0.8; stroke: #cccccc; stroke-linejoin: miter"/>
    </g>
    <g id="line2d_21">
     <path d="M 306.104062 54.255625 
L 316.104062 54.255625 
L 326.104062 54.255625 
" style="fill: none; stroke: #ff0000; stroke-width: 1.5; stroke-linecap: square"/>
    </g>
    <g id="text_20">
     <!-- INPE -->
     <g transform="translate(334.104062 57.755625)scale(0.1 -0.1)">
      <defs>
       <path id="DejaVuSans-49" d="M 628 4666 
L 1259 4666 
L 1259 0 
L 628 0 
L 628 4666 
z
" transform="scale(0.015625)"/>
       <path id="DejaVuSans-4e" d="M 628 4666 
L 1478 4666 
L 3547 763 
L 3547 4666 
L 4159 4666 
L 4159 0 
L 3309 0 
L 1241 3903 
L 1241 0 
L 628 0 
L 628 4666 
z
" transform="scale(0.015625)"/>
       <path id="DejaVuSans-50" d="M 1259 4147 
L 1259 2394 
L 2053 2394 
Q 2494 2394 2734 2622 
Q 2975 2850 2975 3272 
Q 2975 3691 2734 3919 
Q 2494 4147 2053 4147 
L 1259 4147 
z
M 628 4666 
L 2053 4666 
Q 2838 4666 3239 4311 
Q 3641 3956 3641 3272 
Q 3641 2581 3239 2228 
Q 2838 1875 2053 1875 
L 1259 1875 
L 1259 0 
L 628 0 
L 628 4666 
z
" transform="scale(0.015625)"/>
       <path id="DejaVuSans-45" d="M 628 4666 
L 3578 4666 
L 3578 4134 
L 1259 4134 
L 1259 2753 
L 3481 2753 
L 3481 2222 
L 1259 2222 
L 1259 531 
L 3634 531 
L 3634 0 
L 628 0 
L 628 4666 
z
" transform="scale(0.015625)"/>
      </defs>
      <use xlink:href="#DejaVuSans-49"/>
      <use xlink:href="#DejaVuSans-4e" x="29.492188"/>
      <use xlink:href="#DejaVuSans-50" x="104.296875"/>
      <use xlink:href="#DejaVuSans-45" x="164.599609"/>
     </g>
    </g>
    <g id="line2d_22">
     <path d="M 306.104062 68.93375 
L 316.104062 68.93375 
L 326.104062 68.93375 
" style="fill: none; stroke-dasharray: 5.55,2.4; stroke-dashoffset: 0; stroke: #0000ff; stroke-width: 1.5"/>
    </g>
    <g id="text_21">
     <!-- CST -->
     <g transform="translate(334.104062 72.43375)scale(0.1 -0.1)">
      <defs>
       <path id="DejaVuSans-43" d="M 4122 4306 
L 4122 3641 
Q 3803 3938 3442 4084 
Q 3081 4231 2675 4231 
Q 1875 4231 1450 3742 
Q 1025 3253 1025 2328 
Q 1025 1406 1450 917 
Q 1875 428 2675 428 
Q 3081 428 3442 575 
Q 3803 722 4122 1019 
L 4122 359 
Q 3791 134 3420 21 
Q 3050 -91 2638 -91 
Q 1578 -91 968 557 
Q 359 1206 359 2328 
Q 359 3453 968 4101 
Q 1578 4750 2638 4750 
Q 3056 4750 3426 4639 
Q 3797 4528 4122 4306 
z
" transform="scale(0.015625)"/>
       <path id="DejaVuSans-53" d="M 3425 4513 
L 3425 3897 
Q 3066 4069 2747 4153 
Q 2428 4238 2131 4238 
Q 1616 4238 1336 4038 
Q 1056 3838 1056 3469 
Q 1056 3159 1242 3001 
Q 1428 2844 1947 2747 
L 2328 2669 
Q 3034 2534 3370 2195 
Q 3706 1856 3706 1288 
Q 3706 609 3251 259 
Q 2797 -91 1919 -91 
Q 1588 -91 1214 -16 
Q 841 59 441 206 
L 441 856 
Q 825 641 1194 531 
Q 1563 422 1919 422 
Q 2459 422 2753 634 
Q 3047 847 3047 1241 
Q 3047 1584 2836 1778 
Q 2625 1972 2144 2069 
L 1759 2144 
Q 1053 2284 737 2584 
Q 422 2884 422 3419 
Q 422 4038 858 4394 
Q 1294 4750 2059 4750 
Q 2388 4750 2728 4690 
Q 3069 4631 3425 4513 
z
" transform="scale(0.015625)"/>
       <path id="DejaVuSans-54" d="M -19 4666 
L 3928 4666 
L 3928 4134 
L 2272 4134 
L 2272 0 
L 1638 0 
L 1638 4134 
L -19 4134 
L -19 4666 
z
" transform="scale(0.015625)"/>
      </defs>
      <use xlink:href="#DejaVuSans-43"/>
      <use xlink:href="#DejaVuSans-53" x="69.824219"/>
      <use xlink:href="#DejaVuSans-54" x="133.300781"/>
     </g>
    </g>
   </g>
  </g>
 </g>
 <defs>
  <clipPath id="p777308b00c">
   <path d="M 365.88375 207.477187 
C 365.88375 185.636245 361.581561 164.007679 353.223394 143.829279 
C 344.865227 123.650879 332.613628 105.315066 317.16975 89.871188 
C 301.725871 74.427309 283.390058 62.17571 263.211658 53.817544 
C 243.033259 45.459377 221.404692 41.157187 199.56375 41.157187 
C 177.722808 41.157187 156.094241 45.459377 135.915842 53.817544 
C 115.737442 62.17571 97.401629 74.427309 81.95775 89.871188 
C 66.513872 105.315066 54.262273 123.650879 45.904106 143.829279 
C 37.545939 164.007679 33.24375 185.636245 33.24375 207.477187 
C 33.24375 229.31813 37.545939 250.946696 45.904106 271.125096 
C 54.262273 291.303496 66.513872 309.639309 81.95775 325.083187 
C 97.401629 340.527066 115.737442 352.778665 135.915842 361.136831 
C 156.094241 369.494998 177.722808 373.797188 199.56375 373.797188 
C 221.404692 373.797188 243.033259 369.494998 263.211658 361.136831 
C 283.390058 352.778665 301.725871 340.527066 317.16975 325.083187 
C 332.613628 309.639309 344.865227 291.303496 353.223394 271.125096 
C 361.581561 250.946696 365.88375 229.31813 365.88375 207.477188 
M 199.56375 207.477187 
C 199.56375 207.477187 199.56375 207.477187 199.56375 207.477187 
C 199.56375 207.477187 199.56375 207.477187 199.56375 207.477187 
C 199.56375 207.477187 199.56375 207.477187 199.56375 207.477187 
C 199.56375 207.477187 199.56375 207.477187 199.56375 207.477187 
C 199.56375 207.477187 199.56375 207.477187 199.56375 207.477187 
C 199.56375 207.477187 199.56375 207.477187 199.56375 207.477187 
C 199.56375 207.477187 199.56375 207.477187 199.56375 207.477187 
C 199.56375 207.477187 199.56375 207.477187 199.56375 207.477187 
C 199.56375 207.477187 199.56375 207.477187 199.56375 207.477187 
C 199.56375 207.477187 199.56375 207.477187 199.56375 207.477187 
C 199.56375 207.477187 199.56375 207.477187 199.56375 207.477187 
C 199.56375 207.477187 199.56375 207.477187 199.56375 207.477187 
C 199.56375 207.477187 199.56375 207.477187 199.56375 207.477187 
C 199.56375 207.477187 199.56375 207.477187 199.56375 207.477187 
C 199.56375 207.477187 199.56375 207.477187 199.56375 207.477187 
C 199.56375 207.477187 199.56375 207.477187 199.56375 207.477187 
M 365.88375 207.477187 
z
"/>
  </clipPath>
 </defs>
</svg>
