<?xml version="1.0" encoding="utf-8" standalone="no"?>
<!DOCTYPE svg PUBLIC "-//W3C//DTD SVG 1.1//EN"
  "http://www.w3.org/Graphics/SVG/1.1/DTD/svg11.dtd">
<svg xmlns:xlink="http://www.w3.org/1999/xlink" width="392.765pt" height="399.83625pt" viewBox="0 0 392.765 399.83625" xmlns="http://www.w3.org/2000/svg" version="1.1">
 <metadata>
  <rdf:RDF xmlns:dc="http://purl.org/dc/elements/1.1/" xmlns:cc="http://creativecommons.org/ns#" xmlns:rdf="http://www.w3.org/1999/02/22-rdf-syntax-ns#">
   <cc:Work>
    <dc:type rdf:resource="http://purl.org/dc/dcmitype/StillImage"/>
    <dc:date>2023-11-03T14:36:15.935604</dc:date>
    <dc:format>image/svg+xml</dc:format>
    <dc:creator>
     <cc:Agent>
      <dc:title>Matplotlib v3.5.1, https://matplotlib.org/</dc:title>
     </cc:Agent>
    </dc:creator>
   </cc:Work>
  </rdf:RDF>
 </metadata>
 <defs>
  <style type="text/css">*{stroke-linejoin: round; stroke-linecap: butt}</style>
 </defs>
 <g id="figure_1">
  <g id="patch_1">
   <path d="M 0 399.83625 
L 392.765 399.83625 
L 392.765 0 
L 0 0 
z
" style="fill: #ffffff"/>
  </g>
  <g id="axes_1">
   <g id="patch_2">
    <path d="M 365.88375 207.477187 
C 365.88375 185.636245 361.581561 164.007679 353.223394 143.829279 
C 344.865227 123.650879 332.613628 105.315066 317.16975 89.871188 
C 301.725871 74.427309 283.390058 62.17571 263.211658 53.817544 
C 243.033259 45.459377 221.404692 41.157187 199.56375 41.157187 
C 177.722808 41.157187 156.094241 45.459377 135.915842 53.817544 
C 115.737442 62.17571 97.401629 74.427309 81.95775 89.871188 
C 66.513872 105.315066 54.262273 123.650879 45.904106 143.829279 
C 37.545939 164.007679 33.24375 185.636245 33.24375 207.477187 
C 33.24375 229.31813 37.545939 250.946696 45.904106 271.125096 
C 54.262273 291.303496 66.513872 309.639309 81.95775 325.083187 
C 97.401629 340.527066 115.737442 352.778665 135.915842 361.136831 
C 156.094241 369.494998 177.722808 373.797188 199.56375 373.797188 
C 221.404692 373.797188 243.033259 369.494998 263.211658 361.136831 
C 283.390058 352.778665 301.725871 340.527066 317.16975 325.083187 
C 332.613628 309.639309 344.865227 291.303496 353.223394 271.125096 
C 361.581561 250.946696 365.88375 229.31813 365.88375 207.477188 
M 199.56375 207.477187 
C 199.56375 207.477187 199.56375 207.477187 199.56375 207.477187 
C 199.56375 207.477187 199.56375 207.477187 199.56375 207.477187 
C 199.56375 207.477187 199.56375 207.477187 199.56375 207.477187 
C 199.56375 207.477187 199.56375 207.477187 199.56375 207.477187 
C 199.56375 207.477187 199.56375 207.477187 199.56375 207.477187 
C 199.56375 207.477187 199.56375 207.477187 199.56375 207.477187 
C 199.56375 207.477187 199.56375 207.477187 199.56375 207.477187 
C 199.56375 207.477187 199.56375 207.477187 199.56375 207.477187 
C 199.56375 207.477187 199.56375 207.477187 199.56375 207.477187 
C 199.56375 207.477187 199.56375 207.477187 199.56375 207.477187 
C 199.56375 207.477187 199.56375 207.477187 199.56375 207.477187 
C 199.56375 207.477187 199.56375 207.477187 199.56375 207.477187 
C 199.56375 207.477187 199.56375 207.477187 199.56375 207.477187 
C 199.56375 207.477187 199.56375 207.477187 199.56375 207.477187 
C 199.56375 207.477187 199.56375 207.477187 199.56375 207.477187 
C 199.56375 207.477187 199.56375 207.477187 199.56375 207.477187 
M 365.88375 207.477187 
z
" style="fill: #ffffff"/>
   </g>
   <g id="matplotlib.axis_1">
    <g id="xtick_1">
     <g id="line2d_1">
      <path d="M 199.56375 207.477187 
L 365.88375 207.477187 
" clip-path="url(#p7d6d2add37)" style="fill: none; stroke: #b0b0b0; stroke-width: 0.8; stroke-linecap: square"/>
     </g>
     <g id="text_1">
      <!-- 0° -->
      <g transform="translate(374.2025 210.236562)scale(0.1 -0.1)">
       <defs>
        <path id="DejaVuSans-30" d="M 2034 4250 
Q 1547 4250 1301 3770 
Q 1056 3291 1056 2328 
Q 1056 1369 1301 889 
Q 1547 409 2034 409 
Q 2525 409 2770 889 
Q 3016 1369 3016 2328 
Q 3016 3291 2770 3770 
Q 2525 4250 2034 4250 
z
M 2034 4750 
Q 2819 4750 3233 4129 
Q 3647 3509 3647 2328 
Q 3647 1150 3233 529 
Q 2819 -91 2034 -91 
Q 1250 -91 836 529 
Q 422 1150 422 2328 
Q 422 3509 836 4129 
Q 1250 4750 2034 4750 
z
" transform="scale(0.015625)"/>
        <path id="DejaVuSans-b0" d="M 1600 4347 
Q 1350 4347 1178 4173 
Q 1006 4000 1006 3750 
Q 1006 3503 1178 3333 
Q 1350 3163 1600 3163 
Q 1850 3163 2022 3333 
Q 2194 3503 2194 3750 
Q 2194 3997 2020 4172 
Q 1847 4347 1600 4347 
z
M 1600 4750 
Q 1800 4750 1984 4673 
Q 2169 4597 2303 4453 
Q 2447 4313 2519 4134 
Q 2591 3956 2591 3750 
Q 2591 3338 2302 3052 
Q 2013 2766 1594 2766 
Q 1172 2766 890 3047 
Q 609 3328 609 3750 
Q 609 4169 896 4459 
Q 1184 4750 1600 4750 
z
" transform="scale(0.015625)"/>
       </defs>
       <use xlink:href="#DejaVuSans-30"/>
       <use xlink:href="#DejaVuSans-b0" x="63.623047"/>
      </g>
     </g>
    </g>
    <g id="xtick_2">
     <g id="line2d_2">
      <path d="M 199.56375 207.477187 
L 317.16975 89.871188 
" clip-path="url(#p7d6d2add37)" style="fill: none; stroke: #b0b0b0; stroke-width: 0.8; stroke-linecap: square"/>
     </g>
     <g id="text_2">
      <!-- 45° -->
      <g transform="translate(318.206745 82.731068)scale(0.1 -0.1)">
       <defs>
        <path id="DejaVuSans-34" d="M 2419 4116 
L 825 1625 
L 2419 1625 
L 2419 4116 
z
M 2253 4666 
L 3047 4666 
L 3047 1625 
L 3713 1625 
L 3713 1100 
L 3047 1100 
L 3047 0 
L 2419 0 
L 2419 1100 
L 313 1100 
L 313 1709 
L 2253 4666 
z
" transform="scale(0.015625)"/>
        <path id="DejaVuSans-35" d="M 691 4666 
L 3169 4666 
L 3169 4134 
L 1269 4134 
L 1269 2991 
Q 1406 3038 1543 3061 
Q 1681 3084 1819 3084 
Q 2600 3084 3056 2656 
Q 3513 2228 3513 1497 
Q 3513 744 3044 326 
Q 2575 -91 1722 -91 
Q 1428 -91 1123 -41 
Q 819 9 494 109 
L 494 744 
Q 775 591 1075 516 
Q 1375 441 1709 441 
Q 2250 441 2565 725 
Q 2881 1009 2881 1497 
Q 2881 1984 2565 2268 
Q 2250 2553 1709 2553 
Q 1456 2553 1204 2497 
Q 953 2441 691 2322 
L 691 4666 
z
" transform="scale(0.015625)"/>
       </defs>
       <use xlink:href="#DejaVuSans-34"/>
       <use xlink:href="#DejaVuSans-35" x="63.623047"/>
       <use xlink:href="#DejaVuSans-b0" x="127.246094"/>
      </g>
     </g>
    </g>
    <g id="xtick_3">
     <g id="line2d_3">
      <path d="M 199.56375 207.477187 
L 199.56375 41.157187 
" clip-path="url(#p7d6d2add37)" style="fill: none; stroke: #b0b0b0; stroke-width: 0.8; stroke-linecap: square"/>
     </g>
     <g id="text_3">
      <!-- 90° -->
      <g transform="translate(190.70125 29.916562)scale(0.1 -0.1)">
       <defs>
        <path id="DejaVuSans-39" d="M 703 97 
L 703 672 
Q 941 559 1184 500 
Q 1428 441 1663 441 
Q 2288 441 2617 861 
Q 2947 1281 2994 2138 
Q 2813 1869 2534 1725 
Q 2256 1581 1919 1581 
Q 1219 1581 811 2004 
Q 403 2428 403 3163 
Q 403 3881 828 4315 
Q 1253 4750 1959 4750 
Q 2769 4750 3195 4129 
Q 3622 3509 3622 2328 
Q 3622 1225 3098 567 
Q 2575 -91 1691 -91 
Q 1453 -91 1209 -44 
Q 966 3 703 97 
z
M 1959 2075 
Q 2384 2075 2632 2365 
Q 2881 2656 2881 3163 
Q 2881 3666 2632 3958 
Q 2384 4250 1959 4250 
Q 1534 4250 1286 3958 
Q 1038 3666 1038 3163 
Q 1038 2656 1286 2365 
Q 1534 2075 1959 2075 
z
" transform="scale(0.015625)"/>
       </defs>
       <use xlink:href="#DejaVuSans-39"/>
       <use xlink:href="#DejaVuSans-30" x="63.623047"/>
       <use xlink:href="#DejaVuSans-b0" x="127.246094"/>
      </g>
     </g>
    </g>
    <g id="xtick_4">
     <g id="line2d_4">
      <path d="M 199.56375 207.477187 
L 81.95775 89.871188 
" clip-path="url(#p7d6d2add37)" style="fill: none; stroke: #b0b0b0; stroke-width: 0.8; stroke-linecap: square"/>
     </g>
     <g id="text_4">
      <!-- 135° -->
      <g transform="translate(60.014505 82.731068)scale(0.1 -0.1)">
       <defs>
        <path id="DejaVuSans-31" d="M 794 531 
L 1825 531 
L 1825 4091 
L 703 3866 
L 703 4441 
L 1819 4666 
L 2450 4666 
L 2450 531 
L 3481 531 
L 3481 0 
L 794 0 
L 794 531 
z
" transform="scale(0.015625)"/>
        <path id="DejaVuSans-33" d="M 2597 2516 
Q 3050 2419 3304 2112 
Q 3559 1806 3559 1356 
Q 3559 666 3084 287 
Q 2609 -91 1734 -91 
Q 1441 -91 1130 -33 
Q 819 25 488 141 
L 488 750 
Q 750 597 1062 519 
Q 1375 441 1716 441 
Q 2309 441 2620 675 
Q 2931 909 2931 1356 
Q 2931 1769 2642 2001 
Q 2353 2234 1838 2234 
L 1294 2234 
L 1294 2753 
L 1863 2753 
Q 2328 2753 2575 2939 
Q 2822 3125 2822 3475 
Q 2822 3834 2567 4026 
Q 2313 4219 1838 4219 
Q 1578 4219 1281 4162 
Q 984 4106 628 3988 
L 628 4550 
Q 988 4650 1302 4700 
Q 1616 4750 1894 4750 
Q 2613 4750 3031 4423 
Q 3450 4097 3450 3541 
Q 3450 3153 3228 2886 
Q 3006 2619 2597 2516 
z
" transform="scale(0.015625)"/>
       </defs>
       <use xlink:href="#DejaVuSans-31"/>
       <use xlink:href="#DejaVuSans-33" x="63.623047"/>
       <use xlink:href="#DejaVuSans-35" x="127.246094"/>
       <use xlink:href="#DejaVuSans-b0" x="190.869141"/>
      </g>
     </g>
    </g>
    <g id="xtick_5">
     <g id="line2d_5">
      <path d="M 199.56375 207.477187 
L 33.24375 207.477187 
" clip-path="url(#p7d6d2add37)" style="fill: none; stroke: #b0b0b0; stroke-width: 0.8; stroke-linecap: square"/>
     </g>
     <g id="text_5">
      <!-- 180° -->
      <g transform="translate(7.2 210.236562)scale(0.1 -0.1)">
       <defs>
        <path id="DejaVuSans-38" d="M 2034 2216 
Q 1584 2216 1326 1975 
Q 1069 1734 1069 1313 
Q 1069 891 1326 650 
Q 1584 409 2034 409 
Q 2484 409 2743 651 
Q 3003 894 3003 1313 
Q 3003 1734 2745 1975 
Q 2488 2216 2034 2216 
z
M 1403 2484 
Q 997 2584 770 2862 
Q 544 3141 544 3541 
Q 544 4100 942 4425 
Q 1341 4750 2034 4750 
Q 2731 4750 3128 4425 
Q 3525 4100 3525 3541 
Q 3525 3141 3298 2862 
Q 3072 2584 2669 2484 
Q 3125 2378 3379 2068 
Q 3634 1759 3634 1313 
Q 3634 634 3220 271 
Q 2806 -91 2034 -91 
Q 1263 -91 848 271 
Q 434 634 434 1313 
Q 434 1759 690 2068 
Q 947 2378 1403 2484 
z
M 1172 3481 
Q 1172 3119 1398 2916 
Q 1625 2713 2034 2713 
Q 2441 2713 2670 2916 
Q 2900 3119 2900 3481 
Q 2900 3844 2670 4047 
Q 2441 4250 2034 4250 
Q 1625 4250 1398 4047 
Q 1172 3844 1172 3481 
z
" transform="scale(0.015625)"/>
       </defs>
       <use xlink:href="#DejaVuSans-31"/>
       <use xlink:href="#DejaVuSans-38" x="63.623047"/>
       <use xlink:href="#DejaVuSans-30" x="127.246094"/>
       <use xlink:href="#DejaVuSans-b0" x="190.869141"/>
      </g>
     </g>
    </g>
    <g id="xtick_6">
     <g id="line2d_6">
      <path d="M 199.56375 207.477187 
L 81.95775 325.083187 
" clip-path="url(#p7d6d2add37)" style="fill: none; stroke: #b0b0b0; stroke-width: 0.8; stroke-linecap: square"/>
     </g>
     <g id="text_6">
      <!-- 225° -->
      <g transform="translate(60.014505 337.742057)scale(0.1 -0.1)">
       <defs>
        <path id="DejaVuSans-32" d="M 1228 531 
L 3431 531 
L 3431 0 
L 469 0 
L 469 531 
Q 828 903 1448 1529 
Q 2069 2156 2228 2338 
Q 2531 2678 2651 2914 
Q 2772 3150 2772 3378 
Q 2772 3750 2511 3984 
Q 2250 4219 1831 4219 
Q 1534 4219 1204 4116 
Q 875 4013 500 3803 
L 500 4441 
Q 881 4594 1212 4672 
Q 1544 4750 1819 4750 
Q 2544 4750 2975 4387 
Q 3406 4025 3406 3419 
Q 3406 3131 3298 2873 
Q 3191 2616 2906 2266 
Q 2828 2175 2409 1742 
Q 1991 1309 1228 531 
z
" transform="scale(0.015625)"/>
       </defs>
       <use xlink:href="#DejaVuSans-32"/>
       <use xlink:href="#DejaVuSans-32" x="63.623047"/>
       <use xlink:href="#DejaVuSans-35" x="127.246094"/>
       <use xlink:href="#DejaVuSans-b0" x="190.869141"/>
      </g>
     </g>
    </g>
    <g id="xtick_7">
     <g id="line2d_7">
      <path d="M 199.56375 207.477187 
L 199.56375 373.797188 
" clip-path="url(#p7d6d2add37)" style="fill: none; stroke: #b0b0b0; stroke-width: 0.8; stroke-linecap: square"/>
     </g>
     <g id="text_7">
      <!-- 270° -->
      <g transform="translate(187.52 390.556562)scale(0.1 -0.1)">
       <defs>
        <path id="DejaVuSans-37" d="M 525 4666 
L 3525 4666 
L 3525 4397 
L 1831 0 
L 1172 0 
L 2766 4134 
L 525 4134 
L 525 4666 
z
" transform="scale(0.015625)"/>
       </defs>
       <use xlink:href="#DejaVuSans-32"/>
       <use xlink:href="#DejaVuSans-37" x="63.623047"/>
       <use xlink:href="#DejaVuSans-30" x="127.246094"/>
       <use xlink:href="#DejaVuSans-b0" x="190.869141"/>
      </g>
     </g>
    </g>
    <g id="xtick_8">
     <g id="line2d_8">
      <path d="M 199.56375 207.477187 
L 317.16975 325.083187 
" clip-path="url(#p7d6d2add37)" style="fill: none; stroke: #b0b0b0; stroke-width: 0.8; stroke-linecap: square"/>
     </g>
     <g id="text_8">
      <!-- 315° -->
      <g transform="translate(315.025495 337.742057)scale(0.1 -0.1)">
       <use xlink:href="#DejaVuSans-33"/>
       <use xlink:href="#DejaVuSans-31" x="63.623047"/>
       <use xlink:href="#DejaVuSans-35" x="127.246094"/>
       <use xlink:href="#DejaVuSans-b0" x="190.869141"/>
      </g>
     </g>
    </g>
   </g>
   <g id="matplotlib.axis_2">
    <g id="ytick_1">
     <g id="line2d_9">
      <path d="M 235.905632 207.477187 
C 235.905632 202.704815 234.965579 197.978848 233.139271 193.569751 
C 231.312963 189.160654 228.635918 185.154173 225.261341 181.779596 
C 221.886764 178.40502 217.880283 175.727974 213.471186 173.901667 
C 209.062089 172.075359 204.336122 171.135306 199.56375 171.135306 
C 194.791378 171.135306 190.065411 172.075359 185.656314 173.901667 
C 181.247217 175.727974 177.240736 178.40502 173.866159 181.779596 
C 170.491582 185.154173 167.814537 189.160654 165.988229 193.569751 
C 164.161921 197.978848 163.221868 202.704815 163.221868 207.477187 
C 163.221868 212.24956 164.161921 216.975527 165.988229 221.384624 
C 167.814537 225.793721 170.491582 229.800202 173.866159 233.174779 
C 177.240736 236.549355 181.247217 239.226401 185.656314 241.052708 
C 190.065411 242.879016 194.791378 243.819069 199.56375 243.819069 
C 204.336122 243.819069 209.062089 242.879016 213.471186 241.052708 
C 217.880283 239.226401 221.886764 236.549355 225.261341 233.174779 
C 228.635918 229.800202 231.312963 225.793721 233.139271 221.384624 
C 234.965579 216.975527 235.905632 212.24956 235.905632 207.477187 
" clip-path="url(#p7d6d2add37)" style="fill: none; stroke: #b0b0b0; stroke-width: 0.8; stroke-linecap: square"/>
     </g>
     <g id="text_9">
      <!-- −30 -->
      <g transform="translate(233.139271 191.490064)scale(0.1 -0.1)">
       <defs>
        <path id="DejaVuSans-2212" d="M 678 2272 
L 4684 2272 
L 4684 1741 
L 678 1741 
L 678 2272 
z
" transform="scale(0.015625)"/>
       </defs>
       <use xlink:href="#DejaVuSans-2212"/>
       <use xlink:href="#DejaVuSans-33" x="83.789062"/>
       <use xlink:href="#DejaVuSans-30" x="147.412109"/>
      </g>
     </g>
    </g>
    <g id="ytick_2">
     <g id="line2d_10">
      <path d="M 248.903444 207.477187 
C 248.903444 200.997958 247.627177 194.581731 245.147683 188.595704 
C 242.668189 182.609677 239.033689 177.170262 234.452182 172.588756 
C 229.870675 168.007249 224.431261 164.372748 218.445233 161.893254 
C 212.459206 159.413761 206.042979 158.137494 199.56375 158.137494 
C 193.084521 158.137494 186.668294 159.413761 180.682267 161.893254 
C 174.696239 164.372748 169.256825 168.007249 164.675318 172.588756 
C 160.093811 177.170262 156.459311 182.609677 153.979817 188.595704 
C 151.500323 194.581731 150.224056 200.997958 150.224056 207.477187 
C 150.224056 213.956417 151.500323 220.372644 153.979817 226.358671 
C 156.459311 232.344698 160.093811 237.784113 164.675318 242.365619 
C 169.256825 246.947126 174.696239 250.581627 180.682267 253.061121 
C 186.668294 255.540614 193.084521 256.816881 199.56375 256.816881 
C 206.042979 256.816881 212.459206 255.540614 218.445233 253.061121 
C 224.431261 250.581627 229.870675 246.947126 234.452182 242.365619 
C 239.033689 237.784113 242.668189 232.344698 245.147683 226.358671 
C 247.627177 220.372644 248.903444 213.956417 248.903444 207.477187 
" clip-path="url(#p7d6d2add37)" style="fill: none; stroke: #b0b0b0; stroke-width: 0.8; stroke-linecap: square"/>
     </g>
     <g id="text_10">
      <!-- −27 -->
      <g transform="translate(245.147683 186.516017)scale(0.1 -0.1)">
       <use xlink:href="#DejaVuSans-2212"/>
       <use xlink:href="#DejaVuSans-32" x="83.789062"/>
       <use xlink:href="#DejaVuSans-37" x="147.412109"/>
      </g>
     </g>
    </g>
    <g id="ytick_3">
     <g id="line2d_11">
      <path d="M 261.901255 207.477187 
C 261.901255 199.291101 260.288775 191.184614 257.156095 183.621657 
C 254.023416 176.058699 249.43146 169.186352 243.643023 163.397915 
C 237.854586 157.609478 230.982238 153.017522 223.419281 149.884842 
C 215.856323 146.752163 207.749836 145.139682 199.56375 145.139682 
C 191.377664 145.139682 183.271177 146.752163 175.708219 149.884842 
C 168.145262 153.017522 161.272914 157.609478 155.484477 163.397915 
C 149.69604 169.186352 145.104084 176.058699 141.971405 183.621657 
C 138.838725 191.184614 137.226245 199.291101 137.226245 207.477187 
C 137.226245 215.663274 138.838725 223.769761 141.971405 231.332718 
C 145.104084 238.895676 149.69604 245.768023 155.484477 251.55646 
C 161.272914 257.344897 168.145262 261.936853 175.708219 265.069533 
C 183.271177 268.202212 191.377664 269.814693 199.56375 269.814693 
C 207.749836 269.814693 215.856323 268.202212 223.419281 265.069533 
C 230.982238 261.936853 237.854586 257.344897 243.643023 251.55646 
C 249.43146 245.768023 254.023416 238.895676 257.156095 231.332718 
C 260.288775 223.769761 261.901255 215.663274 261.901255 207.477188 
" clip-path="url(#p7d6d2add37)" style="fill: none; stroke: #b0b0b0; stroke-width: 0.8; stroke-linecap: square"/>
     </g>
     <g id="text_11">
      <!-- −24 -->
      <g transform="translate(257.156095 181.541969)scale(0.1 -0.1)">
       <use xlink:href="#DejaVuSans-2212"/>
       <use xlink:href="#DejaVuSans-32" x="83.789062"/>
       <use xlink:href="#DejaVuSans-34" x="147.412109"/>
      </g>
     </g>
    </g>
    <g id="ytick_4">
     <g id="line2d_12">
      <path d="M 274.899067 207.477187 
C 274.899067 197.584244 272.950373 187.787497 269.164508 178.64761 
C 265.378642 169.507722 259.829231 161.202441 252.833864 154.207074 
C 245.838496 147.211707 237.533216 141.662295 228.393328 137.87643 
C 219.25344 134.090564 209.456693 132.14187 199.56375 132.14187 
C 189.670807 132.14187 179.87406 134.090564 170.734172 137.87643 
C 161.594284 141.662295 153.289004 147.211707 146.293636 154.207074 
C 139.298269 161.202441 133.748858 169.507722 129.962992 178.64761 
C 126.177127 187.787497 124.228433 197.584244 124.228433 207.477187 
C 124.228433 217.370131 126.177127 227.166878 129.962992 236.306765 
C 133.748858 245.446653 139.298269 253.751934 146.293636 260.747301 
C 153.289004 267.742668 161.594284 273.29208 170.734172 277.077945 
C 179.87406 280.863811 189.670807 282.812505 199.56375 282.812505 
C 209.456693 282.812505 219.25344 280.863811 228.393328 277.077945 
C 237.533216 273.29208 245.838496 267.742668 252.833864 260.747301 
C 259.829231 253.751934 265.378642 245.446653 269.164508 236.306765 
C 272.950373 227.166878 274.899067 217.370131 274.899067 207.477188 
" clip-path="url(#p7d6d2add37)" style="fill: none; stroke: #b0b0b0; stroke-width: 0.8; stroke-linecap: square"/>
     </g>
     <g id="text_12">
      <!-- −21 -->
      <g transform="translate(269.164508 176.567922)scale(0.1 -0.1)">
       <use xlink:href="#DejaVuSans-2212"/>
       <use xlink:href="#DejaVuSans-32" x="83.789062"/>
       <use xlink:href="#DejaVuSans-31" x="147.412109"/>
      </g>
     </g>
    </g>
    <g id="ytick_5">
     <g id="line2d_13">
      <path d="M 287.896879 207.477187 
C 287.896879 195.877387 285.611971 184.39038 281.17292 173.673562 
C 276.733869 162.956744 270.227002 153.21853 262.024705 145.016233 
C 253.822407 136.813936 244.084193 130.307069 233.367375 125.868017 
C 222.650557 121.428966 211.16355 119.144058 199.56375 119.144058 
C 187.96395 119.144058 176.476943 121.428966 165.760125 125.868017 
C 155.043307 130.307069 145.305093 136.813936 137.102795 145.016233 
C 128.900498 153.21853 122.393631 162.956744 117.95458 173.673562 
C 113.515529 184.39038 111.230621 195.877387 111.230621 207.477187 
C 111.230621 219.076988 113.515529 230.563995 117.95458 241.280813 
C 122.393631 251.997631 128.900498 261.735845 137.102795 269.938142 
C 145.305093 278.140439 155.043307 284.647306 165.760125 289.086358 
C 176.476943 293.525409 187.96395 295.810317 199.56375 295.810317 
C 211.16355 295.810317 222.650557 293.525409 233.367375 289.086358 
C 244.084193 284.647306 253.822407 278.140439 262.024705 269.938142 
C 270.227002 261.735845 276.733869 251.997631 281.17292 241.280813 
C 285.611971 230.563995 287.896879 219.076988 287.896879 207.477188 
" clip-path="url(#p7d6d2add37)" style="fill: none; stroke: #b0b0b0; stroke-width: 0.8; stroke-linecap: square"/>
     </g>
     <g id="text_13">
      <!-- −18 -->
      <g transform="translate(281.17292 171.593875)scale(0.1 -0.1)">
       <use xlink:href="#DejaVuSans-2212"/>
       <use xlink:href="#DejaVuSans-31" x="83.789062"/>
       <use xlink:href="#DejaVuSans-38" x="147.412109"/>
      </g>
     </g>
    </g>
    <g id="ytick_6">
     <g id="line2d_14">
      <path d="M 300.894691 207.477187 
C 300.894691 194.17053 298.27357 180.993263 293.181332 168.699515 
C 288.089095 156.405767 280.624773 145.23462 271.215545 135.825392 
C 261.806318 126.416164 250.635171 118.951842 238.341422 113.859605 
C 226.047674 108.767368 212.870407 106.146247 199.56375 106.146247 
C 186.257093 106.146247 173.079826 108.767368 160.786078 113.859605 
C 148.492329 118.951842 137.321182 126.416164 127.911955 135.825392 
C 118.502727 145.23462 111.038405 156.405767 105.946168 168.699515 
C 100.85393 180.993263 98.232809 194.17053 98.232809 207.477187 
C 98.232809 220.783845 100.85393 233.961112 105.946168 246.25486 
C 111.038405 258.548608 118.502727 269.719755 127.911955 279.128983 
C 137.321182 288.538211 148.492329 296.002533 160.786078 301.09477 
C 173.079826 306.187007 186.257093 308.808128 199.56375 308.808128 
C 212.870407 308.808128 226.047674 306.187007 238.341422 301.09477 
C 250.635171 296.002533 261.806318 288.538211 271.215545 279.128983 
C 280.624773 269.719755 288.089095 258.548608 293.181332 246.25486 
C 298.27357 233.961112 300.894691 220.783845 300.894691 207.477188 
" clip-path="url(#p7d6d2add37)" style="fill: none; stroke: #b0b0b0; stroke-width: 0.8; stroke-linecap: square"/>
     </g>
     <g id="text_14">
      <!-- −15 -->
      <g transform="translate(293.181332 166.619828)scale(0.1 -0.1)">
       <use xlink:href="#DejaVuSans-2212"/>
       <use xlink:href="#DejaVuSans-31" x="83.789062"/>
       <use xlink:href="#DejaVuSans-35" x="147.412109"/>
      </g>
     </g>
    </g>
    <g id="ytick_7">
     <g id="line2d_15">
      <path d="M 313.892503 207.477187 
C 313.892503 192.463673 310.935168 177.596147 305.189745 163.725468 
C 299.444321 149.854789 291.022544 137.250709 280.406386 126.634551 
C 269.790229 116.018393 257.186148 107.596616 243.31547 101.851193 
C 229.444791 96.10577 214.577264 93.148435 199.56375 93.148435 
C 184.550236 93.148435 169.682709 96.10577 155.81203 101.851193 
C 141.941352 107.596616 129.337271 116.018393 118.721114 126.634551 
C 108.104956 137.250709 99.683179 149.854789 93.937755 163.725468 
C 88.192332 177.596147 85.234997 192.463673 85.234997 207.477187 
C 85.234997 222.490702 88.192332 237.358228 93.937755 251.228907 
C 99.683179 265.099586 108.104956 277.703666 118.721114 288.319824 
C 129.337271 298.935982 141.941352 307.357759 155.81203 313.103182 
C 169.682709 318.848605 184.550236 321.80594 199.56375 321.80594 
C 214.577264 321.80594 229.444791 318.848605 243.31547 313.103182 
C 257.186148 307.357759 269.790229 298.935982 280.406386 288.319824 
C 291.022544 277.703666 299.444321 265.099586 305.189745 251.228907 
C 310.935168 237.358228 313.892503 222.490702 313.892503 207.477188 
" clip-path="url(#p7d6d2add37)" style="fill: none; stroke: #b0b0b0; stroke-width: 0.8; stroke-linecap: square"/>
     </g>
     <g id="text_15">
      <!-- −12 -->
      <g transform="translate(305.189745 161.64578)scale(0.1 -0.1)">
       <use xlink:href="#DejaVuSans-2212"/>
       <use xlink:href="#DejaVuSans-31" x="83.789062"/>
       <use xlink:href="#DejaVuSans-32" x="147.412109"/>
      </g>
     </g>
    </g>
    <g id="ytick_8">
     <g id="line2d_16">
      <path d="M 326.890315 207.477187 
C 326.890315 190.756816 323.596766 174.19903 317.198157 158.751421 
C 310.799548 143.303812 301.420315 129.266798 289.597227 117.44371 
C 277.774139 105.620622 263.737126 96.24139 248.289517 89.842781 
C 232.841908 83.444172 216.284121 80.150623 199.56375 80.150623 
C 182.843379 80.150623 166.285592 83.444172 150.837983 89.842781 
C 135.390374 96.24139 121.353361 105.620622 109.530273 117.44371 
C 97.707185 129.266798 88.327952 143.303812 81.929343 158.751421 
C 75.530734 174.19903 72.237185 190.756816 72.237185 207.477187 
C 72.237185 224.197559 75.530734 240.755345 81.929343 256.202954 
C 88.327952 271.650563 97.707185 285.687577 109.530273 297.510665 
C 121.353361 309.333753 135.390374 318.712985 150.837983 325.111594 
C 166.285592 331.510203 182.843379 334.803752 199.56375 334.803752 
C 216.284121 334.803752 232.841908 331.510203 248.289517 325.111594 
C 263.737126 318.712985 277.774139 309.333753 289.597227 297.510665 
C 301.420315 285.687577 310.799548 271.650563 317.198157 256.202954 
C 323.596766 240.755345 326.890315 224.197559 326.890315 207.477188 
" clip-path="url(#p7d6d2add37)" style="fill: none; stroke: #b0b0b0; stroke-width: 0.8; stroke-linecap: square"/>
     </g>
     <g id="text_16">
      <!-- −9 -->
      <g transform="translate(317.198157 156.671733)scale(0.1 -0.1)">
       <use xlink:href="#DejaVuSans-2212"/>
       <use xlink:href="#DejaVuSans-39" x="83.789062"/>
      </g>
     </g>
    </g>
    <g id="ytick_9">
     <g id="line2d_17">
      <path d="M 339.888126 207.477187 
C 339.888126 189.049959 336.258364 170.801913 329.206569 153.777374 
C 322.154774 136.752834 311.818086 121.282887 298.788068 108.252869 
C 285.75805 95.222851 270.288103 84.886163 253.263564 77.834368 
C 236.239025 70.782573 217.990978 67.152811 199.56375 67.152811 
C 181.136522 67.152811 162.888475 70.782573 145.863936 77.834368 
C 128.839397 84.886163 113.36945 95.222851 100.339432 108.252869 
C 87.309414 121.282887 76.972726 136.752834 69.920931 153.777374 
C 62.869136 170.801913 59.239374 189.049959 59.239374 207.477187 
C 59.239374 225.904416 62.869136 244.152462 69.920931 261.177001 
C 76.972726 278.201541 87.309414 293.671488 100.339432 306.701506 
C 113.36945 319.731524 128.839397 330.068212 145.863936 337.120007 
C 162.888475 344.171802 181.136522 347.801564 199.56375 347.801564 
C 217.990978 347.801564 236.239025 344.171802 253.263564 337.120007 
C 270.288103 330.068212 285.75805 319.731524 298.788068 306.701506 
C 311.818086 293.671488 322.154774 278.201541 329.206569 261.177001 
C 336.258364 244.152462 339.888126 225.904416 339.888126 207.477188 
" clip-path="url(#p7d6d2add37)" style="fill: none; stroke: #b0b0b0; stroke-width: 0.8; stroke-linecap: square"/>
     </g>
     <g id="text_17">
      <!-- −6 -->
      <g transform="translate(329.206569 151.697686)scale(0.1 -0.1)">
       <defs>
        <path id="DejaVuSans-36" d="M 2113 2584 
Q 1688 2584 1439 2293 
Q 1191 2003 1191 1497 
Q 1191 994 1439 701 
Q 1688 409 2113 409 
Q 2538 409 2786 701 
Q 3034 994 3034 1497 
Q 3034 2003 2786 2293 
Q 2538 2584 2113 2584 
z
M 3366 4563 
L 3366 3988 
Q 3128 4100 2886 4159 
Q 2644 4219 2406 4219 
Q 1781 4219 1451 3797 
Q 1122 3375 1075 2522 
Q 1259 2794 1537 2939 
Q 1816 3084 2150 3084 
Q 2853 3084 3261 2657 
Q 3669 2231 3669 1497 
Q 3669 778 3244 343 
Q 2819 -91 2113 -91 
Q 1303 -91 875 529 
Q 447 1150 447 2328 
Q 447 3434 972 4092 
Q 1497 4750 2381 4750 
Q 2619 4750 2861 4703 
Q 3103 4656 3366 4563 
z
" transform="scale(0.015625)"/>
       </defs>
       <use xlink:href="#DejaVuSans-2212"/>
       <use xlink:href="#DejaVuSans-36" x="83.789062"/>
      </g>
     </g>
    </g>
    <g id="ytick_10">
     <g id="line2d_18">
      <path d="M 352.885938 207.477187 
C 352.885938 187.343102 348.919962 167.404796 341.214982 148.803326 
C 333.510001 130.201857 322.215857 113.298977 307.978909 99.062029 
C 293.741961 84.82508 276.839081 73.530937 258.237611 65.825956 
C 239.636142 58.120975 219.697835 54.154999 199.56375 54.154999 
C 179.429665 54.154999 159.491358 58.120975 140.889889 65.825956 
C 122.288419 73.530937 105.385539 84.82508 91.148591 99.062029 
C 76.911643 113.298977 65.617499 130.201857 57.912518 148.803326 
C 50.207538 167.404796 46.241562 187.343102 46.241562 207.477187 
C 46.241562 227.611273 50.207538 247.549579 57.912518 266.151049 
C 65.617499 284.752518 76.911643 301.655398 91.148591 315.892346 
C 105.385539 330.129295 122.288419 341.423438 140.889889 349.128419 
C 159.491358 356.8334 179.429665 360.799376 199.56375 360.799376 
C 219.697835 360.799376 239.636142 356.8334 258.237611 349.128419 
C 276.839081 341.423438 293.741961 330.129295 307.978909 315.892346 
C 322.215857 301.655398 333.510001 284.752518 341.214982 266.151049 
C 348.919962 247.549579 352.885938 227.611273 352.885938 207.477188 
" clip-path="url(#p7d6d2add37)" style="fill: none; stroke: #b0b0b0; stroke-width: 0.8; stroke-linecap: square"/>
     </g>
     <g id="text_18">
      <!-- −3 -->
      <g transform="translate(341.214982 146.723639)scale(0.1 -0.1)">
       <use xlink:href="#DejaVuSans-2212"/>
       <use xlink:href="#DejaVuSans-33" x="83.789062"/>
      </g>
     </g>
    </g>
   </g>
   <g id="line2d_19">
    <path d="M 302.515085 207.477187 
L 279.163222 206.087774 
L 267.912242 205.090406 
L 287.758515 202.855096 
L 307.334065 199.941153 
L 317.411011 197.166888 
L 327.976678 193.980445 
L 335.105201 190.83479 
L 339.543624 187.804299 
L 344.973086 184.446611 
L 348.589643 181.199902 
L 354.129392 174.623246 
L 355.592592 171.455091 
L 357.847838 165.065094 
L 357.891502 162.077435 
L 357.501812 159.190676 
L 356.902877 156.354606 
L 355.908867 153.643246 
L 354.505821 151.082886 
L 350.53517 146.480775 
L 348.195352 144.386815 
L 345.674451 142.424512 
L 343.31531 140.444734 
L 339.716973 139.119893 
L 332.062459 137.026374 
L 321.37714 137.148194 
L 315.856632 137.601375 
L 308.626706 139.327089 
L 303.634473 139.89287 
L 299.633846 139.979056 
L 298.653544 138.093767 
L 299.421975 134.925941 
L 301.849875 130.399063 
L 304.924064 125.160689 
L 307.811864 116.646235 
L 308.727949 112.582197 
L 308.465429 109.421676 
L 308.496147 105.896084 
L 307.931551 102.827618 
L 306.805545 100.235393 
L 305.790391 97.47628 
L 304.362662 95.094113 
L 302.472318 93.185644 
L 301.056053 90.723648 
L 299.429062 88.462344 
L 297.404921 86.653404 
L 290.1946 78.042919 
L 286.091781 74.235704 
L 284.06776 72.242502 
L 277.475054 66.921475 
L 272.805511 63.732138 
L 260.64456 56.296878 
L 258.23746 54.626947 
L 250.604662 50.389414 
L 248.004803 49.033644 
L 245.332519 47.862523 
L 242.610534 46.824404 
L 239.783429 46.164865 
L 236.870401 45.88433 
L 230.888232 46.326696 
L 221.895789 48.576476 
L 218.911679 49.900951 
L 215.965268 51.42717 
L 213.107913 52.6667 
L 204.755246 58.812182 
L 202.106812 61.785245 
L 199.56375 63.964015 
L 197.087304 65.601688 
L 194.656974 66.965505 
L 192.23085 67.557127 
L 189.795768 67.788534 
L 187.294403 67.237912 
L 184.747314 66.508214 
L 182.128279 65.476672 
L 179.375312 63.828988 
L 173.862011 61.715383 
L 171.101302 61.050588 
L 168.473573 61.209404 
L 165.863207 61.5041 
L 163.327047 62.139712 
L 155.846337 64.483972 
L 148.342544 66.74808 
L 145.922232 67.736254 
L 143.647396 69.079355 
L 141.486005 70.654595 
L 139.49642 72.563755 
L 137.969478 75.387845 
L 136.355427 77.88092 
L 135.096602 80.953286 
L 134.747212 85.575008 
L 134.549443 90.188273 
L 135.623181 96.728873 
L 138.785583 106.325331 
L 142.546617 116.230701 
L 152.924176 135.658542 
L 179.706798 178.038045 
L 177.948528 176.607452 
L 149.028212 137.920987 
L 137.269732 124.810234 
L 129.450685 117.736557 
L 121.337711 110.876074 
L 116.137964 108.054207 
L 111.934046 106.670744 
L 108.005072 105.790974 
L 105.381537 106.47913 
L 103.344293 107.839023 
L 102.107137 110.020574 
L 101.402861 112.684319 
L 101.309757 115.853857 
L 101.634987 119.301733 
L 101.153054 124.900809 
L 100.703335 127.421602 
L 98.786259 131.535901 
L 97.556868 133.36485 
L 95.757254 134.791096 
L 93.157558 135.705304 
L 90.33691 136.544448 
L 87.884723 137.692386 
L 84.745233 138.487263 
L 82.736961 140.027209 
L 81.460119 142.011276 
L 81.349317 144.621458 
L 81.594447 147.368825 
L 82.128815 150.200342 
L 83.585545 153.395663 
L 84.654204 156.316162 
L 86.498763 159.483948 
L 93.665945 166.826829 
L 99.959005 171.224025 
L 118.421856 181.112588 
L 131.443923 186.650866 
L 133.847904 188.633472 
L 126.054681 187.780492 
L 113.551811 186.032003 
L 104.392911 185.505268 
L 92.698574 186.704702 
L 89.1565 188.009411 
L 87.01059 189.650518 
L 85.39945 191.432441 
L 85.209923 193.436303 
L 85.688947 195.508463 
L 87.525983 197.675153 
L 89.960886 199.813009 
L 94.278653 201.959429 
L 101.386132 204.04875 
L 106.500596 205.852764 
L 112.924669 207.477187 
L 116.607021 208.925203 
L 118.316294 210.314411 
L 114.436591 211.938513 
L 108.69265 213.831514 
L 101.553364 216.051985 
L 95.767393 218.386624 
L 91.535678 220.741367 
L 87.458861 223.232502 
L 84.990779 225.623763 
L 84.083297 227.839507 
L 83.461054 230.045265 
L 83.809035 232.081612 
L 84.961072 233.9353 
L 88.374611 235.199753 
L 93.926635 235.782567 
L 100.154945 235.982204 
L 112.335071 234.145671 
L 125.731713 231.46667 
L 140.77815 227.718693 
L 161.615014 221.289398 
L 136.278274 231.770206 
L 123.499575 238.209109 
L 108.96021 245.936109 
L 101.194814 251.273859 
L 97.050106 255.280085 
L 91.147593 260.35528 
L 88.755449 263.936837 
L 87.508311 267.058121 
L 85.783802 270.546442 
L 85.727421 273.200623 
L 86.182461 275.603539 
L 87.359304 277.590307 
L 88.992468 279.283018 
L 90.984463 280.714841 
L 96.578931 282.300038 
L 100.364097 282.229487 
L 105.808093 280.727135 
L 109.420668 280.473616 
L 113.084741 280.041692 
L 115.423772 280.618955 
L 116.207585 282.531415 
L 114.779756 286.539541 
L 111.600424 292.422384 
L 110.495311 296.545626 
L 108.737639 301.530378 
L 108.410237 305.227363 
L 109.022648 308.033268 
L 109.540708 311.036851 
L 110.955183 313.076766 
L 112.945248 314.442129 
L 115.788174 314.705035 
L 118.772651 314.690597 
L 122.061834 314.149424 
L 126.407979 311.954456 
L 130.103181 310.456715 
L 133.730334 308.851758 
L 136.588678 308.25837 
L 137.660929 310.500782 
L 137.427711 315.099965 
L 136.217231 321.757333 
L 136.440037 331.36445 
L 136.856839 336.045408 
L 138.106806 339.27203 
L 139.535189 342.303543 
L 141.540177 344.172158 
L 143.895718 345.260401 
L 151.610425 346.743756 
L 154.261142 346.904279 
L 156.717847 347.61982 
L 159.133178 348.475348 
L 161.518234 349.464987 
L 163.974805 350.216649 
L 169.023961 351.155598 
L 171.610549 351.283937 
L 174.260004 350.981865 
L 176.973723 350.105003 
L 179.614093 349.426373 
L 184.945223 346.563185 
L 187.468482 345.726733 
L 189.915148 345.458632 
L 192.306358 345.956468 
L 194.696892 346.845759 
L 197.104846 348.347676 
L 202.059553 350.461665 
L 204.591491 351.452842 
L 207.119092 351.641707 
L 212.178611 351.665711 
L 214.760153 352.061303 
L 217.412654 352.844845 
L 220.159201 354.021433 
L 222.941344 355.077506 
L 225.830503 356.443346 
L 228.830576 358.041957 
L 231.635798 358.36431 
L 234.39778 358.359948 
L 237.097016 358.014896 
L 242.238275 356.300943 
L 245.008984 356.121851 
L 247.846634 356.076626 
L 251.015259 356.903219 
L 253.973871 356.967767 
L 256.7469 356.444387 
L 259.396456 355.568332 
L 261.78398 354.058864 
L 264.017268 352.242158 
L 271.519749 342.806739 
L 273.761391 341.333274 
L 276.240008 340.284362 
L 281.514686 338.6261 
L 287.141728 337.31688 
L 289.844204 336.411038 
L 292.928691 335.983005 
L 295.970724 335.413563 
L 298.877032 334.592392 
L 301.969243 333.937439 
L 304.801219 332.894319 
L 307.352066 331.473461 
L 309.772196 329.876067 
L 316.826625 324.740063 
L 322.925336 318.552458 
L 324.733903 316.285941 
L 326.139201 313.686602 
L 326.781592 310.496164 
L 327.143277 307.153238 
L 325.97073 302.731679 
L 324.077201 297.941505 
L 322.528079 293.577738 
L 309.666521 276.277035 
L 301.075841 268.471806 
L 295.299732 262.750382 
L 290.952246 258.134658 
L 290.173648 255.655325 
L 294.679613 255.94114 
L 301.613023 257.249943 
L 312.71475 260.240365 
L 319.373338 260.819853 
L 333.783777 261.705599 
L 338.27325 260.722776 
L 342.568723 259.526741 
L 346.130384 257.944127 
L 348.24972 255.788188 
L 350.048034 253.48485 
L 351.186229 250.954234 
L 352.013984 248.326105 
L 352.585968 245.629911 
L 352.966782 242.893068 
L 353.146194 240.122144 
L 353.058838 237.31361 
L 353.150833 234.558734 
L 353.026658 231.783324 
L 352.054545 228.908371 
L 350.698123 226.034155 
L 348.59031 223.14051 
L 340.4669 217.330096 
L 334.871584 214.568371 
L 325.531081 211.876064 
L 316.786156 209.523312 
L 316.786156 209.523312 
" clip-path="url(#p7d6d2add37)" style="fill: none; stroke: #ff0000; stroke-width: 1.5; stroke-linecap: square"/>
   </g>
   <g id="line2d_20">
    <path d="M 330.832984 207.477187 
L 331.202866 205.179418 
L 331.359214 202.874788 
L 331.345351 200.570806 
L 331.118306 198.277997 
L 330.721916 196.002335 
L 330.113878 193.755816 
L 329.338486 191.542854 
L 328.311254 189.382906 
L 327.120003 187.274262 
L 325.723959 185.231739 
L 324.125667 183.264804 
L 322.327995 181.382842 
L 320.334126 179.595149 
L 318.147561 177.910923 
L 315.730259 176.350465 
L 313.170243 174.90105 
L 307.719978 172.335099 
L 302.315622 170.078565 
L 300.029343 168.91206 
L 298.216193 167.619013 
L 297.146611 166.055721 
L 296.883808 164.147506 
L 297.40858 161.851394 
L 298.544457 159.201071 
L 301.848959 153.091177 
L 305.254172 146.456794 
L 306.735621 143.08183 
L 307.983711 139.728876 
L 308.965004 136.431182 
L 309.719877 133.175942 
L 310.216386 129.997378 
L 310.424641 126.932035 
L 310.42072 123.940469 
L 310.140868 121.084875 
L 309.626392 118.350217 
L 308.91708 115.718848 
L 307.952993 113.255856 
L 306.807256 110.914701 
L 305.422541 108.762268 
L 303.870602 106.749231 
L 302.158043 104.882894 
L 300.231513 103.232667 
L 298.160477 101.745143 
L 295.952292 100.426866 
L 293.614535 99.284136 
L 291.127143 98.356185 
L 288.581656 97.549228 
L 285.929388 96.934211 
L 283.204766 96.481811 
L 280.439965 96.160627 
L 274.8341 95.884304 
L 269.263602 95.934108 
L 263.811934 96.196069 
L 250.939001 97.302605 
L 248.655919 97.21437 
L 246.554803 96.773205 
L 244.680516 95.809274 
L 243.05083 94.18947 
L 241.630162 91.90067 
L 240.354262 89.012938 
L 236.582414 78.377765 
L 235.119846 74.780031 
L 233.500808 71.363084 
L 231.724387 68.174164 
L 229.783755 65.303241 
L 227.686424 62.798572 
L 225.465614 60.580419 
L 223.12163 58.738585 
L 220.678971 57.234583 
L 218.153982 56.071895 
L 215.56311 55.253446 
L 212.926659 54.738437 
L 210.258965 54.528484 
L 207.576676 54.581455 
L 204.891936 54.897894 
L 202.217663 55.434615 
L 199.56375 56.191323 
L 194.348968 58.145367 
L 189.288631 60.536134 
L 184.393161 63.138678 
L 177.334296 67.125939 
L 168.358244 72.311293 
L 166.16125 73.507077 
L 161.756896 75.629019 
L 155.091682 78.320922 
L 150.657864 80.072999 
L 148.490494 81.066442 
L 146.393674 82.216337 
L 144.374269 83.519584 
L 142.457351 85.01212 
L 140.67061 86.728357 
L 139.024624 88.662462 
L 137.570451 90.88475 
L 136.30125 93.348617 
L 135.228914 96.045983 
L 134.387383 99.005498 
L 133.76698 102.180344 
L 133.378738 105.561206 
L 133.209161 109.102464 
L 133.266798 112.795328 
L 133.53445 116.595653 
L 133.992197 120.460798 
L 134.590799 124.315602 
L 135.330601 128.155855 
L 136.211841 131.977322 
L 137.291488 135.841145 
L 138.630931 139.804436 
L 140.354891 143.98346 
L 142.686825 148.579408 
L 145.987275 153.900712 
L 150.794967 160.381721 
L 158.218997 168.922582 
L 170.785605 181.565229 
L 193.58645 202.2812 
L 182.21219 192.9175 
L 159.468732 175.008882 
L 144.705373 164.617126 
L 133.689008 157.837009 
L 124.735803 153.111502 
L 117.055171 149.704059 
L 110.34835 147.30064 
L 104.333643 145.634033 
L 98.859727 144.55033 
L 93.840247 143.952098 
L 89.220668 143.770579 
L 84.980454 143.962629 
L 81.020327 144.446531 
L 77.313288 145.187466 
L 73.869389 146.171951 
L 70.698206 147.386197 
L 67.690085 148.763249 
L 64.93067 150.328836 
L 62.306779 152.021772 
L 59.903714 153.866722 
L 57.686532 155.838103 
L 55.577947 157.8989 
L 53.663273 160.071249 
L 51.90519 162.333435 
L 50.265211 164.66652 
L 48.745656 167.065601 
L 46.118502 172.051561 
L 43.99745 177.238162 
L 42.309416 182.570548 
L 40.976941 188.005176 
L 40.091856 193.525205 
L 39.742988 196.301431 
L 39.363718 201.882879 
L 39.247164 204.678851 
L 39.333803 210.274012 
L 39.658819 215.85745 
L 40.22134 221.417842 
L 41.062947 226.938639 
L 42.095452 232.417716 
L 43.40203 237.831951 
L 44.89425 243.185455 
L 46.653169 248.449454 
L 48.590558 253.634324 
L 50.82594 258.691723 
L 53.310634 263.618499 
L 54.634079 266.032575 
L 57.557526 270.702432 
L 59.114521 272.969738 
L 62.528038 277.30037 
L 66.223019 281.389162 
L 70.257831 285.172022 
L 74.610571 288.622731 
L 76.907841 290.209643 
L 81.692559 293.115621 
L 86.733301 295.629996 
L 91.969472 297.759506 
L 94.607858 298.713953 
L 100.042291 300.28245 
L 105.516939 301.523999 
L 111.042989 302.404081 
L 116.513223 303.01589 
L 121.724887 303.600178 
L 124.134523 304.022196 
L 126.30029 304.701082 
L 128.161038 305.754589 
L 129.663433 307.305186 
L 130.810628 309.407883 
L 131.608959 312.11839 
L 132.182788 315.309268 
L 134.092253 330.611165 
L 134.854666 334.475915 
L 135.808432 338.194962 
L 136.945928 341.76154 
L 138.276957 345.129577 
L 139.791429 348.291951 
L 141.495269 351.201722 
L 143.375859 353.851649 
L 145.405541 356.275643 
L 147.587514 358.427138 
L 149.895158 360.341396 
L 152.304557 362.055042 
L 154.830377 363.481 
L 157.425268 364.740142 
L 160.102933 365.745881 
L 162.832127 366.579325 
L 165.596421 367.280907 
L 171.201706 368.326333 
L 185.31723 370.315652 
L 193.822772 371.877285 
L 199.56375 372.800689 
L 202.455848 373.165384 
L 205.35765 373.392772 
L 208.263731 373.482718 
L 211.165647 373.39204 
L 214.051941 373.077967 
L 216.912694 372.54136 
L 219.743297 371.826411 
L 222.524096 370.848536 
L 225.256601 369.695466 
L 227.925794 368.326333 
L 233.062664 365.077185 
L 237.93449 361.373818 
L 244.935514 355.88154 
L 247.264235 354.284186 
L 249.607522 352.814855 
L 254.385295 350.292195 
L 264.067541 345.806013 
L 266.376923 344.464492 
L 268.619818 343.007352 
L 270.730544 341.32246 
L 272.719549 339.453742 
L 274.556792 337.368946 
L 276.187486 335.000499 
L 277.620788 332.394561 
L 278.821529 329.523465 
L 279.752306 326.361611 
L 280.398417 322.921056 
L 280.720096 319.179315 
L 280.675562 315.116198 
L 280.221115 310.713907 
L 279.283964 305.923453 
L 277.787261 300.700337 
L 275.650289 295.004738 
L 272.672696 288.672898 
L 268.641737 281.55426 
L 263.272648 273.449682 
L 256.081294 263.994732 
L 246.930056 253.218298 
L 238.75381 244.02251 
L 240.802336 244.608577 
L 250.043813 251.358837 
L 258.867055 257.238569 
L 265.989221 261.267473 
L 271.73181 263.861055 
L 276.407235 265.382907 
L 280.210246 266.070297 
L 283.3145 266.120094 
L 285.79788 265.642843 
L 287.780956 264.766111 
L 289.208261 263.493295 
L 290.209361 261.942565 
L 290.733371 260.113993 
L 290.842354 258.073744 
L 290.525591 255.842456 
L 289.773072 253.441133 
L 288.692337 250.948104 
L 287.277765 248.378904 
L 282.790451 241.102957 
L 282.191624 239.195057 
L 282.56974 237.688897 
L 284.149469 236.602386 
L 286.828783 235.831316 
L 301.878441 232.987105 
L 305.558668 231.948042 
L 309.020907 230.743024 
L 312.217262 229.374812 
L 315.142339 227.856811 
L 317.791211 226.202578 
L 320.202323 224.431833 
L 322.328982 222.550863 
L 324.210726 220.578113 
L 325.887864 218.529115 
L 327.271681 216.407396 
L 328.489751 214.233913 
L 329.497329 212.014568 
L 330.249838 209.758322 
L 330.249838 209.758322 
" clip-path="url(#p7d6d2add37)" style="fill: none; stroke-dasharray: 5.55,2.4; stroke-dashoffset: 0; stroke: #0000ff; stroke-width: 1.5"/>
   </g>
   <g id="patch_3">
    <path d="M 365.88375 207.477187 
C 365.88375 185.636245 361.581561 164.007679 353.223394 143.829279 
C 344.865227 123.650879 332.613628 105.315066 317.16975 89.871188 
C 301.725871 74.427309 283.390058 62.17571 263.211658 53.817544 
C 243.033259 45.459377 221.404692 41.157187 199.56375 41.157187 
C 177.722808 41.157187 156.094241 45.459377 135.915842 53.817544 
C 115.737442 62.17571 97.401629 74.427309 81.95775 89.871188 
C 66.513872 105.315066 54.262273 123.650879 45.904106 143.829279 
C 37.545939 164.007679 33.24375 185.636245 33.24375 207.477187 
C 33.24375 229.31813 37.545939 250.946696 45.904106 271.125096 
C 54.262273 291.303496 66.513872 309.639309 81.95775 325.083187 
C 97.401629 340.527066 115.737442 352.778665 135.915842 361.136831 
C 156.094241 369.494998 177.722808 373.797188 199.56375 373.797188 
C 221.404692 373.797188 243.033259 369.494998 263.211658 361.136831 
C 283.390058 352.778665 301.725871 340.527066 317.16975 325.083187 
C 332.613628 309.639309 344.865227 291.303496 353.223394 271.125096 
C 361.581561 250.946696 365.88375 229.31813 365.88375 207.477188 
" style="fill: none; stroke: #000000; stroke-width: 0.8; stroke-linejoin: miter; stroke-linecap: square"/>
   </g>
   <g id="text_19">
    <!-- Radiation Diagram - 4AVHF18 -->
    <g transform="translate(110.319375 16.318125)scale(0.12 -0.12)">
     <defs>
      <path id="DejaVuSans-52" d="M 2841 2188 
Q 3044 2119 3236 1894 
Q 3428 1669 3622 1275 
L 4263 0 
L 3584 0 
L 2988 1197 
Q 2756 1666 2539 1819 
Q 2322 1972 1947 1972 
L 1259 1972 
L 1259 0 
L 628 0 
L 628 4666 
L 2053 4666 
Q 2853 4666 3247 4331 
Q 3641 3997 3641 3322 
Q 3641 2881 3436 2590 
Q 3231 2300 2841 2188 
z
M 1259 4147 
L 1259 2491 
L 2053 2491 
Q 2509 2491 2742 2702 
Q 2975 2913 2975 3322 
Q 2975 3731 2742 3939 
Q 2509 4147 2053 4147 
L 1259 4147 
z
" transform="scale(0.015625)"/>
      <path id="DejaVuSans-61" d="M 2194 1759 
Q 1497 1759 1228 1600 
Q 959 1441 959 1056 
Q 959 750 1161 570 
Q 1363 391 1709 391 
Q 2188 391 2477 730 
Q 2766 1069 2766 1631 
L 2766 1759 
L 2194 1759 
z
M 3341 1997 
L 3341 0 
L 2766 0 
L 2766 531 
Q 2569 213 2275 61 
Q 1981 -91 1556 -91 
Q 1019 -91 701 211 
Q 384 513 384 1019 
Q 384 1609 779 1909 
Q 1175 2209 1959 2209 
L 2766 2209 
L 2766 2266 
Q 2766 2663 2505 2880 
Q 2244 3097 1772 3097 
Q 1472 3097 1187 3025 
Q 903 2953 641 2809 
L 641 3341 
Q 956 3463 1253 3523 
Q 1550 3584 1831 3584 
Q 2591 3584 2966 3190 
Q 3341 2797 3341 1997 
z
" transform="scale(0.015625)"/>
      <path id="DejaVuSans-64" d="M 2906 2969 
L 2906 4863 
L 3481 4863 
L 3481 0 
L 2906 0 
L 2906 525 
Q 2725 213 2448 61 
Q 2172 -91 1784 -91 
Q 1150 -91 751 415 
Q 353 922 353 1747 
Q 353 2572 751 3078 
Q 1150 3584 1784 3584 
Q 2172 3584 2448 3432 
Q 2725 3281 2906 2969 
z
M 947 1747 
Q 947 1113 1208 752 
Q 1469 391 1925 391 
Q 2381 391 2643 752 
Q 2906 1113 2906 1747 
Q 2906 2381 2643 2742 
Q 2381 3103 1925 3103 
Q 1469 3103 1208 2742 
Q 947 2381 947 1747 
z
" transform="scale(0.015625)"/>
      <path id="DejaVuSans-69" d="M 603 3500 
L 1178 3500 
L 1178 0 
L 603 0 
L 603 3500 
z
M 603 4863 
L 1178 4863 
L 1178 4134 
L 603 4134 
L 603 4863 
z
" transform="scale(0.015625)"/>
      <path id="DejaVuSans-74" d="M 1172 4494 
L 1172 3500 
L 2356 3500 
L 2356 3053 
L 1172 3053 
L 1172 1153 
Q 1172 725 1289 603 
Q 1406 481 1766 481 
L 2356 481 
L 2356 0 
L 1766 0 
Q 1100 0 847 248 
Q 594 497 594 1153 
L 594 3053 
L 172 3053 
L 172 3500 
L 594 3500 
L 594 4494 
L 1172 4494 
z
" transform="scale(0.015625)"/>
      <path id="DejaVuSans-6f" d="M 1959 3097 
Q 1497 3097 1228 2736 
Q 959 2375 959 1747 
Q 959 1119 1226 758 
Q 1494 397 1959 397 
Q 2419 397 2687 759 
Q 2956 1122 2956 1747 
Q 2956 2369 2687 2733 
Q 2419 3097 1959 3097 
z
M 1959 3584 
Q 2709 3584 3137 3096 
Q 3566 2609 3566 1747 
Q 3566 888 3137 398 
Q 2709 -91 1959 -91 
Q 1206 -91 779 398 
Q 353 888 353 1747 
Q 353 2609 779 3096 
Q 1206 3584 1959 3584 
z
" transform="scale(0.015625)"/>
      <path id="DejaVuSans-6e" d="M 3513 2113 
L 3513 0 
L 2938 0 
L 2938 2094 
Q 2938 2591 2744 2837 
Q 2550 3084 2163 3084 
Q 1697 3084 1428 2787 
Q 1159 2491 1159 1978 
L 1159 0 
L 581 0 
L 581 3500 
L 1159 3500 
L 1159 2956 
Q 1366 3272 1645 3428 
Q 1925 3584 2291 3584 
Q 2894 3584 3203 3211 
Q 3513 2838 3513 2113 
z
" transform="scale(0.015625)"/>
      <path id="DejaVuSans-20" transform="scale(0.015625)"/>
      <path id="DejaVuSans-44" d="M 1259 4147 
L 1259 519 
L 2022 519 
Q 2988 519 3436 956 
Q 3884 1394 3884 2338 
Q 3884 3275 3436 3711 
Q 2988 4147 2022 4147 
L 1259 4147 
z
M 628 4666 
L 1925 4666 
Q 3281 4666 3915 4102 
Q 4550 3538 4550 2338 
Q 4550 1131 3912 565 
Q 3275 0 1925 0 
L 628 0 
L 628 4666 
z
" transform="scale(0.015625)"/>
      <path id="DejaVuSans-67" d="M 2906 1791 
Q 2906 2416 2648 2759 
Q 2391 3103 1925 3103 
Q 1463 3103 1205 2759 
Q 947 2416 947 1791 
Q 947 1169 1205 825 
Q 1463 481 1925 481 
Q 2391 481 2648 825 
Q 2906 1169 2906 1791 
z
M 3481 434 
Q 3481 -459 3084 -895 
Q 2688 -1331 1869 -1331 
Q 1566 -1331 1297 -1286 
Q 1028 -1241 775 -1147 
L 775 -588 
Q 1028 -725 1275 -790 
Q 1522 -856 1778 -856 
Q 2344 -856 2625 -561 
Q 2906 -266 2906 331 
L 2906 616 
Q 2728 306 2450 153 
Q 2172 0 1784 0 
Q 1141 0 747 490 
Q 353 981 353 1791 
Q 353 2603 747 3093 
Q 1141 3584 1784 3584 
Q 2172 3584 2450 3431 
Q 2728 3278 2906 2969 
L 2906 3500 
L 3481 3500 
L 3481 434 
z
" transform="scale(0.015625)"/>
      <path id="DejaVuSans-72" d="M 2631 2963 
Q 2534 3019 2420 3045 
Q 2306 3072 2169 3072 
Q 1681 3072 1420 2755 
Q 1159 2438 1159 1844 
L 1159 0 
L 581 0 
L 581 3500 
L 1159 3500 
L 1159 2956 
Q 1341 3275 1631 3429 
Q 1922 3584 2338 3584 
Q 2397 3584 2469 3576 
Q 2541 3569 2628 3553 
L 2631 2963 
z
" transform="scale(0.015625)"/>
      <path id="DejaVuSans-6d" d="M 3328 2828 
Q 3544 3216 3844 3400 
Q 4144 3584 4550 3584 
Q 5097 3584 5394 3201 
Q 5691 2819 5691 2113 
L 5691 0 
L 5113 0 
L 5113 2094 
Q 5113 2597 4934 2840 
Q 4756 3084 4391 3084 
Q 3944 3084 3684 2787 
Q 3425 2491 3425 1978 
L 3425 0 
L 2847 0 
L 2847 2094 
Q 2847 2600 2669 2842 
Q 2491 3084 2119 3084 
Q 1678 3084 1418 2786 
Q 1159 2488 1159 1978 
L 1159 0 
L 581 0 
L 581 3500 
L 1159 3500 
L 1159 2956 
Q 1356 3278 1631 3431 
Q 1906 3584 2284 3584 
Q 2666 3584 2933 3390 
Q 3200 3197 3328 2828 
z
" transform="scale(0.015625)"/>
      <path id="DejaVuSans-2d" d="M 313 2009 
L 1997 2009 
L 1997 1497 
L 313 1497 
L 313 2009 
z
" transform="scale(0.015625)"/>
      <path id="DejaVuSans-41" d="M 2188 4044 
L 1331 1722 
L 3047 1722 
L 2188 4044 
z
M 1831 4666 
L 2547 4666 
L 4325 0 
L 3669 0 
L 3244 1197 
L 1141 1197 
L 716 0 
L 50 0 
L 1831 4666 
z
" transform="scale(0.015625)"/>
      <path id="DejaVuSans-56" d="M 1831 0 
L 50 4666 
L 709 4666 
L 2188 738 
L 3669 4666 
L 4325 4666 
L 2547 0 
L 1831 0 
z
" transform="scale(0.015625)"/>
      <path id="DejaVuSans-48" d="M 628 4666 
L 1259 4666 
L 1259 2753 
L 3553 2753 
L 3553 4666 
L 4184 4666 
L 4184 0 
L 3553 0 
L 3553 2222 
L 1259 2222 
L 1259 0 
L 628 0 
L 628 4666 
z
" transform="scale(0.015625)"/>
      <path id="DejaVuSans-46" d="M 628 4666 
L 3309 4666 
L 3309 4134 
L 1259 4134 
L 1259 2759 
L 3109 2759 
L 3109 2228 
L 1259 2228 
L 1259 0 
L 628 0 
L 628 4666 
z
" transform="scale(0.015625)"/>
     </defs>
     <use xlink:href="#DejaVuSans-52"/>
     <use xlink:href="#DejaVuSans-61" x="67.232422"/>
     <use xlink:href="#DejaVuSans-64" x="128.511719"/>
     <use xlink:href="#DejaVuSans-69" x="191.988281"/>
     <use xlink:href="#DejaVuSans-61" x="219.771484"/>
     <use xlink:href="#DejaVuSans-74" x="281.050781"/>
     <use xlink:href="#DejaVuSans-69" x="320.259766"/>
     <use xlink:href="#DejaVuSans-6f" x="348.042969"/>
     <use xlink:href="#DejaVuSans-6e" x="409.224609"/>
     <use xlink:href="#DejaVuSans-20" x="472.603516"/>
     <use xlink:href="#DejaVuSans-44" x="504.390625"/>
     <use xlink:href="#DejaVuSans-69" x="581.392578"/>
     <use xlink:href="#DejaVuSans-61" x="609.175781"/>
     <use xlink:href="#DejaVuSans-67" x="670.455078"/>
     <use xlink:href="#DejaVuSans-72" x="733.931641"/>
     <use xlink:href="#DejaVuSans-61" x="775.044922"/>
     <use xlink:href="#DejaVuSans-6d" x="836.324219"/>
     <use xlink:href="#DejaVuSans-20" x="933.736328"/>
     <use xlink:href="#DejaVuSans-2d" x="965.523438"/>
     <use xlink:href="#DejaVuSans-20" x="1001.607422"/>
     <use xlink:href="#DejaVuSans-34" x="1033.394531"/>
     <use xlink:href="#DejaVuSans-41" x="1097.017578"/>
     <use xlink:href="#DejaVuSans-56" x="1159.050781"/>
     <use xlink:href="#DejaVuSans-48" x="1227.458984"/>
     <use xlink:href="#DejaVuSans-46" x="1302.654297"/>
     <use xlink:href="#DejaVuSans-31" x="1360.173828"/>
     <use xlink:href="#DejaVuSans-38" x="1423.796875"/>
    </g>
   </g>
   <g id="legend_1">
    <g id="patch_4">
     <path d="M 304.104062 78.513437 
L 358.88375 78.513437 
Q 360.88375 78.513437 360.88375 76.513437 
L 360.88375 48.157187 
Q 360.88375 46.157187 358.88375 46.157187 
L 304.104062 46.157187 
Q 302.104062 46.157187 302.104062 48.157187 
L 302.104062 76.513437 
Q 302.104062 78.513437 304.104062 78.513437 
z
" style="fill: #ffffff; opacity: 0.8; stroke: #cccccc; stroke-linejoin: miter"/>
    </g>
    <g id="line2d_21">
     <path d="M 306.104062 54.255625 
L 316.104062 54.255625 
L 326.104062 54.255625 
" style="fill: none; stroke: #ff0000; stroke-width: 1.5; stroke-linecap: square"/>
    </g>
    <g id="text_20">
     <!-- INPE -->
     <g transform="translate(334.104062 57.755625)scale(0.1 -0.1)">
      <defs>
       <path id="DejaVuSans-49" d="M 628 4666 
L 1259 4666 
L 1259 0 
L 628 0 
L 628 4666 
z
" transform="scale(0.015625)"/>
       <path id="DejaVuSans-4e" d="M 628 4666 
L 1478 4666 
L 3547 763 
L 3547 4666 
L 4159 4666 
L 4159 0 
L 3309 0 
L 1241 3903 
L 1241 0 
L 628 0 
L 628 4666 
z
" transform="scale(0.015625)"/>
       <path id="DejaVuSans-50" d="M 1259 4147 
L 1259 2394 
L 2053 2394 
Q 2494 2394 2734 2622 
Q 2975 2850 2975 3272 
Q 2975 3691 2734 3919 
Q 2494 4147 2053 4147 
L 1259 4147 
z
M 628 4666 
L 2053 4666 
Q 2838 4666 3239 4311 
Q 3641 3956 3641 3272 
Q 3641 2581 3239 2228 
Q 2838 1875 2053 1875 
L 1259 1875 
L 1259 0 
L 628 0 
L 628 4666 
z
" transform="scale(0.015625)"/>
       <path id="DejaVuSans-45" d="M 628 4666 
L 3578 4666 
L 3578 4134 
L 1259 4134 
L 1259 2753 
L 3481 2753 
L 3481 2222 
L 1259 2222 
L 1259 531 
L 3634 531 
L 3634 0 
L 628 0 
L 628 4666 
z
" transform="scale(0.015625)"/>
      </defs>
      <use xlink:href="#DejaVuSans-49"/>
      <use xlink:href="#DejaVuSans-4e" x="29.492188"/>
      <use xlink:href="#DejaVuSans-50" x="104.296875"/>
      <use xlink:href="#DejaVuSans-45" x="164.599609"/>
     </g>
    </g>
    <g id="line2d_22">
     <path d="M 306.104062 68.93375 
L 316.104062 68.93375 
L 326.104062 68.93375 
" style="fill: none; stroke-dasharray: 5.55,2.4; stroke-dashoffset: 0; stroke: #0000ff; stroke-width: 1.5"/>
    </g>
    <g id="text_21">
     <!-- CST -->
     <g transform="translate(334.104062 72.43375)scale(0.1 -0.1)">
      <defs>
       <path id="DejaVuSans-43" d="M 4122 4306 
L 4122 3641 
Q 3803 3938 3442 4084 
Q 3081 4231 2675 4231 
Q 1875 4231 1450 3742 
Q 1025 3253 1025 2328 
Q 1025 1406 1450 917 
Q 1875 428 2675 428 
Q 3081 428 3442 575 
Q 3803 722 4122 1019 
L 4122 359 
Q 3791 134 3420 21 
Q 3050 -91 2638 -91 
Q 1578 -91 968 557 
Q 359 1206 359 2328 
Q 359 3453 968 4101 
Q 1578 4750 2638 4750 
Q 3056 4750 3426 4639 
Q 3797 4528 4122 4306 
z
" transform="scale(0.015625)"/>
       <path id="DejaVuSans-53" d="M 3425 4513 
L 3425 3897 
Q 3066 4069 2747 4153 
Q 2428 4238 2131 4238 
Q 1616 4238 1336 4038 
Q 1056 3838 1056 3469 
Q 1056 3159 1242 3001 
Q 1428 2844 1947 2747 
L 2328 2669 
Q 3034 2534 3370 2195 
Q 3706 1856 3706 1288 
Q 3706 609 3251 259 
Q 2797 -91 1919 -91 
Q 1588 -91 1214 -16 
Q 841 59 441 206 
L 441 856 
Q 825 641 1194 531 
Q 1563 422 1919 422 
Q 2459 422 2753 634 
Q 3047 847 3047 1241 
Q 3047 1584 2836 1778 
Q 2625 1972 2144 2069 
L 1759 2144 
Q 1053 2284 737 2584 
Q 422 2884 422 3419 
Q 422 4038 858 4394 
Q 1294 4750 2059 4750 
Q 2388 4750 2728 4690 
Q 3069 4631 3425 4513 
z
" transform="scale(0.015625)"/>
       <path id="DejaVuSans-54" d="M -19 4666 
L 3928 4666 
L 3928 4134 
L 2272 4134 
L 2272 0 
L 1638 0 
L 1638 4134 
L -19 4134 
L -19 4666 
z
" transform="scale(0.015625)"/>
      </defs>
      <use xlink:href="#DejaVuSans-43"/>
      <use xlink:href="#DejaVuSans-53" x="69.824219"/>
      <use xlink:href="#DejaVuSans-54" x="133.300781"/>
     </g>
    </g>
   </g>
  </g>
 </g>
 <defs>
  <clipPath id="p7d6d2add37">
   <path d="M 365.88375 207.477187 
C 365.88375 185.636245 361.581561 164.007679 353.223394 143.829279 
C 344.865227 123.650879 332.613628 105.315066 317.16975 89.871188 
C 301.725871 74.427309 283.390058 62.17571 263.211658 53.817544 
C 243.033259 45.459377 221.404692 41.157187 199.56375 41.157187 
C 177.722808 41.157187 156.094241 45.459377 135.915842 53.817544 
C 115.737442 62.17571 97.401629 74.427309 81.95775 89.871188 
C 66.513872 105.315066 54.262273 123.650879 45.904106 143.829279 
C 37.545939 164.007679 33.24375 185.636245 33.24375 207.477187 
C 33.24375 229.31813 37.545939 250.946696 45.904106 271.125096 
C 54.262273 291.303496 66.513872 309.639309 81.95775 325.083187 
C 97.401629 340.527066 115.737442 352.778665 135.915842 361.136831 
C 156.094241 369.494998 177.722808 373.797188 199.56375 373.797188 
C 221.404692 373.797188 243.033259 369.494998 263.211658 361.136831 
C 283.390058 352.778665 301.725871 340.527066 317.16975 325.083187 
C 332.613628 309.639309 344.865227 291.303496 353.223394 271.125096 
C 361.581561 250.946696 365.88375 229.31813 365.88375 207.477188 
M 199.56375 207.477187 
C 199.56375 207.477187 199.56375 207.477187 199.56375 207.477187 
C 199.56375 207.477187 199.56375 207.477187 199.56375 207.477187 
C 199.56375 207.477187 199.56375 207.477187 199.56375 207.477187 
C 199.56375 207.477187 199.56375 207.477187 199.56375 207.477187 
C 199.56375 207.477187 199.56375 207.477187 199.56375 207.477187 
C 199.56375 207.477187 199.56375 207.477187 199.56375 207.477187 
C 199.56375 207.477187 199.56375 207.477187 199.56375 207.477187 
C 199.56375 207.477187 199.56375 207.477187 199.56375 207.477187 
C 199.56375 207.477187 199.56375 207.477187 199.56375 207.477187 
C 199.56375 207.477187 199.56375 207.477187 199.56375 207.477187 
C 199.56375 207.477187 199.56375 207.477187 199.56375 207.477187 
C 199.56375 207.477187 199.56375 207.477187 199.56375 207.477187 
C 199.56375 207.477187 199.56375 207.477187 199.56375 207.477187 
C 199.56375 207.477187 199.56375 207.477187 199.56375 207.477187 
C 199.56375 207.477187 199.56375 207.477187 199.56375 207.477187 
C 199.56375 207.477187 199.56375 207.477187 199.56375 207.477187 
M 365.88375 207.477187 
z
"/>
  </clipPath>
 </defs>
</svg>
