<?xml version="1.0" encoding="utf-8" standalone="no"?>
<!DOCTYPE svg PUBLIC "-//W3C//DTD SVG 1.1//EN"
  "http://www.w3.org/Graphics/SVG/1.1/DTD/svg11.dtd">
<svg xmlns:xlink="http://www.w3.org/1999/xlink" width="392.765pt" height="399.83625pt" viewBox="0 0 392.765 399.83625" xmlns="http://www.w3.org/2000/svg" version="1.1">
 <metadata>
  <rdf:RDF xmlns:dc="http://purl.org/dc/elements/1.1/" xmlns:cc="http://creativecommons.org/ns#" xmlns:rdf="http://www.w3.org/1999/02/22-rdf-syntax-ns#">
   <cc:Work>
    <dc:type rdf:resource="http://purl.org/dc/dcmitype/StillImage"/>
    <dc:date>2023-11-03T14:14:25.111320</dc:date>
    <dc:format>image/svg+xml</dc:format>
    <dc:creator>
     <cc:Agent>
      <dc:title>Matplotlib v3.5.1, https://matplotlib.org/</dc:title>
     </cc:Agent>
    </dc:creator>
   </cc:Work>
  </rdf:RDF>
 </metadata>
 <defs>
  <style type="text/css">*{stroke-linejoin: round; stroke-linecap: butt}</style>
 </defs>
 <g id="figure_1">
  <g id="patch_1">
   <path d="M 0 399.83625 
L 392.765 399.83625 
L 392.765 0 
L 0 0 
z
" style="fill: #ffffff"/>
  </g>
  <g id="axes_1">
   <g id="patch_2">
    <path d="M 365.88375 207.477187 
C 365.88375 185.636245 361.581561 164.007679 353.223394 143.829279 
C 344.865227 123.650879 332.613628 105.315066 317.16975 89.871188 
C 301.725871 74.427309 283.390058 62.17571 263.211658 53.817544 
C 243.033259 45.459377 221.404692 41.157187 199.56375 41.157187 
C 177.722808 41.157187 156.094241 45.459377 135.915842 53.817544 
C 115.737442 62.17571 97.401629 74.427309 81.95775 89.871188 
C 66.513872 105.315066 54.262273 123.650879 45.904106 143.829279 
C 37.545939 164.007679 33.24375 185.636245 33.24375 207.477187 
C 33.24375 229.31813 37.545939 250.946696 45.904106 271.125096 
C 54.262273 291.303496 66.513872 309.639309 81.95775 325.083187 
C 97.401629 340.527066 115.737442 352.778665 135.915842 361.136831 
C 156.094241 369.494998 177.722808 373.797187 199.56375 373.797187 
C 221.404692 373.797187 243.033259 369.494998 263.211658 361.136831 
C 283.390058 352.778665 301.725871 340.527066 317.16975 325.083187 
C 332.613628 309.639309 344.865227 291.303496 353.223394 271.125096 
C 361.581561 250.946696 365.88375 229.31813 365.88375 207.477187 
M 199.56375 207.477187 
C 199.56375 207.477187 199.56375 207.477187 199.56375 207.477187 
C 199.56375 207.477187 199.56375 207.477187 199.56375 207.477187 
C 199.56375 207.477187 199.56375 207.477187 199.56375 207.477187 
C 199.56375 207.477187 199.56375 207.477187 199.56375 207.477187 
C 199.56375 207.477187 199.56375 207.477187 199.56375 207.477187 
C 199.56375 207.477187 199.56375 207.477187 199.56375 207.477187 
C 199.56375 207.477187 199.56375 207.477187 199.56375 207.477187 
C 199.56375 207.477187 199.56375 207.477187 199.56375 207.477187 
C 199.56375 207.477187 199.56375 207.477187 199.56375 207.477187 
C 199.56375 207.477187 199.56375 207.477187 199.56375 207.477187 
C 199.56375 207.477187 199.56375 207.477187 199.56375 207.477187 
C 199.56375 207.477187 199.56375 207.477187 199.56375 207.477187 
C 199.56375 207.477187 199.56375 207.477187 199.56375 207.477187 
C 199.56375 207.477187 199.56375 207.477187 199.56375 207.477187 
C 199.56375 207.477187 199.56375 207.477187 199.56375 207.477187 
C 199.56375 207.477187 199.56375 207.477187 199.56375 207.477187 
M 365.88375 207.477187 
z
" style="fill: #ffffff"/>
   </g>
   <g id="matplotlib.axis_1">
    <g id="xtick_1">
     <g id="line2d_1">
      <path d="M 199.56375 207.477187 
L 365.88375 207.477187 
" clip-path="url(#pb25d471677)" style="fill: none; stroke: #b0b0b0; stroke-width: 0.8; stroke-linecap: square"/>
     </g>
     <g id="text_1">
      <!-- 0° -->
      <g transform="translate(374.2025 210.236562)scale(0.1 -0.1)">
       <defs>
        <path id="DejaVuSans-30" d="M 2034 4250 
Q 1547 4250 1301 3770 
Q 1056 3291 1056 2328 
Q 1056 1369 1301 889 
Q 1547 409 2034 409 
Q 2525 409 2770 889 
Q 3016 1369 3016 2328 
Q 3016 3291 2770 3770 
Q 2525 4250 2034 4250 
z
M 2034 4750 
Q 2819 4750 3233 4129 
Q 3647 3509 3647 2328 
Q 3647 1150 3233 529 
Q 2819 -91 2034 -91 
Q 1250 -91 836 529 
Q 422 1150 422 2328 
Q 422 3509 836 4129 
Q 1250 4750 2034 4750 
z
" transform="scale(0.015625)"/>
        <path id="DejaVuSans-b0" d="M 1600 4347 
Q 1350 4347 1178 4173 
Q 1006 4000 1006 3750 
Q 1006 3503 1178 3333 
Q 1350 3163 1600 3163 
Q 1850 3163 2022 3333 
Q 2194 3503 2194 3750 
Q 2194 3997 2020 4172 
Q 1847 4347 1600 4347 
z
M 1600 4750 
Q 1800 4750 1984 4673 
Q 2169 4597 2303 4453 
Q 2447 4313 2519 4134 
Q 2591 3956 2591 3750 
Q 2591 3338 2302 3052 
Q 2013 2766 1594 2766 
Q 1172 2766 890 3047 
Q 609 3328 609 3750 
Q 609 4169 896 4459 
Q 1184 4750 1600 4750 
z
" transform="scale(0.015625)"/>
       </defs>
       <use xlink:href="#DejaVuSans-30"/>
       <use xlink:href="#DejaVuSans-b0" x="63.623047"/>
      </g>
     </g>
    </g>
    <g id="xtick_2">
     <g id="line2d_2">
      <path d="M 199.56375 207.477187 
L 317.16975 89.871188 
" clip-path="url(#pb25d471677)" style="fill: none; stroke: #b0b0b0; stroke-width: 0.8; stroke-linecap: square"/>
     </g>
     <g id="text_2">
      <!-- 45° -->
      <g transform="translate(318.206745 82.731068)scale(0.1 -0.1)">
       <defs>
        <path id="DejaVuSans-34" d="M 2419 4116 
L 825 1625 
L 2419 1625 
L 2419 4116 
z
M 2253 4666 
L 3047 4666 
L 3047 1625 
L 3713 1625 
L 3713 1100 
L 3047 1100 
L 3047 0 
L 2419 0 
L 2419 1100 
L 313 1100 
L 313 1709 
L 2253 4666 
z
" transform="scale(0.015625)"/>
        <path id="DejaVuSans-35" d="M 691 4666 
L 3169 4666 
L 3169 4134 
L 1269 4134 
L 1269 2991 
Q 1406 3038 1543 3061 
Q 1681 3084 1819 3084 
Q 2600 3084 3056 2656 
Q 3513 2228 3513 1497 
Q 3513 744 3044 326 
Q 2575 -91 1722 -91 
Q 1428 -91 1123 -41 
Q 819 9 494 109 
L 494 744 
Q 775 591 1075 516 
Q 1375 441 1709 441 
Q 2250 441 2565 725 
Q 2881 1009 2881 1497 
Q 2881 1984 2565 2268 
Q 2250 2553 1709 2553 
Q 1456 2553 1204 2497 
Q 953 2441 691 2322 
L 691 4666 
z
" transform="scale(0.015625)"/>
       </defs>
       <use xlink:href="#DejaVuSans-34"/>
       <use xlink:href="#DejaVuSans-35" x="63.623047"/>
       <use xlink:href="#DejaVuSans-b0" x="127.246094"/>
      </g>
     </g>
    </g>
    <g id="xtick_3">
     <g id="line2d_3">
      <path d="M 199.56375 207.477187 
L 199.56375 41.157187 
" clip-path="url(#pb25d471677)" style="fill: none; stroke: #b0b0b0; stroke-width: 0.8; stroke-linecap: square"/>
     </g>
     <g id="text_3">
      <!-- 90° -->
      <g transform="translate(190.70125 29.916562)scale(0.1 -0.1)">
       <defs>
        <path id="DejaVuSans-39" d="M 703 97 
L 703 672 
Q 941 559 1184 500 
Q 1428 441 1663 441 
Q 2288 441 2617 861 
Q 2947 1281 2994 2138 
Q 2813 1869 2534 1725 
Q 2256 1581 1919 1581 
Q 1219 1581 811 2004 
Q 403 2428 403 3163 
Q 403 3881 828 4315 
Q 1253 4750 1959 4750 
Q 2769 4750 3195 4129 
Q 3622 3509 3622 2328 
Q 3622 1225 3098 567 
Q 2575 -91 1691 -91 
Q 1453 -91 1209 -44 
Q 966 3 703 97 
z
M 1959 2075 
Q 2384 2075 2632 2365 
Q 2881 2656 2881 3163 
Q 2881 3666 2632 3958 
Q 2384 4250 1959 4250 
Q 1534 4250 1286 3958 
Q 1038 3666 1038 3163 
Q 1038 2656 1286 2365 
Q 1534 2075 1959 2075 
z
" transform="scale(0.015625)"/>
       </defs>
       <use xlink:href="#DejaVuSans-39"/>
       <use xlink:href="#DejaVuSans-30" x="63.623047"/>
       <use xlink:href="#DejaVuSans-b0" x="127.246094"/>
      </g>
     </g>
    </g>
    <g id="xtick_4">
     <g id="line2d_4">
      <path d="M 199.56375 207.477187 
L 81.95775 89.871188 
" clip-path="url(#pb25d471677)" style="fill: none; stroke: #b0b0b0; stroke-width: 0.8; stroke-linecap: square"/>
     </g>
     <g id="text_4">
      <!-- 135° -->
      <g transform="translate(60.014505 82.731068)scale(0.1 -0.1)">
       <defs>
        <path id="DejaVuSans-31" d="M 794 531 
L 1825 531 
L 1825 4091 
L 703 3866 
L 703 4441 
L 1819 4666 
L 2450 4666 
L 2450 531 
L 3481 531 
L 3481 0 
L 794 0 
L 794 531 
z
" transform="scale(0.015625)"/>
        <path id="DejaVuSans-33" d="M 2597 2516 
Q 3050 2419 3304 2112 
Q 3559 1806 3559 1356 
Q 3559 666 3084 287 
Q 2609 -91 1734 -91 
Q 1441 -91 1130 -33 
Q 819 25 488 141 
L 488 750 
Q 750 597 1062 519 
Q 1375 441 1716 441 
Q 2309 441 2620 675 
Q 2931 909 2931 1356 
Q 2931 1769 2642 2001 
Q 2353 2234 1838 2234 
L 1294 2234 
L 1294 2753 
L 1863 2753 
Q 2328 2753 2575 2939 
Q 2822 3125 2822 3475 
Q 2822 3834 2567 4026 
Q 2313 4219 1838 4219 
Q 1578 4219 1281 4162 
Q 984 4106 628 3988 
L 628 4550 
Q 988 4650 1302 4700 
Q 1616 4750 1894 4750 
Q 2613 4750 3031 4423 
Q 3450 4097 3450 3541 
Q 3450 3153 3228 2886 
Q 3006 2619 2597 2516 
z
" transform="scale(0.015625)"/>
       </defs>
       <use xlink:href="#DejaVuSans-31"/>
       <use xlink:href="#DejaVuSans-33" x="63.623047"/>
       <use xlink:href="#DejaVuSans-35" x="127.246094"/>
       <use xlink:href="#DejaVuSans-b0" x="190.869141"/>
      </g>
     </g>
    </g>
    <g id="xtick_5">
     <g id="line2d_5">
      <path d="M 199.56375 207.477187 
L 33.24375 207.477187 
" clip-path="url(#pb25d471677)" style="fill: none; stroke: #b0b0b0; stroke-width: 0.8; stroke-linecap: square"/>
     </g>
     <g id="text_5">
      <!-- 180° -->
      <g transform="translate(7.2 210.236562)scale(0.1 -0.1)">
       <defs>
        <path id="DejaVuSans-38" d="M 2034 2216 
Q 1584 2216 1326 1975 
Q 1069 1734 1069 1313 
Q 1069 891 1326 650 
Q 1584 409 2034 409 
Q 2484 409 2743 651 
Q 3003 894 3003 1313 
Q 3003 1734 2745 1975 
Q 2488 2216 2034 2216 
z
M 1403 2484 
Q 997 2584 770 2862 
Q 544 3141 544 3541 
Q 544 4100 942 4425 
Q 1341 4750 2034 4750 
Q 2731 4750 3128 4425 
Q 3525 4100 3525 3541 
Q 3525 3141 3298 2862 
Q 3072 2584 2669 2484 
Q 3125 2378 3379 2068 
Q 3634 1759 3634 1313 
Q 3634 634 3220 271 
Q 2806 -91 2034 -91 
Q 1263 -91 848 271 
Q 434 634 434 1313 
Q 434 1759 690 2068 
Q 947 2378 1403 2484 
z
M 1172 3481 
Q 1172 3119 1398 2916 
Q 1625 2713 2034 2713 
Q 2441 2713 2670 2916 
Q 2900 3119 2900 3481 
Q 2900 3844 2670 4047 
Q 2441 4250 2034 4250 
Q 1625 4250 1398 4047 
Q 1172 3844 1172 3481 
z
" transform="scale(0.015625)"/>
       </defs>
       <use xlink:href="#DejaVuSans-31"/>
       <use xlink:href="#DejaVuSans-38" x="63.623047"/>
       <use xlink:href="#DejaVuSans-30" x="127.246094"/>
       <use xlink:href="#DejaVuSans-b0" x="190.869141"/>
      </g>
     </g>
    </g>
    <g id="xtick_6">
     <g id="line2d_6">
      <path d="M 199.56375 207.477187 
L 81.95775 325.083187 
" clip-path="url(#pb25d471677)" style="fill: none; stroke: #b0b0b0; stroke-width: 0.8; stroke-linecap: square"/>
     </g>
     <g id="text_6">
      <!-- 225° -->
      <g transform="translate(60.014505 337.742057)scale(0.1 -0.1)">
       <defs>
        <path id="DejaVuSans-32" d="M 1228 531 
L 3431 531 
L 3431 0 
L 469 0 
L 469 531 
Q 828 903 1448 1529 
Q 2069 2156 2228 2338 
Q 2531 2678 2651 2914 
Q 2772 3150 2772 3378 
Q 2772 3750 2511 3984 
Q 2250 4219 1831 4219 
Q 1534 4219 1204 4116 
Q 875 4013 500 3803 
L 500 4441 
Q 881 4594 1212 4672 
Q 1544 4750 1819 4750 
Q 2544 4750 2975 4387 
Q 3406 4025 3406 3419 
Q 3406 3131 3298 2873 
Q 3191 2616 2906 2266 
Q 2828 2175 2409 1742 
Q 1991 1309 1228 531 
z
" transform="scale(0.015625)"/>
       </defs>
       <use xlink:href="#DejaVuSans-32"/>
       <use xlink:href="#DejaVuSans-32" x="63.623047"/>
       <use xlink:href="#DejaVuSans-35" x="127.246094"/>
       <use xlink:href="#DejaVuSans-b0" x="190.869141"/>
      </g>
     </g>
    </g>
    <g id="xtick_7">
     <g id="line2d_7">
      <path d="M 199.56375 207.477187 
L 199.56375 373.797187 
" clip-path="url(#pb25d471677)" style="fill: none; stroke: #b0b0b0; stroke-width: 0.8; stroke-linecap: square"/>
     </g>
     <g id="text_7">
      <!-- 270° -->
      <g transform="translate(187.52 390.556562)scale(0.1 -0.1)">
       <defs>
        <path id="DejaVuSans-37" d="M 525 4666 
L 3525 4666 
L 3525 4397 
L 1831 0 
L 1172 0 
L 2766 4134 
L 525 4134 
L 525 4666 
z
" transform="scale(0.015625)"/>
       </defs>
       <use xlink:href="#DejaVuSans-32"/>
       <use xlink:href="#DejaVuSans-37" x="63.623047"/>
       <use xlink:href="#DejaVuSans-30" x="127.246094"/>
       <use xlink:href="#DejaVuSans-b0" x="190.869141"/>
      </g>
     </g>
    </g>
    <g id="xtick_8">
     <g id="line2d_8">
      <path d="M 199.56375 207.477187 
L 317.16975 325.083187 
" clip-path="url(#pb25d471677)" style="fill: none; stroke: #b0b0b0; stroke-width: 0.8; stroke-linecap: square"/>
     </g>
     <g id="text_8">
      <!-- 315° -->
      <g transform="translate(315.025495 337.742057)scale(0.1 -0.1)">
       <use xlink:href="#DejaVuSans-33"/>
       <use xlink:href="#DejaVuSans-31" x="63.623047"/>
       <use xlink:href="#DejaVuSans-35" x="127.246094"/>
       <use xlink:href="#DejaVuSans-b0" x="190.869141"/>
      </g>
     </g>
    </g>
   </g>
   <g id="matplotlib.axis_2">
    <g id="ytick_1">
     <g id="line2d_9">
      <path d="M 276.287611 207.477187 
C 276.287611 197.401902 274.303 187.424587 270.447355 178.116237 
C 266.59171 168.807887 260.940015 160.349527 253.815713 153.225225 
C 246.69141 146.100922 238.23305 140.449227 228.924701 136.593582 
C 219.616351 132.737938 209.639035 130.753326 199.56375 130.753326 
C 189.488465 130.753326 179.511149 132.737938 170.202799 136.593582 
C 160.89445 140.449227 152.43609 146.100922 145.311787 153.225225 
C 138.187485 160.349527 132.53579 168.807887 128.680145 178.116237 
C 124.8245 187.424587 122.839889 197.401902 122.839889 207.477187 
C 122.839889 217.552473 124.8245 227.529788 128.680145 236.838138 
C 132.53579 246.146488 138.187485 254.604848 145.311787 261.72915 
C 152.43609 268.853453 160.89445 274.505148 170.202799 278.360793 
C 179.511149 282.216437 189.488465 284.201049 199.56375 284.201049 
C 209.639035 284.201049 219.616351 282.216437 228.924701 278.360793 
C 238.23305 274.505148 246.69141 268.853453 253.815713 261.72915 
C 260.940015 254.604848 266.59171 246.146488 270.447355 236.838138 
C 274.303 227.529788 276.287611 217.552473 276.287611 207.477187 
" clip-path="url(#pb25d471677)" style="fill: none; stroke: #b0b0b0; stroke-width: 0.8; stroke-linecap: square"/>
     </g>
     <g id="text_9">
      <!-- −30 -->
      <g transform="translate(270.447355 176.036549)scale(0.1 -0.1)">
       <defs>
        <path id="DejaVuSans-2212" d="M 678 2272 
L 4684 2272 
L 4684 1741 
L 678 1741 
L 678 2272 
z
" transform="scale(0.015625)"/>
       </defs>
       <use xlink:href="#DejaVuSans-2212"/>
       <use xlink:href="#DejaVuSans-33" x="83.789062"/>
       <use xlink:href="#DejaVuSans-30" x="147.412109"/>
      </g>
     </g>
    </g>
    <g id="ytick_2">
     <g id="line2d_10">
      <path d="M 285.247225 207.477187 
C 285.247225 196.225337 283.030856 185.082896 278.724959 174.687541 
C 274.419062 164.292186 268.107376 154.846081 260.151116 146.889821 
C 252.194856 138.933561 242.748751 132.621875 232.353396 128.315978 
C 221.958042 124.010082 210.815601 121.793712 199.56375 121.793712 
C 188.311899 121.793712 177.169458 124.010082 166.774104 128.315978 
C 156.378749 132.621875 146.932644 138.933561 138.976384 146.889821 
C 131.020124 154.846081 124.708438 164.292186 120.402541 174.687541 
C 116.096644 185.082896 113.880275 196.225337 113.880275 207.477187 
C 113.880275 218.729038 116.096644 229.871479 120.402541 240.266834 
C 124.708438 250.662189 131.020124 260.108294 138.976384 268.064554 
C 146.932644 276.020814 156.378749 282.3325 166.774104 286.638397 
C 177.169458 290.944293 188.311899 293.160663 199.56375 293.160663 
C 210.815601 293.160663 221.958042 290.944293 232.353396 286.638397 
C 242.748751 282.3325 252.194856 276.020814 260.151116 268.064554 
C 268.107376 260.108294 274.419062 250.662189 278.724959 240.266834 
C 283.030856 229.871479 285.247225 218.729038 285.247225 207.477187 
" clip-path="url(#pb25d471677)" style="fill: none; stroke: #b0b0b0; stroke-width: 0.8; stroke-linecap: square"/>
     </g>
     <g id="text_10">
      <!-- −27 -->
      <g transform="translate(278.724959 172.607854)scale(0.1 -0.1)">
       <use xlink:href="#DejaVuSans-2212"/>
       <use xlink:href="#DejaVuSans-32" x="83.789062"/>
       <use xlink:href="#DejaVuSans-37" x="147.412109"/>
      </g>
     </g>
    </g>
    <g id="ytick_3">
     <g id="line2d_11">
      <path d="M 294.206839 207.477187 
C 294.206839 195.048771 291.758712 182.741205 287.002563 171.258845 
C 282.246414 159.776486 275.274738 149.342635 266.48652 140.554417 
C 257.698302 131.7662 247.264452 124.794524 235.782092 120.038375 
C 224.299732 115.282225 211.992167 112.834098 199.56375 112.834098 
C 187.135333 112.834098 174.827768 115.282225 163.345408 120.038375 
C 151.863048 124.794524 141.429198 131.7662 132.64098 140.554417 
C 123.852762 149.342635 116.881086 159.776486 112.124937 171.258845 
C 107.368788 182.741205 104.920661 195.048771 104.920661 207.477187 
C 104.920661 219.905604 107.368788 232.21317 112.124937 243.69553 
C 116.881086 255.177889 123.852762 265.61174 132.64098 274.399958 
C 141.429198 283.188175 151.863048 290.159851 163.345408 294.916 
C 174.827768 299.67215 187.135333 302.120277 199.56375 302.120277 
C 211.992167 302.120277 224.299732 299.67215 235.782092 294.916 
C 247.264452 290.159851 257.698302 283.188175 266.48652 274.399958 
C 275.274738 265.61174 282.246414 255.177889 287.002563 243.69553 
C 291.758712 232.21317 294.206839 219.905604 294.206839 207.477187 
" clip-path="url(#pb25d471677)" style="fill: none; stroke: #b0b0b0; stroke-width: 0.8; stroke-linecap: square"/>
     </g>
     <g id="text_11">
      <!-- −24 -->
      <g transform="translate(287.002563 169.179158)scale(0.1 -0.1)">
       <use xlink:href="#DejaVuSans-2212"/>
       <use xlink:href="#DejaVuSans-32" x="83.789062"/>
       <use xlink:href="#DejaVuSans-34" x="147.412109"/>
      </g>
     </g>
    </g>
    <g id="ytick_4">
     <g id="line2d_12">
      <path d="M 303.166453 207.477187 
C 303.166453 193.872205 300.486568 180.399514 295.280167 167.83015 
C 290.073765 155.260785 282.442099 143.839189 272.821924 134.219014 
C 263.201749 124.598838 251.780153 116.967172 239.210788 111.760771 
C 226.641423 106.554369 213.168732 103.874485 199.56375 103.874485 
C 185.958768 103.874485 172.486077 106.554369 159.916712 111.760771 
C 147.347347 116.967172 135.925751 124.598838 126.305576 134.219014 
C 116.685401 143.839189 109.053735 155.260785 103.847333 167.83015 
C 98.640932 180.399514 95.961047 193.872205 95.961047 207.477187 
C 95.961047 221.08217 98.640932 234.554861 103.847333 247.124225 
C 109.053735 259.69359 116.685401 271.115186 126.305576 280.735361 
C 135.925751 290.355537 147.347347 297.987203 159.916712 303.193604 
C 172.486077 308.400006 185.958768 311.07989 199.56375 311.07989 
C 213.168732 311.07989 226.641423 308.400006 239.210788 303.193604 
C 251.780153 297.987203 263.201749 290.355537 272.821924 280.735361 
C 282.442099 271.115186 290.073765 259.69359 295.280167 247.124225 
C 300.486568 234.554861 303.166453 221.08217 303.166453 207.477187 
" clip-path="url(#pb25d471677)" style="fill: none; stroke: #b0b0b0; stroke-width: 0.8; stroke-linecap: square"/>
     </g>
     <g id="text_12">
      <!-- −21 -->
      <g transform="translate(295.280167 165.750462)scale(0.1 -0.1)">
       <use xlink:href="#DejaVuSans-2212"/>
       <use xlink:href="#DejaVuSans-32" x="83.789062"/>
       <use xlink:href="#DejaVuSans-31" x="147.412109"/>
      </g>
     </g>
    </g>
    <g id="ytick_5">
     <g id="line2d_13">
      <path d="M 312.126067 207.477187 
C 312.126067 192.695639 309.214424 178.057823 303.557771 164.401454 
C 297.901117 150.745084 289.60946 138.335743 279.157328 127.88361 
C 268.705195 117.431477 256.295853 109.13982 242.639484 103.483167 
C 228.983114 97.826513 214.345298 94.914871 199.56375 94.914871 
C 184.782202 94.914871 170.144386 97.826513 156.488016 103.483167 
C 142.831647 109.13982 130.422305 117.431477 119.970172 127.88361 
C 109.51804 138.335743 101.226383 150.745084 95.569729 164.401454 
C 89.913076 178.057823 87.001433 192.695639 87.001433 207.477187 
C 87.001433 222.258736 89.913076 236.896552 95.569729 250.552921 
C 101.226383 264.209291 109.51804 276.618632 119.970172 287.070765 
C 130.422305 297.522898 142.831647 305.814555 156.488016 311.471208 
C 170.144386 317.127862 184.782202 320.039504 199.56375 320.039504 
C 214.345298 320.039504 228.983114 317.127862 242.639484 311.471208 
C 256.295853 305.814555 268.705195 297.522898 279.157328 287.070765 
C 289.60946 276.618632 297.901117 264.209291 303.557771 250.552921 
C 309.214424 236.896552 312.126067 222.258736 312.126067 207.477187 
" clip-path="url(#pb25d471677)" style="fill: none; stroke: #b0b0b0; stroke-width: 0.8; stroke-linecap: square"/>
     </g>
     <g id="text_13">
      <!-- −18 -->
      <g transform="translate(303.557771 162.321766)scale(0.1 -0.1)">
       <use xlink:href="#DejaVuSans-2212"/>
       <use xlink:href="#DejaVuSans-31" x="83.789062"/>
       <use xlink:href="#DejaVuSans-38" x="147.412109"/>
      </g>
     </g>
    </g>
    <g id="ytick_6">
     <g id="line2d_14">
      <path d="M 321.085681 207.477187 
C 321.085681 191.519074 317.94228 175.716133 311.835375 160.972758 
C 305.728469 146.229383 296.776822 132.832297 285.492731 121.548206 
C 274.208641 110.264116 260.811554 101.312469 246.06818 95.205563 
C 231.324805 89.098657 215.521864 85.955257 199.56375 85.955257 
C 183.605636 85.955257 167.802695 89.098657 153.05932 95.205563 
C 138.315946 101.312469 124.918859 110.264116 113.634769 121.548206 
C 102.350678 132.832297 93.399031 146.229383 87.292125 160.972758 
C 81.18522 175.716133 78.041819 191.519074 78.041819 207.477187 
C 78.041819 223.435301 81.18522 239.238242 87.292125 253.981617 
C 93.399031 268.724992 102.350678 282.122078 113.634769 293.406169 
C 124.918859 304.690259 138.315946 313.641906 153.05932 319.748812 
C 167.802695 325.855718 183.605636 328.999118 199.56375 328.999118 
C 215.521864 328.999118 231.324805 325.855718 246.06818 319.748812 
C 260.811554 313.641906 274.208641 304.690259 285.492731 293.406169 
C 296.776822 282.122078 305.728469 268.724992 311.835375 253.981617 
C 317.94228 239.238242 321.085681 223.435301 321.085681 207.477187 
" clip-path="url(#pb25d471677)" style="fill: none; stroke: #b0b0b0; stroke-width: 0.8; stroke-linecap: square"/>
     </g>
     <g id="text_14">
      <!-- −15 -->
      <g transform="translate(311.835375 158.89307)scale(0.1 -0.1)">
       <use xlink:href="#DejaVuSans-2212"/>
       <use xlink:href="#DejaVuSans-31" x="83.789062"/>
       <use xlink:href="#DejaVuSans-35" x="147.412109"/>
      </g>
     </g>
    </g>
    <g id="ytick_7">
     <g id="line2d_15">
      <path d="M 330.045295 207.477187 
C 330.045295 190.342508 326.670136 173.374442 320.112978 157.544062 
C 313.55582 141.713683 303.944183 127.328851 291.828135 115.212803 
C 279.712087 103.096755 265.327255 93.485117 249.496875 86.927959 
C 233.666496 80.370801 216.698429 76.995643 199.56375 76.995643 
C 182.429071 76.995643 165.461004 80.370801 149.630625 86.927959 
C 133.800245 93.485117 119.415413 103.096755 107.299365 115.212803 
C 95.183317 127.328851 85.57168 141.713683 79.014522 157.544062 
C 72.457364 173.374442 69.082205 190.342508 69.082205 207.477187 
C 69.082205 224.611867 72.457364 241.579933 79.014522 257.410313 
C 85.57168 273.240692 95.183317 287.625524 107.299365 299.741572 
C 119.415413 311.85762 133.800245 321.469258 149.630625 328.026416 
C 165.461004 334.583574 182.429071 337.958732 199.56375 337.958732 
C 216.698429 337.958732 233.666496 334.583574 249.496875 328.026416 
C 265.327255 321.469258 279.712087 311.85762 291.828135 299.741572 
C 303.944183 287.625524 313.55582 273.240692 320.112978 257.410313 
C 326.670136 241.579933 330.045295 224.611867 330.045295 207.477187 
" clip-path="url(#pb25d471677)" style="fill: none; stroke: #b0b0b0; stroke-width: 0.8; stroke-linecap: square"/>
     </g>
     <g id="text_15">
      <!-- −12 -->
      <g transform="translate(320.112978 155.464375)scale(0.1 -0.1)">
       <use xlink:href="#DejaVuSans-2212"/>
       <use xlink:href="#DejaVuSans-31" x="83.789062"/>
       <use xlink:href="#DejaVuSans-32" x="147.412109"/>
      </g>
     </g>
    </g>
    <g id="ytick_8">
     <g id="line2d_16">
      <path d="M 339.004908 207.477187 
C 339.004908 189.165942 335.397992 171.032751 328.390582 154.115366 
C 321.383172 137.197982 311.111544 121.825404 298.163539 108.877399 
C 285.215533 95.929393 269.842956 85.657765 252.925571 78.650355 
C 236.008187 71.642945 217.874995 68.036029 199.56375 68.036029 
C 181.252505 68.036029 163.119313 71.642945 146.201929 78.650355 
C 129.284544 85.657765 113.911967 95.929393 100.963961 108.877399 
C 88.015956 121.825404 77.744328 137.197982 70.736918 154.115366 
C 63.729508 171.032751 60.122592 189.165942 60.122592 207.477187 
C 60.122592 225.788433 63.729508 243.921624 70.736918 260.839009 
C 77.744328 277.756393 88.015956 293.128971 100.963961 306.076976 
C 113.911967 319.024982 129.284544 329.29661 146.201929 336.30402 
C 163.119313 343.31143 181.252505 346.918346 199.56375 346.918346 
C 217.874995 346.918346 236.008187 343.31143 252.925571 336.30402 
C 269.842956 329.29661 285.215533 319.024982 298.163539 306.076976 
C 311.111544 293.128971 321.383172 277.756393 328.390582 260.839009 
C 335.397992 243.921624 339.004908 225.788433 339.004908 207.477187 
" clip-path="url(#pb25d471677)" style="fill: none; stroke: #b0b0b0; stroke-width: 0.8; stroke-linecap: square"/>
     </g>
     <g id="text_16">
      <!-- −9 -->
      <g transform="translate(328.390582 152.035679)scale(0.1 -0.1)">
       <use xlink:href="#DejaVuSans-2212"/>
       <use xlink:href="#DejaVuSans-39" x="83.789062"/>
      </g>
     </g>
    </g>
    <g id="ytick_9">
     <g id="line2d_17">
      <path d="M 347.964522 207.477187 
C 347.964522 187.989377 344.125848 168.69106 336.668186 150.686671 
C 329.210524 132.682281 318.278906 116.321958 304.498942 102.541995 
C 290.718979 88.762032 274.358656 77.830414 256.354267 70.372751 
C 238.349877 62.915089 219.051561 59.076415 199.56375 59.076415 
C 180.075939 59.076415 160.777623 62.915089 142.773233 70.372751 
C 124.768844 77.830414 108.408521 88.762032 94.628558 102.541995 
C 80.848594 116.321958 69.916976 132.682281 62.459314 150.686671 
C 55.001652 168.69106 51.162978 187.989377 51.162978 207.477187 
C 51.162978 226.964998 55.001652 246.263315 62.459314 264.267704 
C 69.916976 282.272094 80.848594 298.632417 94.628558 312.41238 
C 108.408521 326.192343 124.768844 337.123961 142.773233 344.581624 
C 160.777623 352.039286 180.075939 355.87796 199.56375 355.87796 
C 219.051561 355.87796 238.349877 352.039286 256.354267 344.581624 
C 274.358656 337.123961 290.718979 326.192343 304.498942 312.41238 
C 318.278906 298.632417 329.210524 282.272094 336.668186 264.267704 
C 344.125848 246.263315 347.964522 226.964998 347.964522 207.477187 
" clip-path="url(#pb25d471677)" style="fill: none; stroke: #b0b0b0; stroke-width: 0.8; stroke-linecap: square"/>
     </g>
     <g id="text_17">
      <!-- −6 -->
      <g transform="translate(336.668186 148.606983)scale(0.1 -0.1)">
       <defs>
        <path id="DejaVuSans-36" d="M 2113 2584 
Q 1688 2584 1439 2293 
Q 1191 2003 1191 1497 
Q 1191 994 1439 701 
Q 1688 409 2113 409 
Q 2538 409 2786 701 
Q 3034 994 3034 1497 
Q 3034 2003 2786 2293 
Q 2538 2584 2113 2584 
z
M 3366 4563 
L 3366 3988 
Q 3128 4100 2886 4159 
Q 2644 4219 2406 4219 
Q 1781 4219 1451 3797 
Q 1122 3375 1075 2522 
Q 1259 2794 1537 2939 
Q 1816 3084 2150 3084 
Q 2853 3084 3261 2657 
Q 3669 2231 3669 1497 
Q 3669 778 3244 343 
Q 2819 -91 2113 -91 
Q 1303 -91 875 529 
Q 447 1150 447 2328 
Q 447 3434 972 4092 
Q 1497 4750 2381 4750 
Q 2619 4750 2861 4703 
Q 3103 4656 3366 4563 
z
" transform="scale(0.015625)"/>
       </defs>
       <use xlink:href="#DejaVuSans-2212"/>
       <use xlink:href="#DejaVuSans-36" x="83.789062"/>
      </g>
     </g>
    </g>
    <g id="ytick_10">
     <g id="line2d_18">
      <path d="M 356.924136 207.477187 
C 356.924136 186.812811 352.853705 166.349369 344.94579 147.257975 
C 337.037875 128.16658 325.446267 110.818512 310.834346 96.206591 
C 296.222425 81.594671 278.874357 70.003062 259.782963 62.095148 
C 240.691568 54.187233 220.228127 50.116801 199.56375 50.116801 
C 178.899373 50.116801 158.435932 54.187233 139.344537 62.095148 
C 120.253143 70.003062 102.905075 81.594671 88.293154 96.206591 
C 73.681233 110.818512 62.089625 128.16658 54.18171 147.257975 
C 46.273795 166.349369 42.203364 186.812811 42.203364 207.477187 
C 42.203364 228.141564 46.273795 248.605006 54.18171 267.6964 
C 62.089625 286.787795 73.681233 304.135863 88.293154 318.747784 
C 102.905075 333.359704 120.253143 344.951313 139.344537 352.859227 
C 158.435932 360.767142 178.899373 364.837574 199.56375 364.837574 
C 220.228127 364.837574 240.691568 360.767142 259.782963 352.859227 
C 278.874357 344.951313 296.222425 333.359704 310.834346 318.747784 
C 325.446267 304.135863 337.037875 286.787795 344.94579 267.6964 
C 352.853705 248.605006 356.924136 228.141564 356.924136 207.477187 
" clip-path="url(#pb25d471677)" style="fill: none; stroke: #b0b0b0; stroke-width: 0.8; stroke-linecap: square"/>
     </g>
     <g id="text_18">
      <!-- −3 -->
      <g transform="translate(344.94579 145.178287)scale(0.1 -0.1)">
       <use xlink:href="#DejaVuSans-2212"/>
       <use xlink:href="#DejaVuSans-33" x="83.789062"/>
      </g>
     </g>
    </g>
   </g>
   <g id="line2d_19">
    <path d="M 322.02644 207.477187 
L 308.892912 205.56884 
L 291.853936 204.254343 
L 254.807281 204.581997 
L 302.339084 200.290436 
L 314.99125 197.37859 
L 325.76629 194.212766 
L 332.416409 191.164932 
L 336.512207 188.230337 
L 341.249696 185.036338 
L 344.115869 181.988749 
L 346.340289 178.946719 
L 348.831843 175.749275 
L 350.184706 172.7036 
L 352.476684 166.50429 
L 353.4355 160.433873 
L 353.78968 157.366145 
L 353.353538 148.442819 
L 352.016073 142.765016 
L 351.163588 139.980591 
L 348.992122 134.596101 
L 346.415594 129.394677 
L 343.368318 124.451582 
L 341.713101 122.06524 
L 336.082553 115.394092 
L 329.773908 109.356796 
L 327.403861 107.597546 
L 325.170092 105.763177 
L 322.726066 104.131733 
L 320.058443 102.732749 
L 317.634997 101.165359 
L 314.892299 99.931576 
L 312.046091 98.854253 
L 309.438446 97.602492 
L 303.500127 96.019069 
L 300.791689 95.052171 
L 297.724789 94.55583 
L 292.400933 92.832815 
L 289.61372 92.218481 
L 287.153507 91.241655 
L 282.445748 89.109427 
L 280.27547 87.817142 
L 278.200846 86.386678 
L 272.542642 81.074038 
L 270.680224 79.179672 
L 268.682669 77.483407 
L 264.74536 73.835082 
L 258.253379 69.213086 
L 251.34841 65.200004 
L 244.146446 61.65376 
L 241.678653 60.605068 
L 239.230323 59.439521 
L 231.690304 56.333636 
L 226.471616 54.875098 
L 223.835546 54.231098 
L 218.494023 53.302486 
L 215.79324 53.063903 
L 213.081829 52.964836 
L 210.354408 53.163584 
L 204.923491 53.9943 
L 196.934656 56.856469 
L 194.36202 58.519133 
L 189.34475 61.338682 
L 186.925464 63.020922 
L 182.082431 65.103271 
L 179.643138 65.734667 
L 177.159809 66.024273 
L 174.616218 65.992704 
L 172.011158 65.731389 
L 169.426676 65.693401 
L 164.115367 65.301489 
L 158.86887 65.557275 
L 156.310906 66.003509 
L 153.830903 66.725956 
L 151.404756 67.613313 
L 146.801219 70.026095 
L 142.771555 73.68316 
L 140.906776 75.731466 
L 139.393924 78.442578 
L 137.762525 80.765899 
L 136.380816 83.473698 
L 135.367585 86.741761 
L 134.205584 89.567934 
L 133.33742 92.769819 
L 132.786863 96.341784 
L 130.881355 101.715573 
L 129.249767 103.232421 
L 127.151656 104.061999 
L 121.65089 104.083331 
L 119.108097 104.498648 
L 116.223626 104.560706 
L 113.589748 105.017362 
L 111.081876 105.690436 
L 108.423653 106.255855 
L 105.982535 107.123621 
L 103.656184 108.161995 
L 101.40744 109.320877 
L 99.43219 110.781264 
L 97.585127 112.380583 
L 95.921019 114.156854 
L 94.391537 116.052378 
L 93.136843 118.174409 
L 92.142254 120.488975 
L 91.268825 122.86792 
L 90.82953 125.540076 
L 90.362758 131.01383 
L 91.14948 134.350839 
L 92.271751 137.800949 
L 93.536418 141.223957 
L 100.861135 150.491206 
L 105.54985 155.364432 
L 116.768854 163.45436 
L 132.141631 173.123902 
L 192.445301 204.005288 
L 124.19533 172.332316 
L 111.354121 168.20373 
L 102.198347 166.148026 
L 94.627359 165.080133 
L 90.624519 165.659335 
L 87.0347 166.519963 
L 83.702406 167.582927 
L 79.761707 170.850027 
L 78.273726 172.697833 
L 77.278463 174.710944 
L 76.163059 176.70994 
L 75.516852 178.838704 
L 75.123572 181.026611 
L 74.74097 185.467564 
L 74.694436 187.699831 
L 76.481347 192.364569 
L 77.736281 194.672605 
L 81.927852 199.251284 
L 84.918862 201.468904 
L 89.48464 203.63314 
L 93.361017 205.623412 
L 106.786447 209.096621 
L 113.442977 210.484591 
L 114.284016 211.946509 
L 109.938882 213.744369 
L 102.314559 215.985389 
L 95.47121 218.417754 
L 91.071517 220.798359 
L 87.115001 223.280829 
L 83.69418 225.829124 
L 79.175144 230.878362 
L 77.895862 233.338495 
L 77.486917 235.660845 
L 77.319292 237.956154 
L 77.333273 240.228745 
L 77.797166 242.393194 
L 78.839206 244.386385 
L 81.917747 247.985955 
L 89.150139 252.087182 
L 93.937233 252.312984 
L 103.201989 252.411414 
L 114.364891 249.031448 
L 126.907395 244.497449 
L 150.448062 233.592462 
L 132.592765 244.599811 
L 119.493688 253.705659 
L 111.836645 260.18895 
L 104.267586 267.02484 
L 101.659447 271.056985 
L 96.187705 279.861874 
L 93.911721 290.021599 
L 94.342539 292.683644 
L 94.671971 295.491841 
L 95.164648 298.229942 
L 96.311639 300.445806 
L 97.342679 302.799878 
L 98.660938 304.917901 
L 100.292409 306.748529 
L 102.071171 308.433708 
L 106.1395 311.235329 
L 108.524931 312.205369 
L 112.870618 314.53429 
L 117.515203 316.359287 
L 119.780798 317.289 
L 122.26787 317.867144 
L 126.946645 319.297723 
L 129.431509 319.712235 
L 131.665529 320.478804 
L 133.780921 321.416389 
L 135.799724 322.510535 
L 137.678237 323.86691 
L 139.390825 325.573202 
L 140.905943 327.743514 
L 142.517783 329.812658 
L 145.561692 334.698063 
L 147.280065 336.883848 
L 148.923583 339.399332 
L 150.791364 341.478216 
L 152.812678 343.25216 
L 154.81655 345.194908 
L 161.39829 349.912622 
L 166.110298 352.380007 
L 168.548672 353.391657 
L 171.061774 354.107143 
L 173.622049 354.599886 
L 178.850501 354.85961 
L 181.480429 354.754017 
L 186.718791 354.295741 
L 191.912562 353.470555 
L 194.468021 353.399783 
L 197.013152 353.600865 
L 202.128526 354.413079 
L 210.027538 357.116327 
L 212.766093 358.380654 
L 218.28001 359.908895 
L 221.105381 360.753854 
L 226.695135 361.34692 
L 229.502909 361.500807 
L 232.242316 361.217753 
L 234.958104 360.786977 
L 237.612443 360.082159 
L 240.218182 359.201595 
L 242.728234 358.009634 
L 247.648124 355.465673 
L 254.65735 351.000921 
L 256.878574 349.336355 
L 261.528446 346.652174 
L 263.742214 345.108348 
L 268.202664 342.188641 
L 272.252646 338.611427 
L 275.872744 334.47668 
L 277.821183 332.71526 
L 279.677786 330.841984 
L 281.442835 328.867923 
L 283.259427 327.007001 
L 286.652048 323.047262 
L 290.113594 319.296933 
L 292.001414 317.640106 
L 294.062773 316.185878 
L 298.573074 313.651689 
L 301.039606 312.558513 
L 303.69857 311.612007 
L 306.22625 310.479967 
L 311.993205 308.709124 
L 314.574537 307.454539 
L 317.450352 306.395791 
L 320.191599 305.159693 
L 322.61229 303.613243 
L 325.366141 302.276088 
L 327.953416 300.75774 
L 330.1661 298.925937 
L 332.695451 297.275654 
L 334.943696 295.393952 
L 337.004505 293.359703 
L 339.314416 291.447859 
L 341.252628 289.281299 
L 344.959994 284.785742 
L 348.130467 279.938017 
L 349.651248 277.464137 
L 350.961691 274.883894 
L 352.161777 272.251207 
L 353.986454 266.75451 
L 354.655082 263.925816 
L 355.57059 258.166882 
L 355.98457 249.39002 
L 355.144718 240.546943 
L 353.548188 234.628798 
L 352.836387 231.753188 
L 351.139869 228.779822 
L 349.775214 225.920836 
L 348.271324 223.106983 
L 345.587932 220.252648 
L 343.283094 217.527023 
L 340.215558 214.848436 
L 329.819382 209.750808 
L 329.819382 209.750808 
" clip-path="url(#pb25d471677)" style="fill: none; stroke: #ff0000; stroke-width: 1.5; stroke-linecap: square"/>
   </g>
   <g id="line2d_20">
    <path d="M 209.123359 207.477187 
L 293.837081 205.83164 
L 311.97094 203.551842 
L 322.398432 201.039695 
L 329.635091 198.381713 
L 335.091521 195.620044 
L 339.390494 192.780805 
L 342.86252 189.882311 
L 345.706991 186.938094 
L 348.048028 183.959588 
L 349.97173 180.956202 
L 351.541066 177.93579 
L 352.801856 174.905423 
L 353.787278 171.871881 
L 354.521755 168.841818 
L 355.02971 165.820209 
L 355.326875 162.81283 
L 355.429016 159.824394 
L 355.346201 156.860401 
L 355.08857 153.925698 
L 354.663501 151.025495 
L 354.081252 148.163476 
L 353.343763 145.346029 
L 352.461431 142.575972 
L 351.43915 139.857903 
L 350.276501 137.198678 
L 348.984069 134.600029 
L 347.5617 132.068465 
L 346.014776 129.607796 
L 344.343521 127.22445 
L 342.556182 124.920468 
L 340.653277 122.702047 
L 338.638114 120.57388 
L 336.516661 118.538927 
L 334.287488 116.604879 
L 331.956886 114.774516 
L 329.531169 113.050331 
L 327.009513 111.439917 
L 324.400892 109.943723 
L 321.707196 108.567375 
L 318.939723 107.308853 
L 316.107236 106.167481 
L 313.218331 105.142144 
L 307.340162 103.398716 
L 295.883658 100.503092 
L 293.284913 99.663323 
L 290.864946 98.668659 
L 288.641954 97.474766 
L 286.618484 96.052209 
L 284.773824 94.3996 
L 283.071752 92.538284 
L 281.46762 90.506338 
L 276.806721 83.862594 
L 273.517747 79.385108 
L 269.939367 75.119903 
L 268.029792 73.105015 
L 266.039778 71.181131 
L 263.971928 69.353404 
L 261.828486 67.628302 
L 259.612856 66.010358 
L 257.331679 64.496547 
L 254.986996 63.094696 
L 252.584372 61.804227 
L 250.128268 60.627165 
L 247.624128 59.562552 
L 245.075509 58.614933 
L 242.48786 57.783028 
L 239.86648 57.065352 
L 237.21434 56.468918 
L 234.537541 55.989054 
L 231.84057 55.626687 
L 229.127372 55.385537 
L 226.403678 55.26039 
L 223.673896 55.251718 
L 220.942863 55.356893 
L 215.494486 55.906362 
L 210.094787 56.876342 
L 204.77633 58.208424 
L 199.56375 59.817375 
L 182.148309 65.639806 
L 177.282682 66.800063 
L 172.387264 67.666289 
L 164.952755 68.660068 
L 157.448658 69.72493 
L 152.458753 70.674342 
L 147.523658 71.908112 
L 142.6782 73.46323 
L 137.957579 75.362328 
L 133.389789 77.603477 
L 129.01051 80.195773 
L 124.851388 83.134936 
L 122.866784 84.736385 
L 120.952679 86.426753 
L 119.114228 88.205867 
L 117.361816 90.08066 
L 115.699393 92.047803 
L 114.137995 94.113382 
L 112.685531 96.278138 
L 111.355749 98.549378 
L 110.159227 100.929026 
L 109.112735 103.425197 
L 108.233806 106.045009 
L 107.540698 108.794546 
L 107.062716 111.689562 
L 106.826322 114.739759 
L 106.871876 117.965686 
L 107.250281 121.393485 
L 108.030231 125.060036 
L 109.306049 129.017365 
L 111.22893 133.355472 
L 113.987279 138.178728 
L 117.991955 143.746317 
L 123.904478 150.463837 
L 133.117177 159.200926 
L 145.250832 169.446873 
L 138.653098 166.392434 
L 125.42174 159.328803 
L 115.930798 155.217519 
L 108.78517 152.931913 
L 103.010448 151.732113 
L 98.212503 151.297274 
L 94.08048 151.390738 
L 90.483287 151.897916 
L 87.315376 152.729997 
L 84.517483 153.830232 
L 82.040856 155.152624 
L 79.858976 156.665526 
L 77.943713 158.339503 
L 76.287731 160.155957 
L 74.877255 162.095015 
L 73.703234 164.139936 
L 72.770079 166.279426 
L 72.076102 168.500302 
L 71.621979 170.790475 
L 71.416602 173.140263 
L 71.471481 175.540198 
L 71.79788 177.980112 
L 72.412629 180.450382 
L 73.346991 182.943135 
L 74.629206 185.447857 
L 76.307959 187.955388 
L 78.440732 190.454457 
L 81.117476 192.933814 
L 84.466703 195.38 
L 88.706116 197.778401 
L 94.154747 200.106272 
L 101.528098 202.339357 
L 112.317738 204.43049 
L 131.776976 206.293965 
L 184.628372 207.477187 
L 125.774949 208.765176 
L 109.333019 210.628114 
L 99.559685 212.718178 
L 92.724701 214.948102 
L 87.57555 217.274885 
L 83.545948 219.67115 
L 80.352693 222.114465 
L 77.796003 224.590528 
L 75.762252 227.085418 
L 74.167443 229.58794 
L 72.954147 232.087601 
L 72.082525 234.574158 
L 71.518521 237.038758 
L 71.24545 239.470533 
L 71.237746 241.862037 
L 71.489921 244.201767 
L 71.987565 246.481142 
L 72.727473 248.688792 
L 73.706058 250.813466 
L 74.924965 252.841995 
L 76.382529 254.762028 
L 78.090474 256.555577 
L 80.059662 258.203663 
L 82.302776 259.685137 
L 84.847703 260.970159 
L 87.726071 262.024068 
L 90.988882 262.798846 
L 94.715986 263.225732 
L 98.996129 263.22273 
L 104.019151 262.639887 
L 110.11635 261.222608 
L 117.855671 258.534062 
L 128.552642 253.59234 
L 144.471586 244.637322 
L 145.593332 245.267681 
L 131.135925 257.192912 
L 122.354128 265.658811 
L 116.791709 272.145793 
L 113.035679 277.546238 
L 110.451071 282.251604 
L 108.663667 286.495424 
L 107.48869 290.381944 
L 106.791596 293.988621 
L 106.480879 297.366271 
L 106.492657 300.548281 
L 106.780567 303.556986 
L 107.306464 306.411014 
L 108.037965 309.12687 
L 108.954028 311.71175 
L 110.034446 314.174058 
L 111.259895 316.523367 
L 112.617499 318.763314 
L 114.093061 320.900622 
L 115.678328 322.935566 
L 117.361816 324.873715 
L 119.134269 326.718797 
L 120.988464 328.472518 
L 124.914453 331.71448 
L 129.094488 334.607101 
L 133.488767 337.156643 
L 138.063601 339.364682 
L 142.786725 341.235477 
L 147.628545 342.773022 
L 152.555985 343.997651 
L 157.535103 344.946697 
L 165.018503 346.030605 
L 172.430004 347.068211 
L 177.311181 347.974376 
L 182.165416 349.175248 
L 187.034788 350.68388 
L 204.775475 356.721476 
L 210.093683 358.062243 
L 215.493237 359.036132 
L 218.213768 359.369396 
L 223.673896 359.702657 
L 226.404197 359.696926 
L 229.128512 359.574702 
L 231.841812 359.33353 
L 234.539557 358.974051 
L 237.21723 358.497048 
L 239.870345 357.903447 
L 242.493622 357.191443 
L 245.082494 356.362291 
L 247.631512 355.414546 
L 250.137991 354.355449 
L 252.595608 353.181019 
L 254.999839 351.893137 
L 257.347342 350.496595 
L 259.631527 348.988003 
L 261.849136 347.372455 
L 263.994647 345.649692 
L 266.066355 343.827735 
L 268.059485 341.907637 
L 269.972316 339.896441 
L 273.55702 335.63729 
L 276.851035 331.162698 
L 281.510446 324.509198 
L 283.110371 322.469247 
L 284.804379 320.595322 
L 286.63871 318.928054 
L 288.651352 317.491214 
L 290.861107 316.281141 
L 293.271197 315.275274 
L 295.859678 314.42465 
L 301.439386 312.972497 
L 307.298484 311.515411 
L 313.178381 309.776261 
L 316.068918 308.753585 
L 318.905406 307.616727 
L 321.674702 306.360687 
L 324.370297 304.986749 
L 326.985661 303.496485 
L 329.509423 301.888245 
L 331.942207 300.169581 
L 334.275108 298.341146 
L 336.506642 296.408941 
L 338.635582 294.378913 
L 340.653277 292.252328 
L 342.561355 290.036893 
L 344.351358 287.734269 
L 346.025324 285.352188 
L 347.577666 282.894045 
L 349.002859 280.363511 
L 350.300861 277.767057 
L 351.466434 275.10862 
L 352.494421 272.392406 
L 353.379761 269.62289 
L 354.120286 266.805883 
L 354.708404 263.945224 
L 355.136575 261.045207 
L 355.400168 258.111509 
L 355.488993 255.148318 
L 355.392904 252.160479 
L 355.098944 249.152717 
L 354.597098 246.131343 
L 353.868757 243.101305 
L 352.892415 240.068201 
L 351.643674 237.03853 
L 350.083495 234.01788 
L 348.173393 231.014643 
L 345.848358 228.036148 
L 343.025556 225.092082 
L 339.580585 222.19355 
L 335.320609 219.354374 
L 329.9211 216.592661 
L 322.780185 213.934687 
L 312.538037 211.422337 
L 294.971792 209.142541 
L 294.971792 209.142541 
" clip-path="url(#pb25d471677)" style="fill: none; stroke-dasharray: 5.55,2.4; stroke-dashoffset: 0; stroke: #0000ff; stroke-width: 1.5"/>
   </g>
   <g id="patch_3">
    <path d="M 365.88375 207.477187 
C 365.88375 185.636245 361.581561 164.007679 353.223394 143.829279 
C 344.865227 123.650879 332.613628 105.315066 317.16975 89.871188 
C 301.725871 74.427309 283.390058 62.17571 263.211658 53.817544 
C 243.033259 45.459377 221.404692 41.157187 199.56375 41.157187 
C 177.722808 41.157187 156.094241 45.459377 135.915842 53.817544 
C 115.737442 62.17571 97.401629 74.427309 81.95775 89.871188 
C 66.513872 105.315066 54.262273 123.650879 45.904106 143.829279 
C 37.545939 164.007679 33.24375 185.636245 33.24375 207.477187 
C 33.24375 229.31813 37.545939 250.946696 45.904106 271.125096 
C 54.262273 291.303496 66.513872 309.639309 81.95775 325.083187 
C 97.401629 340.527066 115.737442 352.778665 135.915842 361.136831 
C 156.094241 369.494998 177.722808 373.797187 199.56375 373.797187 
C 221.404692 373.797187 243.033259 369.494998 263.211658 361.136831 
C 283.390058 352.778665 301.725871 340.527066 317.16975 325.083187 
C 332.613628 309.639309 344.865227 291.303496 353.223394 271.125096 
C 361.581561 250.946696 365.88375 229.31813 365.88375 207.477187 
" style="fill: none; stroke: #000000; stroke-width: 0.8; stroke-linejoin: miter; stroke-linecap: square"/>
   </g>
   <g id="text_19">
    <!-- Radiation Diagram - 4AVHF10 -->
    <g transform="translate(110.319375 16.318125)scale(0.12 -0.12)">
     <defs>
      <path id="DejaVuSans-52" d="M 2841 2188 
Q 3044 2119 3236 1894 
Q 3428 1669 3622 1275 
L 4263 0 
L 3584 0 
L 2988 1197 
Q 2756 1666 2539 1819 
Q 2322 1972 1947 1972 
L 1259 1972 
L 1259 0 
L 628 0 
L 628 4666 
L 2053 4666 
Q 2853 4666 3247 4331 
Q 3641 3997 3641 3322 
Q 3641 2881 3436 2590 
Q 3231 2300 2841 2188 
z
M 1259 4147 
L 1259 2491 
L 2053 2491 
Q 2509 2491 2742 2702 
Q 2975 2913 2975 3322 
Q 2975 3731 2742 3939 
Q 2509 4147 2053 4147 
L 1259 4147 
z
" transform="scale(0.015625)"/>
      <path id="DejaVuSans-61" d="M 2194 1759 
Q 1497 1759 1228 1600 
Q 959 1441 959 1056 
Q 959 750 1161 570 
Q 1363 391 1709 391 
Q 2188 391 2477 730 
Q 2766 1069 2766 1631 
L 2766 1759 
L 2194 1759 
z
M 3341 1997 
L 3341 0 
L 2766 0 
L 2766 531 
Q 2569 213 2275 61 
Q 1981 -91 1556 -91 
Q 1019 -91 701 211 
Q 384 513 384 1019 
Q 384 1609 779 1909 
Q 1175 2209 1959 2209 
L 2766 2209 
L 2766 2266 
Q 2766 2663 2505 2880 
Q 2244 3097 1772 3097 
Q 1472 3097 1187 3025 
Q 903 2953 641 2809 
L 641 3341 
Q 956 3463 1253 3523 
Q 1550 3584 1831 3584 
Q 2591 3584 2966 3190 
Q 3341 2797 3341 1997 
z
" transform="scale(0.015625)"/>
      <path id="DejaVuSans-64" d="M 2906 2969 
L 2906 4863 
L 3481 4863 
L 3481 0 
L 2906 0 
L 2906 525 
Q 2725 213 2448 61 
Q 2172 -91 1784 -91 
Q 1150 -91 751 415 
Q 353 922 353 1747 
Q 353 2572 751 3078 
Q 1150 3584 1784 3584 
Q 2172 3584 2448 3432 
Q 2725 3281 2906 2969 
z
M 947 1747 
Q 947 1113 1208 752 
Q 1469 391 1925 391 
Q 2381 391 2643 752 
Q 2906 1113 2906 1747 
Q 2906 2381 2643 2742 
Q 2381 3103 1925 3103 
Q 1469 3103 1208 2742 
Q 947 2381 947 1747 
z
" transform="scale(0.015625)"/>
      <path id="DejaVuSans-69" d="M 603 3500 
L 1178 3500 
L 1178 0 
L 603 0 
L 603 3500 
z
M 603 4863 
L 1178 4863 
L 1178 4134 
L 603 4134 
L 603 4863 
z
" transform="scale(0.015625)"/>
      <path id="DejaVuSans-74" d="M 1172 4494 
L 1172 3500 
L 2356 3500 
L 2356 3053 
L 1172 3053 
L 1172 1153 
Q 1172 725 1289 603 
Q 1406 481 1766 481 
L 2356 481 
L 2356 0 
L 1766 0 
Q 1100 0 847 248 
Q 594 497 594 1153 
L 594 3053 
L 172 3053 
L 172 3500 
L 594 3500 
L 594 4494 
L 1172 4494 
z
" transform="scale(0.015625)"/>
      <path id="DejaVuSans-6f" d="M 1959 3097 
Q 1497 3097 1228 2736 
Q 959 2375 959 1747 
Q 959 1119 1226 758 
Q 1494 397 1959 397 
Q 2419 397 2687 759 
Q 2956 1122 2956 1747 
Q 2956 2369 2687 2733 
Q 2419 3097 1959 3097 
z
M 1959 3584 
Q 2709 3584 3137 3096 
Q 3566 2609 3566 1747 
Q 3566 888 3137 398 
Q 2709 -91 1959 -91 
Q 1206 -91 779 398 
Q 353 888 353 1747 
Q 353 2609 779 3096 
Q 1206 3584 1959 3584 
z
" transform="scale(0.015625)"/>
      <path id="DejaVuSans-6e" d="M 3513 2113 
L 3513 0 
L 2938 0 
L 2938 2094 
Q 2938 2591 2744 2837 
Q 2550 3084 2163 3084 
Q 1697 3084 1428 2787 
Q 1159 2491 1159 1978 
L 1159 0 
L 581 0 
L 581 3500 
L 1159 3500 
L 1159 2956 
Q 1366 3272 1645 3428 
Q 1925 3584 2291 3584 
Q 2894 3584 3203 3211 
Q 3513 2838 3513 2113 
z
" transform="scale(0.015625)"/>
      <path id="DejaVuSans-20" transform="scale(0.015625)"/>
      <path id="DejaVuSans-44" d="M 1259 4147 
L 1259 519 
L 2022 519 
Q 2988 519 3436 956 
Q 3884 1394 3884 2338 
Q 3884 3275 3436 3711 
Q 2988 4147 2022 4147 
L 1259 4147 
z
M 628 4666 
L 1925 4666 
Q 3281 4666 3915 4102 
Q 4550 3538 4550 2338 
Q 4550 1131 3912 565 
Q 3275 0 1925 0 
L 628 0 
L 628 4666 
z
" transform="scale(0.015625)"/>
      <path id="DejaVuSans-67" d="M 2906 1791 
Q 2906 2416 2648 2759 
Q 2391 3103 1925 3103 
Q 1463 3103 1205 2759 
Q 947 2416 947 1791 
Q 947 1169 1205 825 
Q 1463 481 1925 481 
Q 2391 481 2648 825 
Q 2906 1169 2906 1791 
z
M 3481 434 
Q 3481 -459 3084 -895 
Q 2688 -1331 1869 -1331 
Q 1566 -1331 1297 -1286 
Q 1028 -1241 775 -1147 
L 775 -588 
Q 1028 -725 1275 -790 
Q 1522 -856 1778 -856 
Q 2344 -856 2625 -561 
Q 2906 -266 2906 331 
L 2906 616 
Q 2728 306 2450 153 
Q 2172 0 1784 0 
Q 1141 0 747 490 
Q 353 981 353 1791 
Q 353 2603 747 3093 
Q 1141 3584 1784 3584 
Q 2172 3584 2450 3431 
Q 2728 3278 2906 2969 
L 2906 3500 
L 3481 3500 
L 3481 434 
z
" transform="scale(0.015625)"/>
      <path id="DejaVuSans-72" d="M 2631 2963 
Q 2534 3019 2420 3045 
Q 2306 3072 2169 3072 
Q 1681 3072 1420 2755 
Q 1159 2438 1159 1844 
L 1159 0 
L 581 0 
L 581 3500 
L 1159 3500 
L 1159 2956 
Q 1341 3275 1631 3429 
Q 1922 3584 2338 3584 
Q 2397 3584 2469 3576 
Q 2541 3569 2628 3553 
L 2631 2963 
z
" transform="scale(0.015625)"/>
      <path id="DejaVuSans-6d" d="M 3328 2828 
Q 3544 3216 3844 3400 
Q 4144 3584 4550 3584 
Q 5097 3584 5394 3201 
Q 5691 2819 5691 2113 
L 5691 0 
L 5113 0 
L 5113 2094 
Q 5113 2597 4934 2840 
Q 4756 3084 4391 3084 
Q 3944 3084 3684 2787 
Q 3425 2491 3425 1978 
L 3425 0 
L 2847 0 
L 2847 2094 
Q 2847 2600 2669 2842 
Q 2491 3084 2119 3084 
Q 1678 3084 1418 2786 
Q 1159 2488 1159 1978 
L 1159 0 
L 581 0 
L 581 3500 
L 1159 3500 
L 1159 2956 
Q 1356 3278 1631 3431 
Q 1906 3584 2284 3584 
Q 2666 3584 2933 3390 
Q 3200 3197 3328 2828 
z
" transform="scale(0.015625)"/>
      <path id="DejaVuSans-2d" d="M 313 2009 
L 1997 2009 
L 1997 1497 
L 313 1497 
L 313 2009 
z
" transform="scale(0.015625)"/>
      <path id="DejaVuSans-41" d="M 2188 4044 
L 1331 1722 
L 3047 1722 
L 2188 4044 
z
M 1831 4666 
L 2547 4666 
L 4325 0 
L 3669 0 
L 3244 1197 
L 1141 1197 
L 716 0 
L 50 0 
L 1831 4666 
z
" transform="scale(0.015625)"/>
      <path id="DejaVuSans-56" d="M 1831 0 
L 50 4666 
L 709 4666 
L 2188 738 
L 3669 4666 
L 4325 4666 
L 2547 0 
L 1831 0 
z
" transform="scale(0.015625)"/>
      <path id="DejaVuSans-48" d="M 628 4666 
L 1259 4666 
L 1259 2753 
L 3553 2753 
L 3553 4666 
L 4184 4666 
L 4184 0 
L 3553 0 
L 3553 2222 
L 1259 2222 
L 1259 0 
L 628 0 
L 628 4666 
z
" transform="scale(0.015625)"/>
      <path id="DejaVuSans-46" d="M 628 4666 
L 3309 4666 
L 3309 4134 
L 1259 4134 
L 1259 2759 
L 3109 2759 
L 3109 2228 
L 1259 2228 
L 1259 0 
L 628 0 
L 628 4666 
z
" transform="scale(0.015625)"/>
     </defs>
     <use xlink:href="#DejaVuSans-52"/>
     <use xlink:href="#DejaVuSans-61" x="67.232422"/>
     <use xlink:href="#DejaVuSans-64" x="128.511719"/>
     <use xlink:href="#DejaVuSans-69" x="191.988281"/>
     <use xlink:href="#DejaVuSans-61" x="219.771484"/>
     <use xlink:href="#DejaVuSans-74" x="281.050781"/>
     <use xlink:href="#DejaVuSans-69" x="320.259766"/>
     <use xlink:href="#DejaVuSans-6f" x="348.042969"/>
     <use xlink:href="#DejaVuSans-6e" x="409.224609"/>
     <use xlink:href="#DejaVuSans-20" x="472.603516"/>
     <use xlink:href="#DejaVuSans-44" x="504.390625"/>
     <use xlink:href="#DejaVuSans-69" x="581.392578"/>
     <use xlink:href="#DejaVuSans-61" x="609.175781"/>
     <use xlink:href="#DejaVuSans-67" x="670.455078"/>
     <use xlink:href="#DejaVuSans-72" x="733.931641"/>
     <use xlink:href="#DejaVuSans-61" x="775.044922"/>
     <use xlink:href="#DejaVuSans-6d" x="836.324219"/>
     <use xlink:href="#DejaVuSans-20" x="933.736328"/>
     <use xlink:href="#DejaVuSans-2d" x="965.523438"/>
     <use xlink:href="#DejaVuSans-20" x="1001.607422"/>
     <use xlink:href="#DejaVuSans-34" x="1033.394531"/>
     <use xlink:href="#DejaVuSans-41" x="1097.017578"/>
     <use xlink:href="#DejaVuSans-56" x="1159.050781"/>
     <use xlink:href="#DejaVuSans-48" x="1227.458984"/>
     <use xlink:href="#DejaVuSans-46" x="1302.654297"/>
     <use xlink:href="#DejaVuSans-31" x="1360.173828"/>
     <use xlink:href="#DejaVuSans-30" x="1423.796875"/>
    </g>
   </g>
   <g id="legend_1">
    <g id="patch_4">
     <path d="M 304.104062 78.513437 
L 358.88375 78.513437 
Q 360.88375 78.513437 360.88375 76.513437 
L 360.88375 48.157187 
Q 360.88375 46.157187 358.88375 46.157187 
L 304.104062 46.157187 
Q 302.104062 46.157187 302.104062 48.157187 
L 302.104062 76.513437 
Q 302.104062 78.513437 304.104062 78.513437 
z
" style="fill: #ffffff; opacity: 0.8; stroke: #cccccc; stroke-linejoin: miter"/>
    </g>
    <g id="line2d_21">
     <path d="M 306.104062 54.255625 
L 316.104062 54.255625 
L 326.104062 54.255625 
" style="fill: none; stroke: #ff0000; stroke-width: 1.5; stroke-linecap: square"/>
    </g>
    <g id="text_20">
     <!-- INPE -->
     <g transform="translate(334.104062 57.755625)scale(0.1 -0.1)">
      <defs>
       <path id="DejaVuSans-49" d="M 628 4666 
L 1259 4666 
L 1259 0 
L 628 0 
L 628 4666 
z
" transform="scale(0.015625)"/>
       <path id="DejaVuSans-4e" d="M 628 4666 
L 1478 4666 
L 3547 763 
L 3547 4666 
L 4159 4666 
L 4159 0 
L 3309 0 
L 1241 3903 
L 1241 0 
L 628 0 
L 628 4666 
z
" transform="scale(0.015625)"/>
       <path id="DejaVuSans-50" d="M 1259 4147 
L 1259 2394 
L 2053 2394 
Q 2494 2394 2734 2622 
Q 2975 2850 2975 3272 
Q 2975 3691 2734 3919 
Q 2494 4147 2053 4147 
L 1259 4147 
z
M 628 4666 
L 2053 4666 
Q 2838 4666 3239 4311 
Q 3641 3956 3641 3272 
Q 3641 2581 3239 2228 
Q 2838 1875 2053 1875 
L 1259 1875 
L 1259 0 
L 628 0 
L 628 4666 
z
" transform="scale(0.015625)"/>
       <path id="DejaVuSans-45" d="M 628 4666 
L 3578 4666 
L 3578 4134 
L 1259 4134 
L 1259 2753 
L 3481 2753 
L 3481 2222 
L 1259 2222 
L 1259 531 
L 3634 531 
L 3634 0 
L 628 0 
L 628 4666 
z
" transform="scale(0.015625)"/>
      </defs>
      <use xlink:href="#DejaVuSans-49"/>
      <use xlink:href="#DejaVuSans-4e" x="29.492188"/>
      <use xlink:href="#DejaVuSans-50" x="104.296875"/>
      <use xlink:href="#DejaVuSans-45" x="164.599609"/>
     </g>
    </g>
    <g id="line2d_22">
     <path d="M 306.104062 68.93375 
L 316.104062 68.93375 
L 326.104062 68.93375 
" style="fill: none; stroke-dasharray: 5.55,2.4; stroke-dashoffset: 0; stroke: #0000ff; stroke-width: 1.5"/>
    </g>
    <g id="text_21">
     <!-- CST -->
     <g transform="translate(334.104062 72.43375)scale(0.1 -0.1)">
      <defs>
       <path id="DejaVuSans-43" d="M 4122 4306 
L 4122 3641 
Q 3803 3938 3442 4084 
Q 3081 4231 2675 4231 
Q 1875 4231 1450 3742 
Q 1025 3253 1025 2328 
Q 1025 1406 1450 917 
Q 1875 428 2675 428 
Q 3081 428 3442 575 
Q 3803 722 4122 1019 
L 4122 359 
Q 3791 134 3420 21 
Q 3050 -91 2638 -91 
Q 1578 -91 968 557 
Q 359 1206 359 2328 
Q 359 3453 968 4101 
Q 1578 4750 2638 4750 
Q 3056 4750 3426 4639 
Q 3797 4528 4122 4306 
z
" transform="scale(0.015625)"/>
       <path id="DejaVuSans-53" d="M 3425 4513 
L 3425 3897 
Q 3066 4069 2747 4153 
Q 2428 4238 2131 4238 
Q 1616 4238 1336 4038 
Q 1056 3838 1056 3469 
Q 1056 3159 1242 3001 
Q 1428 2844 1947 2747 
L 2328 2669 
Q 3034 2534 3370 2195 
Q 3706 1856 3706 1288 
Q 3706 609 3251 259 
Q 2797 -91 1919 -91 
Q 1588 -91 1214 -16 
Q 841 59 441 206 
L 441 856 
Q 825 641 1194 531 
Q 1563 422 1919 422 
Q 2459 422 2753 634 
Q 3047 847 3047 1241 
Q 3047 1584 2836 1778 
Q 2625 1972 2144 2069 
L 1759 2144 
Q 1053 2284 737 2584 
Q 422 2884 422 3419 
Q 422 4038 858 4394 
Q 1294 4750 2059 4750 
Q 2388 4750 2728 4690 
Q 3069 4631 3425 4513 
z
" transform="scale(0.015625)"/>
       <path id="DejaVuSans-54" d="M -19 4666 
L 3928 4666 
L 3928 4134 
L 2272 4134 
L 2272 0 
L 1638 0 
L 1638 4134 
L -19 4134 
L -19 4666 
z
" transform="scale(0.015625)"/>
      </defs>
      <use xlink:href="#DejaVuSans-43"/>
      <use xlink:href="#DejaVuSans-53" x="69.824219"/>
      <use xlink:href="#DejaVuSans-54" x="133.300781"/>
     </g>
    </g>
   </g>
  </g>
 </g>
 <defs>
  <clipPath id="pb25d471677">
   <path d="M 365.88375 207.477187 
C 365.88375 185.636245 361.581561 164.007679 353.223394 143.829279 
C 344.865227 123.650879 332.613628 105.315066 317.16975 89.871188 
C 301.725871 74.427309 283.390058 62.17571 263.211658 53.817544 
C 243.033259 45.459377 221.404692 41.157187 199.56375 41.157187 
C 177.722808 41.157187 156.094241 45.459377 135.915842 53.817544 
C 115.737442 62.17571 97.401629 74.427309 81.95775 89.871188 
C 66.513872 105.315066 54.262273 123.650879 45.904106 143.829279 
C 37.545939 164.007679 33.24375 185.636245 33.24375 207.477187 
C 33.24375 229.31813 37.545939 250.946696 45.904106 271.125096 
C 54.262273 291.303496 66.513872 309.639309 81.95775 325.083187 
C 97.401629 340.527066 115.737442 352.778665 135.915842 361.136831 
C 156.094241 369.494998 177.722808 373.797187 199.56375 373.797187 
C 221.404692 373.797187 243.033259 369.494998 263.211658 361.136831 
C 283.390058 352.778665 301.725871 340.527066 317.16975 325.083187 
C 332.613628 309.639309 344.865227 291.303496 353.223394 271.125096 
C 361.581561 250.946696 365.88375 229.31813 365.88375 207.477187 
M 199.56375 207.477187 
C 199.56375 207.477187 199.56375 207.477187 199.56375 207.477187 
C 199.56375 207.477187 199.56375 207.477187 199.56375 207.477187 
C 199.56375 207.477187 199.56375 207.477187 199.56375 207.477187 
C 199.56375 207.477187 199.56375 207.477187 199.56375 207.477187 
C 199.56375 207.477187 199.56375 207.477187 199.56375 207.477187 
C 199.56375 207.477187 199.56375 207.477187 199.56375 207.477187 
C 199.56375 207.477187 199.56375 207.477187 199.56375 207.477187 
C 199.56375 207.477187 199.56375 207.477187 199.56375 207.477187 
C 199.56375 207.477187 199.56375 207.477187 199.56375 207.477187 
C 199.56375 207.477187 199.56375 207.477187 199.56375 207.477187 
C 199.56375 207.477187 199.56375 207.477187 199.56375 207.477187 
C 199.56375 207.477187 199.56375 207.477187 199.56375 207.477187 
C 199.56375 207.477187 199.56375 207.477187 199.56375 207.477187 
C 199.56375 207.477187 199.56375 207.477187 199.56375 207.477187 
C 199.56375 207.477187 199.56375 207.477187 199.56375 207.477187 
C 199.56375 207.477187 199.56375 207.477187 199.56375 207.477187 
M 365.88375 207.477187 
z
"/>
  </clipPath>
 </defs>
</svg>
