<?xml version="1.0" encoding="utf-8" standalone="no"?>
<!DOCTYPE svg PUBLIC "-//W3C//DTD SVG 1.1//EN"
  "http://www.w3.org/Graphics/SVG/1.1/DTD/svg11.dtd">
<svg xmlns:xlink="http://www.w3.org/1999/xlink" width="392.765pt" height="399.83625pt" viewBox="0 0 392.765 399.83625" xmlns="http://www.w3.org/2000/svg" version="1.1">
 <metadata>
  <rdf:RDF xmlns:dc="http://purl.org/dc/elements/1.1/" xmlns:cc="http://creativecommons.org/ns#" xmlns:rdf="http://www.w3.org/1999/02/22-rdf-syntax-ns#">
   <cc:Work>
    <dc:type rdf:resource="http://purl.org/dc/dcmitype/StillImage"/>
    <dc:date>2023-11-03T14:15:40.229496</dc:date>
    <dc:format>image/svg+xml</dc:format>
    <dc:creator>
     <cc:Agent>
      <dc:title>Matplotlib v3.5.1, https://matplotlib.org/</dc:title>
     </cc:Agent>
    </dc:creator>
   </cc:Work>
  </rdf:RDF>
 </metadata>
 <defs>
  <style type="text/css">*{stroke-linejoin: round; stroke-linecap: butt}</style>
 </defs>
 <g id="figure_1">
  <g id="patch_1">
   <path d="M 0 399.83625 
L 392.765 399.83625 
L 392.765 0 
L 0 0 
z
" style="fill: #ffffff"/>
  </g>
  <g id="axes_1">
   <g id="patch_2">
    <path d="M 365.88375 207.477187 
C 365.88375 185.636245 361.581561 164.007679 353.223394 143.829279 
C 344.865227 123.650879 332.613628 105.315066 317.16975 89.871188 
C 301.725871 74.427309 283.390058 62.17571 263.211658 53.817544 
C 243.033259 45.459377 221.404692 41.157187 199.56375 41.157187 
C 177.722808 41.157187 156.094241 45.459377 135.915842 53.817544 
C 115.737442 62.17571 97.401629 74.427309 81.95775 89.871188 
C 66.513872 105.315066 54.262273 123.650879 45.904106 143.829279 
C 37.545939 164.007679 33.24375 185.636245 33.24375 207.477187 
C 33.24375 229.31813 37.545939 250.946696 45.904106 271.125096 
C 54.262273 291.303496 66.513872 309.639309 81.95775 325.083187 
C 97.401629 340.527066 115.737442 352.778665 135.915842 361.136831 
C 156.094241 369.494998 177.722808 373.797188 199.56375 373.797188 
C 221.404692 373.797188 243.033259 369.494998 263.211658 361.136831 
C 283.390058 352.778665 301.725871 340.527066 317.16975 325.083187 
C 332.613628 309.639309 344.865227 291.303496 353.223394 271.125096 
C 361.581561 250.946696 365.88375 229.31813 365.88375 207.477188 
M 199.56375 207.477187 
C 199.56375 207.477187 199.56375 207.477187 199.56375 207.477187 
C 199.56375 207.477187 199.56375 207.477187 199.56375 207.477187 
C 199.56375 207.477187 199.56375 207.477187 199.56375 207.477187 
C 199.56375 207.477187 199.56375 207.477187 199.56375 207.477187 
C 199.56375 207.477187 199.56375 207.477187 199.56375 207.477187 
C 199.56375 207.477187 199.56375 207.477187 199.56375 207.477187 
C 199.56375 207.477187 199.56375 207.477187 199.56375 207.477187 
C 199.56375 207.477187 199.56375 207.477187 199.56375 207.477187 
C 199.56375 207.477187 199.56375 207.477187 199.56375 207.477187 
C 199.56375 207.477187 199.56375 207.477187 199.56375 207.477187 
C 199.56375 207.477187 199.56375 207.477187 199.56375 207.477187 
C 199.56375 207.477187 199.56375 207.477187 199.56375 207.477187 
C 199.56375 207.477187 199.56375 207.477187 199.56375 207.477187 
C 199.56375 207.477187 199.56375 207.477187 199.56375 207.477187 
C 199.56375 207.477187 199.56375 207.477187 199.56375 207.477187 
C 199.56375 207.477187 199.56375 207.477187 199.56375 207.477187 
M 365.88375 207.477187 
z
" style="fill: #ffffff"/>
   </g>
   <g id="matplotlib.axis_1">
    <g id="xtick_1">
     <g id="line2d_1">
      <path d="M 199.56375 207.477187 
L 365.88375 207.477187 
" clip-path="url(#pcd67cb437c)" style="fill: none; stroke: #b0b0b0; stroke-width: 0.8; stroke-linecap: square"/>
     </g>
     <g id="text_1">
      <!-- 0° -->
      <g transform="translate(374.2025 210.236562)scale(0.1 -0.1)">
       <defs>
        <path id="DejaVuSans-30" d="M 2034 4250 
Q 1547 4250 1301 3770 
Q 1056 3291 1056 2328 
Q 1056 1369 1301 889 
Q 1547 409 2034 409 
Q 2525 409 2770 889 
Q 3016 1369 3016 2328 
Q 3016 3291 2770 3770 
Q 2525 4250 2034 4250 
z
M 2034 4750 
Q 2819 4750 3233 4129 
Q 3647 3509 3647 2328 
Q 3647 1150 3233 529 
Q 2819 -91 2034 -91 
Q 1250 -91 836 529 
Q 422 1150 422 2328 
Q 422 3509 836 4129 
Q 1250 4750 2034 4750 
z
" transform="scale(0.015625)"/>
        <path id="DejaVuSans-b0" d="M 1600 4347 
Q 1350 4347 1178 4173 
Q 1006 4000 1006 3750 
Q 1006 3503 1178 3333 
Q 1350 3163 1600 3163 
Q 1850 3163 2022 3333 
Q 2194 3503 2194 3750 
Q 2194 3997 2020 4172 
Q 1847 4347 1600 4347 
z
M 1600 4750 
Q 1800 4750 1984 4673 
Q 2169 4597 2303 4453 
Q 2447 4313 2519 4134 
Q 2591 3956 2591 3750 
Q 2591 3338 2302 3052 
Q 2013 2766 1594 2766 
Q 1172 2766 890 3047 
Q 609 3328 609 3750 
Q 609 4169 896 4459 
Q 1184 4750 1600 4750 
z
" transform="scale(0.015625)"/>
       </defs>
       <use xlink:href="#DejaVuSans-30"/>
       <use xlink:href="#DejaVuSans-b0" x="63.623047"/>
      </g>
     </g>
    </g>
    <g id="xtick_2">
     <g id="line2d_2">
      <path d="M 199.56375 207.477187 
L 317.16975 89.871188 
" clip-path="url(#pcd67cb437c)" style="fill: none; stroke: #b0b0b0; stroke-width: 0.8; stroke-linecap: square"/>
     </g>
     <g id="text_2">
      <!-- 45° -->
      <g transform="translate(318.206745 82.731068)scale(0.1 -0.1)">
       <defs>
        <path id="DejaVuSans-34" d="M 2419 4116 
L 825 1625 
L 2419 1625 
L 2419 4116 
z
M 2253 4666 
L 3047 4666 
L 3047 1625 
L 3713 1625 
L 3713 1100 
L 3047 1100 
L 3047 0 
L 2419 0 
L 2419 1100 
L 313 1100 
L 313 1709 
L 2253 4666 
z
" transform="scale(0.015625)"/>
        <path id="DejaVuSans-35" d="M 691 4666 
L 3169 4666 
L 3169 4134 
L 1269 4134 
L 1269 2991 
Q 1406 3038 1543 3061 
Q 1681 3084 1819 3084 
Q 2600 3084 3056 2656 
Q 3513 2228 3513 1497 
Q 3513 744 3044 326 
Q 2575 -91 1722 -91 
Q 1428 -91 1123 -41 
Q 819 9 494 109 
L 494 744 
Q 775 591 1075 516 
Q 1375 441 1709 441 
Q 2250 441 2565 725 
Q 2881 1009 2881 1497 
Q 2881 1984 2565 2268 
Q 2250 2553 1709 2553 
Q 1456 2553 1204 2497 
Q 953 2441 691 2322 
L 691 4666 
z
" transform="scale(0.015625)"/>
       </defs>
       <use xlink:href="#DejaVuSans-34"/>
       <use xlink:href="#DejaVuSans-35" x="63.623047"/>
       <use xlink:href="#DejaVuSans-b0" x="127.246094"/>
      </g>
     </g>
    </g>
    <g id="xtick_3">
     <g id="line2d_3">
      <path d="M 199.56375 207.477187 
L 199.56375 41.157187 
" clip-path="url(#pcd67cb437c)" style="fill: none; stroke: #b0b0b0; stroke-width: 0.8; stroke-linecap: square"/>
     </g>
     <g id="text_3">
      <!-- 90° -->
      <g transform="translate(190.70125 29.916562)scale(0.1 -0.1)">
       <defs>
        <path id="DejaVuSans-39" d="M 703 97 
L 703 672 
Q 941 559 1184 500 
Q 1428 441 1663 441 
Q 2288 441 2617 861 
Q 2947 1281 2994 2138 
Q 2813 1869 2534 1725 
Q 2256 1581 1919 1581 
Q 1219 1581 811 2004 
Q 403 2428 403 3163 
Q 403 3881 828 4315 
Q 1253 4750 1959 4750 
Q 2769 4750 3195 4129 
Q 3622 3509 3622 2328 
Q 3622 1225 3098 567 
Q 2575 -91 1691 -91 
Q 1453 -91 1209 -44 
Q 966 3 703 97 
z
M 1959 2075 
Q 2384 2075 2632 2365 
Q 2881 2656 2881 3163 
Q 2881 3666 2632 3958 
Q 2384 4250 1959 4250 
Q 1534 4250 1286 3958 
Q 1038 3666 1038 3163 
Q 1038 2656 1286 2365 
Q 1534 2075 1959 2075 
z
" transform="scale(0.015625)"/>
       </defs>
       <use xlink:href="#DejaVuSans-39"/>
       <use xlink:href="#DejaVuSans-30" x="63.623047"/>
       <use xlink:href="#DejaVuSans-b0" x="127.246094"/>
      </g>
     </g>
    </g>
    <g id="xtick_4">
     <g id="line2d_4">
      <path d="M 199.56375 207.477187 
L 81.95775 89.871188 
" clip-path="url(#pcd67cb437c)" style="fill: none; stroke: #b0b0b0; stroke-width: 0.8; stroke-linecap: square"/>
     </g>
     <g id="text_4">
      <!-- 135° -->
      <g transform="translate(60.014505 82.731068)scale(0.1 -0.1)">
       <defs>
        <path id="DejaVuSans-31" d="M 794 531 
L 1825 531 
L 1825 4091 
L 703 3866 
L 703 4441 
L 1819 4666 
L 2450 4666 
L 2450 531 
L 3481 531 
L 3481 0 
L 794 0 
L 794 531 
z
" transform="scale(0.015625)"/>
        <path id="DejaVuSans-33" d="M 2597 2516 
Q 3050 2419 3304 2112 
Q 3559 1806 3559 1356 
Q 3559 666 3084 287 
Q 2609 -91 1734 -91 
Q 1441 -91 1130 -33 
Q 819 25 488 141 
L 488 750 
Q 750 597 1062 519 
Q 1375 441 1716 441 
Q 2309 441 2620 675 
Q 2931 909 2931 1356 
Q 2931 1769 2642 2001 
Q 2353 2234 1838 2234 
L 1294 2234 
L 1294 2753 
L 1863 2753 
Q 2328 2753 2575 2939 
Q 2822 3125 2822 3475 
Q 2822 3834 2567 4026 
Q 2313 4219 1838 4219 
Q 1578 4219 1281 4162 
Q 984 4106 628 3988 
L 628 4550 
Q 988 4650 1302 4700 
Q 1616 4750 1894 4750 
Q 2613 4750 3031 4423 
Q 3450 4097 3450 3541 
Q 3450 3153 3228 2886 
Q 3006 2619 2597 2516 
z
" transform="scale(0.015625)"/>
       </defs>
       <use xlink:href="#DejaVuSans-31"/>
       <use xlink:href="#DejaVuSans-33" x="63.623047"/>
       <use xlink:href="#DejaVuSans-35" x="127.246094"/>
       <use xlink:href="#DejaVuSans-b0" x="190.869141"/>
      </g>
     </g>
    </g>
    <g id="xtick_5">
     <g id="line2d_5">
      <path d="M 199.56375 207.477187 
L 33.24375 207.477187 
" clip-path="url(#pcd67cb437c)" style="fill: none; stroke: #b0b0b0; stroke-width: 0.8; stroke-linecap: square"/>
     </g>
     <g id="text_5">
      <!-- 180° -->
      <g transform="translate(7.2 210.236562)scale(0.1 -0.1)">
       <defs>
        <path id="DejaVuSans-38" d="M 2034 2216 
Q 1584 2216 1326 1975 
Q 1069 1734 1069 1313 
Q 1069 891 1326 650 
Q 1584 409 2034 409 
Q 2484 409 2743 651 
Q 3003 894 3003 1313 
Q 3003 1734 2745 1975 
Q 2488 2216 2034 2216 
z
M 1403 2484 
Q 997 2584 770 2862 
Q 544 3141 544 3541 
Q 544 4100 942 4425 
Q 1341 4750 2034 4750 
Q 2731 4750 3128 4425 
Q 3525 4100 3525 3541 
Q 3525 3141 3298 2862 
Q 3072 2584 2669 2484 
Q 3125 2378 3379 2068 
Q 3634 1759 3634 1313 
Q 3634 634 3220 271 
Q 2806 -91 2034 -91 
Q 1263 -91 848 271 
Q 434 634 434 1313 
Q 434 1759 690 2068 
Q 947 2378 1403 2484 
z
M 1172 3481 
Q 1172 3119 1398 2916 
Q 1625 2713 2034 2713 
Q 2441 2713 2670 2916 
Q 2900 3119 2900 3481 
Q 2900 3844 2670 4047 
Q 2441 4250 2034 4250 
Q 1625 4250 1398 4047 
Q 1172 3844 1172 3481 
z
" transform="scale(0.015625)"/>
       </defs>
       <use xlink:href="#DejaVuSans-31"/>
       <use xlink:href="#DejaVuSans-38" x="63.623047"/>
       <use xlink:href="#DejaVuSans-30" x="127.246094"/>
       <use xlink:href="#DejaVuSans-b0" x="190.869141"/>
      </g>
     </g>
    </g>
    <g id="xtick_6">
     <g id="line2d_6">
      <path d="M 199.56375 207.477187 
L 81.95775 325.083187 
" clip-path="url(#pcd67cb437c)" style="fill: none; stroke: #b0b0b0; stroke-width: 0.8; stroke-linecap: square"/>
     </g>
     <g id="text_6">
      <!-- 225° -->
      <g transform="translate(60.014505 337.742057)scale(0.1 -0.1)">
       <defs>
        <path id="DejaVuSans-32" d="M 1228 531 
L 3431 531 
L 3431 0 
L 469 0 
L 469 531 
Q 828 903 1448 1529 
Q 2069 2156 2228 2338 
Q 2531 2678 2651 2914 
Q 2772 3150 2772 3378 
Q 2772 3750 2511 3984 
Q 2250 4219 1831 4219 
Q 1534 4219 1204 4116 
Q 875 4013 500 3803 
L 500 4441 
Q 881 4594 1212 4672 
Q 1544 4750 1819 4750 
Q 2544 4750 2975 4387 
Q 3406 4025 3406 3419 
Q 3406 3131 3298 2873 
Q 3191 2616 2906 2266 
Q 2828 2175 2409 1742 
Q 1991 1309 1228 531 
z
" transform="scale(0.015625)"/>
       </defs>
       <use xlink:href="#DejaVuSans-32"/>
       <use xlink:href="#DejaVuSans-32" x="63.623047"/>
       <use xlink:href="#DejaVuSans-35" x="127.246094"/>
       <use xlink:href="#DejaVuSans-b0" x="190.869141"/>
      </g>
     </g>
    </g>
    <g id="xtick_7">
     <g id="line2d_7">
      <path d="M 199.56375 207.477187 
L 199.56375 373.797188 
" clip-path="url(#pcd67cb437c)" style="fill: none; stroke: #b0b0b0; stroke-width: 0.8; stroke-linecap: square"/>
     </g>
     <g id="text_7">
      <!-- 270° -->
      <g transform="translate(187.52 390.556562)scale(0.1 -0.1)">
       <defs>
        <path id="DejaVuSans-37" d="M 525 4666 
L 3525 4666 
L 3525 4397 
L 1831 0 
L 1172 0 
L 2766 4134 
L 525 4134 
L 525 4666 
z
" transform="scale(0.015625)"/>
       </defs>
       <use xlink:href="#DejaVuSans-32"/>
       <use xlink:href="#DejaVuSans-37" x="63.623047"/>
       <use xlink:href="#DejaVuSans-30" x="127.246094"/>
       <use xlink:href="#DejaVuSans-b0" x="190.869141"/>
      </g>
     </g>
    </g>
    <g id="xtick_8">
     <g id="line2d_8">
      <path d="M 199.56375 207.477187 
L 317.16975 325.083187 
" clip-path="url(#pcd67cb437c)" style="fill: none; stroke: #b0b0b0; stroke-width: 0.8; stroke-linecap: square"/>
     </g>
     <g id="text_8">
      <!-- 315° -->
      <g transform="translate(315.025495 337.742057)scale(0.1 -0.1)">
       <use xlink:href="#DejaVuSans-33"/>
       <use xlink:href="#DejaVuSans-31" x="63.623047"/>
       <use xlink:href="#DejaVuSans-35" x="127.246094"/>
       <use xlink:href="#DejaVuSans-b0" x="190.869141"/>
      </g>
     </g>
    </g>
   </g>
   <g id="matplotlib.axis_2">
    <g id="ytick_1">
     <g id="line2d_9">
      <path d="M 267.425272 207.477187 
C 267.425272 198.565694 265.669902 189.740854 262.259621 181.507707 
C 258.84934 173.274561 253.85047 165.793223 247.549092 159.491845 
C 241.247715 153.190468 233.766376 148.191597 225.53323 144.781317 
C 217.300084 141.371036 208.475243 139.615666 199.56375 139.615666 
C 190.652257 139.615666 181.827416 141.371036 173.59427 144.781317 
C 165.361124 148.191597 157.879785 153.190468 151.578408 159.491845 
C 145.27703 165.793223 140.27816 173.274561 136.867879 181.507707 
C 133.457598 189.740854 131.702228 198.565694 131.702228 207.477187 
C 131.702228 216.388681 133.457598 225.213521 136.867879 233.446668 
C 140.27816 241.679814 145.27703 249.161152 151.578408 255.46253 
C 157.879785 261.763907 165.361124 266.762778 173.59427 270.173058 
C 181.827416 273.583339 190.652257 275.338709 199.56375 275.338709 
C 208.475243 275.338709 217.300084 273.583339 225.53323 270.173058 
C 233.766376 266.762778 241.247715 261.763907 247.549092 255.46253 
C 253.85047 249.161152 258.84934 241.679814 262.259621 233.446668 
C 265.669902 225.213521 267.425272 216.388681 267.425272 207.477188 
" clip-path="url(#pcd67cb437c)" style="fill: none; stroke: #b0b0b0; stroke-width: 0.8; stroke-linecap: square"/>
     </g>
     <g id="text_9">
      <!-- −30 -->
      <g transform="translate(262.259621 179.42802)scale(0.1 -0.1)">
       <defs>
        <path id="DejaVuSans-2212" d="M 678 2272 
L 4684 2272 
L 4684 1741 
L 678 1741 
L 678 2272 
z
" transform="scale(0.015625)"/>
       </defs>
       <use xlink:href="#DejaVuSans-2212"/>
       <use xlink:href="#DejaVuSans-33" x="83.789062"/>
       <use xlink:href="#DejaVuSans-30" x="147.412109"/>
      </g>
     </g>
    </g>
    <g id="ytick_2">
     <g id="line2d_10">
      <path d="M 277.271119 207.477187 
C 277.271119 197.272749 275.261068 187.167536 271.355998 177.739865 
C 267.450929 168.312193 261.726785 159.745407 254.511158 152.52978 
C 247.29553 145.314152 238.728745 139.590009 229.301073 135.684939 
C 219.873401 131.77987 209.768188 129.769818 199.56375 129.769818 
C 189.359312 129.769818 179.254099 131.77987 169.826427 135.684939 
C 160.398755 139.590009 151.83197 145.314152 144.616342 152.52978 
C 137.400715 159.745407 131.676571 168.312193 127.771502 177.739865 
C 123.866432 187.167536 121.856381 197.272749 121.856381 207.477187 
C 121.856381 217.681626 123.866432 227.786839 127.771502 237.21451 
C 131.676571 246.642182 137.400715 255.208968 144.616342 262.424595 
C 151.83197 269.640223 160.398755 275.364366 169.826427 279.269436 
C 179.254099 283.174505 189.359312 285.184557 199.56375 285.184557 
C 209.768188 285.184557 219.873401 283.174505 229.301073 279.269436 
C 238.728745 275.364366 247.29553 269.640223 254.511158 262.424595 
C 261.726785 255.208968 267.450929 246.642182 271.355998 237.21451 
C 275.261068 227.786839 277.271119 217.681626 277.271119 207.477188 
" clip-path="url(#pcd67cb437c)" style="fill: none; stroke: #b0b0b0; stroke-width: 0.8; stroke-linecap: square"/>
     </g>
     <g id="text_10">
      <!-- −27 -->
      <g transform="translate(271.355998 175.660177)scale(0.1 -0.1)">
       <use xlink:href="#DejaVuSans-2212"/>
       <use xlink:href="#DejaVuSans-32" x="83.789062"/>
       <use xlink:href="#DejaVuSans-37" x="147.412109"/>
      </g>
     </g>
    </g>
    <g id="ytick_3">
     <g id="line2d_11">
      <path d="M 287.116967 207.477187 
C 287.116967 195.979804 284.852234 184.594219 280.452375 173.972022 
C 276.052517 163.349825 269.603101 153.697591 261.473224 145.567714 
C 253.343346 137.437836 243.691113 130.98842 233.068916 126.588562 
C 222.446719 122.188704 211.061133 119.92397 199.56375 119.92397 
C 188.066367 119.92397 176.680781 122.188704 166.058584 126.588562 
C 155.436387 130.98842 145.784154 137.437836 137.654276 145.567714 
C 129.524399 153.697591 123.074983 163.349825 118.675125 173.972022 
C 114.275266 184.594219 112.010533 195.979804 112.010533 207.477187 
C 112.010533 218.974571 114.275266 230.360156 118.675125 240.982353 
C 123.074983 251.60455 129.524399 261.256784 137.654276 269.386661 
C 145.784154 277.516539 155.436387 283.965955 166.058584 288.365813 
C 176.680781 292.765671 188.066367 295.030405 199.56375 295.030405 
C 211.061133 295.030405 222.446719 292.765671 233.068916 288.365813 
C 243.691113 283.965955 253.343346 277.516539 261.473224 269.386661 
C 269.603101 261.256784 276.052517 251.60455 280.452375 240.982353 
C 284.852234 230.360156 287.116967 218.974571 287.116967 207.477188 
" clip-path="url(#pcd67cb437c)" style="fill: none; stroke: #b0b0b0; stroke-width: 0.8; stroke-linecap: square"/>
     </g>
     <g id="text_11">
      <!-- −24 -->
      <g transform="translate(280.452375 171.892334)scale(0.1 -0.1)">
       <use xlink:href="#DejaVuSans-2212"/>
       <use xlink:href="#DejaVuSans-32" x="83.789062"/>
       <use xlink:href="#DejaVuSans-34" x="147.412109"/>
      </g>
     </g>
    </g>
    <g id="ytick_4">
     <g id="line2d_12">
      <path d="M 296.962815 207.477187 
C 296.962815 194.686859 294.443399 182.020901 289.548753 170.204179 
C 284.654106 158.387457 277.479417 147.649776 268.435289 138.605648 
C 259.391162 129.56152 248.653481 122.386831 236.836759 117.492185 
C 225.020036 112.597538 212.354078 110.078122 199.56375 110.078122 
C 186.773422 110.078122 174.107464 112.597538 162.290741 117.492185 
C 150.474019 122.386831 139.736338 129.56152 130.692211 138.605648 
C 121.648083 147.649776 114.473394 158.387457 109.578747 170.204179 
C 104.684101 182.020901 102.164685 194.686859 102.164685 207.477187 
C 102.164685 220.267516 104.684101 232.933474 109.578747 244.750196 
C 114.473394 256.566918 121.648083 267.304599 130.692211 276.348727 
C 139.736338 285.392855 150.474019 292.567544 162.290741 297.46219 
C 174.107464 302.356837 186.773422 304.876253 199.56375 304.876253 
C 212.354078 304.876253 225.020036 302.356837 236.836759 297.46219 
C 248.653481 292.567544 259.391162 285.392855 268.435289 276.348727 
C 277.479417 267.304599 284.654106 256.566918 289.548753 244.750196 
C 294.443399 232.933474 296.962815 220.267516 296.962815 207.477188 
" clip-path="url(#pcd67cb437c)" style="fill: none; stroke: #b0b0b0; stroke-width: 0.8; stroke-linecap: square"/>
     </g>
     <g id="text_12">
      <!-- −21 -->
      <g transform="translate(289.548753 168.124491)scale(0.1 -0.1)">
       <use xlink:href="#DejaVuSans-2212"/>
       <use xlink:href="#DejaVuSans-32" x="83.789062"/>
       <use xlink:href="#DejaVuSans-31" x="147.412109"/>
      </g>
     </g>
    </g>
    <g id="ytick_5">
     <g id="line2d_13">
      <path d="M 306.808663 207.477187 
C 306.808663 193.393915 304.034565 179.447584 298.64513 166.436336 
C 293.255695 153.425088 285.355733 141.60196 275.397355 131.643582 
C 265.438977 121.685204 253.615849 113.785243 240.604601 108.395807 
C 227.593354 103.006372 213.647023 100.232275 199.56375 100.232275 
C 185.480477 100.232275 171.534146 103.006372 158.522899 108.395807 
C 145.511651 113.785243 133.688523 121.685204 123.730145 131.643582 
C 113.771767 141.60196 105.871805 153.425088 100.48237 166.436336 
C 95.092935 179.447584 92.318837 193.393915 92.318837 207.477187 
C 92.318837 221.56046 95.092935 235.506791 100.48237 248.518039 
C 105.871805 261.529287 113.771767 273.352415 123.730145 283.310793 
C 133.688523 293.269171 145.511651 301.169132 158.522899 306.558568 
C 171.534146 311.948003 185.480477 314.7221 199.56375 314.7221 
C 213.647023 314.7221 227.593354 311.948003 240.604601 306.558568 
C 253.615849 301.169132 265.438977 293.269171 275.397355 283.310793 
C 285.355733 273.352415 293.255695 261.529287 298.64513 248.518039 
C 304.034565 235.506791 306.808663 221.56046 306.808663 207.477188 
" clip-path="url(#pcd67cb437c)" style="fill: none; stroke: #b0b0b0; stroke-width: 0.8; stroke-linecap: square"/>
     </g>
     <g id="text_13">
      <!-- −18 -->
      <g transform="translate(298.64513 164.356649)scale(0.1 -0.1)">
       <use xlink:href="#DejaVuSans-2212"/>
       <use xlink:href="#DejaVuSans-31" x="83.789062"/>
       <use xlink:href="#DejaVuSans-38" x="147.412109"/>
      </g>
     </g>
    </g>
    <g id="ytick_6">
     <g id="line2d_14">
      <path d="M 316.654511 207.477187 
C 316.654511 192.10097 313.625731 176.874266 307.741507 162.668493 
C 301.857284 148.46272 293.232049 135.554144 282.359421 124.681517 
C 271.486793 113.808889 258.578217 105.183654 244.372444 99.29943 
C 230.166671 93.415206 214.939968 90.386427 199.56375 90.386427 
C 184.187532 90.386427 168.960829 93.415206 154.755056 99.29943 
C 140.549283 105.183654 127.640707 113.808889 116.768079 124.681517 
C 105.895451 135.554144 97.270216 148.46272 91.385993 162.668493 
C 85.501769 176.874266 82.472989 192.10097 82.472989 207.477187 
C 82.472989 222.853405 85.501769 238.080109 91.385993 252.285882 
C 97.270216 266.491655 105.895451 279.400231 116.768079 290.272858 
C 127.640707 301.145486 140.549283 309.770721 154.755056 315.654945 
C 168.960829 321.539169 184.187532 324.567948 199.56375 324.567948 
C 214.939968 324.567948 230.166671 321.539169 244.372444 315.654945 
C 258.578217 309.770721 271.486793 301.145486 282.359421 290.272858 
C 293.232049 279.400231 301.857284 266.491655 307.741507 252.285882 
C 313.625731 238.080109 316.654511 222.853405 316.654511 207.477188 
" clip-path="url(#pcd67cb437c)" style="fill: none; stroke: #b0b0b0; stroke-width: 0.8; stroke-linecap: square"/>
     </g>
     <g id="text_14">
      <!-- −15 -->
      <g transform="translate(307.741507 160.588806)scale(0.1 -0.1)">
       <use xlink:href="#DejaVuSans-2212"/>
       <use xlink:href="#DejaVuSans-31" x="83.789062"/>
       <use xlink:href="#DejaVuSans-35" x="147.412109"/>
      </g>
     </g>
    </g>
    <g id="ytick_7">
     <g id="line2d_15">
      <path d="M 326.500359 207.477187 
C 326.500359 190.808025 323.216897 174.300949 316.837885 158.90065 
C 310.458872 143.500352 301.108365 129.506329 289.321487 117.719451 
C 277.534609 105.932573 263.540585 96.582065 248.140287 90.203053 
C 232.739989 83.82404 216.232913 80.540579 199.56375 80.540579 
C 182.894587 80.540579 166.387511 83.82404 150.987213 90.203053 
C 135.586915 96.582065 121.592891 105.932573 109.806013 117.719451 
C 98.019135 129.506329 88.668628 143.500352 82.289615 158.90065 
C 75.910603 174.300949 72.627141 190.808025 72.627141 207.477187 
C 72.627141 224.14635 75.910603 240.653426 82.289615 256.053725 
C 88.668628 271.454023 98.019135 285.448046 109.806013 297.234924 
C 121.592891 309.021802 135.586915 318.37231 150.987213 324.751322 
C 166.387511 331.130335 182.894587 334.413796 199.56375 334.413796 
C 216.232913 334.413796 232.739989 331.130335 248.140287 324.751322 
C 263.540585 318.37231 277.534609 309.021802 289.321487 297.234924 
C 301.108365 285.448046 310.458872 271.454023 316.837885 256.053725 
C 323.216897 240.653426 326.500359 224.14635 326.500359 207.477188 
" clip-path="url(#pcd67cb437c)" style="fill: none; stroke: #b0b0b0; stroke-width: 0.8; stroke-linecap: square"/>
     </g>
     <g id="text_15">
      <!-- −12 -->
      <g transform="translate(316.837885 156.820963)scale(0.1 -0.1)">
       <use xlink:href="#DejaVuSans-2212"/>
       <use xlink:href="#DejaVuSans-31" x="83.789062"/>
       <use xlink:href="#DejaVuSans-32" x="147.412109"/>
      </g>
     </g>
    </g>
    <g id="ytick_8">
     <g id="line2d_16">
      <path d="M 336.346206 207.477187 
C 336.346206 189.51508 332.808063 171.727631 325.934262 155.132808 
C 319.060461 138.537984 308.984681 123.458513 296.283553 110.757385 
C 283.582424 98.056257 268.502954 87.980477 251.90813 81.106676 
C 235.313306 74.232875 217.525858 70.694731 199.56375 70.694731 
C 181.601642 70.694731 163.814194 74.232875 147.21937 81.106676 
C 130.624546 87.980477 115.545076 98.056257 102.843947 110.757385 
C 90.142819 123.458513 80.067039 138.537984 73.193238 155.132808 
C 66.319437 171.727631 62.781294 189.51508 62.781294 207.477187 
C 62.781294 225.439295 66.319437 243.226744 73.193238 259.821567 
C 80.067039 276.416391 90.142819 291.495862 102.843947 304.19699 
C 115.545076 316.898118 130.624546 326.973898 147.21937 333.847699 
C 163.814194 340.7215 181.601642 344.259644 199.56375 344.259644 
C 217.525858 344.259644 235.313306 340.7215 251.90813 333.847699 
C 268.502954 326.973898 283.582424 316.898118 296.283553 304.19699 
C 308.984681 291.495862 319.060461 276.416391 325.934262 259.821567 
C 332.808063 243.226744 336.346206 225.439295 336.346206 207.477188 
" clip-path="url(#pcd67cb437c)" style="fill: none; stroke: #b0b0b0; stroke-width: 0.8; stroke-linecap: square"/>
     </g>
     <g id="text_16">
      <!-- −9 -->
      <g transform="translate(325.934262 153.05312)scale(0.1 -0.1)">
       <use xlink:href="#DejaVuSans-2212"/>
       <use xlink:href="#DejaVuSans-39" x="83.789062"/>
      </g>
     </g>
    </g>
    <g id="ytick_9">
     <g id="line2d_17">
      <path d="M 346.192054 207.477187 
C 346.192054 188.222135 342.399229 169.154314 335.030639 151.364965 
C 327.66205 133.575616 316.860996 117.410697 303.245618 103.795319 
C 289.63024 90.179941 273.465322 79.378888 255.675973 72.010298 
C 237.886624 64.641709 218.818803 60.848883 199.56375 60.848883 
C 180.308697 60.848883 161.240876 64.641709 143.451527 72.010298 
C 125.662178 79.378888 109.49726 90.179941 95.881882 103.795319 
C 82.266504 117.410697 71.46545 133.575616 64.096861 151.364965 
C 56.728271 169.154314 52.935446 188.222135 52.935446 207.477187 
C 52.935446 226.73224 56.728271 245.800061 64.096861 263.58941 
C 71.46545 281.378759 82.266504 297.543678 95.881882 311.159056 
C 109.49726 324.774434 125.662178 335.575487 143.451527 342.944077 
C 161.240876 350.312666 180.308697 354.105492 199.56375 354.105492 
C 218.818803 354.105492 237.886624 350.312666 255.675973 342.944077 
C 273.465322 335.575487 289.63024 324.774434 303.245618 311.159056 
C 316.860996 297.543678 327.66205 281.378759 335.030639 263.58941 
C 342.399229 245.800061 346.192054 226.73224 346.192054 207.477188 
" clip-path="url(#pcd67cb437c)" style="fill: none; stroke: #b0b0b0; stroke-width: 0.8; stroke-linecap: square"/>
     </g>
     <g id="text_17">
      <!-- −6 -->
      <g transform="translate(335.030639 149.285277)scale(0.1 -0.1)">
       <defs>
        <path id="DejaVuSans-36" d="M 2113 2584 
Q 1688 2584 1439 2293 
Q 1191 2003 1191 1497 
Q 1191 994 1439 701 
Q 1688 409 2113 409 
Q 2538 409 2786 701 
Q 3034 994 3034 1497 
Q 3034 2003 2786 2293 
Q 2538 2584 2113 2584 
z
M 3366 4563 
L 3366 3988 
Q 3128 4100 2886 4159 
Q 2644 4219 2406 4219 
Q 1781 4219 1451 3797 
Q 1122 3375 1075 2522 
Q 1259 2794 1537 2939 
Q 1816 3084 2150 3084 
Q 2853 3084 3261 2657 
Q 3669 2231 3669 1497 
Q 3669 778 3244 343 
Q 2819 -91 2113 -91 
Q 1303 -91 875 529 
Q 447 1150 447 2328 
Q 447 3434 972 4092 
Q 1497 4750 2381 4750 
Q 2619 4750 2861 4703 
Q 3103 4656 3366 4563 
z
" transform="scale(0.015625)"/>
       </defs>
       <use xlink:href="#DejaVuSans-2212"/>
       <use xlink:href="#DejaVuSans-36" x="83.789062"/>
      </g>
     </g>
    </g>
    <g id="ytick_10">
     <g id="line2d_18">
      <path d="M 356.037902 207.477187 
C 356.037902 186.92919 351.990395 166.580996 344.127017 147.597122 
C 336.263638 128.613248 324.737312 111.362882 310.207684 96.833253 
C 295.678056 82.303625 278.42769 70.777299 259.443816 62.913921 
C 240.459941 55.050543 220.111747 51.003035 199.56375 51.003035 
C 179.015753 51.003035 158.667559 55.050543 139.683684 62.913921 
C 120.69981 70.777299 103.449444 82.303625 88.919816 96.833253 
C 74.390188 111.362882 62.863862 128.613248 55.000483 147.597122 
C 47.137105 166.580996 43.089598 186.92919 43.089598 207.477187 
C 43.089598 228.025185 47.137105 248.373379 55.000483 267.357253 
C 62.863862 286.341127 74.390188 303.591493 88.919816 318.121122 
C 103.449444 332.65075 120.69981 344.177076 139.683684 352.040454 
C 158.667559 359.903832 179.015753 363.95134 199.56375 363.95134 
C 220.111747 363.95134 240.459941 359.903832 259.443816 352.040454 
C 278.42769 344.177076 295.678056 332.65075 310.207684 318.121122 
C 324.737312 303.591493 336.263638 286.341127 344.127017 267.357253 
C 351.990395 248.373379 356.037902 228.025185 356.037902 207.477188 
" clip-path="url(#pcd67cb437c)" style="fill: none; stroke: #b0b0b0; stroke-width: 0.8; stroke-linecap: square"/>
     </g>
     <g id="text_18">
      <!-- −3 -->
      <g transform="translate(344.127017 145.517434)scale(0.1 -0.1)">
       <use xlink:href="#DejaVuSans-2212"/>
       <use xlink:href="#DejaVuSans-33" x="83.789062"/>
      </g>
     </g>
    </g>
   </g>
   <g id="line2d_19">
    <path d="M 300.165998 207.477187 
L 266.010476 206.317356 
L 264.23846 205.218697 
L 295.669115 202.440519 
L 313.190274 199.531647 
L 321.093519 196.84471 
L 326.869041 194.096862 
L 332.609907 191.141173 
L 338.863227 185.414318 
L 341.860351 182.386457 
L 345.276769 176.504929 
L 346.712681 173.50518 
L 347.527199 170.585756 
L 348.756551 167.501097 
L 349.582007 164.460144 
L 350.261668 158.512466 
L 350.116505 155.637717 
L 349.768648 152.807075 
L 349.2972 149.999901 
L 348.557317 147.279879 
L 346.695502 141.969911 
L 345.568501 139.394054 
L 344.337401 136.86636 
L 342.968977 134.408575 
L 341.454579 132.032496 
L 339.734506 129.779269 
L 337.714792 127.715646 
L 335.81504 125.609153 
L 333.803278 123.595021 
L 329.602321 119.765064 
L 327.355428 117.996491 
L 322.799651 114.612275 
L 320.329991 113.124259 
L 311.251699 106.912906 
L 304.942042 102.098896 
L 303.011653 100.353748 
L 299.379177 96.620925 
L 297.498167 94.816528 
L 294.074692 90.765894 
L 292.498239 88.526467 
L 290.988795 86.152055 
L 284.202964 77.144228 
L 282.562419 74.651551 
L 280.784389 72.303345 
L 278.88551 70.087868 
L 277.075507 67.642275 
L 275.136327 65.345842 
L 273.110644 63.13328 
L 271.127005 60.750771 
L 268.886872 58.813272 
L 264.180832 55.248883 
L 261.650708 53.806575 
L 259.067535 52.464528 
L 256.433948 51.227603 
L 253.712245 50.218538 
L 250.934102 49.375501 
L 245.243113 48.174318 
L 239.515956 47.237639 
L 228.159963 45.300007 
L 222.496343 44.303307 
L 208.229791 42.119272 
L 205.341089 42.035853 
L 202.447475 42.268679 
L 193.844482 43.698788 
L 188.238409 45.517272 
L 182.763145 47.630111 
L 180.047582 48.530758 
L 177.403536 49.799073 
L 174.823961 51.276305 
L 172.256661 52.610992 
L 169.765939 54.180741 
L 162.208637 57.654013 
L 157.15914 59.594738 
L 152.390067 62.29152 
L 150.157249 63.990291 
L 148.063558 65.981572 
L 145.885413 67.64034 
L 143.778901 69.404841 
L 139.775138 73.189767 
L 138.19514 75.871779 
L 135.402201 81.553056 
L 134.403777 84.929102 
L 133.345766 88.016783 
L 132.006137 90.463969 
L 130.459388 92.468216 
L 128.372293 93.547041 
L 126.010473 94.215073 
L 123.549464 94.781373 
L 121.498223 95.988061 
L 119.649239 97.484299 
L 116.188577 100.761832 
L 113.301934 104.674358 
L 111.635032 106.326769 
L 108.060013 109.351443 
L 106.557485 111.166381 
L 105.765694 113.679132 
L 105.701131 116.83511 
L 105.182687 122.496097 
L 103.850168 124.27464 
L 101.487465 125.181413 
L 93.95788 124.968839 
L 90.46334 125.264132 
L 87.207776 125.845794 
L 84.913047 127.197901 
L 82.898202 128.785282 
L 80.994866 130.477654 
L 79.307274 132.332602 
L 77.361479 134.050655 
L 74.944667 135.528326 
L 72.892756 137.262309 
L 70.544901 138.876649 
L 67.949051 140.416149 
L 65.78399 142.228439 
L 63.404449 143.985063 
L 61.165783 145.858443 
L 59.383394 147.974156 
L 57.690733 150.156768 
L 56.387182 152.516852 
L 55.480638 155.035224 
L 54.941103 157.679617 
L 54.320735 163.071942 
L 53.988055 168.470298 
L 53.768919 171.126453 
L 53.851069 179.153512 
L 54.377661 181.876963 
L 55.243123 184.619046 
L 56.487929 187.369192 
L 58.390165 190.143251 
L 60.455942 192.856368 
L 63.053313 195.534072 
L 66.414635 198.166494 
L 71.247592 200.752423 
L 77.453835 203.213015 
L 85.765709 205.490835 
L 99.588355 207.477187 
L 113.260974 208.983608 
L 109.036474 210.63847 
L 98.663473 212.765147 
L 87.482533 215.31467 
L 80.721477 217.874539 
L 67.807557 223.654814 
L 64.528452 226.455161 
L 61.72945 229.307996 
L 59.487594 232.176393 
L 58.747978 234.849001 
L 57.684848 240.232513 
L 57.354622 242.933905 
L 56.733379 245.74847 
L 56.511318 248.496812 
L 56.847263 251.109996 
L 57.455703 253.650891 
L 58.261467 256.131465 
L 59.641111 261.188456 
L 60.642415 263.60505 
L 62.084213 265.833789 
L 63.843185 267.903876 
L 66.80167 272.22958 
L 70.342056 276.185581 
L 72.364592 277.984832 
L 74.524014 279.668913 
L 76.466887 281.441245 
L 78.647644 283.033956 
L 80.975598 284.489234 
L 82.996153 286.103024 
L 84.810887 287.828007 
L 87.913028 291.612041 
L 89.742355 293.279065 
L 92.049753 294.540306 
L 94.704372 295.464653 
L 98.024455 295.74395 
L 100.958402 296.261842 
L 103.514236 297.044809 
L 106.144968 297.690657 
L 108.290604 298.750334 
L 110.312371 299.899696 
L 112.214268 301.148039 
L 113.721806 302.814324 
L 114.830311 304.951859 
L 116.745024 309.749797 
L 117.72421 312.227022 
L 118.832039 314.611786 
L 122.335913 317.769969 
L 124.322101 319.02752 
L 126.521692 319.952094 
L 128.819259 320.692038 
L 135.293298 323.424152 
L 137.372864 324.441233 
L 139.39086 325.573133 
L 141.167586 327.207066 
L 142.852725 329.094373 
L 144.405868 331.363818 
L 145.658219 334.47066 
L 150.309666 342.801672 
L 152.323095 344.674011 
L 156.324356 348.906872 
L 158.47085 350.785159 
L 160.533926 353.138475 
L 162.737425 355.179511 
L 167.529746 358.185325 
L 170.042731 359.349664 
L 175.206964 361.259879 
L 180.486348 362.850155 
L 183.123355 363.897095 
L 194.001056 366.771895 
L 196.771555 367.44194 
L 199.56375 368.34587 
L 202.38298 368.990784 
L 208.112476 370.596603 
L 213.905031 371.398781 
L 216.81376 371.600065 
L 219.702269 371.492265 
L 222.575363 371.21332 
L 225.424827 370.7576 
L 228.245448 370.139182 
L 231.007281 369.240131 
L 236.404706 367.052898 
L 241.528359 364.091239 
L 244.079761 362.722969 
L 246.650936 361.492432 
L 249.344885 360.687767 
L 252.080649 359.997336 
L 254.92195 359.572592 
L 263.365251 357.784104 
L 268.922934 356.218439 
L 271.629115 355.233083 
L 274.167036 353.89438 
L 276.504541 352.181769 
L 280.872731 348.308473 
L 282.89899 346.170318 
L 284.779859 343.851469 
L 286.562434 341.443413 
L 289.789896 336.333478 
L 291.336325 333.7913 
L 292.673578 331.038102 
L 294.185414 328.587395 
L 295.578301 326.045284 
L 296.793357 323.350921 
L 298.081671 320.809092 
L 299.098082 318.021263 
L 300.228783 315.42722 
L 303.266505 311.179942 
L 304.841015 309.14226 
L 308.176166 305.272246 
L 309.928306 303.415632 
L 311.784469 301.641551 
L 313.767849 299.957844 
L 324.495268 291.74456 
L 327.025879 290.252062 
L 331.48837 286.745496 
L 333.718587 284.931519 
L 335.865129 283.030276 
L 338.275704 281.231642 
L 340.533087 279.304652 
L 344.595854 275.106768 
L 346.440654 272.870998 
L 348.055016 270.50799 
L 349.391091 268.011363 
L 350.335884 265.353187 
L 350.881981 262.552519 
L 351.103305 259.656441 
L 352.326694 251.281257 
L 352.43706 248.439467 
L 352.179698 245.528617 
L 351.442276 242.541108 
L 351.27669 239.724768 
L 350.888546 236.891748 
L 349.103262 231.161919 
L 347.534086 228.273062 
L 345.196834 225.358682 
L 343.169309 222.57074 
L 339.38615 219.710062 
L 334.575745 216.918146 
L 329.66612 214.295564 
L 321.660545 211.740902 
L 312.121403 209.441889 
L 312.121403 209.441889 
" clip-path="url(#pcd67cb437c)" style="fill: none; stroke: #ff0000; stroke-width: 1.5; stroke-linecap: square"/>
   </g>
   <g id="line2d_20">
    <path d="M 241.222189 207.477187 
L 278.722811 206.095461 
L 301.777488 203.907805 
L 314.153942 201.47177 
L 322.553784 198.876887 
L 328.789829 196.171371 
L 333.651572 193.38399 
L 337.541741 190.53562 
L 340.699316 187.641877 
L 343.271726 184.71608 
L 345.360703 181.769251 
L 347.041895 178.81034 
L 348.361479 175.849254 
L 349.364292 172.893007 
L 350.079864 169.949305 
L 350.532769 167.025161 
L 350.742978 164.127241 
L 350.729197 161.261272 
L 350.502009 158.434374 
L 350.076164 155.651607 
L 349.460246 152.919325 
L 348.669088 150.241011 
L 347.708329 147.622892 
L 346.583764 145.070894 
L 345.310329 142.58663 
L 343.893883 140.174941 
L 342.340389 137.840368 
L 340.664677 135.582674 
L 338.872648 133.405332 
L 336.978866 131.306745 
L 332.928156 127.343768 
L 328.633461 123.658337 
L 315.844 113.315298 
L 313.939069 111.5049 
L 312.132763 109.622437 
L 310.42489 107.657368 
L 308.809926 105.603481 
L 305.803017 101.23792 
L 302.964862 96.593071 
L 297.190964 86.917619 
L 294.040365 82.102485 
L 290.631351 77.419175 
L 286.941379 72.927437 
L 282.961532 68.67997 
L 278.695268 64.72015 
L 274.155116 61.083389 
L 269.359843 57.798983 
L 266.874462 56.294854 
L 261.742916 53.578352 
L 256.427213 51.246107 
L 250.959457 49.297468 
L 245.376093 47.710561 
L 239.71048 46.457446 
L 233.994187 45.494719 
L 228.250008 44.789336 
L 222.49543 44.309807 
L 216.741374 44.043008 
L 210.995546 43.994883 
L 205.265952 44.187501 
L 199.56375 44.652463 
L 193.9045 45.417482 
L 188.30732 46.502732 
L 182.792648 47.910813 
L 177.378414 49.620322 
L 172.081131 51.615509 
L 166.914944 53.876632 
L 161.899542 56.414302 
L 157.067773 59.276102 
L 154.737003 60.855505 
L 152.475156 62.553398 
L 150.29391 64.387183 
L 148.207237 66.376327 
L 146.233552 68.547273 
L 144.389932 70.917197 
L 142.70238 73.520195 
L 141.196795 76.38286 
L 139.903938 79.536309 
L 138.859892 83.015835 
L 138.100543 86.848852 
L 137.662531 91.057926 
L 137.55428 95.609143 
L 137.895145 104.843393 
L 137.574232 108.273221 
L 135.995323 109.590395 
L 132.956918 108.728498 
L 120.226478 102.193072 
L 116.024911 100.552349 
L 112.040048 99.394417 
L 108.281095 98.690755 
L 104.747098 98.403106 
L 101.428303 98.486732 
L 98.321239 98.907887 
L 95.418218 99.631332 
L 92.714838 100.628275 
L 90.212153 101.877578 
L 87.908428 103.356915 
L 85.804633 105.048019 
L 83.903468 106.935238 
L 82.206937 109.003129 
L 80.718408 111.238127 
L 79.441217 113.627179 
L 78.377535 116.156824 
L 77.528682 118.813521 
L 76.893503 121.582556 
L 76.46337 124.444933 
L 76.222075 127.378167 
L 76.151068 130.360385 
L 76.381049 141.979783 
L 76.116449 144.577646 
L 75.527168 146.980504 
L 74.567583 149.190517 
L 73.254566 151.240715 
L 71.6549 153.183102 
L 64.467755 160.959906 
L 62.908648 163.075253 
L 61.561356 165.285621 
L 60.461143 167.590157 
L 59.634038 169.983134 
L 59.10926 172.45795 
L 58.90642 175.003884 
L 59.057726 177.61171 
L 59.592051 180.269445 
L 60.544487 182.964341 
L 61.969324 185.684371 
L 63.9337 188.415627 
L 66.53388 191.143173 
L 69.9084 193.849861 
L 74.277371 196.51605 
L 80.02119 199.117957 
L 87.824941 201.621205 
L 99.350782 203.977674 
L 119.945286 206.087442 
L 191.64375 207.477187 
L 115.909104 208.937385 
L 97.350012 211.04657 
L 86.481186 213.403594 
L 79.016086 215.906701 
L 73.479622 218.508119 
L 69.245814 221.174154 
L 65.970335 223.880396 
L 63.446199 226.607262 
L 61.541441 229.337774 
L 60.163101 232.057283 
L 59.247334 234.751936 
L 58.746333 237.408853 
L 58.621813 240.016198 
L 58.848135 242.561531 
L 59.393109 245.035798 
L 60.240306 247.427542 
L 61.35735 249.731124 
L 62.721369 251.939973 
L 64.290876 254.055373 
L 66.027999 256.080226 
L 71.518952 261.828979 
L 73.125643 263.77106 
L 74.44563 265.820725 
L 75.415076 268.028542 
L 76.011176 270.430368 
L 76.282524 273.026978 
L 76.322953 275.790677 
L 76.089836 284.632252 
L 76.172531 287.608382 
L 76.422557 290.536971 
L 76.861242 293.394408 
L 77.507972 296.155901 
L 78.366788 298.805649 
L 79.439924 301.328206 
L 80.726825 303.709432 
L 82.225039 305.936057 
L 83.931284 307.994957 
L 85.842437 309.872318 
L 87.955953 311.553142 
L 90.269994 313.020941 
L 92.783066 314.257871 
L 95.495733 315.242774 
L 98.410771 315.950477 
L 101.529322 316.35545 
L 104.856909 316.424946 
L 108.401342 316.120315 
L 112.168103 315.401824 
L 116.156248 314.233922 
L 120.352887 312.593554 
L 124.689928 310.532162 
L 132.901861 306.307503 
L 135.780826 305.694277 
L 137.226398 307.237804 
L 137.523273 310.729881 
L 137.264696 319.867655 
L 137.42371 324.345606 
L 137.903867 328.491523 
L 138.697318 332.271867 
L 139.770785 335.703614 
L 141.087334 338.817368 
L 142.613897 341.642633 
L 144.317395 344.216713 
L 146.174745 346.5603 
L 148.161214 348.704493 
L 150.258329 350.670526 
L 152.448686 352.482443 
L 154.718493 354.159413 
L 157.056103 355.71897 
L 161.898828 358.542939 
L 166.921768 361.045641 
L 172.092529 363.274225 
L 177.39166 365.239802 
L 182.805341 366.922795 
L 188.317622 368.304315 
L 193.910456 369.366336 
L 199.56375 370.11484 
L 205.25885 370.563518 
L 210.980437 370.743411 
L 216.717704 370.686153 
L 222.463914 370.420318 
L 228.210684 369.942024 
L 233.949151 369.247781 
L 239.662048 368.302676 
L 245.325434 367.067145 
L 250.909762 365.503963 
L 256.382313 363.584907 
L 261.706033 361.284734 
L 266.849099 358.602555 
L 271.781619 355.545761 
L 276.475266 352.126711 
L 280.910473 348.373845 
L 285.072039 344.319055 
L 288.949615 339.997182 
L 292.545859 335.456081 
L 295.870165 330.743778 
L 298.95485 325.926888 
L 307.548895 311.757229 
L 310.622446 307.474887 
L 312.281378 305.461127 
L 314.032091 303.52753 
L 317.826539 299.874204 
L 321.951688 296.397229 
L 330.605323 289.36105 
L 334.799495 285.555581 
L 336.798028 283.54739 
L 338.710372 281.462759 
L 340.527238 279.301672 
L 342.231246 277.060775 
L 343.813572 274.741984 
L 345.265356 272.347722 
L 346.577722 269.880916 
L 347.741801 267.345006 
L 348.748751 264.743944 
L 349.586691 262.081072 
L 350.253044 259.363672 
L 350.736108 256.596064 
L 351.021081 253.782341 
L 351.102627 250.930261 
L 350.963588 248.044652 
L 350.589059 245.132026 
L 349.96072 242.199064 
L 349.056173 239.252783 
L 347.846986 236.300529 
L 346.298009 233.350396 
L 344.360884 230.410801 
L 341.97332 227.491547 
L 339.049957 224.60394 
L 335.459811 221.760439 
L 331.013062 218.977512 
L 325.385755 216.275519 
L 317.98856 213.683569 
L 307.582999 211.249303 
L 290.536029 209.065115 
L 290.536029 209.065115 
" clip-path="url(#pcd67cb437c)" style="fill: none; stroke-dasharray: 5.55,2.4; stroke-dashoffset: 0; stroke: #0000ff; stroke-width: 1.5"/>
   </g>
   <g id="patch_3">
    <path d="M 365.88375 207.477187 
C 365.88375 185.636245 361.581561 164.007679 353.223394 143.829279 
C 344.865227 123.650879 332.613628 105.315066 317.16975 89.871188 
C 301.725871 74.427309 283.390058 62.17571 263.211658 53.817544 
C 243.033259 45.459377 221.404692 41.157187 199.56375 41.157187 
C 177.722808 41.157187 156.094241 45.459377 135.915842 53.817544 
C 115.737442 62.17571 97.401629 74.427309 81.95775 89.871188 
C 66.513872 105.315066 54.262273 123.650879 45.904106 143.829279 
C 37.545939 164.007679 33.24375 185.636245 33.24375 207.477187 
C 33.24375 229.31813 37.545939 250.946696 45.904106 271.125096 
C 54.262273 291.303496 66.513872 309.639309 81.95775 325.083187 
C 97.401629 340.527066 115.737442 352.778665 135.915842 361.136831 
C 156.094241 369.494998 177.722808 373.797188 199.56375 373.797188 
C 221.404692 373.797188 243.033259 369.494998 263.211658 361.136831 
C 283.390058 352.778665 301.725871 340.527066 317.16975 325.083187 
C 332.613628 309.639309 344.865227 291.303496 353.223394 271.125096 
C 361.581561 250.946696 365.88375 229.31813 365.88375 207.477188 
" style="fill: none; stroke: #000000; stroke-width: 0.8; stroke-linejoin: miter; stroke-linecap: square"/>
   </g>
   <g id="text_19">
    <!-- Radiation Diagram - 4AVHF13 -->
    <g transform="translate(110.319375 16.318125)scale(0.12 -0.12)">
     <defs>
      <path id="DejaVuSans-52" d="M 2841 2188 
Q 3044 2119 3236 1894 
Q 3428 1669 3622 1275 
L 4263 0 
L 3584 0 
L 2988 1197 
Q 2756 1666 2539 1819 
Q 2322 1972 1947 1972 
L 1259 1972 
L 1259 0 
L 628 0 
L 628 4666 
L 2053 4666 
Q 2853 4666 3247 4331 
Q 3641 3997 3641 3322 
Q 3641 2881 3436 2590 
Q 3231 2300 2841 2188 
z
M 1259 4147 
L 1259 2491 
L 2053 2491 
Q 2509 2491 2742 2702 
Q 2975 2913 2975 3322 
Q 2975 3731 2742 3939 
Q 2509 4147 2053 4147 
L 1259 4147 
z
" transform="scale(0.015625)"/>
      <path id="DejaVuSans-61" d="M 2194 1759 
Q 1497 1759 1228 1600 
Q 959 1441 959 1056 
Q 959 750 1161 570 
Q 1363 391 1709 391 
Q 2188 391 2477 730 
Q 2766 1069 2766 1631 
L 2766 1759 
L 2194 1759 
z
M 3341 1997 
L 3341 0 
L 2766 0 
L 2766 531 
Q 2569 213 2275 61 
Q 1981 -91 1556 -91 
Q 1019 -91 701 211 
Q 384 513 384 1019 
Q 384 1609 779 1909 
Q 1175 2209 1959 2209 
L 2766 2209 
L 2766 2266 
Q 2766 2663 2505 2880 
Q 2244 3097 1772 3097 
Q 1472 3097 1187 3025 
Q 903 2953 641 2809 
L 641 3341 
Q 956 3463 1253 3523 
Q 1550 3584 1831 3584 
Q 2591 3584 2966 3190 
Q 3341 2797 3341 1997 
z
" transform="scale(0.015625)"/>
      <path id="DejaVuSans-64" d="M 2906 2969 
L 2906 4863 
L 3481 4863 
L 3481 0 
L 2906 0 
L 2906 525 
Q 2725 213 2448 61 
Q 2172 -91 1784 -91 
Q 1150 -91 751 415 
Q 353 922 353 1747 
Q 353 2572 751 3078 
Q 1150 3584 1784 3584 
Q 2172 3584 2448 3432 
Q 2725 3281 2906 2969 
z
M 947 1747 
Q 947 1113 1208 752 
Q 1469 391 1925 391 
Q 2381 391 2643 752 
Q 2906 1113 2906 1747 
Q 2906 2381 2643 2742 
Q 2381 3103 1925 3103 
Q 1469 3103 1208 2742 
Q 947 2381 947 1747 
z
" transform="scale(0.015625)"/>
      <path id="DejaVuSans-69" d="M 603 3500 
L 1178 3500 
L 1178 0 
L 603 0 
L 603 3500 
z
M 603 4863 
L 1178 4863 
L 1178 4134 
L 603 4134 
L 603 4863 
z
" transform="scale(0.015625)"/>
      <path id="DejaVuSans-74" d="M 1172 4494 
L 1172 3500 
L 2356 3500 
L 2356 3053 
L 1172 3053 
L 1172 1153 
Q 1172 725 1289 603 
Q 1406 481 1766 481 
L 2356 481 
L 2356 0 
L 1766 0 
Q 1100 0 847 248 
Q 594 497 594 1153 
L 594 3053 
L 172 3053 
L 172 3500 
L 594 3500 
L 594 4494 
L 1172 4494 
z
" transform="scale(0.015625)"/>
      <path id="DejaVuSans-6f" d="M 1959 3097 
Q 1497 3097 1228 2736 
Q 959 2375 959 1747 
Q 959 1119 1226 758 
Q 1494 397 1959 397 
Q 2419 397 2687 759 
Q 2956 1122 2956 1747 
Q 2956 2369 2687 2733 
Q 2419 3097 1959 3097 
z
M 1959 3584 
Q 2709 3584 3137 3096 
Q 3566 2609 3566 1747 
Q 3566 888 3137 398 
Q 2709 -91 1959 -91 
Q 1206 -91 779 398 
Q 353 888 353 1747 
Q 353 2609 779 3096 
Q 1206 3584 1959 3584 
z
" transform="scale(0.015625)"/>
      <path id="DejaVuSans-6e" d="M 3513 2113 
L 3513 0 
L 2938 0 
L 2938 2094 
Q 2938 2591 2744 2837 
Q 2550 3084 2163 3084 
Q 1697 3084 1428 2787 
Q 1159 2491 1159 1978 
L 1159 0 
L 581 0 
L 581 3500 
L 1159 3500 
L 1159 2956 
Q 1366 3272 1645 3428 
Q 1925 3584 2291 3584 
Q 2894 3584 3203 3211 
Q 3513 2838 3513 2113 
z
" transform="scale(0.015625)"/>
      <path id="DejaVuSans-20" transform="scale(0.015625)"/>
      <path id="DejaVuSans-44" d="M 1259 4147 
L 1259 519 
L 2022 519 
Q 2988 519 3436 956 
Q 3884 1394 3884 2338 
Q 3884 3275 3436 3711 
Q 2988 4147 2022 4147 
L 1259 4147 
z
M 628 4666 
L 1925 4666 
Q 3281 4666 3915 4102 
Q 4550 3538 4550 2338 
Q 4550 1131 3912 565 
Q 3275 0 1925 0 
L 628 0 
L 628 4666 
z
" transform="scale(0.015625)"/>
      <path id="DejaVuSans-67" d="M 2906 1791 
Q 2906 2416 2648 2759 
Q 2391 3103 1925 3103 
Q 1463 3103 1205 2759 
Q 947 2416 947 1791 
Q 947 1169 1205 825 
Q 1463 481 1925 481 
Q 2391 481 2648 825 
Q 2906 1169 2906 1791 
z
M 3481 434 
Q 3481 -459 3084 -895 
Q 2688 -1331 1869 -1331 
Q 1566 -1331 1297 -1286 
Q 1028 -1241 775 -1147 
L 775 -588 
Q 1028 -725 1275 -790 
Q 1522 -856 1778 -856 
Q 2344 -856 2625 -561 
Q 2906 -266 2906 331 
L 2906 616 
Q 2728 306 2450 153 
Q 2172 0 1784 0 
Q 1141 0 747 490 
Q 353 981 353 1791 
Q 353 2603 747 3093 
Q 1141 3584 1784 3584 
Q 2172 3584 2450 3431 
Q 2728 3278 2906 2969 
L 2906 3500 
L 3481 3500 
L 3481 434 
z
" transform="scale(0.015625)"/>
      <path id="DejaVuSans-72" d="M 2631 2963 
Q 2534 3019 2420 3045 
Q 2306 3072 2169 3072 
Q 1681 3072 1420 2755 
Q 1159 2438 1159 1844 
L 1159 0 
L 581 0 
L 581 3500 
L 1159 3500 
L 1159 2956 
Q 1341 3275 1631 3429 
Q 1922 3584 2338 3584 
Q 2397 3584 2469 3576 
Q 2541 3569 2628 3553 
L 2631 2963 
z
" transform="scale(0.015625)"/>
      <path id="DejaVuSans-6d" d="M 3328 2828 
Q 3544 3216 3844 3400 
Q 4144 3584 4550 3584 
Q 5097 3584 5394 3201 
Q 5691 2819 5691 2113 
L 5691 0 
L 5113 0 
L 5113 2094 
Q 5113 2597 4934 2840 
Q 4756 3084 4391 3084 
Q 3944 3084 3684 2787 
Q 3425 2491 3425 1978 
L 3425 0 
L 2847 0 
L 2847 2094 
Q 2847 2600 2669 2842 
Q 2491 3084 2119 3084 
Q 1678 3084 1418 2786 
Q 1159 2488 1159 1978 
L 1159 0 
L 581 0 
L 581 3500 
L 1159 3500 
L 1159 2956 
Q 1356 3278 1631 3431 
Q 1906 3584 2284 3584 
Q 2666 3584 2933 3390 
Q 3200 3197 3328 2828 
z
" transform="scale(0.015625)"/>
      <path id="DejaVuSans-2d" d="M 313 2009 
L 1997 2009 
L 1997 1497 
L 313 1497 
L 313 2009 
z
" transform="scale(0.015625)"/>
      <path id="DejaVuSans-41" d="M 2188 4044 
L 1331 1722 
L 3047 1722 
L 2188 4044 
z
M 1831 4666 
L 2547 4666 
L 4325 0 
L 3669 0 
L 3244 1197 
L 1141 1197 
L 716 0 
L 50 0 
L 1831 4666 
z
" transform="scale(0.015625)"/>
      <path id="DejaVuSans-56" d="M 1831 0 
L 50 4666 
L 709 4666 
L 2188 738 
L 3669 4666 
L 4325 4666 
L 2547 0 
L 1831 0 
z
" transform="scale(0.015625)"/>
      <path id="DejaVuSans-48" d="M 628 4666 
L 1259 4666 
L 1259 2753 
L 3553 2753 
L 3553 4666 
L 4184 4666 
L 4184 0 
L 3553 0 
L 3553 2222 
L 1259 2222 
L 1259 0 
L 628 0 
L 628 4666 
z
" transform="scale(0.015625)"/>
      <path id="DejaVuSans-46" d="M 628 4666 
L 3309 4666 
L 3309 4134 
L 1259 4134 
L 1259 2759 
L 3109 2759 
L 3109 2228 
L 1259 2228 
L 1259 0 
L 628 0 
L 628 4666 
z
" transform="scale(0.015625)"/>
     </defs>
     <use xlink:href="#DejaVuSans-52"/>
     <use xlink:href="#DejaVuSans-61" x="67.232422"/>
     <use xlink:href="#DejaVuSans-64" x="128.511719"/>
     <use xlink:href="#DejaVuSans-69" x="191.988281"/>
     <use xlink:href="#DejaVuSans-61" x="219.771484"/>
     <use xlink:href="#DejaVuSans-74" x="281.050781"/>
     <use xlink:href="#DejaVuSans-69" x="320.259766"/>
     <use xlink:href="#DejaVuSans-6f" x="348.042969"/>
     <use xlink:href="#DejaVuSans-6e" x="409.224609"/>
     <use xlink:href="#DejaVuSans-20" x="472.603516"/>
     <use xlink:href="#DejaVuSans-44" x="504.390625"/>
     <use xlink:href="#DejaVuSans-69" x="581.392578"/>
     <use xlink:href="#DejaVuSans-61" x="609.175781"/>
     <use xlink:href="#DejaVuSans-67" x="670.455078"/>
     <use xlink:href="#DejaVuSans-72" x="733.931641"/>
     <use xlink:href="#DejaVuSans-61" x="775.044922"/>
     <use xlink:href="#DejaVuSans-6d" x="836.324219"/>
     <use xlink:href="#DejaVuSans-20" x="933.736328"/>
     <use xlink:href="#DejaVuSans-2d" x="965.523438"/>
     <use xlink:href="#DejaVuSans-20" x="1001.607422"/>
     <use xlink:href="#DejaVuSans-34" x="1033.394531"/>
     <use xlink:href="#DejaVuSans-41" x="1097.017578"/>
     <use xlink:href="#DejaVuSans-56" x="1159.050781"/>
     <use xlink:href="#DejaVuSans-48" x="1227.458984"/>
     <use xlink:href="#DejaVuSans-46" x="1302.654297"/>
     <use xlink:href="#DejaVuSans-31" x="1360.173828"/>
     <use xlink:href="#DejaVuSans-33" x="1423.796875"/>
    </g>
   </g>
   <g id="legend_1">
    <g id="patch_4">
     <path d="M 304.104062 78.513437 
L 358.88375 78.513437 
Q 360.88375 78.513437 360.88375 76.513437 
L 360.88375 48.157187 
Q 360.88375 46.157187 358.88375 46.157187 
L 304.104062 46.157187 
Q 302.104062 46.157187 302.104062 48.157187 
L 302.104062 76.513437 
Q 302.104062 78.513437 304.104062 78.513437 
z
" style="fill: #ffffff; opacity: 0.8; stroke: #cccccc; stroke-linejoin: miter"/>
    </g>
    <g id="line2d_21">
     <path d="M 306.104062 54.255625 
L 316.104062 54.255625 
L 326.104062 54.255625 
" style="fill: none; stroke: #ff0000; stroke-width: 1.5; stroke-linecap: square"/>
    </g>
    <g id="text_20">
     <!-- INPE -->
     <g transform="translate(334.104062 57.755625)scale(0.1 -0.1)">
      <defs>
       <path id="DejaVuSans-49" d="M 628 4666 
L 1259 4666 
L 1259 0 
L 628 0 
L 628 4666 
z
" transform="scale(0.015625)"/>
       <path id="DejaVuSans-4e" d="M 628 4666 
L 1478 4666 
L 3547 763 
L 3547 4666 
L 4159 4666 
L 4159 0 
L 3309 0 
L 1241 3903 
L 1241 0 
L 628 0 
L 628 4666 
z
" transform="scale(0.015625)"/>
       <path id="DejaVuSans-50" d="M 1259 4147 
L 1259 2394 
L 2053 2394 
Q 2494 2394 2734 2622 
Q 2975 2850 2975 3272 
Q 2975 3691 2734 3919 
Q 2494 4147 2053 4147 
L 1259 4147 
z
M 628 4666 
L 2053 4666 
Q 2838 4666 3239 4311 
Q 3641 3956 3641 3272 
Q 3641 2581 3239 2228 
Q 2838 1875 2053 1875 
L 1259 1875 
L 1259 0 
L 628 0 
L 628 4666 
z
" transform="scale(0.015625)"/>
       <path id="DejaVuSans-45" d="M 628 4666 
L 3578 4666 
L 3578 4134 
L 1259 4134 
L 1259 2753 
L 3481 2753 
L 3481 2222 
L 1259 2222 
L 1259 531 
L 3634 531 
L 3634 0 
L 628 0 
L 628 4666 
z
" transform="scale(0.015625)"/>
      </defs>
      <use xlink:href="#DejaVuSans-49"/>
      <use xlink:href="#DejaVuSans-4e" x="29.492188"/>
      <use xlink:href="#DejaVuSans-50" x="104.296875"/>
      <use xlink:href="#DejaVuSans-45" x="164.599609"/>
     </g>
    </g>
    <g id="line2d_22">
     <path d="M 306.104062 68.93375 
L 316.104062 68.93375 
L 326.104062 68.93375 
" style="fill: none; stroke-dasharray: 5.55,2.4; stroke-dashoffset: 0; stroke: #0000ff; stroke-width: 1.5"/>
    </g>
    <g id="text_21">
     <!-- CST -->
     <g transform="translate(334.104062 72.43375)scale(0.1 -0.1)">
      <defs>
       <path id="DejaVuSans-43" d="M 4122 4306 
L 4122 3641 
Q 3803 3938 3442 4084 
Q 3081 4231 2675 4231 
Q 1875 4231 1450 3742 
Q 1025 3253 1025 2328 
Q 1025 1406 1450 917 
Q 1875 428 2675 428 
Q 3081 428 3442 575 
Q 3803 722 4122 1019 
L 4122 359 
Q 3791 134 3420 21 
Q 3050 -91 2638 -91 
Q 1578 -91 968 557 
Q 359 1206 359 2328 
Q 359 3453 968 4101 
Q 1578 4750 2638 4750 
Q 3056 4750 3426 4639 
Q 3797 4528 4122 4306 
z
" transform="scale(0.015625)"/>
       <path id="DejaVuSans-53" d="M 3425 4513 
L 3425 3897 
Q 3066 4069 2747 4153 
Q 2428 4238 2131 4238 
Q 1616 4238 1336 4038 
Q 1056 3838 1056 3469 
Q 1056 3159 1242 3001 
Q 1428 2844 1947 2747 
L 2328 2669 
Q 3034 2534 3370 2195 
Q 3706 1856 3706 1288 
Q 3706 609 3251 259 
Q 2797 -91 1919 -91 
Q 1588 -91 1214 -16 
Q 841 59 441 206 
L 441 856 
Q 825 641 1194 531 
Q 1563 422 1919 422 
Q 2459 422 2753 634 
Q 3047 847 3047 1241 
Q 3047 1584 2836 1778 
Q 2625 1972 2144 2069 
L 1759 2144 
Q 1053 2284 737 2584 
Q 422 2884 422 3419 
Q 422 4038 858 4394 
Q 1294 4750 2059 4750 
Q 2388 4750 2728 4690 
Q 3069 4631 3425 4513 
z
" transform="scale(0.015625)"/>
       <path id="DejaVuSans-54" d="M -19 4666 
L 3928 4666 
L 3928 4134 
L 2272 4134 
L 2272 0 
L 1638 0 
L 1638 4134 
L -19 4134 
L -19 4666 
z
" transform="scale(0.015625)"/>
      </defs>
      <use xlink:href="#DejaVuSans-43"/>
      <use xlink:href="#DejaVuSans-53" x="69.824219"/>
      <use xlink:href="#DejaVuSans-54" x="133.300781"/>
     </g>
    </g>
   </g>
  </g>
 </g>
 <defs>
  <clipPath id="pcd67cb437c">
   <path d="M 365.88375 207.477187 
C 365.88375 185.636245 361.581561 164.007679 353.223394 143.829279 
C 344.865227 123.650879 332.613628 105.315066 317.16975 89.871188 
C 301.725871 74.427309 283.390058 62.17571 263.211658 53.817544 
C 243.033259 45.459377 221.404692 41.157187 199.56375 41.157187 
C 177.722808 41.157187 156.094241 45.459377 135.915842 53.817544 
C 115.737442 62.17571 97.401629 74.427309 81.95775 89.871188 
C 66.513872 105.315066 54.262273 123.650879 45.904106 143.829279 
C 37.545939 164.007679 33.24375 185.636245 33.24375 207.477187 
C 33.24375 229.31813 37.545939 250.946696 45.904106 271.125096 
C 54.262273 291.303496 66.513872 309.639309 81.95775 325.083187 
C 97.401629 340.527066 115.737442 352.778665 135.915842 361.136831 
C 156.094241 369.494998 177.722808 373.797188 199.56375 373.797188 
C 221.404692 373.797188 243.033259 369.494998 263.211658 361.136831 
C 283.390058 352.778665 301.725871 340.527066 317.16975 325.083187 
C 332.613628 309.639309 344.865227 291.303496 353.223394 271.125096 
C 361.581561 250.946696 365.88375 229.31813 365.88375 207.477188 
M 199.56375 207.477187 
C 199.56375 207.477187 199.56375 207.477187 199.56375 207.477187 
C 199.56375 207.477187 199.56375 207.477187 199.56375 207.477187 
C 199.56375 207.477187 199.56375 207.477187 199.56375 207.477187 
C 199.56375 207.477187 199.56375 207.477187 199.56375 207.477187 
C 199.56375 207.477187 199.56375 207.477187 199.56375 207.477187 
C 199.56375 207.477187 199.56375 207.477187 199.56375 207.477187 
C 199.56375 207.477187 199.56375 207.477187 199.56375 207.477187 
C 199.56375 207.477187 199.56375 207.477187 199.56375 207.477187 
C 199.56375 207.477187 199.56375 207.477187 199.56375 207.477187 
C 199.56375 207.477187 199.56375 207.477187 199.56375 207.477187 
C 199.56375 207.477187 199.56375 207.477187 199.56375 207.477187 
C 199.56375 207.477187 199.56375 207.477187 199.56375 207.477187 
C 199.56375 207.477187 199.56375 207.477187 199.56375 207.477187 
C 199.56375 207.477187 199.56375 207.477187 199.56375 207.477187 
C 199.56375 207.477187 199.56375 207.477187 199.56375 207.477187 
C 199.56375 207.477187 199.56375 207.477187 199.56375 207.477187 
M 365.88375 207.477187 
z
"/>
  </clipPath>
 </defs>
</svg>
