<?xml version="1.0" encoding="utf-8" standalone="no"?>
<!DOCTYPE svg PUBLIC "-//W3C//DTD SVG 1.1//EN"
  "http://www.w3.org/Graphics/SVG/1.1/DTD/svg11.dtd">
<svg xmlns:xlink="http://www.w3.org/1999/xlink" width="392.765pt" height="399.83625pt" viewBox="0 0 392.765 399.83625" xmlns="http://www.w3.org/2000/svg" version="1.1">
 <metadata>
  <rdf:RDF xmlns:dc="http://purl.org/dc/elements/1.1/" xmlns:cc="http://creativecommons.org/ns#" xmlns:rdf="http://www.w3.org/1999/02/22-rdf-syntax-ns#">
   <cc:Work>
    <dc:type rdf:resource="http://purl.org/dc/dcmitype/StillImage"/>
    <dc:date>2023-11-03T14:23:46.896889</dc:date>
    <dc:format>image/svg+xml</dc:format>
    <dc:creator>
     <cc:Agent>
      <dc:title>Matplotlib v3.5.1, https://matplotlib.org/</dc:title>
     </cc:Agent>
    </dc:creator>
   </cc:Work>
  </rdf:RDF>
 </metadata>
 <defs>
  <style type="text/css">*{stroke-linejoin: round; stroke-linecap: butt}</style>
 </defs>
 <g id="figure_1">
  <g id="patch_1">
   <path d="M 0 399.83625 
L 392.765 399.83625 
L 392.765 0 
L 0 0 
z
" style="fill: #ffffff"/>
  </g>
  <g id="axes_1">
   <g id="patch_2">
    <path d="M 365.88375 207.477187 
C 365.88375 185.636245 361.581561 164.007679 353.223394 143.829279 
C 344.865227 123.650879 332.613628 105.315066 317.16975 89.871188 
C 301.725871 74.427309 283.390058 62.17571 263.211658 53.817544 
C 243.033259 45.459377 221.404692 41.157187 199.56375 41.157187 
C 177.722808 41.157187 156.094241 45.459377 135.915842 53.817544 
C 115.737442 62.17571 97.401629 74.427309 81.95775 89.871188 
C 66.513872 105.315066 54.262273 123.650879 45.904106 143.829279 
C 37.545939 164.007679 33.24375 185.636245 33.24375 207.477187 
C 33.24375 229.31813 37.545939 250.946696 45.904106 271.125096 
C 54.262273 291.303496 66.513872 309.639309 81.95775 325.083187 
C 97.401629 340.527066 115.737442 352.778665 135.915842 361.136831 
C 156.094241 369.494998 177.722808 373.797188 199.56375 373.797188 
C 221.404692 373.797188 243.033259 369.494998 263.211658 361.136831 
C 283.390058 352.778665 301.725871 340.527066 317.16975 325.083187 
C 332.613628 309.639309 344.865227 291.303496 353.223394 271.125096 
C 361.581561 250.946696 365.88375 229.31813 365.88375 207.477188 
M 199.56375 207.477187 
C 199.56375 207.477187 199.56375 207.477187 199.56375 207.477187 
C 199.56375 207.477187 199.56375 207.477187 199.56375 207.477187 
C 199.56375 207.477187 199.56375 207.477187 199.56375 207.477187 
C 199.56375 207.477187 199.56375 207.477187 199.56375 207.477187 
C 199.56375 207.477187 199.56375 207.477187 199.56375 207.477187 
C 199.56375 207.477187 199.56375 207.477187 199.56375 207.477187 
C 199.56375 207.477187 199.56375 207.477187 199.56375 207.477187 
C 199.56375 207.477187 199.56375 207.477187 199.56375 207.477187 
C 199.56375 207.477187 199.56375 207.477187 199.56375 207.477187 
C 199.56375 207.477187 199.56375 207.477187 199.56375 207.477187 
C 199.56375 207.477187 199.56375 207.477187 199.56375 207.477187 
C 199.56375 207.477187 199.56375 207.477187 199.56375 207.477187 
C 199.56375 207.477187 199.56375 207.477187 199.56375 207.477187 
C 199.56375 207.477187 199.56375 207.477187 199.56375 207.477187 
C 199.56375 207.477187 199.56375 207.477187 199.56375 207.477187 
C 199.56375 207.477187 199.56375 207.477187 199.56375 207.477187 
M 365.88375 207.477187 
z
" style="fill: #ffffff"/>
   </g>
   <g id="matplotlib.axis_1">
    <g id="xtick_1">
     <g id="line2d_1">
      <path d="M 199.56375 207.477187 
L 365.88375 207.477187 
" clip-path="url(#pe7e418eb44)" style="fill: none; stroke: #b0b0b0; stroke-width: 0.8; stroke-linecap: square"/>
     </g>
     <g id="text_1">
      <!-- 0° -->
      <g transform="translate(374.2025 210.236562)scale(0.1 -0.1)">
       <defs>
        <path id="DejaVuSans-30" d="M 2034 4250 
Q 1547 4250 1301 3770 
Q 1056 3291 1056 2328 
Q 1056 1369 1301 889 
Q 1547 409 2034 409 
Q 2525 409 2770 889 
Q 3016 1369 3016 2328 
Q 3016 3291 2770 3770 
Q 2525 4250 2034 4250 
z
M 2034 4750 
Q 2819 4750 3233 4129 
Q 3647 3509 3647 2328 
Q 3647 1150 3233 529 
Q 2819 -91 2034 -91 
Q 1250 -91 836 529 
Q 422 1150 422 2328 
Q 422 3509 836 4129 
Q 1250 4750 2034 4750 
z
" transform="scale(0.015625)"/>
        <path id="DejaVuSans-b0" d="M 1600 4347 
Q 1350 4347 1178 4173 
Q 1006 4000 1006 3750 
Q 1006 3503 1178 3333 
Q 1350 3163 1600 3163 
Q 1850 3163 2022 3333 
Q 2194 3503 2194 3750 
Q 2194 3997 2020 4172 
Q 1847 4347 1600 4347 
z
M 1600 4750 
Q 1800 4750 1984 4673 
Q 2169 4597 2303 4453 
Q 2447 4313 2519 4134 
Q 2591 3956 2591 3750 
Q 2591 3338 2302 3052 
Q 2013 2766 1594 2766 
Q 1172 2766 890 3047 
Q 609 3328 609 3750 
Q 609 4169 896 4459 
Q 1184 4750 1600 4750 
z
" transform="scale(0.015625)"/>
       </defs>
       <use xlink:href="#DejaVuSans-30"/>
       <use xlink:href="#DejaVuSans-b0" x="63.623047"/>
      </g>
     </g>
    </g>
    <g id="xtick_2">
     <g id="line2d_2">
      <path d="M 199.56375 207.477187 
L 317.16975 89.871188 
" clip-path="url(#pe7e418eb44)" style="fill: none; stroke: #b0b0b0; stroke-width: 0.8; stroke-linecap: square"/>
     </g>
     <g id="text_2">
      <!-- 45° -->
      <g transform="translate(318.206745 82.731068)scale(0.1 -0.1)">
       <defs>
        <path id="DejaVuSans-34" d="M 2419 4116 
L 825 1625 
L 2419 1625 
L 2419 4116 
z
M 2253 4666 
L 3047 4666 
L 3047 1625 
L 3713 1625 
L 3713 1100 
L 3047 1100 
L 3047 0 
L 2419 0 
L 2419 1100 
L 313 1100 
L 313 1709 
L 2253 4666 
z
" transform="scale(0.015625)"/>
        <path id="DejaVuSans-35" d="M 691 4666 
L 3169 4666 
L 3169 4134 
L 1269 4134 
L 1269 2991 
Q 1406 3038 1543 3061 
Q 1681 3084 1819 3084 
Q 2600 3084 3056 2656 
Q 3513 2228 3513 1497 
Q 3513 744 3044 326 
Q 2575 -91 1722 -91 
Q 1428 -91 1123 -41 
Q 819 9 494 109 
L 494 744 
Q 775 591 1075 516 
Q 1375 441 1709 441 
Q 2250 441 2565 725 
Q 2881 1009 2881 1497 
Q 2881 1984 2565 2268 
Q 2250 2553 1709 2553 
Q 1456 2553 1204 2497 
Q 953 2441 691 2322 
L 691 4666 
z
" transform="scale(0.015625)"/>
       </defs>
       <use xlink:href="#DejaVuSans-34"/>
       <use xlink:href="#DejaVuSans-35" x="63.623047"/>
       <use xlink:href="#DejaVuSans-b0" x="127.246094"/>
      </g>
     </g>
    </g>
    <g id="xtick_3">
     <g id="line2d_3">
      <path d="M 199.56375 207.477187 
L 199.56375 41.157187 
" clip-path="url(#pe7e418eb44)" style="fill: none; stroke: #b0b0b0; stroke-width: 0.8; stroke-linecap: square"/>
     </g>
     <g id="text_3">
      <!-- 90° -->
      <g transform="translate(190.70125 29.916562)scale(0.1 -0.1)">
       <defs>
        <path id="DejaVuSans-39" d="M 703 97 
L 703 672 
Q 941 559 1184 500 
Q 1428 441 1663 441 
Q 2288 441 2617 861 
Q 2947 1281 2994 2138 
Q 2813 1869 2534 1725 
Q 2256 1581 1919 1581 
Q 1219 1581 811 2004 
Q 403 2428 403 3163 
Q 403 3881 828 4315 
Q 1253 4750 1959 4750 
Q 2769 4750 3195 4129 
Q 3622 3509 3622 2328 
Q 3622 1225 3098 567 
Q 2575 -91 1691 -91 
Q 1453 -91 1209 -44 
Q 966 3 703 97 
z
M 1959 2075 
Q 2384 2075 2632 2365 
Q 2881 2656 2881 3163 
Q 2881 3666 2632 3958 
Q 2384 4250 1959 4250 
Q 1534 4250 1286 3958 
Q 1038 3666 1038 3163 
Q 1038 2656 1286 2365 
Q 1534 2075 1959 2075 
z
" transform="scale(0.015625)"/>
       </defs>
       <use xlink:href="#DejaVuSans-39"/>
       <use xlink:href="#DejaVuSans-30" x="63.623047"/>
       <use xlink:href="#DejaVuSans-b0" x="127.246094"/>
      </g>
     </g>
    </g>
    <g id="xtick_4">
     <g id="line2d_4">
      <path d="M 199.56375 207.477187 
L 81.95775 89.871188 
" clip-path="url(#pe7e418eb44)" style="fill: none; stroke: #b0b0b0; stroke-width: 0.8; stroke-linecap: square"/>
     </g>
     <g id="text_4">
      <!-- 135° -->
      <g transform="translate(60.014505 82.731068)scale(0.1 -0.1)">
       <defs>
        <path id="DejaVuSans-31" d="M 794 531 
L 1825 531 
L 1825 4091 
L 703 3866 
L 703 4441 
L 1819 4666 
L 2450 4666 
L 2450 531 
L 3481 531 
L 3481 0 
L 794 0 
L 794 531 
z
" transform="scale(0.015625)"/>
        <path id="DejaVuSans-33" d="M 2597 2516 
Q 3050 2419 3304 2112 
Q 3559 1806 3559 1356 
Q 3559 666 3084 287 
Q 2609 -91 1734 -91 
Q 1441 -91 1130 -33 
Q 819 25 488 141 
L 488 750 
Q 750 597 1062 519 
Q 1375 441 1716 441 
Q 2309 441 2620 675 
Q 2931 909 2931 1356 
Q 2931 1769 2642 2001 
Q 2353 2234 1838 2234 
L 1294 2234 
L 1294 2753 
L 1863 2753 
Q 2328 2753 2575 2939 
Q 2822 3125 2822 3475 
Q 2822 3834 2567 4026 
Q 2313 4219 1838 4219 
Q 1578 4219 1281 4162 
Q 984 4106 628 3988 
L 628 4550 
Q 988 4650 1302 4700 
Q 1616 4750 1894 4750 
Q 2613 4750 3031 4423 
Q 3450 4097 3450 3541 
Q 3450 3153 3228 2886 
Q 3006 2619 2597 2516 
z
" transform="scale(0.015625)"/>
       </defs>
       <use xlink:href="#DejaVuSans-31"/>
       <use xlink:href="#DejaVuSans-33" x="63.623047"/>
       <use xlink:href="#DejaVuSans-35" x="127.246094"/>
       <use xlink:href="#DejaVuSans-b0" x="190.869141"/>
      </g>
     </g>
    </g>
    <g id="xtick_5">
     <g id="line2d_5">
      <path d="M 199.56375 207.477187 
L 33.24375 207.477187 
" clip-path="url(#pe7e418eb44)" style="fill: none; stroke: #b0b0b0; stroke-width: 0.8; stroke-linecap: square"/>
     </g>
     <g id="text_5">
      <!-- 180° -->
      <g transform="translate(7.2 210.236562)scale(0.1 -0.1)">
       <defs>
        <path id="DejaVuSans-38" d="M 2034 2216 
Q 1584 2216 1326 1975 
Q 1069 1734 1069 1313 
Q 1069 891 1326 650 
Q 1584 409 2034 409 
Q 2484 409 2743 651 
Q 3003 894 3003 1313 
Q 3003 1734 2745 1975 
Q 2488 2216 2034 2216 
z
M 1403 2484 
Q 997 2584 770 2862 
Q 544 3141 544 3541 
Q 544 4100 942 4425 
Q 1341 4750 2034 4750 
Q 2731 4750 3128 4425 
Q 3525 4100 3525 3541 
Q 3525 3141 3298 2862 
Q 3072 2584 2669 2484 
Q 3125 2378 3379 2068 
Q 3634 1759 3634 1313 
Q 3634 634 3220 271 
Q 2806 -91 2034 -91 
Q 1263 -91 848 271 
Q 434 634 434 1313 
Q 434 1759 690 2068 
Q 947 2378 1403 2484 
z
M 1172 3481 
Q 1172 3119 1398 2916 
Q 1625 2713 2034 2713 
Q 2441 2713 2670 2916 
Q 2900 3119 2900 3481 
Q 2900 3844 2670 4047 
Q 2441 4250 2034 4250 
Q 1625 4250 1398 4047 
Q 1172 3844 1172 3481 
z
" transform="scale(0.015625)"/>
       </defs>
       <use xlink:href="#DejaVuSans-31"/>
       <use xlink:href="#DejaVuSans-38" x="63.623047"/>
       <use xlink:href="#DejaVuSans-30" x="127.246094"/>
       <use xlink:href="#DejaVuSans-b0" x="190.869141"/>
      </g>
     </g>
    </g>
    <g id="xtick_6">
     <g id="line2d_6">
      <path d="M 199.56375 207.477187 
L 81.95775 325.083187 
" clip-path="url(#pe7e418eb44)" style="fill: none; stroke: #b0b0b0; stroke-width: 0.8; stroke-linecap: square"/>
     </g>
     <g id="text_6">
      <!-- 225° -->
      <g transform="translate(60.014505 337.742057)scale(0.1 -0.1)">
       <defs>
        <path id="DejaVuSans-32" d="M 1228 531 
L 3431 531 
L 3431 0 
L 469 0 
L 469 531 
Q 828 903 1448 1529 
Q 2069 2156 2228 2338 
Q 2531 2678 2651 2914 
Q 2772 3150 2772 3378 
Q 2772 3750 2511 3984 
Q 2250 4219 1831 4219 
Q 1534 4219 1204 4116 
Q 875 4013 500 3803 
L 500 4441 
Q 881 4594 1212 4672 
Q 1544 4750 1819 4750 
Q 2544 4750 2975 4387 
Q 3406 4025 3406 3419 
Q 3406 3131 3298 2873 
Q 3191 2616 2906 2266 
Q 2828 2175 2409 1742 
Q 1991 1309 1228 531 
z
" transform="scale(0.015625)"/>
       </defs>
       <use xlink:href="#DejaVuSans-32"/>
       <use xlink:href="#DejaVuSans-32" x="63.623047"/>
       <use xlink:href="#DejaVuSans-35" x="127.246094"/>
       <use xlink:href="#DejaVuSans-b0" x="190.869141"/>
      </g>
     </g>
    </g>
    <g id="xtick_7">
     <g id="line2d_7">
      <path d="M 199.56375 207.477187 
L 199.56375 373.797188 
" clip-path="url(#pe7e418eb44)" style="fill: none; stroke: #b0b0b0; stroke-width: 0.8; stroke-linecap: square"/>
     </g>
     <g id="text_7">
      <!-- 270° -->
      <g transform="translate(187.52 390.556562)scale(0.1 -0.1)">
       <defs>
        <path id="DejaVuSans-37" d="M 525 4666 
L 3525 4666 
L 3525 4397 
L 1831 0 
L 1172 0 
L 2766 4134 
L 525 4134 
L 525 4666 
z
" transform="scale(0.015625)"/>
       </defs>
       <use xlink:href="#DejaVuSans-32"/>
       <use xlink:href="#DejaVuSans-37" x="63.623047"/>
       <use xlink:href="#DejaVuSans-30" x="127.246094"/>
       <use xlink:href="#DejaVuSans-b0" x="190.869141"/>
      </g>
     </g>
    </g>
    <g id="xtick_8">
     <g id="line2d_8">
      <path d="M 199.56375 207.477187 
L 317.16975 325.083187 
" clip-path="url(#pe7e418eb44)" style="fill: none; stroke: #b0b0b0; stroke-width: 0.8; stroke-linecap: square"/>
     </g>
     <g id="text_8">
      <!-- 315° -->
      <g transform="translate(315.025495 337.742057)scale(0.1 -0.1)">
       <use xlink:href="#DejaVuSans-33"/>
       <use xlink:href="#DejaVuSans-31" x="63.623047"/>
       <use xlink:href="#DejaVuSans-35" x="127.246094"/>
       <use xlink:href="#DejaVuSans-b0" x="190.869141"/>
      </g>
     </g>
    </g>
   </g>
   <g id="matplotlib.axis_2">
    <g id="ytick_1">
     <g id="line2d_9">
      <path d="M 224.64014 207.477187 
C 224.64014 204.184186 223.991491 200.923205 222.731314 197.880868 
C 221.471137 194.838532 219.623939 192.074005 217.295436 189.745502 
C 214.966932 187.416998 212.202406 185.569801 209.160069 184.309624 
C 206.117733 183.049447 202.856751 182.400797 199.56375 182.400797 
C 196.270749 182.400797 193.009767 183.049447 189.967431 184.309624 
C 186.925094 185.569801 184.160568 187.416998 181.832064 189.745502 
C 179.503561 192.074005 177.656363 194.838532 176.396186 197.880868 
C 175.136009 200.923205 174.48736 204.184186 174.48736 207.477187 
C 174.48736 210.770189 175.136009 214.03117 176.396186 217.073507 
C 177.656363 220.115843 179.503561 222.88037 181.832064 225.208873 
C 184.160568 227.537377 186.925094 229.384574 189.967431 230.644751 
C 193.009767 231.904928 196.270749 232.553578 199.56375 232.553578 
C 202.856751 232.553578 206.117733 231.904928 209.160069 230.644751 
C 212.202406 229.384574 214.966932 227.537377 217.295436 225.208873 
C 219.623939 222.88037 221.471137 220.115843 222.731314 217.073507 
C 223.991491 214.03117 224.64014 210.770189 224.64014 207.477187 
" clip-path="url(#pe7e418eb44)" style="fill: none; stroke: #b0b0b0; stroke-width: 0.8; stroke-linecap: square"/>
     </g>
     <g id="text_9">
      <!-- −30 -->
      <g transform="translate(222.731314 195.801181)scale(0.1 -0.1)">
       <defs>
        <path id="DejaVuSans-2212" d="M 678 2272 
L 4684 2272 
L 4684 1741 
L 678 1741 
L 678 2272 
z
" transform="scale(0.015625)"/>
       </defs>
       <use xlink:href="#DejaVuSans-2212"/>
       <use xlink:href="#DejaVuSans-33" x="83.789062"/>
       <use xlink:href="#DejaVuSans-30" x="147.412109"/>
      </g>
     </g>
    </g>
    <g id="ytick_2">
     <g id="line2d_10">
      <path d="M 238.764501 207.477187 
C 238.764501 202.329392 237.750498 197.231652 235.780522 192.475709 
C 233.810546 187.719766 230.922908 183.398111 227.282867 179.75807 
C 223.642826 176.118029 219.321171 173.230392 214.565228 171.260416 
C 209.809285 169.29044 204.711546 168.276436 199.56375 168.276436 
C 194.415954 168.276436 189.318215 169.29044 184.562272 171.260416 
C 179.806329 173.230392 175.484674 176.118029 171.844633 179.75807 
C 168.204592 183.398111 165.316954 187.719766 163.346978 192.475709 
C 161.377002 197.231652 160.362999 202.329392 160.362999 207.477187 
C 160.362999 212.624983 161.377002 217.722723 163.346978 222.478666 
C 165.316954 227.234609 168.204592 231.556264 171.844633 235.196305 
C 175.484674 238.836346 179.806329 241.723983 184.562272 243.693959 
C 189.318215 245.663935 194.415954 246.677939 199.56375 246.677939 
C 204.711546 246.677939 209.809285 245.663935 214.565228 243.693959 
C 219.321171 241.723983 223.642826 238.836346 227.282867 235.196305 
C 230.922908 231.556264 233.810546 227.234609 235.780522 222.478666 
C 237.750498 217.722723 238.764501 212.624983 238.764501 207.477187 
" clip-path="url(#pe7e418eb44)" style="fill: none; stroke: #b0b0b0; stroke-width: 0.8; stroke-linecap: square"/>
     </g>
     <g id="text_10">
      <!-- −27 -->
      <g transform="translate(235.780522 190.396022)scale(0.1 -0.1)">
       <use xlink:href="#DejaVuSans-2212"/>
       <use xlink:href="#DejaVuSans-32" x="83.789062"/>
       <use xlink:href="#DejaVuSans-37" x="147.412109"/>
      </g>
     </g>
    </g>
    <g id="ytick_3">
     <g id="line2d_11">
      <path d="M 252.888862 207.477187 
C 252.888862 200.474598 251.509505 193.5401 248.82973 187.07055 
C 246.149955 180.601001 242.221877 174.722218 237.270299 169.770639 
C 232.31872 164.81906 226.439936 160.890983 219.970387 158.211208 
C 213.500838 155.531433 206.56634 154.152075 199.56375 154.152075 
C 192.56116 154.152075 185.626662 155.531433 179.157113 158.211208 
C 172.687564 160.890983 166.80878 164.81906 161.857201 169.770639 
C 156.905623 174.722218 152.977545 180.601001 150.29777 187.07055 
C 147.617995 193.5401 146.238638 200.474598 146.238638 207.477187 
C 146.238638 214.479777 147.617995 221.414275 150.29777 227.883825 
C 152.977545 234.353374 156.905623 240.232157 161.857201 245.183736 
C 166.80878 250.135315 172.687564 254.063392 179.157113 256.743167 
C 185.626662 259.422942 192.56116 260.8023 199.56375 260.8023 
C 206.56634 260.8023 213.500838 259.422942 219.970387 256.743167 
C 226.439936 254.063392 232.31872 250.135315 237.270299 245.183736 
C 242.221877 240.232157 246.149955 234.353374 248.82973 227.883825 
C 251.509505 221.414275 252.888862 214.479777 252.888862 207.477187 
" clip-path="url(#pe7e418eb44)" style="fill: none; stroke: #b0b0b0; stroke-width: 0.8; stroke-linecap: square"/>
     </g>
     <g id="text_11">
      <!-- −24 -->
      <g transform="translate(248.82973 184.990863)scale(0.1 -0.1)">
       <use xlink:href="#DejaVuSans-2212"/>
       <use xlink:href="#DejaVuSans-32" x="83.789062"/>
       <use xlink:href="#DejaVuSans-34" x="147.412109"/>
      </g>
     </g>
    </g>
    <g id="ytick_4">
     <g id="line2d_12">
      <path d="M 267.013223 207.477187 
C 267.013223 198.619804 265.268512 189.848547 261.878938 181.665392 
C 258.489364 173.482236 253.520846 166.046324 247.25773 159.783208 
C 240.994614 153.520091 233.558701 148.551574 225.375546 145.162 
C 217.19239 141.772426 208.421134 140.027714 199.56375 140.027714 
C 190.706366 140.027714 181.93511 141.772426 173.751954 145.162 
C 165.568799 148.551574 158.132886 153.520091 151.86977 159.783208 
C 145.606654 166.046324 140.638136 173.482236 137.248562 181.665392 
C 133.858988 189.848547 132.114277 198.619804 132.114277 207.477187 
C 132.114277 216.334571 133.858988 225.105828 137.248562 233.288983 
C 140.638136 241.472139 145.606654 248.908051 151.86977 255.171167 
C 158.132886 261.434284 165.568799 266.402801 173.751954 269.792375 
C 181.93511 273.181949 190.706366 274.926661 199.56375 274.926661 
C 208.421134 274.926661 217.19239 273.181949 225.375546 269.792375 
C 233.558701 266.402801 240.994614 261.434284 247.25773 255.171167 
C 253.520846 248.908051 258.489364 241.472139 261.878938 233.288983 
C 265.268512 225.105828 267.013223 216.334571 267.013223 207.477188 
" clip-path="url(#pe7e418eb44)" style="fill: none; stroke: #b0b0b0; stroke-width: 0.8; stroke-linecap: square"/>
     </g>
     <g id="text_12">
      <!-- −21 -->
      <g transform="translate(261.878938 179.585704)scale(0.1 -0.1)">
       <use xlink:href="#DejaVuSans-2212"/>
       <use xlink:href="#DejaVuSans-32" x="83.789062"/>
       <use xlink:href="#DejaVuSans-31" x="147.412109"/>
      </g>
     </g>
    </g>
    <g id="ytick_5">
     <g id="line2d_13">
      <path d="M 281.137584 207.477187 
C 281.137584 196.76501 279.027519 186.156994 274.928146 176.260233 
C 270.828773 166.363471 264.819815 157.37043 257.245161 149.795776 
C 249.670508 142.221123 240.677467 136.212165 230.780705 132.112792 
C 220.883943 128.013419 210.275928 125.903353 199.56375 125.903353 
C 188.851572 125.903353 178.243557 128.013419 168.346795 132.112792 
C 158.450033 136.212165 149.456992 142.221123 141.882339 149.795776 
C 134.307685 157.37043 128.298727 166.363471 124.199354 176.260233 
C 120.099981 186.156994 117.989916 196.76501 117.989916 207.477187 
C 117.989916 218.189365 120.099981 228.797381 124.199354 238.694142 
C 128.298727 248.590904 134.307685 257.583945 141.882339 265.158599 
C 149.456992 272.733252 158.450033 278.74221 168.346795 282.841583 
C 178.243557 286.940956 188.851572 289.051022 199.56375 289.051022 
C 210.275928 289.051022 220.883943 286.940956 230.780705 282.841583 
C 240.677467 278.74221 249.670508 272.733252 257.245161 265.158599 
C 264.819815 257.583945 270.828773 248.590904 274.928146 238.694142 
C 279.027519 228.797381 281.137584 218.189365 281.137584 207.477188 
" clip-path="url(#pe7e418eb44)" style="fill: none; stroke: #b0b0b0; stroke-width: 0.8; stroke-linecap: square"/>
     </g>
     <g id="text_13">
      <!-- −18 -->
      <g transform="translate(274.928146 174.180545)scale(0.1 -0.1)">
       <use xlink:href="#DejaVuSans-2212"/>
       <use xlink:href="#DejaVuSans-31" x="83.789062"/>
       <use xlink:href="#DejaVuSans-38" x="147.412109"/>
      </g>
     </g>
    </g>
    <g id="ytick_6">
     <g id="line2d_14">
      <path d="M 295.261945 207.477187 
C 295.261945 194.910216 292.786526 182.465442 287.977354 170.855074 
C 283.168182 159.244706 276.118784 148.694536 267.232593 139.808345 
C 258.346402 130.922154 247.796232 123.872756 236.185864 119.063584 
C 224.575496 114.254412 212.130722 111.778992 199.56375 111.778992 
C 186.996778 111.778992 174.552004 114.254412 162.941636 119.063584 
C 151.331268 123.872756 140.781098 130.922154 131.894907 139.808345 
C 123.008716 148.694536 115.959318 159.244706 111.150146 170.855074 
C 106.340974 182.465442 103.865555 194.910216 103.865555 207.477187 
C 103.865555 220.044159 106.340974 232.488933 111.150146 244.099301 
C 115.959318 255.709669 123.008716 266.259839 131.894907 275.14603 
C 140.781098 284.032221 151.331268 291.081619 162.941636 295.890791 
C 174.552004 300.699963 186.996778 303.175383 199.56375 303.175383 
C 212.130722 303.175383 224.575496 300.699963 236.185864 295.890791 
C 247.796232 291.081619 258.346402 284.032221 267.232593 275.14603 
C 276.118784 266.259839 283.168182 255.709669 287.977354 244.099301 
C 292.786526 232.488933 295.261945 220.044159 295.261945 207.477188 
" clip-path="url(#pe7e418eb44)" style="fill: none; stroke: #b0b0b0; stroke-width: 0.8; stroke-linecap: square"/>
     </g>
     <g id="text_14">
      <!-- −15 -->
      <g transform="translate(287.977354 168.775386)scale(0.1 -0.1)">
       <use xlink:href="#DejaVuSans-2212"/>
       <use xlink:href="#DejaVuSans-31" x="83.789062"/>
       <use xlink:href="#DejaVuSans-35" x="147.412109"/>
      </g>
     </g>
    </g>
    <g id="ytick_7">
     <g id="line2d_15">
      <path d="M 309.386306 207.477187 
C 309.386306 193.055422 306.545533 178.773889 301.026562 165.449915 
C 295.507591 152.12594 287.417753 140.018642 277.220024 129.820913 
C 267.022296 119.623185 254.914997 111.533347 241.591023 106.014376 
C 228.267048 100.495405 213.985516 97.654631 199.56375 97.654631 
C 185.141984 97.654631 170.860452 100.495405 157.536477 106.014376 
C 144.212503 111.533347 132.105204 119.623185 121.907476 129.820913 
C 111.709747 140.018642 103.619909 152.12594 98.100938 165.449915 
C 92.581967 178.773889 89.741194 193.055422 89.741194 207.477187 
C 89.741194 221.898953 92.581967 236.180486 98.100938 249.50446 
C 103.619909 262.828435 111.709747 274.935733 121.907476 285.133462 
C 132.105204 295.33119 144.212503 303.421028 157.536477 308.939999 
C 170.860452 314.45897 185.141984 317.299744 199.56375 317.299744 
C 213.985516 317.299744 228.267048 314.45897 241.591023 308.939999 
C 254.914997 303.421028 267.022296 295.33119 277.220024 285.133462 
C 287.417753 274.935733 295.507591 262.828435 301.026562 249.50446 
C 306.545533 236.180486 309.386306 221.898953 309.386306 207.477188 
" clip-path="url(#pe7e418eb44)" style="fill: none; stroke: #b0b0b0; stroke-width: 0.8; stroke-linecap: square"/>
     </g>
     <g id="text_15">
      <!-- −12 -->
      <g transform="translate(301.026562 163.370227)scale(0.1 -0.1)">
       <use xlink:href="#DejaVuSans-2212"/>
       <use xlink:href="#DejaVuSans-31" x="83.789062"/>
       <use xlink:href="#DejaVuSans-32" x="147.412109"/>
      </g>
     </g>
    </g>
    <g id="ytick_8">
     <g id="line2d_16">
      <path d="M 323.510667 207.477187 
C 323.510667 191.200627 320.30454 175.082336 314.07577 160.044756 
C 307.847 145.007175 298.716722 131.342748 287.207456 119.833482 
C 275.69819 108.324216 262.033762 99.193938 246.996182 92.965168 
C 231.958601 86.736398 215.84031 83.53027 199.56375 83.53027 
C 183.28719 83.53027 167.168899 86.736398 152.131318 92.965168 
C 137.093738 99.193938 123.42931 108.324216 111.920044 119.833482 
C 100.410778 131.342748 91.2805 145.007175 85.05173 160.044756 
C 78.82296 175.082336 75.616833 191.200627 75.616833 207.477187 
C 75.616833 223.753748 78.82296 239.872039 85.05173 254.909619 
C 91.2805 269.9472 100.410778 283.611627 111.920044 295.120893 
C 123.42931 306.630159 137.093738 315.760437 152.131318 321.989207 
C 167.168899 328.217977 183.28719 331.424105 199.56375 331.424105 
C 215.84031 331.424105 231.958601 328.217977 246.996182 321.989207 
C 262.033762 315.760437 275.69819 306.630159 287.207456 295.120893 
C 298.716722 283.611627 307.847 269.9472 314.07577 254.909619 
C 320.30454 239.872039 323.510667 223.753748 323.510667 207.477188 
" clip-path="url(#pe7e418eb44)" style="fill: none; stroke: #b0b0b0; stroke-width: 0.8; stroke-linecap: square"/>
     </g>
     <g id="text_16">
      <!-- −9 -->
      <g transform="translate(314.07577 157.965068)scale(0.1 -0.1)">
       <use xlink:href="#DejaVuSans-2212"/>
       <use xlink:href="#DejaVuSans-39" x="83.789062"/>
      </g>
     </g>
    </g>
    <g id="ytick_9">
     <g id="line2d_17">
      <path d="M 337.635028 207.477187 
C 337.635028 189.345833 334.063547 171.390784 327.124978 154.639597 
C 320.186409 137.88841 310.01569 122.666854 297.194887 109.84605 
C 284.374084 97.025247 269.152528 86.854528 252.401341 79.91596 
C 235.650154 72.977391 217.695104 69.405909 199.56375 69.405909 
C 181.432396 69.405909 163.477346 72.977391 146.726159 79.91596 
C 129.974972 86.854528 114.753416 97.025247 101.932613 109.84605 
C 89.11181 122.666854 78.941091 137.88841 72.002522 154.639597 
C 65.063953 171.390784 61.492472 189.345833 61.492472 207.477187 
C 61.492472 225.608542 65.063953 243.563591 72.002522 260.314778 
C 78.941091 277.065965 89.11181 292.287521 101.932613 305.108325 
C 114.753416 317.929128 129.974972 328.099847 146.726159 335.038415 
C 163.477346 341.976984 181.432396 345.548466 199.56375 345.548466 
C 217.695104 345.548466 235.650154 341.976984 252.401341 335.038415 
C 269.152528 328.099847 284.374084 317.929128 297.194887 305.108325 
C 310.01569 292.287521 320.186409 277.065965 327.124978 260.314778 
C 334.063547 243.563591 337.635028 225.608542 337.635028 207.477188 
" clip-path="url(#pe7e418eb44)" style="fill: none; stroke: #b0b0b0; stroke-width: 0.8; stroke-linecap: square"/>
     </g>
     <g id="text_17">
      <!-- −6 -->
      <g transform="translate(327.124978 152.559909)scale(0.1 -0.1)">
       <defs>
        <path id="DejaVuSans-36" d="M 2113 2584 
Q 1688 2584 1439 2293 
Q 1191 2003 1191 1497 
Q 1191 994 1439 701 
Q 1688 409 2113 409 
Q 2538 409 2786 701 
Q 3034 994 3034 1497 
Q 3034 2003 2786 2293 
Q 2538 2584 2113 2584 
z
M 3366 4563 
L 3366 3988 
Q 3128 4100 2886 4159 
Q 2644 4219 2406 4219 
Q 1781 4219 1451 3797 
Q 1122 3375 1075 2522 
Q 1259 2794 1537 2939 
Q 1816 3084 2150 3084 
Q 2853 3084 3261 2657 
Q 3669 2231 3669 1497 
Q 3669 778 3244 343 
Q 2819 -91 2113 -91 
Q 1303 -91 875 529 
Q 447 1150 447 2328 
Q 447 3434 972 4092 
Q 1497 4750 2381 4750 
Q 2619 4750 2861 4703 
Q 3103 4656 3366 4563 
z
" transform="scale(0.015625)"/>
       </defs>
       <use xlink:href="#DejaVuSans-2212"/>
       <use xlink:href="#DejaVuSans-36" x="83.789062"/>
      </g>
     </g>
    </g>
    <g id="ytick_10">
     <g id="line2d_18">
      <path d="M 351.759389 207.477187 
C 351.759389 187.491039 347.822554 167.699231 340.174186 149.234438 
C 332.525818 130.769645 321.314659 113.99096 307.182318 99.858619 
C 293.049978 85.726278 276.271293 74.515119 257.8065 66.866752 
C 239.341706 59.218384 219.549898 55.281548 199.56375 55.281548 
C 179.577602 55.281548 159.785794 59.218384 141.321 66.866752 
C 122.856207 74.515119 106.077522 85.726278 91.945182 99.858619 
C 77.812841 113.99096 66.601682 130.769645 58.953314 149.234438 
C 51.304946 167.699231 47.368111 187.491039 47.368111 207.477187 
C 47.368111 227.463336 51.304946 247.255144 58.953314 265.719937 
C 66.601682 284.18473 77.812841 300.963415 91.945182 315.095756 
C 106.077522 329.228097 122.856207 340.439256 141.321 348.087623 
C 159.785794 355.735991 179.577602 359.672827 199.56375 359.672827 
C 219.549898 359.672827 239.341706 355.735991 257.8065 348.087623 
C 276.271293 340.439256 293.049978 329.228097 307.182318 315.095756 
C 321.314659 300.963415 332.525818 284.18473 340.174186 265.719937 
C 347.822554 247.255144 351.759389 227.463336 351.759389 207.477188 
" clip-path="url(#pe7e418eb44)" style="fill: none; stroke: #b0b0b0; stroke-width: 0.8; stroke-linecap: square"/>
     </g>
     <g id="text_18">
      <!-- −3 -->
      <g transform="translate(340.174186 147.15475)scale(0.1 -0.1)">
       <use xlink:href="#DejaVuSans-2212"/>
       <use xlink:href="#DejaVuSans-33" x="83.789062"/>
      </g>
     </g>
    </g>
   </g>
   <g id="line2d_19">
    <path d="M 321.773371 207.477187 
L 320.592029 205.364631 
L 319.727423 203.28098 
L 318.653239 201.235972 
L 312.919183 195.563051 
L 310.609818 193.842445 
L 308.667193 192.143699 
L 306.59266 190.525473 
L 301.804127 187.603671 
L 298.835151 186.3764 
L 295.584615 185.309024 
L 292.771057 184.237996 
L 289.568091 183.360597 
L 287.010921 182.402115 
L 285.384856 181.239042 
L 284.475053 179.887833 
L 284.510362 178.227723 
L 285.203602 176.306831 
L 289.218922 169.420825 
L 293.340597 163.748326 
L 294.805904 161.024485 
L 296.887798 157.888108 
L 299.904116 149.54565 
L 300.362907 146.910944 
L 301.230986 143.948447 
L 302.28243 140.770897 
L 302.542884 138.016884 
L 303.05045 135.01502 
L 303.194597 132.18497 
L 302.440074 129.954317 
L 302.024927 127.425742 
L 301.28181 125.107527 
L 300.369763 122.890899 
L 299.265481 120.807795 
L 298.37799 118.504446 
L 297.271554 116.363186 
L 294.425039 112.615898 
L 292.784469 110.944308 
L 290.941048 109.487033 
L 289.330379 107.781246 
L 284.795588 102.224633 
L 283.319617 100.274567 
L 279.972823 96.803593 
L 278.779785 94.344964 
L 277.69369 91.644787 
L 276.414119 89.137996 
L 275.1779 86.469252 
L 272.234058 81.608522 
L 270.911905 78.761708 
L 269.326583 76.27238 
L 263.623751 70.100072 
L 261.578361 68.19009 
L 259.572169 66.106212 
L 257.291536 64.595905 
L 254.846487 63.460733 
L 252.232848 62.77003 
L 249.561385 62.273512 
L 246.778105 62.166344 
L 241.140806 62.480761 
L 238.185974 63.337085 
L 232.331352 65.545108 
L 223.654034 70.854399 
L 218.093518 75.631039 
L 215.493021 77.743686 
L 212.909008 80.505543 
L 210.525237 82.186817 
L 208.239079 83.414197 
L 205.980405 85.040111 
L 201.670555 86.778427 
L 199.56375 88.054774 
L 197.493428 88.868514 
L 195.471551 90.291939 
L 193.549472 92.717935 
L 191.744616 95.658367 
L 190.222284 100.703744 
L 189.078767 107.719237 
L 188.156404 114.571809 
L 188.087681 125.820712 
L 189.013064 140.862779 
L 190.317022 155.036389 
L 189.153471 153.920944 
L 184.940167 138.678637 
L 180.86201 126.471051 
L 176.304056 114.187652 
L 172.547008 106.649332 
L 168.916208 100.596508 
L 165.094008 94.731742 
L 161.931295 91.656401 
L 158.761466 88.978752 
L 155.559525 86.576574 
L 152.636222 85.226799 
L 149.41808 83.3623 
L 145.977407 81.235674 
L 142.604646 79.544946 
L 138.812683 77.196104 
L 135.229382 75.572186 
L 131.836339 74.554658 
L 128.14317 73.154613 
L 124.686785 72.395567 
L 121.361401 72.026745 
L 118.029731 71.781793 
L 115.115075 72.331057 
L 101.127425 76.847772 
L 96.062572 79.663876 
L 93.539001 81.121812 
L 86.230111 85.941739 
L 84.02817 87.836592 
L 82.064283 89.97772 
L 78.55857 94.638031 
L 72.123646 104.278226 
L 67.563849 111.573645 
L 62.583398 118.521107 
L 61.143595 120.982675 
L 60.014313 123.627426 
L 58.754249 129.425206 
L 58.548367 132.497979 
L 58.662396 135.684362 
L 58.391478 138.62287 
L 58.726093 141.803509 
L 59.43364 145.087243 
L 59.969652 148.223008 
L 61.396984 151.65419 
L 63.204098 155.133621 
L 64.603074 158.355519 
L 69.091967 165.084335 
L 70.789769 168.10703 
L 72.765307 171.118319 
L 73.764501 173.76938 
L 74.287195 176.242234 
L 77.256303 183.703028 
L 78.589464 186.146157 
L 80.207278 188.572979 
L 82.371214 191.006851 
L 85.512926 193.473507 
L 90.398302 197.926448 
L 93.131989 200.034754 
L 96.690314 202.085819 
L 100.569007 204.020215 
L 105.574795 205.836604 
L 112.363712 207.477187 
L 119.461635 208.875375 
L 128.151195 209.970969 
L 138.882072 211.720464 
L 141.216315 213.60975 
L 140.229395 214.76253 
L 138.202271 216.100981 
L 133.637565 217.918869 
L 127.15778 220.244314 
L 123.259898 222.309154 
L 118.427771 224.723172 
L 113.727027 227.294156 
L 109.828328 229.850741 
L 104.934403 232.833045 
L 101.150722 235.696669 
L 98.28141 238.442306 
L 94.883453 241.489878 
L 92.158739 244.459698 
L 90.104081 247.317249 
L 87.739271 250.402583 
L 86.025968 253.349429 
L 84.637912 256.260311 
L 82.969161 259.388443 
L 81.034933 265.287554 
L 79.771464 268.514406 
L 79.196303 271.477694 
L 77.442171 277.984114 
L 76.822977 284.174135 
L 76.814015 287.191797 
L 77.287152 289.953794 
L 77.642184 292.847587 
L 78.206053 295.648715 
L 79.180531 298.19245 
L 80.652535 303.769591 
L 81.561328 306.492977 
L 82.344429 309.374388 
L 83.475859 312.003194 
L 84.784058 314.510982 
L 85.975256 317.168321 
L 87.537395 319.503542 
L 89.254485 321.705775 
L 95.281992 327.439627 
L 97.364271 329.273784 
L 101.665574 332.781139 
L 103.824838 334.527015 
L 113.294978 340.319447 
L 120.676369 344.114139 
L 130.664027 348.742555 
L 133.229479 349.73149 
L 135.865884 350.544936 
L 141.5185 351.144223 
L 144.362 351.282662 
L 147.332646 350.980967 
L 150.186905 350.877959 
L 158.791289 349.667658 
L 161.638537 349.016009 
L 167.339464 347.055904 
L 175.761246 342.467895 
L 178.528812 340.28656 
L 183.737185 336.374218 
L 186.291328 333.755848 
L 188.632628 332.420483 
L 190.883494 331.610628 
L 193.079334 331.207223 
L 197.410849 330.816802 
L 199.56375 330.901503 
L 201.725196 331.306371 
L 203.894036 331.480347 
L 206.041267 331.075576 
L 208.160915 330.422375 
L 210.234717 329.446894 
L 212.194923 327.654773 
L 214.086697 325.757101 
L 215.790336 322.935347 
L 218.928557 317.300466 
L 219.862187 311.903591 
L 220.308228 305.072282 
L 220.382624 297.653639 
L 218.670659 284.110814 
L 215.348346 262.524616 
L 218.765119 270.282036 
L 223.953803 282.542053 
L 228.894453 292.659735 
L 234.42163 303.248425 
L 238.652363 309.306506 
L 242.802798 314.497587 
L 246.67099 318.45489 
L 249.705578 320.097577 
L 252.572748 321.155351 
L 255.471197 322.104441 
L 258.320318 322.793445 
L 261.113002 323.234495 
L 263.564402 322.937421 
L 265.692125 322.014892 
L 267.627665 320.754564 
L 269.479495 319.365768 
L 271.067708 317.583627 
L 272.507178 315.620267 
L 277.103621 310.376072 
L 278.693438 308.758569 
L 280.383806 307.281644 
L 284.722717 305.441373 
L 287.200744 304.80793 
L 292.79428 304.020228 
L 296.05632 303.969757 
L 299.293711 303.785291 
L 302.202362 303.189241 
L 305.057228 302.463942 
L 307.501946 301.30643 
L 309.664047 299.862306 
L 312.02433 298.54597 
L 314.290351 297.111432 
L 318.468484 293.866533 
L 320.120056 291.891622 
L 321.582736 289.780033 
L 323.893622 285.167114 
L 324.915782 282.796287 
L 325.758604 280.33582 
L 326.726813 277.964824 
L 327.505294 275.504913 
L 328.625095 270.424612 
L 329.263736 265.223342 
L 329.636385 262.689745 
L 329.711473 260.060281 
L 329.418196 257.323639 
L 328.74644 254.495841 
L 327.303739 251.461593 
L 326.417561 248.694489 
L 325.606395 243.619334 
L 325.367547 241.186213 
L 324.93167 238.734921 
L 324.650708 236.355787 
L 325.209341 234.183982 
L 327.349191 230.009209 
L 327.727617 227.77635 
L 327.736461 223.214818 
L 327.837082 220.959258 
L 327.682314 218.686109 
L 327.03651 216.390951 
L 326.006648 214.103779 
L 322.922194 209.630417 
L 322.922194 209.630417 
" clip-path="url(#pe7e418eb44)" style="fill: none; stroke: #ff0000; stroke-width: 1.5; stroke-linecap: square"/>
   </g>
   <g id="line2d_20">
    <path d="M 323.421213 207.477187 
L 323.515151 203.148709 
L 323.429481 198.815652 
L 323.150071 194.487742 
L 322.663421 190.176657 
L 321.938287 185.899255 
L 320.963313 181.672914 
L 319.705571 177.522467 
L 318.147983 173.473706 
L 316.266641 169.55812 
L 314.04487 165.809468 
L 311.460182 162.268094 
L 310.030058 160.587022 
L 308.506714 158.972655 
L 306.892608 157.428919 
L 305.190326 155.959664 
L 301.536368 153.257385 
L 297.616722 150.866278 
L 287.889895 145.630555 
L 286.301906 144.458228 
L 284.963259 143.124042 
L 283.938436 141.556458 
L 283.214178 139.738407 
L 282.812691 137.623032 
L 282.732146 135.180004 
L 282.885236 132.454184 
L 283.623273 126.30185 
L 284.487121 119.536463 
L 284.827436 116.043078 
L 285.052207 112.532637 
L 285.142795 109.029758 
L 285.079119 105.563939 
L 284.851883 102.155114 
L 284.45877 98.816517 
L 283.892489 95.56917 
L 283.160826 92.415684 
L 282.260687 89.373721 
L 281.197877 86.449617 
L 279.978394 83.649495 
L 278.60842 80.979272 
L 277.094323 78.444646 
L 275.439817 76.055984 
L 273.654379 73.814154 
L 271.743578 71.726675 
L 269.715021 69.797567 
L 267.575995 68.031421 
L 265.33393 66.432581 
L 262.996699 65.004451 
L 260.571698 63.751468 
L 258.066827 62.676991 
L 255.489983 61.784368 
L 252.849164 61.076717 
L 250.152438 60.556969 
L 247.407927 60.227953 
L 244.623895 60.092094 
L 241.80862 60.151818 
L 238.970234 60.410188 
L 236.116682 60.871384 
L 233.257003 61.535675 
L 230.399432 62.406709 
L 227.552077 63.489727 
L 224.72258 64.794372 
L 221.919991 66.325436 
L 219.153702 68.087436 
L 216.431144 70.103287 
L 213.762366 72.386384 
L 211.157571 74.959212 
L 208.628259 77.848665 
L 206.186892 81.100113 
L 203.849343 84.753857 
L 201.633826 88.882636 
L 199.56375 93.54915 
L 197.667953 98.867038 
L 195.981408 104.892337 
L 194.543959 111.693867 
L 193.378844 119.028906 
L 192.447556 126.138723 
L 191.521221 130.957635 
L 190.135356 130.689078 
L 188.043124 125.503675 
L 185.398998 118.044466 
L 182.458669 110.469453 
L 179.357844 103.526811 
L 176.170441 97.420322 
L 172.932553 92.124802 
L 169.659146 87.536371 
L 166.36286 83.56978 
L 163.053047 80.149234 
L 159.735211 77.203908 
L 156.417265 74.685962 
L 153.10385 72.54784 
L 149.802803 70.760109 
L 146.516605 69.28465 
L 143.25221 68.101235 
L 140.01321 67.184907 
L 136.805366 66.51955 
L 133.632381 66.086911 
L 130.498708 65.872866 
L 127.4082 65.863947 
L 124.364613 66.048181 
L 121.372534 66.4165 
L 118.43295 66.95452 
L 115.551523 67.657362 
L 112.729928 68.514024 
L 109.971741 69.517592 
L 107.277526 70.657234 
L 104.655302 71.933876 
L 102.102182 73.332848 
L 99.625713 74.854933 
L 97.222007 76.48573 
L 94.898145 78.22593 
L 92.655315 80.068676 
L 90.494344 82.007189 
L 88.415713 84.034787 
L 86.425977 86.15178 
L 84.522021 88.347989 
L 82.710137 90.623574 
L 80.98659 92.968555 
L 77.818275 97.857069 
L 75.029722 102.98073 
L 72.623666 108.300725 
L 70.603771 113.782278 
L 68.97644 119.394935 
L 67.741154 125.105287 
L 66.897731 130.882426 
L 66.442555 136.695393 
L 66.380797 142.519521 
L 66.702469 148.323534 
L 67.416723 154.086323 
L 68.522902 159.782219 
L 70.032281 165.389862 
L 71.950675 170.884727 
L 73.073251 173.584161 
L 74.310036 176.247929 
L 75.660355 178.871835 
L 77.132614 181.453646 
L 78.7306 183.989602 
L 80.467285 186.477267 
L 82.346349 188.911775 
L 84.380666 191.289261 
L 86.583049 193.604902 
L 88.966209 195.852917 
L 91.538022 198.026161 
L 94.348422 200.119815 
L 97.386161 202.122287 
L 100.743101 204.026294 
L 104.416774 205.816391 
L 108.451264 207.477187 
L 112.937174 208.98926 
L 118.011377 210.325059 
L 123.762518 211.449762 
L 130.418706 212.31228 
L 138.299361 212.837127 
L 147.86054 212.911414 
L 159.832742 212.355542 
L 175.216281 210.899001 
L 191.741258 208.716148 
L 190.975852 208.991466 
L 174.319543 212.384164 
L 159.395955 216.015116 
L 147.898954 219.404946 
L 138.887087 222.605579 
L 131.611182 225.685023 
L 125.558014 228.697991 
L 120.446714 231.665693 
L 116.045008 234.614072 
L 112.257782 237.539043 
L 108.902447 240.475203 
L 106.019777 243.385354 
L 103.474044 246.299949 
L 101.219213 249.221967 
L 99.248756 252.1403 
L 97.538781 255.052212 
L 96.05299 257.962759 
L 94.776857 260.868776 
L 93.696001 263.768068 
L 92.796224 266.659394 
L 92.067632 269.5401 
L 91.500429 272.408182 
L 91.084946 275.262267 
L 90.815616 278.099052 
L 90.682964 280.918205 
L 90.689287 283.711907 
L 90.821293 286.483207 
L 91.077399 289.227517 
L 91.452167 291.943213 
L 91.94389 294.626032 
L 92.550728 297.271775 
L 94.080768 302.454491 
L 96.020322 307.467914 
L 98.346573 312.290643 
L 101.026554 316.913831 
L 104.046389 321.310346 
L 107.37873 325.468632 
L 111.002024 329.371946 
L 114.896698 333.001255 
L 119.04433 336.335195 
L 123.424264 339.354646 
L 128.017623 342.035881 
L 132.80574 344.351392 
L 137.767062 346.274822 
L 140.30534 347.081253 
L 142.878307 347.778582 
L 145.48064 348.368506 
L 148.112017 348.839661 
L 150.766308 349.195248 
L 153.440562 349.429764 
L 156.128726 349.54675 
L 158.828923 349.536411 
L 161.536179 349.398015 
L 164.245491 349.130987 
L 166.952894 348.730324 
L 169.652124 348.200323 
L 172.33992 347.531651 
L 175.009912 346.728924 
L 177.658991 345.778394 
L 180.281107 344.68032 
L 182.870784 343.430488 
L 185.422714 342.020158 
L 187.930537 340.445423 
L 190.388234 338.693179 
L 192.788331 336.759893 
L 195.123212 334.637571 
L 197.38472 332.313756 
L 199.56375 329.790387 
L 201.65141 327.079123 
L 203.639518 324.191911 
L 205.522587 321.178565 
L 210.583681 312.324829 
L 212.159385 310.060404 
L 213.764323 308.519512 
L 215.466671 307.884276 
L 217.331052 308.240562 
L 219.383365 309.440268 
L 221.619918 311.243299 
L 229.195503 318.064397 
L 231.885368 320.196067 
L 234.607501 322.100133 
L 237.340239 323.741265 
L 240.064069 325.098655 
L 242.762839 326.165708 
L 245.423255 326.945283 
L 248.033911 327.445047 
L 250.587518 327.681651 
L 253.072087 327.658879 
L 255.481744 327.393714 
L 257.811664 326.90311 
L 260.051646 326.191367 
L 262.202694 325.283908 
L 264.258295 324.189236 
L 266.212372 322.915987 
L 268.071414 321.493088 
L 269.828784 319.924747 
L 271.488241 318.231191 
L 273.049524 316.424328 
L 274.518449 314.523591 
L 277.197124 310.500154 
L 279.580855 306.290083 
L 282.758754 299.8746 
L 286.701818 291.625441 
L 289.746289 285.871672 
L 291.889422 282.241043 
L 295.287218 277.024358 
L 301.246714 268.574476 
L 305.982484 261.700241 
L 309.336823 256.351309 
L 311.42526 252.672171 
L 313.367969 248.898536 
L 315.147219 245.032533 
L 316.754056 241.080967 
L 318.179769 237.051483 
L 319.429769 232.955496 
L 320.505579 228.802495 
L 321.409262 224.601458 
L 322.152735 220.361809 
L 322.734377 216.090117 
L 323.157552 211.793178 
L 323.308201 209.637155 
L 323.308201 209.637155 
" clip-path="url(#pe7e418eb44)" style="fill: none; stroke-dasharray: 5.55,2.4; stroke-dashoffset: 0; stroke: #0000ff; stroke-width: 1.5"/>
   </g>
   <g id="patch_3">
    <path d="M 365.88375 207.477187 
C 365.88375 185.636245 361.581561 164.007679 353.223394 143.829279 
C 344.865227 123.650879 332.613628 105.315066 317.16975 89.871188 
C 301.725871 74.427309 283.390058 62.17571 263.211658 53.817544 
C 243.033259 45.459377 221.404692 41.157187 199.56375 41.157187 
C 177.722808 41.157187 156.094241 45.459377 135.915842 53.817544 
C 115.737442 62.17571 97.401629 74.427309 81.95775 89.871188 
C 66.513872 105.315066 54.262273 123.650879 45.904106 143.829279 
C 37.545939 164.007679 33.24375 185.636245 33.24375 207.477187 
C 33.24375 229.31813 37.545939 250.946696 45.904106 271.125096 
C 54.262273 291.303496 66.513872 309.639309 81.95775 325.083187 
C 97.401629 340.527066 115.737442 352.778665 135.915842 361.136831 
C 156.094241 369.494998 177.722808 373.797188 199.56375 373.797188 
C 221.404692 373.797188 243.033259 369.494998 263.211658 361.136831 
C 283.390058 352.778665 301.725871 340.527066 317.16975 325.083187 
C 332.613628 309.639309 344.865227 291.303496 353.223394 271.125096 
C 361.581561 250.946696 365.88375 229.31813 365.88375 207.477188 
" style="fill: none; stroke: #000000; stroke-width: 0.8; stroke-linejoin: miter; stroke-linecap: square"/>
   </g>
   <g id="text_19">
    <!-- Radiation Diagram - 4AVVF13 -->
    <g transform="translate(110.727187 16.318125)scale(0.12 -0.12)">
     <defs>
      <path id="DejaVuSans-52" d="M 2841 2188 
Q 3044 2119 3236 1894 
Q 3428 1669 3622 1275 
L 4263 0 
L 3584 0 
L 2988 1197 
Q 2756 1666 2539 1819 
Q 2322 1972 1947 1972 
L 1259 1972 
L 1259 0 
L 628 0 
L 628 4666 
L 2053 4666 
Q 2853 4666 3247 4331 
Q 3641 3997 3641 3322 
Q 3641 2881 3436 2590 
Q 3231 2300 2841 2188 
z
M 1259 4147 
L 1259 2491 
L 2053 2491 
Q 2509 2491 2742 2702 
Q 2975 2913 2975 3322 
Q 2975 3731 2742 3939 
Q 2509 4147 2053 4147 
L 1259 4147 
z
" transform="scale(0.015625)"/>
      <path id="DejaVuSans-61" d="M 2194 1759 
Q 1497 1759 1228 1600 
Q 959 1441 959 1056 
Q 959 750 1161 570 
Q 1363 391 1709 391 
Q 2188 391 2477 730 
Q 2766 1069 2766 1631 
L 2766 1759 
L 2194 1759 
z
M 3341 1997 
L 3341 0 
L 2766 0 
L 2766 531 
Q 2569 213 2275 61 
Q 1981 -91 1556 -91 
Q 1019 -91 701 211 
Q 384 513 384 1019 
Q 384 1609 779 1909 
Q 1175 2209 1959 2209 
L 2766 2209 
L 2766 2266 
Q 2766 2663 2505 2880 
Q 2244 3097 1772 3097 
Q 1472 3097 1187 3025 
Q 903 2953 641 2809 
L 641 3341 
Q 956 3463 1253 3523 
Q 1550 3584 1831 3584 
Q 2591 3584 2966 3190 
Q 3341 2797 3341 1997 
z
" transform="scale(0.015625)"/>
      <path id="DejaVuSans-64" d="M 2906 2969 
L 2906 4863 
L 3481 4863 
L 3481 0 
L 2906 0 
L 2906 525 
Q 2725 213 2448 61 
Q 2172 -91 1784 -91 
Q 1150 -91 751 415 
Q 353 922 353 1747 
Q 353 2572 751 3078 
Q 1150 3584 1784 3584 
Q 2172 3584 2448 3432 
Q 2725 3281 2906 2969 
z
M 947 1747 
Q 947 1113 1208 752 
Q 1469 391 1925 391 
Q 2381 391 2643 752 
Q 2906 1113 2906 1747 
Q 2906 2381 2643 2742 
Q 2381 3103 1925 3103 
Q 1469 3103 1208 2742 
Q 947 2381 947 1747 
z
" transform="scale(0.015625)"/>
      <path id="DejaVuSans-69" d="M 603 3500 
L 1178 3500 
L 1178 0 
L 603 0 
L 603 3500 
z
M 603 4863 
L 1178 4863 
L 1178 4134 
L 603 4134 
L 603 4863 
z
" transform="scale(0.015625)"/>
      <path id="DejaVuSans-74" d="M 1172 4494 
L 1172 3500 
L 2356 3500 
L 2356 3053 
L 1172 3053 
L 1172 1153 
Q 1172 725 1289 603 
Q 1406 481 1766 481 
L 2356 481 
L 2356 0 
L 1766 0 
Q 1100 0 847 248 
Q 594 497 594 1153 
L 594 3053 
L 172 3053 
L 172 3500 
L 594 3500 
L 594 4494 
L 1172 4494 
z
" transform="scale(0.015625)"/>
      <path id="DejaVuSans-6f" d="M 1959 3097 
Q 1497 3097 1228 2736 
Q 959 2375 959 1747 
Q 959 1119 1226 758 
Q 1494 397 1959 397 
Q 2419 397 2687 759 
Q 2956 1122 2956 1747 
Q 2956 2369 2687 2733 
Q 2419 3097 1959 3097 
z
M 1959 3584 
Q 2709 3584 3137 3096 
Q 3566 2609 3566 1747 
Q 3566 888 3137 398 
Q 2709 -91 1959 -91 
Q 1206 -91 779 398 
Q 353 888 353 1747 
Q 353 2609 779 3096 
Q 1206 3584 1959 3584 
z
" transform="scale(0.015625)"/>
      <path id="DejaVuSans-6e" d="M 3513 2113 
L 3513 0 
L 2938 0 
L 2938 2094 
Q 2938 2591 2744 2837 
Q 2550 3084 2163 3084 
Q 1697 3084 1428 2787 
Q 1159 2491 1159 1978 
L 1159 0 
L 581 0 
L 581 3500 
L 1159 3500 
L 1159 2956 
Q 1366 3272 1645 3428 
Q 1925 3584 2291 3584 
Q 2894 3584 3203 3211 
Q 3513 2838 3513 2113 
z
" transform="scale(0.015625)"/>
      <path id="DejaVuSans-20" transform="scale(0.015625)"/>
      <path id="DejaVuSans-44" d="M 1259 4147 
L 1259 519 
L 2022 519 
Q 2988 519 3436 956 
Q 3884 1394 3884 2338 
Q 3884 3275 3436 3711 
Q 2988 4147 2022 4147 
L 1259 4147 
z
M 628 4666 
L 1925 4666 
Q 3281 4666 3915 4102 
Q 4550 3538 4550 2338 
Q 4550 1131 3912 565 
Q 3275 0 1925 0 
L 628 0 
L 628 4666 
z
" transform="scale(0.015625)"/>
      <path id="DejaVuSans-67" d="M 2906 1791 
Q 2906 2416 2648 2759 
Q 2391 3103 1925 3103 
Q 1463 3103 1205 2759 
Q 947 2416 947 1791 
Q 947 1169 1205 825 
Q 1463 481 1925 481 
Q 2391 481 2648 825 
Q 2906 1169 2906 1791 
z
M 3481 434 
Q 3481 -459 3084 -895 
Q 2688 -1331 1869 -1331 
Q 1566 -1331 1297 -1286 
Q 1028 -1241 775 -1147 
L 775 -588 
Q 1028 -725 1275 -790 
Q 1522 -856 1778 -856 
Q 2344 -856 2625 -561 
Q 2906 -266 2906 331 
L 2906 616 
Q 2728 306 2450 153 
Q 2172 0 1784 0 
Q 1141 0 747 490 
Q 353 981 353 1791 
Q 353 2603 747 3093 
Q 1141 3584 1784 3584 
Q 2172 3584 2450 3431 
Q 2728 3278 2906 2969 
L 2906 3500 
L 3481 3500 
L 3481 434 
z
" transform="scale(0.015625)"/>
      <path id="DejaVuSans-72" d="M 2631 2963 
Q 2534 3019 2420 3045 
Q 2306 3072 2169 3072 
Q 1681 3072 1420 2755 
Q 1159 2438 1159 1844 
L 1159 0 
L 581 0 
L 581 3500 
L 1159 3500 
L 1159 2956 
Q 1341 3275 1631 3429 
Q 1922 3584 2338 3584 
Q 2397 3584 2469 3576 
Q 2541 3569 2628 3553 
L 2631 2963 
z
" transform="scale(0.015625)"/>
      <path id="DejaVuSans-6d" d="M 3328 2828 
Q 3544 3216 3844 3400 
Q 4144 3584 4550 3584 
Q 5097 3584 5394 3201 
Q 5691 2819 5691 2113 
L 5691 0 
L 5113 0 
L 5113 2094 
Q 5113 2597 4934 2840 
Q 4756 3084 4391 3084 
Q 3944 3084 3684 2787 
Q 3425 2491 3425 1978 
L 3425 0 
L 2847 0 
L 2847 2094 
Q 2847 2600 2669 2842 
Q 2491 3084 2119 3084 
Q 1678 3084 1418 2786 
Q 1159 2488 1159 1978 
L 1159 0 
L 581 0 
L 581 3500 
L 1159 3500 
L 1159 2956 
Q 1356 3278 1631 3431 
Q 1906 3584 2284 3584 
Q 2666 3584 2933 3390 
Q 3200 3197 3328 2828 
z
" transform="scale(0.015625)"/>
      <path id="DejaVuSans-2d" d="M 313 2009 
L 1997 2009 
L 1997 1497 
L 313 1497 
L 313 2009 
z
" transform="scale(0.015625)"/>
      <path id="DejaVuSans-41" d="M 2188 4044 
L 1331 1722 
L 3047 1722 
L 2188 4044 
z
M 1831 4666 
L 2547 4666 
L 4325 0 
L 3669 0 
L 3244 1197 
L 1141 1197 
L 716 0 
L 50 0 
L 1831 4666 
z
" transform="scale(0.015625)"/>
      <path id="DejaVuSans-56" d="M 1831 0 
L 50 4666 
L 709 4666 
L 2188 738 
L 3669 4666 
L 4325 4666 
L 2547 0 
L 1831 0 
z
" transform="scale(0.015625)"/>
      <path id="DejaVuSans-46" d="M 628 4666 
L 3309 4666 
L 3309 4134 
L 1259 4134 
L 1259 2759 
L 3109 2759 
L 3109 2228 
L 1259 2228 
L 1259 0 
L 628 0 
L 628 4666 
z
" transform="scale(0.015625)"/>
     </defs>
     <use xlink:href="#DejaVuSans-52"/>
     <use xlink:href="#DejaVuSans-61" x="67.232422"/>
     <use xlink:href="#DejaVuSans-64" x="128.511719"/>
     <use xlink:href="#DejaVuSans-69" x="191.988281"/>
     <use xlink:href="#DejaVuSans-61" x="219.771484"/>
     <use xlink:href="#DejaVuSans-74" x="281.050781"/>
     <use xlink:href="#DejaVuSans-69" x="320.259766"/>
     <use xlink:href="#DejaVuSans-6f" x="348.042969"/>
     <use xlink:href="#DejaVuSans-6e" x="409.224609"/>
     <use xlink:href="#DejaVuSans-20" x="472.603516"/>
     <use xlink:href="#DejaVuSans-44" x="504.390625"/>
     <use xlink:href="#DejaVuSans-69" x="581.392578"/>
     <use xlink:href="#DejaVuSans-61" x="609.175781"/>
     <use xlink:href="#DejaVuSans-67" x="670.455078"/>
     <use xlink:href="#DejaVuSans-72" x="733.931641"/>
     <use xlink:href="#DejaVuSans-61" x="775.044922"/>
     <use xlink:href="#DejaVuSans-6d" x="836.324219"/>
     <use xlink:href="#DejaVuSans-20" x="933.736328"/>
     <use xlink:href="#DejaVuSans-2d" x="965.523438"/>
     <use xlink:href="#DejaVuSans-20" x="1001.607422"/>
     <use xlink:href="#DejaVuSans-34" x="1033.394531"/>
     <use xlink:href="#DejaVuSans-41" x="1097.017578"/>
     <use xlink:href="#DejaVuSans-56" x="1159.050781"/>
     <use xlink:href="#DejaVuSans-56" x="1227.458984"/>
     <use xlink:href="#DejaVuSans-46" x="1295.867188"/>
     <use xlink:href="#DejaVuSans-31" x="1353.386719"/>
     <use xlink:href="#DejaVuSans-33" x="1417.009766"/>
    </g>
   </g>
   <g id="legend_1">
    <g id="patch_4">
     <path d="M 304.104062 78.513437 
L 358.88375 78.513437 
Q 360.88375 78.513437 360.88375 76.513437 
L 360.88375 48.157187 
Q 360.88375 46.157187 358.88375 46.157187 
L 304.104062 46.157187 
Q 302.104062 46.157187 302.104062 48.157187 
L 302.104062 76.513437 
Q 302.104062 78.513437 304.104062 78.513437 
z
" style="fill: #ffffff; opacity: 0.8; stroke: #cccccc; stroke-linejoin: miter"/>
    </g>
    <g id="line2d_21">
     <path d="M 306.104062 54.255625 
L 316.104062 54.255625 
L 326.104062 54.255625 
" style="fill: none; stroke: #ff0000; stroke-width: 1.5; stroke-linecap: square"/>
    </g>
    <g id="text_20">
     <!-- INPE -->
     <g transform="translate(334.104062 57.755625)scale(0.1 -0.1)">
      <defs>
       <path id="DejaVuSans-49" d="M 628 4666 
L 1259 4666 
L 1259 0 
L 628 0 
L 628 4666 
z
" transform="scale(0.015625)"/>
       <path id="DejaVuSans-4e" d="M 628 4666 
L 1478 4666 
L 3547 763 
L 3547 4666 
L 4159 4666 
L 4159 0 
L 3309 0 
L 1241 3903 
L 1241 0 
L 628 0 
L 628 4666 
z
" transform="scale(0.015625)"/>
       <path id="DejaVuSans-50" d="M 1259 4147 
L 1259 2394 
L 2053 2394 
Q 2494 2394 2734 2622 
Q 2975 2850 2975 3272 
Q 2975 3691 2734 3919 
Q 2494 4147 2053 4147 
L 1259 4147 
z
M 628 4666 
L 2053 4666 
Q 2838 4666 3239 4311 
Q 3641 3956 3641 3272 
Q 3641 2581 3239 2228 
Q 2838 1875 2053 1875 
L 1259 1875 
L 1259 0 
L 628 0 
L 628 4666 
z
" transform="scale(0.015625)"/>
       <path id="DejaVuSans-45" d="M 628 4666 
L 3578 4666 
L 3578 4134 
L 1259 4134 
L 1259 2753 
L 3481 2753 
L 3481 2222 
L 1259 2222 
L 1259 531 
L 3634 531 
L 3634 0 
L 628 0 
L 628 4666 
z
" transform="scale(0.015625)"/>
      </defs>
      <use xlink:href="#DejaVuSans-49"/>
      <use xlink:href="#DejaVuSans-4e" x="29.492188"/>
      <use xlink:href="#DejaVuSans-50" x="104.296875"/>
      <use xlink:href="#DejaVuSans-45" x="164.599609"/>
     </g>
    </g>
    <g id="line2d_22">
     <path d="M 306.104062 68.93375 
L 316.104062 68.93375 
L 326.104062 68.93375 
" style="fill: none; stroke-dasharray: 5.55,2.4; stroke-dashoffset: 0; stroke: #0000ff; stroke-width: 1.5"/>
    </g>
    <g id="text_21">
     <!-- CST -->
     <g transform="translate(334.104062 72.43375)scale(0.1 -0.1)">
      <defs>
       <path id="DejaVuSans-43" d="M 4122 4306 
L 4122 3641 
Q 3803 3938 3442 4084 
Q 3081 4231 2675 4231 
Q 1875 4231 1450 3742 
Q 1025 3253 1025 2328 
Q 1025 1406 1450 917 
Q 1875 428 2675 428 
Q 3081 428 3442 575 
Q 3803 722 4122 1019 
L 4122 359 
Q 3791 134 3420 21 
Q 3050 -91 2638 -91 
Q 1578 -91 968 557 
Q 359 1206 359 2328 
Q 359 3453 968 4101 
Q 1578 4750 2638 4750 
Q 3056 4750 3426 4639 
Q 3797 4528 4122 4306 
z
" transform="scale(0.015625)"/>
       <path id="DejaVuSans-53" d="M 3425 4513 
L 3425 3897 
Q 3066 4069 2747 4153 
Q 2428 4238 2131 4238 
Q 1616 4238 1336 4038 
Q 1056 3838 1056 3469 
Q 1056 3159 1242 3001 
Q 1428 2844 1947 2747 
L 2328 2669 
Q 3034 2534 3370 2195 
Q 3706 1856 3706 1288 
Q 3706 609 3251 259 
Q 2797 -91 1919 -91 
Q 1588 -91 1214 -16 
Q 841 59 441 206 
L 441 856 
Q 825 641 1194 531 
Q 1563 422 1919 422 
Q 2459 422 2753 634 
Q 3047 847 3047 1241 
Q 3047 1584 2836 1778 
Q 2625 1972 2144 2069 
L 1759 2144 
Q 1053 2284 737 2584 
Q 422 2884 422 3419 
Q 422 4038 858 4394 
Q 1294 4750 2059 4750 
Q 2388 4750 2728 4690 
Q 3069 4631 3425 4513 
z
" transform="scale(0.015625)"/>
       <path id="DejaVuSans-54" d="M -19 4666 
L 3928 4666 
L 3928 4134 
L 2272 4134 
L 2272 0 
L 1638 0 
L 1638 4134 
L -19 4134 
L -19 4666 
z
" transform="scale(0.015625)"/>
      </defs>
      <use xlink:href="#DejaVuSans-43"/>
      <use xlink:href="#DejaVuSans-53" x="69.824219"/>
      <use xlink:href="#DejaVuSans-54" x="133.300781"/>
     </g>
    </g>
   </g>
  </g>
 </g>
 <defs>
  <clipPath id="pe7e418eb44">
   <path d="M 365.88375 207.477187 
C 365.88375 185.636245 361.581561 164.007679 353.223394 143.829279 
C 344.865227 123.650879 332.613628 105.315066 317.16975 89.871188 
C 301.725871 74.427309 283.390058 62.17571 263.211658 53.817544 
C 243.033259 45.459377 221.404692 41.157187 199.56375 41.157187 
C 177.722808 41.157187 156.094241 45.459377 135.915842 53.817544 
C 115.737442 62.17571 97.401629 74.427309 81.95775 89.871188 
C 66.513872 105.315066 54.262273 123.650879 45.904106 143.829279 
C 37.545939 164.007679 33.24375 185.636245 33.24375 207.477187 
C 33.24375 229.31813 37.545939 250.946696 45.904106 271.125096 
C 54.262273 291.303496 66.513872 309.639309 81.95775 325.083187 
C 97.401629 340.527066 115.737442 352.778665 135.915842 361.136831 
C 156.094241 369.494998 177.722808 373.797188 199.56375 373.797188 
C 221.404692 373.797188 243.033259 369.494998 263.211658 361.136831 
C 283.390058 352.778665 301.725871 340.527066 317.16975 325.083187 
C 332.613628 309.639309 344.865227 291.303496 353.223394 271.125096 
C 361.581561 250.946696 365.88375 229.31813 365.88375 207.477188 
M 199.56375 207.477187 
C 199.56375 207.477187 199.56375 207.477187 199.56375 207.477187 
C 199.56375 207.477187 199.56375 207.477187 199.56375 207.477187 
C 199.56375 207.477187 199.56375 207.477187 199.56375 207.477187 
C 199.56375 207.477187 199.56375 207.477187 199.56375 207.477187 
C 199.56375 207.477187 199.56375 207.477187 199.56375 207.477187 
C 199.56375 207.477187 199.56375 207.477187 199.56375 207.477187 
C 199.56375 207.477187 199.56375 207.477187 199.56375 207.477187 
C 199.56375 207.477187 199.56375 207.477187 199.56375 207.477187 
C 199.56375 207.477187 199.56375 207.477187 199.56375 207.477187 
C 199.56375 207.477187 199.56375 207.477187 199.56375 207.477187 
C 199.56375 207.477187 199.56375 207.477187 199.56375 207.477187 
C 199.56375 207.477187 199.56375 207.477187 199.56375 207.477187 
C 199.56375 207.477187 199.56375 207.477187 199.56375 207.477187 
C 199.56375 207.477187 199.56375 207.477187 199.56375 207.477187 
C 199.56375 207.477187 199.56375 207.477187 199.56375 207.477187 
C 199.56375 207.477187 199.56375 207.477187 199.56375 207.477187 
M 365.88375 207.477187 
z
"/>
  </clipPath>
 </defs>
</svg>
