<?xml version="1.0" encoding="utf-8" standalone="no"?>
<!DOCTYPE svg PUBLIC "-//W3C//DTD SVG 1.1//EN"
  "http://www.w3.org/Graphics/SVG/1.1/DTD/svg11.dtd">
<svg xmlns:xlink="http://www.w3.org/1999/xlink" width="392.765pt" height="399.83625pt" viewBox="0 0 392.765 399.83625" xmlns="http://www.w3.org/2000/svg" version="1.1">
 <metadata>
  <rdf:RDF xmlns:dc="http://purl.org/dc/elements/1.1/" xmlns:cc="http://creativecommons.org/ns#" xmlns:rdf="http://www.w3.org/1999/02/22-rdf-syntax-ns#">
   <cc:Work>
    <dc:type rdf:resource="http://purl.org/dc/dcmitype/StillImage"/>
    <dc:date>2023-11-03T14:12:53.197203</dc:date>
    <dc:format>image/svg+xml</dc:format>
    <dc:creator>
     <cc:Agent>
      <dc:title>Matplotlib v3.5.1, https://matplotlib.org/</dc:title>
     </cc:Agent>
    </dc:creator>
   </cc:Work>
  </rdf:RDF>
 </metadata>
 <defs>
  <style type="text/css">*{stroke-linejoin: round; stroke-linecap: butt}</style>
 </defs>
 <g id="figure_1">
  <g id="patch_1">
   <path d="M 0 399.83625 
L 392.765 399.83625 
L 392.765 0 
L 0 0 
z
" style="fill: #ffffff"/>
  </g>
  <g id="axes_1">
   <g id="patch_2">
    <path d="M 365.88375 207.477187 
C 365.88375 185.636245 361.581561 164.007679 353.223394 143.829279 
C 344.865227 123.650879 332.613628 105.315066 317.16975 89.871188 
C 301.725871 74.427309 283.390058 62.17571 263.211658 53.817544 
C 243.033259 45.459377 221.404692 41.157187 199.56375 41.157187 
C 177.722808 41.157187 156.094241 45.459377 135.915842 53.817544 
C 115.737442 62.17571 97.401629 74.427309 81.95775 89.871188 
C 66.513872 105.315066 54.262273 123.650879 45.904106 143.829279 
C 37.545939 164.007679 33.24375 185.636245 33.24375 207.477187 
C 33.24375 229.31813 37.545939 250.946696 45.904106 271.125096 
C 54.262273 291.303496 66.513872 309.639309 81.95775 325.083187 
C 97.401629 340.527066 115.737442 352.778665 135.915842 361.136831 
C 156.094241 369.494998 177.722808 373.797188 199.56375 373.797188 
C 221.404692 373.797188 243.033259 369.494998 263.211658 361.136831 
C 283.390058 352.778665 301.725871 340.527066 317.16975 325.083187 
C 332.613628 309.639309 344.865227 291.303496 353.223394 271.125096 
C 361.581561 250.946696 365.88375 229.31813 365.88375 207.477188 
M 199.56375 207.477187 
C 199.56375 207.477187 199.56375 207.477187 199.56375 207.477187 
C 199.56375 207.477187 199.56375 207.477187 199.56375 207.477187 
C 199.56375 207.477187 199.56375 207.477187 199.56375 207.477187 
C 199.56375 207.477187 199.56375 207.477187 199.56375 207.477187 
C 199.56375 207.477187 199.56375 207.477187 199.56375 207.477187 
C 199.56375 207.477187 199.56375 207.477187 199.56375 207.477187 
C 199.56375 207.477187 199.56375 207.477187 199.56375 207.477187 
C 199.56375 207.477187 199.56375 207.477187 199.56375 207.477187 
C 199.56375 207.477187 199.56375 207.477187 199.56375 207.477187 
C 199.56375 207.477187 199.56375 207.477187 199.56375 207.477187 
C 199.56375 207.477187 199.56375 207.477187 199.56375 207.477187 
C 199.56375 207.477187 199.56375 207.477187 199.56375 207.477187 
C 199.56375 207.477187 199.56375 207.477187 199.56375 207.477187 
C 199.56375 207.477187 199.56375 207.477187 199.56375 207.477187 
C 199.56375 207.477187 199.56375 207.477187 199.56375 207.477187 
C 199.56375 207.477187 199.56375 207.477187 199.56375 207.477187 
M 365.88375 207.477187 
z
" style="fill: #ffffff"/>
   </g>
   <g id="matplotlib.axis_1">
    <g id="xtick_1">
     <g id="line2d_1">
      <path d="M 199.56375 207.477187 
L 365.88375 207.477187 
" clip-path="url(#pa436a43d00)" style="fill: none; stroke: #b0b0b0; stroke-width: 0.8; stroke-linecap: square"/>
     </g>
     <g id="text_1">
      <!-- 0° -->
      <g transform="translate(374.2025 210.236562)scale(0.1 -0.1)">
       <defs>
        <path id="DejaVuSans-30" d="M 2034 4250 
Q 1547 4250 1301 3770 
Q 1056 3291 1056 2328 
Q 1056 1369 1301 889 
Q 1547 409 2034 409 
Q 2525 409 2770 889 
Q 3016 1369 3016 2328 
Q 3016 3291 2770 3770 
Q 2525 4250 2034 4250 
z
M 2034 4750 
Q 2819 4750 3233 4129 
Q 3647 3509 3647 2328 
Q 3647 1150 3233 529 
Q 2819 -91 2034 -91 
Q 1250 -91 836 529 
Q 422 1150 422 2328 
Q 422 3509 836 4129 
Q 1250 4750 2034 4750 
z
" transform="scale(0.015625)"/>
        <path id="DejaVuSans-b0" d="M 1600 4347 
Q 1350 4347 1178 4173 
Q 1006 4000 1006 3750 
Q 1006 3503 1178 3333 
Q 1350 3163 1600 3163 
Q 1850 3163 2022 3333 
Q 2194 3503 2194 3750 
Q 2194 3997 2020 4172 
Q 1847 4347 1600 4347 
z
M 1600 4750 
Q 1800 4750 1984 4673 
Q 2169 4597 2303 4453 
Q 2447 4313 2519 4134 
Q 2591 3956 2591 3750 
Q 2591 3338 2302 3052 
Q 2013 2766 1594 2766 
Q 1172 2766 890 3047 
Q 609 3328 609 3750 
Q 609 4169 896 4459 
Q 1184 4750 1600 4750 
z
" transform="scale(0.015625)"/>
       </defs>
       <use xlink:href="#DejaVuSans-30"/>
       <use xlink:href="#DejaVuSans-b0" x="63.623047"/>
      </g>
     </g>
    </g>
    <g id="xtick_2">
     <g id="line2d_2">
      <path d="M 199.56375 207.477187 
L 317.16975 89.871188 
" clip-path="url(#pa436a43d00)" style="fill: none; stroke: #b0b0b0; stroke-width: 0.8; stroke-linecap: square"/>
     </g>
     <g id="text_2">
      <!-- 45° -->
      <g transform="translate(318.206745 82.731068)scale(0.1 -0.1)">
       <defs>
        <path id="DejaVuSans-34" d="M 2419 4116 
L 825 1625 
L 2419 1625 
L 2419 4116 
z
M 2253 4666 
L 3047 4666 
L 3047 1625 
L 3713 1625 
L 3713 1100 
L 3047 1100 
L 3047 0 
L 2419 0 
L 2419 1100 
L 313 1100 
L 313 1709 
L 2253 4666 
z
" transform="scale(0.015625)"/>
        <path id="DejaVuSans-35" d="M 691 4666 
L 3169 4666 
L 3169 4134 
L 1269 4134 
L 1269 2991 
Q 1406 3038 1543 3061 
Q 1681 3084 1819 3084 
Q 2600 3084 3056 2656 
Q 3513 2228 3513 1497 
Q 3513 744 3044 326 
Q 2575 -91 1722 -91 
Q 1428 -91 1123 -41 
Q 819 9 494 109 
L 494 744 
Q 775 591 1075 516 
Q 1375 441 1709 441 
Q 2250 441 2565 725 
Q 2881 1009 2881 1497 
Q 2881 1984 2565 2268 
Q 2250 2553 1709 2553 
Q 1456 2553 1204 2497 
Q 953 2441 691 2322 
L 691 4666 
z
" transform="scale(0.015625)"/>
       </defs>
       <use xlink:href="#DejaVuSans-34"/>
       <use xlink:href="#DejaVuSans-35" x="63.623047"/>
       <use xlink:href="#DejaVuSans-b0" x="127.246094"/>
      </g>
     </g>
    </g>
    <g id="xtick_3">
     <g id="line2d_3">
      <path d="M 199.56375 207.477187 
L 199.56375 41.157187 
" clip-path="url(#pa436a43d00)" style="fill: none; stroke: #b0b0b0; stroke-width: 0.8; stroke-linecap: square"/>
     </g>
     <g id="text_3">
      <!-- 90° -->
      <g transform="translate(190.70125 29.916562)scale(0.1 -0.1)">
       <defs>
        <path id="DejaVuSans-39" d="M 703 97 
L 703 672 
Q 941 559 1184 500 
Q 1428 441 1663 441 
Q 2288 441 2617 861 
Q 2947 1281 2994 2138 
Q 2813 1869 2534 1725 
Q 2256 1581 1919 1581 
Q 1219 1581 811 2004 
Q 403 2428 403 3163 
Q 403 3881 828 4315 
Q 1253 4750 1959 4750 
Q 2769 4750 3195 4129 
Q 3622 3509 3622 2328 
Q 3622 1225 3098 567 
Q 2575 -91 1691 -91 
Q 1453 -91 1209 -44 
Q 966 3 703 97 
z
M 1959 2075 
Q 2384 2075 2632 2365 
Q 2881 2656 2881 3163 
Q 2881 3666 2632 3958 
Q 2384 4250 1959 4250 
Q 1534 4250 1286 3958 
Q 1038 3666 1038 3163 
Q 1038 2656 1286 2365 
Q 1534 2075 1959 2075 
z
" transform="scale(0.015625)"/>
       </defs>
       <use xlink:href="#DejaVuSans-39"/>
       <use xlink:href="#DejaVuSans-30" x="63.623047"/>
       <use xlink:href="#DejaVuSans-b0" x="127.246094"/>
      </g>
     </g>
    </g>
    <g id="xtick_4">
     <g id="line2d_4">
      <path d="M 199.56375 207.477187 
L 81.95775 89.871188 
" clip-path="url(#pa436a43d00)" style="fill: none; stroke: #b0b0b0; stroke-width: 0.8; stroke-linecap: square"/>
     </g>
     <g id="text_4">
      <!-- 135° -->
      <g transform="translate(60.014505 82.731068)scale(0.1 -0.1)">
       <defs>
        <path id="DejaVuSans-31" d="M 794 531 
L 1825 531 
L 1825 4091 
L 703 3866 
L 703 4441 
L 1819 4666 
L 2450 4666 
L 2450 531 
L 3481 531 
L 3481 0 
L 794 0 
L 794 531 
z
" transform="scale(0.015625)"/>
        <path id="DejaVuSans-33" d="M 2597 2516 
Q 3050 2419 3304 2112 
Q 3559 1806 3559 1356 
Q 3559 666 3084 287 
Q 2609 -91 1734 -91 
Q 1441 -91 1130 -33 
Q 819 25 488 141 
L 488 750 
Q 750 597 1062 519 
Q 1375 441 1716 441 
Q 2309 441 2620 675 
Q 2931 909 2931 1356 
Q 2931 1769 2642 2001 
Q 2353 2234 1838 2234 
L 1294 2234 
L 1294 2753 
L 1863 2753 
Q 2328 2753 2575 2939 
Q 2822 3125 2822 3475 
Q 2822 3834 2567 4026 
Q 2313 4219 1838 4219 
Q 1578 4219 1281 4162 
Q 984 4106 628 3988 
L 628 4550 
Q 988 4650 1302 4700 
Q 1616 4750 1894 4750 
Q 2613 4750 3031 4423 
Q 3450 4097 3450 3541 
Q 3450 3153 3228 2886 
Q 3006 2619 2597 2516 
z
" transform="scale(0.015625)"/>
       </defs>
       <use xlink:href="#DejaVuSans-31"/>
       <use xlink:href="#DejaVuSans-33" x="63.623047"/>
       <use xlink:href="#DejaVuSans-35" x="127.246094"/>
       <use xlink:href="#DejaVuSans-b0" x="190.869141"/>
      </g>
     </g>
    </g>
    <g id="xtick_5">
     <g id="line2d_5">
      <path d="M 199.56375 207.477187 
L 33.24375 207.477187 
" clip-path="url(#pa436a43d00)" style="fill: none; stroke: #b0b0b0; stroke-width: 0.8; stroke-linecap: square"/>
     </g>
     <g id="text_5">
      <!-- 180° -->
      <g transform="translate(7.2 210.236562)scale(0.1 -0.1)">
       <defs>
        <path id="DejaVuSans-38" d="M 2034 2216 
Q 1584 2216 1326 1975 
Q 1069 1734 1069 1313 
Q 1069 891 1326 650 
Q 1584 409 2034 409 
Q 2484 409 2743 651 
Q 3003 894 3003 1313 
Q 3003 1734 2745 1975 
Q 2488 2216 2034 2216 
z
M 1403 2484 
Q 997 2584 770 2862 
Q 544 3141 544 3541 
Q 544 4100 942 4425 
Q 1341 4750 2034 4750 
Q 2731 4750 3128 4425 
Q 3525 4100 3525 3541 
Q 3525 3141 3298 2862 
Q 3072 2584 2669 2484 
Q 3125 2378 3379 2068 
Q 3634 1759 3634 1313 
Q 3634 634 3220 271 
Q 2806 -91 2034 -91 
Q 1263 -91 848 271 
Q 434 634 434 1313 
Q 434 1759 690 2068 
Q 947 2378 1403 2484 
z
M 1172 3481 
Q 1172 3119 1398 2916 
Q 1625 2713 2034 2713 
Q 2441 2713 2670 2916 
Q 2900 3119 2900 3481 
Q 2900 3844 2670 4047 
Q 2441 4250 2034 4250 
Q 1625 4250 1398 4047 
Q 1172 3844 1172 3481 
z
" transform="scale(0.015625)"/>
       </defs>
       <use xlink:href="#DejaVuSans-31"/>
       <use xlink:href="#DejaVuSans-38" x="63.623047"/>
       <use xlink:href="#DejaVuSans-30" x="127.246094"/>
       <use xlink:href="#DejaVuSans-b0" x="190.869141"/>
      </g>
     </g>
    </g>
    <g id="xtick_6">
     <g id="line2d_6">
      <path d="M 199.56375 207.477187 
L 81.95775 325.083187 
" clip-path="url(#pa436a43d00)" style="fill: none; stroke: #b0b0b0; stroke-width: 0.8; stroke-linecap: square"/>
     </g>
     <g id="text_6">
      <!-- 225° -->
      <g transform="translate(60.014505 337.742057)scale(0.1 -0.1)">
       <defs>
        <path id="DejaVuSans-32" d="M 1228 531 
L 3431 531 
L 3431 0 
L 469 0 
L 469 531 
Q 828 903 1448 1529 
Q 2069 2156 2228 2338 
Q 2531 2678 2651 2914 
Q 2772 3150 2772 3378 
Q 2772 3750 2511 3984 
Q 2250 4219 1831 4219 
Q 1534 4219 1204 4116 
Q 875 4013 500 3803 
L 500 4441 
Q 881 4594 1212 4672 
Q 1544 4750 1819 4750 
Q 2544 4750 2975 4387 
Q 3406 4025 3406 3419 
Q 3406 3131 3298 2873 
Q 3191 2616 2906 2266 
Q 2828 2175 2409 1742 
Q 1991 1309 1228 531 
z
" transform="scale(0.015625)"/>
       </defs>
       <use xlink:href="#DejaVuSans-32"/>
       <use xlink:href="#DejaVuSans-32" x="63.623047"/>
       <use xlink:href="#DejaVuSans-35" x="127.246094"/>
       <use xlink:href="#DejaVuSans-b0" x="190.869141"/>
      </g>
     </g>
    </g>
    <g id="xtick_7">
     <g id="line2d_7">
      <path d="M 199.56375 207.477187 
L 199.56375 373.797188 
" clip-path="url(#pa436a43d00)" style="fill: none; stroke: #b0b0b0; stroke-width: 0.8; stroke-linecap: square"/>
     </g>
     <g id="text_7">
      <!-- 270° -->
      <g transform="translate(187.52 390.556562)scale(0.1 -0.1)">
       <defs>
        <path id="DejaVuSans-37" d="M 525 4666 
L 3525 4666 
L 3525 4397 
L 1831 0 
L 1172 0 
L 2766 4134 
L 525 4134 
L 525 4666 
z
" transform="scale(0.015625)"/>
       </defs>
       <use xlink:href="#DejaVuSans-32"/>
       <use xlink:href="#DejaVuSans-37" x="63.623047"/>
       <use xlink:href="#DejaVuSans-30" x="127.246094"/>
       <use xlink:href="#DejaVuSans-b0" x="190.869141"/>
      </g>
     </g>
    </g>
    <g id="xtick_8">
     <g id="line2d_8">
      <path d="M 199.56375 207.477187 
L 317.16975 325.083187 
" clip-path="url(#pa436a43d00)" style="fill: none; stroke: #b0b0b0; stroke-width: 0.8; stroke-linecap: square"/>
     </g>
     <g id="text_8">
      <!-- 315° -->
      <g transform="translate(315.025495 337.742057)scale(0.1 -0.1)">
       <use xlink:href="#DejaVuSans-33"/>
       <use xlink:href="#DejaVuSans-31" x="63.623047"/>
       <use xlink:href="#DejaVuSans-35" x="127.246094"/>
       <use xlink:href="#DejaVuSans-b0" x="190.869141"/>
      </g>
     </g>
    </g>
   </g>
   <g id="matplotlib.axis_2">
    <g id="ytick_1">
     <g id="line2d_9">
      <path d="M 266.689495 207.477187 
C 266.689495 198.662315 264.953157 189.933157 261.579852 181.789277 
C 258.206546 173.645397 253.261875 166.245174 247.028819 160.012118 
C 240.795763 153.779063 233.39554 148.834391 225.25166 145.461086 
C 217.107781 142.08778 208.378622 140.351443 199.56375 140.351443 
C 190.748878 140.351443 182.019719 142.08778 173.87584 145.461086 
C 165.73196 148.834391 158.331737 153.779063 152.098681 160.012118 
C 145.865625 166.245174 140.920954 173.645397 137.547648 181.789277 
C 134.174343 189.933157 132.438005 198.662315 132.438005 207.477187 
C 132.438005 216.29206 134.174343 225.021218 137.547648 233.165098 
C 140.920954 241.308978 145.865625 248.709201 152.098681 254.942257 
C 158.331737 261.175312 165.73196 266.119984 173.87584 269.493289 
C 182.019719 272.866595 190.748878 274.602932 199.56375 274.602932 
C 208.378622 274.602932 217.107781 272.866595 225.25166 269.493289 
C 233.39554 266.119984 240.795763 261.175312 247.028819 254.942257 
C 253.261875 248.709201 258.206546 241.308978 261.579852 233.165098 
C 264.953157 225.021218 266.689495 216.29206 266.689495 207.477188 
" clip-path="url(#pa436a43d00)" style="fill: none; stroke: #b0b0b0; stroke-width: 0.8; stroke-linecap: square"/>
     </g>
     <g id="text_9">
      <!-- −30 -->
      <g transform="translate(261.579852 179.70959)scale(0.1 -0.1)">
       <defs>
        <path id="DejaVuSans-2212" d="M 678 2272 
L 4684 2272 
L 4684 1741 
L 678 1741 
L 678 2272 
z
" transform="scale(0.015625)"/>
       </defs>
       <use xlink:href="#DejaVuSans-2212"/>
       <use xlink:href="#DejaVuSans-33" x="83.789062"/>
       <use xlink:href="#DejaVuSans-30" x="147.412109"/>
      </g>
     </g>
    </g>
    <g id="ytick_2">
     <g id="line2d_10">
      <path d="M 276.60892 207.477187 
C 276.60892 197.359708 274.615997 187.340609 270.744206 177.993277 
C 266.872414 168.645946 261.19705 160.152163 254.042912 152.998025 
C 246.888774 145.843887 238.394992 140.168523 229.04766 136.296732 
C 219.700328 132.42494 209.681229 130.432017 199.56375 130.432017 
C 189.446271 130.432017 179.427172 132.42494 170.07984 136.296732 
C 160.732508 140.168523 152.238726 145.843887 145.084588 152.998025 
C 137.93045 160.152163 132.255086 168.645946 128.383294 177.993277 
C 124.511503 187.340609 122.51858 197.359708 122.51858 207.477187 
C 122.51858 217.594667 124.511503 227.613766 128.383294 236.961098 
C 132.255086 246.308429 137.93045 254.802212 145.084588 261.95635 
C 152.238726 269.110488 160.732508 274.785852 170.07984 278.657643 
C 179.427172 282.529435 189.446271 284.522358 199.56375 284.522358 
C 209.681229 284.522358 219.700328 282.529435 229.04766 278.657643 
C 238.394992 274.785852 246.888774 269.110488 254.042912 261.95635 
C 261.19705 254.802212 266.872414 246.308429 270.744206 236.961098 
C 274.615997 227.613766 276.60892 217.594667 276.60892 207.477188 
" clip-path="url(#pa436a43d00)" style="fill: none; stroke: #b0b0b0; stroke-width: 0.8; stroke-linecap: square"/>
     </g>
     <g id="text_10">
      <!-- −27 -->
      <g transform="translate(270.744206 175.91359)scale(0.1 -0.1)">
       <use xlink:href="#DejaVuSans-2212"/>
       <use xlink:href="#DejaVuSans-32" x="83.789062"/>
       <use xlink:href="#DejaVuSans-37" x="147.412109"/>
      </g>
     </g>
    </g>
    <g id="ytick_3">
     <g id="line2d_11">
      <path d="M 286.528346 207.477187 
C 286.528346 196.057101 284.278838 184.748061 279.90856 174.197278 
C 275.538282 163.646494 269.132226 154.059152 261.057005 145.983932 
C 252.981785 137.908712 243.394444 131.502655 232.84366 127.132378 
C 222.292876 122.7621 210.983836 120.512592 199.56375 120.512592 
C 188.143664 120.512592 176.834624 122.7621 166.28384 127.132378 
C 155.733056 131.502655 146.145715 137.908712 138.070495 145.983932 
C 129.995274 154.059152 123.589218 163.646494 119.21894 174.197278 
C 114.848662 184.748061 112.599154 196.057101 112.599154 207.477187 
C 112.599154 218.897274 114.848662 230.206314 119.21894 240.757097 
C 123.589218 251.307881 129.995274 260.895223 138.070495 268.970443 
C 146.145715 277.045663 155.733056 283.45172 166.28384 287.821997 
C 176.834624 292.192275 188.143664 294.441783 199.56375 294.441783 
C 210.983836 294.441783 222.292876 292.192275 232.84366 287.821997 
C 243.394444 283.45172 252.981785 277.045663 261.057005 268.970443 
C 269.132226 260.895223 275.538282 251.307881 279.90856 240.757097 
C 284.278838 230.206314 286.528346 218.897274 286.528346 207.477188 
" clip-path="url(#pa436a43d00)" style="fill: none; stroke: #b0b0b0; stroke-width: 0.8; stroke-linecap: square"/>
     </g>
     <g id="text_11">
      <!-- −24 -->
      <g transform="translate(279.90856 172.11759)scale(0.1 -0.1)">
       <use xlink:href="#DejaVuSans-2212"/>
       <use xlink:href="#DejaVuSans-32" x="83.789062"/>
       <use xlink:href="#DejaVuSans-34" x="147.412109"/>
      </g>
     </g>
    </g>
    <g id="ytick_4">
     <g id="line2d_12">
      <path d="M 296.447771 207.477187 
C 296.447771 194.754494 293.941678 182.155513 289.072914 170.401278 
C 284.20415 158.647042 277.067401 147.966142 268.071098 138.969839 
C 259.074796 129.973537 248.393896 122.836787 236.63966 117.968023 
C 224.885424 113.099259 212.286443 110.593166 199.56375 110.593166 
C 186.841057 110.593166 174.242076 113.099259 162.48784 117.968023 
C 150.733604 122.836787 140.052704 129.973537 131.056402 138.969839 
C 122.060099 147.966142 114.92335 158.647042 110.054586 170.401278 
C 105.185822 182.155513 102.679729 194.754494 102.679729 207.477187 
C 102.679729 220.199881 105.185822 232.798862 110.054586 244.553097 
C 114.92335 256.307333 122.060099 266.988233 131.056402 275.984536 
C 140.052704 284.980838 150.733604 292.117588 162.48784 296.986352 
C 174.242076 301.855116 186.841057 304.361209 199.56375 304.361209 
C 212.286443 304.361209 224.885424 301.855116 236.63966 296.986352 
C 248.393896 292.117588 259.074796 284.980838 268.071098 275.984536 
C 277.067401 266.988233 284.20415 256.307333 289.072914 244.553097 
C 293.941678 232.798862 296.447771 220.199881 296.447771 207.477188 
" clip-path="url(#pa436a43d00)" style="fill: none; stroke: #b0b0b0; stroke-width: 0.8; stroke-linecap: square"/>
     </g>
     <g id="text_12">
      <!-- −21 -->
      <g transform="translate(289.072914 168.32159)scale(0.1 -0.1)">
       <use xlink:href="#DejaVuSans-2212"/>
       <use xlink:href="#DejaVuSans-32" x="83.789062"/>
       <use xlink:href="#DejaVuSans-31" x="147.412109"/>
      </g>
     </g>
    </g>
    <g id="ytick_5">
     <g id="line2d_13">
      <path d="M 306.367197 207.477187 
C 306.367197 193.451887 303.604518 179.562966 298.237268 166.605278 
C 292.870018 153.64759 285.002576 141.873131 275.085191 131.955746 
C 265.167807 122.038361 253.393347 114.170919 240.43566 108.803669 
C 227.477972 103.436419 213.58905 100.673741 199.56375 100.673741 
C 185.53845 100.673741 171.649528 103.436419 158.69184 108.803669 
C 145.734153 114.170919 133.959693 122.038361 124.042309 131.955746 
C 114.124924 141.873131 106.257482 153.64759 100.890232 166.605278 
C 95.522982 179.562966 92.760303 193.451887 92.760303 207.477187 
C 92.760303 221.502488 95.522982 235.391409 100.890232 248.349097 
C 106.257482 261.306785 114.124924 273.081244 124.042309 282.998629 
C 133.959693 292.916014 145.734153 300.783456 158.69184 306.150706 
C 171.649528 311.517956 185.53845 314.280634 199.56375 314.280634 
C 213.58905 314.280634 227.477972 311.517956 240.43566 306.150706 
C 253.393347 300.783456 265.167807 292.916014 275.085191 282.998629 
C 285.002576 273.081244 292.870018 261.306785 298.237268 248.349097 
C 303.604518 235.391409 306.367197 221.502488 306.367197 207.477188 
" clip-path="url(#pa436a43d00)" style="fill: none; stroke: #b0b0b0; stroke-width: 0.8; stroke-linecap: square"/>
     </g>
     <g id="text_13">
      <!-- −18 -->
      <g transform="translate(298.237268 164.52559)scale(0.1 -0.1)">
       <use xlink:href="#DejaVuSans-2212"/>
       <use xlink:href="#DejaVuSans-31" x="83.789062"/>
       <use xlink:href="#DejaVuSans-38" x="147.412109"/>
      </g>
     </g>
    </g>
    <g id="ytick_6">
     <g id="line2d_14">
      <path d="M 316.286622 207.477187 
C 316.286622 192.14928 313.267359 176.970418 307.401623 162.809278 
C 301.535887 148.648138 292.937752 135.78012 282.099285 124.941653 
C 271.260817 114.103186 258.392799 105.505051 244.231659 99.639315 
C 230.07052 93.773579 214.891657 90.754315 199.56375 90.754315 
C 184.235843 90.754315 169.05698 93.773579 154.895841 99.639315 
C 140.734701 105.505051 127.866683 114.103186 117.028215 124.941653 
C 106.189748 135.78012 97.591613 148.648138 91.725877 162.809278 
C 85.860141 176.970418 82.840878 192.14928 82.840878 207.477187 
C 82.840878 222.805095 85.860141 237.983957 91.725877 252.145097 
C 97.591613 266.306237 106.189748 279.174255 117.028215 290.012722 
C 127.866683 300.851189 140.734701 309.449324 154.895841 315.31506 
C 169.05698 321.180796 184.235843 324.20006 199.56375 324.20006 
C 214.891657 324.20006 230.07052 321.180796 244.231659 315.31506 
C 258.392799 309.449324 271.260817 300.851189 282.099285 290.012722 
C 292.937752 279.174255 301.535887 266.306237 307.401623 252.145097 
C 313.267359 237.983957 316.286622 222.805095 316.286622 207.477188 
" clip-path="url(#pa436a43d00)" style="fill: none; stroke: #b0b0b0; stroke-width: 0.8; stroke-linecap: square"/>
     </g>
     <g id="text_14">
      <!-- −15 -->
      <g transform="translate(307.401623 160.729591)scale(0.1 -0.1)">
       <use xlink:href="#DejaVuSans-2212"/>
       <use xlink:href="#DejaVuSans-31" x="83.789062"/>
       <use xlink:href="#DejaVuSans-35" x="147.412109"/>
      </g>
     </g>
    </g>
    <g id="ytick_7">
     <g id="line2d_15">
      <path d="M 326.206048 207.477187 
C 326.206048 190.846673 322.930199 174.37787 316.565977 159.013278 
C 310.201755 143.648687 300.872927 129.687109 289.113378 117.92756 
C 277.353828 106.168011 263.392251 96.839183 248.027659 90.474961 
C 232.663068 84.110738 216.194264 80.83489 199.56375 80.83489 
C 182.933236 80.83489 166.464432 84.110738 151.099841 90.474961 
C 135.735249 96.839183 121.773672 106.168011 110.014122 117.92756 
C 98.254573 129.687109 88.925745 143.648687 82.561523 159.013278 
C 76.197301 174.37787 72.921452 190.846673 72.921452 207.477187 
C 72.921452 224.107702 76.197301 240.576505 82.561523 255.941097 
C 88.925745 271.305688 98.254573 285.267266 110.014122 297.026815 
C 121.773672 308.786364 135.735249 318.115192 151.099841 324.479414 
C 166.464432 330.843637 182.933236 334.119485 199.56375 334.119485 
C 216.194264 334.119485 232.663068 330.843637 248.027659 324.479414 
C 263.392251 318.115192 277.353828 308.786364 289.113378 297.026815 
C 300.872927 285.267266 310.201755 271.305688 316.565977 255.941097 
C 322.930199 240.576505 326.206048 224.107702 326.206048 207.477188 
" clip-path="url(#pa436a43d00)" style="fill: none; stroke: #b0b0b0; stroke-width: 0.8; stroke-linecap: square"/>
     </g>
     <g id="text_15">
      <!-- −12 -->
      <g transform="translate(316.565977 156.933591)scale(0.1 -0.1)">
       <use xlink:href="#DejaVuSans-2212"/>
       <use xlink:href="#DejaVuSans-31" x="83.789062"/>
       <use xlink:href="#DejaVuSans-32" x="147.412109"/>
      </g>
     </g>
    </g>
    <g id="ytick_8">
     <g id="line2d_16">
      <path d="M 336.125473 207.477187 
C 336.125473 189.544066 332.59304 171.785322 325.730331 155.217278 
C 318.867623 138.649235 308.808102 123.594098 296.127471 110.913467 
C 283.446839 98.232835 268.391703 88.173315 251.823659 81.310606 
C 235.255615 74.447898 217.496871 70.915464 199.56375 70.915464 
C 181.630629 70.915464 163.871885 74.447898 147.303841 81.310606 
C 130.735797 88.173315 115.680661 98.232835 103.000029 110.913467 
C 90.319398 123.594098 80.259877 138.649235 73.397169 155.217278 
C 66.53446 171.785322 63.002027 189.544066 63.002027 207.477187 
C 63.002027 225.410309 66.53446 243.169053 73.397169 259.737097 
C 80.259877 276.30514 90.319398 291.360277 103.000029 304.040908 
C 115.680661 316.72154 130.735797 326.78106 147.303841 333.643769 
C 163.871885 340.506477 181.630629 344.038911 199.56375 344.038911 
C 217.496871 344.038911 235.255615 340.506477 251.823659 333.643769 
C 268.391703 326.78106 283.446839 316.72154 296.127471 304.040908 
C 308.808102 291.360277 318.867623 276.30514 325.730331 259.737097 
C 332.59304 243.169053 336.125473 225.410309 336.125473 207.477188 
" clip-path="url(#pa436a43d00)" style="fill: none; stroke: #b0b0b0; stroke-width: 0.8; stroke-linecap: square"/>
     </g>
     <g id="text_16">
      <!-- −9 -->
      <g transform="translate(325.730331 153.137591)scale(0.1 -0.1)">
       <use xlink:href="#DejaVuSans-2212"/>
       <use xlink:href="#DejaVuSans-39" x="83.789062"/>
      </g>
     </g>
    </g>
    <g id="ytick_9">
     <g id="line2d_17">
      <path d="M 346.044899 207.477187 
C 346.044899 188.241459 342.25588 169.192774 334.894685 151.421279 
C 327.533491 133.649783 316.743278 117.501088 303.141564 103.899374 
C 289.53985 90.29766 273.391154 79.507447 255.619659 72.146252 
C 237.848163 64.785058 218.799478 60.996039 199.56375 60.996039 
C 180.328022 60.996039 161.279337 64.785058 143.507841 72.146252 
C 125.736346 79.507447 109.58765 90.29766 95.985936 103.899374 
C 82.384222 117.501088 71.594009 133.649783 64.232815 151.421279 
C 56.87162 169.192774 53.082601 188.241459 53.082601 207.477187 
C 53.082601 226.712916 56.87162 245.761601 64.232815 263.533096 
C 71.594009 281.304592 82.384222 297.453287 95.985936 311.055001 
C 109.58765 324.656715 125.736346 335.446928 143.507841 342.808123 
C 161.279337 350.169317 180.328022 353.958336 199.56375 353.958336 
C 218.799478 353.958336 237.848163 350.169317 255.619659 342.808123 
C 273.391154 335.446928 289.53985 324.656715 303.141564 311.055001 
C 316.743278 297.453287 327.533491 281.304592 334.894685 263.533096 
C 342.25588 245.761601 346.044899 226.712916 346.044899 207.477188 
" clip-path="url(#pa436a43d00)" style="fill: none; stroke: #b0b0b0; stroke-width: 0.8; stroke-linecap: square"/>
     </g>
     <g id="text_17">
      <!-- −6 -->
      <g transform="translate(334.894685 149.341591)scale(0.1 -0.1)">
       <defs>
        <path id="DejaVuSans-36" d="M 2113 2584 
Q 1688 2584 1439 2293 
Q 1191 2003 1191 1497 
Q 1191 994 1439 701 
Q 1688 409 2113 409 
Q 2538 409 2786 701 
Q 3034 994 3034 1497 
Q 3034 2003 2786 2293 
Q 2538 2584 2113 2584 
z
M 3366 4563 
L 3366 3988 
Q 3128 4100 2886 4159 
Q 2644 4219 2406 4219 
Q 1781 4219 1451 3797 
Q 1122 3375 1075 2522 
Q 1259 2794 1537 2939 
Q 1816 3084 2150 3084 
Q 2853 3084 3261 2657 
Q 3669 2231 3669 1497 
Q 3669 778 3244 343 
Q 2819 -91 2113 -91 
Q 1303 -91 875 529 
Q 447 1150 447 2328 
Q 447 3434 972 4092 
Q 1497 4750 2381 4750 
Q 2619 4750 2861 4703 
Q 3103 4656 3366 4563 
z
" transform="scale(0.015625)"/>
       </defs>
       <use xlink:href="#DejaVuSans-2212"/>
       <use xlink:href="#DejaVuSans-36" x="83.789062"/>
      </g>
     </g>
    </g>
    <g id="ytick_10">
     <g id="line2d_18">
      <path d="M 355.964324 207.477187 
C 355.964324 186.938852 351.91872 166.600226 344.05904 147.625279 
C 336.199359 128.650331 324.678453 111.408077 310.155657 96.885281 
C 295.632861 82.362485 278.390606 70.841579 259.415659 62.981898 
C 240.440711 55.122217 220.102085 51.076613 199.56375 51.076613 
C 179.025415 51.076613 158.686789 55.122217 139.711841 62.981898 
C 120.736894 70.841579 103.494639 82.362485 88.971843 96.885281 
C 74.449047 111.408077 62.928141 128.650331 55.06846 147.625279 
C 47.20878 166.600226 43.163176 186.938852 43.163176 207.477187 
C 43.163176 228.015523 47.20878 248.354149 55.06846 267.329096 
C 62.928141 286.304044 74.449047 303.546298 88.971843 318.069094 
C 103.494639 332.59189 120.736894 344.112796 139.711841 351.972477 
C 158.686789 359.832158 179.025415 363.877762 199.56375 363.877762 
C 220.102085 363.877762 240.440711 359.832158 259.415659 351.972477 
C 278.390606 344.112796 295.632861 332.59189 310.155657 318.069094 
C 324.678453 303.546298 336.199359 286.304044 344.05904 267.329096 
C 351.91872 248.354149 355.964324 228.015523 355.964324 207.477188 
" clip-path="url(#pa436a43d00)" style="fill: none; stroke: #b0b0b0; stroke-width: 0.8; stroke-linecap: square"/>
     </g>
     <g id="text_18">
      <!-- −3 -->
      <g transform="translate(344.05904 145.545591)scale(0.1 -0.1)">
       <use xlink:href="#DejaVuSans-2212"/>
       <use xlink:href="#DejaVuSans-33" x="83.789062"/>
      </g>
     </g>
    </g>
   </g>
   <g id="line2d_19">
    <path d="M 334.042394 207.477187 
L 334.400882 198.048457 
L 335.045249 193.237508 
L 335.698292 190.761968 
L 336.102908 188.28786 
L 337.228887 183.20311 
L 338.279542 175.452123 
L 338.066136 167.762267 
L 337.042086 160.1396 
L 336.546092 157.619693 
L 336.179862 155.035176 
L 335.091262 149.949172 
L 334.565019 147.37075 
L 333.870042 144.849135 
L 333.050788 142.371209 
L 332.333169 139.82779 
L 329.475492 132.472609 
L 324.930254 122.916412 
L 322.39228 118.237037 
L 318.14449 111.452397 
L 315.05792 107.079637 
L 311.653015 102.952257 
L 309.880707 100.94534 
L 308.009344 99.031593 
L 304.041325 95.438705 
L 300.002516 91.935604 
L 295.736279 88.714004 
L 291.290152 85.75214 
L 289.039064 84.324983 
L 282.064164 80.437691 
L 274.817968 77.133059 
L 267.247673 74.640008 
L 264.546524 74.242756 
L 261.933288 73.725282 
L 259.282867 73.345855 
L 256.574989 73.167126 
L 253.969592 72.818004 
L 251.307835 72.679237 
L 248.587786 72.784757 
L 245.973409 72.693751 
L 243.286061 72.91375 
L 240.569393 73.353772 
L 237.95898 73.577107 
L 235.326145 74.010113 
L 232.69941 74.577315 
L 225.249352 75.33622 
L 208.786281 75.588843 
L 199.56375 74.916299 
L 192.612205 74.833814 
L 187.981778 75.094638 
L 183.380032 75.671378 
L 174.310949 77.562788 
L 172.059163 78.078279 
L 167.634353 79.415369 
L 165.480393 80.276368 
L 163.386838 81.313303 
L 159.458459 84.045792 
L 157.602119 85.611762 
L 155.887651 87.478092 
L 154.153141 89.178506 
L 152.633025 91.319566 
L 149.761665 95.619873 
L 148.591217 98.166239 
L 145.026466 104.907475 
L 143.914743 107.083721 
L 142.65055 108.900633 
L 141.492282 110.830035 
L 140.196373 112.469525 
L 138.815627 113.933282 
L 136.79109 114.412891 
L 134.495605 114.550246 
L 132.001369 114.485547 
L 129.027648 113.872619 
L 126.521286 113.987097 
L 121.194666 114.08055 
L 116.465161 115.186854 
L 114.292101 116.034539 
L 110.544855 118.458293 
L 105.26835 122.573228 
L 102.236041 125.809543 
L 100.882099 127.566362 
L 98.68414 131.458949 
L 97.760678 133.512926 
L 96.688466 135.443138 
L 95.45245 137.253229 
L 92.568774 140.619306 
L 90.990274 142.239661 
L 89.072208 143.684866 
L 85.707466 146.938727 
L 83.937634 148.562739 
L 79.031228 153.812651 
L 74.949352 159.642202 
L 73.850752 161.721398 
L 71.92482 166.004785 
L 70.440786 170.451774 
L 69.753588 172.694659 
L 68.004382 179.513381 
L 67.349563 184.164259 
L 67.227361 186.517163 
L 67.241886 188.880562 
L 67.778369 193.625986 
L 68.671529 198.324312 
L 70.91418 205.231601 
L 72.881233 209.688439 
L 74.274121 211.852398 
L 75.340333 213.987461 
L 77.118785 216.039374 
L 78.676887 218.053418 
L 80.474735 219.993947 
L 83.044701 221.783928 
L 85.165386 223.554829 
L 87.390206 225.243732 
L 90.110698 226.776714 
L 94.363281 229.838237 
L 99.445865 232.43938 
L 109.107526 235.13243 
L 112.327216 235.822056 
L 114.329576 236.825667 
L 116.819528 239.239718 
L 117.334346 240.700023 
L 118.048433 242.078387 
L 117.7676 243.89518 
L 117.079118 245.940403 
L 116.101698 248.18435 
L 114.367808 250.886688 
L 112.80274 255.569601 
L 112.432571 257.782397 
L 112.564223 259.751777 
L 112.384995 261.95252 
L 111.96525 264.364319 
L 112.096968 266.474277 
L 111.923812 268.843333 
L 112.122724 271.006812 
L 112.782669 272.871422 
L 114.976431 275.974648 
L 116.3418 277.308695 
L 117.29621 278.991269 
L 118.3578 280.595353 
L 121.122108 285.91883 
L 122.282551 287.504212 
L 123.546664 288.995531 
L 126.41189 291.628776 
L 128.127594 292.611482 
L 129.975934 293.410984 
L 132.068485 293.867187 
L 134.215282 294.197533 
L 136.11964 294.800514 
L 137.795543 295.691329 
L 140.400363 298.580815 
L 141.307246 300.707083 
L 142.382931 302.642052 
L 143.659025 304.307012 
L 144.515872 306.786188 
L 145.537172 309.086403 
L 146.763316 311.103875 
L 147.673978 313.866987 
L 150.278093 318.174586 
L 151.556061 320.576216 
L 156.377323 326.130921 
L 158.186649 327.645014 
L 165.529172 334.49596 
L 167.509567 336.039494 
L 173.876255 339.627892 
L 176.093501 340.583585 
L 178.276308 341.880807 
L 182.808234 343.939913 
L 185.113933 344.958011 
L 187.475448 345.647107 
L 194.690613 347.025565 
L 199.56375 347.804986 
L 206.954489 348.500895 
L 211.926397 348.782893 
L 214.443173 349.045445 
L 235.095136 349.985795 
L 240.486259 350.190938 
L 243.336145 350.650241 
L 251.848116 351.127302 
L 260.342294 350.662463 
L 268.847082 349.529069 
L 277.286218 347.692232 
L 282.818599 346.036525 
L 285.507964 345.01668 
L 293.403943 341.494872 
L 301.170727 337.528187 
L 306.251148 334.622277 
L 308.601395 332.910649 
L 310.853552 331.077035 
L 312.968912 329.089335 
L 314.947737 326.960803 
L 316.788651 324.702088 
L 320.211034 319.9826 
L 324.961134 312.698086 
L 327.988894 307.813907 
L 330.906788 302.90349 
L 333.671916 297.934288 
L 336.093785 292.790622 
L 337.289832 290.231366 
L 340.372344 282.346445 
L 341.87121 276.885173 
L 342.323688 274.04724 
L 342.876858 268.309993 
L 342.117069 259.362352 
L 341.393943 256.313239 
L 340.580321 250.59028 
L 339.871461 247.709776 
L 339.165675 242.283857 
L 338.305316 239.508202 
L 337.017971 234.195581 
L 335.978489 231.530787 
L 334.662218 226.464039 
L 333.991741 223.982869 
L 333.687156 221.574126 
L 333.408058 216.836493 
L 333.962405 209.823125 
L 333.962405 209.823125 
" clip-path="url(#pa436a43d00)" style="fill: none; stroke: #ff0000; stroke-width: 1.5; stroke-linecap: square"/>
   </g>
   <g id="line2d_20">
    <path d="M 330.749145 207.477187 
L 329.889377 202.926116 
L 329.63491 200.660447 
L 329.465998 196.112213 
L 329.705672 191.497769 
L 330.237864 186.780441 
L 332.267504 171.919324 
L 332.738566 166.76156 
L 332.99661 161.532569 
L 333.000395 156.255658 
L 332.729408 150.951719 
L 332.164928 145.644243 
L 331.302037 140.353178 
L 330.128496 135.103967 
L 328.645515 129.917039 
L 326.852821 124.814698 
L 324.748997 119.821534 
L 322.334502 114.96279 
L 319.616879 110.26008 
L 316.595104 105.743383 
L 313.282883 101.43238 
L 309.681036 97.359901 
L 305.800233 93.552507 
L 301.655479 90.034088 
L 297.257368 86.835617 
L 292.619396 83.988174 
L 290.216823 82.703936 
L 285.254238 80.435815 
L 282.699859 79.458806 
L 280.100783 78.590993 
L 277.461085 77.834251 
L 274.781597 77.196056 
L 272.066814 76.678197 
L 269.321296 76.282324 
L 266.549658 76.009941 
L 263.753668 75.868352 
L 260.939753 75.855925 
L 258.112834 75.973791 
L 255.277878 76.222927 
L 252.441125 76.601091 
L 249.609824 77.102708 
L 243.99268 78.446205 
L 238.490946 80.152068 
L 225.697552 84.527315 
L 223.35222 85.096118 
L 221.074954 85.481089 
L 218.859792 85.64677 
L 216.684602 85.655993 
L 214.543833 85.474202 
L 210.302801 84.729275 
L 201.737262 82.956776 
L 197.381005 82.42782 
L 195.193156 82.319737 
L 190.823273 82.482543 
L 188.651792 82.752939 
L 184.370099 83.734832 
L 182.26343 84.379017 
L 178.161637 86.099775 
L 174.220521 88.246669 
L 170.45883 90.743731 
L 165.133735 94.861682 
L 160.022153 98.837541 
L 156.552042 101.019474 
L 154.752327 101.908091 
L 152.88982 102.645824 
L 150.969553 103.266595 
L 148.969798 103.744214 
L 144.759472 104.405331 
L 131.142525 106.038549 
L 126.516819 106.936712 
L 121.953244 108.14027 
L 117.511415 109.691022 
L 113.199564 111.560042 
L 109.047982 113.745366 
L 105.07795 116.233311 
L 101.304902 119.004524 
L 97.742664 122.039152 
L 94.403455 125.31696 
L 91.295216 128.815493 
L 88.429515 132.5162 
L 85.811013 136.396589 
L 83.44831 140.437907 
L 81.345816 144.619597 
L 79.50943 148.922783 
L 77.940786 153.327155 
L 76.646237 157.815289 
L 75.627997 162.368262 
L 74.89022 166.968302 
L 74.432842 171.596477 
L 74.261034 176.235712 
L 74.372562 180.866979 
L 74.777052 185.473926 
L 75.483291 190.038816 
L 76.462933 194.53877 
L 77.768573 198.960439 
L 79.362991 203.279685 
L 81.306673 207.477187 
L 83.526612 211.529294 
L 86.146562 215.40809 
L 87.553929 217.276777 
L 90.7209 220.841409 
L 94.258114 224.155962 
L 96.193358 225.704177 
L 98.247442 227.171083 
L 100.417742 228.551322 
L 102.733675 229.832172 
L 105.159774 231.014742 
L 107.788668 232.068247 
L 110.552042 233.000884 
L 113.540647 233.777089 
L 116.71714 234.395683 
L 120.169568 234.814797 
L 123.921191 235.008828 
L 128.0557 234.926556 
L 132.653701 234.510602 
L 137.853311 233.671715 
L 143.847593 232.283619 
L 151.091484 230.080176 
L 160.319709 226.617785 
L 173.180622 220.920063 
L 192.570805 211.195402 
L 191.046212 212.198536 
L 173.691245 222.414685 
L 163.15757 229.352227 
L 156.226316 234.557422 
L 151.298097 238.821269 
L 147.631042 242.506241 
L 144.864661 245.777902 
L 142.759437 248.747937 
L 141.138167 251.504022 
L 139.935231 254.064092 
L 139.061421 256.471007 
L 138.45661 258.752166 
L 138.113075 260.895445 
L 137.948976 262.95538 
L 137.983489 264.90171 
L 138.162596 266.771593 
L 138.93716 270.257859 
L 139.500865 271.886746 
L 140.895925 274.9668 
L 142.579534 277.846833 
L 145.465918 281.936465 
L 152.875574 291.704886 
L 160.862465 303.266229 
L 163.460031 306.67134 
L 166.259273 309.977827 
L 169.282608 313.08008 
L 172.522595 315.933337 
L 175.973531 318.460443 
L 179.608529 320.648869 
L 183.400056 322.487845 
L 187.313118 324.034164 
L 191.321473 325.347243 
L 203.815488 329.231043 
L 208.200435 330.987543 
L 212.774516 333.169233 
L 227.922156 340.892999 
L 233.427327 343.296575 
L 239.103684 345.369323 
L 244.906568 347.028032 
L 247.841107 347.684813 
L 250.791873 348.225298 
L 253.752356 348.643332 
L 256.716867 348.936117 
L 259.682111 349.10717 
L 262.642339 349.154017 
L 265.593297 349.078008 
L 268.530954 348.880911 
L 271.450777 348.563421 
L 274.349117 348.128006 
L 277.221937 347.576266 
L 280.06584 346.910897 
L 282.877011 346.133738 
L 285.652342 345.247734 
L 288.388698 344.255613 
L 293.730144 341.960735 
L 298.881569 339.276385 
L 303.816151 336.218181 
L 308.521133 332.818319 
L 312.973422 329.094171 
L 317.15806 325.071497 
L 321.062242 320.776364 
L 324.670311 316.230662 
L 327.975833 311.463242 
L 330.964206 306.494534 
L 333.627479 301.349621 
L 335.959495 296.05362 
L 337.953319 290.630029 
L 339.605858 285.103796 
L 340.912775 279.498113 
L 341.872387 273.836795 
L 342.48423 268.143332 
L 342.751788 262.441925 
L 342.675739 256.754597 
L 342.268828 251.106508 
L 341.542328 245.520233 
L 340.518645 240.019189 
L 339.231556 234.625859 
L 337.726268 229.359981 
L 335.226109 221.735876 
L 332.007537 212.102226 
L 331.334157 209.777249 
L 331.334157 209.777249 
" clip-path="url(#pa436a43d00)" style="fill: none; stroke-dasharray: 5.55,2.4; stroke-dashoffset: 0; stroke: #0000ff; stroke-width: 1.5"/>
   </g>
   <g id="patch_3">
    <path d="M 365.88375 207.477187 
C 365.88375 185.636245 361.581561 164.007679 353.223394 143.829279 
C 344.865227 123.650879 332.613628 105.315066 317.16975 89.871188 
C 301.725871 74.427309 283.390058 62.17571 263.211658 53.817544 
C 243.033259 45.459377 221.404692 41.157187 199.56375 41.157187 
C 177.722808 41.157187 156.094241 45.459377 135.915842 53.817544 
C 115.737442 62.17571 97.401629 74.427309 81.95775 89.871188 
C 66.513872 105.315066 54.262273 123.650879 45.904106 143.829279 
C 37.545939 164.007679 33.24375 185.636245 33.24375 207.477187 
C 33.24375 229.31813 37.545939 250.946696 45.904106 271.125096 
C 54.262273 291.303496 66.513872 309.639309 81.95775 325.083187 
C 97.401629 340.527066 115.737442 352.778665 135.915842 361.136831 
C 156.094241 369.494998 177.722808 373.797188 199.56375 373.797188 
C 221.404692 373.797188 243.033259 369.494998 263.211658 361.136831 
C 283.390058 352.778665 301.725871 340.527066 317.16975 325.083187 
C 332.613628 309.639309 344.865227 291.303496 353.223394 271.125096 
C 361.581561 250.946696 365.88375 229.31813 365.88375 207.477188 
" style="fill: none; stroke: #000000; stroke-width: 0.8; stroke-linejoin: miter; stroke-linecap: square"/>
   </g>
   <g id="text_19">
    <!-- Radiation Diagram - 4AVVF08 -->
    <g transform="translate(110.727188 16.318125)scale(0.12 -0.12)">
     <defs>
      <path id="DejaVuSans-52" d="M 2841 2188 
Q 3044 2119 3236 1894 
Q 3428 1669 3622 1275 
L 4263 0 
L 3584 0 
L 2988 1197 
Q 2756 1666 2539 1819 
Q 2322 1972 1947 1972 
L 1259 1972 
L 1259 0 
L 628 0 
L 628 4666 
L 2053 4666 
Q 2853 4666 3247 4331 
Q 3641 3997 3641 3322 
Q 3641 2881 3436 2590 
Q 3231 2300 2841 2188 
z
M 1259 4147 
L 1259 2491 
L 2053 2491 
Q 2509 2491 2742 2702 
Q 2975 2913 2975 3322 
Q 2975 3731 2742 3939 
Q 2509 4147 2053 4147 
L 1259 4147 
z
" transform="scale(0.015625)"/>
      <path id="DejaVuSans-61" d="M 2194 1759 
Q 1497 1759 1228 1600 
Q 959 1441 959 1056 
Q 959 750 1161 570 
Q 1363 391 1709 391 
Q 2188 391 2477 730 
Q 2766 1069 2766 1631 
L 2766 1759 
L 2194 1759 
z
M 3341 1997 
L 3341 0 
L 2766 0 
L 2766 531 
Q 2569 213 2275 61 
Q 1981 -91 1556 -91 
Q 1019 -91 701 211 
Q 384 513 384 1019 
Q 384 1609 779 1909 
Q 1175 2209 1959 2209 
L 2766 2209 
L 2766 2266 
Q 2766 2663 2505 2880 
Q 2244 3097 1772 3097 
Q 1472 3097 1187 3025 
Q 903 2953 641 2809 
L 641 3341 
Q 956 3463 1253 3523 
Q 1550 3584 1831 3584 
Q 2591 3584 2966 3190 
Q 3341 2797 3341 1997 
z
" transform="scale(0.015625)"/>
      <path id="DejaVuSans-64" d="M 2906 2969 
L 2906 4863 
L 3481 4863 
L 3481 0 
L 2906 0 
L 2906 525 
Q 2725 213 2448 61 
Q 2172 -91 1784 -91 
Q 1150 -91 751 415 
Q 353 922 353 1747 
Q 353 2572 751 3078 
Q 1150 3584 1784 3584 
Q 2172 3584 2448 3432 
Q 2725 3281 2906 2969 
z
M 947 1747 
Q 947 1113 1208 752 
Q 1469 391 1925 391 
Q 2381 391 2643 752 
Q 2906 1113 2906 1747 
Q 2906 2381 2643 2742 
Q 2381 3103 1925 3103 
Q 1469 3103 1208 2742 
Q 947 2381 947 1747 
z
" transform="scale(0.015625)"/>
      <path id="DejaVuSans-69" d="M 603 3500 
L 1178 3500 
L 1178 0 
L 603 0 
L 603 3500 
z
M 603 4863 
L 1178 4863 
L 1178 4134 
L 603 4134 
L 603 4863 
z
" transform="scale(0.015625)"/>
      <path id="DejaVuSans-74" d="M 1172 4494 
L 1172 3500 
L 2356 3500 
L 2356 3053 
L 1172 3053 
L 1172 1153 
Q 1172 725 1289 603 
Q 1406 481 1766 481 
L 2356 481 
L 2356 0 
L 1766 0 
Q 1100 0 847 248 
Q 594 497 594 1153 
L 594 3053 
L 172 3053 
L 172 3500 
L 594 3500 
L 594 4494 
L 1172 4494 
z
" transform="scale(0.015625)"/>
      <path id="DejaVuSans-6f" d="M 1959 3097 
Q 1497 3097 1228 2736 
Q 959 2375 959 1747 
Q 959 1119 1226 758 
Q 1494 397 1959 397 
Q 2419 397 2687 759 
Q 2956 1122 2956 1747 
Q 2956 2369 2687 2733 
Q 2419 3097 1959 3097 
z
M 1959 3584 
Q 2709 3584 3137 3096 
Q 3566 2609 3566 1747 
Q 3566 888 3137 398 
Q 2709 -91 1959 -91 
Q 1206 -91 779 398 
Q 353 888 353 1747 
Q 353 2609 779 3096 
Q 1206 3584 1959 3584 
z
" transform="scale(0.015625)"/>
      <path id="DejaVuSans-6e" d="M 3513 2113 
L 3513 0 
L 2938 0 
L 2938 2094 
Q 2938 2591 2744 2837 
Q 2550 3084 2163 3084 
Q 1697 3084 1428 2787 
Q 1159 2491 1159 1978 
L 1159 0 
L 581 0 
L 581 3500 
L 1159 3500 
L 1159 2956 
Q 1366 3272 1645 3428 
Q 1925 3584 2291 3584 
Q 2894 3584 3203 3211 
Q 3513 2838 3513 2113 
z
" transform="scale(0.015625)"/>
      <path id="DejaVuSans-20" transform="scale(0.015625)"/>
      <path id="DejaVuSans-44" d="M 1259 4147 
L 1259 519 
L 2022 519 
Q 2988 519 3436 956 
Q 3884 1394 3884 2338 
Q 3884 3275 3436 3711 
Q 2988 4147 2022 4147 
L 1259 4147 
z
M 628 4666 
L 1925 4666 
Q 3281 4666 3915 4102 
Q 4550 3538 4550 2338 
Q 4550 1131 3912 565 
Q 3275 0 1925 0 
L 628 0 
L 628 4666 
z
" transform="scale(0.015625)"/>
      <path id="DejaVuSans-67" d="M 2906 1791 
Q 2906 2416 2648 2759 
Q 2391 3103 1925 3103 
Q 1463 3103 1205 2759 
Q 947 2416 947 1791 
Q 947 1169 1205 825 
Q 1463 481 1925 481 
Q 2391 481 2648 825 
Q 2906 1169 2906 1791 
z
M 3481 434 
Q 3481 -459 3084 -895 
Q 2688 -1331 1869 -1331 
Q 1566 -1331 1297 -1286 
Q 1028 -1241 775 -1147 
L 775 -588 
Q 1028 -725 1275 -790 
Q 1522 -856 1778 -856 
Q 2344 -856 2625 -561 
Q 2906 -266 2906 331 
L 2906 616 
Q 2728 306 2450 153 
Q 2172 0 1784 0 
Q 1141 0 747 490 
Q 353 981 353 1791 
Q 353 2603 747 3093 
Q 1141 3584 1784 3584 
Q 2172 3584 2450 3431 
Q 2728 3278 2906 2969 
L 2906 3500 
L 3481 3500 
L 3481 434 
z
" transform="scale(0.015625)"/>
      <path id="DejaVuSans-72" d="M 2631 2963 
Q 2534 3019 2420 3045 
Q 2306 3072 2169 3072 
Q 1681 3072 1420 2755 
Q 1159 2438 1159 1844 
L 1159 0 
L 581 0 
L 581 3500 
L 1159 3500 
L 1159 2956 
Q 1341 3275 1631 3429 
Q 1922 3584 2338 3584 
Q 2397 3584 2469 3576 
Q 2541 3569 2628 3553 
L 2631 2963 
z
" transform="scale(0.015625)"/>
      <path id="DejaVuSans-6d" d="M 3328 2828 
Q 3544 3216 3844 3400 
Q 4144 3584 4550 3584 
Q 5097 3584 5394 3201 
Q 5691 2819 5691 2113 
L 5691 0 
L 5113 0 
L 5113 2094 
Q 5113 2597 4934 2840 
Q 4756 3084 4391 3084 
Q 3944 3084 3684 2787 
Q 3425 2491 3425 1978 
L 3425 0 
L 2847 0 
L 2847 2094 
Q 2847 2600 2669 2842 
Q 2491 3084 2119 3084 
Q 1678 3084 1418 2786 
Q 1159 2488 1159 1978 
L 1159 0 
L 581 0 
L 581 3500 
L 1159 3500 
L 1159 2956 
Q 1356 3278 1631 3431 
Q 1906 3584 2284 3584 
Q 2666 3584 2933 3390 
Q 3200 3197 3328 2828 
z
" transform="scale(0.015625)"/>
      <path id="DejaVuSans-2d" d="M 313 2009 
L 1997 2009 
L 1997 1497 
L 313 1497 
L 313 2009 
z
" transform="scale(0.015625)"/>
      <path id="DejaVuSans-41" d="M 2188 4044 
L 1331 1722 
L 3047 1722 
L 2188 4044 
z
M 1831 4666 
L 2547 4666 
L 4325 0 
L 3669 0 
L 3244 1197 
L 1141 1197 
L 716 0 
L 50 0 
L 1831 4666 
z
" transform="scale(0.015625)"/>
      <path id="DejaVuSans-56" d="M 1831 0 
L 50 4666 
L 709 4666 
L 2188 738 
L 3669 4666 
L 4325 4666 
L 2547 0 
L 1831 0 
z
" transform="scale(0.015625)"/>
      <path id="DejaVuSans-46" d="M 628 4666 
L 3309 4666 
L 3309 4134 
L 1259 4134 
L 1259 2759 
L 3109 2759 
L 3109 2228 
L 1259 2228 
L 1259 0 
L 628 0 
L 628 4666 
z
" transform="scale(0.015625)"/>
     </defs>
     <use xlink:href="#DejaVuSans-52"/>
     <use xlink:href="#DejaVuSans-61" x="67.232422"/>
     <use xlink:href="#DejaVuSans-64" x="128.511719"/>
     <use xlink:href="#DejaVuSans-69" x="191.988281"/>
     <use xlink:href="#DejaVuSans-61" x="219.771484"/>
     <use xlink:href="#DejaVuSans-74" x="281.050781"/>
     <use xlink:href="#DejaVuSans-69" x="320.259766"/>
     <use xlink:href="#DejaVuSans-6f" x="348.042969"/>
     <use xlink:href="#DejaVuSans-6e" x="409.224609"/>
     <use xlink:href="#DejaVuSans-20" x="472.603516"/>
     <use xlink:href="#DejaVuSans-44" x="504.390625"/>
     <use xlink:href="#DejaVuSans-69" x="581.392578"/>
     <use xlink:href="#DejaVuSans-61" x="609.175781"/>
     <use xlink:href="#DejaVuSans-67" x="670.455078"/>
     <use xlink:href="#DejaVuSans-72" x="733.931641"/>
     <use xlink:href="#DejaVuSans-61" x="775.044922"/>
     <use xlink:href="#DejaVuSans-6d" x="836.324219"/>
     <use xlink:href="#DejaVuSans-20" x="933.736328"/>
     <use xlink:href="#DejaVuSans-2d" x="965.523438"/>
     <use xlink:href="#DejaVuSans-20" x="1001.607422"/>
     <use xlink:href="#DejaVuSans-34" x="1033.394531"/>
     <use xlink:href="#DejaVuSans-41" x="1097.017578"/>
     <use xlink:href="#DejaVuSans-56" x="1159.050781"/>
     <use xlink:href="#DejaVuSans-56" x="1227.458984"/>
     <use xlink:href="#DejaVuSans-46" x="1295.867188"/>
     <use xlink:href="#DejaVuSans-30" x="1353.386719"/>
     <use xlink:href="#DejaVuSans-38" x="1417.009766"/>
    </g>
   </g>
   <g id="legend_1">
    <g id="patch_4">
     <path d="M 304.104062 78.513437 
L 358.88375 78.513437 
Q 360.88375 78.513437 360.88375 76.513437 
L 360.88375 48.157187 
Q 360.88375 46.157187 358.88375 46.157187 
L 304.104062 46.157187 
Q 302.104062 46.157187 302.104062 48.157187 
L 302.104062 76.513437 
Q 302.104062 78.513437 304.104062 78.513437 
z
" style="fill: #ffffff; opacity: 0.8; stroke: #cccccc; stroke-linejoin: miter"/>
    </g>
    <g id="line2d_21">
     <path d="M 306.104062 54.255625 
L 316.104062 54.255625 
L 326.104062 54.255625 
" style="fill: none; stroke: #ff0000; stroke-width: 1.5; stroke-linecap: square"/>
    </g>
    <g id="text_20">
     <!-- INPE -->
     <g transform="translate(334.104062 57.755625)scale(0.1 -0.1)">
      <defs>
       <path id="DejaVuSans-49" d="M 628 4666 
L 1259 4666 
L 1259 0 
L 628 0 
L 628 4666 
z
" transform="scale(0.015625)"/>
       <path id="DejaVuSans-4e" d="M 628 4666 
L 1478 4666 
L 3547 763 
L 3547 4666 
L 4159 4666 
L 4159 0 
L 3309 0 
L 1241 3903 
L 1241 0 
L 628 0 
L 628 4666 
z
" transform="scale(0.015625)"/>
       <path id="DejaVuSans-50" d="M 1259 4147 
L 1259 2394 
L 2053 2394 
Q 2494 2394 2734 2622 
Q 2975 2850 2975 3272 
Q 2975 3691 2734 3919 
Q 2494 4147 2053 4147 
L 1259 4147 
z
M 628 4666 
L 2053 4666 
Q 2838 4666 3239 4311 
Q 3641 3956 3641 3272 
Q 3641 2581 3239 2228 
Q 2838 1875 2053 1875 
L 1259 1875 
L 1259 0 
L 628 0 
L 628 4666 
z
" transform="scale(0.015625)"/>
       <path id="DejaVuSans-45" d="M 628 4666 
L 3578 4666 
L 3578 4134 
L 1259 4134 
L 1259 2753 
L 3481 2753 
L 3481 2222 
L 1259 2222 
L 1259 531 
L 3634 531 
L 3634 0 
L 628 0 
L 628 4666 
z
" transform="scale(0.015625)"/>
      </defs>
      <use xlink:href="#DejaVuSans-49"/>
      <use xlink:href="#DejaVuSans-4e" x="29.492188"/>
      <use xlink:href="#DejaVuSans-50" x="104.296875"/>
      <use xlink:href="#DejaVuSans-45" x="164.599609"/>
     </g>
    </g>
    <g id="line2d_22">
     <path d="M 306.104062 68.93375 
L 316.104062 68.93375 
L 326.104062 68.93375 
" style="fill: none; stroke-dasharray: 5.55,2.4; stroke-dashoffset: 0; stroke: #0000ff; stroke-width: 1.5"/>
    </g>
    <g id="text_21">
     <!-- CST -->
     <g transform="translate(334.104062 72.43375)scale(0.1 -0.1)">
      <defs>
       <path id="DejaVuSans-43" d="M 4122 4306 
L 4122 3641 
Q 3803 3938 3442 4084 
Q 3081 4231 2675 4231 
Q 1875 4231 1450 3742 
Q 1025 3253 1025 2328 
Q 1025 1406 1450 917 
Q 1875 428 2675 428 
Q 3081 428 3442 575 
Q 3803 722 4122 1019 
L 4122 359 
Q 3791 134 3420 21 
Q 3050 -91 2638 -91 
Q 1578 -91 968 557 
Q 359 1206 359 2328 
Q 359 3453 968 4101 
Q 1578 4750 2638 4750 
Q 3056 4750 3426 4639 
Q 3797 4528 4122 4306 
z
" transform="scale(0.015625)"/>
       <path id="DejaVuSans-53" d="M 3425 4513 
L 3425 3897 
Q 3066 4069 2747 4153 
Q 2428 4238 2131 4238 
Q 1616 4238 1336 4038 
Q 1056 3838 1056 3469 
Q 1056 3159 1242 3001 
Q 1428 2844 1947 2747 
L 2328 2669 
Q 3034 2534 3370 2195 
Q 3706 1856 3706 1288 
Q 3706 609 3251 259 
Q 2797 -91 1919 -91 
Q 1588 -91 1214 -16 
Q 841 59 441 206 
L 441 856 
Q 825 641 1194 531 
Q 1563 422 1919 422 
Q 2459 422 2753 634 
Q 3047 847 3047 1241 
Q 3047 1584 2836 1778 
Q 2625 1972 2144 2069 
L 1759 2144 
Q 1053 2284 737 2584 
Q 422 2884 422 3419 
Q 422 4038 858 4394 
Q 1294 4750 2059 4750 
Q 2388 4750 2728 4690 
Q 3069 4631 3425 4513 
z
" transform="scale(0.015625)"/>
       <path id="DejaVuSans-54" d="M -19 4666 
L 3928 4666 
L 3928 4134 
L 2272 4134 
L 2272 0 
L 1638 0 
L 1638 4134 
L -19 4134 
L -19 4666 
z
" transform="scale(0.015625)"/>
      </defs>
      <use xlink:href="#DejaVuSans-43"/>
      <use xlink:href="#DejaVuSans-53" x="69.824219"/>
      <use xlink:href="#DejaVuSans-54" x="133.300781"/>
     </g>
    </g>
   </g>
  </g>
 </g>
 <defs>
  <clipPath id="pa436a43d00">
   <path d="M 365.88375 207.477187 
C 365.88375 185.636245 361.581561 164.007679 353.223394 143.829279 
C 344.865227 123.650879 332.613628 105.315066 317.16975 89.871188 
C 301.725871 74.427309 283.390058 62.17571 263.211658 53.817544 
C 243.033259 45.459377 221.404692 41.157187 199.56375 41.157187 
C 177.722808 41.157187 156.094241 45.459377 135.915842 53.817544 
C 115.737442 62.17571 97.401629 74.427309 81.95775 89.871188 
C 66.513872 105.315066 54.262273 123.650879 45.904106 143.829279 
C 37.545939 164.007679 33.24375 185.636245 33.24375 207.477187 
C 33.24375 229.31813 37.545939 250.946696 45.904106 271.125096 
C 54.262273 291.303496 66.513872 309.639309 81.95775 325.083187 
C 97.401629 340.527066 115.737442 352.778665 135.915842 361.136831 
C 156.094241 369.494998 177.722808 373.797188 199.56375 373.797188 
C 221.404692 373.797188 243.033259 369.494998 263.211658 361.136831 
C 283.390058 352.778665 301.725871 340.527066 317.16975 325.083187 
C 332.613628 309.639309 344.865227 291.303496 353.223394 271.125096 
C 361.581561 250.946696 365.88375 229.31813 365.88375 207.477188 
M 199.56375 207.477187 
C 199.56375 207.477187 199.56375 207.477187 199.56375 207.477187 
C 199.56375 207.477187 199.56375 207.477187 199.56375 207.477187 
C 199.56375 207.477187 199.56375 207.477187 199.56375 207.477187 
C 199.56375 207.477187 199.56375 207.477187 199.56375 207.477187 
C 199.56375 207.477187 199.56375 207.477187 199.56375 207.477187 
C 199.56375 207.477187 199.56375 207.477187 199.56375 207.477187 
C 199.56375 207.477187 199.56375 207.477187 199.56375 207.477187 
C 199.56375 207.477187 199.56375 207.477187 199.56375 207.477187 
C 199.56375 207.477187 199.56375 207.477187 199.56375 207.477187 
C 199.56375 207.477187 199.56375 207.477187 199.56375 207.477187 
C 199.56375 207.477187 199.56375 207.477187 199.56375 207.477187 
C 199.56375 207.477187 199.56375 207.477187 199.56375 207.477187 
C 199.56375 207.477187 199.56375 207.477187 199.56375 207.477187 
C 199.56375 207.477187 199.56375 207.477187 199.56375 207.477187 
C 199.56375 207.477187 199.56375 207.477187 199.56375 207.477187 
C 199.56375 207.477187 199.56375 207.477187 199.56375 207.477187 
M 365.88375 207.477187 
z
"/>
  </clipPath>
 </defs>
</svg>
