<?xml version="1.0" encoding="utf-8" standalone="no"?>
<!DOCTYPE svg PUBLIC "-//W3C//DTD SVG 1.1//EN"
  "http://www.w3.org/Graphics/SVG/1.1/DTD/svg11.dtd">
<svg xmlns:xlink="http://www.w3.org/1999/xlink" width="392.765pt" height="399.83625pt" viewBox="0 0 392.765 399.83625" xmlns="http://www.w3.org/2000/svg" version="1.1">
 <metadata>
  <rdf:RDF xmlns:dc="http://purl.org/dc/elements/1.1/" xmlns:cc="http://creativecommons.org/ns#" xmlns:rdf="http://www.w3.org/1999/02/22-rdf-syntax-ns#">
   <cc:Work>
    <dc:type rdf:resource="http://purl.org/dc/dcmitype/StillImage"/>
    <dc:date>2023-11-03T14:34:39.685008</dc:date>
    <dc:format>image/svg+xml</dc:format>
    <dc:creator>
     <cc:Agent>
      <dc:title>Matplotlib v3.5.1, https://matplotlib.org/</dc:title>
     </cc:Agent>
    </dc:creator>
   </cc:Work>
  </rdf:RDF>
 </metadata>
 <defs>
  <style type="text/css">*{stroke-linejoin: round; stroke-linecap: butt}</style>
 </defs>
 <g id="figure_1">
  <g id="patch_1">
   <path d="M 0 399.83625 
L 392.765 399.83625 
L 392.765 0 
L 0 0 
z
" style="fill: #ffffff"/>
  </g>
  <g id="axes_1">
   <g id="patch_2">
    <path d="M 365.88375 207.477187 
C 365.88375 185.636245 361.581561 164.007679 353.223394 143.829279 
C 344.865227 123.650879 332.613628 105.315066 317.16975 89.871188 
C 301.725871 74.427309 283.390058 62.17571 263.211658 53.817544 
C 243.033259 45.459377 221.404692 41.157187 199.56375 41.157187 
C 177.722808 41.157187 156.094241 45.459377 135.915842 53.817544 
C 115.737442 62.17571 97.401629 74.427309 81.95775 89.871188 
C 66.513872 105.315066 54.262273 123.650879 45.904106 143.829279 
C 37.545939 164.007679 33.24375 185.636245 33.24375 207.477187 
C 33.24375 229.31813 37.545939 250.946696 45.904106 271.125096 
C 54.262273 291.303496 66.513872 309.639309 81.95775 325.083187 
C 97.401629 340.527066 115.737442 352.778665 135.915842 361.136831 
C 156.094241 369.494998 177.722808 373.797188 199.56375 373.797188 
C 221.404692 373.797188 243.033259 369.494998 263.211658 361.136831 
C 283.390058 352.778665 301.725871 340.527066 317.16975 325.083187 
C 332.613628 309.639309 344.865227 291.303496 353.223394 271.125096 
C 361.581561 250.946696 365.88375 229.31813 365.88375 207.477188 
M 199.56375 207.477187 
C 199.56375 207.477187 199.56375 207.477187 199.56375 207.477187 
C 199.56375 207.477187 199.56375 207.477187 199.56375 207.477187 
C 199.56375 207.477187 199.56375 207.477187 199.56375 207.477187 
C 199.56375 207.477187 199.56375 207.477187 199.56375 207.477187 
C 199.56375 207.477187 199.56375 207.477187 199.56375 207.477187 
C 199.56375 207.477187 199.56375 207.477187 199.56375 207.477187 
C 199.56375 207.477187 199.56375 207.477187 199.56375 207.477187 
C 199.56375 207.477187 199.56375 207.477187 199.56375 207.477187 
C 199.56375 207.477187 199.56375 207.477187 199.56375 207.477187 
C 199.56375 207.477187 199.56375 207.477187 199.56375 207.477187 
C 199.56375 207.477187 199.56375 207.477187 199.56375 207.477187 
C 199.56375 207.477187 199.56375 207.477187 199.56375 207.477187 
C 199.56375 207.477187 199.56375 207.477187 199.56375 207.477187 
C 199.56375 207.477187 199.56375 207.477187 199.56375 207.477187 
C 199.56375 207.477187 199.56375 207.477187 199.56375 207.477187 
C 199.56375 207.477187 199.56375 207.477187 199.56375 207.477187 
M 365.88375 207.477187 
z
" style="fill: #ffffff"/>
   </g>
   <g id="matplotlib.axis_1">
    <g id="xtick_1">
     <g id="line2d_1">
      <path d="M 199.56375 207.477187 
L 365.88375 207.477187 
" clip-path="url(#p7a1ee9f2e2)" style="fill: none; stroke: #b0b0b0; stroke-width: 0.8; stroke-linecap: square"/>
     </g>
     <g id="text_1">
      <!-- 0° -->
      <g transform="translate(374.2025 210.236562)scale(0.1 -0.1)">
       <defs>
        <path id="DejaVuSans-30" d="M 2034 4250 
Q 1547 4250 1301 3770 
Q 1056 3291 1056 2328 
Q 1056 1369 1301 889 
Q 1547 409 2034 409 
Q 2525 409 2770 889 
Q 3016 1369 3016 2328 
Q 3016 3291 2770 3770 
Q 2525 4250 2034 4250 
z
M 2034 4750 
Q 2819 4750 3233 4129 
Q 3647 3509 3647 2328 
Q 3647 1150 3233 529 
Q 2819 -91 2034 -91 
Q 1250 -91 836 529 
Q 422 1150 422 2328 
Q 422 3509 836 4129 
Q 1250 4750 2034 4750 
z
" transform="scale(0.015625)"/>
        <path id="DejaVuSans-b0" d="M 1600 4347 
Q 1350 4347 1178 4173 
Q 1006 4000 1006 3750 
Q 1006 3503 1178 3333 
Q 1350 3163 1600 3163 
Q 1850 3163 2022 3333 
Q 2194 3503 2194 3750 
Q 2194 3997 2020 4172 
Q 1847 4347 1600 4347 
z
M 1600 4750 
Q 1800 4750 1984 4673 
Q 2169 4597 2303 4453 
Q 2447 4313 2519 4134 
Q 2591 3956 2591 3750 
Q 2591 3338 2302 3052 
Q 2013 2766 1594 2766 
Q 1172 2766 890 3047 
Q 609 3328 609 3750 
Q 609 4169 896 4459 
Q 1184 4750 1600 4750 
z
" transform="scale(0.015625)"/>
       </defs>
       <use xlink:href="#DejaVuSans-30"/>
       <use xlink:href="#DejaVuSans-b0" x="63.623047"/>
      </g>
     </g>
    </g>
    <g id="xtick_2">
     <g id="line2d_2">
      <path d="M 199.56375 207.477187 
L 317.16975 89.871188 
" clip-path="url(#p7a1ee9f2e2)" style="fill: none; stroke: #b0b0b0; stroke-width: 0.8; stroke-linecap: square"/>
     </g>
     <g id="text_2">
      <!-- 45° -->
      <g transform="translate(318.206745 82.731068)scale(0.1 -0.1)">
       <defs>
        <path id="DejaVuSans-34" d="M 2419 4116 
L 825 1625 
L 2419 1625 
L 2419 4116 
z
M 2253 4666 
L 3047 4666 
L 3047 1625 
L 3713 1625 
L 3713 1100 
L 3047 1100 
L 3047 0 
L 2419 0 
L 2419 1100 
L 313 1100 
L 313 1709 
L 2253 4666 
z
" transform="scale(0.015625)"/>
        <path id="DejaVuSans-35" d="M 691 4666 
L 3169 4666 
L 3169 4134 
L 1269 4134 
L 1269 2991 
Q 1406 3038 1543 3061 
Q 1681 3084 1819 3084 
Q 2600 3084 3056 2656 
Q 3513 2228 3513 1497 
Q 3513 744 3044 326 
Q 2575 -91 1722 -91 
Q 1428 -91 1123 -41 
Q 819 9 494 109 
L 494 744 
Q 775 591 1075 516 
Q 1375 441 1709 441 
Q 2250 441 2565 725 
Q 2881 1009 2881 1497 
Q 2881 1984 2565 2268 
Q 2250 2553 1709 2553 
Q 1456 2553 1204 2497 
Q 953 2441 691 2322 
L 691 4666 
z
" transform="scale(0.015625)"/>
       </defs>
       <use xlink:href="#DejaVuSans-34"/>
       <use xlink:href="#DejaVuSans-35" x="63.623047"/>
       <use xlink:href="#DejaVuSans-b0" x="127.246094"/>
      </g>
     </g>
    </g>
    <g id="xtick_3">
     <g id="line2d_3">
      <path d="M 199.56375 207.477187 
L 199.56375 41.157187 
" clip-path="url(#p7a1ee9f2e2)" style="fill: none; stroke: #b0b0b0; stroke-width: 0.8; stroke-linecap: square"/>
     </g>
     <g id="text_3">
      <!-- 90° -->
      <g transform="translate(190.70125 29.916562)scale(0.1 -0.1)">
       <defs>
        <path id="DejaVuSans-39" d="M 703 97 
L 703 672 
Q 941 559 1184 500 
Q 1428 441 1663 441 
Q 2288 441 2617 861 
Q 2947 1281 2994 2138 
Q 2813 1869 2534 1725 
Q 2256 1581 1919 1581 
Q 1219 1581 811 2004 
Q 403 2428 403 3163 
Q 403 3881 828 4315 
Q 1253 4750 1959 4750 
Q 2769 4750 3195 4129 
Q 3622 3509 3622 2328 
Q 3622 1225 3098 567 
Q 2575 -91 1691 -91 
Q 1453 -91 1209 -44 
Q 966 3 703 97 
z
M 1959 2075 
Q 2384 2075 2632 2365 
Q 2881 2656 2881 3163 
Q 2881 3666 2632 3958 
Q 2384 4250 1959 4250 
Q 1534 4250 1286 3958 
Q 1038 3666 1038 3163 
Q 1038 2656 1286 2365 
Q 1534 2075 1959 2075 
z
" transform="scale(0.015625)"/>
       </defs>
       <use xlink:href="#DejaVuSans-39"/>
       <use xlink:href="#DejaVuSans-30" x="63.623047"/>
       <use xlink:href="#DejaVuSans-b0" x="127.246094"/>
      </g>
     </g>
    </g>
    <g id="xtick_4">
     <g id="line2d_4">
      <path d="M 199.56375 207.477187 
L 81.95775 89.871188 
" clip-path="url(#p7a1ee9f2e2)" style="fill: none; stroke: #b0b0b0; stroke-width: 0.8; stroke-linecap: square"/>
     </g>
     <g id="text_4">
      <!-- 135° -->
      <g transform="translate(60.014505 82.731068)scale(0.1 -0.1)">
       <defs>
        <path id="DejaVuSans-31" d="M 794 531 
L 1825 531 
L 1825 4091 
L 703 3866 
L 703 4441 
L 1819 4666 
L 2450 4666 
L 2450 531 
L 3481 531 
L 3481 0 
L 794 0 
L 794 531 
z
" transform="scale(0.015625)"/>
        <path id="DejaVuSans-33" d="M 2597 2516 
Q 3050 2419 3304 2112 
Q 3559 1806 3559 1356 
Q 3559 666 3084 287 
Q 2609 -91 1734 -91 
Q 1441 -91 1130 -33 
Q 819 25 488 141 
L 488 750 
Q 750 597 1062 519 
Q 1375 441 1716 441 
Q 2309 441 2620 675 
Q 2931 909 2931 1356 
Q 2931 1769 2642 2001 
Q 2353 2234 1838 2234 
L 1294 2234 
L 1294 2753 
L 1863 2753 
Q 2328 2753 2575 2939 
Q 2822 3125 2822 3475 
Q 2822 3834 2567 4026 
Q 2313 4219 1838 4219 
Q 1578 4219 1281 4162 
Q 984 4106 628 3988 
L 628 4550 
Q 988 4650 1302 4700 
Q 1616 4750 1894 4750 
Q 2613 4750 3031 4423 
Q 3450 4097 3450 3541 
Q 3450 3153 3228 2886 
Q 3006 2619 2597 2516 
z
" transform="scale(0.015625)"/>
       </defs>
       <use xlink:href="#DejaVuSans-31"/>
       <use xlink:href="#DejaVuSans-33" x="63.623047"/>
       <use xlink:href="#DejaVuSans-35" x="127.246094"/>
       <use xlink:href="#DejaVuSans-b0" x="190.869141"/>
      </g>
     </g>
    </g>
    <g id="xtick_5">
     <g id="line2d_5">
      <path d="M 199.56375 207.477187 
L 33.24375 207.477187 
" clip-path="url(#p7a1ee9f2e2)" style="fill: none; stroke: #b0b0b0; stroke-width: 0.8; stroke-linecap: square"/>
     </g>
     <g id="text_5">
      <!-- 180° -->
      <g transform="translate(7.2 210.236562)scale(0.1 -0.1)">
       <defs>
        <path id="DejaVuSans-38" d="M 2034 2216 
Q 1584 2216 1326 1975 
Q 1069 1734 1069 1313 
Q 1069 891 1326 650 
Q 1584 409 2034 409 
Q 2484 409 2743 651 
Q 3003 894 3003 1313 
Q 3003 1734 2745 1975 
Q 2488 2216 2034 2216 
z
M 1403 2484 
Q 997 2584 770 2862 
Q 544 3141 544 3541 
Q 544 4100 942 4425 
Q 1341 4750 2034 4750 
Q 2731 4750 3128 4425 
Q 3525 4100 3525 3541 
Q 3525 3141 3298 2862 
Q 3072 2584 2669 2484 
Q 3125 2378 3379 2068 
Q 3634 1759 3634 1313 
Q 3634 634 3220 271 
Q 2806 -91 2034 -91 
Q 1263 -91 848 271 
Q 434 634 434 1313 
Q 434 1759 690 2068 
Q 947 2378 1403 2484 
z
M 1172 3481 
Q 1172 3119 1398 2916 
Q 1625 2713 2034 2713 
Q 2441 2713 2670 2916 
Q 2900 3119 2900 3481 
Q 2900 3844 2670 4047 
Q 2441 4250 2034 4250 
Q 1625 4250 1398 4047 
Q 1172 3844 1172 3481 
z
" transform="scale(0.015625)"/>
       </defs>
       <use xlink:href="#DejaVuSans-31"/>
       <use xlink:href="#DejaVuSans-38" x="63.623047"/>
       <use xlink:href="#DejaVuSans-30" x="127.246094"/>
       <use xlink:href="#DejaVuSans-b0" x="190.869141"/>
      </g>
     </g>
    </g>
    <g id="xtick_6">
     <g id="line2d_6">
      <path d="M 199.56375 207.477187 
L 81.95775 325.083187 
" clip-path="url(#p7a1ee9f2e2)" style="fill: none; stroke: #b0b0b0; stroke-width: 0.8; stroke-linecap: square"/>
     </g>
     <g id="text_6">
      <!-- 225° -->
      <g transform="translate(60.014505 337.742057)scale(0.1 -0.1)">
       <defs>
        <path id="DejaVuSans-32" d="M 1228 531 
L 3431 531 
L 3431 0 
L 469 0 
L 469 531 
Q 828 903 1448 1529 
Q 2069 2156 2228 2338 
Q 2531 2678 2651 2914 
Q 2772 3150 2772 3378 
Q 2772 3750 2511 3984 
Q 2250 4219 1831 4219 
Q 1534 4219 1204 4116 
Q 875 4013 500 3803 
L 500 4441 
Q 881 4594 1212 4672 
Q 1544 4750 1819 4750 
Q 2544 4750 2975 4387 
Q 3406 4025 3406 3419 
Q 3406 3131 3298 2873 
Q 3191 2616 2906 2266 
Q 2828 2175 2409 1742 
Q 1991 1309 1228 531 
z
" transform="scale(0.015625)"/>
       </defs>
       <use xlink:href="#DejaVuSans-32"/>
       <use xlink:href="#DejaVuSans-32" x="63.623047"/>
       <use xlink:href="#DejaVuSans-35" x="127.246094"/>
       <use xlink:href="#DejaVuSans-b0" x="190.869141"/>
      </g>
     </g>
    </g>
    <g id="xtick_7">
     <g id="line2d_7">
      <path d="M 199.56375 207.477187 
L 199.56375 373.797188 
" clip-path="url(#p7a1ee9f2e2)" style="fill: none; stroke: #b0b0b0; stroke-width: 0.8; stroke-linecap: square"/>
     </g>
     <g id="text_7">
      <!-- 270° -->
      <g transform="translate(187.52 390.556562)scale(0.1 -0.1)">
       <defs>
        <path id="DejaVuSans-37" d="M 525 4666 
L 3525 4666 
L 3525 4397 
L 1831 0 
L 1172 0 
L 2766 4134 
L 525 4134 
L 525 4666 
z
" transform="scale(0.015625)"/>
       </defs>
       <use xlink:href="#DejaVuSans-32"/>
       <use xlink:href="#DejaVuSans-37" x="63.623047"/>
       <use xlink:href="#DejaVuSans-30" x="127.246094"/>
       <use xlink:href="#DejaVuSans-b0" x="190.869141"/>
      </g>
     </g>
    </g>
    <g id="xtick_8">
     <g id="line2d_8">
      <path d="M 199.56375 207.477187 
L 317.16975 325.083187 
" clip-path="url(#p7a1ee9f2e2)" style="fill: none; stroke: #b0b0b0; stroke-width: 0.8; stroke-linecap: square"/>
     </g>
     <g id="text_8">
      <!-- 315° -->
      <g transform="translate(315.025495 337.742057)scale(0.1 -0.1)">
       <use xlink:href="#DejaVuSans-33"/>
       <use xlink:href="#DejaVuSans-31" x="63.623047"/>
       <use xlink:href="#DejaVuSans-35" x="127.246094"/>
       <use xlink:href="#DejaVuSans-b0" x="190.869141"/>
      </g>
     </g>
    </g>
   </g>
   <g id="matplotlib.axis_2">
    <g id="ytick_1">
     <g id="line2d_9">
      <path d="M 237.204392 207.477187 
C 237.204392 202.534264 236.230744 197.639403 234.339169 193.072737 
C 232.447594 188.506071 229.674878 184.356409 226.179703 180.861234 
C 222.684528 177.366059 218.534866 174.593344 213.9682 172.701768 
C 209.401534 170.810193 204.506674 169.836545 199.56375 169.836545 
C 194.620826 169.836545 189.725966 170.810193 185.1593 172.701768 
C 180.592634 174.593344 176.442972 177.366059 172.947797 180.861234 
C 169.452622 184.356409 166.679906 188.506071 164.788331 193.072737 
C 162.896756 197.639403 161.923108 202.534264 161.923108 207.477187 
C 161.923108 212.420111 162.896756 217.314972 164.788331 221.881638 
C 166.679906 226.448304 169.452622 230.597966 172.947797 234.093141 
C 176.442972 237.588316 180.592634 240.361031 185.1593 242.252607 
C 189.725966 244.144182 194.620826 245.11783 199.56375 245.11783 
C 204.506674 245.11783 209.401534 244.144182 213.9682 242.252607 
C 218.534866 240.361031 222.684528 237.588316 226.179703 234.093141 
C 229.674878 230.597966 232.447594 226.448304 234.339169 221.881638 
C 236.230744 217.314972 237.204392 212.420111 237.204392 207.477187 
" clip-path="url(#p7a1ee9f2e2)" style="fill: none; stroke: #b0b0b0; stroke-width: 0.8; stroke-linecap: square"/>
     </g>
     <g id="text_9">
      <!-- −30 -->
      <g transform="translate(234.339169 190.99305)scale(0.1 -0.1)">
       <defs>
        <path id="DejaVuSans-2212" d="M 678 2272 
L 4684 2272 
L 4684 1741 
L 678 1741 
L 678 2272 
z
" transform="scale(0.015625)"/>
       </defs>
       <use xlink:href="#DejaVuSans-2212"/>
       <use xlink:href="#DejaVuSans-33" x="83.789062"/>
       <use xlink:href="#DejaVuSans-30" x="147.412109"/>
      </g>
     </g>
    </g>
    <g id="ytick_2">
     <g id="line2d_10">
      <path d="M 250.072328 207.477187 
C 250.072328 200.844462 248.765826 194.276231 246.227592 188.148391 
C 243.689357 182.020552 239.968753 176.452275 235.278708 171.762229 
C 230.588663 167.072184 225.020386 163.35158 218.892546 160.813346 
C 212.764707 158.275112 206.196476 156.968609 199.56375 156.968609 
C 192.931024 156.968609 186.362793 158.275112 180.234954 160.813346 
C 174.107114 163.35158 168.538837 167.072184 163.848792 171.762229 
C 159.158747 176.452275 155.438143 182.020552 152.899908 188.148391 
C 150.361674 194.276231 149.055172 200.844462 149.055172 207.477187 
C 149.055172 214.109913 150.361674 220.678144 152.899908 226.805984 
C 155.438143 232.933823 159.158747 238.5021 163.848792 243.192146 
C 168.538837 247.882191 174.107114 251.602795 180.234954 254.141029 
C 186.362793 256.679263 192.931024 257.985766 199.56375 257.985766 
C 206.196476 257.985766 212.764707 256.679263 218.892546 254.141029 
C 225.020386 251.602795 230.588663 247.882191 235.278708 243.192146 
C 239.968753 238.5021 243.689357 232.933823 246.227592 226.805984 
C 248.765826 220.678144 250.072328 214.109913 250.072328 207.477187 
" clip-path="url(#p7a1ee9f2e2)" style="fill: none; stroke: #b0b0b0; stroke-width: 0.8; stroke-linecap: square"/>
     </g>
     <g id="text_10">
      <!-- −27 -->
      <g transform="translate(246.227592 186.068704)scale(0.1 -0.1)">
       <use xlink:href="#DejaVuSans-2212"/>
       <use xlink:href="#DejaVuSans-32" x="83.789062"/>
       <use xlink:href="#DejaVuSans-37" x="147.412109"/>
      </g>
     </g>
    </g>
    <g id="ytick_3">
     <g id="line2d_11">
      <path d="M 262.940264 207.477187 
C 262.940264 199.15466 261.300907 190.913059 258.116014 183.224046 
C 254.931121 175.535033 250.262628 168.54814 244.377713 162.663225 
C 238.492797 156.778309 231.505905 152.109817 223.816892 148.924924 
C 216.127879 145.74003 207.886278 144.100674 199.56375 144.100674 
C 191.241222 144.100674 182.999621 145.74003 175.310608 148.924924 
C 167.621595 152.109817 160.634703 156.778309 154.749787 162.663225 
C 148.864872 168.54814 144.196379 175.535033 141.011486 183.224046 
C 137.826593 190.913059 136.187236 199.15466 136.187236 207.477187 
C 136.187236 215.799715 137.826593 224.041316 141.011486 231.730329 
C 144.196379 239.419342 148.864872 246.406235 154.749787 252.29115 
C 160.634703 258.176066 167.621595 262.844558 175.310608 266.029451 
C 182.999621 269.214345 191.241222 270.853701 199.56375 270.853701 
C 207.886278 270.853701 216.127879 269.214345 223.816892 266.029451 
C 231.505905 262.844558 238.492797 258.176066 244.377713 252.29115 
C 250.262628 246.406235 254.931121 239.419342 258.116014 231.730329 
C 261.300907 224.041316 262.940264 215.799715 262.940264 207.477188 
" clip-path="url(#p7a1ee9f2e2)" style="fill: none; stroke: #b0b0b0; stroke-width: 0.8; stroke-linecap: square"/>
     </g>
     <g id="text_11">
      <!-- −24 -->
      <g transform="translate(258.116014 181.144358)scale(0.1 -0.1)">
       <use xlink:href="#DejaVuSans-2212"/>
       <use xlink:href="#DejaVuSans-32" x="83.789062"/>
       <use xlink:href="#DejaVuSans-34" x="147.412109"/>
      </g>
     </g>
    </g>
    <g id="ytick_4">
     <g id="line2d_12">
      <path d="M 275.8082 207.477187 
C 275.8082 197.464858 273.835989 187.549886 270.004436 178.2997 
C 266.172884 169.049514 260.556503 160.644006 253.476717 153.56422 
C 246.396931 146.484434 237.991424 140.868054 228.741238 137.036501 
C 219.491051 133.204948 209.576079 131.232738 199.56375 131.232738 
C 189.551421 131.232738 179.636449 133.204948 170.386262 137.036501 
C 161.136076 140.868054 152.730569 146.484434 145.650783 153.56422 
C 138.570997 160.644006 132.954616 169.049514 129.123064 178.2997 
C 125.291511 187.549886 123.3193 197.464858 123.3193 207.477187 
C 123.3193 217.489517 125.291511 227.404489 129.123064 236.654675 
C 132.954616 245.904861 138.570997 254.310369 145.650783 261.390155 
C 152.730569 268.469941 161.136076 274.086321 170.386262 277.917874 
C 179.636449 281.749427 189.551421 283.721637 199.56375 283.721637 
C 209.576079 283.721637 219.491051 281.749427 228.741238 277.917874 
C 237.991424 274.086321 246.396931 268.469941 253.476717 261.390155 
C 260.556503 254.310369 266.172884 245.904861 270.004436 236.654675 
C 273.835989 227.404489 275.8082 217.489517 275.8082 207.477188 
" clip-path="url(#p7a1ee9f2e2)" style="fill: none; stroke: #b0b0b0; stroke-width: 0.8; stroke-linecap: square"/>
     </g>
     <g id="text_12">
      <!-- −21 -->
      <g transform="translate(270.004436 176.220012)scale(0.1 -0.1)">
       <use xlink:href="#DejaVuSans-2212"/>
       <use xlink:href="#DejaVuSans-32" x="83.789062"/>
       <use xlink:href="#DejaVuSans-31" x="147.412109"/>
      </g>
     </g>
    </g>
    <g id="ytick_5">
     <g id="line2d_13">
      <path d="M 288.676135 207.477187 
C 288.676135 195.775056 286.371071 184.186714 281.892859 173.375354 
C 277.414647 162.563994 270.850378 152.739872 262.575722 144.465216 
C 254.301066 136.190559 244.476943 129.62629 233.665584 125.148079 
C 222.854224 120.669867 211.265881 118.364802 199.56375 118.364802 
C 187.861619 118.364802 176.273276 120.669867 165.461916 125.148079 
C 154.650557 129.62629 144.826434 136.190559 136.551778 144.465216 
C 128.277122 152.739872 121.712853 162.563994 117.234641 173.375354 
C 112.756429 184.186714 110.451365 195.775056 110.451365 207.477187 
C 110.451365 219.179319 112.756429 230.767661 117.234641 241.579021 
C 121.712853 252.390381 128.277122 262.214503 136.551778 270.489159 
C 144.826434 278.763816 154.650557 285.328085 165.461916 289.806296 
C 176.273276 294.284508 187.861619 296.589573 199.56375 296.589573 
C 211.265881 296.589573 222.854224 294.284508 233.665584 289.806296 
C 244.476943 285.328085 254.301066 278.763816 262.575722 270.489159 
C 270.850378 262.214503 277.414647 252.390381 281.892859 241.579021 
C 286.371071 230.767661 288.676135 219.179319 288.676135 207.477188 
" clip-path="url(#p7a1ee9f2e2)" style="fill: none; stroke: #b0b0b0; stroke-width: 0.8; stroke-linecap: square"/>
     </g>
     <g id="text_13">
      <!-- −18 -->
      <g transform="translate(281.892859 171.295666)scale(0.1 -0.1)">
       <use xlink:href="#DejaVuSans-2212"/>
       <use xlink:href="#DejaVuSans-31" x="83.789062"/>
       <use xlink:href="#DejaVuSans-38" x="147.412109"/>
      </g>
     </g>
    </g>
    <g id="ytick_6">
     <g id="line2d_14">
      <path d="M 301.544071 207.477187 
C 301.544071 194.085254 298.906152 180.823541 293.781281 168.451008 
C 288.656411 156.078475 281.144253 144.835738 271.674727 135.366211 
C 262.2052 125.896684 250.962462 118.384527 238.589929 113.259656 
C 226.217396 108.134785 212.955683 105.496866 199.56375 105.496866 
C 186.171817 105.496866 172.910104 108.134785 160.537571 113.259656 
C 148.165038 118.384527 136.9223 125.896684 127.452773 135.366211 
C 117.983247 144.835738 110.471089 156.078475 105.346219 168.451008 
C 100.221348 180.823541 97.583429 194.085254 97.583429 207.477187 
C 97.583429 220.869121 100.221348 234.130834 105.346219 246.503367 
C 110.471089 258.8759 117.983247 270.118637 127.452773 279.588164 
C 136.9223 289.057691 148.165038 296.569848 160.537571 301.694719 
C 172.910104 306.81959 186.171817 309.457509 199.56375 309.457509 
C 212.955683 309.457509 226.217396 306.81959 238.589929 301.694719 
C 250.962462 296.569848 262.2052 289.057691 271.674727 279.588164 
C 281.144253 270.118637 288.656411 258.8759 293.781281 246.503367 
C 298.906152 234.130834 301.544071 220.869121 301.544071 207.477188 
" clip-path="url(#p7a1ee9f2e2)" style="fill: none; stroke: #b0b0b0; stroke-width: 0.8; stroke-linecap: square"/>
     </g>
     <g id="text_14">
      <!-- −15 -->
      <g transform="translate(293.781281 166.371321)scale(0.1 -0.1)">
       <use xlink:href="#DejaVuSans-2212"/>
       <use xlink:href="#DejaVuSans-31" x="83.789062"/>
       <use xlink:href="#DejaVuSans-35" x="147.412109"/>
      </g>
     </g>
    </g>
    <g id="ytick_7">
     <g id="line2d_15">
      <path d="M 314.412007 207.477187 
C 314.412007 192.395453 311.441234 177.460369 305.669704 163.526662 
C 299.898174 149.592956 291.438128 136.931603 280.773731 126.267206 
C 270.109334 115.602809 257.447981 107.142764 243.514275 101.371234 
C 229.580569 95.599703 214.645485 92.628931 199.56375 92.628931 
C 184.482015 92.628931 169.546931 95.599703 155.613225 101.371234 
C 141.679519 107.142764 129.018166 115.602809 118.353769 126.267206 
C 107.689372 136.931603 99.229326 149.592956 93.457796 163.526662 
C 87.686266 177.460369 84.715493 192.395453 84.715493 207.477187 
C 84.715493 222.558922 87.686266 237.494006 93.457796 251.427713 
C 99.229326 265.361419 107.689372 278.022772 118.353769 288.687169 
C 129.018166 299.351566 141.679519 307.811611 155.613225 313.583141 
C 169.546931 319.354672 184.482015 322.325444 199.56375 322.325444 
C 214.645485 322.325444 229.580569 319.354672 243.514275 313.583141 
C 257.447981 307.811611 270.109334 299.351566 280.773731 288.687169 
C 291.438128 278.022772 299.898174 265.361419 305.669704 251.427713 
C 311.441234 237.494006 314.412007 222.558922 314.412007 207.477188 
" clip-path="url(#p7a1ee9f2e2)" style="fill: none; stroke: #b0b0b0; stroke-width: 0.8; stroke-linecap: square"/>
     </g>
     <g id="text_15">
      <!-- −12 -->
      <g transform="translate(305.669704 161.446975)scale(0.1 -0.1)">
       <use xlink:href="#DejaVuSans-2212"/>
       <use xlink:href="#DejaVuSans-31" x="83.789062"/>
       <use xlink:href="#DejaVuSans-32" x="147.412109"/>
      </g>
     </g>
    </g>
    <g id="ytick_8">
     <g id="line2d_16">
      <path d="M 327.279943 207.477187 
C 327.279943 190.705651 323.976316 174.097196 317.558126 158.602317 
C 311.139937 143.107437 301.732003 129.027469 289.872736 117.168202 
C 278.013469 105.308934 263.933501 95.901 248.438621 89.482811 
C 232.943741 83.064622 216.335287 79.760995 199.56375 79.760995 
C 182.792213 79.760995 166.183759 83.064622 150.688879 89.482811 
C 135.193999 95.901 121.114031 105.308934 109.254764 117.168202 
C 97.395497 129.027469 87.987563 143.107437 81.569374 158.602317 
C 75.151184 174.097196 71.847557 190.705651 71.847557 207.477187 
C 71.847557 224.248724 75.151184 240.857179 81.569374 256.352058 
C 87.987563 271.846938 97.395497 285.926906 109.254764 297.786173 
C 121.114031 309.645441 135.193999 319.053375 150.688879 325.471564 
C 166.183759 331.889753 182.792213 335.19338 199.56375 335.19338 
C 216.335287 335.19338 232.943741 331.889753 248.438621 325.471564 
C 263.933501 319.053375 278.013469 309.645441 289.872736 297.786173 
C 301.732003 285.926906 311.139937 271.846938 317.558126 256.352058 
C 323.976316 240.857179 327.279943 224.248724 327.279943 207.477188 
" clip-path="url(#p7a1ee9f2e2)" style="fill: none; stroke: #b0b0b0; stroke-width: 0.8; stroke-linecap: square"/>
     </g>
     <g id="text_16">
      <!-- −9 -->
      <g transform="translate(317.558126 156.522629)scale(0.1 -0.1)">
       <use xlink:href="#DejaVuSans-2212"/>
       <use xlink:href="#DejaVuSans-39" x="83.789062"/>
      </g>
     </g>
    </g>
    <g id="ytick_9">
     <g id="line2d_17">
      <path d="M 340.147878 207.477187 
C 340.147878 189.015849 336.511397 170.734024 329.446549 153.677971 
C 322.3817 136.621918 312.025878 121.123335 298.971741 108.069197 
C 285.917603 95.015059 270.41902 84.659237 253.362967 77.594389 
C 236.306914 70.52954 218.025089 66.893059 199.56375 66.893059 
C 181.102411 66.893059 162.820586 70.52954 145.764533 77.594389 
C 128.70848 84.659237 113.209897 95.015059 100.155759 108.069197 
C 87.101622 121.123335 76.7458 136.621918 69.680951 153.677971 
C 62.616103 170.734024 58.979622 189.015849 58.979622 207.477187 
C 58.979622 225.938526 62.616103 244.220351 69.680951 261.276404 
C 76.7458 278.332457 87.101622 293.83104 100.155759 306.885178 
C 113.209897 319.939316 128.70848 330.295138 145.764533 337.359986 
C 162.820586 344.424835 181.102411 348.061316 199.56375 348.061316 
C 218.025089 348.061316 236.306914 344.424835 253.362967 337.359986 
C 270.41902 330.295138 285.917603 319.939316 298.971741 306.885178 
C 312.025878 293.83104 322.3817 278.332457 329.446549 261.276404 
C 336.511397 244.220351 340.147878 225.938526 340.147878 207.477188 
" clip-path="url(#p7a1ee9f2e2)" style="fill: none; stroke: #b0b0b0; stroke-width: 0.8; stroke-linecap: square"/>
     </g>
     <g id="text_17">
      <!-- −6 -->
      <g transform="translate(329.446549 151.598283)scale(0.1 -0.1)">
       <defs>
        <path id="DejaVuSans-36" d="M 2113 2584 
Q 1688 2584 1439 2293 
Q 1191 2003 1191 1497 
Q 1191 994 1439 701 
Q 1688 409 2113 409 
Q 2538 409 2786 701 
Q 3034 994 3034 1497 
Q 3034 2003 2786 2293 
Q 2538 2584 2113 2584 
z
M 3366 4563 
L 3366 3988 
Q 3128 4100 2886 4159 
Q 2644 4219 2406 4219 
Q 1781 4219 1451 3797 
Q 1122 3375 1075 2522 
Q 1259 2794 1537 2939 
Q 1816 3084 2150 3084 
Q 2853 3084 3261 2657 
Q 3669 2231 3669 1497 
Q 3669 778 3244 343 
Q 2819 -91 2113 -91 
Q 1303 -91 875 529 
Q 447 1150 447 2328 
Q 447 3434 972 4092 
Q 1497 4750 2381 4750 
Q 2619 4750 2861 4703 
Q 3103 4656 3366 4563 
z
" transform="scale(0.015625)"/>
       </defs>
       <use xlink:href="#DejaVuSans-2212"/>
       <use xlink:href="#DejaVuSans-36" x="83.789062"/>
      </g>
     </g>
    </g>
    <g id="ytick_10">
     <g id="line2d_18">
      <path d="M 353.015814 207.477187 
C 353.015814 187.326047 349.046479 167.370851 341.334971 148.753625 
C 333.623464 130.136399 322.319753 113.2192 308.070745 98.970192 
C 293.821737 84.721184 276.904539 73.417474 258.287313 65.705966 
C 239.670086 57.994459 219.71489 54.025123 199.56375 54.025123 
C 179.41261 54.025123 159.457414 57.994459 140.840187 65.705966 
C 122.222961 73.417474 105.305763 84.721184 91.056755 98.970192 
C 76.807747 113.2192 65.504036 130.136399 57.792529 148.753625 
C 50.081021 167.370851 46.111686 187.326047 46.111686 207.477187 
C 46.111686 227.628328 50.081021 247.583524 57.792529 266.20075 
C 65.504036 284.817976 76.807747 301.735175 91.056755 315.984183 
C 105.305763 330.233191 122.222961 341.536901 140.840187 349.248409 
C 159.457414 356.959916 179.41261 360.929252 199.56375 360.929252 
C 219.71489 360.929252 239.670086 356.959916 258.287313 349.248409 
C 276.904539 341.536901 293.821737 330.233191 308.070745 315.984183 
C 322.319753 301.735175 333.623464 284.817976 341.334971 266.20075 
C 349.046479 247.583524 353.015814 227.628328 353.015814 207.477188 
" clip-path="url(#p7a1ee9f2e2)" style="fill: none; stroke: #b0b0b0; stroke-width: 0.8; stroke-linecap: square"/>
     </g>
     <g id="text_18">
      <!-- −3 -->
      <g transform="translate(341.334971 146.673937)scale(0.1 -0.1)">
       <use xlink:href="#DejaVuSans-2212"/>
       <use xlink:href="#DejaVuSans-33" x="83.789062"/>
      </g>
     </g>
    </g>
   </g>
   <g id="line2d_19">
    <path d="M 325.873048 207.477187 
L 322.517234 205.331026 
L 319.52895 203.28791 
L 314.083274 201.475474 
L 303.587336 198.376303 
L 295.034601 197.442797 
L 286.492035 196.803736 
L 276.981847 196.596783 
L 258.647932 198.119172 
L 242.977216 199.822222 
L 227.051823 202.134047 
L 216.985687 203.774041 
L 228.114956 200.885622 
L 239.203568 197.593871 
L 250.580309 193.807342 
L 258.85652 190.475259 
L 265.995695 187.166904 
L 271.856244 183.987932 
L 275.580138 181.302646 
L 288.067187 173.503901 
L 296.098307 166.500699 
L 299.545567 162.962415 
L 301.49798 159.944476 
L 304.577496 156.258561 
L 307.107238 152.681043 
L 309.447363 146.567706 
L 309.296274 144.123085 
L 308.648168 141.932656 
L 307.734997 139.88429 
L 306.297843 138.163257 
L 304.037096 137.009026 
L 296.763548 136.857401 
L 291.758379 138.003552 
L 282.669919 142.547532 
L 273.490537 147.612456 
L 257.852098 158.567456 
L 205.54105 202.2812 
L 241.026037 170.144377 
L 266.41472 145.137649 
L 277.414702 132.297397 
L 281.950536 125.090402 
L 286.423598 117.531182 
L 288.544029 112.057521 
L 288.739356 108.437644 
L 289.273855 104.277517 
L 288.275216 101.754979 
L 286.500278 100.119517 
L 284.177661 99.17632 
L 281.355695 98.935611 
L 277.784937 99.814959 
L 267.779671 106.342926 
L 261.551587 112.024289 
L 252.966377 122.01512 
L 248.74725 125.622098 
L 250.46169 119.319369 
L 254.835708 107.763936 
L 256.621115 100.167892 
L 258.295401 92.209832 
L 259.104631 85.400291 
L 258.460539 81.172617 
L 257.609798 77.103629 
L 256.141821 74.187604 
L 252.233415 70.268019 
L 249.96573 68.998886 
L 247.580375 68.026783 
L 245.10618 67.312001 
L 242.671835 66.476996 
L 240.29906 65.416279 
L 238.043353 63.869353 
L 235.657787 62.711911 
L 233.171137 61.907601 
L 230.705741 60.96564 
L 228.184122 60.238137 
L 225.595936 59.841327 
L 222.952967 59.803483 
L 220.304687 59.897751 
L 217.591046 60.656643 
L 214.824617 62.279736 
L 212.112918 64.039543 
L 206.757256 70.216915 
L 204.263187 72.902917 
L 201.842711 76.915623 
L 199.56375 79.718102 
L 197.376716 82.182095 
L 195.280165 84.811367 
L 193.165371 85.388836 
L 190.973674 84.633373 
L 188.649377 82.725328 
L 183.919606 80.065856 
L 181.456586 78.638024 
L 179.085986 78.185671 
L 176.711994 77.878437 
L 174.429111 78.170679 
L 172.265409 79.048591 
L 170.323434 80.823462 
L 168.558488 83.121874 
L 166.783686 85.140322 
L 165.3618 88.200813 
L 163.860969 90.698653 
L 162.117293 92.228842 
L 160.356016 93.60966 
L 158.090121 93.529329 
L 155.523656 92.74882 
L 152.138191 90.094811 
L 149.230334 88.899091 
L 143.822944 87.940644 
L 141.741473 88.923951 
L 139.918812 90.417405 
L 135.585553 96.6637 
L 133.57076 97.646408 
L 131.104844 97.920036 
L 127.785206 96.947922 
L 124.039439 95.507792 
L 120.460741 94.506383 
L 115.735426 92.097399 
L 111.509396 90.625113 
L 107.980862 90.256437 
L 104.137762 89.635906 
L 100.642681 89.587649 
L 94.229426 90.491569 
L 91.688934 91.795611 
L 89.594075 93.600255 
L 88.011621 95.925059 
L 86.914836 98.693395 
L 86.592545 102.129834 
L 87.369064 106.456638 
L 87.970059 110.470272 
L 89.813147 115.385497 
L 92.462753 120.74851 
L 94.301524 125.237323 
L 100.694822 135.644706 
L 101.641689 138.911422 
L 103.059402 142.384183 
L 102.693507 144.568916 
L 101.824975 146.403223 
L 101.167376 148.354681 
L 100.722589 150.411217 
L 100.675832 152.66272 
L 101.040846 155.09163 
L 101.123801 157.319528 
L 101.42384 159.611155 
L 102.531578 162.230343 
L 103.420078 166.66662 
L 104.237708 168.962967 
L 104.537117 170.999881 
L 105.511105 173.244824 
L 106.189291 175.325783 
L 106.564333 177.259845 
L 108.097974 179.513294 
L 110.712108 181.999389 
L 112.120554 184.046854 
L 113.152488 185.93244 
L 113.144888 187.525821 
L 114.005591 189.291239 
L 116.720166 191.374026 
L 118.276576 193.144066 
L 118.725123 194.673607 
L 118.276441 197.496361 
L 117.581405 198.860496 
L 115.537756 200.125866 
L 112.615321 201.397161 
L 108.920085 202.726754 
L 103.977007 204.139225 
L 101.034177 205.757347 
L 97.471907 207.477187 
L 95.793436 209.288505 
L 92.604394 211.21229 
L 89.670334 213.236457 
L 87.35719 215.323435 
L 84.456028 217.547808 
L 81.872271 219.84706 
L 77.89873 224.576091 
L 76.482948 226.971272 
L 75.718289 229.314484 
L 74.450904 231.796661 
L 72.788212 234.42416 
L 71.794131 236.975128 
L 70.314041 239.702759 
L 69.209875 242.405403 
L 68.429192 245.079417 
L 67.239054 247.932907 
L 66.582348 250.685464 
L 66.257616 253.37817 
L 65.353891 256.325581 
L 65.241767 259.038566 
L 65.493962 261.644898 
L 65.429223 264.413916 
L 65.76152 267.049778 
L 66.343429 269.598843 
L 66.576615 272.339347 
L 67.205283 274.917195 
L 68.046432 277.406186 
L 68.780437 279.971562 
L 69.9244 282.324501 
L 71.176877 284.619803 
L 73.947326 289.053447 
L 78.812206 295.20832 
L 80.49874 297.199108 
L 86.490665 305.77012 
L 93.828918 313.212019 
L 95.511573 315.226371 
L 97.04224 317.418047 
L 98.701057 319.496557 
L 100.173341 321.812774 
L 101.756557 324.039262 
L 103.52231 326.078489 
L 105.630582 327.706159 
L 107.851591 329.183333 
L 110.304774 330.331628 
L 116.141005 331.156494 
L 119.312074 331.053931 
L 122.785704 330.347745 
L 126.002181 329.904198 
L 129.496875 328.836576 
L 133.054176 327.463636 
L 135.897389 327.216197 
L 144.225373 326.15072 
L 149.505193 325.407758 
L 152.151046 324.827748 
L 154.893424 323.847367 
L 157.440226 323.210617 
L 159.800224 322.958853 
L 162.500354 321.546592 
L 165.155173 320.022573 
L 167.990041 317.587797 
L 170.627044 315.470443 
L 172.717503 315.151602 
L 174.710767 315.127285 
L 176.42208 316.350185 
L 178.073621 318.034317 
L 180.848022 325.643646 
L 182.528721 328.687717 
L 184.212338 332.504408 
L 186.053261 336.020899 
L 188.115536 338.330877 
L 190.258868 340.543206 
L 192.499547 342.270203 
L 194.808926 343.637537 
L 197.155284 345.458132 
L 199.56375 347.023302 
L 202.030681 348.807574 
L 204.593264 351.503629 
L 207.223063 353.625585 
L 212.701339 357.640518 
L 215.465765 358.774754 
L 218.220943 359.427827 
L 220.85926 359.002615 
L 223.387102 357.89191 
L 225.758309 356.033912 
L 229.945037 350.409905 
L 231.411186 345.42359 
L 232.287408 338.724609 
L 233.227498 333.112007 
L 232.844693 323.541628 
L 231.69493 312.573541 
L 230.423945 302.455103 
L 224.974426 281.275149 
L 217.622096 257.092085 
L 206.619969 225.859267 
L 207.506908 227.137193 
L 224.714075 266.727641 
L 234.193504 285.256889 
L 242.147677 298.798715 
L 247.676103 306.12213 
L 253.87112 314.061403 
L 260.332382 321.766362 
L 270.512079 330.363298 
L 275.61725 334.051468 
L 279.935392 336.098701 
L 284.623175 338.457215 
L 288.771805 339.733567 
L 295.879549 340.044512 
L 298.927096 339.336802 
L 301.762509 338.285634 
L 304.232317 336.732104 
L 306.403257 334.803554 
L 308.406526 332.686478 
L 311.396501 327.403131 
L 312.721604 324.655576 
L 314.66253 318.626787 
L 314.991229 315.115053 
L 315.000205 311.416639 
L 315.398153 308.170498 
L 314.870647 304.231162 
L 313.491595 299.734137 
L 312.647351 295.82778 
L 309.996256 290.69405 
L 307.035121 285.559709 
L 304.832746 281.187332 
L 301.078503 275.949753 
L 299.247097 272.21231 
L 299.346824 269.828572 
L 301.897824 268.965703 
L 305.611338 268.703791 
L 309.214769 268.25774 
L 314.856542 268.779453 
L 319.585431 268.631289 
L 324.0116 268.174459 
L 328.997707 267.833233 
L 335.305248 265.096035 
L 337.972424 263.397922 
L 339.668112 261.258213 
L 341.161763 259.014649 
L 342.485768 256.689185 
L 343.241281 254.160847 
L 343.755212 251.560941 
L 344.482003 249.031828 
L 345.338456 246.537402 
L 346.002111 243.988371 
L 346.090414 241.305533 
L 346.398357 238.687847 
L 346.314382 236.002621 
L 345.945039 233.288158 
L 345.127676 230.532248 
L 343.201442 227.664149 
L 341.599044 224.916929 
L 339.864047 222.223343 
L 337.472146 219.542609 
L 335.757618 217.00079 
L 333.422977 214.492452 
L 330.721521 212.057318 
L 328.731501 209.731819 
L 328.731501 209.731819 
" clip-path="url(#p7a1ee9f2e2)" style="fill: none; stroke: #ff0000; stroke-width: 1.5; stroke-linecap: square"/>
   </g>
   <g id="line2d_20">
    <path d="M 318.992992 207.477187 
L 319.292163 205.38732 
L 320.124801 203.267103 
L 321.437929 201.090032 
L 323.160644 198.834451 
L 327.467589 194.033952 
L 332.314924 188.820227 
L 334.744006 186.066738 
L 337.099674 183.225893 
L 339.337575 180.307908 
L 341.422399 177.324201 
L 343.332025 174.285666 
L 345.040711 171.205707 
L 346.548258 168.092807 
L 347.834124 164.961342 
L 348.903083 161.819571 
L 349.749521 158.678873 
L 350.37274 155.549488 
L 350.774827 152.440856 
L 350.957527 149.362561 
L 350.924257 146.323573 
L 350.67808 143.33296 
L 350.223679 140.399065 
L 349.564581 137.530651 
L 348.70652 134.735398 
L 347.654677 132.021091 
L 346.415594 129.394677 
L 344.992234 126.864862 
L 343.39456 124.43643 
L 341.629628 122.115396 
L 339.705725 119.906762 
L 337.632296 117.814425 
L 335.419158 115.841558 
L 333.07716 113.990091 
L 330.618401 112.26041 
L 328.054632 110.652363 
L 325.397816 109.164841 
L 322.65917 107.796482 
L 319.84864 106.546181 
L 316.977899 105.410625 
L 314.050306 104.393029 
L 311.073111 103.493026 
L 308.044191 102.718844 
L 304.967985 102.072953 
L 301.840082 101.566946 
L 298.662654 101.206623 
L 295.429582 101.007395 
L 292.15262 100.965876 
L 288.843182 101.078104 
L 282.241981 101.653878 
L 276.042792 102.212817 
L 273.298497 102.173055 
L 270.904985 101.709457 
L 268.898706 100.710718 
L 267.268024 99.1277 
L 265.932297 97.021376 
L 264.779414 94.520345 
L 261.393567 86.12934 
L 260.063589 83.434135 
L 258.583805 80.908271 
L 256.950332 78.584815 
L 255.166408 76.485534 
L 253.242992 74.616402 
L 251.195838 72.971001 
L 249.040033 71.542216 
L 246.792769 70.314155 
L 244.468629 69.274182 
L 242.086182 68.392578 
L 239.659439 67.646904 
L 234.723877 66.457622 
L 227.250283 65.042323 
L 217.288905 63.117386 
L 202.137654 60.018308 
L 194.367625 58.67965 
L 186.444479 57.523234 
L 178.354202 56.56341 
L 172.869409 56.086059 
L 167.326631 55.813468 
L 161.751317 55.819803 
L 156.176553 56.168051 
L 150.643359 56.915706 
L 147.906964 57.454988 
L 145.198732 58.110529 
L 142.525345 58.887064 
L 139.893537 59.788229 
L 137.31102 60.818945 
L 134.785561 61.982993 
L 132.325087 63.28341 
L 129.938763 64.72481 
L 127.63559 66.310224 
L 125.425695 68.043785 
L 123.320038 69.92989 
L 121.325735 71.964971 
L 119.458652 74.159917 
L 117.726031 76.509459 
L 116.14195 79.018881 
L 114.718663 81.689173 
L 113.463795 84.513709 
L 112.392323 87.496011 
L 111.51714 90.63539 
L 110.851373 93.930523 
L 110.405656 97.376111 
L 110.198847 100.976244 
L 110.244796 104.727485 
L 110.566091 108.635274 
L 111.186084 112.703743 
L 112.137777 116.944942 
L 113.461537 121.374975 
L 115.208621 126.016386 
L 117.470077 130.923599 
L 120.322265 136.127834 
L 123.977265 141.770859 
L 128.625058 147.952557 
L 134.730536 154.976286 
L 142.984009 163.272249 
L 154.861596 173.791698 
L 172.984492 188.166226 
L 183.438265 196.186001 
L 164.147938 183.588921 
L 149.05936 174.679253 
L 138.527782 169.337682 
L 130.665203 166.078764 
L 124.492654 164.13487 
L 119.508446 163.101808 
L 115.413413 162.733659 
L 112.122956 162.923877 
L 109.469659 163.535363 
L 107.394762 164.498082 
L 105.875014 165.764275 
L 104.924393 167.305164 
L 104.476327 169.059375 
L 104.581166 171.016789 
L 105.208807 173.134797 
L 106.408295 175.401192 
L 108.106338 177.760873 
L 110.308893 180.189239 
L 112.856147 182.614182 
L 118.034398 187.149637 
L 119.57277 189.009815 
L 119.5983 190.480006 
L 117.882265 191.599915 
L 114.78743 192.528835 
L 106.96909 194.463857 
L 103.179913 195.64274 
L 99.83135 196.99489 
L 96.928885 198.4978 
L 94.605585 200.137798 
L 92.780107 201.880894 
L 91.541293 203.70496 
L 90.805726 205.578809 
L 90.617586 207.477187 
L 90.977272 209.372572 
L 91.841362 211.238936 
L 93.294119 213.046543 
L 95.247414 214.771696 
L 97.783483 216.381807 
L 100.812488 217.856363 
L 104.329395 219.170496 
L 108.243361 220.311431 
L 115.843467 222.239332 
L 118.513841 223.231694 
L 119.5983 224.474369 
L 118.945864 226.089293 
L 116.910685 228.084911 
L 111.495507 232.73035 
L 108.996288 235.166439 
L 106.923318 237.577889 
L 105.394389 239.902299 
L 104.40268 242.112984 
L 103.940459 244.18353 
L 104.038859 246.071749 
L 104.687493 247.749769 
L 105.875014 249.1901 
L 107.589133 250.365656 
L 109.893732 251.212178 
L 112.810881 251.679982 
L 116.435967 251.677014 
L 120.896507 251.083152 
L 126.349981 249.747177 
L 133.16533 247.373383 
L 141.910697 243.502813 
L 153.699903 237.261518 
L 178.378683 222.311131 
L 162.365905 234.503004 
L 148.28445 246.118912 
L 138.522377 255.167935 
L 131.430449 262.650447 
L 126.062131 269.152368 
L 121.937839 274.956363 
L 118.664724 280.318998 
L 116.089795 285.31791 
L 114.066996 290.040443 
L 112.481878 294.55906 
L 111.306467 298.87028 
L 110.475235 303.012924 
L 109.954758 306.998056 
L 109.715757 310.835481 
L 109.738409 314.52686 
L 110.003453 318.074944 
L 110.497511 321.476775 
L 111.207375 324.730057 
L 112.120034 327.833137 
L 113.222691 330.784999 
L 114.505192 333.581686 
L 115.957396 336.219683 
L 117.562375 338.706819 
L 119.315057 341.033441 
L 121.20349 343.201139 
L 123.213983 345.215813 
L 125.336689 347.077986 
L 127.561981 348.788615 
L 129.879158 350.351775 
L 132.2785 351.770872 
L 134.750494 353.050144 
L 137.28655 354.193075 
L 139.878273 355.203928 
L 142.517967 356.086533 
L 145.197705 356.846667 
L 147.911014 357.487626 
L 153.411904 358.433075 
L 158.972631 358.965307 
L 164.550525 359.136126 
L 170.10857 359.010953 
L 175.620961 358.646007 
L 183.763512 357.806414 
L 191.74191 356.726791 
L 199.56375 355.443222 
L 207.239899 353.946843 
L 237.110823 347.60477 
L 239.549485 346.924018 
L 241.955759 346.1352 
L 244.313549 345.202906 
L 246.611229 344.112988 
L 248.831715 342.839809 
L 250.957579 341.362689 
L 252.974656 339.673818 
L 254.863058 337.754193 
L 256.61362 335.613293 
L 258.212193 333.24918 
L 259.657442 330.687515 
L 260.955422 327.965129 
L 263.216092 322.309052 
L 264.296866 319.598233 
L 265.466165 317.157224 
L 266.842975 315.146454 
L 268.541278 313.693267 
L 270.621956 312.82531 
L 273.096757 312.493204 
L 275.909169 312.557642 
L 288.848696 313.882843 
L 292.169504 314.007922 
L 295.452543 313.972481 
L 298.691907 313.779122 
L 301.875837 313.424455 
L 305.007414 312.920851 
L 308.090473 312.280225 
L 311.123303 311.508154 
L 314.107683 310.613008 
L 317.042643 309.600031 
L 319.917642 308.466093 
L 322.731172 307.216199 
L 325.4715 305.847103 
L 328.128968 304.358028 
L 330.69118 302.746842 
L 333.146378 301.012751 
L 335.482811 299.155752 
L 337.688774 297.176627 
L 339.753377 295.077389 
L 341.666763 292.861292 
L 343.41982 290.532528 
L 345.004239 288.096167 
L 346.411806 285.557684 
L 347.638626 282.925105 
L 348.675293 280.203746 
L 349.517543 277.401789 
L 350.161375 274.52757 
L 350.600298 271.588398 
L 350.830798 268.593042 
L 350.849167 265.550218 
L 350.651893 262.468774 
L 350.23566 259.357687 
L 349.598992 256.226593 
L 348.739007 253.084641 
L 347.660952 249.943377 
L 346.361816 246.811611 
L 344.849264 243.700935 
L 343.127235 240.62143 
L 341.21262 237.585584 
L 339.122839 234.604726 
L 336.884242 231.690495 
L 332.102545 226.1043 
L 323.019442 216.11005 
L 321.322277 213.858281 
L 320.043354 211.684428 
L 319.249277 209.566306 
L 319.249277 209.566306 
" clip-path="url(#p7a1ee9f2e2)" style="fill: none; stroke-dasharray: 5.55,2.4; stroke-dashoffset: 0; stroke: #0000ff; stroke-width: 1.5"/>
   </g>
   <g id="patch_3">
    <path d="M 365.88375 207.477187 
C 365.88375 185.636245 361.581561 164.007679 353.223394 143.829279 
C 344.865227 123.650879 332.613628 105.315066 317.16975 89.871188 
C 301.725871 74.427309 283.390058 62.17571 263.211658 53.817544 
C 243.033259 45.459377 221.404692 41.157187 199.56375 41.157187 
C 177.722808 41.157187 156.094241 45.459377 135.915842 53.817544 
C 115.737442 62.17571 97.401629 74.427309 81.95775 89.871188 
C 66.513872 105.315066 54.262273 123.650879 45.904106 143.829279 
C 37.545939 164.007679 33.24375 185.636245 33.24375 207.477187 
C 33.24375 229.31813 37.545939 250.946696 45.904106 271.125096 
C 54.262273 291.303496 66.513872 309.639309 81.95775 325.083187 
C 97.401629 340.527066 115.737442 352.778665 135.915842 361.136831 
C 156.094241 369.494998 177.722808 373.797188 199.56375 373.797188 
C 221.404692 373.797188 243.033259 369.494998 263.211658 361.136831 
C 283.390058 352.778665 301.725871 340.527066 317.16975 325.083187 
C 332.613628 309.639309 344.865227 291.303496 353.223394 271.125096 
C 361.581561 250.946696 365.88375 229.31813 365.88375 207.477188 
" style="fill: none; stroke: #000000; stroke-width: 0.8; stroke-linejoin: miter; stroke-linecap: square"/>
   </g>
   <g id="text_19">
    <!-- Radiation Diagram - 4AVVF18 -->
    <g transform="translate(110.727187 16.318125)scale(0.12 -0.12)">
     <defs>
      <path id="DejaVuSans-52" d="M 2841 2188 
Q 3044 2119 3236 1894 
Q 3428 1669 3622 1275 
L 4263 0 
L 3584 0 
L 2988 1197 
Q 2756 1666 2539 1819 
Q 2322 1972 1947 1972 
L 1259 1972 
L 1259 0 
L 628 0 
L 628 4666 
L 2053 4666 
Q 2853 4666 3247 4331 
Q 3641 3997 3641 3322 
Q 3641 2881 3436 2590 
Q 3231 2300 2841 2188 
z
M 1259 4147 
L 1259 2491 
L 2053 2491 
Q 2509 2491 2742 2702 
Q 2975 2913 2975 3322 
Q 2975 3731 2742 3939 
Q 2509 4147 2053 4147 
L 1259 4147 
z
" transform="scale(0.015625)"/>
      <path id="DejaVuSans-61" d="M 2194 1759 
Q 1497 1759 1228 1600 
Q 959 1441 959 1056 
Q 959 750 1161 570 
Q 1363 391 1709 391 
Q 2188 391 2477 730 
Q 2766 1069 2766 1631 
L 2766 1759 
L 2194 1759 
z
M 3341 1997 
L 3341 0 
L 2766 0 
L 2766 531 
Q 2569 213 2275 61 
Q 1981 -91 1556 -91 
Q 1019 -91 701 211 
Q 384 513 384 1019 
Q 384 1609 779 1909 
Q 1175 2209 1959 2209 
L 2766 2209 
L 2766 2266 
Q 2766 2663 2505 2880 
Q 2244 3097 1772 3097 
Q 1472 3097 1187 3025 
Q 903 2953 641 2809 
L 641 3341 
Q 956 3463 1253 3523 
Q 1550 3584 1831 3584 
Q 2591 3584 2966 3190 
Q 3341 2797 3341 1997 
z
" transform="scale(0.015625)"/>
      <path id="DejaVuSans-64" d="M 2906 2969 
L 2906 4863 
L 3481 4863 
L 3481 0 
L 2906 0 
L 2906 525 
Q 2725 213 2448 61 
Q 2172 -91 1784 -91 
Q 1150 -91 751 415 
Q 353 922 353 1747 
Q 353 2572 751 3078 
Q 1150 3584 1784 3584 
Q 2172 3584 2448 3432 
Q 2725 3281 2906 2969 
z
M 947 1747 
Q 947 1113 1208 752 
Q 1469 391 1925 391 
Q 2381 391 2643 752 
Q 2906 1113 2906 1747 
Q 2906 2381 2643 2742 
Q 2381 3103 1925 3103 
Q 1469 3103 1208 2742 
Q 947 2381 947 1747 
z
" transform="scale(0.015625)"/>
      <path id="DejaVuSans-69" d="M 603 3500 
L 1178 3500 
L 1178 0 
L 603 0 
L 603 3500 
z
M 603 4863 
L 1178 4863 
L 1178 4134 
L 603 4134 
L 603 4863 
z
" transform="scale(0.015625)"/>
      <path id="DejaVuSans-74" d="M 1172 4494 
L 1172 3500 
L 2356 3500 
L 2356 3053 
L 1172 3053 
L 1172 1153 
Q 1172 725 1289 603 
Q 1406 481 1766 481 
L 2356 481 
L 2356 0 
L 1766 0 
Q 1100 0 847 248 
Q 594 497 594 1153 
L 594 3053 
L 172 3053 
L 172 3500 
L 594 3500 
L 594 4494 
L 1172 4494 
z
" transform="scale(0.015625)"/>
      <path id="DejaVuSans-6f" d="M 1959 3097 
Q 1497 3097 1228 2736 
Q 959 2375 959 1747 
Q 959 1119 1226 758 
Q 1494 397 1959 397 
Q 2419 397 2687 759 
Q 2956 1122 2956 1747 
Q 2956 2369 2687 2733 
Q 2419 3097 1959 3097 
z
M 1959 3584 
Q 2709 3584 3137 3096 
Q 3566 2609 3566 1747 
Q 3566 888 3137 398 
Q 2709 -91 1959 -91 
Q 1206 -91 779 398 
Q 353 888 353 1747 
Q 353 2609 779 3096 
Q 1206 3584 1959 3584 
z
" transform="scale(0.015625)"/>
      <path id="DejaVuSans-6e" d="M 3513 2113 
L 3513 0 
L 2938 0 
L 2938 2094 
Q 2938 2591 2744 2837 
Q 2550 3084 2163 3084 
Q 1697 3084 1428 2787 
Q 1159 2491 1159 1978 
L 1159 0 
L 581 0 
L 581 3500 
L 1159 3500 
L 1159 2956 
Q 1366 3272 1645 3428 
Q 1925 3584 2291 3584 
Q 2894 3584 3203 3211 
Q 3513 2838 3513 2113 
z
" transform="scale(0.015625)"/>
      <path id="DejaVuSans-20" transform="scale(0.015625)"/>
      <path id="DejaVuSans-44" d="M 1259 4147 
L 1259 519 
L 2022 519 
Q 2988 519 3436 956 
Q 3884 1394 3884 2338 
Q 3884 3275 3436 3711 
Q 2988 4147 2022 4147 
L 1259 4147 
z
M 628 4666 
L 1925 4666 
Q 3281 4666 3915 4102 
Q 4550 3538 4550 2338 
Q 4550 1131 3912 565 
Q 3275 0 1925 0 
L 628 0 
L 628 4666 
z
" transform="scale(0.015625)"/>
      <path id="DejaVuSans-67" d="M 2906 1791 
Q 2906 2416 2648 2759 
Q 2391 3103 1925 3103 
Q 1463 3103 1205 2759 
Q 947 2416 947 1791 
Q 947 1169 1205 825 
Q 1463 481 1925 481 
Q 2391 481 2648 825 
Q 2906 1169 2906 1791 
z
M 3481 434 
Q 3481 -459 3084 -895 
Q 2688 -1331 1869 -1331 
Q 1566 -1331 1297 -1286 
Q 1028 -1241 775 -1147 
L 775 -588 
Q 1028 -725 1275 -790 
Q 1522 -856 1778 -856 
Q 2344 -856 2625 -561 
Q 2906 -266 2906 331 
L 2906 616 
Q 2728 306 2450 153 
Q 2172 0 1784 0 
Q 1141 0 747 490 
Q 353 981 353 1791 
Q 353 2603 747 3093 
Q 1141 3584 1784 3584 
Q 2172 3584 2450 3431 
Q 2728 3278 2906 2969 
L 2906 3500 
L 3481 3500 
L 3481 434 
z
" transform="scale(0.015625)"/>
      <path id="DejaVuSans-72" d="M 2631 2963 
Q 2534 3019 2420 3045 
Q 2306 3072 2169 3072 
Q 1681 3072 1420 2755 
Q 1159 2438 1159 1844 
L 1159 0 
L 581 0 
L 581 3500 
L 1159 3500 
L 1159 2956 
Q 1341 3275 1631 3429 
Q 1922 3584 2338 3584 
Q 2397 3584 2469 3576 
Q 2541 3569 2628 3553 
L 2631 2963 
z
" transform="scale(0.015625)"/>
      <path id="DejaVuSans-6d" d="M 3328 2828 
Q 3544 3216 3844 3400 
Q 4144 3584 4550 3584 
Q 5097 3584 5394 3201 
Q 5691 2819 5691 2113 
L 5691 0 
L 5113 0 
L 5113 2094 
Q 5113 2597 4934 2840 
Q 4756 3084 4391 3084 
Q 3944 3084 3684 2787 
Q 3425 2491 3425 1978 
L 3425 0 
L 2847 0 
L 2847 2094 
Q 2847 2600 2669 2842 
Q 2491 3084 2119 3084 
Q 1678 3084 1418 2786 
Q 1159 2488 1159 1978 
L 1159 0 
L 581 0 
L 581 3500 
L 1159 3500 
L 1159 2956 
Q 1356 3278 1631 3431 
Q 1906 3584 2284 3584 
Q 2666 3584 2933 3390 
Q 3200 3197 3328 2828 
z
" transform="scale(0.015625)"/>
      <path id="DejaVuSans-2d" d="M 313 2009 
L 1997 2009 
L 1997 1497 
L 313 1497 
L 313 2009 
z
" transform="scale(0.015625)"/>
      <path id="DejaVuSans-41" d="M 2188 4044 
L 1331 1722 
L 3047 1722 
L 2188 4044 
z
M 1831 4666 
L 2547 4666 
L 4325 0 
L 3669 0 
L 3244 1197 
L 1141 1197 
L 716 0 
L 50 0 
L 1831 4666 
z
" transform="scale(0.015625)"/>
      <path id="DejaVuSans-56" d="M 1831 0 
L 50 4666 
L 709 4666 
L 2188 738 
L 3669 4666 
L 4325 4666 
L 2547 0 
L 1831 0 
z
" transform="scale(0.015625)"/>
      <path id="DejaVuSans-46" d="M 628 4666 
L 3309 4666 
L 3309 4134 
L 1259 4134 
L 1259 2759 
L 3109 2759 
L 3109 2228 
L 1259 2228 
L 1259 0 
L 628 0 
L 628 4666 
z
" transform="scale(0.015625)"/>
     </defs>
     <use xlink:href="#DejaVuSans-52"/>
     <use xlink:href="#DejaVuSans-61" x="67.232422"/>
     <use xlink:href="#DejaVuSans-64" x="128.511719"/>
     <use xlink:href="#DejaVuSans-69" x="191.988281"/>
     <use xlink:href="#DejaVuSans-61" x="219.771484"/>
     <use xlink:href="#DejaVuSans-74" x="281.050781"/>
     <use xlink:href="#DejaVuSans-69" x="320.259766"/>
     <use xlink:href="#DejaVuSans-6f" x="348.042969"/>
     <use xlink:href="#DejaVuSans-6e" x="409.224609"/>
     <use xlink:href="#DejaVuSans-20" x="472.603516"/>
     <use xlink:href="#DejaVuSans-44" x="504.390625"/>
     <use xlink:href="#DejaVuSans-69" x="581.392578"/>
     <use xlink:href="#DejaVuSans-61" x="609.175781"/>
     <use xlink:href="#DejaVuSans-67" x="670.455078"/>
     <use xlink:href="#DejaVuSans-72" x="733.931641"/>
     <use xlink:href="#DejaVuSans-61" x="775.044922"/>
     <use xlink:href="#DejaVuSans-6d" x="836.324219"/>
     <use xlink:href="#DejaVuSans-20" x="933.736328"/>
     <use xlink:href="#DejaVuSans-2d" x="965.523438"/>
     <use xlink:href="#DejaVuSans-20" x="1001.607422"/>
     <use xlink:href="#DejaVuSans-34" x="1033.394531"/>
     <use xlink:href="#DejaVuSans-41" x="1097.017578"/>
     <use xlink:href="#DejaVuSans-56" x="1159.050781"/>
     <use xlink:href="#DejaVuSans-56" x="1227.458984"/>
     <use xlink:href="#DejaVuSans-46" x="1295.867188"/>
     <use xlink:href="#DejaVuSans-31" x="1353.386719"/>
     <use xlink:href="#DejaVuSans-38" x="1417.009766"/>
    </g>
   </g>
   <g id="legend_1">
    <g id="patch_4">
     <path d="M 304.104062 78.513437 
L 358.88375 78.513437 
Q 360.88375 78.513437 360.88375 76.513437 
L 360.88375 48.157187 
Q 360.88375 46.157187 358.88375 46.157187 
L 304.104062 46.157187 
Q 302.104062 46.157187 302.104062 48.157187 
L 302.104062 76.513437 
Q 302.104062 78.513437 304.104062 78.513437 
z
" style="fill: #ffffff; opacity: 0.8; stroke: #cccccc; stroke-linejoin: miter"/>
    </g>
    <g id="line2d_21">
     <path d="M 306.104062 54.255625 
L 316.104062 54.255625 
L 326.104062 54.255625 
" style="fill: none; stroke: #ff0000; stroke-width: 1.5; stroke-linecap: square"/>
    </g>
    <g id="text_20">
     <!-- INPE -->
     <g transform="translate(334.104062 57.755625)scale(0.1 -0.1)">
      <defs>
       <path id="DejaVuSans-49" d="M 628 4666 
L 1259 4666 
L 1259 0 
L 628 0 
L 628 4666 
z
" transform="scale(0.015625)"/>
       <path id="DejaVuSans-4e" d="M 628 4666 
L 1478 4666 
L 3547 763 
L 3547 4666 
L 4159 4666 
L 4159 0 
L 3309 0 
L 1241 3903 
L 1241 0 
L 628 0 
L 628 4666 
z
" transform="scale(0.015625)"/>
       <path id="DejaVuSans-50" d="M 1259 4147 
L 1259 2394 
L 2053 2394 
Q 2494 2394 2734 2622 
Q 2975 2850 2975 3272 
Q 2975 3691 2734 3919 
Q 2494 4147 2053 4147 
L 1259 4147 
z
M 628 4666 
L 2053 4666 
Q 2838 4666 3239 4311 
Q 3641 3956 3641 3272 
Q 3641 2581 3239 2228 
Q 2838 1875 2053 1875 
L 1259 1875 
L 1259 0 
L 628 0 
L 628 4666 
z
" transform="scale(0.015625)"/>
       <path id="DejaVuSans-45" d="M 628 4666 
L 3578 4666 
L 3578 4134 
L 1259 4134 
L 1259 2753 
L 3481 2753 
L 3481 2222 
L 1259 2222 
L 1259 531 
L 3634 531 
L 3634 0 
L 628 0 
L 628 4666 
z
" transform="scale(0.015625)"/>
      </defs>
      <use xlink:href="#DejaVuSans-49"/>
      <use xlink:href="#DejaVuSans-4e" x="29.492188"/>
      <use xlink:href="#DejaVuSans-50" x="104.296875"/>
      <use xlink:href="#DejaVuSans-45" x="164.599609"/>
     </g>
    </g>
    <g id="line2d_22">
     <path d="M 306.104062 68.93375 
L 316.104062 68.93375 
L 326.104062 68.93375 
" style="fill: none; stroke-dasharray: 5.55,2.4; stroke-dashoffset: 0; stroke: #0000ff; stroke-width: 1.5"/>
    </g>
    <g id="text_21">
     <!-- CST -->
     <g transform="translate(334.104062 72.43375)scale(0.1 -0.1)">
      <defs>
       <path id="DejaVuSans-43" d="M 4122 4306 
L 4122 3641 
Q 3803 3938 3442 4084 
Q 3081 4231 2675 4231 
Q 1875 4231 1450 3742 
Q 1025 3253 1025 2328 
Q 1025 1406 1450 917 
Q 1875 428 2675 428 
Q 3081 428 3442 575 
Q 3803 722 4122 1019 
L 4122 359 
Q 3791 134 3420 21 
Q 3050 -91 2638 -91 
Q 1578 -91 968 557 
Q 359 1206 359 2328 
Q 359 3453 968 4101 
Q 1578 4750 2638 4750 
Q 3056 4750 3426 4639 
Q 3797 4528 4122 4306 
z
" transform="scale(0.015625)"/>
       <path id="DejaVuSans-53" d="M 3425 4513 
L 3425 3897 
Q 3066 4069 2747 4153 
Q 2428 4238 2131 4238 
Q 1616 4238 1336 4038 
Q 1056 3838 1056 3469 
Q 1056 3159 1242 3001 
Q 1428 2844 1947 2747 
L 2328 2669 
Q 3034 2534 3370 2195 
Q 3706 1856 3706 1288 
Q 3706 609 3251 259 
Q 2797 -91 1919 -91 
Q 1588 -91 1214 -16 
Q 841 59 441 206 
L 441 856 
Q 825 641 1194 531 
Q 1563 422 1919 422 
Q 2459 422 2753 634 
Q 3047 847 3047 1241 
Q 3047 1584 2836 1778 
Q 2625 1972 2144 2069 
L 1759 2144 
Q 1053 2284 737 2584 
Q 422 2884 422 3419 
Q 422 4038 858 4394 
Q 1294 4750 2059 4750 
Q 2388 4750 2728 4690 
Q 3069 4631 3425 4513 
z
" transform="scale(0.015625)"/>
       <path id="DejaVuSans-54" d="M -19 4666 
L 3928 4666 
L 3928 4134 
L 2272 4134 
L 2272 0 
L 1638 0 
L 1638 4134 
L -19 4134 
L -19 4666 
z
" transform="scale(0.015625)"/>
      </defs>
      <use xlink:href="#DejaVuSans-43"/>
      <use xlink:href="#DejaVuSans-53" x="69.824219"/>
      <use xlink:href="#DejaVuSans-54" x="133.300781"/>
     </g>
    </g>
   </g>
  </g>
 </g>
 <defs>
  <clipPath id="p7a1ee9f2e2">
   <path d="M 365.88375 207.477187 
C 365.88375 185.636245 361.581561 164.007679 353.223394 143.829279 
C 344.865227 123.650879 332.613628 105.315066 317.16975 89.871188 
C 301.725871 74.427309 283.390058 62.17571 263.211658 53.817544 
C 243.033259 45.459377 221.404692 41.157187 199.56375 41.157187 
C 177.722808 41.157187 156.094241 45.459377 135.915842 53.817544 
C 115.737442 62.17571 97.401629 74.427309 81.95775 89.871188 
C 66.513872 105.315066 54.262273 123.650879 45.904106 143.829279 
C 37.545939 164.007679 33.24375 185.636245 33.24375 207.477187 
C 33.24375 229.31813 37.545939 250.946696 45.904106 271.125096 
C 54.262273 291.303496 66.513872 309.639309 81.95775 325.083187 
C 97.401629 340.527066 115.737442 352.778665 135.915842 361.136831 
C 156.094241 369.494998 177.722808 373.797188 199.56375 373.797188 
C 221.404692 373.797188 243.033259 369.494998 263.211658 361.136831 
C 283.390058 352.778665 301.725871 340.527066 317.16975 325.083187 
C 332.613628 309.639309 344.865227 291.303496 353.223394 271.125096 
C 361.581561 250.946696 365.88375 229.31813 365.88375 207.477188 
M 199.56375 207.477187 
C 199.56375 207.477187 199.56375 207.477187 199.56375 207.477187 
C 199.56375 207.477187 199.56375 207.477187 199.56375 207.477187 
C 199.56375 207.477187 199.56375 207.477187 199.56375 207.477187 
C 199.56375 207.477187 199.56375 207.477187 199.56375 207.477187 
C 199.56375 207.477187 199.56375 207.477187 199.56375 207.477187 
C 199.56375 207.477187 199.56375 207.477187 199.56375 207.477187 
C 199.56375 207.477187 199.56375 207.477187 199.56375 207.477187 
C 199.56375 207.477187 199.56375 207.477187 199.56375 207.477187 
C 199.56375 207.477187 199.56375 207.477187 199.56375 207.477187 
C 199.56375 207.477187 199.56375 207.477187 199.56375 207.477187 
C 199.56375 207.477187 199.56375 207.477187 199.56375 207.477187 
C 199.56375 207.477187 199.56375 207.477187 199.56375 207.477187 
C 199.56375 207.477187 199.56375 207.477187 199.56375 207.477187 
C 199.56375 207.477187 199.56375 207.477187 199.56375 207.477187 
C 199.56375 207.477187 199.56375 207.477187 199.56375 207.477187 
C 199.56375 207.477187 199.56375 207.477187 199.56375 207.477187 
M 365.88375 207.477187 
z
"/>
  </clipPath>
 </defs>
</svg>
