<?xml version="1.0" encoding="utf-8" standalone="no"?>
<!DOCTYPE svg PUBLIC "-//W3C//DTD SVG 1.1//EN"
  "http://www.w3.org/Graphics/SVG/1.1/DTD/svg11.dtd">
<svg xmlns:xlink="http://www.w3.org/1999/xlink" width="392.765pt" height="399.83625pt" viewBox="0 0 392.765 399.83625" xmlns="http://www.w3.org/2000/svg" version="1.1">
 <metadata>
  <rdf:RDF xmlns:dc="http://purl.org/dc/elements/1.1/" xmlns:cc="http://creativecommons.org/ns#" xmlns:rdf="http://www.w3.org/1999/02/22-rdf-syntax-ns#">
   <cc:Work>
    <dc:type rdf:resource="http://purl.org/dc/dcmitype/StillImage"/>
    <dc:date>2023-10-31T22:38:27.329402</dc:date>
    <dc:format>image/svg+xml</dc:format>
    <dc:creator>
     <cc:Agent>
      <dc:title>Matplotlib v3.5.1, https://matplotlib.org/</dc:title>
     </cc:Agent>
    </dc:creator>
   </cc:Work>
  </rdf:RDF>
 </metadata>
 <defs>
  <style type="text/css">*{stroke-linejoin: round; stroke-linecap: butt}</style>
 </defs>
 <g id="figure_1">
  <g id="patch_1">
   <path d="M 0 399.83625 
L 392.765 399.83625 
L 392.765 0 
L 0 0 
z
" style="fill: #ffffff"/>
  </g>
  <g id="axes_1">
   <g id="patch_2">
    <path d="M 365.88375 207.477188 
C 365.88375 185.636245 361.581561 164.007679 353.223394 143.829279 
C 344.865227 123.650879 332.613628 105.315066 317.16975 89.871188 
C 301.725871 74.427309 283.390058 62.17571 263.211658 53.817544 
C 243.033259 45.459377 221.404692 41.157188 199.56375 41.157188 
C 177.722808 41.157188 156.094241 45.459377 135.915842 53.817544 
C 115.737442 62.17571 97.401629 74.427309 81.95775 89.871188 
C 66.513872 105.315066 54.262273 123.650879 45.904106 143.829279 
C 37.545939 164.007679 33.24375 185.636245 33.24375 207.477188 
C 33.24375 229.31813 37.545939 250.946696 45.904106 271.125096 
C 54.262273 291.303496 66.513872 309.639309 81.95775 325.083187 
C 97.401629 340.527066 115.737442 352.778665 135.915842 361.136831 
C 156.094241 369.494998 177.722808 373.797188 199.56375 373.797188 
C 221.404692 373.797188 243.033259 369.494998 263.211658 361.136831 
C 283.390058 352.778665 301.725871 340.527066 317.16975 325.083187 
C 332.613628 309.639309 344.865227 291.303496 353.223394 271.125096 
C 361.581561 250.946696 365.88375 229.31813 365.88375 207.477188 
M 199.56375 207.477188 
C 199.56375 207.477188 199.56375 207.477188 199.56375 207.477188 
C 199.56375 207.477188 199.56375 207.477188 199.56375 207.477188 
C 199.56375 207.477188 199.56375 207.477188 199.56375 207.477188 
C 199.56375 207.477188 199.56375 207.477188 199.56375 207.477188 
C 199.56375 207.477188 199.56375 207.477188 199.56375 207.477188 
C 199.56375 207.477188 199.56375 207.477188 199.56375 207.477188 
C 199.56375 207.477188 199.56375 207.477188 199.56375 207.477188 
C 199.56375 207.477188 199.56375 207.477188 199.56375 207.477188 
C 199.56375 207.477188 199.56375 207.477188 199.56375 207.477188 
C 199.56375 207.477188 199.56375 207.477188 199.56375 207.477188 
C 199.56375 207.477188 199.56375 207.477188 199.56375 207.477188 
C 199.56375 207.477188 199.56375 207.477188 199.56375 207.477188 
C 199.56375 207.477188 199.56375 207.477188 199.56375 207.477188 
C 199.56375 207.477188 199.56375 207.477188 199.56375 207.477188 
C 199.56375 207.477188 199.56375 207.477188 199.56375 207.477188 
C 199.56375 207.477188 199.56375 207.477188 199.56375 207.477188 
M 365.88375 207.477188 
z
" style="fill: #ffffff"/>
   </g>
   <g id="matplotlib.axis_1">
    <g id="xtick_1">
     <g id="line2d_1">
      <path d="M 199.56375 207.477188 
L 365.88375 207.477188 
" clip-path="url(#p5f151ac484)" style="fill: none; stroke: #b0b0b0; stroke-width: 0.8; stroke-linecap: square"/>
     </g>
     <g id="text_1">
      <!-- 0° -->
      <g transform="translate(374.2025 210.236563)scale(0.1 -0.1)">
       <defs>
        <path id="DejaVuSans-30" d="M 2034 4250 
Q 1547 4250 1301 3770 
Q 1056 3291 1056 2328 
Q 1056 1369 1301 889 
Q 1547 409 2034 409 
Q 2525 409 2770 889 
Q 3016 1369 3016 2328 
Q 3016 3291 2770 3770 
Q 2525 4250 2034 4250 
z
M 2034 4750 
Q 2819 4750 3233 4129 
Q 3647 3509 3647 2328 
Q 3647 1150 3233 529 
Q 2819 -91 2034 -91 
Q 1250 -91 836 529 
Q 422 1150 422 2328 
Q 422 3509 836 4129 
Q 1250 4750 2034 4750 
z
" transform="scale(0.015625)"/>
        <path id="DejaVuSans-b0" d="M 1600 4347 
Q 1350 4347 1178 4173 
Q 1006 4000 1006 3750 
Q 1006 3503 1178 3333 
Q 1350 3163 1600 3163 
Q 1850 3163 2022 3333 
Q 2194 3503 2194 3750 
Q 2194 3997 2020 4172 
Q 1847 4347 1600 4347 
z
M 1600 4750 
Q 1800 4750 1984 4673 
Q 2169 4597 2303 4453 
Q 2447 4313 2519 4134 
Q 2591 3956 2591 3750 
Q 2591 3338 2302 3052 
Q 2013 2766 1594 2766 
Q 1172 2766 890 3047 
Q 609 3328 609 3750 
Q 609 4169 896 4459 
Q 1184 4750 1600 4750 
z
" transform="scale(0.015625)"/>
       </defs>
       <use xlink:href="#DejaVuSans-30"/>
       <use xlink:href="#DejaVuSans-b0" x="63.623047"/>
      </g>
     </g>
    </g>
    <g id="xtick_2">
     <g id="line2d_2">
      <path d="M 199.56375 207.477188 
L 317.16975 89.871188 
" clip-path="url(#p5f151ac484)" style="fill: none; stroke: #b0b0b0; stroke-width: 0.8; stroke-linecap: square"/>
     </g>
     <g id="text_2">
      <!-- 45° -->
      <g transform="translate(318.206745 82.731068)scale(0.1 -0.1)">
       <defs>
        <path id="DejaVuSans-34" d="M 2419 4116 
L 825 1625 
L 2419 1625 
L 2419 4116 
z
M 2253 4666 
L 3047 4666 
L 3047 1625 
L 3713 1625 
L 3713 1100 
L 3047 1100 
L 3047 0 
L 2419 0 
L 2419 1100 
L 313 1100 
L 313 1709 
L 2253 4666 
z
" transform="scale(0.015625)"/>
        <path id="DejaVuSans-35" d="M 691 4666 
L 3169 4666 
L 3169 4134 
L 1269 4134 
L 1269 2991 
Q 1406 3038 1543 3061 
Q 1681 3084 1819 3084 
Q 2600 3084 3056 2656 
Q 3513 2228 3513 1497 
Q 3513 744 3044 326 
Q 2575 -91 1722 -91 
Q 1428 -91 1123 -41 
Q 819 9 494 109 
L 494 744 
Q 775 591 1075 516 
Q 1375 441 1709 441 
Q 2250 441 2565 725 
Q 2881 1009 2881 1497 
Q 2881 1984 2565 2268 
Q 2250 2553 1709 2553 
Q 1456 2553 1204 2497 
Q 953 2441 691 2322 
L 691 4666 
z
" transform="scale(0.015625)"/>
       </defs>
       <use xlink:href="#DejaVuSans-34"/>
       <use xlink:href="#DejaVuSans-35" x="63.623047"/>
       <use xlink:href="#DejaVuSans-b0" x="127.246094"/>
      </g>
     </g>
    </g>
    <g id="xtick_3">
     <g id="line2d_3">
      <path d="M 199.56375 207.477188 
L 199.56375 41.157187 
" clip-path="url(#p5f151ac484)" style="fill: none; stroke: #b0b0b0; stroke-width: 0.8; stroke-linecap: square"/>
     </g>
     <g id="text_3">
      <!-- 90° -->
      <g transform="translate(190.70125 29.916562)scale(0.1 -0.1)">
       <defs>
        <path id="DejaVuSans-39" d="M 703 97 
L 703 672 
Q 941 559 1184 500 
Q 1428 441 1663 441 
Q 2288 441 2617 861 
Q 2947 1281 2994 2138 
Q 2813 1869 2534 1725 
Q 2256 1581 1919 1581 
Q 1219 1581 811 2004 
Q 403 2428 403 3163 
Q 403 3881 828 4315 
Q 1253 4750 1959 4750 
Q 2769 4750 3195 4129 
Q 3622 3509 3622 2328 
Q 3622 1225 3098 567 
Q 2575 -91 1691 -91 
Q 1453 -91 1209 -44 
Q 966 3 703 97 
z
M 1959 2075 
Q 2384 2075 2632 2365 
Q 2881 2656 2881 3163 
Q 2881 3666 2632 3958 
Q 2384 4250 1959 4250 
Q 1534 4250 1286 3958 
Q 1038 3666 1038 3163 
Q 1038 2656 1286 2365 
Q 1534 2075 1959 2075 
z
" transform="scale(0.015625)"/>
       </defs>
       <use xlink:href="#DejaVuSans-39"/>
       <use xlink:href="#DejaVuSans-30" x="63.623047"/>
       <use xlink:href="#DejaVuSans-b0" x="127.246094"/>
      </g>
     </g>
    </g>
    <g id="xtick_4">
     <g id="line2d_4">
      <path d="M 199.56375 207.477188 
L 81.95775 89.871188 
" clip-path="url(#p5f151ac484)" style="fill: none; stroke: #b0b0b0; stroke-width: 0.8; stroke-linecap: square"/>
     </g>
     <g id="text_4">
      <!-- 135° -->
      <g transform="translate(60.014505 82.731068)scale(0.1 -0.1)">
       <defs>
        <path id="DejaVuSans-31" d="M 794 531 
L 1825 531 
L 1825 4091 
L 703 3866 
L 703 4441 
L 1819 4666 
L 2450 4666 
L 2450 531 
L 3481 531 
L 3481 0 
L 794 0 
L 794 531 
z
" transform="scale(0.015625)"/>
        <path id="DejaVuSans-33" d="M 2597 2516 
Q 3050 2419 3304 2112 
Q 3559 1806 3559 1356 
Q 3559 666 3084 287 
Q 2609 -91 1734 -91 
Q 1441 -91 1130 -33 
Q 819 25 488 141 
L 488 750 
Q 750 597 1062 519 
Q 1375 441 1716 441 
Q 2309 441 2620 675 
Q 2931 909 2931 1356 
Q 2931 1769 2642 2001 
Q 2353 2234 1838 2234 
L 1294 2234 
L 1294 2753 
L 1863 2753 
Q 2328 2753 2575 2939 
Q 2822 3125 2822 3475 
Q 2822 3834 2567 4026 
Q 2313 4219 1838 4219 
Q 1578 4219 1281 4162 
Q 984 4106 628 3988 
L 628 4550 
Q 988 4650 1302 4700 
Q 1616 4750 1894 4750 
Q 2613 4750 3031 4423 
Q 3450 4097 3450 3541 
Q 3450 3153 3228 2886 
Q 3006 2619 2597 2516 
z
" transform="scale(0.015625)"/>
       </defs>
       <use xlink:href="#DejaVuSans-31"/>
       <use xlink:href="#DejaVuSans-33" x="63.623047"/>
       <use xlink:href="#DejaVuSans-35" x="127.246094"/>
       <use xlink:href="#DejaVuSans-b0" x="190.869141"/>
      </g>
     </g>
    </g>
    <g id="xtick_5">
     <g id="line2d_5">
      <path d="M 199.56375 207.477188 
L 33.24375 207.477187 
" clip-path="url(#p5f151ac484)" style="fill: none; stroke: #b0b0b0; stroke-width: 0.8; stroke-linecap: square"/>
     </g>
     <g id="text_5">
      <!-- 180° -->
      <g transform="translate(7.2 210.236562)scale(0.1 -0.1)">
       <defs>
        <path id="DejaVuSans-38" d="M 2034 2216 
Q 1584 2216 1326 1975 
Q 1069 1734 1069 1313 
Q 1069 891 1326 650 
Q 1584 409 2034 409 
Q 2484 409 2743 651 
Q 3003 894 3003 1313 
Q 3003 1734 2745 1975 
Q 2488 2216 2034 2216 
z
M 1403 2484 
Q 997 2584 770 2862 
Q 544 3141 544 3541 
Q 544 4100 942 4425 
Q 1341 4750 2034 4750 
Q 2731 4750 3128 4425 
Q 3525 4100 3525 3541 
Q 3525 3141 3298 2862 
Q 3072 2584 2669 2484 
Q 3125 2378 3379 2068 
Q 3634 1759 3634 1313 
Q 3634 634 3220 271 
Q 2806 -91 2034 -91 
Q 1263 -91 848 271 
Q 434 634 434 1313 
Q 434 1759 690 2068 
Q 947 2378 1403 2484 
z
M 1172 3481 
Q 1172 3119 1398 2916 
Q 1625 2713 2034 2713 
Q 2441 2713 2670 2916 
Q 2900 3119 2900 3481 
Q 2900 3844 2670 4047 
Q 2441 4250 2034 4250 
Q 1625 4250 1398 4047 
Q 1172 3844 1172 3481 
z
" transform="scale(0.015625)"/>
       </defs>
       <use xlink:href="#DejaVuSans-31"/>
       <use xlink:href="#DejaVuSans-38" x="63.623047"/>
       <use xlink:href="#DejaVuSans-30" x="127.246094"/>
       <use xlink:href="#DejaVuSans-b0" x="190.869141"/>
      </g>
     </g>
    </g>
    <g id="xtick_6">
     <g id="line2d_6">
      <path d="M 199.56375 207.477188 
L 81.95775 325.083187 
" clip-path="url(#p5f151ac484)" style="fill: none; stroke: #b0b0b0; stroke-width: 0.8; stroke-linecap: square"/>
     </g>
     <g id="text_6">
      <!-- 225° -->
      <g transform="translate(60.014505 337.742057)scale(0.1 -0.1)">
       <defs>
        <path id="DejaVuSans-32" d="M 1228 531 
L 3431 531 
L 3431 0 
L 469 0 
L 469 531 
Q 828 903 1448 1529 
Q 2069 2156 2228 2338 
Q 2531 2678 2651 2914 
Q 2772 3150 2772 3378 
Q 2772 3750 2511 3984 
Q 2250 4219 1831 4219 
Q 1534 4219 1204 4116 
Q 875 4013 500 3803 
L 500 4441 
Q 881 4594 1212 4672 
Q 1544 4750 1819 4750 
Q 2544 4750 2975 4387 
Q 3406 4025 3406 3419 
Q 3406 3131 3298 2873 
Q 3191 2616 2906 2266 
Q 2828 2175 2409 1742 
Q 1991 1309 1228 531 
z
" transform="scale(0.015625)"/>
       </defs>
       <use xlink:href="#DejaVuSans-32"/>
       <use xlink:href="#DejaVuSans-32" x="63.623047"/>
       <use xlink:href="#DejaVuSans-35" x="127.246094"/>
       <use xlink:href="#DejaVuSans-b0" x="190.869141"/>
      </g>
     </g>
    </g>
    <g id="xtick_7">
     <g id="line2d_7">
      <path d="M 199.56375 207.477188 
L 199.56375 373.797188 
" clip-path="url(#p5f151ac484)" style="fill: none; stroke: #b0b0b0; stroke-width: 0.8; stroke-linecap: square"/>
     </g>
     <g id="text_7">
      <!-- 270° -->
      <g transform="translate(187.52 390.556563)scale(0.1 -0.1)">
       <defs>
        <path id="DejaVuSans-37" d="M 525 4666 
L 3525 4666 
L 3525 4397 
L 1831 0 
L 1172 0 
L 2766 4134 
L 525 4134 
L 525 4666 
z
" transform="scale(0.015625)"/>
       </defs>
       <use xlink:href="#DejaVuSans-32"/>
       <use xlink:href="#DejaVuSans-37" x="63.623047"/>
       <use xlink:href="#DejaVuSans-30" x="127.246094"/>
       <use xlink:href="#DejaVuSans-b0" x="190.869141"/>
      </g>
     </g>
    </g>
    <g id="xtick_8">
     <g id="line2d_8">
      <path d="M 199.56375 207.477188 
L 317.16975 325.083187 
" clip-path="url(#p5f151ac484)" style="fill: none; stroke: #b0b0b0; stroke-width: 0.8; stroke-linecap: square"/>
     </g>
     <g id="text_8">
      <!-- 315° -->
      <g transform="translate(315.025495 337.742057)scale(0.1 -0.1)">
       <use xlink:href="#DejaVuSans-33"/>
       <use xlink:href="#DejaVuSans-31" x="63.623047"/>
       <use xlink:href="#DejaVuSans-35" x="127.246094"/>
       <use xlink:href="#DejaVuSans-b0" x="190.869141"/>
      </g>
     </g>
    </g>
   </g>
   <g id="matplotlib.axis_2">
    <g id="ytick_1">
     <g id="line2d_9">
      <path d="M 283.995072 207.477188 
C 283.995072 196.389768 281.811092 185.41016 277.56812 175.16672 
C 273.325148 164.923279 267.1057 155.615217 259.26571 147.775227 
C 251.425721 139.935238 242.117658 133.715789 231.874218 129.472817 
C 221.630778 125.229846 210.65117 123.045866 199.56375 123.045866 
C 188.47633 123.045866 177.496722 125.229846 167.253282 129.472817 
C 157.009842 133.715789 147.701779 139.935238 139.86179 147.775227 
C 132.0218 155.615217 125.802352 164.923279 121.55938 175.16672 
C 117.316408 185.41016 115.132428 196.389768 115.132428 207.477188 
C 115.132428 218.564607 117.316408 229.544215 121.55938 239.787655 
C 125.802352 250.031096 132.0218 259.339158 139.86179 267.179148 
C 147.701779 275.019137 157.009842 281.238586 167.253282 285.481558 
C 177.496722 289.724529 188.47633 291.908509 199.56375 291.908509 
C 210.65117 291.908509 221.630778 289.724529 231.874218 285.481558 
C 242.117658 281.238586 251.425721 275.019137 259.26571 267.179148 
C 267.1057 259.339158 273.325148 250.031096 277.56812 239.787655 
C 281.811092 229.544215 283.995072 218.564607 283.995072 207.477188 
" clip-path="url(#p5f151ac484)" style="fill: none; stroke: #b0b0b0; stroke-width: 0.8; stroke-linecap: square"/>
     </g>
     <g id="text_9">
      <!-- −30 -->
      <g transform="translate(277.56812 173.087032)scale(0.1 -0.1)">
       <defs>
        <path id="DejaVuSans-2212" d="M 678 2272 
L 4684 2272 
L 4684 1741 
L 678 1741 
L 678 2272 
z
" transform="scale(0.015625)"/>
       </defs>
       <use xlink:href="#DejaVuSans-2212"/>
       <use xlink:href="#DejaVuSans-33" x="83.789062"/>
       <use xlink:href="#DejaVuSans-30" x="147.412109"/>
      </g>
     </g>
    </g>
    <g id="ytick_2">
     <g id="line2d_10">
      <path d="M 292.18394 207.477188 
C 292.18394 195.314416 289.788139 183.269911 285.133647 172.032975 
C 280.479156 160.796039 273.656493 150.585202 265.056114 141.984823 
C 256.455736 133.384445 246.244898 126.561781 235.007962 121.90729 
C 223.771026 117.252799 211.726522 114.856998 199.56375 114.856998 
C 187.400978 114.856998 175.356474 117.252799 164.119538 121.90729 
C 152.882602 126.561781 142.671764 133.384445 134.071386 141.984823 
C 125.471007 150.585202 118.648344 160.796039 113.993853 172.032975 
C 109.339361 183.269911 106.94356 195.314416 106.94356 207.477188 
C 106.94356 219.639959 109.339361 231.684464 113.993853 242.9214 
C 118.648344 254.158336 125.471007 264.369173 134.071386 272.969552 
C 142.671764 281.56993 152.882602 288.392594 164.119538 293.047085 
C 175.356474 297.701576 187.400978 300.097377 199.56375 300.097377 
C 211.726522 300.097377 223.771026 297.701576 235.007962 293.047085 
C 246.244898 288.392594 256.455736 281.56993 265.056114 272.969552 
C 273.656493 264.369173 280.479156 254.158336 285.133647 242.9214 
C 289.788139 231.684464 292.18394 219.639959 292.18394 207.477188 
" clip-path="url(#p5f151ac484)" style="fill: none; stroke: #b0b0b0; stroke-width: 0.8; stroke-linecap: square"/>
     </g>
     <g id="text_10">
      <!-- −27 -->
      <g transform="translate(285.133647 169.953288)scale(0.1 -0.1)">
       <use xlink:href="#DejaVuSans-2212"/>
       <use xlink:href="#DejaVuSans-32" x="83.789062"/>
       <use xlink:href="#DejaVuSans-37" x="147.412109"/>
      </g>
     </g>
    </g>
    <g id="ytick_3">
     <g id="line2d_11">
      <path d="M 300.372807 207.477188 
C 300.372807 194.239063 297.765186 181.129663 292.699175 168.899231 
C 287.633164 156.668799 280.207285 145.555187 270.846518 136.194419 
C 261.485751 126.833652 250.372138 119.407773 238.141706 114.341763 
C 225.911274 109.275752 212.801874 106.66813 199.56375 106.66813 
C 186.325626 106.66813 173.216226 109.275752 160.985794 114.341763 
C 148.755362 119.407773 137.641749 126.833652 128.280982 136.194419 
C 118.920215 145.555187 111.494336 156.668799 106.428325 168.899231 
C 101.362314 181.129663 98.754693 194.239063 98.754693 207.477188 
C 98.754693 220.715312 101.362314 233.824712 106.428325 246.055144 
C 111.494336 258.285576 118.920215 269.399188 128.280982 278.759956 
C 137.641749 288.120723 148.755362 295.546602 160.985794 300.612612 
C 173.216226 305.678623 186.325626 308.286245 199.56375 308.286245 
C 212.801874 308.286245 225.911274 305.678623 238.141706 300.612612 
C 250.372138 295.546602 261.485751 288.120723 270.846518 278.759956 
C 280.207285 269.399188 287.633164 258.285576 292.699175 246.055144 
C 297.765186 233.824712 300.372807 220.715312 300.372807 207.477188 
" clip-path="url(#p5f151ac484)" style="fill: none; stroke: #b0b0b0; stroke-width: 0.8; stroke-linecap: square"/>
     </g>
     <g id="text_11">
      <!-- −24 -->
      <g transform="translate(292.699175 166.819544)scale(0.1 -0.1)">
       <use xlink:href="#DejaVuSans-2212"/>
       <use xlink:href="#DejaVuSans-32" x="83.789062"/>
       <use xlink:href="#DejaVuSans-34" x="147.412109"/>
      </g>
     </g>
    </g>
    <g id="ytick_4">
     <g id="line2d_12">
      <path d="M 308.561675 207.477188 
C 308.561675 193.163711 305.742232 178.989415 300.264702 165.765487 
C 294.787172 152.541559 286.758078 140.525172 276.636922 130.404015 
C 266.515766 120.282859 254.499378 112.253766 241.27545 106.776235 
C 228.051522 101.298705 213.877226 98.479262 199.56375 98.479262 
C 185.250274 98.479262 171.075978 101.298705 157.85205 106.776235 
C 144.628122 112.253766 132.611734 120.282859 122.490578 130.404015 
C 112.369422 140.525172 104.340328 152.541559 98.862798 165.765487 
C 93.385268 178.989415 90.565825 193.163711 90.565825 207.477188 
C 90.565825 221.790664 93.385268 235.96496 98.862798 249.188888 
C 104.340328 262.412816 112.369422 274.429203 122.490578 284.55036 
C 132.611734 294.671516 144.628122 302.700609 157.85205 308.17814 
C 171.075978 313.65567 185.250274 316.475113 199.56375 316.475113 
C 213.877226 316.475113 228.051522 313.65567 241.27545 308.17814 
C 254.499378 302.700609 266.515766 294.671516 276.636922 284.55036 
C 286.758078 274.429203 294.787172 262.412816 300.264702 249.188888 
C 305.742232 235.96496 308.561675 221.790664 308.561675 207.477188 
" clip-path="url(#p5f151ac484)" style="fill: none; stroke: #b0b0b0; stroke-width: 0.8; stroke-linecap: square"/>
     </g>
     <g id="text_12">
      <!-- −21 -->
      <g transform="translate(300.264702 163.6858)scale(0.1 -0.1)">
       <use xlink:href="#DejaVuSans-2212"/>
       <use xlink:href="#DejaVuSans-32" x="83.789062"/>
       <use xlink:href="#DejaVuSans-31" x="147.412109"/>
      </g>
     </g>
    </g>
    <g id="ytick_5">
     <g id="line2d_13">
      <path d="M 316.750543 207.477188 
C 316.750543 192.088359 313.719279 176.849167 307.83023 162.631743 
C 301.94118 148.414319 293.308871 135.495157 282.427326 124.613611 
C 271.545781 113.732066 258.626618 105.099758 244.409194 99.210708 
C 230.19177 93.321658 214.952579 90.290394 199.56375 90.290394 
C 184.174921 90.290394 168.93573 93.321658 154.718306 99.210708 
C 140.500882 105.099758 127.581719 113.732066 116.700174 124.613611 
C 105.818629 135.495157 97.18632 148.414319 91.29727 162.631743 
C 85.408221 176.849167 82.376957 192.088359 82.376957 207.477187 
C 82.376957 222.866016 85.408221 238.105208 91.29727 252.322632 
C 97.18632 266.540056 105.818629 279.459218 116.700174 290.340764 
C 127.581719 301.222309 140.500882 309.854617 154.718306 315.743667 
C 168.93573 321.632717 184.174921 324.663981 199.56375 324.663981 
C 214.952579 324.663981 230.19177 321.632717 244.409194 315.743667 
C 258.626618 309.854617 271.545781 301.222309 282.427326 290.340764 
C 293.308871 279.459218 301.94118 266.540056 307.83023 252.322632 
C 313.719279 238.105208 316.750543 222.866016 316.750543 207.477188 
" clip-path="url(#p5f151ac484)" style="fill: none; stroke: #b0b0b0; stroke-width: 0.8; stroke-linecap: square"/>
     </g>
     <g id="text_13">
      <!-- −18 -->
      <g transform="translate(307.83023 160.552056)scale(0.1 -0.1)">
       <use xlink:href="#DejaVuSans-2212"/>
       <use xlink:href="#DejaVuSans-31" x="83.789062"/>
       <use xlink:href="#DejaVuSans-38" x="147.412109"/>
      </g>
     </g>
    </g>
    <g id="ytick_6">
     <g id="line2d_14">
      <path d="M 324.939411 207.477188 
C 324.939411 191.013007 321.696326 174.708919 315.395757 159.497999 
C 309.095188 144.287079 299.859664 130.465141 288.21773 118.823208 
C 276.575796 107.181274 262.753858 97.94575 247.542938 91.645181 
C 232.332018 85.344611 216.027931 82.101527 199.56375 82.101527 
C 183.099569 82.101527 166.795482 85.344611 151.584562 91.645181 
C 136.373642 97.94575 122.551704 107.181274 110.90977 118.823208 
C 99.267836 130.465141 90.032312 144.287079 83.731743 159.497999 
C 77.431174 174.708919 74.188089 191.013007 74.188089 207.477187 
C 74.188089 223.941368 77.431174 240.245456 83.731743 255.456376 
C 90.032312 270.667296 99.267836 284.489234 110.90977 296.131167 
C 122.551704 307.773101 136.373642 317.008625 151.584562 323.309194 
C 166.795482 329.609764 183.099569 332.852848 199.56375 332.852848 
C 216.027931 332.852848 232.332018 329.609764 247.542938 323.309194 
C 262.753858 317.008625 276.575796 307.773101 288.21773 296.131167 
C 299.859664 284.489234 309.095188 270.667296 315.395757 255.456376 
C 321.696326 240.245456 324.939411 223.941368 324.939411 207.477188 
" clip-path="url(#p5f151ac484)" style="fill: none; stroke: #b0b0b0; stroke-width: 0.8; stroke-linecap: square"/>
     </g>
     <g id="text_14">
      <!-- −15 -->
      <g transform="translate(315.395757 157.418312)scale(0.1 -0.1)">
       <use xlink:href="#DejaVuSans-2212"/>
       <use xlink:href="#DejaVuSans-31" x="83.789062"/>
       <use xlink:href="#DejaVuSans-35" x="147.412109"/>
      </g>
     </g>
    </g>
    <g id="ytick_7">
     <g id="line2d_15">
      <path d="M 333.128279 207.477188 
C 333.128279 189.937654 329.673373 172.568671 322.961284 156.364255 
C 316.249196 140.159839 306.410457 125.435126 294.008134 113.032804 
C 281.605811 100.630481 266.881098 90.791742 250.676682 84.079653 
C 234.472267 77.367564 217.103283 73.912659 199.56375 73.912659 
C 182.024217 73.912659 164.655233 77.367564 148.450818 84.079653 
C 132.246402 90.791742 117.521689 100.630481 105.119366 113.032804 
C 92.717043 125.435126 82.878304 140.159839 76.166216 156.364255 
C 69.454127 172.568671 65.999221 189.937654 65.999221 207.477187 
C 65.999221 225.016721 69.454127 242.385704 76.166216 258.59012 
C 82.878304 274.794536 92.717043 289.519249 105.119366 301.921571 
C 117.521689 314.323894 132.246402 324.162633 148.450818 330.874722 
C 164.655233 337.586811 182.024217 341.041716 199.56375 341.041716 
C 217.103283 341.041716 234.472267 337.586811 250.676682 330.874722 
C 266.881098 324.162633 281.605811 314.323894 294.008134 301.921571 
C 306.410457 289.519249 316.249196 274.794536 322.961284 258.59012 
C 329.673373 242.385704 333.128279 225.016721 333.128279 207.477188 
" clip-path="url(#p5f151ac484)" style="fill: none; stroke: #b0b0b0; stroke-width: 0.8; stroke-linecap: square"/>
     </g>
     <g id="text_15">
      <!-- −12 -->
      <g transform="translate(322.961284 154.284568)scale(0.1 -0.1)">
       <use xlink:href="#DejaVuSans-2212"/>
       <use xlink:href="#DejaVuSans-31" x="83.789062"/>
       <use xlink:href="#DejaVuSans-32" x="147.412109"/>
      </g>
     </g>
    </g>
    <g id="ytick_8">
     <g id="line2d_16">
      <path d="M 341.317147 207.477188 
C 341.317147 188.862302 337.65042 170.428423 330.526812 153.230511 
C 323.403203 136.032599 312.96125 120.405111 299.798538 107.2424 
C 286.635826 94.079688 271.008338 83.637734 253.810426 76.514126 
C 236.612515 69.390518 218.178635 65.723791 199.56375 65.723791 
C 180.948865 65.723791 162.514985 69.390518 145.317074 76.514126 
C 128.119162 83.637734 112.491674 94.079688 99.328962 107.2424 
C 86.16625 120.405111 75.724297 136.032599 68.600688 153.230511 
C 61.47708 170.428423 57.810353 188.862302 57.810353 207.477187 
C 57.810353 226.092073 61.47708 244.525952 68.600688 261.723864 
C 75.724297 278.921776 86.16625 294.549264 99.328962 307.711975 
C 112.491674 320.874687 128.119162 331.316641 145.317074 338.440249 
C 162.514985 345.563857 180.948865 349.230584 199.56375 349.230584 
C 218.178635 349.230584 236.612515 345.563857 253.810426 338.440249 
C 271.008338 331.316641 286.635826 320.874687 299.798538 307.711975 
C 312.96125 294.549264 323.403203 278.921776 330.526812 261.723864 
C 337.65042 244.525952 341.317147 226.092073 341.317147 207.477188 
" clip-path="url(#p5f151ac484)" style="fill: none; stroke: #b0b0b0; stroke-width: 0.8; stroke-linecap: square"/>
     </g>
     <g id="text_16">
      <!-- −9 -->
      <g transform="translate(330.526812 151.150824)scale(0.1 -0.1)">
       <use xlink:href="#DejaVuSans-2212"/>
       <use xlink:href="#DejaVuSans-39" x="83.789062"/>
      </g>
     </g>
    </g>
    <g id="ytick_9">
     <g id="line2d_17">
      <path d="M 349.506014 207.477188 
C 349.506014 187.78695 345.627467 168.288175 338.092339 150.096767 
C 330.557211 131.905359 319.512043 115.375096 305.588942 101.451996 
C 291.665841 87.528895 275.135578 76.483726 256.94417 68.948598 
C 238.752763 61.413471 219.253988 57.534923 199.56375 57.534923 
C 179.873512 57.534923 160.374737 61.413471 142.18333 68.948598 
C 123.991922 76.483726 107.461659 87.528895 93.538558 101.451996 
C 79.615457 115.375096 68.570289 131.905359 61.035161 150.096767 
C 53.500033 168.288175 49.621486 187.78695 49.621486 207.477187 
C 49.621486 227.167425 53.500033 246.6662 61.035161 264.857608 
C 68.570289 283.049016 79.615457 299.579279 93.538558 313.502379 
C 107.461659 327.42548 123.991922 338.470649 142.18333 346.005777 
C 160.374737 353.540904 179.873512 357.419452 199.56375 357.419452 
C 219.253988 357.419452 238.752763 353.540904 256.94417 346.005777 
C 275.135578 338.470649 291.665841 327.42548 305.588942 313.502379 
C 319.512043 299.579279 330.557211 283.049016 338.092339 264.857608 
C 345.627467 246.6662 349.506014 227.167425 349.506014 207.477188 
" clip-path="url(#p5f151ac484)" style="fill: none; stroke: #b0b0b0; stroke-width: 0.8; stroke-linecap: square"/>
     </g>
     <g id="text_17">
      <!-- −6 -->
      <g transform="translate(338.092339 148.01708)scale(0.1 -0.1)">
       <defs>
        <path id="DejaVuSans-36" d="M 2113 2584 
Q 1688 2584 1439 2293 
Q 1191 2003 1191 1497 
Q 1191 994 1439 701 
Q 1688 409 2113 409 
Q 2538 409 2786 701 
Q 3034 994 3034 1497 
Q 3034 2003 2786 2293 
Q 2538 2584 2113 2584 
z
M 3366 4563 
L 3366 3988 
Q 3128 4100 2886 4159 
Q 2644 4219 2406 4219 
Q 1781 4219 1451 3797 
Q 1122 3375 1075 2522 
Q 1259 2794 1537 2939 
Q 1816 3084 2150 3084 
Q 2853 3084 3261 2657 
Q 3669 2231 3669 1497 
Q 3669 778 3244 343 
Q 2819 -91 2113 -91 
Q 1303 -91 875 529 
Q 447 1150 447 2328 
Q 447 3434 972 4092 
Q 1497 4750 2381 4750 
Q 2619 4750 2861 4703 
Q 3103 4656 3366 4563 
z
" transform="scale(0.015625)"/>
       </defs>
       <use xlink:href="#DejaVuSans-2212"/>
       <use xlink:href="#DejaVuSans-36" x="83.789062"/>
      </g>
     </g>
    </g>
    <g id="ytick_10">
     <g id="line2d_18">
      <path d="M 357.694882 207.477188 
C 357.694882 186.711597 353.604514 166.147927 345.657866 146.963023 
C 337.711219 127.778119 326.062835 110.345081 311.379346 95.661592 
C 296.695856 80.978102 279.262818 69.329718 260.077914 61.383071 
C 240.893011 53.436424 220.32934 49.346055 199.56375 49.346055 
C 178.79816 49.346055 158.234489 53.436424 139.049586 61.383071 
C 119.864682 69.329718 102.431644 80.978102 87.748154 95.661592 
C 73.064665 110.345081 61.416281 127.778119 53.469634 146.963023 
C 45.522986 166.147927 41.432618 186.711597 41.432618 207.477187 
C 41.432618 228.242778 45.522986 248.806448 53.469634 267.991352 
C 61.416281 287.176256 73.064665 304.609294 87.748154 319.292783 
C 102.431644 333.976273 119.864682 345.624657 139.049586 353.571304 
C 158.234489 361.517951 178.79816 365.60832 199.56375 365.60832 
C 220.32934 365.60832 240.893011 361.517951 260.077914 353.571304 
C 279.262818 345.624657 296.695856 333.976273 311.379346 319.292783 
C 326.062835 304.609294 337.711219 287.176256 345.657866 267.991352 
C 353.604514 248.806448 357.694882 228.242778 357.694882 207.477188 
" clip-path="url(#p5f151ac484)" style="fill: none; stroke: #b0b0b0; stroke-width: 0.8; stroke-linecap: square"/>
     </g>
     <g id="text_18">
      <!-- −3 -->
      <g transform="translate(345.657866 144.883336)scale(0.1 -0.1)">
       <use xlink:href="#DejaVuSans-2212"/>
       <use xlink:href="#DejaVuSans-33" x="83.789062"/>
      </g>
     </g>
    </g>
   </g>
   <g id="line2d_19">
    <path d="M 293.455944 207.477188 
L 286.029118 205.967929 
L 285.697717 204.469323 
L 291.847114 202.640821 
L 301.279059 200.36456 
L 307.227804 198.057803 
L 318.085111 192.924594 
L 324.393355 187.70612 
L 327.738941 184.876443 
L 329.492675 182.221563 
L 331.480481 179.437421 
L 333.300892 176.601535 
L 334.330794 173.87599 
L 335.638027 171.016195 
L 336.736347 168.143578 
L 337.310671 165.363727 
L 338.130498 162.454122 
L 338.647639 159.586764 
L 338.83974 156.784873 
L 339.182503 153.88257 
L 339.263537 151.03481 
L 339.086373 148.253348 
L 339.058902 145.369945 
L 337.847533 137.018081 
L 335.658315 128.902953 
L 332.648395 121.051008 
L 330.152571 116.037911 
L 327.378869 111.161587 
L 325.940882 108.740551 
L 324.37239 106.409144 
L 322.683596 104.16737 
L 321.090507 101.835589 
L 317.555222 97.44836 
L 315.675889 95.348998 
L 311.574378 91.486787 
L 309.559069 89.52165 
L 305.257281 85.890688 
L 300.624922 82.677033 
L 298.223082 81.199001 
L 293.178341 78.627757 
L 290.448788 77.679902 
L 284.891288 76.084301 
L 281.906771 75.700807 
L 278.797293 75.610428 
L 276.045728 75.006515 
L 272.996953 75.000182 
L 270.140631 74.74138 
L 267.246998 74.641335 
L 264.150174 75.055393 
L 261.242082 75.207577 
L 258.311414 75.527773 
L 255.221051 76.356802 
L 249.68866 76.897333 
L 247.052932 77.001733 
L 244.653949 76.525742 
L 242.412273 75.602993 
L 238.39627 72.052095 
L 236.509387 69.594194 
L 234.497545 67.365388 
L 232.39018 65.290297 
L 230.315129 62.803322 
L 228.092832 60.707782 
L 223.404194 56.954546 
L 220.931615 55.436926 
L 215.827604 52.736957 
L 213.188771 51.742488 
L 207.817408 49.988006 
L 205.08159 49.466936 
L 202.327806 49.124511 
L 199.56375 48.922964 
L 194.036765 49.205052 
L 188.552692 50.011721 
L 185.840476 50.619443 
L 180.519618 52.375177 
L 175.375722 54.759989 
L 172.858218 56.022587 
L 170.445081 57.67462 
L 165.676887 60.69706 
L 163.482917 62.764872 
L 161.279337 64.597812 
L 159.157991 66.565559 
L 157.297061 69.229079 
L 155.379123 71.490889 
L 153.564434 73.885472 
L 152.102576 77.078684 
L 150.34564 79.259628 
L 148.696231 81.57566 
L 147.140224 83.975099 
L 145.27591 85.544703 
L 143.262293 86.738324 
L 140.957871 87.317329 
L 138.51654 87.665292 
L 129.754334 86.563732 
L 126.514584 85.902959 
L 123.476753 85.712539 
L 120.548566 85.804474 
L 117.069477 85.174399 
L 110.842676 85.363106 
L 107.412465 85.188302 
L 98.373451 86.883285 
L 89.970537 89.952855 
L 84.775747 92.689184 
L 82.273495 94.211305 
L 77.412255 97.491488 
L 75.173492 99.346386 
L 70.862497 103.256968 
L 68.839504 105.344213 
L 65.050001 109.747229 
L 61.678221 114.472224 
L 60.147028 116.93891 
L 58.729357 119.474092 
L 57.425518 122.071921 
L 55.071052 127.383577 
L 54.085671 130.125121 
L 51.683968 138.519713 
L 50.608711 144.249525 
L 50.325144 147.180877 
L 50.169633 150.130159 
L 49.904614 153.005717 
L 50.041775 158.894553 
L 50.0833 161.776428 
L 51.049933 167.68303 
L 51.561946 170.576193 
L 53.752475 176.484044 
L 54.95132 179.367379 
L 58.665888 185.161158 
L 60.657648 187.955208 
L 63.429383 190.761989 
L 66.551734 193.497061 
L 70.023446 196.143879 
L 74.444484 198.727996 
L 80.465887 201.235533 
L 88.228891 203.589289 
L 98.988383 205.721638 
L 119.074003 207.477188 
L 113.636036 208.977061 
L 97.964979 211.025095 
L 89.060592 213.268413 
L 80.710046 215.788248 
L 76.204269 218.269744 
L 72.179243 220.865839 
L 67.593541 223.681092 
L 59.824122 232.117054 
L 58.434633 234.909909 
L 55.070932 240.835983 
L 54.213136 243.717166 
L 53.182953 246.699804 
L 52.42565 249.668359 
L 52.119374 252.555457 
L 51.679867 255.527574 
L 51.518945 258.453102 
L 51.615474 261.325956 
L 51.57121 264.286201 
L 51.856316 267.154865 
L 53.185612 275.734434 
L 54.508969 281.38629 
L 56.386499 286.841633 
L 57.396268 289.557622 
L 59.870579 294.767169 
L 61.21611 297.321196 
L 64.310683 302.182404 
L 67.785439 306.779267 
L 69.659024 308.969882 
L 73.610583 313.164444 
L 77.864612 317.055584 
L 80.102987 318.876151 
L 84.876114 322.164824 
L 87.331272 323.69732 
L 92.595385 326.277592 
L 95.370904 327.337346 
L 98.350641 328.098274 
L 101.142847 329.01688 
L 104.22009 329.511507 
L 107.550454 329.582956 
L 110.643727 329.8651 
L 117.753298 328.76617 
L 121.259189 328.055637 
L 125.496039 326.010304 
L 129.805701 323.574077 
L 134.237739 320.625157 
L 140.482248 314.063038 
L 147.139036 306.073734 
L 157.10612 290.804977 
L 165.082278 278.174682 
L 155.368049 302.255173 
L 151.612036 315.178501 
L 149.558089 325.283142 
L 149.812839 330.615013 
L 150.312381 335.78139 
L 151.049491 340.769018 
L 154.064107 347.51069 
L 155.758393 350.758053 
L 157.819496 353.056702 
L 159.888987 355.545417 
L 162.09419 357.759385 
L 166.853857 361.365133 
L 169.372157 362.799466 
L 174.597715 365.106528 
L 177.276931 366.056146 
L 185.55309 367.619768 
L 188.348764 367.858958 
L 193.962365 367.87986 
L 196.767633 367.66662 
L 199.56375 367.19969 
L 202.345575 366.847858 
L 205.107882 366.240356 
L 207.833408 365.271668 
L 210.547389 364.550546 
L 218.48114 361.546964 
L 221.040264 360.290523 
L 223.50753 358.652265 
L 226.005268 357.434487 
L 228.372522 355.685469 
L 233.064387 352.584387 
L 235.215352 350.467951 
L 237.393898 348.661221 
L 239.498516 346.746266 
L 241.366763 344.208682 
L 245.25114 340.163004 
L 247.052932 337.952642 
L 249.02739 336.334376 
L 251.06115 334.937726 
L 253.263935 333.986895 
L 255.594663 333.324678 
L 258.089325 332.985688 
L 260.835626 333.103151 
L 263.462411 332.885372 
L 278.135799 333.21875 
L 281.086928 333.011872 
L 284.198015 332.952646 
L 287.073252 332.453709 
L 289.89086 331.801789 
L 292.83209 331.248455 
L 300.755804 328.073181 
L 305.543992 325.180171 
L 307.881769 323.634042 
L 314.389779 318.363395 
L 318.34387 314.427288 
L 320.194376 312.339791 
L 321.947559 310.169397 
L 323.572654 307.897618 
L 326.49162 303.124198 
L 328.994335 298.105459 
L 330.164812 295.568716 
L 332.960701 287.630162 
L 334.69039 279.325297 
L 335.292685 273.676612 
L 335.42547 265.147066 
L 335.042059 262.213977 
L 334.72547 256.672031 
L 334.244609 253.851526 
L 333.679673 248.48054 
L 332.939591 245.722094 
L 331.817328 240.451708 
L 330.572078 237.722843 
L 329.774368 235.154309 
L 328.581655 232.555728 
L 326.980882 229.944266 
L 325.903124 227.487378 
L 324.300421 225.007783 
L 322.165281 222.530763 
L 320.294602 220.166511 
L 317.269941 217.775145 
L 310.612084 213.296984 
L 305.077143 211.161796 
L 299.563254 209.222685 
L 299.563254 209.222685 
" clip-path="url(#p5f151ac484)" style="fill: none; stroke: #ff0000; stroke-width: 1.5; stroke-linecap: square"/>
   </g>
   <g id="line2d_20">
    <path d="M 207.48375 207.477188 
L 273.010801 206.195164 
L 289.97243 204.320047 
L 299.689476 202.229821 
L 306.44454 200.003355 
L 311.573142 197.677635 
L 315.674234 195.273484 
L 319.046904 192.806501 
L 321.854153 190.290392 
L 324.204633 187.736011 
L 326.233576 185.14188 
L 327.951979 182.521044 
L 329.411251 179.877249 
L 330.643889 177.214953 
L 331.674307 174.538326 
L 332.521551 171.851252 
L 333.204603 169.15629 
L 333.73188 166.457874 
L 334.117043 163.758172 
L 334.368492 161.060192 
L 334.492055 158.367301 
L 334.384035 153.006257 
L 333.837231 147.694782 
L 332.888384 142.450419 
L 331.559653 137.293721 
L 329.878525 132.239917 
L 327.863223 127.306779 
L 325.53027 122.511697 
L 322.89682 117.870467 
L 319.978387 113.398962 
L 316.78485 109.117006 
L 313.333463 105.038478 
L 309.636083 101.181572 
L 305.705777 97.563901 
L 301.554973 94.204459 
L 297.195786 91.123857 
L 292.642064 88.342379 
L 287.906178 85.884267 
L 283.001329 83.77589 
L 277.943417 82.0435 
L 272.74425 80.724844 
L 270.096176 80.233323 
L 267.418767 79.860461 
L 264.714026 79.612571 
L 261.983154 79.498444 
L 259.22907 79.524495 
L 256.455097 79.69713 
L 253.661757 80.030269 
L 250.854598 80.527884 
L 248.036464 81.20145 
L 245.2119 82.059926 
L 242.388708 83.104479 
L 239.57221 84.34381 
L 236.786671 85.726497 
L 228.805281 90.195812 
L 226.397847 91.245944 
L 224.189314 91.623019 
L 222.179254 91.130505 
L 220.320658 89.758913 
L 218.536314 87.689134 
L 210.97509 77.044974 
L 208.860367 74.529373 
L 206.654406 72.179409 
L 204.364454 70.003018 
L 201.998434 67.994247 
L 199.56375 66.152342 
L 197.067565 64.470841 
L 194.516507 62.943058 
L 191.916521 61.559374 
L 189.273199 60.315452 
L 186.591533 59.20407 
L 183.876249 58.220589 
L 181.131374 57.357536 
L 178.361137 56.612757 
L 175.569156 55.981285 
L 169.93414 55.046059 
L 164.251536 54.523185 
L 158.544842 54.392538 
L 152.835403 54.63565 
L 147.142845 55.235825 
L 141.486977 56.182022 
L 135.883871 57.456793 
L 130.352486 59.053153 
L 124.907396 60.955843 
L 119.564097 63.153994 
L 114.338434 65.638442 
L 109.245498 68.399275 
L 104.298031 71.423641 
L 99.509301 74.700449 
L 94.895183 78.222271 
L 90.469502 81.978611 
L 86.241755 85.954226 
L 82.226039 90.139476 
L 78.43606 94.523789 
L 74.883022 99.093884 
L 71.581623 103.839304 
L 68.54407 108.746777 
L 65.781956 113.802167 
L 63.313066 118.994959 
L 61.150389 124.31005 
L 59.311042 129.733842 
L 57.813236 135.251693 
L 56.676997 140.848 
L 55.927699 146.507301 
L 55.595011 152.212766 
L 55.596363 155.077344 
L 55.715503 157.946264 
L 55.960713 160.817732 
L 56.340312 163.689388 
L 56.86001 166.557549 
L 57.530727 169.419554 
L 58.368697 172.273307 
L 59.384905 175.114351 
L 60.598288 177.939167 
L 62.035843 180.74447 
L 63.724633 183.525086 
L 65.707883 186.276501 
L 68.036997 188.992308 
L 70.787778 191.665486 
L 74.060509 194.286265 
L 78.064226 196.847357 
L 83.043634 199.329307 
L 89.515815 201.70982 
L 98.652425 203.953286 
L 113.944437 205.982697 
L 159.24313 207.477188 
L 118.010955 208.900697 
L 100.725675 210.928689 
L 90.906014 213.171698 
L 84.078364 215.552712 
L 78.879997 218.035648 
L 74.766323 220.593926 
L 71.383819 223.215704 
L 68.550578 225.889888 
L 66.163509 228.60571 
L 64.13592 231.356768 
L 62.40829 234.137508 
L 60.940045 236.942566 
L 59.698745 239.767568 
L 58.657388 242.609089 
L 57.802299 245.462054 
L 57.111903 248.324597 
L 56.577854 251.192363 
L 56.183971 254.064102 
L 55.927138 256.935239 
L 55.793869 259.805145 
L 55.783587 262.669221 
L 56.098056 268.374762 
L 56.831639 274.034264 
L 57.954055 279.630931 
L 59.439961 285.149072 
L 61.269716 290.572626 
L 63.420661 295.889543 
L 65.882574 301.081754 
L 68.633449 306.140246 
L 71.664354 311.048076 
L 74.957185 315.796022 
L 78.503935 320.367291 
L 82.285873 324.755064 
L 86.295742 328.942255 
L 90.517853 332.920142 
L 94.938128 336.679071 
L 99.547084 340.203787 
L 104.329344 343.486014 
L 109.270771 346.516183 
L 114.359522 349.280836 
L 119.579977 351.771733 
L 124.91731 353.979075 
L 130.358254 355.888853 
L 135.886004 357.492557 
L 141.485021 358.77745 
L 147.137513 359.734036 
L 152.827103 360.345873 
L 158.533962 360.602441 
L 164.238764 360.486511 
L 169.92013 359.980394 
L 175.555065 359.062059 
L 178.347081 358.441631 
L 181.117736 357.707919 
L 183.863124 356.858661 
L 186.579638 355.886267 
L 189.262727 354.788686 
L 191.90795 353.558554 
L 194.510315 352.188635 
L 197.06423 350.674578 
L 199.56375 349.009485 
L 202.002388 347.186652 
L 204.372932 345.194146 
L 206.667692 343.028473 
L 208.878836 340.68913 
L 210.998642 338.178605 
L 213.020023 335.505071 
L 216.780937 329.983836 
L 218.549124 327.346122 
L 220.301698 325.087936 
L 222.121962 323.529128 
L 224.081485 322.824061 
L 226.250479 323.070112 
L 228.626985 324.043456 
L 231.165585 325.416841 
L 236.579175 328.549186 
L 239.36977 329.987519 
L 242.190533 331.274353 
L 245.019581 332.366058 
L 247.849626 333.266196 
L 250.67361 333.978529 
L 253.485777 334.509522 
L 256.28412 334.873225 
L 259.064107 335.076116 
L 261.821615 335.124726 
L 264.556645 335.032926 
L 267.266271 334.80711 
L 269.947961 334.453666 
L 272.59958 333.978955 
L 277.807448 332.693279 
L 282.873112 330.988397 
L 287.784241 328.902276 
L 292.526108 326.463579 
L 297.088758 323.702966 
L 301.454517 320.638349 
L 305.612866 317.294262 
L 309.551651 313.691269 
L 313.258408 309.848317 
L 316.717938 305.781223 
L 319.91816 301.508358 
L 322.848237 297.04861 
L 325.489537 292.415203 
L 327.83313 287.628792 
L 329.859614 282.703539 
L 331.552422 277.656809 
L 332.890837 272.505153 
L 333.854687 267.267365 
L 334.416936 261.961411 
L 334.534363 259.287552 
L 334.54079 256.604812 
L 334.425272 253.913734 
L 334.18454 251.218134 
L 333.810191 248.520443 
L 333.293815 245.823666 
L 332.627015 243.131382 
L 331.790843 240.445104 
L 330.776872 237.770124 
L 329.56077 235.108907 
L 328.123465 232.466665 
L 326.421746 229.845675 
L 324.447275 227.256795 
L 322.097429 224.698173 
L 319.344924 222.184466 
L 316.027141 219.717983 
L 312.00822 217.314804 
L 306.989135 214.989102 
L 300.425464 212.763126 
L 291.118173 210.674338 
L 275.303335 208.799227 
L 275.303335 208.799227 
" clip-path="url(#p5f151ac484)" style="fill: none; stroke-dasharray: 5.55,2.4; stroke-dashoffset: 0; stroke: #0000ff; stroke-width: 1.5"/>
   </g>
   <g id="patch_3">
    <path d="M 365.88375 207.477188 
C 365.88375 185.636245 361.581561 164.007679 353.223394 143.829279 
C 344.865227 123.650879 332.613628 105.315066 317.16975 89.871188 
C 301.725871 74.427309 283.390058 62.17571 263.211658 53.817544 
C 243.033259 45.459377 221.404692 41.157187 199.56375 41.157187 
C 177.722808 41.157187 156.094241 45.459377 135.915842 53.817544 
C 115.737442 62.17571 97.401629 74.427309 81.95775 89.871188 
C 66.513872 105.315066 54.262273 123.650879 45.904106 143.829279 
C 37.545939 164.007679 33.24375 185.636245 33.24375 207.477187 
C 33.24375 229.31813 37.545939 250.946696 45.904106 271.125096 
C 54.262273 291.303496 66.513872 309.639309 81.95775 325.083187 
C 97.401629 340.527066 115.737442 352.778665 135.915842 361.136831 
C 156.094241 369.494998 177.722808 373.797188 199.56375 373.797188 
C 221.404692 373.797188 243.033259 369.494998 263.211658 361.136831 
C 283.390058 352.778665 301.725871 340.527066 317.16975 325.083187 
C 332.613628 309.639309 344.865227 291.303496 353.223394 271.125096 
C 361.581561 250.946696 365.88375 229.31813 365.88375 207.477188 
" style="fill: none; stroke: #000000; stroke-width: 0.8; stroke-linejoin: miter; stroke-linecap: square"/>
   </g>
   <g id="text_19">
    <!-- Radiation Diagram - 2AVHF06 -->
    <g transform="translate(110.319375 16.318125)scale(0.12 -0.12)">
     <defs>
      <path id="DejaVuSans-52" d="M 2841 2188 
Q 3044 2119 3236 1894 
Q 3428 1669 3622 1275 
L 4263 0 
L 3584 0 
L 2988 1197 
Q 2756 1666 2539 1819 
Q 2322 1972 1947 1972 
L 1259 1972 
L 1259 0 
L 628 0 
L 628 4666 
L 2053 4666 
Q 2853 4666 3247 4331 
Q 3641 3997 3641 3322 
Q 3641 2881 3436 2590 
Q 3231 2300 2841 2188 
z
M 1259 4147 
L 1259 2491 
L 2053 2491 
Q 2509 2491 2742 2702 
Q 2975 2913 2975 3322 
Q 2975 3731 2742 3939 
Q 2509 4147 2053 4147 
L 1259 4147 
z
" transform="scale(0.015625)"/>
      <path id="DejaVuSans-61" d="M 2194 1759 
Q 1497 1759 1228 1600 
Q 959 1441 959 1056 
Q 959 750 1161 570 
Q 1363 391 1709 391 
Q 2188 391 2477 730 
Q 2766 1069 2766 1631 
L 2766 1759 
L 2194 1759 
z
M 3341 1997 
L 3341 0 
L 2766 0 
L 2766 531 
Q 2569 213 2275 61 
Q 1981 -91 1556 -91 
Q 1019 -91 701 211 
Q 384 513 384 1019 
Q 384 1609 779 1909 
Q 1175 2209 1959 2209 
L 2766 2209 
L 2766 2266 
Q 2766 2663 2505 2880 
Q 2244 3097 1772 3097 
Q 1472 3097 1187 3025 
Q 903 2953 641 2809 
L 641 3341 
Q 956 3463 1253 3523 
Q 1550 3584 1831 3584 
Q 2591 3584 2966 3190 
Q 3341 2797 3341 1997 
z
" transform="scale(0.015625)"/>
      <path id="DejaVuSans-64" d="M 2906 2969 
L 2906 4863 
L 3481 4863 
L 3481 0 
L 2906 0 
L 2906 525 
Q 2725 213 2448 61 
Q 2172 -91 1784 -91 
Q 1150 -91 751 415 
Q 353 922 353 1747 
Q 353 2572 751 3078 
Q 1150 3584 1784 3584 
Q 2172 3584 2448 3432 
Q 2725 3281 2906 2969 
z
M 947 1747 
Q 947 1113 1208 752 
Q 1469 391 1925 391 
Q 2381 391 2643 752 
Q 2906 1113 2906 1747 
Q 2906 2381 2643 2742 
Q 2381 3103 1925 3103 
Q 1469 3103 1208 2742 
Q 947 2381 947 1747 
z
" transform="scale(0.015625)"/>
      <path id="DejaVuSans-69" d="M 603 3500 
L 1178 3500 
L 1178 0 
L 603 0 
L 603 3500 
z
M 603 4863 
L 1178 4863 
L 1178 4134 
L 603 4134 
L 603 4863 
z
" transform="scale(0.015625)"/>
      <path id="DejaVuSans-74" d="M 1172 4494 
L 1172 3500 
L 2356 3500 
L 2356 3053 
L 1172 3053 
L 1172 1153 
Q 1172 725 1289 603 
Q 1406 481 1766 481 
L 2356 481 
L 2356 0 
L 1766 0 
Q 1100 0 847 248 
Q 594 497 594 1153 
L 594 3053 
L 172 3053 
L 172 3500 
L 594 3500 
L 594 4494 
L 1172 4494 
z
" transform="scale(0.015625)"/>
      <path id="DejaVuSans-6f" d="M 1959 3097 
Q 1497 3097 1228 2736 
Q 959 2375 959 1747 
Q 959 1119 1226 758 
Q 1494 397 1959 397 
Q 2419 397 2687 759 
Q 2956 1122 2956 1747 
Q 2956 2369 2687 2733 
Q 2419 3097 1959 3097 
z
M 1959 3584 
Q 2709 3584 3137 3096 
Q 3566 2609 3566 1747 
Q 3566 888 3137 398 
Q 2709 -91 1959 -91 
Q 1206 -91 779 398 
Q 353 888 353 1747 
Q 353 2609 779 3096 
Q 1206 3584 1959 3584 
z
" transform="scale(0.015625)"/>
      <path id="DejaVuSans-6e" d="M 3513 2113 
L 3513 0 
L 2938 0 
L 2938 2094 
Q 2938 2591 2744 2837 
Q 2550 3084 2163 3084 
Q 1697 3084 1428 2787 
Q 1159 2491 1159 1978 
L 1159 0 
L 581 0 
L 581 3500 
L 1159 3500 
L 1159 2956 
Q 1366 3272 1645 3428 
Q 1925 3584 2291 3584 
Q 2894 3584 3203 3211 
Q 3513 2838 3513 2113 
z
" transform="scale(0.015625)"/>
      <path id="DejaVuSans-20" transform="scale(0.015625)"/>
      <path id="DejaVuSans-44" d="M 1259 4147 
L 1259 519 
L 2022 519 
Q 2988 519 3436 956 
Q 3884 1394 3884 2338 
Q 3884 3275 3436 3711 
Q 2988 4147 2022 4147 
L 1259 4147 
z
M 628 4666 
L 1925 4666 
Q 3281 4666 3915 4102 
Q 4550 3538 4550 2338 
Q 4550 1131 3912 565 
Q 3275 0 1925 0 
L 628 0 
L 628 4666 
z
" transform="scale(0.015625)"/>
      <path id="DejaVuSans-67" d="M 2906 1791 
Q 2906 2416 2648 2759 
Q 2391 3103 1925 3103 
Q 1463 3103 1205 2759 
Q 947 2416 947 1791 
Q 947 1169 1205 825 
Q 1463 481 1925 481 
Q 2391 481 2648 825 
Q 2906 1169 2906 1791 
z
M 3481 434 
Q 3481 -459 3084 -895 
Q 2688 -1331 1869 -1331 
Q 1566 -1331 1297 -1286 
Q 1028 -1241 775 -1147 
L 775 -588 
Q 1028 -725 1275 -790 
Q 1522 -856 1778 -856 
Q 2344 -856 2625 -561 
Q 2906 -266 2906 331 
L 2906 616 
Q 2728 306 2450 153 
Q 2172 0 1784 0 
Q 1141 0 747 490 
Q 353 981 353 1791 
Q 353 2603 747 3093 
Q 1141 3584 1784 3584 
Q 2172 3584 2450 3431 
Q 2728 3278 2906 2969 
L 2906 3500 
L 3481 3500 
L 3481 434 
z
" transform="scale(0.015625)"/>
      <path id="DejaVuSans-72" d="M 2631 2963 
Q 2534 3019 2420 3045 
Q 2306 3072 2169 3072 
Q 1681 3072 1420 2755 
Q 1159 2438 1159 1844 
L 1159 0 
L 581 0 
L 581 3500 
L 1159 3500 
L 1159 2956 
Q 1341 3275 1631 3429 
Q 1922 3584 2338 3584 
Q 2397 3584 2469 3576 
Q 2541 3569 2628 3553 
L 2631 2963 
z
" transform="scale(0.015625)"/>
      <path id="DejaVuSans-6d" d="M 3328 2828 
Q 3544 3216 3844 3400 
Q 4144 3584 4550 3584 
Q 5097 3584 5394 3201 
Q 5691 2819 5691 2113 
L 5691 0 
L 5113 0 
L 5113 2094 
Q 5113 2597 4934 2840 
Q 4756 3084 4391 3084 
Q 3944 3084 3684 2787 
Q 3425 2491 3425 1978 
L 3425 0 
L 2847 0 
L 2847 2094 
Q 2847 2600 2669 2842 
Q 2491 3084 2119 3084 
Q 1678 3084 1418 2786 
Q 1159 2488 1159 1978 
L 1159 0 
L 581 0 
L 581 3500 
L 1159 3500 
L 1159 2956 
Q 1356 3278 1631 3431 
Q 1906 3584 2284 3584 
Q 2666 3584 2933 3390 
Q 3200 3197 3328 2828 
z
" transform="scale(0.015625)"/>
      <path id="DejaVuSans-2d" d="M 313 2009 
L 1997 2009 
L 1997 1497 
L 313 1497 
L 313 2009 
z
" transform="scale(0.015625)"/>
      <path id="DejaVuSans-41" d="M 2188 4044 
L 1331 1722 
L 3047 1722 
L 2188 4044 
z
M 1831 4666 
L 2547 4666 
L 4325 0 
L 3669 0 
L 3244 1197 
L 1141 1197 
L 716 0 
L 50 0 
L 1831 4666 
z
" transform="scale(0.015625)"/>
      <path id="DejaVuSans-56" d="M 1831 0 
L 50 4666 
L 709 4666 
L 2188 738 
L 3669 4666 
L 4325 4666 
L 2547 0 
L 1831 0 
z
" transform="scale(0.015625)"/>
      <path id="DejaVuSans-48" d="M 628 4666 
L 1259 4666 
L 1259 2753 
L 3553 2753 
L 3553 4666 
L 4184 4666 
L 4184 0 
L 3553 0 
L 3553 2222 
L 1259 2222 
L 1259 0 
L 628 0 
L 628 4666 
z
" transform="scale(0.015625)"/>
      <path id="DejaVuSans-46" d="M 628 4666 
L 3309 4666 
L 3309 4134 
L 1259 4134 
L 1259 2759 
L 3109 2759 
L 3109 2228 
L 1259 2228 
L 1259 0 
L 628 0 
L 628 4666 
z
" transform="scale(0.015625)"/>
     </defs>
     <use xlink:href="#DejaVuSans-52"/>
     <use xlink:href="#DejaVuSans-61" x="67.232422"/>
     <use xlink:href="#DejaVuSans-64" x="128.511719"/>
     <use xlink:href="#DejaVuSans-69" x="191.988281"/>
     <use xlink:href="#DejaVuSans-61" x="219.771484"/>
     <use xlink:href="#DejaVuSans-74" x="281.050781"/>
     <use xlink:href="#DejaVuSans-69" x="320.259766"/>
     <use xlink:href="#DejaVuSans-6f" x="348.042969"/>
     <use xlink:href="#DejaVuSans-6e" x="409.224609"/>
     <use xlink:href="#DejaVuSans-20" x="472.603516"/>
     <use xlink:href="#DejaVuSans-44" x="504.390625"/>
     <use xlink:href="#DejaVuSans-69" x="581.392578"/>
     <use xlink:href="#DejaVuSans-61" x="609.175781"/>
     <use xlink:href="#DejaVuSans-67" x="670.455078"/>
     <use xlink:href="#DejaVuSans-72" x="733.931641"/>
     <use xlink:href="#DejaVuSans-61" x="775.044922"/>
     <use xlink:href="#DejaVuSans-6d" x="836.324219"/>
     <use xlink:href="#DejaVuSans-20" x="933.736328"/>
     <use xlink:href="#DejaVuSans-2d" x="965.523438"/>
     <use xlink:href="#DejaVuSans-20" x="1001.607422"/>
     <use xlink:href="#DejaVuSans-32" x="1033.394531"/>
     <use xlink:href="#DejaVuSans-41" x="1097.017578"/>
     <use xlink:href="#DejaVuSans-56" x="1159.050781"/>
     <use xlink:href="#DejaVuSans-48" x="1227.458984"/>
     <use xlink:href="#DejaVuSans-46" x="1302.654297"/>
     <use xlink:href="#DejaVuSans-30" x="1360.173828"/>
     <use xlink:href="#DejaVuSans-36" x="1423.796875"/>
    </g>
   </g>
   <g id="legend_1">
    <g id="patch_4">
     <path d="M 304.104062 78.513438 
L 358.88375 78.513438 
Q 360.88375 78.513438 360.88375 76.513438 
L 360.88375 48.157188 
Q 360.88375 46.157188 358.88375 46.157188 
L 304.104062 46.157188 
Q 302.104062 46.157188 302.104062 48.157188 
L 302.104062 76.513438 
Q 302.104062 78.513438 304.104062 78.513438 
z
" style="fill: #ffffff; opacity: 0.8; stroke: #cccccc; stroke-linejoin: miter"/>
    </g>
    <g id="line2d_21">
     <path d="M 306.104062 54.255625 
L 316.104062 54.255625 
L 326.104062 54.255625 
" style="fill: none; stroke: #ff0000; stroke-width: 1.5; stroke-linecap: square"/>
    </g>
    <g id="text_20">
     <!-- INPE -->
     <g transform="translate(334.104062 57.755625)scale(0.1 -0.1)">
      <defs>
       <path id="DejaVuSans-49" d="M 628 4666 
L 1259 4666 
L 1259 0 
L 628 0 
L 628 4666 
z
" transform="scale(0.015625)"/>
       <path id="DejaVuSans-4e" d="M 628 4666 
L 1478 4666 
L 3547 763 
L 3547 4666 
L 4159 4666 
L 4159 0 
L 3309 0 
L 1241 3903 
L 1241 0 
L 628 0 
L 628 4666 
z
" transform="scale(0.015625)"/>
       <path id="DejaVuSans-50" d="M 1259 4147 
L 1259 2394 
L 2053 2394 
Q 2494 2394 2734 2622 
Q 2975 2850 2975 3272 
Q 2975 3691 2734 3919 
Q 2494 4147 2053 4147 
L 1259 4147 
z
M 628 4666 
L 2053 4666 
Q 2838 4666 3239 4311 
Q 3641 3956 3641 3272 
Q 3641 2581 3239 2228 
Q 2838 1875 2053 1875 
L 1259 1875 
L 1259 0 
L 628 0 
L 628 4666 
z
" transform="scale(0.015625)"/>
       <path id="DejaVuSans-45" d="M 628 4666 
L 3578 4666 
L 3578 4134 
L 1259 4134 
L 1259 2753 
L 3481 2753 
L 3481 2222 
L 1259 2222 
L 1259 531 
L 3634 531 
L 3634 0 
L 628 0 
L 628 4666 
z
" transform="scale(0.015625)"/>
      </defs>
      <use xlink:href="#DejaVuSans-49"/>
      <use xlink:href="#DejaVuSans-4e" x="29.492188"/>
      <use xlink:href="#DejaVuSans-50" x="104.296875"/>
      <use xlink:href="#DejaVuSans-45" x="164.599609"/>
     </g>
    </g>
    <g id="line2d_22">
     <path d="M 306.104062 68.93375 
L 316.104062 68.93375 
L 326.104062 68.93375 
" style="fill: none; stroke-dasharray: 5.55,2.4; stroke-dashoffset: 0; stroke: #0000ff; stroke-width: 1.5"/>
    </g>
    <g id="text_21">
     <!-- CST -->
     <g transform="translate(334.104062 72.43375)scale(0.1 -0.1)">
      <defs>
       <path id="DejaVuSans-43" d="M 4122 4306 
L 4122 3641 
Q 3803 3938 3442 4084 
Q 3081 4231 2675 4231 
Q 1875 4231 1450 3742 
Q 1025 3253 1025 2328 
Q 1025 1406 1450 917 
Q 1875 428 2675 428 
Q 3081 428 3442 575 
Q 3803 722 4122 1019 
L 4122 359 
Q 3791 134 3420 21 
Q 3050 -91 2638 -91 
Q 1578 -91 968 557 
Q 359 1206 359 2328 
Q 359 3453 968 4101 
Q 1578 4750 2638 4750 
Q 3056 4750 3426 4639 
Q 3797 4528 4122 4306 
z
" transform="scale(0.015625)"/>
       <path id="DejaVuSans-53" d="M 3425 4513 
L 3425 3897 
Q 3066 4069 2747 4153 
Q 2428 4238 2131 4238 
Q 1616 4238 1336 4038 
Q 1056 3838 1056 3469 
Q 1056 3159 1242 3001 
Q 1428 2844 1947 2747 
L 2328 2669 
Q 3034 2534 3370 2195 
Q 3706 1856 3706 1288 
Q 3706 609 3251 259 
Q 2797 -91 1919 -91 
Q 1588 -91 1214 -16 
Q 841 59 441 206 
L 441 856 
Q 825 641 1194 531 
Q 1563 422 1919 422 
Q 2459 422 2753 634 
Q 3047 847 3047 1241 
Q 3047 1584 2836 1778 
Q 2625 1972 2144 2069 
L 1759 2144 
Q 1053 2284 737 2584 
Q 422 2884 422 3419 
Q 422 4038 858 4394 
Q 1294 4750 2059 4750 
Q 2388 4750 2728 4690 
Q 3069 4631 3425 4513 
z
" transform="scale(0.015625)"/>
       <path id="DejaVuSans-54" d="M -19 4666 
L 3928 4666 
L 3928 4134 
L 2272 4134 
L 2272 0 
L 1638 0 
L 1638 4134 
L -19 4134 
L -19 4666 
z
" transform="scale(0.015625)"/>
      </defs>
      <use xlink:href="#DejaVuSans-43"/>
      <use xlink:href="#DejaVuSans-53" x="69.824219"/>
      <use xlink:href="#DejaVuSans-54" x="133.300781"/>
     </g>
    </g>
   </g>
  </g>
 </g>
 <defs>
  <clipPath id="p5f151ac484">
   <path d="M 365.88375 207.477188 
C 365.88375 185.636245 361.581561 164.007679 353.223394 143.829279 
C 344.865227 123.650879 332.613628 105.315066 317.16975 89.871188 
C 301.725871 74.427309 283.390058 62.17571 263.211658 53.817544 
C 243.033259 45.459377 221.404692 41.157188 199.56375 41.157188 
C 177.722808 41.157188 156.094241 45.459377 135.915842 53.817544 
C 115.737442 62.17571 97.401629 74.427309 81.95775 89.871188 
C 66.513872 105.315066 54.262273 123.650879 45.904106 143.829279 
C 37.545939 164.007679 33.24375 185.636245 33.24375 207.477188 
C 33.24375 229.31813 37.545939 250.946696 45.904106 271.125096 
C 54.262273 291.303496 66.513872 309.639309 81.95775 325.083187 
C 97.401629 340.527066 115.737442 352.778665 135.915842 361.136831 
C 156.094241 369.494998 177.722808 373.797188 199.56375 373.797188 
C 221.404692 373.797188 243.033259 369.494998 263.211658 361.136831 
C 283.390058 352.778665 301.725871 340.527066 317.16975 325.083187 
C 332.613628 309.639309 344.865227 291.303496 353.223394 271.125096 
C 361.581561 250.946696 365.88375 229.31813 365.88375 207.477188 
M 199.56375 207.477188 
C 199.56375 207.477188 199.56375 207.477188 199.56375 207.477188 
C 199.56375 207.477188 199.56375 207.477188 199.56375 207.477188 
C 199.56375 207.477188 199.56375 207.477188 199.56375 207.477188 
C 199.56375 207.477188 199.56375 207.477188 199.56375 207.477188 
C 199.56375 207.477188 199.56375 207.477188 199.56375 207.477188 
C 199.56375 207.477188 199.56375 207.477188 199.56375 207.477188 
C 199.56375 207.477188 199.56375 207.477188 199.56375 207.477188 
C 199.56375 207.477188 199.56375 207.477188 199.56375 207.477188 
C 199.56375 207.477188 199.56375 207.477188 199.56375 207.477188 
C 199.56375 207.477188 199.56375 207.477188 199.56375 207.477188 
C 199.56375 207.477188 199.56375 207.477188 199.56375 207.477188 
C 199.56375 207.477188 199.56375 207.477188 199.56375 207.477188 
C 199.56375 207.477188 199.56375 207.477188 199.56375 207.477188 
C 199.56375 207.477188 199.56375 207.477188 199.56375 207.477188 
C 199.56375 207.477188 199.56375 207.477188 199.56375 207.477188 
C 199.56375 207.477188 199.56375 207.477188 199.56375 207.477188 
M 365.88375 207.477188 
z
"/>
  </clipPath>
 </defs>
</svg>
