<?xml version="1.0" encoding="utf-8" standalone="no"?>
<!DOCTYPE svg PUBLIC "-//W3C//DTD SVG 1.1//EN"
  "http://www.w3.org/Graphics/SVG/1.1/DTD/svg11.dtd">
<svg xmlns:xlink="http://www.w3.org/1999/xlink" width="392.765pt" height="399.83625pt" viewBox="0 0 392.765 399.83625" xmlns="http://www.w3.org/2000/svg" version="1.1">
 <metadata>
  <rdf:RDF xmlns:dc="http://purl.org/dc/elements/1.1/" xmlns:cc="http://creativecommons.org/ns#" xmlns:rdf="http://www.w3.org/1999/02/22-rdf-syntax-ns#">
   <cc:Work>
    <dc:type rdf:resource="http://purl.org/dc/dcmitype/StillImage"/>
    <dc:date>2023-10-31T22:40:16.882456</dc:date>
    <dc:format>image/svg+xml</dc:format>
    <dc:creator>
     <cc:Agent>
      <dc:title>Matplotlib v3.5.1, https://matplotlib.org/</dc:title>
     </cc:Agent>
    </dc:creator>
   </cc:Work>
  </rdf:RDF>
 </metadata>
 <defs>
  <style type="text/css">*{stroke-linejoin: round; stroke-linecap: butt}</style>
 </defs>
 <g id="figure_1">
  <g id="patch_1">
   <path d="M 0 399.83625 
L 392.765 399.83625 
L 392.765 0 
L 0 0 
z
" style="fill: #ffffff"/>
  </g>
  <g id="axes_1">
   <g id="patch_2">
    <path d="M 365.88375 207.477188 
C 365.88375 185.636245 361.581561 164.007679 353.223394 143.829279 
C 344.865227 123.650879 332.613628 105.315066 317.16975 89.871188 
C 301.725871 74.427309 283.390058 62.17571 263.211658 53.817544 
C 243.033259 45.459377 221.404692 41.157188 199.56375 41.157188 
C 177.722808 41.157188 156.094241 45.459377 135.915842 53.817544 
C 115.737442 62.17571 97.401629 74.427309 81.95775 89.871188 
C 66.513872 105.315066 54.262273 123.650879 45.904106 143.829279 
C 37.545939 164.007679 33.24375 185.636245 33.24375 207.477188 
C 33.24375 229.31813 37.545939 250.946696 45.904106 271.125096 
C 54.262273 291.303496 66.513872 309.639309 81.95775 325.083187 
C 97.401629 340.527066 115.737442 352.778665 135.915842 361.136831 
C 156.094241 369.494998 177.722808 373.797188 199.56375 373.797188 
C 221.404692 373.797188 243.033259 369.494998 263.211658 361.136831 
C 283.390058 352.778665 301.725871 340.527066 317.16975 325.083187 
C 332.613628 309.639309 344.865227 291.303496 353.223394 271.125096 
C 361.581561 250.946696 365.88375 229.31813 365.88375 207.477188 
M 199.56375 207.477188 
C 199.56375 207.477188 199.56375 207.477188 199.56375 207.477188 
C 199.56375 207.477188 199.56375 207.477188 199.56375 207.477188 
C 199.56375 207.477188 199.56375 207.477188 199.56375 207.477188 
C 199.56375 207.477188 199.56375 207.477188 199.56375 207.477188 
C 199.56375 207.477188 199.56375 207.477188 199.56375 207.477188 
C 199.56375 207.477188 199.56375 207.477188 199.56375 207.477188 
C 199.56375 207.477188 199.56375 207.477188 199.56375 207.477188 
C 199.56375 207.477188 199.56375 207.477188 199.56375 207.477188 
C 199.56375 207.477188 199.56375 207.477188 199.56375 207.477188 
C 199.56375 207.477188 199.56375 207.477188 199.56375 207.477188 
C 199.56375 207.477188 199.56375 207.477188 199.56375 207.477188 
C 199.56375 207.477188 199.56375 207.477188 199.56375 207.477188 
C 199.56375 207.477188 199.56375 207.477188 199.56375 207.477188 
C 199.56375 207.477188 199.56375 207.477188 199.56375 207.477188 
C 199.56375 207.477188 199.56375 207.477188 199.56375 207.477188 
C 199.56375 207.477188 199.56375 207.477188 199.56375 207.477188 
M 365.88375 207.477188 
z
" style="fill: #ffffff"/>
   </g>
   <g id="matplotlib.axis_1">
    <g id="xtick_1">
     <g id="line2d_1">
      <path d="M 199.56375 207.477188 
L 365.88375 207.477188 
" clip-path="url(#pdcdf2349ed)" style="fill: none; stroke: #b0b0b0; stroke-width: 0.8; stroke-linecap: square"/>
     </g>
     <g id="text_1">
      <!-- 0° -->
      <g transform="translate(374.2025 210.236563)scale(0.1 -0.1)">
       <defs>
        <path id="DejaVuSans-30" d="M 2034 4250 
Q 1547 4250 1301 3770 
Q 1056 3291 1056 2328 
Q 1056 1369 1301 889 
Q 1547 409 2034 409 
Q 2525 409 2770 889 
Q 3016 1369 3016 2328 
Q 3016 3291 2770 3770 
Q 2525 4250 2034 4250 
z
M 2034 4750 
Q 2819 4750 3233 4129 
Q 3647 3509 3647 2328 
Q 3647 1150 3233 529 
Q 2819 -91 2034 -91 
Q 1250 -91 836 529 
Q 422 1150 422 2328 
Q 422 3509 836 4129 
Q 1250 4750 2034 4750 
z
" transform="scale(0.015625)"/>
        <path id="DejaVuSans-b0" d="M 1600 4347 
Q 1350 4347 1178 4173 
Q 1006 4000 1006 3750 
Q 1006 3503 1178 3333 
Q 1350 3163 1600 3163 
Q 1850 3163 2022 3333 
Q 2194 3503 2194 3750 
Q 2194 3997 2020 4172 
Q 1847 4347 1600 4347 
z
M 1600 4750 
Q 1800 4750 1984 4673 
Q 2169 4597 2303 4453 
Q 2447 4313 2519 4134 
Q 2591 3956 2591 3750 
Q 2591 3338 2302 3052 
Q 2013 2766 1594 2766 
Q 1172 2766 890 3047 
Q 609 3328 609 3750 
Q 609 4169 896 4459 
Q 1184 4750 1600 4750 
z
" transform="scale(0.015625)"/>
       </defs>
       <use xlink:href="#DejaVuSans-30"/>
       <use xlink:href="#DejaVuSans-b0" x="63.623047"/>
      </g>
     </g>
    </g>
    <g id="xtick_2">
     <g id="line2d_2">
      <path d="M 199.56375 207.477188 
L 317.16975 89.871188 
" clip-path="url(#pdcdf2349ed)" style="fill: none; stroke: #b0b0b0; stroke-width: 0.8; stroke-linecap: square"/>
     </g>
     <g id="text_2">
      <!-- 45° -->
      <g transform="translate(318.206745 82.731068)scale(0.1 -0.1)">
       <defs>
        <path id="DejaVuSans-34" d="M 2419 4116 
L 825 1625 
L 2419 1625 
L 2419 4116 
z
M 2253 4666 
L 3047 4666 
L 3047 1625 
L 3713 1625 
L 3713 1100 
L 3047 1100 
L 3047 0 
L 2419 0 
L 2419 1100 
L 313 1100 
L 313 1709 
L 2253 4666 
z
" transform="scale(0.015625)"/>
        <path id="DejaVuSans-35" d="M 691 4666 
L 3169 4666 
L 3169 4134 
L 1269 4134 
L 1269 2991 
Q 1406 3038 1543 3061 
Q 1681 3084 1819 3084 
Q 2600 3084 3056 2656 
Q 3513 2228 3513 1497 
Q 3513 744 3044 326 
Q 2575 -91 1722 -91 
Q 1428 -91 1123 -41 
Q 819 9 494 109 
L 494 744 
Q 775 591 1075 516 
Q 1375 441 1709 441 
Q 2250 441 2565 725 
Q 2881 1009 2881 1497 
Q 2881 1984 2565 2268 
Q 2250 2553 1709 2553 
Q 1456 2553 1204 2497 
Q 953 2441 691 2322 
L 691 4666 
z
" transform="scale(0.015625)"/>
       </defs>
       <use xlink:href="#DejaVuSans-34"/>
       <use xlink:href="#DejaVuSans-35" x="63.623047"/>
       <use xlink:href="#DejaVuSans-b0" x="127.246094"/>
      </g>
     </g>
    </g>
    <g id="xtick_3">
     <g id="line2d_3">
      <path d="M 199.56375 207.477188 
L 199.56375 41.157187 
" clip-path="url(#pdcdf2349ed)" style="fill: none; stroke: #b0b0b0; stroke-width: 0.8; stroke-linecap: square"/>
     </g>
     <g id="text_3">
      <!-- 90° -->
      <g transform="translate(190.70125 29.916562)scale(0.1 -0.1)">
       <defs>
        <path id="DejaVuSans-39" d="M 703 97 
L 703 672 
Q 941 559 1184 500 
Q 1428 441 1663 441 
Q 2288 441 2617 861 
Q 2947 1281 2994 2138 
Q 2813 1869 2534 1725 
Q 2256 1581 1919 1581 
Q 1219 1581 811 2004 
Q 403 2428 403 3163 
Q 403 3881 828 4315 
Q 1253 4750 1959 4750 
Q 2769 4750 3195 4129 
Q 3622 3509 3622 2328 
Q 3622 1225 3098 567 
Q 2575 -91 1691 -91 
Q 1453 -91 1209 -44 
Q 966 3 703 97 
z
M 1959 2075 
Q 2384 2075 2632 2365 
Q 2881 2656 2881 3163 
Q 2881 3666 2632 3958 
Q 2384 4250 1959 4250 
Q 1534 4250 1286 3958 
Q 1038 3666 1038 3163 
Q 1038 2656 1286 2365 
Q 1534 2075 1959 2075 
z
" transform="scale(0.015625)"/>
       </defs>
       <use xlink:href="#DejaVuSans-39"/>
       <use xlink:href="#DejaVuSans-30" x="63.623047"/>
       <use xlink:href="#DejaVuSans-b0" x="127.246094"/>
      </g>
     </g>
    </g>
    <g id="xtick_4">
     <g id="line2d_4">
      <path d="M 199.56375 207.477188 
L 81.95775 89.871188 
" clip-path="url(#pdcdf2349ed)" style="fill: none; stroke: #b0b0b0; stroke-width: 0.8; stroke-linecap: square"/>
     </g>
     <g id="text_4">
      <!-- 135° -->
      <g transform="translate(60.014505 82.731068)scale(0.1 -0.1)">
       <defs>
        <path id="DejaVuSans-31" d="M 794 531 
L 1825 531 
L 1825 4091 
L 703 3866 
L 703 4441 
L 1819 4666 
L 2450 4666 
L 2450 531 
L 3481 531 
L 3481 0 
L 794 0 
L 794 531 
z
" transform="scale(0.015625)"/>
        <path id="DejaVuSans-33" d="M 2597 2516 
Q 3050 2419 3304 2112 
Q 3559 1806 3559 1356 
Q 3559 666 3084 287 
Q 2609 -91 1734 -91 
Q 1441 -91 1130 -33 
Q 819 25 488 141 
L 488 750 
Q 750 597 1062 519 
Q 1375 441 1716 441 
Q 2309 441 2620 675 
Q 2931 909 2931 1356 
Q 2931 1769 2642 2001 
Q 2353 2234 1838 2234 
L 1294 2234 
L 1294 2753 
L 1863 2753 
Q 2328 2753 2575 2939 
Q 2822 3125 2822 3475 
Q 2822 3834 2567 4026 
Q 2313 4219 1838 4219 
Q 1578 4219 1281 4162 
Q 984 4106 628 3988 
L 628 4550 
Q 988 4650 1302 4700 
Q 1616 4750 1894 4750 
Q 2613 4750 3031 4423 
Q 3450 4097 3450 3541 
Q 3450 3153 3228 2886 
Q 3006 2619 2597 2516 
z
" transform="scale(0.015625)"/>
       </defs>
       <use xlink:href="#DejaVuSans-31"/>
       <use xlink:href="#DejaVuSans-33" x="63.623047"/>
       <use xlink:href="#DejaVuSans-35" x="127.246094"/>
       <use xlink:href="#DejaVuSans-b0" x="190.869141"/>
      </g>
     </g>
    </g>
    <g id="xtick_5">
     <g id="line2d_5">
      <path d="M 199.56375 207.477188 
L 33.24375 207.477187 
" clip-path="url(#pdcdf2349ed)" style="fill: none; stroke: #b0b0b0; stroke-width: 0.8; stroke-linecap: square"/>
     </g>
     <g id="text_5">
      <!-- 180° -->
      <g transform="translate(7.2 210.236562)scale(0.1 -0.1)">
       <defs>
        <path id="DejaVuSans-38" d="M 2034 2216 
Q 1584 2216 1326 1975 
Q 1069 1734 1069 1313 
Q 1069 891 1326 650 
Q 1584 409 2034 409 
Q 2484 409 2743 651 
Q 3003 894 3003 1313 
Q 3003 1734 2745 1975 
Q 2488 2216 2034 2216 
z
M 1403 2484 
Q 997 2584 770 2862 
Q 544 3141 544 3541 
Q 544 4100 942 4425 
Q 1341 4750 2034 4750 
Q 2731 4750 3128 4425 
Q 3525 4100 3525 3541 
Q 3525 3141 3298 2862 
Q 3072 2584 2669 2484 
Q 3125 2378 3379 2068 
Q 3634 1759 3634 1313 
Q 3634 634 3220 271 
Q 2806 -91 2034 -91 
Q 1263 -91 848 271 
Q 434 634 434 1313 
Q 434 1759 690 2068 
Q 947 2378 1403 2484 
z
M 1172 3481 
Q 1172 3119 1398 2916 
Q 1625 2713 2034 2713 
Q 2441 2713 2670 2916 
Q 2900 3119 2900 3481 
Q 2900 3844 2670 4047 
Q 2441 4250 2034 4250 
Q 1625 4250 1398 4047 
Q 1172 3844 1172 3481 
z
" transform="scale(0.015625)"/>
       </defs>
       <use xlink:href="#DejaVuSans-31"/>
       <use xlink:href="#DejaVuSans-38" x="63.623047"/>
       <use xlink:href="#DejaVuSans-30" x="127.246094"/>
       <use xlink:href="#DejaVuSans-b0" x="190.869141"/>
      </g>
     </g>
    </g>
    <g id="xtick_6">
     <g id="line2d_6">
      <path d="M 199.56375 207.477188 
L 81.95775 325.083187 
" clip-path="url(#pdcdf2349ed)" style="fill: none; stroke: #b0b0b0; stroke-width: 0.8; stroke-linecap: square"/>
     </g>
     <g id="text_6">
      <!-- 225° -->
      <g transform="translate(60.014505 337.742057)scale(0.1 -0.1)">
       <defs>
        <path id="DejaVuSans-32" d="M 1228 531 
L 3431 531 
L 3431 0 
L 469 0 
L 469 531 
Q 828 903 1448 1529 
Q 2069 2156 2228 2338 
Q 2531 2678 2651 2914 
Q 2772 3150 2772 3378 
Q 2772 3750 2511 3984 
Q 2250 4219 1831 4219 
Q 1534 4219 1204 4116 
Q 875 4013 500 3803 
L 500 4441 
Q 881 4594 1212 4672 
Q 1544 4750 1819 4750 
Q 2544 4750 2975 4387 
Q 3406 4025 3406 3419 
Q 3406 3131 3298 2873 
Q 3191 2616 2906 2266 
Q 2828 2175 2409 1742 
Q 1991 1309 1228 531 
z
" transform="scale(0.015625)"/>
       </defs>
       <use xlink:href="#DejaVuSans-32"/>
       <use xlink:href="#DejaVuSans-32" x="63.623047"/>
       <use xlink:href="#DejaVuSans-35" x="127.246094"/>
       <use xlink:href="#DejaVuSans-b0" x="190.869141"/>
      </g>
     </g>
    </g>
    <g id="xtick_7">
     <g id="line2d_7">
      <path d="M 199.56375 207.477188 
L 199.56375 373.797188 
" clip-path="url(#pdcdf2349ed)" style="fill: none; stroke: #b0b0b0; stroke-width: 0.8; stroke-linecap: square"/>
     </g>
     <g id="text_7">
      <!-- 270° -->
      <g transform="translate(187.52 390.556563)scale(0.1 -0.1)">
       <defs>
        <path id="DejaVuSans-37" d="M 525 4666 
L 3525 4666 
L 3525 4397 
L 1831 0 
L 1172 0 
L 2766 4134 
L 525 4134 
L 525 4666 
z
" transform="scale(0.015625)"/>
       </defs>
       <use xlink:href="#DejaVuSans-32"/>
       <use xlink:href="#DejaVuSans-37" x="63.623047"/>
       <use xlink:href="#DejaVuSans-30" x="127.246094"/>
       <use xlink:href="#DejaVuSans-b0" x="190.869141"/>
      </g>
     </g>
    </g>
    <g id="xtick_8">
     <g id="line2d_8">
      <path d="M 199.56375 207.477188 
L 317.16975 325.083187 
" clip-path="url(#pdcdf2349ed)" style="fill: none; stroke: #b0b0b0; stroke-width: 0.8; stroke-linecap: square"/>
     </g>
     <g id="text_8">
      <!-- 315° -->
      <g transform="translate(315.025495 337.742057)scale(0.1 -0.1)">
       <use xlink:href="#DejaVuSans-33"/>
       <use xlink:href="#DejaVuSans-31" x="63.623047"/>
       <use xlink:href="#DejaVuSans-35" x="127.246094"/>
       <use xlink:href="#DejaVuSans-b0" x="190.869141"/>
      </g>
     </g>
    </g>
   </g>
   <g id="matplotlib.axis_2">
    <g id="ytick_1">
     <g id="line2d_9">
      <path d="M 268.654139 207.477188 
C 268.654139 198.404321 266.866982 189.419676 263.394946 181.03744 
C 259.922911 172.655204 254.833518 165.03839 248.418033 158.622905 
C 242.002547 152.207419 234.385733 147.118027 226.003497 143.645991 
C 217.621261 140.173955 208.636617 138.386798 199.56375 138.386798 
C 190.490883 138.386798 181.506239 140.173955 173.124003 143.645991 
C 164.741767 147.118027 157.124953 152.207419 150.709467 158.622905 
C 144.293982 165.03839 139.204589 172.655204 135.732554 181.03744 
C 132.260518 189.419676 130.473361 198.404321 130.473361 207.477188 
C 130.473361 216.550054 132.260518 225.534699 135.732554 233.916935 
C 139.204589 242.299171 144.293982 249.915985 150.709467 256.33147 
C 157.124953 262.746956 164.741767 267.836348 173.124003 271.308384 
C 181.506239 274.78042 190.490883 276.567577 199.56375 276.567577 
C 208.636617 276.567577 217.621261 274.78042 226.003497 271.308384 
C 234.385733 267.836348 242.002547 262.746956 248.418033 256.33147 
C 254.833518 249.915985 259.922911 242.299171 263.394946 233.916935 
C 266.866982 225.534699 268.654139 216.550054 268.654139 207.477188 
" clip-path="url(#pdcdf2349ed)" style="fill: none; stroke: #b0b0b0; stroke-width: 0.8; stroke-linecap: square"/>
     </g>
     <g id="text_9">
      <!-- −30 -->
      <g transform="translate(263.394946 178.957753)scale(0.1 -0.1)">
       <defs>
        <path id="DejaVuSans-2212" d="M 678 2272 
L 4684 2272 
L 4684 1741 
L 678 1741 
L 678 2272 
z
" transform="scale(0.015625)"/>
       </defs>
       <use xlink:href="#DejaVuSans-2212"/>
       <use xlink:href="#DejaVuSans-33" x="83.789062"/>
       <use xlink:href="#DejaVuSans-30" x="147.412109"/>
      </g>
     </g>
    </g>
    <g id="ytick_2">
     <g id="line2d_10">
      <path d="M 278.3771 207.477188 
C 278.3771 197.127513 276.33844 186.878476 272.377791 177.316624 
C 268.417142 167.754772 262.611529 159.066058 255.293204 151.747733 
C 247.97488 144.429408 239.286166 138.623795 229.724313 134.663146 
C 220.162461 130.702497 209.913424 128.663837 199.56375 128.663837 
C 189.214076 128.663837 178.965039 130.702497 169.403187 134.663146 
C 159.841334 138.623795 151.15262 144.429408 143.834296 151.747733 
C 136.515971 159.066058 130.710358 167.754772 126.749709 177.316624 
C 122.78906 186.878476 120.7504 197.127513 120.7504 207.477188 
C 120.7504 217.826862 122.78906 228.075899 126.749709 237.637751 
C 130.710358 247.199603 136.515971 255.888317 143.834296 263.206642 
C 151.15262 270.524967 159.841334 276.33058 169.403187 280.291229 
C 178.965039 284.251878 189.214076 286.290538 199.56375 286.290538 
C 209.913424 286.290538 220.162461 284.251878 229.724313 280.291229 
C 239.286166 276.33058 247.97488 270.524967 255.293204 263.206642 
C 262.611529 255.888317 268.417142 247.199603 272.377791 237.637751 
C 276.33844 228.075899 278.3771 217.826862 278.3771 207.477188 
" clip-path="url(#pdcdf2349ed)" style="fill: none; stroke: #b0b0b0; stroke-width: 0.8; stroke-linecap: square"/>
     </g>
     <g id="text_10">
      <!-- −27 -->
      <g transform="translate(272.377791 175.236937)scale(0.1 -0.1)">
       <use xlink:href="#DejaVuSans-2212"/>
       <use xlink:href="#DejaVuSans-32" x="83.789062"/>
       <use xlink:href="#DejaVuSans-37" x="147.412109"/>
      </g>
     </g>
    </g>
    <g id="ytick_3">
     <g id="line2d_11">
      <path d="M 288.100061 207.477188 
C 288.100061 195.850706 285.809898 184.337277 281.360636 173.595808 
C 276.911374 162.854339 270.38954 153.093726 262.168376 144.872561 
C 253.947212 136.651397 244.186598 130.129564 233.44513 125.680302 
C 222.703661 121.23104 211.190232 118.940876 199.56375 118.940876 
C 187.937268 118.940876 176.423839 121.23104 165.68237 125.680302 
C 154.940902 130.129564 145.180288 136.651397 136.959124 144.872561 
C 128.73796 153.093726 122.216126 162.854339 117.766864 173.595808 
C 113.317602 184.337277 111.027439 195.850706 111.027439 207.477188 
C 111.027439 219.103669 113.317602 230.617098 117.766864 241.358567 
C 122.216126 252.100036 128.73796 261.860649 136.959124 270.081814 
C 145.180288 278.302978 154.940902 284.824811 165.68237 289.274073 
C 176.423839 293.723335 187.937268 296.013499 199.56375 296.013499 
C 211.190232 296.013499 222.703661 293.723335 233.44513 289.274073 
C 244.186598 284.824811 253.947212 278.302978 262.168376 270.081814 
C 270.38954 261.860649 276.911374 252.100036 281.360636 241.358567 
C 285.809898 230.617098 288.100061 219.103669 288.100061 207.477188 
" clip-path="url(#pdcdf2349ed)" style="fill: none; stroke: #b0b0b0; stroke-width: 0.8; stroke-linecap: square"/>
     </g>
     <g id="text_11">
      <!-- −24 -->
      <g transform="translate(281.360636 171.51612)scale(0.1 -0.1)">
       <use xlink:href="#DejaVuSans-2212"/>
       <use xlink:href="#DejaVuSans-32" x="83.789062"/>
       <use xlink:href="#DejaVuSans-34" x="147.412109"/>
      </g>
     </g>
    </g>
    <g id="ytick_4">
     <g id="line2d_12">
      <path d="M 297.823022 207.477188 
C 297.823022 194.573898 295.281356 181.796077 290.343481 169.874992 
C 285.405606 157.953907 278.167551 147.121393 269.043548 137.99739 
C 259.919544 128.873386 249.087031 121.635332 237.165946 116.697457 
C 225.244861 111.759582 212.467039 109.217915 199.56375 109.217915 
C 186.660461 109.217915 173.882639 111.759582 161.961554 116.697457 
C 150.040469 121.635332 139.207956 128.873386 130.083952 137.99739 
C 120.959949 147.121393 113.721894 157.953907 108.784019 169.874992 
C 103.846144 181.796077 101.304478 194.573898 101.304478 207.477188 
C 101.304478 220.380477 103.846144 233.158298 108.784019 245.079383 
C 113.721894 257.000468 120.959949 267.832982 130.083952 276.956985 
C 139.207956 286.080989 150.040469 293.319043 161.961554 298.256918 
C 173.882639 303.194793 186.660461 305.73646 199.56375 305.73646 
C 212.467039 305.73646 225.244861 303.194793 237.165946 298.256918 
C 249.087031 293.319043 259.919544 286.080989 269.043548 276.956985 
C 278.167551 267.832982 285.405606 257.000468 290.343481 245.079383 
C 295.281356 233.158298 297.823022 220.380477 297.823022 207.477188 
" clip-path="url(#pdcdf2349ed)" style="fill: none; stroke: #b0b0b0; stroke-width: 0.8; stroke-linecap: square"/>
     </g>
     <g id="text_12">
      <!-- −21 -->
      <g transform="translate(290.343481 167.795304)scale(0.1 -0.1)">
       <use xlink:href="#DejaVuSans-2212"/>
       <use xlink:href="#DejaVuSans-32" x="83.789062"/>
       <use xlink:href="#DejaVuSans-31" x="147.412109"/>
      </g>
     </g>
    </g>
    <g id="ytick_5">
     <g id="line2d_13">
      <path d="M 307.545983 207.477188 
C 307.545983 193.297091 304.752814 179.254877 299.326325 166.154176 
C 293.899837 153.053474 285.945562 141.149061 275.91872 131.122218 
C 265.891877 121.095375 253.987463 113.1411 240.886762 107.714612 
C 227.78606 102.288124 213.743847 99.494954 199.56375 99.494954 
C 185.383653 99.494954 171.34144 102.288124 158.240738 107.714612 
C 145.140037 113.1411 133.235623 121.095375 123.20878 131.122218 
C 113.181938 141.149061 105.227663 153.053474 99.801175 166.154176 
C 94.374686 179.254877 91.581517 193.297091 91.581517 207.477188 
C 91.581517 221.657284 94.374686 235.699498 99.801175 248.800199 
C 105.227663 261.900901 113.181938 273.805314 123.20878 283.832157 
C 133.235623 293.859 145.140037 301.813275 158.240738 307.239763 
C 171.34144 312.666251 185.383653 315.459421 199.56375 315.459421 
C 213.743847 315.459421 227.78606 312.666251 240.886762 307.239763 
C 253.987463 301.813275 265.891877 293.859 275.91872 283.832157 
C 285.945562 273.805314 293.899837 261.900901 299.326325 248.800199 
C 304.752814 235.699498 307.545983 221.657284 307.545983 207.477188 
" clip-path="url(#pdcdf2349ed)" style="fill: none; stroke: #b0b0b0; stroke-width: 0.8; stroke-linecap: square"/>
     </g>
     <g id="text_13">
      <!-- −18 -->
      <g transform="translate(299.326325 164.074488)scale(0.1 -0.1)">
       <use xlink:href="#DejaVuSans-2212"/>
       <use xlink:href="#DejaVuSans-31" x="83.789062"/>
       <use xlink:href="#DejaVuSans-38" x="147.412109"/>
      </g>
     </g>
    </g>
    <g id="ytick_6">
     <g id="line2d_14">
      <path d="M 317.268945 207.477188 
C 317.268945 192.020283 314.224271 176.713677 308.30917 162.43336 
C 302.394069 148.153042 293.723573 135.176728 282.793891 124.247046 
C 271.864209 113.317364 258.887896 104.646869 244.607578 98.731767 
C 230.32726 92.816666 215.020655 89.771993 199.56375 89.771993 
C 184.106845 89.771993 168.80024 92.816666 154.519922 98.731767 
C 140.239604 104.646869 127.263291 113.317364 116.333609 124.247046 
C 105.403927 135.176728 96.733431 148.153042 90.81833 162.43336 
C 84.903229 176.713677 81.858555 192.020283 81.858555 207.477187 
C 81.858555 222.934092 84.903229 238.240698 90.81833 252.521015 
C 96.733431 266.801333 105.403927 279.777647 116.333609 290.707329 
C 127.263291 301.637011 140.239604 310.307506 154.519922 316.222608 
C 168.80024 322.137709 184.106845 325.182382 199.56375 325.182382 
C 215.020655 325.182382 230.32726 322.137709 244.607578 316.222608 
C 258.887896 310.307506 271.864209 301.637011 282.793891 290.707329 
C 293.723573 279.777647 302.394069 266.801333 308.30917 252.521015 
C 314.224271 238.240698 317.268945 222.934092 317.268945 207.477188 
" clip-path="url(#pdcdf2349ed)" style="fill: none; stroke: #b0b0b0; stroke-width: 0.8; stroke-linecap: square"/>
     </g>
     <g id="text_14">
      <!-- −15 -->
      <g transform="translate(308.30917 160.353672)scale(0.1 -0.1)">
       <use xlink:href="#DejaVuSans-2212"/>
       <use xlink:href="#DejaVuSans-31" x="83.789062"/>
       <use xlink:href="#DejaVuSans-35" x="147.412109"/>
      </g>
     </g>
    </g>
    <g id="ytick_7">
     <g id="line2d_15">
      <path d="M 326.991906 207.477188 
C 326.991906 190.743475 323.695729 174.172478 317.292015 158.712544 
C 310.888301 143.252609 301.501584 129.204396 289.669063 117.371875 
C 277.836542 105.539353 263.788328 96.152637 248.328394 89.748923 
C 232.86846 83.345208 216.297462 80.049032 199.56375 80.049032 
C 182.830038 80.049032 166.25904 83.345208 150.799106 89.748923 
C 135.339172 96.152637 121.290958 105.539353 109.458437 117.371875 
C 97.625916 129.204396 88.239199 143.252609 81.835485 158.712544 
C 75.431771 174.172478 72.135594 190.743475 72.135594 207.477187 
C 72.135594 224.2109 75.431771 240.781897 81.835485 256.241831 
C 88.239199 271.701766 97.625916 285.749979 109.458437 297.5825 
C 121.290958 309.415022 135.339172 318.801738 150.799106 325.205452 
C 166.25904 331.609167 182.830038 334.905343 199.56375 334.905343 
C 216.297462 334.905343 232.86846 331.609167 248.328394 325.205452 
C 263.788328 318.801738 277.836542 309.415022 289.669063 297.5825 
C 301.501584 285.749979 310.888301 271.701766 317.292015 256.241831 
C 323.695729 240.781897 326.991906 224.2109 326.991906 207.477188 
" clip-path="url(#pdcdf2349ed)" style="fill: none; stroke: #b0b0b0; stroke-width: 0.8; stroke-linecap: square"/>
     </g>
     <g id="text_15">
      <!-- −12 -->
      <g transform="translate(317.292015 156.632856)scale(0.1 -0.1)">
       <use xlink:href="#DejaVuSans-2212"/>
       <use xlink:href="#DejaVuSans-31" x="83.789062"/>
       <use xlink:href="#DejaVuSans-32" x="147.412109"/>
      </g>
     </g>
    </g>
    <g id="ytick_8">
     <g id="line2d_16">
      <path d="M 336.714867 207.477188 
C 336.714867 189.466668 333.167187 171.631278 326.27486 154.991727 
C 319.382532 138.352177 309.279595 123.232063 296.544235 110.496703 
C 283.808874 97.761342 268.688761 87.658405 252.04921 80.766078 
C 235.40966 73.87375 217.57427 70.326071 199.56375 70.326071 
C 181.55323 70.326071 163.71784 73.87375 147.07829 80.766078 
C 130.438739 87.658405 115.318626 97.761342 102.583265 110.496703 
C 89.847905 123.232063 79.744968 138.352177 72.85264 154.991727 
C 65.960313 171.631278 62.412633 189.466668 62.412633 207.477187 
C 62.412633 225.487707 65.960313 243.323097 72.85264 259.962648 
C 79.744968 276.602198 89.847905 291.722312 102.583265 304.457672 
C 115.318626 317.193033 130.438739 327.29597 147.07829 334.188297 
C 163.71784 341.080625 181.55323 344.628304 199.56375 344.628304 
C 217.57427 344.628304 235.40966 341.080625 252.04921 334.188297 
C 268.688761 327.29597 283.808874 317.193033 296.544235 304.457672 
C 309.279595 291.722312 319.382532 276.602198 326.27486 259.962648 
C 333.167187 243.323097 336.714867 225.487707 336.714867 207.477188 
" clip-path="url(#pdcdf2349ed)" style="fill: none; stroke: #b0b0b0; stroke-width: 0.8; stroke-linecap: square"/>
     </g>
     <g id="text_16">
      <!-- −9 -->
      <g transform="translate(326.27486 152.91204)scale(0.1 -0.1)">
       <use xlink:href="#DejaVuSans-2212"/>
       <use xlink:href="#DejaVuSans-39" x="83.789062"/>
      </g>
     </g>
    </g>
    <g id="ytick_9">
     <g id="line2d_17">
      <path d="M 346.437828 207.477188 
C 346.437828 188.18986 342.638645 169.090078 335.257704 151.270911 
C 327.876764 133.451744 317.057606 117.259731 303.419406 103.621531 
C 289.781207 89.983331 273.589193 79.164174 255.770026 71.783233 
C 237.950859 64.402293 218.851077 60.60311 199.56375 60.60311 
C 180.276423 60.60311 161.176641 64.402293 143.357474 71.783233 
C 125.538307 79.164174 109.346293 89.983331 95.708094 103.621531 
C 82.069894 117.259731 71.250736 133.451744 63.869796 151.270911 
C 56.488855 169.090078 52.689672 188.18986 52.689672 207.477187 
C 52.689672 226.764515 56.488855 245.864297 63.869796 263.683464 
C 71.250736 281.502631 82.069894 297.694644 95.708094 311.332844 
C 109.346293 324.971044 125.538307 335.790201 143.357474 343.171142 
C 161.176641 350.552082 180.276423 354.351265 199.56375 354.351265 
C 218.851077 354.351265 237.950859 350.552082 255.770026 343.171142 
C 273.589193 335.790201 289.781207 324.971044 303.419406 311.332844 
C 317.057606 297.694644 327.876764 281.502631 335.257704 263.683464 
C 342.638645 245.864297 346.437828 226.764515 346.437828 207.477188 
" clip-path="url(#pdcdf2349ed)" style="fill: none; stroke: #b0b0b0; stroke-width: 0.8; stroke-linecap: square"/>
     </g>
     <g id="text_17">
      <!-- −6 -->
      <g transform="translate(335.257704 149.191224)scale(0.1 -0.1)">
       <defs>
        <path id="DejaVuSans-36" d="M 2113 2584 
Q 1688 2584 1439 2293 
Q 1191 2003 1191 1497 
Q 1191 994 1439 701 
Q 1688 409 2113 409 
Q 2538 409 2786 701 
Q 3034 994 3034 1497 
Q 3034 2003 2786 2293 
Q 2538 2584 2113 2584 
z
M 3366 4563 
L 3366 3988 
Q 3128 4100 2886 4159 
Q 2644 4219 2406 4219 
Q 1781 4219 1451 3797 
Q 1122 3375 1075 2522 
Q 1259 2794 1537 2939 
Q 1816 3084 2150 3084 
Q 2853 3084 3261 2657 
Q 3669 2231 3669 1497 
Q 3669 778 3244 343 
Q 2819 -91 2113 -91 
Q 1303 -91 875 529 
Q 447 1150 447 2328 
Q 447 3434 972 4092 
Q 1497 4750 2381 4750 
Q 2619 4750 2861 4703 
Q 3103 4656 3366 4563 
z
" transform="scale(0.015625)"/>
       </defs>
       <use xlink:href="#DejaVuSans-2212"/>
       <use xlink:href="#DejaVuSans-36" x="83.789062"/>
      </g>
     </g>
    </g>
    <g id="ytick_10">
     <g id="line2d_18">
      <path d="M 356.160789 207.477188 
C 356.160789 186.913053 352.110103 166.548878 344.240549 147.550095 
C 336.370995 128.551312 324.835617 111.287398 310.294578 96.746359 
C 295.753539 82.20532 278.489626 70.669942 259.490842 62.800388 
C 240.492059 54.930835 220.127885 50.880149 199.56375 50.880149 
C 178.999615 50.880149 158.635441 54.930835 139.636658 62.800388 
C 120.637874 70.669942 103.373961 82.20532 88.832922 96.746359 
C 74.291883 111.287398 62.756505 128.551312 54.886951 147.550095 
C 47.017397 166.548878 42.966711 186.913053 42.966711 207.477187 
C 42.966711 228.041322 47.017397 248.405497 54.886951 267.40428 
C 62.756505 286.403063 74.291883 303.666977 88.832922 318.208016 
C 103.373961 332.749055 120.637874 344.284433 139.636658 352.153987 
C 158.635441 360.02354 178.999615 364.074226 199.56375 364.074226 
C 220.127885 364.074226 240.492059 360.02354 259.490842 352.153987 
C 278.489626 344.284433 295.753539 332.749055 310.294578 318.208016 
C 324.835617 303.666977 336.370995 286.403063 344.240549 267.40428 
C 352.110103 248.405497 356.160789 228.041322 356.160789 207.477188 
" clip-path="url(#pdcdf2349ed)" style="fill: none; stroke: #b0b0b0; stroke-width: 0.8; stroke-linecap: square"/>
     </g>
     <g id="text_18">
      <!-- −3 -->
      <g transform="translate(344.240549 145.470408)scale(0.1 -0.1)">
       <use xlink:href="#DejaVuSans-2212"/>
       <use xlink:href="#DejaVuSans-33" x="83.789062"/>
      </g>
     </g>
    </g>
   </g>
   <g id="line2d_19">
    <path d="M 291.204927 207.477188 
L 289.55128 205.906449 
L 289.966862 204.320241 
L 292.11503 202.62678 
L 295.220277 200.788231 
L 297.491089 198.909656 
L 301.355691 196.778423 
L 304.704847 194.567484 
L 307.637671 192.288388 
L 312.474664 189.593856 
L 315.499889 187.034518 
L 318.160552 184.424304 
L 321.382679 181.583775 
L 323.122767 178.951341 
L 324.540104 176.317083 
L 325.655228 173.691078 
L 326.938346 166.090673 
L 327.100654 163.56271 
L 327.804081 160.801524 
L 328.676454 157.915464 
L 329.005834 155.179191 
L 330.096101 152.069492 
L 330.856088 149.022072 
L 330.949719 146.210904 
L 331.45969 143.147239 
L 331.301609 140.353396 
L 330.808309 137.693218 
L 330.440653 134.930935 
L 329.623345 132.387245 
L 326.703018 124.911982 
L 325.637667 122.439257 
L 324.806028 119.7816 
L 322.769258 114.635178 
L 321.891249 111.904471 
L 318.477945 104.106655 
L 315.639385 99.234907 
L 314.240857 96.734793 
L 310.96805 92.114658 
L 309.154343 89.955665 
L 307.186376 87.950152 
L 294.830542 76.353697 
L 292.797161 74.326078 
L 288.467674 70.577149 
L 286.2126 68.81004 
L 281.394945 65.7414 
L 278.858571 64.425544 
L 276.266213 63.220835 
L 273.617729 62.13807 
L 268.172997 60.344182 
L 262.598699 58.976154 
L 259.84685 58.271279 
L 251.422544 56.868315 
L 248.568828 56.655065 
L 243.023438 55.915243 
L 240.224903 55.727697 
L 234.818123 54.77372 
L 229.527359 53.327783 
L 226.89161 52.49319 
L 224.270316 51.48607 
L 221.603672 50.654992 
L 218.953446 49.56079 
L 216.265275 48.572789 
L 213.530143 47.840583 
L 210.804145 46.732049 
L 208.03012 45.929233 
L 205.224812 45.365573 
L 202.407552 44.555872 
L 193.814915 42.852099 
L 190.921315 42.569699 
L 185.110377 42.274383 
L 176.418735 42.79185 
L 170.682585 43.683962 
L 165.068781 45.191119 
L 162.340176 46.244176 
L 156.958191 48.471075 
L 149.275725 52.70656 
L 142.345644 58.418924 
L 140.451037 61.16809 
L 138.497982 63.615254 
L 136.666206 66.20699 
L 135.258101 69.573279 
L 133.749112 72.537183 
L 132.619466 76.091633 
L 132.326857 81.022983 
L 131.806704 85.24024 
L 132.334822 91.033268 
L 133.996829 98.355506 
L 134.773032 103.790364 
L 135.674022 109.095634 
L 133.419432 109.414204 
L 129.563544 107.506533 
L 123.958508 103.415499 
L 118.943415 100.490389 
L 114.779895 98.958802 
L 110.157653 97.069853 
L 106.415289 96.467174 
L 102.903754 96.282581 
L 98.895964 95.674285 
L 95.58523 95.973876 
L 89.059803 96.97324 
L 80.824302 100.563708 
L 75.953831 103.75615 
L 73.449678 105.352025 
L 66.796257 111.015957 
L 64.803795 113.117251 
L 62.986741 115.354832 
L 61.345423 117.717157 
L 59.83018 120.161962 
L 58.513732 122.725786 
L 56.194627 128.006385 
L 53.612682 136.292095 
L 53.132767 139.195299 
L 52.552583 142.023599 
L 52.18147 144.917121 
L 52.22995 147.950468 
L 52.075836 150.861882 
L 52.355849 153.897893 
L 52.88652 156.972167 
L 53.170982 159.911294 
L 53.925222 162.951021 
L 55.117463 166.057881 
L 55.994395 169.007895 
L 59.368806 175.110634 
L 60.812977 177.9848 
L 63.338584 180.997698 
L 65.361231 183.813663 
L 67.055793 186.489989 
L 69.575732 189.208563 
L 71.390155 191.739449 
L 72.978705 194.172563 
L 74.670692 196.550461 
L 75.142402 198.776799 
L 74.951251 200.946523 
L 71.370803 205.239571 
L 68.197795 207.477187 
L 65.878167 209.810678 
L 63.020902 212.245369 
L 60.493603 214.765545 
L 58.643933 217.331261 
L 55.131666 222.657611 
L 53.86487 225.366761 
L 50.711052 231.053139 
L 49.708893 233.900642 
L 48.452621 236.850215 
L 47.327101 239.836086 
L 46.872914 242.728645 
L 46.225203 245.708781 
L 45.842011 248.666803 
L 45.917578 251.534518 
L 45.770776 254.496418 
L 45.890443 257.408672 
L 46.396092 260.217041 
L 46.730752 263.10385 
L 47.24981 265.945031 
L 47.932813 268.740063 
L 48.47914 271.608799 
L 49.266107 274.394009 
L 50.20131 277.126037 
L 51.250255 279.814512 
L 52.512202 282.403693 
L 53.93668 284.908474 
L 59.211027 291.809612 
L 61.273149 293.890746 
L 65.19806 298.10799 
L 67.679009 299.823877 
L 69.827304 301.736233 
L 72.224619 303.434105 
L 75.065408 304.745952 
L 77.580378 306.257374 
L 80.4749 307.404597 
L 83.809792 308.100568 
L 86.624024 309.168573 
L 89.923501 309.718374 
L 93.522041 309.880475 
L 96.585824 310.455114 
L 103.997814 309.959107 
L 107.112955 310.154198 
L 110.881552 309.494387 
L 113.858799 309.616371 
L 116.405007 310.169683 
L 118.323639 311.459788 
L 119.760663 313.37946 
L 120.72 315.996299 
L 121.008638 319.665513 
L 121.918342 322.591239 
L 122.675325 325.87498 
L 123.24543 329.61203 
L 127.165196 338.087635 
L 128.8775 340.418688 
L 130.55071 342.922906 
L 132.33404 345.31852 
L 134.373275 347.278612 
L 136.32083 349.523111 
L 138.409337 351.547955 
L 140.672003 353.239377 
L 142.912439 355.058899 
L 145.312715 356.530681 
L 150.318307 359.039076 
L 152.926391 360.021115 
L 155.575206 360.883471 
L 161.021666 362.061042 
L 163.802677 362.37541 
L 172.243769 362.416501 
L 180.623143 361.73605 
L 183.391392 361.346897 
L 186.123882 361.095581 
L 188.853512 360.640725 
L 196.908868 359.575255 
L 207.441538 357.79433 
L 210.059664 357.575754 
L 215.339741 357.575714 
L 218.017745 357.772916 
L 220.791316 358.519171 
L 223.562541 358.99959 
L 229.318337 360.551265 
L 232.181403 360.93118 
L 235.119227 361.484877 
L 238.06271 361.888082 
L 246.657839 361.515012 
L 252.262453 360.525333 
L 254.985343 359.746762 
L 257.64831 358.79264 
L 260.251144 357.683758 
L 262.788652 356.425723 
L 265.238801 354.985767 
L 269.86087 351.607643 
L 272.066897 349.772626 
L 274.09496 347.650006 
L 276.223565 345.775155 
L 280.187141 341.657043 
L 282.229807 339.770533 
L 286.149416 335.845717 
L 288.157212 334.001764 
L 293.765661 328.050135 
L 295.457876 325.89657 
L 297.209983 323.847437 
L 298.85608 321.699947 
L 300.201175 319.246371 
L 301.69884 317.003662 
L 302.939633 314.526049 
L 303.907544 311.820981 
L 305.120534 309.412189 
L 305.994602 306.725563 
L 306.737472 303.97684 
L 307.823151 301.585649 
L 309.457266 296.467202 
L 310.401106 294.072821 
L 312.078624 286.26095 
L 310.839218 277.009817 
L 309.310497 273.419686 
L 309.195621 270.773178 
L 309.512572 268.422815 
L 310.487933 266.456622 
L 311.844013 264.686839 
L 313.477866 263.036814 
L 314.982384 261.29778 
L 316.853036 257.263536 
L 317.34647 255.064495 
L 318.050118 252.959843 
L 318.490845 250.76311 
L 318.725612 248.507907 
L 319.300253 246.381936 
L 319.647322 241.910598 
L 319.851182 239.708108 
L 319.554317 235.179193 
L 319.677131 233.008075 
L 319.081704 226.406972 
L 318.049113 224.129219 
L 316.82586 221.875164 
L 315.067322 219.617102 
L 311.732682 217.290697 
L 308.850994 215.119296 
L 304.996481 213.002683 
L 299.382672 210.962941 
L 295.704977 209.155339 
L 295.704977 209.155339 
" clip-path="url(#pdcdf2349ed)" style="fill: none; stroke: #ff0000; stroke-width: 1.5; stroke-linecap: square"/>
   </g>
   <g id="line2d_20">
    <path d="M 207.48375 207.477188 
L 247.016563 206.648896 
L 269.73275 205.026832 
L 282.075267 203.152942 
L 290.587256 201.112204 
L 297.016477 198.951179 
L 302.203401 196.689326 
L 306.470887 194.350642 
L 310.108944 191.941074 
L 313.214115 189.476738 
L 315.914816 186.961355 
L 318.306898 184.395858 
L 320.358716 181.801425 
L 322.197497 179.164956 
L 323.823109 176.49585 
L 325.235733 173.803481 
L 326.457667 171.090942 
L 327.529663 168.354082 
L 328.445621 165.600929 
L 329.221228 162.832538 
L 329.865906 160.051081 
L 330.379935 157.261559 
L 330.775774 154.464089 
L 331.059721 151.660459 
L 331.293387 146.050649 
L 331.116794 140.447564 
L 330.551204 134.869656 
L 329.615397 129.334275 
L 328.325736 123.858176 
L 326.696289 118.458025 
L 324.741594 113.148916 
L 322.468973 107.9505 
L 319.896627 102.873413 
L 317.031941 97.936327 
L 313.887543 93.153395 
L 310.475026 88.539406 
L 306.806874 84.108086 
L 302.895347 79.873292 
L 298.753385 75.848097 
L 294.394188 72.045287 
L 289.831973 68.476314 
L 285.080494 65.153425 
L 280.155019 62.086689 
L 275.069979 59.28787 
L 269.842662 56.763575 
L 264.487593 54.526197 
L 259.02244 52.582004 
L 253.464177 50.938982 
L 247.83046 49.603891 
L 242.139447 48.582523 
L 236.409742 47.879663 
L 230.660471 47.498428 
L 224.911065 47.440538 
L 219.181268 47.705323 
L 213.490908 48.289043 
L 207.859482 49.185198 
L 202.305965 50.375799 
L 196.847215 51.846983 
L 191.497175 53.55777 
L 186.265117 55.473121 
L 178.63749 58.579114 
L 166.366794 63.685372 
L 161.506322 65.444934 
L 156.603922 66.96192 
L 151.620663 68.240353 
L 146.536212 69.335729 
L 128.086294 73.047644 
L 122.747982 74.428375 
L 117.443845 76.057869 
L 112.207841 77.966726 
L 107.068739 80.168727 
L 102.055543 82.672374 
L 97.192669 85.476084 
L 92.506056 88.577572 
L 88.015362 91.96545 
L 83.742173 95.629591 
L 79.706265 99.557023 
L 75.926769 103.733442 
L 72.422854 108.143833 
L 69.213491 112.772181 
L 66.31796 117.601767 
L 63.756705 122.615527 
L 61.549748 127.794767 
L 59.72288 133.122478 
L 58.296753 138.57667 
L 57.747315 141.347098 
L 57.30761 144.140673 
L 56.984655 146.955952 
L 56.782511 149.789823 
L 56.711242 152.641248 
L 56.768824 155.504085 
L 56.971383 158.378698 
L 57.319841 161.25934 
L 57.82733 164.144015 
L 58.507058 167.029832 
L 59.366 169.911314 
L 60.42674 172.786435 
L 61.70251 175.649412 
L 63.219131 178.496244 
L 65.012022 181.322981 
L 67.113501 184.122635 
L 69.578248 186.889506 
L 72.489909 189.618124 
L 75.929101 192.296761 
L 80.034361 194.914142 
L 85.06373 197.459734 
L 91.404855 199.913981 
L 99.833812 202.250563 
L 112.098423 204.422831 
L 134.126198 206.334971 
L 158.877371 207.477188 
L 122.298397 208.825859 
L 105.944298 210.746451 
L 95.723399 212.91923 
L 88.333418 215.25517 
L 82.609953 217.709319 
L 78.003724 220.253661 
L 74.192014 222.870901 
L 70.98147 225.548249 
L 68.262602 228.273246 
L 65.945321 231.037722 
L 63.962146 233.835469 
L 62.274422 236.658935 
L 60.843555 239.503268 
L 59.643706 242.363173 
L 58.652234 245.234314 
L 57.849701 248.113037 
L 57.226052 250.994189 
L 56.768098 253.874307 
L 56.462691 256.750834 
L 56.299812 259.620997 
L 56.278564 262.479217 
L 56.385853 265.324813 
L 56.617703 268.154184 
L 56.973041 270.962661 
L 57.438896 273.751096 
L 58.017107 276.514098 
L 59.491088 281.955143 
L 61.364501 287.266561 
L 63.609935 292.43056 
L 66.208334 297.426551 
L 69.138239 302.236868 
L 72.379693 306.844263 
L 75.91361 311.231974 
L 79.72168 315.383472 
L 83.784604 319.283809 
L 88.083578 322.918285 
L 92.598874 326.273718 
L 97.309332 329.339258 
L 102.195218 332.103226 
L 107.230664 334.562777 
L 112.390887 336.716272 
L 117.648223 338.569433 
L 122.97161 340.138665 
L 128.326699 341.454595 
L 136.341534 343.057667 
L 149.35646 345.420582 
L 154.375465 346.552429 
L 159.291488 347.923254 
L 164.137544 349.563941 
L 168.960202 351.455561 
L 178.73537 355.678811 
L 186.319917 358.854895 
L 191.527876 360.81079 
L 196.856717 362.562989 
L 202.297028 364.066578 
L 207.834208 365.286932 
L 213.451051 366.209769 
L 219.128144 366.816388 
L 224.845915 367.102497 
L 230.584344 367.064311 
L 236.323639 366.701762 
L 242.044324 366.016848 
L 247.727175 365.012652 
L 253.353807 363.694856 
L 258.906061 362.069194 
L 264.366277 360.142373 
L 269.717334 357.922034 
L 274.942557 355.416427 
L 280.025861 352.634679 
L 284.951629 349.586483 
L 289.704528 346.281813 
L 294.27001 342.731744 
L 298.63382 338.947612 
L 302.782352 334.941546 
L 306.702091 330.72575 
L 310.380423 326.31352 
L 313.805041 321.718478 
L 316.963913 316.954611 
L 319.845261 312.03631 
L 322.438749 306.979399 
L 324.731241 301.797657 
L 326.709564 296.505645 
L 328.369226 291.124441 
L 329.690405 285.66517 
L 330.661755 280.145998 
L 331.266956 274.583323 
L 331.490188 268.995496 
L 331.307339 263.399023 
L 331.055238 260.603197 
L 330.691585 257.812447 
L 330.210051 255.028552 
L 329.604279 252.253733 
L 328.867904 249.490654 
L 327.997668 246.743377 
L 326.977945 244.01262 
L 325.799233 241.301883 
L 324.452052 238.615338 
L 322.923818 235.957103 
L 321.151257 233.32141 
L 319.165887 230.725488 
L 316.904258 228.167485 
L 314.334495 225.655088 
L 311.392722 223.193725 
L 307.982796 220.789373 
L 303.976179 218.451376 
L 299.179675 216.192452 
L 293.303054 214.032078 
L 285.732563 211.993104 
L 275.206681 210.118697 
L 258.131456 208.499491 
L 258.131456 208.499491 
" clip-path="url(#pdcdf2349ed)" style="fill: none; stroke-dasharray: 5.55,2.4; stroke-dashoffset: 0; stroke: #0000ff; stroke-width: 1.5"/>
   </g>
   <g id="patch_3">
    <path d="M 365.88375 207.477188 
C 365.88375 185.636245 361.581561 164.007679 353.223394 143.829279 
C 344.865227 123.650879 332.613628 105.315066 317.16975 89.871188 
C 301.725871 74.427309 283.390058 62.17571 263.211658 53.817544 
C 243.033259 45.459377 221.404692 41.157187 199.56375 41.157187 
C 177.722808 41.157187 156.094241 45.459377 135.915842 53.817544 
C 115.737442 62.17571 97.401629 74.427309 81.95775 89.871188 
C 66.513872 105.315066 54.262273 123.650879 45.904106 143.829279 
C 37.545939 164.007679 33.24375 185.636245 33.24375 207.477187 
C 33.24375 229.31813 37.545939 250.946696 45.904106 271.125096 
C 54.262273 291.303496 66.513872 309.639309 81.95775 325.083187 
C 97.401629 340.527066 115.737442 352.778665 135.915842 361.136831 
C 156.094241 369.494998 177.722808 373.797188 199.56375 373.797188 
C 221.404692 373.797188 243.033259 369.494998 263.211658 361.136831 
C 283.390058 352.778665 301.725871 340.527066 317.16975 325.083187 
C 332.613628 309.639309 344.865227 291.303496 353.223394 271.125096 
C 361.581561 250.946696 365.88375 229.31813 365.88375 207.477188 
" style="fill: none; stroke: #000000; stroke-width: 0.8; stroke-linejoin: miter; stroke-linecap: square"/>
   </g>
   <g id="text_19">
    <!-- Radiation Diagram - 2AVHF07 -->
    <g transform="translate(110.319375 16.318125)scale(0.12 -0.12)">
     <defs>
      <path id="DejaVuSans-52" d="M 2841 2188 
Q 3044 2119 3236 1894 
Q 3428 1669 3622 1275 
L 4263 0 
L 3584 0 
L 2988 1197 
Q 2756 1666 2539 1819 
Q 2322 1972 1947 1972 
L 1259 1972 
L 1259 0 
L 628 0 
L 628 4666 
L 2053 4666 
Q 2853 4666 3247 4331 
Q 3641 3997 3641 3322 
Q 3641 2881 3436 2590 
Q 3231 2300 2841 2188 
z
M 1259 4147 
L 1259 2491 
L 2053 2491 
Q 2509 2491 2742 2702 
Q 2975 2913 2975 3322 
Q 2975 3731 2742 3939 
Q 2509 4147 2053 4147 
L 1259 4147 
z
" transform="scale(0.015625)"/>
      <path id="DejaVuSans-61" d="M 2194 1759 
Q 1497 1759 1228 1600 
Q 959 1441 959 1056 
Q 959 750 1161 570 
Q 1363 391 1709 391 
Q 2188 391 2477 730 
Q 2766 1069 2766 1631 
L 2766 1759 
L 2194 1759 
z
M 3341 1997 
L 3341 0 
L 2766 0 
L 2766 531 
Q 2569 213 2275 61 
Q 1981 -91 1556 -91 
Q 1019 -91 701 211 
Q 384 513 384 1019 
Q 384 1609 779 1909 
Q 1175 2209 1959 2209 
L 2766 2209 
L 2766 2266 
Q 2766 2663 2505 2880 
Q 2244 3097 1772 3097 
Q 1472 3097 1187 3025 
Q 903 2953 641 2809 
L 641 3341 
Q 956 3463 1253 3523 
Q 1550 3584 1831 3584 
Q 2591 3584 2966 3190 
Q 3341 2797 3341 1997 
z
" transform="scale(0.015625)"/>
      <path id="DejaVuSans-64" d="M 2906 2969 
L 2906 4863 
L 3481 4863 
L 3481 0 
L 2906 0 
L 2906 525 
Q 2725 213 2448 61 
Q 2172 -91 1784 -91 
Q 1150 -91 751 415 
Q 353 922 353 1747 
Q 353 2572 751 3078 
Q 1150 3584 1784 3584 
Q 2172 3584 2448 3432 
Q 2725 3281 2906 2969 
z
M 947 1747 
Q 947 1113 1208 752 
Q 1469 391 1925 391 
Q 2381 391 2643 752 
Q 2906 1113 2906 1747 
Q 2906 2381 2643 2742 
Q 2381 3103 1925 3103 
Q 1469 3103 1208 2742 
Q 947 2381 947 1747 
z
" transform="scale(0.015625)"/>
      <path id="DejaVuSans-69" d="M 603 3500 
L 1178 3500 
L 1178 0 
L 603 0 
L 603 3500 
z
M 603 4863 
L 1178 4863 
L 1178 4134 
L 603 4134 
L 603 4863 
z
" transform="scale(0.015625)"/>
      <path id="DejaVuSans-74" d="M 1172 4494 
L 1172 3500 
L 2356 3500 
L 2356 3053 
L 1172 3053 
L 1172 1153 
Q 1172 725 1289 603 
Q 1406 481 1766 481 
L 2356 481 
L 2356 0 
L 1766 0 
Q 1100 0 847 248 
Q 594 497 594 1153 
L 594 3053 
L 172 3053 
L 172 3500 
L 594 3500 
L 594 4494 
L 1172 4494 
z
" transform="scale(0.015625)"/>
      <path id="DejaVuSans-6f" d="M 1959 3097 
Q 1497 3097 1228 2736 
Q 959 2375 959 1747 
Q 959 1119 1226 758 
Q 1494 397 1959 397 
Q 2419 397 2687 759 
Q 2956 1122 2956 1747 
Q 2956 2369 2687 2733 
Q 2419 3097 1959 3097 
z
M 1959 3584 
Q 2709 3584 3137 3096 
Q 3566 2609 3566 1747 
Q 3566 888 3137 398 
Q 2709 -91 1959 -91 
Q 1206 -91 779 398 
Q 353 888 353 1747 
Q 353 2609 779 3096 
Q 1206 3584 1959 3584 
z
" transform="scale(0.015625)"/>
      <path id="DejaVuSans-6e" d="M 3513 2113 
L 3513 0 
L 2938 0 
L 2938 2094 
Q 2938 2591 2744 2837 
Q 2550 3084 2163 3084 
Q 1697 3084 1428 2787 
Q 1159 2491 1159 1978 
L 1159 0 
L 581 0 
L 581 3500 
L 1159 3500 
L 1159 2956 
Q 1366 3272 1645 3428 
Q 1925 3584 2291 3584 
Q 2894 3584 3203 3211 
Q 3513 2838 3513 2113 
z
" transform="scale(0.015625)"/>
      <path id="DejaVuSans-20" transform="scale(0.015625)"/>
      <path id="DejaVuSans-44" d="M 1259 4147 
L 1259 519 
L 2022 519 
Q 2988 519 3436 956 
Q 3884 1394 3884 2338 
Q 3884 3275 3436 3711 
Q 2988 4147 2022 4147 
L 1259 4147 
z
M 628 4666 
L 1925 4666 
Q 3281 4666 3915 4102 
Q 4550 3538 4550 2338 
Q 4550 1131 3912 565 
Q 3275 0 1925 0 
L 628 0 
L 628 4666 
z
" transform="scale(0.015625)"/>
      <path id="DejaVuSans-67" d="M 2906 1791 
Q 2906 2416 2648 2759 
Q 2391 3103 1925 3103 
Q 1463 3103 1205 2759 
Q 947 2416 947 1791 
Q 947 1169 1205 825 
Q 1463 481 1925 481 
Q 2391 481 2648 825 
Q 2906 1169 2906 1791 
z
M 3481 434 
Q 3481 -459 3084 -895 
Q 2688 -1331 1869 -1331 
Q 1566 -1331 1297 -1286 
Q 1028 -1241 775 -1147 
L 775 -588 
Q 1028 -725 1275 -790 
Q 1522 -856 1778 -856 
Q 2344 -856 2625 -561 
Q 2906 -266 2906 331 
L 2906 616 
Q 2728 306 2450 153 
Q 2172 0 1784 0 
Q 1141 0 747 490 
Q 353 981 353 1791 
Q 353 2603 747 3093 
Q 1141 3584 1784 3584 
Q 2172 3584 2450 3431 
Q 2728 3278 2906 2969 
L 2906 3500 
L 3481 3500 
L 3481 434 
z
" transform="scale(0.015625)"/>
      <path id="DejaVuSans-72" d="M 2631 2963 
Q 2534 3019 2420 3045 
Q 2306 3072 2169 3072 
Q 1681 3072 1420 2755 
Q 1159 2438 1159 1844 
L 1159 0 
L 581 0 
L 581 3500 
L 1159 3500 
L 1159 2956 
Q 1341 3275 1631 3429 
Q 1922 3584 2338 3584 
Q 2397 3584 2469 3576 
Q 2541 3569 2628 3553 
L 2631 2963 
z
" transform="scale(0.015625)"/>
      <path id="DejaVuSans-6d" d="M 3328 2828 
Q 3544 3216 3844 3400 
Q 4144 3584 4550 3584 
Q 5097 3584 5394 3201 
Q 5691 2819 5691 2113 
L 5691 0 
L 5113 0 
L 5113 2094 
Q 5113 2597 4934 2840 
Q 4756 3084 4391 3084 
Q 3944 3084 3684 2787 
Q 3425 2491 3425 1978 
L 3425 0 
L 2847 0 
L 2847 2094 
Q 2847 2600 2669 2842 
Q 2491 3084 2119 3084 
Q 1678 3084 1418 2786 
Q 1159 2488 1159 1978 
L 1159 0 
L 581 0 
L 581 3500 
L 1159 3500 
L 1159 2956 
Q 1356 3278 1631 3431 
Q 1906 3584 2284 3584 
Q 2666 3584 2933 3390 
Q 3200 3197 3328 2828 
z
" transform="scale(0.015625)"/>
      <path id="DejaVuSans-2d" d="M 313 2009 
L 1997 2009 
L 1997 1497 
L 313 1497 
L 313 2009 
z
" transform="scale(0.015625)"/>
      <path id="DejaVuSans-41" d="M 2188 4044 
L 1331 1722 
L 3047 1722 
L 2188 4044 
z
M 1831 4666 
L 2547 4666 
L 4325 0 
L 3669 0 
L 3244 1197 
L 1141 1197 
L 716 0 
L 50 0 
L 1831 4666 
z
" transform="scale(0.015625)"/>
      <path id="DejaVuSans-56" d="M 1831 0 
L 50 4666 
L 709 4666 
L 2188 738 
L 3669 4666 
L 4325 4666 
L 2547 0 
L 1831 0 
z
" transform="scale(0.015625)"/>
      <path id="DejaVuSans-48" d="M 628 4666 
L 1259 4666 
L 1259 2753 
L 3553 2753 
L 3553 4666 
L 4184 4666 
L 4184 0 
L 3553 0 
L 3553 2222 
L 1259 2222 
L 1259 0 
L 628 0 
L 628 4666 
z
" transform="scale(0.015625)"/>
      <path id="DejaVuSans-46" d="M 628 4666 
L 3309 4666 
L 3309 4134 
L 1259 4134 
L 1259 2759 
L 3109 2759 
L 3109 2228 
L 1259 2228 
L 1259 0 
L 628 0 
L 628 4666 
z
" transform="scale(0.015625)"/>
     </defs>
     <use xlink:href="#DejaVuSans-52"/>
     <use xlink:href="#DejaVuSans-61" x="67.232422"/>
     <use xlink:href="#DejaVuSans-64" x="128.511719"/>
     <use xlink:href="#DejaVuSans-69" x="191.988281"/>
     <use xlink:href="#DejaVuSans-61" x="219.771484"/>
     <use xlink:href="#DejaVuSans-74" x="281.050781"/>
     <use xlink:href="#DejaVuSans-69" x="320.259766"/>
     <use xlink:href="#DejaVuSans-6f" x="348.042969"/>
     <use xlink:href="#DejaVuSans-6e" x="409.224609"/>
     <use xlink:href="#DejaVuSans-20" x="472.603516"/>
     <use xlink:href="#DejaVuSans-44" x="504.390625"/>
     <use xlink:href="#DejaVuSans-69" x="581.392578"/>
     <use xlink:href="#DejaVuSans-61" x="609.175781"/>
     <use xlink:href="#DejaVuSans-67" x="670.455078"/>
     <use xlink:href="#DejaVuSans-72" x="733.931641"/>
     <use xlink:href="#DejaVuSans-61" x="775.044922"/>
     <use xlink:href="#DejaVuSans-6d" x="836.324219"/>
     <use xlink:href="#DejaVuSans-20" x="933.736328"/>
     <use xlink:href="#DejaVuSans-2d" x="965.523438"/>
     <use xlink:href="#DejaVuSans-20" x="1001.607422"/>
     <use xlink:href="#DejaVuSans-32" x="1033.394531"/>
     <use xlink:href="#DejaVuSans-41" x="1097.017578"/>
     <use xlink:href="#DejaVuSans-56" x="1159.050781"/>
     <use xlink:href="#DejaVuSans-48" x="1227.458984"/>
     <use xlink:href="#DejaVuSans-46" x="1302.654297"/>
     <use xlink:href="#DejaVuSans-30" x="1360.173828"/>
     <use xlink:href="#DejaVuSans-37" x="1423.796875"/>
    </g>
   </g>
   <g id="legend_1">
    <g id="patch_4">
     <path d="M 304.104062 78.513438 
L 358.88375 78.513438 
Q 360.88375 78.513438 360.88375 76.513438 
L 360.88375 48.157188 
Q 360.88375 46.157188 358.88375 46.157188 
L 304.104062 46.157188 
Q 302.104062 46.157188 302.104062 48.157188 
L 302.104062 76.513438 
Q 302.104062 78.513438 304.104062 78.513438 
z
" style="fill: #ffffff; opacity: 0.8; stroke: #cccccc; stroke-linejoin: miter"/>
    </g>
    <g id="line2d_21">
     <path d="M 306.104062 54.255625 
L 316.104062 54.255625 
L 326.104062 54.255625 
" style="fill: none; stroke: #ff0000; stroke-width: 1.5; stroke-linecap: square"/>
    </g>
    <g id="text_20">
     <!-- INPE -->
     <g transform="translate(334.104062 57.755625)scale(0.1 -0.1)">
      <defs>
       <path id="DejaVuSans-49" d="M 628 4666 
L 1259 4666 
L 1259 0 
L 628 0 
L 628 4666 
z
" transform="scale(0.015625)"/>
       <path id="DejaVuSans-4e" d="M 628 4666 
L 1478 4666 
L 3547 763 
L 3547 4666 
L 4159 4666 
L 4159 0 
L 3309 0 
L 1241 3903 
L 1241 0 
L 628 0 
L 628 4666 
z
" transform="scale(0.015625)"/>
       <path id="DejaVuSans-50" d="M 1259 4147 
L 1259 2394 
L 2053 2394 
Q 2494 2394 2734 2622 
Q 2975 2850 2975 3272 
Q 2975 3691 2734 3919 
Q 2494 4147 2053 4147 
L 1259 4147 
z
M 628 4666 
L 2053 4666 
Q 2838 4666 3239 4311 
Q 3641 3956 3641 3272 
Q 3641 2581 3239 2228 
Q 2838 1875 2053 1875 
L 1259 1875 
L 1259 0 
L 628 0 
L 628 4666 
z
" transform="scale(0.015625)"/>
       <path id="DejaVuSans-45" d="M 628 4666 
L 3578 4666 
L 3578 4134 
L 1259 4134 
L 1259 2753 
L 3481 2753 
L 3481 2222 
L 1259 2222 
L 1259 531 
L 3634 531 
L 3634 0 
L 628 0 
L 628 4666 
z
" transform="scale(0.015625)"/>
      </defs>
      <use xlink:href="#DejaVuSans-49"/>
      <use xlink:href="#DejaVuSans-4e" x="29.492188"/>
      <use xlink:href="#DejaVuSans-50" x="104.296875"/>
      <use xlink:href="#DejaVuSans-45" x="164.599609"/>
     </g>
    </g>
    <g id="line2d_22">
     <path d="M 306.104062 68.93375 
L 316.104062 68.93375 
L 326.104062 68.93375 
" style="fill: none; stroke-dasharray: 5.55,2.4; stroke-dashoffset: 0; stroke: #0000ff; stroke-width: 1.5"/>
    </g>
    <g id="text_21">
     <!-- CST -->
     <g transform="translate(334.104062 72.43375)scale(0.1 -0.1)">
      <defs>
       <path id="DejaVuSans-43" d="M 4122 4306 
L 4122 3641 
Q 3803 3938 3442 4084 
Q 3081 4231 2675 4231 
Q 1875 4231 1450 3742 
Q 1025 3253 1025 2328 
Q 1025 1406 1450 917 
Q 1875 428 2675 428 
Q 3081 428 3442 575 
Q 3803 722 4122 1019 
L 4122 359 
Q 3791 134 3420 21 
Q 3050 -91 2638 -91 
Q 1578 -91 968 557 
Q 359 1206 359 2328 
Q 359 3453 968 4101 
Q 1578 4750 2638 4750 
Q 3056 4750 3426 4639 
Q 3797 4528 4122 4306 
z
" transform="scale(0.015625)"/>
       <path id="DejaVuSans-53" d="M 3425 4513 
L 3425 3897 
Q 3066 4069 2747 4153 
Q 2428 4238 2131 4238 
Q 1616 4238 1336 4038 
Q 1056 3838 1056 3469 
Q 1056 3159 1242 3001 
Q 1428 2844 1947 2747 
L 2328 2669 
Q 3034 2534 3370 2195 
Q 3706 1856 3706 1288 
Q 3706 609 3251 259 
Q 2797 -91 1919 -91 
Q 1588 -91 1214 -16 
Q 841 59 441 206 
L 441 856 
Q 825 641 1194 531 
Q 1563 422 1919 422 
Q 2459 422 2753 634 
Q 3047 847 3047 1241 
Q 3047 1584 2836 1778 
Q 2625 1972 2144 2069 
L 1759 2144 
Q 1053 2284 737 2584 
Q 422 2884 422 3419 
Q 422 4038 858 4394 
Q 1294 4750 2059 4750 
Q 2388 4750 2728 4690 
Q 3069 4631 3425 4513 
z
" transform="scale(0.015625)"/>
       <path id="DejaVuSans-54" d="M -19 4666 
L 3928 4666 
L 3928 4134 
L 2272 4134 
L 2272 0 
L 1638 0 
L 1638 4134 
L -19 4134 
L -19 4666 
z
" transform="scale(0.015625)"/>
      </defs>
      <use xlink:href="#DejaVuSans-43"/>
      <use xlink:href="#DejaVuSans-53" x="69.824219"/>
      <use xlink:href="#DejaVuSans-54" x="133.300781"/>
     </g>
    </g>
   </g>
  </g>
 </g>
 <defs>
  <clipPath id="pdcdf2349ed">
   <path d="M 365.88375 207.477188 
C 365.88375 185.636245 361.581561 164.007679 353.223394 143.829279 
C 344.865227 123.650879 332.613628 105.315066 317.16975 89.871188 
C 301.725871 74.427309 283.390058 62.17571 263.211658 53.817544 
C 243.033259 45.459377 221.404692 41.157188 199.56375 41.157188 
C 177.722808 41.157188 156.094241 45.459377 135.915842 53.817544 
C 115.737442 62.17571 97.401629 74.427309 81.95775 89.871188 
C 66.513872 105.315066 54.262273 123.650879 45.904106 143.829279 
C 37.545939 164.007679 33.24375 185.636245 33.24375 207.477188 
C 33.24375 229.31813 37.545939 250.946696 45.904106 271.125096 
C 54.262273 291.303496 66.513872 309.639309 81.95775 325.083187 
C 97.401629 340.527066 115.737442 352.778665 135.915842 361.136831 
C 156.094241 369.494998 177.722808 373.797188 199.56375 373.797188 
C 221.404692 373.797188 243.033259 369.494998 263.211658 361.136831 
C 283.390058 352.778665 301.725871 340.527066 317.16975 325.083187 
C 332.613628 309.639309 344.865227 291.303496 353.223394 271.125096 
C 361.581561 250.946696 365.88375 229.31813 365.88375 207.477188 
M 199.56375 207.477188 
C 199.56375 207.477188 199.56375 207.477188 199.56375 207.477188 
C 199.56375 207.477188 199.56375 207.477188 199.56375 207.477188 
C 199.56375 207.477188 199.56375 207.477188 199.56375 207.477188 
C 199.56375 207.477188 199.56375 207.477188 199.56375 207.477188 
C 199.56375 207.477188 199.56375 207.477188 199.56375 207.477188 
C 199.56375 207.477188 199.56375 207.477188 199.56375 207.477188 
C 199.56375 207.477188 199.56375 207.477188 199.56375 207.477188 
C 199.56375 207.477188 199.56375 207.477188 199.56375 207.477188 
C 199.56375 207.477188 199.56375 207.477188 199.56375 207.477188 
C 199.56375 207.477188 199.56375 207.477188 199.56375 207.477188 
C 199.56375 207.477188 199.56375 207.477188 199.56375 207.477188 
C 199.56375 207.477188 199.56375 207.477188 199.56375 207.477188 
C 199.56375 207.477188 199.56375 207.477188 199.56375 207.477188 
C 199.56375 207.477188 199.56375 207.477188 199.56375 207.477188 
C 199.56375 207.477188 199.56375 207.477188 199.56375 207.477188 
C 199.56375 207.477188 199.56375 207.477188 199.56375 207.477188 
M 365.88375 207.477188 
z
"/>
  </clipPath>
 </defs>
</svg>
