<?xml version="1.0" encoding="utf-8" standalone="no"?>
<!DOCTYPE svg PUBLIC "-//W3C//DTD SVG 1.1//EN"
  "http://www.w3.org/Graphics/SVG/1.1/DTD/svg11.dtd">
<svg xmlns:xlink="http://www.w3.org/1999/xlink" width="392.765pt" height="399.83625pt" viewBox="0 0 392.765 399.83625" xmlns="http://www.w3.org/2000/svg" version="1.1">
 <metadata>
  <rdf:RDF xmlns:dc="http://purl.org/dc/elements/1.1/" xmlns:cc="http://creativecommons.org/ns#" xmlns:rdf="http://www.w3.org/1999/02/22-rdf-syntax-ns#">
   <cc:Work>
    <dc:type rdf:resource="http://purl.org/dc/dcmitype/StillImage"/>
    <dc:date>2023-11-03T15:32:55.399599</dc:date>
    <dc:format>image/svg+xml</dc:format>
    <dc:creator>
     <cc:Agent>
      <dc:title>Matplotlib v3.5.1, https://matplotlib.org/</dc:title>
     </cc:Agent>
    </dc:creator>
   </cc:Work>
  </rdf:RDF>
 </metadata>
 <defs>
  <style type="text/css">*{stroke-linejoin: round; stroke-linecap: butt}</style>
 </defs>
 <g id="figure_1">
  <g id="patch_1">
   <path d="M 0 399.83625 
L 392.765 399.83625 
L 392.765 0 
L 0 0 
z
" style="fill: #ffffff"/>
  </g>
  <g id="axes_1">
   <g id="patch_2">
    <path d="M 365.88375 207.477187 
C 365.88375 185.636245 361.581561 164.007679 353.223394 143.829279 
C 344.865227 123.650879 332.613628 105.315066 317.16975 89.871188 
C 301.725871 74.427309 283.390058 62.17571 263.211658 53.817544 
C 243.033259 45.459377 221.404692 41.157187 199.56375 41.157187 
C 177.722808 41.157187 156.094241 45.459377 135.915842 53.817544 
C 115.737442 62.17571 97.401629 74.427309 81.95775 89.871188 
C 66.513872 105.315066 54.262273 123.650879 45.904106 143.829279 
C 37.545939 164.007679 33.24375 185.636245 33.24375 207.477187 
C 33.24375 229.31813 37.545939 250.946696 45.904106 271.125096 
C 54.262273 291.303496 66.513872 309.639309 81.95775 325.083187 
C 97.401629 340.527066 115.737442 352.778665 135.915842 361.136831 
C 156.094241 369.494998 177.722808 373.797188 199.56375 373.797188 
C 221.404692 373.797188 243.033259 369.494998 263.211658 361.136831 
C 283.390058 352.778665 301.725871 340.527066 317.16975 325.083187 
C 332.613628 309.639309 344.865227 291.303496 353.223394 271.125096 
C 361.581561 250.946696 365.88375 229.31813 365.88375 207.477188 
M 199.56375 207.477187 
C 199.56375 207.477187 199.56375 207.477187 199.56375 207.477187 
C 199.56375 207.477187 199.56375 207.477187 199.56375 207.477187 
C 199.56375 207.477187 199.56375 207.477187 199.56375 207.477187 
C 199.56375 207.477187 199.56375 207.477187 199.56375 207.477187 
C 199.56375 207.477187 199.56375 207.477187 199.56375 207.477187 
C 199.56375 207.477187 199.56375 207.477187 199.56375 207.477187 
C 199.56375 207.477187 199.56375 207.477187 199.56375 207.477187 
C 199.56375 207.477187 199.56375 207.477187 199.56375 207.477187 
C 199.56375 207.477187 199.56375 207.477187 199.56375 207.477187 
C 199.56375 207.477187 199.56375 207.477187 199.56375 207.477187 
C 199.56375 207.477187 199.56375 207.477187 199.56375 207.477187 
C 199.56375 207.477187 199.56375 207.477187 199.56375 207.477187 
C 199.56375 207.477187 199.56375 207.477187 199.56375 207.477187 
C 199.56375 207.477187 199.56375 207.477187 199.56375 207.477187 
C 199.56375 207.477187 199.56375 207.477187 199.56375 207.477187 
C 199.56375 207.477187 199.56375 207.477187 199.56375 207.477187 
M 365.88375 207.477187 
z
" style="fill: #ffffff"/>
   </g>
   <g id="matplotlib.axis_1">
    <g id="xtick_1">
     <g id="line2d_1">
      <path d="M 199.56375 207.477187 
L 365.88375 207.477187 
" clip-path="url(#p4f6e162584)" style="fill: none; stroke: #b0b0b0; stroke-width: 0.8; stroke-linecap: square"/>
     </g>
     <g id="text_1">
      <!-- 0° -->
      <g transform="translate(374.2025 210.236562)scale(0.1 -0.1)">
       <defs>
        <path id="DejaVuSans-30" d="M 2034 4250 
Q 1547 4250 1301 3770 
Q 1056 3291 1056 2328 
Q 1056 1369 1301 889 
Q 1547 409 2034 409 
Q 2525 409 2770 889 
Q 3016 1369 3016 2328 
Q 3016 3291 2770 3770 
Q 2525 4250 2034 4250 
z
M 2034 4750 
Q 2819 4750 3233 4129 
Q 3647 3509 3647 2328 
Q 3647 1150 3233 529 
Q 2819 -91 2034 -91 
Q 1250 -91 836 529 
Q 422 1150 422 2328 
Q 422 3509 836 4129 
Q 1250 4750 2034 4750 
z
" transform="scale(0.015625)"/>
        <path id="DejaVuSans-b0" d="M 1600 4347 
Q 1350 4347 1178 4173 
Q 1006 4000 1006 3750 
Q 1006 3503 1178 3333 
Q 1350 3163 1600 3163 
Q 1850 3163 2022 3333 
Q 2194 3503 2194 3750 
Q 2194 3997 2020 4172 
Q 1847 4347 1600 4347 
z
M 1600 4750 
Q 1800 4750 1984 4673 
Q 2169 4597 2303 4453 
Q 2447 4313 2519 4134 
Q 2591 3956 2591 3750 
Q 2591 3338 2302 3052 
Q 2013 2766 1594 2766 
Q 1172 2766 890 3047 
Q 609 3328 609 3750 
Q 609 4169 896 4459 
Q 1184 4750 1600 4750 
z
" transform="scale(0.015625)"/>
       </defs>
       <use xlink:href="#DejaVuSans-30"/>
       <use xlink:href="#DejaVuSans-b0" x="63.623047"/>
      </g>
     </g>
    </g>
    <g id="xtick_2">
     <g id="line2d_2">
      <path d="M 199.56375 207.477187 
L 317.16975 89.871188 
" clip-path="url(#p4f6e162584)" style="fill: none; stroke: #b0b0b0; stroke-width: 0.8; stroke-linecap: square"/>
     </g>
     <g id="text_2">
      <!-- 45° -->
      <g transform="translate(318.206745 82.731068)scale(0.1 -0.1)">
       <defs>
        <path id="DejaVuSans-34" d="M 2419 4116 
L 825 1625 
L 2419 1625 
L 2419 4116 
z
M 2253 4666 
L 3047 4666 
L 3047 1625 
L 3713 1625 
L 3713 1100 
L 3047 1100 
L 3047 0 
L 2419 0 
L 2419 1100 
L 313 1100 
L 313 1709 
L 2253 4666 
z
" transform="scale(0.015625)"/>
        <path id="DejaVuSans-35" d="M 691 4666 
L 3169 4666 
L 3169 4134 
L 1269 4134 
L 1269 2991 
Q 1406 3038 1543 3061 
Q 1681 3084 1819 3084 
Q 2600 3084 3056 2656 
Q 3513 2228 3513 1497 
Q 3513 744 3044 326 
Q 2575 -91 1722 -91 
Q 1428 -91 1123 -41 
Q 819 9 494 109 
L 494 744 
Q 775 591 1075 516 
Q 1375 441 1709 441 
Q 2250 441 2565 725 
Q 2881 1009 2881 1497 
Q 2881 1984 2565 2268 
Q 2250 2553 1709 2553 
Q 1456 2553 1204 2497 
Q 953 2441 691 2322 
L 691 4666 
z
" transform="scale(0.015625)"/>
       </defs>
       <use xlink:href="#DejaVuSans-34"/>
       <use xlink:href="#DejaVuSans-35" x="63.623047"/>
       <use xlink:href="#DejaVuSans-b0" x="127.246094"/>
      </g>
     </g>
    </g>
    <g id="xtick_3">
     <g id="line2d_3">
      <path d="M 199.56375 207.477187 
L 199.56375 41.157187 
" clip-path="url(#p4f6e162584)" style="fill: none; stroke: #b0b0b0; stroke-width: 0.8; stroke-linecap: square"/>
     </g>
     <g id="text_3">
      <!-- 90° -->
      <g transform="translate(190.70125 29.916562)scale(0.1 -0.1)">
       <defs>
        <path id="DejaVuSans-39" d="M 703 97 
L 703 672 
Q 941 559 1184 500 
Q 1428 441 1663 441 
Q 2288 441 2617 861 
Q 2947 1281 2994 2138 
Q 2813 1869 2534 1725 
Q 2256 1581 1919 1581 
Q 1219 1581 811 2004 
Q 403 2428 403 3163 
Q 403 3881 828 4315 
Q 1253 4750 1959 4750 
Q 2769 4750 3195 4129 
Q 3622 3509 3622 2328 
Q 3622 1225 3098 567 
Q 2575 -91 1691 -91 
Q 1453 -91 1209 -44 
Q 966 3 703 97 
z
M 1959 2075 
Q 2384 2075 2632 2365 
Q 2881 2656 2881 3163 
Q 2881 3666 2632 3958 
Q 2384 4250 1959 4250 
Q 1534 4250 1286 3958 
Q 1038 3666 1038 3163 
Q 1038 2656 1286 2365 
Q 1534 2075 1959 2075 
z
" transform="scale(0.015625)"/>
       </defs>
       <use xlink:href="#DejaVuSans-39"/>
       <use xlink:href="#DejaVuSans-30" x="63.623047"/>
       <use xlink:href="#DejaVuSans-b0" x="127.246094"/>
      </g>
     </g>
    </g>
    <g id="xtick_4">
     <g id="line2d_4">
      <path d="M 199.56375 207.477187 
L 81.95775 89.871188 
" clip-path="url(#p4f6e162584)" style="fill: none; stroke: #b0b0b0; stroke-width: 0.8; stroke-linecap: square"/>
     </g>
     <g id="text_4">
      <!-- 135° -->
      <g transform="translate(60.014505 82.731068)scale(0.1 -0.1)">
       <defs>
        <path id="DejaVuSans-31" d="M 794 531 
L 1825 531 
L 1825 4091 
L 703 3866 
L 703 4441 
L 1819 4666 
L 2450 4666 
L 2450 531 
L 3481 531 
L 3481 0 
L 794 0 
L 794 531 
z
" transform="scale(0.015625)"/>
        <path id="DejaVuSans-33" d="M 2597 2516 
Q 3050 2419 3304 2112 
Q 3559 1806 3559 1356 
Q 3559 666 3084 287 
Q 2609 -91 1734 -91 
Q 1441 -91 1130 -33 
Q 819 25 488 141 
L 488 750 
Q 750 597 1062 519 
Q 1375 441 1716 441 
Q 2309 441 2620 675 
Q 2931 909 2931 1356 
Q 2931 1769 2642 2001 
Q 2353 2234 1838 2234 
L 1294 2234 
L 1294 2753 
L 1863 2753 
Q 2328 2753 2575 2939 
Q 2822 3125 2822 3475 
Q 2822 3834 2567 4026 
Q 2313 4219 1838 4219 
Q 1578 4219 1281 4162 
Q 984 4106 628 3988 
L 628 4550 
Q 988 4650 1302 4700 
Q 1616 4750 1894 4750 
Q 2613 4750 3031 4423 
Q 3450 4097 3450 3541 
Q 3450 3153 3228 2886 
Q 3006 2619 2597 2516 
z
" transform="scale(0.015625)"/>
       </defs>
       <use xlink:href="#DejaVuSans-31"/>
       <use xlink:href="#DejaVuSans-33" x="63.623047"/>
       <use xlink:href="#DejaVuSans-35" x="127.246094"/>
       <use xlink:href="#DejaVuSans-b0" x="190.869141"/>
      </g>
     </g>
    </g>
    <g id="xtick_5">
     <g id="line2d_5">
      <path d="M 199.56375 207.477187 
L 33.24375 207.477187 
" clip-path="url(#p4f6e162584)" style="fill: none; stroke: #b0b0b0; stroke-width: 0.8; stroke-linecap: square"/>
     </g>
     <g id="text_5">
      <!-- 180° -->
      <g transform="translate(7.2 210.236562)scale(0.1 -0.1)">
       <defs>
        <path id="DejaVuSans-38" d="M 2034 2216 
Q 1584 2216 1326 1975 
Q 1069 1734 1069 1313 
Q 1069 891 1326 650 
Q 1584 409 2034 409 
Q 2484 409 2743 651 
Q 3003 894 3003 1313 
Q 3003 1734 2745 1975 
Q 2488 2216 2034 2216 
z
M 1403 2484 
Q 997 2584 770 2862 
Q 544 3141 544 3541 
Q 544 4100 942 4425 
Q 1341 4750 2034 4750 
Q 2731 4750 3128 4425 
Q 3525 4100 3525 3541 
Q 3525 3141 3298 2862 
Q 3072 2584 2669 2484 
Q 3125 2378 3379 2068 
Q 3634 1759 3634 1313 
Q 3634 634 3220 271 
Q 2806 -91 2034 -91 
Q 1263 -91 848 271 
Q 434 634 434 1313 
Q 434 1759 690 2068 
Q 947 2378 1403 2484 
z
M 1172 3481 
Q 1172 3119 1398 2916 
Q 1625 2713 2034 2713 
Q 2441 2713 2670 2916 
Q 2900 3119 2900 3481 
Q 2900 3844 2670 4047 
Q 2441 4250 2034 4250 
Q 1625 4250 1398 4047 
Q 1172 3844 1172 3481 
z
" transform="scale(0.015625)"/>
       </defs>
       <use xlink:href="#DejaVuSans-31"/>
       <use xlink:href="#DejaVuSans-38" x="63.623047"/>
       <use xlink:href="#DejaVuSans-30" x="127.246094"/>
       <use xlink:href="#DejaVuSans-b0" x="190.869141"/>
      </g>
     </g>
    </g>
    <g id="xtick_6">
     <g id="line2d_6">
      <path d="M 199.56375 207.477187 
L 81.95775 325.083187 
" clip-path="url(#p4f6e162584)" style="fill: none; stroke: #b0b0b0; stroke-width: 0.8; stroke-linecap: square"/>
     </g>
     <g id="text_6">
      <!-- 225° -->
      <g transform="translate(60.014505 337.742057)scale(0.1 -0.1)">
       <defs>
        <path id="DejaVuSans-32" d="M 1228 531 
L 3431 531 
L 3431 0 
L 469 0 
L 469 531 
Q 828 903 1448 1529 
Q 2069 2156 2228 2338 
Q 2531 2678 2651 2914 
Q 2772 3150 2772 3378 
Q 2772 3750 2511 3984 
Q 2250 4219 1831 4219 
Q 1534 4219 1204 4116 
Q 875 4013 500 3803 
L 500 4441 
Q 881 4594 1212 4672 
Q 1544 4750 1819 4750 
Q 2544 4750 2975 4387 
Q 3406 4025 3406 3419 
Q 3406 3131 3298 2873 
Q 3191 2616 2906 2266 
Q 2828 2175 2409 1742 
Q 1991 1309 1228 531 
z
" transform="scale(0.015625)"/>
       </defs>
       <use xlink:href="#DejaVuSans-32"/>
       <use xlink:href="#DejaVuSans-32" x="63.623047"/>
       <use xlink:href="#DejaVuSans-35" x="127.246094"/>
       <use xlink:href="#DejaVuSans-b0" x="190.869141"/>
      </g>
     </g>
    </g>
    <g id="xtick_7">
     <g id="line2d_7">
      <path d="M 199.56375 207.477187 
L 199.56375 373.797188 
" clip-path="url(#p4f6e162584)" style="fill: none; stroke: #b0b0b0; stroke-width: 0.8; stroke-linecap: square"/>
     </g>
     <g id="text_7">
      <!-- 270° -->
      <g transform="translate(187.52 390.556562)scale(0.1 -0.1)">
       <defs>
        <path id="DejaVuSans-37" d="M 525 4666 
L 3525 4666 
L 3525 4397 
L 1831 0 
L 1172 0 
L 2766 4134 
L 525 4134 
L 525 4666 
z
" transform="scale(0.015625)"/>
       </defs>
       <use xlink:href="#DejaVuSans-32"/>
       <use xlink:href="#DejaVuSans-37" x="63.623047"/>
       <use xlink:href="#DejaVuSans-30" x="127.246094"/>
       <use xlink:href="#DejaVuSans-b0" x="190.869141"/>
      </g>
     </g>
    </g>
    <g id="xtick_8">
     <g id="line2d_8">
      <path d="M 199.56375 207.477187 
L 317.16975 325.083187 
" clip-path="url(#p4f6e162584)" style="fill: none; stroke: #b0b0b0; stroke-width: 0.8; stroke-linecap: square"/>
     </g>
     <g id="text_8">
      <!-- 315° -->
      <g transform="translate(315.025495 337.742057)scale(0.1 -0.1)">
       <use xlink:href="#DejaVuSans-33"/>
       <use xlink:href="#DejaVuSans-31" x="63.623047"/>
       <use xlink:href="#DejaVuSans-35" x="127.246094"/>
       <use xlink:href="#DejaVuSans-b0" x="190.869141"/>
      </g>
     </g>
    </g>
   </g>
   <g id="matplotlib.axis_2">
    <g id="ytick_1">
     <g id="line2d_9">
      <path d="M 274.425264 207.477187 
C 274.425264 197.646464 272.488826 187.911331 268.726771 178.828926 
C 264.964716 169.746522 259.450206 161.493475 252.498834 154.542103 
C 245.547463 147.590731 237.294416 142.076222 228.212011 138.314167 
C 219.129607 134.552111 209.394474 132.615673 199.56375 132.615673 
C 189.733026 132.615673 179.997893 134.552111 170.915489 138.314167 
C 161.833084 142.076222 153.580037 147.590731 146.628666 154.542103 
C 139.677294 161.493475 134.162784 169.746522 130.400729 178.828926 
C 126.638674 187.911331 124.702236 197.646464 124.702236 207.477187 
C 124.702236 217.307911 126.638674 227.043044 130.400729 236.125449 
C 134.162784 245.207853 139.677294 253.4609 146.628666 260.412272 
C 153.580037 267.363644 161.833084 272.878153 170.915489 276.640208 
C 179.997893 280.402264 189.733026 282.338702 199.56375 282.338702 
C 209.394474 282.338702 219.129607 280.402264 228.212011 276.640208 
C 237.294416 272.878153 245.547463 267.363644 252.498834 260.412272 
C 259.450206 253.4609 264.964716 245.207853 268.726771 236.125449 
C 272.488826 227.043044 274.425264 217.307911 274.425264 207.477188 
" clip-path="url(#p4f6e162584)" style="fill: none; stroke: #b0b0b0; stroke-width: 0.8; stroke-linecap: square"/>
     </g>
     <g id="text_9">
      <!-- −30 -->
      <g transform="translate(268.726771 176.749239)scale(0.1 -0.1)">
       <defs>
        <path id="DejaVuSans-2212" d="M 678 2272 
L 4684 2272 
L 4684 1741 
L 678 1741 
L 678 2272 
z
" transform="scale(0.015625)"/>
       </defs>
       <use xlink:href="#DejaVuSans-2212"/>
       <use xlink:href="#DejaVuSans-33" x="83.789062"/>
       <use xlink:href="#DejaVuSans-30" x="147.412109"/>
      </g>
     </g>
    </g>
    <g id="ytick_2">
     <g id="line2d_10">
      <path d="M 283.571113 207.477187 
C 283.571113 196.445442 281.398099 185.520966 277.176433 175.328962 
C 272.954767 165.136957 266.766548 155.875634 258.965926 148.075012 
C 251.165304 140.274389 241.90398 134.086171 231.711976 129.864504 
C 221.519972 125.642838 210.595496 123.469825 199.56375 123.469825 
C 188.532004 123.469825 177.607528 125.642838 167.415524 129.864504 
C 157.22352 134.086171 147.962196 140.274389 140.161574 148.075012 
C 132.360952 155.875634 126.172733 165.136957 121.951067 175.328962 
C 117.729401 185.520966 115.556387 196.445442 115.556387 207.477187 
C 115.556387 218.508933 117.729401 229.433409 121.951067 239.625413 
C 126.172733 249.817418 132.360952 259.078741 140.161574 266.879363 
C 147.962196 274.679986 157.22352 280.868204 167.415524 285.089871 
C 177.607528 289.311537 188.532004 291.48455 199.56375 291.48455 
C 210.595496 291.48455 221.519972 289.311537 231.711976 285.089871 
C 241.90398 280.868204 251.165304 274.679986 258.965926 266.879363 
C 266.766548 259.078741 272.954767 249.817418 277.176433 239.625413 
C 281.398099 229.433409 283.571113 218.508933 283.571113 207.477188 
" clip-path="url(#p4f6e162584)" style="fill: none; stroke: #b0b0b0; stroke-width: 0.8; stroke-linecap: square"/>
     </g>
     <g id="text_10">
      <!-- −27 -->
      <g transform="translate(277.176433 173.249274)scale(0.1 -0.1)">
       <use xlink:href="#DejaVuSans-2212"/>
       <use xlink:href="#DejaVuSans-32" x="83.789062"/>
       <use xlink:href="#DejaVuSans-37" x="147.412109"/>
      </g>
     </g>
    </g>
    <g id="ytick_3">
     <g id="line2d_11">
      <path d="M 292.716961 207.477187 
C 292.716961 195.24442 290.307373 183.1306 285.626095 171.828997 
C 280.944818 160.527393 274.08289 150.257793 265.433017 141.60792 
C 256.783145 132.958047 246.513544 126.09612 235.211941 121.414842 
C 223.910337 116.733565 211.796518 114.323976 199.56375 114.323976 
C 187.330982 114.323976 175.217163 116.733565 163.915559 121.414842 
C 152.613956 126.09612 142.344355 132.958047 133.694483 141.60792 
C 125.04461 150.257793 118.182682 160.527393 113.501405 171.828997 
C 108.820127 183.1306 106.410539 195.24442 106.410539 207.477187 
C 106.410539 219.709955 108.820127 231.823775 113.501405 243.125378 
C 118.182682 254.426982 125.04461 264.696582 133.694483 273.346455 
C 142.344355 281.996328 152.613956 288.858255 163.915559 293.539533 
C 175.217163 298.22081 187.330982 300.630399 199.56375 300.630399 
C 211.796518 300.630399 223.910337 298.22081 235.211941 293.539533 
C 246.513544 288.858255 256.783145 281.996328 265.433017 273.346455 
C 274.08289 264.696582 280.944818 254.426982 285.626095 243.125378 
C 290.307373 231.823775 292.716961 219.709955 292.716961 207.477188 
" clip-path="url(#p4f6e162584)" style="fill: none; stroke: #b0b0b0; stroke-width: 0.8; stroke-linecap: square"/>
     </g>
     <g id="text_11">
      <!-- −24 -->
      <g transform="translate(285.626095 169.749309)scale(0.1 -0.1)">
       <use xlink:href="#DejaVuSans-2212"/>
       <use xlink:href="#DejaVuSans-32" x="83.789062"/>
       <use xlink:href="#DejaVuSans-34" x="147.412109"/>
      </g>
     </g>
    </g>
    <g id="ytick_4">
     <g id="line2d_12">
      <path d="M 301.86281 207.477187 
C 301.86281 194.043398 299.216646 180.740235 294.075758 168.329032 
C 288.934869 155.917829 281.399233 144.639952 271.900109 135.140828 
C 262.400985 125.641705 251.123109 118.106068 238.711905 112.96518 
C 226.300702 107.824291 212.997539 105.178127 199.56375 105.178127 
C 186.129961 105.178127 172.826798 107.824291 160.415595 112.96518 
C 148.004391 118.106068 136.726515 125.641705 127.227391 135.140828 
C 117.728267 144.639952 110.192631 155.917829 105.051742 168.329032 
C 99.910854 180.740235 97.26469 194.043398 97.26469 207.477187 
C 97.26469 220.910977 99.910854 234.21414 105.051742 246.625343 
C 110.192631 259.036546 117.728267 270.314423 127.227391 279.813547 
C 136.726515 289.31267 148.004391 296.848307 160.415595 301.989195 
C 172.826798 307.130084 186.129961 309.776248 199.56375 309.776248 
C 212.997539 309.776248 226.300702 307.130084 238.711905 301.989195 
C 251.123109 296.848307 262.400985 289.31267 271.900109 279.813547 
C 281.399233 270.314423 288.934869 259.036546 294.075758 246.625343 
C 299.216646 234.21414 301.86281 220.910977 301.86281 207.477188 
" clip-path="url(#p4f6e162584)" style="fill: none; stroke: #b0b0b0; stroke-width: 0.8; stroke-linecap: square"/>
     </g>
     <g id="text_12">
      <!-- −21 -->
      <g transform="translate(294.075758 166.249345)scale(0.1 -0.1)">
       <use xlink:href="#DejaVuSans-2212"/>
       <use xlink:href="#DejaVuSans-32" x="83.789062"/>
       <use xlink:href="#DejaVuSans-31" x="147.412109"/>
      </g>
     </g>
    </g>
    <g id="ytick_5">
     <g id="line2d_13">
      <path d="M 311.008659 207.477187 
C 311.008659 192.842376 308.12592 178.34987 302.52542 164.829067 
C 296.92492 151.308265 288.715575 139.022111 278.367201 128.673737 
C 268.018826 118.325363 255.732673 110.116017 242.21187 104.515517 
C 228.691068 98.915018 214.198561 96.032279 199.56375 96.032279 
C 184.928939 96.032279 170.436432 98.915018 156.91563 104.515517 
C 143.394827 110.116017 131.108674 118.325363 120.760299 128.673737 
C 110.411925 139.022111 102.20258 151.308265 96.60208 164.829067 
C 91.00158 178.34987 88.118841 192.842376 88.118841 207.477187 
C 88.118841 222.111999 91.00158 236.604505 96.60208 250.125308 
C 102.20258 263.64611 110.411925 275.932264 120.760299 286.280638 
C 131.108674 296.629012 143.394827 304.838358 156.91563 310.438858 
C 170.436432 316.039357 184.928939 318.922096 199.56375 318.922096 
C 214.198561 318.922096 228.691068 316.039357 242.21187 310.438858 
C 255.732673 304.838358 268.018826 296.629012 278.367201 286.280638 
C 288.715575 275.932264 296.92492 263.64611 302.52542 250.125308 
C 308.12592 236.604505 311.008659 222.111999 311.008659 207.477188 
" clip-path="url(#p4f6e162584)" style="fill: none; stroke: #b0b0b0; stroke-width: 0.8; stroke-linecap: square"/>
     </g>
     <g id="text_13">
      <!-- −18 -->
      <g transform="translate(302.52542 162.74938)scale(0.1 -0.1)">
       <use xlink:href="#DejaVuSans-2212"/>
       <use xlink:href="#DejaVuSans-31" x="83.789062"/>
       <use xlink:href="#DejaVuSans-38" x="147.412109"/>
      </g>
     </g>
    </g>
    <g id="ytick_6">
     <g id="line2d_14">
      <path d="M 320.154507 207.477187 
C 320.154507 191.641354 317.035193 175.959505 310.975082 161.329103 
C 304.914971 146.698701 296.031917 133.40427 284.834292 122.206645 
C 273.636667 111.00902 260.342237 102.125966 245.711835 96.065855 
C 231.081433 90.005744 215.399583 86.88643 199.56375 86.88643 
C 183.727917 86.88643 168.046067 90.005744 153.415665 96.065855 
C 138.785263 102.125966 125.490833 111.00902 114.293208 122.206645 
C 103.095583 133.40427 94.212529 146.698701 88.152418 161.329103 
C 82.092307 175.959505 78.972993 191.641354 78.972993 207.477187 
C 78.972993 223.313021 82.092307 238.99487 88.152418 253.625272 
C 94.212529 268.255674 103.095583 281.550105 114.293208 292.74773 
C 125.490833 303.945355 138.785263 312.828409 153.415665 318.88852 
C 168.046067 324.948631 183.727917 328.067945 199.56375 328.067945 
C 215.399583 328.067945 231.081433 324.948631 245.711835 318.88852 
C 260.342237 312.828409 273.636667 303.945355 284.834292 292.74773 
C 296.031917 281.550105 304.914971 268.255674 310.975082 253.625272 
C 317.035193 238.99487 320.154507 223.313021 320.154507 207.477188 
" clip-path="url(#p4f6e162584)" style="fill: none; stroke: #b0b0b0; stroke-width: 0.8; stroke-linecap: square"/>
     </g>
     <g id="text_14">
      <!-- −15 -->
      <g transform="translate(310.975082 159.249415)scale(0.1 -0.1)">
       <use xlink:href="#DejaVuSans-2212"/>
       <use xlink:href="#DejaVuSans-31" x="83.789062"/>
       <use xlink:href="#DejaVuSans-35" x="147.412109"/>
      </g>
     </g>
    </g>
    <g id="ytick_7">
     <g id="line2d_15">
      <path d="M 329.300356 207.477187 
C 329.300356 190.440333 325.944467 173.56914 319.424745 157.829138 
C 312.905023 142.089136 303.348259 127.78643 291.301384 115.739554 
C 279.254508 103.692678 264.951801 94.135915 249.2118 87.616193 
C 233.471798 81.096471 216.600605 77.740582 199.56375 77.740582 
C 182.526895 77.740582 165.655702 81.096471 149.9157 87.616193 
C 134.175699 94.135915 119.872992 103.692678 107.826116 115.739554 
C 95.779241 127.78643 86.222477 142.089136 79.702755 157.829138 
C 73.183033 173.56914 69.827144 190.440333 69.827144 207.477187 
C 69.827144 224.514042 73.183033 241.385235 79.702755 257.125237 
C 86.222477 272.865239 95.779241 287.167945 107.826116 299.214821 
C 119.872992 311.261697 134.175699 320.81846 149.9157 327.338182 
C 165.655702 333.857904 182.526895 337.213793 199.56375 337.213793 
C 216.600605 337.213793 233.471798 333.857904 249.2118 327.338182 
C 264.951801 320.81846 279.254508 311.261697 291.301384 299.214821 
C 303.348259 287.167945 312.905023 272.865239 319.424745 257.125237 
C 325.944467 241.385235 329.300356 224.514042 329.300356 207.477188 
" clip-path="url(#p4f6e162584)" style="fill: none; stroke: #b0b0b0; stroke-width: 0.8; stroke-linecap: square"/>
     </g>
     <g id="text_15">
      <!-- −12 -->
      <g transform="translate(319.424745 155.74945)scale(0.1 -0.1)">
       <use xlink:href="#DejaVuSans-2212"/>
       <use xlink:href="#DejaVuSans-31" x="83.789062"/>
       <use xlink:href="#DejaVuSans-32" x="147.412109"/>
      </g>
     </g>
    </g>
    <g id="ytick_8">
     <g id="line2d_16">
      <path d="M 338.446204 207.477187 
C 338.446204 189.239311 334.85374 171.178774 327.874407 154.329173 
C 320.895074 137.479572 310.664602 122.168589 297.768475 109.272462 
C 284.872349 96.376336 269.561365 86.145864 252.711764 79.166531 
C 235.862163 72.187197 217.801627 68.594733 199.56375 68.594733 
C 181.325873 68.594733 163.265337 72.187197 146.415736 79.166531 
C 129.566135 86.145864 114.255151 96.376336 101.359025 109.272462 
C 88.462898 122.168589 78.232426 137.479572 71.253093 154.329173 
C 64.27376 171.178774 60.681296 189.239311 60.681296 207.477187 
C 60.681296 225.715064 64.27376 243.775601 71.253093 260.625202 
C 78.232426 277.474803 88.462898 292.785786 101.359025 305.681913 
C 114.255151 318.578039 129.566135 328.808511 146.415736 335.787844 
C 163.265337 342.767178 181.325873 346.359642 199.56375 346.359642 
C 217.801627 346.359642 235.862163 342.767178 252.711764 335.787844 
C 269.561365 328.808511 284.872349 318.578039 297.768475 305.681913 
C 310.664602 292.785786 320.895074 277.474803 327.874407 260.625202 
C 334.85374 243.775601 338.446204 225.715064 338.446204 207.477188 
" clip-path="url(#p4f6e162584)" style="fill: none; stroke: #b0b0b0; stroke-width: 0.8; stroke-linecap: square"/>
     </g>
     <g id="text_16">
      <!-- −9 -->
      <g transform="translate(327.874407 152.249486)scale(0.1 -0.1)">
       <use xlink:href="#DejaVuSans-2212"/>
       <use xlink:href="#DejaVuSans-39" x="83.789062"/>
      </g>
     </g>
    </g>
    <g id="ytick_9">
     <g id="line2d_17">
      <path d="M 347.592053 207.477187 
C 347.592053 188.038289 343.763014 168.788409 336.324069 150.829208 
C 328.885125 132.870008 317.980944 116.550748 304.235567 102.805371 
C 290.49019 89.059994 274.17093 78.155813 256.211729 70.716868 
C 238.252528 63.277924 219.002649 59.448885 199.56375 59.448885 
C 180.124851 59.448885 160.874972 63.277924 142.915771 70.716868 
C 124.95657 78.155813 108.63731 89.059994 94.891933 102.805371 
C 81.146556 116.550748 70.242375 132.870008 62.803431 150.829208 
C 55.364486 168.788409 51.535447 188.038289 51.535447 207.477187 
C 51.535447 226.916086 55.364486 246.165966 62.803431 264.125167 
C 70.242375 282.084367 81.146556 298.403627 94.891933 312.149004 
C 108.63731 325.894381 124.95657 336.798562 142.915771 344.237507 
C 160.874972 351.676451 180.124851 355.50549 199.56375 355.50549 
C 219.002649 355.50549 238.252528 351.676451 256.211729 344.237507 
C 274.17093 336.798562 290.49019 325.894381 304.235567 312.149004 
C 317.980944 298.403627 328.885125 282.084367 336.324069 264.125167 
C 343.763014 246.165966 347.592053 226.916086 347.592053 207.477188 
" clip-path="url(#p4f6e162584)" style="fill: none; stroke: #b0b0b0; stroke-width: 0.8; stroke-linecap: square"/>
     </g>
     <g id="text_17">
      <!-- −6 -->
      <g transform="translate(336.324069 148.749521)scale(0.1 -0.1)">
       <defs>
        <path id="DejaVuSans-36" d="M 2113 2584 
Q 1688 2584 1439 2293 
Q 1191 2003 1191 1497 
Q 1191 994 1439 701 
Q 1688 409 2113 409 
Q 2538 409 2786 701 
Q 3034 994 3034 1497 
Q 3034 2003 2786 2293 
Q 2538 2584 2113 2584 
z
M 3366 4563 
L 3366 3988 
Q 3128 4100 2886 4159 
Q 2644 4219 2406 4219 
Q 1781 4219 1451 3797 
Q 1122 3375 1075 2522 
Q 1259 2794 1537 2939 
Q 1816 3084 2150 3084 
Q 2853 3084 3261 2657 
Q 3669 2231 3669 1497 
Q 3669 778 3244 343 
Q 2819 -91 2113 -91 
Q 1303 -91 875 529 
Q 447 1150 447 2328 
Q 447 3434 972 4092 
Q 1497 4750 2381 4750 
Q 2619 4750 2861 4703 
Q 3103 4656 3366 4563 
z
" transform="scale(0.015625)"/>
       </defs>
       <use xlink:href="#DejaVuSans-2212"/>
       <use xlink:href="#DejaVuSans-36" x="83.789062"/>
      </g>
     </g>
    </g>
    <g id="ytick_10">
     <g id="line2d_18">
      <path d="M 356.737901 207.477187 
C 356.737901 186.837267 352.672287 166.398044 344.773732 147.329244 
C 336.875176 128.260444 325.297286 110.932907 310.702658 96.338279 
C 296.108031 81.743651 278.780494 70.165762 259.711694 62.267206 
C 240.642894 54.36865 220.20367 50.303036 199.56375 50.303036 
C 178.92383 50.303036 158.484606 54.36865 139.415806 62.267206 
C 120.347006 70.165762 103.019469 81.743651 88.424842 96.338279 
C 73.830214 110.932907 62.252324 128.260444 54.353768 147.329244 
C 46.455213 166.398044 42.389599 186.837267 42.389599 207.477187 
C 42.389599 228.117108 46.455213 248.556331 54.353768 267.625131 
C 62.252324 286.693931 73.830214 304.021468 88.424842 318.616096 
C 103.019469 333.210724 120.347006 344.788613 139.415806 352.687169 
C 158.484606 360.585725 178.92383 364.651339 199.56375 364.651339 
C 220.20367 364.651339 240.642894 360.585725 259.711694 352.687169 
C 278.780494 344.788613 296.108031 333.210724 310.702658 318.616096 
C 325.297286 304.021468 336.875176 286.693931 344.773732 267.625131 
C 352.672287 248.556331 356.737901 228.117108 356.737901 207.477188 
" clip-path="url(#p4f6e162584)" style="fill: none; stroke: #b0b0b0; stroke-width: 0.8; stroke-linecap: square"/>
     </g>
     <g id="text_18">
      <!-- −3 -->
      <g transform="translate(344.773732 145.249556)scale(0.1 -0.1)">
       <use xlink:href="#DejaVuSans-2212"/>
       <use xlink:href="#DejaVuSans-33" x="83.789062"/>
      </g>
     </g>
    </g>
   </g>
   <g id="line2d_19">
    <path d="M 301.140288 207.477187 
L 294.857817 205.813823 
L 282.430008 203.134351 
L 277.122912 202.053723 
L 278.091551 200.606895 
L 284.830008 198.515343 
L 294.261772 195.849732 
L 298.548691 193.565761 
L 302.406977 191.18842 
L 307.643278 188.419851 
L 313.675516 183.221983 
L 316.641966 180.447552 
L 318.557304 177.808762 
L 320.880735 174.970399 
L 322.844487 172.127005 
L 323.992993 169.43535 
L 325.562959 166.537563 
L 326.881631 163.638126 
L 327.437851 160.934821 
L 328.276776 158.068886 
L 328.664035 155.317287 
L 328.825694 152.608748 
L 329.263225 149.731261 
L 329.180607 147.035854 
L 328.906122 144.392698 
L 328.79864 141.628722 
L 327.263667 133.749606 
L 324.689979 126.219264 
L 322.557047 121.356354 
L 318.700471 114.39738 
L 317.29952 112.136641 
L 315.708746 110.019964 
L 314.243283 107.78779 
L 310.865994 103.686165 
L 309.07492 101.72348 
L 307.171626 99.869311 
L 305.347106 97.935315 
L 301.267957 94.523222 
L 294.605002 90.111016 
L 292.176206 88.93865 
L 289.487866 88.143855 
L 286.984748 87.152507 
L 284.09859 86.748924 
L 278.341043 86.170794 
L 269.116252 87.008721 
L 259.780545 89.295073 
L 256.556813 90.624092 
L 251.017999 91.909053 
L 248.494111 92.20448 
L 246.212206 92.018208 
L 244.171491 91.270049 
L 242.63605 89.137015 
L 241.11701 86.797758 
L 239.70638 83.930876 
L 238.451459 80.281224 
L 236.803795 77.605716 
L 235.199871 74.481375 
L 233.447142 71.578325 
L 231.462491 69.308561 
L 229.499455 66.640768 
L 227.356317 64.496828 
L 225.102897 62.637487 
L 222.826352 60.602898 
L 220.432608 58.987549 
L 215.470627 56.133362 
L 212.881891 55.250137 
L 207.616814 53.815564 
L 204.940313 53.51257 
L 202.253771 53.365982 
L 199.56375 53.449208 
L 196.87873 53.652508 
L 194.208679 54.128015 
L 188.932437 55.442325 
L 186.349499 56.43761 
L 181.290687 58.655031 
L 178.871819 60.24645 
L 174.207241 63.673281 
L 172.052146 65.942256 
L 167.817254 69.968008 
L 165.931117 72.584065 
L 164.012057 74.796462 
L 162.243035 77.324386 
L 160.7625 80.564018 
L 159.191254 83.223421 
L 157.755409 86.056949 
L 156.516474 89.205769 
L 154.899198 91.122051 
L 151.014569 93.102485 
L 148.669974 93.167895 
L 145.985728 92.57875 
L 143.057146 91.62148 
L 140.160772 90.892279 
L 136.801218 89.438032 
L 133.541707 88.370269 
L 130.465492 87.795494 
L 126.989846 86.693928 
L 120.663588 85.981592 
L 117.046498 85.14033 
L 110.773717 85.268191 
L 107.384784 85.151568 
L 101.222581 86.035958 
L 98.163786 86.633416 
L 89.718239 89.682299 
L 84.482072 92.395509 
L 82.021847 93.968291 
L 79.719844 95.720937 
L 77.291523 97.38278 
L 75.059716 99.247482 
L 68.79729 105.311232 
L 66.853994 107.473213 
L 63.322382 112.079955 
L 61.799537 114.554052 
L 58.976587 119.628578 
L 57.749666 122.266689 
L 55.550177 127.649161 
L 54.604219 130.400838 
L 53.002728 135.994601 
L 52.401941 138.854509 
L 52.031603 141.791644 
L 51.541918 144.645648 
L 51.380902 147.607431 
L 51.371821 150.591636 
L 51.223788 153.485857 
L 51.361989 156.447229 
L 51.790849 162.298478 
L 53.666647 171.100954 
L 57.840284 179.928936 
L 64.106907 188.43997 
L 67.275069 191.23418 
L 70.744025 193.937689 
L 74.517986 196.537101 
L 79.135975 199.056057 
L 85.769045 201.51346 
L 93.731832 203.781455 
L 105.028673 205.827072 
L 129.455028 207.477187 
L 134.937139 208.605249 
L 109.355613 210.627325 
L 98.701818 212.763137 
L 88.998554 215.208659 
L 83.137036 217.663205 
L 73.245154 222.987161 
L 70.126688 225.66838 
L 64.040189 231.373648 
L 60.167635 237.106747 
L 58.326618 240.084349 
L 57.263647 242.956588 
L 55.993387 245.94675 
L 54.986939 248.933921 
L 53.950057 254.789944 
L 53.708362 257.699225 
L 53.658836 260.582233 
L 53.486494 263.550992 
L 54.226222 272.185624 
L 54.720085 275.018898 
L 56.030063 280.611254 
L 57.94192 285.97945 
L 58.83983 288.724181 
L 62.515234 296.477535 
L 64.06663 298.871149 
L 67.393035 303.504833 
L 69.1256 305.769384 
L 70.988226 307.931396 
L 74.852597 312.12227 
L 76.95099 314.062834 
L 81.351923 317.711499 
L 88.522028 322.464256 
L 91.240178 323.639996 
L 93.834776 324.901109 
L 96.550233 325.980684 
L 99.512 326.71422 
L 102.302729 327.584546 
L 105.423485 327.971232 
L 108.702101 328.054668 
L 111.789742 328.287745 
L 115.406611 327.666038 
L 122.504966 326.137308 
L 126.558542 324.309942 
L 130.783337 321.947018 
L 135.128351 319.082573 
L 141.018901 313.094891 
L 147.408127 305.567648 
L 155.212237 294.521932 
L 184.006556 239.374162 
L 164.78092 282.069206 
L 157.873135 301.115842 
L 154.008028 314.799744 
L 153.484026 321.528506 
L 153.471266 327.552214 
L 153.717899 333.437627 
L 156.111613 341.209113 
L 157.538563 344.935381 
L 159.370847 347.646499 
L 161.218855 350.582282 
L 163.262007 353.075527 
L 165.530147 354.892919 
L 167.805746 356.886848 
L 170.226761 358.402912 
L 175.24098 361.045113 
L 180.493749 362.789883 
L 183.165488 363.496227 
L 185.883454 363.84369 
L 191.36645 363.890983 
L 194.102816 363.857885 
L 196.839198 363.566644 
L 204.952229 361.783042 
L 210.23079 360.022969 
L 217.807834 356.063325 
L 222.520177 352.418362 
L 224.86732 350.980864 
L 231.070219 343.946699 
L 232.76493 340.639845 
L 234.480266 337.7874 
L 236.057598 334.746359 
L 237.019093 329.988094 
L 238.182104 326.33226 
L 239.222266 322.65388 
L 240.035586 318.672643 
L 241.242428 316.053855 
L 243.131004 315.309925 
L 245.151634 314.875513 
L 247.759321 315.726212 
L 250.704117 317.148059 
L 253.887971 318.858347 
L 256.933569 320.071797 
L 260.31253 321.729025 
L 263.587539 322.979161 
L 270.05092 324.787538 
L 273.211935 325.33892 
L 276.243963 325.554362 
L 279.48976 325.972371 
L 282.442652 325.840527 
L 285.268077 325.439074 
L 288.234764 325.147597 
L 295.92359 322.314373 
L 298.277112 321.033921 
L 300.764096 319.871559 
L 303.032504 318.433841 
L 307.298812 315.21225 
L 311.265096 311.640378 
L 314.903619 307.740606 
L 316.530798 305.624194 
L 318.052932 303.427835 
L 320.769392 298.81219 
L 322.94912 293.872553 
L 323.654635 291.177546 
L 325.667653 286.275651 
L 326.396507 283.685997 
L 328.014665 275.775751 
L 328.486261 273.166488 
L 328.519771 270.373241 
L 328.277111 267.497213 
L 328.575318 264.916838 
L 328.982845 262.412334 
L 328.827979 259.703326 
L 328.988308 257.158621 
L 328.853277 251.995142 
L 329.02485 249.541649 
L 328.969592 247.040524 
L 328.515039 244.453375 
L 328.254357 241.959732 
L 327.818988 239.45481 
L 326.723776 236.834393 
L 325.339626 231.925541 
L 324.209975 229.45568 
L 323.285825 227.072839 
L 320.626371 222.341808 
L 319.578792 220.091277 
L 317.557564 217.800309 
L 315.128663 215.558273 
L 312.265502 213.383636 
L 304.657625 209.311608 
L 304.657625 209.311608 
" clip-path="url(#p4f6e162584)" style="fill: none; stroke: #ff0000; stroke-width: 1.5; stroke-linecap: square"/>
   </g>
   <g id="line2d_20">
    <path d="M 207.48375 207.477187 
L 256.557789 206.482353 
L 274.903703 204.846258 
L 285.593179 202.968576 
L 293.104365 200.93619 
L 298.837402 198.791868 
L 303.43081 196.56032 
L 307.218642 194.258829 
L 310.382964 191.902563 
L 313.075243 189.498733 
L 315.416235 187.049269 
L 317.376306 184.576747 
L 319.105732 182.067755 
L 320.574882 179.539566 
L 321.814127 176.996745 
L 322.853709 174.441743 
L 323.729503 171.873231 
L 324.436135 169.299868 
L 324.988877 166.724093 
L 325.397131 164.14928 
L 325.673158 161.577117 
L 325.820567 159.011736 
L 325.848714 156.45475 
L 325.55911 151.380439 
L 324.842586 146.374617 
L 323.72937 141.457156 
L 322.244687 136.647316 
L 320.406418 131.966308 
L 318.233325 127.433549 
L 315.744908 123.066635 
L 312.954068 118.886962 
L 309.872642 114.917037 
L 306.516238 111.176735 
L 302.897265 107.689172 
L 299.025632 104.481393 
L 294.915639 101.578187 
L 290.575807 99.013242 
L 288.323648 97.867841 
L 286.016169 96.823137 
L 283.659014 95.879003 
L 281.248774 95.047397 
L 278.789797 94.330667 
L 276.279689 93.741131 
L 273.721823 93.283769 
L 271.116605 92.968684 
L 268.461925 92.811369 
L 265.759725 92.822395 
L 263.008164 93.020435 
L 260.206618 93.424541 
L 257.35847 94.048662 
L 254.447934 94.947935 
L 251.4836 96.134711 
L 248.453712 97.668535 
L 245.350563 99.610216 
L 242.159135 102.04991 
L 238.881478 105.051003 
L 235.503021 108.734853 
L 232.047249 113.138255 
L 225.659995 122.120217 
L 223.880629 122.674152 
L 223.375318 118.611205 
L 223.273694 112.381794 
L 222.975161 106.071226 
L 222.330058 100.370131 
L 221.364772 95.320654 
L 220.129309 90.844104 
L 218.672478 86.829428 
L 217.022202 83.253847 
L 215.212305 80.029934 
L 213.267044 77.099058 
L 211.203702 74.431926 
L 209.037338 71.998563 
L 206.780601 69.771465 
L 204.44366 67.734841 
L 202.035468 65.872549 
L 199.56375 64.17424 
L 197.035368 62.626267 
L 194.456367 61.22087 
L 191.832183 59.950107 
L 189.167852 58.808923 
L 186.468003 57.792119 
L 183.73654 56.891341 
L 180.977856 56.107229 
L 175.392637 54.866786 
L 169.739294 54.04366 
L 164.042738 53.618781 
L 158.325604 53.57433 
L 152.609156 53.895632 
L 146.912986 54.568266 
L 141.256821 55.582445 
L 135.658949 56.92691 
L 130.135821 58.588513 
L 124.703782 60.556228 
L 119.381003 62.823684 
L 114.180535 65.375654 
L 109.118859 68.204269 
L 104.210232 71.298251 
L 99.469875 74.648129 
L 94.910531 78.241225 
L 90.546016 82.06663 
L 86.391598 86.114912 
L 82.460028 90.373465 
L 78.761109 94.826902 
L 75.312806 99.46749 
L 72.126025 104.280153 
L 69.215685 109.252875 
L 66.593819 114.370639 
L 64.278648 119.622015 
L 62.283523 124.990905 
L 60.627044 130.463314 
L 59.328782 136.023903 
L 58.411156 141.656652 
L 57.900917 147.344882 
L 57.808653 150.204411 
L 57.829686 153.070578 
L 57.973168 155.94243 
L 58.242571 158.816403 
L 58.644196 161.689649 
L 59.19015 164.560671 
L 59.883835 167.424616 
L 60.743248 170.280346 
L 61.777645 173.123253 
L 63.005124 175.950145 
L 64.449782 178.757827 
L 66.135784 181.541418 
L 68.093296 184.295399 
L 70.373549 187.01547 
L 73.04601 189.696279 
L 76.143959 192.323143 
L 79.870091 194.896877 
L 84.345768 197.39692 
L 89.93524 199.811215 
L 97.185688 202.111781 
L 107.405687 204.258957 
L 124.463689 206.166311 
L 182.924708 207.477187 
L 129.584584 208.698678 
L 109.964964 210.606046 
L 98.890573 212.753245 
L 91.21254 215.053842 
L 85.378353 217.467115 
L 80.719027 219.968271 
L 76.870173 222.542064 
L 73.649799 225.173239 
L 70.933611 227.8502 
L 68.597682 230.570039 
L 66.59066 233.324538 
L 64.867261 236.10781 
L 63.388316 238.915764 
L 62.129655 241.743356 
L 61.070113 244.586446 
L 60.188608 247.442366 
L 59.47586 250.306354 
L 58.913841 253.177113 
L 58.496234 256.050629 
L 58.210943 258.925402 
L 58.05453 261.797488 
L 58.02065 264.664312 
L 58.295179 270.374008 
L 58.99336 276.037948 
L 60.088159 281.637675 
L 61.55367 287.157345 
L 63.368878 292.581189 
L 65.51484 297.894319 
L 67.975101 303.081937 
L 70.731175 308.132226 
L 73.773653 313.027611 
L 77.083091 317.759268 
L 80.649034 322.311793 
L 84.458072 326.672606 
L 88.496299 330.830088 
L 92.751336 334.771266 
L 97.206349 338.488687 
L 101.851689 341.966302 
L 106.673006 345.19338 
L 111.653751 348.162595 
L 116.780254 350.862408 
L 122.039423 353.279241 
L 127.41295 355.408249 
L 132.888699 357.231804 
L 138.446894 358.746713 
L 144.073034 359.936677 
L 149.74809 360.794023 
L 155.453814 361.306816 
L 161.171007 361.462068 
L 166.879131 361.246228 
L 172.556614 360.642268 
L 178.179386 359.634847 
L 180.962252 358.974233 
L 183.721881 358.202502 
L 186.454452 357.317144 
L 189.156156 356.312718 
L 191.822451 355.189979 
L 194.449238 353.937637 
L 197.031484 352.550623 
L 199.56375 351.024025 
L 202.04015 349.350063 
L 204.453981 347.515069 
L 206.797673 345.508665 
L 209.062645 343.317713 
L 211.238509 340.920298 
L 213.313569 338.297977 
L 215.273608 335.423714 
L 217.098573 332.243938 
L 218.772629 328.757274 
L 220.261656 324.860846 
L 221.533466 320.501576 
L 222.539226 315.568302 
L 223.235761 310.011931 
L 223.590831 303.844546 
L 223.690934 297.521064 
L 224.015079 292.749106 
L 225.472816 292.221922 
L 228.247931 295.75802 
L 231.62046 300.576635 
L 235.096372 305.102265 
L 238.510019 308.935688 
L 241.816526 312.056477 
L 245.01703 314.558405 
L 248.143716 316.589577 
L 251.200151 318.211808 
L 254.180649 319.458425 
L 257.095502 320.389609 
L 259.961876 321.069542 
L 262.773162 321.509986 
L 265.532603 321.738593 
L 268.243673 321.779775 
L 270.904971 321.647008 
L 273.519255 321.358678 
L 276.083641 320.922591 
L 278.597449 320.349008 
L 281.064205 319.652941 
L 283.477379 318.834334 
L 285.841616 317.90782 
L 288.152897 316.875673 
L 292.610908 314.515698 
L 296.847029 311.800732 
L 300.848966 308.762404 
L 304.603001 305.427874 
L 308.102395 301.828392 
L 311.329086 297.982972 
L 314.275959 293.919037 
L 316.928177 289.656644 
L 319.269596 285.215073 
L 321.287752 280.616347 
L 322.960874 275.87733 
L 324.273222 271.019838 
L 325.201909 266.063223 
L 325.719157 261.026981 
L 325.814794 258.48592 
L 325.794952 255.932806 
L 325.653104 253.369959 
L 325.382719 250.800133 
L 324.980179 248.227455 
L 324.436135 245.654507 
L 323.738295 243.083665 
L 322.883156 240.520523 
L 321.843708 237.965005 
L 320.604586 235.421666 
L 319.135552 232.892959 
L 317.436158 230.389263 
L 315.476281 227.915694 
L 313.165576 225.469949 
L 310.503722 223.068784 
L 307.339678 220.710408 
L 303.582406 218.409989 
L 299.049993 216.181106 
L 293.378072 214.037324 
L 285.958512 212.004945 
L 275.482587 210.128332 
L 257.685605 208.491708 
L 257.685605 208.491708 
" clip-path="url(#p4f6e162584)" style="fill: none; stroke-dasharray: 5.55,2.4; stroke-dashoffset: 0; stroke: #0000ff; stroke-width: 1.5"/>
   </g>
   <g id="patch_3">
    <path d="M 365.88375 207.477187 
C 365.88375 185.636245 361.581561 164.007679 353.223394 143.829279 
C 344.865227 123.650879 332.613628 105.315066 317.16975 89.871188 
C 301.725871 74.427309 283.390058 62.17571 263.211658 53.817544 
C 243.033259 45.459377 221.404692 41.157187 199.56375 41.157187 
C 177.722808 41.157187 156.094241 45.459377 135.915842 53.817544 
C 115.737442 62.17571 97.401629 74.427309 81.95775 89.871188 
C 66.513872 105.315066 54.262273 123.650879 45.904106 143.829279 
C 37.545939 164.007679 33.24375 185.636245 33.24375 207.477187 
C 33.24375 229.31813 37.545939 250.946696 45.904106 271.125096 
C 54.262273 291.303496 66.513872 309.639309 81.95775 325.083187 
C 97.401629 340.527066 115.737442 352.778665 135.915842 361.136831 
C 156.094241 369.494998 177.722808 373.797188 199.56375 373.797188 
C 221.404692 373.797188 243.033259 369.494998 263.211658 361.136831 
C 283.390058 352.778665 301.725871 340.527066 317.16975 325.083187 
C 332.613628 309.639309 344.865227 291.303496 353.223394 271.125096 
C 361.581561 250.946696 365.88375 229.31813 365.88375 207.477188 
" style="fill: none; stroke: #000000; stroke-width: 0.8; stroke-linejoin: miter; stroke-linecap: square"/>
   </g>
   <g id="text_19">
    <!-- Radiation Diagram - 3AVHF06 -->
    <g transform="translate(110.319375 16.318125)scale(0.12 -0.12)">
     <defs>
      <path id="DejaVuSans-52" d="M 2841 2188 
Q 3044 2119 3236 1894 
Q 3428 1669 3622 1275 
L 4263 0 
L 3584 0 
L 2988 1197 
Q 2756 1666 2539 1819 
Q 2322 1972 1947 1972 
L 1259 1972 
L 1259 0 
L 628 0 
L 628 4666 
L 2053 4666 
Q 2853 4666 3247 4331 
Q 3641 3997 3641 3322 
Q 3641 2881 3436 2590 
Q 3231 2300 2841 2188 
z
M 1259 4147 
L 1259 2491 
L 2053 2491 
Q 2509 2491 2742 2702 
Q 2975 2913 2975 3322 
Q 2975 3731 2742 3939 
Q 2509 4147 2053 4147 
L 1259 4147 
z
" transform="scale(0.015625)"/>
      <path id="DejaVuSans-61" d="M 2194 1759 
Q 1497 1759 1228 1600 
Q 959 1441 959 1056 
Q 959 750 1161 570 
Q 1363 391 1709 391 
Q 2188 391 2477 730 
Q 2766 1069 2766 1631 
L 2766 1759 
L 2194 1759 
z
M 3341 1997 
L 3341 0 
L 2766 0 
L 2766 531 
Q 2569 213 2275 61 
Q 1981 -91 1556 -91 
Q 1019 -91 701 211 
Q 384 513 384 1019 
Q 384 1609 779 1909 
Q 1175 2209 1959 2209 
L 2766 2209 
L 2766 2266 
Q 2766 2663 2505 2880 
Q 2244 3097 1772 3097 
Q 1472 3097 1187 3025 
Q 903 2953 641 2809 
L 641 3341 
Q 956 3463 1253 3523 
Q 1550 3584 1831 3584 
Q 2591 3584 2966 3190 
Q 3341 2797 3341 1997 
z
" transform="scale(0.015625)"/>
      <path id="DejaVuSans-64" d="M 2906 2969 
L 2906 4863 
L 3481 4863 
L 3481 0 
L 2906 0 
L 2906 525 
Q 2725 213 2448 61 
Q 2172 -91 1784 -91 
Q 1150 -91 751 415 
Q 353 922 353 1747 
Q 353 2572 751 3078 
Q 1150 3584 1784 3584 
Q 2172 3584 2448 3432 
Q 2725 3281 2906 2969 
z
M 947 1747 
Q 947 1113 1208 752 
Q 1469 391 1925 391 
Q 2381 391 2643 752 
Q 2906 1113 2906 1747 
Q 2906 2381 2643 2742 
Q 2381 3103 1925 3103 
Q 1469 3103 1208 2742 
Q 947 2381 947 1747 
z
" transform="scale(0.015625)"/>
      <path id="DejaVuSans-69" d="M 603 3500 
L 1178 3500 
L 1178 0 
L 603 0 
L 603 3500 
z
M 603 4863 
L 1178 4863 
L 1178 4134 
L 603 4134 
L 603 4863 
z
" transform="scale(0.015625)"/>
      <path id="DejaVuSans-74" d="M 1172 4494 
L 1172 3500 
L 2356 3500 
L 2356 3053 
L 1172 3053 
L 1172 1153 
Q 1172 725 1289 603 
Q 1406 481 1766 481 
L 2356 481 
L 2356 0 
L 1766 0 
Q 1100 0 847 248 
Q 594 497 594 1153 
L 594 3053 
L 172 3053 
L 172 3500 
L 594 3500 
L 594 4494 
L 1172 4494 
z
" transform="scale(0.015625)"/>
      <path id="DejaVuSans-6f" d="M 1959 3097 
Q 1497 3097 1228 2736 
Q 959 2375 959 1747 
Q 959 1119 1226 758 
Q 1494 397 1959 397 
Q 2419 397 2687 759 
Q 2956 1122 2956 1747 
Q 2956 2369 2687 2733 
Q 2419 3097 1959 3097 
z
M 1959 3584 
Q 2709 3584 3137 3096 
Q 3566 2609 3566 1747 
Q 3566 888 3137 398 
Q 2709 -91 1959 -91 
Q 1206 -91 779 398 
Q 353 888 353 1747 
Q 353 2609 779 3096 
Q 1206 3584 1959 3584 
z
" transform="scale(0.015625)"/>
      <path id="DejaVuSans-6e" d="M 3513 2113 
L 3513 0 
L 2938 0 
L 2938 2094 
Q 2938 2591 2744 2837 
Q 2550 3084 2163 3084 
Q 1697 3084 1428 2787 
Q 1159 2491 1159 1978 
L 1159 0 
L 581 0 
L 581 3500 
L 1159 3500 
L 1159 2956 
Q 1366 3272 1645 3428 
Q 1925 3584 2291 3584 
Q 2894 3584 3203 3211 
Q 3513 2838 3513 2113 
z
" transform="scale(0.015625)"/>
      <path id="DejaVuSans-20" transform="scale(0.015625)"/>
      <path id="DejaVuSans-44" d="M 1259 4147 
L 1259 519 
L 2022 519 
Q 2988 519 3436 956 
Q 3884 1394 3884 2338 
Q 3884 3275 3436 3711 
Q 2988 4147 2022 4147 
L 1259 4147 
z
M 628 4666 
L 1925 4666 
Q 3281 4666 3915 4102 
Q 4550 3538 4550 2338 
Q 4550 1131 3912 565 
Q 3275 0 1925 0 
L 628 0 
L 628 4666 
z
" transform="scale(0.015625)"/>
      <path id="DejaVuSans-67" d="M 2906 1791 
Q 2906 2416 2648 2759 
Q 2391 3103 1925 3103 
Q 1463 3103 1205 2759 
Q 947 2416 947 1791 
Q 947 1169 1205 825 
Q 1463 481 1925 481 
Q 2391 481 2648 825 
Q 2906 1169 2906 1791 
z
M 3481 434 
Q 3481 -459 3084 -895 
Q 2688 -1331 1869 -1331 
Q 1566 -1331 1297 -1286 
Q 1028 -1241 775 -1147 
L 775 -588 
Q 1028 -725 1275 -790 
Q 1522 -856 1778 -856 
Q 2344 -856 2625 -561 
Q 2906 -266 2906 331 
L 2906 616 
Q 2728 306 2450 153 
Q 2172 0 1784 0 
Q 1141 0 747 490 
Q 353 981 353 1791 
Q 353 2603 747 3093 
Q 1141 3584 1784 3584 
Q 2172 3584 2450 3431 
Q 2728 3278 2906 2969 
L 2906 3500 
L 3481 3500 
L 3481 434 
z
" transform="scale(0.015625)"/>
      <path id="DejaVuSans-72" d="M 2631 2963 
Q 2534 3019 2420 3045 
Q 2306 3072 2169 3072 
Q 1681 3072 1420 2755 
Q 1159 2438 1159 1844 
L 1159 0 
L 581 0 
L 581 3500 
L 1159 3500 
L 1159 2956 
Q 1341 3275 1631 3429 
Q 1922 3584 2338 3584 
Q 2397 3584 2469 3576 
Q 2541 3569 2628 3553 
L 2631 2963 
z
" transform="scale(0.015625)"/>
      <path id="DejaVuSans-6d" d="M 3328 2828 
Q 3544 3216 3844 3400 
Q 4144 3584 4550 3584 
Q 5097 3584 5394 3201 
Q 5691 2819 5691 2113 
L 5691 0 
L 5113 0 
L 5113 2094 
Q 5113 2597 4934 2840 
Q 4756 3084 4391 3084 
Q 3944 3084 3684 2787 
Q 3425 2491 3425 1978 
L 3425 0 
L 2847 0 
L 2847 2094 
Q 2847 2600 2669 2842 
Q 2491 3084 2119 3084 
Q 1678 3084 1418 2786 
Q 1159 2488 1159 1978 
L 1159 0 
L 581 0 
L 581 3500 
L 1159 3500 
L 1159 2956 
Q 1356 3278 1631 3431 
Q 1906 3584 2284 3584 
Q 2666 3584 2933 3390 
Q 3200 3197 3328 2828 
z
" transform="scale(0.015625)"/>
      <path id="DejaVuSans-2d" d="M 313 2009 
L 1997 2009 
L 1997 1497 
L 313 1497 
L 313 2009 
z
" transform="scale(0.015625)"/>
      <path id="DejaVuSans-41" d="M 2188 4044 
L 1331 1722 
L 3047 1722 
L 2188 4044 
z
M 1831 4666 
L 2547 4666 
L 4325 0 
L 3669 0 
L 3244 1197 
L 1141 1197 
L 716 0 
L 50 0 
L 1831 4666 
z
" transform="scale(0.015625)"/>
      <path id="DejaVuSans-56" d="M 1831 0 
L 50 4666 
L 709 4666 
L 2188 738 
L 3669 4666 
L 4325 4666 
L 2547 0 
L 1831 0 
z
" transform="scale(0.015625)"/>
      <path id="DejaVuSans-48" d="M 628 4666 
L 1259 4666 
L 1259 2753 
L 3553 2753 
L 3553 4666 
L 4184 4666 
L 4184 0 
L 3553 0 
L 3553 2222 
L 1259 2222 
L 1259 0 
L 628 0 
L 628 4666 
z
" transform="scale(0.015625)"/>
      <path id="DejaVuSans-46" d="M 628 4666 
L 3309 4666 
L 3309 4134 
L 1259 4134 
L 1259 2759 
L 3109 2759 
L 3109 2228 
L 1259 2228 
L 1259 0 
L 628 0 
L 628 4666 
z
" transform="scale(0.015625)"/>
     </defs>
     <use xlink:href="#DejaVuSans-52"/>
     <use xlink:href="#DejaVuSans-61" x="67.232422"/>
     <use xlink:href="#DejaVuSans-64" x="128.511719"/>
     <use xlink:href="#DejaVuSans-69" x="191.988281"/>
     <use xlink:href="#DejaVuSans-61" x="219.771484"/>
     <use xlink:href="#DejaVuSans-74" x="281.050781"/>
     <use xlink:href="#DejaVuSans-69" x="320.259766"/>
     <use xlink:href="#DejaVuSans-6f" x="348.042969"/>
     <use xlink:href="#DejaVuSans-6e" x="409.224609"/>
     <use xlink:href="#DejaVuSans-20" x="472.603516"/>
     <use xlink:href="#DejaVuSans-44" x="504.390625"/>
     <use xlink:href="#DejaVuSans-69" x="581.392578"/>
     <use xlink:href="#DejaVuSans-61" x="609.175781"/>
     <use xlink:href="#DejaVuSans-67" x="670.455078"/>
     <use xlink:href="#DejaVuSans-72" x="733.931641"/>
     <use xlink:href="#DejaVuSans-61" x="775.044922"/>
     <use xlink:href="#DejaVuSans-6d" x="836.324219"/>
     <use xlink:href="#DejaVuSans-20" x="933.736328"/>
     <use xlink:href="#DejaVuSans-2d" x="965.523438"/>
     <use xlink:href="#DejaVuSans-20" x="1001.607422"/>
     <use xlink:href="#DejaVuSans-33" x="1033.394531"/>
     <use xlink:href="#DejaVuSans-41" x="1097.017578"/>
     <use xlink:href="#DejaVuSans-56" x="1159.050781"/>
     <use xlink:href="#DejaVuSans-48" x="1227.458984"/>
     <use xlink:href="#DejaVuSans-46" x="1302.654297"/>
     <use xlink:href="#DejaVuSans-30" x="1360.173828"/>
     <use xlink:href="#DejaVuSans-36" x="1423.796875"/>
    </g>
   </g>
   <g id="legend_1">
    <g id="patch_4">
     <path d="M 304.104062 78.513437 
L 358.88375 78.513437 
Q 360.88375 78.513437 360.88375 76.513437 
L 360.88375 48.157187 
Q 360.88375 46.157187 358.88375 46.157187 
L 304.104062 46.157187 
Q 302.104062 46.157187 302.104062 48.157187 
L 302.104062 76.513437 
Q 302.104062 78.513437 304.104062 78.513437 
z
" style="fill: #ffffff; opacity: 0.8; stroke: #cccccc; stroke-linejoin: miter"/>
    </g>
    <g id="line2d_21">
     <path d="M 306.104062 54.255625 
L 316.104062 54.255625 
L 326.104062 54.255625 
" style="fill: none; stroke: #ff0000; stroke-width: 1.5; stroke-linecap: square"/>
    </g>
    <g id="text_20">
     <!-- INPE -->
     <g transform="translate(334.104062 57.755625)scale(0.1 -0.1)">
      <defs>
       <path id="DejaVuSans-49" d="M 628 4666 
L 1259 4666 
L 1259 0 
L 628 0 
L 628 4666 
z
" transform="scale(0.015625)"/>
       <path id="DejaVuSans-4e" d="M 628 4666 
L 1478 4666 
L 3547 763 
L 3547 4666 
L 4159 4666 
L 4159 0 
L 3309 0 
L 1241 3903 
L 1241 0 
L 628 0 
L 628 4666 
z
" transform="scale(0.015625)"/>
       <path id="DejaVuSans-50" d="M 1259 4147 
L 1259 2394 
L 2053 2394 
Q 2494 2394 2734 2622 
Q 2975 2850 2975 3272 
Q 2975 3691 2734 3919 
Q 2494 4147 2053 4147 
L 1259 4147 
z
M 628 4666 
L 2053 4666 
Q 2838 4666 3239 4311 
Q 3641 3956 3641 3272 
Q 3641 2581 3239 2228 
Q 2838 1875 2053 1875 
L 1259 1875 
L 1259 0 
L 628 0 
L 628 4666 
z
" transform="scale(0.015625)"/>
       <path id="DejaVuSans-45" d="M 628 4666 
L 3578 4666 
L 3578 4134 
L 1259 4134 
L 1259 2753 
L 3481 2753 
L 3481 2222 
L 1259 2222 
L 1259 531 
L 3634 531 
L 3634 0 
L 628 0 
L 628 4666 
z
" transform="scale(0.015625)"/>
      </defs>
      <use xlink:href="#DejaVuSans-49"/>
      <use xlink:href="#DejaVuSans-4e" x="29.492188"/>
      <use xlink:href="#DejaVuSans-50" x="104.296875"/>
      <use xlink:href="#DejaVuSans-45" x="164.599609"/>
     </g>
    </g>
    <g id="line2d_22">
     <path d="M 306.104062 68.93375 
L 316.104062 68.93375 
L 326.104062 68.93375 
" style="fill: none; stroke-dasharray: 5.55,2.4; stroke-dashoffset: 0; stroke: #0000ff; stroke-width: 1.5"/>
    </g>
    <g id="text_21">
     <!-- CST -->
     <g transform="translate(334.104062 72.43375)scale(0.1 -0.1)">
      <defs>
       <path id="DejaVuSans-43" d="M 4122 4306 
L 4122 3641 
Q 3803 3938 3442 4084 
Q 3081 4231 2675 4231 
Q 1875 4231 1450 3742 
Q 1025 3253 1025 2328 
Q 1025 1406 1450 917 
Q 1875 428 2675 428 
Q 3081 428 3442 575 
Q 3803 722 4122 1019 
L 4122 359 
Q 3791 134 3420 21 
Q 3050 -91 2638 -91 
Q 1578 -91 968 557 
Q 359 1206 359 2328 
Q 359 3453 968 4101 
Q 1578 4750 2638 4750 
Q 3056 4750 3426 4639 
Q 3797 4528 4122 4306 
z
" transform="scale(0.015625)"/>
       <path id="DejaVuSans-53" d="M 3425 4513 
L 3425 3897 
Q 3066 4069 2747 4153 
Q 2428 4238 2131 4238 
Q 1616 4238 1336 4038 
Q 1056 3838 1056 3469 
Q 1056 3159 1242 3001 
Q 1428 2844 1947 2747 
L 2328 2669 
Q 3034 2534 3370 2195 
Q 3706 1856 3706 1288 
Q 3706 609 3251 259 
Q 2797 -91 1919 -91 
Q 1588 -91 1214 -16 
Q 841 59 441 206 
L 441 856 
Q 825 641 1194 531 
Q 1563 422 1919 422 
Q 2459 422 2753 634 
Q 3047 847 3047 1241 
Q 3047 1584 2836 1778 
Q 2625 1972 2144 2069 
L 1759 2144 
Q 1053 2284 737 2584 
Q 422 2884 422 3419 
Q 422 4038 858 4394 
Q 1294 4750 2059 4750 
Q 2388 4750 2728 4690 
Q 3069 4631 3425 4513 
z
" transform="scale(0.015625)"/>
       <path id="DejaVuSans-54" d="M -19 4666 
L 3928 4666 
L 3928 4134 
L 2272 4134 
L 2272 0 
L 1638 0 
L 1638 4134 
L -19 4134 
L -19 4666 
z
" transform="scale(0.015625)"/>
      </defs>
      <use xlink:href="#DejaVuSans-43"/>
      <use xlink:href="#DejaVuSans-53" x="69.824219"/>
      <use xlink:href="#DejaVuSans-54" x="133.300781"/>
     </g>
    </g>
   </g>
  </g>
 </g>
 <defs>
  <clipPath id="p4f6e162584">
   <path d="M 365.88375 207.477187 
C 365.88375 185.636245 361.581561 164.007679 353.223394 143.829279 
C 344.865227 123.650879 332.613628 105.315066 317.16975 89.871188 
C 301.725871 74.427309 283.390058 62.17571 263.211658 53.817544 
C 243.033259 45.459377 221.404692 41.157187 199.56375 41.157187 
C 177.722808 41.157187 156.094241 45.459377 135.915842 53.817544 
C 115.737442 62.17571 97.401629 74.427309 81.95775 89.871188 
C 66.513872 105.315066 54.262273 123.650879 45.904106 143.829279 
C 37.545939 164.007679 33.24375 185.636245 33.24375 207.477187 
C 33.24375 229.31813 37.545939 250.946696 45.904106 271.125096 
C 54.262273 291.303496 66.513872 309.639309 81.95775 325.083187 
C 97.401629 340.527066 115.737442 352.778665 135.915842 361.136831 
C 156.094241 369.494998 177.722808 373.797188 199.56375 373.797188 
C 221.404692 373.797188 243.033259 369.494998 263.211658 361.136831 
C 283.390058 352.778665 301.725871 340.527066 317.16975 325.083187 
C 332.613628 309.639309 344.865227 291.303496 353.223394 271.125096 
C 361.581561 250.946696 365.88375 229.31813 365.88375 207.477188 
M 199.56375 207.477187 
C 199.56375 207.477187 199.56375 207.477187 199.56375 207.477187 
C 199.56375 207.477187 199.56375 207.477187 199.56375 207.477187 
C 199.56375 207.477187 199.56375 207.477187 199.56375 207.477187 
C 199.56375 207.477187 199.56375 207.477187 199.56375 207.477187 
C 199.56375 207.477187 199.56375 207.477187 199.56375 207.477187 
C 199.56375 207.477187 199.56375 207.477187 199.56375 207.477187 
C 199.56375 207.477187 199.56375 207.477187 199.56375 207.477187 
C 199.56375 207.477187 199.56375 207.477187 199.56375 207.477187 
C 199.56375 207.477187 199.56375 207.477187 199.56375 207.477187 
C 199.56375 207.477187 199.56375 207.477187 199.56375 207.477187 
C 199.56375 207.477187 199.56375 207.477187 199.56375 207.477187 
C 199.56375 207.477187 199.56375 207.477187 199.56375 207.477187 
C 199.56375 207.477187 199.56375 207.477187 199.56375 207.477187 
C 199.56375 207.477187 199.56375 207.477187 199.56375 207.477187 
C 199.56375 207.477187 199.56375 207.477187 199.56375 207.477187 
C 199.56375 207.477187 199.56375 207.477187 199.56375 207.477187 
M 365.88375 207.477187 
z
"/>
  </clipPath>
 </defs>
</svg>
