<?xml version="1.0" encoding="utf-8" standalone="no"?>
<!DOCTYPE svg PUBLIC "-//W3C//DTD SVG 1.1//EN"
  "http://www.w3.org/Graphics/SVG/1.1/DTD/svg11.dtd">
<svg xmlns:xlink="http://www.w3.org/1999/xlink" width="392.765pt" height="399.83625pt" viewBox="0 0 392.765 399.83625" xmlns="http://www.w3.org/2000/svg" version="1.1">
 <metadata>
  <rdf:RDF xmlns:dc="http://purl.org/dc/elements/1.1/" xmlns:cc="http://creativecommons.org/ns#" xmlns:rdf="http://www.w3.org/1999/02/22-rdf-syntax-ns#">
   <cc:Work>
    <dc:type rdf:resource="http://purl.org/dc/dcmitype/StillImage"/>
    <dc:date>2023-11-03T15:35:40.143428</dc:date>
    <dc:format>image/svg+xml</dc:format>
    <dc:creator>
     <cc:Agent>
      <dc:title>Matplotlib v3.5.1, https://matplotlib.org/</dc:title>
     </cc:Agent>
    </dc:creator>
   </cc:Work>
  </rdf:RDF>
 </metadata>
 <defs>
  <style type="text/css">*{stroke-linejoin: round; stroke-linecap: butt}</style>
 </defs>
 <g id="figure_1">
  <g id="patch_1">
   <path d="M 0 399.83625 
L 392.765 399.83625 
L 392.765 0 
L 0 0 
z
" style="fill: #ffffff"/>
  </g>
  <g id="axes_1">
   <g id="patch_2">
    <path d="M 365.88375 207.477187 
C 365.88375 185.636245 361.581561 164.007679 353.223394 143.829279 
C 344.865227 123.650879 332.613628 105.315066 317.16975 89.871188 
C 301.725871 74.427309 283.390058 62.17571 263.211658 53.817544 
C 243.033259 45.459377 221.404692 41.157187 199.56375 41.157187 
C 177.722808 41.157187 156.094241 45.459377 135.915842 53.817544 
C 115.737442 62.17571 97.401629 74.427309 81.95775 89.871188 
C 66.513872 105.315066 54.262273 123.650879 45.904106 143.829279 
C 37.545939 164.007679 33.24375 185.636245 33.24375 207.477187 
C 33.24375 229.31813 37.545939 250.946696 45.904106 271.125096 
C 54.262273 291.303496 66.513872 309.639309 81.95775 325.083187 
C 97.401629 340.527066 115.737442 352.778665 135.915842 361.136831 
C 156.094241 369.494998 177.722808 373.797188 199.56375 373.797188 
C 221.404692 373.797188 243.033259 369.494998 263.211658 361.136831 
C 283.390058 352.778665 301.725871 340.527066 317.16975 325.083187 
C 332.613628 309.639309 344.865227 291.303496 353.223394 271.125096 
C 361.581561 250.946696 365.88375 229.31813 365.88375 207.477188 
M 199.56375 207.477187 
C 199.56375 207.477187 199.56375 207.477187 199.56375 207.477187 
C 199.56375 207.477187 199.56375 207.477187 199.56375 207.477187 
C 199.56375 207.477187 199.56375 207.477187 199.56375 207.477187 
C 199.56375 207.477187 199.56375 207.477187 199.56375 207.477187 
C 199.56375 207.477187 199.56375 207.477187 199.56375 207.477187 
C 199.56375 207.477187 199.56375 207.477187 199.56375 207.477187 
C 199.56375 207.477187 199.56375 207.477187 199.56375 207.477187 
C 199.56375 207.477187 199.56375 207.477187 199.56375 207.477187 
C 199.56375 207.477187 199.56375 207.477187 199.56375 207.477187 
C 199.56375 207.477187 199.56375 207.477187 199.56375 207.477187 
C 199.56375 207.477187 199.56375 207.477187 199.56375 207.477187 
C 199.56375 207.477187 199.56375 207.477187 199.56375 207.477187 
C 199.56375 207.477187 199.56375 207.477187 199.56375 207.477187 
C 199.56375 207.477187 199.56375 207.477187 199.56375 207.477187 
C 199.56375 207.477187 199.56375 207.477187 199.56375 207.477187 
C 199.56375 207.477187 199.56375 207.477187 199.56375 207.477187 
M 365.88375 207.477187 
z
" style="fill: #ffffff"/>
   </g>
   <g id="matplotlib.axis_1">
    <g id="xtick_1">
     <g id="line2d_1">
      <path d="M 199.56375 207.477187 
L 365.88375 207.477187 
" clip-path="url(#p615ba4a58f)" style="fill: none; stroke: #b0b0b0; stroke-width: 0.8; stroke-linecap: square"/>
     </g>
     <g id="text_1">
      <!-- 0° -->
      <g transform="translate(374.2025 210.236562)scale(0.1 -0.1)">
       <defs>
        <path id="DejaVuSans-30" d="M 2034 4250 
Q 1547 4250 1301 3770 
Q 1056 3291 1056 2328 
Q 1056 1369 1301 889 
Q 1547 409 2034 409 
Q 2525 409 2770 889 
Q 3016 1369 3016 2328 
Q 3016 3291 2770 3770 
Q 2525 4250 2034 4250 
z
M 2034 4750 
Q 2819 4750 3233 4129 
Q 3647 3509 3647 2328 
Q 3647 1150 3233 529 
Q 2819 -91 2034 -91 
Q 1250 -91 836 529 
Q 422 1150 422 2328 
Q 422 3509 836 4129 
Q 1250 4750 2034 4750 
z
" transform="scale(0.015625)"/>
        <path id="DejaVuSans-b0" d="M 1600 4347 
Q 1350 4347 1178 4173 
Q 1006 4000 1006 3750 
Q 1006 3503 1178 3333 
Q 1350 3163 1600 3163 
Q 1850 3163 2022 3333 
Q 2194 3503 2194 3750 
Q 2194 3997 2020 4172 
Q 1847 4347 1600 4347 
z
M 1600 4750 
Q 1800 4750 1984 4673 
Q 2169 4597 2303 4453 
Q 2447 4313 2519 4134 
Q 2591 3956 2591 3750 
Q 2591 3338 2302 3052 
Q 2013 2766 1594 2766 
Q 1172 2766 890 3047 
Q 609 3328 609 3750 
Q 609 4169 896 4459 
Q 1184 4750 1600 4750 
z
" transform="scale(0.015625)"/>
       </defs>
       <use xlink:href="#DejaVuSans-30"/>
       <use xlink:href="#DejaVuSans-b0" x="63.623047"/>
      </g>
     </g>
    </g>
    <g id="xtick_2">
     <g id="line2d_2">
      <path d="M 199.56375 207.477187 
L 317.16975 89.871188 
" clip-path="url(#p615ba4a58f)" style="fill: none; stroke: #b0b0b0; stroke-width: 0.8; stroke-linecap: square"/>
     </g>
     <g id="text_2">
      <!-- 45° -->
      <g transform="translate(318.206745 82.731068)scale(0.1 -0.1)">
       <defs>
        <path id="DejaVuSans-34" d="M 2419 4116 
L 825 1625 
L 2419 1625 
L 2419 4116 
z
M 2253 4666 
L 3047 4666 
L 3047 1625 
L 3713 1625 
L 3713 1100 
L 3047 1100 
L 3047 0 
L 2419 0 
L 2419 1100 
L 313 1100 
L 313 1709 
L 2253 4666 
z
" transform="scale(0.015625)"/>
        <path id="DejaVuSans-35" d="M 691 4666 
L 3169 4666 
L 3169 4134 
L 1269 4134 
L 1269 2991 
Q 1406 3038 1543 3061 
Q 1681 3084 1819 3084 
Q 2600 3084 3056 2656 
Q 3513 2228 3513 1497 
Q 3513 744 3044 326 
Q 2575 -91 1722 -91 
Q 1428 -91 1123 -41 
Q 819 9 494 109 
L 494 744 
Q 775 591 1075 516 
Q 1375 441 1709 441 
Q 2250 441 2565 725 
Q 2881 1009 2881 1497 
Q 2881 1984 2565 2268 
Q 2250 2553 1709 2553 
Q 1456 2553 1204 2497 
Q 953 2441 691 2322 
L 691 4666 
z
" transform="scale(0.015625)"/>
       </defs>
       <use xlink:href="#DejaVuSans-34"/>
       <use xlink:href="#DejaVuSans-35" x="63.623047"/>
       <use xlink:href="#DejaVuSans-b0" x="127.246094"/>
      </g>
     </g>
    </g>
    <g id="xtick_3">
     <g id="line2d_3">
      <path d="M 199.56375 207.477187 
L 199.56375 41.157187 
" clip-path="url(#p615ba4a58f)" style="fill: none; stroke: #b0b0b0; stroke-width: 0.8; stroke-linecap: square"/>
     </g>
     <g id="text_3">
      <!-- 90° -->
      <g transform="translate(190.70125 29.916562)scale(0.1 -0.1)">
       <defs>
        <path id="DejaVuSans-39" d="M 703 97 
L 703 672 
Q 941 559 1184 500 
Q 1428 441 1663 441 
Q 2288 441 2617 861 
Q 2947 1281 2994 2138 
Q 2813 1869 2534 1725 
Q 2256 1581 1919 1581 
Q 1219 1581 811 2004 
Q 403 2428 403 3163 
Q 403 3881 828 4315 
Q 1253 4750 1959 4750 
Q 2769 4750 3195 4129 
Q 3622 3509 3622 2328 
Q 3622 1225 3098 567 
Q 2575 -91 1691 -91 
Q 1453 -91 1209 -44 
Q 966 3 703 97 
z
M 1959 2075 
Q 2384 2075 2632 2365 
Q 2881 2656 2881 3163 
Q 2881 3666 2632 3958 
Q 2384 4250 1959 4250 
Q 1534 4250 1286 3958 
Q 1038 3666 1038 3163 
Q 1038 2656 1286 2365 
Q 1534 2075 1959 2075 
z
" transform="scale(0.015625)"/>
       </defs>
       <use xlink:href="#DejaVuSans-39"/>
       <use xlink:href="#DejaVuSans-30" x="63.623047"/>
       <use xlink:href="#DejaVuSans-b0" x="127.246094"/>
      </g>
     </g>
    </g>
    <g id="xtick_4">
     <g id="line2d_4">
      <path d="M 199.56375 207.477187 
L 81.95775 89.871188 
" clip-path="url(#p615ba4a58f)" style="fill: none; stroke: #b0b0b0; stroke-width: 0.8; stroke-linecap: square"/>
     </g>
     <g id="text_4">
      <!-- 135° -->
      <g transform="translate(60.014505 82.731068)scale(0.1 -0.1)">
       <defs>
        <path id="DejaVuSans-31" d="M 794 531 
L 1825 531 
L 1825 4091 
L 703 3866 
L 703 4441 
L 1819 4666 
L 2450 4666 
L 2450 531 
L 3481 531 
L 3481 0 
L 794 0 
L 794 531 
z
" transform="scale(0.015625)"/>
        <path id="DejaVuSans-33" d="M 2597 2516 
Q 3050 2419 3304 2112 
Q 3559 1806 3559 1356 
Q 3559 666 3084 287 
Q 2609 -91 1734 -91 
Q 1441 -91 1130 -33 
Q 819 25 488 141 
L 488 750 
Q 750 597 1062 519 
Q 1375 441 1716 441 
Q 2309 441 2620 675 
Q 2931 909 2931 1356 
Q 2931 1769 2642 2001 
Q 2353 2234 1838 2234 
L 1294 2234 
L 1294 2753 
L 1863 2753 
Q 2328 2753 2575 2939 
Q 2822 3125 2822 3475 
Q 2822 3834 2567 4026 
Q 2313 4219 1838 4219 
Q 1578 4219 1281 4162 
Q 984 4106 628 3988 
L 628 4550 
Q 988 4650 1302 4700 
Q 1616 4750 1894 4750 
Q 2613 4750 3031 4423 
Q 3450 4097 3450 3541 
Q 3450 3153 3228 2886 
Q 3006 2619 2597 2516 
z
" transform="scale(0.015625)"/>
       </defs>
       <use xlink:href="#DejaVuSans-31"/>
       <use xlink:href="#DejaVuSans-33" x="63.623047"/>
       <use xlink:href="#DejaVuSans-35" x="127.246094"/>
       <use xlink:href="#DejaVuSans-b0" x="190.869141"/>
      </g>
     </g>
    </g>
    <g id="xtick_5">
     <g id="line2d_5">
      <path d="M 199.56375 207.477187 
L 33.24375 207.477187 
" clip-path="url(#p615ba4a58f)" style="fill: none; stroke: #b0b0b0; stroke-width: 0.8; stroke-linecap: square"/>
     </g>
     <g id="text_5">
      <!-- 180° -->
      <g transform="translate(7.2 210.236562)scale(0.1 -0.1)">
       <defs>
        <path id="DejaVuSans-38" d="M 2034 2216 
Q 1584 2216 1326 1975 
Q 1069 1734 1069 1313 
Q 1069 891 1326 650 
Q 1584 409 2034 409 
Q 2484 409 2743 651 
Q 3003 894 3003 1313 
Q 3003 1734 2745 1975 
Q 2488 2216 2034 2216 
z
M 1403 2484 
Q 997 2584 770 2862 
Q 544 3141 544 3541 
Q 544 4100 942 4425 
Q 1341 4750 2034 4750 
Q 2731 4750 3128 4425 
Q 3525 4100 3525 3541 
Q 3525 3141 3298 2862 
Q 3072 2584 2669 2484 
Q 3125 2378 3379 2068 
Q 3634 1759 3634 1313 
Q 3634 634 3220 271 
Q 2806 -91 2034 -91 
Q 1263 -91 848 271 
Q 434 634 434 1313 
Q 434 1759 690 2068 
Q 947 2378 1403 2484 
z
M 1172 3481 
Q 1172 3119 1398 2916 
Q 1625 2713 2034 2713 
Q 2441 2713 2670 2916 
Q 2900 3119 2900 3481 
Q 2900 3844 2670 4047 
Q 2441 4250 2034 4250 
Q 1625 4250 1398 4047 
Q 1172 3844 1172 3481 
z
" transform="scale(0.015625)"/>
       </defs>
       <use xlink:href="#DejaVuSans-31"/>
       <use xlink:href="#DejaVuSans-38" x="63.623047"/>
       <use xlink:href="#DejaVuSans-30" x="127.246094"/>
       <use xlink:href="#DejaVuSans-b0" x="190.869141"/>
      </g>
     </g>
    </g>
    <g id="xtick_6">
     <g id="line2d_6">
      <path d="M 199.56375 207.477187 
L 81.95775 325.083187 
" clip-path="url(#p615ba4a58f)" style="fill: none; stroke: #b0b0b0; stroke-width: 0.8; stroke-linecap: square"/>
     </g>
     <g id="text_6">
      <!-- 225° -->
      <g transform="translate(60.014505 337.742057)scale(0.1 -0.1)">
       <defs>
        <path id="DejaVuSans-32" d="M 1228 531 
L 3431 531 
L 3431 0 
L 469 0 
L 469 531 
Q 828 903 1448 1529 
Q 2069 2156 2228 2338 
Q 2531 2678 2651 2914 
Q 2772 3150 2772 3378 
Q 2772 3750 2511 3984 
Q 2250 4219 1831 4219 
Q 1534 4219 1204 4116 
Q 875 4013 500 3803 
L 500 4441 
Q 881 4594 1212 4672 
Q 1544 4750 1819 4750 
Q 2544 4750 2975 4387 
Q 3406 4025 3406 3419 
Q 3406 3131 3298 2873 
Q 3191 2616 2906 2266 
Q 2828 2175 2409 1742 
Q 1991 1309 1228 531 
z
" transform="scale(0.015625)"/>
       </defs>
       <use xlink:href="#DejaVuSans-32"/>
       <use xlink:href="#DejaVuSans-32" x="63.623047"/>
       <use xlink:href="#DejaVuSans-35" x="127.246094"/>
       <use xlink:href="#DejaVuSans-b0" x="190.869141"/>
      </g>
     </g>
    </g>
    <g id="xtick_7">
     <g id="line2d_7">
      <path d="M 199.56375 207.477187 
L 199.56375 373.797188 
" clip-path="url(#p615ba4a58f)" style="fill: none; stroke: #b0b0b0; stroke-width: 0.8; stroke-linecap: square"/>
     </g>
     <g id="text_7">
      <!-- 270° -->
      <g transform="translate(187.52 390.556562)scale(0.1 -0.1)">
       <defs>
        <path id="DejaVuSans-37" d="M 525 4666 
L 3525 4666 
L 3525 4397 
L 1831 0 
L 1172 0 
L 2766 4134 
L 525 4134 
L 525 4666 
z
" transform="scale(0.015625)"/>
       </defs>
       <use xlink:href="#DejaVuSans-32"/>
       <use xlink:href="#DejaVuSans-37" x="63.623047"/>
       <use xlink:href="#DejaVuSans-30" x="127.246094"/>
       <use xlink:href="#DejaVuSans-b0" x="190.869141"/>
      </g>
     </g>
    </g>
    <g id="xtick_8">
     <g id="line2d_8">
      <path d="M 199.56375 207.477187 
L 317.16975 325.083187 
" clip-path="url(#p615ba4a58f)" style="fill: none; stroke: #b0b0b0; stroke-width: 0.8; stroke-linecap: square"/>
     </g>
     <g id="text_8">
      <!-- 315° -->
      <g transform="translate(315.025495 337.742057)scale(0.1 -0.1)">
       <use xlink:href="#DejaVuSans-33"/>
       <use xlink:href="#DejaVuSans-31" x="63.623047"/>
       <use xlink:href="#DejaVuSans-35" x="127.246094"/>
       <use xlink:href="#DejaVuSans-b0" x="190.869141"/>
      </g>
     </g>
    </g>
   </g>
   <g id="matplotlib.axis_2">
    <g id="ytick_1">
     <g id="line2d_9">
      <path d="M 264.760585 207.477187 
C 264.760585 198.915618 263.074142 190.437298 259.797771 182.527439 
C 256.5214 174.61758 251.718818 167.430008 245.664874 161.376063 
C 239.61093 155.322119 232.423358 150.519537 224.513499 147.243166 
C 216.603639 143.966795 208.12532 142.280353 199.56375 142.280353 
C 191.00218 142.280353 182.523861 143.966795 174.614001 147.243166 
C 166.704142 150.519537 159.51657 155.322119 153.462626 161.376063 
C 147.408682 167.430008 142.6061 174.61758 139.329729 182.527439 
C 136.053358 190.437298 134.366915 198.915618 134.366915 207.477187 
C 134.366915 216.038757 136.053358 224.517077 139.329729 232.426936 
C 142.6061 240.336795 147.408682 247.524367 153.462626 253.578312 
C 159.51657 259.632256 166.704142 264.434838 174.614001 267.711209 
C 182.523861 270.98758 191.00218 272.674022 199.56375 272.674022 
C 208.12532 272.674022 216.603639 270.98758 224.513499 267.711209 
C 232.423358 264.434838 239.61093 259.632256 245.664874 253.578312 
C 251.718818 247.524367 256.5214 240.336795 259.797771 232.426936 
C 263.074142 224.517077 264.760585 216.038757 264.760585 207.477188 
" clip-path="url(#p615ba4a58f)" style="fill: none; stroke: #b0b0b0; stroke-width: 0.8; stroke-linecap: square"/>
     </g>
     <g id="text_9">
      <!-- −30 -->
      <g transform="translate(259.797771 180.447751)scale(0.1 -0.1)">
       <defs>
        <path id="DejaVuSans-2212" d="M 678 2272 
L 4684 2272 
L 4684 1741 
L 678 1741 
L 678 2272 
z
" transform="scale(0.015625)"/>
       </defs>
       <use xlink:href="#DejaVuSans-2212"/>
       <use xlink:href="#DejaVuSans-33" x="83.789062"/>
       <use xlink:href="#DejaVuSans-30" x="147.412109"/>
      </g>
     </g>
    </g>
    <g id="ytick_2">
     <g id="line2d_10">
      <path d="M 274.872901 207.477187 
C 274.872901 197.58768 272.924884 187.794336 269.140334 178.657623 
C 265.355783 169.52091 259.808299 161.218513 252.815362 154.225576 
C 245.822424 147.232638 237.520028 141.685154 228.383315 137.900604 
C 219.246601 134.116053 209.453257 132.168036 199.56375 132.168036 
C 189.674243 132.168036 179.880899 134.116053 170.744185 137.900604 
C 161.607472 141.685154 153.305076 147.232638 146.312138 154.225576 
C 139.319201 161.218513 133.771717 169.52091 129.987166 178.657623 
C 126.202616 187.794336 124.254599 197.58768 124.254599 207.477187 
C 124.254599 217.366695 126.202616 227.160039 129.987166 236.296752 
C 133.771717 245.433465 139.319201 253.735862 146.312138 260.728799 
C 153.305076 267.721737 161.607472 273.269221 170.744185 277.053771 
C 179.880899 280.838322 189.674243 282.786339 199.56375 282.786339 
C 209.453257 282.786339 219.246601 280.838322 228.383315 277.053771 
C 237.520028 273.269221 245.822424 267.721737 252.815362 260.728799 
C 259.808299 253.735862 265.355783 245.433465 269.140334 236.296752 
C 272.924884 227.160039 274.872901 217.366695 274.872901 207.477188 
" clip-path="url(#p615ba4a58f)" style="fill: none; stroke: #b0b0b0; stroke-width: 0.8; stroke-linecap: square"/>
     </g>
     <g id="text_10">
      <!-- −27 -->
      <g transform="translate(269.140334 176.577935)scale(0.1 -0.1)">
       <use xlink:href="#DejaVuSans-2212"/>
       <use xlink:href="#DejaVuSans-32" x="83.789062"/>
       <use xlink:href="#DejaVuSans-37" x="147.412109"/>
      </g>
     </g>
    </g>
    <g id="ytick_3">
     <g id="line2d_11">
      <path d="M 284.985218 207.477187 
C 284.985218 196.259743 282.775626 185.151374 278.482896 174.787807 
C 274.190166 164.42424 267.89778 155.007019 259.965849 147.075088 
C 252.033918 139.143157 242.616698 132.850772 232.253131 128.558042 
C 221.889563 124.265312 210.781194 122.05572 199.56375 122.05572 
C 188.346306 122.05572 177.237937 124.265312 166.874369 128.558042 
C 156.510802 132.850772 147.093582 139.143157 139.161651 147.075088 
C 131.22972 155.007019 124.937334 164.42424 120.644604 174.787807 
C 116.351874 185.151374 114.142282 196.259743 114.142282 207.477187 
C 114.142282 218.694632 116.351874 229.803001 120.644604 240.166568 
C 124.937334 250.530135 131.22972 259.947356 139.161651 267.879287 
C 147.093582 275.811218 156.510802 282.103603 166.874369 286.396333 
C 177.237937 290.689063 188.346306 292.898655 199.56375 292.898655 
C 210.781194 292.898655 221.889563 290.689063 232.253131 286.396333 
C 242.616698 282.103603 252.033918 275.811218 259.965849 267.879287 
C 267.89778 259.947356 274.190166 250.530135 278.482896 240.166568 
C 282.775626 229.803001 284.985218 218.694632 284.985218 207.477188 
" clip-path="url(#p615ba4a58f)" style="fill: none; stroke: #b0b0b0; stroke-width: 0.8; stroke-linecap: square"/>
     </g>
     <g id="text_11">
      <!-- −24 -->
      <g transform="translate(278.482896 172.708119)scale(0.1 -0.1)">
       <use xlink:href="#DejaVuSans-2212"/>
       <use xlink:href="#DejaVuSans-32" x="83.789062"/>
       <use xlink:href="#DejaVuSans-34" x="147.412109"/>
      </g>
     </g>
    </g>
    <g id="ytick_4">
     <g id="line2d_12">
      <path d="M 295.097534 207.477187 
C 295.097534 194.931806 292.626368 182.508412 287.825458 170.917991 
C 283.024548 159.32757 275.987261 148.795525 267.116337 139.924601 
C 258.245412 131.053676 247.713368 124.016389 236.122947 119.215479 
C 224.532525 114.41457 212.109132 111.943403 199.56375 111.943403 
C 187.018368 111.943403 174.594975 114.41457 163.004553 119.215479 
C 151.414132 124.016389 140.882088 131.053676 132.011163 139.924601 
C 123.140239 148.795525 116.102952 159.32757 111.302042 170.917991 
C 106.501132 182.508412 104.029966 194.931806 104.029966 207.477187 
C 104.029966 220.022569 106.501132 232.445963 111.302042 244.036384 
C 116.102952 255.626805 123.140239 266.15885 132.011163 275.029774 
C 140.882088 283.900699 151.414132 290.937986 163.004553 295.738896 
C 174.594975 300.539805 187.018368 303.010972 199.56375 303.010972 
C 212.109132 303.010972 224.532525 300.539805 236.122947 295.738896 
C 247.713368 290.937986 258.245412 283.900699 267.116337 275.029774 
C 275.987261 266.15885 283.024548 255.626805 287.825458 244.036384 
C 292.626368 232.445963 295.097534 220.022569 295.097534 207.477188 
" clip-path="url(#p615ba4a58f)" style="fill: none; stroke: #b0b0b0; stroke-width: 0.8; stroke-linecap: square"/>
     </g>
     <g id="text_12">
      <!-- −21 -->
      <g transform="translate(287.825458 168.838303)scale(0.1 -0.1)">
       <use xlink:href="#DejaVuSans-2212"/>
       <use xlink:href="#DejaVuSans-32" x="83.789062"/>
       <use xlink:href="#DejaVuSans-31" x="147.412109"/>
      </g>
     </g>
    </g>
    <g id="ytick_5">
     <g id="line2d_13">
      <path d="M 305.209851 207.477187 
C 305.209851 193.603869 302.47711 179.86545 297.16802 167.048175 
C 291.858931 154.2309 284.076742 142.584031 274.266824 132.774113 
C 264.456907 122.964195 252.810038 115.182006 239.992763 109.872917 
C 227.175487 104.563828 213.437069 101.831087 199.56375 101.831087 
C 185.690431 101.831087 171.952013 104.563828 159.134737 109.872917 
C 146.317462 115.182006 134.670593 122.964195 124.860676 132.774113 
C 115.050758 142.584031 107.268569 154.2309 101.95948 167.048175 
C 96.65039 179.86545 93.917649 193.603869 93.917649 207.477187 
C 93.917649 221.350506 96.65039 235.088925 101.95948 247.9062 
C 107.268569 260.723475 115.050758 272.370344 124.860676 282.180262 
C 134.670593 291.99018 146.317462 299.772369 159.134737 305.081458 
C 171.952013 310.390547 185.690431 313.123288 199.56375 313.123288 
C 213.437069 313.123288 227.175487 310.390547 239.992763 305.081458 
C 252.810038 299.772369 264.456907 291.99018 274.266824 282.180262 
C 284.076742 272.370344 291.858931 260.723475 297.16802 247.9062 
C 302.47711 235.088925 305.209851 221.350506 305.209851 207.477188 
" clip-path="url(#p615ba4a58f)" style="fill: none; stroke: #b0b0b0; stroke-width: 0.8; stroke-linecap: square"/>
     </g>
     <g id="text_13">
      <!-- −18 -->
      <g transform="translate(297.16802 164.968487)scale(0.1 -0.1)">
       <use xlink:href="#DejaVuSans-2212"/>
       <use xlink:href="#DejaVuSans-31" x="83.789062"/>
       <use xlink:href="#DejaVuSans-38" x="147.412109"/>
      </g>
     </g>
    </g>
    <g id="ytick_6">
     <g id="line2d_14">
      <path d="M 315.322167 207.477187 
C 315.322167 192.275931 312.327851 177.222488 306.510583 163.178359 
C 300.693314 149.13423 292.166223 136.372537 281.417312 125.623626 
C 270.668401 114.874714 257.906708 106.347624 243.862579 100.530355 
C 229.818449 94.713086 214.765006 91.71877 199.56375 91.71877 
C 184.362494 91.71877 169.309051 94.713086 155.264921 100.530355 
C 141.220792 106.347624 128.459099 114.874714 117.710188 125.623626 
C 106.961277 136.372537 98.434186 149.13423 92.616917 163.178359 
C 86.799649 177.222488 83.805333 192.275931 83.805333 207.477187 
C 83.805333 222.678444 86.799649 237.731887 92.616917 251.776016 
C 98.434186 265.820145 106.961277 278.581838 117.710188 289.330749 
C 128.459099 300.079661 141.220792 308.606751 155.264921 314.42402 
C 169.309051 320.241289 184.362494 323.235605 199.56375 323.235605 
C 214.765006 323.235605 229.818449 320.241289 243.862579 314.42402 
C 257.906708 308.606751 270.668401 300.079661 281.417312 289.330749 
C 292.166223 278.581838 300.693314 265.820145 306.510583 251.776016 
C 312.327851 237.731887 315.322167 222.678444 315.322167 207.477188 
" clip-path="url(#p615ba4a58f)" style="fill: none; stroke: #b0b0b0; stroke-width: 0.8; stroke-linecap: square"/>
     </g>
     <g id="text_14">
      <!-- −15 -->
      <g transform="translate(306.510583 161.098671)scale(0.1 -0.1)">
       <use xlink:href="#DejaVuSans-2212"/>
       <use xlink:href="#DejaVuSans-31" x="83.789062"/>
       <use xlink:href="#DejaVuSans-35" x="147.412109"/>
      </g>
     </g>
    </g>
    <g id="ytick_7">
     <g id="line2d_15">
      <path d="M 325.434484 207.477187 
C 325.434484 190.947994 322.178593 174.579526 315.853145 159.308543 
C 309.527696 144.03756 300.255704 130.161043 288.5678 118.473138 
C 276.879895 106.785233 263.003378 97.513241 247.732395 91.187793 
C 232.461411 84.862344 216.092943 81.606454 199.56375 81.606454 
C 183.034557 81.606454 166.666089 84.862344 151.395105 91.187793 
C 136.124122 97.513241 122.247605 106.785233 110.5597 118.473138 
C 98.871796 130.161043 89.599804 144.03756 83.274355 159.308543 
C 76.948907 174.579526 73.693016 190.947994 73.693016 207.477187 
C 73.693016 224.006381 76.948907 240.374849 83.274355 255.645832 
C 89.599804 270.916815 98.871796 284.793332 110.5597 296.481237 
C 122.247605 308.169142 136.124122 317.441134 151.395105 323.766582 
C 166.666089 330.092031 183.034557 333.347921 199.56375 333.347921 
C 216.092943 333.347921 232.461411 330.092031 247.732395 323.766582 
C 263.003378 317.441134 276.879895 308.169142 288.5678 296.481237 
C 300.255704 284.793332 309.527696 270.916815 315.853145 255.645832 
C 322.178593 240.374849 325.434484 224.006381 325.434484 207.477188 
" clip-path="url(#p615ba4a58f)" style="fill: none; stroke: #b0b0b0; stroke-width: 0.8; stroke-linecap: square"/>
     </g>
     <g id="text_15">
      <!-- −12 -->
      <g transform="translate(315.853145 157.228855)scale(0.1 -0.1)">
       <use xlink:href="#DejaVuSans-2212"/>
       <use xlink:href="#DejaVuSans-31" x="83.789062"/>
       <use xlink:href="#DejaVuSans-32" x="147.412109"/>
      </g>
     </g>
    </g>
    <g id="ytick_8">
     <g id="line2d_16">
      <path d="M 335.5468 207.477187 
C 335.5468 189.620057 332.029335 171.936564 325.195707 155.438727 
C 318.362079 138.94089 308.345185 123.949549 295.718287 111.32265 
C 283.091389 98.695752 268.100048 88.678858 251.60221 81.84523 
C 235.104373 75.011602 217.420881 71.494137 199.56375 71.494137 
C 181.706619 71.494137 164.023127 75.011602 147.52529 81.84523 
C 131.027452 88.678858 116.036111 98.695752 103.409213 111.32265 
C 90.782315 123.949549 80.765421 138.94089 73.931793 155.438727 
C 67.098165 171.936564 63.5807 189.620057 63.5807 207.477187 
C 63.5807 225.334318 67.098165 243.017811 73.931793 259.515648 
C 80.765421 276.013485 90.782315 291.004826 103.409213 303.631725 
C 116.036111 316.258623 131.027452 326.275517 147.52529 333.109145 
C 164.023127 339.942773 181.706619 343.460238 199.56375 343.460238 
C 217.420881 343.460238 235.104373 339.942773 251.60221 333.109145 
C 268.100048 326.275517 283.091389 316.258623 295.718287 303.631725 
C 308.345185 291.004826 318.362079 276.013485 325.195707 259.515648 
C 332.029335 243.017811 335.5468 225.334318 335.5468 207.477188 
" clip-path="url(#p615ba4a58f)" style="fill: none; stroke: #b0b0b0; stroke-width: 0.8; stroke-linecap: square"/>
     </g>
     <g id="text_16">
      <!-- −9 -->
      <g transform="translate(325.195707 153.35904)scale(0.1 -0.1)">
       <use xlink:href="#DejaVuSans-2212"/>
       <use xlink:href="#DejaVuSans-39" x="83.789062"/>
      </g>
     </g>
    </g>
    <g id="ytick_9">
     <g id="line2d_17">
      <path d="M 345.659117 207.477187 
C 345.659117 188.29212 341.880077 169.293602 334.538269 151.568911 
C 327.196462 133.84422 316.434666 117.738054 302.868775 104.172163 
C 289.302883 90.606271 273.196718 79.844476 255.472026 72.502668 
C 237.747335 65.160861 218.748818 61.381821 199.56375 61.381821 
C 180.378682 61.381821 161.380165 65.160861 143.655474 72.502668 
C 125.930782 79.844476 109.824617 90.606271 96.258725 104.172163 
C 82.692834 117.738054 71.931038 133.84422 64.589231 151.568911 
C 57.247423 169.293602 53.468383 188.29212 53.468383 207.477187 
C 53.468383 226.662255 57.247423 245.660773 64.589231 263.385464 
C 71.931038 281.110155 82.692834 297.216321 96.258725 310.782212 
C 109.824617 324.348104 125.930782 335.109899 143.655474 342.451707 
C 161.380165 349.793514 180.378682 353.572554 199.56375 353.572554 
C 218.748818 353.572554 237.747335 349.793514 255.472026 342.451707 
C 273.196718 335.109899 289.302883 324.348104 302.868775 310.782212 
C 316.434666 297.216321 327.196462 281.110155 334.538269 263.385464 
C 341.880077 245.660773 345.659117 226.662255 345.659117 207.477188 
" clip-path="url(#p615ba4a58f)" style="fill: none; stroke: #b0b0b0; stroke-width: 0.8; stroke-linecap: square"/>
     </g>
     <g id="text_17">
      <!-- −6 -->
      <g transform="translate(334.538269 149.489224)scale(0.1 -0.1)">
       <defs>
        <path id="DejaVuSans-36" d="M 2113 2584 
Q 1688 2584 1439 2293 
Q 1191 2003 1191 1497 
Q 1191 994 1439 701 
Q 1688 409 2113 409 
Q 2538 409 2786 701 
Q 3034 994 3034 1497 
Q 3034 2003 2786 2293 
Q 2538 2584 2113 2584 
z
M 3366 4563 
L 3366 3988 
Q 3128 4100 2886 4159 
Q 2644 4219 2406 4219 
Q 1781 4219 1451 3797 
Q 1122 3375 1075 2522 
Q 1259 2794 1537 2939 
Q 1816 3084 2150 3084 
Q 2853 3084 3261 2657 
Q 3669 2231 3669 1497 
Q 3669 778 3244 343 
Q 2819 -91 2113 -91 
Q 1303 -91 875 529 
Q 447 1150 447 2328 
Q 447 3434 972 4092 
Q 1497 4750 2381 4750 
Q 2619 4750 2861 4703 
Q 3103 4656 3366 4563 
z
" transform="scale(0.015625)"/>
       </defs>
       <use xlink:href="#DejaVuSans-2212"/>
       <use xlink:href="#DejaVuSans-36" x="83.789062"/>
      </g>
     </g>
    </g>
    <g id="ytick_10">
     <g id="line2d_18">
      <path d="M 355.771433 207.477187 
C 355.771433 186.964182 351.730819 166.650641 343.880832 147.699095 
C 336.030844 128.74755 324.524147 111.52656 310.019262 97.021675 
C 295.514377 82.51679 278.293388 71.010093 259.341842 63.160106 
C 240.390297 55.310119 220.076755 51.269504 199.56375 51.269504 
C 179.050745 51.269504 158.737203 55.310119 139.785658 63.160106 
C 120.834112 71.010093 103.613123 82.51679 89.108238 97.021675 
C 74.603353 111.52656 63.096656 128.74755 55.246668 147.699095 
C 47.396681 166.650641 43.356067 186.964182 43.356067 207.477187 
C 43.356067 227.990193 47.396681 248.303734 55.246668 267.25528 
C 63.096656 286.206825 74.603353 303.427815 89.108238 317.9327 
C 103.613123 332.437585 120.834112 343.944282 139.785658 351.794269 
C 158.737203 359.644256 179.050745 363.684871 199.56375 363.684871 
C 220.076755 363.684871 240.390297 359.644256 259.341842 351.794269 
C 278.293388 343.944282 295.514377 332.437585 310.019262 317.9327 
C 324.524147 303.427815 336.030844 286.206825 343.880832 267.25528 
C 351.730819 248.303734 355.771433 227.990193 355.771433 207.477188 
" clip-path="url(#p615ba4a58f)" style="fill: none; stroke: #b0b0b0; stroke-width: 0.8; stroke-linecap: square"/>
     </g>
     <g id="text_18">
      <!-- −3 -->
      <g transform="translate(343.880832 145.619408)scale(0.1 -0.1)">
       <use xlink:href="#DejaVuSans-2212"/>
       <use xlink:href="#DejaVuSans-33" x="83.789062"/>
      </g>
     </g>
    </g>
   </g>
   <g id="line2d_19">
    <path d="M 250.953902 207.477187 
L 248.600375 206.62125 
L 256.208116 205.499123 
L 265.048244 204.045291 
L 271.609346 202.439269 
L 274.307618 200.937946 
L 276.622588 199.377977 
L 281.039578 196.026507 
L 286.969834 193.633424 
L 292.527469 191.085176 
L 296.978727 188.541634 
L 302.736375 185.547169 
L 306.029572 182.897616 
L 308.14857 180.403951 
L 309.945192 177.900569 
L 310.520344 175.660896 
L 310.863643 173.449395 
L 311.086332 171.241304 
L 310.864018 169.153432 
L 311.103132 166.880173 
L 311.995128 164.318825 
L 312.449914 161.868217 
L 315.414606 155.897063 
L 315.944814 153.207806 
L 317.255209 150.075227 
L 317.680108 147.293897 
L 317.468304 142.121626 
L 315.535673 135.009887 
L 314.538804 132.811514 
L 313.698851 130.49209 
L 311.742335 122.94456 
L 311.418682 120.086537 
L 310.670202 117.504956 
L 309.403571 111.994888 
L 308.301599 109.569188 
L 306.423591 104.283839 
L 303.904451 99.429229 
L 302.483324 97.109456 
L 297.315751 90.980889 
L 295.496822 89.00971 
L 291.953073 84.872415 
L 290.136072 82.81508 
L 288.373904 80.643142 
L 282.450171 74.831186 
L 280.245817 73.199679 
L 277.933883 71.736136 
L 275.487571 70.506988 
L 272.93996 69.476608 
L 270.269373 68.709589 
L 267.499872 68.187496 
L 264.806439 67.563789 
L 259.125158 67.159303 
L 256.389405 66.828756 
L 248.074819 66.590813 
L 245.251347 66.865223 
L 242.544977 66.891929 
L 239.82287 67.076949 
L 237.170122 67.128296 
L 234.652993 66.741919 
L 232.187689 66.167384 
L 229.806229 65.197509 
L 227.44006 64.066004 
L 220.379959 59.362166 
L 217.989417 57.412175 
L 215.517008 55.69208 
L 212.961923 54.335369 
L 210.40264 52.473846 
L 207.761786 51.049348 
L 205.067433 49.872319 
L 202.342072 48.307246 
L 199.56375 47.231319 
L 196.751308 46.352496 
L 193.900314 45.297599 
L 191.036176 44.761374 
L 185.256615 43.945886 
L 176.591462 44.020864 
L 173.724853 44.336815 
L 170.888035 44.849128 
L 165.371433 46.614982 
L 162.734508 47.952215 
L 160.177013 49.505615 
L 157.573467 50.767318 
L 152.730132 54.291324 
L 150.306501 55.878965 
L 143.859341 62.362242 
L 142.255739 65.634882 
L 140.576583 68.51213 
L 139.067905 71.601295 
L 138.047683 75.555557 
L 136.857029 78.909357 
L 136.042879 82.810458 
L 136.348655 88.586885 
L 136.36531 93.464184 
L 137.595795 100.14554 
L 140.429859 109.061866 
L 141.409568 114.411042 
L 138.911151 114.080375 
L 132.534757 108.102619 
L 121.035691 99.392586 
L 115.966299 96.539623 
L 111.917843 95.295542 
L 107.440525 93.714479 
L 103.770437 93.315163 
L 100.277799 93.261766 
L 96.314758 92.807565 
L 92.979791 93.179885 
L 86.579349 94.492786 
L 81.21608 97.1162 
L 78.601638 98.562413 
L 71.70769 103.941392 
L 67.383468 107.872201 
L 65.310742 109.936668 
L 63.419023 112.147623 
L 61.678221 114.472224 
L 60.101504 116.909346 
L 58.633592 119.414251 
L 55.217295 127.464641 
L 52.848436 135.919347 
L 52.507862 138.903901 
L 52.035583 141.793416 
L 51.761883 144.739017 
L 51.964595 147.843258 
L 51.802273 150.756871 
L 52.01001 153.772018 
L 52.723821 156.916145 
L 52.899245 159.823001 
L 53.698422 162.881681 
L 54.977181 166.017656 
L 55.789635 168.953029 
L 57.494058 172.055235 
L 59.314801 175.098166 
L 60.782308 177.978281 
L 63.779446 181.083393 
L 68.174648 186.667198 
L 71.710194 189.508542 
L 74.249834 192.090573 
L 77.389568 194.636164 
L 81.357995 197.135524 
L 84.063776 199.400643 
L 85.960104 201.523473 
L 85.176175 203.482685 
L 82.919734 205.441159 
L 78.55704 207.477187 
L 74.500827 209.660169 
L 70.636785 211.979416 
L 67.348646 214.406287 
L 62.560217 219.463443 
L 60.396725 222.104231 
L 58.709304 224.771939 
L 54.697754 230.421707 
L 53.165032 233.291231 
L 51.40107 236.277095 
L 49.858974 239.29792 
L 49.07739 242.219701 
L 47.960125 245.276216 
L 47.307974 248.274 
L 47.252558 251.151719 
L 46.819504 254.17579 
L 46.756942 257.127129 
L 47.114476 259.969682 
L 47.227101 262.923194 
L 47.56971 265.822233 
L 48.189202 268.636475 
L 48.64666 271.537692 
L 49.242609 274.404471 
L 50.988243 279.942304 
L 52.194471 282.565586 
L 53.539294 285.119768 
L 56.805003 289.898988 
L 58.545468 292.209519 
L 60.511677 294.366566 
L 64.18209 298.79327 
L 66.39557 300.722551 
L 68.433171 302.74913 
L 70.608506 304.651934 
L 73.243127 306.169675 
L 75.579433 307.877708 
L 78.179421 309.330734 
L 81.308529 310.274882 
L 83.947248 311.578753 
L 87.053737 312.394472 
L 90.485281 312.813041 
L 93.405681 313.635257 
L 100.782126 313.407511 
L 104.017246 313.592331 
L 108.013365 312.793858 
L 111.54669 312.371835 
L 114.657173 312.328078 
L 118.002489 311.870841 
L 120.421063 312.50308 
L 122.446369 313.620156 
L 123.773081 315.717481 
L 125.019613 317.993415 
L 125.926155 320.86914 
L 126.567724 324.295249 
L 127.71831 327.048079 
L 129.90702 333.141255 
L 131.444544 335.59078 
L 134.414475 341.052997 
L 136.272694 343.205295 
L 138.028674 345.68723 
L 140.01683 347.760941 
L 144.238646 351.604011 
L 146.547998 353.136769 
L 151.387709 355.747795 
L 153.895014 356.852891 
L 156.453189 357.821582 
L 159.082754 358.554322 
L 161.751674 359.133143 
L 164.466371 359.500637 
L 169.965021 359.749449 
L 172.737088 359.618748 
L 178.244644 359.170511 
L 183.724299 358.1795 
L 186.399721 357.942723 
L 189.083203 357.355986 
L 194.356515 356.592885 
L 196.970325 356.054406 
L 202.14188 355.178138 
L 207.236958 353.890723 
L 209.775304 353.509216 
L 212.294744 352.993112 
L 214.825009 352.678364 
L 217.369529 352.493619 
L 225.251363 353.15888 
L 227.986758 353.700886 
L 236.19422 354.393977 
L 241.569599 353.968991 
L 246.865867 353.058134 
L 249.492681 352.481331 
L 252.069932 351.736738 
L 254.57478 350.78582 
L 259.403059 348.449765 
L 261.717154 347.076019 
L 266.054731 343.803901 
L 268.113182 342.013024 
L 269.983884 339.918197 
L 271.961005 338.085293 
L 275.584453 333.996883 
L 277.46657 332.14776 
L 280.918073 328.089932 
L 282.755457 326.287258 
L 287.788653 320.399914 
L 292.202156 314.045483 
L 293.129937 311.392966 
L 294.166045 308.925728 
L 295.039399 306.345116 
L 296.363384 300.955507 
L 296.508322 297.879463 
L 296.197575 294.486674 
L 296.513355 291.754194 
L 296.355575 288.695172 
L 296.341089 285.845931 
L 296.721902 283.385455 
L 296.672417 280.653816 
L 296.18672 277.677884 
L 296.035916 275.027725 
L 291.614926 267.25592 
L 289.502613 263.677226 
L 283.844539 258.118195 
L 279.490189 253.622738 
L 276.571653 250.163365 
L 275.891199 248.061212 
L 277.488877 247.182023 
L 281.06628 247.228627 
L 285.401353 247.503919 
L 287.460234 246.611224 
L 289.960489 245.848327 
L 290.525756 244.228223 
L 292.43078 241.278022 
L 293.742768 239.905624 
L 294.512372 238.327865 
L 294.514125 236.50643 
L 293.476922 234.406356 
L 293.063268 232.530308 
L 291.752823 230.462505 
L 291.66698 228.740894 
L 292.314201 227.191905 
L 293.477972 225.732263 
L 294.519207 224.220396 
L 295.04332 222.599666 
L 294.731923 220.852202 
L 293.672817 219.032328 
L 292.130359 217.20633 
L 287.776337 215.194789 
L 284.387078 213.408612 
L 278.815808 211.630612 
L 260.628829 208.543082 
L 260.628829 208.543082 
" clip-path="url(#p615ba4a58f)" style="fill: none; stroke: #ff0000; stroke-width: 1.5; stroke-linecap: square"/>
   </g>
   <g id="line2d_20">
    <path d="M 207.48375 207.477187 
L 238.084494 206.804805 
L 262.490103 205.279751 
L 275.603825 203.492096 
L 284.60161 201.530761 
L 291.402246 199.44236 
L 296.812861 197.255894 
L 301.337025 194.981001 
L 305.142378 192.639079 
L 308.429658 190.234522 
L 311.298931 187.77526 
L 313.81676 185.268652 
L 316.016485 182.724395 
L 317.96435 180.142255 
L 319.693296 177.525528 
L 321.203498 174.883915 
L 322.527855 172.217798 
L 323.698918 169.525258 
L 324.723142 166.810436 
L 325.594285 164.081394 
L 326.328621 161.338548 
L 326.932771 158.584801 
L 327.416473 155.821334 
L 327.786252 153.049965 
L 328.191526 147.497071 
L 328.179324 141.94428 
L 327.774425 136.40885 
L 326.998781 130.906496 
L 325.86307 125.45745 
L 324.387107 120.074932 
L 322.577171 114.779926 
L 320.451198 109.584463 
L 318.01689 104.507444 
L 315.287926 99.562648 
L 312.271189 94.769748 
L 308.980136 90.142479 
L 305.426923 85.695538 
L 301.622912 81.444619 
L 297.581169 77.403679 
L 293.314426 73.587346 
L 288.836562 70.009112 
L 284.161883 66.68225 
L 279.305512 63.61924 
L 274.28304 60.832324 
L 269.110574 58.333542 
L 263.805482 56.13315 
L 258.385101 54.24233 
L 252.868223 52.669758 
L 247.273889 51.424356 
L 241.621994 50.513682 
L 235.93326 49.943534 
L 230.229183 49.717212 
L 224.531961 49.83411 
L 218.863093 50.296653 
L 213.246245 51.08555 
L 207.701947 52.191146 
L 202.249994 53.582375 
L 196.905861 55.20684 
L 189.106294 57.928592 
L 179.053033 61.53585 
L 174.098679 63.057593 
L 169.119574 64.2486 
L 164.062045 65.087626 
L 158.884857 65.61303 
L 150.865242 66.046452 
L 142.586822 66.454342 
L 136.976008 66.902817 
L 131.335349 67.588235 
L 125.700452 68.560529 
L 120.10688 69.853852 
L 114.584573 71.482077 
L 109.162981 73.452535 
L 103.867415 75.762482 
L 98.72188 78.40548 
L 93.748627 81.371634 
L 88.968412 84.648621 
L 84.401176 88.222851 
L 80.066456 92.079992 
L 75.982439 96.204076 
L 72.167633 100.579152 
L 68.640455 105.188699 
L 65.419004 110.015325 
L 62.522159 115.041467 
L 59.969405 120.24896 
L 57.782197 125.61957 
L 55.983064 131.133983 
L 54.597138 136.772247 
L 54.068334 139.631561 
L 53.65286 142.513474 
L 53.360452 145.417569 
L 53.187222 148.337231 
L 53.146623 151.272918 
L 53.242797 154.220716 
L 53.482995 157.17755 
L 53.871242 160.138822 
L 54.424351 163.10362 
L 55.146319 166.066156 
L 56.054015 169.02387 
L 57.164377 171.973036 
L 58.494363 174.908753 
L 60.067494 177.826343 
L 61.91723 180.721414 
L 64.080418 183.587821 
L 66.610556 186.41947 
L 69.571224 189.207929 
L 73.066144 191.945234 
L 77.239385 194.620379 
L 82.305607 197.218429 
L 88.634169 199.720236 
L 96.96473 202.100201 
L 108.778092 204.306882 
L 128.92444 206.244174 
L 167.239359 207.477187 
L 126.363044 208.754911 
L 107.430605 210.694548 
L 96.055869 212.901806 
L 87.961657 215.281166 
L 81.768336 217.782951 
L 76.803585 220.379801 
L 72.698123 223.054328 
L 69.260793 225.790074 
L 66.340885 228.577616 
L 63.848049 231.407527 
L 61.715391 234.272194 
L 59.88945 237.165876 
L 58.336712 240.082018 
L 57.02701 243.015588 
L 55.933546 245.962785 
L 55.039393 248.91888 
L 54.33087 251.879335 
L 53.794303 254.840552 
L 53.416065 257.799871 
L 53.185782 260.754411 
L 53.102566 263.698368 
L 53.152844 266.631033 
L 53.332527 269.548659 
L 53.634384 272.449127 
L 54.057336 275.327942 
L 54.593805 278.183754 
L 55.993481 283.814854 
L 57.805287 289.321474 
L 60.003994 294.683802 
L 62.56715 299.882561 
L 65.473817 304.899226 
L 68.704204 309.71587 
L 72.239675 314.314772 
L 76.062098 318.678575 
L 80.153019 322.79079 
L 84.494369 326.635019 
L 89.067653 330.195535 
L 93.853711 333.457506 
L 98.832906 336.406788 
L 103.984311 339.030999 
L 109.285688 341.319918 
L 114.712825 343.267052 
L 120.241711 344.866989 
L 125.842876 346.125987 
L 131.484592 347.060147 
L 137.133675 347.697432 
L 142.752238 348.090615 
L 153.748242 348.482823 
L 159.060459 348.728949 
L 164.231661 349.186455 
L 169.274456 349.977113 
L 174.231549 351.143241 
L 179.159523 352.660806 
L 186.625111 355.366508 
L 194.300425 358.19909 
L 199.56375 359.959494 
L 204.942948 361.517278 
L 210.425636 362.809388 
L 215.993655 363.797295 
L 221.626319 364.460523 
L 227.301066 364.783324 
L 232.995674 364.762026 
L 238.687337 364.393322 
L 244.354329 363.680501 
L 249.975641 362.629034 
L 255.530882 361.245618 
L 261.000456 359.53837 
L 266.365586 357.516567 
L 271.608328 355.190462 
L 276.711172 352.570386 
L 281.657575 349.667863 
L 286.43164 346.494871 
L 291.01811 343.063852 
L 295.402342 339.387692 
L 299.570288 335.479719 
L 303.508803 331.354077 
L 307.205077 327.024992 
L 310.647604 322.507885 
L 313.820959 317.814091 
L 316.720309 312.965427 
L 319.328548 307.971785 
L 321.639227 302.853003 
L 323.639004 297.623136 
L 325.31781 292.299372 
L 326.663541 286.897951 
L 327.664739 281.436328 
L 328.304729 275.92998 
L 328.567242 270.396394 
L 328.436577 264.855067 
L 327.882147 259.321185 
L 327.436273 256.56285 
L 326.87343 253.814121 
L 326.183903 251.076003 
L 325.364301 248.352264 
L 324.404861 245.644945 
L 323.305502 242.959564 
L 322.017477 240.288565 
L 320.57637 237.649022 
L 318.949664 235.039597 
L 317.104532 232.461252 
L 315.007943 229.917265 
L 312.626756 227.413246 
L 309.961123 224.962414 
L 306.878121 222.559239 
L 303.310957 220.215743 
L 299.159475 217.94512 
L 294.22292 215.758792 
L 288.132299 213.670504 
L 280.350101 211.711021 
L 269.665474 209.925194 
L 252.509201 208.401354 
L 252.509201 208.401354 
" clip-path="url(#p615ba4a58f)" style="fill: none; stroke-dasharray: 5.55,2.4; stroke-dashoffset: 0; stroke: #0000ff; stroke-width: 1.5"/>
   </g>
   <g id="patch_3">
    <path d="M 365.88375 207.477187 
C 365.88375 185.636245 361.581561 164.007679 353.223394 143.829279 
C 344.865227 123.650879 332.613628 105.315066 317.16975 89.871188 
C 301.725871 74.427309 283.390058 62.17571 263.211658 53.817544 
C 243.033259 45.459377 221.404692 41.157187 199.56375 41.157187 
C 177.722808 41.157187 156.094241 45.459377 135.915842 53.817544 
C 115.737442 62.17571 97.401629 74.427309 81.95775 89.871188 
C 66.513872 105.315066 54.262273 123.650879 45.904106 143.829279 
C 37.545939 164.007679 33.24375 185.636245 33.24375 207.477187 
C 33.24375 229.31813 37.545939 250.946696 45.904106 271.125096 
C 54.262273 291.303496 66.513872 309.639309 81.95775 325.083187 
C 97.401629 340.527066 115.737442 352.778665 135.915842 361.136831 
C 156.094241 369.494998 177.722808 373.797188 199.56375 373.797188 
C 221.404692 373.797188 243.033259 369.494998 263.211658 361.136831 
C 283.390058 352.778665 301.725871 340.527066 317.16975 325.083187 
C 332.613628 309.639309 344.865227 291.303496 353.223394 271.125096 
C 361.581561 250.946696 365.88375 229.31813 365.88375 207.477188 
" style="fill: none; stroke: #000000; stroke-width: 0.8; stroke-linejoin: miter; stroke-linecap: square"/>
   </g>
   <g id="text_19">
    <!-- Radiation Diagram - 3AVHF07 -->
    <g transform="translate(110.319375 16.318125)scale(0.12 -0.12)">
     <defs>
      <path id="DejaVuSans-52" d="M 2841 2188 
Q 3044 2119 3236 1894 
Q 3428 1669 3622 1275 
L 4263 0 
L 3584 0 
L 2988 1197 
Q 2756 1666 2539 1819 
Q 2322 1972 1947 1972 
L 1259 1972 
L 1259 0 
L 628 0 
L 628 4666 
L 2053 4666 
Q 2853 4666 3247 4331 
Q 3641 3997 3641 3322 
Q 3641 2881 3436 2590 
Q 3231 2300 2841 2188 
z
M 1259 4147 
L 1259 2491 
L 2053 2491 
Q 2509 2491 2742 2702 
Q 2975 2913 2975 3322 
Q 2975 3731 2742 3939 
Q 2509 4147 2053 4147 
L 1259 4147 
z
" transform="scale(0.015625)"/>
      <path id="DejaVuSans-61" d="M 2194 1759 
Q 1497 1759 1228 1600 
Q 959 1441 959 1056 
Q 959 750 1161 570 
Q 1363 391 1709 391 
Q 2188 391 2477 730 
Q 2766 1069 2766 1631 
L 2766 1759 
L 2194 1759 
z
M 3341 1997 
L 3341 0 
L 2766 0 
L 2766 531 
Q 2569 213 2275 61 
Q 1981 -91 1556 -91 
Q 1019 -91 701 211 
Q 384 513 384 1019 
Q 384 1609 779 1909 
Q 1175 2209 1959 2209 
L 2766 2209 
L 2766 2266 
Q 2766 2663 2505 2880 
Q 2244 3097 1772 3097 
Q 1472 3097 1187 3025 
Q 903 2953 641 2809 
L 641 3341 
Q 956 3463 1253 3523 
Q 1550 3584 1831 3584 
Q 2591 3584 2966 3190 
Q 3341 2797 3341 1997 
z
" transform="scale(0.015625)"/>
      <path id="DejaVuSans-64" d="M 2906 2969 
L 2906 4863 
L 3481 4863 
L 3481 0 
L 2906 0 
L 2906 525 
Q 2725 213 2448 61 
Q 2172 -91 1784 -91 
Q 1150 -91 751 415 
Q 353 922 353 1747 
Q 353 2572 751 3078 
Q 1150 3584 1784 3584 
Q 2172 3584 2448 3432 
Q 2725 3281 2906 2969 
z
M 947 1747 
Q 947 1113 1208 752 
Q 1469 391 1925 391 
Q 2381 391 2643 752 
Q 2906 1113 2906 1747 
Q 2906 2381 2643 2742 
Q 2381 3103 1925 3103 
Q 1469 3103 1208 2742 
Q 947 2381 947 1747 
z
" transform="scale(0.015625)"/>
      <path id="DejaVuSans-69" d="M 603 3500 
L 1178 3500 
L 1178 0 
L 603 0 
L 603 3500 
z
M 603 4863 
L 1178 4863 
L 1178 4134 
L 603 4134 
L 603 4863 
z
" transform="scale(0.015625)"/>
      <path id="DejaVuSans-74" d="M 1172 4494 
L 1172 3500 
L 2356 3500 
L 2356 3053 
L 1172 3053 
L 1172 1153 
Q 1172 725 1289 603 
Q 1406 481 1766 481 
L 2356 481 
L 2356 0 
L 1766 0 
Q 1100 0 847 248 
Q 594 497 594 1153 
L 594 3053 
L 172 3053 
L 172 3500 
L 594 3500 
L 594 4494 
L 1172 4494 
z
" transform="scale(0.015625)"/>
      <path id="DejaVuSans-6f" d="M 1959 3097 
Q 1497 3097 1228 2736 
Q 959 2375 959 1747 
Q 959 1119 1226 758 
Q 1494 397 1959 397 
Q 2419 397 2687 759 
Q 2956 1122 2956 1747 
Q 2956 2369 2687 2733 
Q 2419 3097 1959 3097 
z
M 1959 3584 
Q 2709 3584 3137 3096 
Q 3566 2609 3566 1747 
Q 3566 888 3137 398 
Q 2709 -91 1959 -91 
Q 1206 -91 779 398 
Q 353 888 353 1747 
Q 353 2609 779 3096 
Q 1206 3584 1959 3584 
z
" transform="scale(0.015625)"/>
      <path id="DejaVuSans-6e" d="M 3513 2113 
L 3513 0 
L 2938 0 
L 2938 2094 
Q 2938 2591 2744 2837 
Q 2550 3084 2163 3084 
Q 1697 3084 1428 2787 
Q 1159 2491 1159 1978 
L 1159 0 
L 581 0 
L 581 3500 
L 1159 3500 
L 1159 2956 
Q 1366 3272 1645 3428 
Q 1925 3584 2291 3584 
Q 2894 3584 3203 3211 
Q 3513 2838 3513 2113 
z
" transform="scale(0.015625)"/>
      <path id="DejaVuSans-20" transform="scale(0.015625)"/>
      <path id="DejaVuSans-44" d="M 1259 4147 
L 1259 519 
L 2022 519 
Q 2988 519 3436 956 
Q 3884 1394 3884 2338 
Q 3884 3275 3436 3711 
Q 2988 4147 2022 4147 
L 1259 4147 
z
M 628 4666 
L 1925 4666 
Q 3281 4666 3915 4102 
Q 4550 3538 4550 2338 
Q 4550 1131 3912 565 
Q 3275 0 1925 0 
L 628 0 
L 628 4666 
z
" transform="scale(0.015625)"/>
      <path id="DejaVuSans-67" d="M 2906 1791 
Q 2906 2416 2648 2759 
Q 2391 3103 1925 3103 
Q 1463 3103 1205 2759 
Q 947 2416 947 1791 
Q 947 1169 1205 825 
Q 1463 481 1925 481 
Q 2391 481 2648 825 
Q 2906 1169 2906 1791 
z
M 3481 434 
Q 3481 -459 3084 -895 
Q 2688 -1331 1869 -1331 
Q 1566 -1331 1297 -1286 
Q 1028 -1241 775 -1147 
L 775 -588 
Q 1028 -725 1275 -790 
Q 1522 -856 1778 -856 
Q 2344 -856 2625 -561 
Q 2906 -266 2906 331 
L 2906 616 
Q 2728 306 2450 153 
Q 2172 0 1784 0 
Q 1141 0 747 490 
Q 353 981 353 1791 
Q 353 2603 747 3093 
Q 1141 3584 1784 3584 
Q 2172 3584 2450 3431 
Q 2728 3278 2906 2969 
L 2906 3500 
L 3481 3500 
L 3481 434 
z
" transform="scale(0.015625)"/>
      <path id="DejaVuSans-72" d="M 2631 2963 
Q 2534 3019 2420 3045 
Q 2306 3072 2169 3072 
Q 1681 3072 1420 2755 
Q 1159 2438 1159 1844 
L 1159 0 
L 581 0 
L 581 3500 
L 1159 3500 
L 1159 2956 
Q 1341 3275 1631 3429 
Q 1922 3584 2338 3584 
Q 2397 3584 2469 3576 
Q 2541 3569 2628 3553 
L 2631 2963 
z
" transform="scale(0.015625)"/>
      <path id="DejaVuSans-6d" d="M 3328 2828 
Q 3544 3216 3844 3400 
Q 4144 3584 4550 3584 
Q 5097 3584 5394 3201 
Q 5691 2819 5691 2113 
L 5691 0 
L 5113 0 
L 5113 2094 
Q 5113 2597 4934 2840 
Q 4756 3084 4391 3084 
Q 3944 3084 3684 2787 
Q 3425 2491 3425 1978 
L 3425 0 
L 2847 0 
L 2847 2094 
Q 2847 2600 2669 2842 
Q 2491 3084 2119 3084 
Q 1678 3084 1418 2786 
Q 1159 2488 1159 1978 
L 1159 0 
L 581 0 
L 581 3500 
L 1159 3500 
L 1159 2956 
Q 1356 3278 1631 3431 
Q 1906 3584 2284 3584 
Q 2666 3584 2933 3390 
Q 3200 3197 3328 2828 
z
" transform="scale(0.015625)"/>
      <path id="DejaVuSans-2d" d="M 313 2009 
L 1997 2009 
L 1997 1497 
L 313 1497 
L 313 2009 
z
" transform="scale(0.015625)"/>
      <path id="DejaVuSans-41" d="M 2188 4044 
L 1331 1722 
L 3047 1722 
L 2188 4044 
z
M 1831 4666 
L 2547 4666 
L 4325 0 
L 3669 0 
L 3244 1197 
L 1141 1197 
L 716 0 
L 50 0 
L 1831 4666 
z
" transform="scale(0.015625)"/>
      <path id="DejaVuSans-56" d="M 1831 0 
L 50 4666 
L 709 4666 
L 2188 738 
L 3669 4666 
L 4325 4666 
L 2547 0 
L 1831 0 
z
" transform="scale(0.015625)"/>
      <path id="DejaVuSans-48" d="M 628 4666 
L 1259 4666 
L 1259 2753 
L 3553 2753 
L 3553 4666 
L 4184 4666 
L 4184 0 
L 3553 0 
L 3553 2222 
L 1259 2222 
L 1259 0 
L 628 0 
L 628 4666 
z
" transform="scale(0.015625)"/>
      <path id="DejaVuSans-46" d="M 628 4666 
L 3309 4666 
L 3309 4134 
L 1259 4134 
L 1259 2759 
L 3109 2759 
L 3109 2228 
L 1259 2228 
L 1259 0 
L 628 0 
L 628 4666 
z
" transform="scale(0.015625)"/>
     </defs>
     <use xlink:href="#DejaVuSans-52"/>
     <use xlink:href="#DejaVuSans-61" x="67.232422"/>
     <use xlink:href="#DejaVuSans-64" x="128.511719"/>
     <use xlink:href="#DejaVuSans-69" x="191.988281"/>
     <use xlink:href="#DejaVuSans-61" x="219.771484"/>
     <use xlink:href="#DejaVuSans-74" x="281.050781"/>
     <use xlink:href="#DejaVuSans-69" x="320.259766"/>
     <use xlink:href="#DejaVuSans-6f" x="348.042969"/>
     <use xlink:href="#DejaVuSans-6e" x="409.224609"/>
     <use xlink:href="#DejaVuSans-20" x="472.603516"/>
     <use xlink:href="#DejaVuSans-44" x="504.390625"/>
     <use xlink:href="#DejaVuSans-69" x="581.392578"/>
     <use xlink:href="#DejaVuSans-61" x="609.175781"/>
     <use xlink:href="#DejaVuSans-67" x="670.455078"/>
     <use xlink:href="#DejaVuSans-72" x="733.931641"/>
     <use xlink:href="#DejaVuSans-61" x="775.044922"/>
     <use xlink:href="#DejaVuSans-6d" x="836.324219"/>
     <use xlink:href="#DejaVuSans-20" x="933.736328"/>
     <use xlink:href="#DejaVuSans-2d" x="965.523438"/>
     <use xlink:href="#DejaVuSans-20" x="1001.607422"/>
     <use xlink:href="#DejaVuSans-33" x="1033.394531"/>
     <use xlink:href="#DejaVuSans-41" x="1097.017578"/>
     <use xlink:href="#DejaVuSans-56" x="1159.050781"/>
     <use xlink:href="#DejaVuSans-48" x="1227.458984"/>
     <use xlink:href="#DejaVuSans-46" x="1302.654297"/>
     <use xlink:href="#DejaVuSans-30" x="1360.173828"/>
     <use xlink:href="#DejaVuSans-37" x="1423.796875"/>
    </g>
   </g>
   <g id="legend_1">
    <g id="patch_4">
     <path d="M 304.104062 78.513437 
L 358.88375 78.513437 
Q 360.88375 78.513437 360.88375 76.513437 
L 360.88375 48.157187 
Q 360.88375 46.157187 358.88375 46.157187 
L 304.104062 46.157187 
Q 302.104062 46.157187 302.104062 48.157187 
L 302.104062 76.513437 
Q 302.104062 78.513437 304.104062 78.513437 
z
" style="fill: #ffffff; opacity: 0.8; stroke: #cccccc; stroke-linejoin: miter"/>
    </g>
    <g id="line2d_21">
     <path d="M 306.104062 54.255625 
L 316.104062 54.255625 
L 326.104062 54.255625 
" style="fill: none; stroke: #ff0000; stroke-width: 1.5; stroke-linecap: square"/>
    </g>
    <g id="text_20">
     <!-- INPE -->
     <g transform="translate(334.104062 57.755625)scale(0.1 -0.1)">
      <defs>
       <path id="DejaVuSans-49" d="M 628 4666 
L 1259 4666 
L 1259 0 
L 628 0 
L 628 4666 
z
" transform="scale(0.015625)"/>
       <path id="DejaVuSans-4e" d="M 628 4666 
L 1478 4666 
L 3547 763 
L 3547 4666 
L 4159 4666 
L 4159 0 
L 3309 0 
L 1241 3903 
L 1241 0 
L 628 0 
L 628 4666 
z
" transform="scale(0.015625)"/>
       <path id="DejaVuSans-50" d="M 1259 4147 
L 1259 2394 
L 2053 2394 
Q 2494 2394 2734 2622 
Q 2975 2850 2975 3272 
Q 2975 3691 2734 3919 
Q 2494 4147 2053 4147 
L 1259 4147 
z
M 628 4666 
L 2053 4666 
Q 2838 4666 3239 4311 
Q 3641 3956 3641 3272 
Q 3641 2581 3239 2228 
Q 2838 1875 2053 1875 
L 1259 1875 
L 1259 0 
L 628 0 
L 628 4666 
z
" transform="scale(0.015625)"/>
       <path id="DejaVuSans-45" d="M 628 4666 
L 3578 4666 
L 3578 4134 
L 1259 4134 
L 1259 2753 
L 3481 2753 
L 3481 2222 
L 1259 2222 
L 1259 531 
L 3634 531 
L 3634 0 
L 628 0 
L 628 4666 
z
" transform="scale(0.015625)"/>
      </defs>
      <use xlink:href="#DejaVuSans-49"/>
      <use xlink:href="#DejaVuSans-4e" x="29.492188"/>
      <use xlink:href="#DejaVuSans-50" x="104.296875"/>
      <use xlink:href="#DejaVuSans-45" x="164.599609"/>
     </g>
    </g>
    <g id="line2d_22">
     <path d="M 306.104062 68.93375 
L 316.104062 68.93375 
L 326.104062 68.93375 
" style="fill: none; stroke-dasharray: 5.55,2.4; stroke-dashoffset: 0; stroke: #0000ff; stroke-width: 1.5"/>
    </g>
    <g id="text_21">
     <!-- CST -->
     <g transform="translate(334.104062 72.43375)scale(0.1 -0.1)">
      <defs>
       <path id="DejaVuSans-43" d="M 4122 4306 
L 4122 3641 
Q 3803 3938 3442 4084 
Q 3081 4231 2675 4231 
Q 1875 4231 1450 3742 
Q 1025 3253 1025 2328 
Q 1025 1406 1450 917 
Q 1875 428 2675 428 
Q 3081 428 3442 575 
Q 3803 722 4122 1019 
L 4122 359 
Q 3791 134 3420 21 
Q 3050 -91 2638 -91 
Q 1578 -91 968 557 
Q 359 1206 359 2328 
Q 359 3453 968 4101 
Q 1578 4750 2638 4750 
Q 3056 4750 3426 4639 
Q 3797 4528 4122 4306 
z
" transform="scale(0.015625)"/>
       <path id="DejaVuSans-53" d="M 3425 4513 
L 3425 3897 
Q 3066 4069 2747 4153 
Q 2428 4238 2131 4238 
Q 1616 4238 1336 4038 
Q 1056 3838 1056 3469 
Q 1056 3159 1242 3001 
Q 1428 2844 1947 2747 
L 2328 2669 
Q 3034 2534 3370 2195 
Q 3706 1856 3706 1288 
Q 3706 609 3251 259 
Q 2797 -91 1919 -91 
Q 1588 -91 1214 -16 
Q 841 59 441 206 
L 441 856 
Q 825 641 1194 531 
Q 1563 422 1919 422 
Q 2459 422 2753 634 
Q 3047 847 3047 1241 
Q 3047 1584 2836 1778 
Q 2625 1972 2144 2069 
L 1759 2144 
Q 1053 2284 737 2584 
Q 422 2884 422 3419 
Q 422 4038 858 4394 
Q 1294 4750 2059 4750 
Q 2388 4750 2728 4690 
Q 3069 4631 3425 4513 
z
" transform="scale(0.015625)"/>
       <path id="DejaVuSans-54" d="M -19 4666 
L 3928 4666 
L 3928 4134 
L 2272 4134 
L 2272 0 
L 1638 0 
L 1638 4134 
L -19 4134 
L -19 4666 
z
" transform="scale(0.015625)"/>
      </defs>
      <use xlink:href="#DejaVuSans-43"/>
      <use xlink:href="#DejaVuSans-53" x="69.824219"/>
      <use xlink:href="#DejaVuSans-54" x="133.300781"/>
     </g>
    </g>
   </g>
  </g>
 </g>
 <defs>
  <clipPath id="p615ba4a58f">
   <path d="M 365.88375 207.477187 
C 365.88375 185.636245 361.581561 164.007679 353.223394 143.829279 
C 344.865227 123.650879 332.613628 105.315066 317.16975 89.871188 
C 301.725871 74.427309 283.390058 62.17571 263.211658 53.817544 
C 243.033259 45.459377 221.404692 41.157187 199.56375 41.157187 
C 177.722808 41.157187 156.094241 45.459377 135.915842 53.817544 
C 115.737442 62.17571 97.401629 74.427309 81.95775 89.871188 
C 66.513872 105.315066 54.262273 123.650879 45.904106 143.829279 
C 37.545939 164.007679 33.24375 185.636245 33.24375 207.477187 
C 33.24375 229.31813 37.545939 250.946696 45.904106 271.125096 
C 54.262273 291.303496 66.513872 309.639309 81.95775 325.083187 
C 97.401629 340.527066 115.737442 352.778665 135.915842 361.136831 
C 156.094241 369.494998 177.722808 373.797188 199.56375 373.797188 
C 221.404692 373.797188 243.033259 369.494998 263.211658 361.136831 
C 283.390058 352.778665 301.725871 340.527066 317.16975 325.083187 
C 332.613628 309.639309 344.865227 291.303496 353.223394 271.125096 
C 361.581561 250.946696 365.88375 229.31813 365.88375 207.477188 
M 199.56375 207.477187 
C 199.56375 207.477187 199.56375 207.477187 199.56375 207.477187 
C 199.56375 207.477187 199.56375 207.477187 199.56375 207.477187 
C 199.56375 207.477187 199.56375 207.477187 199.56375 207.477187 
C 199.56375 207.477187 199.56375 207.477187 199.56375 207.477187 
C 199.56375 207.477187 199.56375 207.477187 199.56375 207.477187 
C 199.56375 207.477187 199.56375 207.477187 199.56375 207.477187 
C 199.56375 207.477187 199.56375 207.477187 199.56375 207.477187 
C 199.56375 207.477187 199.56375 207.477187 199.56375 207.477187 
C 199.56375 207.477187 199.56375 207.477187 199.56375 207.477187 
C 199.56375 207.477187 199.56375 207.477187 199.56375 207.477187 
C 199.56375 207.477187 199.56375 207.477187 199.56375 207.477187 
C 199.56375 207.477187 199.56375 207.477187 199.56375 207.477187 
C 199.56375 207.477187 199.56375 207.477187 199.56375 207.477187 
C 199.56375 207.477187 199.56375 207.477187 199.56375 207.477187 
C 199.56375 207.477187 199.56375 207.477187 199.56375 207.477187 
C 199.56375 207.477187 199.56375 207.477187 199.56375 207.477187 
M 365.88375 207.477187 
z
"/>
  </clipPath>
 </defs>
</svg>
