<?xml version="1.0" encoding="utf-8" standalone="no"?>
<!DOCTYPE svg PUBLIC "-//W3C//DTD SVG 1.1//EN"
  "http://www.w3.org/Graphics/SVG/1.1/DTD/svg11.dtd">
<svg xmlns:xlink="http://www.w3.org/1999/xlink" width="392.765pt" height="399.83625pt" viewBox="0 0 392.765 399.83625" xmlns="http://www.w3.org/2000/svg" version="1.1">
 <metadata>
  <rdf:RDF xmlns:dc="http://purl.org/dc/elements/1.1/" xmlns:cc="http://creativecommons.org/ns#" xmlns:rdf="http://www.w3.org/1999/02/22-rdf-syntax-ns#">
   <cc:Work>
    <dc:type rdf:resource="http://purl.org/dc/dcmitype/StillImage"/>
    <dc:date>2023-11-03T15:36:34.580775</dc:date>
    <dc:format>image/svg+xml</dc:format>
    <dc:creator>
     <cc:Agent>
      <dc:title>Matplotlib v3.5.1, https://matplotlib.org/</dc:title>
     </cc:Agent>
    </dc:creator>
   </cc:Work>
  </rdf:RDF>
 </metadata>
 <defs>
  <style type="text/css">*{stroke-linejoin: round; stroke-linecap: butt}</style>
 </defs>
 <g id="figure_1">
  <g id="patch_1">
   <path d="M 0 399.83625 
L 392.765 399.83625 
L 392.765 0 
L 0 0 
z
" style="fill: #ffffff"/>
  </g>
  <g id="axes_1">
   <g id="patch_2">
    <path d="M 365.88375 207.477188 
C 365.88375 185.636245 361.581561 164.007679 353.223394 143.829279 
C 344.865227 123.650879 332.613628 105.315066 317.16975 89.871188 
C 301.725871 74.427309 283.390058 62.17571 263.211658 53.817544 
C 243.033259 45.459377 221.404692 41.157188 199.56375 41.157188 
C 177.722808 41.157188 156.094241 45.459377 135.915842 53.817544 
C 115.737442 62.17571 97.401629 74.427309 81.95775 89.871188 
C 66.513872 105.315066 54.262273 123.650879 45.904106 143.829279 
C 37.545939 164.007679 33.24375 185.636245 33.24375 207.477188 
C 33.24375 229.31813 37.545939 250.946696 45.904106 271.125096 
C 54.262273 291.303496 66.513872 309.639309 81.95775 325.083187 
C 97.401629 340.527066 115.737442 352.778665 135.915842 361.136831 
C 156.094241 369.494998 177.722808 373.797188 199.56375 373.797188 
C 221.404692 373.797188 243.033259 369.494998 263.211658 361.136831 
C 283.390058 352.778665 301.725871 340.527066 317.16975 325.083187 
C 332.613628 309.639309 344.865227 291.303496 353.223394 271.125096 
C 361.581561 250.946696 365.88375 229.31813 365.88375 207.477188 
M 199.56375 207.477188 
C 199.56375 207.477188 199.56375 207.477188 199.56375 207.477188 
C 199.56375 207.477188 199.56375 207.477188 199.56375 207.477188 
C 199.56375 207.477188 199.56375 207.477188 199.56375 207.477188 
C 199.56375 207.477188 199.56375 207.477188 199.56375 207.477188 
C 199.56375 207.477188 199.56375 207.477188 199.56375 207.477188 
C 199.56375 207.477188 199.56375 207.477188 199.56375 207.477188 
C 199.56375 207.477188 199.56375 207.477188 199.56375 207.477188 
C 199.56375 207.477188 199.56375 207.477188 199.56375 207.477188 
C 199.56375 207.477188 199.56375 207.477188 199.56375 207.477188 
C 199.56375 207.477188 199.56375 207.477188 199.56375 207.477188 
C 199.56375 207.477188 199.56375 207.477188 199.56375 207.477188 
C 199.56375 207.477188 199.56375 207.477188 199.56375 207.477188 
C 199.56375 207.477188 199.56375 207.477188 199.56375 207.477188 
C 199.56375 207.477188 199.56375 207.477188 199.56375 207.477188 
C 199.56375 207.477188 199.56375 207.477188 199.56375 207.477188 
C 199.56375 207.477188 199.56375 207.477188 199.56375 207.477188 
M 365.88375 207.477188 
z
" style="fill: #ffffff"/>
   </g>
   <g id="matplotlib.axis_1">
    <g id="xtick_1">
     <g id="line2d_1">
      <path d="M 199.56375 207.477188 
L 365.88375 207.477188 
" clip-path="url(#p404dad7b38)" style="fill: none; stroke: #b0b0b0; stroke-width: 0.8; stroke-linecap: square"/>
     </g>
     <g id="text_1">
      <!-- 0° -->
      <g transform="translate(374.2025 210.236563)scale(0.1 -0.1)">
       <defs>
        <path id="DejaVuSans-30" d="M 2034 4250 
Q 1547 4250 1301 3770 
Q 1056 3291 1056 2328 
Q 1056 1369 1301 889 
Q 1547 409 2034 409 
Q 2525 409 2770 889 
Q 3016 1369 3016 2328 
Q 3016 3291 2770 3770 
Q 2525 4250 2034 4250 
z
M 2034 4750 
Q 2819 4750 3233 4129 
Q 3647 3509 3647 2328 
Q 3647 1150 3233 529 
Q 2819 -91 2034 -91 
Q 1250 -91 836 529 
Q 422 1150 422 2328 
Q 422 3509 836 4129 
Q 1250 4750 2034 4750 
z
" transform="scale(0.015625)"/>
        <path id="DejaVuSans-b0" d="M 1600 4347 
Q 1350 4347 1178 4173 
Q 1006 4000 1006 3750 
Q 1006 3503 1178 3333 
Q 1350 3163 1600 3163 
Q 1850 3163 2022 3333 
Q 2194 3503 2194 3750 
Q 2194 3997 2020 4172 
Q 1847 4347 1600 4347 
z
M 1600 4750 
Q 1800 4750 1984 4673 
Q 2169 4597 2303 4453 
Q 2447 4313 2519 4134 
Q 2591 3956 2591 3750 
Q 2591 3338 2302 3052 
Q 2013 2766 1594 2766 
Q 1172 2766 890 3047 
Q 609 3328 609 3750 
Q 609 4169 896 4459 
Q 1184 4750 1600 4750 
z
" transform="scale(0.015625)"/>
       </defs>
       <use xlink:href="#DejaVuSans-30"/>
       <use xlink:href="#DejaVuSans-b0" x="63.623047"/>
      </g>
     </g>
    </g>
    <g id="xtick_2">
     <g id="line2d_2">
      <path d="M 199.56375 207.477188 
L 317.16975 89.871188 
" clip-path="url(#p404dad7b38)" style="fill: none; stroke: #b0b0b0; stroke-width: 0.8; stroke-linecap: square"/>
     </g>
     <g id="text_2">
      <!-- 45° -->
      <g transform="translate(318.206745 82.731068)scale(0.1 -0.1)">
       <defs>
        <path id="DejaVuSans-34" d="M 2419 4116 
L 825 1625 
L 2419 1625 
L 2419 4116 
z
M 2253 4666 
L 3047 4666 
L 3047 1625 
L 3713 1625 
L 3713 1100 
L 3047 1100 
L 3047 0 
L 2419 0 
L 2419 1100 
L 313 1100 
L 313 1709 
L 2253 4666 
z
" transform="scale(0.015625)"/>
        <path id="DejaVuSans-35" d="M 691 4666 
L 3169 4666 
L 3169 4134 
L 1269 4134 
L 1269 2991 
Q 1406 3038 1543 3061 
Q 1681 3084 1819 3084 
Q 2600 3084 3056 2656 
Q 3513 2228 3513 1497 
Q 3513 744 3044 326 
Q 2575 -91 1722 -91 
Q 1428 -91 1123 -41 
Q 819 9 494 109 
L 494 744 
Q 775 591 1075 516 
Q 1375 441 1709 441 
Q 2250 441 2565 725 
Q 2881 1009 2881 1497 
Q 2881 1984 2565 2268 
Q 2250 2553 1709 2553 
Q 1456 2553 1204 2497 
Q 953 2441 691 2322 
L 691 4666 
z
" transform="scale(0.015625)"/>
       </defs>
       <use xlink:href="#DejaVuSans-34"/>
       <use xlink:href="#DejaVuSans-35" x="63.623047"/>
       <use xlink:href="#DejaVuSans-b0" x="127.246094"/>
      </g>
     </g>
    </g>
    <g id="xtick_3">
     <g id="line2d_3">
      <path d="M 199.56375 207.477188 
L 199.56375 41.157187 
" clip-path="url(#p404dad7b38)" style="fill: none; stroke: #b0b0b0; stroke-width: 0.8; stroke-linecap: square"/>
     </g>
     <g id="text_3">
      <!-- 90° -->
      <g transform="translate(190.70125 29.916562)scale(0.1 -0.1)">
       <defs>
        <path id="DejaVuSans-39" d="M 703 97 
L 703 672 
Q 941 559 1184 500 
Q 1428 441 1663 441 
Q 2288 441 2617 861 
Q 2947 1281 2994 2138 
Q 2813 1869 2534 1725 
Q 2256 1581 1919 1581 
Q 1219 1581 811 2004 
Q 403 2428 403 3163 
Q 403 3881 828 4315 
Q 1253 4750 1959 4750 
Q 2769 4750 3195 4129 
Q 3622 3509 3622 2328 
Q 3622 1225 3098 567 
Q 2575 -91 1691 -91 
Q 1453 -91 1209 -44 
Q 966 3 703 97 
z
M 1959 2075 
Q 2384 2075 2632 2365 
Q 2881 2656 2881 3163 
Q 2881 3666 2632 3958 
Q 2384 4250 1959 4250 
Q 1534 4250 1286 3958 
Q 1038 3666 1038 3163 
Q 1038 2656 1286 2365 
Q 1534 2075 1959 2075 
z
" transform="scale(0.015625)"/>
       </defs>
       <use xlink:href="#DejaVuSans-39"/>
       <use xlink:href="#DejaVuSans-30" x="63.623047"/>
       <use xlink:href="#DejaVuSans-b0" x="127.246094"/>
      </g>
     </g>
    </g>
    <g id="xtick_4">
     <g id="line2d_4">
      <path d="M 199.56375 207.477188 
L 81.95775 89.871188 
" clip-path="url(#p404dad7b38)" style="fill: none; stroke: #b0b0b0; stroke-width: 0.8; stroke-linecap: square"/>
     </g>
     <g id="text_4">
      <!-- 135° -->
      <g transform="translate(60.014505 82.731068)scale(0.1 -0.1)">
       <defs>
        <path id="DejaVuSans-31" d="M 794 531 
L 1825 531 
L 1825 4091 
L 703 3866 
L 703 4441 
L 1819 4666 
L 2450 4666 
L 2450 531 
L 3481 531 
L 3481 0 
L 794 0 
L 794 531 
z
" transform="scale(0.015625)"/>
        <path id="DejaVuSans-33" d="M 2597 2516 
Q 3050 2419 3304 2112 
Q 3559 1806 3559 1356 
Q 3559 666 3084 287 
Q 2609 -91 1734 -91 
Q 1441 -91 1130 -33 
Q 819 25 488 141 
L 488 750 
Q 750 597 1062 519 
Q 1375 441 1716 441 
Q 2309 441 2620 675 
Q 2931 909 2931 1356 
Q 2931 1769 2642 2001 
Q 2353 2234 1838 2234 
L 1294 2234 
L 1294 2753 
L 1863 2753 
Q 2328 2753 2575 2939 
Q 2822 3125 2822 3475 
Q 2822 3834 2567 4026 
Q 2313 4219 1838 4219 
Q 1578 4219 1281 4162 
Q 984 4106 628 3988 
L 628 4550 
Q 988 4650 1302 4700 
Q 1616 4750 1894 4750 
Q 2613 4750 3031 4423 
Q 3450 4097 3450 3541 
Q 3450 3153 3228 2886 
Q 3006 2619 2597 2516 
z
" transform="scale(0.015625)"/>
       </defs>
       <use xlink:href="#DejaVuSans-31"/>
       <use xlink:href="#DejaVuSans-33" x="63.623047"/>
       <use xlink:href="#DejaVuSans-35" x="127.246094"/>
       <use xlink:href="#DejaVuSans-b0" x="190.869141"/>
      </g>
     </g>
    </g>
    <g id="xtick_5">
     <g id="line2d_5">
      <path d="M 199.56375 207.477188 
L 33.24375 207.477187 
" clip-path="url(#p404dad7b38)" style="fill: none; stroke: #b0b0b0; stroke-width: 0.8; stroke-linecap: square"/>
     </g>
     <g id="text_5">
      <!-- 180° -->
      <g transform="translate(7.2 210.236562)scale(0.1 -0.1)">
       <defs>
        <path id="DejaVuSans-38" d="M 2034 2216 
Q 1584 2216 1326 1975 
Q 1069 1734 1069 1313 
Q 1069 891 1326 650 
Q 1584 409 2034 409 
Q 2484 409 2743 651 
Q 3003 894 3003 1313 
Q 3003 1734 2745 1975 
Q 2488 2216 2034 2216 
z
M 1403 2484 
Q 997 2584 770 2862 
Q 544 3141 544 3541 
Q 544 4100 942 4425 
Q 1341 4750 2034 4750 
Q 2731 4750 3128 4425 
Q 3525 4100 3525 3541 
Q 3525 3141 3298 2862 
Q 3072 2584 2669 2484 
Q 3125 2378 3379 2068 
Q 3634 1759 3634 1313 
Q 3634 634 3220 271 
Q 2806 -91 2034 -91 
Q 1263 -91 848 271 
Q 434 634 434 1313 
Q 434 1759 690 2068 
Q 947 2378 1403 2484 
z
M 1172 3481 
Q 1172 3119 1398 2916 
Q 1625 2713 2034 2713 
Q 2441 2713 2670 2916 
Q 2900 3119 2900 3481 
Q 2900 3844 2670 4047 
Q 2441 4250 2034 4250 
Q 1625 4250 1398 4047 
Q 1172 3844 1172 3481 
z
" transform="scale(0.015625)"/>
       </defs>
       <use xlink:href="#DejaVuSans-31"/>
       <use xlink:href="#DejaVuSans-38" x="63.623047"/>
       <use xlink:href="#DejaVuSans-30" x="127.246094"/>
       <use xlink:href="#DejaVuSans-b0" x="190.869141"/>
      </g>
     </g>
    </g>
    <g id="xtick_6">
     <g id="line2d_6">
      <path d="M 199.56375 207.477188 
L 81.95775 325.083187 
" clip-path="url(#p404dad7b38)" style="fill: none; stroke: #b0b0b0; stroke-width: 0.8; stroke-linecap: square"/>
     </g>
     <g id="text_6">
      <!-- 225° -->
      <g transform="translate(60.014505 337.742057)scale(0.1 -0.1)">
       <defs>
        <path id="DejaVuSans-32" d="M 1228 531 
L 3431 531 
L 3431 0 
L 469 0 
L 469 531 
Q 828 903 1448 1529 
Q 2069 2156 2228 2338 
Q 2531 2678 2651 2914 
Q 2772 3150 2772 3378 
Q 2772 3750 2511 3984 
Q 2250 4219 1831 4219 
Q 1534 4219 1204 4116 
Q 875 4013 500 3803 
L 500 4441 
Q 881 4594 1212 4672 
Q 1544 4750 1819 4750 
Q 2544 4750 2975 4387 
Q 3406 4025 3406 3419 
Q 3406 3131 3298 2873 
Q 3191 2616 2906 2266 
Q 2828 2175 2409 1742 
Q 1991 1309 1228 531 
z
" transform="scale(0.015625)"/>
       </defs>
       <use xlink:href="#DejaVuSans-32"/>
       <use xlink:href="#DejaVuSans-32" x="63.623047"/>
       <use xlink:href="#DejaVuSans-35" x="127.246094"/>
       <use xlink:href="#DejaVuSans-b0" x="190.869141"/>
      </g>
     </g>
    </g>
    <g id="xtick_7">
     <g id="line2d_7">
      <path d="M 199.56375 207.477188 
L 199.56375 373.797188 
" clip-path="url(#p404dad7b38)" style="fill: none; stroke: #b0b0b0; stroke-width: 0.8; stroke-linecap: square"/>
     </g>
     <g id="text_7">
      <!-- 270° -->
      <g transform="translate(187.52 390.556563)scale(0.1 -0.1)">
       <defs>
        <path id="DejaVuSans-37" d="M 525 4666 
L 3525 4666 
L 3525 4397 
L 1831 0 
L 1172 0 
L 2766 4134 
L 525 4134 
L 525 4666 
z
" transform="scale(0.015625)"/>
       </defs>
       <use xlink:href="#DejaVuSans-32"/>
       <use xlink:href="#DejaVuSans-37" x="63.623047"/>
       <use xlink:href="#DejaVuSans-30" x="127.246094"/>
       <use xlink:href="#DejaVuSans-b0" x="190.869141"/>
      </g>
     </g>
    </g>
    <g id="xtick_8">
     <g id="line2d_8">
      <path d="M 199.56375 207.477188 
L 317.16975 325.083187 
" clip-path="url(#p404dad7b38)" style="fill: none; stroke: #b0b0b0; stroke-width: 0.8; stroke-linecap: square"/>
     </g>
     <g id="text_8">
      <!-- 315° -->
      <g transform="translate(315.025495 337.742057)scale(0.1 -0.1)">
       <use xlink:href="#DejaVuSans-33"/>
       <use xlink:href="#DejaVuSans-31" x="63.623047"/>
       <use xlink:href="#DejaVuSans-35" x="127.246094"/>
       <use xlink:href="#DejaVuSans-b0" x="190.869141"/>
      </g>
     </g>
    </g>
   </g>
   <g id="matplotlib.axis_2">
    <g id="ytick_1">
     <g id="line2d_9">
      <path d="M 263.399278 207.477188 
C 263.399278 199.094383 261.748048 190.79309 258.540088 183.048389 
C 255.332127 175.303687 250.629823 168.266191 244.702285 162.338653 
C 238.774747 156.411115 231.737251 151.70881 223.992549 148.50085 
C 216.247847 145.292889 207.946555 143.64166 199.56375 143.64166 
C 191.180945 143.64166 182.879653 145.292889 175.134951 148.50085 
C 167.390249 151.70881 160.352753 156.411115 154.425215 162.338653 
C 148.497677 168.266191 143.795373 175.303687 140.587412 183.048389 
C 137.379452 190.79309 135.728222 199.094383 135.728222 207.477188 
C 135.728222 215.859992 137.379452 224.161285 140.587412 231.905986 
C 143.795373 239.650688 148.497677 246.688184 154.425215 252.615722 
C 160.352753 258.54326 167.390249 263.245565 175.134951 266.453525 
C 182.879653 269.661486 191.180945 271.312715 199.56375 271.312715 
C 207.946555 271.312715 216.247847 269.661486 223.992549 266.453525 
C 231.737251 263.245565 238.774747 258.54326 244.702285 252.615722 
C 250.629823 246.688184 255.332127 239.650688 258.540088 231.905986 
C 261.748048 224.161285 263.399278 215.859992 263.399278 207.477188 
" clip-path="url(#p404dad7b38)" style="fill: none; stroke: #b0b0b0; stroke-width: 0.8; stroke-linecap: square"/>
     </g>
     <g id="text_9">
      <!-- −30 -->
      <g transform="translate(258.540088 180.968701)scale(0.1 -0.1)">
       <defs>
        <path id="DejaVuSans-2212" d="M 678 2272 
L 4684 2272 
L 4684 1741 
L 678 1741 
L 678 2272 
z
" transform="scale(0.015625)"/>
       </defs>
       <use xlink:href="#DejaVuSans-2212"/>
       <use xlink:href="#DejaVuSans-33" x="83.789062"/>
       <use xlink:href="#DejaVuSans-30" x="147.412109"/>
      </g>
     </g>
    </g>
    <g id="ytick_2">
     <g id="line2d_10">
      <path d="M 273.647725 207.477188 
C 273.647725 197.748569 271.731399 188.114549 268.008418 179.126478 
C 264.285437 170.138406 258.828203 161.971078 251.949031 155.091906 
C 245.069859 148.212734 236.902531 142.7555 227.91446 139.032519 
C 218.926388 135.309538 209.292368 133.393212 199.56375 133.393212 
C 189.835132 133.393212 180.201112 135.309538 171.21304 139.032519 
C 162.224969 142.7555 154.057641 148.212734 147.178469 155.091906 
C 140.299297 161.971078 134.842063 170.138406 131.119082 179.126478 
C 127.396101 188.114549 125.479775 197.748569 125.479775 207.477188 
C 125.479775 217.205806 127.396101 226.839826 131.119082 235.827897 
C 134.842063 244.815969 140.299297 252.983297 147.178469 259.862469 
C 154.057641 266.741641 162.224969 272.198875 171.21304 275.921856 
C 180.201112 279.644837 189.835132 281.561163 199.56375 281.561163 
C 209.292368 281.561163 218.926388 279.644837 227.91446 275.921856 
C 236.902531 272.198875 245.069859 266.741641 251.949031 259.862469 
C 258.828203 252.983297 264.285437 244.815969 268.008418 235.827897 
C 271.731399 226.839826 273.647725 217.205806 273.647725 207.477188 
" clip-path="url(#p404dad7b38)" style="fill: none; stroke: #b0b0b0; stroke-width: 0.8; stroke-linecap: square"/>
     </g>
     <g id="text_10">
      <!-- −27 -->
      <g transform="translate(268.008418 177.04679)scale(0.1 -0.1)">
       <use xlink:href="#DejaVuSans-2212"/>
       <use xlink:href="#DejaVuSans-32" x="83.789062"/>
       <use xlink:href="#DejaVuSans-37" x="147.412109"/>
      </g>
     </g>
    </g>
    <g id="ytick_3">
     <g id="line2d_11">
      <path d="M 283.896172 207.477188 
C 283.896172 196.402755 281.714751 185.436008 277.476749 175.204567 
C 273.238747 164.973125 267.026584 155.675966 259.195778 147.84516 
C 251.364972 140.014354 242.067812 133.80219 231.836371 129.564189 
C 221.60493 125.326187 210.638182 123.144765 199.56375 123.144765 
C 188.489318 123.144765 177.52257 125.326187 167.291129 129.564189 
C 157.059688 133.80219 147.762528 140.014354 139.931722 147.84516 
C 132.100916 155.675966 125.888753 164.973125 121.650751 175.204567 
C 117.412749 185.436008 115.231328 196.402755 115.231328 207.477188 
C 115.231328 218.55162 117.412749 229.518367 121.650751 239.749808 
C 125.888753 249.98125 132.100916 259.278409 139.931722 267.109215 
C 147.762528 274.940021 157.059688 281.152185 167.291129 285.390186 
C 177.52257 289.628188 188.489318 291.80961 199.56375 291.80961 
C 210.638182 291.80961 221.60493 289.628188 231.836371 285.390186 
C 242.067812 281.152185 251.364972 274.940021 259.195778 267.109215 
C 267.026584 259.278409 273.238747 249.98125 277.476749 239.749808 
C 281.714751 229.518367 283.896172 218.55162 283.896172 207.477188 
" clip-path="url(#p404dad7b38)" style="fill: none; stroke: #b0b0b0; stroke-width: 0.8; stroke-linecap: square"/>
     </g>
     <g id="text_11">
      <!-- −24 -->
      <g transform="translate(277.476749 173.124879)scale(0.1 -0.1)">
       <use xlink:href="#DejaVuSans-2212"/>
       <use xlink:href="#DejaVuSans-32" x="83.789062"/>
       <use xlink:href="#DejaVuSans-34" x="147.412109"/>
      </g>
     </g>
    </g>
    <g id="ytick_4">
     <g id="line2d_12">
      <path d="M 294.14462 207.477188 
C 294.14462 195.056942 291.698102 182.757467 286.94508 171.282656 
C 282.192057 159.807845 275.224964 149.380853 266.442524 140.598413 
C 257.660084 131.815973 247.233093 124.84888 235.758282 120.095858 
C 224.283471 115.342836 211.983996 112.896318 199.56375 112.896318 
C 187.143504 112.896318 174.844029 115.342836 163.369218 120.095858 
C 151.894407 124.84888 141.467416 131.815973 132.684976 140.598413 
C 123.902536 149.380853 116.935443 159.807845 112.18242 171.282656 
C 107.429398 182.757467 104.98288 195.056942 104.98288 207.477188 
C 104.98288 219.897433 107.429398 232.196908 112.18242 243.671719 
C 116.935443 255.14653 123.902536 265.573522 132.684976 274.355962 
C 141.467416 283.138402 151.894407 290.105495 163.369218 294.858517 
C 174.844029 299.611539 187.143504 302.058057 199.56375 302.058057 
C 211.983996 302.058057 224.283471 299.611539 235.758282 294.858517 
C 247.233093 290.105495 257.660084 283.138402 266.442524 274.355962 
C 275.224964 265.573522 282.192057 255.14653 286.94508 243.671719 
C 291.698102 232.196908 294.14462 219.897433 294.14462 207.477188 
" clip-path="url(#p404dad7b38)" style="fill: none; stroke: #b0b0b0; stroke-width: 0.8; stroke-linecap: square"/>
     </g>
     <g id="text_12">
      <!-- −21 -->
      <g transform="translate(286.94508 169.202968)scale(0.1 -0.1)">
       <use xlink:href="#DejaVuSans-2212"/>
       <use xlink:href="#DejaVuSans-32" x="83.789062"/>
       <use xlink:href="#DejaVuSans-31" x="147.412109"/>
      </g>
     </g>
    </g>
    <g id="ytick_5">
     <g id="line2d_13">
      <path d="M 304.393067 207.477188 
C 304.393067 193.711128 301.681453 180.078926 296.41341 167.360745 
C 291.145367 154.642564 283.423345 143.085741 273.689271 133.351667 
C 263.955197 123.617593 252.398374 115.89557 239.680193 110.627527 
C 226.962012 105.359484 213.32981 102.647871 199.56375 102.647871 
C 185.79769 102.647871 172.165488 105.359484 159.447307 110.627527 
C 146.729126 115.89557 135.172303 123.617593 125.438229 133.351667 
C 115.704155 143.085741 107.982133 154.642564 102.71409 167.360745 
C 97.446047 180.078926 94.734433 193.711128 94.734433 207.477188 
C 94.734433 221.243247 97.446047 234.875449 102.71409 247.59363 
C 107.982133 260.311811 115.704155 271.868634 125.438229 281.602708 
C 135.172303 291.336782 146.729126 299.058805 159.447307 304.326848 
C 172.165488 309.594891 185.79769 312.306504 199.56375 312.306504 
C 213.32981 312.306504 226.962012 309.594891 239.680193 304.326848 
C 252.398374 299.058805 263.955197 291.336782 273.689271 281.602708 
C 283.423345 271.868634 291.145367 260.311811 296.41341 247.59363 
C 301.681453 234.875449 304.393067 221.243247 304.393067 207.477188 
" clip-path="url(#p404dad7b38)" style="fill: none; stroke: #b0b0b0; stroke-width: 0.8; stroke-linecap: square"/>
     </g>
     <g id="text_13">
      <!-- −18 -->
      <g transform="translate(296.41341 165.281057)scale(0.1 -0.1)">
       <use xlink:href="#DejaVuSans-2212"/>
       <use xlink:href="#DejaVuSans-31" x="83.789062"/>
       <use xlink:href="#DejaVuSans-38" x="147.412109"/>
      </g>
     </g>
    </g>
    <g id="ytick_6">
     <g id="line2d_14">
      <path d="M 314.641514 207.477188 
C 314.641514 192.365314 311.664804 177.400384 305.881741 163.438834 
C 300.098677 149.477283 291.621726 136.790628 280.936017 126.10492 
C 270.250309 115.419212 257.563654 106.94226 243.602104 101.159197 
C 229.640553 95.376133 214.675624 92.399424 199.56375 92.399424 
C 184.451876 92.399424 169.486947 95.376133 155.525396 101.159197 
C 141.563846 106.94226 128.877191 115.419212 118.191483 126.10492 
C 107.505774 136.790628 99.028823 149.477283 93.245759 163.438834 
C 87.462696 177.400384 84.485986 192.365314 84.485986 207.477188 
C 84.485986 222.589061 87.462696 237.553991 93.245759 251.515541 
C 99.028823 265.477092 107.505774 278.163747 118.191483 288.849455 
C 128.877191 299.535163 141.563846 308.012115 155.525396 313.795178 
C 169.486947 319.578242 184.451876 322.554951 199.56375 322.554951 
C 214.675624 322.554951 229.640553 319.578242 243.602104 313.795178 
C 257.563654 308.012115 270.250309 299.535163 280.936017 288.849455 
C 291.621726 278.163747 300.098677 265.477092 305.881741 251.515541 
C 311.664804 237.553991 314.641514 222.589061 314.641514 207.477188 
" clip-path="url(#p404dad7b38)" style="fill: none; stroke: #b0b0b0; stroke-width: 0.8; stroke-linecap: square"/>
     </g>
     <g id="text_14">
      <!-- −15 -->
      <g transform="translate(305.881741 161.359146)scale(0.1 -0.1)">
       <use xlink:href="#DejaVuSans-2212"/>
       <use xlink:href="#DejaVuSans-31" x="83.789062"/>
       <use xlink:href="#DejaVuSans-35" x="147.412109"/>
      </g>
     </g>
    </g>
    <g id="ytick_7">
     <g id="line2d_15">
      <path d="M 324.889961 207.477188 
C 324.889961 191.0195 321.648156 174.721843 315.350071 159.516923 
C 309.051987 144.312002 299.820106 130.495516 288.182764 118.858174 
C 276.545422 107.220831 262.728935 97.98895 247.524015 91.690866 
C 232.319094 85.392782 216.021437 82.150976 199.56375 82.150976 
C 183.106063 82.150976 166.808406 85.392782 151.603485 91.690866 
C 136.398565 97.98895 122.582078 107.220831 110.944736 118.858174 
C 99.307394 130.495516 90.075513 144.312002 83.777429 159.516923 
C 77.479344 174.721843 74.237539 191.0195 74.237539 207.477187 
C 74.237539 223.934875 77.479344 240.232532 83.777429 255.437452 
C 90.075513 270.642373 99.307394 284.458859 110.944736 296.096201 
C 122.582078 307.733544 136.398565 316.965425 151.603485 323.263509 
C 166.808406 329.561593 183.106063 332.803399 199.56375 332.803399 
C 216.021437 332.803399 232.319094 329.561593 247.524015 323.263509 
C 262.728935 316.965425 276.545422 307.733544 288.182764 296.096201 
C 299.820106 284.458859 309.051987 270.642373 315.350071 255.437452 
C 321.648156 240.232532 324.889961 223.934875 324.889961 207.477188 
" clip-path="url(#p404dad7b38)" style="fill: none; stroke: #b0b0b0; stroke-width: 0.8; stroke-linecap: square"/>
     </g>
     <g id="text_15">
      <!-- −12 -->
      <g transform="translate(315.350071 157.437235)scale(0.1 -0.1)">
       <use xlink:href="#DejaVuSans-2212"/>
       <use xlink:href="#DejaVuSans-31" x="83.789062"/>
       <use xlink:href="#DejaVuSans-32" x="147.412109"/>
      </g>
     </g>
    </g>
    <g id="ytick_8">
     <g id="line2d_16">
      <path d="M 335.138408 207.477188 
C 335.138408 189.673686 331.631507 172.043302 324.818402 155.595012 
C 318.005297 139.146722 308.018487 124.200403 295.42951 111.611427 
C 282.840534 99.022451 267.894216 89.03564 251.445926 82.222535 
C 234.997635 75.409431 217.367251 71.902529 199.56375 71.902529 
C 181.760249 71.902529 164.129865 75.409431 147.681574 82.222535 
C 131.233284 89.03564 116.286966 99.022451 103.69799 111.611427 
C 91.109013 124.200403 81.122203 139.146722 74.309098 155.595012 
C 67.495993 172.043302 63.989092 189.673686 63.989092 207.477187 
C 63.989092 225.280689 67.495993 242.911073 74.309098 259.359363 
C 81.122203 275.807653 91.109013 290.753972 103.69799 303.342948 
C 116.286966 315.931924 131.233284 325.918735 147.681574 332.73184 
C 164.129865 339.544944 181.760249 343.051846 199.56375 343.051846 
C 217.367251 343.051846 234.997635 339.544944 251.445926 332.73184 
C 267.894216 325.918735 282.840534 315.931924 295.42951 303.342948 
C 308.018487 290.753972 318.005297 275.807653 324.818402 259.359363 
C 331.631507 242.911073 335.138408 225.280689 335.138408 207.477188 
" clip-path="url(#p404dad7b38)" style="fill: none; stroke: #b0b0b0; stroke-width: 0.8; stroke-linecap: square"/>
     </g>
     <g id="text_16">
      <!-- −9 -->
      <g transform="translate(324.818402 153.515324)scale(0.1 -0.1)">
       <use xlink:href="#DejaVuSans-2212"/>
       <use xlink:href="#DejaVuSans-39" x="83.789062"/>
      </g>
     </g>
    </g>
    <g id="ytick_9">
     <g id="line2d_17">
      <path d="M 345.386856 207.477188 
C 345.386856 188.327873 341.614858 169.364761 334.286733 151.673101 
C 326.958607 133.981441 316.216867 117.905291 302.676257 104.364681 
C 289.135646 90.82407 273.059497 80.08233 255.367837 72.754205 
C 237.676177 65.426079 218.713065 61.654082 199.56375 61.654082 
C 180.414435 61.654082 161.451323 65.426079 143.759663 72.754205 
C 126.068003 80.08233 109.991854 90.82407 96.451243 104.364681 
C 82.910633 117.905291 72.168893 133.981441 64.840767 151.673101 
C 57.512642 169.364761 53.740644 188.327873 53.740644 207.477187 
C 53.740644 226.626502 57.512642 245.589614 64.840767 263.281274 
C 72.168893 280.972934 82.910633 297.049084 96.451243 310.589694 
C 109.991854 324.130305 126.068003 334.872045 143.759663 342.20017 
C 161.451323 349.528296 180.414435 353.300293 199.56375 353.300293 
C 218.713065 353.300293 237.676177 349.528296 255.367837 342.20017 
C 273.059497 334.872045 289.135646 324.130305 302.676257 310.589694 
C 316.216867 297.049084 326.958607 280.972934 334.286733 263.281274 
C 341.614858 245.589614 345.386856 226.626502 345.386856 207.477188 
" clip-path="url(#p404dad7b38)" style="fill: none; stroke: #b0b0b0; stroke-width: 0.8; stroke-linecap: square"/>
     </g>
     <g id="text_17">
      <!-- −6 -->
      <g transform="translate(334.286733 149.593413)scale(0.1 -0.1)">
       <defs>
        <path id="DejaVuSans-36" d="M 2113 2584 
Q 1688 2584 1439 2293 
Q 1191 2003 1191 1497 
Q 1191 994 1439 701 
Q 1688 409 2113 409 
Q 2538 409 2786 701 
Q 3034 994 3034 1497 
Q 3034 2003 2786 2293 
Q 2538 2584 2113 2584 
z
M 3366 4563 
L 3366 3988 
Q 3128 4100 2886 4159 
Q 2644 4219 2406 4219 
Q 1781 4219 1451 3797 
Q 1122 3375 1075 2522 
Q 1259 2794 1537 2939 
Q 1816 3084 2150 3084 
Q 2853 3084 3261 2657 
Q 3669 2231 3669 1497 
Q 3669 778 3244 343 
Q 2819 -91 2113 -91 
Q 1303 -91 875 529 
Q 447 1150 447 2328 
Q 447 3434 972 4092 
Q 1497 4750 2381 4750 
Q 2619 4750 2861 4703 
Q 3103 4656 3366 4563 
z
" transform="scale(0.015625)"/>
       </defs>
       <use xlink:href="#DejaVuSans-2212"/>
       <use xlink:href="#DejaVuSans-36" x="83.789062"/>
      </g>
     </g>
    </g>
    <g id="ytick_10">
     <g id="line2d_18">
      <path d="M 355.635303 207.477188 
C 355.635303 186.982059 351.598209 166.68622 343.755063 147.75119 
C 335.911917 128.81616 324.415248 111.610179 309.923003 97.117934 
C 295.430759 82.62569 278.224777 71.12902 259.289748 63.285874 
C 240.354718 55.442728 220.058879 51.405635 199.56375 51.405635 
C 179.068621 51.405635 158.772782 55.442728 139.837752 63.285874 
C 120.902723 71.12902 103.696741 82.62569 89.204497 97.117934 
C 74.712252 111.610179 63.215583 128.81616 55.372437 147.75119 
C 47.529291 166.68622 43.492197 186.982059 43.492197 207.477187 
C 43.492197 227.972316 47.529291 248.268155 55.372437 267.203185 
C 63.215583 286.138215 74.712252 303.344196 89.204497 317.836441 
C 103.696741 332.328685 120.902723 343.825355 139.837752 351.668501 
C 158.772782 359.511647 179.068621 363.54874 199.56375 363.54874 
C 220.058879 363.54874 240.354718 359.511647 259.289748 351.668501 
C 278.224777 343.825355 295.430759 332.328685 309.923003 317.836441 
C 324.415248 303.344196 335.911917 286.138215 343.755063 267.203185 
C 351.598209 248.268155 355.635303 227.972316 355.635303 207.477188 
" clip-path="url(#p404dad7b38)" style="fill: none; stroke: #b0b0b0; stroke-width: 0.8; stroke-linecap: square"/>
     </g>
     <g id="text_18">
      <!-- −3 -->
      <g transform="translate(343.755063 145.671502)scale(0.1 -0.1)">
       <use xlink:href="#DejaVuSans-2212"/>
       <use xlink:href="#DejaVuSans-33" x="83.789062"/>
      </g>
     </g>
    </g>
   </g>
   <g id="line2d_19">
    <path d="M 295.429092 207.477188 
L 296.104448 205.792063 
L 296.603172 204.088496 
L 295.980005 202.424226 
L 293.600705 200.901483 
L 290.9635 199.480746 
L 287.27669 198.258186 
L 282.548746 197.287911 
L 278.877272 196.330399 
L 278.14767 195.030717 
L 284.204523 191.024688 
L 285.708905 189.166469 
L 286.691013 187.362274 
L 282.996907 183.553115 
L 282.841085 182.016751 
L 288.403853 176.887087 
L 290.809771 174.266352 
L 293.134429 171.558769 
L 293.389688 169.569048 
L 292.930786 167.845232 
L 291.510228 166.539978 
L 286.528326 165.06173 
L 283.205853 164.859407 
L 280.877849 164.241714 
L 280.263281 162.744707 
L 279.02653 161.59933 
L 278.345517 160.140326 
L 277.4842 158.787086 
L 277.997784 156.54153 
L 278.697034 154.101113 
L 282.277547 147.382096 
L 286.714411 139.387629 
L 288.106596 135.776605 
L 288.710245 132.674396 
L 289.533663 129.267535 
L 289.282194 126.694338 
L 288.505763 124.537418 
L 287.609914 122.451995 
L 286.281701 120.759237 
L 283.370208 117.605765 
L 280.296989 114.60422 
L 278.874638 112.958152 
L 277.554801 111.166261 
L 276.408895 109.119888 
L 275.394013 106.84703 
L 274.080025 104.914334 
L 272.866534 102.789963 
L 271.824915 100.345605 
L 270.874489 97.668279 
L 270.274136 94.316915 
L 269.421531 91.214316 
L 268.437415 88.184501 
L 267.734517 84.493868 
L 266.557692 81.479908 
L 265.260461 78.540131 
L 264.058955 75.24242 
L 260.897034 69.720377 
L 259.424535 66.454014 
L 257.613276 63.799568 
L 253.947013 58.060399 
L 251.685836 56.103657 
L 249.500551 53.787518 
L 247.160265 51.796 
L 242.150768 48.540272 
L 239.551441 47.095319 
L 236.859266 45.932562 
L 234.122315 44.891923 
L 228.444915 43.683962 
L 225.546125 43.430927 
L 219.722733 43.295443 
L 213.87966 43.845588 
L 210.972863 44.319267 
L 205.196197 46.185005 
L 202.358522 47.364807 
L 199.56375 48.96992 
L 196.819774 50.274923 
L 194.128496 51.831874 
L 191.49822 53.577708 
L 188.88669 54.788113 
L 186.322373 56.127555 
L 183.766175 57.173302 
L 181.196208 57.885563 
L 178.621077 58.462325 
L 175.970693 58.516486 
L 173.270159 58.358821 
L 167.624614 57.215368 
L 164.754992 56.70389 
L 161.76117 55.85932 
L 152.807213 54.543446 
L 147.053509 54.976376 
L 144.216563 55.412042 
L 138.801234 57.084684 
L 136.207134 58.218355 
L 133.670216 59.477887 
L 131.208475 60.888827 
L 128.873217 62.540116 
L 126.667764 64.41076 
L 124.709659 66.697117 
L 121.133408 71.631851 
L 118.759225 78.162916 
L 117.8022 81.575441 
L 117.663281 86.054748 
L 117.269176 89.948356 
L 117.405172 94.395606 
L 119.152965 100.768471 
L 120.299935 106.024131 
L 122.980853 112.905185 
L 127.633142 121.753626 
L 132.45698 130.279679 
L 151.988137 156.458589 
L 139.215973 144.985235 
L 127.580851 135.494288 
L 118.211467 128.916201 
L 111.648585 125.494969 
L 105.143646 122.460944 
L 100.2195 121.118548 
L 96.327747 120.851895 
L 91.855567 120.256821 
L 88.320027 120.564066 
L 85.114966 121.233843 
L 81.637363 121.798652 
L 78.979125 123.042924 
L 76.408056 124.407623 
L 73.613298 125.684008 
L 71.396714 127.389535 
L 67.241953 131.081163 
L 63.733396 135.254907 
L 61.906175 137.33715 
L 58.718622 141.800026 
L 57.263044 144.120831 
L 56.100381 146.5806 
L 55.056272 149.092377 
L 54.263438 151.701623 
L 53.636373 154.363966 
L 53.164469 157.067873 
L 52.917806 159.829032 
L 52.856681 162.624335 
L 53.350652 165.551256 
L 55.04923 171.445671 
L 58.541173 177.501913 
L 60.326519 180.412211 
L 62.883016 183.376686 
L 65.557018 186.252606 
L 68.836863 189.104722 
L 73.611986 192.012255 
L 79.673703 194.876236 
L 87.700862 197.690453 
L 99.696002 200.493754 
L 122.149368 203.420072 
L 191.648575 207.200783 
L 120.425681 206.095827 
L 99.093439 207.477188 
L 90.129054 209.387377 
L 81.678029 211.593848 
L 70.109244 216.529528 
L 66.155522 219.148895 
L 59.106633 224.723153 
L 55.330149 230.321546 
L 53.547222 233.223841 
L 52.747869 236.015304 
L 51.704468 238.905648 
L 50.827552 241.815645 
L 49.740735 247.622143 
L 49.433062 250.526469 
L 49.665606 256.182047 
L 50.21545 258.901931 
L 51.763066 264.212554 
L 53.842572 269.332158 
L 55.206432 271.749207 
L 56.672112 274.108653 
L 58.249767 276.400622 
L 62.158897 280.536644 
L 64.440872 282.377022 
L 67.070362 283.972281 
L 69.506075 285.623723 
L 72.619272 286.800901 
L 78.962624 288.823674 
L 82.9108 289.158462 
L 90.721536 289.495679 
L 100.486473 287.708384 
L 105.206963 286.651932 
L 110.929344 284.525901 
L 114.8313 283.770628 
L 117.377446 284.117156 
L 117.213774 287.001635 
L 116.046446 290.994492 
L 114.483978 295.579871 
L 112.045908 301.328583 
L 110.403617 310.044188 
L 109.370188 314.965689 
L 109.651769 318.509238 
L 109.826042 322.336216 
L 110.277688 325.963793 
L 111.371246 328.863756 
L 112.388254 331.976698 
L 113.65741 334.838574 
L 115.284851 337.255311 
L 116.782396 339.955047 
L 118.559873 342.290278 
L 120.499713 344.420117 
L 122.401571 346.681443 
L 124.544469 348.567935 
L 129.139779 351.867725 
L 131.595394 353.235798 
L 134.162089 354.371722 
L 136.817136 355.298946 
L 139.525551 356.076944 
L 142.27013 356.732169 
L 147.956607 357.355213 
L 167.562822 358.029717 
L 172.918979 358.58719 
L 175.58806 358.853738 
L 180.830676 360.045834 
L 188.755387 362.043975 
L 191.419732 362.874302 
L 199.56375 364.867374 
L 207.879404 366.14931 
L 213.475035 366.483907 
L 219.079929 366.423713 
L 221.875679 366.234812 
L 224.648862 365.85835 
L 227.39375 365.308962 
L 232.774246 363.720288 
L 235.432224 362.840615 
L 240.55662 360.46466 
L 243.026402 359.049469 
L 247.639443 355.438957 
L 249.810685 353.404883 
L 253.573962 348.178601 
L 255.294438 345.415481 
L 256.636147 341.931329 
L 258.088909 338.926846 
L 259.32885 335.643857 
L 260.389979 332.189439 
L 261.604992 329.239981 
L 262.599551 326.030287 
L 264.712104 320.317447 
L 265.515559 317.23943 
L 266.577538 314.721666 
L 268.241217 309.29572 
L 269.443422 307.275702 
L 270.883349 305.640194 
L 272.645288 304.459664 
L 278.567218 301.629854 
L 280.615238 300.716259 
L 282.140992 299.188506 
L 283.302643 297.276156 
L 284.280445 295.203893 
L 285.129468 293.042905 
L 285.526062 290.490028 
L 286.394604 288.448269 
L 286.410932 285.674741 
L 286.258189 280.222459 
L 285.775641 277.2902 
L 285.723769 274.792772 
L 285.174848 271.989777 
L 284.206625 268.973836 
L 283.767085 266.436998 
L 282.330639 263.304159 
L 277.724656 256.317542 
L 272.662857 249.680976 
L 272.751873 248.046026 
L 272.477507 246.24612 
L 273.556972 245.178617 
L 278.992669 242.841221 
L 281.333568 242.186416 
L 288.972458 241.797975 
L 297.141091 241.07576 
L 301.026535 240.444445 
L 303.000999 239.101128 
L 304.496032 237.566035 
L 304.622403 235.627569 
L 304.292227 233.58893 
L 303.270737 231.419832 
L 302.536689 229.364761 
L 302.2122 227.430025 
L 302.050246 225.548322 
L 303.196918 223.891069 
L 304.805206 220.399213 
L 304.491493 218.505538 
L 303.116147 216.536848 
L 300.436807 214.530919 
L 298.617069 212.668352 
L 296.128616 210.849307 
L 294.97729 209.142637 
L 294.97729 209.142637 
" clip-path="url(#p404dad7b38)" style="fill: none; stroke: #ff0000; stroke-width: 1.5; stroke-linecap: square"/>
   </g>
   <g id="line2d_20">
    <path d="M 328.087477 207.477188 
L 327.519021 200.771336 
L 326.744692 194.109932 
L 325.718973 187.496163 
L 324.854254 183.123181 
L 323.824801 178.789263 
L 322.602722 174.508994 
L 321.168116 170.299002 
L 319.496145 166.181152 
L 317.57684 162.176207 
L 315.398823 158.308116 
L 312.962106 154.598666 
L 310.268378 151.070362 
L 307.347971 147.731418 
L 304.23969 144.581538 
L 299.408298 140.13119 
L 296.261984 137.221808 
L 293.374326 134.184333 
L 292.080901 132.558276 
L 290.91631 130.823288 
L 289.899768 128.949285 
L 288.992783 126.954925 
L 288.215947 124.807676 
L 287.546022 122.513695 
L 286.416196 117.538847 
L 284.223749 106.58333 
L 282.813112 100.922863 
L 281.061709 95.304871 
L 278.929269 89.812966 
L 276.405565 84.504577 
L 274.998978 81.931886 
L 271.903127 76.973497 
L 270.220737 74.590723 
L 266.59549 70.041752 
L 262.648325 65.786911 
L 258.40401 61.842433 
L 253.888594 58.220906 
L 249.128963 54.931148 
L 244.150695 51.984033 
L 238.98037 49.38576 
L 233.645022 47.13741 
L 228.16848 45.251703 
L 222.578373 43.719632 
L 216.898218 42.550742 
L 211.153255 41.739542 
L 205.3674 41.282404 
L 199.56375 41.170852 
L 193.764035 41.395068 
L 187.988781 41.947419 
L 182.256063 42.805549 
L 176.581932 43.953053 
L 170.979782 45.369451 
L 165.457619 47.020458 
L 160.022337 48.885244 
L 154.674546 50.929929 
L 149.411597 53.124732 
L 141.659235 56.63077 
L 134.0551 60.34235 
L 126.571609 64.222044 
L 119.201576 68.285819 
L 111.961876 72.582132 
L 107.225176 75.604037 
L 102.584548 78.78144 
L 98.057615 82.12755 
L 93.66861 85.658764 
L 89.437451 89.38119 
L 85.390292 93.30373 
L 81.547702 97.425442 
L 77.928379 101.741173 
L 74.556588 106.248384 
L 71.45185 110.937946 
L 68.630843 115.796979 
L 66.115531 120.814901 
L 63.921976 125.975387 
L 62.066742 131.261351 
L 60.573595 136.658166 
L 59.462147 142.146737 
L 58.756295 147.707969 
L 58.563532 150.509402 
L 58.482816 153.321291 
L 58.518981 156.14109 
L 58.674905 158.965268 
L 58.957605 161.791482 
L 59.370839 164.615913 
L 59.924846 167.436376 
L 60.626599 170.24909 
L 61.483014 173.049793 
L 62.507586 175.835279 
L 63.713812 178.601392 
L 65.115152 181.343028 
L 66.731718 184.055316 
L 68.586951 186.732501 
L 70.710992 189.368113 
L 73.144071 191.954803 
L 75.936525 194.483443 
L 79.158956 196.943133 
L 82.919267 199.320611 
L 87.331932 201.595367 
L 92.606461 203.742157 
L 99.149729 205.724454 
L 107.53816 207.477188 
L 119.028689 208.882932 
L 135.794421 209.704062 
L 148.328969 210.162289 
L 131.105948 212.264223 
L 116.055904 214.783177 
L 105.73203 217.339299 
L 98.119862 219.932931 
L 92.195811 222.566767 
L 87.414377 225.239903 
L 83.43522 227.953781 
L 80.101429 230.69831 
L 77.270269 233.471469 
L 74.853339 236.268855 
L 72.786055 239.086417 
L 71.017501 241.921051 
L 69.516864 244.767532 
L 68.250218 247.623763 
L 67.196945 250.48577 
L 66.336542 253.350994 
L 65.6551 256.21595 
L 65.141969 259.076875 
L 64.783352 261.932003 
L 64.56874 264.779169 
L 64.493955 267.614135 
L 64.548546 270.435811 
L 64.731412 273.239313 
L 65.035213 276.022901 
L 65.451167 278.786113 
L 66.615349 284.234983 
L 68.194305 289.565927 
L 70.162391 294.759506 
L 72.497456 299.796254 
L 75.178945 304.657248 
L 78.187243 309.324169 
L 81.505871 313.77698 
L 85.115581 317.998499 
L 88.999723 321.969589 
L 93.138236 325.674695 
L 97.516945 329.091834 
L 102.109433 332.213025 
L 106.901522 335.015802 
L 111.868236 337.491134 
L 116.986415 339.628549 
L 122.230778 341.421824 
L 127.573216 342.871689 
L 132.982919 343.988121 
L 138.427771 344.790843 
L 143.871453 345.320459 
L 149.279205 345.632839 
L 167.495342 346.380721 
L 172.459012 346.918975 
L 177.352126 347.715865 
L 182.218283 348.744678 
L 202.109787 353.339565 
L 207.248999 354.120476 
L 212.436529 354.613721 
L 217.650273 354.780099 
L 222.866092 354.602384 
L 228.058194 354.068391 
L 233.201366 353.177709 
L 238.271055 351.934815 
L 243.244028 350.34894 
L 248.099026 348.433863 
L 252.818607 346.210834 
L 257.386302 343.698584 
L 261.791848 340.925774 
L 266.025055 337.914842 
L 270.086295 334.703227 
L 273.97498 331.31827 
L 277.699053 327.795003 
L 281.270497 324.166516 
L 286.373815 318.589004 
L 291.22954 312.926616 
L 297.403041 305.316478 
L 301.838572 299.565851 
L 306.090526 293.74087 
L 310.116525 287.79848 
L 312.645608 283.751864 
L 315.024287 279.624938 
L 317.238152 275.416535 
L 319.269068 271.125634 
L 321.107334 266.757954 
L 322.740148 262.318853 
L 324.160962 257.817729 
L 325.376452 253.269266 
L 326.381347 248.682723 
L 327.183898 244.071676 
L 327.796587 239.449225 
L 328.232809 234.82664 
L 328.593698 227.913524 
L 328.650654 221.044768 
L 328.47082 214.232921 
L 328.235268 209.723157 
L 328.235268 209.723157 
" clip-path="url(#p404dad7b38)" style="fill: none; stroke-dasharray: 5.55,2.4; stroke-dashoffset: 0; stroke: #0000ff; stroke-width: 1.5"/>
   </g>
   <g id="patch_3">
    <path d="M 365.88375 207.477188 
C 365.88375 185.636245 361.581561 164.007679 353.223394 143.829279 
C 344.865227 123.650879 332.613628 105.315066 317.16975 89.871188 
C 301.725871 74.427309 283.390058 62.17571 263.211658 53.817544 
C 243.033259 45.459377 221.404692 41.157187 199.56375 41.157187 
C 177.722808 41.157187 156.094241 45.459377 135.915842 53.817544 
C 115.737442 62.17571 97.401629 74.427309 81.95775 89.871188 
C 66.513872 105.315066 54.262273 123.650879 45.904106 143.829279 
C 37.545939 164.007679 33.24375 185.636245 33.24375 207.477187 
C 33.24375 229.31813 37.545939 250.946696 45.904106 271.125096 
C 54.262273 291.303496 66.513872 309.639309 81.95775 325.083187 
C 97.401629 340.527066 115.737442 352.778665 135.915842 361.136831 
C 156.094241 369.494998 177.722808 373.797188 199.56375 373.797188 
C 221.404692 373.797188 243.033259 369.494998 263.211658 361.136831 
C 283.390058 352.778665 301.725871 340.527066 317.16975 325.083187 
C 332.613628 309.639309 344.865227 291.303496 353.223394 271.125096 
C 361.581561 250.946696 365.88375 229.31813 365.88375 207.477188 
" style="fill: none; stroke: #000000; stroke-width: 0.8; stroke-linejoin: miter; stroke-linecap: square"/>
   </g>
   <g id="text_19">
    <!-- Radiation Diagram - 3AVVF09 -->
    <g transform="translate(110.727187 16.318125)scale(0.12 -0.12)">
     <defs>
      <path id="DejaVuSans-52" d="M 2841 2188 
Q 3044 2119 3236 1894 
Q 3428 1669 3622 1275 
L 4263 0 
L 3584 0 
L 2988 1197 
Q 2756 1666 2539 1819 
Q 2322 1972 1947 1972 
L 1259 1972 
L 1259 0 
L 628 0 
L 628 4666 
L 2053 4666 
Q 2853 4666 3247 4331 
Q 3641 3997 3641 3322 
Q 3641 2881 3436 2590 
Q 3231 2300 2841 2188 
z
M 1259 4147 
L 1259 2491 
L 2053 2491 
Q 2509 2491 2742 2702 
Q 2975 2913 2975 3322 
Q 2975 3731 2742 3939 
Q 2509 4147 2053 4147 
L 1259 4147 
z
" transform="scale(0.015625)"/>
      <path id="DejaVuSans-61" d="M 2194 1759 
Q 1497 1759 1228 1600 
Q 959 1441 959 1056 
Q 959 750 1161 570 
Q 1363 391 1709 391 
Q 2188 391 2477 730 
Q 2766 1069 2766 1631 
L 2766 1759 
L 2194 1759 
z
M 3341 1997 
L 3341 0 
L 2766 0 
L 2766 531 
Q 2569 213 2275 61 
Q 1981 -91 1556 -91 
Q 1019 -91 701 211 
Q 384 513 384 1019 
Q 384 1609 779 1909 
Q 1175 2209 1959 2209 
L 2766 2209 
L 2766 2266 
Q 2766 2663 2505 2880 
Q 2244 3097 1772 3097 
Q 1472 3097 1187 3025 
Q 903 2953 641 2809 
L 641 3341 
Q 956 3463 1253 3523 
Q 1550 3584 1831 3584 
Q 2591 3584 2966 3190 
Q 3341 2797 3341 1997 
z
" transform="scale(0.015625)"/>
      <path id="DejaVuSans-64" d="M 2906 2969 
L 2906 4863 
L 3481 4863 
L 3481 0 
L 2906 0 
L 2906 525 
Q 2725 213 2448 61 
Q 2172 -91 1784 -91 
Q 1150 -91 751 415 
Q 353 922 353 1747 
Q 353 2572 751 3078 
Q 1150 3584 1784 3584 
Q 2172 3584 2448 3432 
Q 2725 3281 2906 2969 
z
M 947 1747 
Q 947 1113 1208 752 
Q 1469 391 1925 391 
Q 2381 391 2643 752 
Q 2906 1113 2906 1747 
Q 2906 2381 2643 2742 
Q 2381 3103 1925 3103 
Q 1469 3103 1208 2742 
Q 947 2381 947 1747 
z
" transform="scale(0.015625)"/>
      <path id="DejaVuSans-69" d="M 603 3500 
L 1178 3500 
L 1178 0 
L 603 0 
L 603 3500 
z
M 603 4863 
L 1178 4863 
L 1178 4134 
L 603 4134 
L 603 4863 
z
" transform="scale(0.015625)"/>
      <path id="DejaVuSans-74" d="M 1172 4494 
L 1172 3500 
L 2356 3500 
L 2356 3053 
L 1172 3053 
L 1172 1153 
Q 1172 725 1289 603 
Q 1406 481 1766 481 
L 2356 481 
L 2356 0 
L 1766 0 
Q 1100 0 847 248 
Q 594 497 594 1153 
L 594 3053 
L 172 3053 
L 172 3500 
L 594 3500 
L 594 4494 
L 1172 4494 
z
" transform="scale(0.015625)"/>
      <path id="DejaVuSans-6f" d="M 1959 3097 
Q 1497 3097 1228 2736 
Q 959 2375 959 1747 
Q 959 1119 1226 758 
Q 1494 397 1959 397 
Q 2419 397 2687 759 
Q 2956 1122 2956 1747 
Q 2956 2369 2687 2733 
Q 2419 3097 1959 3097 
z
M 1959 3584 
Q 2709 3584 3137 3096 
Q 3566 2609 3566 1747 
Q 3566 888 3137 398 
Q 2709 -91 1959 -91 
Q 1206 -91 779 398 
Q 353 888 353 1747 
Q 353 2609 779 3096 
Q 1206 3584 1959 3584 
z
" transform="scale(0.015625)"/>
      <path id="DejaVuSans-6e" d="M 3513 2113 
L 3513 0 
L 2938 0 
L 2938 2094 
Q 2938 2591 2744 2837 
Q 2550 3084 2163 3084 
Q 1697 3084 1428 2787 
Q 1159 2491 1159 1978 
L 1159 0 
L 581 0 
L 581 3500 
L 1159 3500 
L 1159 2956 
Q 1366 3272 1645 3428 
Q 1925 3584 2291 3584 
Q 2894 3584 3203 3211 
Q 3513 2838 3513 2113 
z
" transform="scale(0.015625)"/>
      <path id="DejaVuSans-20" transform="scale(0.015625)"/>
      <path id="DejaVuSans-44" d="M 1259 4147 
L 1259 519 
L 2022 519 
Q 2988 519 3436 956 
Q 3884 1394 3884 2338 
Q 3884 3275 3436 3711 
Q 2988 4147 2022 4147 
L 1259 4147 
z
M 628 4666 
L 1925 4666 
Q 3281 4666 3915 4102 
Q 4550 3538 4550 2338 
Q 4550 1131 3912 565 
Q 3275 0 1925 0 
L 628 0 
L 628 4666 
z
" transform="scale(0.015625)"/>
      <path id="DejaVuSans-67" d="M 2906 1791 
Q 2906 2416 2648 2759 
Q 2391 3103 1925 3103 
Q 1463 3103 1205 2759 
Q 947 2416 947 1791 
Q 947 1169 1205 825 
Q 1463 481 1925 481 
Q 2391 481 2648 825 
Q 2906 1169 2906 1791 
z
M 3481 434 
Q 3481 -459 3084 -895 
Q 2688 -1331 1869 -1331 
Q 1566 -1331 1297 -1286 
Q 1028 -1241 775 -1147 
L 775 -588 
Q 1028 -725 1275 -790 
Q 1522 -856 1778 -856 
Q 2344 -856 2625 -561 
Q 2906 -266 2906 331 
L 2906 616 
Q 2728 306 2450 153 
Q 2172 0 1784 0 
Q 1141 0 747 490 
Q 353 981 353 1791 
Q 353 2603 747 3093 
Q 1141 3584 1784 3584 
Q 2172 3584 2450 3431 
Q 2728 3278 2906 2969 
L 2906 3500 
L 3481 3500 
L 3481 434 
z
" transform="scale(0.015625)"/>
      <path id="DejaVuSans-72" d="M 2631 2963 
Q 2534 3019 2420 3045 
Q 2306 3072 2169 3072 
Q 1681 3072 1420 2755 
Q 1159 2438 1159 1844 
L 1159 0 
L 581 0 
L 581 3500 
L 1159 3500 
L 1159 2956 
Q 1341 3275 1631 3429 
Q 1922 3584 2338 3584 
Q 2397 3584 2469 3576 
Q 2541 3569 2628 3553 
L 2631 2963 
z
" transform="scale(0.015625)"/>
      <path id="DejaVuSans-6d" d="M 3328 2828 
Q 3544 3216 3844 3400 
Q 4144 3584 4550 3584 
Q 5097 3584 5394 3201 
Q 5691 2819 5691 2113 
L 5691 0 
L 5113 0 
L 5113 2094 
Q 5113 2597 4934 2840 
Q 4756 3084 4391 3084 
Q 3944 3084 3684 2787 
Q 3425 2491 3425 1978 
L 3425 0 
L 2847 0 
L 2847 2094 
Q 2847 2600 2669 2842 
Q 2491 3084 2119 3084 
Q 1678 3084 1418 2786 
Q 1159 2488 1159 1978 
L 1159 0 
L 581 0 
L 581 3500 
L 1159 3500 
L 1159 2956 
Q 1356 3278 1631 3431 
Q 1906 3584 2284 3584 
Q 2666 3584 2933 3390 
Q 3200 3197 3328 2828 
z
" transform="scale(0.015625)"/>
      <path id="DejaVuSans-2d" d="M 313 2009 
L 1997 2009 
L 1997 1497 
L 313 1497 
L 313 2009 
z
" transform="scale(0.015625)"/>
      <path id="DejaVuSans-41" d="M 2188 4044 
L 1331 1722 
L 3047 1722 
L 2188 4044 
z
M 1831 4666 
L 2547 4666 
L 4325 0 
L 3669 0 
L 3244 1197 
L 1141 1197 
L 716 0 
L 50 0 
L 1831 4666 
z
" transform="scale(0.015625)"/>
      <path id="DejaVuSans-56" d="M 1831 0 
L 50 4666 
L 709 4666 
L 2188 738 
L 3669 4666 
L 4325 4666 
L 2547 0 
L 1831 0 
z
" transform="scale(0.015625)"/>
      <path id="DejaVuSans-46" d="M 628 4666 
L 3309 4666 
L 3309 4134 
L 1259 4134 
L 1259 2759 
L 3109 2759 
L 3109 2228 
L 1259 2228 
L 1259 0 
L 628 0 
L 628 4666 
z
" transform="scale(0.015625)"/>
     </defs>
     <use xlink:href="#DejaVuSans-52"/>
     <use xlink:href="#DejaVuSans-61" x="67.232422"/>
     <use xlink:href="#DejaVuSans-64" x="128.511719"/>
     <use xlink:href="#DejaVuSans-69" x="191.988281"/>
     <use xlink:href="#DejaVuSans-61" x="219.771484"/>
     <use xlink:href="#DejaVuSans-74" x="281.050781"/>
     <use xlink:href="#DejaVuSans-69" x="320.259766"/>
     <use xlink:href="#DejaVuSans-6f" x="348.042969"/>
     <use xlink:href="#DejaVuSans-6e" x="409.224609"/>
     <use xlink:href="#DejaVuSans-20" x="472.603516"/>
     <use xlink:href="#DejaVuSans-44" x="504.390625"/>
     <use xlink:href="#DejaVuSans-69" x="581.392578"/>
     <use xlink:href="#DejaVuSans-61" x="609.175781"/>
     <use xlink:href="#DejaVuSans-67" x="670.455078"/>
     <use xlink:href="#DejaVuSans-72" x="733.931641"/>
     <use xlink:href="#DejaVuSans-61" x="775.044922"/>
     <use xlink:href="#DejaVuSans-6d" x="836.324219"/>
     <use xlink:href="#DejaVuSans-20" x="933.736328"/>
     <use xlink:href="#DejaVuSans-2d" x="965.523438"/>
     <use xlink:href="#DejaVuSans-20" x="1001.607422"/>
     <use xlink:href="#DejaVuSans-33" x="1033.394531"/>
     <use xlink:href="#DejaVuSans-41" x="1097.017578"/>
     <use xlink:href="#DejaVuSans-56" x="1159.050781"/>
     <use xlink:href="#DejaVuSans-56" x="1227.458984"/>
     <use xlink:href="#DejaVuSans-46" x="1295.867188"/>
     <use xlink:href="#DejaVuSans-30" x="1353.386719"/>
     <use xlink:href="#DejaVuSans-39" x="1417.009766"/>
    </g>
   </g>
   <g id="legend_1">
    <g id="patch_4">
     <path d="M 304.104062 78.513438 
L 358.88375 78.513438 
Q 360.88375 78.513438 360.88375 76.513438 
L 360.88375 48.157188 
Q 360.88375 46.157188 358.88375 46.157188 
L 304.104062 46.157188 
Q 302.104062 46.157188 302.104062 48.157188 
L 302.104062 76.513438 
Q 302.104062 78.513438 304.104062 78.513438 
z
" style="fill: #ffffff; opacity: 0.8; stroke: #cccccc; stroke-linejoin: miter"/>
    </g>
    <g id="line2d_21">
     <path d="M 306.104062 54.255625 
L 316.104062 54.255625 
L 326.104062 54.255625 
" style="fill: none; stroke: #ff0000; stroke-width: 1.5; stroke-linecap: square"/>
    </g>
    <g id="text_20">
     <!-- INPE -->
     <g transform="translate(334.104062 57.755625)scale(0.1 -0.1)">
      <defs>
       <path id="DejaVuSans-49" d="M 628 4666 
L 1259 4666 
L 1259 0 
L 628 0 
L 628 4666 
z
" transform="scale(0.015625)"/>
       <path id="DejaVuSans-4e" d="M 628 4666 
L 1478 4666 
L 3547 763 
L 3547 4666 
L 4159 4666 
L 4159 0 
L 3309 0 
L 1241 3903 
L 1241 0 
L 628 0 
L 628 4666 
z
" transform="scale(0.015625)"/>
       <path id="DejaVuSans-50" d="M 1259 4147 
L 1259 2394 
L 2053 2394 
Q 2494 2394 2734 2622 
Q 2975 2850 2975 3272 
Q 2975 3691 2734 3919 
Q 2494 4147 2053 4147 
L 1259 4147 
z
M 628 4666 
L 2053 4666 
Q 2838 4666 3239 4311 
Q 3641 3956 3641 3272 
Q 3641 2581 3239 2228 
Q 2838 1875 2053 1875 
L 1259 1875 
L 1259 0 
L 628 0 
L 628 4666 
z
" transform="scale(0.015625)"/>
       <path id="DejaVuSans-45" d="M 628 4666 
L 3578 4666 
L 3578 4134 
L 1259 4134 
L 1259 2753 
L 3481 2753 
L 3481 2222 
L 1259 2222 
L 1259 531 
L 3634 531 
L 3634 0 
L 628 0 
L 628 4666 
z
" transform="scale(0.015625)"/>
      </defs>
      <use xlink:href="#DejaVuSans-49"/>
      <use xlink:href="#DejaVuSans-4e" x="29.492188"/>
      <use xlink:href="#DejaVuSans-50" x="104.296875"/>
      <use xlink:href="#DejaVuSans-45" x="164.599609"/>
     </g>
    </g>
    <g id="line2d_22">
     <path d="M 306.104062 68.93375 
L 316.104062 68.93375 
L 326.104062 68.93375 
" style="fill: none; stroke-dasharray: 5.55,2.4; stroke-dashoffset: 0; stroke: #0000ff; stroke-width: 1.5"/>
    </g>
    <g id="text_21">
     <!-- CST -->
     <g transform="translate(334.104062 72.43375)scale(0.1 -0.1)">
      <defs>
       <path id="DejaVuSans-43" d="M 4122 4306 
L 4122 3641 
Q 3803 3938 3442 4084 
Q 3081 4231 2675 4231 
Q 1875 4231 1450 3742 
Q 1025 3253 1025 2328 
Q 1025 1406 1450 917 
Q 1875 428 2675 428 
Q 3081 428 3442 575 
Q 3803 722 4122 1019 
L 4122 359 
Q 3791 134 3420 21 
Q 3050 -91 2638 -91 
Q 1578 -91 968 557 
Q 359 1206 359 2328 
Q 359 3453 968 4101 
Q 1578 4750 2638 4750 
Q 3056 4750 3426 4639 
Q 3797 4528 4122 4306 
z
" transform="scale(0.015625)"/>
       <path id="DejaVuSans-53" d="M 3425 4513 
L 3425 3897 
Q 3066 4069 2747 4153 
Q 2428 4238 2131 4238 
Q 1616 4238 1336 4038 
Q 1056 3838 1056 3469 
Q 1056 3159 1242 3001 
Q 1428 2844 1947 2747 
L 2328 2669 
Q 3034 2534 3370 2195 
Q 3706 1856 3706 1288 
Q 3706 609 3251 259 
Q 2797 -91 1919 -91 
Q 1588 -91 1214 -16 
Q 841 59 441 206 
L 441 856 
Q 825 641 1194 531 
Q 1563 422 1919 422 
Q 2459 422 2753 634 
Q 3047 847 3047 1241 
Q 3047 1584 2836 1778 
Q 2625 1972 2144 2069 
L 1759 2144 
Q 1053 2284 737 2584 
Q 422 2884 422 3419 
Q 422 4038 858 4394 
Q 1294 4750 2059 4750 
Q 2388 4750 2728 4690 
Q 3069 4631 3425 4513 
z
" transform="scale(0.015625)"/>
       <path id="DejaVuSans-54" d="M -19 4666 
L 3928 4666 
L 3928 4134 
L 2272 4134 
L 2272 0 
L 1638 0 
L 1638 4134 
L -19 4134 
L -19 4666 
z
" transform="scale(0.015625)"/>
      </defs>
      <use xlink:href="#DejaVuSans-43"/>
      <use xlink:href="#DejaVuSans-53" x="69.824219"/>
      <use xlink:href="#DejaVuSans-54" x="133.300781"/>
     </g>
    </g>
   </g>
  </g>
 </g>
 <defs>
  <clipPath id="p404dad7b38">
   <path d="M 365.88375 207.477188 
C 365.88375 185.636245 361.581561 164.007679 353.223394 143.829279 
C 344.865227 123.650879 332.613628 105.315066 317.16975 89.871188 
C 301.725871 74.427309 283.390058 62.17571 263.211658 53.817544 
C 243.033259 45.459377 221.404692 41.157188 199.56375 41.157188 
C 177.722808 41.157188 156.094241 45.459377 135.915842 53.817544 
C 115.737442 62.17571 97.401629 74.427309 81.95775 89.871188 
C 66.513872 105.315066 54.262273 123.650879 45.904106 143.829279 
C 37.545939 164.007679 33.24375 185.636245 33.24375 207.477188 
C 33.24375 229.31813 37.545939 250.946696 45.904106 271.125096 
C 54.262273 291.303496 66.513872 309.639309 81.95775 325.083187 
C 97.401629 340.527066 115.737442 352.778665 135.915842 361.136831 
C 156.094241 369.494998 177.722808 373.797188 199.56375 373.797188 
C 221.404692 373.797188 243.033259 369.494998 263.211658 361.136831 
C 283.390058 352.778665 301.725871 340.527066 317.16975 325.083187 
C 332.613628 309.639309 344.865227 291.303496 353.223394 271.125096 
C 361.581561 250.946696 365.88375 229.31813 365.88375 207.477188 
M 199.56375 207.477188 
C 199.56375 207.477188 199.56375 207.477188 199.56375 207.477188 
C 199.56375 207.477188 199.56375 207.477188 199.56375 207.477188 
C 199.56375 207.477188 199.56375 207.477188 199.56375 207.477188 
C 199.56375 207.477188 199.56375 207.477188 199.56375 207.477188 
C 199.56375 207.477188 199.56375 207.477188 199.56375 207.477188 
C 199.56375 207.477188 199.56375 207.477188 199.56375 207.477188 
C 199.56375 207.477188 199.56375 207.477188 199.56375 207.477188 
C 199.56375 207.477188 199.56375 207.477188 199.56375 207.477188 
C 199.56375 207.477188 199.56375 207.477188 199.56375 207.477188 
C 199.56375 207.477188 199.56375 207.477188 199.56375 207.477188 
C 199.56375 207.477188 199.56375 207.477188 199.56375 207.477188 
C 199.56375 207.477188 199.56375 207.477188 199.56375 207.477188 
C 199.56375 207.477188 199.56375 207.477188 199.56375 207.477188 
C 199.56375 207.477188 199.56375 207.477188 199.56375 207.477188 
C 199.56375 207.477188 199.56375 207.477188 199.56375 207.477188 
C 199.56375 207.477188 199.56375 207.477188 199.56375 207.477188 
M 365.88375 207.477188 
z
"/>
  </clipPath>
 </defs>
</svg>
