<?xml version="1.0" encoding="utf-8" standalone="no"?>
<!DOCTYPE svg PUBLIC "-//W3C//DTD SVG 1.1//EN"
  "http://www.w3.org/Graphics/SVG/1.1/DTD/svg11.dtd">
<svg xmlns:xlink="http://www.w3.org/1999/xlink" width="392.765pt" height="399.83625pt" viewBox="0 0 392.765 399.83625" xmlns="http://www.w3.org/2000/svg" version="1.1">
 <metadata>
  <rdf:RDF xmlns:dc="http://purl.org/dc/elements/1.1/" xmlns:cc="http://creativecommons.org/ns#" xmlns:rdf="http://www.w3.org/1999/02/22-rdf-syntax-ns#">
   <cc:Work>
    <dc:type rdf:resource="http://purl.org/dc/dcmitype/StillImage"/>
    <dc:date>2023-11-03T15:34:34.284656</dc:date>
    <dc:format>image/svg+xml</dc:format>
    <dc:creator>
     <cc:Agent>
      <dc:title>Matplotlib v3.5.1, https://matplotlib.org/</dc:title>
     </cc:Agent>
    </dc:creator>
   </cc:Work>
  </rdf:RDF>
 </metadata>
 <defs>
  <style type="text/css">*{stroke-linejoin: round; stroke-linecap: butt}</style>
 </defs>
 <g id="figure_1">
  <g id="patch_1">
   <path d="M 0 399.83625 
L 392.765 399.83625 
L 392.765 0 
L 0 0 
z
" style="fill: #ffffff"/>
  </g>
  <g id="axes_1">
   <g id="patch_2">
    <path d="M 365.88375 207.477187 
C 365.88375 185.636245 361.581561 164.007679 353.223394 143.829279 
C 344.865227 123.650879 332.613628 105.315066 317.16975 89.871188 
C 301.725871 74.427309 283.390058 62.17571 263.211658 53.817544 
C 243.033259 45.459377 221.404692 41.157187 199.56375 41.157187 
C 177.722808 41.157187 156.094241 45.459377 135.915842 53.817544 
C 115.737442 62.17571 97.401629 74.427309 81.95775 89.871188 
C 66.513872 105.315066 54.262273 123.650879 45.904106 143.829279 
C 37.545939 164.007679 33.24375 185.636245 33.24375 207.477187 
C 33.24375 229.31813 37.545939 250.946696 45.904106 271.125096 
C 54.262273 291.303496 66.513872 309.639309 81.95775 325.083187 
C 97.401629 340.527066 115.737442 352.778665 135.915842 361.136831 
C 156.094241 369.494998 177.722808 373.797187 199.56375 373.797187 
C 221.404692 373.797187 243.033259 369.494998 263.211658 361.136831 
C 283.390058 352.778665 301.725871 340.527066 317.16975 325.083187 
C 332.613628 309.639309 344.865227 291.303496 353.223394 271.125096 
C 361.581561 250.946696 365.88375 229.31813 365.88375 207.477187 
M 199.56375 207.477187 
C 199.56375 207.477187 199.56375 207.477187 199.56375 207.477187 
C 199.56375 207.477187 199.56375 207.477187 199.56375 207.477187 
C 199.56375 207.477187 199.56375 207.477187 199.56375 207.477187 
C 199.56375 207.477187 199.56375 207.477187 199.56375 207.477187 
C 199.56375 207.477187 199.56375 207.477187 199.56375 207.477187 
C 199.56375 207.477187 199.56375 207.477187 199.56375 207.477187 
C 199.56375 207.477187 199.56375 207.477187 199.56375 207.477187 
C 199.56375 207.477187 199.56375 207.477187 199.56375 207.477187 
C 199.56375 207.477187 199.56375 207.477187 199.56375 207.477187 
C 199.56375 207.477187 199.56375 207.477187 199.56375 207.477187 
C 199.56375 207.477187 199.56375 207.477187 199.56375 207.477187 
C 199.56375 207.477187 199.56375 207.477187 199.56375 207.477187 
C 199.56375 207.477187 199.56375 207.477187 199.56375 207.477187 
C 199.56375 207.477187 199.56375 207.477187 199.56375 207.477187 
C 199.56375 207.477187 199.56375 207.477187 199.56375 207.477187 
C 199.56375 207.477187 199.56375 207.477187 199.56375 207.477187 
M 365.88375 207.477187 
z
" style="fill: #ffffff"/>
   </g>
   <g id="matplotlib.axis_1">
    <g id="xtick_1">
     <g id="line2d_1">
      <path d="M 199.56375 207.477187 
L 365.88375 207.477187 
" clip-path="url(#pb08285ac71)" style="fill: none; stroke: #b0b0b0; stroke-width: 0.8; stroke-linecap: square"/>
     </g>
     <g id="text_1">
      <!-- 0° -->
      <g transform="translate(374.2025 210.236562)scale(0.1 -0.1)">
       <defs>
        <path id="DejaVuSans-30" d="M 2034 4250 
Q 1547 4250 1301 3770 
Q 1056 3291 1056 2328 
Q 1056 1369 1301 889 
Q 1547 409 2034 409 
Q 2525 409 2770 889 
Q 3016 1369 3016 2328 
Q 3016 3291 2770 3770 
Q 2525 4250 2034 4250 
z
M 2034 4750 
Q 2819 4750 3233 4129 
Q 3647 3509 3647 2328 
Q 3647 1150 3233 529 
Q 2819 -91 2034 -91 
Q 1250 -91 836 529 
Q 422 1150 422 2328 
Q 422 3509 836 4129 
Q 1250 4750 2034 4750 
z
" transform="scale(0.015625)"/>
        <path id="DejaVuSans-b0" d="M 1600 4347 
Q 1350 4347 1178 4173 
Q 1006 4000 1006 3750 
Q 1006 3503 1178 3333 
Q 1350 3163 1600 3163 
Q 1850 3163 2022 3333 
Q 2194 3503 2194 3750 
Q 2194 3997 2020 4172 
Q 1847 4347 1600 4347 
z
M 1600 4750 
Q 1800 4750 1984 4673 
Q 2169 4597 2303 4453 
Q 2447 4313 2519 4134 
Q 2591 3956 2591 3750 
Q 2591 3338 2302 3052 
Q 2013 2766 1594 2766 
Q 1172 2766 890 3047 
Q 609 3328 609 3750 
Q 609 4169 896 4459 
Q 1184 4750 1600 4750 
z
" transform="scale(0.015625)"/>
       </defs>
       <use xlink:href="#DejaVuSans-30"/>
       <use xlink:href="#DejaVuSans-b0" x="63.623047"/>
      </g>
     </g>
    </g>
    <g id="xtick_2">
     <g id="line2d_2">
      <path d="M 199.56375 207.477187 
L 317.16975 89.871188 
" clip-path="url(#pb08285ac71)" style="fill: none; stroke: #b0b0b0; stroke-width: 0.8; stroke-linecap: square"/>
     </g>
     <g id="text_2">
      <!-- 45° -->
      <g transform="translate(318.206745 82.731068)scale(0.1 -0.1)">
       <defs>
        <path id="DejaVuSans-34" d="M 2419 4116 
L 825 1625 
L 2419 1625 
L 2419 4116 
z
M 2253 4666 
L 3047 4666 
L 3047 1625 
L 3713 1625 
L 3713 1100 
L 3047 1100 
L 3047 0 
L 2419 0 
L 2419 1100 
L 313 1100 
L 313 1709 
L 2253 4666 
z
" transform="scale(0.015625)"/>
        <path id="DejaVuSans-35" d="M 691 4666 
L 3169 4666 
L 3169 4134 
L 1269 4134 
L 1269 2991 
Q 1406 3038 1543 3061 
Q 1681 3084 1819 3084 
Q 2600 3084 3056 2656 
Q 3513 2228 3513 1497 
Q 3513 744 3044 326 
Q 2575 -91 1722 -91 
Q 1428 -91 1123 -41 
Q 819 9 494 109 
L 494 744 
Q 775 591 1075 516 
Q 1375 441 1709 441 
Q 2250 441 2565 725 
Q 2881 1009 2881 1497 
Q 2881 1984 2565 2268 
Q 2250 2553 1709 2553 
Q 1456 2553 1204 2497 
Q 953 2441 691 2322 
L 691 4666 
z
" transform="scale(0.015625)"/>
       </defs>
       <use xlink:href="#DejaVuSans-34"/>
       <use xlink:href="#DejaVuSans-35" x="63.623047"/>
       <use xlink:href="#DejaVuSans-b0" x="127.246094"/>
      </g>
     </g>
    </g>
    <g id="xtick_3">
     <g id="line2d_3">
      <path d="M 199.56375 207.477187 
L 199.56375 41.157187 
" clip-path="url(#pb08285ac71)" style="fill: none; stroke: #b0b0b0; stroke-width: 0.8; stroke-linecap: square"/>
     </g>
     <g id="text_3">
      <!-- 90° -->
      <g transform="translate(190.70125 29.916562)scale(0.1 -0.1)">
       <defs>
        <path id="DejaVuSans-39" d="M 703 97 
L 703 672 
Q 941 559 1184 500 
Q 1428 441 1663 441 
Q 2288 441 2617 861 
Q 2947 1281 2994 2138 
Q 2813 1869 2534 1725 
Q 2256 1581 1919 1581 
Q 1219 1581 811 2004 
Q 403 2428 403 3163 
Q 403 3881 828 4315 
Q 1253 4750 1959 4750 
Q 2769 4750 3195 4129 
Q 3622 3509 3622 2328 
Q 3622 1225 3098 567 
Q 2575 -91 1691 -91 
Q 1453 -91 1209 -44 
Q 966 3 703 97 
z
M 1959 2075 
Q 2384 2075 2632 2365 
Q 2881 2656 2881 3163 
Q 2881 3666 2632 3958 
Q 2384 4250 1959 4250 
Q 1534 4250 1286 3958 
Q 1038 3666 1038 3163 
Q 1038 2656 1286 2365 
Q 1534 2075 1959 2075 
z
" transform="scale(0.015625)"/>
       </defs>
       <use xlink:href="#DejaVuSans-39"/>
       <use xlink:href="#DejaVuSans-30" x="63.623047"/>
       <use xlink:href="#DejaVuSans-b0" x="127.246094"/>
      </g>
     </g>
    </g>
    <g id="xtick_4">
     <g id="line2d_4">
      <path d="M 199.56375 207.477187 
L 81.95775 89.871188 
" clip-path="url(#pb08285ac71)" style="fill: none; stroke: #b0b0b0; stroke-width: 0.8; stroke-linecap: square"/>
     </g>
     <g id="text_4">
      <!-- 135° -->
      <g transform="translate(60.014505 82.731068)scale(0.1 -0.1)">
       <defs>
        <path id="DejaVuSans-31" d="M 794 531 
L 1825 531 
L 1825 4091 
L 703 3866 
L 703 4441 
L 1819 4666 
L 2450 4666 
L 2450 531 
L 3481 531 
L 3481 0 
L 794 0 
L 794 531 
z
" transform="scale(0.015625)"/>
        <path id="DejaVuSans-33" d="M 2597 2516 
Q 3050 2419 3304 2112 
Q 3559 1806 3559 1356 
Q 3559 666 3084 287 
Q 2609 -91 1734 -91 
Q 1441 -91 1130 -33 
Q 819 25 488 141 
L 488 750 
Q 750 597 1062 519 
Q 1375 441 1716 441 
Q 2309 441 2620 675 
Q 2931 909 2931 1356 
Q 2931 1769 2642 2001 
Q 2353 2234 1838 2234 
L 1294 2234 
L 1294 2753 
L 1863 2753 
Q 2328 2753 2575 2939 
Q 2822 3125 2822 3475 
Q 2822 3834 2567 4026 
Q 2313 4219 1838 4219 
Q 1578 4219 1281 4162 
Q 984 4106 628 3988 
L 628 4550 
Q 988 4650 1302 4700 
Q 1616 4750 1894 4750 
Q 2613 4750 3031 4423 
Q 3450 4097 3450 3541 
Q 3450 3153 3228 2886 
Q 3006 2619 2597 2516 
z
" transform="scale(0.015625)"/>
       </defs>
       <use xlink:href="#DejaVuSans-31"/>
       <use xlink:href="#DejaVuSans-33" x="63.623047"/>
       <use xlink:href="#DejaVuSans-35" x="127.246094"/>
       <use xlink:href="#DejaVuSans-b0" x="190.869141"/>
      </g>
     </g>
    </g>
    <g id="xtick_5">
     <g id="line2d_5">
      <path d="M 199.56375 207.477187 
L 33.24375 207.477187 
" clip-path="url(#pb08285ac71)" style="fill: none; stroke: #b0b0b0; stroke-width: 0.8; stroke-linecap: square"/>
     </g>
     <g id="text_5">
      <!-- 180° -->
      <g transform="translate(7.2 210.236562)scale(0.1 -0.1)">
       <defs>
        <path id="DejaVuSans-38" d="M 2034 2216 
Q 1584 2216 1326 1975 
Q 1069 1734 1069 1313 
Q 1069 891 1326 650 
Q 1584 409 2034 409 
Q 2484 409 2743 651 
Q 3003 894 3003 1313 
Q 3003 1734 2745 1975 
Q 2488 2216 2034 2216 
z
M 1403 2484 
Q 997 2584 770 2862 
Q 544 3141 544 3541 
Q 544 4100 942 4425 
Q 1341 4750 2034 4750 
Q 2731 4750 3128 4425 
Q 3525 4100 3525 3541 
Q 3525 3141 3298 2862 
Q 3072 2584 2669 2484 
Q 3125 2378 3379 2068 
Q 3634 1759 3634 1313 
Q 3634 634 3220 271 
Q 2806 -91 2034 -91 
Q 1263 -91 848 271 
Q 434 634 434 1313 
Q 434 1759 690 2068 
Q 947 2378 1403 2484 
z
M 1172 3481 
Q 1172 3119 1398 2916 
Q 1625 2713 2034 2713 
Q 2441 2713 2670 2916 
Q 2900 3119 2900 3481 
Q 2900 3844 2670 4047 
Q 2441 4250 2034 4250 
Q 1625 4250 1398 4047 
Q 1172 3844 1172 3481 
z
" transform="scale(0.015625)"/>
       </defs>
       <use xlink:href="#DejaVuSans-31"/>
       <use xlink:href="#DejaVuSans-38" x="63.623047"/>
       <use xlink:href="#DejaVuSans-30" x="127.246094"/>
       <use xlink:href="#DejaVuSans-b0" x="190.869141"/>
      </g>
     </g>
    </g>
    <g id="xtick_6">
     <g id="line2d_6">
      <path d="M 199.56375 207.477187 
L 81.95775 325.083187 
" clip-path="url(#pb08285ac71)" style="fill: none; stroke: #b0b0b0; stroke-width: 0.8; stroke-linecap: square"/>
     </g>
     <g id="text_6">
      <!-- 225° -->
      <g transform="translate(60.014505 337.742057)scale(0.1 -0.1)">
       <defs>
        <path id="DejaVuSans-32" d="M 1228 531 
L 3431 531 
L 3431 0 
L 469 0 
L 469 531 
Q 828 903 1448 1529 
Q 2069 2156 2228 2338 
Q 2531 2678 2651 2914 
Q 2772 3150 2772 3378 
Q 2772 3750 2511 3984 
Q 2250 4219 1831 4219 
Q 1534 4219 1204 4116 
Q 875 4013 500 3803 
L 500 4441 
Q 881 4594 1212 4672 
Q 1544 4750 1819 4750 
Q 2544 4750 2975 4387 
Q 3406 4025 3406 3419 
Q 3406 3131 3298 2873 
Q 3191 2616 2906 2266 
Q 2828 2175 2409 1742 
Q 1991 1309 1228 531 
z
" transform="scale(0.015625)"/>
       </defs>
       <use xlink:href="#DejaVuSans-32"/>
       <use xlink:href="#DejaVuSans-32" x="63.623047"/>
       <use xlink:href="#DejaVuSans-35" x="127.246094"/>
       <use xlink:href="#DejaVuSans-b0" x="190.869141"/>
      </g>
     </g>
    </g>
    <g id="xtick_7">
     <g id="line2d_7">
      <path d="M 199.56375 207.477187 
L 199.56375 373.797187 
" clip-path="url(#pb08285ac71)" style="fill: none; stroke: #b0b0b0; stroke-width: 0.8; stroke-linecap: square"/>
     </g>
     <g id="text_7">
      <!-- 270° -->
      <g transform="translate(187.52 390.556562)scale(0.1 -0.1)">
       <defs>
        <path id="DejaVuSans-37" d="M 525 4666 
L 3525 4666 
L 3525 4397 
L 1831 0 
L 1172 0 
L 2766 4134 
L 525 4134 
L 525 4666 
z
" transform="scale(0.015625)"/>
       </defs>
       <use xlink:href="#DejaVuSans-32"/>
       <use xlink:href="#DejaVuSans-37" x="63.623047"/>
       <use xlink:href="#DejaVuSans-30" x="127.246094"/>
       <use xlink:href="#DejaVuSans-b0" x="190.869141"/>
      </g>
     </g>
    </g>
    <g id="xtick_8">
     <g id="line2d_8">
      <path d="M 199.56375 207.477187 
L 317.16975 325.083187 
" clip-path="url(#pb08285ac71)" style="fill: none; stroke: #b0b0b0; stroke-width: 0.8; stroke-linecap: square"/>
     </g>
     <g id="text_8">
      <!-- 315° -->
      <g transform="translate(315.025495 337.742057)scale(0.1 -0.1)">
       <use xlink:href="#DejaVuSans-33"/>
       <use xlink:href="#DejaVuSans-31" x="63.623047"/>
       <use xlink:href="#DejaVuSans-35" x="127.246094"/>
       <use xlink:href="#DejaVuSans-b0" x="190.869141"/>
      </g>
     </g>
    </g>
   </g>
   <g id="matplotlib.axis_2">
    <g id="ytick_1">
     <g id="line2d_9">
      <path d="M 252.980141 207.477187 
C 252.980141 200.462611 251.598422 193.516243 248.91406 187.03562 
C 246.229698 180.554996 242.294897 174.66615 237.334842 169.706095 
C 232.374788 164.746041 226.485941 160.811239 220.005318 158.126877 
C 213.524694 155.442515 206.578326 154.060797 199.56375 154.060797 
C 192.549174 154.060797 185.602806 155.442515 179.122182 158.126877 
C 172.641559 160.811239 166.752712 164.746041 161.792658 169.706095 
C 156.832603 174.66615 152.897802 180.554996 150.21344 187.03562 
C 147.529078 193.516243 146.147359 200.462611 146.147359 207.477187 
C 146.147359 214.491764 147.529078 221.438132 150.21344 227.918755 
C 152.897802 234.399379 156.832603 240.288225 161.792658 245.24828 
C 166.752712 250.208334 172.641559 254.143136 179.122182 256.827498 
C 185.602806 259.51186 192.549174 260.893578 199.56375 260.893578 
C 206.578326 260.893578 213.524694 259.51186 220.005318 256.827498 
C 226.485941 254.143136 232.374788 250.208334 237.334842 245.24828 
C 242.294897 240.288225 246.229698 234.399379 248.91406 227.918755 
C 251.598422 221.438132 252.980141 214.491764 252.980141 207.477187 
" clip-path="url(#pb08285ac71)" style="fill: none; stroke: #b0b0b0; stroke-width: 0.8; stroke-linecap: square"/>
     </g>
     <g id="text_9">
      <!-- −30 -->
      <g transform="translate(248.91406 184.955932)scale(0.1 -0.1)">
       <defs>
        <path id="DejaVuSans-2212" d="M 678 2272 
L 4684 2272 
L 4684 1741 
L 678 1741 
L 678 2272 
z
" transform="scale(0.015625)"/>
       </defs>
       <use xlink:href="#DejaVuSans-2212"/>
       <use xlink:href="#DejaVuSans-33" x="83.789062"/>
       <use xlink:href="#DejaVuSans-30" x="147.412109"/>
      </g>
     </g>
    </g>
    <g id="ytick_2">
     <g id="line2d_10">
      <path d="M 264.270502 207.477187 
C 264.270502 198.979975 262.596736 190.565387 259.344994 182.714986 
C 256.093251 174.864585 251.32677 167.731041 245.318333 161.722604 
C 239.309896 155.714168 232.176353 150.947686 224.325952 147.695944 
C 216.475551 144.444201 208.060963 142.770436 199.56375 142.770436 
C 191.066537 142.770436 182.651949 144.444201 174.801548 147.695944 
C 166.951147 150.947686 159.817604 155.714168 153.809167 161.722604 
C 147.80073 167.731041 143.034249 174.864585 139.782506 182.714986 
C 136.530764 190.565387 134.856998 198.979975 134.856998 207.477187 
C 134.856998 215.9744 136.530764 224.388988 139.782506 232.239389 
C 143.034249 240.08979 147.80073 247.223334 153.809167 253.231771 
C 159.817604 259.240207 166.951147 264.006689 174.801548 267.258431 
C 182.651949 270.510174 191.066537 272.183939 199.56375 272.183939 
C 208.060963 272.183939 216.475551 270.510174 224.325952 267.258431 
C 232.176353 264.006689 239.309896 259.240207 245.318333 253.231771 
C 251.32677 247.223334 256.093251 240.08979 259.344994 232.239389 
C 262.596736 224.388988 264.270502 215.9744 264.270502 207.477187 
" clip-path="url(#pb08285ac71)" style="fill: none; stroke: #b0b0b0; stroke-width: 0.8; stroke-linecap: square"/>
     </g>
     <g id="text_10">
      <!-- −27 -->
      <g transform="translate(259.344994 180.635298)scale(0.1 -0.1)">
       <use xlink:href="#DejaVuSans-2212"/>
       <use xlink:href="#DejaVuSans-32" x="83.789062"/>
       <use xlink:href="#DejaVuSans-37" x="147.412109"/>
      </g>
     </g>
    </g>
    <g id="ytick_3">
     <g id="line2d_11">
      <path d="M 275.560863 207.477187 
C 275.560863 197.497338 273.59505 187.61453 269.775927 178.394352 
C 265.956804 169.174173 260.358643 160.795933 253.301824 153.739114 
C 246.245005 146.682295 237.866765 141.084133 228.646586 137.26501 
C 219.426407 133.445887 209.543599 131.480075 199.56375 131.480075 
C 189.583901 131.480075 179.701093 133.445887 170.480914 137.26501 
C 161.260735 141.084133 152.882495 146.682295 145.825676 153.739114 
C 138.768857 160.795933 133.170696 169.174173 129.351573 178.394352 
C 125.53245 187.61453 123.566637 197.497338 123.566637 207.477187 
C 123.566637 217.457037 125.53245 227.339845 129.351573 236.560023 
C 133.170696 245.780202 138.768857 254.158442 145.825676 261.215261 
C 152.882495 268.27208 161.260735 273.870242 170.480914 277.689365 
C 179.701093 281.508488 189.583901 283.4743 199.56375 283.4743 
C 209.543599 283.4743 219.426407 281.508488 228.646586 277.689365 
C 237.866765 273.870242 246.245005 268.27208 253.301824 261.215261 
C 260.358643 254.158442 265.956804 245.780202 269.775927 236.560023 
C 273.59505 227.339845 275.560863 217.457037 275.560863 207.477187 
" clip-path="url(#pb08285ac71)" style="fill: none; stroke: #b0b0b0; stroke-width: 0.8; stroke-linecap: square"/>
     </g>
     <g id="text_11">
      <!-- −24 -->
      <g transform="translate(269.775927 176.314664)scale(0.1 -0.1)">
       <use xlink:href="#DejaVuSans-2212"/>
       <use xlink:href="#DejaVuSans-32" x="83.789062"/>
       <use xlink:href="#DejaVuSans-34" x="147.412109"/>
      </g>
     </g>
    </g>
    <g id="ytick_4">
     <g id="line2d_12">
      <path d="M 286.851224 207.477187 
C 286.851224 196.014701 284.593364 184.663674 280.20686 174.073717 
C 275.820357 163.483761 269.390516 153.860825 261.285315 145.755623 
C 253.180113 137.650421 243.557176 131.220581 232.96722 126.834077 
C 222.377264 122.447574 211.026236 120.189714 199.56375 120.189714 
C 188.101264 120.189714 176.750236 122.447574 166.16028 126.834077 
C 155.570324 131.220581 145.947387 137.650421 137.842185 145.755623 
C 129.736984 153.860825 123.307143 163.483761 118.92064 174.073717 
C 114.534136 184.663674 112.276276 196.014701 112.276276 207.477187 
C 112.276276 218.939674 114.534136 230.290701 118.92064 240.880658 
C 123.307143 251.470614 129.736984 261.09355 137.842185 269.198752 
C 145.947387 277.303954 155.570324 283.733794 166.16028 288.120298 
C 176.750236 292.506801 188.101264 294.764661 199.56375 294.764661 
C 211.026236 294.764661 222.377264 292.506801 232.96722 288.120298 
C 243.557176 283.733794 253.180113 277.303954 261.285315 269.198752 
C 269.390516 261.09355 275.820357 251.470614 280.20686 240.880658 
C 284.593364 230.290701 286.851224 218.939674 286.851224 207.477187 
" clip-path="url(#pb08285ac71)" style="fill: none; stroke: #b0b0b0; stroke-width: 0.8; stroke-linecap: square"/>
     </g>
     <g id="text_12">
      <!-- −21 -->
      <g transform="translate(280.20686 171.99403)scale(0.1 -0.1)">
       <use xlink:href="#DejaVuSans-2212"/>
       <use xlink:href="#DejaVuSans-32" x="83.789062"/>
       <use xlink:href="#DejaVuSans-31" x="147.412109"/>
      </g>
     </g>
    </g>
    <g id="ytick_5">
     <g id="line2d_13">
      <path d="M 298.141585 207.477187 
C 298.141585 194.532065 295.591678 181.712817 290.637794 169.753083 
C 285.68391 157.79335 278.422389 146.925716 269.268805 137.772132 
C 260.115221 128.618548 249.247588 121.357028 237.287854 116.403144 
C 225.32812 111.44926 212.508873 108.899353 199.56375 108.899353 
C 186.618627 108.899353 173.79938 111.44926 161.839646 116.403144 
C 149.879912 121.357028 139.012279 128.618548 129.858695 137.772132 
C 120.705111 146.925716 113.44359 157.79335 108.489706 169.753083 
C 103.535822 181.712817 100.985915 194.532065 100.985915 207.477187 
C 100.985915 220.42231 103.535822 233.241558 108.489706 245.201292 
C 113.44359 257.161025 120.705111 268.028659 129.858695 277.182243 
C 139.012279 286.335827 149.879912 293.597347 161.839646 298.551231 
C 173.79938 303.505115 186.618627 306.055022 199.56375 306.055022 
C 212.508873 306.055022 225.32812 303.505115 237.287854 298.551231 
C 249.247588 293.597347 260.115221 286.335827 269.268805 277.182243 
C 278.422389 268.028659 285.68391 257.161025 290.637794 245.201292 
C 295.591678 233.241558 298.141585 220.42231 298.141585 207.477187 
" clip-path="url(#pb08285ac71)" style="fill: none; stroke: #b0b0b0; stroke-width: 0.8; stroke-linecap: square"/>
     </g>
     <g id="text_13">
      <!-- −18 -->
      <g transform="translate(290.637794 167.673396)scale(0.1 -0.1)">
       <use xlink:href="#DejaVuSans-2212"/>
       <use xlink:href="#DejaVuSans-31" x="83.789062"/>
       <use xlink:href="#DejaVuSans-38" x="147.412109"/>
      </g>
     </g>
    </g>
    <g id="ytick_6">
     <g id="line2d_14">
      <path d="M 309.431945 207.477187 
C 309.431945 193.049428 306.589992 178.761961 301.068727 165.432449 
C 295.547463 152.102938 287.454262 139.990608 277.252296 129.788641 
C 267.05033 119.586675 254.938 111.493475 241.608488 105.97221 
C 228.278977 100.450946 213.991509 97.608992 199.56375 97.608992 
C 185.135991 97.608992 170.848523 100.450946 157.519012 105.97221 
C 144.1895 111.493475 132.07717 119.586675 121.875204 129.788641 
C 111.673238 139.990608 103.580037 152.102938 98.058773 165.432449 
C 92.537508 178.761961 89.695555 193.049428 89.695555 207.477187 
C 89.695555 221.904947 92.537508 236.192414 98.058773 249.521926 
C 103.580037 262.851437 111.673238 274.963767 121.875204 285.165734 
C 132.07717 295.3677 144.1895 303.4609 157.519012 308.982165 
C 170.848523 314.503429 185.135991 317.345383 199.56375 317.345383 
C 213.991509 317.345383 228.278977 314.503429 241.608488 308.982165 
C 254.938 303.4609 267.05033 295.3677 277.252296 285.165734 
C 287.454262 274.963767 295.547463 262.851437 301.068727 249.521926 
C 306.589992 236.192414 309.431945 221.904947 309.431945 207.477187 
" clip-path="url(#pb08285ac71)" style="fill: none; stroke: #b0b0b0; stroke-width: 0.8; stroke-linecap: square"/>
     </g>
     <g id="text_14">
      <!-- −15 -->
      <g transform="translate(301.068727 163.352762)scale(0.1 -0.1)">
       <use xlink:href="#DejaVuSans-2212"/>
       <use xlink:href="#DejaVuSans-31" x="83.789062"/>
       <use xlink:href="#DejaVuSans-35" x="147.412109"/>
      </g>
     </g>
    </g>
    <g id="ytick_7">
     <g id="line2d_15">
      <path d="M 320.722306 207.477187 
C 320.722306 191.566792 317.588305 175.811104 311.49966 161.111815 
C 305.411016 146.412526 296.486136 133.055499 285.235787 121.805151 
C 273.985438 110.554802 260.628411 101.629922 245.929122 95.541277 
C 231.229833 89.452632 215.474146 86.318631 199.56375 86.318631 
C 183.653354 86.318631 167.897667 89.452632 153.198378 95.541277 
C 138.499089 101.629922 125.142062 110.554802 113.891713 121.805151 
C 102.641364 133.055499 93.716484 146.412526 87.62784 161.111815 
C 81.539195 175.811104 78.405194 191.566792 78.405194 207.477187 
C 78.405194 223.387583 81.539195 239.143271 87.62784 253.84256 
C 93.716484 268.541849 102.641364 281.898876 113.891713 293.149224 
C 125.142062 304.399573 138.499089 313.324453 153.198378 319.413098 
C 167.897667 325.501743 183.653354 328.635744 199.56375 328.635744 
C 215.474146 328.635744 231.229833 325.501743 245.929122 319.413098 
C 260.628411 313.324453 273.985438 304.399573 285.235787 293.149224 
C 296.486136 281.898876 305.411016 268.541849 311.49966 253.84256 
C 317.588305 239.143271 320.722306 223.387583 320.722306 207.477187 
" clip-path="url(#pb08285ac71)" style="fill: none; stroke: #b0b0b0; stroke-width: 0.8; stroke-linecap: square"/>
     </g>
     <g id="text_15">
      <!-- −12 -->
      <g transform="translate(311.49966 159.032128)scale(0.1 -0.1)">
       <use xlink:href="#DejaVuSans-2212"/>
       <use xlink:href="#DejaVuSans-31" x="83.789062"/>
       <use xlink:href="#DejaVuSans-32" x="147.412109"/>
      </g>
     </g>
    </g>
    <g id="ytick_8">
     <g id="line2d_16">
      <path d="M 332.012667 207.477187 
C 332.012667 190.084155 328.586619 172.860248 321.930594 156.791181 
C 315.274568 140.722115 305.518009 126.120391 293.219278 113.82166 
C 280.920546 101.522929 266.318823 91.766369 250.249756 85.110344 
C 234.18069 78.454318 216.956782 75.02827 199.56375 75.02827 
C 182.170718 75.02827 164.94681 78.454318 148.877744 85.110344 
C 132.808677 91.766369 118.206954 101.522929 105.908222 113.82166 
C 93.609491 126.120391 83.852932 140.722115 77.196906 156.791181 
C 70.540881 172.860248 67.114833 190.084155 67.114833 207.477187 
C 67.114833 224.87022 70.540881 242.094127 77.196906 258.163194 
C 83.852932 274.23226 93.609491 288.833984 105.908222 301.132715 
C 118.206954 313.431446 132.808677 323.188006 148.877744 329.844031 
C 164.94681 336.500057 182.170718 339.926105 199.56375 339.926105 
C 216.956782 339.926105 234.18069 336.500057 250.249756 329.844031 
C 266.318823 323.188006 280.920546 313.431446 293.219278 301.132715 
C 305.518009 288.833984 315.274568 274.23226 321.930594 258.163194 
C 328.586619 242.094127 332.012667 224.87022 332.012667 207.477187 
" clip-path="url(#pb08285ac71)" style="fill: none; stroke: #b0b0b0; stroke-width: 0.8; stroke-linecap: square"/>
     </g>
     <g id="text_16">
      <!-- −9 -->
      <g transform="translate(321.930594 154.711494)scale(0.1 -0.1)">
       <use xlink:href="#DejaVuSans-2212"/>
       <use xlink:href="#DejaVuSans-39" x="83.789062"/>
      </g>
     </g>
    </g>
    <g id="ytick_9">
     <g id="line2d_17">
      <path d="M 343.303028 207.477187 
C 343.303028 188.601518 339.584933 169.909391 332.361527 152.470547 
C 325.138121 135.031703 314.549882 119.185283 301.202768 105.838169 
C 287.855655 92.491056 272.009235 81.902816 254.57039 74.67941 
C 237.131546 67.456005 218.439419 63.737909 199.56375 63.737909 
C 180.688081 63.737909 161.995954 67.456005 144.55711 74.67941 
C 127.118265 81.902816 111.271845 92.491056 97.924732 105.838169 
C 84.577618 119.185283 73.989379 135.031703 66.765973 152.470547 
C 59.542567 169.909391 55.824472 188.601518 55.824472 207.477187 
C 55.824472 226.352857 59.542567 245.044984 66.765973 262.483828 
C 73.989379 279.922672 84.577618 295.769092 97.924732 309.116206 
C 111.271845 322.463319 127.118265 333.051559 144.55711 340.274965 
C 161.995954 347.49837 180.688081 351.216466 199.56375 351.216466 
C 218.439419 351.216466 237.131546 347.49837 254.57039 340.274965 
C 272.009235 333.051559 287.855655 322.463319 301.202768 309.116206 
C 314.549882 295.769092 325.138121 279.922672 332.361527 262.483828 
C 339.584933 245.044984 343.303028 226.352857 343.303028 207.477187 
" clip-path="url(#pb08285ac71)" style="fill: none; stroke: #b0b0b0; stroke-width: 0.8; stroke-linecap: square"/>
     </g>
     <g id="text_17">
      <!-- −6 -->
      <g transform="translate(332.361527 150.39086)scale(0.1 -0.1)">
       <defs>
        <path id="DejaVuSans-36" d="M 2113 2584 
Q 1688 2584 1439 2293 
Q 1191 2003 1191 1497 
Q 1191 994 1439 701 
Q 1688 409 2113 409 
Q 2538 409 2786 701 
Q 3034 994 3034 1497 
Q 3034 2003 2786 2293 
Q 2538 2584 2113 2584 
z
M 3366 4563 
L 3366 3988 
Q 3128 4100 2886 4159 
Q 2644 4219 2406 4219 
Q 1781 4219 1451 3797 
Q 1122 3375 1075 2522 
Q 1259 2794 1537 2939 
Q 1816 3084 2150 3084 
Q 2853 3084 3261 2657 
Q 3669 2231 3669 1497 
Q 3669 778 3244 343 
Q 2819 -91 2113 -91 
Q 1303 -91 875 529 
Q 447 1150 447 2328 
Q 447 3434 972 4092 
Q 1497 4750 2381 4750 
Q 2619 4750 2861 4703 
Q 3103 4656 3366 4563 
z
" transform="scale(0.015625)"/>
       </defs>
       <use xlink:href="#DejaVuSans-2212"/>
       <use xlink:href="#DejaVuSans-36" x="83.789062"/>
      </g>
     </g>
    </g>
    <g id="ytick_10">
     <g id="line2d_18">
      <path d="M 354.593389 207.477187 
C 354.593389 187.118882 350.583247 166.958535 342.79246 148.149913 
C 335.001674 129.341291 323.581755 112.250174 309.186259 97.854678 
C 294.790763 83.459182 277.699646 72.039263 258.891024 64.248477 
C 240.082402 56.457691 219.922056 52.447548 199.56375 52.447548 
C 179.205444 52.447548 159.045098 56.457691 140.236476 64.248477 
C 121.427854 72.039263 104.336737 83.459182 89.941241 97.854678 
C 75.545745 112.250174 64.125826 129.341291 56.33504 148.149913 
C 48.544253 166.958535 44.534111 187.118882 44.534111 207.477187 
C 44.534111 227.835493 48.544253 247.99584 56.33504 266.804462 
C 64.125826 285.613084 75.545745 302.704201 89.941241 317.099697 
C 104.336737 331.495193 121.427854 342.915112 140.236476 350.705898 
C 159.045098 358.496684 179.205444 362.506827 199.56375 362.506827 
C 219.922056 362.506827 240.082402 358.496684 258.891024 350.705898 
C 277.699646 342.915112 294.790763 331.495193 309.186259 317.099697 
C 323.581755 302.704201 335.001674 285.613084 342.79246 266.804462 
C 350.583247 247.99584 354.593389 227.835493 354.593389 207.477187 
" clip-path="url(#pb08285ac71)" style="fill: none; stroke: #b0b0b0; stroke-width: 0.8; stroke-linecap: square"/>
     </g>
     <g id="text_18">
      <!-- −3 -->
      <g transform="translate(342.79246 146.070226)scale(0.1 -0.1)">
       <use xlink:href="#DejaVuSans-2212"/>
       <use xlink:href="#DejaVuSans-33" x="83.789062"/>
      </g>
     </g>
    </g>
   </g>
   <g id="line2d_19">
    <path d="M 292.643179 207.477187 
L 293.362764 205.83992 
L 294.591176 204.158757 
L 296.108548 202.417489 
L 299.365625 200.498361 
L 301.616825 198.5487 
L 304.668041 196.430281 
L 308.657829 194.082119 
L 311.101934 191.801518 
L 314.093585 189.337444 
L 316.895071 186.78851 
L 318.503671 184.357609 
L 320.460127 181.779869 
L 322.259438 179.150656 
L 323.353117 176.613032 
L 325.005821 173.865086 
L 326.433231 171.097949 
L 327.31218 168.420573 
L 328.529573 165.573651 
L 329.379901 162.777902 
L 329.884983 160.044138 
L 330.551627 157.195653 
L 330.989598 151.690225 
L 331.381513 148.788138 
L 331.299031 146.048017 
L 330.882342 140.567023 
L 329.579817 132.412376 
L 328.756421 129.850399 
L 328.02348 127.20664 
L 327.123789 124.638729 
L 323.554355 117.39274 
L 320.966603 112.626884 
L 319.386339 110.446768 
L 318.069642 108.038937 
L 314.982983 103.553243 
L 312.813134 101.870428 
L 308.834985 98.205952 
L 306.91914 96.307427 
L 304.739309 94.690209 
L 302.951309 92.653671 
L 300.943961 90.852595 
L 298.682679 89.351848 
L 296.279169 88.043591 
L 294.013211 86.587391 
L 291.2571 85.796003 
L 288.719114 84.765356 
L 279.575639 84.269683 
L 276.431977 84.46231 
L 273.470899 84.475037 
L 270.648709 84.354427 
L 264.909151 84.580363 
L 259.69272 84.194529 
L 257.328398 83.600499 
L 252.936154 81.739683 
L 250.791406 80.68429 
L 248.754186 79.331721 
L 246.967195 77.237293 
L 245.076608 75.298249 
L 243.291988 72.89551 
L 241.525229 70.227375 
L 239.551923 68.021855 
L 237.672082 65.254955 
L 235.675808 62.639636 
L 233.498959 60.487647 
L 231.314225 58.102945 
L 228.988972 56.097544 
L 226.526843 54.561889 
L 224.100676 52.557135 
L 221.55977 50.96737 
L 216.308095 48.165387 
L 210.821214 46.487958 
L 208.03191 45.895078 
L 205.217453 45.576318 
L 202.392214 45.434574 
L 196.739818 45.694212 
L 193.922919 45.944912 
L 191.125923 46.473856 
L 188.353016 47.156221 
L 185.610202 47.987401 
L 180.239259 50.091838 
L 177.660437 51.627019 
L 172.675812 54.988111 
L 170.327389 57.069148 
L 168.060534 59.266209 
L 165.810558 61.276051 
L 163.793116 64.009009 
L 161.748608 66.349155 
L 159.85981 69.013094 
L 158.325186 72.591923 
L 156.664711 75.44752 
L 155.271251 78.842431 
L 154.39227 83.369566 
L 153.240653 86.801394 
L 152.523243 91.047848 
L 151.949818 95.305793 
L 151.012755 98.429868 
L 150.397367 102.03954 
L 149.135542 104.084039 
L 147.167906 104.644554 
L 144.685077 104.265414 
L 141.421547 102.585877 
L 138.156512 101.116731 
L 134.280196 98.827107 
L 130.752603 97.356332 
L 127.228076 96.090018 
L 123.104338 94.121448 
L 119.497095 93.130154 
L 115.940854 92.380146 
L 111.675437 90.845457 
L 104.842539 90.506233 
L 101.25522 90.317644 
L 91.862588 91.981832 
L 86.287463 94.200901 
L 83.558927 95.452632 
L 81.175605 97.078457 
L 78.67679 98.63008 
L 76.284301 100.311998 
L 71.768285 103.990461 
L 69.72068 106.032663 
L 67.843769 108.219062 
L 66.05542 110.477708 
L 64.364382 112.809571 
L 62.873198 115.278246 
L 60.28134 120.443878 
L 59.202981 123.139929 
L 57.464298 128.710175 
L 56.868895 131.604987 
L 56.572454 134.619483 
L 56.07362 137.492375 
L 55.801822 140.439899 
L 55.939599 143.531596 
L 55.863967 146.480249 
L 56.122861 149.523307 
L 56.668667 152.624904 
L 56.907241 155.554464 
L 57.659663 158.615692 
L 58.58594 161.67072 
L 59.175602 164.556223 
L 63.179798 173.472849 
L 65.445368 176.513519 
L 70.213268 182.334001 
L 73.763584 185.295224 
L 77.413821 188.130539 
L 81.470075 190.880204 
L 86.308433 193.571183 
L 91.772102 196.147829 
L 98.155525 198.605117 
L 105.419584 200.893986 
L 125.124919 204.877726 
L 125.907435 206.191512 
L 116.340806 207.477187 
L 107.273651 209.088117 
L 98.943477 210.990925 
L 87.665565 215.301871 
L 83.687623 217.615035 
L 80.188021 220.024082 
L 75.733512 222.681629 
L 70.421919 227.931244 
L 67.259065 230.806073 
L 65.39589 233.556778 
L 60.861622 239.499097 
L 59.677853 242.354659 
L 58.13763 245.372202 
L 56.848902 248.400012 
L 54.898332 257.289485 
L 54.718154 260.196673 
L 54.405982 263.198034 
L 54.34675 266.148664 
L 54.94911 274.912102 
L 55.801204 280.727864 
L 58.032765 289.19014 
L 61.187078 297.340049 
L 63.846465 302.507454 
L 65.300334 305.025269 
L 68.51663 309.862419 
L 72.184068 314.361432 
L 76.204427 318.550421 
L 78.282816 320.573488 
L 80.567468 322.390561 
L 85.262126 325.839984 
L 92.921998 330.15449 
L 95.797727 331.140718 
L 98.473862 332.312802 
L 101.409385 333.109046 
L 104.511549 333.615718 
L 107.441956 334.271959 
L 110.722271 334.355968 
L 117.241822 334.24184 
L 127.942499 331.528833 
L 132.010474 329.346523 
L 135.748428 327.496353 
L 139.428074 325.500097 
L 143.574102 322.272978 
L 146.806009 320.616528 
L 149.754491 319.350614 
L 152.240977 318.962655 
L 154.020467 320.20077 
L 155.371601 322.601672 
L 156.280559 326.396778 
L 157.492649 329.660537 
L 159.656582 338.007651 
L 161.249857 341.093611 
L 162.78013 344.755525 
L 164.519664 348.031339 
L 166.502225 350.682387 
L 168.512017 353.564106 
L 170.713009 355.901384 
L 175.380064 360.166969 
L 177.87047 361.832898 
L 183.044423 364.648085 
L 185.716476 365.752255 
L 191.181664 367.416921 
L 193.959826 367.952577 
L 196.756632 368.296865 
L 199.56375 368.404158 
L 202.372247 368.375886 
L 207.974199 367.958116 
L 210.760833 367.602931 
L 213.524842 367.053204 
L 216.262855 366.358561 
L 218.967129 365.505026 
L 226.846413 362.204856 
L 234.172847 357.385657 
L 240.666035 350.817891 
L 245.708843 341.492268 
L 246.981354 337.755983 
L 248.353621 334.579148 
L 249.361854 330.73182 
L 249.870165 325.991674 
L 250.449115 321.767589 
L 250.51945 316.752038 
L 250.006806 310.900779 
L 249.29593 305.082086 
L 247.269075 297.197856 
L 243.91594 287.490656 
L 238.251018 274.485502 
L 224.340253 248.712213 
L 203.760711 214.193728 
L 233.508098 259.746899 
L 246.497075 277.058703 
L 253.258442 284.161155 
L 259.282666 289.673223 
L 264.77359 294.013568 
L 268.500576 295.712301 
L 272.327357 297.332759 
L 276.110044 298.701508 
L 281.730084 298.732146 
L 284.544756 298.608159 
L 289.150358 297.063796 
L 291.293093 296.059184 
L 293.26823 294.858029 
L 295.128563 293.524132 
L 296.740709 291.951829 
L 298.058928 290.124455 
L 299.082705 288.066048 
L 300.608295 283.619714 
L 301.497007 276.232037 
L 301.179019 270.973455 
L 301.091022 268.480927 
L 300.393265 265.691135 
L 299.945582 263.119745 
L 298.871078 260.27983 
L 296.796436 257.019716 
L 296.056456 254.539825 
L 294.533507 251.762313 
L 292.833693 249.003642 
L 290.775098 244.328964 
L 290.487339 242.379483 
L 290.785554 240.679209 
L 291.550387 239.150727 
L 292.160742 237.563774 
L 292.477376 235.883734 
L 292.535721 234.136471 
L 293.599367 230.9229 
L 293.854883 229.246011 
L 294.31247 227.61665 
L 294.738545 222.551394 
L 294.513823 220.82155 
L 293.589244 217.359665 
L 292.855103 215.639123 
L 291.958419 213.938052 
L 291.84929 210.69987 
L 292.128539 209.092912 
L 292.128539 209.092912 
" clip-path="url(#pb08285ac71)" style="fill: none; stroke: #ff0000; stroke-width: 1.5; stroke-linecap: square"/>
   </g>
   <g id="line2d_20">
    <path d="M 318.253481 207.477187 
L 318.370169 186.52841 
L 318.185405 180.091221 
L 317.725514 173.594847 
L 317.219121 169.24864 
L 316.527662 164.905805 
L 315.626701 160.584711 
L 314.503949 156.302514 
L 313.148581 152.078164 
L 311.548065 147.934071 
L 309.698414 143.89091 
L 307.597306 139.97033 
L 305.24106 136.196942 
L 302.63119 132.594309 
L 299.77116 129.186579 
L 296.663569 126.000765 
L 293.313446 123.064582 
L 289.733745 120.401036 
L 285.931423 118.040844 
L 281.926506 116.004079 
L 277.733261 114.318392 
L 273.38484 112.990501 
L 268.907524 112.033671 
L 264.397923 111.356574 
L 257.689081 110.740391 
L 253.438311 110.284907 
L 251.451173 109.891139 
L 249.552216 109.3693 
L 247.78289 108.6133 
L 246.113753 107.650384 
L 244.563441 106.406227 
L 243.116165 104.874127 
L 241.741806 103.082835 
L 240.398982 101.097771 
L 237.752 96.570456 
L 233.479286 89.199659 
L 230.281321 84.275739 
L 226.756361 79.546012 
L 224.870664 77.284403 
L 222.903745 75.109496 
L 220.859696 73.019876 
L 218.74188 71.017705 
L 216.552797 69.112503 
L 214.296702 67.302513 
L 211.977307 65.589579 
L 209.598633 63.971668 
L 204.677635 61.03469 
L 199.56375 58.487891 
L 194.285687 56.333239 
L 188.870978 54.563427 
L 183.345876 53.174426 
L 177.735703 52.162564 
L 172.064643 51.521999 
L 166.355775 51.24595 
L 160.631446 51.328244 
L 154.913733 51.764073 
L 149.221695 52.540275 
L 143.577409 53.655981 
L 137.999334 55.099911 
L 132.506175 56.863408 
L 127.115802 58.936881 
L 121.845208 61.309868 
L 116.712353 63.974359 
L 111.73271 66.918141 
L 106.924969 70.134546 
L 102.298818 73.603493 
L 97.87594 77.322725 
L 93.66408 81.270875 
L 89.681645 85.440746 
L 85.939234 89.815557 
L 82.454388 94.385991 
L 79.236148 99.133728 
L 76.302106 104.048388 
L 73.662612 109.112438 
L 71.33249 114.311724 
L 69.326355 119.630955 
L 67.659657 125.054362 
L 66.349059 130.56565 
L 65.412154 136.147518 
L 64.875067 141.785127 
L 64.754852 147.456399 
L 64.86416 150.300604 
L 65.090654 153.14653 
L 65.43833 155.991262 
L 65.91468 158.832904 
L 66.523675 161.667816 
L 67.276376 164.494414 
L 68.176722 167.308142 
L 69.235783 170.106244 
L 70.468286 172.886162 
L 71.885362 175.64339 
L 73.501759 178.373484 
L 75.339556 181.07252 
L 77.417169 183.734297 
L 79.771461 186.354575 
L 82.4468 188.927685 
L 85.457781 191.440639 
L 88.893331 193.888569 
L 92.827582 196.258764 
L 97.334465 198.533284 
L 102.525029 200.691579 
L 108.547406 202.707223 
L 115.360945 204.536761 
L 128.105362 207.477187 
L 128.793564 208.712486 
L 124.011616 210.115526 
L 117.003572 211.803983 
L 110.108687 213.732495 
L 103.97043 215.840519 
L 98.666408 218.081926 
L 94.085539 220.428283 
L 90.079048 222.864259 
L 86.609974 225.367308 
L 83.56669 227.930599 
L 80.915679 230.540036 
L 78.564299 233.196415 
L 76.494028 235.890072 
L 74.671581 238.616302 
L 73.078372 241.368842 
L 71.684941 244.145846 
L 70.483687 246.940923 
L 69.452564 249.752874 
L 68.580439 252.578358 
L 67.863286 255.412236 
L 67.286424 258.253696 
L 66.845829 261.098708 
L 66.533941 263.944991 
L 66.343248 266.790777 
L 66.269712 269.633218 
L 66.454516 275.29973 
L 67.062576 280.923788 
L 68.061328 286.491814 
L 69.4348 291.983916 
L 71.159271 297.386971 
L 73.219334 302.684534 
L 75.598834 307.861997 
L 78.283314 312.904662 
L 81.258178 317.798918 
L 84.512467 322.52847 
L 88.030551 327.0819 
L 91.798581 331.446833 
L 95.807024 335.606074 
L 100.038366 339.551833 
L 104.479518 343.271544 
L 109.118767 346.750248 
L 113.941384 349.976735 
L 118.930214 352.943937 
L 124.071427 355.639213 
L 129.350225 358.050578 
L 134.749397 360.170234 
L 140.251312 361.991371 
L 145.84042 363.501067 
L 151.496555 364.697899 
L 157.2027 365.570778 
L 162.940608 366.109442 
L 168.688683 366.315639 
L 174.427493 366.181268 
L 180.136476 365.69964 
L 185.793787 364.868584 
L 191.377269 363.684558 
L 196.864014 362.144932 
L 202.230376 360.248064 
L 207.452048 357.994873 
L 212.504414 355.389652 
L 217.361396 352.427385 
L 221.997719 349.11969 
L 226.388729 345.47974 
L 230.511333 341.525897 
L 234.344716 337.281519 
L 237.878744 332.799886 
L 241.115341 328.151769 
L 244.080936 323.448422 
L 249.485622 314.534988 
L 250.802004 312.531177 
L 252.166331 310.715566 
L 253.571374 309.050755 
L 255.043922 307.566068 
L 256.575274 306.224044 
L 258.212428 305.08498 
L 259.92693 304.078469 
L 261.726645 303.199651 
L 265.547513 301.711768 
L 277.801577 297.479512 
L 281.82922 295.696103 
L 285.738747 293.652184 
L 289.486411 291.331425 
L 293.036938 288.732191 
L 296.371459 285.870524 
L 299.478179 282.76811 
L 302.340882 279.44251 
L 304.95711 275.920436 
L 307.320253 272.223827 
L 309.431946 268.378123 
L 311.28588 264.402456 
L 312.894098 260.323997 
L 314.257139 256.161643 
L 315.383905 251.93638 
L 316.292049 247.669964 
L 316.993822 243.379164 
L 317.510003 239.080791 
L 317.993715 232.650254 
L 318.208436 226.26866 
L 318.264701 215.777567 
L 318.235404 209.548609 
L 318.235404 209.548609 
" clip-path="url(#pb08285ac71)" style="fill: none; stroke-dasharray: 5.55,2.4; stroke-dashoffset: 0; stroke: #0000ff; stroke-width: 1.5"/>
   </g>
   <g id="patch_3">
    <path d="M 365.88375 207.477187 
C 365.88375 185.636245 361.581561 164.007679 353.223394 143.829279 
C 344.865227 123.650879 332.613628 105.315066 317.16975 89.871188 
C 301.725871 74.427309 283.390058 62.17571 263.211658 53.817544 
C 243.033259 45.459377 221.404692 41.157187 199.56375 41.157187 
C 177.722808 41.157187 156.094241 45.459377 135.915842 53.817544 
C 115.737442 62.17571 97.401629 74.427309 81.95775 89.871188 
C 66.513872 105.315066 54.262273 123.650879 45.904106 143.829279 
C 37.545939 164.007679 33.24375 185.636245 33.24375 207.477187 
C 33.24375 229.31813 37.545939 250.946696 45.904106 271.125096 
C 54.262273 291.303496 66.513872 309.639309 81.95775 325.083187 
C 97.401629 340.527066 115.737442 352.778665 135.915842 361.136831 
C 156.094241 369.494998 177.722808 373.797187 199.56375 373.797187 
C 221.404692 373.797187 243.033259 369.494998 263.211658 361.136831 
C 283.390058 352.778665 301.725871 340.527066 317.16975 325.083187 
C 332.613628 309.639309 344.865227 291.303496 353.223394 271.125096 
C 361.581561 250.946696 365.88375 229.31813 365.88375 207.477187 
" style="fill: none; stroke: #000000; stroke-width: 0.8; stroke-linejoin: miter; stroke-linecap: square"/>
   </g>
   <g id="text_19">
    <!-- Radiation Diagram - 3AVVF06 -->
    <g transform="translate(110.727187 16.318125)scale(0.12 -0.12)">
     <defs>
      <path id="DejaVuSans-52" d="M 2841 2188 
Q 3044 2119 3236 1894 
Q 3428 1669 3622 1275 
L 4263 0 
L 3584 0 
L 2988 1197 
Q 2756 1666 2539 1819 
Q 2322 1972 1947 1972 
L 1259 1972 
L 1259 0 
L 628 0 
L 628 4666 
L 2053 4666 
Q 2853 4666 3247 4331 
Q 3641 3997 3641 3322 
Q 3641 2881 3436 2590 
Q 3231 2300 2841 2188 
z
M 1259 4147 
L 1259 2491 
L 2053 2491 
Q 2509 2491 2742 2702 
Q 2975 2913 2975 3322 
Q 2975 3731 2742 3939 
Q 2509 4147 2053 4147 
L 1259 4147 
z
" transform="scale(0.015625)"/>
      <path id="DejaVuSans-61" d="M 2194 1759 
Q 1497 1759 1228 1600 
Q 959 1441 959 1056 
Q 959 750 1161 570 
Q 1363 391 1709 391 
Q 2188 391 2477 730 
Q 2766 1069 2766 1631 
L 2766 1759 
L 2194 1759 
z
M 3341 1997 
L 3341 0 
L 2766 0 
L 2766 531 
Q 2569 213 2275 61 
Q 1981 -91 1556 -91 
Q 1019 -91 701 211 
Q 384 513 384 1019 
Q 384 1609 779 1909 
Q 1175 2209 1959 2209 
L 2766 2209 
L 2766 2266 
Q 2766 2663 2505 2880 
Q 2244 3097 1772 3097 
Q 1472 3097 1187 3025 
Q 903 2953 641 2809 
L 641 3341 
Q 956 3463 1253 3523 
Q 1550 3584 1831 3584 
Q 2591 3584 2966 3190 
Q 3341 2797 3341 1997 
z
" transform="scale(0.015625)"/>
      <path id="DejaVuSans-64" d="M 2906 2969 
L 2906 4863 
L 3481 4863 
L 3481 0 
L 2906 0 
L 2906 525 
Q 2725 213 2448 61 
Q 2172 -91 1784 -91 
Q 1150 -91 751 415 
Q 353 922 353 1747 
Q 353 2572 751 3078 
Q 1150 3584 1784 3584 
Q 2172 3584 2448 3432 
Q 2725 3281 2906 2969 
z
M 947 1747 
Q 947 1113 1208 752 
Q 1469 391 1925 391 
Q 2381 391 2643 752 
Q 2906 1113 2906 1747 
Q 2906 2381 2643 2742 
Q 2381 3103 1925 3103 
Q 1469 3103 1208 2742 
Q 947 2381 947 1747 
z
" transform="scale(0.015625)"/>
      <path id="DejaVuSans-69" d="M 603 3500 
L 1178 3500 
L 1178 0 
L 603 0 
L 603 3500 
z
M 603 4863 
L 1178 4863 
L 1178 4134 
L 603 4134 
L 603 4863 
z
" transform="scale(0.015625)"/>
      <path id="DejaVuSans-74" d="M 1172 4494 
L 1172 3500 
L 2356 3500 
L 2356 3053 
L 1172 3053 
L 1172 1153 
Q 1172 725 1289 603 
Q 1406 481 1766 481 
L 2356 481 
L 2356 0 
L 1766 0 
Q 1100 0 847 248 
Q 594 497 594 1153 
L 594 3053 
L 172 3053 
L 172 3500 
L 594 3500 
L 594 4494 
L 1172 4494 
z
" transform="scale(0.015625)"/>
      <path id="DejaVuSans-6f" d="M 1959 3097 
Q 1497 3097 1228 2736 
Q 959 2375 959 1747 
Q 959 1119 1226 758 
Q 1494 397 1959 397 
Q 2419 397 2687 759 
Q 2956 1122 2956 1747 
Q 2956 2369 2687 2733 
Q 2419 3097 1959 3097 
z
M 1959 3584 
Q 2709 3584 3137 3096 
Q 3566 2609 3566 1747 
Q 3566 888 3137 398 
Q 2709 -91 1959 -91 
Q 1206 -91 779 398 
Q 353 888 353 1747 
Q 353 2609 779 3096 
Q 1206 3584 1959 3584 
z
" transform="scale(0.015625)"/>
      <path id="DejaVuSans-6e" d="M 3513 2113 
L 3513 0 
L 2938 0 
L 2938 2094 
Q 2938 2591 2744 2837 
Q 2550 3084 2163 3084 
Q 1697 3084 1428 2787 
Q 1159 2491 1159 1978 
L 1159 0 
L 581 0 
L 581 3500 
L 1159 3500 
L 1159 2956 
Q 1366 3272 1645 3428 
Q 1925 3584 2291 3584 
Q 2894 3584 3203 3211 
Q 3513 2838 3513 2113 
z
" transform="scale(0.015625)"/>
      <path id="DejaVuSans-20" transform="scale(0.015625)"/>
      <path id="DejaVuSans-44" d="M 1259 4147 
L 1259 519 
L 2022 519 
Q 2988 519 3436 956 
Q 3884 1394 3884 2338 
Q 3884 3275 3436 3711 
Q 2988 4147 2022 4147 
L 1259 4147 
z
M 628 4666 
L 1925 4666 
Q 3281 4666 3915 4102 
Q 4550 3538 4550 2338 
Q 4550 1131 3912 565 
Q 3275 0 1925 0 
L 628 0 
L 628 4666 
z
" transform="scale(0.015625)"/>
      <path id="DejaVuSans-67" d="M 2906 1791 
Q 2906 2416 2648 2759 
Q 2391 3103 1925 3103 
Q 1463 3103 1205 2759 
Q 947 2416 947 1791 
Q 947 1169 1205 825 
Q 1463 481 1925 481 
Q 2391 481 2648 825 
Q 2906 1169 2906 1791 
z
M 3481 434 
Q 3481 -459 3084 -895 
Q 2688 -1331 1869 -1331 
Q 1566 -1331 1297 -1286 
Q 1028 -1241 775 -1147 
L 775 -588 
Q 1028 -725 1275 -790 
Q 1522 -856 1778 -856 
Q 2344 -856 2625 -561 
Q 2906 -266 2906 331 
L 2906 616 
Q 2728 306 2450 153 
Q 2172 0 1784 0 
Q 1141 0 747 490 
Q 353 981 353 1791 
Q 353 2603 747 3093 
Q 1141 3584 1784 3584 
Q 2172 3584 2450 3431 
Q 2728 3278 2906 2969 
L 2906 3500 
L 3481 3500 
L 3481 434 
z
" transform="scale(0.015625)"/>
      <path id="DejaVuSans-72" d="M 2631 2963 
Q 2534 3019 2420 3045 
Q 2306 3072 2169 3072 
Q 1681 3072 1420 2755 
Q 1159 2438 1159 1844 
L 1159 0 
L 581 0 
L 581 3500 
L 1159 3500 
L 1159 2956 
Q 1341 3275 1631 3429 
Q 1922 3584 2338 3584 
Q 2397 3584 2469 3576 
Q 2541 3569 2628 3553 
L 2631 2963 
z
" transform="scale(0.015625)"/>
      <path id="DejaVuSans-6d" d="M 3328 2828 
Q 3544 3216 3844 3400 
Q 4144 3584 4550 3584 
Q 5097 3584 5394 3201 
Q 5691 2819 5691 2113 
L 5691 0 
L 5113 0 
L 5113 2094 
Q 5113 2597 4934 2840 
Q 4756 3084 4391 3084 
Q 3944 3084 3684 2787 
Q 3425 2491 3425 1978 
L 3425 0 
L 2847 0 
L 2847 2094 
Q 2847 2600 2669 2842 
Q 2491 3084 2119 3084 
Q 1678 3084 1418 2786 
Q 1159 2488 1159 1978 
L 1159 0 
L 581 0 
L 581 3500 
L 1159 3500 
L 1159 2956 
Q 1356 3278 1631 3431 
Q 1906 3584 2284 3584 
Q 2666 3584 2933 3390 
Q 3200 3197 3328 2828 
z
" transform="scale(0.015625)"/>
      <path id="DejaVuSans-2d" d="M 313 2009 
L 1997 2009 
L 1997 1497 
L 313 1497 
L 313 2009 
z
" transform="scale(0.015625)"/>
      <path id="DejaVuSans-41" d="M 2188 4044 
L 1331 1722 
L 3047 1722 
L 2188 4044 
z
M 1831 4666 
L 2547 4666 
L 4325 0 
L 3669 0 
L 3244 1197 
L 1141 1197 
L 716 0 
L 50 0 
L 1831 4666 
z
" transform="scale(0.015625)"/>
      <path id="DejaVuSans-56" d="M 1831 0 
L 50 4666 
L 709 4666 
L 2188 738 
L 3669 4666 
L 4325 4666 
L 2547 0 
L 1831 0 
z
" transform="scale(0.015625)"/>
      <path id="DejaVuSans-46" d="M 628 4666 
L 3309 4666 
L 3309 4134 
L 1259 4134 
L 1259 2759 
L 3109 2759 
L 3109 2228 
L 1259 2228 
L 1259 0 
L 628 0 
L 628 4666 
z
" transform="scale(0.015625)"/>
     </defs>
     <use xlink:href="#DejaVuSans-52"/>
     <use xlink:href="#DejaVuSans-61" x="67.232422"/>
     <use xlink:href="#DejaVuSans-64" x="128.511719"/>
     <use xlink:href="#DejaVuSans-69" x="191.988281"/>
     <use xlink:href="#DejaVuSans-61" x="219.771484"/>
     <use xlink:href="#DejaVuSans-74" x="281.050781"/>
     <use xlink:href="#DejaVuSans-69" x="320.259766"/>
     <use xlink:href="#DejaVuSans-6f" x="348.042969"/>
     <use xlink:href="#DejaVuSans-6e" x="409.224609"/>
     <use xlink:href="#DejaVuSans-20" x="472.603516"/>
     <use xlink:href="#DejaVuSans-44" x="504.390625"/>
     <use xlink:href="#DejaVuSans-69" x="581.392578"/>
     <use xlink:href="#DejaVuSans-61" x="609.175781"/>
     <use xlink:href="#DejaVuSans-67" x="670.455078"/>
     <use xlink:href="#DejaVuSans-72" x="733.931641"/>
     <use xlink:href="#DejaVuSans-61" x="775.044922"/>
     <use xlink:href="#DejaVuSans-6d" x="836.324219"/>
     <use xlink:href="#DejaVuSans-20" x="933.736328"/>
     <use xlink:href="#DejaVuSans-2d" x="965.523438"/>
     <use xlink:href="#DejaVuSans-20" x="1001.607422"/>
     <use xlink:href="#DejaVuSans-33" x="1033.394531"/>
     <use xlink:href="#DejaVuSans-41" x="1097.017578"/>
     <use xlink:href="#DejaVuSans-56" x="1159.050781"/>
     <use xlink:href="#DejaVuSans-56" x="1227.458984"/>
     <use xlink:href="#DejaVuSans-46" x="1295.867188"/>
     <use xlink:href="#DejaVuSans-30" x="1353.386719"/>
     <use xlink:href="#DejaVuSans-36" x="1417.009766"/>
    </g>
   </g>
   <g id="legend_1">
    <g id="patch_4">
     <path d="M 304.104062 78.513437 
L 358.88375 78.513437 
Q 360.88375 78.513437 360.88375 76.513437 
L 360.88375 48.157187 
Q 360.88375 46.157187 358.88375 46.157187 
L 304.104062 46.157187 
Q 302.104062 46.157187 302.104062 48.157187 
L 302.104062 76.513437 
Q 302.104062 78.513437 304.104062 78.513437 
z
" style="fill: #ffffff; opacity: 0.8; stroke: #cccccc; stroke-linejoin: miter"/>
    </g>
    <g id="line2d_21">
     <path d="M 306.104062 54.255625 
L 316.104062 54.255625 
L 326.104062 54.255625 
" style="fill: none; stroke: #ff0000; stroke-width: 1.5; stroke-linecap: square"/>
    </g>
    <g id="text_20">
     <!-- INPE -->
     <g transform="translate(334.104062 57.755625)scale(0.1 -0.1)">
      <defs>
       <path id="DejaVuSans-49" d="M 628 4666 
L 1259 4666 
L 1259 0 
L 628 0 
L 628 4666 
z
" transform="scale(0.015625)"/>
       <path id="DejaVuSans-4e" d="M 628 4666 
L 1478 4666 
L 3547 763 
L 3547 4666 
L 4159 4666 
L 4159 0 
L 3309 0 
L 1241 3903 
L 1241 0 
L 628 0 
L 628 4666 
z
" transform="scale(0.015625)"/>
       <path id="DejaVuSans-50" d="M 1259 4147 
L 1259 2394 
L 2053 2394 
Q 2494 2394 2734 2622 
Q 2975 2850 2975 3272 
Q 2975 3691 2734 3919 
Q 2494 4147 2053 4147 
L 1259 4147 
z
M 628 4666 
L 2053 4666 
Q 2838 4666 3239 4311 
Q 3641 3956 3641 3272 
Q 3641 2581 3239 2228 
Q 2838 1875 2053 1875 
L 1259 1875 
L 1259 0 
L 628 0 
L 628 4666 
z
" transform="scale(0.015625)"/>
       <path id="DejaVuSans-45" d="M 628 4666 
L 3578 4666 
L 3578 4134 
L 1259 4134 
L 1259 2753 
L 3481 2753 
L 3481 2222 
L 1259 2222 
L 1259 531 
L 3634 531 
L 3634 0 
L 628 0 
L 628 4666 
z
" transform="scale(0.015625)"/>
      </defs>
      <use xlink:href="#DejaVuSans-49"/>
      <use xlink:href="#DejaVuSans-4e" x="29.492188"/>
      <use xlink:href="#DejaVuSans-50" x="104.296875"/>
      <use xlink:href="#DejaVuSans-45" x="164.599609"/>
     </g>
    </g>
    <g id="line2d_22">
     <path d="M 306.104062 68.93375 
L 316.104062 68.93375 
L 326.104062 68.93375 
" style="fill: none; stroke-dasharray: 5.55,2.4; stroke-dashoffset: 0; stroke: #0000ff; stroke-width: 1.5"/>
    </g>
    <g id="text_21">
     <!-- CST -->
     <g transform="translate(334.104062 72.43375)scale(0.1 -0.1)">
      <defs>
       <path id="DejaVuSans-43" d="M 4122 4306 
L 4122 3641 
Q 3803 3938 3442 4084 
Q 3081 4231 2675 4231 
Q 1875 4231 1450 3742 
Q 1025 3253 1025 2328 
Q 1025 1406 1450 917 
Q 1875 428 2675 428 
Q 3081 428 3442 575 
Q 3803 722 4122 1019 
L 4122 359 
Q 3791 134 3420 21 
Q 3050 -91 2638 -91 
Q 1578 -91 968 557 
Q 359 1206 359 2328 
Q 359 3453 968 4101 
Q 1578 4750 2638 4750 
Q 3056 4750 3426 4639 
Q 3797 4528 4122 4306 
z
" transform="scale(0.015625)"/>
       <path id="DejaVuSans-53" d="M 3425 4513 
L 3425 3897 
Q 3066 4069 2747 4153 
Q 2428 4238 2131 4238 
Q 1616 4238 1336 4038 
Q 1056 3838 1056 3469 
Q 1056 3159 1242 3001 
Q 1428 2844 1947 2747 
L 2328 2669 
Q 3034 2534 3370 2195 
Q 3706 1856 3706 1288 
Q 3706 609 3251 259 
Q 2797 -91 1919 -91 
Q 1588 -91 1214 -16 
Q 841 59 441 206 
L 441 856 
Q 825 641 1194 531 
Q 1563 422 1919 422 
Q 2459 422 2753 634 
Q 3047 847 3047 1241 
Q 3047 1584 2836 1778 
Q 2625 1972 2144 2069 
L 1759 2144 
Q 1053 2284 737 2584 
Q 422 2884 422 3419 
Q 422 4038 858 4394 
Q 1294 4750 2059 4750 
Q 2388 4750 2728 4690 
Q 3069 4631 3425 4513 
z
" transform="scale(0.015625)"/>
       <path id="DejaVuSans-54" d="M -19 4666 
L 3928 4666 
L 3928 4134 
L 2272 4134 
L 2272 0 
L 1638 0 
L 1638 4134 
L -19 4134 
L -19 4666 
z
" transform="scale(0.015625)"/>
      </defs>
      <use xlink:href="#DejaVuSans-43"/>
      <use xlink:href="#DejaVuSans-53" x="69.824219"/>
      <use xlink:href="#DejaVuSans-54" x="133.300781"/>
     </g>
    </g>
   </g>
  </g>
 </g>
 <defs>
  <clipPath id="pb08285ac71">
   <path d="M 365.88375 207.477187 
C 365.88375 185.636245 361.581561 164.007679 353.223394 143.829279 
C 344.865227 123.650879 332.613628 105.315066 317.16975 89.871188 
C 301.725871 74.427309 283.390058 62.17571 263.211658 53.817544 
C 243.033259 45.459377 221.404692 41.157187 199.56375 41.157187 
C 177.722808 41.157187 156.094241 45.459377 135.915842 53.817544 
C 115.737442 62.17571 97.401629 74.427309 81.95775 89.871188 
C 66.513872 105.315066 54.262273 123.650879 45.904106 143.829279 
C 37.545939 164.007679 33.24375 185.636245 33.24375 207.477187 
C 33.24375 229.31813 37.545939 250.946696 45.904106 271.125096 
C 54.262273 291.303496 66.513872 309.639309 81.95775 325.083187 
C 97.401629 340.527066 115.737442 352.778665 135.915842 361.136831 
C 156.094241 369.494998 177.722808 373.797187 199.56375 373.797187 
C 221.404692 373.797187 243.033259 369.494998 263.211658 361.136831 
C 283.390058 352.778665 301.725871 340.527066 317.16975 325.083187 
C 332.613628 309.639309 344.865227 291.303496 353.223394 271.125096 
C 361.581561 250.946696 365.88375 229.31813 365.88375 207.477187 
M 199.56375 207.477187 
C 199.56375 207.477187 199.56375 207.477187 199.56375 207.477187 
C 199.56375 207.477187 199.56375 207.477187 199.56375 207.477187 
C 199.56375 207.477187 199.56375 207.477187 199.56375 207.477187 
C 199.56375 207.477187 199.56375 207.477187 199.56375 207.477187 
C 199.56375 207.477187 199.56375 207.477187 199.56375 207.477187 
C 199.56375 207.477187 199.56375 207.477187 199.56375 207.477187 
C 199.56375 207.477187 199.56375 207.477187 199.56375 207.477187 
C 199.56375 207.477187 199.56375 207.477187 199.56375 207.477187 
C 199.56375 207.477187 199.56375 207.477187 199.56375 207.477187 
C 199.56375 207.477187 199.56375 207.477187 199.56375 207.477187 
C 199.56375 207.477187 199.56375 207.477187 199.56375 207.477187 
C 199.56375 207.477187 199.56375 207.477187 199.56375 207.477187 
C 199.56375 207.477187 199.56375 207.477187 199.56375 207.477187 
C 199.56375 207.477187 199.56375 207.477187 199.56375 207.477187 
C 199.56375 207.477187 199.56375 207.477187 199.56375 207.477187 
C 199.56375 207.477187 199.56375 207.477187 199.56375 207.477187 
M 365.88375 207.477187 
z
"/>
  </clipPath>
 </defs>
</svg>
