<?xml version="1.0" encoding="utf-8" standalone="no"?>
<!DOCTYPE svg PUBLIC "-//W3C//DTD SVG 1.1//EN"
  "http://www.w3.org/Graphics/SVG/1.1/DTD/svg11.dtd">
<svg xmlns:xlink="http://www.w3.org/1999/xlink" width="506.82625pt" height="514.053188pt" viewBox="0 0 506.82625 514.053188" xmlns="http://www.w3.org/2000/svg" version="1.1">
 <metadata>
  <rdf:RDF xmlns:dc="http://purl.org/dc/elements/1.1/" xmlns:cc="http://creativecommons.org/ns#" xmlns:rdf="http://www.w3.org/1999/02/22-rdf-syntax-ns#">
   <cc:Work>
    <dc:type rdf:resource="http://purl.org/dc/dcmitype/StillImage"/>
    <dc:date>2023-11-04T18:12:23.588481</dc:date>
    <dc:format>image/svg+xml</dc:format>
    <dc:creator>
     <cc:Agent>
      <dc:title>Matplotlib v3.5.1, https://matplotlib.org/</dc:title>
     </cc:Agent>
    </dc:creator>
   </cc:Work>
  </rdf:RDF>
 </metadata>
 <defs>
  <style type="text/css">*{stroke-linejoin: round; stroke-linecap: butt}</style>
 </defs>
 <g id="figure_1">
  <g id="patch_1">
   <path d="M 0 514.053188 
L 506.82625 514.053188 
L 506.82625 0 
L 0 0 
z
" style="fill: #ffffff"/>
  </g>
  <g id="axes_1">
   <g id="patch_2">
    <path d="M 473.5825 262.917188 
C 473.5825 233.795931 467.846247 204.957842 456.702025 178.05331 
C 445.557803 151.148777 429.222338 126.701026 408.6305 106.109188 
C 388.038662 85.51735 363.590911 69.181885 336.686378 58.037662 
C 309.781845 46.89344 280.943756 41.157188 251.8225 41.157188 
C 222.701244 41.157188 193.863155 46.89344 166.958622 58.037662 
C 140.054089 69.181885 115.606338 85.51735 95.0145 106.109188 
C 74.422662 126.701026 58.087197 151.148777 46.942975 178.05331 
C 35.798753 204.957842 30.0625 233.795931 30.0625 262.917188 
C 30.0625 292.038444 35.798753 320.876533 46.942975 347.781065 
C 58.087197 374.685598 74.422662 399.133349 95.0145 419.725187 
C 115.606338 440.317025 140.054089 456.65249 166.958622 467.796713 
C 193.863155 478.940935 222.701244 484.677188 251.8225 484.677188 
C 280.943756 484.677188 309.781845 478.940935 336.686378 467.796713 
C 363.590911 456.65249 388.038662 440.317025 408.6305 419.725187 
C 429.222338 399.133349 445.557803 374.685598 456.702025 347.781065 
C 467.846247 320.876533 473.5825 292.038444 473.5825 262.917188 
M 251.8225 262.917188 
C 251.8225 262.917188 251.8225 262.917188 251.8225 262.917188 
C 251.8225 262.917188 251.8225 262.917188 251.8225 262.917188 
C 251.8225 262.917188 251.8225 262.917188 251.8225 262.917188 
C 251.8225 262.917188 251.8225 262.917188 251.8225 262.917188 
C 251.8225 262.917188 251.8225 262.917188 251.8225 262.917188 
C 251.8225 262.917188 251.8225 262.917188 251.8225 262.917188 
C 251.8225 262.917188 251.8225 262.917188 251.8225 262.917188 
C 251.8225 262.917188 251.8225 262.917188 251.8225 262.917188 
C 251.8225 262.917188 251.8225 262.917188 251.8225 262.917188 
C 251.8225 262.917188 251.8225 262.917188 251.8225 262.917188 
C 251.8225 262.917188 251.8225 262.917188 251.8225 262.917188 
C 251.8225 262.917188 251.8225 262.917188 251.8225 262.917188 
C 251.8225 262.917188 251.8225 262.917188 251.8225 262.917188 
C 251.8225 262.917188 251.8225 262.917188 251.8225 262.917188 
C 251.8225 262.917188 251.8225 262.917188 251.8225 262.917188 
C 251.8225 262.917188 251.8225 262.917188 251.8225 262.917188 
M 473.5825 262.917188 
z
" style="fill: #ffffff"/>
   </g>
   <g id="matplotlib.axis_1">
    <g id="xtick_1">
     <g id="line2d_1">
      <path d="M 251.8225 262.917188 
L 251.8225 41.157188 
" clip-path="url(#pd96bf47793)" style="fill: none; stroke: #b0b0b0; stroke-width: 0.8; stroke-linecap: square"/>
     </g>
     <g id="text_1">
      <!-- 0° -->
      <g transform="translate(246.14125 29.916563)scale(0.1 -0.1)">
       <defs>
        <path id="DejaVuSans-30" d="M 2034 4250 
Q 1547 4250 1301 3770 
Q 1056 3291 1056 2328 
Q 1056 1369 1301 889 
Q 1547 409 2034 409 
Q 2525 409 2770 889 
Q 3016 1369 3016 2328 
Q 3016 3291 2770 3770 
Q 2525 4250 2034 4250 
z
M 2034 4750 
Q 2819 4750 3233 4129 
Q 3647 3509 3647 2328 
Q 3647 1150 3233 529 
Q 2819 -91 2034 -91 
Q 1250 -91 836 529 
Q 422 1150 422 2328 
Q 422 3509 836 4129 
Q 1250 4750 2034 4750 
z
" transform="scale(0.015625)"/>
        <path id="DejaVuSans-b0" d="M 1600 4347 
Q 1350 4347 1178 4173 
Q 1006 4000 1006 3750 
Q 1006 3503 1178 3333 
Q 1350 3163 1600 3163 
Q 1850 3163 2022 3333 
Q 2194 3503 2194 3750 
Q 2194 3997 2020 4172 
Q 1847 4347 1600 4347 
z
M 1600 4750 
Q 1800 4750 1984 4673 
Q 2169 4597 2303 4453 
Q 2447 4313 2519 4134 
Q 2591 3956 2591 3750 
Q 2591 3338 2302 3052 
Q 2013 2766 1594 2766 
Q 1172 2766 890 3047 
Q 609 3328 609 3750 
Q 609 4169 896 4459 
Q 1184 4750 1600 4750 
z
" transform="scale(0.015625)"/>
       </defs>
       <use xlink:href="#DejaVuSans-30"/>
       <use xlink:href="#DejaVuSans-b0" x="63.623047"/>
      </g>
     </g>
    </g>
    <g id="xtick_2">
     <g id="line2d_2">
      <path d="M 251.8225 262.917188 
L 95.0145 106.109188 
" clip-path="url(#pd96bf47793)" style="fill: none; stroke: #b0b0b0; stroke-width: 0.8; stroke-linecap: square"/>
     </g>
     <g id="text_2">
      <!-- 45° -->
      <g transform="translate(76.252505 98.969068)scale(0.1 -0.1)">
       <defs>
        <path id="DejaVuSans-34" d="M 2419 4116 
L 825 1625 
L 2419 1625 
L 2419 4116 
z
M 2253 4666 
L 3047 4666 
L 3047 1625 
L 3713 1625 
L 3713 1100 
L 3047 1100 
L 3047 0 
L 2419 0 
L 2419 1100 
L 313 1100 
L 313 1709 
L 2253 4666 
z
" transform="scale(0.015625)"/>
        <path id="DejaVuSans-35" d="M 691 4666 
L 3169 4666 
L 3169 4134 
L 1269 4134 
L 1269 2991 
Q 1406 3038 1543 3061 
Q 1681 3084 1819 3084 
Q 2600 3084 3056 2656 
Q 3513 2228 3513 1497 
Q 3513 744 3044 326 
Q 2575 -91 1722 -91 
Q 1428 -91 1123 -41 
Q 819 9 494 109 
L 494 744 
Q 775 591 1075 516 
Q 1375 441 1709 441 
Q 2250 441 2565 725 
Q 2881 1009 2881 1497 
Q 2881 1984 2565 2268 
Q 2250 2553 1709 2553 
Q 1456 2553 1204 2497 
Q 953 2441 691 2322 
L 691 4666 
z
" transform="scale(0.015625)"/>
       </defs>
       <use xlink:href="#DejaVuSans-34"/>
       <use xlink:href="#DejaVuSans-35" x="63.623047"/>
       <use xlink:href="#DejaVuSans-b0" x="127.246094"/>
      </g>
     </g>
    </g>
    <g id="xtick_3">
     <g id="line2d_3">
      <path d="M 251.8225 262.917188 
L 30.0625 262.917188 
" clip-path="url(#pd96bf47793)" style="fill: none; stroke: #b0b0b0; stroke-width: 0.8; stroke-linecap: square"/>
     </g>
     <g id="text_3">
      <!-- 90° -->
      <g transform="translate(7.2 265.676563)scale(0.1 -0.1)">
       <defs>
        <path id="DejaVuSans-39" d="M 703 97 
L 703 672 
Q 941 559 1184 500 
Q 1428 441 1663 441 
Q 2288 441 2617 861 
Q 2947 1281 2994 2138 
Q 2813 1869 2534 1725 
Q 2256 1581 1919 1581 
Q 1219 1581 811 2004 
Q 403 2428 403 3163 
Q 403 3881 828 4315 
Q 1253 4750 1959 4750 
Q 2769 4750 3195 4129 
Q 3622 3509 3622 2328 
Q 3622 1225 3098 567 
Q 2575 -91 1691 -91 
Q 1453 -91 1209 -44 
Q 966 3 703 97 
z
M 1959 2075 
Q 2384 2075 2632 2365 
Q 2881 2656 2881 3163 
Q 2881 3666 2632 3958 
Q 2384 4250 1959 4250 
Q 1534 4250 1286 3958 
Q 1038 3666 1038 3163 
Q 1038 2656 1286 2365 
Q 1534 2075 1959 2075 
z
" transform="scale(0.015625)"/>
       </defs>
       <use xlink:href="#DejaVuSans-39"/>
       <use xlink:href="#DejaVuSans-30" x="63.623047"/>
       <use xlink:href="#DejaVuSans-b0" x="127.246094"/>
      </g>
     </g>
    </g>
    <g id="xtick_4">
     <g id="line2d_4">
      <path d="M 251.8225 262.917188 
L 95.0145 419.725187 
" clip-path="url(#pd96bf47793)" style="fill: none; stroke: #b0b0b0; stroke-width: 0.8; stroke-linecap: square"/>
     </g>
     <g id="text_4">
      <!-- 135° -->
      <g transform="translate(73.071255 432.384057)scale(0.1 -0.1)">
       <defs>
        <path id="DejaVuSans-31" d="M 794 531 
L 1825 531 
L 1825 4091 
L 703 3866 
L 703 4441 
L 1819 4666 
L 2450 4666 
L 2450 531 
L 3481 531 
L 3481 0 
L 794 0 
L 794 531 
z
" transform="scale(0.015625)"/>
        <path id="DejaVuSans-33" d="M 2597 2516 
Q 3050 2419 3304 2112 
Q 3559 1806 3559 1356 
Q 3559 666 3084 287 
Q 2609 -91 1734 -91 
Q 1441 -91 1130 -33 
Q 819 25 488 141 
L 488 750 
Q 750 597 1062 519 
Q 1375 441 1716 441 
Q 2309 441 2620 675 
Q 2931 909 2931 1356 
Q 2931 1769 2642 2001 
Q 2353 2234 1838 2234 
L 1294 2234 
L 1294 2753 
L 1863 2753 
Q 2328 2753 2575 2939 
Q 2822 3125 2822 3475 
Q 2822 3834 2567 4026 
Q 2313 4219 1838 4219 
Q 1578 4219 1281 4162 
Q 984 4106 628 3988 
L 628 4550 
Q 988 4650 1302 4700 
Q 1616 4750 1894 4750 
Q 2613 4750 3031 4423 
Q 3450 4097 3450 3541 
Q 3450 3153 3228 2886 
Q 3006 2619 2597 2516 
z
" transform="scale(0.015625)"/>
       </defs>
       <use xlink:href="#DejaVuSans-31"/>
       <use xlink:href="#DejaVuSans-33" x="63.623047"/>
       <use xlink:href="#DejaVuSans-35" x="127.246094"/>
       <use xlink:href="#DejaVuSans-b0" x="190.869141"/>
      </g>
     </g>
    </g>
    <g id="xtick_5">
     <g id="line2d_5">
      <path d="M 251.8225 262.917188 
L 251.8225 484.677188 
" clip-path="url(#pd96bf47793)" style="fill: none; stroke: #b0b0b0; stroke-width: 0.8; stroke-linecap: square"/>
     </g>
     <g id="text_5">
      <!-- 180° -->
      <g transform="translate(239.77875 501.436563)scale(0.1 -0.1)">
       <defs>
        <path id="DejaVuSans-38" d="M 2034 2216 
Q 1584 2216 1326 1975 
Q 1069 1734 1069 1313 
Q 1069 891 1326 650 
Q 1584 409 2034 409 
Q 2484 409 2743 651 
Q 3003 894 3003 1313 
Q 3003 1734 2745 1975 
Q 2488 2216 2034 2216 
z
M 1403 2484 
Q 997 2584 770 2862 
Q 544 3141 544 3541 
Q 544 4100 942 4425 
Q 1341 4750 2034 4750 
Q 2731 4750 3128 4425 
Q 3525 4100 3525 3541 
Q 3525 3141 3298 2862 
Q 3072 2584 2669 2484 
Q 3125 2378 3379 2068 
Q 3634 1759 3634 1313 
Q 3634 634 3220 271 
Q 2806 -91 2034 -91 
Q 1263 -91 848 271 
Q 434 634 434 1313 
Q 434 1759 690 2068 
Q 947 2378 1403 2484 
z
M 1172 3481 
Q 1172 3119 1398 2916 
Q 1625 2713 2034 2713 
Q 2441 2713 2670 2916 
Q 2900 3119 2900 3481 
Q 2900 3844 2670 4047 
Q 2441 4250 2034 4250 
Q 1625 4250 1398 4047 
Q 1172 3844 1172 3481 
z
" transform="scale(0.015625)"/>
       </defs>
       <use xlink:href="#DejaVuSans-31"/>
       <use xlink:href="#DejaVuSans-38" x="63.623047"/>
       <use xlink:href="#DejaVuSans-30" x="127.246094"/>
       <use xlink:href="#DejaVuSans-b0" x="190.869141"/>
      </g>
     </g>
    </g>
    <g id="xtick_6">
     <g id="line2d_6">
      <path d="M 251.8225 262.917188 
L 408.6305 419.725187 
" clip-path="url(#pd96bf47793)" style="fill: none; stroke: #b0b0b0; stroke-width: 0.8; stroke-linecap: square"/>
     </g>
     <g id="text_6">
      <!-- 225° -->
      <g transform="translate(406.486245 432.384057)scale(0.1 -0.1)">
       <defs>
        <path id="DejaVuSans-32" d="M 1228 531 
L 3431 531 
L 3431 0 
L 469 0 
L 469 531 
Q 828 903 1448 1529 
Q 2069 2156 2228 2338 
Q 2531 2678 2651 2914 
Q 2772 3150 2772 3378 
Q 2772 3750 2511 3984 
Q 2250 4219 1831 4219 
Q 1534 4219 1204 4116 
Q 875 4013 500 3803 
L 500 4441 
Q 881 4594 1212 4672 
Q 1544 4750 1819 4750 
Q 2544 4750 2975 4387 
Q 3406 4025 3406 3419 
Q 3406 3131 3298 2873 
Q 3191 2616 2906 2266 
Q 2828 2175 2409 1742 
Q 1991 1309 1228 531 
z
" transform="scale(0.015625)"/>
       </defs>
       <use xlink:href="#DejaVuSans-32"/>
       <use xlink:href="#DejaVuSans-32" x="63.623047"/>
       <use xlink:href="#DejaVuSans-35" x="127.246094"/>
       <use xlink:href="#DejaVuSans-b0" x="190.869141"/>
      </g>
     </g>
    </g>
    <g id="xtick_7">
     <g id="line2d_7">
      <path d="M 251.8225 262.917188 
L 473.5825 262.917188 
" clip-path="url(#pd96bf47793)" style="fill: none; stroke: #b0b0b0; stroke-width: 0.8; stroke-linecap: square"/>
     </g>
     <g id="text_7">
      <!-- 270° -->
      <g transform="translate(475.53875 265.676563)scale(0.1 -0.1)">
       <defs>
        <path id="DejaVuSans-37" d="M 525 4666 
L 3525 4666 
L 3525 4397 
L 1831 0 
L 1172 0 
L 2766 4134 
L 525 4134 
L 525 4666 
z
" transform="scale(0.015625)"/>
       </defs>
       <use xlink:href="#DejaVuSans-32"/>
       <use xlink:href="#DejaVuSans-37" x="63.623047"/>
       <use xlink:href="#DejaVuSans-30" x="127.246094"/>
       <use xlink:href="#DejaVuSans-b0" x="190.869141"/>
      </g>
     </g>
    </g>
    <g id="xtick_8">
     <g id="line2d_8">
      <path d="M 251.8225 262.917188 
L 408.6305 106.109188 
" clip-path="url(#pd96bf47793)" style="fill: none; stroke: #b0b0b0; stroke-width: 0.8; stroke-linecap: square"/>
     </g>
     <g id="text_8">
      <!-- 315° -->
      <g transform="translate(406.486245 98.969068)scale(0.1 -0.1)">
       <use xlink:href="#DejaVuSans-33"/>
       <use xlink:href="#DejaVuSans-31" x="63.623047"/>
       <use xlink:href="#DejaVuSans-35" x="127.246094"/>
       <use xlink:href="#DejaVuSans-b0" x="190.869141"/>
      </g>
     </g>
    </g>
   </g>
   <g id="matplotlib.axis_2">
    <g id="ytick_1">
     <g id="line2d_9">
      <path d="M 251.8225 244.398267 
C 249.390618 244.398267 246.982382 244.877295 244.735616 245.807936 
C 242.48885 246.738577 240.447246 248.102733 238.727646 249.822333 
C 237.008045 251.541934 235.643889 253.583537 234.713248 255.830303 
C 233.782607 258.07707 233.303579 260.485305 233.303579 262.917188 
C 233.303579 265.34907 233.782607 267.757305 234.713248 270.004072 
C 235.643889 272.250838 237.008045 274.292441 238.727646 276.012042 
C 240.447246 277.731642 242.48885 279.095798 244.735616 280.026439 
C 246.982382 280.95708 249.390618 281.436108 251.8225 281.436108 
C 254.254382 281.436108 256.662618 280.95708 258.909384 280.026439 
C 261.15615 279.095798 263.197754 277.731642 264.917354 276.012042 
C 266.636955 274.292441 268.001111 272.250838 268.931752 270.004072 
C 269.862393 267.757305 270.341421 265.34907 270.341421 262.917188 
C 270.341421 260.485305 269.862393 258.07707 268.931752 255.830303 
C 268.001111 253.583537 266.636955 251.541934 264.917354 249.822333 
C 263.197754 248.102733 261.15615 246.738577 258.909384 245.807936 
C 256.662618 244.877295 254.254382 244.398267 251.8225 244.398267 
" clip-path="url(#pd96bf47793)" style="fill: none; stroke: #b0b0b0; stroke-width: 0.8; stroke-linecap: square"/>
     </g>
     <g id="text_9">
      <!-- −50 -->
      <g transform="translate(244.735616 243.728248)scale(0.1 -0.1)">
       <defs>
        <path id="DejaVuSans-2212" d="M 678 2272 
L 4684 2272 
L 4684 1741 
L 678 1741 
L 678 2272 
z
" transform="scale(0.015625)"/>
       </defs>
       <use xlink:href="#DejaVuSans-2212"/>
       <use xlink:href="#DejaVuSans-35" x="83.789062"/>
       <use xlink:href="#DejaVuSans-30" x="147.412109"/>
      </g>
     </g>
    </g>
    <g id="ytick_2">
     <g id="line2d_10">
      <path d="M 251.8225 203.750051 
C 244.052743 203.750051 236.358537 205.280524 229.180217 208.253881 
C 222.001897 211.227238 215.479065 215.585656 209.985017 221.079704 
C 204.490969 226.573752 200.132551 233.096585 197.159194 240.274905 
C 194.185836 247.453224 192.655363 255.14743 192.655363 262.917188 
C 192.655363 270.686945 194.185836 278.381151 197.159194 285.55947 
C 200.132551 292.73779 204.490969 299.260623 209.985017 304.754671 
C 215.479065 310.248719 222.001897 314.607137 229.180217 317.580494 
C 236.358537 320.553851 244.052743 322.084324 251.8225 322.084324 
C 259.592257 322.084324 267.286463 320.553851 274.464783 317.580494 
C 281.643103 314.607137 288.165935 310.248719 293.659983 304.754671 
C 299.154031 299.260623 303.512449 292.73779 306.485806 285.55947 
C 309.459164 278.381151 310.989637 270.686945 310.989637 262.917188 
C 310.989637 255.14743 309.459164 247.453224 306.485806 240.274905 
C 303.512449 233.096585 299.154031 226.573752 293.659983 221.079704 
C 288.165935 215.585656 281.643103 211.227238 274.464783 208.253881 
C 267.286463 205.280524 259.592257 203.750051 251.8225 203.750051 
" clip-path="url(#pd96bf47793)" style="fill: none; stroke: #b0b0b0; stroke-width: 0.8; stroke-linecap: square"/>
     </g>
     <g id="text_10">
      <!-- −40 -->
      <g transform="translate(229.180217 206.174194)scale(0.1 -0.1)">
       <use xlink:href="#DejaVuSans-2212"/>
       <use xlink:href="#DejaVuSans-34" x="83.789062"/>
       <use xlink:href="#DejaVuSans-30" x="147.412109"/>
      </g>
     </g>
    </g>
    <g id="ytick_3">
     <g id="line2d_11">
      <path d="M 251.8225 163.101835 
C 238.714868 163.101835 225.734691 165.683753 213.624818 170.699826 
C 201.514945 175.7159 190.510883 183.068579 181.242387 192.337075 
C 171.973892 201.60557 164.621212 212.609633 159.605139 224.719506 
C 154.589065 236.829379 152.007148 249.809556 152.007148 262.917188 
C 152.007148 276.024819 154.589065 289.004996 159.605139 301.114869 
C 164.621212 313.224742 171.973892 324.228805 181.242387 333.4973 
C 190.510883 342.765796 201.514945 350.118475 213.624818 355.134549 
C 225.734691 360.150622 238.714868 362.73254 251.8225 362.73254 
C 264.930132 362.73254 277.910309 360.150622 290.020182 355.134549 
C 302.130055 350.118475 313.134117 342.765796 322.402613 333.4973 
C 331.671108 324.228805 339.023788 313.224742 344.039861 301.114869 
C 349.055935 289.004996 351.637852 276.024819 351.637852 262.917188 
C 351.637852 249.809556 349.055935 236.829379 344.039861 224.719506 
C 339.023788 212.609633 331.671108 201.60557 322.402613 192.337075 
C 313.134117 183.068579 302.130055 175.7159 290.020182 170.699826 
C 277.910309 165.683753 264.930132 163.101835 251.8225 163.101835 
" clip-path="url(#pd96bf47793)" style="fill: none; stroke: #b0b0b0; stroke-width: 0.8; stroke-linecap: square"/>
     </g>
     <g id="text_11">
      <!-- −30 -->
      <g transform="translate(213.624818 168.620139)scale(0.1 -0.1)">
       <use xlink:href="#DejaVuSans-2212"/>
       <use xlink:href="#DejaVuSans-33" x="83.789062"/>
       <use xlink:href="#DejaVuSans-30" x="147.412109"/>
      </g>
     </g>
    </g>
    <g id="ytick_4">
     <g id="line2d_12">
      <path d="M 251.8225 122.453619 
C 233.376993 122.453619 215.110846 126.086982 198.06942 133.145772 
C 181.027993 140.204562 165.542701 150.551503 152.499758 163.594446 
C 139.456815 176.637389 129.109874 192.122681 122.051084 209.164107 
C 114.992294 226.205533 111.358932 244.471681 111.358932 262.917188 
C 111.358932 281.362694 114.992294 299.628842 122.051084 316.670268 
C 129.109874 333.711694 139.456815 349.196986 152.499758 362.239929 
C 165.542701 375.282872 181.027993 385.629813 198.06942 392.688603 
C 215.110846 399.747393 233.376993 403.380756 251.8225 403.380756 
C 270.268007 403.380756 288.534154 399.747393 305.57558 392.688603 
C 322.617007 385.629813 338.102299 375.282872 351.145242 362.239929 
C 364.188185 349.196986 374.535126 333.711694 381.593916 316.670268 
C 388.652706 299.628842 392.286068 281.362694 392.286068 262.917188 
C 392.286068 244.471681 388.652706 226.205533 381.593916 209.164107 
C 374.535126 192.122681 364.188185 176.637389 351.145242 163.594446 
C 338.102299 150.551503 322.617007 140.204562 305.57558 133.145772 
C 288.534154 126.086982 270.268007 122.453619 251.8225 122.453619 
" clip-path="url(#pd96bf47793)" style="fill: none; stroke: #b0b0b0; stroke-width: 0.8; stroke-linecap: square"/>
     </g>
     <g id="text_12">
      <!-- −20 -->
      <g transform="translate(198.06942 131.066084)scale(0.1 -0.1)">
       <use xlink:href="#DejaVuSans-2212"/>
       <use xlink:href="#DejaVuSans-32" x="83.789062"/>
       <use xlink:href="#DejaVuSans-30" x="147.412109"/>
      </g>
     </g>
    </g>
    <g id="ytick_5">
     <g id="line2d_13">
      <path d="M 251.8225 81.805403 
C 228.039118 81.805403 204.487 86.490211 182.514021 95.591717 
C 160.541041 104.693223 140.57452 118.034426 123.757129 134.851817 
C 106.939739 151.669207 93.598536 171.635729 84.49703 193.608708 
C 75.395523 215.581688 70.710716 239.133806 70.710716 262.917188 
C 70.710716 286.700569 75.395523 310.252687 84.49703 332.225667 
C 93.598536 354.198646 106.939739 374.165168 123.757129 390.982558 
C 140.57452 407.799949 160.541041 421.141152 182.514021 430.242658 
C 204.487 439.344164 228.039118 444.028972 251.8225 444.028972 
C 275.605882 444.028972 299.158 439.344164 321.130979 430.242658 
C 343.103959 421.141152 363.07048 407.799949 379.887871 390.982558 
C 396.705261 374.165168 410.046464 354.198646 419.14797 332.225667 
C 428.249477 310.252687 432.934284 286.700569 432.934284 262.917188 
C 432.934284 239.133806 428.249477 215.581688 419.14797 193.608708 
C 410.046464 171.635729 396.705261 151.669207 379.887871 134.851817 
C 363.07048 118.034426 343.103959 104.693223 321.130979 95.591717 
C 299.158 86.490211 275.605882 81.805403 251.8225 81.805403 
" clip-path="url(#pd96bf47793)" style="fill: none; stroke: #b0b0b0; stroke-width: 0.8; stroke-linecap: square"/>
     </g>
     <g id="text_13">
      <!-- −10 -->
      <g transform="translate(182.514021 93.51203)scale(0.1 -0.1)">
       <use xlink:href="#DejaVuSans-2212"/>
       <use xlink:href="#DejaVuSans-31" x="83.789062"/>
       <use xlink:href="#DejaVuSans-30" x="147.412109"/>
      </g>
     </g>
    </g>
    <g id="ytick_6">
     <g id="line2d_14">
      <path d="M 251.8225 41.157188 
C 222.701244 41.157188 193.863155 46.89344 166.958622 58.037662 
C 140.054089 69.181885 115.606338 85.51735 95.0145 106.109188 
C 74.422662 126.701026 58.087197 151.148777 46.942975 178.05331 
C 35.798753 204.957842 30.0625 233.795931 30.0625 262.917188 
C 30.0625 292.038444 35.798753 320.876533 46.942975 347.781065 
C 58.087197 374.685598 74.422662 399.133349 95.0145 419.725187 
C 115.606338 440.317025 140.054089 456.65249 166.958622 467.796713 
C 193.863155 478.940935 222.701244 484.677188 251.8225 484.677188 
C 280.943756 484.677188 309.781845 478.940935 336.686378 467.796713 
C 363.590911 456.65249 388.038662 440.317025 408.6305 419.725187 
C 429.222338 399.133349 445.557803 374.685598 456.702025 347.781065 
C 467.846247 320.876533 473.5825 292.038444 473.5825 262.917188 
C 473.5825 233.795931 467.846247 204.957842 456.702025 178.05331 
C 445.557803 151.148777 429.222338 126.701026 408.6305 106.109188 
C 388.038662 85.51735 363.590911 69.181885 336.686378 58.037662 
C 309.781845 46.89344 280.943756 41.157188 251.8225 41.157188 
" clip-path="url(#pd96bf47793)" style="fill: none; stroke: #b0b0b0; stroke-width: 0.8; stroke-linecap: square"/>
     </g>
     <g id="text_14">
      <!-- 0 -->
      <g transform="translate(166.958622 55.957975)scale(0.1 -0.1)">
       <use xlink:href="#DejaVuSans-30"/>
      </g>
     </g>
    </g>
   </g>
   <g id="line2d_15">
    <path d="M 251.8225 468.287827 
L 255.402526 468.01676 
L 258.962595 467.38275 
L 265.997584 465.630337 
L 269.441501 464.303291 
L 272.825598 462.748316 
L 276.186584 461.34673 
L 279.411741 459.224837 
L 285.631178 454.655729 
L 288.504638 451.63043 
L 294.151161 446.26276 
L 296.66601 442.774684 
L 299.224758 439.824822 
L 301.583454 436.454256 
L 303.5575 432.134747 
L 305.652495 428.588877 
L 307.566954 424.810838 
L 309.218868 420.612412 
L 311.375236 418.05737 
L 316.554741 415.416791 
L 319.680868 415.329577 
L 323.259862 416.115105 
L 327.164639 417.391464 
L 331.026471 418.363733 
L 335.505876 420.302728 
L 339.851891 421.726413 
L 343.95351 422.492779 
L 348.587705 423.961533 
L 357.022716 424.911314 
L 361.845503 426.032997 
L 370.209211 425.862516 
L 374.727788 426.018013 
L 382.944058 424.838827 
L 387.022452 424.042216 
L 398.283181 419.977039 
L 405.264738 416.359425 
L 408.545038 414.262383 
L 411.614375 411.925521 
L 414.852136 409.709731 
L 417.827879 407.223462 
L 420.591991 404.531605 
L 423.473735 401.917617 
L 426.177781 399.138462 
L 428.768841 396.25582 
L 433.477657 390.113498 
L 435.508117 386.814701 
L 439.272051 380.048667 
L 440.907946 376.531186 
L 443.840597 369.354557 
L 445.101874 365.685654 
L 447.237197 358.227303 
L 448.038245 354.414092 
L 448.53203 350.497913 
L 449.184943 346.692574 
L 449.399631 342.74353 
L 449.411739 338.76459 
L 449.609116 334.905628 
L 449.424849 330.957133 
L 449.066791 327.005742 
L 448.853034 323.155467 
L 447.211304 315.27146 
L 446.351971 311.418832 
L 440.787121 299.648189 
L 432.431624 288.300145 
L 428.207409 284.574531 
L 423.582133 280.969852 
L 418.550185 277.50397 
L 412.392867 274.145361 
L 403.548774 270.868825 
L 392.931724 267.84483 
L 377.86927 265.117342 
L 345.300796 262.917188 
L 337.991315 261.413105 
L 372.100017 258.717004 
L 386.305076 255.869254 
L 399.242762 252.608559 
L 407.058119 249.335831 
L 420.247295 242.237223 
L 424.40525 238.662264 
L 432.520581 231.05524 
L 437.683987 223.411109 
L 440.138676 219.440972 
L 441.555971 215.61132 
L 443.249651 211.624437 
L 444.591581 207.641543 
L 445.202946 203.794852 
L 445.974091 199.833512 
L 446.29635 195.954471 
L 446.362385 192.11046 
L 446.592174 188.152114 
L 445.605871 176.639272 
L 444.947387 172.861574 
L 444.139082 169.118123 
L 443.20075 165.405099 
L 440.651607 158.247504 
L 439.454394 154.587863 
L 436.241993 147.679098 
L 434.553855 144.250058 
L 432.485326 141.058573 
L 428.05012 134.880327 
L 425.740033 131.860926 
L 423.256532 128.978242 
L 418.104037 123.390411 
L 415.30618 120.802992 
L 409.438269 115.938105 
L 399.878129 109.601096 
L 396.253929 108.033442 
L 392.794465 106.351959 
L 389.173857 104.912526 
L 385.224834 103.934477 
L 381.503862 102.774042 
L 377.342853 102.258461 
L 372.971365 102.147213 
L 368.854511 101.836444 
L 364.032019 102.665386 
L 354.567545 104.703693 
L 349.162777 107.140182 
L 343.529718 110.290747 
L 337.736366 114.110007 
L 329.882299 122.093583 
L 321.363331 132.129907 
L 310.95785 146.857528 
L 272.565426 220.387888 
L 298.199606 163.461162 
L 307.409987 138.065648 
L 312.563463 119.820446 
L 313.262132 110.848762 
L 313.279146 102.817152 
L 312.950301 94.969934 
L 309.758682 84.607953 
L 307.856083 79.639596 
L 305.413038 76.024772 
L 302.949026 72.110394 
L 300.224824 68.786069 
L 297.200638 66.362879 
L 294.166505 63.704307 
L 290.938485 61.682888 
L 284.25286 58.159953 
L 280.771151 56.936831 
L 277.249168 55.833593 
L 273.686849 54.891802 
L 270.062895 54.428518 
L 262.752233 54.36546 
L 259.103746 54.409591 
L 255.455235 54.797913 
L 251.8225 55.583239 
L 248.21502 56.244769 
L 244.637861 57.176048 
L 237.59978 59.522812 
L 227.497055 64.802338 
L 221.213931 69.662289 
L 218.084407 71.578952 
L 209.813874 80.957839 
L 207.554261 85.366977 
L 205.267145 89.170238 
L 203.164036 93.224958 
L 201.882043 99.569313 
L 200.331361 104.443758 
L 198.944479 109.348264 
L 197.860052 114.65658 
L 196.25093 118.148297 
L 193.732828 119.140204 
L 191.038654 119.71942 
L 187.561739 118.585155 
L 183.635344 116.689359 
L 179.390205 114.408974 
L 175.329408 112.791041 
L 170.824127 110.581404 
L 166.457447 108.914556 
L 162.270619 107.808779 
L 157.839607 106.503386 
L 153.62492 105.76821 
L 149.582215 105.480955 
L 145.254486 104.92361 
L 141.317297 105.099402 
L 137.550064 105.634672 
L 133.594482 106.023308 
L 123.342713 109.80094 
L 120.204684 111.50821 
L 116.888705 113.058026 
L 113.864162 114.974982 
L 108.17575 119.270438 
L 102.887372 124.032934 
L 98.036008 129.23263 
L 95.866436 132.054512 
L 93.836924 134.982991 
L 90.214977 141.137184 
L 87.308674 147.723366 
L 86.367987 151.316709 
L 83.683963 157.852569 
L 82.712157 161.305442 
L 81.082114 168.274246 
L 80.554613 171.852437 
L 79.925819 175.331454 
L 79.881139 179.055782 
L 80.204685 182.890486 
L 79.807076 186.330986 
L 79.263707 189.670326 
L 79.470194 193.282336 
L 79.256422 196.675277 
L 79.436465 203.559915 
L 79.207699 206.831239 
L 79.281378 210.166073 
L 79.887448 213.615605 
L 80.235024 216.940462 
L 80.815517 220.280358 
L 82.275799 223.774247 
L 84.121332 230.319383 
L 85.627534 233.612531 
L 86.859734 236.789652 
L 90.405672 243.097693 
L 91.802444 246.098402 
L 94.497414 249.153026 
L 97.73595 252.142406 
L 101.553497 255.041923 
L 116.387116 262.917188 
L 124.763744 265.135006 
L 133.356789 267.054101 
L 148.410284 270.148474 
L 147.118766 272.077577 
L 138.134156 274.866314 
L 125.558471 278.420461 
L 119.842579 281.465756 
L 114.698197 284.635544 
L 107.716462 288.32697 
L 99.673478 295.25746 
L 95.718212 298.956702 
L 93.164428 302.475088 
L 90.06652 306.259572 
L 87.448184 310.050764 
L 85.916842 313.639637 
L 83.823554 317.503354 
L 82.065326 321.36927 
L 81.323699 324.973676 
L 80.205132 328.794923 
L 79.688787 332.463722 
L 79.473242 336.075107 
L 78.889866 339.911757 
L 79.000024 343.505632 
L 79.366004 347.029841 
L 79.509314 350.715141 
L 81.555944 361.22063 
L 84.987528 371.261085 
L 87.831438 377.744965 
L 91.218087 383.941293 
L 92.973538 387.023598 
L 94.841474 390.037916 
L 96.962506 392.860152 
L 98.916455 395.836384 
L 103.419507 401.305217 
L 105.807606 403.922131 
L 108.345332 406.394356 
L 110.778025 408.973017 
L 116.216891 413.522474 
L 122.146043 417.459571 
L 125.100831 419.405416 
L 128.339226 420.968571 
L 131.923679 422.028297 
L 135.26117 423.350095 
L 139.10938 423.888206 
L 146.78611 424.659045 
L 155.145223 423.815195 
L 159.085831 423.54181 
L 171.53344 420.493341 
L 175.831749 418.721315 
L 183.216835 417.008033 
L 186.582018 416.614131 
L 189.624559 416.862493 
L 192.345512 417.860038 
L 194.392766 420.704084 
L 196.418153 423.823094 
L 198.298993 427.645603 
L 199.972222 432.511806 
L 202.169106 436.07915 
L 204.307673 440.244937 
L 206.644644 444.115671 
L 209.290846 447.142022 
L 211.908226 450.699081 
L 214.765745 453.557667 
L 217.770304 456.036788 
L 220.805697 458.749573 
L 223.997356 460.903372 
L 230.613331 464.708955 
L 234.064978 465.886588 
L 241.085081 467.799352 
L 244.653749 468.203344 
L 248.235805 468.398795 
L 248.235805 468.398795 
" clip-path="url(#pd96bf47793)" style="fill: none; stroke: #ff0000; stroke-width: 1.5; stroke-linecap: square"/>
   </g>
   <g id="line2d_16">
    <path d="M 251.8225 71.521405 
L 248.520633 73.753353 
L 245.302193 76.200012 
L 242.177269 78.875217 
L 239.157307 81.796486 
L 236.256154 84.99304 
L 233.489408 88.489469 
L 230.876023 92.321819 
L 228.442736 96.56152 
L 226.210662 101.210405 
L 224.225292 106.405642 
L 222.529546 112.218003 
L 221.188532 118.795701 
L 220.259819 126.204196 
L 219.786392 134.427376 
L 219.652921 142.858685 
L 219.220728 149.221296 
L 217.277079 149.924208 
L 213.576925 145.20941 
L 209.080219 138.784591 
L 204.44567 132.750417 
L 199.894141 127.639187 
L 195.485466 123.478135 
L 191.218127 120.142231 
L 187.049212 117.434001 
L 182.973965 115.271027 
L 178.999969 113.608871 
L 175.113497 112.367292 
L 171.291665 111.460715 
L 167.543284 110.873457 
L 163.864029 110.568647 
L 160.249269 110.513738 
L 156.700871 110.690761 
L 153.215161 111.0752 
L 149.795979 111.65665 
L 146.444234 112.421427 
L 143.155226 113.349516 
L 139.937662 114.440992 
L 136.785345 115.676344 
L 133.703638 117.05254 
L 130.69518 118.563269 
L 127.759623 120.199173 
L 124.89608 121.951117 
L 122.111462 123.819129 
L 119.404313 125.794141 
L 116.775545 127.870232 
L 114.231615 130.047215 
L 111.770165 132.316273 
L 109.394386 134.674338 
L 107.104306 137.115581 
L 104.905896 139.639519 
L 102.802052 142.242808 
L 100.789159 144.917009 
L 98.872888 147.661388 
L 97.052406 150.470132 
L 95.336597 153.344579 
L 93.721086 156.276437 
L 92.214706 159.266674 
L 90.812699 162.307097 
L 89.523831 165.398309 
L 88.350005 168.536298 
L 87.293001 171.716997 
L 86.354476 174.936279 
L 85.543203 178.193654 
L 84.857121 181.482731 
L 84.304955 184.802473 
L 83.888102 188.147976 
L 83.61529 191.517463 
L 83.487775 194.905544 
L 83.51423 198.309696 
L 83.703361 201.726825 
L 84.063875 205.153261 
L 84.600595 208.583497 
L 85.325986 212.014095 
L 86.25644 215.441884 
L 87.396625 218.859407 
L 88.782556 222.266764 
L 90.434718 225.657882 
L 92.393431 229.029493 
L 94.65929 232.367754 
L 97.272458 235.665845 
L 100.353399 238.926839 
L 103.902537 242.128392 
L 108.121262 245.272894 
L 113.130959 248.340119 
L 119.174176 251.311963 
L 126.736737 254.170339 
L 136.629484 256.880177 
L 150.597383 259.382329 
L 174.326693 261.564493 
L 241.2625 262.917188 
L 175.830448 264.243634 
L 151.369229 266.425093 
L 137.116594 268.928669 
L 127.10168 271.638517 
L 119.457631 274.497613 
L 113.333087 277.473011 
L 108.282643 280.541666 
L 104.063547 283.683354 
L 100.473842 286.88846 
L 97.35252 290.154413 
L 94.739092 293.451109 
L 92.433191 296.796431 
L 90.474324 300.167349 
L 88.821997 303.557777 
L 87.435888 306.964447 
L 86.268162 310.38913 
L 85.325986 313.82028 
L 84.588997 317.254646 
L 84.044658 320.687731 
L 83.676623 324.117282 
L 83.480077 327.537789 
L 83.442549 330.947104 
L 83.562907 334.339148 
L 83.828687 337.712852 
L 84.238643 341.062823 
L 84.784052 344.387282 
L 85.459902 347.683165 
L 86.26834 350.943896 
L 87.197012 354.170586 
L 88.247918 357.357017 
L 89.41582 360.500966 
L 90.698942 363.59836 
L 92.09198 366.6474 
L 93.5964 369.642039 
L 95.203409 372.583056 
L 96.914289 375.464591 
L 98.726804 378.283069 
L 100.635409 381.037489 
L 102.644104 383.719471 
L 104.743977 386.330722 
L 106.935579 388.865466 
L 109.219183 391.317791 
L 111.588823 393.687207 
L 114.04448 395.967875 
L 116.585843 398.153844 
L 119.206657 400.244913 
L 121.909091 402.232262 
L 124.686648 404.115855 
L 127.543615 405.88369 
L 130.473091 407.535782 
L 133.475969 409.062982 
L 136.552608 410.455921 
L 139.695481 411.714767 
L 142.909134 412.823575 
L 146.187771 413.779215 
L 149.534582 414.565262 
L 152.94507 415.175078 
L 156.418694 415.595193 
L 159.958267 415.804946 
L 163.5612 415.790244 
L 167.229948 415.526191 
L 170.965343 414.987383 
L 174.762873 414.155221 
L 178.643588 412.956191 
L 182.596034 411.373823 
L 186.635884 409.328724 
L 190.773416 406.739817 
L 195.028653 403.486891 
L 199.398862 399.485433 
L 203.903472 394.573634 
L 208.511167 388.702431 
L 213.074485 382.171315 
L 217.027507 376.726481 
L 219.399994 375.987902 
L 220.073742 381.405164 
L 220.209241 389.711045 
L 220.607286 398.125136 
L 221.467423 405.726596 
L 222.754471 412.459232 
L 224.401754 418.427966 
L 226.344196 423.780866 
L 228.544564 428.548308 
L 230.95776 432.846859 
L 233.551442 436.754693 
L 236.302564 440.31087 
L 239.191049 443.555353 
L 242.200032 446.524818 
L 245.315953 449.240316 
L 248.526876 451.723372 
L 251.8225 453.987785 
L 255.193676 456.051748 
L 258.632344 457.92561 
L 262.131256 459.619961 
L 265.683697 461.141541 
L 269.283495 462.497279 
L 272.925447 463.698316 
L 276.603692 464.743798 
L 280.313489 465.641107 
L 284.050651 466.397723 
L 287.810134 467.0132 
L 291.588442 467.495224 
L 295.380863 467.843175 
L 299.183849 468.061729 
L 302.993687 468.15361 
L 306.806695 468.120997 
L 310.619502 467.966702 
L 314.428625 467.692595 
L 318.230819 467.300976 
L 322.023519 466.79575 
L 329.565071 465.44351 
L 337.028902 463.650891 
L 340.725875 462.597437 
L 348.030694 460.173216 
L 355.203536 457.348638 
L 362.222851 454.136205 
L 369.065989 450.545991 
L 375.715467 446.596065 
L 382.150644 442.298488 
L 388.351589 437.666452 
L 394.30176 432.717357 
L 399.983152 427.466262 
L 405.378623 421.929208 
L 410.466098 416.117529 
L 415.232751 410.052438 
L 419.657841 403.74776 
L 423.727391 397.224008 
L 427.415437 390.492924 
L 429.115741 387.059252 
L 432.202636 380.057417 
L 433.587677 376.496676 
L 434.862803 372.898897 
L 436.024977 369.266537 
L 437.071441 365.602352 
L 437.998477 361.90871 
L 438.802457 358.188234 
L 439.479853 354.443794 
L 440.025959 350.677901 
L 440.436819 346.893693 
L 440.706278 343.093594 
L 440.829296 339.28089 
L 440.801252 335.459334 
L 440.609943 331.630197 
L 440.250738 327.798233 
L 439.715239 323.967239 
L 438.9873 320.139209 
L 438.062387 316.320616 
L 436.916503 312.512976 
L 435.537306 308.722433 
L 433.900668 304.953245 
L 431.974458 301.209668 
L 429.726455 297.498213 
L 427.116439 293.826239 
L 424.076101 290.199478 
L 420.51282 286.625066 
L 416.382222 283.122581 
L 411.414045 279.690935 
L 405.446476 276.357544 
L 397.993847 273.138484 
L 388.326583 270.071063 
L 374.699918 267.208161 
L 351.955915 264.665023 
L 274.00789 262.917188 
L 345.128054 261.288533 
L 371.287547 258.745376 
L 386.053403 255.882444 
L 396.29078 252.814981 
L 404.069696 249.597284 
L 410.28213 246.262409 
L 415.413936 242.830685 
L 419.707768 239.322452 
L 423.329352 235.753171 
L 426.443924 232.126719 
L 429.119954 228.454054 
L 431.417818 224.743024 
L 433.389745 220.999086 
L 435.067961 217.228963 
L 436.480682 213.438177 
L 437.656022 209.630283 
L 438.606353 205.811633 
L 439.355712 201.983953 
L 439.912522 198.152599 
L 440.292909 194.319569 
L 440.501459 190.490121 
L 440.546633 186.667688 
L 440.436876 182.855135 
L 440.180595 179.054761 
L 439.783921 175.269337 
L 439.249686 171.502841 
L 438.583339 167.757787 
L 437.789955 164.036538 
L 436.872778 160.342144 
L 435.83594 156.676978 
L 434.68232 153.043923 
L 433.415663 149.445185 
L 432.039002 145.883223 
L 430.554379 142.361013 
L 428.965904 138.88004 
L 425.486821 132.051735 
L 421.616267 125.420906 
L 417.379986 119.000261 
L 412.794585 112.808289 
L 407.874569 106.865119 
L 402.641082 101.18406 
L 397.110143 95.782873 
L 391.30129 90.675227 
L 385.232074 85.876703 
L 378.918557 81.405208 
L 372.38248 77.271098 
L 365.641665 73.490287 
L 358.715093 70.077846 
L 351.624718 67.044306 
L 344.387919 64.410007 
L 337.028902 62.183484 
L 333.311641 61.224486 
L 329.570898 60.375685 
L 322.034106 59.007878 
L 318.24338 58.49474 
L 314.443124 58.094356 
L 310.635748 57.811016 
L 306.824475 57.647023 
L 303.012824 57.604013 
L 299.204149 57.684719 
L 295.401991 57.8918 
L 291.610081 58.227826 
L 287.832015 58.69708 
L 284.072906 59.296135 
L 280.334986 60.040308 
L 276.624498 60.921127 
L 272.944992 61.950101 
L 269.301563 63.130579 
L 265.699292 64.469814 
L 262.144232 65.966799 
L 258.641849 67.636588 
L 255.198855 69.48594 
L 255.198855 69.48594 
" clip-path="url(#pd96bf47793)" style="fill: none; stroke-dasharray: 5.55,2.4; stroke-dashoffset: 0; stroke: #0000ff; stroke-width: 1.5"/>
   </g>
   <g id="patch_3">
    <path d="M 251.8225 41.157188 
C 222.701244 41.157188 193.863155 46.89344 166.958622 58.037662 
C 140.054089 69.181885 115.606338 85.51735 95.0145 106.109188 
C 74.422662 126.701026 58.087197 151.148777 46.942975 178.05331 
C 35.798753 204.957842 30.0625 233.795931 30.0625 262.917188 
C 30.0625 292.038444 35.798753 320.876533 46.942975 347.781065 
C 58.087197 374.685598 74.422662 399.133349 95.0145 419.725187 
C 115.606338 440.317025 140.054089 456.65249 166.958622 467.796713 
C 193.863155 478.940935 222.701244 484.677188 251.8225 484.677188 
C 280.943756 484.677188 309.781845 478.940935 336.686378 467.796713 
C 363.590911 456.65249 388.038662 440.317025 408.6305 419.725187 
C 429.222338 399.133349 445.557803 374.685598 456.702025 347.781065 
C 467.846247 320.876533 473.5825 292.038444 473.5825 262.917188 
C 473.5825 233.795931 467.846247 204.957842 456.702025 178.05331 
C 445.557803 151.148777 429.222338 126.701026 408.6305 106.109188 
C 388.038662 85.51735 363.590911 69.181885 336.686378 58.037662 
C 309.781845 46.89344 280.943756 41.157188 251.8225 41.157188 
" style="fill: none; stroke: #000000; stroke-width: 0.8; stroke-linejoin: miter; stroke-linecap: square"/>
   </g>
   <g id="text_15">
    <g id="patch_4">
     <path d="M 384.8785 509.853188 
L 485.369125 509.853188 
Q 488.369125 509.853188 488.369125 506.853188 
L 488.369125 473.945063 
Q 488.369125 470.945063 485.369125 470.945063 
L 384.8785 470.945063 
Q 381.8785 470.945063 381.8785 473.945063 
L 381.8785 506.853188 
Q 381.8785 509.853188 384.8785 509.853188 
z
" style="fill: #ffffff; stroke: #808080; stroke-linejoin: miter"/>
    </g>
    <!-- G_cst: 2.5 dBi -->
    <g transform="translate(384.8785 481.821625)scale(0.1 -0.1)">
     <defs>
      <path id="DejaVuSans-47" d="M 3809 666 
L 3809 1919 
L 2778 1919 
L 2778 2438 
L 4434 2438 
L 4434 434 
Q 4069 175 3628 42 
Q 3188 -91 2688 -91 
Q 1594 -91 976 548 
Q 359 1188 359 2328 
Q 359 3472 976 4111 
Q 1594 4750 2688 4750 
Q 3144 4750 3555 4637 
Q 3966 4525 4313 4306 
L 4313 3634 
Q 3963 3931 3569 4081 
Q 3175 4231 2741 4231 
Q 1884 4231 1454 3753 
Q 1025 3275 1025 2328 
Q 1025 1384 1454 906 
Q 1884 428 2741 428 
Q 3075 428 3337 486 
Q 3600 544 3809 666 
z
" transform="scale(0.015625)"/>
      <path id="DejaVuSans-5f" d="M 3263 -1063 
L 3263 -1509 
L -63 -1509 
L -63 -1063 
L 3263 -1063 
z
" transform="scale(0.015625)"/>
      <path id="DejaVuSans-63" d="M 3122 3366 
L 3122 2828 
Q 2878 2963 2633 3030 
Q 2388 3097 2138 3097 
Q 1578 3097 1268 2742 
Q 959 2388 959 1747 
Q 959 1106 1268 751 
Q 1578 397 2138 397 
Q 2388 397 2633 464 
Q 2878 531 3122 666 
L 3122 134 
Q 2881 22 2623 -34 
Q 2366 -91 2075 -91 
Q 1284 -91 818 406 
Q 353 903 353 1747 
Q 353 2603 823 3093 
Q 1294 3584 2113 3584 
Q 2378 3584 2631 3529 
Q 2884 3475 3122 3366 
z
" transform="scale(0.015625)"/>
      <path id="DejaVuSans-73" d="M 2834 3397 
L 2834 2853 
Q 2591 2978 2328 3040 
Q 2066 3103 1784 3103 
Q 1356 3103 1142 2972 
Q 928 2841 928 2578 
Q 928 2378 1081 2264 
Q 1234 2150 1697 2047 
L 1894 2003 
Q 2506 1872 2764 1633 
Q 3022 1394 3022 966 
Q 3022 478 2636 193 
Q 2250 -91 1575 -91 
Q 1294 -91 989 -36 
Q 684 19 347 128 
L 347 722 
Q 666 556 975 473 
Q 1284 391 1588 391 
Q 1994 391 2212 530 
Q 2431 669 2431 922 
Q 2431 1156 2273 1281 
Q 2116 1406 1581 1522 
L 1381 1569 
Q 847 1681 609 1914 
Q 372 2147 372 2553 
Q 372 3047 722 3315 
Q 1072 3584 1716 3584 
Q 2034 3584 2315 3537 
Q 2597 3491 2834 3397 
z
" transform="scale(0.015625)"/>
      <path id="DejaVuSans-74" d="M 1172 4494 
L 1172 3500 
L 2356 3500 
L 2356 3053 
L 1172 3053 
L 1172 1153 
Q 1172 725 1289 603 
Q 1406 481 1766 481 
L 2356 481 
L 2356 0 
L 1766 0 
Q 1100 0 847 248 
Q 594 497 594 1153 
L 594 3053 
L 172 3053 
L 172 3500 
L 594 3500 
L 594 4494 
L 1172 4494 
z
" transform="scale(0.015625)"/>
      <path id="DejaVuSans-3a" d="M 750 794 
L 1409 794 
L 1409 0 
L 750 0 
L 750 794 
z
M 750 3309 
L 1409 3309 
L 1409 2516 
L 750 2516 
L 750 3309 
z
" transform="scale(0.015625)"/>
      <path id="DejaVuSans-20" transform="scale(0.015625)"/>
      <path id="DejaVuSans-2e" d="M 684 794 
L 1344 794 
L 1344 0 
L 684 0 
L 684 794 
z
" transform="scale(0.015625)"/>
      <path id="DejaVuSans-64" d="M 2906 2969 
L 2906 4863 
L 3481 4863 
L 3481 0 
L 2906 0 
L 2906 525 
Q 2725 213 2448 61 
Q 2172 -91 1784 -91 
Q 1150 -91 751 415 
Q 353 922 353 1747 
Q 353 2572 751 3078 
Q 1150 3584 1784 3584 
Q 2172 3584 2448 3432 
Q 2725 3281 2906 2969 
z
M 947 1747 
Q 947 1113 1208 752 
Q 1469 391 1925 391 
Q 2381 391 2643 752 
Q 2906 1113 2906 1747 
Q 2906 2381 2643 2742 
Q 2381 3103 1925 3103 
Q 1469 3103 1208 2742 
Q 947 2381 947 1747 
z
" transform="scale(0.015625)"/>
      <path id="DejaVuSans-42" d="M 1259 2228 
L 1259 519 
L 2272 519 
Q 2781 519 3026 730 
Q 3272 941 3272 1375 
Q 3272 1813 3026 2020 
Q 2781 2228 2272 2228 
L 1259 2228 
z
M 1259 4147 
L 1259 2741 
L 2194 2741 
Q 2656 2741 2882 2914 
Q 3109 3088 3109 3444 
Q 3109 3797 2882 3972 
Q 2656 4147 2194 4147 
L 1259 4147 
z
M 628 4666 
L 2241 4666 
Q 2963 4666 3353 4366 
Q 3744 4066 3744 3513 
Q 3744 3084 3544 2831 
Q 3344 2578 2956 2516 
Q 3422 2416 3680 2098 
Q 3938 1781 3938 1306 
Q 3938 681 3513 340 
Q 3088 0 2303 0 
L 628 0 
L 628 4666 
z
" transform="scale(0.015625)"/>
      <path id="DejaVuSans-69" d="M 603 3500 
L 1178 3500 
L 1178 0 
L 603 0 
L 603 3500 
z
M 603 4863 
L 1178 4863 
L 1178 4134 
L 603 4134 
L 603 4863 
z
" transform="scale(0.015625)"/>
     </defs>
     <use xlink:href="#DejaVuSans-47"/>
     <use xlink:href="#DejaVuSans-5f" x="77.490234"/>
     <use xlink:href="#DejaVuSans-63" x="127.490234"/>
     <use xlink:href="#DejaVuSans-73" x="182.470703"/>
     <use xlink:href="#DejaVuSans-74" x="234.570312"/>
     <use xlink:href="#DejaVuSans-3a" x="273.779297"/>
     <use xlink:href="#DejaVuSans-20" x="307.470703"/>
     <use xlink:href="#DejaVuSans-32" x="339.257812"/>
     <use xlink:href="#DejaVuSans-2e" x="402.880859"/>
     <use xlink:href="#DejaVuSans-35" x="434.667969"/>
     <use xlink:href="#DejaVuSans-20" x="498.291016"/>
     <use xlink:href="#DejaVuSans-64" x="530.078125"/>
     <use xlink:href="#DejaVuSans-42" x="593.554688"/>
     <use xlink:href="#DejaVuSans-69" x="662.158203"/>
    </g>
    <!-- G_inpe: 1.9 dBi -->
    <g transform="translate(384.8785 493.297563)scale(0.1 -0.1)">
     <defs>
      <path id="DejaVuSans-6e" d="M 3513 2113 
L 3513 0 
L 2938 0 
L 2938 2094 
Q 2938 2591 2744 2837 
Q 2550 3084 2163 3084 
Q 1697 3084 1428 2787 
Q 1159 2491 1159 1978 
L 1159 0 
L 581 0 
L 581 3500 
L 1159 3500 
L 1159 2956 
Q 1366 3272 1645 3428 
Q 1925 3584 2291 3584 
Q 2894 3584 3203 3211 
Q 3513 2838 3513 2113 
z
" transform="scale(0.015625)"/>
      <path id="DejaVuSans-70" d="M 1159 525 
L 1159 -1331 
L 581 -1331 
L 581 3500 
L 1159 3500 
L 1159 2969 
Q 1341 3281 1617 3432 
Q 1894 3584 2278 3584 
Q 2916 3584 3314 3078 
Q 3713 2572 3713 1747 
Q 3713 922 3314 415 
Q 2916 -91 2278 -91 
Q 1894 -91 1617 61 
Q 1341 213 1159 525 
z
M 3116 1747 
Q 3116 2381 2855 2742 
Q 2594 3103 2138 3103 
Q 1681 3103 1420 2742 
Q 1159 2381 1159 1747 
Q 1159 1113 1420 752 
Q 1681 391 2138 391 
Q 2594 391 2855 752 
Q 3116 1113 3116 1747 
z
" transform="scale(0.015625)"/>
      <path id="DejaVuSans-65" d="M 3597 1894 
L 3597 1613 
L 953 1613 
Q 991 1019 1311 708 
Q 1631 397 2203 397 
Q 2534 397 2845 478 
Q 3156 559 3463 722 
L 3463 178 
Q 3153 47 2828 -22 
Q 2503 -91 2169 -91 
Q 1331 -91 842 396 
Q 353 884 353 1716 
Q 353 2575 817 3079 
Q 1281 3584 2069 3584 
Q 2775 3584 3186 3129 
Q 3597 2675 3597 1894 
z
M 3022 2063 
Q 3016 2534 2758 2815 
Q 2500 3097 2075 3097 
Q 1594 3097 1305 2825 
Q 1016 2553 972 2059 
L 3022 2063 
z
" transform="scale(0.015625)"/>
     </defs>
     <use xlink:href="#DejaVuSans-47"/>
     <use xlink:href="#DejaVuSans-5f" x="77.490234"/>
     <use xlink:href="#DejaVuSans-69" x="127.490234"/>
     <use xlink:href="#DejaVuSans-6e" x="155.273438"/>
     <use xlink:href="#DejaVuSans-70" x="218.652344"/>
     <use xlink:href="#DejaVuSans-65" x="282.128906"/>
     <use xlink:href="#DejaVuSans-3a" x="343.652344"/>
     <use xlink:href="#DejaVuSans-20" x="377.34375"/>
     <use xlink:href="#DejaVuSans-31" x="409.130859"/>
     <use xlink:href="#DejaVuSans-2e" x="472.753906"/>
     <use xlink:href="#DejaVuSans-39" x="504.541016"/>
     <use xlink:href="#DejaVuSans-20" x="568.164062"/>
     <use xlink:href="#DejaVuSans-64" x="599.951172"/>
     <use xlink:href="#DejaVuSans-42" x="663.427734"/>
     <use xlink:href="#DejaVuSans-69" x="732.03125"/>
    </g>
    <!-- Pearson Coef: 0.449 -->
    <g transform="translate(384.8785 504.7735)scale(0.1 -0.1)">
     <defs>
      <path id="DejaVuSans-50" d="M 1259 4147 
L 1259 2394 
L 2053 2394 
Q 2494 2394 2734 2622 
Q 2975 2850 2975 3272 
Q 2975 3691 2734 3919 
Q 2494 4147 2053 4147 
L 1259 4147 
z
M 628 4666 
L 2053 4666 
Q 2838 4666 3239 4311 
Q 3641 3956 3641 3272 
Q 3641 2581 3239 2228 
Q 2838 1875 2053 1875 
L 1259 1875 
L 1259 0 
L 628 0 
L 628 4666 
z
" transform="scale(0.015625)"/>
      <path id="DejaVuSans-61" d="M 2194 1759 
Q 1497 1759 1228 1600 
Q 959 1441 959 1056 
Q 959 750 1161 570 
Q 1363 391 1709 391 
Q 2188 391 2477 730 
Q 2766 1069 2766 1631 
L 2766 1759 
L 2194 1759 
z
M 3341 1997 
L 3341 0 
L 2766 0 
L 2766 531 
Q 2569 213 2275 61 
Q 1981 -91 1556 -91 
Q 1019 -91 701 211 
Q 384 513 384 1019 
Q 384 1609 779 1909 
Q 1175 2209 1959 2209 
L 2766 2209 
L 2766 2266 
Q 2766 2663 2505 2880 
Q 2244 3097 1772 3097 
Q 1472 3097 1187 3025 
Q 903 2953 641 2809 
L 641 3341 
Q 956 3463 1253 3523 
Q 1550 3584 1831 3584 
Q 2591 3584 2966 3190 
Q 3341 2797 3341 1997 
z
" transform="scale(0.015625)"/>
      <path id="DejaVuSans-72" d="M 2631 2963 
Q 2534 3019 2420 3045 
Q 2306 3072 2169 3072 
Q 1681 3072 1420 2755 
Q 1159 2438 1159 1844 
L 1159 0 
L 581 0 
L 581 3500 
L 1159 3500 
L 1159 2956 
Q 1341 3275 1631 3429 
Q 1922 3584 2338 3584 
Q 2397 3584 2469 3576 
Q 2541 3569 2628 3553 
L 2631 2963 
z
" transform="scale(0.015625)"/>
      <path id="DejaVuSans-6f" d="M 1959 3097 
Q 1497 3097 1228 2736 
Q 959 2375 959 1747 
Q 959 1119 1226 758 
Q 1494 397 1959 397 
Q 2419 397 2687 759 
Q 2956 1122 2956 1747 
Q 2956 2369 2687 2733 
Q 2419 3097 1959 3097 
z
M 1959 3584 
Q 2709 3584 3137 3096 
Q 3566 2609 3566 1747 
Q 3566 888 3137 398 
Q 2709 -91 1959 -91 
Q 1206 -91 779 398 
Q 353 888 353 1747 
Q 353 2609 779 3096 
Q 1206 3584 1959 3584 
z
" transform="scale(0.015625)"/>
      <path id="DejaVuSans-43" d="M 4122 4306 
L 4122 3641 
Q 3803 3938 3442 4084 
Q 3081 4231 2675 4231 
Q 1875 4231 1450 3742 
Q 1025 3253 1025 2328 
Q 1025 1406 1450 917 
Q 1875 428 2675 428 
Q 3081 428 3442 575 
Q 3803 722 4122 1019 
L 4122 359 
Q 3791 134 3420 21 
Q 3050 -91 2638 -91 
Q 1578 -91 968 557 
Q 359 1206 359 2328 
Q 359 3453 968 4101 
Q 1578 4750 2638 4750 
Q 3056 4750 3426 4639 
Q 3797 4528 4122 4306 
z
" transform="scale(0.015625)"/>
      <path id="DejaVuSans-66" d="M 2375 4863 
L 2375 4384 
L 1825 4384 
Q 1516 4384 1395 4259 
Q 1275 4134 1275 3809 
L 1275 3500 
L 2222 3500 
L 2222 3053 
L 1275 3053 
L 1275 0 
L 697 0 
L 697 3053 
L 147 3053 
L 147 3500 
L 697 3500 
L 697 3744 
Q 697 4328 969 4595 
Q 1241 4863 1831 4863 
L 2375 4863 
z
" transform="scale(0.015625)"/>
     </defs>
     <use xlink:href="#DejaVuSans-50"/>
     <use xlink:href="#DejaVuSans-65" x="56.677734"/>
     <use xlink:href="#DejaVuSans-61" x="118.201172"/>
     <use xlink:href="#DejaVuSans-72" x="179.480469"/>
     <use xlink:href="#DejaVuSans-73" x="220.59375"/>
     <use xlink:href="#DejaVuSans-6f" x="272.693359"/>
     <use xlink:href="#DejaVuSans-6e" x="333.875"/>
     <use xlink:href="#DejaVuSans-20" x="397.253906"/>
     <use xlink:href="#DejaVuSans-43" x="429.041016"/>
     <use xlink:href="#DejaVuSans-6f" x="498.865234"/>
     <use xlink:href="#DejaVuSans-65" x="560.046875"/>
     <use xlink:href="#DejaVuSans-66" x="621.570312"/>
     <use xlink:href="#DejaVuSans-3a" x="653.150391"/>
     <use xlink:href="#DejaVuSans-20" x="686.841797"/>
     <use xlink:href="#DejaVuSans-30" x="718.628906"/>
     <use xlink:href="#DejaVuSans-2e" x="782.251953"/>
     <use xlink:href="#DejaVuSans-34" x="814.039062"/>
     <use xlink:href="#DejaVuSans-34" x="877.662109"/>
     <use xlink:href="#DejaVuSans-39" x="941.285156"/>
    </g>
   </g>
   <g id="text_16">
    <g id="patch_5">
     <path d="M 52.2385 56.370938 
L 121.861 56.370938 
Q 125.461 56.370938 125.461 52.770938 
L 125.461 41.157188 
Q 125.461 37.557188 121.861 37.557188 
L 52.2385 37.557188 
Q 48.6385 37.557188 48.6385 41.157188 
L 48.6385 52.770938 
Q 48.6385 56.370938 52.2385 56.370938 
z
" style="fill: #ffffff; stroke: #808080; stroke-linejoin: miter"/>
    </g>
    <!-- Freq: 6 GHz -->
    <g transform="translate(52.2385 50.275313)scale(0.12 -0.12)">
     <defs>
      <path id="DejaVuSans-46" d="M 628 4666 
L 3309 4666 
L 3309 4134 
L 1259 4134 
L 1259 2759 
L 3109 2759 
L 3109 2228 
L 1259 2228 
L 1259 0 
L 628 0 
L 628 4666 
z
" transform="scale(0.015625)"/>
      <path id="DejaVuSans-71" d="M 947 1747 
Q 947 1113 1208 752 
Q 1469 391 1925 391 
Q 2381 391 2643 752 
Q 2906 1113 2906 1747 
Q 2906 2381 2643 2742 
Q 2381 3103 1925 3103 
Q 1469 3103 1208 2742 
Q 947 2381 947 1747 
z
M 2906 525 
Q 2725 213 2448 61 
Q 2172 -91 1784 -91 
Q 1150 -91 751 415 
Q 353 922 353 1747 
Q 353 2572 751 3078 
Q 1150 3584 1784 3584 
Q 2172 3584 2448 3432 
Q 2725 3281 2906 2969 
L 2906 3500 
L 3481 3500 
L 3481 -1331 
L 2906 -1331 
L 2906 525 
z
" transform="scale(0.015625)"/>
      <path id="DejaVuSans-36" d="M 2113 2584 
Q 1688 2584 1439 2293 
Q 1191 2003 1191 1497 
Q 1191 994 1439 701 
Q 1688 409 2113 409 
Q 2538 409 2786 701 
Q 3034 994 3034 1497 
Q 3034 2003 2786 2293 
Q 2538 2584 2113 2584 
z
M 3366 4563 
L 3366 3988 
Q 3128 4100 2886 4159 
Q 2644 4219 2406 4219 
Q 1781 4219 1451 3797 
Q 1122 3375 1075 2522 
Q 1259 2794 1537 2939 
Q 1816 3084 2150 3084 
Q 2853 3084 3261 2657 
Q 3669 2231 3669 1497 
Q 3669 778 3244 343 
Q 2819 -91 2113 -91 
Q 1303 -91 875 529 
Q 447 1150 447 2328 
Q 447 3434 972 4092 
Q 1497 4750 2381 4750 
Q 2619 4750 2861 4703 
Q 3103 4656 3366 4563 
z
" transform="scale(0.015625)"/>
      <path id="DejaVuSans-48" d="M 628 4666 
L 1259 4666 
L 1259 2753 
L 3553 2753 
L 3553 4666 
L 4184 4666 
L 4184 0 
L 3553 0 
L 3553 2222 
L 1259 2222 
L 1259 0 
L 628 0 
L 628 4666 
z
" transform="scale(0.015625)"/>
      <path id="DejaVuSans-7a" d="M 353 3500 
L 3084 3500 
L 3084 2975 
L 922 459 
L 3084 459 
L 3084 0 
L 275 0 
L 275 525 
L 2438 3041 
L 353 3041 
L 353 3500 
z
" transform="scale(0.015625)"/>
     </defs>
     <use xlink:href="#DejaVuSans-46"/>
     <use xlink:href="#DejaVuSans-72" x="50.269531"/>
     <use xlink:href="#DejaVuSans-65" x="89.132812"/>
     <use xlink:href="#DejaVuSans-71" x="150.65625"/>
     <use xlink:href="#DejaVuSans-3a" x="214.132812"/>
     <use xlink:href="#DejaVuSans-20" x="247.824219"/>
     <use xlink:href="#DejaVuSans-36" x="279.611328"/>
     <use xlink:href="#DejaVuSans-20" x="343.234375"/>
     <use xlink:href="#DejaVuSans-47" x="375.021484"/>
     <use xlink:href="#DejaVuSans-48" x="452.511719"/>
     <use xlink:href="#DejaVuSans-7a" x="527.707031"/>
    </g>
   </g>
   <g id="text_17">
    <!-- Radiation Diagram - 3AVHF06 -->
    <g transform="translate(162.578125 16.318125)scale(0.12 -0.12)">
     <defs>
      <path id="DejaVuSans-52" d="M 2841 2188 
Q 3044 2119 3236 1894 
Q 3428 1669 3622 1275 
L 4263 0 
L 3584 0 
L 2988 1197 
Q 2756 1666 2539 1819 
Q 2322 1972 1947 1972 
L 1259 1972 
L 1259 0 
L 628 0 
L 628 4666 
L 2053 4666 
Q 2853 4666 3247 4331 
Q 3641 3997 3641 3322 
Q 3641 2881 3436 2590 
Q 3231 2300 2841 2188 
z
M 1259 4147 
L 1259 2491 
L 2053 2491 
Q 2509 2491 2742 2702 
Q 2975 2913 2975 3322 
Q 2975 3731 2742 3939 
Q 2509 4147 2053 4147 
L 1259 4147 
z
" transform="scale(0.015625)"/>
      <path id="DejaVuSans-44" d="M 1259 4147 
L 1259 519 
L 2022 519 
Q 2988 519 3436 956 
Q 3884 1394 3884 2338 
Q 3884 3275 3436 3711 
Q 2988 4147 2022 4147 
L 1259 4147 
z
M 628 4666 
L 1925 4666 
Q 3281 4666 3915 4102 
Q 4550 3538 4550 2338 
Q 4550 1131 3912 565 
Q 3275 0 1925 0 
L 628 0 
L 628 4666 
z
" transform="scale(0.015625)"/>
      <path id="DejaVuSans-67" d="M 2906 1791 
Q 2906 2416 2648 2759 
Q 2391 3103 1925 3103 
Q 1463 3103 1205 2759 
Q 947 2416 947 1791 
Q 947 1169 1205 825 
Q 1463 481 1925 481 
Q 2391 481 2648 825 
Q 2906 1169 2906 1791 
z
M 3481 434 
Q 3481 -459 3084 -895 
Q 2688 -1331 1869 -1331 
Q 1566 -1331 1297 -1286 
Q 1028 -1241 775 -1147 
L 775 -588 
Q 1028 -725 1275 -790 
Q 1522 -856 1778 -856 
Q 2344 -856 2625 -561 
Q 2906 -266 2906 331 
L 2906 616 
Q 2728 306 2450 153 
Q 2172 0 1784 0 
Q 1141 0 747 490 
Q 353 981 353 1791 
Q 353 2603 747 3093 
Q 1141 3584 1784 3584 
Q 2172 3584 2450 3431 
Q 2728 3278 2906 2969 
L 2906 3500 
L 3481 3500 
L 3481 434 
z
" transform="scale(0.015625)"/>
      <path id="DejaVuSans-6d" d="M 3328 2828 
Q 3544 3216 3844 3400 
Q 4144 3584 4550 3584 
Q 5097 3584 5394 3201 
Q 5691 2819 5691 2113 
L 5691 0 
L 5113 0 
L 5113 2094 
Q 5113 2597 4934 2840 
Q 4756 3084 4391 3084 
Q 3944 3084 3684 2787 
Q 3425 2491 3425 1978 
L 3425 0 
L 2847 0 
L 2847 2094 
Q 2847 2600 2669 2842 
Q 2491 3084 2119 3084 
Q 1678 3084 1418 2786 
Q 1159 2488 1159 1978 
L 1159 0 
L 581 0 
L 581 3500 
L 1159 3500 
L 1159 2956 
Q 1356 3278 1631 3431 
Q 1906 3584 2284 3584 
Q 2666 3584 2933 3390 
Q 3200 3197 3328 2828 
z
" transform="scale(0.015625)"/>
      <path id="DejaVuSans-2d" d="M 313 2009 
L 1997 2009 
L 1997 1497 
L 313 1497 
L 313 2009 
z
" transform="scale(0.015625)"/>
      <path id="DejaVuSans-41" d="M 2188 4044 
L 1331 1722 
L 3047 1722 
L 2188 4044 
z
M 1831 4666 
L 2547 4666 
L 4325 0 
L 3669 0 
L 3244 1197 
L 1141 1197 
L 716 0 
L 50 0 
L 1831 4666 
z
" transform="scale(0.015625)"/>
      <path id="DejaVuSans-56" d="M 1831 0 
L 50 4666 
L 709 4666 
L 2188 738 
L 3669 4666 
L 4325 4666 
L 2547 0 
L 1831 0 
z
" transform="scale(0.015625)"/>
     </defs>
     <use xlink:href="#DejaVuSans-52"/>
     <use xlink:href="#DejaVuSans-61" x="67.232422"/>
     <use xlink:href="#DejaVuSans-64" x="128.511719"/>
     <use xlink:href="#DejaVuSans-69" x="191.988281"/>
     <use xlink:href="#DejaVuSans-61" x="219.771484"/>
     <use xlink:href="#DejaVuSans-74" x="281.050781"/>
     <use xlink:href="#DejaVuSans-69" x="320.259766"/>
     <use xlink:href="#DejaVuSans-6f" x="348.042969"/>
     <use xlink:href="#DejaVuSans-6e" x="409.224609"/>
     <use xlink:href="#DejaVuSans-20" x="472.603516"/>
     <use xlink:href="#DejaVuSans-44" x="504.390625"/>
     <use xlink:href="#DejaVuSans-69" x="581.392578"/>
     <use xlink:href="#DejaVuSans-61" x="609.175781"/>
     <use xlink:href="#DejaVuSans-67" x="670.455078"/>
     <use xlink:href="#DejaVuSans-72" x="733.931641"/>
     <use xlink:href="#DejaVuSans-61" x="775.044922"/>
     <use xlink:href="#DejaVuSans-6d" x="836.324219"/>
     <use xlink:href="#DejaVuSans-20" x="933.736328"/>
     <use xlink:href="#DejaVuSans-2d" x="965.523438"/>
     <use xlink:href="#DejaVuSans-20" x="1001.607422"/>
     <use xlink:href="#DejaVuSans-33" x="1033.394531"/>
     <use xlink:href="#DejaVuSans-41" x="1097.017578"/>
     <use xlink:href="#DejaVuSans-56" x="1159.050781"/>
     <use xlink:href="#DejaVuSans-48" x="1227.458984"/>
     <use xlink:href="#DejaVuSans-46" x="1302.654297"/>
     <use xlink:href="#DejaVuSans-30" x="1360.173828"/>
     <use xlink:href="#DejaVuSans-36" x="1423.796875"/>
    </g>
   </g>
   <g id="legend_1">
    <g id="patch_6">
     <path d="M 411.802813 78.513438 
L 466.5825 78.513438 
Q 468.5825 78.513438 468.5825 76.513438 
L 468.5825 48.157188 
Q 468.5825 46.157188 466.5825 46.157188 
L 411.802813 46.157188 
Q 409.802813 46.157188 409.802813 48.157188 
L 409.802813 76.513438 
Q 409.802813 78.513438 411.802813 78.513438 
z
" style="fill: #ffffff; opacity: 0.8; stroke: #cccccc; stroke-linejoin: miter"/>
    </g>
    <g id="line2d_17">
     <path d="M 413.802813 54.255625 
L 423.802813 54.255625 
L 433.802813 54.255625 
" style="fill: none; stroke: #ff0000; stroke-width: 1.5; stroke-linecap: square"/>
    </g>
    <g id="text_18">
     <!-- INPE -->
     <g transform="translate(441.802813 57.755625)scale(0.1 -0.1)">
      <defs>
       <path id="DejaVuSans-49" d="M 628 4666 
L 1259 4666 
L 1259 0 
L 628 0 
L 628 4666 
z
" transform="scale(0.015625)"/>
       <path id="DejaVuSans-4e" d="M 628 4666 
L 1478 4666 
L 3547 763 
L 3547 4666 
L 4159 4666 
L 4159 0 
L 3309 0 
L 1241 3903 
L 1241 0 
L 628 0 
L 628 4666 
z
" transform="scale(0.015625)"/>
       <path id="DejaVuSans-45" d="M 628 4666 
L 3578 4666 
L 3578 4134 
L 1259 4134 
L 1259 2753 
L 3481 2753 
L 3481 2222 
L 1259 2222 
L 1259 531 
L 3634 531 
L 3634 0 
L 628 0 
L 628 4666 
z
" transform="scale(0.015625)"/>
      </defs>
      <use xlink:href="#DejaVuSans-49"/>
      <use xlink:href="#DejaVuSans-4e" x="29.492188"/>
      <use xlink:href="#DejaVuSans-50" x="104.296875"/>
      <use xlink:href="#DejaVuSans-45" x="164.599609"/>
     </g>
    </g>
    <g id="line2d_18">
     <path d="M 413.802813 68.93375 
L 423.802813 68.93375 
L 433.802813 68.93375 
" style="fill: none; stroke-dasharray: 5.55,2.4; stroke-dashoffset: 0; stroke: #0000ff; stroke-width: 1.5"/>
    </g>
    <g id="text_19">
     <!-- CST -->
     <g transform="translate(441.802813 72.43375)scale(0.1 -0.1)">
      <defs>
       <path id="DejaVuSans-53" d="M 3425 4513 
L 3425 3897 
Q 3066 4069 2747 4153 
Q 2428 4238 2131 4238 
Q 1616 4238 1336 4038 
Q 1056 3838 1056 3469 
Q 1056 3159 1242 3001 
Q 1428 2844 1947 2747 
L 2328 2669 
Q 3034 2534 3370 2195 
Q 3706 1856 3706 1288 
Q 3706 609 3251 259 
Q 2797 -91 1919 -91 
Q 1588 -91 1214 -16 
Q 841 59 441 206 
L 441 856 
Q 825 641 1194 531 
Q 1563 422 1919 422 
Q 2459 422 2753 634 
Q 3047 847 3047 1241 
Q 3047 1584 2836 1778 
Q 2625 1972 2144 2069 
L 1759 2144 
Q 1053 2284 737 2584 
Q 422 2884 422 3419 
Q 422 4038 858 4394 
Q 1294 4750 2059 4750 
Q 2388 4750 2728 4690 
Q 3069 4631 3425 4513 
z
" transform="scale(0.015625)"/>
       <path id="DejaVuSans-54" d="M -19 4666 
L 3928 4666 
L 3928 4134 
L 2272 4134 
L 2272 0 
L 1638 0 
L 1638 4134 
L -19 4134 
L -19 4666 
z
" transform="scale(0.015625)"/>
      </defs>
      <use xlink:href="#DejaVuSans-43"/>
      <use xlink:href="#DejaVuSans-53" x="69.824219"/>
      <use xlink:href="#DejaVuSans-54" x="133.300781"/>
     </g>
    </g>
   </g>
  </g>
 </g>
 <defs>
  <clipPath id="pd96bf47793">
   <path d="M 473.5825 262.917188 
C 473.5825 233.795931 467.846247 204.957842 456.702025 178.05331 
C 445.557803 151.148777 429.222338 126.701026 408.6305 106.109188 
C 388.038662 85.51735 363.590911 69.181885 336.686378 58.037662 
C 309.781845 46.89344 280.943756 41.157188 251.8225 41.157188 
C 222.701244 41.157188 193.863155 46.89344 166.958622 58.037662 
C 140.054089 69.181885 115.606338 85.51735 95.0145 106.109188 
C 74.422662 126.701026 58.087197 151.148777 46.942975 178.05331 
C 35.798753 204.957842 30.0625 233.795931 30.0625 262.917188 
C 30.0625 292.038444 35.798753 320.876533 46.942975 347.781065 
C 58.087197 374.685598 74.422662 399.133349 95.0145 419.725187 
C 115.606338 440.317025 140.054089 456.65249 166.958622 467.796713 
C 193.863155 478.940935 222.701244 484.677188 251.8225 484.677188 
C 280.943756 484.677188 309.781845 478.940935 336.686378 467.796713 
C 363.590911 456.65249 388.038662 440.317025 408.6305 419.725187 
C 429.222338 399.133349 445.557803 374.685598 456.702025 347.781065 
C 467.846247 320.876533 473.5825 292.038444 473.5825 262.917188 
M 251.8225 262.917188 
C 251.8225 262.917188 251.8225 262.917188 251.8225 262.917188 
C 251.8225 262.917188 251.8225 262.917188 251.8225 262.917188 
C 251.8225 262.917188 251.8225 262.917188 251.8225 262.917188 
C 251.8225 262.917188 251.8225 262.917188 251.8225 262.917188 
C 251.8225 262.917188 251.8225 262.917188 251.8225 262.917188 
C 251.8225 262.917188 251.8225 262.917188 251.8225 262.917188 
C 251.8225 262.917188 251.8225 262.917188 251.8225 262.917188 
C 251.8225 262.917188 251.8225 262.917188 251.8225 262.917188 
C 251.8225 262.917188 251.8225 262.917188 251.8225 262.917188 
C 251.8225 262.917188 251.8225 262.917188 251.8225 262.917188 
C 251.8225 262.917188 251.8225 262.917188 251.8225 262.917188 
C 251.8225 262.917188 251.8225 262.917188 251.8225 262.917188 
C 251.8225 262.917188 251.8225 262.917188 251.8225 262.917188 
C 251.8225 262.917188 251.8225 262.917188 251.8225 262.917188 
C 251.8225 262.917188 251.8225 262.917188 251.8225 262.917188 
C 251.8225 262.917188 251.8225 262.917188 251.8225 262.917188 
M 473.5825 262.917188 
z
"/>
  </clipPath>
 </defs>
</svg>
