<?xml version="1.0" encoding="utf-8" standalone="no"?>
<!DOCTYPE svg PUBLIC "-//W3C//DTD SVG 1.1//EN"
  "http://www.w3.org/Graphics/SVG/1.1/DTD/svg11.dtd">
<svg xmlns:xlink="http://www.w3.org/1999/xlink" width="506.82625pt" height="514.053188pt" viewBox="0 0 506.82625 514.053188" xmlns="http://www.w3.org/2000/svg" version="1.1">
 <metadata>
  <rdf:RDF xmlns:dc="http://purl.org/dc/elements/1.1/" xmlns:cc="http://creativecommons.org/ns#" xmlns:rdf="http://www.w3.org/1999/02/22-rdf-syntax-ns#">
   <cc:Work>
    <dc:type rdf:resource="http://purl.org/dc/dcmitype/StillImage"/>
    <dc:date>2024-10-21T16:10:37.360137</dc:date>
    <dc:format>image/svg+xml</dc:format>
    <dc:creator>
     <cc:Agent>
      <dc:title>Matplotlib v3.8.3, https://matplotlib.org/</dc:title>
     </cc:Agent>
    </dc:creator>
   </cc:Work>
  </rdf:RDF>
 </metadata>
 <defs>
  <style type="text/css">*{stroke-linejoin: round; stroke-linecap: butt}</style>
 </defs>
 <g id="figure_1">
  <g id="patch_1">
   <path d="M 0 514.053188 
L 506.82625 514.053188 
L 506.82625 0 
L 0 0 
z
" style="fill: #ffffff"/>
  </g>
  <g id="axes_1">
   <g id="patch_2">
    <path d="M 473.5825 262.917188 
C 473.5825 233.795931 467.846247 204.957842 456.702025 178.05331 
C 445.557803 151.148777 429.222338 126.701026 408.6305 106.109188 
C 388.038662 85.51735 363.590911 69.181885 336.686378 58.037662 
C 309.781845 46.89344 280.943756 41.157188 251.8225 41.157188 
C 222.701244 41.157188 193.863155 46.89344 166.958622 58.037662 
C 140.054089 69.181885 115.606338 85.51735 95.0145 106.109188 
C 74.422662 126.701026 58.087197 151.148777 46.942975 178.05331 
C 35.798753 204.957842 30.0625 233.795931 30.0625 262.917188 
C 30.0625 292.038444 35.798753 320.876533 46.942975 347.781065 
C 58.087197 374.685598 74.422662 399.133349 95.0145 419.725187 
C 115.606338 440.317025 140.054089 456.65249 166.958622 467.796713 
C 193.863155 478.940935 222.701244 484.677188 251.8225 484.677188 
C 280.943756 484.677188 309.781845 478.940935 336.686378 467.796713 
C 363.590911 456.65249 388.038662 440.317025 408.6305 419.725187 
C 429.222338 399.133349 445.557803 374.685598 456.702025 347.781065 
C 467.846247 320.876533 473.5825 292.038444 473.5825 262.917188 
M 251.8225 262.917188 
C 251.8225 262.917188 251.8225 262.917188 251.8225 262.917188 
C 251.8225 262.917188 251.8225 262.917188 251.8225 262.917188 
C 251.8225 262.917188 251.8225 262.917188 251.8225 262.917188 
C 251.8225 262.917188 251.8225 262.917188 251.8225 262.917188 
C 251.8225 262.917188 251.8225 262.917188 251.8225 262.917188 
C 251.8225 262.917188 251.8225 262.917188 251.8225 262.917188 
C 251.8225 262.917188 251.8225 262.917188 251.8225 262.917188 
C 251.8225 262.917188 251.8225 262.917188 251.8225 262.917188 
C 251.8225 262.917188 251.8225 262.917188 251.8225 262.917188 
C 251.8225 262.917188 251.8225 262.917188 251.8225 262.917188 
C 251.8225 262.917188 251.8225 262.917188 251.8225 262.917188 
C 251.8225 262.917188 251.8225 262.917188 251.8225 262.917188 
C 251.8225 262.917188 251.8225 262.917188 251.8225 262.917188 
C 251.8225 262.917188 251.8225 262.917188 251.8225 262.917188 
C 251.8225 262.917188 251.8225 262.917188 251.8225 262.917188 
C 251.8225 262.917188 251.8225 262.917188 251.8225 262.917188 
z
" style="fill: #ffffff"/>
   </g>
   <g id="matplotlib.axis_1">
    <g id="xtick_1">
     <g id="line2d_1">
      <path d="M 251.8225 262.917188 
L 251.8225 41.157188 
" clip-path="url(#p83deb108dd)" style="fill: none; stroke: #b0b0b0; stroke-width: 0.8; stroke-linecap: square"/>
     </g>
     <g id="text_1">
      <!-- 0° -->
      <g transform="translate(246.14125 29.916563) scale(0.1 -0.1)">
       <defs>
        <path id="DejaVuSans-30" d="M 2034 4250 
Q 1547 4250 1301 3770 
Q 1056 3291 1056 2328 
Q 1056 1369 1301 889 
Q 1547 409 2034 409 
Q 2525 409 2770 889 
Q 3016 1369 3016 2328 
Q 3016 3291 2770 3770 
Q 2525 4250 2034 4250 
z
M 2034 4750 
Q 2819 4750 3233 4129 
Q 3647 3509 3647 2328 
Q 3647 1150 3233 529 
Q 2819 -91 2034 -91 
Q 1250 -91 836 529 
Q 422 1150 422 2328 
Q 422 3509 836 4129 
Q 1250 4750 2034 4750 
z
" transform="scale(0.015625)"/>
        <path id="DejaVuSans-b0" d="M 1600 4347 
Q 1350 4347 1178 4173 
Q 1006 4000 1006 3750 
Q 1006 3503 1178 3333 
Q 1350 3163 1600 3163 
Q 1850 3163 2022 3333 
Q 2194 3503 2194 3750 
Q 2194 3997 2020 4172 
Q 1847 4347 1600 4347 
z
M 1600 4750 
Q 1800 4750 1984 4673 
Q 2169 4597 2303 4453 
Q 2447 4313 2519 4134 
Q 2591 3956 2591 3750 
Q 2591 3338 2302 3052 
Q 2013 2766 1594 2766 
Q 1172 2766 890 3047 
Q 609 3328 609 3750 
Q 609 4169 896 4459 
Q 1184 4750 1600 4750 
z
" transform="scale(0.015625)"/>
       </defs>
       <use xlink:href="#DejaVuSans-30"/>
       <use xlink:href="#DejaVuSans-b0" x="63.623047"/>
      </g>
     </g>
    </g>
    <g id="xtick_2">
     <g id="line2d_2">
      <path d="M 251.8225 262.917188 
L 95.0145 106.109188 
" clip-path="url(#p83deb108dd)" style="fill: none; stroke: #b0b0b0; stroke-width: 0.8; stroke-linecap: square"/>
     </g>
     <g id="text_2">
      <!-- 45° -->
      <g transform="translate(76.252505 98.969068) scale(0.1 -0.1)">
       <defs>
        <path id="DejaVuSans-34" d="M 2419 4116 
L 825 1625 
L 2419 1625 
L 2419 4116 
z
M 2253 4666 
L 3047 4666 
L 3047 1625 
L 3713 1625 
L 3713 1100 
L 3047 1100 
L 3047 0 
L 2419 0 
L 2419 1100 
L 313 1100 
L 313 1709 
L 2253 4666 
z
" transform="scale(0.015625)"/>
        <path id="DejaVuSans-35" d="M 691 4666 
L 3169 4666 
L 3169 4134 
L 1269 4134 
L 1269 2991 
Q 1406 3038 1543 3061 
Q 1681 3084 1819 3084 
Q 2600 3084 3056 2656 
Q 3513 2228 3513 1497 
Q 3513 744 3044 326 
Q 2575 -91 1722 -91 
Q 1428 -91 1123 -41 
Q 819 9 494 109 
L 494 744 
Q 775 591 1075 516 
Q 1375 441 1709 441 
Q 2250 441 2565 725 
Q 2881 1009 2881 1497 
Q 2881 1984 2565 2268 
Q 2250 2553 1709 2553 
Q 1456 2553 1204 2497 
Q 953 2441 691 2322 
L 691 4666 
z
" transform="scale(0.015625)"/>
       </defs>
       <use xlink:href="#DejaVuSans-34"/>
       <use xlink:href="#DejaVuSans-35" x="63.623047"/>
       <use xlink:href="#DejaVuSans-b0" x="127.246094"/>
      </g>
     </g>
    </g>
    <g id="xtick_3">
     <g id="line2d_3">
      <path d="M 251.8225 262.917188 
L 30.0625 262.917188 
" clip-path="url(#p83deb108dd)" style="fill: none; stroke: #b0b0b0; stroke-width: 0.8; stroke-linecap: square"/>
     </g>
     <g id="text_3">
      <!-- 90° -->
      <g transform="translate(7.2 265.676563) scale(0.1 -0.1)">
       <defs>
        <path id="DejaVuSans-39" d="M 703 97 
L 703 672 
Q 941 559 1184 500 
Q 1428 441 1663 441 
Q 2288 441 2617 861 
Q 2947 1281 2994 2138 
Q 2813 1869 2534 1725 
Q 2256 1581 1919 1581 
Q 1219 1581 811 2004 
Q 403 2428 403 3163 
Q 403 3881 828 4315 
Q 1253 4750 1959 4750 
Q 2769 4750 3195 4129 
Q 3622 3509 3622 2328 
Q 3622 1225 3098 567 
Q 2575 -91 1691 -91 
Q 1453 -91 1209 -44 
Q 966 3 703 97 
z
M 1959 2075 
Q 2384 2075 2632 2365 
Q 2881 2656 2881 3163 
Q 2881 3666 2632 3958 
Q 2384 4250 1959 4250 
Q 1534 4250 1286 3958 
Q 1038 3666 1038 3163 
Q 1038 2656 1286 2365 
Q 1534 2075 1959 2075 
z
" transform="scale(0.015625)"/>
       </defs>
       <use xlink:href="#DejaVuSans-39"/>
       <use xlink:href="#DejaVuSans-30" x="63.623047"/>
       <use xlink:href="#DejaVuSans-b0" x="127.246094"/>
      </g>
     </g>
    </g>
    <g id="xtick_4">
     <g id="line2d_4">
      <path d="M 251.8225 262.917188 
L 95.0145 419.725187 
" clip-path="url(#p83deb108dd)" style="fill: none; stroke: #b0b0b0; stroke-width: 0.8; stroke-linecap: square"/>
     </g>
     <g id="text_4">
      <!-- 135° -->
      <g transform="translate(73.071255 432.384057) scale(0.1 -0.1)">
       <defs>
        <path id="DejaVuSans-31" d="M 794 531 
L 1825 531 
L 1825 4091 
L 703 3866 
L 703 4441 
L 1819 4666 
L 2450 4666 
L 2450 531 
L 3481 531 
L 3481 0 
L 794 0 
L 794 531 
z
" transform="scale(0.015625)"/>
        <path id="DejaVuSans-33" d="M 2597 2516 
Q 3050 2419 3304 2112 
Q 3559 1806 3559 1356 
Q 3559 666 3084 287 
Q 2609 -91 1734 -91 
Q 1441 -91 1130 -33 
Q 819 25 488 141 
L 488 750 
Q 750 597 1062 519 
Q 1375 441 1716 441 
Q 2309 441 2620 675 
Q 2931 909 2931 1356 
Q 2931 1769 2642 2001 
Q 2353 2234 1838 2234 
L 1294 2234 
L 1294 2753 
L 1863 2753 
Q 2328 2753 2575 2939 
Q 2822 3125 2822 3475 
Q 2822 3834 2567 4026 
Q 2313 4219 1838 4219 
Q 1578 4219 1281 4162 
Q 984 4106 628 3988 
L 628 4550 
Q 988 4650 1302 4700 
Q 1616 4750 1894 4750 
Q 2613 4750 3031 4423 
Q 3450 4097 3450 3541 
Q 3450 3153 3228 2886 
Q 3006 2619 2597 2516 
z
" transform="scale(0.015625)"/>
       </defs>
       <use xlink:href="#DejaVuSans-31"/>
       <use xlink:href="#DejaVuSans-33" x="63.623047"/>
       <use xlink:href="#DejaVuSans-35" x="127.246094"/>
       <use xlink:href="#DejaVuSans-b0" x="190.869141"/>
      </g>
     </g>
    </g>
    <g id="xtick_5">
     <g id="line2d_5">
      <path d="M 251.8225 262.917188 
L 251.8225 484.677188 
" clip-path="url(#p83deb108dd)" style="fill: none; stroke: #b0b0b0; stroke-width: 0.8; stroke-linecap: square"/>
     </g>
     <g id="text_5">
      <!-- 180° -->
      <g transform="translate(239.77875 501.436563) scale(0.1 -0.1)">
       <defs>
        <path id="DejaVuSans-38" d="M 2034 2216 
Q 1584 2216 1326 1975 
Q 1069 1734 1069 1313 
Q 1069 891 1326 650 
Q 1584 409 2034 409 
Q 2484 409 2743 651 
Q 3003 894 3003 1313 
Q 3003 1734 2745 1975 
Q 2488 2216 2034 2216 
z
M 1403 2484 
Q 997 2584 770 2862 
Q 544 3141 544 3541 
Q 544 4100 942 4425 
Q 1341 4750 2034 4750 
Q 2731 4750 3128 4425 
Q 3525 4100 3525 3541 
Q 3525 3141 3298 2862 
Q 3072 2584 2669 2484 
Q 3125 2378 3379 2068 
Q 3634 1759 3634 1313 
Q 3634 634 3220 271 
Q 2806 -91 2034 -91 
Q 1263 -91 848 271 
Q 434 634 434 1313 
Q 434 1759 690 2068 
Q 947 2378 1403 2484 
z
M 1172 3481 
Q 1172 3119 1398 2916 
Q 1625 2713 2034 2713 
Q 2441 2713 2670 2916 
Q 2900 3119 2900 3481 
Q 2900 3844 2670 4047 
Q 2441 4250 2034 4250 
Q 1625 4250 1398 4047 
Q 1172 3844 1172 3481 
z
" transform="scale(0.015625)"/>
       </defs>
       <use xlink:href="#DejaVuSans-31"/>
       <use xlink:href="#DejaVuSans-38" x="63.623047"/>
       <use xlink:href="#DejaVuSans-30" x="127.246094"/>
       <use xlink:href="#DejaVuSans-b0" x="190.869141"/>
      </g>
     </g>
    </g>
    <g id="xtick_6">
     <g id="line2d_6">
      <path d="M 251.8225 262.917188 
L 408.6305 419.725187 
" clip-path="url(#p83deb108dd)" style="fill: none; stroke: #b0b0b0; stroke-width: 0.8; stroke-linecap: square"/>
     </g>
     <g id="text_6">
      <!-- 225° -->
      <g transform="translate(406.486245 432.384057) scale(0.1 -0.1)">
       <defs>
        <path id="DejaVuSans-32" d="M 1228 531 
L 3431 531 
L 3431 0 
L 469 0 
L 469 531 
Q 828 903 1448 1529 
Q 2069 2156 2228 2338 
Q 2531 2678 2651 2914 
Q 2772 3150 2772 3378 
Q 2772 3750 2511 3984 
Q 2250 4219 1831 4219 
Q 1534 4219 1204 4116 
Q 875 4013 500 3803 
L 500 4441 
Q 881 4594 1212 4672 
Q 1544 4750 1819 4750 
Q 2544 4750 2975 4387 
Q 3406 4025 3406 3419 
Q 3406 3131 3298 2873 
Q 3191 2616 2906 2266 
Q 2828 2175 2409 1742 
Q 1991 1309 1228 531 
z
" transform="scale(0.015625)"/>
       </defs>
       <use xlink:href="#DejaVuSans-32"/>
       <use xlink:href="#DejaVuSans-32" x="63.623047"/>
       <use xlink:href="#DejaVuSans-35" x="127.246094"/>
       <use xlink:href="#DejaVuSans-b0" x="190.869141"/>
      </g>
     </g>
    </g>
    <g id="xtick_7">
     <g id="line2d_7">
      <path d="M 251.8225 262.917188 
L 473.5825 262.917188 
" clip-path="url(#p83deb108dd)" style="fill: none; stroke: #b0b0b0; stroke-width: 0.8; stroke-linecap: square"/>
     </g>
     <g id="text_7">
      <!-- 270° -->
      <g transform="translate(475.53875 265.676563) scale(0.1 -0.1)">
       <defs>
        <path id="DejaVuSans-37" d="M 525 4666 
L 3525 4666 
L 3525 4397 
L 1831 0 
L 1172 0 
L 2766 4134 
L 525 4134 
L 525 4666 
z
" transform="scale(0.015625)"/>
       </defs>
       <use xlink:href="#DejaVuSans-32"/>
       <use xlink:href="#DejaVuSans-37" x="63.623047"/>
       <use xlink:href="#DejaVuSans-30" x="127.246094"/>
       <use xlink:href="#DejaVuSans-b0" x="190.869141"/>
      </g>
     </g>
    </g>
    <g id="xtick_8">
     <g id="line2d_8">
      <path d="M 251.8225 262.917188 
L 408.6305 106.109188 
" clip-path="url(#p83deb108dd)" style="fill: none; stroke: #b0b0b0; stroke-width: 0.8; stroke-linecap: square"/>
     </g>
     <g id="text_8">
      <!-- 315° -->
      <g transform="translate(406.486245 98.969068) scale(0.1 -0.1)">
       <use xlink:href="#DejaVuSans-33"/>
       <use xlink:href="#DejaVuSans-31" x="63.623047"/>
       <use xlink:href="#DejaVuSans-35" x="127.246094"/>
       <use xlink:href="#DejaVuSans-b0" x="190.869141"/>
      </g>
     </g>
    </g>
   </g>
   <g id="matplotlib.axis_2">
    <g id="ytick_1">
     <g id="line2d_9">
      <path d="M 251.8225 235.197188 
C 248.182343 235.197188 244.577582 235.914219 241.214515 237.307247 
C 237.851449 238.700275 234.79548 240.742208 232.2215 243.316188 
C 229.64752 245.890167 227.605587 248.946136 226.212559 252.309203 
C 224.819532 255.672269 224.1025 259.27703 224.1025 262.917188 
C 224.1025 266.557345 224.819532 270.162106 226.212559 273.525172 
C 227.605587 276.888239 229.64752 279.944208 232.2215 282.518187 
C 234.79548 285.092167 237.851449 287.1341 241.214515 288.527128 
C 244.577582 289.920156 248.182343 290.637188 251.8225 290.637188 
C 255.462657 290.637188 259.067418 289.920156 262.430485 288.527128 
C 265.793551 287.1341 268.84952 285.092167 271.4235 282.518187 
C 273.99748 279.944208 276.039413 276.888239 277.432441 273.525172 
C 278.825468 270.162106 279.5425 266.557345 279.5425 262.917188 
C 279.5425 259.27703 278.825468 255.672269 277.432441 252.309203 
C 276.039413 248.946136 273.99748 245.890167 271.4235 243.316188 
C 268.84952 240.742208 265.793551 238.700275 262.430485 237.307247 
C 259.067418 235.914219 255.462657 235.197188 251.8225 235.197188 
" clip-path="url(#p83deb108dd)" style="fill: none; stroke: #b0b0b0; stroke-width: 0.8; stroke-linecap: square"/>
     </g>
     <g id="text_9">
      <!-- −35 -->
      <g transform="translate(241.214515 235.227559) scale(0.1 -0.1)">
       <defs>
        <path id="DejaVuSans-2212" d="M 678 2272 
L 4684 2272 
L 4684 1741 
L 678 1741 
L 678 2272 
z
" transform="scale(0.015625)"/>
       </defs>
       <use xlink:href="#DejaVuSans-2212"/>
       <use xlink:href="#DejaVuSans-33" x="83.789062"/>
       <use xlink:href="#DejaVuSans-35" x="147.412109"/>
      </g>
     </g>
    </g>
    <g id="ytick_2">
     <g id="line2d_10">
      <path d="M 251.8225 207.477188 
C 244.542186 207.477188 237.332664 208.911251 230.606531 211.697306 
C 223.880397 214.483362 217.76846 218.567228 212.6205 223.715188 
C 207.472541 228.863147 203.388674 234.975085 200.602619 241.701218 
C 197.816563 248.427351 196.3825 255.636873 196.3825 262.917188 
C 196.3825 270.197502 197.816563 277.407024 200.602619 284.133157 
C 203.388674 290.85929 207.472541 296.971228 212.6205 302.119187 
C 217.76846 307.267147 223.880397 311.351013 230.606531 314.137069 
C 237.332664 316.923124 244.542186 318.357188 251.8225 318.357188 
C 259.102814 318.357188 266.312336 316.923124 273.038469 314.137069 
C 279.764603 311.351013 285.87654 307.267147 291.0245 302.119187 
C 296.172459 296.971228 300.256326 290.85929 303.042381 284.133157 
C 305.828437 277.407024 307.2625 270.197502 307.2625 262.917188 
C 307.2625 255.636873 305.828437 248.427351 303.042381 241.701218 
C 300.256326 234.975085 296.172459 228.863147 291.0245 223.715188 
C 285.87654 218.567228 279.764603 214.483362 273.038469 211.697306 
C 266.312336 208.911251 259.102814 207.477188 251.8225 207.477188 
" clip-path="url(#p83deb108dd)" style="fill: none; stroke: #b0b0b0; stroke-width: 0.8; stroke-linecap: square"/>
     </g>
     <g id="text_10">
      <!-- −30 -->
      <g transform="translate(230.606531 209.617619) scale(0.1 -0.1)">
       <use xlink:href="#DejaVuSans-2212"/>
       <use xlink:href="#DejaVuSans-33" x="83.789062"/>
       <use xlink:href="#DejaVuSans-30" x="147.412109"/>
      </g>
     </g>
    </g>
    <g id="ytick_3">
     <g id="line2d_11">
      <path d="M 251.8225 179.757188 
C 240.902029 179.757188 230.087746 181.908282 219.998546 186.087366 
C 209.909346 190.266449 200.741439 196.392248 193.0195 204.114188 
C 185.297561 211.836127 179.171761 221.004033 174.992678 231.093233 
C 170.813595 241.182433 168.6625 251.996716 168.6625 262.917188 
C 168.6625 273.837659 170.813595 284.651942 174.992678 294.741142 
C 179.171761 304.830342 185.297561 313.998248 193.0195 321.720187 
C 200.741439 329.442127 209.909346 335.567926 219.998546 339.747009 
C 230.087746 343.926093 240.902029 346.077188 251.8225 346.077188 
C 262.742971 346.077188 273.557254 343.926093 283.646454 339.747009 
C 293.735654 335.567926 302.903561 329.442127 310.6255 321.720187 
C 318.347439 313.998248 324.473239 304.830342 328.652322 294.741142 
C 332.831405 284.651942 334.9825 273.837659 334.9825 262.917188 
C 334.9825 251.996716 332.831405 241.182433 328.652322 231.093233 
C 324.473239 221.004033 318.347439 211.836127 310.6255 204.114188 
C 302.903561 196.392248 293.735654 190.266449 283.646454 186.087366 
C 273.557254 181.908282 262.742971 179.757188 251.8225 179.757188 
" clip-path="url(#p83deb108dd)" style="fill: none; stroke: #b0b0b0; stroke-width: 0.8; stroke-linecap: square"/>
     </g>
     <g id="text_11">
      <!-- −25 -->
      <g transform="translate(219.998546 184.007678) scale(0.1 -0.1)">
       <use xlink:href="#DejaVuSans-2212"/>
       <use xlink:href="#DejaVuSans-32" x="83.789062"/>
       <use xlink:href="#DejaVuSans-35" x="147.412109"/>
      </g>
     </g>
    </g>
    <g id="ytick_4">
     <g id="line2d_12">
      <path d="M 251.8225 152.037188 
C 237.261872 152.037188 222.842827 154.905314 209.390561 160.477425 
C 195.938295 166.049536 183.714419 174.217269 173.4185 184.513188 
C 163.122581 194.809107 154.954849 207.032982 149.382737 220.485249 
C 143.810626 233.937515 140.9425 248.356559 140.9425 262.917188 
C 140.9425 277.477816 143.810626 291.89686 149.382737 305.349126 
C 154.954849 318.801393 163.122581 331.025268 173.4185 341.321187 
C 183.714419 351.617106 195.938295 359.784839 209.390561 365.35695 
C 222.842827 370.929061 237.261872 373.797188 251.8225 373.797188 
C 266.383128 373.797188 280.802173 370.929061 294.254439 365.35695 
C 307.706705 359.784839 319.930581 351.617106 330.2265 341.321187 
C 340.522419 331.025268 348.690151 318.801393 354.262263 305.349126 
C 359.834374 291.89686 362.7025 277.477816 362.7025 262.917188 
C 362.7025 248.356559 359.834374 233.937515 354.262263 220.485249 
C 348.690151 207.032982 340.522419 194.809107 330.2265 184.513188 
C 319.930581 174.217269 307.706705 166.049536 294.254439 160.477425 
C 280.802173 154.905314 266.383128 152.037188 251.8225 152.037188 
" clip-path="url(#p83deb108dd)" style="fill: none; stroke: #b0b0b0; stroke-width: 0.8; stroke-linecap: square"/>
     </g>
     <g id="text_12">
      <!-- −20 -->
      <g transform="translate(209.390561 158.397737) scale(0.1 -0.1)">
       <use xlink:href="#DejaVuSans-2212"/>
       <use xlink:href="#DejaVuSans-32" x="83.789062"/>
       <use xlink:href="#DejaVuSans-30" x="147.412109"/>
      </g>
     </g>
    </g>
    <g id="ytick_5">
     <g id="line2d_13">
      <path d="M 251.8225 124.317188 
C 233.621715 124.317188 215.597909 127.902345 198.782576 134.867484 
C 181.967243 141.832623 166.687399 152.042289 153.8175 164.912188 
C 140.947601 177.782086 130.737936 193.061931 123.772797 209.877264 
C 116.807658 226.692597 113.2225 244.716402 113.2225 262.917188 
C 113.2225 281.117973 116.807658 299.141778 123.772797 315.957111 
C 130.737936 332.772444 140.947601 348.052289 153.8175 360.922187 
C 166.687399 373.792086 181.967243 384.001752 198.782576 390.966891 
C 215.597909 397.93203 233.621715 401.517188 251.8225 401.517188 
C 270.023285 401.517188 288.047091 397.93203 304.862424 390.966891 
C 321.677757 384.001752 336.957601 373.792086 349.8275 360.922187 
C 362.697399 348.052289 372.907064 332.772444 379.872203 315.957111 
C 386.837342 299.141778 390.4225 281.117973 390.4225 262.917188 
C 390.4225 244.716402 386.837342 226.692597 379.872203 209.877264 
C 372.907064 193.061931 362.697399 177.782086 349.8275 164.912188 
C 336.957601 152.042289 321.677757 141.832623 304.862424 134.867484 
C 288.047091 127.902345 270.023285 124.317188 251.8225 124.317188 
" clip-path="url(#p83deb108dd)" style="fill: none; stroke: #b0b0b0; stroke-width: 0.8; stroke-linecap: square"/>
     </g>
     <g id="text_13">
      <!-- −15 -->
      <g transform="translate(198.782576 132.787797) scale(0.1 -0.1)">
       <use xlink:href="#DejaVuSans-2212"/>
       <use xlink:href="#DejaVuSans-31" x="83.789062"/>
       <use xlink:href="#DejaVuSans-35" x="147.412109"/>
      </g>
     </g>
    </g>
    <g id="ytick_6">
     <g id="line2d_14">
      <path d="M 251.8225 96.597188 
C 229.981558 96.597188 208.352991 100.899377 188.174592 109.257544 
C 167.996192 117.61571 149.660379 129.867309 134.2165 145.311188 
C 118.772622 160.755066 106.521023 179.090879 98.162856 199.269279 
C 89.804689 219.447679 85.5025 241.076245 85.5025 262.917188 
C 85.5025 284.75813 89.804689 306.386696 98.162856 326.565096 
C 106.521023 346.743496 118.772622 365.079309 134.2165 380.523187 
C 149.660379 395.967066 167.996192 408.218665 188.174592 416.576831 
C 208.352991 424.934998 229.981558 429.237188 251.8225 429.237188 
C 273.663442 429.237188 295.292009 424.934998 315.470408 416.576831 
C 335.648808 408.218665 353.984621 395.967066 369.4285 380.523187 
C 384.872378 365.079309 397.123977 346.743496 405.482144 326.565096 
C 413.840311 306.386696 418.1425 284.75813 418.1425 262.917188 
C 418.1425 241.076245 413.840311 219.447679 405.482144 199.269279 
C 397.123977 179.090879 384.872378 160.755066 369.4285 145.311188 
C 353.984621 129.867309 335.648808 117.61571 315.470408 109.257544 
C 295.292009 100.899377 273.663442 96.597188 251.8225 96.597188 
" clip-path="url(#p83deb108dd)" style="fill: none; stroke: #b0b0b0; stroke-width: 0.8; stroke-linecap: square"/>
     </g>
     <g id="text_14">
      <!-- −10 -->
      <g transform="translate(188.174592 107.177856) scale(0.1 -0.1)">
       <use xlink:href="#DejaVuSans-2212"/>
       <use xlink:href="#DejaVuSans-31" x="83.789062"/>
       <use xlink:href="#DejaVuSans-30" x="147.412109"/>
      </g>
     </g>
    </g>
    <g id="ytick_7">
     <g id="line2d_15">
      <path d="M 251.8225 68.877188 
C 226.341401 68.877188 201.108073 73.896408 177.566607 83.647603 
C 154.025141 93.398798 132.633358 107.69233 114.6155 125.710188 
C 96.597642 143.728046 82.30411 165.119828 72.552916 188.661294 
C 62.801721 212.20276 57.7825 237.436088 57.7825 262.917188 
C 57.7825 288.398287 62.801721 313.631615 72.552916 337.173081 
C 82.30411 360.714547 96.597642 382.106329 114.6155 400.124187 
C 132.633358 418.142045 154.025141 432.435577 177.566607 442.186772 
C 201.108073 451.937967 226.341401 456.957188 251.8225 456.957188 
C 277.303599 456.957188 302.536927 451.937967 326.078393 442.186772 
C 349.619859 432.435577 371.011642 418.142045 389.0295 400.124187 
C 407.047358 382.106329 421.34089 360.714547 431.092084 337.173081 
C 440.843279 313.631615 445.8625 288.398287 445.8625 262.917188 
C 445.8625 237.436088 440.843279 212.20276 431.092084 188.661294 
C 421.34089 165.119828 407.047358 143.728046 389.0295 125.710188 
C 371.011642 107.69233 349.619859 93.398798 326.078393 83.647603 
C 302.536927 73.896408 277.303599 68.877188 251.8225 68.877188 
" clip-path="url(#p83deb108dd)" style="fill: none; stroke: #b0b0b0; stroke-width: 0.8; stroke-linecap: square"/>
     </g>
     <g id="text_15">
      <!-- −5 -->
      <g transform="translate(177.566607 81.567916) scale(0.1 -0.1)">
       <use xlink:href="#DejaVuSans-2212"/>
       <use xlink:href="#DejaVuSans-35" x="83.789062"/>
      </g>
     </g>
    </g>
    <g id="ytick_8">
     <g id="line2d_16">
      <path d="M 251.8225 41.157188 
C 222.701244 41.157188 193.863155 46.89344 166.958622 58.037662 
C 140.054089 69.181885 115.606338 85.51735 95.0145 106.109188 
C 74.422662 126.701026 58.087197 151.148777 46.942975 178.05331 
C 35.798753 204.957842 30.0625 233.795931 30.0625 262.917188 
C 30.0625 292.038444 35.798753 320.876533 46.942975 347.781065 
C 58.087197 374.685598 74.422662 399.133349 95.0145 419.725187 
C 115.606338 440.317025 140.054089 456.65249 166.958622 467.796713 
C 193.863155 478.940935 222.701244 484.677188 251.8225 484.677188 
C 280.943756 484.677188 309.781845 478.940935 336.686378 467.796713 
C 363.590911 456.65249 388.038662 440.317025 408.6305 419.725187 
C 429.222338 399.133349 445.557803 374.685598 456.702025 347.781065 
C 467.846247 320.876533 473.5825 292.038444 473.5825 262.917188 
C 473.5825 233.795931 467.846247 204.957842 456.702025 178.05331 
C 445.557803 151.148777 429.222338 126.701026 408.6305 106.109188 
C 388.038662 85.51735 363.590911 69.181885 336.686378 58.037662 
C 309.781845 46.89344 280.943756 41.157188 251.8225 41.157188 
" clip-path="url(#p83deb108dd)" style="fill: none; stroke: #b0b0b0; stroke-width: 0.8; stroke-linecap: square"/>
     </g>
     <g id="text_16">
      <!-- 0 -->
      <g transform="translate(166.958622 55.957975) scale(0.1 -0.1)">
       <use xlink:href="#DejaVuSans-30"/>
      </g>
     </g>
    </g>
   </g>
   <g id="line2d_17">
    <path d="M 251.8225 462.32378 
L 255.296916 461.966363 
L 258.744541 461.138507 
L 265.52666 458.895812 
L 268.819725 457.196361 
L 272.033344 455.210526 
L 275.218012 453.458345 
L 278.220418 450.748137 
L 283.921027 444.956978 
L 286.45529 441.087445 
L 291.401375 434.352128 
L 293.461861 429.923541 
L 295.588165 426.252872 
L 297.447982 422.032152 
L 298.789951 416.540799 
L 300.30407 412.128117 
L 301.579552 407.422161 
L 302.504952 402.16608 
L 304.126784 399.174505 
L 308.579457 396.628198 
L 311.551561 397.070856 
L 315.151329 398.7263 
L 319.20582 401.073466 
L 323.212513 403.027978 
L 328.072674 406.322908 
L 332.762443 408.936711 
L 337.1308 410.675497 
L 342.237825 413.393559 
L 351.35358 416.18161 
L 356.7569 418.488834 
L 365.856798 419.871934 
L 370.8875 420.92178 
L 379.874025 421.047652 
L 384.34976 420.857026 
L 396.544014 418.112011 
L 404.039946 415.134633 
L 407.526759 413.279043 
L 410.743524 411.11344 
L 414.207979 409.12973 
L 417.333336 406.793562 
L 420.188601 404.193121 
L 423.223136 401.714686 
L 426.034411 399.026449 
L 428.710957 396.2122 
L 433.477657 390.113498 
L 435.449255 386.774998 
L 439.048765 379.909142 
L 440.544058 376.312539 
L 443.13552 368.963726 
L 444.18373 365.197468 
L 444.946582 361.318822 
L 445.817315 357.534781 
L 446.303521 353.605177 
L 446.392927 349.545523 
L 446.721825 345.647043 
L 446.475656 341.562168 
L 445.97598 337.445726 
L 445.75194 333.501731 
L 445.030477 329.444029 
L 444.095222 325.390382 
L 443.380158 321.482241 
L 440.364607 313.436893 
L 438.839922 309.545868 
L 430.335613 297.616621 
L 418.24227 286.305961 
L 412.297036 282.620983 
L 405.829196 279.103944 
L 398.831143 275.778777 
L 390.322689 272.602064 
L 378.17427 269.539003 
L 363.632267 266.821671 
L 343.051755 264.5096 
L 298.619404 262.917188 
L 288.662312 262.274146 
L 335.219954 260.004884 
L 354.655633 257.527931 
L 372.387293 254.486476 
L 383.157143 251.426895 
L 401.440257 244.546437 
L 407.295118 241.066936 
L 418.804234 233.473803 
L 426.384051 225.812984 
L 430.036835 221.773166 
L 432.298669 217.919425 
L 434.961318 213.845289 
L 437.167959 209.770232 
L 438.401812 205.874167 
L 439.877096 201.814545 
L 440.763525 197.859575 
L 441.323733 193.944379 
L 442.130383 189.864836 
L 442.401946 178.065751 
L 442.087906 174.194971 
L 441.591804 170.360514 
L 440.940452 166.556778 
L 438.786064 159.281591 
L 437.846731 155.516048 
L 433.370377 145.018618 
L 431.326478 141.840226 
L 426.89293 135.721075 
L 424.579973 132.735094 
L 422.050127 129.920789 
L 416.795288 124.488582 
L 413.893997 122.030584 
L 410.866664 119.713179 
L 407.775538 117.488626 
L 397.697724 111.858972 
L 393.776323 110.690349 
L 390.09637 109.348497 
L 386.21308 108.31851 
L 381.897993 107.899251 
L 377.909745 107.212407 
L 373.336802 107.385973 
L 368.49192 108.091637 
L 364.009126 108.505544 
L 358.578363 110.454014 
L 348.004978 114.809159 
L 341.821283 118.889027 
L 335.339249 123.921976 
L 328.651252 129.845886 
L 319.164942 141.428207 
L 308.783691 155.788768 
L 295.840972 176.526072 
M 280.971709 200.406508 
L 294.815338 166.353693 
L 303.135762 142.030717 
L 305.389891 130.333242 
L 306.723521 119.895138 
L 307.594245 109.685579 
L 305.904489 96.469941 
L 304.652778 90.117133 
L 302.671142 85.586898 
L 300.667685 80.624474 
L 298.315718 76.443077 
L 295.560549 73.466885 
L 292.797343 70.145705 
L 289.774808 67.669491 
L 283.430253 63.353692 
L 280.074515 61.893657 
L 276.667268 60.572791 
L 273.208003 59.447722 
L 269.667243 58.950842 
L 262.506133 59.061324 
L 258.937056 59.182949 
L 255.368806 59.749448 
L 251.8225 60.832844 
L 248.310639 61.722811 
L 244.839705 62.956113 
L 238.053369 66.00944 
L 228.479688 72.805239 
L 222.699484 79.041699 
L 219.820244 81.423374 
L 217.348387 85.563251 
L 215.007615 89.716772 
L 212.68012 93.372914 
L 210.96775 99.057736 
L 209.211924 103.892352 
L 207.700701 109.04619 
L 207.302621 117.299224 
L 206.53089 123.523946 
L 205.974969 129.766289 
L 205.823562 136.536145 
L 204.948118 140.805249 
L 202.82411 141.641918 
L 200.45075 141.892928 
L 197.000205 139.784298 
L 192.926619 136.614562 
L 188.407909 132.898007 
L 184.129847 130.062876 
L 179.234396 126.398819 
L 174.516441 123.453366 
L 170.031868 121.251657 
L 165.201963 118.756405 
L 160.654444 117.017799 
L 156.328463 115.869266 
L 151.600351 114.331741 
L 147.391149 113.773762 
L 143.399651 113.685939 
L 139.136816 113.378234 
L 128.460857 115.900506 
L 125.251881 117.314347 
L 121.784075 118.494886 
L 118.697309 120.157899 
L 115.79861 122.060326 
L 112.965096 124.059783 
L 107.708966 128.529143 
L 102.976974 133.527746 
L 100.932599 136.305528 
L 99.060423 139.212897 
L 95.85462 145.38696 
L 93.546361 152.091042 
L 93.061102 155.831272 
L 90.934479 162.383194 
L 90.344935 165.891678 
L 90.006145 169.492471 
L 89.530096 172.957039 
L 89.482682 176.599575 
L 89.27541 180.095308 
L 89.842908 183.914462 
L 90.890536 187.87338 
L 90.932302 191.284256 
L 90.752811 194.547161 
L 91.57342 198.172357 
L 91.798047 201.489555 
L 93.00699 208.232622 
L 93.141878 211.358728 
L 93.665889 214.563859 
L 94.892522 217.91824 
L 95.742966 221.095802 
L 96.88734 224.287513 
L 99.207805 227.683309 
L 102.310557 233.85501 
L 104.621528 236.961685 
L 106.53458 239.905842 
L 111.762891 245.72003 
L 113.827384 248.413316 
L 117.638039 251.177568 
L 122.165573 253.850692 
L 127.458299 256.399536 
L 141.391754 260.989612 
L 147.800428 262.917188 
L 159.212999 264.533692 
L 170.896164 265.743197 
L 181.71504 266.591364 
L 191.28017 267.15072 
L 189.408169 268.377734 
L 159.707706 274.227462 
L 151.727978 276.984555 
L 144.50339 279.914865 
L 134.748562 283.560481 
L 123.241297 290.247966 
L 117.54188 293.918311 
L 113.729989 297.347517 
L 109.152118 301.145601 
L 105.204591 304.959196 
L 102.715983 308.503625 
L 99.437431 312.430098 
L 96.592487 316.367167 
L 95.110841 319.955567 
L 93.091989 323.848122 
L 91.871558 327.541563 
L 91.038595 331.165906 
L 89.681322 335.107091 
L 89.247501 338.727155 
L 89.140317 342.26259 
L 88.70734 346.028513 
L 89.311896 352.998286 
L 89.48281 356.644052 
L 91.95566 366.735927 
L 94.259358 373.244087 
L 97.222759 379.416448 
L 98.759619 382.503016 
L 100.430525 385.511992 
L 102.427526 388.274455 
L 104.177814 391.262755 
L 108.434744 396.628433 
L 110.72237 399.176 
L 113.196388 401.5433 
L 115.509771 404.07315 
L 120.867789 408.357128 
L 126.828721 411.878973 
L 129.771972 413.637037 
L 133.086565 414.892254 
L 136.858012 415.480216 
L 140.277834 416.445249 
L 144.379776 416.361299 
L 148.546688 416.029875 
L 152.514861 415.837541 
L 161.5271 413.193969 
L 165.688144 412.106268 
L 178.952536 405.932545 
L 183.55454 402.887247 
L 191.074202 399.360098 
L 194.372355 398.261247 
L 197.220853 398.061006 
L 199.621529 398.905365 
L 201.09454 402.291112 
L 202.52932 406.074978 
L 203.758948 410.841589 
L 204.69782 417.055069 
L 206.343719 421.520546 
L 207.903302 426.825867 
L 209.727126 431.75251 
L 211.966763 435.551352 
L 214.161561 440.097975 
L 216.678771 443.715999 
L 219.39184 446.8406 
L 222.142695 450.308104 
L 225.102834 453.037486 
L 228.175648 455.50534 
L 231.330595 457.884636 
L 234.636347 459.355816 
L 241.401163 461.768143 
L 244.861375 462.257713 
L 248.338989 462.487419 
L 248.338989 462.487419 
" clip-path="url(#p83deb108dd)" style="fill: none; stroke: #ff0000; stroke-width: 1.5; stroke-linecap: square"/>
   </g>
   <g id="line2d_18">
    <path d="M 251.8225 82.570868 
L 248.727465 85.602725 
L 245.745785 88.902849 
L 242.890796 92.49012 
L 240.177676 96.38845 
L 237.624886 100.637717 
L 235.25327 105.271496 
L 233.088253 110.338991 
L 231.165876 115.937671 
L 229.514512 122.070096 
L 228.195782 128.92341 
L 227.2678 136.594208 
L 226.818947 145.284719 
L 226.927318 155.084307 
L 227.651123 165.971091 
L 228.832648 177.117891 
L 229.600383 185.419454 
L 228.299872 185.97814 
L 224.596481 179.124117 
L 219.79908 169.914422 
L 214.805671 161.214285 
L 209.917085 153.749849 
L 205.214529 147.558411 
L 200.695532 142.469599 
L 196.301172 138.214242 
L 192.024565 134.680102 
L 187.875667 131.806749 
L 183.835367 129.484926 
L 179.872069 127.598109 
L 175.99741 126.125105 
L 172.205116 125.015833 
L 168.488495 124.226112 
L 164.849725 123.731653 
L 161.283428 123.499242 
L 157.794482 123.514918 
L 154.383766 123.760254 
L 151.044518 124.208195 
L 147.788263 124.859092 
L 144.606207 125.68659 
L 141.505319 126.686814 
L 138.488868 127.851424 
L 135.556044 129.16793 
L 132.705315 130.624151 
L 129.945781 132.220408 
L 127.275145 133.944625 
L 124.694334 135.789022 
L 122.211855 137.753642 
L 119.824186 139.826768 
L 117.535386 142.004527 
L 115.345203 144.279283 
L 113.261496 146.650701 
L 111.287938 149.114543 
L 109.419324 151.659633 
L 107.663123 154.285305 
L 106.017936 156.983971 
L 104.495626 159.7578 
L 103.089976 162.595833 
L 101.81279 165.499743 
L 100.657343 168.458714 
L 99.63536 171.473928 
L 98.749212 174.540283 
L 98.00111 177.652599 
L 97.393101 180.80562 
L 96.936947 183.999056 
L 96.629637 187.224571 
L 96.482882 190.481134 
L 96.498403 193.762444 
L 96.687924 197.066467 
L 97.052988 200.386246 
L 97.605261 203.718736 
L 98.356457 207.060116 
L 99.318304 210.405782 
L 100.497235 213.748628 
L 101.910116 217.084372 
L 103.579174 220.409098 
L 105.510655 223.713047 
L 107.753565 226.996768 
L 110.335735 230.252394 
L 113.312058 233.475884 
L 116.683252 236.648779 
L 120.504011 239.762195 
L 124.938556 242.820745 
L 129.987395 245.79438 
L 135.925141 248.686781 
L 142.917292 251.470789 
L 151.294612 254.122137 
L 161.719674 256.616584 
L 175.29835 258.906727 
L 194.410567 260.912319 
L 226.811782 262.480624 
M 228.862749 263.317951 
L 195.463285 264.885295 
L 175.962718 266.89283 
L 162.217418 269.182985 
L 151.681215 271.678415 
L 143.192974 274.334611 
L 136.145248 277.120568 
L 130.206997 280.009132 
L 125.102829 282.987612 
L 120.613207 286.052926 
L 116.792095 289.164439 
L 113.366286 292.346964 
L 110.389754 295.56951 
L 107.807358 298.824195 
L 105.564206 302.106979 
L 103.595162 305.420693 
L 101.910116 308.750003 
L 100.481417 312.090886 
L 99.292094 315.437618 
L 98.319989 318.787532 
L 97.558679 322.13352 
L 96.991304 325.473051 
L 96.616479 328.798235 
L 96.417367 332.10801 
L 96.39244 335.395415 
L 96.529979 338.658411 
L 96.823333 341.893208 
L 97.27562 345.091221 
L 97.87019 348.254346 
L 98.609976 351.37448 
L 99.488044 354.448963 
L 100.502191 357.472611 
L 101.645405 360.443334 
L 102.919917 363.353248 
L 104.313971 366.203772 
L 105.829558 368.987268 
L 107.46388 371.69921 
L 109.209625 374.338577 
L 111.072513 376.89428 
L 113.040655 379.368982 
L 115.115077 381.755137 
L 117.296426 384.045008 
L 119.576854 386.238248 
L 121.956622 388.327209 
L 124.435601 390.304086 
L 127.005562 392.168911 
L 129.669768 393.909955 
L 132.419671 395.527464 
L 135.261432 397.005358 
L 138.185961 398.343942 
L 141.194802 399.531017 
L 144.288776 400.554077 
L 147.457953 401.413619 
L 150.708874 402.088155 
L 154.033976 402.573672 
L 157.437963 402.848019 
L 160.915051 402.902382 
L 164.464864 402.718629 
L 168.091598 402.268809 
L 171.792088 401.533927 
L 175.570053 400.480244 
L 179.426999 399.073322 
L 183.357152 397.288 
L 187.389601 395.024209 
L 191.509106 392.259678 
L 195.737435 388.886307 
L 200.088992 384.793694 
L 204.591483 379.818056 
L 209.241576 373.844288 
L 214.066169 366.651856 
L 219.022951 358.173993 
L 227.959482 340.969604 
L 229.844884 339.562243 
L 229.406605 346.574447 
L 228.227846 357.550176 
L 227.401227 368.697343 
L 227.199326 378.760116 
L 227.574575 387.661946 
L 228.436458 395.546022 
L 229.69664 402.614373 
L 231.30476 408.908495 
L 233.199734 414.587442 
L 235.337878 419.757889 
L 237.688184 424.473158 
L 240.223697 428.787796 
L 242.921842 432.75186 
L 245.764553 436.394086 
L 248.735979 439.743852 
L 251.8225 442.819988 
L 255.012066 445.647313 
L 258.294113 448.239937 
L 261.659184 450.612293 
L 265.09855 452.773554 
L 268.604222 454.733146 
L 272.169528 456.506229 
L 275.786904 458.091598 
L 279.45031 459.499271 
L 283.15446 460.739397 
L 286.892899 461.811301 
L 290.661282 462.725398 
L 294.453604 463.480764 
L 298.265446 464.083688 
L 302.092163 464.537794 
L 305.92915 464.845955 
L 309.772226 465.011898 
L 313.617052 465.038059 
L 317.459614 464.927453 
L 321.296825 464.685277 
L 325.122345 464.306855 
L 328.935854 463.804344 
L 332.729136 463.168139 
L 336.504113 462.414567 
L 340.254794 461.539371 
L 343.974862 460.538565 
L 347.66498 459.423392 
L 351.321513 458.194996 
L 354.938263 456.849732 
L 358.514107 455.393942 
L 362.048308 453.833887 
L 365.531943 452.16148 
L 368.967224 450.387934 
L 372.348016 448.510207 
L 375.67411 446.53475 
L 378.939313 444.45881 
L 382.143688 442.288915 
L 385.281 440.022598 
L 388.351589 437.666452 
L 391.352678 435.222608 
L 397.131928 430.076563 
L 402.593612 424.599411 
L 405.199834 421.744066 
L 407.717093 418.811781 
L 410.146888 415.809272 
L 412.487013 412.739269 
L 414.727099 409.597147 
L 416.873084 406.393471 
L 418.914516 403.124037 
L 420.857771 399.799251 
L 422.692331 396.41533 
L 424.41615 392.975832 
L 426.027288 389.484375 
L 427.528451 385.947819 
L 428.904289 382.360362 
L 430.163555 378.733223 
L 431.295862 375.064591 
L 432.299103 371.358471 
L 433.169359 367.617845 
L 433.903085 363.846104 
L 434.495424 360.046104 
L 434.941632 356.221046 
L 435.237094 352.374462 
L 435.375583 348.509396 
L 435.35189 344.629736 
L 435.157795 340.738403 
L 434.786598 336.839481 
L 434.232158 332.937695 
L 433.477991 329.034379 
L 432.51793 325.135614 
L 431.340664 321.246175 
L 429.924308 317.368374 
L 428.262807 313.510631 
L 426.323553 309.674604 
L 424.089828 305.868256 
L 421.52883 302.096981 
L 418.596838 298.366167 
L 415.249997 294.684275 
L 411.433538 291.06092 
L 407.054371 287.503501 
L 401.986243 284.021325 
L 396.168693 280.640671 
L 389.233172 277.359631 
L 380.959027 274.21517 
L 370.683901 271.228786 
L 357.412762 268.450939 
L 338.765952 265.95332 
L 307.708595 263.892683 
M 298.396094 262.104242 
L 334.111829 260.043581 
L 354.312376 257.545921 
L 368.361093 254.768015 
L 379.08124 251.78349 
L 387.689355 248.637006 
L 394.848051 245.355858 
L 400.888234 241.967365 
L 406.035883 238.492187 
L 410.516296 234.93519 
L 414.422792 231.310892 
L 417.837639 227.62958 
L 420.831984 223.898274 
L 423.449689 220.125723 
L 425.729138 216.319044 
L 427.708567 212.482669 
L 429.404736 208.62485 
L 430.850307 204.747527 
L 432.056638 200.857597 
L 433.04559 196.957377 
L 433.823272 193.053637 
L 434.401075 189.150655 
L 434.790359 185.251939 
L 435.002426 181.36023 
L 435.045468 177.478914 
L 434.92317 173.613024 
L 434.642778 169.765603 
L 434.211021 165.939491 
L 433.632129 162.138464 
L 432.911532 158.365386 
L 432.052942 154.623813 
L 431.061253 150.916384 
L 429.940374 147.246087 
L 428.692864 143.61662 
L 427.324089 140.029652 
L 425.834425 136.490124 
L 424.234617 132.995338 
L 422.517582 129.555574 
L 420.68974 126.171193 
L 418.757379 122.842192 
L 416.722456 119.571843 
L 414.587019 116.363356 
L 412.35321 113.219879 
L 410.02326 110.14449 
L 407.599487 107.1402 
L 405.088149 104.205961 
L 402.487744 101.348494 
L 399.80455 98.56647 
L 397.037361 95.866599 
L 394.192463 93.247272 
L 391.272432 90.710863 
L 388.279911 88.259666 
L 385.21427 85.900329 
L 382.081773 83.630679 
L 378.882074 81.457309 
L 375.621407 79.37776 
L 372.302724 77.393912 
L 368.926094 75.512263 
L 365.497678 73.729921 
L 362.017816 72.053301 
L 358.489917 70.484073 
L 354.917441 69.023803 
L 351.306412 67.669018 
L 347.655258 66.430915 
L 343.967833 65.310884 
L 340.250284 64.305133 
L 336.504113 63.419808 
L 332.735366 62.650815 
L 328.943802 62.009328 
L 325.133721 61.496262 
L 321.311264 61.107163 
L 317.476746 60.854195 
L 313.636827 60.731634 
L 309.794384 60.745203 
L 305.9534 60.897919 
L 302.118263 61.191899 
L 298.293132 61.630765 
L 294.482421 62.21804 
L 290.690796 62.957141 
L 286.922742 63.853821 
L 283.184814 64.903327 
L 279.47963 66.126482 
L 275.815281 67.511665 
L 272.196185 69.074519 
L 268.628865 70.819561 
L 265.119821 72.756644 
L 261.676883 74.884362 
L 258.307076 77.223216 
L 255.019129 79.782412 
L 255.019129 79.782412 
" clip-path="url(#p83deb108dd)" style="fill: none; stroke-dasharray: 5.55,2.4; stroke-dashoffset: 0; stroke: #0000ff; stroke-width: 1.5"/>
   </g>
   <g id="patch_3">
    <path d="M 251.8225 41.157188 
C 222.701244 41.157188 193.863155 46.89344 166.958622 58.037662 
C 140.054089 69.181885 115.606338 85.51735 95.0145 106.109188 
C 74.422662 126.701026 58.087197 151.148777 46.942975 178.05331 
C 35.798753 204.957842 30.0625 233.795931 30.0625 262.917188 
C 30.0625 292.038444 35.798753 320.876533 46.942975 347.781065 
C 58.087197 374.685598 74.422662 399.133349 95.0145 419.725187 
C 115.606338 440.317025 140.054089 456.65249 166.958622 467.796713 
C 193.863155 478.940935 222.701244 484.677188 251.8225 484.677188 
C 280.943756 484.677188 309.781845 478.940935 336.686378 467.796713 
C 363.590911 456.65249 388.038662 440.317025 408.6305 419.725187 
C 429.222338 399.133349 445.557803 374.685598 456.702025 347.781065 
C 467.846247 320.876533 473.5825 292.038444 473.5825 262.917188 
C 473.5825 233.795931 467.846247 204.957842 456.702025 178.05331 
C 445.557803 151.148777 429.222338 126.701026 408.6305 106.109188 
C 388.038662 85.51735 363.590911 69.181885 336.686378 58.037662 
C 309.781845 46.89344 280.943756 41.157188 251.8225 41.157188 
" style="fill: none; stroke: #000000; stroke-width: 0.8; stroke-linejoin: miter; stroke-linecap: square"/>
   </g>
   <g id="text_17">
    <g id="patch_4">
     <path d="M 384.8785 509.853188 
L 466.473813 509.853188 
Q 469.473813 509.853188 469.473813 506.853188 
L 469.473813 485.421 
Q 469.473813 482.421 466.473813 482.421 
L 384.8785 482.421 
Q 381.8785 482.421 381.8785 485.421 
L 381.8785 506.853188 
Q 381.8785 509.853188 384.8785 509.853188 
z
" style="fill: #ffffff; stroke: #808080; stroke-linejoin: miter"/>
    </g>
    <!-- G_simul: 2.5 dBi -->
    <g transform="translate(384.8785 493.019438) scale(0.1 -0.1)">
     <defs>
      <path id="DejaVuSans-47" d="M 3809 666 
L 3809 1919 
L 2778 1919 
L 2778 2438 
L 4434 2438 
L 4434 434 
Q 4069 175 3628 42 
Q 3188 -91 2688 -91 
Q 1594 -91 976 548 
Q 359 1188 359 2328 
Q 359 3472 976 4111 
Q 1594 4750 2688 4750 
Q 3144 4750 3555 4637 
Q 3966 4525 4313 4306 
L 4313 3634 
Q 3963 3931 3569 4081 
Q 3175 4231 2741 4231 
Q 1884 4231 1454 3753 
Q 1025 3275 1025 2328 
Q 1025 1384 1454 906 
Q 1884 428 2741 428 
Q 3075 428 3337 486 
Q 3600 544 3809 666 
z
" transform="scale(0.015625)"/>
      <path id="DejaVuSans-5f" d="M 3263 -1063 
L 3263 -1509 
L -63 -1509 
L -63 -1063 
L 3263 -1063 
z
" transform="scale(0.015625)"/>
      <path id="DejaVuSans-73" d="M 2834 3397 
L 2834 2853 
Q 2591 2978 2328 3040 
Q 2066 3103 1784 3103 
Q 1356 3103 1142 2972 
Q 928 2841 928 2578 
Q 928 2378 1081 2264 
Q 1234 2150 1697 2047 
L 1894 2003 
Q 2506 1872 2764 1633 
Q 3022 1394 3022 966 
Q 3022 478 2636 193 
Q 2250 -91 1575 -91 
Q 1294 -91 989 -36 
Q 684 19 347 128 
L 347 722 
Q 666 556 975 473 
Q 1284 391 1588 391 
Q 1994 391 2212 530 
Q 2431 669 2431 922 
Q 2431 1156 2273 1281 
Q 2116 1406 1581 1522 
L 1381 1569 
Q 847 1681 609 1914 
Q 372 2147 372 2553 
Q 372 3047 722 3315 
Q 1072 3584 1716 3584 
Q 2034 3584 2315 3537 
Q 2597 3491 2834 3397 
z
" transform="scale(0.015625)"/>
      <path id="DejaVuSans-69" d="M 603 3500 
L 1178 3500 
L 1178 0 
L 603 0 
L 603 3500 
z
M 603 4863 
L 1178 4863 
L 1178 4134 
L 603 4134 
L 603 4863 
z
" transform="scale(0.015625)"/>
      <path id="DejaVuSans-6d" d="M 3328 2828 
Q 3544 3216 3844 3400 
Q 4144 3584 4550 3584 
Q 5097 3584 5394 3201 
Q 5691 2819 5691 2113 
L 5691 0 
L 5113 0 
L 5113 2094 
Q 5113 2597 4934 2840 
Q 4756 3084 4391 3084 
Q 3944 3084 3684 2787 
Q 3425 2491 3425 1978 
L 3425 0 
L 2847 0 
L 2847 2094 
Q 2847 2600 2669 2842 
Q 2491 3084 2119 3084 
Q 1678 3084 1418 2786 
Q 1159 2488 1159 1978 
L 1159 0 
L 581 0 
L 581 3500 
L 1159 3500 
L 1159 2956 
Q 1356 3278 1631 3431 
Q 1906 3584 2284 3584 
Q 2666 3584 2933 3390 
Q 3200 3197 3328 2828 
z
" transform="scale(0.015625)"/>
      <path id="DejaVuSans-75" d="M 544 1381 
L 544 3500 
L 1119 3500 
L 1119 1403 
Q 1119 906 1312 657 
Q 1506 409 1894 409 
Q 2359 409 2629 706 
Q 2900 1003 2900 1516 
L 2900 3500 
L 3475 3500 
L 3475 0 
L 2900 0 
L 2900 538 
Q 2691 219 2414 64 
Q 2138 -91 1772 -91 
Q 1169 -91 856 284 
Q 544 659 544 1381 
z
M 1991 3584 
L 1991 3584 
z
" transform="scale(0.015625)"/>
      <path id="DejaVuSans-6c" d="M 603 4863 
L 1178 4863 
L 1178 0 
L 603 0 
L 603 4863 
z
" transform="scale(0.015625)"/>
      <path id="DejaVuSans-3a" d="M 750 794 
L 1409 794 
L 1409 0 
L 750 0 
L 750 794 
z
M 750 3309 
L 1409 3309 
L 1409 2516 
L 750 2516 
L 750 3309 
z
" transform="scale(0.015625)"/>
      <path id="DejaVuSans-20" transform="scale(0.015625)"/>
      <path id="DejaVuSans-2e" d="M 684 794 
L 1344 794 
L 1344 0 
L 684 0 
L 684 794 
z
" transform="scale(0.015625)"/>
      <path id="DejaVuSans-64" d="M 2906 2969 
L 2906 4863 
L 3481 4863 
L 3481 0 
L 2906 0 
L 2906 525 
Q 2725 213 2448 61 
Q 2172 -91 1784 -91 
Q 1150 -91 751 415 
Q 353 922 353 1747 
Q 353 2572 751 3078 
Q 1150 3584 1784 3584 
Q 2172 3584 2448 3432 
Q 2725 3281 2906 2969 
z
M 947 1747 
Q 947 1113 1208 752 
Q 1469 391 1925 391 
Q 2381 391 2643 752 
Q 2906 1113 2906 1747 
Q 2906 2381 2643 2742 
Q 2381 3103 1925 3103 
Q 1469 3103 1208 2742 
Q 947 2381 947 1747 
z
" transform="scale(0.015625)"/>
      <path id="DejaVuSans-42" d="M 1259 2228 
L 1259 519 
L 2272 519 
Q 2781 519 3026 730 
Q 3272 941 3272 1375 
Q 3272 1813 3026 2020 
Q 2781 2228 2272 2228 
L 1259 2228 
z
M 1259 4147 
L 1259 2741 
L 2194 2741 
Q 2656 2741 2882 2914 
Q 3109 3088 3109 3444 
Q 3109 3797 2882 3972 
Q 2656 4147 2194 4147 
L 1259 4147 
z
M 628 4666 
L 2241 4666 
Q 2963 4666 3353 4366 
Q 3744 4066 3744 3513 
Q 3744 3084 3544 2831 
Q 3344 2578 2956 2516 
Q 3422 2416 3680 2098 
Q 3938 1781 3938 1306 
Q 3938 681 3513 340 
Q 3088 0 2303 0 
L 628 0 
L 628 4666 
z
" transform="scale(0.015625)"/>
     </defs>
     <use xlink:href="#DejaVuSans-47"/>
     <use xlink:href="#DejaVuSans-5f" x="77.490234"/>
     <use xlink:href="#DejaVuSans-73" x="127.490234"/>
     <use xlink:href="#DejaVuSans-69" x="179.589844"/>
     <use xlink:href="#DejaVuSans-6d" x="207.373047"/>
     <use xlink:href="#DejaVuSans-75" x="304.785156"/>
     <use xlink:href="#DejaVuSans-6c" x="368.164062"/>
     <use xlink:href="#DejaVuSans-3a" x="395.947266"/>
     <use xlink:href="#DejaVuSans-20" x="429.638672"/>
     <use xlink:href="#DejaVuSans-32" x="461.425781"/>
     <use xlink:href="#DejaVuSans-2e" x="525.048828"/>
     <use xlink:href="#DejaVuSans-35" x="556.835938"/>
     <use xlink:href="#DejaVuSans-20" x="620.458984"/>
     <use xlink:href="#DejaVuSans-64" x="652.246094"/>
     <use xlink:href="#DejaVuSans-42" x="715.722656"/>
     <use xlink:href="#DejaVuSans-69" x="784.326172"/>
    </g>
    <!-- G_meas: 2.4 dBi -->
    <g transform="translate(384.8785 504.495375) scale(0.1 -0.1)">
     <defs>
      <path id="DejaVuSans-65" d="M 3597 1894 
L 3597 1613 
L 953 1613 
Q 991 1019 1311 708 
Q 1631 397 2203 397 
Q 2534 397 2845 478 
Q 3156 559 3463 722 
L 3463 178 
Q 3153 47 2828 -22 
Q 2503 -91 2169 -91 
Q 1331 -91 842 396 
Q 353 884 353 1716 
Q 353 2575 817 3079 
Q 1281 3584 2069 3584 
Q 2775 3584 3186 3129 
Q 3597 2675 3597 1894 
z
M 3022 2063 
Q 3016 2534 2758 2815 
Q 2500 3097 2075 3097 
Q 1594 3097 1305 2825 
Q 1016 2553 972 2059 
L 3022 2063 
z
" transform="scale(0.015625)"/>
      <path id="DejaVuSans-61" d="M 2194 1759 
Q 1497 1759 1228 1600 
Q 959 1441 959 1056 
Q 959 750 1161 570 
Q 1363 391 1709 391 
Q 2188 391 2477 730 
Q 2766 1069 2766 1631 
L 2766 1759 
L 2194 1759 
z
M 3341 1997 
L 3341 0 
L 2766 0 
L 2766 531 
Q 2569 213 2275 61 
Q 1981 -91 1556 -91 
Q 1019 -91 701 211 
Q 384 513 384 1019 
Q 384 1609 779 1909 
Q 1175 2209 1959 2209 
L 2766 2209 
L 2766 2266 
Q 2766 2663 2505 2880 
Q 2244 3097 1772 3097 
Q 1472 3097 1187 3025 
Q 903 2953 641 2809 
L 641 3341 
Q 956 3463 1253 3523 
Q 1550 3584 1831 3584 
Q 2591 3584 2966 3190 
Q 3341 2797 3341 1997 
z
" transform="scale(0.015625)"/>
     </defs>
     <use xlink:href="#DejaVuSans-47"/>
     <use xlink:href="#DejaVuSans-5f" x="77.490234"/>
     <use xlink:href="#DejaVuSans-6d" x="127.490234"/>
     <use xlink:href="#DejaVuSans-65" x="224.902344"/>
     <use xlink:href="#DejaVuSans-61" x="286.425781"/>
     <use xlink:href="#DejaVuSans-73" x="347.705078"/>
     <use xlink:href="#DejaVuSans-3a" x="399.804688"/>
     <use xlink:href="#DejaVuSans-20" x="433.496094"/>
     <use xlink:href="#DejaVuSans-32" x="465.283203"/>
     <use xlink:href="#DejaVuSans-2e" x="528.90625"/>
     <use xlink:href="#DejaVuSans-34" x="560.693359"/>
     <use xlink:href="#DejaVuSans-20" x="624.316406"/>
     <use xlink:href="#DejaVuSans-64" x="656.103516"/>
     <use xlink:href="#DejaVuSans-42" x="719.580078"/>
     <use xlink:href="#DejaVuSans-69" x="788.183594"/>
    </g>
   </g>
   <g id="text_18">
    <g id="patch_5">
     <path d="M 52.2385 56.370938 
L 121.861 56.370938 
Q 125.461 56.370938 125.461 52.770938 
L 125.461 41.157188 
Q 125.461 37.557188 121.861 37.557188 
L 52.2385 37.557188 
Q 48.6385 37.557188 48.6385 41.157188 
L 48.6385 52.770938 
Q 48.6385 56.370938 52.2385 56.370938 
z
" style="fill: #ffffff; stroke: #808080; stroke-linejoin: miter"/>
    </g>
    <!-- Freq: 6 GHz -->
    <g transform="translate(52.2385 50.275313) scale(0.12 -0.12)">
     <defs>
      <path id="DejaVuSans-46" d="M 628 4666 
L 3309 4666 
L 3309 4134 
L 1259 4134 
L 1259 2759 
L 3109 2759 
L 3109 2228 
L 1259 2228 
L 1259 0 
L 628 0 
L 628 4666 
z
" transform="scale(0.015625)"/>
      <path id="DejaVuSans-72" d="M 2631 2963 
Q 2534 3019 2420 3045 
Q 2306 3072 2169 3072 
Q 1681 3072 1420 2755 
Q 1159 2438 1159 1844 
L 1159 0 
L 581 0 
L 581 3500 
L 1159 3500 
L 1159 2956 
Q 1341 3275 1631 3429 
Q 1922 3584 2338 3584 
Q 2397 3584 2469 3576 
Q 2541 3569 2628 3553 
L 2631 2963 
z
" transform="scale(0.015625)"/>
      <path id="DejaVuSans-71" d="M 947 1747 
Q 947 1113 1208 752 
Q 1469 391 1925 391 
Q 2381 391 2643 752 
Q 2906 1113 2906 1747 
Q 2906 2381 2643 2742 
Q 2381 3103 1925 3103 
Q 1469 3103 1208 2742 
Q 947 2381 947 1747 
z
M 2906 525 
Q 2725 213 2448 61 
Q 2172 -91 1784 -91 
Q 1150 -91 751 415 
Q 353 922 353 1747 
Q 353 2572 751 3078 
Q 1150 3584 1784 3584 
Q 2172 3584 2448 3432 
Q 2725 3281 2906 2969 
L 2906 3500 
L 3481 3500 
L 3481 -1331 
L 2906 -1331 
L 2906 525 
z
" transform="scale(0.015625)"/>
      <path id="DejaVuSans-36" d="M 2113 2584 
Q 1688 2584 1439 2293 
Q 1191 2003 1191 1497 
Q 1191 994 1439 701 
Q 1688 409 2113 409 
Q 2538 409 2786 701 
Q 3034 994 3034 1497 
Q 3034 2003 2786 2293 
Q 2538 2584 2113 2584 
z
M 3366 4563 
L 3366 3988 
Q 3128 4100 2886 4159 
Q 2644 4219 2406 4219 
Q 1781 4219 1451 3797 
Q 1122 3375 1075 2522 
Q 1259 2794 1537 2939 
Q 1816 3084 2150 3084 
Q 2853 3084 3261 2657 
Q 3669 2231 3669 1497 
Q 3669 778 3244 343 
Q 2819 -91 2113 -91 
Q 1303 -91 875 529 
Q 447 1150 447 2328 
Q 447 3434 972 4092 
Q 1497 4750 2381 4750 
Q 2619 4750 2861 4703 
Q 3103 4656 3366 4563 
z
" transform="scale(0.015625)"/>
      <path id="DejaVuSans-48" d="M 628 4666 
L 1259 4666 
L 1259 2753 
L 3553 2753 
L 3553 4666 
L 4184 4666 
L 4184 0 
L 3553 0 
L 3553 2222 
L 1259 2222 
L 1259 0 
L 628 0 
L 628 4666 
z
" transform="scale(0.015625)"/>
      <path id="DejaVuSans-7a" d="M 353 3500 
L 3084 3500 
L 3084 2975 
L 922 459 
L 3084 459 
L 3084 0 
L 275 0 
L 275 525 
L 2438 3041 
L 353 3041 
L 353 3500 
z
" transform="scale(0.015625)"/>
     </defs>
     <use xlink:href="#DejaVuSans-46"/>
     <use xlink:href="#DejaVuSans-72" x="50.269531"/>
     <use xlink:href="#DejaVuSans-65" x="89.132812"/>
     <use xlink:href="#DejaVuSans-71" x="150.65625"/>
     <use xlink:href="#DejaVuSans-3a" x="214.132812"/>
     <use xlink:href="#DejaVuSans-20" x="247.824219"/>
     <use xlink:href="#DejaVuSans-36" x="279.611328"/>
     <use xlink:href="#DejaVuSans-20" x="343.234375"/>
     <use xlink:href="#DejaVuSans-47" x="375.021484"/>
     <use xlink:href="#DejaVuSans-48" x="452.511719"/>
     <use xlink:href="#DejaVuSans-7a" x="527.707031"/>
    </g>
   </g>
   <g id="text_19">
    <!-- Radiation Diagram -->
    <g transform="translate(195.798437 16.318125) scale(0.12 -0.12)">
     <defs>
      <path id="DejaVuSans-52" d="M 2841 2188 
Q 3044 2119 3236 1894 
Q 3428 1669 3622 1275 
L 4263 0 
L 3584 0 
L 2988 1197 
Q 2756 1666 2539 1819 
Q 2322 1972 1947 1972 
L 1259 1972 
L 1259 0 
L 628 0 
L 628 4666 
L 2053 4666 
Q 2853 4666 3247 4331 
Q 3641 3997 3641 3322 
Q 3641 2881 3436 2590 
Q 3231 2300 2841 2188 
z
M 1259 4147 
L 1259 2491 
L 2053 2491 
Q 2509 2491 2742 2702 
Q 2975 2913 2975 3322 
Q 2975 3731 2742 3939 
Q 2509 4147 2053 4147 
L 1259 4147 
z
" transform="scale(0.015625)"/>
      <path id="DejaVuSans-74" d="M 1172 4494 
L 1172 3500 
L 2356 3500 
L 2356 3053 
L 1172 3053 
L 1172 1153 
Q 1172 725 1289 603 
Q 1406 481 1766 481 
L 2356 481 
L 2356 0 
L 1766 0 
Q 1100 0 847 248 
Q 594 497 594 1153 
L 594 3053 
L 172 3053 
L 172 3500 
L 594 3500 
L 594 4494 
L 1172 4494 
z
" transform="scale(0.015625)"/>
      <path id="DejaVuSans-6f" d="M 1959 3097 
Q 1497 3097 1228 2736 
Q 959 2375 959 1747 
Q 959 1119 1226 758 
Q 1494 397 1959 397 
Q 2419 397 2687 759 
Q 2956 1122 2956 1747 
Q 2956 2369 2687 2733 
Q 2419 3097 1959 3097 
z
M 1959 3584 
Q 2709 3584 3137 3096 
Q 3566 2609 3566 1747 
Q 3566 888 3137 398 
Q 2709 -91 1959 -91 
Q 1206 -91 779 398 
Q 353 888 353 1747 
Q 353 2609 779 3096 
Q 1206 3584 1959 3584 
z
" transform="scale(0.015625)"/>
      <path id="DejaVuSans-6e" d="M 3513 2113 
L 3513 0 
L 2938 0 
L 2938 2094 
Q 2938 2591 2744 2837 
Q 2550 3084 2163 3084 
Q 1697 3084 1428 2787 
Q 1159 2491 1159 1978 
L 1159 0 
L 581 0 
L 581 3500 
L 1159 3500 
L 1159 2956 
Q 1366 3272 1645 3428 
Q 1925 3584 2291 3584 
Q 2894 3584 3203 3211 
Q 3513 2838 3513 2113 
z
" transform="scale(0.015625)"/>
      <path id="DejaVuSans-44" d="M 1259 4147 
L 1259 519 
L 2022 519 
Q 2988 519 3436 956 
Q 3884 1394 3884 2338 
Q 3884 3275 3436 3711 
Q 2988 4147 2022 4147 
L 1259 4147 
z
M 628 4666 
L 1925 4666 
Q 3281 4666 3915 4102 
Q 4550 3538 4550 2338 
Q 4550 1131 3912 565 
Q 3275 0 1925 0 
L 628 0 
L 628 4666 
z
" transform="scale(0.015625)"/>
      <path id="DejaVuSans-67" d="M 2906 1791 
Q 2906 2416 2648 2759 
Q 2391 3103 1925 3103 
Q 1463 3103 1205 2759 
Q 947 2416 947 1791 
Q 947 1169 1205 825 
Q 1463 481 1925 481 
Q 2391 481 2648 825 
Q 2906 1169 2906 1791 
z
M 3481 434 
Q 3481 -459 3084 -895 
Q 2688 -1331 1869 -1331 
Q 1566 -1331 1297 -1286 
Q 1028 -1241 775 -1147 
L 775 -588 
Q 1028 -725 1275 -790 
Q 1522 -856 1778 -856 
Q 2344 -856 2625 -561 
Q 2906 -266 2906 331 
L 2906 616 
Q 2728 306 2450 153 
Q 2172 0 1784 0 
Q 1141 0 747 490 
Q 353 981 353 1791 
Q 353 2603 747 3093 
Q 1141 3584 1784 3584 
Q 2172 3584 2450 3431 
Q 2728 3278 2906 2969 
L 2906 3500 
L 3481 3500 
L 3481 434 
z
" transform="scale(0.015625)"/>
     </defs>
     <use xlink:href="#DejaVuSans-52"/>
     <use xlink:href="#DejaVuSans-61" x="67.232422"/>
     <use xlink:href="#DejaVuSans-64" x="128.511719"/>
     <use xlink:href="#DejaVuSans-69" x="191.988281"/>
     <use xlink:href="#DejaVuSans-61" x="219.771484"/>
     <use xlink:href="#DejaVuSans-74" x="281.050781"/>
     <use xlink:href="#DejaVuSans-69" x="320.259766"/>
     <use xlink:href="#DejaVuSans-6f" x="348.042969"/>
     <use xlink:href="#DejaVuSans-6e" x="409.224609"/>
     <use xlink:href="#DejaVuSans-20" x="472.603516"/>
     <use xlink:href="#DejaVuSans-44" x="504.390625"/>
     <use xlink:href="#DejaVuSans-69" x="581.392578"/>
     <use xlink:href="#DejaVuSans-61" x="609.175781"/>
     <use xlink:href="#DejaVuSans-67" x="670.455078"/>
     <use xlink:href="#DejaVuSans-72" x="733.931641"/>
     <use xlink:href="#DejaVuSans-61" x="775.044922"/>
     <use xlink:href="#DejaVuSans-6d" x="836.324219"/>
    </g>
   </g>
   <g id="legend_1">
    <g id="patch_6">
     <path d="M 406.599687 78.513438 
L 466.5825 78.513438 
Q 468.5825 78.513438 468.5825 76.513438 
L 468.5825 48.157188 
Q 468.5825 46.157188 466.5825 46.157188 
L 406.599687 46.157188 
Q 404.599687 46.157188 404.599687 48.157188 
L 404.599687 76.513438 
Q 404.599687 78.513438 406.599687 78.513438 
z
" style="fill: #ffffff; opacity: 0.8; stroke: #cccccc; stroke-linejoin: miter"/>
    </g>
    <g id="line2d_19">
     <path d="M 408.599687 54.255625 
L 418.599687 54.255625 
L 428.599687 54.255625 
" style="fill: none; stroke: #ff0000; stroke-width: 1.5; stroke-linecap: square"/>
    </g>
    <g id="text_20">
     <!-- Meas -->
     <g transform="translate(436.599687 57.755625) scale(0.1 -0.1)">
      <defs>
       <path id="DejaVuSans-4d" d="M 628 4666 
L 1569 4666 
L 2759 1491 
L 3956 4666 
L 4897 4666 
L 4897 0 
L 4281 0 
L 4281 4097 
L 3078 897 
L 2444 897 
L 1241 4097 
L 1241 0 
L 628 0 
L 628 4666 
z
" transform="scale(0.015625)"/>
      </defs>
      <use xlink:href="#DejaVuSans-4d"/>
      <use xlink:href="#DejaVuSans-65" x="86.279297"/>
      <use xlink:href="#DejaVuSans-61" x="147.802734"/>
      <use xlink:href="#DejaVuSans-73" x="209.082031"/>
     </g>
    </g>
    <g id="line2d_20">
     <path d="M 408.599687 68.93375 
L 418.599687 68.93375 
L 428.599687 68.93375 
" style="fill: none; stroke-dasharray: 5.55,2.4; stroke-dashoffset: 0; stroke: #0000ff; stroke-width: 1.5"/>
    </g>
    <g id="text_21">
     <!-- Simul -->
     <g transform="translate(436.599687 72.43375) scale(0.1 -0.1)">
      <defs>
       <path id="DejaVuSans-53" d="M 3425 4513 
L 3425 3897 
Q 3066 4069 2747 4153 
Q 2428 4238 2131 4238 
Q 1616 4238 1336 4038 
Q 1056 3838 1056 3469 
Q 1056 3159 1242 3001 
Q 1428 2844 1947 2747 
L 2328 2669 
Q 3034 2534 3370 2195 
Q 3706 1856 3706 1288 
Q 3706 609 3251 259 
Q 2797 -91 1919 -91 
Q 1588 -91 1214 -16 
Q 841 59 441 206 
L 441 856 
Q 825 641 1194 531 
Q 1563 422 1919 422 
Q 2459 422 2753 634 
Q 3047 847 3047 1241 
Q 3047 1584 2836 1778 
Q 2625 1972 2144 2069 
L 1759 2144 
Q 1053 2284 737 2584 
Q 422 2884 422 3419 
Q 422 4038 858 4394 
Q 1294 4750 2059 4750 
Q 2388 4750 2728 4690 
Q 3069 4631 3425 4513 
z
" transform="scale(0.015625)"/>
      </defs>
      <use xlink:href="#DejaVuSans-53"/>
      <use xlink:href="#DejaVuSans-69" x="63.476562"/>
      <use xlink:href="#DejaVuSans-6d" x="91.259766"/>
      <use xlink:href="#DejaVuSans-75" x="188.671875"/>
      <use xlink:href="#DejaVuSans-6c" x="252.050781"/>
     </g>
    </g>
   </g>
  </g>
 </g>
 <defs>
  <clipPath id="p83deb108dd">
   <path d="M 473.5825 262.917188 
C 473.5825 233.795931 467.846247 204.957842 456.702025 178.05331 
C 445.557803 151.148777 429.222338 126.701026 408.6305 106.109188 
C 388.038662 85.51735 363.590911 69.181885 336.686378 58.037662 
C 309.781845 46.89344 280.943756 41.157188 251.8225 41.157188 
C 222.701244 41.157188 193.863155 46.89344 166.958622 58.037662 
C 140.054089 69.181885 115.606338 85.51735 95.0145 106.109188 
C 74.422662 126.701026 58.087197 151.148777 46.942975 178.05331 
C 35.798753 204.957842 30.0625 233.795931 30.0625 262.917188 
C 30.0625 292.038444 35.798753 320.876533 46.942975 347.781065 
C 58.087197 374.685598 74.422662 399.133349 95.0145 419.725187 
C 115.606338 440.317025 140.054089 456.65249 166.958622 467.796713 
C 193.863155 478.940935 222.701244 484.677188 251.8225 484.677188 
C 280.943756 484.677188 309.781845 478.940935 336.686378 467.796713 
C 363.590911 456.65249 388.038662 440.317025 408.6305 419.725187 
C 429.222338 399.133349 445.557803 374.685598 456.702025 347.781065 
C 467.846247 320.876533 473.5825 292.038444 473.5825 262.917188 
M 251.8225 262.917188 
C 251.8225 262.917188 251.8225 262.917188 251.8225 262.917188 
C 251.8225 262.917188 251.8225 262.917188 251.8225 262.917188 
C 251.8225 262.917188 251.8225 262.917188 251.8225 262.917188 
C 251.8225 262.917188 251.8225 262.917188 251.8225 262.917188 
C 251.8225 262.917188 251.8225 262.917188 251.8225 262.917188 
C 251.8225 262.917188 251.8225 262.917188 251.8225 262.917188 
C 251.8225 262.917188 251.8225 262.917188 251.8225 262.917188 
C 251.8225 262.917188 251.8225 262.917188 251.8225 262.917188 
C 251.8225 262.917188 251.8225 262.917188 251.8225 262.917188 
C 251.8225 262.917188 251.8225 262.917188 251.8225 262.917188 
C 251.8225 262.917188 251.8225 262.917188 251.8225 262.917188 
C 251.8225 262.917188 251.8225 262.917188 251.8225 262.917188 
C 251.8225 262.917188 251.8225 262.917188 251.8225 262.917188 
C 251.8225 262.917188 251.8225 262.917188 251.8225 262.917188 
C 251.8225 262.917188 251.8225 262.917188 251.8225 262.917188 
C 251.8225 262.917188 251.8225 262.917188 251.8225 262.917188 
z
"/>
  </clipPath>
 </defs>
</svg>
