<?xml version="1.0" encoding="utf-8" standalone="no"?>
<!DOCTYPE svg PUBLIC "-//W3C//DTD SVG 1.1//EN"
  "http://www.w3.org/Graphics/SVG/1.1/DTD/svg11.dtd">
<svg xmlns:xlink="http://www.w3.org/1999/xlink" width="506.82625pt" height="514.053187pt" viewBox="0 0 506.82625 514.053187" xmlns="http://www.w3.org/2000/svg" version="1.1">
 <metadata>
  <rdf:RDF xmlns:dc="http://purl.org/dc/elements/1.1/" xmlns:cc="http://creativecommons.org/ns#" xmlns:rdf="http://www.w3.org/1999/02/22-rdf-syntax-ns#">
   <cc:Work>
    <dc:type rdf:resource="http://purl.org/dc/dcmitype/StillImage"/>
    <dc:date>2023-11-04T18:12:51.673671</dc:date>
    <dc:format>image/svg+xml</dc:format>
    <dc:creator>
     <cc:Agent>
      <dc:title>Matplotlib v3.5.1, https://matplotlib.org/</dc:title>
     </cc:Agent>
    </dc:creator>
   </cc:Work>
  </rdf:RDF>
 </metadata>
 <defs>
  <style type="text/css">*{stroke-linejoin: round; stroke-linecap: butt}</style>
 </defs>
 <g id="figure_1">
  <g id="patch_1">
   <path d="M 0 514.053187 
L 506.82625 514.053187 
L 506.82625 0 
L 0 0 
z
" style="fill: #ffffff"/>
  </g>
  <g id="axes_1">
   <g id="patch_2">
    <path d="M 473.5825 262.917187 
C 473.5825 233.795931 467.846247 204.957842 456.702025 178.05331 
C 445.557803 151.148777 429.222338 126.701026 408.6305 106.109188 
C 388.038662 85.51735 363.590911 69.181885 336.686378 58.037662 
C 309.781845 46.89344 280.943756 41.157187 251.8225 41.157187 
C 222.701244 41.157187 193.863155 46.89344 166.958622 58.037662 
C 140.054089 69.181885 115.606338 85.51735 95.0145 106.109188 
C 74.422662 126.701026 58.087197 151.148777 46.942975 178.05331 
C 35.798753 204.957842 30.0625 233.795931 30.0625 262.917187 
C 30.0625 292.038444 35.798753 320.876533 46.942975 347.781065 
C 58.087197 374.685598 74.422662 399.133349 95.0145 419.725187 
C 115.606338 440.317025 140.054089 456.65249 166.958622 467.796713 
C 193.863155 478.940935 222.701244 484.677187 251.8225 484.677187 
C 280.943756 484.677187 309.781845 478.940935 336.686378 467.796713 
C 363.590911 456.65249 388.038662 440.317025 408.6305 419.725187 
C 429.222338 399.133349 445.557803 374.685598 456.702025 347.781065 
C 467.846247 320.876533 473.5825 292.038444 473.5825 262.917188 
M 251.8225 262.917187 
C 251.8225 262.917187 251.8225 262.917187 251.8225 262.917187 
C 251.8225 262.917187 251.8225 262.917187 251.8225 262.917187 
C 251.8225 262.917187 251.8225 262.917187 251.8225 262.917187 
C 251.8225 262.917187 251.8225 262.917187 251.8225 262.917187 
C 251.8225 262.917187 251.8225 262.917187 251.8225 262.917187 
C 251.8225 262.917187 251.8225 262.917187 251.8225 262.917187 
C 251.8225 262.917187 251.8225 262.917187 251.8225 262.917187 
C 251.8225 262.917187 251.8225 262.917187 251.8225 262.917187 
C 251.8225 262.917187 251.8225 262.917187 251.8225 262.917187 
C 251.8225 262.917187 251.8225 262.917187 251.8225 262.917187 
C 251.8225 262.917187 251.8225 262.917187 251.8225 262.917187 
C 251.8225 262.917187 251.8225 262.917187 251.8225 262.917187 
C 251.8225 262.917187 251.8225 262.917187 251.8225 262.917187 
C 251.8225 262.917187 251.8225 262.917187 251.8225 262.917187 
C 251.8225 262.917187 251.8225 262.917187 251.8225 262.917187 
C 251.8225 262.917187 251.8225 262.917187 251.8225 262.917187 
M 473.5825 262.917187 
z
" style="fill: #ffffff"/>
   </g>
   <g id="matplotlib.axis_1">
    <g id="xtick_1">
     <g id="line2d_1">
      <path d="M 251.8225 262.917187 
L 251.8225 41.157187 
" clip-path="url(#p2ac7a62e1a)" style="fill: none; stroke: #b0b0b0; stroke-width: 0.8; stroke-linecap: square"/>
     </g>
     <g id="text_1">
      <!-- 0° -->
      <g transform="translate(246.14125 29.916562)scale(0.1 -0.1)">
       <defs>
        <path id="DejaVuSans-30" d="M 2034 4250 
Q 1547 4250 1301 3770 
Q 1056 3291 1056 2328 
Q 1056 1369 1301 889 
Q 1547 409 2034 409 
Q 2525 409 2770 889 
Q 3016 1369 3016 2328 
Q 3016 3291 2770 3770 
Q 2525 4250 2034 4250 
z
M 2034 4750 
Q 2819 4750 3233 4129 
Q 3647 3509 3647 2328 
Q 3647 1150 3233 529 
Q 2819 -91 2034 -91 
Q 1250 -91 836 529 
Q 422 1150 422 2328 
Q 422 3509 836 4129 
Q 1250 4750 2034 4750 
z
" transform="scale(0.015625)"/>
        <path id="DejaVuSans-b0" d="M 1600 4347 
Q 1350 4347 1178 4173 
Q 1006 4000 1006 3750 
Q 1006 3503 1178 3333 
Q 1350 3163 1600 3163 
Q 1850 3163 2022 3333 
Q 2194 3503 2194 3750 
Q 2194 3997 2020 4172 
Q 1847 4347 1600 4347 
z
M 1600 4750 
Q 1800 4750 1984 4673 
Q 2169 4597 2303 4453 
Q 2447 4313 2519 4134 
Q 2591 3956 2591 3750 
Q 2591 3338 2302 3052 
Q 2013 2766 1594 2766 
Q 1172 2766 890 3047 
Q 609 3328 609 3750 
Q 609 4169 896 4459 
Q 1184 4750 1600 4750 
z
" transform="scale(0.015625)"/>
       </defs>
       <use xlink:href="#DejaVuSans-30"/>
       <use xlink:href="#DejaVuSans-b0" x="63.623047"/>
      </g>
     </g>
    </g>
    <g id="xtick_2">
     <g id="line2d_2">
      <path d="M 251.8225 262.917187 
L 95.0145 106.109188 
" clip-path="url(#p2ac7a62e1a)" style="fill: none; stroke: #b0b0b0; stroke-width: 0.8; stroke-linecap: square"/>
     </g>
     <g id="text_2">
      <!-- 45° -->
      <g transform="translate(76.252505 98.969068)scale(0.1 -0.1)">
       <defs>
        <path id="DejaVuSans-34" d="M 2419 4116 
L 825 1625 
L 2419 1625 
L 2419 4116 
z
M 2253 4666 
L 3047 4666 
L 3047 1625 
L 3713 1625 
L 3713 1100 
L 3047 1100 
L 3047 0 
L 2419 0 
L 2419 1100 
L 313 1100 
L 313 1709 
L 2253 4666 
z
" transform="scale(0.015625)"/>
        <path id="DejaVuSans-35" d="M 691 4666 
L 3169 4666 
L 3169 4134 
L 1269 4134 
L 1269 2991 
Q 1406 3038 1543 3061 
Q 1681 3084 1819 3084 
Q 2600 3084 3056 2656 
Q 3513 2228 3513 1497 
Q 3513 744 3044 326 
Q 2575 -91 1722 -91 
Q 1428 -91 1123 -41 
Q 819 9 494 109 
L 494 744 
Q 775 591 1075 516 
Q 1375 441 1709 441 
Q 2250 441 2565 725 
Q 2881 1009 2881 1497 
Q 2881 1984 2565 2268 
Q 2250 2553 1709 2553 
Q 1456 2553 1204 2497 
Q 953 2441 691 2322 
L 691 4666 
z
" transform="scale(0.015625)"/>
       </defs>
       <use xlink:href="#DejaVuSans-34"/>
       <use xlink:href="#DejaVuSans-35" x="63.623047"/>
       <use xlink:href="#DejaVuSans-b0" x="127.246094"/>
      </g>
     </g>
    </g>
    <g id="xtick_3">
     <g id="line2d_3">
      <path d="M 251.8225 262.917187 
L 30.0625 262.917187 
" clip-path="url(#p2ac7a62e1a)" style="fill: none; stroke: #b0b0b0; stroke-width: 0.8; stroke-linecap: square"/>
     </g>
     <g id="text_3">
      <!-- 90° -->
      <g transform="translate(7.2 265.676562)scale(0.1 -0.1)">
       <defs>
        <path id="DejaVuSans-39" d="M 703 97 
L 703 672 
Q 941 559 1184 500 
Q 1428 441 1663 441 
Q 2288 441 2617 861 
Q 2947 1281 2994 2138 
Q 2813 1869 2534 1725 
Q 2256 1581 1919 1581 
Q 1219 1581 811 2004 
Q 403 2428 403 3163 
Q 403 3881 828 4315 
Q 1253 4750 1959 4750 
Q 2769 4750 3195 4129 
Q 3622 3509 3622 2328 
Q 3622 1225 3098 567 
Q 2575 -91 1691 -91 
Q 1453 -91 1209 -44 
Q 966 3 703 97 
z
M 1959 2075 
Q 2384 2075 2632 2365 
Q 2881 2656 2881 3163 
Q 2881 3666 2632 3958 
Q 2384 4250 1959 4250 
Q 1534 4250 1286 3958 
Q 1038 3666 1038 3163 
Q 1038 2656 1286 2365 
Q 1534 2075 1959 2075 
z
" transform="scale(0.015625)"/>
       </defs>
       <use xlink:href="#DejaVuSans-39"/>
       <use xlink:href="#DejaVuSans-30" x="63.623047"/>
       <use xlink:href="#DejaVuSans-b0" x="127.246094"/>
      </g>
     </g>
    </g>
    <g id="xtick_4">
     <g id="line2d_4">
      <path d="M 251.8225 262.917187 
L 95.0145 419.725187 
" clip-path="url(#p2ac7a62e1a)" style="fill: none; stroke: #b0b0b0; stroke-width: 0.8; stroke-linecap: square"/>
     </g>
     <g id="text_4">
      <!-- 135° -->
      <g transform="translate(73.071255 432.384057)scale(0.1 -0.1)">
       <defs>
        <path id="DejaVuSans-31" d="M 794 531 
L 1825 531 
L 1825 4091 
L 703 3866 
L 703 4441 
L 1819 4666 
L 2450 4666 
L 2450 531 
L 3481 531 
L 3481 0 
L 794 0 
L 794 531 
z
" transform="scale(0.015625)"/>
        <path id="DejaVuSans-33" d="M 2597 2516 
Q 3050 2419 3304 2112 
Q 3559 1806 3559 1356 
Q 3559 666 3084 287 
Q 2609 -91 1734 -91 
Q 1441 -91 1130 -33 
Q 819 25 488 141 
L 488 750 
Q 750 597 1062 519 
Q 1375 441 1716 441 
Q 2309 441 2620 675 
Q 2931 909 2931 1356 
Q 2931 1769 2642 2001 
Q 2353 2234 1838 2234 
L 1294 2234 
L 1294 2753 
L 1863 2753 
Q 2328 2753 2575 2939 
Q 2822 3125 2822 3475 
Q 2822 3834 2567 4026 
Q 2313 4219 1838 4219 
Q 1578 4219 1281 4162 
Q 984 4106 628 3988 
L 628 4550 
Q 988 4650 1302 4700 
Q 1616 4750 1894 4750 
Q 2613 4750 3031 4423 
Q 3450 4097 3450 3541 
Q 3450 3153 3228 2886 
Q 3006 2619 2597 2516 
z
" transform="scale(0.015625)"/>
       </defs>
       <use xlink:href="#DejaVuSans-31"/>
       <use xlink:href="#DejaVuSans-33" x="63.623047"/>
       <use xlink:href="#DejaVuSans-35" x="127.246094"/>
       <use xlink:href="#DejaVuSans-b0" x="190.869141"/>
      </g>
     </g>
    </g>
    <g id="xtick_5">
     <g id="line2d_5">
      <path d="M 251.8225 262.917187 
L 251.8225 484.677187 
" clip-path="url(#p2ac7a62e1a)" style="fill: none; stroke: #b0b0b0; stroke-width: 0.8; stroke-linecap: square"/>
     </g>
     <g id="text_5">
      <!-- 180° -->
      <g transform="translate(239.77875 501.436562)scale(0.1 -0.1)">
       <defs>
        <path id="DejaVuSans-38" d="M 2034 2216 
Q 1584 2216 1326 1975 
Q 1069 1734 1069 1313 
Q 1069 891 1326 650 
Q 1584 409 2034 409 
Q 2484 409 2743 651 
Q 3003 894 3003 1313 
Q 3003 1734 2745 1975 
Q 2488 2216 2034 2216 
z
M 1403 2484 
Q 997 2584 770 2862 
Q 544 3141 544 3541 
Q 544 4100 942 4425 
Q 1341 4750 2034 4750 
Q 2731 4750 3128 4425 
Q 3525 4100 3525 3541 
Q 3525 3141 3298 2862 
Q 3072 2584 2669 2484 
Q 3125 2378 3379 2068 
Q 3634 1759 3634 1313 
Q 3634 634 3220 271 
Q 2806 -91 2034 -91 
Q 1263 -91 848 271 
Q 434 634 434 1313 
Q 434 1759 690 2068 
Q 947 2378 1403 2484 
z
M 1172 3481 
Q 1172 3119 1398 2916 
Q 1625 2713 2034 2713 
Q 2441 2713 2670 2916 
Q 2900 3119 2900 3481 
Q 2900 3844 2670 4047 
Q 2441 4250 2034 4250 
Q 1625 4250 1398 4047 
Q 1172 3844 1172 3481 
z
" transform="scale(0.015625)"/>
       </defs>
       <use xlink:href="#DejaVuSans-31"/>
       <use xlink:href="#DejaVuSans-38" x="63.623047"/>
       <use xlink:href="#DejaVuSans-30" x="127.246094"/>
       <use xlink:href="#DejaVuSans-b0" x="190.869141"/>
      </g>
     </g>
    </g>
    <g id="xtick_6">
     <g id="line2d_6">
      <path d="M 251.8225 262.917187 
L 408.6305 419.725187 
" clip-path="url(#p2ac7a62e1a)" style="fill: none; stroke: #b0b0b0; stroke-width: 0.8; stroke-linecap: square"/>
     </g>
     <g id="text_6">
      <!-- 225° -->
      <g transform="translate(406.486245 432.384057)scale(0.1 -0.1)">
       <defs>
        <path id="DejaVuSans-32" d="M 1228 531 
L 3431 531 
L 3431 0 
L 469 0 
L 469 531 
Q 828 903 1448 1529 
Q 2069 2156 2228 2338 
Q 2531 2678 2651 2914 
Q 2772 3150 2772 3378 
Q 2772 3750 2511 3984 
Q 2250 4219 1831 4219 
Q 1534 4219 1204 4116 
Q 875 4013 500 3803 
L 500 4441 
Q 881 4594 1212 4672 
Q 1544 4750 1819 4750 
Q 2544 4750 2975 4387 
Q 3406 4025 3406 3419 
Q 3406 3131 3298 2873 
Q 3191 2616 2906 2266 
Q 2828 2175 2409 1742 
Q 1991 1309 1228 531 
z
" transform="scale(0.015625)"/>
       </defs>
       <use xlink:href="#DejaVuSans-32"/>
       <use xlink:href="#DejaVuSans-32" x="63.623047"/>
       <use xlink:href="#DejaVuSans-35" x="127.246094"/>
       <use xlink:href="#DejaVuSans-b0" x="190.869141"/>
      </g>
     </g>
    </g>
    <g id="xtick_7">
     <g id="line2d_7">
      <path d="M 251.8225 262.917187 
L 473.5825 262.917188 
" clip-path="url(#p2ac7a62e1a)" style="fill: none; stroke: #b0b0b0; stroke-width: 0.8; stroke-linecap: square"/>
     </g>
     <g id="text_7">
      <!-- 270° -->
      <g transform="translate(475.53875 265.676563)scale(0.1 -0.1)">
       <defs>
        <path id="DejaVuSans-37" d="M 525 4666 
L 3525 4666 
L 3525 4397 
L 1831 0 
L 1172 0 
L 2766 4134 
L 525 4134 
L 525 4666 
z
" transform="scale(0.015625)"/>
       </defs>
       <use xlink:href="#DejaVuSans-32"/>
       <use xlink:href="#DejaVuSans-37" x="63.623047"/>
       <use xlink:href="#DejaVuSans-30" x="127.246094"/>
       <use xlink:href="#DejaVuSans-b0" x="190.869141"/>
      </g>
     </g>
    </g>
    <g id="xtick_8">
     <g id="line2d_8">
      <path d="M 251.8225 262.917187 
L 408.6305 106.109188 
" clip-path="url(#p2ac7a62e1a)" style="fill: none; stroke: #b0b0b0; stroke-width: 0.8; stroke-linecap: square"/>
     </g>
     <g id="text_8">
      <!-- 315° -->
      <g transform="translate(406.486245 98.969068)scale(0.1 -0.1)">
       <use xlink:href="#DejaVuSans-33"/>
       <use xlink:href="#DejaVuSans-31" x="63.623047"/>
       <use xlink:href="#DejaVuSans-35" x="127.246094"/>
       <use xlink:href="#DejaVuSans-b0" x="190.869141"/>
      </g>
     </g>
    </g>
   </g>
   <g id="matplotlib.axis_2">
    <g id="ytick_1">
     <g id="line2d_9">
      <path d="M 251.8225 241.874715 
C 249.059228 241.874715 246.322825 242.419019 243.769894 243.476478 
C 241.216964 244.533936 238.897153 246.083984 236.943225 248.037912 
C 234.989296 249.991841 233.439249 252.311651 232.38179 254.864582 
C 231.324332 257.417512 230.780027 260.153915 230.780027 262.917187 
C 230.780027 265.68046 231.324332 268.416863 232.38179 270.969793 
C 233.439249 273.522724 234.989296 275.842534 236.943225 277.796463 
C 238.897153 279.750391 241.216964 281.300439 243.769894 282.357897 
C 246.322825 283.415356 249.059228 283.95966 251.8225 283.95966 
C 254.585772 283.95966 257.322175 283.415356 259.875106 282.357897 
C 262.428036 281.300439 264.747847 279.750391 266.701775 277.796463 
C 268.655704 275.842534 270.205751 273.522724 271.26321 270.969793 
C 272.320668 268.416863 272.864973 265.68046 272.864973 262.917187 
C 272.864973 260.153915 272.320668 257.417512 271.26321 254.864582 
C 270.205751 252.311651 268.655704 249.991841 266.701775 248.037912 
C 264.747847 246.083984 262.428036 244.533936 259.875106 243.476478 
C 257.322175 242.419019 254.585772 241.874715 251.8225 241.874715 
" clip-path="url(#p2ac7a62e1a)" style="fill: none; stroke: #b0b0b0; stroke-width: 0.8; stroke-linecap: square"/>
     </g>
     <g id="text_9">
      <!-- −40 -->
      <g transform="translate(243.769894 241.39679)scale(0.1 -0.1)">
       <defs>
        <path id="DejaVuSans-2212" d="M 678 2272 
L 4684 2272 
L 4684 1741 
L 678 1741 
L 678 2272 
z
" transform="scale(0.015625)"/>
       </defs>
       <use xlink:href="#DejaVuSans-2212"/>
       <use xlink:href="#DejaVuSans-34" x="83.789062"/>
       <use xlink:href="#DejaVuSans-30" x="147.412109"/>
      </g>
     </g>
    </g>
    <g id="ytick_2">
     <g id="line2d_10">
      <path d="M 251.8225 216.785024 
C 245.76448 216.785024 239.765366 217.978322 234.168485 220.296626 
C 228.571604 222.61493 223.485801 226.013154 219.202134 230.296822 
C 214.918467 234.580489 211.520242 239.666292 209.201938 245.263173 
C 206.883634 250.860054 205.690336 256.859167 205.690336 262.917187 
C 205.690336 268.975208 206.883634 274.974321 209.201938 280.571202 
C 211.520242 286.168083 214.918467 291.253886 219.202134 295.537553 
C 223.485801 299.821221 228.571604 303.219445 234.168485 305.537749 
C 239.765366 307.856053 245.76448 309.049351 251.8225 309.049351 
C 257.88052 309.049351 263.879634 307.856053 269.476515 305.537749 
C 275.073396 303.219445 280.159199 299.821221 284.442866 295.537553 
C 288.726533 291.253886 292.124758 286.168083 294.443062 280.571202 
C 296.761366 274.974321 297.954664 268.975208 297.954664 262.917187 
C 297.954664 256.859167 296.761366 250.860054 294.443062 245.263173 
C 292.124758 239.666292 288.726533 234.580489 284.442866 230.296822 
C 280.159199 226.013154 275.073396 222.61493 269.476515 220.296626 
C 263.879634 217.978322 257.88052 216.785024 251.8225 216.785024 
" clip-path="url(#p2ac7a62e1a)" style="fill: none; stroke: #b0b0b0; stroke-width: 0.8; stroke-linecap: square"/>
     </g>
     <g id="text_10">
      <!-- −35 -->
      <g transform="translate(234.168485 218.216938)scale(0.1 -0.1)">
       <use xlink:href="#DejaVuSans-2212"/>
       <use xlink:href="#DejaVuSans-33" x="83.789062"/>
       <use xlink:href="#DejaVuSans-35" x="147.412109"/>
      </g>
     </g>
    </g>
    <g id="ytick_3">
     <g id="line2d_11">
      <path d="M 251.8225 191.695333 
C 242.469732 191.695333 233.207907 193.537624 224.567076 197.116774 
C 215.926245 200.695923 208.074449 205.942325 201.461044 212.555731 
C 194.847638 219.169137 189.601236 227.020933 186.022086 235.661764 
C 182.442937 244.302595 180.600645 253.564419 180.600645 262.917187 
C 180.600645 272.269956 182.442937 281.53178 186.022086 290.172611 
C 189.601236 298.813442 194.847638 306.665238 201.461044 313.278644 
C 208.074449 319.89205 215.926245 325.138452 224.567076 328.717601 
C 233.207907 332.296751 242.469732 334.139042 251.8225 334.139042 
C 261.175268 334.139042 270.437093 332.296751 279.077924 328.717601 
C 287.718755 325.138452 295.570551 319.89205 302.183956 313.278644 
C 308.797362 306.665238 314.043764 298.813442 317.622914 290.172611 
C 321.202063 281.53178 323.044355 272.269956 323.044355 262.917187 
C 323.044355 253.564419 321.202063 244.302595 317.622914 235.661764 
C 314.043764 227.020933 308.797362 219.169137 302.183956 212.555731 
C 295.570551 205.942325 287.718755 200.695923 279.077924 197.116774 
C 270.437093 193.537624 261.175268 191.695333 251.8225 191.695333 
" clip-path="url(#p2ac7a62e1a)" style="fill: none; stroke: #b0b0b0; stroke-width: 0.8; stroke-linecap: square"/>
     </g>
     <g id="text_11">
      <!-- −30 -->
      <g transform="translate(224.567076 195.037086)scale(0.1 -0.1)">
       <use xlink:href="#DejaVuSans-2212"/>
       <use xlink:href="#DejaVuSans-33" x="83.789062"/>
       <use xlink:href="#DejaVuSans-30" x="147.412109"/>
      </g>
     </g>
    </g>
    <g id="ytick_4">
     <g id="line2d_12">
      <path d="M 251.8225 166.605642 
C 239.174984 166.605642 226.650449 169.096927 214.965667 173.936922 
C 203.280886 178.776917 192.663098 185.871496 183.719953 194.814641 
C 174.776809 203.757785 167.682229 214.375573 162.842234 226.060355 
C 158.002239 237.745136 155.510954 250.269671 155.510954 262.917187 
C 155.510954 275.564704 158.002239 288.089239 162.842234 299.77402 
C 167.682229 311.458802 174.776809 322.07659 183.719953 331.019734 
C 192.663098 339.962879 203.280886 347.057458 214.965667 351.897453 
C 226.650449 356.737448 239.174984 359.228733 251.8225 359.228733 
C 264.470016 359.228733 276.994551 356.737448 288.679333 351.897453 
C 300.364114 347.057458 310.981902 339.962879 319.925047 331.019734 
C 328.868191 322.07659 335.962771 311.458802 340.802766 299.77402 
C 345.642761 288.089239 348.134046 275.564704 348.134046 262.917187 
C 348.134046 250.269671 345.642761 237.745136 340.802766 226.060355 
C 335.962771 214.375573 328.868191 203.757785 319.925047 194.814641 
C 310.981902 185.871496 300.364114 178.776917 288.679333 173.936922 
C 276.994551 169.096927 264.470016 166.605642 251.8225 166.605642 
" clip-path="url(#p2ac7a62e1a)" style="fill: none; stroke: #b0b0b0; stroke-width: 0.8; stroke-linecap: square"/>
     </g>
     <g id="text_12">
      <!-- −25 -->
      <g transform="translate(214.965667 171.857234)scale(0.1 -0.1)">
       <use xlink:href="#DejaVuSans-2212"/>
       <use xlink:href="#DejaVuSans-32" x="83.789062"/>
       <use xlink:href="#DejaVuSans-35" x="147.412109"/>
      </g>
     </g>
    </g>
    <g id="ytick_5">
     <g id="line2d_13">
      <path d="M 251.8225 141.515951 
C 235.880236 141.515951 220.09299 144.65623 205.364258 150.75707 
C 190.635526 156.85791 177.251746 165.800667 165.978862 177.07355 
C 154.705979 188.346433 145.763223 201.730214 139.662382 216.458946 
C 133.561542 231.187677 130.421264 246.974923 130.421264 262.917187 
C 130.421264 278.859452 133.561542 294.646698 139.662382 309.375429 
C 145.763223 324.104161 154.705979 337.487942 165.978862 348.760825 
C 177.251746 360.033708 190.635526 368.976465 205.364258 375.077305 
C 220.09299 381.178145 235.880236 384.318424 251.8225 384.318424 
C 267.764764 384.318424 283.55201 381.178145 298.280742 375.077305 
C 313.009474 368.976465 326.393254 360.033708 337.666138 348.760825 
C 348.939021 337.487942 357.881777 324.104161 363.982618 309.375429 
C 370.083458 294.646698 373.223736 278.859452 373.223736 262.917188 
C 373.223736 246.974923 370.083458 231.187677 363.982618 216.458946 
C 357.881777 201.730214 348.939021 188.346433 337.666138 177.07355 
C 326.393254 165.800667 313.009474 156.85791 298.280742 150.75707 
C 283.55201 144.65623 267.764764 141.515951 251.8225 141.515951 
" clip-path="url(#p2ac7a62e1a)" style="fill: none; stroke: #b0b0b0; stroke-width: 0.8; stroke-linecap: square"/>
     </g>
     <g id="text_13">
      <!-- −20 -->
      <g transform="translate(205.364258 148.677382)scale(0.1 -0.1)">
       <use xlink:href="#DejaVuSans-2212"/>
       <use xlink:href="#DejaVuSans-32" x="83.789062"/>
       <use xlink:href="#DejaVuSans-30" x="147.412109"/>
      </g>
     </g>
    </g>
    <g id="ytick_6">
     <g id="line2d_14">
      <path d="M 251.8225 116.42626 
C 232.585488 116.42626 213.535531 120.215532 195.762849 127.577218 
C 177.990167 134.938904 161.840394 145.729838 148.237772 159.332459 
C 134.63515 172.935081 123.844216 189.084855 116.482531 206.857537 
C 109.120845 224.630219 105.331573 243.680175 105.331573 262.917187 
C 105.331573 282.1542 109.120845 301.204156 116.482531 318.976838 
C 123.844216 336.74952 134.63515 352.899294 148.237772 366.501916 
C 161.840394 380.104537 177.990167 390.895471 195.762849 398.257157 
C 213.535531 405.618843 232.585488 409.408115 251.8225 409.408115 
C 271.059512 409.408115 290.109469 405.618843 307.882151 398.257157 
C 325.654833 390.895471 341.804606 380.104537 355.407228 366.501916 
C 369.00985 352.899294 379.800784 336.74952 387.162469 318.976838 
C 394.524155 301.204156 398.313427 282.1542 398.313427 262.917188 
C 398.313427 243.680175 394.524155 224.630219 387.162469 206.857537 
C 379.800784 189.084855 369.00985 172.935081 355.407228 159.332459 
C 341.804606 145.729838 325.654833 134.938904 307.882151 127.577218 
C 290.109469 120.215532 271.059512 116.42626 251.8225 116.42626 
" clip-path="url(#p2ac7a62e1a)" style="fill: none; stroke: #b0b0b0; stroke-width: 0.8; stroke-linecap: square"/>
     </g>
     <g id="text_14">
      <!-- −15 -->
      <g transform="translate(195.762849 125.497531)scale(0.1 -0.1)">
       <use xlink:href="#DejaVuSans-2212"/>
       <use xlink:href="#DejaVuSans-31" x="83.789062"/>
       <use xlink:href="#DejaVuSans-35" x="147.412109"/>
      </g>
     </g>
    </g>
    <g id="ytick_7">
     <g id="line2d_15">
      <path d="M 251.8225 91.336569 
C 229.29074 91.336569 206.978072 95.774835 186.16144 104.397366 
C 165.344808 113.019898 146.429042 125.659008 130.496681 141.591369 
C 114.564321 157.523729 101.92521 176.439495 93.302679 197.256128 
C 84.680147 218.07276 80.241882 240.385427 80.241882 262.917187 
C 80.241882 285.448948 84.680147 307.761615 93.302679 328.578247 
C 101.92521 349.39488 114.564321 368.310646 130.496681 384.243006 
C 146.429042 400.175367 165.344808 412.814477 186.16144 421.437009 
C 206.978072 430.05954 229.29074 434.497806 251.8225 434.497806 
C 274.35426 434.497806 296.666928 430.05954 317.48356 421.437009 
C 338.300192 412.814477 357.215958 400.175367 373.148319 384.243006 
C 389.080679 368.310646 401.71979 349.39488 410.342321 328.578247 
C 418.964853 307.761615 423.403118 285.448948 423.403118 262.917188 
C 423.403118 240.385427 418.964853 218.07276 410.342321 197.256128 
C 401.71979 176.439495 389.080679 157.523729 373.148319 141.591369 
C 357.215958 125.659008 338.300192 113.019898 317.48356 104.397366 
C 296.666928 95.774835 274.35426 91.336569 251.8225 91.336569 
" clip-path="url(#p2ac7a62e1a)" style="fill: none; stroke: #b0b0b0; stroke-width: 0.8; stroke-linecap: square"/>
     </g>
     <g id="text_15">
      <!-- −10 -->
      <g transform="translate(186.16144 102.317679)scale(0.1 -0.1)">
       <use xlink:href="#DejaVuSans-2212"/>
       <use xlink:href="#DejaVuSans-31" x="83.789062"/>
       <use xlink:href="#DejaVuSans-30" x="147.412109"/>
      </g>
     </g>
    </g>
    <g id="ytick_8">
     <g id="line2d_16">
      <path d="M 251.8225 66.246878 
C 225.995992 66.246878 200.420614 71.334137 176.560031 81.217514 
C 152.699449 91.100891 131.01769 105.588179 112.755591 123.850278 
C 94.493492 142.112377 80.006204 163.794136 70.122827 187.654719 
C 60.23945 211.515301 55.152191 237.090679 55.152191 262.917187 
C 55.152191 288.743696 60.23945 314.319074 70.122827 338.179656 
C 80.006204 362.040239 94.493492 383.721998 112.755591 401.984097 
C 131.01769 420.246196 152.699449 434.733484 176.560031 444.616861 
C 200.420614 454.500238 225.995992 459.587497 251.8225 459.587497 
C 277.649008 459.587497 303.224386 454.500238 327.084969 444.616861 
C 350.945551 434.733484 372.62731 420.246196 390.889409 401.984097 
C 409.151508 383.721998 423.638796 362.040239 433.522173 338.179656 
C 443.40555 314.319074 448.492809 288.743696 448.492809 262.917188 
C 448.492809 237.090679 443.40555 211.515301 433.522173 187.654719 
C 423.638796 163.794136 409.151508 142.112377 390.889409 123.850278 
C 372.62731 105.588179 350.945551 91.100891 327.084969 81.217514 
C 303.224386 71.334137 277.649008 66.246878 251.8225 66.246878 
" clip-path="url(#p2ac7a62e1a)" style="fill: none; stroke: #b0b0b0; stroke-width: 0.8; stroke-linecap: square"/>
     </g>
     <g id="text_16">
      <!-- −5 -->
      <g transform="translate(176.560031 79.137827)scale(0.1 -0.1)">
       <use xlink:href="#DejaVuSans-2212"/>
       <use xlink:href="#DejaVuSans-35" x="83.789062"/>
      </g>
     </g>
    </g>
    <g id="ytick_9">
     <g id="line2d_17">
      <path d="M 251.8225 41.157187 
C 222.701244 41.157187 193.863155 46.89344 166.958622 58.037662 
C 140.054089 69.181885 115.606338 85.51735 95.0145 106.109188 
C 74.422662 126.701026 58.087197 151.148777 46.942975 178.05331 
C 35.798753 204.957842 30.0625 233.795931 30.0625 262.917187 
C 30.0625 292.038444 35.798753 320.876533 46.942975 347.781065 
C 58.087197 374.685598 74.422662 399.133349 95.0145 419.725187 
C 115.606338 440.317025 140.054089 456.65249 166.958622 467.796713 
C 193.863155 478.940935 222.701244 484.677187 251.8225 484.677187 
C 280.943756 484.677187 309.781845 478.940935 336.686378 467.796713 
C 363.590911 456.65249 388.038662 440.317025 408.6305 419.725187 
C 429.222338 399.133349 445.557803 374.685598 456.702025 347.781065 
C 467.846247 320.876533 473.5825 292.038444 473.5825 262.917188 
C 473.5825 233.795931 467.846247 204.957842 456.702025 178.05331 
C 445.557803 151.148777 429.222338 126.701026 408.6305 106.109188 
C 388.038662 85.51735 363.590911 69.181885 336.686378 58.037662 
C 309.781845 46.89344 280.943756 41.157187 251.8225 41.157187 
" clip-path="url(#p2ac7a62e1a)" style="fill: none; stroke: #b0b0b0; stroke-width: 0.8; stroke-linecap: square"/>
     </g>
     <g id="text_17">
      <!-- 0 -->
      <g transform="translate(166.958622 55.957975)scale(0.1 -0.1)">
       <use xlink:href="#DejaVuSans-30"/>
      </g>
     </g>
    </g>
   </g>
   <g id="line2d_18">
    <path d="M 251.8225 478.826272 
L 255.587743 478.627821 
L 259.343608 478.293555 
L 263.072936 477.588296 
L 266.770145 476.678476 
L 270.427231 475.570236 
L 277.588488 472.76432 
L 281.026917 470.717413 
L 287.673085 466.235956 
L 290.804315 463.461241 
L 293.826788 460.531826 
L 296.826756 457.852036 
L 299.516679 454.208092 
L 302.24269 451.087898 
L 304.761086 447.535978 
L 306.807252 442.764206 
L 309.021219 438.956744 
L 310.879165 434.430196 
L 312.05114 428.394016 
L 313.586629 423.818246 
L 314.543175 418.156307 
L 315.307743 412.479047 
L 316.55716 408.313614 
L 317.377677 403.500718 
L 319.06011 400.774718 
L 321.683625 400.027366 
L 324.994064 400.532885 
L 329.345437 402.772269 
L 333.698817 404.731129 
L 338.867239 407.783961 
L 343.570697 409.744995 
L 348.270065 411.433414 
L 353.768382 414.058173 
L 358.578039 415.379898 
L 363.319694 416.37991 
L 369.006917 418.426161 
L 373.544328 418.714023 
L 382.90054 419.129912 
L 391.277538 417.797698 
L 395.424049 416.910995 
L 402.857549 413.952236 
L 406.495598 412.283262 
L 409.67336 410.115495 
L 413.005113 408.046664 
L 416.195099 405.804107 
L 419.148124 403.320057 
L 422.216453 400.89949 
L 424.946593 398.176553 
L 427.449142 395.261355 
L 429.833607 392.249827 
L 432.088324 389.140676 
L 434.076569 385.84911 
L 435.866014 382.436443 
L 437.53238 378.9616 
L 438.970192 375.366866 
L 441.288437 367.939871 
L 442.082307 364.080121 
L 442.477562 360.060793 
L 443.142673 356.230271 
L 443.505071 352.300238 
L 443.321367 348.177976 
L 443.42221 344.246439 
L 443.077018 340.189029 
L 442.349277 336.053565 
L 442.031179 332.147485 
L 441.02795 328.065848 
L 439.792914 323.992477 
L 439.006698 320.14514 
L 433.667769 308.256305 
L 430.64701 304.202079 
L 424.289809 296.441436 
L 419.556055 292.493139 
L 414.689072 288.712718 
L 409.280733 285.046499 
L 402.829589 281.458527 
L 395.544698 278.022999 
L 387.033466 274.746614 
L 377.348055 271.694789 
L 351.074274 266.383136 
L 350.03092 264.631422 
L 362.786425 262.917187 
L 374.875965 260.769281 
L 385.982864 258.232204 
L 401.02008 252.484276 
L 406.324003 249.400058 
L 410.990138 246.187995 
L 416.929484 242.644599 
L 420.297236 239.239607 
L 424.011607 235.645112 
L 428.228747 231.812007 
L 430.71298 228.144401 
L 436.758671 220.221308 
L 438.337029 216.413892 
L 440.390661 212.390501 
L 442.108964 208.353422 
L 443.008795 204.465671 
L 444.068933 200.452535 
L 444.709724 196.50079 
L 444.949962 192.62454 
L 445.366191 188.622725 
L 445.445167 184.688552 
L 445.109172 176.860417 
L 444.64202 173.003969 
L 443.505895 165.249619 
L 440.53048 153.966585 
L 436.324729 143.100039 
L 432.77888 136.210166 
L 430.840387 132.853079 
L 426.551994 126.403545 
L 424.162388 123.359098 
L 421.662076 120.404862 
L 416.301598 114.819543 
L 413.530411 112.122121 
L 410.484209 109.699356 
L 404.224665 105.100126 
L 397.522778 101.100635 
L 394.011502 99.347451 
L 390.177197 98.032481 
L 386.609017 96.469701 
L 382.694987 95.408043 
L 378.558768 94.73248 
L 374.651558 93.857492 
L 370.277805 93.74548 
L 361.58507 93.897651 
L 347.317502 97.514993 
L 341.893535 100.42474 
L 336.909596 102.891634 
L 332.003401 105.553309 
L 326.475364 109.856133 
L 322.166155 112.064733 
L 318.234845 113.752619 
L 314.919531 114.269897 
L 312.546878 112.619078 
L 310.745366 109.417875 
L 309.533422 104.357733 
L 307.917302 100.006055 
L 305.032057 88.876569 
L 302.907691 84.761956 
L 300.867326 79.879404 
L 298.547948 75.511653 
L 295.904534 71.976921 
L 293.224811 68.134629 
L 290.290155 65.018259 
L 284.067414 59.330813 
L 280.746874 57.109573 
L 273.848269 53.355991 
L 270.285532 51.883765 
L 262.998615 49.664209 
L 259.294399 48.950002 
L 255.565324 48.490951 
L 251.8225 48.347893 
L 248.077837 48.38559 
L 240.608568 48.942616 
L 236.893056 49.416196 
L 233.20771 50.149166 
L 229.557026 51.075356 
L 225.951328 52.213403 
L 215.445616 56.613629 
L 205.677037 63.039228 
L 202.739563 66.05628 
L 199.823045 68.852579 
L 197.019453 71.796249 
L 190.29571 84.230413 
L 188.599028 89.212127 
L 186.769338 93.447907 
L 185.425028 98.577678 
L 184.74728 104.897872 
L 183.975347 110.529986 
L 183.881567 117.217386 
L 184.565092 125.019066 
L 185.512927 132.777323 
L 188.215399 143.28963 
L 192.686247 156.232563 
L 200.239475 173.572768 
L 218.787163 207.937153 
L 246.226553 253.9618 
L 206.56337 193.224238 
L 189.244733 170.141833 
L 180.229577 160.671897 
L 172.197279 153.322473 
L 164.876047 147.535347 
L 159.906732 145.27037 
L 154.804357 143.109759 
L 149.760775 141.28476 
L 142.267389 141.24391 
L 138.514492 141.409225 
L 132.373689 143.468376 
L 129.516709 144.807858 
L 126.883193 146.409399 
L 124.402749 148.187928 
L 122.253222 150.284332 
L 120.495596 152.720831 
L 119.13056 155.465374 
L 117.09644 161.393819 
L 115.911491 171.244054 
L 116.192386 174.837961 
L 116.452804 181.578868 
L 117.383147 185.298591 
L 117.980058 188.72711 
L 119.412729 192.513664 
L 122.178918 196.860483 
L 123.165559 200.167004 
L 125.196157 203.870354 
L 127.462575 207.548582 
L 130.207369 213.781485 
L 130.591049 216.380793 
L 130.193427 218.647825 
L 129.17365 220.685802 
L 128.359844 222.801739 
L 127.937666 225.041793 
L 127.859873 227.371476 
L 126.441678 231.656238 
L 126.10099 233.89209 
L 125.490873 236.064571 
L 124.922774 242.818245 
L 125.222403 245.124704 
L 126.455175 249.740551 
L 127.43403 252.034606 
L 128.629608 254.302701 
L 128.775114 258.620278 
L 128.402781 260.762888 
L 127.716595 262.917187 
L 126.757148 265.100211 
L 125.119265 267.341762 
L 123.096103 269.663452 
L 118.753333 272.22229 
L 115.751733 274.821837 
L 111.683445 277.646396 
L 106.363727 280.777279 
L 103.104921 283.81808 
L 99.116054 287.103513 
L 95.380739 290.502091 
L 93.235939 293.743292 
L 90.62733 297.180279 
L 88.228249 300.685896 
L 86.770011 304.069395 
L 84.566405 307.733323 
L 82.663193 311.422838 
L 81.49126 314.992674 
L 79.868069 318.788569 
L 78.734299 322.516235 
L 78.060855 326.161254 
L 77.171998 329.959234 
L 76.588036 337.299805 
L 76.065482 341.169253 
L 76.175459 344.822748 
L 76.731044 352.13074 
L 77.260225 355.733595 
L 77.927982 359.308493 
L 78.467744 363.003602 
L 79.565605 366.419572 
L 80.542861 369.944585 
L 81.742447 373.368465 
L 86.501694 383.029784 
L 89.95203 389.384259 
L 92.059049 392.29108 
L 93.814644 395.501521 
L 97.930189 401.482447 
L 100.823321 403.7262 
L 106.127519 408.612168 
L 108.68198 411.143535 
L 111.588421 413.299826 
L 113.972421 416.01521 
L 116.648885 418.416644 
L 119.663928 420.41764 
L 122.868607 422.161983 
L 125.889886 424.103583 
L 129.5647 425.158767 
L 132.948681 426.532963 
L 137.126087 426.720642 
L 141.295884 426.779635 
L 145.139981 427.193861 
L 149.331531 426.937024 
L 153.279635 426.920055 
L 157.042555 427.080868 
L 164.695299 426.77962 
L 168.167502 427.099365 
L 171.65054 427.294065 
L 174.802969 428.086105 
L 180.659294 430.567194 
L 183.518959 431.974384 
L 186.235252 433.777809 
L 188.617907 436.57038 
L 191.138689 439.155772 
L 193.518183 442.359424 
L 195.873862 445.916938 
L 198.504936 448.857631 
L 201.01139 452.546831 
L 203.67309 456.033923 
L 206.575554 458.903241 
L 209.488533 462.082844 
L 212.588871 464.756712 
L 215.871709 466.804252 
L 219.106599 469.477258 
L 222.494473 471.596944 
L 229.496707 475.332921 
L 236.812549 477.569494 
L 240.531621 478.36 
L 244.284229 478.785013 
L 248.051214 478.974006 
L 248.051214 478.974006 
" clip-path="url(#p2ac7a62e1a)" style="fill: none; stroke: #ff0000; stroke-width: 1.5; stroke-linecap: square"/>
   </g>
   <g id="line2d_19">
    <path d="M 251.8225 57.898033 
L 248.266999 59.222686 
L 244.75969 60.664764 
L 241.30477 62.22694 
L 237.906054 63.902734 
L 234.568282 65.700568 
L 231.295801 67.618695 
L 228.092305 69.650257 
L 224.962484 71.798244 
L 221.910542 74.060517 
L 218.939753 76.429864 
L 216.055862 78.913784 
L 213.261062 81.499887 
L 210.559056 84.185575 
L 207.954688 86.973005 
L 205.447879 89.844746 
L 203.041606 92.797993 
L 200.735841 95.820256 
L 196.420379 102.017745 
L 192.466252 108.288874 
L 185.260004 120.173454 
L 183.504827 122.845201 
L 181.685725 125.266017 
L 179.812335 127.485764 
L 177.848937 129.465347 
L 175.807134 131.254712 
L 173.624262 132.773465 
L 171.33826 134.115479 
L 168.93864 135.287236 
L 163.844149 137.271081 
L 147.505398 142.914089 
L 142.135207 145.291967 
L 136.922504 148.017192 
L 134.393282 149.51711 
L 131.925619 151.111537 
L 127.191582 154.577183 
L 124.93153 156.443021 
L 122.745555 158.392738 
L 118.603261 162.529291 
L 114.786324 166.963424 
L 111.29802 171.659523 
L 108.147163 176.588335 
L 105.331572 181.71594 
L 102.859659 187.016829 
L 100.715369 192.454775 
L 98.897982 198.004581 
L 97.395627 203.638265 
L 96.184768 209.326819 
L 95.24907 215.047886 
L 94.560829 220.77905 
L 94.085665 226.50077 
L 93.787622 232.198319 
L 93.589087 240.678932 
L 93.554565 251.850015 
L 93.569526 262.917187 
L 93.413941 290.84889 
L 93.660293 299.43181 
L 94.01797 305.200784 
L 94.582054 310.990416 
L 95.378194 316.785282 
L 96.435274 322.564755 
L 97.780175 328.304275 
L 99.43289 333.97763 
L 101.402108 339.560205 
L 103.698943 345.023416 
L 106.332051 350.336669 
L 109.30324 355.470277 
L 112.616004 360.390625 
L 116.262879 365.068689 
L 118.21262 367.304666 
L 122.356074 371.552418 
L 124.551983 373.55176 
L 126.822905 375.467328 
L 129.169533 377.29293 
L 131.59584 379.018723 
L 134.094575 380.645113 
L 136.665603 382.165645 
L 139.301604 383.581075 
L 142.005491 384.881332 
L 144.772985 386.063568 
L 147.596485 387.128915 
L 150.471731 388.074964 
L 153.39438 388.899436 
L 159.364135 390.17521 
L 165.376936 391.078006 
L 174.322058 391.899583 
L 177.212157 392.146092 
L 179.989752 392.506895 
L 182.63927 393.031919 
L 185.171213 393.727704 
L 187.530314 394.735704 
L 189.755829 396.019593 
L 191.822912 397.678468 
L 193.752613 399.721269 
L 195.585092 402.109657 
L 197.375524 404.756409 
L 200.904833 410.79283 
L 206.601786 420.620559 
L 208.680438 423.925556 
L 210.865738 427.185786 
L 213.159789 430.383787 
L 215.565686 433.492088 
L 218.079948 436.507567 
L 220.702506 439.407443 
L 223.427905 442.193602 
L 226.25166 444.863165 
L 229.170437 447.403434 
L 232.178564 449.816753 
L 235.27109 452.100666 
L 238.442655 454.25788 
L 241.688718 456.281264 
L 245.003987 458.173851 
L 248.383474 459.938848 
L 251.8225 461.569582 
L 255.316173 463.069565 
L 258.859917 464.442453 
L 262.449217 465.687026 
L 266.079529 466.802201 
L 269.746727 467.792035 
L 273.446332 468.654203 
L 277.174297 469.391003 
L 280.926562 470.003352 
L 284.699086 470.491784 
L 288.487977 470.857438 
L 292.289539 471.102056 
L 296.0998 471.225505 
L 299.915239 471.229728 
L 303.732239 471.115778 
L 307.546736 470.882866 
L 311.355856 470.534673 
L 315.156536 470.073484 
L 318.94524 469.499738 
L 326.470954 468.01213 
L 330.202628 467.104401 
L 337.586775 464.965158 
L 344.844625 462.403777 
L 351.954968 459.438222 
L 358.893555 456.078483 
L 365.636757 452.33592 
L 368.930553 450.329249 
L 375.340875 446.040709 
L 381.509076 441.415446 
L 387.406247 436.45647 
L 390.253223 433.864894 
L 395.716791 428.448634 
L 400.86881 422.749786 
L 405.689027 416.783714 
L 410.157785 410.567229 
L 412.259302 407.375133 
L 416.171358 400.822254 
L 417.981411 397.47002 
L 419.690685 394.070187 
L 421.296822 390.625249 
L 422.797513 387.137806 
L 424.190086 383.61027 
L 425.47236 380.045497 
L 426.641629 376.446057 
L 427.694624 372.814288 
L 428.629217 369.153381 
L 429.442089 365.465905 
L 430.132138 361.755834 
L 430.691295 358.023413 
L 431.116711 354.272151 
L 431.407411 350.506601 
L 431.55801 346.729232 
L 431.567697 342.944905 
L 431.421954 339.152633 
L 431.119962 335.358064 
L 430.656394 331.565088 
L 430.02126 327.776232 
L 429.209266 323.996349 
L 428.205665 320.227552 
L 427.005204 316.475915 
L 425.593123 312.745112 
L 423.949785 309.038555 
L 422.06035 305.362251 
L 419.905155 301.722126 
L 417.454759 298.123411 
L 414.684608 294.574374 
L 411.545552 291.080671 
L 407.978433 287.649858 
L 403.963792 284.299252 
L 399.383058 281.035346 
L 394.137391 277.875085 
L 388.128213 274.842392 
L 381.207461 271.964665 
L 373.177626 269.27714 
L 364.092906 266.837756 
L 354.561428 264.710502 
L 347.10035 262.917187 
L 346.182748 261.270123 
L 352.558679 259.399403 
L 361.902738 257.148127 
L 371.095918 254.576778 
L 379.28026 251.766078 
L 386.35229 248.777537 
L 392.460114 245.64906 
L 397.802103 242.401092 
L 402.427535 239.063693 
L 406.485247 235.645972 
L 410.019928 232.166723 
L 413.155102 228.624884 
L 415.915462 225.033342 
L 418.345392 221.398368 
L 420.469671 217.728314 
L 422.327578 214.025643 
L 423.929251 210.298873 
L 425.304081 206.549605 
L 426.466914 202.782293 
L 427.423119 199.003789 
L 428.192269 195.215176 
L 428.779728 191.421826 
L 429.195578 187.626783 
L 429.449837 183.832402 
L 429.547884 180.04248 
L 429.495132 176.260455 
L 429.301478 172.487131 
L 428.96337 168.729716 
L 428.490732 164.988387 
L 427.888949 161.265176 
L 427.159063 157.564352 
L 426.302666 153.889879 
L 425.327767 150.24155 
L 424.235533 146.623128 
L 423.028471 143.037476 
L 421.709663 139.486939 
L 420.281722 135.974059 
L 418.74761 132.500998 
L 415.369123 125.685276 
L 411.591802 119.060262 
L 409.563263 115.821546 
L 405.22421 109.515477 
L 400.533432 103.444238 
L 395.509391 97.624327 
L 390.164802 92.078672 
L 384.523012 86.81766 
L 378.601476 81.858046 
L 372.415811 77.219773 
L 365.985655 72.917791 
L 359.333881 68.961521 
L 352.47893 65.36782 
L 345.440533 62.152667 
L 338.241637 59.326458 
L 330.905751 56.898276 
L 327.19349 55.837095 
L 319.692642 54.034368 
L 315.912094 53.289572 
L 308.3039 52.125733 
L 300.653355 51.407515 
L 296.822068 51.210865 
L 289.160489 51.162929 
L 285.337509 51.311747 
L 281.52471 51.574985 
L 277.725532 51.953918 
L 273.943574 52.449226 
L 270.182451 53.061992 
L 266.445934 53.792342 
L 262.737808 54.640694 
L 259.061905 55.607758 
L 255.422147 56.693528 
L 255.422147 56.693528 
" clip-path="url(#p2ac7a62e1a)" style="fill: none; stroke-dasharray: 5.55,2.4; stroke-dashoffset: 0; stroke: #0000ff; stroke-width: 1.5"/>
   </g>
   <g id="patch_3">
    <path d="M 251.8225 41.157187 
C 222.701244 41.157187 193.863155 46.89344 166.958622 58.037662 
C 140.054089 69.181885 115.606338 85.51735 95.0145 106.109188 
C 74.422662 126.701026 58.087197 151.148777 46.942975 178.05331 
C 35.798753 204.957842 30.0625 233.795931 30.0625 262.917187 
C 30.0625 292.038444 35.798753 320.876533 46.942975 347.781065 
C 58.087197 374.685598 74.422662 399.133349 95.0145 419.725187 
C 115.606338 440.317025 140.054089 456.65249 166.958622 467.796713 
C 193.863155 478.940935 222.701244 484.677187 251.8225 484.677187 
C 280.943756 484.677187 309.781845 478.940935 336.686378 467.796713 
C 363.590911 456.65249 388.038662 440.317025 408.6305 419.725187 
C 429.222338 399.133349 445.557803 374.685598 456.702025 347.781065 
C 467.846247 320.876533 473.5825 292.038444 473.5825 262.917188 
C 473.5825 233.795931 467.846247 204.957842 456.702025 178.05331 
C 445.557803 151.148777 429.222338 126.701026 408.6305 106.109188 
C 388.038662 85.51735 363.590911 69.181885 336.686378 58.037662 
C 309.781845 46.89344 280.943756 41.157187 251.8225 41.157187 
" style="fill: none; stroke: #000000; stroke-width: 0.8; stroke-linejoin: miter; stroke-linecap: square"/>
   </g>
   <g id="text_18">
    <g id="patch_4">
     <path d="M 384.8785 509.853187 
L 485.369125 509.853187 
Q 488.369125 509.853187 488.369125 506.853187 
L 488.369125 473.945062 
Q 488.369125 470.945062 485.369125 470.945062 
L 384.8785 470.945062 
Q 381.8785 470.945062 381.8785 473.945062 
L 381.8785 506.853187 
Q 381.8785 509.853187 384.8785 509.853187 
z
" style="fill: #ffffff; stroke: #808080; stroke-linejoin: miter"/>
    </g>
    <!-- G_cst: 2.4 dBi -->
    <g transform="translate(384.8785 481.821625)scale(0.1 -0.1)">
     <defs>
      <path id="DejaVuSans-47" d="M 3809 666 
L 3809 1919 
L 2778 1919 
L 2778 2438 
L 4434 2438 
L 4434 434 
Q 4069 175 3628 42 
Q 3188 -91 2688 -91 
Q 1594 -91 976 548 
Q 359 1188 359 2328 
Q 359 3472 976 4111 
Q 1594 4750 2688 4750 
Q 3144 4750 3555 4637 
Q 3966 4525 4313 4306 
L 4313 3634 
Q 3963 3931 3569 4081 
Q 3175 4231 2741 4231 
Q 1884 4231 1454 3753 
Q 1025 3275 1025 2328 
Q 1025 1384 1454 906 
Q 1884 428 2741 428 
Q 3075 428 3337 486 
Q 3600 544 3809 666 
z
" transform="scale(0.015625)"/>
      <path id="DejaVuSans-5f" d="M 3263 -1063 
L 3263 -1509 
L -63 -1509 
L -63 -1063 
L 3263 -1063 
z
" transform="scale(0.015625)"/>
      <path id="DejaVuSans-63" d="M 3122 3366 
L 3122 2828 
Q 2878 2963 2633 3030 
Q 2388 3097 2138 3097 
Q 1578 3097 1268 2742 
Q 959 2388 959 1747 
Q 959 1106 1268 751 
Q 1578 397 2138 397 
Q 2388 397 2633 464 
Q 2878 531 3122 666 
L 3122 134 
Q 2881 22 2623 -34 
Q 2366 -91 2075 -91 
Q 1284 -91 818 406 
Q 353 903 353 1747 
Q 353 2603 823 3093 
Q 1294 3584 2113 3584 
Q 2378 3584 2631 3529 
Q 2884 3475 3122 3366 
z
" transform="scale(0.015625)"/>
      <path id="DejaVuSans-73" d="M 2834 3397 
L 2834 2853 
Q 2591 2978 2328 3040 
Q 2066 3103 1784 3103 
Q 1356 3103 1142 2972 
Q 928 2841 928 2578 
Q 928 2378 1081 2264 
Q 1234 2150 1697 2047 
L 1894 2003 
Q 2506 1872 2764 1633 
Q 3022 1394 3022 966 
Q 3022 478 2636 193 
Q 2250 -91 1575 -91 
Q 1294 -91 989 -36 
Q 684 19 347 128 
L 347 722 
Q 666 556 975 473 
Q 1284 391 1588 391 
Q 1994 391 2212 530 
Q 2431 669 2431 922 
Q 2431 1156 2273 1281 
Q 2116 1406 1581 1522 
L 1381 1569 
Q 847 1681 609 1914 
Q 372 2147 372 2553 
Q 372 3047 722 3315 
Q 1072 3584 1716 3584 
Q 2034 3584 2315 3537 
Q 2597 3491 2834 3397 
z
" transform="scale(0.015625)"/>
      <path id="DejaVuSans-74" d="M 1172 4494 
L 1172 3500 
L 2356 3500 
L 2356 3053 
L 1172 3053 
L 1172 1153 
Q 1172 725 1289 603 
Q 1406 481 1766 481 
L 2356 481 
L 2356 0 
L 1766 0 
Q 1100 0 847 248 
Q 594 497 594 1153 
L 594 3053 
L 172 3053 
L 172 3500 
L 594 3500 
L 594 4494 
L 1172 4494 
z
" transform="scale(0.015625)"/>
      <path id="DejaVuSans-3a" d="M 750 794 
L 1409 794 
L 1409 0 
L 750 0 
L 750 794 
z
M 750 3309 
L 1409 3309 
L 1409 2516 
L 750 2516 
L 750 3309 
z
" transform="scale(0.015625)"/>
      <path id="DejaVuSans-20" transform="scale(0.015625)"/>
      <path id="DejaVuSans-2e" d="M 684 794 
L 1344 794 
L 1344 0 
L 684 0 
L 684 794 
z
" transform="scale(0.015625)"/>
      <path id="DejaVuSans-64" d="M 2906 2969 
L 2906 4863 
L 3481 4863 
L 3481 0 
L 2906 0 
L 2906 525 
Q 2725 213 2448 61 
Q 2172 -91 1784 -91 
Q 1150 -91 751 415 
Q 353 922 353 1747 
Q 353 2572 751 3078 
Q 1150 3584 1784 3584 
Q 2172 3584 2448 3432 
Q 2725 3281 2906 2969 
z
M 947 1747 
Q 947 1113 1208 752 
Q 1469 391 1925 391 
Q 2381 391 2643 752 
Q 2906 1113 2906 1747 
Q 2906 2381 2643 2742 
Q 2381 3103 1925 3103 
Q 1469 3103 1208 2742 
Q 947 2381 947 1747 
z
" transform="scale(0.015625)"/>
      <path id="DejaVuSans-42" d="M 1259 2228 
L 1259 519 
L 2272 519 
Q 2781 519 3026 730 
Q 3272 941 3272 1375 
Q 3272 1813 3026 2020 
Q 2781 2228 2272 2228 
L 1259 2228 
z
M 1259 4147 
L 1259 2741 
L 2194 2741 
Q 2656 2741 2882 2914 
Q 3109 3088 3109 3444 
Q 3109 3797 2882 3972 
Q 2656 4147 2194 4147 
L 1259 4147 
z
M 628 4666 
L 2241 4666 
Q 2963 4666 3353 4366 
Q 3744 4066 3744 3513 
Q 3744 3084 3544 2831 
Q 3344 2578 2956 2516 
Q 3422 2416 3680 2098 
Q 3938 1781 3938 1306 
Q 3938 681 3513 340 
Q 3088 0 2303 0 
L 628 0 
L 628 4666 
z
" transform="scale(0.015625)"/>
      <path id="DejaVuSans-69" d="M 603 3500 
L 1178 3500 
L 1178 0 
L 603 0 
L 603 3500 
z
M 603 4863 
L 1178 4863 
L 1178 4134 
L 603 4134 
L 603 4863 
z
" transform="scale(0.015625)"/>
     </defs>
     <use xlink:href="#DejaVuSans-47"/>
     <use xlink:href="#DejaVuSans-5f" x="77.490234"/>
     <use xlink:href="#DejaVuSans-63" x="127.490234"/>
     <use xlink:href="#DejaVuSans-73" x="182.470703"/>
     <use xlink:href="#DejaVuSans-74" x="234.570312"/>
     <use xlink:href="#DejaVuSans-3a" x="273.779297"/>
     <use xlink:href="#DejaVuSans-20" x="307.470703"/>
     <use xlink:href="#DejaVuSans-32" x="339.257812"/>
     <use xlink:href="#DejaVuSans-2e" x="402.880859"/>
     <use xlink:href="#DejaVuSans-34" x="434.667969"/>
     <use xlink:href="#DejaVuSans-20" x="498.291016"/>
     <use xlink:href="#DejaVuSans-64" x="530.078125"/>
     <use xlink:href="#DejaVuSans-42" x="593.554688"/>
     <use xlink:href="#DejaVuSans-69" x="662.158203"/>
    </g>
    <!-- G_inpe: 1.3 dBi -->
    <g transform="translate(384.8785 493.297562)scale(0.1 -0.1)">
     <defs>
      <path id="DejaVuSans-6e" d="M 3513 2113 
L 3513 0 
L 2938 0 
L 2938 2094 
Q 2938 2591 2744 2837 
Q 2550 3084 2163 3084 
Q 1697 3084 1428 2787 
Q 1159 2491 1159 1978 
L 1159 0 
L 581 0 
L 581 3500 
L 1159 3500 
L 1159 2956 
Q 1366 3272 1645 3428 
Q 1925 3584 2291 3584 
Q 2894 3584 3203 3211 
Q 3513 2838 3513 2113 
z
" transform="scale(0.015625)"/>
      <path id="DejaVuSans-70" d="M 1159 525 
L 1159 -1331 
L 581 -1331 
L 581 3500 
L 1159 3500 
L 1159 2969 
Q 1341 3281 1617 3432 
Q 1894 3584 2278 3584 
Q 2916 3584 3314 3078 
Q 3713 2572 3713 1747 
Q 3713 922 3314 415 
Q 2916 -91 2278 -91 
Q 1894 -91 1617 61 
Q 1341 213 1159 525 
z
M 3116 1747 
Q 3116 2381 2855 2742 
Q 2594 3103 2138 3103 
Q 1681 3103 1420 2742 
Q 1159 2381 1159 1747 
Q 1159 1113 1420 752 
Q 1681 391 2138 391 
Q 2594 391 2855 752 
Q 3116 1113 3116 1747 
z
" transform="scale(0.015625)"/>
      <path id="DejaVuSans-65" d="M 3597 1894 
L 3597 1613 
L 953 1613 
Q 991 1019 1311 708 
Q 1631 397 2203 397 
Q 2534 397 2845 478 
Q 3156 559 3463 722 
L 3463 178 
Q 3153 47 2828 -22 
Q 2503 -91 2169 -91 
Q 1331 -91 842 396 
Q 353 884 353 1716 
Q 353 2575 817 3079 
Q 1281 3584 2069 3584 
Q 2775 3584 3186 3129 
Q 3597 2675 3597 1894 
z
M 3022 2063 
Q 3016 2534 2758 2815 
Q 2500 3097 2075 3097 
Q 1594 3097 1305 2825 
Q 1016 2553 972 2059 
L 3022 2063 
z
" transform="scale(0.015625)"/>
     </defs>
     <use xlink:href="#DejaVuSans-47"/>
     <use xlink:href="#DejaVuSans-5f" x="77.490234"/>
     <use xlink:href="#DejaVuSans-69" x="127.490234"/>
     <use xlink:href="#DejaVuSans-6e" x="155.273438"/>
     <use xlink:href="#DejaVuSans-70" x="218.652344"/>
     <use xlink:href="#DejaVuSans-65" x="282.128906"/>
     <use xlink:href="#DejaVuSans-3a" x="343.652344"/>
     <use xlink:href="#DejaVuSans-20" x="377.34375"/>
     <use xlink:href="#DejaVuSans-31" x="409.130859"/>
     <use xlink:href="#DejaVuSans-2e" x="472.753906"/>
     <use xlink:href="#DejaVuSans-33" x="504.541016"/>
     <use xlink:href="#DejaVuSans-20" x="568.164062"/>
     <use xlink:href="#DejaVuSans-64" x="599.951172"/>
     <use xlink:href="#DejaVuSans-42" x="663.427734"/>
     <use xlink:href="#DejaVuSans-69" x="732.03125"/>
    </g>
    <!-- Pearson Coef: 0.148 -->
    <g transform="translate(384.8785 504.7735)scale(0.1 -0.1)">
     <defs>
      <path id="DejaVuSans-50" d="M 1259 4147 
L 1259 2394 
L 2053 2394 
Q 2494 2394 2734 2622 
Q 2975 2850 2975 3272 
Q 2975 3691 2734 3919 
Q 2494 4147 2053 4147 
L 1259 4147 
z
M 628 4666 
L 2053 4666 
Q 2838 4666 3239 4311 
Q 3641 3956 3641 3272 
Q 3641 2581 3239 2228 
Q 2838 1875 2053 1875 
L 1259 1875 
L 1259 0 
L 628 0 
L 628 4666 
z
" transform="scale(0.015625)"/>
      <path id="DejaVuSans-61" d="M 2194 1759 
Q 1497 1759 1228 1600 
Q 959 1441 959 1056 
Q 959 750 1161 570 
Q 1363 391 1709 391 
Q 2188 391 2477 730 
Q 2766 1069 2766 1631 
L 2766 1759 
L 2194 1759 
z
M 3341 1997 
L 3341 0 
L 2766 0 
L 2766 531 
Q 2569 213 2275 61 
Q 1981 -91 1556 -91 
Q 1019 -91 701 211 
Q 384 513 384 1019 
Q 384 1609 779 1909 
Q 1175 2209 1959 2209 
L 2766 2209 
L 2766 2266 
Q 2766 2663 2505 2880 
Q 2244 3097 1772 3097 
Q 1472 3097 1187 3025 
Q 903 2953 641 2809 
L 641 3341 
Q 956 3463 1253 3523 
Q 1550 3584 1831 3584 
Q 2591 3584 2966 3190 
Q 3341 2797 3341 1997 
z
" transform="scale(0.015625)"/>
      <path id="DejaVuSans-72" d="M 2631 2963 
Q 2534 3019 2420 3045 
Q 2306 3072 2169 3072 
Q 1681 3072 1420 2755 
Q 1159 2438 1159 1844 
L 1159 0 
L 581 0 
L 581 3500 
L 1159 3500 
L 1159 2956 
Q 1341 3275 1631 3429 
Q 1922 3584 2338 3584 
Q 2397 3584 2469 3576 
Q 2541 3569 2628 3553 
L 2631 2963 
z
" transform="scale(0.015625)"/>
      <path id="DejaVuSans-6f" d="M 1959 3097 
Q 1497 3097 1228 2736 
Q 959 2375 959 1747 
Q 959 1119 1226 758 
Q 1494 397 1959 397 
Q 2419 397 2687 759 
Q 2956 1122 2956 1747 
Q 2956 2369 2687 2733 
Q 2419 3097 1959 3097 
z
M 1959 3584 
Q 2709 3584 3137 3096 
Q 3566 2609 3566 1747 
Q 3566 888 3137 398 
Q 2709 -91 1959 -91 
Q 1206 -91 779 398 
Q 353 888 353 1747 
Q 353 2609 779 3096 
Q 1206 3584 1959 3584 
z
" transform="scale(0.015625)"/>
      <path id="DejaVuSans-43" d="M 4122 4306 
L 4122 3641 
Q 3803 3938 3442 4084 
Q 3081 4231 2675 4231 
Q 1875 4231 1450 3742 
Q 1025 3253 1025 2328 
Q 1025 1406 1450 917 
Q 1875 428 2675 428 
Q 3081 428 3442 575 
Q 3803 722 4122 1019 
L 4122 359 
Q 3791 134 3420 21 
Q 3050 -91 2638 -91 
Q 1578 -91 968 557 
Q 359 1206 359 2328 
Q 359 3453 968 4101 
Q 1578 4750 2638 4750 
Q 3056 4750 3426 4639 
Q 3797 4528 4122 4306 
z
" transform="scale(0.015625)"/>
      <path id="DejaVuSans-66" d="M 2375 4863 
L 2375 4384 
L 1825 4384 
Q 1516 4384 1395 4259 
Q 1275 4134 1275 3809 
L 1275 3500 
L 2222 3500 
L 2222 3053 
L 1275 3053 
L 1275 0 
L 697 0 
L 697 3053 
L 147 3053 
L 147 3500 
L 697 3500 
L 697 3744 
Q 697 4328 969 4595 
Q 1241 4863 1831 4863 
L 2375 4863 
z
" transform="scale(0.015625)"/>
     </defs>
     <use xlink:href="#DejaVuSans-50"/>
     <use xlink:href="#DejaVuSans-65" x="56.677734"/>
     <use xlink:href="#DejaVuSans-61" x="118.201172"/>
     <use xlink:href="#DejaVuSans-72" x="179.480469"/>
     <use xlink:href="#DejaVuSans-73" x="220.59375"/>
     <use xlink:href="#DejaVuSans-6f" x="272.693359"/>
     <use xlink:href="#DejaVuSans-6e" x="333.875"/>
     <use xlink:href="#DejaVuSans-20" x="397.253906"/>
     <use xlink:href="#DejaVuSans-43" x="429.041016"/>
     <use xlink:href="#DejaVuSans-6f" x="498.865234"/>
     <use xlink:href="#DejaVuSans-65" x="560.046875"/>
     <use xlink:href="#DejaVuSans-66" x="621.570312"/>
     <use xlink:href="#DejaVuSans-3a" x="653.150391"/>
     <use xlink:href="#DejaVuSans-20" x="686.841797"/>
     <use xlink:href="#DejaVuSans-30" x="718.628906"/>
     <use xlink:href="#DejaVuSans-2e" x="782.251953"/>
     <use xlink:href="#DejaVuSans-31" x="814.039062"/>
     <use xlink:href="#DejaVuSans-34" x="877.662109"/>
     <use xlink:href="#DejaVuSans-38" x="941.285156"/>
    </g>
   </g>
   <g id="text_19">
    <g id="patch_5">
     <path d="M 52.2385 56.370937 
L 121.861 56.370937 
Q 125.461 56.370937 125.461 52.770937 
L 125.461 41.157187 
Q 125.461 37.557187 121.861 37.557187 
L 52.2385 37.557187 
Q 48.6385 37.557187 48.6385 41.157187 
L 48.6385 52.770937 
Q 48.6385 56.370937 52.2385 56.370937 
z
" style="fill: #ffffff; stroke: #808080; stroke-linejoin: miter"/>
    </g>
    <!-- Freq: 6 GHz -->
    <g transform="translate(52.2385 50.275312)scale(0.12 -0.12)">
     <defs>
      <path id="DejaVuSans-46" d="M 628 4666 
L 3309 4666 
L 3309 4134 
L 1259 4134 
L 1259 2759 
L 3109 2759 
L 3109 2228 
L 1259 2228 
L 1259 0 
L 628 0 
L 628 4666 
z
" transform="scale(0.015625)"/>
      <path id="DejaVuSans-71" d="M 947 1747 
Q 947 1113 1208 752 
Q 1469 391 1925 391 
Q 2381 391 2643 752 
Q 2906 1113 2906 1747 
Q 2906 2381 2643 2742 
Q 2381 3103 1925 3103 
Q 1469 3103 1208 2742 
Q 947 2381 947 1747 
z
M 2906 525 
Q 2725 213 2448 61 
Q 2172 -91 1784 -91 
Q 1150 -91 751 415 
Q 353 922 353 1747 
Q 353 2572 751 3078 
Q 1150 3584 1784 3584 
Q 2172 3584 2448 3432 
Q 2725 3281 2906 2969 
L 2906 3500 
L 3481 3500 
L 3481 -1331 
L 2906 -1331 
L 2906 525 
z
" transform="scale(0.015625)"/>
      <path id="DejaVuSans-36" d="M 2113 2584 
Q 1688 2584 1439 2293 
Q 1191 2003 1191 1497 
Q 1191 994 1439 701 
Q 1688 409 2113 409 
Q 2538 409 2786 701 
Q 3034 994 3034 1497 
Q 3034 2003 2786 2293 
Q 2538 2584 2113 2584 
z
M 3366 4563 
L 3366 3988 
Q 3128 4100 2886 4159 
Q 2644 4219 2406 4219 
Q 1781 4219 1451 3797 
Q 1122 3375 1075 2522 
Q 1259 2794 1537 2939 
Q 1816 3084 2150 3084 
Q 2853 3084 3261 2657 
Q 3669 2231 3669 1497 
Q 3669 778 3244 343 
Q 2819 -91 2113 -91 
Q 1303 -91 875 529 
Q 447 1150 447 2328 
Q 447 3434 972 4092 
Q 1497 4750 2381 4750 
Q 2619 4750 2861 4703 
Q 3103 4656 3366 4563 
z
" transform="scale(0.015625)"/>
      <path id="DejaVuSans-48" d="M 628 4666 
L 1259 4666 
L 1259 2753 
L 3553 2753 
L 3553 4666 
L 4184 4666 
L 4184 0 
L 3553 0 
L 3553 2222 
L 1259 2222 
L 1259 0 
L 628 0 
L 628 4666 
z
" transform="scale(0.015625)"/>
      <path id="DejaVuSans-7a" d="M 353 3500 
L 3084 3500 
L 3084 2975 
L 922 459 
L 3084 459 
L 3084 0 
L 275 0 
L 275 525 
L 2438 3041 
L 353 3041 
L 353 3500 
z
" transform="scale(0.015625)"/>
     </defs>
     <use xlink:href="#DejaVuSans-46"/>
     <use xlink:href="#DejaVuSans-72" x="50.269531"/>
     <use xlink:href="#DejaVuSans-65" x="89.132812"/>
     <use xlink:href="#DejaVuSans-71" x="150.65625"/>
     <use xlink:href="#DejaVuSans-3a" x="214.132812"/>
     <use xlink:href="#DejaVuSans-20" x="247.824219"/>
     <use xlink:href="#DejaVuSans-36" x="279.611328"/>
     <use xlink:href="#DejaVuSans-20" x="343.234375"/>
     <use xlink:href="#DejaVuSans-47" x="375.021484"/>
     <use xlink:href="#DejaVuSans-48" x="452.511719"/>
     <use xlink:href="#DejaVuSans-7a" x="527.707031"/>
    </g>
   </g>
   <g id="text_20">
    <!-- Radiation Diagram - 3AVVF06 -->
    <g transform="translate(162.985938 16.318125)scale(0.12 -0.12)">
     <defs>
      <path id="DejaVuSans-52" d="M 2841 2188 
Q 3044 2119 3236 1894 
Q 3428 1669 3622 1275 
L 4263 0 
L 3584 0 
L 2988 1197 
Q 2756 1666 2539 1819 
Q 2322 1972 1947 1972 
L 1259 1972 
L 1259 0 
L 628 0 
L 628 4666 
L 2053 4666 
Q 2853 4666 3247 4331 
Q 3641 3997 3641 3322 
Q 3641 2881 3436 2590 
Q 3231 2300 2841 2188 
z
M 1259 4147 
L 1259 2491 
L 2053 2491 
Q 2509 2491 2742 2702 
Q 2975 2913 2975 3322 
Q 2975 3731 2742 3939 
Q 2509 4147 2053 4147 
L 1259 4147 
z
" transform="scale(0.015625)"/>
      <path id="DejaVuSans-44" d="M 1259 4147 
L 1259 519 
L 2022 519 
Q 2988 519 3436 956 
Q 3884 1394 3884 2338 
Q 3884 3275 3436 3711 
Q 2988 4147 2022 4147 
L 1259 4147 
z
M 628 4666 
L 1925 4666 
Q 3281 4666 3915 4102 
Q 4550 3538 4550 2338 
Q 4550 1131 3912 565 
Q 3275 0 1925 0 
L 628 0 
L 628 4666 
z
" transform="scale(0.015625)"/>
      <path id="DejaVuSans-67" d="M 2906 1791 
Q 2906 2416 2648 2759 
Q 2391 3103 1925 3103 
Q 1463 3103 1205 2759 
Q 947 2416 947 1791 
Q 947 1169 1205 825 
Q 1463 481 1925 481 
Q 2391 481 2648 825 
Q 2906 1169 2906 1791 
z
M 3481 434 
Q 3481 -459 3084 -895 
Q 2688 -1331 1869 -1331 
Q 1566 -1331 1297 -1286 
Q 1028 -1241 775 -1147 
L 775 -588 
Q 1028 -725 1275 -790 
Q 1522 -856 1778 -856 
Q 2344 -856 2625 -561 
Q 2906 -266 2906 331 
L 2906 616 
Q 2728 306 2450 153 
Q 2172 0 1784 0 
Q 1141 0 747 490 
Q 353 981 353 1791 
Q 353 2603 747 3093 
Q 1141 3584 1784 3584 
Q 2172 3584 2450 3431 
Q 2728 3278 2906 2969 
L 2906 3500 
L 3481 3500 
L 3481 434 
z
" transform="scale(0.015625)"/>
      <path id="DejaVuSans-6d" d="M 3328 2828 
Q 3544 3216 3844 3400 
Q 4144 3584 4550 3584 
Q 5097 3584 5394 3201 
Q 5691 2819 5691 2113 
L 5691 0 
L 5113 0 
L 5113 2094 
Q 5113 2597 4934 2840 
Q 4756 3084 4391 3084 
Q 3944 3084 3684 2787 
Q 3425 2491 3425 1978 
L 3425 0 
L 2847 0 
L 2847 2094 
Q 2847 2600 2669 2842 
Q 2491 3084 2119 3084 
Q 1678 3084 1418 2786 
Q 1159 2488 1159 1978 
L 1159 0 
L 581 0 
L 581 3500 
L 1159 3500 
L 1159 2956 
Q 1356 3278 1631 3431 
Q 1906 3584 2284 3584 
Q 2666 3584 2933 3390 
Q 3200 3197 3328 2828 
z
" transform="scale(0.015625)"/>
      <path id="DejaVuSans-2d" d="M 313 2009 
L 1997 2009 
L 1997 1497 
L 313 1497 
L 313 2009 
z
" transform="scale(0.015625)"/>
      <path id="DejaVuSans-41" d="M 2188 4044 
L 1331 1722 
L 3047 1722 
L 2188 4044 
z
M 1831 4666 
L 2547 4666 
L 4325 0 
L 3669 0 
L 3244 1197 
L 1141 1197 
L 716 0 
L 50 0 
L 1831 4666 
z
" transform="scale(0.015625)"/>
      <path id="DejaVuSans-56" d="M 1831 0 
L 50 4666 
L 709 4666 
L 2188 738 
L 3669 4666 
L 4325 4666 
L 2547 0 
L 1831 0 
z
" transform="scale(0.015625)"/>
     </defs>
     <use xlink:href="#DejaVuSans-52"/>
     <use xlink:href="#DejaVuSans-61" x="67.232422"/>
     <use xlink:href="#DejaVuSans-64" x="128.511719"/>
     <use xlink:href="#DejaVuSans-69" x="191.988281"/>
     <use xlink:href="#DejaVuSans-61" x="219.771484"/>
     <use xlink:href="#DejaVuSans-74" x="281.050781"/>
     <use xlink:href="#DejaVuSans-69" x="320.259766"/>
     <use xlink:href="#DejaVuSans-6f" x="348.042969"/>
     <use xlink:href="#DejaVuSans-6e" x="409.224609"/>
     <use xlink:href="#DejaVuSans-20" x="472.603516"/>
     <use xlink:href="#DejaVuSans-44" x="504.390625"/>
     <use xlink:href="#DejaVuSans-69" x="581.392578"/>
     <use xlink:href="#DejaVuSans-61" x="609.175781"/>
     <use xlink:href="#DejaVuSans-67" x="670.455078"/>
     <use xlink:href="#DejaVuSans-72" x="733.931641"/>
     <use xlink:href="#DejaVuSans-61" x="775.044922"/>
     <use xlink:href="#DejaVuSans-6d" x="836.324219"/>
     <use xlink:href="#DejaVuSans-20" x="933.736328"/>
     <use xlink:href="#DejaVuSans-2d" x="965.523438"/>
     <use xlink:href="#DejaVuSans-20" x="1001.607422"/>
     <use xlink:href="#DejaVuSans-33" x="1033.394531"/>
     <use xlink:href="#DejaVuSans-41" x="1097.017578"/>
     <use xlink:href="#DejaVuSans-56" x="1159.050781"/>
     <use xlink:href="#DejaVuSans-56" x="1227.458984"/>
     <use xlink:href="#DejaVuSans-46" x="1295.867188"/>
     <use xlink:href="#DejaVuSans-30" x="1353.386719"/>
     <use xlink:href="#DejaVuSans-36" x="1417.009766"/>
    </g>
   </g>
   <g id="legend_1">
    <g id="patch_6">
     <path d="M 411.802813 78.513437 
L 466.5825 78.513437 
Q 468.5825 78.513437 468.5825 76.513437 
L 468.5825 48.157187 
Q 468.5825 46.157187 466.5825 46.157187 
L 411.802813 46.157187 
Q 409.802813 46.157187 409.802813 48.157187 
L 409.802813 76.513437 
Q 409.802813 78.513437 411.802813 78.513437 
z
" style="fill: #ffffff; opacity: 0.8; stroke: #cccccc; stroke-linejoin: miter"/>
    </g>
    <g id="line2d_20">
     <path d="M 413.802813 54.255625 
L 423.802813 54.255625 
L 433.802813 54.255625 
" style="fill: none; stroke: #ff0000; stroke-width: 1.5; stroke-linecap: square"/>
    </g>
    <g id="text_21">
     <!-- INPE -->
     <g transform="translate(441.802813 57.755625)scale(0.1 -0.1)">
      <defs>
       <path id="DejaVuSans-49" d="M 628 4666 
L 1259 4666 
L 1259 0 
L 628 0 
L 628 4666 
z
" transform="scale(0.015625)"/>
       <path id="DejaVuSans-4e" d="M 628 4666 
L 1478 4666 
L 3547 763 
L 3547 4666 
L 4159 4666 
L 4159 0 
L 3309 0 
L 1241 3903 
L 1241 0 
L 628 0 
L 628 4666 
z
" transform="scale(0.015625)"/>
       <path id="DejaVuSans-45" d="M 628 4666 
L 3578 4666 
L 3578 4134 
L 1259 4134 
L 1259 2753 
L 3481 2753 
L 3481 2222 
L 1259 2222 
L 1259 531 
L 3634 531 
L 3634 0 
L 628 0 
L 628 4666 
z
" transform="scale(0.015625)"/>
      </defs>
      <use xlink:href="#DejaVuSans-49"/>
      <use xlink:href="#DejaVuSans-4e" x="29.492188"/>
      <use xlink:href="#DejaVuSans-50" x="104.296875"/>
      <use xlink:href="#DejaVuSans-45" x="164.599609"/>
     </g>
    </g>
    <g id="line2d_21">
     <path d="M 413.802813 68.93375 
L 423.802813 68.93375 
L 433.802813 68.93375 
" style="fill: none; stroke-dasharray: 5.55,2.4; stroke-dashoffset: 0; stroke: #0000ff; stroke-width: 1.5"/>
    </g>
    <g id="text_22">
     <!-- CST -->
     <g transform="translate(441.802813 72.43375)scale(0.1 -0.1)">
      <defs>
       <path id="DejaVuSans-53" d="M 3425 4513 
L 3425 3897 
Q 3066 4069 2747 4153 
Q 2428 4238 2131 4238 
Q 1616 4238 1336 4038 
Q 1056 3838 1056 3469 
Q 1056 3159 1242 3001 
Q 1428 2844 1947 2747 
L 2328 2669 
Q 3034 2534 3370 2195 
Q 3706 1856 3706 1288 
Q 3706 609 3251 259 
Q 2797 -91 1919 -91 
Q 1588 -91 1214 -16 
Q 841 59 441 206 
L 441 856 
Q 825 641 1194 531 
Q 1563 422 1919 422 
Q 2459 422 2753 634 
Q 3047 847 3047 1241 
Q 3047 1584 2836 1778 
Q 2625 1972 2144 2069 
L 1759 2144 
Q 1053 2284 737 2584 
Q 422 2884 422 3419 
Q 422 4038 858 4394 
Q 1294 4750 2059 4750 
Q 2388 4750 2728 4690 
Q 3069 4631 3425 4513 
z
" transform="scale(0.015625)"/>
       <path id="DejaVuSans-54" d="M -19 4666 
L 3928 4666 
L 3928 4134 
L 2272 4134 
L 2272 0 
L 1638 0 
L 1638 4134 
L -19 4134 
L -19 4666 
z
" transform="scale(0.015625)"/>
      </defs>
      <use xlink:href="#DejaVuSans-43"/>
      <use xlink:href="#DejaVuSans-53" x="69.824219"/>
      <use xlink:href="#DejaVuSans-54" x="133.300781"/>
     </g>
    </g>
   </g>
  </g>
 </g>
 <defs>
  <clipPath id="p2ac7a62e1a">
   <path d="M 473.5825 262.917187 
C 473.5825 233.795931 467.846247 204.957842 456.702025 178.05331 
C 445.557803 151.148777 429.222338 126.701026 408.6305 106.109188 
C 388.038662 85.51735 363.590911 69.181885 336.686378 58.037662 
C 309.781845 46.89344 280.943756 41.157187 251.8225 41.157187 
C 222.701244 41.157187 193.863155 46.89344 166.958622 58.037662 
C 140.054089 69.181885 115.606338 85.51735 95.0145 106.109188 
C 74.422662 126.701026 58.087197 151.148777 46.942975 178.05331 
C 35.798753 204.957842 30.0625 233.795931 30.0625 262.917187 
C 30.0625 292.038444 35.798753 320.876533 46.942975 347.781065 
C 58.087197 374.685598 74.422662 399.133349 95.0145 419.725187 
C 115.606338 440.317025 140.054089 456.65249 166.958622 467.796713 
C 193.863155 478.940935 222.701244 484.677187 251.8225 484.677187 
C 280.943756 484.677187 309.781845 478.940935 336.686378 467.796713 
C 363.590911 456.65249 388.038662 440.317025 408.6305 419.725187 
C 429.222338 399.133349 445.557803 374.685598 456.702025 347.781065 
C 467.846247 320.876533 473.5825 292.038444 473.5825 262.917188 
M 251.8225 262.917187 
C 251.8225 262.917187 251.8225 262.917187 251.8225 262.917187 
C 251.8225 262.917187 251.8225 262.917187 251.8225 262.917187 
C 251.8225 262.917187 251.8225 262.917187 251.8225 262.917187 
C 251.8225 262.917187 251.8225 262.917187 251.8225 262.917187 
C 251.8225 262.917187 251.8225 262.917187 251.8225 262.917187 
C 251.8225 262.917187 251.8225 262.917187 251.8225 262.917187 
C 251.8225 262.917187 251.8225 262.917187 251.8225 262.917187 
C 251.8225 262.917187 251.8225 262.917187 251.8225 262.917187 
C 251.8225 262.917187 251.8225 262.917187 251.8225 262.917187 
C 251.8225 262.917187 251.8225 262.917187 251.8225 262.917187 
C 251.8225 262.917187 251.8225 262.917187 251.8225 262.917187 
C 251.8225 262.917187 251.8225 262.917187 251.8225 262.917187 
C 251.8225 262.917187 251.8225 262.917187 251.8225 262.917187 
C 251.8225 262.917187 251.8225 262.917187 251.8225 262.917187 
C 251.8225 262.917187 251.8225 262.917187 251.8225 262.917187 
C 251.8225 262.917187 251.8225 262.917187 251.8225 262.917187 
M 473.5825 262.917187 
z
"/>
  </clipPath>
 </defs>
</svg>
