<?xml version="1.0" encoding="utf-8" standalone="no"?>
<!DOCTYPE svg PUBLIC "-//W3C//DTD SVG 1.1//EN"
  "http://www.w3.org/Graphics/SVG/1.1/DTD/svg11.dtd">
<svg xmlns:xlink="http://www.w3.org/1999/xlink" width="392.765pt" height="399.83625pt" viewBox="0 0 392.765 399.83625" xmlns="http://www.w3.org/2000/svg" version="1.1">
 <metadata>
  <rdf:RDF xmlns:dc="http://purl.org/dc/elements/1.1/" xmlns:cc="http://creativecommons.org/ns#" xmlns:rdf="http://www.w3.org/1999/02/22-rdf-syntax-ns#">
   <cc:Work>
    <dc:type rdf:resource="http://purl.org/dc/dcmitype/StillImage"/>
    <dc:date>2023-11-03T14:12:19.229162</dc:date>
    <dc:format>image/svg+xml</dc:format>
    <dc:creator>
     <cc:Agent>
      <dc:title>Matplotlib v3.5.1, https://matplotlib.org/</dc:title>
     </cc:Agent>
    </dc:creator>
   </cc:Work>
  </rdf:RDF>
 </metadata>
 <defs>
  <style type="text/css">*{stroke-linejoin: round; stroke-linecap: butt}</style>
 </defs>
 <g id="figure_1">
  <g id="patch_1">
   <path d="M 0 399.83625 
L 392.765 399.83625 
L 392.765 0 
L 0 0 
z
" style="fill: #ffffff"/>
  </g>
  <g id="axes_1">
   <g id="patch_2">
    <path d="M 365.88375 207.477187 
C 365.88375 185.636245 361.581561 164.007679 353.223394 143.829279 
C 344.865227 123.650879 332.613628 105.315066 317.16975 89.871188 
C 301.725871 74.427309 283.390058 62.17571 263.211658 53.817544 
C 243.033259 45.459377 221.404692 41.157187 199.56375 41.157187 
C 177.722808 41.157187 156.094241 45.459377 135.915842 53.817544 
C 115.737442 62.17571 97.401629 74.427309 81.95775 89.871188 
C 66.513872 105.315066 54.262273 123.650879 45.904106 143.829279 
C 37.545939 164.007679 33.24375 185.636245 33.24375 207.477187 
C 33.24375 229.31813 37.545939 250.946696 45.904106 271.125096 
C 54.262273 291.303496 66.513872 309.639309 81.95775 325.083187 
C 97.401629 340.527066 115.737442 352.778665 135.915842 361.136831 
C 156.094241 369.494998 177.722808 373.797188 199.56375 373.797188 
C 221.404692 373.797188 243.033259 369.494998 263.211658 361.136831 
C 283.390058 352.778665 301.725871 340.527066 317.16975 325.083187 
C 332.613628 309.639309 344.865227 291.303496 353.223394 271.125096 
C 361.581561 250.946696 365.88375 229.31813 365.88375 207.477188 
M 199.56375 207.477187 
C 199.56375 207.477187 199.56375 207.477187 199.56375 207.477187 
C 199.56375 207.477187 199.56375 207.477187 199.56375 207.477187 
C 199.56375 207.477187 199.56375 207.477187 199.56375 207.477187 
C 199.56375 207.477187 199.56375 207.477187 199.56375 207.477187 
C 199.56375 207.477187 199.56375 207.477187 199.56375 207.477187 
C 199.56375 207.477187 199.56375 207.477187 199.56375 207.477187 
C 199.56375 207.477187 199.56375 207.477187 199.56375 207.477187 
C 199.56375 207.477187 199.56375 207.477187 199.56375 207.477187 
C 199.56375 207.477187 199.56375 207.477187 199.56375 207.477187 
C 199.56375 207.477187 199.56375 207.477187 199.56375 207.477187 
C 199.56375 207.477187 199.56375 207.477187 199.56375 207.477187 
C 199.56375 207.477187 199.56375 207.477187 199.56375 207.477187 
C 199.56375 207.477187 199.56375 207.477187 199.56375 207.477187 
C 199.56375 207.477187 199.56375 207.477187 199.56375 207.477187 
C 199.56375 207.477187 199.56375 207.477187 199.56375 207.477187 
C 199.56375 207.477187 199.56375 207.477187 199.56375 207.477187 
M 365.88375 207.477187 
z
" style="fill: #ffffff"/>
   </g>
   <g id="matplotlib.axis_1">
    <g id="xtick_1">
     <g id="line2d_1">
      <path d="M 199.56375 207.477187 
L 365.88375 207.477187 
" clip-path="url(#p1838a11f2e)" style="fill: none; stroke: #b0b0b0; stroke-width: 0.8; stroke-linecap: square"/>
     </g>
     <g id="text_1">
      <!-- 0° -->
      <g transform="translate(374.2025 210.236562)scale(0.1 -0.1)">
       <defs>
        <path id="DejaVuSans-30" d="M 2034 4250 
Q 1547 4250 1301 3770 
Q 1056 3291 1056 2328 
Q 1056 1369 1301 889 
Q 1547 409 2034 409 
Q 2525 409 2770 889 
Q 3016 1369 3016 2328 
Q 3016 3291 2770 3770 
Q 2525 4250 2034 4250 
z
M 2034 4750 
Q 2819 4750 3233 4129 
Q 3647 3509 3647 2328 
Q 3647 1150 3233 529 
Q 2819 -91 2034 -91 
Q 1250 -91 836 529 
Q 422 1150 422 2328 
Q 422 3509 836 4129 
Q 1250 4750 2034 4750 
z
" transform="scale(0.015625)"/>
        <path id="DejaVuSans-b0" d="M 1600 4347 
Q 1350 4347 1178 4173 
Q 1006 4000 1006 3750 
Q 1006 3503 1178 3333 
Q 1350 3163 1600 3163 
Q 1850 3163 2022 3333 
Q 2194 3503 2194 3750 
Q 2194 3997 2020 4172 
Q 1847 4347 1600 4347 
z
M 1600 4750 
Q 1800 4750 1984 4673 
Q 2169 4597 2303 4453 
Q 2447 4313 2519 4134 
Q 2591 3956 2591 3750 
Q 2591 3338 2302 3052 
Q 2013 2766 1594 2766 
Q 1172 2766 890 3047 
Q 609 3328 609 3750 
Q 609 4169 896 4459 
Q 1184 4750 1600 4750 
z
" transform="scale(0.015625)"/>
       </defs>
       <use xlink:href="#DejaVuSans-30"/>
       <use xlink:href="#DejaVuSans-b0" x="63.623047"/>
      </g>
     </g>
    </g>
    <g id="xtick_2">
     <g id="line2d_2">
      <path d="M 199.56375 207.477187 
L 317.16975 89.871188 
" clip-path="url(#p1838a11f2e)" style="fill: none; stroke: #b0b0b0; stroke-width: 0.8; stroke-linecap: square"/>
     </g>
     <g id="text_2">
      <!-- 45° -->
      <g transform="translate(318.206745 82.731068)scale(0.1 -0.1)">
       <defs>
        <path id="DejaVuSans-34" d="M 2419 4116 
L 825 1625 
L 2419 1625 
L 2419 4116 
z
M 2253 4666 
L 3047 4666 
L 3047 1625 
L 3713 1625 
L 3713 1100 
L 3047 1100 
L 3047 0 
L 2419 0 
L 2419 1100 
L 313 1100 
L 313 1709 
L 2253 4666 
z
" transform="scale(0.015625)"/>
        <path id="DejaVuSans-35" d="M 691 4666 
L 3169 4666 
L 3169 4134 
L 1269 4134 
L 1269 2991 
Q 1406 3038 1543 3061 
Q 1681 3084 1819 3084 
Q 2600 3084 3056 2656 
Q 3513 2228 3513 1497 
Q 3513 744 3044 326 
Q 2575 -91 1722 -91 
Q 1428 -91 1123 -41 
Q 819 9 494 109 
L 494 744 
Q 775 591 1075 516 
Q 1375 441 1709 441 
Q 2250 441 2565 725 
Q 2881 1009 2881 1497 
Q 2881 1984 2565 2268 
Q 2250 2553 1709 2553 
Q 1456 2553 1204 2497 
Q 953 2441 691 2322 
L 691 4666 
z
" transform="scale(0.015625)"/>
       </defs>
       <use xlink:href="#DejaVuSans-34"/>
       <use xlink:href="#DejaVuSans-35" x="63.623047"/>
       <use xlink:href="#DejaVuSans-b0" x="127.246094"/>
      </g>
     </g>
    </g>
    <g id="xtick_3">
     <g id="line2d_3">
      <path d="M 199.56375 207.477187 
L 199.56375 41.157187 
" clip-path="url(#p1838a11f2e)" style="fill: none; stroke: #b0b0b0; stroke-width: 0.8; stroke-linecap: square"/>
     </g>
     <g id="text_3">
      <!-- 90° -->
      <g transform="translate(190.70125 29.916562)scale(0.1 -0.1)">
       <defs>
        <path id="DejaVuSans-39" d="M 703 97 
L 703 672 
Q 941 559 1184 500 
Q 1428 441 1663 441 
Q 2288 441 2617 861 
Q 2947 1281 2994 2138 
Q 2813 1869 2534 1725 
Q 2256 1581 1919 1581 
Q 1219 1581 811 2004 
Q 403 2428 403 3163 
Q 403 3881 828 4315 
Q 1253 4750 1959 4750 
Q 2769 4750 3195 4129 
Q 3622 3509 3622 2328 
Q 3622 1225 3098 567 
Q 2575 -91 1691 -91 
Q 1453 -91 1209 -44 
Q 966 3 703 97 
z
M 1959 2075 
Q 2384 2075 2632 2365 
Q 2881 2656 2881 3163 
Q 2881 3666 2632 3958 
Q 2384 4250 1959 4250 
Q 1534 4250 1286 3958 
Q 1038 3666 1038 3163 
Q 1038 2656 1286 2365 
Q 1534 2075 1959 2075 
z
" transform="scale(0.015625)"/>
       </defs>
       <use xlink:href="#DejaVuSans-39"/>
       <use xlink:href="#DejaVuSans-30" x="63.623047"/>
       <use xlink:href="#DejaVuSans-b0" x="127.246094"/>
      </g>
     </g>
    </g>
    <g id="xtick_4">
     <g id="line2d_4">
      <path d="M 199.56375 207.477187 
L 81.95775 89.871188 
" clip-path="url(#p1838a11f2e)" style="fill: none; stroke: #b0b0b0; stroke-width: 0.8; stroke-linecap: square"/>
     </g>
     <g id="text_4">
      <!-- 135° -->
      <g transform="translate(60.014505 82.731068)scale(0.1 -0.1)">
       <defs>
        <path id="DejaVuSans-31" d="M 794 531 
L 1825 531 
L 1825 4091 
L 703 3866 
L 703 4441 
L 1819 4666 
L 2450 4666 
L 2450 531 
L 3481 531 
L 3481 0 
L 794 0 
L 794 531 
z
" transform="scale(0.015625)"/>
        <path id="DejaVuSans-33" d="M 2597 2516 
Q 3050 2419 3304 2112 
Q 3559 1806 3559 1356 
Q 3559 666 3084 287 
Q 2609 -91 1734 -91 
Q 1441 -91 1130 -33 
Q 819 25 488 141 
L 488 750 
Q 750 597 1062 519 
Q 1375 441 1716 441 
Q 2309 441 2620 675 
Q 2931 909 2931 1356 
Q 2931 1769 2642 2001 
Q 2353 2234 1838 2234 
L 1294 2234 
L 1294 2753 
L 1863 2753 
Q 2328 2753 2575 2939 
Q 2822 3125 2822 3475 
Q 2822 3834 2567 4026 
Q 2313 4219 1838 4219 
Q 1578 4219 1281 4162 
Q 984 4106 628 3988 
L 628 4550 
Q 988 4650 1302 4700 
Q 1616 4750 1894 4750 
Q 2613 4750 3031 4423 
Q 3450 4097 3450 3541 
Q 3450 3153 3228 2886 
Q 3006 2619 2597 2516 
z
" transform="scale(0.015625)"/>
       </defs>
       <use xlink:href="#DejaVuSans-31"/>
       <use xlink:href="#DejaVuSans-33" x="63.623047"/>
       <use xlink:href="#DejaVuSans-35" x="127.246094"/>
       <use xlink:href="#DejaVuSans-b0" x="190.869141"/>
      </g>
     </g>
    </g>
    <g id="xtick_5">
     <g id="line2d_5">
      <path d="M 199.56375 207.477187 
L 33.24375 207.477187 
" clip-path="url(#p1838a11f2e)" style="fill: none; stroke: #b0b0b0; stroke-width: 0.8; stroke-linecap: square"/>
     </g>
     <g id="text_5">
      <!-- 180° -->
      <g transform="translate(7.2 210.236562)scale(0.1 -0.1)">
       <defs>
        <path id="DejaVuSans-38" d="M 2034 2216 
Q 1584 2216 1326 1975 
Q 1069 1734 1069 1313 
Q 1069 891 1326 650 
Q 1584 409 2034 409 
Q 2484 409 2743 651 
Q 3003 894 3003 1313 
Q 3003 1734 2745 1975 
Q 2488 2216 2034 2216 
z
M 1403 2484 
Q 997 2584 770 2862 
Q 544 3141 544 3541 
Q 544 4100 942 4425 
Q 1341 4750 2034 4750 
Q 2731 4750 3128 4425 
Q 3525 4100 3525 3541 
Q 3525 3141 3298 2862 
Q 3072 2584 2669 2484 
Q 3125 2378 3379 2068 
Q 3634 1759 3634 1313 
Q 3634 634 3220 271 
Q 2806 -91 2034 -91 
Q 1263 -91 848 271 
Q 434 634 434 1313 
Q 434 1759 690 2068 
Q 947 2378 1403 2484 
z
M 1172 3481 
Q 1172 3119 1398 2916 
Q 1625 2713 2034 2713 
Q 2441 2713 2670 2916 
Q 2900 3119 2900 3481 
Q 2900 3844 2670 4047 
Q 2441 4250 2034 4250 
Q 1625 4250 1398 4047 
Q 1172 3844 1172 3481 
z
" transform="scale(0.015625)"/>
       </defs>
       <use xlink:href="#DejaVuSans-31"/>
       <use xlink:href="#DejaVuSans-38" x="63.623047"/>
       <use xlink:href="#DejaVuSans-30" x="127.246094"/>
       <use xlink:href="#DejaVuSans-b0" x="190.869141"/>
      </g>
     </g>
    </g>
    <g id="xtick_6">
     <g id="line2d_6">
      <path d="M 199.56375 207.477187 
L 81.95775 325.083187 
" clip-path="url(#p1838a11f2e)" style="fill: none; stroke: #b0b0b0; stroke-width: 0.8; stroke-linecap: square"/>
     </g>
     <g id="text_6">
      <!-- 225° -->
      <g transform="translate(60.014505 337.742057)scale(0.1 -0.1)">
       <defs>
        <path id="DejaVuSans-32" d="M 1228 531 
L 3431 531 
L 3431 0 
L 469 0 
L 469 531 
Q 828 903 1448 1529 
Q 2069 2156 2228 2338 
Q 2531 2678 2651 2914 
Q 2772 3150 2772 3378 
Q 2772 3750 2511 3984 
Q 2250 4219 1831 4219 
Q 1534 4219 1204 4116 
Q 875 4013 500 3803 
L 500 4441 
Q 881 4594 1212 4672 
Q 1544 4750 1819 4750 
Q 2544 4750 2975 4387 
Q 3406 4025 3406 3419 
Q 3406 3131 3298 2873 
Q 3191 2616 2906 2266 
Q 2828 2175 2409 1742 
Q 1991 1309 1228 531 
z
" transform="scale(0.015625)"/>
       </defs>
       <use xlink:href="#DejaVuSans-32"/>
       <use xlink:href="#DejaVuSans-32" x="63.623047"/>
       <use xlink:href="#DejaVuSans-35" x="127.246094"/>
       <use xlink:href="#DejaVuSans-b0" x="190.869141"/>
      </g>
     </g>
    </g>
    <g id="xtick_7">
     <g id="line2d_7">
      <path d="M 199.56375 207.477187 
L 199.56375 373.797188 
" clip-path="url(#p1838a11f2e)" style="fill: none; stroke: #b0b0b0; stroke-width: 0.8; stroke-linecap: square"/>
     </g>
     <g id="text_7">
      <!-- 270° -->
      <g transform="translate(187.52 390.556562)scale(0.1 -0.1)">
       <defs>
        <path id="DejaVuSans-37" d="M 525 4666 
L 3525 4666 
L 3525 4397 
L 1831 0 
L 1172 0 
L 2766 4134 
L 525 4134 
L 525 4666 
z
" transform="scale(0.015625)"/>
       </defs>
       <use xlink:href="#DejaVuSans-32"/>
       <use xlink:href="#DejaVuSans-37" x="63.623047"/>
       <use xlink:href="#DejaVuSans-30" x="127.246094"/>
       <use xlink:href="#DejaVuSans-b0" x="190.869141"/>
      </g>
     </g>
    </g>
    <g id="xtick_8">
     <g id="line2d_8">
      <path d="M 199.56375 207.477187 
L 317.16975 325.083187 
" clip-path="url(#p1838a11f2e)" style="fill: none; stroke: #b0b0b0; stroke-width: 0.8; stroke-linecap: square"/>
     </g>
     <g id="text_8">
      <!-- 315° -->
      <g transform="translate(315.025495 337.742057)scale(0.1 -0.1)">
       <use xlink:href="#DejaVuSans-33"/>
       <use xlink:href="#DejaVuSans-31" x="63.623047"/>
       <use xlink:href="#DejaVuSans-35" x="127.246094"/>
       <use xlink:href="#DejaVuSans-b0" x="190.869141"/>
      </g>
     </g>
    </g>
   </g>
   <g id="matplotlib.axis_2">
    <g id="ytick_1">
     <g id="line2d_9">
      <path d="M 265.367632 207.477187 
C 265.367632 198.835901 263.665487 190.27864 260.35861 182.295132 
C 257.051732 174.311624 252.204433 167.057129 246.094121 160.946816 
C 239.983809 154.836504 232.729313 149.989205 224.745805 146.682328 
C 216.762298 143.375451 208.205037 141.673306 199.56375 141.673306 
C 190.922463 141.673306 182.365202 143.375451 174.381695 146.682328 
C 166.398187 149.989205 159.143691 154.836504 153.033379 160.946816 
C 146.923067 167.057129 142.075768 174.311624 138.76889 182.295132 
C 135.462013 190.27864 133.759868 198.835901 133.759868 207.477187 
C 133.759868 216.118474 135.462013 224.675735 138.76889 232.659243 
C 142.075768 240.642751 146.923067 247.897246 153.033379 254.007559 
C 159.143691 260.117871 166.398187 264.96517 174.381695 268.272047 
C 182.365202 271.578924 190.922463 273.281069 199.56375 273.281069 
C 208.205037 273.281069 216.762298 271.578924 224.745805 268.272047 
C 232.729313 264.96517 239.983809 260.117871 246.094121 254.007559 
C 252.204433 247.897246 257.051732 240.642751 260.35861 232.659243 
C 263.665487 224.675735 265.367632 216.118474 265.367632 207.477188 
" clip-path="url(#p1838a11f2e)" style="fill: none; stroke: #b0b0b0; stroke-width: 0.8; stroke-linecap: square"/>
     </g>
     <g id="text_9">
      <!-- −30 -->
      <g transform="translate(260.35861 180.215445)scale(0.1 -0.1)">
       <defs>
        <path id="DejaVuSans-2212" d="M 678 2272 
L 4684 2272 
L 4684 1741 
L 678 1741 
L 678 2272 
z
" transform="scale(0.015625)"/>
       </defs>
       <use xlink:href="#DejaVuSans-2212"/>
       <use xlink:href="#DejaVuSans-33" x="83.789062"/>
       <use xlink:href="#DejaVuSans-30" x="147.412109"/>
      </g>
     </g>
    </g>
    <g id="ytick_2">
     <g id="line2d_10">
      <path d="M 275.419244 207.477187 
C 275.419244 197.515935 273.457094 187.651544 269.645088 178.448547 
C 265.833082 169.24555 260.245353 160.882922 253.201684 153.839254 
C 246.158015 146.795585 237.795388 141.207856 228.592391 137.395849 
C 219.389394 133.583843 209.525002 131.621694 199.56375 131.621694 
C 189.602498 131.621694 179.738106 133.583843 170.535109 137.395849 
C 161.332112 141.207856 152.969485 146.795585 145.925816 153.839254 
C 138.882147 160.882922 133.294418 169.24555 129.482412 178.448547 
C 125.670406 187.651544 123.708256 197.515935 123.708256 207.477187 
C 123.708256 217.43844 125.670406 227.302831 129.482412 236.505828 
C 133.294418 245.708825 138.882147 254.071453 145.925816 261.115121 
C 152.969485 268.15879 161.332112 273.746519 170.535109 277.558526 
C 179.738106 281.370532 189.602498 283.332681 199.56375 283.332681 
C 209.525002 283.332681 219.389394 281.370532 228.592391 277.558526 
C 237.795388 273.746519 246.158015 268.15879 253.201684 261.115121 
C 260.245353 254.071453 265.833082 245.708825 269.645088 236.505828 
C 273.457094 227.302831 275.419244 217.43844 275.419244 207.477188 
" clip-path="url(#p1838a11f2e)" style="fill: none; stroke: #b0b0b0; stroke-width: 0.8; stroke-linecap: square"/>
     </g>
     <g id="text_10">
      <!-- −27 -->
      <g transform="translate(269.645088 176.368859)scale(0.1 -0.1)">
       <use xlink:href="#DejaVuSans-2212"/>
       <use xlink:href="#DejaVuSans-32" x="83.789062"/>
       <use xlink:href="#DejaVuSans-37" x="147.412109"/>
      </g>
     </g>
    </g>
    <g id="ytick_3">
     <g id="line2d_11">
      <path d="M 285.470856 207.477187 
C 285.470856 196.19597 283.248702 185.024448 278.931566 174.601961 
C 274.614431 164.179475 268.286272 154.708716 260.309247 146.731691 
C 252.332221 138.754665 242.861462 132.426506 232.438976 128.109371 
C 222.01649 123.792236 210.844968 121.570082 199.56375 121.570082 
C 188.282532 121.570082 177.11101 123.792236 166.688524 128.109371 
C 156.266038 132.426506 146.795279 138.754665 138.818253 146.731691 
C 130.841228 154.708716 124.513069 164.179475 120.195934 174.601961 
C 115.878798 185.024448 113.656644 196.19597 113.656644 207.477187 
C 113.656644 218.758405 115.878798 229.929927 120.195934 240.352414 
C 124.513069 250.7749 130.841228 260.245659 138.818253 268.222684 
C 146.795279 276.19971 156.266038 282.527869 166.688524 286.845004 
C 177.11101 291.162139 188.282532 293.384293 199.56375 293.384293 
C 210.844968 293.384293 222.01649 291.162139 232.438976 286.845004 
C 242.861462 282.527869 252.332221 276.19971 260.309247 268.222684 
C 268.286272 260.245659 274.614431 250.7749 278.931566 240.352414 
C 283.248702 229.929927 285.470856 218.758405 285.470856 207.477188 
" clip-path="url(#p1838a11f2e)" style="fill: none; stroke: #b0b0b0; stroke-width: 0.8; stroke-linecap: square"/>
     </g>
     <g id="text_11">
      <!-- −24 -->
      <g transform="translate(278.931566 172.522274)scale(0.1 -0.1)">
       <use xlink:href="#DejaVuSans-2212"/>
       <use xlink:href="#DejaVuSans-32" x="83.789062"/>
       <use xlink:href="#DejaVuSans-34" x="147.412109"/>
      </g>
     </g>
    </g>
    <g id="ytick_4">
     <g id="line2d_12">
      <path d="M 295.522467 207.477187 
C 295.522467 194.876004 293.040309 182.397352 288.218045 170.755376 
C 283.395781 159.113401 276.327192 148.53451 267.41681 139.624128 
C 258.506428 130.713746 247.927537 123.645157 236.285561 118.822893 
C 224.643586 114.000629 212.164933 111.51847 199.56375 111.51847 
C 186.962567 111.51847 174.483914 114.000629 162.841939 118.822893 
C 151.199963 123.645157 140.621072 130.713746 131.71069 139.624128 
C 122.800308 148.53451 115.731719 159.113401 110.909455 170.755376 
C 106.087191 182.397352 103.605033 194.876004 103.605033 207.477187 
C 103.605033 220.078371 106.087191 232.557023 110.909455 244.198999 
C 115.731719 255.840974 122.800308 266.419865 131.71069 275.330247 
C 140.621072 284.240629 151.199963 291.309218 162.841939 296.131482 
C 174.483914 300.953746 186.962567 303.435905 199.56375 303.435905 
C 212.164933 303.435905 224.643586 300.953746 236.285561 296.131482 
C 247.927537 291.309218 258.506428 284.240629 267.41681 275.330247 
C 276.327192 266.419865 283.395781 255.840974 288.218045 244.198999 
C 293.040309 232.557023 295.522467 220.078371 295.522467 207.477188 
" clip-path="url(#p1838a11f2e)" style="fill: none; stroke: #b0b0b0; stroke-width: 0.8; stroke-linecap: square"/>
     </g>
     <g id="text_12">
      <!-- −21 -->
      <g transform="translate(288.218045 168.675689)scale(0.1 -0.1)">
       <use xlink:href="#DejaVuSans-2212"/>
       <use xlink:href="#DejaVuSans-32" x="83.789062"/>
       <use xlink:href="#DejaVuSans-31" x="147.412109"/>
      </g>
     </g>
    </g>
    <g id="ytick_5">
     <g id="line2d_13">
      <path d="M 305.574079 207.477187 
C 305.574079 193.556039 302.831916 179.770255 297.504523 166.908791 
C 292.17713 154.047326 284.368111 142.360304 274.524373 132.516565 
C 264.680634 122.672826 252.993611 114.863807 240.132147 109.536414 
C 227.270682 104.209021 213.484899 101.466858 199.56375 101.466858 
C 185.642601 101.466858 171.856818 104.209021 158.995353 109.536414 
C 146.133889 114.863807 134.446866 122.672826 124.603127 132.516565 
C 114.759389 142.360304 106.95037 154.047326 101.622977 166.908791 
C 96.295584 179.770255 93.553421 193.556039 93.553421 207.477187 
C 93.553421 221.398336 96.295584 235.18412 101.622977 248.045584 
C 106.95037 260.907049 114.759389 272.594071 124.603127 282.43781 
C 134.446866 292.281549 146.133889 300.090568 158.995353 305.417961 
C 171.856818 310.745354 185.642601 313.487517 199.56375 313.487517 
C 213.484899 313.487517 227.270682 310.745354 240.132147 305.417961 
C 252.993611 300.090568 264.680634 292.281549 274.524373 282.43781 
C 284.368111 272.594071 292.17713 260.907049 297.504523 248.045584 
C 302.831916 235.18412 305.574079 221.398336 305.574079 207.477188 
" clip-path="url(#p1838a11f2e)" style="fill: none; stroke: #b0b0b0; stroke-width: 0.8; stroke-linecap: square"/>
     </g>
     <g id="text_13">
      <!-- −18 -->
      <g transform="translate(297.504523 164.829103)scale(0.1 -0.1)">
       <use xlink:href="#DejaVuSans-2212"/>
       <use xlink:href="#DejaVuSans-31" x="83.789062"/>
       <use xlink:href="#DejaVuSans-38" x="147.412109"/>
      </g>
     </g>
    </g>
    <g id="ytick_6">
     <g id="line2d_14">
      <path d="M 315.625691 207.477187 
C 315.625691 192.236073 312.623524 177.143159 306.791002 163.062206 
C 300.95848 148.981252 292.409031 136.186097 281.631935 125.409002 
C 270.85484 114.631907 258.059686 106.082458 243.978732 100.249936 
C 229.897778 94.417414 214.804864 91.415247 199.56375 91.415247 
C 184.322636 91.415247 169.229722 94.417414 155.148768 100.249936 
C 141.067814 106.082458 128.27266 114.631907 117.495565 125.409002 
C 106.718469 136.186097 98.16902 148.981252 92.336498 163.062206 
C 86.503976 177.143159 83.501809 192.236073 83.501809 207.477187 
C 83.501809 222.718302 86.503976 237.811216 92.336498 251.892169 
C 98.16902 265.973123 106.718469 278.768278 117.495565 289.545373 
C 128.27266 300.322468 141.067814 308.871917 155.148768 314.704439 
C 169.229722 320.536961 184.322636 323.539128 199.56375 323.539128 
C 214.804864 323.539128 229.897778 320.536961 243.978732 314.704439 
C 258.059686 308.871917 270.85484 300.322468 281.631935 289.545373 
C 292.409031 278.768278 300.95848 265.973123 306.791002 251.892169 
C 312.623524 237.811216 315.625691 222.718302 315.625691 207.477188 
" clip-path="url(#p1838a11f2e)" style="fill: none; stroke: #b0b0b0; stroke-width: 0.8; stroke-linecap: square"/>
     </g>
     <g id="text_14">
      <!-- −15 -->
      <g transform="translate(306.791002 160.982518)scale(0.1 -0.1)">
       <use xlink:href="#DejaVuSans-2212"/>
       <use xlink:href="#DejaVuSans-31" x="83.789062"/>
       <use xlink:href="#DejaVuSans-35" x="147.412109"/>
      </g>
     </g>
    </g>
    <g id="ytick_7">
     <g id="line2d_15">
      <path d="M 325.677303 207.477187 
C 325.677303 190.916107 322.415131 174.516063 316.07748 159.21562 
C 309.739829 143.915177 300.44995 130.011891 288.739498 118.301439 
C 277.029046 106.590987 263.12576 97.301108 247.825317 90.963457 
C 232.524874 84.625806 216.12483 81.363635 199.56375 81.363635 
C 183.00267 81.363635 166.602626 84.625806 151.302183 90.963457 
C 136.00174 97.301108 122.098454 106.590987 110.388002 118.301439 
C 98.67755 130.011891 89.387671 143.915177 83.05002 159.21562 
C 76.712369 174.516063 73.450197 190.916107 73.450197 207.477187 
C 73.450197 224.038268 76.712369 240.438312 83.05002 255.738755 
C 89.387671 271.039198 98.67755 284.942484 110.388002 296.652936 
C 122.098454 308.363388 136.00174 317.653267 151.302183 323.990918 
C 166.602626 330.328569 183.00267 333.59074 199.56375 333.59074 
C 216.12483 333.59074 232.524874 330.328569 247.825317 323.990918 
C 263.12576 317.653267 277.029046 308.363388 288.739498 296.652936 
C 300.44995 284.942484 309.739829 271.039198 316.07748 255.738755 
C 322.415131 240.438312 325.677303 224.038268 325.677303 207.477188 
" clip-path="url(#p1838a11f2e)" style="fill: none; stroke: #b0b0b0; stroke-width: 0.8; stroke-linecap: square"/>
     </g>
     <g id="text_15">
      <!-- −12 -->
      <g transform="translate(316.07748 157.135933)scale(0.1 -0.1)">
       <use xlink:href="#DejaVuSans-2212"/>
       <use xlink:href="#DejaVuSans-31" x="83.789062"/>
       <use xlink:href="#DejaVuSans-32" x="147.412109"/>
      </g>
     </g>
    </g>
    <g id="ytick_8">
     <g id="line2d_16">
      <path d="M 335.728915 207.477187 
C 335.728915 189.596142 332.206738 171.888967 325.363959 155.369035 
C 318.521179 138.849103 308.49087 123.837685 295.847061 111.193876 
C 283.203253 98.550068 268.191835 88.519759 251.671903 81.676979 
C 235.151971 74.834199 217.444796 71.312023 199.56375 71.312023 
C 181.682704 71.312023 163.975529 74.834199 147.455597 81.676979 
C 130.935665 88.519759 115.924247 98.550068 103.280439 111.193876 
C 90.63663 123.837685 80.606321 138.849103 73.763541 155.369035 
C 66.920762 171.888967 63.398585 189.596142 63.398585 207.477187 
C 63.398585 225.358233 66.920762 243.065408 73.763541 259.58534 
C 80.606321 276.105272 90.63663 291.11669 103.280439 303.760499 
C 115.924247 316.404307 130.935665 326.434616 147.455597 333.277396 
C 163.975529 340.120176 181.682704 343.642352 199.56375 343.642352 
C 217.444796 343.642352 235.151971 340.120176 251.671903 333.277396 
C 268.191835 326.434616 283.203253 316.404307 295.847061 303.760499 
C 308.49087 291.11669 318.521179 276.105272 325.363959 259.58534 
C 332.206738 243.065408 335.728915 225.358233 335.728915 207.477188 
" clip-path="url(#p1838a11f2e)" style="fill: none; stroke: #b0b0b0; stroke-width: 0.8; stroke-linecap: square"/>
     </g>
     <g id="text_16">
      <!-- −9 -->
      <g transform="translate(325.363959 153.289347)scale(0.1 -0.1)">
       <use xlink:href="#DejaVuSans-2212"/>
       <use xlink:href="#DejaVuSans-39" x="83.789062"/>
      </g>
     </g>
    </g>
    <g id="ytick_9">
     <g id="line2d_17">
      <path d="M 345.780526 207.477187 
C 345.780526 188.276176 341.998346 169.261871 334.650437 151.52245 
C 327.302528 133.783028 316.531789 117.663479 302.954624 104.086313 
C 289.377459 90.509148 273.257909 79.738409 255.518488 72.3905 
C 237.779067 65.042592 218.764761 61.260411 199.56375 61.260411 
C 180.362739 61.260411 161.348433 65.042592 143.609012 72.3905 
C 125.869591 79.738409 109.750041 90.509148 96.172876 104.086313 
C 82.595711 117.663479 71.824972 133.783028 64.477063 151.52245 
C 57.129154 169.261871 53.346974 188.276176 53.346974 207.477187 
C 53.346974 226.678199 57.129154 245.692504 64.477063 263.431925 
C 71.824972 281.171347 82.595711 297.290896 96.172876 310.868062 
C 109.750041 324.445227 125.869591 335.215966 143.609012 342.563875 
C 161.348433 349.911783 180.362739 353.693964 199.56375 353.693964 
C 218.764761 353.693964 237.779067 349.911783 255.518488 342.563875 
C 273.257909 335.215966 289.377459 324.445227 302.954624 310.868062 
C 316.531789 297.290896 327.302528 281.171347 334.650437 263.431925 
C 341.998346 245.692504 345.780526 226.678199 345.780526 207.477188 
" clip-path="url(#p1838a11f2e)" style="fill: none; stroke: #b0b0b0; stroke-width: 0.8; stroke-linecap: square"/>
     </g>
     <g id="text_17">
      <!-- −6 -->
      <g transform="translate(334.650437 149.442762)scale(0.1 -0.1)">
       <defs>
        <path id="DejaVuSans-36" d="M 2113 2584 
Q 1688 2584 1439 2293 
Q 1191 2003 1191 1497 
Q 1191 994 1439 701 
Q 1688 409 2113 409 
Q 2538 409 2786 701 
Q 3034 994 3034 1497 
Q 3034 2003 2786 2293 
Q 2538 2584 2113 2584 
z
M 3366 4563 
L 3366 3988 
Q 3128 4100 2886 4159 
Q 2644 4219 2406 4219 
Q 1781 4219 1451 3797 
Q 1122 3375 1075 2522 
Q 1259 2794 1537 2939 
Q 1816 3084 2150 3084 
Q 2853 3084 3261 2657 
Q 3669 2231 3669 1497 
Q 3669 778 3244 343 
Q 2819 -91 2113 -91 
Q 1303 -91 875 529 
Q 447 1150 447 2328 
Q 447 3434 972 4092 
Q 1497 4750 2381 4750 
Q 2619 4750 2861 4703 
Q 3103 4656 3366 4563 
z
" transform="scale(0.015625)"/>
       </defs>
       <use xlink:href="#DejaVuSans-2212"/>
       <use xlink:href="#DejaVuSans-36" x="83.789062"/>
      </g>
     </g>
    </g>
    <g id="ytick_10">
     <g id="line2d_18">
      <path d="M 355.832138 207.477187 
C 355.832138 186.956211 351.789953 166.634775 343.936915 147.675864 
C 336.083878 128.716954 324.572709 111.489272 310.062187 96.978751 
C 295.551665 82.468229 278.323984 70.95706 259.365073 63.104022 
C 240.406163 55.250984 220.084727 51.208799 199.56375 51.208799 
C 179.042773 51.208799 158.721337 55.250984 139.762427 63.104022 
C 120.803516 70.95706 103.575835 82.468229 89.065313 96.978751 
C 74.554791 111.489272 63.043622 128.716954 55.190585 147.675864 
C 47.337547 166.634775 43.295362 186.956211 43.295362 207.477187 
C 43.295362 227.998164 47.337547 248.3196 55.190585 267.278511 
C 63.043622 286.237421 74.554791 303.465103 89.065313 317.975624 
C 103.575835 332.486146 120.803516 343.997315 139.762427 351.850353 
C 158.721337 359.703391 179.042773 363.745576 199.56375 363.745576 
C 220.084727 363.745576 240.406163 359.703391 259.365073 351.850353 
C 278.323984 343.997315 295.551665 332.486146 310.062187 317.975624 
C 324.572709 303.465103 336.083878 286.237421 343.936915 267.278511 
C 351.789953 248.3196 355.832138 227.998164 355.832138 207.477188 
" clip-path="url(#p1838a11f2e)" style="fill: none; stroke: #b0b0b0; stroke-width: 0.8; stroke-linecap: square"/>
     </g>
     <g id="text_18">
      <!-- −3 -->
      <g transform="translate(343.936915 145.596177)scale(0.1 -0.1)">
       <use xlink:href="#DejaVuSans-2212"/>
       <use xlink:href="#DejaVuSans-33" x="83.789062"/>
      </g>
     </g>
    </g>
   </g>
   <g id="line2d_19">
    <path d="M 297.576347 207.477187 
L 273.652276 206.183967 
L 243.843594 205.930901 
L 278.443745 203.343262 
L 299.897853 200.461144 
L 309.152658 197.8894 
L 316.639322 195.172049 
L 324.032252 192.194377 
L 328.119605 189.40984 
L 331.947789 186.509616 
L 335.656539 183.480357 
L 339.97987 177.63082 
L 342.010147 174.590845 
L 343.144045 171.678599 
L 344.510427 168.638842 
L 345.610924 165.598834 
L 346.225968 162.638048 
L 347.030288 159.562405 
L 347.460974 156.552089 
L 347.563492 153.609687 
L 347.783216 150.581065 
L 347.656144 147.643976 
L 347.314139 144.760868 
L 347.087798 141.79525 
L 346.526345 138.947404 
L 344.338833 130.498911 
L 342.402714 125.009073 
L 339.920645 119.772465 
L 338.565309 117.208519 
L 335.434597 112.339396 
L 331.999457 107.679724 
L 326.45123 101.00595 
L 322.366818 96.904808 
L 320.234579 94.949819 
L 313.477077 89.516484 
L 311.085691 87.884547 
L 306.457158 84.510388 
L 301.695718 81.354711 
L 299.198482 79.950546 
L 294.090444 77.372354 
L 288.705357 75.31932 
L 286.029465 74.331662 
L 280.368892 72.994848 
L 277.582351 72.345007 
L 268.789257 71.61448 
L 265.708444 71.860468 
L 259.881761 72.000717 
L 256.772436 72.701968 
L 253.869354 73.066102 
L 250.912522 73.709064 
L 247.903182 74.66569 
L 245.150335 75.084133 
L 239.640064 76.393473 
L 231.996858 77.395095 
L 224.788981 77.704622 
L 222.466187 77.591012 
L 220.172286 77.36001 
L 217.901554 76.996933 
L 215.644433 76.510536 
L 213.40253 75.809988 
L 208.858814 74.551581 
L 206.57663 73.663459 
L 192.317299 69.20666 
L 184.861311 67.592825 
L 177.366547 67.329562 
L 172.410991 67.788352 
L 169.968861 68.24418 
L 167.568289 68.889622 
L 165.218511 69.725957 
L 162.919377 70.718527 
L 160.688727 71.90387 
L 158.594039 73.471302 
L 154.370954 76.227779 
L 152.34735 77.751196 
L 146.104496 81.535076 
L 143.881938 82.41379 
L 141.509521 82.979493 
L 134.013187 84.194509 
L 131.621438 84.906012 
L 129.330123 85.828977 
L 127.140111 86.944011 
L 120.691326 90.54401 
L 116.229135 92.776931 
L 113.834735 93.710942 
L 109.250269 95.949326 
L 106.863167 97.000935 
L 102.584295 99.770592 
L 100.513671 101.258982 
L 98.535345 102.859212 
L 96.696466 104.609904 
L 95.039771 106.539554 
L 93.499922 108.571067 
L 90.777803 112.911006 
L 83.855134 123.409957 
L 81.019494 127.518077 
L 74.176416 137.973853 
L 72.893762 140.12556 
L 71.716709 142.335866 
L 70.64448 144.599058 
L 69.797523 146.966202 
L 68.498806 151.84342 
L 68.041769 154.338858 
L 67.050311 161.849151 
L 66.740516 171.887309 
L 66.510232 174.30322 
L 66.406894 179.173824 
L 66.600875 181.631823 
L 67.361231 184.166316 
L 68.453786 186.711409 
L 69.740446 189.231712 
L 71.673244 191.774208 
L 73.891147 194.268465 
L 76.346656 196.697089 
L 79.339171 199.070266 
L 83.128863 201.375094 
L 87.523736 203.564664 
L 92.601409 205.610153 
L 106.909374 209.094476 
L 120.007498 210.255353 
L 137.768152 210.715758 
L 159.796834 210.257961 
L 134.437509 213.174995 
L 118.735661 215.972562 
L 106.156005 218.946216 
L 99.850661 221.490948 
L 94.193417 224.166209 
L 88.944144 226.982409 
L 82.616519 232.335089 
L 79.770851 235.133557 
L 76.43021 240.47072 
L 75.185736 243.142009 
L 74.446134 245.729482 
L 73.549069 248.421839 
L 73.07267 251.031559 
L 72.586505 256.219185 
L 72.995549 261.202201 
L 73.380075 263.657779 
L 74.033605 266.012855 
L 75.615577 270.631936 
L 78.452345 277.40089 
L 81.760808 283.979313 
L 84.255442 288.216934 
L 87.01502 292.288739 
L 91.507858 298.146847 
L 93.056146 300.062835 
L 101.270132 309.263208 
L 102.794162 311.249866 
L 107.806481 316.829243 
L 109.657221 318.502504 
L 121.351756 327.913097 
L 123.444258 329.293838 
L 127.824056 331.733982 
L 132.290772 333.999258 
L 138.984797 337.389172 
L 143.552944 339.430377 
L 145.881948 340.344311 
L 148.264208 341.117064 
L 153.126319 342.341279 
L 155.623764 342.710559 
L 158.217872 342.713461 
L 160.745062 342.85404 
L 165.841027 342.73164 
L 173.157708 343.324496 
L 177.978742 343.759566 
L 182.773393 344.223668 
L 185.130285 344.802434 
L 192.298711 346.102385 
L 194.719629 346.19467 
L 197.145472 346.020233 
L 201.966766 345.145876 
L 204.343325 344.346301 
L 206.678511 343.23491 
L 208.993671 342.331345 
L 213.493939 340.014087 
L 215.722015 339.075696 
L 220.069031 336.942436 
L 224.429688 335.401347 
L 226.687743 335.085541 
L 228.995853 334.961633 
L 236.295253 335.57516 
L 238.873035 336.052065 
L 243.991875 336.505832 
L 246.749209 337.118171 
L 252.178689 337.703732 
L 255.056129 338.209039 
L 257.814414 338.310322 
L 260.673703 338.527904 
L 263.515557 338.597823 
L 269.103395 338.262239 
L 271.861005 337.904889 
L 282.967395 335.907538 
L 285.906204 335.48514 
L 291.508566 334.028369 
L 294.485549 333.44267 
L 297.216134 332.466539 
L 303.024137 330.776476 
L 308.277555 328.2161 
L 310.84576 326.812533 
L 315.373906 323.287343 
L 317.519633 321.38586 
L 321.435583 317.211079 
L 325.255166 312.944808 
L 333.146336 304.530617 
L 336.857624 300.083075 
L 338.702999 297.835272 
L 340.440624 295.506829 
L 342.078992 293.108984 
L 343.601095 290.637188 
L 345.007056 288.097729 
L 347.364874 282.785622 
L 348.451899 280.09479 
L 349.402022 277.347921 
L 351.024415 271.768425 
L 351.812074 265.919844 
L 352.10989 262.999442 
L 351.974186 254.073734 
L 351.456573 251.031754 
L 351.164405 248.098461 
L 350.751413 245.172505 
L 349.698429 242.138509 
L 348.982668 239.237159 
L 347.856553 236.302388 
L 345.967899 233.292189 
L 344.648831 230.456407 
L 342.429837 227.555707 
L 339.462864 224.654639 
L 336.928982 221.914855 
L 332.887665 219.141519 
L 323.945258 213.995746 
L 316.686781 211.567214 
L 308.120704 209.372056 
L 308.120704 209.372056 
" clip-path="url(#p1838a11f2e)" style="fill: none; stroke: #ff0000; stroke-width: 1.5; stroke-linecap: square"/>
   </g>
   <g id="line2d_20">
    <path d="M 223.63334 207.477187 
L 270.831554 206.233203 
L 293.568763 204.19446 
L 306.04445 201.89677 
L 314.634386 199.430665 
L 321.095262 196.844558 
L 326.216015 194.165498 
L 330.397379 191.412838 
L 333.879532 188.600335 
L 336.805822 185.740179 
L 339.282838 182.840943 
L 341.383844 179.910154 
L 343.158215 176.955242 
L 344.648648 173.9817 
L 345.885623 170.995047 
L 346.895633 167.999729 
L 347.694745 165.001308 
L 348.302247 162.003265 
L 348.728719 159.010551 
L 348.991115 156.025219 
L 349.093651 153.052755 
L 349.050054 150.094772 
L 348.864597 147.15573 
L 348.541645 144.239823 
L 348.091763 141.348256 
L 347.516282 138.485789 
L 346.822708 135.654195 
L 346.01251 132.857817 
L 345.090253 130.099373 
L 344.063453 127.379694 
L 342.930814 124.704175 
L 340.363906 119.495485 
L 337.415946 114.494707 
L 334.108614 109.724622 
L 330.456722 105.21239 
L 326.484596 100.977952 
L 322.207463 97.048293 
L 319.960131 95.205746 
L 315.260185 91.780753 
L 312.813746 90.203384 
L 310.304201 88.722593 
L 307.735004 87.340839 
L 305.11189 86.057942 
L 302.431874 84.883731 
L 299.703127 83.815355 
L 296.92528 82.860112 
L 294.104449 82.017443 
L 291.240728 81.294653 
L 288.340419 80.690965 
L 285.407827 80.208109 
L 282.443668 79.853306 
L 279.457097 79.621105 
L 276.450966 79.515371 
L 273.431202 79.535007 
L 270.404593 79.676924 
L 264.359779 80.307821 
L 258.384034 81.336682 
L 252.559562 82.626878 
L 244.307187 84.545605 
L 241.724043 85.034806 
L 239.233858 85.38515 
L 236.833503 85.573319 
L 234.515604 85.585587 
L 232.268511 85.421358 
L 230.077433 85.093491 
L 227.924836 84.631828 
L 223.678495 83.417578 
L 212.957743 80.04186 
L 208.554976 78.896669 
L 201.833151 77.463311 
L 192.665551 75.851708 
L 180.80021 73.967663 
L 173.43517 73.057295 
L 168.442589 72.676632 
L 163.413672 72.563259 
L 158.380486 72.7728 
L 153.379391 73.348071 
L 148.447919 74.315895 
L 143.623639 75.690544 
L 138.940901 77.471068 
L 134.433077 79.651044 
L 130.127015 82.210002 
L 126.042595 85.117438 
L 122.193004 88.336687 
L 118.579936 91.820315 
L 115.191775 95.511795 
L 111.993507 99.336944 
L 99.917592 114.555642 
L 96.758137 118.109631 
L 90.167181 125.04096 
L 85.222187 130.352829 
L 82.08026 134.065355 
L 79.160347 137.962251 
L 76.541406 142.065047 
L 74.291337 146.377749 
L 73.323036 148.610176 
L 72.470997 150.891848 
L 71.74337 153.220655 
L 71.145226 155.592736 
L 70.684684 158.005149 
L 70.36985 160.454454 
L 70.21197 162.937798 
L 70.219124 165.450571 
L 70.399312 167.987656 
L 70.770097 170.546202 
L 71.339399 173.119576 
L 72.131232 175.704692 
L 73.159908 178.294561 
L 74.452715 180.884016 
L 76.040244 183.46665 
L 77.959659 186.035105 
L 80.26463 188.582063 
L 83.025438 191.098796 
L 86.348953 193.576158 
L 90.355461 195.998934 
L 95.278586 198.353418 
L 101.519175 200.621243 
L 109.745859 202.770031 
L 121.598034 204.754565 
L 142.198558 206.475874 
L 191.64375 207.477187 
L 138.982532 208.534637 
L 119.990756 210.255938 
L 108.708616 212.238703 
L 100.750428 214.386888 
L 94.677784 216.65352 
L 89.888956 219.004473 
L 85.983141 221.423133 
L 82.726824 223.897547 
L 80.026361 226.41005 
L 77.774879 228.951851 
L 75.898818 231.515215 
L 74.351118 234.091954 
L 73.094615 236.674888 
L 72.098722 239.257788 
L 71.339399 241.834799 
L 70.799083 244.399861 
L 70.456986 246.949086 
L 70.301974 249.476884 
L 70.319682 251.979489 
L 70.505235 254.450645 
L 70.844212 256.887989 
L 71.328513 259.287586 
L 71.95001 261.646006 
L 72.703623 263.958955 
L 73.581149 266.223839 
L 74.571401 268.440029 
L 76.869783 272.714727 
L 79.537562 276.77434 
L 82.506472 280.622693 
L 85.694399 284.283034 
L 90.699677 289.512151 
L 97.329619 296.347962 
L 100.483641 299.870884 
L 103.507881 303.533057 
L 107.913404 309.265209 
L 112.3857 315.133114 
L 115.528514 318.995712 
L 118.866283 322.725114 
L 122.433882 326.246769 
L 126.242771 329.503788 
L 130.292701 332.445468 
L 134.568456 335.037635 
L 139.051349 337.246451 
L 143.710043 339.060274 
L 148.515159 340.463312 
L 153.43066 341.457408 
L 158.417711 342.059818 
L 163.439687 342.294025 
L 168.459925 342.202656 
L 173.44476 341.847745 
L 180.802541 340.970122 
L 192.662921 339.152857 
L 201.835314 337.615015 
L 208.568765 336.254906 
L 212.983309 335.155765 
L 217.330797 333.896296 
L 227.991162 330.609837 
L 230.140657 330.114463 
L 232.324878 329.743381 
L 234.559934 329.523384 
L 236.860932 329.470772 
L 239.241105 329.591531 
L 241.708772 329.875218 
L 246.914107 330.829085 
L 258.241018 333.310994 
L 264.192456 334.318165 
L 270.223638 334.950999 
L 273.245918 335.098446 
L 276.26287 335.125959 
L 279.26765 335.03009 
L 282.253885 334.808829 
L 285.218594 334.465716 
L 288.154005 333.997184 
L 291.055604 333.404922 
L 293.922973 332.696105 
L 296.747879 331.867201 
L 299.530225 330.925504 
L 302.263887 329.870445 
L 304.949227 328.709311 
L 307.58031 327.441731 
L 310.155672 326.072504 
L 312.67177 324.603971 
L 317.517223 321.383533 
L 322.097905 317.807437 
L 326.394763 313.901044 
L 330.388075 309.688352 
L 334.062533 305.196273 
L 337.396502 300.446553 
L 340.375272 295.465992 
L 342.971437 290.273654 
L 344.122061 287.607168 
L 345.170129 284.897472 
L 346.108042 282.145234 
L 346.940154 279.357463 
L 347.655967 276.533722 
L 348.253989 273.678347 
L 348.72978 270.794411 
L 349.075844 267.883994 
L 349.29091 264.952059 
L 349.367568 262.001318 
L 349.295243 259.033875 
L 349.072866 256.055644 
L 348.683539 253.067682 
L 348.119883 250.074973 
L 347.368143 247.081255 
L 346.412937 244.090802 
L 345.236614 241.108418 
L 343.815973 238.138944 
L 342.121561 235.187619 
L 340.117646 232.260632 
L 337.752278 229.3641 
L 334.964495 226.506521 
L 331.664419 223.69711 
L 327.715497 220.946479 
L 322.914356 218.268967 
L 316.930598 215.684277 
L 309.156179 213.220683 
L 298.223173 210.92245 
L 280.245129 208.885486 
L 280.245129 208.885486 
" clip-path="url(#p1838a11f2e)" style="fill: none; stroke-dasharray: 5.55,2.4; stroke-dashoffset: 0; stroke: #0000ff; stroke-width: 1.5"/>
   </g>
   <g id="patch_3">
    <path d="M 365.88375 207.477187 
C 365.88375 185.636245 361.581561 164.007679 353.223394 143.829279 
C 344.865227 123.650879 332.613628 105.315066 317.16975 89.871188 
C 301.725871 74.427309 283.390058 62.17571 263.211658 53.817544 
C 243.033259 45.459377 221.404692 41.157187 199.56375 41.157187 
C 177.722808 41.157187 156.094241 45.459377 135.915842 53.817544 
C 115.737442 62.17571 97.401629 74.427309 81.95775 89.871188 
C 66.513872 105.315066 54.262273 123.650879 45.904106 143.829279 
C 37.545939 164.007679 33.24375 185.636245 33.24375 207.477187 
C 33.24375 229.31813 37.545939 250.946696 45.904106 271.125096 
C 54.262273 291.303496 66.513872 309.639309 81.95775 325.083187 
C 97.401629 340.527066 115.737442 352.778665 135.915842 361.136831 
C 156.094241 369.494998 177.722808 373.797188 199.56375 373.797188 
C 221.404692 373.797188 243.033259 369.494998 263.211658 361.136831 
C 283.390058 352.778665 301.725871 340.527066 317.16975 325.083187 
C 332.613628 309.639309 344.865227 291.303496 353.223394 271.125096 
C 361.581561 250.946696 365.88375 229.31813 365.88375 207.477188 
" style="fill: none; stroke: #000000; stroke-width: 0.8; stroke-linejoin: miter; stroke-linecap: square"/>
   </g>
   <g id="text_19">
    <!-- Radiation Diagram - 4AVHF08 -->
    <g transform="translate(110.319375 16.318125)scale(0.12 -0.12)">
     <defs>
      <path id="DejaVuSans-52" d="M 2841 2188 
Q 3044 2119 3236 1894 
Q 3428 1669 3622 1275 
L 4263 0 
L 3584 0 
L 2988 1197 
Q 2756 1666 2539 1819 
Q 2322 1972 1947 1972 
L 1259 1972 
L 1259 0 
L 628 0 
L 628 4666 
L 2053 4666 
Q 2853 4666 3247 4331 
Q 3641 3997 3641 3322 
Q 3641 2881 3436 2590 
Q 3231 2300 2841 2188 
z
M 1259 4147 
L 1259 2491 
L 2053 2491 
Q 2509 2491 2742 2702 
Q 2975 2913 2975 3322 
Q 2975 3731 2742 3939 
Q 2509 4147 2053 4147 
L 1259 4147 
z
" transform="scale(0.015625)"/>
      <path id="DejaVuSans-61" d="M 2194 1759 
Q 1497 1759 1228 1600 
Q 959 1441 959 1056 
Q 959 750 1161 570 
Q 1363 391 1709 391 
Q 2188 391 2477 730 
Q 2766 1069 2766 1631 
L 2766 1759 
L 2194 1759 
z
M 3341 1997 
L 3341 0 
L 2766 0 
L 2766 531 
Q 2569 213 2275 61 
Q 1981 -91 1556 -91 
Q 1019 -91 701 211 
Q 384 513 384 1019 
Q 384 1609 779 1909 
Q 1175 2209 1959 2209 
L 2766 2209 
L 2766 2266 
Q 2766 2663 2505 2880 
Q 2244 3097 1772 3097 
Q 1472 3097 1187 3025 
Q 903 2953 641 2809 
L 641 3341 
Q 956 3463 1253 3523 
Q 1550 3584 1831 3584 
Q 2591 3584 2966 3190 
Q 3341 2797 3341 1997 
z
" transform="scale(0.015625)"/>
      <path id="DejaVuSans-64" d="M 2906 2969 
L 2906 4863 
L 3481 4863 
L 3481 0 
L 2906 0 
L 2906 525 
Q 2725 213 2448 61 
Q 2172 -91 1784 -91 
Q 1150 -91 751 415 
Q 353 922 353 1747 
Q 353 2572 751 3078 
Q 1150 3584 1784 3584 
Q 2172 3584 2448 3432 
Q 2725 3281 2906 2969 
z
M 947 1747 
Q 947 1113 1208 752 
Q 1469 391 1925 391 
Q 2381 391 2643 752 
Q 2906 1113 2906 1747 
Q 2906 2381 2643 2742 
Q 2381 3103 1925 3103 
Q 1469 3103 1208 2742 
Q 947 2381 947 1747 
z
" transform="scale(0.015625)"/>
      <path id="DejaVuSans-69" d="M 603 3500 
L 1178 3500 
L 1178 0 
L 603 0 
L 603 3500 
z
M 603 4863 
L 1178 4863 
L 1178 4134 
L 603 4134 
L 603 4863 
z
" transform="scale(0.015625)"/>
      <path id="DejaVuSans-74" d="M 1172 4494 
L 1172 3500 
L 2356 3500 
L 2356 3053 
L 1172 3053 
L 1172 1153 
Q 1172 725 1289 603 
Q 1406 481 1766 481 
L 2356 481 
L 2356 0 
L 1766 0 
Q 1100 0 847 248 
Q 594 497 594 1153 
L 594 3053 
L 172 3053 
L 172 3500 
L 594 3500 
L 594 4494 
L 1172 4494 
z
" transform="scale(0.015625)"/>
      <path id="DejaVuSans-6f" d="M 1959 3097 
Q 1497 3097 1228 2736 
Q 959 2375 959 1747 
Q 959 1119 1226 758 
Q 1494 397 1959 397 
Q 2419 397 2687 759 
Q 2956 1122 2956 1747 
Q 2956 2369 2687 2733 
Q 2419 3097 1959 3097 
z
M 1959 3584 
Q 2709 3584 3137 3096 
Q 3566 2609 3566 1747 
Q 3566 888 3137 398 
Q 2709 -91 1959 -91 
Q 1206 -91 779 398 
Q 353 888 353 1747 
Q 353 2609 779 3096 
Q 1206 3584 1959 3584 
z
" transform="scale(0.015625)"/>
      <path id="DejaVuSans-6e" d="M 3513 2113 
L 3513 0 
L 2938 0 
L 2938 2094 
Q 2938 2591 2744 2837 
Q 2550 3084 2163 3084 
Q 1697 3084 1428 2787 
Q 1159 2491 1159 1978 
L 1159 0 
L 581 0 
L 581 3500 
L 1159 3500 
L 1159 2956 
Q 1366 3272 1645 3428 
Q 1925 3584 2291 3584 
Q 2894 3584 3203 3211 
Q 3513 2838 3513 2113 
z
" transform="scale(0.015625)"/>
      <path id="DejaVuSans-20" transform="scale(0.015625)"/>
      <path id="DejaVuSans-44" d="M 1259 4147 
L 1259 519 
L 2022 519 
Q 2988 519 3436 956 
Q 3884 1394 3884 2338 
Q 3884 3275 3436 3711 
Q 2988 4147 2022 4147 
L 1259 4147 
z
M 628 4666 
L 1925 4666 
Q 3281 4666 3915 4102 
Q 4550 3538 4550 2338 
Q 4550 1131 3912 565 
Q 3275 0 1925 0 
L 628 0 
L 628 4666 
z
" transform="scale(0.015625)"/>
      <path id="DejaVuSans-67" d="M 2906 1791 
Q 2906 2416 2648 2759 
Q 2391 3103 1925 3103 
Q 1463 3103 1205 2759 
Q 947 2416 947 1791 
Q 947 1169 1205 825 
Q 1463 481 1925 481 
Q 2391 481 2648 825 
Q 2906 1169 2906 1791 
z
M 3481 434 
Q 3481 -459 3084 -895 
Q 2688 -1331 1869 -1331 
Q 1566 -1331 1297 -1286 
Q 1028 -1241 775 -1147 
L 775 -588 
Q 1028 -725 1275 -790 
Q 1522 -856 1778 -856 
Q 2344 -856 2625 -561 
Q 2906 -266 2906 331 
L 2906 616 
Q 2728 306 2450 153 
Q 2172 0 1784 0 
Q 1141 0 747 490 
Q 353 981 353 1791 
Q 353 2603 747 3093 
Q 1141 3584 1784 3584 
Q 2172 3584 2450 3431 
Q 2728 3278 2906 2969 
L 2906 3500 
L 3481 3500 
L 3481 434 
z
" transform="scale(0.015625)"/>
      <path id="DejaVuSans-72" d="M 2631 2963 
Q 2534 3019 2420 3045 
Q 2306 3072 2169 3072 
Q 1681 3072 1420 2755 
Q 1159 2438 1159 1844 
L 1159 0 
L 581 0 
L 581 3500 
L 1159 3500 
L 1159 2956 
Q 1341 3275 1631 3429 
Q 1922 3584 2338 3584 
Q 2397 3584 2469 3576 
Q 2541 3569 2628 3553 
L 2631 2963 
z
" transform="scale(0.015625)"/>
      <path id="DejaVuSans-6d" d="M 3328 2828 
Q 3544 3216 3844 3400 
Q 4144 3584 4550 3584 
Q 5097 3584 5394 3201 
Q 5691 2819 5691 2113 
L 5691 0 
L 5113 0 
L 5113 2094 
Q 5113 2597 4934 2840 
Q 4756 3084 4391 3084 
Q 3944 3084 3684 2787 
Q 3425 2491 3425 1978 
L 3425 0 
L 2847 0 
L 2847 2094 
Q 2847 2600 2669 2842 
Q 2491 3084 2119 3084 
Q 1678 3084 1418 2786 
Q 1159 2488 1159 1978 
L 1159 0 
L 581 0 
L 581 3500 
L 1159 3500 
L 1159 2956 
Q 1356 3278 1631 3431 
Q 1906 3584 2284 3584 
Q 2666 3584 2933 3390 
Q 3200 3197 3328 2828 
z
" transform="scale(0.015625)"/>
      <path id="DejaVuSans-2d" d="M 313 2009 
L 1997 2009 
L 1997 1497 
L 313 1497 
L 313 2009 
z
" transform="scale(0.015625)"/>
      <path id="DejaVuSans-41" d="M 2188 4044 
L 1331 1722 
L 3047 1722 
L 2188 4044 
z
M 1831 4666 
L 2547 4666 
L 4325 0 
L 3669 0 
L 3244 1197 
L 1141 1197 
L 716 0 
L 50 0 
L 1831 4666 
z
" transform="scale(0.015625)"/>
      <path id="DejaVuSans-56" d="M 1831 0 
L 50 4666 
L 709 4666 
L 2188 738 
L 3669 4666 
L 4325 4666 
L 2547 0 
L 1831 0 
z
" transform="scale(0.015625)"/>
      <path id="DejaVuSans-48" d="M 628 4666 
L 1259 4666 
L 1259 2753 
L 3553 2753 
L 3553 4666 
L 4184 4666 
L 4184 0 
L 3553 0 
L 3553 2222 
L 1259 2222 
L 1259 0 
L 628 0 
L 628 4666 
z
" transform="scale(0.015625)"/>
      <path id="DejaVuSans-46" d="M 628 4666 
L 3309 4666 
L 3309 4134 
L 1259 4134 
L 1259 2759 
L 3109 2759 
L 3109 2228 
L 1259 2228 
L 1259 0 
L 628 0 
L 628 4666 
z
" transform="scale(0.015625)"/>
     </defs>
     <use xlink:href="#DejaVuSans-52"/>
     <use xlink:href="#DejaVuSans-61" x="67.232422"/>
     <use xlink:href="#DejaVuSans-64" x="128.511719"/>
     <use xlink:href="#DejaVuSans-69" x="191.988281"/>
     <use xlink:href="#DejaVuSans-61" x="219.771484"/>
     <use xlink:href="#DejaVuSans-74" x="281.050781"/>
     <use xlink:href="#DejaVuSans-69" x="320.259766"/>
     <use xlink:href="#DejaVuSans-6f" x="348.042969"/>
     <use xlink:href="#DejaVuSans-6e" x="409.224609"/>
     <use xlink:href="#DejaVuSans-20" x="472.603516"/>
     <use xlink:href="#DejaVuSans-44" x="504.390625"/>
     <use xlink:href="#DejaVuSans-69" x="581.392578"/>
     <use xlink:href="#DejaVuSans-61" x="609.175781"/>
     <use xlink:href="#DejaVuSans-67" x="670.455078"/>
     <use xlink:href="#DejaVuSans-72" x="733.931641"/>
     <use xlink:href="#DejaVuSans-61" x="775.044922"/>
     <use xlink:href="#DejaVuSans-6d" x="836.324219"/>
     <use xlink:href="#DejaVuSans-20" x="933.736328"/>
     <use xlink:href="#DejaVuSans-2d" x="965.523438"/>
     <use xlink:href="#DejaVuSans-20" x="1001.607422"/>
     <use xlink:href="#DejaVuSans-34" x="1033.394531"/>
     <use xlink:href="#DejaVuSans-41" x="1097.017578"/>
     <use xlink:href="#DejaVuSans-56" x="1159.050781"/>
     <use xlink:href="#DejaVuSans-48" x="1227.458984"/>
     <use xlink:href="#DejaVuSans-46" x="1302.654297"/>
     <use xlink:href="#DejaVuSans-30" x="1360.173828"/>
     <use xlink:href="#DejaVuSans-38" x="1423.796875"/>
    </g>
   </g>
   <g id="legend_1">
    <g id="patch_4">
     <path d="M 304.104062 78.513437 
L 358.88375 78.513437 
Q 360.88375 78.513437 360.88375 76.513437 
L 360.88375 48.157187 
Q 360.88375 46.157187 358.88375 46.157187 
L 304.104062 46.157187 
Q 302.104062 46.157187 302.104062 48.157187 
L 302.104062 76.513437 
Q 302.104062 78.513437 304.104062 78.513437 
z
" style="fill: #ffffff; opacity: 0.8; stroke: #cccccc; stroke-linejoin: miter"/>
    </g>
    <g id="line2d_21">
     <path d="M 306.104062 54.255625 
L 316.104062 54.255625 
L 326.104062 54.255625 
" style="fill: none; stroke: #ff0000; stroke-width: 1.5; stroke-linecap: square"/>
    </g>
    <g id="text_20">
     <!-- INPE -->
     <g transform="translate(334.104062 57.755625)scale(0.1 -0.1)">
      <defs>
       <path id="DejaVuSans-49" d="M 628 4666 
L 1259 4666 
L 1259 0 
L 628 0 
L 628 4666 
z
" transform="scale(0.015625)"/>
       <path id="DejaVuSans-4e" d="M 628 4666 
L 1478 4666 
L 3547 763 
L 3547 4666 
L 4159 4666 
L 4159 0 
L 3309 0 
L 1241 3903 
L 1241 0 
L 628 0 
L 628 4666 
z
" transform="scale(0.015625)"/>
       <path id="DejaVuSans-50" d="M 1259 4147 
L 1259 2394 
L 2053 2394 
Q 2494 2394 2734 2622 
Q 2975 2850 2975 3272 
Q 2975 3691 2734 3919 
Q 2494 4147 2053 4147 
L 1259 4147 
z
M 628 4666 
L 2053 4666 
Q 2838 4666 3239 4311 
Q 3641 3956 3641 3272 
Q 3641 2581 3239 2228 
Q 2838 1875 2053 1875 
L 1259 1875 
L 1259 0 
L 628 0 
L 628 4666 
z
" transform="scale(0.015625)"/>
       <path id="DejaVuSans-45" d="M 628 4666 
L 3578 4666 
L 3578 4134 
L 1259 4134 
L 1259 2753 
L 3481 2753 
L 3481 2222 
L 1259 2222 
L 1259 531 
L 3634 531 
L 3634 0 
L 628 0 
L 628 4666 
z
" transform="scale(0.015625)"/>
      </defs>
      <use xlink:href="#DejaVuSans-49"/>
      <use xlink:href="#DejaVuSans-4e" x="29.492188"/>
      <use xlink:href="#DejaVuSans-50" x="104.296875"/>
      <use xlink:href="#DejaVuSans-45" x="164.599609"/>
     </g>
    </g>
    <g id="line2d_22">
     <path d="M 306.104062 68.93375 
L 316.104062 68.93375 
L 326.104062 68.93375 
" style="fill: none; stroke-dasharray: 5.55,2.4; stroke-dashoffset: 0; stroke: #0000ff; stroke-width: 1.5"/>
    </g>
    <g id="text_21">
     <!-- CST -->
     <g transform="translate(334.104062 72.43375)scale(0.1 -0.1)">
      <defs>
       <path id="DejaVuSans-43" d="M 4122 4306 
L 4122 3641 
Q 3803 3938 3442 4084 
Q 3081 4231 2675 4231 
Q 1875 4231 1450 3742 
Q 1025 3253 1025 2328 
Q 1025 1406 1450 917 
Q 1875 428 2675 428 
Q 3081 428 3442 575 
Q 3803 722 4122 1019 
L 4122 359 
Q 3791 134 3420 21 
Q 3050 -91 2638 -91 
Q 1578 -91 968 557 
Q 359 1206 359 2328 
Q 359 3453 968 4101 
Q 1578 4750 2638 4750 
Q 3056 4750 3426 4639 
Q 3797 4528 4122 4306 
z
" transform="scale(0.015625)"/>
       <path id="DejaVuSans-53" d="M 3425 4513 
L 3425 3897 
Q 3066 4069 2747 4153 
Q 2428 4238 2131 4238 
Q 1616 4238 1336 4038 
Q 1056 3838 1056 3469 
Q 1056 3159 1242 3001 
Q 1428 2844 1947 2747 
L 2328 2669 
Q 3034 2534 3370 2195 
Q 3706 1856 3706 1288 
Q 3706 609 3251 259 
Q 2797 -91 1919 -91 
Q 1588 -91 1214 -16 
Q 841 59 441 206 
L 441 856 
Q 825 641 1194 531 
Q 1563 422 1919 422 
Q 2459 422 2753 634 
Q 3047 847 3047 1241 
Q 3047 1584 2836 1778 
Q 2625 1972 2144 2069 
L 1759 2144 
Q 1053 2284 737 2584 
Q 422 2884 422 3419 
Q 422 4038 858 4394 
Q 1294 4750 2059 4750 
Q 2388 4750 2728 4690 
Q 3069 4631 3425 4513 
z
" transform="scale(0.015625)"/>
       <path id="DejaVuSans-54" d="M -19 4666 
L 3928 4666 
L 3928 4134 
L 2272 4134 
L 2272 0 
L 1638 0 
L 1638 4134 
L -19 4134 
L -19 4666 
z
" transform="scale(0.015625)"/>
      </defs>
      <use xlink:href="#DejaVuSans-43"/>
      <use xlink:href="#DejaVuSans-53" x="69.824219"/>
      <use xlink:href="#DejaVuSans-54" x="133.300781"/>
     </g>
    </g>
   </g>
  </g>
 </g>
 <defs>
  <clipPath id="p1838a11f2e">
   <path d="M 365.88375 207.477187 
C 365.88375 185.636245 361.581561 164.007679 353.223394 143.829279 
C 344.865227 123.650879 332.613628 105.315066 317.16975 89.871188 
C 301.725871 74.427309 283.390058 62.17571 263.211658 53.817544 
C 243.033259 45.459377 221.404692 41.157187 199.56375 41.157187 
C 177.722808 41.157187 156.094241 45.459377 135.915842 53.817544 
C 115.737442 62.17571 97.401629 74.427309 81.95775 89.871188 
C 66.513872 105.315066 54.262273 123.650879 45.904106 143.829279 
C 37.545939 164.007679 33.24375 185.636245 33.24375 207.477187 
C 33.24375 229.31813 37.545939 250.946696 45.904106 271.125096 
C 54.262273 291.303496 66.513872 309.639309 81.95775 325.083187 
C 97.401629 340.527066 115.737442 352.778665 135.915842 361.136831 
C 156.094241 369.494998 177.722808 373.797188 199.56375 373.797188 
C 221.404692 373.797188 243.033259 369.494998 263.211658 361.136831 
C 283.390058 352.778665 301.725871 340.527066 317.16975 325.083187 
C 332.613628 309.639309 344.865227 291.303496 353.223394 271.125096 
C 361.581561 250.946696 365.88375 229.31813 365.88375 207.477188 
M 199.56375 207.477187 
C 199.56375 207.477187 199.56375 207.477187 199.56375 207.477187 
C 199.56375 207.477187 199.56375 207.477187 199.56375 207.477187 
C 199.56375 207.477187 199.56375 207.477187 199.56375 207.477187 
C 199.56375 207.477187 199.56375 207.477187 199.56375 207.477187 
C 199.56375 207.477187 199.56375 207.477187 199.56375 207.477187 
C 199.56375 207.477187 199.56375 207.477187 199.56375 207.477187 
C 199.56375 207.477187 199.56375 207.477187 199.56375 207.477187 
C 199.56375 207.477187 199.56375 207.477187 199.56375 207.477187 
C 199.56375 207.477187 199.56375 207.477187 199.56375 207.477187 
C 199.56375 207.477187 199.56375 207.477187 199.56375 207.477187 
C 199.56375 207.477187 199.56375 207.477187 199.56375 207.477187 
C 199.56375 207.477187 199.56375 207.477187 199.56375 207.477187 
C 199.56375 207.477187 199.56375 207.477187 199.56375 207.477187 
C 199.56375 207.477187 199.56375 207.477187 199.56375 207.477187 
C 199.56375 207.477187 199.56375 207.477187 199.56375 207.477187 
C 199.56375 207.477187 199.56375 207.477187 199.56375 207.477187 
M 365.88375 207.477187 
z
"/>
  </clipPath>
 </defs>
</svg>
