<?xml version="1.0" encoding="utf-8" standalone="no"?>
<!DOCTYPE svg PUBLIC "-//W3C//DTD SVG 1.1//EN"
  "http://www.w3.org/Graphics/SVG/1.1/DTD/svg11.dtd">
<svg xmlns:xlink="http://www.w3.org/1999/xlink" width="392.765pt" height="399.83625pt" viewBox="0 0 392.765 399.83625" xmlns="http://www.w3.org/2000/svg" version="1.1">
 <metadata>
  <rdf:RDF xmlns:dc="http://purl.org/dc/elements/1.1/" xmlns:cc="http://creativecommons.org/ns#" xmlns:rdf="http://www.w3.org/1999/02/22-rdf-syntax-ns#">
   <cc:Work>
    <dc:type rdf:resource="http://purl.org/dc/dcmitype/StillImage"/>
    <dc:date>2023-11-03T14:11:16.392459</dc:date>
    <dc:format>image/svg+xml</dc:format>
    <dc:creator>
     <cc:Agent>
      <dc:title>Matplotlib v3.5.1, https://matplotlib.org/</dc:title>
     </cc:Agent>
    </dc:creator>
   </cc:Work>
  </rdf:RDF>
 </metadata>
 <defs>
  <style type="text/css">*{stroke-linejoin: round; stroke-linecap: butt}</style>
 </defs>
 <g id="figure_1">
  <g id="patch_1">
   <path d="M 0 399.83625 
L 392.765 399.83625 
L 392.765 0 
L 0 0 
z
" style="fill: #ffffff"/>
  </g>
  <g id="axes_1">
   <g id="patch_2">
    <path d="M 365.88375 207.477187 
C 365.88375 185.636245 361.581561 164.007679 353.223394 143.829279 
C 344.865227 123.650879 332.613628 105.315066 317.16975 89.871188 
C 301.725871 74.427309 283.390058 62.17571 263.211658 53.817544 
C 243.033259 45.459377 221.404692 41.157187 199.56375 41.157187 
C 177.722808 41.157187 156.094241 45.459377 135.915842 53.817544 
C 115.737442 62.17571 97.401629 74.427309 81.95775 89.871188 
C 66.513872 105.315066 54.262273 123.650879 45.904106 143.829279 
C 37.545939 164.007679 33.24375 185.636245 33.24375 207.477187 
C 33.24375 229.31813 37.545939 250.946696 45.904106 271.125096 
C 54.262273 291.303496 66.513872 309.639309 81.95775 325.083187 
C 97.401629 340.527066 115.737442 352.778665 135.915842 361.136831 
C 156.094241 369.494998 177.722808 373.797188 199.56375 373.797188 
C 221.404692 373.797188 243.033259 369.494998 263.211658 361.136831 
C 283.390058 352.778665 301.725871 340.527066 317.16975 325.083187 
C 332.613628 309.639309 344.865227 291.303496 353.223394 271.125096 
C 361.581561 250.946696 365.88375 229.31813 365.88375 207.477188 
M 199.56375 207.477187 
C 199.56375 207.477187 199.56375 207.477187 199.56375 207.477187 
C 199.56375 207.477187 199.56375 207.477187 199.56375 207.477187 
C 199.56375 207.477187 199.56375 207.477187 199.56375 207.477187 
C 199.56375 207.477187 199.56375 207.477187 199.56375 207.477187 
C 199.56375 207.477187 199.56375 207.477187 199.56375 207.477187 
C 199.56375 207.477187 199.56375 207.477187 199.56375 207.477187 
C 199.56375 207.477187 199.56375 207.477187 199.56375 207.477187 
C 199.56375 207.477187 199.56375 207.477187 199.56375 207.477187 
C 199.56375 207.477187 199.56375 207.477187 199.56375 207.477187 
C 199.56375 207.477187 199.56375 207.477187 199.56375 207.477187 
C 199.56375 207.477187 199.56375 207.477187 199.56375 207.477187 
C 199.56375 207.477187 199.56375 207.477187 199.56375 207.477187 
C 199.56375 207.477187 199.56375 207.477187 199.56375 207.477187 
C 199.56375 207.477187 199.56375 207.477187 199.56375 207.477187 
C 199.56375 207.477187 199.56375 207.477187 199.56375 207.477187 
C 199.56375 207.477187 199.56375 207.477187 199.56375 207.477187 
M 365.88375 207.477187 
z
" style="fill: #ffffff"/>
   </g>
   <g id="matplotlib.axis_1">
    <g id="xtick_1">
     <g id="line2d_1">
      <path d="M 199.56375 207.477187 
L 365.88375 207.477187 
" clip-path="url(#p853735a87d)" style="fill: none; stroke: #b0b0b0; stroke-width: 0.8; stroke-linecap: square"/>
     </g>
     <g id="text_1">
      <!-- 0° -->
      <g transform="translate(374.2025 210.236562)scale(0.1 -0.1)">
       <defs>
        <path id="DejaVuSans-30" d="M 2034 4250 
Q 1547 4250 1301 3770 
Q 1056 3291 1056 2328 
Q 1056 1369 1301 889 
Q 1547 409 2034 409 
Q 2525 409 2770 889 
Q 3016 1369 3016 2328 
Q 3016 3291 2770 3770 
Q 2525 4250 2034 4250 
z
M 2034 4750 
Q 2819 4750 3233 4129 
Q 3647 3509 3647 2328 
Q 3647 1150 3233 529 
Q 2819 -91 2034 -91 
Q 1250 -91 836 529 
Q 422 1150 422 2328 
Q 422 3509 836 4129 
Q 1250 4750 2034 4750 
z
" transform="scale(0.015625)"/>
        <path id="DejaVuSans-b0" d="M 1600 4347 
Q 1350 4347 1178 4173 
Q 1006 4000 1006 3750 
Q 1006 3503 1178 3333 
Q 1350 3163 1600 3163 
Q 1850 3163 2022 3333 
Q 2194 3503 2194 3750 
Q 2194 3997 2020 4172 
Q 1847 4347 1600 4347 
z
M 1600 4750 
Q 1800 4750 1984 4673 
Q 2169 4597 2303 4453 
Q 2447 4313 2519 4134 
Q 2591 3956 2591 3750 
Q 2591 3338 2302 3052 
Q 2013 2766 1594 2766 
Q 1172 2766 890 3047 
Q 609 3328 609 3750 
Q 609 4169 896 4459 
Q 1184 4750 1600 4750 
z
" transform="scale(0.015625)"/>
       </defs>
       <use xlink:href="#DejaVuSans-30"/>
       <use xlink:href="#DejaVuSans-b0" x="63.623047"/>
      </g>
     </g>
    </g>
    <g id="xtick_2">
     <g id="line2d_2">
      <path d="M 199.56375 207.477187 
L 317.16975 89.871188 
" clip-path="url(#p853735a87d)" style="fill: none; stroke: #b0b0b0; stroke-width: 0.8; stroke-linecap: square"/>
     </g>
     <g id="text_2">
      <!-- 45° -->
      <g transform="translate(318.206745 82.731068)scale(0.1 -0.1)">
       <defs>
        <path id="DejaVuSans-34" d="M 2419 4116 
L 825 1625 
L 2419 1625 
L 2419 4116 
z
M 2253 4666 
L 3047 4666 
L 3047 1625 
L 3713 1625 
L 3713 1100 
L 3047 1100 
L 3047 0 
L 2419 0 
L 2419 1100 
L 313 1100 
L 313 1709 
L 2253 4666 
z
" transform="scale(0.015625)"/>
        <path id="DejaVuSans-35" d="M 691 4666 
L 3169 4666 
L 3169 4134 
L 1269 4134 
L 1269 2991 
Q 1406 3038 1543 3061 
Q 1681 3084 1819 3084 
Q 2600 3084 3056 2656 
Q 3513 2228 3513 1497 
Q 3513 744 3044 326 
Q 2575 -91 1722 -91 
Q 1428 -91 1123 -41 
Q 819 9 494 109 
L 494 744 
Q 775 591 1075 516 
Q 1375 441 1709 441 
Q 2250 441 2565 725 
Q 2881 1009 2881 1497 
Q 2881 1984 2565 2268 
Q 2250 2553 1709 2553 
Q 1456 2553 1204 2497 
Q 953 2441 691 2322 
L 691 4666 
z
" transform="scale(0.015625)"/>
       </defs>
       <use xlink:href="#DejaVuSans-34"/>
       <use xlink:href="#DejaVuSans-35" x="63.623047"/>
       <use xlink:href="#DejaVuSans-b0" x="127.246094"/>
      </g>
     </g>
    </g>
    <g id="xtick_3">
     <g id="line2d_3">
      <path d="M 199.56375 207.477187 
L 199.56375 41.157187 
" clip-path="url(#p853735a87d)" style="fill: none; stroke: #b0b0b0; stroke-width: 0.8; stroke-linecap: square"/>
     </g>
     <g id="text_3">
      <!-- 90° -->
      <g transform="translate(190.70125 29.916562)scale(0.1 -0.1)">
       <defs>
        <path id="DejaVuSans-39" d="M 703 97 
L 703 672 
Q 941 559 1184 500 
Q 1428 441 1663 441 
Q 2288 441 2617 861 
Q 2947 1281 2994 2138 
Q 2813 1869 2534 1725 
Q 2256 1581 1919 1581 
Q 1219 1581 811 2004 
Q 403 2428 403 3163 
Q 403 3881 828 4315 
Q 1253 4750 1959 4750 
Q 2769 4750 3195 4129 
Q 3622 3509 3622 2328 
Q 3622 1225 3098 567 
Q 2575 -91 1691 -91 
Q 1453 -91 1209 -44 
Q 966 3 703 97 
z
M 1959 2075 
Q 2384 2075 2632 2365 
Q 2881 2656 2881 3163 
Q 2881 3666 2632 3958 
Q 2384 4250 1959 4250 
Q 1534 4250 1286 3958 
Q 1038 3666 1038 3163 
Q 1038 2656 1286 2365 
Q 1534 2075 1959 2075 
z
" transform="scale(0.015625)"/>
       </defs>
       <use xlink:href="#DejaVuSans-39"/>
       <use xlink:href="#DejaVuSans-30" x="63.623047"/>
       <use xlink:href="#DejaVuSans-b0" x="127.246094"/>
      </g>
     </g>
    </g>
    <g id="xtick_4">
     <g id="line2d_4">
      <path d="M 199.56375 207.477187 
L 81.95775 89.871188 
" clip-path="url(#p853735a87d)" style="fill: none; stroke: #b0b0b0; stroke-width: 0.8; stroke-linecap: square"/>
     </g>
     <g id="text_4">
      <!-- 135° -->
      <g transform="translate(60.014505 82.731068)scale(0.1 -0.1)">
       <defs>
        <path id="DejaVuSans-31" d="M 794 531 
L 1825 531 
L 1825 4091 
L 703 3866 
L 703 4441 
L 1819 4666 
L 2450 4666 
L 2450 531 
L 3481 531 
L 3481 0 
L 794 0 
L 794 531 
z
" transform="scale(0.015625)"/>
        <path id="DejaVuSans-33" d="M 2597 2516 
Q 3050 2419 3304 2112 
Q 3559 1806 3559 1356 
Q 3559 666 3084 287 
Q 2609 -91 1734 -91 
Q 1441 -91 1130 -33 
Q 819 25 488 141 
L 488 750 
Q 750 597 1062 519 
Q 1375 441 1716 441 
Q 2309 441 2620 675 
Q 2931 909 2931 1356 
Q 2931 1769 2642 2001 
Q 2353 2234 1838 2234 
L 1294 2234 
L 1294 2753 
L 1863 2753 
Q 2328 2753 2575 2939 
Q 2822 3125 2822 3475 
Q 2822 3834 2567 4026 
Q 2313 4219 1838 4219 
Q 1578 4219 1281 4162 
Q 984 4106 628 3988 
L 628 4550 
Q 988 4650 1302 4700 
Q 1616 4750 1894 4750 
Q 2613 4750 3031 4423 
Q 3450 4097 3450 3541 
Q 3450 3153 3228 2886 
Q 3006 2619 2597 2516 
z
" transform="scale(0.015625)"/>
       </defs>
       <use xlink:href="#DejaVuSans-31"/>
       <use xlink:href="#DejaVuSans-33" x="63.623047"/>
       <use xlink:href="#DejaVuSans-35" x="127.246094"/>
       <use xlink:href="#DejaVuSans-b0" x="190.869141"/>
      </g>
     </g>
    </g>
    <g id="xtick_5">
     <g id="line2d_5">
      <path d="M 199.56375 207.477187 
L 33.24375 207.477187 
" clip-path="url(#p853735a87d)" style="fill: none; stroke: #b0b0b0; stroke-width: 0.8; stroke-linecap: square"/>
     </g>
     <g id="text_5">
      <!-- 180° -->
      <g transform="translate(7.2 210.236562)scale(0.1 -0.1)">
       <defs>
        <path id="DejaVuSans-38" d="M 2034 2216 
Q 1584 2216 1326 1975 
Q 1069 1734 1069 1313 
Q 1069 891 1326 650 
Q 1584 409 2034 409 
Q 2484 409 2743 651 
Q 3003 894 3003 1313 
Q 3003 1734 2745 1975 
Q 2488 2216 2034 2216 
z
M 1403 2484 
Q 997 2584 770 2862 
Q 544 3141 544 3541 
Q 544 4100 942 4425 
Q 1341 4750 2034 4750 
Q 2731 4750 3128 4425 
Q 3525 4100 3525 3541 
Q 3525 3141 3298 2862 
Q 3072 2584 2669 2484 
Q 3125 2378 3379 2068 
Q 3634 1759 3634 1313 
Q 3634 634 3220 271 
Q 2806 -91 2034 -91 
Q 1263 -91 848 271 
Q 434 634 434 1313 
Q 434 1759 690 2068 
Q 947 2378 1403 2484 
z
M 1172 3481 
Q 1172 3119 1398 2916 
Q 1625 2713 2034 2713 
Q 2441 2713 2670 2916 
Q 2900 3119 2900 3481 
Q 2900 3844 2670 4047 
Q 2441 4250 2034 4250 
Q 1625 4250 1398 4047 
Q 1172 3844 1172 3481 
z
" transform="scale(0.015625)"/>
       </defs>
       <use xlink:href="#DejaVuSans-31"/>
       <use xlink:href="#DejaVuSans-38" x="63.623047"/>
       <use xlink:href="#DejaVuSans-30" x="127.246094"/>
       <use xlink:href="#DejaVuSans-b0" x="190.869141"/>
      </g>
     </g>
    </g>
    <g id="xtick_6">
     <g id="line2d_6">
      <path d="M 199.56375 207.477187 
L 81.95775 325.083187 
" clip-path="url(#p853735a87d)" style="fill: none; stroke: #b0b0b0; stroke-width: 0.8; stroke-linecap: square"/>
     </g>
     <g id="text_6">
      <!-- 225° -->
      <g transform="translate(60.014505 337.742057)scale(0.1 -0.1)">
       <defs>
        <path id="DejaVuSans-32" d="M 1228 531 
L 3431 531 
L 3431 0 
L 469 0 
L 469 531 
Q 828 903 1448 1529 
Q 2069 2156 2228 2338 
Q 2531 2678 2651 2914 
Q 2772 3150 2772 3378 
Q 2772 3750 2511 3984 
Q 2250 4219 1831 4219 
Q 1534 4219 1204 4116 
Q 875 4013 500 3803 
L 500 4441 
Q 881 4594 1212 4672 
Q 1544 4750 1819 4750 
Q 2544 4750 2975 4387 
Q 3406 4025 3406 3419 
Q 3406 3131 3298 2873 
Q 3191 2616 2906 2266 
Q 2828 2175 2409 1742 
Q 1991 1309 1228 531 
z
" transform="scale(0.015625)"/>
       </defs>
       <use xlink:href="#DejaVuSans-32"/>
       <use xlink:href="#DejaVuSans-32" x="63.623047"/>
       <use xlink:href="#DejaVuSans-35" x="127.246094"/>
       <use xlink:href="#DejaVuSans-b0" x="190.869141"/>
      </g>
     </g>
    </g>
    <g id="xtick_7">
     <g id="line2d_7">
      <path d="M 199.56375 207.477187 
L 199.56375 373.797188 
" clip-path="url(#p853735a87d)" style="fill: none; stroke: #b0b0b0; stroke-width: 0.8; stroke-linecap: square"/>
     </g>
     <g id="text_7">
      <!-- 270° -->
      <g transform="translate(187.52 390.556562)scale(0.1 -0.1)">
       <defs>
        <path id="DejaVuSans-37" d="M 525 4666 
L 3525 4666 
L 3525 4397 
L 1831 0 
L 1172 0 
L 2766 4134 
L 525 4134 
L 525 4666 
z
" transform="scale(0.015625)"/>
       </defs>
       <use xlink:href="#DejaVuSans-32"/>
       <use xlink:href="#DejaVuSans-37" x="63.623047"/>
       <use xlink:href="#DejaVuSans-30" x="127.246094"/>
       <use xlink:href="#DejaVuSans-b0" x="190.869141"/>
      </g>
     </g>
    </g>
    <g id="xtick_8">
     <g id="line2d_8">
      <path d="M 199.56375 207.477187 
L 317.16975 325.083187 
" clip-path="url(#p853735a87d)" style="fill: none; stroke: #b0b0b0; stroke-width: 0.8; stroke-linecap: square"/>
     </g>
     <g id="text_8">
      <!-- 315° -->
      <g transform="translate(315.025495 337.742057)scale(0.1 -0.1)">
       <use xlink:href="#DejaVuSans-33"/>
       <use xlink:href="#DejaVuSans-31" x="63.623047"/>
       <use xlink:href="#DejaVuSans-35" x="127.246094"/>
       <use xlink:href="#DejaVuSans-b0" x="190.869141"/>
      </g>
     </g>
    </g>
   </g>
   <g id="matplotlib.axis_2">
    <g id="ytick_1">
     <g id="line2d_9">
      <path d="M 288.646854 207.477187 
C 288.646854 195.778901 286.342547 184.194366 281.865807 173.386559 
C 277.389067 162.578752 270.826955 152.757858 262.555017 144.48592 
C 254.28308 136.213983 244.462185 129.651871 233.654378 125.175131 
C 222.846571 120.69839 211.262036 118.394083 199.56375 118.394083 
C 187.865464 118.394083 176.280929 120.69839 165.473122 125.175131 
C 154.665315 129.651871 144.84442 136.213983 136.572483 144.48592 
C 128.300545 152.757858 121.738433 162.578752 117.261693 173.386559 
C 112.784953 184.194366 110.480646 195.778901 110.480646 207.477187 
C 110.480646 219.175474 112.784953 230.760009 117.261693 241.567816 
C 121.738433 252.375623 128.300545 262.196517 136.572483 270.468455 
C 144.84442 278.740392 154.665315 285.302504 165.473122 289.779244 
C 176.280929 294.255985 187.865464 296.560292 199.56375 296.560292 
C 211.262036 296.560292 222.846571 294.255985 233.654378 289.779244 
C 244.462185 285.302504 254.28308 278.740392 262.555017 270.468455 
C 270.826955 262.196517 277.389067 252.375623 281.865807 241.567816 
C 286.342547 230.760009 288.646854 219.175474 288.646854 207.477188 
" clip-path="url(#p853735a87d)" style="fill: none; stroke: #b0b0b0; stroke-width: 0.8; stroke-linecap: square"/>
     </g>
     <g id="text_9">
      <!-- −30 -->
      <g transform="translate(281.865807 171.306872)scale(0.1 -0.1)">
       <defs>
        <path id="DejaVuSans-2212" d="M 678 2272 
L 4684 2272 
L 4684 1741 
L 678 1741 
L 678 2272 
z
" transform="scale(0.015625)"/>
       </defs>
       <use xlink:href="#DejaVuSans-2212"/>
       <use xlink:href="#DejaVuSans-33" x="83.789062"/>
       <use xlink:href="#DejaVuSans-30" x="147.412109"/>
      </g>
     </g>
    </g>
    <g id="ytick_2">
     <g id="line2d_10">
      <path d="M 296.370544 207.477187 
C 296.370544 194.764636 293.866448 182.175698 289.001566 170.430831 
C 284.136683 158.685965 277.005622 148.013579 268.01649 139.024447 
C 259.027359 130.035315 248.354973 122.904255 236.610106 118.039372 
C 224.86524 113.174489 212.276302 110.670394 199.56375 110.670394 
C 186.851198 110.670394 174.26226 113.174489 162.517394 118.039372 
C 150.772527 122.904255 140.100141 130.035315 131.11101 139.024447 
C 122.121878 148.013579 114.990817 158.685965 110.125934 170.430831 
C 105.261052 182.175698 102.756956 194.764636 102.756956 207.477187 
C 102.756956 220.189739 105.261052 232.778677 110.125934 244.523544 
C 114.990817 256.26841 122.121878 266.940796 131.11101 275.929928 
C 140.100141 284.91906 150.772527 292.05012 162.517394 296.915003 
C 174.26226 301.779886 186.851198 304.283981 199.56375 304.283981 
C 212.276302 304.283981 224.86524 301.779886 236.610106 296.915003 
C 248.354973 292.05012 259.027359 284.91906 268.01649 275.929928 
C 277.005622 266.940796 284.136683 256.26841 289.001566 244.523544 
C 293.866448 232.778677 296.370544 220.189739 296.370544 207.477188 
" clip-path="url(#p853735a87d)" style="fill: none; stroke: #b0b0b0; stroke-width: 0.8; stroke-linecap: square"/>
     </g>
     <g id="text_10">
      <!-- −27 -->
      <g transform="translate(289.001566 168.351144)scale(0.1 -0.1)">
       <use xlink:href="#DejaVuSans-2212"/>
       <use xlink:href="#DejaVuSans-32" x="83.789062"/>
       <use xlink:href="#DejaVuSans-37" x="147.412109"/>
      </g>
     </g>
    </g>
    <g id="ytick_3">
     <g id="line2d_11">
      <path d="M 304.094234 207.477187 
C 304.094234 193.75037 301.39035 180.157029 296.137324 167.475103 
C 290.884299 154.793178 283.184289 143.269299 273.477964 133.562974 
C 263.771638 123.856648 252.24776 116.156639 239.565834 110.903613 
C 226.883909 105.650588 213.290567 102.946704 199.56375 102.946704 
C 185.836933 102.946704 172.243591 105.650588 159.561666 110.903613 
C 146.87974 116.156639 135.355862 123.856648 125.649536 133.562974 
C 115.943211 143.269299 108.243201 154.793178 102.990176 167.475103 
C 97.73715 180.157029 95.033266 193.75037 95.033266 207.477187 
C 95.033266 221.204005 97.73715 234.797346 102.990176 247.479272 
C 108.243201 260.161197 115.943211 271.685076 125.649536 281.391401 
C 135.355862 291.097727 146.87974 298.797736 159.561666 304.050762 
C 172.243591 309.303787 185.836933 312.007671 199.56375 312.007671 
C 213.290567 312.007671 226.883909 309.303787 239.565834 304.050762 
C 252.24776 298.797736 263.771638 291.097727 273.477964 281.391401 
C 283.184289 271.685076 290.884299 260.161197 296.137324 247.479272 
C 301.39035 234.797346 304.094234 221.204005 304.094234 207.477188 
" clip-path="url(#p853735a87d)" style="fill: none; stroke: #b0b0b0; stroke-width: 0.8; stroke-linecap: square"/>
     </g>
     <g id="text_11">
      <!-- −24 -->
      <g transform="translate(296.137324 165.395416)scale(0.1 -0.1)">
       <use xlink:href="#DejaVuSans-2212"/>
       <use xlink:href="#DejaVuSans-32" x="83.789062"/>
       <use xlink:href="#DejaVuSans-34" x="147.412109"/>
      </g>
     </g>
    </g>
    <g id="ytick_4">
     <g id="line2d_12">
      <path d="M 311.817923 207.477187 
C 311.817923 192.736105 308.914251 178.13836 303.273083 164.519375 
C 297.631915 150.90039 289.362957 138.52502 278.939437 128.1015 
C 268.515917 117.677981 256.140547 109.409023 242.521562 103.767855 
C 228.902577 98.126686 214.304833 95.223014 199.56375 95.223014 
C 184.822667 95.223014 170.224923 98.126686 156.605938 103.767855 
C 142.986953 109.409023 130.611583 117.677981 120.188063 128.1015 
C 109.764543 138.52502 101.495585 150.90039 95.854417 164.519375 
C 90.213249 178.13836 87.309577 192.736105 87.309577 207.477187 
C 87.309577 222.21827 90.213249 236.816015 95.854417 250.435 
C 101.495585 264.053985 109.764543 276.429355 120.188063 286.852875 
C 130.611583 297.276394 142.986953 305.545352 156.605938 311.18652 
C 170.224923 316.827689 184.822667 319.731361 199.56375 319.731361 
C 214.304833 319.731361 228.902577 316.827689 242.521562 311.18652 
C 256.140547 305.545352 268.515917 297.276394 278.939437 286.852875 
C 289.362957 276.429355 297.631915 264.053985 303.273083 250.435 
C 308.914251 236.816015 311.817923 222.21827 311.817923 207.477188 
" clip-path="url(#p853735a87d)" style="fill: none; stroke: #b0b0b0; stroke-width: 0.8; stroke-linecap: square"/>
     </g>
     <g id="text_12">
      <!-- −21 -->
      <g transform="translate(303.273083 162.439688)scale(0.1 -0.1)">
       <use xlink:href="#DejaVuSans-2212"/>
       <use xlink:href="#DejaVuSans-32" x="83.789062"/>
       <use xlink:href="#DejaVuSans-31" x="147.412109"/>
      </g>
     </g>
    </g>
    <g id="ytick_5">
     <g id="line2d_13">
      <path d="M 319.541613 207.477187 
C 319.541613 191.721839 316.438153 176.119691 310.408842 161.563647 
C 304.379531 147.007603 295.541624 133.780741 284.40091 122.640027 
C 273.260196 111.499313 260.033334 102.661407 245.47729 96.632096 
C 230.921246 90.602785 215.319099 87.499325 199.56375 87.499325 
C 183.808401 87.499325 168.206254 90.602785 153.65021 96.632096 
C 139.094166 102.661407 125.867304 111.499313 114.72659 122.640027 
C 103.585876 133.780741 94.747969 147.007603 88.718658 161.563647 
C 82.689347 176.119691 79.585887 191.721839 79.585887 207.477187 
C 79.585887 223.232536 82.689347 238.834684 88.718658 253.390728 
C 94.747969 267.946772 103.585876 281.173634 114.72659 292.314348 
C 125.867304 303.455062 139.094166 312.292968 153.65021 318.322279 
C 168.206254 324.35159 183.808401 327.45505 199.56375 327.45505 
C 215.319099 327.45505 230.921246 324.35159 245.47729 318.322279 
C 260.033334 312.292968 273.260196 303.455062 284.40091 292.314348 
C 295.541624 281.173634 304.379531 267.946772 310.408842 253.390728 
C 316.438153 238.834684 319.541613 223.232536 319.541613 207.477188 
" clip-path="url(#p853735a87d)" style="fill: none; stroke: #b0b0b0; stroke-width: 0.8; stroke-linecap: square"/>
     </g>
     <g id="text_13">
      <!-- −18 -->
      <g transform="translate(310.408842 159.48396)scale(0.1 -0.1)">
       <use xlink:href="#DejaVuSans-2212"/>
       <use xlink:href="#DejaVuSans-31" x="83.789062"/>
       <use xlink:href="#DejaVuSans-38" x="147.412109"/>
      </g>
     </g>
    </g>
    <g id="ytick_6">
     <g id="line2d_14">
      <path d="M 327.265302 207.477187 
C 327.265302 190.707573 323.962054 174.101022 317.5446 158.607919 
C 311.127147 143.114816 301.720291 129.036462 289.862384 117.178554 
C 278.004476 105.320646 263.926122 95.913791 248.433018 89.496337 
C 232.939915 83.078884 216.333364 79.775635 199.56375 79.775635 
C 182.794136 79.775635 166.187585 83.078884 150.694482 89.496337 
C 135.201378 95.913791 121.123024 105.320646 109.265116 117.178554 
C 97.407209 129.036462 88.000353 143.114816 81.5829 158.607919 
C 75.165446 174.101022 71.862198 190.707573 71.862198 207.477187 
C 71.862198 224.246802 75.165446 240.853353 81.5829 256.346456 
C 88.000353 271.839559 97.407209 285.917913 109.265116 297.775821 
C 121.123024 309.633729 135.201378 319.040584 150.694482 325.458038 
C 166.187585 331.875491 182.794136 335.17874 199.56375 335.17874 
C 216.333364 335.17874 232.939915 331.875491 248.433018 325.458038 
C 263.926122 319.040584 278.004476 309.633729 289.862384 297.775821 
C 301.720291 285.917913 311.127147 271.839559 317.5446 256.346456 
C 323.962054 240.853353 327.265302 224.246802 327.265302 207.477188 
" clip-path="url(#p853735a87d)" style="fill: none; stroke: #b0b0b0; stroke-width: 0.8; stroke-linecap: square"/>
     </g>
     <g id="text_14">
      <!-- −15 -->
      <g transform="translate(317.5446 156.528232)scale(0.1 -0.1)">
       <use xlink:href="#DejaVuSans-2212"/>
       <use xlink:href="#DejaVuSans-31" x="83.789062"/>
       <use xlink:href="#DejaVuSans-35" x="147.412109"/>
      </g>
     </g>
    </g>
    <g id="ytick_7">
     <g id="line2d_15">
      <path d="M 334.988992 207.477187 
C 334.988992 189.693308 331.485955 172.082354 324.680359 155.652191 
C 317.874763 139.222029 307.898959 124.292183 295.323857 111.717081 
C 282.748755 99.141979 267.818909 89.166175 251.388746 82.360578 
C 234.958584 75.554982 217.34763 72.051946 199.56375 72.051946 
C 181.77987 72.051946 164.168916 75.554982 147.738754 82.360578 
C 131.308591 89.166175 116.378745 99.141979 103.803643 111.717081 
C 91.228541 124.292183 81.252737 139.222029 74.447141 155.652191 
C 67.641545 172.082354 64.138508 189.693308 64.138508 207.477187 
C 64.138508 225.261067 67.641545 242.872021 74.447141 259.302184 
C 81.252737 275.732346 91.228541 290.662192 103.803643 303.237294 
C 116.378745 315.812396 131.308591 325.7882 147.738754 332.593797 
C 164.168916 339.399393 181.77987 342.902429 199.56375 342.902429 
C 217.34763 342.902429 234.958584 339.399393 251.388746 332.593797 
C 267.818909 325.7882 282.748755 315.812396 295.323857 303.237294 
C 307.898959 290.662192 317.874763 275.732346 324.680359 259.302184 
C 331.485955 242.872021 334.988992 225.261067 334.988992 207.477188 
" clip-path="url(#p853735a87d)" style="fill: none; stroke: #b0b0b0; stroke-width: 0.8; stroke-linecap: square"/>
     </g>
     <g id="text_15">
      <!-- −12 -->
      <g transform="translate(324.680359 153.572504)scale(0.1 -0.1)">
       <use xlink:href="#DejaVuSans-2212"/>
       <use xlink:href="#DejaVuSans-31" x="83.789062"/>
       <use xlink:href="#DejaVuSans-32" x="147.412109"/>
      </g>
     </g>
    </g>
    <g id="ytick_8">
     <g id="line2d_16">
      <path d="M 342.712681 207.477187 
C 342.712681 188.679042 339.009857 170.063685 331.816118 152.696463 
C 324.622379 135.329241 314.077626 119.547904 300.78533 106.255607 
C 287.493034 92.963311 271.711696 82.418559 254.344474 75.22482 
C 236.977253 68.031081 218.361895 64.328256 199.56375 64.328256 
C 180.765605 64.328256 162.150247 68.031081 144.783026 75.22482 
C 127.415804 82.418559 111.634466 92.963311 98.34217 106.255607 
C 85.049874 119.547904 74.505121 135.329241 67.311382 152.696463 
C 60.117643 170.063685 56.414819 188.679042 56.414819 207.477187 
C 56.414819 226.275333 60.117643 244.89069 67.311382 262.257912 
C 74.505121 279.625134 85.049874 295.406471 98.34217 308.698768 
C 111.634466 321.991064 127.415804 332.535816 144.783026 339.729555 
C 162.150247 346.923294 180.765605 350.626119 199.56375 350.626119 
C 218.361895 350.626119 236.977253 346.923294 254.344474 339.729555 
C 271.711696 332.535816 287.493034 321.991064 300.78533 308.698768 
C 314.077626 295.406471 324.622379 279.625134 331.816118 262.257912 
C 339.009857 244.89069 342.712681 226.275333 342.712681 207.477188 
" clip-path="url(#p853735a87d)" style="fill: none; stroke: #b0b0b0; stroke-width: 0.8; stroke-linecap: square"/>
     </g>
     <g id="text_16">
      <!-- −9 -->
      <g transform="translate(331.816118 150.616776)scale(0.1 -0.1)">
       <use xlink:href="#DejaVuSans-2212"/>
       <use xlink:href="#DejaVuSans-39" x="83.789062"/>
      </g>
     </g>
    </g>
    <g id="ytick_9">
     <g id="line2d_17">
      <path d="M 350.436371 207.477187 
C 350.436371 187.664776 346.533758 168.045016 338.951876 149.740735 
C 331.369995 131.436454 320.256294 114.803624 306.246803 100.794134 
C 292.237313 86.784644 275.604483 75.670943 257.300202 68.089061 
C 238.995921 60.50718 219.376161 56.604567 199.56375 56.604567 
C 179.751339 56.604567 160.131579 60.50718 141.827298 68.089061 
C 123.523017 75.670943 106.890187 86.784644 92.880697 100.794134 
C 78.871206 114.803624 67.757505 131.436454 60.175624 149.740735 
C 52.593742 168.045016 48.691129 187.664776 48.691129 207.477187 
C 48.691129 227.289599 52.593742 246.909359 60.175624 265.21364 
C 67.757505 283.517921 78.871206 300.150751 92.880697 314.160241 
C 106.890187 328.169731 123.523017 339.283432 141.827298 346.865314 
C 160.131579 354.447195 179.751339 358.349808 199.56375 358.349808 
C 219.376161 358.349808 238.995921 354.447195 257.300202 346.865314 
C 275.604483 339.283432 292.237313 328.169731 306.246803 314.160241 
C 320.256294 300.150751 331.369995 283.517921 338.951876 265.21364 
C 346.533758 246.909359 350.436371 227.289599 350.436371 207.477188 
" clip-path="url(#p853735a87d)" style="fill: none; stroke: #b0b0b0; stroke-width: 0.8; stroke-linecap: square"/>
     </g>
     <g id="text_17">
      <!-- −6 -->
      <g transform="translate(338.951876 147.661048)scale(0.1 -0.1)">
       <defs>
        <path id="DejaVuSans-36" d="M 2113 2584 
Q 1688 2584 1439 2293 
Q 1191 2003 1191 1497 
Q 1191 994 1439 701 
Q 1688 409 2113 409 
Q 2538 409 2786 701 
Q 3034 994 3034 1497 
Q 3034 2003 2786 2293 
Q 2538 2584 2113 2584 
z
M 3366 4563 
L 3366 3988 
Q 3128 4100 2886 4159 
Q 2644 4219 2406 4219 
Q 1781 4219 1451 3797 
Q 1122 3375 1075 2522 
Q 1259 2794 1537 2939 
Q 1816 3084 2150 3084 
Q 2853 3084 3261 2657 
Q 3669 2231 3669 1497 
Q 3669 778 3244 343 
Q 2819 -91 2113 -91 
Q 1303 -91 875 529 
Q 447 1150 447 2328 
Q 447 3434 972 4092 
Q 1497 4750 2381 4750 
Q 2619 4750 2861 4703 
Q 3103 4656 3366 4563 
z
" transform="scale(0.015625)"/>
       </defs>
       <use xlink:href="#DejaVuSans-2212"/>
       <use xlink:href="#DejaVuSans-36" x="83.789062"/>
      </g>
     </g>
    </g>
    <g id="ytick_10">
     <g id="line2d_18">
      <path d="M 358.16006 207.477187 
C 358.16006 186.650511 354.057659 166.026347 346.087635 146.785007 
C 338.117611 127.543667 326.434961 110.059345 311.708277 95.332661 
C 296.981592 80.605977 279.497271 68.923326 260.25593 60.953302 
C 241.01459 52.983278 220.390427 48.880877 199.56375 48.880877 
C 178.737073 48.880877 158.11291 52.983278 138.87157 60.953302 
C 119.630229 68.923326 102.145908 80.605977 87.419223 95.332661 
C 72.692539 110.059345 61.009889 127.543667 53.039865 146.785007 
C 45.069841 166.026347 40.96744 186.650511 40.96744 207.477187 
C 40.96744 228.303864 45.069841 248.928028 53.039865 268.169368 
C 61.009889 287.410708 72.692539 304.89503 87.419223 319.621714 
C 102.145908 334.348398 119.630229 346.031049 138.87157 354.001073 
C 158.11291 361.971097 178.737073 366.073498 199.56375 366.073498 
C 220.390427 366.073498 241.01459 361.971097 260.25593 354.001073 
C 279.497271 346.031049 296.981592 334.348398 311.708277 319.621714 
C 326.434961 304.89503 338.117611 287.410708 346.087635 268.169368 
C 354.057659 248.928028 358.16006 228.303864 358.16006 207.477188 
" clip-path="url(#p853735a87d)" style="fill: none; stroke: #b0b0b0; stroke-width: 0.8; stroke-linecap: square"/>
     </g>
     <g id="text_18">
      <!-- −3 -->
      <g transform="translate(346.087635 144.70532)scale(0.1 -0.1)">
       <use xlink:href="#DejaVuSans-2212"/>
       <use xlink:href="#DejaVuSans-33" x="83.789062"/>
      </g>
     </g>
    </g>
   </g>
   <g id="line2d_19">
    <path d="M 310.54094 207.477187 
L 313.430277 205.48964 
L 318.721573 201.232391 
L 322.246549 198.89837 
L 326.842269 194.099676 
L 329.768298 191.490079 
L 335.378287 183.52942 
L 336.496449 180.860167 
L 337.872088 178.078843 
L 338.97856 175.290742 
L 339.64464 172.551099 
L 340.545652 169.701201 
L 341.015694 166.916495 
L 341.175074 164.182261 
L 341.605043 161.325174 
L 341.773573 158.510418 
L 341.506989 155.814073 
L 341.492271 152.995933 
L 340.596967 147.612139 
L 340.085765 144.912755 
L 337.811671 137.036354 
L 334.84531 129.372342 
L 332.670253 124.303013 
L 331.649666 121.699591 
L 330.177346 119.377205 
L 329.142917 116.744878 
L 327.779214 114.3232 
L 321.836575 104.878105 
L 320.373214 102.459123 
L 313.812764 93.228173 
L 308.359055 86.64776 
L 304.535955 82.376185 
L 298.317384 76.426688 
L 293.993739 72.617187 
L 289.441402 69.077741 
L 287.131004 67.340287 
L 282.289936 64.19123 
L 277.310246 61.257295 
L 272.201643 58.547436 
L 266.946208 56.13371 
L 261.532691 54.098677 
L 258.787379 53.194358 
L 253.211843 51.671814 
L 250.402548 51.011456 
L 241.899542 49.477859 
L 236.198073 48.796503 
L 227.602191 48.463285 
L 216.212356 49.076283 
L 210.612861 49.467536 
L 207.822135 49.89782 
L 205.057979 50.143056 
L 202.302296 50.585966 
L 194.147152 52.366124 
L 191.474871 53.132181 
L 188.810966 53.705218 
L 180.943565 55.827951 
L 178.361028 56.611981 
L 175.774391 57.277083 
L 170.685998 58.914033 
L 163.051903 61.036166 
L 155.540181 63.482582 
L 150.647273 65.413422 
L 145.880579 67.627747 
L 141.222734 70.034366 
L 136.709665 72.686167 
L 132.459918 75.778502 
L 126.624766 81.143161 
L 124.960115 83.315889 
L 123.242508 85.337669 
L 121.607667 87.435347 
L 120.258757 89.9027 
L 117.434082 94.435397 
L 115.417307 99.774652 
L 114.433477 102.350056 
L 113.758565 105.21855 
L 112.868667 107.745903 
L 112.44025 110.716738 
L 112.395999 114.001219 
L 112.01192 116.814613 
L 112.50476 126.293366 
L 116.066935 137.415041 
L 120.391996 145.621434 
L 120.527363 147.918998 
L 122.530536 151.509282 
L 120.27903 151.961429 
L 116.568833 151.496409 
L 110.91251 149.906399 
L 102.738472 149.298691 
L 98.598535 149.184893 
L 93.159032 150.900795 
L 90.644013 151.97981 
L 88.893709 153.499802 
L 86.911523 154.946591 
L 85.285133 156.597069 
L 83.796015 158.336699 
L 81.168502 162.02951 
L 80.054661 163.979436 
L 79.087333 165.99383 
L 78.278858 168.069337 
L 77.673583 170.211624 
L 77.31153 172.421927 
L 76.936999 176.902904 
L 76.963933 179.17279 
L 77.309384 183.713346 
L 77.772786 186.002154 
L 78.443862 188.293682 
L 79.560334 190.611807 
L 81.691431 193.004287 
L 84.378281 195.370707 
L 88.057334 197.72164 
L 92.591191 199.996937 
L 98.644848 202.188252 
L 106.29719 204.220247 
L 116.327285 206.02429 
L 135.350926 207.477187 
L 139.793428 208.520482 
L 117.067746 210.358011 
L 107.679464 212.292639 
L 99.155745 214.498399 
L 94.735985 216.648429 
L 91.67303 218.816959 
L 88.74426 221.08411 
L 87.203758 223.268355 
L 85.340115 225.568434 
L 83.178365 227.999071 
L 80.26608 232.83469 
L 78.975812 235.317107 
L 77.747901 240.117646 
L 77.544164 242.465741 
L 77.557865 244.77813 
L 77.991899 249.337733 
L 78.375668 251.586042 
L 78.584673 253.916704 
L 79.024484 256.178212 
L 79.73164 258.3429 
L 80.743459 260.379389 
L 82.020828 262.288352 
L 83.629354 264.02217 
L 85.725779 265.480531 
L 87.619233 266.999143 
L 91.760238 269.717574 
L 93.452125 271.235484 
L 97.013673 274.073986 
L 101.181166 278.956319 
L 102.627968 283.21172 
L 103.012096 285.663176 
L 103.519609 288.067791 
L 103.500939 290.983315 
L 103.740805 293.756555 
L 104.114485 296.485067 
L 104.034157 299.729043 
L 105.12463 305.271759 
L 105.421772 308.432099 
L 108.030966 316.561712 
L 111.939533 323.75845 
L 116.820807 330.148645 
L 118.689673 332.012345 
L 120.426571 334.123148 
L 122.296185 336.07201 
L 124.287062 337.860235 
L 126.198325 339.831917 
L 128.254706 341.589994 
L 132.594886 344.783706 
L 139.63432 348.662078 
L 144.513226 350.888707 
L 147.051783 351.75263 
L 149.624674 352.510796 
L 154.861219 353.692577 
L 157.509253 354.138646 
L 162.899929 354.527742 
L 176.184793 355.086111 
L 181.348316 355.829993 
L 189.05162 357.807646 
L 191.635484 358.75752 
L 194.254434 359.516095 
L 196.891748 360.556062 
L 199.56375 361.807447 
L 202.271113 362.581935 
L 207.797342 364.583485 
L 210.589873 365.158097 
L 216.295243 366.666713 
L 219.158788 367.065967 
L 222.069287 367.612404 
L 224.974583 367.91487 
L 227.861044 367.959116 
L 230.793115 368.138342 
L 233.688633 368.022139 
L 242.325337 367.065605 
L 248.023906 365.983216 
L 253.576458 364.341481 
L 256.35256 363.503161 
L 261.726545 361.335503 
L 274.979113 355.48817 
L 280.1536 352.865125 
L 285.224883 350.041253 
L 287.690372 348.509263 
L 290.082211 346.863393 
L 294.62577 343.239822 
L 296.799081 341.31014 
L 300.767017 337.011462 
L 302.603991 334.721288 
L 304.261242 332.2508 
L 306.041168 329.965445 
L 307.595891 327.459035 
L 308.930685 324.758867 
L 310.376055 322.226689 
L 312.915002 316.939219 
L 315.751577 312.093176 
L 317.332345 309.851865 
L 319.014314 307.708112 
L 320.783408 305.638931 
L 324.628833 301.720487 
L 328.731671 297.921539 
L 332.642902 293.8998 
L 336.050202 289.486521 
L 337.554319 287.14608 
L 338.847157 284.68324 
L 339.975606 282.135495 
L 341.493645 276.701023 
L 341.974406 270.882496 
L 342.170579 268.010195 
L 340.904584 258.921044 
L 338.723094 252.692799 
L 337.41796 249.623449 
L 335.038982 246.324085 
L 331.161134 240.2881 
L 328.422467 237.226566 
L 325.143991 231.887514 
L 322.886126 229.22225 
L 321.100668 226.726744 
L 318.430086 224.182762 
L 315.200118 221.675548 
L 312.501136 219.347385 
L 309.362032 217.083292 
L 306.89587 214.98258 
L 306.522013 213.082633 
L 306.498058 211.211416 
L 308.462126 209.378016 
L 308.462126 209.378016 
" clip-path="url(#p853735a87d)" style="fill: none; stroke: #ff0000; stroke-width: 1.5; stroke-linecap: square"/>
   </g>
   <g id="line2d_20">
    <path d="M 238.507236 207.477187 
L 280.975128 206.056147 
L 297.996884 204.039827 
L 307.43473 201.823909 
L 313.920147 199.480609 
L 318.790113 197.046232 
L 322.635434 194.541832 
L 325.764029 191.981742 
L 328.342572 189.378504 
L 330.491472 186.740273 
L 332.285038 184.074843 
L 333.784697 181.387278 
L 335.026406 178.683711 
L 336.043525 175.968349 
L 336.86177 173.244946 
L 337.49679 170.518141 
L 337.969179 167.790069 
L 338.289532 165.06446 
L 338.470893 162.343521 
L 338.521352 159.630248 
L 338.453835 156.925331 
L 337.982346 151.552445 
L 337.112862 146.236377 
L 335.889132 140.986856 
L 334.350561 135.809769 
L 332.534068 130.706738 
L 330.468778 125.678648 
L 328.180819 120.723879 
L 325.690725 115.840576 
L 323.014109 111.027197 
L 320.16018 106.284768 
L 317.136786 101.61395 
L 313.942854 97.022571 
L 310.574572 92.522116 
L 307.032562 88.12098 
L 303.309676 83.837607 
L 299.403866 79.687667 
L 295.31303 75.689609 
L 291.036897 71.86267 
L 286.578459 68.224545 
L 281.943657 64.791002 
L 277.139822 61.577816 
L 272.174556 58.602972 
L 267.060349 55.877344 
L 261.809487 53.413582 
L 256.435332 51.2238 
L 250.954683 49.312159 
L 245.380788 47.694186 
L 239.73231 46.369894 
L 234.02586 45.345705 
L 228.278158 44.629685 
L 222.508217 44.218824 
L 216.733632 44.116673 
L 210.972585 44.323248 
L 205.243252 44.837541 
L 199.56375 45.654949 
L 193.951906 46.775006 
L 188.425381 48.191095 
L 183.00153 49.898191 
L 177.697796 51.892842 
L 172.530989 54.166779 
L 167.51833 56.715339 
L 162.677387 59.534066 
L 158.026585 62.619879 
L 153.586765 65.974576 
L 149.380845 69.600788 
L 145.43481 73.50336 
L 141.784881 77.703723 
L 140.082643 79.919542 
L 138.47158 82.219677 
L 136.959903 84.610219 
L 135.55395 87.092262 
L 134.266516 89.677858 
L 133.108803 92.373843 
L 132.096637 95.193055 
L 131.24419 98.143036 
L 130.580394 101.252134 
L 130.133505 104.542616 
L 129.942469 108.047694 
L 130.033737 111.777334 
L 130.481333 115.801723 
L 131.348739 120.165955 
L 132.686933 124.891197 
L 134.466295 129.897062 
L 136.297693 134.697915 
L 136.966601 137.95601 
L 135.042925 138.287074 
L 131.073133 136.553078 
L 126.51427 134.427707 
L 122.08361 132.655486 
L 117.984047 131.402884 
L 114.219802 130.633152 
L 110.734905 130.25945 
L 107.507458 130.232787 
L 104.492696 130.490166 
L 101.662267 130.988166 
L 99.005771 131.701315 
L 96.490554 132.590127 
L 94.144813 133.662053 
L 91.918536 134.869574 
L 89.825662 136.21244 
L 87.858477 137.675986 
L 86.01069 139.247625 
L 84.284264 140.920545 
L 82.674133 142.684215 
L 81.179245 144.531029 
L 79.805087 146.457101 
L 78.547806 148.453768 
L 77.407802 150.514934 
L 76.389943 152.636675 
L 75.496632 154.81382 
L 74.727716 157.040156 
L 74.087609 159.31141 
L 73.583039 161.623959 
L 73.215808 163.972102 
L 72.992428 166.351672 
L 72.921793 168.758856 
L 73.007802 171.187853 
L 73.264134 173.635307 
L 73.701975 176.096323 
L 74.344978 178.568156 
L 75.169035 181.036275 
L 76.268153 183.510951 
L 77.592769 185.970413 
L 79.244865 188.420548 
L 81.250658 190.849367 
L 83.687177 193.249333 
L 86.631485 195.607528 
L 90.28868 197.916858 
L 94.915495 200.159469 
L 101.025626 202.313023 
L 109.775879 204.341726 
L 124.665025 206.169825 
L 191.64375 207.477187 
L 126.775845 208.747705 
L 110.830807 210.57581 
L 101.745516 212.603624 
L 95.454836 214.757192 
L 90.724691 216.999371 
L 86.989949 219.309171 
L 83.968268 221.670528 
L 81.505608 224.069177 
L 79.473723 226.497579 
L 77.820959 228.943726 
L 76.445061 231.409036 
L 75.345316 233.880631 
L 74.495493 236.35147 
L 73.85186 238.820682 
L 73.403397 241.281752 
L 73.138968 243.72891 
L 73.042435 246.158636 
L 73.10751 248.565311 
L 73.325351 250.944554 
L 73.68465 253.293433 
L 74.186155 255.605137 
L 74.818425 257.87757 
L 75.584318 260.103334 
L 76.474614 262.280002 
L 77.487136 264.402448 
L 78.621854 266.464492 
L 79.8762 268.46104 
L 81.249714 270.385876 
L 82.739435 272.233963 
L 84.346694 273.997786 
L 86.070274 275.670948 
L 87.915244 277.242917 
L 89.881801 278.705478 
L 91.971897 280.048809 
L 94.186993 281.262787 
L 96.55304 282.318849 
L 99.046894 283.222071 
L 101.702843 283.934507 
L 104.532712 284.431804 
L 107.546902 284.68849 
L 110.793196 284.644253 
L 114.277201 284.269541 
L 118.059364 283.481257 
L 122.15769 282.227351 
L 126.623499 280.417439 
L 135.306302 276.384864 
L 137.27669 276.653976 
L 136.567944 279.945573 
L 134.664883 284.820645 
L 132.832754 289.883105 
L 131.459693 294.646406 
L 130.558803 299.049845 
L 130.094268 303.093726 
L 129.98677 306.843413 
L 130.191092 310.326383 
L 130.62246 313.637464 
L 131.285119 316.745838 
L 132.128461 319.708356 
L 133.137123 322.53148 
L 134.291479 325.231481 
L 135.575706 327.821195 
L 136.978604 330.307453 
L 138.489638 332.697674 
L 140.098964 334.999833 
L 141.798494 337.220076 
L 145.446383 341.42237 
L 149.38965 345.329394 
L 153.593925 348.957762 
L 158.032262 352.314697 
L 162.681872 355.402322 
L 167.521756 358.222919 
L 172.533537 360.773144 
L 177.699624 363.048531 
L 183.002876 365.043382 
L 188.4261 366.753006 
L 193.952176 368.17165 
L 199.56375 369.291702 
L 205.243162 370.114261 
L 210.972405 370.628558 
L 216.733632 370.837702 
L 222.508575 370.738101 
L 228.279053 370.329761 
L 234.026931 369.613706 
L 239.734178 368.591975 
L 245.383627 367.270089 
L 250.958661 365.654459 
L 256.441496 363.74751 
L 261.817203 361.55989 
L 267.069773 359.098199 
L 272.186971 356.376857 
L 277.154326 353.403837 
L 281.962967 350.196817 
L 286.601652 346.766947 
L 291.064251 343.132259 
L 295.344809 339.308506 
L 299.441907 335.315399 
L 303.356014 331.171991 
L 307.085966 326.892706 
L 310.637168 322.497079 
L 314.015081 318.001554 
L 317.219057 313.414502 
L 320.256819 308.750697 
L 323.121837 304.011345 
L 325.811948 299.201872 
L 328.316354 294.321915 
L 330.619647 289.370001 
L 332.701291 284.344183 
L 334.535373 279.242872 
L 336.092764 274.066837 
L 337.338652 268.818526 
L 338.232991 263.503197 
L 338.732055 258.130308 
L 338.815902 255.425549 
L 338.781859 252.711893 
L 338.621911 249.991534 
L 338.32308 247.265785 
L 337.874789 244.537519 
L 337.26646 241.810329 
L 336.482526 239.087378 
L 335.502365 236.371832 
L 334.305313 233.668294 
L 332.860585 230.981016 
L 331.129732 228.315192 
L 329.061533 225.676914 
L 326.581748 223.073037 
L 323.608409 220.514807 
L 319.944257 218.009117 
L 315.358391 215.574338 
L 309.363006 213.231523 
L 300.878638 211.015181 
L 286.767013 208.999326 
L 286.767013 208.999326 
" clip-path="url(#p853735a87d)" style="fill: none; stroke-dasharray: 5.55,2.4; stroke-dashoffset: 0; stroke: #0000ff; stroke-width: 1.5"/>
   </g>
   <g id="patch_3">
    <path d="M 365.88375 207.477187 
C 365.88375 185.636245 361.581561 164.007679 353.223394 143.829279 
C 344.865227 123.650879 332.613628 105.315066 317.16975 89.871188 
C 301.725871 74.427309 283.390058 62.17571 263.211658 53.817544 
C 243.033259 45.459377 221.404692 41.157187 199.56375 41.157187 
C 177.722808 41.157187 156.094241 45.459377 135.915842 53.817544 
C 115.737442 62.17571 97.401629 74.427309 81.95775 89.871188 
C 66.513872 105.315066 54.262273 123.650879 45.904106 143.829279 
C 37.545939 164.007679 33.24375 185.636245 33.24375 207.477187 
C 33.24375 229.31813 37.545939 250.946696 45.904106 271.125096 
C 54.262273 291.303496 66.513872 309.639309 81.95775 325.083187 
C 97.401629 340.527066 115.737442 352.778665 135.915842 361.136831 
C 156.094241 369.494998 177.722808 373.797188 199.56375 373.797188 
C 221.404692 373.797188 243.033259 369.494998 263.211658 361.136831 
C 283.390058 352.778665 301.725871 340.527066 317.16975 325.083187 
C 332.613628 309.639309 344.865227 291.303496 353.223394 271.125096 
C 361.581561 250.946696 365.88375 229.31813 365.88375 207.477188 
" style="fill: none; stroke: #000000; stroke-width: 0.8; stroke-linejoin: miter; stroke-linecap: square"/>
   </g>
   <g id="text_19">
    <!-- Radiation Diagram - 4AVHF06 -->
    <g transform="translate(110.319375 16.318125)scale(0.12 -0.12)">
     <defs>
      <path id="DejaVuSans-52" d="M 2841 2188 
Q 3044 2119 3236 1894 
Q 3428 1669 3622 1275 
L 4263 0 
L 3584 0 
L 2988 1197 
Q 2756 1666 2539 1819 
Q 2322 1972 1947 1972 
L 1259 1972 
L 1259 0 
L 628 0 
L 628 4666 
L 2053 4666 
Q 2853 4666 3247 4331 
Q 3641 3997 3641 3322 
Q 3641 2881 3436 2590 
Q 3231 2300 2841 2188 
z
M 1259 4147 
L 1259 2491 
L 2053 2491 
Q 2509 2491 2742 2702 
Q 2975 2913 2975 3322 
Q 2975 3731 2742 3939 
Q 2509 4147 2053 4147 
L 1259 4147 
z
" transform="scale(0.015625)"/>
      <path id="DejaVuSans-61" d="M 2194 1759 
Q 1497 1759 1228 1600 
Q 959 1441 959 1056 
Q 959 750 1161 570 
Q 1363 391 1709 391 
Q 2188 391 2477 730 
Q 2766 1069 2766 1631 
L 2766 1759 
L 2194 1759 
z
M 3341 1997 
L 3341 0 
L 2766 0 
L 2766 531 
Q 2569 213 2275 61 
Q 1981 -91 1556 -91 
Q 1019 -91 701 211 
Q 384 513 384 1019 
Q 384 1609 779 1909 
Q 1175 2209 1959 2209 
L 2766 2209 
L 2766 2266 
Q 2766 2663 2505 2880 
Q 2244 3097 1772 3097 
Q 1472 3097 1187 3025 
Q 903 2953 641 2809 
L 641 3341 
Q 956 3463 1253 3523 
Q 1550 3584 1831 3584 
Q 2591 3584 2966 3190 
Q 3341 2797 3341 1997 
z
" transform="scale(0.015625)"/>
      <path id="DejaVuSans-64" d="M 2906 2969 
L 2906 4863 
L 3481 4863 
L 3481 0 
L 2906 0 
L 2906 525 
Q 2725 213 2448 61 
Q 2172 -91 1784 -91 
Q 1150 -91 751 415 
Q 353 922 353 1747 
Q 353 2572 751 3078 
Q 1150 3584 1784 3584 
Q 2172 3584 2448 3432 
Q 2725 3281 2906 2969 
z
M 947 1747 
Q 947 1113 1208 752 
Q 1469 391 1925 391 
Q 2381 391 2643 752 
Q 2906 1113 2906 1747 
Q 2906 2381 2643 2742 
Q 2381 3103 1925 3103 
Q 1469 3103 1208 2742 
Q 947 2381 947 1747 
z
" transform="scale(0.015625)"/>
      <path id="DejaVuSans-69" d="M 603 3500 
L 1178 3500 
L 1178 0 
L 603 0 
L 603 3500 
z
M 603 4863 
L 1178 4863 
L 1178 4134 
L 603 4134 
L 603 4863 
z
" transform="scale(0.015625)"/>
      <path id="DejaVuSans-74" d="M 1172 4494 
L 1172 3500 
L 2356 3500 
L 2356 3053 
L 1172 3053 
L 1172 1153 
Q 1172 725 1289 603 
Q 1406 481 1766 481 
L 2356 481 
L 2356 0 
L 1766 0 
Q 1100 0 847 248 
Q 594 497 594 1153 
L 594 3053 
L 172 3053 
L 172 3500 
L 594 3500 
L 594 4494 
L 1172 4494 
z
" transform="scale(0.015625)"/>
      <path id="DejaVuSans-6f" d="M 1959 3097 
Q 1497 3097 1228 2736 
Q 959 2375 959 1747 
Q 959 1119 1226 758 
Q 1494 397 1959 397 
Q 2419 397 2687 759 
Q 2956 1122 2956 1747 
Q 2956 2369 2687 2733 
Q 2419 3097 1959 3097 
z
M 1959 3584 
Q 2709 3584 3137 3096 
Q 3566 2609 3566 1747 
Q 3566 888 3137 398 
Q 2709 -91 1959 -91 
Q 1206 -91 779 398 
Q 353 888 353 1747 
Q 353 2609 779 3096 
Q 1206 3584 1959 3584 
z
" transform="scale(0.015625)"/>
      <path id="DejaVuSans-6e" d="M 3513 2113 
L 3513 0 
L 2938 0 
L 2938 2094 
Q 2938 2591 2744 2837 
Q 2550 3084 2163 3084 
Q 1697 3084 1428 2787 
Q 1159 2491 1159 1978 
L 1159 0 
L 581 0 
L 581 3500 
L 1159 3500 
L 1159 2956 
Q 1366 3272 1645 3428 
Q 1925 3584 2291 3584 
Q 2894 3584 3203 3211 
Q 3513 2838 3513 2113 
z
" transform="scale(0.015625)"/>
      <path id="DejaVuSans-20" transform="scale(0.015625)"/>
      <path id="DejaVuSans-44" d="M 1259 4147 
L 1259 519 
L 2022 519 
Q 2988 519 3436 956 
Q 3884 1394 3884 2338 
Q 3884 3275 3436 3711 
Q 2988 4147 2022 4147 
L 1259 4147 
z
M 628 4666 
L 1925 4666 
Q 3281 4666 3915 4102 
Q 4550 3538 4550 2338 
Q 4550 1131 3912 565 
Q 3275 0 1925 0 
L 628 0 
L 628 4666 
z
" transform="scale(0.015625)"/>
      <path id="DejaVuSans-67" d="M 2906 1791 
Q 2906 2416 2648 2759 
Q 2391 3103 1925 3103 
Q 1463 3103 1205 2759 
Q 947 2416 947 1791 
Q 947 1169 1205 825 
Q 1463 481 1925 481 
Q 2391 481 2648 825 
Q 2906 1169 2906 1791 
z
M 3481 434 
Q 3481 -459 3084 -895 
Q 2688 -1331 1869 -1331 
Q 1566 -1331 1297 -1286 
Q 1028 -1241 775 -1147 
L 775 -588 
Q 1028 -725 1275 -790 
Q 1522 -856 1778 -856 
Q 2344 -856 2625 -561 
Q 2906 -266 2906 331 
L 2906 616 
Q 2728 306 2450 153 
Q 2172 0 1784 0 
Q 1141 0 747 490 
Q 353 981 353 1791 
Q 353 2603 747 3093 
Q 1141 3584 1784 3584 
Q 2172 3584 2450 3431 
Q 2728 3278 2906 2969 
L 2906 3500 
L 3481 3500 
L 3481 434 
z
" transform="scale(0.015625)"/>
      <path id="DejaVuSans-72" d="M 2631 2963 
Q 2534 3019 2420 3045 
Q 2306 3072 2169 3072 
Q 1681 3072 1420 2755 
Q 1159 2438 1159 1844 
L 1159 0 
L 581 0 
L 581 3500 
L 1159 3500 
L 1159 2956 
Q 1341 3275 1631 3429 
Q 1922 3584 2338 3584 
Q 2397 3584 2469 3576 
Q 2541 3569 2628 3553 
L 2631 2963 
z
" transform="scale(0.015625)"/>
      <path id="DejaVuSans-6d" d="M 3328 2828 
Q 3544 3216 3844 3400 
Q 4144 3584 4550 3584 
Q 5097 3584 5394 3201 
Q 5691 2819 5691 2113 
L 5691 0 
L 5113 0 
L 5113 2094 
Q 5113 2597 4934 2840 
Q 4756 3084 4391 3084 
Q 3944 3084 3684 2787 
Q 3425 2491 3425 1978 
L 3425 0 
L 2847 0 
L 2847 2094 
Q 2847 2600 2669 2842 
Q 2491 3084 2119 3084 
Q 1678 3084 1418 2786 
Q 1159 2488 1159 1978 
L 1159 0 
L 581 0 
L 581 3500 
L 1159 3500 
L 1159 2956 
Q 1356 3278 1631 3431 
Q 1906 3584 2284 3584 
Q 2666 3584 2933 3390 
Q 3200 3197 3328 2828 
z
" transform="scale(0.015625)"/>
      <path id="DejaVuSans-2d" d="M 313 2009 
L 1997 2009 
L 1997 1497 
L 313 1497 
L 313 2009 
z
" transform="scale(0.015625)"/>
      <path id="DejaVuSans-41" d="M 2188 4044 
L 1331 1722 
L 3047 1722 
L 2188 4044 
z
M 1831 4666 
L 2547 4666 
L 4325 0 
L 3669 0 
L 3244 1197 
L 1141 1197 
L 716 0 
L 50 0 
L 1831 4666 
z
" transform="scale(0.015625)"/>
      <path id="DejaVuSans-56" d="M 1831 0 
L 50 4666 
L 709 4666 
L 2188 738 
L 3669 4666 
L 4325 4666 
L 2547 0 
L 1831 0 
z
" transform="scale(0.015625)"/>
      <path id="DejaVuSans-48" d="M 628 4666 
L 1259 4666 
L 1259 2753 
L 3553 2753 
L 3553 4666 
L 4184 4666 
L 4184 0 
L 3553 0 
L 3553 2222 
L 1259 2222 
L 1259 0 
L 628 0 
L 628 4666 
z
" transform="scale(0.015625)"/>
      <path id="DejaVuSans-46" d="M 628 4666 
L 3309 4666 
L 3309 4134 
L 1259 4134 
L 1259 2759 
L 3109 2759 
L 3109 2228 
L 1259 2228 
L 1259 0 
L 628 0 
L 628 4666 
z
" transform="scale(0.015625)"/>
     </defs>
     <use xlink:href="#DejaVuSans-52"/>
     <use xlink:href="#DejaVuSans-61" x="67.232422"/>
     <use xlink:href="#DejaVuSans-64" x="128.511719"/>
     <use xlink:href="#DejaVuSans-69" x="191.988281"/>
     <use xlink:href="#DejaVuSans-61" x="219.771484"/>
     <use xlink:href="#DejaVuSans-74" x="281.050781"/>
     <use xlink:href="#DejaVuSans-69" x="320.259766"/>
     <use xlink:href="#DejaVuSans-6f" x="348.042969"/>
     <use xlink:href="#DejaVuSans-6e" x="409.224609"/>
     <use xlink:href="#DejaVuSans-20" x="472.603516"/>
     <use xlink:href="#DejaVuSans-44" x="504.390625"/>
     <use xlink:href="#DejaVuSans-69" x="581.392578"/>
     <use xlink:href="#DejaVuSans-61" x="609.175781"/>
     <use xlink:href="#DejaVuSans-67" x="670.455078"/>
     <use xlink:href="#DejaVuSans-72" x="733.931641"/>
     <use xlink:href="#DejaVuSans-61" x="775.044922"/>
     <use xlink:href="#DejaVuSans-6d" x="836.324219"/>
     <use xlink:href="#DejaVuSans-20" x="933.736328"/>
     <use xlink:href="#DejaVuSans-2d" x="965.523438"/>
     <use xlink:href="#DejaVuSans-20" x="1001.607422"/>
     <use xlink:href="#DejaVuSans-34" x="1033.394531"/>
     <use xlink:href="#DejaVuSans-41" x="1097.017578"/>
     <use xlink:href="#DejaVuSans-56" x="1159.050781"/>
     <use xlink:href="#DejaVuSans-48" x="1227.458984"/>
     <use xlink:href="#DejaVuSans-46" x="1302.654297"/>
     <use xlink:href="#DejaVuSans-30" x="1360.173828"/>
     <use xlink:href="#DejaVuSans-36" x="1423.796875"/>
    </g>
   </g>
   <g id="legend_1">
    <g id="patch_4">
     <path d="M 304.104062 78.513437 
L 358.88375 78.513437 
Q 360.88375 78.513437 360.88375 76.513437 
L 360.88375 48.157187 
Q 360.88375 46.157187 358.88375 46.157187 
L 304.104062 46.157187 
Q 302.104062 46.157187 302.104062 48.157187 
L 302.104062 76.513437 
Q 302.104062 78.513437 304.104062 78.513437 
z
" style="fill: #ffffff; opacity: 0.8; stroke: #cccccc; stroke-linejoin: miter"/>
    </g>
    <g id="line2d_21">
     <path d="M 306.104062 54.255625 
L 316.104062 54.255625 
L 326.104062 54.255625 
" style="fill: none; stroke: #ff0000; stroke-width: 1.5; stroke-linecap: square"/>
    </g>
    <g id="text_20">
     <!-- INPE -->
     <g transform="translate(334.104062 57.755625)scale(0.1 -0.1)">
      <defs>
       <path id="DejaVuSans-49" d="M 628 4666 
L 1259 4666 
L 1259 0 
L 628 0 
L 628 4666 
z
" transform="scale(0.015625)"/>
       <path id="DejaVuSans-4e" d="M 628 4666 
L 1478 4666 
L 3547 763 
L 3547 4666 
L 4159 4666 
L 4159 0 
L 3309 0 
L 1241 3903 
L 1241 0 
L 628 0 
L 628 4666 
z
" transform="scale(0.015625)"/>
       <path id="DejaVuSans-50" d="M 1259 4147 
L 1259 2394 
L 2053 2394 
Q 2494 2394 2734 2622 
Q 2975 2850 2975 3272 
Q 2975 3691 2734 3919 
Q 2494 4147 2053 4147 
L 1259 4147 
z
M 628 4666 
L 2053 4666 
Q 2838 4666 3239 4311 
Q 3641 3956 3641 3272 
Q 3641 2581 3239 2228 
Q 2838 1875 2053 1875 
L 1259 1875 
L 1259 0 
L 628 0 
L 628 4666 
z
" transform="scale(0.015625)"/>
       <path id="DejaVuSans-45" d="M 628 4666 
L 3578 4666 
L 3578 4134 
L 1259 4134 
L 1259 2753 
L 3481 2753 
L 3481 2222 
L 1259 2222 
L 1259 531 
L 3634 531 
L 3634 0 
L 628 0 
L 628 4666 
z
" transform="scale(0.015625)"/>
      </defs>
      <use xlink:href="#DejaVuSans-49"/>
      <use xlink:href="#DejaVuSans-4e" x="29.492188"/>
      <use xlink:href="#DejaVuSans-50" x="104.296875"/>
      <use xlink:href="#DejaVuSans-45" x="164.599609"/>
     </g>
    </g>
    <g id="line2d_22">
     <path d="M 306.104062 68.93375 
L 316.104062 68.93375 
L 326.104062 68.93375 
" style="fill: none; stroke-dasharray: 5.55,2.4; stroke-dashoffset: 0; stroke: #0000ff; stroke-width: 1.5"/>
    </g>
    <g id="text_21">
     <!-- CST -->
     <g transform="translate(334.104062 72.43375)scale(0.1 -0.1)">
      <defs>
       <path id="DejaVuSans-43" d="M 4122 4306 
L 4122 3641 
Q 3803 3938 3442 4084 
Q 3081 4231 2675 4231 
Q 1875 4231 1450 3742 
Q 1025 3253 1025 2328 
Q 1025 1406 1450 917 
Q 1875 428 2675 428 
Q 3081 428 3442 575 
Q 3803 722 4122 1019 
L 4122 359 
Q 3791 134 3420 21 
Q 3050 -91 2638 -91 
Q 1578 -91 968 557 
Q 359 1206 359 2328 
Q 359 3453 968 4101 
Q 1578 4750 2638 4750 
Q 3056 4750 3426 4639 
Q 3797 4528 4122 4306 
z
" transform="scale(0.015625)"/>
       <path id="DejaVuSans-53" d="M 3425 4513 
L 3425 3897 
Q 3066 4069 2747 4153 
Q 2428 4238 2131 4238 
Q 1616 4238 1336 4038 
Q 1056 3838 1056 3469 
Q 1056 3159 1242 3001 
Q 1428 2844 1947 2747 
L 2328 2669 
Q 3034 2534 3370 2195 
Q 3706 1856 3706 1288 
Q 3706 609 3251 259 
Q 2797 -91 1919 -91 
Q 1588 -91 1214 -16 
Q 841 59 441 206 
L 441 856 
Q 825 641 1194 531 
Q 1563 422 1919 422 
Q 2459 422 2753 634 
Q 3047 847 3047 1241 
Q 3047 1584 2836 1778 
Q 2625 1972 2144 2069 
L 1759 2144 
Q 1053 2284 737 2584 
Q 422 2884 422 3419 
Q 422 4038 858 4394 
Q 1294 4750 2059 4750 
Q 2388 4750 2728 4690 
Q 3069 4631 3425 4513 
z
" transform="scale(0.015625)"/>
       <path id="DejaVuSans-54" d="M -19 4666 
L 3928 4666 
L 3928 4134 
L 2272 4134 
L 2272 0 
L 1638 0 
L 1638 4134 
L -19 4134 
L -19 4666 
z
" transform="scale(0.015625)"/>
      </defs>
      <use xlink:href="#DejaVuSans-43"/>
      <use xlink:href="#DejaVuSans-53" x="69.824219"/>
      <use xlink:href="#DejaVuSans-54" x="133.300781"/>
     </g>
    </g>
   </g>
  </g>
 </g>
 <defs>
  <clipPath id="p853735a87d">
   <path d="M 365.88375 207.477187 
C 365.88375 185.636245 361.581561 164.007679 353.223394 143.829279 
C 344.865227 123.650879 332.613628 105.315066 317.16975 89.871188 
C 301.725871 74.427309 283.390058 62.17571 263.211658 53.817544 
C 243.033259 45.459377 221.404692 41.157187 199.56375 41.157187 
C 177.722808 41.157187 156.094241 45.459377 135.915842 53.817544 
C 115.737442 62.17571 97.401629 74.427309 81.95775 89.871188 
C 66.513872 105.315066 54.262273 123.650879 45.904106 143.829279 
C 37.545939 164.007679 33.24375 185.636245 33.24375 207.477187 
C 33.24375 229.31813 37.545939 250.946696 45.904106 271.125096 
C 54.262273 291.303496 66.513872 309.639309 81.95775 325.083187 
C 97.401629 340.527066 115.737442 352.778665 135.915842 361.136831 
C 156.094241 369.494998 177.722808 373.797188 199.56375 373.797188 
C 221.404692 373.797188 243.033259 369.494998 263.211658 361.136831 
C 283.390058 352.778665 301.725871 340.527066 317.16975 325.083187 
C 332.613628 309.639309 344.865227 291.303496 353.223394 271.125096 
C 361.581561 250.946696 365.88375 229.31813 365.88375 207.477188 
M 199.56375 207.477187 
C 199.56375 207.477187 199.56375 207.477187 199.56375 207.477187 
C 199.56375 207.477187 199.56375 207.477187 199.56375 207.477187 
C 199.56375 207.477187 199.56375 207.477187 199.56375 207.477187 
C 199.56375 207.477187 199.56375 207.477187 199.56375 207.477187 
C 199.56375 207.477187 199.56375 207.477187 199.56375 207.477187 
C 199.56375 207.477187 199.56375 207.477187 199.56375 207.477187 
C 199.56375 207.477187 199.56375 207.477187 199.56375 207.477187 
C 199.56375 207.477187 199.56375 207.477187 199.56375 207.477187 
C 199.56375 207.477187 199.56375 207.477187 199.56375 207.477187 
C 199.56375 207.477187 199.56375 207.477187 199.56375 207.477187 
C 199.56375 207.477187 199.56375 207.477187 199.56375 207.477187 
C 199.56375 207.477187 199.56375 207.477187 199.56375 207.477187 
C 199.56375 207.477187 199.56375 207.477187 199.56375 207.477187 
C 199.56375 207.477187 199.56375 207.477187 199.56375 207.477187 
C 199.56375 207.477187 199.56375 207.477187 199.56375 207.477187 
C 199.56375 207.477187 199.56375 207.477187 199.56375 207.477187 
M 365.88375 207.477187 
z
"/>
  </clipPath>
 </defs>
</svg>
