<?xml version="1.0" encoding="utf-8" standalone="no"?>
<!DOCTYPE svg PUBLIC "-//W3C//DTD SVG 1.1//EN"
  "http://www.w3.org/Graphics/SVG/1.1/DTD/svg11.dtd">
<svg xmlns:xlink="http://www.w3.org/1999/xlink" width="506.82625pt" height="514.053188pt" viewBox="0 0 506.82625 514.053188" xmlns="http://www.w3.org/2000/svg" version="1.1">
 <metadata>
  <rdf:RDF xmlns:dc="http://purl.org/dc/elements/1.1/" xmlns:cc="http://creativecommons.org/ns#" xmlns:rdf="http://www.w3.org/1999/02/22-rdf-syntax-ns#">
   <cc:Work>
    <dc:type rdf:resource="http://purl.org/dc/dcmitype/StillImage"/>
    <dc:date>2023-11-04T18:16:29.130668</dc:date>
    <dc:format>image/svg+xml</dc:format>
    <dc:creator>
     <cc:Agent>
      <dc:title>Matplotlib v3.5.1, https://matplotlib.org/</dc:title>
     </cc:Agent>
    </dc:creator>
   </cc:Work>
  </rdf:RDF>
 </metadata>
 <defs>
  <style type="text/css">*{stroke-linejoin: round; stroke-linecap: butt}</style>
 </defs>
 <g id="figure_1">
  <g id="patch_1">
   <path d="M 0 514.053188 
L 506.82625 514.053188 
L 506.82625 0 
L 0 0 
z
" style="fill: #ffffff"/>
  </g>
  <g id="axes_1">
   <g id="patch_2">
    <path d="M 473.5825 262.917188 
C 473.5825 233.795931 467.846247 204.957842 456.702025 178.05331 
C 445.557803 151.148777 429.222338 126.701026 408.6305 106.109188 
C 388.038662 85.51735 363.590911 69.181885 336.686378 58.037662 
C 309.781845 46.89344 280.943756 41.157188 251.8225 41.157188 
C 222.701244 41.157188 193.863155 46.89344 166.958622 58.037662 
C 140.054089 69.181885 115.606338 85.51735 95.0145 106.109188 
C 74.422662 126.701026 58.087197 151.148777 46.942975 178.05331 
C 35.798753 204.957842 30.0625 233.795931 30.0625 262.917188 
C 30.0625 292.038444 35.798753 320.876533 46.942975 347.781065 
C 58.087197 374.685598 74.422662 399.133349 95.0145 419.725187 
C 115.606338 440.317025 140.054089 456.65249 166.958622 467.796713 
C 193.863155 478.940935 222.701244 484.677188 251.8225 484.677188 
C 280.943756 484.677188 309.781845 478.940935 336.686378 467.796713 
C 363.590911 456.65249 388.038662 440.317025 408.6305 419.725187 
C 429.222338 399.133349 445.557803 374.685598 456.702025 347.781065 
C 467.846247 320.876533 473.5825 292.038444 473.5825 262.917188 
M 251.8225 262.917188 
C 251.8225 262.917188 251.8225 262.917188 251.8225 262.917188 
C 251.8225 262.917188 251.8225 262.917188 251.8225 262.917188 
C 251.8225 262.917188 251.8225 262.917188 251.8225 262.917188 
C 251.8225 262.917188 251.8225 262.917188 251.8225 262.917188 
C 251.8225 262.917188 251.8225 262.917188 251.8225 262.917188 
C 251.8225 262.917188 251.8225 262.917188 251.8225 262.917188 
C 251.8225 262.917188 251.8225 262.917188 251.8225 262.917188 
C 251.8225 262.917188 251.8225 262.917188 251.8225 262.917188 
C 251.8225 262.917188 251.8225 262.917188 251.8225 262.917188 
C 251.8225 262.917188 251.8225 262.917188 251.8225 262.917188 
C 251.8225 262.917188 251.8225 262.917188 251.8225 262.917188 
C 251.8225 262.917188 251.8225 262.917188 251.8225 262.917188 
C 251.8225 262.917188 251.8225 262.917188 251.8225 262.917188 
C 251.8225 262.917188 251.8225 262.917188 251.8225 262.917188 
C 251.8225 262.917188 251.8225 262.917188 251.8225 262.917188 
C 251.8225 262.917188 251.8225 262.917188 251.8225 262.917188 
M 473.5825 262.917188 
z
" style="fill: #ffffff"/>
   </g>
   <g id="matplotlib.axis_1">
    <g id="xtick_1">
     <g id="line2d_1">
      <path d="M 251.8225 262.917188 
L 251.8225 41.157188 
" clip-path="url(#p5a2392474b)" style="fill: none; stroke: #b0b0b0; stroke-width: 0.8; stroke-linecap: square"/>
     </g>
     <g id="text_1">
      <!-- 0° -->
      <g transform="translate(246.14125 29.916563)scale(0.1 -0.1)">
       <defs>
        <path id="DejaVuSans-30" d="M 2034 4250 
Q 1547 4250 1301 3770 
Q 1056 3291 1056 2328 
Q 1056 1369 1301 889 
Q 1547 409 2034 409 
Q 2525 409 2770 889 
Q 3016 1369 3016 2328 
Q 3016 3291 2770 3770 
Q 2525 4250 2034 4250 
z
M 2034 4750 
Q 2819 4750 3233 4129 
Q 3647 3509 3647 2328 
Q 3647 1150 3233 529 
Q 2819 -91 2034 -91 
Q 1250 -91 836 529 
Q 422 1150 422 2328 
Q 422 3509 836 4129 
Q 1250 4750 2034 4750 
z
" transform="scale(0.015625)"/>
        <path id="DejaVuSans-b0" d="M 1600 4347 
Q 1350 4347 1178 4173 
Q 1006 4000 1006 3750 
Q 1006 3503 1178 3333 
Q 1350 3163 1600 3163 
Q 1850 3163 2022 3333 
Q 2194 3503 2194 3750 
Q 2194 3997 2020 4172 
Q 1847 4347 1600 4347 
z
M 1600 4750 
Q 1800 4750 1984 4673 
Q 2169 4597 2303 4453 
Q 2447 4313 2519 4134 
Q 2591 3956 2591 3750 
Q 2591 3338 2302 3052 
Q 2013 2766 1594 2766 
Q 1172 2766 890 3047 
Q 609 3328 609 3750 
Q 609 4169 896 4459 
Q 1184 4750 1600 4750 
z
" transform="scale(0.015625)"/>
       </defs>
       <use xlink:href="#DejaVuSans-30"/>
       <use xlink:href="#DejaVuSans-b0" x="63.623047"/>
      </g>
     </g>
    </g>
    <g id="xtick_2">
     <g id="line2d_2">
      <path d="M 251.8225 262.917188 
L 95.0145 106.109188 
" clip-path="url(#p5a2392474b)" style="fill: none; stroke: #b0b0b0; stroke-width: 0.8; stroke-linecap: square"/>
     </g>
     <g id="text_2">
      <!-- 45° -->
      <g transform="translate(76.252505 98.969068)scale(0.1 -0.1)">
       <defs>
        <path id="DejaVuSans-34" d="M 2419 4116 
L 825 1625 
L 2419 1625 
L 2419 4116 
z
M 2253 4666 
L 3047 4666 
L 3047 1625 
L 3713 1625 
L 3713 1100 
L 3047 1100 
L 3047 0 
L 2419 0 
L 2419 1100 
L 313 1100 
L 313 1709 
L 2253 4666 
z
" transform="scale(0.015625)"/>
        <path id="DejaVuSans-35" d="M 691 4666 
L 3169 4666 
L 3169 4134 
L 1269 4134 
L 1269 2991 
Q 1406 3038 1543 3061 
Q 1681 3084 1819 3084 
Q 2600 3084 3056 2656 
Q 3513 2228 3513 1497 
Q 3513 744 3044 326 
Q 2575 -91 1722 -91 
Q 1428 -91 1123 -41 
Q 819 9 494 109 
L 494 744 
Q 775 591 1075 516 
Q 1375 441 1709 441 
Q 2250 441 2565 725 
Q 2881 1009 2881 1497 
Q 2881 1984 2565 2268 
Q 2250 2553 1709 2553 
Q 1456 2553 1204 2497 
Q 953 2441 691 2322 
L 691 4666 
z
" transform="scale(0.015625)"/>
       </defs>
       <use xlink:href="#DejaVuSans-34"/>
       <use xlink:href="#DejaVuSans-35" x="63.623047"/>
       <use xlink:href="#DejaVuSans-b0" x="127.246094"/>
      </g>
     </g>
    </g>
    <g id="xtick_3">
     <g id="line2d_3">
      <path d="M 251.8225 262.917188 
L 30.0625 262.917188 
" clip-path="url(#p5a2392474b)" style="fill: none; stroke: #b0b0b0; stroke-width: 0.8; stroke-linecap: square"/>
     </g>
     <g id="text_3">
      <!-- 90° -->
      <g transform="translate(7.2 265.676563)scale(0.1 -0.1)">
       <defs>
        <path id="DejaVuSans-39" d="M 703 97 
L 703 672 
Q 941 559 1184 500 
Q 1428 441 1663 441 
Q 2288 441 2617 861 
Q 2947 1281 2994 2138 
Q 2813 1869 2534 1725 
Q 2256 1581 1919 1581 
Q 1219 1581 811 2004 
Q 403 2428 403 3163 
Q 403 3881 828 4315 
Q 1253 4750 1959 4750 
Q 2769 4750 3195 4129 
Q 3622 3509 3622 2328 
Q 3622 1225 3098 567 
Q 2575 -91 1691 -91 
Q 1453 -91 1209 -44 
Q 966 3 703 97 
z
M 1959 2075 
Q 2384 2075 2632 2365 
Q 2881 2656 2881 3163 
Q 2881 3666 2632 3958 
Q 2384 4250 1959 4250 
Q 1534 4250 1286 3958 
Q 1038 3666 1038 3163 
Q 1038 2656 1286 2365 
Q 1534 2075 1959 2075 
z
" transform="scale(0.015625)"/>
       </defs>
       <use xlink:href="#DejaVuSans-39"/>
       <use xlink:href="#DejaVuSans-30" x="63.623047"/>
       <use xlink:href="#DejaVuSans-b0" x="127.246094"/>
      </g>
     </g>
    </g>
    <g id="xtick_4">
     <g id="line2d_4">
      <path d="M 251.8225 262.917188 
L 95.0145 419.725187 
" clip-path="url(#p5a2392474b)" style="fill: none; stroke: #b0b0b0; stroke-width: 0.8; stroke-linecap: square"/>
     </g>
     <g id="text_4">
      <!-- 135° -->
      <g transform="translate(73.071255 432.384057)scale(0.1 -0.1)">
       <defs>
        <path id="DejaVuSans-31" d="M 794 531 
L 1825 531 
L 1825 4091 
L 703 3866 
L 703 4441 
L 1819 4666 
L 2450 4666 
L 2450 531 
L 3481 531 
L 3481 0 
L 794 0 
L 794 531 
z
" transform="scale(0.015625)"/>
        <path id="DejaVuSans-33" d="M 2597 2516 
Q 3050 2419 3304 2112 
Q 3559 1806 3559 1356 
Q 3559 666 3084 287 
Q 2609 -91 1734 -91 
Q 1441 -91 1130 -33 
Q 819 25 488 141 
L 488 750 
Q 750 597 1062 519 
Q 1375 441 1716 441 
Q 2309 441 2620 675 
Q 2931 909 2931 1356 
Q 2931 1769 2642 2001 
Q 2353 2234 1838 2234 
L 1294 2234 
L 1294 2753 
L 1863 2753 
Q 2328 2753 2575 2939 
Q 2822 3125 2822 3475 
Q 2822 3834 2567 4026 
Q 2313 4219 1838 4219 
Q 1578 4219 1281 4162 
Q 984 4106 628 3988 
L 628 4550 
Q 988 4650 1302 4700 
Q 1616 4750 1894 4750 
Q 2613 4750 3031 4423 
Q 3450 4097 3450 3541 
Q 3450 3153 3228 2886 
Q 3006 2619 2597 2516 
z
" transform="scale(0.015625)"/>
       </defs>
       <use xlink:href="#DejaVuSans-31"/>
       <use xlink:href="#DejaVuSans-33" x="63.623047"/>
       <use xlink:href="#DejaVuSans-35" x="127.246094"/>
       <use xlink:href="#DejaVuSans-b0" x="190.869141"/>
      </g>
     </g>
    </g>
    <g id="xtick_5">
     <g id="line2d_5">
      <path d="M 251.8225 262.917188 
L 251.8225 484.677188 
" clip-path="url(#p5a2392474b)" style="fill: none; stroke: #b0b0b0; stroke-width: 0.8; stroke-linecap: square"/>
     </g>
     <g id="text_5">
      <!-- 180° -->
      <g transform="translate(239.77875 501.436563)scale(0.1 -0.1)">
       <defs>
        <path id="DejaVuSans-38" d="M 2034 2216 
Q 1584 2216 1326 1975 
Q 1069 1734 1069 1313 
Q 1069 891 1326 650 
Q 1584 409 2034 409 
Q 2484 409 2743 651 
Q 3003 894 3003 1313 
Q 3003 1734 2745 1975 
Q 2488 2216 2034 2216 
z
M 1403 2484 
Q 997 2584 770 2862 
Q 544 3141 544 3541 
Q 544 4100 942 4425 
Q 1341 4750 2034 4750 
Q 2731 4750 3128 4425 
Q 3525 4100 3525 3541 
Q 3525 3141 3298 2862 
Q 3072 2584 2669 2484 
Q 3125 2378 3379 2068 
Q 3634 1759 3634 1313 
Q 3634 634 3220 271 
Q 2806 -91 2034 -91 
Q 1263 -91 848 271 
Q 434 634 434 1313 
Q 434 1759 690 2068 
Q 947 2378 1403 2484 
z
M 1172 3481 
Q 1172 3119 1398 2916 
Q 1625 2713 2034 2713 
Q 2441 2713 2670 2916 
Q 2900 3119 2900 3481 
Q 2900 3844 2670 4047 
Q 2441 4250 2034 4250 
Q 1625 4250 1398 4047 
Q 1172 3844 1172 3481 
z
" transform="scale(0.015625)"/>
       </defs>
       <use xlink:href="#DejaVuSans-31"/>
       <use xlink:href="#DejaVuSans-38" x="63.623047"/>
       <use xlink:href="#DejaVuSans-30" x="127.246094"/>
       <use xlink:href="#DejaVuSans-b0" x="190.869141"/>
      </g>
     </g>
    </g>
    <g id="xtick_6">
     <g id="line2d_6">
      <path d="M 251.8225 262.917188 
L 408.6305 419.725187 
" clip-path="url(#p5a2392474b)" style="fill: none; stroke: #b0b0b0; stroke-width: 0.8; stroke-linecap: square"/>
     </g>
     <g id="text_6">
      <!-- 225° -->
      <g transform="translate(406.486245 432.384057)scale(0.1 -0.1)">
       <defs>
        <path id="DejaVuSans-32" d="M 1228 531 
L 3431 531 
L 3431 0 
L 469 0 
L 469 531 
Q 828 903 1448 1529 
Q 2069 2156 2228 2338 
Q 2531 2678 2651 2914 
Q 2772 3150 2772 3378 
Q 2772 3750 2511 3984 
Q 2250 4219 1831 4219 
Q 1534 4219 1204 4116 
Q 875 4013 500 3803 
L 500 4441 
Q 881 4594 1212 4672 
Q 1544 4750 1819 4750 
Q 2544 4750 2975 4387 
Q 3406 4025 3406 3419 
Q 3406 3131 3298 2873 
Q 3191 2616 2906 2266 
Q 2828 2175 2409 1742 
Q 1991 1309 1228 531 
z
" transform="scale(0.015625)"/>
       </defs>
       <use xlink:href="#DejaVuSans-32"/>
       <use xlink:href="#DejaVuSans-32" x="63.623047"/>
       <use xlink:href="#DejaVuSans-35" x="127.246094"/>
       <use xlink:href="#DejaVuSans-b0" x="190.869141"/>
      </g>
     </g>
    </g>
    <g id="xtick_7">
     <g id="line2d_7">
      <path d="M 251.8225 262.917188 
L 473.5825 262.917188 
" clip-path="url(#p5a2392474b)" style="fill: none; stroke: #b0b0b0; stroke-width: 0.8; stroke-linecap: square"/>
     </g>
     <g id="text_7">
      <!-- 270° -->
      <g transform="translate(475.53875 265.676563)scale(0.1 -0.1)">
       <defs>
        <path id="DejaVuSans-37" d="M 525 4666 
L 3525 4666 
L 3525 4397 
L 1831 0 
L 1172 0 
L 2766 4134 
L 525 4134 
L 525 4666 
z
" transform="scale(0.015625)"/>
       </defs>
       <use xlink:href="#DejaVuSans-32"/>
       <use xlink:href="#DejaVuSans-37" x="63.623047"/>
       <use xlink:href="#DejaVuSans-30" x="127.246094"/>
       <use xlink:href="#DejaVuSans-b0" x="190.869141"/>
      </g>
     </g>
    </g>
    <g id="xtick_8">
     <g id="line2d_8">
      <path d="M 251.8225 262.917188 
L 408.6305 106.109188 
" clip-path="url(#p5a2392474b)" style="fill: none; stroke: #b0b0b0; stroke-width: 0.8; stroke-linecap: square"/>
     </g>
     <g id="text_8">
      <!-- 315° -->
      <g transform="translate(406.486245 98.969068)scale(0.1 -0.1)">
       <use xlink:href="#DejaVuSans-33"/>
       <use xlink:href="#DejaVuSans-31" x="63.623047"/>
       <use xlink:href="#DejaVuSans-35" x="127.246094"/>
       <use xlink:href="#DejaVuSans-b0" x="190.869141"/>
      </g>
     </g>
    </g>
   </g>
   <g id="matplotlib.axis_2">
    <g id="ytick_1">
     <g id="line2d_9">
      <path d="M 251.8225 244.967604 
C 249.465382 244.967604 247.131185 245.431905 244.953492 246.333935 
C 242.775799 247.235965 240.796962 248.558181 239.130228 250.224915 
C 237.463494 251.891649 236.141277 253.870487 235.239247 256.048179 
C 234.337217 258.225872 233.872917 260.56007 233.872917 262.917188 
C 233.872917 265.274305 234.337217 267.608503 235.239247 269.786196 
C 236.141277 271.963888 237.463494 273.942726 239.130228 275.60946 
C 240.796962 277.276194 242.775799 278.59841 244.953492 279.50044 
C 247.131185 280.40247 249.465382 280.866771 251.8225 280.866771 
C 254.179618 280.866771 256.513815 280.40247 258.691508 279.50044 
C 260.869201 278.59841 262.848038 277.276194 264.514772 275.60946 
C 266.181506 273.942726 267.503723 271.963888 268.405753 269.786196 
C 269.307783 267.608503 269.772083 265.274305 269.772083 262.917188 
C 269.772083 260.56007 269.307783 258.225872 268.405753 256.048179 
C 267.503723 253.870487 266.181506 251.891649 264.514772 250.224915 
C 262.848038 248.558181 260.869201 247.235965 258.691508 246.333935 
C 256.513815 245.431905 254.179618 244.967604 251.8225 244.967604 
" clip-path="url(#p5a2392474b)" style="fill: none; stroke: #b0b0b0; stroke-width: 0.8; stroke-linecap: square"/>
     </g>
     <g id="text_9">
      <!-- −35 -->
      <g transform="translate(244.953492 244.254247)scale(0.1 -0.1)">
       <defs>
        <path id="DejaVuSans-2212" d="M 678 2272 
L 4684 2272 
L 4684 1741 
L 678 1741 
L 678 2272 
z
" transform="scale(0.015625)"/>
       </defs>
       <use xlink:href="#DejaVuSans-2212"/>
       <use xlink:href="#DejaVuSans-33" x="83.789062"/>
       <use xlink:href="#DejaVuSans-35" x="147.412109"/>
      </g>
     </g>
    </g>
    <g id="ytick_2">
     <g id="line2d_10">
      <path d="M 251.8225 215.85183 
C 245.641934 215.85183 239.521466 217.069267 233.811368 219.434467 
C 228.101269 221.799668 222.912587 225.266634 218.542267 229.636954 
C 214.171947 234.007274 210.70498 239.195957 208.33978 244.906055 
C 205.97458 250.616154 204.757143 256.736621 204.757143 262.917188 
C 204.757143 269.097754 205.97458 275.218221 208.33978 280.92832 
C 210.70498 286.638418 214.171947 291.827101 218.542267 296.197421 
C 222.912587 300.567741 228.101269 304.034707 233.811368 306.399908 
C 239.521466 308.765108 245.641934 309.982545 251.8225 309.982545 
C 258.003066 309.982545 264.123534 308.765108 269.833632 306.399908 
C 275.543731 304.034707 280.732413 300.567741 285.102733 296.197421 
C 289.473053 291.827101 292.94002 286.638418 295.30522 280.92832 
C 297.67042 275.218221 298.887857 269.097754 298.887857 262.917188 
C 298.887857 256.736621 297.67042 250.616154 295.30522 244.906055 
C 292.94002 239.195957 289.473053 234.007274 285.102733 229.636954 
C 280.732413 225.266634 275.543731 221.799668 269.833632 219.434467 
C 264.123534 217.069267 258.003066 215.85183 251.8225 215.85183 
" clip-path="url(#p5a2392474b)" style="fill: none; stroke: #b0b0b0; stroke-width: 0.8; stroke-linecap: square"/>
     </g>
     <g id="text_10">
      <!-- −30 -->
      <g transform="translate(233.811368 217.35478)scale(0.1 -0.1)">
       <use xlink:href="#DejaVuSans-2212"/>
       <use xlink:href="#DejaVuSans-33" x="83.789062"/>
       <use xlink:href="#DejaVuSans-30" x="147.412109"/>
      </g>
     </g>
    </g>
    <g id="ytick_3">
     <g id="line2d_11">
      <path d="M 251.8225 186.736057 
C 241.818486 186.736057 231.911748 188.706629 222.669243 192.535 
C 213.426739 196.36337 205.028212 201.975087 197.954306 209.048993 
C 190.880399 216.1229 185.268683 224.521427 181.440312 233.763931 
C 177.611942 243.006435 175.641369 252.913173 175.641369 262.917188 
C 175.641369 272.921202 177.611942 282.82794 181.440312 292.070444 
C 185.268683 301.312948 190.880399 309.711475 197.954306 316.785382 
C 205.028212 323.859288 213.426739 329.471005 222.669243 333.299375 
C 231.911748 337.127746 241.818486 339.098318 251.8225 339.098318 
C 261.826514 339.098318 271.733252 337.127746 280.975757 333.299375 
C 290.218261 329.471005 298.616788 323.859288 305.690694 316.785382 
C 312.764601 309.711475 318.376317 301.312948 322.204688 292.070444 
C 326.033058 282.82794 328.003631 272.921202 328.003631 262.917188 
C 328.003631 252.913173 326.033058 243.006435 322.204688 233.763931 
C 318.376317 224.521427 312.764601 216.1229 305.690694 209.048993 
C 298.616788 201.975087 290.218261 196.36337 280.975757 192.535 
C 271.733252 188.706629 261.826514 186.736057 251.8225 186.736057 
" clip-path="url(#p5a2392474b)" style="fill: none; stroke: #b0b0b0; stroke-width: 0.8; stroke-linecap: square"/>
     </g>
     <g id="text_11">
      <!-- −25 -->
      <g transform="translate(222.669243 190.455312)scale(0.1 -0.1)">
       <use xlink:href="#DejaVuSans-2212"/>
       <use xlink:href="#DejaVuSans-32" x="83.789062"/>
       <use xlink:href="#DejaVuSans-35" x="147.412109"/>
      </g>
     </g>
    </g>
    <g id="ytick_4">
     <g id="line2d_12">
      <path d="M 251.8225 157.620283 
C 237.995037 157.620283 224.302029 160.343991 211.527119 165.635532 
C 198.752209 170.927073 187.143837 178.683539 177.366345 188.461032 
C 167.588852 198.238525 159.832386 209.846897 154.540845 222.621807 
C 149.249304 235.396716 146.525595 249.089725 146.525595 262.917188 
C 146.525595 276.74465 149.249304 290.437659 154.540845 303.212568 
C 159.832386 315.987478 167.588852 327.59585 177.366345 337.373343 
C 187.143837 347.150836 198.752209 354.907302 211.527119 360.198843 
C 224.302029 365.490384 237.995037 368.214092 251.8225 368.214092 
C 265.649963 368.214092 279.342971 365.490384 292.117881 360.198843 
C 304.892791 354.907302 316.501163 347.150836 326.278655 337.373343 
C 336.056148 327.59585 343.812614 315.987478 349.104155 303.212568 
C 354.395696 290.437659 357.119405 276.74465 357.119405 262.917188 
C 357.119405 249.089725 354.395696 235.396716 349.104155 222.621807 
C 343.812614 209.846897 336.056148 198.238525 326.278655 188.461032 
C 316.501163 178.683539 304.892791 170.927073 292.117881 165.635532 
C 279.342971 160.343991 265.649963 157.620283 251.8225 157.620283 
" clip-path="url(#p5a2392474b)" style="fill: none; stroke: #b0b0b0; stroke-width: 0.8; stroke-linecap: square"/>
     </g>
     <g id="text_12">
      <!-- −20 -->
      <g transform="translate(211.527119 163.555845)scale(0.1 -0.1)">
       <use xlink:href="#DejaVuSans-2212"/>
       <use xlink:href="#DejaVuSans-32" x="83.789062"/>
       <use xlink:href="#DejaVuSans-30" x="147.412109"/>
      </g>
     </g>
    </g>
    <g id="ytick_5">
     <g id="line2d_13">
      <path d="M 251.8225 128.504509 
C 234.171589 128.504509 216.69231 131.981354 200.384995 138.736065 
C 184.077679 145.490776 169.259463 155.391992 156.778383 167.873071 
C 144.297304 180.35415 134.396089 195.172367 127.641377 211.479682 
C 120.886666 227.786998 117.409821 245.266276 117.409821 262.917188 
C 117.409821 280.568099 120.886666 298.047377 127.641377 314.354693 
C 134.396089 330.662008 144.297304 345.480225 156.778383 357.961304 
C 169.259463 370.442383 184.077679 380.343599 200.384995 387.09831 
C 216.69231 393.853021 234.171589 397.329866 251.8225 397.329866 
C 269.473411 397.329866 286.95269 393.853021 303.260005 387.09831 
C 319.567321 380.343599 334.385537 370.442383 346.866617 357.961304 
C 359.347696 345.480225 369.248911 330.662008 376.003623 314.354693 
C 382.758334 298.047377 386.235179 280.568099 386.235179 262.917188 
C 386.235179 245.266276 382.758334 227.786998 376.003623 211.479682 
C 369.248911 195.172367 359.347696 180.35415 346.866617 167.873071 
C 334.385537 155.391992 319.567321 145.490776 303.260005 138.736065 
C 286.95269 131.981354 269.473411 128.504509 251.8225 128.504509 
" clip-path="url(#p5a2392474b)" style="fill: none; stroke: #b0b0b0; stroke-width: 0.8; stroke-linecap: square"/>
     </g>
     <g id="text_13">
      <!-- −15 -->
      <g transform="translate(200.384995 136.656377)scale(0.1 -0.1)">
       <use xlink:href="#DejaVuSans-2212"/>
       <use xlink:href="#DejaVuSans-31" x="83.789062"/>
       <use xlink:href="#DejaVuSans-35" x="147.412109"/>
      </g>
     </g>
    </g>
    <g id="ytick_6">
     <g id="line2d_14">
      <path d="M 251.8225 99.388735 
C 230.34814 99.388735 209.082592 103.618716 189.242871 111.836597 
C 169.403149 120.054479 151.375088 132.100445 136.190422 147.28511 
C 121.005757 162.469775 108.959791 180.497837 100.74191 200.337558 
C 92.524028 220.177279 88.294048 241.442828 88.294048 262.917188 
C 88.294048 284.391547 92.524028 305.657096 100.74191 325.496817 
C 108.959791 345.336538 121.005757 363.3646 136.190422 378.549265 
C 151.375088 393.73393 169.403149 405.779896 189.242871 413.997778 
C 209.082592 422.215659 230.34814 426.44564 251.8225 426.44564 
C 273.29686 426.44564 294.562408 422.215659 314.402129 413.997778 
C 334.241851 405.779896 352.269912 393.73393 367.454578 378.549265 
C 382.639243 363.3646 394.685209 345.336538 402.90309 325.496817 
C 411.120972 305.657096 415.350952 284.391547 415.350952 262.917188 
C 415.350952 241.442828 411.120972 220.177279 402.90309 200.337558 
C 394.685209 180.497837 382.639243 162.469775 367.454578 147.28511 
C 352.269912 132.100445 334.241851 120.054479 314.402129 111.836597 
C 294.562408 103.618716 273.29686 99.388735 251.8225 99.388735 
" clip-path="url(#p5a2392474b)" style="fill: none; stroke: #b0b0b0; stroke-width: 0.8; stroke-linecap: square"/>
     </g>
     <g id="text_14">
      <!-- −10 -->
      <g transform="translate(189.242871 109.75691)scale(0.1 -0.1)">
       <use xlink:href="#DejaVuSans-2212"/>
       <use xlink:href="#DejaVuSans-31" x="83.789062"/>
       <use xlink:href="#DejaVuSans-30" x="147.412109"/>
      </g>
     </g>
    </g>
    <g id="ytick_7">
     <g id="line2d_15">
      <path d="M 251.8225 70.272961 
C 226.524692 70.272961 201.472873 75.256078 178.100746 84.93713 
C 154.728619 94.618182 133.490713 108.808897 115.602461 126.697149 
C 97.71421 144.5854 83.523494 165.823307 73.842442 189.195434 
C 64.16139 212.567561 59.178274 237.61938 59.178274 262.917188 
C 59.178274 288.214995 64.16139 313.266814 73.842442 336.638941 
C 83.523494 360.011068 97.71421 381.248975 115.602461 399.137226 
C 133.490713 417.025478 154.728619 431.216193 178.100746 440.897245 
C 201.472873 450.578297 226.524692 455.561414 251.8225 455.561414 
C 277.120308 455.561414 302.172127 450.578297 325.544254 440.897245 
C 348.916381 431.216193 370.154287 417.025478 388.042539 399.137226 
C 405.93079 381.248975 420.121506 360.011068 429.802558 336.638941 
C 439.48361 313.266814 444.466726 288.214995 444.466726 262.917188 
C 444.466726 237.61938 439.48361 212.567561 429.802558 189.195434 
C 420.121506 165.823307 405.93079 144.5854 388.042539 126.697149 
C 370.154287 108.808897 348.916381 94.618182 325.544254 84.93713 
C 302.172127 75.256078 277.120308 70.272961 251.8225 70.272961 
" clip-path="url(#p5a2392474b)" style="fill: none; stroke: #b0b0b0; stroke-width: 0.8; stroke-linecap: square"/>
     </g>
     <g id="text_15">
      <!-- −5 -->
      <g transform="translate(178.100746 82.857442)scale(0.1 -0.1)">
       <use xlink:href="#DejaVuSans-2212"/>
       <use xlink:href="#DejaVuSans-35" x="83.789062"/>
      </g>
     </g>
    </g>
    <g id="ytick_8">
     <g id="line2d_16">
      <path d="M 251.8225 41.157188 
C 222.701244 41.157188 193.863155 46.89344 166.958622 58.037662 
C 140.054089 69.181885 115.606338 85.51735 95.0145 106.109188 
C 74.422662 126.701026 58.087197 151.148777 46.942975 178.05331 
C 35.798753 204.957842 30.0625 233.795931 30.0625 262.917188 
C 30.0625 292.038444 35.798753 320.876533 46.942975 347.781065 
C 58.087197 374.685598 74.422662 399.133349 95.0145 419.725187 
C 115.606338 440.317025 140.054089 456.65249 166.958622 467.796713 
C 193.863155 478.940935 222.701244 484.677188 251.8225 484.677188 
C 280.943756 484.677188 309.781845 478.940935 336.686378 467.796713 
C 363.590911 456.65249 388.038662 440.317025 408.6305 419.725187 
C 429.222338 399.133349 445.557803 374.685598 456.702025 347.781065 
C 467.846247 320.876533 473.5825 292.038444 473.5825 262.917188 
C 473.5825 233.795931 467.846247 204.957842 456.702025 178.05331 
C 445.557803 151.148777 429.222338 126.701026 408.6305 106.109188 
C 388.038662 85.51735 363.590911 69.181885 336.686378 58.037662 
C 309.781845 46.89344 280.943756 41.157188 251.8225 41.157188 
" clip-path="url(#p5a2392474b)" style="fill: none; stroke: #b0b0b0; stroke-width: 0.8; stroke-linecap: square"/>
     </g>
     <g id="text_16">
      <!-- 0 -->
      <g transform="translate(166.958622 55.957975)scale(0.1 -0.1)">
       <use xlink:href="#DejaVuSans-30"/>
      </g>
     </g>
    </g>
   </g>
   <g id="line2d_17">
    <path d="M 251.8225 469.688387 
L 255.412557 468.59142 
L 258.947463 466.949424 
L 265.907763 464.345831 
L 269.314453 462.851122 
L 272.715901 461.704618 
L 279.397627 459.124408 
L 282.743929 458.147404 
L 289.32964 455.874693 
L 299.324729 453.438223 
L 302.692281 452.765794 
L 306.118229 452.268897 
L 309.605285 451.916162 
L 313.073118 451.427205 
L 316.74618 451.469245 
L 320.359582 451.221273 
L 323.963136 450.849968 
L 327.821003 451.020084 
L 335.277326 450.359795 
L 339.210246 450.320813 
L 342.934725 449.724933 
L 350.746485 448.966143 
L 354.478112 448.112815 
L 358.352603 447.432739 
L 362.186439 446.593628 
L 365.825753 445.36053 
L 369.560167 444.217296 
L 373.126417 442.75764 
L 376.453672 440.908947 
L 379.859392 439.14485 
L 383.059171 437.074132 
L 386.153927 434.853574 
L 389.141501 432.492031 
L 391.911638 429.868921 
L 394.55951 427.117335 
L 399.53984 421.324641 
L 401.905739 418.332931 
L 408.411452 408.938748 
L 410.19171 405.513464 
L 412.07173 402.219718 
L 413.822751 398.851538 
L 415.20654 395.222975 
L 416.793227 391.806445 
L 417.971149 388.119175 
L 418.821253 384.248883 
L 419.897327 380.604449 
L 420.448405 376.656796 
L 420.815663 372.662631 
L 421.549681 368.974501 
L 421.398185 364.808538 
L 421.567105 360.919281 
L 421.886688 357.185306 
L 421.104892 352.926232 
L 421.109009 349.172972 
L 420.997517 345.429356 
L 419.957716 341.319926 
L 419.144873 333.941321 
L 417.394806 329.812741 
L 416.438633 326.1074 
L 415.125129 322.354484 
L 412.382557 318.202449 
L 410.681266 314.53353 
L 408.300205 310.757223 
L 404.778773 306.776693 
L 402.286708 303.23395 
L 395.045831 295.982899 
L 391.910147 292.693736 
L 386.823788 289.15878 
L 382.765211 286.00592 
L 378.42052 282.968344 
L 364.801871 276.78931 
L 357.417057 274.015623 
L 339.372099 269.039252 
L 320.45575 265.313913 
L 319.747697 264.102826 
L 327.986162 262.917188 
L 337.552192 261.42077 
L 348.91945 259.526487 
L 358.958073 257.30245 
L 374.841029 252.154461 
L 381.010629 249.338968 
L 386.458594 246.385954 
L 391.962194 243.221838 
L 397.18754 239.893627 
L 401.041661 236.605823 
L 405.452777 233.054487 
L 409.180131 229.469791 
L 411.806554 225.981958 
L 415.007954 222.230484 
L 417.45662 218.535659 
L 418.789505 215.040169 
L 420.952315 211.209014 
L 422.693512 207.39783 
L 423.449418 203.821301 
L 424.881661 199.928804 
L 425.734848 196.158492 
L 425.720272 192.657927 
L 426.450883 188.791837 
L 426.726536 185.044894 
L 426.354131 181.531751 
L 426.576765 177.683837 
L 426.230028 174.052113 
L 425.562608 170.537933 
L 425.772682 166.495027 
L 425.031646 162.914841 
L 424.108525 159.3973 
L 423.648465 155.548408 
L 421.703585 148.330949 
L 420.784557 144.608682 
L 416.508727 134.250206 
L 411.166404 124.401645 
L 409.023299 121.372952 
L 406.997535 118.214126 
L 404.875745 115.115387 
L 397.991002 106.17066 
L 393.233855 100.242033 
L 390.676431 97.437516 
L 387.998136 94.754281 
L 382.400332 89.634552 
L 379.452083 87.250138 
L 373.325049 82.782251 
L 370.178613 80.664756 
L 366.868755 78.804694 
L 360.166516 75.259847 
L 353.141298 72.364242 
L 349.58348 71.050462 
L 342.377516 68.721328 
L 330.99711 66.95315 
L 326.986955 67.107087 
L 319.260055 67.064306 
L 315.261253 67.672781 
L 311.457633 67.859456 
L 307.651079 68.219793 
L 303.855795 68.726285 
L 296.606799 68.935078 
L 293.00265 69.179812 
L 289.487417 69.147986 
L 282.434208 69.642468 
L 278.970532 69.748904 
L 275.488696 70.171489 
L 268.638942 70.704379 
L 261.853825 71.508108 
L 251.8225 72.468291 
L 248.501452 72.654498 
L 241.85487 72.723479 
L 228.388364 72.061467 
L 224.935426 71.605712 
L 221.504115 71.494439 
L 214.498694 70.902849 
L 207.503225 70.949316 
L 203.924412 70.808451 
L 200.422205 71.088674 
L 196.79967 71.029776 
L 193.205477 71.189545 
L 189.668557 71.627019 
L 185.996403 71.744321 
L 182.407106 72.199961 
L 171.754097 74.287852 
L 164.75468 76.199646 
L 158.098385 78.973254 
L 154.812179 80.46731 
L 145.348453 85.714616 
L 142.343032 87.713415 
L 136.562214 92.036787 
L 133.787876 94.346275 
L 128.821315 99.689102 
L 126.400026 102.383742 
L 122.187705 108.424455 
L 120.179737 111.479512 
L 115.120462 121.358083 
L 113.716604 124.811292 
L 112.072969 127.962634 
L 110.680164 131.29983 
L 109.551394 134.815709 
L 107.983418 137.879781 
L 106.862487 141.281294 
L 105.630611 144.53333 
L 104.123672 147.522216 
L 103.490216 151.140794 
L 102.400605 154.355826 
L 101.105881 157.384275 
L 100.551868 160.883858 
L 99.673247 164.110308 
L 98.930036 167.379372 
L 98.63364 170.872034 
L 97.699546 177.485439 
L 98.062418 181.161502 
L 97.75377 184.415249 
L 98.348934 188.063128 
L 99.794429 192.025334 
L 100.756114 195.658099 
L 102.333653 199.462937 
L 105.346935 203.737218 
L 107.375349 207.469121 
L 110.64854 211.534068 
L 115.978433 216.142324 
L 119.790529 220.0174 
L 126.429338 224.580651 
L 134.483601 229.2708 
L 140.838311 233.179064 
L 152.947419 238.264861 
L 166.336854 243.181271 
L 180.068623 247.66543 
L 212.772791 255.326693 
L 241.42293 261.083463 
L 227.54299 259.071691 
L 195.792744 255.042719 
L 180.162561 254.118453 
L 167.823533 254.08854 
L 157.089627 254.629135 
L 150.244239 255.814144 
L 144.489211 257.292088 
L 140.484971 259.029195 
L 136.981469 260.91263 
L 132.305451 262.917188 
L 128.265534 265.073882 
L 126.186196 267.304504 
L 123.083554 269.66411 
L 120.664965 272.088616 
L 118.855263 274.550313 
L 116.206078 277.171048 
L 111.480979 282.640902 
L 108.46472 285.622829 
L 104.468575 291.559889 
L 101.550575 294.858471 
L 97.852493 301.306222 
L 95.351075 304.84358 
L 94.365776 308.067176 
L 91.11953 315.132748 
L 90.089687 318.606261 
L 87.423822 326.023927 
L 86.854897 329.568425 
L 85.834827 333.374774 
L 85.408732 337.009371 
L 85.592487 340.431516 
L 85.332431 344.11982 
L 85.446722 347.689881 
L 85.779278 351.203935 
L 85.853121 354.915517 
L 88.105249 365.21908 
L 89.129321 368.571373 
L 90.486292 371.739834 
L 91.489462 375.183589 
L 93.190539 378.170054 
L 94.393686 381.548308 
L 95.74469 384.858537 
L 97.36263 387.996324 
L 98.681388 391.417838 
L 105.03574 404.667514 
L 106.889636 407.850051 
L 108.644252 411.182604 
L 110.550712 414.412632 
L 112.694064 417.434969 
L 114.651715 420.714125 
L 116.820169 423.806701 
L 130.993998 442.052808 
L 136.353491 447.70623 
L 142.23524 452.727889 
L 145.234279 455.207428 
L 151.624069 459.567681 
L 154.923297 461.589996 
L 161.735901 465.255002 
L 165.180791 467.032263 
L 168.749742 468.529479 
L 179.69086 472.40268 
L 183.384864 473.546573 
L 187.13427 474.502852 
L 190.917056 475.319713 
L 198.535949 476.637871 
L 202.411547 476.939538 
L 210.174252 477.178848 
L 214.060531 477.075955 
L 217.945975 476.805147 
L 221.783677 476.65452 
L 233.272873 474.940397 
L 240.808628 473.074389 
L 244.511789 472.268545 
L 248.19291 470.856282 
L 248.19291 470.856282 
" clip-path="url(#p5a2392474b)" style="fill: none; stroke: #ff0000; stroke-width: 1.5; stroke-linecap: square"/>
   </g>
   <g id="line2d_18">
    <path d="M 251.8225 47.766468 
L 244.330106 48.363101 
L 236.886649 49.324561 
L 229.512079 50.647715 
L 222.22617 52.328355 
L 215.049465 54.366945 
L 208.000598 56.751348 
L 201.099308 59.477576 
L 194.364444 62.537135 
L 187.814939 65.922172 
L 181.469245 69.623208 
L 175.344963 73.628641 
L 169.460496 77.929097 
L 163.832486 82.510923 
L 158.478213 87.362116 
L 153.412786 92.466563 
L 148.656583 97.817208 
L 144.220954 103.391335 
L 140.125886 109.179988 
L 136.384508 115.163295 
L 133.016354 121.329536 
L 130.033272 127.656546 
L 127.453982 134.129817 
L 125.301285 140.73707 
L 124.389195 144.083708 
L 123.589633 147.455796 
L 122.903732 150.849813 
L 122.336986 154.265941 
L 121.895047 157.70401 
L 121.57912 161.159907 
L 121.390292 164.629469 
L 121.334239 168.111916 
L 121.41675 171.606099 
L 121.643714 175.110487 
L 122.016214 178.62 
L 122.54506 182.135677 
L 123.231347 185.651828 
L 124.091128 189.171445 
L 125.14597 192.69924 
L 126.356316 196.205634 
L 127.753497 199.700873 
L 129.390702 203.20321 
L 131.26986 206.702568 
L 133.392576 210.188788 
L 135.760123 213.651632 
L 138.427436 217.102608 
L 141.4506 220.549385 
L 144.831972 223.97582 
L 148.683485 227.403577 
L 152.952967 230.792529 
L 157.864709 234.191408 
L 163.479043 237.585109 
L 169.912569 240.969488 
L 177.45226 244.374604 
L 186.331704 247.797446 
L 197.01394 251.267269 
L 209.85183 254.758916 
L 224.511335 258.101492 
L 236.50952 260.49185 
L 234.854909 260.532548 
L 221.580248 259.203906 
L 206.983998 258.204471 
L 194.436438 257.896558 
L 183.843321 258.16362 
L 174.931648 258.887509 
L 167.249346 259.963828 
L 160.515075 261.32341 
L 154.561549 262.917188 
L 149.278098 264.707107 
L 144.494681 266.665158 
L 140.156906 268.769333 
L 136.209768 271.001617 
L 132.597822 273.347995 
L 129.32327 275.792375 
L 126.272173 278.332829 
L 123.504098 280.951163 
L 120.905132 283.652461 
L 118.534302 286.419493 
L 116.392499 289.242113 
L 114.366361 292.134392 
L 112.514165 295.079051 
L 110.836612 298.068917 
L 109.339792 301.095314 
L 107.95669 304.170045 
L 106.710533 307.282368 
L 105.596252 310.428975 
L 104.608747 313.606948 
L 103.742907 316.813752 
L 102.999061 320.045153 
L 102.366612 323.301286 
L 101.442358 329.87074 
L 101.14021 333.181493 
L 100.856475 339.838219 
L 100.98456 346.528023 
L 101.503705 353.237831 
L 102.413008 359.944846 
L 103.700788 366.633127 
L 105.355098 373.288291 
L 107.36838 379.893827 
L 109.73694 386.430281 
L 112.451819 392.88245 
L 115.503639 399.236048 
L 118.890615 405.469182 
L 122.598008 411.57296 
L 126.623163 417.525492 
L 130.955182 423.313536 
L 135.585143 428.921337 
L 140.503255 434.333793 
L 145.699354 439.535763 
L 151.16227 444.51305 
L 156.880187 449.251968 
L 162.841275 453.73804 
L 169.032853 457.957373 
L 175.439335 461.902136 
L 182.047382 465.558845 
L 188.843606 468.911867 
L 195.810346 471.957391 
L 202.931587 474.686997 
L 210.19203 477.087389 
L 217.574311 479.151743 
L 225.060749 480.874155 
L 232.633396 482.249652 
L 240.274078 483.274205 
L 247.964551 483.938918 
L 255.685937 484.25332 
L 263.419684 484.204633 
L 271.146605 483.792717 
L 278.848246 483.024222 
L 286.505208 481.895191 
L 294.099636 480.414198 
L 301.612021 478.579298 
L 309.02379 476.395308 
L 316.316642 473.868019 
L 323.472598 471.004181 
L 330.476138 467.816921 
L 337.306088 464.3039 
L 343.947616 460.480137 
L 350.381864 456.350831 
L 356.595454 451.932599 
L 362.57033 447.232529 
L 368.29156 442.263813 
L 373.744912 437.040437 
L 378.916897 431.577148 
L 383.786744 425.879457 
L 388.345738 419.969208 
L 392.578405 413.859416 
L 396.470632 407.56532 
L 400.008442 401.102814 
L 403.177992 394.48851 
L 405.965589 387.7398 
L 408.353753 380.871947 
L 410.328609 373.90436 
L 411.873593 366.855583 
L 412.972671 359.745979 
L 413.347015 356.17341 
L 413.600302 352.592088 
L 413.726782 349.003221 
L 413.731006 345.413692 
L 413.607367 341.82494 
L 413.350198 338.23879 
L 412.953789 334.65746 
L 412.412409 331.08356 
L 411.725714 327.52228 
L 410.882649 323.974658 
L 409.882976 320.446496 
L 408.715626 316.939823 
L 407.374991 313.459256 
L 405.844403 310.006409 
L 404.123856 306.588899 
L 402.191087 303.208329 
L 400.040621 299.872116 
L 397.644481 296.582844 
L 394.974544 293.345094 
L 392.054081 290.175446 
L 388.838245 287.07676 
L 385.212996 284.044167 
L 381.236534 281.105144 
L 376.85265 278.26896 
L 371.889403 275.536728 
L 366.406381 272.941978 
L 360.290199 270.501988 
L 353.369691 268.23905 
L 345.590634 266.191643 
L 337.016543 264.404255 
L 327.945399 262.917188 
L 319.491517 261.73602 
L 314.106558 260.74218 
L 314.582478 259.628076 
L 320.556845 258.110814 
L 329.105978 256.155759 
L 337.952649 253.864544 
L 346.162178 251.333732 
L 353.557409 248.619278 
L 360.079107 245.771025 
L 365.842147 242.812447 
L 370.961425 239.758926 
L 375.494549 236.629882 
L 379.556063 233.427571 
L 383.146577 230.174418 
L 386.379956 226.862626 
L 389.256696 223.508566 
L 391.833528 220.111521 
L 394.116662 216.683012 
L 396.145655 213.22274 
L 397.937654 209.735621 
L 399.509735 206.225369 
L 400.868053 202.698875 
L 402.03498 199.155773 
L 403.016559 195.601255 
L 403.824183 192.037639 
L 404.463889 188.469008 
L 404.94174 184.899038 
L 405.268948 181.328264 
L 405.451429 177.759282 
L 405.490021 174.197203 
L 405.390708 170.644099 
L 405.159413 167.10165 
L 404.801983 163.57115 
L 404.319346 160.056766 
L 403.712551 156.562629 
L 402.992188 153.08598 
L 402.154532 149.633876 
L 400.150397 142.803625 
L 397.718344 136.091865 
L 394.877031 129.516679 
L 391.645432 123.094256 
L 388.041895 116.83977 
L 384.08301 110.768875 
L 379.783868 104.898058 
L 375.160849 99.24167 
L 370.229202 93.814891 
L 365.005234 88.631061 
L 359.504603 83.704073 
L 353.743536 79.046771 
L 347.738207 74.672013 
L 341.506332 70.589588 
L 335.064929 66.810314 
L 328.431043 63.34511 
L 321.622264 60.203953 
L 314.656679 57.395848 
L 307.552818 54.928809 
L 300.330915 52.804159 
L 293.008526 51.033453 
L 285.605198 49.621629 
L 278.14142 48.566784 
L 270.635531 47.883261 
L 263.108828 47.56122 
L 255.580752 47.607102 
L 255.580752 47.607102 
" clip-path="url(#p5a2392474b)" style="fill: none; stroke-dasharray: 5.55,2.4; stroke-dashoffset: 0; stroke: #0000ff; stroke-width: 1.5"/>
   </g>
   <g id="patch_3">
    <path d="M 251.8225 41.157188 
C 222.701244 41.157188 193.863155 46.89344 166.958622 58.037662 
C 140.054089 69.181885 115.606338 85.51735 95.0145 106.109188 
C 74.422662 126.701026 58.087197 151.148777 46.942975 178.05331 
C 35.798753 204.957842 30.0625 233.795931 30.0625 262.917188 
C 30.0625 292.038444 35.798753 320.876533 46.942975 347.781065 
C 58.087197 374.685598 74.422662 399.133349 95.0145 419.725187 
C 115.606338 440.317025 140.054089 456.65249 166.958622 467.796713 
C 193.863155 478.940935 222.701244 484.677188 251.8225 484.677188 
C 280.943756 484.677188 309.781845 478.940935 336.686378 467.796713 
C 363.590911 456.65249 388.038662 440.317025 408.6305 419.725187 
C 429.222338 399.133349 445.557803 374.685598 456.702025 347.781065 
C 467.846247 320.876533 473.5825 292.038444 473.5825 262.917188 
C 473.5825 233.795931 467.846247 204.957842 456.702025 178.05331 
C 445.557803 151.148777 429.222338 126.701026 408.6305 106.109188 
C 388.038662 85.51735 363.590911 69.181885 336.686378 58.037662 
C 309.781845 46.89344 280.943756 41.157188 251.8225 41.157188 
" style="fill: none; stroke: #000000; stroke-width: 0.8; stroke-linejoin: miter; stroke-linecap: square"/>
   </g>
   <g id="text_17">
    <g id="patch_4">
     <path d="M 384.8785 509.853188 
L 479.006625 509.853188 
Q 482.006625 509.853188 482.006625 506.853188 
L 482.006625 473.945063 
Q 482.006625 470.945063 479.006625 470.945063 
L 384.8785 470.945063 
Q 381.8785 470.945063 381.8785 473.945063 
L 381.8785 506.853188 
Q 381.8785 509.853188 384.8785 509.853188 
z
" style="fill: #ffffff; stroke: #808080; stroke-linejoin: miter"/>
    </g>
    <!-- G_cst: 2.9 dBi -->
    <g transform="translate(384.8785 481.821625)scale(0.1 -0.1)">
     <defs>
      <path id="DejaVuSans-47" d="M 3809 666 
L 3809 1919 
L 2778 1919 
L 2778 2438 
L 4434 2438 
L 4434 434 
Q 4069 175 3628 42 
Q 3188 -91 2688 -91 
Q 1594 -91 976 548 
Q 359 1188 359 2328 
Q 359 3472 976 4111 
Q 1594 4750 2688 4750 
Q 3144 4750 3555 4637 
Q 3966 4525 4313 4306 
L 4313 3634 
Q 3963 3931 3569 4081 
Q 3175 4231 2741 4231 
Q 1884 4231 1454 3753 
Q 1025 3275 1025 2328 
Q 1025 1384 1454 906 
Q 1884 428 2741 428 
Q 3075 428 3337 486 
Q 3600 544 3809 666 
z
" transform="scale(0.015625)"/>
      <path id="DejaVuSans-5f" d="M 3263 -1063 
L 3263 -1509 
L -63 -1509 
L -63 -1063 
L 3263 -1063 
z
" transform="scale(0.015625)"/>
      <path id="DejaVuSans-63" d="M 3122 3366 
L 3122 2828 
Q 2878 2963 2633 3030 
Q 2388 3097 2138 3097 
Q 1578 3097 1268 2742 
Q 959 2388 959 1747 
Q 959 1106 1268 751 
Q 1578 397 2138 397 
Q 2388 397 2633 464 
Q 2878 531 3122 666 
L 3122 134 
Q 2881 22 2623 -34 
Q 2366 -91 2075 -91 
Q 1284 -91 818 406 
Q 353 903 353 1747 
Q 353 2603 823 3093 
Q 1294 3584 2113 3584 
Q 2378 3584 2631 3529 
Q 2884 3475 3122 3366 
z
" transform="scale(0.015625)"/>
      <path id="DejaVuSans-73" d="M 2834 3397 
L 2834 2853 
Q 2591 2978 2328 3040 
Q 2066 3103 1784 3103 
Q 1356 3103 1142 2972 
Q 928 2841 928 2578 
Q 928 2378 1081 2264 
Q 1234 2150 1697 2047 
L 1894 2003 
Q 2506 1872 2764 1633 
Q 3022 1394 3022 966 
Q 3022 478 2636 193 
Q 2250 -91 1575 -91 
Q 1294 -91 989 -36 
Q 684 19 347 128 
L 347 722 
Q 666 556 975 473 
Q 1284 391 1588 391 
Q 1994 391 2212 530 
Q 2431 669 2431 922 
Q 2431 1156 2273 1281 
Q 2116 1406 1581 1522 
L 1381 1569 
Q 847 1681 609 1914 
Q 372 2147 372 2553 
Q 372 3047 722 3315 
Q 1072 3584 1716 3584 
Q 2034 3584 2315 3537 
Q 2597 3491 2834 3397 
z
" transform="scale(0.015625)"/>
      <path id="DejaVuSans-74" d="M 1172 4494 
L 1172 3500 
L 2356 3500 
L 2356 3053 
L 1172 3053 
L 1172 1153 
Q 1172 725 1289 603 
Q 1406 481 1766 481 
L 2356 481 
L 2356 0 
L 1766 0 
Q 1100 0 847 248 
Q 594 497 594 1153 
L 594 3053 
L 172 3053 
L 172 3500 
L 594 3500 
L 594 4494 
L 1172 4494 
z
" transform="scale(0.015625)"/>
      <path id="DejaVuSans-3a" d="M 750 794 
L 1409 794 
L 1409 0 
L 750 0 
L 750 794 
z
M 750 3309 
L 1409 3309 
L 1409 2516 
L 750 2516 
L 750 3309 
z
" transform="scale(0.015625)"/>
      <path id="DejaVuSans-20" transform="scale(0.015625)"/>
      <path id="DejaVuSans-2e" d="M 684 794 
L 1344 794 
L 1344 0 
L 684 0 
L 684 794 
z
" transform="scale(0.015625)"/>
      <path id="DejaVuSans-64" d="M 2906 2969 
L 2906 4863 
L 3481 4863 
L 3481 0 
L 2906 0 
L 2906 525 
Q 2725 213 2448 61 
Q 2172 -91 1784 -91 
Q 1150 -91 751 415 
Q 353 922 353 1747 
Q 353 2572 751 3078 
Q 1150 3584 1784 3584 
Q 2172 3584 2448 3432 
Q 2725 3281 2906 2969 
z
M 947 1747 
Q 947 1113 1208 752 
Q 1469 391 1925 391 
Q 2381 391 2643 752 
Q 2906 1113 2906 1747 
Q 2906 2381 2643 2742 
Q 2381 3103 1925 3103 
Q 1469 3103 1208 2742 
Q 947 2381 947 1747 
z
" transform="scale(0.015625)"/>
      <path id="DejaVuSans-42" d="M 1259 2228 
L 1259 519 
L 2272 519 
Q 2781 519 3026 730 
Q 3272 941 3272 1375 
Q 3272 1813 3026 2020 
Q 2781 2228 2272 2228 
L 1259 2228 
z
M 1259 4147 
L 1259 2741 
L 2194 2741 
Q 2656 2741 2882 2914 
Q 3109 3088 3109 3444 
Q 3109 3797 2882 3972 
Q 2656 4147 2194 4147 
L 1259 4147 
z
M 628 4666 
L 2241 4666 
Q 2963 4666 3353 4366 
Q 3744 4066 3744 3513 
Q 3744 3084 3544 2831 
Q 3344 2578 2956 2516 
Q 3422 2416 3680 2098 
Q 3938 1781 3938 1306 
Q 3938 681 3513 340 
Q 3088 0 2303 0 
L 628 0 
L 628 4666 
z
" transform="scale(0.015625)"/>
      <path id="DejaVuSans-69" d="M 603 3500 
L 1178 3500 
L 1178 0 
L 603 0 
L 603 3500 
z
M 603 4863 
L 1178 4863 
L 1178 4134 
L 603 4134 
L 603 4863 
z
" transform="scale(0.015625)"/>
     </defs>
     <use xlink:href="#DejaVuSans-47"/>
     <use xlink:href="#DejaVuSans-5f" x="77.490234"/>
     <use xlink:href="#DejaVuSans-63" x="127.490234"/>
     <use xlink:href="#DejaVuSans-73" x="182.470703"/>
     <use xlink:href="#DejaVuSans-74" x="234.570312"/>
     <use xlink:href="#DejaVuSans-3a" x="273.779297"/>
     <use xlink:href="#DejaVuSans-20" x="307.470703"/>
     <use xlink:href="#DejaVuSans-32" x="339.257812"/>
     <use xlink:href="#DejaVuSans-2e" x="402.880859"/>
     <use xlink:href="#DejaVuSans-39" x="434.667969"/>
     <use xlink:href="#DejaVuSans-20" x="498.291016"/>
     <use xlink:href="#DejaVuSans-64" x="530.078125"/>
     <use xlink:href="#DejaVuSans-42" x="593.554688"/>
     <use xlink:href="#DejaVuSans-69" x="662.158203"/>
    </g>
    <!-- G_inpe: 1.2 dBi -->
    <g transform="translate(384.8785 493.297563)scale(0.1 -0.1)">
     <defs>
      <path id="DejaVuSans-6e" d="M 3513 2113 
L 3513 0 
L 2938 0 
L 2938 2094 
Q 2938 2591 2744 2837 
Q 2550 3084 2163 3084 
Q 1697 3084 1428 2787 
Q 1159 2491 1159 1978 
L 1159 0 
L 581 0 
L 581 3500 
L 1159 3500 
L 1159 2956 
Q 1366 3272 1645 3428 
Q 1925 3584 2291 3584 
Q 2894 3584 3203 3211 
Q 3513 2838 3513 2113 
z
" transform="scale(0.015625)"/>
      <path id="DejaVuSans-70" d="M 1159 525 
L 1159 -1331 
L 581 -1331 
L 581 3500 
L 1159 3500 
L 1159 2969 
Q 1341 3281 1617 3432 
Q 1894 3584 2278 3584 
Q 2916 3584 3314 3078 
Q 3713 2572 3713 1747 
Q 3713 922 3314 415 
Q 2916 -91 2278 -91 
Q 1894 -91 1617 61 
Q 1341 213 1159 525 
z
M 3116 1747 
Q 3116 2381 2855 2742 
Q 2594 3103 2138 3103 
Q 1681 3103 1420 2742 
Q 1159 2381 1159 1747 
Q 1159 1113 1420 752 
Q 1681 391 2138 391 
Q 2594 391 2855 752 
Q 3116 1113 3116 1747 
z
" transform="scale(0.015625)"/>
      <path id="DejaVuSans-65" d="M 3597 1894 
L 3597 1613 
L 953 1613 
Q 991 1019 1311 708 
Q 1631 397 2203 397 
Q 2534 397 2845 478 
Q 3156 559 3463 722 
L 3463 178 
Q 3153 47 2828 -22 
Q 2503 -91 2169 -91 
Q 1331 -91 842 396 
Q 353 884 353 1716 
Q 353 2575 817 3079 
Q 1281 3584 2069 3584 
Q 2775 3584 3186 3129 
Q 3597 2675 3597 1894 
z
M 3022 2063 
Q 3016 2534 2758 2815 
Q 2500 3097 2075 3097 
Q 1594 3097 1305 2825 
Q 1016 2553 972 2059 
L 3022 2063 
z
" transform="scale(0.015625)"/>
     </defs>
     <use xlink:href="#DejaVuSans-47"/>
     <use xlink:href="#DejaVuSans-5f" x="77.490234"/>
     <use xlink:href="#DejaVuSans-69" x="127.490234"/>
     <use xlink:href="#DejaVuSans-6e" x="155.273438"/>
     <use xlink:href="#DejaVuSans-70" x="218.652344"/>
     <use xlink:href="#DejaVuSans-65" x="282.128906"/>
     <use xlink:href="#DejaVuSans-3a" x="343.652344"/>
     <use xlink:href="#DejaVuSans-20" x="377.34375"/>
     <use xlink:href="#DejaVuSans-31" x="409.130859"/>
     <use xlink:href="#DejaVuSans-2e" x="472.753906"/>
     <use xlink:href="#DejaVuSans-32" x="504.541016"/>
     <use xlink:href="#DejaVuSans-20" x="568.164062"/>
     <use xlink:href="#DejaVuSans-64" x="599.951172"/>
     <use xlink:href="#DejaVuSans-42" x="663.427734"/>
     <use xlink:href="#DejaVuSans-69" x="732.03125"/>
    </g>
    <!-- Pearson Coef: 0.75 -->
    <g transform="translate(384.8785 504.7735)scale(0.1 -0.1)">
     <defs>
      <path id="DejaVuSans-50" d="M 1259 4147 
L 1259 2394 
L 2053 2394 
Q 2494 2394 2734 2622 
Q 2975 2850 2975 3272 
Q 2975 3691 2734 3919 
Q 2494 4147 2053 4147 
L 1259 4147 
z
M 628 4666 
L 2053 4666 
Q 2838 4666 3239 4311 
Q 3641 3956 3641 3272 
Q 3641 2581 3239 2228 
Q 2838 1875 2053 1875 
L 1259 1875 
L 1259 0 
L 628 0 
L 628 4666 
z
" transform="scale(0.015625)"/>
      <path id="DejaVuSans-61" d="M 2194 1759 
Q 1497 1759 1228 1600 
Q 959 1441 959 1056 
Q 959 750 1161 570 
Q 1363 391 1709 391 
Q 2188 391 2477 730 
Q 2766 1069 2766 1631 
L 2766 1759 
L 2194 1759 
z
M 3341 1997 
L 3341 0 
L 2766 0 
L 2766 531 
Q 2569 213 2275 61 
Q 1981 -91 1556 -91 
Q 1019 -91 701 211 
Q 384 513 384 1019 
Q 384 1609 779 1909 
Q 1175 2209 1959 2209 
L 2766 2209 
L 2766 2266 
Q 2766 2663 2505 2880 
Q 2244 3097 1772 3097 
Q 1472 3097 1187 3025 
Q 903 2953 641 2809 
L 641 3341 
Q 956 3463 1253 3523 
Q 1550 3584 1831 3584 
Q 2591 3584 2966 3190 
Q 3341 2797 3341 1997 
z
" transform="scale(0.015625)"/>
      <path id="DejaVuSans-72" d="M 2631 2963 
Q 2534 3019 2420 3045 
Q 2306 3072 2169 3072 
Q 1681 3072 1420 2755 
Q 1159 2438 1159 1844 
L 1159 0 
L 581 0 
L 581 3500 
L 1159 3500 
L 1159 2956 
Q 1341 3275 1631 3429 
Q 1922 3584 2338 3584 
Q 2397 3584 2469 3576 
Q 2541 3569 2628 3553 
L 2631 2963 
z
" transform="scale(0.015625)"/>
      <path id="DejaVuSans-6f" d="M 1959 3097 
Q 1497 3097 1228 2736 
Q 959 2375 959 1747 
Q 959 1119 1226 758 
Q 1494 397 1959 397 
Q 2419 397 2687 759 
Q 2956 1122 2956 1747 
Q 2956 2369 2687 2733 
Q 2419 3097 1959 3097 
z
M 1959 3584 
Q 2709 3584 3137 3096 
Q 3566 2609 3566 1747 
Q 3566 888 3137 398 
Q 2709 -91 1959 -91 
Q 1206 -91 779 398 
Q 353 888 353 1747 
Q 353 2609 779 3096 
Q 1206 3584 1959 3584 
z
" transform="scale(0.015625)"/>
      <path id="DejaVuSans-43" d="M 4122 4306 
L 4122 3641 
Q 3803 3938 3442 4084 
Q 3081 4231 2675 4231 
Q 1875 4231 1450 3742 
Q 1025 3253 1025 2328 
Q 1025 1406 1450 917 
Q 1875 428 2675 428 
Q 3081 428 3442 575 
Q 3803 722 4122 1019 
L 4122 359 
Q 3791 134 3420 21 
Q 3050 -91 2638 -91 
Q 1578 -91 968 557 
Q 359 1206 359 2328 
Q 359 3453 968 4101 
Q 1578 4750 2638 4750 
Q 3056 4750 3426 4639 
Q 3797 4528 4122 4306 
z
" transform="scale(0.015625)"/>
      <path id="DejaVuSans-66" d="M 2375 4863 
L 2375 4384 
L 1825 4384 
Q 1516 4384 1395 4259 
Q 1275 4134 1275 3809 
L 1275 3500 
L 2222 3500 
L 2222 3053 
L 1275 3053 
L 1275 0 
L 697 0 
L 697 3053 
L 147 3053 
L 147 3500 
L 697 3500 
L 697 3744 
Q 697 4328 969 4595 
Q 1241 4863 1831 4863 
L 2375 4863 
z
" transform="scale(0.015625)"/>
     </defs>
     <use xlink:href="#DejaVuSans-50"/>
     <use xlink:href="#DejaVuSans-65" x="56.677734"/>
     <use xlink:href="#DejaVuSans-61" x="118.201172"/>
     <use xlink:href="#DejaVuSans-72" x="179.480469"/>
     <use xlink:href="#DejaVuSans-73" x="220.59375"/>
     <use xlink:href="#DejaVuSans-6f" x="272.693359"/>
     <use xlink:href="#DejaVuSans-6e" x="333.875"/>
     <use xlink:href="#DejaVuSans-20" x="397.253906"/>
     <use xlink:href="#DejaVuSans-43" x="429.041016"/>
     <use xlink:href="#DejaVuSans-6f" x="498.865234"/>
     <use xlink:href="#DejaVuSans-65" x="560.046875"/>
     <use xlink:href="#DejaVuSans-66" x="621.570312"/>
     <use xlink:href="#DejaVuSans-3a" x="653.150391"/>
     <use xlink:href="#DejaVuSans-20" x="686.841797"/>
     <use xlink:href="#DejaVuSans-30" x="718.628906"/>
     <use xlink:href="#DejaVuSans-2e" x="782.251953"/>
     <use xlink:href="#DejaVuSans-37" x="814.039062"/>
     <use xlink:href="#DejaVuSans-35" x="877.662109"/>
    </g>
   </g>
   <g id="text_18">
    <g id="patch_5">
     <path d="M 52.2385 56.370938 
L 121.861 56.370938 
Q 125.461 56.370938 125.461 52.770938 
L 125.461 41.157188 
Q 125.461 37.557188 121.861 37.557188 
L 52.2385 37.557188 
Q 48.6385 37.557188 48.6385 41.157188 
L 48.6385 52.770938 
Q 48.6385 56.370938 52.2385 56.370938 
z
" style="fill: #ffffff; stroke: #808080; stroke-linejoin: miter"/>
    </g>
    <!-- Freq: 3 GHz -->
    <g transform="translate(52.2385 50.275313)scale(0.12 -0.12)">
     <defs>
      <path id="DejaVuSans-46" d="M 628 4666 
L 3309 4666 
L 3309 4134 
L 1259 4134 
L 1259 2759 
L 3109 2759 
L 3109 2228 
L 1259 2228 
L 1259 0 
L 628 0 
L 628 4666 
z
" transform="scale(0.015625)"/>
      <path id="DejaVuSans-71" d="M 947 1747 
Q 947 1113 1208 752 
Q 1469 391 1925 391 
Q 2381 391 2643 752 
Q 2906 1113 2906 1747 
Q 2906 2381 2643 2742 
Q 2381 3103 1925 3103 
Q 1469 3103 1208 2742 
Q 947 2381 947 1747 
z
M 2906 525 
Q 2725 213 2448 61 
Q 2172 -91 1784 -91 
Q 1150 -91 751 415 
Q 353 922 353 1747 
Q 353 2572 751 3078 
Q 1150 3584 1784 3584 
Q 2172 3584 2448 3432 
Q 2725 3281 2906 2969 
L 2906 3500 
L 3481 3500 
L 3481 -1331 
L 2906 -1331 
L 2906 525 
z
" transform="scale(0.015625)"/>
      <path id="DejaVuSans-48" d="M 628 4666 
L 1259 4666 
L 1259 2753 
L 3553 2753 
L 3553 4666 
L 4184 4666 
L 4184 0 
L 3553 0 
L 3553 2222 
L 1259 2222 
L 1259 0 
L 628 0 
L 628 4666 
z
" transform="scale(0.015625)"/>
      <path id="DejaVuSans-7a" d="M 353 3500 
L 3084 3500 
L 3084 2975 
L 922 459 
L 3084 459 
L 3084 0 
L 275 0 
L 275 525 
L 2438 3041 
L 353 3041 
L 353 3500 
z
" transform="scale(0.015625)"/>
     </defs>
     <use xlink:href="#DejaVuSans-46"/>
     <use xlink:href="#DejaVuSans-72" x="50.269531"/>
     <use xlink:href="#DejaVuSans-65" x="89.132812"/>
     <use xlink:href="#DejaVuSans-71" x="150.65625"/>
     <use xlink:href="#DejaVuSans-3a" x="214.132812"/>
     <use xlink:href="#DejaVuSans-20" x="247.824219"/>
     <use xlink:href="#DejaVuSans-33" x="279.611328"/>
     <use xlink:href="#DejaVuSans-20" x="343.234375"/>
     <use xlink:href="#DejaVuSans-47" x="375.021484"/>
     <use xlink:href="#DejaVuSans-48" x="452.511719"/>
     <use xlink:href="#DejaVuSans-7a" x="527.707031"/>
    </g>
   </g>
   <g id="text_19">
    <!-- Radiation Diagram - 4AVVF03 -->
    <g transform="translate(162.985938 16.318125)scale(0.12 -0.12)">
     <defs>
      <path id="DejaVuSans-52" d="M 2841 2188 
Q 3044 2119 3236 1894 
Q 3428 1669 3622 1275 
L 4263 0 
L 3584 0 
L 2988 1197 
Q 2756 1666 2539 1819 
Q 2322 1972 1947 1972 
L 1259 1972 
L 1259 0 
L 628 0 
L 628 4666 
L 2053 4666 
Q 2853 4666 3247 4331 
Q 3641 3997 3641 3322 
Q 3641 2881 3436 2590 
Q 3231 2300 2841 2188 
z
M 1259 4147 
L 1259 2491 
L 2053 2491 
Q 2509 2491 2742 2702 
Q 2975 2913 2975 3322 
Q 2975 3731 2742 3939 
Q 2509 4147 2053 4147 
L 1259 4147 
z
" transform="scale(0.015625)"/>
      <path id="DejaVuSans-44" d="M 1259 4147 
L 1259 519 
L 2022 519 
Q 2988 519 3436 956 
Q 3884 1394 3884 2338 
Q 3884 3275 3436 3711 
Q 2988 4147 2022 4147 
L 1259 4147 
z
M 628 4666 
L 1925 4666 
Q 3281 4666 3915 4102 
Q 4550 3538 4550 2338 
Q 4550 1131 3912 565 
Q 3275 0 1925 0 
L 628 0 
L 628 4666 
z
" transform="scale(0.015625)"/>
      <path id="DejaVuSans-67" d="M 2906 1791 
Q 2906 2416 2648 2759 
Q 2391 3103 1925 3103 
Q 1463 3103 1205 2759 
Q 947 2416 947 1791 
Q 947 1169 1205 825 
Q 1463 481 1925 481 
Q 2391 481 2648 825 
Q 2906 1169 2906 1791 
z
M 3481 434 
Q 3481 -459 3084 -895 
Q 2688 -1331 1869 -1331 
Q 1566 -1331 1297 -1286 
Q 1028 -1241 775 -1147 
L 775 -588 
Q 1028 -725 1275 -790 
Q 1522 -856 1778 -856 
Q 2344 -856 2625 -561 
Q 2906 -266 2906 331 
L 2906 616 
Q 2728 306 2450 153 
Q 2172 0 1784 0 
Q 1141 0 747 490 
Q 353 981 353 1791 
Q 353 2603 747 3093 
Q 1141 3584 1784 3584 
Q 2172 3584 2450 3431 
Q 2728 3278 2906 2969 
L 2906 3500 
L 3481 3500 
L 3481 434 
z
" transform="scale(0.015625)"/>
      <path id="DejaVuSans-6d" d="M 3328 2828 
Q 3544 3216 3844 3400 
Q 4144 3584 4550 3584 
Q 5097 3584 5394 3201 
Q 5691 2819 5691 2113 
L 5691 0 
L 5113 0 
L 5113 2094 
Q 5113 2597 4934 2840 
Q 4756 3084 4391 3084 
Q 3944 3084 3684 2787 
Q 3425 2491 3425 1978 
L 3425 0 
L 2847 0 
L 2847 2094 
Q 2847 2600 2669 2842 
Q 2491 3084 2119 3084 
Q 1678 3084 1418 2786 
Q 1159 2488 1159 1978 
L 1159 0 
L 581 0 
L 581 3500 
L 1159 3500 
L 1159 2956 
Q 1356 3278 1631 3431 
Q 1906 3584 2284 3584 
Q 2666 3584 2933 3390 
Q 3200 3197 3328 2828 
z
" transform="scale(0.015625)"/>
      <path id="DejaVuSans-2d" d="M 313 2009 
L 1997 2009 
L 1997 1497 
L 313 1497 
L 313 2009 
z
" transform="scale(0.015625)"/>
      <path id="DejaVuSans-41" d="M 2188 4044 
L 1331 1722 
L 3047 1722 
L 2188 4044 
z
M 1831 4666 
L 2547 4666 
L 4325 0 
L 3669 0 
L 3244 1197 
L 1141 1197 
L 716 0 
L 50 0 
L 1831 4666 
z
" transform="scale(0.015625)"/>
      <path id="DejaVuSans-56" d="M 1831 0 
L 50 4666 
L 709 4666 
L 2188 738 
L 3669 4666 
L 4325 4666 
L 2547 0 
L 1831 0 
z
" transform="scale(0.015625)"/>
     </defs>
     <use xlink:href="#DejaVuSans-52"/>
     <use xlink:href="#DejaVuSans-61" x="67.232422"/>
     <use xlink:href="#DejaVuSans-64" x="128.511719"/>
     <use xlink:href="#DejaVuSans-69" x="191.988281"/>
     <use xlink:href="#DejaVuSans-61" x="219.771484"/>
     <use xlink:href="#DejaVuSans-74" x="281.050781"/>
     <use xlink:href="#DejaVuSans-69" x="320.259766"/>
     <use xlink:href="#DejaVuSans-6f" x="348.042969"/>
     <use xlink:href="#DejaVuSans-6e" x="409.224609"/>
     <use xlink:href="#DejaVuSans-20" x="472.603516"/>
     <use xlink:href="#DejaVuSans-44" x="504.390625"/>
     <use xlink:href="#DejaVuSans-69" x="581.392578"/>
     <use xlink:href="#DejaVuSans-61" x="609.175781"/>
     <use xlink:href="#DejaVuSans-67" x="670.455078"/>
     <use xlink:href="#DejaVuSans-72" x="733.931641"/>
     <use xlink:href="#DejaVuSans-61" x="775.044922"/>
     <use xlink:href="#DejaVuSans-6d" x="836.324219"/>
     <use xlink:href="#DejaVuSans-20" x="933.736328"/>
     <use xlink:href="#DejaVuSans-2d" x="965.523438"/>
     <use xlink:href="#DejaVuSans-20" x="1001.607422"/>
     <use xlink:href="#DejaVuSans-34" x="1033.394531"/>
     <use xlink:href="#DejaVuSans-41" x="1097.017578"/>
     <use xlink:href="#DejaVuSans-56" x="1159.050781"/>
     <use xlink:href="#DejaVuSans-56" x="1227.458984"/>
     <use xlink:href="#DejaVuSans-46" x="1295.867188"/>
     <use xlink:href="#DejaVuSans-30" x="1353.386719"/>
     <use xlink:href="#DejaVuSans-33" x="1417.009766"/>
    </g>
   </g>
   <g id="legend_1">
    <g id="patch_6">
     <path d="M 411.802813 78.513438 
L 466.5825 78.513438 
Q 468.5825 78.513438 468.5825 76.513438 
L 468.5825 48.157188 
Q 468.5825 46.157188 466.5825 46.157188 
L 411.802813 46.157188 
Q 409.802813 46.157188 409.802813 48.157188 
L 409.802813 76.513438 
Q 409.802813 78.513438 411.802813 78.513438 
z
" style="fill: #ffffff; opacity: 0.8; stroke: #cccccc; stroke-linejoin: miter"/>
    </g>
    <g id="line2d_19">
     <path d="M 413.802813 54.255625 
L 423.802813 54.255625 
L 433.802813 54.255625 
" style="fill: none; stroke: #ff0000; stroke-width: 1.5; stroke-linecap: square"/>
    </g>
    <g id="text_20">
     <!-- INPE -->
     <g transform="translate(441.802813 57.755625)scale(0.1 -0.1)">
      <defs>
       <path id="DejaVuSans-49" d="M 628 4666 
L 1259 4666 
L 1259 0 
L 628 0 
L 628 4666 
z
" transform="scale(0.015625)"/>
       <path id="DejaVuSans-4e" d="M 628 4666 
L 1478 4666 
L 3547 763 
L 3547 4666 
L 4159 4666 
L 4159 0 
L 3309 0 
L 1241 3903 
L 1241 0 
L 628 0 
L 628 4666 
z
" transform="scale(0.015625)"/>
       <path id="DejaVuSans-45" d="M 628 4666 
L 3578 4666 
L 3578 4134 
L 1259 4134 
L 1259 2753 
L 3481 2753 
L 3481 2222 
L 1259 2222 
L 1259 531 
L 3634 531 
L 3634 0 
L 628 0 
L 628 4666 
z
" transform="scale(0.015625)"/>
      </defs>
      <use xlink:href="#DejaVuSans-49"/>
      <use xlink:href="#DejaVuSans-4e" x="29.492188"/>
      <use xlink:href="#DejaVuSans-50" x="104.296875"/>
      <use xlink:href="#DejaVuSans-45" x="164.599609"/>
     </g>
    </g>
    <g id="line2d_20">
     <path d="M 413.802813 68.93375 
L 423.802813 68.93375 
L 433.802813 68.93375 
" style="fill: none; stroke-dasharray: 5.55,2.4; stroke-dashoffset: 0; stroke: #0000ff; stroke-width: 1.5"/>
    </g>
    <g id="text_21">
     <!-- CST -->
     <g transform="translate(441.802813 72.43375)scale(0.1 -0.1)">
      <defs>
       <path id="DejaVuSans-53" d="M 3425 4513 
L 3425 3897 
Q 3066 4069 2747 4153 
Q 2428 4238 2131 4238 
Q 1616 4238 1336 4038 
Q 1056 3838 1056 3469 
Q 1056 3159 1242 3001 
Q 1428 2844 1947 2747 
L 2328 2669 
Q 3034 2534 3370 2195 
Q 3706 1856 3706 1288 
Q 3706 609 3251 259 
Q 2797 -91 1919 -91 
Q 1588 -91 1214 -16 
Q 841 59 441 206 
L 441 856 
Q 825 641 1194 531 
Q 1563 422 1919 422 
Q 2459 422 2753 634 
Q 3047 847 3047 1241 
Q 3047 1584 2836 1778 
Q 2625 1972 2144 2069 
L 1759 2144 
Q 1053 2284 737 2584 
Q 422 2884 422 3419 
Q 422 4038 858 4394 
Q 1294 4750 2059 4750 
Q 2388 4750 2728 4690 
Q 3069 4631 3425 4513 
z
" transform="scale(0.015625)"/>
       <path id="DejaVuSans-54" d="M -19 4666 
L 3928 4666 
L 3928 4134 
L 2272 4134 
L 2272 0 
L 1638 0 
L 1638 4134 
L -19 4134 
L -19 4666 
z
" transform="scale(0.015625)"/>
      </defs>
      <use xlink:href="#DejaVuSans-43"/>
      <use xlink:href="#DejaVuSans-53" x="69.824219"/>
      <use xlink:href="#DejaVuSans-54" x="133.300781"/>
     </g>
    </g>
   </g>
  </g>
 </g>
 <defs>
  <clipPath id="p5a2392474b">
   <path d="M 473.5825 262.917188 
C 473.5825 233.795931 467.846247 204.957842 456.702025 178.05331 
C 445.557803 151.148777 429.222338 126.701026 408.6305 106.109188 
C 388.038662 85.51735 363.590911 69.181885 336.686378 58.037662 
C 309.781845 46.89344 280.943756 41.157188 251.8225 41.157188 
C 222.701244 41.157188 193.863155 46.89344 166.958622 58.037662 
C 140.054089 69.181885 115.606338 85.51735 95.0145 106.109188 
C 74.422662 126.701026 58.087197 151.148777 46.942975 178.05331 
C 35.798753 204.957842 30.0625 233.795931 30.0625 262.917188 
C 30.0625 292.038444 35.798753 320.876533 46.942975 347.781065 
C 58.087197 374.685598 74.422662 399.133349 95.0145 419.725187 
C 115.606338 440.317025 140.054089 456.65249 166.958622 467.796713 
C 193.863155 478.940935 222.701244 484.677188 251.8225 484.677188 
C 280.943756 484.677188 309.781845 478.940935 336.686378 467.796713 
C 363.590911 456.65249 388.038662 440.317025 408.6305 419.725187 
C 429.222338 399.133349 445.557803 374.685598 456.702025 347.781065 
C 467.846247 320.876533 473.5825 292.038444 473.5825 262.917188 
M 251.8225 262.917188 
C 251.8225 262.917188 251.8225 262.917188 251.8225 262.917188 
C 251.8225 262.917188 251.8225 262.917188 251.8225 262.917188 
C 251.8225 262.917188 251.8225 262.917188 251.8225 262.917188 
C 251.8225 262.917188 251.8225 262.917188 251.8225 262.917188 
C 251.8225 262.917188 251.8225 262.917188 251.8225 262.917188 
C 251.8225 262.917188 251.8225 262.917188 251.8225 262.917188 
C 251.8225 262.917188 251.8225 262.917188 251.8225 262.917188 
C 251.8225 262.917188 251.8225 262.917188 251.8225 262.917188 
C 251.8225 262.917188 251.8225 262.917188 251.8225 262.917188 
C 251.8225 262.917188 251.8225 262.917188 251.8225 262.917188 
C 251.8225 262.917188 251.8225 262.917188 251.8225 262.917188 
C 251.8225 262.917188 251.8225 262.917188 251.8225 262.917188 
C 251.8225 262.917188 251.8225 262.917188 251.8225 262.917188 
C 251.8225 262.917188 251.8225 262.917188 251.8225 262.917188 
C 251.8225 262.917188 251.8225 262.917188 251.8225 262.917188 
C 251.8225 262.917188 251.8225 262.917188 251.8225 262.917188 
M 473.5825 262.917188 
z
"/>
  </clipPath>
 </defs>
</svg>
