<?xml version="1.0" encoding="utf-8" standalone="no"?>
<!DOCTYPE svg PUBLIC "-//W3C//DTD SVG 1.1//EN"
  "http://www.w3.org/Graphics/SVG/1.1/DTD/svg11.dtd">
<svg xmlns:xlink="http://www.w3.org/1999/xlink" width="506.82625pt" height="514.053188pt" viewBox="0 0 506.82625 514.053188" xmlns="http://www.w3.org/2000/svg" version="1.1">
 <metadata>
  <rdf:RDF xmlns:dc="http://purl.org/dc/elements/1.1/" xmlns:cc="http://creativecommons.org/ns#" xmlns:rdf="http://www.w3.org/1999/02/22-rdf-syntax-ns#">
   <cc:Work>
    <dc:type rdf:resource="http://purl.org/dc/dcmitype/StillImage"/>
    <dc:date>2023-12-14T14:01:24.983210</dc:date>
    <dc:format>image/svg+xml</dc:format>
    <dc:creator>
     <cc:Agent>
      <dc:title>Matplotlib v3.5.1, https://matplotlib.org/</dc:title>
     </cc:Agent>
    </dc:creator>
   </cc:Work>
  </rdf:RDF>
 </metadata>
 <defs>
  <style type="text/css">*{stroke-linejoin: round; stroke-linecap: butt}</style>
 </defs>
 <g id="figure_1">
  <g id="patch_1">
   <path d="M 0 514.053188 
L 506.82625 514.053188 
L 506.82625 0 
L 0 0 
z
" style="fill: #ffffff"/>
  </g>
  <g id="axes_1">
   <g id="patch_2">
    <path d="M 473.5825 262.917188 
C 473.5825 233.795931 467.846247 204.957842 456.702025 178.05331 
C 445.557803 151.148777 429.222338 126.701026 408.6305 106.109188 
C 388.038662 85.51735 363.590911 69.181885 336.686378 58.037662 
C 309.781845 46.89344 280.943756 41.157188 251.8225 41.157188 
C 222.701244 41.157188 193.863155 46.89344 166.958622 58.037662 
C 140.054089 69.181885 115.606338 85.51735 95.0145 106.109188 
C 74.422662 126.701026 58.087197 151.148777 46.942975 178.05331 
C 35.798753 204.957842 30.0625 233.795931 30.0625 262.917188 
C 30.0625 292.038444 35.798753 320.876533 46.942975 347.781065 
C 58.087197 374.685598 74.422662 399.133349 95.0145 419.725187 
C 115.606338 440.317025 140.054089 456.65249 166.958622 467.796713 
C 193.863155 478.940935 222.701244 484.677188 251.8225 484.677188 
C 280.943756 484.677188 309.781845 478.940935 336.686378 467.796713 
C 363.590911 456.65249 388.038662 440.317025 408.6305 419.725187 
C 429.222338 399.133349 445.557803 374.685598 456.702025 347.781065 
C 467.846247 320.876533 473.5825 292.038444 473.5825 262.917188 
M 251.8225 262.917188 
C 251.8225 262.917188 251.8225 262.917188 251.8225 262.917188 
C 251.8225 262.917188 251.8225 262.917188 251.8225 262.917188 
C 251.8225 262.917188 251.8225 262.917188 251.8225 262.917188 
C 251.8225 262.917188 251.8225 262.917188 251.8225 262.917188 
C 251.8225 262.917188 251.8225 262.917188 251.8225 262.917188 
C 251.8225 262.917188 251.8225 262.917188 251.8225 262.917188 
C 251.8225 262.917188 251.8225 262.917188 251.8225 262.917188 
C 251.8225 262.917188 251.8225 262.917188 251.8225 262.917188 
C 251.8225 262.917188 251.8225 262.917188 251.8225 262.917188 
C 251.8225 262.917188 251.8225 262.917188 251.8225 262.917188 
C 251.8225 262.917188 251.8225 262.917188 251.8225 262.917188 
C 251.8225 262.917188 251.8225 262.917188 251.8225 262.917188 
C 251.8225 262.917188 251.8225 262.917188 251.8225 262.917188 
C 251.8225 262.917188 251.8225 262.917188 251.8225 262.917188 
C 251.8225 262.917188 251.8225 262.917188 251.8225 262.917188 
C 251.8225 262.917188 251.8225 262.917188 251.8225 262.917188 
M 473.5825 262.917188 
z
" style="fill: #ffffff"/>
   </g>
   <g id="matplotlib.axis_1">
    <g id="xtick_1">
     <g id="line2d_1">
      <path d="M 251.8225 262.917188 
L 251.8225 41.157188 
" clip-path="url(#pdd0bf94bbb)" style="fill: none; stroke: #b0b0b0; stroke-width: 0.8; stroke-linecap: square"/>
     </g>
     <g id="text_1">
      <!-- 0° -->
      <g transform="translate(246.14125 29.916563)scale(0.1 -0.1)">
       <defs>
        <path id="DejaVuSans-30" d="M 2034 4250 
Q 1547 4250 1301 3770 
Q 1056 3291 1056 2328 
Q 1056 1369 1301 889 
Q 1547 409 2034 409 
Q 2525 409 2770 889 
Q 3016 1369 3016 2328 
Q 3016 3291 2770 3770 
Q 2525 4250 2034 4250 
z
M 2034 4750 
Q 2819 4750 3233 4129 
Q 3647 3509 3647 2328 
Q 3647 1150 3233 529 
Q 2819 -91 2034 -91 
Q 1250 -91 836 529 
Q 422 1150 422 2328 
Q 422 3509 836 4129 
Q 1250 4750 2034 4750 
z
" transform="scale(0.015625)"/>
        <path id="DejaVuSans-b0" d="M 1600 4347 
Q 1350 4347 1178 4173 
Q 1006 4000 1006 3750 
Q 1006 3503 1178 3333 
Q 1350 3163 1600 3163 
Q 1850 3163 2022 3333 
Q 2194 3503 2194 3750 
Q 2194 3997 2020 4172 
Q 1847 4347 1600 4347 
z
M 1600 4750 
Q 1800 4750 1984 4673 
Q 2169 4597 2303 4453 
Q 2447 4313 2519 4134 
Q 2591 3956 2591 3750 
Q 2591 3338 2302 3052 
Q 2013 2766 1594 2766 
Q 1172 2766 890 3047 
Q 609 3328 609 3750 
Q 609 4169 896 4459 
Q 1184 4750 1600 4750 
z
" transform="scale(0.015625)"/>
       </defs>
       <use xlink:href="#DejaVuSans-30"/>
       <use xlink:href="#DejaVuSans-b0" x="63.623047"/>
      </g>
     </g>
    </g>
    <g id="xtick_2">
     <g id="line2d_2">
      <path d="M 251.8225 262.917188 
L 95.0145 106.109188 
" clip-path="url(#pdd0bf94bbb)" style="fill: none; stroke: #b0b0b0; stroke-width: 0.8; stroke-linecap: square"/>
     </g>
     <g id="text_2">
      <!-- 45° -->
      <g transform="translate(76.252505 98.969068)scale(0.1 -0.1)">
       <defs>
        <path id="DejaVuSans-34" d="M 2419 4116 
L 825 1625 
L 2419 1625 
L 2419 4116 
z
M 2253 4666 
L 3047 4666 
L 3047 1625 
L 3713 1625 
L 3713 1100 
L 3047 1100 
L 3047 0 
L 2419 0 
L 2419 1100 
L 313 1100 
L 313 1709 
L 2253 4666 
z
" transform="scale(0.015625)"/>
        <path id="DejaVuSans-35" d="M 691 4666 
L 3169 4666 
L 3169 4134 
L 1269 4134 
L 1269 2991 
Q 1406 3038 1543 3061 
Q 1681 3084 1819 3084 
Q 2600 3084 3056 2656 
Q 3513 2228 3513 1497 
Q 3513 744 3044 326 
Q 2575 -91 1722 -91 
Q 1428 -91 1123 -41 
Q 819 9 494 109 
L 494 744 
Q 775 591 1075 516 
Q 1375 441 1709 441 
Q 2250 441 2565 725 
Q 2881 1009 2881 1497 
Q 2881 1984 2565 2268 
Q 2250 2553 1709 2553 
Q 1456 2553 1204 2497 
Q 953 2441 691 2322 
L 691 4666 
z
" transform="scale(0.015625)"/>
       </defs>
       <use xlink:href="#DejaVuSans-34"/>
       <use xlink:href="#DejaVuSans-35" x="63.623047"/>
       <use xlink:href="#DejaVuSans-b0" x="127.246094"/>
      </g>
     </g>
    </g>
    <g id="xtick_3">
     <g id="line2d_3">
      <path d="M 251.8225 262.917188 
L 30.0625 262.917188 
" clip-path="url(#pdd0bf94bbb)" style="fill: none; stroke: #b0b0b0; stroke-width: 0.8; stroke-linecap: square"/>
     </g>
     <g id="text_3">
      <!-- 90° -->
      <g transform="translate(7.2 265.676563)scale(0.1 -0.1)">
       <defs>
        <path id="DejaVuSans-39" d="M 703 97 
L 703 672 
Q 941 559 1184 500 
Q 1428 441 1663 441 
Q 2288 441 2617 861 
Q 2947 1281 2994 2138 
Q 2813 1869 2534 1725 
Q 2256 1581 1919 1581 
Q 1219 1581 811 2004 
Q 403 2428 403 3163 
Q 403 3881 828 4315 
Q 1253 4750 1959 4750 
Q 2769 4750 3195 4129 
Q 3622 3509 3622 2328 
Q 3622 1225 3098 567 
Q 2575 -91 1691 -91 
Q 1453 -91 1209 -44 
Q 966 3 703 97 
z
M 1959 2075 
Q 2384 2075 2632 2365 
Q 2881 2656 2881 3163 
Q 2881 3666 2632 3958 
Q 2384 4250 1959 4250 
Q 1534 4250 1286 3958 
Q 1038 3666 1038 3163 
Q 1038 2656 1286 2365 
Q 1534 2075 1959 2075 
z
" transform="scale(0.015625)"/>
       </defs>
       <use xlink:href="#DejaVuSans-39"/>
       <use xlink:href="#DejaVuSans-30" x="63.623047"/>
       <use xlink:href="#DejaVuSans-b0" x="127.246094"/>
      </g>
     </g>
    </g>
    <g id="xtick_4">
     <g id="line2d_4">
      <path d="M 251.8225 262.917188 
L 95.0145 419.725187 
" clip-path="url(#pdd0bf94bbb)" style="fill: none; stroke: #b0b0b0; stroke-width: 0.8; stroke-linecap: square"/>
     </g>
     <g id="text_4">
      <!-- 135° -->
      <g transform="translate(73.071255 432.384057)scale(0.1 -0.1)">
       <defs>
        <path id="DejaVuSans-31" d="M 794 531 
L 1825 531 
L 1825 4091 
L 703 3866 
L 703 4441 
L 1819 4666 
L 2450 4666 
L 2450 531 
L 3481 531 
L 3481 0 
L 794 0 
L 794 531 
z
" transform="scale(0.015625)"/>
        <path id="DejaVuSans-33" d="M 2597 2516 
Q 3050 2419 3304 2112 
Q 3559 1806 3559 1356 
Q 3559 666 3084 287 
Q 2609 -91 1734 -91 
Q 1441 -91 1130 -33 
Q 819 25 488 141 
L 488 750 
Q 750 597 1062 519 
Q 1375 441 1716 441 
Q 2309 441 2620 675 
Q 2931 909 2931 1356 
Q 2931 1769 2642 2001 
Q 2353 2234 1838 2234 
L 1294 2234 
L 1294 2753 
L 1863 2753 
Q 2328 2753 2575 2939 
Q 2822 3125 2822 3475 
Q 2822 3834 2567 4026 
Q 2313 4219 1838 4219 
Q 1578 4219 1281 4162 
Q 984 4106 628 3988 
L 628 4550 
Q 988 4650 1302 4700 
Q 1616 4750 1894 4750 
Q 2613 4750 3031 4423 
Q 3450 4097 3450 3541 
Q 3450 3153 3228 2886 
Q 3006 2619 2597 2516 
z
" transform="scale(0.015625)"/>
       </defs>
       <use xlink:href="#DejaVuSans-31"/>
       <use xlink:href="#DejaVuSans-33" x="63.623047"/>
       <use xlink:href="#DejaVuSans-35" x="127.246094"/>
       <use xlink:href="#DejaVuSans-b0" x="190.869141"/>
      </g>
     </g>
    </g>
    <g id="xtick_5">
     <g id="line2d_5">
      <path d="M 251.8225 262.917188 
L 251.8225 484.677188 
" clip-path="url(#pdd0bf94bbb)" style="fill: none; stroke: #b0b0b0; stroke-width: 0.8; stroke-linecap: square"/>
     </g>
     <g id="text_5">
      <!-- 180° -->
      <g transform="translate(239.77875 501.436563)scale(0.1 -0.1)">
       <defs>
        <path id="DejaVuSans-38" d="M 2034 2216 
Q 1584 2216 1326 1975 
Q 1069 1734 1069 1313 
Q 1069 891 1326 650 
Q 1584 409 2034 409 
Q 2484 409 2743 651 
Q 3003 894 3003 1313 
Q 3003 1734 2745 1975 
Q 2488 2216 2034 2216 
z
M 1403 2484 
Q 997 2584 770 2862 
Q 544 3141 544 3541 
Q 544 4100 942 4425 
Q 1341 4750 2034 4750 
Q 2731 4750 3128 4425 
Q 3525 4100 3525 3541 
Q 3525 3141 3298 2862 
Q 3072 2584 2669 2484 
Q 3125 2378 3379 2068 
Q 3634 1759 3634 1313 
Q 3634 634 3220 271 
Q 2806 -91 2034 -91 
Q 1263 -91 848 271 
Q 434 634 434 1313 
Q 434 1759 690 2068 
Q 947 2378 1403 2484 
z
M 1172 3481 
Q 1172 3119 1398 2916 
Q 1625 2713 2034 2713 
Q 2441 2713 2670 2916 
Q 2900 3119 2900 3481 
Q 2900 3844 2670 4047 
Q 2441 4250 2034 4250 
Q 1625 4250 1398 4047 
Q 1172 3844 1172 3481 
z
" transform="scale(0.015625)"/>
       </defs>
       <use xlink:href="#DejaVuSans-31"/>
       <use xlink:href="#DejaVuSans-38" x="63.623047"/>
       <use xlink:href="#DejaVuSans-30" x="127.246094"/>
       <use xlink:href="#DejaVuSans-b0" x="190.869141"/>
      </g>
     </g>
    </g>
    <g id="xtick_6">
     <g id="line2d_6">
      <path d="M 251.8225 262.917188 
L 408.6305 419.725187 
" clip-path="url(#pdd0bf94bbb)" style="fill: none; stroke: #b0b0b0; stroke-width: 0.8; stroke-linecap: square"/>
     </g>
     <g id="text_6">
      <!-- 225° -->
      <g transform="translate(406.486245 432.384057)scale(0.1 -0.1)">
       <defs>
        <path id="DejaVuSans-32" d="M 1228 531 
L 3431 531 
L 3431 0 
L 469 0 
L 469 531 
Q 828 903 1448 1529 
Q 2069 2156 2228 2338 
Q 2531 2678 2651 2914 
Q 2772 3150 2772 3378 
Q 2772 3750 2511 3984 
Q 2250 4219 1831 4219 
Q 1534 4219 1204 4116 
Q 875 4013 500 3803 
L 500 4441 
Q 881 4594 1212 4672 
Q 1544 4750 1819 4750 
Q 2544 4750 2975 4387 
Q 3406 4025 3406 3419 
Q 3406 3131 3298 2873 
Q 3191 2616 2906 2266 
Q 2828 2175 2409 1742 
Q 1991 1309 1228 531 
z
" transform="scale(0.015625)"/>
       </defs>
       <use xlink:href="#DejaVuSans-32"/>
       <use xlink:href="#DejaVuSans-32" x="63.623047"/>
       <use xlink:href="#DejaVuSans-35" x="127.246094"/>
       <use xlink:href="#DejaVuSans-b0" x="190.869141"/>
      </g>
     </g>
    </g>
    <g id="xtick_7">
     <g id="line2d_7">
      <path d="M 251.8225 262.917188 
L 473.5825 262.917188 
" clip-path="url(#pdd0bf94bbb)" style="fill: none; stroke: #b0b0b0; stroke-width: 0.8; stroke-linecap: square"/>
     </g>
     <g id="text_7">
      <!-- 270° -->
      <g transform="translate(475.53875 265.676563)scale(0.1 -0.1)">
       <defs>
        <path id="DejaVuSans-37" d="M 525 4666 
L 3525 4666 
L 3525 4397 
L 1831 0 
L 1172 0 
L 2766 4134 
L 525 4134 
L 525 4666 
z
" transform="scale(0.015625)"/>
       </defs>
       <use xlink:href="#DejaVuSans-32"/>
       <use xlink:href="#DejaVuSans-37" x="63.623047"/>
       <use xlink:href="#DejaVuSans-30" x="127.246094"/>
       <use xlink:href="#DejaVuSans-b0" x="190.869141"/>
      </g>
     </g>
    </g>
    <g id="xtick_8">
     <g id="line2d_8">
      <path d="M 251.8225 262.917188 
L 408.6305 106.109188 
" clip-path="url(#pdd0bf94bbb)" style="fill: none; stroke: #b0b0b0; stroke-width: 0.8; stroke-linecap: square"/>
     </g>
     <g id="text_8">
      <!-- 315° -->
      <g transform="translate(406.486245 98.969068)scale(0.1 -0.1)">
       <use xlink:href="#DejaVuSans-33"/>
       <use xlink:href="#DejaVuSans-31" x="63.623047"/>
       <use xlink:href="#DejaVuSans-35" x="127.246094"/>
       <use xlink:href="#DejaVuSans-b0" x="190.869141"/>
      </g>
     </g>
    </g>
   </g>
   <g id="matplotlib.axis_2">
    <g id="ytick_1">
     <g id="line2d_9">
      <path d="M 251.8225 224.258862 
C 246.745935 224.258862 241.718734 225.258835 237.028599 227.201552 
C 232.338465 229.144269 228.076609 231.99195 224.486936 235.581624 
C 220.897263 239.171297 218.049582 243.433153 216.106865 248.123287 
C 214.164147 252.813421 213.164175 257.840623 213.164175 262.917188 
C 213.164175 267.993752 214.164147 273.020954 216.106865 277.711088 
C 218.049582 282.401222 220.897263 286.663078 224.486936 290.252751 
C 228.076609 293.842425 232.338465 296.690106 237.028599 298.632823 
C 241.718734 300.57554 246.745935 301.575513 251.8225 301.575513 
C 256.899065 301.575513 261.926266 300.57554 266.616401 298.632823 
C 271.306535 296.690106 275.568391 293.842425 279.158064 290.252751 
C 282.747737 286.663078 285.595418 282.401222 287.538135 277.711088 
C 289.480853 273.020954 290.480825 267.993752 290.480825 262.917188 
C 290.480825 257.840623 289.480853 252.813421 287.538135 248.123287 
C 285.595418 243.433153 282.747737 239.171297 279.158064 235.581624 
C 275.568391 231.99195 271.306535 229.144269 266.616401 227.201552 
C 261.926266 225.258835 256.899065 224.258862 251.8225 224.258862 
" clip-path="url(#pdd0bf94bbb)" style="fill: none; stroke: #b0b0b0; stroke-width: 0.8; stroke-linecap: square"/>
     </g>
     <g id="text_9">
      <!-- −40 -->
      <g transform="translate(237.028599 225.121865)scale(0.1 -0.1)">
       <defs>
        <path id="DejaVuSans-2212" d="M 678 2272 
L 4684 2272 
L 4684 1741 
L 678 1741 
L 678 2272 
z
" transform="scale(0.015625)"/>
       </defs>
       <use xlink:href="#DejaVuSans-2212"/>
       <use xlink:href="#DejaVuSans-34" x="83.789062"/>
       <use xlink:href="#DejaVuSans-30" x="147.412109"/>
      </g>
     </g>
    </g>
    <g id="ytick_2">
     <g id="line2d_10">
      <path d="M 251.8225 178.483444 
C 240.734762 178.483444 229.754839 180.667486 219.511105 184.91058 
C 209.267371 189.153673 199.959042 195.3733 192.118827 203.213515 
C 184.278613 211.053729 178.058986 220.362059 173.815892 230.605793 
C 169.572799 240.849526 167.388756 251.82945 167.388756 262.917188 
C 167.388756 274.004925 169.572799 284.984849 173.815892 295.228582 
C 178.058986 305.472316 184.278613 314.780646 192.118827 322.62086 
C 199.959042 330.461075 209.267371 336.680702 219.511105 340.923795 
C 229.754839 345.166889 240.734762 347.350931 251.8225 347.350931 
C 262.910238 347.350931 273.890161 345.166889 284.133895 340.923795 
C 294.377629 336.680702 303.685958 330.461075 311.526173 322.62086 
C 319.366387 314.780646 325.586014 305.472316 329.829108 295.228582 
C 334.072201 284.984849 336.256244 274.004925 336.256244 262.917188 
C 336.256244 251.82945 334.072201 240.849526 329.829108 230.605793 
C 325.586014 220.362059 319.366387 211.053729 311.526173 203.213515 
C 303.685958 195.3733 294.377629 189.153673 284.133895 184.91058 
C 273.890161 180.667486 262.910238 178.483444 251.8225 178.483444 
" clip-path="url(#pdd0bf94bbb)" style="fill: none; stroke: #b0b0b0; stroke-width: 0.8; stroke-linecap: square"/>
     </g>
     <g id="text_10">
      <!-- −30 -->
      <g transform="translate(219.511105 182.830892)scale(0.1 -0.1)">
       <use xlink:href="#DejaVuSans-2212"/>
       <use xlink:href="#DejaVuSans-33" x="83.789062"/>
       <use xlink:href="#DejaVuSans-30" x="147.412109"/>
      </g>
     </g>
    </g>
    <g id="ytick_3">
     <g id="line2d_11">
      <path d="M 251.8225 132.708025 
C 234.723589 132.708025 217.790944 136.076137 201.993611 142.619607 
C 186.196277 149.163077 171.841474 158.75465 159.750718 170.845406 
C 147.659963 182.936161 138.068389 197.290965 131.52492 213.088298 
C 124.98145 228.885632 121.613337 245.818277 121.613337 262.917188 
C 121.613337 280.016098 124.98145 296.948743 131.52492 312.746077 
C 138.068389 328.54341 147.659963 342.898214 159.750718 354.988969 
C 171.841474 367.079725 186.196277 376.671298 201.993611 383.214768 
C 217.790944 389.758238 234.723589 393.12635 251.8225 393.12635 
C 268.921411 393.12635 285.854056 389.758238 301.651389 383.214768 
C 317.448723 376.671298 331.803526 367.079725 343.894282 354.988969 
C 355.985037 342.898214 365.576611 328.54341 372.12008 312.746077 
C 378.66355 296.948743 382.031663 280.016098 382.031663 262.917188 
C 382.031663 245.818277 378.66355 228.885632 372.12008 213.088298 
C 365.576611 197.290965 355.985037 182.936161 343.894282 170.845406 
C 331.803526 158.75465 317.448723 149.163077 301.651389 142.619607 
C 285.854056 136.076137 268.921411 132.708025 251.8225 132.708025 
" clip-path="url(#pdd0bf94bbb)" style="fill: none; stroke: #b0b0b0; stroke-width: 0.8; stroke-linecap: square"/>
     </g>
     <g id="text_11">
      <!-- −20 -->
      <g transform="translate(201.993611 140.53992)scale(0.1 -0.1)">
       <use xlink:href="#DejaVuSans-2212"/>
       <use xlink:href="#DejaVuSans-32" x="83.789062"/>
       <use xlink:href="#DejaVuSans-30" x="147.412109"/>
      </g>
     </g>
    </g>
    <g id="ytick_4">
     <g id="line2d_12">
      <path d="M 251.8225 86.932606 
C 228.712417 86.932606 205.827049 91.484789 184.476116 100.328635 
C 163.125183 109.172481 143.723906 122.136 127.382609 138.477297 
C 111.041312 154.818593 98.077793 174.219871 89.233947 195.570804 
C 80.390101 216.921737 75.837919 239.807104 75.837919 262.917188 
C 75.837919 286.027271 80.390101 308.912638 89.233947 330.263571 
C 98.077793 351.614504 111.041312 371.015782 127.382609 387.357078 
C 143.723906 403.698375 163.125183 416.661894 184.476116 425.50574 
C 205.827049 434.349586 228.712417 438.901769 251.8225 438.901769 
C 274.932583 438.901769 297.817951 434.349586 319.168884 425.50574 
C 340.519817 416.661894 359.921094 403.698375 376.262391 387.357078 
C 392.603688 371.015782 405.567207 351.614504 414.411053 330.263571 
C 423.254899 308.912638 427.807081 286.027271 427.807081 262.917188 
C 427.807081 239.807104 423.254899 216.921737 414.411053 195.570804 
C 405.567207 174.219871 392.603688 154.818593 376.262391 138.477297 
C 359.921094 122.136 340.519817 109.172481 319.168884 100.328635 
C 297.817951 91.484789 274.932583 86.932606 251.8225 86.932606 
" clip-path="url(#pdd0bf94bbb)" style="fill: none; stroke: #b0b0b0; stroke-width: 0.8; stroke-linecap: square"/>
     </g>
     <g id="text_12">
      <!-- −10 -->
      <g transform="translate(184.476116 98.248947)scale(0.1 -0.1)">
       <use xlink:href="#DejaVuSans-2212"/>
       <use xlink:href="#DejaVuSans-31" x="83.789062"/>
       <use xlink:href="#DejaVuSans-30" x="147.412109"/>
      </g>
     </g>
    </g>
    <g id="ytick_5">
     <g id="line2d_13">
      <path d="M 251.8225 41.157188 
C 222.701244 41.157188 193.863155 46.89344 166.958622 58.037662 
C 140.054089 69.181885 115.606338 85.51735 95.0145 106.109188 
C 74.422662 126.701026 58.087197 151.148777 46.942975 178.05331 
C 35.798753 204.957842 30.0625 233.795931 30.0625 262.917188 
C 30.0625 292.038444 35.798753 320.876533 46.942975 347.781065 
C 58.087197 374.685598 74.422662 399.133349 95.0145 419.725187 
C 115.606338 440.317025 140.054089 456.65249 166.958622 467.796713 
C 193.863155 478.940935 222.701244 484.677188 251.8225 484.677188 
C 280.943756 484.677188 309.781845 478.940935 336.686378 467.796713 
C 363.590911 456.65249 388.038662 440.317025 408.6305 419.725187 
C 429.222338 399.133349 445.557803 374.685598 456.702025 347.781065 
C 467.846247 320.876533 473.5825 292.038444 473.5825 262.917188 
C 473.5825 233.795931 467.846247 204.957842 456.702025 178.05331 
C 445.557803 151.148777 429.222338 126.701026 408.6305 106.109188 
C 388.038662 85.51735 363.590911 69.181885 336.686378 58.037662 
C 309.781845 46.89344 280.943756 41.157188 251.8225 41.157188 
" clip-path="url(#pdd0bf94bbb)" style="fill: none; stroke: #b0b0b0; stroke-width: 0.8; stroke-linecap: square"/>
     </g>
     <g id="text_13">
      <!-- 0 -->
      <g transform="translate(166.958622 55.957975)scale(0.1 -0.1)">
       <use xlink:href="#DejaVuSans-30"/>
      </g>
     </g>
    </g>
   </g>
   <g id="line2d_14">
    <path d="M 251.8225 443.525086 
L 254.929006 440.888777 
L 257.938713 438.062603 
L 260.967419 437.412632 
L 264.077489 438.171697 
L 267.32813 440.147346 
L 270.582981 441.411238 
L 277.306739 444.24697 
L 280.600691 444.615532 
L 283.896152 444.815905 
L 287.09204 444.363242 
L 290.158166 443.272317 
L 292.984863 441.210971 
L 295.619602 438.577767 
L 298.261597 436.230257 
L 300.523471 432.757658 
L 302.865879 429.872557 
L 305.463508 428.007236 
L 308.075754 426.288501 
L 311.222138 426.116351 
L 314.684678 426.67876 
L 319.01642 429.227975 
L 322.833409 430.208406 
L 330.015605 430.602842 
L 332.934227 429.220874 
L 335.570738 427.282358 
L 342.231733 419.510572 
L 345.047556 418.069736 
L 348.337872 417.37407 
L 352.532133 417.996423 
L 357.173814 419.106933 
L 361.629659 419.738063 
L 367.301438 421.86031 
L 372.432456 422.972005 
L 376.810994 422.895164 
L 381.516935 423.076476 
L 385.842985 422.636582 
L 393.853234 420.658298 
L 397.134014 418.744708 
L 399.930022 416.287016 
L 402.169825 413.264513 
L 403.881791 409.759138 
L 404.757519 405.5314 
L 404.45074 400.344272 
L 404.321259 395.482336 
L 402.856045 389.649379 
L 400.519787 383.329876 
L 399.038372 377.934832 
L 395.861313 371.458218 
L 393.145277 365.594195 
L 392.583399 361.47903 
L 391.50799 357.13624 
L 392.324864 354.16049 
L 393.666844 351.551371 
L 394.772282 348.810082 
L 395.63905 345.949712 
L 396.069365 342.874531 
L 396.048447 339.603484 
L 396.316636 336.540627 
L 396.34114 333.403638 
L 395.491552 329.911166 
L 395.396884 326.840622 
L 395.171762 323.765339 
L 394.594827 320.600952 
L 394.558435 317.70838 
L 393.789547 314.588967 
L 393.323667 311.639947 
L 393.168554 308.843304 
L 391.764162 305.701647 
L 389.193779 302.307768 
L 387.897142 299.378278 
L 386.989292 296.618054 
L 387.177748 294.166409 
L 386.426416 291.528133 
L 383.683449 288.54836 
L 382.163236 285.899776 
L 381.812054 283.50551 
L 382.2241 281.243937 
L 382.505911 278.963093 
L 383.335105 276.739719 
L 385.590127 274.620338 
L 388.769554 272.493458 
L 392.760262 270.303423 
L 398.069199 268.024235 
L 401.230002 265.525105 
L 405.038388 262.917188 
L 406.822906 260.211645 
L 410.206019 257.386313 
L 413.303543 254.454325 
L 415.724961 251.456011 
L 418.760461 248.312008 
L 421.443795 245.089271 
L 425.496056 238.508961 
L 426.892787 235.188778 
L 427.581323 231.926165 
L 428.793089 228.51759 
L 430.41349 224.956501 
L 431.307163 221.479888 
L 432.706365 217.817775 
L 433.6913 214.185589 
L 434.31799 210.587448 
L 435.368689 206.801486 
L 435.837217 203.127181 
L 435.93864 199.520916 
L 436.645215 195.64722 
L 436.494325 192.028316 
L 435.942047 188.528062 
L 435.715498 184.859241 
L 435.052823 181.337792 
L 434.111445 177.914457 
L 433.530003 174.292517 
L 432.514386 170.850073 
L 431.259995 167.508579 
L 430.108043 164.091897 
L 428.506793 160.908464 
L 426.778059 157.793282 
L 423.00271 151.751459 
L 420.858166 148.901191 
L 418.613836 146.128637 
L 416.498345 143.273183 
L 414.238957 140.527609 
L 408.094906 131.789069 
L 405.900064 128.979605 
L 403.420002 126.418184 
L 400.847286 123.949326 
L 398.461829 121.309234 
L 395.961622 118.778066 
L 393.614884 116.086876 
L 391.420981 113.216145 
L 389.081121 110.476045 
L 386.931306 107.492285 
L 384.65426 104.61446 
L 382.173743 101.946808 
L 379.319206 99.728846 
L 376.336055 97.682119 
L 373.097015 95.997137 
L 365.603001 94.230657 
L 361.574636 93.913719 
L 357.216035 94.252274 
L 353.124723 94.321977 
L 348.729553 95.069247 
L 344.260828 96.154029 
L 340.547639 96.049471 
L 329.586134 96.152536 
L 322.540081 96.317007 
L 319.002702 96.640354 
L 315.35726 97.403479 
L 311.915704 97.812467 
L 308.668894 97.82327 
L 305.054707 99.085301 
L 301.484708 100.479424 
L 297.71862 102.858397 
L 294.159975 104.911579 
L 291.181112 105.058418 
L 288.302713 104.904023 
L 285.722179 103.431739 
L 283.202629 101.480419 
L 278.720251 93.091475 
L 276.16256 89.728661 
L 273.59988 85.554663 
L 270.867678 81.71442 
L 267.897843 79.175173 
L 264.840328 76.753569 
L 261.677983 74.863361 
L 258.441618 73.370448 
L 255.165318 71.407291 
L 251.8225 69.730204 
L 248.417289 67.832776 
L 244.910234 64.975776 
L 241.331916 62.744928 
L 237.685798 60.752934 
L 233.944261 58.567978 
L 230.225091 57.431568 
L 226.517201 56.822065 
L 222.935666 57.376687 
L 219.473908 58.676216 
L 216.181419 60.786572 
L 210.196722 67.0833 
L 207.877825 72.57189 
L 206.191531 79.901369 
L 204.440338 86.084551 
L 204.104426 96.504485 
L 204.590724 108.429009 
L 205.210332 119.459686 
L 210.293428 142.308005 
L 217.411588 168.373983 
L 228.429412 201.976109 
L 226.76409 200.895446 
L 207.686915 158.940266 
L 196.862031 139.473953 
L 187.670379 125.34252 
L 173.7705 109.731513 
L 166.18981 101.86552 
L 153.974762 93.439933 
L 147.860895 89.896022 
L 142.59389 88.114871 
L 136.939548 86.012955 
L 131.867933 85.077228 
L 123.016963 85.631575 
L 119.143618 86.846365 
L 115.504777 88.438459 
L 112.26441 90.577299 
L 109.351479 93.126837 
L 106.626154 95.887898 
L 102.287088 102.560091 
L 100.312562 106.024054 
L 97.148719 113.550454 
L 96.266151 117.858546 
L 95.734653 122.375059 
L 94.798065 126.417928 
L 94.859294 131.209419 
L 95.83962 136.604742 
L 96.259678 141.378191 
L 98.618628 147.469789 
L 101.319219 153.570154 
L 103.220973 158.865278 
L 106.789919 165.091477 
L 108.317999 169.724275 
L 107.796486 172.919746 
L 104.670415 174.499295 
L 100.315271 175.444448 
L 96.089282 176.592855 
L 89.699774 176.715005 
L 84.296399 177.558375 
L 79.228099 178.737273 
L 73.574352 179.798711 
L 69.875987 181.909381 
L 66.214547 184.131286 
L 63.072506 186.65724 
L 60.979736 189.659514 
L 59.115167 192.777455 
L 57.444314 195.987411 
L 56.392903 199.418262 
L 55.612131 202.929658 
L 54.617089 206.369446 
L 53.496632 209.775931 
L 52.594954 213.244181 
L 52.320371 216.858492 
L 51.824527 220.406306 
L 51.760126 224.029001 
L 52.013503 227.68547 
L 52.758285 231.388513 
L 54.699768 235.213394 
L 56.309006 238.911149 
L 58.073137 242.553309 
L 60.551723 246.183163 
L 62.32085 249.665941 
L 64.76521 253.11393 
L 67.614498 256.484502 
L 69.71802 259.738542 
L 72.761811 262.917188 
L 76.349868 265.980074 
L 79.559179 268.932755 
L 85.404487 271.638786 
L 96.713498 276.487467 
L 105.914998 278.252684 
L 115.119055 279.70226 
L 125.369137 280.689049 
L 145.049229 279.828412 
L 161.90048 278.772866 
L 189.933372 276.072128 
L 178.223455 279.908866 
L 166.570064 284.173007 
L 154.622266 288.961912 
L 145.996367 293.262343 
L 138.596873 297.533736 
L 132.574817 301.663108 
L 128.845819 305.261455 
L 123.159938 309.74653 
L 116.048102 315.036096 
L 112.330957 319.275429 
L 108.056087 323.942409 
L 104.685229 328.426921 
L 102.921986 332.350638 
L 99.968121 336.981517 
L 97.613092 341.490805 
L 95.841059 349.379112 
L 96.382717 352.660388 
L 97.466466 355.663649 
L 98.84465 358.508357 
L 100.793462 360.996592 
L 103.632518 362.872593 
L 107.964347 363.647751 
L 112.281014 364.300011 
L 118.08204 363.697852 
L 128.251511 359.461425 
L 138.528638 354.660748 
L 155.709333 343.565711 
L 212.037263 297.501967 
L 174.679682 332.376893 
L 148.106868 359.633579 
L 136.899498 373.89704 
L 132.600348 382.139339 
L 128.377722 390.747997 
L 126.675184 397.121254 
L 127.036307 401.506296 
L 127.044487 406.457871 
L 128.697675 409.65164 
L 131.187994 411.888396 
L 134.271279 413.375889 
L 137.89577 414.103065 
L 142.327482 413.62415 
L 154.27068 407.543708 
L 161.561482 401.906966 
L 171.375148 391.659863 
L 176.536486 388.214157 
L 175.372481 395.332504 
L 171.376925 408.044847 
L 170.150464 416.519947 
L 169.04892 425.369486 
L 168.876683 432.981314 
L 170.261339 437.825663 
L 171.872227 442.488442 
L 174.147311 445.908464 
L 176.910367 448.331222 
L 179.750868 450.670209 
L 182.89455 452.295173 
L 186.168422 453.590476 
L 189.541492 454.59842 
L 192.876201 455.721842 
L 196.149145 457.073249 
L 199.300871 458.930577 
L 202.594672 460.359223 
L 205.999611 461.397926 
L 209.384901 462.570392 
L 212.832995 463.500801 
L 216.354703 464.06506 
L 219.937215 464.232952 
L 223.527505 464.246537 
L 227.189425 463.537487 
L 230.909322 461.892781 
L 234.572222 460.088764 
L 241.829024 453.604065 
L 245.262491 450.771268 
L 248.617891 446.509142 
L 248.617891 446.509142 
" clip-path="url(#pdd0bf94bbb)" style="fill: none; stroke: #ff0000; stroke-width: 1.5; stroke-linecap: square"/>
   </g>
   <g id="line2d_15">
    <path d="M 251.8225 62.645542 
L 248.283978 60.195395 
L 244.672727 58.17449 
L 241.00761 56.556802 
L 237.306869 55.333998 
L 233.586913 54.483476 
L 229.864937 54.004927 
L 226.157547 53.892921 
L 222.481626 54.146022 
L 218.854709 54.766748 
L 215.296954 55.770521 
L 211.827932 57.162973 
L 208.472483 58.971392 
L 205.258519 61.226429 
L 202.2207 63.975234 
L 199.398376 67.267693 
L 196.847267 71.195765 
L 194.635187 75.865914 
L 192.861838 81.454928 
L 191.672553 88.229058 
L 191.300788 96.635151 
L 192.164602 107.503049 
L 195.205841 122.78604 
L 203.285737 148.571739 
L 247.527361 253.270147 
L 198.841067 149.298138 
L 184.725904 125.348779 
L 174.999317 112.143201 
L 167.039319 103.463216 
L 160.081678 97.412363 
L 153.776325 93.096231 
L 147.955907 90.054148 
L 142.521845 87.999576 
L 137.418973 86.751204 
L 132.611022 86.178903 
L 128.076976 86.190265 
L 123.808003 86.720348 
L 119.796514 87.712786 
L 116.041084 89.1249 
L 112.543006 90.921337 
L 109.305902 93.07252 
L 106.33485 95.552791 
L 103.636599 98.340071 
L 101.218126 101.41377 
L 99.087057 104.755006 
L 97.251137 108.345824 
L 95.716348 112.167229 
L 94.486125 116.198644 
L 93.561939 120.418738 
L 92.933555 124.797135 
L 92.584562 129.300693 
L 92.47537 133.880426 
L 92.765686 147.355648 
L 92.610439 151.435702 
L 92.036276 155.140019 
L 90.905222 158.416285 
L 89.160286 161.274555 
L 86.850059 163.791745 
L 84.10657 166.08635 
L 71.807195 175.117857 
L 68.941541 177.638396 
L 66.276719 180.306883 
L 63.843526 183.124847 
L 61.64772 186.081589 
L 59.698967 189.167873 
L 58.006675 192.373996 
L 56.56267 195.683836 
L 55.371136 199.08627 
L 54.43589 202.570045 
L 53.742766 206.118738 
L 53.30341 209.724158 
L 53.107067 213.371865 
L 53.15577 217.051359 
L 53.451207 220.752067 
L 53.99022 224.462488 
L 54.773751 228.172177 
L 55.80692 231.87137 
L 57.08095 235.548047 
L 58.609341 239.193595 
L 60.382603 242.796044 
L 62.404501 246.34526 
L 64.678477 249.830803 
L 67.189354 253.240974 
L 69.926121 256.565226 
L 72.877415 259.793689 
L 75.994928 262.917188 
L 82.479244 268.830784 
L 88.45111 274.341228 
L 90.773026 277.007191 
L 92.409199 279.672201 
L 93.271104 282.384851 
L 93.3177 285.193584 
L 92.645533 288.128342 
L 91.486893 291.188681 
L 85.543847 304.375112 
L 84.303008 307.8039 
L 83.351817 311.225378 
L 82.635906 314.64272 
L 82.193056 318.033135 
L 82.029509 321.381603 
L 82.150896 324.672601 
L 82.557937 327.891766 
L 83.255059 331.022854 
L 84.241804 334.050973 
L 85.529692 336.955516 
L 87.116829 339.720703 
L 89.008947 342.326663 
L 91.227197 344.744581 
L 93.771009 346.954656 
L 96.667003 348.921284 
L 99.923997 350.615829 
L 103.596493 351.980358 
L 107.6579 353.001228 
L 112.169718 353.608765 
L 117.113333 353.779668 
L 122.544316 353.438746 
L 128.365597 352.613878 
L 139.831552 350.414106 
L 143.865833 350.338773 
L 145.407992 352.209562 
L 144.495172 356.21541 
L 139.815367 367.365529 
L 137.703931 373.120208 
L 136.181232 378.558455 
L 135.291622 383.588444 
L 134.980311 388.215096 
L 135.193923 392.446344 
L 135.874613 396.299974 
L 136.98432 399.776001 
L 138.459847 402.908405 
L 140.241106 405.734859 
L 142.265762 408.303889 
L 144.470016 410.675205 
L 151.38287 417.580654 
L 153.541926 420.198984 
L 155.542691 423.153699 
L 157.385717 426.486494 
L 159.109652 430.175592 
L 166.110369 446.727446 
L 168.169557 450.804773 
L 170.416853 454.696873 
L 172.857148 458.363292 
L 175.492766 461.762942 
L 178.314041 464.88002 
L 181.310485 467.69895 
L 184.468817 470.21051 
L 187.7739 472.410719 
L 191.209806 474.298774 
L 194.760179 475.87667 
L 198.40856 477.148799 
L 202.139036 478.119914 
L 205.935566 478.798238 
L 209.782869 479.192341 
L 213.666095 479.312915 
L 217.570768 479.174111 
L 221.483846 478.787927 
L 225.392774 478.17003 
L 229.285972 477.337931 
L 233.153644 476.303193 
L 236.98596 475.0896 
L 240.774988 473.716275 
L 244.514411 472.193466 
L 248.198497 470.536204 
L 251.8225 468.768856 
L 258.876899 464.928757 
L 265.656716 460.755698 
L 272.151784 456.337407 
L 278.366633 451.788511 
L 287.246376 445.157233 
L 290.130281 443.141126 
L 293.00206 441.285457 
L 295.881725 439.629087 
L 298.790827 438.205371 
L 301.749505 437.033347 
L 304.776632 436.122349 
L 307.890432 435.476537 
L 311.105091 435.086333 
L 314.434303 434.941703 
L 317.889614 435.027904 
L 321.473181 435.308673 
L 329.037151 436.344134 
L 345.451071 439.006918 
L 349.712826 439.516011 
L 353.99304 439.881754 
L 358.265959 440.068852 
L 362.510671 440.055289 
L 366.707197 439.824108 
L 370.839439 439.367055 
L 374.888001 438.672937 
L 378.837973 437.738988 
L 382.67961 436.570438 
L 386.398001 435.165974 
L 389.983719 433.532084 
L 393.42787 431.675896 
L 396.722196 429.60522 
L 399.859807 427.329273 
L 402.834528 424.857761 
L 405.641152 422.201064 
L 408.275221 419.369908 
L 410.733137 416.375406 
L 413.012195 413.22901 
L 415.109867 409.941793 
L 417.024936 406.525474 
L 418.756374 402.99134 
L 420.304368 399.351114 
L 421.668563 395.615475 
L 422.850895 391.796327 
L 423.855709 387.90663 
L 424.67973 383.953123 
L 425.331278 379.950336 
L 425.807903 375.90463 
L 426.118995 371.829726 
L 426.262875 367.731539 
L 426.242006 363.618337 
L 426.067201 359.502603 
L 425.733738 355.387433 
L 425.253219 351.284553 
L 424.617266 347.194826 
L 423.833965 343.127451 
L 422.907643 339.089201 
L 421.830258 335.0812 
L 420.61064 331.112023 
L 419.245183 327.184734 
L 417.73891 323.305822 
L 416.105755 319.484448 
L 414.325263 315.717536 
L 410.4367 308.399077 
L 406.37541 301.451556 
L 402.611277 294.968332 
L 401.125633 291.938777 
L 400.076671 289.058398 
L 399.606081 286.323807 
L 399.765425 283.70921 
L 400.60554 281.185448 
L 402.039821 278.705664 
L 403.934133 276.225231 
L 408.64862 271.136096 
L 413.874451 265.745815 
L 419.000517 259.999084 
L 421.394494 256.995603 
L 423.688093 253.910093 
L 425.833582 250.749147 
L 427.833738 247.5182 
L 429.700602 244.221446 
L 431.428112 240.864391 
L 433.014933 237.452252 
L 434.464415 233.98955 
L 435.775513 230.481308 
L 436.95632 226.930818 
L 438.006007 223.342661 
L 438.92834 219.720401 
L 439.722712 216.068403 
L 440.397489 212.388672 
L 440.956596 208.683858 
L 441.390851 204.960326 
L 441.713138 201.217979 
L 441.918846 197.461766 
L 441.997316 189.915915 
L 441.630198 182.3486 
L 440.822735 174.784931 
L 440.255596 171.012226 
L 438.792567 163.50344 
L 437.897864 159.773929 
L 436.890029 156.0684 
L 435.766123 152.392708 
L 434.531237 148.748098 
L 433.182718 145.140485 
L 431.714391 141.578575 
L 430.126548 138.067349 
L 428.417445 134.613449 
L 426.58382 131.225087 
L 424.623903 127.909935 
L 422.535581 124.67646 
L 420.31611 121.534262 
L 417.963582 118.492948 
L 415.476238 115.5627 
L 412.852505 112.754278 
L 410.091039 110.079036 
L 407.190119 107.549569 
L 404.149653 105.177803 
L 400.969551 102.976557 
L 397.650095 100.959235 
L 394.191992 99.139821 
L 390.597 97.532179 
L 386.868486 96.149283 
L 383.010224 95.004558 
L 379.026701 94.111511 
L 374.923133 93.483701 
L 370.708093 93.130964 
L 366.39319 93.059155 
L 361.99273 93.26991 
L 357.523375 93.760428 
L 353.006135 94.51934 
L 348.472524 95.514435 
L 343.958346 96.699721 
L 326.973908 101.754474 
L 323.181621 102.641979 
L 319.604471 103.23287 
L 316.189952 103.602153 
L 309.635704 104.076716 
L 306.407659 104.390374 
L 303.123438 105.029136 
L 299.811377 105.952644 
L 296.446406 107.295134 
L 293.060167 109.016119 
L 289.714572 110.940388 
L 286.520984 112.621541 
L 283.597644 113.426888 
L 281.053714 112.535629 
L 278.861927 109.568978 
L 276.854633 104.870517 
L 272.662504 93.188974 
L 270.268474 87.415473 
L 267.647975 82.031178 
L 264.81373 77.133949 
L 261.788114 72.761949 
L 258.59765 68.902287 
L 255.267791 65.536573 
L 255.267791 65.536573 
" clip-path="url(#pdd0bf94bbb)" style="fill: none; stroke-dasharray: 5.55,2.4; stroke-dashoffset: 0; stroke: #0000ff; stroke-width: 1.5"/>
   </g>
   <g id="patch_3">
    <path d="M 251.8225 41.157188 
C 222.701244 41.157188 193.863155 46.89344 166.958622 58.037662 
C 140.054089 69.181885 115.606338 85.51735 95.0145 106.109188 
C 74.422662 126.701026 58.087197 151.148777 46.942975 178.05331 
C 35.798753 204.957842 30.0625 233.795931 30.0625 262.917188 
C 30.0625 292.038444 35.798753 320.876533 46.942975 347.781065 
C 58.087197 374.685598 74.422662 399.133349 95.0145 419.725187 
C 115.606338 440.317025 140.054089 456.65249 166.958622 467.796713 
C 193.863155 478.940935 222.701244 484.677188 251.8225 484.677188 
C 280.943756 484.677188 309.781845 478.940935 336.686378 467.796713 
C 363.590911 456.65249 388.038662 440.317025 408.6305 419.725187 
C 429.222338 399.133349 445.557803 374.685598 456.702025 347.781065 
C 467.846247 320.876533 473.5825 292.038444 473.5825 262.917188 
C 473.5825 233.795931 467.846247 204.957842 456.702025 178.05331 
C 445.557803 151.148777 429.222338 126.701026 408.6305 106.109188 
C 388.038662 85.51735 363.590911 69.181885 336.686378 58.037662 
C 309.781845 46.89344 280.943756 41.157188 251.8225 41.157188 
" style="fill: none; stroke: #000000; stroke-width: 0.8; stroke-linejoin: miter; stroke-linecap: square"/>
   </g>
   <g id="text_14">
    <g id="patch_4">
     <path d="M 384.8785 509.853188 
L 488.976938 509.853188 
Q 491.976938 509.853188 491.976938 506.853188 
L 491.976938 473.945063 
Q 491.976938 470.945063 488.976938 470.945063 
L 384.8785 470.945063 
Q 381.8785 470.945063 381.8785 473.945063 
L 381.8785 506.853188 
Q 381.8785 509.853188 384.8785 509.853188 
z
" style="fill: #ffffff; stroke: #808080; stroke-linejoin: miter"/>
    </g>
    <!-- G_cst: 0.1 dBi -->
    <g transform="translate(384.8785 481.821625)scale(0.1 -0.1)">
     <defs>
      <path id="DejaVuSans-47" d="M 3809 666 
L 3809 1919 
L 2778 1919 
L 2778 2438 
L 4434 2438 
L 4434 434 
Q 4069 175 3628 42 
Q 3188 -91 2688 -91 
Q 1594 -91 976 548 
Q 359 1188 359 2328 
Q 359 3472 976 4111 
Q 1594 4750 2688 4750 
Q 3144 4750 3555 4637 
Q 3966 4525 4313 4306 
L 4313 3634 
Q 3963 3931 3569 4081 
Q 3175 4231 2741 4231 
Q 1884 4231 1454 3753 
Q 1025 3275 1025 2328 
Q 1025 1384 1454 906 
Q 1884 428 2741 428 
Q 3075 428 3337 486 
Q 3600 544 3809 666 
z
" transform="scale(0.015625)"/>
      <path id="DejaVuSans-5f" d="M 3263 -1063 
L 3263 -1509 
L -63 -1509 
L -63 -1063 
L 3263 -1063 
z
" transform="scale(0.015625)"/>
      <path id="DejaVuSans-63" d="M 3122 3366 
L 3122 2828 
Q 2878 2963 2633 3030 
Q 2388 3097 2138 3097 
Q 1578 3097 1268 2742 
Q 959 2388 959 1747 
Q 959 1106 1268 751 
Q 1578 397 2138 397 
Q 2388 397 2633 464 
Q 2878 531 3122 666 
L 3122 134 
Q 2881 22 2623 -34 
Q 2366 -91 2075 -91 
Q 1284 -91 818 406 
Q 353 903 353 1747 
Q 353 2603 823 3093 
Q 1294 3584 2113 3584 
Q 2378 3584 2631 3529 
Q 2884 3475 3122 3366 
z
" transform="scale(0.015625)"/>
      <path id="DejaVuSans-73" d="M 2834 3397 
L 2834 2853 
Q 2591 2978 2328 3040 
Q 2066 3103 1784 3103 
Q 1356 3103 1142 2972 
Q 928 2841 928 2578 
Q 928 2378 1081 2264 
Q 1234 2150 1697 2047 
L 1894 2003 
Q 2506 1872 2764 1633 
Q 3022 1394 3022 966 
Q 3022 478 2636 193 
Q 2250 -91 1575 -91 
Q 1294 -91 989 -36 
Q 684 19 347 128 
L 347 722 
Q 666 556 975 473 
Q 1284 391 1588 391 
Q 1994 391 2212 530 
Q 2431 669 2431 922 
Q 2431 1156 2273 1281 
Q 2116 1406 1581 1522 
L 1381 1569 
Q 847 1681 609 1914 
Q 372 2147 372 2553 
Q 372 3047 722 3315 
Q 1072 3584 1716 3584 
Q 2034 3584 2315 3537 
Q 2597 3491 2834 3397 
z
" transform="scale(0.015625)"/>
      <path id="DejaVuSans-74" d="M 1172 4494 
L 1172 3500 
L 2356 3500 
L 2356 3053 
L 1172 3053 
L 1172 1153 
Q 1172 725 1289 603 
Q 1406 481 1766 481 
L 2356 481 
L 2356 0 
L 1766 0 
Q 1100 0 847 248 
Q 594 497 594 1153 
L 594 3053 
L 172 3053 
L 172 3500 
L 594 3500 
L 594 4494 
L 1172 4494 
z
" transform="scale(0.015625)"/>
      <path id="DejaVuSans-3a" d="M 750 794 
L 1409 794 
L 1409 0 
L 750 0 
L 750 794 
z
M 750 3309 
L 1409 3309 
L 1409 2516 
L 750 2516 
L 750 3309 
z
" transform="scale(0.015625)"/>
      <path id="DejaVuSans-20" transform="scale(0.015625)"/>
      <path id="DejaVuSans-2e" d="M 684 794 
L 1344 794 
L 1344 0 
L 684 0 
L 684 794 
z
" transform="scale(0.015625)"/>
      <path id="DejaVuSans-64" d="M 2906 2969 
L 2906 4863 
L 3481 4863 
L 3481 0 
L 2906 0 
L 2906 525 
Q 2725 213 2448 61 
Q 2172 -91 1784 -91 
Q 1150 -91 751 415 
Q 353 922 353 1747 
Q 353 2572 751 3078 
Q 1150 3584 1784 3584 
Q 2172 3584 2448 3432 
Q 2725 3281 2906 2969 
z
M 947 1747 
Q 947 1113 1208 752 
Q 1469 391 1925 391 
Q 2381 391 2643 752 
Q 2906 1113 2906 1747 
Q 2906 2381 2643 2742 
Q 2381 3103 1925 3103 
Q 1469 3103 1208 2742 
Q 947 2381 947 1747 
z
" transform="scale(0.015625)"/>
      <path id="DejaVuSans-42" d="M 1259 2228 
L 1259 519 
L 2272 519 
Q 2781 519 3026 730 
Q 3272 941 3272 1375 
Q 3272 1813 3026 2020 
Q 2781 2228 2272 2228 
L 1259 2228 
z
M 1259 4147 
L 1259 2741 
L 2194 2741 
Q 2656 2741 2882 2914 
Q 3109 3088 3109 3444 
Q 3109 3797 2882 3972 
Q 2656 4147 2194 4147 
L 1259 4147 
z
M 628 4666 
L 2241 4666 
Q 2963 4666 3353 4366 
Q 3744 4066 3744 3513 
Q 3744 3084 3544 2831 
Q 3344 2578 2956 2516 
Q 3422 2416 3680 2098 
Q 3938 1781 3938 1306 
Q 3938 681 3513 340 
Q 3088 0 2303 0 
L 628 0 
L 628 4666 
z
" transform="scale(0.015625)"/>
      <path id="DejaVuSans-69" d="M 603 3500 
L 1178 3500 
L 1178 0 
L 603 0 
L 603 3500 
z
M 603 4863 
L 1178 4863 
L 1178 4134 
L 603 4134 
L 603 4863 
z
" transform="scale(0.015625)"/>
     </defs>
     <use xlink:href="#DejaVuSans-47"/>
     <use xlink:href="#DejaVuSans-5f" x="77.490234"/>
     <use xlink:href="#DejaVuSans-63" x="127.490234"/>
     <use xlink:href="#DejaVuSans-73" x="182.470703"/>
     <use xlink:href="#DejaVuSans-74" x="234.570312"/>
     <use xlink:href="#DejaVuSans-3a" x="273.779297"/>
     <use xlink:href="#DejaVuSans-20" x="307.470703"/>
     <use xlink:href="#DejaVuSans-30" x="339.257812"/>
     <use xlink:href="#DejaVuSans-2e" x="402.880859"/>
     <use xlink:href="#DejaVuSans-31" x="434.667969"/>
     <use xlink:href="#DejaVuSans-20" x="498.291016"/>
     <use xlink:href="#DejaVuSans-64" x="530.078125"/>
     <use xlink:href="#DejaVuSans-42" x="593.554688"/>
     <use xlink:href="#DejaVuSans-69" x="662.158203"/>
    </g>
    <!-- G_inpe: -0.7 dBi -->
    <g transform="translate(384.8785 493.297563)scale(0.1 -0.1)">
     <defs>
      <path id="DejaVuSans-6e" d="M 3513 2113 
L 3513 0 
L 2938 0 
L 2938 2094 
Q 2938 2591 2744 2837 
Q 2550 3084 2163 3084 
Q 1697 3084 1428 2787 
Q 1159 2491 1159 1978 
L 1159 0 
L 581 0 
L 581 3500 
L 1159 3500 
L 1159 2956 
Q 1366 3272 1645 3428 
Q 1925 3584 2291 3584 
Q 2894 3584 3203 3211 
Q 3513 2838 3513 2113 
z
" transform="scale(0.015625)"/>
      <path id="DejaVuSans-70" d="M 1159 525 
L 1159 -1331 
L 581 -1331 
L 581 3500 
L 1159 3500 
L 1159 2969 
Q 1341 3281 1617 3432 
Q 1894 3584 2278 3584 
Q 2916 3584 3314 3078 
Q 3713 2572 3713 1747 
Q 3713 922 3314 415 
Q 2916 -91 2278 -91 
Q 1894 -91 1617 61 
Q 1341 213 1159 525 
z
M 3116 1747 
Q 3116 2381 2855 2742 
Q 2594 3103 2138 3103 
Q 1681 3103 1420 2742 
Q 1159 2381 1159 1747 
Q 1159 1113 1420 752 
Q 1681 391 2138 391 
Q 2594 391 2855 752 
Q 3116 1113 3116 1747 
z
" transform="scale(0.015625)"/>
      <path id="DejaVuSans-65" d="M 3597 1894 
L 3597 1613 
L 953 1613 
Q 991 1019 1311 708 
Q 1631 397 2203 397 
Q 2534 397 2845 478 
Q 3156 559 3463 722 
L 3463 178 
Q 3153 47 2828 -22 
Q 2503 -91 2169 -91 
Q 1331 -91 842 396 
Q 353 884 353 1716 
Q 353 2575 817 3079 
Q 1281 3584 2069 3584 
Q 2775 3584 3186 3129 
Q 3597 2675 3597 1894 
z
M 3022 2063 
Q 3016 2534 2758 2815 
Q 2500 3097 2075 3097 
Q 1594 3097 1305 2825 
Q 1016 2553 972 2059 
L 3022 2063 
z
" transform="scale(0.015625)"/>
      <path id="DejaVuSans-2d" d="M 313 2009 
L 1997 2009 
L 1997 1497 
L 313 1497 
L 313 2009 
z
" transform="scale(0.015625)"/>
     </defs>
     <use xlink:href="#DejaVuSans-47"/>
     <use xlink:href="#DejaVuSans-5f" x="77.490234"/>
     <use xlink:href="#DejaVuSans-69" x="127.490234"/>
     <use xlink:href="#DejaVuSans-6e" x="155.273438"/>
     <use xlink:href="#DejaVuSans-70" x="218.652344"/>
     <use xlink:href="#DejaVuSans-65" x="282.128906"/>
     <use xlink:href="#DejaVuSans-3a" x="343.652344"/>
     <use xlink:href="#DejaVuSans-20" x="377.34375"/>
     <use xlink:href="#DejaVuSans-2d" x="409.130859"/>
     <use xlink:href="#DejaVuSans-30" x="445.214844"/>
     <use xlink:href="#DejaVuSans-2e" x="508.837891"/>
     <use xlink:href="#DejaVuSans-37" x="540.625"/>
     <use xlink:href="#DejaVuSans-20" x="604.248047"/>
     <use xlink:href="#DejaVuSans-64" x="636.035156"/>
     <use xlink:href="#DejaVuSans-42" x="699.511719"/>
     <use xlink:href="#DejaVuSans-69" x="768.115234"/>
    </g>
    <!-- Pearson Coef: -0.125 -->
    <g transform="translate(384.8785 504.7735)scale(0.1 -0.1)">
     <defs>
      <path id="DejaVuSans-50" d="M 1259 4147 
L 1259 2394 
L 2053 2394 
Q 2494 2394 2734 2622 
Q 2975 2850 2975 3272 
Q 2975 3691 2734 3919 
Q 2494 4147 2053 4147 
L 1259 4147 
z
M 628 4666 
L 2053 4666 
Q 2838 4666 3239 4311 
Q 3641 3956 3641 3272 
Q 3641 2581 3239 2228 
Q 2838 1875 2053 1875 
L 1259 1875 
L 1259 0 
L 628 0 
L 628 4666 
z
" transform="scale(0.015625)"/>
      <path id="DejaVuSans-61" d="M 2194 1759 
Q 1497 1759 1228 1600 
Q 959 1441 959 1056 
Q 959 750 1161 570 
Q 1363 391 1709 391 
Q 2188 391 2477 730 
Q 2766 1069 2766 1631 
L 2766 1759 
L 2194 1759 
z
M 3341 1997 
L 3341 0 
L 2766 0 
L 2766 531 
Q 2569 213 2275 61 
Q 1981 -91 1556 -91 
Q 1019 -91 701 211 
Q 384 513 384 1019 
Q 384 1609 779 1909 
Q 1175 2209 1959 2209 
L 2766 2209 
L 2766 2266 
Q 2766 2663 2505 2880 
Q 2244 3097 1772 3097 
Q 1472 3097 1187 3025 
Q 903 2953 641 2809 
L 641 3341 
Q 956 3463 1253 3523 
Q 1550 3584 1831 3584 
Q 2591 3584 2966 3190 
Q 3341 2797 3341 1997 
z
" transform="scale(0.015625)"/>
      <path id="DejaVuSans-72" d="M 2631 2963 
Q 2534 3019 2420 3045 
Q 2306 3072 2169 3072 
Q 1681 3072 1420 2755 
Q 1159 2438 1159 1844 
L 1159 0 
L 581 0 
L 581 3500 
L 1159 3500 
L 1159 2956 
Q 1341 3275 1631 3429 
Q 1922 3584 2338 3584 
Q 2397 3584 2469 3576 
Q 2541 3569 2628 3553 
L 2631 2963 
z
" transform="scale(0.015625)"/>
      <path id="DejaVuSans-6f" d="M 1959 3097 
Q 1497 3097 1228 2736 
Q 959 2375 959 1747 
Q 959 1119 1226 758 
Q 1494 397 1959 397 
Q 2419 397 2687 759 
Q 2956 1122 2956 1747 
Q 2956 2369 2687 2733 
Q 2419 3097 1959 3097 
z
M 1959 3584 
Q 2709 3584 3137 3096 
Q 3566 2609 3566 1747 
Q 3566 888 3137 398 
Q 2709 -91 1959 -91 
Q 1206 -91 779 398 
Q 353 888 353 1747 
Q 353 2609 779 3096 
Q 1206 3584 1959 3584 
z
" transform="scale(0.015625)"/>
      <path id="DejaVuSans-43" d="M 4122 4306 
L 4122 3641 
Q 3803 3938 3442 4084 
Q 3081 4231 2675 4231 
Q 1875 4231 1450 3742 
Q 1025 3253 1025 2328 
Q 1025 1406 1450 917 
Q 1875 428 2675 428 
Q 3081 428 3442 575 
Q 3803 722 4122 1019 
L 4122 359 
Q 3791 134 3420 21 
Q 3050 -91 2638 -91 
Q 1578 -91 968 557 
Q 359 1206 359 2328 
Q 359 3453 968 4101 
Q 1578 4750 2638 4750 
Q 3056 4750 3426 4639 
Q 3797 4528 4122 4306 
z
" transform="scale(0.015625)"/>
      <path id="DejaVuSans-66" d="M 2375 4863 
L 2375 4384 
L 1825 4384 
Q 1516 4384 1395 4259 
Q 1275 4134 1275 3809 
L 1275 3500 
L 2222 3500 
L 2222 3053 
L 1275 3053 
L 1275 0 
L 697 0 
L 697 3053 
L 147 3053 
L 147 3500 
L 697 3500 
L 697 3744 
Q 697 4328 969 4595 
Q 1241 4863 1831 4863 
L 2375 4863 
z
" transform="scale(0.015625)"/>
     </defs>
     <use xlink:href="#DejaVuSans-50"/>
     <use xlink:href="#DejaVuSans-65" x="56.677734"/>
     <use xlink:href="#DejaVuSans-61" x="118.201172"/>
     <use xlink:href="#DejaVuSans-72" x="179.480469"/>
     <use xlink:href="#DejaVuSans-73" x="220.59375"/>
     <use xlink:href="#DejaVuSans-6f" x="272.693359"/>
     <use xlink:href="#DejaVuSans-6e" x="333.875"/>
     <use xlink:href="#DejaVuSans-20" x="397.253906"/>
     <use xlink:href="#DejaVuSans-43" x="429.041016"/>
     <use xlink:href="#DejaVuSans-6f" x="498.865234"/>
     <use xlink:href="#DejaVuSans-65" x="560.046875"/>
     <use xlink:href="#DejaVuSans-66" x="621.570312"/>
     <use xlink:href="#DejaVuSans-3a" x="653.150391"/>
     <use xlink:href="#DejaVuSans-20" x="686.841797"/>
     <use xlink:href="#DejaVuSans-2d" x="718.628906"/>
     <use xlink:href="#DejaVuSans-30" x="754.712891"/>
     <use xlink:href="#DejaVuSans-2e" x="818.335938"/>
     <use xlink:href="#DejaVuSans-31" x="850.123047"/>
     <use xlink:href="#DejaVuSans-32" x="913.746094"/>
     <use xlink:href="#DejaVuSans-35" x="977.369141"/>
    </g>
   </g>
   <g id="text_15">
    <g id="patch_5">
     <path d="M 52.2385 56.370938 
L 129.496 56.370938 
Q 133.096 56.370938 133.096 52.770938 
L 133.096 41.157188 
Q 133.096 37.557188 129.496 37.557188 
L 52.2385 37.557188 
Q 48.6385 37.557188 48.6385 41.157188 
L 48.6385 52.770938 
Q 48.6385 56.370938 52.2385 56.370938 
z
" style="fill: #ffffff; stroke: #808080; stroke-linejoin: miter"/>
    </g>
    <!-- Freq: 18 GHz -->
    <g transform="translate(52.2385 50.275313)scale(0.12 -0.12)">
     <defs>
      <path id="DejaVuSans-46" d="M 628 4666 
L 3309 4666 
L 3309 4134 
L 1259 4134 
L 1259 2759 
L 3109 2759 
L 3109 2228 
L 1259 2228 
L 1259 0 
L 628 0 
L 628 4666 
z
" transform="scale(0.015625)"/>
      <path id="DejaVuSans-71" d="M 947 1747 
Q 947 1113 1208 752 
Q 1469 391 1925 391 
Q 2381 391 2643 752 
Q 2906 1113 2906 1747 
Q 2906 2381 2643 2742 
Q 2381 3103 1925 3103 
Q 1469 3103 1208 2742 
Q 947 2381 947 1747 
z
M 2906 525 
Q 2725 213 2448 61 
Q 2172 -91 1784 -91 
Q 1150 -91 751 415 
Q 353 922 353 1747 
Q 353 2572 751 3078 
Q 1150 3584 1784 3584 
Q 2172 3584 2448 3432 
Q 2725 3281 2906 2969 
L 2906 3500 
L 3481 3500 
L 3481 -1331 
L 2906 -1331 
L 2906 525 
z
" transform="scale(0.015625)"/>
      <path id="DejaVuSans-48" d="M 628 4666 
L 1259 4666 
L 1259 2753 
L 3553 2753 
L 3553 4666 
L 4184 4666 
L 4184 0 
L 3553 0 
L 3553 2222 
L 1259 2222 
L 1259 0 
L 628 0 
L 628 4666 
z
" transform="scale(0.015625)"/>
      <path id="DejaVuSans-7a" d="M 353 3500 
L 3084 3500 
L 3084 2975 
L 922 459 
L 3084 459 
L 3084 0 
L 275 0 
L 275 525 
L 2438 3041 
L 353 3041 
L 353 3500 
z
" transform="scale(0.015625)"/>
     </defs>
     <use xlink:href="#DejaVuSans-46"/>
     <use xlink:href="#DejaVuSans-72" x="50.269531"/>
     <use xlink:href="#DejaVuSans-65" x="89.132812"/>
     <use xlink:href="#DejaVuSans-71" x="150.65625"/>
     <use xlink:href="#DejaVuSans-3a" x="214.132812"/>
     <use xlink:href="#DejaVuSans-20" x="247.824219"/>
     <use xlink:href="#DejaVuSans-31" x="279.611328"/>
     <use xlink:href="#DejaVuSans-38" x="343.234375"/>
     <use xlink:href="#DejaVuSans-20" x="406.857422"/>
     <use xlink:href="#DejaVuSans-47" x="438.644531"/>
     <use xlink:href="#DejaVuSans-48" x="516.134766"/>
     <use xlink:href="#DejaVuSans-7a" x="591.330078"/>
    </g>
   </g>
   <g id="text_16">
    <!-- Radiation Diagram - 4AVVF18 -->
    <g transform="translate(162.985937 16.318125)scale(0.12 -0.12)">
     <defs>
      <path id="DejaVuSans-52" d="M 2841 2188 
Q 3044 2119 3236 1894 
Q 3428 1669 3622 1275 
L 4263 0 
L 3584 0 
L 2988 1197 
Q 2756 1666 2539 1819 
Q 2322 1972 1947 1972 
L 1259 1972 
L 1259 0 
L 628 0 
L 628 4666 
L 2053 4666 
Q 2853 4666 3247 4331 
Q 3641 3997 3641 3322 
Q 3641 2881 3436 2590 
Q 3231 2300 2841 2188 
z
M 1259 4147 
L 1259 2491 
L 2053 2491 
Q 2509 2491 2742 2702 
Q 2975 2913 2975 3322 
Q 2975 3731 2742 3939 
Q 2509 4147 2053 4147 
L 1259 4147 
z
" transform="scale(0.015625)"/>
      <path id="DejaVuSans-44" d="M 1259 4147 
L 1259 519 
L 2022 519 
Q 2988 519 3436 956 
Q 3884 1394 3884 2338 
Q 3884 3275 3436 3711 
Q 2988 4147 2022 4147 
L 1259 4147 
z
M 628 4666 
L 1925 4666 
Q 3281 4666 3915 4102 
Q 4550 3538 4550 2338 
Q 4550 1131 3912 565 
Q 3275 0 1925 0 
L 628 0 
L 628 4666 
z
" transform="scale(0.015625)"/>
      <path id="DejaVuSans-67" d="M 2906 1791 
Q 2906 2416 2648 2759 
Q 2391 3103 1925 3103 
Q 1463 3103 1205 2759 
Q 947 2416 947 1791 
Q 947 1169 1205 825 
Q 1463 481 1925 481 
Q 2391 481 2648 825 
Q 2906 1169 2906 1791 
z
M 3481 434 
Q 3481 -459 3084 -895 
Q 2688 -1331 1869 -1331 
Q 1566 -1331 1297 -1286 
Q 1028 -1241 775 -1147 
L 775 -588 
Q 1028 -725 1275 -790 
Q 1522 -856 1778 -856 
Q 2344 -856 2625 -561 
Q 2906 -266 2906 331 
L 2906 616 
Q 2728 306 2450 153 
Q 2172 0 1784 0 
Q 1141 0 747 490 
Q 353 981 353 1791 
Q 353 2603 747 3093 
Q 1141 3584 1784 3584 
Q 2172 3584 2450 3431 
Q 2728 3278 2906 2969 
L 2906 3500 
L 3481 3500 
L 3481 434 
z
" transform="scale(0.015625)"/>
      <path id="DejaVuSans-6d" d="M 3328 2828 
Q 3544 3216 3844 3400 
Q 4144 3584 4550 3584 
Q 5097 3584 5394 3201 
Q 5691 2819 5691 2113 
L 5691 0 
L 5113 0 
L 5113 2094 
Q 5113 2597 4934 2840 
Q 4756 3084 4391 3084 
Q 3944 3084 3684 2787 
Q 3425 2491 3425 1978 
L 3425 0 
L 2847 0 
L 2847 2094 
Q 2847 2600 2669 2842 
Q 2491 3084 2119 3084 
Q 1678 3084 1418 2786 
Q 1159 2488 1159 1978 
L 1159 0 
L 581 0 
L 581 3500 
L 1159 3500 
L 1159 2956 
Q 1356 3278 1631 3431 
Q 1906 3584 2284 3584 
Q 2666 3584 2933 3390 
Q 3200 3197 3328 2828 
z
" transform="scale(0.015625)"/>
      <path id="DejaVuSans-41" d="M 2188 4044 
L 1331 1722 
L 3047 1722 
L 2188 4044 
z
M 1831 4666 
L 2547 4666 
L 4325 0 
L 3669 0 
L 3244 1197 
L 1141 1197 
L 716 0 
L 50 0 
L 1831 4666 
z
" transform="scale(0.015625)"/>
      <path id="DejaVuSans-56" d="M 1831 0 
L 50 4666 
L 709 4666 
L 2188 738 
L 3669 4666 
L 4325 4666 
L 2547 0 
L 1831 0 
z
" transform="scale(0.015625)"/>
     </defs>
     <use xlink:href="#DejaVuSans-52"/>
     <use xlink:href="#DejaVuSans-61" x="67.232422"/>
     <use xlink:href="#DejaVuSans-64" x="128.511719"/>
     <use xlink:href="#DejaVuSans-69" x="191.988281"/>
     <use xlink:href="#DejaVuSans-61" x="219.771484"/>
     <use xlink:href="#DejaVuSans-74" x="281.050781"/>
     <use xlink:href="#DejaVuSans-69" x="320.259766"/>
     <use xlink:href="#DejaVuSans-6f" x="348.042969"/>
     <use xlink:href="#DejaVuSans-6e" x="409.224609"/>
     <use xlink:href="#DejaVuSans-20" x="472.603516"/>
     <use xlink:href="#DejaVuSans-44" x="504.390625"/>
     <use xlink:href="#DejaVuSans-69" x="581.392578"/>
     <use xlink:href="#DejaVuSans-61" x="609.175781"/>
     <use xlink:href="#DejaVuSans-67" x="670.455078"/>
     <use xlink:href="#DejaVuSans-72" x="733.931641"/>
     <use xlink:href="#DejaVuSans-61" x="775.044922"/>
     <use xlink:href="#DejaVuSans-6d" x="836.324219"/>
     <use xlink:href="#DejaVuSans-20" x="933.736328"/>
     <use xlink:href="#DejaVuSans-2d" x="965.523438"/>
     <use xlink:href="#DejaVuSans-20" x="1001.607422"/>
     <use xlink:href="#DejaVuSans-34" x="1033.394531"/>
     <use xlink:href="#DejaVuSans-41" x="1097.017578"/>
     <use xlink:href="#DejaVuSans-56" x="1159.050781"/>
     <use xlink:href="#DejaVuSans-56" x="1227.458984"/>
     <use xlink:href="#DejaVuSans-46" x="1295.867188"/>
     <use xlink:href="#DejaVuSans-31" x="1353.386719"/>
     <use xlink:href="#DejaVuSans-38" x="1417.009766"/>
    </g>
   </g>
   <g id="legend_1">
    <g id="patch_6">
     <path d="M 411.802812 78.513438 
L 466.5825 78.513438 
Q 468.5825 78.513438 468.5825 76.513438 
L 468.5825 48.157188 
Q 468.5825 46.157188 466.5825 46.157188 
L 411.802812 46.157188 
Q 409.802812 46.157188 409.802812 48.157188 
L 409.802812 76.513438 
Q 409.802812 78.513438 411.802812 78.513438 
z
" style="fill: #ffffff; opacity: 0.8; stroke: #cccccc; stroke-linejoin: miter"/>
    </g>
    <g id="line2d_16">
     <path d="M 413.802812 54.255625 
L 423.802812 54.255625 
L 433.802812 54.255625 
" style="fill: none; stroke: #ff0000; stroke-width: 1.5; stroke-linecap: square"/>
    </g>
    <g id="text_17">
     <!-- INPE -->
     <g transform="translate(441.802812 57.755625)scale(0.1 -0.1)">
      <defs>
       <path id="DejaVuSans-49" d="M 628 4666 
L 1259 4666 
L 1259 0 
L 628 0 
L 628 4666 
z
" transform="scale(0.015625)"/>
       <path id="DejaVuSans-4e" d="M 628 4666 
L 1478 4666 
L 3547 763 
L 3547 4666 
L 4159 4666 
L 4159 0 
L 3309 0 
L 1241 3903 
L 1241 0 
L 628 0 
L 628 4666 
z
" transform="scale(0.015625)"/>
       <path id="DejaVuSans-45" d="M 628 4666 
L 3578 4666 
L 3578 4134 
L 1259 4134 
L 1259 2753 
L 3481 2753 
L 3481 2222 
L 1259 2222 
L 1259 531 
L 3634 531 
L 3634 0 
L 628 0 
L 628 4666 
z
" transform="scale(0.015625)"/>
      </defs>
      <use xlink:href="#DejaVuSans-49"/>
      <use xlink:href="#DejaVuSans-4e" x="29.492188"/>
      <use xlink:href="#DejaVuSans-50" x="104.296875"/>
      <use xlink:href="#DejaVuSans-45" x="164.599609"/>
     </g>
    </g>
    <g id="line2d_17">
     <path d="M 413.802812 68.93375 
L 423.802812 68.93375 
L 433.802812 68.93375 
" style="fill: none; stroke-dasharray: 5.55,2.4; stroke-dashoffset: 0; stroke: #0000ff; stroke-width: 1.5"/>
    </g>
    <g id="text_18">
     <!-- CST -->
     <g transform="translate(441.802812 72.43375)scale(0.1 -0.1)">
      <defs>
       <path id="DejaVuSans-53" d="M 3425 4513 
L 3425 3897 
Q 3066 4069 2747 4153 
Q 2428 4238 2131 4238 
Q 1616 4238 1336 4038 
Q 1056 3838 1056 3469 
Q 1056 3159 1242 3001 
Q 1428 2844 1947 2747 
L 2328 2669 
Q 3034 2534 3370 2195 
Q 3706 1856 3706 1288 
Q 3706 609 3251 259 
Q 2797 -91 1919 -91 
Q 1588 -91 1214 -16 
Q 841 59 441 206 
L 441 856 
Q 825 641 1194 531 
Q 1563 422 1919 422 
Q 2459 422 2753 634 
Q 3047 847 3047 1241 
Q 3047 1584 2836 1778 
Q 2625 1972 2144 2069 
L 1759 2144 
Q 1053 2284 737 2584 
Q 422 2884 422 3419 
Q 422 4038 858 4394 
Q 1294 4750 2059 4750 
Q 2388 4750 2728 4690 
Q 3069 4631 3425 4513 
z
" transform="scale(0.015625)"/>
       <path id="DejaVuSans-54" d="M -19 4666 
L 3928 4666 
L 3928 4134 
L 2272 4134 
L 2272 0 
L 1638 0 
L 1638 4134 
L -19 4134 
L -19 4666 
z
" transform="scale(0.015625)"/>
      </defs>
      <use xlink:href="#DejaVuSans-43"/>
      <use xlink:href="#DejaVuSans-53" x="69.824219"/>
      <use xlink:href="#DejaVuSans-54" x="133.300781"/>
     </g>
    </g>
   </g>
  </g>
 </g>
 <defs>
  <clipPath id="pdd0bf94bbb">
   <path d="M 473.5825 262.917188 
C 473.5825 233.795931 467.846247 204.957842 456.702025 178.05331 
C 445.557803 151.148777 429.222338 126.701026 408.6305 106.109188 
C 388.038662 85.51735 363.590911 69.181885 336.686378 58.037662 
C 309.781845 46.89344 280.943756 41.157188 251.8225 41.157188 
C 222.701244 41.157188 193.863155 46.89344 166.958622 58.037662 
C 140.054089 69.181885 115.606338 85.51735 95.0145 106.109188 
C 74.422662 126.701026 58.087197 151.148777 46.942975 178.05331 
C 35.798753 204.957842 30.0625 233.795931 30.0625 262.917188 
C 30.0625 292.038444 35.798753 320.876533 46.942975 347.781065 
C 58.087197 374.685598 74.422662 399.133349 95.0145 419.725187 
C 115.606338 440.317025 140.054089 456.65249 166.958622 467.796713 
C 193.863155 478.940935 222.701244 484.677188 251.8225 484.677188 
C 280.943756 484.677188 309.781845 478.940935 336.686378 467.796713 
C 363.590911 456.65249 388.038662 440.317025 408.6305 419.725187 
C 429.222338 399.133349 445.557803 374.685598 456.702025 347.781065 
C 467.846247 320.876533 473.5825 292.038444 473.5825 262.917188 
M 251.8225 262.917188 
C 251.8225 262.917188 251.8225 262.917188 251.8225 262.917188 
C 251.8225 262.917188 251.8225 262.917188 251.8225 262.917188 
C 251.8225 262.917188 251.8225 262.917188 251.8225 262.917188 
C 251.8225 262.917188 251.8225 262.917188 251.8225 262.917188 
C 251.8225 262.917188 251.8225 262.917188 251.8225 262.917188 
C 251.8225 262.917188 251.8225 262.917188 251.8225 262.917188 
C 251.8225 262.917188 251.8225 262.917188 251.8225 262.917188 
C 251.8225 262.917188 251.8225 262.917188 251.8225 262.917188 
C 251.8225 262.917188 251.8225 262.917188 251.8225 262.917188 
C 251.8225 262.917188 251.8225 262.917188 251.8225 262.917188 
C 251.8225 262.917188 251.8225 262.917188 251.8225 262.917188 
C 251.8225 262.917188 251.8225 262.917188 251.8225 262.917188 
C 251.8225 262.917188 251.8225 262.917188 251.8225 262.917188 
C 251.8225 262.917188 251.8225 262.917188 251.8225 262.917188 
C 251.8225 262.917188 251.8225 262.917188 251.8225 262.917188 
C 251.8225 262.917188 251.8225 262.917188 251.8225 262.917188 
M 473.5825 262.917188 
z
"/>
  </clipPath>
 </defs>
</svg>
