<?xml version="1.0" encoding="utf-8" standalone="no"?>
<!DOCTYPE svg PUBLIC "-//W3C//DTD SVG 1.1//EN"
  "http://www.w3.org/Graphics/SVG/1.1/DTD/svg11.dtd">
<svg xmlns:xlink="http://www.w3.org/1999/xlink" width="506.82625pt" height="514.053188pt" viewBox="0 0 506.82625 514.053188" xmlns="http://www.w3.org/2000/svg" version="1.1">
 <metadata>
  <rdf:RDF xmlns:dc="http://purl.org/dc/elements/1.1/" xmlns:cc="http://creativecommons.org/ns#" xmlns:rdf="http://www.w3.org/1999/02/22-rdf-syntax-ns#">
   <cc:Work>
    <dc:type rdf:resource="http://purl.org/dc/dcmitype/StillImage"/>
    <dc:date>2024-10-22T11:23:55.741586</dc:date>
    <dc:format>image/svg+xml</dc:format>
    <dc:creator>
     <cc:Agent>
      <dc:title>Matplotlib v3.8.3, https://matplotlib.org/</dc:title>
     </cc:Agent>
    </dc:creator>
   </cc:Work>
  </rdf:RDF>
 </metadata>
 <defs>
  <style type="text/css">*{stroke-linejoin: round; stroke-linecap: butt}</style>
 </defs>
 <g id="figure_1">
  <g id="patch_1">
   <path d="M 0 514.053188 
L 506.82625 514.053188 
L 506.82625 0 
L 0 0 
z
" style="fill: #ffffff"/>
  </g>
  <g id="axes_1">
   <g id="patch_2">
    <path d="M 473.5825 262.917188 
C 473.5825 233.795931 467.846247 204.957842 456.702025 178.05331 
C 445.557803 151.148777 429.222338 126.701026 408.6305 106.109188 
C 388.038662 85.51735 363.590911 69.181885 336.686378 58.037662 
C 309.781845 46.89344 280.943756 41.157188 251.8225 41.157188 
C 222.701244 41.157188 193.863155 46.89344 166.958622 58.037662 
C 140.054089 69.181885 115.606338 85.51735 95.0145 106.109188 
C 74.422662 126.701026 58.087197 151.148777 46.942975 178.05331 
C 35.798753 204.957842 30.0625 233.795931 30.0625 262.917188 
C 30.0625 292.038444 35.798753 320.876533 46.942975 347.781065 
C 58.087197 374.685598 74.422662 399.133349 95.0145 419.725187 
C 115.606338 440.317025 140.054089 456.65249 166.958622 467.796713 
C 193.863155 478.940935 222.701244 484.677188 251.8225 484.677188 
C 280.943756 484.677188 309.781845 478.940935 336.686378 467.796713 
C 363.590911 456.65249 388.038662 440.317025 408.6305 419.725187 
C 429.222338 399.133349 445.557803 374.685598 456.702025 347.781065 
C 467.846247 320.876533 473.5825 292.038444 473.5825 262.917188 
M 251.8225 262.917188 
C 251.8225 262.917188 251.8225 262.917188 251.8225 262.917188 
C 251.8225 262.917188 251.8225 262.917188 251.8225 262.917188 
C 251.8225 262.917188 251.8225 262.917188 251.8225 262.917188 
C 251.8225 262.917188 251.8225 262.917188 251.8225 262.917188 
C 251.8225 262.917188 251.8225 262.917188 251.8225 262.917188 
C 251.8225 262.917188 251.8225 262.917188 251.8225 262.917188 
C 251.8225 262.917188 251.8225 262.917188 251.8225 262.917188 
C 251.8225 262.917188 251.8225 262.917188 251.8225 262.917188 
C 251.8225 262.917188 251.8225 262.917188 251.8225 262.917188 
C 251.8225 262.917188 251.8225 262.917188 251.8225 262.917188 
C 251.8225 262.917188 251.8225 262.917188 251.8225 262.917188 
C 251.8225 262.917188 251.8225 262.917188 251.8225 262.917188 
C 251.8225 262.917188 251.8225 262.917188 251.8225 262.917188 
C 251.8225 262.917188 251.8225 262.917188 251.8225 262.917188 
C 251.8225 262.917188 251.8225 262.917188 251.8225 262.917188 
C 251.8225 262.917188 251.8225 262.917188 251.8225 262.917188 
z
" style="fill: #ffffff"/>
   </g>
   <g id="matplotlib.axis_1">
    <g id="xtick_1">
     <g id="line2d_1">
      <path d="M 251.8225 262.917188 
L 251.8225 41.157188 
" clip-path="url(#p1e3fe46f32)" style="fill: none; stroke: #b0b0b0; stroke-width: 0.8; stroke-linecap: square"/>
     </g>
     <g id="text_1">
      <!-- 0° -->
      <g transform="translate(246.14125 29.916563) scale(0.1 -0.1)">
       <defs>
        <path id="DejaVuSans-30" d="M 2034 4250 
Q 1547 4250 1301 3770 
Q 1056 3291 1056 2328 
Q 1056 1369 1301 889 
Q 1547 409 2034 409 
Q 2525 409 2770 889 
Q 3016 1369 3016 2328 
Q 3016 3291 2770 3770 
Q 2525 4250 2034 4250 
z
M 2034 4750 
Q 2819 4750 3233 4129 
Q 3647 3509 3647 2328 
Q 3647 1150 3233 529 
Q 2819 -91 2034 -91 
Q 1250 -91 836 529 
Q 422 1150 422 2328 
Q 422 3509 836 4129 
Q 1250 4750 2034 4750 
z
" transform="scale(0.015625)"/>
        <path id="DejaVuSans-b0" d="M 1600 4347 
Q 1350 4347 1178 4173 
Q 1006 4000 1006 3750 
Q 1006 3503 1178 3333 
Q 1350 3163 1600 3163 
Q 1850 3163 2022 3333 
Q 2194 3503 2194 3750 
Q 2194 3997 2020 4172 
Q 1847 4347 1600 4347 
z
M 1600 4750 
Q 1800 4750 1984 4673 
Q 2169 4597 2303 4453 
Q 2447 4313 2519 4134 
Q 2591 3956 2591 3750 
Q 2591 3338 2302 3052 
Q 2013 2766 1594 2766 
Q 1172 2766 890 3047 
Q 609 3328 609 3750 
Q 609 4169 896 4459 
Q 1184 4750 1600 4750 
z
" transform="scale(0.015625)"/>
       </defs>
       <use xlink:href="#DejaVuSans-30"/>
       <use xlink:href="#DejaVuSans-b0" x="63.623047"/>
      </g>
     </g>
    </g>
    <g id="xtick_2">
     <g id="line2d_2">
      <path d="M 251.8225 262.917188 
L 95.0145 106.109188 
" clip-path="url(#p1e3fe46f32)" style="fill: none; stroke: #b0b0b0; stroke-width: 0.8; stroke-linecap: square"/>
     </g>
     <g id="text_2">
      <!-- 45° -->
      <g transform="translate(76.252505 98.969068) scale(0.1 -0.1)">
       <defs>
        <path id="DejaVuSans-34" d="M 2419 4116 
L 825 1625 
L 2419 1625 
L 2419 4116 
z
M 2253 4666 
L 3047 4666 
L 3047 1625 
L 3713 1625 
L 3713 1100 
L 3047 1100 
L 3047 0 
L 2419 0 
L 2419 1100 
L 313 1100 
L 313 1709 
L 2253 4666 
z
" transform="scale(0.015625)"/>
        <path id="DejaVuSans-35" d="M 691 4666 
L 3169 4666 
L 3169 4134 
L 1269 4134 
L 1269 2991 
Q 1406 3038 1543 3061 
Q 1681 3084 1819 3084 
Q 2600 3084 3056 2656 
Q 3513 2228 3513 1497 
Q 3513 744 3044 326 
Q 2575 -91 1722 -91 
Q 1428 -91 1123 -41 
Q 819 9 494 109 
L 494 744 
Q 775 591 1075 516 
Q 1375 441 1709 441 
Q 2250 441 2565 725 
Q 2881 1009 2881 1497 
Q 2881 1984 2565 2268 
Q 2250 2553 1709 2553 
Q 1456 2553 1204 2497 
Q 953 2441 691 2322 
L 691 4666 
z
" transform="scale(0.015625)"/>
       </defs>
       <use xlink:href="#DejaVuSans-34"/>
       <use xlink:href="#DejaVuSans-35" x="63.623047"/>
       <use xlink:href="#DejaVuSans-b0" x="127.246094"/>
      </g>
     </g>
    </g>
    <g id="xtick_3">
     <g id="line2d_3">
      <path d="M 251.8225 262.917188 
L 30.0625 262.917188 
" clip-path="url(#p1e3fe46f32)" style="fill: none; stroke: #b0b0b0; stroke-width: 0.8; stroke-linecap: square"/>
     </g>
     <g id="text_3">
      <!-- 90° -->
      <g transform="translate(7.2 265.676563) scale(0.1 -0.1)">
       <defs>
        <path id="DejaVuSans-39" d="M 703 97 
L 703 672 
Q 941 559 1184 500 
Q 1428 441 1663 441 
Q 2288 441 2617 861 
Q 2947 1281 2994 2138 
Q 2813 1869 2534 1725 
Q 2256 1581 1919 1581 
Q 1219 1581 811 2004 
Q 403 2428 403 3163 
Q 403 3881 828 4315 
Q 1253 4750 1959 4750 
Q 2769 4750 3195 4129 
Q 3622 3509 3622 2328 
Q 3622 1225 3098 567 
Q 2575 -91 1691 -91 
Q 1453 -91 1209 -44 
Q 966 3 703 97 
z
M 1959 2075 
Q 2384 2075 2632 2365 
Q 2881 2656 2881 3163 
Q 2881 3666 2632 3958 
Q 2384 4250 1959 4250 
Q 1534 4250 1286 3958 
Q 1038 3666 1038 3163 
Q 1038 2656 1286 2365 
Q 1534 2075 1959 2075 
z
" transform="scale(0.015625)"/>
       </defs>
       <use xlink:href="#DejaVuSans-39"/>
       <use xlink:href="#DejaVuSans-30" x="63.623047"/>
       <use xlink:href="#DejaVuSans-b0" x="127.246094"/>
      </g>
     </g>
    </g>
    <g id="xtick_4">
     <g id="line2d_4">
      <path d="M 251.8225 262.917188 
L 95.0145 419.725187 
" clip-path="url(#p1e3fe46f32)" style="fill: none; stroke: #b0b0b0; stroke-width: 0.8; stroke-linecap: square"/>
     </g>
     <g id="text_4">
      <!-- 135° -->
      <g transform="translate(73.071255 432.384057) scale(0.1 -0.1)">
       <defs>
        <path id="DejaVuSans-31" d="M 794 531 
L 1825 531 
L 1825 4091 
L 703 3866 
L 703 4441 
L 1819 4666 
L 2450 4666 
L 2450 531 
L 3481 531 
L 3481 0 
L 794 0 
L 794 531 
z
" transform="scale(0.015625)"/>
        <path id="DejaVuSans-33" d="M 2597 2516 
Q 3050 2419 3304 2112 
Q 3559 1806 3559 1356 
Q 3559 666 3084 287 
Q 2609 -91 1734 -91 
Q 1441 -91 1130 -33 
Q 819 25 488 141 
L 488 750 
Q 750 597 1062 519 
Q 1375 441 1716 441 
Q 2309 441 2620 675 
Q 2931 909 2931 1356 
Q 2931 1769 2642 2001 
Q 2353 2234 1838 2234 
L 1294 2234 
L 1294 2753 
L 1863 2753 
Q 2328 2753 2575 2939 
Q 2822 3125 2822 3475 
Q 2822 3834 2567 4026 
Q 2313 4219 1838 4219 
Q 1578 4219 1281 4162 
Q 984 4106 628 3988 
L 628 4550 
Q 988 4650 1302 4700 
Q 1616 4750 1894 4750 
Q 2613 4750 3031 4423 
Q 3450 4097 3450 3541 
Q 3450 3153 3228 2886 
Q 3006 2619 2597 2516 
z
" transform="scale(0.015625)"/>
       </defs>
       <use xlink:href="#DejaVuSans-31"/>
       <use xlink:href="#DejaVuSans-33" x="63.623047"/>
       <use xlink:href="#DejaVuSans-35" x="127.246094"/>
       <use xlink:href="#DejaVuSans-b0" x="190.869141"/>
      </g>
     </g>
    </g>
    <g id="xtick_5">
     <g id="line2d_5">
      <path d="M 251.8225 262.917188 
L 251.8225 484.677188 
" clip-path="url(#p1e3fe46f32)" style="fill: none; stroke: #b0b0b0; stroke-width: 0.8; stroke-linecap: square"/>
     </g>
     <g id="text_5">
      <!-- 180° -->
      <g transform="translate(239.77875 501.436563) scale(0.1 -0.1)">
       <defs>
        <path id="DejaVuSans-38" d="M 2034 2216 
Q 1584 2216 1326 1975 
Q 1069 1734 1069 1313 
Q 1069 891 1326 650 
Q 1584 409 2034 409 
Q 2484 409 2743 651 
Q 3003 894 3003 1313 
Q 3003 1734 2745 1975 
Q 2488 2216 2034 2216 
z
M 1403 2484 
Q 997 2584 770 2862 
Q 544 3141 544 3541 
Q 544 4100 942 4425 
Q 1341 4750 2034 4750 
Q 2731 4750 3128 4425 
Q 3525 4100 3525 3541 
Q 3525 3141 3298 2862 
Q 3072 2584 2669 2484 
Q 3125 2378 3379 2068 
Q 3634 1759 3634 1313 
Q 3634 634 3220 271 
Q 2806 -91 2034 -91 
Q 1263 -91 848 271 
Q 434 634 434 1313 
Q 434 1759 690 2068 
Q 947 2378 1403 2484 
z
M 1172 3481 
Q 1172 3119 1398 2916 
Q 1625 2713 2034 2713 
Q 2441 2713 2670 2916 
Q 2900 3119 2900 3481 
Q 2900 3844 2670 4047 
Q 2441 4250 2034 4250 
Q 1625 4250 1398 4047 
Q 1172 3844 1172 3481 
z
" transform="scale(0.015625)"/>
       </defs>
       <use xlink:href="#DejaVuSans-31"/>
       <use xlink:href="#DejaVuSans-38" x="63.623047"/>
       <use xlink:href="#DejaVuSans-30" x="127.246094"/>
       <use xlink:href="#DejaVuSans-b0" x="190.869141"/>
      </g>
     </g>
    </g>
    <g id="xtick_6">
     <g id="line2d_6">
      <path d="M 251.8225 262.917188 
L 408.6305 419.725187 
" clip-path="url(#p1e3fe46f32)" style="fill: none; stroke: #b0b0b0; stroke-width: 0.8; stroke-linecap: square"/>
     </g>
     <g id="text_6">
      <!-- 225° -->
      <g transform="translate(406.486245 432.384057) scale(0.1 -0.1)">
       <defs>
        <path id="DejaVuSans-32" d="M 1228 531 
L 3431 531 
L 3431 0 
L 469 0 
L 469 531 
Q 828 903 1448 1529 
Q 2069 2156 2228 2338 
Q 2531 2678 2651 2914 
Q 2772 3150 2772 3378 
Q 2772 3750 2511 3984 
Q 2250 4219 1831 4219 
Q 1534 4219 1204 4116 
Q 875 4013 500 3803 
L 500 4441 
Q 881 4594 1212 4672 
Q 1544 4750 1819 4750 
Q 2544 4750 2975 4387 
Q 3406 4025 3406 3419 
Q 3406 3131 3298 2873 
Q 3191 2616 2906 2266 
Q 2828 2175 2409 1742 
Q 1991 1309 1228 531 
z
" transform="scale(0.015625)"/>
       </defs>
       <use xlink:href="#DejaVuSans-32"/>
       <use xlink:href="#DejaVuSans-32" x="63.623047"/>
       <use xlink:href="#DejaVuSans-35" x="127.246094"/>
       <use xlink:href="#DejaVuSans-b0" x="190.869141"/>
      </g>
     </g>
    </g>
    <g id="xtick_7">
     <g id="line2d_7">
      <path d="M 251.8225 262.917188 
L 473.5825 262.917188 
" clip-path="url(#p1e3fe46f32)" style="fill: none; stroke: #b0b0b0; stroke-width: 0.8; stroke-linecap: square"/>
     </g>
     <g id="text_7">
      <!-- 270° -->
      <g transform="translate(475.53875 265.676563) scale(0.1 -0.1)">
       <defs>
        <path id="DejaVuSans-37" d="M 525 4666 
L 3525 4666 
L 3525 4397 
L 1831 0 
L 1172 0 
L 2766 4134 
L 525 4134 
L 525 4666 
z
" transform="scale(0.015625)"/>
       </defs>
       <use xlink:href="#DejaVuSans-32"/>
       <use xlink:href="#DejaVuSans-37" x="63.623047"/>
       <use xlink:href="#DejaVuSans-30" x="127.246094"/>
       <use xlink:href="#DejaVuSans-b0" x="190.869141"/>
      </g>
     </g>
    </g>
    <g id="xtick_8">
     <g id="line2d_8">
      <path d="M 251.8225 262.917188 
L 408.6305 106.109188 
" clip-path="url(#p1e3fe46f32)" style="fill: none; stroke: #b0b0b0; stroke-width: 0.8; stroke-linecap: square"/>
     </g>
     <g id="text_8">
      <!-- 315° -->
      <g transform="translate(406.486245 98.969068) scale(0.1 -0.1)">
       <use xlink:href="#DejaVuSans-33"/>
       <use xlink:href="#DejaVuSans-31" x="63.623047"/>
       <use xlink:href="#DejaVuSans-35" x="127.246094"/>
       <use xlink:href="#DejaVuSans-b0" x="190.869141"/>
      </g>
     </g>
    </g>
   </g>
   <g id="matplotlib.axis_2">
    <g id="ytick_1">
     <g id="line2d_9">
      <path d="M 251.8225 235.197188 
C 248.182343 235.197188 244.577582 235.914219 241.214515 237.307247 
C 237.851449 238.700275 234.79548 240.742208 232.2215 243.316188 
C 229.64752 245.890167 227.605587 248.946136 226.212559 252.309203 
C 224.819532 255.672269 224.1025 259.27703 224.1025 262.917188 
C 224.1025 266.557345 224.819532 270.162106 226.212559 273.525172 
C 227.605587 276.888239 229.64752 279.944208 232.2215 282.518187 
C 234.79548 285.092167 237.851449 287.1341 241.214515 288.527128 
C 244.577582 289.920156 248.182343 290.637188 251.8225 290.637188 
C 255.462657 290.637188 259.067418 289.920156 262.430485 288.527128 
C 265.793551 287.1341 268.84952 285.092167 271.4235 282.518187 
C 273.99748 279.944208 276.039413 276.888239 277.432441 273.525172 
C 278.825468 270.162106 279.5425 266.557345 279.5425 262.917188 
C 279.5425 259.27703 278.825468 255.672269 277.432441 252.309203 
C 276.039413 248.946136 273.99748 245.890167 271.4235 243.316188 
C 268.84952 240.742208 265.793551 238.700275 262.430485 237.307247 
C 259.067418 235.914219 255.462657 235.197188 251.8225 235.197188 
" clip-path="url(#p1e3fe46f32)" style="fill: none; stroke: #b0b0b0; stroke-width: 0.8; stroke-linecap: square"/>
     </g>
     <g id="text_9">
      <!-- −35 -->
      <g transform="translate(241.214515 235.227559) scale(0.1 -0.1)">
       <defs>
        <path id="DejaVuSans-2212" d="M 678 2272 
L 4684 2272 
L 4684 1741 
L 678 1741 
L 678 2272 
z
" transform="scale(0.015625)"/>
       </defs>
       <use xlink:href="#DejaVuSans-2212"/>
       <use xlink:href="#DejaVuSans-33" x="83.789062"/>
       <use xlink:href="#DejaVuSans-35" x="147.412109"/>
      </g>
     </g>
    </g>
    <g id="ytick_2">
     <g id="line2d_10">
      <path d="M 251.8225 207.477188 
C 244.542186 207.477188 237.332664 208.911251 230.606531 211.697306 
C 223.880397 214.483362 217.76846 218.567228 212.6205 223.715188 
C 207.472541 228.863147 203.388674 234.975085 200.602619 241.701218 
C 197.816563 248.427351 196.3825 255.636873 196.3825 262.917188 
C 196.3825 270.197502 197.816563 277.407024 200.602619 284.133157 
C 203.388674 290.85929 207.472541 296.971228 212.6205 302.119187 
C 217.76846 307.267147 223.880397 311.351013 230.606531 314.137069 
C 237.332664 316.923124 244.542186 318.357188 251.8225 318.357188 
C 259.102814 318.357188 266.312336 316.923124 273.038469 314.137069 
C 279.764603 311.351013 285.87654 307.267147 291.0245 302.119187 
C 296.172459 296.971228 300.256326 290.85929 303.042381 284.133157 
C 305.828437 277.407024 307.2625 270.197502 307.2625 262.917188 
C 307.2625 255.636873 305.828437 248.427351 303.042381 241.701218 
C 300.256326 234.975085 296.172459 228.863147 291.0245 223.715188 
C 285.87654 218.567228 279.764603 214.483362 273.038469 211.697306 
C 266.312336 208.911251 259.102814 207.477188 251.8225 207.477188 
" clip-path="url(#p1e3fe46f32)" style="fill: none; stroke: #b0b0b0; stroke-width: 0.8; stroke-linecap: square"/>
     </g>
     <g id="text_10">
      <!-- −30 -->
      <g transform="translate(230.606531 209.617619) scale(0.1 -0.1)">
       <use xlink:href="#DejaVuSans-2212"/>
       <use xlink:href="#DejaVuSans-33" x="83.789062"/>
       <use xlink:href="#DejaVuSans-30" x="147.412109"/>
      </g>
     </g>
    </g>
    <g id="ytick_3">
     <g id="line2d_11">
      <path d="M 251.8225 179.757188 
C 240.902029 179.757188 230.087746 181.908282 219.998546 186.087366 
C 209.909346 190.266449 200.741439 196.392248 193.0195 204.114188 
C 185.297561 211.836127 179.171761 221.004033 174.992678 231.093233 
C 170.813595 241.182433 168.6625 251.996716 168.6625 262.917188 
C 168.6625 273.837659 170.813595 284.651942 174.992678 294.741142 
C 179.171761 304.830342 185.297561 313.998248 193.0195 321.720187 
C 200.741439 329.442127 209.909346 335.567926 219.998546 339.747009 
C 230.087746 343.926093 240.902029 346.077188 251.8225 346.077188 
C 262.742971 346.077188 273.557254 343.926093 283.646454 339.747009 
C 293.735654 335.567926 302.903561 329.442127 310.6255 321.720187 
C 318.347439 313.998248 324.473239 304.830342 328.652322 294.741142 
C 332.831405 284.651942 334.9825 273.837659 334.9825 262.917188 
C 334.9825 251.996716 332.831405 241.182433 328.652322 231.093233 
C 324.473239 221.004033 318.347439 211.836127 310.6255 204.114188 
C 302.903561 196.392248 293.735654 190.266449 283.646454 186.087366 
C 273.557254 181.908282 262.742971 179.757188 251.8225 179.757188 
" clip-path="url(#p1e3fe46f32)" style="fill: none; stroke: #b0b0b0; stroke-width: 0.8; stroke-linecap: square"/>
     </g>
     <g id="text_11">
      <!-- −25 -->
      <g transform="translate(219.998546 184.007678) scale(0.1 -0.1)">
       <use xlink:href="#DejaVuSans-2212"/>
       <use xlink:href="#DejaVuSans-32" x="83.789062"/>
       <use xlink:href="#DejaVuSans-35" x="147.412109"/>
      </g>
     </g>
    </g>
    <g id="ytick_4">
     <g id="line2d_12">
      <path d="M 251.8225 152.037188 
C 237.261872 152.037188 222.842827 154.905314 209.390561 160.477425 
C 195.938295 166.049536 183.714419 174.217269 173.4185 184.513188 
C 163.122581 194.809107 154.954849 207.032982 149.382737 220.485249 
C 143.810626 233.937515 140.9425 248.356559 140.9425 262.917188 
C 140.9425 277.477816 143.810626 291.89686 149.382737 305.349126 
C 154.954849 318.801393 163.122581 331.025268 173.4185 341.321187 
C 183.714419 351.617106 195.938295 359.784839 209.390561 365.35695 
C 222.842827 370.929061 237.261872 373.797188 251.8225 373.797188 
C 266.383128 373.797188 280.802173 370.929061 294.254439 365.35695 
C 307.706705 359.784839 319.930581 351.617106 330.2265 341.321187 
C 340.522419 331.025268 348.690151 318.801393 354.262263 305.349126 
C 359.834374 291.89686 362.7025 277.477816 362.7025 262.917188 
C 362.7025 248.356559 359.834374 233.937515 354.262263 220.485249 
C 348.690151 207.032982 340.522419 194.809107 330.2265 184.513188 
C 319.930581 174.217269 307.706705 166.049536 294.254439 160.477425 
C 280.802173 154.905314 266.383128 152.037188 251.8225 152.037188 
" clip-path="url(#p1e3fe46f32)" style="fill: none; stroke: #b0b0b0; stroke-width: 0.8; stroke-linecap: square"/>
     </g>
     <g id="text_12">
      <!-- −20 -->
      <g transform="translate(209.390561 158.397737) scale(0.1 -0.1)">
       <use xlink:href="#DejaVuSans-2212"/>
       <use xlink:href="#DejaVuSans-32" x="83.789062"/>
       <use xlink:href="#DejaVuSans-30" x="147.412109"/>
      </g>
     </g>
    </g>
    <g id="ytick_5">
     <g id="line2d_13">
      <path d="M 251.8225 124.317188 
C 233.621715 124.317188 215.597909 127.902345 198.782576 134.867484 
C 181.967243 141.832623 166.687399 152.042289 153.8175 164.912188 
C 140.947601 177.782086 130.737936 193.061931 123.772797 209.877264 
C 116.807658 226.692597 113.2225 244.716402 113.2225 262.917188 
C 113.2225 281.117973 116.807658 299.141778 123.772797 315.957111 
C 130.737936 332.772444 140.947601 348.052289 153.8175 360.922187 
C 166.687399 373.792086 181.967243 384.001752 198.782576 390.966891 
C 215.597909 397.93203 233.621715 401.517188 251.8225 401.517188 
C 270.023285 401.517188 288.047091 397.93203 304.862424 390.966891 
C 321.677757 384.001752 336.957601 373.792086 349.8275 360.922187 
C 362.697399 348.052289 372.907064 332.772444 379.872203 315.957111 
C 386.837342 299.141778 390.4225 281.117973 390.4225 262.917188 
C 390.4225 244.716402 386.837342 226.692597 379.872203 209.877264 
C 372.907064 193.061931 362.697399 177.782086 349.8275 164.912188 
C 336.957601 152.042289 321.677757 141.832623 304.862424 134.867484 
C 288.047091 127.902345 270.023285 124.317188 251.8225 124.317188 
" clip-path="url(#p1e3fe46f32)" style="fill: none; stroke: #b0b0b0; stroke-width: 0.8; stroke-linecap: square"/>
     </g>
     <g id="text_13">
      <!-- −15 -->
      <g transform="translate(198.782576 132.787797) scale(0.1 -0.1)">
       <use xlink:href="#DejaVuSans-2212"/>
       <use xlink:href="#DejaVuSans-31" x="83.789062"/>
       <use xlink:href="#DejaVuSans-35" x="147.412109"/>
      </g>
     </g>
    </g>
    <g id="ytick_6">
     <g id="line2d_14">
      <path d="M 251.8225 96.597188 
C 229.981558 96.597188 208.352991 100.899377 188.174592 109.257544 
C 167.996192 117.61571 149.660379 129.867309 134.2165 145.311188 
C 118.772622 160.755066 106.521023 179.090879 98.162856 199.269279 
C 89.804689 219.447679 85.5025 241.076245 85.5025 262.917188 
C 85.5025 284.75813 89.804689 306.386696 98.162856 326.565096 
C 106.521023 346.743496 118.772622 365.079309 134.2165 380.523187 
C 149.660379 395.967066 167.996192 408.218665 188.174592 416.576831 
C 208.352991 424.934998 229.981558 429.237188 251.8225 429.237188 
C 273.663442 429.237188 295.292009 424.934998 315.470408 416.576831 
C 335.648808 408.218665 353.984621 395.967066 369.4285 380.523187 
C 384.872378 365.079309 397.123977 346.743496 405.482144 326.565096 
C 413.840311 306.386696 418.1425 284.75813 418.1425 262.917188 
C 418.1425 241.076245 413.840311 219.447679 405.482144 199.269279 
C 397.123977 179.090879 384.872378 160.755066 369.4285 145.311188 
C 353.984621 129.867309 335.648808 117.61571 315.470408 109.257544 
C 295.292009 100.899377 273.663442 96.597188 251.8225 96.597188 
" clip-path="url(#p1e3fe46f32)" style="fill: none; stroke: #b0b0b0; stroke-width: 0.8; stroke-linecap: square"/>
     </g>
     <g id="text_14">
      <!-- −10 -->
      <g transform="translate(188.174592 107.177856) scale(0.1 -0.1)">
       <use xlink:href="#DejaVuSans-2212"/>
       <use xlink:href="#DejaVuSans-31" x="83.789062"/>
       <use xlink:href="#DejaVuSans-30" x="147.412109"/>
      </g>
     </g>
    </g>
    <g id="ytick_7">
     <g id="line2d_15">
      <path d="M 251.8225 68.877188 
C 226.341401 68.877188 201.108073 73.896408 177.566607 83.647603 
C 154.025141 93.398798 132.633358 107.69233 114.6155 125.710188 
C 96.597642 143.728046 82.30411 165.119828 72.552916 188.661294 
C 62.801721 212.20276 57.7825 237.436088 57.7825 262.917188 
C 57.7825 288.398287 62.801721 313.631615 72.552916 337.173081 
C 82.30411 360.714547 96.597642 382.106329 114.6155 400.124187 
C 132.633358 418.142045 154.025141 432.435577 177.566607 442.186772 
C 201.108073 451.937967 226.341401 456.957188 251.8225 456.957188 
C 277.303599 456.957188 302.536927 451.937967 326.078393 442.186772 
C 349.619859 432.435577 371.011642 418.142045 389.0295 400.124187 
C 407.047358 382.106329 421.34089 360.714547 431.092084 337.173081 
C 440.843279 313.631615 445.8625 288.398287 445.8625 262.917188 
C 445.8625 237.436088 440.843279 212.20276 431.092084 188.661294 
C 421.34089 165.119828 407.047358 143.728046 389.0295 125.710188 
C 371.011642 107.69233 349.619859 93.398798 326.078393 83.647603 
C 302.536927 73.896408 277.303599 68.877188 251.8225 68.877188 
" clip-path="url(#p1e3fe46f32)" style="fill: none; stroke: #b0b0b0; stroke-width: 0.8; stroke-linecap: square"/>
     </g>
     <g id="text_15">
      <!-- −5 -->
      <g transform="translate(177.566607 81.567916) scale(0.1 -0.1)">
       <use xlink:href="#DejaVuSans-2212"/>
       <use xlink:href="#DejaVuSans-35" x="83.789062"/>
      </g>
     </g>
    </g>
    <g id="ytick_8">
     <g id="line2d_16">
      <path d="M 251.8225 41.157188 
C 222.701244 41.157188 193.863155 46.89344 166.958622 58.037662 
C 140.054089 69.181885 115.606338 85.51735 95.0145 106.109188 
C 74.422662 126.701026 58.087197 151.148777 46.942975 178.05331 
C 35.798753 204.957842 30.0625 233.795931 30.0625 262.917188 
C 30.0625 292.038444 35.798753 320.876533 46.942975 347.781065 
C 58.087197 374.685598 74.422662 399.133349 95.0145 419.725187 
C 115.606338 440.317025 140.054089 456.65249 166.958622 467.796713 
C 193.863155 478.940935 222.701244 484.677188 251.8225 484.677188 
C 280.943756 484.677188 309.781845 478.940935 336.686378 467.796713 
C 363.590911 456.65249 388.038662 440.317025 408.6305 419.725187 
C 429.222338 399.133349 445.557803 374.685598 456.702025 347.781065 
C 467.846247 320.876533 473.5825 292.038444 473.5825 262.917188 
C 473.5825 233.795931 467.846247 204.957842 456.702025 178.05331 
C 445.557803 151.148777 429.222338 126.701026 408.6305 106.109188 
C 388.038662 85.51735 363.590911 69.181885 336.686378 58.037662 
C 309.781845 46.89344 280.943756 41.157188 251.8225 41.157188 
" clip-path="url(#p1e3fe46f32)" style="fill: none; stroke: #b0b0b0; stroke-width: 0.8; stroke-linecap: square"/>
     </g>
     <g id="text_16">
      <!-- 0 -->
      <g transform="translate(166.958622 55.957975) scale(0.1 -0.1)">
       <use xlink:href="#DejaVuSans-30"/>
      </g>
     </g>
    </g>
   </g>
   <g id="line2d_17">
    <path d="M 251.8225 484.488692 
L 267.282027 483.998729 
L 271.144842 483.772572 
L 274.997516 483.41274 
L 282.671639 482.420214 
L 290.312428 481.204419 
L 297.88289 479.614285 
L 305.406721 477.83176 
L 316.618327 474.854786 
L 320.32955 473.760209 
L 327.668887 471.303423 
L 334.862029 468.447234 
L 341.840022 465.099853 
L 345.263509 463.302078 
L 355.136072 457.221757 
L 361.480048 452.849632 
L 364.66391 450.716831 
L 367.759759 448.455586 
L 374.096126 444.195293 
L 386.853182 435.748579 
L 389.866385 433.387188 
L 392.795526 430.922298 
L 398.383751 425.689947 
L 403.728681 420.220643 
L 406.521432 417.61612 
L 409.205715 414.900392 
L 411.805836 412.104061 
L 414.306859 409.218762 
L 416.58438 406.142505 
L 420.538942 399.541069 
L 423.964532 392.635513 
L 427.837265 386.164053 
L 432.021996 379.940108 
L 435.962999 373.559962 
L 437.832328 370.310012 
L 441.251588 363.63842 
L 442.88671 360.269265 
L 447.314702 349.955923 
L 449.436473 342.758415 
L 450.240814 339.082842 
L 452.020026 327.965307 
L 452.393139 324.237786 
L 452.894531 320.573664 
L 453.200764 316.876331 
L 453.681464 313.24628 
L 454.042912 309.603448 
L 454.324571 302.279603 
L 454.314605 298.622009 
L 454.019829 294.942098 
L 453.559737 291.269507 
L 452.879271 287.603855 
L 452.077519 283.964838 
L 451.508596 280.387457 
L 450.776531 276.829409 
L 450.191789 273.313281 
L 448.900612 262.917188 
L 448.691907 256.042356 
L 448.91288 252.588118 
L 448.890632 249.136841 
L 449.17793 245.650825 
L 449.072591 242.185367 
L 449.186975 238.683877 
L 448.795969 231.719655 
L 448.131414 224.7586 
L 447.527744 221.318754 
L 446.771945 217.909562 
L 443.7016 207.896741 
L 442.367523 204.661728 
L 441.179443 201.391387 
L 440.113523 198.083389 
L 438.750163 194.881082 
L 437.818967 191.519833 
L 434.450374 181.606019 
L 431.58113 175.243046 
L 429.77664 172.245025 
L 425.563137 166.61118 
L 420.242935 161.719981 
L 417.708299 159.260236 
L 414.851061 157.045202 
L 409.67629 152.386774 
L 399.065392 143.682244 
L 396.401432 141.601059 
L 393.986003 139.33634 
L 388.803948 135.17992 
L 386.645487 132.720142 
L 384.376222 130.363465 
L 381.950224 128.165985 
L 379.703445 125.781663 
L 374.475864 121.820633 
L 372.048163 119.637822 
L 369.466481 117.63897 
L 356.93671 107.078963 
L 351.710162 103.063514 
L 346.078816 99.660459 
L 343.379192 97.744542 
L 340.555465 96.034752 
L 337.818219 94.141085 
L 335.13663 92.097906 
L 332.302057 90.32822 
L 326.784314 86.318221 
L 323.910963 84.491981 
L 321.068159 82.52608 
L 309.677595 73.681697 
L 306.830722 71.080721 
L 303.755575 69.100314 
L 297.416276 65.428846 
L 294.081409 64.10465 
L 290.688786 62.967481 
L 287.240435 62.052095 
L 283.753745 61.311239 
L 276.718617 60.154587 
L 269.62134 59.475518 
L 262.506713 59.050251 
L 255.389318 58.574299 
L 248.246296 58.036613 
L 237.424546 57.016855 
L 233.802359 56.946028 
L 226.538564 56.996051 
L 222.940879 57.413779 
L 219.370024 58.020317 
L 212.366995 59.936209 
L 208.966511 61.295613 
L 205.658786 62.960174 
L 202.328984 64.409539 
L 192.837631 69.986375 
L 183.841383 76.140605 
L 181.06688 78.592495 
L 175.3595 82.781649 
L 169.609126 86.610038 
L 166.799848 88.594917 
L 158.760648 95.029163 
L 156.523912 97.855191 
L 154.011763 100.132785 
L 151.667492 102.63567 
L 149.842623 105.881947 
L 147.691042 108.535953 
L 145.877513 111.612066 
L 144.29253 114.914881 
L 142.486624 117.82358 
L 140.995012 121.064472 
L 137.833163 127.069985 
L 136.501714 130.255799 
L 134.790144 132.939588 
L 132.146895 138.989471 
L 130.025806 141.120494 
L 127.811035 143.160707 
L 124.774883 144.443368 
L 121.486461 145.562091 
L 117.960272 146.552528 
L 114.038688 147.302842 
L 110.973418 148.85985 
L 108.073755 150.608359 
L 105.289911 152.496961 
L 102.905214 154.722446 
L 99.995119 156.606511 
L 93.769 160.276044 
L 90.07409 161.845563 
L 86.519466 163.593104 
L 80.297807 167.839497 
L 77.666004 170.316536 
L 72.721615 175.563849 
L 68.764127 181.414349 
L 66.665335 184.322634 
L 60.966756 193.451378 
L 57.588349 199.806686 
L 55.938611 203.029473 
L 54.518238 206.341101 
L 52.034574 213.104463 
L 50.909349 216.532732 
L 50.103315 220.040451 
L 49.412946 223.572756 
L 48.986429 227.151716 
L 48.641381 234.361943 
L 48.806777 237.989991 
L 49.218675 241.622667 
L 49.463319 245.213053 
L 49.904124 248.797679 
L 50.480163 252.365283 
L 50.819788 255.898018 
L 51.309932 259.417228 
L 52.102329 273.384078 
L 52.329706 280.370545 
L 52.212933 287.426161 
L 52.311432 298.096372 
L 52.836431 305.212982 
L 54.476621 315.795856 
L 55.970421 322.795177 
L 57.760085 329.738236 
L 58.434864 333.304531 
L 61.587572 343.667124 
L 62.818174 347.067335 
L 63.903568 350.545225 
L 65.312022 353.884426 
L 67.983572 360.666079 
L 71.089241 367.263584 
L 72.866581 370.444752 
L 74.808064 373.528083 
L 76.593416 376.712285 
L 78.739392 379.663218 
L 80.753297 382.701133 
L 89.534336 394.335552 
L 91.542592 397.407999 
L 93.730091 400.344822 
L 98.399548 405.986405 
L 106.078217 413.839811 
L 108.813778 416.275266 
L 113.958403 421.51169 
L 116.683111 423.97004 
L 119.284182 426.58838 
L 121.97651 429.112476 
L 124.793364 431.490545 
L 130.315044 436.447818 
L 133.163667 438.836142 
L 135.847338 441.503276 
L 138.711475 443.932667 
L 147.638596 450.869926 
L 150.783732 452.943473 
L 153.878946 455.142236 
L 160.389438 458.996022 
L 163.748743 460.734085 
L 167.160383 462.368637 
L 170.63757 463.85694 
L 177.718684 466.515749 
L 188.597334 469.717387 
L 192.257384 470.645432 
L 195.812895 471.947879 
L 199.43196 473.044166 
L 213.853395 478.250681 
L 217.514928 479.526675 
L 224.981881 481.516489 
L 228.754692 482.392719 
L 232.559107 483.098778 
L 236.387337 483.650308 
L 240.231276 484.090917 
L 247.95448 484.51592 
L 247.95448 484.51592 
" clip-path="url(#p1e3fe46f32)" style="fill: none; stroke: #ff0000; stroke-width: 1.5; stroke-linecap: square"/>
   </g>
   <g id="line2d_18">
    <path d="M 251.8225 67.219532 
L 244.995459 67.416314 
L 238.188338 67.939583 
L 231.418101 68.782297 
L 224.70393 69.958535 
L 218.062344 71.453826 
L 211.513895 73.280113 
L 205.075793 75.426385 
L 198.770289 77.902141 
L 192.616359 80.699423 
L 186.636323 83.819637 
L 180.853443 87.262607 
L 175.289567 91.021405 
L 169.973858 95.102603 
L 164.932283 99.500456 
L 160.19404 104.212039 
L 157.946465 106.681228 
L 155.786389 109.227283 
L 153.719633 111.85202 
L 151.746059 114.547762 
L 149.874657 117.320579 
L 148.108446 120.167038 
L 146.450342 123.08361 
L 144.909984 126.075407 
L 143.483555 129.129732 
L 142.184336 132.255512 
L 141.011831 135.444095 
L 139.968829 138.691101 
L 139.06177 141.996108 
L 138.293388 145.35435 
L 137.666276 148.760964 
L 137.154965 152.184036 
L 136.573882 159.146866 
L 136.420117 166.08309 
L 136.513595 176.025695 
L 136.4051 179.061538 
L 136.094541 181.883598 
L 135.525249 184.473701 
L 134.638893 186.817263 
L 133.328613 188.873989 
L 131.579215 190.667733 
L 129.376353 192.222871 
L 126.803526 193.618039 
L 123.850908 194.873485 
L 117.268868 197.290996 
L 110.147758 199.839529 
L 106.51684 201.238594 
L 102.923219 202.757973 
L 99.365022 204.394245 
L 95.876661 206.157544 
L 92.47231 208.048517 
L 89.161021 210.065269 
L 85.95714 212.207058 
L 82.859109 214.467715 
L 79.875826 216.844215 
L 77.016133 219.333065 
L 74.2726 221.926563 
L 71.648299 224.619979 
L 69.14615 227.408502 
L 66.768914 230.287247 
L 64.508244 233.249524 
L 62.371987 236.291654 
L 60.356893 239.408167 
L 58.465031 242.594499 
L 56.687277 245.845068 
L 55.036424 249.156565 
L 53.503039 252.523705 
L 52.08305 255.942132 
L 50.788875 259.408133 
L 49.6051 262.917188 
L 48.543897 266.465429 
L 47.595146 270.048964 
L 46.759701 273.664073 
L 46.038308 277.30702 
L 45.4316 280.974052 
L 44.553208 288.366656 
L 44.116573 295.814575 
L 44.116654 303.291114 
L 44.53942 310.772257 
L 45.377783 318.233883 
L 46.621839 325.653325 
L 48.261138 333.008985 
L 50.284009 340.280566 
L 52.678778 347.448682 
L 55.432645 354.495281 
L 58.532443 361.403391 
L 61.964147 368.157391 
L 65.714142 374.742371 
L 69.766423 381.145786 
L 74.106535 387.355246 
L 78.718786 393.360192 
L 83.587748 399.151004 
L 88.696691 404.72029 
L 94.03004 410.061036 
L 99.571733 415.167955 
L 105.305768 420.037147 
L 111.216324 424.66609 
L 117.288501 429.05284 
L 123.506824 433.197841 
L 129.857456 437.101322 
L 136.326228 440.765851 
L 142.900372 444.19405 
L 149.567888 447.389391 
L 156.317341 450.356616 
L 163.137772 453.102201 
L 170.02195 455.627206 
L 176.960181 457.940197 
L 183.945556 460.046147 
L 190.971965 461.950318 
L 198.034109 463.658195 
L 205.127509 465.175413 
L 212.248516 466.507686 
L 219.396042 467.649786 
L 226.566265 468.612714 
L 233.757905 469.396454 
L 240.969999 469.995237 
L 248.200724 470.408589 
L 255.448436 470.646944 
L 262.71156 470.692823 
L 269.988082 470.550741 
L 277.275347 470.213993 
L 284.569849 469.675811 
L 291.867225 468.929439 
L 299.16263 467.96982 
L 306.450447 466.79146 
L 313.723384 465.385854 
L 320.973739 463.746967 
L 328.192596 461.868089 
L 335.369667 459.741979 
L 342.494088 457.363036 
L 349.554381 454.726804 
L 356.537457 451.82797 
L 363.430104 448.663433 
L 370.217774 445.229922 
L 376.886046 441.526442 
L 383.419253 437.551978 
L 389.802188 433.307912 
L 396.017856 428.79497 
L 402.050661 424.017167 
L 407.883702 418.978389 
L 413.500669 413.684519 
L 418.884804 408.142233 
L 424.020208 402.360142 
L 428.888062 396.345659 
L 433.477657 390.113498 
L 437.768888 383.672184 
L 441.746348 377.034948 
L 445.395589 370.216503 
L 448.704736 363.233697 
L 451.658708 356.102342 
L 454.244058 348.840041 
L 456.448633 341.4658 
L 458.260123 333.999361 
L 459.667675 326.461835 
L 460.661104 318.875323 
L 461.230151 311.262753 
L 461.365613 303.648243 
L 461.268173 299.848111 
L 461.059446 296.057064 
L 460.737972 292.278342 
L 460.30238 288.515298 
L 459.752491 284.77151 
L 459.091542 281.050879 
L 458.309065 277.356135 
L 457.411257 273.691638 
L 456.398914 270.061153 
L 455.267398 266.468331 
L 454.017724 262.917188 
L 452.645485 259.411809 
L 451.151944 255.95645 
L 449.538493 252.555331 
L 447.806655 249.21264 
L 445.952555 245.933008 
L 443.972484 242.72141 
L 441.873919 239.581807 
L 439.64796 236.520041 
L 437.302382 233.54006 
L 434.834131 230.647299 
L 432.245804 227.84645 
L 429.534727 225.143288 
L 426.70926 222.541398 
L 423.761689 220.047933 
L 420.706061 217.664974 
L 417.540387 215.398348 
L 414.278833 213.249302 
L 410.924935 211.221673 
L 407.492837 209.315592 
L 404.012178 207.524675 
L 396.948796 204.282358 
L 383.834846 198.530464 
L 381.060922 197.066922 
L 378.619277 195.498145 
L 376.599029 193.752428 
L 374.988834 191.807072 
L 373.776554 189.639799 
L 372.949271 187.228781 
L 372.446804 184.582849 
L 372.164394 181.745555 
L 372.046425 178.735489 
L 371.999413 165.599842 
L 371.896528 162.163115 
L 371.66796 158.737118 
L 370.821687 151.948651 
L 370.214845 148.587029 
L 369.475542 145.264145 
L 368.605864 141.984473 
L 367.604249 138.756463 
L 366.476964 135.580505 
L 365.222849 132.465009 
L 363.851849 129.405808 
L 362.362974 126.41107 
L 360.762473 123.48038 
L 359.056404 120.61299 
L 357.244103 117.816799 
L 355.334858 115.08622 
L 353.328117 112.428921 
L 351.232801 109.838748 
L 346.783576 104.875417 
L 342.016486 100.20293 
L 336.957432 95.830476 
L 331.636647 91.755198 
L 326.075962 87.986993 
L 320.301257 84.523927 
L 314.333328 81.372561 
L 308.194464 78.532802 
L 301.905998 76.003029 
L 295.484474 73.796401 
L 288.951804 71.903477 
L 282.325347 70.32979 
L 275.623399 69.074425 
L 268.863212 68.140953 
L 262.062493 67.526483 
L 255.238089 67.238251 
L 255.238089 67.238251 
" clip-path="url(#p1e3fe46f32)" style="fill: none; stroke-dasharray: 5.55,2.4; stroke-dashoffset: 0; stroke: #0000ff; stroke-width: 1.5"/>
   </g>
   <g id="patch_3">
    <path d="M 251.8225 41.157188 
C 222.701244 41.157188 193.863155 46.89344 166.958622 58.037662 
C 140.054089 69.181885 115.606338 85.51735 95.0145 106.109188 
C 74.422662 126.701026 58.087197 151.148777 46.942975 178.05331 
C 35.798753 204.957842 30.0625 233.795931 30.0625 262.917188 
C 30.0625 292.038444 35.798753 320.876533 46.942975 347.781065 
C 58.087197 374.685598 74.422662 399.133349 95.0145 419.725187 
C 115.606338 440.317025 140.054089 456.65249 166.958622 467.796713 
C 193.863155 478.940935 222.701244 484.677188 251.8225 484.677188 
C 280.943756 484.677188 309.781845 478.940935 336.686378 467.796713 
C 363.590911 456.65249 388.038662 440.317025 408.6305 419.725187 
C 429.222338 399.133349 445.557803 374.685598 456.702025 347.781065 
C 467.846247 320.876533 473.5825 292.038444 473.5825 262.917188 
C 473.5825 233.795931 467.846247 204.957842 456.702025 178.05331 
C 445.557803 151.148777 429.222338 126.701026 408.6305 106.109188 
C 388.038662 85.51735 363.590911 69.181885 336.686378 58.037662 
C 309.781845 46.89344 280.943756 41.157188 251.8225 41.157188 
" style="fill: none; stroke: #000000; stroke-width: 0.8; stroke-linejoin: miter; stroke-linecap: square"/>
   </g>
   <g id="text_17">
    <g id="patch_4">
     <path d="M 384.8785 509.853188 
L 466.473813 509.853188 
Q 469.473813 509.853188 469.473813 506.853188 
L 469.473813 485.421 
Q 469.473813 482.421 466.473813 482.421 
L 384.8785 482.421 
Q 381.8785 482.421 381.8785 485.421 
L 381.8785 506.853188 
Q 381.8785 509.853188 384.8785 509.853188 
z
" style="fill: #ffffff; stroke: #808080; stroke-linejoin: miter"/>
    </g>
    <!-- G_simul: 1.1 dBi -->
    <g transform="translate(384.8785 493.019438) scale(0.1 -0.1)">
     <defs>
      <path id="DejaVuSans-47" d="M 3809 666 
L 3809 1919 
L 2778 1919 
L 2778 2438 
L 4434 2438 
L 4434 434 
Q 4069 175 3628 42 
Q 3188 -91 2688 -91 
Q 1594 -91 976 548 
Q 359 1188 359 2328 
Q 359 3472 976 4111 
Q 1594 4750 2688 4750 
Q 3144 4750 3555 4637 
Q 3966 4525 4313 4306 
L 4313 3634 
Q 3963 3931 3569 4081 
Q 3175 4231 2741 4231 
Q 1884 4231 1454 3753 
Q 1025 3275 1025 2328 
Q 1025 1384 1454 906 
Q 1884 428 2741 428 
Q 3075 428 3337 486 
Q 3600 544 3809 666 
z
" transform="scale(0.015625)"/>
      <path id="DejaVuSans-5f" d="M 3263 -1063 
L 3263 -1509 
L -63 -1509 
L -63 -1063 
L 3263 -1063 
z
" transform="scale(0.015625)"/>
      <path id="DejaVuSans-73" d="M 2834 3397 
L 2834 2853 
Q 2591 2978 2328 3040 
Q 2066 3103 1784 3103 
Q 1356 3103 1142 2972 
Q 928 2841 928 2578 
Q 928 2378 1081 2264 
Q 1234 2150 1697 2047 
L 1894 2003 
Q 2506 1872 2764 1633 
Q 3022 1394 3022 966 
Q 3022 478 2636 193 
Q 2250 -91 1575 -91 
Q 1294 -91 989 -36 
Q 684 19 347 128 
L 347 722 
Q 666 556 975 473 
Q 1284 391 1588 391 
Q 1994 391 2212 530 
Q 2431 669 2431 922 
Q 2431 1156 2273 1281 
Q 2116 1406 1581 1522 
L 1381 1569 
Q 847 1681 609 1914 
Q 372 2147 372 2553 
Q 372 3047 722 3315 
Q 1072 3584 1716 3584 
Q 2034 3584 2315 3537 
Q 2597 3491 2834 3397 
z
" transform="scale(0.015625)"/>
      <path id="DejaVuSans-69" d="M 603 3500 
L 1178 3500 
L 1178 0 
L 603 0 
L 603 3500 
z
M 603 4863 
L 1178 4863 
L 1178 4134 
L 603 4134 
L 603 4863 
z
" transform="scale(0.015625)"/>
      <path id="DejaVuSans-6d" d="M 3328 2828 
Q 3544 3216 3844 3400 
Q 4144 3584 4550 3584 
Q 5097 3584 5394 3201 
Q 5691 2819 5691 2113 
L 5691 0 
L 5113 0 
L 5113 2094 
Q 5113 2597 4934 2840 
Q 4756 3084 4391 3084 
Q 3944 3084 3684 2787 
Q 3425 2491 3425 1978 
L 3425 0 
L 2847 0 
L 2847 2094 
Q 2847 2600 2669 2842 
Q 2491 3084 2119 3084 
Q 1678 3084 1418 2786 
Q 1159 2488 1159 1978 
L 1159 0 
L 581 0 
L 581 3500 
L 1159 3500 
L 1159 2956 
Q 1356 3278 1631 3431 
Q 1906 3584 2284 3584 
Q 2666 3584 2933 3390 
Q 3200 3197 3328 2828 
z
" transform="scale(0.015625)"/>
      <path id="DejaVuSans-75" d="M 544 1381 
L 544 3500 
L 1119 3500 
L 1119 1403 
Q 1119 906 1312 657 
Q 1506 409 1894 409 
Q 2359 409 2629 706 
Q 2900 1003 2900 1516 
L 2900 3500 
L 3475 3500 
L 3475 0 
L 2900 0 
L 2900 538 
Q 2691 219 2414 64 
Q 2138 -91 1772 -91 
Q 1169 -91 856 284 
Q 544 659 544 1381 
z
M 1991 3584 
L 1991 3584 
z
" transform="scale(0.015625)"/>
      <path id="DejaVuSans-6c" d="M 603 4863 
L 1178 4863 
L 1178 0 
L 603 0 
L 603 4863 
z
" transform="scale(0.015625)"/>
      <path id="DejaVuSans-3a" d="M 750 794 
L 1409 794 
L 1409 0 
L 750 0 
L 750 794 
z
M 750 3309 
L 1409 3309 
L 1409 2516 
L 750 2516 
L 750 3309 
z
" transform="scale(0.015625)"/>
      <path id="DejaVuSans-20" transform="scale(0.015625)"/>
      <path id="DejaVuSans-2e" d="M 684 794 
L 1344 794 
L 1344 0 
L 684 0 
L 684 794 
z
" transform="scale(0.015625)"/>
      <path id="DejaVuSans-64" d="M 2906 2969 
L 2906 4863 
L 3481 4863 
L 3481 0 
L 2906 0 
L 2906 525 
Q 2725 213 2448 61 
Q 2172 -91 1784 -91 
Q 1150 -91 751 415 
Q 353 922 353 1747 
Q 353 2572 751 3078 
Q 1150 3584 1784 3584 
Q 2172 3584 2448 3432 
Q 2725 3281 2906 2969 
z
M 947 1747 
Q 947 1113 1208 752 
Q 1469 391 1925 391 
Q 2381 391 2643 752 
Q 2906 1113 2906 1747 
Q 2906 2381 2643 2742 
Q 2381 3103 1925 3103 
Q 1469 3103 1208 2742 
Q 947 2381 947 1747 
z
" transform="scale(0.015625)"/>
      <path id="DejaVuSans-42" d="M 1259 2228 
L 1259 519 
L 2272 519 
Q 2781 519 3026 730 
Q 3272 941 3272 1375 
Q 3272 1813 3026 2020 
Q 2781 2228 2272 2228 
L 1259 2228 
z
M 1259 4147 
L 1259 2741 
L 2194 2741 
Q 2656 2741 2882 2914 
Q 3109 3088 3109 3444 
Q 3109 3797 2882 3972 
Q 2656 4147 2194 4147 
L 1259 4147 
z
M 628 4666 
L 2241 4666 
Q 2963 4666 3353 4366 
Q 3744 4066 3744 3513 
Q 3744 3084 3544 2831 
Q 3344 2578 2956 2516 
Q 3422 2416 3680 2098 
Q 3938 1781 3938 1306 
Q 3938 681 3513 340 
Q 3088 0 2303 0 
L 628 0 
L 628 4666 
z
" transform="scale(0.015625)"/>
     </defs>
     <use xlink:href="#DejaVuSans-47"/>
     <use xlink:href="#DejaVuSans-5f" x="77.490234"/>
     <use xlink:href="#DejaVuSans-73" x="127.490234"/>
     <use xlink:href="#DejaVuSans-69" x="179.589844"/>
     <use xlink:href="#DejaVuSans-6d" x="207.373047"/>
     <use xlink:href="#DejaVuSans-75" x="304.785156"/>
     <use xlink:href="#DejaVuSans-6c" x="368.164062"/>
     <use xlink:href="#DejaVuSans-3a" x="395.947266"/>
     <use xlink:href="#DejaVuSans-20" x="429.638672"/>
     <use xlink:href="#DejaVuSans-31" x="461.425781"/>
     <use xlink:href="#DejaVuSans-2e" x="525.048828"/>
     <use xlink:href="#DejaVuSans-31" x="556.835938"/>
     <use xlink:href="#DejaVuSans-20" x="620.458984"/>
     <use xlink:href="#DejaVuSans-64" x="652.246094"/>
     <use xlink:href="#DejaVuSans-42" x="715.722656"/>
     <use xlink:href="#DejaVuSans-69" x="784.326172"/>
    </g>
    <!-- G_meas: 1.4 dBi -->
    <g transform="translate(384.8785 504.495375) scale(0.1 -0.1)">
     <defs>
      <path id="DejaVuSans-65" d="M 3597 1894 
L 3597 1613 
L 953 1613 
Q 991 1019 1311 708 
Q 1631 397 2203 397 
Q 2534 397 2845 478 
Q 3156 559 3463 722 
L 3463 178 
Q 3153 47 2828 -22 
Q 2503 -91 2169 -91 
Q 1331 -91 842 396 
Q 353 884 353 1716 
Q 353 2575 817 3079 
Q 1281 3584 2069 3584 
Q 2775 3584 3186 3129 
Q 3597 2675 3597 1894 
z
M 3022 2063 
Q 3016 2534 2758 2815 
Q 2500 3097 2075 3097 
Q 1594 3097 1305 2825 
Q 1016 2553 972 2059 
L 3022 2063 
z
" transform="scale(0.015625)"/>
      <path id="DejaVuSans-61" d="M 2194 1759 
Q 1497 1759 1228 1600 
Q 959 1441 959 1056 
Q 959 750 1161 570 
Q 1363 391 1709 391 
Q 2188 391 2477 730 
Q 2766 1069 2766 1631 
L 2766 1759 
L 2194 1759 
z
M 3341 1997 
L 3341 0 
L 2766 0 
L 2766 531 
Q 2569 213 2275 61 
Q 1981 -91 1556 -91 
Q 1019 -91 701 211 
Q 384 513 384 1019 
Q 384 1609 779 1909 
Q 1175 2209 1959 2209 
L 2766 2209 
L 2766 2266 
Q 2766 2663 2505 2880 
Q 2244 3097 1772 3097 
Q 1472 3097 1187 3025 
Q 903 2953 641 2809 
L 641 3341 
Q 956 3463 1253 3523 
Q 1550 3584 1831 3584 
Q 2591 3584 2966 3190 
Q 3341 2797 3341 1997 
z
" transform="scale(0.015625)"/>
     </defs>
     <use xlink:href="#DejaVuSans-47"/>
     <use xlink:href="#DejaVuSans-5f" x="77.490234"/>
     <use xlink:href="#DejaVuSans-6d" x="127.490234"/>
     <use xlink:href="#DejaVuSans-65" x="224.902344"/>
     <use xlink:href="#DejaVuSans-61" x="286.425781"/>
     <use xlink:href="#DejaVuSans-73" x="347.705078"/>
     <use xlink:href="#DejaVuSans-3a" x="399.804688"/>
     <use xlink:href="#DejaVuSans-20" x="433.496094"/>
     <use xlink:href="#DejaVuSans-31" x="465.283203"/>
     <use xlink:href="#DejaVuSans-2e" x="528.90625"/>
     <use xlink:href="#DejaVuSans-34" x="560.693359"/>
     <use xlink:href="#DejaVuSans-20" x="624.316406"/>
     <use xlink:href="#DejaVuSans-64" x="656.103516"/>
     <use xlink:href="#DejaVuSans-42" x="719.580078"/>
     <use xlink:href="#DejaVuSans-69" x="788.183594"/>
    </g>
   </g>
   <g id="text_18">
    <g id="patch_5">
     <path d="M 52.2385 56.370938 
L 121.861 56.370938 
Q 125.461 56.370938 125.461 52.770938 
L 125.461 41.157188 
Q 125.461 37.557188 121.861 37.557188 
L 52.2385 37.557188 
Q 48.6385 37.557188 48.6385 41.157188 
L 48.6385 52.770938 
Q 48.6385 56.370938 52.2385 56.370938 
z
" style="fill: #ffffff; stroke: #808080; stroke-linejoin: miter"/>
    </g>
    <!-- Freq: 5 GHz -->
    <g transform="translate(52.2385 50.275313) scale(0.12 -0.12)">
     <defs>
      <path id="DejaVuSans-46" d="M 628 4666 
L 3309 4666 
L 3309 4134 
L 1259 4134 
L 1259 2759 
L 3109 2759 
L 3109 2228 
L 1259 2228 
L 1259 0 
L 628 0 
L 628 4666 
z
" transform="scale(0.015625)"/>
      <path id="DejaVuSans-72" d="M 2631 2963 
Q 2534 3019 2420 3045 
Q 2306 3072 2169 3072 
Q 1681 3072 1420 2755 
Q 1159 2438 1159 1844 
L 1159 0 
L 581 0 
L 581 3500 
L 1159 3500 
L 1159 2956 
Q 1341 3275 1631 3429 
Q 1922 3584 2338 3584 
Q 2397 3584 2469 3576 
Q 2541 3569 2628 3553 
L 2631 2963 
z
" transform="scale(0.015625)"/>
      <path id="DejaVuSans-71" d="M 947 1747 
Q 947 1113 1208 752 
Q 1469 391 1925 391 
Q 2381 391 2643 752 
Q 2906 1113 2906 1747 
Q 2906 2381 2643 2742 
Q 2381 3103 1925 3103 
Q 1469 3103 1208 2742 
Q 947 2381 947 1747 
z
M 2906 525 
Q 2725 213 2448 61 
Q 2172 -91 1784 -91 
Q 1150 -91 751 415 
Q 353 922 353 1747 
Q 353 2572 751 3078 
Q 1150 3584 1784 3584 
Q 2172 3584 2448 3432 
Q 2725 3281 2906 2969 
L 2906 3500 
L 3481 3500 
L 3481 -1331 
L 2906 -1331 
L 2906 525 
z
" transform="scale(0.015625)"/>
      <path id="DejaVuSans-48" d="M 628 4666 
L 1259 4666 
L 1259 2753 
L 3553 2753 
L 3553 4666 
L 4184 4666 
L 4184 0 
L 3553 0 
L 3553 2222 
L 1259 2222 
L 1259 0 
L 628 0 
L 628 4666 
z
" transform="scale(0.015625)"/>
      <path id="DejaVuSans-7a" d="M 353 3500 
L 3084 3500 
L 3084 2975 
L 922 459 
L 3084 459 
L 3084 0 
L 275 0 
L 275 525 
L 2438 3041 
L 353 3041 
L 353 3500 
z
" transform="scale(0.015625)"/>
     </defs>
     <use xlink:href="#DejaVuSans-46"/>
     <use xlink:href="#DejaVuSans-72" x="50.269531"/>
     <use xlink:href="#DejaVuSans-65" x="89.132812"/>
     <use xlink:href="#DejaVuSans-71" x="150.65625"/>
     <use xlink:href="#DejaVuSans-3a" x="214.132812"/>
     <use xlink:href="#DejaVuSans-20" x="247.824219"/>
     <use xlink:href="#DejaVuSans-35" x="279.611328"/>
     <use xlink:href="#DejaVuSans-20" x="343.234375"/>
     <use xlink:href="#DejaVuSans-47" x="375.021484"/>
     <use xlink:href="#DejaVuSans-48" x="452.511719"/>
     <use xlink:href="#DejaVuSans-7a" x="527.707031"/>
    </g>
   </g>
   <g id="text_19">
    <!-- Radiation Diagram -->
    <g transform="translate(195.798437 16.318125) scale(0.12 -0.12)">
     <defs>
      <path id="DejaVuSans-52" d="M 2841 2188 
Q 3044 2119 3236 1894 
Q 3428 1669 3622 1275 
L 4263 0 
L 3584 0 
L 2988 1197 
Q 2756 1666 2539 1819 
Q 2322 1972 1947 1972 
L 1259 1972 
L 1259 0 
L 628 0 
L 628 4666 
L 2053 4666 
Q 2853 4666 3247 4331 
Q 3641 3997 3641 3322 
Q 3641 2881 3436 2590 
Q 3231 2300 2841 2188 
z
M 1259 4147 
L 1259 2491 
L 2053 2491 
Q 2509 2491 2742 2702 
Q 2975 2913 2975 3322 
Q 2975 3731 2742 3939 
Q 2509 4147 2053 4147 
L 1259 4147 
z
" transform="scale(0.015625)"/>
      <path id="DejaVuSans-74" d="M 1172 4494 
L 1172 3500 
L 2356 3500 
L 2356 3053 
L 1172 3053 
L 1172 1153 
Q 1172 725 1289 603 
Q 1406 481 1766 481 
L 2356 481 
L 2356 0 
L 1766 0 
Q 1100 0 847 248 
Q 594 497 594 1153 
L 594 3053 
L 172 3053 
L 172 3500 
L 594 3500 
L 594 4494 
L 1172 4494 
z
" transform="scale(0.015625)"/>
      <path id="DejaVuSans-6f" d="M 1959 3097 
Q 1497 3097 1228 2736 
Q 959 2375 959 1747 
Q 959 1119 1226 758 
Q 1494 397 1959 397 
Q 2419 397 2687 759 
Q 2956 1122 2956 1747 
Q 2956 2369 2687 2733 
Q 2419 3097 1959 3097 
z
M 1959 3584 
Q 2709 3584 3137 3096 
Q 3566 2609 3566 1747 
Q 3566 888 3137 398 
Q 2709 -91 1959 -91 
Q 1206 -91 779 398 
Q 353 888 353 1747 
Q 353 2609 779 3096 
Q 1206 3584 1959 3584 
z
" transform="scale(0.015625)"/>
      <path id="DejaVuSans-6e" d="M 3513 2113 
L 3513 0 
L 2938 0 
L 2938 2094 
Q 2938 2591 2744 2837 
Q 2550 3084 2163 3084 
Q 1697 3084 1428 2787 
Q 1159 2491 1159 1978 
L 1159 0 
L 581 0 
L 581 3500 
L 1159 3500 
L 1159 2956 
Q 1366 3272 1645 3428 
Q 1925 3584 2291 3584 
Q 2894 3584 3203 3211 
Q 3513 2838 3513 2113 
z
" transform="scale(0.015625)"/>
      <path id="DejaVuSans-44" d="M 1259 4147 
L 1259 519 
L 2022 519 
Q 2988 519 3436 956 
Q 3884 1394 3884 2338 
Q 3884 3275 3436 3711 
Q 2988 4147 2022 4147 
L 1259 4147 
z
M 628 4666 
L 1925 4666 
Q 3281 4666 3915 4102 
Q 4550 3538 4550 2338 
Q 4550 1131 3912 565 
Q 3275 0 1925 0 
L 628 0 
L 628 4666 
z
" transform="scale(0.015625)"/>
      <path id="DejaVuSans-67" d="M 2906 1791 
Q 2906 2416 2648 2759 
Q 2391 3103 1925 3103 
Q 1463 3103 1205 2759 
Q 947 2416 947 1791 
Q 947 1169 1205 825 
Q 1463 481 1925 481 
Q 2391 481 2648 825 
Q 2906 1169 2906 1791 
z
M 3481 434 
Q 3481 -459 3084 -895 
Q 2688 -1331 1869 -1331 
Q 1566 -1331 1297 -1286 
Q 1028 -1241 775 -1147 
L 775 -588 
Q 1028 -725 1275 -790 
Q 1522 -856 1778 -856 
Q 2344 -856 2625 -561 
Q 2906 -266 2906 331 
L 2906 616 
Q 2728 306 2450 153 
Q 2172 0 1784 0 
Q 1141 0 747 490 
Q 353 981 353 1791 
Q 353 2603 747 3093 
Q 1141 3584 1784 3584 
Q 2172 3584 2450 3431 
Q 2728 3278 2906 2969 
L 2906 3500 
L 3481 3500 
L 3481 434 
z
" transform="scale(0.015625)"/>
     </defs>
     <use xlink:href="#DejaVuSans-52"/>
     <use xlink:href="#DejaVuSans-61" x="67.232422"/>
     <use xlink:href="#DejaVuSans-64" x="128.511719"/>
     <use xlink:href="#DejaVuSans-69" x="191.988281"/>
     <use xlink:href="#DejaVuSans-61" x="219.771484"/>
     <use xlink:href="#DejaVuSans-74" x="281.050781"/>
     <use xlink:href="#DejaVuSans-69" x="320.259766"/>
     <use xlink:href="#DejaVuSans-6f" x="348.042969"/>
     <use xlink:href="#DejaVuSans-6e" x="409.224609"/>
     <use xlink:href="#DejaVuSans-20" x="472.603516"/>
     <use xlink:href="#DejaVuSans-44" x="504.390625"/>
     <use xlink:href="#DejaVuSans-69" x="581.392578"/>
     <use xlink:href="#DejaVuSans-61" x="609.175781"/>
     <use xlink:href="#DejaVuSans-67" x="670.455078"/>
     <use xlink:href="#DejaVuSans-72" x="733.931641"/>
     <use xlink:href="#DejaVuSans-61" x="775.044922"/>
     <use xlink:href="#DejaVuSans-6d" x="836.324219"/>
    </g>
   </g>
   <g id="legend_1">
    <g id="patch_6">
     <path d="M 406.599687 78.513438 
L 466.5825 78.513438 
Q 468.5825 78.513438 468.5825 76.513438 
L 468.5825 48.157188 
Q 468.5825 46.157188 466.5825 46.157188 
L 406.599687 46.157188 
Q 404.599687 46.157188 404.599687 48.157188 
L 404.599687 76.513438 
Q 404.599687 78.513438 406.599687 78.513438 
z
" style="fill: #ffffff; opacity: 0.8; stroke: #cccccc; stroke-linejoin: miter"/>
    </g>
    <g id="line2d_19">
     <path d="M 408.599687 54.255625 
L 418.599687 54.255625 
L 428.599687 54.255625 
" style="fill: none; stroke: #ff0000; stroke-width: 1.5; stroke-linecap: square"/>
    </g>
    <g id="text_20">
     <!-- Meas -->
     <g transform="translate(436.599687 57.755625) scale(0.1 -0.1)">
      <defs>
       <path id="DejaVuSans-4d" d="M 628 4666 
L 1569 4666 
L 2759 1491 
L 3956 4666 
L 4897 4666 
L 4897 0 
L 4281 0 
L 4281 4097 
L 3078 897 
L 2444 897 
L 1241 4097 
L 1241 0 
L 628 0 
L 628 4666 
z
" transform="scale(0.015625)"/>
      </defs>
      <use xlink:href="#DejaVuSans-4d"/>
      <use xlink:href="#DejaVuSans-65" x="86.279297"/>
      <use xlink:href="#DejaVuSans-61" x="147.802734"/>
      <use xlink:href="#DejaVuSans-73" x="209.082031"/>
     </g>
    </g>
    <g id="line2d_20">
     <path d="M 408.599687 68.93375 
L 418.599687 68.93375 
L 428.599687 68.93375 
" style="fill: none; stroke-dasharray: 5.55,2.4; stroke-dashoffset: 0; stroke: #0000ff; stroke-width: 1.5"/>
    </g>
    <g id="text_21">
     <!-- Simul -->
     <g transform="translate(436.599687 72.43375) scale(0.1 -0.1)">
      <defs>
       <path id="DejaVuSans-53" d="M 3425 4513 
L 3425 3897 
Q 3066 4069 2747 4153 
Q 2428 4238 2131 4238 
Q 1616 4238 1336 4038 
Q 1056 3838 1056 3469 
Q 1056 3159 1242 3001 
Q 1428 2844 1947 2747 
L 2328 2669 
Q 3034 2534 3370 2195 
Q 3706 1856 3706 1288 
Q 3706 609 3251 259 
Q 2797 -91 1919 -91 
Q 1588 -91 1214 -16 
Q 841 59 441 206 
L 441 856 
Q 825 641 1194 531 
Q 1563 422 1919 422 
Q 2459 422 2753 634 
Q 3047 847 3047 1241 
Q 3047 1584 2836 1778 
Q 2625 1972 2144 2069 
L 1759 2144 
Q 1053 2284 737 2584 
Q 422 2884 422 3419 
Q 422 4038 858 4394 
Q 1294 4750 2059 4750 
Q 2388 4750 2728 4690 
Q 3069 4631 3425 4513 
z
" transform="scale(0.015625)"/>
      </defs>
      <use xlink:href="#DejaVuSans-53"/>
      <use xlink:href="#DejaVuSans-69" x="63.476562"/>
      <use xlink:href="#DejaVuSans-6d" x="91.259766"/>
      <use xlink:href="#DejaVuSans-75" x="188.671875"/>
      <use xlink:href="#DejaVuSans-6c" x="252.050781"/>
     </g>
    </g>
   </g>
  </g>
 </g>
 <defs>
  <clipPath id="p1e3fe46f32">
   <path d="M 473.5825 262.917188 
C 473.5825 233.795931 467.846247 204.957842 456.702025 178.05331 
C 445.557803 151.148777 429.222338 126.701026 408.6305 106.109188 
C 388.038662 85.51735 363.590911 69.181885 336.686378 58.037662 
C 309.781845 46.89344 280.943756 41.157188 251.8225 41.157188 
C 222.701244 41.157188 193.863155 46.89344 166.958622 58.037662 
C 140.054089 69.181885 115.606338 85.51735 95.0145 106.109188 
C 74.422662 126.701026 58.087197 151.148777 46.942975 178.05331 
C 35.798753 204.957842 30.0625 233.795931 30.0625 262.917188 
C 30.0625 292.038444 35.798753 320.876533 46.942975 347.781065 
C 58.087197 374.685598 74.422662 399.133349 95.0145 419.725187 
C 115.606338 440.317025 140.054089 456.65249 166.958622 467.796713 
C 193.863155 478.940935 222.701244 484.677188 251.8225 484.677188 
C 280.943756 484.677188 309.781845 478.940935 336.686378 467.796713 
C 363.590911 456.65249 388.038662 440.317025 408.6305 419.725187 
C 429.222338 399.133349 445.557803 374.685598 456.702025 347.781065 
C 467.846247 320.876533 473.5825 292.038444 473.5825 262.917188 
M 251.8225 262.917188 
C 251.8225 262.917188 251.8225 262.917188 251.8225 262.917188 
C 251.8225 262.917188 251.8225 262.917188 251.8225 262.917188 
C 251.8225 262.917188 251.8225 262.917188 251.8225 262.917188 
C 251.8225 262.917188 251.8225 262.917188 251.8225 262.917188 
C 251.8225 262.917188 251.8225 262.917188 251.8225 262.917188 
C 251.8225 262.917188 251.8225 262.917188 251.8225 262.917188 
C 251.8225 262.917188 251.8225 262.917188 251.8225 262.917188 
C 251.8225 262.917188 251.8225 262.917188 251.8225 262.917188 
C 251.8225 262.917188 251.8225 262.917188 251.8225 262.917188 
C 251.8225 262.917188 251.8225 262.917188 251.8225 262.917188 
C 251.8225 262.917188 251.8225 262.917188 251.8225 262.917188 
C 251.8225 262.917188 251.8225 262.917188 251.8225 262.917188 
C 251.8225 262.917188 251.8225 262.917188 251.8225 262.917188 
C 251.8225 262.917188 251.8225 262.917188 251.8225 262.917188 
C 251.8225 262.917188 251.8225 262.917188 251.8225 262.917188 
C 251.8225 262.917188 251.8225 262.917188 251.8225 262.917188 
z
"/>
  </clipPath>
 </defs>
</svg>
