<?xml version="1.0" encoding="utf-8" standalone="no"?>
<!DOCTYPE svg PUBLIC "-//W3C//DTD SVG 1.1//EN"
  "http://www.w3.org/Graphics/SVG/1.1/DTD/svg11.dtd">
<svg xmlns:xlink="http://www.w3.org/1999/xlink" width="506.82625pt" height="514.053187pt" viewBox="0 0 506.82625 514.053187" xmlns="http://www.w3.org/2000/svg" version="1.1">
 <metadata>
  <rdf:RDF xmlns:dc="http://purl.org/dc/elements/1.1/" xmlns:cc="http://creativecommons.org/ns#" xmlns:rdf="http://www.w3.org/1999/02/22-rdf-syntax-ns#">
   <cc:Work>
    <dc:type rdf:resource="http://purl.org/dc/dcmitype/StillImage"/>
    <dc:date>2024-01-27T17:13:49.188811</dc:date>
    <dc:format>image/svg+xml</dc:format>
    <dc:creator>
     <cc:Agent>
      <dc:title>Matplotlib v3.5.1, https://matplotlib.org/</dc:title>
     </cc:Agent>
    </dc:creator>
   </cc:Work>
  </rdf:RDF>
 </metadata>
 <defs>
  <style type="text/css">*{stroke-linejoin: round; stroke-linecap: butt}</style>
 </defs>
 <g id="figure_1">
  <g id="patch_1">
   <path d="M 0 514.053187 
L 506.82625 514.053187 
L 506.82625 0 
L 0 0 
z
" style="fill: #ffffff"/>
  </g>
  <g id="axes_1">
   <g id="patch_2">
    <path d="M 473.5825 262.917187 
C 473.5825 233.795931 467.846247 204.957842 456.702025 178.05331 
C 445.557803 151.148777 429.222338 126.701026 408.6305 106.109188 
C 388.038662 85.51735 363.590911 69.181885 336.686378 58.037662 
C 309.781845 46.89344 280.943756 41.157187 251.8225 41.157187 
C 222.701244 41.157187 193.863155 46.89344 166.958622 58.037662 
C 140.054089 69.181885 115.606338 85.51735 95.0145 106.109188 
C 74.422662 126.701026 58.087197 151.148777 46.942975 178.05331 
C 35.798753 204.957842 30.0625 233.795931 30.0625 262.917187 
C 30.0625 292.038444 35.798753 320.876533 46.942975 347.781065 
C 58.087197 374.685598 74.422662 399.133349 95.0145 419.725187 
C 115.606338 440.317025 140.054089 456.65249 166.958622 467.796713 
C 193.863155 478.940935 222.701244 484.677187 251.8225 484.677187 
C 280.943756 484.677187 309.781845 478.940935 336.686378 467.796713 
C 363.590911 456.65249 388.038662 440.317025 408.6305 419.725187 
C 429.222338 399.133349 445.557803 374.685598 456.702025 347.781065 
C 467.846247 320.876533 473.5825 292.038444 473.5825 262.917188 
M 251.8225 262.917187 
C 251.8225 262.917187 251.8225 262.917187 251.8225 262.917187 
C 251.8225 262.917187 251.8225 262.917187 251.8225 262.917187 
C 251.8225 262.917187 251.8225 262.917187 251.8225 262.917187 
C 251.8225 262.917187 251.8225 262.917187 251.8225 262.917187 
C 251.8225 262.917187 251.8225 262.917187 251.8225 262.917187 
C 251.8225 262.917187 251.8225 262.917187 251.8225 262.917187 
C 251.8225 262.917187 251.8225 262.917187 251.8225 262.917187 
C 251.8225 262.917187 251.8225 262.917187 251.8225 262.917187 
C 251.8225 262.917187 251.8225 262.917187 251.8225 262.917187 
C 251.8225 262.917187 251.8225 262.917187 251.8225 262.917187 
C 251.8225 262.917187 251.8225 262.917187 251.8225 262.917187 
C 251.8225 262.917187 251.8225 262.917187 251.8225 262.917187 
C 251.8225 262.917187 251.8225 262.917187 251.8225 262.917187 
C 251.8225 262.917187 251.8225 262.917187 251.8225 262.917187 
C 251.8225 262.917187 251.8225 262.917187 251.8225 262.917187 
C 251.8225 262.917187 251.8225 262.917187 251.8225 262.917187 
M 473.5825 262.917187 
z
" style="fill: #ffffff"/>
   </g>
   <g id="matplotlib.axis_1">
    <g id="xtick_1">
     <g id="line2d_1">
      <path d="M 251.8225 262.917187 
L 251.8225 41.157187 
" clip-path="url(#pd1924e8ab4)" style="fill: none; stroke: #b0b0b0; stroke-width: 0.8; stroke-linecap: square"/>
     </g>
     <g id="text_1">
      <!-- 0° -->
      <g transform="translate(246.14125 29.916562)scale(0.1 -0.1)">
       <defs>
        <path id="DejaVuSans-30" d="M 2034 4250 
Q 1547 4250 1301 3770 
Q 1056 3291 1056 2328 
Q 1056 1369 1301 889 
Q 1547 409 2034 409 
Q 2525 409 2770 889 
Q 3016 1369 3016 2328 
Q 3016 3291 2770 3770 
Q 2525 4250 2034 4250 
z
M 2034 4750 
Q 2819 4750 3233 4129 
Q 3647 3509 3647 2328 
Q 3647 1150 3233 529 
Q 2819 -91 2034 -91 
Q 1250 -91 836 529 
Q 422 1150 422 2328 
Q 422 3509 836 4129 
Q 1250 4750 2034 4750 
z
" transform="scale(0.015625)"/>
        <path id="DejaVuSans-b0" d="M 1600 4347 
Q 1350 4347 1178 4173 
Q 1006 4000 1006 3750 
Q 1006 3503 1178 3333 
Q 1350 3163 1600 3163 
Q 1850 3163 2022 3333 
Q 2194 3503 2194 3750 
Q 2194 3997 2020 4172 
Q 1847 4347 1600 4347 
z
M 1600 4750 
Q 1800 4750 1984 4673 
Q 2169 4597 2303 4453 
Q 2447 4313 2519 4134 
Q 2591 3956 2591 3750 
Q 2591 3338 2302 3052 
Q 2013 2766 1594 2766 
Q 1172 2766 890 3047 
Q 609 3328 609 3750 
Q 609 4169 896 4459 
Q 1184 4750 1600 4750 
z
" transform="scale(0.015625)"/>
       </defs>
       <use xlink:href="#DejaVuSans-30"/>
       <use xlink:href="#DejaVuSans-b0" x="63.623047"/>
      </g>
     </g>
    </g>
    <g id="xtick_2">
     <g id="line2d_2">
      <path d="M 251.8225 262.917187 
L 95.0145 106.109188 
" clip-path="url(#pd1924e8ab4)" style="fill: none; stroke: #b0b0b0; stroke-width: 0.8; stroke-linecap: square"/>
     </g>
     <g id="text_2">
      <!-- 45° -->
      <g transform="translate(76.252505 98.969068)scale(0.1 -0.1)">
       <defs>
        <path id="DejaVuSans-34" d="M 2419 4116 
L 825 1625 
L 2419 1625 
L 2419 4116 
z
M 2253 4666 
L 3047 4666 
L 3047 1625 
L 3713 1625 
L 3713 1100 
L 3047 1100 
L 3047 0 
L 2419 0 
L 2419 1100 
L 313 1100 
L 313 1709 
L 2253 4666 
z
" transform="scale(0.015625)"/>
        <path id="DejaVuSans-35" d="M 691 4666 
L 3169 4666 
L 3169 4134 
L 1269 4134 
L 1269 2991 
Q 1406 3038 1543 3061 
Q 1681 3084 1819 3084 
Q 2600 3084 3056 2656 
Q 3513 2228 3513 1497 
Q 3513 744 3044 326 
Q 2575 -91 1722 -91 
Q 1428 -91 1123 -41 
Q 819 9 494 109 
L 494 744 
Q 775 591 1075 516 
Q 1375 441 1709 441 
Q 2250 441 2565 725 
Q 2881 1009 2881 1497 
Q 2881 1984 2565 2268 
Q 2250 2553 1709 2553 
Q 1456 2553 1204 2497 
Q 953 2441 691 2322 
L 691 4666 
z
" transform="scale(0.015625)"/>
       </defs>
       <use xlink:href="#DejaVuSans-34"/>
       <use xlink:href="#DejaVuSans-35" x="63.623047"/>
       <use xlink:href="#DejaVuSans-b0" x="127.246094"/>
      </g>
     </g>
    </g>
    <g id="xtick_3">
     <g id="line2d_3">
      <path d="M 251.8225 262.917187 
L 30.0625 262.917187 
" clip-path="url(#pd1924e8ab4)" style="fill: none; stroke: #b0b0b0; stroke-width: 0.8; stroke-linecap: square"/>
     </g>
     <g id="text_3">
      <!-- 90° -->
      <g transform="translate(7.2 265.676562)scale(0.1 -0.1)">
       <defs>
        <path id="DejaVuSans-39" d="M 703 97 
L 703 672 
Q 941 559 1184 500 
Q 1428 441 1663 441 
Q 2288 441 2617 861 
Q 2947 1281 2994 2138 
Q 2813 1869 2534 1725 
Q 2256 1581 1919 1581 
Q 1219 1581 811 2004 
Q 403 2428 403 3163 
Q 403 3881 828 4315 
Q 1253 4750 1959 4750 
Q 2769 4750 3195 4129 
Q 3622 3509 3622 2328 
Q 3622 1225 3098 567 
Q 2575 -91 1691 -91 
Q 1453 -91 1209 -44 
Q 966 3 703 97 
z
M 1959 2075 
Q 2384 2075 2632 2365 
Q 2881 2656 2881 3163 
Q 2881 3666 2632 3958 
Q 2384 4250 1959 4250 
Q 1534 4250 1286 3958 
Q 1038 3666 1038 3163 
Q 1038 2656 1286 2365 
Q 1534 2075 1959 2075 
z
" transform="scale(0.015625)"/>
       </defs>
       <use xlink:href="#DejaVuSans-39"/>
       <use xlink:href="#DejaVuSans-30" x="63.623047"/>
       <use xlink:href="#DejaVuSans-b0" x="127.246094"/>
      </g>
     </g>
    </g>
    <g id="xtick_4">
     <g id="line2d_4">
      <path d="M 251.8225 262.917187 
L 95.0145 419.725187 
" clip-path="url(#pd1924e8ab4)" style="fill: none; stroke: #b0b0b0; stroke-width: 0.8; stroke-linecap: square"/>
     </g>
     <g id="text_4">
      <!-- 135° -->
      <g transform="translate(73.071255 432.384057)scale(0.1 -0.1)">
       <defs>
        <path id="DejaVuSans-31" d="M 794 531 
L 1825 531 
L 1825 4091 
L 703 3866 
L 703 4441 
L 1819 4666 
L 2450 4666 
L 2450 531 
L 3481 531 
L 3481 0 
L 794 0 
L 794 531 
z
" transform="scale(0.015625)"/>
        <path id="DejaVuSans-33" d="M 2597 2516 
Q 3050 2419 3304 2112 
Q 3559 1806 3559 1356 
Q 3559 666 3084 287 
Q 2609 -91 1734 -91 
Q 1441 -91 1130 -33 
Q 819 25 488 141 
L 488 750 
Q 750 597 1062 519 
Q 1375 441 1716 441 
Q 2309 441 2620 675 
Q 2931 909 2931 1356 
Q 2931 1769 2642 2001 
Q 2353 2234 1838 2234 
L 1294 2234 
L 1294 2753 
L 1863 2753 
Q 2328 2753 2575 2939 
Q 2822 3125 2822 3475 
Q 2822 3834 2567 4026 
Q 2313 4219 1838 4219 
Q 1578 4219 1281 4162 
Q 984 4106 628 3988 
L 628 4550 
Q 988 4650 1302 4700 
Q 1616 4750 1894 4750 
Q 2613 4750 3031 4423 
Q 3450 4097 3450 3541 
Q 3450 3153 3228 2886 
Q 3006 2619 2597 2516 
z
" transform="scale(0.015625)"/>
       </defs>
       <use xlink:href="#DejaVuSans-31"/>
       <use xlink:href="#DejaVuSans-33" x="63.623047"/>
       <use xlink:href="#DejaVuSans-35" x="127.246094"/>
       <use xlink:href="#DejaVuSans-b0" x="190.869141"/>
      </g>
     </g>
    </g>
    <g id="xtick_5">
     <g id="line2d_5">
      <path d="M 251.8225 262.917187 
L 251.8225 484.677187 
" clip-path="url(#pd1924e8ab4)" style="fill: none; stroke: #b0b0b0; stroke-width: 0.8; stroke-linecap: square"/>
     </g>
     <g id="text_5">
      <!-- 180° -->
      <g transform="translate(239.77875 501.436562)scale(0.1 -0.1)">
       <defs>
        <path id="DejaVuSans-38" d="M 2034 2216 
Q 1584 2216 1326 1975 
Q 1069 1734 1069 1313 
Q 1069 891 1326 650 
Q 1584 409 2034 409 
Q 2484 409 2743 651 
Q 3003 894 3003 1313 
Q 3003 1734 2745 1975 
Q 2488 2216 2034 2216 
z
M 1403 2484 
Q 997 2584 770 2862 
Q 544 3141 544 3541 
Q 544 4100 942 4425 
Q 1341 4750 2034 4750 
Q 2731 4750 3128 4425 
Q 3525 4100 3525 3541 
Q 3525 3141 3298 2862 
Q 3072 2584 2669 2484 
Q 3125 2378 3379 2068 
Q 3634 1759 3634 1313 
Q 3634 634 3220 271 
Q 2806 -91 2034 -91 
Q 1263 -91 848 271 
Q 434 634 434 1313 
Q 434 1759 690 2068 
Q 947 2378 1403 2484 
z
M 1172 3481 
Q 1172 3119 1398 2916 
Q 1625 2713 2034 2713 
Q 2441 2713 2670 2916 
Q 2900 3119 2900 3481 
Q 2900 3844 2670 4047 
Q 2441 4250 2034 4250 
Q 1625 4250 1398 4047 
Q 1172 3844 1172 3481 
z
" transform="scale(0.015625)"/>
       </defs>
       <use xlink:href="#DejaVuSans-31"/>
       <use xlink:href="#DejaVuSans-38" x="63.623047"/>
       <use xlink:href="#DejaVuSans-30" x="127.246094"/>
       <use xlink:href="#DejaVuSans-b0" x="190.869141"/>
      </g>
     </g>
    </g>
    <g id="xtick_6">
     <g id="line2d_6">
      <path d="M 251.8225 262.917187 
L 408.6305 419.725187 
" clip-path="url(#pd1924e8ab4)" style="fill: none; stroke: #b0b0b0; stroke-width: 0.8; stroke-linecap: square"/>
     </g>
     <g id="text_6">
      <!-- 225° -->
      <g transform="translate(406.486245 432.384057)scale(0.1 -0.1)">
       <defs>
        <path id="DejaVuSans-32" d="M 1228 531 
L 3431 531 
L 3431 0 
L 469 0 
L 469 531 
Q 828 903 1448 1529 
Q 2069 2156 2228 2338 
Q 2531 2678 2651 2914 
Q 2772 3150 2772 3378 
Q 2772 3750 2511 3984 
Q 2250 4219 1831 4219 
Q 1534 4219 1204 4116 
Q 875 4013 500 3803 
L 500 4441 
Q 881 4594 1212 4672 
Q 1544 4750 1819 4750 
Q 2544 4750 2975 4387 
Q 3406 4025 3406 3419 
Q 3406 3131 3298 2873 
Q 3191 2616 2906 2266 
Q 2828 2175 2409 1742 
Q 1991 1309 1228 531 
z
" transform="scale(0.015625)"/>
       </defs>
       <use xlink:href="#DejaVuSans-32"/>
       <use xlink:href="#DejaVuSans-32" x="63.623047"/>
       <use xlink:href="#DejaVuSans-35" x="127.246094"/>
       <use xlink:href="#DejaVuSans-b0" x="190.869141"/>
      </g>
     </g>
    </g>
    <g id="xtick_7">
     <g id="line2d_7">
      <path d="M 251.8225 262.917187 
L 473.5825 262.917188 
" clip-path="url(#pd1924e8ab4)" style="fill: none; stroke: #b0b0b0; stroke-width: 0.8; stroke-linecap: square"/>
     </g>
     <g id="text_7">
      <!-- 270° -->
      <g transform="translate(475.53875 265.676563)scale(0.1 -0.1)">
       <defs>
        <path id="DejaVuSans-37" d="M 525 4666 
L 3525 4666 
L 3525 4397 
L 1831 0 
L 1172 0 
L 2766 4134 
L 525 4134 
L 525 4666 
z
" transform="scale(0.015625)"/>
       </defs>
       <use xlink:href="#DejaVuSans-32"/>
       <use xlink:href="#DejaVuSans-37" x="63.623047"/>
       <use xlink:href="#DejaVuSans-30" x="127.246094"/>
       <use xlink:href="#DejaVuSans-b0" x="190.869141"/>
      </g>
     </g>
    </g>
    <g id="xtick_8">
     <g id="line2d_8">
      <path d="M 251.8225 262.917187 
L 408.6305 106.109188 
" clip-path="url(#pd1924e8ab4)" style="fill: none; stroke: #b0b0b0; stroke-width: 0.8; stroke-linecap: square"/>
     </g>
     <g id="text_8">
      <!-- 315° -->
      <g transform="translate(406.486245 98.969068)scale(0.1 -0.1)">
       <use xlink:href="#DejaVuSans-33"/>
       <use xlink:href="#DejaVuSans-31" x="63.623047"/>
       <use xlink:href="#DejaVuSans-35" x="127.246094"/>
       <use xlink:href="#DejaVuSans-b0" x="190.869141"/>
      </g>
     </g>
    </g>
   </g>
   <g id="matplotlib.axis_2">
    <g id="ytick_1">
     <g id="line2d_9">
      <path d="M 251.8225 249.687993 
C 250.085258 249.687993 248.364909 250.030192 246.759907 250.695006 
C 245.154904 251.359819 243.696463 252.334319 242.468047 253.562734 
C 241.239631 254.79115 240.265132 256.249592 239.600318 257.854594 
C 238.935504 259.459596 238.593306 261.179946 238.593306 262.917187 
C 238.593306 264.654429 238.935504 266.374779 239.600318 267.979781 
C 240.265132 269.584783 241.239631 271.043225 242.468047 272.271641 
C 243.696463 273.500056 245.154904 274.474556 246.759907 275.139369 
C 248.364909 275.804183 250.085258 276.146382 251.8225 276.146382 
C 253.559742 276.146382 255.280091 275.804183 256.885093 275.139369 
C 258.490096 274.474556 259.948537 273.500056 261.176953 272.271641 
C 262.405369 271.043225 263.379868 269.584783 264.044682 267.979781 
C 264.709496 266.374779 265.051694 264.654429 265.051694 262.917187 
C 265.051694 261.179946 264.709496 259.459596 264.044682 257.854594 
C 263.379868 256.249592 262.405369 254.79115 261.176953 253.562734 
C 259.948537 252.334319 258.490096 251.359819 256.885093 250.695006 
C 255.280091 250.030192 253.559742 249.687993 251.8225 249.687993 
" clip-path="url(#pd1924e8ab4)" style="fill: none; stroke: #b0b0b0; stroke-width: 0.8; stroke-linecap: square"/>
     </g>
     <g id="text_9">
      <!-- −30 -->
      <g transform="translate(246.759907 248.615318)scale(0.1 -0.1)">
       <defs>
        <path id="DejaVuSans-2212" d="M 678 2272 
L 4684 2272 
L 4684 1741 
L 678 1741 
L 678 2272 
z
" transform="scale(0.015625)"/>
       </defs>
       <use xlink:href="#DejaVuSans-2212"/>
       <use xlink:href="#DejaVuSans-33" x="83.789062"/>
       <use xlink:href="#DejaVuSans-30" x="147.412109"/>
      </g>
     </g>
    </g>
    <g id="ytick_2">
     <g id="line2d_10">
      <path d="M 251.8225 214.932859 
C 245.521256 214.932859 239.281283 216.174067 233.459692 218.585448 
C 227.638102 220.99683 222.348108 224.531491 217.892456 228.987143 
C 213.436803 233.442796 209.902143 238.732789 207.490761 244.55438 
C 205.079379 250.375971 203.838171 256.615943 203.838171 262.917187 
C 203.838171 269.218432 205.079379 275.458404 207.490761 281.279995 
C 209.902143 287.101586 213.436803 292.391579 217.892456 296.847232 
C 222.348108 301.302884 227.638102 304.837545 233.459692 307.248927 
C 239.281283 309.660308 245.521256 310.901516 251.8225 310.901516 
C 258.123744 310.901516 264.363717 309.660308 270.185308 307.248927 
C 276.006898 304.837545 281.296892 301.302884 285.752544 296.847232 
C 290.208197 292.391579 293.742857 287.101586 296.154239 281.279995 
C 298.565621 275.458404 299.806829 269.218432 299.806829 262.917187 
C 299.806829 256.615943 298.565621 250.375971 296.154239 244.55438 
C 293.742857 238.732789 290.208197 233.442796 285.752544 228.987143 
C 281.296892 224.531491 276.006898 220.99683 270.185308 218.585448 
C 264.363717 216.174067 258.123744 214.932859 251.8225 214.932859 
" clip-path="url(#pd1924e8ab4)" style="fill: none; stroke: #b0b0b0; stroke-width: 0.8; stroke-linecap: square"/>
     </g>
     <g id="text_10">
      <!-- −25 -->
      <g transform="translate(233.459692 216.505761)scale(0.1 -0.1)">
       <use xlink:href="#DejaVuSans-2212"/>
       <use xlink:href="#DejaVuSans-32" x="83.789062"/>
       <use xlink:href="#DejaVuSans-35" x="147.412109"/>
      </g>
     </g>
    </g>
    <g id="ytick_3">
     <g id="line2d_11">
      <path d="M 251.8225 180.177725 
C 240.957253 180.177725 230.197657 182.317941 220.159478 186.475891 
C 210.121299 190.633841 200.999754 196.728663 193.316865 204.411552 
C 185.633975 212.094442 179.539154 221.215987 175.381204 231.254166 
C 171.223254 241.292345 169.083037 252.051941 169.083037 262.917187 
C 169.083037 273.782434 171.223254 284.54203 175.381204 294.580209 
C 179.539154 304.618388 185.633975 313.739933 193.316865 321.422823 
C 200.999754 329.105712 210.121299 335.200534 220.159478 339.358484 
C 230.197657 343.516434 240.957253 345.65665 251.8225 345.65665 
C 262.687747 345.65665 273.447343 343.516434 283.485522 339.358484 
C 293.523701 335.200534 302.645246 329.105712 310.328135 321.422823 
C 318.011025 313.739933 324.105846 304.618388 328.263796 294.580209 
C 332.421746 284.54203 334.561963 273.782434 334.561963 262.917187 
C 334.561963 252.051941 332.421746 241.292345 328.263796 231.254166 
C 324.105846 221.215987 318.011025 212.094442 310.328135 204.411552 
C 302.645246 196.728663 293.523701 190.633841 283.485522 186.475891 
C 273.447343 182.317941 262.687747 180.177725 251.8225 180.177725 
" clip-path="url(#pd1924e8ab4)" style="fill: none; stroke: #b0b0b0; stroke-width: 0.8; stroke-linecap: square"/>
     </g>
     <g id="text_11">
      <!-- −20 -->
      <g transform="translate(220.159478 184.396204)scale(0.1 -0.1)">
       <use xlink:href="#DejaVuSans-2212"/>
       <use xlink:href="#DejaVuSans-32" x="83.789062"/>
       <use xlink:href="#DejaVuSans-30" x="147.412109"/>
      </g>
     </g>
    </g>
    <g id="ytick_4">
     <g id="line2d_12">
      <path d="M 251.8225 145.42259 
C 236.393251 145.42259 221.114032 148.461816 206.859264 154.366334 
C 192.604497 160.270852 179.6514 168.925834 168.741274 179.835961 
C 157.831147 190.746088 149.176165 203.699184 143.271647 217.953952 
C 137.367128 232.208719 134.327903 247.487938 134.327903 262.917187 
C 134.327903 278.346437 137.367128 293.625656 143.271647 307.880423 
C 149.176165 322.135191 157.831147 335.088287 168.741274 345.998414 
C 179.6514 356.908541 192.604497 365.563523 206.859264 371.468041 
C 221.114032 377.372559 236.393251 380.411785 251.8225 380.411785 
C 267.251749 380.411785 282.530968 377.372559 296.785736 371.468041 
C 311.040503 365.563523 323.9936 356.908541 334.903726 345.998414 
C 345.813853 335.088287 354.468835 322.135191 360.373353 307.880423 
C 366.277872 293.625656 369.317097 278.346437 369.317097 262.917188 
C 369.317097 247.487938 366.277872 232.208719 360.373353 217.953952 
C 354.468835 203.699184 345.813853 190.746088 334.903726 179.835961 
C 323.9936 168.925834 311.040503 160.270852 296.785736 154.366334 
C 282.530968 148.461816 267.251749 145.42259 251.8225 145.42259 
" clip-path="url(#pd1924e8ab4)" style="fill: none; stroke: #b0b0b0; stroke-width: 0.8; stroke-linecap: square"/>
     </g>
     <g id="text_12">
      <!-- −15 -->
      <g transform="translate(206.859264 152.286647)scale(0.1 -0.1)">
       <use xlink:href="#DejaVuSans-2212"/>
       <use xlink:href="#DejaVuSans-31" x="83.789062"/>
       <use xlink:href="#DejaVuSans-35" x="147.412109"/>
      </g>
     </g>
    </g>
    <g id="ytick_5">
     <g id="line2d_13">
      <path d="M 251.8225 110.667456 
C 231.829248 110.667456 212.030406 114.605691 193.55905 122.256777 
C 175.087694 129.907863 158.303046 141.123006 144.165682 155.26037 
C 130.028319 169.397734 118.813175 186.182382 111.162089 204.653738 
C 103.511003 223.125094 99.572769 242.923936 99.572769 262.917187 
C 99.572769 282.910439 103.511003 302.709281 111.162089 321.180637 
C 118.813175 339.651993 130.028319 356.436641 144.165682 370.574005 
C 158.303046 384.711369 175.087694 395.926512 193.55905 403.577598 
C 212.030406 411.228684 231.829248 415.166919 251.8225 415.166919 
C 271.815752 415.166919 291.614594 411.228684 310.08595 403.577598 
C 328.557306 395.926512 345.341954 384.711369 359.479318 370.574005 
C 373.616681 356.436641 384.831825 339.651993 392.482911 321.180637 
C 400.133997 302.709281 404.072231 282.910439 404.072231 262.917188 
C 404.072231 242.923936 400.133997 223.125094 392.482911 204.653738 
C 384.831825 186.182382 373.616681 169.397734 359.479318 155.26037 
C 345.341954 141.123006 328.557306 129.907863 310.08595 122.256777 
C 291.614594 114.605691 271.815752 110.667456 251.8225 110.667456 
" clip-path="url(#pd1924e8ab4)" style="fill: none; stroke: #b0b0b0; stroke-width: 0.8; stroke-linecap: square"/>
     </g>
     <g id="text_13">
      <!-- −10 -->
      <g transform="translate(193.55905 120.177089)scale(0.1 -0.1)">
       <use xlink:href="#DejaVuSans-2212"/>
       <use xlink:href="#DejaVuSans-31" x="83.789062"/>
       <use xlink:href="#DejaVuSans-30" x="147.412109"/>
      </g>
     </g>
    </g>
    <g id="ytick_6">
     <g id="line2d_14">
      <path d="M 251.8225 75.912322 
C 227.265246 75.912322 202.94678 80.749565 180.258836 90.14722 
C 157.570892 99.544874 136.954692 113.320178 119.590091 130.684779 
C 102.225491 148.04938 88.450186 168.665579 79.052532 191.353524 
C 69.654878 214.041468 64.817634 238.359934 64.817634 262.917187 
C 64.817634 287.474441 69.654878 311.792907 79.052532 334.480851 
C 88.450186 357.168796 102.225491 377.784995 119.590091 395.149596 
C 136.954692 412.514197 157.570892 426.289501 180.258836 435.687155 
C 202.94678 445.08481 227.265246 449.922053 251.8225 449.922053 
C 276.379754 449.922053 300.69822 445.08481 323.386164 435.687155 
C 346.074108 426.289501 366.690308 412.514197 384.054909 395.149596 
C 401.419509 377.784995 415.194814 357.168796 424.592468 334.480851 
C 433.990122 311.792907 438.827366 287.474441 438.827366 262.917188 
C 438.827366 238.359934 433.990122 214.041468 424.592468 191.353524 
C 415.194814 168.665579 401.419509 148.04938 384.054909 130.684779 
C 366.690308 113.320178 346.074108 99.544874 323.386164 90.14722 
C 300.69822 80.749565 276.379754 75.912322 251.8225 75.912322 
" clip-path="url(#pd1924e8ab4)" style="fill: none; stroke: #b0b0b0; stroke-width: 0.8; stroke-linecap: square"/>
     </g>
     <g id="text_14">
      <!-- −5 -->
      <g transform="translate(180.258836 88.067532)scale(0.1 -0.1)">
       <use xlink:href="#DejaVuSans-2212"/>
       <use xlink:href="#DejaVuSans-35" x="83.789062"/>
      </g>
     </g>
    </g>
    <g id="ytick_7">
     <g id="line2d_15">
      <path d="M 251.8225 41.157187 
C 222.701244 41.157187 193.863155 46.89344 166.958622 58.037662 
C 140.054089 69.181885 115.606338 85.51735 95.0145 106.109188 
C 74.422662 126.701026 58.087197 151.148777 46.942975 178.05331 
C 35.798753 204.957842 30.0625 233.795931 30.0625 262.917187 
C 30.0625 292.038444 35.798753 320.876533 46.942975 347.781065 
C 58.087197 374.685598 74.422662 399.133349 95.0145 419.725187 
C 115.606338 440.317025 140.054089 456.65249 166.958622 467.796713 
C 193.863155 478.940935 222.701244 484.677187 251.8225 484.677187 
C 280.943756 484.677187 309.781845 478.940935 336.686378 467.796713 
C 363.590911 456.65249 388.038662 440.317025 408.6305 419.725187 
C 429.222338 399.133349 445.557803 374.685598 456.702025 347.781065 
C 467.846247 320.876533 473.5825 292.038444 473.5825 262.917188 
C 473.5825 233.795931 467.846247 204.957842 456.702025 178.05331 
C 445.557803 151.148777 429.222338 126.701026 408.6305 106.109188 
C 388.038662 85.51735 363.590911 69.181885 336.686378 58.037662 
C 309.781845 46.89344 280.943756 41.157187 251.8225 41.157187 
" clip-path="url(#pd1924e8ab4)" style="fill: none; stroke: #b0b0b0; stroke-width: 0.8; stroke-linecap: square"/>
     </g>
     <g id="text_15">
      <!-- 0 -->
      <g transform="translate(166.958622 55.957975)scale(0.1 -0.1)">
       <use xlink:href="#DejaVuSans-30"/>
      </g>
     </g>
    </g>
   </g>
   <g id="line2d_16">
    <path d="M 251.8225 476.134375 
L 255.573981 477.839394 
L 259.362891 478.845727 
L 263.165502 479.354568 
L 266.976524 479.62983 
L 270.76849 479.470841 
L 274.515923 478.830688 
L 278.17987 477.580741 
L 281.791653 476.158791 
L 285.318376 474.401826 
L 288.686741 471.984686 
L 295.449034 468.163892 
L 298.671055 465.840575 
L 301.97336 464.0613 
L 305.326849 462.598135 
L 308.767209 461.50699 
L 312.256923 460.589278 
L 315.978958 460.370463 
L 320.030767 461.008378 
L 323.995818 461.211748 
L 328.297473 462.141304 
L 332.437176 462.445512 
L 340.5757 462.260138 
L 344.426026 461.50609 
L 348.100217 460.31576 
L 351.707352 458.952248 
L 355.05142 457.06255 
L 358.201587 454.83014 
L 361.016876 452.047395 
L 363.656615 449.04041 
L 366.136449 445.857748 
L 367.97919 441.782805 
L 370.181358 438.391411 
L 372.005774 434.556691 
L 373.454936 430.329873 
L 375.115745 426.53285 
L 376.497431 422.493822 
L 377.749888 418.424561 
L 379.560016 415.148831 
L 382.15781 407.669214 
L 383.535971 404.162592 
L 384.662777 400.477322 
L 387.697583 394.13023 
L 389.219575 391.042032 
L 391.944384 384.723283 
L 392.797526 381.20928 
L 394.616124 374.479793 
L 394.404147 370.360165 
L 394.649249 366.686895 
L 394.155253 362.579654 
L 392.48448 357.794891 
L 391.740415 353.780944 
L 389.986121 349.2514 
L 386.68143 343.948608 
L 383.193054 338.764012 
L 376.82442 332.206883 
L 366.255409 323.762245 
L 356.566693 316.28702 
L 337.546267 304.727462 
L 314.720661 292.247082 
L 311.501813 289.488129 
L 337.351914 299.22227 
L 362.514601 307.639699 
L 378.54768 311.562427 
L 395.236636 315.115664 
L 407.5682 316.544733 
L 416.301009 316.359495 
L 425.610842 316.049616 
L 432.986283 314.865066 
L 445.082232 311.10225 
L 449.855873 308.636794 
L 457.976739 302.989512 
L 460.869462 299.777807 
L 463.465044 296.438073 
L 465.800626 292.989852 
L 467.652021 289.417721 
L 469.263762 285.771185 
L 471.88431 278.305408 
L 472.202653 274.466822 
L 473.044496 270.64243 
L 473.423625 266.78525 
L 473.5825 262.917188 
L 473.458375 259.048519 
L 472.940294 255.195584 
L 470.962075 247.593456 
L 469.691823 243.856092 
L 467.570089 240.241202 
L 465.892722 236.632669 
L 463.439626 233.17634 
L 460.368727 229.88671 
L 457.563122 226.639565 
L 453.759929 223.664528 
L 445.277411 218.254602 
L 434.570295 213.950063 
L 428.97723 212.118886 
L 421.276802 211.109808 
L 413.676513 210.327631 
L 405.366471 210.047758 
L 383.940324 212.201906 
L 371.95635 214.379962 
L 355.395554 218.953034 
L 344.382522 221.706811 
L 340.335525 221.642886 
L 348.698129 215.667786 
L 370.557721 199.78455 
L 379.967524 191.885241 
L 392.270215 178.527686 
L 396.971465 172.218048 
L 399.901885 166.75331 
L 403.3932 160.68146 
L 405.275534 155.468217 
L 407.322108 145.739828 
L 407.477256 141.306364 
L 407.119197 137.160402 
L 406.886935 132.802678 
L 405.772858 129.090183 
L 403.296227 121.665652 
L 401.573 118.30481 
L 399.586682 115.153005 
L 397.733768 111.821647 
L 392.897304 106.237745 
L 390.291873 103.626395 
L 384.805832 98.696449 
L 381.889575 96.438923 
L 376.143334 91.80424 
L 370.255211 87.333473 
L 367.278817 85.13005 
L 361.164904 80.940867 
L 357.934096 79.126513 
L 354.565438 77.564021 
L 351.073446 76.253307 
L 343.428967 75.096096 
L 339.437929 75.025294 
L 335.170022 75.715588 
L 331.241089 75.818716 
L 327.049706 76.723319 
L 322.632882 78.449836 
L 318.520686 79.665429 
L 310.207321 83.227184 
L 306.399882 84.402615 
L 302.630381 85.729049 
L 299.071524 86.581431 
L 295.796823 86.545813 
L 292.718275 85.778126 
L 289.704365 84.697026 
L 286.755341 83.203302 
L 283.85378 81.258771 
L 280.803574 79.937889 
L 277.697633 78.806048 
L 274.522866 78.037544 
L 271.312431 77.482877 
L 261.502988 78.202465 
L 258.250385 78.846638 
L 255.010122 80.298434 
L 251.8225 82.376777 
L 248.732049 85.865358 
L 242.969631 93.994379 
L 240.426774 99.950712 
L 235.906616 111.48767 
L 234.341223 120.543608 
L 233.063531 129.44019 
L 232.081983 138.280468 
L 232.509728 153.389016 
L 233.25245 167.382563 
L 235.157613 184.515057 
L 241.20663 216.934802 
L 249.089371 252.717011 
L 240.713365 224.175031 
L 234.064 204.83175 
L 228.078239 189.839868 
L 222.796386 178.619232 
L 218.880892 172.410863 
L 215.1292 167.327873 
L 211.591717 163.342504 
L 208.678574 161.276467 
L 206.266659 160.597094 
L 204.64356 161.741625 
L 203.089147 162.999006 
L 202.747576 166.602226 
L 202.682934 170.499105 
L 203.3185 175.413655 
L 205.768105 186.269802 
L 208.603044 196.365061 
L 208.38489 198.518282 
L 206.833013 198.665541 
L 201.935151 194.253142 
L 197.581872 190.937443 
L 191.202818 185.327532 
L 184.114307 179.304532 
L 172.691541 171.887432 
L 166.775387 168.462799 
L 156.302387 164.003215 
L 151.52853 162.623217 
L 146.883346 161.578625 
L 142.25846 160.747067 
L 138.033197 160.460839 
L 130.368175 161.004908 
L 127.073901 161.897764 
L 123.86738 162.947692 
L 120.254706 163.773743 
L 116.930508 164.912419 
L 103.696659 170.357889 
L 100.459375 171.969047 
L 97.317986 173.713965 
L 94.258751 175.578175 
L 91.432796 177.636469 
L 89.15134 180.032092 
L 86.373855 182.222492 
L 80.003536 189.984364 
L 77.964132 192.673847 
L 74.305687 198.306351 
L 72.39014 201.133671 
L 70.935938 204.143581 
L 68.84759 206.976143 
L 65.596762 213.018151 
L 63.735839 216.021916 
L 62.316173 219.166205 
L 58.502921 225.339668 
L 55.434982 231.81246 
L 54.226819 235.146926 
L 53.372101 238.550542 
L 50.982671 252.391618 
L 50.586426 255.889869 
L 50.459682 259.402386 
L 50.839119 262.917187 
L 51.585577 266.412336 
L 52.739932 269.869304 
L 55.572371 276.640333 
L 57.18513 279.945751 
L 59.406112 283.140965 
L 61.188912 286.324049 
L 63.595099 289.370824 
L 66.460891 292.275582 
L 68.760772 295.195909 
L 71.965325 297.877881 
L 78.462701 302.940451 
L 82.519416 305.129187 
L 86.591991 307.190569 
L 90.216216 309.257044 
L 95.09113 310.834776 
L 99.468234 312.420089 
L 103.825571 313.876617 
L 109.264033 314.804226 
L 113.520332 316.006416 
L 116.955655 317.40693 
L 121.158392 318.380811 
L 123.949689 319.849831 
L 129.769279 322.446521 
L 132.263669 323.835454 
L 135.892067 324.558492 
L 139.538905 325.157001 
L 142.749159 325.89071 
L 146.301712 326.320474 
L 150.23025 326.399071 
L 153.236602 326.939618 
L 156.518436 327.20059 
L 158.241328 328.443429 
L 158.454424 330.753066 
L 158.397941 333.317642 
L 158.172862 336.084304 
L 156.860322 339.816043 
L 154.425601 344.64289 
L 153.096853 348.738083 
L 151.949377 352.843352 
L 148.826547 358.962467 
L 148.068382 363.111375 
L 146.441382 368.298305 
L 145.491176 373.026497 
L 145.395331 377.046354 
L 145.435934 381.071439 
L 145.21127 385.559378 
L 146.16154 388.839016 
L 146.813602 392.592376 
L 147.77894 396.086872 
L 148.976895 399.397915 
L 150.41842 402.48793 
L 156.124276 410.279529 
L 158.261294 412.646416 
L 160.609436 414.721219 
L 162.866039 416.994298 
L 165.27205 419.058332 
L 172.898186 424.736011 
L 175.422946 426.75656 
L 182.638947 434.15249 
L 185.05007 436.865314 
L 187.741822 438.977403 
L 190.373913 441.376843 
L 193.173476 443.420322 
L 196.048103 445.347019 
L 198.893648 447.50203 
L 201.93066 449.116069 
L 205.063439 450.45754 
L 208.145008 452.105189 
L 211.316152 453.48457 
L 214.556665 454.633288 
L 217.711502 456.370271 
L 220.865657 458.371005 
L 224.104477 460.141166 
L 227.268642 462.892313 
L 230.616386 464.679882 
L 233.996675 466.6673 
L 237.414705 468.958258 
L 240.945875 470.455564 
L 248.125003 474.746658 
L 248.125003 474.746658 
" clip-path="url(#pd1924e8ab4)" style="fill: none; stroke: #ff0000; stroke-width: 1.5; stroke-linecap: square"/>
   </g>
   <g id="line2d_17">
    <path d="M 251.8225 128.691469 
L 249.484791 128.989911 
L 247.174478 129.815254 
L 244.914081 131.096701 
L 242.730919 132.901529 
L 240.644965 135.157374 
L 238.693051 137.998827 
L 236.896128 141.35164 
L 235.28951 145.278848 
L 233.913131 149.841883 
L 232.787346 154.963464 
L 231.940721 160.634302 
L 231.401539 166.844117 
L 231.150856 173.378459 
L 231.007038 185.232824 
L 230.516612 188.614726 
L 229.2231 188.997882 
L 226.88396 186.164252 
L 215.552674 168.431061 
L 211.175093 162.311324 
L 206.763806 156.765557 
L 202.373554 151.853036 
L 198.033891 147.567143 
L 193.774071 143.900271 
L 189.591462 140.781898 
L 185.544033 138.26552 
L 181.558896 136.158291 
L 177.696055 134.526418 
L 173.952258 133.319341 
L 170.328385 132.499341 
L 166.83052 132.041016 
L 163.467124 131.924955 
L 160.245558 132.13176 
L 157.168014 132.636465 
L 154.243585 133.425593 
L 151.47641 134.480049 
L 148.87833 135.791725 
L 146.447494 137.336146 
L 144.198887 139.110383 
L 142.133622 141.095346 
L 140.256532 143.277335 
L 138.571808 145.642663 
L 137.087912 148.1826 
L 135.803013 150.878471 
L 134.714309 153.712033 
L 133.823217 156.670156 
L 133.114814 159.726171 
L 132.57264 162.854674 
L 132.178755 166.031593 
L 131.69046 172.391202 
L 131.234933 178.480864 
L 130.840012 181.313469 
L 130.215427 183.944631 
L 129.286008 186.347889 
L 127.97431 188.501687 
L 126.242961 190.413807 
L 124.084803 192.111026 
L 121.512156 193.629949 
L 118.576233 195.024823 
L 111.903354 197.671818 
L 104.669576 200.454477 
L 101.004577 201.982791 
L 97.387827 203.635271 
L 93.848918 205.419506 
L 90.4246 207.343434 
L 87.139056 209.408293 
L 84.010081 211.611782 
L 81.055529 213.950547 
L 78.273127 216.414773 
L 75.687185 219.001721 
L 73.295 221.700866 
L 71.100258 224.503489 
L 69.106355 227.400767 
L 67.316387 230.383782 
L 65.733154 233.443531 
L 64.352271 236.569965 
L 63.175886 239.754296 
L 62.205856 242.987675 
L 61.443744 246.261205 
L 60.883887 249.565459 
L 60.534176 252.892191 
L 60.38835 256.23216 
L 60.439836 259.576591 
L 60.702626 262.917187 
L 61.162633 266.245168 
L 61.826336 269.552 
L 62.692983 272.829045 
L 63.761536 276.067691 
L 65.030675 279.259355 
L 66.498797 282.395494 
L 68.164018 285.467614 
L 70.031059 288.466308 
L 72.090559 291.38393 
L 74.353484 294.209763 
L 76.80988 296.936195 
L 79.463189 299.55329 
L 82.309693 302.052303 
L 85.345383 304.424595 
L 88.586102 306.656249 
L 92.013609 308.74165 
L 95.629561 310.670161 
L 99.441791 312.428681 
L 103.444376 314.007873 
L 107.631076 315.398574 
L 112.008315 316.586825 
L 116.568962 317.563164 
L 121.29276 318.323775 
L 126.216667 318.840507 
L 131.306644 319.114654 
L 136.554109 319.137338 
L 141.950163 318.899939 
L 147.485601 318.394101 
L 153.150917 317.611739 
L 158.876111 316.57981 
L 164.652946 315.29394 
L 170.414063 313.786825 
L 176.036253 312.133352 
L 186.625658 308.568508 
L 195.364294 305.461498 
L 198.689811 304.428994 
L 201.205031 303.906405 
L 202.833316 304.023993 
L 203.715571 304.735903 
L 203.884517 306.080742 
L 203.577557 307.906324 
L 202.820027 310.238325 
L 200.541919 316.019783 
L 197.775267 322.942721 
L 194.988215 330.649651 
L 192.422469 338.94576 
L 191.290291 343.246142 
L 190.290874 347.608205 
L 189.465879 351.971671 
L 188.775152 356.388725 
L 188.296009 360.739405 
L 187.950167 365.134287 
L 187.846407 369.391287 
L 187.907113 373.621885 
L 188.163949 377.760254 
L 188.611543 381.799706 
L 189.244335 385.733752 
L 190.087045 389.493629 
L 191.077581 393.185087 
L 192.24639 396.727322 
L 193.580427 400.126914 
L 195.069968 403.384633 
L 196.708068 406.495191 
L 198.48763 409.453538 
L 200.401412 412.254871 
L 202.442033 414.894637 
L 204.599952 417.375181 
L 206.869801 419.68588 
L 209.238434 421.843085 
L 211.704099 423.823305 
L 214.254153 425.643576 
L 216.884507 427.287521 
L 219.584738 428.766093 
L 222.348923 430.070148 
L 225.169507 431.197561 
L 228.037909 432.153343 
L 230.946824 432.935922 
L 233.888903 433.543963 
L 236.85676 433.976376 
L 239.842979 434.232313 
L 242.840122 434.31117 
L 245.840733 434.212586 
L 248.837348 433.936445 
L 251.8225 433.482875 
L 254.788728 432.852249 
L 257.72858 432.045187 
L 260.634261 431.055606 
L 263.498971 429.898504 
L 266.314487 428.561357 
L 269.074565 427.059617 
L 271.770582 425.381281 
L 274.396878 423.542235 
L 276.945549 421.537875 
L 279.410691 419.377594 
L 281.788278 417.077751 
L 284.070976 414.63434 
L 286.258875 412.077513 
L 288.34731 409.410198 
L 292.232452 403.843437 
L 295.766415 398.162653 
L 299.037965 392.640611 
L 302.234534 387.691351 
L 303.861269 385.512845 
L 305.512302 383.506458 
L 307.285559 381.858101 
L 309.109146 380.372218 
L 311.055623 379.168737 
L 313.108104 378.178645 
L 317.440889 376.571571 
L 324.245622 374.439015 
L 326.491873 373.619085 
L 328.691601 372.697641 
L 330.759255 371.56431 
L 332.727051 370.281153 
L 334.502899 368.743272 
L 336.074761 366.960065 
L 337.475604 364.994582 
L 338.560012 362.697281 
L 339.311464 360.083526 
L 339.761373 357.220083 
L 339.752071 353.970924 
L 339.263436 350.358124 
L 338.226097 346.356171 
L 336.517279 341.896347 
L 334.008542 336.917832 
L 330.513648 331.322359 
L 325.89147 325.068433 
L 319.780268 317.948303 
L 311.966369 309.906728 
L 302.729369 301.278265 
L 294.112336 293.642552 
L 291.965971 291.025949 
L 300.230017 295.56847 
L 313.792544 303.161005 
L 327.68982 310.324351 
L 340.42202 316.15315 
L 351.872212 320.680916 
L 362.105938 324.048295 
L 371.441506 326.519741 
L 379.922043 328.187165 
L 387.757759 329.217243 
L 395.011227 329.687187 
L 401.768186 329.677308 
L 408.074025 329.242025 
L 413.976967 328.431845 
L 419.5149 327.288269 
L 424.708247 325.842453 
L 429.578917 324.12363 
L 434.150221 322.159055 
L 438.433484 319.969891 
L 442.440968 317.576154 
L 446.18582 314.996682 
L 449.661783 312.244061 
L 452.895538 309.338556 
L 455.879357 306.290811 
L 458.62086 303.114717 
L 461.124796 299.822829 
L 463.393644 296.426765 
L 465.429611 292.937709 
L 467.235999 289.366639 
L 468.813037 285.723812 
L 470.162694 282.019479 
L 471.287978 278.263709 
L 472.18877 274.466094 
L 472.863879 270.636123 
L 473.312426 266.783309 
L 473.540794 262.917188 
L 473.548725 259.046942 
L 473.329314 255.181999 
L 472.88292 251.331902 
L 472.217147 247.505692 
L 471.332947 243.712512 
L 470.217749 239.962922 
L 468.880082 236.265868 
L 467.316346 232.631503 
L 465.528798 229.069435 
L 463.515903 225.589929 
L 461.277177 222.203323 
L 458.812406 218.920125 
L 456.122135 215.7509 
L 453.207393 212.706294 
L 450.068628 209.797298 
L 446.71061 207.033921 
L 443.133125 204.42766 
L 439.346325 201.987003 
L 435.35599 199.721539 
L 431.181289 197.635927 
L 426.841368 195.733739 
L 422.35531 194.01746 
L 417.767683 192.477636 
L 413.134827 191.096312 
L 395.751717 186.388665 
L 392.242045 185.081363 
L 389.285057 183.553143 
L 386.943591 181.728245 
L 385.217223 179.562913 
L 384.051144 177.046902 
L 383.344897 174.20421 
L 382.97234 171.085081 
L 382.690826 164.300831 
L 382.340395 157.22588 
L 381.966892 153.713076 
L 381.399911 150.277262 
L 380.628259 146.939961 
L 379.631793 143.733093 
L 378.407304 140.675663 
L 376.952563 137.787125 
L 375.276 135.077345 
L 373.376889 132.566065 
L 371.264829 130.263042 
L 368.949745 128.177706 
L 366.432932 126.329793 
L 363.729863 124.723104 
L 360.851654 123.366234 
L 357.797163 122.28406 
L 354.578951 121.485067 
L 351.209868 120.977316 
L 347.691379 120.785729 
L 344.034001 120.923927 
L 340.245247 121.411212 
L 336.330143 122.272852 
L 332.298709 123.528306 
L 328.151968 125.215182 
L 323.903132 127.353236 
L 319.553924 129.986784 
L 315.111992 133.1545 
L 310.575705 136.920532 
L 305.992933 141.248404 
L 301.308246 146.336077 
L 296.610109 152.063965 
L 291.928505 158.437473 
L 287.317426 165.395679 
L 276.027404 183.746515 
L 274.04805 185.407483 
L 273.105718 183.487138 
L 272.792458 178.811279 
L 272.387981 166.164204 
L 271.850174 159.883737 
L 271.014568 154.073559 
L 269.884102 148.88072 
L 268.481252 144.384008 
L 266.858998 140.454742 
L 265.039138 137.169273 
L 263.060618 134.464916 
L 260.95772 132.27746 
L 258.756384 130.610796 
L 256.482651 129.467915 
L 254.162636 128.850911 
L 254.162636 128.850911 
" clip-path="url(#pd1924e8ab4)" style="fill: none; stroke-dasharray: 5.55,2.4; stroke-dashoffset: 0; stroke: #0000ff; stroke-width: 1.5"/>
   </g>
   <g id="patch_3">
    <path d="M 251.8225 41.157187 
C 222.701244 41.157187 193.863155 46.89344 166.958622 58.037662 
C 140.054089 69.181885 115.606338 85.51735 95.0145 106.109188 
C 74.422662 126.701026 58.087197 151.148777 46.942975 178.05331 
C 35.798753 204.957842 30.0625 233.795931 30.0625 262.917187 
C 30.0625 292.038444 35.798753 320.876533 46.942975 347.781065 
C 58.087197 374.685598 74.422662 399.133349 95.0145 419.725187 
C 115.606338 440.317025 140.054089 456.65249 166.958622 467.796713 
C 193.863155 478.940935 222.701244 484.677187 251.8225 484.677187 
C 280.943756 484.677187 309.781845 478.940935 336.686378 467.796713 
C 363.590911 456.65249 388.038662 440.317025 408.6305 419.725187 
C 429.222338 399.133349 445.557803 374.685598 456.702025 347.781065 
C 467.846247 320.876533 473.5825 292.038444 473.5825 262.917188 
C 473.5825 233.795931 467.846247 204.957842 456.702025 178.05331 
C 445.557803 151.148777 429.222338 126.701026 408.6305 106.109188 
C 388.038662 85.51735 363.590911 69.181885 336.686378 58.037662 
C 309.781845 46.89344 280.943756 41.157187 251.8225 41.157187 
" style="fill: none; stroke: #000000; stroke-width: 0.8; stroke-linejoin: miter; stroke-linecap: square"/>
   </g>
   <g id="text_16">
    <g id="patch_4">
     <path d="M 384.8785 509.853187 
L 485.369125 509.853187 
Q 488.369125 509.853187 488.369125 506.853187 
L 488.369125 473.945062 
Q 488.369125 470.945062 485.369125 470.945062 
L 384.8785 470.945062 
Q 381.8785 470.945062 381.8785 473.945062 
L 381.8785 506.853187 
Q 381.8785 509.853187 384.8785 509.853187 
z
" style="fill: #ffffff; stroke: #808080; stroke-linejoin: miter"/>
    </g>
    <!-- G_cst: 1.5 dBi -->
    <g transform="translate(384.8785 481.821625)scale(0.1 -0.1)">
     <defs>
      <path id="DejaVuSans-47" d="M 3809 666 
L 3809 1919 
L 2778 1919 
L 2778 2438 
L 4434 2438 
L 4434 434 
Q 4069 175 3628 42 
Q 3188 -91 2688 -91 
Q 1594 -91 976 548 
Q 359 1188 359 2328 
Q 359 3472 976 4111 
Q 1594 4750 2688 4750 
Q 3144 4750 3555 4637 
Q 3966 4525 4313 4306 
L 4313 3634 
Q 3963 3931 3569 4081 
Q 3175 4231 2741 4231 
Q 1884 4231 1454 3753 
Q 1025 3275 1025 2328 
Q 1025 1384 1454 906 
Q 1884 428 2741 428 
Q 3075 428 3337 486 
Q 3600 544 3809 666 
z
" transform="scale(0.015625)"/>
      <path id="DejaVuSans-5f" d="M 3263 -1063 
L 3263 -1509 
L -63 -1509 
L -63 -1063 
L 3263 -1063 
z
" transform="scale(0.015625)"/>
      <path id="DejaVuSans-63" d="M 3122 3366 
L 3122 2828 
Q 2878 2963 2633 3030 
Q 2388 3097 2138 3097 
Q 1578 3097 1268 2742 
Q 959 2388 959 1747 
Q 959 1106 1268 751 
Q 1578 397 2138 397 
Q 2388 397 2633 464 
Q 2878 531 3122 666 
L 3122 134 
Q 2881 22 2623 -34 
Q 2366 -91 2075 -91 
Q 1284 -91 818 406 
Q 353 903 353 1747 
Q 353 2603 823 3093 
Q 1294 3584 2113 3584 
Q 2378 3584 2631 3529 
Q 2884 3475 3122 3366 
z
" transform="scale(0.015625)"/>
      <path id="DejaVuSans-73" d="M 2834 3397 
L 2834 2853 
Q 2591 2978 2328 3040 
Q 2066 3103 1784 3103 
Q 1356 3103 1142 2972 
Q 928 2841 928 2578 
Q 928 2378 1081 2264 
Q 1234 2150 1697 2047 
L 1894 2003 
Q 2506 1872 2764 1633 
Q 3022 1394 3022 966 
Q 3022 478 2636 193 
Q 2250 -91 1575 -91 
Q 1294 -91 989 -36 
Q 684 19 347 128 
L 347 722 
Q 666 556 975 473 
Q 1284 391 1588 391 
Q 1994 391 2212 530 
Q 2431 669 2431 922 
Q 2431 1156 2273 1281 
Q 2116 1406 1581 1522 
L 1381 1569 
Q 847 1681 609 1914 
Q 372 2147 372 2553 
Q 372 3047 722 3315 
Q 1072 3584 1716 3584 
Q 2034 3584 2315 3537 
Q 2597 3491 2834 3397 
z
" transform="scale(0.015625)"/>
      <path id="DejaVuSans-74" d="M 1172 4494 
L 1172 3500 
L 2356 3500 
L 2356 3053 
L 1172 3053 
L 1172 1153 
Q 1172 725 1289 603 
Q 1406 481 1766 481 
L 2356 481 
L 2356 0 
L 1766 0 
Q 1100 0 847 248 
Q 594 497 594 1153 
L 594 3053 
L 172 3053 
L 172 3500 
L 594 3500 
L 594 4494 
L 1172 4494 
z
" transform="scale(0.015625)"/>
      <path id="DejaVuSans-3a" d="M 750 794 
L 1409 794 
L 1409 0 
L 750 0 
L 750 794 
z
M 750 3309 
L 1409 3309 
L 1409 2516 
L 750 2516 
L 750 3309 
z
" transform="scale(0.015625)"/>
      <path id="DejaVuSans-20" transform="scale(0.015625)"/>
      <path id="DejaVuSans-2e" d="M 684 794 
L 1344 794 
L 1344 0 
L 684 0 
L 684 794 
z
" transform="scale(0.015625)"/>
      <path id="DejaVuSans-64" d="M 2906 2969 
L 2906 4863 
L 3481 4863 
L 3481 0 
L 2906 0 
L 2906 525 
Q 2725 213 2448 61 
Q 2172 -91 1784 -91 
Q 1150 -91 751 415 
Q 353 922 353 1747 
Q 353 2572 751 3078 
Q 1150 3584 1784 3584 
Q 2172 3584 2448 3432 
Q 2725 3281 2906 2969 
z
M 947 1747 
Q 947 1113 1208 752 
Q 1469 391 1925 391 
Q 2381 391 2643 752 
Q 2906 1113 2906 1747 
Q 2906 2381 2643 2742 
Q 2381 3103 1925 3103 
Q 1469 3103 1208 2742 
Q 947 2381 947 1747 
z
" transform="scale(0.015625)"/>
      <path id="DejaVuSans-42" d="M 1259 2228 
L 1259 519 
L 2272 519 
Q 2781 519 3026 730 
Q 3272 941 3272 1375 
Q 3272 1813 3026 2020 
Q 2781 2228 2272 2228 
L 1259 2228 
z
M 1259 4147 
L 1259 2741 
L 2194 2741 
Q 2656 2741 2882 2914 
Q 3109 3088 3109 3444 
Q 3109 3797 2882 3972 
Q 2656 4147 2194 4147 
L 1259 4147 
z
M 628 4666 
L 2241 4666 
Q 2963 4666 3353 4366 
Q 3744 4066 3744 3513 
Q 3744 3084 3544 2831 
Q 3344 2578 2956 2516 
Q 3422 2416 3680 2098 
Q 3938 1781 3938 1306 
Q 3938 681 3513 340 
Q 3088 0 2303 0 
L 628 0 
L 628 4666 
z
" transform="scale(0.015625)"/>
      <path id="DejaVuSans-69" d="M 603 3500 
L 1178 3500 
L 1178 0 
L 603 0 
L 603 3500 
z
M 603 4863 
L 1178 4863 
L 1178 4134 
L 603 4134 
L 603 4863 
z
" transform="scale(0.015625)"/>
     </defs>
     <use xlink:href="#DejaVuSans-47"/>
     <use xlink:href="#DejaVuSans-5f" x="77.490234"/>
     <use xlink:href="#DejaVuSans-63" x="127.490234"/>
     <use xlink:href="#DejaVuSans-73" x="182.470703"/>
     <use xlink:href="#DejaVuSans-74" x="234.570312"/>
     <use xlink:href="#DejaVuSans-3a" x="273.779297"/>
     <use xlink:href="#DejaVuSans-20" x="307.470703"/>
     <use xlink:href="#DejaVuSans-31" x="339.257812"/>
     <use xlink:href="#DejaVuSans-2e" x="402.880859"/>
     <use xlink:href="#DejaVuSans-35" x="434.667969"/>
     <use xlink:href="#DejaVuSans-20" x="498.291016"/>
     <use xlink:href="#DejaVuSans-64" x="530.078125"/>
     <use xlink:href="#DejaVuSans-42" x="593.554688"/>
     <use xlink:href="#DejaVuSans-69" x="662.158203"/>
    </g>
    <!-- G_inpe: 1.9 dBi -->
    <g transform="translate(384.8785 493.297562)scale(0.1 -0.1)">
     <defs>
      <path id="DejaVuSans-6e" d="M 3513 2113 
L 3513 0 
L 2938 0 
L 2938 2094 
Q 2938 2591 2744 2837 
Q 2550 3084 2163 3084 
Q 1697 3084 1428 2787 
Q 1159 2491 1159 1978 
L 1159 0 
L 581 0 
L 581 3500 
L 1159 3500 
L 1159 2956 
Q 1366 3272 1645 3428 
Q 1925 3584 2291 3584 
Q 2894 3584 3203 3211 
Q 3513 2838 3513 2113 
z
" transform="scale(0.015625)"/>
      <path id="DejaVuSans-70" d="M 1159 525 
L 1159 -1331 
L 581 -1331 
L 581 3500 
L 1159 3500 
L 1159 2969 
Q 1341 3281 1617 3432 
Q 1894 3584 2278 3584 
Q 2916 3584 3314 3078 
Q 3713 2572 3713 1747 
Q 3713 922 3314 415 
Q 2916 -91 2278 -91 
Q 1894 -91 1617 61 
Q 1341 213 1159 525 
z
M 3116 1747 
Q 3116 2381 2855 2742 
Q 2594 3103 2138 3103 
Q 1681 3103 1420 2742 
Q 1159 2381 1159 1747 
Q 1159 1113 1420 752 
Q 1681 391 2138 391 
Q 2594 391 2855 752 
Q 3116 1113 3116 1747 
z
" transform="scale(0.015625)"/>
      <path id="DejaVuSans-65" d="M 3597 1894 
L 3597 1613 
L 953 1613 
Q 991 1019 1311 708 
Q 1631 397 2203 397 
Q 2534 397 2845 478 
Q 3156 559 3463 722 
L 3463 178 
Q 3153 47 2828 -22 
Q 2503 -91 2169 -91 
Q 1331 -91 842 396 
Q 353 884 353 1716 
Q 353 2575 817 3079 
Q 1281 3584 2069 3584 
Q 2775 3584 3186 3129 
Q 3597 2675 3597 1894 
z
M 3022 2063 
Q 3016 2534 2758 2815 
Q 2500 3097 2075 3097 
Q 1594 3097 1305 2825 
Q 1016 2553 972 2059 
L 3022 2063 
z
" transform="scale(0.015625)"/>
     </defs>
     <use xlink:href="#DejaVuSans-47"/>
     <use xlink:href="#DejaVuSans-5f" x="77.490234"/>
     <use xlink:href="#DejaVuSans-69" x="127.490234"/>
     <use xlink:href="#DejaVuSans-6e" x="155.273438"/>
     <use xlink:href="#DejaVuSans-70" x="218.652344"/>
     <use xlink:href="#DejaVuSans-65" x="282.128906"/>
     <use xlink:href="#DejaVuSans-3a" x="343.652344"/>
     <use xlink:href="#DejaVuSans-20" x="377.34375"/>
     <use xlink:href="#DejaVuSans-31" x="409.130859"/>
     <use xlink:href="#DejaVuSans-2e" x="472.753906"/>
     <use xlink:href="#DejaVuSans-39" x="504.541016"/>
     <use xlink:href="#DejaVuSans-20" x="568.164062"/>
     <use xlink:href="#DejaVuSans-64" x="599.951172"/>
     <use xlink:href="#DejaVuSans-42" x="663.427734"/>
     <use xlink:href="#DejaVuSans-69" x="732.03125"/>
    </g>
    <!-- Pearson Coef: 0.005 -->
    <g transform="translate(384.8785 504.7735)scale(0.1 -0.1)">
     <defs>
      <path id="DejaVuSans-50" d="M 1259 4147 
L 1259 2394 
L 2053 2394 
Q 2494 2394 2734 2622 
Q 2975 2850 2975 3272 
Q 2975 3691 2734 3919 
Q 2494 4147 2053 4147 
L 1259 4147 
z
M 628 4666 
L 2053 4666 
Q 2838 4666 3239 4311 
Q 3641 3956 3641 3272 
Q 3641 2581 3239 2228 
Q 2838 1875 2053 1875 
L 1259 1875 
L 1259 0 
L 628 0 
L 628 4666 
z
" transform="scale(0.015625)"/>
      <path id="DejaVuSans-61" d="M 2194 1759 
Q 1497 1759 1228 1600 
Q 959 1441 959 1056 
Q 959 750 1161 570 
Q 1363 391 1709 391 
Q 2188 391 2477 730 
Q 2766 1069 2766 1631 
L 2766 1759 
L 2194 1759 
z
M 3341 1997 
L 3341 0 
L 2766 0 
L 2766 531 
Q 2569 213 2275 61 
Q 1981 -91 1556 -91 
Q 1019 -91 701 211 
Q 384 513 384 1019 
Q 384 1609 779 1909 
Q 1175 2209 1959 2209 
L 2766 2209 
L 2766 2266 
Q 2766 2663 2505 2880 
Q 2244 3097 1772 3097 
Q 1472 3097 1187 3025 
Q 903 2953 641 2809 
L 641 3341 
Q 956 3463 1253 3523 
Q 1550 3584 1831 3584 
Q 2591 3584 2966 3190 
Q 3341 2797 3341 1997 
z
" transform="scale(0.015625)"/>
      <path id="DejaVuSans-72" d="M 2631 2963 
Q 2534 3019 2420 3045 
Q 2306 3072 2169 3072 
Q 1681 3072 1420 2755 
Q 1159 2438 1159 1844 
L 1159 0 
L 581 0 
L 581 3500 
L 1159 3500 
L 1159 2956 
Q 1341 3275 1631 3429 
Q 1922 3584 2338 3584 
Q 2397 3584 2469 3576 
Q 2541 3569 2628 3553 
L 2631 2963 
z
" transform="scale(0.015625)"/>
      <path id="DejaVuSans-6f" d="M 1959 3097 
Q 1497 3097 1228 2736 
Q 959 2375 959 1747 
Q 959 1119 1226 758 
Q 1494 397 1959 397 
Q 2419 397 2687 759 
Q 2956 1122 2956 1747 
Q 2956 2369 2687 2733 
Q 2419 3097 1959 3097 
z
M 1959 3584 
Q 2709 3584 3137 3096 
Q 3566 2609 3566 1747 
Q 3566 888 3137 398 
Q 2709 -91 1959 -91 
Q 1206 -91 779 398 
Q 353 888 353 1747 
Q 353 2609 779 3096 
Q 1206 3584 1959 3584 
z
" transform="scale(0.015625)"/>
      <path id="DejaVuSans-43" d="M 4122 4306 
L 4122 3641 
Q 3803 3938 3442 4084 
Q 3081 4231 2675 4231 
Q 1875 4231 1450 3742 
Q 1025 3253 1025 2328 
Q 1025 1406 1450 917 
Q 1875 428 2675 428 
Q 3081 428 3442 575 
Q 3803 722 4122 1019 
L 4122 359 
Q 3791 134 3420 21 
Q 3050 -91 2638 -91 
Q 1578 -91 968 557 
Q 359 1206 359 2328 
Q 359 3453 968 4101 
Q 1578 4750 2638 4750 
Q 3056 4750 3426 4639 
Q 3797 4528 4122 4306 
z
" transform="scale(0.015625)"/>
      <path id="DejaVuSans-66" d="M 2375 4863 
L 2375 4384 
L 1825 4384 
Q 1516 4384 1395 4259 
Q 1275 4134 1275 3809 
L 1275 3500 
L 2222 3500 
L 2222 3053 
L 1275 3053 
L 1275 0 
L 697 0 
L 697 3053 
L 147 3053 
L 147 3500 
L 697 3500 
L 697 3744 
Q 697 4328 969 4595 
Q 1241 4863 1831 4863 
L 2375 4863 
z
" transform="scale(0.015625)"/>
     </defs>
     <use xlink:href="#DejaVuSans-50"/>
     <use xlink:href="#DejaVuSans-65" x="56.677734"/>
     <use xlink:href="#DejaVuSans-61" x="118.201172"/>
     <use xlink:href="#DejaVuSans-72" x="179.480469"/>
     <use xlink:href="#DejaVuSans-73" x="220.59375"/>
     <use xlink:href="#DejaVuSans-6f" x="272.693359"/>
     <use xlink:href="#DejaVuSans-6e" x="333.875"/>
     <use xlink:href="#DejaVuSans-20" x="397.253906"/>
     <use xlink:href="#DejaVuSans-43" x="429.041016"/>
     <use xlink:href="#DejaVuSans-6f" x="498.865234"/>
     <use xlink:href="#DejaVuSans-65" x="560.046875"/>
     <use xlink:href="#DejaVuSans-66" x="621.570312"/>
     <use xlink:href="#DejaVuSans-3a" x="653.150391"/>
     <use xlink:href="#DejaVuSans-20" x="686.841797"/>
     <use xlink:href="#DejaVuSans-30" x="718.628906"/>
     <use xlink:href="#DejaVuSans-2e" x="782.251953"/>
     <use xlink:href="#DejaVuSans-30" x="814.039062"/>
     <use xlink:href="#DejaVuSans-30" x="877.662109"/>
     <use xlink:href="#DejaVuSans-35" x="941.285156"/>
    </g>
   </g>
   <g id="text_17">
    <g id="patch_5">
     <path d="M 52.2385 56.370937 
L 121.861 56.370937 
Q 125.461 56.370937 125.461 52.770937 
L 125.461 41.157187 
Q 125.461 37.557187 121.861 37.557187 
L 52.2385 37.557187 
Q 48.6385 37.557187 48.6385 41.157187 
L 48.6385 52.770937 
Q 48.6385 56.370937 52.2385 56.370937 
z
" style="fill: #ffffff; stroke: #808080; stroke-linejoin: miter"/>
    </g>
    <!-- Freq: 9 GHz -->
    <g transform="translate(52.2385 50.275312)scale(0.12 -0.12)">
     <defs>
      <path id="DejaVuSans-46" d="M 628 4666 
L 3309 4666 
L 3309 4134 
L 1259 4134 
L 1259 2759 
L 3109 2759 
L 3109 2228 
L 1259 2228 
L 1259 0 
L 628 0 
L 628 4666 
z
" transform="scale(0.015625)"/>
      <path id="DejaVuSans-71" d="M 947 1747 
Q 947 1113 1208 752 
Q 1469 391 1925 391 
Q 2381 391 2643 752 
Q 2906 1113 2906 1747 
Q 2906 2381 2643 2742 
Q 2381 3103 1925 3103 
Q 1469 3103 1208 2742 
Q 947 2381 947 1747 
z
M 2906 525 
Q 2725 213 2448 61 
Q 2172 -91 1784 -91 
Q 1150 -91 751 415 
Q 353 922 353 1747 
Q 353 2572 751 3078 
Q 1150 3584 1784 3584 
Q 2172 3584 2448 3432 
Q 2725 3281 2906 2969 
L 2906 3500 
L 3481 3500 
L 3481 -1331 
L 2906 -1331 
L 2906 525 
z
" transform="scale(0.015625)"/>
      <path id="DejaVuSans-48" d="M 628 4666 
L 1259 4666 
L 1259 2753 
L 3553 2753 
L 3553 4666 
L 4184 4666 
L 4184 0 
L 3553 0 
L 3553 2222 
L 1259 2222 
L 1259 0 
L 628 0 
L 628 4666 
z
" transform="scale(0.015625)"/>
      <path id="DejaVuSans-7a" d="M 353 3500 
L 3084 3500 
L 3084 2975 
L 922 459 
L 3084 459 
L 3084 0 
L 275 0 
L 275 525 
L 2438 3041 
L 353 3041 
L 353 3500 
z
" transform="scale(0.015625)"/>
     </defs>
     <use xlink:href="#DejaVuSans-46"/>
     <use xlink:href="#DejaVuSans-72" x="50.269531"/>
     <use xlink:href="#DejaVuSans-65" x="89.132812"/>
     <use xlink:href="#DejaVuSans-71" x="150.65625"/>
     <use xlink:href="#DejaVuSans-3a" x="214.132812"/>
     <use xlink:href="#DejaVuSans-20" x="247.824219"/>
     <use xlink:href="#DejaVuSans-39" x="279.611328"/>
     <use xlink:href="#DejaVuSans-20" x="343.234375"/>
     <use xlink:href="#DejaVuSans-47" x="375.021484"/>
     <use xlink:href="#DejaVuSans-48" x="452.511719"/>
     <use xlink:href="#DejaVuSans-7a" x="527.707031"/>
    </g>
   </g>
   <g id="text_18">
    <!-- Radiation Diagram - 1AVHF09 -->
    <g transform="translate(162.578125 16.318125)scale(0.12 -0.12)">
     <defs>
      <path id="DejaVuSans-52" d="M 2841 2188 
Q 3044 2119 3236 1894 
Q 3428 1669 3622 1275 
L 4263 0 
L 3584 0 
L 2988 1197 
Q 2756 1666 2539 1819 
Q 2322 1972 1947 1972 
L 1259 1972 
L 1259 0 
L 628 0 
L 628 4666 
L 2053 4666 
Q 2853 4666 3247 4331 
Q 3641 3997 3641 3322 
Q 3641 2881 3436 2590 
Q 3231 2300 2841 2188 
z
M 1259 4147 
L 1259 2491 
L 2053 2491 
Q 2509 2491 2742 2702 
Q 2975 2913 2975 3322 
Q 2975 3731 2742 3939 
Q 2509 4147 2053 4147 
L 1259 4147 
z
" transform="scale(0.015625)"/>
      <path id="DejaVuSans-44" d="M 1259 4147 
L 1259 519 
L 2022 519 
Q 2988 519 3436 956 
Q 3884 1394 3884 2338 
Q 3884 3275 3436 3711 
Q 2988 4147 2022 4147 
L 1259 4147 
z
M 628 4666 
L 1925 4666 
Q 3281 4666 3915 4102 
Q 4550 3538 4550 2338 
Q 4550 1131 3912 565 
Q 3275 0 1925 0 
L 628 0 
L 628 4666 
z
" transform="scale(0.015625)"/>
      <path id="DejaVuSans-67" d="M 2906 1791 
Q 2906 2416 2648 2759 
Q 2391 3103 1925 3103 
Q 1463 3103 1205 2759 
Q 947 2416 947 1791 
Q 947 1169 1205 825 
Q 1463 481 1925 481 
Q 2391 481 2648 825 
Q 2906 1169 2906 1791 
z
M 3481 434 
Q 3481 -459 3084 -895 
Q 2688 -1331 1869 -1331 
Q 1566 -1331 1297 -1286 
Q 1028 -1241 775 -1147 
L 775 -588 
Q 1028 -725 1275 -790 
Q 1522 -856 1778 -856 
Q 2344 -856 2625 -561 
Q 2906 -266 2906 331 
L 2906 616 
Q 2728 306 2450 153 
Q 2172 0 1784 0 
Q 1141 0 747 490 
Q 353 981 353 1791 
Q 353 2603 747 3093 
Q 1141 3584 1784 3584 
Q 2172 3584 2450 3431 
Q 2728 3278 2906 2969 
L 2906 3500 
L 3481 3500 
L 3481 434 
z
" transform="scale(0.015625)"/>
      <path id="DejaVuSans-6d" d="M 3328 2828 
Q 3544 3216 3844 3400 
Q 4144 3584 4550 3584 
Q 5097 3584 5394 3201 
Q 5691 2819 5691 2113 
L 5691 0 
L 5113 0 
L 5113 2094 
Q 5113 2597 4934 2840 
Q 4756 3084 4391 3084 
Q 3944 3084 3684 2787 
Q 3425 2491 3425 1978 
L 3425 0 
L 2847 0 
L 2847 2094 
Q 2847 2600 2669 2842 
Q 2491 3084 2119 3084 
Q 1678 3084 1418 2786 
Q 1159 2488 1159 1978 
L 1159 0 
L 581 0 
L 581 3500 
L 1159 3500 
L 1159 2956 
Q 1356 3278 1631 3431 
Q 1906 3584 2284 3584 
Q 2666 3584 2933 3390 
Q 3200 3197 3328 2828 
z
" transform="scale(0.015625)"/>
      <path id="DejaVuSans-2d" d="M 313 2009 
L 1997 2009 
L 1997 1497 
L 313 1497 
L 313 2009 
z
" transform="scale(0.015625)"/>
      <path id="DejaVuSans-41" d="M 2188 4044 
L 1331 1722 
L 3047 1722 
L 2188 4044 
z
M 1831 4666 
L 2547 4666 
L 4325 0 
L 3669 0 
L 3244 1197 
L 1141 1197 
L 716 0 
L 50 0 
L 1831 4666 
z
" transform="scale(0.015625)"/>
      <path id="DejaVuSans-56" d="M 1831 0 
L 50 4666 
L 709 4666 
L 2188 738 
L 3669 4666 
L 4325 4666 
L 2547 0 
L 1831 0 
z
" transform="scale(0.015625)"/>
     </defs>
     <use xlink:href="#DejaVuSans-52"/>
     <use xlink:href="#DejaVuSans-61" x="67.232422"/>
     <use xlink:href="#DejaVuSans-64" x="128.511719"/>
     <use xlink:href="#DejaVuSans-69" x="191.988281"/>
     <use xlink:href="#DejaVuSans-61" x="219.771484"/>
     <use xlink:href="#DejaVuSans-74" x="281.050781"/>
     <use xlink:href="#DejaVuSans-69" x="320.259766"/>
     <use xlink:href="#DejaVuSans-6f" x="348.042969"/>
     <use xlink:href="#DejaVuSans-6e" x="409.224609"/>
     <use xlink:href="#DejaVuSans-20" x="472.603516"/>
     <use xlink:href="#DejaVuSans-44" x="504.390625"/>
     <use xlink:href="#DejaVuSans-69" x="581.392578"/>
     <use xlink:href="#DejaVuSans-61" x="609.175781"/>
     <use xlink:href="#DejaVuSans-67" x="670.455078"/>
     <use xlink:href="#DejaVuSans-72" x="733.931641"/>
     <use xlink:href="#DejaVuSans-61" x="775.044922"/>
     <use xlink:href="#DejaVuSans-6d" x="836.324219"/>
     <use xlink:href="#DejaVuSans-20" x="933.736328"/>
     <use xlink:href="#DejaVuSans-2d" x="965.523438"/>
     <use xlink:href="#DejaVuSans-20" x="1001.607422"/>
     <use xlink:href="#DejaVuSans-31" x="1033.394531"/>
     <use xlink:href="#DejaVuSans-41" x="1097.017578"/>
     <use xlink:href="#DejaVuSans-56" x="1159.050781"/>
     <use xlink:href="#DejaVuSans-48" x="1227.458984"/>
     <use xlink:href="#DejaVuSans-46" x="1302.654297"/>
     <use xlink:href="#DejaVuSans-30" x="1360.173828"/>
     <use xlink:href="#DejaVuSans-39" x="1423.796875"/>
    </g>
   </g>
   <g id="legend_1">
    <g id="patch_6">
     <path d="M 411.802813 78.513437 
L 466.5825 78.513437 
Q 468.5825 78.513437 468.5825 76.513437 
L 468.5825 48.157187 
Q 468.5825 46.157187 466.5825 46.157187 
L 411.802813 46.157187 
Q 409.802813 46.157187 409.802813 48.157187 
L 409.802813 76.513437 
Q 409.802813 78.513437 411.802813 78.513437 
z
" style="fill: #ffffff; opacity: 0.8; stroke: #cccccc; stroke-linejoin: miter"/>
    </g>
    <g id="line2d_18">
     <path d="M 413.802813 54.255625 
L 423.802813 54.255625 
L 433.802813 54.255625 
" style="fill: none; stroke: #ff0000; stroke-width: 1.5; stroke-linecap: square"/>
    </g>
    <g id="text_19">
     <!-- INPE -->
     <g transform="translate(441.802813 57.755625)scale(0.1 -0.1)">
      <defs>
       <path id="DejaVuSans-49" d="M 628 4666 
L 1259 4666 
L 1259 0 
L 628 0 
L 628 4666 
z
" transform="scale(0.015625)"/>
       <path id="DejaVuSans-4e" d="M 628 4666 
L 1478 4666 
L 3547 763 
L 3547 4666 
L 4159 4666 
L 4159 0 
L 3309 0 
L 1241 3903 
L 1241 0 
L 628 0 
L 628 4666 
z
" transform="scale(0.015625)"/>
       <path id="DejaVuSans-45" d="M 628 4666 
L 3578 4666 
L 3578 4134 
L 1259 4134 
L 1259 2753 
L 3481 2753 
L 3481 2222 
L 1259 2222 
L 1259 531 
L 3634 531 
L 3634 0 
L 628 0 
L 628 4666 
z
" transform="scale(0.015625)"/>
      </defs>
      <use xlink:href="#DejaVuSans-49"/>
      <use xlink:href="#DejaVuSans-4e" x="29.492188"/>
      <use xlink:href="#DejaVuSans-50" x="104.296875"/>
      <use xlink:href="#DejaVuSans-45" x="164.599609"/>
     </g>
    </g>
    <g id="line2d_19">
     <path d="M 413.802813 68.93375 
L 423.802813 68.93375 
L 433.802813 68.93375 
" style="fill: none; stroke-dasharray: 5.55,2.4; stroke-dashoffset: 0; stroke: #0000ff; stroke-width: 1.5"/>
    </g>
    <g id="text_20">
     <!-- CST -->
     <g transform="translate(441.802813 72.43375)scale(0.1 -0.1)">
      <defs>
       <path id="DejaVuSans-53" d="M 3425 4513 
L 3425 3897 
Q 3066 4069 2747 4153 
Q 2428 4238 2131 4238 
Q 1616 4238 1336 4038 
Q 1056 3838 1056 3469 
Q 1056 3159 1242 3001 
Q 1428 2844 1947 2747 
L 2328 2669 
Q 3034 2534 3370 2195 
Q 3706 1856 3706 1288 
Q 3706 609 3251 259 
Q 2797 -91 1919 -91 
Q 1588 -91 1214 -16 
Q 841 59 441 206 
L 441 856 
Q 825 641 1194 531 
Q 1563 422 1919 422 
Q 2459 422 2753 634 
Q 3047 847 3047 1241 
Q 3047 1584 2836 1778 
Q 2625 1972 2144 2069 
L 1759 2144 
Q 1053 2284 737 2584 
Q 422 2884 422 3419 
Q 422 4038 858 4394 
Q 1294 4750 2059 4750 
Q 2388 4750 2728 4690 
Q 3069 4631 3425 4513 
z
" transform="scale(0.015625)"/>
       <path id="DejaVuSans-54" d="M -19 4666 
L 3928 4666 
L 3928 4134 
L 2272 4134 
L 2272 0 
L 1638 0 
L 1638 4134 
L -19 4134 
L -19 4666 
z
" transform="scale(0.015625)"/>
      </defs>
      <use xlink:href="#DejaVuSans-43"/>
      <use xlink:href="#DejaVuSans-53" x="69.824219"/>
      <use xlink:href="#DejaVuSans-54" x="133.300781"/>
     </g>
    </g>
   </g>
  </g>
 </g>
 <defs>
  <clipPath id="pd1924e8ab4">
   <path d="M 473.5825 262.917187 
C 473.5825 233.795931 467.846247 204.957842 456.702025 178.05331 
C 445.557803 151.148777 429.222338 126.701026 408.6305 106.109188 
C 388.038662 85.51735 363.590911 69.181885 336.686378 58.037662 
C 309.781845 46.89344 280.943756 41.157187 251.8225 41.157187 
C 222.701244 41.157187 193.863155 46.89344 166.958622 58.037662 
C 140.054089 69.181885 115.606338 85.51735 95.0145 106.109188 
C 74.422662 126.701026 58.087197 151.148777 46.942975 178.05331 
C 35.798753 204.957842 30.0625 233.795931 30.0625 262.917187 
C 30.0625 292.038444 35.798753 320.876533 46.942975 347.781065 
C 58.087197 374.685598 74.422662 399.133349 95.0145 419.725187 
C 115.606338 440.317025 140.054089 456.65249 166.958622 467.796713 
C 193.863155 478.940935 222.701244 484.677187 251.8225 484.677187 
C 280.943756 484.677187 309.781845 478.940935 336.686378 467.796713 
C 363.590911 456.65249 388.038662 440.317025 408.6305 419.725187 
C 429.222338 399.133349 445.557803 374.685598 456.702025 347.781065 
C 467.846247 320.876533 473.5825 292.038444 473.5825 262.917188 
M 251.8225 262.917187 
C 251.8225 262.917187 251.8225 262.917187 251.8225 262.917187 
C 251.8225 262.917187 251.8225 262.917187 251.8225 262.917187 
C 251.8225 262.917187 251.8225 262.917187 251.8225 262.917187 
C 251.8225 262.917187 251.8225 262.917187 251.8225 262.917187 
C 251.8225 262.917187 251.8225 262.917187 251.8225 262.917187 
C 251.8225 262.917187 251.8225 262.917187 251.8225 262.917187 
C 251.8225 262.917187 251.8225 262.917187 251.8225 262.917187 
C 251.8225 262.917187 251.8225 262.917187 251.8225 262.917187 
C 251.8225 262.917187 251.8225 262.917187 251.8225 262.917187 
C 251.8225 262.917187 251.8225 262.917187 251.8225 262.917187 
C 251.8225 262.917187 251.8225 262.917187 251.8225 262.917187 
C 251.8225 262.917187 251.8225 262.917187 251.8225 262.917187 
C 251.8225 262.917187 251.8225 262.917187 251.8225 262.917187 
C 251.8225 262.917187 251.8225 262.917187 251.8225 262.917187 
C 251.8225 262.917187 251.8225 262.917187 251.8225 262.917187 
C 251.8225 262.917187 251.8225 262.917187 251.8225 262.917187 
M 473.5825 262.917187 
z
"/>
  </clipPath>
 </defs>
</svg>
