<?xml version="1.0" encoding="utf-8" standalone="no"?>
<!DOCTYPE svg PUBLIC "-//W3C//DTD SVG 1.1//EN"
  "http://www.w3.org/Graphics/SVG/1.1/DTD/svg11.dtd">
<svg xmlns:xlink="http://www.w3.org/1999/xlink" width="506.82625pt" height="514.053188pt" viewBox="0 0 506.82625 514.053188" xmlns="http://www.w3.org/2000/svg" version="1.1">
 <metadata>
  <rdf:RDF xmlns:dc="http://purl.org/dc/elements/1.1/" xmlns:cc="http://creativecommons.org/ns#" xmlns:rdf="http://www.w3.org/1999/02/22-rdf-syntax-ns#">
   <cc:Work>
    <dc:type rdf:resource="http://purl.org/dc/dcmitype/StillImage"/>
    <dc:date>2024-01-27T17:23:25.652635</dc:date>
    <dc:format>image/svg+xml</dc:format>
    <dc:creator>
     <cc:Agent>
      <dc:title>Matplotlib v3.5.1, https://matplotlib.org/</dc:title>
     </cc:Agent>
    </dc:creator>
   </cc:Work>
  </rdf:RDF>
 </metadata>
 <defs>
  <style type="text/css">*{stroke-linejoin: round; stroke-linecap: butt}</style>
 </defs>
 <g id="figure_1">
  <g id="patch_1">
   <path d="M 0 514.053188 
L 506.82625 514.053188 
L 506.82625 0 
L 0 0 
z
" style="fill: #ffffff"/>
  </g>
  <g id="axes_1">
   <g id="patch_2">
    <path d="M 473.5825 262.917188 
C 473.5825 233.795931 467.846247 204.957842 456.702025 178.05331 
C 445.557803 151.148777 429.222338 126.701026 408.6305 106.109188 
C 388.038662 85.51735 363.590911 69.181885 336.686378 58.037662 
C 309.781845 46.89344 280.943756 41.157188 251.8225 41.157188 
C 222.701244 41.157188 193.863155 46.89344 166.958622 58.037662 
C 140.054089 69.181885 115.606338 85.51735 95.0145 106.109188 
C 74.422662 126.701026 58.087197 151.148777 46.942975 178.05331 
C 35.798753 204.957842 30.0625 233.795931 30.0625 262.917188 
C 30.0625 292.038444 35.798753 320.876533 46.942975 347.781065 
C 58.087197 374.685598 74.422662 399.133349 95.0145 419.725187 
C 115.606338 440.317025 140.054089 456.65249 166.958622 467.796713 
C 193.863155 478.940935 222.701244 484.677188 251.8225 484.677188 
C 280.943756 484.677188 309.781845 478.940935 336.686378 467.796713 
C 363.590911 456.65249 388.038662 440.317025 408.6305 419.725187 
C 429.222338 399.133349 445.557803 374.685598 456.702025 347.781065 
C 467.846247 320.876533 473.5825 292.038444 473.5825 262.917188 
M 251.8225 262.917188 
C 251.8225 262.917188 251.8225 262.917188 251.8225 262.917188 
C 251.8225 262.917188 251.8225 262.917188 251.8225 262.917188 
C 251.8225 262.917188 251.8225 262.917188 251.8225 262.917188 
C 251.8225 262.917188 251.8225 262.917188 251.8225 262.917188 
C 251.8225 262.917188 251.8225 262.917188 251.8225 262.917188 
C 251.8225 262.917188 251.8225 262.917188 251.8225 262.917188 
C 251.8225 262.917188 251.8225 262.917188 251.8225 262.917188 
C 251.8225 262.917188 251.8225 262.917188 251.8225 262.917188 
C 251.8225 262.917188 251.8225 262.917188 251.8225 262.917188 
C 251.8225 262.917188 251.8225 262.917188 251.8225 262.917188 
C 251.8225 262.917188 251.8225 262.917188 251.8225 262.917188 
C 251.8225 262.917188 251.8225 262.917188 251.8225 262.917188 
C 251.8225 262.917188 251.8225 262.917188 251.8225 262.917188 
C 251.8225 262.917188 251.8225 262.917188 251.8225 262.917188 
C 251.8225 262.917188 251.8225 262.917188 251.8225 262.917188 
C 251.8225 262.917188 251.8225 262.917188 251.8225 262.917188 
M 473.5825 262.917188 
z
" style="fill: #ffffff"/>
   </g>
   <g id="matplotlib.axis_1">
    <g id="xtick_1">
     <g id="line2d_1">
      <path d="M 251.8225 262.917188 
L 251.8225 41.157188 
" clip-path="url(#p3f83a6ad08)" style="fill: none; stroke: #b0b0b0; stroke-width: 0.8; stroke-linecap: square"/>
     </g>
     <g id="text_1">
      <!-- 0° -->
      <g transform="translate(246.14125 29.916563)scale(0.1 -0.1)">
       <defs>
        <path id="DejaVuSans-30" d="M 2034 4250 
Q 1547 4250 1301 3770 
Q 1056 3291 1056 2328 
Q 1056 1369 1301 889 
Q 1547 409 2034 409 
Q 2525 409 2770 889 
Q 3016 1369 3016 2328 
Q 3016 3291 2770 3770 
Q 2525 4250 2034 4250 
z
M 2034 4750 
Q 2819 4750 3233 4129 
Q 3647 3509 3647 2328 
Q 3647 1150 3233 529 
Q 2819 -91 2034 -91 
Q 1250 -91 836 529 
Q 422 1150 422 2328 
Q 422 3509 836 4129 
Q 1250 4750 2034 4750 
z
" transform="scale(0.015625)"/>
        <path id="DejaVuSans-b0" d="M 1600 4347 
Q 1350 4347 1178 4173 
Q 1006 4000 1006 3750 
Q 1006 3503 1178 3333 
Q 1350 3163 1600 3163 
Q 1850 3163 2022 3333 
Q 2194 3503 2194 3750 
Q 2194 3997 2020 4172 
Q 1847 4347 1600 4347 
z
M 1600 4750 
Q 1800 4750 1984 4673 
Q 2169 4597 2303 4453 
Q 2447 4313 2519 4134 
Q 2591 3956 2591 3750 
Q 2591 3338 2302 3052 
Q 2013 2766 1594 2766 
Q 1172 2766 890 3047 
Q 609 3328 609 3750 
Q 609 4169 896 4459 
Q 1184 4750 1600 4750 
z
" transform="scale(0.015625)"/>
       </defs>
       <use xlink:href="#DejaVuSans-30"/>
       <use xlink:href="#DejaVuSans-b0" x="63.623047"/>
      </g>
     </g>
    </g>
    <g id="xtick_2">
     <g id="line2d_2">
      <path d="M 251.8225 262.917188 
L 95.0145 106.109188 
" clip-path="url(#p3f83a6ad08)" style="fill: none; stroke: #b0b0b0; stroke-width: 0.8; stroke-linecap: square"/>
     </g>
     <g id="text_2">
      <!-- 45° -->
      <g transform="translate(76.252505 98.969068)scale(0.1 -0.1)">
       <defs>
        <path id="DejaVuSans-34" d="M 2419 4116 
L 825 1625 
L 2419 1625 
L 2419 4116 
z
M 2253 4666 
L 3047 4666 
L 3047 1625 
L 3713 1625 
L 3713 1100 
L 3047 1100 
L 3047 0 
L 2419 0 
L 2419 1100 
L 313 1100 
L 313 1709 
L 2253 4666 
z
" transform="scale(0.015625)"/>
        <path id="DejaVuSans-35" d="M 691 4666 
L 3169 4666 
L 3169 4134 
L 1269 4134 
L 1269 2991 
Q 1406 3038 1543 3061 
Q 1681 3084 1819 3084 
Q 2600 3084 3056 2656 
Q 3513 2228 3513 1497 
Q 3513 744 3044 326 
Q 2575 -91 1722 -91 
Q 1428 -91 1123 -41 
Q 819 9 494 109 
L 494 744 
Q 775 591 1075 516 
Q 1375 441 1709 441 
Q 2250 441 2565 725 
Q 2881 1009 2881 1497 
Q 2881 1984 2565 2268 
Q 2250 2553 1709 2553 
Q 1456 2553 1204 2497 
Q 953 2441 691 2322 
L 691 4666 
z
" transform="scale(0.015625)"/>
       </defs>
       <use xlink:href="#DejaVuSans-34"/>
       <use xlink:href="#DejaVuSans-35" x="63.623047"/>
       <use xlink:href="#DejaVuSans-b0" x="127.246094"/>
      </g>
     </g>
    </g>
    <g id="xtick_3">
     <g id="line2d_3">
      <path d="M 251.8225 262.917188 
L 30.0625 262.917188 
" clip-path="url(#p3f83a6ad08)" style="fill: none; stroke: #b0b0b0; stroke-width: 0.8; stroke-linecap: square"/>
     </g>
     <g id="text_3">
      <!-- 90° -->
      <g transform="translate(7.2 265.676563)scale(0.1 -0.1)">
       <defs>
        <path id="DejaVuSans-39" d="M 703 97 
L 703 672 
Q 941 559 1184 500 
Q 1428 441 1663 441 
Q 2288 441 2617 861 
Q 2947 1281 2994 2138 
Q 2813 1869 2534 1725 
Q 2256 1581 1919 1581 
Q 1219 1581 811 2004 
Q 403 2428 403 3163 
Q 403 3881 828 4315 
Q 1253 4750 1959 4750 
Q 2769 4750 3195 4129 
Q 3622 3509 3622 2328 
Q 3622 1225 3098 567 
Q 2575 -91 1691 -91 
Q 1453 -91 1209 -44 
Q 966 3 703 97 
z
M 1959 2075 
Q 2384 2075 2632 2365 
Q 2881 2656 2881 3163 
Q 2881 3666 2632 3958 
Q 2384 4250 1959 4250 
Q 1534 4250 1286 3958 
Q 1038 3666 1038 3163 
Q 1038 2656 1286 2365 
Q 1534 2075 1959 2075 
z
" transform="scale(0.015625)"/>
       </defs>
       <use xlink:href="#DejaVuSans-39"/>
       <use xlink:href="#DejaVuSans-30" x="63.623047"/>
       <use xlink:href="#DejaVuSans-b0" x="127.246094"/>
      </g>
     </g>
    </g>
    <g id="xtick_4">
     <g id="line2d_4">
      <path d="M 251.8225 262.917188 
L 95.0145 419.725187 
" clip-path="url(#p3f83a6ad08)" style="fill: none; stroke: #b0b0b0; stroke-width: 0.8; stroke-linecap: square"/>
     </g>
     <g id="text_4">
      <!-- 135° -->
      <g transform="translate(73.071255 432.384057)scale(0.1 -0.1)">
       <defs>
        <path id="DejaVuSans-31" d="M 794 531 
L 1825 531 
L 1825 4091 
L 703 3866 
L 703 4441 
L 1819 4666 
L 2450 4666 
L 2450 531 
L 3481 531 
L 3481 0 
L 794 0 
L 794 531 
z
" transform="scale(0.015625)"/>
        <path id="DejaVuSans-33" d="M 2597 2516 
Q 3050 2419 3304 2112 
Q 3559 1806 3559 1356 
Q 3559 666 3084 287 
Q 2609 -91 1734 -91 
Q 1441 -91 1130 -33 
Q 819 25 488 141 
L 488 750 
Q 750 597 1062 519 
Q 1375 441 1716 441 
Q 2309 441 2620 675 
Q 2931 909 2931 1356 
Q 2931 1769 2642 2001 
Q 2353 2234 1838 2234 
L 1294 2234 
L 1294 2753 
L 1863 2753 
Q 2328 2753 2575 2939 
Q 2822 3125 2822 3475 
Q 2822 3834 2567 4026 
Q 2313 4219 1838 4219 
Q 1578 4219 1281 4162 
Q 984 4106 628 3988 
L 628 4550 
Q 988 4650 1302 4700 
Q 1616 4750 1894 4750 
Q 2613 4750 3031 4423 
Q 3450 4097 3450 3541 
Q 3450 3153 3228 2886 
Q 3006 2619 2597 2516 
z
" transform="scale(0.015625)"/>
       </defs>
       <use xlink:href="#DejaVuSans-31"/>
       <use xlink:href="#DejaVuSans-33" x="63.623047"/>
       <use xlink:href="#DejaVuSans-35" x="127.246094"/>
       <use xlink:href="#DejaVuSans-b0" x="190.869141"/>
      </g>
     </g>
    </g>
    <g id="xtick_5">
     <g id="line2d_5">
      <path d="M 251.8225 262.917188 
L 251.8225 484.677188 
" clip-path="url(#p3f83a6ad08)" style="fill: none; stroke: #b0b0b0; stroke-width: 0.8; stroke-linecap: square"/>
     </g>
     <g id="text_5">
      <!-- 180° -->
      <g transform="translate(239.77875 501.436563)scale(0.1 -0.1)">
       <defs>
        <path id="DejaVuSans-38" d="M 2034 2216 
Q 1584 2216 1326 1975 
Q 1069 1734 1069 1313 
Q 1069 891 1326 650 
Q 1584 409 2034 409 
Q 2484 409 2743 651 
Q 3003 894 3003 1313 
Q 3003 1734 2745 1975 
Q 2488 2216 2034 2216 
z
M 1403 2484 
Q 997 2584 770 2862 
Q 544 3141 544 3541 
Q 544 4100 942 4425 
Q 1341 4750 2034 4750 
Q 2731 4750 3128 4425 
Q 3525 4100 3525 3541 
Q 3525 3141 3298 2862 
Q 3072 2584 2669 2484 
Q 3125 2378 3379 2068 
Q 3634 1759 3634 1313 
Q 3634 634 3220 271 
Q 2806 -91 2034 -91 
Q 1263 -91 848 271 
Q 434 634 434 1313 
Q 434 1759 690 2068 
Q 947 2378 1403 2484 
z
M 1172 3481 
Q 1172 3119 1398 2916 
Q 1625 2713 2034 2713 
Q 2441 2713 2670 2916 
Q 2900 3119 2900 3481 
Q 2900 3844 2670 4047 
Q 2441 4250 2034 4250 
Q 1625 4250 1398 4047 
Q 1172 3844 1172 3481 
z
" transform="scale(0.015625)"/>
       </defs>
       <use xlink:href="#DejaVuSans-31"/>
       <use xlink:href="#DejaVuSans-38" x="63.623047"/>
       <use xlink:href="#DejaVuSans-30" x="127.246094"/>
       <use xlink:href="#DejaVuSans-b0" x="190.869141"/>
      </g>
     </g>
    </g>
    <g id="xtick_6">
     <g id="line2d_6">
      <path d="M 251.8225 262.917188 
L 408.6305 419.725187 
" clip-path="url(#p3f83a6ad08)" style="fill: none; stroke: #b0b0b0; stroke-width: 0.8; stroke-linecap: square"/>
     </g>
     <g id="text_6">
      <!-- 225° -->
      <g transform="translate(406.486245 432.384057)scale(0.1 -0.1)">
       <defs>
        <path id="DejaVuSans-32" d="M 1228 531 
L 3431 531 
L 3431 0 
L 469 0 
L 469 531 
Q 828 903 1448 1529 
Q 2069 2156 2228 2338 
Q 2531 2678 2651 2914 
Q 2772 3150 2772 3378 
Q 2772 3750 2511 3984 
Q 2250 4219 1831 4219 
Q 1534 4219 1204 4116 
Q 875 4013 500 3803 
L 500 4441 
Q 881 4594 1212 4672 
Q 1544 4750 1819 4750 
Q 2544 4750 2975 4387 
Q 3406 4025 3406 3419 
Q 3406 3131 3298 2873 
Q 3191 2616 2906 2266 
Q 2828 2175 2409 1742 
Q 1991 1309 1228 531 
z
" transform="scale(0.015625)"/>
       </defs>
       <use xlink:href="#DejaVuSans-32"/>
       <use xlink:href="#DejaVuSans-32" x="63.623047"/>
       <use xlink:href="#DejaVuSans-35" x="127.246094"/>
       <use xlink:href="#DejaVuSans-b0" x="190.869141"/>
      </g>
     </g>
    </g>
    <g id="xtick_7">
     <g id="line2d_7">
      <path d="M 251.8225 262.917188 
L 473.5825 262.917188 
" clip-path="url(#p3f83a6ad08)" style="fill: none; stroke: #b0b0b0; stroke-width: 0.8; stroke-linecap: square"/>
     </g>
     <g id="text_7">
      <!-- 270° -->
      <g transform="translate(475.53875 265.676563)scale(0.1 -0.1)">
       <defs>
        <path id="DejaVuSans-37" d="M 525 4666 
L 3525 4666 
L 3525 4397 
L 1831 0 
L 1172 0 
L 2766 4134 
L 525 4134 
L 525 4666 
z
" transform="scale(0.015625)"/>
       </defs>
       <use xlink:href="#DejaVuSans-32"/>
       <use xlink:href="#DejaVuSans-37" x="63.623047"/>
       <use xlink:href="#DejaVuSans-30" x="127.246094"/>
       <use xlink:href="#DejaVuSans-b0" x="190.869141"/>
      </g>
     </g>
    </g>
    <g id="xtick_8">
     <g id="line2d_8">
      <path d="M 251.8225 262.917188 
L 408.6305 106.109188 
" clip-path="url(#p3f83a6ad08)" style="fill: none; stroke: #b0b0b0; stroke-width: 0.8; stroke-linecap: square"/>
     </g>
     <g id="text_8">
      <!-- 315° -->
      <g transform="translate(406.486245 98.969068)scale(0.1 -0.1)">
       <use xlink:href="#DejaVuSans-33"/>
       <use xlink:href="#DejaVuSans-31" x="63.623047"/>
       <use xlink:href="#DejaVuSans-35" x="127.246094"/>
       <use xlink:href="#DejaVuSans-b0" x="190.869141"/>
      </g>
     </g>
    </g>
   </g>
   <g id="matplotlib.axis_2">
    <g id="ytick_1">
     <g id="line2d_9">
      <path d="M 251.8225 259.868354 
C 251.422131 259.868354 251.025655 259.947218 250.655762 260.100432 
C 250.285869 260.253647 249.949753 260.478233 249.666649 260.761337 
C 249.383545 261.04444 249.15896 261.380556 249.005745 261.750449 
C 248.85253 262.120342 248.773666 262.516818 248.773666 262.917188 
C 248.773666 263.317557 248.85253 263.714033 249.005745 264.083926 
C 249.15896 264.453819 249.383545 264.789935 249.666649 265.073038 
C 249.949753 265.356142 250.285869 265.580728 250.655762 265.733943 
C 251.025655 265.887157 251.422131 265.966021 251.8225 265.966021 
C 252.222869 265.966021 252.619345 265.887157 252.989238 265.733943 
C 253.359131 265.580728 253.695247 265.356142 253.978351 265.073038 
C 254.261455 264.789935 254.48604 264.453819 254.639255 264.083926 
C 254.79247 263.714033 254.871334 263.317557 254.871334 262.917188 
C 254.871334 262.516818 254.79247 262.120342 254.639255 261.750449 
C 254.48604 261.380556 254.261455 261.04444 253.978351 260.761337 
C 253.695247 260.478233 253.359131 260.253647 252.989238 260.100432 
C 252.619345 259.947218 252.222869 259.868354 251.8225 259.868354 
" clip-path="url(#p3f83a6ad08)" style="fill: none; stroke: #b0b0b0; stroke-width: 0.8; stroke-linecap: square"/>
     </g>
     <g id="text_9">
      <!-- −35 -->
      <g transform="translate(250.655762 258.020745)scale(0.1 -0.1)">
       <defs>
        <path id="DejaVuSans-2212" d="M 678 2272 
L 4684 2272 
L 4684 1741 
L 678 1741 
L 678 2272 
z
" transform="scale(0.015625)"/>
       </defs>
       <use xlink:href="#DejaVuSans-2212"/>
       <use xlink:href="#DejaVuSans-33" x="83.789062"/>
       <use xlink:href="#DejaVuSans-35" x="147.412109"/>
      </g>
     </g>
    </g>
    <g id="ytick_2">
     <g id="line2d_10">
      <path d="M 251.8225 228.623902 
C 247.319147 228.623902 242.859583 229.510964 238.699028 231.234322 
C 234.538472 232.957681 230.757836 235.483821 227.573485 238.668172 
C 224.389133 241.852524 221.862994 245.633159 220.139635 249.793715 
C 218.416276 253.954271 217.529214 258.413834 217.529214 262.917188 
C 217.529214 267.420541 218.416276 271.880104 220.139635 276.04066 
C 221.862994 280.201216 224.389133 283.981851 227.573485 287.166203 
C 230.757836 290.350554 234.538472 292.876694 238.699028 294.600053 
C 242.859583 296.323411 247.319147 297.210473 251.8225 297.210473 
C 256.325853 297.210473 260.785417 296.323411 264.945972 294.600053 
C 269.106528 292.876694 272.887164 290.350554 276.071515 287.166203 
C 279.255867 283.981851 281.782006 280.201216 283.505365 276.04066 
C 285.228724 271.880104 286.115786 267.420541 286.115786 262.917188 
C 286.115786 258.413834 285.228724 253.954271 283.505365 249.793715 
C 281.782006 245.633159 279.255867 241.852524 276.071515 238.668172 
C 272.887164 235.483821 269.106528 232.957681 264.945972 231.234322 
C 260.785417 229.510964 256.325853 228.623902 251.8225 228.623902 
" clip-path="url(#p3f83a6ad08)" style="fill: none; stroke: #b0b0b0; stroke-width: 0.8; stroke-linecap: square"/>
     </g>
     <g id="text_10">
      <!-- −30 -->
      <g transform="translate(238.699028 229.154635)scale(0.1 -0.1)">
       <use xlink:href="#DejaVuSans-2212"/>
       <use xlink:href="#DejaVuSans-33" x="83.789062"/>
       <use xlink:href="#DejaVuSans-30" x="147.412109"/>
      </g>
     </g>
    </g>
    <g id="ytick_3">
     <g id="line2d_11">
      <path d="M 251.8225 197.379449 
C 243.216163 197.379449 234.693512 199.07471 226.742293 202.368212 
C 218.791075 205.661715 211.56592 210.489409 205.480321 216.575008 
C 199.394722 222.660608 194.567028 229.885762 191.273525 237.836981 
C 187.980022 245.788199 186.284762 254.310851 186.284762 262.917188 
C 186.284762 271.523524 187.980022 280.046176 191.273525 287.997394 
C 194.567028 295.948613 199.394722 303.173767 205.480321 309.259367 
C 211.56592 315.344966 218.791075 320.17266 226.742293 323.466163 
C 234.693512 326.759665 243.216163 328.454926 251.8225 328.454926 
C 260.428837 328.454926 268.951488 326.759665 276.902707 323.466163 
C 284.853925 320.17266 292.07908 315.344966 298.164679 309.259367 
C 304.250278 303.173767 309.077972 295.948613 312.371475 287.997394 
C 315.664978 280.046176 317.360238 271.523524 317.360238 262.917188 
C 317.360238 254.310851 315.664978 245.788199 312.371475 237.836981 
C 309.077972 229.885762 304.250278 222.660608 298.164679 216.575008 
C 292.07908 210.489409 284.853925 205.661715 276.902707 202.368212 
C 268.951488 199.07471 260.428837 197.379449 251.8225 197.379449 
" clip-path="url(#p3f83a6ad08)" style="fill: none; stroke: #b0b0b0; stroke-width: 0.8; stroke-linecap: square"/>
     </g>
     <g id="text_11">
      <!-- −25 -->
      <g transform="translate(226.742293 200.288525)scale(0.1 -0.1)">
       <use xlink:href="#DejaVuSans-2212"/>
       <use xlink:href="#DejaVuSans-32" x="83.789062"/>
       <use xlink:href="#DejaVuSans-35" x="147.412109"/>
      </g>
     </g>
    </g>
    <g id="ytick_4">
     <g id="line2d_12">
      <path d="M 251.8225 166.134997 
C 239.113179 166.134997 226.52744 168.638456 214.785559 173.502102 
C 203.043678 178.365749 192.374004 185.494997 183.387157 194.481844 
C 174.40031 203.468691 167.271061 214.138365 162.407415 225.880247 
C 157.543768 237.622128 155.040309 250.207867 155.040309 262.917188 
C 155.040309 275.626508 157.543768 288.212247 162.407415 299.954128 
C 167.271061 311.69601 174.40031 322.365684 183.387157 331.352531 
C 192.374004 340.339378 203.043678 347.468626 214.785559 352.332273 
C 226.52744 357.195919 239.113179 359.699378 251.8225 359.699378 
C 264.531821 359.699378 277.11756 357.195919 288.859441 352.332273 
C 300.601322 347.468626 311.270996 340.339378 320.257843 331.352531 
C 329.24469 322.365684 336.373939 311.69601 341.237585 299.954128 
C 346.101232 288.212247 348.604691 275.626508 348.604691 262.917188 
C 348.604691 250.207867 346.101232 237.622128 341.237585 225.880247 
C 336.373939 214.138365 329.24469 203.468691 320.257843 194.481844 
C 311.270996 185.494997 300.601322 178.365749 288.859441 173.502102 
C 277.11756 168.638456 264.531821 166.134997 251.8225 166.134997 
" clip-path="url(#p3f83a6ad08)" style="fill: none; stroke: #b0b0b0; stroke-width: 0.8; stroke-linecap: square"/>
     </g>
     <g id="text_12">
      <!-- −20 -->
      <g transform="translate(214.785559 171.422415)scale(0.1 -0.1)">
       <use xlink:href="#DejaVuSans-2212"/>
       <use xlink:href="#DejaVuSans-32" x="83.789062"/>
       <use xlink:href="#DejaVuSans-30" x="147.412109"/>
      </g>
     </g>
    </g>
    <g id="ytick_5">
     <g id="line2d_13">
      <path d="M 251.8225 134.890545 
C 235.010195 134.890545 218.361369 138.202202 202.828825 144.635992 
C 187.296281 151.069783 173.182087 160.500585 161.293993 172.38868 
C 149.405898 184.276775 139.975095 198.390968 133.541305 213.923512 
C 127.107514 229.456057 123.795857 246.104883 123.795857 262.917188 
C 123.795857 279.729492 127.107514 296.378318 133.541305 311.910863 
C 139.975095 327.443407 149.405898 341.5576 161.293993 353.445695 
C 173.182087 365.33379 187.296281 374.764592 202.828825 381.198383 
C 218.361369 387.632173 235.010195 390.94383 251.8225 390.94383 
C 268.634805 390.94383 285.283631 387.632173 300.816175 381.198383 
C 316.348719 374.764592 330.462913 365.33379 342.351007 353.445695 
C 354.239102 341.5576 363.669905 327.443407 370.103695 311.910863 
C 376.537486 296.378318 379.849143 279.729492 379.849143 262.917188 
C 379.849143 246.104883 376.537486 229.456057 370.103695 213.923512 
C 363.669905 198.390968 354.239102 184.276775 342.351007 172.38868 
C 330.462913 160.500585 316.348719 151.069783 300.816175 144.635992 
C 285.283631 138.202202 268.634805 134.890545 251.8225 134.890545 
" clip-path="url(#p3f83a6ad08)" style="fill: none; stroke: #b0b0b0; stroke-width: 0.8; stroke-linecap: square"/>
     </g>
     <g id="text_13">
      <!-- −15 -->
      <g transform="translate(202.828825 142.556305)scale(0.1 -0.1)">
       <use xlink:href="#DejaVuSans-2212"/>
       <use xlink:href="#DejaVuSans-31" x="83.789062"/>
       <use xlink:href="#DejaVuSans-35" x="147.412109"/>
      </g>
     </g>
    </g>
    <g id="ytick_6">
     <g id="line2d_14">
      <path d="M 251.8225 103.646092 
C 230.907211 103.646092 210.195298 107.765948 190.872091 115.769882 
C 171.548884 123.773817 153.990171 135.506174 139.200828 150.295516 
C 124.411486 165.084858 112.679129 182.643571 104.675195 201.966778 
C 96.67126 221.289985 92.551405 242.001899 92.551405 262.917188 
C 92.551405 283.832476 96.67126 304.54439 104.675195 323.867597 
C 112.679129 343.190804 124.411486 360.749517 139.200828 375.538859 
C 153.990171 390.328201 171.548884 402.060558 190.872091 410.064493 
C 210.195298 418.068427 230.907211 422.188283 251.8225 422.188283 
C 272.737789 422.188283 293.449702 418.068427 312.772909 410.064493 
C 332.096116 402.060558 349.654829 390.328201 364.444172 375.538859 
C 379.233514 360.749517 390.965871 343.190804 398.969805 323.867597 
C 406.97374 304.54439 411.093595 283.832476 411.093595 262.917188 
C 411.093595 242.001899 406.97374 221.289985 398.969805 201.966778 
C 390.965871 182.643571 379.233514 165.084858 364.444172 150.295516 
C 349.654829 135.506174 332.096116 123.773817 312.772909 115.769882 
C 293.449702 107.765948 272.737789 103.646092 251.8225 103.646092 
" clip-path="url(#p3f83a6ad08)" style="fill: none; stroke: #b0b0b0; stroke-width: 0.8; stroke-linecap: square"/>
     </g>
     <g id="text_14">
      <!-- −10 -->
      <g transform="translate(190.872091 113.690195)scale(0.1 -0.1)">
       <use xlink:href="#DejaVuSans-2212"/>
       <use xlink:href="#DejaVuSans-31" x="83.789062"/>
       <use xlink:href="#DejaVuSans-30" x="147.412109"/>
      </g>
     </g>
    </g>
    <g id="ytick_7">
     <g id="line2d_15">
      <path d="M 251.8225 72.40164 
C 226.804228 72.40164 202.029226 77.329694 178.915356 86.903772 
C 155.801486 96.477851 134.798254 110.511762 117.107664 128.202352 
C 99.417074 145.892942 85.383163 166.896174 75.809085 190.010044 
C 66.235006 213.123914 61.306952 237.898915 61.306952 262.917188 
C 61.306952 287.93546 66.235006 312.710461 75.809085 335.824331 
C 85.383163 358.938201 99.417074 379.941433 117.107664 397.632023 
C 134.798254 415.322613 155.801486 429.356524 178.915356 438.930603 
C 202.029226 448.504681 226.804228 453.432735 251.8225 453.432735 
C 276.840772 453.432735 301.615774 448.504681 324.729644 438.930603 
C 347.843514 429.356524 368.846746 415.322613 386.537336 397.632023 
C 404.227926 379.941433 418.261837 358.938201 427.835915 335.824331 
C 437.409994 312.710461 442.338048 287.93546 442.338048 262.917188 
C 442.338048 237.898915 437.409994 213.123914 427.835915 190.010044 
C 418.261837 166.896174 404.227926 145.892942 386.537336 128.202352 
C 368.846746 110.511762 347.843514 96.477851 324.729644 86.903772 
C 301.615774 77.329694 276.840772 72.40164 251.8225 72.40164 
" clip-path="url(#p3f83a6ad08)" style="fill: none; stroke: #b0b0b0; stroke-width: 0.8; stroke-linecap: square"/>
     </g>
     <g id="text_15">
      <!-- −5 -->
      <g transform="translate(178.915356 84.824085)scale(0.1 -0.1)">
       <use xlink:href="#DejaVuSans-2212"/>
       <use xlink:href="#DejaVuSans-35" x="83.789062"/>
      </g>
     </g>
    </g>
    <g id="ytick_8">
     <g id="line2d_16">
      <path d="M 251.8225 41.157188 
C 222.701244 41.157188 193.863155 46.89344 166.958622 58.037662 
C 140.054089 69.181885 115.606338 85.51735 95.0145 106.109188 
C 74.422662 126.701026 58.087197 151.148777 46.942975 178.05331 
C 35.798753 204.957842 30.0625 233.795931 30.0625 262.917188 
C 30.0625 292.038444 35.798753 320.876533 46.942975 347.781065 
C 58.087197 374.685598 74.422662 399.133349 95.0145 419.725187 
C 115.606338 440.317025 140.054089 456.65249 166.958622 467.796713 
C 193.863155 478.940935 222.701244 484.677188 251.8225 484.677188 
C 280.943756 484.677188 309.781845 478.940935 336.686378 467.796713 
C 363.590911 456.65249 388.038662 440.317025 408.6305 419.725187 
C 429.222338 399.133349 445.557803 374.685598 456.702025 347.781065 
C 467.846247 320.876533 473.5825 292.038444 473.5825 262.917188 
C 473.5825 233.795931 467.846247 204.957842 456.702025 178.05331 
C 445.557803 151.148777 429.222338 126.701026 408.6305 106.109188 
C 388.038662 85.51735 363.590911 69.181885 336.686378 58.037662 
C 309.781845 46.89344 280.943756 41.157188 251.8225 41.157188 
" clip-path="url(#p3f83a6ad08)" style="fill: none; stroke: #b0b0b0; stroke-width: 0.8; stroke-linecap: square"/>
     </g>
     <g id="text_16">
      <!-- 0 -->
      <g transform="translate(166.958622 55.957975)scale(0.1 -0.1)">
       <use xlink:href="#DejaVuSans-30"/>
      </g>
     </g>
    </g>
   </g>
   <g id="line2d_17">
    <path d="M 251.8225 409.64676 
L 254.175419 397.715841 
L 256.227757 389.067256 
L 258.115076 382.986687 
L 260.03831 380.408748 
L 262.275466 382.395131 
L 264.769906 386.103525 
L 267.671003 391.992886 
L 270.505694 395.85502 
L 273.597147 400.396896 
L 277.006673 405.743732 
L 280.169179 408.74821 
L 283.345281 411.220214 
L 286.339188 412.425388 
L 289.104965 412.448988 
L 294.523032 411.831638 
L 300.205777 411.825604 
L 305.306878 409.864308 
L 308.980774 411.819583 
L 313.080639 414.536401 
L 316.664784 415.676035 
L 319.892789 415.80556 
L 322.791013 415.109656 
L 325.891059 414.780238 
L 329.12591 414.633672 
L 331.591801 412.941423 
L 332.992186 409.351177 
L 332.126679 402.008105 
L 331.751552 395.941469 
L 329.332283 386.958769 
L 320.450894 364.662966 
L 313.599694 351.144164 
L 315.471648 350.522724 
L 319.781303 353.101565 
L 327.03105 359.179742 
L 334.519789 365.039834 
L 349.647724 375.452234 
L 354.042906 376.44445 
L 357.295705 376.023352 
L 359.205866 374.115919 
L 360.295075 371.389763 
L 360.486009 367.852318 
L 358.196835 362.11286 
L 355.133335 355.938681 
L 348.818006 347.234094 
L 337.369208 334.699399 
L 326.147686 323.104536 
L 309.961953 308.340706 
L 307.806393 305.104077 
L 335.84183 321.748156 
L 350.589453 329.536339 
L 370.093079 336.820848 
L 377.106864 338.195628 
L 381.399653 337.728592 
L 386.18888 337.397688 
L 389.77457 336.267604 
L 393.199576 334.952406 
L 397.198533 333.821816 
L 399.46158 331.762421 
L 401.94218 329.754775 
L 404.782672 327.844928 
L 406.836922 325.547079 
L 407.766342 322.77842 
L 407.355737 316.471576 
L 406.864142 313.293271 
L 405.144124 309.792312 
L 403.75838 306.4841 
L 400.952476 302.876444 
L 397.686021 299.285048 
L 395.004508 295.973359 
L 391.054818 292.51193 
L 387.090635 289.210649 
L 383.916545 286.208932 
L 378.859258 283.037833 
L 375.589603 280.311519 
L 373.57947 277.867064 
L 370.416205 275.381888 
L 367.079818 273.000896 
L 363.429477 270.721508 
L 351.924324 266.41282 
L 343.77279 264.522186 
L 331.251522 262.917188 
L 317.956307 261.762818 
L 284.527379 261.775108 
L 262.368028 262.36452 
L 283.657222 260.691087 
L 312.099633 257.643622 
L 333.600568 254.321966 
L 352.181493 250.594653 
L 367.637925 246.640391 
L 377.563148 243.001825 
L 385.781194 239.296655 
L 393.445543 235.388457 
L 406.384348 227.233773 
L 412.850264 222.768457 
L 417.134897 218.621864 
L 422.157267 214.074479 
L 425.187103 209.914309 
L 427.052676 205.981452 
L 431.001322 201.220971 
L 434.289568 196.504606 
L 436.072143 192.190376 
L 438.82488 187.363322 
L 440.325108 182.902578 
L 440.726717 178.811611 
L 442.095791 174.191295 
L 442.50656 169.914357 
L 442.179532 165.925435 
L 442.107515 161.74085 
L 441.132574 157.9809 
L 440.046223 154.24617 
L 439.347588 150.240747 
L 437.871889 146.660626 
L 436.18669 143.189683 
L 434.172689 139.920432 
L 431.865238 136.849905 
L 429.106816 134.112592 
L 425.624143 131.948256 
L 422.415746 129.635136 
L 418.961291 127.570863 
L 414.970095 126.020101 
L 411.372323 124.222642 
L 403.710951 121.278916 
L 400.40228 119.435362 
L 393.212039 116.504034 
L 390.451988 114.255262 
L 387.393146 112.350732 
L 384.51927 110.267015 
L 379.284053 105.515278 
L 376.859999 102.876487 
L 374.066663 100.693704 
L 371.183798 98.630455 
L 368.183725 96.736137 
L 364.870883 95.316067 
L 361.462358 94.086612 
L 358.287229 92.538005 
L 355.020704 91.166534 
L 351.385759 90.468564 
L 347.652044 90.036114 
L 344.089262 89.388646 
L 336.489539 89.324032 
L 332.39859 90.121204 
L 328.580158 90.516664 
L 325.103078 90.278965 
L 314.742821 90.045027 
L 311.229971 90.385363 
L 304.785184 89.684053 
L 301.660772 89.110479 
L 298.67806 88.049858 
L 295.758148 86.700928 
L 292.850365 85.205981 
L 289.806289 84.217508 
L 286.688919 83.545012 
L 283.455473 83.517684 
L 280.260072 83.369425 
L 273.751965 84.316026 
L 270.544078 84.79327 
L 267.317075 85.813386 
L 264.146237 86.679535 
L 261.039155 87.052928 
L 257.928152 88.074201 
L 254.870774 88.281677 
L 251.8225 87.911386 
L 245.628307 85.538697 
L 242.431204 83.720593 
L 239.034529 80.040679 
L 235.56218 77.06088 
L 232.013366 74.445864 
L 228.173459 70.311205 
L 224.435574 68.049083 
L 216.557669 62.920394 
L 208.761369 60.330494 
L 204.768423 59.103588 
L 201.000861 59.082725 
L 197.352542 59.632536 
L 193.775138 60.481979 
L 186.739819 62.613292 
L 183.245809 63.756015 
L 179.814608 65.077129 
L 176.186919 65.879763 
L 172.67539 67.021216 
L 168.904785 67.575292 
L 164.672024 67.174013 
L 160.780542 67.677079 
L 157.019928 68.543109 
L 153.006597 68.980059 
L 145.286625 70.721381 
L 141.573638 71.960557 
L 131.043348 76.933602 
L 127.815882 79.069815 
L 124.658447 81.308099 
L 121.772756 83.919071 
L 119.018358 86.680139 
L 116.547599 89.77321 
L 112.527438 96.911796 
L 111.115031 101.051761 
L 109.411209 104.753425 
L 108.027791 108.716241 
L 107.225077 113.182173 
L 106.052245 117.146932 
L 105.337425 121.458195 
L 104.974924 125.979607 
L 104.084137 129.892968 
L 103.798819 134.242165 
L 103.739367 138.660685 
L 103.312476 142.656141 
L 103.974101 147.405358 
L 106.382518 157.248855 
L 108.937069 162.867731 
L 110.740692 167.756306 
L 112.083386 172.169546 
L 121.396045 184.549067 
L 124.480378 189.396179 
L 131.015784 195.952931 
L 140.216462 206.051071 
L 143.958841 210.308566 
L 143.708415 212.502762 
L 141.126726 213.632254 
L 136.441019 213.940655 
L 132.1391 214.561955 
L 126.436321 214.785943 
L 118.991755 214.57075 
L 109.124569 216.551819 
L 104.022556 217.73021 
L 100.571397 219.546632 
L 96.644487 221.337364 
L 94.238674 223.627127 
L 92.480997 226.130303 
L 87.748722 231.024476 
L 85.697079 233.624794 
L 82.711516 236.132639 
L 80.815619 238.883738 
L 78.347147 244.684193 
L 77.476423 247.663882 
L 75.415332 253.67208 
L 75.205909 256.7496 
L 75.156409 259.833469 
L 75.260725 262.917188 
L 75.662492 265.992072 
L 77.249988 272.066145 
L 78.121951 275.063513 
L 80.888942 280.883028 
L 81.811541 283.791908 
L 82.504964 286.713215 
L 82.822611 289.68414 
L 82.903183 292.702221 
L 83.172697 295.699388 
L 84.590001 301.525852 
L 84.967932 304.518704 
L 85.743535 307.417912 
L 85.416193 310.633428 
L 85.437682 313.786131 
L 86.261663 316.711164 
L 88.451294 322.379443 
L 89.385592 325.270875 
L 89.768526 328.391243 
L 90.688545 331.314493 
L 92.163673 334.001877 
L 94.351726 336.347015 
L 100.005795 340.271662 
L 103.343149 341.865059 
L 106.94615 343.223459 
L 110.675137 344.408656 
L 121.925126 344.086075 
L 127.706093 343.519325 
L 136.047752 341.008241 
L 142.403727 339.533037 
L 154.346877 336.370338 
L 156.042517 337.748712 
L 153.740295 342.342591 
L 147.927497 350.095446 
L 143.59325 356.999439 
L 137.626526 365.739705 
L 132.74315 373.960478 
L 130.253629 380.314881 
L 127.089356 387.650332 
L 124.566749 394.694375 
L 124.056169 399.929803 
L 122.741269 406.276418 
L 122.540731 411.638851 
L 123.440837 415.916496 
L 123.971624 420.799871 
L 125.388467 424.74537 
L 127.329452 428.125042 
L 129.203246 431.688111 
L 131.579569 434.64189 
L 134.26293 437.206417 
L 137.121802 439.540774 
L 140.195286 441.558072 
L 143.43299 443.307624 
L 150.433783 445.827275 
L 154.028691 446.840591 
L 157.846412 447.355646 
L 161.504216 448.097111 
L 165.328164 448.40489 
L 168.995375 448.949956 
L 179.272815 451.915578 
L 182.578067 453.164703 
L 189.091793 455.98245 
L 195.700812 458.636772 
L 202.482369 460.809643 
L 205.946395 461.62843 
L 209.530506 461.885377 
L 213.233581 461.439963 
L 220.733835 459.203295 
L 224.543414 457.01797 
L 232.083257 450.723543 
L 235.866626 445.293658 
L 239.486994 439.323149 
L 242.831176 434.481862 
L 246.122919 426.131828 
L 249.122558 417.596782 
L 249.122558 417.596782 
" clip-path="url(#p3f83a6ad08)" style="fill: none; stroke: #ff0000; stroke-width: 1.5; stroke-linecap: square"/>
   </g>
   <g id="line2d_18">
    <path d="M 251.8225 81.568762 
L 245.367915 78.082066 
L 238.636552 74.349339 
L 231.624719 70.748142 
L 228.023663 69.09121 
L 224.368261 67.570126 
L 220.66614 66.203672 
L 216.925738 65.007816 
L 213.155125 63.990789 
L 209.362647 63.159284 
L 205.555752 62.513886 
L 201.741615 62.053728 
L 197.926695 61.775304 
L 194.116179 61.67133 
L 190.316769 61.741008 
L 186.53127 61.971443 
L 182.763647 62.355714 
L 179.017415 62.88686 
L 175.293398 63.55206 
L 171.593906 64.344448 
L 167.923247 65.262934 
L 164.280609 66.294881 
L 157.09115 68.689138 
L 150.038892 71.490061 
L 143.154607 74.698876 
L 139.786524 76.458012 
L 136.476576 78.325122 
L 133.231727 80.303411 
L 130.059245 82.395738 
L 126.970267 84.60972 
L 123.969213 86.942235 
L 121.075448 89.409989 
L 118.290381 92.003869 
L 115.634609 94.739148 
L 113.117894 97.615475 
L 110.754263 100.636744 
L 108.554037 103.80144 
L 106.536185 107.116689 
L 104.716069 110.584019 
L 103.109436 114.204123 
L 101.727879 117.972497 
L 100.596721 121.896867 
L 99.732868 125.975068 
L 99.15535 130.205658 
L 98.886762 134.588866 
L 98.951033 139.124314 
L 99.37392 143.811303 
L 100.184049 148.649418 
L 101.407946 153.634617 
L 103.076053 158.763804 
L 105.21821 164.031345 
L 107.854092 169.42301 
L 110.997846 174.920177 
L 114.630982 180.484207 
L 118.679038 186.046774 
L 130.561893 201.131822 
L 132.647279 204.791549 
L 132.727047 207.382066 
L 130.805495 209.036945 
L 127.237605 210.034037 
L 117.889743 211.505219 
L 113.102103 212.427092 
L 108.596548 213.600537 
L 104.477105 215.041767 
L 100.7956 216.743631 
L 97.561981 218.683695 
L 94.78541 220.839226 
L 92.443946 223.179651 
L 90.526515 225.679075 
L 89.014897 228.311363 
L 87.895939 231.053092 
L 87.149413 233.880879 
L 86.772663 236.775861 
L 86.731421 239.715149 
L 87.027685 242.682929 
L 87.644276 245.661361 
L 88.557122 248.633318 
L 89.753976 251.584252 
L 91.215839 254.500149 
L 92.923212 257.368302 
L 94.85616 260.17733 
L 96.975619 262.917188 
L 99.260957 265.580159 
L 101.672574 268.160538 
L 106.715788 273.064037 
L 114.057362 279.832619 
L 118.144717 284.089668 
L 119.703839 286.213272 
L 120.927964 288.360508 
L 121.758688 290.563104 
L 122.13921 292.856934 
L 122.075155 295.266834 
L 121.633381 297.801257 
L 120.760316 300.498664 
L 119.637436 303.330217 
L 116.685205 309.44869 
L 113.34518 316.07365 
L 110.148015 323.054439 
L 108.724454 326.628542 
L 107.462539 330.233343 
L 106.401536 333.843731 
L 105.545758 337.44891 
L 104.926655 341.023094 
L 104.535908 344.559479 
L 104.392156 348.036137 
L 104.496778 351.439412 
L 104.84529 354.758742 
L 105.438101 357.980328 
L 106.264684 361.097174 
L 107.319531 364.099256 
L 108.601864 366.973071 
L 110.090362 369.720014 
L 111.778947 372.331203 
L 113.651538 374.805826 
L 115.682752 377.152 
L 117.862222 379.36708 
L 120.161079 381.465664 
L 125.007876 385.380646 
L 134.825295 392.855748 
L 137.127253 394.858976 
L 139.314872 396.998557 
L 141.388906 399.291318 
L 143.351049 401.754314 
L 145.211468 404.394806 
L 146.998959 407.194414 
L 150.466163 413.184137 
L 154.007167 419.454443 
L 157.8395 425.700519 
L 159.916188 428.720564 
L 162.116837 431.629002 
L 164.44229 434.410506 
L 166.901799 437.030428 
L 169.492591 439.474246 
L 172.213361 441.72224 
L 175.059173 443.760254 
L 178.024993 445.572427 
L 181.103526 447.146412 
L 184.286796 448.47001 
L 187.566552 449.530011 
L 190.933401 450.314566 
L 194.377092 450.812652 
L 197.887779 451.009914 
L 201.454257 450.894029 
L 205.064427 450.453575 
L 208.708585 449.664072 
L 212.370595 448.523808 
L 216.04036 447.000337 
L 219.700143 445.092125 
L 223.338006 442.761204 
L 226.934157 440.006948 
L 230.471811 436.804592 
L 233.931122 433.142274 
L 237.29028 429.021217 
L 240.52618 424.462083 
L 243.614768 419.53004 
L 246.534442 414.347355 
L 251.8225 404.291461 
L 254.220678 400.308735 
L 256.530675 397.741677 
L 258.843725 396.890135 
L 261.254909 397.806916 
L 263.818393 400.030872 
L 272.388546 409.252206 
L 275.42906 411.963142 
L 278.496527 414.193113 
L 281.553491 415.869878 
L 284.565247 416.959699 
L 287.49748 417.442503 
L 290.315872 417.305669 
L 292.983434 416.531885 
L 295.463477 415.111361 
L 297.709218 413.00588 
L 299.668956 410.173436 
L 301.283595 406.562639 
L 302.472889 402.077988 
L 303.138174 396.59909 
L 303.131918 389.912452 
L 302.288431 381.80747 
L 300.314438 371.831864 
L 296.873268 359.52887 
L 291.567213 344.405924 
L 285.607298 329.223587 
L 285.703235 326.637583 
L 294.686907 340.246624 
L 305.34081 355.613619 
L 314.964292 368.002776 
L 323.510828 377.642495 
L 331.196014 385.14168 
L 338.2126 390.995778 
L 344.699939 395.559917 
L 350.75454 399.085459 
L 356.432853 401.739814 
L 361.786665 403.6649 
L 366.837519 404.948908 
L 371.612422 405.677257 
L 376.123206 405.908792 
L 380.376884 405.691295 
L 384.387116 405.075334 
L 388.154087 404.092679 
L 391.681066 402.775754 
L 394.968633 401.151801 
L 398.017459 399.246192 
L 400.826771 397.081236 
L 403.395987 394.67801 
L 405.723665 392.055599 
L 407.809284 389.232794 
L 409.650514 386.225947 
L 411.248261 383.053116 
L 412.601755 379.730154 
L 413.712468 376.273764 
L 414.580828 372.699066 
L 415.21107 369.022966 
L 415.609279 365.262526 
L 415.774315 361.429377 
L 415.726053 357.546948 
L 415.467043 353.626839 
L 415.016871 349.689174 
L 414.390631 345.749788 
L 413.615461 341.828887 
L 412.702651 337.936834 
L 410.603832 330.315864 
L 407.225352 319.4792 
L 405.152544 312.737139 
L 403.397971 306.380754 
L 402.003071 300.361409 
L 400.895681 294.60367 
L 399.572344 286.318464 
L 398.500246 278.33364 
L 397.982702 273.137704 
L 397.781974 268.014205 
L 397.848699 265.466084 
L 398.05841 262.917188 
L 398.429758 260.358148 
L 398.98103 257.778298 
L 399.705135 255.166987 
L 400.619543 252.512285 
L 401.710113 249.803721 
L 402.968585 247.031094 
L 405.942119 241.257088 
L 411.203707 231.936619 
L 416.88234 221.763147 
L 420.601501 214.520588 
L 424.075209 206.94889 
L 425.683724 203.051967 
L 427.178532 199.092812 
L 428.552321 195.076965 
L 429.786442 191.015088 
L 430.876078 186.913453 
L 431.808101 182.782435 
L 432.575019 178.630904 
L 433.168625 174.468773 
L 433.582288 170.30595 
L 433.809281 166.153099 
L 433.852657 162.016224 
L 433.698302 157.911145 
L 433.353838 153.842155 
L 432.805701 149.826332 
L 432.067452 145.864747 
L 431.126517 141.975101 
L 429.986642 138.165313 
L 428.651825 134.443163 
L 427.121319 130.820053 
L 425.399807 127.303733 
L 423.482506 123.909655 
L 421.379792 120.641727 
L 419.092575 117.51153 
L 416.622296 114.530784 
L 413.980076 111.702802 
L 411.163491 109.043381 
L 408.175381 106.564307 
L 405.032157 104.263943 
L 401.732796 102.158077 
L 398.285494 100.253553 
L 394.694579 98.561661 
L 390.972961 97.084126 
L 387.129499 95.826959 
L 383.173256 94.795886 
L 379.113491 93.996338 
L 374.96332 93.428389 
L 370.739271 93.086438 
L 366.458709 92.962018 
L 362.135889 93.049465 
L 357.793068 93.328828 
L 353.453657 93.774539 
L 344.88609 95.026027 
L 332.728434 97.035439 
L 328.954863 97.506302 
L 325.342093 97.789479 
L 321.892326 97.843021 
L 318.59106 97.659203 
L 315.416816 97.248331 
L 312.34483 96.633452 
L 309.342011 95.868397 
L 294.563871 91.490913 
L 288.535655 90.195374 
L 282.439811 89.277787 
L 270.230548 87.776306 
L 267.193989 87.220262 
L 264.159314 86.492525 
L 261.116664 85.57397 
L 258.055076 84.439562 
L 254.961292 83.095888 
L 254.961292 83.095888 
" clip-path="url(#p3f83a6ad08)" style="fill: none; stroke-dasharray: 5.55,2.4; stroke-dashoffset: 0; stroke: #0000ff; stroke-width: 1.5"/>
   </g>
   <g id="patch_3">
    <path d="M 251.8225 41.157188 
C 222.701244 41.157188 193.863155 46.89344 166.958622 58.037662 
C 140.054089 69.181885 115.606338 85.51735 95.0145 106.109188 
C 74.422662 126.701026 58.087197 151.148777 46.942975 178.05331 
C 35.798753 204.957842 30.0625 233.795931 30.0625 262.917188 
C 30.0625 292.038444 35.798753 320.876533 46.942975 347.781065 
C 58.087197 374.685598 74.422662 399.133349 95.0145 419.725187 
C 115.606338 440.317025 140.054089 456.65249 166.958622 467.796713 
C 193.863155 478.940935 222.701244 484.677188 251.8225 484.677188 
C 280.943756 484.677188 309.781845 478.940935 336.686378 467.796713 
C 363.590911 456.65249 388.038662 440.317025 408.6305 419.725187 
C 429.222338 399.133349 445.557803 374.685598 456.702025 347.781065 
C 467.846247 320.876533 473.5825 292.038444 473.5825 262.917188 
C 473.5825 233.795931 467.846247 204.957842 456.702025 178.05331 
C 445.557803 151.148777 429.222338 126.701026 408.6305 106.109188 
C 388.038662 85.51735 363.590911 69.181885 336.686378 58.037662 
C 309.781845 46.89344 280.943756 41.157188 251.8225 41.157188 
" style="fill: none; stroke: #000000; stroke-width: 0.8; stroke-linejoin: miter; stroke-linecap: square"/>
   </g>
   <g id="text_17">
    <g id="patch_4">
     <path d="M 384.8785 509.853188 
L 488.976938 509.853188 
Q 491.976938 509.853188 491.976938 506.853188 
L 491.976938 473.945063 
Q 491.976938 470.945063 488.976938 470.945063 
L 384.8785 470.945063 
Q 381.8785 470.945063 381.8785 473.945063 
L 381.8785 506.853188 
Q 381.8785 509.853188 384.8785 509.853188 
z
" style="fill: #ffffff; stroke: #808080; stroke-linejoin: miter"/>
    </g>
    <!-- G_cst: 3.5 dBi -->
    <g transform="translate(384.8785 481.821625)scale(0.1 -0.1)">
     <defs>
      <path id="DejaVuSans-47" d="M 3809 666 
L 3809 1919 
L 2778 1919 
L 2778 2438 
L 4434 2438 
L 4434 434 
Q 4069 175 3628 42 
Q 3188 -91 2688 -91 
Q 1594 -91 976 548 
Q 359 1188 359 2328 
Q 359 3472 976 4111 
Q 1594 4750 2688 4750 
Q 3144 4750 3555 4637 
Q 3966 4525 4313 4306 
L 4313 3634 
Q 3963 3931 3569 4081 
Q 3175 4231 2741 4231 
Q 1884 4231 1454 3753 
Q 1025 3275 1025 2328 
Q 1025 1384 1454 906 
Q 1884 428 2741 428 
Q 3075 428 3337 486 
Q 3600 544 3809 666 
z
" transform="scale(0.015625)"/>
      <path id="DejaVuSans-5f" d="M 3263 -1063 
L 3263 -1509 
L -63 -1509 
L -63 -1063 
L 3263 -1063 
z
" transform="scale(0.015625)"/>
      <path id="DejaVuSans-63" d="M 3122 3366 
L 3122 2828 
Q 2878 2963 2633 3030 
Q 2388 3097 2138 3097 
Q 1578 3097 1268 2742 
Q 959 2388 959 1747 
Q 959 1106 1268 751 
Q 1578 397 2138 397 
Q 2388 397 2633 464 
Q 2878 531 3122 666 
L 3122 134 
Q 2881 22 2623 -34 
Q 2366 -91 2075 -91 
Q 1284 -91 818 406 
Q 353 903 353 1747 
Q 353 2603 823 3093 
Q 1294 3584 2113 3584 
Q 2378 3584 2631 3529 
Q 2884 3475 3122 3366 
z
" transform="scale(0.015625)"/>
      <path id="DejaVuSans-73" d="M 2834 3397 
L 2834 2853 
Q 2591 2978 2328 3040 
Q 2066 3103 1784 3103 
Q 1356 3103 1142 2972 
Q 928 2841 928 2578 
Q 928 2378 1081 2264 
Q 1234 2150 1697 2047 
L 1894 2003 
Q 2506 1872 2764 1633 
Q 3022 1394 3022 966 
Q 3022 478 2636 193 
Q 2250 -91 1575 -91 
Q 1294 -91 989 -36 
Q 684 19 347 128 
L 347 722 
Q 666 556 975 473 
Q 1284 391 1588 391 
Q 1994 391 2212 530 
Q 2431 669 2431 922 
Q 2431 1156 2273 1281 
Q 2116 1406 1581 1522 
L 1381 1569 
Q 847 1681 609 1914 
Q 372 2147 372 2553 
Q 372 3047 722 3315 
Q 1072 3584 1716 3584 
Q 2034 3584 2315 3537 
Q 2597 3491 2834 3397 
z
" transform="scale(0.015625)"/>
      <path id="DejaVuSans-74" d="M 1172 4494 
L 1172 3500 
L 2356 3500 
L 2356 3053 
L 1172 3053 
L 1172 1153 
Q 1172 725 1289 603 
Q 1406 481 1766 481 
L 2356 481 
L 2356 0 
L 1766 0 
Q 1100 0 847 248 
Q 594 497 594 1153 
L 594 3053 
L 172 3053 
L 172 3500 
L 594 3500 
L 594 4494 
L 1172 4494 
z
" transform="scale(0.015625)"/>
      <path id="DejaVuSans-3a" d="M 750 794 
L 1409 794 
L 1409 0 
L 750 0 
L 750 794 
z
M 750 3309 
L 1409 3309 
L 1409 2516 
L 750 2516 
L 750 3309 
z
" transform="scale(0.015625)"/>
      <path id="DejaVuSans-20" transform="scale(0.015625)"/>
      <path id="DejaVuSans-2e" d="M 684 794 
L 1344 794 
L 1344 0 
L 684 0 
L 684 794 
z
" transform="scale(0.015625)"/>
      <path id="DejaVuSans-64" d="M 2906 2969 
L 2906 4863 
L 3481 4863 
L 3481 0 
L 2906 0 
L 2906 525 
Q 2725 213 2448 61 
Q 2172 -91 1784 -91 
Q 1150 -91 751 415 
Q 353 922 353 1747 
Q 353 2572 751 3078 
Q 1150 3584 1784 3584 
Q 2172 3584 2448 3432 
Q 2725 3281 2906 2969 
z
M 947 1747 
Q 947 1113 1208 752 
Q 1469 391 1925 391 
Q 2381 391 2643 752 
Q 2906 1113 2906 1747 
Q 2906 2381 2643 2742 
Q 2381 3103 1925 3103 
Q 1469 3103 1208 2742 
Q 947 2381 947 1747 
z
" transform="scale(0.015625)"/>
      <path id="DejaVuSans-42" d="M 1259 2228 
L 1259 519 
L 2272 519 
Q 2781 519 3026 730 
Q 3272 941 3272 1375 
Q 3272 1813 3026 2020 
Q 2781 2228 2272 2228 
L 1259 2228 
z
M 1259 4147 
L 1259 2741 
L 2194 2741 
Q 2656 2741 2882 2914 
Q 3109 3088 3109 3444 
Q 3109 3797 2882 3972 
Q 2656 4147 2194 4147 
L 1259 4147 
z
M 628 4666 
L 2241 4666 
Q 2963 4666 3353 4366 
Q 3744 4066 3744 3513 
Q 3744 3084 3544 2831 
Q 3344 2578 2956 2516 
Q 3422 2416 3680 2098 
Q 3938 1781 3938 1306 
Q 3938 681 3513 340 
Q 3088 0 2303 0 
L 628 0 
L 628 4666 
z
" transform="scale(0.015625)"/>
      <path id="DejaVuSans-69" d="M 603 3500 
L 1178 3500 
L 1178 0 
L 603 0 
L 603 3500 
z
M 603 4863 
L 1178 4863 
L 1178 4134 
L 603 4134 
L 603 4863 
z
" transform="scale(0.015625)"/>
     </defs>
     <use xlink:href="#DejaVuSans-47"/>
     <use xlink:href="#DejaVuSans-5f" x="77.490234"/>
     <use xlink:href="#DejaVuSans-63" x="127.490234"/>
     <use xlink:href="#DejaVuSans-73" x="182.470703"/>
     <use xlink:href="#DejaVuSans-74" x="234.570312"/>
     <use xlink:href="#DejaVuSans-3a" x="273.779297"/>
     <use xlink:href="#DejaVuSans-20" x="307.470703"/>
     <use xlink:href="#DejaVuSans-33" x="339.257812"/>
     <use xlink:href="#DejaVuSans-2e" x="402.880859"/>
     <use xlink:href="#DejaVuSans-35" x="434.667969"/>
     <use xlink:href="#DejaVuSans-20" x="498.291016"/>
     <use xlink:href="#DejaVuSans-64" x="530.078125"/>
     <use xlink:href="#DejaVuSans-42" x="593.554688"/>
     <use xlink:href="#DejaVuSans-69" x="662.158203"/>
    </g>
    <!-- G_inpe: 0.4 dBi -->
    <g transform="translate(384.8785 493.297563)scale(0.1 -0.1)">
     <defs>
      <path id="DejaVuSans-6e" d="M 3513 2113 
L 3513 0 
L 2938 0 
L 2938 2094 
Q 2938 2591 2744 2837 
Q 2550 3084 2163 3084 
Q 1697 3084 1428 2787 
Q 1159 2491 1159 1978 
L 1159 0 
L 581 0 
L 581 3500 
L 1159 3500 
L 1159 2956 
Q 1366 3272 1645 3428 
Q 1925 3584 2291 3584 
Q 2894 3584 3203 3211 
Q 3513 2838 3513 2113 
z
" transform="scale(0.015625)"/>
      <path id="DejaVuSans-70" d="M 1159 525 
L 1159 -1331 
L 581 -1331 
L 581 3500 
L 1159 3500 
L 1159 2969 
Q 1341 3281 1617 3432 
Q 1894 3584 2278 3584 
Q 2916 3584 3314 3078 
Q 3713 2572 3713 1747 
Q 3713 922 3314 415 
Q 2916 -91 2278 -91 
Q 1894 -91 1617 61 
Q 1341 213 1159 525 
z
M 3116 1747 
Q 3116 2381 2855 2742 
Q 2594 3103 2138 3103 
Q 1681 3103 1420 2742 
Q 1159 2381 1159 1747 
Q 1159 1113 1420 752 
Q 1681 391 2138 391 
Q 2594 391 2855 752 
Q 3116 1113 3116 1747 
z
" transform="scale(0.015625)"/>
      <path id="DejaVuSans-65" d="M 3597 1894 
L 3597 1613 
L 953 1613 
Q 991 1019 1311 708 
Q 1631 397 2203 397 
Q 2534 397 2845 478 
Q 3156 559 3463 722 
L 3463 178 
Q 3153 47 2828 -22 
Q 2503 -91 2169 -91 
Q 1331 -91 842 396 
Q 353 884 353 1716 
Q 353 2575 817 3079 
Q 1281 3584 2069 3584 
Q 2775 3584 3186 3129 
Q 3597 2675 3597 1894 
z
M 3022 2063 
Q 3016 2534 2758 2815 
Q 2500 3097 2075 3097 
Q 1594 3097 1305 2825 
Q 1016 2553 972 2059 
L 3022 2063 
z
" transform="scale(0.015625)"/>
     </defs>
     <use xlink:href="#DejaVuSans-47"/>
     <use xlink:href="#DejaVuSans-5f" x="77.490234"/>
     <use xlink:href="#DejaVuSans-69" x="127.490234"/>
     <use xlink:href="#DejaVuSans-6e" x="155.273438"/>
     <use xlink:href="#DejaVuSans-70" x="218.652344"/>
     <use xlink:href="#DejaVuSans-65" x="282.128906"/>
     <use xlink:href="#DejaVuSans-3a" x="343.652344"/>
     <use xlink:href="#DejaVuSans-20" x="377.34375"/>
     <use xlink:href="#DejaVuSans-30" x="409.130859"/>
     <use xlink:href="#DejaVuSans-2e" x="472.753906"/>
     <use xlink:href="#DejaVuSans-34" x="504.541016"/>
     <use xlink:href="#DejaVuSans-20" x="568.164062"/>
     <use xlink:href="#DejaVuSans-64" x="599.951172"/>
     <use xlink:href="#DejaVuSans-42" x="663.427734"/>
     <use xlink:href="#DejaVuSans-69" x="732.03125"/>
    </g>
    <!-- Pearson Coef: -0.122 -->
    <g transform="translate(384.8785 504.7735)scale(0.1 -0.1)">
     <defs>
      <path id="DejaVuSans-50" d="M 1259 4147 
L 1259 2394 
L 2053 2394 
Q 2494 2394 2734 2622 
Q 2975 2850 2975 3272 
Q 2975 3691 2734 3919 
Q 2494 4147 2053 4147 
L 1259 4147 
z
M 628 4666 
L 2053 4666 
Q 2838 4666 3239 4311 
Q 3641 3956 3641 3272 
Q 3641 2581 3239 2228 
Q 2838 1875 2053 1875 
L 1259 1875 
L 1259 0 
L 628 0 
L 628 4666 
z
" transform="scale(0.015625)"/>
      <path id="DejaVuSans-61" d="M 2194 1759 
Q 1497 1759 1228 1600 
Q 959 1441 959 1056 
Q 959 750 1161 570 
Q 1363 391 1709 391 
Q 2188 391 2477 730 
Q 2766 1069 2766 1631 
L 2766 1759 
L 2194 1759 
z
M 3341 1997 
L 3341 0 
L 2766 0 
L 2766 531 
Q 2569 213 2275 61 
Q 1981 -91 1556 -91 
Q 1019 -91 701 211 
Q 384 513 384 1019 
Q 384 1609 779 1909 
Q 1175 2209 1959 2209 
L 2766 2209 
L 2766 2266 
Q 2766 2663 2505 2880 
Q 2244 3097 1772 3097 
Q 1472 3097 1187 3025 
Q 903 2953 641 2809 
L 641 3341 
Q 956 3463 1253 3523 
Q 1550 3584 1831 3584 
Q 2591 3584 2966 3190 
Q 3341 2797 3341 1997 
z
" transform="scale(0.015625)"/>
      <path id="DejaVuSans-72" d="M 2631 2963 
Q 2534 3019 2420 3045 
Q 2306 3072 2169 3072 
Q 1681 3072 1420 2755 
Q 1159 2438 1159 1844 
L 1159 0 
L 581 0 
L 581 3500 
L 1159 3500 
L 1159 2956 
Q 1341 3275 1631 3429 
Q 1922 3584 2338 3584 
Q 2397 3584 2469 3576 
Q 2541 3569 2628 3553 
L 2631 2963 
z
" transform="scale(0.015625)"/>
      <path id="DejaVuSans-6f" d="M 1959 3097 
Q 1497 3097 1228 2736 
Q 959 2375 959 1747 
Q 959 1119 1226 758 
Q 1494 397 1959 397 
Q 2419 397 2687 759 
Q 2956 1122 2956 1747 
Q 2956 2369 2687 2733 
Q 2419 3097 1959 3097 
z
M 1959 3584 
Q 2709 3584 3137 3096 
Q 3566 2609 3566 1747 
Q 3566 888 3137 398 
Q 2709 -91 1959 -91 
Q 1206 -91 779 398 
Q 353 888 353 1747 
Q 353 2609 779 3096 
Q 1206 3584 1959 3584 
z
" transform="scale(0.015625)"/>
      <path id="DejaVuSans-43" d="M 4122 4306 
L 4122 3641 
Q 3803 3938 3442 4084 
Q 3081 4231 2675 4231 
Q 1875 4231 1450 3742 
Q 1025 3253 1025 2328 
Q 1025 1406 1450 917 
Q 1875 428 2675 428 
Q 3081 428 3442 575 
Q 3803 722 4122 1019 
L 4122 359 
Q 3791 134 3420 21 
Q 3050 -91 2638 -91 
Q 1578 -91 968 557 
Q 359 1206 359 2328 
Q 359 3453 968 4101 
Q 1578 4750 2638 4750 
Q 3056 4750 3426 4639 
Q 3797 4528 4122 4306 
z
" transform="scale(0.015625)"/>
      <path id="DejaVuSans-66" d="M 2375 4863 
L 2375 4384 
L 1825 4384 
Q 1516 4384 1395 4259 
Q 1275 4134 1275 3809 
L 1275 3500 
L 2222 3500 
L 2222 3053 
L 1275 3053 
L 1275 0 
L 697 0 
L 697 3053 
L 147 3053 
L 147 3500 
L 697 3500 
L 697 3744 
Q 697 4328 969 4595 
Q 1241 4863 1831 4863 
L 2375 4863 
z
" transform="scale(0.015625)"/>
      <path id="DejaVuSans-2d" d="M 313 2009 
L 1997 2009 
L 1997 1497 
L 313 1497 
L 313 2009 
z
" transform="scale(0.015625)"/>
     </defs>
     <use xlink:href="#DejaVuSans-50"/>
     <use xlink:href="#DejaVuSans-65" x="56.677734"/>
     <use xlink:href="#DejaVuSans-61" x="118.201172"/>
     <use xlink:href="#DejaVuSans-72" x="179.480469"/>
     <use xlink:href="#DejaVuSans-73" x="220.59375"/>
     <use xlink:href="#DejaVuSans-6f" x="272.693359"/>
     <use xlink:href="#DejaVuSans-6e" x="333.875"/>
     <use xlink:href="#DejaVuSans-20" x="397.253906"/>
     <use xlink:href="#DejaVuSans-43" x="429.041016"/>
     <use xlink:href="#DejaVuSans-6f" x="498.865234"/>
     <use xlink:href="#DejaVuSans-65" x="560.046875"/>
     <use xlink:href="#DejaVuSans-66" x="621.570312"/>
     <use xlink:href="#DejaVuSans-3a" x="653.150391"/>
     <use xlink:href="#DejaVuSans-20" x="686.841797"/>
     <use xlink:href="#DejaVuSans-2d" x="718.628906"/>
     <use xlink:href="#DejaVuSans-30" x="754.712891"/>
     <use xlink:href="#DejaVuSans-2e" x="818.335938"/>
     <use xlink:href="#DejaVuSans-31" x="850.123047"/>
     <use xlink:href="#DejaVuSans-32" x="913.746094"/>
     <use xlink:href="#DejaVuSans-32" x="977.369141"/>
    </g>
   </g>
   <g id="text_18">
    <g id="patch_5">
     <path d="M 52.2385 56.370938 
L 129.496 56.370938 
Q 133.096 56.370938 133.096 52.770938 
L 133.096 41.157188 
Q 133.096 37.557188 129.496 37.557188 
L 52.2385 37.557188 
Q 48.6385 37.557188 48.6385 41.157188 
L 48.6385 52.770938 
Q 48.6385 56.370938 52.2385 56.370938 
z
" style="fill: #ffffff; stroke: #808080; stroke-linejoin: miter"/>
    </g>
    <!-- Freq: 14 GHz -->
    <g transform="translate(52.2385 50.275313)scale(0.12 -0.12)">
     <defs>
      <path id="DejaVuSans-46" d="M 628 4666 
L 3309 4666 
L 3309 4134 
L 1259 4134 
L 1259 2759 
L 3109 2759 
L 3109 2228 
L 1259 2228 
L 1259 0 
L 628 0 
L 628 4666 
z
" transform="scale(0.015625)"/>
      <path id="DejaVuSans-71" d="M 947 1747 
Q 947 1113 1208 752 
Q 1469 391 1925 391 
Q 2381 391 2643 752 
Q 2906 1113 2906 1747 
Q 2906 2381 2643 2742 
Q 2381 3103 1925 3103 
Q 1469 3103 1208 2742 
Q 947 2381 947 1747 
z
M 2906 525 
Q 2725 213 2448 61 
Q 2172 -91 1784 -91 
Q 1150 -91 751 415 
Q 353 922 353 1747 
Q 353 2572 751 3078 
Q 1150 3584 1784 3584 
Q 2172 3584 2448 3432 
Q 2725 3281 2906 2969 
L 2906 3500 
L 3481 3500 
L 3481 -1331 
L 2906 -1331 
L 2906 525 
z
" transform="scale(0.015625)"/>
      <path id="DejaVuSans-48" d="M 628 4666 
L 1259 4666 
L 1259 2753 
L 3553 2753 
L 3553 4666 
L 4184 4666 
L 4184 0 
L 3553 0 
L 3553 2222 
L 1259 2222 
L 1259 0 
L 628 0 
L 628 4666 
z
" transform="scale(0.015625)"/>
      <path id="DejaVuSans-7a" d="M 353 3500 
L 3084 3500 
L 3084 2975 
L 922 459 
L 3084 459 
L 3084 0 
L 275 0 
L 275 525 
L 2438 3041 
L 353 3041 
L 353 3500 
z
" transform="scale(0.015625)"/>
     </defs>
     <use xlink:href="#DejaVuSans-46"/>
     <use xlink:href="#DejaVuSans-72" x="50.269531"/>
     <use xlink:href="#DejaVuSans-65" x="89.132812"/>
     <use xlink:href="#DejaVuSans-71" x="150.65625"/>
     <use xlink:href="#DejaVuSans-3a" x="214.132812"/>
     <use xlink:href="#DejaVuSans-20" x="247.824219"/>
     <use xlink:href="#DejaVuSans-31" x="279.611328"/>
     <use xlink:href="#DejaVuSans-34" x="343.234375"/>
     <use xlink:href="#DejaVuSans-20" x="406.857422"/>
     <use xlink:href="#DejaVuSans-47" x="438.644531"/>
     <use xlink:href="#DejaVuSans-48" x="516.134766"/>
     <use xlink:href="#DejaVuSans-7a" x="591.330078"/>
    </g>
   </g>
   <g id="text_19">
    <!-- Radiation Diagram - 1AVHF14 -->
    <g transform="translate(162.578125 16.318125)scale(0.12 -0.12)">
     <defs>
      <path id="DejaVuSans-52" d="M 2841 2188 
Q 3044 2119 3236 1894 
Q 3428 1669 3622 1275 
L 4263 0 
L 3584 0 
L 2988 1197 
Q 2756 1666 2539 1819 
Q 2322 1972 1947 1972 
L 1259 1972 
L 1259 0 
L 628 0 
L 628 4666 
L 2053 4666 
Q 2853 4666 3247 4331 
Q 3641 3997 3641 3322 
Q 3641 2881 3436 2590 
Q 3231 2300 2841 2188 
z
M 1259 4147 
L 1259 2491 
L 2053 2491 
Q 2509 2491 2742 2702 
Q 2975 2913 2975 3322 
Q 2975 3731 2742 3939 
Q 2509 4147 2053 4147 
L 1259 4147 
z
" transform="scale(0.015625)"/>
      <path id="DejaVuSans-44" d="M 1259 4147 
L 1259 519 
L 2022 519 
Q 2988 519 3436 956 
Q 3884 1394 3884 2338 
Q 3884 3275 3436 3711 
Q 2988 4147 2022 4147 
L 1259 4147 
z
M 628 4666 
L 1925 4666 
Q 3281 4666 3915 4102 
Q 4550 3538 4550 2338 
Q 4550 1131 3912 565 
Q 3275 0 1925 0 
L 628 0 
L 628 4666 
z
" transform="scale(0.015625)"/>
      <path id="DejaVuSans-67" d="M 2906 1791 
Q 2906 2416 2648 2759 
Q 2391 3103 1925 3103 
Q 1463 3103 1205 2759 
Q 947 2416 947 1791 
Q 947 1169 1205 825 
Q 1463 481 1925 481 
Q 2391 481 2648 825 
Q 2906 1169 2906 1791 
z
M 3481 434 
Q 3481 -459 3084 -895 
Q 2688 -1331 1869 -1331 
Q 1566 -1331 1297 -1286 
Q 1028 -1241 775 -1147 
L 775 -588 
Q 1028 -725 1275 -790 
Q 1522 -856 1778 -856 
Q 2344 -856 2625 -561 
Q 2906 -266 2906 331 
L 2906 616 
Q 2728 306 2450 153 
Q 2172 0 1784 0 
Q 1141 0 747 490 
Q 353 981 353 1791 
Q 353 2603 747 3093 
Q 1141 3584 1784 3584 
Q 2172 3584 2450 3431 
Q 2728 3278 2906 2969 
L 2906 3500 
L 3481 3500 
L 3481 434 
z
" transform="scale(0.015625)"/>
      <path id="DejaVuSans-6d" d="M 3328 2828 
Q 3544 3216 3844 3400 
Q 4144 3584 4550 3584 
Q 5097 3584 5394 3201 
Q 5691 2819 5691 2113 
L 5691 0 
L 5113 0 
L 5113 2094 
Q 5113 2597 4934 2840 
Q 4756 3084 4391 3084 
Q 3944 3084 3684 2787 
Q 3425 2491 3425 1978 
L 3425 0 
L 2847 0 
L 2847 2094 
Q 2847 2600 2669 2842 
Q 2491 3084 2119 3084 
Q 1678 3084 1418 2786 
Q 1159 2488 1159 1978 
L 1159 0 
L 581 0 
L 581 3500 
L 1159 3500 
L 1159 2956 
Q 1356 3278 1631 3431 
Q 1906 3584 2284 3584 
Q 2666 3584 2933 3390 
Q 3200 3197 3328 2828 
z
" transform="scale(0.015625)"/>
      <path id="DejaVuSans-41" d="M 2188 4044 
L 1331 1722 
L 3047 1722 
L 2188 4044 
z
M 1831 4666 
L 2547 4666 
L 4325 0 
L 3669 0 
L 3244 1197 
L 1141 1197 
L 716 0 
L 50 0 
L 1831 4666 
z
" transform="scale(0.015625)"/>
      <path id="DejaVuSans-56" d="M 1831 0 
L 50 4666 
L 709 4666 
L 2188 738 
L 3669 4666 
L 4325 4666 
L 2547 0 
L 1831 0 
z
" transform="scale(0.015625)"/>
     </defs>
     <use xlink:href="#DejaVuSans-52"/>
     <use xlink:href="#DejaVuSans-61" x="67.232422"/>
     <use xlink:href="#DejaVuSans-64" x="128.511719"/>
     <use xlink:href="#DejaVuSans-69" x="191.988281"/>
     <use xlink:href="#DejaVuSans-61" x="219.771484"/>
     <use xlink:href="#DejaVuSans-74" x="281.050781"/>
     <use xlink:href="#DejaVuSans-69" x="320.259766"/>
     <use xlink:href="#DejaVuSans-6f" x="348.042969"/>
     <use xlink:href="#DejaVuSans-6e" x="409.224609"/>
     <use xlink:href="#DejaVuSans-20" x="472.603516"/>
     <use xlink:href="#DejaVuSans-44" x="504.390625"/>
     <use xlink:href="#DejaVuSans-69" x="581.392578"/>
     <use xlink:href="#DejaVuSans-61" x="609.175781"/>
     <use xlink:href="#DejaVuSans-67" x="670.455078"/>
     <use xlink:href="#DejaVuSans-72" x="733.931641"/>
     <use xlink:href="#DejaVuSans-61" x="775.044922"/>
     <use xlink:href="#DejaVuSans-6d" x="836.324219"/>
     <use xlink:href="#DejaVuSans-20" x="933.736328"/>
     <use xlink:href="#DejaVuSans-2d" x="965.523438"/>
     <use xlink:href="#DejaVuSans-20" x="1001.607422"/>
     <use xlink:href="#DejaVuSans-31" x="1033.394531"/>
     <use xlink:href="#DejaVuSans-41" x="1097.017578"/>
     <use xlink:href="#DejaVuSans-56" x="1159.050781"/>
     <use xlink:href="#DejaVuSans-48" x="1227.458984"/>
     <use xlink:href="#DejaVuSans-46" x="1302.654297"/>
     <use xlink:href="#DejaVuSans-31" x="1360.173828"/>
     <use xlink:href="#DejaVuSans-34" x="1423.796875"/>
    </g>
   </g>
   <g id="legend_1">
    <g id="patch_6">
     <path d="M 411.802812 78.513438 
L 466.5825 78.513438 
Q 468.5825 78.513438 468.5825 76.513438 
L 468.5825 48.157188 
Q 468.5825 46.157188 466.5825 46.157188 
L 411.802812 46.157188 
Q 409.802812 46.157188 409.802812 48.157188 
L 409.802812 76.513438 
Q 409.802812 78.513438 411.802812 78.513438 
z
" style="fill: #ffffff; opacity: 0.8; stroke: #cccccc; stroke-linejoin: miter"/>
    </g>
    <g id="line2d_19">
     <path d="M 413.802812 54.255625 
L 423.802812 54.255625 
L 433.802812 54.255625 
" style="fill: none; stroke: #ff0000; stroke-width: 1.5; stroke-linecap: square"/>
    </g>
    <g id="text_20">
     <!-- INPE -->
     <g transform="translate(441.802812 57.755625)scale(0.1 -0.1)">
      <defs>
       <path id="DejaVuSans-49" d="M 628 4666 
L 1259 4666 
L 1259 0 
L 628 0 
L 628 4666 
z
" transform="scale(0.015625)"/>
       <path id="DejaVuSans-4e" d="M 628 4666 
L 1478 4666 
L 3547 763 
L 3547 4666 
L 4159 4666 
L 4159 0 
L 3309 0 
L 1241 3903 
L 1241 0 
L 628 0 
L 628 4666 
z
" transform="scale(0.015625)"/>
       <path id="DejaVuSans-45" d="M 628 4666 
L 3578 4666 
L 3578 4134 
L 1259 4134 
L 1259 2753 
L 3481 2753 
L 3481 2222 
L 1259 2222 
L 1259 531 
L 3634 531 
L 3634 0 
L 628 0 
L 628 4666 
z
" transform="scale(0.015625)"/>
      </defs>
      <use xlink:href="#DejaVuSans-49"/>
      <use xlink:href="#DejaVuSans-4e" x="29.492188"/>
      <use xlink:href="#DejaVuSans-50" x="104.296875"/>
      <use xlink:href="#DejaVuSans-45" x="164.599609"/>
     </g>
    </g>
    <g id="line2d_20">
     <path d="M 413.802812 68.93375 
L 423.802812 68.93375 
L 433.802812 68.93375 
" style="fill: none; stroke-dasharray: 5.55,2.4; stroke-dashoffset: 0; stroke: #0000ff; stroke-width: 1.5"/>
    </g>
    <g id="text_21">
     <!-- CST -->
     <g transform="translate(441.802812 72.43375)scale(0.1 -0.1)">
      <defs>
       <path id="DejaVuSans-53" d="M 3425 4513 
L 3425 3897 
Q 3066 4069 2747 4153 
Q 2428 4238 2131 4238 
Q 1616 4238 1336 4038 
Q 1056 3838 1056 3469 
Q 1056 3159 1242 3001 
Q 1428 2844 1947 2747 
L 2328 2669 
Q 3034 2534 3370 2195 
Q 3706 1856 3706 1288 
Q 3706 609 3251 259 
Q 2797 -91 1919 -91 
Q 1588 -91 1214 -16 
Q 841 59 441 206 
L 441 856 
Q 825 641 1194 531 
Q 1563 422 1919 422 
Q 2459 422 2753 634 
Q 3047 847 3047 1241 
Q 3047 1584 2836 1778 
Q 2625 1972 2144 2069 
L 1759 2144 
Q 1053 2284 737 2584 
Q 422 2884 422 3419 
Q 422 4038 858 4394 
Q 1294 4750 2059 4750 
Q 2388 4750 2728 4690 
Q 3069 4631 3425 4513 
z
" transform="scale(0.015625)"/>
       <path id="DejaVuSans-54" d="M -19 4666 
L 3928 4666 
L 3928 4134 
L 2272 4134 
L 2272 0 
L 1638 0 
L 1638 4134 
L -19 4134 
L -19 4666 
z
" transform="scale(0.015625)"/>
      </defs>
      <use xlink:href="#DejaVuSans-43"/>
      <use xlink:href="#DejaVuSans-53" x="69.824219"/>
      <use xlink:href="#DejaVuSans-54" x="133.300781"/>
     </g>
    </g>
   </g>
  </g>
 </g>
 <defs>
  <clipPath id="p3f83a6ad08">
   <path d="M 473.5825 262.917188 
C 473.5825 233.795931 467.846247 204.957842 456.702025 178.05331 
C 445.557803 151.148777 429.222338 126.701026 408.6305 106.109188 
C 388.038662 85.51735 363.590911 69.181885 336.686378 58.037662 
C 309.781845 46.89344 280.943756 41.157188 251.8225 41.157188 
C 222.701244 41.157188 193.863155 46.89344 166.958622 58.037662 
C 140.054089 69.181885 115.606338 85.51735 95.0145 106.109188 
C 74.422662 126.701026 58.087197 151.148777 46.942975 178.05331 
C 35.798753 204.957842 30.0625 233.795931 30.0625 262.917188 
C 30.0625 292.038444 35.798753 320.876533 46.942975 347.781065 
C 58.087197 374.685598 74.422662 399.133349 95.0145 419.725187 
C 115.606338 440.317025 140.054089 456.65249 166.958622 467.796713 
C 193.863155 478.940935 222.701244 484.677188 251.8225 484.677188 
C 280.943756 484.677188 309.781845 478.940935 336.686378 467.796713 
C 363.590911 456.65249 388.038662 440.317025 408.6305 419.725187 
C 429.222338 399.133349 445.557803 374.685598 456.702025 347.781065 
C 467.846247 320.876533 473.5825 292.038444 473.5825 262.917188 
M 251.8225 262.917188 
C 251.8225 262.917188 251.8225 262.917188 251.8225 262.917188 
C 251.8225 262.917188 251.8225 262.917188 251.8225 262.917188 
C 251.8225 262.917188 251.8225 262.917188 251.8225 262.917188 
C 251.8225 262.917188 251.8225 262.917188 251.8225 262.917188 
C 251.8225 262.917188 251.8225 262.917188 251.8225 262.917188 
C 251.8225 262.917188 251.8225 262.917188 251.8225 262.917188 
C 251.8225 262.917188 251.8225 262.917188 251.8225 262.917188 
C 251.8225 262.917188 251.8225 262.917188 251.8225 262.917188 
C 251.8225 262.917188 251.8225 262.917188 251.8225 262.917188 
C 251.8225 262.917188 251.8225 262.917188 251.8225 262.917188 
C 251.8225 262.917188 251.8225 262.917188 251.8225 262.917188 
C 251.8225 262.917188 251.8225 262.917188 251.8225 262.917188 
C 251.8225 262.917188 251.8225 262.917188 251.8225 262.917188 
C 251.8225 262.917188 251.8225 262.917188 251.8225 262.917188 
C 251.8225 262.917188 251.8225 262.917188 251.8225 262.917188 
C 251.8225 262.917188 251.8225 262.917188 251.8225 262.917188 
M 473.5825 262.917188 
z
"/>
  </clipPath>
 </defs>
</svg>
