<?xml version="1.0" encoding="utf-8" standalone="no"?>
<!DOCTYPE svg PUBLIC "-//W3C//DTD SVG 1.1//EN"
  "http://www.w3.org/Graphics/SVG/1.1/DTD/svg11.dtd">
<svg xmlns:xlink="http://www.w3.org/1999/xlink" width="506.82625pt" height="514.053188pt" viewBox="0 0 506.82625 514.053188" xmlns="http://www.w3.org/2000/svg" version="1.1">
 <metadata>
  <rdf:RDF xmlns:dc="http://purl.org/dc/elements/1.1/" xmlns:cc="http://creativecommons.org/ns#" xmlns:rdf="http://www.w3.org/1999/02/22-rdf-syntax-ns#">
   <cc:Work>
    <dc:type rdf:resource="http://purl.org/dc/dcmitype/StillImage"/>
    <dc:date>2023-11-04T18:01:43.114888</dc:date>
    <dc:format>image/svg+xml</dc:format>
    <dc:creator>
     <cc:Agent>
      <dc:title>Matplotlib v3.5.1, https://matplotlib.org/</dc:title>
     </cc:Agent>
    </dc:creator>
   </cc:Work>
  </rdf:RDF>
 </metadata>
 <defs>
  <style type="text/css">*{stroke-linejoin: round; stroke-linecap: butt}</style>
 </defs>
 <g id="figure_1">
  <g id="patch_1">
   <path d="M 0 514.053188 
L 506.82625 514.053188 
L 506.82625 0 
L 0 0 
z
" style="fill: #ffffff"/>
  </g>
  <g id="axes_1">
   <g id="patch_2">
    <path d="M 473.5825 262.917188 
C 473.5825 233.795931 467.846247 204.957842 456.702025 178.05331 
C 445.557803 151.148777 429.222338 126.701026 408.6305 106.109188 
C 388.038662 85.51735 363.590911 69.181885 336.686378 58.037662 
C 309.781845 46.89344 280.943756 41.157188 251.8225 41.157188 
C 222.701244 41.157188 193.863155 46.89344 166.958622 58.037662 
C 140.054089 69.181885 115.606338 85.51735 95.0145 106.109188 
C 74.422662 126.701026 58.087197 151.148777 46.942975 178.05331 
C 35.798753 204.957842 30.0625 233.795931 30.0625 262.917188 
C 30.0625 292.038444 35.798753 320.876533 46.942975 347.781065 
C 58.087197 374.685598 74.422662 399.133349 95.0145 419.725187 
C 115.606338 440.317025 140.054089 456.65249 166.958622 467.796713 
C 193.863155 478.940935 222.701244 484.677188 251.8225 484.677188 
C 280.943756 484.677188 309.781845 478.940935 336.686378 467.796713 
C 363.590911 456.65249 388.038662 440.317025 408.6305 419.725187 
C 429.222338 399.133349 445.557803 374.685598 456.702025 347.781065 
C 467.846247 320.876533 473.5825 292.038444 473.5825 262.917188 
M 251.8225 262.917188 
C 251.8225 262.917188 251.8225 262.917188 251.8225 262.917188 
C 251.8225 262.917188 251.8225 262.917188 251.8225 262.917188 
C 251.8225 262.917188 251.8225 262.917188 251.8225 262.917188 
C 251.8225 262.917188 251.8225 262.917188 251.8225 262.917188 
C 251.8225 262.917188 251.8225 262.917188 251.8225 262.917188 
C 251.8225 262.917188 251.8225 262.917188 251.8225 262.917188 
C 251.8225 262.917188 251.8225 262.917188 251.8225 262.917188 
C 251.8225 262.917188 251.8225 262.917188 251.8225 262.917188 
C 251.8225 262.917188 251.8225 262.917188 251.8225 262.917188 
C 251.8225 262.917188 251.8225 262.917188 251.8225 262.917188 
C 251.8225 262.917188 251.8225 262.917188 251.8225 262.917188 
C 251.8225 262.917188 251.8225 262.917188 251.8225 262.917188 
C 251.8225 262.917188 251.8225 262.917188 251.8225 262.917188 
C 251.8225 262.917188 251.8225 262.917188 251.8225 262.917188 
C 251.8225 262.917188 251.8225 262.917188 251.8225 262.917188 
C 251.8225 262.917188 251.8225 262.917188 251.8225 262.917188 
M 473.5825 262.917188 
z
" style="fill: #ffffff"/>
   </g>
   <g id="matplotlib.axis_1">
    <g id="xtick_1">
     <g id="line2d_1">
      <path d="M 251.8225 262.917188 
L 251.8225 41.157188 
" clip-path="url(#pdc69ee4b3c)" style="fill: none; stroke: #b0b0b0; stroke-width: 0.8; stroke-linecap: square"/>
     </g>
     <g id="text_1">
      <!-- 0° -->
      <g transform="translate(246.14125 29.916563)scale(0.1 -0.1)">
       <defs>
        <path id="DejaVuSans-30" d="M 2034 4250 
Q 1547 4250 1301 3770 
Q 1056 3291 1056 2328 
Q 1056 1369 1301 889 
Q 1547 409 2034 409 
Q 2525 409 2770 889 
Q 3016 1369 3016 2328 
Q 3016 3291 2770 3770 
Q 2525 4250 2034 4250 
z
M 2034 4750 
Q 2819 4750 3233 4129 
Q 3647 3509 3647 2328 
Q 3647 1150 3233 529 
Q 2819 -91 2034 -91 
Q 1250 -91 836 529 
Q 422 1150 422 2328 
Q 422 3509 836 4129 
Q 1250 4750 2034 4750 
z
" transform="scale(0.015625)"/>
        <path id="DejaVuSans-b0" d="M 1600 4347 
Q 1350 4347 1178 4173 
Q 1006 4000 1006 3750 
Q 1006 3503 1178 3333 
Q 1350 3163 1600 3163 
Q 1850 3163 2022 3333 
Q 2194 3503 2194 3750 
Q 2194 3997 2020 4172 
Q 1847 4347 1600 4347 
z
M 1600 4750 
Q 1800 4750 1984 4673 
Q 2169 4597 2303 4453 
Q 2447 4313 2519 4134 
Q 2591 3956 2591 3750 
Q 2591 3338 2302 3052 
Q 2013 2766 1594 2766 
Q 1172 2766 890 3047 
Q 609 3328 609 3750 
Q 609 4169 896 4459 
Q 1184 4750 1600 4750 
z
" transform="scale(0.015625)"/>
       </defs>
       <use xlink:href="#DejaVuSans-30"/>
       <use xlink:href="#DejaVuSans-b0" x="63.623047"/>
      </g>
     </g>
    </g>
    <g id="xtick_2">
     <g id="line2d_2">
      <path d="M 251.8225 262.917188 
L 95.0145 106.109188 
" clip-path="url(#pdc69ee4b3c)" style="fill: none; stroke: #b0b0b0; stroke-width: 0.8; stroke-linecap: square"/>
     </g>
     <g id="text_2">
      <!-- 45° -->
      <g transform="translate(76.252505 98.969068)scale(0.1 -0.1)">
       <defs>
        <path id="DejaVuSans-34" d="M 2419 4116 
L 825 1625 
L 2419 1625 
L 2419 4116 
z
M 2253 4666 
L 3047 4666 
L 3047 1625 
L 3713 1625 
L 3713 1100 
L 3047 1100 
L 3047 0 
L 2419 0 
L 2419 1100 
L 313 1100 
L 313 1709 
L 2253 4666 
z
" transform="scale(0.015625)"/>
        <path id="DejaVuSans-35" d="M 691 4666 
L 3169 4666 
L 3169 4134 
L 1269 4134 
L 1269 2991 
Q 1406 3038 1543 3061 
Q 1681 3084 1819 3084 
Q 2600 3084 3056 2656 
Q 3513 2228 3513 1497 
Q 3513 744 3044 326 
Q 2575 -91 1722 -91 
Q 1428 -91 1123 -41 
Q 819 9 494 109 
L 494 744 
Q 775 591 1075 516 
Q 1375 441 1709 441 
Q 2250 441 2565 725 
Q 2881 1009 2881 1497 
Q 2881 1984 2565 2268 
Q 2250 2553 1709 2553 
Q 1456 2553 1204 2497 
Q 953 2441 691 2322 
L 691 4666 
z
" transform="scale(0.015625)"/>
       </defs>
       <use xlink:href="#DejaVuSans-34"/>
       <use xlink:href="#DejaVuSans-35" x="63.623047"/>
       <use xlink:href="#DejaVuSans-b0" x="127.246094"/>
      </g>
     </g>
    </g>
    <g id="xtick_3">
     <g id="line2d_3">
      <path d="M 251.8225 262.917188 
L 30.0625 262.917188 
" clip-path="url(#pdc69ee4b3c)" style="fill: none; stroke: #b0b0b0; stroke-width: 0.8; stroke-linecap: square"/>
     </g>
     <g id="text_3">
      <!-- 90° -->
      <g transform="translate(7.2 265.676563)scale(0.1 -0.1)">
       <defs>
        <path id="DejaVuSans-39" d="M 703 97 
L 703 672 
Q 941 559 1184 500 
Q 1428 441 1663 441 
Q 2288 441 2617 861 
Q 2947 1281 2994 2138 
Q 2813 1869 2534 1725 
Q 2256 1581 1919 1581 
Q 1219 1581 811 2004 
Q 403 2428 403 3163 
Q 403 3881 828 4315 
Q 1253 4750 1959 4750 
Q 2769 4750 3195 4129 
Q 3622 3509 3622 2328 
Q 3622 1225 3098 567 
Q 2575 -91 1691 -91 
Q 1453 -91 1209 -44 
Q 966 3 703 97 
z
M 1959 2075 
Q 2384 2075 2632 2365 
Q 2881 2656 2881 3163 
Q 2881 3666 2632 3958 
Q 2384 4250 1959 4250 
Q 1534 4250 1286 3958 
Q 1038 3666 1038 3163 
Q 1038 2656 1286 2365 
Q 1534 2075 1959 2075 
z
" transform="scale(0.015625)"/>
       </defs>
       <use xlink:href="#DejaVuSans-39"/>
       <use xlink:href="#DejaVuSans-30" x="63.623047"/>
       <use xlink:href="#DejaVuSans-b0" x="127.246094"/>
      </g>
     </g>
    </g>
    <g id="xtick_4">
     <g id="line2d_4">
      <path d="M 251.8225 262.917188 
L 95.0145 419.725187 
" clip-path="url(#pdc69ee4b3c)" style="fill: none; stroke: #b0b0b0; stroke-width: 0.8; stroke-linecap: square"/>
     </g>
     <g id="text_4">
      <!-- 135° -->
      <g transform="translate(73.071255 432.384057)scale(0.1 -0.1)">
       <defs>
        <path id="DejaVuSans-31" d="M 794 531 
L 1825 531 
L 1825 4091 
L 703 3866 
L 703 4441 
L 1819 4666 
L 2450 4666 
L 2450 531 
L 3481 531 
L 3481 0 
L 794 0 
L 794 531 
z
" transform="scale(0.015625)"/>
        <path id="DejaVuSans-33" d="M 2597 2516 
Q 3050 2419 3304 2112 
Q 3559 1806 3559 1356 
Q 3559 666 3084 287 
Q 2609 -91 1734 -91 
Q 1441 -91 1130 -33 
Q 819 25 488 141 
L 488 750 
Q 750 597 1062 519 
Q 1375 441 1716 441 
Q 2309 441 2620 675 
Q 2931 909 2931 1356 
Q 2931 1769 2642 2001 
Q 2353 2234 1838 2234 
L 1294 2234 
L 1294 2753 
L 1863 2753 
Q 2328 2753 2575 2939 
Q 2822 3125 2822 3475 
Q 2822 3834 2567 4026 
Q 2313 4219 1838 4219 
Q 1578 4219 1281 4162 
Q 984 4106 628 3988 
L 628 4550 
Q 988 4650 1302 4700 
Q 1616 4750 1894 4750 
Q 2613 4750 3031 4423 
Q 3450 4097 3450 3541 
Q 3450 3153 3228 2886 
Q 3006 2619 2597 2516 
z
" transform="scale(0.015625)"/>
       </defs>
       <use xlink:href="#DejaVuSans-31"/>
       <use xlink:href="#DejaVuSans-33" x="63.623047"/>
       <use xlink:href="#DejaVuSans-35" x="127.246094"/>
       <use xlink:href="#DejaVuSans-b0" x="190.869141"/>
      </g>
     </g>
    </g>
    <g id="xtick_5">
     <g id="line2d_5">
      <path d="M 251.8225 262.917188 
L 251.8225 484.677188 
" clip-path="url(#pdc69ee4b3c)" style="fill: none; stroke: #b0b0b0; stroke-width: 0.8; stroke-linecap: square"/>
     </g>
     <g id="text_5">
      <!-- 180° -->
      <g transform="translate(239.77875 501.436563)scale(0.1 -0.1)">
       <defs>
        <path id="DejaVuSans-38" d="M 2034 2216 
Q 1584 2216 1326 1975 
Q 1069 1734 1069 1313 
Q 1069 891 1326 650 
Q 1584 409 2034 409 
Q 2484 409 2743 651 
Q 3003 894 3003 1313 
Q 3003 1734 2745 1975 
Q 2488 2216 2034 2216 
z
M 1403 2484 
Q 997 2584 770 2862 
Q 544 3141 544 3541 
Q 544 4100 942 4425 
Q 1341 4750 2034 4750 
Q 2731 4750 3128 4425 
Q 3525 4100 3525 3541 
Q 3525 3141 3298 2862 
Q 3072 2584 2669 2484 
Q 3125 2378 3379 2068 
Q 3634 1759 3634 1313 
Q 3634 634 3220 271 
Q 2806 -91 2034 -91 
Q 1263 -91 848 271 
Q 434 634 434 1313 
Q 434 1759 690 2068 
Q 947 2378 1403 2484 
z
M 1172 3481 
Q 1172 3119 1398 2916 
Q 1625 2713 2034 2713 
Q 2441 2713 2670 2916 
Q 2900 3119 2900 3481 
Q 2900 3844 2670 4047 
Q 2441 4250 2034 4250 
Q 1625 4250 1398 4047 
Q 1172 3844 1172 3481 
z
" transform="scale(0.015625)"/>
       </defs>
       <use xlink:href="#DejaVuSans-31"/>
       <use xlink:href="#DejaVuSans-38" x="63.623047"/>
       <use xlink:href="#DejaVuSans-30" x="127.246094"/>
       <use xlink:href="#DejaVuSans-b0" x="190.869141"/>
      </g>
     </g>
    </g>
    <g id="xtick_6">
     <g id="line2d_6">
      <path d="M 251.8225 262.917188 
L 408.6305 419.725187 
" clip-path="url(#pdc69ee4b3c)" style="fill: none; stroke: #b0b0b0; stroke-width: 0.8; stroke-linecap: square"/>
     </g>
     <g id="text_6">
      <!-- 225° -->
      <g transform="translate(406.486245 432.384057)scale(0.1 -0.1)">
       <defs>
        <path id="DejaVuSans-32" d="M 1228 531 
L 3431 531 
L 3431 0 
L 469 0 
L 469 531 
Q 828 903 1448 1529 
Q 2069 2156 2228 2338 
Q 2531 2678 2651 2914 
Q 2772 3150 2772 3378 
Q 2772 3750 2511 3984 
Q 2250 4219 1831 4219 
Q 1534 4219 1204 4116 
Q 875 4013 500 3803 
L 500 4441 
Q 881 4594 1212 4672 
Q 1544 4750 1819 4750 
Q 2544 4750 2975 4387 
Q 3406 4025 3406 3419 
Q 3406 3131 3298 2873 
Q 3191 2616 2906 2266 
Q 2828 2175 2409 1742 
Q 1991 1309 1228 531 
z
" transform="scale(0.015625)"/>
       </defs>
       <use xlink:href="#DejaVuSans-32"/>
       <use xlink:href="#DejaVuSans-32" x="63.623047"/>
       <use xlink:href="#DejaVuSans-35" x="127.246094"/>
       <use xlink:href="#DejaVuSans-b0" x="190.869141"/>
      </g>
     </g>
    </g>
    <g id="xtick_7">
     <g id="line2d_7">
      <path d="M 251.8225 262.917188 
L 473.5825 262.917188 
" clip-path="url(#pdc69ee4b3c)" style="fill: none; stroke: #b0b0b0; stroke-width: 0.8; stroke-linecap: square"/>
     </g>
     <g id="text_7">
      <!-- 270° -->
      <g transform="translate(475.53875 265.676563)scale(0.1 -0.1)">
       <defs>
        <path id="DejaVuSans-37" d="M 525 4666 
L 3525 4666 
L 3525 4397 
L 1831 0 
L 1172 0 
L 2766 4134 
L 525 4134 
L 525 4666 
z
" transform="scale(0.015625)"/>
       </defs>
       <use xlink:href="#DejaVuSans-32"/>
       <use xlink:href="#DejaVuSans-37" x="63.623047"/>
       <use xlink:href="#DejaVuSans-30" x="127.246094"/>
       <use xlink:href="#DejaVuSans-b0" x="190.869141"/>
      </g>
     </g>
    </g>
    <g id="xtick_8">
     <g id="line2d_8">
      <path d="M 251.8225 262.917188 
L 408.6305 106.109188 
" clip-path="url(#pdc69ee4b3c)" style="fill: none; stroke: #b0b0b0; stroke-width: 0.8; stroke-linecap: square"/>
     </g>
     <g id="text_8">
      <!-- 315° -->
      <g transform="translate(406.486245 98.969068)scale(0.1 -0.1)">
       <use xlink:href="#DejaVuSans-33"/>
       <use xlink:href="#DejaVuSans-31" x="63.623047"/>
       <use xlink:href="#DejaVuSans-35" x="127.246094"/>
       <use xlink:href="#DejaVuSans-b0" x="190.869141"/>
      </g>
     </g>
    </g>
   </g>
   <g id="matplotlib.axis_2">
    <g id="ytick_1">
     <g id="line2d_9">
      <path d="M 251.8225 245.616834 
C 249.550638 245.616834 247.300868 246.064342 245.201942 246.933745 
C 243.103015 247.803149 241.195752 249.077542 239.589303 250.683991 
C 237.982854 252.290439 236.708462 254.197703 235.839058 256.296629 
C 234.969654 258.395555 234.522147 260.645326 234.522147 262.917188 
C 234.522147 265.189049 234.969654 267.43882 235.839058 269.537746 
C 236.708462 271.636672 237.982854 273.543936 239.589303 275.150384 
C 241.195752 276.756833 243.103015 278.031226 245.201942 278.90063 
C 247.300868 279.770033 249.550638 280.217541 251.8225 280.217541 
C 254.094362 280.217541 256.344132 279.770033 258.443058 278.90063 
C 260.541985 278.031226 262.449248 276.756833 264.055697 275.150384 
C 265.662146 273.543936 266.936538 271.636672 267.805942 269.537746 
C 268.675346 267.43882 269.122853 265.189049 269.122853 262.917188 
C 269.122853 260.645326 268.675346 258.395555 267.805942 256.296629 
C 266.936538 254.197703 265.662146 252.290439 264.055697 250.683991 
C 262.449248 249.077542 260.541985 247.803149 258.443058 246.933745 
C 256.344132 246.064342 254.094362 245.616834 251.8225 245.616834 
" clip-path="url(#pdc69ee4b3c)" style="fill: none; stroke: #b0b0b0; stroke-width: 0.8; stroke-linecap: square"/>
     </g>
     <g id="text_9">
      <!-- −30 -->
      <g transform="translate(245.201942 244.854058)scale(0.1 -0.1)">
       <defs>
        <path id="DejaVuSans-2212" d="M 678 2272 
L 4684 2272 
L 4684 1741 
L 678 1741 
L 678 2272 
z
" transform="scale(0.015625)"/>
       </defs>
       <use xlink:href="#DejaVuSans-2212"/>
       <use xlink:href="#DejaVuSans-33" x="83.789062"/>
       <use xlink:href="#DejaVuSans-30" x="147.412109"/>
      </g>
     </g>
    </g>
    <g id="ytick_2">
     <g id="line2d_10">
      <path d="M 251.8225 211.540227 
C 245.075739 211.540227 238.394582 212.869191 232.161388 215.451065 
C 225.928194 218.032938 220.264183 221.81751 215.493503 226.58819 
C 210.722822 231.35887 206.938251 237.022882 204.356377 243.256076 
C 201.774504 249.48927 200.445539 256.170427 200.445539 262.917188 
C 200.445539 269.663948 201.774504 276.345105 204.356377 282.578299 
C 206.938251 288.811493 210.722822 294.475505 215.493503 299.246185 
C 220.264183 304.016865 225.928194 307.801437 232.161388 310.38331 
C 238.394582 312.965184 245.075739 314.294148 251.8225 314.294148 
C 258.569261 314.294148 265.250418 312.965184 271.483612 310.38331 
C 277.716806 307.801437 283.380817 304.016865 288.151497 299.246185 
C 292.922178 294.475505 296.706749 288.811493 299.288623 282.578299 
C 301.870496 276.345105 303.199461 269.663948 303.199461 262.917188 
C 303.199461 256.170427 301.870496 249.48927 299.288623 243.256076 
C 296.706749 237.022882 292.922178 231.35887 288.151497 226.58819 
C 283.380817 221.81751 277.716806 218.032938 271.483612 215.451065 
C 265.250418 212.869191 258.569261 211.540227 251.8225 211.540227 
" clip-path="url(#pdc69ee4b3c)" style="fill: none; stroke: #b0b0b0; stroke-width: 0.8; stroke-linecap: square"/>
     </g>
     <g id="text_10">
      <!-- −25 -->
      <g transform="translate(232.161388 213.371377)scale(0.1 -0.1)">
       <use xlink:href="#DejaVuSans-2212"/>
       <use xlink:href="#DejaVuSans-32" x="83.789062"/>
       <use xlink:href="#DejaVuSans-35" x="147.412109"/>
      </g>
     </g>
    </g>
    <g id="ytick_3">
     <g id="line2d_11">
      <path d="M 251.8225 177.463619 
C 240.60084 177.463619 229.488297 179.674041 219.120835 183.968384 
C 208.753373 188.262728 199.332614 194.557478 191.397702 202.49239 
C 183.46279 210.427301 177.16804 219.848061 172.873697 230.215523 
C 168.579354 240.582984 166.368931 251.695528 166.368931 262.917188 
C 166.368931 274.138847 168.579354 285.251391 172.873697 295.618852 
C 177.16804 305.986314 183.46279 315.407074 191.397702 323.341985 
C 199.332614 331.276897 208.753373 337.571647 219.120835 341.865991 
C 229.488297 346.160334 240.60084 348.370756 251.8225 348.370756 
C 263.04416 348.370756 274.156703 346.160334 284.524165 341.865991 
C 294.891627 337.571647 304.312386 331.276897 312.247298 323.341985 
C 320.18221 315.407074 326.47696 305.986314 330.771303 295.618852 
C 335.065646 285.251391 337.276069 274.138847 337.276069 262.917188 
C 337.276069 251.695528 335.065646 240.582984 330.771303 230.215523 
C 326.47696 219.848061 320.18221 210.427301 312.247298 202.49239 
C 304.312386 194.557478 294.891627 188.262728 284.524165 183.968384 
C 274.156703 179.674041 263.04416 177.463619 251.8225 177.463619 
" clip-path="url(#pdc69ee4b3c)" style="fill: none; stroke: #b0b0b0; stroke-width: 0.8; stroke-linecap: square"/>
     </g>
     <g id="text_11">
      <!-- −20 -->
      <g transform="translate(219.120835 181.888697)scale(0.1 -0.1)">
       <use xlink:href="#DejaVuSans-2212"/>
       <use xlink:href="#DejaVuSans-32" x="83.789062"/>
       <use xlink:href="#DejaVuSans-30" x="147.412109"/>
      </g>
     </g>
    </g>
    <g id="ytick_4">
     <g id="line2d_12">
      <path d="M 251.8225 143.387011 
C 236.125941 143.387011 220.582011 146.478891 206.080282 152.485704 
C 191.578552 158.492517 178.401045 167.297446 167.301902 178.396589 
C 156.202758 189.495732 147.397829 202.67324 141.391016 217.174969 
C 135.384203 231.676699 132.292323 247.220629 132.292323 262.917188 
C 132.292323 278.613746 135.384203 294.157676 141.391016 308.659406 
C 147.397829 323.161135 156.202758 336.338643 167.301902 347.437786 
C 178.401045 358.536929 191.578552 367.341858 206.080282 373.348671 
C 220.582011 379.355484 236.125941 382.447364 251.8225 382.447364 
C 267.519059 382.447364 283.062989 379.355484 297.564718 373.348671 
C 312.066448 367.341858 325.243955 358.536929 336.343098 347.437786 
C 347.442242 336.338643 356.247171 323.161135 362.253984 308.659406 
C 368.260797 294.157676 371.352677 278.613746 371.352677 262.917188 
C 371.352677 247.220629 368.260797 231.676699 362.253984 217.174969 
C 356.247171 202.67324 347.442242 189.495732 336.343098 178.396589 
C 325.243955 167.297446 312.066448 158.492517 297.564718 152.485704 
C 283.062989 146.478891 267.519059 143.387011 251.8225 143.387011 
" clip-path="url(#pdc69ee4b3c)" style="fill: none; stroke: #b0b0b0; stroke-width: 0.8; stroke-linecap: square"/>
     </g>
     <g id="text_12">
      <!-- −15 -->
      <g transform="translate(206.080282 150.406016)scale(0.1 -0.1)">
       <use xlink:href="#DejaVuSans-2212"/>
       <use xlink:href="#DejaVuSans-31" x="83.789062"/>
       <use xlink:href="#DejaVuSans-35" x="147.412109"/>
      </g>
     </g>
    </g>
    <g id="ytick_5">
     <g id="line2d_13">
      <path d="M 251.8225 109.310403 
C 231.651042 109.310403 211.675726 113.283741 193.039729 121.003023 
C 174.403731 128.722306 157.469476 140.037414 143.206101 154.300789 
C 128.942726 168.564163 117.627619 185.498419 109.908336 204.134416 
C 102.189053 222.770413 98.215716 242.745729 98.215716 262.917188 
C 98.215716 283.088646 102.189053 303.063962 109.908336 321.699959 
C 117.627619 340.335956 128.942726 357.270212 143.206101 371.533586 
C 157.469476 385.796961 174.403731 397.112069 193.039729 404.831352 
C 211.675726 412.550634 231.651042 416.523972 251.8225 416.523972 
C 271.993958 416.523972 291.969274 412.550634 310.605271 404.831352 
C 329.241269 397.112069 346.175524 385.796961 360.438899 371.533586 
C 374.702274 357.270212 386.017381 340.335956 393.736664 321.699959 
C 401.455947 303.063962 405.429284 283.088646 405.429284 262.917188 
C 405.429284 242.745729 401.455947 222.770413 393.736664 204.134416 
C 386.017381 185.498419 374.702274 168.564163 360.438899 154.300789 
C 346.175524 140.037414 329.241269 128.722306 310.605271 121.003023 
C 291.969274 113.283741 271.993958 109.310403 251.8225 109.310403 
" clip-path="url(#pdc69ee4b3c)" style="fill: none; stroke: #b0b0b0; stroke-width: 0.8; stroke-linecap: square"/>
     </g>
     <g id="text_13">
      <!-- −10 -->
      <g transform="translate(193.039729 118.923336)scale(0.1 -0.1)">
       <use xlink:href="#DejaVuSans-2212"/>
       <use xlink:href="#DejaVuSans-31" x="83.789062"/>
       <use xlink:href="#DejaVuSans-30" x="147.412109"/>
      </g>
     </g>
    </g>
    <g id="ytick_6">
     <g id="line2d_14">
      <path d="M 251.8225 75.233795 
C 227.176143 75.233795 202.76944 80.08859 179.999175 89.520343 
C 157.22891 98.952095 136.537907 112.777382 119.110301 130.204988 
C 101.682694 147.632595 87.857408 168.323598 78.425655 191.093863 
C 68.993903 213.864128 64.139108 238.27083 64.139108 262.917188 
C 64.139108 287.563545 68.993903 311.970247 78.425655 334.740512 
C 87.857408 357.510777 101.682694 378.20178 119.110301 395.629387 
C 136.537907 413.056993 157.22891 426.88228 179.999175 436.314032 
C 202.76944 445.745785 227.176143 450.60058 251.8225 450.60058 
C 276.468857 450.60058 300.87556 445.745785 323.645825 436.314032 
C 346.41609 426.88228 367.107093 413.056993 384.534699 395.629387 
C 401.962306 378.20178 415.787592 357.510777 425.219345 334.740512 
C 434.651097 311.970247 439.505892 287.563545 439.505892 262.917188 
C 439.505892 238.27083 434.651097 213.864128 425.219345 191.093863 
C 415.787592 168.323598 401.962306 147.632595 384.534699 130.204988 
C 367.107093 112.777382 346.41609 98.952095 323.645825 89.520343 
C 300.87556 80.08859 276.468857 75.233795 251.8225 75.233795 
" clip-path="url(#pdc69ee4b3c)" style="fill: none; stroke: #b0b0b0; stroke-width: 0.8; stroke-linecap: square"/>
     </g>
     <g id="text_14">
      <!-- −5 -->
      <g transform="translate(179.999175 87.440655)scale(0.1 -0.1)">
       <use xlink:href="#DejaVuSans-2212"/>
       <use xlink:href="#DejaVuSans-35" x="83.789062"/>
      </g>
     </g>
    </g>
    <g id="ytick_7">
     <g id="line2d_15">
      <path d="M 251.8225 41.157188 
C 222.701244 41.157188 193.863155 46.89344 166.958622 58.037662 
C 140.054089 69.181885 115.606338 85.51735 95.0145 106.109188 
C 74.422662 126.701026 58.087197 151.148777 46.942975 178.05331 
C 35.798753 204.957842 30.0625 233.795931 30.0625 262.917188 
C 30.0625 292.038444 35.798753 320.876533 46.942975 347.781065 
C 58.087197 374.685598 74.422662 399.133349 95.0145 419.725187 
C 115.606338 440.317025 140.054089 456.65249 166.958622 467.796713 
C 193.863155 478.940935 222.701244 484.677188 251.8225 484.677188 
C 280.943756 484.677188 309.781845 478.940935 336.686378 467.796713 
C 363.590911 456.65249 388.038662 440.317025 408.6305 419.725187 
C 429.222338 399.133349 445.557803 374.685598 456.702025 347.781065 
C 467.846247 320.876533 473.5825 292.038444 473.5825 262.917188 
C 473.5825 233.795931 467.846247 204.957842 456.702025 178.05331 
C 445.557803 151.148777 429.222338 126.701026 408.6305 106.109188 
C 388.038662 85.51735 363.590911 69.181885 336.686378 58.037662 
C 309.781845 46.89344 280.943756 41.157188 251.8225 41.157188 
" clip-path="url(#pdc69ee4b3c)" style="fill: none; stroke: #b0b0b0; stroke-width: 0.8; stroke-linecap: square"/>
     </g>
     <g id="text_15">
      <!-- 0 -->
      <g transform="translate(166.958622 55.957975)scale(0.1 -0.1)">
       <use xlink:href="#DejaVuSans-30"/>
      </g>
     </g>
    </g>
   </g>
   <g id="line2d_16">
    <path d="M 251.8225 484.247822 
L 255.676688 483.723484 
L 259.510199 483.064073 
L 267.050186 480.683242 
L 270.724858 478.972123 
L 277.876468 475.109732 
L 281.307343 472.712744 
L 287.886858 467.448326 
L 290.902147 463.964541 
L 296.824678 457.843038 
L 299.497586 454.131513 
L 302.211862 450.972845 
L 304.798659 447.667009 
L 307.138172 443.846598 
L 309.741934 441.174876 
L 312.103042 437.984592 
L 314.317049 434.61955 
L 316.771709 432.115661 
L 323.153907 423.13015 
L 327.064579 417.18631 
L 329.027657 414.44084 
L 330.406108 410.711458 
L 331.86662 407.320602 
L 333.492032 404.372966 
L 334.765416 400.957381 
L 335.757016 397.240492 
L 336.574047 393.423125 
L 336.346335 388.228926 
L 336.847355 384.345265 
L 336.986698 380.13565 
L 336.349354 375.088111 
L 336.124836 370.819258 
L 335.773435 366.587958 
L 334.389489 361.316694 
L 333.818354 357.242628 
L 332.446807 352.459552 
L 330.655318 347.455035 
L 329.330186 343.178746 
L 327.721621 338.816308 
L 326.004919 334.554316 
L 325.100564 331.250088 
L 322.903775 326.919055 
L 322.02451 323.942864 
L 321.543936 321.420419 
L 317.329475 314.096845 
L 315.774261 311.108296 
L 314.631663 308.550715 
L 315.228697 307.314685 
L 316.163388 306.315664 
L 318.157043 305.995343 
L 319.702138 305.333093 
L 321.939262 305.047589 
L 325.432011 305.415659 
L 327.610979 304.927427 
L 331.389542 305.223734 
L 336.263289 305.941919 
L 340.369407 304.207288 
L 342.309301 303.204507 
L 343.688719 301.912084 
L 345.360012 300.708796 
L 346.437981 299.236668 
L 347.012603 297.563551 
L 346.739269 295.599652 
L 344.760834 293.114683 
L 341.473981 290.326396 
L 335.498748 286.910966 
L 326.931995 283.042716 
L 320.777948 280.109712 
L 309.147539 276.151715 
L 292.447828 270.813951 
L 284.505185 268.680027 
L 283.140065 267.877403 
L 286.954058 267.854606 
L 288.130729 267.375277 
L 295.096216 267.465438 
L 311.858255 267.115296 
L 319.007405 266.438199 
L 323.662973 265.425912 
L 326.251171 264.216345 
L 327.768695 262.917188 
L 329.835485 261.555466 
L 331.182505 260.145875 
L 333.667489 258.627873 
L 335.14387 257.09079 
L 338.098298 255.369033 
L 340.135936 253.635071 
L 344.100378 251.586889 
L 347.155096 249.519065 
L 350.844624 247.233624 
L 355.784304 244.585916 
L 358.91402 242.100705 
L 362.667574 239.35634 
L 365.307476 236.717116 
L 366.739971 232.125144 
L 366.97123 229.898821 
L 366.775011 227.772678 
L 367.485871 225.33588 
L 369.041999 222.555277 
L 370.22157 217.468043 
L 370.358198 215.025657 
L 369.560784 212.940251 
L 367.755397 211.300536 
L 365.46566 209.924512 
L 363.843563 208.280864 
L 361.73741 206.912744 
L 360.075306 205.358149 
L 358.040937 204.039347 
L 355.722315 202.930601 
L 349.265408 202.0281 
L 345.095653 202.344894 
L 341.928107 202.140188 
L 336.82849 203.395352 
L 331.66903 204.905288 
L 327.906614 205.583695 
L 323.591532 206.845074 
L 315.378125 209.587686 
L 310.981226 211.491292 
L 302.501246 215.658492 
L 298.585057 217.759111 
L 296.377804 218.361884 
L 296.724923 216.419367 
L 302.480812 206.655433 
L 311.372744 191.947971 
L 313.431925 186.835883 
L 316.265495 180.433915 
L 318.868493 173.94415 
L 322.207746 162.396639 
L 323.140945 157.183245 
L 323.578719 152.4223 
L 324.358901 146.834681 
L 324.754468 141.538009 
L 324.76842 136.571148 
L 325.331044 130.304264 
L 325.024381 125.244473 
L 324.442214 120.392974 
L 324.127728 114.669501 
L 322.765077 110.780341 
L 321.485138 106.45234 
L 320.376233 101.414712 
L 318.60926 97.614155 
L 315.160863 88.896465 
L 312.868545 85.626598 
L 310.691763 81.736227 
L 308.307833 78.16199 
L 305.672188 75.121008 
L 303.051495 71.727977 
L 300.204911 68.865938 
L 297.11597 66.729615 
L 294.108805 63.975764 
L 287.625312 59.869353 
L 280.879565 56.165428 
L 277.375629 54.803649 
L 273.823718 53.58958 
L 266.598544 51.609917 
L 262.928447 51.003088 
L 255.535621 50.192631 
L 248.11378 50.44476 
L 244.418558 50.896027 
L 240.741521 51.479507 
L 233.451173 52.931965 
L 222.663945 55.443285 
L 211.982105 57.956123 
L 208.460703 58.915974 
L 205.029645 60.235064 
L 198.090482 62.386565 
L 194.687215 63.662771 
L 188.479987 67.968978 
L 185.622062 70.657156 
L 183.008671 73.852747 
L 180.23731 76.431392 
L 177.825886 79.76914 
L 175.700639 83.585321 
L 173.53327 87.076698 
L 171.645748 90.977588 
L 170.118155 95.398456 
L 168.453913 99.297123 
L 167.111659 103.599267 
L 165.999451 108.088308 
L 165.068738 112.655265 
L 164.681444 117.890116 
L 164.680909 123.461491 
L 165.018278 129.250408 
L 169.432384 145.251907 
L 171.801936 152.77833 
L 176.495452 162.954818 
L 179.74291 170.65952 
L 184.126954 179.32015 
L 195.040043 197.596443 
L 202.696463 208.357196 
L 210.80612 218.932505 
L 213.690155 223.429988 
L 212.06708 223.161767 
L 204.172585 216.902199 
L 195.361838 210.266768 
L 185.851579 203.516704 
L 176.24544 197.219051 
L 168.772261 193.229763 
L 161.122857 189.470065 
L 154.392996 186.796916 
L 149.089665 185.502444 
L 144.479094 184.927638 
L 141.113369 185.39782 
L 138.003182 186.145088 
L 134.56581 186.769802 
L 131.428322 187.686555 
L 124.484883 189.39878 
L 121.492568 190.674127 
L 118.632876 192.099008 
L 113.247089 195.329444 
L 110.803856 197.159114 
L 108.725103 199.206121 
L 106.374005 201.177964 
L 102.895432 205.749442 
L 99.605566 210.504694 
L 98.208448 213.004956 
L 97.386826 215.701464 
L 97.419625 221.545062 
L 98.24206 224.625283 
L 99.436624 227.736136 
L 100.863962 233.57382 
L 101.985669 236.496912 
L 102.476328 239.263078 
L 104.285249 244.801891 
L 104.418577 247.424411 
L 105.381815 252.677057 
L 105.967256 255.273238 
L 107.470312 257.876298 
L 108.412836 260.413963 
L 108.520482 262.917188 
L 108.092565 265.426003 
L 107.797248 267.94666 
L 107.158303 270.498717 
L 107.496217 273.009464 
L 108.108486 275.490535 
L 109.285171 277.898464 
L 112.774723 279.990108 
L 115.665231 282.052844 
L 117.958579 284.11915 
L 121.114246 285.964579 
L 122.907858 287.975655 
L 124.524775 289.975154 
L 125.687095 292.03784 
L 125.368083 294.445815 
L 125.233202 296.836688 
L 126.892668 298.74024 
L 128.762188 300.5405 
L 134.802766 303.210313 
L 139.143454 306.170621 
L 139.947087 308.117788 
L 139.717852 310.502787 
L 138.728708 313.269788 
L 138.401704 315.806173 
L 137.52885 318.661925 
L 135.774369 322.046664 
L 135.27748 324.885274 
L 134.576556 327.907675 
L 133.497606 331.232097 
L 134.193803 333.595639 
L 133.94828 336.573175 
L 134.743041 341.88828 
L 135.364929 347.528565 
L 136.07011 350.14287 
L 137.304498 355.652037 
L 139.036721 360.96037 
L 139.670998 363.898854 
L 141.295935 365.984877 
L 142.28302 368.698234 
L 143.432602 371.307086 
L 144.237678 374.324532 
L 144.953434 381.607309 
L 145.015662 385.7844 
L 144.828146 390.428093 
L 145.658726 394.01853 
L 145.781045 398.64406 
L 145.721425 403.71807 
L 146.556467 407.803452 
L 146.872922 412.800718 
L 147.549651 417.508043 
L 148.641419 421.802119 
L 149.461752 426.728626 
L 150.640844 431.311742 
L 152.303641 435.288908 
L 153.823719 439.711669 
L 155.730683 443.639611 
L 157.924721 447.201956 
L 160.09761 450.981082 
L 162.762966 453.905974 
L 165.530388 456.732445 
L 168.185771 459.952974 
L 177.35139 467.524882 
L 180.665147 469.573145 
L 187.534118 473.195011 
L 198.460787 476.939327 
L 202.147391 478.083725 
L 209.668649 479.779949 
L 217.22115 481.381515 
L 224.854895 482.550706 
L 236.35996 484.041809 
L 240.216478 484.373273 
L 247.954633 484.507127 
L 247.954633 484.507127 
" clip-path="url(#pdc69ee4b3c)" style="fill: none; stroke: #ff0000; stroke-width: 1.5; stroke-linecap: square"/>
   </g>
   <g id="line2d_17">
    <path d="M 251.8225 55.741976 
L 248.171587 53.756502 
L 244.457566 52.013059 
L 240.690515 50.506251 
L 236.879586 49.223567 
L 233.033595 48.159025 
L 229.161604 47.313164 
L 225.271845 46.679459 
L 221.372075 46.251154 
L 217.470629 46.028011 
L 213.57346 45.9961 
L 209.690757 46.168158 
L 205.826528 46.523154 
L 201.98948 47.066664 
L 198.187091 47.79731 
L 194.426789 48.713476 
L 190.712188 49.800204 
L 187.051907 51.062123 
L 183.454951 52.503508 
L 179.921832 54.102486 
L 176.465618 55.875856 
L 173.088426 57.807913 
L 169.799051 59.902028 
L 166.603974 62.15492 
L 163.50957 64.563099 
L 160.519229 67.11669 
L 157.644757 69.824199 
L 154.886323 72.669228 
L 152.259117 75.665699 
L 149.762939 78.796865 
L 147.406833 82.063946 
L 145.196601 85.461892 
L 143.145116 88.997018 
L 141.254757 92.657795 
L 139.53114 96.4384 
L 137.991429 100.349571 
L 136.63374 104.373461 
L 135.471619 108.514354 
L 134.514971 112.770397 
L 133.77385 117.139245 
L 133.258442 121.618046 
L 132.979048 126.203435 
L 132.946059 130.891524 
L 133.174587 135.682878 
L 133.67541 140.572294 
L 134.468964 145.563651 
L 135.537136 150.621717 
L 136.98442 155.828945 
L 138.678302 161.041694 
L 140.775254 166.385289 
L 143.179707 171.75506 
L 145.948385 177.18202 
L 148.979485 182.567418 
L 152.328225 187.942873 
L 159.151346 198.028147 
L 162.214107 202.475563 
L 164.659547 206.312904 
L 166.054627 209.323472 
L 166.125469 211.425216 
L 164.826705 212.690142 
L 162.294344 213.29092 
L 158.854326 213.485132 
L 150.447678 213.473383 
L 146.017673 213.579586 
L 141.623847 213.853586 
L 137.333908 214.319663 
L 133.217292 214.997573 
L 129.281345 215.878045 
L 125.469038 216.928288 
L 121.914739 218.186358 
L 118.496344 219.596894 
L 115.283948 221.173163 
L 112.217739 222.886166 
L 109.236281 224.711325 
L 106.475092 226.678009 
L 103.806168 228.744925 
L 101.29907 230.922445 
L 96.515567 235.532385 
L 94.311123 237.969836 
L 90.154164 243.066812 
L 86.314553 248.437118 
L 82.786083 254.058364 
L 79.547531 259.910117 
L 76.596946 265.975761 
L 73.951919 272.23899 
L 71.615529 278.683255 
L 69.603549 285.290861 
L 67.944176 292.040653 
L 66.650766 298.910926 
L 65.735349 305.878792 
L 65.22829 312.914955 
L 65.138115 319.992332 
L 65.478072 327.08072 
L 65.80651 330.621471 
L 66.804012 337.669509 
L 67.471805 341.169415 
L 68.249187 344.649292 
L 69.135305 348.105626 
L 70.129198 351.534932 
L 72.460048 358.285895 
L 73.782209 361.606533 
L 76.756529 368.107435 
L 78.393606 371.287588 
L 81.981869 377.47614 
L 85.956565 383.425843 
L 90.28478 389.124286 
L 94.949595 394.549184 
L 99.907481 399.702085 
L 105.12673 404.579646 
L 110.55299 409.206048 
L 116.141205 413.606532 
L 121.846447 417.816616 
L 130.521033 423.889671 
L 150.794047 437.903601 
L 171.375995 452.437277 
L 177.518927 456.484614 
L 183.842543 460.345318 
L 190.365613 463.933609 
L 193.70473 465.597938 
L 197.095622 467.160676 
L 200.534947 468.620327 
L 204.022389 469.962215 
L 207.553833 471.184891 
L 211.129026 472.266961 
L 214.741543 473.213746 
L 218.387519 474.017349 
L 222.063538 474.663204 
L 225.762718 475.157084 
L 229.480757 475.484673 
L 233.2112 475.645323 
L 236.948046 475.631793 
L 240.684451 475.443826 
L 244.413801 475.074571 
L 248.129005 474.517387 
L 251.8225 473.772673 
L 255.486735 472.841073 
L 259.113701 471.709853 
L 262.695174 470.380175 
L 266.222492 468.84667 
L 269.687149 467.111063 
L 273.079265 465.161799 
L 276.389732 463.001239 
L 279.607614 460.618545 
L 282.722173 458.010047 
L 285.723478 455.179189 
L 288.597794 452.109675 
L 291.334348 448.805818 
L 293.916362 445.245734 
L 296.330288 441.428176 
L 298.558752 437.339255 
L 300.581298 432.959323 
L 302.381819 428.289268 
L 303.933447 423.298193 
L 305.206851 417.956599 
L 306.179608 412.262113 
L 306.774995 406.073331 
L 307.018348 399.531705 
L 306.784494 392.399532 
L 306.014377 384.634137 
L 304.616436 376.134149 
L 302.46136 366.742238 
L 299.376981 356.248111 
L 295.111324 344.331624 
L 289.322597 330.569154 
L 281.773964 314.794645 
L 268.217042 289.15394 
L 272.792638 295.208368 
L 282.156596 307.889335 
L 291.419613 319.467725 
L 299.531108 328.582453 
L 306.65814 335.68654 
L 312.870987 341.055688 
L 318.471525 345.221879 
L 323.490048 348.327246 
L 328.054909 350.612542 
L 332.21879 352.206314 
L 335.995914 353.182123 
L 339.452163 353.660359 
L 342.661017 353.755705 
L 345.556216 353.434785 
L 348.168417 352.761208 
L 350.5321 351.795711 
L 352.634005 350.551292 
L 354.461327 349.04139 
L 356.0547 347.322759 
L 357.350789 345.364923 
L 358.44705 343.264549 
L 359.226557 340.950803 
L 359.790483 338.517183 
L 360.019911 335.897263 
L 359.962474 333.144108 
L 359.611108 330.270985 
L 358.900779 327.256308 
L 357.882536 324.150978 
L 356.491125 320.935954 
L 354.719668 317.628582 
L 352.561868 314.246459 
L 349.950769 310.777542 
L 346.879732 307.243103 
L 343.405096 303.692386 
L 339.39762 300.090621 
L 335.040994 296.539641 
L 330.397738 293.079395 
L 321.672058 286.968319 
L 318.840292 284.692588 
L 318.036964 283.160981 
L 319.755956 282.396793 
L 323.83794 282.213666 
L 336.22145 282.40222 
L 343.148382 282.329103 
L 350.029561 282.006706 
L 356.656836 281.402309 
L 363.021751 280.529419 
L 368.913857 279.373305 
L 374.527194 277.983429 
L 379.719378 276.359691 
L 384.61918 274.535392 
L 389.1529 272.520265 
L 393.38317 270.336068 
L 397.373454 267.999939 
L 401.051562 265.52199 
L 404.550108 262.917188 
L 407.72956 260.19582 
L 410.723347 257.368248 
L 413.460815 254.446082 
L 416.048636 251.433377 
L 418.40996 248.342673 
L 420.583858 245.179654 
L 422.568823 241.952175 
L 424.377101 238.66622 
L 426.007589 235.32898 
L 427.472843 231.945293 
L 428.772095 228.52167 
L 429.904788 225.064629 
L 430.883849 221.577618 
L 431.708967 218.066454 
L 432.373429 214.538712 
L 432.897038 210.994899 
L 433.266795 207.444099 
L 433.489592 203.889971 
L 433.572346 200.335697 
L 433.509178 196.788645 
L 433.307252 193.251718 
L 432.967406 189.729895 
L 432.490629 186.228116 
L 431.878063 182.751286 
L 431.124821 179.307142 
L 430.244747 175.894843 
L 429.233203 172.521919 
L 428.09192 169.193074 
L 426.816815 165.916255 
L 425.415984 162.692943 
L 423.891591 159.527647 
L 422.234379 156.432027 
L 420.458603 153.403622 
L 418.555545 150.454329 
L 416.533906 147.585019 
L 414.391235 144.804088 
L 412.1255 142.120213 
L 409.740471 139.538146 
L 407.240072 137.062519 
L 404.623151 134.702218 
L 401.889008 132.466362 
L 399.042477 130.359725 
L 396.083556 128.391576 
L 393.007824 126.576105 
L 389.816499 124.923189 
L 386.520774 123.433042 
L 383.108429 122.130266 
L 379.582484 121.02535 
L 375.950974 120.123713 
L 372.200211 119.456618 
L 368.33997 119.030095 
L 364.363452 118.871338 
L 360.269669 119.002934 
L 356.050993 119.458974 
L 351.705874 120.268946 
L 347.223156 121.479899 
L 342.598444 123.134491 
L 337.812 125.305222 
L 332.834834 128.090023 
L 327.675155 131.536535 
L 322.264808 135.8359 
L 316.548641 141.18502 
L 310.422886 147.907454 
L 303.775922 156.396886 
L 296.350035 167.427581 
L 287.718907 182.292538 
L 276.879473 203.886659 
L 262.186537 237.265295 
L 255.606866 253.058578 
L 269.233618 215.080534 
L 278.048106 186.752496 
L 283.054066 166.796311 
L 285.894987 151.471104 
L 287.363769 138.970052 
L 287.841083 128.494006 
L 287.61651 119.355256 
L 286.807313 111.381314 
L 285.560134 104.194098 
L 283.920167 97.789007 
L 281.965967 91.965092 
L 279.738016 86.665555 
L 277.272384 81.831857 
L 274.599835 77.410679 
L 271.744237 73.374522 
L 268.728442 69.681383 
L 265.570226 66.315548 
L 262.286055 63.26066 
L 258.891547 60.486154 
L 255.399668 57.981357 
L 255.399668 57.981357 
" clip-path="url(#pdc69ee4b3c)" style="fill: none; stroke-dasharray: 5.55,2.4; stroke-dashoffset: 0; stroke: #0000ff; stroke-width: 1.5"/>
   </g>
   <g id="patch_3">
    <path d="M 251.8225 41.157188 
C 222.701244 41.157188 193.863155 46.89344 166.958622 58.037662 
C 140.054089 69.181885 115.606338 85.51735 95.0145 106.109188 
C 74.422662 126.701026 58.087197 151.148777 46.942975 178.05331 
C 35.798753 204.957842 30.0625 233.795931 30.0625 262.917188 
C 30.0625 292.038444 35.798753 320.876533 46.942975 347.781065 
C 58.087197 374.685598 74.422662 399.133349 95.0145 419.725187 
C 115.606338 440.317025 140.054089 456.65249 166.958622 467.796713 
C 193.863155 478.940935 222.701244 484.677188 251.8225 484.677188 
C 280.943756 484.677188 309.781845 478.940935 336.686378 467.796713 
C 363.590911 456.65249 388.038662 440.317025 408.6305 419.725187 
C 429.222338 399.133349 445.557803 374.685598 456.702025 347.781065 
C 467.846247 320.876533 473.5825 292.038444 473.5825 262.917188 
C 473.5825 233.795931 467.846247 204.957842 456.702025 178.05331 
C 445.557803 151.148777 429.222338 126.701026 408.6305 106.109188 
C 388.038662 85.51735 363.590911 69.181885 336.686378 58.037662 
C 309.781845 46.89344 280.943756 41.157188 251.8225 41.157188 
" style="fill: none; stroke: #000000; stroke-width: 0.8; stroke-linejoin: miter; stroke-linecap: square"/>
   </g>
   <g id="text_16">
    <g id="patch_4">
     <path d="M 384.8785 509.853188 
L 485.369125 509.853188 
Q 488.369125 509.853188 488.369125 506.853188 
L 488.369125 473.945063 
Q 488.369125 470.945063 485.369125 470.945063 
L 384.8785 470.945063 
Q 381.8785 470.945063 381.8785 473.945063 
L 381.8785 506.853188 
Q 381.8785 509.853188 384.8785 509.853188 
z
" style="fill: #ffffff; stroke: #808080; stroke-linejoin: miter"/>
    </g>
    <!-- G_cst: -1.5 dBi -->
    <g transform="translate(384.8785 481.821625)scale(0.1 -0.1)">
     <defs>
      <path id="DejaVuSans-47" d="M 3809 666 
L 3809 1919 
L 2778 1919 
L 2778 2438 
L 4434 2438 
L 4434 434 
Q 4069 175 3628 42 
Q 3188 -91 2688 -91 
Q 1594 -91 976 548 
Q 359 1188 359 2328 
Q 359 3472 976 4111 
Q 1594 4750 2688 4750 
Q 3144 4750 3555 4637 
Q 3966 4525 4313 4306 
L 4313 3634 
Q 3963 3931 3569 4081 
Q 3175 4231 2741 4231 
Q 1884 4231 1454 3753 
Q 1025 3275 1025 2328 
Q 1025 1384 1454 906 
Q 1884 428 2741 428 
Q 3075 428 3337 486 
Q 3600 544 3809 666 
z
" transform="scale(0.015625)"/>
      <path id="DejaVuSans-5f" d="M 3263 -1063 
L 3263 -1509 
L -63 -1509 
L -63 -1063 
L 3263 -1063 
z
" transform="scale(0.015625)"/>
      <path id="DejaVuSans-63" d="M 3122 3366 
L 3122 2828 
Q 2878 2963 2633 3030 
Q 2388 3097 2138 3097 
Q 1578 3097 1268 2742 
Q 959 2388 959 1747 
Q 959 1106 1268 751 
Q 1578 397 2138 397 
Q 2388 397 2633 464 
Q 2878 531 3122 666 
L 3122 134 
Q 2881 22 2623 -34 
Q 2366 -91 2075 -91 
Q 1284 -91 818 406 
Q 353 903 353 1747 
Q 353 2603 823 3093 
Q 1294 3584 2113 3584 
Q 2378 3584 2631 3529 
Q 2884 3475 3122 3366 
z
" transform="scale(0.015625)"/>
      <path id="DejaVuSans-73" d="M 2834 3397 
L 2834 2853 
Q 2591 2978 2328 3040 
Q 2066 3103 1784 3103 
Q 1356 3103 1142 2972 
Q 928 2841 928 2578 
Q 928 2378 1081 2264 
Q 1234 2150 1697 2047 
L 1894 2003 
Q 2506 1872 2764 1633 
Q 3022 1394 3022 966 
Q 3022 478 2636 193 
Q 2250 -91 1575 -91 
Q 1294 -91 989 -36 
Q 684 19 347 128 
L 347 722 
Q 666 556 975 473 
Q 1284 391 1588 391 
Q 1994 391 2212 530 
Q 2431 669 2431 922 
Q 2431 1156 2273 1281 
Q 2116 1406 1581 1522 
L 1381 1569 
Q 847 1681 609 1914 
Q 372 2147 372 2553 
Q 372 3047 722 3315 
Q 1072 3584 1716 3584 
Q 2034 3584 2315 3537 
Q 2597 3491 2834 3397 
z
" transform="scale(0.015625)"/>
      <path id="DejaVuSans-74" d="M 1172 4494 
L 1172 3500 
L 2356 3500 
L 2356 3053 
L 1172 3053 
L 1172 1153 
Q 1172 725 1289 603 
Q 1406 481 1766 481 
L 2356 481 
L 2356 0 
L 1766 0 
Q 1100 0 847 248 
Q 594 497 594 1153 
L 594 3053 
L 172 3053 
L 172 3500 
L 594 3500 
L 594 4494 
L 1172 4494 
z
" transform="scale(0.015625)"/>
      <path id="DejaVuSans-3a" d="M 750 794 
L 1409 794 
L 1409 0 
L 750 0 
L 750 794 
z
M 750 3309 
L 1409 3309 
L 1409 2516 
L 750 2516 
L 750 3309 
z
" transform="scale(0.015625)"/>
      <path id="DejaVuSans-20" transform="scale(0.015625)"/>
      <path id="DejaVuSans-2d" d="M 313 2009 
L 1997 2009 
L 1997 1497 
L 313 1497 
L 313 2009 
z
" transform="scale(0.015625)"/>
      <path id="DejaVuSans-2e" d="M 684 794 
L 1344 794 
L 1344 0 
L 684 0 
L 684 794 
z
" transform="scale(0.015625)"/>
      <path id="DejaVuSans-64" d="M 2906 2969 
L 2906 4863 
L 3481 4863 
L 3481 0 
L 2906 0 
L 2906 525 
Q 2725 213 2448 61 
Q 2172 -91 1784 -91 
Q 1150 -91 751 415 
Q 353 922 353 1747 
Q 353 2572 751 3078 
Q 1150 3584 1784 3584 
Q 2172 3584 2448 3432 
Q 2725 3281 2906 2969 
z
M 947 1747 
Q 947 1113 1208 752 
Q 1469 391 1925 391 
Q 2381 391 2643 752 
Q 2906 1113 2906 1747 
Q 2906 2381 2643 2742 
Q 2381 3103 1925 3103 
Q 1469 3103 1208 2742 
Q 947 2381 947 1747 
z
" transform="scale(0.015625)"/>
      <path id="DejaVuSans-42" d="M 1259 2228 
L 1259 519 
L 2272 519 
Q 2781 519 3026 730 
Q 3272 941 3272 1375 
Q 3272 1813 3026 2020 
Q 2781 2228 2272 2228 
L 1259 2228 
z
M 1259 4147 
L 1259 2741 
L 2194 2741 
Q 2656 2741 2882 2914 
Q 3109 3088 3109 3444 
Q 3109 3797 2882 3972 
Q 2656 4147 2194 4147 
L 1259 4147 
z
M 628 4666 
L 2241 4666 
Q 2963 4666 3353 4366 
Q 3744 4066 3744 3513 
Q 3744 3084 3544 2831 
Q 3344 2578 2956 2516 
Q 3422 2416 3680 2098 
Q 3938 1781 3938 1306 
Q 3938 681 3513 340 
Q 3088 0 2303 0 
L 628 0 
L 628 4666 
z
" transform="scale(0.015625)"/>
      <path id="DejaVuSans-69" d="M 603 3500 
L 1178 3500 
L 1178 0 
L 603 0 
L 603 3500 
z
M 603 4863 
L 1178 4863 
L 1178 4134 
L 603 4134 
L 603 4863 
z
" transform="scale(0.015625)"/>
     </defs>
     <use xlink:href="#DejaVuSans-47"/>
     <use xlink:href="#DejaVuSans-5f" x="77.490234"/>
     <use xlink:href="#DejaVuSans-63" x="127.490234"/>
     <use xlink:href="#DejaVuSans-73" x="182.470703"/>
     <use xlink:href="#DejaVuSans-74" x="234.570312"/>
     <use xlink:href="#DejaVuSans-3a" x="273.779297"/>
     <use xlink:href="#DejaVuSans-20" x="307.470703"/>
     <use xlink:href="#DejaVuSans-2d" x="339.257812"/>
     <use xlink:href="#DejaVuSans-31" x="375.341797"/>
     <use xlink:href="#DejaVuSans-2e" x="438.964844"/>
     <use xlink:href="#DejaVuSans-35" x="470.751953"/>
     <use xlink:href="#DejaVuSans-20" x="534.375"/>
     <use xlink:href="#DejaVuSans-64" x="566.162109"/>
     <use xlink:href="#DejaVuSans-42" x="629.638672"/>
     <use xlink:href="#DejaVuSans-69" x="698.242188"/>
    </g>
    <!-- G_inpe: 1.9 dBi -->
    <g transform="translate(384.8785 493.297563)scale(0.1 -0.1)">
     <defs>
      <path id="DejaVuSans-6e" d="M 3513 2113 
L 3513 0 
L 2938 0 
L 2938 2094 
Q 2938 2591 2744 2837 
Q 2550 3084 2163 3084 
Q 1697 3084 1428 2787 
Q 1159 2491 1159 1978 
L 1159 0 
L 581 0 
L 581 3500 
L 1159 3500 
L 1159 2956 
Q 1366 3272 1645 3428 
Q 1925 3584 2291 3584 
Q 2894 3584 3203 3211 
Q 3513 2838 3513 2113 
z
" transform="scale(0.015625)"/>
      <path id="DejaVuSans-70" d="M 1159 525 
L 1159 -1331 
L 581 -1331 
L 581 3500 
L 1159 3500 
L 1159 2969 
Q 1341 3281 1617 3432 
Q 1894 3584 2278 3584 
Q 2916 3584 3314 3078 
Q 3713 2572 3713 1747 
Q 3713 922 3314 415 
Q 2916 -91 2278 -91 
Q 1894 -91 1617 61 
Q 1341 213 1159 525 
z
M 3116 1747 
Q 3116 2381 2855 2742 
Q 2594 3103 2138 3103 
Q 1681 3103 1420 2742 
Q 1159 2381 1159 1747 
Q 1159 1113 1420 752 
Q 1681 391 2138 391 
Q 2594 391 2855 752 
Q 3116 1113 3116 1747 
z
" transform="scale(0.015625)"/>
      <path id="DejaVuSans-65" d="M 3597 1894 
L 3597 1613 
L 953 1613 
Q 991 1019 1311 708 
Q 1631 397 2203 397 
Q 2534 397 2845 478 
Q 3156 559 3463 722 
L 3463 178 
Q 3153 47 2828 -22 
Q 2503 -91 2169 -91 
Q 1331 -91 842 396 
Q 353 884 353 1716 
Q 353 2575 817 3079 
Q 1281 3584 2069 3584 
Q 2775 3584 3186 3129 
Q 3597 2675 3597 1894 
z
M 3022 2063 
Q 3016 2534 2758 2815 
Q 2500 3097 2075 3097 
Q 1594 3097 1305 2825 
Q 1016 2553 972 2059 
L 3022 2063 
z
" transform="scale(0.015625)"/>
     </defs>
     <use xlink:href="#DejaVuSans-47"/>
     <use xlink:href="#DejaVuSans-5f" x="77.490234"/>
     <use xlink:href="#DejaVuSans-69" x="127.490234"/>
     <use xlink:href="#DejaVuSans-6e" x="155.273438"/>
     <use xlink:href="#DejaVuSans-70" x="218.652344"/>
     <use xlink:href="#DejaVuSans-65" x="282.128906"/>
     <use xlink:href="#DejaVuSans-3a" x="343.652344"/>
     <use xlink:href="#DejaVuSans-20" x="377.34375"/>
     <use xlink:href="#DejaVuSans-31" x="409.130859"/>
     <use xlink:href="#DejaVuSans-2e" x="472.753906"/>
     <use xlink:href="#DejaVuSans-39" x="504.541016"/>
     <use xlink:href="#DejaVuSans-20" x="568.164062"/>
     <use xlink:href="#DejaVuSans-64" x="599.951172"/>
     <use xlink:href="#DejaVuSans-42" x="663.427734"/>
     <use xlink:href="#DejaVuSans-69" x="732.03125"/>
    </g>
    <!-- Pearson Coef: 0.129 -->
    <g transform="translate(384.8785 504.7735)scale(0.1 -0.1)">
     <defs>
      <path id="DejaVuSans-50" d="M 1259 4147 
L 1259 2394 
L 2053 2394 
Q 2494 2394 2734 2622 
Q 2975 2850 2975 3272 
Q 2975 3691 2734 3919 
Q 2494 4147 2053 4147 
L 1259 4147 
z
M 628 4666 
L 2053 4666 
Q 2838 4666 3239 4311 
Q 3641 3956 3641 3272 
Q 3641 2581 3239 2228 
Q 2838 1875 2053 1875 
L 1259 1875 
L 1259 0 
L 628 0 
L 628 4666 
z
" transform="scale(0.015625)"/>
      <path id="DejaVuSans-61" d="M 2194 1759 
Q 1497 1759 1228 1600 
Q 959 1441 959 1056 
Q 959 750 1161 570 
Q 1363 391 1709 391 
Q 2188 391 2477 730 
Q 2766 1069 2766 1631 
L 2766 1759 
L 2194 1759 
z
M 3341 1997 
L 3341 0 
L 2766 0 
L 2766 531 
Q 2569 213 2275 61 
Q 1981 -91 1556 -91 
Q 1019 -91 701 211 
Q 384 513 384 1019 
Q 384 1609 779 1909 
Q 1175 2209 1959 2209 
L 2766 2209 
L 2766 2266 
Q 2766 2663 2505 2880 
Q 2244 3097 1772 3097 
Q 1472 3097 1187 3025 
Q 903 2953 641 2809 
L 641 3341 
Q 956 3463 1253 3523 
Q 1550 3584 1831 3584 
Q 2591 3584 2966 3190 
Q 3341 2797 3341 1997 
z
" transform="scale(0.015625)"/>
      <path id="DejaVuSans-72" d="M 2631 2963 
Q 2534 3019 2420 3045 
Q 2306 3072 2169 3072 
Q 1681 3072 1420 2755 
Q 1159 2438 1159 1844 
L 1159 0 
L 581 0 
L 581 3500 
L 1159 3500 
L 1159 2956 
Q 1341 3275 1631 3429 
Q 1922 3584 2338 3584 
Q 2397 3584 2469 3576 
Q 2541 3569 2628 3553 
L 2631 2963 
z
" transform="scale(0.015625)"/>
      <path id="DejaVuSans-6f" d="M 1959 3097 
Q 1497 3097 1228 2736 
Q 959 2375 959 1747 
Q 959 1119 1226 758 
Q 1494 397 1959 397 
Q 2419 397 2687 759 
Q 2956 1122 2956 1747 
Q 2956 2369 2687 2733 
Q 2419 3097 1959 3097 
z
M 1959 3584 
Q 2709 3584 3137 3096 
Q 3566 2609 3566 1747 
Q 3566 888 3137 398 
Q 2709 -91 1959 -91 
Q 1206 -91 779 398 
Q 353 888 353 1747 
Q 353 2609 779 3096 
Q 1206 3584 1959 3584 
z
" transform="scale(0.015625)"/>
      <path id="DejaVuSans-43" d="M 4122 4306 
L 4122 3641 
Q 3803 3938 3442 4084 
Q 3081 4231 2675 4231 
Q 1875 4231 1450 3742 
Q 1025 3253 1025 2328 
Q 1025 1406 1450 917 
Q 1875 428 2675 428 
Q 3081 428 3442 575 
Q 3803 722 4122 1019 
L 4122 359 
Q 3791 134 3420 21 
Q 3050 -91 2638 -91 
Q 1578 -91 968 557 
Q 359 1206 359 2328 
Q 359 3453 968 4101 
Q 1578 4750 2638 4750 
Q 3056 4750 3426 4639 
Q 3797 4528 4122 4306 
z
" transform="scale(0.015625)"/>
      <path id="DejaVuSans-66" d="M 2375 4863 
L 2375 4384 
L 1825 4384 
Q 1516 4384 1395 4259 
Q 1275 4134 1275 3809 
L 1275 3500 
L 2222 3500 
L 2222 3053 
L 1275 3053 
L 1275 0 
L 697 0 
L 697 3053 
L 147 3053 
L 147 3500 
L 697 3500 
L 697 3744 
Q 697 4328 969 4595 
Q 1241 4863 1831 4863 
L 2375 4863 
z
" transform="scale(0.015625)"/>
     </defs>
     <use xlink:href="#DejaVuSans-50"/>
     <use xlink:href="#DejaVuSans-65" x="56.677734"/>
     <use xlink:href="#DejaVuSans-61" x="118.201172"/>
     <use xlink:href="#DejaVuSans-72" x="179.480469"/>
     <use xlink:href="#DejaVuSans-73" x="220.59375"/>
     <use xlink:href="#DejaVuSans-6f" x="272.693359"/>
     <use xlink:href="#DejaVuSans-6e" x="333.875"/>
     <use xlink:href="#DejaVuSans-20" x="397.253906"/>
     <use xlink:href="#DejaVuSans-43" x="429.041016"/>
     <use xlink:href="#DejaVuSans-6f" x="498.865234"/>
     <use xlink:href="#DejaVuSans-65" x="560.046875"/>
     <use xlink:href="#DejaVuSans-66" x="621.570312"/>
     <use xlink:href="#DejaVuSans-3a" x="653.150391"/>
     <use xlink:href="#DejaVuSans-20" x="686.841797"/>
     <use xlink:href="#DejaVuSans-30" x="718.628906"/>
     <use xlink:href="#DejaVuSans-2e" x="782.251953"/>
     <use xlink:href="#DejaVuSans-31" x="814.039062"/>
     <use xlink:href="#DejaVuSans-32" x="877.662109"/>
     <use xlink:href="#DejaVuSans-39" x="941.285156"/>
    </g>
   </g>
   <g id="text_17">
    <g id="patch_5">
     <path d="M 52.2385 56.370938 
L 121.861 56.370938 
Q 125.461 56.370938 125.461 52.770938 
L 125.461 41.157188 
Q 125.461 37.557188 121.861 37.557188 
L 52.2385 37.557188 
Q 48.6385 37.557188 48.6385 41.157188 
L 48.6385 52.770938 
Q 48.6385 56.370938 52.2385 56.370938 
z
" style="fill: #ffffff; stroke: #808080; stroke-linejoin: miter"/>
    </g>
    <!-- Freq: 9 GHz -->
    <g transform="translate(52.2385 50.275313)scale(0.12 -0.12)">
     <defs>
      <path id="DejaVuSans-46" d="M 628 4666 
L 3309 4666 
L 3309 4134 
L 1259 4134 
L 1259 2759 
L 3109 2759 
L 3109 2228 
L 1259 2228 
L 1259 0 
L 628 0 
L 628 4666 
z
" transform="scale(0.015625)"/>
      <path id="DejaVuSans-71" d="M 947 1747 
Q 947 1113 1208 752 
Q 1469 391 1925 391 
Q 2381 391 2643 752 
Q 2906 1113 2906 1747 
Q 2906 2381 2643 2742 
Q 2381 3103 1925 3103 
Q 1469 3103 1208 2742 
Q 947 2381 947 1747 
z
M 2906 525 
Q 2725 213 2448 61 
Q 2172 -91 1784 -91 
Q 1150 -91 751 415 
Q 353 922 353 1747 
Q 353 2572 751 3078 
Q 1150 3584 1784 3584 
Q 2172 3584 2448 3432 
Q 2725 3281 2906 2969 
L 2906 3500 
L 3481 3500 
L 3481 -1331 
L 2906 -1331 
L 2906 525 
z
" transform="scale(0.015625)"/>
      <path id="DejaVuSans-48" d="M 628 4666 
L 1259 4666 
L 1259 2753 
L 3553 2753 
L 3553 4666 
L 4184 4666 
L 4184 0 
L 3553 0 
L 3553 2222 
L 1259 2222 
L 1259 0 
L 628 0 
L 628 4666 
z
" transform="scale(0.015625)"/>
      <path id="DejaVuSans-7a" d="M 353 3500 
L 3084 3500 
L 3084 2975 
L 922 459 
L 3084 459 
L 3084 0 
L 275 0 
L 275 525 
L 2438 3041 
L 353 3041 
L 353 3500 
z
" transform="scale(0.015625)"/>
     </defs>
     <use xlink:href="#DejaVuSans-46"/>
     <use xlink:href="#DejaVuSans-72" x="50.269531"/>
     <use xlink:href="#DejaVuSans-65" x="89.132812"/>
     <use xlink:href="#DejaVuSans-71" x="150.65625"/>
     <use xlink:href="#DejaVuSans-3a" x="214.132812"/>
     <use xlink:href="#DejaVuSans-20" x="247.824219"/>
     <use xlink:href="#DejaVuSans-39" x="279.611328"/>
     <use xlink:href="#DejaVuSans-20" x="343.234375"/>
     <use xlink:href="#DejaVuSans-47" x="375.021484"/>
     <use xlink:href="#DejaVuSans-48" x="452.511719"/>
     <use xlink:href="#DejaVuSans-7a" x="527.707031"/>
    </g>
   </g>
   <g id="text_18">
    <!-- Radiation Diagram - 1AVVF09 -->
    <g transform="translate(162.985937 16.318125)scale(0.12 -0.12)">
     <defs>
      <path id="DejaVuSans-52" d="M 2841 2188 
Q 3044 2119 3236 1894 
Q 3428 1669 3622 1275 
L 4263 0 
L 3584 0 
L 2988 1197 
Q 2756 1666 2539 1819 
Q 2322 1972 1947 1972 
L 1259 1972 
L 1259 0 
L 628 0 
L 628 4666 
L 2053 4666 
Q 2853 4666 3247 4331 
Q 3641 3997 3641 3322 
Q 3641 2881 3436 2590 
Q 3231 2300 2841 2188 
z
M 1259 4147 
L 1259 2491 
L 2053 2491 
Q 2509 2491 2742 2702 
Q 2975 2913 2975 3322 
Q 2975 3731 2742 3939 
Q 2509 4147 2053 4147 
L 1259 4147 
z
" transform="scale(0.015625)"/>
      <path id="DejaVuSans-44" d="M 1259 4147 
L 1259 519 
L 2022 519 
Q 2988 519 3436 956 
Q 3884 1394 3884 2338 
Q 3884 3275 3436 3711 
Q 2988 4147 2022 4147 
L 1259 4147 
z
M 628 4666 
L 1925 4666 
Q 3281 4666 3915 4102 
Q 4550 3538 4550 2338 
Q 4550 1131 3912 565 
Q 3275 0 1925 0 
L 628 0 
L 628 4666 
z
" transform="scale(0.015625)"/>
      <path id="DejaVuSans-67" d="M 2906 1791 
Q 2906 2416 2648 2759 
Q 2391 3103 1925 3103 
Q 1463 3103 1205 2759 
Q 947 2416 947 1791 
Q 947 1169 1205 825 
Q 1463 481 1925 481 
Q 2391 481 2648 825 
Q 2906 1169 2906 1791 
z
M 3481 434 
Q 3481 -459 3084 -895 
Q 2688 -1331 1869 -1331 
Q 1566 -1331 1297 -1286 
Q 1028 -1241 775 -1147 
L 775 -588 
Q 1028 -725 1275 -790 
Q 1522 -856 1778 -856 
Q 2344 -856 2625 -561 
Q 2906 -266 2906 331 
L 2906 616 
Q 2728 306 2450 153 
Q 2172 0 1784 0 
Q 1141 0 747 490 
Q 353 981 353 1791 
Q 353 2603 747 3093 
Q 1141 3584 1784 3584 
Q 2172 3584 2450 3431 
Q 2728 3278 2906 2969 
L 2906 3500 
L 3481 3500 
L 3481 434 
z
" transform="scale(0.015625)"/>
      <path id="DejaVuSans-6d" d="M 3328 2828 
Q 3544 3216 3844 3400 
Q 4144 3584 4550 3584 
Q 5097 3584 5394 3201 
Q 5691 2819 5691 2113 
L 5691 0 
L 5113 0 
L 5113 2094 
Q 5113 2597 4934 2840 
Q 4756 3084 4391 3084 
Q 3944 3084 3684 2787 
Q 3425 2491 3425 1978 
L 3425 0 
L 2847 0 
L 2847 2094 
Q 2847 2600 2669 2842 
Q 2491 3084 2119 3084 
Q 1678 3084 1418 2786 
Q 1159 2488 1159 1978 
L 1159 0 
L 581 0 
L 581 3500 
L 1159 3500 
L 1159 2956 
Q 1356 3278 1631 3431 
Q 1906 3584 2284 3584 
Q 2666 3584 2933 3390 
Q 3200 3197 3328 2828 
z
" transform="scale(0.015625)"/>
      <path id="DejaVuSans-41" d="M 2188 4044 
L 1331 1722 
L 3047 1722 
L 2188 4044 
z
M 1831 4666 
L 2547 4666 
L 4325 0 
L 3669 0 
L 3244 1197 
L 1141 1197 
L 716 0 
L 50 0 
L 1831 4666 
z
" transform="scale(0.015625)"/>
      <path id="DejaVuSans-56" d="M 1831 0 
L 50 4666 
L 709 4666 
L 2188 738 
L 3669 4666 
L 4325 4666 
L 2547 0 
L 1831 0 
z
" transform="scale(0.015625)"/>
     </defs>
     <use xlink:href="#DejaVuSans-52"/>
     <use xlink:href="#DejaVuSans-61" x="67.232422"/>
     <use xlink:href="#DejaVuSans-64" x="128.511719"/>
     <use xlink:href="#DejaVuSans-69" x="191.988281"/>
     <use xlink:href="#DejaVuSans-61" x="219.771484"/>
     <use xlink:href="#DejaVuSans-74" x="281.050781"/>
     <use xlink:href="#DejaVuSans-69" x="320.259766"/>
     <use xlink:href="#DejaVuSans-6f" x="348.042969"/>
     <use xlink:href="#DejaVuSans-6e" x="409.224609"/>
     <use xlink:href="#DejaVuSans-20" x="472.603516"/>
     <use xlink:href="#DejaVuSans-44" x="504.390625"/>
     <use xlink:href="#DejaVuSans-69" x="581.392578"/>
     <use xlink:href="#DejaVuSans-61" x="609.175781"/>
     <use xlink:href="#DejaVuSans-67" x="670.455078"/>
     <use xlink:href="#DejaVuSans-72" x="733.931641"/>
     <use xlink:href="#DejaVuSans-61" x="775.044922"/>
     <use xlink:href="#DejaVuSans-6d" x="836.324219"/>
     <use xlink:href="#DejaVuSans-20" x="933.736328"/>
     <use xlink:href="#DejaVuSans-2d" x="965.523438"/>
     <use xlink:href="#DejaVuSans-20" x="1001.607422"/>
     <use xlink:href="#DejaVuSans-31" x="1033.394531"/>
     <use xlink:href="#DejaVuSans-41" x="1097.017578"/>
     <use xlink:href="#DejaVuSans-56" x="1159.050781"/>
     <use xlink:href="#DejaVuSans-56" x="1227.458984"/>
     <use xlink:href="#DejaVuSans-46" x="1295.867188"/>
     <use xlink:href="#DejaVuSans-30" x="1353.386719"/>
     <use xlink:href="#DejaVuSans-39" x="1417.009766"/>
    </g>
   </g>
   <g id="legend_1">
    <g id="patch_6">
     <path d="M 411.802812 78.513438 
L 466.5825 78.513438 
Q 468.5825 78.513438 468.5825 76.513438 
L 468.5825 48.157188 
Q 468.5825 46.157188 466.5825 46.157188 
L 411.802812 46.157188 
Q 409.802812 46.157188 409.802812 48.157188 
L 409.802812 76.513438 
Q 409.802812 78.513438 411.802812 78.513438 
z
" style="fill: #ffffff; opacity: 0.8; stroke: #cccccc; stroke-linejoin: miter"/>
    </g>
    <g id="line2d_18">
     <path d="M 413.802812 54.255625 
L 423.802812 54.255625 
L 433.802812 54.255625 
" style="fill: none; stroke: #ff0000; stroke-width: 1.5; stroke-linecap: square"/>
    </g>
    <g id="text_19">
     <!-- INPE -->
     <g transform="translate(441.802812 57.755625)scale(0.1 -0.1)">
      <defs>
       <path id="DejaVuSans-49" d="M 628 4666 
L 1259 4666 
L 1259 0 
L 628 0 
L 628 4666 
z
" transform="scale(0.015625)"/>
       <path id="DejaVuSans-4e" d="M 628 4666 
L 1478 4666 
L 3547 763 
L 3547 4666 
L 4159 4666 
L 4159 0 
L 3309 0 
L 1241 3903 
L 1241 0 
L 628 0 
L 628 4666 
z
" transform="scale(0.015625)"/>
       <path id="DejaVuSans-45" d="M 628 4666 
L 3578 4666 
L 3578 4134 
L 1259 4134 
L 1259 2753 
L 3481 2753 
L 3481 2222 
L 1259 2222 
L 1259 531 
L 3634 531 
L 3634 0 
L 628 0 
L 628 4666 
z
" transform="scale(0.015625)"/>
      </defs>
      <use xlink:href="#DejaVuSans-49"/>
      <use xlink:href="#DejaVuSans-4e" x="29.492188"/>
      <use xlink:href="#DejaVuSans-50" x="104.296875"/>
      <use xlink:href="#DejaVuSans-45" x="164.599609"/>
     </g>
    </g>
    <g id="line2d_19">
     <path d="M 413.802812 68.93375 
L 423.802812 68.93375 
L 433.802812 68.93375 
" style="fill: none; stroke-dasharray: 5.55,2.4; stroke-dashoffset: 0; stroke: #0000ff; stroke-width: 1.5"/>
    </g>
    <g id="text_20">
     <!-- CST -->
     <g transform="translate(441.802812 72.43375)scale(0.1 -0.1)">
      <defs>
       <path id="DejaVuSans-53" d="M 3425 4513 
L 3425 3897 
Q 3066 4069 2747 4153 
Q 2428 4238 2131 4238 
Q 1616 4238 1336 4038 
Q 1056 3838 1056 3469 
Q 1056 3159 1242 3001 
Q 1428 2844 1947 2747 
L 2328 2669 
Q 3034 2534 3370 2195 
Q 3706 1856 3706 1288 
Q 3706 609 3251 259 
Q 2797 -91 1919 -91 
Q 1588 -91 1214 -16 
Q 841 59 441 206 
L 441 856 
Q 825 641 1194 531 
Q 1563 422 1919 422 
Q 2459 422 2753 634 
Q 3047 847 3047 1241 
Q 3047 1584 2836 1778 
Q 2625 1972 2144 2069 
L 1759 2144 
Q 1053 2284 737 2584 
Q 422 2884 422 3419 
Q 422 4038 858 4394 
Q 1294 4750 2059 4750 
Q 2388 4750 2728 4690 
Q 3069 4631 3425 4513 
z
" transform="scale(0.015625)"/>
       <path id="DejaVuSans-54" d="M -19 4666 
L 3928 4666 
L 3928 4134 
L 2272 4134 
L 2272 0 
L 1638 0 
L 1638 4134 
L -19 4134 
L -19 4666 
z
" transform="scale(0.015625)"/>
      </defs>
      <use xlink:href="#DejaVuSans-43"/>
      <use xlink:href="#DejaVuSans-53" x="69.824219"/>
      <use xlink:href="#DejaVuSans-54" x="133.300781"/>
     </g>
    </g>
   </g>
  </g>
 </g>
 <defs>
  <clipPath id="pdc69ee4b3c">
   <path d="M 473.5825 262.917188 
C 473.5825 233.795931 467.846247 204.957842 456.702025 178.05331 
C 445.557803 151.148777 429.222338 126.701026 408.6305 106.109188 
C 388.038662 85.51735 363.590911 69.181885 336.686378 58.037662 
C 309.781845 46.89344 280.943756 41.157188 251.8225 41.157188 
C 222.701244 41.157188 193.863155 46.89344 166.958622 58.037662 
C 140.054089 69.181885 115.606338 85.51735 95.0145 106.109188 
C 74.422662 126.701026 58.087197 151.148777 46.942975 178.05331 
C 35.798753 204.957842 30.0625 233.795931 30.0625 262.917188 
C 30.0625 292.038444 35.798753 320.876533 46.942975 347.781065 
C 58.087197 374.685598 74.422662 399.133349 95.0145 419.725187 
C 115.606338 440.317025 140.054089 456.65249 166.958622 467.796713 
C 193.863155 478.940935 222.701244 484.677188 251.8225 484.677188 
C 280.943756 484.677188 309.781845 478.940935 336.686378 467.796713 
C 363.590911 456.65249 388.038662 440.317025 408.6305 419.725187 
C 429.222338 399.133349 445.557803 374.685598 456.702025 347.781065 
C 467.846247 320.876533 473.5825 292.038444 473.5825 262.917188 
M 251.8225 262.917188 
C 251.8225 262.917188 251.8225 262.917188 251.8225 262.917188 
C 251.8225 262.917188 251.8225 262.917188 251.8225 262.917188 
C 251.8225 262.917188 251.8225 262.917188 251.8225 262.917188 
C 251.8225 262.917188 251.8225 262.917188 251.8225 262.917188 
C 251.8225 262.917188 251.8225 262.917188 251.8225 262.917188 
C 251.8225 262.917188 251.8225 262.917188 251.8225 262.917188 
C 251.8225 262.917188 251.8225 262.917188 251.8225 262.917188 
C 251.8225 262.917188 251.8225 262.917188 251.8225 262.917188 
C 251.8225 262.917188 251.8225 262.917188 251.8225 262.917188 
C 251.8225 262.917188 251.8225 262.917188 251.8225 262.917188 
C 251.8225 262.917188 251.8225 262.917188 251.8225 262.917188 
C 251.8225 262.917188 251.8225 262.917188 251.8225 262.917188 
C 251.8225 262.917188 251.8225 262.917188 251.8225 262.917188 
C 251.8225 262.917188 251.8225 262.917188 251.8225 262.917188 
C 251.8225 262.917188 251.8225 262.917188 251.8225 262.917188 
C 251.8225 262.917188 251.8225 262.917188 251.8225 262.917188 
M 473.5825 262.917188 
z
"/>
  </clipPath>
 </defs>
</svg>
