<?xml version="1.0" encoding="utf-8" standalone="no"?>
<!DOCTYPE svg PUBLIC "-//W3C//DTD SVG 1.1//EN"
  "http://www.w3.org/Graphics/SVG/1.1/DTD/svg11.dtd">
<svg xmlns:xlink="http://www.w3.org/1999/xlink" width="506.82625pt" height="514.053188pt" viewBox="0 0 506.82625 514.053188" xmlns="http://www.w3.org/2000/svg" version="1.1">
 <metadata>
  <rdf:RDF xmlns:dc="http://purl.org/dc/elements/1.1/" xmlns:cc="http://creativecommons.org/ns#" xmlns:rdf="http://www.w3.org/1999/02/22-rdf-syntax-ns#">
   <cc:Work>
    <dc:type rdf:resource="http://purl.org/dc/dcmitype/StillImage"/>
    <dc:date>2024-10-21T17:16:51.456843</dc:date>
    <dc:format>image/svg+xml</dc:format>
    <dc:creator>
     <cc:Agent>
      <dc:title>Matplotlib v3.8.3, https://matplotlib.org/</dc:title>
     </cc:Agent>
    </dc:creator>
   </cc:Work>
  </rdf:RDF>
 </metadata>
 <defs>
  <style type="text/css">*{stroke-linejoin: round; stroke-linecap: butt}</style>
 </defs>
 <g id="figure_1">
  <g id="patch_1">
   <path d="M 0 514.053188 
L 506.82625 514.053188 
L 506.82625 0 
L 0 0 
z
" style="fill: #ffffff"/>
  </g>
  <g id="axes_1">
   <g id="patch_2">
    <path d="M 473.5825 262.917188 
C 473.5825 233.795931 467.846247 204.957842 456.702025 178.05331 
C 445.557803 151.148777 429.222338 126.701026 408.6305 106.109188 
C 388.038662 85.51735 363.590911 69.181885 336.686378 58.037662 
C 309.781845 46.89344 280.943756 41.157188 251.8225 41.157188 
C 222.701244 41.157188 193.863155 46.89344 166.958622 58.037662 
C 140.054089 69.181885 115.606338 85.51735 95.0145 106.109188 
C 74.422662 126.701026 58.087197 151.148777 46.942975 178.05331 
C 35.798753 204.957842 30.0625 233.795931 30.0625 262.917188 
C 30.0625 292.038444 35.798753 320.876533 46.942975 347.781065 
C 58.087197 374.685598 74.422662 399.133349 95.0145 419.725187 
C 115.606338 440.317025 140.054089 456.65249 166.958622 467.796713 
C 193.863155 478.940935 222.701244 484.677188 251.8225 484.677188 
C 280.943756 484.677188 309.781845 478.940935 336.686378 467.796713 
C 363.590911 456.65249 388.038662 440.317025 408.6305 419.725187 
C 429.222338 399.133349 445.557803 374.685598 456.702025 347.781065 
C 467.846247 320.876533 473.5825 292.038444 473.5825 262.917188 
M 251.8225 262.917188 
C 251.8225 262.917188 251.8225 262.917188 251.8225 262.917188 
C 251.8225 262.917188 251.8225 262.917188 251.8225 262.917188 
C 251.8225 262.917188 251.8225 262.917188 251.8225 262.917188 
C 251.8225 262.917188 251.8225 262.917188 251.8225 262.917188 
C 251.8225 262.917188 251.8225 262.917188 251.8225 262.917188 
C 251.8225 262.917188 251.8225 262.917188 251.8225 262.917188 
C 251.8225 262.917188 251.8225 262.917188 251.8225 262.917188 
C 251.8225 262.917188 251.8225 262.917188 251.8225 262.917188 
C 251.8225 262.917188 251.8225 262.917188 251.8225 262.917188 
C 251.8225 262.917188 251.8225 262.917188 251.8225 262.917188 
C 251.8225 262.917188 251.8225 262.917188 251.8225 262.917188 
C 251.8225 262.917188 251.8225 262.917188 251.8225 262.917188 
C 251.8225 262.917188 251.8225 262.917188 251.8225 262.917188 
C 251.8225 262.917188 251.8225 262.917188 251.8225 262.917188 
C 251.8225 262.917188 251.8225 262.917188 251.8225 262.917188 
C 251.8225 262.917188 251.8225 262.917188 251.8225 262.917188 
z
" style="fill: #ffffff"/>
   </g>
   <g id="matplotlib.axis_1">
    <g id="xtick_1">
     <g id="line2d_1">
      <path d="M 251.8225 262.917188 
L 251.8225 41.157188 
" clip-path="url(#pa55543ff3a)" style="fill: none; stroke: #b0b0b0; stroke-width: 0.8; stroke-linecap: square"/>
     </g>
     <g id="text_1">
      <!-- 0° -->
      <g transform="translate(246.14125 29.916563) scale(0.1 -0.1)">
       <defs>
        <path id="DejaVuSans-30" d="M 2034 4250 
Q 1547 4250 1301 3770 
Q 1056 3291 1056 2328 
Q 1056 1369 1301 889 
Q 1547 409 2034 409 
Q 2525 409 2770 889 
Q 3016 1369 3016 2328 
Q 3016 3291 2770 3770 
Q 2525 4250 2034 4250 
z
M 2034 4750 
Q 2819 4750 3233 4129 
Q 3647 3509 3647 2328 
Q 3647 1150 3233 529 
Q 2819 -91 2034 -91 
Q 1250 -91 836 529 
Q 422 1150 422 2328 
Q 422 3509 836 4129 
Q 1250 4750 2034 4750 
z
" transform="scale(0.015625)"/>
        <path id="DejaVuSans-b0" d="M 1600 4347 
Q 1350 4347 1178 4173 
Q 1006 4000 1006 3750 
Q 1006 3503 1178 3333 
Q 1350 3163 1600 3163 
Q 1850 3163 2022 3333 
Q 2194 3503 2194 3750 
Q 2194 3997 2020 4172 
Q 1847 4347 1600 4347 
z
M 1600 4750 
Q 1800 4750 1984 4673 
Q 2169 4597 2303 4453 
Q 2447 4313 2519 4134 
Q 2591 3956 2591 3750 
Q 2591 3338 2302 3052 
Q 2013 2766 1594 2766 
Q 1172 2766 890 3047 
Q 609 3328 609 3750 
Q 609 4169 896 4459 
Q 1184 4750 1600 4750 
z
" transform="scale(0.015625)"/>
       </defs>
       <use xlink:href="#DejaVuSans-30"/>
       <use xlink:href="#DejaVuSans-b0" x="63.623047"/>
      </g>
     </g>
    </g>
    <g id="xtick_2">
     <g id="line2d_2">
      <path d="M 251.8225 262.917188 
L 95.0145 106.109188 
" clip-path="url(#pa55543ff3a)" style="fill: none; stroke: #b0b0b0; stroke-width: 0.8; stroke-linecap: square"/>
     </g>
     <g id="text_2">
      <!-- 45° -->
      <g transform="translate(76.252505 98.969068) scale(0.1 -0.1)">
       <defs>
        <path id="DejaVuSans-34" d="M 2419 4116 
L 825 1625 
L 2419 1625 
L 2419 4116 
z
M 2253 4666 
L 3047 4666 
L 3047 1625 
L 3713 1625 
L 3713 1100 
L 3047 1100 
L 3047 0 
L 2419 0 
L 2419 1100 
L 313 1100 
L 313 1709 
L 2253 4666 
z
" transform="scale(0.015625)"/>
        <path id="DejaVuSans-35" d="M 691 4666 
L 3169 4666 
L 3169 4134 
L 1269 4134 
L 1269 2991 
Q 1406 3038 1543 3061 
Q 1681 3084 1819 3084 
Q 2600 3084 3056 2656 
Q 3513 2228 3513 1497 
Q 3513 744 3044 326 
Q 2575 -91 1722 -91 
Q 1428 -91 1123 -41 
Q 819 9 494 109 
L 494 744 
Q 775 591 1075 516 
Q 1375 441 1709 441 
Q 2250 441 2565 725 
Q 2881 1009 2881 1497 
Q 2881 1984 2565 2268 
Q 2250 2553 1709 2553 
Q 1456 2553 1204 2497 
Q 953 2441 691 2322 
L 691 4666 
z
" transform="scale(0.015625)"/>
       </defs>
       <use xlink:href="#DejaVuSans-34"/>
       <use xlink:href="#DejaVuSans-35" x="63.623047"/>
       <use xlink:href="#DejaVuSans-b0" x="127.246094"/>
      </g>
     </g>
    </g>
    <g id="xtick_3">
     <g id="line2d_3">
      <path d="M 251.8225 262.917188 
L 30.0625 262.917188 
" clip-path="url(#pa55543ff3a)" style="fill: none; stroke: #b0b0b0; stroke-width: 0.8; stroke-linecap: square"/>
     </g>
     <g id="text_3">
      <!-- 90° -->
      <g transform="translate(7.2 265.676563) scale(0.1 -0.1)">
       <defs>
        <path id="DejaVuSans-39" d="M 703 97 
L 703 672 
Q 941 559 1184 500 
Q 1428 441 1663 441 
Q 2288 441 2617 861 
Q 2947 1281 2994 2138 
Q 2813 1869 2534 1725 
Q 2256 1581 1919 1581 
Q 1219 1581 811 2004 
Q 403 2428 403 3163 
Q 403 3881 828 4315 
Q 1253 4750 1959 4750 
Q 2769 4750 3195 4129 
Q 3622 3509 3622 2328 
Q 3622 1225 3098 567 
Q 2575 -91 1691 -91 
Q 1453 -91 1209 -44 
Q 966 3 703 97 
z
M 1959 2075 
Q 2384 2075 2632 2365 
Q 2881 2656 2881 3163 
Q 2881 3666 2632 3958 
Q 2384 4250 1959 4250 
Q 1534 4250 1286 3958 
Q 1038 3666 1038 3163 
Q 1038 2656 1286 2365 
Q 1534 2075 1959 2075 
z
" transform="scale(0.015625)"/>
       </defs>
       <use xlink:href="#DejaVuSans-39"/>
       <use xlink:href="#DejaVuSans-30" x="63.623047"/>
       <use xlink:href="#DejaVuSans-b0" x="127.246094"/>
      </g>
     </g>
    </g>
    <g id="xtick_4">
     <g id="line2d_4">
      <path d="M 251.8225 262.917188 
L 95.0145 419.725187 
" clip-path="url(#pa55543ff3a)" style="fill: none; stroke: #b0b0b0; stroke-width: 0.8; stroke-linecap: square"/>
     </g>
     <g id="text_4">
      <!-- 135° -->
      <g transform="translate(73.071255 432.384057) scale(0.1 -0.1)">
       <defs>
        <path id="DejaVuSans-31" d="M 794 531 
L 1825 531 
L 1825 4091 
L 703 3866 
L 703 4441 
L 1819 4666 
L 2450 4666 
L 2450 531 
L 3481 531 
L 3481 0 
L 794 0 
L 794 531 
z
" transform="scale(0.015625)"/>
        <path id="DejaVuSans-33" d="M 2597 2516 
Q 3050 2419 3304 2112 
Q 3559 1806 3559 1356 
Q 3559 666 3084 287 
Q 2609 -91 1734 -91 
Q 1441 -91 1130 -33 
Q 819 25 488 141 
L 488 750 
Q 750 597 1062 519 
Q 1375 441 1716 441 
Q 2309 441 2620 675 
Q 2931 909 2931 1356 
Q 2931 1769 2642 2001 
Q 2353 2234 1838 2234 
L 1294 2234 
L 1294 2753 
L 1863 2753 
Q 2328 2753 2575 2939 
Q 2822 3125 2822 3475 
Q 2822 3834 2567 4026 
Q 2313 4219 1838 4219 
Q 1578 4219 1281 4162 
Q 984 4106 628 3988 
L 628 4550 
Q 988 4650 1302 4700 
Q 1616 4750 1894 4750 
Q 2613 4750 3031 4423 
Q 3450 4097 3450 3541 
Q 3450 3153 3228 2886 
Q 3006 2619 2597 2516 
z
" transform="scale(0.015625)"/>
       </defs>
       <use xlink:href="#DejaVuSans-31"/>
       <use xlink:href="#DejaVuSans-33" x="63.623047"/>
       <use xlink:href="#DejaVuSans-35" x="127.246094"/>
       <use xlink:href="#DejaVuSans-b0" x="190.869141"/>
      </g>
     </g>
    </g>
    <g id="xtick_5">
     <g id="line2d_5">
      <path d="M 251.8225 262.917188 
L 251.8225 484.677188 
" clip-path="url(#pa55543ff3a)" style="fill: none; stroke: #b0b0b0; stroke-width: 0.8; stroke-linecap: square"/>
     </g>
     <g id="text_5">
      <!-- 180° -->
      <g transform="translate(239.77875 501.436563) scale(0.1 -0.1)">
       <defs>
        <path id="DejaVuSans-38" d="M 2034 2216 
Q 1584 2216 1326 1975 
Q 1069 1734 1069 1313 
Q 1069 891 1326 650 
Q 1584 409 2034 409 
Q 2484 409 2743 651 
Q 3003 894 3003 1313 
Q 3003 1734 2745 1975 
Q 2488 2216 2034 2216 
z
M 1403 2484 
Q 997 2584 770 2862 
Q 544 3141 544 3541 
Q 544 4100 942 4425 
Q 1341 4750 2034 4750 
Q 2731 4750 3128 4425 
Q 3525 4100 3525 3541 
Q 3525 3141 3298 2862 
Q 3072 2584 2669 2484 
Q 3125 2378 3379 2068 
Q 3634 1759 3634 1313 
Q 3634 634 3220 271 
Q 2806 -91 2034 -91 
Q 1263 -91 848 271 
Q 434 634 434 1313 
Q 434 1759 690 2068 
Q 947 2378 1403 2484 
z
M 1172 3481 
Q 1172 3119 1398 2916 
Q 1625 2713 2034 2713 
Q 2441 2713 2670 2916 
Q 2900 3119 2900 3481 
Q 2900 3844 2670 4047 
Q 2441 4250 2034 4250 
Q 1625 4250 1398 4047 
Q 1172 3844 1172 3481 
z
" transform="scale(0.015625)"/>
       </defs>
       <use xlink:href="#DejaVuSans-31"/>
       <use xlink:href="#DejaVuSans-38" x="63.623047"/>
       <use xlink:href="#DejaVuSans-30" x="127.246094"/>
       <use xlink:href="#DejaVuSans-b0" x="190.869141"/>
      </g>
     </g>
    </g>
    <g id="xtick_6">
     <g id="line2d_6">
      <path d="M 251.8225 262.917188 
L 408.6305 419.725187 
" clip-path="url(#pa55543ff3a)" style="fill: none; stroke: #b0b0b0; stroke-width: 0.8; stroke-linecap: square"/>
     </g>
     <g id="text_6">
      <!-- 225° -->
      <g transform="translate(406.486245 432.384057) scale(0.1 -0.1)">
       <defs>
        <path id="DejaVuSans-32" d="M 1228 531 
L 3431 531 
L 3431 0 
L 469 0 
L 469 531 
Q 828 903 1448 1529 
Q 2069 2156 2228 2338 
Q 2531 2678 2651 2914 
Q 2772 3150 2772 3378 
Q 2772 3750 2511 3984 
Q 2250 4219 1831 4219 
Q 1534 4219 1204 4116 
Q 875 4013 500 3803 
L 500 4441 
Q 881 4594 1212 4672 
Q 1544 4750 1819 4750 
Q 2544 4750 2975 4387 
Q 3406 4025 3406 3419 
Q 3406 3131 3298 2873 
Q 3191 2616 2906 2266 
Q 2828 2175 2409 1742 
Q 1991 1309 1228 531 
z
" transform="scale(0.015625)"/>
       </defs>
       <use xlink:href="#DejaVuSans-32"/>
       <use xlink:href="#DejaVuSans-32" x="63.623047"/>
       <use xlink:href="#DejaVuSans-35" x="127.246094"/>
       <use xlink:href="#DejaVuSans-b0" x="190.869141"/>
      </g>
     </g>
    </g>
    <g id="xtick_7">
     <g id="line2d_7">
      <path d="M 251.8225 262.917188 
L 473.5825 262.917188 
" clip-path="url(#pa55543ff3a)" style="fill: none; stroke: #b0b0b0; stroke-width: 0.8; stroke-linecap: square"/>
     </g>
     <g id="text_7">
      <!-- 270° -->
      <g transform="translate(475.53875 265.676563) scale(0.1 -0.1)">
       <defs>
        <path id="DejaVuSans-37" d="M 525 4666 
L 3525 4666 
L 3525 4397 
L 1831 0 
L 1172 0 
L 2766 4134 
L 525 4134 
L 525 4666 
z
" transform="scale(0.015625)"/>
       </defs>
       <use xlink:href="#DejaVuSans-32"/>
       <use xlink:href="#DejaVuSans-37" x="63.623047"/>
       <use xlink:href="#DejaVuSans-30" x="127.246094"/>
       <use xlink:href="#DejaVuSans-b0" x="190.869141"/>
      </g>
     </g>
    </g>
    <g id="xtick_8">
     <g id="line2d_8">
      <path d="M 251.8225 262.917188 
L 408.6305 106.109188 
" clip-path="url(#pa55543ff3a)" style="fill: none; stroke: #b0b0b0; stroke-width: 0.8; stroke-linecap: square"/>
     </g>
     <g id="text_8">
      <!-- 315° -->
      <g transform="translate(406.486245 98.969068) scale(0.1 -0.1)">
       <use xlink:href="#DejaVuSans-33"/>
       <use xlink:href="#DejaVuSans-31" x="63.623047"/>
       <use xlink:href="#DejaVuSans-35" x="127.246094"/>
       <use xlink:href="#DejaVuSans-b0" x="190.869141"/>
      </g>
     </g>
    </g>
   </g>
   <g id="matplotlib.axis_2">
    <g id="ytick_1">
     <g id="line2d_9">
      <path d="M 251.8225 235.197188 
C 248.182343 235.197188 244.577582 235.914219 241.214515 237.307247 
C 237.851449 238.700275 234.79548 240.742208 232.2215 243.316188 
C 229.64752 245.890167 227.605587 248.946136 226.212559 252.309203 
C 224.819532 255.672269 224.1025 259.27703 224.1025 262.917188 
C 224.1025 266.557345 224.819532 270.162106 226.212559 273.525172 
C 227.605587 276.888239 229.64752 279.944208 232.2215 282.518187 
C 234.79548 285.092167 237.851449 287.1341 241.214515 288.527128 
C 244.577582 289.920156 248.182343 290.637188 251.8225 290.637188 
C 255.462657 290.637188 259.067418 289.920156 262.430485 288.527128 
C 265.793551 287.1341 268.84952 285.092167 271.4235 282.518187 
C 273.99748 279.944208 276.039413 276.888239 277.432441 273.525172 
C 278.825468 270.162106 279.5425 266.557345 279.5425 262.917188 
C 279.5425 259.27703 278.825468 255.672269 277.432441 252.309203 
C 276.039413 248.946136 273.99748 245.890167 271.4235 243.316188 
C 268.84952 240.742208 265.793551 238.700275 262.430485 237.307247 
C 259.067418 235.914219 255.462657 235.197188 251.8225 235.197188 
" clip-path="url(#pa55543ff3a)" style="fill: none; stroke: #b0b0b0; stroke-width: 0.8; stroke-linecap: square"/>
     </g>
     <g id="text_9">
      <!-- −35 -->
      <g transform="translate(241.214515 235.227559) scale(0.1 -0.1)">
       <defs>
        <path id="DejaVuSans-2212" d="M 678 2272 
L 4684 2272 
L 4684 1741 
L 678 1741 
L 678 2272 
z
" transform="scale(0.015625)"/>
       </defs>
       <use xlink:href="#DejaVuSans-2212"/>
       <use xlink:href="#DejaVuSans-33" x="83.789062"/>
       <use xlink:href="#DejaVuSans-35" x="147.412109"/>
      </g>
     </g>
    </g>
    <g id="ytick_2">
     <g id="line2d_10">
      <path d="M 251.8225 207.477188 
C 244.542186 207.477188 237.332664 208.911251 230.606531 211.697306 
C 223.880397 214.483362 217.76846 218.567228 212.6205 223.715188 
C 207.472541 228.863147 203.388674 234.975085 200.602619 241.701218 
C 197.816563 248.427351 196.3825 255.636873 196.3825 262.917188 
C 196.3825 270.197502 197.816563 277.407024 200.602619 284.133157 
C 203.388674 290.85929 207.472541 296.971228 212.6205 302.119187 
C 217.76846 307.267147 223.880397 311.351013 230.606531 314.137069 
C 237.332664 316.923124 244.542186 318.357188 251.8225 318.357188 
C 259.102814 318.357188 266.312336 316.923124 273.038469 314.137069 
C 279.764603 311.351013 285.87654 307.267147 291.0245 302.119187 
C 296.172459 296.971228 300.256326 290.85929 303.042381 284.133157 
C 305.828437 277.407024 307.2625 270.197502 307.2625 262.917188 
C 307.2625 255.636873 305.828437 248.427351 303.042381 241.701218 
C 300.256326 234.975085 296.172459 228.863147 291.0245 223.715188 
C 285.87654 218.567228 279.764603 214.483362 273.038469 211.697306 
C 266.312336 208.911251 259.102814 207.477188 251.8225 207.477188 
" clip-path="url(#pa55543ff3a)" style="fill: none; stroke: #b0b0b0; stroke-width: 0.8; stroke-linecap: square"/>
     </g>
     <g id="text_10">
      <!-- −30 -->
      <g transform="translate(230.606531 209.617619) scale(0.1 -0.1)">
       <use xlink:href="#DejaVuSans-2212"/>
       <use xlink:href="#DejaVuSans-33" x="83.789062"/>
       <use xlink:href="#DejaVuSans-30" x="147.412109"/>
      </g>
     </g>
    </g>
    <g id="ytick_3">
     <g id="line2d_11">
      <path d="M 251.8225 179.757188 
C 240.902029 179.757188 230.087746 181.908282 219.998546 186.087366 
C 209.909346 190.266449 200.741439 196.392248 193.0195 204.114188 
C 185.297561 211.836127 179.171761 221.004033 174.992678 231.093233 
C 170.813595 241.182433 168.6625 251.996716 168.6625 262.917188 
C 168.6625 273.837659 170.813595 284.651942 174.992678 294.741142 
C 179.171761 304.830342 185.297561 313.998248 193.0195 321.720187 
C 200.741439 329.442127 209.909346 335.567926 219.998546 339.747009 
C 230.087746 343.926093 240.902029 346.077188 251.8225 346.077188 
C 262.742971 346.077188 273.557254 343.926093 283.646454 339.747009 
C 293.735654 335.567926 302.903561 329.442127 310.6255 321.720187 
C 318.347439 313.998248 324.473239 304.830342 328.652322 294.741142 
C 332.831405 284.651942 334.9825 273.837659 334.9825 262.917188 
C 334.9825 251.996716 332.831405 241.182433 328.652322 231.093233 
C 324.473239 221.004033 318.347439 211.836127 310.6255 204.114188 
C 302.903561 196.392248 293.735654 190.266449 283.646454 186.087366 
C 273.557254 181.908282 262.742971 179.757188 251.8225 179.757188 
" clip-path="url(#pa55543ff3a)" style="fill: none; stroke: #b0b0b0; stroke-width: 0.8; stroke-linecap: square"/>
     </g>
     <g id="text_11">
      <!-- −25 -->
      <g transform="translate(219.998546 184.007678) scale(0.1 -0.1)">
       <use xlink:href="#DejaVuSans-2212"/>
       <use xlink:href="#DejaVuSans-32" x="83.789062"/>
       <use xlink:href="#DejaVuSans-35" x="147.412109"/>
      </g>
     </g>
    </g>
    <g id="ytick_4">
     <g id="line2d_12">
      <path d="M 251.8225 152.037188 
C 237.261872 152.037188 222.842827 154.905314 209.390561 160.477425 
C 195.938295 166.049536 183.714419 174.217269 173.4185 184.513188 
C 163.122581 194.809107 154.954849 207.032982 149.382737 220.485249 
C 143.810626 233.937515 140.9425 248.356559 140.9425 262.917188 
C 140.9425 277.477816 143.810626 291.89686 149.382737 305.349126 
C 154.954849 318.801393 163.122581 331.025268 173.4185 341.321187 
C 183.714419 351.617106 195.938295 359.784839 209.390561 365.35695 
C 222.842827 370.929061 237.261872 373.797188 251.8225 373.797188 
C 266.383128 373.797188 280.802173 370.929061 294.254439 365.35695 
C 307.706705 359.784839 319.930581 351.617106 330.2265 341.321187 
C 340.522419 331.025268 348.690151 318.801393 354.262263 305.349126 
C 359.834374 291.89686 362.7025 277.477816 362.7025 262.917188 
C 362.7025 248.356559 359.834374 233.937515 354.262263 220.485249 
C 348.690151 207.032982 340.522419 194.809107 330.2265 184.513188 
C 319.930581 174.217269 307.706705 166.049536 294.254439 160.477425 
C 280.802173 154.905314 266.383128 152.037188 251.8225 152.037188 
" clip-path="url(#pa55543ff3a)" style="fill: none; stroke: #b0b0b0; stroke-width: 0.8; stroke-linecap: square"/>
     </g>
     <g id="text_12">
      <!-- −20 -->
      <g transform="translate(209.390561 158.397737) scale(0.1 -0.1)">
       <use xlink:href="#DejaVuSans-2212"/>
       <use xlink:href="#DejaVuSans-32" x="83.789062"/>
       <use xlink:href="#DejaVuSans-30" x="147.412109"/>
      </g>
     </g>
    </g>
    <g id="ytick_5">
     <g id="line2d_13">
      <path d="M 251.8225 124.317188 
C 233.621715 124.317188 215.597909 127.902345 198.782576 134.867484 
C 181.967243 141.832623 166.687399 152.042289 153.8175 164.912188 
C 140.947601 177.782086 130.737936 193.061931 123.772797 209.877264 
C 116.807658 226.692597 113.2225 244.716402 113.2225 262.917188 
C 113.2225 281.117973 116.807658 299.141778 123.772797 315.957111 
C 130.737936 332.772444 140.947601 348.052289 153.8175 360.922187 
C 166.687399 373.792086 181.967243 384.001752 198.782576 390.966891 
C 215.597909 397.93203 233.621715 401.517188 251.8225 401.517188 
C 270.023285 401.517188 288.047091 397.93203 304.862424 390.966891 
C 321.677757 384.001752 336.957601 373.792086 349.8275 360.922187 
C 362.697399 348.052289 372.907064 332.772444 379.872203 315.957111 
C 386.837342 299.141778 390.4225 281.117973 390.4225 262.917188 
C 390.4225 244.716402 386.837342 226.692597 379.872203 209.877264 
C 372.907064 193.061931 362.697399 177.782086 349.8275 164.912188 
C 336.957601 152.042289 321.677757 141.832623 304.862424 134.867484 
C 288.047091 127.902345 270.023285 124.317188 251.8225 124.317188 
" clip-path="url(#pa55543ff3a)" style="fill: none; stroke: #b0b0b0; stroke-width: 0.8; stroke-linecap: square"/>
     </g>
     <g id="text_13">
      <!-- −15 -->
      <g transform="translate(198.782576 132.787797) scale(0.1 -0.1)">
       <use xlink:href="#DejaVuSans-2212"/>
       <use xlink:href="#DejaVuSans-31" x="83.789062"/>
       <use xlink:href="#DejaVuSans-35" x="147.412109"/>
      </g>
     </g>
    </g>
    <g id="ytick_6">
     <g id="line2d_14">
      <path d="M 251.8225 96.597188 
C 229.981558 96.597188 208.352991 100.899377 188.174592 109.257544 
C 167.996192 117.61571 149.660379 129.867309 134.2165 145.311188 
C 118.772622 160.755066 106.521023 179.090879 98.162856 199.269279 
C 89.804689 219.447679 85.5025 241.076245 85.5025 262.917188 
C 85.5025 284.75813 89.804689 306.386696 98.162856 326.565096 
C 106.521023 346.743496 118.772622 365.079309 134.2165 380.523187 
C 149.660379 395.967066 167.996192 408.218665 188.174592 416.576831 
C 208.352991 424.934998 229.981558 429.237188 251.8225 429.237188 
C 273.663442 429.237188 295.292009 424.934998 315.470408 416.576831 
C 335.648808 408.218665 353.984621 395.967066 369.4285 380.523187 
C 384.872378 365.079309 397.123977 346.743496 405.482144 326.565096 
C 413.840311 306.386696 418.1425 284.75813 418.1425 262.917188 
C 418.1425 241.076245 413.840311 219.447679 405.482144 199.269279 
C 397.123977 179.090879 384.872378 160.755066 369.4285 145.311188 
C 353.984621 129.867309 335.648808 117.61571 315.470408 109.257544 
C 295.292009 100.899377 273.663442 96.597188 251.8225 96.597188 
" clip-path="url(#pa55543ff3a)" style="fill: none; stroke: #b0b0b0; stroke-width: 0.8; stroke-linecap: square"/>
     </g>
     <g id="text_14">
      <!-- −10 -->
      <g transform="translate(188.174592 107.177856) scale(0.1 -0.1)">
       <use xlink:href="#DejaVuSans-2212"/>
       <use xlink:href="#DejaVuSans-31" x="83.789062"/>
       <use xlink:href="#DejaVuSans-30" x="147.412109"/>
      </g>
     </g>
    </g>
    <g id="ytick_7">
     <g id="line2d_15">
      <path d="M 251.8225 68.877188 
C 226.341401 68.877188 201.108073 73.896408 177.566607 83.647603 
C 154.025141 93.398798 132.633358 107.69233 114.6155 125.710188 
C 96.597642 143.728046 82.30411 165.119828 72.552916 188.661294 
C 62.801721 212.20276 57.7825 237.436088 57.7825 262.917188 
C 57.7825 288.398287 62.801721 313.631615 72.552916 337.173081 
C 82.30411 360.714547 96.597642 382.106329 114.6155 400.124187 
C 132.633358 418.142045 154.025141 432.435577 177.566607 442.186772 
C 201.108073 451.937967 226.341401 456.957188 251.8225 456.957188 
C 277.303599 456.957188 302.536927 451.937967 326.078393 442.186772 
C 349.619859 432.435577 371.011642 418.142045 389.0295 400.124187 
C 407.047358 382.106329 421.34089 360.714547 431.092084 337.173081 
C 440.843279 313.631615 445.8625 288.398287 445.8625 262.917188 
C 445.8625 237.436088 440.843279 212.20276 431.092084 188.661294 
C 421.34089 165.119828 407.047358 143.728046 389.0295 125.710188 
C 371.011642 107.69233 349.619859 93.398798 326.078393 83.647603 
C 302.536927 73.896408 277.303599 68.877188 251.8225 68.877188 
" clip-path="url(#pa55543ff3a)" style="fill: none; stroke: #b0b0b0; stroke-width: 0.8; stroke-linecap: square"/>
     </g>
     <g id="text_15">
      <!-- −5 -->
      <g transform="translate(177.566607 81.567916) scale(0.1 -0.1)">
       <use xlink:href="#DejaVuSans-2212"/>
       <use xlink:href="#DejaVuSans-35" x="83.789062"/>
      </g>
     </g>
    </g>
    <g id="ytick_8">
     <g id="line2d_16">
      <path d="M 251.8225 41.157188 
C 222.701244 41.157188 193.863155 46.89344 166.958622 58.037662 
C 140.054089 69.181885 115.606338 85.51735 95.0145 106.109188 
C 74.422662 126.701026 58.087197 151.148777 46.942975 178.05331 
C 35.798753 204.957842 30.0625 233.795931 30.0625 262.917188 
C 30.0625 292.038444 35.798753 320.876533 46.942975 347.781065 
C 58.087197 374.685598 74.422662 399.133349 95.0145 419.725187 
C 115.606338 440.317025 140.054089 456.65249 166.958622 467.796713 
C 193.863155 478.940935 222.701244 484.677188 251.8225 484.677188 
C 280.943756 484.677188 309.781845 478.940935 336.686378 467.796713 
C 363.590911 456.65249 388.038662 440.317025 408.6305 419.725187 
C 429.222338 399.133349 445.557803 374.685598 456.702025 347.781065 
C 467.846247 320.876533 473.5825 292.038444 473.5825 262.917188 
C 473.5825 233.795931 467.846247 204.957842 456.702025 178.05331 
C 445.557803 151.148777 429.222338 126.701026 408.6305 106.109188 
C 388.038662 85.51735 363.590911 69.181885 336.686378 58.037662 
C 309.781845 46.89344 280.943756 41.157188 251.8225 41.157188 
" clip-path="url(#pa55543ff3a)" style="fill: none; stroke: #b0b0b0; stroke-width: 0.8; stroke-linecap: square"/>
     </g>
     <g id="text_16">
      <!-- 0 -->
      <g transform="translate(166.958622 55.957975) scale(0.1 -0.1)">
       <use xlink:href="#DejaVuSans-30"/>
      </g>
     </g>
    </g>
   </g>
   <g id="line2d_17">
    <path d="M 251.8225 452.144996 
L 255.130399 452.426592 
L 258.44058 452.434188 
L 265.013083 451.551314 
L 268.252942 450.717995 
L 274.555206 448.06022 
L 277.572295 446.136498 
L 280.478924 443.846726 
L 283.390576 441.948643 
L 286.0184 438.839841 
L 288.494455 435.44517 
L 290.988575 432.564097 
L 292.846243 427.454433 
L 294.681313 422.868454 
L 296.534158 418.84527 
L 297.634243 412.760649 
L 299.019177 408.173624 
L 300.2114 403.448759 
L 301.052494 398.175483 
L 302.251252 394.288579 
L 303.134466 389.91876 
L 303.874441 385.543876 
L 306.072221 379.25609 
L 306.811138 375.660604 
L 307.839146 372.856045 
L 310.137121 372.591039 
L 314.203291 375.455114 
L 318.82174 378.963275 
L 325.108454 384.885498 
L 330.816013 389.333234 
L 335.543589 391.836359 
L 340.908855 394.99314 
L 345.213211 396.292945 
L 349.283144 397.060257 
L 354.108431 398.655202 
L 362.827005 399.996335 
L 367.800334 401.134188 
L 376.196274 401.048257 
L 380.206318 400.591977 
L 383.490698 399.263598 
L 386.575455 397.670142 
L 389.141988 395.525075 
L 391.447564 393.119666 
L 393.340205 390.340302 
L 395.107344 387.472802 
L 396.991758 384.728659 
L 401.715664 375.869789 
L 403.841296 365.45516 
L 403.0783 361.143853 
L 403.048777 357.413853 
L 402.76458 353.612339 
L 401.390879 349.270532 
L 401.05199 345.636444 
L 400.113492 341.764906 
L 398.463627 337.634573 
L 397.542843 333.989747 
L 396.133186 330.210365 
L 393.963194 326.202302 
L 391.195631 316.41752 
L 391.060973 313.595847 
L 391.373826 310.968562 
L 391.90646 308.433225 
L 392.780222 306.012288 
L 392.855371 303.357712 
L 391.590422 300.367889 
L 389.839701 297.32874 
L 385.995082 293.893369 
L 379.859754 287.805108 
L 376.507363 284.902493 
L 374.035634 282.273846 
L 370.78082 279.635689 
L 365.859955 276.919226 
L 362.133683 274.51136 
L 354.576118 271.906964 
L 345.426129 269.462591 
L 336.850564 267.37332 
L 335.862666 265.851935 
L 342.818943 264.505536 
L 351.902788 262.917188 
L 359.381892 261.039731 
L 364.01457 258.999354 
L 371.635146 254.539071 
L 374.994292 252.141052 
L 384.695614 246.602421 
L 388.189757 243.752019 
L 393.145981 240.533747 
L 396.39732 237.424746 
L 398.471876 234.411436 
L 401.194911 231.167101 
L 403.027297 228.00881 
L 404.094897 224.951415 
L 406.290151 221.527705 
L 407.510767 218.274295 
L 408.250739 215.092275 
L 409.92313 211.547179 
L 411.277529 208.012418 
L 411.821452 204.682332 
L 413.860328 200.716693 
L 414.472103 197.202482 
L 414.647717 193.801984 
L 415.148817 190.199626 
L 414.633654 186.9971 
L 413.762228 183.933905 
L 413.391521 180.593659 
L 412.625269 177.416839 
L 411.966845 174.147728 
L 411.891202 170.50148 
L 410.505481 163.761056 
L 410.33166 159.980135 
L 408.395621 153.283508 
L 407.772564 149.612834 
L 404.028781 139.662971 
L 400.362586 133.793261 
L 398.267719 131.05732 
L 395.895487 128.566953 
L 393.353337 126.242447 
L 390.617181 124.122507 
L 387.788622 122.120147 
L 384.588496 120.543088 
L 378.42949 117.272506 
L 375.205525 115.875024 
L 372.163441 114.308502 
L 368.885954 113.082799 
L 365.542487 112.005667 
L 362.412372 110.703287 
L 355.823751 108.728993 
L 352.543255 107.820826 
L 348.7576 107.7886 
L 341.2195 108.077041 
L 337.29136 108.727282 
L 333.710231 108.908764 
L 330.488939 108.525608 
L 327.369297 108.0233 
L 324.663892 106.708319 
L 322.061874 105.156971 
L 319.622812 103.189661 
L 317.024231 101.53724 
L 311.62548 98.60985 
L 308.833646 97.344797 
L 303.563528 93.679912 
L 300.812932 92.067248 
L 297.964347 90.713469 
L 295.043153 89.568616 
L 291.973807 89.002771 
L 288.822963 88.843693 
L 282.3884 89.569357 
L 279.088686 90.765267 
L 275.825448 92.127341 
L 272.664079 93.176145 
L 269.460339 95.104363 
L 266.392171 96.385081 
L 263.393845 97.439244 
L 260.416469 98.934492 
L 254.645457 101.190079 
L 251.8225 102.62906 
L 249.036891 103.329737 
L 246.259676 103.618743 
L 243.447885 103.120013 
L 240.58877 102.267366 
L 237.633583 100.737129 
L 234.563079 98.704763 
L 231.444412 96.950981 
L 228.169076 94.614332 
L 224.686405 91.586628 
L 221.300885 89.820507 
L 217.690071 87.321063 
L 214.072806 85.31884 
L 210.553766 84.162662 
L 206.752312 82.150535 
L 203.100715 81.085012 
L 199.554222 80.636039 
L 195.836312 79.794619 
L 188.66911 79.506425 
L 184.855829 78.92777 
L 173.724009 78.928673 
L 166.621806 80.203711 
L 163.049849 80.906281 
L 159.625081 81.969565 
L 156.317179 83.297802 
L 153.213061 85.02105 
L 150.239788 86.970769 
L 147.335906 89.022293 
L 144.507897 91.177923 
L 135.883063 97.338512 
L 130.368592 101.742408 
L 119.446924 110.636507 
L 114.129863 115.259912 
L 111.658585 117.773205 
L 109.350672 120.445359 
L 107.27672 123.330951 
L 105.300519 126.28323 
L 104.071242 129.881358 
L 103.13597 133.665959 
L 101.981596 137.18574 
L 101.520575 141.205088 
L 100.642542 144.80246 
L 99.410011 148.066139 
L 98.518698 151.535456 
L 95.625773 157.561165 
L 94.247907 160.587051 
L 83.145872 180.648099 
L 81.760891 183.616157 
L 80.620581 186.693182 
L 79.790968 189.894135 
L 79.457716 193.277294 
L 79.531472 196.780858 
L 79.445406 200.177056 
L 80.033151 203.765371 
L 80.15005 207.137427 
L 80.008572 210.388398 
L 80.846209 220.28801 
L 84.354037 227.320667 
L 86.805897 230.841209 
L 90.56261 234.482718 
L 94.576598 240.817717 
L 95.651056 243.741745 
L 95.836411 246.522389 
L 96.645483 249.340958 
L 98.11345 252.168804 
L 99.898089 254.955166 
L 102.835154 257.714435 
L 104.81247 260.351118 
L 105.76582 262.917188 
L 105.998705 265.462551 
L 105.367219 268.031519 
L 104.122364 270.657824 
L 101.984796 273.39486 
L 100.649588 276.143104 
L 98.694036 281.718999 
L 98.584331 284.453408 
L 97.975992 287.284081 
L 97.174396 290.185821 
L 96.514677 293.10597 
L 95.611874 296.120781 
L 94.113806 299.327108 
L 93.224023 302.460229 
L 91.501732 305.875008 
L 89.371434 309.499281 
L 88.295213 312.912496 
L 85.233171 320.278494 
L 84.743626 323.728924 
L 83.071352 331.097077 
L 82.842729 334.644845 
L 82.074148 338.494023 
L 81.585031 342.300223 
L 81.765604 345.859477 
L 81.603993 349.647849 
L 81.983448 353.222213 
L 82.596181 356.720868 
L 82.885899 360.45278 
L 83.615911 363.985903 
L 84.230028 367.640587 
L 84.493068 371.582191 
L 85.889597 379.104657 
L 86.390744 383.110394 
L 87.419975 386.803376 
L 88.366407 390.623084 
L 89.517102 394.349508 
L 91.134885 397.750106 
L 92.604565 401.323226 
L 94.286255 404.76346 
L 102.331013 417.720154 
L 104.151807 421.274618 
L 108.53535 427.750198 
L 110.80671 430.973261 
L 116.051148 436.696594 
L 118.827769 439.407157 
L 121.775041 441.912159 
L 127.924388 446.603693 
L 131.103737 448.807781 
L 137.607657 453.002608 
L 144.375625 456.75648 
L 151.538207 459.736195 
L 159.292916 461.347521 
L 163.239125 461.878706 
L 167.535138 461.48577 
L 171.659365 461.327909 
L 175.875392 460.766167 
L 180.286084 459.461875 
L 184.411233 458.693722 
L 188.708572 457.161883 
L 193.150467 454.824761 
L 197.269662 453.165542 
L 205.761154 447.659157 
L 209.531121 446.101277 
L 213.299369 444.154267 
L 216.819464 442.992195 
L 223.263211 443.233443 
L 229.49518 444.758614 
L 238.911523 447.552766 
L 242.065608 449.089782 
L 245.281814 450.217939 
L 248.535984 451.201555 
L 248.535984 451.201555 
" clip-path="url(#pa55543ff3a)" style="fill: none; stroke: #ff0000; stroke-width: 1.5; stroke-linecap: square"/>
   </g>
   <g id="line2d_18">
    <path d="M 251.8225 73.822436 
L 245.264594 75.12332 
L 235.588234 77.358679 
L 219.772109 81.150385 
L 210.309329 83.103888 
L 200.740053 84.771525 
L 181.123429 87.930847 
L 174.48455 89.213308 
L 167.84489 90.73757 
L 161.236377 92.549469 
L 154.699936 94.695972 
L 148.274249 97.205347 
L 141.989838 100.08357 
L 135.881873 103.338605 
L 129.983941 106.970944 
L 127.120369 108.92288 
L 121.58923 113.100948 
L 116.330404 117.619703 
L 113.811398 120.002508 
L 109.011509 125.006217 
L 104.545042 130.307969 
L 102.437224 133.058548 
L 100.422965 135.877894 
L 96.675734 141.703249 
L 94.942527 144.699649 
L 91.779765 150.854058 
L 90.353949 154.005275 
L 89.031068 157.199195 
L 87.812631 160.432447 
L 86.709552 163.707319 
L 85.713832 167.014303 
L 84.826671 170.349888 
L 84.063849 173.71833 
L 83.411938 177.10772 
L 82.881777 180.519291 
L 82.47438 183.948862 
L 82.190636 187.392216 
L 82.031307 190.845102 
L 82.002168 194.30532 
L 82.10383 197.768294 
L 82.336765 201.229425 
L 82.701306 204.684091 
L 83.208191 208.131078 
L 83.852343 211.563557 
L 84.639074 214.978111 
L 85.562934 218.368071 
L 86.628977 221.729816 
L 87.842192 225.05935 
L 89.158682 228.341926 
L 90.648049 231.588048 
L 92.25514 234.781157 
L 95.762447 240.984377 
L 99.613247 246.91935 
L 105.129989 255.229359 
L 106.62494 257.846777 
L 107.888921 260.404818 
L 108.754036 262.917188 
L 109.219278 265.406336 
L 109.173627 267.898596 
L 108.617922 270.422221 
L 107.664615 272.997689 
L 106.260858 275.652181 
L 104.575514 278.393469 
L 98.359294 287.223371 
L 93.967755 293.601042 
L 91.870108 296.916118 
L 89.894917 300.301116 
L 88.006083 303.761208 
L 86.248386 307.282638 
L 84.633745 310.857792 
L 83.163116 314.481536 
L 81.842573 318.147014 
L 80.67267 321.8488 
L 79.653792 325.581472 
L 78.786161 329.339615 
L 78.069833 333.117822 
L 77.499596 336.91287 
L 77.075293 340.719657 
L 76.796616 344.533098 
L 76.658117 348.350565 
L 76.659314 352.167289 
L 76.799578 355.978526 
L 77.078142 359.779567 
L 77.484499 363.57128 
L 78.0274 367.343819 
L 78.69627 371.098463 
L 79.49476 374.828131 
L 80.412403 378.534758 
L 81.457211 382.208247 
L 82.623184 385.847686 
L 83.904432 389.452527 
L 85.308294 393.012343 
L 86.819982 396.533592 
L 88.446565 400.005874 
L 90.18615 403.425523 
L 92.028497 406.796354 
L 93.980006 410.107694 
L 96.034492 413.359918 
L 98.189862 416.549825 
L 100.443932 419.674284 
L 102.794428 422.730229 
L 105.241217 425.712194 
L 107.778815 428.620492 
L 110.405447 431.451468 
L 113.118854 434.201925 
L 115.916325 436.869159 
L 118.795071 439.450548 
L 121.75223 441.943555 
L 124.785185 444.345276 
L 127.890596 446.653792 
L 131.065994 448.865901 
L 134.307604 450.980333 
L 137.612796 452.994054 
L 140.977982 454.905525 
L 144.399816 456.71284 
L 147.875418 458.413215 
L 151.400783 460.005905 
L 154.972406 461.489308 
L 158.586971 462.861424 
L 162.240408 464.12186 
L 165.929324 465.26883 
L 169.649835 466.30167 
L 173.397863 467.220352 
L 177.170694 468.02134 
L 180.961974 468.711098 
L 184.769948 469.283723 
L 188.589229 469.743896 
L 192.41631 470.091192 
L 200.081108 470.440575 
L 207.729705 470.35748 
L 215.333074 469.859008 
L 222.864493 468.96411 
L 230.297337 467.715437 
L 237.611337 466.146291 
L 244.78998 464.302202 
L 251.8225 462.24062 
L 258.704877 460.002679 
L 268.751112 456.412108 
L 278.48584 452.636713 
L 287.940504 448.728211 
L 297.132766 444.646738 
L 303.111245 441.782297 
L 308.96082 438.770855 
L 314.665024 435.575603 
L 320.201764 432.161805 
L 325.545768 428.502359 
L 330.669684 424.577873 
L 335.54517 420.376629 
L 340.143964 415.894451 
L 344.438927 411.134454 
L 348.401954 406.102117 
L 352.017178 400.823331 
L 355.263764 395.315968 
L 358.110866 389.58673 
L 360.537798 383.657758 
L 361.607584 380.647277 
L 363.454115 374.548803 
L 364.849224 368.316313 
L 365.39428 365.177677 
L 366.175886 358.871072 
L 366.411292 355.709361 
L 366.569096 349.384949 
L 366.535725 346.261224 
L 366.157181 340.036903 
L 365.487865 333.943191 
L 364.488511 327.96494 
L 363.263469 322.171402 
L 361.875143 316.593448 
L 359.532305 308.637287 
L 357.088807 301.23099 
L 353.333639 290.117015 
L 351.472797 284.098512 
L 350.035447 278.47259 
L 348.950595 273.125762 
L 348.189116 267.967548 
L 347.475193 261.247564 
L 346.960034 254.593732 
L 346.640486 247.899494 
L 346.602829 244.493758 
L 346.820448 240.985183 
L 347.282384 237.338789 
L 348.134155 233.471759 
L 349.406734 229.316241 
L 351.124821 224.798598 
L 353.204239 219.883193 
L 359.200568 205.823256 
L 361.51174 199.588076 
L 363.65425 193.036955 
L 364.602946 189.676709 
L 366.156256 182.85983 
L 366.804836 179.37763 
L 367.321794 175.882227 
L 367.707475 172.377922 
L 368.129483 165.324041 
L 368.031077 158.282515 
L 367.768554 154.795743 
L 367.379363 151.325222 
L 366.264343 144.40919 
L 365.502013 141.010835 
L 363.578839 134.356226 
L 362.437094 131.091847 
L 361.17673 127.875959 
L 359.79653 124.716731 
L 358.299027 121.618063 
L 356.686869 118.583766 
L 354.965988 115.61302 
L 353.132807 112.718481 
L 351.193548 109.899193 
L 349.151275 107.158589 
L 347.012006 104.495246 
L 344.773204 101.921846 
L 342.441156 99.436805 
L 340.019298 97.043135 
L 337.511155 94.743733 
L 334.920331 92.541385 
L 332.250511 90.43876 
L 329.505457 88.43841 
L 326.691167 86.537662 
L 323.807122 84.748997 
L 320.859545 83.069536 
L 317.852468 81.50134 
L 314.78998 80.046346 
L 311.676227 78.706358 
L 308.517025 77.477753 
L 305.314813 76.367322 
L 302.07388 75.376483 
L 298.799896 74.501142 
L 295.496945 73.742382 
L 292.169142 73.101159 
L 288.820631 72.578302 
L 285.456542 72.169057 
L 282.080776 71.873949 
L 275.310575 71.622164 
L 268.54334 71.797115 
L 261.809482 72.354226 
L 255.133011 73.258118 
L 255.133011 73.258118 
" clip-path="url(#pa55543ff3a)" style="fill: none; stroke-dasharray: 5.55,2.4; stroke-dashoffset: 0; stroke: #0000ff; stroke-width: 1.5"/>
   </g>
   <g id="patch_3">
    <path d="M 251.8225 41.157188 
C 222.701244 41.157188 193.863155 46.89344 166.958622 58.037662 
C 140.054089 69.181885 115.606338 85.51735 95.0145 106.109188 
C 74.422662 126.701026 58.087197 151.148777 46.942975 178.05331 
C 35.798753 204.957842 30.0625 233.795931 30.0625 262.917188 
C 30.0625 292.038444 35.798753 320.876533 46.942975 347.781065 
C 58.087197 374.685598 74.422662 399.133349 95.0145 419.725187 
C 115.606338 440.317025 140.054089 456.65249 166.958622 467.796713 
C 193.863155 478.940935 222.701244 484.677188 251.8225 484.677188 
C 280.943756 484.677188 309.781845 478.940935 336.686378 467.796713 
C 363.590911 456.65249 388.038662 440.317025 408.6305 419.725187 
C 429.222338 399.133349 445.557803 374.685598 456.702025 347.781065 
C 467.846247 320.876533 473.5825 292.038444 473.5825 262.917188 
C 473.5825 233.795931 467.846247 204.957842 456.702025 178.05331 
C 445.557803 151.148777 429.222338 126.701026 408.6305 106.109188 
C 388.038662 85.51735 363.590911 69.181885 336.686378 58.037662 
C 309.781845 46.89344 280.943756 41.157188 251.8225 41.157188 
" style="fill: none; stroke: #000000; stroke-width: 0.8; stroke-linejoin: miter; stroke-linecap: square"/>
   </g>
   <g id="text_17">
    <g id="patch_4">
     <path d="M 384.8785 509.853188 
L 470.081625 509.853188 
Q 473.081625 509.853188 473.081625 506.853188 
L 473.081625 485.421 
Q 473.081625 482.421 470.081625 482.421 
L 384.8785 482.421 
Q 381.8785 482.421 381.8785 485.421 
L 381.8785 506.853188 
Q 381.8785 509.853188 384.8785 509.853188 
z
" style="fill: #ffffff; stroke: #808080; stroke-linejoin: miter"/>
    </g>
    <!-- G_simul: -0.4 dBi -->
    <g transform="translate(384.8785 493.019438) scale(0.1 -0.1)">
     <defs>
      <path id="DejaVuSans-47" d="M 3809 666 
L 3809 1919 
L 2778 1919 
L 2778 2438 
L 4434 2438 
L 4434 434 
Q 4069 175 3628 42 
Q 3188 -91 2688 -91 
Q 1594 -91 976 548 
Q 359 1188 359 2328 
Q 359 3472 976 4111 
Q 1594 4750 2688 4750 
Q 3144 4750 3555 4637 
Q 3966 4525 4313 4306 
L 4313 3634 
Q 3963 3931 3569 4081 
Q 3175 4231 2741 4231 
Q 1884 4231 1454 3753 
Q 1025 3275 1025 2328 
Q 1025 1384 1454 906 
Q 1884 428 2741 428 
Q 3075 428 3337 486 
Q 3600 544 3809 666 
z
" transform="scale(0.015625)"/>
      <path id="DejaVuSans-5f" d="M 3263 -1063 
L 3263 -1509 
L -63 -1509 
L -63 -1063 
L 3263 -1063 
z
" transform="scale(0.015625)"/>
      <path id="DejaVuSans-73" d="M 2834 3397 
L 2834 2853 
Q 2591 2978 2328 3040 
Q 2066 3103 1784 3103 
Q 1356 3103 1142 2972 
Q 928 2841 928 2578 
Q 928 2378 1081 2264 
Q 1234 2150 1697 2047 
L 1894 2003 
Q 2506 1872 2764 1633 
Q 3022 1394 3022 966 
Q 3022 478 2636 193 
Q 2250 -91 1575 -91 
Q 1294 -91 989 -36 
Q 684 19 347 128 
L 347 722 
Q 666 556 975 473 
Q 1284 391 1588 391 
Q 1994 391 2212 530 
Q 2431 669 2431 922 
Q 2431 1156 2273 1281 
Q 2116 1406 1581 1522 
L 1381 1569 
Q 847 1681 609 1914 
Q 372 2147 372 2553 
Q 372 3047 722 3315 
Q 1072 3584 1716 3584 
Q 2034 3584 2315 3537 
Q 2597 3491 2834 3397 
z
" transform="scale(0.015625)"/>
      <path id="DejaVuSans-69" d="M 603 3500 
L 1178 3500 
L 1178 0 
L 603 0 
L 603 3500 
z
M 603 4863 
L 1178 4863 
L 1178 4134 
L 603 4134 
L 603 4863 
z
" transform="scale(0.015625)"/>
      <path id="DejaVuSans-6d" d="M 3328 2828 
Q 3544 3216 3844 3400 
Q 4144 3584 4550 3584 
Q 5097 3584 5394 3201 
Q 5691 2819 5691 2113 
L 5691 0 
L 5113 0 
L 5113 2094 
Q 5113 2597 4934 2840 
Q 4756 3084 4391 3084 
Q 3944 3084 3684 2787 
Q 3425 2491 3425 1978 
L 3425 0 
L 2847 0 
L 2847 2094 
Q 2847 2600 2669 2842 
Q 2491 3084 2119 3084 
Q 1678 3084 1418 2786 
Q 1159 2488 1159 1978 
L 1159 0 
L 581 0 
L 581 3500 
L 1159 3500 
L 1159 2956 
Q 1356 3278 1631 3431 
Q 1906 3584 2284 3584 
Q 2666 3584 2933 3390 
Q 3200 3197 3328 2828 
z
" transform="scale(0.015625)"/>
      <path id="DejaVuSans-75" d="M 544 1381 
L 544 3500 
L 1119 3500 
L 1119 1403 
Q 1119 906 1312 657 
Q 1506 409 1894 409 
Q 2359 409 2629 706 
Q 2900 1003 2900 1516 
L 2900 3500 
L 3475 3500 
L 3475 0 
L 2900 0 
L 2900 538 
Q 2691 219 2414 64 
Q 2138 -91 1772 -91 
Q 1169 -91 856 284 
Q 544 659 544 1381 
z
M 1991 3584 
L 1991 3584 
z
" transform="scale(0.015625)"/>
      <path id="DejaVuSans-6c" d="M 603 4863 
L 1178 4863 
L 1178 0 
L 603 0 
L 603 4863 
z
" transform="scale(0.015625)"/>
      <path id="DejaVuSans-3a" d="M 750 794 
L 1409 794 
L 1409 0 
L 750 0 
L 750 794 
z
M 750 3309 
L 1409 3309 
L 1409 2516 
L 750 2516 
L 750 3309 
z
" transform="scale(0.015625)"/>
      <path id="DejaVuSans-20" transform="scale(0.015625)"/>
      <path id="DejaVuSans-2d" d="M 313 2009 
L 1997 2009 
L 1997 1497 
L 313 1497 
L 313 2009 
z
" transform="scale(0.015625)"/>
      <path id="DejaVuSans-2e" d="M 684 794 
L 1344 794 
L 1344 0 
L 684 0 
L 684 794 
z
" transform="scale(0.015625)"/>
      <path id="DejaVuSans-64" d="M 2906 2969 
L 2906 4863 
L 3481 4863 
L 3481 0 
L 2906 0 
L 2906 525 
Q 2725 213 2448 61 
Q 2172 -91 1784 -91 
Q 1150 -91 751 415 
Q 353 922 353 1747 
Q 353 2572 751 3078 
Q 1150 3584 1784 3584 
Q 2172 3584 2448 3432 
Q 2725 3281 2906 2969 
z
M 947 1747 
Q 947 1113 1208 752 
Q 1469 391 1925 391 
Q 2381 391 2643 752 
Q 2906 1113 2906 1747 
Q 2906 2381 2643 2742 
Q 2381 3103 1925 3103 
Q 1469 3103 1208 2742 
Q 947 2381 947 1747 
z
" transform="scale(0.015625)"/>
      <path id="DejaVuSans-42" d="M 1259 2228 
L 1259 519 
L 2272 519 
Q 2781 519 3026 730 
Q 3272 941 3272 1375 
Q 3272 1813 3026 2020 
Q 2781 2228 2272 2228 
L 1259 2228 
z
M 1259 4147 
L 1259 2741 
L 2194 2741 
Q 2656 2741 2882 2914 
Q 3109 3088 3109 3444 
Q 3109 3797 2882 3972 
Q 2656 4147 2194 4147 
L 1259 4147 
z
M 628 4666 
L 2241 4666 
Q 2963 4666 3353 4366 
Q 3744 4066 3744 3513 
Q 3744 3084 3544 2831 
Q 3344 2578 2956 2516 
Q 3422 2416 3680 2098 
Q 3938 1781 3938 1306 
Q 3938 681 3513 340 
Q 3088 0 2303 0 
L 628 0 
L 628 4666 
z
" transform="scale(0.015625)"/>
     </defs>
     <use xlink:href="#DejaVuSans-47"/>
     <use xlink:href="#DejaVuSans-5f" x="77.490234"/>
     <use xlink:href="#DejaVuSans-73" x="127.490234"/>
     <use xlink:href="#DejaVuSans-69" x="179.589844"/>
     <use xlink:href="#DejaVuSans-6d" x="207.373047"/>
     <use xlink:href="#DejaVuSans-75" x="304.785156"/>
     <use xlink:href="#DejaVuSans-6c" x="368.164062"/>
     <use xlink:href="#DejaVuSans-3a" x="395.947266"/>
     <use xlink:href="#DejaVuSans-20" x="429.638672"/>
     <use xlink:href="#DejaVuSans-2d" x="461.425781"/>
     <use xlink:href="#DejaVuSans-30" x="497.509766"/>
     <use xlink:href="#DejaVuSans-2e" x="561.132812"/>
     <use xlink:href="#DejaVuSans-34" x="592.919922"/>
     <use xlink:href="#DejaVuSans-20" x="656.542969"/>
     <use xlink:href="#DejaVuSans-64" x="688.330078"/>
     <use xlink:href="#DejaVuSans-42" x="751.806641"/>
     <use xlink:href="#DejaVuSans-69" x="820.410156"/>
    </g>
    <!-- G_meas: -1.7 dBi -->
    <g transform="translate(384.8785 504.495375) scale(0.1 -0.1)">
     <defs>
      <path id="DejaVuSans-65" d="M 3597 1894 
L 3597 1613 
L 953 1613 
Q 991 1019 1311 708 
Q 1631 397 2203 397 
Q 2534 397 2845 478 
Q 3156 559 3463 722 
L 3463 178 
Q 3153 47 2828 -22 
Q 2503 -91 2169 -91 
Q 1331 -91 842 396 
Q 353 884 353 1716 
Q 353 2575 817 3079 
Q 1281 3584 2069 3584 
Q 2775 3584 3186 3129 
Q 3597 2675 3597 1894 
z
M 3022 2063 
Q 3016 2534 2758 2815 
Q 2500 3097 2075 3097 
Q 1594 3097 1305 2825 
Q 1016 2553 972 2059 
L 3022 2063 
z
" transform="scale(0.015625)"/>
      <path id="DejaVuSans-61" d="M 2194 1759 
Q 1497 1759 1228 1600 
Q 959 1441 959 1056 
Q 959 750 1161 570 
Q 1363 391 1709 391 
Q 2188 391 2477 730 
Q 2766 1069 2766 1631 
L 2766 1759 
L 2194 1759 
z
M 3341 1997 
L 3341 0 
L 2766 0 
L 2766 531 
Q 2569 213 2275 61 
Q 1981 -91 1556 -91 
Q 1019 -91 701 211 
Q 384 513 384 1019 
Q 384 1609 779 1909 
Q 1175 2209 1959 2209 
L 2766 2209 
L 2766 2266 
Q 2766 2663 2505 2880 
Q 2244 3097 1772 3097 
Q 1472 3097 1187 3025 
Q 903 2953 641 2809 
L 641 3341 
Q 956 3463 1253 3523 
Q 1550 3584 1831 3584 
Q 2591 3584 2966 3190 
Q 3341 2797 3341 1997 
z
" transform="scale(0.015625)"/>
     </defs>
     <use xlink:href="#DejaVuSans-47"/>
     <use xlink:href="#DejaVuSans-5f" x="77.490234"/>
     <use xlink:href="#DejaVuSans-6d" x="127.490234"/>
     <use xlink:href="#DejaVuSans-65" x="224.902344"/>
     <use xlink:href="#DejaVuSans-61" x="286.425781"/>
     <use xlink:href="#DejaVuSans-73" x="347.705078"/>
     <use xlink:href="#DejaVuSans-3a" x="399.804688"/>
     <use xlink:href="#DejaVuSans-20" x="433.496094"/>
     <use xlink:href="#DejaVuSans-2d" x="465.283203"/>
     <use xlink:href="#DejaVuSans-31" x="501.367188"/>
     <use xlink:href="#DejaVuSans-2e" x="564.990234"/>
     <use xlink:href="#DejaVuSans-37" x="596.777344"/>
     <use xlink:href="#DejaVuSans-20" x="660.400391"/>
     <use xlink:href="#DejaVuSans-64" x="692.1875"/>
     <use xlink:href="#DejaVuSans-42" x="755.664062"/>
     <use xlink:href="#DejaVuSans-69" x="824.267578"/>
    </g>
   </g>
   <g id="text_18">
    <g id="patch_5">
     <path d="M 52.2385 56.370938 
L 121.861 56.370938 
Q 125.461 56.370938 125.461 52.770938 
L 125.461 41.157188 
Q 125.461 37.557188 121.861 37.557188 
L 52.2385 37.557188 
Q 48.6385 37.557188 48.6385 41.157188 
L 48.6385 52.770938 
Q 48.6385 56.370938 52.2385 56.370938 
z
" style="fill: #ffffff; stroke: #808080; stroke-linejoin: miter"/>
    </g>
    <!-- Freq: 8 GHz -->
    <g transform="translate(52.2385 50.275313) scale(0.12 -0.12)">
     <defs>
      <path id="DejaVuSans-46" d="M 628 4666 
L 3309 4666 
L 3309 4134 
L 1259 4134 
L 1259 2759 
L 3109 2759 
L 3109 2228 
L 1259 2228 
L 1259 0 
L 628 0 
L 628 4666 
z
" transform="scale(0.015625)"/>
      <path id="DejaVuSans-72" d="M 2631 2963 
Q 2534 3019 2420 3045 
Q 2306 3072 2169 3072 
Q 1681 3072 1420 2755 
Q 1159 2438 1159 1844 
L 1159 0 
L 581 0 
L 581 3500 
L 1159 3500 
L 1159 2956 
Q 1341 3275 1631 3429 
Q 1922 3584 2338 3584 
Q 2397 3584 2469 3576 
Q 2541 3569 2628 3553 
L 2631 2963 
z
" transform="scale(0.015625)"/>
      <path id="DejaVuSans-71" d="M 947 1747 
Q 947 1113 1208 752 
Q 1469 391 1925 391 
Q 2381 391 2643 752 
Q 2906 1113 2906 1747 
Q 2906 2381 2643 2742 
Q 2381 3103 1925 3103 
Q 1469 3103 1208 2742 
Q 947 2381 947 1747 
z
M 2906 525 
Q 2725 213 2448 61 
Q 2172 -91 1784 -91 
Q 1150 -91 751 415 
Q 353 922 353 1747 
Q 353 2572 751 3078 
Q 1150 3584 1784 3584 
Q 2172 3584 2448 3432 
Q 2725 3281 2906 2969 
L 2906 3500 
L 3481 3500 
L 3481 -1331 
L 2906 -1331 
L 2906 525 
z
" transform="scale(0.015625)"/>
      <path id="DejaVuSans-48" d="M 628 4666 
L 1259 4666 
L 1259 2753 
L 3553 2753 
L 3553 4666 
L 4184 4666 
L 4184 0 
L 3553 0 
L 3553 2222 
L 1259 2222 
L 1259 0 
L 628 0 
L 628 4666 
z
" transform="scale(0.015625)"/>
      <path id="DejaVuSans-7a" d="M 353 3500 
L 3084 3500 
L 3084 2975 
L 922 459 
L 3084 459 
L 3084 0 
L 275 0 
L 275 525 
L 2438 3041 
L 353 3041 
L 353 3500 
z
" transform="scale(0.015625)"/>
     </defs>
     <use xlink:href="#DejaVuSans-46"/>
     <use xlink:href="#DejaVuSans-72" x="50.269531"/>
     <use xlink:href="#DejaVuSans-65" x="89.132812"/>
     <use xlink:href="#DejaVuSans-71" x="150.65625"/>
     <use xlink:href="#DejaVuSans-3a" x="214.132812"/>
     <use xlink:href="#DejaVuSans-20" x="247.824219"/>
     <use xlink:href="#DejaVuSans-38" x="279.611328"/>
     <use xlink:href="#DejaVuSans-20" x="343.234375"/>
     <use xlink:href="#DejaVuSans-47" x="375.021484"/>
     <use xlink:href="#DejaVuSans-48" x="452.511719"/>
     <use xlink:href="#DejaVuSans-7a" x="527.707031"/>
    </g>
   </g>
   <g id="text_19">
    <!-- Radiation Diagram -->
    <g transform="translate(195.798437 16.318125) scale(0.12 -0.12)">
     <defs>
      <path id="DejaVuSans-52" d="M 2841 2188 
Q 3044 2119 3236 1894 
Q 3428 1669 3622 1275 
L 4263 0 
L 3584 0 
L 2988 1197 
Q 2756 1666 2539 1819 
Q 2322 1972 1947 1972 
L 1259 1972 
L 1259 0 
L 628 0 
L 628 4666 
L 2053 4666 
Q 2853 4666 3247 4331 
Q 3641 3997 3641 3322 
Q 3641 2881 3436 2590 
Q 3231 2300 2841 2188 
z
M 1259 4147 
L 1259 2491 
L 2053 2491 
Q 2509 2491 2742 2702 
Q 2975 2913 2975 3322 
Q 2975 3731 2742 3939 
Q 2509 4147 2053 4147 
L 1259 4147 
z
" transform="scale(0.015625)"/>
      <path id="DejaVuSans-74" d="M 1172 4494 
L 1172 3500 
L 2356 3500 
L 2356 3053 
L 1172 3053 
L 1172 1153 
Q 1172 725 1289 603 
Q 1406 481 1766 481 
L 2356 481 
L 2356 0 
L 1766 0 
Q 1100 0 847 248 
Q 594 497 594 1153 
L 594 3053 
L 172 3053 
L 172 3500 
L 594 3500 
L 594 4494 
L 1172 4494 
z
" transform="scale(0.015625)"/>
      <path id="DejaVuSans-6f" d="M 1959 3097 
Q 1497 3097 1228 2736 
Q 959 2375 959 1747 
Q 959 1119 1226 758 
Q 1494 397 1959 397 
Q 2419 397 2687 759 
Q 2956 1122 2956 1747 
Q 2956 2369 2687 2733 
Q 2419 3097 1959 3097 
z
M 1959 3584 
Q 2709 3584 3137 3096 
Q 3566 2609 3566 1747 
Q 3566 888 3137 398 
Q 2709 -91 1959 -91 
Q 1206 -91 779 398 
Q 353 888 353 1747 
Q 353 2609 779 3096 
Q 1206 3584 1959 3584 
z
" transform="scale(0.015625)"/>
      <path id="DejaVuSans-6e" d="M 3513 2113 
L 3513 0 
L 2938 0 
L 2938 2094 
Q 2938 2591 2744 2837 
Q 2550 3084 2163 3084 
Q 1697 3084 1428 2787 
Q 1159 2491 1159 1978 
L 1159 0 
L 581 0 
L 581 3500 
L 1159 3500 
L 1159 2956 
Q 1366 3272 1645 3428 
Q 1925 3584 2291 3584 
Q 2894 3584 3203 3211 
Q 3513 2838 3513 2113 
z
" transform="scale(0.015625)"/>
      <path id="DejaVuSans-44" d="M 1259 4147 
L 1259 519 
L 2022 519 
Q 2988 519 3436 956 
Q 3884 1394 3884 2338 
Q 3884 3275 3436 3711 
Q 2988 4147 2022 4147 
L 1259 4147 
z
M 628 4666 
L 1925 4666 
Q 3281 4666 3915 4102 
Q 4550 3538 4550 2338 
Q 4550 1131 3912 565 
Q 3275 0 1925 0 
L 628 0 
L 628 4666 
z
" transform="scale(0.015625)"/>
      <path id="DejaVuSans-67" d="M 2906 1791 
Q 2906 2416 2648 2759 
Q 2391 3103 1925 3103 
Q 1463 3103 1205 2759 
Q 947 2416 947 1791 
Q 947 1169 1205 825 
Q 1463 481 1925 481 
Q 2391 481 2648 825 
Q 2906 1169 2906 1791 
z
M 3481 434 
Q 3481 -459 3084 -895 
Q 2688 -1331 1869 -1331 
Q 1566 -1331 1297 -1286 
Q 1028 -1241 775 -1147 
L 775 -588 
Q 1028 -725 1275 -790 
Q 1522 -856 1778 -856 
Q 2344 -856 2625 -561 
Q 2906 -266 2906 331 
L 2906 616 
Q 2728 306 2450 153 
Q 2172 0 1784 0 
Q 1141 0 747 490 
Q 353 981 353 1791 
Q 353 2603 747 3093 
Q 1141 3584 1784 3584 
Q 2172 3584 2450 3431 
Q 2728 3278 2906 2969 
L 2906 3500 
L 3481 3500 
L 3481 434 
z
" transform="scale(0.015625)"/>
     </defs>
     <use xlink:href="#DejaVuSans-52"/>
     <use xlink:href="#DejaVuSans-61" x="67.232422"/>
     <use xlink:href="#DejaVuSans-64" x="128.511719"/>
     <use xlink:href="#DejaVuSans-69" x="191.988281"/>
     <use xlink:href="#DejaVuSans-61" x="219.771484"/>
     <use xlink:href="#DejaVuSans-74" x="281.050781"/>
     <use xlink:href="#DejaVuSans-69" x="320.259766"/>
     <use xlink:href="#DejaVuSans-6f" x="348.042969"/>
     <use xlink:href="#DejaVuSans-6e" x="409.224609"/>
     <use xlink:href="#DejaVuSans-20" x="472.603516"/>
     <use xlink:href="#DejaVuSans-44" x="504.390625"/>
     <use xlink:href="#DejaVuSans-69" x="581.392578"/>
     <use xlink:href="#DejaVuSans-61" x="609.175781"/>
     <use xlink:href="#DejaVuSans-67" x="670.455078"/>
     <use xlink:href="#DejaVuSans-72" x="733.931641"/>
     <use xlink:href="#DejaVuSans-61" x="775.044922"/>
     <use xlink:href="#DejaVuSans-6d" x="836.324219"/>
    </g>
   </g>
   <g id="legend_1">
    <g id="patch_6">
     <path d="M 406.599687 78.513438 
L 466.5825 78.513438 
Q 468.5825 78.513438 468.5825 76.513438 
L 468.5825 48.157188 
Q 468.5825 46.157188 466.5825 46.157188 
L 406.599687 46.157188 
Q 404.599687 46.157188 404.599687 48.157188 
L 404.599687 76.513438 
Q 404.599687 78.513438 406.599687 78.513438 
z
" style="fill: #ffffff; opacity: 0.8; stroke: #cccccc; stroke-linejoin: miter"/>
    </g>
    <g id="line2d_19">
     <path d="M 408.599687 54.255625 
L 418.599687 54.255625 
L 428.599687 54.255625 
" style="fill: none; stroke: #ff0000; stroke-width: 1.5; stroke-linecap: square"/>
    </g>
    <g id="text_20">
     <!-- Meas -->
     <g transform="translate(436.599687 57.755625) scale(0.1 -0.1)">
      <defs>
       <path id="DejaVuSans-4d" d="M 628 4666 
L 1569 4666 
L 2759 1491 
L 3956 4666 
L 4897 4666 
L 4897 0 
L 4281 0 
L 4281 4097 
L 3078 897 
L 2444 897 
L 1241 4097 
L 1241 0 
L 628 0 
L 628 4666 
z
" transform="scale(0.015625)"/>
      </defs>
      <use xlink:href="#DejaVuSans-4d"/>
      <use xlink:href="#DejaVuSans-65" x="86.279297"/>
      <use xlink:href="#DejaVuSans-61" x="147.802734"/>
      <use xlink:href="#DejaVuSans-73" x="209.082031"/>
     </g>
    </g>
    <g id="line2d_20">
     <path d="M 408.599687 68.93375 
L 418.599687 68.93375 
L 428.599687 68.93375 
" style="fill: none; stroke-dasharray: 5.55,2.4; stroke-dashoffset: 0; stroke: #0000ff; stroke-width: 1.5"/>
    </g>
    <g id="text_21">
     <!-- Simul -->
     <g transform="translate(436.599687 72.43375) scale(0.1 -0.1)">
      <defs>
       <path id="DejaVuSans-53" d="M 3425 4513 
L 3425 3897 
Q 3066 4069 2747 4153 
Q 2428 4238 2131 4238 
Q 1616 4238 1336 4038 
Q 1056 3838 1056 3469 
Q 1056 3159 1242 3001 
Q 1428 2844 1947 2747 
L 2328 2669 
Q 3034 2534 3370 2195 
Q 3706 1856 3706 1288 
Q 3706 609 3251 259 
Q 2797 -91 1919 -91 
Q 1588 -91 1214 -16 
Q 841 59 441 206 
L 441 856 
Q 825 641 1194 531 
Q 1563 422 1919 422 
Q 2459 422 2753 634 
Q 3047 847 3047 1241 
Q 3047 1584 2836 1778 
Q 2625 1972 2144 2069 
L 1759 2144 
Q 1053 2284 737 2584 
Q 422 2884 422 3419 
Q 422 4038 858 4394 
Q 1294 4750 2059 4750 
Q 2388 4750 2728 4690 
Q 3069 4631 3425 4513 
z
" transform="scale(0.015625)"/>
      </defs>
      <use xlink:href="#DejaVuSans-53"/>
      <use xlink:href="#DejaVuSans-69" x="63.476562"/>
      <use xlink:href="#DejaVuSans-6d" x="91.259766"/>
      <use xlink:href="#DejaVuSans-75" x="188.671875"/>
      <use xlink:href="#DejaVuSans-6c" x="252.050781"/>
     </g>
    </g>
   </g>
  </g>
 </g>
 <defs>
  <clipPath id="pa55543ff3a">
   <path d="M 473.5825 262.917188 
C 473.5825 233.795931 467.846247 204.957842 456.702025 178.05331 
C 445.557803 151.148777 429.222338 126.701026 408.6305 106.109188 
C 388.038662 85.51735 363.590911 69.181885 336.686378 58.037662 
C 309.781845 46.89344 280.943756 41.157188 251.8225 41.157188 
C 222.701244 41.157188 193.863155 46.89344 166.958622 58.037662 
C 140.054089 69.181885 115.606338 85.51735 95.0145 106.109188 
C 74.422662 126.701026 58.087197 151.148777 46.942975 178.05331 
C 35.798753 204.957842 30.0625 233.795931 30.0625 262.917188 
C 30.0625 292.038444 35.798753 320.876533 46.942975 347.781065 
C 58.087197 374.685598 74.422662 399.133349 95.0145 419.725187 
C 115.606338 440.317025 140.054089 456.65249 166.958622 467.796713 
C 193.863155 478.940935 222.701244 484.677188 251.8225 484.677188 
C 280.943756 484.677188 309.781845 478.940935 336.686378 467.796713 
C 363.590911 456.65249 388.038662 440.317025 408.6305 419.725187 
C 429.222338 399.133349 445.557803 374.685598 456.702025 347.781065 
C 467.846247 320.876533 473.5825 292.038444 473.5825 262.917188 
M 251.8225 262.917188 
C 251.8225 262.917188 251.8225 262.917188 251.8225 262.917188 
C 251.8225 262.917188 251.8225 262.917188 251.8225 262.917188 
C 251.8225 262.917188 251.8225 262.917188 251.8225 262.917188 
C 251.8225 262.917188 251.8225 262.917188 251.8225 262.917188 
C 251.8225 262.917188 251.8225 262.917188 251.8225 262.917188 
C 251.8225 262.917188 251.8225 262.917188 251.8225 262.917188 
C 251.8225 262.917188 251.8225 262.917188 251.8225 262.917188 
C 251.8225 262.917188 251.8225 262.917188 251.8225 262.917188 
C 251.8225 262.917188 251.8225 262.917188 251.8225 262.917188 
C 251.8225 262.917188 251.8225 262.917188 251.8225 262.917188 
C 251.8225 262.917188 251.8225 262.917188 251.8225 262.917188 
C 251.8225 262.917188 251.8225 262.917188 251.8225 262.917188 
C 251.8225 262.917188 251.8225 262.917188 251.8225 262.917188 
C 251.8225 262.917188 251.8225 262.917188 251.8225 262.917188 
C 251.8225 262.917188 251.8225 262.917188 251.8225 262.917188 
C 251.8225 262.917188 251.8225 262.917188 251.8225 262.917188 
z
"/>
  </clipPath>
 </defs>
</svg>
