<?xml version="1.0" encoding="utf-8" standalone="no"?>
<!DOCTYPE svg PUBLIC "-//W3C//DTD SVG 1.1//EN"
  "http://www.w3.org/Graphics/SVG/1.1/DTD/svg11.dtd">
<svg xmlns:xlink="http://www.w3.org/1999/xlink" width="506.82625pt" height="514.053188pt" viewBox="0 0 506.82625 514.053188" xmlns="http://www.w3.org/2000/svg" version="1.1">
 <metadata>
  <rdf:RDF xmlns:dc="http://purl.org/dc/elements/1.1/" xmlns:cc="http://creativecommons.org/ns#" xmlns:rdf="http://www.w3.org/1999/02/22-rdf-syntax-ns#">
   <cc:Work>
    <dc:type rdf:resource="http://purl.org/dc/dcmitype/StillImage"/>
    <dc:date>2023-11-04T18:00:23.190293</dc:date>
    <dc:format>image/svg+xml</dc:format>
    <dc:creator>
     <cc:Agent>
      <dc:title>Matplotlib v3.5.1, https://matplotlib.org/</dc:title>
     </cc:Agent>
    </dc:creator>
   </cc:Work>
  </rdf:RDF>
 </metadata>
 <defs>
  <style type="text/css">*{stroke-linejoin: round; stroke-linecap: butt}</style>
 </defs>
 <g id="figure_1">
  <g id="patch_1">
   <path d="M 0 514.053188 
L 506.82625 514.053188 
L 506.82625 0 
L 0 0 
z
" style="fill: #ffffff"/>
  </g>
  <g id="axes_1">
   <g id="patch_2">
    <path d="M 473.5825 262.917188 
C 473.5825 233.795931 467.846247 204.957842 456.702025 178.05331 
C 445.557803 151.148777 429.222338 126.701026 408.6305 106.109188 
C 388.038662 85.51735 363.590911 69.181885 336.686378 58.037662 
C 309.781845 46.89344 280.943756 41.157188 251.8225 41.157188 
C 222.701244 41.157188 193.863155 46.89344 166.958622 58.037662 
C 140.054089 69.181885 115.606338 85.51735 95.0145 106.109188 
C 74.422662 126.701026 58.087197 151.148777 46.942975 178.05331 
C 35.798753 204.957842 30.0625 233.795931 30.0625 262.917188 
C 30.0625 292.038444 35.798753 320.876533 46.942975 347.781065 
C 58.087197 374.685598 74.422662 399.133349 95.0145 419.725187 
C 115.606338 440.317025 140.054089 456.65249 166.958622 467.796713 
C 193.863155 478.940935 222.701244 484.677188 251.8225 484.677188 
C 280.943756 484.677188 309.781845 478.940935 336.686378 467.796713 
C 363.590911 456.65249 388.038662 440.317025 408.6305 419.725187 
C 429.222338 399.133349 445.557803 374.685598 456.702025 347.781065 
C 467.846247 320.876533 473.5825 292.038444 473.5825 262.917188 
M 251.8225 262.917188 
C 251.8225 262.917188 251.8225 262.917188 251.8225 262.917188 
C 251.8225 262.917188 251.8225 262.917188 251.8225 262.917188 
C 251.8225 262.917188 251.8225 262.917188 251.8225 262.917188 
C 251.8225 262.917188 251.8225 262.917188 251.8225 262.917188 
C 251.8225 262.917188 251.8225 262.917188 251.8225 262.917188 
C 251.8225 262.917188 251.8225 262.917188 251.8225 262.917188 
C 251.8225 262.917188 251.8225 262.917188 251.8225 262.917188 
C 251.8225 262.917188 251.8225 262.917188 251.8225 262.917188 
C 251.8225 262.917188 251.8225 262.917188 251.8225 262.917188 
C 251.8225 262.917188 251.8225 262.917188 251.8225 262.917188 
C 251.8225 262.917188 251.8225 262.917188 251.8225 262.917188 
C 251.8225 262.917188 251.8225 262.917188 251.8225 262.917188 
C 251.8225 262.917188 251.8225 262.917188 251.8225 262.917188 
C 251.8225 262.917188 251.8225 262.917188 251.8225 262.917188 
C 251.8225 262.917188 251.8225 262.917188 251.8225 262.917188 
C 251.8225 262.917188 251.8225 262.917188 251.8225 262.917188 
M 473.5825 262.917188 
z
" style="fill: #ffffff"/>
   </g>
   <g id="matplotlib.axis_1">
    <g id="xtick_1">
     <g id="line2d_1">
      <path d="M 251.8225 262.917188 
L 251.8225 41.157188 
" clip-path="url(#pf61cb46620)" style="fill: none; stroke: #b0b0b0; stroke-width: 0.8; stroke-linecap: square"/>
     </g>
     <g id="text_1">
      <!-- 0° -->
      <g transform="translate(246.14125 29.916563)scale(0.1 -0.1)">
       <defs>
        <path id="DejaVuSans-30" d="M 2034 4250 
Q 1547 4250 1301 3770 
Q 1056 3291 1056 2328 
Q 1056 1369 1301 889 
Q 1547 409 2034 409 
Q 2525 409 2770 889 
Q 3016 1369 3016 2328 
Q 3016 3291 2770 3770 
Q 2525 4250 2034 4250 
z
M 2034 4750 
Q 2819 4750 3233 4129 
Q 3647 3509 3647 2328 
Q 3647 1150 3233 529 
Q 2819 -91 2034 -91 
Q 1250 -91 836 529 
Q 422 1150 422 2328 
Q 422 3509 836 4129 
Q 1250 4750 2034 4750 
z
" transform="scale(0.015625)"/>
        <path id="DejaVuSans-b0" d="M 1600 4347 
Q 1350 4347 1178 4173 
Q 1006 4000 1006 3750 
Q 1006 3503 1178 3333 
Q 1350 3163 1600 3163 
Q 1850 3163 2022 3333 
Q 2194 3503 2194 3750 
Q 2194 3997 2020 4172 
Q 1847 4347 1600 4347 
z
M 1600 4750 
Q 1800 4750 1984 4673 
Q 2169 4597 2303 4453 
Q 2447 4313 2519 4134 
Q 2591 3956 2591 3750 
Q 2591 3338 2302 3052 
Q 2013 2766 1594 2766 
Q 1172 2766 890 3047 
Q 609 3328 609 3750 
Q 609 4169 896 4459 
Q 1184 4750 1600 4750 
z
" transform="scale(0.015625)"/>
       </defs>
       <use xlink:href="#DejaVuSans-30"/>
       <use xlink:href="#DejaVuSans-b0" x="63.623047"/>
      </g>
     </g>
    </g>
    <g id="xtick_2">
     <g id="line2d_2">
      <path d="M 251.8225 262.917188 
L 95.0145 106.109188 
" clip-path="url(#pf61cb46620)" style="fill: none; stroke: #b0b0b0; stroke-width: 0.8; stroke-linecap: square"/>
     </g>
     <g id="text_2">
      <!-- 45° -->
      <g transform="translate(76.252505 98.969068)scale(0.1 -0.1)">
       <defs>
        <path id="DejaVuSans-34" d="M 2419 4116 
L 825 1625 
L 2419 1625 
L 2419 4116 
z
M 2253 4666 
L 3047 4666 
L 3047 1625 
L 3713 1625 
L 3713 1100 
L 3047 1100 
L 3047 0 
L 2419 0 
L 2419 1100 
L 313 1100 
L 313 1709 
L 2253 4666 
z
" transform="scale(0.015625)"/>
        <path id="DejaVuSans-35" d="M 691 4666 
L 3169 4666 
L 3169 4134 
L 1269 4134 
L 1269 2991 
Q 1406 3038 1543 3061 
Q 1681 3084 1819 3084 
Q 2600 3084 3056 2656 
Q 3513 2228 3513 1497 
Q 3513 744 3044 326 
Q 2575 -91 1722 -91 
Q 1428 -91 1123 -41 
Q 819 9 494 109 
L 494 744 
Q 775 591 1075 516 
Q 1375 441 1709 441 
Q 2250 441 2565 725 
Q 2881 1009 2881 1497 
Q 2881 1984 2565 2268 
Q 2250 2553 1709 2553 
Q 1456 2553 1204 2497 
Q 953 2441 691 2322 
L 691 4666 
z
" transform="scale(0.015625)"/>
       </defs>
       <use xlink:href="#DejaVuSans-34"/>
       <use xlink:href="#DejaVuSans-35" x="63.623047"/>
       <use xlink:href="#DejaVuSans-b0" x="127.246094"/>
      </g>
     </g>
    </g>
    <g id="xtick_3">
     <g id="line2d_3">
      <path d="M 251.8225 262.917188 
L 30.0625 262.917188 
" clip-path="url(#pf61cb46620)" style="fill: none; stroke: #b0b0b0; stroke-width: 0.8; stroke-linecap: square"/>
     </g>
     <g id="text_3">
      <!-- 90° -->
      <g transform="translate(7.2 265.676563)scale(0.1 -0.1)">
       <defs>
        <path id="DejaVuSans-39" d="M 703 97 
L 703 672 
Q 941 559 1184 500 
Q 1428 441 1663 441 
Q 2288 441 2617 861 
Q 2947 1281 2994 2138 
Q 2813 1869 2534 1725 
Q 2256 1581 1919 1581 
Q 1219 1581 811 2004 
Q 403 2428 403 3163 
Q 403 3881 828 4315 
Q 1253 4750 1959 4750 
Q 2769 4750 3195 4129 
Q 3622 3509 3622 2328 
Q 3622 1225 3098 567 
Q 2575 -91 1691 -91 
Q 1453 -91 1209 -44 
Q 966 3 703 97 
z
M 1959 2075 
Q 2384 2075 2632 2365 
Q 2881 2656 2881 3163 
Q 2881 3666 2632 3958 
Q 2384 4250 1959 4250 
Q 1534 4250 1286 3958 
Q 1038 3666 1038 3163 
Q 1038 2656 1286 2365 
Q 1534 2075 1959 2075 
z
" transform="scale(0.015625)"/>
       </defs>
       <use xlink:href="#DejaVuSans-39"/>
       <use xlink:href="#DejaVuSans-30" x="63.623047"/>
       <use xlink:href="#DejaVuSans-b0" x="127.246094"/>
      </g>
     </g>
    </g>
    <g id="xtick_4">
     <g id="line2d_4">
      <path d="M 251.8225 262.917188 
L 95.0145 419.725187 
" clip-path="url(#pf61cb46620)" style="fill: none; stroke: #b0b0b0; stroke-width: 0.8; stroke-linecap: square"/>
     </g>
     <g id="text_4">
      <!-- 135° -->
      <g transform="translate(73.071255 432.384057)scale(0.1 -0.1)">
       <defs>
        <path id="DejaVuSans-31" d="M 794 531 
L 1825 531 
L 1825 4091 
L 703 3866 
L 703 4441 
L 1819 4666 
L 2450 4666 
L 2450 531 
L 3481 531 
L 3481 0 
L 794 0 
L 794 531 
z
" transform="scale(0.015625)"/>
        <path id="DejaVuSans-33" d="M 2597 2516 
Q 3050 2419 3304 2112 
Q 3559 1806 3559 1356 
Q 3559 666 3084 287 
Q 2609 -91 1734 -91 
Q 1441 -91 1130 -33 
Q 819 25 488 141 
L 488 750 
Q 750 597 1062 519 
Q 1375 441 1716 441 
Q 2309 441 2620 675 
Q 2931 909 2931 1356 
Q 2931 1769 2642 2001 
Q 2353 2234 1838 2234 
L 1294 2234 
L 1294 2753 
L 1863 2753 
Q 2328 2753 2575 2939 
Q 2822 3125 2822 3475 
Q 2822 3834 2567 4026 
Q 2313 4219 1838 4219 
Q 1578 4219 1281 4162 
Q 984 4106 628 3988 
L 628 4550 
Q 988 4650 1302 4700 
Q 1616 4750 1894 4750 
Q 2613 4750 3031 4423 
Q 3450 4097 3450 3541 
Q 3450 3153 3228 2886 
Q 3006 2619 2597 2516 
z
" transform="scale(0.015625)"/>
       </defs>
       <use xlink:href="#DejaVuSans-31"/>
       <use xlink:href="#DejaVuSans-33" x="63.623047"/>
       <use xlink:href="#DejaVuSans-35" x="127.246094"/>
       <use xlink:href="#DejaVuSans-b0" x="190.869141"/>
      </g>
     </g>
    </g>
    <g id="xtick_5">
     <g id="line2d_5">
      <path d="M 251.8225 262.917188 
L 251.8225 484.677188 
" clip-path="url(#pf61cb46620)" style="fill: none; stroke: #b0b0b0; stroke-width: 0.8; stroke-linecap: square"/>
     </g>
     <g id="text_5">
      <!-- 180° -->
      <g transform="translate(239.77875 501.436563)scale(0.1 -0.1)">
       <defs>
        <path id="DejaVuSans-38" d="M 2034 2216 
Q 1584 2216 1326 1975 
Q 1069 1734 1069 1313 
Q 1069 891 1326 650 
Q 1584 409 2034 409 
Q 2484 409 2743 651 
Q 3003 894 3003 1313 
Q 3003 1734 2745 1975 
Q 2488 2216 2034 2216 
z
M 1403 2484 
Q 997 2584 770 2862 
Q 544 3141 544 3541 
Q 544 4100 942 4425 
Q 1341 4750 2034 4750 
Q 2731 4750 3128 4425 
Q 3525 4100 3525 3541 
Q 3525 3141 3298 2862 
Q 3072 2584 2669 2484 
Q 3125 2378 3379 2068 
Q 3634 1759 3634 1313 
Q 3634 634 3220 271 
Q 2806 -91 2034 -91 
Q 1263 -91 848 271 
Q 434 634 434 1313 
Q 434 1759 690 2068 
Q 947 2378 1403 2484 
z
M 1172 3481 
Q 1172 3119 1398 2916 
Q 1625 2713 2034 2713 
Q 2441 2713 2670 2916 
Q 2900 3119 2900 3481 
Q 2900 3844 2670 4047 
Q 2441 4250 2034 4250 
Q 1625 4250 1398 4047 
Q 1172 3844 1172 3481 
z
" transform="scale(0.015625)"/>
       </defs>
       <use xlink:href="#DejaVuSans-31"/>
       <use xlink:href="#DejaVuSans-38" x="63.623047"/>
       <use xlink:href="#DejaVuSans-30" x="127.246094"/>
       <use xlink:href="#DejaVuSans-b0" x="190.869141"/>
      </g>
     </g>
    </g>
    <g id="xtick_6">
     <g id="line2d_6">
      <path d="M 251.8225 262.917188 
L 408.6305 419.725187 
" clip-path="url(#pf61cb46620)" style="fill: none; stroke: #b0b0b0; stroke-width: 0.8; stroke-linecap: square"/>
     </g>
     <g id="text_6">
      <!-- 225° -->
      <g transform="translate(406.486245 432.384057)scale(0.1 -0.1)">
       <defs>
        <path id="DejaVuSans-32" d="M 1228 531 
L 3431 531 
L 3431 0 
L 469 0 
L 469 531 
Q 828 903 1448 1529 
Q 2069 2156 2228 2338 
Q 2531 2678 2651 2914 
Q 2772 3150 2772 3378 
Q 2772 3750 2511 3984 
Q 2250 4219 1831 4219 
Q 1534 4219 1204 4116 
Q 875 4013 500 3803 
L 500 4441 
Q 881 4594 1212 4672 
Q 1544 4750 1819 4750 
Q 2544 4750 2975 4387 
Q 3406 4025 3406 3419 
Q 3406 3131 3298 2873 
Q 3191 2616 2906 2266 
Q 2828 2175 2409 1742 
Q 1991 1309 1228 531 
z
" transform="scale(0.015625)"/>
       </defs>
       <use xlink:href="#DejaVuSans-32"/>
       <use xlink:href="#DejaVuSans-32" x="63.623047"/>
       <use xlink:href="#DejaVuSans-35" x="127.246094"/>
       <use xlink:href="#DejaVuSans-b0" x="190.869141"/>
      </g>
     </g>
    </g>
    <g id="xtick_7">
     <g id="line2d_7">
      <path d="M 251.8225 262.917188 
L 473.5825 262.917188 
" clip-path="url(#pf61cb46620)" style="fill: none; stroke: #b0b0b0; stroke-width: 0.8; stroke-linecap: square"/>
     </g>
     <g id="text_7">
      <!-- 270° -->
      <g transform="translate(475.53875 265.676563)scale(0.1 -0.1)">
       <defs>
        <path id="DejaVuSans-37" d="M 525 4666 
L 3525 4666 
L 3525 4397 
L 1831 0 
L 1172 0 
L 2766 4134 
L 525 4134 
L 525 4666 
z
" transform="scale(0.015625)"/>
       </defs>
       <use xlink:href="#DejaVuSans-32"/>
       <use xlink:href="#DejaVuSans-37" x="63.623047"/>
       <use xlink:href="#DejaVuSans-30" x="127.246094"/>
       <use xlink:href="#DejaVuSans-b0" x="190.869141"/>
      </g>
     </g>
    </g>
    <g id="xtick_8">
     <g id="line2d_8">
      <path d="M 251.8225 262.917188 
L 408.6305 106.109188 
" clip-path="url(#pf61cb46620)" style="fill: none; stroke: #b0b0b0; stroke-width: 0.8; stroke-linecap: square"/>
     </g>
     <g id="text_8">
      <!-- 315° -->
      <g transform="translate(406.486245 98.969068)scale(0.1 -0.1)">
       <use xlink:href="#DejaVuSans-33"/>
       <use xlink:href="#DejaVuSans-31" x="63.623047"/>
       <use xlink:href="#DejaVuSans-35" x="127.246094"/>
       <use xlink:href="#DejaVuSans-b0" x="190.869141"/>
      </g>
     </g>
    </g>
   </g>
   <g id="matplotlib.axis_2">
    <g id="ytick_1">
     <g id="line2d_9">
      <path d="M 251.8225 253.786053 
C 250.62341 253.786053 249.435981 254.022248 248.328166 254.48112 
C 247.220352 254.939991 246.213698 255.612616 245.365813 256.460501 
C 244.517929 257.308385 243.845304 258.31504 243.386432 259.422854 
C 242.92756 260.530668 242.691366 261.718098 242.691366 262.917188 
C 242.691366 264.116277 242.92756 265.303707 243.386432 266.411521 
C 243.845304 267.519335 244.517929 268.52599 245.365813 269.373874 
C 246.213698 270.221759 247.220352 270.894384 248.328166 271.353255 
C 249.435981 271.812127 250.62341 272.048322 251.8225 272.048322 
C 253.02159 272.048322 254.209019 271.812127 255.316834 271.353255 
C 256.424648 270.894384 257.431302 270.221759 258.279187 269.373874 
C 259.127071 268.52599 259.799696 267.519335 260.258568 266.411521 
C 260.71744 265.303707 260.953634 264.116277 260.953634 262.917188 
C 260.953634 261.718098 260.71744 260.530668 260.258568 259.422854 
C 259.799696 258.31504 259.127071 257.308385 258.279187 256.460501 
C 257.431302 255.612616 256.424648 254.939991 255.316834 254.48112 
C 254.209019 254.022248 253.02159 253.786053 251.8225 253.786053 
" clip-path="url(#pf61cb46620)" style="fill: none; stroke: #b0b0b0; stroke-width: 0.8; stroke-linecap: square"/>
     </g>
     <g id="text_9">
      <!-- −25 -->
      <g transform="translate(248.328166 252.401432)scale(0.1 -0.1)">
       <defs>
        <path id="DejaVuSans-2212" d="M 678 2272 
L 4684 2272 
L 4684 1741 
L 678 1741 
L 678 2272 
z
" transform="scale(0.015625)"/>
       </defs>
       <use xlink:href="#DejaVuSans-2212"/>
       <use xlink:href="#DejaVuSans-32" x="83.789062"/>
       <use xlink:href="#DejaVuSans-35" x="147.412109"/>
      </g>
     </g>
    </g>
    <g id="ytick_2">
     <g id="line2d_10">
      <path d="M 251.8225 211.26028 
C 245.038977 211.26028 238.321415 212.596486 232.054257 215.192428 
C 225.787099 217.78837 220.092226 221.593563 215.295551 226.390238 
C 210.498876 231.186913 206.693683 236.881787 204.097741 243.148945 
C 201.501799 249.416103 200.165593 256.133665 200.165593 262.917188 
C 200.165593 269.70071 201.501799 276.418272 204.097741 282.68543 
C 206.693683 288.952588 210.498876 294.647462 215.295551 299.444137 
C 220.092226 304.240812 225.787099 308.046005 232.054257 310.641947 
C 238.321415 313.237889 245.038977 314.574095 251.8225 314.574095 
C 258.606023 314.574095 265.323585 313.237889 271.590743 310.641947 
C 277.857901 308.046005 283.552774 304.240812 288.349449 299.444137 
C 293.146124 294.647462 296.951317 288.952588 299.547259 282.68543 
C 302.143201 276.418272 303.479407 269.70071 303.479407 262.917188 
C 303.479407 256.133665 302.143201 249.416103 299.547259 243.148945 
C 296.951317 236.881787 293.146124 231.186913 288.349449 226.390238 
C 283.552774 221.593563 277.857901 217.78837 271.590743 215.192428 
C 265.323585 212.596486 258.606023 211.26028 251.8225 211.26028 
" clip-path="url(#pf61cb46620)" style="fill: none; stroke: #b0b0b0; stroke-width: 0.8; stroke-linecap: square"/>
     </g>
     <g id="text_10">
      <!-- −20 -->
      <g transform="translate(232.054257 213.112741)scale(0.1 -0.1)">
       <use xlink:href="#DejaVuSans-2212"/>
       <use xlink:href="#DejaVuSans-32" x="83.789062"/>
       <use xlink:href="#DejaVuSans-30" x="147.412109"/>
      </g>
     </g>
    </g>
    <g id="ytick_3">
     <g id="line2d_11">
      <path d="M 251.8225 168.734507 
C 239.454544 168.734507 227.20685 171.170725 215.780349 175.903737 
C 204.353847 180.636749 193.970754 187.57451 185.225288 196.319976 
C 176.479822 205.065441 169.542061 215.448534 164.809049 226.875036 
C 160.076037 238.301538 157.63982 250.549231 157.63982 262.917188 
C 157.63982 275.285144 160.076037 287.532837 164.809049 298.959339 
C 169.542061 310.385841 176.479822 320.768934 185.225288 329.514399 
C 193.970754 338.259865 204.353847 345.197626 215.780349 349.930638 
C 227.20685 354.66365 239.454544 357.099868 251.8225 357.099868 
C 264.190456 357.099868 276.43815 354.66365 287.864651 349.930638 
C 299.291153 345.197626 309.674246 338.259865 318.419712 329.514399 
C 327.165178 320.768934 334.102939 310.385841 338.835951 298.959339 
C 343.568963 287.532837 346.00518 275.285144 346.00518 262.917188 
C 346.00518 250.549231 343.568963 238.301538 338.835951 226.875036 
C 334.102939 215.448534 327.165178 205.065441 318.419712 196.319976 
C 309.674246 187.57451 299.291153 180.636749 287.864651 175.903737 
C 276.43815 171.170725 264.190456 168.734507 251.8225 168.734507 
" clip-path="url(#pf61cb46620)" style="fill: none; stroke: #b0b0b0; stroke-width: 0.8; stroke-linecap: square"/>
     </g>
     <g id="text_11">
      <!-- −15 -->
      <g transform="translate(215.780349 173.824049)scale(0.1 -0.1)">
       <use xlink:href="#DejaVuSans-2212"/>
       <use xlink:href="#DejaVuSans-31" x="83.789062"/>
       <use xlink:href="#DejaVuSans-35" x="147.412109"/>
      </g>
     </g>
    </g>
    <g id="ytick_4">
     <g id="line2d_12">
      <path d="M 251.8225 126.208734 
C 233.87011 126.208734 216.092285 129.744963 199.50644 136.615045 
C 182.920594 143.485127 167.849282 153.555456 155.155025 166.249713 
C 142.460769 178.943969 132.39044 194.015282 125.520358 210.601127 
C 118.650276 227.186973 115.114046 244.964798 115.114046 262.917188 
C 115.114046 280.869577 118.650276 298.647402 125.520358 315.233248 
C 132.39044 331.819093 142.460769 346.890406 155.155025 359.584662 
C 167.849282 372.278919 182.920594 382.349248 199.50644 389.21933 
C 216.092285 396.089412 233.87011 399.625641 251.8225 399.625641 
C 269.77489 399.625641 287.552715 396.089412 304.13856 389.21933 
C 320.724406 382.349248 335.795718 372.278919 348.489975 359.584662 
C 361.184231 346.890406 371.25456 331.819093 378.124642 315.233248 
C 384.994724 298.647402 388.530954 280.869577 388.530954 262.917188 
C 388.530954 244.964798 384.994724 227.186973 378.124642 210.601127 
C 371.25456 194.015282 361.184231 178.943969 348.489975 166.249713 
C 335.795718 153.555456 320.724406 143.485127 304.13856 136.615045 
C 287.552715 129.744963 269.77489 126.208734 251.8225 126.208734 
" clip-path="url(#pf61cb46620)" style="fill: none; stroke: #b0b0b0; stroke-width: 0.8; stroke-linecap: square"/>
     </g>
     <g id="text_12">
      <!-- −10 -->
      <g transform="translate(199.50644 134.535358)scale(0.1 -0.1)">
       <use xlink:href="#DejaVuSans-2212"/>
       <use xlink:href="#DejaVuSans-31" x="83.789062"/>
       <use xlink:href="#DejaVuSans-30" x="147.412109"/>
      </g>
     </g>
    </g>
    <g id="ytick_5">
     <g id="line2d_13">
      <path d="M 251.8225 83.682961 
C 228.285677 83.682961 204.97772 88.319202 183.232531 97.326354 
C 161.487342 106.333506 141.72781 119.536403 125.084763 136.17945 
C 108.441716 152.822497 95.238819 172.582029 86.231666 194.327218 
C 77.224514 216.072407 72.588273 239.380364 72.588273 262.917188 
C 72.588273 286.454011 77.224514 309.761968 86.231666 331.507157 
C 95.238819 353.252346 108.441716 373.011878 125.084763 389.654925 
C 141.72781 406.297972 161.487342 419.500869 183.232531 428.508021 
C 204.97772 437.515173 228.285677 442.151414 251.8225 442.151414 
C 275.359323 442.151414 298.66728 437.515173 320.412469 428.508021 
C 342.157658 419.500869 361.91719 406.297972 378.560237 389.654925 
C 395.203284 373.011878 408.406181 353.252346 417.413334 331.507157 
C 426.420486 309.761968 431.056727 286.454011 431.056727 262.917188 
C 431.056727 239.380364 426.420486 216.072407 417.413334 194.327218 
C 408.406181 172.582029 395.203284 152.822497 378.560237 136.17945 
C 361.91719 119.536403 342.157658 106.333506 320.412469 97.326354 
C 298.66728 88.319202 275.359323 83.682961 251.8225 83.682961 
" clip-path="url(#pf61cb46620)" style="fill: none; stroke: #b0b0b0; stroke-width: 0.8; stroke-linecap: square"/>
     </g>
     <g id="text_13">
      <!-- −5 -->
      <g transform="translate(183.232531 95.246666)scale(0.1 -0.1)">
       <use xlink:href="#DejaVuSans-2212"/>
       <use xlink:href="#DejaVuSans-35" x="83.789062"/>
      </g>
     </g>
    </g>
    <g id="ytick_6">
     <g id="line2d_14">
      <path d="M 251.8225 41.157188 
C 222.701244 41.157188 193.863155 46.89344 166.958622 58.037662 
C 140.054089 69.181885 115.606338 85.51735 95.0145 106.109188 
C 74.422662 126.701026 58.087197 151.148777 46.942975 178.05331 
C 35.798753 204.957842 30.0625 233.795931 30.0625 262.917188 
C 30.0625 292.038444 35.798753 320.876533 46.942975 347.781065 
C 58.087197 374.685598 74.422662 399.133349 95.0145 419.725187 
C 115.606338 440.317025 140.054089 456.65249 166.958622 467.796713 
C 193.863155 478.940935 222.701244 484.677188 251.8225 484.677188 
C 280.943756 484.677188 309.781845 478.940935 336.686378 467.796713 
C 363.590911 456.65249 388.038662 440.317025 408.6305 419.725187 
C 429.222338 399.133349 445.557803 374.685598 456.702025 347.781065 
C 467.846247 320.876533 473.5825 292.038444 473.5825 262.917188 
C 473.5825 233.795931 467.846247 204.957842 456.702025 178.05331 
C 445.557803 151.148777 429.222338 126.701026 408.6305 106.109188 
C 388.038662 85.51735 363.590911 69.181885 336.686378 58.037662 
C 309.781845 46.89344 280.943756 41.157188 251.8225 41.157188 
" clip-path="url(#pf61cb46620)" style="fill: none; stroke: #b0b0b0; stroke-width: 0.8; stroke-linecap: square"/>
     </g>
     <g id="text_14">
      <!-- 0 -->
      <g transform="translate(166.958622 55.957975)scale(0.1 -0.1)">
       <use xlink:href="#DejaVuSans-30"/>
      </g>
     </g>
    </g>
   </g>
   <g id="line2d_15">
    <path d="M 251.8225 427.34394 
L 254.710845 428.390383 
L 257.670143 430.371766 
L 260.67097 431.756049 
L 266.800367 434.114992 
L 269.835685 434.301198 
L 272.841626 434.104232 
L 278.674105 432.451549 
L 281.4752 431.086005 
L 286.693084 426.970389 
L 289.028581 424.07443 
L 291.154436 420.668967 
L 293.349069 417.896451 
L 294.957388 413.346418 
L 296.305483 408.41447 
L 297.760409 404.299533 
L 298.198475 390.33413 
L 298.555879 384.661802 
L 297.500155 375.973351 
L 297.093515 369.569015 
L 296.388026 363.012998 
L 295.08726 355.698765 
L 294.533724 350.488174 
L 293.449193 344.614173 
L 292.161457 338.783731 
L 291.063582 330.884736 
L 289.930911 326.340233 
L 289.364384 322.996761 
L 291.097403 323.395235 
L 301.79443 334.2845 
L 310.511161 343.695199 
L 318.166836 350.959095 
L 331.090399 360.80489 
L 336.247318 363.530768 
L 340.997966 365.501826 
L 347.037336 368.663976 
L 357.517421 372.367482 
L 363.795738 374.890426 
L 373.743648 376.610498 
L 378.414501 376.901137 
L 381.886543 375.980135 
L 385.045289 374.704381 
L 387.365929 372.678092 
L 389.280984 370.311525 
L 390.543389 367.450875 
L 391.63102 364.494023 
L 392.943565 361.731221 
L 395.555899 352.731783 
L 394.264643 341.874157 
L 391.535712 337.20402 
L 390.037315 333.341153 
L 388.17229 329.419424 
L 384.602384 324.833464 
L 382.741287 321.205987 
L 379.965032 317.310465 
L 376.100217 313.128644 
L 373.448011 309.604847 
L 370.064362 305.953706 
L 365.522035 302.067077 
L 358.119413 293.397337 
L 356.98389 291.095097 
L 356.593132 289.03944 
L 356.585564 287.103647 
L 357.149787 285.305193 
L 356.497556 283.263957 
L 353.78787 280.896433 
L 350.364726 278.524743 
L 333.029775 271.452416 
L 327.320142 269.522375 
L 323.028982 267.89643 
L 317.575769 266.36317 
L 303.531067 263.819764 
L 291.614716 262.917188 
L 277.322172 262.472089 
L 263.991062 262.492252 
L 262.368028 262.36452 
L 272.945353 261.440134 
L 286.777842 259.858991 
L 298.155122 258.047433 
L 305.196362 256.363701 
L 310.885303 254.616452 
L 316.821761 252.622316 
L 321.976042 250.547225 
L 336.850703 244.843885 
L 342.25705 242.038726 
L 349.883837 238.46775 
L 354.954699 235.282998 
L 358.274751 232.392496 
L 362.589653 229.05227 
L 365.5894 225.952081 
L 367.468146 223.097198 
L 371.055398 219.519962 
L 373.209803 216.320968 
L 374.672879 213.282412 
L 377.54586 209.550788 
L 379.967452 205.863379 
L 381.210737 202.582462 
L 384.686452 198.115108 
L 386.073944 194.51266 
L 386.842209 191.125935 
L 388.112776 187.370254 
L 387.915223 184.344017 
L 387.223077 181.560313 
L 387.290053 178.267666 
L 386.804972 175.258545 
L 386.502602 172.074311 
L 387.070372 168.215608 
L 386.481463 161.444381 
L 386.968741 157.329372 
L 385.716368 150.566892 
L 385.615936 146.612328 
L 382.75343 136.478658 
L 379.289053 130.921708 
L 377.221222 128.443522 
L 374.786941 126.35134 
L 372.139296 124.508547 
L 369.246178 122.977097 
L 366.250756 121.610059 
L 362.767046 120.914644 
L 356.218887 119.227888 
L 352.787889 118.723669 
L 349.632948 117.907234 
L 346.183992 117.613232 
L 342.673716 117.524849 
L 339.478503 117.033101 
L 332.725705 116.963942 
L 329.407491 117.001041 
L 325.451311 118.412509 
L 317.685465 121.673604 
L 313.650223 124.049849 
L 310.097309 125.630342 
L 307.032927 126.266585 
L 304.121481 126.673684 
L 301.747374 125.749723 
L 299.512009 124.416798 
L 297.481816 122.392263 
L 295.261083 120.835983 
L 290.593046 118.22354 
L 288.158595 117.18107 
L 283.642731 113.214773 
L 281.249171 111.530087 
L 278.747357 110.218735 
L 276.168775 109.200858 
L 273.446836 109.05204 
L 270.659756 109.500045 
L 265.034655 111.901568 
L 262.212543 114.332645 
L 259.470912 116.976798 
L 256.844968 119.092535 
L 254.273109 122.521873 
L 251.8225 124.907445 
L 249.448335 126.90136 
L 247.164534 129.530503 
L 242.775071 133.532924 
L 240.714078 135.947346 
L 238.608303 137.192498 
L 236.456541 137.771494 
L 234.142215 137.115421 
L 231.703222 135.889063 
L 229.021161 133.604366 
L 226.089458 130.532163 
L 223.114515 127.856735 
L 219.814701 124.27618 
L 216.097507 119.632067 
L 212.68874 116.868008 
L 208.828273 112.978498 
L 205.014483 109.815064 
L 201.453383 107.896985 
L 197.335078 104.674224 
L 193.56062 102.843989 
L 190.016886 101.908057 
L 186.145777 100.361594 
L 182.564421 99.755377 
L 178.959425 99.264042 
L 174.935407 98.032285 
L 163.472574 96.755143 
L 156.404871 97.649006 
L 152.821058 98.151119 
L 149.49184 99.153898 
L 146.35753 100.515376 
L 143.567827 102.423035 
L 140.988196 104.629398 
L 138.507532 106.952514 
L 136.135536 109.395401 
L 126.232714 118.442666 
L 119.22765 125.611201 
L 116.743272 127.837959 
L 112.018057 132.547436 
L 109.669276 134.92185 
L 107.598316 137.545017 
L 105.771033 140.365456 
L 104.30221 143.457612 
L 102.963654 146.61591 
L 102.824531 150.639164 
L 103.130848 154.886379 
L 103.037719 158.736962 
L 104.041467 163.237622 
L 104.321573 167.128966 
L 103.985029 170.538083 
L 104.166861 174.196729 
L 102.618509 180.212065 
L 101.903733 183.203965 
L 98.523154 191.432528 
L 94.68448 199.429306 
L 92.620454 204.972382 
L 91.979222 207.878733 
L 91.795279 210.921192 
L 92.359964 214.164598 
L 93.528266 217.527046 
L 94.403278 220.736834 
L 96.2989 224.140799 
L 97.411012 227.268487 
L 98.076907 230.237553 
L 101.810766 239.157663 
L 108.687419 245.342409 
L 113.139292 248.340995 
L 119.565638 251.346211 
L 126.835572 256.3669 
L 128.958783 258.626692 
L 129.667963 260.784972 
L 131.299356 262.917188 
L 133.902885 264.975482 
L 136.948758 266.928667 
L 141.716181 268.687615 
L 144.964416 270.389433 
L 146.602311 272.122761 
L 147.100421 273.923922 
L 146.244803 275.880499 
L 144.42364 278.011113 
L 141.217239 280.43534 
L 139.202931 282.775056 
L 136.170966 287.49968 
L 135.921482 289.675046 
L 134.887661 292.072317 
L 133.532983 294.612768 
L 132.362743 297.171722 
L 130.798978 299.917791 
L 128.316585 303.046692 
L 126.719719 305.99353 
L 123.854093 309.493878 
L 120.359025 313.381288 
L 118.412978 316.818133 
L 113.102788 324.679182 
L 111.9587 328.136749 
L 108.575794 335.90503 
L 107.746207 339.523912 
L 106.099856 343.692568 
L 104.843302 347.775667 
L 104.545958 351.409861 
L 103.725369 355.458546 
L 103.672468 359.126943 
L 103.935701 362.668093 
L 103.706552 366.629091 
L 104.094162 370.248108 
L 104.291715 374.089608 
L 103.962274 378.438257 
L 104.2956 382.382115 
L 104.500544 386.534986 
L 104.459463 391.017921 
L 105.156395 394.975942 
L 105.716917 399.162847 
L 106.550752 403.204484 
L 108.02891 406.710778 
L 109.27828 410.526048 
L 110.808828 414.135837 
L 112.752361 417.370225 
L 114.587497 420.787999 
L 118.596379 427.437746 
L 120.236475 431.339619 
L 124.499761 438.161903 
L 126.719004 441.583495 
L 129.352077 444.487057 
L 132.071705 447.317242 
L 134.934083 449.977757 
L 138.010661 452.331897 
L 141.197655 454.52504 
L 144.455437 456.612497 
L 147.792345 458.569454 
L 154.609314 462.233755 
L 158.135024 463.830628 
L 161.707607 465.318552 
L 169.246771 467.299288 
L 177.453852 467.24337 
L 181.607115 466.837471 
L 186.15967 465.006598 
L 190.469971 463.592269 
L 194.856016 461.582926 
L 199.430334 458.447412 
L 203.630611 456.204297 
L 207.983204 452.806042 
L 212.440929 448.192914 
L 216.488618 444.694252 
L 224.658228 434.425653 
L 228.166954 431.235144 
L 231.616004 427.485893 
L 234.786359 425.005237 
L 240.547862 424.152025 
L 243.342594 424.723432 
L 246.147313 425.433281 
L 248.969185 426.383473 
L 248.969185 426.383473 
" clip-path="url(#pf61cb46620)" style="fill: none; stroke: #ff0000; stroke-width: 1.5; stroke-linecap: square"/>
   </g>
   <g id="line2d_16">
    <path d="M 251.8225 91.269559 
L 245.895605 93.193116 
L 228.800227 99.105206 
L 223.221356 100.712041 
L 217.613268 101.975403 
L 211.922671 102.887714 
L 206.104152 103.478359 
L 200.13138 103.828277 
L 181.353301 104.640775 
L 174.914259 105.231926 
L 168.459741 106.134641 
L 162.048041 107.423264 
L 158.874879 108.22637 
L 152.62495 110.166356 
L 149.560415 111.307411 
L 146.544644 112.564828 
L 143.576725 113.92966 
L 140.670553 115.413572 
L 137.830429 117.013991 
L 135.055216 118.7216 
L 132.359628 120.54688 
L 129.736881 122.473749 
L 127.196269 124.505736 
L 124.741632 126.639642 
L 122.376708 128.872146 
L 120.111141 131.205829 
L 117.936529 133.625008 
L 115.868408 136.137946 
L 113.904052 138.734859 
L 112.04021 141.406297 
L 110.29267 144.159559 
L 108.664643 146.99024 
L 107.145797 149.883359 
L 105.745314 152.840132 
L 104.472607 155.861224 
L 103.323366 158.936975 
L 102.306899 162.067641 
L 101.418433 165.243644 
L 100.659938 168.460335 
L 100.047818 171.721758 
L 99.569475 175.013863 
L 99.226428 178.331803 
L 99.042574 181.68266 
L 98.997015 185.048714 
L 99.106087 188.432416 
L 99.371066 191.827916 
L 99.793043 195.229312 
L 100.372928 198.630658 
L 101.119327 202.029153 
L 102.032937 205.418362 
L 103.114254 208.791812 
L 104.363566 212.143005 
L 105.797135 215.47067 
L 107.406975 218.764931 
L 109.201044 222.021143 
L 111.170804 225.229679 
L 113.323838 228.385593 
L 115.667643 231.483362 
L 118.134731 234.500975 
L 120.83174 237.455163 
L 123.673934 240.321138 
L 126.659273 243.09328 
L 129.701315 245.754174 
L 132.881499 248.313069 
L 139.222511 253.065965 
L 145.06262 257.322139 
L 147.446225 259.272288 
L 149.439436 261.130084 
L 150.784665 262.917188 
L 151.480362 264.668666 
L 151.356213 266.425548 
L 150.413524 268.231807 
L 148.824835 270.119486 
L 146.50911 272.130915 
L 143.725455 274.278645 
L 133.379627 281.676696 
L 129.620853 284.464635 
L 125.924563 287.389267 
L 122.29438 290.449239 
L 118.816767 293.62398 
L 115.436482 296.922041 
L 112.222369 300.32293 
L 109.192868 303.815576 
L 106.349618 307.392711 
L 103.702115 311.044418 
L 101.251396 314.762976 
L 98.998255 318.540664 
L 96.94324 322.369765 
L 95.086658 326.242578 
L 93.420744 330.154744 
L 91.945499 334.099014 
L 90.6607 338.068169 
L 89.558254 342.058748 
L 88.637686 346.064003 
L 87.898318 350.077221 
L 87.339264 354.091734 
L 86.9447 358.10943 
L 86.728366 362.115751 
L 86.674357 366.113201 
L 86.788603 370.091453 
L 87.055385 374.05401 
L 87.487341 377.985904 
L 88.075625 381.886256 
L 88.811565 385.754738 
L 89.706794 389.575858 
L 90.73901 393.360026 
L 91.919449 397.091779 
L 93.245607 400.765977 
L 94.702186 404.388954 
L 96.299419 407.944807 
L 98.028244 411.434574 
L 99.885883 414.853805 
L 101.869426 418.198141 
L 103.975837 421.463323 
L 106.205366 424.641399 
L 108.550063 427.733272 
L 111.007681 430.733754 
L 113.575229 433.638349 
L 116.249035 436.443309 
L 119.025315 439.145005 
L 121.900175 441.739927 
L 124.870107 444.223994 
L 127.930502 446.594628 
L 131.078089 448.847275 
L 134.307604 450.980333 
L 137.615541 452.989485 
L 140.996933 454.8727 
L 144.44719 456.627374 
L 147.962444 458.249544 
L 151.537098 459.73837 
L 155.16634 461.091684 
L 158.845644 462.306699 
L 162.569333 463.383083 
L 166.332775 464.318359 
L 170.130592 465.111755 
L 173.957106 465.763473 
L 177.808742 466.268318 
L 181.676341 466.636427 
L 185.557804 466.858953 
L 189.445464 466.943279 
L 193.334541 466.888942 
L 197.222434 466.687406 
L 201.099784 466.354891 
L 204.962192 465.89148 
L 208.80526 465.297388 
L 212.622966 464.58131 
L 216.411349 463.743804 
L 223.882001 461.724171 
L 231.18134 459.304708 
L 238.283275 456.537119 
L 245.167492 453.491694 
L 251.8225 450.256827 
L 258.247172 446.895715 
L 267.469737 441.765922 
L 279.078577 435.005284 
L 290.033034 428.425193 
L 297.857334 423.459733 
L 302.877587 420.048588 
L 307.719416 416.492703 
L 312.353693 412.737146 
L 316.746348 408.738538 
L 320.860058 404.465158 
L 324.655907 399.896903 
L 326.421056 397.496545 
L 328.095026 395.025077 
L 329.666231 392.470911 
L 331.140187 389.852021 
L 332.500358 387.150194 
L 333.752591 384.383542 
L 334.8892 381.548729 
L 335.912119 378.656618 
L 337.590935 372.695778 
L 338.745741 366.508272 
L 339.348715 360.124898 
L 339.465758 356.903075 
L 339.324559 350.419246 
L 338.592867 343.831863 
L 338.032433 340.54096 
L 336.519138 333.986105 
L 335.565345 330.730806 
L 333.26208 324.286313 
L 331.981238 321.15592 
L 329.029145 314.993727 
L 325.750612 309.112599 
L 322.088141 303.485074 
L 318.204412 298.213076 
L 314.197602 293.339558 
L 310.093232 288.860989 
L 305.995081 284.804331 
L 302.010514 281.184131 
L 296.47227 276.567992 
L 290.188773 271.77474 
L 285.504913 268.251958 
L 283.031212 266.197355 
L 281.376478 264.466046 
L 280.647181 263.420324 
L 279.954012 261.934813 
L 279.817747 260.959569 
L 279.816958 259.974851 
L 280.034114 258.952304 
L 280.95679 257.254055 
L 282.15022 255.915482 
L 283.859073 254.333014 
L 287.814793 251.222583 
L 295.822344 245.140096 
L 300.847116 241.090022 
L 306.323888 236.335084 
L 311.971439 230.935429 
L 317.521419 224.985899 
L 320.275881 221.786247 
L 322.937628 218.479524 
L 325.503773 215.068009 
L 327.90097 211.601611 
L 330.19863 208.037631 
L 332.394087 204.378503 
L 334.416808 200.677912 
L 336.266951 196.941952 
L 337.944854 193.17668 
L 339.516188 189.333446 
L 340.850376 185.526435 
L 342.077592 181.651137 
L 343.071466 177.82615 
L 343.897401 174.001489 
L 344.556784 170.182903 
L 345.110249 166.314895 
L 345.440274 162.524416 
L 345.562311 155.081871 
L 345.382688 151.416497 
L 345.044281 147.797875 
L 344.544736 144.238137 
L 343.887449 140.742874 
L 343.075979 137.317549 
L 342.118924 133.96053 
L 341.01028 130.690865 
L 339.759076 127.506735 
L 338.369488 124.413054 
L 336.850215 121.407305 
L 335.19683 118.508612 
L 333.418433 115.714228 
L 331.519751 113.028459 
L 329.505633 110.455454 
L 327.381055 107.999192 
L 325.151104 105.66349 
L 322.820981 103.451989 
L 320.399318 101.36033 
L 317.88474 99.407407 
L 315.286213 97.588564 
L 312.609335 95.906732 
L 309.85979 94.36466 
L 307.043343 92.964908 
L 304.168323 91.701715 
L 301.23787 90.585312 
L 298.257959 89.617697 
L 295.236681 88.792418 
L 292.179693 88.110979 
L 289.092696 87.574701 
L 285.981431 87.184721 
L 282.853152 86.933616 
L 279.713225 86.822081 
L 276.56704 86.850639 
L 273.421039 87.0112 
L 270.280201 87.303896 
L 267.150989 87.711753 
L 260.944722 88.854824 
L 254.834047 90.385788 
L 254.834047 90.385788 
" clip-path="url(#pf61cb46620)" style="fill: none; stroke-dasharray: 5.55,2.4; stroke-dashoffset: 0; stroke: #0000ff; stroke-width: 1.5"/>
   </g>
   <g id="patch_3">
    <path d="M 251.8225 41.157188 
C 222.701244 41.157188 193.863155 46.89344 166.958622 58.037662 
C 140.054089 69.181885 115.606338 85.51735 95.0145 106.109188 
C 74.422662 126.701026 58.087197 151.148777 46.942975 178.05331 
C 35.798753 204.957842 30.0625 233.795931 30.0625 262.917188 
C 30.0625 292.038444 35.798753 320.876533 46.942975 347.781065 
C 58.087197 374.685598 74.422662 399.133349 95.0145 419.725187 
C 115.606338 440.317025 140.054089 456.65249 166.958622 467.796713 
C 193.863155 478.940935 222.701244 484.677188 251.8225 484.677188 
C 280.943756 484.677188 309.781845 478.940935 336.686378 467.796713 
C 363.590911 456.65249 388.038662 440.317025 408.6305 419.725187 
C 429.222338 399.133349 445.557803 374.685598 456.702025 347.781065 
C 467.846247 320.876533 473.5825 292.038444 473.5825 262.917188 
C 473.5825 233.795931 467.846247 204.957842 456.702025 178.05331 
C 445.557803 151.148777 429.222338 126.701026 408.6305 106.109188 
C 388.038662 85.51735 363.590911 69.181885 336.686378 58.037662 
C 309.781845 46.89344 280.943756 41.157188 251.8225 41.157188 
" style="fill: none; stroke: #000000; stroke-width: 0.8; stroke-linejoin: miter; stroke-linecap: square"/>
   </g>
   <g id="text_15">
    <g id="patch_4">
     <path d="M 384.8785 509.853188 
L 485.369125 509.853188 
Q 488.369125 509.853188 488.369125 506.853188 
L 488.369125 473.945063 
Q 488.369125 470.945063 485.369125 470.945063 
L 384.8785 470.945063 
Q 381.8785 470.945063 381.8785 473.945063 
L 381.8785 506.853188 
Q 381.8785 509.853188 384.8785 509.853188 
z
" style="fill: #ffffff; stroke: #808080; stroke-linejoin: miter"/>
    </g>
    <!-- G_cst: -0.4 dBi -->
    <g transform="translate(384.8785 481.821625)scale(0.1 -0.1)">
     <defs>
      <path id="DejaVuSans-47" d="M 3809 666 
L 3809 1919 
L 2778 1919 
L 2778 2438 
L 4434 2438 
L 4434 434 
Q 4069 175 3628 42 
Q 3188 -91 2688 -91 
Q 1594 -91 976 548 
Q 359 1188 359 2328 
Q 359 3472 976 4111 
Q 1594 4750 2688 4750 
Q 3144 4750 3555 4637 
Q 3966 4525 4313 4306 
L 4313 3634 
Q 3963 3931 3569 4081 
Q 3175 4231 2741 4231 
Q 1884 4231 1454 3753 
Q 1025 3275 1025 2328 
Q 1025 1384 1454 906 
Q 1884 428 2741 428 
Q 3075 428 3337 486 
Q 3600 544 3809 666 
z
" transform="scale(0.015625)"/>
      <path id="DejaVuSans-5f" d="M 3263 -1063 
L 3263 -1509 
L -63 -1509 
L -63 -1063 
L 3263 -1063 
z
" transform="scale(0.015625)"/>
      <path id="DejaVuSans-63" d="M 3122 3366 
L 3122 2828 
Q 2878 2963 2633 3030 
Q 2388 3097 2138 3097 
Q 1578 3097 1268 2742 
Q 959 2388 959 1747 
Q 959 1106 1268 751 
Q 1578 397 2138 397 
Q 2388 397 2633 464 
Q 2878 531 3122 666 
L 3122 134 
Q 2881 22 2623 -34 
Q 2366 -91 2075 -91 
Q 1284 -91 818 406 
Q 353 903 353 1747 
Q 353 2603 823 3093 
Q 1294 3584 2113 3584 
Q 2378 3584 2631 3529 
Q 2884 3475 3122 3366 
z
" transform="scale(0.015625)"/>
      <path id="DejaVuSans-73" d="M 2834 3397 
L 2834 2853 
Q 2591 2978 2328 3040 
Q 2066 3103 1784 3103 
Q 1356 3103 1142 2972 
Q 928 2841 928 2578 
Q 928 2378 1081 2264 
Q 1234 2150 1697 2047 
L 1894 2003 
Q 2506 1872 2764 1633 
Q 3022 1394 3022 966 
Q 3022 478 2636 193 
Q 2250 -91 1575 -91 
Q 1294 -91 989 -36 
Q 684 19 347 128 
L 347 722 
Q 666 556 975 473 
Q 1284 391 1588 391 
Q 1994 391 2212 530 
Q 2431 669 2431 922 
Q 2431 1156 2273 1281 
Q 2116 1406 1581 1522 
L 1381 1569 
Q 847 1681 609 1914 
Q 372 2147 372 2553 
Q 372 3047 722 3315 
Q 1072 3584 1716 3584 
Q 2034 3584 2315 3537 
Q 2597 3491 2834 3397 
z
" transform="scale(0.015625)"/>
      <path id="DejaVuSans-74" d="M 1172 4494 
L 1172 3500 
L 2356 3500 
L 2356 3053 
L 1172 3053 
L 1172 1153 
Q 1172 725 1289 603 
Q 1406 481 1766 481 
L 2356 481 
L 2356 0 
L 1766 0 
Q 1100 0 847 248 
Q 594 497 594 1153 
L 594 3053 
L 172 3053 
L 172 3500 
L 594 3500 
L 594 4494 
L 1172 4494 
z
" transform="scale(0.015625)"/>
      <path id="DejaVuSans-3a" d="M 750 794 
L 1409 794 
L 1409 0 
L 750 0 
L 750 794 
z
M 750 3309 
L 1409 3309 
L 1409 2516 
L 750 2516 
L 750 3309 
z
" transform="scale(0.015625)"/>
      <path id="DejaVuSans-20" transform="scale(0.015625)"/>
      <path id="DejaVuSans-2d" d="M 313 2009 
L 1997 2009 
L 1997 1497 
L 313 1497 
L 313 2009 
z
" transform="scale(0.015625)"/>
      <path id="DejaVuSans-2e" d="M 684 794 
L 1344 794 
L 1344 0 
L 684 0 
L 684 794 
z
" transform="scale(0.015625)"/>
      <path id="DejaVuSans-64" d="M 2906 2969 
L 2906 4863 
L 3481 4863 
L 3481 0 
L 2906 0 
L 2906 525 
Q 2725 213 2448 61 
Q 2172 -91 1784 -91 
Q 1150 -91 751 415 
Q 353 922 353 1747 
Q 353 2572 751 3078 
Q 1150 3584 1784 3584 
Q 2172 3584 2448 3432 
Q 2725 3281 2906 2969 
z
M 947 1747 
Q 947 1113 1208 752 
Q 1469 391 1925 391 
Q 2381 391 2643 752 
Q 2906 1113 2906 1747 
Q 2906 2381 2643 2742 
Q 2381 3103 1925 3103 
Q 1469 3103 1208 2742 
Q 947 2381 947 1747 
z
" transform="scale(0.015625)"/>
      <path id="DejaVuSans-42" d="M 1259 2228 
L 1259 519 
L 2272 519 
Q 2781 519 3026 730 
Q 3272 941 3272 1375 
Q 3272 1813 3026 2020 
Q 2781 2228 2272 2228 
L 1259 2228 
z
M 1259 4147 
L 1259 2741 
L 2194 2741 
Q 2656 2741 2882 2914 
Q 3109 3088 3109 3444 
Q 3109 3797 2882 3972 
Q 2656 4147 2194 4147 
L 1259 4147 
z
M 628 4666 
L 2241 4666 
Q 2963 4666 3353 4366 
Q 3744 4066 3744 3513 
Q 3744 3084 3544 2831 
Q 3344 2578 2956 2516 
Q 3422 2416 3680 2098 
Q 3938 1781 3938 1306 
Q 3938 681 3513 340 
Q 3088 0 2303 0 
L 628 0 
L 628 4666 
z
" transform="scale(0.015625)"/>
      <path id="DejaVuSans-69" d="M 603 3500 
L 1178 3500 
L 1178 0 
L 603 0 
L 603 3500 
z
M 603 4863 
L 1178 4863 
L 1178 4134 
L 603 4134 
L 603 4863 
z
" transform="scale(0.015625)"/>
     </defs>
     <use xlink:href="#DejaVuSans-47"/>
     <use xlink:href="#DejaVuSans-5f" x="77.490234"/>
     <use xlink:href="#DejaVuSans-63" x="127.490234"/>
     <use xlink:href="#DejaVuSans-73" x="182.470703"/>
     <use xlink:href="#DejaVuSans-74" x="234.570312"/>
     <use xlink:href="#DejaVuSans-3a" x="273.779297"/>
     <use xlink:href="#DejaVuSans-20" x="307.470703"/>
     <use xlink:href="#DejaVuSans-2d" x="339.257812"/>
     <use xlink:href="#DejaVuSans-30" x="375.341797"/>
     <use xlink:href="#DejaVuSans-2e" x="438.964844"/>
     <use xlink:href="#DejaVuSans-34" x="470.751953"/>
     <use xlink:href="#DejaVuSans-20" x="534.375"/>
     <use xlink:href="#DejaVuSans-64" x="566.162109"/>
     <use xlink:href="#DejaVuSans-42" x="629.638672"/>
     <use xlink:href="#DejaVuSans-69" x="698.242188"/>
    </g>
    <!-- G_inpe: -2.3 dBi -->
    <g transform="translate(384.8785 493.297563)scale(0.1 -0.1)">
     <defs>
      <path id="DejaVuSans-6e" d="M 3513 2113 
L 3513 0 
L 2938 0 
L 2938 2094 
Q 2938 2591 2744 2837 
Q 2550 3084 2163 3084 
Q 1697 3084 1428 2787 
Q 1159 2491 1159 1978 
L 1159 0 
L 581 0 
L 581 3500 
L 1159 3500 
L 1159 2956 
Q 1366 3272 1645 3428 
Q 1925 3584 2291 3584 
Q 2894 3584 3203 3211 
Q 3513 2838 3513 2113 
z
" transform="scale(0.015625)"/>
      <path id="DejaVuSans-70" d="M 1159 525 
L 1159 -1331 
L 581 -1331 
L 581 3500 
L 1159 3500 
L 1159 2969 
Q 1341 3281 1617 3432 
Q 1894 3584 2278 3584 
Q 2916 3584 3314 3078 
Q 3713 2572 3713 1747 
Q 3713 922 3314 415 
Q 2916 -91 2278 -91 
Q 1894 -91 1617 61 
Q 1341 213 1159 525 
z
M 3116 1747 
Q 3116 2381 2855 2742 
Q 2594 3103 2138 3103 
Q 1681 3103 1420 2742 
Q 1159 2381 1159 1747 
Q 1159 1113 1420 752 
Q 1681 391 2138 391 
Q 2594 391 2855 752 
Q 3116 1113 3116 1747 
z
" transform="scale(0.015625)"/>
      <path id="DejaVuSans-65" d="M 3597 1894 
L 3597 1613 
L 953 1613 
Q 991 1019 1311 708 
Q 1631 397 2203 397 
Q 2534 397 2845 478 
Q 3156 559 3463 722 
L 3463 178 
Q 3153 47 2828 -22 
Q 2503 -91 2169 -91 
Q 1331 -91 842 396 
Q 353 884 353 1716 
Q 353 2575 817 3079 
Q 1281 3584 2069 3584 
Q 2775 3584 3186 3129 
Q 3597 2675 3597 1894 
z
M 3022 2063 
Q 3016 2534 2758 2815 
Q 2500 3097 2075 3097 
Q 1594 3097 1305 2825 
Q 1016 2553 972 2059 
L 3022 2063 
z
" transform="scale(0.015625)"/>
     </defs>
     <use xlink:href="#DejaVuSans-47"/>
     <use xlink:href="#DejaVuSans-5f" x="77.490234"/>
     <use xlink:href="#DejaVuSans-69" x="127.490234"/>
     <use xlink:href="#DejaVuSans-6e" x="155.273438"/>
     <use xlink:href="#DejaVuSans-70" x="218.652344"/>
     <use xlink:href="#DejaVuSans-65" x="282.128906"/>
     <use xlink:href="#DejaVuSans-3a" x="343.652344"/>
     <use xlink:href="#DejaVuSans-20" x="377.34375"/>
     <use xlink:href="#DejaVuSans-2d" x="409.130859"/>
     <use xlink:href="#DejaVuSans-32" x="445.214844"/>
     <use xlink:href="#DejaVuSans-2e" x="508.837891"/>
     <use xlink:href="#DejaVuSans-33" x="540.625"/>
     <use xlink:href="#DejaVuSans-20" x="604.248047"/>
     <use xlink:href="#DejaVuSans-64" x="636.035156"/>
     <use xlink:href="#DejaVuSans-42" x="699.511719"/>
     <use xlink:href="#DejaVuSans-69" x="768.115234"/>
    </g>
    <!-- Pearson Coef: 0.212 -->
    <g transform="translate(384.8785 504.7735)scale(0.1 -0.1)">
     <defs>
      <path id="DejaVuSans-50" d="M 1259 4147 
L 1259 2394 
L 2053 2394 
Q 2494 2394 2734 2622 
Q 2975 2850 2975 3272 
Q 2975 3691 2734 3919 
Q 2494 4147 2053 4147 
L 1259 4147 
z
M 628 4666 
L 2053 4666 
Q 2838 4666 3239 4311 
Q 3641 3956 3641 3272 
Q 3641 2581 3239 2228 
Q 2838 1875 2053 1875 
L 1259 1875 
L 1259 0 
L 628 0 
L 628 4666 
z
" transform="scale(0.015625)"/>
      <path id="DejaVuSans-61" d="M 2194 1759 
Q 1497 1759 1228 1600 
Q 959 1441 959 1056 
Q 959 750 1161 570 
Q 1363 391 1709 391 
Q 2188 391 2477 730 
Q 2766 1069 2766 1631 
L 2766 1759 
L 2194 1759 
z
M 3341 1997 
L 3341 0 
L 2766 0 
L 2766 531 
Q 2569 213 2275 61 
Q 1981 -91 1556 -91 
Q 1019 -91 701 211 
Q 384 513 384 1019 
Q 384 1609 779 1909 
Q 1175 2209 1959 2209 
L 2766 2209 
L 2766 2266 
Q 2766 2663 2505 2880 
Q 2244 3097 1772 3097 
Q 1472 3097 1187 3025 
Q 903 2953 641 2809 
L 641 3341 
Q 956 3463 1253 3523 
Q 1550 3584 1831 3584 
Q 2591 3584 2966 3190 
Q 3341 2797 3341 1997 
z
" transform="scale(0.015625)"/>
      <path id="DejaVuSans-72" d="M 2631 2963 
Q 2534 3019 2420 3045 
Q 2306 3072 2169 3072 
Q 1681 3072 1420 2755 
Q 1159 2438 1159 1844 
L 1159 0 
L 581 0 
L 581 3500 
L 1159 3500 
L 1159 2956 
Q 1341 3275 1631 3429 
Q 1922 3584 2338 3584 
Q 2397 3584 2469 3576 
Q 2541 3569 2628 3553 
L 2631 2963 
z
" transform="scale(0.015625)"/>
      <path id="DejaVuSans-6f" d="M 1959 3097 
Q 1497 3097 1228 2736 
Q 959 2375 959 1747 
Q 959 1119 1226 758 
Q 1494 397 1959 397 
Q 2419 397 2687 759 
Q 2956 1122 2956 1747 
Q 2956 2369 2687 2733 
Q 2419 3097 1959 3097 
z
M 1959 3584 
Q 2709 3584 3137 3096 
Q 3566 2609 3566 1747 
Q 3566 888 3137 398 
Q 2709 -91 1959 -91 
Q 1206 -91 779 398 
Q 353 888 353 1747 
Q 353 2609 779 3096 
Q 1206 3584 1959 3584 
z
" transform="scale(0.015625)"/>
      <path id="DejaVuSans-43" d="M 4122 4306 
L 4122 3641 
Q 3803 3938 3442 4084 
Q 3081 4231 2675 4231 
Q 1875 4231 1450 3742 
Q 1025 3253 1025 2328 
Q 1025 1406 1450 917 
Q 1875 428 2675 428 
Q 3081 428 3442 575 
Q 3803 722 4122 1019 
L 4122 359 
Q 3791 134 3420 21 
Q 3050 -91 2638 -91 
Q 1578 -91 968 557 
Q 359 1206 359 2328 
Q 359 3453 968 4101 
Q 1578 4750 2638 4750 
Q 3056 4750 3426 4639 
Q 3797 4528 4122 4306 
z
" transform="scale(0.015625)"/>
      <path id="DejaVuSans-66" d="M 2375 4863 
L 2375 4384 
L 1825 4384 
Q 1516 4384 1395 4259 
Q 1275 4134 1275 3809 
L 1275 3500 
L 2222 3500 
L 2222 3053 
L 1275 3053 
L 1275 0 
L 697 0 
L 697 3053 
L 147 3053 
L 147 3500 
L 697 3500 
L 697 3744 
Q 697 4328 969 4595 
Q 1241 4863 1831 4863 
L 2375 4863 
z
" transform="scale(0.015625)"/>
     </defs>
     <use xlink:href="#DejaVuSans-50"/>
     <use xlink:href="#DejaVuSans-65" x="56.677734"/>
     <use xlink:href="#DejaVuSans-61" x="118.201172"/>
     <use xlink:href="#DejaVuSans-72" x="179.480469"/>
     <use xlink:href="#DejaVuSans-73" x="220.59375"/>
     <use xlink:href="#DejaVuSans-6f" x="272.693359"/>
     <use xlink:href="#DejaVuSans-6e" x="333.875"/>
     <use xlink:href="#DejaVuSans-20" x="397.253906"/>
     <use xlink:href="#DejaVuSans-43" x="429.041016"/>
     <use xlink:href="#DejaVuSans-6f" x="498.865234"/>
     <use xlink:href="#DejaVuSans-65" x="560.046875"/>
     <use xlink:href="#DejaVuSans-66" x="621.570312"/>
     <use xlink:href="#DejaVuSans-3a" x="653.150391"/>
     <use xlink:href="#DejaVuSans-20" x="686.841797"/>
     <use xlink:href="#DejaVuSans-30" x="718.628906"/>
     <use xlink:href="#DejaVuSans-2e" x="782.251953"/>
     <use xlink:href="#DejaVuSans-32" x="814.039062"/>
     <use xlink:href="#DejaVuSans-31" x="877.662109"/>
     <use xlink:href="#DejaVuSans-32" x="941.285156"/>
    </g>
   </g>
   <g id="text_16">
    <g id="patch_5">
     <path d="M 52.2385 56.370938 
L 121.861 56.370938 
Q 125.461 56.370938 125.461 52.770938 
L 125.461 41.157188 
Q 125.461 37.557188 121.861 37.557188 
L 52.2385 37.557188 
Q 48.6385 37.557188 48.6385 41.157188 
L 48.6385 52.770938 
Q 48.6385 56.370938 52.2385 56.370938 
z
" style="fill: #ffffff; stroke: #808080; stroke-linejoin: miter"/>
    </g>
    <!-- Freq: 8 GHz -->
    <g transform="translate(52.2385 50.275313)scale(0.12 -0.12)">
     <defs>
      <path id="DejaVuSans-46" d="M 628 4666 
L 3309 4666 
L 3309 4134 
L 1259 4134 
L 1259 2759 
L 3109 2759 
L 3109 2228 
L 1259 2228 
L 1259 0 
L 628 0 
L 628 4666 
z
" transform="scale(0.015625)"/>
      <path id="DejaVuSans-71" d="M 947 1747 
Q 947 1113 1208 752 
Q 1469 391 1925 391 
Q 2381 391 2643 752 
Q 2906 1113 2906 1747 
Q 2906 2381 2643 2742 
Q 2381 3103 1925 3103 
Q 1469 3103 1208 2742 
Q 947 2381 947 1747 
z
M 2906 525 
Q 2725 213 2448 61 
Q 2172 -91 1784 -91 
Q 1150 -91 751 415 
Q 353 922 353 1747 
Q 353 2572 751 3078 
Q 1150 3584 1784 3584 
Q 2172 3584 2448 3432 
Q 2725 3281 2906 2969 
L 2906 3500 
L 3481 3500 
L 3481 -1331 
L 2906 -1331 
L 2906 525 
z
" transform="scale(0.015625)"/>
      <path id="DejaVuSans-48" d="M 628 4666 
L 1259 4666 
L 1259 2753 
L 3553 2753 
L 3553 4666 
L 4184 4666 
L 4184 0 
L 3553 0 
L 3553 2222 
L 1259 2222 
L 1259 0 
L 628 0 
L 628 4666 
z
" transform="scale(0.015625)"/>
      <path id="DejaVuSans-7a" d="M 353 3500 
L 3084 3500 
L 3084 2975 
L 922 459 
L 3084 459 
L 3084 0 
L 275 0 
L 275 525 
L 2438 3041 
L 353 3041 
L 353 3500 
z
" transform="scale(0.015625)"/>
     </defs>
     <use xlink:href="#DejaVuSans-46"/>
     <use xlink:href="#DejaVuSans-72" x="50.269531"/>
     <use xlink:href="#DejaVuSans-65" x="89.132812"/>
     <use xlink:href="#DejaVuSans-71" x="150.65625"/>
     <use xlink:href="#DejaVuSans-3a" x="214.132812"/>
     <use xlink:href="#DejaVuSans-20" x="247.824219"/>
     <use xlink:href="#DejaVuSans-38" x="279.611328"/>
     <use xlink:href="#DejaVuSans-20" x="343.234375"/>
     <use xlink:href="#DejaVuSans-47" x="375.021484"/>
     <use xlink:href="#DejaVuSans-48" x="452.511719"/>
     <use xlink:href="#DejaVuSans-7a" x="527.707031"/>
    </g>
   </g>
   <g id="text_17">
    <!-- Radiation Diagram - 1AVVF08 -->
    <g transform="translate(162.985938 16.318125)scale(0.12 -0.12)">
     <defs>
      <path id="DejaVuSans-52" d="M 2841 2188 
Q 3044 2119 3236 1894 
Q 3428 1669 3622 1275 
L 4263 0 
L 3584 0 
L 2988 1197 
Q 2756 1666 2539 1819 
Q 2322 1972 1947 1972 
L 1259 1972 
L 1259 0 
L 628 0 
L 628 4666 
L 2053 4666 
Q 2853 4666 3247 4331 
Q 3641 3997 3641 3322 
Q 3641 2881 3436 2590 
Q 3231 2300 2841 2188 
z
M 1259 4147 
L 1259 2491 
L 2053 2491 
Q 2509 2491 2742 2702 
Q 2975 2913 2975 3322 
Q 2975 3731 2742 3939 
Q 2509 4147 2053 4147 
L 1259 4147 
z
" transform="scale(0.015625)"/>
      <path id="DejaVuSans-44" d="M 1259 4147 
L 1259 519 
L 2022 519 
Q 2988 519 3436 956 
Q 3884 1394 3884 2338 
Q 3884 3275 3436 3711 
Q 2988 4147 2022 4147 
L 1259 4147 
z
M 628 4666 
L 1925 4666 
Q 3281 4666 3915 4102 
Q 4550 3538 4550 2338 
Q 4550 1131 3912 565 
Q 3275 0 1925 0 
L 628 0 
L 628 4666 
z
" transform="scale(0.015625)"/>
      <path id="DejaVuSans-67" d="M 2906 1791 
Q 2906 2416 2648 2759 
Q 2391 3103 1925 3103 
Q 1463 3103 1205 2759 
Q 947 2416 947 1791 
Q 947 1169 1205 825 
Q 1463 481 1925 481 
Q 2391 481 2648 825 
Q 2906 1169 2906 1791 
z
M 3481 434 
Q 3481 -459 3084 -895 
Q 2688 -1331 1869 -1331 
Q 1566 -1331 1297 -1286 
Q 1028 -1241 775 -1147 
L 775 -588 
Q 1028 -725 1275 -790 
Q 1522 -856 1778 -856 
Q 2344 -856 2625 -561 
Q 2906 -266 2906 331 
L 2906 616 
Q 2728 306 2450 153 
Q 2172 0 1784 0 
Q 1141 0 747 490 
Q 353 981 353 1791 
Q 353 2603 747 3093 
Q 1141 3584 1784 3584 
Q 2172 3584 2450 3431 
Q 2728 3278 2906 2969 
L 2906 3500 
L 3481 3500 
L 3481 434 
z
" transform="scale(0.015625)"/>
      <path id="DejaVuSans-6d" d="M 3328 2828 
Q 3544 3216 3844 3400 
Q 4144 3584 4550 3584 
Q 5097 3584 5394 3201 
Q 5691 2819 5691 2113 
L 5691 0 
L 5113 0 
L 5113 2094 
Q 5113 2597 4934 2840 
Q 4756 3084 4391 3084 
Q 3944 3084 3684 2787 
Q 3425 2491 3425 1978 
L 3425 0 
L 2847 0 
L 2847 2094 
Q 2847 2600 2669 2842 
Q 2491 3084 2119 3084 
Q 1678 3084 1418 2786 
Q 1159 2488 1159 1978 
L 1159 0 
L 581 0 
L 581 3500 
L 1159 3500 
L 1159 2956 
Q 1356 3278 1631 3431 
Q 1906 3584 2284 3584 
Q 2666 3584 2933 3390 
Q 3200 3197 3328 2828 
z
" transform="scale(0.015625)"/>
      <path id="DejaVuSans-41" d="M 2188 4044 
L 1331 1722 
L 3047 1722 
L 2188 4044 
z
M 1831 4666 
L 2547 4666 
L 4325 0 
L 3669 0 
L 3244 1197 
L 1141 1197 
L 716 0 
L 50 0 
L 1831 4666 
z
" transform="scale(0.015625)"/>
      <path id="DejaVuSans-56" d="M 1831 0 
L 50 4666 
L 709 4666 
L 2188 738 
L 3669 4666 
L 4325 4666 
L 2547 0 
L 1831 0 
z
" transform="scale(0.015625)"/>
     </defs>
     <use xlink:href="#DejaVuSans-52"/>
     <use xlink:href="#DejaVuSans-61" x="67.232422"/>
     <use xlink:href="#DejaVuSans-64" x="128.511719"/>
     <use xlink:href="#DejaVuSans-69" x="191.988281"/>
     <use xlink:href="#DejaVuSans-61" x="219.771484"/>
     <use xlink:href="#DejaVuSans-74" x="281.050781"/>
     <use xlink:href="#DejaVuSans-69" x="320.259766"/>
     <use xlink:href="#DejaVuSans-6f" x="348.042969"/>
     <use xlink:href="#DejaVuSans-6e" x="409.224609"/>
     <use xlink:href="#DejaVuSans-20" x="472.603516"/>
     <use xlink:href="#DejaVuSans-44" x="504.390625"/>
     <use xlink:href="#DejaVuSans-69" x="581.392578"/>
     <use xlink:href="#DejaVuSans-61" x="609.175781"/>
     <use xlink:href="#DejaVuSans-67" x="670.455078"/>
     <use xlink:href="#DejaVuSans-72" x="733.931641"/>
     <use xlink:href="#DejaVuSans-61" x="775.044922"/>
     <use xlink:href="#DejaVuSans-6d" x="836.324219"/>
     <use xlink:href="#DejaVuSans-20" x="933.736328"/>
     <use xlink:href="#DejaVuSans-2d" x="965.523438"/>
     <use xlink:href="#DejaVuSans-20" x="1001.607422"/>
     <use xlink:href="#DejaVuSans-31" x="1033.394531"/>
     <use xlink:href="#DejaVuSans-41" x="1097.017578"/>
     <use xlink:href="#DejaVuSans-56" x="1159.050781"/>
     <use xlink:href="#DejaVuSans-56" x="1227.458984"/>
     <use xlink:href="#DejaVuSans-46" x="1295.867188"/>
     <use xlink:href="#DejaVuSans-30" x="1353.386719"/>
     <use xlink:href="#DejaVuSans-38" x="1417.009766"/>
    </g>
   </g>
   <g id="legend_1">
    <g id="patch_6">
     <path d="M 411.802813 78.513438 
L 466.5825 78.513438 
Q 468.5825 78.513438 468.5825 76.513438 
L 468.5825 48.157188 
Q 468.5825 46.157188 466.5825 46.157188 
L 411.802813 46.157188 
Q 409.802813 46.157188 409.802813 48.157188 
L 409.802813 76.513438 
Q 409.802813 78.513438 411.802813 78.513438 
z
" style="fill: #ffffff; opacity: 0.8; stroke: #cccccc; stroke-linejoin: miter"/>
    </g>
    <g id="line2d_17">
     <path d="M 413.802813 54.255625 
L 423.802813 54.255625 
L 433.802813 54.255625 
" style="fill: none; stroke: #ff0000; stroke-width: 1.5; stroke-linecap: square"/>
    </g>
    <g id="text_18">
     <!-- INPE -->
     <g transform="translate(441.802813 57.755625)scale(0.1 -0.1)">
      <defs>
       <path id="DejaVuSans-49" d="M 628 4666 
L 1259 4666 
L 1259 0 
L 628 0 
L 628 4666 
z
" transform="scale(0.015625)"/>
       <path id="DejaVuSans-4e" d="M 628 4666 
L 1478 4666 
L 3547 763 
L 3547 4666 
L 4159 4666 
L 4159 0 
L 3309 0 
L 1241 3903 
L 1241 0 
L 628 0 
L 628 4666 
z
" transform="scale(0.015625)"/>
       <path id="DejaVuSans-45" d="M 628 4666 
L 3578 4666 
L 3578 4134 
L 1259 4134 
L 1259 2753 
L 3481 2753 
L 3481 2222 
L 1259 2222 
L 1259 531 
L 3634 531 
L 3634 0 
L 628 0 
L 628 4666 
z
" transform="scale(0.015625)"/>
      </defs>
      <use xlink:href="#DejaVuSans-49"/>
      <use xlink:href="#DejaVuSans-4e" x="29.492188"/>
      <use xlink:href="#DejaVuSans-50" x="104.296875"/>
      <use xlink:href="#DejaVuSans-45" x="164.599609"/>
     </g>
    </g>
    <g id="line2d_18">
     <path d="M 413.802813 68.93375 
L 423.802813 68.93375 
L 433.802813 68.93375 
" style="fill: none; stroke-dasharray: 5.55,2.4; stroke-dashoffset: 0; stroke: #0000ff; stroke-width: 1.5"/>
    </g>
    <g id="text_19">
     <!-- CST -->
     <g transform="translate(441.802813 72.43375)scale(0.1 -0.1)">
      <defs>
       <path id="DejaVuSans-53" d="M 3425 4513 
L 3425 3897 
Q 3066 4069 2747 4153 
Q 2428 4238 2131 4238 
Q 1616 4238 1336 4038 
Q 1056 3838 1056 3469 
Q 1056 3159 1242 3001 
Q 1428 2844 1947 2747 
L 2328 2669 
Q 3034 2534 3370 2195 
Q 3706 1856 3706 1288 
Q 3706 609 3251 259 
Q 2797 -91 1919 -91 
Q 1588 -91 1214 -16 
Q 841 59 441 206 
L 441 856 
Q 825 641 1194 531 
Q 1563 422 1919 422 
Q 2459 422 2753 634 
Q 3047 847 3047 1241 
Q 3047 1584 2836 1778 
Q 2625 1972 2144 2069 
L 1759 2144 
Q 1053 2284 737 2584 
Q 422 2884 422 3419 
Q 422 4038 858 4394 
Q 1294 4750 2059 4750 
Q 2388 4750 2728 4690 
Q 3069 4631 3425 4513 
z
" transform="scale(0.015625)"/>
       <path id="DejaVuSans-54" d="M -19 4666 
L 3928 4666 
L 3928 4134 
L 2272 4134 
L 2272 0 
L 1638 0 
L 1638 4134 
L -19 4134 
L -19 4666 
z
" transform="scale(0.015625)"/>
      </defs>
      <use xlink:href="#DejaVuSans-43"/>
      <use xlink:href="#DejaVuSans-53" x="69.824219"/>
      <use xlink:href="#DejaVuSans-54" x="133.300781"/>
     </g>
    </g>
   </g>
  </g>
 </g>
 <defs>
  <clipPath id="pf61cb46620">
   <path d="M 473.5825 262.917188 
C 473.5825 233.795931 467.846247 204.957842 456.702025 178.05331 
C 445.557803 151.148777 429.222338 126.701026 408.6305 106.109188 
C 388.038662 85.51735 363.590911 69.181885 336.686378 58.037662 
C 309.781845 46.89344 280.943756 41.157188 251.8225 41.157188 
C 222.701244 41.157188 193.863155 46.89344 166.958622 58.037662 
C 140.054089 69.181885 115.606338 85.51735 95.0145 106.109188 
C 74.422662 126.701026 58.087197 151.148777 46.942975 178.05331 
C 35.798753 204.957842 30.0625 233.795931 30.0625 262.917188 
C 30.0625 292.038444 35.798753 320.876533 46.942975 347.781065 
C 58.087197 374.685598 74.422662 399.133349 95.0145 419.725187 
C 115.606338 440.317025 140.054089 456.65249 166.958622 467.796713 
C 193.863155 478.940935 222.701244 484.677188 251.8225 484.677188 
C 280.943756 484.677188 309.781845 478.940935 336.686378 467.796713 
C 363.590911 456.65249 388.038662 440.317025 408.6305 419.725187 
C 429.222338 399.133349 445.557803 374.685598 456.702025 347.781065 
C 467.846247 320.876533 473.5825 292.038444 473.5825 262.917188 
M 251.8225 262.917188 
C 251.8225 262.917188 251.8225 262.917188 251.8225 262.917188 
C 251.8225 262.917188 251.8225 262.917188 251.8225 262.917188 
C 251.8225 262.917188 251.8225 262.917188 251.8225 262.917188 
C 251.8225 262.917188 251.8225 262.917188 251.8225 262.917188 
C 251.8225 262.917188 251.8225 262.917188 251.8225 262.917188 
C 251.8225 262.917188 251.8225 262.917188 251.8225 262.917188 
C 251.8225 262.917188 251.8225 262.917188 251.8225 262.917188 
C 251.8225 262.917188 251.8225 262.917188 251.8225 262.917188 
C 251.8225 262.917188 251.8225 262.917188 251.8225 262.917188 
C 251.8225 262.917188 251.8225 262.917188 251.8225 262.917188 
C 251.8225 262.917188 251.8225 262.917188 251.8225 262.917188 
C 251.8225 262.917188 251.8225 262.917188 251.8225 262.917188 
C 251.8225 262.917188 251.8225 262.917188 251.8225 262.917188 
C 251.8225 262.917188 251.8225 262.917188 251.8225 262.917188 
C 251.8225 262.917188 251.8225 262.917188 251.8225 262.917188 
C 251.8225 262.917188 251.8225 262.917188 251.8225 262.917188 
M 473.5825 262.917188 
z
"/>
  </clipPath>
 </defs>
</svg>
