<?xml version="1.0" encoding="utf-8" standalone="no"?>
<!DOCTYPE svg PUBLIC "-//W3C//DTD SVG 1.1//EN"
  "http://www.w3.org/Graphics/SVG/1.1/DTD/svg11.dtd">
<svg xmlns:xlink="http://www.w3.org/1999/xlink" width="506.82625pt" height="514.053188pt" viewBox="0 0 506.82625 514.053188" xmlns="http://www.w3.org/2000/svg" version="1.1">
 <metadata>
  <rdf:RDF xmlns:dc="http://purl.org/dc/elements/1.1/" xmlns:cc="http://creativecommons.org/ns#" xmlns:rdf="http://www.w3.org/1999/02/22-rdf-syntax-ns#">
   <cc:Work>
    <dc:type rdf:resource="http://purl.org/dc/dcmitype/StillImage"/>
    <dc:date>2024-01-27T17:20:29.888525</dc:date>
    <dc:format>image/svg+xml</dc:format>
    <dc:creator>
     <cc:Agent>
      <dc:title>Matplotlib v3.5.1, https://matplotlib.org/</dc:title>
     </cc:Agent>
    </dc:creator>
   </cc:Work>
  </rdf:RDF>
 </metadata>
 <defs>
  <style type="text/css">*{stroke-linejoin: round; stroke-linecap: butt}</style>
 </defs>
 <g id="figure_1">
  <g id="patch_1">
   <path d="M 0 514.053188 
L 506.82625 514.053188 
L 506.82625 0 
L 0 0 
z
" style="fill: #ffffff"/>
  </g>
  <g id="axes_1">
   <g id="patch_2">
    <path d="M 473.5825 262.917188 
C 473.5825 233.795931 467.846247 204.957842 456.702025 178.05331 
C 445.557803 151.148777 429.222338 126.701026 408.6305 106.109188 
C 388.038662 85.51735 363.590911 69.181885 336.686378 58.037662 
C 309.781845 46.89344 280.943756 41.157188 251.8225 41.157188 
C 222.701244 41.157188 193.863155 46.89344 166.958622 58.037662 
C 140.054089 69.181885 115.606338 85.51735 95.0145 106.109188 
C 74.422662 126.701026 58.087197 151.148777 46.942975 178.05331 
C 35.798753 204.957842 30.0625 233.795931 30.0625 262.917188 
C 30.0625 292.038444 35.798753 320.876533 46.942975 347.781065 
C 58.087197 374.685598 74.422662 399.133349 95.0145 419.725187 
C 115.606338 440.317025 140.054089 456.65249 166.958622 467.796713 
C 193.863155 478.940935 222.701244 484.677188 251.8225 484.677188 
C 280.943756 484.677188 309.781845 478.940935 336.686378 467.796713 
C 363.590911 456.65249 388.038662 440.317025 408.6305 419.725187 
C 429.222338 399.133349 445.557803 374.685598 456.702025 347.781065 
C 467.846247 320.876533 473.5825 292.038444 473.5825 262.917188 
M 251.8225 262.917188 
C 251.8225 262.917188 251.8225 262.917188 251.8225 262.917188 
C 251.8225 262.917188 251.8225 262.917188 251.8225 262.917188 
C 251.8225 262.917188 251.8225 262.917188 251.8225 262.917188 
C 251.8225 262.917188 251.8225 262.917188 251.8225 262.917188 
C 251.8225 262.917188 251.8225 262.917188 251.8225 262.917188 
C 251.8225 262.917188 251.8225 262.917188 251.8225 262.917188 
C 251.8225 262.917188 251.8225 262.917188 251.8225 262.917188 
C 251.8225 262.917188 251.8225 262.917188 251.8225 262.917188 
C 251.8225 262.917188 251.8225 262.917188 251.8225 262.917188 
C 251.8225 262.917188 251.8225 262.917188 251.8225 262.917188 
C 251.8225 262.917188 251.8225 262.917188 251.8225 262.917188 
C 251.8225 262.917188 251.8225 262.917188 251.8225 262.917188 
C 251.8225 262.917188 251.8225 262.917188 251.8225 262.917188 
C 251.8225 262.917188 251.8225 262.917188 251.8225 262.917188 
C 251.8225 262.917188 251.8225 262.917188 251.8225 262.917188 
C 251.8225 262.917188 251.8225 262.917188 251.8225 262.917188 
M 473.5825 262.917188 
z
" style="fill: #ffffff"/>
   </g>
   <g id="matplotlib.axis_1">
    <g id="xtick_1">
     <g id="line2d_1">
      <path d="M 251.8225 262.917188 
L 251.8225 41.157188 
" clip-path="url(#p2a90d20ba9)" style="fill: none; stroke: #b0b0b0; stroke-width: 0.8; stroke-linecap: square"/>
     </g>
     <g id="text_1">
      <!-- 0° -->
      <g transform="translate(246.14125 29.916563)scale(0.1 -0.1)">
       <defs>
        <path id="DejaVuSans-30" d="M 2034 4250 
Q 1547 4250 1301 3770 
Q 1056 3291 1056 2328 
Q 1056 1369 1301 889 
Q 1547 409 2034 409 
Q 2525 409 2770 889 
Q 3016 1369 3016 2328 
Q 3016 3291 2770 3770 
Q 2525 4250 2034 4250 
z
M 2034 4750 
Q 2819 4750 3233 4129 
Q 3647 3509 3647 2328 
Q 3647 1150 3233 529 
Q 2819 -91 2034 -91 
Q 1250 -91 836 529 
Q 422 1150 422 2328 
Q 422 3509 836 4129 
Q 1250 4750 2034 4750 
z
" transform="scale(0.015625)"/>
        <path id="DejaVuSans-b0" d="M 1600 4347 
Q 1350 4347 1178 4173 
Q 1006 4000 1006 3750 
Q 1006 3503 1178 3333 
Q 1350 3163 1600 3163 
Q 1850 3163 2022 3333 
Q 2194 3503 2194 3750 
Q 2194 3997 2020 4172 
Q 1847 4347 1600 4347 
z
M 1600 4750 
Q 1800 4750 1984 4673 
Q 2169 4597 2303 4453 
Q 2447 4313 2519 4134 
Q 2591 3956 2591 3750 
Q 2591 3338 2302 3052 
Q 2013 2766 1594 2766 
Q 1172 2766 890 3047 
Q 609 3328 609 3750 
Q 609 4169 896 4459 
Q 1184 4750 1600 4750 
z
" transform="scale(0.015625)"/>
       </defs>
       <use xlink:href="#DejaVuSans-30"/>
       <use xlink:href="#DejaVuSans-b0" x="63.623047"/>
      </g>
     </g>
    </g>
    <g id="xtick_2">
     <g id="line2d_2">
      <path d="M 251.8225 262.917188 
L 95.0145 106.109188 
" clip-path="url(#p2a90d20ba9)" style="fill: none; stroke: #b0b0b0; stroke-width: 0.8; stroke-linecap: square"/>
     </g>
     <g id="text_2">
      <!-- 45° -->
      <g transform="translate(76.252505 98.969068)scale(0.1 -0.1)">
       <defs>
        <path id="DejaVuSans-34" d="M 2419 4116 
L 825 1625 
L 2419 1625 
L 2419 4116 
z
M 2253 4666 
L 3047 4666 
L 3047 1625 
L 3713 1625 
L 3713 1100 
L 3047 1100 
L 3047 0 
L 2419 0 
L 2419 1100 
L 313 1100 
L 313 1709 
L 2253 4666 
z
" transform="scale(0.015625)"/>
        <path id="DejaVuSans-35" d="M 691 4666 
L 3169 4666 
L 3169 4134 
L 1269 4134 
L 1269 2991 
Q 1406 3038 1543 3061 
Q 1681 3084 1819 3084 
Q 2600 3084 3056 2656 
Q 3513 2228 3513 1497 
Q 3513 744 3044 326 
Q 2575 -91 1722 -91 
Q 1428 -91 1123 -41 
Q 819 9 494 109 
L 494 744 
Q 775 591 1075 516 
Q 1375 441 1709 441 
Q 2250 441 2565 725 
Q 2881 1009 2881 1497 
Q 2881 1984 2565 2268 
Q 2250 2553 1709 2553 
Q 1456 2553 1204 2497 
Q 953 2441 691 2322 
L 691 4666 
z
" transform="scale(0.015625)"/>
       </defs>
       <use xlink:href="#DejaVuSans-34"/>
       <use xlink:href="#DejaVuSans-35" x="63.623047"/>
       <use xlink:href="#DejaVuSans-b0" x="127.246094"/>
      </g>
     </g>
    </g>
    <g id="xtick_3">
     <g id="line2d_3">
      <path d="M 251.8225 262.917188 
L 30.0625 262.917188 
" clip-path="url(#p2a90d20ba9)" style="fill: none; stroke: #b0b0b0; stroke-width: 0.8; stroke-linecap: square"/>
     </g>
     <g id="text_3">
      <!-- 90° -->
      <g transform="translate(7.2 265.676563)scale(0.1 -0.1)">
       <defs>
        <path id="DejaVuSans-39" d="M 703 97 
L 703 672 
Q 941 559 1184 500 
Q 1428 441 1663 441 
Q 2288 441 2617 861 
Q 2947 1281 2994 2138 
Q 2813 1869 2534 1725 
Q 2256 1581 1919 1581 
Q 1219 1581 811 2004 
Q 403 2428 403 3163 
Q 403 3881 828 4315 
Q 1253 4750 1959 4750 
Q 2769 4750 3195 4129 
Q 3622 3509 3622 2328 
Q 3622 1225 3098 567 
Q 2575 -91 1691 -91 
Q 1453 -91 1209 -44 
Q 966 3 703 97 
z
M 1959 2075 
Q 2384 2075 2632 2365 
Q 2881 2656 2881 3163 
Q 2881 3666 2632 3958 
Q 2384 4250 1959 4250 
Q 1534 4250 1286 3958 
Q 1038 3666 1038 3163 
Q 1038 2656 1286 2365 
Q 1534 2075 1959 2075 
z
" transform="scale(0.015625)"/>
       </defs>
       <use xlink:href="#DejaVuSans-39"/>
       <use xlink:href="#DejaVuSans-30" x="63.623047"/>
       <use xlink:href="#DejaVuSans-b0" x="127.246094"/>
      </g>
     </g>
    </g>
    <g id="xtick_4">
     <g id="line2d_4">
      <path d="M 251.8225 262.917188 
L 95.0145 419.725187 
" clip-path="url(#p2a90d20ba9)" style="fill: none; stroke: #b0b0b0; stroke-width: 0.8; stroke-linecap: square"/>
     </g>
     <g id="text_4">
      <!-- 135° -->
      <g transform="translate(73.071255 432.384057)scale(0.1 -0.1)">
       <defs>
        <path id="DejaVuSans-31" d="M 794 531 
L 1825 531 
L 1825 4091 
L 703 3866 
L 703 4441 
L 1819 4666 
L 2450 4666 
L 2450 531 
L 3481 531 
L 3481 0 
L 794 0 
L 794 531 
z
" transform="scale(0.015625)"/>
        <path id="DejaVuSans-33" d="M 2597 2516 
Q 3050 2419 3304 2112 
Q 3559 1806 3559 1356 
Q 3559 666 3084 287 
Q 2609 -91 1734 -91 
Q 1441 -91 1130 -33 
Q 819 25 488 141 
L 488 750 
Q 750 597 1062 519 
Q 1375 441 1716 441 
Q 2309 441 2620 675 
Q 2931 909 2931 1356 
Q 2931 1769 2642 2001 
Q 2353 2234 1838 2234 
L 1294 2234 
L 1294 2753 
L 1863 2753 
Q 2328 2753 2575 2939 
Q 2822 3125 2822 3475 
Q 2822 3834 2567 4026 
Q 2313 4219 1838 4219 
Q 1578 4219 1281 4162 
Q 984 4106 628 3988 
L 628 4550 
Q 988 4650 1302 4700 
Q 1616 4750 1894 4750 
Q 2613 4750 3031 4423 
Q 3450 4097 3450 3541 
Q 3450 3153 3228 2886 
Q 3006 2619 2597 2516 
z
" transform="scale(0.015625)"/>
       </defs>
       <use xlink:href="#DejaVuSans-31"/>
       <use xlink:href="#DejaVuSans-33" x="63.623047"/>
       <use xlink:href="#DejaVuSans-35" x="127.246094"/>
       <use xlink:href="#DejaVuSans-b0" x="190.869141"/>
      </g>
     </g>
    </g>
    <g id="xtick_5">
     <g id="line2d_5">
      <path d="M 251.8225 262.917188 
L 251.8225 484.677188 
" clip-path="url(#p2a90d20ba9)" style="fill: none; stroke: #b0b0b0; stroke-width: 0.8; stroke-linecap: square"/>
     </g>
     <g id="text_5">
      <!-- 180° -->
      <g transform="translate(239.77875 501.436563)scale(0.1 -0.1)">
       <defs>
        <path id="DejaVuSans-38" d="M 2034 2216 
Q 1584 2216 1326 1975 
Q 1069 1734 1069 1313 
Q 1069 891 1326 650 
Q 1584 409 2034 409 
Q 2484 409 2743 651 
Q 3003 894 3003 1313 
Q 3003 1734 2745 1975 
Q 2488 2216 2034 2216 
z
M 1403 2484 
Q 997 2584 770 2862 
Q 544 3141 544 3541 
Q 544 4100 942 4425 
Q 1341 4750 2034 4750 
Q 2731 4750 3128 4425 
Q 3525 4100 3525 3541 
Q 3525 3141 3298 2862 
Q 3072 2584 2669 2484 
Q 3125 2378 3379 2068 
Q 3634 1759 3634 1313 
Q 3634 634 3220 271 
Q 2806 -91 2034 -91 
Q 1263 -91 848 271 
Q 434 634 434 1313 
Q 434 1759 690 2068 
Q 947 2378 1403 2484 
z
M 1172 3481 
Q 1172 3119 1398 2916 
Q 1625 2713 2034 2713 
Q 2441 2713 2670 2916 
Q 2900 3119 2900 3481 
Q 2900 3844 2670 4047 
Q 2441 4250 2034 4250 
Q 1625 4250 1398 4047 
Q 1172 3844 1172 3481 
z
" transform="scale(0.015625)"/>
       </defs>
       <use xlink:href="#DejaVuSans-31"/>
       <use xlink:href="#DejaVuSans-38" x="63.623047"/>
       <use xlink:href="#DejaVuSans-30" x="127.246094"/>
       <use xlink:href="#DejaVuSans-b0" x="190.869141"/>
      </g>
     </g>
    </g>
    <g id="xtick_6">
     <g id="line2d_6">
      <path d="M 251.8225 262.917188 
L 408.6305 419.725187 
" clip-path="url(#p2a90d20ba9)" style="fill: none; stroke: #b0b0b0; stroke-width: 0.8; stroke-linecap: square"/>
     </g>
     <g id="text_6">
      <!-- 225° -->
      <g transform="translate(406.486245 432.384057)scale(0.1 -0.1)">
       <defs>
        <path id="DejaVuSans-32" d="M 1228 531 
L 3431 531 
L 3431 0 
L 469 0 
L 469 531 
Q 828 903 1448 1529 
Q 2069 2156 2228 2338 
Q 2531 2678 2651 2914 
Q 2772 3150 2772 3378 
Q 2772 3750 2511 3984 
Q 2250 4219 1831 4219 
Q 1534 4219 1204 4116 
Q 875 4013 500 3803 
L 500 4441 
Q 881 4594 1212 4672 
Q 1544 4750 1819 4750 
Q 2544 4750 2975 4387 
Q 3406 4025 3406 3419 
Q 3406 3131 3298 2873 
Q 3191 2616 2906 2266 
Q 2828 2175 2409 1742 
Q 1991 1309 1228 531 
z
" transform="scale(0.015625)"/>
       </defs>
       <use xlink:href="#DejaVuSans-32"/>
       <use xlink:href="#DejaVuSans-32" x="63.623047"/>
       <use xlink:href="#DejaVuSans-35" x="127.246094"/>
       <use xlink:href="#DejaVuSans-b0" x="190.869141"/>
      </g>
     </g>
    </g>
    <g id="xtick_7">
     <g id="line2d_7">
      <path d="M 251.8225 262.917188 
L 473.5825 262.917188 
" clip-path="url(#p2a90d20ba9)" style="fill: none; stroke: #b0b0b0; stroke-width: 0.8; stroke-linecap: square"/>
     </g>
     <g id="text_7">
      <!-- 270° -->
      <g transform="translate(475.53875 265.676563)scale(0.1 -0.1)">
       <defs>
        <path id="DejaVuSans-37" d="M 525 4666 
L 3525 4666 
L 3525 4397 
L 1831 0 
L 1172 0 
L 2766 4134 
L 525 4134 
L 525 4666 
z
" transform="scale(0.015625)"/>
       </defs>
       <use xlink:href="#DejaVuSans-32"/>
       <use xlink:href="#DejaVuSans-37" x="63.623047"/>
       <use xlink:href="#DejaVuSans-30" x="127.246094"/>
       <use xlink:href="#DejaVuSans-b0" x="190.869141"/>
      </g>
     </g>
    </g>
    <g id="xtick_8">
     <g id="line2d_8">
      <path d="M 251.8225 262.917188 
L 408.6305 106.109188 
" clip-path="url(#p2a90d20ba9)" style="fill: none; stroke: #b0b0b0; stroke-width: 0.8; stroke-linecap: square"/>
     </g>
     <g id="text_8">
      <!-- 315° -->
      <g transform="translate(406.486245 98.969068)scale(0.1 -0.1)">
       <use xlink:href="#DejaVuSans-33"/>
       <use xlink:href="#DejaVuSans-31" x="63.623047"/>
       <use xlink:href="#DejaVuSans-35" x="127.246094"/>
       <use xlink:href="#DejaVuSans-b0" x="190.869141"/>
      </g>
     </g>
    </g>
   </g>
   <g id="matplotlib.axis_2">
    <g id="ytick_1">
     <g id="line2d_9">
      <path d="M 251.8225 240.378977 
C 248.862809 240.378977 245.931898 240.961972 243.1975 242.094596 
C 240.463103 243.227221 237.978396 244.887449 235.885579 246.980266 
C 233.792761 249.073084 232.132534 251.55779 230.999909 254.292188 
C 229.867284 257.026585 229.28429 259.957497 229.28429 262.917188 
C 229.28429 265.876878 229.867284 268.80779 230.999909 271.542187 
C 232.132534 274.276585 233.792761 276.761291 235.885579 278.854109 
C 237.978396 280.946926 240.463103 282.607154 243.1975 283.739779 
C 245.931898 284.872403 248.862809 285.455398 251.8225 285.455398 
C 254.782191 285.455398 257.713102 284.872403 260.4475 283.739779 
C 263.181897 282.607154 265.666604 280.946926 267.759421 278.854109 
C 269.852239 276.761291 271.512466 274.276585 272.645091 271.542187 
C 273.777716 268.80779 274.36071 265.876878 274.36071 262.917188 
C 274.36071 259.957497 273.777716 257.026585 272.645091 254.292188 
C 271.512466 251.55779 269.852239 249.073084 267.759421 246.980266 
C 265.666604 244.887449 263.181897 243.227221 260.4475 242.094596 
C 257.713102 240.961972 254.782191 240.378977 251.8225 240.378977 
" clip-path="url(#p2a90d20ba9)" style="fill: none; stroke: #b0b0b0; stroke-width: 0.8; stroke-linecap: square"/>
     </g>
     <g id="text_9">
      <!-- −40 -->
      <g transform="translate(243.1975 240.014909)scale(0.1 -0.1)">
       <defs>
        <path id="DejaVuSans-2212" d="M 678 2272 
L 4684 2272 
L 4684 1741 
L 678 1741 
L 678 2272 
z
" transform="scale(0.015625)"/>
       </defs>
       <use xlink:href="#DejaVuSans-2212"/>
       <use xlink:href="#DejaVuSans-34" x="83.789062"/>
       <use xlink:href="#DejaVuSans-30" x="147.412109"/>
      </g>
     </g>
    </g>
    <g id="ytick_2">
     <g id="line2d_10">
      <path d="M 251.8225 215.476254 
C 245.592614 215.476254 239.423305 216.703405 233.667641 219.08748 
C 227.911976 221.471554 222.681889 224.966187 218.276694 229.371381 
C 213.871499 233.776576 210.376867 239.006664 207.992792 244.762328 
C 205.608718 250.517993 204.381566 256.687301 204.381566 262.917188 
C 204.381566 269.147074 205.608718 275.316382 207.992792 281.072047 
C 210.376867 286.827711 213.871499 292.057799 218.276694 296.462994 
C 222.681889 300.868188 227.911976 304.362821 233.667641 306.746895 
C 239.423305 309.13097 245.592614 310.358121 251.8225 310.358121 
C 258.052386 310.358121 264.221695 309.13097 269.977359 306.746895 
C 275.733024 304.362821 280.963111 300.868188 285.368306 296.462994 
C 289.773501 292.057799 293.268133 286.827711 295.652208 281.072047 
C 298.036282 275.316382 299.263434 269.147074 299.263434 262.917188 
C 299.263434 256.687301 298.036282 250.517993 295.652208 244.762328 
C 293.268133 239.006664 289.773501 233.776576 285.368306 229.371381 
C 280.963111 224.966187 275.733024 221.471554 269.977359 219.08748 
C 264.221695 216.703405 258.052386 215.476254 251.8225 215.476254 
" clip-path="url(#p2a90d20ba9)" style="fill: none; stroke: #b0b0b0; stroke-width: 0.8; stroke-linecap: square"/>
     </g>
     <g id="text_10">
      <!-- −35 -->
      <g transform="translate(233.667641 217.007792)scale(0.1 -0.1)">
       <use xlink:href="#DejaVuSans-2212"/>
       <use xlink:href="#DejaVuSans-33" x="83.789062"/>
       <use xlink:href="#DejaVuSans-35" x="147.412109"/>
      </g>
     </g>
    </g>
    <g id="ytick_3">
     <g id="line2d_11">
      <path d="M 251.8225 190.57353 
C 242.322418 190.57353 232.914712 192.444839 224.137781 196.080363 
C 215.360849 199.715887 207.385382 205.044924 200.667809 211.762497 
C 193.950237 218.480069 188.621199 226.455537 184.985675 235.232468 
C 181.350151 244.0094 179.478842 253.417105 179.478842 262.917188 
C 179.478842 272.41727 181.350151 281.824975 184.985675 290.601907 
C 188.621199 299.378838 193.950237 307.354306 200.667809 314.071878 
C 207.385382 320.789451 215.360849 326.118488 224.137781 329.754012 
C 232.914712 333.389536 242.322418 335.260845 251.8225 335.260845 
C 261.322582 335.260845 270.730288 333.389536 279.507219 329.754012 
C 288.284151 326.118488 296.259618 320.789451 302.977191 314.071878 
C 309.694763 307.354306 315.023801 299.378838 318.659325 290.601907 
C 322.294849 281.824975 324.166158 272.41727 324.166158 262.917188 
C 324.166158 253.417105 322.294849 244.0094 318.659325 235.232468 
C 315.023801 226.455537 309.694763 218.480069 302.977191 211.762497 
C 296.259618 205.044924 288.284151 199.715887 279.507219 196.080363 
C 270.730288 192.444839 261.322582 190.57353 251.8225 190.57353 
" clip-path="url(#p2a90d20ba9)" style="fill: none; stroke: #b0b0b0; stroke-width: 0.8; stroke-linecap: square"/>
     </g>
     <g id="text_11">
      <!-- −30 -->
      <g transform="translate(224.137781 194.000675)scale(0.1 -0.1)">
       <use xlink:href="#DejaVuSans-2212"/>
       <use xlink:href="#DejaVuSans-33" x="83.789062"/>
       <use xlink:href="#DejaVuSans-30" x="147.412109"/>
      </g>
     </g>
    </g>
    <g id="ytick_4">
     <g id="line2d_12">
      <path d="M 251.8225 165.670806 
C 239.052222 165.670806 226.406119 168.186272 214.607921 173.073246 
C 202.809723 177.96022 192.088874 185.123662 183.058924 194.153612 
C 174.028974 203.183562 166.865532 213.90441 161.978559 225.702609 
C 157.091585 237.500807 154.576119 250.14691 154.576119 262.917188 
C 154.576119 275.687465 157.091585 288.333568 161.978559 300.131766 
C 166.865532 311.929965 174.028974 322.650813 183.058924 331.680763 
C 192.088874 340.710713 202.809723 347.874155 214.607921 352.761129 
C 226.406119 357.648103 239.052222 360.163569 251.8225 360.163569 
C 264.592778 360.163569 277.238881 357.648103 289.037079 352.761129 
C 300.835277 347.874155 311.556126 340.710713 320.586076 331.680763 
C 329.616026 322.650813 336.779468 311.929965 341.666441 300.131766 
C 346.553415 288.333568 349.068881 275.687465 349.068881 262.917188 
C 349.068881 250.14691 346.553415 237.500807 341.666441 225.702609 
C 336.779468 213.90441 329.616026 203.183562 320.586076 194.153612 
C 311.556126 185.123662 300.835277 177.96022 289.037079 173.073246 
C 277.238881 168.186272 264.592778 165.670806 251.8225 165.670806 
" clip-path="url(#p2a90d20ba9)" style="fill: none; stroke: #b0b0b0; stroke-width: 0.8; stroke-linecap: square"/>
     </g>
     <g id="text_12">
      <!-- −25 -->
      <g transform="translate(214.607921 170.993559)scale(0.1 -0.1)">
       <use xlink:href="#DejaVuSans-2212"/>
       <use xlink:href="#DejaVuSans-32" x="83.789062"/>
       <use xlink:href="#DejaVuSans-35" x="147.412109"/>
      </g>
     </g>
    </g>
    <g id="ytick_5">
     <g id="line2d_13">
      <path d="M 251.8225 140.768082 
C 235.782026 140.768082 219.897526 143.927706 205.078061 150.066129 
C 190.258596 156.204553 176.792367 165.202399 165.450039 176.544727 
C 154.107712 187.887055 145.109865 201.353284 138.971442 216.172749 
C 132.833018 230.992214 129.673395 246.876714 129.673395 262.917188 
C 129.673395 278.957661 132.833018 294.842161 138.971442 309.661626 
C 145.109865 324.481091 154.107712 337.94732 165.450039 349.289648 
C 176.792367 360.631976 190.258596 369.629822 205.078061 375.768246 
C 219.897526 381.906669 235.782026 385.066293 251.8225 385.066293 
C 267.862974 385.066293 283.747474 381.906669 298.566939 375.768246 
C 313.386404 369.629822 326.852633 360.631976 338.194961 349.289648 
C 349.537288 337.94732 358.535135 324.481091 364.673558 309.661626 
C 370.811982 294.842161 373.971605 278.957661 373.971605 262.917188 
C 373.971605 246.876714 370.811982 230.992214 364.673558 216.172749 
C 358.535135 201.353284 349.537288 187.887055 338.194961 176.544727 
C 326.852633 165.202399 313.386404 156.204553 298.566939 150.066129 
C 283.747474 143.927706 267.862974 140.768082 251.8225 140.768082 
" clip-path="url(#p2a90d20ba9)" style="fill: none; stroke: #b0b0b0; stroke-width: 0.8; stroke-linecap: square"/>
     </g>
     <g id="text_13">
      <!-- −20 -->
      <g transform="translate(205.078061 147.986442)scale(0.1 -0.1)">
       <use xlink:href="#DejaVuSans-2212"/>
       <use xlink:href="#DejaVuSans-32" x="83.789062"/>
       <use xlink:href="#DejaVuSans-30" x="147.412109"/>
      </g>
     </g>
    </g>
    <g id="ytick_6">
     <g id="line2d_14">
      <path d="M 251.8225 115.865359 
C 232.511831 115.865359 213.388933 119.669139 195.548201 127.059013 
C 177.707469 134.448886 161.49586 145.281137 147.841155 158.935842 
C 134.18645 172.590547 123.354198 188.802157 115.964325 206.642889 
C 108.574452 224.483621 104.770671 243.606518 104.770671 262.917188 
C 104.770671 282.227857 108.574452 301.350754 115.964325 319.191486 
C 123.354198 337.032218 134.18645 353.243828 147.841155 366.898533 
C 161.49586 380.553238 177.707469 391.385489 195.548201 398.775362 
C 213.388933 406.165236 232.511831 409.969016 251.8225 409.969016 
C 271.133169 409.969016 290.256067 406.165236 308.096799 398.775362 
C 325.937531 391.385489 342.14914 380.553238 355.803845 366.898533 
C 369.45855 353.243828 380.290802 337.032218 387.680675 319.191486 
C 395.070548 301.350754 398.874329 282.227857 398.874329 262.917188 
C 398.874329 243.606518 395.070548 224.483621 387.680675 206.642889 
C 380.290802 188.802157 369.45855 172.590547 355.803845 158.935842 
C 342.14914 145.281137 325.937531 134.448886 308.096799 127.059013 
C 290.256067 119.669139 271.133169 115.865359 251.8225 115.865359 
" clip-path="url(#p2a90d20ba9)" style="fill: none; stroke: #b0b0b0; stroke-width: 0.8; stroke-linecap: square"/>
     </g>
     <g id="text_14">
      <!-- −15 -->
      <g transform="translate(195.548201 124.979325)scale(0.1 -0.1)">
       <use xlink:href="#DejaVuSans-2212"/>
       <use xlink:href="#DejaVuSans-31" x="83.789062"/>
       <use xlink:href="#DejaVuSans-35" x="147.412109"/>
      </g>
     </g>
    </g>
    <g id="ytick_7">
     <g id="line2d_15">
      <path d="M 251.8225 90.962635 
C 229.241635 90.962635 206.880341 95.410573 186.018342 104.051896 
C 165.156343 112.693219 146.199353 125.359875 130.23227 141.326957 
C 114.265187 157.29404 101.598531 176.25103 92.957208 197.113029 
C 84.315885 217.975028 79.867947 240.336323 79.867947 262.917188 
C 79.867947 285.498052 84.315885 307.859347 92.957208 328.721346 
C 101.598531 349.583345 114.265187 368.540335 130.23227 384.507418 
C 146.199353 400.4745 165.156343 413.141156 186.018342 421.782479 
C 206.880341 430.423802 229.241635 434.87174 251.8225 434.87174 
C 274.403365 434.87174 296.764659 430.423802 317.626658 421.782479 
C 338.488657 413.141156 357.445647 400.4745 373.41273 384.507418 
C 389.379813 368.540335 402.046469 349.583345 410.687792 328.721346 
C 419.329115 307.859347 423.777053 285.498052 423.777053 262.917188 
C 423.777053 240.336323 419.329115 217.975028 410.687792 197.113029 
C 402.046469 176.25103 389.379813 157.29404 373.41273 141.326957 
C 357.445647 125.359875 338.488657 112.693219 317.626658 104.051896 
C 296.764659 95.410573 274.403365 90.962635 251.8225 90.962635 
" clip-path="url(#p2a90d20ba9)" style="fill: none; stroke: #b0b0b0; stroke-width: 0.8; stroke-linecap: square"/>
     </g>
     <g id="text_15">
      <!-- −10 -->
      <g transform="translate(186.018342 101.972208)scale(0.1 -0.1)">
       <use xlink:href="#DejaVuSans-2212"/>
       <use xlink:href="#DejaVuSans-31" x="83.789062"/>
       <use xlink:href="#DejaVuSans-30" x="147.412109"/>
      </g>
     </g>
    </g>
    <g id="ytick_8">
     <g id="line2d_16">
      <path d="M 251.8225 66.059911 
C 225.971439 66.059911 200.371748 71.152007 176.488482 81.044779 
C 152.605216 90.937552 130.902845 105.438612 112.623385 123.718073 
C 94.343925 141.997533 79.842864 163.699903 69.950092 187.583169 
C 60.057319 211.466435 54.965224 237.066127 54.965224 262.917188 
C 54.965224 288.768248 60.057319 314.36794 69.950092 338.251206 
C 79.842864 362.134472 94.343925 383.836842 112.623385 402.116302 
C 130.902845 420.395763 152.605216 434.896823 176.488482 444.789596 
C 200.371748 454.682368 225.971439 459.774464 251.8225 459.774464 
C 277.673561 459.774464 303.273252 454.682368 327.156518 444.789596 
C 351.039784 434.896823 372.742155 420.395763 391.021615 402.116302 
C 409.301075 383.836842 423.802136 362.134472 433.694908 338.251206 
C 443.587681 314.36794 448.679776 288.768248 448.679776 262.917188 
C 448.679776 237.066127 443.587681 211.466435 433.694908 187.583169 
C 423.802136 163.699903 409.301075 141.997533 391.021615 123.718073 
C 372.742155 105.438612 351.039784 90.937552 327.156518 81.044779 
C 303.273252 71.152007 277.673561 66.059911 251.8225 66.059911 
" clip-path="url(#p2a90d20ba9)" style="fill: none; stroke: #b0b0b0; stroke-width: 0.8; stroke-linecap: square"/>
     </g>
     <g id="text_16">
      <!-- −5 -->
      <g transform="translate(176.488482 78.965092)scale(0.1 -0.1)">
       <use xlink:href="#DejaVuSans-2212"/>
       <use xlink:href="#DejaVuSans-35" x="83.789062"/>
      </g>
     </g>
    </g>
    <g id="ytick_9">
     <g id="line2d_17">
      <path d="M 251.8225 41.157188 
C 222.701244 41.157188 193.863155 46.89344 166.958622 58.037662 
C 140.054089 69.181885 115.606338 85.51735 95.0145 106.109188 
C 74.422662 126.701026 58.087197 151.148777 46.942975 178.05331 
C 35.798753 204.957842 30.0625 233.795931 30.0625 262.917188 
C 30.0625 292.038444 35.798753 320.876533 46.942975 347.781065 
C 58.087197 374.685598 74.422662 399.133349 95.0145 419.725187 
C 115.606338 440.317025 140.054089 456.65249 166.958622 467.796713 
C 193.863155 478.940935 222.701244 484.677188 251.8225 484.677188 
C 280.943756 484.677188 309.781845 478.940935 336.686378 467.796713 
C 363.590911 456.65249 388.038662 440.317025 408.6305 419.725187 
C 429.222338 399.133349 445.557803 374.685598 456.702025 347.781065 
C 467.846247 320.876533 473.5825 292.038444 473.5825 262.917188 
C 473.5825 233.795931 467.846247 204.957842 456.702025 178.05331 
C 445.557803 151.148777 429.222338 126.701026 408.6305 106.109188 
C 388.038662 85.51735 363.590911 69.181885 336.686378 58.037662 
C 309.781845 46.89344 280.943756 41.157188 251.8225 41.157188 
" clip-path="url(#p2a90d20ba9)" style="fill: none; stroke: #b0b0b0; stroke-width: 0.8; stroke-linecap: square"/>
     </g>
     <g id="text_17">
      <!-- 0 -->
      <g transform="translate(166.958622 55.957975)scale(0.1 -0.1)">
       <use xlink:href="#DejaVuSans-30"/>
      </g>
     </g>
    </g>
   </g>
   <g id="line2d_18">
    <path d="M 251.8225 449.693841 
L 255.07238 449.102678 
L 258.314143 448.813525 
L 261.539247 448.323757 
L 264.729782 447.499918 
L 267.826383 445.842412 
L 270.849837 443.950202 
L 273.715659 441.222658 
L 279.003384 434.530535 
L 281.311069 430.155171 
L 283.379487 425.263809 
L 285.297803 420.406107 
L 286.536597 413.280459 
L 287.590342 406.374165 
L 288.655129 400.37843 
L 289.310553 393.653566 
L 290.257024 388.630853 
L 291.26163 384.298347 
L 292.581099 381.288755 
L 294.533443 380.264539 
L 297.001515 380.612546 
L 299.89575 381.902655 
L 305.10481 382.591216 
L 307.968306 383.322258 
L 310.755411 383.747562 
L 313.881765 384.715352 
L 316.891186 385.293586 
L 325.338353 385.268114 
L 331.660394 385.856764 
L 334.0974 384.894744 
L 336.027984 383.175082 
L 337.159587 380.373612 
L 338.573035 378.039036 
L 340.311404 376.17782 
L 342.437584 374.817497 
L 347.173149 372.605562 
L 349.129608 370.987679 
L 350.528733 368.766663 
L 351.592957 366.23252 
L 353.285775 364.380462 
L 356.805051 360.815 
L 358.423589 358.901239 
L 359.608889 356.614466 
L 363.970529 353.73287 
L 366.38614 352.424113 
L 369.295133 351.439166 
L 370.90275 349.434054 
L 371.186913 346.49705 
L 367.157041 334.986207 
L 364.222014 330.453629 
L 361.799235 326.412285 
L 360.176787 322.97895 
L 359.942009 320.40535 
L 361.647756 318.875951 
L 367.983902 319.572889 
L 378.786276 322.121369 
L 385.291989 322.341633 
L 390.691653 321.863646 
L 395.241175 320.862093 
L 398.992554 319.410478 
L 403.143287 317.99345 
L 406.657384 316.231114 
L 408.502141 313.825489 
L 409.414379 311.09786 
L 409.661521 308.176798 
L 409.27758 305.107149 
L 407.728258 301.788859 
L 405.510004 298.398744 
L 403.640751 295.187153 
L 400.548262 291.826547 
L 394.068068 285.446672 
L 390.128964 282.354893 
L 388.123726 279.652874 
L 388.003738 277.230412 
L 388.823226 274.903198 
L 390.2867 265.334089 
L 391.885919 258.026065 
L 391.510644 255.596442 
L 390.800173 253.198922 
L 389.483118 250.873444 
L 387.59757 248.646653 
L 384.559204 241.893759 
L 383.029242 239.781899 
L 381.24145 237.760692 
L 379.686563 235.738842 
L 379.338348 233.477834 
L 378.737483 231.273728 
L 374.659327 227.694294 
L 374.678414 225.356365 
L 375.818362 222.62849 
L 376.673923 219.927395 
L 375.937394 217.743061 
L 373.94906 216.037194 
L 371.034244 214.752516 
L 367.314698 213.893658 
L 366.241331 211.974642 
L 368.151513 208.672078 
L 373.968961 203.342378 
L 376.798057 199.238961 
L 377.38713 196.153289 
L 374.760636 191.938822 
L 373.678204 189.698894 
L 370.572509 185.80003 
L 369.856805 183.302043 
L 370.150638 180.062933 
L 369.391746 177.498131 
L 368.022289 175.354366 
L 365.813131 173.857946 
L 364.144706 171.960458 
L 362.936978 169.68107 
L 362.413002 166.782331 
L 362.154465 163.57384 
L 362.946373 159.292499 
L 362.840647 155.70821 
L 362.044434 152.695253 
L 361.041608 149.81749 
L 360.236568 146.657333 
L 359.727387 143.07667 
L 360.230205 138.208389 
L 359.618732 134.45064 
L 358.648055 126.186713 
L 357.210661 123.062374 
L 354.790942 115.863013 
L 353.18916 112.634934 
L 351.758041 109.029949 
L 350.036293 105.742263 
L 347.916981 102.989114 
L 345.853317 100.051035 
L 343.648536 97.258634 
L 338.72469 92.362036 
L 335.902973 90.526671 
L 332.982571 88.868853 
L 329.944803 87.451623 
L 326.693517 86.532125 
L 320.12983 84.97051 
L 313.916885 82.581998 
L 310.73552 81.601556 
L 307.438379 81.005846 
L 304.029974 80.848088 
L 297.144016 81.142515 
L 293.611789 81.907892 
L 286.640078 83.796276 
L 279.685122 86.999518 
L 276.33828 88.478346 
L 273.012174 90.341141 
L 269.820593 91.67677 
L 266.620935 93.770305 
L 260.316483 100.842334 
L 257.361444 104.302586 
L 254.515641 108.627227 
L 251.8225 111.298199 
L 249.211935 113.358024 
L 246.654311 114.919616 
L 244.039602 114.41064 
L 241.352754 113.192838 
L 235.564802 108.235521 
L 228.722148 98.549642 
L 221.598798 91.510057 
L 218.061692 89.232886 
L 214.600709 87.802429 
L 206.994994 83.123881 
L 203.09056 81.04711 
L 198.828398 78.104789 
L 194.689292 76.042884 
L 190.534691 74.292705 
L 186.000271 71.755553 
L 181.703101 70.265721 
L 177.419848 69.091651 
L 172.932742 67.658184 
L 160.234907 66.50696 
L 151.948264 66.902963 
L 148.051529 67.752376 
L 144.480142 69.266447 
L 140.999776 70.966599 
L 137.610222 72.836036 
L 134.307604 74.854042 
L 131.157277 77.109038 
L 125.208961 82.094314 
L 122.350562 84.714353 
L 116.39729 89.580823 
L 113.518153 92.125543 
L 110.73137 94.771326 
L 108.056839 97.533713 
L 105.515661 100.426981 
L 102.865142 103.179977 
L 100.317996 106.029681 
L 98.282709 109.377397 
L 96.554376 112.976503 
L 94.388223 121.162728 
L 92.686259 124.582163 
L 91.147033 128.094462 
L 89.762952 131.683953 
L 88.250846 135.121005 
L 86.498859 138.336888 
L 84.079846 141.045016 
L 81.256303 143.48545 
L 78.289517 145.867712 
L 75.88051 148.659123 
L 73.748503 151.644204 
L 71.85072 154.779232 
L 70.215153 158.066137 
L 69.05761 161.608955 
L 68.29152 169.403482 
L 68.624477 177.490546 
L 68.640213 181.359179 
L 69.636717 189.309353 
L 69.807301 193.048099 
L 70.670239 196.983156 
L 71.346035 200.774157 
L 71.833167 204.435108 
L 72.144967 207.984253 
L 71.419728 214.57841 
L 71.265643 217.899307 
L 71.327611 221.246659 
L 71.514501 224.591539 
L 72.334911 228.028334 
L 72.847141 231.359003 
L 73.499329 234.673572 
L 74.567444 238.005614 
L 75.375755 241.252251 
L 76.698726 244.510937 
L 78.349109 247.740232 
L 80.770084 253.95271 
L 81.495816 256.969249 
L 82.000587 259.952935 
L 82.701877 262.917188 
L 83.170836 265.861013 
L 83.2479 268.803942 
L 82.625281 271.784438 
L 81.32025 274.839866 
L 79.728432 277.973468 
L 77.847883 281.202657 
L 76.843951 284.401852 
L 75.948425 287.634677 
L 74.861954 290.944985 
L 74.333319 294.213319 
L 72.790889 300.971531 
L 71.920055 311.121902 
L 71.935398 317.914194 
L 72.117374 321.306923 
L 72.570426 324.638626 
L 72.790361 328.079557 
L 73.359702 331.422637 
L 75.587993 341.381845 
L 76.442563 344.698195 
L 77.193741 348.089324 
L 78.320717 351.320761 
L 92.540894 382.944487 
L 97.667412 392.268665 
L 99.452215 395.370655 
L 103.30067 401.416035 
L 105.392907 404.322602 
L 109.908498 409.873438 
L 112.450695 412.37515 
L 117.807152 417.08421 
L 120.575775 419.330944 
L 123.485413 421.400291 
L 129.121549 425.746849 
L 138.076136 431.553107 
L 143.890854 435.643928 
L 146.721706 437.834282 
L 149.434329 440.258702 
L 155.052172 444.915705 
L 160.624381 449.901042 
L 163.505873 452.312804 
L 166.231183 455.158433 
L 169.229541 457.494005 
L 172.326375 459.677002 
L 175.558231 461.592402 
L 178.924779 463.20203 
L 182.369717 464.622715 
L 185.926706 465.723588 
L 189.521343 466.695089 
L 193.213547 467.310898 
L 196.994596 467.537712 
L 200.78131 467.632219 
L 204.660995 467.196108 
L 212.425268 465.598374 
L 216.346488 464.111649 
L 223.987187 460.975733 
L 227.790966 458.638329 
L 231.460323 456.650362 
L 235.022074 454.946934 
L 238.526797 453.054603 
L 241.909215 452.073941 
L 245.243252 451.322191 
L 248.553584 450.193252 
L 248.553584 450.193252 
" clip-path="url(#p2a90d20ba9)" style="fill: none; stroke: #ff0000; stroke-width: 1.5; stroke-linecap: square"/>
   </g>
   <g id="line2d_19">
    <path d="M 251.8225 75.37353 
L 248.604868 78.579197 
L 245.507456 82.078001 
L 242.538973 85.776939 
L 236.958519 93.021105 
L 234.271089 95.926668 
L 231.548145 97.795819 
L 228.684024 98.278378 
L 225.594491 97.320054 
L 222.243121 95.164192 
L 218.648047 92.249423 
L 210.905986 85.688296 
L 206.85402 82.558467 
L 202.728334 79.695265 
L 198.557951 77.161631 
L 194.361654 74.971228 
L 190.15454 73.122721 
L 185.949517 71.608155 
L 181.757441 70.415019 
L 177.587143 69.527471 
L 173.446008 68.928563 
L 169.340855 68.60261 
L 165.277045 68.532914 
L 161.262083 68.709746 
L 157.301357 69.120125 
L 153.395381 69.74309 
L 149.552669 70.575609 
L 145.776791 71.605663 
L 142.070593 72.821309 
L 138.438772 74.214975 
L 134.882968 75.774817 
L 131.409548 77.497502 
L 128.016408 79.367108 
L 124.709034 81.380345 
L 121.492807 83.533755 
L 118.364 85.811777 
L 115.330207 88.215019 
L 112.389784 90.732123 
L 109.543639 93.355843 
L 106.798839 96.08655 
L 104.149281 98.909462 
L 101.601561 101.824953 
L 99.158971 104.829475 
L 96.814128 107.908816 
L 94.57314 111.063246 
L 92.434974 114.285915 
L 90.401959 117.57348 
L 86.648772 124.319973 
L 84.92856 127.76914 
L 81.797288 134.794001 
L 79.076453 141.959103 
L 76.754764 149.22687 
L 74.818384 156.562385 
L 73.24729 163.931332 
L 72.014749 171.300562 
L 71.080042 178.635595 
L 70.403529 185.909403 
L 69.738882 196.644171 
L 68.445325 223.939166 
L 67.912833 230.488951 
L 66.863185 240.207039 
L 65.147632 253.133972 
L 63.855496 262.917188 
L 62.800037 272.823435 
L 62.328128 279.495797 
L 62.092785 286.213067 
L 62.140836 292.959812 
L 62.503055 299.71716 
L 63.203867 306.46323 
L 64.261203 313.174086 
L 65.695975 319.821777 
L 67.512748 326.380125 
L 69.718956 332.820189 
L 72.319899 339.111521 
L 75.305058 345.228622 
L 78.666858 351.144394 
L 82.387223 356.836695 
L 86.446978 362.284826 
L 90.800884 367.485848 
L 95.392891 372.450379 
L 100.158074 377.20453 
L 114.541548 390.933746 
L 119.047106 395.692581 
L 123.32021 400.719023 
L 127.387554 406.063218 
L 131.343249 411.696671 
L 139.418302 423.447019 
L 143.773575 429.297941 
L 146.070904 432.155117 
L 148.458326 434.944061 
L 150.938453 437.653482 
L 153.515876 440.267031 
L 156.191588 442.772774 
L 158.96565 445.159016 
L 161.837001 447.414803 
L 164.803315 449.530432 
L 167.861746 451.496129 
L 171.00839 453.303299 
L 174.238913 454.943305 
L 177.54834 456.407989 
L 180.931235 457.689338 
L 184.381731 458.779402 
L 187.893509 459.670391 
L 191.459928 460.354263 
L 195.073998 460.822733 
L 198.728123 461.068099 
L 202.414797 461.080661 
L 206.125778 460.851435 
L 209.851844 460.373598 
L 213.585625 459.628858 
L 217.315999 458.613279 
L 221.034249 457.306551 
L 224.728172 455.703346 
L 228.387623 453.778946 
L 231.999153 451.523737 
L 235.549919 448.913637 
L 239.025352 445.924932 
L 242.408903 442.539322 
L 245.682839 438.734066 
L 248.827912 434.477046 
L 251.8225 429.766682 
L 254.644634 424.597151 
L 257.273492 419.013168 
L 259.697151 413.174484 
L 263.985616 401.942243 
L 266.004011 397.84525 
L 268.132089 395.748133 
L 270.510209 395.887147 
L 273.170825 397.705209 
L 282.287565 406.244052 
L 285.456551 408.60227 
L 288.620534 410.506039 
L 291.732115 411.861898 
L 294.778512 412.722604 
L 297.721354 413.045573 
L 300.553013 412.894285 
L 303.237642 412.237602 
L 305.75575 411.097573 
L 308.081973 409.478126 
L 310.183467 407.36565 
L 312.033893 404.766341 
L 313.588735 401.646423 
L 314.779663 397.929259 
L 315.576198 393.631638 
L 315.835372 388.549523 
L 315.492928 382.663846 
L 314.361658 375.740816 
L 312.23713 367.558397 
L 308.846874 357.821684 
L 304.186606 346.717275 
L 299.890434 336.935315 
L 301.314162 336.291593 
L 309.12908 344.759465 
L 318.277272 354.384334 
L 326.697468 362.279626 
L 334.246204 368.414718 
L 341.058466 373.114429 
L 347.32203 376.729096 
L 353.084113 379.405348 
L 358.477649 381.36973 
L 363.548374 382.728518 
L 368.338278 383.572808 
L 372.87742 383.972108 
L 377.192959 383.986032 
L 381.301132 383.657965 
L 385.213353 383.022851 
L 388.946829 382.117548 
L 392.501882 380.961205 
L 395.887581 379.57879 
L 399.114404 377.994235 
L 402.178282 376.218396 
L 405.091745 374.273813 
L 407.848207 372.167563 
L 410.45371 369.91529 
L 412.915126 367.531962 
L 415.223219 365.021289 
L 417.390134 362.400259 
L 419.411692 359.674853 
L 421.28827 356.853598 
L 423.02061 353.944837 
L 424.609813 350.956721 
L 426.057328 347.897191 
L 427.360424 344.771866 
L 428.525652 341.5905 
L 429.54627 338.356452 
L 430.429425 335.079069 
L 431.168749 331.761762 
L 431.771955 328.413433 
L 432.228327 325.035895 
L 432.550771 321.639362 
L 432.728866 318.225814 
L 432.771299 314.803421 
L 432.667869 311.374558 
L 432.432516 307.948322 
L 432.05048 304.526095 
L 431.53615 301.116503 
L 430.879854 297.722411 
L 430.091556 294.350832 
L 429.166745 291.005757 
L 428.105937 287.692209 
L 426.914747 284.415812 
L 425.594034 281.181312 
L 424.149763 277.993869 
L 422.588076 274.85828 
L 420.915271 271.778964 
L 419.13779 268.759966 
L 415.320088 262.917188 
L 411.273323 257.349042 
L 403.343986 246.991638 
L 401.609378 244.525671 
L 400.03257 242.087621 
L 398.711817 239.652205 
L 397.547684 237.221906 
L 396.685922 234.758591 
L 396.026272 232.26573 
L 395.614954 229.720084 
L 395.282856 224.477101 
L 395.425687 219.013287 
L 395.593595 207.728635 
L 395.485922 204.873397 
L 395.230423 202.044136 
L 394.828693 199.246728 
L 394.300573 196.478571 
L 393.611772 193.761939 
L 392.756018 191.107973 
L 391.723176 188.530679 
L 390.512546 186.040039 
L 389.115226 183.651195 
L 387.52309 181.380047 
L 385.728832 179.243224 
L 383.721819 177.260768 
L 381.475976 175.464813 
L 379.032414 173.843847 
L 376.330278 172.456991 
L 373.340393 171.346887 
L 370.07538 170.527912 
L 366.470943 170.076709 
L 362.505847 170.042832 
L 358.086549 170.543259 
L 353.127077 171.702136 
L 347.512932 173.684416 
L 341.032727 176.767873 
L 333.246864 181.492824 
L 323.440751 188.754318 
L 309.805417 200.738122 
L 285.982841 224.978285 
L 258.750483 254.947454 
L 298.724286 207.021816 
L 314.291046 185.774958 
L 323.268745 171.470165 
L 329.125335 160.33286 
L 333.148925 150.980967 
L 335.896575 142.846965 
L 337.715226 135.575984 
L 338.827081 128.941881 
L 339.341904 122.856864 
L 339.367269 117.218224 
L 338.977675 111.959996 
L 338.225308 107.042395 
L 337.156574 102.427136 
L 335.801062 98.099979 
L 334.189061 94.040711 
L 332.344796 90.236566 
L 330.289184 86.678131 
L 328.042132 83.354986 
L 325.618775 80.264999 
L 323.033809 77.405385 
L 320.30148 74.772735 
L 317.433933 72.367749 
L 314.441608 70.195391 
L 311.338148 68.250273 
L 308.133483 66.537452 
L 304.838244 65.059738 
L 301.462749 63.821022 
L 298.017454 62.824858 
L 294.512423 62.076889 
L 290.957725 61.583909 
L 287.363982 61.351427 
L 283.741656 61.387568 
L 280.101712 61.700141 
L 276.455305 62.299094 
L 272.814093 63.19552 
L 269.190707 64.397679 
L 265.597998 65.918394 
L 262.049883 67.767102 
L 258.560792 69.957762 
L 255.146351 72.493899 
L 255.146351 72.493899 
" clip-path="url(#p2a90d20ba9)" style="fill: none; stroke-dasharray: 5.55,2.4; stroke-dashoffset: 0; stroke: #0000ff; stroke-width: 1.5"/>
   </g>
   <g id="patch_3">
    <path d="M 251.8225 41.157188 
C 222.701244 41.157188 193.863155 46.89344 166.958622 58.037662 
C 140.054089 69.181885 115.606338 85.51735 95.0145 106.109188 
C 74.422662 126.701026 58.087197 151.148777 46.942975 178.05331 
C 35.798753 204.957842 30.0625 233.795931 30.0625 262.917188 
C 30.0625 292.038444 35.798753 320.876533 46.942975 347.781065 
C 58.087197 374.685598 74.422662 399.133349 95.0145 419.725187 
C 115.606338 440.317025 140.054089 456.65249 166.958622 467.796713 
C 193.863155 478.940935 222.701244 484.677188 251.8225 484.677188 
C 280.943756 484.677188 309.781845 478.940935 336.686378 467.796713 
C 363.590911 456.65249 388.038662 440.317025 408.6305 419.725187 
C 429.222338 399.133349 445.557803 374.685598 456.702025 347.781065 
C 467.846247 320.876533 473.5825 292.038444 473.5825 262.917188 
C 473.5825 233.795931 467.846247 204.957842 456.702025 178.05331 
C 445.557803 151.148777 429.222338 126.701026 408.6305 106.109188 
C 388.038662 85.51735 363.590911 69.181885 336.686378 58.037662 
C 309.781845 46.89344 280.943756 41.157188 251.8225 41.157188 
" style="fill: none; stroke: #000000; stroke-width: 0.8; stroke-linejoin: miter; stroke-linecap: square"/>
   </g>
   <g id="text_18">
    <g id="patch_4">
     <path d="M 384.8785 509.853188 
L 488.976938 509.853188 
Q 491.976938 509.853188 491.976938 506.853188 
L 491.976938 473.945063 
Q 491.976938 470.945063 488.976938 470.945063 
L 384.8785 470.945063 
Q 381.8785 470.945063 381.8785 473.945063 
L 381.8785 506.853188 
Q 381.8785 509.853188 384.8785 509.853188 
z
" style="fill: #ffffff; stroke: #808080; stroke-linejoin: miter"/>
    </g>
    <!-- G_cst: 3.0 dBi -->
    <g transform="translate(384.8785 481.821625)scale(0.1 -0.1)">
     <defs>
      <path id="DejaVuSans-47" d="M 3809 666 
L 3809 1919 
L 2778 1919 
L 2778 2438 
L 4434 2438 
L 4434 434 
Q 4069 175 3628 42 
Q 3188 -91 2688 -91 
Q 1594 -91 976 548 
Q 359 1188 359 2328 
Q 359 3472 976 4111 
Q 1594 4750 2688 4750 
Q 3144 4750 3555 4637 
Q 3966 4525 4313 4306 
L 4313 3634 
Q 3963 3931 3569 4081 
Q 3175 4231 2741 4231 
Q 1884 4231 1454 3753 
Q 1025 3275 1025 2328 
Q 1025 1384 1454 906 
Q 1884 428 2741 428 
Q 3075 428 3337 486 
Q 3600 544 3809 666 
z
" transform="scale(0.015625)"/>
      <path id="DejaVuSans-5f" d="M 3263 -1063 
L 3263 -1509 
L -63 -1509 
L -63 -1063 
L 3263 -1063 
z
" transform="scale(0.015625)"/>
      <path id="DejaVuSans-63" d="M 3122 3366 
L 3122 2828 
Q 2878 2963 2633 3030 
Q 2388 3097 2138 3097 
Q 1578 3097 1268 2742 
Q 959 2388 959 1747 
Q 959 1106 1268 751 
Q 1578 397 2138 397 
Q 2388 397 2633 464 
Q 2878 531 3122 666 
L 3122 134 
Q 2881 22 2623 -34 
Q 2366 -91 2075 -91 
Q 1284 -91 818 406 
Q 353 903 353 1747 
Q 353 2603 823 3093 
Q 1294 3584 2113 3584 
Q 2378 3584 2631 3529 
Q 2884 3475 3122 3366 
z
" transform="scale(0.015625)"/>
      <path id="DejaVuSans-73" d="M 2834 3397 
L 2834 2853 
Q 2591 2978 2328 3040 
Q 2066 3103 1784 3103 
Q 1356 3103 1142 2972 
Q 928 2841 928 2578 
Q 928 2378 1081 2264 
Q 1234 2150 1697 2047 
L 1894 2003 
Q 2506 1872 2764 1633 
Q 3022 1394 3022 966 
Q 3022 478 2636 193 
Q 2250 -91 1575 -91 
Q 1294 -91 989 -36 
Q 684 19 347 128 
L 347 722 
Q 666 556 975 473 
Q 1284 391 1588 391 
Q 1994 391 2212 530 
Q 2431 669 2431 922 
Q 2431 1156 2273 1281 
Q 2116 1406 1581 1522 
L 1381 1569 
Q 847 1681 609 1914 
Q 372 2147 372 2553 
Q 372 3047 722 3315 
Q 1072 3584 1716 3584 
Q 2034 3584 2315 3537 
Q 2597 3491 2834 3397 
z
" transform="scale(0.015625)"/>
      <path id="DejaVuSans-74" d="M 1172 4494 
L 1172 3500 
L 2356 3500 
L 2356 3053 
L 1172 3053 
L 1172 1153 
Q 1172 725 1289 603 
Q 1406 481 1766 481 
L 2356 481 
L 2356 0 
L 1766 0 
Q 1100 0 847 248 
Q 594 497 594 1153 
L 594 3053 
L 172 3053 
L 172 3500 
L 594 3500 
L 594 4494 
L 1172 4494 
z
" transform="scale(0.015625)"/>
      <path id="DejaVuSans-3a" d="M 750 794 
L 1409 794 
L 1409 0 
L 750 0 
L 750 794 
z
M 750 3309 
L 1409 3309 
L 1409 2516 
L 750 2516 
L 750 3309 
z
" transform="scale(0.015625)"/>
      <path id="DejaVuSans-20" transform="scale(0.015625)"/>
      <path id="DejaVuSans-2e" d="M 684 794 
L 1344 794 
L 1344 0 
L 684 0 
L 684 794 
z
" transform="scale(0.015625)"/>
      <path id="DejaVuSans-64" d="M 2906 2969 
L 2906 4863 
L 3481 4863 
L 3481 0 
L 2906 0 
L 2906 525 
Q 2725 213 2448 61 
Q 2172 -91 1784 -91 
Q 1150 -91 751 415 
Q 353 922 353 1747 
Q 353 2572 751 3078 
Q 1150 3584 1784 3584 
Q 2172 3584 2448 3432 
Q 2725 3281 2906 2969 
z
M 947 1747 
Q 947 1113 1208 752 
Q 1469 391 1925 391 
Q 2381 391 2643 752 
Q 2906 1113 2906 1747 
Q 2906 2381 2643 2742 
Q 2381 3103 1925 3103 
Q 1469 3103 1208 2742 
Q 947 2381 947 1747 
z
" transform="scale(0.015625)"/>
      <path id="DejaVuSans-42" d="M 1259 2228 
L 1259 519 
L 2272 519 
Q 2781 519 3026 730 
Q 3272 941 3272 1375 
Q 3272 1813 3026 2020 
Q 2781 2228 2272 2228 
L 1259 2228 
z
M 1259 4147 
L 1259 2741 
L 2194 2741 
Q 2656 2741 2882 2914 
Q 3109 3088 3109 3444 
Q 3109 3797 2882 3972 
Q 2656 4147 2194 4147 
L 1259 4147 
z
M 628 4666 
L 2241 4666 
Q 2963 4666 3353 4366 
Q 3744 4066 3744 3513 
Q 3744 3084 3544 2831 
Q 3344 2578 2956 2516 
Q 3422 2416 3680 2098 
Q 3938 1781 3938 1306 
Q 3938 681 3513 340 
Q 3088 0 2303 0 
L 628 0 
L 628 4666 
z
" transform="scale(0.015625)"/>
      <path id="DejaVuSans-69" d="M 603 3500 
L 1178 3500 
L 1178 0 
L 603 0 
L 603 3500 
z
M 603 4863 
L 1178 4863 
L 1178 4134 
L 603 4134 
L 603 4863 
z
" transform="scale(0.015625)"/>
     </defs>
     <use xlink:href="#DejaVuSans-47"/>
     <use xlink:href="#DejaVuSans-5f" x="77.490234"/>
     <use xlink:href="#DejaVuSans-63" x="127.490234"/>
     <use xlink:href="#DejaVuSans-73" x="182.470703"/>
     <use xlink:href="#DejaVuSans-74" x="234.570312"/>
     <use xlink:href="#DejaVuSans-3a" x="273.779297"/>
     <use xlink:href="#DejaVuSans-20" x="307.470703"/>
     <use xlink:href="#DejaVuSans-33" x="339.257812"/>
     <use xlink:href="#DejaVuSans-2e" x="402.880859"/>
     <use xlink:href="#DejaVuSans-30" x="434.667969"/>
     <use xlink:href="#DejaVuSans-20" x="498.291016"/>
     <use xlink:href="#DejaVuSans-64" x="530.078125"/>
     <use xlink:href="#DejaVuSans-42" x="593.554688"/>
     <use xlink:href="#DejaVuSans-69" x="662.158203"/>
    </g>
    <!-- G_inpe: 2.5 dBi -->
    <g transform="translate(384.8785 493.297563)scale(0.1 -0.1)">
     <defs>
      <path id="DejaVuSans-6e" d="M 3513 2113 
L 3513 0 
L 2938 0 
L 2938 2094 
Q 2938 2591 2744 2837 
Q 2550 3084 2163 3084 
Q 1697 3084 1428 2787 
Q 1159 2491 1159 1978 
L 1159 0 
L 581 0 
L 581 3500 
L 1159 3500 
L 1159 2956 
Q 1366 3272 1645 3428 
Q 1925 3584 2291 3584 
Q 2894 3584 3203 3211 
Q 3513 2838 3513 2113 
z
" transform="scale(0.015625)"/>
      <path id="DejaVuSans-70" d="M 1159 525 
L 1159 -1331 
L 581 -1331 
L 581 3500 
L 1159 3500 
L 1159 2969 
Q 1341 3281 1617 3432 
Q 1894 3584 2278 3584 
Q 2916 3584 3314 3078 
Q 3713 2572 3713 1747 
Q 3713 922 3314 415 
Q 2916 -91 2278 -91 
Q 1894 -91 1617 61 
Q 1341 213 1159 525 
z
M 3116 1747 
Q 3116 2381 2855 2742 
Q 2594 3103 2138 3103 
Q 1681 3103 1420 2742 
Q 1159 2381 1159 1747 
Q 1159 1113 1420 752 
Q 1681 391 2138 391 
Q 2594 391 2855 752 
Q 3116 1113 3116 1747 
z
" transform="scale(0.015625)"/>
      <path id="DejaVuSans-65" d="M 3597 1894 
L 3597 1613 
L 953 1613 
Q 991 1019 1311 708 
Q 1631 397 2203 397 
Q 2534 397 2845 478 
Q 3156 559 3463 722 
L 3463 178 
Q 3153 47 2828 -22 
Q 2503 -91 2169 -91 
Q 1331 -91 842 396 
Q 353 884 353 1716 
Q 353 2575 817 3079 
Q 1281 3584 2069 3584 
Q 2775 3584 3186 3129 
Q 3597 2675 3597 1894 
z
M 3022 2063 
Q 3016 2534 2758 2815 
Q 2500 3097 2075 3097 
Q 1594 3097 1305 2825 
Q 1016 2553 972 2059 
L 3022 2063 
z
" transform="scale(0.015625)"/>
     </defs>
     <use xlink:href="#DejaVuSans-47"/>
     <use xlink:href="#DejaVuSans-5f" x="77.490234"/>
     <use xlink:href="#DejaVuSans-69" x="127.490234"/>
     <use xlink:href="#DejaVuSans-6e" x="155.273438"/>
     <use xlink:href="#DejaVuSans-70" x="218.652344"/>
     <use xlink:href="#DejaVuSans-65" x="282.128906"/>
     <use xlink:href="#DejaVuSans-3a" x="343.652344"/>
     <use xlink:href="#DejaVuSans-20" x="377.34375"/>
     <use xlink:href="#DejaVuSans-32" x="409.130859"/>
     <use xlink:href="#DejaVuSans-2e" x="472.753906"/>
     <use xlink:href="#DejaVuSans-35" x="504.541016"/>
     <use xlink:href="#DejaVuSans-20" x="568.164062"/>
     <use xlink:href="#DejaVuSans-64" x="599.951172"/>
     <use xlink:href="#DejaVuSans-42" x="663.427734"/>
     <use xlink:href="#DejaVuSans-69" x="732.03125"/>
    </g>
    <!-- Pearson Coef: -0.481 -->
    <g transform="translate(384.8785 504.7735)scale(0.1 -0.1)">
     <defs>
      <path id="DejaVuSans-50" d="M 1259 4147 
L 1259 2394 
L 2053 2394 
Q 2494 2394 2734 2622 
Q 2975 2850 2975 3272 
Q 2975 3691 2734 3919 
Q 2494 4147 2053 4147 
L 1259 4147 
z
M 628 4666 
L 2053 4666 
Q 2838 4666 3239 4311 
Q 3641 3956 3641 3272 
Q 3641 2581 3239 2228 
Q 2838 1875 2053 1875 
L 1259 1875 
L 1259 0 
L 628 0 
L 628 4666 
z
" transform="scale(0.015625)"/>
      <path id="DejaVuSans-61" d="M 2194 1759 
Q 1497 1759 1228 1600 
Q 959 1441 959 1056 
Q 959 750 1161 570 
Q 1363 391 1709 391 
Q 2188 391 2477 730 
Q 2766 1069 2766 1631 
L 2766 1759 
L 2194 1759 
z
M 3341 1997 
L 3341 0 
L 2766 0 
L 2766 531 
Q 2569 213 2275 61 
Q 1981 -91 1556 -91 
Q 1019 -91 701 211 
Q 384 513 384 1019 
Q 384 1609 779 1909 
Q 1175 2209 1959 2209 
L 2766 2209 
L 2766 2266 
Q 2766 2663 2505 2880 
Q 2244 3097 1772 3097 
Q 1472 3097 1187 3025 
Q 903 2953 641 2809 
L 641 3341 
Q 956 3463 1253 3523 
Q 1550 3584 1831 3584 
Q 2591 3584 2966 3190 
Q 3341 2797 3341 1997 
z
" transform="scale(0.015625)"/>
      <path id="DejaVuSans-72" d="M 2631 2963 
Q 2534 3019 2420 3045 
Q 2306 3072 2169 3072 
Q 1681 3072 1420 2755 
Q 1159 2438 1159 1844 
L 1159 0 
L 581 0 
L 581 3500 
L 1159 3500 
L 1159 2956 
Q 1341 3275 1631 3429 
Q 1922 3584 2338 3584 
Q 2397 3584 2469 3576 
Q 2541 3569 2628 3553 
L 2631 2963 
z
" transform="scale(0.015625)"/>
      <path id="DejaVuSans-6f" d="M 1959 3097 
Q 1497 3097 1228 2736 
Q 959 2375 959 1747 
Q 959 1119 1226 758 
Q 1494 397 1959 397 
Q 2419 397 2687 759 
Q 2956 1122 2956 1747 
Q 2956 2369 2687 2733 
Q 2419 3097 1959 3097 
z
M 1959 3584 
Q 2709 3584 3137 3096 
Q 3566 2609 3566 1747 
Q 3566 888 3137 398 
Q 2709 -91 1959 -91 
Q 1206 -91 779 398 
Q 353 888 353 1747 
Q 353 2609 779 3096 
Q 1206 3584 1959 3584 
z
" transform="scale(0.015625)"/>
      <path id="DejaVuSans-43" d="M 4122 4306 
L 4122 3641 
Q 3803 3938 3442 4084 
Q 3081 4231 2675 4231 
Q 1875 4231 1450 3742 
Q 1025 3253 1025 2328 
Q 1025 1406 1450 917 
Q 1875 428 2675 428 
Q 3081 428 3442 575 
Q 3803 722 4122 1019 
L 4122 359 
Q 3791 134 3420 21 
Q 3050 -91 2638 -91 
Q 1578 -91 968 557 
Q 359 1206 359 2328 
Q 359 3453 968 4101 
Q 1578 4750 2638 4750 
Q 3056 4750 3426 4639 
Q 3797 4528 4122 4306 
z
" transform="scale(0.015625)"/>
      <path id="DejaVuSans-66" d="M 2375 4863 
L 2375 4384 
L 1825 4384 
Q 1516 4384 1395 4259 
Q 1275 4134 1275 3809 
L 1275 3500 
L 2222 3500 
L 2222 3053 
L 1275 3053 
L 1275 0 
L 697 0 
L 697 3053 
L 147 3053 
L 147 3500 
L 697 3500 
L 697 3744 
Q 697 4328 969 4595 
Q 1241 4863 1831 4863 
L 2375 4863 
z
" transform="scale(0.015625)"/>
      <path id="DejaVuSans-2d" d="M 313 2009 
L 1997 2009 
L 1997 1497 
L 313 1497 
L 313 2009 
z
" transform="scale(0.015625)"/>
     </defs>
     <use xlink:href="#DejaVuSans-50"/>
     <use xlink:href="#DejaVuSans-65" x="56.677734"/>
     <use xlink:href="#DejaVuSans-61" x="118.201172"/>
     <use xlink:href="#DejaVuSans-72" x="179.480469"/>
     <use xlink:href="#DejaVuSans-73" x="220.59375"/>
     <use xlink:href="#DejaVuSans-6f" x="272.693359"/>
     <use xlink:href="#DejaVuSans-6e" x="333.875"/>
     <use xlink:href="#DejaVuSans-20" x="397.253906"/>
     <use xlink:href="#DejaVuSans-43" x="429.041016"/>
     <use xlink:href="#DejaVuSans-6f" x="498.865234"/>
     <use xlink:href="#DejaVuSans-65" x="560.046875"/>
     <use xlink:href="#DejaVuSans-66" x="621.570312"/>
     <use xlink:href="#DejaVuSans-3a" x="653.150391"/>
     <use xlink:href="#DejaVuSans-20" x="686.841797"/>
     <use xlink:href="#DejaVuSans-2d" x="718.628906"/>
     <use xlink:href="#DejaVuSans-30" x="754.712891"/>
     <use xlink:href="#DejaVuSans-2e" x="818.335938"/>
     <use xlink:href="#DejaVuSans-34" x="850.123047"/>
     <use xlink:href="#DejaVuSans-38" x="913.746094"/>
     <use xlink:href="#DejaVuSans-31" x="977.369141"/>
    </g>
   </g>
   <g id="text_19">
    <g id="patch_5">
     <path d="M 52.2385 56.370938 
L 140.94475 56.370938 
Q 144.54475 56.370938 144.54475 52.770938 
L 144.54475 41.157188 
Q 144.54475 37.557188 140.94475 37.557188 
L 52.2385 37.557188 
Q 48.6385 37.557188 48.6385 41.157188 
L 48.6385 52.770938 
Q 48.6385 56.370938 52.2385 56.370938 
z
" style="fill: #ffffff; stroke: #808080; stroke-linejoin: miter"/>
    </g>
    <!-- Freq: 12.5 GHz -->
    <g transform="translate(52.2385 50.275313)scale(0.12 -0.12)">
     <defs>
      <path id="DejaVuSans-46" d="M 628 4666 
L 3309 4666 
L 3309 4134 
L 1259 4134 
L 1259 2759 
L 3109 2759 
L 3109 2228 
L 1259 2228 
L 1259 0 
L 628 0 
L 628 4666 
z
" transform="scale(0.015625)"/>
      <path id="DejaVuSans-71" d="M 947 1747 
Q 947 1113 1208 752 
Q 1469 391 1925 391 
Q 2381 391 2643 752 
Q 2906 1113 2906 1747 
Q 2906 2381 2643 2742 
Q 2381 3103 1925 3103 
Q 1469 3103 1208 2742 
Q 947 2381 947 1747 
z
M 2906 525 
Q 2725 213 2448 61 
Q 2172 -91 1784 -91 
Q 1150 -91 751 415 
Q 353 922 353 1747 
Q 353 2572 751 3078 
Q 1150 3584 1784 3584 
Q 2172 3584 2448 3432 
Q 2725 3281 2906 2969 
L 2906 3500 
L 3481 3500 
L 3481 -1331 
L 2906 -1331 
L 2906 525 
z
" transform="scale(0.015625)"/>
      <path id="DejaVuSans-48" d="M 628 4666 
L 1259 4666 
L 1259 2753 
L 3553 2753 
L 3553 4666 
L 4184 4666 
L 4184 0 
L 3553 0 
L 3553 2222 
L 1259 2222 
L 1259 0 
L 628 0 
L 628 4666 
z
" transform="scale(0.015625)"/>
      <path id="DejaVuSans-7a" d="M 353 3500 
L 3084 3500 
L 3084 2975 
L 922 459 
L 3084 459 
L 3084 0 
L 275 0 
L 275 525 
L 2438 3041 
L 353 3041 
L 353 3500 
z
" transform="scale(0.015625)"/>
     </defs>
     <use xlink:href="#DejaVuSans-46"/>
     <use xlink:href="#DejaVuSans-72" x="50.269531"/>
     <use xlink:href="#DejaVuSans-65" x="89.132812"/>
     <use xlink:href="#DejaVuSans-71" x="150.65625"/>
     <use xlink:href="#DejaVuSans-3a" x="214.132812"/>
     <use xlink:href="#DejaVuSans-20" x="247.824219"/>
     <use xlink:href="#DejaVuSans-31" x="279.611328"/>
     <use xlink:href="#DejaVuSans-32" x="343.234375"/>
     <use xlink:href="#DejaVuSans-2e" x="406.857422"/>
     <use xlink:href="#DejaVuSans-35" x="438.644531"/>
     <use xlink:href="#DejaVuSans-20" x="502.267578"/>
     <use xlink:href="#DejaVuSans-47" x="534.054688"/>
     <use xlink:href="#DejaVuSans-48" x="611.544922"/>
     <use xlink:href="#DejaVuSans-7a" x="686.740234"/>
    </g>
   </g>
   <g id="text_20">
    <!-- Radiation Diagram - 1AVVF12 -->
    <g transform="translate(162.985938 16.318125)scale(0.12 -0.12)">
     <defs>
      <path id="DejaVuSans-52" d="M 2841 2188 
Q 3044 2119 3236 1894 
Q 3428 1669 3622 1275 
L 4263 0 
L 3584 0 
L 2988 1197 
Q 2756 1666 2539 1819 
Q 2322 1972 1947 1972 
L 1259 1972 
L 1259 0 
L 628 0 
L 628 4666 
L 2053 4666 
Q 2853 4666 3247 4331 
Q 3641 3997 3641 3322 
Q 3641 2881 3436 2590 
Q 3231 2300 2841 2188 
z
M 1259 4147 
L 1259 2491 
L 2053 2491 
Q 2509 2491 2742 2702 
Q 2975 2913 2975 3322 
Q 2975 3731 2742 3939 
Q 2509 4147 2053 4147 
L 1259 4147 
z
" transform="scale(0.015625)"/>
      <path id="DejaVuSans-44" d="M 1259 4147 
L 1259 519 
L 2022 519 
Q 2988 519 3436 956 
Q 3884 1394 3884 2338 
Q 3884 3275 3436 3711 
Q 2988 4147 2022 4147 
L 1259 4147 
z
M 628 4666 
L 1925 4666 
Q 3281 4666 3915 4102 
Q 4550 3538 4550 2338 
Q 4550 1131 3912 565 
Q 3275 0 1925 0 
L 628 0 
L 628 4666 
z
" transform="scale(0.015625)"/>
      <path id="DejaVuSans-67" d="M 2906 1791 
Q 2906 2416 2648 2759 
Q 2391 3103 1925 3103 
Q 1463 3103 1205 2759 
Q 947 2416 947 1791 
Q 947 1169 1205 825 
Q 1463 481 1925 481 
Q 2391 481 2648 825 
Q 2906 1169 2906 1791 
z
M 3481 434 
Q 3481 -459 3084 -895 
Q 2688 -1331 1869 -1331 
Q 1566 -1331 1297 -1286 
Q 1028 -1241 775 -1147 
L 775 -588 
Q 1028 -725 1275 -790 
Q 1522 -856 1778 -856 
Q 2344 -856 2625 -561 
Q 2906 -266 2906 331 
L 2906 616 
Q 2728 306 2450 153 
Q 2172 0 1784 0 
Q 1141 0 747 490 
Q 353 981 353 1791 
Q 353 2603 747 3093 
Q 1141 3584 1784 3584 
Q 2172 3584 2450 3431 
Q 2728 3278 2906 2969 
L 2906 3500 
L 3481 3500 
L 3481 434 
z
" transform="scale(0.015625)"/>
      <path id="DejaVuSans-6d" d="M 3328 2828 
Q 3544 3216 3844 3400 
Q 4144 3584 4550 3584 
Q 5097 3584 5394 3201 
Q 5691 2819 5691 2113 
L 5691 0 
L 5113 0 
L 5113 2094 
Q 5113 2597 4934 2840 
Q 4756 3084 4391 3084 
Q 3944 3084 3684 2787 
Q 3425 2491 3425 1978 
L 3425 0 
L 2847 0 
L 2847 2094 
Q 2847 2600 2669 2842 
Q 2491 3084 2119 3084 
Q 1678 3084 1418 2786 
Q 1159 2488 1159 1978 
L 1159 0 
L 581 0 
L 581 3500 
L 1159 3500 
L 1159 2956 
Q 1356 3278 1631 3431 
Q 1906 3584 2284 3584 
Q 2666 3584 2933 3390 
Q 3200 3197 3328 2828 
z
" transform="scale(0.015625)"/>
      <path id="DejaVuSans-41" d="M 2188 4044 
L 1331 1722 
L 3047 1722 
L 2188 4044 
z
M 1831 4666 
L 2547 4666 
L 4325 0 
L 3669 0 
L 3244 1197 
L 1141 1197 
L 716 0 
L 50 0 
L 1831 4666 
z
" transform="scale(0.015625)"/>
      <path id="DejaVuSans-56" d="M 1831 0 
L 50 4666 
L 709 4666 
L 2188 738 
L 3669 4666 
L 4325 4666 
L 2547 0 
L 1831 0 
z
" transform="scale(0.015625)"/>
     </defs>
     <use xlink:href="#DejaVuSans-52"/>
     <use xlink:href="#DejaVuSans-61" x="67.232422"/>
     <use xlink:href="#DejaVuSans-64" x="128.511719"/>
     <use xlink:href="#DejaVuSans-69" x="191.988281"/>
     <use xlink:href="#DejaVuSans-61" x="219.771484"/>
     <use xlink:href="#DejaVuSans-74" x="281.050781"/>
     <use xlink:href="#DejaVuSans-69" x="320.259766"/>
     <use xlink:href="#DejaVuSans-6f" x="348.042969"/>
     <use xlink:href="#DejaVuSans-6e" x="409.224609"/>
     <use xlink:href="#DejaVuSans-20" x="472.603516"/>
     <use xlink:href="#DejaVuSans-44" x="504.390625"/>
     <use xlink:href="#DejaVuSans-69" x="581.392578"/>
     <use xlink:href="#DejaVuSans-61" x="609.175781"/>
     <use xlink:href="#DejaVuSans-67" x="670.455078"/>
     <use xlink:href="#DejaVuSans-72" x="733.931641"/>
     <use xlink:href="#DejaVuSans-61" x="775.044922"/>
     <use xlink:href="#DejaVuSans-6d" x="836.324219"/>
     <use xlink:href="#DejaVuSans-20" x="933.736328"/>
     <use xlink:href="#DejaVuSans-2d" x="965.523438"/>
     <use xlink:href="#DejaVuSans-20" x="1001.607422"/>
     <use xlink:href="#DejaVuSans-31" x="1033.394531"/>
     <use xlink:href="#DejaVuSans-41" x="1097.017578"/>
     <use xlink:href="#DejaVuSans-56" x="1159.050781"/>
     <use xlink:href="#DejaVuSans-56" x="1227.458984"/>
     <use xlink:href="#DejaVuSans-46" x="1295.867188"/>
     <use xlink:href="#DejaVuSans-31" x="1353.386719"/>
     <use xlink:href="#DejaVuSans-32" x="1417.009766"/>
    </g>
   </g>
   <g id="legend_1">
    <g id="patch_6">
     <path d="M 411.802813 78.513438 
L 466.5825 78.513438 
Q 468.5825 78.513438 468.5825 76.513438 
L 468.5825 48.157188 
Q 468.5825 46.157188 466.5825 46.157188 
L 411.802813 46.157188 
Q 409.802813 46.157188 409.802813 48.157188 
L 409.802813 76.513438 
Q 409.802813 78.513438 411.802813 78.513438 
z
" style="fill: #ffffff; opacity: 0.8; stroke: #cccccc; stroke-linejoin: miter"/>
    </g>
    <g id="line2d_20">
     <path d="M 413.802813 54.255625 
L 423.802813 54.255625 
L 433.802813 54.255625 
" style="fill: none; stroke: #ff0000; stroke-width: 1.5; stroke-linecap: square"/>
    </g>
    <g id="text_21">
     <!-- INPE -->
     <g transform="translate(441.802813 57.755625)scale(0.1 -0.1)">
      <defs>
       <path id="DejaVuSans-49" d="M 628 4666 
L 1259 4666 
L 1259 0 
L 628 0 
L 628 4666 
z
" transform="scale(0.015625)"/>
       <path id="DejaVuSans-4e" d="M 628 4666 
L 1478 4666 
L 3547 763 
L 3547 4666 
L 4159 4666 
L 4159 0 
L 3309 0 
L 1241 3903 
L 1241 0 
L 628 0 
L 628 4666 
z
" transform="scale(0.015625)"/>
       <path id="DejaVuSans-45" d="M 628 4666 
L 3578 4666 
L 3578 4134 
L 1259 4134 
L 1259 2753 
L 3481 2753 
L 3481 2222 
L 1259 2222 
L 1259 531 
L 3634 531 
L 3634 0 
L 628 0 
L 628 4666 
z
" transform="scale(0.015625)"/>
      </defs>
      <use xlink:href="#DejaVuSans-49"/>
      <use xlink:href="#DejaVuSans-4e" x="29.492188"/>
      <use xlink:href="#DejaVuSans-50" x="104.296875"/>
      <use xlink:href="#DejaVuSans-45" x="164.599609"/>
     </g>
    </g>
    <g id="line2d_21">
     <path d="M 413.802813 68.93375 
L 423.802813 68.93375 
L 433.802813 68.93375 
" style="fill: none; stroke-dasharray: 5.55,2.4; stroke-dashoffset: 0; stroke: #0000ff; stroke-width: 1.5"/>
    </g>
    <g id="text_22">
     <!-- CST -->
     <g transform="translate(441.802813 72.43375)scale(0.1 -0.1)">
      <defs>
       <path id="DejaVuSans-53" d="M 3425 4513 
L 3425 3897 
Q 3066 4069 2747 4153 
Q 2428 4238 2131 4238 
Q 1616 4238 1336 4038 
Q 1056 3838 1056 3469 
Q 1056 3159 1242 3001 
Q 1428 2844 1947 2747 
L 2328 2669 
Q 3034 2534 3370 2195 
Q 3706 1856 3706 1288 
Q 3706 609 3251 259 
Q 2797 -91 1919 -91 
Q 1588 -91 1214 -16 
Q 841 59 441 206 
L 441 856 
Q 825 641 1194 531 
Q 1563 422 1919 422 
Q 2459 422 2753 634 
Q 3047 847 3047 1241 
Q 3047 1584 2836 1778 
Q 2625 1972 2144 2069 
L 1759 2144 
Q 1053 2284 737 2584 
Q 422 2884 422 3419 
Q 422 4038 858 4394 
Q 1294 4750 2059 4750 
Q 2388 4750 2728 4690 
Q 3069 4631 3425 4513 
z
" transform="scale(0.015625)"/>
       <path id="DejaVuSans-54" d="M -19 4666 
L 3928 4666 
L 3928 4134 
L 2272 4134 
L 2272 0 
L 1638 0 
L 1638 4134 
L -19 4134 
L -19 4666 
z
" transform="scale(0.015625)"/>
      </defs>
      <use xlink:href="#DejaVuSans-43"/>
      <use xlink:href="#DejaVuSans-53" x="69.824219"/>
      <use xlink:href="#DejaVuSans-54" x="133.300781"/>
     </g>
    </g>
   </g>
  </g>
 </g>
 <defs>
  <clipPath id="p2a90d20ba9">
   <path d="M 473.5825 262.917188 
C 473.5825 233.795931 467.846247 204.957842 456.702025 178.05331 
C 445.557803 151.148777 429.222338 126.701026 408.6305 106.109188 
C 388.038662 85.51735 363.590911 69.181885 336.686378 58.037662 
C 309.781845 46.89344 280.943756 41.157188 251.8225 41.157188 
C 222.701244 41.157188 193.863155 46.89344 166.958622 58.037662 
C 140.054089 69.181885 115.606338 85.51735 95.0145 106.109188 
C 74.422662 126.701026 58.087197 151.148777 46.942975 178.05331 
C 35.798753 204.957842 30.0625 233.795931 30.0625 262.917188 
C 30.0625 292.038444 35.798753 320.876533 46.942975 347.781065 
C 58.087197 374.685598 74.422662 399.133349 95.0145 419.725187 
C 115.606338 440.317025 140.054089 456.65249 166.958622 467.796713 
C 193.863155 478.940935 222.701244 484.677188 251.8225 484.677188 
C 280.943756 484.677188 309.781845 478.940935 336.686378 467.796713 
C 363.590911 456.65249 388.038662 440.317025 408.6305 419.725187 
C 429.222338 399.133349 445.557803 374.685598 456.702025 347.781065 
C 467.846247 320.876533 473.5825 292.038444 473.5825 262.917188 
M 251.8225 262.917188 
C 251.8225 262.917188 251.8225 262.917188 251.8225 262.917188 
C 251.8225 262.917188 251.8225 262.917188 251.8225 262.917188 
C 251.8225 262.917188 251.8225 262.917188 251.8225 262.917188 
C 251.8225 262.917188 251.8225 262.917188 251.8225 262.917188 
C 251.8225 262.917188 251.8225 262.917188 251.8225 262.917188 
C 251.8225 262.917188 251.8225 262.917188 251.8225 262.917188 
C 251.8225 262.917188 251.8225 262.917188 251.8225 262.917188 
C 251.8225 262.917188 251.8225 262.917188 251.8225 262.917188 
C 251.8225 262.917188 251.8225 262.917188 251.8225 262.917188 
C 251.8225 262.917188 251.8225 262.917188 251.8225 262.917188 
C 251.8225 262.917188 251.8225 262.917188 251.8225 262.917188 
C 251.8225 262.917188 251.8225 262.917188 251.8225 262.917188 
C 251.8225 262.917188 251.8225 262.917188 251.8225 262.917188 
C 251.8225 262.917188 251.8225 262.917188 251.8225 262.917188 
C 251.8225 262.917188 251.8225 262.917188 251.8225 262.917188 
C 251.8225 262.917188 251.8225 262.917188 251.8225 262.917188 
M 473.5825 262.917188 
z
"/>
  </clipPath>
 </defs>
</svg>
