<?xml version="1.0" encoding="utf-8" standalone="no"?>
<!DOCTYPE svg PUBLIC "-//W3C//DTD SVG 1.1//EN"
  "http://www.w3.org/Graphics/SVG/1.1/DTD/svg11.dtd">
<svg xmlns:xlink="http://www.w3.org/1999/xlink" width="506.82625pt" height="514.053188pt" viewBox="0 0 506.82625 514.053188" xmlns="http://www.w3.org/2000/svg" version="1.1">
 <metadata>
  <rdf:RDF xmlns:dc="http://purl.org/dc/elements/1.1/" xmlns:cc="http://creativecommons.org/ns#" xmlns:rdf="http://www.w3.org/1999/02/22-rdf-syntax-ns#">
   <cc:Work>
    <dc:type rdf:resource="http://purl.org/dc/dcmitype/StillImage"/>
    <dc:date>2023-11-04T18:02:29.772493</dc:date>
    <dc:format>image/svg+xml</dc:format>
    <dc:creator>
     <cc:Agent>
      <dc:title>Matplotlib v3.5.1, https://matplotlib.org/</dc:title>
     </cc:Agent>
    </dc:creator>
   </cc:Work>
  </rdf:RDF>
 </metadata>
 <defs>
  <style type="text/css">*{stroke-linejoin: round; stroke-linecap: butt}</style>
 </defs>
 <g id="figure_1">
  <g id="patch_1">
   <path d="M 0 514.053188 
L 506.82625 514.053188 
L 506.82625 0 
L 0 0 
z
" style="fill: #ffffff"/>
  </g>
  <g id="axes_1">
   <g id="patch_2">
    <path d="M 473.5825 262.917188 
C 473.5825 233.795931 467.846247 204.957842 456.702025 178.05331 
C 445.557803 151.148777 429.222338 126.701026 408.6305 106.109188 
C 388.038662 85.51735 363.590911 69.181885 336.686378 58.037662 
C 309.781845 46.89344 280.943756 41.157188 251.8225 41.157188 
C 222.701244 41.157188 193.863155 46.89344 166.958622 58.037662 
C 140.054089 69.181885 115.606338 85.51735 95.0145 106.109188 
C 74.422662 126.701026 58.087197 151.148777 46.942975 178.05331 
C 35.798753 204.957842 30.0625 233.795931 30.0625 262.917188 
C 30.0625 292.038444 35.798753 320.876533 46.942975 347.781065 
C 58.087197 374.685598 74.422662 399.133349 95.0145 419.725187 
C 115.606338 440.317025 140.054089 456.65249 166.958622 467.796713 
C 193.863155 478.940935 222.701244 484.677188 251.8225 484.677188 
C 280.943756 484.677188 309.781845 478.940935 336.686378 467.796713 
C 363.590911 456.65249 388.038662 440.317025 408.6305 419.725187 
C 429.222338 399.133349 445.557803 374.685598 456.702025 347.781065 
C 467.846247 320.876533 473.5825 292.038444 473.5825 262.917188 
M 251.8225 262.917188 
C 251.8225 262.917188 251.8225 262.917188 251.8225 262.917188 
C 251.8225 262.917188 251.8225 262.917188 251.8225 262.917188 
C 251.8225 262.917188 251.8225 262.917188 251.8225 262.917188 
C 251.8225 262.917188 251.8225 262.917188 251.8225 262.917188 
C 251.8225 262.917188 251.8225 262.917188 251.8225 262.917188 
C 251.8225 262.917188 251.8225 262.917188 251.8225 262.917188 
C 251.8225 262.917188 251.8225 262.917188 251.8225 262.917188 
C 251.8225 262.917188 251.8225 262.917188 251.8225 262.917188 
C 251.8225 262.917188 251.8225 262.917188 251.8225 262.917188 
C 251.8225 262.917188 251.8225 262.917188 251.8225 262.917188 
C 251.8225 262.917188 251.8225 262.917188 251.8225 262.917188 
C 251.8225 262.917188 251.8225 262.917188 251.8225 262.917188 
C 251.8225 262.917188 251.8225 262.917188 251.8225 262.917188 
C 251.8225 262.917188 251.8225 262.917188 251.8225 262.917188 
C 251.8225 262.917188 251.8225 262.917188 251.8225 262.917188 
C 251.8225 262.917188 251.8225 262.917188 251.8225 262.917188 
M 473.5825 262.917188 
z
" style="fill: #ffffff"/>
   </g>
   <g id="matplotlib.axis_1">
    <g id="xtick_1">
     <g id="line2d_1">
      <path d="M 251.8225 262.917188 
L 251.8225 41.157188 
" clip-path="url(#pc77f685324)" style="fill: none; stroke: #b0b0b0; stroke-width: 0.8; stroke-linecap: square"/>
     </g>
     <g id="text_1">
      <!-- 0° -->
      <g transform="translate(246.14125 29.916563)scale(0.1 -0.1)">
       <defs>
        <path id="DejaVuSans-30" d="M 2034 4250 
Q 1547 4250 1301 3770 
Q 1056 3291 1056 2328 
Q 1056 1369 1301 889 
Q 1547 409 2034 409 
Q 2525 409 2770 889 
Q 3016 1369 3016 2328 
Q 3016 3291 2770 3770 
Q 2525 4250 2034 4250 
z
M 2034 4750 
Q 2819 4750 3233 4129 
Q 3647 3509 3647 2328 
Q 3647 1150 3233 529 
Q 2819 -91 2034 -91 
Q 1250 -91 836 529 
Q 422 1150 422 2328 
Q 422 3509 836 4129 
Q 1250 4750 2034 4750 
z
" transform="scale(0.015625)"/>
        <path id="DejaVuSans-b0" d="M 1600 4347 
Q 1350 4347 1178 4173 
Q 1006 4000 1006 3750 
Q 1006 3503 1178 3333 
Q 1350 3163 1600 3163 
Q 1850 3163 2022 3333 
Q 2194 3503 2194 3750 
Q 2194 3997 2020 4172 
Q 1847 4347 1600 4347 
z
M 1600 4750 
Q 1800 4750 1984 4673 
Q 2169 4597 2303 4453 
Q 2447 4313 2519 4134 
Q 2591 3956 2591 3750 
Q 2591 3338 2302 3052 
Q 2013 2766 1594 2766 
Q 1172 2766 890 3047 
Q 609 3328 609 3750 
Q 609 4169 896 4459 
Q 1184 4750 1600 4750 
z
" transform="scale(0.015625)"/>
       </defs>
       <use xlink:href="#DejaVuSans-30"/>
       <use xlink:href="#DejaVuSans-b0" x="63.623047"/>
      </g>
     </g>
    </g>
    <g id="xtick_2">
     <g id="line2d_2">
      <path d="M 251.8225 262.917188 
L 95.0145 106.109188 
" clip-path="url(#pc77f685324)" style="fill: none; stroke: #b0b0b0; stroke-width: 0.8; stroke-linecap: square"/>
     </g>
     <g id="text_2">
      <!-- 45° -->
      <g transform="translate(76.252505 98.969068)scale(0.1 -0.1)">
       <defs>
        <path id="DejaVuSans-34" d="M 2419 4116 
L 825 1625 
L 2419 1625 
L 2419 4116 
z
M 2253 4666 
L 3047 4666 
L 3047 1625 
L 3713 1625 
L 3713 1100 
L 3047 1100 
L 3047 0 
L 2419 0 
L 2419 1100 
L 313 1100 
L 313 1709 
L 2253 4666 
z
" transform="scale(0.015625)"/>
        <path id="DejaVuSans-35" d="M 691 4666 
L 3169 4666 
L 3169 4134 
L 1269 4134 
L 1269 2991 
Q 1406 3038 1543 3061 
Q 1681 3084 1819 3084 
Q 2600 3084 3056 2656 
Q 3513 2228 3513 1497 
Q 3513 744 3044 326 
Q 2575 -91 1722 -91 
Q 1428 -91 1123 -41 
Q 819 9 494 109 
L 494 744 
Q 775 591 1075 516 
Q 1375 441 1709 441 
Q 2250 441 2565 725 
Q 2881 1009 2881 1497 
Q 2881 1984 2565 2268 
Q 2250 2553 1709 2553 
Q 1456 2553 1204 2497 
Q 953 2441 691 2322 
L 691 4666 
z
" transform="scale(0.015625)"/>
       </defs>
       <use xlink:href="#DejaVuSans-34"/>
       <use xlink:href="#DejaVuSans-35" x="63.623047"/>
       <use xlink:href="#DejaVuSans-b0" x="127.246094"/>
      </g>
     </g>
    </g>
    <g id="xtick_3">
     <g id="line2d_3">
      <path d="M 251.8225 262.917188 
L 30.0625 262.917188 
" clip-path="url(#pc77f685324)" style="fill: none; stroke: #b0b0b0; stroke-width: 0.8; stroke-linecap: square"/>
     </g>
     <g id="text_3">
      <!-- 90° -->
      <g transform="translate(7.2 265.676563)scale(0.1 -0.1)">
       <defs>
        <path id="DejaVuSans-39" d="M 703 97 
L 703 672 
Q 941 559 1184 500 
Q 1428 441 1663 441 
Q 2288 441 2617 861 
Q 2947 1281 2994 2138 
Q 2813 1869 2534 1725 
Q 2256 1581 1919 1581 
Q 1219 1581 811 2004 
Q 403 2428 403 3163 
Q 403 3881 828 4315 
Q 1253 4750 1959 4750 
Q 2769 4750 3195 4129 
Q 3622 3509 3622 2328 
Q 3622 1225 3098 567 
Q 2575 -91 1691 -91 
Q 1453 -91 1209 -44 
Q 966 3 703 97 
z
M 1959 2075 
Q 2384 2075 2632 2365 
Q 2881 2656 2881 3163 
Q 2881 3666 2632 3958 
Q 2384 4250 1959 4250 
Q 1534 4250 1286 3958 
Q 1038 3666 1038 3163 
Q 1038 2656 1286 2365 
Q 1534 2075 1959 2075 
z
" transform="scale(0.015625)"/>
       </defs>
       <use xlink:href="#DejaVuSans-39"/>
       <use xlink:href="#DejaVuSans-30" x="63.623047"/>
       <use xlink:href="#DejaVuSans-b0" x="127.246094"/>
      </g>
     </g>
    </g>
    <g id="xtick_4">
     <g id="line2d_4">
      <path d="M 251.8225 262.917188 
L 95.0145 419.725187 
" clip-path="url(#pc77f685324)" style="fill: none; stroke: #b0b0b0; stroke-width: 0.8; stroke-linecap: square"/>
     </g>
     <g id="text_4">
      <!-- 135° -->
      <g transform="translate(73.071255 432.384057)scale(0.1 -0.1)">
       <defs>
        <path id="DejaVuSans-31" d="M 794 531 
L 1825 531 
L 1825 4091 
L 703 3866 
L 703 4441 
L 1819 4666 
L 2450 4666 
L 2450 531 
L 3481 531 
L 3481 0 
L 794 0 
L 794 531 
z
" transform="scale(0.015625)"/>
        <path id="DejaVuSans-33" d="M 2597 2516 
Q 3050 2419 3304 2112 
Q 3559 1806 3559 1356 
Q 3559 666 3084 287 
Q 2609 -91 1734 -91 
Q 1441 -91 1130 -33 
Q 819 25 488 141 
L 488 750 
Q 750 597 1062 519 
Q 1375 441 1716 441 
Q 2309 441 2620 675 
Q 2931 909 2931 1356 
Q 2931 1769 2642 2001 
Q 2353 2234 1838 2234 
L 1294 2234 
L 1294 2753 
L 1863 2753 
Q 2328 2753 2575 2939 
Q 2822 3125 2822 3475 
Q 2822 3834 2567 4026 
Q 2313 4219 1838 4219 
Q 1578 4219 1281 4162 
Q 984 4106 628 3988 
L 628 4550 
Q 988 4650 1302 4700 
Q 1616 4750 1894 4750 
Q 2613 4750 3031 4423 
Q 3450 4097 3450 3541 
Q 3450 3153 3228 2886 
Q 3006 2619 2597 2516 
z
" transform="scale(0.015625)"/>
       </defs>
       <use xlink:href="#DejaVuSans-31"/>
       <use xlink:href="#DejaVuSans-33" x="63.623047"/>
       <use xlink:href="#DejaVuSans-35" x="127.246094"/>
       <use xlink:href="#DejaVuSans-b0" x="190.869141"/>
      </g>
     </g>
    </g>
    <g id="xtick_5">
     <g id="line2d_5">
      <path d="M 251.8225 262.917188 
L 251.8225 484.677188 
" clip-path="url(#pc77f685324)" style="fill: none; stroke: #b0b0b0; stroke-width: 0.8; stroke-linecap: square"/>
     </g>
     <g id="text_5">
      <!-- 180° -->
      <g transform="translate(239.77875 501.436563)scale(0.1 -0.1)">
       <defs>
        <path id="DejaVuSans-38" d="M 2034 2216 
Q 1584 2216 1326 1975 
Q 1069 1734 1069 1313 
Q 1069 891 1326 650 
Q 1584 409 2034 409 
Q 2484 409 2743 651 
Q 3003 894 3003 1313 
Q 3003 1734 2745 1975 
Q 2488 2216 2034 2216 
z
M 1403 2484 
Q 997 2584 770 2862 
Q 544 3141 544 3541 
Q 544 4100 942 4425 
Q 1341 4750 2034 4750 
Q 2731 4750 3128 4425 
Q 3525 4100 3525 3541 
Q 3525 3141 3298 2862 
Q 3072 2584 2669 2484 
Q 3125 2378 3379 2068 
Q 3634 1759 3634 1313 
Q 3634 634 3220 271 
Q 2806 -91 2034 -91 
Q 1263 -91 848 271 
Q 434 634 434 1313 
Q 434 1759 690 2068 
Q 947 2378 1403 2484 
z
M 1172 3481 
Q 1172 3119 1398 2916 
Q 1625 2713 2034 2713 
Q 2441 2713 2670 2916 
Q 2900 3119 2900 3481 
Q 2900 3844 2670 4047 
Q 2441 4250 2034 4250 
Q 1625 4250 1398 4047 
Q 1172 3844 1172 3481 
z
" transform="scale(0.015625)"/>
       </defs>
       <use xlink:href="#DejaVuSans-31"/>
       <use xlink:href="#DejaVuSans-38" x="63.623047"/>
       <use xlink:href="#DejaVuSans-30" x="127.246094"/>
       <use xlink:href="#DejaVuSans-b0" x="190.869141"/>
      </g>
     </g>
    </g>
    <g id="xtick_6">
     <g id="line2d_6">
      <path d="M 251.8225 262.917188 
L 408.6305 419.725187 
" clip-path="url(#pc77f685324)" style="fill: none; stroke: #b0b0b0; stroke-width: 0.8; stroke-linecap: square"/>
     </g>
     <g id="text_6">
      <!-- 225° -->
      <g transform="translate(406.486245 432.384057)scale(0.1 -0.1)">
       <defs>
        <path id="DejaVuSans-32" d="M 1228 531 
L 3431 531 
L 3431 0 
L 469 0 
L 469 531 
Q 828 903 1448 1529 
Q 2069 2156 2228 2338 
Q 2531 2678 2651 2914 
Q 2772 3150 2772 3378 
Q 2772 3750 2511 3984 
Q 2250 4219 1831 4219 
Q 1534 4219 1204 4116 
Q 875 4013 500 3803 
L 500 4441 
Q 881 4594 1212 4672 
Q 1544 4750 1819 4750 
Q 2544 4750 2975 4387 
Q 3406 4025 3406 3419 
Q 3406 3131 3298 2873 
Q 3191 2616 2906 2266 
Q 2828 2175 2409 1742 
Q 1991 1309 1228 531 
z
" transform="scale(0.015625)"/>
       </defs>
       <use xlink:href="#DejaVuSans-32"/>
       <use xlink:href="#DejaVuSans-32" x="63.623047"/>
       <use xlink:href="#DejaVuSans-35" x="127.246094"/>
       <use xlink:href="#DejaVuSans-b0" x="190.869141"/>
      </g>
     </g>
    </g>
    <g id="xtick_7">
     <g id="line2d_7">
      <path d="M 251.8225 262.917188 
L 473.5825 262.917188 
" clip-path="url(#pc77f685324)" style="fill: none; stroke: #b0b0b0; stroke-width: 0.8; stroke-linecap: square"/>
     </g>
     <g id="text_7">
      <!-- 270° -->
      <g transform="translate(475.53875 265.676563)scale(0.1 -0.1)">
       <defs>
        <path id="DejaVuSans-37" d="M 525 4666 
L 3525 4666 
L 3525 4397 
L 1831 0 
L 1172 0 
L 2766 4134 
L 525 4134 
L 525 4666 
z
" transform="scale(0.015625)"/>
       </defs>
       <use xlink:href="#DejaVuSans-32"/>
       <use xlink:href="#DejaVuSans-37" x="63.623047"/>
       <use xlink:href="#DejaVuSans-30" x="127.246094"/>
       <use xlink:href="#DejaVuSans-b0" x="190.869141"/>
      </g>
     </g>
    </g>
    <g id="xtick_8">
     <g id="line2d_8">
      <path d="M 251.8225 262.917188 
L 408.6305 106.109188 
" clip-path="url(#pc77f685324)" style="fill: none; stroke: #b0b0b0; stroke-width: 0.8; stroke-linecap: square"/>
     </g>
     <g id="text_8">
      <!-- 315° -->
      <g transform="translate(406.486245 98.969068)scale(0.1 -0.1)">
       <use xlink:href="#DejaVuSans-33"/>
       <use xlink:href="#DejaVuSans-31" x="63.623047"/>
       <use xlink:href="#DejaVuSans-35" x="127.246094"/>
       <use xlink:href="#DejaVuSans-b0" x="190.869141"/>
      </g>
     </g>
    </g>
   </g>
   <g id="matplotlib.axis_2">
    <g id="ytick_1">
     <g id="line2d_9">
      <path d="M 251.8225 242.491792 
C 249.140262 242.491792 246.484105 243.020134 244.006039 244.046583 
C 241.527974 245.073031 239.276193 246.577623 237.379564 248.474252 
C 235.482935 250.370881 233.978343 252.622662 232.951895 255.100727 
C 231.925447 257.578792 231.397104 260.234949 231.397104 262.917188 
C 231.397104 265.599426 231.925447 268.255583 232.951895 270.733648 
C 233.978343 273.211713 235.482935 275.463494 237.379564 277.360123 
C 239.276193 279.256752 241.527974 280.761344 244.006039 281.787792 
C 246.484105 282.814241 249.140262 283.342583 251.8225 283.342583 
C 254.504738 283.342583 257.160895 282.814241 259.638961 281.787792 
C 262.117026 280.761344 264.368807 279.256752 266.265436 277.360123 
C 268.162065 275.463494 269.666657 273.211713 270.693105 270.733648 
C 271.719553 268.255583 272.247896 265.599426 272.247896 262.917188 
C 272.247896 260.234949 271.719553 257.578792 270.693105 255.100727 
C 269.666657 252.622662 268.162065 250.370881 266.265436 248.474252 
C 264.368807 246.577623 262.117026 245.073031 259.638961 244.046583 
C 257.160895 243.020134 254.504738 242.491792 251.8225 242.491792 
" clip-path="url(#pc77f685324)" style="fill: none; stroke: #b0b0b0; stroke-width: 0.8; stroke-linecap: square"/>
     </g>
     <g id="text_9">
      <!-- −14 -->
      <g transform="translate(244.006039 241.966895)scale(0.1 -0.1)">
       <defs>
        <path id="DejaVuSans-2212" d="M 678 2272 
L 4684 2272 
L 4684 1741 
L 678 1741 
L 678 2272 
z
" transform="scale(0.015625)"/>
       </defs>
       <use xlink:href="#DejaVuSans-2212"/>
       <use xlink:href="#DejaVuSans-31" x="83.789062"/>
       <use xlink:href="#DejaVuSans-34" x="147.412109"/>
      </g>
     </g>
    </g>
    <g id="ytick_2">
     <g id="line2d_10">
      <path d="M 251.8225 213.729706 
C 245.363259 213.729706 238.966826 215.002035 232.999266 217.47388 
C 227.031705 219.945724 221.609071 223.569012 217.041698 228.136385 
C 212.474325 232.703759 208.851037 238.126393 206.379192 244.093953 
C 203.907348 250.061514 202.635018 256.457947 202.635018 262.917188 
C 202.635018 269.376428 203.907348 275.772861 206.379192 281.740422 
C 208.851037 287.707982 212.474325 293.130616 217.041698 297.69799 
C 221.609071 302.265363 227.031705 305.888651 232.999266 308.360495 
C 238.966826 310.83234 245.363259 312.104669 251.8225 312.104669 
C 258.281741 312.104669 264.678174 310.83234 270.645734 308.360495 
C 276.613295 305.888651 282.035929 302.265363 286.603302 297.69799 
C 291.170675 293.130616 294.793963 287.707982 297.265808 281.740422 
C 299.737652 275.772861 301.009982 269.376428 301.009982 262.917188 
C 301.009982 256.457947 299.737652 250.061514 297.265808 244.093953 
C 294.793963 238.126393 291.170675 232.703759 286.603302 228.136385 
C 282.035929 223.569012 276.613295 219.945724 270.645734 217.47388 
C 264.678174 215.002035 258.281741 213.729706 251.8225 213.729706 
" clip-path="url(#pc77f685324)" style="fill: none; stroke: #b0b0b0; stroke-width: 0.8; stroke-linecap: square"/>
     </g>
     <g id="text_10">
      <!-- −12 -->
      <g transform="translate(232.999266 215.394192)scale(0.1 -0.1)">
       <use xlink:href="#DejaVuSans-2212"/>
       <use xlink:href="#DejaVuSans-31" x="83.789062"/>
       <use xlink:href="#DejaVuSans-32" x="147.412109"/>
      </g>
     </g>
    </g>
    <g id="ytick_3">
     <g id="line2d_11">
      <path d="M 251.8225 184.967619 
C 241.586256 184.967619 231.449548 186.983936 221.992492 190.901177 
C 212.535436 194.818418 203.941949 200.560402 196.703832 207.798519 
C 189.465714 215.036636 183.72373 223.630123 179.806489 233.087179 
C 175.889248 242.544235 173.872932 252.680944 173.872932 262.917188 
C 173.872932 273.153431 175.889248 283.29014 179.806489 292.747196 
C 183.72373 302.204252 189.465714 310.797739 196.703832 318.035856 
C 203.941949 325.273973 212.535436 331.015957 221.992492 334.933198 
C 231.449548 338.850439 241.586256 340.866756 251.8225 340.866756 
C 262.058744 340.866756 272.195452 338.850439 281.652508 334.933198 
C 291.109564 331.015957 299.703051 325.273973 306.941168 318.035856 
C 314.179286 310.797739 319.92127 302.204252 323.838511 292.747196 
C 327.755752 283.29014 329.772068 273.153431 329.772068 262.917188 
C 329.772068 252.680944 327.755752 242.544235 323.838511 233.087179 
C 319.92127 223.630123 314.179286 215.036636 306.941168 207.798519 
C 299.703051 200.560402 291.109564 194.818418 281.652508 190.901177 
C 272.195452 186.983936 262.058744 184.967619 251.8225 184.967619 
" clip-path="url(#pc77f685324)" style="fill: none; stroke: #b0b0b0; stroke-width: 0.8; stroke-linecap: square"/>
     </g>
     <g id="text_11">
      <!-- −10 -->
      <g transform="translate(221.992492 188.821489)scale(0.1 -0.1)">
       <use xlink:href="#DejaVuSans-2212"/>
       <use xlink:href="#DejaVuSans-31" x="83.789062"/>
       <use xlink:href="#DejaVuSans-30" x="147.412109"/>
      </g>
     </g>
    </g>
    <g id="ytick_4">
     <g id="line2d_12">
      <path d="M 251.8225 156.205533 
C 237.809254 156.205533 223.932269 158.965837 210.985718 164.328474 
C 198.039166 169.691111 186.274827 177.551792 176.365965 187.460653 
C 166.457104 197.369514 158.596424 209.133854 153.233786 222.080405 
C 147.871149 235.026956 145.110845 248.903941 145.110845 262.917188 
C 145.110845 276.930434 147.871149 290.807419 153.233786 303.75397 
C 158.596424 316.700521 166.457104 328.464861 176.365965 338.373722 
C 186.274827 348.282583 198.039166 356.143264 210.985718 361.505901 
C 223.932269 366.868538 237.809254 369.628842 251.8225 369.628842 
C 265.835746 369.628842 279.712731 366.868538 292.659282 361.505901 
C 305.605834 356.143264 317.370173 348.282583 327.279035 338.373722 
C 337.187896 328.464861 345.048576 316.700521 350.411214 303.75397 
C 355.773851 290.807419 358.534155 276.930434 358.534155 262.917188 
C 358.534155 248.903941 355.773851 235.026956 350.411214 222.080405 
C 345.048576 209.133854 337.187896 197.369514 327.279035 187.460653 
C 317.370173 177.551792 305.605834 169.691111 292.659282 164.328474 
C 279.712731 158.965837 265.835746 156.205533 251.8225 156.205533 
" clip-path="url(#pc77f685324)" style="fill: none; stroke: #b0b0b0; stroke-width: 0.8; stroke-linecap: square"/>
     </g>
     <g id="text_12">
      <!-- −8 -->
      <g transform="translate(210.985718 162.248786)scale(0.1 -0.1)">
       <use xlink:href="#DejaVuSans-2212"/>
       <use xlink:href="#DejaVuSans-38" x="83.789062"/>
      </g>
     </g>
    </g>
    <g id="ytick_5">
     <g id="line2d_13">
      <path d="M 251.8225 127.443447 
C 234.032251 127.443447 216.41499 130.947738 199.978944 137.755771 
C 183.542897 144.563804 168.607705 154.543181 156.028099 167.122787 
C 143.448494 179.702392 133.469117 194.637585 126.661084 211.073631 
C 119.85305 227.509678 116.348759 245.126939 116.348759 262.917188 
C 116.348759 280.707436 119.85305 298.324697 126.661084 314.760744 
C 133.469117 331.19679 143.448494 346.131983 156.028099 358.711588 
C 168.607705 371.291194 183.542897 381.270571 199.978944 388.078604 
C 216.41499 394.886637 234.032251 398.390928 251.8225 398.390928 
C 269.612749 398.390928 287.23001 394.886637 303.666056 388.078604 
C 320.102103 381.270571 335.037295 371.291194 347.616901 358.711588 
C 360.196506 346.131983 370.175883 331.19679 376.983916 314.760744 
C 383.79195 298.324697 387.296241 280.707436 387.296241 262.917188 
C 387.296241 245.126939 383.79195 227.509678 376.983916 211.073631 
C 370.175883 194.637585 360.196506 179.702392 347.616901 167.122787 
C 335.037295 154.543181 320.102103 144.563804 303.666056 137.755771 
C 287.23001 130.947738 269.612749 127.443447 251.8225 127.443447 
" clip-path="url(#pc77f685324)" style="fill: none; stroke: #b0b0b0; stroke-width: 0.8; stroke-linecap: square"/>
     </g>
     <g id="text_13">
      <!-- −6 -->
      <g transform="translate(199.978944 135.676084)scale(0.1 -0.1)">
       <defs>
        <path id="DejaVuSans-36" d="M 2113 2584 
Q 1688 2584 1439 2293 
Q 1191 2003 1191 1497 
Q 1191 994 1439 701 
Q 1688 409 2113 409 
Q 2538 409 2786 701 
Q 3034 994 3034 1497 
Q 3034 2003 2786 2293 
Q 2538 2584 2113 2584 
z
M 3366 4563 
L 3366 3988 
Q 3128 4100 2886 4159 
Q 2644 4219 2406 4219 
Q 1781 4219 1451 3797 
Q 1122 3375 1075 2522 
Q 1259 2794 1537 2939 
Q 1816 3084 2150 3084 
Q 2853 3084 3261 2657 
Q 3669 2231 3669 1497 
Q 3669 778 3244 343 
Q 2819 -91 2113 -91 
Q 1303 -91 875 529 
Q 447 1150 447 2328 
Q 447 3434 972 4092 
Q 1497 4750 2381 4750 
Q 2619 4750 2861 4703 
Q 3103 4656 3366 4563 
z
" transform="scale(0.015625)"/>
       </defs>
       <use xlink:href="#DejaVuSans-2212"/>
       <use xlink:href="#DejaVuSans-36" x="83.789062"/>
      </g>
     </g>
    </g>
    <g id="ytick_6">
     <g id="line2d_14">
      <path d="M 251.8225 98.68136 
C 230.255249 98.68136 208.897712 102.929638 188.97217 111.183068 
C 169.046628 119.436498 150.940582 131.534571 135.690233 146.78492 
C 120.439883 162.03527 108.34181 180.141315 100.088381 200.066857 
C 91.834951 219.992399 87.586673 241.349936 87.586673 262.917188 
C 87.586673 284.484439 91.834951 305.841976 100.088381 325.767518 
C 108.34181 345.69306 120.439883 363.799105 135.690233 379.049455 
C 150.940582 394.299804 169.046628 406.397877 188.97217 414.651307 
C 208.897712 422.904737 230.255249 427.153015 251.8225 427.153015 
C 273.389751 427.153015 294.747288 422.904737 314.67283 414.651307 
C 334.598372 406.397877 352.704418 394.299804 367.954767 379.049455 
C 383.205117 363.799105 395.30319 345.69306 403.556619 325.767518 
C 411.810049 305.841976 416.058327 284.484439 416.058327 262.917188 
C 416.058327 241.349936 411.810049 219.992399 403.556619 200.066857 
C 395.30319 180.141315 383.205117 162.03527 367.954767 146.78492 
C 352.704418 131.534571 334.598372 119.436498 314.67283 111.183068 
C 294.747288 102.929638 273.389751 98.68136 251.8225 98.68136 
" clip-path="url(#pc77f685324)" style="fill: none; stroke: #b0b0b0; stroke-width: 0.8; stroke-linecap: square"/>
     </g>
     <g id="text_14">
      <!-- −4 -->
      <g transform="translate(188.97217 109.103381)scale(0.1 -0.1)">
       <use xlink:href="#DejaVuSans-2212"/>
       <use xlink:href="#DejaVuSans-34" x="83.789062"/>
      </g>
     </g>
    </g>
    <g id="ytick_7">
     <g id="line2d_15">
      <path d="M 251.8225 69.919274 
C 226.478246 69.919274 201.380433 74.911539 177.965396 84.610365 
C 154.550359 94.309191 133.27346 108.52596 115.352366 126.447054 
C 97.431273 144.368148 83.214504 165.645046 73.515678 189.060083 
C 63.816852 212.475121 58.824586 237.572934 58.824586 262.917188 
C 58.824586 288.261441 63.816852 313.359254 73.515678 336.774292 
C 83.214504 360.189329 97.431273 381.466227 115.352366 399.387321 
C 133.27346 417.308415 154.550359 431.525184 177.965396 441.22401 
C 201.380433 450.922836 226.478246 455.915101 251.8225 455.915101 
C 277.166754 455.915101 302.264567 450.922836 325.679604 441.22401 
C 349.094641 431.525184 370.37154 417.308415 388.292634 399.387321 
C 406.213727 381.466227 420.430496 360.189329 430.129322 336.774292 
C 439.828148 313.359254 444.820414 288.261441 444.820414 262.917188 
C 444.820414 237.572934 439.828148 212.475121 430.129322 189.060083 
C 420.430496 165.645046 406.213727 144.368148 388.292634 126.447054 
C 370.37154 108.52596 349.094641 94.309191 325.679604 84.610365 
C 302.264567 74.911539 277.166754 69.919274 251.8225 69.919274 
" clip-path="url(#pc77f685324)" style="fill: none; stroke: #b0b0b0; stroke-width: 0.8; stroke-linecap: square"/>
     </g>
     <g id="text_15">
      <!-- −2 -->
      <g transform="translate(177.965396 82.530678)scale(0.1 -0.1)">
       <use xlink:href="#DejaVuSans-2212"/>
       <use xlink:href="#DejaVuSans-32" x="83.789062"/>
      </g>
     </g>
    </g>
    <g id="ytick_8">
     <g id="line2d_16">
      <path d="M 251.8225 41.157188 
C 222.701244 41.157188 193.863155 46.89344 166.958622 58.037662 
C 140.054089 69.181885 115.606338 85.51735 95.0145 106.109188 
C 74.422662 126.701026 58.087197 151.148777 46.942975 178.05331 
C 35.798753 204.957842 30.0625 233.795931 30.0625 262.917188 
C 30.0625 292.038444 35.798753 320.876533 46.942975 347.781065 
C 58.087197 374.685598 74.422662 399.133349 95.0145 419.725187 
C 115.606338 440.317025 140.054089 456.65249 166.958622 467.796713 
C 193.863155 478.940935 222.701244 484.677188 251.8225 484.677188 
C 280.943756 484.677188 309.781845 478.940935 336.686378 467.796713 
C 363.590911 456.65249 388.038662 440.317025 408.6305 419.725187 
C 429.222338 399.133349 445.557803 374.685598 456.702025 347.781065 
C 467.846247 320.876533 473.5825 292.038444 473.5825 262.917188 
C 473.5825 233.795931 467.846247 204.957842 456.702025 178.05331 
C 445.557803 151.148777 429.222338 126.701026 408.6305 106.109188 
C 388.038662 85.51735 363.590911 69.181885 336.686378 58.037662 
C 309.781845 46.89344 280.943756 41.157188 251.8225 41.157188 
" clip-path="url(#pc77f685324)" style="fill: none; stroke: #b0b0b0; stroke-width: 0.8; stroke-linecap: square"/>
     </g>
     <g id="text_16">
      <!-- 0 -->
      <g transform="translate(166.958622 55.957975)scale(0.1 -0.1)">
       <use xlink:href="#DejaVuSans-30"/>
      </g>
     </g>
    </g>
   </g>
   <g id="line2d_17">
    <path d="M 251.8225 454.807761 
L 255.203578 456.619028 
L 258.69605 459.74991 
L 262.29579 462.759465 
L 265.983561 465.429792 
L 269.796496 468.360899 
L 273.570155 469.832307 
L 277.447912 471.619417 
L 281.372573 473.176881 
L 285.242332 473.9217 
L 289.067115 474.141898 
L 292.788983 473.671472 
L 296.422043 472.741541 
L 299.883088 471.090467 
L 303.171422 468.866463 
L 306.329871 466.341466 
L 308.960104 462.179692 
L 311.4157 457.837763 
L 314.159635 454.771162 
L 316.604191 451.056878 
L 319.277744 448.248948 
L 321.754669 445.096715 
L 323.722136 440.875031 
L 325.766202 437.117633 
L 327.572654 433.054819 
L 329.004927 428.435437 
L 330.892099 425.03389 
L 333.023853 422.283816 
L 335.252697 419.826568 
L 337.992381 418.371768 
L 341.361032 418.002474 
L 344.965041 417.932407 
L 351.391303 416.239699 
L 354.486241 415.122443 
L 360.251219 412.156516 
L 363.548978 411.183232 
L 366.633084 409.868034 
L 369.343149 408.043103 
L 371.51602 405.56237 
L 374.119379 403.603654 
L 377.633824 402.644818 
L 380.739795 401.16406 
L 383.442588 399.213778 
L 386.258847 397.353534 
L 392.29911 393.913746 
L 394.863162 391.711578 
L 396.568179 388.742687 
L 398.103134 385.661213 
L 399.47423 382.483201 
L 401.164487 379.595935 
L 402.523409 376.478468 
L 403.400365 373.044953 
L 403.862081 369.376449 
L 402.212769 356.891458 
L 399.98393 351.941556 
L 398.115016 347.379211 
L 396.661296 343.202643 
L 393.659702 338.333365 
L 391.827774 334.253437 
L 389.509826 330.071783 
L 380.720776 320.306397 
L 374.779344 315.109271 
L 365.671091 308.915004 
L 358.91119 304.024684 
L 350.814847 298.947455 
L 341.787927 293.894768 
L 335.189045 290.00462 
L 322.439363 283.166247 
L 318.336876 280.739661 
L 308.086722 275.906807 
L 304.999159 274.220235 
L 300.303905 272.341018 
L 286.859848 267.841366 
L 283.220256 266.217225 
L 282.356184 265.588539 
L 286.49507 264.7343 
L 287.95873 264.179092 
L 290.203972 263.587139 
L 298.50768 262.917188 
L 309.227194 261.915185 
L 320.310738 260.525526 
L 330.368947 258.800743 
L 338.089372 256.88482 
L 345.377661 254.732172 
L 351.728093 252.416687 
L 356.168619 250.105095 
L 362.949981 247.299239 
L 369.364767 244.300321 
L 377.692328 238.450571 
L 380.368982 235.593789 
L 385.434941 229.603864 
L 387.305795 226.614548 
L 387.425733 224.033586 
L 388.03297 221.273468 
L 388.201813 218.604863 
L 388.20994 215.955226 
L 389.329064 212.868891 
L 389.4953 210.069551 
L 389.178706 207.421678 
L 388.454012 204.920552 
L 387.389418 199.701295 
L 388.139713 196.43084 
L 387.996506 193.533066 
L 387.539407 190.755228 
L 386.548629 188.237275 
L 385.349309 185.825448 
L 383.88492 183.56608 
L 382.748247 181.105701 
L 380.998975 179.029004 
L 379.729853 176.642588 
L 378.122211 174.481178 
L 373.982658 170.862906 
L 370.816275 169.949062 
L 365.251876 167.73864 
L 361.674141 167.424612 
L 358.804556 166.590111 
L 355.424302 166.306944 
L 351.405194 166.751297 
L 348.369402 166.370286 
L 337.670351 167.57349 
L 333.483639 168.976793 
L 330.445122 169.218395 
L 327.693743 169.224005 
L 324.656961 169.693328 
L 322.47364 169.159958 
L 320.615266 168.232068 
L 319.46372 166.315514 
L 317.844802 161.251757 
L 317.294356 149.516606 
L 317.501473 144.429184 
L 317.145199 140.063059 
L 317.306474 128.655144 
L 316.569971 124.065789 
L 316.412195 117.846358 
L 316.084456 111.525506 
L 315.005592 106.533548 
L 314.4261 99.829233 
L 313.213103 94.247893 
L 311.730219 88.93254 
L 310.488902 82.360568 
L 304.06312 67.95254 
L 301.337942 64.321599 
L 295.447307 57.678605 
L 292.297801 54.689815 
L 289.127049 51.352575 
L 285.845249 48.106006 
L 282.283235 46.177799 
L 278.63618 44.537289 
L 274.914042 43.215845 
L 271.117569 42.373536 
L 267.291696 41.697384 
L 263.415727 41.705245 
L 255.674926 42.211861 
L 247.992161 43.4772 
L 244.214181 45.043443 
L 236.786674 47.894861 
L 233.154126 49.536695 
L 229.527669 50.796044 
L 225.890382 51.717035 
L 222.308453 52.913834 
L 211.448728 55.212137 
L 207.892714 56.243793 
L 204.457443 57.756587 
L 201.207666 59.912177 
L 198.052102 62.243331 
L 195.338949 65.935635 
L 192.763285 69.7432 
L 190.196403 73.251562 
L 186.939687 84.653123 
L 185.631921 90.484834 
L 185.660268 99.159917 
L 185.385944 106.40247 
L 185.671043 114.338582 
L 187.293826 124.535 
L 188.078495 132.222609 
L 189.561361 140.722822 
L 191.691697 149.827596 
L 193.46207 161.833957 
L 193.773306 166.307104 
L 193.521156 169.615534 
L 192.872925 172.142802 
L 190.421118 171.885895 
L 187.612709 171.216102 
L 185.988272 172.304146 
L 185.836259 175.350488 
L 186.115391 178.815924 
L 186.973373 185.633007 
L 188.398855 189.95663 
L 195.458896 200.319064 
L 202.584161 210.115534 
L 213.368332 223.096731 
L 233.85038 245.561713 
L 238.230568 250.242506 
L 239.582452 251.896199 
L 238.187234 251.064232 
L 237.332474 250.758612 
L 232.587989 247.889541 
L 228.860116 245.61379 
L 227.747212 245.425467 
L 230.685178 248.116675 
L 236.534374 252.605216 
L 242.966139 257.165799 
L 242.196342 256.902097 
L 234.06798 252.249195 
L 225.129094 247.505743 
L 215.380424 242.717015 
L 198.678785 234.660173 
L 185.649209 229.200211 
L 173.179296 224.560334 
L 157.780795 219.06482 
L 149.488728 217.355257 
L 142.063763 216.327368 
L 134.53377 215.529465 
L 130.327861 216.279765 
L 127.167522 217.546486 
L 124.504621 219.078126 
L 122.897253 221.026835 
L 121.841985 223.178156 
L 121.804141 225.635023 
L 121.923395 228.110827 
L 122.396218 230.647591 
L 123.211957 233.225104 
L 124.260693 235.803088 
L 127.053784 238.664606 
L 129.198782 241.295318 
L 130.004832 243.623164 
L 129.117015 245.672056 
L 127.492993 247.651444 
L 126.616205 249.757476 
L 127.035964 251.99978 
L 128.184268 254.27156 
L 128.68411 256.463778 
L 131.078959 260.809601 
L 131.837143 262.917188 
L 132.761285 264.995409 
L 132.973783 267.067476 
L 132.688915 271.247819 
L 134.070187 273.21918 
L 136.170116 275.072743 
L 139.641179 278.683244 
L 141.708919 280.357465 
L 142.78068 282.144202 
L 143.189313 284.03334 
L 144.319925 285.767565 
L 144.819167 287.620853 
L 146.466635 289.185355 
L 147.524547 290.86374 
L 147.972039 294.66746 
L 145.472033 299.53659 
L 143.775934 302.242922 
L 141.699565 305.189422 
L 140.640683 307.837557 
L 139.813333 310.462258 
L 138.479304 313.380829 
L 138.686496 315.673373 
L 137.608056 318.623294 
L 136.278395 321.78985 
L 135.406109 324.816881 
L 132.391151 329.119066 
L 129.716329 333.415218 
L 127.600026 337.55758 
L 124.628673 342.396712 
L 122.007559 350.478471 
L 119.962506 355.24655 
L 119.17398 359.291978 
L 117.752178 363.946422 
L 115.365471 369.529103 
L 114.832836 373.84923 
L 114.707609 377.970242 
L 114.695985 382.119448 
L 115.226219 385.909032 
L 115.14315 394.906902 
L 116.08453 398.655158 
L 117.205439 402.317235 
L 119.040913 405.308006 
L 121.228647 407.956355 
L 125.380892 413.604428 
L 128.274362 415.486432 
L 131.522526 416.894132 
L 134.539687 418.556737 
L 137.730294 419.951637 
L 141.27192 420.799778 
L 144.888575 421.453251 
L 148.016326 422.764677 
L 151.545835 423.393397 
L 161.455434 425.94369 
L 164.699237 426.772214 
L 167.670104 428.075564 
L 173.181427 431.563513 
L 175.844224 433.56719 
L 178.435091 435.807089 
L 181.237349 437.621566 
L 186.413396 442.627224 
L 189.049392 445.223532 
L 191.78735 447.68638 
L 194.836158 449.311114 
L 201.178656 451.922587 
L 204.436261 452.973011 
L 207.78629 453.658969 
L 211.268409 453.709184 
L 214.812912 453.315013 
L 218.388676 452.529827 
L 225.426719 450.732926 
L 228.838269 450.108726 
L 232.14479 450.138092 
L 235.467885 449.851295 
L 238.717778 450.323442 
L 241.947563 451.342204 
L 245.213447 452.175717 
L 248.496889 453.441302 
L 248.496889 453.441302 
" clip-path="url(#pc77f685324)" style="fill: none; stroke: #ff0000; stroke-width: 1.5; stroke-linecap: square"/>
   </g>
   <g id="line2d_18">
    <path d="M 251.8225 59.098977 
L 244.598429 56.046863 
L 240.909364 54.682146 
L 237.173497 53.426683 
L 233.394276 52.281618 
L 229.576675 51.262298 
L 225.724936 50.369583 
L 221.845317 49.618446 
L 217.944856 49.022163 
L 214.02999 48.585211 
L 210.109091 48.320304 
L 206.190514 48.235574 
L 202.283826 48.341616 
L 198.398998 48.647222 
L 194.547384 49.163545 
L 190.739178 49.894328 
L 186.986151 50.847045 
L 183.300669 52.028675 
L 179.695204 53.444311 
L 176.182694 55.09853 
L 172.776004 56.994026 
L 169.488332 59.13297 
L 166.333752 61.518317 
L 163.324973 64.148487 
L 160.476013 67.024014 
L 157.80304 70.148727 
L 155.314895 73.510348 
L 153.02996 77.115444 
L 150.959683 80.955848 
L 149.115247 85.023007 
L 147.522379 89.332635 
L 146.177749 93.850245 
L 145.115177 98.602319 
L 144.330476 103.553708 
L 143.850441 108.717106 
L 143.677801 114.068778 
L 143.840057 119.619646 
L 144.339366 125.345049 
L 145.194772 131.24291 
L 146.407195 137.288119 
L 148.004646 143.488408 
L 149.987335 149.817779 
L 152.354249 156.250548 
L 155.123149 162.782078 
L 158.291704 169.386391 
L 161.84604 176.02793 
L 165.780931 182.682127 
L 170.057956 189.296061 
L 174.646439 195.829061 
L 179.491346 202.224143 
L 184.489431 208.391943 
L 189.520273 214.241353 
L 199.144937 224.644697 
L 209.757498 235.599856 
L 211.604357 237.786102 
L 212.40458 239.232512 
L 212.121773 239.995962 
L 210.847333 240.204281 
L 208.933454 240.112677 
L 192.150379 237.587875 
L 188.383942 237.286346 
L 184.589819 237.108979 
L 181.041478 237.155003 
L 177.475212 237.317363 
L 174.167548 237.685564 
L 171.126017 238.245797 
L 168.191774 238.936463 
L 165.46619 239.778084 
L 162.940568 240.756433 
L 160.605602 241.858107 
L 158.465482 243.073541 
L 156.49583 244.38756 
L 154.699893 245.791851 
L 153.066428 247.275762 
L 151.583755 248.829551 
L 150.239798 250.4444 
L 149.007827 252.11093 
L 146.885728 255.579294 
L 145.112613 259.190796 
L 143.566321 262.917188 
L 141.445592 268.701796 
L 138.506695 276.830619 
L 135.920335 283.353866 
L 132.902973 290.371924 
L 124.499906 309.258822 
L 121.994598 315.371065 
L 119.595122 321.788609 
L 117.348477 328.504551 
L 115.338652 335.486937 
L 113.632783 342.701058 
L 112.901359 346.38943 
L 111.750156 353.881231 
L 111.040136 361.49406 
L 110.850653 365.33923 
L 110.799031 369.185994 
L 110.861969 373.047624 
L 111.05082 376.911846 
L 111.376214 380.765614 
L 111.848024 384.595143 
L 112.443272 388.414808 
L 113.182268 392.201296 
L 114.063146 395.949849 
L 115.083907 399.655781 
L 116.252401 403.304135 
L 117.556005 406.900375 
L 119.011555 410.418686 
L 120.605948 413.864563 
L 122.335932 417.23327 
L 124.216215 420.497826 
L 126.22438 423.675451 
L 128.374059 426.738802 
L 130.660234 429.682739 
L 133.069485 432.51407 
L 135.613189 435.204576 
L 138.277424 437.761272 
L 141.056577 440.179718 
L 143.952308 442.443334 
L 146.9509 444.560127 
L 150.053314 446.513659 
L 153.259511 448.287209 
L 156.54232 449.91507 
L 159.914958 451.355574 
L 163.357446 452.631107 
L 166.869062 453.725733 
L 170.436834 454.649802 
L 174.048625 455.414284 
L 177.703461 456.003884 
L 181.389531 456.430179 
L 185.095903 456.705298 
L 188.812545 456.841888 
L 192.534554 456.83932 
L 199.948878 456.51218 
L 207.280331 455.850517 
L 228.423953 453.483064 
L 235.18161 453.123426 
L 241.851676 453.171838 
L 248.493275 453.648357 
L 255.166282 454.482331 
L 265.332904 456.124969 
L 272.244909 457.223433 
L 279.257836 458.129747 
L 286.336132 458.653719 
L 289.88415 458.727403 
L 293.427272 458.652251 
L 296.959915 458.42881 
L 300.469561 458.029892 
L 303.952946 457.47066 
L 307.391964 456.710939 
L 310.782486 455.766613 
L 314.116973 454.639861 
L 317.387959 453.333107 
L 320.578224 451.821986 
L 323.689369 450.136783 
L 326.703431 448.253995 
L 329.628786 446.21731 
L 332.441609 443.990671 
L 335.145827 441.604638 
L 337.741019 439.076257 
L 340.208207 436.383905 
L 342.560511 433.570566 
L 344.778992 430.615138 
L 346.879038 427.559941 
L 348.849159 424.396665 
L 350.684746 421.129853 
L 352.404826 417.800387 
L 353.990868 414.388022 
L 355.455781 410.920852 
L 356.805791 407.414291 
L 359.172827 400.31934 
L 361.111023 393.162177 
L 362.69347 386.051875 
L 363.956265 379.035101 
L 364.940405 372.153878 
L 365.691387 365.445193 
L 366.24777 358.931389 
L 366.717113 349.496488 
L 366.794312 343.421317 
L 366.675381 337.503521 
L 366.33626 331.723996 
L 365.762319 326.075061 
L 364.937146 320.551978 
L 363.855857 315.1592 
L 362.499942 309.896974 
L 360.890162 304.78434 
L 359.035051 299.833429 
L 356.998718 295.072784 
L 354.820253 290.515352 
L 351.481437 284.100348 
L 347.347445 276.342343 
L 345.655352 272.779418 
L 344.335625 269.386335 
L 343.470235 266.117597 
L 343.224554 264.512616 
L 343.109048 262.917188 
L 343.109523 261.323767 
L 343.225906 259.72531 
L 343.804823 256.485157 
L 344.782914 253.146654 
L 346.023024 249.678167 
L 349.555191 240.353818 
L 350.764075 236.405872 
L 351.662686 232.39298 
L 352.154694 228.370043 
L 352.198656 226.383254 
L 352.123075 224.415404 
L 351.875868 222.493003 
L 351.486076 220.61251 
L 350.916506 218.797693 
L 350.170523 217.056751 
L 349.251765 215.39776 
L 348.138512 213.841728 
L 346.835636 212.397807 
L 345.323161 211.088925 
L 343.632222 209.91082 
L 341.719321 208.901728 
L 339.616523 208.057393 
L 337.306949 207.402937 
L 334.799002 206.94883 
L 332.101444 206.705266 
L 329.200124 206.699053 
L 326.128374 206.923695 
L 322.896018 207.38847 
L 319.50203 208.111384 
L 316.023463 209.046183 
L 312.360129 210.29263 
L 308.760684 211.649817 
L 301.454019 214.988587 
L 294.656246 218.561545 
L 289.233045 221.368569 
L 287.181349 222.241484 
L 285.818998 222.401738 
L 285.197231 221.702827 
L 285.181167 220.220041 
L 285.815674 217.806721 
L 287.051923 214.428047 
L 292.924992 199.6249 
L 295.09107 193.673001 
L 297.223869 187.356621 
L 299.19869 180.85922 
L 300.959544 174.271613 
L 302.463407 167.675493 
L 303.672723 161.155394 
L 304.587051 154.733827 
L 305.182808 148.485638 
L 305.476349 142.40867 
L 305.466565 136.539691 
L 305.159884 130.902531 
L 304.579431 125.480682 
L 303.727078 120.310531 
L 302.625582 115.374323 
L 301.291627 110.666869 
L 299.732771 106.209753 
L 297.969648 101.982956 
L 296.013733 97.993262 
L 293.883645 94.219149 
L 291.592998 90.652233 
L 289.154581 87.283557 
L 286.577591 84.117744 
L 283.876348 81.13078 
L 281.061056 78.312208 
L 278.139023 75.665396 
L 275.121149 73.16492 
L 272.014915 70.799189 
L 268.826873 68.556316 
L 265.560624 66.452861 
L 262.223084 64.462215 
L 258.818712 62.571879 
L 255.350755 60.783588 
L 255.350755 60.783588 
" clip-path="url(#pc77f685324)" style="fill: none; stroke-dasharray: 5.55,2.4; stroke-dashoffset: 0; stroke: #0000ff; stroke-width: 1.5"/>
   </g>
   <g id="patch_3">
    <path d="M 251.8225 41.157188 
C 222.701244 41.157188 193.863155 46.89344 166.958622 58.037662 
C 140.054089 69.181885 115.606338 85.51735 95.0145 106.109188 
C 74.422662 126.701026 58.087197 151.148777 46.942975 178.05331 
C 35.798753 204.957842 30.0625 233.795931 30.0625 262.917188 
C 30.0625 292.038444 35.798753 320.876533 46.942975 347.781065 
C 58.087197 374.685598 74.422662 399.133349 95.0145 419.725187 
C 115.606338 440.317025 140.054089 456.65249 166.958622 467.796713 
C 193.863155 478.940935 222.701244 484.677188 251.8225 484.677188 
C 280.943756 484.677188 309.781845 478.940935 336.686378 467.796713 
C 363.590911 456.65249 388.038662 440.317025 408.6305 419.725187 
C 429.222338 399.133349 445.557803 374.685598 456.702025 347.781065 
C 467.846247 320.876533 473.5825 292.038444 473.5825 262.917188 
C 473.5825 233.795931 467.846247 204.957842 456.702025 178.05331 
C 445.557803 151.148777 429.222338 126.701026 408.6305 106.109188 
C 388.038662 85.51735 363.590911 69.181885 336.686378 58.037662 
C 309.781845 46.89344 280.943756 41.157188 251.8225 41.157188 
" style="fill: none; stroke: #000000; stroke-width: 0.8; stroke-linejoin: miter; stroke-linecap: square"/>
   </g>
   <g id="text_17">
    <g id="patch_4">
     <path d="M 384.8785 509.853188 
L 485.369125 509.853188 
Q 488.369125 509.853188 488.369125 506.853188 
L 488.369125 473.945063 
Q 488.369125 470.945063 485.369125 470.945063 
L 384.8785 470.945063 
Q 381.8785 470.945063 381.8785 473.945063 
L 381.8785 506.853188 
Q 381.8785 509.853188 384.8785 509.853188 
z
" style="fill: #ffffff; stroke: #808080; stroke-linejoin: miter"/>
    </g>
    <!-- G_cst: -0.5 dBi -->
    <g transform="translate(384.8785 481.821625)scale(0.1 -0.1)">
     <defs>
      <path id="DejaVuSans-47" d="M 3809 666 
L 3809 1919 
L 2778 1919 
L 2778 2438 
L 4434 2438 
L 4434 434 
Q 4069 175 3628 42 
Q 3188 -91 2688 -91 
Q 1594 -91 976 548 
Q 359 1188 359 2328 
Q 359 3472 976 4111 
Q 1594 4750 2688 4750 
Q 3144 4750 3555 4637 
Q 3966 4525 4313 4306 
L 4313 3634 
Q 3963 3931 3569 4081 
Q 3175 4231 2741 4231 
Q 1884 4231 1454 3753 
Q 1025 3275 1025 2328 
Q 1025 1384 1454 906 
Q 1884 428 2741 428 
Q 3075 428 3337 486 
Q 3600 544 3809 666 
z
" transform="scale(0.015625)"/>
      <path id="DejaVuSans-5f" d="M 3263 -1063 
L 3263 -1509 
L -63 -1509 
L -63 -1063 
L 3263 -1063 
z
" transform="scale(0.015625)"/>
      <path id="DejaVuSans-63" d="M 3122 3366 
L 3122 2828 
Q 2878 2963 2633 3030 
Q 2388 3097 2138 3097 
Q 1578 3097 1268 2742 
Q 959 2388 959 1747 
Q 959 1106 1268 751 
Q 1578 397 2138 397 
Q 2388 397 2633 464 
Q 2878 531 3122 666 
L 3122 134 
Q 2881 22 2623 -34 
Q 2366 -91 2075 -91 
Q 1284 -91 818 406 
Q 353 903 353 1747 
Q 353 2603 823 3093 
Q 1294 3584 2113 3584 
Q 2378 3584 2631 3529 
Q 2884 3475 3122 3366 
z
" transform="scale(0.015625)"/>
      <path id="DejaVuSans-73" d="M 2834 3397 
L 2834 2853 
Q 2591 2978 2328 3040 
Q 2066 3103 1784 3103 
Q 1356 3103 1142 2972 
Q 928 2841 928 2578 
Q 928 2378 1081 2264 
Q 1234 2150 1697 2047 
L 1894 2003 
Q 2506 1872 2764 1633 
Q 3022 1394 3022 966 
Q 3022 478 2636 193 
Q 2250 -91 1575 -91 
Q 1294 -91 989 -36 
Q 684 19 347 128 
L 347 722 
Q 666 556 975 473 
Q 1284 391 1588 391 
Q 1994 391 2212 530 
Q 2431 669 2431 922 
Q 2431 1156 2273 1281 
Q 2116 1406 1581 1522 
L 1381 1569 
Q 847 1681 609 1914 
Q 372 2147 372 2553 
Q 372 3047 722 3315 
Q 1072 3584 1716 3584 
Q 2034 3584 2315 3537 
Q 2597 3491 2834 3397 
z
" transform="scale(0.015625)"/>
      <path id="DejaVuSans-74" d="M 1172 4494 
L 1172 3500 
L 2356 3500 
L 2356 3053 
L 1172 3053 
L 1172 1153 
Q 1172 725 1289 603 
Q 1406 481 1766 481 
L 2356 481 
L 2356 0 
L 1766 0 
Q 1100 0 847 248 
Q 594 497 594 1153 
L 594 3053 
L 172 3053 
L 172 3500 
L 594 3500 
L 594 4494 
L 1172 4494 
z
" transform="scale(0.015625)"/>
      <path id="DejaVuSans-3a" d="M 750 794 
L 1409 794 
L 1409 0 
L 750 0 
L 750 794 
z
M 750 3309 
L 1409 3309 
L 1409 2516 
L 750 2516 
L 750 3309 
z
" transform="scale(0.015625)"/>
      <path id="DejaVuSans-20" transform="scale(0.015625)"/>
      <path id="DejaVuSans-2d" d="M 313 2009 
L 1997 2009 
L 1997 1497 
L 313 1497 
L 313 2009 
z
" transform="scale(0.015625)"/>
      <path id="DejaVuSans-2e" d="M 684 794 
L 1344 794 
L 1344 0 
L 684 0 
L 684 794 
z
" transform="scale(0.015625)"/>
      <path id="DejaVuSans-64" d="M 2906 2969 
L 2906 4863 
L 3481 4863 
L 3481 0 
L 2906 0 
L 2906 525 
Q 2725 213 2448 61 
Q 2172 -91 1784 -91 
Q 1150 -91 751 415 
Q 353 922 353 1747 
Q 353 2572 751 3078 
Q 1150 3584 1784 3584 
Q 2172 3584 2448 3432 
Q 2725 3281 2906 2969 
z
M 947 1747 
Q 947 1113 1208 752 
Q 1469 391 1925 391 
Q 2381 391 2643 752 
Q 2906 1113 2906 1747 
Q 2906 2381 2643 2742 
Q 2381 3103 1925 3103 
Q 1469 3103 1208 2742 
Q 947 2381 947 1747 
z
" transform="scale(0.015625)"/>
      <path id="DejaVuSans-42" d="M 1259 2228 
L 1259 519 
L 2272 519 
Q 2781 519 3026 730 
Q 3272 941 3272 1375 
Q 3272 1813 3026 2020 
Q 2781 2228 2272 2228 
L 1259 2228 
z
M 1259 4147 
L 1259 2741 
L 2194 2741 
Q 2656 2741 2882 2914 
Q 3109 3088 3109 3444 
Q 3109 3797 2882 3972 
Q 2656 4147 2194 4147 
L 1259 4147 
z
M 628 4666 
L 2241 4666 
Q 2963 4666 3353 4366 
Q 3744 4066 3744 3513 
Q 3744 3084 3544 2831 
Q 3344 2578 2956 2516 
Q 3422 2416 3680 2098 
Q 3938 1781 3938 1306 
Q 3938 681 3513 340 
Q 3088 0 2303 0 
L 628 0 
L 628 4666 
z
" transform="scale(0.015625)"/>
      <path id="DejaVuSans-69" d="M 603 3500 
L 1178 3500 
L 1178 0 
L 603 0 
L 603 3500 
z
M 603 4863 
L 1178 4863 
L 1178 4134 
L 603 4134 
L 603 4863 
z
" transform="scale(0.015625)"/>
     </defs>
     <use xlink:href="#DejaVuSans-47"/>
     <use xlink:href="#DejaVuSans-5f" x="77.490234"/>
     <use xlink:href="#DejaVuSans-63" x="127.490234"/>
     <use xlink:href="#DejaVuSans-73" x="182.470703"/>
     <use xlink:href="#DejaVuSans-74" x="234.570312"/>
     <use xlink:href="#DejaVuSans-3a" x="273.779297"/>
     <use xlink:href="#DejaVuSans-20" x="307.470703"/>
     <use xlink:href="#DejaVuSans-2d" x="339.257812"/>
     <use xlink:href="#DejaVuSans-30" x="375.341797"/>
     <use xlink:href="#DejaVuSans-2e" x="438.964844"/>
     <use xlink:href="#DejaVuSans-35" x="470.751953"/>
     <use xlink:href="#DejaVuSans-20" x="534.375"/>
     <use xlink:href="#DejaVuSans-64" x="566.162109"/>
     <use xlink:href="#DejaVuSans-42" x="629.638672"/>
     <use xlink:href="#DejaVuSans-69" x="698.242188"/>
    </g>
    <!-- G_inpe: -1.4 dBi -->
    <g transform="translate(384.8785 493.297563)scale(0.1 -0.1)">
     <defs>
      <path id="DejaVuSans-6e" d="M 3513 2113 
L 3513 0 
L 2938 0 
L 2938 2094 
Q 2938 2591 2744 2837 
Q 2550 3084 2163 3084 
Q 1697 3084 1428 2787 
Q 1159 2491 1159 1978 
L 1159 0 
L 581 0 
L 581 3500 
L 1159 3500 
L 1159 2956 
Q 1366 3272 1645 3428 
Q 1925 3584 2291 3584 
Q 2894 3584 3203 3211 
Q 3513 2838 3513 2113 
z
" transform="scale(0.015625)"/>
      <path id="DejaVuSans-70" d="M 1159 525 
L 1159 -1331 
L 581 -1331 
L 581 3500 
L 1159 3500 
L 1159 2969 
Q 1341 3281 1617 3432 
Q 1894 3584 2278 3584 
Q 2916 3584 3314 3078 
Q 3713 2572 3713 1747 
Q 3713 922 3314 415 
Q 2916 -91 2278 -91 
Q 1894 -91 1617 61 
Q 1341 213 1159 525 
z
M 3116 1747 
Q 3116 2381 2855 2742 
Q 2594 3103 2138 3103 
Q 1681 3103 1420 2742 
Q 1159 2381 1159 1747 
Q 1159 1113 1420 752 
Q 1681 391 2138 391 
Q 2594 391 2855 752 
Q 3116 1113 3116 1747 
z
" transform="scale(0.015625)"/>
      <path id="DejaVuSans-65" d="M 3597 1894 
L 3597 1613 
L 953 1613 
Q 991 1019 1311 708 
Q 1631 397 2203 397 
Q 2534 397 2845 478 
Q 3156 559 3463 722 
L 3463 178 
Q 3153 47 2828 -22 
Q 2503 -91 2169 -91 
Q 1331 -91 842 396 
Q 353 884 353 1716 
Q 353 2575 817 3079 
Q 1281 3584 2069 3584 
Q 2775 3584 3186 3129 
Q 3597 2675 3597 1894 
z
M 3022 2063 
Q 3016 2534 2758 2815 
Q 2500 3097 2075 3097 
Q 1594 3097 1305 2825 
Q 1016 2553 972 2059 
L 3022 2063 
z
" transform="scale(0.015625)"/>
     </defs>
     <use xlink:href="#DejaVuSans-47"/>
     <use xlink:href="#DejaVuSans-5f" x="77.490234"/>
     <use xlink:href="#DejaVuSans-69" x="127.490234"/>
     <use xlink:href="#DejaVuSans-6e" x="155.273438"/>
     <use xlink:href="#DejaVuSans-70" x="218.652344"/>
     <use xlink:href="#DejaVuSans-65" x="282.128906"/>
     <use xlink:href="#DejaVuSans-3a" x="343.652344"/>
     <use xlink:href="#DejaVuSans-20" x="377.34375"/>
     <use xlink:href="#DejaVuSans-2d" x="409.130859"/>
     <use xlink:href="#DejaVuSans-31" x="445.214844"/>
     <use xlink:href="#DejaVuSans-2e" x="508.837891"/>
     <use xlink:href="#DejaVuSans-34" x="540.625"/>
     <use xlink:href="#DejaVuSans-20" x="604.248047"/>
     <use xlink:href="#DejaVuSans-64" x="636.035156"/>
     <use xlink:href="#DejaVuSans-42" x="699.511719"/>
     <use xlink:href="#DejaVuSans-69" x="768.115234"/>
    </g>
    <!-- Pearson Coef: 0.325 -->
    <g transform="translate(384.8785 504.7735)scale(0.1 -0.1)">
     <defs>
      <path id="DejaVuSans-50" d="M 1259 4147 
L 1259 2394 
L 2053 2394 
Q 2494 2394 2734 2622 
Q 2975 2850 2975 3272 
Q 2975 3691 2734 3919 
Q 2494 4147 2053 4147 
L 1259 4147 
z
M 628 4666 
L 2053 4666 
Q 2838 4666 3239 4311 
Q 3641 3956 3641 3272 
Q 3641 2581 3239 2228 
Q 2838 1875 2053 1875 
L 1259 1875 
L 1259 0 
L 628 0 
L 628 4666 
z
" transform="scale(0.015625)"/>
      <path id="DejaVuSans-61" d="M 2194 1759 
Q 1497 1759 1228 1600 
Q 959 1441 959 1056 
Q 959 750 1161 570 
Q 1363 391 1709 391 
Q 2188 391 2477 730 
Q 2766 1069 2766 1631 
L 2766 1759 
L 2194 1759 
z
M 3341 1997 
L 3341 0 
L 2766 0 
L 2766 531 
Q 2569 213 2275 61 
Q 1981 -91 1556 -91 
Q 1019 -91 701 211 
Q 384 513 384 1019 
Q 384 1609 779 1909 
Q 1175 2209 1959 2209 
L 2766 2209 
L 2766 2266 
Q 2766 2663 2505 2880 
Q 2244 3097 1772 3097 
Q 1472 3097 1187 3025 
Q 903 2953 641 2809 
L 641 3341 
Q 956 3463 1253 3523 
Q 1550 3584 1831 3584 
Q 2591 3584 2966 3190 
Q 3341 2797 3341 1997 
z
" transform="scale(0.015625)"/>
      <path id="DejaVuSans-72" d="M 2631 2963 
Q 2534 3019 2420 3045 
Q 2306 3072 2169 3072 
Q 1681 3072 1420 2755 
Q 1159 2438 1159 1844 
L 1159 0 
L 581 0 
L 581 3500 
L 1159 3500 
L 1159 2956 
Q 1341 3275 1631 3429 
Q 1922 3584 2338 3584 
Q 2397 3584 2469 3576 
Q 2541 3569 2628 3553 
L 2631 2963 
z
" transform="scale(0.015625)"/>
      <path id="DejaVuSans-6f" d="M 1959 3097 
Q 1497 3097 1228 2736 
Q 959 2375 959 1747 
Q 959 1119 1226 758 
Q 1494 397 1959 397 
Q 2419 397 2687 759 
Q 2956 1122 2956 1747 
Q 2956 2369 2687 2733 
Q 2419 3097 1959 3097 
z
M 1959 3584 
Q 2709 3584 3137 3096 
Q 3566 2609 3566 1747 
Q 3566 888 3137 398 
Q 2709 -91 1959 -91 
Q 1206 -91 779 398 
Q 353 888 353 1747 
Q 353 2609 779 3096 
Q 1206 3584 1959 3584 
z
" transform="scale(0.015625)"/>
      <path id="DejaVuSans-43" d="M 4122 4306 
L 4122 3641 
Q 3803 3938 3442 4084 
Q 3081 4231 2675 4231 
Q 1875 4231 1450 3742 
Q 1025 3253 1025 2328 
Q 1025 1406 1450 917 
Q 1875 428 2675 428 
Q 3081 428 3442 575 
Q 3803 722 4122 1019 
L 4122 359 
Q 3791 134 3420 21 
Q 3050 -91 2638 -91 
Q 1578 -91 968 557 
Q 359 1206 359 2328 
Q 359 3453 968 4101 
Q 1578 4750 2638 4750 
Q 3056 4750 3426 4639 
Q 3797 4528 4122 4306 
z
" transform="scale(0.015625)"/>
      <path id="DejaVuSans-66" d="M 2375 4863 
L 2375 4384 
L 1825 4384 
Q 1516 4384 1395 4259 
Q 1275 4134 1275 3809 
L 1275 3500 
L 2222 3500 
L 2222 3053 
L 1275 3053 
L 1275 0 
L 697 0 
L 697 3053 
L 147 3053 
L 147 3500 
L 697 3500 
L 697 3744 
Q 697 4328 969 4595 
Q 1241 4863 1831 4863 
L 2375 4863 
z
" transform="scale(0.015625)"/>
     </defs>
     <use xlink:href="#DejaVuSans-50"/>
     <use xlink:href="#DejaVuSans-65" x="56.677734"/>
     <use xlink:href="#DejaVuSans-61" x="118.201172"/>
     <use xlink:href="#DejaVuSans-72" x="179.480469"/>
     <use xlink:href="#DejaVuSans-73" x="220.59375"/>
     <use xlink:href="#DejaVuSans-6f" x="272.693359"/>
     <use xlink:href="#DejaVuSans-6e" x="333.875"/>
     <use xlink:href="#DejaVuSans-20" x="397.253906"/>
     <use xlink:href="#DejaVuSans-43" x="429.041016"/>
     <use xlink:href="#DejaVuSans-6f" x="498.865234"/>
     <use xlink:href="#DejaVuSans-65" x="560.046875"/>
     <use xlink:href="#DejaVuSans-66" x="621.570312"/>
     <use xlink:href="#DejaVuSans-3a" x="653.150391"/>
     <use xlink:href="#DejaVuSans-20" x="686.841797"/>
     <use xlink:href="#DejaVuSans-30" x="718.628906"/>
     <use xlink:href="#DejaVuSans-2e" x="782.251953"/>
     <use xlink:href="#DejaVuSans-33" x="814.039062"/>
     <use xlink:href="#DejaVuSans-32" x="877.662109"/>
     <use xlink:href="#DejaVuSans-35" x="941.285156"/>
    </g>
   </g>
   <g id="text_18">
    <g id="patch_5">
     <path d="M 52.2385 56.370938 
L 129.496 56.370938 
Q 133.096 56.370938 133.096 52.770938 
L 133.096 41.157188 
Q 133.096 37.557188 129.496 37.557188 
L 52.2385 37.557188 
Q 48.6385 37.557188 48.6385 41.157188 
L 48.6385 52.770938 
Q 48.6385 56.370938 52.2385 56.370938 
z
" style="fill: #ffffff; stroke: #808080; stroke-linejoin: miter"/>
    </g>
    <!-- Freq: 11 GHz -->
    <g transform="translate(52.2385 50.275313)scale(0.12 -0.12)">
     <defs>
      <path id="DejaVuSans-46" d="M 628 4666 
L 3309 4666 
L 3309 4134 
L 1259 4134 
L 1259 2759 
L 3109 2759 
L 3109 2228 
L 1259 2228 
L 1259 0 
L 628 0 
L 628 4666 
z
" transform="scale(0.015625)"/>
      <path id="DejaVuSans-71" d="M 947 1747 
Q 947 1113 1208 752 
Q 1469 391 1925 391 
Q 2381 391 2643 752 
Q 2906 1113 2906 1747 
Q 2906 2381 2643 2742 
Q 2381 3103 1925 3103 
Q 1469 3103 1208 2742 
Q 947 2381 947 1747 
z
M 2906 525 
Q 2725 213 2448 61 
Q 2172 -91 1784 -91 
Q 1150 -91 751 415 
Q 353 922 353 1747 
Q 353 2572 751 3078 
Q 1150 3584 1784 3584 
Q 2172 3584 2448 3432 
Q 2725 3281 2906 2969 
L 2906 3500 
L 3481 3500 
L 3481 -1331 
L 2906 -1331 
L 2906 525 
z
" transform="scale(0.015625)"/>
      <path id="DejaVuSans-48" d="M 628 4666 
L 1259 4666 
L 1259 2753 
L 3553 2753 
L 3553 4666 
L 4184 4666 
L 4184 0 
L 3553 0 
L 3553 2222 
L 1259 2222 
L 1259 0 
L 628 0 
L 628 4666 
z
" transform="scale(0.015625)"/>
      <path id="DejaVuSans-7a" d="M 353 3500 
L 3084 3500 
L 3084 2975 
L 922 459 
L 3084 459 
L 3084 0 
L 275 0 
L 275 525 
L 2438 3041 
L 353 3041 
L 353 3500 
z
" transform="scale(0.015625)"/>
     </defs>
     <use xlink:href="#DejaVuSans-46"/>
     <use xlink:href="#DejaVuSans-72" x="50.269531"/>
     <use xlink:href="#DejaVuSans-65" x="89.132812"/>
     <use xlink:href="#DejaVuSans-71" x="150.65625"/>
     <use xlink:href="#DejaVuSans-3a" x="214.132812"/>
     <use xlink:href="#DejaVuSans-20" x="247.824219"/>
     <use xlink:href="#DejaVuSans-31" x="279.611328"/>
     <use xlink:href="#DejaVuSans-31" x="343.234375"/>
     <use xlink:href="#DejaVuSans-20" x="406.857422"/>
     <use xlink:href="#DejaVuSans-47" x="438.644531"/>
     <use xlink:href="#DejaVuSans-48" x="516.134766"/>
     <use xlink:href="#DejaVuSans-7a" x="591.330078"/>
    </g>
   </g>
   <g id="text_19">
    <!-- Radiation Diagram - 1AVVF11 -->
    <g transform="translate(162.985937 16.318125)scale(0.12 -0.12)">
     <defs>
      <path id="DejaVuSans-52" d="M 2841 2188 
Q 3044 2119 3236 1894 
Q 3428 1669 3622 1275 
L 4263 0 
L 3584 0 
L 2988 1197 
Q 2756 1666 2539 1819 
Q 2322 1972 1947 1972 
L 1259 1972 
L 1259 0 
L 628 0 
L 628 4666 
L 2053 4666 
Q 2853 4666 3247 4331 
Q 3641 3997 3641 3322 
Q 3641 2881 3436 2590 
Q 3231 2300 2841 2188 
z
M 1259 4147 
L 1259 2491 
L 2053 2491 
Q 2509 2491 2742 2702 
Q 2975 2913 2975 3322 
Q 2975 3731 2742 3939 
Q 2509 4147 2053 4147 
L 1259 4147 
z
" transform="scale(0.015625)"/>
      <path id="DejaVuSans-44" d="M 1259 4147 
L 1259 519 
L 2022 519 
Q 2988 519 3436 956 
Q 3884 1394 3884 2338 
Q 3884 3275 3436 3711 
Q 2988 4147 2022 4147 
L 1259 4147 
z
M 628 4666 
L 1925 4666 
Q 3281 4666 3915 4102 
Q 4550 3538 4550 2338 
Q 4550 1131 3912 565 
Q 3275 0 1925 0 
L 628 0 
L 628 4666 
z
" transform="scale(0.015625)"/>
      <path id="DejaVuSans-67" d="M 2906 1791 
Q 2906 2416 2648 2759 
Q 2391 3103 1925 3103 
Q 1463 3103 1205 2759 
Q 947 2416 947 1791 
Q 947 1169 1205 825 
Q 1463 481 1925 481 
Q 2391 481 2648 825 
Q 2906 1169 2906 1791 
z
M 3481 434 
Q 3481 -459 3084 -895 
Q 2688 -1331 1869 -1331 
Q 1566 -1331 1297 -1286 
Q 1028 -1241 775 -1147 
L 775 -588 
Q 1028 -725 1275 -790 
Q 1522 -856 1778 -856 
Q 2344 -856 2625 -561 
Q 2906 -266 2906 331 
L 2906 616 
Q 2728 306 2450 153 
Q 2172 0 1784 0 
Q 1141 0 747 490 
Q 353 981 353 1791 
Q 353 2603 747 3093 
Q 1141 3584 1784 3584 
Q 2172 3584 2450 3431 
Q 2728 3278 2906 2969 
L 2906 3500 
L 3481 3500 
L 3481 434 
z
" transform="scale(0.015625)"/>
      <path id="DejaVuSans-6d" d="M 3328 2828 
Q 3544 3216 3844 3400 
Q 4144 3584 4550 3584 
Q 5097 3584 5394 3201 
Q 5691 2819 5691 2113 
L 5691 0 
L 5113 0 
L 5113 2094 
Q 5113 2597 4934 2840 
Q 4756 3084 4391 3084 
Q 3944 3084 3684 2787 
Q 3425 2491 3425 1978 
L 3425 0 
L 2847 0 
L 2847 2094 
Q 2847 2600 2669 2842 
Q 2491 3084 2119 3084 
Q 1678 3084 1418 2786 
Q 1159 2488 1159 1978 
L 1159 0 
L 581 0 
L 581 3500 
L 1159 3500 
L 1159 2956 
Q 1356 3278 1631 3431 
Q 1906 3584 2284 3584 
Q 2666 3584 2933 3390 
Q 3200 3197 3328 2828 
z
" transform="scale(0.015625)"/>
      <path id="DejaVuSans-41" d="M 2188 4044 
L 1331 1722 
L 3047 1722 
L 2188 4044 
z
M 1831 4666 
L 2547 4666 
L 4325 0 
L 3669 0 
L 3244 1197 
L 1141 1197 
L 716 0 
L 50 0 
L 1831 4666 
z
" transform="scale(0.015625)"/>
      <path id="DejaVuSans-56" d="M 1831 0 
L 50 4666 
L 709 4666 
L 2188 738 
L 3669 4666 
L 4325 4666 
L 2547 0 
L 1831 0 
z
" transform="scale(0.015625)"/>
     </defs>
     <use xlink:href="#DejaVuSans-52"/>
     <use xlink:href="#DejaVuSans-61" x="67.232422"/>
     <use xlink:href="#DejaVuSans-64" x="128.511719"/>
     <use xlink:href="#DejaVuSans-69" x="191.988281"/>
     <use xlink:href="#DejaVuSans-61" x="219.771484"/>
     <use xlink:href="#DejaVuSans-74" x="281.050781"/>
     <use xlink:href="#DejaVuSans-69" x="320.259766"/>
     <use xlink:href="#DejaVuSans-6f" x="348.042969"/>
     <use xlink:href="#DejaVuSans-6e" x="409.224609"/>
     <use xlink:href="#DejaVuSans-20" x="472.603516"/>
     <use xlink:href="#DejaVuSans-44" x="504.390625"/>
     <use xlink:href="#DejaVuSans-69" x="581.392578"/>
     <use xlink:href="#DejaVuSans-61" x="609.175781"/>
     <use xlink:href="#DejaVuSans-67" x="670.455078"/>
     <use xlink:href="#DejaVuSans-72" x="733.931641"/>
     <use xlink:href="#DejaVuSans-61" x="775.044922"/>
     <use xlink:href="#DejaVuSans-6d" x="836.324219"/>
     <use xlink:href="#DejaVuSans-20" x="933.736328"/>
     <use xlink:href="#DejaVuSans-2d" x="965.523438"/>
     <use xlink:href="#DejaVuSans-20" x="1001.607422"/>
     <use xlink:href="#DejaVuSans-31" x="1033.394531"/>
     <use xlink:href="#DejaVuSans-41" x="1097.017578"/>
     <use xlink:href="#DejaVuSans-56" x="1159.050781"/>
     <use xlink:href="#DejaVuSans-56" x="1227.458984"/>
     <use xlink:href="#DejaVuSans-46" x="1295.867188"/>
     <use xlink:href="#DejaVuSans-31" x="1353.386719"/>
     <use xlink:href="#DejaVuSans-31" x="1417.009766"/>
    </g>
   </g>
   <g id="legend_1">
    <g id="patch_6">
     <path d="M 411.802812 78.513438 
L 466.5825 78.513438 
Q 468.5825 78.513438 468.5825 76.513438 
L 468.5825 48.157188 
Q 468.5825 46.157188 466.5825 46.157188 
L 411.802812 46.157188 
Q 409.802812 46.157188 409.802812 48.157188 
L 409.802812 76.513438 
Q 409.802812 78.513438 411.802812 78.513438 
z
" style="fill: #ffffff; opacity: 0.8; stroke: #cccccc; stroke-linejoin: miter"/>
    </g>
    <g id="line2d_19">
     <path d="M 413.802812 54.255625 
L 423.802812 54.255625 
L 433.802812 54.255625 
" style="fill: none; stroke: #ff0000; stroke-width: 1.5; stroke-linecap: square"/>
    </g>
    <g id="text_20">
     <!-- INPE -->
     <g transform="translate(441.802812 57.755625)scale(0.1 -0.1)">
      <defs>
       <path id="DejaVuSans-49" d="M 628 4666 
L 1259 4666 
L 1259 0 
L 628 0 
L 628 4666 
z
" transform="scale(0.015625)"/>
       <path id="DejaVuSans-4e" d="M 628 4666 
L 1478 4666 
L 3547 763 
L 3547 4666 
L 4159 4666 
L 4159 0 
L 3309 0 
L 1241 3903 
L 1241 0 
L 628 0 
L 628 4666 
z
" transform="scale(0.015625)"/>
       <path id="DejaVuSans-45" d="M 628 4666 
L 3578 4666 
L 3578 4134 
L 1259 4134 
L 1259 2753 
L 3481 2753 
L 3481 2222 
L 1259 2222 
L 1259 531 
L 3634 531 
L 3634 0 
L 628 0 
L 628 4666 
z
" transform="scale(0.015625)"/>
      </defs>
      <use xlink:href="#DejaVuSans-49"/>
      <use xlink:href="#DejaVuSans-4e" x="29.492188"/>
      <use xlink:href="#DejaVuSans-50" x="104.296875"/>
      <use xlink:href="#DejaVuSans-45" x="164.599609"/>
     </g>
    </g>
    <g id="line2d_20">
     <path d="M 413.802812 68.93375 
L 423.802812 68.93375 
L 433.802812 68.93375 
" style="fill: none; stroke-dasharray: 5.55,2.4; stroke-dashoffset: 0; stroke: #0000ff; stroke-width: 1.5"/>
    </g>
    <g id="text_21">
     <!-- CST -->
     <g transform="translate(441.802812 72.43375)scale(0.1 -0.1)">
      <defs>
       <path id="DejaVuSans-53" d="M 3425 4513 
L 3425 3897 
Q 3066 4069 2747 4153 
Q 2428 4238 2131 4238 
Q 1616 4238 1336 4038 
Q 1056 3838 1056 3469 
Q 1056 3159 1242 3001 
Q 1428 2844 1947 2747 
L 2328 2669 
Q 3034 2534 3370 2195 
Q 3706 1856 3706 1288 
Q 3706 609 3251 259 
Q 2797 -91 1919 -91 
Q 1588 -91 1214 -16 
Q 841 59 441 206 
L 441 856 
Q 825 641 1194 531 
Q 1563 422 1919 422 
Q 2459 422 2753 634 
Q 3047 847 3047 1241 
Q 3047 1584 2836 1778 
Q 2625 1972 2144 2069 
L 1759 2144 
Q 1053 2284 737 2584 
Q 422 2884 422 3419 
Q 422 4038 858 4394 
Q 1294 4750 2059 4750 
Q 2388 4750 2728 4690 
Q 3069 4631 3425 4513 
z
" transform="scale(0.015625)"/>
       <path id="DejaVuSans-54" d="M -19 4666 
L 3928 4666 
L 3928 4134 
L 2272 4134 
L 2272 0 
L 1638 0 
L 1638 4134 
L -19 4134 
L -19 4666 
z
" transform="scale(0.015625)"/>
      </defs>
      <use xlink:href="#DejaVuSans-43"/>
      <use xlink:href="#DejaVuSans-53" x="69.824219"/>
      <use xlink:href="#DejaVuSans-54" x="133.300781"/>
     </g>
    </g>
   </g>
  </g>
 </g>
 <defs>
  <clipPath id="pc77f685324">
   <path d="M 473.5825 262.917188 
C 473.5825 233.795931 467.846247 204.957842 456.702025 178.05331 
C 445.557803 151.148777 429.222338 126.701026 408.6305 106.109188 
C 388.038662 85.51735 363.590911 69.181885 336.686378 58.037662 
C 309.781845 46.89344 280.943756 41.157188 251.8225 41.157188 
C 222.701244 41.157188 193.863155 46.89344 166.958622 58.037662 
C 140.054089 69.181885 115.606338 85.51735 95.0145 106.109188 
C 74.422662 126.701026 58.087197 151.148777 46.942975 178.05331 
C 35.798753 204.957842 30.0625 233.795931 30.0625 262.917188 
C 30.0625 292.038444 35.798753 320.876533 46.942975 347.781065 
C 58.087197 374.685598 74.422662 399.133349 95.0145 419.725187 
C 115.606338 440.317025 140.054089 456.65249 166.958622 467.796713 
C 193.863155 478.940935 222.701244 484.677188 251.8225 484.677188 
C 280.943756 484.677188 309.781845 478.940935 336.686378 467.796713 
C 363.590911 456.65249 388.038662 440.317025 408.6305 419.725187 
C 429.222338 399.133349 445.557803 374.685598 456.702025 347.781065 
C 467.846247 320.876533 473.5825 292.038444 473.5825 262.917188 
M 251.8225 262.917188 
C 251.8225 262.917188 251.8225 262.917188 251.8225 262.917188 
C 251.8225 262.917188 251.8225 262.917188 251.8225 262.917188 
C 251.8225 262.917188 251.8225 262.917188 251.8225 262.917188 
C 251.8225 262.917188 251.8225 262.917188 251.8225 262.917188 
C 251.8225 262.917188 251.8225 262.917188 251.8225 262.917188 
C 251.8225 262.917188 251.8225 262.917188 251.8225 262.917188 
C 251.8225 262.917188 251.8225 262.917188 251.8225 262.917188 
C 251.8225 262.917188 251.8225 262.917188 251.8225 262.917188 
C 251.8225 262.917188 251.8225 262.917188 251.8225 262.917188 
C 251.8225 262.917188 251.8225 262.917188 251.8225 262.917188 
C 251.8225 262.917188 251.8225 262.917188 251.8225 262.917188 
C 251.8225 262.917188 251.8225 262.917188 251.8225 262.917188 
C 251.8225 262.917188 251.8225 262.917188 251.8225 262.917188 
C 251.8225 262.917188 251.8225 262.917188 251.8225 262.917188 
C 251.8225 262.917188 251.8225 262.917188 251.8225 262.917188 
C 251.8225 262.917188 251.8225 262.917188 251.8225 262.917188 
M 473.5825 262.917188 
z
"/>
  </clipPath>
 </defs>
</svg>
