<?xml version="1.0" encoding="utf-8" standalone="no"?>
<!DOCTYPE svg PUBLIC "-//W3C//DTD SVG 1.1//EN"
  "http://www.w3.org/Graphics/SVG/1.1/DTD/svg11.dtd">
<svg xmlns:xlink="http://www.w3.org/1999/xlink" width="506.82625pt" height="514.053188pt" viewBox="0 0 506.82625 514.053188" xmlns="http://www.w3.org/2000/svg" version="1.1">
 <metadata>
  <rdf:RDF xmlns:dc="http://purl.org/dc/elements/1.1/" xmlns:cc="http://creativecommons.org/ns#" xmlns:rdf="http://www.w3.org/1999/02/22-rdf-syntax-ns#">
   <cc:Work>
    <dc:type rdf:resource="http://purl.org/dc/dcmitype/StillImage"/>
    <dc:date>2024-01-27T17:17:05.065186</dc:date>
    <dc:format>image/svg+xml</dc:format>
    <dc:creator>
     <cc:Agent>
      <dc:title>Matplotlib v3.5.1, https://matplotlib.org/</dc:title>
     </cc:Agent>
    </dc:creator>
   </cc:Work>
  </rdf:RDF>
 </metadata>
 <defs>
  <style type="text/css">*{stroke-linejoin: round; stroke-linecap: butt}</style>
 </defs>
 <g id="figure_1">
  <g id="patch_1">
   <path d="M 0 514.053188 
L 506.82625 514.053188 
L 506.82625 0 
L 0 0 
z
" style="fill: #ffffff"/>
  </g>
  <g id="axes_1">
   <g id="patch_2">
    <path d="M 473.5825 262.917188 
C 473.5825 233.795931 467.846247 204.957842 456.702025 178.05331 
C 445.557803 151.148777 429.222338 126.701026 408.6305 106.109188 
C 388.038662 85.51735 363.590911 69.181885 336.686378 58.037662 
C 309.781845 46.89344 280.943756 41.157188 251.8225 41.157188 
C 222.701244 41.157188 193.863155 46.89344 166.958622 58.037662 
C 140.054089 69.181885 115.606338 85.51735 95.0145 106.109188 
C 74.422662 126.701026 58.087197 151.148777 46.942975 178.05331 
C 35.798753 204.957842 30.0625 233.795931 30.0625 262.917188 
C 30.0625 292.038444 35.798753 320.876533 46.942975 347.781065 
C 58.087197 374.685598 74.422662 399.133349 95.0145 419.725187 
C 115.606338 440.317025 140.054089 456.65249 166.958622 467.796713 
C 193.863155 478.940935 222.701244 484.677188 251.8225 484.677188 
C 280.943756 484.677188 309.781845 478.940935 336.686378 467.796713 
C 363.590911 456.65249 388.038662 440.317025 408.6305 419.725187 
C 429.222338 399.133349 445.557803 374.685598 456.702025 347.781065 
C 467.846247 320.876533 473.5825 292.038444 473.5825 262.917188 
M 251.8225 262.917188 
C 251.8225 262.917188 251.8225 262.917188 251.8225 262.917188 
C 251.8225 262.917188 251.8225 262.917188 251.8225 262.917188 
C 251.8225 262.917188 251.8225 262.917188 251.8225 262.917188 
C 251.8225 262.917188 251.8225 262.917188 251.8225 262.917188 
C 251.8225 262.917188 251.8225 262.917188 251.8225 262.917188 
C 251.8225 262.917188 251.8225 262.917188 251.8225 262.917188 
C 251.8225 262.917188 251.8225 262.917188 251.8225 262.917188 
C 251.8225 262.917188 251.8225 262.917188 251.8225 262.917188 
C 251.8225 262.917188 251.8225 262.917188 251.8225 262.917188 
C 251.8225 262.917188 251.8225 262.917188 251.8225 262.917188 
C 251.8225 262.917188 251.8225 262.917188 251.8225 262.917188 
C 251.8225 262.917188 251.8225 262.917188 251.8225 262.917188 
C 251.8225 262.917188 251.8225 262.917188 251.8225 262.917188 
C 251.8225 262.917188 251.8225 262.917188 251.8225 262.917188 
C 251.8225 262.917188 251.8225 262.917188 251.8225 262.917188 
C 251.8225 262.917188 251.8225 262.917188 251.8225 262.917188 
M 473.5825 262.917188 
z
" style="fill: #ffffff"/>
   </g>
   <g id="matplotlib.axis_1">
    <g id="xtick_1">
     <g id="line2d_1">
      <path d="M 251.8225 262.917188 
L 251.8225 41.157188 
" clip-path="url(#p4a9312e6f0)" style="fill: none; stroke: #b0b0b0; stroke-width: 0.8; stroke-linecap: square"/>
     </g>
     <g id="text_1">
      <!-- 0° -->
      <g transform="translate(246.14125 29.916563)scale(0.1 -0.1)">
       <defs>
        <path id="DejaVuSans-30" d="M 2034 4250 
Q 1547 4250 1301 3770 
Q 1056 3291 1056 2328 
Q 1056 1369 1301 889 
Q 1547 409 2034 409 
Q 2525 409 2770 889 
Q 3016 1369 3016 2328 
Q 3016 3291 2770 3770 
Q 2525 4250 2034 4250 
z
M 2034 4750 
Q 2819 4750 3233 4129 
Q 3647 3509 3647 2328 
Q 3647 1150 3233 529 
Q 2819 -91 2034 -91 
Q 1250 -91 836 529 
Q 422 1150 422 2328 
Q 422 3509 836 4129 
Q 1250 4750 2034 4750 
z
" transform="scale(0.015625)"/>
        <path id="DejaVuSans-b0" d="M 1600 4347 
Q 1350 4347 1178 4173 
Q 1006 4000 1006 3750 
Q 1006 3503 1178 3333 
Q 1350 3163 1600 3163 
Q 1850 3163 2022 3333 
Q 2194 3503 2194 3750 
Q 2194 3997 2020 4172 
Q 1847 4347 1600 4347 
z
M 1600 4750 
Q 1800 4750 1984 4673 
Q 2169 4597 2303 4453 
Q 2447 4313 2519 4134 
Q 2591 3956 2591 3750 
Q 2591 3338 2302 3052 
Q 2013 2766 1594 2766 
Q 1172 2766 890 3047 
Q 609 3328 609 3750 
Q 609 4169 896 4459 
Q 1184 4750 1600 4750 
z
" transform="scale(0.015625)"/>
       </defs>
       <use xlink:href="#DejaVuSans-30"/>
       <use xlink:href="#DejaVuSans-b0" x="63.623047"/>
      </g>
     </g>
    </g>
    <g id="xtick_2">
     <g id="line2d_2">
      <path d="M 251.8225 262.917188 
L 95.0145 106.109188 
" clip-path="url(#p4a9312e6f0)" style="fill: none; stroke: #b0b0b0; stroke-width: 0.8; stroke-linecap: square"/>
     </g>
     <g id="text_2">
      <!-- 45° -->
      <g transform="translate(76.252505 98.969068)scale(0.1 -0.1)">
       <defs>
        <path id="DejaVuSans-34" d="M 2419 4116 
L 825 1625 
L 2419 1625 
L 2419 4116 
z
M 2253 4666 
L 3047 4666 
L 3047 1625 
L 3713 1625 
L 3713 1100 
L 3047 1100 
L 3047 0 
L 2419 0 
L 2419 1100 
L 313 1100 
L 313 1709 
L 2253 4666 
z
" transform="scale(0.015625)"/>
        <path id="DejaVuSans-35" d="M 691 4666 
L 3169 4666 
L 3169 4134 
L 1269 4134 
L 1269 2991 
Q 1406 3038 1543 3061 
Q 1681 3084 1819 3084 
Q 2600 3084 3056 2656 
Q 3513 2228 3513 1497 
Q 3513 744 3044 326 
Q 2575 -91 1722 -91 
Q 1428 -91 1123 -41 
Q 819 9 494 109 
L 494 744 
Q 775 591 1075 516 
Q 1375 441 1709 441 
Q 2250 441 2565 725 
Q 2881 1009 2881 1497 
Q 2881 1984 2565 2268 
Q 2250 2553 1709 2553 
Q 1456 2553 1204 2497 
Q 953 2441 691 2322 
L 691 4666 
z
" transform="scale(0.015625)"/>
       </defs>
       <use xlink:href="#DejaVuSans-34"/>
       <use xlink:href="#DejaVuSans-35" x="63.623047"/>
       <use xlink:href="#DejaVuSans-b0" x="127.246094"/>
      </g>
     </g>
    </g>
    <g id="xtick_3">
     <g id="line2d_3">
      <path d="M 251.8225 262.917188 
L 30.0625 262.917188 
" clip-path="url(#p4a9312e6f0)" style="fill: none; stroke: #b0b0b0; stroke-width: 0.8; stroke-linecap: square"/>
     </g>
     <g id="text_3">
      <!-- 90° -->
      <g transform="translate(7.2 265.676563)scale(0.1 -0.1)">
       <defs>
        <path id="DejaVuSans-39" d="M 703 97 
L 703 672 
Q 941 559 1184 500 
Q 1428 441 1663 441 
Q 2288 441 2617 861 
Q 2947 1281 2994 2138 
Q 2813 1869 2534 1725 
Q 2256 1581 1919 1581 
Q 1219 1581 811 2004 
Q 403 2428 403 3163 
Q 403 3881 828 4315 
Q 1253 4750 1959 4750 
Q 2769 4750 3195 4129 
Q 3622 3509 3622 2328 
Q 3622 1225 3098 567 
Q 2575 -91 1691 -91 
Q 1453 -91 1209 -44 
Q 966 3 703 97 
z
M 1959 2075 
Q 2384 2075 2632 2365 
Q 2881 2656 2881 3163 
Q 2881 3666 2632 3958 
Q 2384 4250 1959 4250 
Q 1534 4250 1286 3958 
Q 1038 3666 1038 3163 
Q 1038 2656 1286 2365 
Q 1534 2075 1959 2075 
z
" transform="scale(0.015625)"/>
       </defs>
       <use xlink:href="#DejaVuSans-39"/>
       <use xlink:href="#DejaVuSans-30" x="63.623047"/>
       <use xlink:href="#DejaVuSans-b0" x="127.246094"/>
      </g>
     </g>
    </g>
    <g id="xtick_4">
     <g id="line2d_4">
      <path d="M 251.8225 262.917188 
L 95.0145 419.725187 
" clip-path="url(#p4a9312e6f0)" style="fill: none; stroke: #b0b0b0; stroke-width: 0.8; stroke-linecap: square"/>
     </g>
     <g id="text_4">
      <!-- 135° -->
      <g transform="translate(73.071255 432.384057)scale(0.1 -0.1)">
       <defs>
        <path id="DejaVuSans-31" d="M 794 531 
L 1825 531 
L 1825 4091 
L 703 3866 
L 703 4441 
L 1819 4666 
L 2450 4666 
L 2450 531 
L 3481 531 
L 3481 0 
L 794 0 
L 794 531 
z
" transform="scale(0.015625)"/>
        <path id="DejaVuSans-33" d="M 2597 2516 
Q 3050 2419 3304 2112 
Q 3559 1806 3559 1356 
Q 3559 666 3084 287 
Q 2609 -91 1734 -91 
Q 1441 -91 1130 -33 
Q 819 25 488 141 
L 488 750 
Q 750 597 1062 519 
Q 1375 441 1716 441 
Q 2309 441 2620 675 
Q 2931 909 2931 1356 
Q 2931 1769 2642 2001 
Q 2353 2234 1838 2234 
L 1294 2234 
L 1294 2753 
L 1863 2753 
Q 2328 2753 2575 2939 
Q 2822 3125 2822 3475 
Q 2822 3834 2567 4026 
Q 2313 4219 1838 4219 
Q 1578 4219 1281 4162 
Q 984 4106 628 3988 
L 628 4550 
Q 988 4650 1302 4700 
Q 1616 4750 1894 4750 
Q 2613 4750 3031 4423 
Q 3450 4097 3450 3541 
Q 3450 3153 3228 2886 
Q 3006 2619 2597 2516 
z
" transform="scale(0.015625)"/>
       </defs>
       <use xlink:href="#DejaVuSans-31"/>
       <use xlink:href="#DejaVuSans-33" x="63.623047"/>
       <use xlink:href="#DejaVuSans-35" x="127.246094"/>
       <use xlink:href="#DejaVuSans-b0" x="190.869141"/>
      </g>
     </g>
    </g>
    <g id="xtick_5">
     <g id="line2d_5">
      <path d="M 251.8225 262.917188 
L 251.8225 484.677188 
" clip-path="url(#p4a9312e6f0)" style="fill: none; stroke: #b0b0b0; stroke-width: 0.8; stroke-linecap: square"/>
     </g>
     <g id="text_5">
      <!-- 180° -->
      <g transform="translate(239.77875 501.436563)scale(0.1 -0.1)">
       <defs>
        <path id="DejaVuSans-38" d="M 2034 2216 
Q 1584 2216 1326 1975 
Q 1069 1734 1069 1313 
Q 1069 891 1326 650 
Q 1584 409 2034 409 
Q 2484 409 2743 651 
Q 3003 894 3003 1313 
Q 3003 1734 2745 1975 
Q 2488 2216 2034 2216 
z
M 1403 2484 
Q 997 2584 770 2862 
Q 544 3141 544 3541 
Q 544 4100 942 4425 
Q 1341 4750 2034 4750 
Q 2731 4750 3128 4425 
Q 3525 4100 3525 3541 
Q 3525 3141 3298 2862 
Q 3072 2584 2669 2484 
Q 3125 2378 3379 2068 
Q 3634 1759 3634 1313 
Q 3634 634 3220 271 
Q 2806 -91 2034 -91 
Q 1263 -91 848 271 
Q 434 634 434 1313 
Q 434 1759 690 2068 
Q 947 2378 1403 2484 
z
M 1172 3481 
Q 1172 3119 1398 2916 
Q 1625 2713 2034 2713 
Q 2441 2713 2670 2916 
Q 2900 3119 2900 3481 
Q 2900 3844 2670 4047 
Q 2441 4250 2034 4250 
Q 1625 4250 1398 4047 
Q 1172 3844 1172 3481 
z
" transform="scale(0.015625)"/>
       </defs>
       <use xlink:href="#DejaVuSans-31"/>
       <use xlink:href="#DejaVuSans-38" x="63.623047"/>
       <use xlink:href="#DejaVuSans-30" x="127.246094"/>
       <use xlink:href="#DejaVuSans-b0" x="190.869141"/>
      </g>
     </g>
    </g>
    <g id="xtick_6">
     <g id="line2d_6">
      <path d="M 251.8225 262.917188 
L 408.6305 419.725187 
" clip-path="url(#p4a9312e6f0)" style="fill: none; stroke: #b0b0b0; stroke-width: 0.8; stroke-linecap: square"/>
     </g>
     <g id="text_6">
      <!-- 225° -->
      <g transform="translate(406.486245 432.384057)scale(0.1 -0.1)">
       <defs>
        <path id="DejaVuSans-32" d="M 1228 531 
L 3431 531 
L 3431 0 
L 469 0 
L 469 531 
Q 828 903 1448 1529 
Q 2069 2156 2228 2338 
Q 2531 2678 2651 2914 
Q 2772 3150 2772 3378 
Q 2772 3750 2511 3984 
Q 2250 4219 1831 4219 
Q 1534 4219 1204 4116 
Q 875 4013 500 3803 
L 500 4441 
Q 881 4594 1212 4672 
Q 1544 4750 1819 4750 
Q 2544 4750 2975 4387 
Q 3406 4025 3406 3419 
Q 3406 3131 3298 2873 
Q 3191 2616 2906 2266 
Q 2828 2175 2409 1742 
Q 1991 1309 1228 531 
z
" transform="scale(0.015625)"/>
       </defs>
       <use xlink:href="#DejaVuSans-32"/>
       <use xlink:href="#DejaVuSans-32" x="63.623047"/>
       <use xlink:href="#DejaVuSans-35" x="127.246094"/>
       <use xlink:href="#DejaVuSans-b0" x="190.869141"/>
      </g>
     </g>
    </g>
    <g id="xtick_7">
     <g id="line2d_7">
      <path d="M 251.8225 262.917188 
L 473.5825 262.917188 
" clip-path="url(#p4a9312e6f0)" style="fill: none; stroke: #b0b0b0; stroke-width: 0.8; stroke-linecap: square"/>
     </g>
     <g id="text_7">
      <!-- 270° -->
      <g transform="translate(475.53875 265.676563)scale(0.1 -0.1)">
       <defs>
        <path id="DejaVuSans-37" d="M 525 4666 
L 3525 4666 
L 3525 4397 
L 1831 0 
L 1172 0 
L 2766 4134 
L 525 4134 
L 525 4666 
z
" transform="scale(0.015625)"/>
       </defs>
       <use xlink:href="#DejaVuSans-32"/>
       <use xlink:href="#DejaVuSans-37" x="63.623047"/>
       <use xlink:href="#DejaVuSans-30" x="127.246094"/>
       <use xlink:href="#DejaVuSans-b0" x="190.869141"/>
      </g>
     </g>
    </g>
    <g id="xtick_8">
     <g id="line2d_8">
      <path d="M 251.8225 262.917188 
L 408.6305 106.109188 
" clip-path="url(#p4a9312e6f0)" style="fill: none; stroke: #b0b0b0; stroke-width: 0.8; stroke-linecap: square"/>
     </g>
     <g id="text_8">
      <!-- 315° -->
      <g transform="translate(406.486245 98.969068)scale(0.1 -0.1)">
       <use xlink:href="#DejaVuSans-33"/>
       <use xlink:href="#DejaVuSans-31" x="63.623047"/>
       <use xlink:href="#DejaVuSans-35" x="127.246094"/>
       <use xlink:href="#DejaVuSans-b0" x="190.869141"/>
      </g>
     </g>
    </g>
   </g>
   <g id="matplotlib.axis_2">
    <g id="ytick_1">
     <g id="line2d_9">
      <path d="M 251.8225 259.018291 
C 251.310502 259.018291 250.803482 259.119143 250.330457 259.315077 
C 249.857432 259.51101 249.427601 259.798214 249.065564 260.160251 
C 248.703526 260.522289 248.416322 260.952119 248.220389 261.425144 
C 248.024456 261.898169 247.923603 262.405189 247.923603 262.917188 
C 247.923603 263.429186 248.024456 263.936206 248.220389 264.409231 
C 248.416322 264.882256 248.703526 265.312086 249.065564 265.674124 
C 249.427601 266.036161 249.857432 266.323365 250.330457 266.519298 
C 250.803482 266.715232 251.310502 266.816084 251.8225 266.816084 
C 252.334498 266.816084 252.841518 266.715232 253.314543 266.519298 
C 253.787568 266.323365 254.217399 266.036161 254.579436 265.674124 
C 254.941474 265.312086 255.228678 264.882256 255.424611 264.409231 
C 255.620544 263.936206 255.721397 263.429186 255.721397 262.917188 
C 255.721397 262.405189 255.620544 261.898169 255.424611 261.425144 
C 255.228678 260.952119 254.941474 260.522289 254.579436 260.160251 
C 254.217399 259.798214 253.787568 259.51101 253.314543 259.315077 
C 252.841518 259.119143 252.334498 259.018291 251.8225 259.018291 
" clip-path="url(#p4a9312e6f0)" style="fill: none; stroke: #b0b0b0; stroke-width: 0.8; stroke-linecap: square"/>
     </g>
     <g id="text_9">
      <!-- −40 -->
      <g transform="translate(250.330457 257.235389)scale(0.1 -0.1)">
       <defs>
        <path id="DejaVuSans-2212" d="M 678 2272 
L 4684 2272 
L 4684 1741 
L 678 1741 
L 678 2272 
z
" transform="scale(0.015625)"/>
       </defs>
       <use xlink:href="#DejaVuSans-2212"/>
       <use xlink:href="#DejaVuSans-34" x="83.789062"/>
       <use xlink:href="#DejaVuSans-30" x="147.412109"/>
      </g>
     </g>
    </g>
    <g id="ytick_2">
     <g id="line2d_10">
      <path d="M 251.8225 231.785653 
C 247.734344 231.785653 243.685941 232.59093 239.908977 234.1554 
C 236.132014 235.719869 232.699943 238.013106 229.809181 240.903868 
C 226.918418 243.794631 224.625182 247.226702 223.060712 251.003665 
C 221.496243 254.780628 220.690965 258.829032 220.690965 262.917188 
C 220.690965 267.005343 221.496243 271.053747 223.060712 274.83071 
C 224.625182 278.607673 226.918418 282.039744 229.809181 284.930507 
C 232.699943 287.821269 236.132014 290.114506 239.908977 291.678975 
C 243.685941 293.243445 247.734344 294.048722 251.8225 294.048722 
C 255.910656 294.048722 259.959059 293.243445 263.736023 291.678975 
C 267.512986 290.114506 270.945057 287.821269 273.835819 284.930507 
C 276.726582 282.039744 279.019818 278.607673 280.584288 274.83071 
C 282.148757 271.053747 282.954035 267.005343 282.954035 262.917188 
C 282.954035 258.829032 282.148757 254.780628 280.584288 251.003665 
C 279.019818 247.226702 276.726582 243.794631 273.835819 240.903868 
C 270.945057 238.013106 267.512986 235.719869 263.736023 234.1554 
C 259.959059 232.59093 255.910656 231.785653 251.8225 231.785653 
" clip-path="url(#p4a9312e6f0)" style="fill: none; stroke: #b0b0b0; stroke-width: 0.8; stroke-linecap: square"/>
     </g>
     <g id="text_10">
      <!-- −35 -->
      <g transform="translate(239.908977 232.075712)scale(0.1 -0.1)">
       <use xlink:href="#DejaVuSans-2212"/>
       <use xlink:href="#DejaVuSans-33" x="83.789062"/>
       <use xlink:href="#DejaVuSans-35" x="147.412109"/>
      </g>
     </g>
    </g>
    <g id="ytick_3">
     <g id="line2d_11">
      <path d="M 251.8225 204.553015 
C 244.158187 204.553015 236.5684 206.062717 229.487498 208.995723 
C 222.406596 211.928729 215.972285 216.227998 210.552798 221.647485 
C 205.13331 227.066973 200.834041 233.501284 197.901036 240.582186 
C 194.96803 247.663087 193.458327 255.252875 193.458327 262.917188 
C 193.458327 270.5815 194.96803 278.171288 197.901036 285.252189 
C 200.834041 292.333091 205.13331 298.767402 210.552798 304.18689 
C 215.972285 309.606377 222.406596 313.905646 229.487498 316.838652 
C 236.5684 319.771658 244.158187 321.28136 251.8225 321.28136 
C 259.486813 321.28136 267.0766 319.771658 274.157502 316.838652 
C 281.238404 313.905646 287.672715 309.606377 293.092202 304.18689 
C 298.51169 298.767402 302.810959 292.333091 305.743964 285.252189 
C 308.67697 278.171288 310.186673 270.5815 310.186673 262.917188 
C 310.186673 255.252875 308.67697 247.663087 305.743964 240.582186 
C 302.810959 233.501284 298.51169 227.066973 293.092202 221.647485 
C 287.672715 216.227998 281.238404 211.928729 274.157502 208.995723 
C 267.0766 206.062717 259.486813 204.553015 251.8225 204.553015 
" clip-path="url(#p4a9312e6f0)" style="fill: none; stroke: #b0b0b0; stroke-width: 0.8; stroke-linecap: square"/>
     </g>
     <g id="text_11">
      <!-- −30 -->
      <g transform="translate(229.487498 206.916036)scale(0.1 -0.1)">
       <use xlink:href="#DejaVuSans-2212"/>
       <use xlink:href="#DejaVuSans-33" x="83.789062"/>
       <use xlink:href="#DejaVuSans-30" x="147.412109"/>
      </g>
     </g>
    </g>
    <g id="ytick_4">
     <g id="line2d_12">
      <path d="M 251.8225 177.320377 
C 240.58203 177.320377 229.450859 179.534505 219.066019 183.836046 
C 208.681178 188.137588 199.244628 194.44289 191.296415 202.391102 
C 183.348202 210.339315 177.0429 219.775866 172.741359 230.160706 
C 168.439817 240.545547 166.22569 251.676717 166.22569 262.917188 
C 166.22569 274.157658 168.439817 285.288828 172.741359 295.673669 
C 177.0429 306.058509 183.348202 315.49506 191.296415 323.443273 
C 199.244628 331.391485 208.681178 337.696787 219.066019 341.998329 
C 229.450859 346.29987 240.58203 348.513998 251.8225 348.513998 
C 263.06297 348.513998 274.194141 346.29987 284.578981 341.998329 
C 294.963822 337.696787 304.400372 331.391485 312.348585 323.443273 
C 320.296798 315.49506 326.6021 306.058509 330.903641 295.673669 
C 335.205183 285.288828 337.41931 274.157658 337.41931 262.917188 
C 337.41931 251.676717 335.205183 240.545547 330.903641 230.160706 
C 326.6021 219.775866 320.296798 210.339315 312.348585 202.391102 
C 304.400372 194.44289 294.963822 188.137588 284.578981 183.836046 
C 274.194141 179.534505 263.06297 177.320377 251.8225 177.320377 
" clip-path="url(#p4a9312e6f0)" style="fill: none; stroke: #b0b0b0; stroke-width: 0.8; stroke-linecap: square"/>
     </g>
     <g id="text_12">
      <!-- −25 -->
      <g transform="translate(219.066019 181.756359)scale(0.1 -0.1)">
       <use xlink:href="#DejaVuSans-2212"/>
       <use xlink:href="#DejaVuSans-32" x="83.789062"/>
       <use xlink:href="#DejaVuSans-35" x="147.412109"/>
      </g>
     </g>
    </g>
    <g id="ytick_5">
     <g id="line2d_13">
      <path d="M 251.8225 150.087739 
C 237.005873 150.087739 222.333318 153.006292 208.644539 158.676369 
C 194.955761 164.346447 182.51697 172.657782 172.040032 183.134719 
C 161.563094 193.611657 153.25176 206.050448 147.581682 219.739227 
C 141.911604 233.428006 138.993052 248.10056 138.993052 262.917188 
C 138.993052 277.733815 141.911604 292.406369 147.581682 306.095148 
C 153.25176 319.783927 161.563094 332.222718 172.040032 342.699656 
C 182.51697 353.176593 194.955761 361.487928 208.644539 367.158006 
C 222.333318 372.828083 237.005873 375.746636 251.8225 375.746636 
C 266.639127 375.746636 281.311682 372.828083 295.000461 367.158006 
C 308.689239 361.487928 321.12803 353.176593 331.604968 342.699656 
C 342.081906 332.222718 350.39324 319.783927 356.063318 306.095148 
C 361.733396 292.406369 364.651948 277.733815 364.651948 262.917188 
C 364.651948 248.10056 361.733396 233.428006 356.063318 219.739227 
C 350.39324 206.050448 342.081906 193.611657 331.604968 183.134719 
C 321.12803 172.657782 308.689239 164.346447 295.000461 158.676369 
C 281.311682 153.006292 266.639127 150.087739 251.8225 150.087739 
" clip-path="url(#p4a9312e6f0)" style="fill: none; stroke: #b0b0b0; stroke-width: 0.8; stroke-linecap: square"/>
     </g>
     <g id="text_13">
      <!-- −20 -->
      <g transform="translate(208.644539 156.596682)scale(0.1 -0.1)">
       <use xlink:href="#DejaVuSans-2212"/>
       <use xlink:href="#DejaVuSans-32" x="83.789062"/>
       <use xlink:href="#DejaVuSans-30" x="147.412109"/>
      </g>
     </g>
    </g>
    <g id="ytick_6">
     <g id="line2d_14">
      <path d="M 251.8225 122.855101 
C 233.429715 122.855101 215.215777 126.478079 198.22306 133.516693 
C 181.230343 140.555307 165.789312 150.872674 152.783649 163.878336 
C 139.777986 176.883999 129.460619 192.32503 122.422005 209.317748 
C 115.383391 226.310465 111.760414 244.524403 111.760414 262.917188 
C 111.760414 281.309972 115.383391 299.52391 122.422005 316.516627 
C 129.460619 333.509345 139.777986 348.950376 152.783649 361.956039 
C 165.789312 374.961701 181.230343 385.279068 198.22306 392.317682 
C 215.215777 399.356296 233.429715 402.979274 251.8225 402.979274 
C 270.215285 402.979274 288.429223 399.356296 305.42194 392.317682 
C 322.414657 385.279068 337.855688 374.961701 350.861351 361.956039 
C 363.867014 348.950376 374.184381 333.509345 381.222995 316.516627 
C 388.261609 299.52391 391.884586 281.309972 391.884586 262.917188 
C 391.884586 244.524403 388.261609 226.310465 381.222995 209.317748 
C 374.184381 192.32503 363.867014 176.883999 350.861351 163.878336 
C 337.855688 150.872674 322.414657 140.555307 305.42194 133.516693 
C 288.429223 126.478079 270.215285 122.855101 251.8225 122.855101 
" clip-path="url(#p4a9312e6f0)" style="fill: none; stroke: #b0b0b0; stroke-width: 0.8; stroke-linecap: square"/>
     </g>
     <g id="text_14">
      <!-- −15 -->
      <g transform="translate(198.22306 131.437005)scale(0.1 -0.1)">
       <use xlink:href="#DejaVuSans-2212"/>
       <use xlink:href="#DejaVuSans-31" x="83.789062"/>
       <use xlink:href="#DejaVuSans-35" x="147.412109"/>
      </g>
     </g>
    </g>
    <g id="ytick_7">
     <g id="line2d_15">
      <path d="M 251.8225 95.622463 
C 229.853558 95.622463 208.098236 99.949866 187.801581 108.357016 
C 167.504925 116.764166 149.061654 129.087566 133.527266 144.621954 
C 117.992878 160.156341 105.669479 178.599612 97.262328 198.896268 
C 88.855178 219.192924 84.527776 240.948246 84.527776 262.917188 
C 84.527776 284.886129 88.855178 306.641451 97.262328 326.938107 
C 105.669479 347.234763 117.992878 365.678034 133.527266 381.212421 
C 149.061654 396.746809 167.504925 409.070209 187.801581 417.477359 
C 208.098236 425.884509 229.853558 430.211912 251.8225 430.211912 
C 273.791442 430.211912 295.546764 425.884509 315.843419 417.477359 
C 336.140075 409.070209 354.583346 396.746809 370.117734 381.212421 
C 385.652122 365.678034 397.975521 347.234763 406.382672 326.938107 
C 414.789822 306.641451 419.117224 284.886129 419.117224 262.917188 
C 419.117224 240.948246 414.789822 219.192924 406.382672 198.896268 
C 397.975521 178.599612 385.652122 160.156341 370.117734 144.621954 
C 354.583346 129.087566 336.140075 116.764166 315.843419 108.357016 
C 295.546764 99.949866 273.791442 95.622463 251.8225 95.622463 
" clip-path="url(#p4a9312e6f0)" style="fill: none; stroke: #b0b0b0; stroke-width: 0.8; stroke-linecap: square"/>
     </g>
     <g id="text_15">
      <!-- −10 -->
      <g transform="translate(187.801581 106.277328)scale(0.1 -0.1)">
       <use xlink:href="#DejaVuSans-2212"/>
       <use xlink:href="#DejaVuSans-31" x="83.789062"/>
       <use xlink:href="#DejaVuSans-30" x="147.412109"/>
      </g>
     </g>
    </g>
    <g id="ytick_8">
     <g id="line2d_16">
      <path d="M 251.8225 68.389825 
C 226.277401 68.389825 200.980696 73.421653 177.380101 83.197339 
C 153.779507 92.973025 132.333996 107.302458 114.270883 125.365571 
C 96.20777 143.428683 81.878338 164.874195 72.102652 188.474789 
C 62.326965 212.075383 57.295138 237.372088 57.295138 262.917188 
C 57.295138 288.462287 62.326965 313.758992 72.102652 337.359586 
C 81.878338 360.96018 96.20777 382.405692 114.270883 400.468804 
C 132.333996 418.531917 153.779507 432.86135 177.380101 442.637036 
C 200.980696 452.412722 226.277401 457.44455 251.8225 457.44455 
C 277.367599 457.44455 302.664304 452.412722 326.264899 442.637036 
C 349.865493 432.86135 371.311004 418.531917 389.374117 400.468804 
C 407.43723 382.405692 421.766662 360.96018 431.542348 337.359586 
C 441.318035 313.758992 446.349862 288.462287 446.349862 262.917188 
C 446.349862 237.372088 441.318035 212.075383 431.542348 188.474789 
C 421.766662 164.874195 407.43723 143.428683 389.374117 125.365571 
C 371.311004 107.302458 349.865493 92.973025 326.264899 83.197339 
C 302.664304 73.421653 277.367599 68.389825 251.8225 68.389825 
" clip-path="url(#p4a9312e6f0)" style="fill: none; stroke: #b0b0b0; stroke-width: 0.8; stroke-linecap: square"/>
     </g>
     <g id="text_16">
      <!-- −5 -->
      <g transform="translate(177.380101 81.117652)scale(0.1 -0.1)">
       <use xlink:href="#DejaVuSans-2212"/>
       <use xlink:href="#DejaVuSans-35" x="83.789062"/>
      </g>
     </g>
    </g>
    <g id="ytick_9">
     <g id="line2d_17">
      <path d="M 251.8225 41.157188 
C 222.701244 41.157188 193.863155 46.89344 166.958622 58.037662 
C 140.054089 69.181885 115.606338 85.51735 95.0145 106.109188 
C 74.422662 126.701026 58.087197 151.148777 46.942975 178.05331 
C 35.798753 204.957842 30.0625 233.795931 30.0625 262.917188 
C 30.0625 292.038444 35.798753 320.876533 46.942975 347.781065 
C 58.087197 374.685598 74.422662 399.133349 95.0145 419.725187 
C 115.606338 440.317025 140.054089 456.65249 166.958622 467.796713 
C 193.863155 478.940935 222.701244 484.677188 251.8225 484.677188 
C 280.943756 484.677188 309.781845 478.940935 336.686378 467.796713 
C 363.590911 456.65249 388.038662 440.317025 408.6305 419.725187 
C 429.222338 399.133349 445.557803 374.685598 456.702025 347.781065 
C 467.846247 320.876533 473.5825 292.038444 473.5825 262.917188 
C 473.5825 233.795931 467.846247 204.957842 456.702025 178.05331 
C 445.557803 151.148777 429.222338 126.701026 408.6305 106.109188 
C 388.038662 85.51735 363.590911 69.181885 336.686378 58.037662 
C 309.781845 46.89344 280.943756 41.157188 251.8225 41.157188 
" clip-path="url(#p4a9312e6f0)" style="fill: none; stroke: #b0b0b0; stroke-width: 0.8; stroke-linecap: square"/>
     </g>
     <g id="text_17">
      <!-- 0 -->
      <g transform="translate(166.958622 55.957975)scale(0.1 -0.1)">
       <use xlink:href="#DejaVuSans-30"/>
      </g>
     </g>
    </g>
   </g>
   <g id="line2d_18">
    <path d="M 251.8225 463.637251 
L 255.331442 463.944314 
L 258.844446 463.999424 
L 262.354741 463.884322 
L 265.90153 464.256693 
L 269.455492 464.463211 
L 273.007275 464.476861 
L 276.523078 464.087249 
L 279.974125 463.226405 
L 286.77648 461.15106 
L 290.147675 460.08312 
L 293.360908 458.340033 
L 296.380467 455.918947 
L 299.446876 453.928125 
L 302.303804 451.31598 
L 304.991128 448.338228 
L 307.699947 445.684083 
L 310.149024 442.42777 
L 312.865192 440.198039 
L 315.810161 438.721842 
L 318.89986 437.659684 
L 324.599898 434.369992 
L 327.275366 432.387098 
L 332.780901 428.906508 
L 335.603667 427.346986 
L 338.637035 426.19158 
L 341.848299 425.328027 
L 345.284505 424.798128 
L 348.331116 423.534497 
L 351.237911 422.015103 
L 353.563352 419.58436 
L 355.63335 416.823101 
L 357.185175 413.390682 
L 358.255385 409.409486 
L 359.579753 405.915892 
L 360.167798 401.592845 
L 360.442774 392.365789 
L 358.890635 386.084988 
L 357.802219 380.61959 
L 357.050661 375.760575 
L 355.443772 370.220156 
L 354.670264 365.764951 
L 353.593388 361.196192 
L 350.775988 355.192808 
L 348.534263 349.99685 
L 343.62683 342.721474 
L 335.255001 332.925368 
L 326.428262 323.331743 
L 306.346437 305.515956 
L 260.256091 269.272354 
L 311.985619 305.043857 
L 330.168112 315.76197 
L 339.049333 319.562955 
L 349.142396 323.729408 
L 356.524163 325.828294 
L 362.124891 326.600303 
L 369.002575 327.871164 
L 373.383641 327.552392 
L 382.443231 326.625175 
L 386.319228 325.634042 
L 389.542785 324.234209 
L 393.364435 322.998174 
L 396.078112 321.200238 
L 399.163162 319.475969 
L 402.589596 317.791923 
L 408.152781 313.711975 
L 411.406183 311.706816 
L 413.793564 309.361643 
L 420.394421 304.946888 
L 422.853555 302.402818 
L 426.047191 299.949789 
L 428.987327 297.354541 
L 431.191949 294.544861 
L 434.304135 291.819439 
L 437.024461 288.945626 
L 439.488549 285.959681 
L 442.494625 282.957635 
L 449.520757 273.278114 
L 450.99417 269.872415 
L 454.241881 262.917188 
L 455.469007 259.362524 
L 456.889166 255.756102 
L 458.25297 248.482163 
L 458.843158 244.805227 
L 459.369824 233.748313 
L 459.264884 230.061542 
L 458.665524 222.710976 
L 458.081496 219.075484 
L 457.096958 211.736517 
L 453.877693 189.375112 
L 453.076995 185.662825 
L 452.743404 181.739873 
L 452.133327 177.890286 
L 451.19607 174.150355 
L 450.564266 170.24238 
L 449.518721 166.494298 
L 447.187339 159.03986 
L 445.706712 155.445414 
L 443.872294 152.037188 
L 441.865903 148.727591 
L 439.668557 145.537944 
L 437.244241 142.502901 
L 431.220121 137.301621 
L 427.916546 134.977374 
L 423.721212 133.382217 
L 420.095254 131.448103 
L 415.980489 129.984669 
L 411.036162 129.321062 
L 406.814151 128.185 
L 401.816326 127.86214 
L 395.480991 128.953477 
L 390.554895 128.944871 
L 384.198001 130.541686 
L 377.028503 133.262576 
L 371.756458 134.303764 
L 364.595452 137.670135 
L 358.293903 140.435849 
L 353.514373 141.725533 
L 349.135286 142.745905 
L 346.43302 141.821243 
L 344.406807 140.053662 
L 340.762308 135.897978 
L 338.799989 133.967757 
L 336.310818 132.816586 
L 333.981202 131.435779 
L 331.115794 130.950986 
L 327.893742 131.157931 
L 324.843292 131.184192 
L 318.196058 132.651746 
L 314.909711 133.569236 
L 311.611462 134.699344 
L 308.793098 134.959129 
L 306.527836 134.039493 
L 303.331817 128.730829 
L 301.952627 125.185795 
L 300.881799 120.438637 
L 297.847703 112.375531 
L 296.397879 107.464368 
L 294.405451 103.995451 
L 292.285533 100.628825 
L 290.053523 97.320433 
L 287.401104 95.533016 
L 284.80283 93.248096 
L 282.066498 91.394952 
L 279.116981 90.586616 
L 276.064308 90.427758 
L 272.989194 90.528297 
L 269.944349 90.499311 
L 266.884063 90.762733 
L 263.855984 90.830355 
L 260.829443 91.054481 
L 257.802992 91.658297 
L 254.809114 91.814172 
L 248.847197 92.46221 
L 245.877363 92.670734 
L 239.93111 92.862394 
L 236.91996 92.580377 
L 233.938626 92.763488 
L 231.054065 93.771855 
L 228.226516 95.023039 
L 225.59305 97.310955 
L 223.26861 100.980032 
L 220.913388 103.90359 
L 218.798583 107.551874 
L 217.110257 112.561946 
L 215.279429 116.350934 
L 213.386784 119.473142 
L 211.247997 121.417078 
L 208.964601 122.735317 
L 206.566694 123.63414 
L 203.977854 123.966245 
L 200.943518 123.128334 
L 197.375632 121.078248 
L 193.912825 119.585713 
L 190.658296 118.823353 
L 186.473628 116.141219 
L 182.674411 114.628632 
L 175.476657 113.080034 
L 172.249361 113.261878 
L 165.443704 113.304725 
L 155.67033 114.85583 
L 152.753742 116.041714 
L 149.724405 117.105996 
L 142.383734 117.68704 
L 138.739106 118.177044 
L 135.527605 119.304952 
L 130.318461 123.142779 
L 128.017833 125.418175 
L 125.952735 127.93839 
L 122.732138 133.826825 
L 121.439158 137.007458 
L 120.42074 140.383064 
L 119.006513 143.329136 
L 116.586943 149.441082 
L 115.088479 152.19216 
L 112.555915 157.972289 
L 111.159781 160.71974 
L 110.227458 163.771272 
L 108.920558 166.52861 
L 107.506773 169.197459 
L 106.276488 171.969946 
L 104.403364 177.804709 
L 103.32149 180.601734 
L 102.109483 183.313364 
L 101.194325 186.168299 
L 100.964572 189.33886 
L 100.394502 192.305152 
L 99.010093 198.052169 
L 97.775069 200.677985 
L 96.07671 203.13198 
L 93.997597 205.47362 
L 90.405502 210.469626 
L 88.801181 213.076568 
L 87.610625 215.83019 
L 86.740201 218.683519 
L 85.7322 224.57222 
L 85.040337 227.466544 
L 82.735422 233.102574 
L 81.61144 235.958404 
L 80.945734 238.902024 
L 80.536419 241.885901 
L 80.011293 244.859102 
L 79.076633 247.803882 
L 77.80686 250.748829 
L 75.885935 253.696743 
L 75.000649 256.742432 
L 73.563837 259.805671 
L 71.559594 262.917188 
L 70.07859 266.089539 
L 68.702856 269.311866 
L 67.977537 272.552094 
L 67.537998 275.803615 
L 66.656972 279.117072 
L 65.039559 282.548866 
L 63.886155 285.992869 
L 61.917387 289.606611 
L 60.265696 293.256805 
L 59.34933 296.8554 
L 58.046223 300.58348 
L 57.470484 304.227984 
L 57.207433 307.847616 
L 56.546775 311.604894 
L 56.176453 319.017789 
L 55.716533 322.872798 
L 56.548272 330.155496 
L 57.449518 333.663167 
L 61.363308 343.762318 
L 62.793307 347.078407 
L 64.325466 350.34849 
L 68.117016 356.519807 
L 72.996156 362.042249 
L 75.564657 364.6797 
L 82.114932 368.962246 
L 85.549155 370.89636 
L 89.770848 372.222407 
L 93.461013 373.803095 
L 97.37677 375.128579 
L 102.281711 375.604255 
L 106.472903 376.476738 
L 111.012343 376.943004 
L 116.186404 376.729385 
L 120.125316 377.399803 
L 124.397861 377.650847 
L 128.670233 377.758534 
L 131.884291 378.74017 
L 135.356622 379.383065 
L 138.095563 380.684878 
L 140.43566 382.36495 
L 144.239818 386.676906 
L 146.272569 388.706697 
L 149.118082 389.746581 
L 151.648992 391.133431 
L 154.54438 392.009613 
L 158.076718 391.947187 
L 161.708068 391.613934 
L 165.600334 390.746805 
L 174.573258 386.541817 
L 179.578596 383.151234 
L 191.882889 371.051109 
L 199.284414 361.726957 
L 208.662385 347.623683 
L 216.240447 335.871207 
L 218.992243 333.321901 
L 213.026242 350.055009 
L 208.951683 363.914502 
L 204.618306 379.751667 
L 202.983329 390.147578 
L 202.828694 397.526563 
L 202.197545 407.038522 
L 202.831963 413.694557 
L 203.91666 419.61013 
L 204.935171 426.432736 
L 210.780863 440.688048 
L 215.910455 447.668641 
L 218.595513 451.356793 
L 221.60813 453.683209 
L 224.644918 456.295729 
L 227.829496 458.324528 
L 234.528916 460.583763 
L 248.326106 463.225482 
L 248.326106 463.225482 
" clip-path="url(#p4a9312e6f0)" style="fill: none; stroke: #ff0000; stroke-width: 1.5; stroke-linecap: square"/>
   </g>
   <g id="line2d_19">
    <path d="M 251.8225 76.58576 
L 248.564104 76.243832 
L 245.297768 76.073299 
L 242.03076 76.079652 
L 238.769587 76.251831 
L 235.52141 76.594879 
L 232.292616 77.102751 
L 229.089852 77.774627 
L 225.920498 78.614866 
L 222.789718 79.611417 
L 219.703778 80.762863 
L 216.667858 82.062234 
L 213.68785 83.507766 
L 210.767141 85.08689 
L 207.908319 86.787027 
L 205.114587 88.600884 
L 199.725117 92.514325 
L 194.588321 96.697061 
L 187.261022 103.121923 
L 180.174193 109.266898 
L 175.456381 113.04024 
L 170.694756 116.558863 
L 156.371651 126.599248 
L 151.83626 130.230966 
L 147.643524 134.266866 
L 145.69421 136.438417 
L 142.110147 141.069275 
L 140.483206 143.520412 
L 138.983923 146.069421 
L 136.346 151.402827 
L 134.103098 156.922162 
L 130.086201 167.806367 
L 128.966804 170.33878 
L 127.722307 172.753119 
L 126.301474 175.026419 
L 124.696378 177.169536 
L 122.808131 179.134277 
L 120.765108 181.02344 
L 116.052994 184.530626 
L 99.447929 195.075658 
L 96.672774 197.060036 
L 93.966409 199.139187 
L 91.336686 201.312456 
L 88.796622 203.580621 
L 86.349094 205.940124 
L 83.996861 208.387332 
L 81.752984 210.921718 
L 79.609676 213.535955 
L 77.569327 216.226191 
L 75.628923 218.987195 
L 73.790539 221.815271 
L 72.050808 224.705535 
L 68.858244 230.655653 
L 66.026172 236.805217 
L 63.527219 243.126556 
L 61.348429 249.597943 
L 59.475527 256.200283 
L 57.898613 262.917188 
L 56.612398 269.734074 
L 55.627206 276.636499 
L 54.952597 283.609048 
L 54.602692 290.634624 
L 54.595946 297.69355 
L 54.960162 304.761569 
L 55.716013 311.812026 
L 56.882204 318.815418 
L 57.627026 322.288702 
L 58.4804 325.737844 
L 59.446575 329.157531 
L 60.529567 332.542121 
L 61.722977 335.889557 
L 63.030523 339.194097 
L 64.460683 342.44756 
L 66.001606 345.64998 
L 67.666307 348.790631 
L 69.442714 351.869753 
L 71.338366 354.878447 
L 73.345901 357.814878 
L 75.472296 360.669702 
L 77.709872 363.44116 
L 80.055675 366.125109 
L 82.506616 368.717494 
L 85.06405 371.211391 
L 87.724479 373.6027 
L 90.484277 375.887427 
L 93.335281 378.064892 
L 96.27378 380.131555 
L 99.295951 382.083988 
L 102.397857 383.918878 
L 105.571284 385.636529 
L 108.81227 387.234084 
L 112.116758 388.708802 
L 115.468654 390.069206 
L 118.872148 391.30585 
L 122.311578 392.428109 
L 125.783376 393.434521 
L 129.283919 394.323727 
L 136.331515 395.774368 
L 143.403569 396.803417 
L 150.462861 397.425971 
L 157.465051 397.67359 
L 160.927683 397.674295 
L 167.79295 397.392578 
L 184.011826 396.00313 
L 186.941724 395.942493 
L 189.710559 396.116674 
L 192.288354 396.633069 
L 194.673648 397.551446 
L 196.848416 398.98282 
L 198.84109 400.93848 
L 200.680488 403.428711 
L 202.431255 406.359779 
L 204.117492 409.738107 
L 211.352615 425.233031 
L 213.43073 429.210212 
L 215.648029 433.104693 
L 218.007447 436.880555 
L 220.505799 440.523025 
L 223.140752 444.006615 
L 225.906854 447.316593 
L 228.796468 450.449169 
L 231.802434 453.395395 
L 234.917597 456.141116 
L 238.132063 458.699554 
L 241.438427 461.057097 
L 244.827697 463.222134 
L 248.291962 465.181577 
L 251.8225 466.94983 
L 255.411212 468.514344 
L 259.049962 469.884622 
L 262.730778 471.059534 
L 266.445666 472.038208 
L 270.186619 472.820031 
L 273.946193 473.410068 
L 277.716659 473.808193 
L 281.490296 474.014528 
L 285.260249 474.034827 
L 289.018167 473.864297 
L 292.756391 473.503803 
L 296.468431 472.95978 
L 300.146983 472.233521 
L 303.783474 471.32127 
L 307.371832 470.230117 
L 310.904917 468.962061 
L 314.375651 467.519325 
L 317.775349 465.899185 
L 321.098589 464.109558 
L 324.336671 462.148234 
L 327.484534 460.023526 
L 330.533494 457.733734 
L 333.476745 455.282533 
L 336.305381 452.668845 
L 339.017177 449.906777 
L 341.598787 446.985854 
L 344.050808 443.925434 
L 346.359655 440.715717 
L 348.524084 437.371463 
L 350.532779 433.888406 
L 352.385147 430.281537 
L 354.06987 426.547184 
L 355.587024 422.700542 
L 356.928364 418.743039 
L 358.09176 414.68542 
L 359.072379 410.533982 
L 359.872133 406.303894 
L 360.493731 402.01002 
L 360.933808 397.658432 
L 361.203182 393.272008 
L 361.321155 388.880981 
L 361.279742 384.481771 
L 360.801931 375.768692 
L 359.124413 356.193317 
L 359.06705 352.90605 
L 359.182104 349.855281 
L 359.610051 347.130052 
L 360.28039 344.64607 
L 361.249603 342.420632 
L 362.531233 340.436277 
L 364.138189 338.675076 
L 366.082738 337.118653 
L 368.284113 335.69048 
L 370.750276 334.376205 
L 373.488681 333.16119 
L 376.458624 332.004119 
L 397.386309 324.705358 
L 404.843869 321.656588 
L 408.55828 319.964346 
L 412.197611 318.138767 
L 415.804612 316.198205 
L 419.339831 314.132375 
L 422.794502 311.94262 
L 426.159848 309.630739 
L 429.427103 307.198989 
L 432.587532 304.650083 
L 435.637771 301.988329 
L 438.569252 299.217079 
L 441.378845 296.341085 
L 444.063573 293.365182 
L 446.620616 290.294277 
L 449.041908 287.132686 
L 451.330331 283.886306 
L 453.478125 280.559769 
L 455.483094 277.158524 
L 457.348657 273.688357 
L 459.067538 270.154344 
L 460.64351 266.562172 
L 462.06963 262.917188 
L 463.350022 259.224961 
L 464.478089 255.491091 
L 465.463739 251.720725 
L 466.295281 247.91979 
L 466.97752 244.093562 
L 467.509987 240.247519 
L 467.892386 236.387141 
L 468.127826 232.517456 
L 468.217401 228.643602 
L 468.161284 224.770823 
L 467.960879 220.904143 
L 467.619334 217.048155 
L 467.137791 213.207736 
L 466.519125 209.387307 
L 465.765795 205.591254 
L 464.8809 201.823674 
L 463.867121 198.088641 
L 462.728793 194.389579 
L 461.468256 190.730365 
L 460.089485 187.114204 
L 458.596514 183.54408 
L 456.991913 180.023364 
L 455.280336 176.55446 
L 453.46447 173.140399 
L 451.548057 169.783631 
L 449.534386 166.486657 
L 447.426304 163.252072 
L 445.225749 160.082856 
L 442.936178 156.981146 
L 440.55872 153.95028 
L 438.095087 150.993326 
L 435.544787 148.114761 
L 432.91484 145.314447 
L 430.198139 142.601299 
L 427.40194 139.97514 
L 424.520144 137.445004 
L 421.551536 135.017185 
L 418.503809 132.691476 
L 415.367587 130.480987 
L 412.150996 128.385605 
L 408.841473 126.422677 
L 405.451844 124.588705 
L 401.970646 122.901776 
L 398.403241 121.365812 
L 394.747418 119.99227 
L 391.00542 118.789055 
L 387.17247 117.772114 
L 383.255705 116.945825 
L 379.251692 116.326671 
L 375.165012 115.923305 
L 370.993846 115.752831 
L 366.744128 115.824212 
L 362.418985 116.150694 
L 358.025525 116.741264 
L 353.568208 117.609257 
L 349.05838 118.759067 
L 344.513484 120.185588 
L 339.950482 121.882934 
L 335.399848 123.821122 
L 330.91711 125.921305 
L 322.405775 130.169355 
L 318.569926 131.917989 
L 315.151336 133.073831 
L 312.231107 133.370511 
L 309.805934 132.684262 
L 307.822163 130.990249 
L 306.164089 128.417034 
L 304.66728 125.251829 
L 300.150244 114.179685 
L 298.422882 110.494206 
L 296.551308 106.929296 
L 294.526964 103.541958 
L 292.34509 100.389954 
L 290.030489 97.420203 
L 287.587043 94.65824 
L 285.024398 92.108231 
L 282.35515 89.757926 
L 279.589173 87.605312 
L 276.736057 85.648019 
L 273.805094 83.883328 
L 270.80584 82.302774 
L 267.746681 80.902966 
L 264.635297 79.685652 
L 261.479697 78.64689 
L 258.287357 77.78791 
L 255.065972 77.098806 
L 255.065972 77.098806 
" clip-path="url(#p4a9312e6f0)" style="fill: none; stroke-dasharray: 5.55,2.4; stroke-dashoffset: 0; stroke: #0000ff; stroke-width: 1.5"/>
   </g>
   <g id="patch_3">
    <path d="M 251.8225 41.157188 
C 222.701244 41.157188 193.863155 46.89344 166.958622 58.037662 
C 140.054089 69.181885 115.606338 85.51735 95.0145 106.109188 
C 74.422662 126.701026 58.087197 151.148777 46.942975 178.05331 
C 35.798753 204.957842 30.0625 233.795931 30.0625 262.917188 
C 30.0625 292.038444 35.798753 320.876533 46.942975 347.781065 
C 58.087197 374.685598 74.422662 399.133349 95.0145 419.725187 
C 115.606338 440.317025 140.054089 456.65249 166.958622 467.796713 
C 193.863155 478.940935 222.701244 484.677188 251.8225 484.677188 
C 280.943756 484.677188 309.781845 478.940935 336.686378 467.796713 
C 363.590911 456.65249 388.038662 440.317025 408.6305 419.725187 
C 429.222338 399.133349 445.557803 374.685598 456.702025 347.781065 
C 467.846247 320.876533 473.5825 292.038444 473.5825 262.917188 
C 473.5825 233.795931 467.846247 204.957842 456.702025 178.05331 
C 445.557803 151.148777 429.222338 126.701026 408.6305 106.109188 
C 388.038662 85.51735 363.590911 69.181885 336.686378 58.037662 
C 309.781845 46.89344 280.943756 41.157188 251.8225 41.157188 
" style="fill: none; stroke: #000000; stroke-width: 0.8; stroke-linejoin: miter; stroke-linecap: square"/>
   </g>
   <g id="text_18">
    <g id="patch_4">
     <path d="M 384.8785 509.853188 
L 485.369125 509.853188 
Q 488.369125 509.853188 488.369125 506.853188 
L 488.369125 473.945063 
Q 488.369125 470.945063 485.369125 470.945063 
L 384.8785 470.945063 
Q 381.8785 470.945063 381.8785 473.945063 
L 381.8785 506.853188 
Q 381.8785 509.853188 384.8785 509.853188 
z
" style="fill: #ffffff; stroke: #808080; stroke-linejoin: miter"/>
    </g>
    <!-- G_cst: -0.1 dBi -->
    <g transform="translate(384.8785 481.821625)scale(0.1 -0.1)">
     <defs>
      <path id="DejaVuSans-47" d="M 3809 666 
L 3809 1919 
L 2778 1919 
L 2778 2438 
L 4434 2438 
L 4434 434 
Q 4069 175 3628 42 
Q 3188 -91 2688 -91 
Q 1594 -91 976 548 
Q 359 1188 359 2328 
Q 359 3472 976 4111 
Q 1594 4750 2688 4750 
Q 3144 4750 3555 4637 
Q 3966 4525 4313 4306 
L 4313 3634 
Q 3963 3931 3569 4081 
Q 3175 4231 2741 4231 
Q 1884 4231 1454 3753 
Q 1025 3275 1025 2328 
Q 1025 1384 1454 906 
Q 1884 428 2741 428 
Q 3075 428 3337 486 
Q 3600 544 3809 666 
z
" transform="scale(0.015625)"/>
      <path id="DejaVuSans-5f" d="M 3263 -1063 
L 3263 -1509 
L -63 -1509 
L -63 -1063 
L 3263 -1063 
z
" transform="scale(0.015625)"/>
      <path id="DejaVuSans-63" d="M 3122 3366 
L 3122 2828 
Q 2878 2963 2633 3030 
Q 2388 3097 2138 3097 
Q 1578 3097 1268 2742 
Q 959 2388 959 1747 
Q 959 1106 1268 751 
Q 1578 397 2138 397 
Q 2388 397 2633 464 
Q 2878 531 3122 666 
L 3122 134 
Q 2881 22 2623 -34 
Q 2366 -91 2075 -91 
Q 1284 -91 818 406 
Q 353 903 353 1747 
Q 353 2603 823 3093 
Q 1294 3584 2113 3584 
Q 2378 3584 2631 3529 
Q 2884 3475 3122 3366 
z
" transform="scale(0.015625)"/>
      <path id="DejaVuSans-73" d="M 2834 3397 
L 2834 2853 
Q 2591 2978 2328 3040 
Q 2066 3103 1784 3103 
Q 1356 3103 1142 2972 
Q 928 2841 928 2578 
Q 928 2378 1081 2264 
Q 1234 2150 1697 2047 
L 1894 2003 
Q 2506 1872 2764 1633 
Q 3022 1394 3022 966 
Q 3022 478 2636 193 
Q 2250 -91 1575 -91 
Q 1294 -91 989 -36 
Q 684 19 347 128 
L 347 722 
Q 666 556 975 473 
Q 1284 391 1588 391 
Q 1994 391 2212 530 
Q 2431 669 2431 922 
Q 2431 1156 2273 1281 
Q 2116 1406 1581 1522 
L 1381 1569 
Q 847 1681 609 1914 
Q 372 2147 372 2553 
Q 372 3047 722 3315 
Q 1072 3584 1716 3584 
Q 2034 3584 2315 3537 
Q 2597 3491 2834 3397 
z
" transform="scale(0.015625)"/>
      <path id="DejaVuSans-74" d="M 1172 4494 
L 1172 3500 
L 2356 3500 
L 2356 3053 
L 1172 3053 
L 1172 1153 
Q 1172 725 1289 603 
Q 1406 481 1766 481 
L 2356 481 
L 2356 0 
L 1766 0 
Q 1100 0 847 248 
Q 594 497 594 1153 
L 594 3053 
L 172 3053 
L 172 3500 
L 594 3500 
L 594 4494 
L 1172 4494 
z
" transform="scale(0.015625)"/>
      <path id="DejaVuSans-3a" d="M 750 794 
L 1409 794 
L 1409 0 
L 750 0 
L 750 794 
z
M 750 3309 
L 1409 3309 
L 1409 2516 
L 750 2516 
L 750 3309 
z
" transform="scale(0.015625)"/>
      <path id="DejaVuSans-20" transform="scale(0.015625)"/>
      <path id="DejaVuSans-2d" d="M 313 2009 
L 1997 2009 
L 1997 1497 
L 313 1497 
L 313 2009 
z
" transform="scale(0.015625)"/>
      <path id="DejaVuSans-2e" d="M 684 794 
L 1344 794 
L 1344 0 
L 684 0 
L 684 794 
z
" transform="scale(0.015625)"/>
      <path id="DejaVuSans-64" d="M 2906 2969 
L 2906 4863 
L 3481 4863 
L 3481 0 
L 2906 0 
L 2906 525 
Q 2725 213 2448 61 
Q 2172 -91 1784 -91 
Q 1150 -91 751 415 
Q 353 922 353 1747 
Q 353 2572 751 3078 
Q 1150 3584 1784 3584 
Q 2172 3584 2448 3432 
Q 2725 3281 2906 2969 
z
M 947 1747 
Q 947 1113 1208 752 
Q 1469 391 1925 391 
Q 2381 391 2643 752 
Q 2906 1113 2906 1747 
Q 2906 2381 2643 2742 
Q 2381 3103 1925 3103 
Q 1469 3103 1208 2742 
Q 947 2381 947 1747 
z
" transform="scale(0.015625)"/>
      <path id="DejaVuSans-42" d="M 1259 2228 
L 1259 519 
L 2272 519 
Q 2781 519 3026 730 
Q 3272 941 3272 1375 
Q 3272 1813 3026 2020 
Q 2781 2228 2272 2228 
L 1259 2228 
z
M 1259 4147 
L 1259 2741 
L 2194 2741 
Q 2656 2741 2882 2914 
Q 3109 3088 3109 3444 
Q 3109 3797 2882 3972 
Q 2656 4147 2194 4147 
L 1259 4147 
z
M 628 4666 
L 2241 4666 
Q 2963 4666 3353 4366 
Q 3744 4066 3744 3513 
Q 3744 3084 3544 2831 
Q 3344 2578 2956 2516 
Q 3422 2416 3680 2098 
Q 3938 1781 3938 1306 
Q 3938 681 3513 340 
Q 3088 0 2303 0 
L 628 0 
L 628 4666 
z
" transform="scale(0.015625)"/>
      <path id="DejaVuSans-69" d="M 603 3500 
L 1178 3500 
L 1178 0 
L 603 0 
L 603 3500 
z
M 603 4863 
L 1178 4863 
L 1178 4134 
L 603 4134 
L 603 4863 
z
" transform="scale(0.015625)"/>
     </defs>
     <use xlink:href="#DejaVuSans-47"/>
     <use xlink:href="#DejaVuSans-5f" x="77.490234"/>
     <use xlink:href="#DejaVuSans-63" x="127.490234"/>
     <use xlink:href="#DejaVuSans-73" x="182.470703"/>
     <use xlink:href="#DejaVuSans-74" x="234.570312"/>
     <use xlink:href="#DejaVuSans-3a" x="273.779297"/>
     <use xlink:href="#DejaVuSans-20" x="307.470703"/>
     <use xlink:href="#DejaVuSans-2d" x="339.257812"/>
     <use xlink:href="#DejaVuSans-30" x="375.341797"/>
     <use xlink:href="#DejaVuSans-2e" x="438.964844"/>
     <use xlink:href="#DejaVuSans-31" x="470.751953"/>
     <use xlink:href="#DejaVuSans-20" x="534.375"/>
     <use xlink:href="#DejaVuSans-64" x="566.162109"/>
     <use xlink:href="#DejaVuSans-42" x="629.638672"/>
     <use xlink:href="#DejaVuSans-69" x="698.242188"/>
    </g>
    <!-- G_inpe: -1.3 dBi -->
    <g transform="translate(384.8785 493.297563)scale(0.1 -0.1)">
     <defs>
      <path id="DejaVuSans-6e" d="M 3513 2113 
L 3513 0 
L 2938 0 
L 2938 2094 
Q 2938 2591 2744 2837 
Q 2550 3084 2163 3084 
Q 1697 3084 1428 2787 
Q 1159 2491 1159 1978 
L 1159 0 
L 581 0 
L 581 3500 
L 1159 3500 
L 1159 2956 
Q 1366 3272 1645 3428 
Q 1925 3584 2291 3584 
Q 2894 3584 3203 3211 
Q 3513 2838 3513 2113 
z
" transform="scale(0.015625)"/>
      <path id="DejaVuSans-70" d="M 1159 525 
L 1159 -1331 
L 581 -1331 
L 581 3500 
L 1159 3500 
L 1159 2969 
Q 1341 3281 1617 3432 
Q 1894 3584 2278 3584 
Q 2916 3584 3314 3078 
Q 3713 2572 3713 1747 
Q 3713 922 3314 415 
Q 2916 -91 2278 -91 
Q 1894 -91 1617 61 
Q 1341 213 1159 525 
z
M 3116 1747 
Q 3116 2381 2855 2742 
Q 2594 3103 2138 3103 
Q 1681 3103 1420 2742 
Q 1159 2381 1159 1747 
Q 1159 1113 1420 752 
Q 1681 391 2138 391 
Q 2594 391 2855 752 
Q 3116 1113 3116 1747 
z
" transform="scale(0.015625)"/>
      <path id="DejaVuSans-65" d="M 3597 1894 
L 3597 1613 
L 953 1613 
Q 991 1019 1311 708 
Q 1631 397 2203 397 
Q 2534 397 2845 478 
Q 3156 559 3463 722 
L 3463 178 
Q 3153 47 2828 -22 
Q 2503 -91 2169 -91 
Q 1331 -91 842 396 
Q 353 884 353 1716 
Q 353 2575 817 3079 
Q 1281 3584 2069 3584 
Q 2775 3584 3186 3129 
Q 3597 2675 3597 1894 
z
M 3022 2063 
Q 3016 2534 2758 2815 
Q 2500 3097 2075 3097 
Q 1594 3097 1305 2825 
Q 1016 2553 972 2059 
L 3022 2063 
z
" transform="scale(0.015625)"/>
     </defs>
     <use xlink:href="#DejaVuSans-47"/>
     <use xlink:href="#DejaVuSans-5f" x="77.490234"/>
     <use xlink:href="#DejaVuSans-69" x="127.490234"/>
     <use xlink:href="#DejaVuSans-6e" x="155.273438"/>
     <use xlink:href="#DejaVuSans-70" x="218.652344"/>
     <use xlink:href="#DejaVuSans-65" x="282.128906"/>
     <use xlink:href="#DejaVuSans-3a" x="343.652344"/>
     <use xlink:href="#DejaVuSans-20" x="377.34375"/>
     <use xlink:href="#DejaVuSans-2d" x="409.130859"/>
     <use xlink:href="#DejaVuSans-31" x="445.214844"/>
     <use xlink:href="#DejaVuSans-2e" x="508.837891"/>
     <use xlink:href="#DejaVuSans-33" x="540.625"/>
     <use xlink:href="#DejaVuSans-20" x="604.248047"/>
     <use xlink:href="#DejaVuSans-64" x="636.035156"/>
     <use xlink:href="#DejaVuSans-42" x="699.511719"/>
     <use xlink:href="#DejaVuSans-69" x="768.115234"/>
    </g>
    <!-- Pearson Coef: 0.531 -->
    <g transform="translate(384.8785 504.7735)scale(0.1 -0.1)">
     <defs>
      <path id="DejaVuSans-50" d="M 1259 4147 
L 1259 2394 
L 2053 2394 
Q 2494 2394 2734 2622 
Q 2975 2850 2975 3272 
Q 2975 3691 2734 3919 
Q 2494 4147 2053 4147 
L 1259 4147 
z
M 628 4666 
L 2053 4666 
Q 2838 4666 3239 4311 
Q 3641 3956 3641 3272 
Q 3641 2581 3239 2228 
Q 2838 1875 2053 1875 
L 1259 1875 
L 1259 0 
L 628 0 
L 628 4666 
z
" transform="scale(0.015625)"/>
      <path id="DejaVuSans-61" d="M 2194 1759 
Q 1497 1759 1228 1600 
Q 959 1441 959 1056 
Q 959 750 1161 570 
Q 1363 391 1709 391 
Q 2188 391 2477 730 
Q 2766 1069 2766 1631 
L 2766 1759 
L 2194 1759 
z
M 3341 1997 
L 3341 0 
L 2766 0 
L 2766 531 
Q 2569 213 2275 61 
Q 1981 -91 1556 -91 
Q 1019 -91 701 211 
Q 384 513 384 1019 
Q 384 1609 779 1909 
Q 1175 2209 1959 2209 
L 2766 2209 
L 2766 2266 
Q 2766 2663 2505 2880 
Q 2244 3097 1772 3097 
Q 1472 3097 1187 3025 
Q 903 2953 641 2809 
L 641 3341 
Q 956 3463 1253 3523 
Q 1550 3584 1831 3584 
Q 2591 3584 2966 3190 
Q 3341 2797 3341 1997 
z
" transform="scale(0.015625)"/>
      <path id="DejaVuSans-72" d="M 2631 2963 
Q 2534 3019 2420 3045 
Q 2306 3072 2169 3072 
Q 1681 3072 1420 2755 
Q 1159 2438 1159 1844 
L 1159 0 
L 581 0 
L 581 3500 
L 1159 3500 
L 1159 2956 
Q 1341 3275 1631 3429 
Q 1922 3584 2338 3584 
Q 2397 3584 2469 3576 
Q 2541 3569 2628 3553 
L 2631 2963 
z
" transform="scale(0.015625)"/>
      <path id="DejaVuSans-6f" d="M 1959 3097 
Q 1497 3097 1228 2736 
Q 959 2375 959 1747 
Q 959 1119 1226 758 
Q 1494 397 1959 397 
Q 2419 397 2687 759 
Q 2956 1122 2956 1747 
Q 2956 2369 2687 2733 
Q 2419 3097 1959 3097 
z
M 1959 3584 
Q 2709 3584 3137 3096 
Q 3566 2609 3566 1747 
Q 3566 888 3137 398 
Q 2709 -91 1959 -91 
Q 1206 -91 779 398 
Q 353 888 353 1747 
Q 353 2609 779 3096 
Q 1206 3584 1959 3584 
z
" transform="scale(0.015625)"/>
      <path id="DejaVuSans-43" d="M 4122 4306 
L 4122 3641 
Q 3803 3938 3442 4084 
Q 3081 4231 2675 4231 
Q 1875 4231 1450 3742 
Q 1025 3253 1025 2328 
Q 1025 1406 1450 917 
Q 1875 428 2675 428 
Q 3081 428 3442 575 
Q 3803 722 4122 1019 
L 4122 359 
Q 3791 134 3420 21 
Q 3050 -91 2638 -91 
Q 1578 -91 968 557 
Q 359 1206 359 2328 
Q 359 3453 968 4101 
Q 1578 4750 2638 4750 
Q 3056 4750 3426 4639 
Q 3797 4528 4122 4306 
z
" transform="scale(0.015625)"/>
      <path id="DejaVuSans-66" d="M 2375 4863 
L 2375 4384 
L 1825 4384 
Q 1516 4384 1395 4259 
Q 1275 4134 1275 3809 
L 1275 3500 
L 2222 3500 
L 2222 3053 
L 1275 3053 
L 1275 0 
L 697 0 
L 697 3053 
L 147 3053 
L 147 3500 
L 697 3500 
L 697 3744 
Q 697 4328 969 4595 
Q 1241 4863 1831 4863 
L 2375 4863 
z
" transform="scale(0.015625)"/>
     </defs>
     <use xlink:href="#DejaVuSans-50"/>
     <use xlink:href="#DejaVuSans-65" x="56.677734"/>
     <use xlink:href="#DejaVuSans-61" x="118.201172"/>
     <use xlink:href="#DejaVuSans-72" x="179.480469"/>
     <use xlink:href="#DejaVuSans-73" x="220.59375"/>
     <use xlink:href="#DejaVuSans-6f" x="272.693359"/>
     <use xlink:href="#DejaVuSans-6e" x="333.875"/>
     <use xlink:href="#DejaVuSans-20" x="397.253906"/>
     <use xlink:href="#DejaVuSans-43" x="429.041016"/>
     <use xlink:href="#DejaVuSans-6f" x="498.865234"/>
     <use xlink:href="#DejaVuSans-65" x="560.046875"/>
     <use xlink:href="#DejaVuSans-66" x="621.570312"/>
     <use xlink:href="#DejaVuSans-3a" x="653.150391"/>
     <use xlink:href="#DejaVuSans-20" x="686.841797"/>
     <use xlink:href="#DejaVuSans-30" x="718.628906"/>
     <use xlink:href="#DejaVuSans-2e" x="782.251953"/>
     <use xlink:href="#DejaVuSans-35" x="814.039062"/>
     <use xlink:href="#DejaVuSans-33" x="877.662109"/>
     <use xlink:href="#DejaVuSans-31" x="941.285156"/>
    </g>
   </g>
   <g id="text_19">
    <g id="patch_5">
     <path d="M 52.2385 56.370938 
L 129.496 56.370938 
Q 133.096 56.370938 133.096 52.770938 
L 133.096 41.157188 
Q 133.096 37.557188 129.496 37.557188 
L 52.2385 37.557188 
Q 48.6385 37.557188 48.6385 41.157188 
L 48.6385 52.770938 
Q 48.6385 56.370938 52.2385 56.370938 
z
" style="fill: #ffffff; stroke: #808080; stroke-linejoin: miter"/>
    </g>
    <!-- Freq: 11 GHz -->
    <g transform="translate(52.2385 50.275313)scale(0.12 -0.12)">
     <defs>
      <path id="DejaVuSans-46" d="M 628 4666 
L 3309 4666 
L 3309 4134 
L 1259 4134 
L 1259 2759 
L 3109 2759 
L 3109 2228 
L 1259 2228 
L 1259 0 
L 628 0 
L 628 4666 
z
" transform="scale(0.015625)"/>
      <path id="DejaVuSans-71" d="M 947 1747 
Q 947 1113 1208 752 
Q 1469 391 1925 391 
Q 2381 391 2643 752 
Q 2906 1113 2906 1747 
Q 2906 2381 2643 2742 
Q 2381 3103 1925 3103 
Q 1469 3103 1208 2742 
Q 947 2381 947 1747 
z
M 2906 525 
Q 2725 213 2448 61 
Q 2172 -91 1784 -91 
Q 1150 -91 751 415 
Q 353 922 353 1747 
Q 353 2572 751 3078 
Q 1150 3584 1784 3584 
Q 2172 3584 2448 3432 
Q 2725 3281 2906 2969 
L 2906 3500 
L 3481 3500 
L 3481 -1331 
L 2906 -1331 
L 2906 525 
z
" transform="scale(0.015625)"/>
      <path id="DejaVuSans-48" d="M 628 4666 
L 1259 4666 
L 1259 2753 
L 3553 2753 
L 3553 4666 
L 4184 4666 
L 4184 0 
L 3553 0 
L 3553 2222 
L 1259 2222 
L 1259 0 
L 628 0 
L 628 4666 
z
" transform="scale(0.015625)"/>
      <path id="DejaVuSans-7a" d="M 353 3500 
L 3084 3500 
L 3084 2975 
L 922 459 
L 3084 459 
L 3084 0 
L 275 0 
L 275 525 
L 2438 3041 
L 353 3041 
L 353 3500 
z
" transform="scale(0.015625)"/>
     </defs>
     <use xlink:href="#DejaVuSans-46"/>
     <use xlink:href="#DejaVuSans-72" x="50.269531"/>
     <use xlink:href="#DejaVuSans-65" x="89.132812"/>
     <use xlink:href="#DejaVuSans-71" x="150.65625"/>
     <use xlink:href="#DejaVuSans-3a" x="214.132812"/>
     <use xlink:href="#DejaVuSans-20" x="247.824219"/>
     <use xlink:href="#DejaVuSans-31" x="279.611328"/>
     <use xlink:href="#DejaVuSans-31" x="343.234375"/>
     <use xlink:href="#DejaVuSans-20" x="406.857422"/>
     <use xlink:href="#DejaVuSans-47" x="438.644531"/>
     <use xlink:href="#DejaVuSans-48" x="516.134766"/>
     <use xlink:href="#DejaVuSans-7a" x="591.330078"/>
    </g>
   </g>
   <g id="text_20">
    <!-- Radiation Diagram - 1AVHF11 -->
    <g transform="translate(162.578125 16.318125)scale(0.12 -0.12)">
     <defs>
      <path id="DejaVuSans-52" d="M 2841 2188 
Q 3044 2119 3236 1894 
Q 3428 1669 3622 1275 
L 4263 0 
L 3584 0 
L 2988 1197 
Q 2756 1666 2539 1819 
Q 2322 1972 1947 1972 
L 1259 1972 
L 1259 0 
L 628 0 
L 628 4666 
L 2053 4666 
Q 2853 4666 3247 4331 
Q 3641 3997 3641 3322 
Q 3641 2881 3436 2590 
Q 3231 2300 2841 2188 
z
M 1259 4147 
L 1259 2491 
L 2053 2491 
Q 2509 2491 2742 2702 
Q 2975 2913 2975 3322 
Q 2975 3731 2742 3939 
Q 2509 4147 2053 4147 
L 1259 4147 
z
" transform="scale(0.015625)"/>
      <path id="DejaVuSans-44" d="M 1259 4147 
L 1259 519 
L 2022 519 
Q 2988 519 3436 956 
Q 3884 1394 3884 2338 
Q 3884 3275 3436 3711 
Q 2988 4147 2022 4147 
L 1259 4147 
z
M 628 4666 
L 1925 4666 
Q 3281 4666 3915 4102 
Q 4550 3538 4550 2338 
Q 4550 1131 3912 565 
Q 3275 0 1925 0 
L 628 0 
L 628 4666 
z
" transform="scale(0.015625)"/>
      <path id="DejaVuSans-67" d="M 2906 1791 
Q 2906 2416 2648 2759 
Q 2391 3103 1925 3103 
Q 1463 3103 1205 2759 
Q 947 2416 947 1791 
Q 947 1169 1205 825 
Q 1463 481 1925 481 
Q 2391 481 2648 825 
Q 2906 1169 2906 1791 
z
M 3481 434 
Q 3481 -459 3084 -895 
Q 2688 -1331 1869 -1331 
Q 1566 -1331 1297 -1286 
Q 1028 -1241 775 -1147 
L 775 -588 
Q 1028 -725 1275 -790 
Q 1522 -856 1778 -856 
Q 2344 -856 2625 -561 
Q 2906 -266 2906 331 
L 2906 616 
Q 2728 306 2450 153 
Q 2172 0 1784 0 
Q 1141 0 747 490 
Q 353 981 353 1791 
Q 353 2603 747 3093 
Q 1141 3584 1784 3584 
Q 2172 3584 2450 3431 
Q 2728 3278 2906 2969 
L 2906 3500 
L 3481 3500 
L 3481 434 
z
" transform="scale(0.015625)"/>
      <path id="DejaVuSans-6d" d="M 3328 2828 
Q 3544 3216 3844 3400 
Q 4144 3584 4550 3584 
Q 5097 3584 5394 3201 
Q 5691 2819 5691 2113 
L 5691 0 
L 5113 0 
L 5113 2094 
Q 5113 2597 4934 2840 
Q 4756 3084 4391 3084 
Q 3944 3084 3684 2787 
Q 3425 2491 3425 1978 
L 3425 0 
L 2847 0 
L 2847 2094 
Q 2847 2600 2669 2842 
Q 2491 3084 2119 3084 
Q 1678 3084 1418 2786 
Q 1159 2488 1159 1978 
L 1159 0 
L 581 0 
L 581 3500 
L 1159 3500 
L 1159 2956 
Q 1356 3278 1631 3431 
Q 1906 3584 2284 3584 
Q 2666 3584 2933 3390 
Q 3200 3197 3328 2828 
z
" transform="scale(0.015625)"/>
      <path id="DejaVuSans-41" d="M 2188 4044 
L 1331 1722 
L 3047 1722 
L 2188 4044 
z
M 1831 4666 
L 2547 4666 
L 4325 0 
L 3669 0 
L 3244 1197 
L 1141 1197 
L 716 0 
L 50 0 
L 1831 4666 
z
" transform="scale(0.015625)"/>
      <path id="DejaVuSans-56" d="M 1831 0 
L 50 4666 
L 709 4666 
L 2188 738 
L 3669 4666 
L 4325 4666 
L 2547 0 
L 1831 0 
z
" transform="scale(0.015625)"/>
     </defs>
     <use xlink:href="#DejaVuSans-52"/>
     <use xlink:href="#DejaVuSans-61" x="67.232422"/>
     <use xlink:href="#DejaVuSans-64" x="128.511719"/>
     <use xlink:href="#DejaVuSans-69" x="191.988281"/>
     <use xlink:href="#DejaVuSans-61" x="219.771484"/>
     <use xlink:href="#DejaVuSans-74" x="281.050781"/>
     <use xlink:href="#DejaVuSans-69" x="320.259766"/>
     <use xlink:href="#DejaVuSans-6f" x="348.042969"/>
     <use xlink:href="#DejaVuSans-6e" x="409.224609"/>
     <use xlink:href="#DejaVuSans-20" x="472.603516"/>
     <use xlink:href="#DejaVuSans-44" x="504.390625"/>
     <use xlink:href="#DejaVuSans-69" x="581.392578"/>
     <use xlink:href="#DejaVuSans-61" x="609.175781"/>
     <use xlink:href="#DejaVuSans-67" x="670.455078"/>
     <use xlink:href="#DejaVuSans-72" x="733.931641"/>
     <use xlink:href="#DejaVuSans-61" x="775.044922"/>
     <use xlink:href="#DejaVuSans-6d" x="836.324219"/>
     <use xlink:href="#DejaVuSans-20" x="933.736328"/>
     <use xlink:href="#DejaVuSans-2d" x="965.523438"/>
     <use xlink:href="#DejaVuSans-20" x="1001.607422"/>
     <use xlink:href="#DejaVuSans-31" x="1033.394531"/>
     <use xlink:href="#DejaVuSans-41" x="1097.017578"/>
     <use xlink:href="#DejaVuSans-56" x="1159.050781"/>
     <use xlink:href="#DejaVuSans-48" x="1227.458984"/>
     <use xlink:href="#DejaVuSans-46" x="1302.654297"/>
     <use xlink:href="#DejaVuSans-31" x="1360.173828"/>
     <use xlink:href="#DejaVuSans-31" x="1423.796875"/>
    </g>
   </g>
   <g id="legend_1">
    <g id="patch_6">
     <path d="M 411.802812 78.513438 
L 466.5825 78.513438 
Q 468.5825 78.513438 468.5825 76.513438 
L 468.5825 48.157188 
Q 468.5825 46.157188 466.5825 46.157188 
L 411.802812 46.157188 
Q 409.802812 46.157188 409.802812 48.157188 
L 409.802812 76.513438 
Q 409.802812 78.513438 411.802812 78.513438 
z
" style="fill: #ffffff; opacity: 0.8; stroke: #cccccc; stroke-linejoin: miter"/>
    </g>
    <g id="line2d_20">
     <path d="M 413.802812 54.255625 
L 423.802812 54.255625 
L 433.802812 54.255625 
" style="fill: none; stroke: #ff0000; stroke-width: 1.5; stroke-linecap: square"/>
    </g>
    <g id="text_21">
     <!-- INPE -->
     <g transform="translate(441.802812 57.755625)scale(0.1 -0.1)">
      <defs>
       <path id="DejaVuSans-49" d="M 628 4666 
L 1259 4666 
L 1259 0 
L 628 0 
L 628 4666 
z
" transform="scale(0.015625)"/>
       <path id="DejaVuSans-4e" d="M 628 4666 
L 1478 4666 
L 3547 763 
L 3547 4666 
L 4159 4666 
L 4159 0 
L 3309 0 
L 1241 3903 
L 1241 0 
L 628 0 
L 628 4666 
z
" transform="scale(0.015625)"/>
       <path id="DejaVuSans-45" d="M 628 4666 
L 3578 4666 
L 3578 4134 
L 1259 4134 
L 1259 2753 
L 3481 2753 
L 3481 2222 
L 1259 2222 
L 1259 531 
L 3634 531 
L 3634 0 
L 628 0 
L 628 4666 
z
" transform="scale(0.015625)"/>
      </defs>
      <use xlink:href="#DejaVuSans-49"/>
      <use xlink:href="#DejaVuSans-4e" x="29.492188"/>
      <use xlink:href="#DejaVuSans-50" x="104.296875"/>
      <use xlink:href="#DejaVuSans-45" x="164.599609"/>
     </g>
    </g>
    <g id="line2d_21">
     <path d="M 413.802812 68.93375 
L 423.802812 68.93375 
L 433.802812 68.93375 
" style="fill: none; stroke-dasharray: 5.55,2.4; stroke-dashoffset: 0; stroke: #0000ff; stroke-width: 1.5"/>
    </g>
    <g id="text_22">
     <!-- CST -->
     <g transform="translate(441.802812 72.43375)scale(0.1 -0.1)">
      <defs>
       <path id="DejaVuSans-53" d="M 3425 4513 
L 3425 3897 
Q 3066 4069 2747 4153 
Q 2428 4238 2131 4238 
Q 1616 4238 1336 4038 
Q 1056 3838 1056 3469 
Q 1056 3159 1242 3001 
Q 1428 2844 1947 2747 
L 2328 2669 
Q 3034 2534 3370 2195 
Q 3706 1856 3706 1288 
Q 3706 609 3251 259 
Q 2797 -91 1919 -91 
Q 1588 -91 1214 -16 
Q 841 59 441 206 
L 441 856 
Q 825 641 1194 531 
Q 1563 422 1919 422 
Q 2459 422 2753 634 
Q 3047 847 3047 1241 
Q 3047 1584 2836 1778 
Q 2625 1972 2144 2069 
L 1759 2144 
Q 1053 2284 737 2584 
Q 422 2884 422 3419 
Q 422 4038 858 4394 
Q 1294 4750 2059 4750 
Q 2388 4750 2728 4690 
Q 3069 4631 3425 4513 
z
" transform="scale(0.015625)"/>
       <path id="DejaVuSans-54" d="M -19 4666 
L 3928 4666 
L 3928 4134 
L 2272 4134 
L 2272 0 
L 1638 0 
L 1638 4134 
L -19 4134 
L -19 4666 
z
" transform="scale(0.015625)"/>
      </defs>
      <use xlink:href="#DejaVuSans-43"/>
      <use xlink:href="#DejaVuSans-53" x="69.824219"/>
      <use xlink:href="#DejaVuSans-54" x="133.300781"/>
     </g>
    </g>
   </g>
  </g>
 </g>
 <defs>
  <clipPath id="p4a9312e6f0">
   <path d="M 473.5825 262.917188 
C 473.5825 233.795931 467.846247 204.957842 456.702025 178.05331 
C 445.557803 151.148777 429.222338 126.701026 408.6305 106.109188 
C 388.038662 85.51735 363.590911 69.181885 336.686378 58.037662 
C 309.781845 46.89344 280.943756 41.157188 251.8225 41.157188 
C 222.701244 41.157188 193.863155 46.89344 166.958622 58.037662 
C 140.054089 69.181885 115.606338 85.51735 95.0145 106.109188 
C 74.422662 126.701026 58.087197 151.148777 46.942975 178.05331 
C 35.798753 204.957842 30.0625 233.795931 30.0625 262.917188 
C 30.0625 292.038444 35.798753 320.876533 46.942975 347.781065 
C 58.087197 374.685598 74.422662 399.133349 95.0145 419.725187 
C 115.606338 440.317025 140.054089 456.65249 166.958622 467.796713 
C 193.863155 478.940935 222.701244 484.677188 251.8225 484.677188 
C 280.943756 484.677188 309.781845 478.940935 336.686378 467.796713 
C 363.590911 456.65249 388.038662 440.317025 408.6305 419.725187 
C 429.222338 399.133349 445.557803 374.685598 456.702025 347.781065 
C 467.846247 320.876533 473.5825 292.038444 473.5825 262.917188 
M 251.8225 262.917188 
C 251.8225 262.917188 251.8225 262.917188 251.8225 262.917188 
C 251.8225 262.917188 251.8225 262.917188 251.8225 262.917188 
C 251.8225 262.917188 251.8225 262.917188 251.8225 262.917188 
C 251.8225 262.917188 251.8225 262.917188 251.8225 262.917188 
C 251.8225 262.917188 251.8225 262.917188 251.8225 262.917188 
C 251.8225 262.917188 251.8225 262.917188 251.8225 262.917188 
C 251.8225 262.917188 251.8225 262.917188 251.8225 262.917188 
C 251.8225 262.917188 251.8225 262.917188 251.8225 262.917188 
C 251.8225 262.917188 251.8225 262.917188 251.8225 262.917188 
C 251.8225 262.917188 251.8225 262.917188 251.8225 262.917188 
C 251.8225 262.917188 251.8225 262.917188 251.8225 262.917188 
C 251.8225 262.917188 251.8225 262.917188 251.8225 262.917188 
C 251.8225 262.917188 251.8225 262.917188 251.8225 262.917188 
C 251.8225 262.917188 251.8225 262.917188 251.8225 262.917188 
C 251.8225 262.917188 251.8225 262.917188 251.8225 262.917188 
C 251.8225 262.917188 251.8225 262.917188 251.8225 262.917188 
M 473.5825 262.917188 
z
"/>
  </clipPath>
 </defs>
</svg>
