<?xml version="1.0" encoding="utf-8" standalone="no"?>
<!DOCTYPE svg PUBLIC "-//W3C//DTD SVG 1.1//EN"
  "http://www.w3.org/Graphics/SVG/1.1/DTD/svg11.dtd">
<svg xmlns:xlink="http://www.w3.org/1999/xlink" width="392.765pt" height="399.83625pt" viewBox="0 0 392.765 399.83625" xmlns="http://www.w3.org/2000/svg" version="1.1">
 <metadata>
  <rdf:RDF xmlns:dc="http://purl.org/dc/elements/1.1/" xmlns:cc="http://creativecommons.org/ns#" xmlns:rdf="http://www.w3.org/1999/02/22-rdf-syntax-ns#">
   <cc:Work>
    <dc:type rdf:resource="http://purl.org/dc/dcmitype/StillImage"/>
    <dc:date>2023-10-17T17:46:06.740300</dc:date>
    <dc:format>image/svg+xml</dc:format>
    <dc:creator>
     <cc:Agent>
      <dc:title>Matplotlib v3.5.1, https://matplotlib.org/</dc:title>
     </cc:Agent>
    </dc:creator>
   </cc:Work>
  </rdf:RDF>
 </metadata>
 <defs>
  <style type="text/css">*{stroke-linejoin: round; stroke-linecap: butt}</style>
 </defs>
 <g id="figure_1">
  <g id="patch_1">
   <path d="M 0 399.83625 
L 392.765 399.83625 
L 392.765 0 
L 0 0 
z
" style="fill: #ffffff"/>
  </g>
  <g id="axes_1">
   <g id="patch_2">
    <path d="M 365.88375 207.477187 
C 365.88375 185.636245 361.581561 164.007679 353.223394 143.829279 
C 344.865227 123.650879 332.613628 105.315066 317.16975 89.871188 
C 301.725871 74.427309 283.390058 62.17571 263.211658 53.817544 
C 243.033259 45.459377 221.404692 41.157187 199.56375 41.157187 
C 177.722808 41.157187 156.094241 45.459377 135.915842 53.817544 
C 115.737442 62.17571 97.401629 74.427309 81.95775 89.871188 
C 66.513872 105.315066 54.262273 123.650879 45.904106 143.829279 
C 37.545939 164.007679 33.24375 185.636245 33.24375 207.477187 
C 33.24375 229.31813 37.545939 250.946696 45.904106 271.125096 
C 54.262273 291.303496 66.513872 309.639309 81.95775 325.083187 
C 97.401629 340.527066 115.737442 352.778665 135.915842 361.136831 
C 156.094241 369.494998 177.722808 373.797188 199.56375 373.797188 
C 221.404692 373.797188 243.033259 369.494998 263.211658 361.136831 
C 283.390058 352.778665 301.725871 340.527066 317.16975 325.083187 
C 332.613628 309.639309 344.865227 291.303496 353.223394 271.125096 
C 361.581561 250.946696 365.88375 229.31813 365.88375 207.477188 
M 199.56375 207.477187 
C 199.56375 207.477187 199.56375 207.477187 199.56375 207.477187 
C 199.56375 207.477187 199.56375 207.477187 199.56375 207.477187 
C 199.56375 207.477187 199.56375 207.477187 199.56375 207.477187 
C 199.56375 207.477187 199.56375 207.477187 199.56375 207.477187 
C 199.56375 207.477187 199.56375 207.477187 199.56375 207.477187 
C 199.56375 207.477187 199.56375 207.477187 199.56375 207.477187 
C 199.56375 207.477187 199.56375 207.477187 199.56375 207.477187 
C 199.56375 207.477187 199.56375 207.477187 199.56375 207.477187 
C 199.56375 207.477187 199.56375 207.477187 199.56375 207.477187 
C 199.56375 207.477187 199.56375 207.477187 199.56375 207.477187 
C 199.56375 207.477187 199.56375 207.477187 199.56375 207.477187 
C 199.56375 207.477187 199.56375 207.477187 199.56375 207.477187 
C 199.56375 207.477187 199.56375 207.477187 199.56375 207.477187 
C 199.56375 207.477187 199.56375 207.477187 199.56375 207.477187 
C 199.56375 207.477187 199.56375 207.477187 199.56375 207.477187 
C 199.56375 207.477187 199.56375 207.477187 199.56375 207.477187 
M 365.88375 207.477187 
z
" style="fill: #ffffff"/>
   </g>
   <g id="matplotlib.axis_1">
    <g id="xtick_1">
     <g id="line2d_1">
      <path d="M 199.56375 207.477187 
L 365.88375 207.477187 
" clip-path="url(#p5d17278b5c)" style="fill: none; stroke: #b0b0b0; stroke-width: 0.8; stroke-linecap: square"/>
     </g>
     <g id="text_1">
      <!-- 0° -->
      <g transform="translate(374.2025 210.236562)scale(0.1 -0.1)">
       <defs>
        <path id="DejaVuSans-30" d="M 2034 4250 
Q 1547 4250 1301 3770 
Q 1056 3291 1056 2328 
Q 1056 1369 1301 889 
Q 1547 409 2034 409 
Q 2525 409 2770 889 
Q 3016 1369 3016 2328 
Q 3016 3291 2770 3770 
Q 2525 4250 2034 4250 
z
M 2034 4750 
Q 2819 4750 3233 4129 
Q 3647 3509 3647 2328 
Q 3647 1150 3233 529 
Q 2819 -91 2034 -91 
Q 1250 -91 836 529 
Q 422 1150 422 2328 
Q 422 3509 836 4129 
Q 1250 4750 2034 4750 
z
" transform="scale(0.015625)"/>
        <path id="DejaVuSans-b0" d="M 1600 4347 
Q 1350 4347 1178 4173 
Q 1006 4000 1006 3750 
Q 1006 3503 1178 3333 
Q 1350 3163 1600 3163 
Q 1850 3163 2022 3333 
Q 2194 3503 2194 3750 
Q 2194 3997 2020 4172 
Q 1847 4347 1600 4347 
z
M 1600 4750 
Q 1800 4750 1984 4673 
Q 2169 4597 2303 4453 
Q 2447 4313 2519 4134 
Q 2591 3956 2591 3750 
Q 2591 3338 2302 3052 
Q 2013 2766 1594 2766 
Q 1172 2766 890 3047 
Q 609 3328 609 3750 
Q 609 4169 896 4459 
Q 1184 4750 1600 4750 
z
" transform="scale(0.015625)"/>
       </defs>
       <use xlink:href="#DejaVuSans-30"/>
       <use xlink:href="#DejaVuSans-b0" x="63.623047"/>
      </g>
     </g>
    </g>
    <g id="xtick_2">
     <g id="line2d_2">
      <path d="M 199.56375 207.477187 
L 317.16975 89.871188 
" clip-path="url(#p5d17278b5c)" style="fill: none; stroke: #b0b0b0; stroke-width: 0.8; stroke-linecap: square"/>
     </g>
     <g id="text_2">
      <!-- 45° -->
      <g transform="translate(318.206745 82.731068)scale(0.1 -0.1)">
       <defs>
        <path id="DejaVuSans-34" d="M 2419 4116 
L 825 1625 
L 2419 1625 
L 2419 4116 
z
M 2253 4666 
L 3047 4666 
L 3047 1625 
L 3713 1625 
L 3713 1100 
L 3047 1100 
L 3047 0 
L 2419 0 
L 2419 1100 
L 313 1100 
L 313 1709 
L 2253 4666 
z
" transform="scale(0.015625)"/>
        <path id="DejaVuSans-35" d="M 691 4666 
L 3169 4666 
L 3169 4134 
L 1269 4134 
L 1269 2991 
Q 1406 3038 1543 3061 
Q 1681 3084 1819 3084 
Q 2600 3084 3056 2656 
Q 3513 2228 3513 1497 
Q 3513 744 3044 326 
Q 2575 -91 1722 -91 
Q 1428 -91 1123 -41 
Q 819 9 494 109 
L 494 744 
Q 775 591 1075 516 
Q 1375 441 1709 441 
Q 2250 441 2565 725 
Q 2881 1009 2881 1497 
Q 2881 1984 2565 2268 
Q 2250 2553 1709 2553 
Q 1456 2553 1204 2497 
Q 953 2441 691 2322 
L 691 4666 
z
" transform="scale(0.015625)"/>
       </defs>
       <use xlink:href="#DejaVuSans-34"/>
       <use xlink:href="#DejaVuSans-35" x="63.623047"/>
       <use xlink:href="#DejaVuSans-b0" x="127.246094"/>
      </g>
     </g>
    </g>
    <g id="xtick_3">
     <g id="line2d_3">
      <path d="M 199.56375 207.477187 
L 199.56375 41.157187 
" clip-path="url(#p5d17278b5c)" style="fill: none; stroke: #b0b0b0; stroke-width: 0.8; stroke-linecap: square"/>
     </g>
     <g id="text_3">
      <!-- 90° -->
      <g transform="translate(190.70125 29.916562)scale(0.1 -0.1)">
       <defs>
        <path id="DejaVuSans-39" d="M 703 97 
L 703 672 
Q 941 559 1184 500 
Q 1428 441 1663 441 
Q 2288 441 2617 861 
Q 2947 1281 2994 2138 
Q 2813 1869 2534 1725 
Q 2256 1581 1919 1581 
Q 1219 1581 811 2004 
Q 403 2428 403 3163 
Q 403 3881 828 4315 
Q 1253 4750 1959 4750 
Q 2769 4750 3195 4129 
Q 3622 3509 3622 2328 
Q 3622 1225 3098 567 
Q 2575 -91 1691 -91 
Q 1453 -91 1209 -44 
Q 966 3 703 97 
z
M 1959 2075 
Q 2384 2075 2632 2365 
Q 2881 2656 2881 3163 
Q 2881 3666 2632 3958 
Q 2384 4250 1959 4250 
Q 1534 4250 1286 3958 
Q 1038 3666 1038 3163 
Q 1038 2656 1286 2365 
Q 1534 2075 1959 2075 
z
" transform="scale(0.015625)"/>
       </defs>
       <use xlink:href="#DejaVuSans-39"/>
       <use xlink:href="#DejaVuSans-30" x="63.623047"/>
       <use xlink:href="#DejaVuSans-b0" x="127.246094"/>
      </g>
     </g>
    </g>
    <g id="xtick_4">
     <g id="line2d_4">
      <path d="M 199.56375 207.477187 
L 81.95775 89.871188 
" clip-path="url(#p5d17278b5c)" style="fill: none; stroke: #b0b0b0; stroke-width: 0.8; stroke-linecap: square"/>
     </g>
     <g id="text_4">
      <!-- 135° -->
      <g transform="translate(60.014505 82.731068)scale(0.1 -0.1)">
       <defs>
        <path id="DejaVuSans-31" d="M 794 531 
L 1825 531 
L 1825 4091 
L 703 3866 
L 703 4441 
L 1819 4666 
L 2450 4666 
L 2450 531 
L 3481 531 
L 3481 0 
L 794 0 
L 794 531 
z
" transform="scale(0.015625)"/>
        <path id="DejaVuSans-33" d="M 2597 2516 
Q 3050 2419 3304 2112 
Q 3559 1806 3559 1356 
Q 3559 666 3084 287 
Q 2609 -91 1734 -91 
Q 1441 -91 1130 -33 
Q 819 25 488 141 
L 488 750 
Q 750 597 1062 519 
Q 1375 441 1716 441 
Q 2309 441 2620 675 
Q 2931 909 2931 1356 
Q 2931 1769 2642 2001 
Q 2353 2234 1838 2234 
L 1294 2234 
L 1294 2753 
L 1863 2753 
Q 2328 2753 2575 2939 
Q 2822 3125 2822 3475 
Q 2822 3834 2567 4026 
Q 2313 4219 1838 4219 
Q 1578 4219 1281 4162 
Q 984 4106 628 3988 
L 628 4550 
Q 988 4650 1302 4700 
Q 1616 4750 1894 4750 
Q 2613 4750 3031 4423 
Q 3450 4097 3450 3541 
Q 3450 3153 3228 2886 
Q 3006 2619 2597 2516 
z
" transform="scale(0.015625)"/>
       </defs>
       <use xlink:href="#DejaVuSans-31"/>
       <use xlink:href="#DejaVuSans-33" x="63.623047"/>
       <use xlink:href="#DejaVuSans-35" x="127.246094"/>
       <use xlink:href="#DejaVuSans-b0" x="190.869141"/>
      </g>
     </g>
    </g>
    <g id="xtick_5">
     <g id="line2d_5">
      <path d="M 199.56375 207.477187 
L 33.24375 207.477187 
" clip-path="url(#p5d17278b5c)" style="fill: none; stroke: #b0b0b0; stroke-width: 0.8; stroke-linecap: square"/>
     </g>
     <g id="text_5">
      <!-- 180° -->
      <g transform="translate(7.2 210.236562)scale(0.1 -0.1)">
       <defs>
        <path id="DejaVuSans-38" d="M 2034 2216 
Q 1584 2216 1326 1975 
Q 1069 1734 1069 1313 
Q 1069 891 1326 650 
Q 1584 409 2034 409 
Q 2484 409 2743 651 
Q 3003 894 3003 1313 
Q 3003 1734 2745 1975 
Q 2488 2216 2034 2216 
z
M 1403 2484 
Q 997 2584 770 2862 
Q 544 3141 544 3541 
Q 544 4100 942 4425 
Q 1341 4750 2034 4750 
Q 2731 4750 3128 4425 
Q 3525 4100 3525 3541 
Q 3525 3141 3298 2862 
Q 3072 2584 2669 2484 
Q 3125 2378 3379 2068 
Q 3634 1759 3634 1313 
Q 3634 634 3220 271 
Q 2806 -91 2034 -91 
Q 1263 -91 848 271 
Q 434 634 434 1313 
Q 434 1759 690 2068 
Q 947 2378 1403 2484 
z
M 1172 3481 
Q 1172 3119 1398 2916 
Q 1625 2713 2034 2713 
Q 2441 2713 2670 2916 
Q 2900 3119 2900 3481 
Q 2900 3844 2670 4047 
Q 2441 4250 2034 4250 
Q 1625 4250 1398 4047 
Q 1172 3844 1172 3481 
z
" transform="scale(0.015625)"/>
       </defs>
       <use xlink:href="#DejaVuSans-31"/>
       <use xlink:href="#DejaVuSans-38" x="63.623047"/>
       <use xlink:href="#DejaVuSans-30" x="127.246094"/>
       <use xlink:href="#DejaVuSans-b0" x="190.869141"/>
      </g>
     </g>
    </g>
    <g id="xtick_6">
     <g id="line2d_6">
      <path d="M 199.56375 207.477187 
L 81.95775 325.083187 
" clip-path="url(#p5d17278b5c)" style="fill: none; stroke: #b0b0b0; stroke-width: 0.8; stroke-linecap: square"/>
     </g>
     <g id="text_6">
      <!-- 225° -->
      <g transform="translate(60.014505 337.742057)scale(0.1 -0.1)">
       <defs>
        <path id="DejaVuSans-32" d="M 1228 531 
L 3431 531 
L 3431 0 
L 469 0 
L 469 531 
Q 828 903 1448 1529 
Q 2069 2156 2228 2338 
Q 2531 2678 2651 2914 
Q 2772 3150 2772 3378 
Q 2772 3750 2511 3984 
Q 2250 4219 1831 4219 
Q 1534 4219 1204 4116 
Q 875 4013 500 3803 
L 500 4441 
Q 881 4594 1212 4672 
Q 1544 4750 1819 4750 
Q 2544 4750 2975 4387 
Q 3406 4025 3406 3419 
Q 3406 3131 3298 2873 
Q 3191 2616 2906 2266 
Q 2828 2175 2409 1742 
Q 1991 1309 1228 531 
z
" transform="scale(0.015625)"/>
       </defs>
       <use xlink:href="#DejaVuSans-32"/>
       <use xlink:href="#DejaVuSans-32" x="63.623047"/>
       <use xlink:href="#DejaVuSans-35" x="127.246094"/>
       <use xlink:href="#DejaVuSans-b0" x="190.869141"/>
      </g>
     </g>
    </g>
    <g id="xtick_7">
     <g id="line2d_7">
      <path d="M 199.56375 207.477187 
L 199.56375 373.797188 
" clip-path="url(#p5d17278b5c)" style="fill: none; stroke: #b0b0b0; stroke-width: 0.8; stroke-linecap: square"/>
     </g>
     <g id="text_7">
      <!-- 270° -->
      <g transform="translate(187.52 390.556562)scale(0.1 -0.1)">
       <defs>
        <path id="DejaVuSans-37" d="M 525 4666 
L 3525 4666 
L 3525 4397 
L 1831 0 
L 1172 0 
L 2766 4134 
L 525 4134 
L 525 4666 
z
" transform="scale(0.015625)"/>
       </defs>
       <use xlink:href="#DejaVuSans-32"/>
       <use xlink:href="#DejaVuSans-37" x="63.623047"/>
       <use xlink:href="#DejaVuSans-30" x="127.246094"/>
       <use xlink:href="#DejaVuSans-b0" x="190.869141"/>
      </g>
     </g>
    </g>
    <g id="xtick_8">
     <g id="line2d_8">
      <path d="M 199.56375 207.477187 
L 317.16975 325.083187 
" clip-path="url(#p5d17278b5c)" style="fill: none; stroke: #b0b0b0; stroke-width: 0.8; stroke-linecap: square"/>
     </g>
     <g id="text_8">
      <!-- 315° -->
      <g transform="translate(315.025495 337.742057)scale(0.1 -0.1)">
       <use xlink:href="#DejaVuSans-33"/>
       <use xlink:href="#DejaVuSans-31" x="63.623047"/>
       <use xlink:href="#DejaVuSans-35" x="127.246094"/>
       <use xlink:href="#DejaVuSans-b0" x="190.869141"/>
      </g>
     </g>
    </g>
   </g>
   <g id="matplotlib.axis_2">
    <g id="ytick_1">
     <g id="line2d_9">
      <path d="M 199.56375 207.477187 
C 199.56375 207.477187 199.56375 207.477187 199.56375 207.477187 
C 199.56375 207.477187 199.56375 207.477187 199.56375 207.477187 
C 199.56375 207.477187 199.56375 207.477187 199.56375 207.477187 
C 199.56375 207.477187 199.56375 207.477187 199.56375 207.477187 
C 199.56375 207.477187 199.56375 207.477187 199.56375 207.477187 
C 199.56375 207.477187 199.56375 207.477187 199.56375 207.477187 
C 199.56375 207.477187 199.56375 207.477187 199.56375 207.477187 
C 199.56375 207.477187 199.56375 207.477187 199.56375 207.477187 
C 199.56375 207.477187 199.56375 207.477187 199.56375 207.477187 
C 199.56375 207.477187 199.56375 207.477187 199.56375 207.477187 
C 199.56375 207.477187 199.56375 207.477187 199.56375 207.477187 
C 199.56375 207.477187 199.56375 207.477187 199.56375 207.477187 
C 199.56375 207.477187 199.56375 207.477187 199.56375 207.477187 
C 199.56375 207.477187 199.56375 207.477187 199.56375 207.477187 
C 199.56375 207.477187 199.56375 207.477187 199.56375 207.477187 
C 199.56375 207.477187 199.56375 207.477187 199.56375 207.477187 
" clip-path="url(#p5d17278b5c)" style="fill: none; stroke: #b0b0b0; stroke-width: 0.8; stroke-linecap: square"/>
     </g>
     <g id="text_9">
      <!-- −30 -->
      <g transform="translate(199.56375 205.3975)scale(0.1 -0.1)">
       <defs>
        <path id="DejaVuSans-2212" d="M 678 2272 
L 4684 2272 
L 4684 1741 
L 678 1741 
L 678 2272 
z
" transform="scale(0.015625)"/>
       </defs>
       <use xlink:href="#DejaVuSans-2212"/>
       <use xlink:href="#DejaVuSans-33" x="83.789062"/>
       <use xlink:href="#DejaVuSans-30" x="147.412109"/>
      </g>
     </g>
    </g>
    <g id="ytick_2">
     <g id="line2d_10">
      <path d="M 216.19575 207.477187 
C 216.19575 205.293093 215.765531 203.130237 214.929714 201.112397 
C 214.093898 199.094557 212.868738 197.260975 211.32435 195.716588 
C 209.779962 194.1722 207.946381 192.94704 205.928541 192.111223 
C 203.910701 191.275406 201.747844 190.845187 199.56375 190.845187 
C 197.379656 190.845187 195.216799 191.275406 193.198959 192.111223 
C 191.181119 192.94704 189.347538 194.1722 187.80315 195.716588 
C 186.258762 197.260975 185.033602 199.094557 184.197786 201.112397 
C 183.361969 203.130237 182.93175 205.293093 182.93175 207.477187 
C 182.93175 209.661282 183.361969 211.824138 184.197786 213.841978 
C 185.033602 215.859818 186.258762 217.6934 187.80315 219.237787 
C 189.347538 220.782175 191.181119 222.007335 193.198959 222.843152 
C 195.216799 223.678969 197.379656 224.109187 199.56375 224.109187 
C 201.747844 224.109187 203.910701 223.678969 205.928541 222.843152 
C 207.946381 222.007335 209.779962 220.782175 211.32435 219.237787 
C 212.868738 217.6934 214.093898 215.859818 214.929714 213.841978 
C 215.765531 211.824138 216.19575 209.661282 216.19575 207.477187 
" clip-path="url(#p5d17278b5c)" style="fill: none; stroke: #b0b0b0; stroke-width: 0.8; stroke-linecap: square"/>
     </g>
     <g id="text_10">
      <!-- −27 -->
      <g transform="translate(214.929714 199.032709)scale(0.1 -0.1)">
       <use xlink:href="#DejaVuSans-2212"/>
       <use xlink:href="#DejaVuSans-32" x="83.789062"/>
       <use xlink:href="#DejaVuSans-37" x="147.412109"/>
      </g>
     </g>
    </g>
    <g id="ytick_3">
     <g id="line2d_11">
      <path d="M 232.82775 207.477187 
C 232.82775 203.108999 231.967312 198.783286 230.295679 194.747606 
C 228.624045 190.711926 226.173726 187.044763 223.08495 183.955988 
C 219.996174 180.867212 216.329012 178.416892 212.293332 176.745259 
C 208.257652 175.073625 203.931938 174.213187 199.56375 174.213187 
C 195.195562 174.213187 190.869848 175.073625 186.834168 176.745259 
C 182.798488 178.416892 179.131326 180.867212 176.04255 183.955988 
C 172.953774 187.044763 170.503455 190.711926 168.831821 194.747606 
C 167.160188 198.783286 166.29975 203.108999 166.29975 207.477187 
C 166.29975 211.845376 167.160188 216.171089 168.831821 220.206769 
C 170.503455 224.242449 172.953774 227.909612 176.04255 230.998387 
C 179.131326 234.087163 182.798488 236.537483 186.834168 238.209116 
C 190.869848 239.88075 195.195562 240.741187 199.56375 240.741187 
C 203.931938 240.741187 208.257652 239.88075 212.293332 238.209116 
C 216.329012 236.537483 219.996174 234.087163 223.08495 230.998387 
C 226.173726 227.909612 228.624045 224.242449 230.295679 220.206769 
C 231.967312 216.171089 232.82775 211.845376 232.82775 207.477187 
" clip-path="url(#p5d17278b5c)" style="fill: none; stroke: #b0b0b0; stroke-width: 0.8; stroke-linecap: square"/>
     </g>
     <g id="text_11">
      <!-- −24 -->
      <g transform="translate(230.295679 192.667918)scale(0.1 -0.1)">
       <use xlink:href="#DejaVuSans-2212"/>
       <use xlink:href="#DejaVuSans-32" x="83.789062"/>
       <use xlink:href="#DejaVuSans-34" x="147.412109"/>
      </g>
     </g>
    </g>
    <g id="ytick_4">
     <g id="line2d_12">
      <path d="M 249.45975 207.477187 
C 249.45975 200.924905 248.169093 194.436335 245.661643 188.382815 
C 243.154193 182.329295 239.478713 176.828551 234.84555 172.195388 
C 230.212386 167.562224 224.711642 163.886744 218.658123 161.379294 
C 212.604603 158.871844 206.116033 157.581187 199.56375 157.581187 
C 193.011467 157.581187 186.522897 158.871844 180.469377 161.379294 
C 174.415858 163.886744 168.915114 167.562224 164.28195 172.195388 
C 159.648787 176.828551 155.973307 182.329295 153.465857 188.382815 
C 150.958407 194.436335 149.66775 200.924905 149.66775 207.477187 
C 149.66775 214.02947 150.958407 220.51804 153.465857 226.57156 
C 155.973307 232.62508 159.648787 238.125824 164.28195 242.758987 
C 168.915114 247.392151 174.415858 251.067631 180.469377 253.575081 
C 186.522897 256.082531 193.011467 257.373187 199.56375 257.373187 
C 206.116033 257.373187 212.604603 256.082531 218.658123 253.575081 
C 224.711642 251.067631 230.212386 247.392151 234.84555 242.758987 
C 239.478713 238.125824 243.154193 232.62508 245.661643 226.57156 
C 248.169093 220.51804 249.45975 214.02947 249.45975 207.477187 
" clip-path="url(#p5d17278b5c)" style="fill: none; stroke: #b0b0b0; stroke-width: 0.8; stroke-linecap: square"/>
     </g>
     <g id="text_12">
      <!-- −21 -->
      <g transform="translate(245.661643 186.303127)scale(0.1 -0.1)">
       <use xlink:href="#DejaVuSans-2212"/>
       <use xlink:href="#DejaVuSans-32" x="83.789062"/>
       <use xlink:href="#DejaVuSans-31" x="147.412109"/>
      </g>
     </g>
    </g>
    <g id="ytick_5">
     <g id="line2d_13">
      <path d="M 266.09175 207.477187 
C 266.09175 198.740811 264.370874 190.089384 261.027608 182.018024 
C 257.684341 173.946664 252.783701 166.612339 246.60615 160.434788 
C 240.428599 154.257236 233.094273 149.356597 225.022913 146.01333 
C 216.951554 142.670063 208.300127 140.949187 199.56375 140.949187 
C 190.827373 140.949187 182.175946 142.670063 174.104587 146.01333 
C 166.033227 149.356597 158.698901 154.257236 152.52135 160.434788 
C 146.343799 166.612339 141.443159 173.946664 138.099892 182.018024 
C 134.756626 190.089384 133.03575 198.740811 133.03575 207.477187 
C 133.03575 216.213564 134.756626 224.864991 138.099892 232.936351 
C 141.443159 241.007711 146.343799 248.342036 152.52135 254.519587 
C 158.698901 260.697139 166.033227 265.597778 174.104587 268.941045 
C 182.175946 272.284312 190.827373 274.005187 199.56375 274.005187 
C 208.300127 274.005187 216.951554 272.284312 225.022913 268.941045 
C 233.094273 265.597778 240.428599 260.697139 246.60615 254.519587 
C 252.783701 248.342036 257.684341 241.007711 261.027608 232.936351 
C 264.370874 224.864991 266.09175 216.213564 266.09175 207.477188 
" clip-path="url(#p5d17278b5c)" style="fill: none; stroke: #b0b0b0; stroke-width: 0.8; stroke-linecap: square"/>
     </g>
     <g id="text_13">
      <!-- −18 -->
      <g transform="translate(261.027608 179.938337)scale(0.1 -0.1)">
       <use xlink:href="#DejaVuSans-2212"/>
       <use xlink:href="#DejaVuSans-31" x="83.789062"/>
       <use xlink:href="#DejaVuSans-38" x="147.412109"/>
      </g>
     </g>
    </g>
    <g id="ytick_6">
     <g id="line2d_14">
      <path d="M 282.72375 207.477187 
C 282.72375 196.556716 280.572655 185.742433 276.393572 175.653233 
C 272.214489 165.564033 266.088689 156.396127 258.36675 148.674188 
C 250.644811 140.952248 241.476904 134.826449 231.387704 130.647366 
C 221.298504 126.468282 210.484221 124.317187 199.56375 124.317187 
C 188.643279 124.317187 177.828996 126.468282 167.739796 130.647366 
C 157.650596 134.826449 148.482689 140.952248 140.76075 148.674188 
C 133.038811 156.396127 126.913011 165.564033 122.733928 175.653233 
C 118.554845 185.742433 116.40375 196.556716 116.40375 207.477187 
C 116.40375 218.397659 118.554845 229.211942 122.733928 239.301142 
C 126.913011 249.390342 133.038811 258.558248 140.76075 266.280187 
C 148.482689 274.002127 157.650596 280.127926 167.739796 284.307009 
C 177.828996 288.486093 188.643279 290.637187 199.56375 290.637187 
C 210.484221 290.637187 221.298504 288.486093 231.387704 284.307009 
C 241.476904 280.127926 250.644811 274.002127 258.36675 266.280187 
C 266.088689 258.558248 272.214489 249.390342 276.393572 239.301142 
C 280.572655 229.211942 282.72375 218.397659 282.72375 207.477188 
" clip-path="url(#p5d17278b5c)" style="fill: none; stroke: #b0b0b0; stroke-width: 0.8; stroke-linecap: square"/>
     </g>
     <g id="text_14">
      <!-- −15 -->
      <g transform="translate(276.393572 173.573546)scale(0.1 -0.1)">
       <use xlink:href="#DejaVuSans-2212"/>
       <use xlink:href="#DejaVuSans-31" x="83.789062"/>
       <use xlink:href="#DejaVuSans-35" x="147.412109"/>
      </g>
     </g>
    </g>
    <g id="ytick_7">
     <g id="line2d_15">
      <path d="M 299.35575 207.477187 
C 299.35575 194.372622 296.774436 181.395482 291.759536 169.288442 
C 286.744636 157.181403 279.393677 146.179915 270.12735 136.913588 
C 260.861023 127.647261 249.859535 120.296301 237.752495 115.281401 
C 225.645455 110.266501 212.668315 107.685187 199.56375 107.685187 
C 186.459185 107.685187 173.482045 110.266501 161.375005 115.281401 
C 149.267965 120.296301 138.266477 127.647261 129.00015 136.913588 
C 119.733823 146.179915 112.382864 157.181403 107.367964 169.288442 
C 102.353064 181.395482 99.77175 194.372622 99.77175 207.477187 
C 99.77175 220.581753 102.353064 233.558893 107.367964 245.665933 
C 112.382864 257.772972 119.733823 268.77446 129.00015 278.040787 
C 138.266477 287.307114 149.267965 294.658074 161.375005 299.672974 
C 173.482045 304.687874 186.459185 307.269187 199.56375 307.269187 
C 212.668315 307.269187 225.645455 304.687874 237.752495 299.672974 
C 249.859535 294.658074 260.861023 287.307114 270.12735 278.040787 
C 279.393677 268.77446 286.744636 257.772972 291.759536 245.665933 
C 296.774436 233.558893 299.35575 220.581753 299.35575 207.477188 
" clip-path="url(#p5d17278b5c)" style="fill: none; stroke: #b0b0b0; stroke-width: 0.8; stroke-linecap: square"/>
     </g>
     <g id="text_15">
      <!-- −12 -->
      <g transform="translate(291.759536 167.208755)scale(0.1 -0.1)">
       <use xlink:href="#DejaVuSans-2212"/>
       <use xlink:href="#DejaVuSans-31" x="83.789062"/>
       <use xlink:href="#DejaVuSans-32" x="147.412109"/>
      </g>
     </g>
    </g>
    <g id="ytick_8">
     <g id="line2d_16">
      <path d="M 315.98775 207.477187 
C 315.98775 192.188528 312.976217 177.048531 307.125501 162.923652 
C 301.274784 148.798772 292.698665 135.963702 281.88795 125.152988 
C 271.077235 114.342273 258.242166 105.766154 244.117286 99.915437 
C 229.992406 94.06472 214.85241 91.053187 199.56375 91.053187 
C 184.27509 91.053187 169.135094 94.06472 155.010214 99.915437 
C 140.885334 105.766154 128.050265 114.342273 117.23955 125.152988 
C 106.428835 135.963702 97.852716 148.798772 92.001999 162.923652 
C 86.151283 177.048531 83.13975 192.188528 83.13975 207.477187 
C 83.13975 222.765847 86.151283 237.905844 92.001999 252.030723 
C 97.852716 266.155603 106.428835 278.990673 117.23955 289.801387 
C 128.050265 300.612102 140.885334 309.188221 155.010214 315.038938 
C 169.135094 320.889655 184.27509 323.901187 199.56375 323.901187 
C 214.85241 323.901187 229.992406 320.889655 244.117286 315.038938 
C 258.242166 309.188221 271.077235 300.612102 281.88795 289.801387 
C 292.698665 278.990673 301.274784 266.155603 307.125501 252.030723 
C 312.976217 237.905844 315.98775 222.765847 315.98775 207.477188 
" clip-path="url(#p5d17278b5c)" style="fill: none; stroke: #b0b0b0; stroke-width: 0.8; stroke-linecap: square"/>
     </g>
     <g id="text_16">
      <!-- −9 -->
      <g transform="translate(307.125501 160.843964)scale(0.1 -0.1)">
       <use xlink:href="#DejaVuSans-2212"/>
       <use xlink:href="#DejaVuSans-39" x="83.789062"/>
      </g>
     </g>
    </g>
    <g id="ytick_9">
     <g id="line2d_17">
      <path d="M 332.61975 207.477187 
C 332.61975 190.004434 329.177998 172.70158 322.491465 156.558861 
C 315.804932 140.416141 306.003653 125.74749 293.64855 113.392388 
C 281.293447 101.037285 266.624796 91.236006 250.482077 84.549472 
C 234.339357 77.862939 217.036504 74.421187 199.56375 74.421187 
C 182.090996 74.421187 164.788143 77.862939 148.645423 84.549472 
C 132.502704 91.236006 117.834053 101.037285 105.47895 113.392388 
C 93.123847 125.74749 83.322568 140.416141 76.636035 156.558861 
C 69.949502 172.70158 66.50775 190.004434 66.50775 207.477187 
C 66.50775 224.949941 69.949502 242.252795 76.636035 258.395514 
C 83.322568 274.538234 93.123847 289.206885 105.47895 301.561987 
C 117.834053 313.91709 132.502704 323.718369 148.645423 330.404903 
C 164.788143 337.091436 182.090996 340.533187 199.56375 340.533187 
C 217.036504 340.533187 234.339357 337.091436 250.482077 330.404903 
C 266.624796 323.718369 281.293447 313.91709 293.64855 301.561987 
C 306.003653 289.206885 315.804932 274.538234 322.491465 258.395514 
C 329.177998 242.252795 332.61975 224.949941 332.61975 207.477188 
" clip-path="url(#p5d17278b5c)" style="fill: none; stroke: #b0b0b0; stroke-width: 0.8; stroke-linecap: square"/>
     </g>
     <g id="text_17">
      <!-- −6 -->
      <g transform="translate(322.491465 154.479173)scale(0.1 -0.1)">
       <defs>
        <path id="DejaVuSans-36" d="M 2113 2584 
Q 1688 2584 1439 2293 
Q 1191 2003 1191 1497 
Q 1191 994 1439 701 
Q 1688 409 2113 409 
Q 2538 409 2786 701 
Q 3034 994 3034 1497 
Q 3034 2003 2786 2293 
Q 2538 2584 2113 2584 
z
M 3366 4563 
L 3366 3988 
Q 3128 4100 2886 4159 
Q 2644 4219 2406 4219 
Q 1781 4219 1451 3797 
Q 1122 3375 1075 2522 
Q 1259 2794 1537 2939 
Q 1816 3084 2150 3084 
Q 2853 3084 3261 2657 
Q 3669 2231 3669 1497 
Q 3669 778 3244 343 
Q 2819 -91 2113 -91 
Q 1303 -91 875 529 
Q 447 1150 447 2328 
Q 447 3434 972 4092 
Q 1497 4750 2381 4750 
Q 2619 4750 2861 4703 
Q 3103 4656 3366 4563 
z
" transform="scale(0.015625)"/>
       </defs>
       <use xlink:href="#DejaVuSans-2212"/>
       <use xlink:href="#DejaVuSans-36" x="83.789062"/>
      </g>
     </g>
    </g>
    <g id="ytick_10">
     <g id="line2d_18">
      <path d="M 349.25175 207.477187 
C 349.25175 187.820339 345.37978 168.354629 337.857429 150.19407 
C 330.335079 132.03351 319.30864 115.531278 305.40915 101.631788 
C 291.509659 87.732297 275.007427 76.705858 256.846868 69.183508 
C 238.686308 61.661158 219.220598 57.789187 199.56375 57.789187 
C 179.906902 57.789187 160.441192 61.661158 142.280632 69.183508 
C 124.120073 76.705858 107.617841 87.732297 93.71835 101.631788 
C 79.81886 115.531278 68.792421 132.03351 61.270071 150.19407 
C 53.74772 168.354629 49.87575 187.820339 49.87575 207.477187 
C 49.87575 227.134036 53.74772 246.599746 61.270071 264.760305 
C 68.792421 282.920865 79.81886 299.423097 93.71835 313.322587 
C 107.617841 327.222078 124.120073 338.248517 142.280632 345.770867 
C 160.441192 353.293217 179.906902 357.165188 199.56375 357.165188 
C 219.220598 357.165188 238.686308 353.293217 256.846868 345.770867 
C 275.007427 338.248517 291.509659 327.222078 305.40915 313.322587 
C 319.30864 299.423097 330.335079 282.920865 337.857429 264.760305 
C 345.37978 246.599746 349.25175 227.134036 349.25175 207.477188 
" clip-path="url(#p5d17278b5c)" style="fill: none; stroke: #b0b0b0; stroke-width: 0.8; stroke-linecap: square"/>
     </g>
     <g id="text_18">
      <!-- −3 -->
      <g transform="translate(337.857429 148.114382)scale(0.1 -0.1)">
       <use xlink:href="#DejaVuSans-2212"/>
       <use xlink:href="#DejaVuSans-33" x="83.789062"/>
      </g>
     </g>
    </g>
   </g>
   <g id="line2d_19">
    <path d="M 324.447894 207.477188 
L 325.659454 209.678196 
L 326.181267 214.11293 
L 326.317167 216.34065 
L 326.327603 220.800605 
L 326.44445 223.056179 
L 327.426925 225.447185 
L 327.937096 227.809528 
L 328.834823 230.271166 
L 330.49847 235.308221 
L 331.271009 240.315495 
L 331.18122 242.743982 
L 331.462312 245.298492 
L 331.015428 247.665999 
L 330.926735 250.159609 
L 331.173514 252.794063 
L 331.09559 257.96753 
L 331.330387 260.714365 
L 331.233449 263.367659 
L 330.6786 265.85328 
L 330.353317 268.465364 
L 329.370242 273.616899 
L 329.41015 276.517743 
L 329.203717 279.337795 
L 328.818062 282.1022 
L 328.712537 285.077608 
L 328.095507 287.792743 
L 327.218233 290.376978 
L 326.666631 293.209163 
L 325.664219 295.773686 
L 324.799231 298.466091 
L 324.436347 301.575439 
L 323.264386 304.122716 
L 322.269751 306.842548 
L 321.374781 309.688779 
L 320.241848 312.381058 
L 319.253722 315.246523 
L 318.072327 317.988224 
L 314.833311 322.746748 
L 311.159933 327.149442 
L 309.614526 329.700957 
L 307.839297 332.033955 
L 305.909134 334.214681 
L 301.571459 338.041101 
L 299.273931 339.797067 
L 294.461737 343.005559 
L 292.3207 344.995022 
L 290.027335 346.778893 
L 285.224883 350.041253 
L 279.896254 352.400861 
L 277.169957 353.433235 
L 274.291204 354.138073 
L 271.52095 355.011311 
L 268.583716 355.490981 
L 265.532252 355.644869 
L 262.570232 355.911158 
L 259.492438 355.805895 
L 256.62044 356.114947 
L 253.702901 356.223282 
L 250.717834 356.039434 
L 247.863722 356.129216 
L 244.850319 355.60288 
L 241.6623 354.292278 
L 238.763586 353.772967 
L 235.76046 352.654262 
L 232.738619 351.173333 
L 229.845344 349.940888 
L 226.971458 348.477621 
L 224.010693 346.122693 
L 221.242965 344.354364 
L 218.458867 341.922928 
L 215.717714 339.040665 
L 213.13056 336.556765 
L 205.768619 325.873147 
L 203.532276 321.120901 
L 199.56375 314.753587 
L 197.767182 310.402501 
L 196.056487 307.912056 
L 194.441142 305.222367 
L 192.851279 303.469991 
L 191.196807 303.111783 
L 189.43225 303.87197 
L 185.894515 304.738846 
L 183.912947 306.292467 
L 181.913507 307.576687 
L 179.908989 308.592169 
L 177.422258 311.644719 
L 174.911758 314.256696 
L 172.630812 315.499303 
L 169.85286 318.359739 
L 165.15672 320.01751 
L 162.81068 320.591505 
L 158.703405 319.740062 
L 156.945077 318.502627 
L 155.439655 316.688156 
L 154.03861 314.727697 
L 152.742011 312.640536 
L 151.326156 310.923042 
L 149.878091 309.347885 
L 147.649689 309.364268 
L 145.572297 309.020342 
L 142.961695 309.589997 
L 140.614398 309.58046 
L 135.97644 309.238156 
L 133.793463 308.754549 
L 131.431414 308.48753 
L 128.829882 308.49562 
L 126.31185 308.299778 
L 123.649219 308.219173 
L 120.199391 309.058935 
L 117.336123 309.01985 
L 114.286455 309.10671 
L 110.925399 309.443946 
L 108.380305 308.746662 
L 105.704233 308.129197 
L 102.841213 307.636306 
L 100.37485 306.666088 
L 97.390681 306.144573 
L 94.877389 305.098798 
L 93.251401 303.201256 
L 91.484007 301.429475 
L 90.667695 298.851827 
L 89.658295 296.47687 
L 89.200852 293.702134 
L 89.080967 290.731936 
L 88.353459 288.276194 
L 87.959363 285.623421 
L 87.168659 283.288634 
L 85.862685 281.315522 
L 83.47237 280.019133 
L 81.287849 278.544518 
L 77.177725 275.316869 
L 75.777436 273.295538 
L 72.586756 264.010988 
L 71.430623 261.866473 
L 70.434091 259.648956 
L 67.54065 255.529666 
L 66.313254 253.359013 
L 64.668085 251.307446 
L 62.046866 249.520318 
L 59.772591 247.561657 
L 56.888013 245.707036 
L 54.257571 243.706087 
L 50.543824 239.152351 
L 49.436845 236.658902 
L 49.261627 233.979507 
L 49.555739 231.236122 
L 50.628325 225.764158 
L 51.583451 223.030544 
L 51.936542 220.392895 
L 51.564648 215.233492 
L 51.019654 212.664462 
L 50.275483 210.083024 
L 49.831398 207.477187 
L 49.809858 204.863224 
L 49.617877 202.240962 
L 49.975701 199.63761 
L 50.555621 197.057524 
L 50.997648 194.479338 
L 52.013514 191.969033 
L 52.763363 189.452366 
L 54.061056 187.028117 
L 55.796976 182.127226 
L 56.761967 179.719333 
L 58.119546 177.412294 
L 59.19518 175.07055 
L 66.802539 166.888012 
L 68.907301 165.024334 
L 71.293112 163.310065 
L 74.844588 162.083125 
L 77.860697 160.759762 
L 81.532014 159.789271 
L 86.097447 159.313599 
L 89.614264 158.524522 
L 98.719533 158.292176 
L 102.255808 157.896315 
L 107.086249 158.306028 
L 114.836182 158.559704 
L 120.702061 160.092304 
L 123.064364 159.675066 
L 126.462902 160.004942 
L 129.425978 160.168663 
L 131.402194 159.749952 
L 136.447809 159.915915 
L 138.314133 159.623742 
L 139.955691 159.207533 
L 142.616392 159.692681 
L 144.433918 159.553556 
L 144.487658 157.886452 
L 146.448164 157.946102 
L 147.189085 156.899562 
L 146.44504 154.358478 
L 145.192706 151.174323 
L 145.215672 149.196009 
L 144.141428 145.924464 
L 144.365735 143.979135 
L 144.819504 142.235536 
L 146.556098 142.018189 
L 147.436944 140.757918 
L 147.531617 138.428216 
L 147.995116 136.499052 
L 147.818888 130.762275 
L 147.221085 126.876551 
L 146.905325 123.206092 
L 146.499354 115.566958 
L 147.342167 109.262674 
L 148.175726 106.622512 
L 149.484377 104.799258 
L 150.489706 102.237561 
L 151.9167 100.460161 
L 153.479727 98.910032 
L 154.772996 96.61618 
L 156.182149 94.464252 
L 157.55054 92.046842 
L 158.604023 88.521503 
L 160.331694 86.733335 
L 161.687976 83.591112 
L 163.23696 80.790617 
L 165.176544 79.142389 
L 166.956131 76.695172 
L 168.86069 74.487623 
L 171.060714 73.380945 
L 175.071559 68.575073 
L 177.297391 66.892932 
L 179.484265 64.604226 
L 181.769323 62.553213 
L 184.153532 60.858755 
L 186.546089 58.684647 
L 189.058619 57.246819 
L 194.241038 55.054656 
L 196.88583 54.059269 
L 199.56375 53.209844 
L 202.268568 52.518272 
L 204.993845 51.97961 
L 207.726265 51.727122 
L 210.482682 51.329189 
L 221.410144 52.03202 
L 229.703872 52.419703 
L 232.459583 52.714463 
L 235.1356 53.398576 
L 240.578725 54.407215 
L 243.355472 54.757305 
L 246.108144 55.237334 
L 248.831674 55.846108 
L 251.432594 56.839127 
L 254.104887 57.626645 
L 261.705913 61.079425 
L 266.308667 64.342251 
L 268.536505 66.062083 
L 270.855603 67.559047 
L 273.294462 68.809887 
L 275.875329 69.807456 
L 278.574066 70.627306 
L 281.107438 71.765701 
L 283.395939 73.317641 
L 285.48302 75.173115 
L 287.481342 77.133997 
L 291.077301 81.519591 
L 292.697764 83.884177 
L 294.188648 86.362841 
L 297.801911 90.401506 
L 299.470119 92.548056 
L 302.414482 97.18328 
L 303.041267 100.323082 
L 303.782267 103.258671 
L 303.746781 106.868804 
L 303.577043 110.483223 
L 303.136302 114.220043 
L 299.214982 126.781211 
L 295.439934 132.570503 
L 292.579512 137.384784 
L 291.424931 140.736133 
L 288.794072 147.290575 
L 289.342676 149.174071 
L 289.673513 155.452292 
L 288.880334 157.968196 
L 288.79093 160.034254 
L 287.244138 162.801798 
L 286.914236 164.873509 
L 286.287835 167.037083 
L 286.565098 168.741692 
L 286.406247 170.614734 
L 286.897571 172.192033 
L 288.10047 173.491125 
L 289.935054 176.359852 
L 291.951252 177.458669 
L 293.470197 180.549947 
L 295.264613 181.834219 
L 295.042468 185.434189 
L 296.941873 186.778829 
L 297.93045 188.356638 
L 300.001756 189.767257 
L 303.027936 191.09007 
L 305.236159 192.625899 
L 311.85984 195.674393 
L 313.766347 197.485755 
L 316.29591 199.31448 
L 319.653849 201.183532 
L 321.967188 203.202765 
L 324.833524 205.290595 
L 324.833524 205.290595 
" clip-path="url(#p5d17278b5c)" style="fill: none; stroke: #ff0000; stroke-width: 1.5; stroke-linecap: square"/>
   </g>
   <g id="line2d_20">
    <path d="M 365.063238 207.477187 
L 364.901473 201.703467 
L 364.466522 195.946062 
L 363.748606 190.220664 
L 362.760863 184.541329 
L 361.495192 178.924305 
L 359.966239 173.382586 
L 358.178365 167.930122 
L 356.141999 162.579097 
L 353.862794 157.342389 
L 351.347074 152.232575 
L 348.6121 147.257745 
L 345.665036 142.428704 
L 342.518575 137.753461 
L 339.190483 133.236337 
L 335.688644 128.885444 
L 332.025557 124.705864 
L 328.220141 120.697356 
L 324.283434 116.863033 
L 320.229428 113.202828 
L 316.072039 109.715125 
L 311.82325 106.39828 
L 307.495519 103.248689 
L 303.100575 100.261667 
L 298.648029 97.432947 
L 294.146712 94.757603 
L 287.321722 91.018425 
L 280.425366 87.594912 
L 273.477886 84.463408 
L 266.483064 81.620262 
L 259.448376 79.054193 
L 252.377256 76.759173 
L 245.26869 74.740403 
L 238.126199 72.993946 
L 230.948989 71.53278 
L 223.740173 70.365878 
L 216.505514 69.49759 
L 209.251334 68.938285 
L 201.986234 68.6932 
L 194.719908 68.767697 
L 187.46222 69.156072 
L 180.222663 69.8582 
L 173.009723 70.868561 
L 165.829511 72.176543 
L 158.686053 73.772264 
L 151.581429 75.646845 
L 144.513769 77.787561 
L 137.48341 80.193627 
L 130.490375 82.865521 
L 123.528674 85.795631 
L 116.606316 89.001694 
L 109.733412 92.499598 
L 102.921396 96.302877 
L 98.425054 99.019215 
L 93.974339 101.887777 
L 89.579211 104.914945 
L 85.251106 108.106722 
L 81.001662 111.467502 
L 76.844754 115.001791 
L 72.793428 118.711652 
L 68.862856 122.599034 
L 65.068811 126.664475 
L 61.423676 130.904894 
L 57.941399 135.316996 
L 54.640067 139.898164 
L 51.532939 144.641836 
L 48.633124 149.540349 
L 45.953501 154.584937 
L 43.501332 159.764118 
L 41.293983 165.068931 
L 39.337768 170.486105 
L 37.638284 176.002065 
L 36.21135 181.604709 
L 35.055752 187.278145 
L 34.18593 193.008503 
L 33.593487 198.779055 
L 33.291254 204.57489 
L 33.274624 210.379775 
L 33.543659 216.177932 
L 34.097564 221.953603 
L 34.940196 227.690418 
L 36.058029 233.37395 
L 37.453251 238.988276 
L 39.116289 244.519403 
L 41.042293 249.952884 
L 43.220339 255.276165 
L 45.638984 260.477735 
L 48.291524 265.545155 
L 51.165503 270.468506 
L 54.243126 275.241307 
L 57.516582 279.853835 
L 60.972729 284.299445 
L 64.598349 288.572582 
L 68.371859 292.674198 
L 72.284793 296.598872 
L 76.320522 300.347621 
L 80.465254 303.921248 
L 84.70533 307.322088 
L 89.027944 310.553494 
L 93.420415 313.620523 
L 97.872272 316.527947 
L 102.373271 319.282044 
L 109.199583 323.138046 
L 116.095623 326.682027 
L 123.046863 329.929803 
L 130.041515 332.898619 
L 137.075114 335.597877 
L 144.149846 338.024165 
L 151.262875 340.182752 
L 158.41374 342.072805 
L 165.605528 343.676178 
L 172.835179 344.983767 
L 177.672053 345.695922 
L 184.951511 346.503353 
L 192.251956 346.994521 
L 199.56375 347.1749 
L 206.877575 347.033276 
L 214.184102 346.580543 
L 221.47366 345.810912 
L 228.738788 344.734951 
L 235.975589 343.368022 
L 243.176433 341.703225 
L 250.342178 339.759514 
L 257.468558 337.533517 
L 264.553227 335.026218 
L 271.596942 332.242336 
L 278.592569 329.170897 
L 285.532329 325.802785 
L 292.399885 322.120266 
L 296.929178 319.483299 
L 301.410627 316.694592 
L 305.836452 313.749889 
L 310.196178 310.643595 
L 314.479492 307.371918 
L 318.675171 303.931715 
L 322.770671 300.320262 
L 326.753242 296.536228 
L 330.608714 292.578782 
L 334.324809 288.449801 
L 337.888082 284.151617 
L 341.279956 279.685201 
L 344.497482 275.060897 
L 347.518012 270.280046 
L 350.333927 265.352436 
L 352.932869 260.28641 
L 355.302761 255.091381 
L 357.431885 249.777827 
L 359.314365 244.358523 
L 360.945002 238.846525 
L 362.308342 233.253399 
L 363.400421 227.593801 
L 364.223592 221.883057 
L 364.76999 216.13528 
L 365.032488 210.365455 
L 365.032488 210.365455 
" clip-path="url(#p5d17278b5c)" style="fill: none; stroke-dasharray: 5.55,2.4; stroke-dashoffset: 0; stroke: #0000ff; stroke-width: 1.5"/>
   </g>
   <g id="patch_3">
    <path d="M 365.88375 207.477187 
C 365.88375 185.636245 361.581561 164.007679 353.223394 143.829279 
C 344.865227 123.650879 332.613628 105.315066 317.16975 89.871188 
C 301.725871 74.427309 283.390058 62.17571 263.211658 53.817544 
C 243.033259 45.459377 221.404692 41.157187 199.56375 41.157187 
C 177.722808 41.157187 156.094241 45.459377 135.915842 53.817544 
C 115.737442 62.17571 97.401629 74.427309 81.95775 89.871188 
C 66.513872 105.315066 54.262273 123.650879 45.904106 143.829279 
C 37.545939 164.007679 33.24375 185.636245 33.24375 207.477187 
C 33.24375 229.31813 37.545939 250.946696 45.904106 271.125096 
C 54.262273 291.303496 66.513872 309.639309 81.95775 325.083187 
C 97.401629 340.527066 115.737442 352.778665 135.915842 361.136831 
C 156.094241 369.494998 177.722808 373.797188 199.56375 373.797188 
C 221.404692 373.797188 243.033259 369.494998 263.211658 361.136831 
C 283.390058 352.778665 301.725871 340.527066 317.16975 325.083187 
C 332.613628 309.639309 344.865227 291.303496 353.223394 271.125096 
C 361.581561 250.946696 365.88375 229.31813 365.88375 207.477188 
" style="fill: none; stroke: #000000; stroke-width: 0.8; stroke-linejoin: miter; stroke-linecap: square"/>
   </g>
   <g id="text_19">
    <!-- Radiation Diagram - 2AHHF07 -->
    <g transform="translate(109.529062 16.318125)scale(0.12 -0.12)">
     <defs>
      <path id="DejaVuSans-52" d="M 2841 2188 
Q 3044 2119 3236 1894 
Q 3428 1669 3622 1275 
L 4263 0 
L 3584 0 
L 2988 1197 
Q 2756 1666 2539 1819 
Q 2322 1972 1947 1972 
L 1259 1972 
L 1259 0 
L 628 0 
L 628 4666 
L 2053 4666 
Q 2853 4666 3247 4331 
Q 3641 3997 3641 3322 
Q 3641 2881 3436 2590 
Q 3231 2300 2841 2188 
z
M 1259 4147 
L 1259 2491 
L 2053 2491 
Q 2509 2491 2742 2702 
Q 2975 2913 2975 3322 
Q 2975 3731 2742 3939 
Q 2509 4147 2053 4147 
L 1259 4147 
z
" transform="scale(0.015625)"/>
      <path id="DejaVuSans-61" d="M 2194 1759 
Q 1497 1759 1228 1600 
Q 959 1441 959 1056 
Q 959 750 1161 570 
Q 1363 391 1709 391 
Q 2188 391 2477 730 
Q 2766 1069 2766 1631 
L 2766 1759 
L 2194 1759 
z
M 3341 1997 
L 3341 0 
L 2766 0 
L 2766 531 
Q 2569 213 2275 61 
Q 1981 -91 1556 -91 
Q 1019 -91 701 211 
Q 384 513 384 1019 
Q 384 1609 779 1909 
Q 1175 2209 1959 2209 
L 2766 2209 
L 2766 2266 
Q 2766 2663 2505 2880 
Q 2244 3097 1772 3097 
Q 1472 3097 1187 3025 
Q 903 2953 641 2809 
L 641 3341 
Q 956 3463 1253 3523 
Q 1550 3584 1831 3584 
Q 2591 3584 2966 3190 
Q 3341 2797 3341 1997 
z
" transform="scale(0.015625)"/>
      <path id="DejaVuSans-64" d="M 2906 2969 
L 2906 4863 
L 3481 4863 
L 3481 0 
L 2906 0 
L 2906 525 
Q 2725 213 2448 61 
Q 2172 -91 1784 -91 
Q 1150 -91 751 415 
Q 353 922 353 1747 
Q 353 2572 751 3078 
Q 1150 3584 1784 3584 
Q 2172 3584 2448 3432 
Q 2725 3281 2906 2969 
z
M 947 1747 
Q 947 1113 1208 752 
Q 1469 391 1925 391 
Q 2381 391 2643 752 
Q 2906 1113 2906 1747 
Q 2906 2381 2643 2742 
Q 2381 3103 1925 3103 
Q 1469 3103 1208 2742 
Q 947 2381 947 1747 
z
" transform="scale(0.015625)"/>
      <path id="DejaVuSans-69" d="M 603 3500 
L 1178 3500 
L 1178 0 
L 603 0 
L 603 3500 
z
M 603 4863 
L 1178 4863 
L 1178 4134 
L 603 4134 
L 603 4863 
z
" transform="scale(0.015625)"/>
      <path id="DejaVuSans-74" d="M 1172 4494 
L 1172 3500 
L 2356 3500 
L 2356 3053 
L 1172 3053 
L 1172 1153 
Q 1172 725 1289 603 
Q 1406 481 1766 481 
L 2356 481 
L 2356 0 
L 1766 0 
Q 1100 0 847 248 
Q 594 497 594 1153 
L 594 3053 
L 172 3053 
L 172 3500 
L 594 3500 
L 594 4494 
L 1172 4494 
z
" transform="scale(0.015625)"/>
      <path id="DejaVuSans-6f" d="M 1959 3097 
Q 1497 3097 1228 2736 
Q 959 2375 959 1747 
Q 959 1119 1226 758 
Q 1494 397 1959 397 
Q 2419 397 2687 759 
Q 2956 1122 2956 1747 
Q 2956 2369 2687 2733 
Q 2419 3097 1959 3097 
z
M 1959 3584 
Q 2709 3584 3137 3096 
Q 3566 2609 3566 1747 
Q 3566 888 3137 398 
Q 2709 -91 1959 -91 
Q 1206 -91 779 398 
Q 353 888 353 1747 
Q 353 2609 779 3096 
Q 1206 3584 1959 3584 
z
" transform="scale(0.015625)"/>
      <path id="DejaVuSans-6e" d="M 3513 2113 
L 3513 0 
L 2938 0 
L 2938 2094 
Q 2938 2591 2744 2837 
Q 2550 3084 2163 3084 
Q 1697 3084 1428 2787 
Q 1159 2491 1159 1978 
L 1159 0 
L 581 0 
L 581 3500 
L 1159 3500 
L 1159 2956 
Q 1366 3272 1645 3428 
Q 1925 3584 2291 3584 
Q 2894 3584 3203 3211 
Q 3513 2838 3513 2113 
z
" transform="scale(0.015625)"/>
      <path id="DejaVuSans-20" transform="scale(0.015625)"/>
      <path id="DejaVuSans-44" d="M 1259 4147 
L 1259 519 
L 2022 519 
Q 2988 519 3436 956 
Q 3884 1394 3884 2338 
Q 3884 3275 3436 3711 
Q 2988 4147 2022 4147 
L 1259 4147 
z
M 628 4666 
L 1925 4666 
Q 3281 4666 3915 4102 
Q 4550 3538 4550 2338 
Q 4550 1131 3912 565 
Q 3275 0 1925 0 
L 628 0 
L 628 4666 
z
" transform="scale(0.015625)"/>
      <path id="DejaVuSans-67" d="M 2906 1791 
Q 2906 2416 2648 2759 
Q 2391 3103 1925 3103 
Q 1463 3103 1205 2759 
Q 947 2416 947 1791 
Q 947 1169 1205 825 
Q 1463 481 1925 481 
Q 2391 481 2648 825 
Q 2906 1169 2906 1791 
z
M 3481 434 
Q 3481 -459 3084 -895 
Q 2688 -1331 1869 -1331 
Q 1566 -1331 1297 -1286 
Q 1028 -1241 775 -1147 
L 775 -588 
Q 1028 -725 1275 -790 
Q 1522 -856 1778 -856 
Q 2344 -856 2625 -561 
Q 2906 -266 2906 331 
L 2906 616 
Q 2728 306 2450 153 
Q 2172 0 1784 0 
Q 1141 0 747 490 
Q 353 981 353 1791 
Q 353 2603 747 3093 
Q 1141 3584 1784 3584 
Q 2172 3584 2450 3431 
Q 2728 3278 2906 2969 
L 2906 3500 
L 3481 3500 
L 3481 434 
z
" transform="scale(0.015625)"/>
      <path id="DejaVuSans-72" d="M 2631 2963 
Q 2534 3019 2420 3045 
Q 2306 3072 2169 3072 
Q 1681 3072 1420 2755 
Q 1159 2438 1159 1844 
L 1159 0 
L 581 0 
L 581 3500 
L 1159 3500 
L 1159 2956 
Q 1341 3275 1631 3429 
Q 1922 3584 2338 3584 
Q 2397 3584 2469 3576 
Q 2541 3569 2628 3553 
L 2631 2963 
z
" transform="scale(0.015625)"/>
      <path id="DejaVuSans-6d" d="M 3328 2828 
Q 3544 3216 3844 3400 
Q 4144 3584 4550 3584 
Q 5097 3584 5394 3201 
Q 5691 2819 5691 2113 
L 5691 0 
L 5113 0 
L 5113 2094 
Q 5113 2597 4934 2840 
Q 4756 3084 4391 3084 
Q 3944 3084 3684 2787 
Q 3425 2491 3425 1978 
L 3425 0 
L 2847 0 
L 2847 2094 
Q 2847 2600 2669 2842 
Q 2491 3084 2119 3084 
Q 1678 3084 1418 2786 
Q 1159 2488 1159 1978 
L 1159 0 
L 581 0 
L 581 3500 
L 1159 3500 
L 1159 2956 
Q 1356 3278 1631 3431 
Q 1906 3584 2284 3584 
Q 2666 3584 2933 3390 
Q 3200 3197 3328 2828 
z
" transform="scale(0.015625)"/>
      <path id="DejaVuSans-2d" d="M 313 2009 
L 1997 2009 
L 1997 1497 
L 313 1497 
L 313 2009 
z
" transform="scale(0.015625)"/>
      <path id="DejaVuSans-41" d="M 2188 4044 
L 1331 1722 
L 3047 1722 
L 2188 4044 
z
M 1831 4666 
L 2547 4666 
L 4325 0 
L 3669 0 
L 3244 1197 
L 1141 1197 
L 716 0 
L 50 0 
L 1831 4666 
z
" transform="scale(0.015625)"/>
      <path id="DejaVuSans-48" d="M 628 4666 
L 1259 4666 
L 1259 2753 
L 3553 2753 
L 3553 4666 
L 4184 4666 
L 4184 0 
L 3553 0 
L 3553 2222 
L 1259 2222 
L 1259 0 
L 628 0 
L 628 4666 
z
" transform="scale(0.015625)"/>
      <path id="DejaVuSans-46" d="M 628 4666 
L 3309 4666 
L 3309 4134 
L 1259 4134 
L 1259 2759 
L 3109 2759 
L 3109 2228 
L 1259 2228 
L 1259 0 
L 628 0 
L 628 4666 
z
" transform="scale(0.015625)"/>
     </defs>
     <use xlink:href="#DejaVuSans-52"/>
     <use xlink:href="#DejaVuSans-61" x="67.232422"/>
     <use xlink:href="#DejaVuSans-64" x="128.511719"/>
     <use xlink:href="#DejaVuSans-69" x="191.988281"/>
     <use xlink:href="#DejaVuSans-61" x="219.771484"/>
     <use xlink:href="#DejaVuSans-74" x="281.050781"/>
     <use xlink:href="#DejaVuSans-69" x="320.259766"/>
     <use xlink:href="#DejaVuSans-6f" x="348.042969"/>
     <use xlink:href="#DejaVuSans-6e" x="409.224609"/>
     <use xlink:href="#DejaVuSans-20" x="472.603516"/>
     <use xlink:href="#DejaVuSans-44" x="504.390625"/>
     <use xlink:href="#DejaVuSans-69" x="581.392578"/>
     <use xlink:href="#DejaVuSans-61" x="609.175781"/>
     <use xlink:href="#DejaVuSans-67" x="670.455078"/>
     <use xlink:href="#DejaVuSans-72" x="733.931641"/>
     <use xlink:href="#DejaVuSans-61" x="775.044922"/>
     <use xlink:href="#DejaVuSans-6d" x="836.324219"/>
     <use xlink:href="#DejaVuSans-20" x="933.736328"/>
     <use xlink:href="#DejaVuSans-2d" x="965.523438"/>
     <use xlink:href="#DejaVuSans-20" x="1001.607422"/>
     <use xlink:href="#DejaVuSans-32" x="1033.394531"/>
     <use xlink:href="#DejaVuSans-41" x="1097.017578"/>
     <use xlink:href="#DejaVuSans-48" x="1165.425781"/>
     <use xlink:href="#DejaVuSans-48" x="1240.621094"/>
     <use xlink:href="#DejaVuSans-46" x="1315.816406"/>
     <use xlink:href="#DejaVuSans-30" x="1373.335938"/>
     <use xlink:href="#DejaVuSans-37" x="1436.958984"/>
    </g>
   </g>
   <g id="legend_1">
    <g id="patch_4">
     <path d="M 304.104062 78.513437 
L 358.88375 78.513437 
Q 360.88375 78.513437 360.88375 76.513437 
L 360.88375 48.157187 
Q 360.88375 46.157187 358.88375 46.157187 
L 304.104062 46.157187 
Q 302.104062 46.157187 302.104062 48.157187 
L 302.104062 76.513437 
Q 302.104062 78.513437 304.104062 78.513437 
z
" style="fill: #ffffff; opacity: 0.8; stroke: #cccccc; stroke-linejoin: miter"/>
    </g>
    <g id="line2d_21">
     <path d="M 306.104062 54.255625 
L 316.104062 54.255625 
L 326.104062 54.255625 
" style="fill: none; stroke: #ff0000; stroke-width: 1.5; stroke-linecap: square"/>
    </g>
    <g id="text_20">
     <!-- INPE -->
     <g transform="translate(334.104062 57.755625)scale(0.1 -0.1)">
      <defs>
       <path id="DejaVuSans-49" d="M 628 4666 
L 1259 4666 
L 1259 0 
L 628 0 
L 628 4666 
z
" transform="scale(0.015625)"/>
       <path id="DejaVuSans-4e" d="M 628 4666 
L 1478 4666 
L 3547 763 
L 3547 4666 
L 4159 4666 
L 4159 0 
L 3309 0 
L 1241 3903 
L 1241 0 
L 628 0 
L 628 4666 
z
" transform="scale(0.015625)"/>
       <path id="DejaVuSans-50" d="M 1259 4147 
L 1259 2394 
L 2053 2394 
Q 2494 2394 2734 2622 
Q 2975 2850 2975 3272 
Q 2975 3691 2734 3919 
Q 2494 4147 2053 4147 
L 1259 4147 
z
M 628 4666 
L 2053 4666 
Q 2838 4666 3239 4311 
Q 3641 3956 3641 3272 
Q 3641 2581 3239 2228 
Q 2838 1875 2053 1875 
L 1259 1875 
L 1259 0 
L 628 0 
L 628 4666 
z
" transform="scale(0.015625)"/>
       <path id="DejaVuSans-45" d="M 628 4666 
L 3578 4666 
L 3578 4134 
L 1259 4134 
L 1259 2753 
L 3481 2753 
L 3481 2222 
L 1259 2222 
L 1259 531 
L 3634 531 
L 3634 0 
L 628 0 
L 628 4666 
z
" transform="scale(0.015625)"/>
      </defs>
      <use xlink:href="#DejaVuSans-49"/>
      <use xlink:href="#DejaVuSans-4e" x="29.492188"/>
      <use xlink:href="#DejaVuSans-50" x="104.296875"/>
      <use xlink:href="#DejaVuSans-45" x="164.599609"/>
     </g>
    </g>
    <g id="line2d_22">
     <path d="M 306.104062 68.93375 
L 316.104062 68.93375 
L 326.104062 68.93375 
" style="fill: none; stroke-dasharray: 5.55,2.4; stroke-dashoffset: 0; stroke: #0000ff; stroke-width: 1.5"/>
    </g>
    <g id="text_21">
     <!-- CST -->
     <g transform="translate(334.104062 72.43375)scale(0.1 -0.1)">
      <defs>
       <path id="DejaVuSans-43" d="M 4122 4306 
L 4122 3641 
Q 3803 3938 3442 4084 
Q 3081 4231 2675 4231 
Q 1875 4231 1450 3742 
Q 1025 3253 1025 2328 
Q 1025 1406 1450 917 
Q 1875 428 2675 428 
Q 3081 428 3442 575 
Q 3803 722 4122 1019 
L 4122 359 
Q 3791 134 3420 21 
Q 3050 -91 2638 -91 
Q 1578 -91 968 557 
Q 359 1206 359 2328 
Q 359 3453 968 4101 
Q 1578 4750 2638 4750 
Q 3056 4750 3426 4639 
Q 3797 4528 4122 4306 
z
" transform="scale(0.015625)"/>
       <path id="DejaVuSans-53" d="M 3425 4513 
L 3425 3897 
Q 3066 4069 2747 4153 
Q 2428 4238 2131 4238 
Q 1616 4238 1336 4038 
Q 1056 3838 1056 3469 
Q 1056 3159 1242 3001 
Q 1428 2844 1947 2747 
L 2328 2669 
Q 3034 2534 3370 2195 
Q 3706 1856 3706 1288 
Q 3706 609 3251 259 
Q 2797 -91 1919 -91 
Q 1588 -91 1214 -16 
Q 841 59 441 206 
L 441 856 
Q 825 641 1194 531 
Q 1563 422 1919 422 
Q 2459 422 2753 634 
Q 3047 847 3047 1241 
Q 3047 1584 2836 1778 
Q 2625 1972 2144 2069 
L 1759 2144 
Q 1053 2284 737 2584 
Q 422 2884 422 3419 
Q 422 4038 858 4394 
Q 1294 4750 2059 4750 
Q 2388 4750 2728 4690 
Q 3069 4631 3425 4513 
z
" transform="scale(0.015625)"/>
       <path id="DejaVuSans-54" d="M -19 4666 
L 3928 4666 
L 3928 4134 
L 2272 4134 
L 2272 0 
L 1638 0 
L 1638 4134 
L -19 4134 
L -19 4666 
z
" transform="scale(0.015625)"/>
      </defs>
      <use xlink:href="#DejaVuSans-43"/>
      <use xlink:href="#DejaVuSans-53" x="69.824219"/>
      <use xlink:href="#DejaVuSans-54" x="133.300781"/>
     </g>
    </g>
   </g>
  </g>
 </g>
 <defs>
  <clipPath id="p5d17278b5c">
   <path d="M 365.88375 207.477187 
C 365.88375 185.636245 361.581561 164.007679 353.223394 143.829279 
C 344.865227 123.650879 332.613628 105.315066 317.16975 89.871188 
C 301.725871 74.427309 283.390058 62.17571 263.211658 53.817544 
C 243.033259 45.459377 221.404692 41.157187 199.56375 41.157187 
C 177.722808 41.157187 156.094241 45.459377 135.915842 53.817544 
C 115.737442 62.17571 97.401629 74.427309 81.95775 89.871188 
C 66.513872 105.315066 54.262273 123.650879 45.904106 143.829279 
C 37.545939 164.007679 33.24375 185.636245 33.24375 207.477187 
C 33.24375 229.31813 37.545939 250.946696 45.904106 271.125096 
C 54.262273 291.303496 66.513872 309.639309 81.95775 325.083187 
C 97.401629 340.527066 115.737442 352.778665 135.915842 361.136831 
C 156.094241 369.494998 177.722808 373.797188 199.56375 373.797188 
C 221.404692 373.797188 243.033259 369.494998 263.211658 361.136831 
C 283.390058 352.778665 301.725871 340.527066 317.16975 325.083187 
C 332.613628 309.639309 344.865227 291.303496 353.223394 271.125096 
C 361.581561 250.946696 365.88375 229.31813 365.88375 207.477188 
M 199.56375 207.477187 
C 199.56375 207.477187 199.56375 207.477187 199.56375 207.477187 
C 199.56375 207.477187 199.56375 207.477187 199.56375 207.477187 
C 199.56375 207.477187 199.56375 207.477187 199.56375 207.477187 
C 199.56375 207.477187 199.56375 207.477187 199.56375 207.477187 
C 199.56375 207.477187 199.56375 207.477187 199.56375 207.477187 
C 199.56375 207.477187 199.56375 207.477187 199.56375 207.477187 
C 199.56375 207.477187 199.56375 207.477187 199.56375 207.477187 
C 199.56375 207.477187 199.56375 207.477187 199.56375 207.477187 
C 199.56375 207.477187 199.56375 207.477187 199.56375 207.477187 
C 199.56375 207.477187 199.56375 207.477187 199.56375 207.477187 
C 199.56375 207.477187 199.56375 207.477187 199.56375 207.477187 
C 199.56375 207.477187 199.56375 207.477187 199.56375 207.477187 
C 199.56375 207.477187 199.56375 207.477187 199.56375 207.477187 
C 199.56375 207.477187 199.56375 207.477187 199.56375 207.477187 
C 199.56375 207.477187 199.56375 207.477187 199.56375 207.477187 
C 199.56375 207.477187 199.56375 207.477187 199.56375 207.477187 
M 365.88375 207.477187 
z
"/>
  </clipPath>
 </defs>
</svg>
