<?xml version="1.0" encoding="utf-8" standalone="no"?>
<!DOCTYPE svg PUBLIC "-//W3C//DTD SVG 1.1//EN"
  "http://www.w3.org/Graphics/SVG/1.1/DTD/svg11.dtd">
<svg xmlns:xlink="http://www.w3.org/1999/xlink" width="392.765pt" height="399.83625pt" viewBox="0 0 392.765 399.83625" xmlns="http://www.w3.org/2000/svg" version="1.1">
 <metadata>
  <rdf:RDF xmlns:dc="http://purl.org/dc/elements/1.1/" xmlns:cc="http://creativecommons.org/ns#" xmlns:rdf="http://www.w3.org/1999/02/22-rdf-syntax-ns#">
   <cc:Work>
    <dc:type rdf:resource="http://purl.org/dc/dcmitype/StillImage"/>
    <dc:date>2023-10-20T11:29:11.385117</dc:date>
    <dc:format>image/svg+xml</dc:format>
    <dc:creator>
     <cc:Agent>
      <dc:title>Matplotlib v3.5.1, https://matplotlib.org/</dc:title>
     </cc:Agent>
    </dc:creator>
   </cc:Work>
  </rdf:RDF>
 </metadata>
 <defs>
  <style type="text/css">*{stroke-linejoin: round; stroke-linecap: butt}</style>
 </defs>
 <g id="figure_1">
  <g id="patch_1">
   <path d="M 0 399.83625 
L 392.765 399.83625 
L 392.765 0 
L 0 0 
z
" style="fill: #ffffff"/>
  </g>
  <g id="axes_1">
   <g id="patch_2">
    <path d="M 365.88375 207.477187 
C 365.88375 185.636245 361.581561 164.007679 353.223394 143.829279 
C 344.865227 123.650879 332.613628 105.315066 317.16975 89.871188 
C 301.725871 74.427309 283.390058 62.17571 263.211658 53.817544 
C 243.033259 45.459377 221.404692 41.157187 199.56375 41.157187 
C 177.722808 41.157187 156.094241 45.459377 135.915842 53.817544 
C 115.737442 62.17571 97.401629 74.427309 81.95775 89.871188 
C 66.513872 105.315066 54.262273 123.650879 45.904106 143.829279 
C 37.545939 164.007679 33.24375 185.636245 33.24375 207.477187 
C 33.24375 229.31813 37.545939 250.946696 45.904106 271.125096 
C 54.262273 291.303496 66.513872 309.639309 81.95775 325.083187 
C 97.401629 340.527066 115.737442 352.778665 135.915842 361.136831 
C 156.094241 369.494998 177.722808 373.797188 199.56375 373.797188 
C 221.404692 373.797188 243.033259 369.494998 263.211658 361.136831 
C 283.390058 352.778665 301.725871 340.527066 317.16975 325.083187 
C 332.613628 309.639309 344.865227 291.303496 353.223394 271.125096 
C 361.581561 250.946696 365.88375 229.31813 365.88375 207.477188 
M 199.56375 207.477187 
C 199.56375 207.477187 199.56375 207.477187 199.56375 207.477187 
C 199.56375 207.477187 199.56375 207.477187 199.56375 207.477187 
C 199.56375 207.477187 199.56375 207.477187 199.56375 207.477187 
C 199.56375 207.477187 199.56375 207.477187 199.56375 207.477187 
C 199.56375 207.477187 199.56375 207.477187 199.56375 207.477187 
C 199.56375 207.477187 199.56375 207.477187 199.56375 207.477187 
C 199.56375 207.477187 199.56375 207.477187 199.56375 207.477187 
C 199.56375 207.477187 199.56375 207.477187 199.56375 207.477187 
C 199.56375 207.477187 199.56375 207.477187 199.56375 207.477187 
C 199.56375 207.477187 199.56375 207.477187 199.56375 207.477187 
C 199.56375 207.477187 199.56375 207.477187 199.56375 207.477187 
C 199.56375 207.477187 199.56375 207.477187 199.56375 207.477187 
C 199.56375 207.477187 199.56375 207.477187 199.56375 207.477187 
C 199.56375 207.477187 199.56375 207.477187 199.56375 207.477187 
C 199.56375 207.477187 199.56375 207.477187 199.56375 207.477187 
C 199.56375 207.477187 199.56375 207.477187 199.56375 207.477187 
M 365.88375 207.477187 
z
" style="fill: #ffffff"/>
   </g>
   <g id="matplotlib.axis_1">
    <g id="xtick_1">
     <g id="line2d_1">
      <path d="M 199.56375 207.477187 
L 365.88375 207.477187 
" clip-path="url(#p0c2ecec5c9)" style="fill: none; stroke: #b0b0b0; stroke-width: 0.8; stroke-linecap: square"/>
     </g>
     <g id="text_1">
      <!-- 0° -->
      <g transform="translate(374.2025 210.236562)scale(0.1 -0.1)">
       <defs>
        <path id="DejaVuSans-30" d="M 2034 4250 
Q 1547 4250 1301 3770 
Q 1056 3291 1056 2328 
Q 1056 1369 1301 889 
Q 1547 409 2034 409 
Q 2525 409 2770 889 
Q 3016 1369 3016 2328 
Q 3016 3291 2770 3770 
Q 2525 4250 2034 4250 
z
M 2034 4750 
Q 2819 4750 3233 4129 
Q 3647 3509 3647 2328 
Q 3647 1150 3233 529 
Q 2819 -91 2034 -91 
Q 1250 -91 836 529 
Q 422 1150 422 2328 
Q 422 3509 836 4129 
Q 1250 4750 2034 4750 
z
" transform="scale(0.015625)"/>
        <path id="DejaVuSans-b0" d="M 1600 4347 
Q 1350 4347 1178 4173 
Q 1006 4000 1006 3750 
Q 1006 3503 1178 3333 
Q 1350 3163 1600 3163 
Q 1850 3163 2022 3333 
Q 2194 3503 2194 3750 
Q 2194 3997 2020 4172 
Q 1847 4347 1600 4347 
z
M 1600 4750 
Q 1800 4750 1984 4673 
Q 2169 4597 2303 4453 
Q 2447 4313 2519 4134 
Q 2591 3956 2591 3750 
Q 2591 3338 2302 3052 
Q 2013 2766 1594 2766 
Q 1172 2766 890 3047 
Q 609 3328 609 3750 
Q 609 4169 896 4459 
Q 1184 4750 1600 4750 
z
" transform="scale(0.015625)"/>
       </defs>
       <use xlink:href="#DejaVuSans-30"/>
       <use xlink:href="#DejaVuSans-b0" x="63.623047"/>
      </g>
     </g>
    </g>
    <g id="xtick_2">
     <g id="line2d_2">
      <path d="M 199.56375 207.477187 
L 317.16975 89.871188 
" clip-path="url(#p0c2ecec5c9)" style="fill: none; stroke: #b0b0b0; stroke-width: 0.8; stroke-linecap: square"/>
     </g>
     <g id="text_2">
      <!-- 45° -->
      <g transform="translate(318.206745 82.731068)scale(0.1 -0.1)">
       <defs>
        <path id="DejaVuSans-34" d="M 2419 4116 
L 825 1625 
L 2419 1625 
L 2419 4116 
z
M 2253 4666 
L 3047 4666 
L 3047 1625 
L 3713 1625 
L 3713 1100 
L 3047 1100 
L 3047 0 
L 2419 0 
L 2419 1100 
L 313 1100 
L 313 1709 
L 2253 4666 
z
" transform="scale(0.015625)"/>
        <path id="DejaVuSans-35" d="M 691 4666 
L 3169 4666 
L 3169 4134 
L 1269 4134 
L 1269 2991 
Q 1406 3038 1543 3061 
Q 1681 3084 1819 3084 
Q 2600 3084 3056 2656 
Q 3513 2228 3513 1497 
Q 3513 744 3044 326 
Q 2575 -91 1722 -91 
Q 1428 -91 1123 -41 
Q 819 9 494 109 
L 494 744 
Q 775 591 1075 516 
Q 1375 441 1709 441 
Q 2250 441 2565 725 
Q 2881 1009 2881 1497 
Q 2881 1984 2565 2268 
Q 2250 2553 1709 2553 
Q 1456 2553 1204 2497 
Q 953 2441 691 2322 
L 691 4666 
z
" transform="scale(0.015625)"/>
       </defs>
       <use xlink:href="#DejaVuSans-34"/>
       <use xlink:href="#DejaVuSans-35" x="63.623047"/>
       <use xlink:href="#DejaVuSans-b0" x="127.246094"/>
      </g>
     </g>
    </g>
    <g id="xtick_3">
     <g id="line2d_3">
      <path d="M 199.56375 207.477187 
L 199.56375 41.157187 
" clip-path="url(#p0c2ecec5c9)" style="fill: none; stroke: #b0b0b0; stroke-width: 0.8; stroke-linecap: square"/>
     </g>
     <g id="text_3">
      <!-- 90° -->
      <g transform="translate(190.70125 29.916562)scale(0.1 -0.1)">
       <defs>
        <path id="DejaVuSans-39" d="M 703 97 
L 703 672 
Q 941 559 1184 500 
Q 1428 441 1663 441 
Q 2288 441 2617 861 
Q 2947 1281 2994 2138 
Q 2813 1869 2534 1725 
Q 2256 1581 1919 1581 
Q 1219 1581 811 2004 
Q 403 2428 403 3163 
Q 403 3881 828 4315 
Q 1253 4750 1959 4750 
Q 2769 4750 3195 4129 
Q 3622 3509 3622 2328 
Q 3622 1225 3098 567 
Q 2575 -91 1691 -91 
Q 1453 -91 1209 -44 
Q 966 3 703 97 
z
M 1959 2075 
Q 2384 2075 2632 2365 
Q 2881 2656 2881 3163 
Q 2881 3666 2632 3958 
Q 2384 4250 1959 4250 
Q 1534 4250 1286 3958 
Q 1038 3666 1038 3163 
Q 1038 2656 1286 2365 
Q 1534 2075 1959 2075 
z
" transform="scale(0.015625)"/>
       </defs>
       <use xlink:href="#DejaVuSans-39"/>
       <use xlink:href="#DejaVuSans-30" x="63.623047"/>
       <use xlink:href="#DejaVuSans-b0" x="127.246094"/>
      </g>
     </g>
    </g>
    <g id="xtick_4">
     <g id="line2d_4">
      <path d="M 199.56375 207.477187 
L 81.95775 89.871188 
" clip-path="url(#p0c2ecec5c9)" style="fill: none; stroke: #b0b0b0; stroke-width: 0.8; stroke-linecap: square"/>
     </g>
     <g id="text_4">
      <!-- 135° -->
      <g transform="translate(60.014505 82.731068)scale(0.1 -0.1)">
       <defs>
        <path id="DejaVuSans-31" d="M 794 531 
L 1825 531 
L 1825 4091 
L 703 3866 
L 703 4441 
L 1819 4666 
L 2450 4666 
L 2450 531 
L 3481 531 
L 3481 0 
L 794 0 
L 794 531 
z
" transform="scale(0.015625)"/>
        <path id="DejaVuSans-33" d="M 2597 2516 
Q 3050 2419 3304 2112 
Q 3559 1806 3559 1356 
Q 3559 666 3084 287 
Q 2609 -91 1734 -91 
Q 1441 -91 1130 -33 
Q 819 25 488 141 
L 488 750 
Q 750 597 1062 519 
Q 1375 441 1716 441 
Q 2309 441 2620 675 
Q 2931 909 2931 1356 
Q 2931 1769 2642 2001 
Q 2353 2234 1838 2234 
L 1294 2234 
L 1294 2753 
L 1863 2753 
Q 2328 2753 2575 2939 
Q 2822 3125 2822 3475 
Q 2822 3834 2567 4026 
Q 2313 4219 1838 4219 
Q 1578 4219 1281 4162 
Q 984 4106 628 3988 
L 628 4550 
Q 988 4650 1302 4700 
Q 1616 4750 1894 4750 
Q 2613 4750 3031 4423 
Q 3450 4097 3450 3541 
Q 3450 3153 3228 2886 
Q 3006 2619 2597 2516 
z
" transform="scale(0.015625)"/>
       </defs>
       <use xlink:href="#DejaVuSans-31"/>
       <use xlink:href="#DejaVuSans-33" x="63.623047"/>
       <use xlink:href="#DejaVuSans-35" x="127.246094"/>
       <use xlink:href="#DejaVuSans-b0" x="190.869141"/>
      </g>
     </g>
    </g>
    <g id="xtick_5">
     <g id="line2d_5">
      <path d="M 199.56375 207.477187 
L 33.24375 207.477187 
" clip-path="url(#p0c2ecec5c9)" style="fill: none; stroke: #b0b0b0; stroke-width: 0.8; stroke-linecap: square"/>
     </g>
     <g id="text_5">
      <!-- 180° -->
      <g transform="translate(7.2 210.236562)scale(0.1 -0.1)">
       <defs>
        <path id="DejaVuSans-38" d="M 2034 2216 
Q 1584 2216 1326 1975 
Q 1069 1734 1069 1313 
Q 1069 891 1326 650 
Q 1584 409 2034 409 
Q 2484 409 2743 651 
Q 3003 894 3003 1313 
Q 3003 1734 2745 1975 
Q 2488 2216 2034 2216 
z
M 1403 2484 
Q 997 2584 770 2862 
Q 544 3141 544 3541 
Q 544 4100 942 4425 
Q 1341 4750 2034 4750 
Q 2731 4750 3128 4425 
Q 3525 4100 3525 3541 
Q 3525 3141 3298 2862 
Q 3072 2584 2669 2484 
Q 3125 2378 3379 2068 
Q 3634 1759 3634 1313 
Q 3634 634 3220 271 
Q 2806 -91 2034 -91 
Q 1263 -91 848 271 
Q 434 634 434 1313 
Q 434 1759 690 2068 
Q 947 2378 1403 2484 
z
M 1172 3481 
Q 1172 3119 1398 2916 
Q 1625 2713 2034 2713 
Q 2441 2713 2670 2916 
Q 2900 3119 2900 3481 
Q 2900 3844 2670 4047 
Q 2441 4250 2034 4250 
Q 1625 4250 1398 4047 
Q 1172 3844 1172 3481 
z
" transform="scale(0.015625)"/>
       </defs>
       <use xlink:href="#DejaVuSans-31"/>
       <use xlink:href="#DejaVuSans-38" x="63.623047"/>
       <use xlink:href="#DejaVuSans-30" x="127.246094"/>
       <use xlink:href="#DejaVuSans-b0" x="190.869141"/>
      </g>
     </g>
    </g>
    <g id="xtick_6">
     <g id="line2d_6">
      <path d="M 199.56375 207.477187 
L 81.95775 325.083187 
" clip-path="url(#p0c2ecec5c9)" style="fill: none; stroke: #b0b0b0; stroke-width: 0.8; stroke-linecap: square"/>
     </g>
     <g id="text_6">
      <!-- 225° -->
      <g transform="translate(60.014505 337.742057)scale(0.1 -0.1)">
       <defs>
        <path id="DejaVuSans-32" d="M 1228 531 
L 3431 531 
L 3431 0 
L 469 0 
L 469 531 
Q 828 903 1448 1529 
Q 2069 2156 2228 2338 
Q 2531 2678 2651 2914 
Q 2772 3150 2772 3378 
Q 2772 3750 2511 3984 
Q 2250 4219 1831 4219 
Q 1534 4219 1204 4116 
Q 875 4013 500 3803 
L 500 4441 
Q 881 4594 1212 4672 
Q 1544 4750 1819 4750 
Q 2544 4750 2975 4387 
Q 3406 4025 3406 3419 
Q 3406 3131 3298 2873 
Q 3191 2616 2906 2266 
Q 2828 2175 2409 1742 
Q 1991 1309 1228 531 
z
" transform="scale(0.015625)"/>
       </defs>
       <use xlink:href="#DejaVuSans-32"/>
       <use xlink:href="#DejaVuSans-32" x="63.623047"/>
       <use xlink:href="#DejaVuSans-35" x="127.246094"/>
       <use xlink:href="#DejaVuSans-b0" x="190.869141"/>
      </g>
     </g>
    </g>
    <g id="xtick_7">
     <g id="line2d_7">
      <path d="M 199.56375 207.477187 
L 199.56375 373.797188 
" clip-path="url(#p0c2ecec5c9)" style="fill: none; stroke: #b0b0b0; stroke-width: 0.8; stroke-linecap: square"/>
     </g>
     <g id="text_7">
      <!-- 270° -->
      <g transform="translate(187.52 390.556562)scale(0.1 -0.1)">
       <defs>
        <path id="DejaVuSans-37" d="M 525 4666 
L 3525 4666 
L 3525 4397 
L 1831 0 
L 1172 0 
L 2766 4134 
L 525 4134 
L 525 4666 
z
" transform="scale(0.015625)"/>
       </defs>
       <use xlink:href="#DejaVuSans-32"/>
       <use xlink:href="#DejaVuSans-37" x="63.623047"/>
       <use xlink:href="#DejaVuSans-30" x="127.246094"/>
       <use xlink:href="#DejaVuSans-b0" x="190.869141"/>
      </g>
     </g>
    </g>
    <g id="xtick_8">
     <g id="line2d_8">
      <path d="M 199.56375 207.477187 
L 317.16975 325.083187 
" clip-path="url(#p0c2ecec5c9)" style="fill: none; stroke: #b0b0b0; stroke-width: 0.8; stroke-linecap: square"/>
     </g>
     <g id="text_8">
      <!-- 315° -->
      <g transform="translate(315.025495 337.742057)scale(0.1 -0.1)">
       <use xlink:href="#DejaVuSans-33"/>
       <use xlink:href="#DejaVuSans-31" x="63.623047"/>
       <use xlink:href="#DejaVuSans-35" x="127.246094"/>
       <use xlink:href="#DejaVuSans-b0" x="190.869141"/>
      </g>
     </g>
    </g>
   </g>
   <g id="matplotlib.axis_2">
    <g id="ytick_1">
     <g id="line2d_9">
      <path d="M 206.7624 207.477187 
C 206.7624 206.531869 206.576193 205.595743 206.214435 204.722383 
C 205.852678 203.849023 205.322405 203.055414 204.653964 202.386973 
C 203.985523 201.718533 203.191914 201.18826 202.318554 200.826502 
C 201.445194 200.464745 200.509068 200.278538 199.56375 200.278538 
C 198.618432 200.278538 197.682306 200.464745 196.808946 200.826502 
C 195.935586 201.18826 195.141977 201.718533 194.473536 202.386973 
C 193.805095 203.055414 193.274822 203.849023 192.913065 204.722383 
C 192.551307 205.595743 192.3651 206.531869 192.3651 207.477187 
C 192.3651 208.422506 192.551307 209.358632 192.913065 210.231992 
C 193.274822 211.105352 193.805095 211.898961 194.473536 212.567402 
C 195.141977 213.235842 195.935586 213.766115 196.808946 214.127873 
C 197.682306 214.48963 198.618432 214.675837 199.56375 214.675837 
C 200.509068 214.675837 201.445194 214.48963 202.318554 214.127873 
C 203.191914 213.766115 203.985523 213.235842 204.653964 212.567402 
C 205.322405 211.898961 205.852678 211.105352 206.214435 210.231992 
C 206.576193 209.358632 206.7624 208.422506 206.7624 207.477187 
" clip-path="url(#p0c2ecec5c9)" style="fill: none; stroke: #b0b0b0; stroke-width: 0.8; stroke-linecap: square"/>
     </g>
     <g id="text_9">
      <!-- −30 -->
      <g transform="translate(206.214435 202.642696)scale(0.1 -0.1)">
       <defs>
        <path id="DejaVuSans-2212" d="M 678 2272 
L 4684 2272 
L 4684 1741 
L 678 1741 
L 678 2272 
z
" transform="scale(0.015625)"/>
       </defs>
       <use xlink:href="#DejaVuSans-2212"/>
       <use xlink:href="#DejaVuSans-33" x="83.789062"/>
       <use xlink:href="#DejaVuSans-30" x="147.412109"/>
      </g>
     </g>
    </g>
    <g id="ytick_2">
     <g id="line2d_10">
      <path d="M 222.674535 207.477187 
C 222.674535 204.442307 222.07673 201.436937 220.915331 198.633073 
C 219.753933 195.829209 218.051527 193.281379 215.905543 191.135395 
C 213.759558 188.98941 211.211728 187.287005 208.407864 186.125606 
C 205.604001 184.964208 202.59863 184.366403 199.56375 184.366403 
C 196.52887 184.366403 193.523499 184.964208 190.719636 186.125606 
C 187.915772 187.287005 185.367942 188.98941 183.221957 191.135395 
C 181.075973 193.281379 179.373567 195.829209 178.212169 198.633073 
C 177.05077 201.436937 176.452965 204.442307 176.452965 207.477187 
C 176.452965 210.512068 177.05077 213.517438 178.212169 216.321302 
C 179.373567 219.125166 181.075973 221.672996 183.221957 223.81898 
C 185.367942 225.964965 187.915772 227.66737 190.719636 228.828769 
C 193.523499 229.990167 196.52887 230.587972 199.56375 230.587972 
C 202.59863 230.587972 205.604001 229.990167 208.407864 228.828769 
C 211.211728 227.66737 213.759558 225.964965 215.905543 223.81898 
C 218.051527 221.672996 219.753933 219.125166 220.915331 216.321302 
C 222.07673 213.517438 222.674535 210.512068 222.674535 207.477187 
" clip-path="url(#p0c2ecec5c9)" style="fill: none; stroke: #b0b0b0; stroke-width: 0.8; stroke-linecap: square"/>
     </g>
     <g id="text_10">
      <!-- −27 -->
      <g transform="translate(220.915331 196.553386)scale(0.1 -0.1)">
       <use xlink:href="#DejaVuSans-2212"/>
       <use xlink:href="#DejaVuSans-32" x="83.789062"/>
       <use xlink:href="#DejaVuSans-37" x="147.412109"/>
      </g>
     </g>
    </g>
    <g id="ytick_3">
     <g id="line2d_11">
      <path d="M 238.58667 207.477187 
C 238.58667 202.352745 237.577266 197.27813 235.616227 192.543763 
C 233.655188 187.809395 230.78065 183.507345 227.157121 179.883816 
C 223.533593 176.260288 219.231543 173.38575 214.497175 171.424711 
C 209.762807 169.463671 204.688193 168.454268 199.56375 168.454268 
C 194.439307 168.454268 189.364693 169.463671 184.630325 171.424711 
C 179.895957 173.38575 175.593907 176.260288 171.970379 179.883816 
C 168.34685 183.507345 165.472312 187.809395 163.511273 192.543763 
C 161.550234 197.27813 160.54083 202.352745 160.54083 207.477187 
C 160.54083 212.60163 161.550234 217.676245 163.511273 222.410612 
C 165.472312 227.14498 168.34685 231.44703 171.970379 235.070559 
C 175.593907 238.694087 179.895957 241.568625 184.630325 243.529664 
C 189.364693 245.490704 194.439307 246.500107 199.56375 246.500107 
C 204.688193 246.500107 209.762807 245.490704 214.497175 243.529664 
C 219.231543 241.568625 223.533593 238.694087 227.157121 235.070559 
C 230.78065 231.44703 233.655188 227.14498 235.616227 222.410612 
C 237.577266 217.676245 238.58667 212.60163 238.58667 207.477187 
" clip-path="url(#p0c2ecec5c9)" style="fill: none; stroke: #b0b0b0; stroke-width: 0.8; stroke-linecap: square"/>
     </g>
     <g id="text_11">
      <!-- −24 -->
      <g transform="translate(235.616227 190.464075)scale(0.1 -0.1)">
       <use xlink:href="#DejaVuSans-2212"/>
       <use xlink:href="#DejaVuSans-32" x="83.789062"/>
       <use xlink:href="#DejaVuSans-34" x="147.412109"/>
      </g>
     </g>
    </g>
    <g id="ytick_4">
     <g id="line2d_12">
      <path d="M 254.498805 207.477187 
C 254.498805 200.263182 253.077803 193.119324 250.317123 186.454452 
C 247.556443 179.78958 243.509772 173.73331 238.4087 168.632238 
C 233.307628 163.531166 227.251357 159.484495 220.586485 156.723815 
C 213.921614 153.963134 206.777755 152.542133 199.56375 152.542133 
C 192.349745 152.542133 185.205886 153.963134 178.541015 156.723815 
C 171.876143 159.484495 165.819872 163.531166 160.7188 168.632238 
C 155.617728 173.73331 151.571057 179.78958 148.810377 186.454452 
C 146.049697 193.119324 144.628695 200.263182 144.628695 207.477187 
C 144.628695 214.691193 146.049697 221.835051 148.810377 228.499923 
C 151.571057 235.164795 155.617728 241.221065 160.7188 246.322137 
C 165.819872 251.423209 171.876143 255.46988 178.541015 258.23056 
C 185.205886 260.991241 192.349745 262.412242 199.56375 262.412242 
C 206.777755 262.412242 213.921614 260.991241 220.586485 258.23056 
C 227.251357 255.46988 233.307628 251.423209 238.4087 246.322137 
C 243.509772 241.221065 247.556443 235.164795 250.317123 228.499923 
C 253.077803 221.835051 254.498805 214.691193 254.498805 207.477187 
" clip-path="url(#p0c2ecec5c9)" style="fill: none; stroke: #b0b0b0; stroke-width: 0.8; stroke-linecap: square"/>
     </g>
     <g id="text_12">
      <!-- −21 -->
      <g transform="translate(250.317123 184.374765)scale(0.1 -0.1)">
       <use xlink:href="#DejaVuSans-2212"/>
       <use xlink:href="#DejaVuSans-32" x="83.789062"/>
       <use xlink:href="#DejaVuSans-31" x="147.412109"/>
      </g>
     </g>
    </g>
    <g id="ytick_5">
     <g id="line2d_13">
      <path d="M 270.41094 207.477187 
C 270.41094 198.17362 268.57834 188.960517 265.018019 180.365142 
C 261.457697 171.769766 256.238894 163.959275 249.660278 157.380659 
C 243.081663 150.802043 235.271172 145.58324 226.675796 142.022919 
C 218.08042 138.462598 208.867318 136.629998 199.56375 136.629998 
C 190.260182 136.629998 181.04708 138.462598 172.451704 142.022919 
C 163.856328 145.58324 156.045837 150.802043 149.467222 157.380659 
C 142.888606 163.959275 137.669803 171.769766 134.109481 180.365142 
C 130.54916 188.960517 128.71656 198.17362 128.71656 207.477187 
C 128.71656 216.780755 130.54916 225.993858 134.109481 234.589233 
C 137.669803 243.184609 142.888606 250.9951 149.467222 257.573716 
C 156.045837 264.152332 163.856328 269.371135 172.451704 272.931456 
C 181.04708 276.491777 190.260182 278.324377 199.56375 278.324377 
C 208.867318 278.324377 218.08042 276.491777 226.675796 272.931456 
C 235.271172 269.371135 243.081663 264.152332 249.660278 257.573716 
C 256.238894 250.9951 261.457697 243.184609 265.018019 234.589233 
C 268.57834 225.993858 270.41094 216.780755 270.41094 207.477188 
" clip-path="url(#p0c2ecec5c9)" style="fill: none; stroke: #b0b0b0; stroke-width: 0.8; stroke-linecap: square"/>
     </g>
     <g id="text_13">
      <!-- −18 -->
      <g transform="translate(265.018019 178.285454)scale(0.1 -0.1)">
       <use xlink:href="#DejaVuSans-2212"/>
       <use xlink:href="#DejaVuSans-31" x="83.789062"/>
       <use xlink:href="#DejaVuSans-38" x="147.412109"/>
      </g>
     </g>
    </g>
    <g id="ytick_6">
     <g id="line2d_14">
      <path d="M 286.323075 207.477187 
C 286.323075 196.084057 284.078877 184.801711 279.718915 174.275831 
C 275.358952 163.749951 268.968017 154.18524 260.911857 146.129081 
C 252.855697 138.072921 243.290986 131.681985 232.765106 127.322023 
C 222.239226 122.962061 210.95688 120.717863 199.56375 120.717863 
C 188.17062 120.717863 176.888274 122.962061 166.362394 127.322023 
C 155.836514 131.681985 146.271803 138.072921 138.215643 146.129081 
C 130.159483 154.18524 123.768548 163.749951 119.408585 174.275831 
C 115.048623 184.801711 112.804425 196.084057 112.804425 207.477187 
C 112.804425 218.870318 115.048623 230.152664 119.408585 240.678544 
C 123.768548 251.204424 130.159483 260.769135 138.215643 268.825294 
C 146.271803 276.881454 155.836514 283.27239 166.362394 287.632352 
C 176.888274 291.992314 188.17062 294.236512 199.56375 294.236512 
C 210.95688 294.236512 222.239226 291.992314 232.765106 287.632352 
C 243.290986 283.27239 252.855697 276.881454 260.911857 268.825294 
C 268.968017 260.769135 275.358952 251.204424 279.718915 240.678544 
C 284.078877 230.152664 286.323075 218.870318 286.323075 207.477188 
" clip-path="url(#p0c2ecec5c9)" style="fill: none; stroke: #b0b0b0; stroke-width: 0.8; stroke-linecap: square"/>
     </g>
     <g id="text_14">
      <!-- −15 -->
      <g transform="translate(279.718915 172.196144)scale(0.1 -0.1)">
       <use xlink:href="#DejaVuSans-2212"/>
       <use xlink:href="#DejaVuSans-31" x="83.789062"/>
       <use xlink:href="#DejaVuSans-35" x="147.412109"/>
      </g>
     </g>
    </g>
    <g id="ytick_7">
     <g id="line2d_15">
      <path d="M 302.23521 207.477187 
C 302.23521 193.994495 299.579413 180.642905 294.41981 168.186521 
C 289.260207 155.730137 281.697139 144.411205 272.163436 134.877502 
C 262.629732 125.343799 251.3108 117.78073 238.854417 112.621127 
C 226.398033 107.461524 213.046443 104.805728 199.56375 104.805728 
C 186.081057 104.805728 172.729467 107.461524 160.273083 112.621127 
C 147.8167 117.78073 136.497768 125.343799 126.964064 134.877502 
C 117.430361 144.411205 109.867293 155.730137 104.70769 168.186521 
C 99.548087 180.642905 96.89229 193.994495 96.89229 207.477187 
C 96.89229 220.95988 99.548087 234.31147 104.70769 246.767854 
C 109.867293 259.224238 117.430361 270.54317 126.964064 280.076873 
C 136.497768 289.610576 147.8167 297.173645 160.273083 302.333248 
C 172.729467 307.492851 186.081057 310.148647 199.56375 310.148647 
C 213.046443 310.148647 226.398033 307.492851 238.854417 302.333248 
C 251.3108 297.173645 262.629732 289.610576 272.163436 280.076873 
C 281.697139 270.54317 289.260207 259.224238 294.41981 246.767854 
C 299.579413 234.31147 302.23521 220.95988 302.23521 207.477188 
" clip-path="url(#p0c2ecec5c9)" style="fill: none; stroke: #b0b0b0; stroke-width: 0.8; stroke-linecap: square"/>
     </g>
     <g id="text_15">
      <!-- −12 -->
      <g transform="translate(294.41981 166.106833)scale(0.1 -0.1)">
       <use xlink:href="#DejaVuSans-2212"/>
       <use xlink:href="#DejaVuSans-31" x="83.789062"/>
       <use xlink:href="#DejaVuSans-32" x="147.412109"/>
      </g>
     </g>
    </g>
    <g id="ytick_8">
     <g id="line2d_16">
      <path d="M 318.147345 207.477187 
C 318.147345 191.904932 315.07995 176.484098 309.120706 162.09721 
C 303.161462 147.710323 294.426261 134.63717 283.415014 123.625923 
C 272.403767 112.614676 259.330615 103.879475 244.943727 97.920231 
C 230.556839 91.960987 215.136005 88.893593 199.56375 88.893593 
C 183.991495 88.893593 168.570661 91.960987 154.183773 97.920231 
C 139.796885 103.879475 126.723733 112.614676 115.712486 123.625923 
C 104.701239 134.63717 95.966038 147.710323 90.006794 162.09721 
C 84.04755 176.484098 80.980155 191.904932 80.980155 207.477187 
C 80.980155 223.049443 84.04755 238.470277 90.006794 252.857165 
C 95.966038 267.244052 104.701239 280.317205 115.712486 291.328452 
C 126.723733 302.339699 139.796885 311.0749 154.183773 317.034144 
C 168.570661 322.993388 183.991495 326.060782 199.56375 326.060782 
C 215.136005 326.060782 230.556839 322.993388 244.943727 317.034144 
C 259.330615 311.0749 272.403767 302.339699 283.415014 291.328452 
C 294.426261 280.317205 303.161462 267.244052 309.120706 252.857165 
C 315.07995 238.470277 318.147345 223.049443 318.147345 207.477188 
" clip-path="url(#p0c2ecec5c9)" style="fill: none; stroke: #b0b0b0; stroke-width: 0.8; stroke-linecap: square"/>
     </g>
     <g id="text_16">
      <!-- −9 -->
      <g transform="translate(309.120706 160.017523)scale(0.1 -0.1)">
       <use xlink:href="#DejaVuSans-2212"/>
       <use xlink:href="#DejaVuSans-39" x="83.789062"/>
      </g>
     </g>
    </g>
    <g id="ytick_9">
     <g id="line2d_17">
      <path d="M 334.05948 207.477187 
C 334.05948 189.81537 330.580487 172.325292 323.821602 156.0079 
C 317.062717 139.690508 307.155384 124.863136 294.666593 112.374345 
C 282.177802 99.885554 267.350429 89.97822 251.033038 83.219335 
C 234.715646 76.46045 217.225567 72.981458 199.56375 72.981458 
C 181.901933 72.981458 164.411854 76.46045 148.094462 83.219335 
C 131.777071 89.97822 116.949698 99.885554 104.460907 112.374345 
C 91.972116 124.863136 82.064783 139.690508 75.305898 156.0079 
C 68.547013 172.325292 65.06802 189.81537 65.06802 207.477187 
C 65.06802 225.139005 68.547013 242.629083 75.305898 258.946475 
C 82.064783 275.263867 91.972116 290.091239 104.460907 302.58003 
C 116.949698 315.068821 131.777071 324.976155 148.094462 331.73504 
C 164.411854 338.493925 181.901933 341.972917 199.56375 341.972917 
C 217.225567 341.972917 234.715646 338.493925 251.033038 331.73504 
C 267.350429 324.976155 282.177802 315.068821 294.666593 302.58003 
C 307.155384 290.091239 317.062717 275.263867 323.821602 258.946475 
C 330.580487 242.629083 334.05948 225.139005 334.05948 207.477188 
" clip-path="url(#p0c2ecec5c9)" style="fill: none; stroke: #b0b0b0; stroke-width: 0.8; stroke-linecap: square"/>
     </g>
     <g id="text_17">
      <!-- −6 -->
      <g transform="translate(323.821602 153.928212)scale(0.1 -0.1)">
       <defs>
        <path id="DejaVuSans-36" d="M 2113 2584 
Q 1688 2584 1439 2293 
Q 1191 2003 1191 1497 
Q 1191 994 1439 701 
Q 1688 409 2113 409 
Q 2538 409 2786 701 
Q 3034 994 3034 1497 
Q 3034 2003 2786 2293 
Q 2538 2584 2113 2584 
z
M 3366 4563 
L 3366 3988 
Q 3128 4100 2886 4159 
Q 2644 4219 2406 4219 
Q 1781 4219 1451 3797 
Q 1122 3375 1075 2522 
Q 1259 2794 1537 2939 
Q 1816 3084 2150 3084 
Q 2853 3084 3261 2657 
Q 3669 2231 3669 1497 
Q 3669 778 3244 343 
Q 2819 -91 2113 -91 
Q 1303 -91 875 529 
Q 447 1150 447 2328 
Q 447 3434 972 4092 
Q 1497 4750 2381 4750 
Q 2619 4750 2861 4703 
Q 3103 4656 3366 4563 
z
" transform="scale(0.015625)"/>
       </defs>
       <use xlink:href="#DejaVuSans-2212"/>
       <use xlink:href="#DejaVuSans-36" x="83.789062"/>
      </g>
     </g>
    </g>
    <g id="ytick_10">
     <g id="line2d_18">
      <path d="M 349.971615 207.477187 
C 349.971615 187.725808 346.081024 168.166485 338.522498 149.918589 
C 330.963972 131.670694 319.884506 115.089101 305.918171 101.122766 
C 291.951837 87.156432 275.370244 76.076965 257.122348 68.51844 
C 238.874452 60.959914 219.31513 57.069323 199.56375 57.069323 
C 179.81237 57.069323 160.253048 60.959914 142.005152 68.51844 
C 123.757256 76.076965 107.175663 87.156432 93.209329 101.122766 
C 79.242994 115.089101 68.163528 131.670694 60.605002 149.918589 
C 53.046476 168.166485 49.155885 187.725808 49.155885 207.477187 
C 49.155885 227.228567 53.046476 246.78789 60.605002 265.035786 
C 68.163528 283.283681 79.242994 299.865274 93.209329 313.831609 
C 107.175663 327.797943 123.757256 338.87741 142.005152 346.435935 
C 160.253048 353.994461 179.81237 357.885052 199.56375 357.885052 
C 219.31513 357.885052 238.874452 353.994461 257.122348 346.435935 
C 275.370244 338.87741 291.951837 327.797943 305.918171 313.831609 
C 319.884506 299.865274 330.963972 283.283681 338.522498 265.035786 
C 346.081024 246.78789 349.971615 227.228567 349.971615 207.477188 
" clip-path="url(#p0c2ecec5c9)" style="fill: none; stroke: #b0b0b0; stroke-width: 0.8; stroke-linecap: square"/>
     </g>
     <g id="text_18">
      <!-- −3 -->
      <g transform="translate(338.522498 147.838902)scale(0.1 -0.1)">
       <use xlink:href="#DejaVuSans-2212"/>
       <use xlink:href="#DejaVuSans-33" x="83.789062"/>
      </g>
     </g>
    </g>
   </g>
   <g id="line2d_19">
    <path d="M 123.259713 208.809079 
L 131.176016 211.061237 
L 132.709332 212.152104 
L 132.737697 213.32371 
L 131.183014 214.664292 
L 125.398439 217.900442 
L 121.657349 219.816349 
L 118.766154 221.723984 
L 115.158601 223.883886 
L 111.670451 226.159485 
L 109.193273 228.340856 
L 105.978907 230.81051 
L 103.059982 233.335294 
L 98.639511 238.332824 
L 97.02932 240.792643 
L 95.229332 247.527418 
L 95.147508 249.664088 
L 94.635133 252.016743 
L 94.691923 254.169133 
L 94.984387 256.243345 
L 95.885162 260.304067 
L 96.996187 262.013328 
L 98.515639 263.48907 
L 101.709513 266.273945 
L 104.171956 267.084596 
L 106.289932 268.049913 
L 108.627687 268.814337 
L 111.515118 269.129504 
L 113.904701 269.712129 
L 116.931276 269.745223 
L 121.290712 268.630787 
L 124.439163 268.311879 
L 128.514973 267.09419 
L 133.905521 264.553015 
L 137.879712 263.017745 
L 143.179777 260.056093 
L 149.798585 255.534848 
L 153.817832 253.223106 
L 158.93404 249.550484 
L 161.031014 248.798487 
L 161.154692 250.134768 
L 157.315208 256.078576 
L 153.744485 262.082461 
L 151.20963 267.189552 
L 146.492253 275.405606 
L 144.318234 280.790464 
L 142.72856 285.704116 
L 140.494326 291.837068 
L 138.393584 305.369917 
L 139.00959 312.36007 
L 139.167542 316.434832 
L 139.995121 319.509485 
L 140.647074 323.107675 
L 141.413851 326.702148 
L 142.71219 329.39575 
L 143.821723 332.67583 
L 145.287799 335.343316 
L 146.945466 337.71201 
L 148.564913 340.3337 
L 150.455965 342.399719 
L 154.509489 346.139944 
L 156.723897 347.600033 
L 159.016545 348.882094 
L 161.405464 349.88585 
L 166.392734 351.156644 
L 174.120819 351.771219 
L 176.777389 351.344607 
L 179.370678 351.158362 
L 184.595309 349.892393 
L 187.140861 349.471455 
L 189.691563 348.656033 
L 192.190566 348.165914 
L 194.661114 347.870304 
L 197.123722 347.266277 
L 201.996742 346.863231 
L 204.416036 346.428483 
L 209.246871 345.952268 
L 216.511854 345.508414 
L 218.909391 345.128577 
L 223.731965 344.541944 
L 228.434567 343.303701 
L 230.748171 342.551753 
L 232.991728 341.549485 
L 235.277101 340.761227 
L 241.834921 337.574473 
L 247.817832 333.183369 
L 249.525508 331.136878 
L 251.311306 329.386789 
L 252.924063 327.326413 
L 254.164757 324.569425 
L 255.481514 322.125594 
L 256.404742 319.033916 
L 256.809118 315.140066 
L 257.499079 311.995287 
L 257.749654 308.25813 
L 257.827636 300.718897 
L 257.4759 296.654078 
L 256.973936 292.591288 
L 256.917331 289.38659 
L 256.068471 285.249263 
L 255.48279 281.68426 
L 255.087635 278.544519 
L 254.323384 275.099703 
L 253.740932 269.800907 
L 253.936654 267.864415 
L 254.396265 266.277861 
L 256.219949 264.133386 
L 256.902505 262.848579 
L 258.205379 262.161391 
L 259.158701 261.136723 
L 261.677695 259.596976 
L 262.940588 258.798739 
L 264.023063 257.838323 
L 264.773561 256.616305 
L 266.75725 254.526582 
L 268.056236 253.675953 
L 270.146553 253.314195 
L 271.803899 252.617843 
L 274.685718 252.61502 
L 277.313195 252.365851 
L 281.394131 250.987173 
L 282.91135 249.944911 
L 283.820975 248.572182 
L 284.957988 247.297174 
L 286.84629 242.741623 
L 287.904007 241.387835 
L 289.593845 240.245462 
L 291.470982 239.123385 
L 294.746164 236.577372 
L 296.47339 235.26558 
L 297.630129 233.753995 
L 298.557557 232.159116 
L 299.618046 228.744385 
L 302.532299 223.785804 
L 304.503028 222.225441 
L 307.148203 218.784769 
L 308.216851 216.983102 
L 308.620178 215.103156 
L 308.646614 213.193978 
L 307.987658 211.263434 
L 307.502127 207.477187 
L 307.528113 205.592663 
L 307.35156 203.713154 
L 306.803336 201.856999 
L 305.863502 200.043985 
L 304.777057 198.272216 
L 298.935456 193.511405 
L 296.224852 192.167573 
L 294.402019 190.754642 
L 292.36193 189.439049 
L 289.885098 188.278792 
L 288.37346 186.97385 
L 286.65372 185.763219 
L 284.340252 184.761392 
L 282.472703 183.703428 
L 279.361928 183.080436 
L 274.868257 183.00927 
L 271.852016 182.586341 
L 267.249802 182.841479 
L 260.600043 184.04755 
L 258.013082 183.862124 
L 253.246705 184.690125 
L 248.295774 185.780293 
L 244.61202 186.470834 
L 237.898113 188.780269 
L 230.263022 191.154095 
L 221.33297 194.908722 
L 216.863917 197.082199 
L 212.105311 199.64035 
L 206.206021 203.163646 
L 213.995452 196.991943 
L 220.363351 191.803564 
L 227.313246 185.796905 
L 231.534939 181.587429 
L 235.324207 177.470601 
L 238.794084 173.374779 
L 241.839317 168.054584 
L 242.140681 166.361123 
L 241.697911 165.343026 
L 240.205401 163.894353 
L 238.67198 164.043098 
L 237.07285 164.327904 
L 235.741304 164.362458 
L 234.629516 164.174573 
L 231.258292 165.417109 
L 230.338592 165.119251 
L 229.780236 164.323573 
L 229.414009 163.222358 
L 230.867256 159.274016 
L 233.385653 153.350828 
L 239.640344 135.177097 
L 243.469839 117.456364 
L 243.678616 112.872551 
L 244.301137 106.995371 
L 244.472203 101.679503 
L 244.001842 97.48905 
L 243.907887 91.956761 
L 243.113163 87.826159 
L 241.912829 84.486532 
L 240.840023 80.441881 
L 237.681122 74.546113 
L 236.001933 71.488038 
L 231.913879 67.353386 
L 229.757894 65.424907 
L 225.048128 62.9481 
L 222.611477 61.959564 
L 220.069073 61.574236 
L 217.566779 60.854282 
L 215.026737 60.356692 
L 209.877706 59.980739 
L 204.711284 60.071094 
L 199.56375 60.410871 
L 194.426027 60.352037 
L 191.831362 59.934433 
L 189.227964 59.668563 
L 186.563014 58.878093 
L 183.885646 58.309997 
L 181.160599 57.59555 
L 178.335011 56.426859 
L 175.526978 55.714982 
L 172.598344 54.548768 
L 169.631888 53.491106 
L 166.720745 52.962997 
L 163.690248 52.091979 
L 160.634845 51.341878 
L 157.650889 51.056261 
L 154.558929 50.526724 
L 151.514919 50.316542 
L 145.605206 50.770196 
L 142.744267 51.366941 
L 139.959993 52.204091 
L 134.579421 54.383703 
L 132.021022 55.773736 
L 127.181668 59.071926 
L 124.956637 61.052483 
L 122.962848 63.411844 
L 120.933375 65.624236 
L 119.156549 68.207831 
L 117.604186 71.073567 
L 115.95283 73.671745 
L 113.641557 80.092298 
L 112.310688 82.866901 
L 110.085236 92.949913 
L 110.112868 97.014547 
L 109.732871 100.420915 
L 109.593688 103.978471 
L 110.306753 108.34725 
L 110.565365 112.038104 
L 111.212405 115.986692 
L 112.910843 120.82428 
L 113.956618 124.807341 
L 115.692241 129.26574 
L 118.415727 134.41118 
L 119.786892 138.128223 
L 122.208988 142.568836 
L 125.045099 147.133174 
L 126.669914 150.526281 
L 128.465901 153.901115 
L 129.425474 156.518747 
L 129.454877 158.386426 
L 128.573625 159.593743 
L 124.485309 160.562971 
L 121.41839 160.522718 
L 118.529997 160.692328 
L 116.450099 161.406538 
L 113.827585 161.89046 
L 111.929723 162.825421 
L 110.129298 163.857091 
L 107.953936 164.758829 
L 106.166034 165.893845 
L 102.942261 168.439572 
L 101.740887 169.926509 
L 100.771481 171.519742 
L 99.557175 173.042162 
L 99.465788 174.953388 
L 96.256221 179.796018 
L 95.505795 181.532625 
L 95.523641 183.457636 
L 95.291497 185.313436 
L 95.493293 187.24794 
L 96.106765 189.23493 
L 96.474709 191.149488 
L 97.460783 193.127551 
L 99.73353 196.984609 
L 102.239248 198.962397 
L 104.163715 200.806167 
L 107.303446 202.64203 
L 114.737411 205.996538 
L 120.049751 207.477187 
L 120.049751 207.477187 
" clip-path="url(#p0c2ecec5c9)" style="fill: none; stroke: #ff0000; stroke-width: 1.5; stroke-linecap: square"/>
   </g>
   <g id="line2d_20">
    <path d="M 199.56375 65.190876 
L 194.562433 64.258207 
L 189.508714 63.683468 
L 184.4307 63.495838 
L 179.359236 63.7146 
L 174.327039 64.352689 
L 169.36729 65.414012 
L 164.513595 66.898694 
L 159.798858 68.800528 
L 155.255417 71.110159 
L 150.914385 73.814156 
L 146.804394 76.8932 
L 144.844293 78.566226 
L 141.131872 82.169621 
L 137.714147 86.090507 
L 134.608357 90.294557 
L 131.82586 94.742406 
L 129.38002 99.403721 
L 127.266513 104.226032 
L 125.475539 109.158811 
L 123.985362 114.145651 
L 122.764605 119.129877 
L 121.761063 124.04402 
L 120.164881 133.436544 
L 119.04787 139.916342 
L 118.218673 143.923448 
L 117.268894 147.686475 
L 116.173372 151.229668 
L 114.940372 154.598632 
L 112.868774 159.421377 
L 109.86716 165.650981 
L 105.329524 175.029741 
L 102.475924 181.462583 
L 99.80956 188.086937 
L 97.954511 193.19694 
L 96.252633 198.438636 
L 94.765599 203.817555 
L 93.922025 207.477187 
L 93.228363 211.190501 
L 92.713721 214.948869 
L 92.406571 218.739861 
L 92.339667 222.54655 
L 92.533915 226.349435 
L 93.019092 230.123954 
L 93.828038 233.840061 
L 94.985852 237.464417 
L 96.519831 240.958186 
L 97.435799 242.642661 
L 98.453841 244.278185 
L 99.581923 245.856615 
L 100.822678 247.37117 
L 102.17844 248.814799 
L 103.651227 250.180194 
L 105.252347 251.455317 
L 106.978149 252.634202 
L 108.834234 253.706185 
L 110.835024 254.655088 
L 112.975471 255.473854 
L 115.264062 256.147635 
L 117.708484 256.660793 
L 120.311086 256.999748 
L 123.069095 257.153397 
L 126.014424 257.086835 
L 129.107291 256.811331 
L 132.339106 256.31875 
L 135.700987 255.601232 
L 139.100177 254.716508 
L 148.620599 251.761393 
L 150.820226 251.366054 
L 152.059112 251.775979 
L 152.190848 253.224667 
L 151.30873 255.732208 
L 147.487656 263.321961 
L 145.240533 267.809232 
L 143.030766 272.510947 
L 140.96956 277.307025 
L 139.206385 282.012326 
L 137.701537 286.657209 
L 136.481741 291.189841 
L 135.539283 295.599306 
L 134.866116 299.874984 
L 134.444971 304.019748 
L 134.262075 308.032948 
L 134.303992 311.914631 
L 134.554913 315.670061 
L 135.005036 319.296161 
L 135.639509 322.79957 
L 136.44673 326.183037 
L 137.417965 329.445159 
L 138.542303 332.589694 
L 139.812026 335.615173 
L 141.218234 338.523362 
L 142.752978 341.314978 
L 144.408752 343.990597 
L 146.178649 346.55013 
L 148.055742 348.994277 
L 150.03452 351.320517 
L 152.106657 353.535102 
L 154.267505 355.63453 
L 156.512151 357.615954 
L 158.834232 359.481817 
L 161.22895 361.229671 
L 163.690248 362.862396 
L 166.212367 364.38311 
L 168.791879 365.784742 
L 171.423099 367.070747 
L 174.100663 368.244793 
L 176.821003 369.300243 
L 179.578211 370.246344 
L 185.188199 371.790486 
L 188.031782 372.392018 
L 193.774445 373.261203 
L 199.56375 373.691107 
L 205.368234 373.69587 
L 211.158247 373.286218 
L 216.906788 372.48517 
L 222.588482 371.30667 
L 228.181498 369.776502 
L 233.668327 367.926609 
L 239.031584 365.774024 
L 244.263015 363.362048 
L 249.356475 360.723439 
L 254.3061 357.880557 
L 259.118407 354.880137 
L 263.797104 351.747663 
L 268.346515 348.502755 
L 274.951524 343.480332 
L 281.305544 338.291403 
L 287.41614 332.943404 
L 291.348708 329.279941 
L 295.153111 325.520217 
L 298.814349 321.651941 
L 302.313853 317.663183 
L 305.629006 313.542443 
L 308.73574 309.281715 
L 311.608901 304.876551 
L 314.222604 300.326096 
L 316.551232 295.633578 
L 318.568785 290.80541 
L 320.249613 285.851503 
L 321.567387 280.784368 
L 322.498768 275.621181 
L 323.01094 270.376673 
L 323.103066 267.731338 
L 323.078269 265.072954 
L 322.935644 262.405894 
L 322.664657 259.730422 
L 322.269382 257.053481 
L 321.744284 254.3779 
L 321.073875 251.703256 
L 320.262517 249.037106 
L 319.299743 246.38177 
L 318.175041 243.740298 
L 316.882987 241.117937 
L 315.418275 238.520314 
L 313.760295 235.949584 
L 311.909 233.414132 
L 309.83868 230.916847 
L 307.539153 228.46548 
L 304.989982 226.066677 
L 302.165587 223.727722 
L 299.045757 221.458472 
L 295.589455 219.267662 
L 291.750511 217.166407 
L 287.519965 215.172359 
L 282.825945 213.299447 
L 277.6181 211.567843 
L 271.846709 210.001364 
L 265.515868 208.628386 
L 258.736737 207.477188 
L 251.833516 206.564815 
L 245.60768 205.869298 
L 241.652991 205.271384 
L 241.502262 204.544561 
L 245.090558 203.494108 
L 251.027597 202.068119 
L 257.716574 200.336918 
L 264.306208 198.378228 
L 270.424041 196.25402 
L 275.910954 194.015116 
L 280.870975 191.672664 
L 285.25209 189.263569 
L 289.210693 186.78056 
L 292.705995 184.254218 
L 295.831846 181.682229 
L 298.609693 179.07622 
L 301.081446 176.440113 
L 303.273536 173.779835 
L 305.202252 171.102934 
L 306.89889 168.410392 
L 308.3696 165.710535 
L 309.63549 163.005318 
L 310.707661 160.299396 
L 311.597206 157.596679 
L 312.319985 154.898091 
L 312.872561 152.212788 
L 313.27078 149.540562 
L 313.520841 146.885128 
L 313.628958 144.24981 
L 313.59676 141.640198 
L 313.435145 139.056351 
L 313.145801 136.503245 
L 312.735021 133.982905 
L 312.204652 131.49994 
L 311.561026 129.05585 
L 310.806114 126.654879 
L 309.946251 124.298007 
L 308.983499 121.98911 
L 306.758169 117.53039 
L 304.156847 113.30114 
L 301.213921 109.314758 
L 297.950197 105.595039 
L 294.395316 102.156063 
L 290.577341 99.011414 
L 286.527179 96.169075 
L 282.278465 93.630149 
L 277.863363 91.393237 
L 273.31749 89.44653 
L 268.683943 87.757502 
L 264.000522 86.289246 
L 256.957773 84.395307 
L 243.173413 80.825529 
L 238.705058 79.451738 
L 234.280457 77.912674 
L 227.657112 75.308312 
L 214.046516 69.682873 
L 209.319759 67.959755 
L 204.488802 66.442142 
L 202.037093 65.779463 
L 202.037093 65.779463 
" clip-path="url(#p0c2ecec5c9)" style="fill: none; stroke-dasharray: 5.55,2.4; stroke-dashoffset: 0; stroke: #0000ff; stroke-width: 1.5"/>
   </g>
   <g id="patch_3">
    <path d="M 365.88375 207.477187 
C 365.88375 185.636245 361.581561 164.007679 353.223394 143.829279 
C 344.865227 123.650879 332.613628 105.315066 317.16975 89.871188 
C 301.725871 74.427309 283.390058 62.17571 263.211658 53.817544 
C 243.033259 45.459377 221.404692 41.157187 199.56375 41.157187 
C 177.722808 41.157187 156.094241 45.459377 135.915842 53.817544 
C 115.737442 62.17571 97.401629 74.427309 81.95775 89.871188 
C 66.513872 105.315066 54.262273 123.650879 45.904106 143.829279 
C 37.545939 164.007679 33.24375 185.636245 33.24375 207.477187 
C 33.24375 229.31813 37.545939 250.946696 45.904106 271.125096 
C 54.262273 291.303496 66.513872 309.639309 81.95775 325.083187 
C 97.401629 340.527066 115.737442 352.778665 135.915842 361.136831 
C 156.094241 369.494998 177.722808 373.797188 199.56375 373.797188 
C 221.404692 373.797188 243.033259 369.494998 263.211658 361.136831 
C 283.390058 352.778665 301.725871 340.527066 317.16975 325.083187 
C 332.613628 309.639309 344.865227 291.303496 353.223394 271.125096 
C 361.581561 250.946696 365.88375 229.31813 365.88375 207.477188 
" style="fill: none; stroke: #000000; stroke-width: 0.8; stroke-linejoin: miter; stroke-linecap: square"/>
   </g>
   <g id="text_19">
    <!-- Radiation Diagram - 2AVVF09 -->
    <g transform="translate(110.727187 16.318125)scale(0.12 -0.12)">
     <defs>
      <path id="DejaVuSans-52" d="M 2841 2188 
Q 3044 2119 3236 1894 
Q 3428 1669 3622 1275 
L 4263 0 
L 3584 0 
L 2988 1197 
Q 2756 1666 2539 1819 
Q 2322 1972 1947 1972 
L 1259 1972 
L 1259 0 
L 628 0 
L 628 4666 
L 2053 4666 
Q 2853 4666 3247 4331 
Q 3641 3997 3641 3322 
Q 3641 2881 3436 2590 
Q 3231 2300 2841 2188 
z
M 1259 4147 
L 1259 2491 
L 2053 2491 
Q 2509 2491 2742 2702 
Q 2975 2913 2975 3322 
Q 2975 3731 2742 3939 
Q 2509 4147 2053 4147 
L 1259 4147 
z
" transform="scale(0.015625)"/>
      <path id="DejaVuSans-61" d="M 2194 1759 
Q 1497 1759 1228 1600 
Q 959 1441 959 1056 
Q 959 750 1161 570 
Q 1363 391 1709 391 
Q 2188 391 2477 730 
Q 2766 1069 2766 1631 
L 2766 1759 
L 2194 1759 
z
M 3341 1997 
L 3341 0 
L 2766 0 
L 2766 531 
Q 2569 213 2275 61 
Q 1981 -91 1556 -91 
Q 1019 -91 701 211 
Q 384 513 384 1019 
Q 384 1609 779 1909 
Q 1175 2209 1959 2209 
L 2766 2209 
L 2766 2266 
Q 2766 2663 2505 2880 
Q 2244 3097 1772 3097 
Q 1472 3097 1187 3025 
Q 903 2953 641 2809 
L 641 3341 
Q 956 3463 1253 3523 
Q 1550 3584 1831 3584 
Q 2591 3584 2966 3190 
Q 3341 2797 3341 1997 
z
" transform="scale(0.015625)"/>
      <path id="DejaVuSans-64" d="M 2906 2969 
L 2906 4863 
L 3481 4863 
L 3481 0 
L 2906 0 
L 2906 525 
Q 2725 213 2448 61 
Q 2172 -91 1784 -91 
Q 1150 -91 751 415 
Q 353 922 353 1747 
Q 353 2572 751 3078 
Q 1150 3584 1784 3584 
Q 2172 3584 2448 3432 
Q 2725 3281 2906 2969 
z
M 947 1747 
Q 947 1113 1208 752 
Q 1469 391 1925 391 
Q 2381 391 2643 752 
Q 2906 1113 2906 1747 
Q 2906 2381 2643 2742 
Q 2381 3103 1925 3103 
Q 1469 3103 1208 2742 
Q 947 2381 947 1747 
z
" transform="scale(0.015625)"/>
      <path id="DejaVuSans-69" d="M 603 3500 
L 1178 3500 
L 1178 0 
L 603 0 
L 603 3500 
z
M 603 4863 
L 1178 4863 
L 1178 4134 
L 603 4134 
L 603 4863 
z
" transform="scale(0.015625)"/>
      <path id="DejaVuSans-74" d="M 1172 4494 
L 1172 3500 
L 2356 3500 
L 2356 3053 
L 1172 3053 
L 1172 1153 
Q 1172 725 1289 603 
Q 1406 481 1766 481 
L 2356 481 
L 2356 0 
L 1766 0 
Q 1100 0 847 248 
Q 594 497 594 1153 
L 594 3053 
L 172 3053 
L 172 3500 
L 594 3500 
L 594 4494 
L 1172 4494 
z
" transform="scale(0.015625)"/>
      <path id="DejaVuSans-6f" d="M 1959 3097 
Q 1497 3097 1228 2736 
Q 959 2375 959 1747 
Q 959 1119 1226 758 
Q 1494 397 1959 397 
Q 2419 397 2687 759 
Q 2956 1122 2956 1747 
Q 2956 2369 2687 2733 
Q 2419 3097 1959 3097 
z
M 1959 3584 
Q 2709 3584 3137 3096 
Q 3566 2609 3566 1747 
Q 3566 888 3137 398 
Q 2709 -91 1959 -91 
Q 1206 -91 779 398 
Q 353 888 353 1747 
Q 353 2609 779 3096 
Q 1206 3584 1959 3584 
z
" transform="scale(0.015625)"/>
      <path id="DejaVuSans-6e" d="M 3513 2113 
L 3513 0 
L 2938 0 
L 2938 2094 
Q 2938 2591 2744 2837 
Q 2550 3084 2163 3084 
Q 1697 3084 1428 2787 
Q 1159 2491 1159 1978 
L 1159 0 
L 581 0 
L 581 3500 
L 1159 3500 
L 1159 2956 
Q 1366 3272 1645 3428 
Q 1925 3584 2291 3584 
Q 2894 3584 3203 3211 
Q 3513 2838 3513 2113 
z
" transform="scale(0.015625)"/>
      <path id="DejaVuSans-20" transform="scale(0.015625)"/>
      <path id="DejaVuSans-44" d="M 1259 4147 
L 1259 519 
L 2022 519 
Q 2988 519 3436 956 
Q 3884 1394 3884 2338 
Q 3884 3275 3436 3711 
Q 2988 4147 2022 4147 
L 1259 4147 
z
M 628 4666 
L 1925 4666 
Q 3281 4666 3915 4102 
Q 4550 3538 4550 2338 
Q 4550 1131 3912 565 
Q 3275 0 1925 0 
L 628 0 
L 628 4666 
z
" transform="scale(0.015625)"/>
      <path id="DejaVuSans-67" d="M 2906 1791 
Q 2906 2416 2648 2759 
Q 2391 3103 1925 3103 
Q 1463 3103 1205 2759 
Q 947 2416 947 1791 
Q 947 1169 1205 825 
Q 1463 481 1925 481 
Q 2391 481 2648 825 
Q 2906 1169 2906 1791 
z
M 3481 434 
Q 3481 -459 3084 -895 
Q 2688 -1331 1869 -1331 
Q 1566 -1331 1297 -1286 
Q 1028 -1241 775 -1147 
L 775 -588 
Q 1028 -725 1275 -790 
Q 1522 -856 1778 -856 
Q 2344 -856 2625 -561 
Q 2906 -266 2906 331 
L 2906 616 
Q 2728 306 2450 153 
Q 2172 0 1784 0 
Q 1141 0 747 490 
Q 353 981 353 1791 
Q 353 2603 747 3093 
Q 1141 3584 1784 3584 
Q 2172 3584 2450 3431 
Q 2728 3278 2906 2969 
L 2906 3500 
L 3481 3500 
L 3481 434 
z
" transform="scale(0.015625)"/>
      <path id="DejaVuSans-72" d="M 2631 2963 
Q 2534 3019 2420 3045 
Q 2306 3072 2169 3072 
Q 1681 3072 1420 2755 
Q 1159 2438 1159 1844 
L 1159 0 
L 581 0 
L 581 3500 
L 1159 3500 
L 1159 2956 
Q 1341 3275 1631 3429 
Q 1922 3584 2338 3584 
Q 2397 3584 2469 3576 
Q 2541 3569 2628 3553 
L 2631 2963 
z
" transform="scale(0.015625)"/>
      <path id="DejaVuSans-6d" d="M 3328 2828 
Q 3544 3216 3844 3400 
Q 4144 3584 4550 3584 
Q 5097 3584 5394 3201 
Q 5691 2819 5691 2113 
L 5691 0 
L 5113 0 
L 5113 2094 
Q 5113 2597 4934 2840 
Q 4756 3084 4391 3084 
Q 3944 3084 3684 2787 
Q 3425 2491 3425 1978 
L 3425 0 
L 2847 0 
L 2847 2094 
Q 2847 2600 2669 2842 
Q 2491 3084 2119 3084 
Q 1678 3084 1418 2786 
Q 1159 2488 1159 1978 
L 1159 0 
L 581 0 
L 581 3500 
L 1159 3500 
L 1159 2956 
Q 1356 3278 1631 3431 
Q 1906 3584 2284 3584 
Q 2666 3584 2933 3390 
Q 3200 3197 3328 2828 
z
" transform="scale(0.015625)"/>
      <path id="DejaVuSans-2d" d="M 313 2009 
L 1997 2009 
L 1997 1497 
L 313 1497 
L 313 2009 
z
" transform="scale(0.015625)"/>
      <path id="DejaVuSans-41" d="M 2188 4044 
L 1331 1722 
L 3047 1722 
L 2188 4044 
z
M 1831 4666 
L 2547 4666 
L 4325 0 
L 3669 0 
L 3244 1197 
L 1141 1197 
L 716 0 
L 50 0 
L 1831 4666 
z
" transform="scale(0.015625)"/>
      <path id="DejaVuSans-56" d="M 1831 0 
L 50 4666 
L 709 4666 
L 2188 738 
L 3669 4666 
L 4325 4666 
L 2547 0 
L 1831 0 
z
" transform="scale(0.015625)"/>
      <path id="DejaVuSans-46" d="M 628 4666 
L 3309 4666 
L 3309 4134 
L 1259 4134 
L 1259 2759 
L 3109 2759 
L 3109 2228 
L 1259 2228 
L 1259 0 
L 628 0 
L 628 4666 
z
" transform="scale(0.015625)"/>
     </defs>
     <use xlink:href="#DejaVuSans-52"/>
     <use xlink:href="#DejaVuSans-61" x="67.232422"/>
     <use xlink:href="#DejaVuSans-64" x="128.511719"/>
     <use xlink:href="#DejaVuSans-69" x="191.988281"/>
     <use xlink:href="#DejaVuSans-61" x="219.771484"/>
     <use xlink:href="#DejaVuSans-74" x="281.050781"/>
     <use xlink:href="#DejaVuSans-69" x="320.259766"/>
     <use xlink:href="#DejaVuSans-6f" x="348.042969"/>
     <use xlink:href="#DejaVuSans-6e" x="409.224609"/>
     <use xlink:href="#DejaVuSans-20" x="472.603516"/>
     <use xlink:href="#DejaVuSans-44" x="504.390625"/>
     <use xlink:href="#DejaVuSans-69" x="581.392578"/>
     <use xlink:href="#DejaVuSans-61" x="609.175781"/>
     <use xlink:href="#DejaVuSans-67" x="670.455078"/>
     <use xlink:href="#DejaVuSans-72" x="733.931641"/>
     <use xlink:href="#DejaVuSans-61" x="775.044922"/>
     <use xlink:href="#DejaVuSans-6d" x="836.324219"/>
     <use xlink:href="#DejaVuSans-20" x="933.736328"/>
     <use xlink:href="#DejaVuSans-2d" x="965.523438"/>
     <use xlink:href="#DejaVuSans-20" x="1001.607422"/>
     <use xlink:href="#DejaVuSans-32" x="1033.394531"/>
     <use xlink:href="#DejaVuSans-41" x="1097.017578"/>
     <use xlink:href="#DejaVuSans-56" x="1159.050781"/>
     <use xlink:href="#DejaVuSans-56" x="1227.458984"/>
     <use xlink:href="#DejaVuSans-46" x="1295.867188"/>
     <use xlink:href="#DejaVuSans-30" x="1353.386719"/>
     <use xlink:href="#DejaVuSans-39" x="1417.009766"/>
    </g>
   </g>
   <g id="legend_1">
    <g id="patch_4">
     <path d="M 304.104062 78.513437 
L 358.88375 78.513437 
Q 360.88375 78.513437 360.88375 76.513437 
L 360.88375 48.157187 
Q 360.88375 46.157187 358.88375 46.157187 
L 304.104062 46.157187 
Q 302.104062 46.157187 302.104062 48.157187 
L 302.104062 76.513437 
Q 302.104062 78.513437 304.104062 78.513437 
z
" style="fill: #ffffff; opacity: 0.8; stroke: #cccccc; stroke-linejoin: miter"/>
    </g>
    <g id="line2d_21">
     <path d="M 306.104062 54.255625 
L 316.104062 54.255625 
L 326.104062 54.255625 
" style="fill: none; stroke: #ff0000; stroke-width: 1.5; stroke-linecap: square"/>
    </g>
    <g id="text_20">
     <!-- INPE -->
     <g transform="translate(334.104062 57.755625)scale(0.1 -0.1)">
      <defs>
       <path id="DejaVuSans-49" d="M 628 4666 
L 1259 4666 
L 1259 0 
L 628 0 
L 628 4666 
z
" transform="scale(0.015625)"/>
       <path id="DejaVuSans-4e" d="M 628 4666 
L 1478 4666 
L 3547 763 
L 3547 4666 
L 4159 4666 
L 4159 0 
L 3309 0 
L 1241 3903 
L 1241 0 
L 628 0 
L 628 4666 
z
" transform="scale(0.015625)"/>
       <path id="DejaVuSans-50" d="M 1259 4147 
L 1259 2394 
L 2053 2394 
Q 2494 2394 2734 2622 
Q 2975 2850 2975 3272 
Q 2975 3691 2734 3919 
Q 2494 4147 2053 4147 
L 1259 4147 
z
M 628 4666 
L 2053 4666 
Q 2838 4666 3239 4311 
Q 3641 3956 3641 3272 
Q 3641 2581 3239 2228 
Q 2838 1875 2053 1875 
L 1259 1875 
L 1259 0 
L 628 0 
L 628 4666 
z
" transform="scale(0.015625)"/>
       <path id="DejaVuSans-45" d="M 628 4666 
L 3578 4666 
L 3578 4134 
L 1259 4134 
L 1259 2753 
L 3481 2753 
L 3481 2222 
L 1259 2222 
L 1259 531 
L 3634 531 
L 3634 0 
L 628 0 
L 628 4666 
z
" transform="scale(0.015625)"/>
      </defs>
      <use xlink:href="#DejaVuSans-49"/>
      <use xlink:href="#DejaVuSans-4e" x="29.492188"/>
      <use xlink:href="#DejaVuSans-50" x="104.296875"/>
      <use xlink:href="#DejaVuSans-45" x="164.599609"/>
     </g>
    </g>
    <g id="line2d_22">
     <path d="M 306.104062 68.93375 
L 316.104062 68.93375 
L 326.104062 68.93375 
" style="fill: none; stroke-dasharray: 5.55,2.4; stroke-dashoffset: 0; stroke: #0000ff; stroke-width: 1.5"/>
    </g>
    <g id="text_21">
     <!-- CST -->
     <g transform="translate(334.104062 72.43375)scale(0.1 -0.1)">
      <defs>
       <path id="DejaVuSans-43" d="M 4122 4306 
L 4122 3641 
Q 3803 3938 3442 4084 
Q 3081 4231 2675 4231 
Q 1875 4231 1450 3742 
Q 1025 3253 1025 2328 
Q 1025 1406 1450 917 
Q 1875 428 2675 428 
Q 3081 428 3442 575 
Q 3803 722 4122 1019 
L 4122 359 
Q 3791 134 3420 21 
Q 3050 -91 2638 -91 
Q 1578 -91 968 557 
Q 359 1206 359 2328 
Q 359 3453 968 4101 
Q 1578 4750 2638 4750 
Q 3056 4750 3426 4639 
Q 3797 4528 4122 4306 
z
" transform="scale(0.015625)"/>
       <path id="DejaVuSans-53" d="M 3425 4513 
L 3425 3897 
Q 3066 4069 2747 4153 
Q 2428 4238 2131 4238 
Q 1616 4238 1336 4038 
Q 1056 3838 1056 3469 
Q 1056 3159 1242 3001 
Q 1428 2844 1947 2747 
L 2328 2669 
Q 3034 2534 3370 2195 
Q 3706 1856 3706 1288 
Q 3706 609 3251 259 
Q 2797 -91 1919 -91 
Q 1588 -91 1214 -16 
Q 841 59 441 206 
L 441 856 
Q 825 641 1194 531 
Q 1563 422 1919 422 
Q 2459 422 2753 634 
Q 3047 847 3047 1241 
Q 3047 1584 2836 1778 
Q 2625 1972 2144 2069 
L 1759 2144 
Q 1053 2284 737 2584 
Q 422 2884 422 3419 
Q 422 4038 858 4394 
Q 1294 4750 2059 4750 
Q 2388 4750 2728 4690 
Q 3069 4631 3425 4513 
z
" transform="scale(0.015625)"/>
       <path id="DejaVuSans-54" d="M -19 4666 
L 3928 4666 
L 3928 4134 
L 2272 4134 
L 2272 0 
L 1638 0 
L 1638 4134 
L -19 4134 
L -19 4666 
z
" transform="scale(0.015625)"/>
      </defs>
      <use xlink:href="#DejaVuSans-43"/>
      <use xlink:href="#DejaVuSans-53" x="69.824219"/>
      <use xlink:href="#DejaVuSans-54" x="133.300781"/>
     </g>
    </g>
   </g>
  </g>
 </g>
 <defs>
  <clipPath id="p0c2ecec5c9">
   <path d="M 365.88375 207.477187 
C 365.88375 185.636245 361.581561 164.007679 353.223394 143.829279 
C 344.865227 123.650879 332.613628 105.315066 317.16975 89.871188 
C 301.725871 74.427309 283.390058 62.17571 263.211658 53.817544 
C 243.033259 45.459377 221.404692 41.157187 199.56375 41.157187 
C 177.722808 41.157187 156.094241 45.459377 135.915842 53.817544 
C 115.737442 62.17571 97.401629 74.427309 81.95775 89.871188 
C 66.513872 105.315066 54.262273 123.650879 45.904106 143.829279 
C 37.545939 164.007679 33.24375 185.636245 33.24375 207.477187 
C 33.24375 229.31813 37.545939 250.946696 45.904106 271.125096 
C 54.262273 291.303496 66.513872 309.639309 81.95775 325.083187 
C 97.401629 340.527066 115.737442 352.778665 135.915842 361.136831 
C 156.094241 369.494998 177.722808 373.797188 199.56375 373.797188 
C 221.404692 373.797188 243.033259 369.494998 263.211658 361.136831 
C 283.390058 352.778665 301.725871 340.527066 317.16975 325.083187 
C 332.613628 309.639309 344.865227 291.303496 353.223394 271.125096 
C 361.581561 250.946696 365.88375 229.31813 365.88375 207.477188 
M 199.56375 207.477187 
C 199.56375 207.477187 199.56375 207.477187 199.56375 207.477187 
C 199.56375 207.477187 199.56375 207.477187 199.56375 207.477187 
C 199.56375 207.477187 199.56375 207.477187 199.56375 207.477187 
C 199.56375 207.477187 199.56375 207.477187 199.56375 207.477187 
C 199.56375 207.477187 199.56375 207.477187 199.56375 207.477187 
C 199.56375 207.477187 199.56375 207.477187 199.56375 207.477187 
C 199.56375 207.477187 199.56375 207.477187 199.56375 207.477187 
C 199.56375 207.477187 199.56375 207.477187 199.56375 207.477187 
C 199.56375 207.477187 199.56375 207.477187 199.56375 207.477187 
C 199.56375 207.477187 199.56375 207.477187 199.56375 207.477187 
C 199.56375 207.477187 199.56375 207.477187 199.56375 207.477187 
C 199.56375 207.477187 199.56375 207.477187 199.56375 207.477187 
C 199.56375 207.477187 199.56375 207.477187 199.56375 207.477187 
C 199.56375 207.477187 199.56375 207.477187 199.56375 207.477187 
C 199.56375 207.477187 199.56375 207.477187 199.56375 207.477187 
C 199.56375 207.477187 199.56375 207.477187 199.56375 207.477187 
M 365.88375 207.477187 
z
"/>
  </clipPath>
 </defs>
</svg>
