<?xml version="1.0" encoding="utf-8" standalone="no"?>
<!DOCTYPE svg PUBLIC "-//W3C//DTD SVG 1.1//EN"
  "http://www.w3.org/Graphics/SVG/1.1/DTD/svg11.dtd">
<svg xmlns:xlink="http://www.w3.org/1999/xlink" width="392.765pt" height="399.83625pt" viewBox="0 0 392.765 399.83625" xmlns="http://www.w3.org/2000/svg" version="1.1">
 <metadata>
  <rdf:RDF xmlns:dc="http://purl.org/dc/elements/1.1/" xmlns:cc="http://creativecommons.org/ns#" xmlns:rdf="http://www.w3.org/1999/02/22-rdf-syntax-ns#">
   <cc:Work>
    <dc:type rdf:resource="http://purl.org/dc/dcmitype/StillImage"/>
    <dc:date>2023-10-17T17:40:26.469848</dc:date>
    <dc:format>image/svg+xml</dc:format>
    <dc:creator>
     <cc:Agent>
      <dc:title>Matplotlib v3.5.1, https://matplotlib.org/</dc:title>
     </cc:Agent>
    </dc:creator>
   </cc:Work>
  </rdf:RDF>
 </metadata>
 <defs>
  <style type="text/css">*{stroke-linejoin: round; stroke-linecap: butt}</style>
 </defs>
 <g id="figure_1">
  <g id="patch_1">
   <path d="M 0 399.83625 
L 392.765 399.83625 
L 392.765 0 
L 0 0 
z
" style="fill: #ffffff"/>
  </g>
  <g id="axes_1">
   <g id="patch_2">
    <path d="M 365.88375 207.477187 
C 365.88375 185.636245 361.581561 164.007679 353.223394 143.829279 
C 344.865227 123.650879 332.613628 105.315066 317.16975 89.871188 
C 301.725871 74.427309 283.390058 62.17571 263.211658 53.817544 
C 243.033259 45.459377 221.404692 41.157187 199.56375 41.157187 
C 177.722808 41.157187 156.094241 45.459377 135.915842 53.817544 
C 115.737442 62.17571 97.401629 74.427309 81.95775 89.871188 
C 66.513872 105.315066 54.262273 123.650879 45.904106 143.829279 
C 37.545939 164.007679 33.24375 185.636245 33.24375 207.477187 
C 33.24375 229.31813 37.545939 250.946696 45.904106 271.125096 
C 54.262273 291.303496 66.513872 309.639309 81.95775 325.083187 
C 97.401629 340.527066 115.737442 352.778665 135.915842 361.136831 
C 156.094241 369.494998 177.722808 373.797188 199.56375 373.797188 
C 221.404692 373.797188 243.033259 369.494998 263.211658 361.136831 
C 283.390058 352.778665 301.725871 340.527066 317.16975 325.083187 
C 332.613628 309.639309 344.865227 291.303496 353.223394 271.125096 
C 361.581561 250.946696 365.88375 229.31813 365.88375 207.477188 
M 199.56375 207.477187 
C 199.56375 207.477187 199.56375 207.477187 199.56375 207.477187 
C 199.56375 207.477187 199.56375 207.477187 199.56375 207.477187 
C 199.56375 207.477187 199.56375 207.477187 199.56375 207.477187 
C 199.56375 207.477187 199.56375 207.477187 199.56375 207.477187 
C 199.56375 207.477187 199.56375 207.477187 199.56375 207.477187 
C 199.56375 207.477187 199.56375 207.477187 199.56375 207.477187 
C 199.56375 207.477187 199.56375 207.477187 199.56375 207.477187 
C 199.56375 207.477187 199.56375 207.477187 199.56375 207.477187 
C 199.56375 207.477187 199.56375 207.477187 199.56375 207.477187 
C 199.56375 207.477187 199.56375 207.477187 199.56375 207.477187 
C 199.56375 207.477187 199.56375 207.477187 199.56375 207.477187 
C 199.56375 207.477187 199.56375 207.477187 199.56375 207.477187 
C 199.56375 207.477187 199.56375 207.477187 199.56375 207.477187 
C 199.56375 207.477187 199.56375 207.477187 199.56375 207.477187 
C 199.56375 207.477187 199.56375 207.477187 199.56375 207.477187 
C 199.56375 207.477187 199.56375 207.477187 199.56375 207.477187 
M 365.88375 207.477187 
z
" style="fill: #ffffff"/>
   </g>
   <g id="matplotlib.axis_1">
    <g id="xtick_1">
     <g id="line2d_1">
      <path d="M 199.56375 207.477187 
L 365.88375 207.477187 
" clip-path="url(#p4c7a7aa0ac)" style="fill: none; stroke: #b0b0b0; stroke-width: 0.8; stroke-linecap: square"/>
     </g>
     <g id="text_1">
      <!-- 0° -->
      <g transform="translate(374.2025 210.236562)scale(0.1 -0.1)">
       <defs>
        <path id="DejaVuSans-30" d="M 2034 4250 
Q 1547 4250 1301 3770 
Q 1056 3291 1056 2328 
Q 1056 1369 1301 889 
Q 1547 409 2034 409 
Q 2525 409 2770 889 
Q 3016 1369 3016 2328 
Q 3016 3291 2770 3770 
Q 2525 4250 2034 4250 
z
M 2034 4750 
Q 2819 4750 3233 4129 
Q 3647 3509 3647 2328 
Q 3647 1150 3233 529 
Q 2819 -91 2034 -91 
Q 1250 -91 836 529 
Q 422 1150 422 2328 
Q 422 3509 836 4129 
Q 1250 4750 2034 4750 
z
" transform="scale(0.015625)"/>
        <path id="DejaVuSans-b0" d="M 1600 4347 
Q 1350 4347 1178 4173 
Q 1006 4000 1006 3750 
Q 1006 3503 1178 3333 
Q 1350 3163 1600 3163 
Q 1850 3163 2022 3333 
Q 2194 3503 2194 3750 
Q 2194 3997 2020 4172 
Q 1847 4347 1600 4347 
z
M 1600 4750 
Q 1800 4750 1984 4673 
Q 2169 4597 2303 4453 
Q 2447 4313 2519 4134 
Q 2591 3956 2591 3750 
Q 2591 3338 2302 3052 
Q 2013 2766 1594 2766 
Q 1172 2766 890 3047 
Q 609 3328 609 3750 
Q 609 4169 896 4459 
Q 1184 4750 1600 4750 
z
" transform="scale(0.015625)"/>
       </defs>
       <use xlink:href="#DejaVuSans-30"/>
       <use xlink:href="#DejaVuSans-b0" x="63.623047"/>
      </g>
     </g>
    </g>
    <g id="xtick_2">
     <g id="line2d_2">
      <path d="M 199.56375 207.477187 
L 317.16975 89.871188 
" clip-path="url(#p4c7a7aa0ac)" style="fill: none; stroke: #b0b0b0; stroke-width: 0.8; stroke-linecap: square"/>
     </g>
     <g id="text_2">
      <!-- 45° -->
      <g transform="translate(318.206745 82.731068)scale(0.1 -0.1)">
       <defs>
        <path id="DejaVuSans-34" d="M 2419 4116 
L 825 1625 
L 2419 1625 
L 2419 4116 
z
M 2253 4666 
L 3047 4666 
L 3047 1625 
L 3713 1625 
L 3713 1100 
L 3047 1100 
L 3047 0 
L 2419 0 
L 2419 1100 
L 313 1100 
L 313 1709 
L 2253 4666 
z
" transform="scale(0.015625)"/>
        <path id="DejaVuSans-35" d="M 691 4666 
L 3169 4666 
L 3169 4134 
L 1269 4134 
L 1269 2991 
Q 1406 3038 1543 3061 
Q 1681 3084 1819 3084 
Q 2600 3084 3056 2656 
Q 3513 2228 3513 1497 
Q 3513 744 3044 326 
Q 2575 -91 1722 -91 
Q 1428 -91 1123 -41 
Q 819 9 494 109 
L 494 744 
Q 775 591 1075 516 
Q 1375 441 1709 441 
Q 2250 441 2565 725 
Q 2881 1009 2881 1497 
Q 2881 1984 2565 2268 
Q 2250 2553 1709 2553 
Q 1456 2553 1204 2497 
Q 953 2441 691 2322 
L 691 4666 
z
" transform="scale(0.015625)"/>
       </defs>
       <use xlink:href="#DejaVuSans-34"/>
       <use xlink:href="#DejaVuSans-35" x="63.623047"/>
       <use xlink:href="#DejaVuSans-b0" x="127.246094"/>
      </g>
     </g>
    </g>
    <g id="xtick_3">
     <g id="line2d_3">
      <path d="M 199.56375 207.477187 
L 199.56375 41.157187 
" clip-path="url(#p4c7a7aa0ac)" style="fill: none; stroke: #b0b0b0; stroke-width: 0.8; stroke-linecap: square"/>
     </g>
     <g id="text_3">
      <!-- 90° -->
      <g transform="translate(190.70125 29.916562)scale(0.1 -0.1)">
       <defs>
        <path id="DejaVuSans-39" d="M 703 97 
L 703 672 
Q 941 559 1184 500 
Q 1428 441 1663 441 
Q 2288 441 2617 861 
Q 2947 1281 2994 2138 
Q 2813 1869 2534 1725 
Q 2256 1581 1919 1581 
Q 1219 1581 811 2004 
Q 403 2428 403 3163 
Q 403 3881 828 4315 
Q 1253 4750 1959 4750 
Q 2769 4750 3195 4129 
Q 3622 3509 3622 2328 
Q 3622 1225 3098 567 
Q 2575 -91 1691 -91 
Q 1453 -91 1209 -44 
Q 966 3 703 97 
z
M 1959 2075 
Q 2384 2075 2632 2365 
Q 2881 2656 2881 3163 
Q 2881 3666 2632 3958 
Q 2384 4250 1959 4250 
Q 1534 4250 1286 3958 
Q 1038 3666 1038 3163 
Q 1038 2656 1286 2365 
Q 1534 2075 1959 2075 
z
" transform="scale(0.015625)"/>
       </defs>
       <use xlink:href="#DejaVuSans-39"/>
       <use xlink:href="#DejaVuSans-30" x="63.623047"/>
       <use xlink:href="#DejaVuSans-b0" x="127.246094"/>
      </g>
     </g>
    </g>
    <g id="xtick_4">
     <g id="line2d_4">
      <path d="M 199.56375 207.477187 
L 81.95775 89.871188 
" clip-path="url(#p4c7a7aa0ac)" style="fill: none; stroke: #b0b0b0; stroke-width: 0.8; stroke-linecap: square"/>
     </g>
     <g id="text_4">
      <!-- 135° -->
      <g transform="translate(60.014505 82.731068)scale(0.1 -0.1)">
       <defs>
        <path id="DejaVuSans-31" d="M 794 531 
L 1825 531 
L 1825 4091 
L 703 3866 
L 703 4441 
L 1819 4666 
L 2450 4666 
L 2450 531 
L 3481 531 
L 3481 0 
L 794 0 
L 794 531 
z
" transform="scale(0.015625)"/>
        <path id="DejaVuSans-33" d="M 2597 2516 
Q 3050 2419 3304 2112 
Q 3559 1806 3559 1356 
Q 3559 666 3084 287 
Q 2609 -91 1734 -91 
Q 1441 -91 1130 -33 
Q 819 25 488 141 
L 488 750 
Q 750 597 1062 519 
Q 1375 441 1716 441 
Q 2309 441 2620 675 
Q 2931 909 2931 1356 
Q 2931 1769 2642 2001 
Q 2353 2234 1838 2234 
L 1294 2234 
L 1294 2753 
L 1863 2753 
Q 2328 2753 2575 2939 
Q 2822 3125 2822 3475 
Q 2822 3834 2567 4026 
Q 2313 4219 1838 4219 
Q 1578 4219 1281 4162 
Q 984 4106 628 3988 
L 628 4550 
Q 988 4650 1302 4700 
Q 1616 4750 1894 4750 
Q 2613 4750 3031 4423 
Q 3450 4097 3450 3541 
Q 3450 3153 3228 2886 
Q 3006 2619 2597 2516 
z
" transform="scale(0.015625)"/>
       </defs>
       <use xlink:href="#DejaVuSans-31"/>
       <use xlink:href="#DejaVuSans-33" x="63.623047"/>
       <use xlink:href="#DejaVuSans-35" x="127.246094"/>
       <use xlink:href="#DejaVuSans-b0" x="190.869141"/>
      </g>
     </g>
    </g>
    <g id="xtick_5">
     <g id="line2d_5">
      <path d="M 199.56375 207.477187 
L 33.24375 207.477187 
" clip-path="url(#p4c7a7aa0ac)" style="fill: none; stroke: #b0b0b0; stroke-width: 0.8; stroke-linecap: square"/>
     </g>
     <g id="text_5">
      <!-- 180° -->
      <g transform="translate(7.2 210.236562)scale(0.1 -0.1)">
       <defs>
        <path id="DejaVuSans-38" d="M 2034 2216 
Q 1584 2216 1326 1975 
Q 1069 1734 1069 1313 
Q 1069 891 1326 650 
Q 1584 409 2034 409 
Q 2484 409 2743 651 
Q 3003 894 3003 1313 
Q 3003 1734 2745 1975 
Q 2488 2216 2034 2216 
z
M 1403 2484 
Q 997 2584 770 2862 
Q 544 3141 544 3541 
Q 544 4100 942 4425 
Q 1341 4750 2034 4750 
Q 2731 4750 3128 4425 
Q 3525 4100 3525 3541 
Q 3525 3141 3298 2862 
Q 3072 2584 2669 2484 
Q 3125 2378 3379 2068 
Q 3634 1759 3634 1313 
Q 3634 634 3220 271 
Q 2806 -91 2034 -91 
Q 1263 -91 848 271 
Q 434 634 434 1313 
Q 434 1759 690 2068 
Q 947 2378 1403 2484 
z
M 1172 3481 
Q 1172 3119 1398 2916 
Q 1625 2713 2034 2713 
Q 2441 2713 2670 2916 
Q 2900 3119 2900 3481 
Q 2900 3844 2670 4047 
Q 2441 4250 2034 4250 
Q 1625 4250 1398 4047 
Q 1172 3844 1172 3481 
z
" transform="scale(0.015625)"/>
       </defs>
       <use xlink:href="#DejaVuSans-31"/>
       <use xlink:href="#DejaVuSans-38" x="63.623047"/>
       <use xlink:href="#DejaVuSans-30" x="127.246094"/>
       <use xlink:href="#DejaVuSans-b0" x="190.869141"/>
      </g>
     </g>
    </g>
    <g id="xtick_6">
     <g id="line2d_6">
      <path d="M 199.56375 207.477187 
L 81.95775 325.083187 
" clip-path="url(#p4c7a7aa0ac)" style="fill: none; stroke: #b0b0b0; stroke-width: 0.8; stroke-linecap: square"/>
     </g>
     <g id="text_6">
      <!-- 225° -->
      <g transform="translate(60.014505 337.742057)scale(0.1 -0.1)">
       <defs>
        <path id="DejaVuSans-32" d="M 1228 531 
L 3431 531 
L 3431 0 
L 469 0 
L 469 531 
Q 828 903 1448 1529 
Q 2069 2156 2228 2338 
Q 2531 2678 2651 2914 
Q 2772 3150 2772 3378 
Q 2772 3750 2511 3984 
Q 2250 4219 1831 4219 
Q 1534 4219 1204 4116 
Q 875 4013 500 3803 
L 500 4441 
Q 881 4594 1212 4672 
Q 1544 4750 1819 4750 
Q 2544 4750 2975 4387 
Q 3406 4025 3406 3419 
Q 3406 3131 3298 2873 
Q 3191 2616 2906 2266 
Q 2828 2175 2409 1742 
Q 1991 1309 1228 531 
z
" transform="scale(0.015625)"/>
       </defs>
       <use xlink:href="#DejaVuSans-32"/>
       <use xlink:href="#DejaVuSans-32" x="63.623047"/>
       <use xlink:href="#DejaVuSans-35" x="127.246094"/>
       <use xlink:href="#DejaVuSans-b0" x="190.869141"/>
      </g>
     </g>
    </g>
    <g id="xtick_7">
     <g id="line2d_7">
      <path d="M 199.56375 207.477187 
L 199.56375 373.797188 
" clip-path="url(#p4c7a7aa0ac)" style="fill: none; stroke: #b0b0b0; stroke-width: 0.8; stroke-linecap: square"/>
     </g>
     <g id="text_7">
      <!-- 270° -->
      <g transform="translate(187.52 390.556562)scale(0.1 -0.1)">
       <defs>
        <path id="DejaVuSans-37" d="M 525 4666 
L 3525 4666 
L 3525 4397 
L 1831 0 
L 1172 0 
L 2766 4134 
L 525 4134 
L 525 4666 
z
" transform="scale(0.015625)"/>
       </defs>
       <use xlink:href="#DejaVuSans-32"/>
       <use xlink:href="#DejaVuSans-37" x="63.623047"/>
       <use xlink:href="#DejaVuSans-30" x="127.246094"/>
       <use xlink:href="#DejaVuSans-b0" x="190.869141"/>
      </g>
     </g>
    </g>
    <g id="xtick_8">
     <g id="line2d_8">
      <path d="M 199.56375 207.477187 
L 317.16975 325.083187 
" clip-path="url(#p4c7a7aa0ac)" style="fill: none; stroke: #b0b0b0; stroke-width: 0.8; stroke-linecap: square"/>
     </g>
     <g id="text_8">
      <!-- 315° -->
      <g transform="translate(315.025495 337.742057)scale(0.1 -0.1)">
       <use xlink:href="#DejaVuSans-33"/>
       <use xlink:href="#DejaVuSans-31" x="63.623047"/>
       <use xlink:href="#DejaVuSans-35" x="127.246094"/>
       <use xlink:href="#DejaVuSans-b0" x="190.869141"/>
      </g>
     </g>
    </g>
   </g>
   <g id="matplotlib.axis_2">
    <g id="ytick_1">
     <g id="line2d_9">
      <path d="M 204.989895 207.477187 
C 204.989895 206.764633 204.849537 206.059006 204.576855 205.400692 
C 204.304172 204.742377 203.904466 204.144176 203.400614 203.640323 
C 202.896762 203.136471 202.298561 202.736766 201.640246 202.464083 
C 200.981931 202.1914 200.276305 202.051042 199.56375 202.051042 
C 198.851195 202.051042 198.145569 202.1914 197.487254 202.464083 
C 196.828939 202.736766 196.230738 203.136471 195.726886 203.640323 
C 195.223034 204.144176 194.823328 204.742377 194.550645 205.400692 
C 194.277963 206.059006 194.137605 206.764633 194.137605 207.477187 
C 194.137605 208.189742 194.277963 208.895369 194.550645 209.553683 
C 194.823328 210.211998 195.223034 210.810199 195.726886 211.314052 
C 196.230738 211.817904 196.828939 212.217609 197.487254 212.490292 
C 198.145569 212.762975 198.851195 212.903333 199.56375 212.903333 
C 200.276305 212.903333 200.981931 212.762975 201.640246 212.490292 
C 202.298561 212.217609 202.896762 211.817904 203.400614 211.314052 
C 203.904466 210.810199 204.304172 210.211998 204.576855 209.553683 
C 204.849537 208.895369 204.989895 208.189742 204.989895 207.477187 
" clip-path="url(#p4c7a7aa0ac)" style="fill: none; stroke: #b0b0b0; stroke-width: 0.8; stroke-linecap: square"/>
     </g>
     <g id="text_9">
      <!-- −30 -->
      <g transform="translate(204.576855 203.321004)scale(0.1 -0.1)">
       <defs>
        <path id="DejaVuSans-2212" d="M 678 2272 
L 4684 2272 
L 4684 1741 
L 678 1741 
L 678 2272 
z
" transform="scale(0.015625)"/>
       </defs>
       <use xlink:href="#DejaVuSans-2212"/>
       <use xlink:href="#DejaVuSans-33" x="83.789062"/>
       <use xlink:href="#DejaVuSans-30" x="147.412109"/>
      </g>
     </g>
    </g>
    <g id="ytick_2">
     <g id="line2d_10">
      <path d="M 221.079281 207.477187 
C 221.079281 204.651794 220.52274 201.853874 219.441508 199.24355 
C 218.360277 196.633227 216.775383 194.261265 214.777528 192.26341 
C 212.779673 190.265555 210.40771 188.68066 207.797387 187.599429 
C 205.187064 186.518198 202.389144 185.961657 199.56375 185.961657 
C 196.738356 185.961657 193.940436 186.518198 191.330113 187.599429 
C 188.71979 188.68066 186.347827 190.265555 184.349972 192.26341 
C 182.352117 194.261265 180.767223 196.633227 179.685992 199.24355 
C 178.60476 201.853874 178.048219 204.651794 178.048219 207.477187 
C 178.048219 210.302581 178.60476 213.100501 179.685992 215.710825 
C 180.767223 218.321148 182.352117 220.69311 184.349972 222.690965 
C 186.347827 224.68882 188.71979 226.273715 191.330113 227.354946 
C 193.940436 228.436177 196.738356 228.992718 199.56375 228.992718 
C 202.389144 228.992718 205.187064 228.436177 207.797387 227.354946 
C 210.40771 226.273715 212.779673 224.68882 214.777528 222.690965 
C 216.775383 220.69311 218.360277 218.321148 219.441508 215.710825 
C 220.52274 213.100501 221.079281 210.302581 221.079281 207.477187 
" clip-path="url(#p4c7a7aa0ac)" style="fill: none; stroke: #b0b0b0; stroke-width: 0.8; stroke-linecap: square"/>
     </g>
     <g id="text_10">
      <!-- −27 -->
      <g transform="translate(219.441508 197.163863)scale(0.1 -0.1)">
       <use xlink:href="#DejaVuSans-2212"/>
       <use xlink:href="#DejaVuSans-32" x="83.789062"/>
       <use xlink:href="#DejaVuSans-37" x="147.412109"/>
      </g>
     </g>
    </g>
    <g id="ytick_3">
     <g id="line2d_11">
      <path d="M 237.168666 207.477187 
C 237.168666 202.538955 236.195942 197.648741 234.306162 193.086409 
C 232.416383 188.524077 229.646299 184.378354 226.154441 180.886496 
C 222.662584 177.394639 218.51686 174.624555 213.954528 172.734775 
C 209.392197 170.844995 204.501982 169.872271 199.56375 169.872271 
C 194.625518 169.872271 189.735303 170.844995 185.172972 172.734775 
C 180.61064 174.624555 176.464916 177.394639 172.973059 180.886496 
C 169.481201 184.378354 166.711117 188.524077 164.821338 193.086409 
C 162.931558 197.648741 161.958834 202.538955 161.958834 207.477187 
C 161.958834 212.41542 162.931558 217.305634 164.821338 221.867966 
C 166.711117 226.430298 169.481201 230.576021 172.973059 234.067879 
C 176.464916 237.559736 180.61064 240.32982 185.172972 242.2196 
C 189.735303 244.10938 194.625518 245.082104 199.56375 245.082104 
C 204.501982 245.082104 209.392197 244.10938 213.954528 242.2196 
C 218.51686 240.32982 222.662584 237.559736 226.154441 234.067879 
C 229.646299 230.576021 232.416383 226.430298 234.306162 221.867966 
C 236.195942 217.305634 237.168666 212.41542 237.168666 207.477187 
" clip-path="url(#p4c7a7aa0ac)" style="fill: none; stroke: #b0b0b0; stroke-width: 0.8; stroke-linecap: square"/>
     </g>
     <g id="text_11">
      <!-- −24 -->
      <g transform="translate(234.306162 191.006722)scale(0.1 -0.1)">
       <use xlink:href="#DejaVuSans-2212"/>
       <use xlink:href="#DejaVuSans-32" x="83.789062"/>
       <use xlink:href="#DejaVuSans-34" x="147.412109"/>
      </g>
     </g>
    </g>
    <g id="ytick_4">
     <g id="line2d_12">
      <path d="M 253.258052 207.477187 
C 253.258052 200.426116 251.869144 193.443608 249.170816 186.929268 
C 246.472488 180.414928 242.517215 174.495443 237.531355 169.509583 
C 232.545495 164.523722 226.62601 160.568449 220.11167 157.870121 
C 213.597329 155.171793 206.614821 153.782886 199.56375 153.782886 
C 192.512679 153.782886 185.530171 155.171793 179.01583 157.870121 
C 172.50149 160.568449 166.582005 164.523722 161.596145 169.509583 
C 156.610285 174.495443 152.655012 180.414928 149.956684 186.929268 
C 147.258356 193.443608 145.869448 200.426116 145.869448 207.477187 
C 145.869448 214.528259 147.258356 221.510767 149.956684 228.025107 
C 152.655012 234.539447 156.610285 240.458932 161.596145 245.444792 
C 166.582005 250.430653 172.50149 254.385926 179.01583 257.084254 
C 185.530171 259.782582 192.512679 261.171489 199.56375 261.171489 
C 206.614821 261.171489 213.597329 259.782582 220.11167 257.084254 
C 226.62601 254.385926 232.545495 250.430653 237.531355 245.444792 
C 242.517215 240.458932 246.472488 234.539447 249.170816 228.025107 
C 251.869144 221.510767 253.258052 214.528259 253.258052 207.477187 
" clip-path="url(#p4c7a7aa0ac)" style="fill: none; stroke: #b0b0b0; stroke-width: 0.8; stroke-linecap: square"/>
     </g>
     <g id="text_12">
      <!-- −21 -->
      <g transform="translate(249.170816 184.84958)scale(0.1 -0.1)">
       <use xlink:href="#DejaVuSans-2212"/>
       <use xlink:href="#DejaVuSans-32" x="83.789062"/>
       <use xlink:href="#DejaVuSans-31" x="147.412109"/>
      </g>
     </g>
    </g>
    <g id="ytick_5">
     <g id="line2d_13">
      <path d="M 269.347437 207.477187 
C 269.347437 198.313278 267.542347 189.238475 264.03547 180.772127 
C 260.528594 172.305778 255.388131 164.612532 248.908268 158.132669 
C 242.428406 151.652806 234.73516 146.512344 226.268811 143.005467 
C 217.802462 139.498591 208.72766 137.6935 199.56375 137.6935 
C 190.39984 137.6935 181.325038 139.498591 172.858689 143.005467 
C 164.39234 146.512344 156.699094 151.652806 150.219232 158.132669 
C 143.739369 164.612532 138.598906 172.305778 135.09203 180.772127 
C 131.585153 189.238475 129.780063 198.313278 129.780063 207.477187 
C 129.780063 216.641097 131.585153 225.7159 135.09203 234.182248 
C 138.598906 242.648597 143.739369 250.341843 150.219232 256.821706 
C 156.699094 263.301569 164.39234 268.442031 172.858689 271.948908 
C 181.325038 275.455784 190.39984 277.260875 199.56375 277.260875 
C 208.72766 277.260875 217.802462 275.455784 226.268811 271.948908 
C 234.73516 268.442031 242.428406 263.301569 248.908268 256.821706 
C 255.388131 250.341843 260.528594 242.648597 264.03547 234.182248 
C 267.542347 225.7159 269.347437 216.641097 269.347437 207.477188 
" clip-path="url(#p4c7a7aa0ac)" style="fill: none; stroke: #b0b0b0; stroke-width: 0.8; stroke-linecap: square"/>
     </g>
     <g id="text_13">
      <!-- −18 -->
      <g transform="translate(264.03547 178.692439)scale(0.1 -0.1)">
       <use xlink:href="#DejaVuSans-2212"/>
       <use xlink:href="#DejaVuSans-31" x="83.789062"/>
       <use xlink:href="#DejaVuSans-38" x="147.412109"/>
      </g>
     </g>
    </g>
    <g id="ytick_6">
     <g id="line2d_14">
      <path d="M 285.436823 207.477187 
C 285.436823 196.200439 283.215549 185.033343 278.900124 174.614985 
C 274.584699 164.196628 268.259047 154.729621 260.285182 146.755756 
C 252.311317 138.78189 242.844309 132.456238 232.425952 128.140813 
C 222.007595 123.825388 210.840499 121.604115 199.56375 121.604115 
C 188.287001 121.604115 177.119905 123.825388 166.701548 128.140813 
C 156.283191 132.456238 146.816183 138.78189 138.842318 146.755756 
C 130.868453 154.729621 124.542801 164.196628 120.227376 174.614985 
C 115.911951 185.033343 113.690677 196.200439 113.690677 207.477187 
C 113.690677 218.753936 115.911951 229.921032 120.227376 240.33939 
C 124.542801 250.757747 130.868453 260.224754 138.842318 268.198619 
C 146.816183 276.172485 156.283191 282.498137 166.701548 286.813562 
C 177.119905 291.128987 188.287001 293.35026 199.56375 293.35026 
C 210.840499 293.35026 222.007595 291.128987 232.425952 286.813562 
C 242.844309 282.498137 252.311317 276.172485 260.285182 268.198619 
C 268.259047 260.224754 274.584699 250.757747 278.900124 240.33939 
C 283.215549 229.921032 285.436823 218.753936 285.436823 207.477188 
" clip-path="url(#p4c7a7aa0ac)" style="fill: none; stroke: #b0b0b0; stroke-width: 0.8; stroke-linecap: square"/>
     </g>
     <g id="text_14">
      <!-- −15 -->
      <g transform="translate(278.900124 172.535298)scale(0.1 -0.1)">
       <use xlink:href="#DejaVuSans-2212"/>
       <use xlink:href="#DejaVuSans-31" x="83.789062"/>
       <use xlink:href="#DejaVuSans-35" x="147.412109"/>
      </g>
     </g>
    </g>
    <g id="ytick_7">
     <g id="line2d_15">
      <path d="M 301.526208 207.477187 
C 301.526208 194.0876 298.888751 180.82821 293.764778 168.457844 
C 288.640805 156.087478 281.129964 144.84671 271.662096 135.378842 
C 262.194228 125.910974 250.953459 118.400133 238.583093 113.276159 
C 226.212728 108.152186 212.953337 105.514729 199.56375 105.514729 
C 186.174163 105.514729 172.914772 108.152186 160.544407 113.276159 
C 148.174041 118.400133 136.933272 125.910974 127.465404 135.378842 
C 117.997536 144.84671 110.486695 156.087478 105.362722 168.457844 
C 100.238749 180.82821 97.601292 194.0876 97.601292 207.477187 
C 97.601292 220.866775 100.238749 234.126165 105.362722 246.496531 
C 110.486695 258.866897 117.997536 270.107665 127.465404 279.575533 
C 136.933272 289.043401 148.174041 296.554242 160.544407 301.678216 
C 172.914772 306.802189 186.174163 309.439646 199.56375 309.439646 
C 212.953337 309.439646 226.212728 306.802189 238.583093 301.678216 
C 250.953459 296.554242 262.194228 289.043401 271.662096 279.575533 
C 281.129964 270.107665 288.640805 258.866897 293.764778 246.496531 
C 298.888751 234.126165 301.526208 220.866775 301.526208 207.477188 
" clip-path="url(#p4c7a7aa0ac)" style="fill: none; stroke: #b0b0b0; stroke-width: 0.8; stroke-linecap: square"/>
     </g>
     <g id="text_15">
      <!-- −12 -->
      <g transform="translate(293.764778 166.378157)scale(0.1 -0.1)">
       <use xlink:href="#DejaVuSans-2212"/>
       <use xlink:href="#DejaVuSans-31" x="83.789062"/>
       <use xlink:href="#DejaVuSans-32" x="147.412109"/>
      </g>
     </g>
    </g>
    <g id="ytick_8">
     <g id="line2d_16">
      <path d="M 317.615594 207.477187 
C 317.615594 191.974761 314.561954 176.623077 308.629432 162.300703 
C 302.69691 147.978329 294.00088 134.963799 283.039009 124.001928 
C 272.077139 113.040058 259.062609 104.344027 244.740235 98.411505 
C 230.417861 92.478984 215.066176 89.425344 199.56375 89.425344 
C 184.061324 89.425344 168.709639 92.478984 154.387265 98.411505 
C 140.064891 104.344027 127.050361 113.040058 116.088491 124.001928 
C 105.12662 134.963799 96.43059 147.978329 90.498068 162.300703 
C 84.565546 176.623077 81.511906 191.974761 81.511906 207.477187 
C 81.511906 222.979614 84.565546 238.331298 90.498068 252.653672 
C 96.43059 266.976046 105.12662 279.990576 116.088491 290.952447 
C 127.050361 301.914317 140.064891 310.610348 154.387265 316.54287 
C 168.709639 322.475391 184.061324 325.529031 199.56375 325.529031 
C 215.066176 325.529031 230.417861 322.475391 244.740235 316.54287 
C 259.062609 310.610348 272.077139 301.914317 283.039009 290.952447 
C 294.00088 279.990576 302.69691 266.976046 308.629432 252.653672 
C 314.561954 238.331298 317.615594 222.979614 317.615594 207.477188 
" clip-path="url(#p4c7a7aa0ac)" style="fill: none; stroke: #b0b0b0; stroke-width: 0.8; stroke-linecap: square"/>
     </g>
     <g id="text_16">
      <!-- −9 -->
      <g transform="translate(308.629432 160.221015)scale(0.1 -0.1)">
       <use xlink:href="#DejaVuSans-2212"/>
       <use xlink:href="#DejaVuSans-39" x="83.789062"/>
      </g>
     </g>
    </g>
    <g id="ytick_9">
     <g id="line2d_17">
      <path d="M 333.704979 207.477187 
C 333.704979 189.861923 330.235156 172.417944 323.494086 156.143562 
C 316.753016 139.869179 306.871796 125.080888 294.415923 112.625015 
C 281.96005 100.169142 267.171759 90.287922 250.897376 83.546852 
C 234.622993 76.805782 217.179015 73.335958 199.56375 73.335958 
C 181.948485 73.335958 164.504507 76.805782 148.230124 83.546852 
C 131.955741 90.287922 117.16745 100.169142 104.711577 112.625015 
C 92.255704 125.080888 82.374484 139.869179 75.633414 156.143562 
C 68.892344 172.417944 65.422521 189.861923 65.422521 207.477187 
C 65.422521 225.092452 68.892344 242.536431 75.633414 258.810813 
C 82.374484 275.085196 92.255704 289.873487 104.711577 302.32936 
C 117.16745 314.785233 131.955741 324.666453 148.230124 331.407523 
C 164.504507 338.148593 181.948485 341.618417 199.56375 341.618417 
C 217.179015 341.618417 234.622993 338.148593 250.897376 331.407523 
C 267.171759 324.666453 281.96005 314.785233 294.415923 302.32936 
C 306.871796 289.873487 316.753016 275.085196 323.494086 258.810813 
C 330.235156 242.536431 333.704979 225.092452 333.704979 207.477188 
" clip-path="url(#p4c7a7aa0ac)" style="fill: none; stroke: #b0b0b0; stroke-width: 0.8; stroke-linecap: square"/>
     </g>
     <g id="text_17">
      <!-- −6 -->
      <g transform="translate(323.494086 154.063874)scale(0.1 -0.1)">
       <defs>
        <path id="DejaVuSans-36" d="M 2113 2584 
Q 1688 2584 1439 2293 
Q 1191 2003 1191 1497 
Q 1191 994 1439 701 
Q 1688 409 2113 409 
Q 2538 409 2786 701 
Q 3034 994 3034 1497 
Q 3034 2003 2786 2293 
Q 2538 2584 2113 2584 
z
M 3366 4563 
L 3366 3988 
Q 3128 4100 2886 4159 
Q 2644 4219 2406 4219 
Q 1781 4219 1451 3797 
Q 1122 3375 1075 2522 
Q 1259 2794 1537 2939 
Q 1816 3084 2150 3084 
Q 2853 3084 3261 2657 
Q 3669 2231 3669 1497 
Q 3669 778 3244 343 
Q 2819 -91 2113 -91 
Q 1303 -91 875 529 
Q 447 1150 447 2328 
Q 447 3434 972 4092 
Q 1497 4750 2381 4750 
Q 2619 4750 2861 4703 
Q 3103 4656 3366 4563 
z
" transform="scale(0.015625)"/>
       </defs>
       <use xlink:href="#DejaVuSans-2212"/>
       <use xlink:href="#DejaVuSans-36" x="83.789062"/>
      </g>
     </g>
    </g>
    <g id="ytick_10">
     <g id="line2d_18">
      <path d="M 349.794365 207.477187 
C 349.794365 187.749084 345.908358 168.212811 338.35874 149.98642 
C 330.809122 131.760029 319.742712 115.197977 305.792836 101.248101 
C 291.84296 87.298225 275.280908 76.231816 257.054517 68.682198 
C 238.828126 61.132579 219.291854 57.246573 199.56375 57.246573 
C 179.835646 57.246573 160.299374 61.132579 142.072983 68.682198 
C 123.846592 76.231816 107.28454 87.298225 93.334664 101.248101 
C 79.384788 115.197977 68.318378 131.760029 60.76876 149.98642 
C 53.219142 168.212811 49.333135 187.749084 49.333135 207.477187 
C 49.333135 227.205291 53.219142 246.741564 60.76876 264.967955 
C 68.318378 283.194346 79.384788 299.756398 93.334664 313.706274 
C 107.28454 327.65615 123.846592 338.722559 142.072983 346.272177 
C 160.299374 353.821796 179.835646 357.707802 199.56375 357.707802 
C 219.291854 357.707802 238.828126 353.821796 257.054517 346.272177 
C 275.280908 338.722559 291.84296 327.65615 305.792836 313.706274 
C 319.742712 299.756398 330.809122 283.194346 338.35874 264.967955 
C 345.908358 246.741564 349.794365 227.205291 349.794365 207.477188 
" clip-path="url(#p4c7a7aa0ac)" style="fill: none; stroke: #b0b0b0; stroke-width: 0.8; stroke-linecap: square"/>
     </g>
     <g id="text_18">
      <!-- −3 -->
      <g transform="translate(338.35874 147.906733)scale(0.1 -0.1)">
       <use xlink:href="#DejaVuSans-2212"/>
       <use xlink:href="#DejaVuSans-33" x="83.789062"/>
      </g>
     </g>
    </g>
   </g>
   <g id="line2d_19">
    <path d="M 244.886208 207.477187 
L 226.213098 207.942354 
L 222.75989 208.287215 
L 235.906724 209.381842 
L 252.437097 211.174452 
L 264.914567 213.194643 
L 274.80561 215.385426 
L 283.620321 217.798037 
L 291.754941 220.433814 
L 297.526984 222.993039 
L 308.997523 228.748958 
L 313.016194 231.592249 
L 316.842197 234.55305 
L 320.629337 237.662228 
L 327.561562 246.610046 
L 328.986071 249.529049 
L 330.656361 252.615994 
L 332.202151 255.753617 
L 333.126877 258.747268 
L 334.315161 261.920291 
L 335.338936 265.110335 
L 335.718565 268.097217 
L 336.370252 271.271107 
L 336.802672 274.413082 
L 336.746101 277.375087 
L 336.944871 280.524025 
L 336.76549 283.529354 
L 336.104702 286.309143 
L 335.678086 289.262932 
L 334.784877 291.972725 
L 332.545082 297.174228 
L 331.05605 299.549087 
L 329.37708 301.792093 
L 325.503541 305.872136 
L 323.32533 307.697339 
L 318.376119 310.759204 
L 315.806215 312.142373 
L 312.981265 313.240731 
L 310.115105 314.23539 
L 307.142897 315.056334 
L 303.568777 315.177546 
L 300.484572 315.701519 
L 296.656919 315.310076 
L 289.269896 314.384809 
L 276.38332 309.4202 
L 271.09334 305.929223 
L 262.60847 300.944829 
L 257.576388 296.808816 
L 253.911086 294.451105 
L 250.658519 292.513164 
L 247.391459 290.31721 
L 245.225991 289.854051 
L 243.909772 290.879924 
L 243.596669 293.896657 
L 243.372456 297.298346 
L 243.661298 302.044684 
L 244.115728 307.542568 
L 244.068331 312.32341 
L 244.381432 318.404842 
L 244.143442 323.611255 
L 243.35899 327.80362 
L 242.795854 333.032335 
L 241.748195 337.30756 
L 240.313244 340.762777 
L 238.944721 344.814955 
L 237.159544 347.786602 
L 235.256501 350.632993 
L 233.406543 354.066428 
L 229.029349 359.064554 
L 226.767648 361.75816 
L 221.835489 365.948846 
L 219.250047 367.809211 
L 213.817833 370.402103 
L 211.0377 371.562318 
L 205.346335 373.068766 
L 202.462597 373.552001 
L 199.56375 373.775735 
L 196.661066 373.771856 
L 193.766565 373.486835 
L 190.887302 373.033674 
L 185.263392 370.931033 
L 182.504284 369.787161 
L 174.64547 364.805015 
L 172.24344 362.418367 
L 169.832084 360.433348 
L 167.529553 358.186235 
L 165.368676 355.592324 
L 163.196321 353.33898 
L 161.193407 350.677256 
L 159.363813 347.67103 
L 157.403031 345.378684 
L 155.649086 342.632626 
L 153.881918 340.146861 
L 151.999028 338.160188 
L 150.315585 335.773043 
L 148.43761 334.018826 
L 146.270469 333.02829 
L 144.336094 331.520533 
L 139.452927 330.722639 
L 136.797408 330.663071 
L 131.447077 330.362918 
L 128.4547 330.641675 
L 125.57574 330.613915 
L 122.156223 331.355126 
L 118.846419 331.770977 
L 112.862833 331.298929 
L 110.056206 330.673753 
L 107.390433 329.79531 
L 104.609352 329.013275 
L 102.097702 327.837733 
L 99.777545 326.397756 
L 96.057693 322.432309 
L 91.523961 319.355665 
L 89.447552 317.593386 
L 87.538672 315.658548 
L 84.377465 311.191385 
L 82.698279 309.066792 
L 81.21014 306.787658 
L 79.619997 304.605723 
L 78.213616 302.286303 
L 75.894248 297.32834 
L 74.92487 294.750271 
L 73.335864 289.450535 
L 72.761325 286.712137 
L 72.306289 278.01715 
L 72.18705 272.378858 
L 72.674115 269.365397 
L 73.10007 263.782445 
L 73.97809 260.785137 
L 74.648154 257.946364 
L 75.508748 255.097441 
L 76.964416 252.099696 
L 78.019714 249.328155 
L 79.302175 246.552542 
L 81.320887 243.627658 
L 82.96088 240.912522 
L 89.277252 232.938832 
L 95.97894 227.612035 
L 98.743644 225.254492 
L 107.54782 220.409183 
L 111.514815 218.288237 
L 117.297343 216.123735 
L 121.198066 214.333296 
L 124.016831 212.759943 
L 127.401329 211.25906 
L 129.131151 209.936748 
L 130.101705 208.689652 
L 130.471906 207.477187 
L 130.455618 206.270901 
L 130.208483 205.055248 
L 129.184993 202.555825 
L 127.004766 199.850931 
L 125.907722 197.125508 
L 125.824152 195.797983 
L 126.023369 194.510034 
L 126.371434 193.250042 
L 126.88793 192.029465 
L 128.020383 190.9601 
L 129.717923 188.762055 
L 130.240779 187.599145 
L 131.900968 186.790599 
L 132.935387 185.82832 
L 133.206728 184.628633 
L 132.74877 183.158524 
L 131.005359 181.160087 
L 128.058917 178.58736 
L 124.446851 175.591956 
L 121.624339 172.776326 
L 117.648513 169.279485 
L 114.317101 165.899619 
L 109.678304 159.684248 
L 107.758584 156.588753 
L 106.765693 153.900204 
L 105.402533 150.899421 
L 104.671432 148.181886 
L 104.164458 145.524163 
L 103.397244 142.61206 
L 103.217192 140.014601 
L 103.163179 134.834147 
L 103.591964 132.495811 
L 104.227478 130.275396 
L 105.059372 128.178599 
L 106.275574 126.383014 
L 107.772826 124.828268 
L 109.550861 123.538811 
L 111.500162 122.435169 
L 113.672793 121.58623 
L 118.3174 120.351144 
L 121.167361 120.409177 
L 126.980604 120.975963 
L 134.643176 124.382642 
L 138.362591 126.260507 
L 148.863182 135.069272 
L 153.817397 139.65543 
L 160.338786 147.076039 
L 163.385481 149.579854 
L 165.014651 149.97783 
L 163.998834 145.876946 
L 159.233677 131.627353 
L 157.167023 124.268925 
L 154.473451 110.780729 
L 153.809831 104.712204 
L 153.782984 99.624462 
L 153.506476 93.481435 
L 153.938505 88.61936 
L 154.794498 84.474678 
L 155.46909 79.416997 
L 156.686554 75.514749 
L 158.191749 72.15547 
L 159.547119 67.922611 
L 161.398843 65.043816 
L 163.381857 62.359542 
L 165.38436 59.429985 
L 169.954884 55.152778 
L 172.33005 53.027202 
L 180.042814 48.491921 
L 188.255532 45.762135 
L 193.879055 44.688816 
L 196.716009 44.330196 
L 199.56375 44.187355 
L 202.412521 44.27121 
L 208.079927 44.978851 
L 213.607958 46.951153 
L 216.308719 48.159447 
L 218.880763 50.152745 
L 221.41825 51.974342 
L 223.86622 54.037431 
L 226.132503 56.7983 
L 228.369299 59.285483 
L 230.427137 62.276367 
L 234.092681 68.989209 
L 235.675687 72.705604 
L 236.895827 77.284763 
L 238.128983 81.335996 
L 238.765059 86.827964 
L 239.253091 92.210972 
L 239.917847 96.605218 
L 239.824767 102.593651 
L 239.931357 107.563855 
L 240.438854 111.181478 
L 241.45008 113.398949 
L 243.55477 113.138142 
L 246.518149 111.206403 
L 250.871879 106.779314 
L 254.968109 103.276744 
L 259.24571 99.808081 
L 264.08956 95.715206 
L 276.606501 88.841754 
L 284.182104 86.629654 
L 287.901766 85.89034 
L 291.220649 85.844375 
L 294.778996 85.60723 
L 298.130089 85.757895 
L 301.080526 86.494205 
L 304.260215 87.037681 
L 307.178792 87.958575 
L 309.844485 89.215578 
L 312.655375 90.367382 
L 315.140867 91.900071 
L 319.904202 95.257901 
L 322.183144 97.070189 
L 324.289669 99.0546 
L 328.189308 103.318264 
L 331.643251 107.948145 
L 333.182262 110.397656 
L 335.701909 115.65084 
L 336.856465 118.318256 
L 338.52369 123.981632 
L 339.351281 126.770819 
L 340.188593 132.705632 
L 340.611974 135.609528 
L 340.52398 138.72629 
L 340.720915 144.629968 
L 340.142428 147.805079 
L 339.849671 150.797996 
L 339.440593 153.783498 
L 338.421131 156.937234 
L 337.689752 159.916591 
L 336.693136 162.921149 
L 333.756742 168.997966 
L 331.822847 172.038469 
L 329.252067 175.142258 
L 327.141996 178.023429 
L 320.037374 184.059487 
L 317.311546 186.715074 
L 304.300769 194.617099 
L 287.223214 201.347441 
L 278.817221 203.323689 
L 271.148719 204.977385 
L 259.41117 206.432547 
L 259.41117 206.432547 
" clip-path="url(#p4c7a7aa0ac)" style="fill: none; stroke: #ff0000; stroke-width: 1.5; stroke-linecap: square"/>
   </g>
   <g id="line2d_20">
    <path d="M 199.56375 62.534618 
L 197.064012 64.267271 
L 194.628111 66.138982 
L 192.262095 68.153304 
L 189.971962 70.30823 
L 187.764596 72.612238 
L 185.647006 75.068209 
L 183.627161 77.68409 
L 181.712957 80.462196 
L 179.915092 83.420442 
L 178.241927 86.555119 
L 176.705813 89.883296 
L 175.320457 93.421461 
L 174.098486 97.175012 
L 173.058301 101.169636 
L 172.217537 105.419731 
L 171.601002 109.959498 
L 171.234598 114.816706 
L 171.146478 120.017818 
L 171.370494 125.598026 
L 171.963527 131.646198 
L 172.969885 138.197801 
L 174.416807 145.23632 
L 176.331008 152.744277 
L 178.651397 160.507273 
L 182.949533 173.412994 
L 183.25844 175.476215 
L 181.519047 173.540036 
L 174.231683 163.60076 
L 170.072267 158.395117 
L 166.00867 153.777835 
L 162.097209 149.783774 
L 158.366915 146.400369 
L 154.846321 143.614081 
L 151.468862 141.280253 
L 148.25522 139.388469 
L 145.192656 137.88536 
L 142.265078 136.71922 
L 139.487599 135.881219 
L 136.80463 135.281079 
L 134.226398 134.912707 
L 131.76656 134.773602 
L 129.412724 134.833673 
L 127.16202 135.075458 
L 125.010569 135.482018 
L 122.957432 136.040641 
L 120.996984 136.735354 
L 119.134814 137.56138 
L 117.368123 138.506867 
L 115.689295 139.556993 
L 114.106757 140.710867 
L 112.620451 141.960713 
L 111.221264 143.292614 
L 109.916849 144.705751 
L 108.701603 146.189895 
L 107.578362 147.741178 
L 105.609403 151.02372 
L 103.996644 154.503476 
L 102.736528 158.141254 
L 101.827113 161.901845 
L 101.243958 165.742912 
L 100.983916 169.635934 
L 101.006274 173.541127 
L 101.287249 177.431046 
L 101.77493 181.274752 
L 102.761892 186.901317 
L 104.14351 194.066747 
L 104.801258 199.186544 
L 104.938502 200.860346 
L 104.872418 204.170493 
L 104.492912 207.477187 
L 103.800446 210.821316 
L 102.167297 215.998273 
L 96.671578 231.231717 
L 95.480763 235.36614 
L 94.496737 239.599397 
L 93.754834 243.910119 
L 93.288292 248.272514 
L 93.118009 252.660724 
L 93.262656 257.046201 
L 93.724121 261.405172 
L 94.512053 265.708294 
L 95.619908 269.932949 
L 97.057779 274.045344 
L 98.810794 278.025167 
L 100.875958 281.843772 
L 103.248013 285.472133 
L 105.91129 288.888029 
L 108.852684 292.066625 
L 112.061063 294.979874 
L 115.519301 297.603824 
L 119.208467 299.915366 
L 123.101112 301.900682 
L 127.178918 303.535104 
L 131.399798 304.825399 
L 135.735463 305.764131 
L 140.132615 306.387207 
L 144.541162 306.740563 
L 157.150519 307.396498 
L 159.073591 307.693849 
L 160.932566 308.114863 
L 162.722334 308.698147 
L 164.449097 309.457546 
L 166.118236 310.411894 
L 167.737898 311.57486 
L 169.322975 312.939303 
L 170.887757 314.497452 
L 174.021274 318.113806 
L 184.390567 331.052843 
L 188.373186 335.385915 
L 192.644948 339.495789 
L 194.885658 341.440224 
L 199.56375 345.061545 
L 204.481233 348.295487 
L 207.020343 349.75746 
L 209.60784 351.114373 
L 212.239845 352.365614 
L 214.912154 353.507493 
L 217.620816 354.540189 
L 220.361865 355.463467 
L 223.131338 356.277082 
L 228.739951 357.575727 
L 234.416093 358.43927 
L 240.130035 358.872624 
L 245.853084 358.882776 
L 251.559349 358.483371 
L 257.220548 357.678282 
L 262.812948 356.482959 
L 268.310095 354.904199 
L 273.688478 352.955158 
L 278.928439 350.654877 
L 284.006746 348.013933 
L 288.90086 345.044274 
L 293.59209 341.763574 
L 298.059957 338.186069 
L 302.288245 334.331374 
L 306.255221 330.211685 
L 309.946899 325.848623 
L 313.343315 321.256752 
L 316.429005 316.455801 
L 319.18564 311.46291 
L 321.595637 306.296661 
L 323.641405 300.976407 
L 325.305767 295.522696 
L 326.568872 289.955278 
L 327.408366 284.293983 
L 327.662202 281.434863 
L 327.801097 278.56031 
L 327.819829 275.672155 
L 327.719359 272.775732 
L 327.489759 269.870871 
L 327.130166 266.962384 
L 326.634963 264.052937 
L 325.998537 261.145571 
L 325.215292 258.243706 
L 324.274657 255.349219 
L 323.171022 252.466555 
L 321.898852 249.600541 
L 320.437401 246.751418 
L 318.786211 243.927152 
L 316.924459 241.129829 
L 314.836367 238.364392 
L 312.500969 235.635599 
L 309.892053 232.948483 
L 306.983373 230.309933 
L 303.73293 227.725625 
L 300.103929 225.205134 
L 296.022607 222.75477 
L 291.425663 220.387537 
L 286.207373 218.115687 
L 280.192696 215.951631 
L 273.222497 213.921493 
L 264.977647 212.051373 
L 255.085767 210.386973 
L 242.854011 208.988917 
L 227.752082 207.969217 
L 207.482544 207.338964 
L 221.146572 206.723499 
L 237.197467 205.504888 
L 250.478973 203.916848 
L 261.201377 202.084594 
L 270.005236 200.073489 
L 277.424171 197.91713 
L 283.724808 195.649122 
L 289.173458 193.284404 
L 293.982496 190.828615 
L 298.199843 188.304273 
L 301.952525 185.713782 
L 305.293462 183.06756 
L 308.28067 180.371015 
L 310.951079 177.631043 
L 313.336321 174.853428 
L 315.467886 172.041737 
L 317.366817 169.200651 
L 319.043914 166.336868 
L 320.525184 163.450826 
L 321.82127 160.546922 
L 322.937838 157.63082 
L 323.89053 154.703601 
L 324.684977 151.769628 
L 325.326867 148.832883 
L 325.83156 145.892262 
L 326.194991 142.955348 
L 326.422898 140.024982 
L 326.530387 137.098431 
L 326.51034 134.184539 
L 326.37264 131.282719 
L 326.119663 128.396276 
L 325.281268 122.679651 
L 324.019453 117.054826 
L 322.356287 111.541143 
L 320.312554 106.156911 
L 317.90263 100.924381 
L 315.14968 95.857152 
L 312.066739 90.976932 
L 308.675252 86.296588 
L 304.986376 81.839394 
L 301.019533 77.619707 
L 296.791443 73.654749 
L 292.319795 69.960696 
L 287.623187 66.552629 
L 282.721068 63.444487 
L 277.631153 60.653756 
L 272.372544 58.197037 
L 266.967874 56.085047 
L 261.43637 54.337079 
L 255.804702 52.956443 
L 250.09269 51.965102 
L 244.327133 51.368718 
L 238.531286 51.186939 
L 232.73196 51.433028 
L 229.840852 51.714999 
L 226.959495 52.108195 
L 224.091066 52.617808 
L 221.240457 53.239406 
L 218.411346 53.975833 
L 215.607577 54.830366 
L 212.833431 55.80404 
L 210.093207 56.898936 
L 207.39138 58.117111 
L 204.732603 59.460595 
L 202.121698 60.932449 
L 202.121698 60.932449 
" clip-path="url(#p4c7a7aa0ac)" style="fill: none; stroke-dasharray: 5.55,2.4; stroke-dashoffset: 0; stroke: #0000ff; stroke-width: 1.5"/>
   </g>
   <g id="patch_3">
    <path d="M 365.88375 207.477187 
C 365.88375 185.636245 361.581561 164.007679 353.223394 143.829279 
C 344.865227 123.650879 332.613628 105.315066 317.16975 89.871188 
C 301.725871 74.427309 283.390058 62.17571 263.211658 53.817544 
C 243.033259 45.459377 221.404692 41.157187 199.56375 41.157187 
C 177.722808 41.157187 156.094241 45.459377 135.915842 53.817544 
C 115.737442 62.17571 97.401629 74.427309 81.95775 89.871188 
C 66.513872 105.315066 54.262273 123.650879 45.904106 143.829279 
C 37.545939 164.007679 33.24375 185.636245 33.24375 207.477187 
C 33.24375 229.31813 37.545939 250.946696 45.904106 271.125096 
C 54.262273 291.303496 66.513872 309.639309 81.95775 325.083187 
C 97.401629 340.527066 115.737442 352.778665 135.915842 361.136831 
C 156.094241 369.494998 177.722808 373.797188 199.56375 373.797188 
C 221.404692 373.797188 243.033259 369.494998 263.211658 361.136831 
C 283.390058 352.778665 301.725871 340.527066 317.16975 325.083187 
C 332.613628 309.639309 344.865227 291.303496 353.223394 271.125096 
C 361.581561 250.946696 365.88375 229.31813 365.88375 207.477188 
" style="fill: none; stroke: #000000; stroke-width: 0.8; stroke-linejoin: miter; stroke-linecap: square"/>
   </g>
   <g id="text_19">
    <!-- Radiation Diagram - 2AVVF06 -->
    <g transform="translate(110.727187 16.318125)scale(0.12 -0.12)">
     <defs>
      <path id="DejaVuSans-52" d="M 2841 2188 
Q 3044 2119 3236 1894 
Q 3428 1669 3622 1275 
L 4263 0 
L 3584 0 
L 2988 1197 
Q 2756 1666 2539 1819 
Q 2322 1972 1947 1972 
L 1259 1972 
L 1259 0 
L 628 0 
L 628 4666 
L 2053 4666 
Q 2853 4666 3247 4331 
Q 3641 3997 3641 3322 
Q 3641 2881 3436 2590 
Q 3231 2300 2841 2188 
z
M 1259 4147 
L 1259 2491 
L 2053 2491 
Q 2509 2491 2742 2702 
Q 2975 2913 2975 3322 
Q 2975 3731 2742 3939 
Q 2509 4147 2053 4147 
L 1259 4147 
z
" transform="scale(0.015625)"/>
      <path id="DejaVuSans-61" d="M 2194 1759 
Q 1497 1759 1228 1600 
Q 959 1441 959 1056 
Q 959 750 1161 570 
Q 1363 391 1709 391 
Q 2188 391 2477 730 
Q 2766 1069 2766 1631 
L 2766 1759 
L 2194 1759 
z
M 3341 1997 
L 3341 0 
L 2766 0 
L 2766 531 
Q 2569 213 2275 61 
Q 1981 -91 1556 -91 
Q 1019 -91 701 211 
Q 384 513 384 1019 
Q 384 1609 779 1909 
Q 1175 2209 1959 2209 
L 2766 2209 
L 2766 2266 
Q 2766 2663 2505 2880 
Q 2244 3097 1772 3097 
Q 1472 3097 1187 3025 
Q 903 2953 641 2809 
L 641 3341 
Q 956 3463 1253 3523 
Q 1550 3584 1831 3584 
Q 2591 3584 2966 3190 
Q 3341 2797 3341 1997 
z
" transform="scale(0.015625)"/>
      <path id="DejaVuSans-64" d="M 2906 2969 
L 2906 4863 
L 3481 4863 
L 3481 0 
L 2906 0 
L 2906 525 
Q 2725 213 2448 61 
Q 2172 -91 1784 -91 
Q 1150 -91 751 415 
Q 353 922 353 1747 
Q 353 2572 751 3078 
Q 1150 3584 1784 3584 
Q 2172 3584 2448 3432 
Q 2725 3281 2906 2969 
z
M 947 1747 
Q 947 1113 1208 752 
Q 1469 391 1925 391 
Q 2381 391 2643 752 
Q 2906 1113 2906 1747 
Q 2906 2381 2643 2742 
Q 2381 3103 1925 3103 
Q 1469 3103 1208 2742 
Q 947 2381 947 1747 
z
" transform="scale(0.015625)"/>
      <path id="DejaVuSans-69" d="M 603 3500 
L 1178 3500 
L 1178 0 
L 603 0 
L 603 3500 
z
M 603 4863 
L 1178 4863 
L 1178 4134 
L 603 4134 
L 603 4863 
z
" transform="scale(0.015625)"/>
      <path id="DejaVuSans-74" d="M 1172 4494 
L 1172 3500 
L 2356 3500 
L 2356 3053 
L 1172 3053 
L 1172 1153 
Q 1172 725 1289 603 
Q 1406 481 1766 481 
L 2356 481 
L 2356 0 
L 1766 0 
Q 1100 0 847 248 
Q 594 497 594 1153 
L 594 3053 
L 172 3053 
L 172 3500 
L 594 3500 
L 594 4494 
L 1172 4494 
z
" transform="scale(0.015625)"/>
      <path id="DejaVuSans-6f" d="M 1959 3097 
Q 1497 3097 1228 2736 
Q 959 2375 959 1747 
Q 959 1119 1226 758 
Q 1494 397 1959 397 
Q 2419 397 2687 759 
Q 2956 1122 2956 1747 
Q 2956 2369 2687 2733 
Q 2419 3097 1959 3097 
z
M 1959 3584 
Q 2709 3584 3137 3096 
Q 3566 2609 3566 1747 
Q 3566 888 3137 398 
Q 2709 -91 1959 -91 
Q 1206 -91 779 398 
Q 353 888 353 1747 
Q 353 2609 779 3096 
Q 1206 3584 1959 3584 
z
" transform="scale(0.015625)"/>
      <path id="DejaVuSans-6e" d="M 3513 2113 
L 3513 0 
L 2938 0 
L 2938 2094 
Q 2938 2591 2744 2837 
Q 2550 3084 2163 3084 
Q 1697 3084 1428 2787 
Q 1159 2491 1159 1978 
L 1159 0 
L 581 0 
L 581 3500 
L 1159 3500 
L 1159 2956 
Q 1366 3272 1645 3428 
Q 1925 3584 2291 3584 
Q 2894 3584 3203 3211 
Q 3513 2838 3513 2113 
z
" transform="scale(0.015625)"/>
      <path id="DejaVuSans-20" transform="scale(0.015625)"/>
      <path id="DejaVuSans-44" d="M 1259 4147 
L 1259 519 
L 2022 519 
Q 2988 519 3436 956 
Q 3884 1394 3884 2338 
Q 3884 3275 3436 3711 
Q 2988 4147 2022 4147 
L 1259 4147 
z
M 628 4666 
L 1925 4666 
Q 3281 4666 3915 4102 
Q 4550 3538 4550 2338 
Q 4550 1131 3912 565 
Q 3275 0 1925 0 
L 628 0 
L 628 4666 
z
" transform="scale(0.015625)"/>
      <path id="DejaVuSans-67" d="M 2906 1791 
Q 2906 2416 2648 2759 
Q 2391 3103 1925 3103 
Q 1463 3103 1205 2759 
Q 947 2416 947 1791 
Q 947 1169 1205 825 
Q 1463 481 1925 481 
Q 2391 481 2648 825 
Q 2906 1169 2906 1791 
z
M 3481 434 
Q 3481 -459 3084 -895 
Q 2688 -1331 1869 -1331 
Q 1566 -1331 1297 -1286 
Q 1028 -1241 775 -1147 
L 775 -588 
Q 1028 -725 1275 -790 
Q 1522 -856 1778 -856 
Q 2344 -856 2625 -561 
Q 2906 -266 2906 331 
L 2906 616 
Q 2728 306 2450 153 
Q 2172 0 1784 0 
Q 1141 0 747 490 
Q 353 981 353 1791 
Q 353 2603 747 3093 
Q 1141 3584 1784 3584 
Q 2172 3584 2450 3431 
Q 2728 3278 2906 2969 
L 2906 3500 
L 3481 3500 
L 3481 434 
z
" transform="scale(0.015625)"/>
      <path id="DejaVuSans-72" d="M 2631 2963 
Q 2534 3019 2420 3045 
Q 2306 3072 2169 3072 
Q 1681 3072 1420 2755 
Q 1159 2438 1159 1844 
L 1159 0 
L 581 0 
L 581 3500 
L 1159 3500 
L 1159 2956 
Q 1341 3275 1631 3429 
Q 1922 3584 2338 3584 
Q 2397 3584 2469 3576 
Q 2541 3569 2628 3553 
L 2631 2963 
z
" transform="scale(0.015625)"/>
      <path id="DejaVuSans-6d" d="M 3328 2828 
Q 3544 3216 3844 3400 
Q 4144 3584 4550 3584 
Q 5097 3584 5394 3201 
Q 5691 2819 5691 2113 
L 5691 0 
L 5113 0 
L 5113 2094 
Q 5113 2597 4934 2840 
Q 4756 3084 4391 3084 
Q 3944 3084 3684 2787 
Q 3425 2491 3425 1978 
L 3425 0 
L 2847 0 
L 2847 2094 
Q 2847 2600 2669 2842 
Q 2491 3084 2119 3084 
Q 1678 3084 1418 2786 
Q 1159 2488 1159 1978 
L 1159 0 
L 581 0 
L 581 3500 
L 1159 3500 
L 1159 2956 
Q 1356 3278 1631 3431 
Q 1906 3584 2284 3584 
Q 2666 3584 2933 3390 
Q 3200 3197 3328 2828 
z
" transform="scale(0.015625)"/>
      <path id="DejaVuSans-2d" d="M 313 2009 
L 1997 2009 
L 1997 1497 
L 313 1497 
L 313 2009 
z
" transform="scale(0.015625)"/>
      <path id="DejaVuSans-41" d="M 2188 4044 
L 1331 1722 
L 3047 1722 
L 2188 4044 
z
M 1831 4666 
L 2547 4666 
L 4325 0 
L 3669 0 
L 3244 1197 
L 1141 1197 
L 716 0 
L 50 0 
L 1831 4666 
z
" transform="scale(0.015625)"/>
      <path id="DejaVuSans-56" d="M 1831 0 
L 50 4666 
L 709 4666 
L 2188 738 
L 3669 4666 
L 4325 4666 
L 2547 0 
L 1831 0 
z
" transform="scale(0.015625)"/>
      <path id="DejaVuSans-46" d="M 628 4666 
L 3309 4666 
L 3309 4134 
L 1259 4134 
L 1259 2759 
L 3109 2759 
L 3109 2228 
L 1259 2228 
L 1259 0 
L 628 0 
L 628 4666 
z
" transform="scale(0.015625)"/>
     </defs>
     <use xlink:href="#DejaVuSans-52"/>
     <use xlink:href="#DejaVuSans-61" x="67.232422"/>
     <use xlink:href="#DejaVuSans-64" x="128.511719"/>
     <use xlink:href="#DejaVuSans-69" x="191.988281"/>
     <use xlink:href="#DejaVuSans-61" x="219.771484"/>
     <use xlink:href="#DejaVuSans-74" x="281.050781"/>
     <use xlink:href="#DejaVuSans-69" x="320.259766"/>
     <use xlink:href="#DejaVuSans-6f" x="348.042969"/>
     <use xlink:href="#DejaVuSans-6e" x="409.224609"/>
     <use xlink:href="#DejaVuSans-20" x="472.603516"/>
     <use xlink:href="#DejaVuSans-44" x="504.390625"/>
     <use xlink:href="#DejaVuSans-69" x="581.392578"/>
     <use xlink:href="#DejaVuSans-61" x="609.175781"/>
     <use xlink:href="#DejaVuSans-67" x="670.455078"/>
     <use xlink:href="#DejaVuSans-72" x="733.931641"/>
     <use xlink:href="#DejaVuSans-61" x="775.044922"/>
     <use xlink:href="#DejaVuSans-6d" x="836.324219"/>
     <use xlink:href="#DejaVuSans-20" x="933.736328"/>
     <use xlink:href="#DejaVuSans-2d" x="965.523438"/>
     <use xlink:href="#DejaVuSans-20" x="1001.607422"/>
     <use xlink:href="#DejaVuSans-32" x="1033.394531"/>
     <use xlink:href="#DejaVuSans-41" x="1097.017578"/>
     <use xlink:href="#DejaVuSans-56" x="1159.050781"/>
     <use xlink:href="#DejaVuSans-56" x="1227.458984"/>
     <use xlink:href="#DejaVuSans-46" x="1295.867188"/>
     <use xlink:href="#DejaVuSans-30" x="1353.386719"/>
     <use xlink:href="#DejaVuSans-36" x="1417.009766"/>
    </g>
   </g>
   <g id="legend_1">
    <g id="patch_4">
     <path d="M 304.104062 78.513437 
L 358.88375 78.513437 
Q 360.88375 78.513437 360.88375 76.513437 
L 360.88375 48.157187 
Q 360.88375 46.157187 358.88375 46.157187 
L 304.104062 46.157187 
Q 302.104062 46.157187 302.104062 48.157187 
L 302.104062 76.513437 
Q 302.104062 78.513437 304.104062 78.513437 
z
" style="fill: #ffffff; opacity: 0.8; stroke: #cccccc; stroke-linejoin: miter"/>
    </g>
    <g id="line2d_21">
     <path d="M 306.104062 54.255625 
L 316.104062 54.255625 
L 326.104062 54.255625 
" style="fill: none; stroke: #ff0000; stroke-width: 1.5; stroke-linecap: square"/>
    </g>
    <g id="text_20">
     <!-- INPE -->
     <g transform="translate(334.104062 57.755625)scale(0.1 -0.1)">
      <defs>
       <path id="DejaVuSans-49" d="M 628 4666 
L 1259 4666 
L 1259 0 
L 628 0 
L 628 4666 
z
" transform="scale(0.015625)"/>
       <path id="DejaVuSans-4e" d="M 628 4666 
L 1478 4666 
L 3547 763 
L 3547 4666 
L 4159 4666 
L 4159 0 
L 3309 0 
L 1241 3903 
L 1241 0 
L 628 0 
L 628 4666 
z
" transform="scale(0.015625)"/>
       <path id="DejaVuSans-50" d="M 1259 4147 
L 1259 2394 
L 2053 2394 
Q 2494 2394 2734 2622 
Q 2975 2850 2975 3272 
Q 2975 3691 2734 3919 
Q 2494 4147 2053 4147 
L 1259 4147 
z
M 628 4666 
L 2053 4666 
Q 2838 4666 3239 4311 
Q 3641 3956 3641 3272 
Q 3641 2581 3239 2228 
Q 2838 1875 2053 1875 
L 1259 1875 
L 1259 0 
L 628 0 
L 628 4666 
z
" transform="scale(0.015625)"/>
       <path id="DejaVuSans-45" d="M 628 4666 
L 3578 4666 
L 3578 4134 
L 1259 4134 
L 1259 2753 
L 3481 2753 
L 3481 2222 
L 1259 2222 
L 1259 531 
L 3634 531 
L 3634 0 
L 628 0 
L 628 4666 
z
" transform="scale(0.015625)"/>
      </defs>
      <use xlink:href="#DejaVuSans-49"/>
      <use xlink:href="#DejaVuSans-4e" x="29.492188"/>
      <use xlink:href="#DejaVuSans-50" x="104.296875"/>
      <use xlink:href="#DejaVuSans-45" x="164.599609"/>
     </g>
    </g>
    <g id="line2d_22">
     <path d="M 306.104062 68.93375 
L 316.104062 68.93375 
L 326.104062 68.93375 
" style="fill: none; stroke-dasharray: 5.55,2.4; stroke-dashoffset: 0; stroke: #0000ff; stroke-width: 1.5"/>
    </g>
    <g id="text_21">
     <!-- CST -->
     <g transform="translate(334.104062 72.43375)scale(0.1 -0.1)">
      <defs>
       <path id="DejaVuSans-43" d="M 4122 4306 
L 4122 3641 
Q 3803 3938 3442 4084 
Q 3081 4231 2675 4231 
Q 1875 4231 1450 3742 
Q 1025 3253 1025 2328 
Q 1025 1406 1450 917 
Q 1875 428 2675 428 
Q 3081 428 3442 575 
Q 3803 722 4122 1019 
L 4122 359 
Q 3791 134 3420 21 
Q 3050 -91 2638 -91 
Q 1578 -91 968 557 
Q 359 1206 359 2328 
Q 359 3453 968 4101 
Q 1578 4750 2638 4750 
Q 3056 4750 3426 4639 
Q 3797 4528 4122 4306 
z
" transform="scale(0.015625)"/>
       <path id="DejaVuSans-53" d="M 3425 4513 
L 3425 3897 
Q 3066 4069 2747 4153 
Q 2428 4238 2131 4238 
Q 1616 4238 1336 4038 
Q 1056 3838 1056 3469 
Q 1056 3159 1242 3001 
Q 1428 2844 1947 2747 
L 2328 2669 
Q 3034 2534 3370 2195 
Q 3706 1856 3706 1288 
Q 3706 609 3251 259 
Q 2797 -91 1919 -91 
Q 1588 -91 1214 -16 
Q 841 59 441 206 
L 441 856 
Q 825 641 1194 531 
Q 1563 422 1919 422 
Q 2459 422 2753 634 
Q 3047 847 3047 1241 
Q 3047 1584 2836 1778 
Q 2625 1972 2144 2069 
L 1759 2144 
Q 1053 2284 737 2584 
Q 422 2884 422 3419 
Q 422 4038 858 4394 
Q 1294 4750 2059 4750 
Q 2388 4750 2728 4690 
Q 3069 4631 3425 4513 
z
" transform="scale(0.015625)"/>
       <path id="DejaVuSans-54" d="M -19 4666 
L 3928 4666 
L 3928 4134 
L 2272 4134 
L 2272 0 
L 1638 0 
L 1638 4134 
L -19 4134 
L -19 4666 
z
" transform="scale(0.015625)"/>
      </defs>
      <use xlink:href="#DejaVuSans-43"/>
      <use xlink:href="#DejaVuSans-53" x="69.824219"/>
      <use xlink:href="#DejaVuSans-54" x="133.300781"/>
     </g>
    </g>
   </g>
  </g>
 </g>
 <defs>
  <clipPath id="p4c7a7aa0ac">
   <path d="M 365.88375 207.477187 
C 365.88375 185.636245 361.581561 164.007679 353.223394 143.829279 
C 344.865227 123.650879 332.613628 105.315066 317.16975 89.871188 
C 301.725871 74.427309 283.390058 62.17571 263.211658 53.817544 
C 243.033259 45.459377 221.404692 41.157187 199.56375 41.157187 
C 177.722808 41.157187 156.094241 45.459377 135.915842 53.817544 
C 115.737442 62.17571 97.401629 74.427309 81.95775 89.871188 
C 66.513872 105.315066 54.262273 123.650879 45.904106 143.829279 
C 37.545939 164.007679 33.24375 185.636245 33.24375 207.477187 
C 33.24375 229.31813 37.545939 250.946696 45.904106 271.125096 
C 54.262273 291.303496 66.513872 309.639309 81.95775 325.083187 
C 97.401629 340.527066 115.737442 352.778665 135.915842 361.136831 
C 156.094241 369.494998 177.722808 373.797188 199.56375 373.797188 
C 221.404692 373.797188 243.033259 369.494998 263.211658 361.136831 
C 283.390058 352.778665 301.725871 340.527066 317.16975 325.083187 
C 332.613628 309.639309 344.865227 291.303496 353.223394 271.125096 
C 361.581561 250.946696 365.88375 229.31813 365.88375 207.477188 
M 199.56375 207.477187 
C 199.56375 207.477187 199.56375 207.477187 199.56375 207.477187 
C 199.56375 207.477187 199.56375 207.477187 199.56375 207.477187 
C 199.56375 207.477187 199.56375 207.477187 199.56375 207.477187 
C 199.56375 207.477187 199.56375 207.477187 199.56375 207.477187 
C 199.56375 207.477187 199.56375 207.477187 199.56375 207.477187 
C 199.56375 207.477187 199.56375 207.477187 199.56375 207.477187 
C 199.56375 207.477187 199.56375 207.477187 199.56375 207.477187 
C 199.56375 207.477187 199.56375 207.477187 199.56375 207.477187 
C 199.56375 207.477187 199.56375 207.477187 199.56375 207.477187 
C 199.56375 207.477187 199.56375 207.477187 199.56375 207.477187 
C 199.56375 207.477187 199.56375 207.477187 199.56375 207.477187 
C 199.56375 207.477187 199.56375 207.477187 199.56375 207.477187 
C 199.56375 207.477187 199.56375 207.477187 199.56375 207.477187 
C 199.56375 207.477187 199.56375 207.477187 199.56375 207.477187 
C 199.56375 207.477187 199.56375 207.477187 199.56375 207.477187 
C 199.56375 207.477187 199.56375 207.477187 199.56375 207.477187 
M 365.88375 207.477187 
z
"/>
  </clipPath>
 </defs>
</svg>
