<?xml version="1.0" encoding="utf-8" standalone="no"?>
<!DOCTYPE svg PUBLIC "-//W3C//DTD SVG 1.1//EN"
  "http://www.w3.org/Graphics/SVG/1.1/DTD/svg11.dtd">
<svg xmlns:xlink="http://www.w3.org/1999/xlink" width="506.82625pt" height="514.053188pt" viewBox="0 0 506.82625 514.053188" xmlns="http://www.w3.org/2000/svg" version="1.1">
 <metadata>
  <rdf:RDF xmlns:dc="http://purl.org/dc/elements/1.1/" xmlns:cc="http://creativecommons.org/ns#" xmlns:rdf="http://www.w3.org/1999/02/22-rdf-syntax-ns#">
   <cc:Work>
    <dc:type rdf:resource="http://purl.org/dc/dcmitype/StillImage"/>
    <dc:date>2023-11-04T18:08:34.043374</dc:date>
    <dc:format>image/svg+xml</dc:format>
    <dc:creator>
     <cc:Agent>
      <dc:title>Matplotlib v3.5.1, https://matplotlib.org/</dc:title>
     </cc:Agent>
    </dc:creator>
   </cc:Work>
  </rdf:RDF>
 </metadata>
 <defs>
  <style type="text/css">*{stroke-linejoin: round; stroke-linecap: butt}</style>
 </defs>
 <g id="figure_1">
  <g id="patch_1">
   <path d="M 0 514.053188 
L 506.82625 514.053188 
L 506.82625 0 
L 0 0 
z
" style="fill: #ffffff"/>
  </g>
  <g id="axes_1">
   <g id="patch_2">
    <path d="M 473.5825 262.917188 
C 473.5825 233.795931 467.846247 204.957842 456.702025 178.05331 
C 445.557803 151.148777 429.222338 126.701026 408.6305 106.109188 
C 388.038662 85.51735 363.590911 69.181885 336.686378 58.037662 
C 309.781845 46.89344 280.943756 41.157188 251.8225 41.157188 
C 222.701244 41.157188 193.863155 46.89344 166.958622 58.037662 
C 140.054089 69.181885 115.606338 85.51735 95.0145 106.109188 
C 74.422662 126.701026 58.087197 151.148777 46.942975 178.05331 
C 35.798753 204.957842 30.0625 233.795931 30.0625 262.917188 
C 30.0625 292.038444 35.798753 320.876533 46.942975 347.781065 
C 58.087197 374.685598 74.422662 399.133349 95.0145 419.725187 
C 115.606338 440.317025 140.054089 456.65249 166.958622 467.796713 
C 193.863155 478.940935 222.701244 484.677188 251.8225 484.677188 
C 280.943756 484.677188 309.781845 478.940935 336.686378 467.796713 
C 363.590911 456.65249 388.038662 440.317025 408.6305 419.725187 
C 429.222338 399.133349 445.557803 374.685598 456.702025 347.781065 
C 467.846247 320.876533 473.5825 292.038444 473.5825 262.917188 
M 251.8225 262.917188 
C 251.8225 262.917188 251.8225 262.917188 251.8225 262.917188 
C 251.8225 262.917188 251.8225 262.917188 251.8225 262.917188 
C 251.8225 262.917188 251.8225 262.917188 251.8225 262.917188 
C 251.8225 262.917188 251.8225 262.917188 251.8225 262.917188 
C 251.8225 262.917188 251.8225 262.917188 251.8225 262.917188 
C 251.8225 262.917188 251.8225 262.917188 251.8225 262.917188 
C 251.8225 262.917188 251.8225 262.917188 251.8225 262.917188 
C 251.8225 262.917188 251.8225 262.917188 251.8225 262.917188 
C 251.8225 262.917188 251.8225 262.917188 251.8225 262.917188 
C 251.8225 262.917188 251.8225 262.917188 251.8225 262.917188 
C 251.8225 262.917188 251.8225 262.917188 251.8225 262.917188 
C 251.8225 262.917188 251.8225 262.917188 251.8225 262.917188 
C 251.8225 262.917188 251.8225 262.917188 251.8225 262.917188 
C 251.8225 262.917188 251.8225 262.917188 251.8225 262.917188 
C 251.8225 262.917188 251.8225 262.917188 251.8225 262.917188 
C 251.8225 262.917188 251.8225 262.917188 251.8225 262.917188 
M 473.5825 262.917188 
z
" style="fill: #ffffff"/>
   </g>
   <g id="matplotlib.axis_1">
    <g id="xtick_1">
     <g id="line2d_1">
      <path d="M 251.8225 262.917188 
L 251.8225 41.157188 
" clip-path="url(#pd386ce62d0)" style="fill: none; stroke: #b0b0b0; stroke-width: 0.8; stroke-linecap: square"/>
     </g>
     <g id="text_1">
      <!-- 0° -->
      <g transform="translate(246.14125 29.916563)scale(0.1 -0.1)">
       <defs>
        <path id="DejaVuSans-30" d="M 2034 4250 
Q 1547 4250 1301 3770 
Q 1056 3291 1056 2328 
Q 1056 1369 1301 889 
Q 1547 409 2034 409 
Q 2525 409 2770 889 
Q 3016 1369 3016 2328 
Q 3016 3291 2770 3770 
Q 2525 4250 2034 4250 
z
M 2034 4750 
Q 2819 4750 3233 4129 
Q 3647 3509 3647 2328 
Q 3647 1150 3233 529 
Q 2819 -91 2034 -91 
Q 1250 -91 836 529 
Q 422 1150 422 2328 
Q 422 3509 836 4129 
Q 1250 4750 2034 4750 
z
" transform="scale(0.015625)"/>
        <path id="DejaVuSans-b0" d="M 1600 4347 
Q 1350 4347 1178 4173 
Q 1006 4000 1006 3750 
Q 1006 3503 1178 3333 
Q 1350 3163 1600 3163 
Q 1850 3163 2022 3333 
Q 2194 3503 2194 3750 
Q 2194 3997 2020 4172 
Q 1847 4347 1600 4347 
z
M 1600 4750 
Q 1800 4750 1984 4673 
Q 2169 4597 2303 4453 
Q 2447 4313 2519 4134 
Q 2591 3956 2591 3750 
Q 2591 3338 2302 3052 
Q 2013 2766 1594 2766 
Q 1172 2766 890 3047 
Q 609 3328 609 3750 
Q 609 4169 896 4459 
Q 1184 4750 1600 4750 
z
" transform="scale(0.015625)"/>
       </defs>
       <use xlink:href="#DejaVuSans-30"/>
       <use xlink:href="#DejaVuSans-b0" x="63.623047"/>
      </g>
     </g>
    </g>
    <g id="xtick_2">
     <g id="line2d_2">
      <path d="M 251.8225 262.917188 
L 95.0145 106.109188 
" clip-path="url(#pd386ce62d0)" style="fill: none; stroke: #b0b0b0; stroke-width: 0.8; stroke-linecap: square"/>
     </g>
     <g id="text_2">
      <!-- 45° -->
      <g transform="translate(76.252505 98.969068)scale(0.1 -0.1)">
       <defs>
        <path id="DejaVuSans-34" d="M 2419 4116 
L 825 1625 
L 2419 1625 
L 2419 4116 
z
M 2253 4666 
L 3047 4666 
L 3047 1625 
L 3713 1625 
L 3713 1100 
L 3047 1100 
L 3047 0 
L 2419 0 
L 2419 1100 
L 313 1100 
L 313 1709 
L 2253 4666 
z
" transform="scale(0.015625)"/>
        <path id="DejaVuSans-35" d="M 691 4666 
L 3169 4666 
L 3169 4134 
L 1269 4134 
L 1269 2991 
Q 1406 3038 1543 3061 
Q 1681 3084 1819 3084 
Q 2600 3084 3056 2656 
Q 3513 2228 3513 1497 
Q 3513 744 3044 326 
Q 2575 -91 1722 -91 
Q 1428 -91 1123 -41 
Q 819 9 494 109 
L 494 744 
Q 775 591 1075 516 
Q 1375 441 1709 441 
Q 2250 441 2565 725 
Q 2881 1009 2881 1497 
Q 2881 1984 2565 2268 
Q 2250 2553 1709 2553 
Q 1456 2553 1204 2497 
Q 953 2441 691 2322 
L 691 4666 
z
" transform="scale(0.015625)"/>
       </defs>
       <use xlink:href="#DejaVuSans-34"/>
       <use xlink:href="#DejaVuSans-35" x="63.623047"/>
       <use xlink:href="#DejaVuSans-b0" x="127.246094"/>
      </g>
     </g>
    </g>
    <g id="xtick_3">
     <g id="line2d_3">
      <path d="M 251.8225 262.917188 
L 30.0625 262.917188 
" clip-path="url(#pd386ce62d0)" style="fill: none; stroke: #b0b0b0; stroke-width: 0.8; stroke-linecap: square"/>
     </g>
     <g id="text_3">
      <!-- 90° -->
      <g transform="translate(7.2 265.676563)scale(0.1 -0.1)">
       <defs>
        <path id="DejaVuSans-39" d="M 703 97 
L 703 672 
Q 941 559 1184 500 
Q 1428 441 1663 441 
Q 2288 441 2617 861 
Q 2947 1281 2994 2138 
Q 2813 1869 2534 1725 
Q 2256 1581 1919 1581 
Q 1219 1581 811 2004 
Q 403 2428 403 3163 
Q 403 3881 828 4315 
Q 1253 4750 1959 4750 
Q 2769 4750 3195 4129 
Q 3622 3509 3622 2328 
Q 3622 1225 3098 567 
Q 2575 -91 1691 -91 
Q 1453 -91 1209 -44 
Q 966 3 703 97 
z
M 1959 2075 
Q 2384 2075 2632 2365 
Q 2881 2656 2881 3163 
Q 2881 3666 2632 3958 
Q 2384 4250 1959 4250 
Q 1534 4250 1286 3958 
Q 1038 3666 1038 3163 
Q 1038 2656 1286 2365 
Q 1534 2075 1959 2075 
z
" transform="scale(0.015625)"/>
       </defs>
       <use xlink:href="#DejaVuSans-39"/>
       <use xlink:href="#DejaVuSans-30" x="63.623047"/>
       <use xlink:href="#DejaVuSans-b0" x="127.246094"/>
      </g>
     </g>
    </g>
    <g id="xtick_4">
     <g id="line2d_4">
      <path d="M 251.8225 262.917188 
L 95.0145 419.725187 
" clip-path="url(#pd386ce62d0)" style="fill: none; stroke: #b0b0b0; stroke-width: 0.8; stroke-linecap: square"/>
     </g>
     <g id="text_4">
      <!-- 135° -->
      <g transform="translate(73.071255 432.384057)scale(0.1 -0.1)">
       <defs>
        <path id="DejaVuSans-31" d="M 794 531 
L 1825 531 
L 1825 4091 
L 703 3866 
L 703 4441 
L 1819 4666 
L 2450 4666 
L 2450 531 
L 3481 531 
L 3481 0 
L 794 0 
L 794 531 
z
" transform="scale(0.015625)"/>
        <path id="DejaVuSans-33" d="M 2597 2516 
Q 3050 2419 3304 2112 
Q 3559 1806 3559 1356 
Q 3559 666 3084 287 
Q 2609 -91 1734 -91 
Q 1441 -91 1130 -33 
Q 819 25 488 141 
L 488 750 
Q 750 597 1062 519 
Q 1375 441 1716 441 
Q 2309 441 2620 675 
Q 2931 909 2931 1356 
Q 2931 1769 2642 2001 
Q 2353 2234 1838 2234 
L 1294 2234 
L 1294 2753 
L 1863 2753 
Q 2328 2753 2575 2939 
Q 2822 3125 2822 3475 
Q 2822 3834 2567 4026 
Q 2313 4219 1838 4219 
Q 1578 4219 1281 4162 
Q 984 4106 628 3988 
L 628 4550 
Q 988 4650 1302 4700 
Q 1616 4750 1894 4750 
Q 2613 4750 3031 4423 
Q 3450 4097 3450 3541 
Q 3450 3153 3228 2886 
Q 3006 2619 2597 2516 
z
" transform="scale(0.015625)"/>
       </defs>
       <use xlink:href="#DejaVuSans-31"/>
       <use xlink:href="#DejaVuSans-33" x="63.623047"/>
       <use xlink:href="#DejaVuSans-35" x="127.246094"/>
       <use xlink:href="#DejaVuSans-b0" x="190.869141"/>
      </g>
     </g>
    </g>
    <g id="xtick_5">
     <g id="line2d_5">
      <path d="M 251.8225 262.917188 
L 251.8225 484.677188 
" clip-path="url(#pd386ce62d0)" style="fill: none; stroke: #b0b0b0; stroke-width: 0.8; stroke-linecap: square"/>
     </g>
     <g id="text_5">
      <!-- 180° -->
      <g transform="translate(239.77875 501.436563)scale(0.1 -0.1)">
       <defs>
        <path id="DejaVuSans-38" d="M 2034 2216 
Q 1584 2216 1326 1975 
Q 1069 1734 1069 1313 
Q 1069 891 1326 650 
Q 1584 409 2034 409 
Q 2484 409 2743 651 
Q 3003 894 3003 1313 
Q 3003 1734 2745 1975 
Q 2488 2216 2034 2216 
z
M 1403 2484 
Q 997 2584 770 2862 
Q 544 3141 544 3541 
Q 544 4100 942 4425 
Q 1341 4750 2034 4750 
Q 2731 4750 3128 4425 
Q 3525 4100 3525 3541 
Q 3525 3141 3298 2862 
Q 3072 2584 2669 2484 
Q 3125 2378 3379 2068 
Q 3634 1759 3634 1313 
Q 3634 634 3220 271 
Q 2806 -91 2034 -91 
Q 1263 -91 848 271 
Q 434 634 434 1313 
Q 434 1759 690 2068 
Q 947 2378 1403 2484 
z
M 1172 3481 
Q 1172 3119 1398 2916 
Q 1625 2713 2034 2713 
Q 2441 2713 2670 2916 
Q 2900 3119 2900 3481 
Q 2900 3844 2670 4047 
Q 2441 4250 2034 4250 
Q 1625 4250 1398 4047 
Q 1172 3844 1172 3481 
z
" transform="scale(0.015625)"/>
       </defs>
       <use xlink:href="#DejaVuSans-31"/>
       <use xlink:href="#DejaVuSans-38" x="63.623047"/>
       <use xlink:href="#DejaVuSans-30" x="127.246094"/>
       <use xlink:href="#DejaVuSans-b0" x="190.869141"/>
      </g>
     </g>
    </g>
    <g id="xtick_6">
     <g id="line2d_6">
      <path d="M 251.8225 262.917188 
L 408.6305 419.725187 
" clip-path="url(#pd386ce62d0)" style="fill: none; stroke: #b0b0b0; stroke-width: 0.8; stroke-linecap: square"/>
     </g>
     <g id="text_6">
      <!-- 225° -->
      <g transform="translate(406.486245 432.384057)scale(0.1 -0.1)">
       <defs>
        <path id="DejaVuSans-32" d="M 1228 531 
L 3431 531 
L 3431 0 
L 469 0 
L 469 531 
Q 828 903 1448 1529 
Q 2069 2156 2228 2338 
Q 2531 2678 2651 2914 
Q 2772 3150 2772 3378 
Q 2772 3750 2511 3984 
Q 2250 4219 1831 4219 
Q 1534 4219 1204 4116 
Q 875 4013 500 3803 
L 500 4441 
Q 881 4594 1212 4672 
Q 1544 4750 1819 4750 
Q 2544 4750 2975 4387 
Q 3406 4025 3406 3419 
Q 3406 3131 3298 2873 
Q 3191 2616 2906 2266 
Q 2828 2175 2409 1742 
Q 1991 1309 1228 531 
z
" transform="scale(0.015625)"/>
       </defs>
       <use xlink:href="#DejaVuSans-32"/>
       <use xlink:href="#DejaVuSans-32" x="63.623047"/>
       <use xlink:href="#DejaVuSans-35" x="127.246094"/>
       <use xlink:href="#DejaVuSans-b0" x="190.869141"/>
      </g>
     </g>
    </g>
    <g id="xtick_7">
     <g id="line2d_7">
      <path d="M 251.8225 262.917188 
L 473.5825 262.917188 
" clip-path="url(#pd386ce62d0)" style="fill: none; stroke: #b0b0b0; stroke-width: 0.8; stroke-linecap: square"/>
     </g>
     <g id="text_7">
      <!-- 270° -->
      <g transform="translate(475.53875 265.676563)scale(0.1 -0.1)">
       <defs>
        <path id="DejaVuSans-37" d="M 525 4666 
L 3525 4666 
L 3525 4397 
L 1831 0 
L 1172 0 
L 2766 4134 
L 525 4134 
L 525 4666 
z
" transform="scale(0.015625)"/>
       </defs>
       <use xlink:href="#DejaVuSans-32"/>
       <use xlink:href="#DejaVuSans-37" x="63.623047"/>
       <use xlink:href="#DejaVuSans-30" x="127.246094"/>
       <use xlink:href="#DejaVuSans-b0" x="190.869141"/>
      </g>
     </g>
    </g>
    <g id="xtick_8">
     <g id="line2d_8">
      <path d="M 251.8225 262.917188 
L 408.6305 106.109188 
" clip-path="url(#pd386ce62d0)" style="fill: none; stroke: #b0b0b0; stroke-width: 0.8; stroke-linecap: square"/>
     </g>
     <g id="text_8">
      <!-- 315° -->
      <g transform="translate(406.486245 98.969068)scale(0.1 -0.1)">
       <use xlink:href="#DejaVuSans-33"/>
       <use xlink:href="#DejaVuSans-31" x="63.623047"/>
       <use xlink:href="#DejaVuSans-35" x="127.246094"/>
       <use xlink:href="#DejaVuSans-b0" x="190.869141"/>
      </g>
     </g>
    </g>
   </g>
   <g id="matplotlib.axis_2">
    <g id="ytick_1">
     <g id="line2d_9">
      <path d="M 251.8225 259.526996 
C 251.377304 259.526996 250.936437 259.61469 250.52513 259.785059 
C 250.113823 259.955428 249.740074 260.205159 249.425273 260.51996 
C 249.110472 260.834761 248.860741 261.20851 248.690372 261.619817 
C 248.520003 262.031125 248.432309 262.471992 248.432309 262.917188 
C 248.432309 263.362383 248.520003 263.80325 248.690372 264.214558 
C 248.860741 264.625865 249.110472 264.999614 249.425273 265.314415 
C 249.740074 265.629216 250.113823 265.878947 250.52513 266.049316 
C 250.936437 266.219685 251.377304 266.307379 251.8225 266.307379 
C 252.267696 266.307379 252.708563 266.219685 253.11987 266.049316 
C 253.531177 265.878947 253.904926 265.629216 254.219727 265.314415 
C 254.534528 264.999614 254.784259 264.625865 254.954628 264.214558 
C 255.124997 263.80325 255.212691 263.362383 255.212691 262.917188 
C 255.212691 262.471992 255.124997 262.031125 254.954628 261.619817 
C 254.784259 261.20851 254.534528 260.834761 254.219727 260.51996 
C 253.904926 260.205159 253.531177 259.955428 253.11987 259.785059 
C 252.708563 259.61469 252.267696 259.526996 251.8225 259.526996 
" clip-path="url(#pd386ce62d0)" style="fill: none; stroke: #b0b0b0; stroke-width: 0.8; stroke-linecap: square"/>
     </g>
     <g id="text_9">
      <!-- −60 -->
      <g transform="translate(250.52513 257.705372)scale(0.1 -0.1)">
       <defs>
        <path id="DejaVuSans-2212" d="M 678 2272 
L 4684 2272 
L 4684 1741 
L 678 1741 
L 678 2272 
z
" transform="scale(0.015625)"/>
        <path id="DejaVuSans-36" d="M 2113 2584 
Q 1688 2584 1439 2293 
Q 1191 2003 1191 1497 
Q 1191 994 1439 701 
Q 1688 409 2113 409 
Q 2538 409 2786 701 
Q 3034 994 3034 1497 
Q 3034 2003 2786 2293 
Q 2538 2584 2113 2584 
z
M 3366 4563 
L 3366 3988 
Q 3128 4100 2886 4159 
Q 2644 4219 2406 4219 
Q 1781 4219 1451 3797 
Q 1122 3375 1075 2522 
Q 1259 2794 1537 2939 
Q 1816 3084 2150 3084 
Q 2853 3084 3261 2657 
Q 3669 2231 3669 1497 
Q 3669 778 3244 343 
Q 2819 -91 2113 -91 
Q 1303 -91 875 529 
Q 447 1150 447 2328 
Q 447 3434 972 4092 
Q 1497 4750 2381 4750 
Q 2619 4750 2861 4703 
Q 3103 4656 3366 4563 
z
" transform="scale(0.015625)"/>
       </defs>
       <use xlink:href="#DejaVuSans-2212"/>
       <use xlink:href="#DejaVuSans-36" x="83.789062"/>
       <use xlink:href="#DejaVuSans-30" x="147.412109"/>
      </g>
     </g>
    </g>
    <g id="ytick_2">
     <g id="line2d_10">
      <path d="M 251.8225 223.132028 
C 246.597961 223.132028 241.424224 224.161148 236.597379 226.160493 
C 231.770534 228.159838 227.384451 231.090524 223.690144 234.784831 
C 219.995837 238.479139 217.06515 242.865221 215.065806 247.692066 
C 213.066461 252.518911 212.037341 257.692648 212.037341 262.917188 
C 212.037341 268.141727 213.066461 273.315464 215.065806 278.142309 
C 217.06515 282.969154 219.995837 287.355236 223.690144 291.049544 
C 227.384451 294.743851 231.770534 297.674537 236.597379 299.673882 
C 241.424224 301.673227 246.597961 302.702347 251.8225 302.702347 
C 257.047039 302.702347 262.220776 301.673227 267.047621 299.673882 
C 271.874466 297.674537 276.260549 294.743851 279.954856 291.049544 
C 283.649163 287.355236 286.57985 282.969154 288.579194 278.142309 
C 290.578539 273.315464 291.607659 268.141727 291.607659 262.917188 
C 291.607659 257.692648 290.578539 252.518911 288.579194 247.692066 
C 286.57985 242.865221 283.649163 238.479139 279.954856 234.784831 
C 276.260549 231.090524 271.874466 228.159838 267.047621 226.160493 
C 262.220776 224.161148 257.047039 223.132028 251.8225 223.132028 
" clip-path="url(#pd386ce62d0)" style="fill: none; stroke: #b0b0b0; stroke-width: 0.8; stroke-linecap: square"/>
     </g>
     <g id="text_10">
      <!-- −50 -->
      <g transform="translate(236.597379 224.080806)scale(0.1 -0.1)">
       <use xlink:href="#DejaVuSans-2212"/>
       <use xlink:href="#DejaVuSans-35" x="83.789062"/>
       <use xlink:href="#DejaVuSans-30" x="147.412109"/>
      </g>
     </g>
    </g>
    <g id="ytick_3">
     <g id="line2d_11">
      <path d="M 251.8225 186.73706 
C 241.818617 186.73706 231.91201 188.707607 222.669627 192.535927 
C 213.427245 196.364247 205.028829 201.975889 197.955015 209.049703 
C 190.881202 216.123516 185.26956 224.521932 181.441239 233.764315 
C 177.612919 243.006697 175.642372 252.913305 175.642372 262.917188 
C 175.642372 272.92107 177.612919 282.827678 181.441239 292.07006 
C 185.26956 301.312443 190.881202 309.710859 197.955015 316.784672 
C 205.028829 323.858486 213.427245 329.470128 222.669627 333.298448 
C 231.91201 337.126768 241.818617 339.097315 251.8225 339.097315 
C 261.826383 339.097315 271.73299 337.126768 280.975373 333.298448 
C 290.217755 329.470128 298.616171 323.858486 305.689985 316.784672 
C 312.763798 309.710859 318.37544 301.312443 322.203761 292.07006 
C 326.032081 282.827678 328.002628 272.92107 328.002628 262.917188 
C 328.002628 252.913305 326.032081 243.006697 322.203761 233.764315 
C 318.37544 224.521932 312.763798 216.123516 305.689985 209.049703 
C 298.616171 201.975889 290.217755 196.364247 280.975373 192.535927 
C 271.73299 188.707607 261.826383 186.73706 251.8225 186.73706 
" clip-path="url(#pd386ce62d0)" style="fill: none; stroke: #b0b0b0; stroke-width: 0.8; stroke-linecap: square"/>
     </g>
     <g id="text_11">
      <!-- −40 -->
      <g transform="translate(222.669627 190.456239)scale(0.1 -0.1)">
       <use xlink:href="#DejaVuSans-2212"/>
       <use xlink:href="#DejaVuSans-34" x="83.789062"/>
       <use xlink:href="#DejaVuSans-30" x="147.412109"/>
      </g>
     </g>
    </g>
    <g id="ytick_4">
     <g id="line2d_12">
      <path d="M 251.8225 150.342092 
C 237.039274 150.342092 222.399796 153.254065 208.741876 158.911361 
C 195.083956 164.568656 182.673206 172.861255 172.219886 183.314574 
C 161.766567 193.767893 153.473969 206.178643 147.816673 219.836564 
C 142.159378 233.494484 139.247404 248.133961 139.247404 262.917188 
C 139.247404 277.700414 142.159378 292.339891 147.816673 305.997811 
C 153.473969 319.655732 161.766567 332.066482 172.219886 342.519801 
C 182.673206 352.97312 195.083956 361.265719 208.741876 366.923014 
C 222.399796 372.58031 237.039274 375.492283 251.8225 375.492283 
C 266.605726 375.492283 281.245204 372.58031 294.903124 366.923014 
C 308.561044 361.265719 320.971794 352.97312 331.425114 342.519801 
C 341.878433 332.066482 350.171031 319.655732 355.828327 305.997811 
C 361.485622 292.339891 364.397596 277.700414 364.397596 262.917188 
C 364.397596 248.133961 361.485622 233.494484 355.828327 219.836564 
C 350.171031 206.178643 341.878433 193.767893 331.425114 183.314574 
C 320.971794 172.861255 308.561044 164.568656 294.903124 158.911361 
C 281.245204 153.254065 266.605726 150.342092 251.8225 150.342092 
" clip-path="url(#pd386ce62d0)" style="fill: none; stroke: #b0b0b0; stroke-width: 0.8; stroke-linecap: square"/>
     </g>
     <g id="text_12">
      <!-- −30 -->
      <g transform="translate(208.741876 156.831673)scale(0.1 -0.1)">
       <use xlink:href="#DejaVuSans-2212"/>
       <use xlink:href="#DejaVuSans-33" x="83.789062"/>
       <use xlink:href="#DejaVuSans-30" x="147.412109"/>
      </g>
     </g>
    </g>
    <g id="ytick_5">
     <g id="line2d_13">
      <path d="M 251.8225 113.947124 
C 232.25993 113.947124 212.887582 117.800523 194.814125 125.286795 
C 176.740667 132.773066 160.317583 143.74662 146.484758 157.579445 
C 132.651932 171.412271 121.678378 187.835355 114.192107 205.908812 
C 106.705836 223.98227 102.852436 243.354618 102.852436 262.917188 
C 102.852436 282.479757 106.705836 301.852105 114.192107 319.925563 
C 121.678378 337.99902 132.651932 354.422104 146.484758 368.25493 
C 160.317583 382.087755 176.740667 393.061309 194.814125 400.54758 
C 212.887582 408.033852 232.25993 411.887251 251.8225 411.887251 
C 271.38507 411.887251 290.757418 408.033852 308.830875 400.54758 
C 326.904333 393.061309 343.327417 382.087755 357.160242 368.25493 
C 370.993068 354.422104 381.966622 337.99902 389.452893 319.925563 
C 396.939164 301.852105 400.792564 282.479757 400.792564 262.917188 
C 400.792564 243.354618 396.939164 223.98227 389.452893 205.908812 
C 381.966622 187.835355 370.993068 171.412271 357.160242 157.579445 
C 343.327417 143.74662 326.904333 132.773066 308.830875 125.286795 
C 290.757418 117.800523 271.38507 113.947124 251.8225 113.947124 
" clip-path="url(#pd386ce62d0)" style="fill: none; stroke: #b0b0b0; stroke-width: 0.8; stroke-linecap: square"/>
     </g>
     <g id="text_13">
      <!-- −20 -->
      <g transform="translate(194.814125 123.207107)scale(0.1 -0.1)">
       <use xlink:href="#DejaVuSans-2212"/>
       <use xlink:href="#DejaVuSans-32" x="83.789062"/>
       <use xlink:href="#DejaVuSans-30" x="147.412109"/>
      </g>
     </g>
    </g>
    <g id="ytick_6">
     <g id="line2d_14">
      <path d="M 251.8225 77.552156 
C 227.480587 77.552156 203.375369 82.346982 180.886373 91.662229 
C 158.397378 100.977475 137.961961 114.631985 120.749629 131.844316 
C 103.537297 149.056648 89.882788 169.492066 80.567541 191.981061 
C 71.252294 214.470056 66.457468 238.575275 66.457468 262.917188 
C 66.457468 287.2591 71.252294 311.364319 80.567541 333.853314 
C 89.882788 356.342309 103.537297 376.777727 120.749629 393.990059 
C 137.961961 411.20239 158.397378 424.8569 180.886373 434.172146 
C 203.375369 443.487393 227.480587 448.282219 251.8225 448.282219 
C 276.164413 448.282219 300.269631 443.487393 322.758627 434.172146 
C 345.247622 424.8569 365.683039 411.20239 382.895371 393.990059 
C 400.107703 376.777727 413.762212 356.342309 423.077459 333.853314 
C 432.392706 311.364319 437.187532 287.2591 437.187532 262.917188 
C 437.187532 238.575275 432.392706 214.470056 423.077459 191.981061 
C 413.762212 169.492066 400.107703 149.056648 382.895371 131.844316 
C 365.683039 114.631985 345.247622 100.977475 322.758627 91.662229 
C 300.269631 82.346982 276.164413 77.552156 251.8225 77.552156 
" clip-path="url(#pd386ce62d0)" style="fill: none; stroke: #b0b0b0; stroke-width: 0.8; stroke-linecap: square"/>
     </g>
     <g id="text_14">
      <!-- −10 -->
      <g transform="translate(180.886373 89.582541)scale(0.1 -0.1)">
       <use xlink:href="#DejaVuSans-2212"/>
       <use xlink:href="#DejaVuSans-31" x="83.789062"/>
       <use xlink:href="#DejaVuSans-30" x="147.412109"/>
      </g>
     </g>
    </g>
    <g id="ytick_7">
     <g id="line2d_15">
      <path d="M 251.8225 41.157188 
C 222.701244 41.157188 193.863155 46.89344 166.958622 58.037662 
C 140.054089 69.181885 115.606338 85.51735 95.0145 106.109188 
C 74.422662 126.701026 58.087197 151.148777 46.942975 178.05331 
C 35.798753 204.957842 30.0625 233.795931 30.0625 262.917188 
C 30.0625 292.038444 35.798753 320.876533 46.942975 347.781065 
C 58.087197 374.685598 74.422662 399.133349 95.0145 419.725187 
C 115.606338 440.317025 140.054089 456.65249 166.958622 467.796713 
C 193.863155 478.940935 222.701244 484.677188 251.8225 484.677188 
C 280.943756 484.677188 309.781845 478.940935 336.686378 467.796713 
C 363.590911 456.65249 388.038662 440.317025 408.6305 419.725187 
C 429.222338 399.133349 445.557803 374.685598 456.702025 347.781065 
C 467.846247 320.876533 473.5825 292.038444 473.5825 262.917188 
C 473.5825 233.795931 467.846247 204.957842 456.702025 178.05331 
C 445.557803 151.148777 429.222338 126.701026 408.6305 106.109188 
C 388.038662 85.51735 363.590911 69.181885 336.686378 58.037662 
C 309.781845 46.89344 280.943756 41.157188 251.8225 41.157188 
" clip-path="url(#pd386ce62d0)" style="fill: none; stroke: #b0b0b0; stroke-width: 0.8; stroke-linecap: square"/>
     </g>
     <g id="text_15">
      <!-- 0 -->
      <g transform="translate(166.958622 55.957975)scale(0.1 -0.1)">
       <use xlink:href="#DejaVuSans-30"/>
      </g>
     </g>
    </g>
   </g>
   <g id="line2d_16">
    <path d="M 251.8225 474.322819 
L 259.191813 473.946701 
L 266.503911 472.871143 
L 270.120199 472.060847 
L 277.214676 469.719869 
L 284.073204 466.540119 
L 287.429877 464.856655 
L 290.647392 462.653944 
L 297.004983 458.624024 
L 299.930277 455.866942 
L 302.868384 453.423021 
L 305.696846 450.799359 
L 308.178085 447.247999 
L 310.735336 444.232253 
L 313.154922 441.039474 
L 315.104065 436.781859 
L 317.446646 433.873933 
L 319.645858 430.78589 
L 321.720535 427.586639 
L 324.206287 425.493834 
L 326.891109 423.902339 
L 329.963672 423.130332 
L 333.21878 422.666381 
L 344.901721 424.135128 
L 349.221389 425.016159 
L 353.271829 425.270052 
L 357.176078 425.147472 
L 361.814863 425.987572 
L 370.117265 425.735963 
L 374.69088 425.969035 
L 386.742899 423.709058 
L 397.946785 419.616298 
L 404.873171 415.967858 
L 408.209506 413.938364 
L 414.69116 409.564787 
L 417.676177 407.091589 
L 423.424171 401.877481 
L 426.121495 399.094487 
L 428.701193 396.204843 
L 431.174165 393.223799 
L 433.477657 390.113498 
L 435.669872 386.923806 
L 437.711463 383.634891 
L 439.601691 380.254649 
L 441.340143 376.790876 
L 444.479431 369.708668 
L 445.793272 366.053276 
L 448.080535 358.638627 
L 448.995542 354.860487 
L 450.429219 347.220738 
L 450.807308 343.312268 
L 451.014656 339.379892 
L 451.368014 335.545815 
L 451.338801 331.616159 
L 451.129766 323.851534 
L 449.840923 315.976064 
L 449.158238 312.118513 
L 446.237533 304.241378 
L 444.639074 300.396933 
L 439.686317 292.671893 
L 437.030636 288.946493 
L 433.334989 285.204119 
L 429.171855 281.557356 
L 424.542905 278.028265 
L 418.648187 274.582776 
L 410.61965 271.239394 
L 400.268979 268.101053 
L 385.92299 265.25792 
L 359.142162 262.917188 
L 366.392785 260.917356 
L 387.287528 258.186644 
L 399.160043 255.195554 
L 410.294105 251.835773 
L 416.301808 248.527113 
L 421.668509 245.065653 
L 427.782778 241.311982 
L 434.538723 233.977781 
L 438.142004 230.064032 
L 439.994656 226.340226 
L 444.47959 218.438794 
L 445.623319 214.597216 
L 446.996897 210.620366 
L 448.006633 206.662293 
L 448.415001 202.812828 
L 449.001011 198.850006 
L 449.215573 194.949302 
L 449.086869 191.118829 
L 449.145887 187.171836 
L 448.765746 183.346951 
L 448.224804 179.549356 
L 447.790573 175.66658 
L 446.0884 168.167377 
L 445.228875 164.371717 
L 442.725501 157.097926 
L 441.379143 153.476608 
L 438.080062 146.530546 
L 436.28602 143.125177 
L 432.159922 136.643565 
L 429.902178 133.534728 
L 427.526914 130.514414 
L 425.028801 127.593594 
L 419.760056 122.000846 
L 414.088018 116.812659 
L 411.103517 114.385236 
L 404.739348 110.000339 
L 401.465804 107.95701 
L 397.897142 106.271312 
L 394.446987 104.516648 
L 390.746295 103.103643 
L 386.773312 102.089073 
L 383.05037 100.864264 
L 378.947379 100.204762 
L 374.506895 100.109497 
L 370.382531 99.733304 
L 365.610608 100.410928 
L 360.903102 101.198544 
L 356.228581 102.145921 
L 350.579449 104.873033 
L 344.833232 108.121334 
L 338.923848 112.053228 
L 330.597836 120.80272 
L 321.722119 131.455125 
L 308.432673 151.813468 
L 297.797796 168.653861 
L 310.750101 136.54654 
L 315.758119 119.315436 
L 318.496714 105.842582 
L 318.157048 98.73342 
L 317.490992 91.844918 
L 316.508179 85.194746 
L 312.488691 76.205851 
L 310.229642 71.876033 
L 307.481505 68.811169 
L 304.722183 65.492881 
L 301.781914 62.540924 
L 295.43569 57.73326 
L 292.077957 55.820816 
L 285.110546 52.744734 
L 281.538259 51.478576 
L 277.87112 50.768201 
L 274.208772 49.926032 
L 270.50338 49.393746 
L 266.775815 49.074826 
L 263.033664 48.995439 
L 259.291013 49.046958 
L 255.550656 49.331277 
L 251.8225 49.953851 
L 248.113399 50.42296 
L 244.430324 51.232963 
L 240.796289 52.524547 
L 237.177648 53.486043 
L 226.599314 57.490819 
L 223.187148 59.166073 
L 219.89746 61.350418 
L 216.567143 62.974122 
L 213.410805 65.306146 
L 210.245573 67.313126 
L 207.154984 69.440921 
L 204.287031 72.262836 
L 201.382303 74.67181 
L 198.576146 77.225083 
L 196.085149 80.608528 
L 190.90598 86.002766 
L 188.503591 88.949915 
L 185.87098 91.107603 
L 183.1593 92.969803 
L 180.222254 94.237578 
L 177.114616 95.120533 
L 173.7884 95.57252 
L 170.126665 95.415903 
L 166.624285 95.706275 
L 162.857873 95.59906 
L 158.945575 95.36278 
L 147.059768 95.26177 
L 143.12493 95.537608 
L 138.976813 95.616577 
L 135.143164 96.281826 
L 131.386353 97.151052 
L 127.464713 97.88883 
L 116.899761 102.122529 
L 110.51551 105.979876 
L 107.398475 108.041382 
L 98.721127 115.068911 
L 93.449007 120.317054 
L 90.981666 123.100383 
L 88.644087 125.994242 
L 86.477295 129.02328 
L 82.58534 135.387841 
L 79.248386 142.079492 
L 77.687751 145.461816 
L 73.959898 156.046554 
L 72.248421 163.37765 
L 71.653646 167.119709 
L 70.850587 174.651288 
L 70.673541 186.024016 
L 71.184755 189.934801 
L 71.460746 193.682797 
L 71.606873 197.324063 
L 72.248022 201.084736 
L 73.001269 208.246051 
L 73.988046 211.923978 
L 75.484396 218.95116 
L 77.144729 222.589646 
L 78.208343 226.014359 
L 79.798627 229.479134 
L 81.93299 232.961083 
L 83.370002 236.236933 
L 85.506939 239.54306 
L 88.353792 242.845754 
L 90.848031 245.998089 
L 94.880913 249.186578 
L 103.758055 255.157459 
L 111.137976 258.004376 
L 118.489827 260.589857 
L 126.632908 262.917188 
L 136.535343 264.929532 
L 136.977211 266.927673 
L 128.778015 269.365676 
L 116.202088 272.400691 
L 108.270429 275.476366 
L 93.794019 282.320645 
L 85.383027 289.27861 
L 80.922245 293.051514 
L 78.583933 296.591354 
L 75.933526 300.303543 
L 73.50631 304.084724 
L 72.133108 307.718785 
L 70.39013 311.531844 
L 68.925704 315.362 
L 68.159938 319.068468 
L 67.066836 322.947942 
L 66.377314 326.771086 
L 66.121179 330.506941 
L 65.664163 334.376678 
L 65.556118 338.173691 
L 65.792336 341.882307 
L 65.828965 345.726845 
L 67.444123 356.862663 
L 70.363079 367.682833 
L 74.376307 378.152093 
L 77.704072 384.836223 
L 79.49032 388.123845 
L 83.319658 394.566036 
L 85.41098 397.674579 
L 87.662706 400.66361 
L 89.786824 403.772652 
L 92.088556 406.742276 
L 94.500538 409.622291 
L 97.006315 412.42144 
L 102.474996 417.571055 
L 105.162075 420.191238 
L 107.98767 422.66195 
L 110.897792 425.03252 
L 117.07427 429.317393 
L 120.276724 431.288103 
L 127.003045 434.716428 
L 130.64245 435.980235 
L 138.052449 438.107702 
L 142.031805 438.619028 
L 146.177776 438.739533 
L 149.846529 439.544751 
L 153.911562 439.553195 
L 157.719992 439.898264 
L 161.57817 440.031658 
L 165.707267 439.47958 
L 169.584724 439.276668 
L 173.492281 438.84974 
L 177.612765 437.744368 
L 184.989287 437.02366 
L 188.503591 436.88446 
L 191.702235 437.519115 
L 194.691136 438.749447 
L 200.045806 443.483977 
L 202.561651 446.761179 
L 205.244106 449.73292 
L 208.053926 452.499708 
L 210.820661 455.815675 
L 213.783724 458.609728 
L 216.893251 461.010804 
L 220.035241 463.614042 
L 223.332013 465.637536 
L 226.719957 467.360992 
L 230.137362 469.237495 
L 233.655806 470.563454 
L 240.817622 472.902763 
L 244.465381 473.597523 
L 248.137092 474.05409 
L 248.137092 474.05409 
" clip-path="url(#pd386ce62d0)" style="fill: none; stroke: #ff0000; stroke-width: 1.5; stroke-linecap: square"/>
   </g>
   <g id="line2d_17">
    <path d="M 251.8225 74.207458 
L 248.570983 76.637902 
L 245.410257 79.294576 
L 242.350578 82.182141 
L 239.402385 85.301264 
L 236.575977 88.648631 
L 233.880803 92.213343 
L 231.312402 95.875847 
L 226.508668 103.091942 
L 224.171902 106.102857 
L 221.744884 108.181266 
L 219.132187 109.121356 
L 216.240194 108.793288 
L 213.07152 107.495496 
L 209.68672 105.664317 
L 202.4686 101.487856 
L 198.747807 99.570079 
L 194.98679 97.8543 
L 191.214725 96.398693 
L 187.441332 95.19851 
L 183.676021 94.248732 
L 179.926464 93.540741 
L 176.195339 93.055804 
L 172.48869 92.785283 
L 168.812014 92.720469 
L 165.165307 92.842869 
L 161.552472 93.143957 
L 157.976885 93.615217 
L 154.441394 94.248164 
L 150.948327 95.03437 
L 147.497569 95.962399 
L 144.096214 97.033254 
L 140.74335 98.235575 
L 137.441534 99.564239 
L 134.195179 101.017069 
L 131.004244 102.585947 
L 127.87269 104.268665 
L 124.799822 106.057243 
L 121.789156 107.949483 
L 118.846527 109.94583 
L 115.968144 112.035639 
L 113.159501 114.219326 
L 107.758536 118.853223 
L 102.661492 123.822297 
L 100.229623 126.422348 
L 95.616916 131.84514 
L 91.349953 137.542293 
L 89.349072 140.484678 
L 87.443184 143.488624 
L 83.921451 149.6665 
L 82.306283 152.832069 
L 80.796659 156.048381 
L 79.391222 159.310023 
L 78.094682 162.615385 
L 76.90859 165.960824 
L 75.837603 169.344358 
L 74.883142 172.762081 
L 74.05305 176.213234 
L 73.34538 179.69194 
L 72.767918 183.196951 
L 72.325177 186.725094 
L 72.018252 190.271556 
L 71.861682 193.836702 
L 71.853113 197.413688 
L 72.007137 201.001793 
L 72.328114 204.595926 
L 72.827246 208.192846 
L 73.515747 211.788549 
L 74.404813 215.378262 
L 75.51971 218.959965 
L 76.87167 222.526606 
L 78.49314 226.074895 
L 80.409547 229.597885 
L 82.678505 233.092538 
L 85.311134 236.544378 
L 88.444262 239.955874 
L 92.114268 243.307482 
L 96.537978 246.596127 
L 101.89654 249.800366 
L 108.588654 252.901301 
L 117.340215 255.86927 
L 129.749936 258.65432 
L 150.836387 261.154468 
L 241.2625 262.917188 
L 153.893099 264.626552 
L 131.277594 267.126708 
L 118.321532 269.913677 
L 109.31478 272.882298 
L 102.476644 275.983257 
L 97.008521 279.188792 
L 92.511628 282.478103 
L 88.768629 285.832915 
L 85.634656 289.238756 
L 82.929399 292.697598 
L 80.638195 296.192046 
L 78.692499 299.717105 
L 77.048981 303.266834 
L 75.675091 306.835669 
L 74.545432 310.418435 
L 73.634697 314.011718 
L 72.93166 317.609606 
L 72.418109 321.209208 
L 72.082844 324.806514 
L 71.918094 328.397036 
L 71.916047 331.976805 
L 72.06212 335.545095 
L 72.355328 339.096482 
L 72.791192 342.627062 
L 73.358574 346.136283 
L 74.056322 349.619546 
L 74.879899 353.073946 
L 75.827963 356.495143 
L 76.889491 359.884138 
L 78.069467 363.233548 
L 79.356906 366.544971 
L 80.756535 369.811066 
L 82.260498 373.032039 
L 85.571726 379.327233 
L 89.276406 385.404455 
L 93.353184 391.243109 
L 97.785398 396.819597 
L 102.555022 402.111363 
L 105.05939 404.644675 
L 110.299797 409.468237 
L 115.834202 413.947493 
L 118.708039 416.047858 
L 121.646451 418.054961 
L 124.650945 419.960979 
L 127.718082 421.763599 
L 130.846542 423.457706 
L 134.032596 425.041081 
L 137.274531 426.508641 
L 140.572395 427.852251 
L 143.919797 429.072779 
L 147.316277 430.162104 
L 150.760879 431.11197 
L 154.2485 431.920312 
L 157.779265 432.575674 
L 161.349144 433.072822 
L 164.955465 433.403343 
L 168.596628 433.555512 
L 172.268739 433.520778 
L 175.967371 433.290597 
L 179.691823 432.846413 
L 183.434702 432.182926 
L 187.192214 431.284838 
L 190.9583 430.140203 
L 194.722556 428.747466 
L 198.477887 427.095024 
L 202.191938 425.251441 
L 212.833792 419.292354 
L 216.043704 417.892179 
L 218.988415 417.389412 
L 221.668494 418.046098 
L 224.146623 419.874887 
L 226.525748 422.634593 
L 236.60738 436.826805 
L 239.427011 440.18094 
L 242.368292 443.314225 
L 245.421562 446.216081 
L 248.576255 448.894441 
L 251.8225 451.350315 
L 255.150747 453.592316 
L 258.552157 455.629361 
L 262.018805 457.474272 
L 265.543235 459.132834 
L 269.118789 460.614678 
L 272.739168 461.925985 
L 276.399001 463.076723 
L 280.092651 464.069762 
L 283.815292 464.911725 
L 287.561963 465.605754 
L 291.328647 466.158693 
L 295.111144 466.574245 
L 298.905452 466.855857 
L 302.707732 467.006706 
L 306.514378 467.030054 
L 310.321913 466.928884 
L 314.126963 466.705904 
L 317.926453 466.364234 
L 321.71704 465.905671 
L 325.495499 465.332089 
L 333.004251 463.849072 
L 336.729006 462.94438 
L 344.104186 460.815901 
L 347.751348 459.600473 
L 354.94492 456.862251 
L 361.992798 453.737741 
L 368.874523 450.239581 
L 375.57065 446.381365 
L 382.062795 442.177575 
L 388.333663 437.643509 
L 394.362401 432.789627 
L 400.135844 427.635844 
L 405.632289 422.191886 
L 410.838013 416.476684 
L 415.735164 410.504813 
L 420.306508 404.292056 
L 424.535511 397.855381 
L 428.40347 391.210772 
L 430.198226 387.817215 
L 433.490078 380.893492 
L 434.984334 377.369404 
L 436.373648 373.806704 
L 437.653601 370.206824 
L 438.826111 366.574982 
L 439.882709 362.910574 
L 440.823186 359.217847 
L 441.642896 355.498781 
L 442.338171 351.756104 
L 442.904379 347.992321 
L 443.337234 344.210369 
L 443.63147 340.413042 
L 443.780819 336.603082 
L 443.779016 332.783645 
L 443.620163 328.958419 
L 443.293216 325.129795 
L 442.787084 321.30092 
L 442.094153 317.476706 
L 441.199863 313.660699 
L 440.082571 309.855695 
L 438.727627 306.067636 
L 437.109782 302.301215 
L 435.193043 298.56081 
L 432.941323 294.853323 
L 430.29699 291.18477 
L 427.191504 287.563694 
L 423.523796 283.999456 
L 419.160154 280.505084 
L 413.821866 277.090295 
L 407.182654 273.781028 
L 398.55308 270.607011 
L 386.370933 267.615722 
L 365.981585 264.909842 
L 305.583327 262.917188 
L 360.55956 261.019175 
L 383.6066 258.315185 
L 396.699481 255.324507 
L 405.803014 252.149821 
L 412.734171 248.83924 
L 418.219069 245.428203 
L 422.729075 241.932499 
L 426.506729 238.36692 
L 429.689488 234.745824 
L 432.39294 231.077747 
L 434.696447 227.370093 
L 436.654107 223.630017 
L 438.309173 219.863347 
L 439.697649 216.074652 
L 440.837769 212.270699 
L 441.758296 208.453974 
L 442.470361 204.630287 
L 442.995539 200.801302 
L 443.337983 196.973118 
L 443.515675 193.146578 
L 443.529384 189.327809 
L 443.392557 185.51786 
L 443.110092 181.720422 
L 442.688264 177.938274 
L 442.131982 174.174419 
L 441.446299 170.431481 
L 440.635427 166.712196 
L 439.703396 163.019143 
L 438.654219 159.354674 
L 437.489703 155.722178 
L 436.214545 152.123269 
L 434.833097 148.559474 
L 433.346618 145.034047 
L 431.75646 141.550199 
L 428.276861 134.71559 
L 424.420793 128.068622 
L 420.203351 121.628878 
L 415.6405 115.414798 
L 410.751618 109.441122 
L 405.556443 103.72103 
L 400.067656 98.274262 
L 394.301576 93.117236 
L 388.279886 88.259698 
L 382.017871 83.718632 
L 375.534017 79.507321 
L 368.843664 75.644178 
L 361.969141 72.137608 
L 354.927833 69.004258 
L 347.738584 66.260071 
L 340.424637 63.913531 
L 333.004251 61.985303 
L 329.260806 61.183505 
L 321.724149 59.908057 
L 317.93545 59.44245 
L 314.13803 59.092274 
L 310.334753 58.86071 
L 306.528884 58.750183 
L 302.723581 58.764104 
L 298.922481 58.904757 
L 295.129153 59.175402 
L 291.347327 59.579579 
L 287.580923 60.121095 
L 283.83408 60.804025 
L 280.111392 61.631262 
L 276.417186 62.609545 
L 272.756667 63.74189 
L 269.134649 65.038415 
L 265.557198 66.501856 
L 262.030233 68.142033 
L 258.560413 69.968591 
L 255.155193 71.987333 
L 255.155193 71.987333 
" clip-path="url(#pd386ce62d0)" style="fill: none; stroke-dasharray: 5.55,2.4; stroke-dashoffset: 0; stroke: #0000ff; stroke-width: 1.5"/>
   </g>
   <g id="patch_3">
    <path d="M 251.8225 41.157188 
C 222.701244 41.157188 193.863155 46.89344 166.958622 58.037662 
C 140.054089 69.181885 115.606338 85.51735 95.0145 106.109188 
C 74.422662 126.701026 58.087197 151.148777 46.942975 178.05331 
C 35.798753 204.957842 30.0625 233.795931 30.0625 262.917188 
C 30.0625 292.038444 35.798753 320.876533 46.942975 347.781065 
C 58.087197 374.685598 74.422662 399.133349 95.0145 419.725187 
C 115.606338 440.317025 140.054089 456.65249 166.958622 467.796713 
C 193.863155 478.940935 222.701244 484.677188 251.8225 484.677188 
C 280.943756 484.677188 309.781845 478.940935 336.686378 467.796713 
C 363.590911 456.65249 388.038662 440.317025 408.6305 419.725187 
C 429.222338 399.133349 445.557803 374.685598 456.702025 347.781065 
C 467.846247 320.876533 473.5825 292.038444 473.5825 262.917188 
C 473.5825 233.795931 467.846247 204.957842 456.702025 178.05331 
C 445.557803 151.148777 429.222338 126.701026 408.6305 106.109188 
C 388.038662 85.51735 363.590911 69.181885 336.686378 58.037662 
C 309.781845 46.89344 280.943756 41.157188 251.8225 41.157188 
" style="fill: none; stroke: #000000; stroke-width: 0.8; stroke-linejoin: miter; stroke-linecap: square"/>
   </g>
   <g id="text_16">
    <g id="patch_4">
     <path d="M 384.8785 509.853188 
L 485.369125 509.853188 
Q 488.369125 509.853188 488.369125 506.853188 
L 488.369125 473.945063 
Q 488.369125 470.945063 485.369125 470.945063 
L 384.8785 470.945063 
Q 381.8785 470.945063 381.8785 473.945063 
L 381.8785 506.853188 
Q 381.8785 509.853188 384.8785 509.853188 
z
" style="fill: #ffffff; stroke: #808080; stroke-linejoin: miter"/>
    </g>
    <!-- G_cst: 3.3 dBi -->
    <g transform="translate(384.8785 481.821625)scale(0.1 -0.1)">
     <defs>
      <path id="DejaVuSans-47" d="M 3809 666 
L 3809 1919 
L 2778 1919 
L 2778 2438 
L 4434 2438 
L 4434 434 
Q 4069 175 3628 42 
Q 3188 -91 2688 -91 
Q 1594 -91 976 548 
Q 359 1188 359 2328 
Q 359 3472 976 4111 
Q 1594 4750 2688 4750 
Q 3144 4750 3555 4637 
Q 3966 4525 4313 4306 
L 4313 3634 
Q 3963 3931 3569 4081 
Q 3175 4231 2741 4231 
Q 1884 4231 1454 3753 
Q 1025 3275 1025 2328 
Q 1025 1384 1454 906 
Q 1884 428 2741 428 
Q 3075 428 3337 486 
Q 3600 544 3809 666 
z
" transform="scale(0.015625)"/>
      <path id="DejaVuSans-5f" d="M 3263 -1063 
L 3263 -1509 
L -63 -1509 
L -63 -1063 
L 3263 -1063 
z
" transform="scale(0.015625)"/>
      <path id="DejaVuSans-63" d="M 3122 3366 
L 3122 2828 
Q 2878 2963 2633 3030 
Q 2388 3097 2138 3097 
Q 1578 3097 1268 2742 
Q 959 2388 959 1747 
Q 959 1106 1268 751 
Q 1578 397 2138 397 
Q 2388 397 2633 464 
Q 2878 531 3122 666 
L 3122 134 
Q 2881 22 2623 -34 
Q 2366 -91 2075 -91 
Q 1284 -91 818 406 
Q 353 903 353 1747 
Q 353 2603 823 3093 
Q 1294 3584 2113 3584 
Q 2378 3584 2631 3529 
Q 2884 3475 3122 3366 
z
" transform="scale(0.015625)"/>
      <path id="DejaVuSans-73" d="M 2834 3397 
L 2834 2853 
Q 2591 2978 2328 3040 
Q 2066 3103 1784 3103 
Q 1356 3103 1142 2972 
Q 928 2841 928 2578 
Q 928 2378 1081 2264 
Q 1234 2150 1697 2047 
L 1894 2003 
Q 2506 1872 2764 1633 
Q 3022 1394 3022 966 
Q 3022 478 2636 193 
Q 2250 -91 1575 -91 
Q 1294 -91 989 -36 
Q 684 19 347 128 
L 347 722 
Q 666 556 975 473 
Q 1284 391 1588 391 
Q 1994 391 2212 530 
Q 2431 669 2431 922 
Q 2431 1156 2273 1281 
Q 2116 1406 1581 1522 
L 1381 1569 
Q 847 1681 609 1914 
Q 372 2147 372 2553 
Q 372 3047 722 3315 
Q 1072 3584 1716 3584 
Q 2034 3584 2315 3537 
Q 2597 3491 2834 3397 
z
" transform="scale(0.015625)"/>
      <path id="DejaVuSans-74" d="M 1172 4494 
L 1172 3500 
L 2356 3500 
L 2356 3053 
L 1172 3053 
L 1172 1153 
Q 1172 725 1289 603 
Q 1406 481 1766 481 
L 2356 481 
L 2356 0 
L 1766 0 
Q 1100 0 847 248 
Q 594 497 594 1153 
L 594 3053 
L 172 3053 
L 172 3500 
L 594 3500 
L 594 4494 
L 1172 4494 
z
" transform="scale(0.015625)"/>
      <path id="DejaVuSans-3a" d="M 750 794 
L 1409 794 
L 1409 0 
L 750 0 
L 750 794 
z
M 750 3309 
L 1409 3309 
L 1409 2516 
L 750 2516 
L 750 3309 
z
" transform="scale(0.015625)"/>
      <path id="DejaVuSans-20" transform="scale(0.015625)"/>
      <path id="DejaVuSans-2e" d="M 684 794 
L 1344 794 
L 1344 0 
L 684 0 
L 684 794 
z
" transform="scale(0.015625)"/>
      <path id="DejaVuSans-64" d="M 2906 2969 
L 2906 4863 
L 3481 4863 
L 3481 0 
L 2906 0 
L 2906 525 
Q 2725 213 2448 61 
Q 2172 -91 1784 -91 
Q 1150 -91 751 415 
Q 353 922 353 1747 
Q 353 2572 751 3078 
Q 1150 3584 1784 3584 
Q 2172 3584 2448 3432 
Q 2725 3281 2906 2969 
z
M 947 1747 
Q 947 1113 1208 752 
Q 1469 391 1925 391 
Q 2381 391 2643 752 
Q 2906 1113 2906 1747 
Q 2906 2381 2643 2742 
Q 2381 3103 1925 3103 
Q 1469 3103 1208 2742 
Q 947 2381 947 1747 
z
" transform="scale(0.015625)"/>
      <path id="DejaVuSans-42" d="M 1259 2228 
L 1259 519 
L 2272 519 
Q 2781 519 3026 730 
Q 3272 941 3272 1375 
Q 3272 1813 3026 2020 
Q 2781 2228 2272 2228 
L 1259 2228 
z
M 1259 4147 
L 1259 2741 
L 2194 2741 
Q 2656 2741 2882 2914 
Q 3109 3088 3109 3444 
Q 3109 3797 2882 3972 
Q 2656 4147 2194 4147 
L 1259 4147 
z
M 628 4666 
L 2241 4666 
Q 2963 4666 3353 4366 
Q 3744 4066 3744 3513 
Q 3744 3084 3544 2831 
Q 3344 2578 2956 2516 
Q 3422 2416 3680 2098 
Q 3938 1781 3938 1306 
Q 3938 681 3513 340 
Q 3088 0 2303 0 
L 628 0 
L 628 4666 
z
" transform="scale(0.015625)"/>
      <path id="DejaVuSans-69" d="M 603 3500 
L 1178 3500 
L 1178 0 
L 603 0 
L 603 3500 
z
M 603 4863 
L 1178 4863 
L 1178 4134 
L 603 4134 
L 603 4863 
z
" transform="scale(0.015625)"/>
     </defs>
     <use xlink:href="#DejaVuSans-47"/>
     <use xlink:href="#DejaVuSans-5f" x="77.490234"/>
     <use xlink:href="#DejaVuSans-63" x="127.490234"/>
     <use xlink:href="#DejaVuSans-73" x="182.470703"/>
     <use xlink:href="#DejaVuSans-74" x="234.570312"/>
     <use xlink:href="#DejaVuSans-3a" x="273.779297"/>
     <use xlink:href="#DejaVuSans-20" x="307.470703"/>
     <use xlink:href="#DejaVuSans-33" x="339.257812"/>
     <use xlink:href="#DejaVuSans-2e" x="402.880859"/>
     <use xlink:href="#DejaVuSans-33" x="434.667969"/>
     <use xlink:href="#DejaVuSans-20" x="498.291016"/>
     <use xlink:href="#DejaVuSans-64" x="530.078125"/>
     <use xlink:href="#DejaVuSans-42" x="593.554688"/>
     <use xlink:href="#DejaVuSans-69" x="662.158203"/>
    </g>
    <!-- G_inpe: 1.3 dBi -->
    <g transform="translate(384.8785 493.297563)scale(0.1 -0.1)">
     <defs>
      <path id="DejaVuSans-6e" d="M 3513 2113 
L 3513 0 
L 2938 0 
L 2938 2094 
Q 2938 2591 2744 2837 
Q 2550 3084 2163 3084 
Q 1697 3084 1428 2787 
Q 1159 2491 1159 1978 
L 1159 0 
L 581 0 
L 581 3500 
L 1159 3500 
L 1159 2956 
Q 1366 3272 1645 3428 
Q 1925 3584 2291 3584 
Q 2894 3584 3203 3211 
Q 3513 2838 3513 2113 
z
" transform="scale(0.015625)"/>
      <path id="DejaVuSans-70" d="M 1159 525 
L 1159 -1331 
L 581 -1331 
L 581 3500 
L 1159 3500 
L 1159 2969 
Q 1341 3281 1617 3432 
Q 1894 3584 2278 3584 
Q 2916 3584 3314 3078 
Q 3713 2572 3713 1747 
Q 3713 922 3314 415 
Q 2916 -91 2278 -91 
Q 1894 -91 1617 61 
Q 1341 213 1159 525 
z
M 3116 1747 
Q 3116 2381 2855 2742 
Q 2594 3103 2138 3103 
Q 1681 3103 1420 2742 
Q 1159 2381 1159 1747 
Q 1159 1113 1420 752 
Q 1681 391 2138 391 
Q 2594 391 2855 752 
Q 3116 1113 3116 1747 
z
" transform="scale(0.015625)"/>
      <path id="DejaVuSans-65" d="M 3597 1894 
L 3597 1613 
L 953 1613 
Q 991 1019 1311 708 
Q 1631 397 2203 397 
Q 2534 397 2845 478 
Q 3156 559 3463 722 
L 3463 178 
Q 3153 47 2828 -22 
Q 2503 -91 2169 -91 
Q 1331 -91 842 396 
Q 353 884 353 1716 
Q 353 2575 817 3079 
Q 1281 3584 2069 3584 
Q 2775 3584 3186 3129 
Q 3597 2675 3597 1894 
z
M 3022 2063 
Q 3016 2534 2758 2815 
Q 2500 3097 2075 3097 
Q 1594 3097 1305 2825 
Q 1016 2553 972 2059 
L 3022 2063 
z
" transform="scale(0.015625)"/>
     </defs>
     <use xlink:href="#DejaVuSans-47"/>
     <use xlink:href="#DejaVuSans-5f" x="77.490234"/>
     <use xlink:href="#DejaVuSans-69" x="127.490234"/>
     <use xlink:href="#DejaVuSans-6e" x="155.273438"/>
     <use xlink:href="#DejaVuSans-70" x="218.652344"/>
     <use xlink:href="#DejaVuSans-65" x="282.128906"/>
     <use xlink:href="#DejaVuSans-3a" x="343.652344"/>
     <use xlink:href="#DejaVuSans-20" x="377.34375"/>
     <use xlink:href="#DejaVuSans-31" x="409.130859"/>
     <use xlink:href="#DejaVuSans-2e" x="472.753906"/>
     <use xlink:href="#DejaVuSans-33" x="504.541016"/>
     <use xlink:href="#DejaVuSans-20" x="568.164062"/>
     <use xlink:href="#DejaVuSans-64" x="599.951172"/>
     <use xlink:href="#DejaVuSans-42" x="663.427734"/>
     <use xlink:href="#DejaVuSans-69" x="732.03125"/>
    </g>
    <!-- Pearson Coef: 0.618 -->
    <g transform="translate(384.8785 504.7735)scale(0.1 -0.1)">
     <defs>
      <path id="DejaVuSans-50" d="M 1259 4147 
L 1259 2394 
L 2053 2394 
Q 2494 2394 2734 2622 
Q 2975 2850 2975 3272 
Q 2975 3691 2734 3919 
Q 2494 4147 2053 4147 
L 1259 4147 
z
M 628 4666 
L 2053 4666 
Q 2838 4666 3239 4311 
Q 3641 3956 3641 3272 
Q 3641 2581 3239 2228 
Q 2838 1875 2053 1875 
L 1259 1875 
L 1259 0 
L 628 0 
L 628 4666 
z
" transform="scale(0.015625)"/>
      <path id="DejaVuSans-61" d="M 2194 1759 
Q 1497 1759 1228 1600 
Q 959 1441 959 1056 
Q 959 750 1161 570 
Q 1363 391 1709 391 
Q 2188 391 2477 730 
Q 2766 1069 2766 1631 
L 2766 1759 
L 2194 1759 
z
M 3341 1997 
L 3341 0 
L 2766 0 
L 2766 531 
Q 2569 213 2275 61 
Q 1981 -91 1556 -91 
Q 1019 -91 701 211 
Q 384 513 384 1019 
Q 384 1609 779 1909 
Q 1175 2209 1959 2209 
L 2766 2209 
L 2766 2266 
Q 2766 2663 2505 2880 
Q 2244 3097 1772 3097 
Q 1472 3097 1187 3025 
Q 903 2953 641 2809 
L 641 3341 
Q 956 3463 1253 3523 
Q 1550 3584 1831 3584 
Q 2591 3584 2966 3190 
Q 3341 2797 3341 1997 
z
" transform="scale(0.015625)"/>
      <path id="DejaVuSans-72" d="M 2631 2963 
Q 2534 3019 2420 3045 
Q 2306 3072 2169 3072 
Q 1681 3072 1420 2755 
Q 1159 2438 1159 1844 
L 1159 0 
L 581 0 
L 581 3500 
L 1159 3500 
L 1159 2956 
Q 1341 3275 1631 3429 
Q 1922 3584 2338 3584 
Q 2397 3584 2469 3576 
Q 2541 3569 2628 3553 
L 2631 2963 
z
" transform="scale(0.015625)"/>
      <path id="DejaVuSans-6f" d="M 1959 3097 
Q 1497 3097 1228 2736 
Q 959 2375 959 1747 
Q 959 1119 1226 758 
Q 1494 397 1959 397 
Q 2419 397 2687 759 
Q 2956 1122 2956 1747 
Q 2956 2369 2687 2733 
Q 2419 3097 1959 3097 
z
M 1959 3584 
Q 2709 3584 3137 3096 
Q 3566 2609 3566 1747 
Q 3566 888 3137 398 
Q 2709 -91 1959 -91 
Q 1206 -91 779 398 
Q 353 888 353 1747 
Q 353 2609 779 3096 
Q 1206 3584 1959 3584 
z
" transform="scale(0.015625)"/>
      <path id="DejaVuSans-43" d="M 4122 4306 
L 4122 3641 
Q 3803 3938 3442 4084 
Q 3081 4231 2675 4231 
Q 1875 4231 1450 3742 
Q 1025 3253 1025 2328 
Q 1025 1406 1450 917 
Q 1875 428 2675 428 
Q 3081 428 3442 575 
Q 3803 722 4122 1019 
L 4122 359 
Q 3791 134 3420 21 
Q 3050 -91 2638 -91 
Q 1578 -91 968 557 
Q 359 1206 359 2328 
Q 359 3453 968 4101 
Q 1578 4750 2638 4750 
Q 3056 4750 3426 4639 
Q 3797 4528 4122 4306 
z
" transform="scale(0.015625)"/>
      <path id="DejaVuSans-66" d="M 2375 4863 
L 2375 4384 
L 1825 4384 
Q 1516 4384 1395 4259 
Q 1275 4134 1275 3809 
L 1275 3500 
L 2222 3500 
L 2222 3053 
L 1275 3053 
L 1275 0 
L 697 0 
L 697 3053 
L 147 3053 
L 147 3500 
L 697 3500 
L 697 3744 
Q 697 4328 969 4595 
Q 1241 4863 1831 4863 
L 2375 4863 
z
" transform="scale(0.015625)"/>
     </defs>
     <use xlink:href="#DejaVuSans-50"/>
     <use xlink:href="#DejaVuSans-65" x="56.677734"/>
     <use xlink:href="#DejaVuSans-61" x="118.201172"/>
     <use xlink:href="#DejaVuSans-72" x="179.480469"/>
     <use xlink:href="#DejaVuSans-73" x="220.59375"/>
     <use xlink:href="#DejaVuSans-6f" x="272.693359"/>
     <use xlink:href="#DejaVuSans-6e" x="333.875"/>
     <use xlink:href="#DejaVuSans-20" x="397.253906"/>
     <use xlink:href="#DejaVuSans-43" x="429.041016"/>
     <use xlink:href="#DejaVuSans-6f" x="498.865234"/>
     <use xlink:href="#DejaVuSans-65" x="560.046875"/>
     <use xlink:href="#DejaVuSans-66" x="621.570312"/>
     <use xlink:href="#DejaVuSans-3a" x="653.150391"/>
     <use xlink:href="#DejaVuSans-20" x="686.841797"/>
     <use xlink:href="#DejaVuSans-30" x="718.628906"/>
     <use xlink:href="#DejaVuSans-2e" x="782.251953"/>
     <use xlink:href="#DejaVuSans-36" x="814.039062"/>
     <use xlink:href="#DejaVuSans-31" x="877.662109"/>
     <use xlink:href="#DejaVuSans-38" x="941.285156"/>
    </g>
   </g>
   <g id="text_17">
    <g id="patch_5">
     <path d="M 52.2385 56.370938 
L 121.861 56.370938 
Q 125.461 56.370938 125.461 52.770938 
L 125.461 41.157188 
Q 125.461 37.557188 121.861 37.557188 
L 52.2385 37.557188 
Q 48.6385 37.557188 48.6385 41.157188 
L 48.6385 52.770938 
Q 48.6385 56.370938 52.2385 56.370938 
z
" style="fill: #ffffff; stroke: #808080; stroke-linejoin: miter"/>
    </g>
    <!-- Freq: 6 GHz -->
    <g transform="translate(52.2385 50.275313)scale(0.12 -0.12)">
     <defs>
      <path id="DejaVuSans-46" d="M 628 4666 
L 3309 4666 
L 3309 4134 
L 1259 4134 
L 1259 2759 
L 3109 2759 
L 3109 2228 
L 1259 2228 
L 1259 0 
L 628 0 
L 628 4666 
z
" transform="scale(0.015625)"/>
      <path id="DejaVuSans-71" d="M 947 1747 
Q 947 1113 1208 752 
Q 1469 391 1925 391 
Q 2381 391 2643 752 
Q 2906 1113 2906 1747 
Q 2906 2381 2643 2742 
Q 2381 3103 1925 3103 
Q 1469 3103 1208 2742 
Q 947 2381 947 1747 
z
M 2906 525 
Q 2725 213 2448 61 
Q 2172 -91 1784 -91 
Q 1150 -91 751 415 
Q 353 922 353 1747 
Q 353 2572 751 3078 
Q 1150 3584 1784 3584 
Q 2172 3584 2448 3432 
Q 2725 3281 2906 2969 
L 2906 3500 
L 3481 3500 
L 3481 -1331 
L 2906 -1331 
L 2906 525 
z
" transform="scale(0.015625)"/>
      <path id="DejaVuSans-48" d="M 628 4666 
L 1259 4666 
L 1259 2753 
L 3553 2753 
L 3553 4666 
L 4184 4666 
L 4184 0 
L 3553 0 
L 3553 2222 
L 1259 2222 
L 1259 0 
L 628 0 
L 628 4666 
z
" transform="scale(0.015625)"/>
      <path id="DejaVuSans-7a" d="M 353 3500 
L 3084 3500 
L 3084 2975 
L 922 459 
L 3084 459 
L 3084 0 
L 275 0 
L 275 525 
L 2438 3041 
L 353 3041 
L 353 3500 
z
" transform="scale(0.015625)"/>
     </defs>
     <use xlink:href="#DejaVuSans-46"/>
     <use xlink:href="#DejaVuSans-72" x="50.269531"/>
     <use xlink:href="#DejaVuSans-65" x="89.132812"/>
     <use xlink:href="#DejaVuSans-71" x="150.65625"/>
     <use xlink:href="#DejaVuSans-3a" x="214.132812"/>
     <use xlink:href="#DejaVuSans-20" x="247.824219"/>
     <use xlink:href="#DejaVuSans-36" x="279.611328"/>
     <use xlink:href="#DejaVuSans-20" x="343.234375"/>
     <use xlink:href="#DejaVuSans-47" x="375.021484"/>
     <use xlink:href="#DejaVuSans-48" x="452.511719"/>
     <use xlink:href="#DejaVuSans-7a" x="527.707031"/>
    </g>
   </g>
   <g id="text_18">
    <!-- Radiation Diagram - 2AVHF06 -->
    <g transform="translate(162.578125 16.318125)scale(0.12 -0.12)">
     <defs>
      <path id="DejaVuSans-52" d="M 2841 2188 
Q 3044 2119 3236 1894 
Q 3428 1669 3622 1275 
L 4263 0 
L 3584 0 
L 2988 1197 
Q 2756 1666 2539 1819 
Q 2322 1972 1947 1972 
L 1259 1972 
L 1259 0 
L 628 0 
L 628 4666 
L 2053 4666 
Q 2853 4666 3247 4331 
Q 3641 3997 3641 3322 
Q 3641 2881 3436 2590 
Q 3231 2300 2841 2188 
z
M 1259 4147 
L 1259 2491 
L 2053 2491 
Q 2509 2491 2742 2702 
Q 2975 2913 2975 3322 
Q 2975 3731 2742 3939 
Q 2509 4147 2053 4147 
L 1259 4147 
z
" transform="scale(0.015625)"/>
      <path id="DejaVuSans-44" d="M 1259 4147 
L 1259 519 
L 2022 519 
Q 2988 519 3436 956 
Q 3884 1394 3884 2338 
Q 3884 3275 3436 3711 
Q 2988 4147 2022 4147 
L 1259 4147 
z
M 628 4666 
L 1925 4666 
Q 3281 4666 3915 4102 
Q 4550 3538 4550 2338 
Q 4550 1131 3912 565 
Q 3275 0 1925 0 
L 628 0 
L 628 4666 
z
" transform="scale(0.015625)"/>
      <path id="DejaVuSans-67" d="M 2906 1791 
Q 2906 2416 2648 2759 
Q 2391 3103 1925 3103 
Q 1463 3103 1205 2759 
Q 947 2416 947 1791 
Q 947 1169 1205 825 
Q 1463 481 1925 481 
Q 2391 481 2648 825 
Q 2906 1169 2906 1791 
z
M 3481 434 
Q 3481 -459 3084 -895 
Q 2688 -1331 1869 -1331 
Q 1566 -1331 1297 -1286 
Q 1028 -1241 775 -1147 
L 775 -588 
Q 1028 -725 1275 -790 
Q 1522 -856 1778 -856 
Q 2344 -856 2625 -561 
Q 2906 -266 2906 331 
L 2906 616 
Q 2728 306 2450 153 
Q 2172 0 1784 0 
Q 1141 0 747 490 
Q 353 981 353 1791 
Q 353 2603 747 3093 
Q 1141 3584 1784 3584 
Q 2172 3584 2450 3431 
Q 2728 3278 2906 2969 
L 2906 3500 
L 3481 3500 
L 3481 434 
z
" transform="scale(0.015625)"/>
      <path id="DejaVuSans-6d" d="M 3328 2828 
Q 3544 3216 3844 3400 
Q 4144 3584 4550 3584 
Q 5097 3584 5394 3201 
Q 5691 2819 5691 2113 
L 5691 0 
L 5113 0 
L 5113 2094 
Q 5113 2597 4934 2840 
Q 4756 3084 4391 3084 
Q 3944 3084 3684 2787 
Q 3425 2491 3425 1978 
L 3425 0 
L 2847 0 
L 2847 2094 
Q 2847 2600 2669 2842 
Q 2491 3084 2119 3084 
Q 1678 3084 1418 2786 
Q 1159 2488 1159 1978 
L 1159 0 
L 581 0 
L 581 3500 
L 1159 3500 
L 1159 2956 
Q 1356 3278 1631 3431 
Q 1906 3584 2284 3584 
Q 2666 3584 2933 3390 
Q 3200 3197 3328 2828 
z
" transform="scale(0.015625)"/>
      <path id="DejaVuSans-2d" d="M 313 2009 
L 1997 2009 
L 1997 1497 
L 313 1497 
L 313 2009 
z
" transform="scale(0.015625)"/>
      <path id="DejaVuSans-41" d="M 2188 4044 
L 1331 1722 
L 3047 1722 
L 2188 4044 
z
M 1831 4666 
L 2547 4666 
L 4325 0 
L 3669 0 
L 3244 1197 
L 1141 1197 
L 716 0 
L 50 0 
L 1831 4666 
z
" transform="scale(0.015625)"/>
      <path id="DejaVuSans-56" d="M 1831 0 
L 50 4666 
L 709 4666 
L 2188 738 
L 3669 4666 
L 4325 4666 
L 2547 0 
L 1831 0 
z
" transform="scale(0.015625)"/>
     </defs>
     <use xlink:href="#DejaVuSans-52"/>
     <use xlink:href="#DejaVuSans-61" x="67.232422"/>
     <use xlink:href="#DejaVuSans-64" x="128.511719"/>
     <use xlink:href="#DejaVuSans-69" x="191.988281"/>
     <use xlink:href="#DejaVuSans-61" x="219.771484"/>
     <use xlink:href="#DejaVuSans-74" x="281.050781"/>
     <use xlink:href="#DejaVuSans-69" x="320.259766"/>
     <use xlink:href="#DejaVuSans-6f" x="348.042969"/>
     <use xlink:href="#DejaVuSans-6e" x="409.224609"/>
     <use xlink:href="#DejaVuSans-20" x="472.603516"/>
     <use xlink:href="#DejaVuSans-44" x="504.390625"/>
     <use xlink:href="#DejaVuSans-69" x="581.392578"/>
     <use xlink:href="#DejaVuSans-61" x="609.175781"/>
     <use xlink:href="#DejaVuSans-67" x="670.455078"/>
     <use xlink:href="#DejaVuSans-72" x="733.931641"/>
     <use xlink:href="#DejaVuSans-61" x="775.044922"/>
     <use xlink:href="#DejaVuSans-6d" x="836.324219"/>
     <use xlink:href="#DejaVuSans-20" x="933.736328"/>
     <use xlink:href="#DejaVuSans-2d" x="965.523438"/>
     <use xlink:href="#DejaVuSans-20" x="1001.607422"/>
     <use xlink:href="#DejaVuSans-32" x="1033.394531"/>
     <use xlink:href="#DejaVuSans-41" x="1097.017578"/>
     <use xlink:href="#DejaVuSans-56" x="1159.050781"/>
     <use xlink:href="#DejaVuSans-48" x="1227.458984"/>
     <use xlink:href="#DejaVuSans-46" x="1302.654297"/>
     <use xlink:href="#DejaVuSans-30" x="1360.173828"/>
     <use xlink:href="#DejaVuSans-36" x="1423.796875"/>
    </g>
   </g>
   <g id="legend_1">
    <g id="patch_6">
     <path d="M 411.802813 78.513438 
L 466.5825 78.513438 
Q 468.5825 78.513438 468.5825 76.513438 
L 468.5825 48.157188 
Q 468.5825 46.157188 466.5825 46.157188 
L 411.802813 46.157188 
Q 409.802813 46.157188 409.802813 48.157188 
L 409.802813 76.513438 
Q 409.802813 78.513438 411.802813 78.513438 
z
" style="fill: #ffffff; opacity: 0.8; stroke: #cccccc; stroke-linejoin: miter"/>
    </g>
    <g id="line2d_18">
     <path d="M 413.802813 54.255625 
L 423.802813 54.255625 
L 433.802813 54.255625 
" style="fill: none; stroke: #ff0000; stroke-width: 1.5; stroke-linecap: square"/>
    </g>
    <g id="text_19">
     <!-- INPE -->
     <g transform="translate(441.802813 57.755625)scale(0.1 -0.1)">
      <defs>
       <path id="DejaVuSans-49" d="M 628 4666 
L 1259 4666 
L 1259 0 
L 628 0 
L 628 4666 
z
" transform="scale(0.015625)"/>
       <path id="DejaVuSans-4e" d="M 628 4666 
L 1478 4666 
L 3547 763 
L 3547 4666 
L 4159 4666 
L 4159 0 
L 3309 0 
L 1241 3903 
L 1241 0 
L 628 0 
L 628 4666 
z
" transform="scale(0.015625)"/>
       <path id="DejaVuSans-45" d="M 628 4666 
L 3578 4666 
L 3578 4134 
L 1259 4134 
L 1259 2753 
L 3481 2753 
L 3481 2222 
L 1259 2222 
L 1259 531 
L 3634 531 
L 3634 0 
L 628 0 
L 628 4666 
z
" transform="scale(0.015625)"/>
      </defs>
      <use xlink:href="#DejaVuSans-49"/>
      <use xlink:href="#DejaVuSans-4e" x="29.492188"/>
      <use xlink:href="#DejaVuSans-50" x="104.296875"/>
      <use xlink:href="#DejaVuSans-45" x="164.599609"/>
     </g>
    </g>
    <g id="line2d_19">
     <path d="M 413.802813 68.93375 
L 423.802813 68.93375 
L 433.802813 68.93375 
" style="fill: none; stroke-dasharray: 5.55,2.4; stroke-dashoffset: 0; stroke: #0000ff; stroke-width: 1.5"/>
    </g>
    <g id="text_20">
     <!-- CST -->
     <g transform="translate(441.802813 72.43375)scale(0.1 -0.1)">
      <defs>
       <path id="DejaVuSans-53" d="M 3425 4513 
L 3425 3897 
Q 3066 4069 2747 4153 
Q 2428 4238 2131 4238 
Q 1616 4238 1336 4038 
Q 1056 3838 1056 3469 
Q 1056 3159 1242 3001 
Q 1428 2844 1947 2747 
L 2328 2669 
Q 3034 2534 3370 2195 
Q 3706 1856 3706 1288 
Q 3706 609 3251 259 
Q 2797 -91 1919 -91 
Q 1588 -91 1214 -16 
Q 841 59 441 206 
L 441 856 
Q 825 641 1194 531 
Q 1563 422 1919 422 
Q 2459 422 2753 634 
Q 3047 847 3047 1241 
Q 3047 1584 2836 1778 
Q 2625 1972 2144 2069 
L 1759 2144 
Q 1053 2284 737 2584 
Q 422 2884 422 3419 
Q 422 4038 858 4394 
Q 1294 4750 2059 4750 
Q 2388 4750 2728 4690 
Q 3069 4631 3425 4513 
z
" transform="scale(0.015625)"/>
       <path id="DejaVuSans-54" d="M -19 4666 
L 3928 4666 
L 3928 4134 
L 2272 4134 
L 2272 0 
L 1638 0 
L 1638 4134 
L -19 4134 
L -19 4666 
z
" transform="scale(0.015625)"/>
      </defs>
      <use xlink:href="#DejaVuSans-43"/>
      <use xlink:href="#DejaVuSans-53" x="69.824219"/>
      <use xlink:href="#DejaVuSans-54" x="133.300781"/>
     </g>
    </g>
   </g>
  </g>
 </g>
 <defs>
  <clipPath id="pd386ce62d0">
   <path d="M 473.5825 262.917188 
C 473.5825 233.795931 467.846247 204.957842 456.702025 178.05331 
C 445.557803 151.148777 429.222338 126.701026 408.6305 106.109188 
C 388.038662 85.51735 363.590911 69.181885 336.686378 58.037662 
C 309.781845 46.89344 280.943756 41.157188 251.8225 41.157188 
C 222.701244 41.157188 193.863155 46.89344 166.958622 58.037662 
C 140.054089 69.181885 115.606338 85.51735 95.0145 106.109188 
C 74.422662 126.701026 58.087197 151.148777 46.942975 178.05331 
C 35.798753 204.957842 30.0625 233.795931 30.0625 262.917188 
C 30.0625 292.038444 35.798753 320.876533 46.942975 347.781065 
C 58.087197 374.685598 74.422662 399.133349 95.0145 419.725187 
C 115.606338 440.317025 140.054089 456.65249 166.958622 467.796713 
C 193.863155 478.940935 222.701244 484.677188 251.8225 484.677188 
C 280.943756 484.677188 309.781845 478.940935 336.686378 467.796713 
C 363.590911 456.65249 388.038662 440.317025 408.6305 419.725187 
C 429.222338 399.133349 445.557803 374.685598 456.702025 347.781065 
C 467.846247 320.876533 473.5825 292.038444 473.5825 262.917188 
M 251.8225 262.917188 
C 251.8225 262.917188 251.8225 262.917188 251.8225 262.917188 
C 251.8225 262.917188 251.8225 262.917188 251.8225 262.917188 
C 251.8225 262.917188 251.8225 262.917188 251.8225 262.917188 
C 251.8225 262.917188 251.8225 262.917188 251.8225 262.917188 
C 251.8225 262.917188 251.8225 262.917188 251.8225 262.917188 
C 251.8225 262.917188 251.8225 262.917188 251.8225 262.917188 
C 251.8225 262.917188 251.8225 262.917188 251.8225 262.917188 
C 251.8225 262.917188 251.8225 262.917188 251.8225 262.917188 
C 251.8225 262.917188 251.8225 262.917188 251.8225 262.917188 
C 251.8225 262.917188 251.8225 262.917188 251.8225 262.917188 
C 251.8225 262.917188 251.8225 262.917188 251.8225 262.917188 
C 251.8225 262.917188 251.8225 262.917188 251.8225 262.917188 
C 251.8225 262.917188 251.8225 262.917188 251.8225 262.917188 
C 251.8225 262.917188 251.8225 262.917188 251.8225 262.917188 
C 251.8225 262.917188 251.8225 262.917188 251.8225 262.917188 
C 251.8225 262.917188 251.8225 262.917188 251.8225 262.917188 
M 473.5825 262.917188 
z
"/>
  </clipPath>
 </defs>
</svg>
