<?xml version="1.0" encoding="utf-8" standalone="no"?>
<!DOCTYPE svg PUBLIC "-//W3C//DTD SVG 1.1//EN"
  "http://www.w3.org/Graphics/SVG/1.1/DTD/svg11.dtd">
<svg xmlns:xlink="http://www.w3.org/1999/xlink" width="506.82625pt" height="514.053188pt" viewBox="0 0 506.82625 514.053188" xmlns="http://www.w3.org/2000/svg" version="1.1">
 <metadata>
  <rdf:RDF xmlns:dc="http://purl.org/dc/elements/1.1/" xmlns:cc="http://creativecommons.org/ns#" xmlns:rdf="http://www.w3.org/1999/02/22-rdf-syntax-ns#">
   <cc:Work>
    <dc:type rdf:resource="http://purl.org/dc/dcmitype/StillImage"/>
    <dc:date>2024-01-27T15:08:25.085662</dc:date>
    <dc:format>image/svg+xml</dc:format>
    <dc:creator>
     <cc:Agent>
      <dc:title>Matplotlib v3.5.1, https://matplotlib.org/</dc:title>
     </cc:Agent>
    </dc:creator>
   </cc:Work>
  </rdf:RDF>
 </metadata>
 <defs>
  <style type="text/css">*{stroke-linejoin: round; stroke-linecap: butt}</style>
 </defs>
 <g id="figure_1">
  <g id="patch_1">
   <path d="M 0 514.053188 
L 506.82625 514.053188 
L 506.82625 0 
L 0 0 
z
" style="fill: #ffffff"/>
  </g>
  <g id="axes_1">
   <g id="patch_2">
    <path d="M 473.5825 262.917188 
C 473.5825 233.795931 467.846247 204.957842 456.702025 178.05331 
C 445.557803 151.148777 429.222338 126.701026 408.6305 106.109188 
C 388.038662 85.51735 363.590911 69.181885 336.686378 58.037662 
C 309.781845 46.89344 280.943756 41.157188 251.8225 41.157188 
C 222.701244 41.157188 193.863155 46.89344 166.958622 58.037662 
C 140.054089 69.181885 115.606338 85.51735 95.0145 106.109188 
C 74.422662 126.701026 58.087197 151.148777 46.942975 178.05331 
C 35.798753 204.957842 30.0625 233.795931 30.0625 262.917188 
C 30.0625 292.038444 35.798753 320.876533 46.942975 347.781065 
C 58.087197 374.685598 74.422662 399.133349 95.0145 419.725187 
C 115.606338 440.317025 140.054089 456.65249 166.958622 467.796713 
C 193.863155 478.940935 222.701244 484.677188 251.8225 484.677188 
C 280.943756 484.677188 309.781845 478.940935 336.686378 467.796713 
C 363.590911 456.65249 388.038662 440.317025 408.6305 419.725187 
C 429.222338 399.133349 445.557803 374.685598 456.702025 347.781065 
C 467.846247 320.876533 473.5825 292.038444 473.5825 262.917188 
M 251.8225 262.917188 
C 251.8225 262.917188 251.8225 262.917188 251.8225 262.917188 
C 251.8225 262.917188 251.8225 262.917188 251.8225 262.917188 
C 251.8225 262.917188 251.8225 262.917188 251.8225 262.917188 
C 251.8225 262.917188 251.8225 262.917188 251.8225 262.917188 
C 251.8225 262.917188 251.8225 262.917188 251.8225 262.917188 
C 251.8225 262.917188 251.8225 262.917188 251.8225 262.917188 
C 251.8225 262.917188 251.8225 262.917188 251.8225 262.917188 
C 251.8225 262.917188 251.8225 262.917188 251.8225 262.917188 
C 251.8225 262.917188 251.8225 262.917188 251.8225 262.917188 
C 251.8225 262.917188 251.8225 262.917188 251.8225 262.917188 
C 251.8225 262.917188 251.8225 262.917188 251.8225 262.917188 
C 251.8225 262.917188 251.8225 262.917188 251.8225 262.917188 
C 251.8225 262.917188 251.8225 262.917188 251.8225 262.917188 
C 251.8225 262.917188 251.8225 262.917188 251.8225 262.917188 
C 251.8225 262.917188 251.8225 262.917188 251.8225 262.917188 
C 251.8225 262.917188 251.8225 262.917188 251.8225 262.917188 
M 473.5825 262.917188 
z
" style="fill: #ffffff"/>
   </g>
   <g id="matplotlib.axis_1">
    <g id="xtick_1">
     <g id="line2d_1">
      <path d="M 251.8225 262.917188 
L 251.8225 41.157188 
" clip-path="url(#pb577013dac)" style="fill: none; stroke: #b0b0b0; stroke-width: 0.8; stroke-linecap: square"/>
     </g>
     <g id="text_1">
      <!-- 0° -->
      <g transform="translate(246.14125 29.916563)scale(0.1 -0.1)">
       <defs>
        <path id="DejaVuSans-30" d="M 2034 4250 
Q 1547 4250 1301 3770 
Q 1056 3291 1056 2328 
Q 1056 1369 1301 889 
Q 1547 409 2034 409 
Q 2525 409 2770 889 
Q 3016 1369 3016 2328 
Q 3016 3291 2770 3770 
Q 2525 4250 2034 4250 
z
M 2034 4750 
Q 2819 4750 3233 4129 
Q 3647 3509 3647 2328 
Q 3647 1150 3233 529 
Q 2819 -91 2034 -91 
Q 1250 -91 836 529 
Q 422 1150 422 2328 
Q 422 3509 836 4129 
Q 1250 4750 2034 4750 
z
" transform="scale(0.015625)"/>
        <path id="DejaVuSans-b0" d="M 1600 4347 
Q 1350 4347 1178 4173 
Q 1006 4000 1006 3750 
Q 1006 3503 1178 3333 
Q 1350 3163 1600 3163 
Q 1850 3163 2022 3333 
Q 2194 3503 2194 3750 
Q 2194 3997 2020 4172 
Q 1847 4347 1600 4347 
z
M 1600 4750 
Q 1800 4750 1984 4673 
Q 2169 4597 2303 4453 
Q 2447 4313 2519 4134 
Q 2591 3956 2591 3750 
Q 2591 3338 2302 3052 
Q 2013 2766 1594 2766 
Q 1172 2766 890 3047 
Q 609 3328 609 3750 
Q 609 4169 896 4459 
Q 1184 4750 1600 4750 
z
" transform="scale(0.015625)"/>
       </defs>
       <use xlink:href="#DejaVuSans-30"/>
       <use xlink:href="#DejaVuSans-b0" x="63.623047"/>
      </g>
     </g>
    </g>
    <g id="xtick_2">
     <g id="line2d_2">
      <path d="M 251.8225 262.917188 
L 95.0145 106.109188 
" clip-path="url(#pb577013dac)" style="fill: none; stroke: #b0b0b0; stroke-width: 0.8; stroke-linecap: square"/>
     </g>
     <g id="text_2">
      <!-- 45° -->
      <g transform="translate(76.252505 98.969068)scale(0.1 -0.1)">
       <defs>
        <path id="DejaVuSans-34" d="M 2419 4116 
L 825 1625 
L 2419 1625 
L 2419 4116 
z
M 2253 4666 
L 3047 4666 
L 3047 1625 
L 3713 1625 
L 3713 1100 
L 3047 1100 
L 3047 0 
L 2419 0 
L 2419 1100 
L 313 1100 
L 313 1709 
L 2253 4666 
z
" transform="scale(0.015625)"/>
        <path id="DejaVuSans-35" d="M 691 4666 
L 3169 4666 
L 3169 4134 
L 1269 4134 
L 1269 2991 
Q 1406 3038 1543 3061 
Q 1681 3084 1819 3084 
Q 2600 3084 3056 2656 
Q 3513 2228 3513 1497 
Q 3513 744 3044 326 
Q 2575 -91 1722 -91 
Q 1428 -91 1123 -41 
Q 819 9 494 109 
L 494 744 
Q 775 591 1075 516 
Q 1375 441 1709 441 
Q 2250 441 2565 725 
Q 2881 1009 2881 1497 
Q 2881 1984 2565 2268 
Q 2250 2553 1709 2553 
Q 1456 2553 1204 2497 
Q 953 2441 691 2322 
L 691 4666 
z
" transform="scale(0.015625)"/>
       </defs>
       <use xlink:href="#DejaVuSans-34"/>
       <use xlink:href="#DejaVuSans-35" x="63.623047"/>
       <use xlink:href="#DejaVuSans-b0" x="127.246094"/>
      </g>
     </g>
    </g>
    <g id="xtick_3">
     <g id="line2d_3">
      <path d="M 251.8225 262.917188 
L 30.0625 262.917188 
" clip-path="url(#pb577013dac)" style="fill: none; stroke: #b0b0b0; stroke-width: 0.8; stroke-linecap: square"/>
     </g>
     <g id="text_3">
      <!-- 90° -->
      <g transform="translate(7.2 265.676563)scale(0.1 -0.1)">
       <defs>
        <path id="DejaVuSans-39" d="M 703 97 
L 703 672 
Q 941 559 1184 500 
Q 1428 441 1663 441 
Q 2288 441 2617 861 
Q 2947 1281 2994 2138 
Q 2813 1869 2534 1725 
Q 2256 1581 1919 1581 
Q 1219 1581 811 2004 
Q 403 2428 403 3163 
Q 403 3881 828 4315 
Q 1253 4750 1959 4750 
Q 2769 4750 3195 4129 
Q 3622 3509 3622 2328 
Q 3622 1225 3098 567 
Q 2575 -91 1691 -91 
Q 1453 -91 1209 -44 
Q 966 3 703 97 
z
M 1959 2075 
Q 2384 2075 2632 2365 
Q 2881 2656 2881 3163 
Q 2881 3666 2632 3958 
Q 2384 4250 1959 4250 
Q 1534 4250 1286 3958 
Q 1038 3666 1038 3163 
Q 1038 2656 1286 2365 
Q 1534 2075 1959 2075 
z
" transform="scale(0.015625)"/>
       </defs>
       <use xlink:href="#DejaVuSans-39"/>
       <use xlink:href="#DejaVuSans-30" x="63.623047"/>
       <use xlink:href="#DejaVuSans-b0" x="127.246094"/>
      </g>
     </g>
    </g>
    <g id="xtick_4">
     <g id="line2d_4">
      <path d="M 251.8225 262.917188 
L 95.0145 419.725187 
" clip-path="url(#pb577013dac)" style="fill: none; stroke: #b0b0b0; stroke-width: 0.8; stroke-linecap: square"/>
     </g>
     <g id="text_4">
      <!-- 135° -->
      <g transform="translate(73.071255 432.384057)scale(0.1 -0.1)">
       <defs>
        <path id="DejaVuSans-31" d="M 794 531 
L 1825 531 
L 1825 4091 
L 703 3866 
L 703 4441 
L 1819 4666 
L 2450 4666 
L 2450 531 
L 3481 531 
L 3481 0 
L 794 0 
L 794 531 
z
" transform="scale(0.015625)"/>
        <path id="DejaVuSans-33" d="M 2597 2516 
Q 3050 2419 3304 2112 
Q 3559 1806 3559 1356 
Q 3559 666 3084 287 
Q 2609 -91 1734 -91 
Q 1441 -91 1130 -33 
Q 819 25 488 141 
L 488 750 
Q 750 597 1062 519 
Q 1375 441 1716 441 
Q 2309 441 2620 675 
Q 2931 909 2931 1356 
Q 2931 1769 2642 2001 
Q 2353 2234 1838 2234 
L 1294 2234 
L 1294 2753 
L 1863 2753 
Q 2328 2753 2575 2939 
Q 2822 3125 2822 3475 
Q 2822 3834 2567 4026 
Q 2313 4219 1838 4219 
Q 1578 4219 1281 4162 
Q 984 4106 628 3988 
L 628 4550 
Q 988 4650 1302 4700 
Q 1616 4750 1894 4750 
Q 2613 4750 3031 4423 
Q 3450 4097 3450 3541 
Q 3450 3153 3228 2886 
Q 3006 2619 2597 2516 
z
" transform="scale(0.015625)"/>
       </defs>
       <use xlink:href="#DejaVuSans-31"/>
       <use xlink:href="#DejaVuSans-33" x="63.623047"/>
       <use xlink:href="#DejaVuSans-35" x="127.246094"/>
       <use xlink:href="#DejaVuSans-b0" x="190.869141"/>
      </g>
     </g>
    </g>
    <g id="xtick_5">
     <g id="line2d_5">
      <path d="M 251.8225 262.917188 
L 251.8225 484.677188 
" clip-path="url(#pb577013dac)" style="fill: none; stroke: #b0b0b0; stroke-width: 0.8; stroke-linecap: square"/>
     </g>
     <g id="text_5">
      <!-- 180° -->
      <g transform="translate(239.77875 501.436563)scale(0.1 -0.1)">
       <defs>
        <path id="DejaVuSans-38" d="M 2034 2216 
Q 1584 2216 1326 1975 
Q 1069 1734 1069 1313 
Q 1069 891 1326 650 
Q 1584 409 2034 409 
Q 2484 409 2743 651 
Q 3003 894 3003 1313 
Q 3003 1734 2745 1975 
Q 2488 2216 2034 2216 
z
M 1403 2484 
Q 997 2584 770 2862 
Q 544 3141 544 3541 
Q 544 4100 942 4425 
Q 1341 4750 2034 4750 
Q 2731 4750 3128 4425 
Q 3525 4100 3525 3541 
Q 3525 3141 3298 2862 
Q 3072 2584 2669 2484 
Q 3125 2378 3379 2068 
Q 3634 1759 3634 1313 
Q 3634 634 3220 271 
Q 2806 -91 2034 -91 
Q 1263 -91 848 271 
Q 434 634 434 1313 
Q 434 1759 690 2068 
Q 947 2378 1403 2484 
z
M 1172 3481 
Q 1172 3119 1398 2916 
Q 1625 2713 2034 2713 
Q 2441 2713 2670 2916 
Q 2900 3119 2900 3481 
Q 2900 3844 2670 4047 
Q 2441 4250 2034 4250 
Q 1625 4250 1398 4047 
Q 1172 3844 1172 3481 
z
" transform="scale(0.015625)"/>
       </defs>
       <use xlink:href="#DejaVuSans-31"/>
       <use xlink:href="#DejaVuSans-38" x="63.623047"/>
       <use xlink:href="#DejaVuSans-30" x="127.246094"/>
       <use xlink:href="#DejaVuSans-b0" x="190.869141"/>
      </g>
     </g>
    </g>
    <g id="xtick_6">
     <g id="line2d_6">
      <path d="M 251.8225 262.917188 
L 408.6305 419.725187 
" clip-path="url(#pb577013dac)" style="fill: none; stroke: #b0b0b0; stroke-width: 0.8; stroke-linecap: square"/>
     </g>
     <g id="text_6">
      <!-- 225° -->
      <g transform="translate(406.486245 432.384057)scale(0.1 -0.1)">
       <defs>
        <path id="DejaVuSans-32" d="M 1228 531 
L 3431 531 
L 3431 0 
L 469 0 
L 469 531 
Q 828 903 1448 1529 
Q 2069 2156 2228 2338 
Q 2531 2678 2651 2914 
Q 2772 3150 2772 3378 
Q 2772 3750 2511 3984 
Q 2250 4219 1831 4219 
Q 1534 4219 1204 4116 
Q 875 4013 500 3803 
L 500 4441 
Q 881 4594 1212 4672 
Q 1544 4750 1819 4750 
Q 2544 4750 2975 4387 
Q 3406 4025 3406 3419 
Q 3406 3131 3298 2873 
Q 3191 2616 2906 2266 
Q 2828 2175 2409 1742 
Q 1991 1309 1228 531 
z
" transform="scale(0.015625)"/>
       </defs>
       <use xlink:href="#DejaVuSans-32"/>
       <use xlink:href="#DejaVuSans-32" x="63.623047"/>
       <use xlink:href="#DejaVuSans-35" x="127.246094"/>
       <use xlink:href="#DejaVuSans-b0" x="190.869141"/>
      </g>
     </g>
    </g>
    <g id="xtick_7">
     <g id="line2d_7">
      <path d="M 251.8225 262.917188 
L 473.5825 262.917188 
" clip-path="url(#pb577013dac)" style="fill: none; stroke: #b0b0b0; stroke-width: 0.8; stroke-linecap: square"/>
     </g>
     <g id="text_7">
      <!-- 270° -->
      <g transform="translate(475.53875 265.676563)scale(0.1 -0.1)">
       <defs>
        <path id="DejaVuSans-37" d="M 525 4666 
L 3525 4666 
L 3525 4397 
L 1831 0 
L 1172 0 
L 2766 4134 
L 525 4134 
L 525 4666 
z
" transform="scale(0.015625)"/>
       </defs>
       <use xlink:href="#DejaVuSans-32"/>
       <use xlink:href="#DejaVuSans-37" x="63.623047"/>
       <use xlink:href="#DejaVuSans-30" x="127.246094"/>
       <use xlink:href="#DejaVuSans-b0" x="190.869141"/>
      </g>
     </g>
    </g>
    <g id="xtick_8">
     <g id="line2d_8">
      <path d="M 251.8225 262.917188 
L 408.6305 106.109188 
" clip-path="url(#pb577013dac)" style="fill: none; stroke: #b0b0b0; stroke-width: 0.8; stroke-linecap: square"/>
     </g>
     <g id="text_8">
      <!-- 315° -->
      <g transform="translate(406.486245 98.969068)scale(0.1 -0.1)">
       <use xlink:href="#DejaVuSans-33"/>
       <use xlink:href="#DejaVuSans-31" x="63.623047"/>
       <use xlink:href="#DejaVuSans-35" x="127.246094"/>
       <use xlink:href="#DejaVuSans-b0" x="190.869141"/>
      </g>
     </g>
    </g>
   </g>
   <g id="matplotlib.axis_2">
    <g id="ytick_1">
     <g id="line2d_9">
      <path d="M 251.8225 259.953806 
C 251.433352 259.953806 251.047989 260.03046 250.688463 260.17938 
C 250.328937 260.3283 250.002242 260.546591 249.727073 260.82176 
C 249.451904 261.096929 249.233613 261.423625 249.084693 261.783151 
C 248.935772 262.142676 248.859119 262.52804 248.859119 262.917188 
C 248.859119 263.306335 248.935772 263.691699 249.084693 264.051224 
C 249.233613 264.41075 249.451904 264.737446 249.727073 265.012615 
C 250.002242 265.287784 250.328937 265.506075 250.688463 265.654995 
C 251.047989 265.803915 251.433352 265.880569 251.8225 265.880569 
C 252.211648 265.880569 252.597011 265.803915 252.956537 265.654995 
C 253.316063 265.506075 253.642758 265.287784 253.917927 265.012615 
C 254.193096 264.737446 254.411387 264.41075 254.560307 264.051224 
C 254.709228 263.691699 254.785881 263.306335 254.785881 262.917188 
C 254.785881 262.52804 254.709228 262.142676 254.560307 261.783151 
C 254.411387 261.423625 254.193096 261.096929 253.917927 260.82176 
C 253.642758 260.546591 253.316063 260.3283 252.956537 260.17938 
C 252.597011 260.03046 252.211648 259.953806 251.8225 259.953806 
" clip-path="url(#pb577013dac)" style="fill: none; stroke: #b0b0b0; stroke-width: 0.8; stroke-linecap: square"/>
     </g>
     <g id="text_9">
      <!-- −50 -->
      <g transform="translate(250.688463 258.099693)scale(0.1 -0.1)">
       <defs>
        <path id="DejaVuSans-2212" d="M 678 2272 
L 4684 2272 
L 4684 1741 
L 678 1741 
L 678 2272 
z
" transform="scale(0.015625)"/>
       </defs>
       <use xlink:href="#DejaVuSans-2212"/>
       <use xlink:href="#DejaVuSans-35" x="83.789062"/>
       <use xlink:href="#DejaVuSans-30" x="147.412109"/>
      </g>
     </g>
    </g>
    <g id="ytick_2">
     <g id="line2d_10">
      <path d="M 251.8225 216.194482 
C 245.686931 216.194482 239.611022 217.403056 233.942495 219.751037 
C 228.273968 222.099017 223.123061 225.540743 218.784558 229.879246 
C 214.446056 234.217749 211.00433 239.368655 208.656349 245.037182 
C 206.308368 250.705709 205.099795 256.781618 205.099795 262.917188 
C 205.099795 269.052757 206.308368 275.128666 208.656349 280.797193 
C 211.00433 286.46572 214.446056 291.616626 218.784558 295.955129 
C 223.123061 300.293632 228.273968 303.735358 233.942495 306.083338 
C 239.611022 308.431319 245.686931 309.639893 251.8225 309.639893 
C 257.958069 309.639893 264.033978 308.431319 269.702505 306.083338 
C 275.371032 303.735358 280.521939 300.293632 284.860442 295.955129 
C 289.198944 291.616626 292.64067 286.46572 294.988651 280.797193 
C 297.336632 275.128666 298.545205 269.052757 298.545205 262.917188 
C 298.545205 256.781618 297.336632 250.705709 294.988651 245.037182 
C 292.64067 239.368655 289.198944 234.217749 284.860442 229.879246 
C 280.521939 225.540743 275.371032 222.099017 269.702505 219.751037 
C 264.033978 217.403056 257.958069 216.194482 251.8225 216.194482 
" clip-path="url(#pb577013dac)" style="fill: none; stroke: #b0b0b0; stroke-width: 0.8; stroke-linecap: square"/>
     </g>
     <g id="text_10">
      <!-- −40 -->
      <g transform="translate(233.942495 217.671349)scale(0.1 -0.1)">
       <use xlink:href="#DejaVuSans-2212"/>
       <use xlink:href="#DejaVuSans-34" x="83.789062"/>
       <use xlink:href="#DejaVuSans-30" x="147.412109"/>
      </g>
     </g>
    </g>
    <g id="ytick_3">
     <g id="line2d_11">
      <path d="M 251.8225 172.435159 
C 239.940509 172.435159 228.174055 174.775652 217.196527 179.322693 
C 206.218998 183.869734 196.24388 190.534895 187.842044 198.936731 
C 179.440207 207.338568 172.775047 217.313686 168.228005 228.291214 
C 163.680964 239.268743 161.340471 251.035196 161.340471 262.917188 
C 161.340471 274.799179 163.680964 286.565632 168.228005 297.543161 
C 172.775047 308.520689 179.440207 318.495807 187.842044 326.897644 
C 196.24388 335.29948 206.218998 341.964641 217.196527 346.511682 
C 228.174055 351.058723 239.940509 353.399216 251.8225 353.399216 
C 263.704491 353.399216 275.470945 351.058723 286.448473 346.511682 
C 297.426002 341.964641 307.40112 335.29948 315.802956 326.897644 
C 324.204793 318.495807 330.869953 308.520689 335.416995 297.543161 
C 339.964036 286.565632 342.304529 274.799179 342.304529 262.917188 
C 342.304529 251.035196 339.964036 239.268743 335.416995 228.291214 
C 330.869953 217.313686 324.204793 207.338568 315.802956 198.936731 
C 307.40112 190.534895 297.426002 183.869734 286.448473 179.322693 
C 275.470945 174.775652 263.704491 172.435159 251.8225 172.435159 
" clip-path="url(#pb577013dac)" style="fill: none; stroke: #b0b0b0; stroke-width: 0.8; stroke-linecap: square"/>
     </g>
     <g id="text_11">
      <!-- −30 -->
      <g transform="translate(217.196527 177.243005)scale(0.1 -0.1)">
       <use xlink:href="#DejaVuSans-2212"/>
       <use xlink:href="#DejaVuSans-33" x="83.789062"/>
       <use xlink:href="#DejaVuSans-30" x="147.412109"/>
      </g>
     </g>
    </g>
    <g id="ytick_4">
     <g id="line2d_12">
      <path d="M 251.8225 128.675835 
C 234.194087 128.675835 216.737088 132.148248 200.450558 138.894349 
C 184.164029 145.640451 169.3647 155.529046 156.899529 167.994217 
C 144.434359 180.459387 134.545764 195.258716 127.799662 211.545246 
C 121.05356 227.831776 117.581147 245.288775 117.581147 262.917188 
C 117.581147 280.5456 121.05356 298.002599 127.799662 314.289129 
C 134.545764 330.575659 144.434359 345.374988 156.899529 357.840158 
C 169.3647 370.305329 184.164029 380.193924 200.450558 386.940026 
C 216.737088 393.686127 234.194087 397.15854 251.8225 397.15854 
C 269.450913 397.15854 286.907912 393.686127 303.194442 386.940026 
C 319.480971 380.193924 334.2803 370.305329 346.745471 357.840158 
C 359.210641 345.374988 369.099236 330.575659 375.845338 314.289129 
C 382.59144 298.002599 386.063853 280.5456 386.063853 262.917188 
C 386.063853 245.288775 382.59144 227.831776 375.845338 211.545246 
C 369.099236 195.258716 359.210641 180.459387 346.745471 167.994217 
C 334.2803 155.529046 319.480971 145.640451 303.194442 138.894349 
C 286.907912 132.148248 269.450913 128.675835 251.8225 128.675835 
" clip-path="url(#pb577013dac)" style="fill: none; stroke: #b0b0b0; stroke-width: 0.8; stroke-linecap: square"/>
     </g>
     <g id="text_12">
      <!-- −20 -->
      <g transform="translate(200.450558 136.814662)scale(0.1 -0.1)">
       <use xlink:href="#DejaVuSans-2212"/>
       <use xlink:href="#DejaVuSans-32" x="83.789062"/>
       <use xlink:href="#DejaVuSans-30" x="147.412109"/>
      </g>
     </g>
    </g>
    <g id="ytick_5">
     <g id="line2d_13">
      <path d="M 251.8225 84.916511 
C 228.447665 84.916511 205.300122 89.520844 183.70459 98.466006 
C 162.109059 107.411168 142.485519 120.523198 125.957015 137.051702 
C 109.428511 153.580206 96.31648 173.203746 87.371318 194.799278 
C 78.426156 216.394809 73.821824 239.542353 73.821824 262.917188 
C 73.821824 286.292022 78.426156 309.439566 87.371318 331.035097 
C 96.31648 352.630629 109.428511 372.254169 125.957015 388.782673 
C 142.485519 405.311177 162.109059 418.423207 183.70459 427.368369 
C 205.300122 436.313531 228.447665 440.917864 251.8225 440.917864 
C 275.197335 440.917864 298.344878 436.313531 319.94041 427.368369 
C 341.535941 418.423207 361.159481 405.311177 377.687985 388.782673 
C 394.216489 372.254169 407.32852 352.630629 416.273682 331.035097 
C 425.218844 309.439566 429.823176 286.292022 429.823176 262.917188 
C 429.823176 239.542353 425.218844 216.394809 416.273682 194.799278 
C 407.32852 173.203746 394.216489 153.580206 377.687985 137.051702 
C 361.159481 120.523198 341.535941 107.411168 319.94041 98.466006 
C 298.344878 89.520844 275.197335 84.916511 251.8225 84.916511 
" clip-path="url(#pb577013dac)" style="fill: none; stroke: #b0b0b0; stroke-width: 0.8; stroke-linecap: square"/>
     </g>
     <g id="text_13">
      <!-- −10 -->
      <g transform="translate(183.70459 96.386318)scale(0.1 -0.1)">
       <use xlink:href="#DejaVuSans-2212"/>
       <use xlink:href="#DejaVuSans-31" x="83.789062"/>
       <use xlink:href="#DejaVuSans-30" x="147.412109"/>
      </g>
     </g>
    </g>
    <g id="ytick_6">
     <g id="line2d_14">
      <path d="M 251.8225 41.157188 
C 222.701244 41.157188 193.863155 46.89344 166.958622 58.037662 
C 140.054089 69.181885 115.606338 85.51735 95.0145 106.109188 
C 74.422662 126.701026 58.087197 151.148777 46.942975 178.05331 
C 35.798753 204.957842 30.0625 233.795931 30.0625 262.917188 
C 30.0625 292.038444 35.798753 320.876533 46.942975 347.781065 
C 58.087197 374.685598 74.422662 399.133349 95.0145 419.725187 
C 115.606338 440.317025 140.054089 456.65249 166.958622 467.796713 
C 193.863155 478.940935 222.701244 484.677188 251.8225 484.677188 
C 280.943756 484.677188 309.781845 478.940935 336.686378 467.796713 
C 363.590911 456.65249 388.038662 440.317025 408.6305 419.725187 
C 429.222338 399.133349 445.557803 374.685598 456.702025 347.781065 
C 467.846247 320.876533 473.5825 292.038444 473.5825 262.917188 
C 473.5825 233.795931 467.846247 204.957842 456.702025 178.05331 
C 445.557803 151.148777 429.222338 126.701026 408.6305 106.109188 
C 388.038662 85.51735 363.590911 69.181885 336.686378 58.037662 
C 309.781845 46.89344 280.943756 41.157188 251.8225 41.157188 
" clip-path="url(#pb577013dac)" style="fill: none; stroke: #b0b0b0; stroke-width: 0.8; stroke-linecap: square"/>
     </g>
     <g id="text_14">
      <!-- 0 -->
      <g transform="translate(166.958622 55.957975)scale(0.1 -0.1)">
       <use xlink:href="#DejaVuSans-30"/>
      </g>
     </g>
    </g>
   </g>
   <g id="line2d_15">
    <path d="M 251.8225 481.421494 
L 259.377329 479.259191 
L 266.77155 476.698566 
L 270.432005 475.624798 
L 274.01427 474.057776 
L 277.520349 472.209368 
L 281.003436 470.550332 
L 284.39542 468.574508 
L 291.233122 465.667259 
L 294.627305 464.297963 
L 298.059568 463.191934 
L 301.446174 461.946872 
L 307.926553 458.575271 
L 310.980877 456.415521 
L 313.863426 453.859523 
L 316.843036 451.750534 
L 319.732115 449.497321 
L 325.243336 444.640133 
L 327.473518 441.139817 
L 331.459534 433.699357 
L 332.94705 429.247165 
L 334.50055 425.181997 
L 336.399509 421.983406 
L 338.553847 419.384679 
L 341.385145 418.04424 
L 344.563406 417.263974 
L 347.869104 416.623885 
L 350.658576 415.111399 
L 353.192011 413.203668 
L 355.613697 411.146379 
L 357.955928 408.997319 
L 361.984501 403.918119 
L 364.282573 401.793812 
L 369.187108 397.929725 
L 371.273713 395.581199 
L 372.445715 392.269749 
L 372.678604 388.067346 
L 373.632862 380.548087 
L 375.491232 378.240146 
L 378.681778 377.141795 
L 388.705218 377.775426 
L 393.375506 377.544551 
L 397.740681 376.920965 
L 400.861373 375.226034 
L 403.62006 373.204571 
L 406.235047 371.038017 
L 408.570114 368.644788 
L 411.242874 366.445989 
L 414.532086 364.589421 
L 417.346987 362.374333 
L 420.550673 360.332444 
L 424.081335 358.401819 
L 427.050655 356.08765 
L 430.303185 353.857639 
L 433.373427 351.465491 
L 435.846949 348.729197 
L 438.204017 345.899585 
L 440.050848 342.815381 
L 441.376023 339.501782 
L 442.218016 336.003178 
L 443.295588 328.846659 
L 443.990091 321.668716 
L 444.405693 318.139529 
L 444.669746 307.439482 
L 444.09478 303.785922 
L 443.069131 300.091767 
L 441.538373 296.369215 
L 439.132687 292.584207 
L 436.506244 288.872795 
L 433.169793 285.183835 
L 428.813254 281.519665 
L 422.493568 277.848971 
L 414.338115 274.281386 
L 403.368361 270.85937 
L 385.041824 267.569309 
L 366.892868 264.925748 
L 372.599109 262.917188 
L 386.520311 260.566028 
L 401.537786 257.689015 
L 410.666153 254.592544 
L 419.139915 251.217214 
L 428.143195 247.491126 
L 432.64298 243.912189 
L 436.505459 240.240971 
L 439.626253 236.523091 
L 440.736171 232.996202 
L 442.403324 225.872028 
L 442.969059 222.287732 
L 443.927848 218.566173 
L 444.351637 214.914282 
L 444.025581 211.416527 
L 443.333057 208.002419 
L 442.374787 204.659507 
L 440.771697 197.856761 
L 439.54989 194.590005 
L 437.732373 191.553074 
L 435.484832 188.712789 
L 431.743874 182.811031 
L 427.210319 177.374833 
L 424.598971 174.883179 
L 421.799861 172.538622 
L 419.293412 170.086545 
L 416.461621 167.862747 
L 413.42729 165.815233 
L 410.809952 163.570801 
L 408.472049 161.187781 
L 404.514461 156.001125 
L 402.154416 153.694657 
L 399.138449 151.906658 
L 395.644126 150.551419 
L 391.233041 150.024758 
L 387.347594 149.198131 
L 383.978325 148.035882 
L 380.502871 147.052861 
L 377.693076 145.540976 
L 375.052512 143.915348 
L 372.576282 142.163406 
L 370.644992 139.872895 
L 369.267352 136.973003 
L 368.164102 133.706748 
L 364.384466 123.914735 
L 362.173087 121.674877 
L 359.86244 119.543345 
L 357.274319 117.77521 
L 354.386341 116.440843 
L 351.359215 115.347939 
L 342.859554 111.406086 
L 340.135817 109.954036 
L 337.499464 108.351853 
L 335.207971 106.091926 
L 333.050309 103.498637 
L 331.086316 100.402281 
L 329.562102 96.204074 
L 323.751615 84.886379 
L 321.155803 82.297758 
L 316.021004 76.471193 
L 313.248157 73.868453 
L 310.608572 70.636609 
L 307.767338 67.814351 
L 301.521337 63.586041 
L 298.226911 61.917599 
L 291.434349 59.131892 
L 284.473458 56.767152 
L 281.008308 55.249376 
L 273.888483 52.973388 
L 270.295468 51.770199 
L 266.647314 50.912475 
L 262.986745 49.890707 
L 259.308148 48.556274 
L 255.581474 47.565725 
L 248.021522 45.159329 
L 244.192839 44.432283 
L 240.340148 43.820867 
L 236.473573 43.417301 
L 232.619556 43.426536 
L 228.778119 43.664544 
L 224.959942 44.139207 
L 221.172627 44.832012 
L 217.450592 45.9015 
L 210.156632 48.564878 
L 203.191442 52.272934 
L 199.727975 53.97746 
L 196.244571 55.497532 
L 192.617383 56.444408 
L 188.939793 57.23712 
L 185.133934 57.670887 
L 173.799835 59.661195 
L 166.321249 61.488864 
L 162.669355 62.675946 
L 159.225229 64.341699 
L 156.030762 66.515019 
L 150.029822 71.473004 
L 147.230295 74.227854 
L 144.616095 77.230248 
L 142.128723 80.356085 
L 139.884536 83.778999 
L 137.590283 87.014998 
L 135.41134 90.330545 
L 133.501308 93.937013 
L 131.372716 97.132282 
L 129.398373 100.454884 
L 127.65391 103.98864 
L 125.818926 107.315732 
L 124.334812 110.983277 
L 122.707421 114.38728 
L 120.618013 117.199842 
L 116.269069 122.547501 
L 111.644828 127.549183 
L 109.223672 129.941629 
L 106.667743 132.219257 
L 103.946499 134.370541 
L 89.269801 144.815739 
L 85.828259 146.686769 
L 79.718725 151.151689 
L 76.662505 153.465075 
L 73.713723 155.898637 
L 70.417886 158.183185 
L 67.320207 160.645897 
L 61.711145 166.050614 
L 59.148874 168.943981 
L 56.887746 172.017619 
L 54.991222 175.282256 
L 53.608574 178.780368 
L 52.750566 182.486905 
L 52.320885 186.335692 
L 50.828966 193.709564 
L 50.300973 197.438874 
L 50.021672 201.220483 
L 50.229164 205.111228 
L 51.072776 209.126461 
L 51.162372 212.886998 
L 51.547754 216.680119 
L 53.660059 224.398311 
L 55.616592 228.320792 
L 58.595416 232.313024 
L 61.167405 236.122361 
L 66.075429 240.110315 
L 72.35548 244.054444 
L 78.775624 247.777548 
L 89.324346 251.55421 
L 101.928475 255.061575 
L 117.767882 258.235897 
L 163.226866 261.370745 
L 165.53699 262.917188 
L 123.525703 265.156616 
L 100.043032 268.217443 
L 89.386761 271.430084 
L 81.562891 274.822899 
L 73.775529 278.494279 
L 65.176363 285.834451 
L 61.041738 289.729675 
L 56.215606 297.407961 
L 54.162636 301.338373 
L 52.941425 305.190665 
L 51.15975 309.243834 
L 49.918309 313.257556 
L 49.259468 317.193788 
L 48.735886 321.151337 
L 48.795548 324.988756 
L 49.127357 328.776832 
L 49.624946 332.539389 
L 50.484286 336.198304 
L 52.718108 343.360584 
L 54.099998 346.84541 
L 55.622845 350.270902 
L 57.331932 353.609629 
L 59.239334 356.846273 
L 61.426519 359.928785 
L 64.021804 362.772589 
L 66.455243 365.667936 
L 69.042236 368.445422 
L 74.461881 373.744402 
L 77.373617 376.205617 
L 83.28681 380.927148 
L 86.508442 383.024881 
L 92.459469 387.425233 
L 95.513691 389.493565 
L 103.851553 396.150827 
L 106.50017 398.432452 
L 108.991248 400.847725 
L 113.6579 405.990819 
L 116.080422 408.482744 
L 120.453788 414.039603 
L 122.450239 417.097044 
L 124.351117 420.331236 
L 132.974222 432.650118 
L 135.044291 436.048002 
L 137.304286 439.259773 
L 139.73149 442.300302 
L 142.029557 445.64333 
L 144.506697 448.793611 
L 147.103005 451.836158 
L 149.635382 455.103205 
L 152.530249 457.789202 
L 158.635287 462.757811 
L 161.939616 464.797451 
L 165.319299 466.705958 
L 168.771052 468.476734 
L 172.350824 469.947983 
L 176.013529 471.200622 
L 183.540999 473.06604 
L 187.362294 473.757021 
L 194.905868 475.332951 
L 198.691572 476.013699 
L 206.170907 477.691046 
L 209.907812 478.549566 
L 221.19577 480.837696 
L 228.76028 482.339557 
L 232.580273 482.856845 
L 236.425649 483.102422 
L 240.292284 482.926825 
L 247.996626 482.101383 
L 247.996626 482.101383 
" clip-path="url(#pb577013dac)" style="fill: none; stroke: #ff0000; stroke-width: 1.5; stroke-linecap: square"/>
   </g>
   <g id="line2d_16">
    <path d="M 251.8225 46.066984 
L 244.229033 45.468747 
L 236.600251 45.228889 
L 228.950562 45.305233 
L 221.288949 45.659681 
L 213.626588 46.297405 
L 205.975299 47.223063 
L 198.358103 48.483202 
L 190.806921 50.130578 
L 187.068032 51.114867 
L 183.361151 52.214821 
L 179.691465 53.433452 
L 176.064416 54.773562 
L 172.487256 56.241812 
L 168.966123 57.840459 
L 165.503959 59.563448 
L 162.108702 61.416698 
L 158.783235 63.393839 
L 155.532008 65.492423 
L 152.361385 67.713759 
L 149.273812 70.051156 
L 146.271379 72.497925 
L 143.360203 75.054978 
L 140.539814 77.711696 
L 137.811448 80.461364 
L 135.178379 83.300993 
L 132.641347 86.223861 
L 130.195728 89.216155 
L 125.587696 95.397945 
L 121.321592 101.761987 
L 117.341736 108.214766 
L 109.777793 120.87248 
L 105.840897 126.787141 
L 103.744238 129.586922 
L 101.532329 132.271935 
L 99.198045 134.850064 
L 96.731156 137.326693 
L 94.138782 139.721165 
L 88.638583 144.357132 
L 77.100403 153.738704 
L 74.267732 156.231519 
L 71.508173 158.812662 
L 68.843463 161.490251 
L 66.293671 164.269759 
L 63.871182 167.151208 
L 61.599172 170.139071 
L 59.489404 173.230792 
L 57.553692 176.423142 
L 55.803871 179.712216 
L 54.251765 183.093429 
L 52.909166 186.561512 
L 51.791912 190.112008 
L 50.903442 193.735208 
L 50.259356 197.425352 
L 49.879392 201.176983 
L 49.770664 204.979756 
L 49.956049 208.827235 
L 50.455421 212.710736 
L 51.293206 216.621352 
L 52.499269 220.549727 
L 54.111519 224.486066 
L 56.176821 228.419576 
L 58.759654 232.339037 
L 61.943074 236.231374 
L 65.84089 240.081517 
L 70.627752 243.872852 
L 76.55675 247.583421 
L 84.059827 251.186079 
L 93.922754 254.642012 
L 107.796834 257.8877 
L 130.526129 260.799951 
L 196.277915 262.917188 
L 146.277086 264.75949 
L 115.537516 267.676364 
L 99.035578 270.924411 
L 87.835788 274.384255 
L 79.521061 277.99161 
L 73.038738 281.708118 
L 67.851845 285.505944 
L 63.641746 289.364268 
L 60.211866 293.265331 
L 57.426562 297.194436 
L 55.184973 301.139651 
L 53.425527 305.087766 
L 52.088444 309.029428 
L 51.134348 312.954364 
L 50.530474 316.853223 
L 50.250196 320.717116 
L 50.268571 324.538408 
L 50.571488 328.307605 
L 51.139281 332.017961 
L 51.960505 335.661004 
L 53.015383 339.23209 
L 54.296395 342.722914 
L 55.795814 346.125579 
L 57.493728 349.437931 
L 59.382323 352.653516 
L 61.453648 355.76628 
L 63.68793 358.776539 
L 66.077302 361.679661 
L 68.602345 364.477778 
L 71.251613 367.169838 
L 74.003293 369.761747 
L 79.729551 374.675655 
L 88.492372 381.583471 
L 94.114644 386.132069 
L 96.782167 388.466374 
L 99.322075 390.880238 
L 101.730482 393.390188 
L 104.007646 396.01028 
L 106.160933 398.748797 
L 108.20745 401.604629 
L 112.076304 407.62861 
L 123.714338 426.888158 
L 128.080417 433.233553 
L 130.399032 436.327871 
L 132.810189 439.360195 
L 135.318994 442.316854 
L 137.922755 445.194883 
L 140.625457 447.980145 
L 143.421466 450.673287 
L 146.313809 453.259905 
L 149.29641 455.740718 
L 152.367345 458.108919 
L 155.524335 460.357685 
L 158.761042 462.488127 
L 162.074885 464.493632 
L 165.462923 466.3676 
L 168.916946 468.115635 
L 172.43237 469.735548 
L 176.004549 471.225294 
L 179.627355 472.587112 
L 183.294891 473.823481 
L 187.000224 474.941298 
L 190.739376 475.939357 
L 194.504936 476.829248 
L 202.097807 478.298497 
L 209.741653 479.404378 
L 217.410204 480.187877 
L 225.084199 480.683175 
L 232.751516 480.899528 
L 240.403358 480.807406 
L 248.026716 480.377528 
L 255.604003 479.559353 
L 263.11156 478.325283 
L 266.831074 477.549795 
L 274.183969 475.672354 
L 281.402947 473.393008 
L 288.465992 470.732759 
L 295.354241 467.717929 
L 298.725298 466.075526 
L 302.041443 464.334368 
L 305.297125 462.487204 
L 308.483803 460.518635 
L 311.591496 458.412765 
L 314.607291 456.148906 
L 317.51562 453.70386 
L 320.297851 451.051669 
L 322.92943 448.157074 
L 325.38759 444.997175 
L 327.63766 441.526511 
L 329.645107 437.709624 
L 331.368916 433.505026 
L 332.760977 428.865658 
L 333.773443 423.754968 
L 334.357459 418.142869 
L 334.501793 412.07458 
L 334.047307 399.762246 
L 334.475191 395.189143 
L 336.580402 393.432911 
L 340.631609 394.582107 
L 351.790584 400.511451 
L 357.605529 403.296008 
L 363.207619 405.483638 
L 368.520769 407.027548 
L 373.532707 407.965764 
L 378.244703 408.349296 
L 382.669762 408.237795 
L 386.812514 407.676255 
L 390.683209 406.711661 
L 394.287716 405.382404 
L 397.624629 403.716667 
L 400.696263 401.744217 
L 403.501323 399.489413 
L 406.036209 396.97312 
L 408.29825 394.215932 
L 410.282956 391.235934 
L 411.985878 388.050532 
L 413.40412 384.677672 
L 414.535924 381.13541 
L 415.382829 377.443363 
L 415.95634 373.62686 
L 416.278066 369.715881 
L 416.372743 365.739591 
L 416.150868 357.792215 
L 416.024917 353.936074 
L 416.066102 350.24706 
L 416.418902 346.783243 
L 417.204609 343.579432 
L 418.484056 340.632748 
L 420.234746 337.89915 
L 422.367634 335.309302 
L 431.950493 324.94023 
L 434.029303 322.119767 
L 435.825693 319.172609 
L 437.292643 316.099895 
L 438.395449 312.909259 
L 439.095153 309.609504 
L 439.365606 306.214925 
L 439.163866 302.737824 
L 438.451432 299.194177 
L 437.181517 295.600983 
L 435.281734 291.974276 
L 432.662566 288.332601 
L 429.19566 284.695873 
L 424.6963 281.086956 
L 418.871006 277.532038 
L 411.21258 274.062828 
L 400.807578 270.725165 
L 385.439791 267.583206 
L 357.980451 264.770181 
L 262.3825 262.917188 
L 363.362029 260.970258 
L 388.107484 258.158011 
L 402.599252 255.015313 
L 412.552718 251.677836 
L 419.93467 248.209278 
L 425.579748 244.654565 
L 429.947053 241.046242 
L 433.312568 237.410422 
L 435.852246 233.769739 
L 437.690032 230.143727 
L 438.911054 226.550856 
L 439.579056 223.0083 
L 439.745083 219.531841 
L 439.443321 216.138063 
L 438.716688 212.839041 
L 437.587092 209.650048 
L 436.0977 206.578605 
L 434.279009 203.633474 
L 432.186332 200.81294 
L 429.870168 198.113136 
L 422.548897 190.448132 
L 420.406643 187.858691 
L 418.64666 185.125804 
L 417.354065 182.182049 
L 416.559265 178.979613 
L 416.197468 175.517467 
L 416.143563 171.832535 
L 416.454385 160.043768 
L 416.344126 156.075594 
L 416.010757 152.17081 
L 415.425844 148.360893 
L 414.563538 144.678902 
L 413.418449 141.145906 
L 411.987602 137.782496 
L 410.271733 134.607528 
L 408.274115 131.638695 
L 405.999122 128.893495 
L 403.450917 126.390347 
L 400.632896 124.149248 
L 397.547509 122.192183 
L 394.196745 120.542942 
L 390.579857 119.229738 
L 386.693139 118.286134 
L 382.535071 117.74617 
L 378.098289 117.65351 
L 373.372378 118.059684 
L 368.35003 119.017672 
L 363.032503 120.574875 
L 357.436985 122.762033 
L 351.654262 125.510555 
L 345.907792 128.549466 
L 340.705019 131.143434 
L 336.866398 131.961068 
L 334.938969 129.903032 
L 334.543137 125.246929 
L 334.887905 113.063231 
L 334.675887 107.092629 
L 334.035678 101.564741 
L 332.977743 96.524281 
L 331.546453 91.948619 
L 329.791055 87.796947 
L 327.755637 84.029927 
L 325.484306 80.59782 
L 323.00784 77.473037 
L 320.359214 74.614113 
L 317.563061 71.992736 
L 314.642585 69.576847 
L 311.616176 67.340887 
L 308.499363 65.261477 
L 305.304826 63.318428 
L 302.042396 61.496185 
L 298.720672 59.778888 
L 291.921135 56.627595 
L 284.938265 53.832475 
L 277.793927 51.396886 
L 270.507138 49.350798 
L 263.100567 47.718849 
L 255.599803 46.515661 
L 255.599803 46.515661 
" clip-path="url(#pb577013dac)" style="fill: none; stroke-dasharray: 5.55,2.4; stroke-dashoffset: 0; stroke: #0000ff; stroke-width: 1.5"/>
   </g>
   <g id="patch_3">
    <path d="M 251.8225 41.157188 
C 222.701244 41.157188 193.863155 46.89344 166.958622 58.037662 
C 140.054089 69.181885 115.606338 85.51735 95.0145 106.109188 
C 74.422662 126.701026 58.087197 151.148777 46.942975 178.05331 
C 35.798753 204.957842 30.0625 233.795931 30.0625 262.917188 
C 30.0625 292.038444 35.798753 320.876533 46.942975 347.781065 
C 58.087197 374.685598 74.422662 399.133349 95.0145 419.725187 
C 115.606338 440.317025 140.054089 456.65249 166.958622 467.796713 
C 193.863155 478.940935 222.701244 484.677188 251.8225 484.677188 
C 280.943756 484.677188 309.781845 478.940935 336.686378 467.796713 
C 363.590911 456.65249 388.038662 440.317025 408.6305 419.725187 
C 429.222338 399.133349 445.557803 374.685598 456.702025 347.781065 
C 467.846247 320.876533 473.5825 292.038444 473.5825 262.917188 
C 473.5825 233.795931 467.846247 204.957842 456.702025 178.05331 
C 445.557803 151.148777 429.222338 126.701026 408.6305 106.109188 
C 388.038662 85.51735 363.590911 69.181885 336.686378 58.037662 
C 309.781845 46.89344 280.943756 41.157188 251.8225 41.157188 
" style="fill: none; stroke: #000000; stroke-width: 0.8; stroke-linejoin: miter; stroke-linecap: square"/>
   </g>
   <g id="text_15">
    <g id="patch_4">
     <path d="M 384.8785 509.853188 
L 485.369125 509.853188 
Q 488.369125 509.853188 488.369125 506.853188 
L 488.369125 473.945063 
Q 488.369125 470.945063 485.369125 470.945063 
L 384.8785 470.945063 
Q 381.8785 470.945063 381.8785 473.945063 
L 381.8785 506.853188 
Q 381.8785 509.853188 384.8785 509.853188 
z
" style="fill: #ffffff; stroke: #808080; stroke-linejoin: miter"/>
    </g>
    <!-- G_cst: 3.9 dBi -->
    <g transform="translate(384.8785 481.821625)scale(0.1 -0.1)">
     <defs>
      <path id="DejaVuSans-47" d="M 3809 666 
L 3809 1919 
L 2778 1919 
L 2778 2438 
L 4434 2438 
L 4434 434 
Q 4069 175 3628 42 
Q 3188 -91 2688 -91 
Q 1594 -91 976 548 
Q 359 1188 359 2328 
Q 359 3472 976 4111 
Q 1594 4750 2688 4750 
Q 3144 4750 3555 4637 
Q 3966 4525 4313 4306 
L 4313 3634 
Q 3963 3931 3569 4081 
Q 3175 4231 2741 4231 
Q 1884 4231 1454 3753 
Q 1025 3275 1025 2328 
Q 1025 1384 1454 906 
Q 1884 428 2741 428 
Q 3075 428 3337 486 
Q 3600 544 3809 666 
z
" transform="scale(0.015625)"/>
      <path id="DejaVuSans-5f" d="M 3263 -1063 
L 3263 -1509 
L -63 -1509 
L -63 -1063 
L 3263 -1063 
z
" transform="scale(0.015625)"/>
      <path id="DejaVuSans-63" d="M 3122 3366 
L 3122 2828 
Q 2878 2963 2633 3030 
Q 2388 3097 2138 3097 
Q 1578 3097 1268 2742 
Q 959 2388 959 1747 
Q 959 1106 1268 751 
Q 1578 397 2138 397 
Q 2388 397 2633 464 
Q 2878 531 3122 666 
L 3122 134 
Q 2881 22 2623 -34 
Q 2366 -91 2075 -91 
Q 1284 -91 818 406 
Q 353 903 353 1747 
Q 353 2603 823 3093 
Q 1294 3584 2113 3584 
Q 2378 3584 2631 3529 
Q 2884 3475 3122 3366 
z
" transform="scale(0.015625)"/>
      <path id="DejaVuSans-73" d="M 2834 3397 
L 2834 2853 
Q 2591 2978 2328 3040 
Q 2066 3103 1784 3103 
Q 1356 3103 1142 2972 
Q 928 2841 928 2578 
Q 928 2378 1081 2264 
Q 1234 2150 1697 2047 
L 1894 2003 
Q 2506 1872 2764 1633 
Q 3022 1394 3022 966 
Q 3022 478 2636 193 
Q 2250 -91 1575 -91 
Q 1294 -91 989 -36 
Q 684 19 347 128 
L 347 722 
Q 666 556 975 473 
Q 1284 391 1588 391 
Q 1994 391 2212 530 
Q 2431 669 2431 922 
Q 2431 1156 2273 1281 
Q 2116 1406 1581 1522 
L 1381 1569 
Q 847 1681 609 1914 
Q 372 2147 372 2553 
Q 372 3047 722 3315 
Q 1072 3584 1716 3584 
Q 2034 3584 2315 3537 
Q 2597 3491 2834 3397 
z
" transform="scale(0.015625)"/>
      <path id="DejaVuSans-74" d="M 1172 4494 
L 1172 3500 
L 2356 3500 
L 2356 3053 
L 1172 3053 
L 1172 1153 
Q 1172 725 1289 603 
Q 1406 481 1766 481 
L 2356 481 
L 2356 0 
L 1766 0 
Q 1100 0 847 248 
Q 594 497 594 1153 
L 594 3053 
L 172 3053 
L 172 3500 
L 594 3500 
L 594 4494 
L 1172 4494 
z
" transform="scale(0.015625)"/>
      <path id="DejaVuSans-3a" d="M 750 794 
L 1409 794 
L 1409 0 
L 750 0 
L 750 794 
z
M 750 3309 
L 1409 3309 
L 1409 2516 
L 750 2516 
L 750 3309 
z
" transform="scale(0.015625)"/>
      <path id="DejaVuSans-20" transform="scale(0.015625)"/>
      <path id="DejaVuSans-2e" d="M 684 794 
L 1344 794 
L 1344 0 
L 684 0 
L 684 794 
z
" transform="scale(0.015625)"/>
      <path id="DejaVuSans-64" d="M 2906 2969 
L 2906 4863 
L 3481 4863 
L 3481 0 
L 2906 0 
L 2906 525 
Q 2725 213 2448 61 
Q 2172 -91 1784 -91 
Q 1150 -91 751 415 
Q 353 922 353 1747 
Q 353 2572 751 3078 
Q 1150 3584 1784 3584 
Q 2172 3584 2448 3432 
Q 2725 3281 2906 2969 
z
M 947 1747 
Q 947 1113 1208 752 
Q 1469 391 1925 391 
Q 2381 391 2643 752 
Q 2906 1113 2906 1747 
Q 2906 2381 2643 2742 
Q 2381 3103 1925 3103 
Q 1469 3103 1208 2742 
Q 947 2381 947 1747 
z
" transform="scale(0.015625)"/>
      <path id="DejaVuSans-42" d="M 1259 2228 
L 1259 519 
L 2272 519 
Q 2781 519 3026 730 
Q 3272 941 3272 1375 
Q 3272 1813 3026 2020 
Q 2781 2228 2272 2228 
L 1259 2228 
z
M 1259 4147 
L 1259 2741 
L 2194 2741 
Q 2656 2741 2882 2914 
Q 3109 3088 3109 3444 
Q 3109 3797 2882 3972 
Q 2656 4147 2194 4147 
L 1259 4147 
z
M 628 4666 
L 2241 4666 
Q 2963 4666 3353 4366 
Q 3744 4066 3744 3513 
Q 3744 3084 3544 2831 
Q 3344 2578 2956 2516 
Q 3422 2416 3680 2098 
Q 3938 1781 3938 1306 
Q 3938 681 3513 340 
Q 3088 0 2303 0 
L 628 0 
L 628 4666 
z
" transform="scale(0.015625)"/>
      <path id="DejaVuSans-69" d="M 603 3500 
L 1178 3500 
L 1178 0 
L 603 0 
L 603 3500 
z
M 603 4863 
L 1178 4863 
L 1178 4134 
L 603 4134 
L 603 4863 
z
" transform="scale(0.015625)"/>
     </defs>
     <use xlink:href="#DejaVuSans-47"/>
     <use xlink:href="#DejaVuSans-5f" x="77.490234"/>
     <use xlink:href="#DejaVuSans-63" x="127.490234"/>
     <use xlink:href="#DejaVuSans-73" x="182.470703"/>
     <use xlink:href="#DejaVuSans-74" x="234.570312"/>
     <use xlink:href="#DejaVuSans-3a" x="273.779297"/>
     <use xlink:href="#DejaVuSans-20" x="307.470703"/>
     <use xlink:href="#DejaVuSans-33" x="339.257812"/>
     <use xlink:href="#DejaVuSans-2e" x="402.880859"/>
     <use xlink:href="#DejaVuSans-39" x="434.667969"/>
     <use xlink:href="#DejaVuSans-20" x="498.291016"/>
     <use xlink:href="#DejaVuSans-64" x="530.078125"/>
     <use xlink:href="#DejaVuSans-42" x="593.554688"/>
     <use xlink:href="#DejaVuSans-69" x="662.158203"/>
    </g>
    <!-- G_inpe: 1.7 dBi -->
    <g transform="translate(384.8785 493.297563)scale(0.1 -0.1)">
     <defs>
      <path id="DejaVuSans-6e" d="M 3513 2113 
L 3513 0 
L 2938 0 
L 2938 2094 
Q 2938 2591 2744 2837 
Q 2550 3084 2163 3084 
Q 1697 3084 1428 2787 
Q 1159 2491 1159 1978 
L 1159 0 
L 581 0 
L 581 3500 
L 1159 3500 
L 1159 2956 
Q 1366 3272 1645 3428 
Q 1925 3584 2291 3584 
Q 2894 3584 3203 3211 
Q 3513 2838 3513 2113 
z
" transform="scale(0.015625)"/>
      <path id="DejaVuSans-70" d="M 1159 525 
L 1159 -1331 
L 581 -1331 
L 581 3500 
L 1159 3500 
L 1159 2969 
Q 1341 3281 1617 3432 
Q 1894 3584 2278 3584 
Q 2916 3584 3314 3078 
Q 3713 2572 3713 1747 
Q 3713 922 3314 415 
Q 2916 -91 2278 -91 
Q 1894 -91 1617 61 
Q 1341 213 1159 525 
z
M 3116 1747 
Q 3116 2381 2855 2742 
Q 2594 3103 2138 3103 
Q 1681 3103 1420 2742 
Q 1159 2381 1159 1747 
Q 1159 1113 1420 752 
Q 1681 391 2138 391 
Q 2594 391 2855 752 
Q 3116 1113 3116 1747 
z
" transform="scale(0.015625)"/>
      <path id="DejaVuSans-65" d="M 3597 1894 
L 3597 1613 
L 953 1613 
Q 991 1019 1311 708 
Q 1631 397 2203 397 
Q 2534 397 2845 478 
Q 3156 559 3463 722 
L 3463 178 
Q 3153 47 2828 -22 
Q 2503 -91 2169 -91 
Q 1331 -91 842 396 
Q 353 884 353 1716 
Q 353 2575 817 3079 
Q 1281 3584 2069 3584 
Q 2775 3584 3186 3129 
Q 3597 2675 3597 1894 
z
M 3022 2063 
Q 3016 2534 2758 2815 
Q 2500 3097 2075 3097 
Q 1594 3097 1305 2825 
Q 1016 2553 972 2059 
L 3022 2063 
z
" transform="scale(0.015625)"/>
     </defs>
     <use xlink:href="#DejaVuSans-47"/>
     <use xlink:href="#DejaVuSans-5f" x="77.490234"/>
     <use xlink:href="#DejaVuSans-69" x="127.490234"/>
     <use xlink:href="#DejaVuSans-6e" x="155.273438"/>
     <use xlink:href="#DejaVuSans-70" x="218.652344"/>
     <use xlink:href="#DejaVuSans-65" x="282.128906"/>
     <use xlink:href="#DejaVuSans-3a" x="343.652344"/>
     <use xlink:href="#DejaVuSans-20" x="377.34375"/>
     <use xlink:href="#DejaVuSans-31" x="409.130859"/>
     <use xlink:href="#DejaVuSans-2e" x="472.753906"/>
     <use xlink:href="#DejaVuSans-37" x="504.541016"/>
     <use xlink:href="#DejaVuSans-20" x="568.164062"/>
     <use xlink:href="#DejaVuSans-64" x="599.951172"/>
     <use xlink:href="#DejaVuSans-42" x="663.427734"/>
     <use xlink:href="#DejaVuSans-69" x="732.03125"/>
    </g>
    <!-- Pearson Coef: 0.487 -->
    <g transform="translate(384.8785 504.7735)scale(0.1 -0.1)">
     <defs>
      <path id="DejaVuSans-50" d="M 1259 4147 
L 1259 2394 
L 2053 2394 
Q 2494 2394 2734 2622 
Q 2975 2850 2975 3272 
Q 2975 3691 2734 3919 
Q 2494 4147 2053 4147 
L 1259 4147 
z
M 628 4666 
L 2053 4666 
Q 2838 4666 3239 4311 
Q 3641 3956 3641 3272 
Q 3641 2581 3239 2228 
Q 2838 1875 2053 1875 
L 1259 1875 
L 1259 0 
L 628 0 
L 628 4666 
z
" transform="scale(0.015625)"/>
      <path id="DejaVuSans-61" d="M 2194 1759 
Q 1497 1759 1228 1600 
Q 959 1441 959 1056 
Q 959 750 1161 570 
Q 1363 391 1709 391 
Q 2188 391 2477 730 
Q 2766 1069 2766 1631 
L 2766 1759 
L 2194 1759 
z
M 3341 1997 
L 3341 0 
L 2766 0 
L 2766 531 
Q 2569 213 2275 61 
Q 1981 -91 1556 -91 
Q 1019 -91 701 211 
Q 384 513 384 1019 
Q 384 1609 779 1909 
Q 1175 2209 1959 2209 
L 2766 2209 
L 2766 2266 
Q 2766 2663 2505 2880 
Q 2244 3097 1772 3097 
Q 1472 3097 1187 3025 
Q 903 2953 641 2809 
L 641 3341 
Q 956 3463 1253 3523 
Q 1550 3584 1831 3584 
Q 2591 3584 2966 3190 
Q 3341 2797 3341 1997 
z
" transform="scale(0.015625)"/>
      <path id="DejaVuSans-72" d="M 2631 2963 
Q 2534 3019 2420 3045 
Q 2306 3072 2169 3072 
Q 1681 3072 1420 2755 
Q 1159 2438 1159 1844 
L 1159 0 
L 581 0 
L 581 3500 
L 1159 3500 
L 1159 2956 
Q 1341 3275 1631 3429 
Q 1922 3584 2338 3584 
Q 2397 3584 2469 3576 
Q 2541 3569 2628 3553 
L 2631 2963 
z
" transform="scale(0.015625)"/>
      <path id="DejaVuSans-6f" d="M 1959 3097 
Q 1497 3097 1228 2736 
Q 959 2375 959 1747 
Q 959 1119 1226 758 
Q 1494 397 1959 397 
Q 2419 397 2687 759 
Q 2956 1122 2956 1747 
Q 2956 2369 2687 2733 
Q 2419 3097 1959 3097 
z
M 1959 3584 
Q 2709 3584 3137 3096 
Q 3566 2609 3566 1747 
Q 3566 888 3137 398 
Q 2709 -91 1959 -91 
Q 1206 -91 779 398 
Q 353 888 353 1747 
Q 353 2609 779 3096 
Q 1206 3584 1959 3584 
z
" transform="scale(0.015625)"/>
      <path id="DejaVuSans-43" d="M 4122 4306 
L 4122 3641 
Q 3803 3938 3442 4084 
Q 3081 4231 2675 4231 
Q 1875 4231 1450 3742 
Q 1025 3253 1025 2328 
Q 1025 1406 1450 917 
Q 1875 428 2675 428 
Q 3081 428 3442 575 
Q 3803 722 4122 1019 
L 4122 359 
Q 3791 134 3420 21 
Q 3050 -91 2638 -91 
Q 1578 -91 968 557 
Q 359 1206 359 2328 
Q 359 3453 968 4101 
Q 1578 4750 2638 4750 
Q 3056 4750 3426 4639 
Q 3797 4528 4122 4306 
z
" transform="scale(0.015625)"/>
      <path id="DejaVuSans-66" d="M 2375 4863 
L 2375 4384 
L 1825 4384 
Q 1516 4384 1395 4259 
Q 1275 4134 1275 3809 
L 1275 3500 
L 2222 3500 
L 2222 3053 
L 1275 3053 
L 1275 0 
L 697 0 
L 697 3053 
L 147 3053 
L 147 3500 
L 697 3500 
L 697 3744 
Q 697 4328 969 4595 
Q 1241 4863 1831 4863 
L 2375 4863 
z
" transform="scale(0.015625)"/>
     </defs>
     <use xlink:href="#DejaVuSans-50"/>
     <use xlink:href="#DejaVuSans-65" x="56.677734"/>
     <use xlink:href="#DejaVuSans-61" x="118.201172"/>
     <use xlink:href="#DejaVuSans-72" x="179.480469"/>
     <use xlink:href="#DejaVuSans-73" x="220.59375"/>
     <use xlink:href="#DejaVuSans-6f" x="272.693359"/>
     <use xlink:href="#DejaVuSans-6e" x="333.875"/>
     <use xlink:href="#DejaVuSans-20" x="397.253906"/>
     <use xlink:href="#DejaVuSans-43" x="429.041016"/>
     <use xlink:href="#DejaVuSans-6f" x="498.865234"/>
     <use xlink:href="#DejaVuSans-65" x="560.046875"/>
     <use xlink:href="#DejaVuSans-66" x="621.570312"/>
     <use xlink:href="#DejaVuSans-3a" x="653.150391"/>
     <use xlink:href="#DejaVuSans-20" x="686.841797"/>
     <use xlink:href="#DejaVuSans-30" x="718.628906"/>
     <use xlink:href="#DejaVuSans-2e" x="782.251953"/>
     <use xlink:href="#DejaVuSans-34" x="814.039062"/>
     <use xlink:href="#DejaVuSans-38" x="877.662109"/>
     <use xlink:href="#DejaVuSans-37" x="941.285156"/>
    </g>
   </g>
   <g id="text_16">
    <g id="patch_5">
     <path d="M 52.2385 56.370938 
L 129.496 56.370938 
Q 133.096 56.370938 133.096 52.770938 
L 133.096 41.157188 
Q 133.096 37.557188 129.496 37.557188 
L 52.2385 37.557188 
Q 48.6385 37.557188 48.6385 41.157188 
L 48.6385 52.770938 
Q 48.6385 56.370938 52.2385 56.370938 
z
" style="fill: #ffffff; stroke: #808080; stroke-linejoin: miter"/>
    </g>
    <!-- Freq: 13 GHz -->
    <g transform="translate(52.2385 50.275313)scale(0.12 -0.12)">
     <defs>
      <path id="DejaVuSans-46" d="M 628 4666 
L 3309 4666 
L 3309 4134 
L 1259 4134 
L 1259 2759 
L 3109 2759 
L 3109 2228 
L 1259 2228 
L 1259 0 
L 628 0 
L 628 4666 
z
" transform="scale(0.015625)"/>
      <path id="DejaVuSans-71" d="M 947 1747 
Q 947 1113 1208 752 
Q 1469 391 1925 391 
Q 2381 391 2643 752 
Q 2906 1113 2906 1747 
Q 2906 2381 2643 2742 
Q 2381 3103 1925 3103 
Q 1469 3103 1208 2742 
Q 947 2381 947 1747 
z
M 2906 525 
Q 2725 213 2448 61 
Q 2172 -91 1784 -91 
Q 1150 -91 751 415 
Q 353 922 353 1747 
Q 353 2572 751 3078 
Q 1150 3584 1784 3584 
Q 2172 3584 2448 3432 
Q 2725 3281 2906 2969 
L 2906 3500 
L 3481 3500 
L 3481 -1331 
L 2906 -1331 
L 2906 525 
z
" transform="scale(0.015625)"/>
      <path id="DejaVuSans-48" d="M 628 4666 
L 1259 4666 
L 1259 2753 
L 3553 2753 
L 3553 4666 
L 4184 4666 
L 4184 0 
L 3553 0 
L 3553 2222 
L 1259 2222 
L 1259 0 
L 628 0 
L 628 4666 
z
" transform="scale(0.015625)"/>
      <path id="DejaVuSans-7a" d="M 353 3500 
L 3084 3500 
L 3084 2975 
L 922 459 
L 3084 459 
L 3084 0 
L 275 0 
L 275 525 
L 2438 3041 
L 353 3041 
L 353 3500 
z
" transform="scale(0.015625)"/>
     </defs>
     <use xlink:href="#DejaVuSans-46"/>
     <use xlink:href="#DejaVuSans-72" x="50.269531"/>
     <use xlink:href="#DejaVuSans-65" x="89.132812"/>
     <use xlink:href="#DejaVuSans-71" x="150.65625"/>
     <use xlink:href="#DejaVuSans-3a" x="214.132812"/>
     <use xlink:href="#DejaVuSans-20" x="247.824219"/>
     <use xlink:href="#DejaVuSans-31" x="279.611328"/>
     <use xlink:href="#DejaVuSans-33" x="343.234375"/>
     <use xlink:href="#DejaVuSans-20" x="406.857422"/>
     <use xlink:href="#DejaVuSans-47" x="438.644531"/>
     <use xlink:href="#DejaVuSans-48" x="516.134766"/>
     <use xlink:href="#DejaVuSans-7a" x="591.330078"/>
    </g>
   </g>
   <g id="text_17">
    <!-- Radiation Diagram - 4AVHF13 -->
    <g transform="translate(162.578125 16.318125)scale(0.12 -0.12)">
     <defs>
      <path id="DejaVuSans-52" d="M 2841 2188 
Q 3044 2119 3236 1894 
Q 3428 1669 3622 1275 
L 4263 0 
L 3584 0 
L 2988 1197 
Q 2756 1666 2539 1819 
Q 2322 1972 1947 1972 
L 1259 1972 
L 1259 0 
L 628 0 
L 628 4666 
L 2053 4666 
Q 2853 4666 3247 4331 
Q 3641 3997 3641 3322 
Q 3641 2881 3436 2590 
Q 3231 2300 2841 2188 
z
M 1259 4147 
L 1259 2491 
L 2053 2491 
Q 2509 2491 2742 2702 
Q 2975 2913 2975 3322 
Q 2975 3731 2742 3939 
Q 2509 4147 2053 4147 
L 1259 4147 
z
" transform="scale(0.015625)"/>
      <path id="DejaVuSans-44" d="M 1259 4147 
L 1259 519 
L 2022 519 
Q 2988 519 3436 956 
Q 3884 1394 3884 2338 
Q 3884 3275 3436 3711 
Q 2988 4147 2022 4147 
L 1259 4147 
z
M 628 4666 
L 1925 4666 
Q 3281 4666 3915 4102 
Q 4550 3538 4550 2338 
Q 4550 1131 3912 565 
Q 3275 0 1925 0 
L 628 0 
L 628 4666 
z
" transform="scale(0.015625)"/>
      <path id="DejaVuSans-67" d="M 2906 1791 
Q 2906 2416 2648 2759 
Q 2391 3103 1925 3103 
Q 1463 3103 1205 2759 
Q 947 2416 947 1791 
Q 947 1169 1205 825 
Q 1463 481 1925 481 
Q 2391 481 2648 825 
Q 2906 1169 2906 1791 
z
M 3481 434 
Q 3481 -459 3084 -895 
Q 2688 -1331 1869 -1331 
Q 1566 -1331 1297 -1286 
Q 1028 -1241 775 -1147 
L 775 -588 
Q 1028 -725 1275 -790 
Q 1522 -856 1778 -856 
Q 2344 -856 2625 -561 
Q 2906 -266 2906 331 
L 2906 616 
Q 2728 306 2450 153 
Q 2172 0 1784 0 
Q 1141 0 747 490 
Q 353 981 353 1791 
Q 353 2603 747 3093 
Q 1141 3584 1784 3584 
Q 2172 3584 2450 3431 
Q 2728 3278 2906 2969 
L 2906 3500 
L 3481 3500 
L 3481 434 
z
" transform="scale(0.015625)"/>
      <path id="DejaVuSans-6d" d="M 3328 2828 
Q 3544 3216 3844 3400 
Q 4144 3584 4550 3584 
Q 5097 3584 5394 3201 
Q 5691 2819 5691 2113 
L 5691 0 
L 5113 0 
L 5113 2094 
Q 5113 2597 4934 2840 
Q 4756 3084 4391 3084 
Q 3944 3084 3684 2787 
Q 3425 2491 3425 1978 
L 3425 0 
L 2847 0 
L 2847 2094 
Q 2847 2600 2669 2842 
Q 2491 3084 2119 3084 
Q 1678 3084 1418 2786 
Q 1159 2488 1159 1978 
L 1159 0 
L 581 0 
L 581 3500 
L 1159 3500 
L 1159 2956 
Q 1356 3278 1631 3431 
Q 1906 3584 2284 3584 
Q 2666 3584 2933 3390 
Q 3200 3197 3328 2828 
z
" transform="scale(0.015625)"/>
      <path id="DejaVuSans-2d" d="M 313 2009 
L 1997 2009 
L 1997 1497 
L 313 1497 
L 313 2009 
z
" transform="scale(0.015625)"/>
      <path id="DejaVuSans-41" d="M 2188 4044 
L 1331 1722 
L 3047 1722 
L 2188 4044 
z
M 1831 4666 
L 2547 4666 
L 4325 0 
L 3669 0 
L 3244 1197 
L 1141 1197 
L 716 0 
L 50 0 
L 1831 4666 
z
" transform="scale(0.015625)"/>
      <path id="DejaVuSans-56" d="M 1831 0 
L 50 4666 
L 709 4666 
L 2188 738 
L 3669 4666 
L 4325 4666 
L 2547 0 
L 1831 0 
z
" transform="scale(0.015625)"/>
     </defs>
     <use xlink:href="#DejaVuSans-52"/>
     <use xlink:href="#DejaVuSans-61" x="67.232422"/>
     <use xlink:href="#DejaVuSans-64" x="128.511719"/>
     <use xlink:href="#DejaVuSans-69" x="191.988281"/>
     <use xlink:href="#DejaVuSans-61" x="219.771484"/>
     <use xlink:href="#DejaVuSans-74" x="281.050781"/>
     <use xlink:href="#DejaVuSans-69" x="320.259766"/>
     <use xlink:href="#DejaVuSans-6f" x="348.042969"/>
     <use xlink:href="#DejaVuSans-6e" x="409.224609"/>
     <use xlink:href="#DejaVuSans-20" x="472.603516"/>
     <use xlink:href="#DejaVuSans-44" x="504.390625"/>
     <use xlink:href="#DejaVuSans-69" x="581.392578"/>
     <use xlink:href="#DejaVuSans-61" x="609.175781"/>
     <use xlink:href="#DejaVuSans-67" x="670.455078"/>
     <use xlink:href="#DejaVuSans-72" x="733.931641"/>
     <use xlink:href="#DejaVuSans-61" x="775.044922"/>
     <use xlink:href="#DejaVuSans-6d" x="836.324219"/>
     <use xlink:href="#DejaVuSans-20" x="933.736328"/>
     <use xlink:href="#DejaVuSans-2d" x="965.523438"/>
     <use xlink:href="#DejaVuSans-20" x="1001.607422"/>
     <use xlink:href="#DejaVuSans-34" x="1033.394531"/>
     <use xlink:href="#DejaVuSans-41" x="1097.017578"/>
     <use xlink:href="#DejaVuSans-56" x="1159.050781"/>
     <use xlink:href="#DejaVuSans-48" x="1227.458984"/>
     <use xlink:href="#DejaVuSans-46" x="1302.654297"/>
     <use xlink:href="#DejaVuSans-31" x="1360.173828"/>
     <use xlink:href="#DejaVuSans-33" x="1423.796875"/>
    </g>
   </g>
   <g id="legend_1">
    <g id="patch_6">
     <path d="M 411.802813 78.513438 
L 466.5825 78.513438 
Q 468.5825 78.513438 468.5825 76.513438 
L 468.5825 48.157188 
Q 468.5825 46.157188 466.5825 46.157188 
L 411.802813 46.157188 
Q 409.802813 46.157188 409.802813 48.157188 
L 409.802813 76.513438 
Q 409.802813 78.513438 411.802813 78.513438 
z
" style="fill: #ffffff; opacity: 0.8; stroke: #cccccc; stroke-linejoin: miter"/>
    </g>
    <g id="line2d_17">
     <path d="M 413.802813 54.255625 
L 423.802813 54.255625 
L 433.802813 54.255625 
" style="fill: none; stroke: #ff0000; stroke-width: 1.5; stroke-linecap: square"/>
    </g>
    <g id="text_18">
     <!-- INPE -->
     <g transform="translate(441.802813 57.755625)scale(0.1 -0.1)">
      <defs>
       <path id="DejaVuSans-49" d="M 628 4666 
L 1259 4666 
L 1259 0 
L 628 0 
L 628 4666 
z
" transform="scale(0.015625)"/>
       <path id="DejaVuSans-4e" d="M 628 4666 
L 1478 4666 
L 3547 763 
L 3547 4666 
L 4159 4666 
L 4159 0 
L 3309 0 
L 1241 3903 
L 1241 0 
L 628 0 
L 628 4666 
z
" transform="scale(0.015625)"/>
       <path id="DejaVuSans-45" d="M 628 4666 
L 3578 4666 
L 3578 4134 
L 1259 4134 
L 1259 2753 
L 3481 2753 
L 3481 2222 
L 1259 2222 
L 1259 531 
L 3634 531 
L 3634 0 
L 628 0 
L 628 4666 
z
" transform="scale(0.015625)"/>
      </defs>
      <use xlink:href="#DejaVuSans-49"/>
      <use xlink:href="#DejaVuSans-4e" x="29.492188"/>
      <use xlink:href="#DejaVuSans-50" x="104.296875"/>
      <use xlink:href="#DejaVuSans-45" x="164.599609"/>
     </g>
    </g>
    <g id="line2d_18">
     <path d="M 413.802813 68.93375 
L 423.802813 68.93375 
L 433.802813 68.93375 
" style="fill: none; stroke-dasharray: 5.55,2.4; stroke-dashoffset: 0; stroke: #0000ff; stroke-width: 1.5"/>
    </g>
    <g id="text_19">
     <!-- CST -->
     <g transform="translate(441.802813 72.43375)scale(0.1 -0.1)">
      <defs>
       <path id="DejaVuSans-53" d="M 3425 4513 
L 3425 3897 
Q 3066 4069 2747 4153 
Q 2428 4238 2131 4238 
Q 1616 4238 1336 4038 
Q 1056 3838 1056 3469 
Q 1056 3159 1242 3001 
Q 1428 2844 1947 2747 
L 2328 2669 
Q 3034 2534 3370 2195 
Q 3706 1856 3706 1288 
Q 3706 609 3251 259 
Q 2797 -91 1919 -91 
Q 1588 -91 1214 -16 
Q 841 59 441 206 
L 441 856 
Q 825 641 1194 531 
Q 1563 422 1919 422 
Q 2459 422 2753 634 
Q 3047 847 3047 1241 
Q 3047 1584 2836 1778 
Q 2625 1972 2144 2069 
L 1759 2144 
Q 1053 2284 737 2584 
Q 422 2884 422 3419 
Q 422 4038 858 4394 
Q 1294 4750 2059 4750 
Q 2388 4750 2728 4690 
Q 3069 4631 3425 4513 
z
" transform="scale(0.015625)"/>
       <path id="DejaVuSans-54" d="M -19 4666 
L 3928 4666 
L 3928 4134 
L 2272 4134 
L 2272 0 
L 1638 0 
L 1638 4134 
L -19 4134 
L -19 4666 
z
" transform="scale(0.015625)"/>
      </defs>
      <use xlink:href="#DejaVuSans-43"/>
      <use xlink:href="#DejaVuSans-53" x="69.824219"/>
      <use xlink:href="#DejaVuSans-54" x="133.300781"/>
     </g>
    </g>
   </g>
  </g>
 </g>
 <defs>
  <clipPath id="pb577013dac">
   <path d="M 473.5825 262.917188 
C 473.5825 233.795931 467.846247 204.957842 456.702025 178.05331 
C 445.557803 151.148777 429.222338 126.701026 408.6305 106.109188 
C 388.038662 85.51735 363.590911 69.181885 336.686378 58.037662 
C 309.781845 46.89344 280.943756 41.157188 251.8225 41.157188 
C 222.701244 41.157188 193.863155 46.89344 166.958622 58.037662 
C 140.054089 69.181885 115.606338 85.51735 95.0145 106.109188 
C 74.422662 126.701026 58.087197 151.148777 46.942975 178.05331 
C 35.798753 204.957842 30.0625 233.795931 30.0625 262.917188 
C 30.0625 292.038444 35.798753 320.876533 46.942975 347.781065 
C 58.087197 374.685598 74.422662 399.133349 95.0145 419.725187 
C 115.606338 440.317025 140.054089 456.65249 166.958622 467.796713 
C 193.863155 478.940935 222.701244 484.677188 251.8225 484.677188 
C 280.943756 484.677188 309.781845 478.940935 336.686378 467.796713 
C 363.590911 456.65249 388.038662 440.317025 408.6305 419.725187 
C 429.222338 399.133349 445.557803 374.685598 456.702025 347.781065 
C 467.846247 320.876533 473.5825 292.038444 473.5825 262.917188 
M 251.8225 262.917188 
C 251.8225 262.917188 251.8225 262.917188 251.8225 262.917188 
C 251.8225 262.917188 251.8225 262.917188 251.8225 262.917188 
C 251.8225 262.917188 251.8225 262.917188 251.8225 262.917188 
C 251.8225 262.917188 251.8225 262.917188 251.8225 262.917188 
C 251.8225 262.917188 251.8225 262.917188 251.8225 262.917188 
C 251.8225 262.917188 251.8225 262.917188 251.8225 262.917188 
C 251.8225 262.917188 251.8225 262.917188 251.8225 262.917188 
C 251.8225 262.917188 251.8225 262.917188 251.8225 262.917188 
C 251.8225 262.917188 251.8225 262.917188 251.8225 262.917188 
C 251.8225 262.917188 251.8225 262.917188 251.8225 262.917188 
C 251.8225 262.917188 251.8225 262.917188 251.8225 262.917188 
C 251.8225 262.917188 251.8225 262.917188 251.8225 262.917188 
C 251.8225 262.917188 251.8225 262.917188 251.8225 262.917188 
C 251.8225 262.917188 251.8225 262.917188 251.8225 262.917188 
C 251.8225 262.917188 251.8225 262.917188 251.8225 262.917188 
C 251.8225 262.917188 251.8225 262.917188 251.8225 262.917188 
M 473.5825 262.917188 
z
"/>
  </clipPath>
 </defs>
</svg>
