<?xml version="1.0" encoding="utf-8" standalone="no"?>
<!DOCTYPE svg PUBLIC "-//W3C//DTD SVG 1.1//EN"
  "http://www.w3.org/Graphics/SVG/1.1/DTD/svg11.dtd">
<svg xmlns:xlink="http://www.w3.org/1999/xlink" width="506.82625pt" height="514.053188pt" viewBox="0 0 506.82625 514.053188" xmlns="http://www.w3.org/2000/svg" version="1.1">
 <metadata>
  <rdf:RDF xmlns:dc="http://purl.org/dc/elements/1.1/" xmlns:cc="http://creativecommons.org/ns#" xmlns:rdf="http://www.w3.org/1999/02/22-rdf-syntax-ns#">
   <cc:Work>
    <dc:type rdf:resource="http://purl.org/dc/dcmitype/StillImage"/>
    <dc:date>2024-01-27T15:04:55.648164</dc:date>
    <dc:format>image/svg+xml</dc:format>
    <dc:creator>
     <cc:Agent>
      <dc:title>Matplotlib v3.5.1, https://matplotlib.org/</dc:title>
     </cc:Agent>
    </dc:creator>
   </cc:Work>
  </rdf:RDF>
 </metadata>
 <defs>
  <style type="text/css">*{stroke-linejoin: round; stroke-linecap: butt}</style>
 </defs>
 <g id="figure_1">
  <g id="patch_1">
   <path d="M 0 514.053188 
L 506.82625 514.053188 
L 506.82625 0 
L 0 0 
z
" style="fill: #ffffff"/>
  </g>
  <g id="axes_1">
   <g id="patch_2">
    <path d="M 473.5825 262.917188 
C 473.5825 233.795931 467.846247 204.957842 456.702025 178.05331 
C 445.557803 151.148777 429.222338 126.701026 408.6305 106.109188 
C 388.038662 85.51735 363.590911 69.181885 336.686378 58.037662 
C 309.781845 46.89344 280.943756 41.157188 251.8225 41.157188 
C 222.701244 41.157188 193.863155 46.89344 166.958622 58.037662 
C 140.054089 69.181885 115.606338 85.51735 95.0145 106.109188 
C 74.422662 126.701026 58.087197 151.148777 46.942975 178.05331 
C 35.798753 204.957842 30.0625 233.795931 30.0625 262.917188 
C 30.0625 292.038444 35.798753 320.876533 46.942975 347.781065 
C 58.087197 374.685598 74.422662 399.133349 95.0145 419.725187 
C 115.606338 440.317025 140.054089 456.65249 166.958622 467.796713 
C 193.863155 478.940935 222.701244 484.677188 251.8225 484.677188 
C 280.943756 484.677188 309.781845 478.940935 336.686378 467.796713 
C 363.590911 456.65249 388.038662 440.317025 408.6305 419.725187 
C 429.222338 399.133349 445.557803 374.685598 456.702025 347.781065 
C 467.846247 320.876533 473.5825 292.038444 473.5825 262.917188 
M 251.8225 262.917188 
C 251.8225 262.917188 251.8225 262.917188 251.8225 262.917188 
C 251.8225 262.917188 251.8225 262.917188 251.8225 262.917188 
C 251.8225 262.917188 251.8225 262.917188 251.8225 262.917188 
C 251.8225 262.917188 251.8225 262.917188 251.8225 262.917188 
C 251.8225 262.917188 251.8225 262.917188 251.8225 262.917188 
C 251.8225 262.917188 251.8225 262.917188 251.8225 262.917188 
C 251.8225 262.917188 251.8225 262.917188 251.8225 262.917188 
C 251.8225 262.917188 251.8225 262.917188 251.8225 262.917188 
C 251.8225 262.917188 251.8225 262.917188 251.8225 262.917188 
C 251.8225 262.917188 251.8225 262.917188 251.8225 262.917188 
C 251.8225 262.917188 251.8225 262.917188 251.8225 262.917188 
C 251.8225 262.917188 251.8225 262.917188 251.8225 262.917188 
C 251.8225 262.917188 251.8225 262.917188 251.8225 262.917188 
C 251.8225 262.917188 251.8225 262.917188 251.8225 262.917188 
C 251.8225 262.917188 251.8225 262.917188 251.8225 262.917188 
C 251.8225 262.917188 251.8225 262.917188 251.8225 262.917188 
M 473.5825 262.917188 
z
" style="fill: #ffffff"/>
   </g>
   <g id="matplotlib.axis_1">
    <g id="xtick_1">
     <g id="line2d_1">
      <path d="M 251.8225 262.917188 
L 251.8225 41.157188 
" clip-path="url(#p1f8b575f7a)" style="fill: none; stroke: #b0b0b0; stroke-width: 0.8; stroke-linecap: square"/>
     </g>
     <g id="text_1">
      <!-- 0° -->
      <g transform="translate(246.14125 29.916563)scale(0.1 -0.1)">
       <defs>
        <path id="DejaVuSans-30" d="M 2034 4250 
Q 1547 4250 1301 3770 
Q 1056 3291 1056 2328 
Q 1056 1369 1301 889 
Q 1547 409 2034 409 
Q 2525 409 2770 889 
Q 3016 1369 3016 2328 
Q 3016 3291 2770 3770 
Q 2525 4250 2034 4250 
z
M 2034 4750 
Q 2819 4750 3233 4129 
Q 3647 3509 3647 2328 
Q 3647 1150 3233 529 
Q 2819 -91 2034 -91 
Q 1250 -91 836 529 
Q 422 1150 422 2328 
Q 422 3509 836 4129 
Q 1250 4750 2034 4750 
z
" transform="scale(0.015625)"/>
        <path id="DejaVuSans-b0" d="M 1600 4347 
Q 1350 4347 1178 4173 
Q 1006 4000 1006 3750 
Q 1006 3503 1178 3333 
Q 1350 3163 1600 3163 
Q 1850 3163 2022 3333 
Q 2194 3503 2194 3750 
Q 2194 3997 2020 4172 
Q 1847 4347 1600 4347 
z
M 1600 4750 
Q 1800 4750 1984 4673 
Q 2169 4597 2303 4453 
Q 2447 4313 2519 4134 
Q 2591 3956 2591 3750 
Q 2591 3338 2302 3052 
Q 2013 2766 1594 2766 
Q 1172 2766 890 3047 
Q 609 3328 609 3750 
Q 609 4169 896 4459 
Q 1184 4750 1600 4750 
z
" transform="scale(0.015625)"/>
       </defs>
       <use xlink:href="#DejaVuSans-30"/>
       <use xlink:href="#DejaVuSans-b0" x="63.623047"/>
      </g>
     </g>
    </g>
    <g id="xtick_2">
     <g id="line2d_2">
      <path d="M 251.8225 262.917188 
L 95.0145 106.109188 
" clip-path="url(#p1f8b575f7a)" style="fill: none; stroke: #b0b0b0; stroke-width: 0.8; stroke-linecap: square"/>
     </g>
     <g id="text_2">
      <!-- 45° -->
      <g transform="translate(76.252505 98.969068)scale(0.1 -0.1)">
       <defs>
        <path id="DejaVuSans-34" d="M 2419 4116 
L 825 1625 
L 2419 1625 
L 2419 4116 
z
M 2253 4666 
L 3047 4666 
L 3047 1625 
L 3713 1625 
L 3713 1100 
L 3047 1100 
L 3047 0 
L 2419 0 
L 2419 1100 
L 313 1100 
L 313 1709 
L 2253 4666 
z
" transform="scale(0.015625)"/>
        <path id="DejaVuSans-35" d="M 691 4666 
L 3169 4666 
L 3169 4134 
L 1269 4134 
L 1269 2991 
Q 1406 3038 1543 3061 
Q 1681 3084 1819 3084 
Q 2600 3084 3056 2656 
Q 3513 2228 3513 1497 
Q 3513 744 3044 326 
Q 2575 -91 1722 -91 
Q 1428 -91 1123 -41 
Q 819 9 494 109 
L 494 744 
Q 775 591 1075 516 
Q 1375 441 1709 441 
Q 2250 441 2565 725 
Q 2881 1009 2881 1497 
Q 2881 1984 2565 2268 
Q 2250 2553 1709 2553 
Q 1456 2553 1204 2497 
Q 953 2441 691 2322 
L 691 4666 
z
" transform="scale(0.015625)"/>
       </defs>
       <use xlink:href="#DejaVuSans-34"/>
       <use xlink:href="#DejaVuSans-35" x="63.623047"/>
       <use xlink:href="#DejaVuSans-b0" x="127.246094"/>
      </g>
     </g>
    </g>
    <g id="xtick_3">
     <g id="line2d_3">
      <path d="M 251.8225 262.917188 
L 30.0625 262.917188 
" clip-path="url(#p1f8b575f7a)" style="fill: none; stroke: #b0b0b0; stroke-width: 0.8; stroke-linecap: square"/>
     </g>
     <g id="text_3">
      <!-- 90° -->
      <g transform="translate(7.2 265.676563)scale(0.1 -0.1)">
       <defs>
        <path id="DejaVuSans-39" d="M 703 97 
L 703 672 
Q 941 559 1184 500 
Q 1428 441 1663 441 
Q 2288 441 2617 861 
Q 2947 1281 2994 2138 
Q 2813 1869 2534 1725 
Q 2256 1581 1919 1581 
Q 1219 1581 811 2004 
Q 403 2428 403 3163 
Q 403 3881 828 4315 
Q 1253 4750 1959 4750 
Q 2769 4750 3195 4129 
Q 3622 3509 3622 2328 
Q 3622 1225 3098 567 
Q 2575 -91 1691 -91 
Q 1453 -91 1209 -44 
Q 966 3 703 97 
z
M 1959 2075 
Q 2384 2075 2632 2365 
Q 2881 2656 2881 3163 
Q 2881 3666 2632 3958 
Q 2384 4250 1959 4250 
Q 1534 4250 1286 3958 
Q 1038 3666 1038 3163 
Q 1038 2656 1286 2365 
Q 1534 2075 1959 2075 
z
" transform="scale(0.015625)"/>
       </defs>
       <use xlink:href="#DejaVuSans-39"/>
       <use xlink:href="#DejaVuSans-30" x="63.623047"/>
       <use xlink:href="#DejaVuSans-b0" x="127.246094"/>
      </g>
     </g>
    </g>
    <g id="xtick_4">
     <g id="line2d_4">
      <path d="M 251.8225 262.917188 
L 95.0145 419.725187 
" clip-path="url(#p1f8b575f7a)" style="fill: none; stroke: #b0b0b0; stroke-width: 0.8; stroke-linecap: square"/>
     </g>
     <g id="text_4">
      <!-- 135° -->
      <g transform="translate(73.071255 432.384057)scale(0.1 -0.1)">
       <defs>
        <path id="DejaVuSans-31" d="M 794 531 
L 1825 531 
L 1825 4091 
L 703 3866 
L 703 4441 
L 1819 4666 
L 2450 4666 
L 2450 531 
L 3481 531 
L 3481 0 
L 794 0 
L 794 531 
z
" transform="scale(0.015625)"/>
        <path id="DejaVuSans-33" d="M 2597 2516 
Q 3050 2419 3304 2112 
Q 3559 1806 3559 1356 
Q 3559 666 3084 287 
Q 2609 -91 1734 -91 
Q 1441 -91 1130 -33 
Q 819 25 488 141 
L 488 750 
Q 750 597 1062 519 
Q 1375 441 1716 441 
Q 2309 441 2620 675 
Q 2931 909 2931 1356 
Q 2931 1769 2642 2001 
Q 2353 2234 1838 2234 
L 1294 2234 
L 1294 2753 
L 1863 2753 
Q 2328 2753 2575 2939 
Q 2822 3125 2822 3475 
Q 2822 3834 2567 4026 
Q 2313 4219 1838 4219 
Q 1578 4219 1281 4162 
Q 984 4106 628 3988 
L 628 4550 
Q 988 4650 1302 4700 
Q 1616 4750 1894 4750 
Q 2613 4750 3031 4423 
Q 3450 4097 3450 3541 
Q 3450 3153 3228 2886 
Q 3006 2619 2597 2516 
z
" transform="scale(0.015625)"/>
       </defs>
       <use xlink:href="#DejaVuSans-31"/>
       <use xlink:href="#DejaVuSans-33" x="63.623047"/>
       <use xlink:href="#DejaVuSans-35" x="127.246094"/>
       <use xlink:href="#DejaVuSans-b0" x="190.869141"/>
      </g>
     </g>
    </g>
    <g id="xtick_5">
     <g id="line2d_5">
      <path d="M 251.8225 262.917188 
L 251.8225 484.677188 
" clip-path="url(#p1f8b575f7a)" style="fill: none; stroke: #b0b0b0; stroke-width: 0.8; stroke-linecap: square"/>
     </g>
     <g id="text_5">
      <!-- 180° -->
      <g transform="translate(239.77875 501.436563)scale(0.1 -0.1)">
       <defs>
        <path id="DejaVuSans-38" d="M 2034 2216 
Q 1584 2216 1326 1975 
Q 1069 1734 1069 1313 
Q 1069 891 1326 650 
Q 1584 409 2034 409 
Q 2484 409 2743 651 
Q 3003 894 3003 1313 
Q 3003 1734 2745 1975 
Q 2488 2216 2034 2216 
z
M 1403 2484 
Q 997 2584 770 2862 
Q 544 3141 544 3541 
Q 544 4100 942 4425 
Q 1341 4750 2034 4750 
Q 2731 4750 3128 4425 
Q 3525 4100 3525 3541 
Q 3525 3141 3298 2862 
Q 3072 2584 2669 2484 
Q 3125 2378 3379 2068 
Q 3634 1759 3634 1313 
Q 3634 634 3220 271 
Q 2806 -91 2034 -91 
Q 1263 -91 848 271 
Q 434 634 434 1313 
Q 434 1759 690 2068 
Q 947 2378 1403 2484 
z
M 1172 3481 
Q 1172 3119 1398 2916 
Q 1625 2713 2034 2713 
Q 2441 2713 2670 2916 
Q 2900 3119 2900 3481 
Q 2900 3844 2670 4047 
Q 2441 4250 2034 4250 
Q 1625 4250 1398 4047 
Q 1172 3844 1172 3481 
z
" transform="scale(0.015625)"/>
       </defs>
       <use xlink:href="#DejaVuSans-31"/>
       <use xlink:href="#DejaVuSans-38" x="63.623047"/>
       <use xlink:href="#DejaVuSans-30" x="127.246094"/>
       <use xlink:href="#DejaVuSans-b0" x="190.869141"/>
      </g>
     </g>
    </g>
    <g id="xtick_6">
     <g id="line2d_6">
      <path d="M 251.8225 262.917188 
L 408.6305 419.725187 
" clip-path="url(#p1f8b575f7a)" style="fill: none; stroke: #b0b0b0; stroke-width: 0.8; stroke-linecap: square"/>
     </g>
     <g id="text_6">
      <!-- 225° -->
      <g transform="translate(406.486245 432.384057)scale(0.1 -0.1)">
       <defs>
        <path id="DejaVuSans-32" d="M 1228 531 
L 3431 531 
L 3431 0 
L 469 0 
L 469 531 
Q 828 903 1448 1529 
Q 2069 2156 2228 2338 
Q 2531 2678 2651 2914 
Q 2772 3150 2772 3378 
Q 2772 3750 2511 3984 
Q 2250 4219 1831 4219 
Q 1534 4219 1204 4116 
Q 875 4013 500 3803 
L 500 4441 
Q 881 4594 1212 4672 
Q 1544 4750 1819 4750 
Q 2544 4750 2975 4387 
Q 3406 4025 3406 3419 
Q 3406 3131 3298 2873 
Q 3191 2616 2906 2266 
Q 2828 2175 2409 1742 
Q 1991 1309 1228 531 
z
" transform="scale(0.015625)"/>
       </defs>
       <use xlink:href="#DejaVuSans-32"/>
       <use xlink:href="#DejaVuSans-32" x="63.623047"/>
       <use xlink:href="#DejaVuSans-35" x="127.246094"/>
       <use xlink:href="#DejaVuSans-b0" x="190.869141"/>
      </g>
     </g>
    </g>
    <g id="xtick_7">
     <g id="line2d_7">
      <path d="M 251.8225 262.917188 
L 473.5825 262.917188 
" clip-path="url(#p1f8b575f7a)" style="fill: none; stroke: #b0b0b0; stroke-width: 0.8; stroke-linecap: square"/>
     </g>
     <g id="text_7">
      <!-- 270° -->
      <g transform="translate(475.53875 265.676563)scale(0.1 -0.1)">
       <defs>
        <path id="DejaVuSans-37" d="M 525 4666 
L 3525 4666 
L 3525 4397 
L 1831 0 
L 1172 0 
L 2766 4134 
L 525 4134 
L 525 4666 
z
" transform="scale(0.015625)"/>
       </defs>
       <use xlink:href="#DejaVuSans-32"/>
       <use xlink:href="#DejaVuSans-37" x="63.623047"/>
       <use xlink:href="#DejaVuSans-30" x="127.246094"/>
       <use xlink:href="#DejaVuSans-b0" x="190.869141"/>
      </g>
     </g>
    </g>
    <g id="xtick_8">
     <g id="line2d_8">
      <path d="M 251.8225 262.917188 
L 408.6305 106.109188 
" clip-path="url(#p1f8b575f7a)" style="fill: none; stroke: #b0b0b0; stroke-width: 0.8; stroke-linecap: square"/>
     </g>
     <g id="text_8">
      <!-- 315° -->
      <g transform="translate(406.486245 98.969068)scale(0.1 -0.1)">
       <use xlink:href="#DejaVuSans-33"/>
       <use xlink:href="#DejaVuSans-31" x="63.623047"/>
       <use xlink:href="#DejaVuSans-35" x="127.246094"/>
       <use xlink:href="#DejaVuSans-b0" x="190.869141"/>
      </g>
     </g>
    </g>
   </g>
   <g id="matplotlib.axis_2">
    <g id="ytick_1">
     <g id="line2d_9">
      <path d="M 251.8225 232.316088 
C 247.804 232.316088 243.824576 233.107645 240.111966 234.645458 
C 236.399357 236.183272 233.025764 238.437435 230.184255 241.278943 
C 227.342747 244.120451 225.088584 247.494044 223.550771 251.206654 
C 222.012958 254.919263 221.221401 258.898688 221.221401 262.917188 
C 221.221401 266.935687 222.012958 270.915112 223.550771 274.627721 
C 225.088584 278.340331 227.342747 281.713924 230.184255 284.555432 
C 233.025764 287.39694 236.399357 289.651103 240.111966 291.188917 
C 243.824576 292.72673 247.804 293.518287 251.8225 293.518287 
C 255.841 293.518287 259.820424 292.72673 263.533034 291.188917 
C 267.245643 289.651103 270.619236 287.39694 273.460745 284.555432 
C 276.302253 281.713924 278.556416 278.340331 280.094229 274.627721 
C 281.632042 270.915112 282.423599 266.935687 282.423599 262.917188 
C 282.423599 258.898688 281.632042 254.919263 280.094229 251.206654 
C 278.556416 247.494044 276.302253 244.120451 273.460745 241.278943 
C 270.619236 238.437435 267.245643 236.183272 263.533034 234.645458 
C 259.820424 233.107645 255.841 232.316088 251.8225 232.316088 
" clip-path="url(#p1f8b575f7a)" style="fill: none; stroke: #b0b0b0; stroke-width: 0.8; stroke-linecap: square"/>
     </g>
     <g id="text_9">
      <!-- −25 -->
      <g transform="translate(240.111966 232.565771)scale(0.1 -0.1)">
       <defs>
        <path id="DejaVuSans-2212" d="M 678 2272 
L 4684 2272 
L 4684 1741 
L 678 1741 
L 678 2272 
z
" transform="scale(0.015625)"/>
       </defs>
       <use xlink:href="#DejaVuSans-2212"/>
       <use xlink:href="#DejaVuSans-32" x="83.789062"/>
       <use xlink:href="#DejaVuSans-35" x="147.412109"/>
      </g>
     </g>
    </g>
    <g id="ytick_2">
     <g id="line2d_10">
      <path d="M 251.8225 194.084308 
C 242.783449 194.084308 233.832292 195.864804 225.481297 199.323899 
C 217.130303 202.782994 209.541878 207.853418 203.150304 214.244992 
C 196.75873 220.636566 191.688307 228.224991 188.229212 236.575985 
C 184.770117 244.926979 182.989621 253.878137 182.989621 262.917188 
C 182.989621 271.956238 184.770117 280.907396 188.229212 289.25839 
C 191.688307 297.609384 196.75873 305.197809 203.150304 311.589383 
C 209.541878 317.980957 217.130303 323.051381 225.481297 326.510476 
C 233.832292 329.969571 242.783449 331.750067 251.8225 331.750067 
C 260.861551 331.750067 269.812708 329.969571 278.163703 326.510476 
C 286.514697 323.051381 294.103122 317.980957 300.494696 311.589383 
C 306.88627 305.197809 311.956693 297.609384 315.415788 289.25839 
C 318.874883 280.907396 320.655379 271.956238 320.655379 262.917188 
C 320.655379 253.878137 318.874883 244.926979 315.415788 236.575985 
C 311.956693 228.224991 306.88627 220.636566 300.494696 214.244992 
C 294.103122 207.853418 286.514697 202.782994 278.163703 199.323899 
C 269.812708 195.864804 260.861551 194.084308 251.8225 194.084308 
" clip-path="url(#p1f8b575f7a)" style="fill: none; stroke: #b0b0b0; stroke-width: 0.8; stroke-linecap: square"/>
     </g>
     <g id="text_10">
      <!-- −20 -->
      <g transform="translate(225.481297 197.244212)scale(0.1 -0.1)">
       <use xlink:href="#DejaVuSans-2212"/>
       <use xlink:href="#DejaVuSans-32" x="83.789062"/>
       <use xlink:href="#DejaVuSans-30" x="147.412109"/>
      </g>
     </g>
    </g>
    <g id="ytick_3">
     <g id="line2d_11">
      <path d="M 251.8225 155.852528 
C 237.762898 155.852528 223.840007 158.621963 210.850629 164.00234 
C 197.86125 169.382717 186.057993 177.269401 176.116353 187.211041 
C 166.174713 197.152681 158.288029 208.955937 152.907652 221.945316 
C 147.527276 234.934695 144.757841 248.857585 144.757841 262.917188 
C 144.757841 276.97679 147.527276 290.89968 152.907652 303.889059 
C 158.288029 316.878438 166.174713 328.681694 176.116353 338.623334 
C 186.057993 348.564974 197.86125 356.451658 210.850629 361.832035 
C 223.840007 367.212412 237.762898 369.981847 251.8225 369.981847 
C 265.882102 369.981847 279.804993 367.212412 292.794371 361.832035 
C 305.78375 356.451658 317.587007 348.564974 327.528647 338.623334 
C 337.470287 328.681694 345.356971 316.878438 350.737348 303.889059 
C 356.117724 290.89968 358.887159 276.97679 358.887159 262.917188 
C 358.887159 248.857585 356.117724 234.934695 350.737348 221.945316 
C 345.356971 208.955937 337.470287 197.152681 327.528647 187.211041 
C 317.587007 177.269401 305.78375 169.382717 292.794371 164.00234 
C 279.804993 158.621963 265.882102 155.852528 251.8225 155.852528 
" clip-path="url(#p1f8b575f7a)" style="fill: none; stroke: #b0b0b0; stroke-width: 0.8; stroke-linecap: square"/>
     </g>
     <g id="text_11">
      <!-- −15 -->
      <g transform="translate(210.850629 161.922652)scale(0.1 -0.1)">
       <use xlink:href="#DejaVuSans-2212"/>
       <use xlink:href="#DejaVuSans-31" x="83.789062"/>
       <use xlink:href="#DejaVuSans-35" x="147.412109"/>
      </g>
     </g>
    </g>
    <g id="ytick_4">
     <g id="line2d_12">
      <path d="M 251.8225 117.620748 
C 232.742346 117.620748 213.847723 121.379122 196.21996 128.680781 
C 178.592196 135.982439 162.574108 146.685384 149.082402 160.17709 
C 135.590696 173.668796 124.887752 189.686884 117.586093 207.314647 
C 110.284435 224.942411 106.52606 243.837034 106.52606 262.917188 
C 106.52606 281.997341 110.284435 300.891964 117.586093 318.519728 
C 124.887752 336.147491 135.590696 352.165579 149.082402 365.657285 
C 162.574108 379.148991 178.592196 389.851936 196.21996 397.153594 
C 213.847723 404.455253 232.742346 408.213627 251.8225 408.213627 
C 270.902654 408.213627 289.797277 404.455253 307.42504 397.153594 
C 325.052804 389.851936 341.070892 379.148991 354.562598 365.657285 
C 368.054304 352.165579 378.757248 336.147491 386.058907 318.519728 
C 393.360565 300.891964 397.11894 281.997341 397.11894 262.917188 
C 397.11894 243.837034 393.360565 224.942411 386.058907 207.314647 
C 378.757248 189.686884 368.054304 173.668796 354.562598 160.17709 
C 341.070892 146.685384 325.052804 135.982439 307.42504 128.680781 
C 289.797277 121.379122 270.902654 117.620748 251.8225 117.620748 
" clip-path="url(#p1f8b575f7a)" style="fill: none; stroke: #b0b0b0; stroke-width: 0.8; stroke-linecap: square"/>
     </g>
     <g id="text_12">
      <!-- −10 -->
      <g transform="translate(196.21996 126.601093)scale(0.1 -0.1)">
       <use xlink:href="#DejaVuSans-2212"/>
       <use xlink:href="#DejaVuSans-31" x="83.789062"/>
       <use xlink:href="#DejaVuSans-30" x="147.412109"/>
      </g>
     </g>
    </g>
    <g id="ytick_5">
     <g id="line2d_13">
      <path d="M 251.8225 79.388968 
C 227.721795 79.388968 203.855439 84.136281 181.589291 93.359222 
C 159.323143 102.582162 139.090223 116.101367 122.048451 133.143139 
C 105.006679 150.184911 91.487475 170.41783 82.264534 192.683978 
C 73.041594 214.950126 68.29428 238.816482 68.29428 262.917188 
C 68.29428 287.017893 73.041594 310.884249 82.264534 333.150397 
C 91.487475 355.416545 105.006679 375.649464 122.048451 392.691236 
C 139.090223 409.733008 159.323143 423.252213 181.589291 432.475153 
C 203.855439 441.698094 227.721795 446.445407 251.8225 446.445407 
C 275.923205 446.445407 299.789561 441.698094 322.055709 432.475153 
C 344.321857 423.252213 364.554777 409.733008 381.596549 392.691236 
C 398.638321 375.649464 412.157525 355.416545 421.380466 333.150397 
C 430.603406 310.884249 435.35072 287.017893 435.35072 262.917188 
C 435.35072 238.816482 430.603406 214.950126 421.380466 192.683978 
C 412.157525 170.41783 398.638321 150.184911 381.596549 133.143139 
C 364.554777 116.101367 344.321857 102.582162 322.055709 93.359222 
C 299.789561 84.136281 275.923205 79.388968 251.8225 79.388968 
" clip-path="url(#p1f8b575f7a)" style="fill: none; stroke: #b0b0b0; stroke-width: 0.8; stroke-linecap: square"/>
     </g>
     <g id="text_13">
      <!-- −5 -->
      <g transform="translate(181.589291 91.279534)scale(0.1 -0.1)">
       <use xlink:href="#DejaVuSans-2212"/>
       <use xlink:href="#DejaVuSans-35" x="83.789062"/>
      </g>
     </g>
    </g>
    <g id="ytick_6">
     <g id="line2d_14">
      <path d="M 251.8225 41.157188 
C 222.701244 41.157188 193.863155 46.89344 166.958622 58.037662 
C 140.054089 69.181885 115.606338 85.51735 95.0145 106.109188 
C 74.422662 126.701026 58.087197 151.148777 46.942975 178.05331 
C 35.798753 204.957842 30.0625 233.795931 30.0625 262.917188 
C 30.0625 292.038444 35.798753 320.876533 46.942975 347.781065 
C 58.087197 374.685598 74.422662 399.133349 95.0145 419.725187 
C 115.606338 440.317025 140.054089 456.65249 166.958622 467.796713 
C 193.863155 478.940935 222.701244 484.677188 251.8225 484.677188 
C 280.943756 484.677188 309.781845 478.940935 336.686378 467.796713 
C 363.590911 456.65249 388.038662 440.317025 408.6305 419.725187 
C 429.222338 399.133349 445.557803 374.685598 456.702025 347.781065 
C 467.846247 320.876533 473.5825 292.038444 473.5825 262.917188 
C 473.5825 233.795931 467.846247 204.957842 456.702025 178.05331 
C 445.557803 151.148777 429.222338 126.701026 408.6305 106.109188 
C 388.038662 85.51735 363.590911 69.181885 336.686378 58.037662 
C 309.781845 46.89344 280.943756 41.157188 251.8225 41.157188 
" clip-path="url(#p1f8b575f7a)" style="fill: none; stroke: #b0b0b0; stroke-width: 0.8; stroke-linecap: square"/>
     </g>
     <g id="text_14">
      <!-- 0 -->
      <g transform="translate(166.958622 55.957975)scale(0.1 -0.1)">
       <use xlink:href="#DejaVuSans-30"/>
      </g>
     </g>
    </g>
   </g>
   <g id="line2d_15">
    <path d="M 251.8225 451.637283 
L 255.142142 453.099352 
L 258.552037 455.625912 
L 262.073114 458.510558 
L 265.652077 460.68935 
L 273.236363 466.656488 
L 277.098219 468.771402 
L 281.232939 472.183333 
L 285.278976 474.153066 
L 289.275138 475.321653 
L 293.472461 477.18766 
L 297.520426 477.909028 
L 301.52016 478.181402 
L 305.456301 478.030614 
L 309.218211 477.120899 
L 312.821383 475.645572 
L 319.549101 471.358233 
L 322.701107 468.763608 
L 328.680017 463.137865 
L 331.188756 459.355565 
L 333.347182 454.977303 
L 335.554617 450.982602 
L 337.272944 446.166255 
L 339.033491 441.726217 
L 340.905047 437.751531 
L 343.949812 422.486372 
L 343.448032 415.40768 
L 343.413011 409.492645 
L 342.608895 402.715976 
L 341.084065 395.252899 
L 340.437195 389.472087 
L 339.279552 383.291493 
L 337.220929 376.24473 
L 336.968497 371.899094 
L 337.567907 368.803947 
L 339.923815 367.912246 
L 343.122339 367.945638 
L 347.965232 369.694509 
L 353.610486 372.071439 
L 358.118609 372.990031 
L 363.819023 374.91371 
L 368.528739 375.619093 
L 372.351268 375.312082 
L 376.681059 375.340339 
L 380.037938 374.373167 
L 383.082357 373.057285 
L 386.642487 372.09226 
L 389.388955 370.395881 
L 391.78115 368.383595 
L 395.107284 363.246273 
L 396.411724 360.44385 
L 397.341483 357.41832 
L 399.371121 351.573343 
L 400.121145 348.53745 
L 401.091264 345.658215 
L 401.7024 342.609744 
L 402.007579 339.440307 
L 403.193788 333.502778 
L 403.63424 330.508129 
L 403.81239 327.433068 
L 403.681612 324.272251 
L 403.711317 318.200196 
L 401.262242 314.373417 
L 400.137684 311.107712 
L 398.696652 307.821122 
L 396.848661 304.50277 
L 395.993935 301.547807 
L 394.687498 298.537432 
L 392.731917 295.44869 
L 391.468227 292.599803 
L 388.556079 287.027007 
L 387.566421 284.416912 
L 387.216777 281.945612 
L 388.165754 279.658034 
L 390.163371 277.457399 
L 393.031635 275.271386 
L 395.491174 272.96348 
L 403.02152 268.197174 
L 406.492751 265.616967 
L 410.836502 262.917188 
L 415.06301 260.067814 
L 418.335483 257.102426 
L 422.835982 253.954751 
L 427.001326 250.667491 
L 429.922021 247.335498 
L 433.546864 243.817187 
L 436.176054 240.281417 
L 438.160805 236.729047 
L 441.587427 232.861376 
L 443.827679 229.061494 
L 445.271687 225.314475 
L 447.338335 221.359014 
L 448.237252 217.571269 
L 448.877529 213.785851 
L 450.951767 209.560661 
L 451.51172 205.657225 
L 451.863997 201.758364 
L 452.693272 197.650317 
L 452.514093 193.81353 
L 452.175655 189.994603 
L 451.472098 186.278887 
L 450.472826 182.657246 
L 447.725414 175.69559 
L 446.048612 172.348064 
L 444.026031 169.173262 
L 438.935994 163.427178 
L 436.02088 160.814358 
L 432.330255 158.700987 
L 429.304182 156.275434 
L 425.399323 154.454351 
L 420.831473 153.161477 
L 417.223043 151.353112 
L 407.086026 150.111633 
L 402.718163 149.20915 
L 395.938576 150.321369 
L 384.827877 151.312425 
L 377.418004 153.738681 
L 371.481709 155.175552 
L 365.690968 156.733123 
L 359.227684 159.197207 
L 354.984327 159.75536 
L 351.824357 159.362233 
L 349.939266 157.699838 
L 349.515505 154.418114 
L 349.989874 149.988541 
L 351.159465 144.532002 
L 350.969349 140.481026 
L 351.29833 135.593931 
L 351.214674 131.019317 
L 350.371769 127.275755 
L 349.875371 122.883175 
L 349.11827 118.670276 
L 347.331442 115.846314 
L 345.584857 112.86605 
L 340.883623 108.658797 
L 338.452198 106.633074 
L 335.603778 105.34752 
L 332.473082 104.631507 
L 329.004481 104.670675 
L 325.655738 104.581297 
L 321.823733 105.691845 
L 317.626066 107.8937 
L 313.776218 109.576353 
L 309.652006 112.266173 
L 305.379471 115.770619 
L 301.67306 118.140648 
L 297.496585 122.346807 
L 293.227755 127.486702 
L 289.519521 131.452052 
L 285.171108 138.458487 
L 277.740388 150.654483 
L 274.006186 158.551152 
L 271.297218 162.728447 
L 269.007968 165.453553 
L 267.072322 166.633599 
L 265.564143 165.140319 
L 263.842562 165.021637 
L 262.192163 164.256433 
L 260.424066 164.60084 
L 256.9096 165.849538 
L 255.222767 165.546288 
L 253.52396 165.440614 
L 251.8225 164.974631 
L 250.09742 164.087415 
L 248.386475 164.522301 
L 246.829842 167.651605 
L 245.276266 169.301677 
L 243.829379 171.555398 
L 242.572603 174.910293 
L 241.479779 178.682487 
L 240.617832 183.191829 
L 239.085796 182.500806 
L 237.4081 181.169061 
L 235.418963 178.528305 
L 233.395433 176.224655 
L 230.430079 170.256434 
L 225.997057 159.336994 
L 211.378544 130.630968 
L 201.842491 117.7647 
L 196.994538 112.2786 
L 192.825665 109.225177 
L 188.026988 105.017755 
L 183.515267 101.995431 
L 179.578919 100.655448 
L 175.355598 98.933386 
L 171.422655 98.073076 
L 163.582756 96.962367 
L 160.273577 97.758558 
L 157.064842 98.792109 
L 153.899843 99.946519 
L 150.924657 101.446885 
L 148.167788 103.302928 
L 146.150461 106.251947 
L 144.046377 108.996933 
L 142.145058 111.95914 
L 140.493537 115.178664 
L 138.464055 117.824995 
L 134.880066 123.550621 
L 133.022422 126.253331 
L 131.893574 129.722621 
L 131.01613 133.368216 
L 129.793416 136.552372 
L 130.174857 141.269544 
L 130.052266 149.364607 
L 131.288209 154.387625 
L 132.148676 162.498926 
L 133.147836 166.81634 
L 132.579319 169.754204 
L 132.246193 176.039915 
L 132.157481 179.126839 
L 132.275251 185.282296 
L 131.768556 187.899157 
L 129.740109 192.432886 
L 128.568708 194.596495 
L 127.064305 196.582078 
L 124.59845 200.865872 
L 123.001275 202.846864 
L 121.742009 205.001622 
L 120.110551 207.008782 
L 118.155245 208.912111 
L 116.305081 210.896924 
L 115.094507 213.152268 
L 113.169578 215.175158 
L 109.73787 219.477557 
L 107.450503 221.519183 
L 106.129588 223.878889 
L 104.120166 226.09086 
L 101.570305 228.228735 
L 98.304546 233.07632 
L 95.917055 235.426851 
L 91.902702 240.441926 
L 89.538809 242.991256 
L 87.603623 245.657088 
L 85.263126 248.345131 
L 83.264543 251.130467 
L 81.687143 254.000771 
L 79.70051 256.906555 
L 76.452942 262.917188 
L 73.81148 266.024381 
L 72.097021 269.19334 
L 70.195149 272.435874 
L 68.520142 275.734937 
L 67.560616 279.038013 
L 66.425178 282.403231 
L 65.51848 285.792445 
L 64.444074 292.595015 
L 64.12459 296.013393 
L 64.415539 299.34541 
L 65.034967 302.620103 
L 65.81593 305.860188 
L 66.719845 309.068463 
L 68.203439 312.117766 
L 72.043238 317.881224 
L 74.600652 320.500057 
L 76.789366 323.185929 
L 79.319275 325.703227 
L 83.182495 327.65202 
L 86.571175 329.683057 
L 90.527702 331.382767 
L 100.312613 333.567408 
L 105.362324 334.350588 
L 111.863664 334.229777 
L 116.910302 334.651276 
L 122.717011 334.481528 
L 129.448744 333.569708 
L 134.397011 333.473539 
L 140.736589 332.331369 
L 147.941657 330.378196 
L 152.380463 329.991688 
L 158.771212 328.072401 
L 163.442352 327.129124 
L 166.55502 327.170842 
L 169.207792 327.462872 
L 169.639714 329.467496 
L 170.380242 331.255356 
L 169.825225 334.196331 
L 169.905459 336.675622 
L 170.741887 341.215826 
L 171.634124 343.105563 
L 173.035194 344.503831 
L 175.274157 345.005236 
L 179.088582 346.587988 
L 182.732339 345.255635 
L 185.45986 344.868223 
L 189.221041 343.043401 
L 193.003444 340.972712 
L 195.633095 340.255269 
L 200.864023 335.693435 
L 213.313124 322.216427 
L 222.98456 309.067539 
L 229.780396 299.601408 
L 239.362997 285.394726 
L 229.234102 307.249414 
L 221.014635 326.082672 
L 216.805916 338.010494 
L 212.001224 352.357239 
L 208.163539 365.771254 
L 204.350983 386.584716 
L 202.826451 397.532725 
L 203.114579 404.375261 
L 203.06489 412.97768 
L 203.898299 419.670184 
L 205.608581 424.084276 
L 207.165757 429.578422 
L 209.278376 433.552351 
L 211.777794 436.369867 
L 214.160845 440.101345 
L 216.943728 442.352913 
L 219.904031 443.935818 
L 222.942507 445.258285 
L 226.067475 446.173712 
L 229.181139 447.316277 
L 232.350843 448.177629 
L 238.789264 449.301149 
L 242.0493 449.400957 
L 245.299775 449.703596 
L 248.553034 450.22476 
L 248.553034 450.22476 
" clip-path="url(#p1f8b575f7a)" style="fill: none; stroke: #ff0000; stroke-width: 1.5; stroke-linecap: square"/>
   </g>
   <g id="line2d_16">
    <path d="M 251.8225 129.403782 
L 249.608469 136.075434 
L 247.653961 143.54584 
L 245.99947 151.80716 
L 244.695945 161.002707 
L 243.811386 171.349732 
L 243.421419 182.986239 
L 243.630504 196.198733 
L 244.47863 210.662836 
L 245.828514 225.072652 
L 246.88178 234.896971 
L 246.276793 234.386997 
L 243.71302 224.765084 
L 240.072712 212.023266 
L 236.078581 199.771779 
L 232.049987 189.125163 
L 228.046318 179.999787 
L 224.121339 172.310774 
L 220.228662 165.681351 
L 216.395582 160.029945 
L 212.643941 155.274982 
L 208.907951 151.120965 
L 205.216105 147.562312 
L 201.566765 144.522095 
L 197.953113 141.924564 
L 194.395535 139.764664 
L 190.847158 137.899209 
L 187.355459 136.393495 
L 183.864825 135.10739 
L 180.421268 134.105956 
L 176.998892 133.318897 
L 173.606418 132.743767 
L 170.211945 132.312998 
L 166.862246 132.089869 
L 163.522988 132.007777 
L 156.940674 132.323557 
L 153.617562 132.594834 
L 147.108158 133.605745 
L 140.652459 135.030684 
L 137.439763 135.882289 
L 131.110694 137.916453 
L 124.907652 140.356943 
L 121.865299 141.730137 
L 118.872275 143.208267 
L 115.931928 144.789315 
L 113.053394 146.476081 
L 110.240136 148.26605 
L 107.495534 150.156604 
L 104.828988 152.149631 
L 102.243938 154.242001 
L 99.743723 156.430481 
L 97.337915 158.716019 
L 95.029861 161.094857 
L 92.816299 163.559086 
L 90.713226 166.112969 
L 88.703956 168.740652 
L 86.810999 171.449819 
L 85.017011 174.225136 
L 83.337829 177.06996 
L 81.762162 179.973218 
L 80.291981 182.931193 
L 78.929143 185.940106 
L 76.503975 192.083905 
L 74.447693 198.358037 
L 72.724446 204.724702 
L 71.280418 211.147579 
L 70.043659 217.594632 
L 68.453698 227.273903 
L 62.155172 269.540517 
L 61.380586 276.234183 
L 60.797871 282.994685 
L 60.486713 289.807679 
L 60.510098 296.650726 
L 60.92885 303.492885 
L 61.300999 306.902542 
L 61.786059 310.298594 
L 62.398191 313.673278 
L 63.129103 317.024148 
L 63.999767 320.34036 
L 65.001458 323.619024 
L 66.139913 326.85283 
L 67.413358 330.036626 
L 68.834133 333.15984 
L 70.399848 336.216697 
L 72.107927 339.201498 
L 73.962599 342.105517 
L 75.967691 344.919632 
L 78.119737 347.637686 
L 80.421885 350.250163 
L 82.870088 352.750779 
L 85.46678 355.129669 
L 88.207311 357.380461 
L 91.09337 359.492992 
L 94.126163 361.456795 
L 97.299983 363.265283 
L 100.615238 364.907773 
L 104.071821 366.373327 
L 107.669088 367.650772 
L 111.393638 368.737925 
L 115.256263 369.614425 
L 119.242773 370.278133 
L 123.362503 370.707924 
L 127.629295 370.876694 
L 132.032597 370.7765 
L 136.561576 370.399738 
L 141.205124 369.739146 
L 146.060007 368.679681 
L 151.002656 367.319193 
L 156.125403 365.53976 
L 161.461312 363.273454 
L 166.938714 360.564813 
L 172.735264 357.169685 
L 178.81929 353.068645 
L 185.252562 348.122823 
L 192.133724 342.126869 
L 199.637619 334.743514 
L 207.960198 325.559046 
L 217.312401 314.080513 
L 227.95552 299.669115 
L 239.257196 283.025877 
L 246.383698 271.968874 
L 242.03115 279.876303 
L 232.097224 298.502527 
L 223.280244 316.597363 
L 216.514992 332.212074 
L 211.528639 345.531845 
L 207.870847 357.171811 
L 205.261738 367.494371 
L 203.478873 376.807635 
L 202.409017 385.21985 
L 201.920418 392.916555 
L 201.895437 400.090665 
L 202.330415 406.652639 
L 203.145227 412.730428 
L 204.269405 418.456351 
L 205.705532 423.746169 
L 207.417093 428.640424 
L 209.363467 433.211066 
L 211.526666 437.457622 
L 213.887405 441.387778 
L 216.425785 445.017498 
L 219.123299 448.36357 
L 221.964054 451.435998 
L 224.934137 454.23783 
L 228.019114 456.780211 
L 231.205501 459.074833 
L 234.480786 461.133891 
L 237.834509 462.954785 
L 241.255744 464.542901 
L 244.733511 465.919279 
L 248.258783 467.082408 
L 251.8225 468.046363 
L 255.416376 468.810221 
L 259.032641 469.38861 
L 262.664179 469.788748 
L 266.304404 470.018063 
L 269.947262 470.084171 
L 273.58644 469.987245 
L 277.218429 469.750429 
L 280.838133 469.374143 
L 284.441669 468.866515 
L 288.027029 468.243274 
L 295.129417 466.660214 
L 302.135872 464.713102 
L 309.042418 462.466755 
L 315.853598 459.984642 
L 322.590153 457.349717 
L 332.576363 453.161368 
L 342.462528 448.756784 
L 352.242339 444.079372 
L 358.669038 440.739688 
L 364.988939 437.178222 
L 371.15074 433.335575 
L 377.108395 429.177185 
L 379.995658 426.971348 
L 382.810404 424.673778 
L 385.544686 422.281083 
L 388.200257 419.801851 
L 390.764009 417.227366 
L 393.227339 414.555313 
L 395.597296 411.800347 
L 397.860174 408.954861 
L 400.007118 406.017409 
L 402.045801 403.002682 
L 403.962021 399.904227 
L 405.758296 396.731533 
L 407.425914 393.483954 
L 408.961896 390.166162 
L 410.369435 386.787629 
L 411.63998 383.348297 
L 412.777175 379.857604 
L 413.772598 376.315867 
L 414.624005 372.72819 
L 415.335726 369.103918 
L 415.899563 365.443915 
L 416.320299 361.757437 
L 416.589907 358.045694 
L 416.713623 354.31783 
L 416.683605 350.575392 
L 416.505543 346.827389 
L 416.178664 343.079045 
L 415.695422 339.332386 
L 415.062181 335.596176 
L 414.271613 331.872745 
L 413.330528 328.170666 
L 412.238967 324.4953 
L 410.982764 320.846786 
L 409.583709 317.238728 
L 406.411072 310.179657 
L 402.648552 303.330906 
L 398.45381 296.769693 
L 393.916518 290.537467 
L 383.159656 276.721279 
L 381.552425 274.267085 
L 380.205203 271.894581 
L 379.349663 269.600603 
L 378.835546 267.352581 
L 378.893609 265.135222 
L 379.371747 262.917188 
L 380.346196 260.673798 
L 381.739391 258.38039 
L 383.473037 256.017675 
L 387.798577 251.020822 
L 392.840801 245.602317 
L 398.116867 239.746436 
L 400.702277 236.665666 
L 403.223798 233.487756 
L 405.67883 230.214015 
L 410.230778 223.421568 
L 412.323967 219.910949 
L 414.268514 216.336542 
L 416.063237 212.703755 
L 417.728935 209.010919 
L 419.249914 205.267306 
L 420.618149 201.480595 
L 421.840233 197.653494 
L 422.908547 193.793937 
L 423.822868 189.907363 
L 424.590121 185.996087 
L 425.196386 182.071617 
L 425.662713 178.12965 
L 425.975548 174.181777 
L 426.13547 170.233338 
L 426.149903 166.28593 
L 426.012925 162.348299 
L 425.732139 158.421734 
L 425.302056 154.51513 
L 424.730439 150.629459 
L 424.018576 146.769468 
L 423.155363 142.948625 
L 422.1552 139.163237 
L 421.019797 135.417879 
L 419.738949 131.72648 
L 418.321073 128.089301 
L 416.774401 124.506108 
L 415.089644 120.991224 
L 413.26971 117.549467 
L 411.323245 114.180336 
L 409.247669 110.893469 
L 407.04631 107.693377 
L 404.722634 104.584464 
L 402.280236 101.571019 
L 399.717728 98.662897 
L 397.039261 95.864413 
L 394.254036 93.173893 
L 391.35653 90.607011 
L 388.351589 88.167923 
L 385.253389 85.848417 
L 382.052903 83.670416 
L 378.764436 81.625315 
L 375.384436 79.729084 
L 371.922838 77.978884 
L 368.385187 76.377894 
L 364.773193 74.935667 
L 361.092942 73.65523 
L 357.350622 72.539416 
L 353.552512 71.590862 
L 349.704978 70.812008 
L 345.811117 70.211964 
L 341.881048 69.786008 
L 337.921368 69.535964 
L 333.935753 69.470486 
L 329.931296 69.591134 
L 325.915146 69.899245 
L 321.897123 70.388742 
L 317.879119 71.074835 
L 313.8688 71.958311 
L 309.87387 73.039713 
L 305.904169 74.311992 
L 301.961136 75.797252 
L 298.055167 77.488087 
L 294.192722 79.391594 
L 290.380784 81.514725 
L 286.626863 83.864261 
L 282.937664 86.454322 
L 279.322131 89.291348 
L 275.78866 92.389098 
L 272.342956 95.791484 
L 269.007469 99.41313 
L 265.778115 103.403779 
L 262.672067 107.761152 
L 259.706453 112.482394 
L 256.895674 117.640483 
L 254.260723 123.231512 
L 254.260723 123.231512 
" clip-path="url(#p1f8b575f7a)" style="fill: none; stroke-dasharray: 5.55,2.4; stroke-dashoffset: 0; stroke: #0000ff; stroke-width: 1.5"/>
   </g>
   <g id="patch_3">
    <path d="M 251.8225 41.157188 
C 222.701244 41.157188 193.863155 46.89344 166.958622 58.037662 
C 140.054089 69.181885 115.606338 85.51735 95.0145 106.109188 
C 74.422662 126.701026 58.087197 151.148777 46.942975 178.05331 
C 35.798753 204.957842 30.0625 233.795931 30.0625 262.917188 
C 30.0625 292.038444 35.798753 320.876533 46.942975 347.781065 
C 58.087197 374.685598 74.422662 399.133349 95.0145 419.725187 
C 115.606338 440.317025 140.054089 456.65249 166.958622 467.796713 
C 193.863155 478.940935 222.701244 484.677188 251.8225 484.677188 
C 280.943756 484.677188 309.781845 478.940935 336.686378 467.796713 
C 363.590911 456.65249 388.038662 440.317025 408.6305 419.725187 
C 429.222338 399.133349 445.557803 374.685598 456.702025 347.781065 
C 467.846247 320.876533 473.5825 292.038444 473.5825 262.917188 
C 473.5825 233.795931 467.846247 204.957842 456.702025 178.05331 
C 445.557803 151.148777 429.222338 126.701026 408.6305 106.109188 
C 388.038662 85.51735 363.590911 69.181885 336.686378 58.037662 
C 309.781845 46.89344 280.943756 41.157188 251.8225 41.157188 
" style="fill: none; stroke: #000000; stroke-width: 0.8; stroke-linejoin: miter; stroke-linecap: square"/>
   </g>
   <g id="text_15">
    <g id="patch_4">
     <path d="M 384.8785 509.853188 
L 488.976938 509.853188 
Q 491.976938 509.853188 491.976938 506.853188 
L 491.976938 473.945063 
Q 491.976938 470.945063 488.976938 470.945063 
L 384.8785 470.945063 
Q 381.8785 470.945063 381.8785 473.945063 
L 381.8785 506.853188 
Q 381.8785 509.853188 384.8785 509.853188 
z
" style="fill: #ffffff; stroke: #808080; stroke-linejoin: miter"/>
    </g>
    <!-- G_cst: -3.3 dBi -->
    <g transform="translate(384.8785 481.821625)scale(0.1 -0.1)">
     <defs>
      <path id="DejaVuSans-47" d="M 3809 666 
L 3809 1919 
L 2778 1919 
L 2778 2438 
L 4434 2438 
L 4434 434 
Q 4069 175 3628 42 
Q 3188 -91 2688 -91 
Q 1594 -91 976 548 
Q 359 1188 359 2328 
Q 359 3472 976 4111 
Q 1594 4750 2688 4750 
Q 3144 4750 3555 4637 
Q 3966 4525 4313 4306 
L 4313 3634 
Q 3963 3931 3569 4081 
Q 3175 4231 2741 4231 
Q 1884 4231 1454 3753 
Q 1025 3275 1025 2328 
Q 1025 1384 1454 906 
Q 1884 428 2741 428 
Q 3075 428 3337 486 
Q 3600 544 3809 666 
z
" transform="scale(0.015625)"/>
      <path id="DejaVuSans-5f" d="M 3263 -1063 
L 3263 -1509 
L -63 -1509 
L -63 -1063 
L 3263 -1063 
z
" transform="scale(0.015625)"/>
      <path id="DejaVuSans-63" d="M 3122 3366 
L 3122 2828 
Q 2878 2963 2633 3030 
Q 2388 3097 2138 3097 
Q 1578 3097 1268 2742 
Q 959 2388 959 1747 
Q 959 1106 1268 751 
Q 1578 397 2138 397 
Q 2388 397 2633 464 
Q 2878 531 3122 666 
L 3122 134 
Q 2881 22 2623 -34 
Q 2366 -91 2075 -91 
Q 1284 -91 818 406 
Q 353 903 353 1747 
Q 353 2603 823 3093 
Q 1294 3584 2113 3584 
Q 2378 3584 2631 3529 
Q 2884 3475 3122 3366 
z
" transform="scale(0.015625)"/>
      <path id="DejaVuSans-73" d="M 2834 3397 
L 2834 2853 
Q 2591 2978 2328 3040 
Q 2066 3103 1784 3103 
Q 1356 3103 1142 2972 
Q 928 2841 928 2578 
Q 928 2378 1081 2264 
Q 1234 2150 1697 2047 
L 1894 2003 
Q 2506 1872 2764 1633 
Q 3022 1394 3022 966 
Q 3022 478 2636 193 
Q 2250 -91 1575 -91 
Q 1294 -91 989 -36 
Q 684 19 347 128 
L 347 722 
Q 666 556 975 473 
Q 1284 391 1588 391 
Q 1994 391 2212 530 
Q 2431 669 2431 922 
Q 2431 1156 2273 1281 
Q 2116 1406 1581 1522 
L 1381 1569 
Q 847 1681 609 1914 
Q 372 2147 372 2553 
Q 372 3047 722 3315 
Q 1072 3584 1716 3584 
Q 2034 3584 2315 3537 
Q 2597 3491 2834 3397 
z
" transform="scale(0.015625)"/>
      <path id="DejaVuSans-74" d="M 1172 4494 
L 1172 3500 
L 2356 3500 
L 2356 3053 
L 1172 3053 
L 1172 1153 
Q 1172 725 1289 603 
Q 1406 481 1766 481 
L 2356 481 
L 2356 0 
L 1766 0 
Q 1100 0 847 248 
Q 594 497 594 1153 
L 594 3053 
L 172 3053 
L 172 3500 
L 594 3500 
L 594 4494 
L 1172 4494 
z
" transform="scale(0.015625)"/>
      <path id="DejaVuSans-3a" d="M 750 794 
L 1409 794 
L 1409 0 
L 750 0 
L 750 794 
z
M 750 3309 
L 1409 3309 
L 1409 2516 
L 750 2516 
L 750 3309 
z
" transform="scale(0.015625)"/>
      <path id="DejaVuSans-20" transform="scale(0.015625)"/>
      <path id="DejaVuSans-2d" d="M 313 2009 
L 1997 2009 
L 1997 1497 
L 313 1497 
L 313 2009 
z
" transform="scale(0.015625)"/>
      <path id="DejaVuSans-2e" d="M 684 794 
L 1344 794 
L 1344 0 
L 684 0 
L 684 794 
z
" transform="scale(0.015625)"/>
      <path id="DejaVuSans-64" d="M 2906 2969 
L 2906 4863 
L 3481 4863 
L 3481 0 
L 2906 0 
L 2906 525 
Q 2725 213 2448 61 
Q 2172 -91 1784 -91 
Q 1150 -91 751 415 
Q 353 922 353 1747 
Q 353 2572 751 3078 
Q 1150 3584 1784 3584 
Q 2172 3584 2448 3432 
Q 2725 3281 2906 2969 
z
M 947 1747 
Q 947 1113 1208 752 
Q 1469 391 1925 391 
Q 2381 391 2643 752 
Q 2906 1113 2906 1747 
Q 2906 2381 2643 2742 
Q 2381 3103 1925 3103 
Q 1469 3103 1208 2742 
Q 947 2381 947 1747 
z
" transform="scale(0.015625)"/>
      <path id="DejaVuSans-42" d="M 1259 2228 
L 1259 519 
L 2272 519 
Q 2781 519 3026 730 
Q 3272 941 3272 1375 
Q 3272 1813 3026 2020 
Q 2781 2228 2272 2228 
L 1259 2228 
z
M 1259 4147 
L 1259 2741 
L 2194 2741 
Q 2656 2741 2882 2914 
Q 3109 3088 3109 3444 
Q 3109 3797 2882 3972 
Q 2656 4147 2194 4147 
L 1259 4147 
z
M 628 4666 
L 2241 4666 
Q 2963 4666 3353 4366 
Q 3744 4066 3744 3513 
Q 3744 3084 3544 2831 
Q 3344 2578 2956 2516 
Q 3422 2416 3680 2098 
Q 3938 1781 3938 1306 
Q 3938 681 3513 340 
Q 3088 0 2303 0 
L 628 0 
L 628 4666 
z
" transform="scale(0.015625)"/>
      <path id="DejaVuSans-69" d="M 603 3500 
L 1178 3500 
L 1178 0 
L 603 0 
L 603 3500 
z
M 603 4863 
L 1178 4863 
L 1178 4134 
L 603 4134 
L 603 4863 
z
" transform="scale(0.015625)"/>
     </defs>
     <use xlink:href="#DejaVuSans-47"/>
     <use xlink:href="#DejaVuSans-5f" x="77.490234"/>
     <use xlink:href="#DejaVuSans-63" x="127.490234"/>
     <use xlink:href="#DejaVuSans-73" x="182.470703"/>
     <use xlink:href="#DejaVuSans-74" x="234.570312"/>
     <use xlink:href="#DejaVuSans-3a" x="273.779297"/>
     <use xlink:href="#DejaVuSans-20" x="307.470703"/>
     <use xlink:href="#DejaVuSans-2d" x="339.257812"/>
     <use xlink:href="#DejaVuSans-33" x="375.341797"/>
     <use xlink:href="#DejaVuSans-2e" x="438.964844"/>
     <use xlink:href="#DejaVuSans-33" x="470.751953"/>
     <use xlink:href="#DejaVuSans-20" x="534.375"/>
     <use xlink:href="#DejaVuSans-64" x="566.162109"/>
     <use xlink:href="#DejaVuSans-42" x="629.638672"/>
     <use xlink:href="#DejaVuSans-69" x="698.242188"/>
    </g>
    <!-- G_inpe: -2.5 dBi -->
    <g transform="translate(384.8785 493.297563)scale(0.1 -0.1)">
     <defs>
      <path id="DejaVuSans-6e" d="M 3513 2113 
L 3513 0 
L 2938 0 
L 2938 2094 
Q 2938 2591 2744 2837 
Q 2550 3084 2163 3084 
Q 1697 3084 1428 2787 
Q 1159 2491 1159 1978 
L 1159 0 
L 581 0 
L 581 3500 
L 1159 3500 
L 1159 2956 
Q 1366 3272 1645 3428 
Q 1925 3584 2291 3584 
Q 2894 3584 3203 3211 
Q 3513 2838 3513 2113 
z
" transform="scale(0.015625)"/>
      <path id="DejaVuSans-70" d="M 1159 525 
L 1159 -1331 
L 581 -1331 
L 581 3500 
L 1159 3500 
L 1159 2969 
Q 1341 3281 1617 3432 
Q 1894 3584 2278 3584 
Q 2916 3584 3314 3078 
Q 3713 2572 3713 1747 
Q 3713 922 3314 415 
Q 2916 -91 2278 -91 
Q 1894 -91 1617 61 
Q 1341 213 1159 525 
z
M 3116 1747 
Q 3116 2381 2855 2742 
Q 2594 3103 2138 3103 
Q 1681 3103 1420 2742 
Q 1159 2381 1159 1747 
Q 1159 1113 1420 752 
Q 1681 391 2138 391 
Q 2594 391 2855 752 
Q 3116 1113 3116 1747 
z
" transform="scale(0.015625)"/>
      <path id="DejaVuSans-65" d="M 3597 1894 
L 3597 1613 
L 953 1613 
Q 991 1019 1311 708 
Q 1631 397 2203 397 
Q 2534 397 2845 478 
Q 3156 559 3463 722 
L 3463 178 
Q 3153 47 2828 -22 
Q 2503 -91 2169 -91 
Q 1331 -91 842 396 
Q 353 884 353 1716 
Q 353 2575 817 3079 
Q 1281 3584 2069 3584 
Q 2775 3584 3186 3129 
Q 3597 2675 3597 1894 
z
M 3022 2063 
Q 3016 2534 2758 2815 
Q 2500 3097 2075 3097 
Q 1594 3097 1305 2825 
Q 1016 2553 972 2059 
L 3022 2063 
z
" transform="scale(0.015625)"/>
     </defs>
     <use xlink:href="#DejaVuSans-47"/>
     <use xlink:href="#DejaVuSans-5f" x="77.490234"/>
     <use xlink:href="#DejaVuSans-69" x="127.490234"/>
     <use xlink:href="#DejaVuSans-6e" x="155.273438"/>
     <use xlink:href="#DejaVuSans-70" x="218.652344"/>
     <use xlink:href="#DejaVuSans-65" x="282.128906"/>
     <use xlink:href="#DejaVuSans-3a" x="343.652344"/>
     <use xlink:href="#DejaVuSans-20" x="377.34375"/>
     <use xlink:href="#DejaVuSans-2d" x="409.130859"/>
     <use xlink:href="#DejaVuSans-32" x="445.214844"/>
     <use xlink:href="#DejaVuSans-2e" x="508.837891"/>
     <use xlink:href="#DejaVuSans-35" x="540.625"/>
     <use xlink:href="#DejaVuSans-20" x="604.248047"/>
     <use xlink:href="#DejaVuSans-64" x="636.035156"/>
     <use xlink:href="#DejaVuSans-42" x="699.511719"/>
     <use xlink:href="#DejaVuSans-69" x="768.115234"/>
    </g>
    <!-- Pearson Coef: -0.483 -->
    <g transform="translate(384.8785 504.7735)scale(0.1 -0.1)">
     <defs>
      <path id="DejaVuSans-50" d="M 1259 4147 
L 1259 2394 
L 2053 2394 
Q 2494 2394 2734 2622 
Q 2975 2850 2975 3272 
Q 2975 3691 2734 3919 
Q 2494 4147 2053 4147 
L 1259 4147 
z
M 628 4666 
L 2053 4666 
Q 2838 4666 3239 4311 
Q 3641 3956 3641 3272 
Q 3641 2581 3239 2228 
Q 2838 1875 2053 1875 
L 1259 1875 
L 1259 0 
L 628 0 
L 628 4666 
z
" transform="scale(0.015625)"/>
      <path id="DejaVuSans-61" d="M 2194 1759 
Q 1497 1759 1228 1600 
Q 959 1441 959 1056 
Q 959 750 1161 570 
Q 1363 391 1709 391 
Q 2188 391 2477 730 
Q 2766 1069 2766 1631 
L 2766 1759 
L 2194 1759 
z
M 3341 1997 
L 3341 0 
L 2766 0 
L 2766 531 
Q 2569 213 2275 61 
Q 1981 -91 1556 -91 
Q 1019 -91 701 211 
Q 384 513 384 1019 
Q 384 1609 779 1909 
Q 1175 2209 1959 2209 
L 2766 2209 
L 2766 2266 
Q 2766 2663 2505 2880 
Q 2244 3097 1772 3097 
Q 1472 3097 1187 3025 
Q 903 2953 641 2809 
L 641 3341 
Q 956 3463 1253 3523 
Q 1550 3584 1831 3584 
Q 2591 3584 2966 3190 
Q 3341 2797 3341 1997 
z
" transform="scale(0.015625)"/>
      <path id="DejaVuSans-72" d="M 2631 2963 
Q 2534 3019 2420 3045 
Q 2306 3072 2169 3072 
Q 1681 3072 1420 2755 
Q 1159 2438 1159 1844 
L 1159 0 
L 581 0 
L 581 3500 
L 1159 3500 
L 1159 2956 
Q 1341 3275 1631 3429 
Q 1922 3584 2338 3584 
Q 2397 3584 2469 3576 
Q 2541 3569 2628 3553 
L 2631 2963 
z
" transform="scale(0.015625)"/>
      <path id="DejaVuSans-6f" d="M 1959 3097 
Q 1497 3097 1228 2736 
Q 959 2375 959 1747 
Q 959 1119 1226 758 
Q 1494 397 1959 397 
Q 2419 397 2687 759 
Q 2956 1122 2956 1747 
Q 2956 2369 2687 2733 
Q 2419 3097 1959 3097 
z
M 1959 3584 
Q 2709 3584 3137 3096 
Q 3566 2609 3566 1747 
Q 3566 888 3137 398 
Q 2709 -91 1959 -91 
Q 1206 -91 779 398 
Q 353 888 353 1747 
Q 353 2609 779 3096 
Q 1206 3584 1959 3584 
z
" transform="scale(0.015625)"/>
      <path id="DejaVuSans-43" d="M 4122 4306 
L 4122 3641 
Q 3803 3938 3442 4084 
Q 3081 4231 2675 4231 
Q 1875 4231 1450 3742 
Q 1025 3253 1025 2328 
Q 1025 1406 1450 917 
Q 1875 428 2675 428 
Q 3081 428 3442 575 
Q 3803 722 4122 1019 
L 4122 359 
Q 3791 134 3420 21 
Q 3050 -91 2638 -91 
Q 1578 -91 968 557 
Q 359 1206 359 2328 
Q 359 3453 968 4101 
Q 1578 4750 2638 4750 
Q 3056 4750 3426 4639 
Q 3797 4528 4122 4306 
z
" transform="scale(0.015625)"/>
      <path id="DejaVuSans-66" d="M 2375 4863 
L 2375 4384 
L 1825 4384 
Q 1516 4384 1395 4259 
Q 1275 4134 1275 3809 
L 1275 3500 
L 2222 3500 
L 2222 3053 
L 1275 3053 
L 1275 0 
L 697 0 
L 697 3053 
L 147 3053 
L 147 3500 
L 697 3500 
L 697 3744 
Q 697 4328 969 4595 
Q 1241 4863 1831 4863 
L 2375 4863 
z
" transform="scale(0.015625)"/>
     </defs>
     <use xlink:href="#DejaVuSans-50"/>
     <use xlink:href="#DejaVuSans-65" x="56.677734"/>
     <use xlink:href="#DejaVuSans-61" x="118.201172"/>
     <use xlink:href="#DejaVuSans-72" x="179.480469"/>
     <use xlink:href="#DejaVuSans-73" x="220.59375"/>
     <use xlink:href="#DejaVuSans-6f" x="272.693359"/>
     <use xlink:href="#DejaVuSans-6e" x="333.875"/>
     <use xlink:href="#DejaVuSans-20" x="397.253906"/>
     <use xlink:href="#DejaVuSans-43" x="429.041016"/>
     <use xlink:href="#DejaVuSans-6f" x="498.865234"/>
     <use xlink:href="#DejaVuSans-65" x="560.046875"/>
     <use xlink:href="#DejaVuSans-66" x="621.570312"/>
     <use xlink:href="#DejaVuSans-3a" x="653.150391"/>
     <use xlink:href="#DejaVuSans-20" x="686.841797"/>
     <use xlink:href="#DejaVuSans-2d" x="718.628906"/>
     <use xlink:href="#DejaVuSans-30" x="754.712891"/>
     <use xlink:href="#DejaVuSans-2e" x="818.335938"/>
     <use xlink:href="#DejaVuSans-34" x="850.123047"/>
     <use xlink:href="#DejaVuSans-38" x="913.746094"/>
     <use xlink:href="#DejaVuSans-33" x="977.369141"/>
    </g>
   </g>
   <g id="text_16">
    <g id="patch_5">
     <path d="M 52.2385 56.370938 
L 140.94475 56.370938 
Q 144.54475 56.370938 144.54475 52.770938 
L 144.54475 41.157188 
Q 144.54475 37.557188 140.94475 37.557188 
L 52.2385 37.557188 
Q 48.6385 37.557188 48.6385 41.157188 
L 48.6385 52.770938 
Q 48.6385 56.370938 52.2385 56.370938 
z
" style="fill: #ffffff; stroke: #808080; stroke-linejoin: miter"/>
    </g>
    <!-- Freq: 10.5 GHz -->
    <g transform="translate(52.2385 50.275313)scale(0.12 -0.12)">
     <defs>
      <path id="DejaVuSans-46" d="M 628 4666 
L 3309 4666 
L 3309 4134 
L 1259 4134 
L 1259 2759 
L 3109 2759 
L 3109 2228 
L 1259 2228 
L 1259 0 
L 628 0 
L 628 4666 
z
" transform="scale(0.015625)"/>
      <path id="DejaVuSans-71" d="M 947 1747 
Q 947 1113 1208 752 
Q 1469 391 1925 391 
Q 2381 391 2643 752 
Q 2906 1113 2906 1747 
Q 2906 2381 2643 2742 
Q 2381 3103 1925 3103 
Q 1469 3103 1208 2742 
Q 947 2381 947 1747 
z
M 2906 525 
Q 2725 213 2448 61 
Q 2172 -91 1784 -91 
Q 1150 -91 751 415 
Q 353 922 353 1747 
Q 353 2572 751 3078 
Q 1150 3584 1784 3584 
Q 2172 3584 2448 3432 
Q 2725 3281 2906 2969 
L 2906 3500 
L 3481 3500 
L 3481 -1331 
L 2906 -1331 
L 2906 525 
z
" transform="scale(0.015625)"/>
      <path id="DejaVuSans-48" d="M 628 4666 
L 1259 4666 
L 1259 2753 
L 3553 2753 
L 3553 4666 
L 4184 4666 
L 4184 0 
L 3553 0 
L 3553 2222 
L 1259 2222 
L 1259 0 
L 628 0 
L 628 4666 
z
" transform="scale(0.015625)"/>
      <path id="DejaVuSans-7a" d="M 353 3500 
L 3084 3500 
L 3084 2975 
L 922 459 
L 3084 459 
L 3084 0 
L 275 0 
L 275 525 
L 2438 3041 
L 353 3041 
L 353 3500 
z
" transform="scale(0.015625)"/>
     </defs>
     <use xlink:href="#DejaVuSans-46"/>
     <use xlink:href="#DejaVuSans-72" x="50.269531"/>
     <use xlink:href="#DejaVuSans-65" x="89.132812"/>
     <use xlink:href="#DejaVuSans-71" x="150.65625"/>
     <use xlink:href="#DejaVuSans-3a" x="214.132812"/>
     <use xlink:href="#DejaVuSans-20" x="247.824219"/>
     <use xlink:href="#DejaVuSans-31" x="279.611328"/>
     <use xlink:href="#DejaVuSans-30" x="343.234375"/>
     <use xlink:href="#DejaVuSans-2e" x="406.857422"/>
     <use xlink:href="#DejaVuSans-35" x="438.644531"/>
     <use xlink:href="#DejaVuSans-20" x="502.267578"/>
     <use xlink:href="#DejaVuSans-47" x="534.054688"/>
     <use xlink:href="#DejaVuSans-48" x="611.544922"/>
     <use xlink:href="#DejaVuSans-7a" x="686.740234"/>
    </g>
   </g>
   <g id="text_17">
    <!-- Radiation Diagram - 4AVVF10 -->
    <g transform="translate(162.985937 16.318125)scale(0.12 -0.12)">
     <defs>
      <path id="DejaVuSans-52" d="M 2841 2188 
Q 3044 2119 3236 1894 
Q 3428 1669 3622 1275 
L 4263 0 
L 3584 0 
L 2988 1197 
Q 2756 1666 2539 1819 
Q 2322 1972 1947 1972 
L 1259 1972 
L 1259 0 
L 628 0 
L 628 4666 
L 2053 4666 
Q 2853 4666 3247 4331 
Q 3641 3997 3641 3322 
Q 3641 2881 3436 2590 
Q 3231 2300 2841 2188 
z
M 1259 4147 
L 1259 2491 
L 2053 2491 
Q 2509 2491 2742 2702 
Q 2975 2913 2975 3322 
Q 2975 3731 2742 3939 
Q 2509 4147 2053 4147 
L 1259 4147 
z
" transform="scale(0.015625)"/>
      <path id="DejaVuSans-44" d="M 1259 4147 
L 1259 519 
L 2022 519 
Q 2988 519 3436 956 
Q 3884 1394 3884 2338 
Q 3884 3275 3436 3711 
Q 2988 4147 2022 4147 
L 1259 4147 
z
M 628 4666 
L 1925 4666 
Q 3281 4666 3915 4102 
Q 4550 3538 4550 2338 
Q 4550 1131 3912 565 
Q 3275 0 1925 0 
L 628 0 
L 628 4666 
z
" transform="scale(0.015625)"/>
      <path id="DejaVuSans-67" d="M 2906 1791 
Q 2906 2416 2648 2759 
Q 2391 3103 1925 3103 
Q 1463 3103 1205 2759 
Q 947 2416 947 1791 
Q 947 1169 1205 825 
Q 1463 481 1925 481 
Q 2391 481 2648 825 
Q 2906 1169 2906 1791 
z
M 3481 434 
Q 3481 -459 3084 -895 
Q 2688 -1331 1869 -1331 
Q 1566 -1331 1297 -1286 
Q 1028 -1241 775 -1147 
L 775 -588 
Q 1028 -725 1275 -790 
Q 1522 -856 1778 -856 
Q 2344 -856 2625 -561 
Q 2906 -266 2906 331 
L 2906 616 
Q 2728 306 2450 153 
Q 2172 0 1784 0 
Q 1141 0 747 490 
Q 353 981 353 1791 
Q 353 2603 747 3093 
Q 1141 3584 1784 3584 
Q 2172 3584 2450 3431 
Q 2728 3278 2906 2969 
L 2906 3500 
L 3481 3500 
L 3481 434 
z
" transform="scale(0.015625)"/>
      <path id="DejaVuSans-6d" d="M 3328 2828 
Q 3544 3216 3844 3400 
Q 4144 3584 4550 3584 
Q 5097 3584 5394 3201 
Q 5691 2819 5691 2113 
L 5691 0 
L 5113 0 
L 5113 2094 
Q 5113 2597 4934 2840 
Q 4756 3084 4391 3084 
Q 3944 3084 3684 2787 
Q 3425 2491 3425 1978 
L 3425 0 
L 2847 0 
L 2847 2094 
Q 2847 2600 2669 2842 
Q 2491 3084 2119 3084 
Q 1678 3084 1418 2786 
Q 1159 2488 1159 1978 
L 1159 0 
L 581 0 
L 581 3500 
L 1159 3500 
L 1159 2956 
Q 1356 3278 1631 3431 
Q 1906 3584 2284 3584 
Q 2666 3584 2933 3390 
Q 3200 3197 3328 2828 
z
" transform="scale(0.015625)"/>
      <path id="DejaVuSans-41" d="M 2188 4044 
L 1331 1722 
L 3047 1722 
L 2188 4044 
z
M 1831 4666 
L 2547 4666 
L 4325 0 
L 3669 0 
L 3244 1197 
L 1141 1197 
L 716 0 
L 50 0 
L 1831 4666 
z
" transform="scale(0.015625)"/>
      <path id="DejaVuSans-56" d="M 1831 0 
L 50 4666 
L 709 4666 
L 2188 738 
L 3669 4666 
L 4325 4666 
L 2547 0 
L 1831 0 
z
" transform="scale(0.015625)"/>
     </defs>
     <use xlink:href="#DejaVuSans-52"/>
     <use xlink:href="#DejaVuSans-61" x="67.232422"/>
     <use xlink:href="#DejaVuSans-64" x="128.511719"/>
     <use xlink:href="#DejaVuSans-69" x="191.988281"/>
     <use xlink:href="#DejaVuSans-61" x="219.771484"/>
     <use xlink:href="#DejaVuSans-74" x="281.050781"/>
     <use xlink:href="#DejaVuSans-69" x="320.259766"/>
     <use xlink:href="#DejaVuSans-6f" x="348.042969"/>
     <use xlink:href="#DejaVuSans-6e" x="409.224609"/>
     <use xlink:href="#DejaVuSans-20" x="472.603516"/>
     <use xlink:href="#DejaVuSans-44" x="504.390625"/>
     <use xlink:href="#DejaVuSans-69" x="581.392578"/>
     <use xlink:href="#DejaVuSans-61" x="609.175781"/>
     <use xlink:href="#DejaVuSans-67" x="670.455078"/>
     <use xlink:href="#DejaVuSans-72" x="733.931641"/>
     <use xlink:href="#DejaVuSans-61" x="775.044922"/>
     <use xlink:href="#DejaVuSans-6d" x="836.324219"/>
     <use xlink:href="#DejaVuSans-20" x="933.736328"/>
     <use xlink:href="#DejaVuSans-2d" x="965.523438"/>
     <use xlink:href="#DejaVuSans-20" x="1001.607422"/>
     <use xlink:href="#DejaVuSans-34" x="1033.394531"/>
     <use xlink:href="#DejaVuSans-41" x="1097.017578"/>
     <use xlink:href="#DejaVuSans-56" x="1159.050781"/>
     <use xlink:href="#DejaVuSans-56" x="1227.458984"/>
     <use xlink:href="#DejaVuSans-46" x="1295.867188"/>
     <use xlink:href="#DejaVuSans-31" x="1353.386719"/>
     <use xlink:href="#DejaVuSans-30" x="1417.009766"/>
    </g>
   </g>
   <g id="legend_1">
    <g id="patch_6">
     <path d="M 411.802812 78.513438 
L 466.5825 78.513438 
Q 468.5825 78.513438 468.5825 76.513438 
L 468.5825 48.157188 
Q 468.5825 46.157188 466.5825 46.157188 
L 411.802812 46.157188 
Q 409.802812 46.157188 409.802812 48.157188 
L 409.802812 76.513438 
Q 409.802812 78.513438 411.802812 78.513438 
z
" style="fill: #ffffff; opacity: 0.8; stroke: #cccccc; stroke-linejoin: miter"/>
    </g>
    <g id="line2d_17">
     <path d="M 413.802812 54.255625 
L 423.802812 54.255625 
L 433.802812 54.255625 
" style="fill: none; stroke: #ff0000; stroke-width: 1.5; stroke-linecap: square"/>
    </g>
    <g id="text_18">
     <!-- INPE -->
     <g transform="translate(441.802812 57.755625)scale(0.1 -0.1)">
      <defs>
       <path id="DejaVuSans-49" d="M 628 4666 
L 1259 4666 
L 1259 0 
L 628 0 
L 628 4666 
z
" transform="scale(0.015625)"/>
       <path id="DejaVuSans-4e" d="M 628 4666 
L 1478 4666 
L 3547 763 
L 3547 4666 
L 4159 4666 
L 4159 0 
L 3309 0 
L 1241 3903 
L 1241 0 
L 628 0 
L 628 4666 
z
" transform="scale(0.015625)"/>
       <path id="DejaVuSans-45" d="M 628 4666 
L 3578 4666 
L 3578 4134 
L 1259 4134 
L 1259 2753 
L 3481 2753 
L 3481 2222 
L 1259 2222 
L 1259 531 
L 3634 531 
L 3634 0 
L 628 0 
L 628 4666 
z
" transform="scale(0.015625)"/>
      </defs>
      <use xlink:href="#DejaVuSans-49"/>
      <use xlink:href="#DejaVuSans-4e" x="29.492188"/>
      <use xlink:href="#DejaVuSans-50" x="104.296875"/>
      <use xlink:href="#DejaVuSans-45" x="164.599609"/>
     </g>
    </g>
    <g id="line2d_18">
     <path d="M 413.802812 68.93375 
L 423.802812 68.93375 
L 433.802812 68.93375 
" style="fill: none; stroke-dasharray: 5.55,2.4; stroke-dashoffset: 0; stroke: #0000ff; stroke-width: 1.5"/>
    </g>
    <g id="text_19">
     <!-- CST -->
     <g transform="translate(441.802812 72.43375)scale(0.1 -0.1)">
      <defs>
       <path id="DejaVuSans-53" d="M 3425 4513 
L 3425 3897 
Q 3066 4069 2747 4153 
Q 2428 4238 2131 4238 
Q 1616 4238 1336 4038 
Q 1056 3838 1056 3469 
Q 1056 3159 1242 3001 
Q 1428 2844 1947 2747 
L 2328 2669 
Q 3034 2534 3370 2195 
Q 3706 1856 3706 1288 
Q 3706 609 3251 259 
Q 2797 -91 1919 -91 
Q 1588 -91 1214 -16 
Q 841 59 441 206 
L 441 856 
Q 825 641 1194 531 
Q 1563 422 1919 422 
Q 2459 422 2753 634 
Q 3047 847 3047 1241 
Q 3047 1584 2836 1778 
Q 2625 1972 2144 2069 
L 1759 2144 
Q 1053 2284 737 2584 
Q 422 2884 422 3419 
Q 422 4038 858 4394 
Q 1294 4750 2059 4750 
Q 2388 4750 2728 4690 
Q 3069 4631 3425 4513 
z
" transform="scale(0.015625)"/>
       <path id="DejaVuSans-54" d="M -19 4666 
L 3928 4666 
L 3928 4134 
L 2272 4134 
L 2272 0 
L 1638 0 
L 1638 4134 
L -19 4134 
L -19 4666 
z
" transform="scale(0.015625)"/>
      </defs>
      <use xlink:href="#DejaVuSans-43"/>
      <use xlink:href="#DejaVuSans-53" x="69.824219"/>
      <use xlink:href="#DejaVuSans-54" x="133.300781"/>
     </g>
    </g>
   </g>
  </g>
 </g>
 <defs>
  <clipPath id="p1f8b575f7a">
   <path d="M 473.5825 262.917188 
C 473.5825 233.795931 467.846247 204.957842 456.702025 178.05331 
C 445.557803 151.148777 429.222338 126.701026 408.6305 106.109188 
C 388.038662 85.51735 363.590911 69.181885 336.686378 58.037662 
C 309.781845 46.89344 280.943756 41.157188 251.8225 41.157188 
C 222.701244 41.157188 193.863155 46.89344 166.958622 58.037662 
C 140.054089 69.181885 115.606338 85.51735 95.0145 106.109188 
C 74.422662 126.701026 58.087197 151.148777 46.942975 178.05331 
C 35.798753 204.957842 30.0625 233.795931 30.0625 262.917188 
C 30.0625 292.038444 35.798753 320.876533 46.942975 347.781065 
C 58.087197 374.685598 74.422662 399.133349 95.0145 419.725187 
C 115.606338 440.317025 140.054089 456.65249 166.958622 467.796713 
C 193.863155 478.940935 222.701244 484.677188 251.8225 484.677188 
C 280.943756 484.677188 309.781845 478.940935 336.686378 467.796713 
C 363.590911 456.65249 388.038662 440.317025 408.6305 419.725187 
C 429.222338 399.133349 445.557803 374.685598 456.702025 347.781065 
C 467.846247 320.876533 473.5825 292.038444 473.5825 262.917188 
M 251.8225 262.917188 
C 251.8225 262.917188 251.8225 262.917188 251.8225 262.917188 
C 251.8225 262.917188 251.8225 262.917188 251.8225 262.917188 
C 251.8225 262.917188 251.8225 262.917188 251.8225 262.917188 
C 251.8225 262.917188 251.8225 262.917188 251.8225 262.917188 
C 251.8225 262.917188 251.8225 262.917188 251.8225 262.917188 
C 251.8225 262.917188 251.8225 262.917188 251.8225 262.917188 
C 251.8225 262.917188 251.8225 262.917188 251.8225 262.917188 
C 251.8225 262.917188 251.8225 262.917188 251.8225 262.917188 
C 251.8225 262.917188 251.8225 262.917188 251.8225 262.917188 
C 251.8225 262.917188 251.8225 262.917188 251.8225 262.917188 
C 251.8225 262.917188 251.8225 262.917188 251.8225 262.917188 
C 251.8225 262.917188 251.8225 262.917188 251.8225 262.917188 
C 251.8225 262.917188 251.8225 262.917188 251.8225 262.917188 
C 251.8225 262.917188 251.8225 262.917188 251.8225 262.917188 
C 251.8225 262.917188 251.8225 262.917188 251.8225 262.917188 
C 251.8225 262.917188 251.8225 262.917188 251.8225 262.917188 
M 473.5825 262.917188 
z
"/>
  </clipPath>
 </defs>
</svg>
